<?xml version="1.0" encoding="iso-8859-1"?>
<!-- Generator: Adobe Illustrator 19.0.0, SVG Export Plug-In . SVG Version: 6.00 Build 0)  -->
<svg version="1.1" id="Layer_1" xmlns="http://www.w3.org/2000/svg" xmlns:xlink="http://www.w3.org/1999/xlink" x="0px" y="0px"
	 viewBox="0 0 24 24" style="enable-background:new 0 0 24 24;" xml:space="preserve">
<g>
	<path d="M5.191,13.038c-0.186-0.077-0.401-0.035-0.545,0.108L3,14.793l-1.646-1.646c-0.143-0.143-0.359-0.185-0.545-0.108
		C0.622,13.115,0.5,13.298,0.5,13.5v10C0.5,23.776,0.724,24,1,24h4c0.276,0,0.5-0.224,0.5-0.5v-10
		C5.5,13.298,5.378,13.115,5.191,13.038z"/>
	<path d="M9.354,9.146c-0.195-0.195-0.512-0.195-0.707,0l-2,2C6.553,11.24,6.5,11.367,6.5,11.5v12C6.5,23.776,6.724,24,7,24h4
		c0.276,0,0.5-0.224,0.5-0.5v-12c0-0.133-0.053-0.26-0.146-0.354L9.354,9.146z"/>
	<path d="M15.354,7.146c-0.195-0.195-0.512-0.195-0.707,0l-2,2C12.553,9.24,12.5,9.367,12.5,9.5v14c0,0.276,0.224,0.5,0.5,0.5h4
		c0.276,0,0.5-0.224,0.5-0.5v-14c0-0.133-0.053-0.26-0.146-0.354L15.354,7.146z"/>
	<path d="M22.354,5.146C22.26,5.053,22.133,5,22,5h-1c-0.133,0-0.26,0.053-0.354,0.146l-2,2C18.553,7.24,18.5,7.367,18.5,7.5v16
		c0,0.276,0.224,0.5,0.5,0.5h4c0.276,0,0.5-0.224,0.5-0.5v-17c0-0.133-0.053-0.26-0.146-0.354L22.354,5.146z"/>
	<path d="M23,0h-3c-0.202,0-0.385,0.122-0.462,0.309s-0.034,0.402,0.108,0.545L20.793,2L17,5.793l-1.646-1.646
		c-0.195-0.195-0.512-0.195-0.707,0L11,7.793L9.354,6.146c-0.195-0.195-0.512-0.195-0.707,0L3,11.793l-1.646-1.646
		c-0.195-0.195-0.512-0.195-0.707,0s-0.195,0.512,0,0.707l2,2C2.744,12.951,2.872,13,3,13s0.256-0.049,0.354-0.146L9,7.207
		l1.646,1.646c0.195,0.195,0.512,0.195,0.707,0L15,5.207l1.646,1.646c0.195,0.195,0.512,0.195,0.707,0L21.5,2.707l1.146,1.146
		C22.742,3.949,22.87,4,23,4c0.064,0,0.13-0.012,0.191-0.038C23.378,3.885,23.5,3.702,23.5,3.5v-3C23.5,0.224,23.276,0,23,0z"/>
</g>
<g>
</g>
<g>
</g>
<g>
</g>
<g>
</g>
<g>
</g>
<g>
</g>
<g>
</g>
<g>
</g>
<g>
</g>
<g>
</g>
<g>
</g>
<g>
</g>
<g>
</g>
<g>
</g>
<g>
</g>
</svg>
