<?xml version="1.0" encoding="iso-8859-1"?>
<!-- Generator: Adobe Illustrator 19.0.0, SVG Export Plug-In . SVG Version: 6.00 Build 0)  -->
<svg version="1.1" id="Layer_1" xmlns="http://www.w3.org/2000/svg" xmlns:xlink="http://www.w3.org/1999/xlink" x="0px" y="0px"
	 viewBox="0 0 24 24" style="enable-background:new 0 0 24 24;" xml:space="preserve">
<g>
	<g>
		<path d="M23,12.5H1c-0.276,0-0.5-0.224-0.5-0.5s0.224-0.5,0.5-0.5h22c0.276,0,0.5,0.224,0.5,0.5S23.276,12.5,23,12.5z"/>
	</g>
	<g>
		<path d="M2,10.5c-0.128,0-0.256-0.049-0.354-0.146c-0.195-0.195-0.195-0.512,0-0.707l4-4c0.195-0.195,0.512-0.195,0.707,0L8,7.293
			l4.646-4.646c0.195-0.195,0.512-0.195,0.707,0L16,5.293l4.646-4.646c0.195-0.195,0.512-0.195,0.707,0s0.195,0.512,0,0.707l-5,5
			c-0.195,0.195-0.512,0.195-0.707,0L13,3.707L8.354,8.354c-0.195,0.195-0.512,0.195-0.707,0L6,6.707l-3.646,3.646
			C2.256,10.451,2.128,10.5,2,10.5z"/>
	</g>
	<g>
		<path d="M2,23.5c-0.128,0-0.256-0.049-0.354-0.146c-0.195-0.195-0.195-0.512,0-0.707l4-4c0.195-0.195,0.512-0.195,0.707,0
			L8,20.293l4.646-4.646c0.195-0.195,0.512-0.195,0.707,0L16,18.293l4.646-4.646c0.195-0.195,0.512-0.195,0.707,0
			s0.195,0.512,0,0.707l-5,5c-0.195,0.195-0.512,0.195-0.707,0L13,16.707l-4.646,4.646c-0.195,0.195-0.512,0.195-0.707,0L6,19.707
			l-3.646,3.646C2.256,23.451,2.128,23.5,2,23.5z"/>
	</g>
</g>
<g>
</g>
<g>
</g>
<g>
</g>
<g>
</g>
<g>
</g>
<g>
</g>
<g>
</g>
<g>
</g>
<g>
</g>
<g>
</g>
<g>
</g>
<g>
</g>
<g>
</g>
<g>
</g>
<g>
</g>
</svg>
