<?xml version="1.0" encoding="iso-8859-1"?>
<!-- Generator: Adobe Illustrator 19.0.0, SVG Export Plug-In . SVG Version: 6.00 Build 0)  -->
<svg version="1.1" id="Layer_1" xmlns="http://www.w3.org/2000/svg" xmlns:xlink="http://www.w3.org/1999/xlink" x="0px" y="0px"
	 viewBox="0 0 24 24" style="enable-background:new 0 0 24 24;" xml:space="preserve">
<g>
	<path d="M12.5,0C12.224,0,12,0.224,12,0.5v11c0,0.276,0.224,0.5,0.5,0.5h11c0.276,0,0.5-0.224,0.5-0.5C24,5.159,18.841,0,12.5,0z"
		/>
	<path d="M17.895,21.193L11,12.329V1.5C11,1.224,10.776,1,10.5,1C4.71,1,0,6.159,0,12.5S5.159,24,11.5,24
		c2.837,0,4.372-0.514,6.317-2.114C18.026,21.714,18.061,21.407,17.895,21.193z"/>
	<path d="M23.5,13h-10c-0.192,0-0.368,0.111-0.451,0.285s-0.059,0.38,0.063,0.529l6.5,8.047c0.087,0.108,0.215,0.175,0.354,0.185
		c0.012,0.001,0.023,0.001,0.035,0.001c0.126,0,0.248-0.048,0.341-0.134C22.666,19.744,24,16.678,24,13.5
		C24,13.224,23.776,13,23.5,13z"/>
</g>
<g>
</g>
<g>
</g>
<g>
</g>
<g>
</g>
<g>
</g>
<g>
</g>
<g>
</g>
<g>
</g>
<g>
</g>
<g>
</g>
<g>
</g>
<g>
</g>
<g>
</g>
<g>
</g>
<g>
</g>
</svg>
