<?xml version="1.0" encoding="iso-8859-1"?>
<!-- Generator: Adobe Illustrator 19.0.0, SVG Export Plug-In . SVG Version: 6.00 Build 0)  -->
<svg version="1.1" id="Layer_1" xmlns="http://www.w3.org/2000/svg" xmlns:xlink="http://www.w3.org/1999/xlink" x="0px" y="0px"
	 viewBox="0 0 30 30" style="enable-background:new 0 0 30 30;" xml:space="preserve">
<g>
	<g>
		<path d="M15,3.997c-2.481,0-4.5,2.019-4.5,4.5c0,2.31,1.757,4.197,4,4.449v8.143c-0.581,0.207-1,0.757-1,1.408
			c0,0.827,0.673,1.5,1.5,1.5c0.827,0,1.5-0.673,1.5-1.5c0-0.651-0.419-1.201-1-1.408v-8.143c2.244-0.253,4-2.14,4-4.449
			C19.5,6.016,17.481,3.997,15,3.997z M15,22.997c-0.275,0-0.5-0.224-0.5-0.5s0.225-0.5,0.5-0.5c0.275,0,0.5,0.224,0.5,0.5
			S15.275,22.997,15,22.997z M15,11.997c-1.93,0-3.5-1.57-3.5-3.5s1.57-3.5,3.5-3.5s3.5,1.57,3.5,3.5S16.93,11.997,15,11.997z
			 M22.495,8.075c0.007-0.047,0.008-0.094,0.002-0.14c-0.427-3.428-4.162-5.829-6.169-7.12c-0.44-0.282-0.855-0.549-0.969-0.667
			c-0.19-0.193-0.528-0.193-0.717,0c-0.115,0.118-0.53,0.385-0.969,0.667c-2.007,1.29-5.742,3.692-6.169,7.12
			c-0.006,0.047-0.005,0.094,0.002,0.14l0.106,0.669c1.118,7.072,2.387,15.087-0.05,19.511c-0.086,0.155-0.083,0.343,0.007,0.496
			c0.09,0.153,0.254,0.246,0.431,0.246h1.5v0.5c0,0.276,0.224,0.5,0.5,0.5s0.5-0.224,0.5-0.5v-0.5h9v0.5c0,0.276,0.224,0.5,0.5,0.5
			s0.5-0.224,0.5-0.5v-0.5H22c0.162,0,0.317-0.079,0.41-0.211c0.093-0.132,0.117-0.302,0.063-0.455
			C20.281,22.109,21.457,14.653,22.495,8.075z M8.803,27.997c2.107-4.808,0.883-12.543-0.202-19.408L8.506,7.991
			c0.413-2.929,3.854-5.141,5.708-6.334c0.324-0.208,0.586-0.377,0.787-0.52c0.201,0.144,0.463,0.312,0.787,0.52
			c1.854,1.193,5.295,3.405,5.708,6.334c-1.018,6.449-2.154,13.718-0.188,20.006H8.803z"/>
	</g>
</g>
</svg>
