<?xml version="1.0" encoding="iso-8859-1"?>
<!-- Generator: Adobe Illustrator 19.0.0, SVG Export Plug-In . SVG Version: 6.00 Build 0)  -->
<svg version="1.1" id="Layer_1" xmlns="http://www.w3.org/2000/svg" xmlns:xlink="http://www.w3.org/1999/xlink" x="0px" y="0px"
	 viewBox="0 0 30 30" style="enable-background:new 0 0 30 30;" xml:space="preserve">
<g>
	<g>
		<path d="M7,20c-0.552,0-1,0.448-1,1s0.448,1,1,1s1-0.448,1-1S7.552,20,7,20z M8,12.5c-0.552,0-1,0.448-1,1s0.448,1,1,1
			s1-0.448,1-1S8.552,12.5,8,12.5z M26.451,18.945l-0.874-6.338C25.371,11.121,24.118,10,22.661,10H22.5V7.5
			C22.5,3.364,19.136,0,15,0S7.5,3.364,7.5,7.5V10H7.339c-1.457,0-2.71,1.121-2.916,2.607l-0.874,6.338
			c-0.04,0.293-0.056,0.554-0.047,0.799C3.72,25.495,8.77,30,15,30s11.28-4.505,11.498-10.256
			C26.507,19.499,26.491,19.238,26.451,18.945z M8.5,7.5C8.5,3.916,11.416,1,15,1s6.5,2.916,6.5,6.5V10h-2V7.5
			C19.5,5.019,17.481,3,15,3s-4.5,2.019-4.5,4.5V10h-2V7.5z M18.5,7.5V10h-7V7.5C11.5,5.57,13.07,4,15,4S18.5,5.57,18.5,7.5z M15,29
			c-5.69,0-10.302-4.082-10.498-9.293c-0.008-0.208,0.009-0.419,0.037-0.625l0.874-6.338C5.551,11.75,6.379,11,7.339,11h15.322
			c0.96,0,1.788,0.75,1.926,1.744l0.874,6.338c0.028,0.206,0.045,0.417,0.037,0.625C25.302,24.918,20.69,29,15,29z M14.346,13.059
			c-1.392,0.254-2.509,1.357-2.779,2.745c-0.31,1.603,0.493,3.164,1.933,3.846v1.85c0,0.827,0.673,1.5,1.5,1.5
			c0.827,0,1.5-0.673,1.5-1.5v-1.852c1.21-0.575,2-1.798,2-3.149c0-1.041-0.459-2.02-1.259-2.688
			C16.441,13.144,15.385,12.871,14.346,13.059z M15.833,18.845c-0.2,0.071-0.333,0.259-0.333,0.471V21.5c0,0.275-0.225,0.5-0.5,0.5
			c-0.275,0-0.5-0.225-0.5-0.5v-2.183c0-0.212-0.133-0.401-0.332-0.471c-1.178-0.419-1.858-1.618-1.618-2.85
			c0.189-0.972,1.001-1.774,1.977-1.952C14.688,14.015,14.848,14,15.006,14c0.585,0,1.139,0.199,1.595,0.58
			c0.571,0.477,0.899,1.177,0.899,1.92C17.5,17.548,16.83,18.491,15.833,18.845z M23,13.5c0-0.552-0.448-1-1-1s-1,0.448-1,1
			s0.448,1,1,1S23,14.052,23,13.5z M23,20c-0.552,0-1,0.448-1,1s0.448,1,1,1s1-0.448,1-1S23.552,20,23,20z M15,25
			c-0.552,0-1,0.448-1,1s0.448,1,1,1s1-0.448,1-1S15.552,25,15,25z"/>
	</g>
</g>
</svg>
