<?xml version="1.0" encoding="iso-8859-1"?>
<!-- Generator: Adobe Illustrator 19.0.0, SVG Export Plug-In . SVG Version: 6.00 Build 0)  -->
<svg version="1.1" id="Layer_1" xmlns="http://www.w3.org/2000/svg" xmlns:xlink="http://www.w3.org/1999/xlink" x="0px" y="0px"
	 viewBox="0 0 30 30" style="enable-background:new 0 0 30 30;" xml:space="preserve">
<g>
	<g>
		<path d="M14.346,16.059c-1.392,0.254-2.509,1.357-2.779,2.745c-0.31,1.603,0.493,3.164,1.933,3.846v1.85
			c0,0.827,0.673,1.5,1.5,1.5s1.5-0.673,1.5-1.5v-1.852c1.21-0.575,2-1.798,2-3.149c0-1.041-0.459-2.02-1.259-2.688
			C16.441,16.144,15.385,15.872,14.346,16.059z M15.833,21.845c-0.2,0.071-0.333,0.259-0.333,0.471V24.5c0,0.275-0.225,0.5-0.5,0.5
			s-0.5-0.225-0.5-0.5v-2.183c0-0.212-0.133-0.401-0.332-0.471c-1.178-0.419-1.858-1.618-1.618-2.85
			c0.189-0.972,1.001-1.774,1.977-1.952C14.688,17.015,14.848,17,15.006,17c0.585,0,1.139,0.199,1.595,0.58
			c0.571,0.477,0.899,1.177,0.899,1.92C17.5,20.548,16.83,21.491,15.833,21.845z M24.573,16.288
			c-0.128-0.306-0.249-0.597-0.348-0.896c-0.452-1.377-0.498-2.508-0.122-3.027C24.28,12.12,24.574,12,25,12
			c0.216,0,0.406-0.138,0.475-0.343c0.067-0.204-0.003-0.429-0.175-0.558c-0.974-0.728-1.911-1.116-2.8-1.284V7.5
			C22.5,3.364,19.136,0,15,0S7.5,3.364,7.5,7.5v2.323c-0.891,0.165-1.827,0.55-2.799,1.276c-0.173,0.129-0.243,0.354-0.176,0.559
			C4.594,11.862,4.784,12,5,12c0.426,0,0.72,0.12,0.898,0.365c0.376,0.519,0.33,1.65-0.122,3.027
			c-0.099,0.299-0.22,0.59-0.348,0.896C5.015,17.282,4.5,18.519,4.5,20.622C4.5,23.427,8.072,30,15,30s10.5-6.573,10.501-9.378
			C25.501,18.519,24.986,17.282,24.573,16.288z M8.5,7.5C8.5,3.916,11.416,1,15,1s6.5,2.916,6.5,6.5v2.211
			c-0.705-0.008-1.375,0.11-2,0.3V7.5C19.5,5.019,17.481,3,15,3s-4.5,2.019-4.5,4.5v2.526c-0.626-0.19-1.295-0.308-2-0.302V7.5z
			 M18.5,7.5v2.879c-0.629,0.271-1.203,0.584-1.71,0.862C16.077,11.631,15.403,12,15,12c-0.404,0-1.081-0.367-1.798-0.756
			c-0.505-0.274-1.076-0.583-1.702-0.852V7.5C11.5,5.57,13.07,4,15,4S18.5,5.57,18.5,7.5z M15,29c-6.268,0-9.5-5.872-9.5-8.378
			c0-1.902,0.452-2.99,0.852-3.949c0.138-0.331,0.268-0.646,0.373-0.968c0.33-1.003,0.765-2.845-0.018-3.926
			c-0.111-0.154-0.269-0.321-0.49-0.461c2.551-1.341,4.725-0.163,6.508,0.806c0.902,0.49,1.616,0.877,2.274,0.877
			c0.66,0,1.406-0.409,2.27-0.882c1.781-0.975,3.949-2.16,6.516-0.802c-0.221,0.14-0.381,0.307-0.492,0.462
			c-0.784,1.081-0.348,2.923-0.018,3.926c0.105,0.322,0.235,0.637,0.373,0.968c0.4,0.959,0.852,2.047,0.852,3.949
			C24.5,23.128,21.268,29,15,29z"/>
	</g>
</g>
</svg>
