<?xml version="1.0" encoding="iso-8859-1"?>
<!-- Generator: Adobe Illustrator 19.0.0, SVG Export Plug-In . SVG Version: 6.00 Build 0)  -->
<svg version="1.1" id="Layer_1" xmlns="http://www.w3.org/2000/svg" xmlns:xlink="http://www.w3.org/1999/xlink" x="0px" y="0px"
	 viewBox="0 0 30 30" style="enable-background:new 0 0 30 30;" xml:space="preserve">
<g>
	<g>
		<path d="M29.981,25.366c-1.257-4.517-5.282-8.032-9.575-8.363l-7.658-1.02C11.751,15.85,11,15.01,11,14.03V9
			c0-0.343,0.242-0.638,0.588-0.717c0.076-0.017,0.166-0.04,0.266-0.067c1.401-0.377,3.219-0.141,4.422,0.015
			c0.531,0.069,1.111,0.175,1.717,0.285C19.241,8.743,20.657,9,22,9c4.252,0,7-0.981,7-2.5C29,4.876,25.394,4,22,4
			c-2.249,0-4.244,0.183-5.617,0.514c-1.829,0.441-3.598,0.513-5.258,0.212c-0.517-0.093-1.104-0.241-1.653-0.38
			C8.948,4.215,8.458,4.092,8.086,4.027C7.549,3.934,7.012,4.077,6.604,4.42C6.22,4.742,6,5.211,6,5.706v8.612
			C6,15.48,4.985,16,3.979,16H3c-0.225,0-0.422,0.15-0.481,0.366l-2.5,9c-0.042,0.151-0.011,0.312,0.083,0.437
			C0.196,25.927,0.344,26,0.5,26h29c0.156,0,0.304-0.073,0.398-0.197C29.993,25.679,30.023,25.517,29.981,25.366z M3.378,17h0.6
			c1.75,0,3.021-1.128,3.021-2.682V5.706c0-0.202,0.088-0.387,0.247-0.521c0.181-0.153,0.428-0.217,0.667-0.173
			c0.354,0.061,0.818,0.179,1.313,0.304c0.572,0.144,1.182,0.298,1.721,0.395c1.795,0.324,3.703,0.25,5.67-0.225
			C17.916,5.173,19.827,5,22,5c3.897,0,6,1.064,6,1.5C28,7.007,26.188,8,22,8c-1.253,0-2.562-0.238-3.828-0.469
			c-0.624-0.113-1.22-0.221-1.767-0.292c-1.283-0.167-3.22-0.42-4.813,0.012c-0.085,0.023-0.161,0.042-0.225,0.057
			C10.563,7.491,10,8.187,10,9v5.03c0,1.479,1.124,2.745,2.615,2.944l7.673,1.022c0.009,0.002,0.019,0.003,0.029,0.003
			c2.638,0.198,5.166,1.742,6.881,4.001H1.99L3.378,17z M1.158,25l0.555-2H27.88c0.377,0.629,0.695,1.299,0.939,2H1.158z"/>
	</g>
</g>
</svg>
