<?xml version="1.0" encoding="utf-8"?>
<!-- Generator: Adobe Illustrator 19.0.0, SVG Export Plug-In . SVG Version: 6.00 Build 0)  -->
<svg version="1.1" id="Layer_1" xmlns="http://www.w3.org/2000/svg" xmlns:xlink="http://www.w3.org/1999/xlink" x="0px" y="0px"
	 viewBox="0 0 30 30" style="enable-background:new 0 0 30 30;" xml:space="preserve">
<g>
	<g>
		<path d="M25,30c-0.3,0-0.5-0.2-0.5-0.5v-29C24.5,0.2,24.7,0,25,0s0.5,0.2,0.5,0.5v29C25.5,29.8,25.3,30,25,30z"/>
	</g>
	<g>
		<path d="M29,5H5C4.7,5,4.5,4.8,4.5,4.5S4.7,4,5,4h24c0.3,0,0.5,0.2,0.5,0.5S29.3,5,29,5z"/>
	</g>
	<g>
		<path d="M29,30H1c-0.3,0-0.5-0.2-0.5-0.5S0.7,29,1,29h28c0.3,0,0.5,0.2,0.5,0.5S29.3,30,29,30z"/>
	</g>
	<g>
		<path d="M17.5,18h-15C2.2,18,2,17.8,2,17.5S2.2,17,2.5,17h15c0.3,0,0.5,0.2,0.5,0.5S17.8,18,17.5,18z"/>
	</g>
	<g>
		<path d="M10,25c-4.7,0-8.5-3.8-8.5-8.5c0-3.3,2-6.3,5-7.7V1.5C6.5,1.2,6.7,1,7,1h6c0.3,0,0.5,0.2,0.5,0.5v7.3c3,1.4,5,4.4,5,7.7
			C18.5,21.2,14.7,25,10,25z M7.5,2v7.1c0,0.2-0.1,0.4-0.3,0.5c-2.8,1.2-4.7,3.9-4.7,6.9c0,4.1,3.4,7.5,7.5,7.5s7.5-3.4,7.5-7.5
			c0-3-1.8-5.8-4.7-6.9c-0.2-0.1-0.3-0.3-0.3-0.5V2H7.5z"/>
	</g>
</g>
</svg>
