<?xml version="1.0" encoding="utf-8"?>
<!-- Generator: Adobe Illustrator 19.0.0, SVG Export Plug-In . SVG Version: 6.00 Build 0)  -->
<svg version="1.1" id="Layer_1" xmlns="http://www.w3.org/2000/svg" xmlns:xlink="http://www.w3.org/1999/xlink" x="0px" y="0px"
	 viewBox="0 0 30 30" style="enable-background:new 0 0 30 30;" xml:space="preserve">
<g>
	<g>
		<path d="M14.5,23C13.2,23,9,22.8,9,20.5c0-0.5,0.2-0.9,0.5-1.2c0.5-0.4,1.1-0.5,1.6-0.5c-0.5-2.5-1.2-4.1-2-4.9
			c-0.2-0.2-0.2-0.5,0-0.7s0.5-0.2,0.7,0c1,1,1.8,2.9,2.4,6c0,0.2,0,0.3-0.1,0.4c-0.1,0.1-0.3,0.2-0.4,0.2c-0.3,0-1.1,0-1.5,0.3
			c-0.1,0.1-0.2,0.2-0.2,0.5c0,2,9,2,9,0c0-0.2-0.1-0.3-0.2-0.4c-0.5-0.4-1.7-0.4-2-0.4c-0.2,0-0.3,0-0.4-0.2
			c-0.1-0.1-0.2-0.3-0.1-0.4c0.7-3.6,2.4-5.5,2.9-6c0.2-0.2,0.5-0.2,0.7,0s0.2,0.5,0,0.7c-0.4,0.4-1.8,2-2.5,4.9
			c0.6,0,1.6,0.1,2.1,0.6c0.3,0.3,0.5,0.7,0.5,1.1C20,22.8,15.8,23,14.5,23z"/>
	</g>
	<g>
		<path d="M4.5,30C4.2,30,4,29.8,4,29.5C4,27.3,5.8,26,7.5,26c1.2,0,3.1,0.6,3.9,0.9c0.4-0.5,0.5-0.9,0.6-1.8c0-0.2,0-0.4,0.1-0.7
			c0-0.3,0.3-0.5,0.6-0.4c0.3,0,0.5,0.3,0.4,0.6c0,0.2-0.1,0.5-0.1,0.7c-0.1,1-0.2,1.7-1.1,2.6C11.7,28,11.5,28,11.3,28
			c0,0-2.6-1-3.8-1c-1,0-2.5,0.7-2.5,2.5C5,29.8,4.8,30,4.5,30z"/>
	</g>
	<g>
		<path d="M24.5,30c-0.3,0-0.5-0.2-0.5-0.5c0-1.8-1.5-2.5-2.5-2.5c-1,0-3.1,0.7-3.8,1c-0.2,0.1-0.4,0-0.5-0.1
			c-0.9-0.9-1-1.6-1.1-2.6c0-0.2,0-0.4-0.1-0.7c0-0.3,0.2-0.5,0.4-0.6c0.3,0,0.5,0.2,0.6,0.4c0,0.3,0.1,0.5,0.1,0.7
			c0.1,0.9,0.1,1.3,0.6,1.8c0.8-0.3,2.7-0.9,3.9-0.9c1.7,0,3.5,1.3,3.5,3.5C25,29.8,24.8,30,24.5,30z"/>
	</g>
	<g>
		<g>
			<path d="M8.7,16.9c0,0-0.1,0-0.1,0c-0.7-0.2-1.3-0.6-1.8-1.1c-0.2-0.2-0.2-0.5,0.1-0.7c0.2-0.2,0.5-0.2,0.7,0.1
				c0.3,0.4,0.8,0.7,1.3,0.8c0.3,0.1,0.4,0.3,0.4,0.6C9.2,16.7,9,16.9,8.7,16.9z"/>
		</g>
		<g>
			<path d="M2,13.9c0,0-0.1,0-0.1,0C0.8,13.6,0,12.6,0,11.5c0-0.3,0.1-0.6,0.2-0.9c0.1-0.3,0.4-0.4,0.6-0.3c0.3,0.1,0.4,0.4,0.3,0.6
				C1,11.1,1,11.3,1,11.5c0,0.7,0.5,1.3,1.1,1.4c0.3,0.1,0.4,0.4,0.3,0.6C2.4,13.8,2.2,13.9,2,13.9z"/>
		</g>
		<g>
			<path d="M0.6,11.3c-0.2,0-0.4-0.2-0.5-0.4C0.1,10.4,0,10,0,9.5C0,5.9,2.9,3,6.5,3c0.3,0,0.7,0,1,0.1c1.8-2,4.3-3.1,7-3.1
				c2.5,0,4.8,1,6.6,2.7c0.2,0.2,0.2,0.5,0,0.7c-0.2,0.2-0.5,0.2-0.7,0C18.8,1.9,16.7,1,14.5,1C12,1,9.7,2.1,8.1,3.9
				C8,4.1,7.8,4.1,7.6,4.1C7.2,4,6.9,4,6.5,4C3.5,4,1,6.5,1,9.5c0,0.4,0,0.8,0.1,1.2c0.1,0.3-0.1,0.5-0.4,0.6
				C0.7,11.3,0.7,11.3,0.6,11.3z"/>
		</g>
		<g>
			<path d="M9.5,17c-1.1,0-2.8-0.7-3.3-2.5c-0.8-0.1-1.6-0.4-2.1-1c-0.6,0.5-1.3,0.7-2.2,0.4c-0.3-0.1-0.4-0.4-0.3-0.6
				s0.4-0.4,0.6-0.3C2.3,13,2.4,13,2.5,13c0.5,0,0.9-0.2,1.2-0.6c0.1-0.1,0.3-0.2,0.4-0.2c0.2,0,0.3,0.1,0.4,0.2
				c0.5,0.7,1.2,1.1,2,1.1c0.2,0,0.5,0.2,0.5,0.4C7.3,15.4,8.7,16,9.5,16c0.4,0,0.9-0.1,1.2-0.3c0.2-0.1,0.5-0.1,0.7,0.2
				c0.1,0.2,0.1,0.5-0.2,0.7C10.7,16.8,10.1,17,9.5,17z"/>
		</g>
		<g>
			<path d="M20.7,16.5c-0.3,0-0.5-0.2-0.5-0.5c0-0.3,0.2-0.5,0.5-0.5c0.7-0.1,1.3-0.5,1.6-1.2c0.1-0.2,0.2-0.3,0.4-0.3
				c0.2,0,0.4,0.1,0.5,0.2c0.3,0.5,0.8,0.7,1.3,0.7c0.8,0,1.5-0.7,1.5-1.5c0-0.3,0.2-0.5,0.5-0.5c1.4,0,2.5-1.1,2.5-2.5
				c0-1.2-0.8-2.2-1.9-2.4c-0.2,0-0.3-0.1-0.4-0.3s0-0.3,0-0.5C26.9,7.1,27,6.8,27,6.5C27,5.7,26.3,5,25.5,5c0,0-0.1,0-0.1,0
				c-0.2,0-0.4-0.1-0.5-0.3c-0.4-1-1.3-1.7-2.3-1.7c-0.5,0-1,0.2-1.4,0.5c-0.2,0.2-0.5,0.1-0.7-0.1c-0.2-0.2-0.1-0.5,0.1-0.7
				c0.6-0.4,1.3-0.6,2-0.6c1.4,0,2.6,0.8,3.2,2C27,4.1,28,5.2,28,6.5c0,0.3,0,0.5-0.1,0.8c1.3,0.5,2.1,1.8,2.1,3.2
				c0,1.8-1.3,3.2-3,3.5c-0.2,1.2-1.2,2-2.5,2c-0.6,0-1.2-0.2-1.7-0.6C22.3,16,21.6,16.4,20.7,16.5C20.8,16.5,20.7,16.5,20.7,16.5z"
				/>
		</g>
		<g>
			<path d="M20.5,16.5c-0.9,0-1.8-0.4-2.4-1.2c-0.2-0.2-0.1-0.5,0.1-0.7c0.2-0.2,0.5-0.1,0.7,0.1c0.4,0.5,1.1,0.8,1.7,0.8l0.1,0.5
				l0,0.5C20.7,16.5,20.6,16.5,20.5,16.5z"/>
		</g>
		<g>
			<path d="M14.5,12C11.5,12,9,9.9,9,7.3C9,7,9.2,6.8,9.5,6.8S10,7,10,7.3c0,2.1,2,3.8,4.5,3.8S19,9.3,19,7.3c0-0.3,0.2-0.5,0.5-0.5
				S20,7,20,7.3C20,9.9,17.5,12,14.5,12z"/>
		</g>
		<g>
			<path d="M6.5,11c-0.7,0-1.3-0.2-1.8-0.5C4.4,10.3,4.4,10,4.5,9.8C4.6,9.6,5,9.5,5.2,9.6C5.6,9.9,6,10,6.5,10C7.9,10,9,8.9,9,7.5
				C9,7.2,9.2,7,9.5,7S10,7.2,10,7.5C10,9.4,8.4,11,6.5,11z"/>
		</g>
		<g>
			<path d="M22.5,11C20.6,11,19,9.4,19,7.5C19,7.2,19.2,7,19.5,7S20,7.2,20,7.5c0,1.4,1.1,2.5,2.5,2.5c0.7,0,1.3-0.3,1.8-0.7
				c0.2-0.2,0.5-0.2,0.7,0s0.2,0.5,0,0.7C24.3,10.6,23.4,11,22.5,11z"/>
		</g>
	</g>
</g>
</svg>
