<?xml version="1.0" encoding="iso-8859-1"?>
<!-- Generator: Adobe Illustrator 19.0.0, SVG Export Plug-In . SVG Version: 6.00 Build 0)  -->
<svg version="1.1" id="Layer_1" xmlns="http://www.w3.org/2000/svg" xmlns:xlink="http://www.w3.org/1999/xlink" x="0px" y="0px"
	 viewBox="0 0 24 24" style="enable-background:new 0 0 24 24;" xml:space="preserve">
<g>
	<path d="M23.689,14.793c-0.045-0.132-0.142-0.239-0.269-0.295c-0.126-0.057-0.271-0.059-0.399-0.004
		c-0.231,0.1-0.504,0.014-0.624-0.194c-0.124-0.213-0.063-0.481,0.144-0.637c0.111-0.084,0.183-0.21,0.197-0.349
		c0.014-0.139-0.03-0.277-0.122-0.381c-0.816-0.928-1.867-1.542-3.039-1.774c-0.138-0.028-0.281,0.005-0.394,0.088
		c-0.113,0.084-0.186,0.211-0.201,0.351c-0.026,0.258-0.234,0.452-0.482,0.452s-0.456-0.194-0.482-0.452
		c-0.015-0.14-0.087-0.267-0.201-0.351c-0.112-0.083-0.255-0.116-0.394-0.088c-1.172,0.232-2.223,0.846-3.039,1.774
		c-0.092,0.104-0.136,0.243-0.122,0.381c0.015,0.139,0.086,0.265,0.197,0.349c0.207,0.155,0.268,0.423,0.144,0.637
		c-0.12,0.208-0.394,0.292-0.624,0.194c-0.128-0.055-0.273-0.053-0.399,0.004c-0.127,0.057-0.224,0.164-0.269,0.295
		C13.102,15.409,13,15.983,13,16.549s0.102,1.141,0.311,1.756c0.045,0.132,0.143,0.239,0.269,0.296
		c0.128,0.056,0.272,0.058,0.4,0.004c0.231-0.097,0.504-0.013,0.624,0.194c0.124,0.214,0.063,0.482-0.145,0.638
		c-0.111,0.083-0.183,0.21-0.197,0.349c-0.014,0.138,0.03,0.276,0.122,0.381c0.816,0.928,1.867,1.542,3.039,1.774
		c0.135,0.028,0.281-0.004,0.395-0.088s0.186-0.211,0.201-0.351c0.026-0.258,0.234-0.453,0.482-0.453s0.456,0.194,0.482,0.453
		c0.015,0.14,0.087,0.268,0.201,0.351c0.086,0.064,0.191,0.098,0.297,0.098c0.033,0,0.065-0.003,0.098-0.01
		c1.172-0.233,2.223-0.847,3.039-1.774c0.092-0.104,0.136-0.243,0.122-0.381c-0.014-0.139-0.085-0.265-0.197-0.349
		c-0.207-0.156-0.268-0.424-0.145-0.638c0.119-0.208,0.392-0.293,0.624-0.194c0.128,0.054,0.273,0.052,0.4-0.004
		c0.126-0.057,0.224-0.164,0.269-0.296C23.898,17.69,24,17.115,24,16.549S23.898,15.409,23.689,14.793z M18.5,18.049
		c-0.827,0-1.5-0.673-1.5-1.5s0.673-1.5,1.5-1.5s1.5,0.673,1.5,1.5S19.327,18.049,18.5,18.049z"/>
	<path d="M21.5,7.049c-0.747,0-1.18,0.33-1.529,0.596c-0.28,0.213-0.49,0.373-0.857,0.4c-0.105-0.345-0.09-1.585,0.613-4.396
		c0.097-0.386,0.011-0.788-0.234-1.102c-0.247-0.316-0.62-0.498-1.021-0.498h-4.479c-0.4,0-0.755,0.239-0.904,0.608
		c-0.15,0.374-0.059,0.797,0.233,1.077C13.772,4.169,14,4.611,14,5.049c0,0.827-1.087,1-2,1s-2-0.173-2-1
		c0-0.438,0.228-0.88,0.678-1.314c0.292-0.281,0.384-0.704,0.233-1.078c-0.149-0.37-0.503-0.608-0.904-0.608H5.529
		c-0.402,0-0.774,0.182-1.021,0.498C4.262,2.861,4.177,3.263,4.273,3.649C4.976,6.46,4.992,7.7,4.886,8.045
		c-0.368-0.027-0.577-0.187-0.857-0.4C3.68,7.379,3.247,7.049,2.5,7.049c-1.503,0-2.5,1.806-2.5,3s0.997,3,2.5,3
		c0.747,0,1.18-0.33,1.529-0.596c0.28-0.213,0.49-0.373,0.857-0.4c0.105,0.345,0.09,1.585-0.613,4.396
		c-0.096,0.386-0.011,0.788,0.234,1.102c0.247,0.316,0.62,0.498,1.021,0.498h4.479c0.4,0,0.755-0.239,0.904-0.608
		c0.15-0.374,0.059-0.797-0.233-1.078C10.228,15.93,10,15.488,10,15.049c0-0.827,1.087-1,2-1v-0.5h0l0.163,0.507
		c0.04,0.003,0.079-0.001,0.117-0.01l0.23-0.047c0.091-0.019,0.176-0.063,0.243-0.127c0.097-0.092,0.18-0.158,0.262-0.207
		c0.149-0.089,0.241-0.249,0.244-0.422c0.005-0.358,0.137-0.703,0.374-0.971c0.962-1.094,2.206-1.819,3.594-2.095
		c0.355-0.068,0.72-0.01,1.028,0.164c0.152,0.085,0.338,0.085,0.49,0c0.309-0.174,0.678-0.229,1.027-0.164
		c1.108,0.221,2.119,0.733,3.003,1.522c0.118,0.105,0.312,0.142,0.468,0.109c0.145-0.03,0.27-0.124,0.339-0.255
		c0.266-0.5,0.418-1.048,0.418-1.504C24,8.855,23.003,7.049,21.5,7.049z"/>
</g>
<g>
</g>
<g>
</g>
<g>
</g>
<g>
</g>
<g>
</g>
<g>
</g>
<g>
</g>
<g>
</g>
<g>
</g>
<g>
</g>
<g>
</g>
<g>
</g>
<g>
</g>
<g>
</g>
<g>
</g>
</svg>
