<?xml version="1.0" encoding="iso-8859-1"?>
<!-- Generator: Adobe Illustrator 19.0.0, SVG Export Plug-In . SVG Version: 6.00 Build 0)  -->
<svg version="1.1" id="Layer_1" xmlns="http://www.w3.org/2000/svg" xmlns:xlink="http://www.w3.org/1999/xlink" x="0px" y="0px"
	 viewBox="0 0 24 24" style="enable-background:new 0 0 24 24;" xml:space="preserve">
<g>
	<path d="M18.5,0h-13C2.467,0,0,2.467,0,5.5v13C0,21.533,2.467,24,5.5,24h13c3.033,0,5.5-2.467,5.5-5.5v-13
		C24,2.467,21.533,0,18.5,0z M17.875,12c0,0.257-0.023,0.513-0.056,0.759c-0.023,0.176,0.047,0.351,0.187,0.46l1.74,1.364
		l-1.637,2.829l-2.049-0.824c-0.165-0.068-0.353-0.041-0.494,0.069c-0.391,0.305-0.836,0.564-1.322,0.773
		c-0.161,0.069-0.274,0.217-0.298,0.39L13.7,20h-3.341l-0.305-2.168c-0.024-0.174-0.139-0.323-0.302-0.391
		c-0.477-0.2-0.909-0.453-1.319-0.771C8.293,16.56,8.105,16.533,7.94,16.6l-2.049,0.824l-1.637-2.829l1.74-1.364
		c0.139-0.109,0.21-0.283,0.188-0.458C6.148,12.516,6.125,12.258,6.125,12c0-0.257,0.023-0.513,0.056-0.759
		c0.023-0.176-0.047-0.351-0.187-0.46l-1.74-1.364l1.637-2.829L7.94,7.412c0.164,0.066,0.352,0.04,0.494-0.069
		C8.825,7.039,9.27,6.778,9.756,6.57c0.161-0.069,0.274-0.217,0.298-0.39L10.3,4h3.341l0.305,2.168
		c0.024,0.174,0.139,0.323,0.302,0.391c0.479,0.201,0.91,0.453,1.319,0.771c0.141,0.11,0.33,0.136,0.494,0.069l2.049-0.824
		l1.637,2.829l-1.74,1.364c-0.139,0.109-0.21,0.283-0.188,0.458C17.852,11.484,17.875,11.742,17.875,12z"/>
	<circle cx="12" cy="12" r="3"/>
</g>
<circle cx="12" cy="12" r="2"/>
<g>
</g>
<g>
</g>
<g>
</g>
<g>
</g>
<g>
</g>
<g>
</g>
<g>
</g>
<g>
</g>
<g>
</g>
<g>
</g>
<g>
</g>
<g>
</g>
<g>
</g>
<g>
</g>
<g>
</g>
</svg>
