<?xml version="1.0" encoding="iso-8859-1"?>
<!-- Generator: Adobe Illustrator 19.0.0, SVG Export Plug-In . SVG Version: 6.00 Build 0)  -->
<svg version="1.1" id="Layer_1" xmlns="http://www.w3.org/2000/svg" xmlns:xlink="http://www.w3.org/1999/xlink" x="0px" y="0px"
	 viewBox="0 0 24 24" style="enable-background:new 0 0 24 24;" xml:space="preserve">
<g>
	<path d="M20.5,17c-0.276,0-0.5,0.224-0.5,0.5v3c0,0.827-0.673,1.5-1.5,1.5h-16C1.673,22,1,21.327,1,20.5V6h19v3.5
		c0,0.276,0.224,0.5,0.5,0.5S21,9.776,21,9.5v-6C21,2.122,19.879,1,18.5,1h-16C1.121,1,0,2.122,0,3.5v17C0,21.878,1.121,23,2.5,23
		h16c1.379,0,2.5-1.122,2.5-2.5v-3C21,17.224,20.776,17,20.5,17z M2.5,2h16C19.327,2,20,2.673,20,3.5V5H1V3.5C1,2.673,1.673,2,2.5,2
		z"/>
	<circle cx="2.5" cy="3.5" r="0.5"/>
	<circle cx="4.5" cy="3.5" r="0.5"/>
	<circle cx="6.5" cy="3.5" r="0.5"/>
	<path d="M22.5,11h-1c-0.276,0-0.5,0.224-0.5,0.5v4c0,0.276,0.224,0.5,0.5,0.5s0.5-0.224,0.5-0.5V14h0.5c0.827,0,1.5-0.673,1.5-1.5
		C24,11.673,23.327,11,22.5,11z M22.5,13H22v-1h0.5c0.275,0,0.5,0.224,0.5,0.5S22.775,13,22.5,13z"/>
	<path d="M12.5,11c-0.276,0-0.5,0.224-0.5,0.5v4c0,0.276,0.224,0.5,0.5,0.5s0.5-0.224,0.5-0.5V14h0.5c0.827,0,1.5-0.673,1.5-1.5
		c0-0.827-0.673-1.5-1.5-1.5H12.5z M14,12.5c0,0.276-0.225,0.5-0.5,0.5H13v-1h0.5C13.775,12,14,12.224,14,12.5z"/>
	<path d="M19.5,16c0.276,0,0.5-0.224,0.5-0.5v-4c0-0.276-0.224-0.5-0.5-0.5S19,11.224,19,11.5V13h-2v-1.5c0-0.276-0.224-0.5-0.5-0.5
		S16,11.224,16,11.5v4c0,0.276,0.224,0.5,0.5,0.5s0.5-0.224,0.5-0.5V14h2v1.5C19,15.776,19.224,16,19.5,16z"/>
</g>
</svg>
