<?xml version="1.0" encoding="iso-8859-1"?>
<!-- Generator: Adobe Illustrator 19.0.0, SVG Export Plug-In . SVG Version: 6.00 Build 0)  -->
<svg version="1.1" id="Layer_1" xmlns="http://www.w3.org/2000/svg" xmlns:xlink="http://www.w3.org/1999/xlink" x="0px" y="0px"
	 viewBox="0 0 30 30" style="enable-background:new 0 0 30 30;" xml:space="preserve">
<g>
	<g>
		<path d="M8.975,10.342c-0.136-0.408-0.812-0.408-0.949,0l-3,9c-0.087,0.262,0.054,0.545,0.316,0.632
			c0.263,0.089,0.545-0.053,0.633-0.316L6.861,17h3.279l0.886,2.658C11.096,19.868,11.291,20,11.5,20
			c0.053,0,0.105-0.008,0.159-0.026c0.261-0.087,0.403-0.37,0.316-0.632L8.975,10.342z M7.194,16L8.5,12.081L9.806,16H7.194z
			 M29.5,2h-29C0.224,2,0,2.224,0,2.5v25C0,27.776,0.224,28,0.5,28h29c0.276,0,0.5-0.224,0.5-0.5v-25C30,2.224,29.776,2,29.5,2z
			 M29,27H1V3h28V27z M24,15h0.5c0.276,0,0.5-0.224,0.5-0.5S24.776,14,24.5,14H24c-1.654,0-3,1.346-3,3s1.346,3,3,3h0.5
			c0.276,0,0.5-0.224,0.5-0.5S24.776,19,24.5,19H24c-1.103,0-2-0.897-2-2C22,15.897,22.897,15,24,15z M2.5,26h25
			c0.276,0,0.5-0.224,0.5-0.5v-21C28,4.224,27.776,4,27.5,4h-25C2.224,4,2,4.224,2,4.5v21C2,25.776,2.224,26,2.5,26z M3,5h24v20H3V5
			z M16.264,14H15v-3.5c0-0.276-0.224-0.5-0.5-0.5S14,10.224,14,10.5v9c0,0.276,0.224,0.5,0.5,0.5h1.764
			C17.772,20,19,18.773,19,17.264v-0.528C19,15.227,17.773,14,16.264,14z M18,17.264C18,18.221,17.221,19,16.264,19H15v-4h1.264
			C17.221,15,18,15.779,18,16.736V17.264z"/>
	</g>
</g>
</svg>
