<?xml version="1.0" encoding="iso-8859-1"?>
<!-- Generator: Adobe Illustrator 19.0.0, SVG Export Plug-In . SVG Version: 6.00 Build 0)  -->
<svg version="1.1" id="Layer_1" xmlns="http://www.w3.org/2000/svg" xmlns:xlink="http://www.w3.org/1999/xlink" x="0px" y="0px"
	 viewBox="0 0 24 24" style="enable-background:new 0 0 24 24;" xml:space="preserve">
<g>
	<g>
		<path d="M23.487,9.484c-0.016-0.252-0.217-0.454-0.469-0.469c-0.28-0.017-0.558-0.022-0.833-0.02
			c-0.309,0.002-0.614,0.016-0.916,0.042c-0.177,0.015-0.35,0.042-0.525,0.066c-0.142,0.019-0.285,0.036-0.425,0.06
			c-0.194,0.034-0.385,0.076-0.576,0.121c-0.106,0.024-0.211,0.049-0.316,0.076c-0.2,0.053-0.397,0.111-0.592,0.175
			c-0.086,0.028-0.172,0.059-0.257,0.09c-0.204,0.073-0.408,0.148-0.606,0.234c-0.051,0.022-0.1,0.048-0.151,0.07
			c-0.43,0.193-0.846,0.416-1.246,0.667c-0.655,0.413-1.273,0.895-1.839,1.461c-0.098,0.098-0.226,0.146-0.354,0.146
			s-0.256-0.049-0.354-0.146c-0.195-0.195-0.195-0.512,0-0.707c0.706-0.706,1.485-1.293,2.315-1.781
			c-0.418-2.497-1.836-4.801-4.052-6.477c-0.178-0.135-0.426-0.135-0.604,0c-2.213,1.674-3.63,3.973-4.05,6.467
			c0.836,0.49,1.621,1.08,2.332,1.791c0.195,0.195,0.195,0.512,0,0.707c-0.098,0.098-0.226,0.146-0.354,0.146
			s-0.256-0.049-0.354-0.146c-0.616-0.616-1.294-1.132-2.014-1.566c-0.338-0.203-0.684-0.387-1.042-0.549
			c-0.066-0.03-0.131-0.064-0.198-0.093C5.818,9.768,5.625,9.698,5.432,9.628c-0.097-0.035-0.194-0.07-0.292-0.102
			c-0.185-0.06-0.373-0.115-0.562-0.165C4.461,9.33,4.342,9.302,4.224,9.275c-0.178-0.041-0.357-0.08-0.538-0.112
			C3.523,9.135,3.358,9.115,3.193,9.094C3.048,9.075,2.905,9.052,2.758,9.038C2.445,9.011,2.128,8.996,1.806,8.994
			C1.534,8.992,1.258,8.997,0.982,9.015C0.729,9.03,0.527,9.231,0.513,9.484c-0.196,3.232,0.856,6.095,3.042,8.281
			c2.093,2.093,4.864,3.245,7.803,3.245c0.001,0,0.001,0,0.001,0c0.214,0,0.427-0.007,0.64-0.019
			c0.213,0.012,0.427,0.019,0.64,0.019c2.938,0,5.71-1.152,7.804-3.245C22.633,15.579,23.683,12.715,23.487,9.484z"/>
	</g>
</g>
</svg>
