<?xml version="1.0" encoding="iso-8859-1"?>
<!-- Generator: Adobe Illustrator 19.0.0, SVG Export Plug-In . SVG Version: 6.00 Build 0)  -->
<svg version="1.1" id="Layer_1" xmlns="http://www.w3.org/2000/svg" xmlns:xlink="http://www.w3.org/1999/xlink" x="0px" y="0px"
	 viewBox="0 0 24 24" style="enable-background:new 0 0 24 24;" xml:space="preserve">
<g>
	<g>
		<path d="M10.5,13H8V8h1.5C9.776,8,10,7.776,10,7.5S9.776,7,9.5,7H8V6h1.5C9.776,6,10,5.776,10,5.5S9.776,5,9.5,5H8V4h1.5
			C9.776,4,10,3.776,10,3.5S9.776,3,9.5,3H8V2h1.5C9.776,2,10,1.776,10,1.5S9.776,1,9.5,1H8V0.5C8,0.224,7.776,0,7.5,0
			S7,0.224,7,0.5V1H5.5C5.224,1,5,1.224,5,1.5S5.224,2,5.5,2H7v1H5.5C5.224,3,5,3.224,5,3.5S5.224,4,5.5,4H7v1H5.5
			C5.224,5,5,5.224,5,5.5S5.224,6,5.5,6H7v1H5.5C5.224,7,5,7.224,5,7.5S5.224,8,5.5,8H7v5H4.5C4.224,13,4,13.224,4,13.5v7
			C4,22.43,5.57,24,7.5,24s3.5-1.57,3.5-3.5v-7C11,13.224,10.776,13,10.5,13z M7.5,22C6.673,22,6,21.327,6,20.5v-5
			C6,15.224,6.224,15,6.5,15S7,15.224,7,15.5v5C7,20.776,7.224,21,7.5,21S8,21.224,8,21.5S7.776,22,7.5,22z M19.5,5H19V3.5
			C19,3.224,18.776,3,18.5,3h-4C14.224,3,14,3.224,14,3.5V5h-0.5C13.224,5,13,5.224,13,5.5v15c0,1.93,1.57,3.5,3.5,3.5
			s3.5-1.57,3.5-3.5v-15C20,5.224,19.776,5,19.5,5z M16.5,22c-0.827,0-1.5-0.673-1.5-1.5v-13C15,7.224,15.224,7,15.5,7
			S16,7.224,16,7.5v13c0,0.276,0.224,0.5,0.5,0.5s0.5,0.224,0.5,0.5S16.776,22,16.5,22z"/>
	</g>
</g>
</svg>
