<?xml version="1.0" encoding="iso-8859-1"?>
<!-- Generator: Adobe Illustrator 19.0.0, SVG Export Plug-In . SVG Version: 6.00 Build 0)  -->
<svg version="1.1" id="Layer_1" xmlns="http://www.w3.org/2000/svg" xmlns:xlink="http://www.w3.org/1999/xlink" x="0px" y="0px"
	 viewBox="0 0 24 24" style="enable-background:new 0 0 24 24;" xml:space="preserve">
<g>
	<g>
		<path d="M13.272,16.471c0.007-0.149-0.051-0.293-0.161-0.394c-0.11-0.101-0.257-0.148-0.406-0.128
			c-0.463,0.063-0.949,0.063-1.412,0c-0.15-0.02-0.296,0.027-0.406,0.128c-0.11,0.101-0.168,0.245-0.161,0.394
			c0.131,2.546-0.086,6.186-0.22,6.942c-0.026,0.146,0.014,0.295,0.109,0.408C10.71,23.934,10.85,24,10.998,24h2
			c0.148,0,0.288-0.065,0.383-0.179c0.095-0.113,0.135-0.263,0.109-0.408C13.359,22.657,13.141,19.017,13.272,16.471z M12,0
			C8.967,0,6.5,3.364,6.5,7.5S8.967,15,12,15c3.033,0,5.5-3.364,5.5-7.5S15.033,0,12,0z M12,14c-2.481,0-4.5-2.916-4.5-6.5
			S9.519,1,12,1c2.481,0,4.5,2.916,4.5,6.5S14.481,14,12,14z M11.354,4.146c-0.195-0.195-0.512-0.195-0.707,0l-2,2
			c-0.195,0.195-0.195,0.512,0,0.707c0.098,0.098,0.226,0.146,0.354,0.146S9.257,6.95,9.355,6.853l2-2
			C11.549,4.658,11.549,4.342,11.354,4.146z M14.354,5.146c-0.195-0.195-0.512-0.195-0.707,0l-4,4c-0.195,0.195-0.195,0.512,0,0.707
			c0.098,0.098,0.226,0.146,0.354,0.146s0.256-0.049,0.354-0.146l4-4C14.549,5.658,14.549,5.342,14.354,5.146z M15.354,8.146
			c-0.195-0.195-0.512-0.195-0.707,0l-2,2c-0.195,0.195-0.195,0.512,0,0.707c0.098,0.098,0.226,0.146,0.354,0.146
			s0.256-0.049,0.354-0.146l2-2C15.549,8.658,15.549,8.342,15.354,8.146z"/>
	</g>
</g>
</svg>
