<?xml version="1.0" encoding="iso-8859-1"?>
<!-- Generator: Adobe Illustrator 19.0.0, SVG Export Plug-In . SVG Version: 6.00 Build 0)  -->
<svg version="1.1" id="Layer_1" xmlns="http://www.w3.org/2000/svg" xmlns:xlink="http://www.w3.org/1999/xlink" x="0px" y="0px"
	 viewBox="0 0 24 24" style="enable-background:new 0 0 24 24;" xml:space="preserve">
<g>
	<g>
		<path d="M15.651,9.356c-0.066-0.221-0.124-0.41-0.165-0.573c-0.095-0.381-0.333-0.671-0.608-1.006
			c-0.581-0.708-1.377-1.676-1.377-4.277v-2c0-0.827-0.673-1.5-1.5-1.5c-0.827,0-1.5,0.673-1.5,1.5v2
			c0,0.062,0.015,0.121,0.035,0.176C10.498,6.13,9.717,7.08,9.138,7.771C8.855,8.108,8.612,8.398,8.516,8.784
			C8.474,8.947,8.417,9.137,8.35,9.357C8.032,10.409,7.5,12.169,7.5,15c0,3.271,1.383,8.343,2.231,8.915
			C9.814,23.971,9.911,24,10.01,24h3.979c0.1,0,0.197-0.03,0.279-0.085C15.117,23.345,16.5,18.272,16.5,15
			C16.501,12.169,15.969,10.409,15.651,9.356z M11.388,21.971C11.333,21.99,11.277,22,11.221,22c-0.206,0-0.399-0.128-0.471-0.333
			C10.248,20.247,9.5,17.299,9.5,15c0-2.534,0.46-4.057,0.765-5.065l0.077-0.257c0.079-0.264,0.357-0.416,0.622-0.337
			c0.265,0.079,0.416,0.356,0.337,0.622l-0.077,0.258c-0.289,0.955-0.723,2.393-0.723,4.779c0,2.174,0.713,4.979,1.192,6.333
			C11.785,21.594,11.649,21.878,11.388,21.971z"/>
	</g>
</g>
</svg>
