<?xml version="1.0" encoding="iso-8859-1"?>
<!-- Generator: Adobe Illustrator 19.0.0, SVG Export Plug-In . SVG Version: 6.00 Build 0)  -->
<svg version="1.1" id="Layer_1" xmlns="http://www.w3.org/2000/svg" xmlns:xlink="http://www.w3.org/1999/xlink" x="0px" y="0px"
	 viewBox="0 0 24 24" style="enable-background:new 0 0 24 24;" xml:space="preserve">
<g id="XMLID_222_">
	<g id="XMLID_223_">
		<path id="XMLID_597_" d="M10.5,23.999c-0.276,0-0.5-0.224-0.5-0.5v-20c0-0.276,0.224-0.5,0.5-0.5s0.5,0.224,0.5,0.5v20
			C11,23.775,10.776,23.999,10.5,23.999z"/>
	</g>
	<g id="XMLID_224_">
		<path id="XMLID_596_" d="M12.5,23.999c-0.276,0-0.5-0.224-0.5-0.5v-20c0-0.276,0.224-0.5,0.5-0.5s0.5,0.224,0.5,0.5v20
			C13,23.775,12.776,23.999,12.5,23.999z"/>
	</g>
	<g id="XMLID_225_">
		<path id="XMLID_595_" d="M10.5,10.999h-4c-1.379,0-2.5-1.122-2.5-2.5v-3c0-0.276,0.224-0.5,0.5-0.5S5,5.223,5,5.499v3
			c0,0.827,0.673,1.5,1.5,1.5h4c0.276,0,0.5,0.224,0.5,0.5S10.776,10.999,10.5,10.999z"/>
	</g>
	<g id="XMLID_226_">
		<path id="XMLID_592_" d="M14.5,23.999h-6c-0.276,0-0.5-0.224-0.5-0.5v-10.5H5.5c-1.93,0-3.5-1.57-3.5-3.5v-4
			C2,4.765,2.321,4.07,2.881,3.594c0.561-0.476,1.307-0.677,2.035-0.562C6.104,3.227,7,4.333,7,5.606v1.893
			c0,0.276,0.225,0.5,0.5,0.5S8,7.775,8,7.499v-4c0-0.97,0.388-1.872,1.091-2.539c0.704-0.667,1.636-0.995,2.597-0.956
			C13.514,0.1,15,1.744,15,3.669v7.83c0,0.276,0.225,0.5,0.5,0.5h1c0.275,0,0.5-0.224,0.5-0.5V8.606
			c0-1.273,0.896-2.379,2.084-2.573l0,0c0.732-0.116,1.476,0.085,2.035,0.562C21.679,7.07,22,7.765,22,8.499v5
			c0,1.93-1.57,3.5-3.5,3.5H15v6.5C15,23.775,14.776,23.999,14.5,23.999z M9,22.999h5v-6.5c0-0.276,0.224-0.5,0.5-0.5h4
			c1.379,0,2.5-1.122,2.5-2.5v-5c0-0.44-0.192-0.857-0.528-1.143c-0.341-0.291-0.776-0.41-1.228-0.336
			C18.535,7.135,18,7.817,18,8.606v2.893c0,0.827-0.673,1.5-1.5,1.5h-1c-0.827,0-1.5-0.673-1.5-1.5v-7.83
			c0-1.402-1.061-2.598-2.365-2.666c-0.693-0.042-1.354,0.206-1.855,0.682C9.277,2.162,9,2.806,9,3.499v4c0,0.827-0.673,1.5-1.5,1.5
			S6,8.326,6,7.499V5.606C6,4.817,5.465,4.135,4.756,4.02C4.305,3.945,3.869,4.066,3.528,4.356C3.192,4.642,3,5.059,3,5.499v4
			c0,1.378,1.121,2.5,2.5,2.5h3c0.276,0,0.5,0.224,0.5,0.5V22.999z"/>
	</g>
	<g id="XMLID_227_">
		<path id="XMLID_591_" d="M17.5,14.999h-5c-0.276,0-0.5-0.224-0.5-0.5s0.224-0.5,0.5-0.5h5c0.827,0,1.5-0.673,1.5-1.5v-4
			c0-0.276,0.224-0.5,0.5-0.5s0.5,0.224,0.5,0.5v4C20,13.878,18.879,14.999,17.5,14.999z"/>
	</g>
</g>
<g>
</g>
<g>
</g>
<g>
</g>
<g>
</g>
<g>
</g>
<g>
</g>
<g>
</g>
<g>
</g>
<g>
</g>
<g>
</g>
<g>
</g>
<g>
</g>
<g>
</g>
<g>
</g>
<g>
</g>
</svg>
