<?xml version="1.0" encoding="utf-8"?>
<!-- Generator: Adobe Illustrator 19.0.0, SVG Export Plug-In . SVG Version: 6.00 Build 0)  -->
<svg version="1.1" id="Layer_1" xmlns="http://www.w3.org/2000/svg" xmlns:xlink="http://www.w3.org/1999/xlink" x="0px" y="0px"
	 viewBox="0 0 30 30" style="enable-background:new 0 0 30 30;" xml:space="preserve">
<g>
	<g>
		<path d="M28,30h-2c-0.8,0-1.5-0.7-1.5-1.5v-1c0-0.3-0.2-0.5-0.5-0.5h-2c-0.3,0-0.5,0.2-0.5,0.5v1c0,0.8-0.7,1.5-1.5,1.5h-2
			c-0.8,0-1.5-0.7-1.5-1.5v-1c0-0.3-0.2-0.5-0.5-0.5h-2c-0.3,0-0.5,0.2-0.5,0.5v1c0,0.8-0.7,1.5-1.5,1.5h-2c-0.8,0-1.5-0.7-1.5-1.5
			v-1C8.5,27.2,8.3,27,8,27H6c-0.3,0-0.5,0.2-0.5,0.5v1C5.5,29.3,4.8,30,4,30H2c-0.8,0-1.5-0.7-1.5-1.5v-14C0.5,6.5,7,0,15,0
			s14.5,6.5,14.5,14.5v14C29.5,29.3,28.8,30,28,30z M22,26h2c0.8,0,1.5,0.7,1.5,1.5v1c0,0.3,0.2,0.5,0.5,0.5h2
			c0.3,0,0.5-0.2,0.5-0.5v-14C28.5,7.1,22.4,1,15,1S1.5,7.1,1.5,14.5v14C1.5,28.8,1.7,29,2,29h2c0.3,0,0.5-0.2,0.5-0.5v-1
			C4.5,26.7,5.2,26,6,26h2c0.8,0,1.5,0.7,1.5,1.5v1c0,0.3,0.2,0.5,0.5,0.5h2c0.3,0,0.5-0.2,0.5-0.5v-1c0-0.8,0.7-1.5,1.5-1.5h2
			c0.8,0,1.5,0.7,1.5,1.5v1c0,0.3,0.2,0.5,0.5,0.5h2c0.3,0,0.5-0.2,0.5-0.5v-1C20.5,26.7,21.2,26,22,26z"/>
	</g>
	<g>
		<path d="M28,30h-2c-0.8,0-1.5-0.7-1.5-1.5v-1c0-0.3-0.2-0.5-0.5-0.5h-2c-0.3,0-0.5,0.2-0.5,0.5v1c0,0.8-0.7,1.5-1.5,1.5h-2
			c-0.8,0-1.5-0.7-1.5-1.5v-1c0-0.3-0.2-0.5-0.5-0.5h-2c-0.3,0-0.5,0.2-0.5,0.5v1c0,0.8-0.7,1.5-1.5,1.5h-2c-0.8,0-1.5-0.7-1.5-1.5
			v-1C8.5,27.2,8.3,27,8,27H6c-0.3,0-0.5,0.2-0.5,0.5v1C5.5,29.3,4.8,30,4,30H2c-0.8,0-1.5-0.7-1.5-1.5v-14C0.5,6.5,7,0,15,0
			s14.5,6.5,14.5,14.5v14C29.5,29.3,28.8,30,28,30z M22,26h2c0.8,0,1.5,0.7,1.5,1.5v1c0,0.3,0.2,0.5,0.5,0.5h2
			c0.3,0,0.5-0.2,0.5-0.5v-14C28.5,7.1,22.4,1,15,1S1.5,7.1,1.5,14.5v14C1.5,28.8,1.7,29,2,29h2c0.3,0,0.5-0.2,0.5-0.5v-1
			C4.5,26.7,5.2,26,6,26h2c0.8,0,1.5,0.7,1.5,1.5v1c0,0.3,0.2,0.5,0.5,0.5h2c0.3,0,0.5-0.2,0.5-0.5v-1c0-0.8,0.7-1.5,1.5-1.5h2
			c0.8,0,1.5,0.7,1.5,1.5v1c0,0.3,0.2,0.5,0.5,0.5h2c0.3,0,0.5-0.2,0.5-0.5v-1C20.5,26.7,21.2,26,22,26z"/>
	</g>
	<g>
		<path d="M8.5,19c-1.7,0-3-1.3-3-3v-6c0-1.7,1.3-3,3-3s3,1.3,3,3v1.6c0,0.2-0.2,0.4-0.4,0.5c-0.9,0.2-1.6,1-1.6,2
			c0,0.9,0.7,1.7,1.6,1.9c0.3,0.1,0.4,0.3,0.4,0.6C11.2,18,10,19,8.5,19z M8.5,8c-1.1,0-2,0.9-2,2v6c0,1.1,0.9,2,2,2
			c0.8,0,1.5-0.5,1.8-1.2c-1.1-0.5-1.8-1.6-1.8-2.8c0-1.3,0.8-2.4,2-2.8V10C10.5,8.9,9.6,8,8.5,8z"/>
	</g>
	<g>
		<path d="M20.5,19c-1.7,0-3-1.3-3-3v-6c0-1.7,1.3-3,3-3s3,1.3,3,3v1.6c0,0.2-0.2,0.4-0.4,0.5c-0.9,0.2-1.6,1-1.6,2
			c0,0.9,0.7,1.7,1.6,1.9c0.3,0.1,0.4,0.3,0.4,0.6C23.2,18,22,19,20.5,19z M20.5,8c-1.1,0-2,0.9-2,2v6c0,1.1,0.9,2,2,2
			c0.8,0,1.5-0.5,1.8-1.2c-1.1-0.5-1.8-1.6-1.8-2.8c0-1.3,0.8-2.4,2-2.8V10C22.5,8.9,21.6,8,20.5,8z"/>
	</g>
</g>
</svg>
