<?xml version="1.0" encoding="utf-8"?>
<!-- Generator: Adobe Illustrator 19.0.0, SVG Export Plug-In . SVG Version: 6.00 Build 0)  -->
<svg version="1.1" id="Layer_1" xmlns="http://www.w3.org/2000/svg" xmlns:xlink="http://www.w3.org/1999/xlink" x="0px" y="0px"
	 viewBox="0 0 30 30" style="enable-background:new 0 0 30 30;" xml:space="preserve">
<g>
	<g>
		<path d="M13.5,30h-11C2.2,30,2,29.8,2,29.5v-3C2,26.2,2.2,26,2.5,26h11c0.3,0,0.5,0.2,0.5,0.5v3C14,29.8,13.8,30,13.5,30z M3,29
			h10v-2H3V29z"/>
	</g>
	<g>
		<path d="M18.5,30h-5c-0.3,0-0.5-0.2-0.5-0.5V27h-2.5c-0.3,0-0.5-0.2-0.5-0.5v-3c0-0.3,0.2-0.5,0.5-0.5h5c0.3,0,0.5,0.2,0.5,0.5V26
			h2.5c0.3,0,0.5,0.2,0.5,0.5v3C19,29.8,18.8,30,18.5,30z M14,29h4v-2h-2.5c-0.3,0-0.5-0.2-0.5-0.5V24h-4v2h2.5
			c0.3,0,0.5,0.2,0.5,0.5V29z"/>
	</g>
	<g>
		<path d="M7.5,27h-5C2.2,27,2,26.8,2,26.5v-5C2,21.2,2.2,21,2.5,21h5C7.8,21,8,21.2,8,21.5v5C8,26.8,7.8,27,7.5,27z M3,26h4v-4H3
			V26z"/>
	</g>
	<g>
		<path d="M21.5,9h-6C15.2,9,15,8.8,15,8.5v-8C15,0.2,15.2,0,15.5,0h3C18.8,0,19,0.2,19,0.5V5h2.5C21.8,5,22,5.2,22,5.5v3
			C22,8.8,21.8,9,21.5,9z M16,8h5V6h-2.5C18.2,6,18,5.8,18,5.5V1h-2V8z"/>
	</g>
	<g>
		<path d="M27.5,30h-9c-0.3,0-0.5-0.2-0.5-0.5v-3c0-0.3,0.2-0.5,0.5-0.5H21v-2.5c0-0.3,0.2-0.5,0.5-0.5h3c0.3,0,0.5,0.2,0.5,0.5V26
			h2.5c0.3,0,0.5,0.2,0.5,0.5v3C28,29.8,27.8,30,27.5,30z M19,29h8v-2h-2.5c-0.3,0-0.5-0.2-0.5-0.5V24h-2v2.5c0,0.3-0.2,0.5-0.5,0.5
			H19V29z"/>
	</g>
	<g>
		<path d="M10.5,27h-3C7.2,27,7,26.8,7,26.5v-8C7,18.2,7.2,18,7.5,18h3c0.3,0,0.5,0.2,0.5,0.5V20h1.5c0.3,0,0.5,0.2,0.5,0.5v3
			c0,0.3-0.2,0.5-0.5,0.5H11v2.5C11,26.8,10.8,27,10.5,27z M8,26h2v-2.5c0-0.3,0.2-0.5,0.5-0.5H12v-2h-1.5c-0.3,0-0.5-0.2-0.5-0.5
			V19H8V26z"/>
	</g>
</g>
</svg>
