<?xml version="1.0" encoding="iso-8859-1"?>
<!-- Generator: Adobe Illustrator 19.0.0, SVG Export Plug-In . SVG Version: 6.00 Build 0)  -->
<svg version="1.1" id="Layer_1" xmlns="http://www.w3.org/2000/svg" xmlns:xlink="http://www.w3.org/1999/xlink" x="0px" y="0px"
	 viewBox="0 0 24 24" style="enable-background:new 0 0 24 24;" xml:space="preserve">
<g>
	<g>
		<path d="M9.631,22c-1.61,0-4.083-0.994-4.188-1.037c-0.256-0.104-0.379-0.395-0.276-0.651c0.104-0.257,0.396-0.38,0.651-0.276
			C5.842,20.046,8.216,21,9.631,21c2.421,0,3.197-2.018,3.821-3.639c0.075-0.194,0.146-0.379,0.217-0.551
			c0.104-0.255,0.397-0.379,0.652-0.272c0.255,0.104,0.377,0.396,0.272,0.652c-0.067,0.165-0.136,0.343-0.208,0.53
			C13.729,19.424,12.738,22,9.631,22z"/>
	</g>
	<g>
		<path d="M5.631,19c-0.276,0-0.5-0.224-0.5-0.5v-1c0-0.276,0.224-0.5,0.5-0.5s0.5,0.224,0.5,0.5v1C6.131,18.776,5.907,19,5.631,19z
			"/>
	</g>
	<g>
		<path d="M5.631,24c-0.276,0-0.5-0.224-0.5-0.5v-1c0-0.276,0.224-0.5,0.5-0.5s0.5,0.224,0.5,0.5v1C6.131,23.776,5.907,24,5.631,24z
			"/>
	</g>
	<g>
		<path d="M4.217,19.586c-0.128,0-0.256-0.049-0.354-0.146l-0.707-0.707c-0.195-0.195-0.195-0.512,0-0.707s0.512-0.195,0.707,0
			l0.707,0.707c0.195,0.195,0.195,0.512,0,0.707C4.473,19.537,4.345,19.586,4.217,19.586z"/>
	</g>
	<g>
		<path d="M3.631,21h-1c-0.276,0-0.5-0.224-0.5-0.5s0.224-0.5,0.5-0.5h1c0.276,0,0.5,0.224,0.5,0.5S3.907,21,3.631,21z"/>
	</g>
	<g>
		<path d="M3.51,23.121c-0.128,0-0.256-0.049-0.354-0.146c-0.195-0.195-0.195-0.512,0-0.707l0.707-0.707
			c0.195-0.195,0.512-0.195,0.707,0s0.195,0.512,0,0.707l-0.707,0.707C3.766,23.072,3.638,23.121,3.51,23.121z"/>
	</g>
	<g>
		<path d="M7.045,19.586c-0.128,0-0.256-0.049-0.354-0.146c-0.195-0.195-0.195-0.512,0-0.707l0.707-0.707
			c0.195-0.195,0.512-0.195,0.707,0s0.195,0.512,0,0.707l-0.707,0.707C7.301,19.537,7.173,19.586,7.045,19.586z"/>
	</g>
	<g>
		<path d="M14.631,24c-0.052,0-0.105-0.008-0.158-0.026c-0.262-0.087-0.403-0.37-0.316-0.632l2-6
			c0.087-0.261,0.367-0.405,0.632-0.316c0.262,0.087,0.403,0.37,0.316,0.632l-2,6C15.035,23.868,14.84,24,14.631,24z"/>
	</g>
	<g>
		<path d="M12.487,11.991c4.821-0.064,6.95-0.468,7.813-0.717l0.612-1.779c-1.419,0.248-3.803,0.482-7.703,0.501L12.487,11.991z"/>
		<path d="M11.403,14.983c6.482-0.119,7.841-0.869,7.9-0.904c0.012-0.007,0.025-0.007,0.037-0.013l0.576-1.674
			c-1.284,0.272-3.632,0.561-7.792,0.601L11.403,14.983z"/>
		<path d="M21.287,6c0.197,0,0.388-0.015,0.582-0.023l-0.743-5.543c-0.024-0.182-0.146-0.335-0.317-0.401
			c-0.17-0.065-0.364-0.032-0.503,0.087l-5,4.278c-0.036,0.031-0.055,0.077-0.081,0.117C17,5.476,19.079,6,21.287,6z"/>
		<path d="M21.285,8.409l0.491-1.428C21.613,6.986,21.452,7,21.287,7c-2.329,0-4.54-0.534-6.437-1.536l-1.278,3.53
			C17.868,8.956,20.141,8.656,21.285,8.409z"/>
		<path d="M11.322,15.985c0.026,0.029,0.052,0.06,0.086,0.083C13.247,17.332,15.399,18,17.631,18c0.213,0,0.403-0.136,0.473-0.337
			l0.826-2.401C17.867,15.547,15.681,15.909,11.322,15.985z"/>
	</g>
</g>
<g>
</g>
<g>
</g>
<g>
</g>
<g>
</g>
<g>
</g>
<g>
</g>
<g>
</g>
<g>
</g>
<g>
</g>
<g>
</g>
<g>
</g>
<g>
</g>
<g>
</g>
<g>
</g>
<g>
</g>
</svg>
