<?xml version="1.0" encoding="iso-8859-1"?>
<!-- Generator: Adobe Illustrator 19.0.0, SVG Export Plug-In . SVG Version: 6.00 Build 0)  -->
<svg version="1.1" id="Layer_1" xmlns="http://www.w3.org/2000/svg" xmlns:xlink="http://www.w3.org/1999/xlink" x="0px" y="0px"
	 viewBox="0 0 24 24" style="enable-background:new 0 0 24 24;" xml:space="preserve">
<g>
	<path d="M12.469,11.777l-0.84-2.585l2.2-1.599c0.175-0.127,0.249-0.353,0.182-0.559c-0.067-0.206-0.259-0.346-0.476-0.346h-2.719
		l-0.84-2.586c-0.134-0.412-0.817-0.412-0.951,0l-0.84,2.586H5.465c-0.217,0-0.409,0.14-0.476,0.346
		C4.922,7.24,4.996,7.466,5.171,7.593l2.2,1.599l-0.84,2.585c-0.067,0.206,0.006,0.432,0.182,0.559c0.176,0.128,0.412,0.128,0.588,0
		l2.2-1.598l2.2,1.598c0.088,0.064,0.191,0.096,0.294,0.096s0.206-0.032,0.294-0.096C12.463,12.209,12.536,11.983,12.469,11.777z"/>
	<path d="M7.762,13.074c-0.189-0.117-0.432-0.093-0.598,0.055C5.837,14.33,2,19.761,2,23.5c0,0.202,0.122,0.385,0.309,0.462
		C2.371,23.988,2.436,24,2.5,24c0.13,0,0.258-0.051,0.354-0.146L4.5,22.207l1.646,1.646c0.148,0.148,0.374,0.189,0.564,0.1
		c0.19-0.088,0.305-0.287,0.287-0.496c-0.004-0.047-0.391-4.811,0.984-9.825C8.041,13.418,7.951,13.19,7.762,13.074z"/>
	<path d="M6.147,5.853C6.244,5.951,6.372,6,6.5,6s0.256-0.049,0.354-0.146c0.195-0.195,0.195-0.512,0-0.707l-1-1
		c-0.195-0.195-0.512-0.195-0.707,0c-0.195,0.195-0.195,0.512,0,0.707L6.147,5.853z"/>
	<path d="M3.647,3.353C3.744,3.451,3.872,3.5,4,3.5c0.128,0,0.256-0.049,0.354-0.146c0.195-0.195,0.195-0.512,0-0.707l-0.5-0.5
		c-0.195-0.195-0.512-0.195-0.707,0s-0.195,0.512,0,0.707L3.647,3.353z"/>
	<path d="M9.5,3C9.776,3,10,2.776,10,2.5v-2C10,0.224,9.776,0,9.5,0S9,0.224,9,0.5v2C9,2.776,9.224,3,9.5,3z"/>
	<path d="M12.5,6c0.128,0,0.256-0.049,0.354-0.146l3-3c0.195-0.195,0.195-0.512,0-0.707s-0.512-0.195-0.707,0l-3,3
		c-0.195,0.195-0.195,0.512,0,0.707C12.244,5.951,12.372,6,12.5,6z"/>
	<path d="M17,1.5c0.128,0,0.256-0.049,0.354-0.146l0.5-0.5c0.195-0.195,0.195-0.512,0-0.707s-0.512-0.195-0.707,0l-0.5,0.5
		c-0.195,0.195-0.195,0.512,0,0.707C16.744,1.451,16.872,1.5,17,1.5z"/>
	<path d="M20.5,7h-5C15.224,7,15,7.224,15,7.5S15.224,8,15.5,8h5C20.776,8,21,7.776,21,7.5S20.776,7,20.5,7z"/>
	<path d="M23.5,7h-1C22.224,7,22,7.224,22,7.5S22.224,8,22.5,8h1C23.776,8,24,7.776,24,7.5S23.776,7,23.5,7z"/>
	<path d="M3.501,7.5c0.24,0,0.452-0.173,0.493-0.418c0.045-0.272-0.139-0.53-0.411-0.575l-3-0.5
		c-0.274-0.048-0.53,0.139-0.575,0.411c-0.045,0.272,0.139,0.53,0.411,0.575l3,0.5C3.446,7.498,3.473,7.5,3.501,7.5z"/>
	<path d="M2.147,12.853C2.244,12.951,2.372,13,2.5,13s0.256-0.049,0.354-0.146l3-3c0.195-0.195,0.195-0.512,0-0.707
		s-0.512-0.195-0.707,0l-3,3C1.951,12.342,1.951,12.658,2.147,12.853z"/>
	<path d="M14.854,10.146c-0.195-0.195-0.512-0.195-0.707,0s-0.195,0.512,0,0.707l2,2C16.244,12.951,16.372,13,16.5,13
		s0.256-0.049,0.354-0.146c0.195-0.195,0.195-0.512,0-0.707L14.854,10.146z"/>
	<path d="M18.354,13.646c-0.195-0.195-0.512-0.195-0.707,0s-0.195,0.512,0,0.707l0.5,0.5C18.244,14.951,18.372,15,18.5,15
		s0.256-0.049,0.354-0.146c0.195-0.195,0.195-0.512,0-0.707L18.354,13.646z"/>
	<path d="M12.974,13.342c-0.087-0.262-0.369-0.404-0.632-0.316c-0.262,0.087-0.403,0.37-0.316,0.632l1,3
		C13.096,16.868,13.291,17,13.5,17c0.052,0,0.105-0.008,0.158-0.026c0.262-0.087,0.403-0.37,0.316-0.632L12.974,13.342z"/>
</g>
<g>
</g>
<g>
</g>
<g>
</g>
<g>
</g>
<g>
</g>
<g>
</g>
<g>
</g>
<g>
</g>
<g>
</g>
<g>
</g>
<g>
</g>
<g>
</g>
<g>
</g>
<g>
</g>
<g>
</g>
</svg>
