<?xml version="1.0" encoding="iso-8859-1"?>
<!-- Generator: Adobe Illustrator 19.0.0, SVG Export Plug-In . SVG Version: 6.00 Build 0)  -->
<svg version="1.1" id="Layer_1" xmlns="http://www.w3.org/2000/svg" xmlns:xlink="http://www.w3.org/1999/xlink" x="0px" y="0px"
	 viewBox="0 0 24 24" style="enable-background:new 0 0 24 24;" xml:space="preserve">
<g>
	<g>
		<g>
			<path d="M5.5,2.986c-0.696,0-1.069-0.076-1.246-0.253C4.076,2.555,4,2.182,4,1.486c0-0.276-0.224-0.5-0.5-0.5S3,1.21,3,1.486
				c0,0.696-0.076,1.069-0.253,1.246C2.569,2.911,2.196,2.986,1.5,2.986c-0.276,0-0.5,0.224-0.5,0.5s0.224,0.5,0.5,0.5
				c0.696,0,1.069,0.076,1.246,0.253C2.924,4.418,3,4.791,3,5.486c0,0.276,0.224,0.5,0.5,0.5S4,5.763,4,5.486
				C4,4.791,4.076,4.418,4.253,4.24C4.431,4.062,4.804,3.986,5.5,3.986c0.276,0,0.5-0.224,0.5-0.5S5.776,2.986,5.5,2.986z"/>
		</g>
		<g>
			<path d="M22.5,6.986c-1.131,0-1.724-0.131-2.046-0.454S20,5.618,20,4.486c0-0.276-0.224-0.5-0.5-0.5S19,4.21,19,4.486
				c0,1.131-0.131,1.724-0.454,2.046S17.631,6.986,16.5,6.986c-0.276,0-0.5,0.224-0.5,0.5s0.224,0.5,0.5,0.5
				c1.131,0,1.724,0.131,2.046,0.454S19,9.355,19,10.486c0,0.276,0.224,0.5,0.5,0.5s0.5-0.224,0.5-0.5
				c0-1.131,0.131-1.724,0.454-2.046s0.915-0.454,2.046-0.454c0.276,0,0.5-0.224,0.5-0.5S22.776,6.986,22.5,6.986z"/>
		</g>
	</g>
	<g>
		<g>
			<path d="M14.72,9.065l-1.018-2.376C11.915,7.701,8.658,8.474,6.338,8.93L5.17,11.654C10.338,10.933,14.457,9.842,14.72,9.065z"/>
		</g>
		<g>
			<path d="M13.32,5.797l-0.961-2.241c-0.858,0.495-2.311,0.986-4.348,1.469L6.818,7.81C9.647,7.21,12.16,6.42,13.32,5.797z"/>
		</g>
		<g>
			<path d="M11.973,2.654L10.959,0.29c-0.157-0.368-0.762-0.368-0.919,0L8.506,3.87C10.04,3.465,11.363,2.999,11.973,2.654z"/>
		</g>
		<g>
			<path d="M16.798,13.913c-2.25,1.276-7.187,2.032-10.505,2.411c0.97,0.372,2.325,0.662,4.207,0.662
				c5.155,0,6.39-2.169,6.439-2.262c0.073-0.134,0.08-0.295,0.02-0.435L16.798,13.913z"/>
		</g>
		<g>
			<path d="M4.763,15.482c5.306-0.525,10.073-1.546,11.67-2.422l-1.313-3.064c-1.737,1.391-6.785,2.268-10.411,2.734l-0.668,1.56
				c-0.06,0.14-0.053,0.301,0.02,0.435C4.079,14.759,4.265,15.087,4.763,15.482z"/>
		</g>
	</g>
	<g>
		<path d="M10.5,16.986c-5.155,0-6.39-2.169-6.439-2.262c-0.073-0.134-0.08-0.295-0.02-0.435l6-14c0.157-0.368,0.762-0.368,0.919,0
			l6,14c0.06,0.14,0.053,0.301-0.02,0.435C16.89,14.817,15.655,16.986,10.5,16.986z M5.074,14.416c0.4,0.436,1.792,1.57,5.426,1.57
			c3.625,0,5.019-1.129,5.425-1.571L10.5,1.756L5.074,14.416z"/>
	</g>
	<g>
		<path d="M10,23.986c-1.394,0-2.438-0.416-3.102-1.236c-1.288-1.589-0.918-4.363-0.387-6.867c0.058-0.27,0.326-0.439,0.593-0.386
			c0.271,0.058,0.443,0.323,0.386,0.593c-0.454,2.141-0.843,4.76,0.186,6.031c0.472,0.583,1.232,0.866,2.325,0.866
			c3.103,0,4-1.57,4-7c0-0.276,0.224-0.5,0.5-0.5s0.5,0.224,0.5,0.5C15,20.363,14.624,23.986,10,23.986z"/>
	</g>
</g>
<g>
</g>
<g>
</g>
<g>
</g>
<g>
</g>
<g>
</g>
<g>
</g>
<g>
</g>
<g>
</g>
<g>
</g>
<g>
</g>
<g>
</g>
<g>
</g>
<g>
</g>
<g>
</g>
<g>
</g>
</svg>
