<?xml version="1.0" encoding="utf-8"?>
<!-- Generator: Adobe Illustrator 19.0.0, SVG Export Plug-In . SVG Version: 6.00 Build 0)  -->
<svg version="1.1" id="Layer_1" xmlns="http://www.w3.org/2000/svg" xmlns:xlink="http://www.w3.org/1999/xlink" x="0px" y="0px"
	 viewBox="0 0 30 30" style="enable-background:new 0 0 30 30;" xml:space="preserve">
<g>
	<path d="M14.2,18c0.4,0,0.8-0.3,0.8-0.8V15h-4v2.3c0,0.4,0.3,0.8,0.8,0.8H14.2z"/>
	<path d="M30,14.4c-0.1-0.3-0.3-0.4-0.6-0.4L26,14.9V9H0v19.5C0,29.3,0.7,30,1.5,30H5v-4.5v-4V17c0-1.7,1.3-3,3-3h10
		c1.7,0,3,1.3,3,3v4.5v4V30h3.5c0.8,0,1.5-0.7,1.5-1.5V15.9l3.6-0.9C29.9,14.9,30.1,14.6,30,14.4z"/>
	<path d="M18,15h-2v2.3c0,1-0.8,1.8-1.8,1.8h-2.5c-1,0-1.8-0.8-1.8-1.8V15H8c-1.1,0-2,0.9-2,2v4h14v-4C20,15.9,19.1,15,18,15z"/>
	<path d="M6,30h14v-4H6V30z M10.5,27h5c0.3,0,0.5,0.2,0.5,0.5S15.8,28,15.5,28h-5c-0.3,0-0.5-0.2-0.5-0.5S10.2,27,10.5,27z"/>
	<path d="M6,25h14v-3H6V25z M10.5,23h5c0.3,0,0.5,0.2,0.5,0.5S15.8,24,15.5,24h-5c-0.3,0-0.5-0.2-0.5-0.5S10.2,23,10.5,23z"/>
	<path d="M26,3.5C26,1.6,24.4,0,22.5,0h-19C1.6,0,0,1.6,0,3.5V8h26V3.5z M12,5.5C12,5.8,11.8,6,11.5,6h-7C4.2,6,4,5.8,4,5.5v-2
		C4,3.2,4.2,3,4.5,3h7C11.8,3,12,3.2,12,3.5V5.5z M15.5,6C14.7,6,14,5.3,14,4.5S14.7,3,15.5,3S17,3.7,17,4.5S16.3,6,15.5,6z M20.5,6
		C19.7,6,19,5.3,19,4.5S19.7,3,20.5,3S22,3.7,22,4.5S21.3,6,20.5,6z"/>
</g>
</svg>
