<?xml version="1.0" encoding="utf-8"?>
<!-- Generator: Adobe Illustrator 19.0.0, SVG Export Plug-In . SVG Version: 6.00 Build 0)  -->
<svg version="1.1" id="Layer_1" xmlns="http://www.w3.org/2000/svg" xmlns:xlink="http://www.w3.org/1999/xlink" x="0px" y="0px"
	 viewBox="0 0 30 30" style="enable-background:new 0 0 30 30;" xml:space="preserve">
<g>
	<path d="M19,30V8c0-1.3-0.8-2.4-2-2.8V30H19z"/>
	<path d="M11,8v22h5V5h-2C12.3,5,11,6.3,11,8z M15,15.5c0,0.8-0.7,1.5-1.5,1.5S12,16.3,12,15.5s0.7-1.5,1.5-1.5S15,14.7,15,15.5z"/>
	<path d="M24.7,9.3C24.9,9.2,25,9.1,25,8.9V1.8c0-1-0.8-1.8-1.8-1.8H6.8C5.8,0,5,0.8,5,1.8v7.1c0,0.2,0.1,0.4,0.3,0.4
		C6.9,10.2,8,12.4,8,15s-1.1,4.8-2.7,5.7C5.1,20.8,5,20.9,5,21.1v7.1c0,1,0.8,1.8,1.8,1.8H10V8c0-2.2,1.8-4,4-4h2c0.1,0,0.2,0,0.3,0
		c0.1,0,0.1,0,0.2,0c0.1,0,0.2,0,0.2,0.1C18.6,4.4,20,6.1,20,8v22h3.2c1,0,1.8-0.8,1.8-1.8v-7.1c0-0.2-0.1-0.4-0.3-0.4
		C23.1,19.8,22,17.6,22,15S23.1,10.2,24.7,9.3z"/>
</g>
</svg>
