<?xml version="1.0" encoding="utf-8"?>
<!-- Generator: Adobe Illustrator 19.0.0, SVG Export Plug-In . SVG Version: 6.00 Build 0)  -->
<svg version="1.1" id="Layer_1" xmlns="http://www.w3.org/2000/svg" xmlns:xlink="http://www.w3.org/1999/xlink" x="0px" y="0px"
	 viewBox="0 0 30 30" style="enable-background:new 0 0 30 30;" xml:space="preserve">
<g>
	<path d="M10,23.3c0.2,0,0.5,0.1,0.8,0.2c1.1,0.2,2.6,0.5,4.2,0.5c1.5,0,2.6-0.3,3.5-0.5c0.3-0.1,0.6-0.1,0.9-0.2
		c0.8-0.2,1.5-0.7,1.8-1.5c0.3-0.8,0.2-1.6-0.2-2.3c-0.9-1.3-3.6-5.3-3.6-9c0,0,0-0.1,0-0.1c1.8-0.9,3-2.8,3-4.9C20.5,2.5,18,0,15,0
		S9.5,2.5,9.5,5.5c0,2.1,1.2,4,3,4.9c0,0,0,0.1,0,0.1c0,3.1-2.2,6.3-3.7,8.5l-0.4,0.6c-0.5,0.7-0.6,1.6-0.2,2.3
		C8.5,22.6,9.2,23.2,10,23.3z M12,6c-0.3,0-0.5-0.2-0.5-0.5C11.5,3.6,13.1,2,15,2c0.3,0,0.5,0.2,0.5,0.5S15.3,3,15,3
		c-1.4,0-2.5,1.1-2.5,2.5C12.5,5.8,12.3,6,12,6z"/>
	<path d="M23.1,20.1c-0.2-0.1-0.3,0-0.5,0.1c-0.1,0.1-0.2,0.3-0.2,0.4c0,0.6,0,1.1-0.3,1.6c-0.5,1.1-1.4,1.8-2.6,2.1
		c-0.3,0-0.5,0.1-0.9,0.2c-1,0.2-2.2,0.5-3.8,0.5c-1.7,0-3.3-0.3-4.4-0.6c-0.3-0.1-0.5-0.1-0.7-0.1c-1.2-0.2-2.1-1-2.6-2.1
		c-0.2-0.5-0.3-1-0.3-1.5c0-0.2-0.1-0.3-0.2-0.4c-0.1-0.1-0.3-0.1-0.5,0c-1.2,0.5-1.8,1.1-1.8,1.8v2.5c0,0.1,0,0.2,0.1,0.3
		c0,0,0.3,0.3,0.9,0.7c0,0.1,0,0.1,0,0.2V27c0,0.8,0.8,1.8,1.6,2c0.7,0.2,4.1,1,7.9,1c3.5,0,6.6-0.7,7.8-1c0.8-0.2,1.7-1.2,1.7-2
		v-1.5c0.6-0.4,0.9-0.7,0.9-0.7c0.1-0.1,0.1-0.2,0.1-0.3V22C25.5,21.3,24.7,20.6,23.1,20.1z"/>
</g>
</svg>
