<?xml version="1.0" encoding="iso-8859-1"?>
<!-- Generator: Adobe Illustrator 19.0.0, SVG Export Plug-In . SVG Version: 6.00 Build 0)  -->
<svg version="1.1" id="Layer_1" xmlns="http://www.w3.org/2000/svg" xmlns:xlink="http://www.w3.org/1999/xlink" x="0px" y="0px"
	 viewBox="0 0 30 30" style="enable-background:new 0 0 30 30;" xml:space="preserve">
<g>
	<g>
		<path d="M24.357,5.641C20.458,1.957,15.35-0.148,10.7-0.013C7.613,0.082,5.002,1.181,3.148,3.163
			c-2.14,2.288-3.276,5.711-3.115,9.39c0.195,4.466,2.252,8.775,5.646,11.823c4.141,3.719,8.89,5.643,13.098,5.643
			c3.132,0,5.964-1.067,8.019-3.254C31.873,21.361,30.756,11.687,24.357,5.641z M26.068,26.08
			c-4.433,4.719-12.911,3.668-19.72-2.448c-3.194-2.87-5.132-6.924-5.315-11.123c-0.149-3.413,0.888-6.57,2.846-8.664
			c1.668-1.783,4.037-2.772,6.852-2.859c0.132-0.004,0.265-0.006,0.399-0.006c4.23,0,8.997,2.04,12.541,5.387
			C29.676,12.043,30.774,21.07,26.068,26.08z M21.867,7.151c-0.195-0.195-0.512-0.195-0.707,0s-0.195,0.512,0,0.707
			c3.149,3.149,4.724,7.738,4.854,10.668c0.012,0.269,0.233,0.478,0.499,0.478h0.022c0.276-0.012,0.49-0.246,0.478-0.521
			C26.844,14.672,24.727,10.012,21.867,7.151z M9.648,3.096C8.297,3.22,6.887,3.839,5.678,4.838c-1.21,0.999-2.084,2.267-2.461,3.57
			C2.82,9.78,3.012,11.032,3.759,11.936c0.657,0.796,1.662,1.221,2.865,1.221c0.162,0,0.327-0.007,0.496-0.023
			c1.351-0.124,2.761-0.743,3.97-1.742c1.21-0.999,2.084-2.267,2.461-3.57c0.397-1.372,0.205-2.624-0.541-3.528
			C12.264,3.39,11.07,2.962,9.648,3.096z M12.592,7.545c-0.322,1.112-1.081,2.205-2.137,3.077s-2.272,1.411-3.425,1.517
			c-1.084,0.103-1.97-0.198-2.5-0.839C4,10.659,3.875,9.731,4.178,8.687C4.5,7.575,5.259,6.482,6.315,5.61
			C7.371,4.738,8.587,4.198,9.74,4.092c0.137-0.013,0.271-0.019,0.401-0.019c0.9,0,1.636,0.298,2.099,0.859
			C12.77,5.573,12.895,6.501,12.592,7.545z"/>
	</g>
</g>
</svg>
