<?xml version="1.0" encoding="iso-8859-1"?>
<!-- Generator: Adobe Illustrator 19.0.0, SVG Export Plug-In . SVG Version: 6.00 Build 0)  -->
<svg version="1.1" id="Layer_1" xmlns="http://www.w3.org/2000/svg" xmlns:xlink="http://www.w3.org/1999/xlink" x="0px" y="0px"
	 viewBox="0 0 30 30" style="enable-background:new 0 0 30 30;" xml:space="preserve">
<g>
	<g>
		<path d="M18.875,7.017c-0.267,0.069-0.428,0.341-0.36,0.609c0.999,3.891,1.601,10.08,0.012,14.713
			c-0.089,0.261,0.049,0.545,0.311,0.635C18.891,22.992,18.945,23,19,23c0.208,0,0.401-0.13,0.471-0.337
			c1.659-4.837,1.094-11.068,0.012-15.287C19.414,7.109,19.141,6.947,18.875,7.017z M11.482,7.625
			c0.069-0.268-0.092-0.54-0.36-0.609c-0.264-0.069-0.54,0.093-0.608,0.36c-1.009,3.932-1.611,10.293,0.009,15.279
			C10.592,22.867,10.789,23,11,23c0.051,0,0.104-0.008,0.153-0.025c0.262-0.086,0.406-0.368,0.321-0.63
			C9.919,17.563,10.506,11.427,11.482,7.625z M20.5,0c-1.617,0-3.057,0.935-3.971,2.067c-0.034-0.704-0.164-1.288-0.535-1.671
			c-0.506-0.521-1.466-0.528-1.978-0.003c-0.372,0.384-0.504,0.972-0.54,1.682C12.563,0.94,11.12,0,9.5,0c-3.098,0-5,7.635-5,13.109
			C4.5,18.815,6.312,30,10.5,30c2.461,0,3.153-1.06,3.658-1.834C14.48,27.672,14.612,27.5,15,27.5s0.519,0.171,0.842,0.666
			C16.346,28.94,17.039,30,19.5,30c4.188,0,6-11.186,6.001-16.892C25.5,7.635,23.599,0,20.5,0z M19.5,29
			c-1.92,0-2.378-0.702-2.821-1.381C16.336,27.096,15.948,26.5,15,26.5s-1.337,0.595-1.679,1.12
			c-0.443,0.679-0.901,1.381-2.821,1.381c-3.006,0-5-9.565-5-15.891c0-5.885,2.056-12.109,4-12.109c2.269,0,3.996,2.328,3.999,3.496
			c-0.032,0.817-0.654,16.487,0.009,20.093c0.045,0.242,0.255,0.41,0.491,0.41c0.03,0,0.061-0.002,0.092-0.007
			c0.271-0.05,0.451-0.311,0.401-0.582c-0.646-3.515,0.001-19.726,0.008-19.89c0-0.004-0.002-0.007-0.002-0.011
			c0-0.003,0.002-0.006,0.002-0.009c0-0.331-0.01-0.666-0.019-0.994c-0.028-0.982-0.06-2.096,0.253-2.417
			C14.776,1.047,14.841,1.002,15,1.002c0.166,0,0.234,0.049,0.276,0.092c0.308,0.318,0.274,1.415,0.245,2.382
			C15.51,3.813,15.5,4.159,15.5,4.5c0,0.003,0.002,0.006,0.002,0.009c0,0.004-0.002,0.007-0.002,0.011
			c0.007,0.164,0.654,16.375,0.008,19.89c-0.05,0.271,0.13,0.532,0.401,0.582C15.94,24.998,15.971,25,16,25
			c0.236,0,0.446-0.168,0.491-0.411c0.663-3.606,0.04-19.276,0.009-20.093C16.504,3.328,18.231,1,20.5,1c1.944,0,4,6.224,4,12.109
			C24.5,19.435,22.505,29,19.5,29z"/>
	</g>
</g>
</svg>
