<?xml version="1.0" encoding="iso-8859-1"?>
<!-- Generator: Adobe Illustrator 19.0.0, SVG Export Plug-In . SVG Version: 6.00 Build 0)  -->
<svg version="1.1" id="Layer_1" xmlns="http://www.w3.org/2000/svg" xmlns:xlink="http://www.w3.org/1999/xlink" x="0px" y="0px"
	 viewBox="0 0 30 30" style="enable-background:new 0 0 30 30;" xml:space="preserve">
<g>
	<g>
		<path d="M28.995,1.058c-1.363-1.364-3.578-1.369-4.939-0.01c-0.08,0.079-0.155,0.163-0.226,0.252
			c-1.265-0.465-2.688-0.167-3.649,0.795c-0.58,0.58-0.929,1.351-0.993,2.171c-0.821,0.065-1.592,0.414-2.172,0.994
			c-0.66,0.658-1.021,1.535-1.018,2.468C16,8.63,16.342,9.481,16.963,10.133l-1.418,1.418c-3.817-2.347-7.178,0.431-10.311,3.563
			C3.66,16.689,1.7,19.14,1.118,20.797l-0.106,0.284c-0.148,0.392-0.333,0.878-0.414,1.291c-0.116,0.589-0.568,6.397-0.619,7.058
			c-0.011,0.144,0.04,0.286,0.142,0.389c0.093,0.096,0.222,0.15,0.356,0.15c0.01,0,0.02,0,0.028-0.003
			c0.672-0.039,6.581-0.39,7.179-0.508c0.027-0.005,0.057-0.018,0.084-0.024c0.003-0.001,0.006-0.001,0.01-0.003
			c2.12-0.463,5.254-2.701,7.163-4.61c2.968-2.968,4.33-5.41,4.286-7.684c-0.018-0.962-0.304-1.888-0.838-2.771l1.403-1.404
			c0.02,0.022,0.042,0.044,0.063,0.065c1.364,1.364,3.581,1.368,4.939,0.011c0.579-0.58,0.928-1.351,0.993-2.171
			c0.82-0.065,1.592-0.414,2.172-0.994c0.963-0.962,1.259-2.383,0.795-3.649c0.09-0.072,0.174-0.148,0.253-0.227
			C30.365,4.638,30.359,2.423,28.995,1.058z M1.471,23.559l5.014,5.014c-1.325,0.103-3.663,0.253-5.465,0.361
			C1.164,27.118,1.349,24.85,1.471,23.559z M14.235,24.114c-1.782,1.783-4.635,3.808-6.503,4.293l-6.084-6.084
			c0.081-0.289,0.194-0.609,0.299-0.887l0.113-0.302c0.508-1.446,2.338-3.767,3.882-5.312c2.575-2.575,4.662-4.158,6.718-4.158
			c0.867,0,1.73,0.285,2.621,0.893c0.016,0.015,0.026,0.035,0.044,0.048c0.351,0.242,0.645,0.475,0.923,0.732
			c0.425,0.393,0.781,0.801,1.091,1.245c0.005,0.008,0.014,0.011,0.02,0.018c0.563,0.817,0.853,1.662,0.87,2.556
			C18.267,19.14,16.998,21.351,14.235,24.114z M28.303,5.286c-0.123,0.122-0.265,0.234-0.434,0.34
			c-0.219,0.138-0.297,0.421-0.179,0.651c0.496,0.969,0.321,2.129-0.437,2.886c-0.499,0.499-1.209,0.757-1.926,0.706
			c-0.144-0.002-0.286,0.043-0.389,0.146c-0.103,0.102-0.156,0.243-0.146,0.388c0.051,0.736-0.199,1.42-0.705,1.926
			c-0.969,0.968-2.551,0.963-3.525-0.011c-0.114-0.113-0.215-0.238-0.31-0.383c-0.083-0.126-0.218-0.208-0.367-0.223
			c-0.148-0.016-0.299,0.038-0.404,0.144l-1.678,1.678c-0.006-0.008-0.015-0.015-0.021-0.023c-0.254-0.309-0.534-0.614-0.855-0.91
			c-0.024-0.023-0.048-0.038-0.073-0.061c-0.155-0.14-0.311-0.275-0.479-0.406l1.674-1.673c0.104-0.103,0.157-0.247,0.145-0.393
			c-0.012-0.146-0.086-0.28-0.205-0.366c-0.088-0.064-0.175-0.131-0.254-0.211c0-0.001-0.001-0.001-0.001-0.001
			C17.262,9.017,17,8.39,16.999,7.724c-0.002-0.665,0.256-1.29,0.725-1.759c0.499-0.5,1.205-0.758,1.926-0.706
			c0.145,0.006,0.287-0.043,0.389-0.146c0.103-0.103,0.156-0.244,0.146-0.389C20.133,4,20.391,3.299,20.89,2.799
			c0.758-0.757,1.916-0.933,2.887-0.437c0.227,0.116,0.512,0.04,0.651-0.18c0.105-0.167,0.216-0.308,0.338-0.431
			c0.968-0.968,2.549-0.964,3.524,0.011C29.265,2.737,29.271,4.318,28.303,5.286z"/>
	</g>
</g>
</svg>
