<?xml version="1.0" encoding="utf-8"?>
<!-- Generator: Adobe Illustrator 19.0.0, SVG Export Plug-In . SVG Version: 6.00 Build 0)  -->
<svg version="1.1" id="Layer_1" xmlns="http://www.w3.org/2000/svg" xmlns:xlink="http://www.w3.org/1999/xlink" x="0px" y="0px"
	 viewBox="0 0 30 30" style="enable-background:new 0 0 30 30;" xml:space="preserve">
<g>
	<g>
		<path d="M0.5,30c-0.1,0-0.3,0-0.4-0.1c-0.2-0.2-0.2-0.5,0-0.7l5-5c0.2-0.2,0.5-0.2,0.7,0s0.2,0.5,0,0.7l-5,5C0.8,30,0.6,30,0.5,30
			z"/>
	</g>
	<g>
		<path d="M10.5,26C10.5,26,10.4,26,10.5,26l-5.1-1c-0.2,0-0.4-0.2-0.4-0.4l-1-5c0-0.2,0-0.3,0.1-0.5L17.6,5.6
			c0.2-0.2,0.5-0.2,0.7,0s0.2,0.5,0,0.7L5,19.7l0.9,4.4l4.4,0.9l13.3-13.3c0.2-0.2,0.5-0.2,0.7,0s0.2,0.5,0,0.7L10.9,25.9
			C10.8,25.9,10.6,26,10.5,26z"/>
	</g>
	<g>
		<path d="M25.5,14c-0.1,0-0.3,0-0.4-0.1l-9-9c-0.2-0.2-0.2-0.5,0-0.7s0.5-0.2,0.7,0l9,9c0.2,0.2,0.2,0.5,0,0.7
			C25.8,14,25.6,14,25.5,14z"/>
	</g>
	<g>
		<path d="M29.5,8c-0.1,0-0.3,0-0.4-0.1l-7-7c-0.2-0.2-0.2-0.5,0-0.7s0.5-0.2,0.7,0l7,7c0.2,0.2,0.2,0.5,0,0.7C29.8,8,29.6,8,29.5,8
			z"/>
	</g>
	<g>
		<path d="M21,5.5c-0.1,0-0.3,0-0.4-0.1c-0.2-0.2-0.2-0.5,0-0.7l3-3c0.2-0.2,0.5-0.2,0.7,0s0.2,0.5,0,0.7l-3,3
			C21.3,5.5,21.1,5.5,21,5.5z"/>
	</g>
	<g>
		<path d="M25,9.5c-0.1,0-0.3,0-0.4-0.1c-0.2-0.2-0.2-0.5,0-0.7l3-3c0.2-0.2,0.5-0.2,0.7,0s0.2,0.5,0,0.7l-3,3
			C25.3,9.5,25.1,9.5,25,9.5z"/>
	</g>
	<g>
		<path d="M8.5,19.5c-0.1,0-0.3,0-0.4-0.1l-1.5-1.5c-0.2-0.2-0.2-0.5,0-0.7s0.5-0.2,0.7,0l1.5,1.5c0.2,0.2,0.2,0.5,0,0.7
			C8.8,19.5,8.6,19.5,8.5,19.5z"/>
	</g>
	<g>
		<path d="M13,15.5c-0.1,0-0.3,0-0.4-0.1l-2-2c-0.2-0.2-0.2-0.5,0-0.7s0.5-0.2,0.7,0l2,2c0.2,0.2,0.2,0.5,0,0.7
			C13.3,15.5,13.1,15.5,13,15.5z"/>
	</g>
	<g>
		<path d="M17.5,11c-0.1,0-0.3,0-0.4-0.1l-2-2c-0.2-0.2-0.2-0.5,0-0.7s0.5-0.2,0.7,0l2,2c0.2,0.2,0.2,0.5,0,0.7
			C17.8,11,17.6,11,17.5,11z"/>
	</g>
	<g>
		<path d="M10.5,17c-0.1,0-0.3,0-0.4-0.1l-1.5-1.5c-0.2-0.2-0.2-0.5,0-0.7s0.5-0.2,0.7,0l1.5,1.5c0.2,0.2,0.2,0.5,0,0.7
			C10.8,17,10.6,17,10.5,17z"/>
	</g>
	<g>
		<path d="M15,13c-0.1,0-0.3,0-0.4-0.1l-1.5-1.5c-0.2-0.2-0.2-0.5,0-0.7s0.5-0.2,0.7,0l1.5,1.5c0.2,0.2,0.2,0.5,0,0.7
			C15.3,13,15.1,13,15,13z"/>
	</g>
</g>
</svg>
