<?xml version="1.0" encoding="iso-8859-1"?>
<!-- Generator: Adobe Illustrator 19.0.0, SVG Export Plug-In . SVG Version: 6.00 Build 0)  -->
<svg version="1.1" id="Layer_1" xmlns="http://www.w3.org/2000/svg" xmlns:xlink="http://www.w3.org/1999/xlink" x="0px" y="0px"
	 viewBox="0 0 24 24" style="enable-background:new 0 0 24 24;" xml:space="preserve">
<g>
	<g>
		<path d="M20.554,6.342c-0.771-0.74-1.707-1.184-2.742-1.309c0.173-0.381,0.325-0.789,0.474-1.189
			c0.454-1.214,0.922-2.47,1.906-2.882c0.245-0.103,0.367-0.378,0.278-0.628c-0.088-0.25-0.354-0.387-0.611-0.313
			c-3.348,0.977-5.296,1.588-6.033,2.608c-2.158-1.896-6.218-3.141-9.959-2.11C3.656,0.577,3.508,0.765,3.5,0.984
			C3.492,1.202,3.627,1.401,3.834,1.473C4.279,1.629,4.73,1.779,5.175,1.927C7.142,2.58,9.169,3.254,9.467,4.155
			C9.231,4.233,8.984,4.31,8.729,4.388C6.613,5.049,3.714,5.952,1.58,9.228C1.465,9.405,1.473,9.635,1.601,9.804
			C1.729,9.971,1.95,10.041,2.15,9.978c5.204-1.65,7.889-2.055,9.264-2.07c-2.096,2.411-4.673,7.436-5.816,11.096
			c0,0.001,0,0.001,0,0.002c-0.091,0.29-0.173,0.571-0.244,0.842c-0.006,0.024-0.011,0.047-0.018,0.071
			c-0.063,0.245-0.122,0.484-0.168,0.709c-0.018,0.086-0.028,0.162-0.043,0.245c-0.029,0.162-0.061,0.328-0.079,0.477
			C5.017,21.583,5,21.802,5,22c0,0.276-0.224,0.5-0.5,0.5S4,22.276,4,22c0-0.783,0.203-1.815,0.54-2.969
			c-0.94,0.035-1.965,0.098-2.552,0.186c-0.242,0.037-0.422,0.242-0.426,0.486L1.5,23.492c-0.002,0.134,0.05,0.264,0.144,0.359
			C1.738,23.946,1.867,24,2,24h12c0.276,0,0.5-0.224,0.5-0.5c0-2.04-2.264-3.287-4.126-3.771C10.14,20.625,10,21.417,10,22
			c0,0.276-0.224,0.5-0.5,0.5S9,22.276,9,22c0-0.175,0.013-0.37,0.033-0.573c0.011-0.108,0.028-0.225,0.044-0.34
			c0.012-0.091,0.024-0.181,0.04-0.276c0.028-0.164,0.059-0.333,0.096-0.508c0.009-0.043,0.018-0.087,0.028-0.131
			c0.045-0.207,0.094-0.419,0.149-0.637c0.842-3.309,2.925-7.911,4.873-10.087c0.063,0.21,0.127,0.425,0.19,0.632
			c0.913,2.987,1.701,5.566,1.055,9.336c-0.041,0.24,0.096,0.475,0.326,0.556C15.889,19.992,15.945,20,16.001,20
			c0.177,0,0.346-0.094,0.436-0.255c1.336-2.384,2.521-6.986,1.405-10.48c1.944,0.584,2.661,0.993,3.751,2.525
			c0.126,0.178,0.352,0.253,0.56,0.187c0.207-0.066,0.348-0.258,0.348-0.476C22.499,9.408,21.79,7.528,20.554,6.342z"/>
	</g>
</g>
</svg>
