<?xml version="1.0" encoding="iso-8859-1"?>
<!-- Generator: Adobe Illustrator 19.0.0, SVG Export Plug-In . SVG Version: 6.00 Build 0)  -->
<svg version="1.1" id="Layer_1" xmlns="http://www.w3.org/2000/svg" xmlns:xlink="http://www.w3.org/1999/xlink" x="0px" y="0px"
	 viewBox="0 0 24 24" style="enable-background:new 0 0 24 24;" xml:space="preserve">
<g>
	<g>
		<path d="M23.222,17.084L17.348,21H2.499c-0.133,0-0.26,0.053-0.354,0.146l-2,2c-0.195,0.195-0.195,0.512,0,0.707
			C0.243,23.951,0.371,24,0.499,24s0.256-0.049,0.354-0.146L2.707,22h14.586l1.854,1.854C19.245,23.951,19.373,24,19.501,24
			s0.256-0.049,0.354-0.146c0.195-0.195,0.195-0.512,0-0.707l-1.569-1.569l5.493-3.662c0.23-0.153,0.292-0.463,0.139-0.693
			C23.765,16.992,23.452,16.932,23.222,17.084z M8.839,6.984l4.266,2.972l-6.86,9.273c-0.165,0.222-0.118,0.535,0.104,0.699
			c0.089,0.066,0.194,0.098,0.297,0.098c0.153,0,0.304-0.07,0.402-0.203l6.877-9.297l3.878,2.701
			c1.156-1.878,2.046-4.148,2.411-6.253c0.358-2.07,0.155-3.689-0.541-4.602c-0.035-0.027-0.07-0.054-0.105-0.081l-3.054,4.543
			c-0.097,0.144-0.254,0.221-0.416,0.221c-0.096,0-0.193-0.027-0.278-0.085c-0.229-0.154-0.29-0.465-0.136-0.694l3.062-4.554
			c-0.053-0.033-0.104-0.069-0.158-0.102c-0.27-0.082-0.565-0.131-0.896-0.131C15.139,1.492,11.254,3.943,8.839,6.984z
			 M18.636,13.808l3.097,2.157c0.087,0.061,0.187,0.09,0.285,0.09c0.158,0,0.313-0.075,0.411-0.214
			c1.457-2.09,1.922-4.681,1.311-7.295c-0.403-1.726-1.253-3.319-2.446-4.667c0.143,0.933,0.121,2.026-0.094,3.267
			C20.812,9.386,19.87,11.815,18.636,13.808z M8.017,6.411c2.063-2.601,5.484-5.185,8.453-5.784C15.308,0.219,14.095,0,12.865,0
			C9.691,0,6.896,1.398,5.197,3.838C5.121,3.946,5.092,4.081,5.115,4.211s0.098,0.247,0.207,0.322L8.017,6.411z"/>
	</g>
</g>
</svg>
