<?xml version="1.0" encoding="utf-8"?>
<!-- Generator: Adobe Illustrator 19.0.0, SVG Export Plug-In . SVG Version: 6.00 Build 0)  -->
<svg version="1.1" id="Layer_1" xmlns="http://www.w3.org/2000/svg" xmlns:xlink="http://www.w3.org/1999/xlink" x="0px" y="0px"
	 viewBox="0 0 30 30" style="enable-background:new 0 0 30 30;" xml:space="preserve">
<g>
	<g>
		<path d="M29,16H1c-0.3,0-0.5-0.2-0.5-0.5S0.7,15,1,15h28c0.3,0,0.5,0.2,0.5,0.5S29.3,16,29,16z"/>
	</g>
	<g>
		<path d="M8,14H3c-0.3,0-0.5-0.2-0.5-0.5v-6C2.5,7.2,2.7,7,3,7h5c0.3,0,0.5,0.2,0.5,0.5v6C8.5,13.8,8.3,14,8,14z M3.5,13h4V8h-4V13
			z"/>
	</g>
	<g>
		<path d="M17,14h-5c-0.3,0-0.5-0.2-0.5-0.5v-13C11.5,0.2,11.7,0,12,0h5c0.3,0,0.5,0.2,0.5,0.5v13C17.5,13.8,17.3,14,17,14z
			 M12.5,13h4V1h-4V13z"/>
	</g>
	<g>
		<path d="M26,14h-5c-0.3,0-0.5-0.2-0.5-0.5v-11C20.5,2.2,20.7,2,21,2h5c0.3,0,0.5,0.2,0.5,0.5v11C26.5,13.8,26.3,14,26,14z
			 M21.5,13h4V3h-4V13z"/>
	</g>
	<g>
		<path d="M17,24h-5c-0.3,0-0.5-0.2-0.5-0.5v-6c0-0.3,0.2-0.5,0.5-0.5h5c0.3,0,0.5,0.2,0.5,0.5v6C17.5,23.8,17.3,24,17,24z M12.5,23
			h4v-5h-4V23z"/>
	</g>
	<g>
		<path d="M8,30H3c-0.3,0-0.5-0.2-0.5-0.5v-12C2.5,17.2,2.7,17,3,17h5c0.3,0,0.5,0.2,0.5,0.5v12C8.5,29.8,8.3,30,8,30z M3.5,29h4V18
			h-4V29z"/>
	</g>
	<g>
		<path d="M26,26h-5c-0.3,0-0.5-0.2-0.5-0.5v-8c0-0.3,0.2-0.5,0.5-0.5h5c0.3,0,0.5,0.2,0.5,0.5v8C26.5,25.8,26.3,26,26,26z M21.5,25
			h4v-7h-4V25z"/>
	</g>
</g>
</svg>
