<?xml version="1.0" encoding="utf-8"?>
<!-- Generator: Adobe Illustrator 19.0.0, SVG Export Plug-In . SVG Version: 6.00 Build 0)  -->
<svg version="1.1" id="Layer_1" xmlns="http://www.w3.org/2000/svg" xmlns:xlink="http://www.w3.org/1999/xlink" x="0px" y="0px"
	 viewBox="0 0 30 30" style="enable-background:new 0 0 30 30;" xml:space="preserve">
<g>
	<g>
		<path d="M7,30H1c-0.3,0-0.5-0.2-0.5-0.5v-15C0.5,14.2,0.7,14,1,14h6c0.3,0,0.5,0.2,0.5,0.5v15C7.5,29.8,7.3,30,7,30z M1.5,29h5V15
			h-5V29z"/>
	</g>
	<g>
		<path d="M18,30h-6c-0.3,0-0.5-0.2-0.5-0.5v-29C11.5,0.2,11.7,0,12,0h6c0.3,0,0.5,0.2,0.5,0.5v29C18.5,29.8,18.3,30,18,30z
			 M12.5,29h5V1h-5V29z"/>
	</g>
	<g>
		<path d="M29,30h-6c-0.3,0-0.5-0.2-0.5-0.5v-23C22.5,6.2,22.7,6,23,6h6c0.3,0,0.5,0.2,0.5,0.5v23C29.5,29.8,29.3,30,29,30z
			 M23.5,29h5V7h-5V29z"/>
	</g>
</g>
</svg>
