<?xml version="1.0" encoding="utf-8"?>
<!-- Generator: Adobe Illustrator 19.0.0, SVG Export Plug-In . SVG Version: 6.00 Build 0)  -->
<svg version="1.1" id="Layer_1_2_" xmlns="http://www.w3.org/2000/svg" xmlns:xlink="http://www.w3.org/1999/xlink" x="0px" y="0px"
	 viewBox="0 0 29 25" style="enable-background:new 0 0 29 25;" xml:space="preserve">
<style type="text/css">
	.st0{fill-rule:evenodd;clip-rule:evenodd;}
</style>
<g>
	<g>
		<path class="st0" d="M14.5,9C14.8,9,15,8.8,15,8.5v-8C15,0.2,14.8,0,14.5,0S14,0.2,14,0.5v8C14,8.8,14.2,9,14.5,9z M20.5,14h2
			c0.3,0,0.5-0.2,0.5-0.5S22.8,13,22.5,13h-2c-0.3,0-0.5,0.2-0.5,0.5S20.2,14,20.5,14z M6.5,14h3c0.3,0,0.5-0.2,0.5-0.5
			S9.8,13,9.5,13h-3C6.2,13,6,13.2,6,13.5S6.2,14,6.5,14z M27.5,11c0.3,0,0.5-0.2,0.5-0.5S27.8,10,27.5,10c-1.9,0-2.8,1.8-3.5,3.3
			C23.2,15,22.7,16,21.5,16c-1.3,0-2.2-1.4-3.1-2.8c-1-1.6-2.1-3.2-3.9-3.2c-1.9,0-2.8,1.8-3.7,3.3C10,14.7,9.3,16,8,16
			s-2-1.3-2.8-2.7C4.3,11.7,3.4,10,1.5,10C1.2,10,1,10.2,1,10.5S1.2,11,1.5,11c1.3,0,2,1.3,2.8,2.7C5.2,15.3,6.1,17,8,17
			s2.8-1.8,3.7-3.3c0.8-1.4,1.5-2.7,2.8-2.7s2.2,1.4,3.1,2.8c1,1.6,2.1,3.2,3.9,3.2c1.9,0,2.7-1.7,3.5-3.3C25.8,12,26.3,11,27.5,11z
			 M28.5,13h-2c-0.3,0-0.5,0.2-0.5,0.5s0.2,0.5,0.5,0.5h2c0.3,0,0.5-0.2,0.5-0.5S28.8,13,28.5,13z M2.5,13h-2C0.2,13,0,13.2,0,13.5
			S0.2,14,0.5,14h2C2.8,14,3,13.8,3,13.5S2.8,13,2.5,13z M15.5,13H15v-0.5c0-0.3-0.2-0.5-0.5-0.5S14,12.2,14,12.5V13h-0.5
			c-0.3,0-0.5,0.2-0.5,0.5s0.2,0.5,0.5,0.5H14v10.5c0,0.3,0.2,0.5,0.5,0.5s0.5-0.2,0.5-0.5V14h0.5c0.3,0,0.5-0.2,0.5-0.5
			S15.8,13,15.5,13z"/>
	</g>
</g>
</svg>
