<?xml version="1.0" encoding="utf-8"?>
<!-- Generator: Adobe Illustrator 19.0.0, SVG Export Plug-In . SVG Version: 6.00 Build 0)  -->
<svg version="1.1" id="Layer_1_2_" xmlns="http://www.w3.org/2000/svg" xmlns:xlink="http://www.w3.org/1999/xlink" x="0px" y="0px"
	 viewBox="0 0 30 28" style="enable-background:new 0 0 30 28;" xml:space="preserve">
<style type="text/css">
	.st0{fill-rule:evenodd;clip-rule:evenodd;}
</style>
<g>
	<g>
		<path class="st0" d="M24.7,6.2c1.7,0,3-1.3,3-3s-1.3-3-3-3s-3,1.3-3,3S23,6.2,24.7,6.2z M24.7,1.2c1.1,0,2,0.9,2,2
			c0,1.1-0.9,2-2,2s-2-0.9-2-2C22.7,2.1,23.6,1.2,24.7,1.2z M5.7,14.8h-5c-0.3,0-0.5,0.2-0.5,0.5v12c0,0.3,0.2,0.5,0.5,0.5h5
			c0.3,0,0.5-0.3,0.5-0.5v-12C6.2,14.9,6,14.8,5.7,14.8z M5.2,26.7h-4v-11h4V26.7z M29.7,16.6l-0.5-6.5C29,8.8,28,7.8,26.7,7.8h-4
			c-1,0-2.2,0.4-2.5,2.4l-1,6.5c-0.1,0.6,0.1,1.2,0.4,1.6c0.3,0.3,0.7,0.5,1.1,0.5l0.5,8.5c0,0.3,0.2,0.5,0.5,0.5h5
			c0.3,0,0.5-0.2,0.4-0.4l1-8.6h0.1c0.5,0,0.8-0.2,1.1-0.5C29.6,17.7,29.8,17.2,29.7,16.6z M28.6,17.6c-0.1,0.1-0.2,0.1-0.3,0.1
			h-0.5c-0.3,0-0.5,0.1-0.5,0.4l-1,8.6h-4.1l-0.4-8.4c0-0.3-0.2-0.5-0.5-0.5h-0.5c-0.1,0-0.2,0-0.3-0.1c-0.2-0.2-0.2-0.5-0.2-0.8
			l1-6.5c0.2-1.4,0.9-1.6,1.5-1.6h1.4v0.4c0,0.3,0.2,0.5,0.5,0.5s0.5-0.3,0.5-0.5V8.8h1.6c0.8,0,1.4,0.6,1.5,1.5l0.5,6.5
			C28.8,17.1,28.8,17.4,28.6,17.6z M15.7,7.8h-5c-0.3,0-0.5,0.2-0.5,0.5v19c0,0.3,0.2,0.5,0.5,0.5h5c0.3,0,0.5-0.3,0.5-0.5v-19
			C16.2,7.9,16,7.8,15.7,7.8z M15.2,26.7h-4v-18h4V26.7z M24.7,10.8c-0.3,0-0.5,0.2-0.5,0.5v3c0,0.3,0.2,0.5,0.5,0.5
			s0.5-0.3,0.5-0.5v-3C25.2,10.9,25,10.8,24.7,10.8z"/>
	</g>
</g>
</svg>
