<?xml version="1.0" encoding="iso-8859-1"?>
<!-- Generator: Adobe Illustrator 18.0.0, SVG Export Plug-In . SVG Version: 6.00 Build 0)  -->
<!DOCTYPE svg PUBLIC "-//W3C//DTD SVG 1.1//EN" "http://www.w3.org/Graphics/SVG/1.1/DTD/svg11.dtd">
<svg version="1.1" id="Layer_1" xmlns="http://www.w3.org/2000/svg" xmlns:xlink="http://www.w3.org/1999/xlink" x="0px" y="0px"
	 viewBox="0 0 24 24" style="enable-background:new 0 0 24 24;" xml:space="preserve">
<g>
	<g>
		<path d="M13.547,23H3.5C1.57,23,0,21.43,0,19.5v-16C0,1.57,1.57,0,3.5,0h16C21.43,0,23,1.57,23,3.5v10.047
			c0,0.223-0.147,0.418-0.361,0.48c-0.214,0.061-0.443-0.025-0.562-0.214C20.968,12.052,19.07,11,17,11c-3.309,0-6,2.691-6,6
			c0,2.07,1.052,3.968,2.813,5.077c0.189,0.119,0.276,0.348,0.214,0.562C13.965,22.853,13.77,23,13.547,23z M3.5,1
			C2.122,1,1,2.122,1,3.5v16C1,20.878,2.122,22,3.5,22h8.606C10.768,20.698,10,18.912,10,17c0-3.86,3.14-7,7-7
			c1.912,0,3.698,0.768,5,2.106V3.5C22,2.122,20.878,1,19.5,1H3.5z"/>
	</g>
	<path d="M17,24c-3.86,0-7-3.14-7-7s3.14-7,7-7s7,3.14,7,7S20.86,24,17,24z M17,11c-3.309,0-6,2.691-6,6s2.691,6,6,6s6-2.691,6-6
		S20.309,11,17,11z"/>
	<path d="M9.5,7h-6C3.224,7,3,6.776,3,6.5S3.224,6,3.5,6h6C9.776,6,10,6.224,10,6.5S9.776,7,9.5,7z"/>
	<path d="M6.5,10C6.224,10,6,9.776,6,9.5v-6C6,3.224,6.224,3,6.5,3S7,3.224,7,3.5v6C7,9.776,6.776,10,6.5,10z"/>
	<path d="M19.5,7h-5C14.224,7,14,6.776,14,6.5S14.224,6,14.5,6h5C19.776,6,20,6.224,20,6.5S19.776,7,19.5,7z"/>
	<path d="M8.5,20c-0.128,0-0.256-0.049-0.354-0.146l-5-5c-0.195-0.195-0.195-0.512,0-0.707s0.512-0.195,0.707,0l5,5
		c0.195,0.195,0.195,0.512,0,0.707C8.756,19.951,8.628,20,8.5,20z"/>
	<path d="M3.5,20c-0.128,0-0.256-0.049-0.354-0.146c-0.195-0.195-0.195-0.512,0-0.707l5-5c0.195-0.195,0.512-0.195,0.707,0
		s0.195,0.512,0,0.707l-5,5C3.756,19.951,3.628,20,3.5,20z"/>
	<path d="M19.5,16h-5c-0.276,0-0.5-0.224-0.5-0.5s0.224-0.5,0.5-0.5h5c0.276,0,0.5,0.224,0.5,0.5S19.776,16,19.5,16z"/>
	<path d="M19.5,19h-5c-0.276,0-0.5-0.224-0.5-0.5s0.224-0.5,0.5-0.5h5c0.276,0,0.5,0.224,0.5,0.5S19.776,19,19.5,19z"/>
</g>
<g>
</g>
<g>
</g>
<g>
</g>
<g>
</g>
<g>
</g>
<g>
</g>
<g>
</g>
<g>
</g>
<g>
</g>
<g>
</g>
<g>
</g>
<g>
</g>
<g>
</g>
<g>
</g>
<g>
</g>
</svg>
