<?xml version="1.0" encoding="iso-8859-1"?>
<!-- Generator: Adobe Illustrator 18.0.0, SVG Export Plug-In . SVG Version: 6.00 Build 0)  -->
<!DOCTYPE svg PUBLIC "-//W3C//DTD SVG 1.1//EN" "http://www.w3.org/Graphics/SVG/1.1/DTD/svg11.dtd">
<svg version="1.1" id="Layer_1" xmlns="http://www.w3.org/2000/svg" xmlns:xlink="http://www.w3.org/1999/xlink" x="0px" y="0px"
	 viewBox="0 0 24 24" style="enable-background:new 0 0 24 24;" xml:space="preserve">
<g>
	<path d="M12,24c-5.238,0-9.5-3.364-9.5-7.5c0-2.914,4.928-8.125,5.138-8.345C7.732,8.056,7.863,8,8,8h8
		c0.137,0,0.268,0.056,0.362,0.155c0.21,0.22,5.138,5.431,5.138,8.345C21.5,20.636,17.238,24,12,24z M8.216,9
		C6.773,10.548,3.5,14.484,3.5,16.5c0,3.584,3.813,6.5,8.5,6.5s8.5-2.916,8.5-6.5c0-2.018-3.273-5.953-4.716-7.5H8.216z"/>
	<path d="M16,7H8C7.724,7,7.5,6.777,7.5,6.5S7.724,6,8,6h8c0.276,0,0.5,0.224,0.5,0.5S16.276,7,16,7z"/>
	<path d="M16,5H8C7.811,5,7.638,4.893,7.553,4.724l-2-4C5.456,0.531,5.494,0.299,5.646,0.147S6.03-0.044,6.224,0.053l3.678,1.839
		l1.745-1.745c0.195-0.195,0.512-0.195,0.707,0l1.745,1.745l3.678-1.839c0.192-0.097,0.426-0.059,0.577,0.094
		c0.152,0.152,0.19,0.385,0.094,0.577l-2,4C16.362,4.893,16.189,5,16,5z M8.309,4h7.383l1.19-2.382l-2.658,1.329
		c-0.192,0.097-0.426,0.059-0.577-0.094L12,1.207l-1.646,1.646c-0.152,0.152-0.384,0.19-0.577,0.094L7.118,1.618L8.309,4z"/>
	<path d="M11.998,20c-1.333,0-2.406-0.8-2.496-1.862c-0.023-0.275,0.181-0.517,0.456-0.54c0.252-0.034,0.517,0.18,0.54,0.456
		c0.044,0.521,0.717,0.946,1.5,0.946c0.814,0,1.502-0.458,1.502-1c0-0.488-0.474-0.802-1.49-0.989L11.9,16.99
		c-1.622-0.299-2.4-0.963-2.4-1.99c0-1.103,1.122-2,2.502-2c1.333,0,2.406,0.8,2.496,1.861c0.023,0.275-0.181,0.518-0.456,0.541
		c-0.257,0.026-0.518-0.18-0.54-0.456C13.458,14.425,12.785,14,12.002,14c-0.814,0-1.502,0.458-1.502,1
		c0,0.488,0.475,0.802,1.494,0.99l0.109,0.021c1.62,0.299,2.396,0.963,2.396,1.99C14.5,19.103,13.378,20,11.998,20z"/>
	<path d="M12,21c-0.276,0-0.5-0.224-0.5-0.5v-8c0-0.276,0.224-0.5,0.5-0.5s0.5,0.224,0.5,0.5v8C12.5,20.777,12.276,21,12,21z"/>
</g>
<g>
</g>
<g>
</g>
<g>
</g>
<g>
</g>
<g>
</g>
<g>
</g>
<g>
</g>
<g>
</g>
<g>
</g>
<g>
</g>
<g>
</g>
<g>
</g>
<g>
</g>
<g>
</g>
<g>
</g>
</svg>
