<?xml version="1.0" encoding="iso-8859-1"?>
<!-- Generator: Adobe Illustrator 18.0.0, SVG Export Plug-In . SVG Version: 6.00 Build 0)  -->
<!DOCTYPE svg PUBLIC "-//W3C//DTD SVG 1.1//EN" "http://www.w3.org/Graphics/SVG/1.1/DTD/svg11.dtd">
<svg version="1.1" id="Layer_1" xmlns="http://www.w3.org/2000/svg" xmlns:xlink="http://www.w3.org/1999/xlink" x="0px" y="0px"
	 viewBox="0 0 24 24" style="enable-background:new 0 0 24 24;" xml:space="preserve">
<g>
	<g>
		<path d="M12,5c-1.378,0-2.5-1.122-2.5-2.5S10.622,0,12,0s2.5,1.122,2.5,2.5S13.378,5,12,5z M12,1c-0.827,0-1.5,0.673-1.5,1.5
			S11.173,4,12,4s1.5-0.673,1.5-1.5S12.827,1,12,1z"/>
		<path d="M16,9H8C7.724,9,7.5,8.776,7.5,8.5C7.5,6.019,9.519,4,12,4s4.5,2.019,4.5,4.5C16.5,8.776,16.276,9,16,9z M8.536,8h6.929
			C15.221,6.306,13.76,5,12,5S8.779,6.306,8.536,8z"/>
	</g>
	<g>
		<path d="M5,20c-1.378,0-2.5-1.122-2.5-2.5S3.622,15,5,15s2.5,1.122,2.5,2.5S6.378,20,5,20z M5,16c-0.827,0-1.5,0.673-1.5,1.5
			S4.173,19,5,19s1.5-0.673,1.5-1.5S5.827,16,5,16z"/>
		<path d="M9,24H1c-0.276,0-0.5-0.224-0.5-0.5C0.5,21.019,2.519,19,5,19s4.5,2.019,4.5,4.5C9.5,23.776,9.276,24,9,24z M1.536,23
			h6.929C8.221,21.306,6.76,20,5,20S1.779,21.306,1.536,23z"/>
	</g>
	<g>
		<path d="M19,20c-1.378,0-2.5-1.122-2.5-2.5S17.622,15,19,15s2.5,1.122,2.5,2.5S20.378,20,19,20z M19,16
			c-0.827,0-1.5,0.673-1.5,1.5S18.173,19,19,19s1.5-0.673,1.5-1.5S19.827,16,19,16z"/>
		<path d="M23,24h-8c-0.276,0-0.5-0.224-0.5-0.5c0-2.481,2.019-4.5,4.5-4.5s4.5,2.019,4.5,4.5C23.5,23.776,23.276,24,23,24z
			 M15.536,23h6.929c-0.243-1.694-1.704-3-3.464-3S15.779,21.306,15.536,23z"/>
	</g>
	<path d="M5,14c-0.276,0-0.5-0.224-0.5-0.5v-8C4.5,5.224,4.724,5,5,5h2c0.276,0,0.5,0.224,0.5,0.5S7.276,6,7,6H5.5v7.5
		C5.5,13.776,5.276,14,5,14z"/>
	<path d="M19,14c-0.276,0-0.5-0.224-0.5-0.5V6H17c-0.276,0-0.5-0.224-0.5-0.5S16.724,5,17,5h2c0.276,0,0.5,0.224,0.5,0.5v8
		C19.5,13.776,19.276,14,19,14z"/>
</g>
<g>
</g>
<g>
</g>
<g>
</g>
<g>
</g>
<g>
</g>
<g>
</g>
<g>
</g>
<g>
</g>
<g>
</g>
<g>
</g>
<g>
</g>
<g>
</g>
<g>
</g>
<g>
</g>
<g>
</g>
</svg>
