<?xml version="1.0" encoding="iso-8859-1"?>
<!-- Generator: Adobe Illustrator 18.0.0, SVG Export Plug-In . SVG Version: 6.00 Build 0)  -->
<!DOCTYPE svg PUBLIC "-//W3C//DTD SVG 1.1//EN" "http://www.w3.org/Graphics/SVG/1.1/DTD/svg11.dtd">
<svg version="1.1" id="Layer_1" xmlns="http://www.w3.org/2000/svg" xmlns:xlink="http://www.w3.org/1999/xlink" x="0px" y="0px"
	 viewBox="0 0 24 24" style="enable-background:new 0 0 24 24;" xml:space="preserve">
<g>
	<g>
		<path d="M12,11.5c-1.378,0-2.5-1.122-2.5-2.5s1.122-2.5,2.5-2.5s2.5,1.122,2.5,2.5S13.378,11.5,12,11.5z M12,7.5
			c-0.827,0-1.5,0.673-1.5,1.5s0.673,1.5,1.5,1.5s1.5-0.673,1.5-1.5S12.827,7.5,12,7.5z"/>
		<path d="M16,15.5H8c-0.276,0-0.5-0.224-0.5-0.5c0-2.481,2.019-4.5,4.5-4.5s4.5,2.019,4.5,4.5C16.5,15.276,16.276,15.5,16,15.5z
			 M8.536,14.5h6.929c-0.243-1.694-1.704-3-3.464-3S8.779,12.806,8.536,14.5z"/>
	</g>
	<path d="M6,7.5C4.622,7.5,3.5,6.378,3.5,5S4.622,2.5,6,2.5S8.5,3.622,8.5,5S7.378,7.5,6,7.5z M6,3.5C5.173,3.5,4.5,4.173,4.5,5
		S5.173,6.5,6,6.5S7.5,5.827,7.5,5S6.827,3.5,6,3.5z"/>
	<path d="M3,14.5c-1.378,0-2.5-1.122-2.5-2.5S1.622,9.5,3,9.5s2.5,1.122,2.5,2.5S4.378,14.5,3,14.5z M3,10.5
		c-0.827,0-1.5,0.673-1.5,1.5s0.673,1.5,1.5,1.5s1.5-0.673,1.5-1.5S3.827,10.5,3,10.5z"/>
	<path d="M6,21.5c-1.378,0-2.5-1.122-2.5-2.5s1.122-2.5,2.5-2.5s2.5,1.122,2.5,2.5S7.378,21.5,6,21.5z M6,17.5
		c-0.827,0-1.5,0.673-1.5,1.5s0.673,1.5,1.5,1.5s1.5-0.673,1.5-1.5S6.827,17.5,6,17.5z"/>
	<path d="M18,21.5c-1.378,0-2.5-1.122-2.5-2.5s1.122-2.5,2.5-2.5s2.5,1.122,2.5,2.5S19.378,21.5,18,21.5z M18,17.5
		c-0.827,0-1.5,0.673-1.5,1.5s0.673,1.5,1.5,1.5s1.5-0.673,1.5-1.5S18.827,17.5,18,17.5z"/>
	<path d="M21,14.5c-1.378,0-2.5-1.122-2.5-2.5s1.122-2.5,2.5-2.5s2.5,1.122,2.5,2.5S22.378,14.5,21,14.5z M21,10.5
		c-0.827,0-1.5,0.673-1.5,1.5s0.673,1.5,1.5,1.5s1.5-0.673,1.5-1.5S21.827,10.5,21,10.5z"/>
	<path d="M18,7.5c-1.378,0-2.5-1.122-2.5-2.5s1.122-2.5,2.5-2.5s2.5,1.122,2.5,2.5S19.378,7.5,18,7.5z M18,3.5
		c-0.827,0-1.5,0.673-1.5,1.5s0.673,1.5,1.5,1.5s1.5-0.673,1.5-1.5S18.827,3.5,18,3.5z"/>
	<path d="M8.5,8C8.372,8,8.244,7.951,8.146,7.854l-1-1c-0.195-0.195-0.195-0.512,0-0.707s0.512-0.195,0.707,0l1,1
		c0.195,0.195,0.195,0.512,0,0.707C8.756,7.951,8.628,8,8.5,8z"/>
	<path d="M7,12.5H5c-0.276,0-0.5-0.224-0.5-0.5s0.224-0.5,0.5-0.5h2c0.276,0,0.5,0.224,0.5,0.5S7.276,12.5,7,12.5z"/>
	<path d="M7.5,18c-0.128,0-0.256-0.049-0.354-0.146c-0.195-0.195-0.195-0.512,0-0.707l1-1c0.195-0.195,0.512-0.195,0.707,0
		s0.195,0.512,0,0.707l-1,1C7.756,17.951,7.628,18,7.5,18z"/>
	<path d="M16.5,18c-0.128,0-0.256-0.049-0.354-0.146l-1-1c-0.195-0.195-0.195-0.512,0-0.707s0.512-0.195,0.707,0l1,1
		c0.195,0.195,0.195,0.512,0,0.707C16.756,17.951,16.628,18,16.5,18z"/>
	<path d="M19,12.5h-2c-0.276,0-0.5-0.224-0.5-0.5s0.224-0.5,0.5-0.5h2c0.276,0,0.5,0.224,0.5,0.5S19.276,12.5,19,12.5z"/>
	<path d="M15.5,8c-0.128,0-0.256-0.049-0.354-0.146c-0.195-0.195-0.195-0.512,0-0.707l1-1c0.195-0.195,0.512-0.195,0.707,0
		s0.195,0.512,0,0.707l-1,1C15.756,7.951,15.628,8,15.5,8z"/>
</g>
<g>
</g>
<g>
</g>
<g>
</g>
<g>
</g>
<g>
</g>
<g>
</g>
<g>
</g>
<g>
</g>
<g>
</g>
<g>
</g>
<g>
</g>
<g>
</g>
<g>
</g>
<g>
</g>
<g>
</g>
</svg>
