<?xml version="1.0" encoding="iso-8859-1"?>
<!-- Generator: Adobe Illustrator 19.0.0, SVG Export Plug-In . SVG Version: 6.00 Build 0)  -->
<svg version="1.1" id="Layer_1" xmlns="http://www.w3.org/2000/svg" xmlns:xlink="http://www.w3.org/1999/xlink" x="0px" y="0px"
	 viewBox="0 0 30 30" style="enable-background:new 0 0 30 30;" xml:space="preserve">
<g>
	<g>
		<path d="M15,0.5C7.005,0.5,0.5,7.005,0.5,15S7.005,29.5,15,29.5S29.5,22.995,29.5,15S22.995,0.5,15,0.5z M15,4.5
			c1.379,0,2.5,1.122,2.5,2.5S16.379,9.5,15,9.5c-1.379,0-2.5-1.122-2.5-2.5S13.621,4.5,15,4.5z M18.635,18.455
			c-0.218,0.236-0.487,0.401-0.783,0.483l-0.855,7.121c-0.03,0.251-0.243,0.44-0.496,0.44h-3c-0.258,0-0.474-0.197-0.498-0.454
			l-0.66-7.111c-0.292-0.083-0.557-0.248-0.772-0.48c-0.333-0.361-0.501-0.853-0.461-1.349l0.4-5c0.071-0.9,0.816-1.606,1.695-1.606
			h3.796c0.879,0,1.624,0.706,1.695,1.606l0.4,5C19.136,17.602,18.968,18.094,18.635,18.455z"/>
	</g>
</g>
</svg>
