<?xml version="1.0" encoding="iso-8859-1"?>
<!-- Generator: Adobe Illustrator 19.0.0, SVG Export Plug-In . SVG Version: 6.00 Build 0)  -->
<svg version="1.1" id="Layer_1" xmlns="http://www.w3.org/2000/svg" xmlns:xlink="http://www.w3.org/1999/xlink" x="0px" y="0px"
	 viewBox="0 0 30 30" style="enable-background:new 0 0 30 30;" xml:space="preserve">
<g>
	<g>
		<path d="M15,0.5C7.005,0.5,0.5,7.005,0.5,15S7.005,29.5,15,29.5S29.5,22.995,29.5,15S22.995,0.5,15,0.5z M14,10.5h-3.5V20
			c0,0.276-0.224,0.5-0.5,0.5S9.5,20.276,9.5,20v-9.5H6c-0.276,0-0.5-0.224-0.5-0.5S5.724,9.5,6,9.5h8c0.276,0,0.5,0.224,0.5,0.5
			S14.276,10.5,14,10.5z M24.5,20c0,0.276-0.224,0.5-0.5,0.5s-0.5-0.224-0.5-0.5v-8.575l-3.109,3.887
			c-0.189,0.237-0.592,0.237-0.781,0l-3.11-3.887V20c0,0.276-0.224,0.5-0.5,0.5s-0.5-0.224-0.5-0.5V10
			c0-0.212,0.134-0.401,0.335-0.472c0.198-0.071,0.424-0.006,0.556,0.159L20,14.2l3.609-4.512c0.134-0.165,0.36-0.228,0.556-0.159
			c0.201,0.07,0.335,0.259,0.335,0.472V20z"/>
	</g>
</g>
</svg>
