<?xml version="1.0" encoding="iso-8859-1"?>
<!-- Generator: Adobe Illustrator 19.0.0, SVG Export Plug-In . SVG Version: 6.00 Build 0)  -->
<svg version="1.1" id="Layer_1" xmlns="http://www.w3.org/2000/svg" xmlns:xlink="http://www.w3.org/1999/xlink" x="0px" y="0px"
	 viewBox="0 0 30 30" style="enable-background:new 0 0 30 30;" xml:space="preserve">
<g>
	<g>
		<path d="M22.5,2h-15C7.224,2,7,2.224,7,2.5v11C7,13.776,7.224,14,7.5,14h15c0.276,0,0.5-0.224,0.5-0.5v-11
			C23,2.224,22.776,2,22.5,2z M22,13H8V3h14V13z M22.5,0h-15C6.121,0,5,1.122,5,2.5v25C5,28.878,6.121,30,7.5,30h15
			c1.379,0,2.5-1.122,2.5-2.5v-25C25,1.122,23.879,0,22.5,0z M24,27.5c0,0.827-0.673,1.5-1.5,1.5h-15C6.673,29,6,28.327,6,27.5v-25
			C6,1.673,6.673,1,7.5,1h15C23.327,1,24,1.673,24,2.5V27.5z M15,15c-3.309,0-6,2.691-6,6s2.691,6,6,6s6-2.691,6-6S18.309,15,15,15z
			 M15,16c1.198,0,2.285,0.441,3.147,1.147c0,0,0,0-0.001,0l-1.413,1.413C16.242,18.211,15.647,18,15,18
			c-0.647,0-1.243,0.211-1.733,0.56l-1.414-1.414c0,0,0,0,0,0C12.715,16.441,13.802,16,15,16z M17,21c0,1.103-0.897,2-2,2
			s-2-0.897-2-2c0-1.103,0.897-2,2-2S17,19.897,17,21z M10,21c0-1.198,0.441-2.284,1.146-3.146l1.414,1.414
			C12.21,19.758,12,20.354,12,21c0,0.647,0.211,1.242,0.56,1.733l-1.414,1.414C10.441,23.284,10,22.198,10,21z M15,26
			c-1.198,0-2.284-0.441-3.147-1.146l1.414-1.414C13.758,23.789,14.353,24,15,24c0.646,0,1.242-0.21,1.732-0.56l1.414,1.414
			C17.284,25.559,16.198,26,15,26z M18.853,24.147C18.853,24.147,18.853,24.147,18.853,24.147l-1.414-1.414
			C17.789,22.243,18,21.647,18,21c0-0.647-0.211-1.242-0.56-1.733l1.413-1.413c0,0,0,0,0-0.001C19.559,18.715,20,19.802,20,21
			C20,22.198,19.559,23.285,18.853,24.147z"/>
	</g>
</g>
</svg>
