<?xml version="1.0" encoding="iso-8859-1"?>
<!-- Generator: Adobe Illustrator 19.0.0, SVG Export Plug-In . SVG Version: 6.00 Build 0)  -->
<svg version="1.1" id="Layer_1" xmlns="http://www.w3.org/2000/svg" xmlns:xlink="http://www.w3.org/1999/xlink" x="0px" y="0px"
	 viewBox="0 0 30 30" style="enable-background:new 0 0 30 30;" xml:space="preserve">
<g>
	<g>
		<path d="M11,26h-1c-0.276,0-0.5,0.224-0.5,0.5S9.724,27,10,27h1c0.276,0,0.5-0.224,0.5-0.5S11.276,26,11,26z M17,3h-4
			c-0.276,0-0.5,0.224-0.5,0.5S12.724,4,13,4h4c0.276,0,0.5-0.224,0.5-0.5S17.276,3,17,3z M20,26h-1c-0.276,0-0.5,0.224-0.5,0.5
			S18.724,27,19,27h1c0.276,0,0.5-0.224,0.5-0.5S20.276,26,20,26z M23,0H7C6.173,0,5.5,0.673,5.5,1.5v27C5.5,29.327,6.173,30,7,30
			h16c0.827,0,1.5-0.673,1.5-1.5v-27C24.5,0.673,23.827,0,23,0z M23.5,28.5c0,0.276-0.224,0.5-0.5,0.5H7c-0.276,0-0.5-0.224-0.5-0.5
			v-27C6.5,1.224,6.724,1,7,1h16c0.276,0,0.5,0.224,0.5,0.5V28.5z"/>
	</g>
</g>
</svg>
