<?xml version="1.0" encoding="iso-8859-1"?>
<!-- Generator: Adobe Illustrator 19.0.0, SVG Export Plug-In . SVG Version: 6.00 Build 0)  -->
<svg version="1.1" id="Layer_1" xmlns="http://www.w3.org/2000/svg" xmlns:xlink="http://www.w3.org/1999/xlink" x="0px" y="0px"
	 viewBox="0 0 30 30" style="enable-background:new 0 0 30 30;" xml:space="preserve">
<g>
	<g>
		<path d="M18,16.794V10c0-0.166-0.083-0.321-0.22-0.414c-0.138-0.093-0.314-0.113-0.466-0.05l-4.694,1.878l-1.767-1.767
			c-0.195-0.195-0.512-0.195-0.707,0s-0.195,0.512,0,0.707l9,9c0.098,0.097,0.226,0.146,0.354,0.146s0.256-0.049,0.353-0.146
			c0.195-0.195,0.195-0.512,0-0.707L18,16.794z M17,15.793l-3.61-3.61L17,10.738V15.793z M23.5,12.5c0.276,0,0.5-0.224,0.5-0.5v-1
			c0-0.276-0.224-0.5-0.5-0.5S23,10.724,23,11V9c0-1.305-1.01-2.368-2.286-2.478l-0.718-5.585C19.964,0.687,19.751,0.5,19.5,0.5h-10
			c-0.252,0-0.465,0.188-0.496,0.438L8.305,6.52C7.02,6.621,6,7.689,6,9v12c0,1.303,1.007,2.365,2.282,2.478l0.722,5.586
			C9.037,29.313,9.249,29.5,9.5,29.5h10c0.252,0,0.465-0.188,0.496-0.438l0.695-5.581C21.979,23.381,23,22.313,23,21v-2
			c0,0.276,0.224,0.5,0.5,0.5S24,19.276,24,19v-1c0-0.276-0.224-0.5-0.5-0.5S23,17.724,23,18v-6C23,12.276,23.224,12.5,23.5,12.5z
			 M9.941,1.5h9.119l0.642,5H9.315L9.941,1.5z M19.059,28.5H9.94l-0.647-5h10.388L19.059,28.5z M22,21c0,0.827-0.673,1.5-1.5,1.5
			h-12C7.673,22.5,7,21.827,7,21V9c0-0.827,0.673-1.5,1.5-1.5h12C21.327,7.5,22,8.173,22,9V21z M17.686,19.536L13,17.662v-2.834
			c0-0.276-0.224-0.5-0.5-0.5s-0.5,0.224-0.5,0.5V17.5h-1v-4.672c0-0.276-0.224-0.5-0.5-0.5s-0.5,0.224-0.5,0.5V18
			c0,0.276,0.224,0.5,0.5,0.5h1.904l4.91,1.964c0.061,0.025,0.124,0.036,0.186,0.036c0.198,0,0.386-0.119,0.465-0.314
			C18.067,19.93,17.942,19.639,17.686,19.536z"/>
	</g>
</g>
</svg>
