<?xml version="1.0" encoding="iso-8859-1"?>
<!-- Generator: Adobe Illustrator 19.0.0, SVG Export Plug-In . SVG Version: 6.00 Build 0)  -->
<svg version="1.1" id="Layer_1" xmlns="http://www.w3.org/2000/svg" xmlns:xlink="http://www.w3.org/1999/xlink" x="0px" y="0px"
	 viewBox="0 0 30 30" style="enable-background:new 0 0 30 30;" xml:space="preserve">
<g>
	<g>
		<path d="M8.501,14.501H6.875c-0.133,0-0.26,0.052-0.354,0.146l-0.257,0.257c-0.658-0.378-1.21-0.918-1.606-1.564l0.196-0.196
			C4.947,13.05,5,12.922,5,12.79V11c0-0.276-0.224-0.5-0.5-0.5h-1C3.224,10.5,3,10.724,3,11c0,3.033,2.468,5.5,5.5,5.5
			c0.276,0,0.5-0.224,0.501-0.499v-1C9.001,14.725,8.777,14.501,8.501,14.501z M30,15c0-1.073-0.679-1.99-1.629-2.344
			C28.762,12.215,29,11.635,29,11c0-1.073-0.679-1.99-1.629-2.344C27.762,8.215,28,7.635,28,7c0-1.378-1.121-2.5-2.5-2.5H17
			c-2.569,0-3.761,0.677-4.185,1H0.5C0.224,5.5,0,5.724,0,6s0.224,0.5,0.5,0.5H2v2.092C1.419,8.799,1,9.349,1,10v7
			c0,0.651,0.419,1.201,1,1.408V20.5H0.5C0.224,20.5,0,20.724,0,21s0.224,0.5,0.5,0.5H10c1.46,0,2.136,0.648,2.991,1.469
			c0.506,0.486,1.08,1.036,1.873,1.471c0.2,0.108,1.995,1.06,3.136,1.06c3.116,0,6.038-3.187,6.733-4H26.5
			c1.379,0,2.5-1.122,2.5-2.5c0-0.635-0.238-1.215-0.629-1.656C29.321,16.989,30,16.073,30,15z M3,6.5h6v2H3V6.5z M9,20.5H3v-2h6
			V20.5z M9.5,17.5h-7C2.225,17.5,2,17.276,2,17v-7c0-0.276,0.225-0.5,0.5-0.5h7C9.775,9.5,10,9.724,10,10v7
			C10,17.276,9.775,17.5,9.5,17.5z M27.5,16.5h-3c-0.276,0-0.5,0.224-0.5,0.5s0.224,0.5,0.5,0.5h2c0.827,0,1.5,0.673,1.5,1.5
			c0,0.827-0.673,1.5-1.5,1.5h-7c-0.276,0-0.5,0.224-0.5,0.5s0.224,0.5,0.5,0.5h3.872c-1.091,1.119-3.239,3-5.372,3
			c-0.753,0-2.176-0.678-2.658-0.938c-0.674-0.369-1.175-0.85-1.658-1.314C12.788,21.389,11.862,20.5,10,20.5v-2.092
			c0.581-0.207,1-0.757,1-1.408v-3c0,0.276,0.224,0.5,0.5,0.5S12,14.276,12,14v-1c0-0.276-0.224-0.5-0.5-0.5S11,12.724,11,13v-3
			c0-0.651-0.419-1.201-1-1.408V6.5h3c0.13,0,0.263-0.059,0.356-0.15C13.365,6.342,14.259,5.5,17,5.5h8.5C26.327,5.5,27,6.173,27,7
			c0,0.827-0.673,1.5-1.5,1.5C25.224,8.5,25,8.724,25,9s0.224,0.5,0.5,0.5h1c0.827,0,1.5,0.673,1.5,1.5c0,0.827-0.673,1.5-1.5,1.5
			h-1c-0.276,0-0.5,0.224-0.5,0.5s0.224,0.5,0.5,0.5h2c0.827,0,1.5,0.673,1.5,1.5C29,15.827,28.327,16.5,27.5,16.5z"/>
	</g>
</g>
</svg>
