<?xml version="1.0" encoding="iso-8859-1"?>
<!-- Generator: Adobe Illustrator 19.2.1, SVG Export Plug-In . SVG Version: 6.00 Build 0)  -->
<svg version="1.1" id="Layer_1" xmlns="http://www.w3.org/2000/svg" xmlns:xlink="http://www.w3.org/1999/xlink" x="0px" y="0px"
	 viewBox="0 0 30 30" style="enable-background:new 0 0 30 30;" xml:space="preserve">
<g>
	<g>
		<path d="M15,0.5c-3.991,0-7.609,1.621-10.234,4.239c-0.005,0.004-0.011,0.005-0.015,0.01c-0.004,0.004-0.006,0.01-0.01,0.014
			C2.122,7.388,0.5,11.008,0.5,15c0,7.995,6.505,14.5,14.5,14.5S29.5,22.995,29.5,15S22.995,0.5,15,0.5z M15,28.5
			C7.556,28.5,1.5,22.444,1.5,15c0-3.542,1.382-6.76,3.621-9.17l5.456,5.479c-0.049,0.224-0.076,0.454-0.076,0.691v6
			c0,1.93,1.719,3.5,3.833,3.5h1.333c1.417,0,2.642-0.714,3.306-1.76l5.156,5.177C21.722,27.133,18.522,28.5,15,28.5z M11.501,18
			v-5.764l6.75,6.778c-0.442,0.873-1.431,1.485-2.584,1.485h-1.333C12.772,20.5,11.501,19.378,11.501,18z M24.84,24.213
			l-5.435-5.458C19.464,18.511,19.5,18.26,19.5,18v-0.6c0-0.276-0.224-0.5-0.5-0.5s-0.5,0.224-0.5,0.5v0.446l-6.78-6.808
			c0.428-0.902,1.437-1.538,2.614-1.538h1.333c1.562,0,2.833,1.122,2.833,2.5v0.6c0,0.276,0.224,0.5,0.5,0.5s0.5-0.224,0.5-0.5V12
			c0-1.93-1.719-3.5-3.833-3.5h-1.333c-1.439,0-2.681,0.737-3.337,1.812l-5.168-5.19C8.24,2.882,11.458,1.5,15,1.5
			c7.444,0,13.5,6.056,13.5,13.5C28.5,18.563,27.103,21.798,24.84,24.213z"/>
	</g>
</g>
</svg>
