<?xml version="1.0" encoding="iso-8859-1"?>
<!-- Generator: Adobe Illustrator 19.2.1, SVG Export Plug-In . SVG Version: 6.00 Build 0)  -->
<svg version="1.1" id="Layer_1" xmlns="http://www.w3.org/2000/svg" xmlns:xlink="http://www.w3.org/1999/xlink" x="0px" y="0px"
	 viewBox="0 0 30 30" style="enable-background:new 0 0 30 30;" xml:space="preserve">
<g>
	<g>
		<path d="M23,16c-3.859,0-7,3.14-7,7s3.141,7,7,7s7-3.14,7-7S26.859,16,23,16z M23,29c-3.309,0-6-2.691-6-6
			c0-1.475,0.537-2.824,1.422-3.87l1.864,1.864c-0.178,0.227-0.285,0.481-0.285,0.756c0,1.224,1.595,1.561,2.499,1.689v1.532
			c-0.941-0.104-1.476-0.484-1.503-0.704c-0.036-0.274-0.291-0.468-0.56-0.433c-0.274,0.035-0.468,0.285-0.433,0.559
			c0.105,0.832,1.126,1.457,2.496,1.581V26.5c0,0.276,0.224,0.5,0.5,0.5s0.5-0.224,0.5-0.5v-0.528
			c0.536-0.049,1.011-0.176,1.404-0.36l1.966,1.966C25.824,28.463,24.475,29,23,29z M21,21.75c0-0.01,0.008-0.021,0.01-0.032
			l0.427,0.427C21.057,21.979,21,21.818,21,21.75z M21.863,21.157c0.186-0.056,0.399-0.1,0.637-0.127v0.764L21.863,21.157z
			 M23.5,24.97v-0.762l0.635,0.635C23.95,24.899,23.737,24.943,23.5,24.97z M24.559,23.853c0.385,0.167,0.442,0.329,0.442,0.397
			c0,0.01-0.009,0.023-0.011,0.034L24.559,23.853z M27.577,26.871l-1.863-1.863c0.179-0.227,0.285-0.481,0.285-0.757
			c0-1.226-1.597-1.563-2.499-1.69v-1.532c0.942,0.104,1.477,0.484,1.504,0.704c0.036,0.274,0.289,0.461,0.56,0.433
			c0.274-0.035,0.468-0.285,0.433-0.559c-0.106-0.833-1.127-1.457-2.497-1.581V19.5c0-0.276-0.224-0.5-0.5-0.5s-0.5,0.224-0.5,0.5
			v0.528c-0.537,0.049-1.012,0.176-1.405,0.361l-1.966-1.966C20.175,17.537,21.525,17,23,17c3.309,0,6,2.691,6,6
			C29,24.475,28.463,25.825,27.577,26.871z M14.5,26H1V9h7.5C8.776,9,9,8.776,9,8.5V1h12v13.5c0,0.276,0.224,0.5,0.5,0.5
			s0.5-0.224,0.5-0.5v-14C22,0.224,21.776,0,21.5,0h-13C8.433,0,8.367,0.014,8.306,0.039c-0.019,0.008-0.033,0.023-0.05,0.034
			c-0.038,0.022-0.078,0.042-0.11,0.073l-8,8C0.123,8.169,0.11,8.2,0.092,8.227c-0.018,0.027-0.041,0.05-0.053,0.08
			C0.014,8.368,0,8.433,0,8.5v18C0,26.776,0.224,27,0.5,27h14c0.276,0,0.5-0.224,0.5-0.5S14.776,26,14.5,26z M8,1.707V8H1.707
			L8,1.707z"/>
	</g>
</g>
</svg>
