<?xml version="1.0" encoding="iso-8859-1"?>
<!-- Generator: Adobe Illustrator 19.0.0, SVG Export Plug-In . SVG Version: 6.00 Build 0)  -->
<svg version="1.1" id="Layer_1" xmlns="http://www.w3.org/2000/svg" xmlns:xlink="http://www.w3.org/1999/xlink" x="0px" y="0px"
	 viewBox="0 0 24 24" style="enable-background:new 0 0 24 24;" xml:space="preserve">
<g>
	<g>
		<g>
			<path d="M18,23c-0.019,0-0.038-0.001-0.057-0.003l-6-0.686c-0.274-0.031-0.472-0.279-0.44-0.553
				c0.031-0.275,0.286-0.473,0.554-0.44l5.493,0.627l0.082-0.878c0.025-0.275,0.272-0.479,0.545-0.451
				c0.274,0.026,0.477,0.27,0.451,0.545l-0.13,1.386c-0.013,0.134-0.079,0.257-0.183,0.341C18.226,22.961,18.114,23,18,23z"/>
		</g>
		<g>
			<path d="M5.871,21.614c-0.02,0-0.038-0.001-0.058-0.003l-5.37-0.614c-0.133-0.015-0.254-0.083-0.336-0.188
				c-0.083-0.105-0.12-0.239-0.104-0.371l2-16C2.037,4.165,2.275,3.97,2.559,4.003l9.5,1.118c0.274,0.032,0.471,0.281,0.438,0.555
				c-0.031,0.274-0.269,0.475-0.555,0.438l-9.007-1.06L1.059,20.061l4.868,0.557c0.274,0.031,0.472,0.279,0.44,0.553
				C6.338,21.426,6.121,21.614,5.871,21.614z"/>
		</g>
	</g>
	<g>
		<path style="fill:none;stroke:#000000;stroke-linecap:round;stroke-linejoin:round;stroke-miterlimit:10;" d="M10.5,4.5"/>
	</g>
	<g>
		<path style="fill:none;stroke:#000000;stroke-linecap:round;stroke-linejoin:round;stroke-miterlimit:10;" d="M13.5,7.5"/>
	</g>
	<g>
		<path d="M14.5,8c-0.128,0-0.256-0.049-0.354-0.146c-0.195-0.195-0.195-0.512,0-0.707l2.5-2.5c0.195-0.195,0.512-0.195,0.707,0
			s0.195,0.512,0,0.707l-2.5,2.5C14.756,7.951,14.628,8,14.5,8z"/>
	</g>
	<g>
		<path d="M6,23c-0.114,0-0.226-0.039-0.315-0.112c-0.104-0.084-0.17-0.208-0.183-0.341l-1.5-16
			c-0.025-0.271,0.17-0.512,0.439-0.543L17.139,4.51c0.269-0.039,0.523,0.164,0.555,0.438c0.033,0.274-0.163,0.523-0.438,0.555
			L5.043,6.939L6.45,21.945l16.491-1.885L21.065,5.055l-0.885,0.104c-0.273,0.034-0.523-0.164-0.555-0.438
			c-0.033-0.274,0.163-0.523,0.438-0.555l1.378-0.162c0.269-0.032,0.521,0.162,0.555,0.435l2,16
			c0.017,0.132-0.021,0.266-0.104,0.371c-0.082,0.105-0.203,0.172-0.336,0.188l-17.5,2C6.038,22.999,6.019,23,6,23z"/>
	</g>
	<g>
		<path d="M18.5,6C17.121,6,16,4.878,16,3.5S17.121,1,18.5,1S21,2.122,21,3.5S19.879,6,18.5,6z M18.5,2C17.673,2,17,2.673,17,3.5
			S17.673,5,18.5,5S20,4.327,20,3.5S19.327,2,18.5,2z"/>
	</g>
</g>
<g>
</g>
<g>
</g>
<g>
</g>
<g>
</g>
<g>
</g>
<g>
</g>
<g>
</g>
<g>
</g>
<g>
</g>
<g>
</g>
<g>
</g>
<g>
</g>
<g>
</g>
<g>
</g>
<g>
</g>
</svg>
