<?xml version="1.0" encoding="iso-8859-1"?>
<!-- Generator: Adobe Illustrator 19.0.0, SVG Export Plug-In . SVG Version: 6.00 Build 0)  -->
<svg version="1.1" id="Layer_1" xmlns="http://www.w3.org/2000/svg" xmlns:xlink="http://www.w3.org/1999/xlink" x="0px" y="0px"
	 viewBox="0 0 24 24" style="enable-background:new 0 0 24 24;" xml:space="preserve">
<g id="XMLID_256_">
	<g id="XMLID_257_">
		<path id="XMLID_557_" d="M23,24c-0.151,0-0.302-0.069-0.4-0.2l-3-4c-0.032-0.043-0.057-0.091-0.074-0.142l-0.935-2.804
			l-3.814-1.907c-0.073-0.037-0.136-0.09-0.184-0.157l-4.656-6.52L8.411,9.796L5.5,15.618V17.5c0,0.133-0.053,0.26-0.146,0.354
			L3.5,19.707V21.5c0,0.133-0.053,0.26-0.146,0.354l-2,2c-0.195,0.195-0.512,0.195-0.707,0s-0.195-0.512,0-0.707L2.5,21.293V19.5
			c0-0.133,0.053-0.26,0.146-0.354L4.5,17.293V15.5c0-0.078,0.019-0.154,0.053-0.224l3-6c0.024-0.048,0.056-0.092,0.094-0.13l2-2
			c0.104-0.104,0.253-0.154,0.395-0.145c0.146,0.012,0.28,0.088,0.366,0.208l4.928,6.899l3.889,1.944
			c0.118,0.06,0.209,0.164,0.251,0.289l0.974,2.923L23.4,23.2c0.165,0.221,0.12,0.534-0.101,0.7C23.21,23.967,23.105,24,23,24z"/>
	</g>
	<g id="XMLID_261_">
		<g id="XMLID_262_">
			<path id="XMLID_556_" d="M10,3C9.724,3,9.5,2.776,9.5,2.5v-2C9.5,0.224,9.724,0,10,0s0.5,0.224,0.5,0.5v2
				C10.5,2.776,10.276,3,10,3z"/>
		</g>
		<g id="XMLID_263_">
			<path id="XMLID_555_" d="M7,3.804c-0.172,0-0.341-0.089-0.433-0.25l-1-1.732C5.429,1.583,5.511,1.277,5.75,1.139
				c0.237-0.137,0.545-0.057,0.683,0.183l1,1.732C7.571,3.293,7.489,3.599,7.25,3.737C7.171,3.782,7.085,3.804,7,3.804z"/>
		</g>
		<g id="XMLID_264_">
			<path id="XMLID_554_" d="M4.804,6c-0.085,0-0.171-0.021-0.25-0.067l-1.731-1C2.583,4.795,2.501,4.489,2.64,4.25
				c0.138-0.24,0.444-0.32,0.683-0.183l1.731,1C5.293,5.205,5.375,5.511,5.236,5.75C5.145,5.911,4.976,6,4.804,6z"/>
		</g>
		<g id="XMLID_265_">
			<path id="XMLID_553_" d="M16.928,13c-0.085,0-0.171-0.021-0.25-0.067l-1.731-1c-0.239-0.138-0.321-0.444-0.183-0.683
				c0.137-0.24,0.443-0.319,0.683-0.183l1.731,1c0.239,0.138,0.321,0.444,0.183,0.683C17.269,12.911,17.1,13,16.928,13z"/>
		</g>
		<g id="XMLID_266_">
			<path id="XMLID_552_" d="M4,9H2C1.724,9,1.5,8.776,1.5,8.5S1.724,8,2,8h2c0.276,0,0.5,0.224,0.5,0.5S4.276,9,4,9z"/>
		</g>
		<g id="XMLID_267_">
			<path id="XMLID_551_" d="M18,9h-2c-0.276,0-0.5-0.224-0.5-0.5S15.724,8,16,8h2c0.276,0,0.5,0.224,0.5,0.5S18.276,9,18,9z"/>
		</g>
		<g id="XMLID_268_">
			<path id="XMLID_550_" d="M3.072,13C2.9,13,2.732,12.911,2.64,12.75c-0.139-0.239-0.057-0.545,0.183-0.683l1.731-1
				c0.238-0.138,0.545-0.057,0.683,0.183c0.139,0.239,0.057,0.545-0.183,0.683l-1.731,1C3.243,12.979,3.157,13,3.072,13z"/>
		</g>
		<g id="XMLID_269_">
			<path id="XMLID_549_" d="M15.196,6c-0.172,0-0.341-0.089-0.433-0.25c-0.139-0.239-0.057-0.545,0.183-0.683l1.731-1
				c0.239-0.139,0.546-0.057,0.683,0.183c0.139,0.239,0.057,0.545-0.183,0.683l-1.731,1C15.367,5.979,15.281,6,15.196,6z"/>
		</g>
		<g id="XMLID_270_">
			<path id="XMLID_548_" d="M13,3.804c-0.085,0-0.171-0.021-0.25-0.067c-0.239-0.138-0.321-0.444-0.183-0.683l1-1.732
				c0.138-0.24,0.444-0.319,0.683-0.183c0.239,0.138,0.321,0.444,0.183,0.683l-1,1.732C13.341,3.714,13.172,3.804,13,3.804z"/>
		</g>
		<g id="XMLID_271_">
			<g id="XMLID_272_">
				<path id="XMLID_547_" d="M13.679,10.559c-0.065,0-0.131-0.013-0.195-0.04c-0.254-0.107-0.373-0.401-0.266-0.655
					c0.56-1.321,0.268-2.828-0.743-3.839c-1.322-1.322-3.627-1.322-4.949,0C6.515,7.036,6.223,8.542,6.782,9.864
					c0.107,0.254-0.012,0.548-0.266,0.655c-0.257,0.107-0.548-0.011-0.656-0.266C5.143,8.556,5.518,6.618,6.818,5.318
					C7.668,4.468,8.798,4,10,4s2.332,0.468,3.182,1.318c1.301,1.3,1.676,3.238,0.958,4.936
					C14.059,10.444,13.873,10.559,13.679,10.559z"/>
			</g>
		</g>
	</g>
	<g id="XMLID_259_">
		<path id="XMLID_546_" d="M12,19c-0.015,0-0.03,0-0.045-0.002c-0.173-0.016-0.325-0.12-0.402-0.274l-1.918-3.836l-3.332-1.428
			c-0.254-0.109-0.371-0.403-0.263-0.656c0.11-0.255,0.405-0.372,0.657-0.263l3.5,1.5c0.108,0.046,0.197,0.13,0.25,0.236
			l1.638,3.276L14.6,14.2c0.167-0.221,0.48-0.265,0.7-0.1c0.221,0.166,0.266,0.479,0.101,0.7l-3,4C12.305,18.927,12.156,19,12,19z"
			/>
	</g>
</g>
<g>
</g>
<g>
</g>
<g>
</g>
<g>
</g>
<g>
</g>
<g>
</g>
<g>
</g>
<g>
</g>
<g>
</g>
<g>
</g>
<g>
</g>
<g>
</g>
<g>
</g>
<g>
</g>
<g>
</g>
</svg>
