<?xml version="1.0" encoding="iso-8859-1"?>
<!-- Generator: Adobe Illustrator 19.0.0, SVG Export Plug-In . SVG Version: 6.00 Build 0)  -->
<svg version="1.1" id="Layer_1" xmlns="http://www.w3.org/2000/svg" xmlns:xlink="http://www.w3.org/1999/xlink" x="0px" y="0px"
	 viewBox="0 0 24 24" style="enable-background:new 0 0 24 24;" xml:space="preserve">
<g>
	<path d="M19.5,0H5.059c-0.276,0-0.5,0.224-0.5,0.5S4.782,1,5.059,1c1.509,0,2.843,0.962,3.32,2.391l0.088,0.267
		c0.067,0.205,0.259,0.344,0.475,0.344L20.5,4c0.266,0,0.543,0.04,0.874,0.126c0.042,0.011,0.084,0.016,0.126,0.016
		c0.109,0,0.218-0.036,0.306-0.104C21.929,3.943,22,3.797,22,3.642V2.5C22,1.122,20.879,0,19.5,0z"/>
	<path d="M20.5,5H8.941C8.295,5,7.723,4.588,7.519,3.975L7.431,3.709C7.089,2.687,6.136,2,5.059,2H2.5C1.121,2,0,3.122,0,4.5v12
		C0,17.878,1.121,19,2.5,19h2C4.776,19,5,18.776,5,18.5c0-3.584,2.916-6.5,6.5-6.5s6.5,2.916,6.5,6.5c0,0.276,0.224,0.5,0.5,0.5h2
		c1.379,0,2.5-1.122,2.5-2.5v-9C23,6.122,21.879,5,20.5,5z"/>
	<g>
		<path d="M11.5,13C8.468,13,6,15.467,6,18.5S8.468,24,11.5,24s5.5-2.467,5.5-5.5S14.532,13,11.5,13z M13.777,18.916l-3,2
			C10.693,20.972,10.597,21,10.5,21c-0.081,0-0.162-0.02-0.236-0.059C10.102,20.854,10,20.685,10,20.5v-4
			c0-0.185,0.102-0.354,0.264-0.441c0.163-0.086,0.358-0.077,0.514,0.025l3,2C13.916,18.177,14,18.333,14,18.5
			S13.916,18.823,13.777,18.916z"/>
	</g>
</g>
<g>
</g>
<g>
</g>
<g>
</g>
<g>
</g>
<g>
</g>
<g>
</g>
<g>
</g>
<g>
</g>
<g>
</g>
<g>
</g>
<g>
</g>
<g>
</g>
<g>
</g>
<g>
</g>
<g>
</g>
</svg>
