<?xml version="1.0" encoding="utf-8"?>
<!-- Generator: Adobe Illustrator 19.0.0, SVG Export Plug-In . SVG Version: 6.00 Build 0)  -->
<svg version="1.1" id="Layer_1" xmlns="http://www.w3.org/2000/svg" xmlns:xlink="http://www.w3.org/1999/xlink" x="0px" y="0px"
	 viewBox="0 0 30 30" style="enable-background:new 0 0 30 30;" xml:space="preserve">
<g>
	<g>
		<path d="M29.5,28h-29C0.2,28,0,27.8,0,27.5v-25C0,2.2,0.2,2,0.5,2h29C29.8,2,30,2.2,30,2.5v25C30,27.8,29.8,28,29.5,28z M1,27h28
			V3H1V27z"/>
	</g>
	<g>
		<path d="M23.5,23h-17C6.2,23,6,22.8,6,22.5v-15C6,7.2,6.2,7,6.5,7h17C23.8,7,24,7.2,24,7.5v15C24,22.8,23.8,23,23.5,23z M7,22h16
			V8H7V22z"/>
	</g>
	<g>
		<path d="M25.5,23.1c-0.1,0-0.3-0.1-0.3-0.1C25,22.9,25,22.8,25,22.6l0-15.1C25,7.2,25.2,7,25.5,7h4C29.8,7,30,7.2,30,7.5
			S29.8,8,29.5,8H26l0,14.1l3-0.1c0.3,0,0.5,0.2,0.5,0.5c0,0.3-0.2,0.5-0.5,0.5L25.5,23.1C25.5,23.1,25.5,23.1,25.5,23.1z"/>
	</g>
	<g>
		<path d="M4.5,23H1c-0.3,0-0.5-0.2-0.5-0.5S0.7,22,1,22h3V8H0.5C0.2,8,0,7.8,0,7.5S0.2,7,0.5,7h4C4.8,7,5,7.2,5,7.5v15
			C5,22.8,4.8,23,4.5,23z"/>
	</g>
	<g>
		<path d="M2.5,25h-2C0.2,25,0,24.8,0,24.5S0.2,24,0.5,24h2C2.8,24,3,24.2,3,24.5S2.8,25,2.5,25z"/>
	</g>
	<g>
		<path d="M9.5,25h-3C6.2,25,6,24.8,6,24.5S6.2,24,6.5,24h3c0.3,0,0.5,0.2,0.5,0.5S9.8,25,9.5,25z"/>
	</g>
	<g>
		<path d="M16.5,25h-3c-0.3,0-0.5-0.2-0.5-0.5s0.2-0.5,0.5-0.5h3c0.3,0,0.5,0.2,0.5,0.5S16.8,25,16.5,25z"/>
	</g>
	<g>
		<path d="M23.5,25h-3c-0.3,0-0.5-0.2-0.5-0.5s0.2-0.5,0.5-0.5h3c0.3,0,0.5,0.2,0.5,0.5S23.8,25,23.5,25z"/>
	</g>
	<g>
		<path d="M29.5,25h-2c-0.3,0-0.5-0.2-0.5-0.5s0.2-0.5,0.5-0.5h2c0.3,0,0.5,0.2,0.5,0.5S29.8,25,29.5,25z"/>
	</g>
	<g>
		<path d="M2.5,6h-2C0.2,6,0,5.8,0,5.5S0.2,5,0.5,5h2C2.8,5,3,5.2,3,5.5S2.8,6,2.5,6z"/>
	</g>
	<g>
		<path d="M9.5,6h-3C6.2,6,6,5.8,6,5.5S6.2,5,6.5,5h3C9.8,5,10,5.2,10,5.5S9.8,6,9.5,6z"/>
	</g>
	<g>
		<path d="M16.5,6h-3C13.2,6,13,5.8,13,5.5S13.2,5,13.5,5h3C16.8,5,17,5.2,17,5.5S16.8,6,16.5,6z"/>
	</g>
	<g>
		<path d="M23.5,6h-3C20.2,6,20,5.8,20,5.5S20.2,5,20.5,5h3C23.8,5,24,5.2,24,5.5S23.8,6,23.5,6z"/>
	</g>
	<g>
		<path d="M29.5,6h-2C27.2,6,27,5.8,27,5.5S27.2,5,27.5,5h2C29.8,5,30,5.2,30,5.5S29.8,6,29.5,6z"/>
	</g>
</g>
</svg>
