<?xml version="1.0" encoding="utf-8"?>
<!-- Generator: Adobe Illustrator 19.0.0, SVG Export Plug-In . SVG Version: 6.00 Build 0)  -->
<svg version="1.1" id="Layer_1" xmlns="http://www.w3.org/2000/svg" xmlns:xlink="http://www.w3.org/1999/xlink" x="0px" y="0px"
	 viewBox="0 0 30 30" style="enable-background:new 0 0 30 30;" xml:space="preserve">
<g>
	<g>
		<path d="M13.5,21.5h-3c-0.3,0-0.5-0.2-0.5-0.5V10c0-0.3,0.2-0.5,0.5-0.5h3c0.3,0,0.5,0.2,0.5,0.5v11C14,21.3,13.8,21.5,13.5,21.5z
			 M11,20.5h2v-10h-2V20.5z"/>
	</g>
	<g>
		<path d="M19.5,21.5h-3c-0.3,0-0.5-0.2-0.5-0.5V10c0-0.3,0.2-0.5,0.5-0.5h3c0.3,0,0.5,0.2,0.5,0.5v11C20,21.3,19.8,21.5,19.5,21.5z
			 M17,20.5h2v-10h-2V20.5z"/>
	</g>
	<g>
		<path d="M23.5,27.5h-17C2.9,27.5,0,24.6,0,21V9c0-3.6,2.9-6.5,6.5-6.5h17C27.1,2.5,30,5.4,30,9v12C30,24.6,27.1,27.5,23.5,27.5z
			 M6.5,3.5C3.5,3.5,1,6,1,9v12c0,3,2.5,5.5,5.5,5.5h17c3,0,5.5-2.5,5.5-5.5V9c0-3-2.5-5.5-5.5-5.5H6.5z"/>
	</g>
</g>
</svg>
