<?xml version="1.0" encoding="utf-8"?>
<!-- Generator: Adobe Illustrator 19.0.0, SVG Export Plug-In . SVG Version: 6.00 Build 0)  -->
<svg version="1.1" id="Layer_1" xmlns="http://www.w3.org/2000/svg" xmlns:xlink="http://www.w3.org/1999/xlink" x="0px" y="0px"
	 viewBox="3 -3 30 30" style="enable-background:new 3 -3 30 30;" xml:space="preserve">
<g>
	<path d="M32.5,24H6V-2.5C6-2.8,5.8-3,5.5-3S5-2.8,5-2.5V24H3.5C3.2,24,3,24.2,3,24.5S3.2,25,3.5,25H5v1.5C5,26.8,5.2,27,5.5,27
		S6,26.8,6,26.5V25h26.5c0.3,0,0.5-0.2,0.5-0.5S32.8,24,32.5,24z"/>
	<path d="M9.5,21h4c0.3,0,0.5-0.2,0.5-0.5v-12C14,8.2,13.8,8,13.5,8h-4C9.2,8,9,8.2,9,8.5v12C9,20.8,9.2,21,9.5,21z"/>
	<path d="M25.5,21h4c0.3,0,0.5-0.2,0.5-0.5v-16C30,4.2,29.8,4,29.5,4h-4C25.2,4,25,4.2,25,4.5v16C25,20.8,25.2,21,25.5,21z"/>
	<path d="M17.5,21h4c0.3,0,0.5-0.2,0.5-0.5v-22C22-1.8,21.8-2,21.5-2h-4C17.2-2,17-1.8,17-1.5v22C17,20.8,17.2,21,17.5,21z"/>
</g>
</svg>
