<?xml version="1.0" encoding="utf-8"?>
<!-- Generator: Adobe Illustrator 19.0.0, SVG Export Plug-In . SVG Version: 6.00 Build 0)  -->
<svg version="1.1" id="Layer_1" xmlns="http://www.w3.org/2000/svg" xmlns:xlink="http://www.w3.org/1999/xlink" x="0px" y="0px"
	 viewBox="3 -3 30 30" style="enable-background:new 3 -3 30 30;" xml:space="preserve">
<g>
	<path d="M10.5,12c0,4.1,3.4,7.5,7.5,7.5s7.5-3.4,7.5-7.5S22.1,4.5,18,4.5S10.5,7.9,10.5,12z"/>
	<path d="M24.4,17.6l4.2,4.2c2.3-2.5,3.8-5.8,3.9-9.4h-6C26.4,14.5,25.6,16.2,24.4,17.6z"/>
	<path d="M26.5,11.5h6c-0.3-7.6-6.4-13.7-14-14v6C22.8,3.8,26.2,7.2,26.5,11.5z"/>
	<path d="M18.1,20.5c-4.7,0-8.5-3.8-8.5-8.5c0-4.5,3.5-8.2,8-8.5v-6C9.7-2.2,3.5,4.2,3.5,12c0,8,6.5,14.5,14.5,14.5
		c3.8,0,7.3-1.5,9.9-3.9l-4.2-4.3C22.2,19.6,20.2,20.5,18.1,20.5z"/>
</g>
</svg>
