<?xml version="1.0" encoding="utf-8"?>
<!-- Generator: Adobe Illustrator 19.0.0, SVG Export Plug-In . SVG Version: 6.00 Build 0)  -->
<svg version="1.1" id="Layer_1" xmlns="http://www.w3.org/2000/svg" xmlns:xlink="http://www.w3.org/1999/xlink" x="0px" y="0px"
	 viewBox="3 -3 30 30" style="enable-background:new 3 -3 30 30;" xml:space="preserve">
<g>
	<path d="M6,12.5H4c-0.3,0-0.5,0.2-0.5,0.5s0.2,0.5,0.5,0.5h2c0.3,0,0.5-0.2,0.5-0.5S6.3,12.5,6,12.5z"/>
	<path d="M32,12.5h-2c-0.3,0-0.5,0.2-0.5,0.5s0.2,0.5,0.5,0.5h2c0.3,0,0.5-0.2,0.5-0.5S32.3,12.5,32,12.5z"/>
	<path d="M18,8.5c0.3,0,0.5-0.2,0.5-0.5V0c0-0.3-0.2-0.5-0.5-0.5S17.5-0.3,17.5,0v8C17.5,8.3,17.7,8.5,18,8.5z"/>
	<path d="M19,12.5h-0.5V12c0-0.3-0.2-0.5-0.5-0.5s-0.5,0.2-0.5,0.5v0.5H17c-0.3,0-0.5,0.2-0.5,0.5s0.2,0.5,0.5,0.5h0.5V24
		c0,0.3,0.2,0.5,0.5,0.5s0.5-0.2,0.5-0.5V13.5H19c0.3,0,0.5-0.2,0.5-0.5S19.3,12.5,19,12.5z"/>
	<path d="M31,10.5c0.3,0,0.5-0.2,0.5-0.5S31.3,9.5,31,9.5c-1.9,0-2.7,1.7-3.5,3.3c-0.8,1.7-1.4,2.7-2.5,2.7c-1.3,0-2.2-1.3-3.1-2.8
		c-1-1.6-2.1-3.2-3.9-3.2c-1.9,0-2.8,1.7-3.7,3.3c-0.8,1.4-1.5,2.7-2.8,2.7s-2-1.3-2.8-2.7C7.8,11.2,6.9,9.5,5,9.5
		c-0.3,0-0.5,0.2-0.5,0.5s0.2,0.5,0.5,0.5c1.3,0,2,1.3,2.8,2.7c0.9,1.5,1.8,3.3,3.7,3.3s2.8-1.7,3.7-3.3c0.8-1.4,1.5-2.7,2.8-2.7
		s2.2,1.3,3.1,2.8c1,1.6,2.1,3.2,3.9,3.2c1.9,0,2.7-1.7,3.5-3.3C29.3,11.5,29.8,10.5,31,10.5z"/>
	<path d="M24,13.5h2c0.3,0,0.5-0.2,0.5-0.5s-0.2-0.5-0.5-0.5h-2c-0.3,0-0.5,0.2-0.5,0.5S23.7,13.5,24,13.5z"/>
	<path d="M10,13.5h3c0.3,0,0.5-0.2,0.5-0.5s-0.2-0.5-0.5-0.5h-3c-0.3,0-0.5,0.2-0.5,0.5S9.7,13.5,10,13.5z"/>
</g>
</svg>
