<?xml version="1.0" encoding="utf-8"?>
<!-- Generator: Adobe Illustrator 19.0.0, SVG Export Plug-In . SVG Version: 6.00 Build 0)  -->
<svg version="1.1" id="Layer_1" xmlns="http://www.w3.org/2000/svg" xmlns:xlink="http://www.w3.org/1999/xlink" x="0px" y="0px"
	 viewBox="0 0 30 30" style="enable-background:new 0 0 30 30;" xml:space="preserve">
<style type="text/css">
	.st0{fill:none;stroke:#000000;stroke-linecap:round;stroke-linejoin:round;stroke-miterlimit:10;}
</style>
<g>
	<g>
		<path d="M15,13.5c-5.7,0-6-1.7-6-4.5c0-2.5,1.1-9,6-9s6,6.7,6,9.3C21,12.3,20.5,13.5,15,13.5z M15,1c-4.1,0-5,5.8-5,8
			c0,2.4,0,3.5,5,3.5s5-0.9,5-3.3C20,7.1,19.1,1,15,1z"/>
	</g>
	<g>
		<path d="M13.5,16c-0.3,0-0.5-0.2-0.5-0.5V13c0-0.3,0.2-0.5,0.5-0.5S14,12.7,14,13v2.5C14,15.8,13.8,16,13.5,16z"/>
	</g>
	<g>
		<path class="st0" d="M16.8,13"/>
	</g>
	<g>
		<path d="M16.5,16c-0.3,0-0.5-0.2-0.5-0.5V13c0-0.3,0.2-0.5,0.5-0.5S17,12.7,17,13v2.5C17,15.8,16.8,16,16.5,16z"/>
	</g>
	<g>
		<path d="M13,27c0,0-0.1,0-0.1,0c-0.3-0.1-0.4-0.3-0.4-0.6l1.5-7c0.1-0.3,0.3-0.4,0.6-0.4c0.3,0.1,0.4,0.3,0.4,0.6l-1.5,7
			C13.4,26.8,13.2,27,13,27z"/>
	</g>
	<g>
		<path d="M17,27c-0.2,0-0.4-0.2-0.5-0.4l-1.5-7c-0.1-0.3,0.1-0.5,0.4-0.6c0.3-0.1,0.5,0.1,0.6,0.4l1.5,7c0.1,0.3-0.1,0.5-0.4,0.6
			C17.1,27,17,27,17,27z"/>
	</g>
	<g>
		<path d="M20.5,27h-11C9.2,27,9,26.8,9,26.5S9.2,26,9.5,26h11c0.3,0,0.5,0.2,0.5,0.5S20.8,27,20.5,27z"/>
	</g>
	<g>
		<path d="M20.5,20c-0.3,0-0.5-0.2-0.5-0.5s0.2-0.5,0.5-0.5c1.9,0,3.5-1.6,3.5-3.5v-5c0-0.3,0.2-0.5,0.5-0.5s0.5,0.2,0.5,0.5v5
			C25,17.9,22.9,20,20.5,20z"/>
	</g>
	<g>
		<path d="M25.5,11h-2c-0.3,0-0.5-0.2-0.5-0.5s0.2-0.5,0.5-0.5h2c0.3,0,0.5,0.2,0.5,0.5S25.8,11,25.5,11z"/>
	</g>
	<g>
		<path d="M9.5,20C7.1,20,5,17.9,5,15.5v-5C5,10.2,5.2,10,5.5,10S6,10.2,6,10.5v5C6,17.4,7.6,19,9.5,19c0.3,0,0.5,0.2,0.5,0.5
			S9.8,20,9.5,20z"/>
	</g>
	<g>
		<path d="M6.5,11h-2C4.2,11,4,10.8,4,10.5S4.2,10,4.5,10h2C6.8,10,7,10.2,7,10.5S6.8,11,6.5,11z"/>
	</g>
	<g>
		<path d="M20.5,20h-11C8.1,20,7,18.9,7,17.5S8.1,15,9.5,15h11c1.4,0,2.5,1.1,2.5,2.5S21.9,20,20.5,20z M9.5,16
			C8.7,16,8,16.7,8,17.5S8.7,19,9.5,19h11c0.8,0,1.5-0.7,1.5-1.5S21.3,16,20.5,16H9.5z"/>
	</g>
	<g>
		<path d="M9,30c-1.1,0-2-0.9-2-2s0.9-2,2-2s2,0.9,2,2S10.1,30,9,30z M9,27c-0.6,0-1,0.4-1,1s0.4,1,1,1s1-0.4,1-1S9.6,27,9,27z"/>
	</g>
	<g>
		<path d="M20.5,30c-1.1,0-2-0.9-2-2s0.9-2,2-2s2,0.9,2,2S21.6,30,20.5,30z M20.5,27c-0.6,0-1,0.4-1,1s0.4,1,1,1s1-0.4,1-1
			S21.1,27,20.5,27z"/>
	</g>
	<g>
		<path d="M15,30c-1.1,0-2-0.9-2-2s0.9-2,2-2s2,0.9,2,2S16.1,30,15,30z M15,27c-0.6,0-1,0.4-1,1s0.4,1,1,1s1-0.4,1-1S15.6,27,15,27z
			"/>
	</g>
</g>
</svg>
