<?xml version="1.0" encoding="iso-8859-1"?>
<!-- Generator: Adobe Illustrator 19.0.0, SVG Export Plug-In . SVG Version: 6.00 Build 0)  -->
<svg version="1.1" id="Layer_1" xmlns="http://www.w3.org/2000/svg" xmlns:xlink="http://www.w3.org/1999/xlink" x="0px" y="0px"
	 viewBox="0 0 24 24" style="enable-background:new 0 0 24 24;" xml:space="preserve">
<g>
	<g>
		<path d="M21.869,2.856C22.061,2.946,22.274,3,22.5,3C23.327,3,24,2.327,24,1.5C24,0.673,23.327,0,22.5,0C21.673,0,21,0.673,21,1.5
			c0,0.226,0.054,0.439,0.144,0.631l-3.983,2.424C12.808,0.651,8.319-1.027,6.63,0.662C6.564,0.728,6.516,0.807,6.46,0.881
			C6.446,0.895,6.426,0.904,6.413,0.92C4.79,3.007,4,5.323,4,8c0,3.067,1.166,5.86,3.066,7.984L5.155,21H0.5
			C0.224,21,0,21.224,0,21.5v2C0,23.776,0.224,24,0.5,24h15c0.276,0,0.5-0.224,0.5-0.5v-2c0-0.276-0.224-0.5-0.5-0.5h-4.654
			l-1.03-2.736C11.624,19.358,13.736,20,16,20c2.669,0,4.998-0.798,7.117-2.44c0.016-0.012,0.023-0.032,0.037-0.046
			c0.061-0.048,0.128-0.089,0.183-0.144c1.698-1.698,0.022-6.192-3.892-10.532L21.869,2.856z M7.442,4.669
			C7.439,4.66,7.436,4.652,7.432,4.643C7.358,4.451,7.295,4.266,7.238,4.085C7.217,4.017,7.199,3.951,7.18,3.884
			C7.147,3.77,7.118,3.658,7.093,3.55C7.067,3.435,7.045,3.323,7.027,3.214C7.018,3.162,7.009,3.11,7.002,3.059
			C6.983,2.916,6.97,2.777,6.967,2.646c0-0.012-0.001-0.024-0.001-0.036C6.959,2.157,7.045,1.787,7.229,1.519
			c0-0.001,0-0.001,0.001-0.002c0.035-0.05,0.065-0.106,0.107-0.148c1.087-1.088,4.878,0.173,8.931,3.73L9.954,8.943
			C8.778,7.404,7.927,5.923,7.442,4.669z M22.63,16.663c-0.034,0.034-0.08,0.056-0.118,0.085c-0.002,0.001-0.004,0.002-0.006,0.003
			c-0.56,0.41-1.697,0.366-3.184-0.198c-1.252-0.486-2.728-1.335-4.264-2.508l3.844-6.315C22.467,11.772,23.726,15.567,22.63,16.663
			z"/>
	</g>
</g>
</svg>
