<?xml version="1.0" encoding="iso-8859-1"?>
<!-- Generator: Adobe Illustrator 19.0.0, SVG Export Plug-In . SVG Version: 6.00 Build 0)  -->
<svg version="1.1" id="Layer_1" xmlns="http://www.w3.org/2000/svg" xmlns:xlink="http://www.w3.org/1999/xlink" x="0px" y="0px"
	 viewBox="0 0 24 24" style="enable-background:new 0 0 24 24;" xml:space="preserve">
<g>
	<g>
		<path d="M8.75,11.367c0.211,0,0.408-0.135,0.476-0.347l1.84-5.711c0.041-0.126,0.029-0.263-0.031-0.381
			c-0.06-0.118-0.166-0.207-0.292-0.248L2.499,2.024C2.236,1.941,1.954,2.084,1.87,2.347L0.03,8.058
			c-0.041,0.126-0.029,0.263,0.031,0.381c0.06,0.118,0.166,0.207,0.292,0.248l8.244,2.656C8.647,11.359,8.699,11.367,8.75,11.367z
			 M23.939,11.184c-0.061-0.118-0.166-0.208-0.292-0.248L19.246,9.52c-0.264-0.083-0.544,0.06-0.629,0.323l-0.613,1.903
			c-0.041,0.126-0.029,0.264,0.031,0.381c0.061,0.118,0.166,0.208,0.292,0.248l4.401,1.417c0.051,0.016,0.103,0.024,0.153,0.024
			c0.211,0,0.408-0.135,0.476-0.347l0.613-1.904C24.011,11.439,24,11.302,23.939,11.184z M17.649,7.956L12.34,6.245
			c-0.125-0.04-0.263-0.029-0.381,0.031s-0.207,0.166-0.248,0.292l-1.227,3.808c-0.084,0.263,0.06,0.544,0.323,0.629l0.129,0.041
			l-3.89,9.26c-0.107,0.255,0.013,0.548,0.267,0.655C7.376,20.987,7.441,21,7.506,21c0.195,0,0.38-0.115,0.461-0.306l3.035-7.223
			l0.004,8.029c0,0.276,0.224,0.5,0.5,0.5s0.5-0.224,0.5-0.5l-0.004-8.029l3.044,7.223c0.08,0.191,0.265,0.306,0.46,0.306
			c0.065,0,0.131-0.013,0.194-0.039c0.254-0.107,0.374-0.4,0.267-0.655l-3.724-8.839l3.873,1.248
			c0.051,0.016,0.103,0.024,0.153,0.024c0.211,0,0.408-0.135,0.476-0.347l1.227-3.807C18.056,8.322,17.912,8.041,17.649,7.956z"/>
	</g>
</g>
</svg>
