<?xml version="1.0" encoding="iso-8859-1"?>
<!-- Generator: Adobe Illustrator 19.0.0, SVG Export Plug-In . SVG Version: 6.00 Build 0)  -->
<svg version="1.1" id="Layer_1" xmlns="http://www.w3.org/2000/svg" xmlns:xlink="http://www.w3.org/1999/xlink" x="0px" y="0px"
	 viewBox="0 0 24 24" style="enable-background:new 0 0 24 24;" xml:space="preserve">
<g>
	<g>
		<path d="M6.568,8.951c0.256,0.063,0.544,0.095,0.858,0.095c2.716,0,7.593-2.54,8.543-4.911c0.259-0.648,0.181-1.309-0.228-1.912
			c-0.889-1.314-3.267-2.127-4.959-2.127c-3.033,0-5.5,2.467-5.5,5.5v0.171C5.279,6.907,5.274,8.63,6.568,8.951z M8.323,2.917
			c0.193-0.198,0.509-0.202,0.707-0.01C9.228,3.1,9.232,3.416,9.04,3.614C8.539,4.13,8.262,4.809,8.262,5.528
			c0,0.276-0.224,0.5-0.5,0.5s-0.5-0.224-0.5-0.5C7.262,4.547,7.639,3.62,8.323,2.917z M17.513,10.364
			c1.717-1.123,3.203-2.335,4.329-3.548c1.894-2.039,2.569-3.884,1.901-5.195c-0.541-1.061-1.873-1.622-3.851-1.622
			c-1.007,0-2.154,0.144-3.407,0.427c-0.173,0.04-0.3,0.183-0.354,0.352c-0.053,0.17,0.001,0.37,0.121,0.501
			c0.113,0.124,0.227,0.246,0.318,0.382c0.594,0.878,0.71,1.888,0.328,2.844c-1.122,2.801-6.372,5.54-9.472,5.54
			c-0.394,0-0.764-0.042-1.098-0.125C5.212,9.644,4.569,8.797,4.364,7.331C4.339,7.149,4.216,6.996,4.043,6.932
			C3.871,6.868,3.678,6.904,3.54,7.024c-2.904,2.541-4.101,4.917-3.283,6.521c0.542,1.065,1.875,1.628,3.852,1.628
			c1.934,0,4.4-0.558,6.962-1.531l1.429,9.929C12.536,23.82,12.75,24,12.995,24c0.023,0,0.047-0.001,0.072-0.005
			c0.273-0.04,0.463-0.293,0.424-0.566l-1.464-10.167c0.771-0.322,1.546-0.672,2.314-1.063c0.796-0.406,1.563-0.836,2.296-1.282
			c0.013,0.014,0.021,0.033,0.036,0.046l6.5,5.5c0.094,0.079,0.208,0.118,0.322,0.118c0.142,0,0.283-0.06,0.382-0.177
			c0.178-0.21,0.152-0.526-0.059-0.705L17.513,10.364z"/>
	</g>
</g>
</svg>
