<?xml version="1.0" encoding="utf-8"?>
<!-- Generator: Adobe Illustrator 19.0.0, SVG Export Plug-In . SVG Version: 6.00 Build 0)  -->
<svg version="1.1" id="Layer_1" xmlns="http://www.w3.org/2000/svg" xmlns:xlink="http://www.w3.org/1999/xlink" x="0px" y="0px"
	 viewBox="0 0 30 30" style="enable-background:new 0 0 30 30;" xml:space="preserve">
<style type="text/css">
	.st0{fill:none;stroke:#000000;stroke-linecap:round;stroke-linejoin:round;stroke-miterlimit:10;}
</style>
<g>
	<g>
		<path class="st0" d="M19.8,11.7"/>
	</g>
	<g>
		<path class="st0" d="M7.3,11.7"/>
	</g>
	<g>
		<path d="M14,20C10.3,20,4.2,7.2,3.5,5.7c-0.1-0.2-0.1-0.3,0-0.5C3.7,5.1,3.8,5,4,5h20c0.2,0,0.3,0.1,0.4,0.2
			c0.1,0.1,0.1,0.3,0,0.5C23.8,7.2,17.7,20,14,20z M4.8,6c2.6,5.3,7,13,9.2,13c2.2,0,6.7-7.7,9.2-13H4.8z"/>
	</g>
	<g>
		<path d="M14,30c-0.3,0-0.5-0.2-0.5-0.5v-10c0-0.3,0.2-0.5,0.5-0.5s0.5,0.2,0.5,0.5v10C14.5,29.8,14.3,30,14,30z"/>
	</g>
	<g>
		<path d="M19,30H9c-0.3,0-0.5-0.2-0.5-0.5S8.7,29,9,29h10c0.3,0,0.5,0.2,0.5,0.5S19.3,30,19,30z"/>
	</g>
	<g>
		<path d="M13.5,13.5c-0.1,0-0.3,0-0.4-0.1c-0.2-0.2-0.2-0.5,0-0.7L25.6,0.1c0.2-0.2,0.5-0.2,0.7,0s0.2,0.5,0,0.7L13.9,13.4
			C13.8,13.5,13.6,13.5,13.5,13.5z"/>
	</g>
	<g>
		<path d="M13,16c-1.4,0-2.5-1.1-2.5-2.5S11.6,11,13,11s2.5,1.1,2.5,2.5S14.4,16,13,16z M13,12c-0.8,0-1.5,0.7-1.5,1.5
			S12.2,15,13,15s1.5-0.7,1.5-1.5S13.8,12,13,12z"/>
	</g>
	<g>
		<path d="M21.5,10h-15C6.2,10,6,9.8,6,9.5S6.2,9,6.5,9h15C21.8,9,22,9.2,22,9.5S21.8,10,21.5,10z"/>
	</g>
</g>
</svg>
