<?xml version="1.0" encoding="iso-8859-1"?>
<!-- Generator: Adobe Illustrator 19.0.0, SVG Export Plug-In . SVG Version: 6.00 Build 0)  -->
<svg version="1.1" id="Layer_1" xmlns="http://www.w3.org/2000/svg" xmlns:xlink="http://www.w3.org/1999/xlink" x="0px" y="0px"
	 viewBox="0 0 30 30" style="enable-background:new 0 0 30 30;" xml:space="preserve">
<g>
	<g>
		<path d="M22.276,10.053L19,11.691V10.5c0-0.133-0.052-0.261-0.147-0.355C18.759,10.052,18.632,10,18.5,10h-0.004
			c-0.851,0.004-8.724,0-8.724,0C8.373,10,8,13.143,8,15s0.373,5,1.772,5H18.5c0.273,0,0.496-0.22,0.5-0.493
			c0.003-0.215,0.003-0.739,0.002-1.197l3.274,1.637C22.347,19.982,22.424,20,22.5,20c0.092,0,0.183-0.025,0.262-0.075
			c0.147-0.091,0.237-0.252,0.237-0.425v-9c0-0.173-0.09-0.334-0.237-0.425C22.615,9.983,22.43,9.975,22.276,10.053z M21.999,18.69
			l-3.276-1.638c-0.155-0.078-0.34-0.07-0.487,0.022c-0.147,0.092-0.237,0.253-0.236,0.427c0,0,0.003,0.881,0.003,1.499
			l-8.187,0.008C9.576,18.883,9,17.551,9,15c0-2.551,0.576-3.883,0.772-4c0,0,6.267,0.005,8.228,0v1.499
			c0,0.173,0.09,0.334,0.237,0.425c0.146,0.09,0.33,0.099,0.486,0.022l3.276-1.638V18.69z M26.5,0h-23C1.57,0,0,1.57,0,3.5v23
			C0,28.43,1.57,30,3.5,30h23c1.93,0,3.5-1.57,3.5-3.5v-23C30,1.57,28.43,0,26.5,0z M29,26.5c0,1.378-1.121,2.5-2.5,2.5h-23
			C2.121,29,1,27.878,1,26.5v-23C1,2.122,2.121,1,3.5,1h23C27.879,1,29,2.122,29,3.5V26.5z"/>
	</g>
</g>
</svg>
