<?xml version="1.0" encoding="iso-8859-1"?>
<!-- Generator: Adobe Illustrator 19.0.0, SVG Export Plug-In . SVG Version: 6.00 Build 0)  -->
<svg version="1.1" id="Layer_1" xmlns="http://www.w3.org/2000/svg" xmlns:xlink="http://www.w3.org/1999/xlink" x="0px" y="0px"
	 viewBox="-467 269 24 24" style="enable-background:new -467 269 24 24;" xml:space="preserve">
<g id="brifcase_1_">
	<g>
		<path d="M-451.5,275h-7c-0.276,0-0.5-0.224-0.5-0.5v-2c0-0.827,0.673-1.5,1.5-1.5h5c0.827,0,1.5,0.673,1.5,1.5v2
			C-451,274.776-451.224,275-451.5,275z M-458,274h6v-1.5c0-0.276-0.224-0.5-0.5-0.5h-5c-0.276,0-0.5,0.224-0.5,0.5V274z"/>
	</g>
	<g>
		<path d="M-466.848,279.943l8.298,2.165c2.322,0.606,4.778,0.606,7.099,0l8.299-2.165c0.051-0.013,0.102-0.01,0.152-0.008V275.5
			c0-0.827-0.673-1.5-1.5-1.5h-21c-0.827,0-1.5,0.673-1.5,1.5v4.435C-466.95,279.933-466.899,279.93-466.848,279.943z M-455,278
			c1.103,0,2,0.897,2,2s-0.897,2-2,2s-2-0.897-2-2S-456.103,278-455,278z"/>
		<path d="M-451.188,283.116c-1.247,0.325-2.529,0.488-3.812,0.488s-2.565-0.162-3.813-0.488L-467,280.98v8.52
			c0,0.827,0.673,1.5,1.5,1.5h21c0.827,0,1.5-0.673,1.5-1.5v-8.52L-451.188,283.116z"/>
		<circle cx="-455" cy="280" r="1"/>
	</g>
</g>
</svg>
