<?xml version="1.0" encoding="iso-8859-1"?>
<!-- Generator: Adobe Illustrator 19.0.0, SVG Export Plug-In . SVG Version: 6.00 Build 0)  -->
<svg version="1.1" id="Layer_1" xmlns="http://www.w3.org/2000/svg" xmlns:xlink="http://www.w3.org/1999/xlink" x="0px" y="0px"
	 viewBox="-467 269 24 24" style="enable-background:new -467 269 24 24;" xml:space="preserve">
<g>
	<path d="M-449.5,269h-11c-1.93,0-3.5,1.57-3.5,3.5v17c0,1.93,1.57,3.5,3.5,3.5h11c1.93,0,3.5-1.57,3.5-3.5v-17
		C-446,270.57-447.57,269-449.5,269z M-449,277.5c0,0.276-0.225,0.5-0.5,0.5h-11c-0.275,0-0.5-0.224-0.5-0.5v-5
		c0-0.276,0.225-0.5,0.5-0.5h11c0.275,0,0.5,0.224,0.5,0.5V277.5z M-457.084,289.223c0.153,0.23,0.091,0.54-0.139,0.693
		c-0.085,0.057-0.181,0.084-0.277,0.084c-0.161,0-0.319-0.078-0.416-0.223l-0.584-0.876l-0.584,0.876
		c-0.097,0.145-0.255,0.223-0.416,0.223c-0.096,0-0.192-0.027-0.277-0.084c-0.229-0.153-0.292-0.463-0.139-0.693l0.815-1.223
		l-0.815-1.223c-0.153-0.23-0.091-0.54,0.139-0.693c0.227-0.153,0.539-0.092,0.693,0.139l0.584,0.876l0.584-0.876
		c0.154-0.231,0.466-0.292,0.693-0.139c0.229,0.153,0.292,0.463,0.139,0.693l-0.815,1.223L-457.084,289.223z M-456.5,283h-1.5v1.5
		c0,0.276-0.224,0.5-0.5,0.5s-0.5-0.224-0.5-0.5V283h-1.5c-0.276,0-0.5-0.224-0.5-0.5s0.224-0.5,0.5-0.5h1.5v-1.5
		c0-0.276,0.224-0.5,0.5-0.5s0.5,0.224,0.5,0.5v1.5h1.5c0.276,0,0.5,0.224,0.5,0.5S-456.224,283-456.5,283z M-450.223,289.916
		c-0.085,0.057-0.181,0.084-0.277,0.084c-0.161,0-0.319-0.078-0.416-0.223l-2-3c-0.153-0.23-0.091-0.54,0.139-0.693
		c0.227-0.153,0.539-0.092,0.693,0.139l2,3C-449.931,289.453-449.993,289.763-450.223,289.916z M-449.5,283h-4
		c-0.276,0-0.5-0.224-0.5-0.5s0.224-0.5,0.5-0.5h4c0.276,0,0.5,0.224,0.5,0.5S-449.224,283-449.5,283z"/>
	<g>
		<path d="M-451.5,274c-0.13,0-0.25-0.05-0.351-0.14c-0.099-0.11-0.149-0.23-0.149-0.36s0.05-0.25,0.14-0.35
			c0.21-0.2,0.521-0.19,0.71-0.01c0.1,0.1,0.15,0.23,0.15,0.36s-0.05,0.26-0.141,0.35C-451.24,273.95-451.37,274-451.5,274z"/>
	</g>
	<g>
		<path d="M-451.5,277c-0.13,0-0.26-0.05-0.351-0.15c-0.099-0.09-0.149-0.22-0.149-0.35s0.05-0.26,0.14-0.35
			c0.2-0.19,0.53-0.19,0.71,0c0.1,0.09,0.15,0.22,0.15,0.35s-0.05,0.26-0.15,0.35C-451.24,276.95-451.37,277-451.5,277z"/>
	</g>
	<g>
		<path d="M-450.5,276c-0.276,0-0.5-0.224-0.5-0.5v-1c0-0.276,0.224-0.5,0.5-0.5s0.5,0.224,0.5,0.5v1
			C-450,275.776-450.224,276-450.5,276z"/>
	</g>
	<g>
		<path d="M-452.5,276c-0.276,0-0.5-0.224-0.5-0.5v-1c0-0.276,0.224-0.5,0.5-0.5s0.5,0.224,0.5,0.5v1
			C-452,275.776-452.224,276-452.5,276z"/>
	</g>
</g>
</svg>
