<?xml version="1.0" encoding="iso-8859-1"?>
<!-- Generator: Adobe Illustrator 19.0.0, SVG Export Plug-In . SVG Version: 6.00 Build 0)  -->
<svg version="1.1" id="Layer_1" xmlns="http://www.w3.org/2000/svg" xmlns:xlink="http://www.w3.org/1999/xlink" x="0px" y="0px"
	 viewBox="-467 269 24 24" style="enable-background:new -467 269 24 24;" xml:space="preserve">
<g>
	<g>
		<path style="fill:none;stroke:#000000;stroke-linejoin:round;stroke-miterlimit:10;" d="M-458.5,278.961"/>
	</g>
	<g>
		<g>
			<path d="M-449.5,284.978l-3.039,0.001l-2.248,0.177c-0.921,0.136-1.713-0.586-1.713-1.485c0-0.348,0.108-0.679,0.312-0.959
				l1.573-2.161c0.438-0.658,0.352-1.542-0.208-2.102c-0.629-0.629-1.727-0.629-2.355,0l-2.535,2.535
				c-0.596,0.033-1.158,0.212-1.656,0.5l0.251,0.237c0.11,0.104,0.168,0.254,0.154,0.406l-0.042,0.481
				c-0.237,2.72-1.032,5.221-1.065,5.327l-0.076,0.239l5.01,0.768c0.228,0.065,0.551,0.098,0.962,0.098
				c0.775,0,2.365-0.144,2.979-0.679l3.96-2.458c0.189-0.118,0.278-0.347,0.217-0.562
				C-449.08,285.126-449.276,284.978-449.5,284.978z"/>
		</g>
		<path d="M-462.156,282.115c-0.876-0.83-3.739-1.091-4.305-1.135c-0.145-0.008-0.276,0.038-0.379,0.131
			c-0.101,0.094-0.16,0.228-0.16,0.367v7c0,0.276,0.224,0.5,0.5,0.5c1.367,0,3.172-1.022,3.248-1.066
			c0.108-0.062,0.19-0.163,0.229-0.282c0.032-0.102,0.795-2.511,1.021-5.109C-461.988,282.369-462.046,282.219-462.156,282.115z"/>
		<path d="M-443.5,272.961h-16c-0.276,0-0.5,0.224-0.5,0.5v6.396l2.115-2.115c1.008-1.007,2.762-1.007,3.77,0
			c0.896,0.896,1.035,2.311,0.333,3.364l-1.597,2.195c-0.079,0.108-0.121,0.237-0.121,0.371c0,0.11,0.042,0.207,0.102,0.29h11.898
			c0.276,0,0.5-0.224,0.5-0.5v-10C-443,273.184-443.224,272.961-443.5,272.961z M-455.5,275.961h-0.586
			c-0.206,0.582-0.762,1-1.414,1c-0.276,0-0.5-0.224-0.5-0.5s0.224-0.5,0.5-0.5c0.275,0,0.5-0.224,0.5-0.5s0.224-0.5,0.5-0.5h1
			c0.276,0,0.5,0.224,0.5,0.5S-455.224,275.961-455.5,275.961z M-451.505,281.96c-0.643,0-1.293-0.177-1.874-0.546
			c-0.232-0.148-0.302-0.458-0.153-0.69c0.149-0.234,0.46-0.3,0.69-0.153c1.163,0.741,2.712,0.397,3.451-0.767
			c0.358-0.563,0.477-1.232,0.331-1.885c-0.145-0.652-0.535-1.208-1.099-1.566c-1.164-0.74-2.712-0.396-3.451,0.767
			c-0.149,0.234-0.458,0.301-0.69,0.153c-0.232-0.148-0.302-0.458-0.153-0.69c1.037-1.628,3.205-2.108,4.832-1.073
			c0.789,0.501,1.335,1.281,1.538,2.193c0.203,0.912,0.038,1.85-0.464,2.639C-449.214,281.387-450.348,281.96-451.505,281.96z
			 M-445,280.461c0,0.276-0.224,0.5-0.5,0.5c-0.275,0-0.5,0.224-0.5,0.5s-0.224,0.5-0.5,0.5h-1c-0.276,0-0.5-0.224-0.5-0.5
			s0.224-0.5,0.5-0.5h0.586c0.15-0.426,0.488-0.764,0.914-0.915v-3.171c-0.426-0.151-0.764-0.489-0.914-0.915h-0.586
			c-0.276,0-0.5-0.224-0.5-0.5s0.224-0.5,0.5-0.5h1c0.276,0,0.5,0.224,0.5,0.5s0.225,0.5,0.5,0.5c0.276,0,0.5,0.224,0.5,0.5V280.461
			z"/>
	</g>
</g>
</svg>
