<?xml version="1.0" encoding="utf-8"?>
<!-- Generator: Adobe Illustrator 19.0.0, SVG Export Plug-In . SVG Version: 6.00 Build 0)  -->
<svg version="1.1" id="Layer_1" xmlns="http://www.w3.org/2000/svg" xmlns:xlink="http://www.w3.org/1999/xlink" x="0px" y="0px"
	 viewBox="0 0 24 24" style="enable-background:new 0 0 24 24;" xml:space="preserve">
<g>
	<path d="M16,10.1c0.6,1,1,2.2,1,3.4c0,3.6-2.9,6.5-6.5,6.5S4,17.1,4,13.5S6.9,7,10.5,7c1.2,0,2.4,0.4,3.4,1l2.2-2.2
		C14.5,4.7,12.6,4,10.5,4C5.3,4,1,8.3,1,13.5S5.3,23,10.5,23s9.5-4.3,9.5-9.5c0-2.1-0.7-4-1.8-5.6L16,10.1z"/>
	<path d="M10.5,11c0.1,0,0.2,0,0.3,0l2.3-2.3C12.4,8.3,11.5,8,10.5,8C7.5,8,5,10.5,5,13.5S7.5,19,10.5,19s5.5-2.5,5.5-5.5
		c0-1-0.3-1.9-0.7-2.7L13,13.2c0,0.1,0,0.2,0,0.3c0,1.4-1.1,2.5-2.5,2.5S8,14.9,8,13.5S9.1,11,10.5,11z"/>
	<path d="M23,3.3C22.9,3.1,22.7,3,22.5,3H21V1.5c0-0.2-0.1-0.4-0.3-0.5c-0.2-0.1-0.4,0-0.5,0.1l-2,2C18.1,3.2,18,3.4,18,3.5v1.8
		l-7.9,7.9c-0.2,0.2-0.2,0.5,0,0.7c0.1,0.1,0.2,0.1,0.4,0.1s0.3,0,0.4-0.1L18.7,6h1.8c0.1,0,0.3-0.1,0.4-0.1l2-2
		C23,3.7,23,3.5,23,3.3z M20.3,5H19V3.7l1-1v0.8C20,3.8,20.2,4,20.5,4h0.8L20.3,5z"/>
</g>
</svg>
