<?xml version="1.0" encoding="iso-8859-1"?>
<!-- Generator: Adobe Illustrator 19.2.1, SVG Export Plug-In . SVG Version: 6.00 Build 0)  -->
<svg version="1.1" id="Layer_1" xmlns="http://www.w3.org/2000/svg" xmlns:xlink="http://www.w3.org/1999/xlink" x="0px" y="0px"
	 viewBox="0 0 24 24" style="enable-background:new 0 0 24 24;" xml:space="preserve">
<g>
	<g>
		<path d="M18.5,13c-3.033,0-5.5,2.468-5.5,5.5s2.467,5.5,5.5,5.5s5.5-2.468,5.5-5.5S21.533,13,18.5,13z M18.5,20
			c0.276,0,0.5-0.225,0.5-0.5c0-0.276,0.224-0.5,0.5-0.5s0.5,0.224,0.5,0.5c0,0.827-0.673,1.5-1.5,1.5c-0.827,0-1.5-0.673-1.5-1.5
			v-2c0-0.827,0.673-1.5,1.5-1.5c0.827,0,1.5,0.673,1.5,1.5c0,0.276-0.224,0.5-0.5,0.5S19,17.776,19,17.5c0-0.275-0.224-0.5-0.5-0.5
			S18,17.225,18,17.5v2C18,19.775,18.224,20,18.5,20z M11.5,21h-9C1.673,21,1,20.327,1,19.5V5h20v7c0,0.276,0.224,0.5,0.5,0.5
			S22,12.276,22,12V2.5C22,1.121,20.878,0,19.5,0h-17C1.122,0,0,1.121,0,2.5v17C0,20.879,1.122,22,2.5,22h9
			c0.276,0,0.5-0.224,0.5-0.5S11.776,21,11.5,21z M6.5,2C6.776,2,7,2.224,7,2.5S6.776,3,6.5,3S6,2.776,6,2.5S6.224,2,6.5,2z M4.5,2
			C4.776,2,5,2.224,5,2.5S4.776,3,4.5,3S4,2.776,4,2.5S4.224,2,4.5,2z M2.5,2C2.776,2,3,2.224,3,2.5S2.776,3,2.5,3S2,2.776,2,2.5
			S2.224,2,2.5,2z"/>
	</g>
</g>
</svg>
