<?xml version="1.0" encoding="iso-8859-1"?>
<!-- Generator: Adobe Illustrator 19.2.1, SVG Export Plug-In . SVG Version: 6.00 Build 0)  -->
<svg version="1.1" id="Layer_1" xmlns="http://www.w3.org/2000/svg" xmlns:xlink="http://www.w3.org/1999/xlink" x="0px" y="0px"
	 viewBox="0 0 24 24" style="enable-background:new 0 0 24 24;" xml:space="preserve">
<g>
	<g>
		<path d="M13.309,12.962C13.37,12.987,13.435,13,13.5,13H16c0.276,0,0.5-0.224,0.5-0.5S16.276,12,16,12h-1.293l2.146-2.146
			c0.195-0.195,0.195-0.512,0-0.707c-0.195-0.195-0.512-0.195-0.707,0L14,11.293V10c0-0.276-0.224-0.5-0.5-0.5S13,9.724,13,10v2.5
			c0,0.065,0.013,0.13,0.038,0.191C13.089,12.813,13.187,12.911,13.309,12.962z M7.5,19c0.128,0,0.256-0.049,0.354-0.146L10,16.708
			V18c0,0.276,0.224,0.5,0.5,0.5S11,18.276,11,18v-2.5c0-0.065-0.013-0.13-0.038-0.191c-0.051-0.122-0.148-0.22-0.271-0.271
			C10.63,15.013,10.565,15,10.5,15H8c-0.276,0-0.5,0.224-0.5,0.5S7.724,16,8,16h1.293l-2.146,2.146
			c-0.195,0.195-0.195,0.512,0,0.707C7.244,18.951,7.372,19,7.5,19z M21.5,1h-19C1.122,1,0,2.122,0,3.5v17C0,21.878,1.122,23,2.5,23
			h19c1.378,0,2.5-1.122,2.5-2.5v-17C24,2.122,22.878,1,21.5,1z M6.5,3C6.776,3,7,3.224,7,3.5S6.776,4,6.5,4S6,3.776,6,3.5
			S6.224,3,6.5,3z M4.5,3C4.776,3,5,3.224,5,3.5S4.776,4,4.5,4S4,3.776,4,3.5S4.224,3,4.5,3z M2.5,3C2.776,3,3,3.224,3,3.5
			S2.776,4,2.5,4S2,3.776,2,3.5S2.224,3,2.5,3z M23,20.5c0,0.827-0.673,1.5-1.5,1.5h-19C1.673,22,1,21.327,1,20.5V6h22V20.5z
			 M9.293,12H8c-0.276,0-0.5,0.224-0.5,0.5S7.724,13,8,13h2.5c0.065,0,0.13-0.013,0.191-0.038c0.122-0.051,0.22-0.148,0.271-0.271
			C10.987,12.63,11,12.565,11,12.5V10c0-0.276-0.224-0.5-0.5-0.5S10,9.724,10,10v1.293L7.854,9.147
			c-0.195-0.195-0.512-0.195-0.707,0c-0.195,0.195-0.195,0.512,0,0.707L9.293,12z M13.5,18.5c0.276,0,0.5-0.224,0.5-0.5v-1.293
			l2.146,2.146c0.098,0.098,0.226,0.146,0.354,0.146s0.256-0.049,0.354-0.146c0.195-0.195,0.195-0.512,0-0.707L14.707,16H16
			c0.276,0,0.5-0.224,0.5-0.5S16.276,15,16,15h-2.5c-0.065,0-0.13,0.013-0.191,0.038c-0.122,0.051-0.22,0.148-0.271,0.271
			C13.013,15.37,13,15.435,13,15.5V18C13,18.276,13.224,18.5,13.5,18.5z"/>
	</g>
</g>
</svg>
