<?xml version="1.0" encoding="iso-8859-1"?>
<!-- Generator: Adobe Illustrator 19.2.1, SVG Export Plug-In . SVG Version: 6.00 Build 0)  -->
<svg version="1.1" id="Layer_1" xmlns="http://www.w3.org/2000/svg" xmlns:xlink="http://www.w3.org/1999/xlink" x="0px" y="0px"
	 viewBox="0 0 24 24" style="enable-background:new 0 0 24 24;" xml:space="preserve">
<g>
	<g>
		<path d="M11.598,21h-9c-0.827,0-1.5-0.673-1.5-1.5V5h20v9.5c0,0.276,0.224,0.5,0.5,0.5s0.5-0.224,0.5-0.5v-12
			c0-1.379-1.122-2.5-2.5-2.5h-17c-1.378,0-2.5,1.121-2.5,2.5v17c0,1.379,1.122,2.5,2.5,2.5h9c0.276,0,0.5-0.224,0.5-0.5
			S11.874,21,11.598,21z M6.598,2c0.276,0,0.5,0.224,0.5,0.5S6.874,3,6.598,3s-0.5-0.224-0.5-0.5S6.322,2,6.598,2z M4.598,2
			c0.276,0,0.5,0.224,0.5,0.5S4.874,3,4.598,3s-0.5-0.224-0.5-0.5S4.322,2,4.598,2z M2.598,2c0.276,0,0.5,0.224,0.5,0.5
			S2.874,3,2.598,3s-0.5-0.224-0.5-0.5S2.322,2,2.598,2z M23.878,16.563c-0.067-0.206-0.259-0.346-0.476-0.346h-4.071l-1.258-3.872
			c-0.134-0.412-0.817-0.412-0.951,0l-1.258,3.872h-4.071c-0.217,0-0.409,0.14-0.476,0.346c-0.067,0.206,0.006,0.432,0.182,0.559
			l3.298,2.396l-1.178,3.836c-0.063,0.206,0.013,0.429,0.188,0.554c0.175,0.125,0.412,0.123,0.585-0.004l3.205-2.349l3.205,2.349
			C20.89,23.968,20.994,24,21.098,24c0.102,0,0.203-0.031,0.29-0.093c0.176-0.125,0.251-0.348,0.188-0.554l-1.178-3.836l3.298-2.396
			C23.872,16.995,23.945,16.77,23.878,16.563z"/>
	</g>
</g>
</svg>
