<?xml version="1.0" encoding="iso-8859-1"?>
<!-- Generator: Adobe Illustrator 19.2.1, SVG Export Plug-In . SVG Version: 6.00 Build 0)  -->
<svg version="1.1" id="Layer_1" xmlns="http://www.w3.org/2000/svg" xmlns:xlink="http://www.w3.org/1999/xlink" x="0px" y="0px"
	 viewBox="0 0 24 24" style="enable-background:new 0 0 24 24;" xml:space="preserve">
<g>
	<g>
		<path d="M24,18.75c0-1.93-1.57-3.5-3.5-3.5c-0.276,0-0.5,0.224-0.5,0.5s0.224,0.5,0.5,0.5c1.378,0,2.5,1.121,2.5,2.5
			c0,1.379-1.122,2.5-2.5,2.5h-0.793l0.646-0.646c0.195-0.195,0.195-0.512,0-0.707s-0.512-0.195-0.707,0l-1.499,1.499
			c-0.046,0.046-0.083,0.102-0.109,0.163c-0.051,0.122-0.051,0.26,0,0.382c0.025,0.062,0.062,0.117,0.109,0.163l1.499,1.499
			c0.098,0.098,0.226,0.146,0.354,0.146s0.256-0.049,0.354-0.146c0.195-0.195,0.195-0.512,0-0.707l-0.647-0.646H20.5
			C22.43,22.25,24,20.68,24,18.75z M18.962,15.941c0.051-0.122,0.051-0.26,0-0.382c-0.025-0.062-0.062-0.117-0.109-0.163
			l-1.499-1.499c-0.195-0.195-0.512-0.195-0.707,0s-0.195,0.512,0,0.707l0.646,0.646H16.5c-1.93,0-3.5,1.57-3.5,3.5
			s1.57,3.5,3.5,3.5c0.276,0,0.5-0.224,0.5-0.5s-0.224-0.5-0.5-0.5c-1.378,0-2.5-1.121-2.5-2.5c0-1.379,1.122-2.5,2.5-2.5h0.793
			l-0.646,0.646c-0.195,0.195-0.195,0.512,0,0.707c0.098,0.098,0.226,0.146,0.354,0.146c0.128,0,0.256-0.049,0.354-0.146
			l1.499-1.499C18.899,16.058,18.936,16.003,18.962,15.941z M12.5,21.25h-10c-0.827,0-1.5-0.673-1.5-1.5V5.25h20v8.5
			c0,0.276,0.224,0.5,0.5,0.5s0.5-0.224,0.5-0.5v-11c0-1.379-1.122-2.5-2.5-2.5h-17C1.122,0.25,0,1.371,0,2.75v17
			c0,1.379,1.122,2.5,2.5,2.5h10c0.276,0,0.5-0.224,0.5-0.5S12.776,21.25,12.5,21.25z M6.5,2.25c0.276,0,0.5,0.224,0.5,0.5
			s-0.224,0.5-0.5,0.5S6,3.026,6,2.75S6.224,2.25,6.5,2.25z M4.5,2.25c0.276,0,0.5,0.224,0.5,0.5s-0.224,0.5-0.5,0.5S4,3.026,4,2.75
			S4.224,2.25,4.5,2.25z M2.5,2.25c0.276,0,0.5,0.224,0.5,0.5s-0.224,0.5-0.5,0.5S2,3.026,2,2.75S2.224,2.25,2.5,2.25z"/>
	</g>
</g>
</svg>
