<?xml version="1.0" encoding="iso-8859-1"?>
<!-- Generator: Adobe Illustrator 19.2.1, SVG Export Plug-In . SVG Version: 6.00 Build 0)  -->
<svg version="1.1" id="Layer_1" xmlns="http://www.w3.org/2000/svg" xmlns:xlink="http://www.w3.org/1999/xlink" x="0px" y="0px"
	 viewBox="0 0 24 24" style="enable-background:new 0 0 24 24;" xml:space="preserve">
<g>
	<g>
		<path d="M10.5,8.5h3C13.776,8.5,14,8.276,14,8s-0.224-0.5-0.5-0.5h-3C10.224,7.5,10,7.724,10,8S10.224,8.5,10.5,8.5z M12,14.5
			c0,2.206,1.794,4,4,4c0.923,0,1.763-0.327,2.44-0.853l2.707,2.707c0.097,0.097,0.225,0.146,0.353,0.146s0.256-0.049,0.354-0.146
			c0.195-0.195,0.195-0.512,0-0.707l-2.707-2.707C19.673,16.262,20,15.422,20,14.5c0-2.206-1.794-4-4-4S12,12.294,12,14.5z M16,11.5
			c1.654,0,3,1.346,3,3s-1.346,3-3,3s-3-1.346-3-3S14.346,11.5,16,11.5z M8.5,11.5h4c0.276,0,0.5-0.224,0.5-0.5s-0.224-0.5-0.5-0.5
			h-4C8.224,10.5,8,10.724,8,11S8.224,11.5,8.5,11.5z M16.5,8.5h5C21.776,8.5,22,8.276,22,8s-0.224-0.5-0.5-0.5h-5
			C16.224,7.5,16,7.724,16,8S16.224,8.5,16.5,8.5z M7.5,13.5C7.224,13.5,7,13.724,7,14s0.224,0.5,0.5,0.5h3
			c0.276,0,0.5-0.224,0.5-0.5s-0.224-0.5-0.5-0.5H7.5z M21.5,0.5h-19C1.121,0.5,0,1.622,0,3v18c0,1.378,1.121,2.5,2.5,2.5h19
			c1.379,0,2.5-1.122,2.5-2.5V3C24,1.622,22.879,0.5,21.5,0.5z M6.5,2.5C6.776,2.5,7,2.724,7,3S6.776,3.5,6.5,3.5S6,3.276,6,3
			S6.224,2.5,6.5,2.5z M4.5,2.5C4.776,2.5,5,2.724,5,3S4.776,3.5,4.5,3.5S4,3.276,4,3S4.224,2.5,4.5,2.5z M2.5,2.5
			C2.776,2.5,3,2.724,3,3S2.776,3.5,2.5,3.5S2,3.276,2,3S2.224,2.5,2.5,2.5z M23,21c0,0.827-0.673,1.5-1.5,1.5h-19
			C1.673,22.5,1,21.827,1,21V5.5h22V21z M2.5,17.5h6C8.776,17.5,9,17.276,9,17s-0.224-0.5-0.5-0.5h-6C2.224,16.5,2,16.724,2,17
			S2.224,17.5,2.5,17.5z M2.5,20.5h8c0.276,0,0.5-0.224,0.5-0.5s-0.224-0.5-0.5-0.5h-8C2.224,19.5,2,19.724,2,20
			S2.224,20.5,2.5,20.5z M2.5,14.5h2C4.776,14.5,5,14.276,5,14s-0.224-0.5-0.5-0.5h-2C2.224,13.5,2,13.724,2,14S2.224,14.5,2.5,14.5
			z M2.5,8.5h5C7.776,8.5,8,8.276,8,8S7.776,7.5,7.5,7.5h-5C2.224,7.5,2,7.724,2,8S2.224,8.5,2.5,8.5z M2.5,11.5h3
			C5.776,11.5,6,11.276,6,11s-0.224-0.5-0.5-0.5h-3C2.224,10.5,2,10.724,2,11S2.224,11.5,2.5,11.5z"/>
	</g>
</g>
</svg>
