<?xml version="1.0" encoding="iso-8859-1"?>
<!-- Generator: Adobe Illustrator 19.2.1, SVG Export Plug-In . SVG Version: 6.00 Build 0)  -->
<svg version="1.1" id="Layer_1" xmlns="http://www.w3.org/2000/svg" xmlns:xlink="http://www.w3.org/1999/xlink" x="0px" y="0px"
	 viewBox="0 0 24 24" style="enable-background:new 0 0 24 24;" xml:space="preserve">
<g>
	<g>
		<path d="M13.5,10.5h2c0.276,0,0.5-0.224,0.5-0.5V8c0-0.276-0.224-0.5-0.5-0.5h-2C13.224,7.5,13,7.724,13,8v2
			C13,10.276,13.224,10.5,13.5,10.5z M18.5,20.5h2c0.276,0,0.5-0.224,0.5-0.5v-2c0-0.276-0.224-0.5-0.5-0.5h-2
			c-0.276,0-0.5,0.224-0.5,0.5v2C18,20.276,18.224,20.5,18.5,20.5z M13.5,15.5h2c0.276,0,0.5-0.224,0.5-0.5v-2
			c0-0.276-0.224-0.5-0.5-0.5h-2c-0.276,0-0.5,0.224-0.5,0.5v2C13,15.276,13.224,15.5,13.5,15.5z M18.5,10.5h2
			c0.276,0,0.5-0.224,0.5-0.5V8c0-0.276-0.224-0.5-0.5-0.5h-2C18.224,7.5,18,7.724,18,8v2C18,10.276,18.224,10.5,18.5,10.5z
			 M18.5,15.5h2c0.276,0,0.5-0.224,0.5-0.5v-2c0-0.276-0.224-0.5-0.5-0.5h-2c-0.276,0-0.5,0.224-0.5,0.5v2
			C18,15.276,18.224,15.5,18.5,15.5z M3.5,15.5h2C5.776,15.5,6,15.276,6,15v-2c0-0.276-0.224-0.5-0.5-0.5h-2
			C3.224,12.5,3,12.724,3,13v2C3,15.276,3.224,15.5,3.5,15.5z M3.5,10.5h2C5.776,10.5,6,10.276,6,10V8c0-0.276-0.224-0.5-0.5-0.5h-2
			C3.224,7.5,3,7.724,3,8v2C3,10.276,3.224,10.5,3.5,10.5z M3.5,20.5h2C5.776,20.5,6,20.276,6,20v-2c0-0.276-0.224-0.5-0.5-0.5h-2
			C3.224,17.5,3,17.724,3,18v2C3,20.276,3.224,20.5,3.5,20.5z M21.5,0.5h-19C1.121,0.5,0,1.622,0,3v18c0,1.378,1.121,2.5,2.5,2.5h19
			c1.379,0,2.5-1.122,2.5-2.5V3C24,1.622,22.879,0.5,21.5,0.5z M6.5,2.5C6.776,2.5,7,2.724,7,3S6.776,3.5,6.5,3.5S6,3.276,6,3
			S6.224,2.5,6.5,2.5z M4.5,2.5C4.776,2.5,5,2.724,5,3S4.776,3.5,4.5,3.5S4,3.276,4,3S4.224,2.5,4.5,2.5z M2.5,2.5
			C2.776,2.5,3,2.724,3,3S2.776,3.5,2.5,3.5S2,3.276,2,3S2.224,2.5,2.5,2.5z M23,21c0,0.827-0.673,1.5-1.5,1.5h-19
			C1.673,22.5,1,21.827,1,21V5.5h22V21z M8.5,20.5h2c0.276,0,0.5-0.224,0.5-0.5v-2c0-0.276-0.224-0.5-0.5-0.5h-2
			C8.224,17.5,8,17.724,8,18v2C8,20.276,8.224,20.5,8.5,20.5z M13.5,20.5h2c0.276,0,0.5-0.224,0.5-0.5v-2c0-0.276-0.224-0.5-0.5-0.5
			h-2c-0.276,0-0.5,0.224-0.5,0.5v2C13,20.276,13.224,20.5,13.5,20.5z M8.5,10.5h2c0.276,0,0.5-0.224,0.5-0.5V8
			c0-0.276-0.224-0.5-0.5-0.5h-2C8.224,7.5,8,7.724,8,8v2C8,10.276,8.224,10.5,8.5,10.5z M8.5,15.5h2c0.276,0,0.5-0.224,0.5-0.5v-2
			c0-0.276-0.224-0.5-0.5-0.5h-2C8.224,12.5,8,12.724,8,13v2C8,15.276,8.224,15.5,8.5,15.5z"/>
	</g>
</g>
</svg>
