<?xml version="1.0" encoding="iso-8859-1"?>
<!-- Generator: Adobe Illustrator 19.0.0, SVG Export Plug-In . SVG Version: 6.00 Build 0)  -->
<svg version="1.1" id="Layer_1" xmlns="http://www.w3.org/2000/svg" xmlns:xlink="http://www.w3.org/1999/xlink" x="0px" y="0px"
	 viewBox="0 0 30 30" style="enable-background:new 0 0 30 30;" xml:space="preserve">
<g>
	<g>
		<path d="M27.865,22.252c-0.438-0.059-1.022-0.196-1.704-0.399c2.375-1.066,3.95-3.502,3.834-6.207
			c-0.154-3.58-3.187-6.367-6.774-6.214c-0.368,0.016-0.731,0.063-1.088,0.141c0.329-0.621,0.543-1.171,0.524-1.618
			c-0.012-0.268-0.232-0.479-0.5-0.479c-0.001,0-0.002,0-0.002,0c-1.707,0.008-5.476,2.802-6.723,6.098
			c-0.227,0.6-0.571,1.167-0.993,1.646c-0.031-0.082-0.056-0.165-0.081-0.248c-0.017-0.058-0.039-0.115-0.053-0.174
			c-0.028-0.111-0.047-0.225-0.065-0.338c-0.008-0.05-0.02-0.099-0.026-0.149c-0.016-0.126-0.021-0.254-0.025-0.382
			c-0.001-0.039-0.006-0.077-0.006-0.116c0-0.144,0.01-0.29,0.024-0.436c0.002-0.023,0.002-0.047,0.005-0.07
			c0.02-0.168,0.049-0.337,0.088-0.506c0-0.002,0.001-0.004,0.001-0.005c0.121-0.519,0.332-1.04,0.634-1.549
			c1.688-2.85,2.465-7.444,0.937-9.095c-0.117-0.126-0.29-0.169-0.456-0.14c-0.018,0.003-0.036-0.005-0.054,0
			c-0.182,0.054-0.319,0.205-0.352,0.392c-0.073,0.406-0.225,0.944-0.432,1.558c-0.014,0.042-0.027,0.082-0.042,0.125
			c-0.919-2.306-3.116-3.92-5.664-4.067c-0.124-0.007-0.245-0.029-0.37-0.029c-3.584,0-6.5,2.916-6.5,6.5v0
			c0,0.368,0.031,0.733,0.093,1.093c-0.592-0.348-1.119-0.578-1.56-0.589c-0.01,0-0.022-0.004-0.032-0.004c0,0,0,0-0.001,0
			c0,0,0,0,0,0c-0.269,0-0.489,0.212-0.5,0.481c-0.065,1.706,2.564,5.591,5.803,6.979c1.27,0.544,2.29,1.56,2.729,2.718l0.346,0.913
			c-2.611,1.101-5.252,2.257-7.201,3.327c-1.211,0.665-1.879,2.011-1.624,3.275c0.173,0.854,0.701,1.549,1.489,1.957
			c0.846,0.44,1.882,0.466,2.761,0.078l6.826-2.856c0.002,0.005,0.004,0.008,0.005,0.013c0.165,0.404,0.331,0.802,0.498,1.198
			c0.019,0.046,0.039,0.091,0.058,0.136c0.135,0.318,0.27,0.63,0.405,0.937c0.066,0.15,0.13,0.291,0.194,0.435
			c0.092,0.205,0.184,0.411,0.276,0.609c0.168,0.363,0.331,0.708,0.487,1.023c0.544,1.101,1.644,1.796,2.776,1.796
			c0.142,0,0.284-0.011,0.428-0.033c0.86-0.135,1.577-0.633,2.018-1.402c0.474-0.827,0.548-1.86,0.195-2.761l-1.479-3.882
			c0.679,0.057,1.371,0.268,2.036,0.624c2.919,1.564,7.542,2.144,9.127,0.544c0.133-0.135,0.179-0.333,0.118-0.513
			C28.211,22.407,28.053,22.277,27.865,22.252z M23.262,10.432c3.044-0.119,5.601,2.229,5.731,5.258
			c0.118,2.707-1.773,5.084-4.414,5.612c-1.467-0.529-2.727-1.078-3.33-1.394c0.131-0.101,0.284-0.213,0.422-0.314
			c1.119-0.821,2.652-1.946,2.457-3.219c-0.167-1.095-1.387-1.369-2.464-1.611c-0.737-0.165-1.572-0.353-1.653-0.73
			c-0.144-0.669,0.841-2.333,1.342-3.157C21.964,10.617,22.604,10.46,23.262,10.432z M4.612,2.605
			C5.608,1.61,6.983,0.993,8.499,0.993c1.034,0,2.009,0.29,2.843,0.796c0.027,0.016,0.05,0.039,0.077,0.055
			C11.665,2,11.903,2.17,12.122,2.362c0.04,0.035,0.073,0.078,0.112,0.115c0.197,0.183,0.387,0.374,0.555,0.584
			c0.044,0.055,0.078,0.119,0.12,0.176c0.15,0.203,0.296,0.409,0.417,0.633c0.042,0.077,0.069,0.161,0.108,0.24
			c0.104,0.215,0.206,0.432,0.282,0.662c0.032,0.099,0.048,0.205,0.075,0.306c0.054,0.201,0.105,0.403,0.136,0.613
			c-0.024,0.059-0.049,0.117-0.073,0.175c-0.037,0.089-0.075,0.18-0.112,0.267c-0.043,0.1-0.086,0.197-0.128,0.294
			c-0.029,0.066-0.058,0.133-0.087,0.198c-0.048,0.108-0.096,0.212-0.143,0.315c-0.023,0.049-0.046,0.1-0.068,0.148
			c-0.051,0.109-0.1,0.213-0.149,0.315c-0.018,0.038-0.037,0.079-0.055,0.116c-0.045,0.092-0.087,0.177-0.13,0.263
			c-0.022,0.044-0.045,0.091-0.066,0.134c-0.034,0.066-0.065,0.125-0.097,0.187c-0.027,0.053-0.056,0.11-0.082,0.159
			c-0.024,0.045-0.045,0.082-0.067,0.124c-0.031,0.057-0.063,0.117-0.091,0.168c-0.049,0.087-0.094,0.165-0.135,0.232
			c-0.105-0.131-0.227-0.289-0.334-0.43c-0.801-1.053-1.889-2.495-3.158-2.361C7.847,6.11,7.517,7.317,7.225,8.381
			C7.025,9.109,6.8,9.935,6.419,9.998c-0.582,0.085-1.917-0.825-2.907-1.494L3.354,8.397C3.297,8.245,3.26,8.088,3.217,7.932
			C3.175,7.781,3.121,7.633,3.093,7.48C3.052,7.256,3.041,7.029,3.028,6.801c-0.006-0.104-0.028-0.206-0.028-0.31
			C3.001,4.975,3.617,3.601,4.612,2.605z M3.908,25.8c-0.611,0.271-1.326,0.254-1.905-0.047c-0.514-0.267-0.858-0.716-0.969-1.267
			c-0.166-0.826,0.307-1.751,1.124-2.2c1.904-1.044,4.5-2.182,7.076-3.268c0.465,1.226,0.981,2.57,1.52,3.918L3.908,25.8z
			 M17.534,26.173c0.244,0.626,0.195,1.337-0.13,1.903c-0.215,0.375-0.53,0.651-0.908,0.803c-0.126,0.05-0.258,0.086-0.396,0.108
			c-0.833,0.136-1.736-0.381-2.149-1.218c-0.347-0.702-0.703-1.482-1.059-2.3c-0.06-0.137-0.122-0.285-0.183-0.428
			c-0.112-0.261-0.223-0.522-0.334-0.788c-0.1-0.239-0.204-0.495-0.308-0.749c-0.826-2.02-1.62-4.115-2.276-5.847l-0.319-0.844
			c-0.535-1.407-1.757-2.634-3.271-3.282C3.656,12.442,1.692,9.703,1.151,8.21c0.502,0.25,1.111,0.66,1.5,0.922
			c0.003,0.002,0.006,0.001,0.009,0.002l0.292,0.198c1.266,0.858,2.468,1.671,3.397,1.671c0.08,0,0.158-0.006,0.234-0.019
			c0.253-0.042,0.462-0.146,0.638-0.293C7.75,10.248,7.98,9.409,8.189,8.645C8.266,8.362,8.348,8.064,8.441,7.8
			c0.156-0.44,0.347-0.785,0.611-0.812C9.139,6.98,9.231,6.993,9.326,7.024c0.666,0.219,1.508,1.31,1.985,1.937
			c0.563,0.74,0.854,1.114,1.287,1.02c0.074-0.015,0.155-0.061,0.24-0.135c0.171-0.147,0.361-0.403,0.561-0.73
			c0.498-0.815,1.054-2.07,1.508-3.183c0.001-0.003,0.004-0.005,0.005-0.008c0.222-0.546,0.481-1.221,0.697-1.887
			c0.266,1.681-0.228,4.482-1.542,6.7c-0.966,1.631-1.155,3.386-0.536,4.933l0.238,0.625c0.002,0.006,0.008,0.01,0.011,0.016
			l2.012,5.283c0.002,0.004,0,0.009,0.002,0.014L17.534,26.173z M19.498,21.675c-0.935-0.501-1.922-0.744-2.887-0.742l-1.786-4.689
			c0.669-0.641,1.204-1.428,1.541-2.314c0.98-2.589,3.636-4.672,5.103-5.275c-0.224,0.506-0.6,1.122-0.846,1.523
			c-0.016,0.019-0.036,0.031-0.049,0.053c-1.096,1.804-1.736,3.104-1.541,4.013c0.217,1.002,1.383,1.265,2.413,1.495
			c0.763,0.172,1.63,0.366,1.694,0.786c0.103,0.675-1.305,1.707-2.061,2.262c-0.784,0.575-1.177,0.864-1.063,1.324
			c0.137,0.551,2.288,1.436,4.183,2.116c0.042,0.034,0.09,0.061,0.142,0.08c0.558,0.2,1.246,0.431,1.924,0.618
			C24.598,23.266,21.773,22.894,19.498,21.675z"/>
	</g>
</g>
</svg>
