<?xml version="1.0" encoding="iso-8859-1"?>
<!-- Generator: Adobe Illustrator 19.0.0, SVG Export Plug-In . SVG Version: 6.00 Build 0)  -->
<svg version="1.1" id="Layer_1" xmlns="http://www.w3.org/2000/svg" xmlns:xlink="http://www.w3.org/1999/xlink" x="0px" y="0px"
	 viewBox="0 0 30 30" style="enable-background:new 0 0 30 30;" xml:space="preserve">
<g>
	<g>
		<path d="M25.465,6c-0.276,0.012-0.489,0.246-0.476,0.522c0.113,2.45-0.773,3.543-1.854,4.624c-0.195,0.195-0.195,0.512,0,0.707
			c0.098,0.097,0.226,0.146,0.354,0.146s0.256-0.049,0.352-0.146c1.207-1.205,2.278-2.522,2.146-5.376
			C25.976,6.201,25.74,5.985,25.465,6z M29.985,3.942c-0.225-1.901-2.265-3.461-3.951-3.671l-2.057-0.27
			c-0.301,0.006-7.405,0.214-11.342,4.146c-2.136,2.133-3,3.992-3.616,5.682c-0.391,1.072-1.207,2.048-2.301,2.75
			c-2.743,1.761-6.729,6.281-6.729,9.355c0,3.679,1.4,8.065,8.073,8.065c7.78,0,10.223-6.561,10.913-9.379
			c0.297-1.213,0.988-2.037,2.241-2.673c1.313-0.666,3.23-2.196,5.127-4.092c2.139-2.138,3.268-4.308,3.355-6.45
			c0.036-0.933,0.145-2.013,0.29-2.866C30.018,4.26,30.018,4.222,29.985,3.942z M28.996,4.414c-0.148,0.858-0.259,1.961-0.298,2.949
			c-0.076,1.882-1.106,3.827-3.063,5.782c-1.8,1.798-3.667,3.296-4.873,3.908c-1.516,0.769-2.392,1.826-2.759,3.327
			c-0.787,3.219-3.125,8.619-9.941,8.619c-4.693,0-7.073-2.377-7.073-7.065c0-2.699,3.774-6.912,6.271-8.514
			c1.275-0.82,2.234-1.974,2.699-3.25c0.537-1.474,1.286-3.222,3.384-5.317c3.65-3.646,10.589-3.852,10.58-3.858l1.983,0.266
			c1.293,0.161,2.923,1.418,3.089,2.813C29.015,4.242,29.015,4.242,28.996,4.414z M24.737,4.065
			c-0.239-0.137-0.545-0.055-0.682,0.186c-0.484,0.846-1.208,1.678-2.062,2.489c-0.924-0.903-2.748-1.932-4.807-1.651
			c-1.746,0.235-4.232,1.505-6.159,6.221c-0.105,0.256,0.018,0.548,0.273,0.652c0.062,0.025,0.126,0.037,0.189,0.037
			c0.197,0,0.384-0.117,0.464-0.311c1.082-2.648,2.457-4.397,4.025-5.176c0.044,1.347,0.705,2.904,1.735,3.635
			c-0.23,0.166-0.46,0.332-0.686,0.494c-1.731,1.244-3.367,2.418-4.401,3.514c-1.41,1.494-3.313,4.124-4.992,6.445
			c-0.36,0.497-0.715,0.988-1.056,1.455c-0.181-0.013-0.311-0.065-0.381-0.124c-0.38-0.315-0.619-1.145-0.709-2.467
			c-0.001-0.022-0.013-0.039-0.017-0.06c1.333-1.257,2.912-2.448,4.153-3.382l0.165-0.125c0.221-0.166,0.265-0.479,0.099-0.7
			c-0.167-0.222-0.481-0.264-0.7-0.099l-0.165,0.124c-2.543,1.914-6.025,4.536-7.001,7.097c-0.099,0.259,0.03,0.547,0.289,0.646
			c0.059,0.023,0.118,0.033,0.178,0.033c0.201,0,0.392-0.123,0.466-0.322c0.292-0.766,0.88-1.57,1.615-2.365
			c0.159,1.193,0.478,1.965,0.99,2.39c0.117,0.097,0.248,0.159,0.381,0.218c-0.745,1.001-1.386,1.818-1.8,2.221
			c-0.198,0.193-0.202,0.509-0.01,0.707c0.098,0.101,0.228,0.151,0.358,0.151c0.126,0,0.252-0.047,0.349-0.141
			c0.73-0.711,1.961-2.398,3.391-4.374c1.62-0.146,2.956,0.497,3.253,1.576c-1.177,1.313-2.543,2.427-3.221,2.979l-0.089,0.072
			c-0.214,0.175-0.245,0.49-0.071,0.704c0.099,0.121,0.243,0.184,0.388,0.184c0.111,0,0.224-0.037,0.316-0.112l0.087-0.072
			c1.62-1.319,5.923-4.825,5.667-8.062c-0.092-1.183-0.775-2.186-2.014-2.991c0.282-0.336,0.556-0.652,0.807-0.919
			c0.466-0.493,1.079-1.015,1.776-1.558c0.206,0.784,0.596,1.314,1.177,1.561c0.252,0.108,0.517,0.152,0.785,0.152
			c1.246,0,2.536-0.972,2.706-1.103c0.218-0.17,0.256-0.483,0.087-0.701c-0.169-0.218-0.483-0.259-0.701-0.088
			c-0.407,0.315-1.74,1.142-2.486,0.821c-0.359-0.154-0.583-0.604-0.683-1.313c0.511-0.378,1.047-0.765,1.597-1.159
			c2.766-1.986,5.9-4.237,7.313-6.708C25.06,4.508,24.977,4.202,24.737,4.065z M13.562,18.831c0.085,1.077-0.521,2.258-1.363,3.362
			c-0.563-1.019-1.759-1.651-3.237-1.721c0.981-1.353,2.007-2.75,2.943-3.926C12.937,17.192,13.492,17.938,13.562,18.831z
			 M18.598,9.502c-0.992-0.368-1.704-2.115-1.614-3.342c0.112-0.025,0.222-0.064,0.336-0.079c1.72-0.229,3.207,0.657,3.925,1.332
			C20.418,8.13,19.513,8.828,18.598,9.502z"/>
	</g>
</g>
</svg>
