<?xml version="1.0" encoding="iso-8859-1"?>
<!-- Generator: Adobe Illustrator 19.0.0, SVG Export Plug-In . SVG Version: 6.00 Build 0)  -->
<svg version="1.1" id="Layer_1" xmlns="http://www.w3.org/2000/svg" xmlns:xlink="http://www.w3.org/1999/xlink" x="0px" y="0px"
	 viewBox="0 0 30 30" style="enable-background:new 0 0 30 30;" xml:space="preserve">
<g>
	<g>
		<path d="M21.927,6.637c0.223-0.3,0.41-0.623,0.541-0.972c0.051-0.135,0.04-0.286-0.028-0.413c-0.069-0.127-0.189-0.218-0.33-0.25
			c-2.566-0.579-4.381-0.051-5.42,0.459c0.198-0.835,0.585-1.564,1.335-2.34c0.688-0.712,0.687-1.872-0.001-2.585
			c-0.678-0.702-1.867-0.702-2.545,0l-0.608,0.63c-0.913,0.945-1.651,2.437-2.049,3.99c-1.07-0.695-3.043-1.054-3.745-1.16
			C8.894,3.969,8.722,4.038,8.61,4.177C8.498,4.316,8.469,4.504,8.534,4.67c0.019,0.049,0.251,0.644,0.605,1.421
			C3.806,7.942,0.5,12.298,0.5,17.513c0,6.88,6.505,12.478,14.5,12.478S29.5,24.393,29.5,17.512
			C29.5,12.786,26.672,8.74,21.927,6.637z M12.552,6.212c0.012,0.024,0.032,0.039,0.047,0.06c-0.059,0.413-0.1,0.823-0.1,1.219v1
			c0,0.276,0.224,0.5,0.5,0.5s0.5-0.224,0.5-0.5v-1c0-1.976,0.899-4.396,2.092-5.631L16.2,1.23c0.297-0.309,0.809-0.307,1.106,0.001
			c0.318,0.33,0.318,0.866,0,1.196c-1.189,1.231-1.62,2.412-1.752,3.843c-0.056,0.113-0.064,0.241-0.028,0.361
			C15.509,6.908,15.5,7.192,15.5,7.491v1c0,0.276,0.224,0.5,0.5,0.5s0.5-0.224,0.5-0.5v-1c0-0.272,0.008-0.526,0.02-0.772
			c0.495-0.36,2.062-1.284,4.736-0.863c-0.752,1.162-2.348,1.984-3.334,2.141c-0.19,0.03-0.345,0.166-0.4,0.351
			c-0.055,0.184,0,0.384,0.143,0.513c0.309,0.28,0.858,0.435,1.729,0.664c0.038,0.009,0.075,0.019,0.112,0.029
			c-1.223,0.358-2.648,0.494-3.471,0.437c-0.245-0.011-0.479,0.157-0.525,0.407c-0.26,1.396-0.492,2.001-1.007,2.459
			c-0.146-0.19-0.256-0.502-0.421-0.987c-0.148-0.437-0.332-0.98-0.63-1.597c-0.082-0.168-0.249-0.277-0.436-0.283
			c-1.471-0.044-2.567-0.227-3.333-0.42c0.644-0.194,1.304-0.436,1.625-0.685c0.208-0.162,0.254-0.457,0.107-0.675
			c-0.64-0.947-1.24-2.231-1.6-3.063C11.112,5.424,12.378,5.861,12.552,6.212z M15,28.991c-7.444,0-13.5-5.149-13.499-11.479
			c0-4.809,3.091-8.828,8.07-10.515c0.219,0.437,0.46,0.887,0.716,1.308c-0.61,0.25-1.666,0.536-2.396,0.697
			C7.693,9.046,7.54,9.206,7.506,9.407s0.057,0.402,0.23,0.509c0.062,0.039,1.518,0.914,4.938,1.063
			c0.199,0.449,0.335,0.851,0.458,1.212c0.271,0.798,0.484,1.429,1.149,1.75c0.07,0.033,0.144,0.05,0.218,0.05
			c0.1,0,0.199-0.03,0.284-0.089c0.977-0.673,1.329-1.469,1.625-2.898c1.338-0.03,3.431-0.298,4.834-1.076
			c0.169-0.094,0.268-0.277,0.256-0.47c-0.012-0.193-0.135-0.362-0.315-0.433c-0.478-0.189-1.04-0.337-1.536-0.467
			c-0.044-0.012-0.091-0.024-0.138-0.037c0.586-0.271,1.194-0.65,1.719-1.122c0.026,0.017,0.047,0.04,0.076,0.052
			C25.81,9.362,28.5,13.123,28.5,17.513C28.5,23.842,22.443,28.991,15,28.991z M3.933,17.512c0-0.276-0.224-0.5-0.5-0.5
			s-0.5,0.224-0.5,0.5c0,2.753,1.403,5.409,3.849,7.288c0.091,0.07,0.198,0.104,0.304,0.104c0.151,0,0.299-0.067,0.397-0.196
			c0.168-0.219,0.127-0.533-0.092-0.701C5.161,22.294,3.933,19.987,3.933,17.512z"/>
	</g>
</g>
</svg>
