<?xml version="1.0" encoding="iso-8859-1"?>
<!-- Generator: Adobe Illustrator 19.0.0, SVG Export Plug-In . SVG Version: 6.00 Build 0)  -->
<svg version="1.1" id="Layer_1" xmlns="http://www.w3.org/2000/svg" xmlns:xlink="http://www.w3.org/1999/xlink" x="0px" y="0px"
	 viewBox="0 0 24 24" style="enable-background:new 0 0 24 24;" xml:space="preserve">
<g>
	<g>
		<path d="M21,14h-4c-0.276,0-0.5,0.224-0.5,0.5v6c0,0.276,0.224,0.5,0.5,0.5h4c0.276,0,0.5-0.224,0.5-0.5v-6
			C21.5,14.224,21.276,14,21,14z M20.5,20h-3v-5h3V20z M23,12H1c-0.276,0-0.5,0.224-0.5,0.5S0.724,13,1,13h22
			c0.276,0,0.5-0.224,0.5-0.5S23.276,12,23,12z M17,11h4c0.276,0,0.5-0.224,0.5-0.5v-8C21.5,2.224,21.276,2,21,2h-4
			c-0.276,0-0.5,0.224-0.5,0.5v8C16.5,10.776,16.724,11,17,11z M17.5,3h3v7h-3V3z M10,11h4c0.276,0,0.5-0.224,0.5-0.5v-10
			C14.5,0.224,14.276,0,14,0h-4C9.724,0,9.5,0.224,9.5,0.5v10C9.5,10.776,9.724,11,10,11z M10.5,1h3v9h-3V1z M14,14h-4
			c-0.276,0-0.5,0.224-0.5,0.5v4c0,0.276,0.224,0.5,0.5,0.5h4c0.276,0,0.5-0.224,0.5-0.5v-4C14.5,14.224,14.276,14,14,14z M13.5,18
			h-3v-3h3V18z M7,14H3c-0.276,0-0.5,0.224-0.5,0.5v9C2.5,23.776,2.724,24,3,24h4c0.276,0,0.5-0.224,0.5-0.5v-9
			C7.5,14.224,7.276,14,7,14z M6.5,23h-3v-8h3V23z M3,11h4c0.276,0,0.5-0.224,0.5-0.5v-4C7.5,6.224,7.276,6,7,6H3
			C2.724,6,2.5,6.224,2.5,6.5v4C2.5,10.776,2.724,11,3,11z M3.5,7h3v3h-3V7z"/>
	</g>
</g>
</svg>
