<?xml version="1.0" encoding="iso-8859-1"?>
<!-- Generator: Adobe Illustrator 19.0.0, SVG Export Plug-In . SVG Version: 6.00 Build 0)  -->
<svg version="1.1" id="Layer_1" xmlns="http://www.w3.org/2000/svg" xmlns:xlink="http://www.w3.org/1999/xlink" x="0px" y="0px"
	 viewBox="0 0 24 24" style="enable-background:new 0 0 24 24;" xml:space="preserve">
<g>
	<g>
		<path d="M20,1.5H4C2.622,1.5,1.5,2.622,1.5,4v16c0,1.378,1.122,2.5,2.5,2.5h16c1.378,0,2.5-1.122,2.5-2.5V4
			C22.5,2.622,21.378,1.5,20,1.5z M12.5,2.5h4v4h-2.051c-0.2-0.978-0.972-1.75-1.949-1.949C12.5,4.551,12.5,2.5,12.5,2.5z M16.5,7.5
			v2.051c-0.978,0.2-1.75,0.972-1.949,1.949H12.5V9.449c0.978-0.2,1.75-0.972,1.949-1.949C14.449,7.5,16.5,7.5,16.5,7.5z M7.5,2.5h4
			v2.051C10.522,4.75,9.75,5.522,9.551,6.5H7.5V2.5z M2.5,4c0-0.827,0.673-1.5,1.5-1.5h2.5v4h-4V4z M2.5,7.5h4v4h-4V7.5z M2.5,12.5
			h4v2.051c-0.978,0.2-1.75,0.972-1.949,1.949H2.5V12.5z M6.5,21.5H4c-0.827,0-1.5-0.673-1.5-1.5v-2.5h2.051
			c0.2,0.978,0.972,1.75,1.949,1.949V21.5z M5.5,17c0-0.827,0.673-1.5,1.5-1.5s1.5,0.673,1.5,1.5S7.827,18.5,7,18.5
			S5.5,17.827,5.5,17z M11.5,21.5h-4v-2.051c0.978-0.2,1.75-0.972,1.949-1.949H11.5V21.5z M11.5,16.5H9.449
			c-0.2-0.978-0.972-1.75-1.949-1.949V12.5h4V16.5z M11.5,11.5h-4v-4h2.051c0.2,0.978,0.972,1.75,1.949,1.949
			C11.5,9.449,11.5,11.5,11.5,11.5z M10.5,7c0-0.827,0.673-1.5,1.5-1.5s1.5,0.673,1.5,1.5S12.827,8.5,12,8.5S10.5,7.827,10.5,7z
			 M16.5,21.5h-4v-4h4V21.5z M16.5,16.5h-4v-4h2.051c0.2,0.978,0.972,1.75,1.949,1.949V16.5z M15.5,12c0-0.827,0.673-1.5,1.5-1.5
			s1.5,0.673,1.5,1.5s-0.673,1.5-1.5,1.5S15.5,12.827,15.5,12z M21.5,20c0,0.827-0.673,1.5-1.5,1.5h-2.5v-4h4V20z M21.5,16.5h-4
			v-2.051c0.978-0.2,1.75-0.972,1.949-1.949H21.5V16.5z M21.5,11.5h-2.051c-0.2-0.978-0.972-1.75-1.949-1.949V7.5h4V11.5z M21.5,6.5
			h-4v-4H20c0.827,0,1.5,0.673,1.5,1.5V6.5z"/>
	</g>
</g>
</svg>
