<?xml version="1.0" encoding="iso-8859-1"?>
<!-- Generator: Adobe Illustrator 19.0.0, SVG Export Plug-In . SVG Version: 6.00 Build 0)  -->
<svg version="1.1" id="Layer_1" xmlns="http://www.w3.org/2000/svg" xmlns:xlink="http://www.w3.org/1999/xlink" x="0px" y="0px"
	 viewBox="0 0 30 30" style="enable-background:new 0 0 30 30;" xml:space="preserve">
<g>
	<g>
		<path d="M26.53,2.102C25.315,0.786,23.995,0,22.963,0c0,0,0,0-0.001,0c-1.76,0.034-2.218,1.216-2.521,1.998
			c-0.106,0.274-0.207,0.532-0.323,0.649c-0.201,0.202-0.672,0.355-1.128,0.502c-0.679,0.221-1.45,0.47-1.907,1.037
			c-0.343,0.425-0.365,1.293-0.379,3.061c-0.017,2.242-0.041,5.312-1.148,6.977c-0.494,0.742-1.959,1.542-4.009,1.542
			c-0.653,0-1.309-0.084-1.983-0.256c-0.617-0.115-1.227-0.173-1.813-0.173c-5.033,0-7.778,4.36-7.778,6.683
			c0,1.488-0.001,3.526,1.713,5.183C3.635,29.084,7.326,30,12.972,30c10.787,0,16.434-9.917,16.999-16.96
			C30.45,7.051,27.724,3.396,26.53,2.102z M13.472,27c-0.276,0-0.5-0.224-0.5-0.5s0.224-0.5,0.5-0.5
			c9.013,0,12.099-8.511,12.501-13.54c0.022-0.275,0.261-0.48,0.539-0.458c0.275,0.022,0.48,0.263,0.458,0.539
			C26.54,17.911,23.214,27,13.472,27z"/>
	</g>
</g>
</svg>
