<?xml version="1.0" encoding="iso-8859-1"?>
<!-- Generator: Adobe Illustrator 19.0.0, SVG Export Plug-In . SVG Version: 6.00 Build 0)  -->
<svg version="1.1" id="Layer_1" xmlns="http://www.w3.org/2000/svg" xmlns:xlink="http://www.w3.org/1999/xlink" x="0px" y="0px"
	 viewBox="0 0 30 30" style="enable-background:new 0 0 30 30;" xml:space="preserve">
<g>
	<g>
		<path d="M24.968,8.901l-0.173-1.214c-0.208-1.447-1.408-2.546-2.842-2.671c-0.11-1.647-0.762-3.18-1.406-4.48l-0.024-0.049
			c-0.036-0.076-0.061-0.141-0.099-0.218c-0.006-0.013-0.022-0.016-0.029-0.028c-0.11-0.189-0.329-0.288-0.542-0.237
			c-0.175,0.041-0.31,0.17-0.362,0.334c-0.136,0.064-0.499,0.152-1.015,0.152c-0.383,0-1.02-0.243-1.141-0.348
			c-0.172-0.177-0.446-0.203-0.647-0.061c-0.201,0.142-0.27,0.41-0.16,0.63c0.867,1.754,1.316,3.17,1.409,4.341
			c-1.179,0.229-2.145,1.115-2.446,2.316c-0.033,0.132-0.009,0.264,0.055,0.373c-1.136,0.745-2.069,2.09-2.069,4.248
			c0,1.334,0,3.819-1.936,7.254c-1.004,1.782-2.447,3.314-4.118,5.089c-0.8,0.85-1.628,1.729-2.507,2.736
			c-0.457,0.521-0.56,1.243-0.269,1.884c0.291,0.643,0.919,1.058,1.599,1.058c0.104,0,0.211-0.009,0.32-0.029
			c4.152-0.757,10.388-3.353,14.299-8.177c1.756-2.166,4.335-6.59,4.608-9.264C25.548,11.816,25.602,10.22,24.968,8.901z
			 M18.476,1.491c0.132,0,0.307-0.008,0.493-0.025c0.043-0.004,0.082-0.005,0.126-0.011c0.236-0.029,0.486-0.079,0.707-0.164
			c0.014,0.03,0.028,0.063,0.042,0.093c0.646,1.412,1.014,2.604,1.106,3.607h-1.995c-0.01-0.132-0.036-0.272-0.054-0.408
			c-0.017-0.126-0.026-0.247-0.05-0.377c-0.024-0.132-0.063-0.272-0.094-0.408c-0.034-0.15-0.062-0.295-0.105-0.451
			c-0.039-0.14-0.093-0.291-0.14-0.437c-0.051-0.161-0.095-0.317-0.156-0.485c-0.115-0.319-0.246-0.649-0.394-0.993
			C18.151,1.47,18.329,1.491,18.476,1.491z M23.484,12.338c-0.188,1.835-2.178,5.748-4.173,8.208
			c-0.099,0.122-0.243,0.185-0.389,0.185c-0.111,0-0.223-0.037-0.314-0.112c-0.215-0.174-0.248-0.489-0.074-0.703
			c1.83-2.256,3.789-6.061,3.956-7.681c0.129-1.261-0.161-2.036-0.322-2.214c-0.185-0.205-0.169-0.521,0.036-0.706
			c0.204-0.187,0.521-0.17,0.706,0.035C23.39,9.882,23.616,11.054,23.484,12.338z M21.976,6.992h-4
			c-0.425-0.001-0.899,0.076-1.376,0.236c0.336-0.722,1.051-1.203,1.865-1.231l0.165,0.03c0.028,0.005,0.059,0.008,0.088,0.008
			h0.008l2.758-0.043h0.202c0.931,0,1.747,0.613,2.032,1.474C23.22,7.16,22.643,6.992,21.976,6.992z"/>
	</g>
</g>
</svg>
