<?xml version="1.0" encoding="iso-8859-1"?>
<!-- Generator: Adobe Illustrator 19.0.0, SVG Export Plug-In . SVG Version: 6.00 Build 0)  -->
<svg version="1.1" id="Layer_1" xmlns="http://www.w3.org/2000/svg" xmlns:xlink="http://www.w3.org/1999/xlink" x="0px" y="0px"
	 viewBox="0 0 30 30" style="enable-background:new 0 0 30 30;" xml:space="preserve">
<g>
	<g>
		<path d="M29.277,18.012c-0.895-4.02-8.554-12.099-11.43-14.873C17.232,2.546,16.5,1.607,16.5,0.499
			c0-0.158-0.075-0.307-0.201-0.401s-0.29-0.123-0.442-0.078c-0.31,0.092-0.48,0.143-0.908,0.143c-0.333,0-0.435-0.031-0.659-0.099
			l-0.152-0.045c-0.154-0.045-0.321-0.012-0.448,0.087S13.494,0.36,13.5,0.521c0.045,1.047-0.708,2.002-1.348,2.619
			C9.278,5.913,1.617,13.992,0.723,18.013c-0.531,2.389-0.107,4.826,1.195,6.865c1.343,2.103,3.465,3.563,5.976,4.111
			c1.034,0.226,2.394,0.22,3.606,0.012h0.313c0.801,0.664,1.873,1,3.188,1c1.279,0,2.294-0.319,3.178-1.002l0.342-0.004
			c1.392,0.224,2.552,0.221,3.586-0.005c2.51-0.548,4.632-2.008,5.976-4.111C29.385,22.838,29.808,20.4,29.277,18.012z
			 M10.427,25.239c0.144,0.236,0.069,0.543-0.167,0.687c-0.082,0.05-0.171,0.073-0.26,0.073c-0.168,0-0.333-0.085-0.427-0.24
			C8.862,24.59,8.5,22.821,8.5,20.499c0-1.619,0.18-4.005,1.035-6.183c0.101-0.258,0.393-0.382,0.648-0.283
			c0.257,0.101,0.384,0.391,0.283,0.648c-0.798,2.032-0.965,4.285-0.965,5.817C9.5,22.635,9.813,24.229,10.427,25.239z
			 M20.427,25.759c-0.094,0.154-0.259,0.24-0.427,0.24c-0.089,0-0.178-0.023-0.26-0.073c-0.236-0.144-0.311-0.451-0.167-0.687
			c0.615-1.01,0.927-2.604,0.927-4.74c0-1.532-0.167-3.785-0.965-5.817c-0.101-0.257,0.025-0.547,0.283-0.648
			c0.256-0.1,0.547,0.025,0.648,0.283c0.855,2.177,1.035,4.564,1.035,6.183C21.5,22.821,21.139,24.59,20.427,25.759z"/>
	</g>
</g>
</svg>
