<?xml version="1.0" encoding="iso-8859-1"?>
<!-- Generator: Adobe Illustrator 19.0.0, SVG Export Plug-In . SVG Version: 6.00 Build 0)  -->
<svg version="1.1" id="Layer_1" xmlns="http://www.w3.org/2000/svg" xmlns:xlink="http://www.w3.org/1999/xlink" x="0px" y="0px"
	 viewBox="0 0 30 30" style="enable-background:new 0 0 30 30;" xml:space="preserve">
<g>
	<g>
		<path d="M24.356,5.641C20.605,2.096,15.663-0.02,11.137-0.02c-3.28,0-6.042,1.101-7.989,3.183c-2.14,2.288-3.275,5.711-3.115,9.39
			c0.195,4.466,2.252,8.775,5.646,11.823c3.992,3.586,8.779,5.643,13.133,5.643c3.224,0,5.984-1.125,7.984-3.254
			C31.872,21.362,30.755,11.688,24.356,5.641z M13.552,7.823c-0.377,1.303-1.251,2.571-2.461,3.57
			c-1.358,1.122-2.983,1.765-4.458,1.765c-1.203,0-2.223-0.434-2.873-1.221c-0.747-0.904-0.939-2.156-0.542-3.528
			c0.377-1.303,1.251-2.571,2.461-3.57c1.358-1.122,2.983-1.765,4.459-1.765c1.203,0,2.223,0.434,2.874,1.221
			C13.757,5.198,13.949,6.451,13.552,7.823z M26.535,19.005h-0.022c-0.266,0-0.487-0.209-0.499-0.478
			c-0.13-2.93-1.705-7.519-4.854-10.668c-0.195-0.195-0.195-0.512,0-0.707s0.512-0.195,0.707,0c2.86,2.861,4.977,7.521,5.146,11.332
			C27.025,18.758,26.811,18.992,26.535,19.005z"/>
	</g>
</g>
</svg>
