<?xml version="1.0" encoding="iso-8859-1"?>
<!-- Generator: Adobe Illustrator 19.0.0, SVG Export Plug-In . SVG Version: 6.00 Build 0)  -->
<svg version="1.1" id="Layer_1" xmlns="http://www.w3.org/2000/svg" xmlns:xlink="http://www.w3.org/1999/xlink" x="0px" y="0px"
	 viewBox="0 0 30 30" style="enable-background:new 0 0 30 30;" xml:space="preserve">
<g>
	<g>
		<path d="M27.182,2.983c-1.921-1.922-4.716-2.98-7.869-2.98c-4.606,0-9.593,2.236-13.338,5.98c-6.561,6.56-7.935,16.271-3,21.207
			c1.836,1.836,4.343,2.807,7.25,2.807c4.478,0,9.508-2.357,13.458-6.307c3.235-3.234,5.394-7.126,6.079-10.958
			C30.462,8.809,29.546,5.347,27.182,2.983z M8.489,25.997c-0.276,0-0.5-0.224-0.5-0.5c0-0.827-0.673-1.5-1.5-1.5
			c-0.276,0-0.5-0.224-0.5-0.5s0.224-0.5,0.5-0.5c1.378,0,2.5,1.122,2.5,2.5C8.989,25.773,8.765,25.997,8.489,25.997z M8.489,16.997
			c-0.276,0-0.5-0.224-0.5-0.5c0-0.827-0.673-1.5-1.5-1.5c-0.276,0-0.5-0.224-0.5-0.5s0.224-0.5,0.5-0.5c1.378,0,2.5,1.122,2.5,2.5
			C8.989,16.773,8.765,16.997,8.489,16.997z M16.489,8.997c-0.276,0-0.5-0.224-0.5-0.5c0-0.827-0.673-1.5-1.5-1.5
			c-0.276,0-0.5-0.224-0.5-0.5s0.224-0.5,0.5-0.5c1.378,0,2.5,1.122,2.5,2.5C16.989,8.773,16.765,8.997,16.489,8.997z
			 M20.489,18.997c-0.276,0-0.5-0.224-0.5-0.5c0-0.827-0.673-1.5-1.5-1.5c-0.276,0-0.5-0.224-0.5-0.5s0.224-0.5,0.5-0.5
			c1.378,0,2.5,1.122,2.5,2.5C20.989,18.773,20.765,18.997,20.489,18.997z M25.489,8.997c-0.276,0-0.5-0.224-0.5-0.5
			c0-0.827-0.673-1.5-1.5-1.5c-0.276,0-0.5-0.224-0.5-0.5s0.224-0.5,0.5-0.5c1.378,0,2.5,1.122,2.5,2.5
			C25.989,8.773,25.765,8.997,25.489,8.997z"/>
	</g>
</g>
</svg>
