<?xml version="1.0" encoding="utf-8"?>
<!-- Generator: Adobe Illustrator 19.0.0, SVG Export Plug-In . SVG Version: 6.00 Build 0)  -->
<svg version="1.1" id="Layer_1" xmlns="http://www.w3.org/2000/svg" xmlns:xlink="http://www.w3.org/1999/xlink" x="0px" y="0px"
	 viewBox="0 0 30 30" style="enable-background:new 0 0 30 30;" xml:space="preserve">
<g>
	<g>
		<g>
			<path d="M4.5,29c-0.1,0-0.2,0-0.3-0.1C4,28.8,4,28.5,4,28.3L6.8,21H4.3C1.9,21,0,19.1,0,16.8V4.3C0,1.9,1.9,0,4.3,0h20.5
				C27.1,0,29,1.9,29,4.3v10.3c0,0.3-0.2,0.5-0.5,0.5S28,14.8,28,14.5V4.3C28,2.5,26.5,1,24.8,1H4.3C2.5,1,1,2.5,1,4.3v12.5
				C1,18.5,2.5,20,4.3,20h3.3c0.2,0,0.3,0.1,0.4,0.2C8,20.3,8,20.5,8,20.7L5.6,27l8.6-6.9c0.1-0.1,0.2-0.1,0.3-0.1h1
				c0.3,0,0.5,0.2,0.5,0.5S15.8,21,15.5,21h-0.8l-9.9,7.9C4.7,29,4.6,29,4.5,29z"/>
		</g>
		<g>
			<path d="M8,12c-1.1,0-2-0.9-2-2s0.9-2,2-2s2,0.9,2,2S9.1,12,8,12z M8,9c-0.6,0-1,0.4-1,1s0.4,1,1,1s1-0.4,1-1S8.6,9,8,9z"/>
		</g>
		<g>
			<path d="M14,12c-1.1,0-2-0.9-2-2s0.9-2,2-2s2,0.9,2,2S15.1,12,14,12z M14,9c-0.6,0-1,0.4-1,1s0.4,1,1,1s1-0.4,1-1S14.6,9,14,9z"
				/>
		</g>
		<g>
			<path d="M20,12c-1.1,0-2-0.9-2-2s0.9-2,2-2s2,0.9,2,2S21.1,12,20,12z M20,9c-0.6,0-1,0.4-1,1s0.4,1,1,1s1-0.4,1-1S20.6,9,20,9z"
				/>
		</g>
	</g>
	<g>
		<path d="M29.5,20h-12c-0.3,0-0.5-0.2-0.5-0.5v-1.8c0-1,0.8-1.8,1.8-1.8h9.5c1,0,1.8,0.8,1.8,1.8v1.8C30,19.8,29.8,20,29.5,20z
			 M18,19h11v-1.3c0-0.4-0.3-0.8-0.8-0.8h-9.5c-0.4,0-0.8,0.3-0.8,0.8V19z"/>
	</g>
	<g>
		<path d="M26.5,30h-6c-0.2,0-0.4-0.2-0.5-0.4l-2-10c-0.1-0.3,0.1-0.5,0.4-0.6c0.3-0.1,0.5,0.1,0.6,0.4l1.9,9.6h5.2l1.9-9.6
			c0.1-0.3,0.3-0.4,0.6-0.4c0.3,0.1,0.4,0.3,0.4,0.6l-2,10C26.9,29.8,26.7,30,26.5,30z"/>
	</g>
	<g>
		<path d="M22.5,27c-0.2,0-0.4-0.2-0.5-0.4l-1-5c-0.1-0.3,0.1-0.5,0.4-0.6c0.3-0.1,0.5,0.1,0.6,0.4l1,5C23,26.7,22.9,26.9,22.5,27
			C22.6,27,22.5,27,22.5,27z"/>
	</g>
	<g>
		<path d="M24.5,27C24.5,27,24.4,27,24.5,27c-0.4-0.1-0.5-0.3-0.5-0.6l1-5c0.1-0.3,0.3-0.4,0.6-0.4c0.3,0.1,0.4,0.3,0.4,0.6l-1,5
			C24.9,26.8,24.7,27,24.5,27z"/>
	</g>
	<g>
		<path d="M23.5,17c-0.3,0-0.5-0.2-0.5-0.5v-1c0-0.3,0.2-0.5,0.5-0.5s0.5,0.2,0.5,0.5v1C24,16.8,23.8,17,23.5,17z"/>
	</g>
</g>
</svg>
