<?xml version="1.0" encoding="utf-8"?>
<!-- Generator: Adobe Illustrator 19.0.0, SVG Export Plug-In . SVG Version: 6.00 Build 0)  -->
<svg version="1.1" id="Layer_1" xmlns="http://www.w3.org/2000/svg" xmlns:xlink="http://www.w3.org/1999/xlink" x="0px" y="0px"
	 viewBox="0 0 30 30" style="enable-background:new 0 0 30 30;" xml:space="preserve">
<g>
	<g id="XMLID_46_">
		<path d="M1,30c-0.1,0-0.1,0-0.2,0c-0.2-0.1-0.3-0.3-0.3-0.5v-24C0.5,2.5,3,0,6,0h18c3,0,5.5,2.5,5.5,5.5v11c0,3-2.5,5.5-5.5,5.5
			H7.3l-5.8,7.8C1.3,29.9,1.2,30,1,30z M6,1C3.5,1,1.5,3,1.5,5.5V28l5.1-6.8C6.7,21.1,6.8,21,7,21h17c2.5,0,4.5-2,4.5-4.5v-11
			C28.5,3,26.5,1,24,1H6z"/>
	</g>
	<g>
		<path d="M8.5,14c-1.1,0-2-0.9-2-2s0.9-2,2-2s2,0.9,2,2S9.6,14,8.5,14z M8.5,11c-0.6,0-1,0.4-1,1s0.4,1,1,1s1-0.4,1-1
			S9.1,11,8.5,11z"/>
	</g>
	<g>
		<path d="M14.5,14c-1.1,0-2-0.9-2-2s0.9-2,2-2s2,0.9,2,2S15.6,14,14.5,14z M14.5,11c-0.6,0-1,0.4-1,1s0.4,1,1,1s1-0.4,1-1
			S15.1,11,14.5,11z"/>
	</g>
	<g>
		<path d="M20.5,14c-1.1,0-2-0.9-2-2s0.9-2,2-2s2,0.9,2,2S21.6,14,20.5,14z M20.5,11c-0.6,0-1,0.4-1,1s0.4,1,1,1s1-0.4,1-1
			S21.1,11,20.5,11z"/>
	</g>
</g>
</svg>
