<?xml version="1.0" encoding="utf-8"?>
<!-- Generator: Adobe Illustrator 19.0.0, SVG Export Plug-In . SVG Version: 6.00 Build 0)  -->
<svg version="1.1" id="Layer_1" xmlns="http://www.w3.org/2000/svg" xmlns:xlink="http://www.w3.org/1999/xlink" x="0px" y="0px"
	 viewBox="0 0 30 30" style="enable-background:new 0 0 30 30;" xml:space="preserve">
<g>
	<g>
		<path d="M19,29H8c-1.7,0-3-1.3-3-3v-7.3l-4.9-4.9C0,13.7,0,13.5,0,13.3S0.3,13,0.5,13H19c1.7,0,3,1.3,3,3v10
			C22,27.7,20.7,29,19,29z M1.7,14l4.1,4.1C5.9,18.2,6,18.4,6,18.5V26c0,1.1,0.9,2,2,2h11c1.1,0,2-0.9,2-2V16c0-1.1-0.9-2-2-2H1.7z"
			/>
	</g>
	<g>
		<path d="M17.5,17h-8C9.2,17,9,16.8,9,16.5S9.2,16,9.5,16h8c0.3,0,0.5,0.2,0.5,0.5S17.8,17,17.5,17z"/>
	</g>
	<g>
		<path d="M17.5,21h-8C9.2,21,9,20.8,9,20.5S9.2,20,9.5,20h8c0.3,0,0.5,0.2,0.5,0.5S17.8,21,17.5,21z"/>
	</g>
	<g>
		<path d="M17.5,25h-8C9.2,25,9,24.8,9,24.5S9.2,24,9.5,24h8c0.3,0,0.5,0.2,0.5,0.5S17.8,25,17.5,25z"/>
	</g>
	<g>
		<path d="M22,17c-0.3,0-0.5-0.2-0.5-0.5S21.7,16,22,16c1.1,0,2-0.9,2-2V6.5c0-0.1,0.1-0.3,0.1-0.4L28.3,2H10C8.9,2,8,2.9,8,4v9.5
			C8,13.8,7.8,14,7.5,14S7,13.8,7,13.5V4c0-1.7,1.3-3,3-3h19.5c0.2,0,0.4,0.1,0.5,0.3s0,0.4-0.1,0.5L25,6.7V14
			C25,15.7,23.7,17,22,17z"/>
	</g>
	<g>
		<path d="M20.5,6h-9C11.2,6,11,5.8,11,5.5S11.2,5,11.5,5h9C20.8,5,21,5.2,21,5.5S20.8,6,20.5,6z"/>
	</g>
	<g>
		<path d="M20.5,10h-9C11.2,10,11,9.8,11,9.5S11.2,9,11.5,9h9C20.8,9,21,9.2,21,9.5S20.8,10,20.5,10z"/>
	</g>
</g>
</svg>
