<?xml version="1.0" encoding="utf-8"?>
<!-- Generator: Adobe Illustrator 19.0.0, SVG Export Plug-In . SVG Version: 6.00 Build 0)  -->
<svg version="1.1" id="Layer_1" xmlns="http://www.w3.org/2000/svg" xmlns:xlink="http://www.w3.org/1999/xlink" x="0px" y="0px"
	 viewBox="0 0 30 30" style="enable-background:new 0 0 30 30;" xml:space="preserve">
<path d="M17.5,13c1.6,0,3.2-0.7,3.4-2.1c0.6-0.2,1.1-0.8,1.1-1.4C22,8.7,21.3,8,20.5,8S19,8.7,19,9.5c0,0.6,0.4,1.2,0.9,1.4
	c-0.3,0.8-1.6,1.1-2.4,1.1H17V1.5C17,0.7,16.3,0,15.5,0h-1C13.7,0,13,0.7,13,1.5V9h-0.5c-0.8,0-2.1-0.3-2.4-1.1
	C10.6,7.7,11,7.1,11,6.5C11,5.7,10.3,5,9.5,5S8,5.7,8,6.5c0,0.7,0.4,1.2,1.1,1.4c0.3,1.4,1.9,2.1,3.4,2.1H13v6h-0.5
	c-0.8,0-2.1-0.3-2.4-1.1c0.5-0.2,0.9-0.8,0.9-1.4c0-0.8-0.7-1.5-1.5-1.5S8,12.7,8,13.5c0,0.7,0.4,1.2,1.1,1.4
	c0.3,1.4,1.9,2.1,3.4,2.1H13v8.1c-2.1,0.4-4,2.4-4,4.4C9,29.8,9.2,30,9.5,30h11c0.3,0,0.5-0.2,0.5-0.5c0-2-1.9-4-4-4.4V13H17.5z"/>
</svg>
