<?xml version="1.0" encoding="utf-8"?>
<!-- Generator: Adobe Illustrator 19.0.0, SVG Export Plug-In . SVG Version: 6.00 Build 0)  -->
<svg version="1.1" id="Layer_1" xmlns="http://www.w3.org/2000/svg" xmlns:xlink="http://www.w3.org/1999/xlink" x="0px" y="0px"
	 viewBox="0 0 30 30" style="enable-background:new 0 0 30 30;" xml:space="preserve">
<g>
	<path d="M15.1,23c-5.9,0-6.9,0.7-7.1,0.8c0.3,0.3,1.7,1.2,7,1.2c5.2,0,6.6-0.9,6.9-1.1c0,0,0,0,0-0.1C21.8,23.7,20.7,23,15.1,23z"
		/>
	<path d="M27.6,19c-0.3,0-0.8,0.1-1.7,0.2c-0.3,0-0.6,0.1-0.9,0.1C25.1,16.2,25.4,7.9,26,5c0.1-0.8-0.3-1.6-1-1.9
		c-1.3-0.6-4.8-2-10-2c-4.8,0-8.2,1.7-9.8,2.4L5,3.5C4.3,3.9,3.9,4.7,4,5.4C4.6,8.2,4.8,15.9,5,19.3c-0.3,0-0.7-0.1-0.9-0.1
		C3.1,19.1,2.6,19,2.4,19c-1,0-2.4,0.3-2.4,3c0,3.4,7.7,7,15,7s15-3.6,15-7C30,19.3,28.6,19,27.6,19z M23,24.1
		c-0.4,1.2-3.3,1.9-8,1.9c-4.6,0-7.6-0.7-8-1.9c-0.1-0.3,0-0.6,0.2-0.8c0.6-0.8,3.3-1.3,7.9-1.3c4.7,0,7.2,0.5,7.7,1.3
		C23,23.5,23.1,23.8,23,24.1z M23.2,18.2c-0.1,0.2-0.3,0.3-0.5,0.3c-0.1,0-0.1,0-0.2,0C20,17.4,15,17,14.9,17c0,0-5.2,0.4-7.7,1.5
		c-0.3,0.1-0.5,0-0.7-0.3c-0.1-0.3,0-0.5,0.3-0.7c2.7-1.1,7.9-1.5,8.1-1.5c0.3,0,5.3,0.4,8,1.5C23.2,17.6,23.3,17.9,23.2,18.2z"/>
</g>
</svg>
