<?xml version="1.0" encoding="utf-8"?>
<!-- Generator: Adobe Illustrator 19.0.0, SVG Export Plug-In . SVG Version: 6.00 Build 0)  -->
<svg version="1.1" id="Layer_1" xmlns="http://www.w3.org/2000/svg" xmlns:xlink="http://www.w3.org/1999/xlink" x="0px" y="0px"
	 viewBox="0 0 30 30" style="enable-background:new 0 0 30 30;" xml:space="preserve">
<path d="M22,6.4l-1-4.9v-1C21,0.2,20.8,0,20.5,0L18,0v1.4c0,0.3-0.2,0.5-0.5,0.5S17,1.7,17,1.4V0l-4,0v1.4c0,0.3-0.2,0.5-0.5,0.5
	S12,1.7,12,1.4V0L9.5,0C9.4,0,9.2,0.1,9.1,0.1S9,0.4,9,0.5l0,0.9l-1,5c0,0,0,0.1,0,0.1l1,23C9,29.8,9.2,30,9.5,30h4
	c0.3,0,0.5-0.2,0.5-0.5l1-15l0,0l1,15c0,0.3,0.2,0.5,0.5,0.5h4c0.3,0,0.5-0.2,0.5-0.5l1-23C22,6.5,22,6.4,22,6.4z"/>
</svg>
