<?xml version="1.0" encoding="utf-8"?>
<!-- Generator: Adobe Illustrator 19.0.0, SVG Export Plug-In . SVG Version: 6.00 Build 0)  -->
<svg version="1.1" id="Layer_1" xmlns="http://www.w3.org/2000/svg" xmlns:xlink="http://www.w3.org/1999/xlink" x="0px" y="0px"
	 viewBox="0 0 30 30" style="enable-background:new 0 0 30 30;" xml:space="preserve">
<g>
	<path d="M10,2.2l0,1.8l3.3,0.6l-3.3-3C10,1.9,10,2.1,10,2.2z"/>
	<polygon points="15,19.7 16,18.4 15,11.5 14,18.4 	"/>
	<path d="M14.9,6l-1.4-0.3v0.5L15,7.3l1-1V5.8L15.1,6C15.1,6,15,6,14.9,6C15,6,14.9,6,14.9,6z"/>
	<path d="M20,2.2c0-0.2,0-0.4,0-0.5l-0.2,0.1l-3.2,2.8L20,4.1L20,2.2z"/>
	<path d="M10.9,1.1L15,4.8l4.2-3.7l0.5-0.5C19.2,0.2,18.6,0,18,0l-6,0c-0.6,0-1.2,0.2-1.7,0.6L10.9,1.1z"/>
	<path d="M29.8,6.1l-6.9-4.3c-0.6-0.3-1.2-0.6-1.8-0.7c0,0.3,0,0.6,0,1.1l0,2.3c0,0.2-0.2,0.4-0.4,0.5L17,5.6v0.9
		c0,0.1-0.1,0.3-0.1,0.4l-1.3,1.3L17,18.4c0,0.1,0,0.3-0.1,0.4l-1.5,2C15.3,20.9,15.2,21,15,21s-0.3-0.1-0.4-0.2l-1.5-2
		C13,18.7,13,18.6,13,18.4l1.5-10.2l-1.8-1.3c-0.1-0.1-0.2-0.2-0.2-0.4V5.6L9.4,5C9.2,4.9,9,4.7,9,4.5l0-2.3c0-0.5,0-0.8,0-1.1
		C8.3,1.2,7.7,1.5,7.1,1.8L0.2,6.3C0,6.5-0.1,6.8,0.1,7l3.5,6.2c0.1,0.1,0.2,0.2,0.3,0.2c0.1,0,0.3,0,0.4-0.1l1.7-1L5,28.5
		c0,0.2,0.1,0.5,0.4,0.5c0.2,0,4,1,9.6,1s9.5-1,9.6-1c0.2-0.1,0.4-0.3,0.4-0.5l-0.9-16l2.2,1.4c0.1,0.1,0.3,0.1,0.4,0.1
		c0.1,0,0.3-0.1,0.3-0.3l3-7C30.1,6.5,30,6.2,29.8,6.1z"/>
</g>
</svg>
