<?xml version="1.0" encoding="utf-8"?>
<!-- Generator: Adobe Illustrator 19.0.0, SVG Export Plug-In . SVG Version: 6.00 Build 0)  -->
<svg version="1.1" id="Layer_1" xmlns="http://www.w3.org/2000/svg" xmlns:xlink="http://www.w3.org/1999/xlink" x="0px" y="0px"
	 viewBox="0 0 30 30" style="enable-background:new 0 0 30 30;" xml:space="preserve">
<g>
	<g>
		<path d="M12.1,22.3c-0.3,0.2-0.6,0.4-1,0.6c-0.1,0-0.1,0-0.2,0c-0.2,0-0.4-0.1-0.5-0.3c-0.1-0.3,0-0.5,0.2-0.7
			c0.2-0.1,0.4-0.2,0.6-0.3c0.2-0.1,0.3-0.2,0.5-0.3c0,0,0,0,0,0l0,0c1.4-1.1,2.2-2.8,2.2-4.8c0-2.6-1.6-4.4-3.2-6.1
			c-0.3-0.3-0.5-0.6-0.8-0.9C9.9,9.3,9.8,9.2,9.7,9.1C9.5,8.9,9.4,8.7,9.2,8.5C9,8.3,8.8,8,8.6,7.6c0,0,0-0.1-0.1-0.1
			c-0.2-0.3-0.4-0.7-0.5-1c0,0,0-0.1,0-0.1c0-0.1,0-0.1,0-0.2V5.5C8,5.2,7.8,5,7.5,5S7,5.2,7,5.5v0.8c0,0.1,0,0.1,0,0.2
			C6.7,7.1,6.1,7.9,5.3,8.9C5.2,9,5.2,9.1,5.1,9.1C5,9.2,4.9,9.3,4.9,9.4C4.8,9.5,4.7,9.6,4.6,9.8c-0.1,0.2-0.3,0.3-0.4,0.5
			c0,0.1-0.1,0.1-0.1,0.2c-1.6,2-3.1,4.4-3.1,7.1c0,2.5,1.5,3.1,2.7,3.6c0.1,0,0.1,0.1,0.2,0.1c0.2,0.1,0.5,0.2,0.7,0.3
			c0,0,0,0,0.1,0c0.2,0.1,0.4,0.2,0.6,0.4c0.2,0.2,0.2,0.5,0,0.7s-0.5,0.2-0.7,0c-0.1-0.1-0.2-0.2-0.4-0.2c0.1,0.8,0.2,1.5,0.3,2.1
			c0.1,0.5,0.1,0.9,0.2,1.4c0.3,2,1.6,4.2,4,4.2c0.1,0,0.2,0,0.3,0c1.3-0.1,2.5-0.7,3.3-1.6c0.7-0.8,1-1.7,0.9-2.7
			C12.9,24.8,12.5,23.6,12.1,22.3C12.1,22.4,12.1,22.3,12.1,22.3z M11.5,20.3c-0.3-1-0.5-2-0.5-2.9c0-1.2,0.2-2.5,0.5-3.8
			c0-0.2,0.1-0.5,0.1-0.8c0.8,1.1,1.4,2.2,1.4,3.7C13,18,12.4,19.4,11.5,20.3z M2,17.5c0-0.6,0.1-1.1,0.2-1.6c0,0,0,0,0,0
			c0.3,0.6,0.6,1.3,0.9,2.2c0.2,0.7,0.3,1.3,0.5,1.8C2.7,19.6,2,19.1,2,17.5z"/>
		<path d="M4.3,8.5C5,7.7,5.7,6.8,6,6.2V5.5C6,4.7,6.7,4,7.5,4S9,4.7,9,5.5v0.7c0.6,1.3,1.6,2.4,2.6,3.5c0.1,0.1,0.2,0.3,0.4,0.4
			C12,9.3,12,8.4,12,7.5C11.8,4.5,11.6,0,7.7,0L7.5,0C4.9,0,1,4,1,9.5c0,1.5,0.1,2.6,0.3,3.4C2.1,11.3,3.3,9.8,4.3,8.5z"/>
	</g>
	<g>
		<path d="M7.5,7C7.2,7,7,6.8,7,6.5v-1C7,5.2,7.2,5,7.5,5S8,5.2,8,5.5v1C8,6.8,7.8,7,7.5,7z"/>
	</g>
	<g>
		<path d="M17.9,22.4c-0.4,1.2-0.8,2.4-0.9,3.3c-0.1,1,0.2,1.9,0.9,2.7c0.8,0.9,2,1.5,3.3,1.6c0.1,0,0.2,0,0.3,0
			c2.4,0,3.7-2.2,4-4.2c0.1-0.5,0.1-0.9,0.2-1.4c0.1-0.6,0.1-1.3,0.3-2.1c-0.1,0.1-0.3,0.2-0.4,0.2c-0.2,0.2-0.5,0.2-0.7,0
			s-0.2-0.5,0-0.7c0.2-0.2,0.3-0.3,0.6-0.4c0,0,0,0,0.1,0c0.2-0.1,0.4-0.2,0.7-0.3c0.1,0,0.1-0.1,0.2-0.1c1.2-0.5,2.7-1,2.7-3.6
			c0-2.6-1.5-5-3.1-7.1c0-0.1-0.1-0.1-0.1-0.2c-0.1-0.2-0.3-0.3-0.4-0.5c-0.1-0.1-0.2-0.2-0.2-0.3c-0.1-0.1-0.2-0.2-0.2-0.3
			c-0.1-0.1-0.1-0.1-0.2-0.2c-0.8-1-1.4-1.8-1.7-2.5c0-0.1,0-0.1,0-0.2V5.5C23,5.2,22.8,5,22.5,5S22,5.2,22,5.5v0.8
			c0,0.1,0,0.1,0,0.2c0,0,0,0.1,0,0.1c-0.1,0.4-0.3,0.7-0.5,1c0,0,0,0.1-0.1,0.1C21.2,8,21,8.3,20.8,8.5c-0.1,0.2-0.3,0.3-0.4,0.5
			c-0.1,0.1-0.2,0.3-0.3,0.4c-0.3,0.3-0.5,0.6-0.8,0.9c-1.6,1.7-3.2,3.5-3.2,6.1c0,2,0.8,3.7,2.2,4.8l0,0c0,0,0,0,0,0
			c0.2,0.1,0.3,0.2,0.5,0.3c0.2,0.1,0.4,0.2,0.6,0.3c0.3,0.1,0.4,0.4,0.2,0.7c-0.1,0.2-0.3,0.3-0.5,0.3c-0.1,0-0.1,0-0.2,0
			C18.5,22.7,18.2,22.5,17.9,22.4C17.9,22.3,17.9,22.4,17.9,22.4z M17,16.5c0-1.4,0.6-2.6,1.4-3.7c0,0.3,0.1,0.5,0.1,0.8
			c0.2,1.4,0.4,2.6,0.5,3.8c0,0.9-0.2,1.9-0.5,2.9C17.6,19.4,17,18,17,16.5z M26.4,20c0.1-0.6,0.3-1.2,0.5-1.8
			c0.3-0.9,0.6-1.6,0.9-2.2c0,0,0,0,0,0c0.1,0.5,0.2,1.1,0.2,1.6C28,19.1,27.3,19.6,26.4,20z"/>
		<path d="M25.7,8.5C25,7.7,24.3,6.8,24,6.2V5.5C24,4.7,23.3,4,22.5,4S21,4.7,21,5.5v0.7c-0.6,1.3-1.6,2.4-2.6,3.5
			c-0.1,0.1-0.2,0.3-0.4,0.4C18,9.3,18,8.4,18,7.5c0.2-3,0.4-7.5,4.3-7.5l0.2,0C25.1,0,29,4,29,9.5c0,1.5-0.1,2.6-0.3,3.4
			C27.9,11.3,26.7,9.8,25.7,8.5z"/>
	</g>
</g>
</svg>
