<?xml version="1.0" encoding="utf-8"?>
<!-- Generator: Adobe Illustrator 19.0.0, SVG Export Plug-In . SVG Version: 6.00 Build 0)  -->
<svg version="1.1" id="Layer_1" xmlns="http://www.w3.org/2000/svg" xmlns:xlink="http://www.w3.org/1999/xlink" x="0px" y="0px"
	 viewBox="0 0 30 30" style="enable-background:new 0 0 30 30;" xml:space="preserve">
<g>
	<path d="M9.3,5c0-0.9,0.1-1.7,0.5-2.2C10,2.3,10.4,2.1,10.9,2c0.3,0,0.5,0.1,0.6,0.4c0,0.3-0.1,0.5-0.4,0.6c-0.2,0-0.4,0.1-0.5,0.3
		c-0.2,0.4-0.3,0.9-0.3,1.7h9.5c0-0.7-0.1-1.3-0.3-1.7C19.3,3.1,19.2,3,18.9,3c-0.3,0-0.5-0.3-0.4-0.6c0-0.3,0.3-0.4,0.6-0.4
		c0.5,0.1,0.9,0.3,1.2,0.7c0.4,0.5,0.5,1.3,0.5,2.2h6.8V3c0-1.7-1.3-3-3-3h-20c-1.7,0-3,1.3-3,3l0,2H9.3z"/>
	<path d="M27.7,6h-7c-0.1,1-0.3,2.1-0.5,3.3c-0.3,1.5-0.6,3-0.6,4.2c0,0.3-0.2,0.5-0.5,0.5c0,0,0,0,0,0c-0.3,0-0.5-0.2-0.5-0.5
		c0-1.3,0.3-2.9,0.6-4.4c0.2-1,0.4-2.1,0.5-3.1h-9.3c0.1,1,0.3,2.1,0.5,3.1c0.3,1.5,0.6,3.1,0.6,4.4c0,0.3-0.2,0.5-0.5,0.5
		c0,0,0,0,0,0c-0.3,0-0.5-0.2-0.5-0.5c0-1.2-0.3-2.7-0.6-4.2C9.7,8.1,9.4,7,9.3,6H1.4c-0.3,1.5-0.9,5.7-0.9,8.9c0,3.8,1,14.2,1,14.7
		C1.5,29.8,1.7,30,2,30h11.5c0.3,0,0.5-0.2,0.5-0.4l0.9-9l0.6,9c0,0.3,0.2,0.5,0.5,0.5h11c0.2,0,0.4-0.2,0.5-0.4
		c0.1-0.4,2-10.8,2-14.6C29.5,11.9,28.2,7.6,27.7,6z"/>
</g>
</svg>
