<?xml version="1.0" encoding="iso-8859-1"?>
<!-- Generator: Adobe Illustrator 19.0.0, SVG Export Plug-In . SVG Version: 6.00 Build 0)  -->
<svg version="1.1" id="Layer_1" xmlns="http://www.w3.org/2000/svg" xmlns:xlink="http://www.w3.org/1999/xlink" x="0px" y="0px"
	 viewBox="0 0 30 30" style="enable-background:new 0 0 30 30;" xml:space="preserve">
<g>
	<g>
		<path d="M29.928,29.222L21.966,3.347c-0.053-0.172-0.193-0.302-0.369-0.341l-13.5-3c-0.042-0.009-0.085-0.002-0.128,0
			c-0.023,0.001-0.043-0.004-0.065,0C7.827,0.019,7.753,0.046,7.69,0.093c-0.007,0.005-0.01,0.014-0.017,0.02
			C7.668,0.117,7.662,0.116,7.657,0.12l-4.5,4C3.067,4.2,3.009,4.31,2.993,4.43l-3,23c-0.005,0.042,0.003,0.082,0.008,0.123
			C0.003,27.57,0,27.585,0.004,27.602c0.016,0.071,0.046,0.136,0.09,0.194c0.003,0.004,0.003,0.008,0.005,0.012
			c0.01,0.012,0.025,0.018,0.036,0.029c0.034,0.035,0.071,0.066,0.114,0.091c0.023,0.013,0.046,0.021,0.07,0.03
			c0.023,0.008,0.042,0.023,0.066,0.028c0.035,0.007,0.069,0.011,0.104,0.011c0.011,0,0.022,0,0.033-0.001l14.906-0.994l7.911,2.472
			c0.029,0.009,0.06,0.01,0.09,0.014c0.006,0.001,0.011,0.006,0.017,0.007l6,0.5c0.015,0.001,0.028,0.002,0.042,0.002
			c0.008,0.001,0.015,0.001,0.02,0c0.276,0,0.5-0.224,0.5-0.5C30.009,29.393,29.979,29.3,29.928,29.222z M5.011,10.354L1.812,21.23
			L3.961,4.744l3.442-3.059L7,7.327l-1.926,2.89C5.046,10.259,5.024,10.305,5.011,10.354z M8.091,22.098l2.34-10.299l1.151-0.767
			l3.519,0.88l3.721,11.16l-3.319,0.416L8.091,22.098z M15.989,26.127v-1.692l3.562-0.445c0.148-0.019,0.28-0.103,0.36-0.229
			c0.08-0.126,0.099-0.282,0.052-0.425l-4-12c-0.055-0.162-0.188-0.285-0.354-0.327l-4-1c-0.136-0.033-0.281-0.01-0.398,0.069
			L9.889,10.96l-3.58-0.796l1.305-1.958L7.718,8.05l9.379,1.876l5.634,18.308L15.989,26.127z"/>
	</g>
</g>
</svg>
