<?xml version="1.0" encoding="iso-8859-1"?>
<!-- Generator: Adobe Illustrator 19.0.0, SVG Export Plug-In . SVG Version: 6.00 Build 0)  -->
<svg version="1.1" id="Layer_1" xmlns="http://www.w3.org/2000/svg" xmlns:xlink="http://www.w3.org/1999/xlink" x="0px" y="0px"
	 viewBox="0 0 30 30" style="enable-background:new 0 0 30 30;" xml:space="preserve">
<g>
	<g>
		<path d="M29.499,12h-5.5V6.5c0-0.276-0.224-0.5-0.5-0.5h-14c-0.276,0-0.5,0.224-0.5,0.5V17h-2V5h0.5
			c0.215,0,0.406-0.138,0.475-0.342l1-3c0.051-0.152,0.025-0.32-0.069-0.451C8.811,1.078,8.661,1,8.5,1H4.999V0.5
			c0-0.276-0.224-0.5-0.5-0.5s-0.5,0.224-0.5,0.5V1h-3.5C0.338,1,0.187,1.076,0.094,1.208c-0.095,0.13-0.12,0.298-0.069,0.451l1,3
			C1.093,4.862,1.285,5,1.5,5H2v12H0.5C0.224,17,0,17.224,0,17.5v12C0,29.776,0.224,30,0.5,30h4C4.776,30,5,29.776,5,29.5v-2
			C5,25.57,6.57,24,8.5,24h1c1.93,0,3.5,1.57,3.5,3.5v2c0,0.276,0.224,0.5,0.5,0.5h16c0.276,0,0.5-0.224,0.5-0.5v-17
			C29.999,12.224,29.775,12,29.499,12z M17.084,18.993c-0.132,0.023-0.266-0.007-0.375-0.085c-0.108-0.077-0.182-0.194-0.203-0.326
			l-0.247-1.483l-0.813,1.625C15.36,18.896,15.186,19,14.999,19c-0.029,0-0.059-0.002-0.089-0.008
			c-1.161-0.209-1.911-1.188-1.911-2.492c0-1.365,0.966-2.367,1.817-3.251c0.608-0.631,1.183-1.228,1.183-1.749v-1
			c0-0.198,0.117-0.378,0.299-0.458c0.18-0.08,0.393-0.044,0.54,0.09c0.129,0.119,3.161,2.943,3.161,5.905
			C19.999,17.597,18.936,18.674,17.084,18.993z M27.999,24.5c0,0.276-0.224,0.5-0.5,0.5h-6c-0.276,0-0.5-0.224-0.5-0.5v-6
			c0-0.276,0.224-0.5,0.5-0.5h6c0.276,0,0.5,0.224,0.5,0.5V24.5z"/>
	</g>
</g>
</svg>
