<?xml version="1.0" encoding="iso-8859-1"?>
<!-- Generator: Adobe Illustrator 19.0.0, SVG Export Plug-In . SVG Version: 6.00 Build 0)  -->
<svg version="1.1" id="Layer_1" xmlns="http://www.w3.org/2000/svg" xmlns:xlink="http://www.w3.org/1999/xlink" x="0px" y="0px"
	 viewBox="0 0 30 30" style="enable-background:new 0 0 30 30;" xml:space="preserve">
<g>
	<g>
		<path d="M10.5,19.5h-10c-0.276,0-0.5,0.224-0.499,0.5v5c0,0.276,0.224,0.5,0.5,0.5h9c0.238,0,0.443-0.168,0.49-0.402l1-5
			c0.029-0.146-0.009-0.299-0.104-0.415C10.792,19.567,10.65,19.5,10.5,19.5z M20.001,5c0-0.276-0.204-0.5-0.455-0.5h-9.091
			C10.203,4.5,10,4.724,10,5v3.5h10.001V5z M11.5,14.5h-8C3.224,14.5,3,14.724,3,15v3.5h8.311l0.68-3.402
			c0.029-0.146-0.009-0.299-0.104-0.415C11.792,14.567,11.65,14.5,11.5,14.5z M24,10c0-0.276-0.224-0.5-0.5-0.5h-6
			c-0.15,0-0.292,0.067-0.387,0.183c-0.095,0.116-0.133,0.269-0.104,0.415l0.68,3.402H24V10z M12.5,9.5h-6C6.224,9.5,6,9.724,6,10
			v3.5h6.311l0.68-3.402c0.029-0.146-0.009-0.299-0.104-0.415C12.792,9.567,12.65,9.5,12.5,9.5z M29.5,19.5h-10
			c-0.15,0-0.292,0.067-0.387,0.183c-0.095,0.116-0.133,0.269-0.104,0.415l1,5c0.047,0.234,0.252,0.402,0.49,0.402h9
			c0.276,0,0.5-0.224,0.5-0.5v-5C30,19.724,29.776,19.5,29.5,19.5z M27,15c0-0.276-0.224-0.5-0.5-0.5h-8
			c-0.15,0-0.292,0.067-0.387,0.183c-0.095,0.116-0.133,0.269-0.104,0.415l0.68,3.402H27V15z"/>
	</g>
</g>
</svg>
