<?xml version="1.0" encoding="iso-8859-1"?>
<!-- Generator: Adobe Illustrator 19.0.0, SVG Export Plug-In . SVG Version: 6.00 Build 0)  -->
<svg version="1.1" id="Layer_1" xmlns="http://www.w3.org/2000/svg" xmlns:xlink="http://www.w3.org/1999/xlink" x="0px" y="0px"
	 viewBox="0 0 30 30" style="enable-background:new 0 0 30 30;" xml:space="preserve">
<g>
	<g>
		<path d="M11.5,4.996h7c0.196,0,0.374-0.114,0.455-0.293s0.051-0.389-0.079-0.536l-3.5-4c-0.189-0.217-0.563-0.217-0.752,0l-3.5,4
			c-0.13,0.147-0.16,0.357-0.079,0.536C11.126,4.882,11.304,4.996,11.5,4.996z M20.97,26.171L18.997,6.446
			c-0.025-0.256-0.24-0.45-0.497-0.45h-7c-0.257,0-0.472,0.194-0.497,0.45L9.03,26.171C7.853,26.576,7,27.683,7,28.996v0.5
			c0,0.276,0.224,0.5,0.5,0.5h15c0.276,0,0.5-0.224,0.5-0.5v-0.5C23,27.683,22.147,26.576,20.97,26.171z"/>
	</g>
</g>
</svg>
