<?xml version="1.0" encoding="iso-8859-1"?>
<!-- Generator: Adobe Illustrator 19.0.0, SVG Export Plug-In . SVG Version: 6.00 Build 0)  -->
<svg version="1.1" id="Layer_1" xmlns="http://www.w3.org/2000/svg" xmlns:xlink="http://www.w3.org/1999/xlink" x="0px" y="0px"
	 viewBox="0 0 24 24" style="enable-background:new 0 0 24 24;" xml:space="preserve">
<g>
	<g>
		<path d="M6,24c-1.103,0-2-0.897-2-2s0.897-2,2-2s2,0.897,2,2S7.103,24,6,24z M6,21c-0.552,0-1,0.449-1,1s0.448,1,1,1s1-0.449,1-1
			S6.552,21,6,21z"/>
	</g>
	<g>
		<path d="M18,24c-1.103,0-2-0.897-2-2s0.897-2,2-2s2,0.897,2,2S19.103,24,18,24z M18,21c-0.552,0-1,0.449-1,1s0.448,1,1,1
			s1-0.449,1-1S18.552,21,18,21z"/>
	</g>
	<g>
		<path d="M1.5,21C1.224,21,1,20.776,1,20.5v-12C1,4.364,4.364,1,8.5,1h1C9.776,1,10,1.224,10,1.5S9.776,2,9.5,2h-1
			C4.916,2,2,4.916,2,8.5v12C2,20.776,1.776,21,1.5,21z"/>
	</g>
	<g>
		<path d="M22.5,21c-0.276,0-0.5-0.224-0.5-0.5v-12C22,4.916,19.084,2,15.5,2h-1C14.224,2,14,1.776,14,1.5S14.224,1,14.5,1h1
			C19.636,1,23,4.364,23,8.5v12C23,20.776,22.776,21,22.5,21z"/>
	</g>
	<g>
		<path d="M13.5,3h-3C9.673,3,9,2.327,9,1.5S9.673,0,10.5,0h3C14.327,0,15,0.673,15,1.5S14.327,3,13.5,3z M10.5,1
			C10.225,1,10,1.224,10,1.5S10.225,2,10.5,2h3C13.775,2,14,1.776,14,1.5S13.775,1,13.5,1H10.5z"/>
	</g>
	<g>
		<path d="M23.5,21h-23C0.224,21,0,20.776,0,20.5S0.224,20,0.5,20h23c0.276,0,0.5,0.224,0.5,0.5S23.776,21,23.5,21z"/>
	</g>
	<g>
		<path d="M19.5,19h-15C4.224,19,4,18.776,4,18.5v-4C4,14.224,4.224,14,4.5,14h15c0.276,0,0.5,0.224,0.5,0.5v4
			C20,18.776,19.776,19,19.5,19z M5,18h14v-3H5V18z"/>
	</g>
	<g>
		<path d="M7.5,19C7.224,19,7,18.776,7,18.5v-4C7,14.224,7.224,14,7.5,14S8,14.224,8,14.5v4C8,18.776,7.776,19,7.5,19z"/>
	</g>
	<g>
		<path d="M16.5,19c-0.276,0-0.5-0.224-0.5-0.5v-4c0-0.276,0.224-0.5,0.5-0.5s0.5,0.224,0.5,0.5v4C17,18.776,16.776,19,16.5,19z"/>
	</g>
	<g>
		<path d="M17.5,15c-0.276,0-0.5-0.224-0.5-0.5V11H7v3.5C7,14.776,6.776,15,6.5,15S6,14.776,6,14.5v-4C6,10.224,6.224,10,6.5,10h11
			c0.276,0,0.5,0.224,0.5,0.5v4C18,14.776,17.776,15,17.5,15z"/>
	</g>
	<g>
		<path d="M13.5,13h-3c-0.276,0-0.5-0.224-0.5-0.5V12c0-0.276,0.224-0.5,0.5-0.5S11,11.724,11,12h2c0-0.276,0.224-0.5,0.5-0.5
			S14,11.724,14,12v0.5C14,12.776,13.776,13,13.5,13z"/>
	</g>
	<g>
		<path d="M8.5,14.5C8.224,14.5,8,14.276,8,14v-3.5C8,10.224,8.224,10,8.5,10S9,10.224,9,10.5V14C9,14.276,8.776,14.5,8.5,14.5z"/>
	</g>
	<g>
		<path d="M15.5,15c-0.276,0-0.5-0.224-0.5-0.5v-4c0-0.276,0.224-0.5,0.5-0.5s0.5,0.224,0.5,0.5v4C16,14.776,15.776,15,15.5,15z"/>
	</g>
</g>
<g>
</g>
<g>
</g>
<g>
</g>
<g>
</g>
<g>
</g>
<g>
</g>
<g>
</g>
<g>
</g>
<g>
</g>
<g>
</g>
<g>
</g>
<g>
</g>
<g>
</g>
<g>
</g>
<g>
</g>
</svg>
