<?xml version="1.0" encoding="iso-8859-1"?>
<!-- Generator: Adobe Illustrator 19.0.0, SVG Export Plug-In . SVG Version: 6.00 Build 0)  -->
<svg version="1.1" id="Layer_1" xmlns="http://www.w3.org/2000/svg" xmlns:xlink="http://www.w3.org/1999/xlink" x="0px" y="0px"
	 viewBox="0 0 24 24" style="enable-background:new 0 0 24 24;" xml:space="preserve">
<g>
	<g id="XMLID_124_">
		<g id="XMLID_247_">
			<path d="M20.165,10.995c-0.373,0-0.742-0.148-1.015-0.405c-0.712-0.667-1.534-1.236-2.438-1.688C16.268,8.686,16,8.159,16,7.495
				V4.866c-1.236-0.34-2.649-0.371-4-0.371c-1.275,0-2.724,0.031-4,0.374v2.626c0,0.506-0.191,1.139-0.727,1.399
				c-0.865,0.433-1.684,1.002-2.428,1.69c-0.505,0.508-1.497,0.523-2.044-0.023L0.424,8.185C0.158,7.933,0,7.556,0,7.16
				c0-0.393,0.15-0.76,0.424-1.034C3.573,3.143,7.68,1.505,12,1.505s8.427,1.638,11.566,4.612C23.85,6.401,24,6.768,24,7.16
				c0,0.393-0.151,0.76-0.424,1.034l-2.377,2.377C20.925,10.844,20.558,10.995,20.165,10.995z M12,3.495
				c1.559,0,3.203,0.041,4.658,0.526C16.862,4.089,17,4.28,17,4.495v3c0,0.296,0.092,0.479,0.154,0.509
				c0.996,0.498,1.896,1.122,2.682,1.857c0.186,0.176,0.49,0.167,0.656,0.002l2.377-2.377C22.953,7.402,23,7.286,23,7.16
				s-0.047-0.242-0.132-0.328C19.926,4.045,16.063,2.505,12,2.505S4.074,4.045,1.122,6.843C1.047,6.918,1,7.034,1,7.16
				c0,0.123,0.044,0.235,0.122,0.308l2.387,2.386c0.17,0.169,0.487,0.167,0.644,0.01C4.98,9.098,5.876,8.475,6.832,7.997
				C6.905,7.962,7,7.77,7,7.495v-3C7,4.279,7.14,4.087,7.346,4.02C8.839,3.536,10.531,3.495,12,3.495z"/>
		</g>
	</g>
	<g>
		<path d="M12,15.495c-1.103,0-2-0.897-2-2s0.897-2,2-2s2,0.897,2,2S13.103,15.495,12,15.495z M12,12.495c-0.551,0-1,0.449-1,1
			s0.449,1,1,1s1-0.449,1-1S12.551,12.495,12,12.495z"/>
	</g>
	<g>
		<path d="M12,19.495c-3.309,0-6-2.691-6-6s2.691-6,6-6s6,2.691,6,6c0,1.598-0.621,3.101-1.75,4.234
			c-0.194,0.196-0.511,0.197-0.707,0.001c-0.195-0.195-0.196-0.512-0.001-0.708C16.482,16.08,17,14.827,17,13.495
			c0-2.757-2.243-5-5-5s-5,2.243-5,5s2.243,5,5,5c0.81,0,1.586-0.191,2.308-0.567c0.246-0.127,0.547-0.032,0.675,0.212
			c0.127,0.245,0.033,0.547-0.212,0.675C13.905,19.266,12.973,19.495,12,19.495z"/>
	</g>
	<g>
		<path d="M17.5,19.495c-0.002,0-0.005,0-0.008,0c-0.46-0.007-4.492-0.139-4.492-2.5c0-0.178,0.095-0.343,0.25-0.433
			c0.154-0.09,0.344-0.09,0.499-0.001c1.107,0.635,1.895,0.391,2.657,0.157c0.373-0.115,0.725-0.224,1.095-0.224
			c0.276,0,0.5,0.224,0.5,0.5v2c0,0.134-0.054,0.262-0.149,0.356C17.757,19.444,17.631,19.495,17.5,19.495z M14.796,17.95
			c0.646,0.312,1.552,0.46,2.204,0.517v-0.883c-0.095,0.027-0.195,0.058-0.3,0.09C16.187,17.833,15.553,18.027,14.796,17.95z"/>
	</g>
	<g>
		<path d="M21.5,22.495h-19c-0.276,0-0.5-0.224-0.5-0.5v-3.82c0-0.849,0.201-1.7,0.581-2.459l1.422-2.845
			c0.065-1.321,1.16-2.376,2.497-2.376H7c0.276,0,0.5,0.224,0.5,0.5s-0.224,0.5-0.5,0.5H6.5c-0.827,0-1.5,0.673-1.5,1.5
			c0,0.078-0.018,0.154-0.053,0.224l-1.472,2.944C3.164,16.785,3,17.481,3,18.176v3.32h18v-3.32c0-0.695-0.164-1.391-0.475-2.012
			l-1.472-2.944C19.018,13.15,19,13.073,19,12.995c0-0.827-0.673-1.5-1.5-1.5H17c-0.276,0-0.5-0.224-0.5-0.5s0.224-0.5,0.5-0.5h0.5
			c1.337,0,2.432,1.055,2.497,2.376l1.422,2.845c0.38,0.76,0.581,1.61,0.581,2.459v3.82C22,22.272,21.776,22.495,21.5,22.495z"/>
	</g>
</g>
<g>
</g>
<g>
</g>
<g>
</g>
<g>
</g>
<g>
</g>
<g>
</g>
<g>
</g>
<g>
</g>
<g>
</g>
<g>
</g>
<g>
</g>
<g>
</g>
<g>
</g>
<g>
</g>
<g>
</g>
</svg>
