<?xml version="1.0" encoding="iso-8859-1"?>
<!-- Generator: Adobe Illustrator 19.0.0, SVG Export Plug-In . SVG Version: 6.00 Build 0)  -->
<svg version="1.1" id="Layer_1" xmlns="http://www.w3.org/2000/svg" xmlns:xlink="http://www.w3.org/1999/xlink" x="0px" y="0px"
	 viewBox="0 0 24 24" style="enable-background:new 0 0 24 24;" xml:space="preserve">
<g>
	<g>
		<path d="M19,10.5h-0.5v1H19c0.275,0,0.5-0.224,0.5-0.5S19.275,10.5,19,10.5z M5,10.5H4.5v1H5c0.275,0,0.5-0.224,0.5-0.5
			S5.275,10.5,5,10.5z M20,0.5H4C2.07,0.5,0.5,2.07,0.5,4v16c0,1.93,1.57,3.5,3.5,3.5h16c1.93,0,3.5-1.57,3.5-3.5V4
			C23.5,2.07,21.93,0.5,20,0.5z M5,12.5H4.5V14c0,0.276-0.224,0.5-0.5,0.5S3.5,14.276,3.5,14v-4c0-0.276,0.224-0.5,0.5-0.5h1
			c0.827,0,1.5,0.673,1.5,1.5C6.5,11.827,5.827,12.5,5,12.5z M9,13.5h1c-0.276,0-0.5-0.224-0.5-0.5s0.224-0.5,0.5-0.5h1
			c0.276,0,0.5,0.224,0.5,0.5c0,0.827-0.673,1.5-1.5,1.5H9c-0.827,0-1.5-0.673-1.5-1.5v-2c0-0.827,0.673-1.5,1.5-1.5h1
			c0.827,0,1.5,0.673,1.5,1.5c0,0.276-0.224,0.5-0.5,0.5s-0.5-0.224-0.5-0.5s-0.225-0.5-0.5-0.5H9c-0.275,0-0.5,0.224-0.5,0.5v2
			C8.5,13.276,8.725,13.5,9,13.5z M16.5,13c0,0.827-0.673,1.5-1.5,1.5h-1c-0.827,0-1.5-0.673-1.5-1.5v-3c0-0.276,0.224-0.5,0.5-0.5
			s0.5,0.224,0.5,0.5v3c0,0.276,0.225,0.5,0.5,0.5h1c0.275,0,0.5-0.224,0.5-0.5v-3c0-0.276,0.224-0.5,0.5-0.5s0.5,0.224,0.5,0.5V13z
			 M19,12.5h-0.5V14c0,0.276-0.224,0.5-0.5,0.5s-0.5-0.224-0.5-0.5v-4c0-0.276,0.224-0.5,0.5-0.5h1c0.827,0,1.5,0.673,1.5,1.5
			C20.5,11.827,19.827,12.5,19,12.5z"/>
	</g>
</g>
</svg>
