<?xml version="1.0" encoding="iso-8859-1"?>
<!-- Generator: Adobe Illustrator 19.0.0, SVG Export Plug-In . SVG Version: 6.00 Build 0)  -->
<svg version="1.1" id="Layer_1" xmlns="http://www.w3.org/2000/svg" xmlns:xlink="http://www.w3.org/1999/xlink" x="0px" y="0px"
	 viewBox="0 0 24 24" style="enable-background:new 0 0 24 24;" xml:space="preserve">
<g>
	<g>
		<path d="M16.5,10.5H16v1h0.5c0.275,0,0.5-0.224,0.5-0.5S16.775,10.5,16.5,10.5z M11.596,12.5h0.808L12,11.424L11.596,12.5z
			 M20.5,0.5h-17C1.57,0.5,0,2.07,0,4v16c0,1.93,1.57,3.5,3.5,3.5h17c1.93,0,3.5-1.57,3.5-3.5V4C24,2.07,22.43,0.5,20.5,0.5z
			 M9,10.5H8V14c0,0.276-0.224,0.5-0.5,0.5S7,14.276,7,14v-3.5H6c-0.276,0-0.5-0.224-0.5-0.5S5.724,9.5,6,9.5h3
			c0.276,0,0.5,0.224,0.5,0.5S9.276,10.5,9,10.5z M13.676,14.468C13.618,14.489,13.559,14.5,13.5,14.5
			c-0.202,0-0.393-0.124-0.468-0.324L12.779,13.5h-1.557l-0.253,0.676c-0.098,0.259-0.387,0.388-0.644,0.292
			c-0.259-0.097-0.39-0.385-0.292-0.644l1.5-4c0.146-0.39,0.789-0.39,0.936,0l1.5,4C14.065,14.083,13.935,14.371,13.676,14.468z
			 M18,13c0,0.827-0.673,1.5-1.5,1.5h-1c-0.276,0-0.5-0.224-0.5-0.5v-4c0-0.276,0.224-0.5,0.5-0.5h1c0.827,0,1.5,0.673,1.5,1.5
			c0,0.384-0.145,0.734-0.383,1C17.855,12.266,18,12.616,18,13z M16.5,12.5H16v1h0.5c0.275,0,0.5-0.224,0.5-0.5
			S16.775,12.5,16.5,12.5z"/>
	</g>
</g>
</svg>
