<?xml version="1.0" encoding="iso-8859-1"?>
<!-- Generator: Adobe Illustrator 19.0.0, SVG Export Plug-In . SVG Version: 6.00 Build 0)  -->
<svg version="1.1" id="Layer_1" xmlns="http://www.w3.org/2000/svg" xmlns:xlink="http://www.w3.org/1999/xlink" x="0px" y="0px"
	 viewBox="0 0 24 24" style="enable-background:new 0 0 24 24;" xml:space="preserve">
<path d="M21.5,7.5c-0.171,0-0.338,0.018-0.5,0.051V7c0-1.378-1.122-2.5-2.5-2.5h-12C5.298,4.5,3,5.474,3,7v0.551
	C2.838,7.518,2.671,7.5,2.5,7.5C1.122,7.5,0,8.622,0,10c0,0.816,0.393,1.542,1,1.999V12v7c0,0.276,0.224,0.5,0.5,0.5h3
	C4.776,19.5,5,19.276,5,19v-0.5h14V19c0,0.276,0.224,0.5,0.5,0.5h3c0.276,0,0.5-0.224,0.5-0.5v-7c0-0.001,0-0.001,0-0.001
	c0.607-0.457,1-1.183,1-1.999C24,8.622,22.878,7.5,21.5,7.5z M4,8V7c0-0.695,1.513-1.5,2.5-1.5h12C19.327,5.5,20,6.173,20,7v1
	c0,0.004,0.002,0.007,0.002,0.011C19.398,8.468,19,9.186,19,10v2.5H5V10c0-0.814-0.398-1.532-1.002-1.989C3.998,8.007,4,8.004,4,8z
	 M5,13.5h14v1H5V13.5z M4,18.5H2v-6.05c0.162,0.033,0.329,0.05,0.5,0.05C2.776,12.5,3,12.276,3,12s-0.224-0.5-0.5-0.5
	C1.673,11.5,1,10.827,1,10s0.673-1.5,1.5-1.5S4,9.173,4,10v3v2v3V18.5z M5,17.5v-2h14v2H5z M21.5,11.5c-0.276,0-0.5,0.224-0.5,0.5
	s0.224,0.5,0.5,0.5c0.171,0,0.338-0.017,0.5-0.05v6.05h-2V18v-3v-2v-3c0-0.827,0.673-1.5,1.5-1.5S23,9.173,23,10
	S22.327,11.5,21.5,11.5z"/>
</svg>
