<?xml version="1.0" encoding="iso-8859-1"?>
<!-- Generator: Adobe Illustrator 19.0.0, SVG Export Plug-In . SVG Version: 6.00 Build 0)  -->
<svg version="1.1" id="Layer_1" xmlns="http://www.w3.org/2000/svg" xmlns:xlink="http://www.w3.org/1999/xlink" x="0px" y="0px"
	 viewBox="0 0 24 24" style="enable-background:new 0 0 24 24;" xml:space="preserve">
<path d="M21,12h-6.5v-1H20c0.276,0,0.5-0.224,0.5-0.5v-10C20.5,0.224,20.276,0,20,0H4C3.724,0,3.5,0.224,3.5,0.5v10
	C3.5,10.776,3.724,11,4,11h5.5v1H3c-1.378,0-2.5,1.122-2.5,2.5v4C0.5,19.878,1.622,21,3,21h0.307l-0.781,2.342
	c-0.087,0.262,0.054,0.545,0.316,0.632C2.895,23.992,2.948,24,3,24c0.209,0,0.404-0.132,0.474-0.342L4.36,21h15.28l0.886,2.658
	C20.596,23.868,20.791,24,21,24c0.052,0,0.105-0.008,0.158-0.026c0.262-0.087,0.403-0.37,0.316-0.632L20.693,21H21
	c1.378,0,2.5-1.122,2.5-2.5v-4C23.5,13.122,22.378,12,21,12z M4.5,1h15v9h-15V1z M10.5,11h3v1h-3V11z M3,13h18
	c0.827,0,1.5,0.673,1.5,1.5V16h-21v-1.5C1.5,13.673,2.173,13,3,13z M21,20H3c-0.827,0-1.5-0.673-1.5-1.5V17h21v1.5
	C22.5,19.327,21.827,20,21,20z"/>
</svg>
