<?xml version="1.0" encoding="utf-8"?>
<!-- Generator: Adobe Illustrator 19.0.0, SVG Export Plug-In . SVG Version: 6.00 Build 0)  -->
<svg version="1.1" id="Layer_1" xmlns="http://www.w3.org/2000/svg" xmlns:xlink="http://www.w3.org/1999/xlink" x="0px" y="0px"
	 viewBox="0 0 30 30" style="enable-background:new 0 0 30 30;" xml:space="preserve">
<g>
	<g>
		<circle cx="7" cy="23" r="1"/>
	</g>
	<g>
		<path d="M22,16.5v-0.3c0-0.8,0-1.6,0.1-2.4C22,13.7,22,13.6,22,13.5c0-0.7-1.1-2.5-2.5-2.5c-1.4,0-2.3-1.1-2.7-1.8
			C15.9,9.7,15,10,14,10c-3.2,0-11.6,3.7-12.9,7.2c-2,2.1-1,6.5,2.1,9.6c2.1,2.1,6.3,3.2,9.5,3.2c1.3,0,3.1-0.2,4.1-1.1
			c3.9-1.3,6.2-2.9,7-4.8c0.8-1.9-0.1-3.8-0.9-5.4C22.4,17.9,22,17.1,22,16.5z M7,25c-1.1,0-2-0.9-2-2s0.9-2,2-2s2,0.9,2,2
			S8.1,25,7,25z M15.9,28.1C15.9,28.1,15.9,28.1,15.9,28.1c-0.3,0-0.5-0.2-0.5-0.5c0-0.9-2.9-3.6-4.4-4.9c-0.7-0.7-1.4-1.3-2-1.9
			c-1.6-1.6-3.6-2.6-5.1-2.6c-0.3,0-0.5-0.2-0.5-0.5s0.2-0.5,0.5-0.5c1.8,0,4,1.1,5.8,2.9c0.6,0.6,1.3,1.2,2,1.9
			c2.6,2.4,4.7,4.4,4.7,5.7C16.4,27.9,16.1,28.1,15.9,28.1z"/>
	</g>
	<g>
		<path d="M29.1,2.2c-0.2,0.1-0.4,0.3-0.6,0.4c-0.6,0.5-1.2,1-1.8,1c-0.2,0-0.3,0-0.5-0.1C26,3.3,25.9,3,26,2.7
			c0.1-0.2,0.4-0.3,0.7-0.2c0.2,0,0.9-0.5,1.2-0.7c0.2-0.2,0.4-0.3,0.6-0.5C28.2,0,26.9,0,26.5,0C25.7,0,24,0.4,24,1.7
			c0,0.7-0.2,1-1.4,2.1l-0.8,0.8c-1.7,1.7-3,3-4.2,3.9c0.3,0.5,0.9,1.4,1.9,1.4c1.3,0,2.4,1,3,2c0.5-1.4,1.4-3,3.4-4.9
			C26.4,6.5,27,6,27.3,6l0.1,0C28,6,29,6,29.6,5.4C29.8,5.2,30,4.9,30,4.5C30,3.3,29.7,2.5,29.1,2.2z"/>
	</g>
</g>
</svg>
