<?xml version="1.0" encoding="utf-8"?>
<!-- Generator: Adobe Illustrator 19.0.0, SVG Export Plug-In . SVG Version: 6.00 Build 0)  -->
<svg version="1.1" id="Layer_1" xmlns="http://www.w3.org/2000/svg" xmlns:xlink="http://www.w3.org/1999/xlink" x="0px" y="0px"
	 viewBox="0 0 30 30" style="enable-background:new 0 0 30 30;" xml:space="preserve">
<style type="text/css">
	.st0{fill:#FFFFFF;}
</style>
<g>
	<g>
		<g>
			<path d="M24.5,23.5C24.5,23.5,24.5,23.5,24.5,23.5c-0.6,0-1.4-0.2-2.2-0.7c-1.9,2-4.7,2.3-7.2,0.5c-1,0.8-2.2,1.2-3.5,1.2
				c-1.5,0-2.9-0.6-3.9-1.6c-0.7,0.4-1.4,0.6-2.2,0.6c-0.6,0-1.2-0.1-1.7-0.4l0.5,2.3c0,0,0.6,3,10.8,3s10.5-3,10.5-3l0.6-2.4
				C25.5,23.4,24.9,23.5,24.5,23.5z"/>
		</g>
		<g>
			<path d="M15,29C4.7,29,3.8,25.9,3.8,25.6l-0.5-2.3c0-0.2,0-0.4,0.2-0.5c0.1-0.1,0.3-0.1,0.5-0.1c1.1,0.5,2.3,0.4,3.5-0.2
				c0.2-0.1,0.4-0.1,0.6,0.1c1.8,1.7,4.7,1.9,6.8,0.3c0.2-0.1,0.4-0.1,0.6,0c2.2,1.6,4.8,1.4,6.5-0.5c0.2-0.2,0.4-0.2,0.6-0.1
				c0.6,0.4,1.3,0.6,1.9,0.6c0.3,0,0.8-0.1,1.4-0.4c0.2-0.1,0.4-0.1,0.5,0.1c0.2,0.1,0.2,0.3,0.2,0.5L26,25.6C26,25.9,25.3,29,15,29
				z M4.4,24l0.3,1.4c0,0,0.8,2.6,10.3,2.6c9.4,0,10-2.6,10-2.6l0.4-1.5C25,24,24.7,24,24.5,24c-0.7,0-1.4-0.2-2.1-0.6
				c-2,1.9-4.9,2.1-7.2,0.5c-2.3,1.6-5.4,1.4-7.5-0.4C6.6,24.1,5.5,24.2,4.4,24z"/>
		</g>
	</g>
	<g>
		<g>
			<path d="M3,19.5c0,0-2.5,2.5-2.5-0.3c0-2.7,8.6-7.7,14.5-7.7s14.5,5.3,14.5,8c0,2.2-2.5,0-2.5,0l-0.3-0.3c-1.1,2.8-3,3.1-4.8,0.3
				c-1.1,2.8-3.8,4.6-7,1c-2.1,3.2-5.9,2.3-7-0.5C6.5,22.1,4.1,22.3,3,19.5"/>
		</g>
		<g>
			<path d="M11.6,23c-1.5,0-2.9-0.8-3.7-2.1c-0.7,0.8-1.6,1.2-2.4,1.2c-1.1,0-2-0.6-2.6-1.8C2.4,20.6,1.8,21,1.2,21
				c-0.4,0-0.7-0.2-0.9-0.5C0.1,20.2,0,19.8,0,19.2C0,16.1,9.3,11,15,11c6.2,0,15,5.5,15,8.5c0,1.4-0.9,1.5-1.1,1.5
				c-0.7,0-1.5-0.6-1.9-0.9c-0.8,1.6-1.8,1.9-2.5,1.9c-0.6,0-1.5-0.3-2.4-1.5c-0.9,1.6-2.2,2.5-3.6,2.5c-1.1,0-2.3-0.6-3.4-1.7
				C14.1,22.4,12.9,23,11.6,23z M8,19.5C8,19.5,8,19.5,8,19.5c0.2,0,0.4,0.1,0.5,0.3C9,21.1,10.3,22,11.6,22c1.1,0,2.2-0.6,3-1.8
				c0.1-0.1,0.2-0.2,0.4-0.2c0.2,0,0.3,0.1,0.4,0.2c1.1,1.2,2.1,1.8,3.1,1.8c1.2,0,2.4-1,3.1-2.7c0.1-0.2,0.2-0.3,0.4-0.3
				c0.2,0,0.4,0.1,0.5,0.2c0.7,1.1,1.4,1.8,2,1.8c0.7,0,1.3-0.7,1.8-1.9c0.1-0.2,0.2-0.3,0.4-0.3c0.2,0,0.3,0,0.5,0.1l0.3,0.3
				c0.4,0.3,1.1,0.8,1.5,0.8c0.1,0,0.1-0.3,0.1-0.5c0-2.2-8.3-7.5-14-7.5c-5.9,0-14,5-14,7.2c0,0.5,0.1,0.7,0.1,0.7
				c0,0,0,0.1,0.1,0.1c0.4,0,1.1-0.5,1.4-0.9C2.8,19,2.9,19,3.1,19c0.2,0,0.3,0.1,0.4,0.3c0.5,1.1,1.2,1.8,2,1.8
				c0.7,0,1.5-0.5,2.1-1.4C7.7,19.6,7.8,19.5,8,19.5z"/>
		</g>
	</g>
	<g>
		<g>
			<path class="st0" d="M6.5,18c-0.1,0-0.2,0-0.3-0.1c-0.2-0.2-0.3-0.5-0.1-0.7C6.6,16.5,8.4,15,9.5,15c0.3,0,0.5,0.2,0.5,0.5
				c0,0.3-0.2,0.5-0.5,0.5c-0.6,0-2.1,1.1-2.6,1.8C6.8,17.9,6.7,18,6.5,18z"/>
		</g>
	</g>
	<g>
		<g>
			<path class="st0" d="M12,19c-0.3,0-0.5-0.2-0.5-0.5c0-0.5,0.5-2.8,1.2-3.4c0.2-0.2,0.5-0.1,0.7,0.1c0.2,0.2,0.1,0.5-0.1,0.7
				c-0.3,0.3-0.8,2.1-0.8,2.6C12.5,18.8,12.3,19,12,19z"/>
		</g>
	</g>
	<g>
		<g>
			<path class="st0" d="M23.5,18c-0.2,0-0.3-0.1-0.4-0.2c-0.5-0.7-2-1.8-2.6-1.8c-0.3,0-0.5-0.2-0.5-0.5s0.2-0.5,0.5-0.5
				c1.1,0.1,2.8,1.5,3.4,2.2c0.2,0.2,0.1,0.5-0.1,0.7C23.7,18,23.6,18,23.5,18z"/>
		</g>
	</g>
	<g>
		<g>
			<path class="st0" d="M18,19c-0.3,0-0.5-0.2-0.5-0.5c0-0.5-0.5-2.3-0.8-2.6c-0.2-0.2-0.3-0.5-0.1-0.7c0.2-0.2,0.5-0.3,0.7-0.1
				c0.7,0.6,1.2,2.9,1.2,3.4C18.5,18.8,18.3,19,18,19z"/>
		</g>
	</g>
	<g>
		<g>
			<g>
				<path d="M9.5,10c-0.1,0-0.3,0-0.4-0.1C9,9.7,9,9.3,9.1,9.1C10,8.3,9.6,7.3,9,5.6C8.5,4.1,7.9,2.4,9.1,1.1C9.3,1,9.7,1,9.9,1.1
					s0.2,0.5,0,0.7C9.1,2.6,9.4,3.6,10,5.3c0.6,1.5,1.2,3.3-0.1,4.6C9.8,10,9.6,10,9.5,10z"/>
			</g>
		</g>
		<g>
			<g>
				<path d="M14.5,10c-0.1,0-0.3,0-0.4-0.1c-0.2-0.2-0.2-0.5,0-0.7C15,8.3,14.6,7.3,14,5.6c-0.5-1.5-1.2-3.2,0.1-4.5
					c0.2-0.2,0.5-0.2,0.7,0s0.2,0.5,0,0.7c-0.8,0.8-0.5,1.8,0.1,3.4c0.6,1.5,1.2,3.3-0.1,4.6C14.8,10,14.6,10,14.5,10z"/>
			</g>
		</g>
		<g>
			<g>
				<path d="M19.5,10c-0.1,0-0.3,0-0.4-0.1c-0.2-0.2-0.2-0.5,0-0.7C20,8.3,19.6,7.3,19,5.6c-0.5-1.5-1.2-3.2,0.1-4.5
					c0.2-0.2,0.5-0.2,0.7,0s0.2,0.5,0,0.7c-0.8,0.8-0.5,1.8,0.1,3.4c0.6,1.5,1.2,3.3-0.1,4.6C19.8,10,19.6,10,19.5,10z"/>
			</g>
		</g>
	</g>
</g>
</svg>
