<?xml version="1.0" encoding="utf-8"?>
<!-- Generator: Adobe Illustrator 19.0.0, SVG Export Plug-In . SVG Version: 6.00 Build 0)  -->
<svg version="1.1" id="Layer_1" xmlns="http://www.w3.org/2000/svg" xmlns:xlink="http://www.w3.org/1999/xlink" x="0px" y="0px"
	 viewBox="0 0 30 30" style="enable-background:new 0 0 30 30;" xml:space="preserve">
<g>
	<g>
		<path d="M29,26h-2.5c-0.1-5.5-0.9-12.3-1.3-15c0-0.1-0.1-0.3-0.2-0.4c-0.1-0.1-0.3-0.1-0.4-0.1c-1.5,0.5-3.6,0.5-5.2-0.1
			c-0.1-0.1-0.3,0-0.4,0c-0.1,0.1-0.2,0.2-0.2,0.4c-0.4,3.4-1.2,9.9-1.2,15.1h-1V0.5C16.5,0.2,16.3,0,16,0h-3
			c-0.3,0-0.5,0.2-0.5,0.5V26h-1c-0.1-5.5-0.9-12.3-1.3-15c0-0.1-0.1-0.3-0.2-0.4c-0.1-0.1-0.3-0.1-0.4-0.1C8.8,10.9,8,11,7,11
			c-1,0-1.9-0.1-2.6-0.3c-0.1,0-0.3,0-0.4,0.1c-0.1,0.1-0.2,0.2-0.2,0.4C3.3,14.4,2.5,20.7,2.5,26H1c-0.3,0-0.5,0.2-0.5,0.5
			c0,1.6,1.3,3.5,3,3.5h23c1.7,0,3-1.9,3-3.5C29.5,26.2,29.3,26,29,26z"/>
	</g>
	<g>
		<path d="M22,10c2.9,0,4.5-1.2,4.5-3.3c0-2.1-1.8-3.9-4-4.2V1.5C22.5,1.2,22.3,1,22,1s-0.5,0.2-0.5,0.5v1v2C21.5,4.8,21.3,5,21,5
			s-0.5-0.2-0.5-0.5V2.7c-1.7,0.6-3,2-3,3.8C17.5,8.6,19.3,10,22,10z"/>
	</g>
	<g>
		<path d="M7,10c2.9,0,4.5-1.2,4.5-3.3c0-2.3-2.1-4.3-4.5-4.3C4.6,2.5,2.5,4.6,2.5,7C2.5,10,5.9,10,7,10z M8,5
			c0.3,0,0.5,0.2,0.5,0.5S8.3,6,8,6S7.5,5.8,7.5,5.5S7.7,5,8,5z M6,5c0.3,0,0.5,0.2,0.5,0.5S6.3,6,6,6S5.5,5.8,5.5,5.5S5.7,5,6,5z"
			/>
	</g>
</g>
</svg>
