<?xml version="1.0" encoding="utf-8"?>
<!-- Generator: Adobe Illustrator 19.0.0, SVG Export Plug-In . SVG Version: 6.00 Build 0)  -->
<svg version="1.1" id="Layer_1" xmlns="http://www.w3.org/2000/svg" xmlns:xlink="http://www.w3.org/1999/xlink" x="0px" y="0px"
	 viewBox="0 0 30 30" style="enable-background:new 0 0 30 30;" xml:space="preserve">
<g>
	<g>
		<path d="M27,26.5H3c-1.7,0-3-1.3-3-2.9V10.5c0-1.7,1.3-3,3-3h3c0.3,0,0.5-0.1,0.6-0.4l0.7-2.4C7.5,4,8.2,3.5,9,3.5h7
			c0.8,0,1.4,0.5,1.7,1.2l0.7,2.4c0.1,0.3,0.4,0.4,0.7,0.4h8c1.7,0,3,1.3,3,3v13.1C30,25.2,28.6,26.5,27,26.5z M3,8.5
			c-1.1,0-2,0.9-2,2v13.1c0,1.1,0.9,1.9,2,1.9h24c1.1,0,2-0.9,2-1.9V10.5c0-1.1-0.9-2-2-2h-8c-0.8,0-1.4-0.4-1.6-1.1L16.7,5
			c-0.1-0.3-0.4-0.5-0.7-0.5H9C8.6,4.5,8.4,4.7,8.2,5L7.6,7.4C7.3,8.1,6.7,8.5,6,8.5H3z"/>
	</g>
	<g>
		<path d="M26.5,5.5h-2C24.2,5.5,24,5.3,24,5s0.2-0.5,0.5-0.5h2C26.8,4.5,27,4.7,27,5S26.8,5.5,26.5,5.5z"/>
	</g>
	<g>
		<path d="M14.5,21.5h-12C2.2,21.5,2,21.3,2,21V11c0-0.3,0.2-0.5,0.5-0.5h12c0.3,0,0.5,0.2,0.5,0.5v10C15,21.3,14.8,21.5,14.5,21.5z
			 M3,20.5h11v-9H3V20.5z"/>
	</g>
	<g>
		<path d="M22.5,20.5c-2.5,0-4.5-2-4.5-4.5s2-4.5,4.5-4.5s4.5,2,4.5,4.5S25,20.5,22.5,20.5z M22.5,12.5c-1.9,0-3.5,1.6-3.5,3.5
			s1.6,3.5,3.5,3.5S26,17.9,26,16S24.4,12.5,22.5,12.5z"/>
	</g>
	<g>
		<circle cx="22.5" cy="14" r="0.5"/>
	</g>
	<g>
		<circle cx="22.5" cy="18" r="0.5"/>
	</g>
	<g>
		<circle cx="24.5" cy="16" r="0.5"/>
	</g>
	<g>
		<circle cx="20.5" cy="16" r="0.5"/>
	</g>
	<g>
		<circle cx="4.5" cy="23" r="0.5"/>
	</g>
	<g>
		<circle cx="8.5" cy="23" r="0.5"/>
	</g>
	<g>
		<circle cx="12.5" cy="23" r="0.5"/>
	</g>
</g>
</svg>
