<?xml version="1.0" encoding="utf-8"?>
<!-- Generator: Adobe Illustrator 19.0.0, SVG Export Plug-In . SVG Version: 6.00 Build 0)  -->
<svg version="1.1" id="Layer_1" xmlns="http://www.w3.org/2000/svg" xmlns:xlink="http://www.w3.org/1999/xlink" x="0px" y="0px"
	 viewBox="0 0 30 30" style="enable-background:new 0 0 30 30;" xml:space="preserve">
<g>
	<g>
		<path d="M23.5,23.5h-20C3.2,23.5,3,23.3,3,23v-3c0-0.3,0.2-0.5,0.5-0.5S4,19.7,4,20v2.5h19v-17h-2.5C20.2,5.5,20,5.3,20,5
			s0.2-0.5,0.5-0.5h3C23.8,4.5,24,4.7,24,5v18C24,23.3,23.8,23.5,23.5,23.5z"/>
	</g>
	<g>
		<path d="M26.5,26.5h-20C6.2,26.5,6,26.3,6,26v-3c0-0.3,0.2-0.5,0.5-0.5S7,22.7,7,23v2.5h19v-17h-2.5C23.2,8.5,23,8.3,23,8
			s0.2-0.5,0.5-0.5h3C26.8,7.5,27,7.7,27,8v18C27,26.3,26.8,26.5,26.5,26.5z"/>
	</g>
	<g>
		<path d="M29.5,29.5h-20C9.2,29.5,9,29.3,9,29v-3c0-0.3,0.2-0.5,0.5-0.5S10,25.7,10,26v2.5h19v-15h-2.5c-0.3,0-0.5-0.2-0.5-0.5
			s0.2-0.5,0.5-0.5h3c0.3,0,0.5,0.2,0.5,0.5v16C30,29.3,29.8,29.5,29.5,29.5z"/>
	</g>
	<g>
		<path d="M20.4,20.5c-0.2,0-0.4-0.1-0.5-0.3L14.4,7.1l-4,7.1c-0.1,0.1-0.2,0.2-0.3,0.2c-0.1,0-0.3,0-0.4-0.1l-3.1-2.6l-5.7,8.5
			c-0.2,0.2-0.5,0.3-0.7,0.1C0,20.3-0.1,20,0.1,19.7l6-9c0.1-0.1,0.2-0.2,0.3-0.2c0.1,0,0.3,0,0.4,0.1l3,2.6l4.2-7.5
			c0.1-0.2,0.3-0.3,0.5-0.3c0.2,0,0.4,0.1,0.4,0.3l5.9,14c0.1,0.3,0,0.5-0.3,0.7C20.5,20.5,20.5,20.5,20.4,20.5z"/>
	</g>
	<g>
		<path d="M20.5,20.5h-20C0.2,20.5,0,20.3,0,20V1c0-0.3,0.2-0.5,0.5-0.5h20C20.8,0.5,21,0.7,21,1v19C21,20.3,20.8,20.5,20.5,20.5z
			 M1,19.5h19v-18H1V19.5z"/>
	</g>
	<g>
		<path d="M6.5,8.5C5.1,8.5,4,7.4,4,6s1.1-2.5,2.5-2.5S9,4.6,9,6S7.9,8.5,6.5,8.5z M6.5,4.5C5.7,4.5,5,5.2,5,6s0.7,1.5,1.5,1.5
			S8,6.8,8,6S7.3,4.5,6.5,4.5z"/>
	</g>
</g>
</svg>
