<?xml version="1.0" encoding="iso-8859-1"?>
<!-- Generator: Adobe Illustrator 19.0.0, SVG Export Plug-In . SVG Version: 6.00 Build 0)  -->
<svg version="1.1" id="Layer_1" xmlns="http://www.w3.org/2000/svg" xmlns:xlink="http://www.w3.org/1999/xlink" x="0px" y="0px"
	 viewBox="0 0 24 24" style="enable-background:new 0 0 24 24;" xml:space="preserve">
<g>
	<g>
		<path d="M20.5,5c-1.031,0-1.949,0.456-2.59,1.167C17.525,4.36,15.92,3,14,3c-1.516,0-2.822,0.857-3.5,2.103
			C9.822,3.857,8.516,3,7,3C5.493,3,4.195,3.847,3.513,5.08C2.857,3.824,1.639,3,0.5,3C0.224,3,0,3.224,0,3.5S0.224,4,0.5,4
			C1.632,4,3,5.338,3,7v11.5C3,18.776,3.224,19,3.5,19S4,18.776,4,18.5V7c0-1.654,1.346-3,3-3s3,1.346,3,3v11.5
			c0,0.276,0.224,0.5,0.5,0.5s0.5-0.224,0.5-0.5V7c0-1.654,1.346-3,3-3s3,1.346,3,3v11.769l-0.542,0.865
			C16.268,19.867,15.986,20,15.685,20H14.5c-0.276,0-0.5,0.224-0.5,0.5s0.224,0.5,0.5,0.5h1.185c0.601,0,1.165-0.267,1.583-0.783
			l0.069-0.109C17.695,20.645,18.307,21,19,21h1.5c0.276,0,0.5-0.224,0.5-0.5S20.776,20,20.5,20H19c-0.538,0-0.971-0.43-0.992-0.962
			l5.489-8.752c0,0,0,0,0,0C23.831,9.75,24,9.148,24,8.5C24,6.57,22.43,5,20.5,5z M22.648,9.757
			c-0.001,0.001-0.001,0.002-0.001,0.003L18,17.174V8.5C18,7.122,19.122,6,20.5,6S23,7.122,23,8.5
			C23,8.959,22.881,9.382,22.648,9.757z"/>
	</g>
</g>
</svg>
