<?xml version="1.0" encoding="iso-8859-1"?>
<!-- Generator: Adobe Illustrator 19.0.0, SVG Export Plug-In . SVG Version: 6.00 Build 0)  -->
<svg version="1.1" id="Layer_1" xmlns="http://www.w3.org/2000/svg" xmlns:xlink="http://www.w3.org/1999/xlink" x="0px" y="0px"
	 viewBox="0 0 24 24" style="enable-background:new 0 0 24 24;" xml:space="preserve">
<g>
	<g>
		<path d="M23.984,0.871c-0.071-0.266-0.347-0.426-0.612-0.354C18.24,1.882,6.964,1.88,0.605,0.511
			C0.335,0.46,0.069,0.625,0.011,0.895C-0.047,1.166,0.125,1.431,0.395,1.49C0.901,1.599,1.443,1.696,2,1.789v2.212
			c0,0.276,0.224,0.5,0.5,0.5h1.472L3,22.975c-0.007,0.137,0.043,0.271,0.137,0.37s0.226,0.156,0.363,0.156h4
			c0.137,0,0.269-0.057,0.363-0.156c0.095-0.099,0.144-0.233,0.137-0.37L7.238,8.501H11v1.5c0,0.276,0.224,0.5,0.5,0.5h2
			c0.276,0,0.5-0.224,0.5-0.5v-1.5h3.262L16.5,22.975c-0.007,0.137,0.043,0.271,0.137,0.37s0.226,0.156,0.363,0.156h4
			c0.137,0,0.269-0.057,0.363-0.156c0.095-0.099,0.144-0.233,0.137-0.37L20.527,4.501H21.5c0.276,0,0.5-0.224,0.5-0.5V1.835
			c0.583-0.107,1.138-0.221,1.629-0.352C23.896,1.412,24.055,1.139,23.984,0.871z M4.027,22.501l0.737-14h1.472l0.737,14H4.027z
			 M4.816,7.501l0.158-3h1.051l0.158,3H4.816z M13,9.501h-1v-1h1V9.501z M17.314,7.501H7.185l-0.158-3h10.445L17.314,7.501z
			 M17.527,22.501l0.737-14h1.472l0.737,14H17.527z M18.316,7.501l0.158-3h1.051l0.158,3H18.316z M21,3.501H3V1.945
			c2.862,0.405,6.205,0.608,9.462,0.608c3.091,0,6.094-0.186,8.538-0.551V3.501z"/>
	</g>
</g>
</svg>
