<?xml version="1.0" encoding="iso-8859-1"?>
<!-- Generator: Adobe Illustrator 19.0.0, SVG Export Plug-In . SVG Version: 6.00 Build 0)  -->
<svg version="1.1" id="Layer_1" xmlns="http://www.w3.org/2000/svg" xmlns:xlink="http://www.w3.org/1999/xlink" x="0px" y="0px"
	 viewBox="0 0 24 24" style="enable-background:new 0 0 24 24;" xml:space="preserve">
<g>
	<g>
		<path d="M21.857,20.161c-0.011-0.012-0.016-0.026-0.028-0.037C20.65,19.092,20.5,18.823,20.5,16.5
			c0-0.067-0.014-0.132-0.039-0.193c-0.025-0.061-0.062-0.115-0.108-0.161c0,0,0,0,0,0l-0.281-0.274
			c-0.489-0.473-1.423-1.384-2.547-2.659c0.149-1.034,1.446-2.441,2.748-3.295c0.015-0.01,0.023-0.024,0.037-0.035
			c0.024-0.02,0.046-0.04,0.067-0.063c0.021-0.024,0.037-0.05,0.052-0.077c0.015-0.026,0.028-0.05,0.038-0.078
			c0.012-0.034,0.017-0.068,0.021-0.104C20.49,9.54,20.5,9.521,20.5,9.5c0-0.007-0.004-0.012-0.004-0.019
			c-0.001-0.035-0.012-0.07-0.021-0.105c-0.007-0.027-0.009-0.055-0.021-0.08c-0.001-0.002-0.001-0.003-0.001-0.005
			c-0.076-0.165-0.172-0.384-0.287-0.644c-1.542-3.5-3.369-7.153-5.29-8.025C14.122,0.165,13.156,0,12.499,0h-1
			c-0.657,0-1.623,0.165-2.377,0.621c-1.92,0.872-3.747,4.525-5.29,8.026c-0.115,0.26-0.211,0.479-0.287,0.644
			c-0.001,0.003-0.001,0.006-0.002,0.01C3.537,9.313,3.537,9.328,3.532,9.341C3.516,9.39,3.504,9.438,3.503,9.487
			C3.502,9.492,3.5,9.495,3.5,9.5c0,0.014,0.007,0.026,0.008,0.04c0.004,0.045,0.011,0.088,0.026,0.13
			c0.008,0.022,0.019,0.041,0.03,0.061c0.018,0.033,0.038,0.064,0.063,0.093c0.017,0.02,0.036,0.036,0.056,0.053
			c0.015,0.013,0.025,0.029,0.042,0.04c1.302,0.854,2.601,2.261,2.748,3.295c-1.123,1.275-2.057,2.186-2.546,2.659l-0.281,0.274
			C3.623,16.169,3.61,16.2,3.592,16.227c-0.018,0.027-0.041,0.05-0.053,0.08C3.514,16.368,3.5,16.433,3.5,16.5
			c0,2.323-0.15,2.592-1.329,3.624c-0.012,0.011-0.017,0.026-0.028,0.037C1.187,20.513,0.5,21.424,0.5,22.5v1
			C0.5,23.776,0.724,24,1,24h22c0.276,0,0.5-0.224,0.5-0.5v-1C23.5,21.424,22.813,20.513,21.857,20.161z M15.986,2.941
			C17.339,4.734,18.624,7.627,19.229,9H17c-0.276,0-0.5,0.224-0.5,0.5S16.724,10,17,10h1.55c-0.71,0.636-1.433,1.448-1.802,2.303
			c-0.68-0.818-1.402-1.751-2.13-2.797C15.474,8.135,15.911,4.541,15.986,2.941z M9.544,1.529c0.039-0.017,0.078-0.043,0.117-0.056
			c0.072-0.024,0.132-0.066,0.183-0.115C10.564,1.017,11.485,1,11.5,1h1c0.015,0,0.934,0.017,1.653,0.356
			c0.051,0.05,0.111,0.092,0.184,0.117c0.04,0.014,0.082,0.041,0.122,0.059C14.774,1.752,15,2.061,15,2.5
			c0,1.947-0.672,6.034-1.334,6.628c-0.492,0.443-1.661,0.614-2.544,0.389c-0.014-0.003-0.026-0.006-0.04-0.008
			c-0.294-0.079-0.554-0.203-0.743-0.377C9.8,8.637,9,4.36,9,2.5C9,2.059,9.228,1.749,9.544,1.529z M12.374,10.583L12.091,12H11.91
			l-0.282-1.409c0.107,0.007,0.214,0.022,0.321,0.022C12.092,10.613,12.233,10.595,12.374,10.583z M5.448,10H7
			c0.276,0,0.5-0.224,0.5-0.5S7.276,9,7,9H4.769C5.374,7.627,6.66,4.731,8.014,2.938c0.09,1.638,0.612,5.227,1.375,6.557
			c-0.731,1.051-1.456,1.988-2.139,2.809C6.881,11.448,6.158,10.636,5.448,10z M7.137,13.974c0.183-0.053,0.321-0.205,0.349-0.4
			c0.819-0.947,1.721-2.078,2.634-3.381c0.139,0.076,0.292,0.135,0.447,0.189l0.443,2.216C11.057,12.832,11.262,13,11.5,13h1
			c0.238,0,0.443-0.168,0.49-0.403l0.447-2.235c0.152-0.053,0.304-0.107,0.436-0.177c0.915,1.305,1.818,2.439,2.639,3.387
			c0.03,0.196,0.167,0.348,0.35,0.401c0.756,0.853,1.413,1.53,1.913,2.027H5.223C5.724,15.503,6.381,14.826,7.137,13.974z M8.5,23
			h-1v-0.5C7.5,22.224,7.276,22,7,22s-0.5,0.224-0.5,0.5V23h-1v-0.5C5.5,22.224,5.276,22,5,22s-0.5,0.224-0.5,0.5V23h-1v-0.5
			C3.5,22.224,3.276,22,3,22s-0.5,0.224-0.5,0.5V23h-1v-0.5C1.5,21.673,2.173,21,3,21h4c0.827,0,1.5,0.673,1.5,1.5V23z M14.5,22.5
			V23h-2v-2.5c0-0.276-0.224-0.5-0.5-0.5s-0.5,0.224-0.5,0.5V23h-2v-0.5C9.5,21.121,8.378,20,7,20H3.71
			c0.601-0.733,0.758-1.474,0.783-3h15.014c0.025,1.526,0.182,2.267,0.783,3H17C15.622,20,14.5,21.121,14.5,22.5z M22.5,23h-1v-0.5
			c0-0.276-0.224-0.5-0.5-0.5s-0.5,0.224-0.5,0.5V23h-1v-0.5c0-0.276-0.224-0.5-0.5-0.5s-0.5,0.224-0.5,0.5V23h-1v-0.5
			c0-0.276-0.224-0.5-0.5-0.5s-0.5,0.224-0.5,0.5V23h-1v-0.5c0-0.827,0.673-1.5,1.5-1.5h4c0.827,0,1.5,0.673,1.5,1.5V23z"/>
	</g>
</g>
</svg>
