<?xml version="1.0" encoding="iso-8859-1"?>
<!-- Generator: Adobe Illustrator 19.0.0, SVG Export Plug-In . SVG Version: 6.00 Build 0)  -->
<svg version="1.1" id="Layer_1" xmlns="http://www.w3.org/2000/svg" xmlns:xlink="http://www.w3.org/1999/xlink" x="0px" y="0px"
	 viewBox="0 0 24 24" style="enable-background:new 0 0 24 24;" xml:space="preserve">
<g>
	<g>
		<path d="M11.339,13.973c-0.267,0.069-0.428,0.341-0.36,0.609c0.101,0.393-0.06,0.76-0.27,0.824
			c-0.214,0.065-0.548-0.15-0.685-0.532c-0.093-0.261-0.381-0.397-0.639-0.303C9.125,14.664,8.99,14.95,9.083,15.21
			c0.262,0.735,0.893,1.209,1.539,1.209c0.127,0,0.255-0.019,0.382-0.057c0.762-0.233,1.177-1.124,0.945-2.029
			C11.88,14.065,11.609,13.906,11.339,13.973z M17.05,11.287c-0.316-0.171-0.695-0.171-1.013-0.002
			c-0.961,0.515-2.092,0.516-3.055,0c-0.04-0.021-0.085-0.033-0.127-0.049l-0.611-1.508c-0.148-0.368-0.46-0.632-0.835-0.708
			c-0.352-0.071-0.715,0.039-0.969,0.295c-0.383,0.387-0.836,0.662-1.345,0.818c-0.511,0.156-1.04,0.182-1.574,0.076
			c-0.356-0.07-0.716,0.043-0.968,0.299c-0.268,0.273-0.379,0.667-0.296,1.055l0.884,4.145c0.502,1.639,1.955,2.71,3.487,2.71
			c0.283,0,0.569-0.043,0.852-0.12c0.617,1.161,1.761,1.889,3.031,1.889c1.93,0,3.5-1.686,3.497-3.8l-0.367-4.178
			C17.607,11.814,17.386,11.469,17.05,11.287z M11.539,17.211c-0.006,0.003-0.01,0.008-0.016,0.011
			c-0.076,0.032-0.147,0.073-0.227,0.097c-1.322,0.403-2.753-0.45-3.187-1.86l-0.874-4.103c-0.018-0.087,0.019-0.134,0.093-0.164
			c0.698,0.136,1.391,0.102,2.06-0.101c0.669-0.205,1.262-0.565,1.763-1.069l-0.355-0.353l0.417,0.333
			c0.016,0.003,0.073,0.021,0.106,0.103l0.708,1.745c0,0.001,0,0.002,0,0.003l0.566,1.395l0.286,0.704
			c0.052,0.172,0.088,0.345,0.109,0.519c0.009,0.076,0.006,0.151,0.009,0.226c0.004,0.094,0.012,0.188,0.007,0.281
			c-0.005,0.101-0.023,0.199-0.039,0.297c-0.01,0.064-0.017,0.129-0.031,0.193c-0.025,0.107-0.06,0.21-0.097,0.311
			c-0.018,0.05-0.034,0.101-0.055,0.15c-0.05,0.115-0.107,0.225-0.172,0.331c-0.014,0.023-0.027,0.046-0.041,0.068
			C12.319,16.71,11.97,17.021,11.539,17.211z M14.511,19.187c-0.874,0-1.67-0.499-2.121-1.301c0.248-0.158,0.47-0.351,0.67-0.571
			c-0.025,0.112-0.042,0.229-0.047,0.349c-0.012,0.275,0.201,0.509,0.477,0.522c0.28,0.013,0.51-0.201,0.522-0.477
			C14.031,17.303,14.292,17,14.511,17c0.22,0,0.48,0.303,0.499,0.71c0.012,0.268,0.233,0.477,0.499,0.477
			c0.008,0,0.016,0,0.023-0.001c0.276-0.012,0.49-0.246,0.477-0.522C15.966,16.731,15.308,16,14.511,16
			c-0.292,0-0.564,0.1-0.795,0.269c0.011-0.027,0.019-0.054,0.03-0.081c0.025-0.065,0.05-0.129,0.072-0.196
			c0.043-0.135,0.077-0.271,0.104-0.41c0.015-0.076,0.026-0.153,0.037-0.231c0.018-0.133,0.033-0.266,0.037-0.401
			c0.003-0.107-0.004-0.215-0.01-0.323c-0.006-0.11-0.006-0.219-0.022-0.33c-0.03-0.226-0.076-0.453-0.145-0.679l-0.207-0.51
			l-0.239-0.591c1.032,0.29,2.125,0.172,3.201-0.35c0.015,0.008,0.064,0.042,0.072,0.13l0.365,4.134
			C17.011,17.951,15.89,19.187,14.511,19.187z M22.98,21.487L22.528,7h0.984c0.23,0,0.431-0.157,0.485-0.381
			c0.055-0.224-0.05-0.457-0.254-0.563l-11.5-6c-0.146-0.075-0.317-0.075-0.463,0l-11.5,6C0.076,6.163-0.029,6.395,0.026,6.619
			S0.281,7,0.511,7h0.961L1.02,21.487c-0.642,0.469-1.031,1.216-1.031,2.013c0,0.276,0.224,0.5,0.5,0.5h4c0.276,0,0.5-0.224,0.5-0.5
			c0-0.797-0.388-1.545-1.031-2.013L3.505,7h16.991l-0.453,14.487c-0.642,0.469-1.031,1.216-1.031,2.013c0,0.276,0.224,0.5,0.5,0.5
			h4c0.276,0,0.5-0.224,0.5-0.5C24.011,22.703,23.623,21.955,22.98,21.487z M3.899,23H1.076c0.121-0.332,0.36-0.619,0.681-0.8
			c0.152-0.086,0.248-0.245,0.254-0.42L2.474,7l0.492,14.78c0.005,0.175,0.102,0.334,0.254,0.42C3.541,22.381,3.779,22.668,3.899,23
			z M2.55,6l9.461-4.936L21.472,6H2.55z M20.099,23c0.121-0.332,0.36-0.619,0.681-0.8c0.152-0.086,0.248-0.245,0.254-0.42L21.497,7
			l0.492,14.78c0.005,0.175,0.102,0.334,0.254,0.42c0.321,0.181,0.559,0.468,0.68,0.8H20.099z"/>
	</g>
</g>
</svg>
