<?xml version="1.0" encoding="utf-8"?>
<!-- Generator: Adobe Illustrator 19.0.0, SVG Export Plug-In . SVG Version: 6.00 Build 0)  -->
<svg version="1.1" id="Layer_1" xmlns="http://www.w3.org/2000/svg" xmlns:xlink="http://www.w3.org/1999/xlink" x="0px" y="0px"
	 viewBox="0 0 30 30" style="enable-background:new 0 0 30 30;" xml:space="preserve">
<g>
	<g>
		<g>
			<g>
				<path d="M19,29.5h-7c-0.3,0-0.5-0.2-0.5-0.5s0.2-0.5,0.5-0.5h7c0.3,0,0.5,0.2,0.5,0.5S19.3,29.5,19,29.5z"/>
			</g>
			<g>
				<path d="M19,27.5h-7c-0.3,0-0.5-0.2-0.5-0.5s0.2-0.5,0.5-0.5h7c0.3,0,0.5,0.2,0.5,0.5S19.3,27.5,19,27.5z"/>
			</g>
			<g>
				<path d="M19,25.5h-7c-0.3,0-0.5-0.2-0.5-0.5s0.2-0.5,0.5-0.5h7c0.3,0,0.5,0.2,0.5,0.5S19.3,25.5,19,25.5z"/>
			</g>
			<g>
				<path d="M19,23.5h-7c-0.3,0-0.5-0.2-0.5-0.5s0.2-0.5,0.5-0.5h7c0.3,0,0.5,0.2,0.5,0.5S19.3,23.5,19,23.5z"/>
			</g>
		</g>
	</g>
	<g>
		<g>
			<path d="M26.5,24.5H21c-0.3,0-0.5-0.2-0.5-0.5s0.2-0.5,0.5-0.5h5.5c1.1,0,2-0.9,2-2v-11c0-1.1-0.9-2-2-2H11.9
				c-1.3,0-2.4-0.8-2.8-2.1L8.9,5.8C8.6,5.1,7.9,4.5,7,4.5H3.5c-1.1,0-2,0.9-2,2v15c0,1.1,0.9,2,2,2H10c0.3,0,0.5,0.2,0.5,0.5
				s-0.2,0.5-0.5,0.5H3.5c-1.7,0-3-1.3-3-3v-15c0-1.7,1.3-3,3-3H7c1.3,0,2.4,0.8,2.8,2.1L10,6.2c0.3,0.8,1,1.3,1.9,1.3h14.6
				c1.7,0,3,1.3,3,3v11C29.5,23.2,28.2,24.5,26.5,24.5z"/>
		</g>
		<g>
			<path d="M28,9c-0.3,0-0.5-0.2-0.5-0.5v-5c0-1.1-0.9-2-2-2h-21c-1.1,0-2,0.9-2,2V4c0,0.3-0.2,0.5-0.5,0.5S1.5,4.3,1.5,4V3.5
				c0-1.7,1.3-3,3-3h21c1.7,0,3,1.3,3,3v5C28.5,8.8,28.3,9,28,9z"/>
		</g>
	</g>
</g>
</svg>
