<?xml version="1.0" encoding="utf-8"?>
<!-- Generator: Adobe Illustrator 19.0.0, SVG Export Plug-In . SVG Version: 6.00 Build 0)  -->
<svg version="1.1" id="Layer_1" xmlns="http://www.w3.org/2000/svg" xmlns:xlink="http://www.w3.org/1999/xlink" x="0px" y="0px"
	 viewBox="0 0 30 30" style="enable-background:new 0 0 30 30;" xml:space="preserve">
<g>
	<g>
		<path d="M14,19.5h-1c-0.3,0-0.5-0.2-0.5-0.5s0.2-0.5,0.5-0.5h1c0.3,0,0.5,0.2,0.5,0.5S14.3,19.5,14,19.5z"/>
	</g>
	<g>
		<path d="M17.5,27.5H16c-0.3,0-0.5-0.2-0.5-0.5s0.2-0.5,0.5-0.5h1.5c0.3,0,0.5,0.2,0.5,0.5S17.8,27.5,17.5,27.5z"/>
	</g>
	<g>
		<path d="M13,21.5c-0.1,0-0.3,0-0.4-0.1c-0.2-0.2-0.2-0.5,0-0.7l1.6-1.6l-1.6-1.6c-0.2-0.2-0.2-0.5,0-0.7s0.5-0.2,0.7,0l2,2
			c0.2,0.2,0.2,0.5,0,0.7l-2,2C13.3,21.5,13.1,21.5,13,21.5z"/>
	</g>
	<g>
		<path d="M17,29.5c-0.1,0-0.3,0-0.4-0.1l-2-2c-0.2-0.2-0.2-0.5,0-0.7l2-2c0.2-0.2,0.5-0.2,0.7,0s0.2,0.5,0,0.7L15.7,27l1.6,1.6
			c0.2,0.2,0.2,0.5,0,0.7C17.3,29.5,17.1,29.5,17,29.5z"/>
	</g>
	<g>
		<g>
			<path d="M26.5,24.5H23c-0.3,0-0.5-0.2-0.5-0.5s0.2-0.5,0.5-0.5h3.5c1.1,0,2-0.9,2-2v-11c0-1.1-0.9-2-2-2H11.9
				c-1.3,0-2.4-0.8-2.8-2.1L8.9,5.8C8.6,5.1,7.9,4.5,7,4.5H3.5c-1.1,0-2,0.9-2,2v15c0,1.1,0.9,2,2,2H7c0.3,0,0.5,0.2,0.5,0.5
				S7.3,24.5,7,24.5H3.5c-1.7,0-3-1.3-3-3v-15c0-1.7,1.3-3,3-3H7c1.3,0,2.4,0.8,2.8,2.1L10,6.2c0.3,0.8,1,1.3,1.9,1.3h14.6
				c1.7,0,3,1.3,3,3v11C29.5,23.2,28.2,24.5,26.5,24.5z"/>
		</g>
		<g>
			<path d="M28,9c-0.3,0-0.5-0.2-0.5-0.5v-5c0-1.1-0.9-2-2-2h-21c-1.1,0-2,0.9-2,2V4c0,0.3-0.2,0.5-0.5,0.5S1.5,4.3,1.5,4V3.5
				c0-1.7,1.3-3,3-3h21c1.7,0,3,1.3,3,3v5C28.5,8.8,28.3,9,28,9z"/>
		</g>
	</g>
	<g>
		<path d="M17,27.5c-0.3,0-0.5-0.2-0.5-0.5s0.2-0.5,0.5-0.5c1.9,0,3.5-1.6,3.5-3.5s-1.6-3.5-3.5-3.5c-0.3,0-0.5-0.2-0.5-0.5
			s0.2-0.5,0.5-0.5c2.5,0,4.5,2,4.5,4.5S19.5,27.5,17,27.5z"/>
	</g>
	<g>
		<path d="M13,27.5c-2.5,0-4.5-2-4.5-4.5s2-4.5,4.5-4.5c0.3,0,0.5,0.2,0.5,0.5s-0.2,0.5-0.5,0.5c-1.9,0-3.5,1.6-3.5,3.5
			s1.6,3.5,3.5,3.5c0.3,0,0.5,0.2,0.5,0.5S13.3,27.5,13,27.5z"/>
	</g>
</g>
</svg>
