<?xml version="1.0" encoding="iso-8859-1"?>
<!-- Generator: Adobe Illustrator 19.0.0, SVG Export Plug-In . SVG Version: 6.00 Build 0)  -->
<svg version="1.1" id="Layer_1" xmlns="http://www.w3.org/2000/svg" xmlns:xlink="http://www.w3.org/1999/xlink" x="0px" y="0px"
	 viewBox="0 0 24 24" style="enable-background:new 0 0 24 24;" xml:space="preserve">
<path d="M12,0C5.383,0,0,5.383,0,12s5.383,12,12,12s12-5.383,12-12S18.617,0,12,0z M16.5,7C17.327,7,18,7.673,18,8.5
	S17.327,10,16.5,10S15,9.327,15,8.5S15.673,7,16.5,7z M7.5,7C8.327,7,9,7.673,9,8.5S8.327,10,7.5,10S6,9.327,6,8.5S6.673,7,7.5,7z
	 M12,21c-3.979,0-7.436-2.553-8.603-6.353c-0.047-0.152-0.019-0.316,0.075-0.444C3.567,14.075,3.717,14,3.875,14h16.25
	c0.158,0,0.308,0.075,0.402,0.203c0.094,0.128,0.122,0.292,0.075,0.444C19.436,18.447,15.979,21,12,21z"/>
<g>
</g>
<g>
</g>
<g>
</g>
<g>
</g>
<g>
</g>
<g>
</g>
<g>
</g>
<g>
</g>
<g>
</g>
<g>
</g>
<g>
</g>
<g>
</g>
<g>
</g>
<g>
</g>
<g>
</g>
</svg>
