<?xml version="1.0" encoding="iso-8859-1"?>
<!-- Generator: Adobe Illustrator 19.0.0, SVG Export Plug-In . SVG Version: 6.00 Build 0)  -->
<svg version="1.1" id="Layer_1" xmlns="http://www.w3.org/2000/svg" xmlns:xlink="http://www.w3.org/1999/xlink" x="0px" y="0px"
	 viewBox="0 0 24 24" style="enable-background:new 0 0 24 24;" xml:space="preserve">
<g>
	<path d="M12,0c-1.221,0-2.462,0.202-3.687,0.601c-0.214,0.07-0.355,0.275-0.345,0.5c0.025,0.514,0.23,0.977,0.592,1.339
		c0.521,0.521,1.13,0.599,1.446,0.599c0.115,0,0.193-0.01,0.25-0.019c0.813-0.167,1.58,0.382,1.74,1.181
		c0.071,0.354,0.001,0.728-0.195,1.052c-0.094,0.155-0.097,0.349-0.006,0.507c0.129,0.226,0.265,0.589,0.176,1.035
		c-0.14,0.699-0.755,1.207-1.464,1.207c-0.099,0-0.199-0.01-0.371-0.039c-0.012-0.001-0.111-0.004-0.123-0.004
		c-0.317,0-0.926,0.078-1.452,0.603c-0.7,0.701-0.599,1.571-0.581,1.696c0.162,0.811-0.356,1.575-1.182,1.74
		c-0.363,0.071-0.728,0.004-1.049-0.189c-0.155-0.093-0.348-0.095-0.506-0.005c-0.312,0.18-0.668,0.244-1.038,0.169
		c-0.793-0.159-1.324-0.936-1.179-1.755c0.02-0.158,0.087-0.979-0.587-1.655C2.077,8.198,1.614,7.994,1.099,7.97
		C0.886,7.958,0.67,8.101,0.6,8.315C0.202,9.54,0,10.779,0,12c0,6.617,5.383,12,12,12s12-5.383,12-12S18.617,0,12,0z M8.5,13h-2
		C6.224,13,6,12.776,6,12.5S6.224,12,6.5,12h2C8.776,12,9,12.224,9,12.5S8.776,13,8.5,13z M14.5,18h-5C9.224,18,9,17.776,9,17.5
		S9.224,17,9.5,17h5c0.276,0,0.5,0.224,0.5,0.5S14.776,18,14.5,18z M17.5,13h-2c-0.276,0-0.5-0.224-0.5-0.5s0.224-0.5,0.5-0.5h2
		c0.276,0,0.5,0.224,0.5,0.5S17.776,13,17.5,13z"/>
	<g>
		<path d="M0.984,5.037c-0.336,0-0.556-0.042-0.582-0.047C0.131,4.936-0.044,4.673,0.01,4.402C0.064,4.13,0.328,3.955,0.598,4.01
			c0.055,0.011,1.43,0.255,2.548-0.863C4.264,2.029,4.02,0.653,4.009,0.595c-0.051-0.27,0.125-0.532,0.396-0.584
			C4.676-0.043,4.936,0.132,4.99,0.402c0.016,0.079,0.369,1.946-1.137,3.452C2.843,4.864,1.67,5.037,0.984,5.037z"/>
	</g>
	<g>
		<path d="M10.016,5.037c-0.686,0-1.859-0.173-2.87-1.184C5.641,2.348,5.994,0.481,6.01,0.402C6.064,0.13,6.326-0.045,6.598,0.01
			c0.27,0.054,0.445,0.316,0.393,0.585l0,0C6.98,0.653,6.736,2.029,7.854,3.147c1.118,1.118,2.493,0.875,2.551,0.863
			c0.27-0.051,0.532,0.125,0.584,0.396c0.053,0.27-0.122,0.532-0.391,0.585C10.572,4.996,10.353,5.037,10.016,5.037z"/>
	</g>
	<g>
		<path d="M6.499,10.999c-0.233,0-0.441-0.163-0.489-0.4C5.994,10.52,5.641,8.652,7.147,7.147c1.505-1.506,3.374-1.153,3.452-1.137
			c0.271,0.054,0.446,0.317,0.392,0.588c-0.054,0.271-0.319,0.446-0.588,0.392c-0.054-0.011-1.43-0.254-2.548,0.863
			c-1.118,1.118-0.874,2.493-0.863,2.551c0.051,0.27-0.125,0.532-0.396,0.584C6.563,10.996,6.53,10.999,6.499,10.999z"/>
	</g>
	<g>
		<path d="M4.501,11c-0.033,0-0.065-0.003-0.099-0.01c-0.27-0.054-0.445-0.316-0.393-0.585l0,0c0.011-0.058,0.255-1.434-0.863-2.551
			C2.028,6.736,0.655,6.981,0.595,6.991C0.328,7.045,0.064,6.866,0.011,6.595c-0.053-0.27,0.122-0.532,0.391-0.585
			c0.079-0.016,1.946-0.369,3.452,1.137c1.505,1.505,1.152,3.373,1.137,3.452C4.943,10.836,4.734,11,4.501,11z"/>
	</g>
</g>
<g>
</g>
<g>
</g>
<g>
</g>
<g>
</g>
<g>
</g>
<g>
</g>
<g>
</g>
<g>
</g>
<g>
</g>
<g>
</g>
<g>
</g>
<g>
</g>
<g>
</g>
<g>
</g>
<g>
</g>
</svg>
