<?xml version="1.0" encoding="iso-8859-1"?>
<!-- Generator: Adobe Illustrator 19.0.0, SVG Export Plug-In . SVG Version: 6.00 Build 0)  -->
<svg version="1.1" id="Layer_1" xmlns="http://www.w3.org/2000/svg" xmlns:xlink="http://www.w3.org/1999/xlink" x="0px" y="0px"
	 viewBox="0 0 24 24" style="enable-background:new 0 0 24 24;" xml:space="preserve">
<g>
	<path d="M16,8.5c0,0.003,0.015,0.243,1,0.422V8.047C16.36,8.146,16,8.4,16,8.5z"/>
	<path d="M8,10.5c0-0.003-0.015-0.243-1-0.422v0.873C7.664,10.849,8,10.581,8,10.5z"/>
	<path d="M5,8.5c0,0.003,0.015,0.243,1,0.422V8.047C5.36,8.146,5,8.4,5,8.5z"/>
	<path d="M18,10.078v0.873c0.664-0.103,1-0.371,1-0.451C19,10.498,18.985,10.257,18,10.078z"/>
	<path d="M12,0C5.383,0,0,5.383,0,12s5.383,12,12,12s12-5.383,12-12S18.617,0,12,0z M4.004,10.626
		c-0.035-0.274,0.159-0.524,0.433-0.559c0.27-0.031,0.524,0.159,0.56,0.433C5.011,10.617,5.379,10.859,6,10.954v-1.02
		C5.183,9.807,4,9.5,4,8.5c0-0.751,0.831-1.34,2-1.471V6.5C6,6.224,6.224,6,6.5,6S7,6.224,7,6.5v0.528
		c1.097,0.123,1.907,0.651,1.996,1.345c0.035,0.274-0.159,0.524-0.433,0.559c-0.274,0.032-0.524-0.159-0.56-0.433
		C7.989,8.383,7.621,8.141,7,8.046v1.019C7.817,9.193,9,9.5,9,10.5c0,0.751-0.831,1.339-2,1.471V12.5C7,12.776,6.776,13,6.5,13
		S6,12.776,6,12.5v-0.528C4.903,11.849,4.093,11.321,4.004,10.626z M17.893,15.77C16.596,17.792,14.394,19,12,19
		s-4.596-1.208-5.893-3.23c-0.149-0.233-0.081-0.542,0.151-0.691c0.229-0.15,0.54-0.083,0.69,0.151C8.061,16.964,9.949,18,12,18
		s3.939-1.036,5.051-2.77c0.15-0.233,0.461-0.3,0.69-0.151C17.974,15.228,18.042,15.537,17.893,15.77z M18,11.971V12.5
		c0,0.276-0.224,0.5-0.5,0.5S17,12.776,17,12.5v-0.528c-1.097-0.123-1.907-0.651-1.996-1.346c-0.035-0.274,0.159-0.524,0.433-0.559
		c0.265-0.031,0.524,0.159,0.56,0.433c0.015,0.116,0.383,0.359,1.004,0.454v-1.02C16.183,9.807,15,9.5,15,8.5
		c0-0.751,0.831-1.34,2-1.471V6.5C17,6.224,17.224,6,17.5,6S18,6.224,18,6.5v0.528c1.097,0.123,1.907,0.651,1.996,1.345
		c0.035,0.274-0.159,0.524-0.433,0.559c-0.272,0.032-0.524-0.159-0.56-0.433C18.989,8.383,18.621,8.141,18,8.046v1.019
		c0.817,0.128,2,0.435,2,1.435C20,11.252,19.169,11.84,18,11.971z"/>
</g>
<g>
</g>
<g>
</g>
<g>
</g>
<g>
</g>
<g>
</g>
<g>
</g>
<g>
</g>
<g>
</g>
<g>
</g>
<g>
</g>
<g>
</g>
<g>
</g>
<g>
</g>
<g>
</g>
<g>
</g>
</svg>
