<?xml version="1.0" encoding="iso-8859-1"?>
<!-- Generator: Adobe Illustrator 19.0.0, SVG Export Plug-In . SVG Version: 6.00 Build 0)  -->
<svg version="1.1" id="Layer_1" xmlns="http://www.w3.org/2000/svg" xmlns:xlink="http://www.w3.org/1999/xlink" x="0px" y="0px"
	 viewBox="0 0 24 24" style="enable-background:new 0 0 24 24;" xml:space="preserve">
<g>
	<path d="M3.057,9.197C3.012,8.972,2.987,8.739,2.987,8.5c0-2.5,2.634-2.5,3.5-2.5c0.352,0,0.996,0.003,1.637,0.171
		C8.145,6.147,8.161,6.12,8.188,6.1c0.241-0.18,5.209-3.866,9.091-4.853C15.68,0.456,13.888,0,11.987,0
		C5.546,0,0.288,5.106,0.013,11.481L3.057,9.197z"/>
	<path d="M18.648,2.026c-3.154,0.235-8.143,3.644-9.504,4.615C9.633,7.009,9.987,7.586,9.987,8.5c0,1.93-1.57,3.5-3.5,3.5
		c-1.323,0-2.463-0.746-3.058-1.832l-3.406,2.554C0.4,19.002,5.614,24,11.987,24c6.617,0,12-5.383,12-12
		C23.987,7.847,21.864,4.181,18.648,2.026z M14.329,7.026l3-1c0.265-0.089,0.545,0.054,0.632,0.316
		c0.087,0.262-0.054,0.545-0.316,0.632l-3,1C14.592,7.992,14.539,8,14.487,8c-0.209,0-0.404-0.132-0.474-0.342
		C13.925,7.396,14.067,7.113,14.329,7.026z M17.987,9.5c0,0.827-0.673,1.5-1.5,1.5s-1.5-0.673-1.5-1.5S15.66,8,16.487,8
		S17.987,8.673,17.987,9.5z M11.987,21c-3.978,0-7.435-2.553-8.603-6.353c-0.046-0.152-0.019-0.316,0.076-0.444
		C3.554,14.075,3.703,14,3.862,14h16.25c0.159,0,0.308,0.075,0.402,0.203c0.094,0.127,0.122,0.292,0.076,0.444
		C19.422,18.447,15.964,21,11.987,21z"/>
</g>
<g>
</g>
<g>
</g>
<g>
</g>
<g>
</g>
<g>
</g>
<g>
</g>
<g>
</g>
<g>
</g>
<g>
</g>
<g>
</g>
<g>
</g>
<g>
</g>
<g>
</g>
<g>
</g>
<g>
</g>
</svg>
