<?xml version="1.0" encoding="iso-8859-1"?>
<!-- Generator: Adobe Illustrator 19.0.0, SVG Export Plug-In . SVG Version: 6.00 Build 0)  -->
<svg version="1.1" id="Layer_1" xmlns="http://www.w3.org/2000/svg" xmlns:xlink="http://www.w3.org/1999/xlink" x="0px" y="0px"
	 viewBox="0 0 24 24" style="enable-background:new 0 0 24 24;" xml:space="preserve">
<g>
	<g>
		<path d="M12,23c-3.084,0-5-0.767-5-2l-0.493-7.371C6.502,13.587,6.5,13.544,6.5,13.5c0-0.27,0.214-0.491,0.483-0.5
			c0.251-0.04,0.498,0.196,0.516,0.466l0.002,0.035C7.6,13.631,8.256,14,12,14c3.672,0,4.374-0.355,4.5-0.521l0-0.013
			c0.018-0.27,0.229-0.51,0.516-0.466c0.27,0.009,0.483,0.23,0.483,0.5c0,0.044-0.002,0.087-0.007,0.129L17,21.019
			C16.98,22.241,15.068,23,12,23z M7.576,14.62l0.423,6.347C8,21.294,9.151,22,12,22s4-0.706,4-1c0-0.011,0-0.022,0.001-0.033
			l0.423-6.347C15.494,14.92,13.985,15,12,15S8.506,14.92,7.576,14.62z"/>
	</g>
	<g>
		<path d="M17,14c-0.017,0-0.033-0.001-0.05-0.002c-0.275-0.027-0.475-0.272-0.448-0.547l0.5-5c0.028-0.274,0.267-0.468,0.547-0.448
			c0.275,0.027,0.475,0.272,0.448,0.547l-0.5,5C17.472,13.808,17.254,14,17,14z"/>
	</g>
	<g>
		<path d="M7,14c-0.254,0-0.471-0.192-0.497-0.45l-0.5-5C5.975,8.275,6.175,8.03,6.45,8.002c0.278-0.02,0.52,0.173,0.547,0.448
			l0.5,5c0.027,0.275-0.173,0.52-0.448,0.547C7.033,13.999,7.016,14,7,14z"/>
	</g>
	<g>
		<path d="M12,21c-0.276,0-0.5-0.224-0.5-0.5v-4c0-0.276,0.224-0.5,0.5-0.5s0.5,0.224,0.5,0.5v4C12.5,20.776,12.276,21,12,21z"/>
	</g>
	<g>
		<path d="M10,21c-0.249,0-0.464-0.185-0.496-0.438l-0.5-4c-0.034-0.274,0.16-0.524,0.434-0.558c0.274-0.033,0.524,0.16,0.558,0.434
			l0.5,4c0.034,0.274-0.16,0.524-0.434,0.558C10.041,20.999,10.02,21,10,21z"/>
	</g>
	<g>
		<path d="M14,21c-0.021,0-0.042-0.001-0.063-0.004c-0.274-0.034-0.468-0.284-0.434-0.558l0.5-4
			c0.034-0.274,0.282-0.467,0.558-0.434c0.274,0.034,0.468,0.284,0.434,0.558l-0.5,4C14.464,20.815,14.249,21,14,21z"/>
	</g>
	<g>
		<path d="M12,9C7.355,9,5,8.495,5,7.5c-0.017-0.105-0.5-4.022-0.5-5C4.5,2.224,4.724,2,5,2c0.952,0,1.697,0.761,2.294,1.372
			c0.17,0.174,0.404,0.413,0.572,0.542C7.915,3.782,7.97,3.605,8.014,3.461C8.388,2.251,9.084,0,12,0s3.612,2.251,3.986,3.461
			c0.045,0.146,0.1,0.324,0.149,0.456c0.161-0.126,0.398-0.369,0.57-0.545C17.303,2.761,18.048,2,19,2c0.276,0,0.5,0.224,0.5,0.5
			c0,0.954-0.46,4.706-0.501,5.042C18.932,8.51,16.578,9,12,9z M5.985,7.349C6.37,7.583,8.187,8,12,8s5.63-0.417,6.015-0.651
			c0.06-0.491,0.349-2.88,0.45-4.184c-0.359,0.206-0.717,0.571-1.045,0.906C16.933,4.57,16.512,5,16,5
			c-0.585,0-0.772-0.604-0.97-1.244C14.671,2.593,14.178,1,12,1S9.329,2.593,8.97,3.756C8.772,4.396,8.585,5,8,5
			C7.488,5,7.067,4.57,6.58,4.071c-0.328-0.335-0.686-0.7-1.045-0.906C5.636,4.469,5.925,6.858,5.985,7.349z"/>
	</g>
	<g>
		<path d="M15,13H9c-0.276,0-0.5-0.224-0.5-0.5v-2C8.5,10.224,8.724,10,9,10h6c0.276,0,0.5,0.224,0.5,0.5v2
			C15.5,12.776,15.276,13,15,13z M9.5,12h5v-1h-5V12z"/>
	</g>
	<g>
		<path d="M12,24c-1.615,0-2.69-0.273-3.196-0.812c-0.303-0.322-0.308-0.632-0.303-0.719c0.017-0.276,0.252-0.482,0.53-0.468
			c0.251,0.016,0.447,0.214,0.467,0.458C9.541,22.526,9.913,23,12,23c2.237,0,2.504-0.544,2.506-0.549
			c-0.018-0.276,0.189-0.473,0.465-0.49c0.272-0.028,0.51,0.232,0.528,0.508c0.005,0.087,0,0.397-0.303,0.719
			C14.69,23.727,13.615,24,12,24z"/>
	</g>
</g>
<g>
</g>
<g>
</g>
<g>
</g>
<g>
</g>
<g>
</g>
<g>
</g>
<g>
</g>
<g>
</g>
<g>
</g>
<g>
</g>
<g>
</g>
<g>
</g>
<g>
</g>
<g>
</g>
<g>
</g>
</svg>
