<?xml version="1.0" encoding="utf-8"?>
<!-- Generator: Adobe Illustrator 19.0.0, SVG Export Plug-In . SVG Version: 6.00 Build 0)  -->
<svg version="1.1" id="Layer_1" xmlns="http://www.w3.org/2000/svg" xmlns:xlink="http://www.w3.org/1999/xlink" x="0px" y="0px"
	 viewBox="0 0 30 30" style="enable-background:new 0 0 30 30;" xml:space="preserve">
<g>
	<path d="M15.5,13h-2L13,12.9v-1l0.4,0.1c0,0,0,0,0.1,0c0.2,0,0.5-0.2,0.5-0.4c0-0.3-0.2-0.5-0.4-0.6L13,10.9v-1l0.4,0.1
		c0,0,0,0,0.1,0c0.2,0,0.5-0.2,0.5-0.4C14,9.3,13.8,9,13.6,9L13,8.9v-1L13.4,8c0,0,0,0,0.1,0c0.2,0,0.5-0.2,0.5-0.4
		C14,7.3,13.8,7,13.6,7L13,6.9V5.5C13,5.2,12.8,5,12.5,5h-5C7.2,5,7,5.2,7,5.5v0.6L6.6,6C6.3,6,6,6.2,6,6.4C6,6.7,6.1,7,6.4,7L7,7.1
		v1L6.6,8C6.3,8,6,8.2,6,8.4C6,8.7,6.1,9,6.4,9L7,9.1v1L6.6,10C6.3,10,6,10.2,6,10.4C6,10.7,6.1,11,6.4,11L7,11.1v1L6.6,12
		C6.3,12,6,12.2,6,12.4C6,12.7,6.1,13,6.4,13l0,0h-2C3.1,13,2,14.1,2,15.5v13C2,29.3,2.7,30,3.5,30h13c0.8,0,1.5-0.7,1.5-1.5v-13
		C18,14.1,16.9,13,15.5,13z M8,6h4v0.8L8,6.2V6z M8,7.2l4,0.6v1L8,8.2V7.2z M8,9.2l4,0.6v1l-4-0.6V9.2z M8,11.2l4,0.6v1l-4-0.6V11.2
		z"/>
	<path d="M28,11.3L27,0.5C27,0.2,26.7,0,26.5,0h-6C20.2,0,20,0.2,20,0.5l-1,11c0,0.1,0,0.3,0.1,0.4c0.1,0.1,0.2,0.2,0.4,0.2H23v11.1
		c-0.2,0.1-0.4,0.2-0.5,0.4c-0.3,0.3-0.4,0.7-0.3,1.1l0.4,3c0,0.3,0.2,0.4,0.5,0.4h1c0.3,0,0.5-0.2,0.5-0.4l0.4-3
		c0.1-0.4-0.1-0.8-0.3-1.1c-0.1-0.2-0.3-0.3-0.5-0.4V12h3.5c0,0,0,0,0,0c0.3,0,0.5-0.2,0.5-0.5C28,11.4,28,11.4,28,11.3z"/>
</g>
</svg>
