<?xml version="1.0" encoding="utf-8"?>
<!-- Generator: Adobe Illustrator 19.0.0, SVG Export Plug-In . SVG Version: 6.00 Build 0)  -->
<svg version="1.1" id="Layer_1" xmlns="http://www.w3.org/2000/svg" xmlns:xlink="http://www.w3.org/1999/xlink" x="0px" y="0px"
	 viewBox="0 0 30 30" style="enable-background:new 0 0 30 30;" xml:space="preserve">
<g>
	<g>
		<path d="M8.1,29H3c-1.7,0-3-1.4-3-3.1v-5.1C0,19,0.7,17.3,1.9,16L14.2,4.1c0.2-0.2,0.5-0.2,0.7,0c0.2,0.2,0.2,0.5,0,0.7L2.6,16.8
			c-1,1.1-1.6,2.5-1.6,4v5.1C1,27.1,1.9,28,3,28h5c1.5,0,2.9-0.6,3.9-1.7l15.8-16.1C28.6,9.4,29,8.4,29,7.3s-0.4-2.2-1.2-2.9
			l-1.1-1.1C25.9,2.4,24.9,2,23.8,2c-1.1,0-2.1,0.4-2.9,1.2L6.8,17.8C6.3,18.3,6,19,6,19.6v2.6C6,22.6,6.3,23,6.8,23h2.5
			c0.7,0,1.3-0.3,1.8-0.8l10.5-10.8c0.2-0.2,0.5-0.2,0.7,0c0.2,0.2,0.2,0.5,0,0.7L11.8,22.9c-0.7,0.7-1.6,1.1-2.5,1.1H6.8
			c-1,0-1.8-0.8-1.8-1.8v-2.6c0-1,0.4-1.9,1-2.5L20.2,2.5c0.9-1,2.3-1.5,3.6-1.5c1.4,0,2.6,0.5,3.6,1.5l1.1,1.1c1,1,1.5,2.3,1.5,3.6
			s-0.5,2.7-1.5,3.6L12.7,27C11.5,28.3,9.8,29,8.1,29z"/>
	</g>
</g>
</svg>
