<?xml version="1.0" encoding="utf-8"?>
<!-- Generator: Adobe Illustrator 19.0.0, SVG Export Plug-In . SVG Version: 6.00 Build 0)  -->
<svg version="1.1" id="Layer_1" xmlns="http://www.w3.org/2000/svg" xmlns:xlink="http://www.w3.org/1999/xlink" x="0px" y="0px"
	 viewBox="0 0 30 30" style="enable-background:new 0 0 30 30;" xml:space="preserve">
<g>
	<path d="M26,17c0-0.3-0.2-0.5-0.5-0.5h-0.2c-0.1,0-0.1,0-0.2,0c-2.8,1.3-6.3,2-10.1,2c-6.1,0-11.4-1.7-14.1-4.7
		c-0.1-0.1-0.4-0.2-0.5-0.1C0.1,13.8,0,14,0,14.2v6.3c0,4.3,6.2,7.8,14.2,8c0,0,0.1,0,0.1,0h11.1c0.3,0,0.5-0.2,0.5-0.5
		c0-0.7-0.4-1.1-0.6-1.3C25.1,26.4,25,26.3,25,26s0.1-0.4,0.4-0.7c0.3-0.3,0.6-0.7,0.6-1.3c0-0.8-0.5-1-0.8-1.2
		C25,22.7,25,22.7,25,22.5s0-0.2,0.2-0.3C25.5,22,26,21.8,26,21c0-0.7-0.4-1.1-0.6-1.3C25.1,19.4,25,19.3,25,19
		c0-0.3,0.1-0.4,0.4-0.7C25.6,18.1,26,17.7,26,17z"/>
	<path d="M29.7,13.7c-0.2-0.1-0.4,0-0.5,0.1c-0.6,0.6-1.3,1.2-2.2,1.7c-0.2,0.1-0.3,0.4-0.2,0.7c0.1,0.2,0.2,0.5,0.2,0.7
		c0,0.6-0.2,1.2-0.6,1.7c-0.1,0.2-0.1,0.4,0,0.6c0.4,0.5,0.6,1.1,0.6,1.7c0,0.5-0.1,0.9-0.3,1.2c-0.1,0.2-0.1,0.4,0,0.5
		c0.2,0.3,0.3,0.7,0.3,1.2c0,0.3-0.1,0.6-0.2,0.9c-0.1,0.2,0,0.5,0.2,0.6c0.1,0.1,0.2,0.1,0.3,0.1c0.1,0,0.2,0,0.3-0.1
		c1.6-1.3,2.4-2.9,2.4-4.7v-6.6C30,14,29.9,13.8,29.7,13.7z"/>
	<path d="M15,17.5c8.4,0,15-3.5,15-8s-6.6-8-15-8S0,5,0,9.5S6.6,17.5,15,17.5z M15,11.5c-2.9,0-5-1.1-5-2s2.1-2,5-2s5,1.1,5,2
		S17.9,11.5,15,11.5z"/>
</g>
</svg>
