<?xml version="1.0" encoding="iso-8859-1"?>
<!-- Generator: Adobe Illustrator 19.0.0, SVG Export Plug-In . SVG Version: 6.00 Build 0)  -->
<svg version="1.1" id="Layer_1" xmlns="http://www.w3.org/2000/svg" xmlns:xlink="http://www.w3.org/1999/xlink" x="0px" y="0px"
	 viewBox="0 0 24 24" style="enable-background:new 0 0 24 24;" xml:space="preserve">
<g>
	<g>
		<path d="M17.465,0.97c-3.032,0-5.5,2.467-5.5,5.5s2.468,5.5,5.5,5.5s5.5-2.467,5.5-5.5S20.497,0.97,17.465,0.97z M17.465,10.97
			c-2.481,0-4.5-2.019-4.5-4.5s2.019-4.5,4.5-4.5s4.5,2.019,4.5,4.5S19.946,10.97,17.465,10.97z M18.534,16.539
			c-1.172,0-2.32-0.183-3.408-0.542c-0.53-0.183-1.133-0.042-1.483,0.314l-2.157,1.629c-2.475-1.321-4.059-2.904-5.362-5.361
			l1.584-2.105c0.4-0.401,0.544-0.985,0.371-1.531C7.718,7.85,7.535,6.702,7.535,5.53c0-0.827-0.673-1.5-1.5-1.5h-3.5
			c-0.827,0-1.5,0.673-1.5,1.5c0,9.649,7.851,17.5,17.5,17.5c0.827,0,1.5-0.673,1.499-1.501v-3.49
			C20.034,17.212,19.361,16.539,18.534,16.539z M19.035,21.53c0,0.276-0.225,0.5-0.5,0.5c-9.098,0-16.5-7.402-16.5-16.5
			c0-0.276,0.225-0.5,0.5-0.5h3.5c0.275,0,0.5,0.224,0.5,0.5c0,1.279,0.201,2.533,0.592,3.722C7.185,9.437,7.138,9.63,6.954,9.82
			l-1.819,2.41c-0.115,0.153-0.133,0.358-0.046,0.528c1.482,2.913,3.282,4.715,6.218,6.218c0.169,0.088,0.375,0.07,0.529-0.046
			l2.462-1.866c0.134-0.132,0.33-0.179,0.509-0.119c1.196,0.395,2.45,0.595,3.728,0.595c0.275,0,0.5,0.224,0.5,0.5V21.53z
			 M17.965,6.263V3.47c0-0.276-0.224-0.5-0.5-0.5s-0.5,0.224-0.5,0.5v3c0,0.133,0.053,0.26,0.146,0.354l2,2
			c0.098,0.097,0.226,0.146,0.354,0.146s0.256-0.049,0.354-0.146c0.195-0.195,0.195-0.512,0-0.707L17.965,6.263z"/>
	</g>
</g>
</svg>
