<?xml version="1.0" encoding="iso-8859-1"?>
<!-- Generator: Adobe Illustrator 19.0.0, SVG Export Plug-In . SVG Version: 6.00 Build 0)  -->
<svg version="1.1" id="Layer_1" xmlns="http://www.w3.org/2000/svg" xmlns:xlink="http://www.w3.org/1999/xlink" x="0px" y="0px"
	 viewBox="0 0 24 24" style="enable-background:new 0 0 24 24;" xml:space="preserve">
<g>
	<g>
		<path d="M21.462,6.309c-0.022-0.054-0.055-0.106-0.097-0.151c-0.001,0-0.001,0-0.001-0.001c-0.004-0.004-0.007-0.008-0.011-0.011
			c-0.509-0.511-0.827-1.521-0.829-2.639c-0.003-1.122,0.315-2.138,0.83-2.653c0.143-0.143,0.186-0.358,0.108-0.545
			C21.385,0.122,21.202,0,21,0H5.721C4.005,0,2.5,1.402,2.5,3v18c0,1.738,1.144,3,2.721,3H21c0.276,0,0.5-0.224,0.5-0.5V6.485
			C21.498,6.423,21.485,6.364,21.462,6.309z M3.5,3c0-1.047,1.058-2,2.221-2H20.05c-0.288,0.581-0.452,1.28-0.506,2H5.5
			C5.224,3,5,3.224,5,3.5S5.224,4,5.5,4h14.044c0.054,0.72,0.219,1.419,0.506,2H5.721C4.559,6,3.5,5.047,3.5,4V3z M20.5,23H5.221
			C4.032,23,3.5,21.996,3.5,21V6.13C4.087,6.663,4.879,7,5.721,7H20.5V23z M17.333,21c0.643,0,1.167-0.523,1.169-1.165v-2.327
			c0-0.644-0.524-1.167-1.167-1.167c-0.763,0-1.511-0.12-2.218-0.353c-0.416-0.144-0.886-0.033-1.144,0.234l-1.354,1.022
			c-1.552-0.845-2.53-1.821-3.363-3.362l0.977-1.301c0.312-0.311,0.423-0.764,0.289-1.191c-0.235-0.712-0.355-1.46-0.355-2.223
			C10.167,8.523,9.643,8,9,8H6.666C6.023,8,5.5,8.523,5.5,9.167C5.5,15.691,10.808,21,17.333,21z M6.666,9H9
			c0.09,0,0.166,0.076,0.166,0.166c0,0.869,0.136,1.723,0.403,2.53c0.01,0.031,0.024,0.109-0.089,0.229l-1.213,1.607
			C8.152,13.685,8.134,13.89,8.22,14.06c1.006,1.976,2.228,3.198,4.218,4.218c0.17,0.088,0.375,0.07,0.529-0.046l1.66-1.259
			c0.043-0.043,0.109-0.06,0.169-0.039c0.814,0.269,1.668,0.405,2.537,0.405c0.091,0,0.167,0.077,0.167,0.167v2.327
			c0,0.091-0.076,0.167-0.167,0.167C11.36,20,6.5,15.14,6.5,9.167C6.5,9.076,6.576,9,6.666,9z"/>
	</g>
</g>
</svg>
