<?xml version="1.0" encoding="iso-8859-1"?>
<!-- Generator: Adobe Illustrator 19.0.0, SVG Export Plug-In . SVG Version: 6.00 Build 0)  -->
<svg version="1.1" id="Layer_1" xmlns="http://www.w3.org/2000/svg" xmlns:xlink="http://www.w3.org/1999/xlink" x="0px" y="0px"
	 viewBox="0 0 30 30" style="enable-background:new 0 0 30 30;" xml:space="preserve">
<g>
	<g>
		<path d="M24.903,0.206C24.809,0.076,24.659,0,24.499,0h-6.5c-0.222,0-0.417,0.146-0.479,0.359l-2.083,7.096l-2.464-7.119
			C12.903,0.135,12.713,0,12.5,0h-7C5.338,0,5.187,0.078,5.093,0.21c-0.094,0.131-0.118,0.3-0.065,0.453l4.388,12.724
			c0.051,0.147,0.167,0.262,0.315,0.312c0.051,0.017,0.104,0.025,0.158,0.025c0.099,0,0.197-0.029,0.281-0.086
			c1.674-1.138,3.689-1.684,5.686-1.613c1.547,0.059,3.068,0.485,4.419,1.273c0.078,0.045,0.165,0.068,0.252,0.068
			c0.061,0,0.121-0.011,0.179-0.033c0.142-0.054,0.251-0.169,0.297-0.314l3.974-12.364C25.024,0.501,24.997,0.334,24.903,0.206z
			 M15.499,13c-4.687,0-8.5,3.813-8.5,8.5s3.813,8.5,8.5,8.5s8.5-3.813,8.5-8.5S20.186,13,15.499,13z M17.499,25
			c0.276,0,0.5,0.224,0.5,0.5s-0.224,0.5-0.5,0.5h-4c-0.191,0-0.365-0.109-0.449-0.28c-0.084-0.171-0.063-0.376,0.055-0.527l2.8-3.6
			C16.611,20.686,17,19.562,17,18.429C17,17.641,16.327,17,15.5,17c-0.827,0-1.5,0.641-1.5,1.429c0,0.276-0.224,0.536-0.5,0.536
			S13,18.777,13,18.501V18.43c0-1.339,1.121-2.429,2.5-2.429c1.379,0,2.5,1.089,2.5,2.429c0,1.354-0.464,2.696-1.306,3.778
			L14.521,25H17.499z"/>
	</g>
</g>
</svg>
