<?xml version="1.0" encoding="iso-8859-1"?>
<!-- Generator: Adobe Illustrator 19.0.0, SVG Export Plug-In . SVG Version: 6.00 Build 0)  -->
<svg version="1.1" id="Layer_1" xmlns="http://www.w3.org/2000/svg" xmlns:xlink="http://www.w3.org/1999/xlink" x="0px" y="0px"
	 viewBox="0 0 30 30" style="enable-background:new 0 0 30 30;" xml:space="preserve">
<g>
	<g>
		<path d="M16,23.5c0-4.136,3.364-7.5,7.5-7.5c0.76,0,1.51,0.113,2.23,0.337c0.203,0.064,0.424-0.009,0.55-0.18l2.127-2.866
			C29.464,11.812,30,10.2,30,8.5C30,3.893,26.107,0,21.5,0c-2.417,0-4.802,1.342-6.5,3.623C13.302,1.342,10.917,0,8.5,0
			C3.893,0,0,3.893,0,8.5c0,1.7,0.536,3.313,1.599,4.798l11.495,15.493C13.489,29.343,14.14,30,15.008,30
			c0.673,0,1.3-0.393,1.865-1.166c0.01-0.012,0.02-0.023,0.029-0.036l0.379-0.511c0.127-0.171,0.132-0.403,0.012-0.579
			C16.447,26.464,16,25.009,16,23.5z M23.5,17c-3.584,0-6.5,2.916-6.5,6.5c0,3.584,2.916,6.5,6.5,6.5s6.5-2.916,6.5-6.5
			C30,19.916,27.084,17,23.5,17z M23.5,29c-3.033,0-5.5-2.468-5.5-5.5c0-1.337,0.48-2.563,1.276-3.517l7.741,7.741
			C26.063,28.52,24.837,29,23.5,29z M27.724,27.017l-7.741-7.741C20.937,18.48,22.163,18,23.5,18c3.033,0,5.5,2.468,5.5,5.5
			C29,24.837,28.52,26.063,27.724,27.017z"/>
	</g>
</g>
</svg>
