<?xml version="1.0" encoding="iso-8859-1"?>
<!-- Generator: Adobe Illustrator 19.0.0, SVG Export Plug-In . SVG Version: 6.00 Build 0)  -->
<svg version="1.1" id="Layer_1" xmlns="http://www.w3.org/2000/svg" xmlns:xlink="http://www.w3.org/1999/xlink" x="0px" y="0px"
	 viewBox="0 0 30 30" style="enable-background:new 0 0 30 30;" xml:space="preserve">
<g>
	<g>
		<path d="M26.136,1.021C25.99,0.978,22.518,0,18.999,0c-1.794,0-2.819,0.259-3.812,0.51C14.189,0.762,13.247,1,11.499,1
			C8.013,1,4.161,0.025,4.123,0.016C4.106,0.013,4.088,0.018,4.071,0.016C4.047,0.011,4.025,0,3.999,0
			C3.978,0,3.961,0.009,3.941,0.012C3.913,0.016,3.887,0.02,3.86,0.029C3.815,0.042,3.775,0.061,3.736,0.086
			c-0.014,0.009-0.03,0.01-0.043,0.02c-0.007,0.006-0.01,0.015-0.017,0.02C3.637,0.159,3.607,0.2,3.58,0.243
			C3.57,0.26,3.556,0.273,3.548,0.292C3.519,0.355,3.5,0.424,3.5,0.5v29C3.5,29.776,3.724,30,4,30s0.5-0.224,0.5-0.5V16.131
			C5.752,16.414,8.692,17,11.5,17c1.872,0,2.92-0.265,3.934-0.521C16.41,16.232,17.33,16,19,16c3.311,0,6.719,1.915,6.753,1.935
			C25.829,17.979,25.915,18,26,18c0.087,0,0.174-0.022,0.251-0.068c0.154-0.089,0.249-0.254,0.249-0.432v-16
			C26.499,1.276,26.351,1.081,26.136,1.021z M19.906,8.292l-4.06,5.09C15.699,13.612,15.451,14,15,14c-0.45,0-0.7-0.389-0.851-0.621
			l-0.058-0.088l-3.984-4.979C9.66,7.688,9.499,6.564,9.499,6c0-1.767,1.233-3,3-3c1.018,0,1.963,0.968,2.5,1.646
			C15.536,3.969,16.481,3,17.499,3c1.767,0,3,1.233,3,3C20.499,6.564,20.338,7.688,19.906,8.292z"/>
	</g>
</g>
</svg>
