<?xml version="1.0" encoding="iso-8859-1"?>
<!-- Generator: Adobe Illustrator 19.0.0, SVG Export Plug-In . SVG Version: 6.00 Build 0)  -->
<svg version="1.1" id="Layer_1" xmlns="http://www.w3.org/2000/svg" xmlns:xlink="http://www.w3.org/1999/xlink" x="0px" y="0px"
	 viewBox="0 0 30 30" style="enable-background:new 0 0 30 30;" xml:space="preserve">
<g>
	<g>
		<path d="M18.501,17c-1.381,0-2.5,1.119-2.5,2.5c0,1.381,1.119,2.5,2.5,2.5c1.381,0,2.5-1.119,2.5-2.5
			C21.001,18.119,19.881,17,18.501,17z M1.966,7h26.069c0.179-2.731,1.711-4.055,1.779-4.111C29.924,2.8,29.992,2.668,30,2.527
			c0.007-0.142-0.046-0.279-0.146-0.38l-2-2c-0.131-0.13-0.321-0.18-0.499-0.125c-0.032,0.01-3.25,0.979-5.854,0.979
			c-2.611,0-6.335-0.974-6.373-0.983c-0.083-0.021-0.172-0.021-0.255,0c-0.038,0.01-3.759,0.983-6.373,0.983
			c-2.601,0-5.822-0.969-5.854-0.979C2.471-0.031,2.278,0.017,2.147,0.147l-2,2c-0.1,0.1-0.152,0.237-0.145,0.379
			c0.007,0.141,0.074,0.272,0.183,0.362C0.255,2.945,1.787,4.269,1.966,7z M9.501,17c-1.381,0-2.5,1.119-2.5,2.5
			c0,1.381,1.119,2.5,2.5,2.5c1.381,0,2.5-1.119,2.5-2.5C12.001,18.119,10.881,17,9.501,17z M28.033,8H1.968
			c-0.077,1.124-0.383,2.001-0.748,2.977C0.648,12.507,0,14.243,0,17.5c0,5.553,5.986,10.572,14.895,12.489
			C14.93,29.996,14.965,30,15,30s0.07-0.004,0.105-0.011C24.014,28.072,30,23.052,30,17.5c0-3.258-0.648-4.993-1.22-6.523
			C28.416,10.001,28.11,9.124,28.033,8z M9.501,23c-1.93,0-3.5-1.57-3.5-3.5v-1.694c0-3.219,2.212-6.011,5.38-6.791
			c0.267-0.064,0.539,0.098,0.605,0.366c0.066,0.268-0.098,0.539-0.366,0.604c-2.447,0.603-4.216,2.603-4.55,5.005
			C7.7,16.379,8.556,16,9.5,16c1.93,0,3.5,1.57,3.5,3.5S11.431,23,9.501,23z M18.501,23c-1.93,0-3.5-1.57-3.5-3.5v-1.694
			c0-3.219,2.212-6.011,5.38-6.791c0.268-0.064,0.539,0.098,0.605,0.366c0.066,0.268-0.098,0.539-0.366,0.604
			c-2.447,0.603-4.216,2.603-4.55,5.005C16.7,16.379,17.556,16,18.5,16c1.93,0,3.5,1.57,3.5,3.5S20.431,23,18.501,23z"/>
	</g>
</g>
</svg>
