<?xml version="1.0" encoding="iso-8859-1"?>
<!-- Generator: Adobe Illustrator 19.0.0, SVG Export Plug-In . SVG Version: 6.00 Build 0)  -->
<svg version="1.1" id="Layer_1" xmlns="http://www.w3.org/2000/svg" xmlns:xlink="http://www.w3.org/1999/xlink" x="0px" y="0px"
	 viewBox="0 0 30 30" style="enable-background:new 0 0 30 30;" xml:space="preserve">
<g>
	<g>
		<path d="M15,0.5C7.005,0.5,0.5,7.005,0.5,15S7.005,29.5,15,29.5S29.5,22.995,29.5,15S22.995,0.5,15,0.5z M6.868,6.868
			c4.484-4.483,11.779-4.483,16.264,0c0.195,0.195,0.195,0.512,0,0.707c-0.098,0.098-0.226,0.146-0.354,0.146
			s-0.256-0.049-0.354-0.146c-4.094-4.094-10.756-4.094-14.85,0c-0.195,0.195-0.512,0.195-0.707,0S6.673,7.063,6.868,6.868z
			 M16,12.5c-0.276,0-0.5-0.224-0.5-0.5s0.224-0.5,0.5-0.5h4c0.276,0,0.5,0.224,0.5,0.5s-0.224,0.5-0.5,0.5h-1.5V18
			c0,0.276-0.224,0.5-0.5,0.5s-0.5-0.224-0.5-0.5v-5.5H16z M14.5,14v2c0,1.378-1.122,2.5-2.5,2.5S9.5,17.378,9.5,16v-2
			c0-1.378,1.122-2.5,2.5-2.5S14.5,12.622,14.5,14z M6,18.5c-0.215,0-0.406-0.138-0.474-0.342l-2-6
			c-0.087-0.262,0.054-0.545,0.316-0.632c0.264-0.088,0.545,0.054,0.632,0.316L6,16.419l1.526-4.577
			c0.087-0.262,0.369-0.404,0.632-0.316c0.262,0.087,0.403,0.37,0.316,0.632l-2,6C6.406,18.362,6.215,18.5,6,18.5z M23.132,23.132
			c-2.242,2.242-5.187,3.363-8.132,3.363s-5.89-1.121-8.132-3.363c-0.195-0.195-0.195-0.512,0-0.707s0.512-0.195,0.707,0
			c4.094,4.094,10.756,4.094,14.85,0c0.195-0.195,0.512-0.195,0.707,0S23.327,22.937,23.132,23.132z M25,18.5h-3
			c-0.276,0-0.5-0.224-0.5-0.5v-6c0-0.276,0.224-0.5,0.5-0.5h3c0.276,0,0.5,0.224,0.5,0.5s-0.224,0.5-0.5,0.5h-2.5v2H24
			c0.276,0,0.5,0.224,0.5,0.5s-0.224,0.5-0.5,0.5h-1.5v2H25c0.276,0,0.5,0.224,0.5,0.5S25.276,18.5,25,18.5z M10.5,14v2
			c0,0.827,0.673,1.5,1.5,1.5s1.5-0.673,1.5-1.5v-2c0-0.827-0.673-1.5-1.5-1.5S10.5,13.173,10.5,14z"/>
	</g>
</g>
</svg>
