<?xml version="1.0" encoding="iso-8859-1"?>
<!-- Generator: Adobe Illustrator 19.0.0, SVG Export Plug-In . SVG Version: 6.00 Build 0)  -->
<svg version="1.1" id="Layer_1" xmlns="http://www.w3.org/2000/svg" xmlns:xlink="http://www.w3.org/1999/xlink" x="0px" y="0px"
	 viewBox="0 0 30 30" style="enable-background:new 0 0 30 30;" xml:space="preserve">
<g>
	<g>
		<path d="M14.499,29h-9.5V14.5c0-0.276-0.224-0.5-0.5-0.5H1.698L14.279,1.299c0.384-0.384,1.063-0.38,1.438-0.005l4.423,4.555
			c0.143,0.146,0.359,0.192,0.547,0.114c0.188-0.076,0.312-0.26,0.312-0.463V1h4v9.5c0,0.133,0.053,0.26,0.147,0.354L28.292,14
			h-2.793c-0.276,0-0.5,0.224-0.5,0.5s0.224,0.5,0.5,0.5h4c0.202,0,0.385-0.122,0.462-0.308c0.078-0.187,0.035-0.402-0.108-0.545
			l-3.854-3.854V0.5c0-0.276-0.224-0.5-0.5-0.5h-5c-0.276,0-0.5,0.224-0.5,0.5v3.768l-3.57-3.676
			c-0.756-0.758-2.099-0.76-2.86,0.002L0.144,14.148c-0.142,0.144-0.183,0.357-0.106,0.544C0.115,14.879,0.297,15,0.499,15h3.5v14.5
			c0,0.276,0.224,0.5,0.5,0.5h10c0.276,0,0.5-0.224,0.5-0.5S14.775,29,14.499,29z M19.499,16c0.276,0,0.5-0.224,0.5-0.5
			s-0.224-0.5-0.5-0.5h-9c-0.276,0-0.5,0.224-0.5,0.5v9c0,0.276,0.224,0.5,0.5,0.5h8c0.276,0,0.5-0.224,0.5-0.5s-0.224-0.5-0.5-0.5
			h-7.5v-8H19.499z M27.598,26.421l-1.86-0.465l-0.103-0.412c0.486-0.52,0.827-1.197,0.958-1.898
			c0.314-0.144,0.545-0.442,0.59-0.803l0.13-1.043c0.036-0.288-0.053-0.578-0.243-0.797c-0.072-0.082-0.156-0.151-0.247-0.206
			l0.036-0.733l0.135-0.134c0.289-0.308,0.68-0.966,0.054-1.922C26.747,17.548,26.124,17,24.872,17c-0.376,0-1.231,0-2.054,0.524
			c-2.38,0.073-2.69,1.275-2.69,2.323c0,0.207,0.04,0.615,0.076,0.932c-0.102,0.057-0.194,0.13-0.272,0.219
			c-0.194,0.22-0.285,0.512-0.248,0.802l0.13,1.045c0.047,0.372,0.291,0.676,0.652,0.814c0.129,0.673,0.452,1.326,0.909,1.837
			l-0.115,0.461l-1.859,0.465c-1.414,0.353-2.402,1.619-2.402,3.078c0,0.133,0.052,0.261,0.146,0.354S17.366,30,17.499,30l12-0.001
			c0.276,0,0.5-0.224,0.5-0.5C29.999,28.04,29.011,26.775,27.598,26.421z M18.057,28.999c0.183-0.777,0.784-1.406,1.588-1.607
			l2.15-0.538c0.178-0.045,0.319-0.184,0.363-0.364l0.255-1.022c0.044-0.175-0.011-0.361-0.143-0.485
			c-0.485-0.456-0.806-1.122-0.858-1.782c-0.021-0.261-0.238-0.461-0.499-0.461l-0.106-0.019l-0.055-1.068
			c0.144,0,0.28-0.062,0.375-0.169c0.095-0.109,0.139-0.251,0.121-0.394c-0.046-0.365-0.119-1.026-0.119-1.242
			c0-0.643,0-1.308,1.853-1.326c0.103-0.001,0.203-0.033,0.286-0.093C23.868,18,24.546,18,24.872,18c0.655,0,1.094,0.182,1.34,0.556
			c0.287,0.439,0.147,0.589,0.064,0.677l-0.261,0.261c-0.088,0.088-0.14,0.205-0.146,0.329l-0.063,1.306
			c-0.007,0.136,0.053,0.279,0.146,0.379c0.093,0.099,0.233,0.167,0.369,0.169l-0.177,1.063c-0.261,0-0.478,0.2-0.499,0.46
			c-0.053,0.672-0.398,1.368-0.899,1.818c-0.138,0.124-0.196,0.313-0.151,0.493l0.245,0.979c0.045,0.18,0.185,0.32,0.364,0.365
			l2.15,0.538c0.802,0.2,1.404,0.829,1.587,1.607L18.057,28.999z"/>
	</g>
</g>
</svg>
