<?xml version="1.0" encoding="iso-8859-1"?>
<!-- Generator: Adobe Illustrator 19.0.0, SVG Export Plug-In . SVG Version: 6.00 Build 0)  -->
<svg version="1.1" id="Layer_1" xmlns="http://www.w3.org/2000/svg" xmlns:xlink="http://www.w3.org/1999/xlink" x="0px" y="0px"
	 viewBox="0 0 30 30" style="enable-background:new 0 0 30 30;" xml:space="preserve">
<g>
	<g>
		<path d="M14.5,26H4V15c1.056,0,1.965-0.522,2.498-1.325C7.031,14.479,7.943,15,9,15c1.108,0,2.047-0.577,2.567-1.446
			C12.24,14.431,13.407,15,14.5,15c1.093,0,2.261-0.569,2.933-1.446C17.953,14.423,18.893,15,20,15c1.058,0,1.969-0.521,2.502-1.325
			C23.035,14.478,23.944,15,25,15c0.997,0,1.93-0.41,2.495-1.097c0.462-0.56,0.638-1.27,0.496-1.999
			c-0.011-0.059-0.034-0.115-0.065-0.166L24,5.358V2.5C24,1.121,22.88,0,21.5,0h-14C6.122,0,5,1.121,5,2.5v2.858l-3.926,6.38
			c-0.037,0.06-0.061,0.128-0.07,0.199c-0.096,0.757,0.123,1.482,0.617,2.043C1.974,14.381,2.462,14.664,3,14.832V26
			c0,0.018,0.008,0.032,0.01,0.049C1.059,26.293,0,27.933,0,29.5C0,29.776,0.224,30,0.5,30h13c0.276,0,0.5-0.224,0.5-0.5
			S13.776,29,13.5,29H1.052c0.186-0.937,0.902-2,2.449-2h11c0.276,0,0.5-0.224,0.5-0.5S14.776,26,14.5,26z M11,12
			c0,1.121-0.879,2-2,2c-1.104,0-1.972-0.851-1.999-1.946L8.399,6H11V12z M17,12c0,1.107-1.367,2-2.5,2S12,13.107,12,12V6h5V12z
			 M20,14c-1.121,0-2-0.879-2-2V6h2.602l0.732,3.173L22,12.054C21.972,13.149,21.104,14,20,14z M27.024,12.18
			c0.058,0.409-0.042,0.775-0.3,1.088C26.352,13.719,25.69,14,25,14c-1.121,0-2-0.879-2-2c0-0.038-0.004-0.075-0.013-0.112L21.63,6
			h1.592L27.024,12.18z M6,2.5C6,1.673,6.674,1,7.5,1h14C22.328,1,23,1.673,23,2.5V5H6V2.5z M2.372,13.318
			c-0.283-0.321-0.416-0.718-0.385-1.154L5.779,6h1.592l-1.358,5.888C6.005,11.925,6,11.962,6,12c0,1.121-0.879,2-2,2
			C3.357,14,2.747,13.745,2.372,13.318z M6.928,16.391c-0.276,0-0.5,0.224-0.5,0.5v6.304c0,0.276,0.224,0.5,0.5,0.5h6.429
			c0.277,0,0.5-0.223,0.5-0.5v-6.304c0-0.276-0.224-0.5-0.5-0.5H6.928z M12.859,22.695H7.43v-5.304h5.429V22.695z M27.598,26.422
			l-1.859-0.465l-0.103-0.412c0.486-0.521,0.827-1.197,0.958-1.897c0.315-0.145,0.545-0.443,0.59-0.803l0.131-1.045
			c0.035-0.288-0.054-0.578-0.244-0.796c-0.071-0.082-0.155-0.151-0.247-0.206l0.036-0.732l0.137-0.137
			c0.287-0.307,0.678-0.965,0.053-1.921C26.747,17.548,26.125,17,24.872,17c-0.376,0-1.23,0-2.052,0.524
			c-2.379,0.073-2.69,1.275-2.69,2.323c0,0.207,0.04,0.615,0.075,0.932c-0.101,0.056-0.193,0.129-0.271,0.218
			c-0.194,0.219-0.285,0.511-0.249,0.804l0.131,1.043c0.046,0.372,0.29,0.677,0.652,0.816c0.129,0.673,0.451,1.326,0.908,1.836
			l-0.115,0.461l-1.859,0.465C17.989,26.775,17,28.041,17,29.5c0,0.133,0.052,0.261,0.146,0.354S17.367,30,17.5,30L29.5,29.999
			c0.276,0,0.5-0.224,0.5-0.5C30,28.04,29.013,26.776,27.598,26.422z M18.058,28.999c0.182-0.777,0.785-1.406,1.586-1.606
			l2.15-0.538c0.179-0.045,0.319-0.184,0.364-0.364l0.256-1.022c0.044-0.175-0.011-0.361-0.144-0.485
			c-0.484-0.455-0.805-1.122-0.858-1.783c-0.02-0.26-0.237-0.46-0.498-0.46l-0.106-0.02l-0.055-1.067
			c0.144,0,0.28-0.062,0.375-0.169c0.095-0.109,0.139-0.251,0.121-0.394c-0.046-0.365-0.119-1.026-0.119-1.242
			c0-0.642,0-1.307,1.853-1.326c0.102-0.001,0.202-0.033,0.286-0.094c0.599-0.428,1.277-0.428,1.603-0.428
			c0.656,0,1.095,0.182,1.34,0.556c0.288,0.441,0.147,0.59,0.066,0.677l-0.262,0.261c-0.088,0.088-0.14,0.206-0.146,0.33
			l-0.063,1.306c-0.007,0.136,0.053,0.279,0.146,0.378c0.093,0.1,0.233,0.168,0.369,0.169l-0.178,1.063
			c-0.261,0-0.477,0.2-0.498,0.461c-0.053,0.67-0.397,1.366-0.899,1.817c-0.137,0.124-0.196,0.313-0.151,0.493l0.245,0.979
			c0.045,0.179,0.184,0.319,0.364,0.364l2.15,0.538c0.802,0.2,1.404,0.829,1.587,1.607L18.058,28.999z M19,16.5
			c0-0.276-0.224-0.5-0.5-0.5h-3c-0.276,0-0.5,0.224-0.5,0.5v9c0,0.276,0.224,0.5,0.5,0.5s0.5-0.224,0.5-0.5V17h2.5
			C18.776,17,19,16.776,19,16.5z"/>
	</g>
</g>
</svg>
