<?xml version="1.0" encoding="iso-8859-1"?>
<!-- Generator: Adobe Illustrator 19.0.0, SVG Export Plug-In . SVG Version: 6.00 Build 0)  -->
<svg version="1.1" id="Layer_1" xmlns="http://www.w3.org/2000/svg" xmlns:xlink="http://www.w3.org/1999/xlink" x="0px" y="0px"
	 viewBox="0 0 30 30" style="enable-background:new 0 0 30 30;" xml:space="preserve">
<g>
	<g>
		<path d="M5.5,6c1.654,0,3-1.346,3-3s-1.346-3-3-3s-3,1.346-3,3S3.846,6,5.5,6z M5.5,1c1.103,0,2,0.897,2,2c0,1.103-0.897,2-2,2
			c-1.103,0-2-0.897-2-2C3.5,1.897,4.398,1,5.5,1z M10.158,10.894c-0.191-1.65-1.507-2.895-3.063-2.895H3.904
			c-1.555,0-2.872,1.245-3.063,2.896l-0.828,7.174c-0.064,0.564,0.11,1.124,0.478,1.537C0.833,19.989,1.296,20.2,1.794,20.2
			l0.708,9.337C2.521,29.798,2.739,30,3,30h5c0.262,0,0.479-0.202,0.496-0.464l0.697-9.337h0.011c0.498,0,0.961-0.211,1.303-0.594
			c0.369-0.413,0.542-0.973,0.478-1.537L10.158,10.894z M9.765,18.94c-0.151,0.168-0.348,0.26-0.557,0.26H8.732
			c-0.262,0-0.479,0.202-0.499,0.463L7.536,29H3.464l-0.696-9.338c-0.02-0.261-0.237-0.463-0.499-0.463H1.794
			c-0.209,0-0.407-0.093-0.557-0.26c-0.177-0.2-0.261-0.476-0.229-0.757l0.828-7.173c0.131-1.146,1.022-2.01,2.069-2.01h3.191
			c1.047,0,1.937,0.864,2.069,2.01l0.828,7.174C10.026,18.464,9.943,18.74,9.765,18.94z M28.5,1h-3C24.674,1,24,1.673,24,2.5v3
			C24,6.327,24.674,7,25.5,7h3C29.328,7,30,6.327,30,5.5v-3C30,1.673,29.328,1,28.5,1z M29,5.5C29,5.776,28.776,6,28.5,6h-3
			C25.226,6,25,5.776,25,5.5v-3C25,2.224,25.226,2,25.5,2h3C28.776,2,29,2.224,29,2.5V5.5z M19,5.001h2.5c0.276,0,0.5-0.224,0.5-0.5
			s-0.224-0.5-0.5-0.5H19c-1.654,0-3,1.32-3,2.944V15h-3.5c-0.276,0-0.5,0.224-0.5,0.5s0.224,0.5,0.5,0.5H16v8.056
			C16,25.679,17.346,27,19,27h2.5c0.276,0,0.5-0.224,0.5-0.5S21.776,26,21.5,26H19c-1.103,0-2-0.872-2-1.944V16h4.5
			c0.276,0,0.5-0.224,0.5-0.5S21.776,15,21.5,15H17V6.945C17,5.873,17.898,5.001,19,5.001z M28.5,12h-3c-0.827,0-1.5,0.673-1.5,1.5
			v3c0,0.827,0.673,1.5,1.5,1.5h3c0.827,0,1.5-0.673,1.5-1.5v-3C30,12.673,29.328,12,28.5,12z M29,16.5c0,0.276-0.225,0.5-0.5,0.5
			h-3c-0.275,0-0.5-0.224-0.5-0.5v-3c0-0.276,0.225-0.5,0.5-0.5h3c0.275,0,0.5,0.224,0.5,0.5V16.5z M28.5,24h-3
			c-0.827,0-1.5,0.673-1.5,1.5v3c0,0.827,0.673,1.5,1.5,1.5h3c0.827,0,1.5-0.673,1.5-1.5v-3C30,24.673,29.328,24,28.5,24z M29,28.5
			c0,0.276-0.225,0.5-0.5,0.5h-3c-0.275,0-0.5-0.224-0.5-0.5v-3c0-0.276,0.225-0.5,0.5-0.5h3c0.275,0,0.5,0.224,0.5,0.5V28.5z"/>
	</g>
</g>
</svg>
