<?xml version="1.0" encoding="utf-8"?>
<!-- Generator: Adobe Illustrator 19.0.0, SVG Export Plug-In . SVG Version: 6.00 Build 0)  -->
<svg version="1.1" id="Layer_1" xmlns="http://www.w3.org/2000/svg" xmlns:xlink="http://www.w3.org/1999/xlink" x="0px" y="0px"
	 viewBox="0 0 30 30" style="enable-background:new 0 0 30 30;" xml:space="preserve">
<g>
	<g>
		<path d="M19.5,16c-0.3,0-0.5-0.2-0.5-0.5v-1c0-0.2,0.2-0.4,0.4-0.5c0.7-0.2,1.6-0.5,1.6-1.5c0-0.7-0.9-1.5-2-1.5
			c-1.1,0-1.9,0.8-2,1.5c0,0.3-0.3,0.5-0.5,0.5c-0.3,0-0.5-0.3-0.5-0.5c0.1-1.2,1.3-2.5,3-2.5c1.6,0,3,1.1,3,2.5c0,1.2-0.7,2-2,2.4
			v0.6C20,15.8,19.8,16,19.5,16z"/>
	</g>
	<g>
		<g>
			<g>
				<path d="M4.5,30c-0.1,0-0.1,0-0.2,0C4.1,29.9,4,29.7,4,29.5V4.3C4,1.9,5.9,0,8.3,0h13.5c0.3,0,0.5,0.2,0.5,0.5S22,1,21.8,1
					C20.5,1,20,2,20,3v2.5C20,5.8,19.8,6,19.5,6S19,5.8,19,5.5V3c0-0.8,0.2-1.5,0.6-2H8.3C6.5,1,5,2.5,5,4.3v24.1l6.7-6.2
					c0.2-0.2,0.5-0.2,0.7,0c3.7,3.4,5.7,5.2,6.7,6.2v-6.8c0-0.3,0.2-0.5,0.5-0.5s0.5,0.2,0.5,0.5l0,8c0,0.1,0,0.1,0,0.2
					c-0.1,0.2-0.3,0.4-0.6,0.3c-0.1,0-0.2-0.1-0.3-0.2c-0.4-0.4-4.3-4-7.1-6.6l-7.2,6.7C4.7,30,4.6,30,4.5,30z"/>
			</g>
			<g>
				<path d="M24.5,5h-5C19.2,5,19,4.8,19,4.5S19.2,4,19.5,4H24V3c0-1.1-0.9-2-2-2c-0.3,0-0.5-0.2-0.5-0.5S21.7,0,22,0
					c1.7,0,3,1.3,3,3v1.5C25,4.8,24.8,5,24.5,5z"/>
			</g>
		</g>
		<g>
			<path d="M19.5,20c-3.6,0-6.5-2.9-6.5-6.5S15.9,7,19.5,7S26,9.9,26,13.5S23.1,20,19.5,20z M19.5,8c-3,0-5.5,2.5-5.5,5.5
				s2.5,5.5,5.5,5.5s5.5-2.5,5.5-5.5S22.5,8,19.5,8z"/>
		</g>
	</g>
	<g>
		<path d="M19.5,18c-0.3,0-0.5-0.2-0.5-0.5s0.2-0.5,0.5-0.5h0c0.3,0,0.5,0.2,0.5,0.5S19.8,18,19.5,18z"/>
	</g>
</g>
</svg>
