<?xml version="1.0" encoding="utf-8"?>
<!-- Generator: Adobe Illustrator 19.0.0, SVG Export Plug-In . SVG Version: 6.00 Build 0)  -->
<svg version="1.1" id="Layer_1" xmlns="http://www.w3.org/2000/svg" xmlns:xlink="http://www.w3.org/1999/xlink" x="0px" y="0px"
	 viewBox="0 0 30 30" style="enable-background:new 0 0 30 30;" xml:space="preserve">
<g>
	<g>
		<path d="M25,29H5c-2.5,0-4.5-2-4.5-4.5v-20C0.5,2,2.5,0,5,0h20c2.5,0,4.5,2,4.5,4.5v20C29.5,27,27.5,29,25,29z M5,1
			C3.1,1,1.5,2.6,1.5,4.5v20C1.5,26.4,3.1,28,5,28h20c1.9,0,3.5-1.6,3.5-3.5v-20C28.5,2.6,26.9,1,25,1H5z"/>
	</g>
	<g>
		<path d="M23,25H7c-1.4,0-2.5-1.1-2.5-2.5v-16C4.5,5.1,5.6,4,7,4h16c1.4,0,2.5,1.1,2.5,2.5v16C25.5,23.9,24.4,25,23,25z M7,5
			C6.2,5,5.5,5.7,5.5,6.5v16C5.5,23.3,6.2,24,7,24h16c0.8,0,1.5-0.7,1.5-1.5v-16C24.5,5.7,23.8,5,23,5H7z"/>
	</g>
	<g>
		<path d="M15,6c-0.3,0-0.5-0.2-0.5-0.5v-1C14.5,4.2,14.7,4,15,4s0.5,0.2,0.5,0.5v1C15.5,5.8,15.3,6,15,6z"/>
	</g>
	<g>
		<path d="M9.5,5.9c-0.2,0-0.3-0.1-0.4-0.3L8.6,4.8C8.4,4.5,8.5,4.2,8.8,4.1C9,3.9,9.3,4,9.4,4.3l0.5,0.9c0.1,0.2,0.1,0.5-0.2,0.7
			C9.7,5.8,9.6,5.9,9.5,5.9z"/>
	</g>
	<g>
		<path d="M5.9,10c-0.1,0-0.2,0-0.3-0.1L4.8,9.4C4.5,9.3,4.4,9,4.6,8.8S5,8.4,5.3,8.6l0.9,0.5c0.2,0.1,0.3,0.4,0.2,0.7
			C6.2,9.9,6,10,5.9,10z"/>
	</g>
	<g>
		<path d="M6,15H5c-0.3,0-0.5-0.2-0.5-0.5S4.7,14,5,14h1c0.3,0,0.5,0.2,0.5,0.5S6.3,15,6,15z"/>
	</g>
	<g>
		<path d="M5,20.5c-0.2,0-0.3-0.1-0.4-0.3c-0.1-0.2-0.1-0.5,0.2-0.7l0.9-0.5c0.2-0.1,0.5-0.1,0.7,0.2c0.1,0.2,0.1,0.5-0.2,0.7
			l-0.9,0.5C5.2,20.5,5.1,20.5,5,20.5z"/>
	</g>
	<g>
		<path d="M9,24.9c-0.1,0-0.2,0-0.3-0.1c-0.2-0.1-0.3-0.4-0.2-0.7l0.5-0.9c0.1-0.2,0.4-0.3,0.7-0.2c0.2,0.1,0.3,0.4,0.2,0.7
			l-0.5,0.9C9.3,24.8,9.2,24.9,9,24.9z"/>
	</g>
	<g>
		<path d="M15,25c-0.3,0-0.5-0.2-0.5-0.5v-1c0-0.3,0.2-0.5,0.5-0.5s0.5,0.2,0.5,0.5v1C15.5,24.8,15.3,25,15,25z"/>
	</g>
	<g>
		<path d="M10,30H7c-0.3,0-0.5-0.2-0.5-0.5S6.7,29,7,29h3c0.3,0,0.5,0.2,0.5,0.5S10.3,30,10,30z"/>
	</g>
	<g>
		<path d="M15,16c-0.8,0-1.5-0.7-1.5-1.5S14.2,13,15,13s1.5,0.7,1.5,1.5S15.8,16,15,16z M15,14c-0.3,0-0.5,0.2-0.5,0.5
			S14.7,15,15,15s0.5-0.2,0.5-0.5S15.3,14,15,14z"/>
	</g>
	<g>
		<path d="M15,13.6c-0.3,0-0.5-0.2-0.5-0.5V7.5C14.5,7.2,14.7,7,15,7s0.5,0.2,0.5,0.5v5.6C15.5,13.4,15.3,13.6,15,13.6z"/>
	</g>
	<g>
		<path d="M19,19c-0.1,0-0.3,0-0.4-0.1l-3-3c-0.2-0.2-0.2-0.5,0-0.7s0.5-0.2,0.7,0l3,3c0.2,0.2,0.2,0.5,0,0.7C19.3,19,19.1,19,19,19
			z"/>
	</g>
	<g>
		<path d="M23,30h-3c-0.3,0-0.5-0.2-0.5-0.5S19.7,29,20,29h3c0.3,0,0.5,0.2,0.5,0.5S23.3,30,23,30z"/>
	</g>
	<g>
		<path d="M20.5,5.9c-0.1,0-0.2,0-0.3-0.1c-0.2-0.1-0.3-0.4-0.2-0.7l0.5-0.9C20.7,4,21,3.9,21.3,4.1c0.2,0.1,0.3,0.4,0.2,0.7
			l-0.5,0.9C20.8,5.8,20.7,5.9,20.5,5.9z"/>
	</g>
	<g>
		<path d="M24.1,10c-0.2,0-0.3-0.1-0.4-0.3c-0.1-0.2-0.1-0.5,0.2-0.7l0.9-0.5c0.2-0.1,0.5-0.1,0.7,0.2c0.1,0.2,0.1,0.5-0.2,0.7
			l-0.9,0.5C24.3,10,24.2,10,24.1,10z"/>
	</g>
	<g>
		<path d="M25,15h-1c-0.3,0-0.5-0.2-0.5-0.5S23.7,14,24,14h1c0.3,0,0.5,0.2,0.5,0.5S25.3,15,25,15z"/>
	</g>
	<g>
		<path d="M25,20.5c-0.1,0-0.2,0-0.3-0.1l-0.9-0.5c-0.2-0.1-0.3-0.4-0.2-0.7s0.4-0.3,0.7-0.2l0.9,0.5c0.2,0.1,0.3,0.4,0.2,0.7
			C25.3,20.4,25.2,20.5,25,20.5z"/>
	</g>
	<g>
		<path d="M21,24.9c-0.2,0-0.3-0.1-0.4-0.3l-0.5-0.9c-0.1-0.2-0.1-0.5,0.2-0.7c0.2-0.1,0.5-0.1,0.7,0.2l0.5,0.9
			c0.1,0.2,0.1,0.5-0.2,0.7C21.2,24.8,21.1,24.9,21,24.9z"/>
	</g>
</g>
</svg>
