<?xml version="1.0" encoding="utf-8"?>
<!-- Generator: Adobe Illustrator 19.0.0, SVG Export Plug-In . SVG Version: 6.00 Build 0)  -->
<svg version="1.1" id="Layer_1" xmlns="http://www.w3.org/2000/svg" xmlns:xlink="http://www.w3.org/1999/xlink" x="0px" y="0px"
	 viewBox="0 0 30 30" style="enable-background:new 0 0 30 30;" xml:space="preserve">
<g>
	<g>
		<path d="M20,22c-0.1,0-0.2,0-0.3-0.1l-5-4c-0.1-0.1-0.2-0.2-0.2-0.4v-6c0-0.3,0.2-0.5,0.5-0.5s0.5,0.2,0.5,0.5v5.8l4.8,3.8
			c0.2,0.2,0.3,0.5,0.1,0.7C20.3,21.9,20.1,22,20,22z"/>
	</g>
	<g>
		<path d="M2.9,10C2.6,10,2.3,9.9,2,9.8C1.1,9.4,0.5,8.6,0.5,7.6v0c0-0.6,0.2-1.2,0.7-1.7l4.2-4.2C5.9,1.2,6.5,1,7.1,1
			c1,0,1.8,0.6,2.2,1.5s0.2,1.9-0.5,2.6L4.6,9.3C4.1,9.8,3.5,10,2.9,10z M7.1,2c-0.4,0-0.7,0.1-1,0.4L1.9,6.6
			c-0.3,0.3-0.4,0.6-0.4,1v0c0,0.7,0.4,1.1,0.9,1.3c0.4,0.2,1,0.2,1.5-0.3l4.2-4.2c0.5-0.5,0.5-1.1,0.3-1.5C8.2,2.4,7.8,2,7.1,2z"/>
	</g>
	<g>
		<path d="M27.1,10c-0.6,0-1.2-0.2-1.7-0.7l-4.2-4.2c-0.7-0.7-0.9-1.7-0.5-2.6C21.1,1.6,21.9,1,22.9,1c0.6,0,1.2,0.2,1.7,0.7
			l4.2,4.2c0.4,0.4,0.7,1,0.7,1.7v0c0,1-0.6,1.8-1.5,2.2C27.7,9.9,27.4,10,27.1,10z M22.9,2c-0.7,0-1.1,0.4-1.3,0.9
			c-0.2,0.4-0.2,1,0.3,1.5l4.2,4.2c0.5,0.5,1.1,0.5,1.5,0.3s0.9-0.6,0.9-1.3v0c0-0.4-0.1-0.7-0.4-1l-4.2-4.2C23.6,2.1,23.3,2,22.9,2
			z"/>
	</g>
	<g>
		<path d="M15,27c-5.2,0-9.5-4.3-9.5-9.5S9.8,8,15,8s9.5,4.3,9.5,9.5S20.2,27,15,27z M15,9c-4.7,0-8.5,3.8-8.5,8.5S10.3,26,15,26
			s8.5-3.8,8.5-8.5S19.7,9,15,9z"/>
	</g>
	<g>
		<path d="M15,29C8.7,29,3.5,23.8,3.5,17.5S8.7,6,15,6s11.5,5.2,11.5,11.5S21.3,29,15,29z M15,7C9.2,7,4.5,11.7,4.5,17.5
			S9.2,28,15,28s10.5-4.7,10.5-10.5S20.8,7,15,7z"/>
	</g>
</g>
</svg>
