<?xml version="1.0" encoding="utf-8"?>
<!-- Generator: Adobe Illustrator 19.0.0, SVG Export Plug-In . SVG Version: 6.00 Build 0)  -->
<svg version="1.1" id="Layer_1" xmlns="http://www.w3.org/2000/svg" xmlns:xlink="http://www.w3.org/1999/xlink" x="0px" y="0px"
	 viewBox="0 0 30 30" style="enable-background:new 0 0 30 30;" xml:space="preserve">
<path d="M15,0C6.7,0,0,6.7,0,15s6.7,15,15,15s15-6.7,15-15S23.3,0,15,0z M20.5,9c0.8,0,1.5,0.7,1.5,1.5S21.3,12,20.5,12
	S19,11.3,19,10.5S19.7,9,20.5,9z M6.5,10h4c0.3,0,0.5,0.2,0.5,0.5S10.8,11,10.5,11h-4C6.2,11,6,10.8,6,10.5S6.2,10,6.5,10z M15,26
	c-6.1,0-11-3.8-11-8.5C4,17.2,4.2,17,4.5,17h21c0.3,0,0.5,0.2,0.5,0.5C26,22.2,21.1,26,15,26z"/>
</svg>
