<?xml version="1.0" encoding="utf-8"?>
<!-- Generator: Adobe Illustrator 19.0.0, SVG Export Plug-In . SVG Version: 6.00 Build 0)  -->
<svg version="1.1" id="Layer_1" xmlns="http://www.w3.org/2000/svg" xmlns:xlink="http://www.w3.org/1999/xlink" x="0px" y="0px"
	 viewBox="0 0 30 30" style="enable-background:new 0 0 30 30;" xml:space="preserve">
<g>
	<path d="M4.6,5.4L15,6c0,0,0,0,0,0s0,0,0,0l10.4-0.6c0.2,0,0.4-0.1,0.4-0.3c0.1-0.2,0-0.4-0.1-0.5C22.9,1.6,19.1,0,15,0
		S7.1,1.6,4.2,4.6C4.1,4.7,4,4.9,4.1,5.1C4.2,5.3,4.4,5.4,4.6,5.4z"/>
	<path d="M27.6,6.3L27.6,6.3L15,7L2.4,6.3C1.4,6.3,0,7.7,0,8.7V10c0,3.2,2.6,6,5.5,6c3.2,0,6-2.1,7.3-5.1c0.1-0.1,0.1-0.2,0.1-0.3
		c0,0,0,0,0,0c0.1-0.2,0.8-0.6,2-0.6c1.1,0,1.8,0.3,2,0.5c0,0.1,0.1,0.2,0.1,0.3c0,0,0,0,0,0c1.3,3,4.1,5.2,7.3,5.2
		c2.9,0,5.6-2.9,5.6-6V8.7C30,7.7,28.6,6.3,27.6,6.3z M15,9c-0.6,0-1.1,0.1-1.6,0.2c0.1-0.4,0.2-0.9,0.2-1.3L15,8c0,0,0,0,0,0
		c0,0,0,0,0,0l1.4-0.1c0,0.4,0.1,0.9,0.2,1.3C16.1,9.1,15.6,9,15,9z"/>
	<path d="M29.7,14.6c-0.2-0.1-0.4,0-0.6,0.1c-1.3,1.4-3,2.2-4.7,2.2c-3.4,0-6.5-2.1-8.1-5.4c-0.1-0.2-0.3-0.3-0.5-0.3h-1.8
		c-0.2,0-0.4,0.1-0.5,0.3C12.1,14.9,8.9,17,5.5,17c-1.7,0-3.4-0.8-4.6-2.2c-0.1-0.2-0.4-0.2-0.6-0.1C0.1,14.7,0,14.9,0,15.1
		C0.1,23.3,6.8,30,15,30c8.2,0,14.9-6.7,15-14.9C30,14.9,29.9,14.7,29.7,14.6z M22.9,19.8c-1.7,2.6-4.5,4.2-7.6,4.2
		c-3.1,0-5.9-1.6-7.6-4.1c-0.1-0.2-0.1-0.5,0.2-0.7C8.1,19,8.4,19,8.6,19.3c1.5,2.3,4,3.7,6.7,3.7c2.8,0,5.3-1.4,6.8-3.7
		c0.1-0.2,0.5-0.3,0.7-0.2C23,19.2,23.1,19.5,22.9,19.8z"/>
</g>
</svg>
