<?xml version="1.0" encoding="utf-8"?>
<!-- Generator: Adobe Illustrator 19.0.0, SVG Export Plug-In . SVG Version: 6.00 Build 0)  -->
<svg version="1.1" id="Layer_1" xmlns="http://www.w3.org/2000/svg" xmlns:xlink="http://www.w3.org/1999/xlink" x="0px" y="0px"
	 viewBox="0 0 30 30" style="enable-background:new 0 0 30 30;" xml:space="preserve">
<path d="M15,0C6.7,0,0,6.7,0,15s6.7,15,15,15s15-6.7,15-15S23.3,0,15,0z M6,10c0-1.7,1.3-3,3-3s3,1.3,3,3s-1.3,3-3,3S6,11.7,6,10z
	 M15,27c-3.9,0-7-3-7-6.7C8,17,10.6,15,15,15s7,2,7,5.3C22,24,18.9,27,15,27z M21,13c-1.7,0-3-1.3-3-3s1.3-3,3-3s3,1.3,3,3
	S22.7,13,21,13z"/>
</svg>
