<?xml version="1.0" encoding="utf-8"?>
<!-- Generator: Adobe Illustrator 19.0.0, SVG Export Plug-In . SVG Version: 6.00 Build 0)  -->
<svg version="1.1" id="Layer_1" xmlns="http://www.w3.org/2000/svg" xmlns:xlink="http://www.w3.org/1999/xlink" x="0px" y="0px"
	 viewBox="0 0 30 30" style="enable-background:new 0 0 30 30;" xml:space="preserve">
<path d="M15,0C6.7,0,0,6.7,0,15s6.7,15,15,15s15-6.7,15-15S23.3,0,15,0z M6.5,14c-0.1,0-0.3,0-0.4-0.1c-0.2-0.2-0.2-0.5,0-0.7
	l2.6-2.6L6.1,7.9C6,7.7,6,7.3,6.1,7.1s0.5-0.2,0.7,0l2.6,2.6l2.6-2.6c0.2-0.2,0.5-0.2,0.7,0s0.2,0.5,0,0.7l-2.6,2.6l2.6,2.6
	c0.2,0.2,0.2,0.5,0,0.7C12.8,14,12.6,14,12.5,14s-0.3,0-0.4-0.1l-2.6-2.6l-2.6,2.6C6.8,14,6.6,14,6.5,14z M21.5,21h-13
	C8.2,21,8,20.8,8,20.5S8.2,20,8.5,20h13c0.3,0,0.5,0.2,0.5,0.5S21.8,21,21.5,21z M23.9,13.1c0.2,0.2,0.2,0.5,0,0.7
	C23.8,14,23.6,14,23.5,14s-0.3,0-0.4-0.1l-2.6-2.6l-2.6,2.6C17.8,14,17.6,14,17.5,14s-0.3,0-0.4-0.1c-0.2-0.2-0.2-0.5,0-0.7l2.6-2.6
	l-2.6-2.6c-0.2-0.2-0.2-0.5,0-0.7s0.5-0.2,0.7,0l2.6,2.6l2.6-2.6c0.2-0.2,0.5-0.2,0.7,0s0.2,0.5,0,0.7l-2.6,2.6L23.9,13.1z"/>
</svg>
