<?xml version="1.0" encoding="iso-8859-1"?>
<!-- Generator: Adobe Illustrator 19.2.1, SVG Export Plug-In . SVG Version: 6.00 Build 0)  -->
<svg version="1.1" id="Layer_1" xmlns="http://www.w3.org/2000/svg" xmlns:xlink="http://www.w3.org/1999/xlink" x="0px" y="0px"
	 viewBox="0 0 30 30" style="enable-background:new 0 0 30 30;" xml:space="preserve">
<g>
	<g>
		<path d="M7.5,10h12c0.276,0,0.5-0.224,0.5-0.5S19.776,9,19.5,9h-12C7.224,9,7,9.224,7,9.5S7.224,10,7.5,10z M3.5,23
			C2.673,23,2,23.673,2,24.5C2,25.327,2.673,26,3.5,26C4.327,26,5,25.327,5,24.5C5,23.673,4.327,23,3.5,23z M3.5,25
			C3.224,25,3,24.776,3,24.5S3.224,24,3.5,24S4,24.224,4,24.5S3.776,25,3.5,25z M26.922,7c-0.821,0-1.593,0.32-2.169,0.895
			L22,10.564V4.738C22,3.78,21.221,3,20.265,3h-3.316c-0.232-1.139-1.243-2-2.449-2h-1.774C12.372,0.39,11.718,0,11,0
			c-0.718,0-1.373,0.39-1.726,1H7.5C6.292,1,5.282,1.861,5.05,3.001H1.736c-0.957,0-1.735,0.78-1.735,1.738v23.523
			C0.001,29.22,0.779,30,1.736,30h18.529C21.221,30,22,29.22,22,28.262v-8.687l7.1-7.325c0.58-0.58,0.9-1.352,0.9-2.176
			C30,8.379,28.62,7,26.922,7z M6,3.5C6,2.673,6.673,2,7.5,2h2.092c0.211,0,0.4-0.134,0.471-0.333C10.205,1.268,10.582,1,11,1
			c0.418,0,0.795,0.268,0.937,0.667C12.008,1.867,12.197,2,12.408,2H14.5C15.327,2,16,2.673,16,3.5V4H6V3.5z M21,28.262
			C21,28.669,20.67,29,20.265,29H1.736c-0.405,0-0.735-0.331-0.735-0.738V4.739c0-0.407,0.33-0.738,0.735-0.738H5V4.5
			C5,4.776,5.224,5,5.5,5h11C16.776,5,17,4.776,17,4.5V4h3.265C20.67,4,21,4.331,21,4.739v6.523c0,0.079,0.022,0.151,0.055,0.218
			l-2.6,2.52H7.5C7.224,14,7,14.224,7,14.5S7.224,15,7.5,15h9.923l-4.127,4H7.5C7.224,19,7,19.224,7,19.5S7.224,20,7.5,20h5.389
			l-0.8,4H7.5C7.224,24,7,24.224,7,24.5S7.224,25,7.5,25h5c0.033,0,0.065-0.003,0.098-0.01l5-1c0.012-0.002,0.019-0.014,0.031-0.017
			c0.084-0.023,0.16-0.061,0.22-0.12c0.003-0.003,0.007-0.003,0.01-0.005L21,20.607V28.262z M13.896,20.069
			c0.446,0.108,1.187,0.387,1.917,1.118c0.731,0.73,1.009,1.471,1.117,1.916l-3.793,0.759L13.896,20.069z M17.787,22.483
			c-0.193-0.565-0.562-1.298-1.268-2.003c-0.706-0.706-1.439-1.075-2.005-1.268l8.881-8.607l2.999,2.999L17.787,22.483z
			 M28.387,11.548l-1.296,1.337l-2.977-2.977l1.343-1.301C25.848,8.216,26.369,8,26.926,8C28.068,8,29,8.931,29,10.077
			C29,10.631,28.784,11.152,28.387,11.548z M3.5,8C2.673,8,2,8.673,2,9.5C2,10.327,2.673,11,3.5,11C4.327,11,5,10.327,5,9.5
			C5,8.673,4.327,8,3.5,8z M3.5,10C3.224,10,3,9.776,3,9.5S3.224,9,3.5,9S4,9.224,4,9.5S3.776,10,3.5,10z M3.5,13
			C2.673,13,2,13.673,2,14.5C2,15.327,2.673,16,3.5,16C4.327,16,5,15.327,5,14.5C5,13.673,4.327,13,3.5,13z M3.5,15
			C3.224,15,3,14.776,3,14.5S3.224,14,3.5,14S4,14.224,4,14.5S3.776,15,3.5,15z M3.5,18C2.673,18,2,18.673,2,19.5
			C2,20.327,2.673,21,3.5,21C4.327,21,5,20.327,5,19.5C5,18.673,4.327,18,3.5,18z M3.5,20C3.224,20,3,19.776,3,19.5S3.224,19,3.5,19
			S4,19.224,4,19.5S3.776,20,3.5,20z"/>
	</g>
</g>
</svg>
