<?xml version="1.0" encoding="iso-8859-1"?>
<!-- Generator: Adobe Illustrator 19.2.1, SVG Export Plug-In . SVG Version: 6.00 Build 0)  -->
<svg version="1.1" id="Layer_1" xmlns="http://www.w3.org/2000/svg" xmlns:xlink="http://www.w3.org/1999/xlink" x="0px" y="0px"
	 viewBox="0 0 30 30" style="enable-background:new 0 0 30 30;" xml:space="preserve">
<g>
	<g>
		<path d="M27.998,25.001c-0.86,0-0.959-0.379-0.992-1.309l-0.009-0.218c0-0.006-0.004-0.01-0.004-0.016
			C26.97,21.548,25.413,20,23.497,20c-1.93,0-3.5,1.57-3.5,3.5s1.57,3.5,3.5,3.5c1.246,0,2.334-0.659,2.954-1.641
			C26.735,25.726,27.198,26,27.997,26c0.642,0,1.143-0.18,1.49-0.536c0.543-0.557,0.522-1.35,0.511-1.776
			c-0.001-0.066-0.003-0.122-0.001-0.164c0-0.005-0.002-0.009-0.002-0.014c0-0.004,0.002-0.007,0.002-0.01
			c0-3.584-2.916-6.5-6.5-6.5s-6.5,2.916-6.5,6.5s2.916,6.5,6.5,6.5c1.846,0,3.612-0.79,4.844-2.166
			c0.184-0.206,0.167-0.522-0.039-0.706c-0.205-0.183-0.521-0.168-0.706,0.039C26.553,28.332,25.059,29,23.497,29
			c-3.033,0-5.5-2.467-5.5-5.5s2.467-5.5,5.5-5.5s5.5,2.467,5.5,5.5c0,0.002,0.001,0.004,0.001,0.006
			c-0.002,0.058-0.001,0.125,0.001,0.208c0.008,0.318,0.021,0.798-0.228,1.053C28.621,24.922,28.36,25.001,27.998,25.001z
			 M23.497,26c-1.378,0-2.5-1.122-2.5-2.5s1.122-2.5,2.5-2.5s2.5,1.122,2.5,2.5S24.875,26,23.497,26z M15.544,24.42l-8.621,1.499
			L4.058,4.907l21.038-3.825l2.965,16.309c0.049,0.272,0.31,0.455,0.581,0.402c0.272-0.049,0.452-0.31,0.402-0.581L25.989,0.411
			c-0.023-0.131-0.098-0.246-0.207-0.322c-0.109-0.075-0.242-0.106-0.374-0.081l-8.32,1.513c-0.016-0.003-0.027-0.016-0.043-0.018
			l-15.5-1.5C1.41-0.01,1.273,0.033,1.169,0.123c-0.103,0.09-0.165,0.219-0.171,0.356l-1,23c-0.011,0.259,0.178,0.484,0.435,0.517
			l5.313,0.694l0.256,1.878c0.018,0.135,0.091,0.256,0.2,0.336C6.288,26.967,6.392,27,6.497,27c0.028,0,0.057-0.002,0.086-0.007
			l9.132-1.588c0.272-0.047,0.454-0.306,0.407-0.578C16.074,24.555,15.815,24.375,15.544,24.42z M1.017,23.063L1.973,1.048
			l11.559,1.119L3.407,4.008C3.144,4.056,2.965,4.302,3.001,4.567l2.604,19.095L1.017,23.063z"/>
	</g>
</g>
</svg>
