<?xml version="1.0" encoding="iso-8859-1"?>
<!-- Generator: Adobe Illustrator 19.2.1, SVG Export Plug-In . SVG Version: 6.00 Build 0)  -->
<svg version="1.1" id="Layer_1" xmlns="http://www.w3.org/2000/svg" xmlns:xlink="http://www.w3.org/1999/xlink" x="0px" y="0px"
	 viewBox="0 0 30 30" style="enable-background:new 0 0 30 30;" xml:space="preserve">
<g>
	<g>
		<path d="M27.5,1H27V0.5C27,0.224,26.776,0,26.5,0S26,0.224,26,0.5V1h-4V0.5C22,0.224,21.776,0,21.5,0S21,0.224,21,0.5V1h-5V0.5
			C16,0.224,15.776,0,15.5,0S15,0.224,15,0.5V1h-5V0.5C10,0.224,9.776,0,9.5,0S9,0.224,9,0.5V1H4V0.5C4,0.224,3.776,0,3.5,0
			S3,0.224,3,0.5V1H2.5C1.122,1,0,2.122,0,3.5v24C0,28.878,1.122,30,2.5,30h25c1.378,0,2.5-1.122,2.5-2.5v-24
			C30,2.122,28.878,1,27.5,1z M26.5,5C26.776,5,27,5.224,27,5.5S26.776,6,26.5,6S26,5.776,26,5.5S26.224,5,26.5,5z M21.5,5
			C21.776,5,22,5.224,22,5.5S21.776,6,21.5,6S21,5.776,21,5.5S21.224,5,21.5,5z M15.5,5C15.776,5,16,5.224,16,5.5S15.776,6,15.5,6
			S15,5.776,15,5.5S15.224,5,15.5,5z M9.5,5C9.776,5,10,5.224,10,5.5S9.776,6,9.5,6S9,5.776,9,5.5S9.224,5,9.5,5z M3.5,5
			C3.776,5,4,5.224,4,5.5S3.776,6,3.5,6S3,5.776,3,5.5S3.224,5,3.5,5z M29,27.5c0,0.827-0.673,1.5-1.5,1.5h-25
			C1.673,29,1,28.327,1,27.5V10h28V27.5z M29,9H1V3.5C1,2.673,1.673,2,2.5,2H3v2.092C2.419,4.299,2,4.849,2,5.5
			C2,6.327,2.673,7,3.5,7C4.327,7,5,6.327,5,5.5c0-0.651-0.419-1.201-1-1.408V2h5v2.092C8.419,4.299,8,4.849,8,5.5
			C8,6.327,8.673,7,9.5,7C10.327,7,11,6.327,11,5.5c0-0.651-0.419-1.201-1-1.408V2h5v2.092c-0.581,0.207-1,0.757-1,1.408
			C14,6.327,14.673,7,15.5,7C16.327,7,17,6.327,17,5.5c0-0.651-0.419-1.201-1-1.408V2h5v2.092c-0.581,0.207-1,0.757-1,1.408
			C20,6.327,20.673,7,21.5,7C22.327,7,23,6.327,23,5.5c0-0.651-0.419-1.201-1-1.408V2h4v2.092c-0.581,0.207-1,0.757-1,1.408
			C25,6.327,25.673,7,26.5,7C27.327,7,28,6.327,28,5.5c0-0.651-0.419-1.201-1-1.408V2h0.5C28.327,2,29,2.673,29,3.5V9z"/>
	</g>
</g>
</svg>
