<?xml version="1.0" encoding="iso-8859-1"?>
<!-- Generator: Adobe Illustrator 19.2.1, SVG Export Plug-In . SVG Version: 6.00 Build 0)  -->
<svg version="1.1" id="Layer_1" xmlns="http://www.w3.org/2000/svg" xmlns:xlink="http://www.w3.org/1999/xlink" x="0px" y="0px"
	 viewBox="0 0 30 30" style="enable-background:new 0 0 30 30;" xml:space="preserve">
<g>
	<g>
		<path d="M8.5,9.5h12C20.776,9.5,21,9.276,21,9s-0.224-0.5-0.5-0.5h-12C8.224,8.5,8,8.724,8,9S8.224,9.5,8.5,9.5z M26.924,6.5
			C26.21,6.5,25.542,6.754,25,7.195V2c0-0.827-0.673-1.5-1.5-1.5h-22C0.673,0.5,0,1.173,0,2v26c0,0.827,0.673,1.5,1.5,1.5h22
			c0.827,0,1.5-0.673,1.501-1.501V15.98l4.099-4.23c0.581-0.581,0.9-1.353,0.9-2.176C30,7.879,28.62,6.5,26.924,6.5z M24,28
			c0,0.276-0.225,0.5-0.5,0.5h-22C1.225,28.5,1,28.276,1,28v-3.5h1.092c0.207,0.581,0.757,1,1.408,1C4.327,25.5,5,24.827,5,24
			c0-0.827-0.673-1.5-1.5-1.5c-0.651,0-1.201,0.419-1.408,1H1v-5h1.092c0.207,0.581,0.757,1,1.408,1C4.327,19.5,5,18.827,5,18
			c0-0.827-0.673-1.5-1.5-1.5c-0.651,0-1.201,0.419-1.408,1H1v-5h1.092c0.207,0.581,0.757,1,1.408,1C4.327,13.5,5,12.827,5,12
			c0-0.827-0.673-1.5-1.5-1.5c-0.651,0-1.201,0.419-1.408,1H1v-5h1.092c0.207,0.581,0.757,1,1.408,1C4.327,7.5,5,6.827,5,6
			c0-0.827-0.673-1.5-1.5-1.5c-0.651,0-1.201,0.419-1.408,1H1V2c0-0.276,0.225-0.5,0.5-0.5h22C23.775,1.5,24,1.724,24,2v6.126
			L18.455,13.5H8.5C8.224,13.5,8,13.724,8,14s0.224,0.5,0.5,0.5h8.924l-4.127,4H8.5C8.224,18.5,8,18.724,8,19s0.224,0.5,0.5,0.5
			h4.389l-0.8,4H8.5C8.224,23.5,8,23.724,8,24s0.224,0.5,0.5,0.5h4c0.032,0,0.065-0.003,0.098-0.01l5-1
			c0.012-0.002,0.019-0.013,0.03-0.016c0.083-0.023,0.158-0.06,0.218-0.118c0.004-0.004,0.01-0.004,0.014-0.007L24,17.013V28z M3,24
			c0-0.276,0.225-0.5,0.5-0.5C3.775,23.5,4,23.724,4,24s-0.225,0.5-0.5,0.5C3.225,24.5,3,24.276,3,24z M3,18
			c0-0.276,0.225-0.5,0.5-0.5C3.775,17.5,4,17.724,4,18s-0.225,0.5-0.5,0.5C3.225,18.5,3,18.276,3,18z M3,12
			c0-0.276,0.225-0.5,0.5-0.5C3.775,11.5,4,11.724,4,12s-0.225,0.5-0.5,0.5C3.225,12.5,3,12.276,3,12z M3,6
			c0-0.276,0.225-0.5,0.5-0.5C3.775,5.5,4,5.724,4,6S3.775,6.5,3.5,6.5C3.225,6.5,3,6.276,3,6z M13.896,19.569
			c0.446,0.108,1.187,0.387,1.917,1.118c0.73,0.73,1.009,1.471,1.117,1.916l-3.792,0.759L13.896,19.569z M17.788,21.983
			c-0.193-0.565-0.562-1.297-1.267-2.003c-0.706-0.706-1.44-1.075-2.005-1.268l8.881-8.607l2.999,2.999L17.788,21.983z
			 M28.387,11.048l-1.296,1.337l-2.977-2.977l0.734-0.711c0.001-0.001,0.001-0.001,0.001-0.002l0.608-0.589
			c0.392-0.391,0.913-0.607,1.469-0.607C28.069,7.499,29,8.43,29,9.576C29,10.13,28.784,10.651,28.387,11.048z"/>
	</g>
</g>
</svg>
