<?xml version="1.0" encoding="iso-8859-1"?>
<!-- Generator: Adobe Illustrator 19.0.0, SVG Export Plug-In . SVG Version: 6.00 Build 0)  -->
<svg version="1.1" id="Layer_1" xmlns="http://www.w3.org/2000/svg" xmlns:xlink="http://www.w3.org/1999/xlink" x="0px" y="0px"
	 viewBox="0 0 24 24" style="enable-background:new 0 0 24 24;" xml:space="preserve">
<g>
	<g>
		<path d="M6,10c-1.103,0-2,0.897-2,2c0,0.276,0.224,0.5,0.5,0.5S5,12.276,5,12c0-0.551,0.449-1,1-1c0.276,0,0.5-0.224,0.5-0.5
			S6.276,10,6,10z M18,10c-1.103,0-2,0.897-2,2c0,0.276,0.224,0.5,0.5,0.5S17,12.276,17,12c0-0.551,0.449-1,1-1
			c0.276,0,0.5-0.224,0.5-0.5S18.276,10,18,10z M23.5,10h-1c-0.189,0-0.362,0.107-0.447,0.276l-0.259,0.518
			C21.279,9.18,19.783,8,18,8c-1.738,0-3.205,1.12-3.756,2.671C13.699,10.26,12.907,10,12,10c-0.907,0-1.699,0.26-2.244,0.671
			C9.205,9.12,7.738,8,6,8c-1.783,0-3.279,1.18-3.794,2.794l-0.259-0.518C1.862,10.107,1.689,10,1.5,10h-1C0.224,10,0,10.224,0,10.5
			v1C0,11.776,0.224,12,0.5,12S1,11.776,1,11.5V11h0.191l0.362,0.724C1.638,11.893,1.811,12,2,12c0,2.206,1.794,4,4,4s4-1.794,4-4
			c0-0.472,0.855-1,2-1c1.145,0,2,0.528,2,1c0,2.206,1.794,4,4,4s4-1.794,4-4c0.189,0,0.362-0.107,0.447-0.276L22.809,11H23v0.5
			c0,0.276,0.224,0.5,0.5,0.5s0.5-0.224,0.5-0.5v-1C24,10.224,23.776,10,23.5,10z M6,15c-1.654,0-3-1.346-3-3s1.346-3,3-3
			s3,1.346,3,3S7.654,15,6,15z M18,15c-1.654,0-3-1.346-3-3s1.346-3,3-3s3,1.346,3,3S19.654,15,18,15z"/>
	</g>
</g>
</svg>
