<?xml version="1.0" encoding="iso-8859-1"?>
<!-- Generator: Adobe Illustrator 19.0.0, SVG Export Plug-In . SVG Version: 6.00 Build 0)  -->
<svg version="1.1" id="Layer_1" xmlns="http://www.w3.org/2000/svg" xmlns:xlink="http://www.w3.org/1999/xlink" x="0px" y="0px"
	 viewBox="0 0 24 24" style="enable-background:new 0 0 24 24;" xml:space="preserve">
<g>
	<g>
		<path d="M23.494,10.92c-0.027-0.163-0.132-0.302-0.282-0.372c-0.149-0.07-0.324-0.062-0.466,0.023
			c-1.056,0.624-1.882,0.94-2.458,0.94c-0.72,0-1.017-0.484-1.521-1.411C18.17,9.003,17.353,7.5,15,7.5
			c-1.119,0-1.802,0.406-2.301,0.702c-0.583,0.346-0.815,0.346-1.398,0C10.802,7.906,10.119,7.5,9,7.5
			c-2.348,0-3.077,1.5-3.609,2.596c-0.455,0.938-0.728,1.426-1.488,1.426c-0.612,0-1.508-0.323-2.662-0.96
			c-0.143-0.079-0.314-0.084-0.46-0.012c-0.146,0.071-0.249,0.208-0.275,0.369c-0.145,0.883,0.467,2.367,1.453,3.528
			C3.084,15.771,4.519,16.5,6,16.5c2,0,3.247-0.726,4.25-1.309C10.914,14.805,11.438,14.5,12,14.5c0.563,0,1.087,0.305,1.751,0.691
			C14.753,15.773,16.001,16.5,18,16.5c1.482,0,2.917-0.729,4.042-2.053C23.028,13.287,23.639,11.803,23.494,10.92z"/>
	</g>
</g>
</svg>
