<?xml version="1.0" encoding="iso-8859-1"?>
<!-- Generator: Adobe Illustrator 19.0.0, SVG Export Plug-In . SVG Version: 6.00 Build 0)  -->
<svg version="1.1" id="Layer_1" xmlns="http://www.w3.org/2000/svg" xmlns:xlink="http://www.w3.org/1999/xlink" x="0px" y="0px"
	 viewBox="0 0 24 24" style="enable-background:new 0 0 24 24;" xml:space="preserve">
<path d="M23.5,18H19V5.5C19,5.224,18.776,5,18.5,5H6V0.5C6,0.224,5.776,0,5.5,0S5,0.224,5,0.5V5H0.5C0.224,5,0,5.224,0,5.5
	S0.224,6,0.5,6H5v12.5C5,18.776,5.224,19,5.5,19H18v4.5c0,0.276,0.224,0.5,0.5,0.5s0.5-0.224,0.5-0.5V19h4.5
	c0.276,0,0.5-0.224,0.5-0.5S23.776,18,23.5,18z"/>
<g>
</g>
<g>
</g>
<g>
</g>
<g>
</g>
<g>
</g>
<g>
</g>
<g>
</g>
<g>
</g>
<g>
</g>
<g>
</g>
<g>
</g>
<g>
</g>
<g>
</g>
<g>
</g>
<g>
</g>
</svg>
