<?xml version="1.0" encoding="iso-8859-1"?>
<!-- Generator: Adobe Illustrator 19.0.0, SVG Export Plug-In . SVG Version: 6.00 Build 0)  -->
<svg version="1.1" id="Layer_1" xmlns="http://www.w3.org/2000/svg" xmlns:xlink="http://www.w3.org/1999/xlink" x="0px" y="0px"
	 viewBox="0 0 24 24" style="enable-background:new 0 0 24 24;" xml:space="preserve">
<g>
	<g>
		<path d="M6.5,15.5h-3C1.57,15.5,0,13.93,0,12s1.57-3.5,3.5-3.5h3c1.93,0,3.5,1.57,3.5,3.5S8.43,15.5,6.5,15.5z M3.5,9.5
			C2.122,9.5,1,10.622,1,12s1.122,2.5,2.5,2.5h3C7.878,14.5,9,13.378,9,12S7.878,9.5,6.5,9.5H3.5z"/>
	</g>
	<g>
		<path d="M20.5,15.5h-3c-1.93,0-3.5-1.57-3.5-3.5s1.57-3.5,3.5-3.5h3c1.93,0,3.5,1.57,3.5,3.5S22.43,15.5,20.5,15.5z M17.5,9.5
			c-1.378,0-2.5,1.122-2.5,2.5s1.122,2.5,2.5,2.5h3c1.378,0,2.5-1.122,2.5-2.5s-1.122-2.5-2.5-2.5H17.5z"/>
	</g>
	<g>
		<path d="M16.5,12.5h-9C7.224,12.5,7,12.276,7,12s0.224-0.5,0.5-0.5h9c0.276,0,0.5,0.224,0.5,0.5S16.776,12.5,16.5,12.5z"/>
	</g>
</g>
<g>
</g>
<g>
</g>
<g>
</g>
<g>
</g>
<g>
</g>
<g>
</g>
<g>
</g>
<g>
</g>
<g>
</g>
<g>
</g>
<g>
</g>
<g>
</g>
<g>
</g>
<g>
</g>
<g>
</g>
</svg>
