<?xml version="1.0" encoding="iso-8859-1"?>
<!-- Generator: Adobe Illustrator 19.0.0, SVG Export Plug-In . SVG Version: 6.00 Build 0)  -->
<svg version="1.1" id="Layer_1" xmlns="http://www.w3.org/2000/svg" xmlns:xlink="http://www.w3.org/1999/xlink" x="0px" y="0px"
	 viewBox="0 0 24 24" style="enable-background:new 0 0 24 24;" xml:space="preserve">
<g>
	<g>
		<path d="M12,24c-4.136,0-7.5-2.804-7.5-6.25c0-0.276,0.224-0.5,0.5-0.5s0.5,0.224,0.5,0.5C5.5,20.645,8.416,23,12,23
			s6.5-2.355,6.5-5.25c0-3.063-3.038-5.75-6.5-5.75c-4.346,0-7.5-2.418-7.5-5.75C4.5,2.804,7.864,0,12,0s7.5,2.804,7.5,6.25
			c0,0.276-0.224,0.5-0.5,0.5s-0.5-0.224-0.5-0.5C18.5,3.355,15.584,1,12,1S5.5,3.355,5.5,6.25C5.5,9.002,8.233,11,12,11
			c3.995,0,7.5,3.154,7.5,6.75C19.5,21.196,16.136,24,12,24z"/>
	</g>
	<g>
		<path d="M22,12H2c-0.276,0-0.5-0.224-0.5-0.5S1.724,11,2,11h20c0.276,0,0.5,0.224,0.5,0.5S22.276,12,22,12z"/>
	</g>
</g>
<g>
</g>
<g>
</g>
<g>
</g>
<g>
</g>
<g>
</g>
<g>
</g>
<g>
</g>
<g>
</g>
<g>
</g>
<g>
</g>
<g>
</g>
<g>
</g>
<g>
</g>
<g>
</g>
<g>
</g>
</svg>
