<?xml version="1.0" encoding="iso-8859-1"?>
<!-- Generator: Adobe Illustrator 19.0.0, SVG Export Plug-In . SVG Version: 6.00 Build 0)  -->
<svg version="1.1" id="Layer_1" xmlns="http://www.w3.org/2000/svg" xmlns:xlink="http://www.w3.org/1999/xlink" x="0px" y="0px"
	 viewBox="0 0 30 30" style="enable-background:new 0 0 30 30;" xml:space="preserve">
<g>
	<g>
		<path d="M24.648,0.197C24.555,0.073,24.407,0,24.251,0h-6.5c-0.227,0-0.425,0.154-0.483,0.373l-2.091,7.944l-2.451-7.964
			C12.662,0.143,12.469,0,12.249,0h-6.5C5.59,0,5.441,0.076,5.347,0.203C5.252,0.331,5.225,0.497,5.272,0.648l4.467,14.393
			C7.913,16.602,6.75,18.916,6.75,21.5c0,4.687,3.813,8.5,8.5,8.5s8.5-3.813,8.5-8.5c0-2.586-1.164-4.901-2.991-6.461l3.974-14.407
			C24.774,0.482,24.743,0.32,24.648,0.197z M6.429,1h5.452l3.697,12.017C15.468,13.013,15.361,13,15.25,13
			c-1.721,0-3.322,0.518-4.662,1.401L6.429,1z M22.75,21.5c0,4.136-3.364,7.5-7.5,7.5s-7.5-3.364-7.5-7.5s3.364-7.5,7.5-7.5
			S22.75,17.365,22.75,21.5z M19.898,14.393c-0.963-0.632-2.061-1.068-3.24-1.266l-0.923-3.001L18.136,1h5.458L19.898,14.393z
			 M17.751,18.43c0-1.34-1.121-2.429-2.5-2.429c-1.379,0-2.5,1.09-2.5,2.429v0.071c0,0.276,0.224,0.464,0.5,0.464
			s0.5-0.26,0.5-0.536c0-0.788,0.673-1.429,1.5-1.429c0.827,0,1.5,0.641,1.5,1.429c0,1.133-0.389,2.257-1.095,3.164l-2.8,3.6
			c-0.118,0.151-0.139,0.356-0.055,0.527C12.885,25.891,13.059,26,13.25,26h4c0.276,0,0.5-0.224,0.5-0.5s-0.224-0.5-0.5-0.5h-2.978
			l2.173-2.792C17.287,21.126,17.751,19.784,17.751,18.43z"/>
	</g>
</g>
</svg>
