<?xml version="1.0" encoding="iso-8859-1"?>
<!-- Generator: Adobe Illustrator 19.0.0, SVG Export Plug-In . SVG Version: 6.00 Build 0)  -->
<svg version="1.1" id="Layer_1" xmlns="http://www.w3.org/2000/svg" xmlns:xlink="http://www.w3.org/1999/xlink" x="0px" y="0px"
	 viewBox="0 0 30 30" style="enable-background:new 0 0 30 30;" xml:space="preserve">
<g>
	<g>
		<path d="M16.296,28.043c-0.081,0.036-0.153,0.093-0.206,0.167c-0.258,0.361-0.655,0.791-1.083,0.791
			c-0.465,0-0.889-0.495-1.105-0.798L2.406,12.71C1.473,11.404,1,9.988,1,8.501c0-4.065,3.435-7.5,7.5-7.5
			c2.282,0,4.555,1.41,6.08,3.771c0.184,0.285,0.656,0.285,0.84,0c1.525-2.361,3.798-3.771,6.08-3.771c4.065,0,7.5,3.435,7.5,7.5
			c0,1.487-0.473,2.903-1.4,4.2l-1.5,2c-0.166,0.221-0.121,0.534,0.1,0.7s0.535,0.121,0.7-0.101l1.507-2.009
			C29.464,11.813,30,10.2,30,8.5C30,3.893,26.107,0,21.5,0c-2.417,0-4.802,1.342-6.5,3.623C13.302,1.342,10.917,0,8.5,0
			C3.893,0,0,3.893,0,8.5c0,1.7,0.536,3.313,1.599,4.798l11.495,15.493C13.489,29.343,14.141,30,15.008,30
			c0.677,0,1.308-0.397,1.875-1.18c0.01-0.011,0.02-0.022,0.029-0.034c0.168-0.219,0.118-0.524-0.101-0.692
			C16.659,27.98,16.461,27.969,16.296,28.043z M23,16c-3.86,0-7,3.141-7,7s3.14,7,7,7s7-3.141,7-7S26.86,16,23,16z M23,29
			c-3.309,0-6-2.691-6-6c0-1.475,0.537-2.824,1.422-3.87l8.448,8.448C25.825,28.463,24.475,29,23,29z M27.578,26.871l-8.448-8.448
			C20.175,17.537,21.525,17,23,17c3.309,0,6,2.691,6,6C29,24.475,28.463,25.825,27.578,26.871z"/>
	</g>
</g>
</svg>
