<?xml version="1.0" encoding="iso-8859-1"?>
<!-- Generator: Adobe Illustrator 19.0.0, SVG Export Plug-In . SVG Version: 6.00 Build 0)  -->
<svg version="1.1" id="Layer_1" xmlns="http://www.w3.org/2000/svg" xmlns:xlink="http://www.w3.org/1999/xlink" x="0px" y="0px"
	 viewBox="0 0 30 30" style="enable-background:new 0 0 30 30;" xml:space="preserve">
<g>
	<g>
		<path d="M24.904,0.206C24.81,0.076,24.66,0,24.5,0H18c-0.222,0-0.417,0.146-0.48,0.358l-2.086,7.091l-2.462-7.113
			C12.902,0.135,12.712,0,12.499,0h-7C5.338,0,5.186,0.078,5.092,0.21c-0.093,0.131-0.118,0.3-0.065,0.453l4.959,14.381
			C8.162,16.604,7,18.917,7,21.5c0,4.687,3.813,8.5,8.5,8.5c4.687,0,8.5-3.813,8.5-8.5c0-2.824-1.39-5.324-3.516-6.871l4.492-13.976
			C25.025,0.501,24.998,0.335,24.904,0.206z M6.201,1h5.943l4.168,12.041C16.044,13.016,15.774,13,15.5,13
			c-1.727,0-3.333,0.521-4.676,1.409L6.201,1z M23,21.5c0,4.136-3.364,7.5-7.5,7.5C11.364,29,8,25.636,8,21.5s3.364-7.5,7.5-7.5
			C19.636,14,23,17.364,23,21.5z M19.614,14.067c-0.675-0.375-1.407-0.656-2.178-0.836l-1.438-4.154L18.374,1h5.44L19.614,14.067z
			 M15.031,16.324L13.653,20H10.5c-0.22,0-0.414,0.144-0.478,0.355c-0.064,0.211,0.018,0.439,0.201,0.561l2.67,1.78l-1.361,3.628
			c-0.077,0.206-0.011,0.438,0.164,0.572c0.174,0.133,0.416,0.138,0.595,0.01l3.186-2.275l2.703,2.253
			C18.272,26.961,18.386,27,18.5,27c0.092,0,0.184-0.025,0.267-0.077c0.183-0.114,0.272-0.334,0.219-0.544l-0.915-3.658l2.707-1.805
			c0.183-0.122,0.265-0.35,0.201-0.561C20.915,20.144,20.72,20,20.5,20h-3.153l-1.379-3.676
			C15.821,15.934,15.177,15.934,15.031,16.324z M16.532,20.676C16.605,20.871,16.792,21,17,21h1.849l-1.625,1.085
			c-0.176,0.117-0.259,0.332-0.208,0.537l0.628,2.514l-1.823-1.52c-0.176-0.146-0.428-0.154-0.611-0.022l-2.166,1.546l0.924-2.464
			c0.081-0.218,0.002-0.463-0.191-0.592L12.151,21H14c0.208,0,0.395-0.129,0.468-0.324l1.032-2.752L16.532,20.676z"/>
	</g>
</g>
</svg>
