<?xml version="1.0" encoding="iso-8859-1"?>
<!-- Generator: Adobe Illustrator 19.0.0, SVG Export Plug-In . SVG Version: 6.00 Build 0)  -->
<svg version="1.1" id="Layer_1" xmlns="http://www.w3.org/2000/svg" xmlns:xlink="http://www.w3.org/1999/xlink" x="0px" y="0px"
	 viewBox="0 0 30 30" style="enable-background:new 0 0 30 30;" xml:space="preserve">
<g>
	<g>
		<path d="M28.21,15.046l-13-6c-0.135-0.062-0.285-0.062-0.42,0l-13,6C1.613,15.128,1.5,15.305,1.5,15.5v5
			c0,0.17,0.087,0.329,0.231,0.421c0.144,0.093,0.323,0.104,0.479,0.033L15,15.051l12.79,5.903C27.857,20.985,27.929,21,28,21
			c0.094,0,0.188-0.026,0.27-0.079c0.143-0.092,0.23-0.251,0.23-0.421v-5C28.5,15.305,28.387,15.128,28.21,15.046z M27.5,19.719
			l-12.29-5.673C15.143,14.015,15.071,14,15,14s-0.143,0.015-0.21,0.046L2.5,19.719V15.82L15,10.051l12.5,5.769V19.719z
			 M28.21,24.046l-13-6c-0.135-0.062-0.285-0.062-0.42,0l-13,6C1.613,24.128,1.5,24.305,1.5,24.5v4C1.5,29.327,2.173,30,3,30h24
			c0.827,0,1.5-0.673,1.5-1.5v-4C28.5,24.305,28.387,24.128,28.21,24.046z M27.5,28.5c0,0.276-0.225,0.5-0.5,0.5H3
			c-0.275,0-0.5-0.224-0.5-0.5v-3.68L15,19.051l12.5,5.769V28.5z M28.21,6.046l-13-6c-0.135-0.062-0.285-0.062-0.42,0l-13,6
			C1.613,6.128,1.5,6.305,1.5,6.5v5c0,0.17,0.087,0.329,0.231,0.421c0.144,0.093,0.323,0.104,0.479,0.033L15,6.051l12.79,5.903
			C27.857,11.985,27.929,12,28,12c0.094,0,0.188-0.026,0.27-0.079c0.143-0.092,0.23-0.251,0.23-0.421v-5
			C28.5,6.305,28.387,6.128,28.21,6.046z M27.5,10.719L15.21,5.046C15.143,5.015,15.071,5,15,5s-0.143,0.015-0.21,0.046L2.5,10.719
			V6.82L15,1.051L27.5,6.82V10.719z"/>
	</g>
</g>
</svg>
