<?xml version="1.0" encoding="iso-8859-1"?>
<!-- Generator: Adobe Illustrator 19.0.0, SVG Export Plug-In . SVG Version: 6.00 Build 0)  -->
<svg version="1.1" id="Layer_1" xmlns="http://www.w3.org/2000/svg" xmlns:xlink="http://www.w3.org/1999/xlink" x="0px" y="0px"
	 viewBox="0 0 30 30" style="enable-background:new 0 0 30 30;" xml:space="preserve">
<g>
	<g>
		<path d="M26.5,0h-23C1.57,0,0,1.57,0,3.5v23C0,28.43,1.57,30,3.5,30h23c1.93,0,3.5-1.57,3.5-3.5v-23C30,1.57,28.43,0,26.5,0z
			 M29,26.5c0,1.378-1.121,2.5-2.5,2.5h-23C2.121,29,1,27.878,1,26.5v-23C1,2.122,2.121,1,3.5,1h23C27.879,1,29,2.122,29,3.5V26.5z
			 M24.541,11.502L18.8,11.023l-3.369-5.775c-0.179-0.308-0.683-0.308-0.863,0l-3.369,5.775l-5.741,0.479
			c-0.189,0.016-0.353,0.137-0.423,0.314c-0.07,0.177-0.034,0.378,0.093,0.519l4.333,4.813L8.01,24.402
			c-0.039,0.195,0.041,0.395,0.204,0.508c0.163,0.115,0.379,0.12,0.548,0.016L15,21.087l6.238,3.839
			C21.318,24.976,21.409,25,21.5,25c0.101,0,0.2-0.03,0.285-0.09c0.163-0.113,0.243-0.313,0.204-0.508l-1.451-7.254l4.333-4.813
			c0.127-0.142,0.163-0.343,0.093-0.519C24.894,11.639,24.729,11.518,24.541,11.502z M19.628,16.664
			c-0.105,0.118-0.149,0.278-0.118,0.433l1.274,6.375l-5.522-3.398C15.182,20.025,15.091,20,15,20s-0.182,0.025-0.262,0.074
			l-5.522,3.398l1.274-6.375c0.031-0.155-0.013-0.316-0.118-0.433l-3.826-4.251l4.996-0.417c0.162-0.013,0.308-0.105,0.39-0.246
			L15,6.49l3.068,5.26c0.082,0.141,0.228,0.233,0.39,0.246l4.996,0.417L19.628,16.664z"/>
	</g>
</g>
</svg>
