<?xml version="1.0" encoding="iso-8859-1"?>
<!-- Generator: Adobe Illustrator 19.0.0, SVG Export Plug-In . SVG Version: 6.00 Build 0)  -->
<svg version="1.1" id="Layer_1" xmlns="http://www.w3.org/2000/svg" xmlns:xlink="http://www.w3.org/1999/xlink" x="0px" y="0px"
	 viewBox="0 0 30 30" style="enable-background:new 0 0 30 30;" xml:space="preserve">
<g>
	<g>
		<path d="M19.758,26.06l-5-3c-0.153-0.093-0.345-0.097-0.5-0.009l-8.055,4.476l1.788-8.94c0.032-0.163-0.019-0.333-0.137-0.451
			L1.548,11.83l8.53-1.347c0.164-0.026,0.304-0.131,0.374-0.28L14.5,1.657l4.046,8.545c0.071,0.149,0.211,0.254,0.374,0.28
			l8.53,1.347l-4.306,4.306c-0.195,0.195-0.195,0.512,0,0.707s0.512,0.195,0.707,0l5-5c0.133-0.133,0.18-0.329,0.122-0.508
			c-0.058-0.179-0.211-0.311-0.397-0.34l-9.239-1.459L14.95,0.274c-0.165-0.35-0.738-0.35-0.903,0L9.66,9.535l-9.239,1.459
			c-0.185,0.029-0.339,0.161-0.397,0.34s-0.011,0.375,0.122,0.508l6.811,6.811L5.01,28.391c-0.038,0.19,0.038,0.387,0.195,0.502
			c0.087,0.064,0.191,0.096,0.295,0.096c0.083,0,0.167-0.021,0.243-0.063l8.748-4.86l4.752,2.852
			c0.238,0.143,0.544,0.065,0.686-0.172C20.071,26.509,19.995,26.202,19.758,26.06z M29.466,22.735l0.527-3.164
			c0.024-0.144-0.017-0.293-0.112-0.405c-0.094-0.113-0.234-0.177-0.381-0.177h-8.872l-0.141-0.612
			c-0.052-0.227-0.254-0.388-0.487-0.388h-1.5c-0.276,0-0.5,0.224-0.5,0.5s0.224,0.5,0.5,0.5h1.102l1.407,6.097
			c0.155,0.786,1.314,0.903,1.991,0.903h5.5c0.276,0,0.5-0.224,0.5-0.5s-0.224-0.5-0.5-0.5H23c-0.553,0-0.966-0.107-1.013-0.112
			l-0.205-0.888h6.204C28.722,23.989,29.345,23.462,29.466,22.735z M21.552,22.989l-0.692-3h8.051l-0.431,2.582
			c-0.04,0.242-0.248,0.418-0.493,0.418H21.552z M22.5,26.989c-0.827,0-1.5,0.673-1.5,1.5c0,0.827,0.673,1.5,1.5,1.5
			s1.5-0.673,1.5-1.5C24,27.662,23.327,26.989,22.5,26.989z M27.5,26.989c-0.827,0-1.5,0.673-1.5,1.5c0,0.827,0.673,1.5,1.5,1.5
			s1.5-0.673,1.5-1.5C29,27.662,28.327,26.989,27.5,26.989z"/>
	</g>
</g>
</svg>
