<?xml version="1.0" encoding="iso-8859-1"?>
<!-- Generator: Adobe Illustrator 19.0.0, SVG Export Plug-In . SVG Version: 6.00 Build 0)  -->
<svg version="1.1" id="Layer_1" xmlns="http://www.w3.org/2000/svg" xmlns:xlink="http://www.w3.org/1999/xlink" x="0px" y="0px"
	 viewBox="0 0 30 30" style="enable-background:new 0 0 30 30;" xml:space="preserve">
<g>
	<g>
		<path d="M29.693,3.81L20.7,0.039c-0.187-0.079-0.401-0.036-0.546,0.107l-3.007,3c-0.116,0.114-0.167,0.278-0.14,0.438
			c0.027,0.16,0.131,0.297,0.277,0.367l0.723,0.345L9.54,7.033C8.908,7.27,8.368,7.719,8.02,8.299l-2.595,4.325
			c-0.53,0.884-0.572,1.962-0.091,2.92L5.61,16H2.5C2.224,16,2,16.224,2,16.5V29H0.5C0.224,29,0,29.224,0,29.5S0.224,30,0.5,30h21
			c0.276,0,0.5-0.224,0.5-0.5S21.776,29,21.5,29H20v-9.5c0-0.003-0.002-0.005-0.002-0.008c1.106-0.787,2.343-1.967,3.431-3.728
			c2.157-3.49,3.126-6.244,3.436-7.238l0.602,0.288C27.716,8.938,27.984,9,28.251,9c0.319,0,0.636-0.088,0.919-0.263
			C29.69,8.416,30,7.86,30,7.249V4.271C30,4.069,29.879,3.888,29.693,3.81z M19,29H3V17h7.495c0.002,0,0.003,0.001,0.005,0.001
			S10.503,17,10.505,17h2.303c-0.145,0.106-0.291,0.213-0.466,0.342c-0.793,0.584-1.692,1.246-2.463,1.737
			c-0.636,0.405-1.073,1.035-1.229,1.773c-0.156,0.74-0.011,1.495,0.409,2.126c0.534,0.8,1.409,1.238,2.313,1.238
			c0.498,0,1.004-0.133,1.465-0.41l4.122-2.838c0.279-0.068,1.053-0.29,2.042-0.843V29z M10.419,14.72
			c0.935-0.417,2.218-1.235,2.787-2.005c0.467,0.249,1.237,0.575,2.263,0.716c-0.665,0.877-1.185,1.893-1.379,2.587
			C14.06,16.013,14.032,16,14,16h-3.044C10.867,15.457,10.648,15.03,10.419,14.72z M22.581,15.239
			c-2.497,4.04-5.888,4.765-5.922,4.772c-0.066,0.014-0.13,0.04-0.186,0.079l-4.175,2.876c-0.819,0.492-1.877,0.254-2.407-0.541
			c-0.27-0.405-0.364-0.889-0.263-1.365c0.1-0.473,0.38-0.877,0.788-1.136c0.8-0.509,1.713-1.182,2.519-1.776
			c0.638-0.47,1.428-1.052,1.653-1.154c0.233-0.041,0.411-0.246,0.412-0.492c0.001-0.333,0.731-2.023,1.854-3.146
			c0.143-0.143,0.186-0.358,0.108-0.545c-0.077-0.187-0.26-0.309-0.462-0.309c-1.991,0-3.184-0.888-3.194-0.896
			c-0.151-0.117-0.353-0.151-0.525-0.065c-0.172,0.084-0.279,0.246-0.279,0.437c-0.127,0.505-2.435,1.977-3.002,2.023
			c-0.221,0-0.413,0.145-0.477,0.355c-0.064,0.21,0.019,0.439,0.202,0.562C9.251,14.936,9.754,15.292,9.933,16H6.779L6.21,15.061
			c-0.307-0.614-0.28-1.334,0.074-1.923l2.595-4.325C9.111,8.427,9.471,8.127,9.87,7.977l9.096-2.939l6.931,3.234
			C25.586,9.247,24.631,11.923,22.581,15.239z M28.999,7.248c0,0.266-0.129,0.498-0.355,0.638c-0.226,0.139-0.491,0.152-0.738,0.029
			l-9.552-4.561l2.268-2.264l8.377,3.513V7.248z"/>
	</g>
</g>
</svg>
