<?xml version="1.0" encoding="iso-8859-1"?>
<!-- Generator: Adobe Illustrator 19.0.0, SVG Export Plug-In . SVG Version: 6.00 Build 0)  -->
<svg version="1.1" id="Layer_1" xmlns="http://www.w3.org/2000/svg" xmlns:xlink="http://www.w3.org/1999/xlink" x="0px" y="0px"
	 viewBox="0 0 30 30" style="enable-background:new 0 0 30 30;" xml:space="preserve">
<g>
	<g>
		<path d="M23.501,17.001c-3.584,0-6.5,2.916-6.5,6.5s2.916,6.5,6.5,6.5s6.5-2.916,6.5-6.5S27.085,17.001,23.501,17.001z
			 M25.855,25.854C25.757,25.952,25.629,26,25.501,26s-0.256-0.049-0.354-0.146l-1.646-1.646l-1.646,1.646
			C21.757,25.952,21.629,26,21.501,26s-0.256-0.049-0.354-0.146c-0.195-0.195-0.195-0.512,0-0.707l1.646-1.646l-1.646-1.646
			c-0.195-0.195-0.195-0.512,0-0.707s0.512-0.195,0.707,0l1.646,1.646l1.646-1.646c0.195-0.195,0.512-0.195,0.707,0
			s0.195,0.512,0,0.707l-1.646,1.646l1.648,1.646C26.05,25.342,26.05,25.659,25.855,25.854z M15.547,24.42l-8.62,1.499l-0.223-1.632
			c0.001-0.015,0.009-0.028,0.009-0.044c0-0.07-0.015-0.136-0.042-0.197L4.06,4.907l21.038-3.825l2.965,16.309
			c0.05,0.272,0.317,0.453,0.582,0.402c0.271-0.049,0.451-0.31,0.402-0.581L25.992,0.411c-0.024-0.13-0.099-0.246-0.208-0.322
			c-0.108-0.075-0.241-0.108-0.374-0.081L17.092,1.52c-0.016-0.003-0.028-0.017-0.044-0.018l-15.5-1.5
			c-0.138-0.014-0.272,0.03-0.376,0.12C1.068,0.212,1.007,0.341,1,0.478l-1,23c-0.011,0.259,0.178,0.484,0.436,0.517l5.313,0.693
			l0.256,1.879c0.018,0.135,0.09,0.256,0.2,0.336C6.291,26.966,6.394,27,6.5,27c0.028,0,0.058-0.002,0.086-0.007l9.132-1.588
			c0.271-0.047,0.454-0.306,0.406-0.578C16.078,24.555,15.812,24.376,15.547,24.42z"/>
	</g>
</g>
</svg>
