<?xml version="1.0" encoding="iso-8859-1"?>
<!-- Generator: Adobe Illustrator 19.0.0, SVG Export Plug-In . SVG Version: 6.00 Build 0)  -->
<svg version="1.1" id="Layer_1" xmlns="http://www.w3.org/2000/svg" xmlns:xlink="http://www.w3.org/1999/xlink" x="0px" y="0px"
	 viewBox="0 0 24 24" style="enable-background:new 0 0 24 24;" xml:space="preserve">
<g>
	<g>
		<circle cx="20" cy="15" r="0.5"/>
		<circle cx="15" cy="20" r="0.5"/>
		<circle cx="17.5" cy="17.5" r="0.5"/>
		<path d="M21,11.5h-7c-0.276,0-0.5,0.224-0.5,0.5v8c0-0.827,0.673-1.5,1.5-1.5s1.5,0.673,1.5,1.5s-0.673,1.5-1.5,1.5
			s-1.5-0.673-1.5-1.5v1c0,0.604-0.164,1.192-0.488,1.748c-0.091,0.155-0.091,0.346-0.002,0.501s0.255,0.251,0.434,0.251H21
			c1.379,0,2.5-1.122,2.5-2.5v-7C23.5,12.622,22.379,11.5,21,11.5z M17.5,19c-0.827,0-1.5-0.673-1.5-1.5s0.673-1.5,1.5-1.5
			s1.5,0.673,1.5,1.5S18.327,19,17.5,19z M20,16.5c-0.827,0-1.5-0.673-1.5-1.5s0.673-1.5,1.5-1.5s1.5,0.673,1.5,1.5
			S20.827,16.5,20,16.5z"/>
	</g>
	<g>
		<path d="M12.5,11.5V3c0-1.378-1.121-2.5-2.5-2.5H3C1.621,0.5,0.5,1.622,0.5,3v8.5H12.5z M9,2.5c0.827,0,1.5,0.673,1.5,1.5
			S9.827,5.5,9,5.5S7.5,4.827,7.5,4S8.173,2.5,9,2.5z M4,7.5c0.827,0,1.5,0.673,1.5,1.5S4.827,10.5,4,10.5S2.5,9.827,2.5,9
			S3.173,7.5,4,7.5z"/>
		<circle cx="4" cy="15" r="0.5"/>
		<circle cx="4" cy="20" r="0.5"/>
		<circle cx="9" cy="4" r="0.5"/>
		<circle cx="4" cy="9" r="0.5"/>
		<circle cx="9" cy="15" r="0.5"/>
		<path d="M0.5,12.5V21c0,1.378,1.121,2.5,2.5,2.5h7c1.379,0,2.5-1.122,2.5-2.5v-8.5H0.5z M4,21.5c-0.827,0-1.5-0.673-1.5-1.5
			s0.673-1.5,1.5-1.5s1.5,0.673,1.5,1.5S4.827,21.5,4,21.5z M4,16.5c-0.827,0-1.5-0.673-1.5-1.5s0.673-1.5,1.5-1.5
			s1.5,0.673,1.5,1.5S4.827,16.5,4,16.5z M9,21.5c-0.827,0-1.5-0.673-1.5-1.5s0.673-1.5,1.5-1.5s1.5,0.673,1.5,1.5
			S9.827,21.5,9,21.5z M9,16.5c-0.827,0-1.5-0.673-1.5-1.5s0.673-1.5,1.5-1.5s1.5,0.673,1.5,1.5S9.827,16.5,9,16.5z"/>
		<circle cx="9" cy="20" r="0.5"/>
	</g>
</g>
<g>
</g>
<g>
</g>
<g>
</g>
<g>
</g>
<g>
</g>
<g>
</g>
<g>
</g>
<g>
</g>
<g>
</g>
<g>
</g>
<g>
</g>
<g>
</g>
<g>
</g>
<g>
</g>
<g>
</g>
</svg>
