<?xml version="1.0" encoding="iso-8859-1"?>
<!-- Generator: Adobe Illustrator 19.0.0, SVG Export Plug-In . SVG Version: 6.00 Build 0)  -->
<svg version="1.1" id="Layer_1" xmlns="http://www.w3.org/2000/svg" xmlns:xlink="http://www.w3.org/1999/xlink" x="0px" y="0px"
	 viewBox="0 0 24 24" style="enable-background:new 0 0 24 24;" xml:space="preserve">
<g>
	<path d="M12.317,13.382c0.195-0.088,0.427-0.041,0.573,0.12C13.179,13.818,13.583,14,14,14c0.967,0,1.5-0.71,1.5-2
		c0-1.609-2.342-3.272-3.5-3.93c-1.158,0.66-3.5,2.325-3.5,3.93c0,1.29,0.533,2,1.5,2c0.417,0,0.821-0.182,1.11-0.499
		c0.146-0.16,0.377-0.208,0.573-0.12c0.197,0.087,0.315,0.292,0.294,0.506c-0.08,0.802-0.376,1.57-0.635,2.112h1.316
		c-0.259-0.542-0.555-1.31-0.635-2.112C12.001,13.673,12.12,13.469,12.317,13.382z"/>
	<polygon points="7.903,5 7.5,3.924 7.097,5 	"/>
	<path d="M18,0H6C4.622,0,3.5,1.122,3.5,2.5v19C3.5,22.878,4.622,24,6,24h12c1.378,0,2.5-1.122,2.5-2.5v-19
		C20.5,1.122,19.378,0,18,0z M5.824,6.968C5.566,6.871,5.435,6.583,5.532,6.324l1.5-4c0.146-0.39,0.79-0.39,0.937,0l1.5,4
		c0.097,0.259-0.034,0.547-0.292,0.644C9.118,6.99,9.059,7,9,7C8.798,7,8.607,6.876,8.532,6.676L8.278,6H6.722L6.468,6.676
		C6.371,6.935,6.081,7.064,5.824,6.968z M13.52,17c-0.007,0-0.014,0-0.02,0h-3c-0.183,0-0.352-0.101-0.439-0.261
		c-0.088-0.161-0.08-0.357,0.02-0.511c0.005-0.008,0.373-0.581,0.641-1.336C9.345,15.312,7.5,14.662,7.5,12
		c0-2.678,4.094-4.852,4.268-4.943c0.146-0.076,0.318-0.076,0.464,0C12.406,7.148,16.5,9.322,16.5,12
		c0,2.662-1.847,3.312-3.223,2.891c0.207,0.582,0.472,1.055,0.586,1.245c0.096,0.091,0.157,0.221,0.157,0.364
		C14.02,16.776,13.796,17,13.52,17z M18.468,17.676l-1.5,4C16.895,21.871,16.708,22,16.5,22s-0.395-0.129-0.468-0.324l-1.5-4
		c-0.097-0.259,0.034-0.547,0.292-0.644c0.257-0.096,0.547,0.034,0.644,0.292L15.722,18h1.557l0.253-0.676
		c0.097-0.259,0.385-0.389,0.644-0.292C18.434,17.129,18.565,17.417,18.468,17.676z"/>
	<polygon points="16.097,19 16.5,20.076 16.903,19 	"/>
</g>
<g>
</g>
<g>
</g>
<g>
</g>
<g>
</g>
<g>
</g>
<g>
</g>
<g>
</g>
<g>
</g>
<g>
</g>
<g>
</g>
<g>
</g>
<g>
</g>
<g>
</g>
<g>
</g>
<g>
</g>
</svg>
