<?xml version="1.0" encoding="utf-8"?>
<!-- Generator: Adobe Illustrator 19.0.0, SVG Export Plug-In . SVG Version: 6.00 Build 0)  -->
<svg version="1.1" id="Layer_1" xmlns="http://www.w3.org/2000/svg" xmlns:xlink="http://www.w3.org/1999/xlink" x="0px" y="0px"
	 viewBox="-467 269 24 24" style="enable-background:new -467 269 24 24;" xml:space="preserve">
<g>
	<g>
		<path d="M-452.5,285.5c0-0.3-0.2-0.5-0.5-0.5h-0.7l-0.2-1.2c1.1-0.4,1.9-1.5,1.9-2.8c0-1.1-0.6-2.1-1.5-2.6v-1.9
			c0-0.3-0.2-0.5-0.5-0.5h-0.5v-6.5c0-0.3-0.2-0.5-0.5-0.5s-0.5,0.2-0.5,0.5v6.5h-0.5c-0.3,0-0.5,0.2-0.5,0.5v1.9
			c-0.9,0.5-1.5,1.5-1.5,2.6c0,1.3,0.8,2.4,1.9,2.8l-0.2,1.2h-0.7c-0.3,0-0.5,0.2-0.5,0.5s0.2,0.5,0.5,0.5h0.6l-1.1,6.4
			c0,0.1,0,0.3,0.1,0.4c0.1,0.1,0.2,0.2,0.4,0.2h4c0.1,0,0.3-0.1,0.4-0.2c0.1-0.1,0.1-0.3,0.1-0.4l-1.1-6.4h0.6
			C-452.7,286-452.5,285.8-452.5,285.5z M-455.5,277h1v1h-1V277z M-457,281c0-1.1,0.9-2,2-2s2,0.9,2,2s-0.9,2-2,2
			S-457,282.1-457,281z M-454.8,285h-0.5l0.2-1h0.2L-454.8,285z M-456.4,292l1-6h0.8l1,6H-456.4z"/>
	</g>
</g>
</svg>
