<?xml version="1.0" encoding="utf-8"?>
<!-- Generator: Adobe Illustrator 19.0.0, SVG Export Plug-In . SVG Version: 6.00 Build 0)  -->
<svg version="1.1" id="Layer_1" xmlns="http://www.w3.org/2000/svg" xmlns:xlink="http://www.w3.org/1999/xlink" x="0px" y="0px"
	 viewBox="-467 269 24 24" style="enable-background:new -467 269 24 24;" xml:space="preserve">
<g>
	<g>
		<path d="M-443.5,281.4C-443.5,281.4-443.5,281.4-443.5,281.4l-2-6.1c-0.1-0.2-0.3-0.3-0.5-0.3h-11c0,0,0,0,0,0l-1.6-1.8
			c-0.2-0.2-0.6-0.2-0.8,0l-2.1,2.4v-1.1c0-0.3-0.2-0.5-0.5-0.5h-2c-0.3,0-0.5,0.2-0.5,0.5v4.5c0,0,0,0,0,0l-1.9,2.2c0,0,0,0,0,0.1
			c0,0,0,0,0,0.1c0,0,0,0.1,0,0.1c0,0,0,0,0,0.1v7c0,0.3,0.2,0.5,0.5,0.5h22c0.3,0,0.5-0.2,0.5-0.5L-443.5,281.4
			C-443.5,281.5-443.5,281.4-443.5,281.4z M-446.4,276l1.7,5h-7.1l-4.4-5H-446.4z M-463.5,275h1v1.5c0,0.1,0,0.1,0,0.2l-1,1.2V275z
			 M-457.5,288h-3v-1.5c0-0.8,0.7-1.5,1.5-1.5s1.5,0.7,1.5,1.5V288z M-446.5,288h-5v-1h5V288z M-446.5,286h-5v-1h5V286z M-444.5,288
			h-1v-3.5c0-0.3-0.2-0.5-0.5-0.5h-6c-0.3,0-0.5,0.2-0.5,0.5v3.5h-4v-1.5c0-1.4-1.1-2.5-2.5-2.5s-2.5,1.1-2.5,2.5v1.5h-4v-6.3
			l6.5-7.4l6.6,7.6c0,0,0,0,0,0c0,0,0.1,0.1,0.1,0.1c0,0,0,0,0,0c0.1,0,0.1,0,0.2,0h7.5V288z M-456,280h-6c-0.3,0-0.5,0.2-0.5,0.5v2
			c0,0.3,0.2,0.5,0.5,0.5h6c0.3,0,0.5-0.2,0.5-0.5v-2C-455.5,280.2-455.7,280-456,280z M-456.5,282h-5v-1h5V282z"/>
	</g>
</g>
</svg>
