<?xml version="1.0" encoding="utf-8"?>
<!-- Generator: Adobe Illustrator 19.0.0, SVG Export Plug-In . SVG Version: 6.00 Build 0)  -->
<svg version="1.1" id="Layer_1" xmlns="http://www.w3.org/2000/svg" xmlns:xlink="http://www.w3.org/1999/xlink" x="0px" y="0px"
	 viewBox="-467 269 24 24" style="enable-background:new -467 269 24 24;" xml:space="preserve">
<g>
	<g>
		<path d="M-461.5,280h-2c-0.3,0-0.5,0.2-0.5,0.5v5c0,0.3,0.2,0.5,0.5,0.5h2c0.3,0,0.5-0.2,0.5-0.5v-5
			C-461,280.2-461.2,280-461.5,280z M-462,285h-1v-4h1V285z M-443.5,278h-4.5v-8.5c0-0.3-0.2-0.5-0.5-0.5h-13
			c-0.3,0-0.5,0.2-0.5,0.5v8.5h-4.5c-0.3,0-0.5,0.2-0.5,0.5v14c0,0.3,0.2,0.5,0.5,0.5h10c0.3,0,0.5-0.2,0.5-0.5V289h2v3.5
			c0,0.3,0.2,0.5,0.5,0.5h10c0.3,0,0.5-0.2,0.5-0.5v-14C-443,278.2-443.2,278-443.5,278z M-444,292h-9v-3.5c0-0.3-0.2-0.5-0.5-0.5
			h-3c-0.3,0-0.5,0.2-0.5,0.5v3.5h-9v-13h4.5c0.3,0,0.5-0.2,0.5-0.5V270h12v8.5c0,0.3,0.2,0.5,0.5,0.5h4.5V292z M-451.5,271h-2
			c-0.3,0-0.5,0.2-0.5,0.5v5c0,0.3,0.2,0.5,0.5,0.5h2c0.3,0,0.5-0.2,0.5-0.5v-5C-451,271.2-451.2,271-451.5,271z M-452,276h-1v-4h1
			V276z M-452.4,279.5l-2.5-0.5c-0.1,0-0.1,0-0.2,0l-2.5,0.5c-0.2,0-0.4,0.3-0.4,0.5c0,2.4,0.3,5.3,2.9,6c0,0,0.1,0,0.1,0
			s0.1,0,0.1,0c2.5-0.6,2.9-3.5,2.9-6C-452,279.8-452.2,279.6-452.4,279.5z M-455,285c-1.3-0.4-1.9-1.8-2-4.6l2-0.4l2,0.4
			C-453.1,283.2-453.7,284.6-455,285z M-456,276.5v-5c0-0.3-0.2-0.5-0.5-0.5h-2c-0.3,0-0.5,0.2-0.5,0.5v5c0,0.3,0.2,0.5,0.5,0.5h2
			C-456.2,277-456,276.8-456,276.5z M-457,276h-1v-4h1V276z M-449,280.5v5c0,0.3,0.2,0.5,0.5,0.5h2c0.3,0,0.5-0.2,0.5-0.5v-5
			c0-0.3-0.2-0.5-0.5-0.5h-2C-448.8,280-449,280.2-449,280.5z M-448,281h1v4h-1V281z"/>
	</g>
</g>
</svg>
