<?xml version="1.0" encoding="utf-8"?>
<!-- Generator: Adobe Illustrator 19.0.0, SVG Export Plug-In . SVG Version: 6.00 Build 0)  -->
<svg version="1.1" id="Layer_1" xmlns="http://www.w3.org/2000/svg" xmlns:xlink="http://www.w3.org/1999/xlink" x="0px" y="0px"
	 viewBox="-467 269 24 24" style="enable-background:new -467 269 24 24;" xml:space="preserve">
<g>
	<g>
		<path d="M-444,275h-0.7l0.1-0.3c0.1-0.2,0.1-0.3,0-0.5s-0.3-0.2-0.4-0.2h-7.5v-2.5c0-1.4-1.1-2.5-2.5-2.5s-2.5,1.1-2.5,2.5v2.5
			h-7.5c-0.2,0-0.3,0.1-0.4,0.2c-0.1,0.1-0.1,0.3,0,0.5l0.1,0.3h-0.7c-0.3,0-0.5,0.2-0.5,0.5s0.2,0.5,0.5,0.5h1.2l0.9,1.7
			c0.1,0.2,0.3,0.3,0.4,0.3h4v12h-0.5c-0.3,0-0.5,0.2-0.5,0.5v2c0,0.3,0.2,0.5,0.5,0.5h10c0.3,0,0.5-0.2,0.5-0.5v-2
			c0-0.3-0.2-0.5-0.5-0.5h-0.5v-12h4c0.2,0,0.4-0.1,0.4-0.3l0.9-1.7h1.2c0.3,0,0.5-0.2,0.5-0.5S-443.7,275-444,275z M-450.5,292h-9
			v-1h9V292z M-453,289c-0.3,0-0.5,0.2-0.5,0.5v0.5h-1v-1.5c0-0.3-0.2-0.5-0.5-0.5s-0.5,0.2-0.5,0.5v1.5h-1v-2.5
			c0-0.3-0.2-0.5-0.5-0.5s-0.5,0.2-0.5,0.5v2.5h-1v-5.6l7,4.4v1.2h-1v-0.5C-452.5,289.2-452.7,289-453,289z M-446.8,277h-4.2
			c-0.3,0-0.5,0.2-0.5,0.5v10.1l-7-4.4v-5.7c0-0.3-0.2-0.5-0.5-0.5h-4.2l-1-2h7.2c0.3,0,0.5-0.2,0.5-0.5v-3c0-0.8,0.7-1.5,1.5-1.5
			s1.5,0.7,1.5,1.5v3c0,0.3,0.2,0.5,0.5,0.5h7.2L-446.8,277z"/>
	</g>
</g>
</svg>
