<?xml version="1.0" encoding="utf-8"?>
<!-- Generator: Adobe Illustrator 19.0.0, SVG Export Plug-In . SVG Version: 6.00 Build 0)  -->
<svg version="1.1" id="Layer_1" xmlns="http://www.w3.org/2000/svg" xmlns:xlink="http://www.w3.org/1999/xlink" x="0px" y="0px"
	 viewBox="-467 269 24 24" style="enable-background:new -467 269 24 24;" xml:space="preserve">
<g>
	<g>
		<path d="M-446,283h-2.5v-2.5c0-3.4-2.6-6.2-6-6.5v-2.1c0.6-0.2,1-0.8,1-1.4c0-0.8-0.7-1.5-1.5-1.5s-1.5,0.7-1.5,1.5
			c0,0.7,0.4,1.2,1,1.4v2.1c-3.4,0.3-6,3.1-6,6.5v2.5h-2.5c-0.3,0-0.5,0.2-0.5,0.5v9c0,0.3,0.2,0.5,0.5,0.5h7c0.3,0,0.5-0.2,0.5-0.5
			v-3c0-0.8,0.7-1.5,1.5-1.5s1.5,0.7,1.5,1.5v3c0,0.3,0.2,0.5,0.5,0.5h7c0.3,0,0.5-0.2,0.5-0.5v-9C-445.5,283.2-445.7,283-446,283z
			 M-455,270c0.3,0,0.5,0.2,0.5,0.5s-0.2,0.5-0.5,0.5s-0.5-0.2-0.5-0.5S-455.3,270-455,270z M-455,275c2.9,0,5.2,2.2,5.5,5h-10.9
			C-460.2,277.2-457.9,275-455,275z M-460.5,281h11v2h-11V281z M-446.5,292h-6v-2.5c0-1.4-1.1-2.5-2.5-2.5s-2.5,1.1-2.5,2.5v2.5h-6
			v-8h17V292z"/>
	</g>
</g>
</svg>
