<?xml version="1.0" encoding="iso-8859-1"?>
<!-- Generator: Adobe Illustrator 19.0.0, SVG Export Plug-In . SVG Version: 6.00 Build 0)  -->
<svg version="1.1" id="Layer_1" xmlns="http://www.w3.org/2000/svg" xmlns:xlink="http://www.w3.org/1999/xlink" x="0px" y="0px"
	 viewBox="0 0 24 24" style="enable-background:new 0 0 24 24;" xml:space="preserve">
<g>
	<g>
		<path d="M22.975,5.267l-5.121-5.121c-0.195-0.195-0.512-0.195-0.707,0l-2,2c-0.195,0.195-0.195,0.512,0,0.707s0.512,0.195,0.707,0
			L17.5,1.207l2.293,2.293L0.147,23.147c-0.195,0.195-0.195,0.512,0,0.707C0.245,23.951,0.373,24,0.501,24s0.256-0.049,0.353-0.146
			L20.5,4.208l1.768,1.767C22.74,6.447,23,7.075,23,7.743c0,0.668-0.259,1.296-0.732,1.768c-0.195,0.195-0.195,0.512,0,0.707
			c0.098,0.097,0.226,0.146,0.354,0.146s0.256-0.049,0.353-0.147C23.636,9.556,24,8.677,24,7.742S23.636,5.928,22.975,5.267z"/>
	</g>
</g>
</svg>
