<?xml version="1.0" encoding="iso-8859-1"?>
<!-- Generator: Adobe Illustrator 19.0.0, SVG Export Plug-In . SVG Version: 6.00 Build 0)  -->
<svg version="1.1" id="Layer_1" xmlns="http://www.w3.org/2000/svg" xmlns:xlink="http://www.w3.org/1999/xlink" x="0px" y="0px"
	 viewBox="0 0 24 24" style="enable-background:new 0 0 24 24;" xml:space="preserve">
<g>
	<g>
		<path d="M17,1.5c-0.276,0-0.5,0.224-0.5,0.5S16.276,2.5,16,2.5S15.5,2.276,15.5,2S15.276,1.5,15,1.5h-0.5V1
			c0-0.276-0.224-0.5-0.5-0.5h-4C9.724,0.5,9.5,0.724,9.5,1v0.5H9C8.724,1.5,8.5,1.724,8.5,2S8.276,2.5,8,2.5S7.5,2.276,7.5,2
			S7.276,1.5,7,1.5C6.173,1.5,5.5,2.173,5.5,3v18c0,0.827,0.673,1.5,1.5,1.5c0.276,0,0.5-0.224,0.5-0.5s0.224-0.5,0.5-0.5
			s0.5,0.224,0.5,0.5s0.224,0.5,0.5,0.5h0.5V23c0,0.276,0.224,0.5,0.5,0.5h4c0.276,0,0.5-0.224,0.5-0.5v-0.5H15
			c0.276,0,0.5-0.224,0.5-0.5s0.224-0.5,0.5-0.5s0.5,0.224,0.5,0.5s0.224,0.5,0.5,0.5c0.827,0,1.5-0.673,1.5-1.5V3
			C18.5,2.173,17.827,1.5,17,1.5z M17.5,21c0,0.138-0.056,0.263-0.146,0.354C17.111,20.849,16.596,20.5,16,20.5
			c-0.652,0-1.208,0.418-1.415,1H14c-0.276,0-0.5,0.224-0.5,0.5v0.5h-3V22c0-0.276-0.224-0.5-0.5-0.5H9.415
			c-0.207-0.582-0.763-1-1.415-1c-0.596,0-1.112,0.35-1.354,0.854C6.556,21.263,6.5,21.138,6.5,21V3
			c0-0.138,0.056-0.263,0.146-0.354C6.889,3.151,7.404,3.5,8,3.5c0.652,0,1.208-0.418,1.415-1H10c0.276,0,0.5-0.224,0.5-0.5V1.5h3V2
			c0,0.276,0.224,0.5,0.5,0.5h0.585c0.207,0.582,0.763,1,1.415,1c0.596,0,1.112-0.35,1.354-0.854C17.444,2.737,17.5,2.862,17.5,3V21
			z M13.548,4.713C13.628,4.883,13.8,5,14,5c0.276,0,0.5-0.224,0.5-0.5c0-0.87-1.566-1-2.5-1c-0.934,0-2.5,0.13-2.5,1
			C9.5,4.776,9.724,5,10,5c0.2,0,0.372-0.118,0.452-0.287c0.146-0.067,0.516-0.157,1.048-0.194v2.172L9.776,7.553
			C9.607,7.638,9.5,7.811,9.5,8s0.107,0.362,0.276,0.447L11.5,9.309v1.283c-0.581,0.207-1,0.757-1,1.408
			c0,0.651,0.419,1.201,1,1.408v1.283l-1.724,0.862C9.607,15.638,9.5,15.811,9.5,16s0.107,0.362,0.276,0.447l1.724,0.862v2.172
			c-0.532-0.037-0.902-0.127-1.048-0.194C10.372,19.117,10.2,19,10,19c-0.276,0-0.5,0.224-0.5,0.5c0,0.87,1.566,1,2.5,1
			c0.934,0,2.5-0.13,2.5-1c0-0.276-0.224-0.5-0.5-0.5c-0.2,0-0.372,0.118-0.452,0.287c-0.146,0.067-0.516,0.157-1.048,0.194v-2.172
			l1.723-0.862c0.169-0.085,0.276-0.258,0.276-0.447s-0.107-0.362-0.276-0.447L12.5,14.691v-1.284c0.581-0.207,1-0.757,1-1.408
			c0-0.651-0.419-1.201-1-1.408V9.309l1.723-0.862C14.392,8.362,14.499,8.189,14.499,8s-0.107-0.362-0.276-0.447L12.5,6.691V4.519
			C13.032,4.556,13.402,4.646,13.548,4.713z M12.882,16L12,16.441L11.118,16L12,15.559L12.882,16z M12,12.5
			c-0.276,0-0.5-0.224-0.5-0.5s0.224-0.5,0.5-0.5s0.5,0.224,0.5,0.5S12.276,12.5,12,12.5z M12.882,8L12,8.441L11.118,8L12,7.559
			L12.882,8z"/>
	</g>
</g>
</svg>
