<?xml version="1.0" encoding="iso-8859-1"?>
<!-- Generator: Adobe Illustrator 19.0.0, SVG Export Plug-In . SVG Version: 6.00 Build 0)  -->
<svg version="1.1" id="Layer_1" xmlns="http://www.w3.org/2000/svg" xmlns:xlink="http://www.w3.org/1999/xlink" x="0px" y="0px"
	 viewBox="0 0 24 24" style="enable-background:new 0 0 24 24;" xml:space="preserve">
<g>
	<g>
		<path d="M13.498,14.445c-0.115-1.036,0.068-2.059,0.495-3.828c0.036-0.149,0.002-0.306-0.093-0.426
			C13.805,10.07,13.66,10,13.507,10h-3.013c-0.153,0-0.298,0.07-0.393,0.191c-0.095,0.12-0.129,0.277-0.093,0.426
			c0.427,1.769,0.61,2.793,0.495,3.828c-0.069,0.626-0.272,1.408-0.468,2.163C9.772,17.621,9.5,18.668,9.5,19.5
			c0,1.74,0.679,4.5,2.5,4.5c1.781,0,2.5-3.176,2.501-4.5c0-0.832-0.272-1.879-0.535-2.892
			C13.77,15.853,13.567,15.071,13.498,14.445z M12,23c-0.929,0-1.5-2.039-1.5-3.5c0-0.704,0.255-1.689,0.502-2.641
			c0.205-0.79,0.417-1.606,0.495-2.304c0.116-1.048-0.023-2.034-0.372-3.555h1.75c-0.35,1.52-0.488,2.507-0.372,3.555
			c0.078,0.698,0.29,1.514,0.495,2.304c0.247,0.952,0.502,1.937,0.502,2.641C13.5,20.946,12.724,23,12,23z M17,4H7
			C6.724,4,6.5,4.224,6.5,4.5S6.724,5,7,5h10c0.276,0,0.5-0.224,0.5-0.5S17.276,4,17,4z M17,2H7C6.724,2,6.5,2.224,6.5,2.5
			S6.724,3,7,3h10c0.276,0,0.5-0.224,0.5-0.5S17.276,2,17,2z M18,0H6C5.173,0,4.5,0.673,4.5,1.5v4C4.5,6.327,5.173,7,6,7h2.5v0.5
			C8.5,8.327,9.173,9,10,9h4c0.827,0,1.5-0.673,1.5-1.5V7H18c0.827,0,1.5-0.673,1.5-1.5v-4C19.5,0.673,18.827,0,18,0z M14.5,7.5
			C14.5,7.776,14.276,8,14,8h-4C9.724,8,9.5,7.776,9.5,7.5V7h5V7.5z M18.5,5.5C18.5,5.776,18.276,6,18,6H6
			C5.724,6,5.5,5.776,5.5,5.5v-4C5.5,1.224,5.724,1,6,1h12c0.276,0,0.5,0.224,0.5,0.5V5.5z"/>
	</g>
</g>
</svg>
