<?xml version="1.0" encoding="iso-8859-1"?>
<!-- Generator: Adobe Illustrator 19.0.0, SVG Export Plug-In . SVG Version: 6.00 Build 0)  -->
<svg version="1.1" id="Layer_1" xmlns="http://www.w3.org/2000/svg" xmlns:xlink="http://www.w3.org/1999/xlink" x="0px" y="0px"
	 viewBox="0 0 24 24" style="enable-background:new 0 0 24 24;" xml:space="preserve">
<g>
	<g>
		<path d="M10,3c0.077,0,0.153-0.018,0.223-0.053L12,2.059l1.776,0.888C13.847,2.982,13.923,3,14,3c0.091,0,0.183-0.025,0.263-0.075
			C14.41,2.834,14.5,2.673,14.5,2.5v-2c0-0.173-0.09-0.334-0.238-0.425c-0.147-0.092-0.332-0.099-0.486-0.022L12,0.941l-1.776-0.888
			c-0.154-0.077-0.339-0.069-0.486,0.022C9.59,0.166,9.5,0.327,9.5,0.5v2c0,0.173,0.09,0.334,0.237,0.425C9.817,2.975,9.909,3,10,3z
			 M13,17c-0.276,0-0.5,0.224-0.5,0.5c0,0.276,0.224,0.5,0.5,0.5c0.276,0,0.5-0.224,0.5-0.5C13.5,17.224,13.276,17,13,17z
			 M9.158,19.026l-3-1c-0.263-0.089-0.545,0.055-0.632,0.316c-0.087,0.262,0.054,0.545,0.316,0.632l3,1C8.895,19.992,8.948,20,9,20
			c0.209,0,0.404-0.132,0.474-0.342C9.561,19.396,9.42,19.113,9.158,19.026z M13,13c-0.276,0-0.5,0.224-0.5,0.5
			c0,0.276,0.224,0.5,0.5,0.5c0.276,0,0.5-0.224,0.5-0.5C13.5,13.224,13.276,13,13,13z M20.482,21.369
			c-0.273-1.002-0.982-3.83-0.982-4.869c0-0.704,0.2-1.685,0.432-2.821c0.186-0.916,0.398-1.954,0.563-3.109
			c0.024-0.163-0.035-0.328-0.157-0.439c-2.502-2.293-1.849-7.514-1.842-7.566c0.019-0.143-0.025-0.287-0.12-0.395
			C18.281,2.062,18.144,2,18,2h-2c-0.276,0-0.5,0.224-0.5,0.5v1c0,4.255-2.091,6.186-3.464,6.995
			c-0.504-0.141-3.537-1.227-3.537-6.994v-1c0-0.276-0.224-0.5-0.5-0.5h-2c-0.144,0-0.281,0.062-0.376,0.17
			C5.527,2.28,5.484,2.424,5.503,2.567c0.007,0.052,0.666,5.268-1.842,7.565c-0.121,0.111-0.18,0.275-0.157,0.439
			c0.165,1.155,0.376,2.193,0.563,3.109c0.232,1.135,0.432,2.116,0.432,2.82c0,1.039-0.709,3.867-0.982,4.869
			c-0.068,0.251,0.067,0.512,0.312,0.601l5.5,2C9.385,23.99,9.443,24,9.5,24c0.149,0,0.293-0.066,0.391-0.187l2-2.5
			c0.005-0.007,0.007-0.016,0.012-0.023l2.221,2.539C14.221,23.94,14.358,24,14.5,24c0.057,0,0.115-0.01,0.17-0.03l5.5-2
			C20.415,21.881,20.55,21.62,20.482,21.369z M11.11,20.688l-1.776,2.22l-4.733-1.721C4.87,20.152,5.5,17.613,5.5,16.5
			c0-0.805-0.2-1.783-0.452-3.02c-0.171-0.835-0.362-1.773-0.517-2.799C6.718,8.454,6.658,4.478,6.55,3H7.5v0.501
			c0,4.843,2.01,6.789,3.315,7.542C10.629,11.119,10.5,11.295,10.5,11.5v8c0,0.121,0.044,0.238,0.124,0.329l0.64,0.732
			C11.207,20.592,11.154,20.634,11.11,20.688z M19.4,21.186l-4.749,1.727L11.5,19.312v-7.458c1.219-0.483,5-2.458,5-8.354V3h0.95
			c-0.107,1.477-0.168,5.454,2.019,7.681c-0.156,1.027-0.347,1.964-0.517,2.799c-0.253,1.237-0.452,2.215-0.452,3.02
			C18.5,17.613,19.13,20.152,19.4,21.186z M17.842,18.026l-3,1c-0.262,0.087-0.403,0.37-0.316,0.632C14.596,19.868,14.791,20,15,20
			c0.052,0,0.105-0.008,0.158-0.026l3-1c0.262-0.087,0.403-0.37,0.316-0.632C18.387,18.081,18.106,17.937,17.842,18.026z"/>
	</g>
</g>
</svg>
