<?xml version="1.0" encoding="iso-8859-1"?>
<!-- Generator: Adobe Illustrator 19.0.0, SVG Export Plug-In . SVG Version: 6.00 Build 0)  -->
<svg version="1.1" id="Layer_1" xmlns="http://www.w3.org/2000/svg" xmlns:xlink="http://www.w3.org/1999/xlink" x="0px" y="0px"
	 viewBox="0 0 24 24" style="enable-background:new 0 0 24 24;" xml:space="preserve">
<g>
	<g>
		<path d="M13,0.293L11.293,2H13V0.293z M3,9.972c0-0.078-0.019-0.154-0.053-0.224L2.264,8.382C2.091,8.037,2,7.65,2,7.264V4.5
			C2,4.224,1.776,4,1.5,4h-1C0.224,4,0,4.224,0,4.5v18C0,22.776,0.224,23,0.5,23h1C1.776,23,2,22.776,2,22.5v-2.764
			c0-0.386,0.091-0.772,0.264-1.118l0.684-1.367C2.981,17.182,3,17.105,3,17.028V9.972z M23.5,4H21V0.5C21,0.224,20.776,0,20.5,0H14
			v2.5C14,2.776,13.776,3,13.5,3H11v1h-0.5C10.224,4,10,4.224,10,4.5v2.764c0,0.386-0.091,0.772-0.264,1.118L9.053,9.749
			C9.019,9.818,9,9.895,9,9.972v7.056c0,0.078,0.019,0.154,0.053,0.224l0.684,1.367C9.909,18.963,10,19.35,10,19.736V22.5
			c0,0.276,0.224,0.5,0.5,0.5h13c0.276,0,0.5-0.224,0.5-0.5v-18C24,4.224,23.776,4,23.5,4z M12.5,20h-1c-0.276,0-0.5-0.224-0.5-0.5
			s0.224-0.5,0.5-0.5h1c0.276,0,0.5,0.224,0.5,0.5S12.776,20,12.5,20z M12.5,17h-1c-0.276,0-0.5-0.224-0.5-0.5s0.224-0.5,0.5-0.5h1
			c0.276,0,0.5,0.224,0.5,0.5S12.776,17,12.5,17z M12.5,14h-1c-0.276,0-0.5-0.224-0.5-0.5s0.224-0.5,0.5-0.5h1
			c0.276,0,0.5,0.224,0.5,0.5S12.776,14,12.5,14z M16.5,20h-1c-0.276,0-0.5-0.224-0.5-0.5s0.224-0.5,0.5-0.5h1
			c0.276,0,0.5,0.224,0.5,0.5S16.776,20,16.5,20z M16.5,17h-1c-0.276,0-0.5-0.224-0.5-0.5s0.224-0.5,0.5-0.5h1
			c0.276,0,0.5,0.224,0.5,0.5S16.776,17,16.5,17z M16.5,14h-1c-0.276,0-0.5-0.224-0.5-0.5s0.224-0.5,0.5-0.5h1
			c0.276,0,0.5,0.224,0.5,0.5S16.776,14,16.5,14z M20.5,20h-1c-0.276,0-0.5-0.224-0.5-0.5s0.224-0.5,0.5-0.5h1
			c0.276,0,0.5,0.224,0.5,0.5S20.776,20,20.5,20z M20.5,17h-1c-0.276,0-0.5-0.224-0.5-0.5s0.224-0.5,0.5-0.5h1
			c0.276,0,0.5,0.224,0.5,0.5S20.776,17,20.5,17z M20.5,14h-1c-0.276,0-0.5-0.224-0.5-0.5s0.224-0.5,0.5-0.5h1
			c0.276,0,0.5,0.224,0.5,0.5S20.776,14,20.5,14z M21,10.5c0,0.276-0.224,0.5-0.5,0.5h-9c-0.276,0-0.5-0.224-0.5-0.5v-3
			C11,7.224,11.224,7,11.5,7h9C20.776,7,21,7.224,21,7.5V10.5z M8.053,17.488C8.019,17.418,8,17.341,8,17.264V9.736
			c0-0.077,0.019-0.154,0.053-0.223l0.789-1.578C8.945,7.728,9,7.496,9,7.264V4.5c0-0.651-0.419-1.201-1-1.408V0.5
			C8,0.224,7.776,0,7.5,0S7,0.224,7,0.5V3H4.5C3.673,3,3,3.673,3,4.5v2.764c0,0.231,0.055,0.463,0.158,0.67l0.789,1.578
			C3.981,9.582,4,9.659,4,9.736v7.528c0,0.077-0.019,0.154-0.053,0.223l-0.789,1.578C3.055,19.272,3,19.504,3,19.736V22.5
			C3,23.327,3.673,24,4.5,24h3C8.327,24,9,23.327,9,22.5v-2.764c0-0.231-0.055-0.463-0.158-0.67L8.053,17.488z"/>
	</g>
</g>
</svg>
