<?xml version="1.0" encoding="utf-8"?>
<!-- Generator: Adobe Illustrator 19.0.0, SVG Export Plug-In . SVG Version: 6.00 Build 0)  -->
<svg version="1.1" id="Layer_1" xmlns="http://www.w3.org/2000/svg" xmlns:xlink="http://www.w3.org/1999/xlink" x="0px" y="0px"
	 viewBox="0 0 30 30" style="enable-background:new 0 0 30 30;" xml:space="preserve">
<g>
	<g>
		<path d="M26.5,26.5h-23c-1.7,0-3-1.3-3-3v-8c0-1.7,1.3-3,3-3h23c1.7,0,3,1.3,3,3v8C29.5,25.2,28.2,26.5,26.5,26.5z M3.5,13.5
			c-1.1,0-2,0.9-2,2v8c0,1.1,0.9,2,2,2h23c1.1,0,2-0.9,2-2v-8c0-1.1-0.9-2-2-2H3.5z"/>
	</g>
	<g>
		<path d="M5.5,13.5c-0.1,0-0.3,0-0.4-0.1c-0.2-0.2-0.2-0.5,0-0.7l6.5-6.5c0.2-0.2,0.5-0.2,0.7,0s0.2,0.5,0,0.7l-6.5,6.5
			C5.8,13.5,5.6,13.5,5.5,13.5z"/>
	</g>
	<g>
		<path d="M24,13.5c-0.1,0-0.2,0-0.3-0.1l-7-6.5c-0.2-0.2-0.2-0.5,0-0.7c0.2-0.2,0.5-0.2,0.7,0l7,6.5c0.2,0.2,0.2,0.5,0,0.7
			C24.3,13.4,24.1,13.5,24,13.5z"/>
	</g>
	<g>
		<path d="M14.5,9.5c-1.7,0-3-1.3-3-3s1.3-3,3-3s3,1.3,3,3S16.2,9.5,14.5,9.5z M14.5,4.5c-1.1,0-2,0.9-2,2s0.9,2,2,2s2-0.9,2-2
			S15.6,4.5,14.5,4.5z"/>
	</g>
	<g>
		<g>
			<path d="M24,22.5h-3c-0.3,0-0.5-0.2-0.5-0.5v-5c0-0.3,0.2-0.5,0.5-0.5h3c0.3,0,0.5,0.2,0.5,0.5s-0.2,0.5-0.5,0.5h-2.5v4H24
				c0.3,0,0.5,0.2,0.5,0.5S24.3,22.5,24,22.5z"/>
		</g>
		<g>
			<path d="M24,20h-3c-0.3,0-0.5-0.2-0.5-0.5S20.7,19,21,19h3c0.3,0,0.5,0.2,0.5,0.5S24.3,20,24,20z"/>
		</g>
	</g>
	<g>
		<path d="M19,22.5h-3c-0.3,0-0.5-0.2-0.5-0.5v-5c0-0.3,0.2-0.5,0.5-0.5s0.5,0.2,0.5,0.5v4.5H19c0.3,0,0.5,0.2,0.5,0.5
			S19.3,22.5,19,22.5z"/>
	</g>
	<g>
		<path d="M13.5,22.5c-0.2,0-0.4-0.2-0.5-0.4l-0.8-3.1l-0.8,3.1c-0.1,0.3-0.3,0.4-0.6,0.4c-0.3-0.1-0.4-0.3-0.4-0.6l1.3-5
			c0.1-0.4,0.9-0.4,1,0l1.3,5c0.1,0.3-0.1,0.5-0.4,0.6C13.6,22.5,13.5,22.5,13.5,22.5z"/>
	</g>
	<g>
		<path d="M12.9,21.5h-1.3c-0.3,0-0.5-0.2-0.5-0.5s0.2-0.5,0.5-0.5h1.3c0.3,0,0.5,0.2,0.5,0.5S13.2,21.5,12.9,21.5z"/>
	</g>
	<g>
		<path d="M7.5,22.5c-1.1,0-1.9-0.7-2-1.6c0-0.3,0.2-0.5,0.5-0.5c0.3,0,0.5,0.2,0.5,0.5c0,0.4,0.5,0.7,1,0.7c0.5,0,1-0.3,1-0.8
			c0-0.4-0.3-0.6-1-0.7l-0.1,0c-1.5-0.3-1.8-1.1-1.8-1.7c0-1,0.9-1.8,2-1.8c1.1,0,1.9,0.7,2,1.6c0,0.3-0.2,0.5-0.5,0.5
			c-0.3,0-0.5-0.2-0.5-0.5c0-0.4-0.5-0.7-1-0.7c-0.5,0-1,0.3-1,0.8c0,0.4,0.3,0.6,1,0.7l0,0.5L7.7,19c1.5,0.3,1.8,1.1,1.8,1.7
			C9.5,21.7,8.6,22.5,7.5,22.5z"/>
	</g>
</g>
</svg>
