<?xml version="1.0" encoding="utf-8"?>
<!-- Generator: Adobe Illustrator 19.0.0, SVG Export Plug-In . SVG Version: 6.00 Build 0)  -->
<svg version="1.1" id="Layer_1" xmlns="http://www.w3.org/2000/svg" xmlns:xlink="http://www.w3.org/1999/xlink" x="0px" y="0px"
	 viewBox="0 0 30 30" style="enable-background:new 0 0 30 30;" xml:space="preserve">
<g>
	<g>
		<path d="M13.5,23.5c-2.8,0-5-2.2-5-5s2.2-5,5-5s5,2.2,5,5S16.3,23.5,13.5,23.5z M13.5,14.5c-2.2,0-4,1.8-4,4s1.8,4,4,4s4-1.8,4-4
			S15.7,14.5,13.5,14.5z"/>
	</g>
	<g>
		<path d="M21,25.5c-0.1,0-0.2,0-0.3-0.1l-4-3.5c-0.2-0.2-0.2-0.5,0-0.7c0.2-0.2,0.5-0.2,0.7,0l4,3.5c0.2,0.2,0.2,0.5,0,0.7
			C21.3,25.4,21.1,25.5,21,25.5z"/>
	</g>
	<g>
		<path d="M23,12.5c-0.3,0-0.5-0.2-0.5-0.5V4.7c0-1.7-1.6-3.2-3.5-3.2h-8c-1.9,0-3.5,1.4-3.5,3.2V12c0,0.3-0.2,0.5-0.5,0.5
			S6.5,12.3,6.5,12V4.7c0-2.3,2-4.2,4.5-4.2h8c2.5,0,4.5,1.9,4.5,4.2V12C23.5,12.3,23.3,12.5,23,12.5z"/>
	</g>
	<g>
		<path d="M21,9.5H9C8.7,9.5,8.5,9.3,8.5,9S8.7,8.5,9,8.5h12c0.3,0,0.5,0.2,0.5,0.5S21.3,9.5,21,9.5z"/>
	</g>
	<g>
		<path d="M29,29.5H1c-0.3,0-0.5-0.2-0.5-0.5V9c0-0.3,0.2-0.5,0.5-0.5h4c0.3,0,0.5,0.2,0.5,0.5S5.3,9.5,5,9.5H1.5v19h27v-19H25
			c-0.3,0-0.5-0.2-0.5-0.5s0.2-0.5,0.5-0.5h4c0.3,0,0.5,0.2,0.5,0.5v20C29.5,29.3,29.3,29.5,29,29.5z"/>
	</g>
</g>
</svg>
