<?xml version="1.0" encoding="utf-8"?>
<!-- Generator: Adobe Illustrator 19.0.0, SVG Export Plug-In . SVG Version: 6.00 Build 0)  -->
<svg version="1.1" id="Layer_1" xmlns="http://www.w3.org/2000/svg" xmlns:xlink="http://www.w3.org/1999/xlink" x="0px" y="0px"
	 viewBox="0 0 30 30" style="enable-background:new 0 0 30 30;" xml:space="preserve">
<g>
	<g>
		<g>
			<path d="M17,1h-2c-0.3,0-0.5-0.2-0.5-0.5S14.7,0,15,0h2c0.3,0,0.5,0.2,0.5,0.5S17.3,1,17,1z"/>
		</g>
		<g>
			<path d="M11,1H9C8.7,1,8.5,0.8,8.5,0.5S8.7,0,9,0h2c0.3,0,0.5,0.2,0.5,0.5S11.3,1,11,1z"/>
		</g>
		<g>
			<path d="M5,1H3C2.7,1,2.5,0.8,2.5,0.5S2.7,0,3,0h2c0.3,0,0.5,0.2,0.5,0.5S5.3,1,5,1z"/>
		</g>
	</g>
	<g>
		<path d="M21.4,27h-3.3c-1.3,0-2.6-0.5-3.4-1.4L9,19.9c-0.6-0.6-0.7-1.6-0.1-2.3c0.9-1.2,2.7-1.4,4-0.6l1.6,0.7V10c0-1,1-2,2-2
			s2,1,2,2v2.3c0.3-0.2,0.7-0.3,1-0.3c0.8,0,1.6,0.6,1.9,1.4c0.3-0.2,0.7-0.4,1.1-0.4c0.8,0,1.6,0.6,1.9,1.4
			c0.3-0.2,0.7-0.4,1.1-0.4c1,0,2,1,2,2v5.4C27.5,24.5,24.8,27,21.4,27z M11.2,17.5c-0.6,0-1.2,0.3-1.6,0.7c-0.2,0.3-0.2,0.7,0.1,1
			l5.6,5.7c0.7,0.7,1.7,1.1,2.7,1.1h3.3c2.8,0,5.1-2.1,5.1-4.6V16c0-0.4-0.5-1-1-1c-0.5,0-1,0.4-1,0.9v1.6c0,0.3-0.2,0.5-0.5,0.5
			s-0.5-0.2-0.5-0.5V15c0-0.4-0.5-1-1-1s-1,0.6-1,1v2.5c0,0.3-0.2,0.5-0.5,0.5s-0.5-0.2-0.5-0.5V14c0-0.4-0.5-1-1-1s-1,0.6-1,1v3.5
			c0,0.3-0.2,0.5-0.5,0.5s-0.5-0.2-0.5-0.5V10c0-0.4-0.5-1-1-1s-1,0.6-1,1v8.5c0,0.2-0.1,0.3-0.2,0.4c-0.1,0.1-0.3,0.1-0.5,0
			l-2.4-1.1C12,17.6,11.6,17.5,11.2,17.5z"/>
	</g>
	<g>
		<path d="M25,30c-0.3,0-0.5-0.2-0.5-0.5V27h-9v2.5c0,0.3-0.2,0.5-0.5,0.5s-0.5-0.2-0.5-0.5v-3c0-0.3,0.2-0.5,0.5-0.5h10
			c0.3,0,0.5,0.2,0.5,0.5v3C25.5,29.8,25.3,30,25,30z"/>
	</g>
	<g>
		<g>
			<path d="M17,6h-2c-0.3,0-0.5-0.2-0.5-0.5S14.7,5,15,5h2c0.3,0,0.5,0.2,0.5,0.5S17.3,6,17,6z"/>
		</g>
		<g>
			<path d="M11,6H9C8.7,6,8.5,5.8,8.5,5.5S8.7,5,9,5h2c0.3,0,0.5,0.2,0.5,0.5S11.3,6,11,6z"/>
		</g>
		<g>
			<path d="M5,6H3C2.7,6,2.5,5.8,2.5,5.5S2.7,5,3,5h2c0.3,0,0.5,0.2,0.5,0.5S5.3,6,5,6z"/>
		</g>
	</g>
	<g>
		<path d="M11,11H9c-0.3,0-0.5-0.2-0.5-0.5S8.7,10,9,10h2c0.3,0,0.5,0.2,0.5,0.5S11.3,11,11,11z"/>
	</g>
	<g>
		<path d="M5,11H3c-0.3,0-0.5-0.2-0.5-0.5S2.7,10,3,10h2c0.3,0,0.5,0.2,0.5,0.5S5.3,11,5,11z"/>
	</g>
</g>
</svg>
