<?xml version="1.0" encoding="utf-8"?>
<!-- Generator: Adobe Illustrator 19.0.0, SVG Export Plug-In . SVG Version: 6.00 Build 0)  -->
<svg version="1.1" id="Layer_1" xmlns="http://www.w3.org/2000/svg" xmlns:xlink="http://www.w3.org/1999/xlink" x="0px" y="0px"
	 viewBox="0 0 30 30" style="enable-background:new 0 0 30 30;" xml:space="preserve">
<g>
	<g>
		<path d="M15,6.5c-0.1,0-0.3,0-0.4-0.1l-1.5-1.5C13.1,4.8,13,4.6,13,4.5v-2C13,2.2,13.2,2,13.5,2S14,2.2,14,2.5v1.8l1.4,1.4
			c0.2,0.2,0.2,0.5,0,0.7C15.3,6.5,15.1,6.5,15,6.5z"/>
	</g>
	<g>
		<path d="M20.3,30H8.7c-1,0-1.8-0.8-1.8-1.8c0-1.3,1-2.4,2.3-2.6l5.1-0.8l-8.7-8.7c-0.9-0.9-0.9-2.3,0-3.2C6.5,12,8,12,8.9,12.9
			l2.4,2.4c0.1-0.4,0.3-0.8,0.6-1.2c0.9-0.9,2.2-0.9,3.1-0.1c0.1-0.4,0.3-0.8,0.6-1.2c0.9-0.9,2.2-0.9,3.1-0.1
			c0.1-0.4,0.3-0.8,0.6-1.2c0.9-0.9,2.3-0.9,3.2,0l4.7,5.2c1.1,1.2,1.8,2.9,1.8,4.5c0,1.8-0.7,3.5-2,4.8l-2,2
			C23.8,29.3,22.1,30,20.3,30z M7.3,13.2c-0.3,0-0.7,0.1-0.9,0.4c-0.5,0.5-0.5,1.3,0,1.8l9.4,9.4c0.1,0.1,0.2,0.3,0.1,0.5
			c-0.1,0.2-0.2,0.3-0.4,0.3l-6,1C8.6,26.7,8,27.4,8,28.3C8,28.7,8.3,29,8.7,29h11.6c1.5,0,3-0.6,4.1-1.7l2-2
			c1.1-1.1,1.7-2.5,1.7-4.1c0-1.4-0.5-2.8-1.5-3.9l-4.7-5.1c-0.5-0.5-1.3-0.5-1.8,0c-0.5,0.5-0.5,1.3,0,1.8l0.1,0.1
			c0.2,0.2,0.2,0.5,0,0.7c-0.2,0.2-0.5,0.2-0.7,0l0,0c0,0,0,0,0,0c0,0,0,0,0,0c0,0,0,0,0,0l0,0l0,0l0,0l0,0c0,0,0,0,0,0c0,0,0,0,0,0
			c0,0,0,0,0,0l-1.3-1.3c-0.5-0.5-1.3-0.5-1.8,0c-0.5,0.5-0.5,1.3,0,1.8l1.3,1.3c0.1,0.1,0.1,0.2,0.1,0.4s0,0.3-0.1,0.4
			c-0.2,0.2-0.5,0.2-0.7,0l-2.6-2.6c-0.5-0.5-1.3-0.5-1.8,0c-0.5,0.5-0.5,1.3,0,1.8l2.6,2.6c0.1,0.1,0.1,0.2,0.1,0.4s0,0.3-0.1,0.4
			c-0.2,0.2-0.5,0.2-0.7,0l-6.3-6.3C7.9,13.4,7.6,13.2,7.3,13.2z"/>
	</g>
	<g>
		<path d="M4.4,18.6c-0.1,0-0.1,0-0.2,0c-2-0.9-3.2-2.9-3.2-5C1,10.5,3.5,8,6.5,8c2.2,0,4.1,1.3,5,3.2c0.1,0.3,0,0.5-0.3,0.7
			c-0.3,0.1-0.5,0-0.7-0.3C9.9,10,8.2,9,6.5,9C4,9,2,11,2,13.5c0,1.8,1,3.4,2.7,4.1C4.9,17.7,5,18,4.9,18.3
			C4.8,18.4,4.6,18.6,4.4,18.6z"/>
	</g>
	<g>
		<path d="M13.5,9C11,9,9,7,9,4.5S11,0,13.5,0S18,2,18,4.5S16,9,13.5,9z M13.5,1C11.6,1,10,2.6,10,4.5S11.6,8,13.5,8S17,6.4,17,4.5
			S15.4,1,13.5,1z"/>
	</g>
</g>
</svg>
