<?xml version="1.0" encoding="utf-8"?>
<!-- Generator: Adobe Illustrator 19.0.0, SVG Export Plug-In . SVG Version: 6.00 Build 0)  -->
<svg version="1.1" id="Layer_1" xmlns="http://www.w3.org/2000/svg" xmlns:xlink="http://www.w3.org/1999/xlink" x="0px" y="0px"
	 viewBox="0 0 30 30" style="enable-background:new 0 0 30 30;" xml:space="preserve">
<g>
	<g>
		<path d="M17.1,30h-2.8c-1.3,0-2.5-0.3-3.6-0.9c-2.4-1.2-4.2-3.5-4.6-5.9l-0.5-2.9c0-0.2-0.1-0.4-0.1-0.6c0-1.6,1.1-2.9,2.6-3.2
			l8.8-1.5c0.2,0,0.5,0.1,0.5,0.3c0.4,1,0.4,2.1,0,3c-0.4,0.8-1.1,1.5-2,1.8l-2.7,1c-0.1,0-0.2,0.1-0.3,0.3c-0.1,0.1,0,0.3,0,0.4
			l0.8,1.5c0.1,0.2,0,0.5-0.2,0.7c-0.2,0.1-0.5,0-0.7-0.2l-0.8-1.5c-0.2-0.4-0.2-0.8-0.1-1.2s0.5-0.7,0.9-0.8l2.7-1
			c0.6-0.2,1.1-0.7,1.4-1.3c0.2-0.6,0.3-1.2,0.1-1.9l-8.4,1.4c-1,0.2-1.8,1.2-1.8,2.3c0,0.1,0,0.3,0,0.4l0.5,2.9
			c0.4,2.1,2,4.1,4.1,5.2c1,0.5,2.1,0.7,3.2,0.7h2.8c4.1,0,7.4-3.3,7.4-7.4V15c0-0.3,0.2-0.5,0.5-0.5s0.5,0.2,0.5,0.5v6.6
			C25.5,26.2,21.7,30,17.1,30z"/>
	</g>
	<g>
		<path d="M8.3,17.3c-0.2,0-0.4-0.1-0.5-0.4L4.6,6.1C4.3,5.1,4.7,4,5.7,3.4C6.3,3,7,2.9,7.6,3.2c0.7,0.2,1.2,0.7,1.5,1.3l3.4,8v-10
			C12.6,1.1,13.8,0,15,0c1.4,0,2.5,1.1,2.5,2.5v7.4c0,0.3-0.2,0.5-0.5,0.5s-0.5-0.2-0.5-0.5V2.5C16.5,1.7,15.8,1,15,1
			c-0.7,0-1.5,0.8-1.5,1.6l0,10.6c0,0.4-0.3,0.8-0.7,0.8c-0.4,0.1-0.8-0.1-0.9-0.5L8.2,4.9C8,4.5,7.7,4.2,7.3,4.1
			C6.9,4,6.5,4,6.2,4.2c-0.6,0.3-0.8,1-0.6,1.6l3.2,10.8c0.1,0.3-0.1,0.5-0.3,0.6C8.3,17.2,8.3,17.3,8.3,17.3z"/>
	</g>
	<g>
		<path d="M19,19c-1.4,0-2.5-1.1-2.5-2.5v-6C16.5,9.1,17.6,8,19,8s2.5,1.1,2.5,2.5v6C21.5,17.9,20.4,19,19,19z M19,9
			c-0.8,0-1.5,0.7-1.5,1.5v6c0,0.8,0.7,1.5,1.5,1.5s1.5-0.7,1.5-1.5v-6C20.5,9.7,19.8,9,19,9z"/>
	</g>
	<g>
		<path d="M23,20c-1.4,0-2.5-1.1-2.5-2.5v-5c0-1.4,1.1-2.5,2.5-2.5s2.5,1.1,2.5,2.5v5C25.5,18.9,24.4,20,23,20z M23,11
			c-0.8,0-1.5,0.7-1.5,1.5v5c0,0.8,0.7,1.5,1.5,1.5s1.5-0.7,1.5-1.5v-5C24.5,11.7,23.8,11,23,11z"/>
	</g>
</g>
</svg>
