<?xml version="1.0" encoding="utf-8"?>
<!-- Generator: Adobe Illustrator 19.0.0, SVG Export Plug-In . SVG Version: 6.00 Build 0)  -->
<svg version="1.1" id="Layer_1" xmlns="http://www.w3.org/2000/svg" xmlns:xlink="http://www.w3.org/1999/xlink" x="0px" y="0px"
	 viewBox="0 0 30 30" style="enable-background:new 0 0 30 30;" xml:space="preserve">
<g>
	<g>
		<path d="M21.3,6.7c-0.1,0-0.3,0-0.4-0.1c-5.4-5.4-14.2-5.4-19.6,0c-0.2,0.2-0.5,0.2-0.7,0S0.4,6,0.6,5.9c5.8-5.8,15.2-5.8,21,0
			c0.2,0.2,0.2,0.5,0,0.7C21.5,6.7,21.4,6.7,21.3,6.7z"/>
	</g>
	<g>
		<path d="M4.2,7.5H0.5C0.2,7.5,0,7.3,0,7V3.2C0,3,0.2,2.7,0.5,2.7S1,3,1,3.2v3.3h3.3c0.3,0,0.5,0.2,0.5,0.5S4.5,7.5,4.2,7.5z"/>
	</g>
	<g>
		<path d="M21.3,28.5H9.7c-1,0-1.8-0.8-1.8-1.8c0-1.3,1-2.4,2.3-2.6l5.1-0.8l-8.7-8.7c-0.9-0.9-0.9-2.3,0-3.2c0.9-0.9,2.3-0.9,3.2,0
			l2.4,2.4c0.1-0.4,0.3-0.8,0.6-1.2c0.9-0.9,2.2-0.9,3.1-0.1c0.1-0.4,0.3-0.8,0.6-1.2c0.9-0.9,2.2-0.9,3.1-0.1
			c0.1-0.4,0.3-0.8,0.6-1.2c0.9-0.9,2.3-0.9,3.2,0l4.7,5.2c1.1,1.2,1.8,2.9,1.8,4.5c0,1.8-0.7,3.5-2,4.8l-2,2
			C24.8,27.8,23.1,28.5,21.3,28.5z M8.2,11.7c-0.3,0-0.7,0.1-0.9,0.4c-0.5,0.5-0.5,1.3,0,1.8l9.4,9.4c0.1,0.1,0.2,0.3,0.1,0.5
			c-0.1,0.2-0.2,0.3-0.4,0.3l-6,1C9.6,25.2,9,25.9,9,26.7c0,0.4,0.3,0.8,0.8,0.8h11.6c1.5,0,3-0.6,4.1-1.7l2-2
			c1.1-1.1,1.7-2.5,1.7-4.1c0-1.4-0.5-2.8-1.5-3.9l-4.7-5.1c-0.5-0.5-1.3-0.5-1.8,0c-0.5,0.5-0.5,1.3,0,1.8l0.1,0.1
			c0.2,0.2,0.2,0.5,0,0.7c-0.2,0.2-0.5,0.2-0.7,0l0,0c0,0,0,0,0,0s0,0,0,0c0,0,0,0,0,0l0,0l0,0l0,0l0,0c0,0,0,0,0,0c0,0,0,0,0,0
			c0,0,0,0,0,0L19.1,12c-0.5-0.5-1.3-0.5-1.8,0c-0.5,0.5-0.5,1.3,0,1.8l1.3,1.3c0.1,0.1,0.1,0.2,0.1,0.4s0,0.3-0.1,0.4
			c-0.2,0.2-0.5,0.2-0.7,0l-2.6-2.6c-0.5-0.5-1.3-0.5-1.8,0c-0.5,0.5-0.5,1.3,0,1.8l2.6,2.6c0.1,0.1,0.1,0.2,0.1,0.4s0,0.3-0.1,0.4
			c-0.2,0.2-0.5,0.2-0.7,0l-6.3-6.3C8.9,11.9,8.6,11.7,8.2,11.7z"/>
	</g>
</g>
</svg>
