<?xml version="1.0" encoding="utf-8"?>
<!-- Generator: Adobe Illustrator 19.0.0, SVG Export Plug-In . SVG Version: 6.00 Build 0)  -->
<svg version="1.1" id="Layer_1" xmlns="http://www.w3.org/2000/svg" xmlns:xlink="http://www.w3.org/1999/xlink" x="0px" y="0px"
	 viewBox="0 0 30 30" style="enable-background:new 0 0 30 30;" xml:space="preserve">
<g>
	<g>
		<path d="M23.3,30h-7.8c-0.3,0-0.5-0.2-0.5-0.5c0-1.7,1.3-3,3-3h1.5l-5-5c-0.7-0.7-0.7-1.9,0-2.6c0.3-0.3,0.8-0.5,1.3-0.5l0,0
			c0.5,0,0.9,0.2,1.3,0.5l1.3,1.3c0.1-0.3,0.2-0.5,0.4-0.7c0.4-0.4,1.1-0.6,1.7-0.5c0-0.4,0.2-0.8,0.5-1.1c0.3-0.3,0.8-0.5,1.3-0.5
			l0,0c0.3,0,0.5,0.1,0.7,0.2c0.1-0.3,0.2-0.6,0.5-0.9c0.3-0.3,0.8-0.5,1.3-0.5l0,0c0.5,0,0.9,0.2,1.3,0.5l1.9,2c1.3,1.3,2,3,2,4.8
			C30,27,27,30,23.3,30z M16.1,29h7.2c3.1,0,5.7-2.6,5.7-5.7c0-1.5-0.6-3-1.7-4.1l-1.9-2c-0.3-0.3-0.9-0.3-1.2,0
			c-0.3,0.3-0.3,0.9,0,1.2l0,0c0.2,0.2,0.2,0.5,0,0.7c-0.2,0.2-0.5,0.2-0.7,0l0,0l-0.6-0.6c-0.2-0.2-0.4-0.2-0.6-0.2l0,0
			c-0.2,0-0.4,0.1-0.6,0.2c-0.3,0.3-0.3,0.8,0,1.2l0.6,0.6c0.2,0.2,0.2,0.5,0,0.7c-0.2,0.2-0.5,0.2-0.7,0l0,0L21,20.4c0,0,0,0,0,0
			l-0.3-0.3c-0.3-0.3-0.9-0.3-1.2,0c-0.3,0.3-0.3,0.9,0,1.2l1.6,1.6c0.2,0.2,0.2,0.5,0,0.7c-0.2,0.2-0.5,0.2-0.7,0L18.8,22
			c0,0,0,0,0,0l-2.4-2.4c-0.2-0.2-0.4-0.2-0.6-0.2l0,0c-0.2,0-0.4,0.1-0.6,0.2c-0.3,0.3-0.3,0.9,0,1.2l5.9,5.9
			c0.1,0.1,0.2,0.4,0.1,0.5c-0.1,0.2-0.3,0.3-0.5,0.3H18C17.1,27.5,16.3,28.1,16.1,29z"/>
	</g>
	<g>
		<path d="M12.5,30H3c-1.7,0-3-1.3-3-3V3c0-1.7,1.3-3,3-3h15c1.7,0,3,1.3,3,3v12.5c0,0.3-0.2,0.5-0.5,0.5S20,15.8,20,15.5V3
			c0-1.1-0.9-2-2-2H3C1.9,1,1,1.9,1,3v24c0,1.1,0.9,2,2,2h9.5c0.3,0,0.5,0.2,0.5,0.5S12.8,30,12.5,30z"/>
	</g>
	<g>
		<path d="M12.5,26h-12C0.2,26,0,25.8,0,25.5S0.2,25,0.5,25h12c0.3,0,0.5,0.2,0.5,0.5S12.8,26,12.5,26z"/>
	</g>
	<g>
		<path d="M11.5,28h-2C9.2,28,9,27.8,9,27.5S9.2,27,9.5,27h2c0.3,0,0.5,0.2,0.5,0.5S11.8,28,11.5,28z"/>
	</g>
	<g>
		<circle cx="3.5" cy="3.5" r="0.5"/>
	</g>
</g>
</svg>
