<?xml version="1.0" encoding="utf-8"?>
<!-- Generator: Adobe Illustrator 19.0.0, SVG Export Plug-In . SVG Version: 6.00 Build 0)  -->
<svg version="1.1" id="Layer_1" xmlns="http://www.w3.org/2000/svg" xmlns:xlink="http://www.w3.org/1999/xlink" x="0px" y="0px"
	 viewBox="0 0 30 30" style="enable-background:new 0 0 30 30;" xml:space="preserve">
<g>
	<g>
		<path d="M15,28.5c-2.8,0-6.5-7-6.5-12.2c0-6.4,3.3-9.8,6.5-9.8s6.5,3.4,6.5,9.8C21.5,21.5,17.8,28.5,15,28.5z M15,7.5
			c-2.7,0-5.5,3-5.5,8.8c0,5.2,3.6,11.2,5.5,11.2s5.5-6.1,5.5-11.2C20.5,10.5,17.7,7.5,15,7.5z"/>
	</g>
	<g>
		<path d="M5,17.5H3c-0.3,0-0.5-0.2-0.5-0.5s0.2-0.5,0.5-0.5h2c0.3,0,0.5,0.2,0.5,0.5S5.3,17.5,5,17.5z"/>
	</g>
	<g>
		<path d="M18,8.5c-0.3,0-0.5-0.2-0.5-0.5V4.7c0-1.2-1.1-2.2-2.5-2.2s-2.5,1-2.5,2.2V8c0,0.3-0.2,0.5-0.5,0.5S11.5,8.3,11.5,8V4.7
			c0-1.7,1.6-3.2,3.5-3.2s3.5,1.4,3.5,3.2V8C18.5,8.3,18.3,8.5,18,8.5z"/>
	</g>
	<g>
		<path d="M15,26.4c-0.1,0-0.2,0-0.3-0.1c-1.4-0.8-4.2-5.8-4.2-10.1c0-5,2.3-7.8,4.5-7.8c0.3,0,0.5,0.2,0.5,0.5S15.3,9.5,15,9.5
			c-1.7,0-3.5,2.5-3.5,6.8c0,4,2.7,8.6,3.8,9.3c0.2,0.1,0.3,0.4,0.2,0.7C15.3,26.4,15.2,26.4,15,26.4z"/>
	</g>
	<g>
		<path d="M6,9.5c-0.1,0-0.2,0-0.3-0.1l-1.5-1C4,8.3,3.9,8,4.1,7.7c0.2-0.2,0.5-0.3,0.7-0.1l1.5,1C6.5,8.7,6.6,9,6.4,9.3
			C6.3,9.4,6.2,9.5,6,9.5z"/>
	</g>
	<g>
		<path d="M6,27.5c-0.1,0-0.3,0-0.4-0.1c-0.2-0.2-0.2-0.5,0-0.7l1-1c0.2-0.2,0.5-0.2,0.7,0s0.2,0.5,0,0.7l-1,1
			C6.3,27.5,6.1,27.5,6,27.5z"/>
	</g>
	<g>
		<path d="M27,17.5h-2c-0.3,0-0.5-0.2-0.5-0.5s0.2-0.5,0.5-0.5h2c0.3,0,0.5,0.2,0.5,0.5S27.3,17.5,27,17.5z"/>
	</g>
	<g>
		<path d="M24,9.5c-0.2,0-0.3-0.1-0.4-0.2c-0.2-0.2-0.1-0.5,0.1-0.7l1.5-1c0.2-0.2,0.5-0.1,0.7,0.1C26.1,8,26,8.3,25.8,8.4l-1.5,1
			C24.2,9.5,24.1,9.5,24,9.5z"/>
	</g>
	<g>
		<path d="M24,27.5c-0.1,0-0.3,0-0.4-0.1l-1-1c-0.2-0.2-0.2-0.5,0-0.7s0.5-0.2,0.7,0l1,1c0.2,0.2,0.2,0.5,0,0.7
			C24.3,27.5,24.1,27.5,24,27.5z"/>
	</g>
</g>
</svg>
