<?xml version="1.0" encoding="iso-8859-1"?>
<!-- Generator: Adobe Illustrator 19.0.0, SVG Export Plug-In . SVG Version: 6.00 Build 0)  -->
<svg version="1.1" id="Layer_1" xmlns="http://www.w3.org/2000/svg" xmlns:xlink="http://www.w3.org/1999/xlink" x="0px" y="0px"
	 viewBox="0 0 24 24" style="enable-background:new 0 0 24 24;" xml:space="preserve">
<g>
	<g>
		<path d="M23.925,1.252c-0.011-0.018-0.021-0.034-0.034-0.05c-0.053-0.069-0.117-0.129-0.199-0.163c0,0-0.001-0.001-0.001-0.001
			c-0.002-0.001-0.004,0-0.006-0.001C23.627,1.014,23.566,1,23.5,1h-23C0.434,1,0.372,1.014,0.315,1.037
			c-0.002,0.001-0.004,0-0.006,0.001c0,0-0.001,0.001-0.001,0.001C0.226,1.073,0.162,1.132,0.109,1.202
			c-0.013,0.017-0.023,0.032-0.034,0.05C0.032,1.326,0,1.408,0,1.5v21C0,22.776,0.224,23,0.5,23h23c0.276,0,0.5-0.224,0.5-0.5v-21
			C24,1.408,23.968,1.326,23.925,1.252z M22.292,2l-2,2H3.708l-2-2H22.292z M4,12V9h16v3H4z M20,13v3H4v-3H20z M4,8V5h16v3H4z
			 M1,2.707l2,2v11.586l-2,2V2.707z M3,22H1v-2h2V22z M10,22H4v-2h6V22z M13,22h-2v-2h2V22z M20,22h-6v-2h6V22z M1.708,19l2-2
			h16.584l2,2H1.708z M23,22h-2v-2h2V22z M23,18.293l-2-2V4.707l2-2V18.293z"/>
	</g>
</g>
</svg>
