<?xml version="1.0" encoding="iso-8859-1"?>
<!-- Generator: Adobe Illustrator 19.0.0, SVG Export Plug-In . SVG Version: 6.00 Build 0)  -->
<svg version="1.1" id="Layer_1" xmlns="http://www.w3.org/2000/svg" xmlns:xlink="http://www.w3.org/1999/xlink" x="0px" y="0px"
	 viewBox="0 0 24 24" style="enable-background:new 0 0 24 24;" xml:space="preserve">
<g>
	<g>
		<path d="M15,22c0.276,0,0.5-0.224,0.5-0.5v-6c0-0.276-0.224-0.5-0.5-0.5s-0.5,0.224-0.5,0.5v6C14.5,21.776,14.724,22,15,22z
			 M17,22c0.276,0,0.5-0.224,0.5-0.5v-6c0-0.276-0.224-0.5-0.5-0.5s-0.5,0.224-0.5,0.5v6C16.5,21.776,16.724,22,17,22z M21,22
			c0.276,0,0.5-0.224,0.5-0.5v-6c0-0.276-0.224-0.5-0.5-0.5s-0.5,0.224-0.5,0.5v6C20.5,21.776,20.724,22,21,22z M13,22
			c0.276,0,0.5-0.224,0.5-0.5v-6c0-0.276-0.224-0.5-0.5-0.5s-0.5,0.224-0.5,0.5v6C12.5,21.776,12.724,22,13,22z M19,22
			c0.276,0,0.5-0.224,0.5-0.5v-6c0-0.276-0.224-0.5-0.5-0.5s-0.5,0.224-0.5,0.5v6C18.5,21.776,18.724,22,19,22z M11,22
			c0.276,0,0.5-0.224,0.5-0.5v-6c0-0.276-0.224-0.5-0.5-0.5s-0.5,0.224-0.5,0.5v6C10.5,21.776,10.724,22,11,22z M3,22
			c0.276,0,0.5-0.224,0.5-0.5v-6C3.5,15.224,3.276,15,3,15s-0.5,0.224-0.5,0.5v6C2.5,21.776,2.724,22,3,22z M23.488,13.439
			c-0.005-0.037-0.009-0.073-0.022-0.108c-0.01-0.029-0.026-0.053-0.041-0.079c-0.017-0.029-0.033-0.058-0.056-0.083
			c-0.022-0.025-0.048-0.043-0.075-0.063c-0.019-0.014-0.032-0.034-0.054-0.045L13.09,7.524C13.342,7.256,13.5,6.897,13.5,6.5
			c0-0.651-0.419-1.201-1-1.408V5H13c0.276,0,0.5-0.224,0.5-0.5v-2C13.5,2.224,13.276,2,13,2h-0.5V0.5C12.5,0.224,12.276,0,12,0
			s-0.5,0.224-0.5,0.5V2H11c-0.276,0-0.5,0.224-0.5,0.5v2C10.5,4.776,10.724,5,11,5h0.5v0.5C11.5,5.776,11.724,6,12,6
			c0.275,0,0.5,0.224,0.5,0.5S12.275,7,12,7s-0.5-0.224-0.5-0.5S11.276,6,11,6s-0.5,0.224-0.5,0.5c0,0.397,0.158,0.756,0.411,1.025
			l-10.15,5.536c-0.02,0.011-0.033,0.029-0.051,0.043c-0.029,0.021-0.056,0.041-0.08,0.067c-0.022,0.024-0.037,0.051-0.053,0.079
			c-0.016,0.027-0.033,0.053-0.043,0.084c-0.012,0.033-0.016,0.067-0.021,0.101C0.51,13.457,0.5,13.477,0.5,13.5v10
			C0.5,23.776,0.724,24,1,24h22c0.276,0,0.5-0.224,0.5-0.5v-10C23.5,13.478,23.49,13.46,23.488,13.439z M11.5,4V3h1v1H11.5z
			 M12,8.069L21.04,13H2.96L12,8.069z M22.5,23h-21v-9h21V23z M5,22c0.276,0,0.5-0.224,0.5-0.5v-6C5.5,15.224,5.276,15,5,15
			s-0.5,0.224-0.5,0.5v6C4.5,21.776,4.724,22,5,22z M9,22c0.276,0,0.5-0.224,0.5-0.5v-6C9.5,15.224,9.276,15,9,15
			s-0.5,0.224-0.5,0.5v6C8.5,21.776,8.724,22,9,22z M7,22c0.276,0,0.5-0.224,0.5-0.5v-6C7.5,15.224,7.276,15,7,15
			s-0.5,0.224-0.5,0.5v6C6.5,21.776,6.724,22,7,22z"/>
	</g>
</g>
</svg>
