<?xml version="1.0" encoding="iso-8859-1"?>
<!-- Generator: Adobe Illustrator 19.0.0, SVG Export Plug-In . SVG Version: 6.00 Build 0)  -->
<svg version="1.1" id="Layer_1" xmlns="http://www.w3.org/2000/svg" xmlns:xlink="http://www.w3.org/1999/xlink" x="0px" y="0px"
	 viewBox="0 0 24 24" style="enable-background:new 0 0 24 24;" xml:space="preserve">
<g>
	<g>
		<path d="M11.5,8.5h12C23.776,8.5,24,8.276,24,8s-0.224-0.5-0.5-0.5h-12C11.224,7.5,11,7.724,11,8S11.224,8.5,11.5,8.5z M23.5,15.5
			H10.809L6.947,7.776C6.862,7.607,6.689,7.5,6.5,7.5h-6C0.224,7.5,0,7.724,0,8s0.224,0.5,0.5,0.5h5.691l3.862,7.724
			c0.085,0.169,0.258,0.276,0.447,0.276h13c0.276,0,0.5-0.224,0.5-0.5S23.776,15.5,23.5,15.5z"/>
	</g>
</g>
</svg>
