<?xml version="1.0" encoding="iso-8859-1"?>
<!-- Generator: Adobe Illustrator 19.0.0, SVG Export Plug-In . SVG Version: 6.00 Build 0)  -->
<svg version="1.1" id="Layer_1" xmlns="http://www.w3.org/2000/svg" xmlns:xlink="http://www.w3.org/1999/xlink" x="0px" y="0px"
	 viewBox="0 0 24 24" style="enable-background:new 0 0 24 24;" xml:space="preserve">
<g>
	<g>
		<path d="M14.707,12l2.146-2.146c0.196-0.196,0.196-0.512,0.001-0.708c-0.195-0.195-0.512-0.195-0.707,0L14,11.293l-2.146-2.146
			c-0.195-0.195-0.512-0.195-0.707,0c-0.195,0.195-0.195,0.512,0,0.707L13.293,12l-2.146,2.146c-0.195,0.195-0.195,0.512,0,0.707
			C11.244,14.951,11.372,15,11.5,15s0.256-0.049,0.354-0.146L14,12.707l2.146,2.146C16.244,14.951,16.372,15,16.5,15
			s0.256-0.049,0.354-0.146c0.195-0.195,0.195-0.512,0-0.707L14.707,12z M20.5,0h-17C1.57,0,0,1.57,0,3.5v17C0,22.43,1.57,24,3.5,24
			h17c1.93,0,3.5-1.57,3.5-3.5v-17C24,1.57,22.43,0,20.5,0z M20,17.5c0,0.276-0.224,0.5-0.5,0.5H10c-0.133,0-0.26-0.053-0.354-0.146
			l-5.5-5.5c-0.195-0.195-0.195-0.512,0-0.707l5.5-5.5C9.74,6.053,9.867,6,10,6h9.5C19.776,6,20,6.224,20,6.5V17.5z"/>
	</g>
</g>
</svg>
