<?xml version="1.0" encoding="iso-8859-1"?>
<!-- Generator: Adobe Illustrator 19.0.0, SVG Export Plug-In . SVG Version: 6.00 Build 0)  -->
<svg version="1.1" id="Layer_1" xmlns="http://www.w3.org/2000/svg" xmlns:xlink="http://www.w3.org/1999/xlink" x="0px" y="0px"
	 viewBox="0 0 24 24" style="enable-background:new 0 0 24 24;" xml:space="preserve">
<g>
	<g>
		<path d="M7.501,8c0-0.276-0.225-0.5-0.5-0.5h-0.5v1h0.5C7.276,8.5,7.501,8.276,7.501,8z M11.501,8c0-0.276-0.225-0.5-0.5-0.5h-0.5
			v1h0.5C11.276,8.5,11.501,8.276,11.501,8z M17.501,14c0-0.276-0.225-0.5-0.5-0.5h-0.5v1h0.5C17.276,14.5,17.501,14.276,17.501,14z
			 M20,0.5H4C2.07,0.5,0.5,2.07,0.5,4v16c0,1.93,1.57,3.5,3.5,3.5h16c1.93,0,3.5-1.57,3.5-3.5V4C23.5,2.07,21.93,0.5,20,0.5z
			 M5.501,7c0-0.276,0.224-0.5,0.5-0.5h1c0.827,0,1.5,0.673,1.5,1.5c0,0.827-0.673,1.5-1.5,1.5h-0.5V11c0,0.276-0.224,0.5-0.5,0.5
			s-0.5-0.224-0.5-0.5V7z M7.499,17.5c-1.063,0-1.921-0.597-1.997-1.389c-0.026-0.275,0.176-0.519,0.45-0.545
			c0.272-0.033,0.52,0.174,0.546,0.45C6.517,16.218,6.907,16.5,7.499,16.5C8.101,16.5,8.5,16.199,8.5,16
			c0-0.15-0.175-0.358-1.006-0.495L7.348,15.48C6.121,15.28,5.5,14.782,5.5,13.999c0-0.841,0.879-1.5,2.001-1.5
			c1.063,0,1.921,0.597,1.997,1.389c0.026,0.275-0.176,0.519-0.45,0.545c-0.271,0.035-0.519-0.174-0.546-0.45
			C8.483,13.781,8.093,13.5,7.501,13.5C6.899,13.5,6.5,13.801,6.5,14c0,0.123,0.131,0.351,1.008,0.494l0.148,0.025
			C8.88,14.72,9.5,15.218,9.5,16C9.5,16.841,8.621,17.5,7.499,17.5z M10.5,11c0.001,0.276-0.223,0.5-0.499,0.5
			c-0.276,0-0.5-0.224-0.5-0.5V7c0-0.276,0.224-0.5,0.5-0.5h1c0.827,0,1.5,0.673,1.5,1.5c0,0.761-0.57,1.392-1.306,1.487
			l1.159,1.159c0.195,0.195,0.195,0.512,0,0.707c-0.098,0.098-0.226,0.146-0.354,0.146s-0.256-0.049-0.354-0.146L10.5,10.207V11z
			 M12.001,16.5h1c0.275,0,0.5-0.224,0.5-0.5s0.224-0.5,0.5-0.5s0.5,0.224,0.5,0.5c0,0.827-0.673,1.5-1.5,1.5h-1
			c-0.827,0-1.5-0.673-1.5-1.5v-2c0-0.827,0.673-1.5,1.5-1.5h1c0.827,0,1.5,0.673,1.5,1.5c0,0.276-0.224,0.5-0.5,0.5
			s-0.5-0.224-0.5-0.5s-0.225-0.5-0.5-0.5h-1c-0.275,0-0.5,0.224-0.5,0.5v2C11.501,16.276,11.726,16.5,12.001,16.5z M15.001,11.5
			c-0.276,0-0.5-0.224-0.5-0.5V7.5h-1c-0.276,0-0.5-0.224-0.5-0.5s0.224-0.5,0.5-0.5h3c0.276,0,0.5,0.224,0.5,0.5
			s-0.224,0.5-0.5,0.5h-1V11C15.501,11.276,15.277,11.5,15.001,11.5z M18.354,17.353c-0.098,0.098-0.226,0.146-0.354,0.146
			s-0.256-0.049-0.354-0.146L16.5,16.207V17c0,0.276-0.224,0.5-0.5,0.5s-0.5-0.224-0.5-0.5v-4c0-0.276,0.224-0.5,0.5-0.5h1
			c0.827,0,1.5,0.673,1.5,1.5c0,0.761-0.57,1.392-1.306,1.487l1.16,1.159C18.549,16.841,18.549,17.158,18.354,17.353z"/>
	</g>
</g>
</svg>
