<?xml version="1.0" encoding="iso-8859-1"?>
<!-- Generator: Adobe Illustrator 19.0.0, SVG Export Plug-In . SVG Version: 6.00 Build 0)  -->
<svg version="1.1" id="Layer_1" xmlns="http://www.w3.org/2000/svg" xmlns:xlink="http://www.w3.org/1999/xlink" x="0px" y="0px"
	 viewBox="0 0 30 30" style="enable-background:new 0 0 30 30;" xml:space="preserve">
<g>
	<g>
		<path d="M27.414,7.586c-0.755-0.756-2.073-0.756-2.828,0C24.208,7.963,24,8.466,24,9c0,0.362,0.103,0.707,0.282,1.011
			l-8.834,8.834L15,17.908V3.929c0.86-0.224,1.5-1,1.5-1.929c0-1.103-0.897-2-2-2s-2,0.897-2,2c0,0.929,0.64,1.705,1.5,1.929v11.892
			L9.124,5.646C9.47,5.411,9.736,5.078,9.881,4.677c0.18-0.502,0.155-1.045-0.072-1.528C9.582,2.665,9.18,2.299,8.677,2.118
			C8.174,1.937,7.63,1.963,7.149,2.19c-0.484,0.227-0.85,0.629-1.031,1.132C5.937,3.824,5.963,4.367,6.19,4.85
			C6.417,5.334,6.819,5.7,7.322,5.881C7.543,5.96,7.772,6,8.001,6C8.06,6,8.117,5.986,8.176,5.981L14,18.135v1.159l-8.283-8.283
			C5.897,10.707,6,10.362,6,10c0-0.534-0.208-1.036-0.586-1.414c-0.756-0.756-2.073-0.756-2.828,0C2.208,8.963,2,9.466,2,10
			s0.208,1.037,0.586,1.414C2.963,11.792,3.466,12,4,12c0.362,0,0.706-0.103,1.01-0.282l8.782,8.782l-8.646,8.646
			c-0.195,0.195-0.195,0.512,0,0.707C5.244,29.951,5.372,30,5.5,30s0.256-0.049,0.354-0.146L14,21.708V29.5
			c0,0.276,0.224,0.5,0.5,0.5s0.5-0.224,0.5-0.5v-7.792l1.367,1.367l3.182,6.641C19.635,29.896,19.813,30,20,30
			c0.073,0,0.146-0.016,0.216-0.049c0.25-0.12,0.355-0.418,0.235-0.667l-1.955-4.08l4.65,4.65C23.244,29.951,23.372,30,23.5,30
			s0.256-0.049,0.353-0.146c0.195-0.195,0.195-0.512,0-0.707l-6.658-6.658l-1.288-2.688l9.082-9.083C25.293,10.897,25.638,11,26,11
			c0.534,0,1.036-0.208,1.414-0.586S28,9.534,28,9S27.792,7.963,27.414,7.586z M8.94,4.339C8.85,4.59,8.667,4.791,8.425,4.904
			C8.183,5.018,7.911,5.03,7.661,4.94C7.41,4.85,7.209,4.667,7.096,4.425C6.982,4.183,6.97,3.912,7.06,3.661
			C7.15,3.41,7.333,3.209,7.575,3.096C7.71,3.032,7.855,3,8,3c0.114,0,0.229,0.02,0.339,0.06C8.59,3.151,8.791,3.334,8.904,3.575
			C9.018,3.817,9.03,4.088,8.94,4.339z M4.707,10.707c-0.378,0.378-1.036,0.378-1.414,0C3.104,10.518,3,10.267,3,10
			s0.104-0.518,0.293-0.707C3.482,9.104,3.733,9,4,9s0.518,0.104,0.707,0.293C4.896,9.482,5,9.733,5,10S4.896,10.518,4.707,10.707z
			 M14.5,3c-0.551,0-1-0.449-1-1s0.449-1,1-1s1,0.449,1,1S15.051,3,14.5,3z M26.707,9.707c-0.378,0.378-1.036,0.378-1.414,0
			C25.104,9.518,25,9.267,25,9s0.104-0.518,0.293-0.707C25.482,8.104,25.733,8,26,8s0.518,0.104,0.707,0.293
			C26.896,8.482,27,8.733,27,9S26.896,9.518,26.707,9.707z"/>
	</g>
</g>
</svg>
