<?xml version="1.0" encoding="iso-8859-1"?>
<!-- Generator: Adobe Illustrator 19.0.0, SVG Export Plug-In . SVG Version: 6.00 Build 0)  -->
<svg version="1.1" id="Layer_1" xmlns="http://www.w3.org/2000/svg" xmlns:xlink="http://www.w3.org/1999/xlink" x="0px" y="0px"
	 viewBox="0 0 30 30" style="enable-background:new 0 0 30 30;" xml:space="preserve">
<g>
	<g>
		<path d="M28,26c-1.103,0-2,0.897-2,2s0.897,2,2,2c1.103,0,2-0.897,2-2S29.103,26,28,26z M28,29c-0.552,0-1-0.449-1-1s0.448-1,1-1
			s1,0.449,1,1S28.552,29,28,29z M15,28c2.206,0,4-1.794,4-4c0-1-0.365-1.944-1.034-2.679c-0.005-0.013-0.01-0.026-0.017-0.038
			c-4.808-9.873,0.929-20.434,0.988-20.539c0.124-0.224,0.059-0.507-0.152-0.653c-0.209-0.147-0.498-0.111-0.664,0.084
			C18.047,0.261,10.693,8.991,11,23.511c0.001,0.045,0.009,0.087,0.025,0.128C11.011,23.757,11,23.877,11,24
			C11,26.206,12.794,28,15,28z M16.156,5.125c-1.205,4.147-2.053,10.376,0.804,16.407c0.004,0.125,0.056,0.246,0.148,0.337
			C17.684,22.437,18,23.194,18,24c0,1.654-1.346,3-3,3s-3-1.346-3-3c0-0.146,0.022-0.285,0.046-0.444
			c0.014-0.094-0.007-0.185-0.05-0.267C11.864,15.171,14.177,8.941,16.156,5.125z M23,25c-1.103,0-2,0.897-2,2s0.897,2,2,2
			s2-0.897,2-2S24.103,25,23,25z M23,28c-0.552,0-1-0.449-1-1s0.448-1,1-1s1,0.449,1,1S23.552,28,23,28z M2,25c-1.103,0-2,0.897-2,2
			s0.897,2,2,2s2-0.897,2-2S3.103,25,2,25z M2,28c-0.552,0-1-0.449-1-1s0.448-1,1-1s1,0.449,1,1S2.552,28,2,28z M20.913,23H28.5
			c0.276,0,0.5-0.224,0.5-0.5S28.776,22,28.5,22h-8.213c-0.157,0-0.305,0.074-0.399,0.199s-0.124,0.287-0.081,0.438
			C19.935,23.089,20,23.548,20,24c0,2.757-2.243,5-5,5s-5-2.243-5-5c0-0.452,0.065-0.911,0.193-1.363
			c0.043-0.151,0.013-0.313-0.081-0.438S9.87,22,9.713,22H0.5C0.224,22,0,22.224,0,22.5S0.224,23,0.5,23h8.587
			C9.029,23.333,9,23.668,9,24c0,3.309,2.691,6,6,6s6-2.691,6-6C21,23.668,20.971,23.333,20.913,23z M7,26c-1.103,0-2,0.897-2,2
			s0.897,2,2,2s2-0.897,2-2S8.103,26,7,26z M7,29c-0.552,0-1-0.449-1-1s0.448-1,1-1s1,0.449,1,1S7.552,29,7,29z"/>
	</g>
</g>
</svg>
