<?xml version="1.0" encoding="iso-8859-1"?>
<!-- Generator: Adobe Illustrator 19.0.0, SVG Export Plug-In . SVG Version: 6.00 Build 0)  -->
<svg version="1.1" id="Layer_1" xmlns="http://www.w3.org/2000/svg" xmlns:xlink="http://www.w3.org/1999/xlink" x="0px" y="0px"
	 viewBox="0 0 24 24" style="enable-background:new 0 0 24 24;" xml:space="preserve">
<g>
	<g>
		<g>
			<path d="M23.002,12.5c-0.276,0-0.505-0.224-0.505-0.5s0.219-0.5,0.495-0.5h0.01c0.276,0,0.5,0.224,0.5,0.5
				S23.279,12.5,23.002,12.5z"/>
		</g>
	</g>
	<g>
		<g>
			<path d="M21.002,12.5c-0.276,0-0.505-0.224-0.505-0.5s0.219-0.5,0.495-0.5h0.01c0.276,0,0.5,0.224,0.5,0.5
				S21.279,12.5,21.002,12.5z"/>
		</g>
	</g>
	<g>
		<g>
			<path d="M19.002,12.5c-0.276,0-0.505-0.224-0.505-0.5s0.219-0.5,0.495-0.5h0.01c0.276,0,0.5,0.224,0.5,0.5
				S19.279,12.5,19.002,12.5z"/>
		</g>
	</g>
	<g>
		<g>
			<path d="M17.002,12.5c-0.276,0-0.505-0.224-0.505-0.5s0.219-0.5,0.495-0.5h0.01c0.276,0,0.5,0.224,0.5,0.5
				S17.279,12.5,17.002,12.5z"/>
		</g>
	</g>
	<g>
		<g>
			<path d="M15.002,12.5c-0.276,0-0.505-0.224-0.505-0.5s0.219-0.5,0.495-0.5h0.01c0.276,0,0.5,0.224,0.5,0.5
				S15.279,12.5,15.002,12.5z"/>
		</g>
	</g>
	<g>
		<g>
			<path d="M13.002,12.5c-0.276,0-0.505-0.224-0.505-0.5s0.219-0.5,0.495-0.5h0.01c0.276,0,0.5,0.224,0.5,0.5
				S13.279,12.5,13.002,12.5z"/>
		</g>
	</g>
	<g>
		<g>
			<path d="M11.002,12.5c-0.276,0-0.505-0.224-0.505-0.5s0.219-0.5,0.495-0.5h0.01c0.276,0,0.5,0.224,0.5,0.5
				S11.279,12.5,11.002,12.5z"/>
		</g>
	</g>
	<g>
		<g>
			<path d="M21.002,10.5c-0.276,0-0.505-0.224-0.505-0.5s0.219-0.5,0.495-0.5h0.01c0.276,0,0.5,0.224,0.5,0.5
				S21.279,10.5,21.002,10.5z"/>
		</g>
	</g>
	<g>
		<g>
			<path d="M19.002,10.5c-0.276,0-0.505-0.224-0.505-0.5s0.219-0.5,0.495-0.5h0.01c0.276,0,0.5,0.224,0.5,0.5
				S19.279,10.5,19.002,10.5z"/>
		</g>
	</g>
	<g>
		<g>
			<path d="M17.002,10.5c-0.276,0-0.505-0.224-0.505-0.5s0.219-0.5,0.495-0.5h0.01c0.276,0,0.5,0.224,0.5,0.5
				S17.279,10.5,17.002,10.5z"/>
		</g>
	</g>
	<g>
		<g>
			<path d="M15.002,10.5c-0.276,0-0.505-0.224-0.505-0.5s0.219-0.5,0.495-0.5h0.01c0.276,0,0.5,0.224,0.5,0.5
				S15.279,10.5,15.002,10.5z"/>
		</g>
	</g>
	<g>
		<g>
			<path d="M13.002,10.5c-0.276,0-0.505-0.224-0.505-0.5s0.219-0.5,0.495-0.5h0.01c0.276,0,0.5,0.224,0.5,0.5
				S13.279,10.5,13.002,10.5z"/>
		</g>
	</g>
	<g>
		<g>
			<path d="M19.002,8.5c-0.276,0-0.505-0.224-0.505-0.5s0.219-0.5,0.495-0.5h0.01c0.276,0,0.5,0.224,0.5,0.5S19.279,8.5,19.002,8.5z
				"/>
		</g>
	</g>
	<g>
		<g>
			<path d="M17.002,8.5c-0.276,0-0.505-0.224-0.505-0.5s0.219-0.5,0.495-0.5h0.01c0.276,0,0.5,0.224,0.5,0.5S17.279,8.5,17.002,8.5z
				"/>
		</g>
	</g>
	<g>
		<g>
			<path d="M15.002,8.5c-0.276,0-0.505-0.224-0.505-0.5s0.219-0.5,0.495-0.5h0.01c0.276,0,0.5,0.224,0.5,0.5S15.279,8.5,15.002,8.5z
				"/>
		</g>
	</g>
	<g>
		<g>
			<path d="M13.002,8.5c-0.276,0-0.505-0.224-0.505-0.5s0.219-0.5,0.495-0.5h0.01c0.276,0,0.5,0.224,0.5,0.5S13.279,8.5,13.002,8.5z
				"/>
		</g>
	</g>
	<g>
		<g>
			<path d="M17.002,6.5c-0.276,0-0.505-0.224-0.505-0.5s0.219-0.5,0.495-0.5h0.01c0.276,0,0.5,0.224,0.5,0.5S17.279,6.5,17.002,6.5z
				"/>
		</g>
	</g>
	<g>
		<g>
			<path d="M15.002,6.5c-0.276,0-0.505-0.224-0.505-0.5s0.219-0.5,0.495-0.5h0.01c0.276,0,0.5,0.224,0.5,0.5S15.279,6.5,15.002,6.5z
				"/>
		</g>
	</g>
	<g>
		<g>
			<path d="M13.002,6.5c-0.276,0-0.505-0.224-0.505-0.5s0.219-0.5,0.495-0.5h0.01c0.276,0,0.5,0.224,0.5,0.5S13.279,6.5,13.002,6.5z
				"/>
		</g>
	</g>
	<g>
		<g>
			<path d="M15.002,4.5c-0.276,0-0.505-0.224-0.505-0.5s0.219-0.5,0.495-0.5h0.01c0.276,0,0.5,0.224,0.5,0.5S15.279,4.5,15.002,4.5z
				"/>
		</g>
	</g>
	<g>
		<g>
			<path d="M13.002,4.5c-0.276,0-0.505-0.224-0.505-0.5s0.219-0.5,0.495-0.5h0.01c0.276,0,0.5,0.224,0.5,0.5S13.279,4.5,13.002,4.5z
				"/>
		</g>
	</g>
	<g>
		<g>
			<path d="M13.002,2.5c-0.276,0-0.505-0.224-0.505-0.5s0.219-0.5,0.495-0.5h0.01c0.276,0,0.5,0.224,0.5,0.5S13.279,2.5,13.002,2.5z
				"/>
		</g>
	</g>
	<g>
		<g>
			<path d="M21.002,14.5c-0.276,0-0.505-0.224-0.505-0.5s0.219-0.5,0.495-0.5h0.01c0.276,0,0.5,0.224,0.5,0.5
				S21.279,14.5,21.002,14.5z"/>
		</g>
	</g>
	<g>
		<g>
			<path d="M19.002,14.5c-0.276,0-0.505-0.224-0.505-0.5s0.219-0.5,0.495-0.5h0.01c0.276,0,0.5,0.224,0.5,0.5
				S19.279,14.5,19.002,14.5z"/>
		</g>
	</g>
	<g>
		<g>
			<path d="M17.002,14.5c-0.276,0-0.505-0.224-0.505-0.5s0.219-0.5,0.495-0.5h0.01c0.276,0,0.5,0.224,0.5,0.5
				S17.279,14.5,17.002,14.5z"/>
		</g>
	</g>
	<g>
		<g>
			<path d="M15.002,14.5c-0.276,0-0.505-0.224-0.505-0.5s0.219-0.5,0.495-0.5h0.01c0.276,0,0.5,0.224,0.5,0.5
				S15.279,14.5,15.002,14.5z"/>
		</g>
	</g>
	<g>
		<g>
			<path d="M13.002,14.5c-0.276,0-0.505-0.224-0.505-0.5s0.219-0.5,0.495-0.5h0.01c0.276,0,0.5,0.224,0.5,0.5
				S13.279,14.5,13.002,14.5z"/>
		</g>
	</g>
	<g>
		<g>
			<path d="M19.002,16.5c-0.276,0-0.505-0.224-0.505-0.5s0.219-0.5,0.495-0.5h0.01c0.276,0,0.5,0.224,0.5,0.5
				S19.279,16.5,19.002,16.5z"/>
		</g>
	</g>
	<g>
		<g>
			<path d="M17.002,16.5c-0.276,0-0.505-0.224-0.505-0.5s0.219-0.5,0.495-0.5h0.01c0.276,0,0.5,0.224,0.5,0.5
				S17.279,16.5,17.002,16.5z"/>
		</g>
	</g>
	<g>
		<g>
			<path d="M15.002,16.5c-0.276,0-0.505-0.224-0.505-0.5s0.219-0.5,0.495-0.5h0.01c0.276,0,0.5,0.224,0.5,0.5
				S15.279,16.5,15.002,16.5z"/>
		</g>
	</g>
	<g>
		<g>
			<path d="M13.002,16.5c-0.276,0-0.505-0.224-0.505-0.5s0.219-0.5,0.495-0.5h0.01c0.276,0,0.5,0.224,0.5,0.5
				S13.279,16.5,13.002,16.5z"/>
		</g>
	</g>
	<g>
		<g>
			<path d="M17.002,18.5c-0.276,0-0.505-0.224-0.505-0.5s0.219-0.5,0.495-0.5h0.01c0.276,0,0.5,0.224,0.5,0.5
				S17.279,18.5,17.002,18.5z"/>
		</g>
	</g>
	<g>
		<g>
			<path d="M15.002,18.5c-0.276,0-0.505-0.224-0.505-0.5s0.219-0.5,0.495-0.5h0.01c0.276,0,0.5,0.224,0.5,0.5
				S15.279,18.5,15.002,18.5z"/>
		</g>
	</g>
	<g>
		<g>
			<path d="M13.002,18.5c-0.276,0-0.505-0.224-0.505-0.5s0.219-0.5,0.495-0.5h0.01c0.276,0,0.5,0.224,0.5,0.5
				S13.279,18.5,13.002,18.5z"/>
		</g>
	</g>
	<g>
		<g>
			<path d="M15.002,20.5c-0.276,0-0.505-0.224-0.505-0.5s0.219-0.5,0.495-0.5h0.01c0.276,0,0.5,0.224,0.5,0.5
				S15.279,20.5,15.002,20.5z"/>
		</g>
	</g>
	<g>
		<g>
			<path d="M13.002,20.5c-0.276,0-0.505-0.224-0.505-0.5s0.219-0.5,0.495-0.5h0.01c0.276,0,0.5,0.224,0.5,0.5
				S13.279,20.5,13.002,20.5z"/>
		</g>
	</g>
	<g>
		<g>
			<path d="M13.002,22.5c-0.276,0-0.505-0.224-0.505-0.5s0.219-0.5,0.495-0.5h0.01c0.276,0,0.5,0.224,0.5,0.5
				S13.279,22.5,13.002,22.5z"/>
		</g>
	</g>
	<g>
		<g>
			<path d="M9.002,12.5c-0.276,0-0.505-0.224-0.505-0.5s0.219-0.5,0.495-0.5h0.01c0.276,0,0.5,0.224,0.5,0.5S9.279,12.5,9.002,12.5z
				"/>
		</g>
	</g>
	<g>
		<g>
			<path d="M7.002,12.5c-0.276,0-0.505-0.224-0.505-0.5s0.219-0.5,0.495-0.5h0.01c0.276,0,0.5,0.224,0.5,0.5S7.279,12.5,7.002,12.5z
				"/>
		</g>
	</g>
	<g>
		<g>
			<path d="M5.002,12.5c-0.276,0-0.505-0.224-0.505-0.5s0.219-0.5,0.495-0.5h0.01c0.276,0,0.5,0.224,0.5,0.5S5.279,12.5,5.002,12.5z
				"/>
		</g>
	</g>
	<g>
		<g>
			<path d="M3.002,12.5c-0.276,0-0.505-0.224-0.505-0.5s0.219-0.5,0.495-0.5h0.01c0.276,0,0.5,0.224,0.5,0.5S3.279,12.5,3.002,12.5z
				"/>
		</g>
	</g>
	<g>
		<g>
			<path d="M1.002,12.5c-0.276,0-0.505-0.224-0.505-0.5s0.219-0.5,0.495-0.5h0.01c0.276,0,0.5,0.224,0.5,0.5S1.279,12.5,1.002,12.5z
				"/>
		</g>
	</g>
	<g>
		<g>
			<path d="M11.002,14.5c-0.276,0-0.505-0.224-0.505-0.5s0.219-0.5,0.495-0.5h0.01c0.276,0,0.5,0.224,0.5,0.5
				S11.279,14.5,11.002,14.5z"/>
		</g>
	</g>
	<g>
		<g>
			<path d="M9.002,14.5c-0.276,0-0.505-0.224-0.505-0.5s0.219-0.5,0.495-0.5h0.01c0.276,0,0.5,0.224,0.5,0.5S9.279,14.5,9.002,14.5z
				"/>
		</g>
	</g>
	<g>
		<g>
			<path d="M7.002,14.5c-0.276,0-0.505-0.224-0.505-0.5s0.219-0.5,0.495-0.5h0.01c0.276,0,0.5,0.224,0.5,0.5S7.279,14.5,7.002,14.5z
				"/>
		</g>
	</g>
	<g>
		<g>
			<path d="M5.002,14.5c-0.276,0-0.505-0.224-0.505-0.5s0.219-0.5,0.495-0.5h0.01c0.276,0,0.5,0.224,0.5,0.5S5.279,14.5,5.002,14.5z
				"/>
		</g>
	</g>
	<g>
		<g>
			<path d="M3.002,14.5c-0.276,0-0.505-0.224-0.505-0.5s0.219-0.5,0.495-0.5h0.01c0.276,0,0.5,0.224,0.5,0.5S3.279,14.5,3.002,14.5z
				"/>
		</g>
	</g>
	<g>
		<g>
			<path d="M1.002,14.5c-0.276,0-0.505-0.224-0.505-0.5s0.219-0.5,0.495-0.5h0.01c0.276,0,0.5,0.224,0.5,0.5S1.279,14.5,1.002,14.5z
				"/>
		</g>
	</g>
	<g>
		<g>
			<path d="M11.002,10.5c-0.276,0-0.505-0.224-0.505-0.5s0.219-0.5,0.495-0.5h0.01c0.276,0,0.5,0.224,0.5,0.5
				S11.279,10.5,11.002,10.5z"/>
		</g>
	</g>
	<g>
		<g>
			<path d="M9.002,10.5c-0.276,0-0.505-0.224-0.505-0.5s0.219-0.5,0.495-0.5h0.01c0.276,0,0.5,0.224,0.5,0.5S9.279,10.5,9.002,10.5z
				"/>
		</g>
	</g>
	<g>
		<g>
			<path d="M7.002,10.5c-0.276,0-0.505-0.224-0.505-0.5s0.219-0.5,0.495-0.5h0.01c0.276,0,0.5,0.224,0.5,0.5S7.279,10.5,7.002,10.5z
				"/>
		</g>
	</g>
	<g>
		<g>
			<path d="M5.002,10.5c-0.276,0-0.505-0.224-0.505-0.5s0.219-0.5,0.495-0.5h0.01c0.276,0,0.5,0.224,0.5,0.5S5.279,10.5,5.002,10.5z
				"/>
		</g>
	</g>
	<g>
		<g>
			<path d="M3.002,10.5c-0.276,0-0.505-0.224-0.505-0.5s0.219-0.5,0.495-0.5h0.01c0.276,0,0.5,0.224,0.5,0.5S3.279,10.5,3.002,10.5z
				"/>
		</g>
	</g>
	<g>
		<g>
			<path d="M1.002,10.5c-0.276,0-0.505-0.224-0.505-0.5s0.219-0.5,0.495-0.5h0.01c0.276,0,0.5,0.224,0.5,0.5S1.279,10.5,1.002,10.5z
				"/>
		</g>
	</g>
</g>
<g>
</g>
<g>
</g>
<g>
</g>
<g>
</g>
<g>
</g>
<g>
</g>
<g>
</g>
<g>
</g>
<g>
</g>
<g>
</g>
<g>
</g>
<g>
</g>
<g>
</g>
<g>
</g>
<g>
</g>
</svg>
