<?xml version="1.0" encoding="iso-8859-1"?>
<!-- Generator: Adobe Illustrator 19.0.0, SVG Export Plug-In . SVG Version: 6.00 Build 0)  -->
<svg version="1.1" id="Layer_1" xmlns="http://www.w3.org/2000/svg" xmlns:xlink="http://www.w3.org/1999/xlink" x="0px" y="0px"
	 viewBox="0 0 24 24" style="enable-background:new 0 0 24 24;" xml:space="preserve">
<g>
	<g>
		<path d="M21.5,22h-14c-0.202,0-0.385-0.122-0.462-0.309s-0.034-0.402,0.108-0.545l3.646-3.646L2.146,8.854
			c-0.195-0.195-0.195-0.512,0-0.707l6-6c0.195-0.195,0.512-0.195,0.707,0l8.646,8.646l3.646-3.646
			c0.143-0.143,0.359-0.186,0.545-0.108C21.878,7.115,22,7.298,22,7.5v14C22,21.776,21.776,22,21.5,22z M8.707,21H21V8.707
			l-3.146,3.146c-0.195,0.195-0.512,0.195-0.707,0L8.5,3.207L3.207,8.5l8.646,8.646c0.195,0.195,0.195,0.512,0,0.707L8.707,21z"/>
	</g>
</g>
<g>
</g>
<g>
</g>
<g>
</g>
<g>
</g>
<g>
</g>
<g>
</g>
<g>
</g>
<g>
</g>
<g>
</g>
<g>
</g>
<g>
</g>
<g>
</g>
<g>
</g>
<g>
</g>
<g>
</g>
</svg>
