<?xml version="1.0" encoding="iso-8859-1"?>
<!-- Generator: Adobe Illustrator 19.0.0, SVG Export Plug-In . SVG Version: 6.00 Build 0)  -->
<svg version="1.1" id="Layer_1" xmlns="http://www.w3.org/2000/svg" xmlns:xlink="http://www.w3.org/1999/xlink" x="0px" y="0px"
	 viewBox="0 0 24 24" style="enable-background:new 0 0 24 24;" xml:space="preserve">
<g>
	<g>
		<g>
			<path d="M15,19.492H9c-0.276,0-0.5-0.224-0.5-0.5V11.5H5c-0.202,0-0.385-0.122-0.462-0.309c-0.077-0.187-0.035-0.402,0.108-0.545
				l7-7.008c0.188-0.188,0.52-0.188,0.707,0l7,7.008c0.144,0.143,0.186,0.358,0.108,0.545C19.385,11.378,19.202,11.5,19,11.5h-3.5
				v7.492C15.5,19.268,15.276,19.492,15,19.492z M9.5,18.492h5V11c0-0.276,0.224-0.5,0.5-0.5h2.794L12,4.699L6.206,10.5H9
				c0.276,0,0.5,0.224,0.5,0.5V18.492z"/>
		</g>
	</g>
	<g>
		<path d="M12,23.5C5.659,23.5,0.5,18.341,0.5,12S5.659,0.5,12,0.5S23.5,5.659,23.5,12S18.341,23.5,12,23.5z M12,1.5
			C6.21,1.5,1.5,6.21,1.5,12S6.21,22.5,12,22.5S22.5,17.79,22.5,12S17.79,1.5,12,1.5z"/>
	</g>
</g>
<g>
</g>
<g>
</g>
<g>
</g>
<g>
</g>
<g>
</g>
<g>
</g>
<g>
</g>
<g>
</g>
<g>
</g>
<g>
</g>
<g>
</g>
<g>
</g>
<g>
</g>
<g>
</g>
<g>
</g>
</svg>
