<?xml version="1.0" encoding="utf-8"?>
<!-- Generator: Adobe Illustrator 19.0.0, SVG Export Plug-In . SVG Version: 6.00 Build 0)  -->
<svg version="1.1" id="Layer_1" xmlns="http://www.w3.org/2000/svg" xmlns:xlink="http://www.w3.org/1999/xlink" x="0px" y="0px"
	 viewBox="0 0 30 30" style="enable-background:new 0 0 30 30;" xml:space="preserve">
<g>
	<circle cx="15.5" cy="15" r="2"/>
	<circle cx="10.5" cy="22" r="1"/>
	<circle cx="12.5" cy="8" r="1"/>
	<path d="M23.5,5h-17v20h17V5z M12.5,6c1.1,0,2,0.9,2,2s-0.9,2-2,2c-1.1,0-2-0.9-2-2S11.4,6,12.5,6z M10.5,24c-1.1,0-2-0.9-2-2
		s0.9-2,2-2c1.1,0,2,0.9,2,2S11.6,24,10.5,24z M15.5,18c-1.7,0-3-1.3-3-3s1.3-3,3-3s3,1.3,3,3S17.2,18,15.5,18z M19.5,11
		c-0.6,0-1-0.4-1-1s0.4-1,1-1s1,0.4,1,1S20.1,11,19.5,11z"/>
	<path d="M6.5,26v1c0,1.1,0.7,1.8,1.8,1.8C8.8,28.8,9,29,9,29.5C9,29.8,9.2,30,9.5,30h11c0.3,0,0.5-0.2,0.5-0.5
		c0-0.5,0.2-0.8,0.8-0.8c1.1,0,1.8-0.7,1.8-1.8v-1H6.5z"/>
	<path d="M23.5,4V3c0-1.1-0.7-1.8-1.8-1.8C21.2,1.3,21,1,21,0.5C21,0.2,20.8,0,20.5,0h-11C9.2,0,9,0.2,9,0.5C9,1,8.8,1.3,8.3,1.3
		C7.2,1.3,6.5,1.9,6.5,3v1H23.5z"/>
</g>
</svg>
