<?xml version="1.0" encoding="utf-8"?>
<!-- Generator: Adobe Illustrator 19.0.0, SVG Export Plug-In . SVG Version: 6.00 Build 0)  -->
<svg version="1.1" id="Layer_1" xmlns="http://www.w3.org/2000/svg" xmlns:xlink="http://www.w3.org/1999/xlink" x="0px" y="0px"
	 viewBox="0 0 30 30" style="enable-background:new 0 0 30 30;" xml:space="preserve">
<g>
	<path d="M14.5,5.5V0.5c-1.6,0.3-3.1,2.2-4,4.9H14.5z"/>
	<path d="M19.8,6.5h-4.3v5h5C20.4,9.7,20.2,8,19.8,6.5z"/>
	<path d="M14.5,12.5h-5c0,1.8,0.3,3.5,0.7,5h4.3V12.5z"/>
	<path d="M14.5,6.5h-4.3c-0.4,1.5-0.6,3.2-0.7,5h5V6.5z"/>
	<path d="M20.9,17.5h4.2c0.8-1.5,1.3-3.2,1.4-5h-5C21.5,14.3,21.2,16,20.9,17.5z"/>
	<path d="M8.5,12.5h-5c0.1,1.8,0.6,3.5,1.4,5h4.2C8.8,16,8.5,14.3,8.5,12.5z"/>
	<path d="M15.5,0.5v4.9h4C18.6,2.8,17.1,0.9,15.5,0.5z"/>
	<path d="M9.1,6.5H4.9c-0.8,1.5-1.3,3.2-1.4,5h5C8.5,9.7,8.8,8,9.1,6.5z"/>
	<path d="M20.5,12.5h-5v5h4.3C20.2,16,20.4,14.3,20.5,12.5z"/>
	<path d="M11.9,0.9C9.3,1.6,7,3.3,5.5,5.5h3.9C10,3.5,10.9,1.9,11.9,0.9z"/>
	<path d="M14.5,23.4v-4.9h-4C11.4,21.2,12.9,23.1,14.5,23.4z"/>
	<path d="M24.5,18.5h-3.9C20,20.4,19.1,22,18.1,23C20.7,22.3,23,20.7,24.5,18.5z"/>
	<path d="M5.5,18.5c1.5,2.2,3.8,3.8,6.4,4.6c-1-1.1-1.9-2.6-2.5-4.6H5.5z"/>
	<path d="M19.5,18.5h-4v4.9C17.1,23.1,18.6,21.2,19.5,18.5z"/>
	<path d="M24.5,5.5c-1.5-2.2-3.8-3.8-6.4-4.6c1,1.1,1.9,2.6,2.5,4.6H24.5z"/>
	<path d="M21.5,11.5h5c-0.1-1.8-0.6-3.5-1.4-5h-4.2C21.2,8,21.5,9.7,21.5,11.5z"/>
	<path d="M24,27.5h-6.5V27c0-0.3-0.2-0.5-0.5-0.5h-0.5V26c0-0.3-0.2-0.5-0.5-0.5h-2c-0.3,0-0.5,0.2-0.5,0.5v0.5H13
		c-0.3,0-0.5,0.2-0.5,0.5v0.5H6c-0.3,0-0.5,0.2-0.5,0.5s0.2,0.5,0.5,0.5h6.5V29c0,0.3,0.2,0.5,0.5,0.5h4c0.3,0,0.5-0.2,0.5-0.5v-0.5
		H24c0.3,0,0.5-0.2,0.5-0.5S24.3,27.5,24,27.5z"/>
</g>
</svg>
