<?xml version="1.0" encoding="utf-8"?>
<!-- Generator: Adobe Illustrator 19.0.0, SVG Export Plug-In . SVG Version: 6.00 Build 0)  -->
<svg version="1.1" id="Layer_1" xmlns="http://www.w3.org/2000/svg" xmlns:xlink="http://www.w3.org/1999/xlink" x="0px" y="0px"
	 viewBox="0 0 30 30" style="enable-background:new 0 0 30 30;" xml:space="preserve">
<g>
	<path d="M23,23h-2.5c-1,0-1.8,0.8-1.8,1.8V26v0.5c0,0.3,0.2,0.5,0.5,0.5s0.5-0.2,0.5-0.5V26h4v0.5c0,0.3,0.2,0.5,0.5,0.5
		s0.5-0.2,0.5-0.5V26v-1.3C24.8,23.8,24,23,23,23z"/>
	<circle cx="13.8" cy="21" r="3"/>
	<path d="M19.4,16c0.2-0.2,0.2-0.5,0-0.7c-3.1-3.1-8.2-3.1-11.3,0c-0.2,0.2-0.2,0.5,0,0.7c0.2,0.2,0.5,0.2,0.7,0
		c2.7-2.7,7.2-2.7,9.9,0c0.1,0.1,0.2,0.1,0.4,0.1S19.3,16.1,19.4,16z"/>
	<path d="M23,12.8c0.1,0.1,0.2,0.1,0.4,0.1s0.3,0,0.4-0.1c0.2-0.2,0.2-0.5,0-0.7c-5.5-5.5-14.3-5.5-19.8,0c-0.2,0.2-0.2,0.5,0,0.7
		s0.5,0.2,0.7,0C9.7,7.8,17.9,7.8,23,12.8z"/>
	<path d="M26.5,9.3c0.1,0.1,0.2,0.1,0.4,0.1s0.3,0,0.4-0.1c0.2-0.2,0.2-0.5,0-0.7c-7.4-7.4-19.5-7.4-26.9,0c-0.2,0.2-0.2,0.5,0,0.7
		s0.5,0.2,0.7,0C8.1,2.3,19.5,2.3,26.5,9.3z"/>
	<path d="M29.8,18.5c0-1.9-1.6-3.5-3.5-3.5s-3.5,1.6-3.5,3.5c0,1.8,1.3,3.2,3,3.4v4.6c0,0.3,0.2,0.5,0.5,0.5s0.5-0.2,0.5-0.5v-4.6
		C28.5,21.7,29.8,20.2,29.8,18.5z"/>
</g>
</svg>
