<?xml version="1.0" encoding="utf-8"?>
<!-- Generator: Adobe Illustrator 19.0.0, SVG Export Plug-In . SVG Version: 6.00 Build 0)  -->
<svg version="1.1" id="Layer_1" xmlns="http://www.w3.org/2000/svg" xmlns:xlink="http://www.w3.org/1999/xlink" x="0px" y="0px"
	 viewBox="0 0 30 30" style="enable-background:new 0 0 30 30;" xml:space="preserve">
<g>
	<circle cx="13.8" cy="21" r="3"/>
	<path d="M18.7,16c0.1,0.1,0.2,0.1,0.4,0.1s0.3,0,0.4-0.1c0.2-0.2,0.2-0.5,0-0.7c-1.5-1.5-3.5-2.3-5.7-2.3c-2.1,0-4.1,0.8-5.7,2.3
		c-0.2,0.2-0.2,0.5,0,0.7c0.2,0.2,0.5,0.2,0.7,0c1.3-1.3,3.1-2.1,4.9-2.1C15.6,14,17.4,14.7,18.7,16z"/>
	<path d="M22.9,12.8c0.1,0.1,0.2,0.1,0.4,0.1s0.3,0,0.4-0.1c0.2-0.2,0.2-0.5,0-0.7C21,9.5,17.5,8,13.8,8C10,8,6.5,9.5,3.9,12.1
		c-0.2,0.2-0.2,0.5,0,0.7s0.5,0.2,0.7,0C7,10.3,10.3,9,13.8,9C17.2,9,20.5,10.3,22.9,12.8z"/>
	<path d="M26.5,9.3c0.1,0.1,0.2,0.1,0.4,0.1s0.3,0,0.4-0.1c0.2-0.2,0.2-0.5,0-0.7c-7.4-7.4-19.5-7.4-26.9,0c-0.2,0.2-0.2,0.5,0,0.7
		s0.5,0.2,0.7,0C8,2.2,19.5,2.2,26.5,9.3z"/>
	<path d="M29.8,20.5c0-2.5-2-4.5-4.5-4.5c-0.3,0-0.5,0.2-0.5,0.5s0.2,0.5,0.5,0.5c1.9,0,3.5,1.6,3.5,3.5S27.3,24,25.3,24h-0.8
		l1.1-1.1c0.2-0.2,0.2-0.5,0-0.7s-0.5-0.2-0.7,0l-2,2c0,0-0.1,0.1-0.1,0.2c-0.1,0.1-0.1,0.3,0,0.4c0,0.1,0.1,0.1,0.1,0.2l2,2
		c0.1,0.1,0.2,0.1,0.4,0.1s0.3,0,0.4-0.1c0.2-0.2,0.2-0.5,0-0.7L24.5,25h0.8C27.8,25,29.8,23,29.8,20.5z"/>
	<path d="M21.3,24c-1.9,0-3.5-1.6-3.5-3.5s1.6-3.5,3.5-3.5h0.8L21,18.1c-0.2,0.2-0.2,0.5,0,0.7c0.1,0.1,0.2,0.1,0.4,0.1
		s0.3,0,0.4-0.1l2-2c0,0,0.1-0.1,0.1-0.2c0.1-0.1,0.1-0.3,0-0.4c0-0.1-0.1-0.1-0.1-0.2l-2-2c-0.2-0.2-0.5-0.2-0.7,0s-0.2,0.5,0,0.7
		l1.1,1.1h-0.8c-2.5,0-4.5,2-4.5,4.5s2,4.5,4.5,4.5c0.3,0,0.5-0.2,0.5-0.5S21.6,24,21.3,24z"/>
</g>
</svg>
