<?xml version="1.0" encoding="utf-8"?>
<!-- Generator: Adobe Illustrator 19.0.0, SVG Export Plug-In . SVG Version: 6.00 Build 0)  -->
<svg version="1.1" id="Layer_1" xmlns="http://www.w3.org/2000/svg" xmlns:xlink="http://www.w3.org/1999/xlink" x="0px" y="0px"
	 viewBox="0 0 30 30" style="enable-background:new 0 0 30 30;" xml:space="preserve">
<g>
	<path d="M29.8,29l-3.7-3.3c0.6-0.8,0.9-1.8,0.9-2.9c0-2.8-2.2-5-5-5s-5,2.2-5,5s2.2,5,5,5c1.3,0,2.5-0.5,3.4-1.4l3.7,3.3
		c0.1,0.1,0.2,0.1,0.3,0.1c0.1,0,0.3-0.1,0.4-0.2C30,29.5,30,29.2,29.8,29z M22,26.9c-2.2,0-4-1.8-4-4s1.8-4,4-4s4,1.8,4,4
		S24.2,26.9,22,26.9z"/>
	<path d="M8.5,5.9H14V0.4C11.8,0.7,9.8,2.8,8.5,5.9z"/>
	<path d="M8.2,21.9H14v-7H7C7.1,17.4,7.5,19.8,8.2,21.9z"/>
	<path d="M6,14.9H0c0.1,2.6,0.8,4.9,2.1,7h5C6.5,19.8,6.1,17.4,6,14.9z"/>
	<path d="M7,13.9h7v-7H8.2C7.5,8.9,7.1,11.3,7,13.9z"/>
	<path d="M7.1,6.9h-5c-1.3,2.1-2,4.4-2.1,7h6C6.1,11.3,6.5,8.9,7.1,6.9z"/>
	<path d="M20.8,6.9H15v7h7C21.9,11.3,21.5,8.9,20.8,6.9z"/>
	<path d="M15,0.4v5.5h5.4C19.2,2.8,17.2,0.7,15,0.4z"/>
	<path d="M21.9,16.9c0.1-0.7,0.1-1.3,0.1-2h-7v7h1.1C16.5,19.1,19,16.9,21.9,16.9z"/>
	<path d="M14,28.3v-5.5H8.5C9.8,26,11.8,28.1,14,28.3z"/>
	<path d="M11.8,0.1C8.1,0.8,4.9,2.9,2.8,5.9h4.7C8.5,3.2,10.1,1.2,11.8,0.1z"/>
	<path d="M21.5,5.9h4.7c-2.1-2.9-5.4-5.1-9.1-5.7C18.9,1.2,20.4,3.2,21.5,5.9z"/>
	<path d="M7.5,22.9H2.8c2.1,2.9,5.4,5.1,9.1,5.7C10.1,27.6,8.5,25.5,7.5,22.9z"/>
	<path d="M23,13.9h6c-0.1-2.6-0.8-4.9-2.1-7h-5C22.5,8.9,22.9,11.3,23,13.9z"/>
	<path d="M16,22.9h-1v5.5c1-0.1,1.9-0.6,2.7-1.3C16.6,25.9,16,24.4,16,22.9z"/>
	<path d="M22.9,16.9c1.7,0.3,3.3,1.3,4.2,2.8c0.1,0.2,0.3,0.3,0.5,0.2c0.2,0,0.4-0.1,0.4-0.3c0.6-1.5,0.9-3.2,1-4.8h-6
		C23,15.6,22.9,16.3,22.9,16.9z"/>
</g>
</svg>
