<?xml version="1.0" encoding="iso-8859-1"?>
<!-- Generator: Adobe Illustrator 19.0.0, SVG Export Plug-In . SVG Version: 6.00 Build 0)  -->
<svg version="1.1" id="Layer_1" xmlns="http://www.w3.org/2000/svg" xmlns:xlink="http://www.w3.org/1999/xlink" x="0px" y="0px"
	 viewBox="-467 269 24 24" style="enable-background:new -467 269 24 24;" xml:space="preserve">
<g>
	<path d="M-467,283v7.5c0,1.378,1.122,2.5,2.5,2.5h19c1.378,0,2.5-1.122,2.5-2.5V283H-467z M-462.5,291h-1
		c-0.276,0-0.5-0.224-0.5-0.5s0.224-0.5,0.5-0.5h1c0.276,0,0.5,0.224,0.5,0.5S-462.224,291-462.5,291z M-462.5,289h-1
		c-0.276,0-0.5-0.224-0.5-0.5s0.224-0.5,0.5-0.5h1c0.276,0,0.5,0.224,0.5,0.5S-462.224,289-462.5,289z M-462.5,287h-1
		c-0.276,0-0.5-0.224-0.5-0.5s0.224-0.5,0.5-0.5h1c0.276,0,0.5,0.224,0.5,0.5S-462.224,287-462.5,287z M-462.5,285h-1
		c-0.276,0-0.5-0.224-0.5-0.5s0.224-0.5,0.5-0.5h1c0.276,0,0.5,0.224,0.5,0.5S-462.224,285-462.5,285z M-459.5,291h-1
		c-0.276,0-0.5-0.224-0.5-0.5s0.224-0.5,0.5-0.5h1c0.276,0,0.5,0.224,0.5,0.5S-459.224,291-459.5,291z M-459.5,289h-1
		c-0.276,0-0.5-0.224-0.5-0.5s0.224-0.5,0.5-0.5h1c0.276,0,0.5,0.224,0.5,0.5S-459.224,289-459.5,289z M-459.5,287h-1
		c-0.276,0-0.5-0.224-0.5-0.5s0.224-0.5,0.5-0.5h1c0.276,0,0.5,0.224,0.5,0.5S-459.224,287-459.5,287z M-459.5,285h-1
		c-0.276,0-0.5-0.224-0.5-0.5s0.224-0.5,0.5-0.5h1c0.276,0,0.5,0.224,0.5,0.5S-459.224,285-459.5,285z M-456.5,291h-1
		c-0.276,0-0.5-0.224-0.5-0.5s0.224-0.5,0.5-0.5h1c0.276,0,0.5,0.224,0.5,0.5S-456.224,291-456.5,291z M-456.5,289h-1
		c-0.276,0-0.5-0.224-0.5-0.5s0.224-0.5,0.5-0.5h1c0.276,0,0.5,0.224,0.5,0.5S-456.224,289-456.5,289z M-456.5,287h-1
		c-0.276,0-0.5-0.224-0.5-0.5s0.224-0.5,0.5-0.5h1c0.276,0,0.5,0.224,0.5,0.5S-456.224,287-456.5,287z M-456.5,285h-1
		c-0.276,0-0.5-0.224-0.5-0.5s0.224-0.5,0.5-0.5h1c0.276,0,0.5,0.224,0.5,0.5S-456.224,285-456.5,285z M-445.5,291h-8
		c-0.276,0-0.5-0.224-0.5-0.5s0.224-0.5,0.5-0.5h8c0.276,0,0.5,0.224,0.5,0.5S-445.224,291-445.5,291z M-445,287.5
		c0,0.276-0.224,0.5-0.5,0.5h-2.01c-0.47,0.623-1.208,1-1.99,1s-1.52-0.377-1.99-1h-2.01c-0.276,0-0.5-0.224-0.5-0.5v-2
		c0-0.276,0.224-0.5,0.5-0.5h2.01c0.47-0.623,1.208-1,1.99-1s1.52,0.377,1.99,1h2.01c0.276,0,0.5,0.224,0.5,0.5V287.5z"/>
	<path d="M-448.209,285.751c-0.274-0.47-0.757-0.751-1.291-0.751s-1.017,0.281-1.291,0.751c-0.089,0.154-0.254,0.249-0.432,0.249
		H-453v1h1.777c0.178,0,0.342,0.095,0.432,0.249c0.274,0.47,0.757,0.751,1.291,0.751s1.017-0.281,1.291-0.751
		c0.089-0.154,0.254-0.249,0.432-0.249H-446v-1h-1.777C-447.955,286-448.12,285.905-448.209,285.751z"/>
	<path d="M-445.5,269h-19c-1.378,0-2.5,1.122-2.5,2.5V282h24v-10.5C-443,270.122-444.122,269-445.5,269z M-450,279.5
		c0,0.276-0.224,0.5-0.5,0.5h-13c-0.276,0-0.5-0.224-0.5-0.5v-7c0-0.276,0.224-0.5,0.5-0.5h13c0.276,0,0.5,0.224,0.5,0.5V279.5z"/>
</g>
</svg>
