<?xml version="1.0" encoding="iso-8859-1"?>
<!-- Generator: Adobe Illustrator 19.0.0, SVG Export Plug-In . SVG Version: 6.00 Build 0)  -->
<svg version="1.1" id="Layer_1" xmlns="http://www.w3.org/2000/svg" xmlns:xlink="http://www.w3.org/1999/xlink" x="0px" y="0px"
	 viewBox="-467 269 24 24" style="enable-background:new -467 269 24 24;" xml:space="preserve">
<g id="brifcase">
	<g>
		<path d="M-451.5,275h-7c-0.276,0-0.5-0.224-0.5-0.5v-2c0-0.827,0.673-1.5,1.5-1.5h5c0.827,0,1.5,0.673,1.5,1.5v2
			C-451,274.776-451.224,275-451.5,275z M-458,274h6v-1.5c0-0.276-0.224-0.5-0.5-0.5h-5c-0.276,0-0.5,0.224-0.5,0.5V274z"/>
	</g>
	<g>
		<path d="M-444.5,274h-21c-0.827,0-1.5,0.673-1.5,1.5v4.5h24v-4.5C-443,274.673-443.673,274-444.5,274z"/>
		<path d="M-448,281v2h-2v-2h-1h-8h-1v2h-2v-2h-1h-4v8.5c0,0.827,0.673,1.5,1.5,1.5h21c0.827,0,1.5-0.673,1.5-1.5V281h-4H-448z"/>
	</g>
</g>
</svg>
