<?xml version="1.0" encoding="iso-8859-1"?>
<!-- Generator: Adobe Illustrator 19.0.0, SVG Export Plug-In . SVG Version: 6.00 Build 0)  -->
<svg version="1.1" id="Layer_1" xmlns="http://www.w3.org/2000/svg" xmlns:xlink="http://www.w3.org/1999/xlink" x="0px" y="0px"
	 viewBox="-467 269 24 24" style="enable-background:new -467 269 24 24;" xml:space="preserve">
<g>
	<path d="M-443.5,273.5h-23c-0.276,0-0.5,0.224-0.5,0.5v14c0,0.276,0.224,0.5,0.5,0.5h3c0.276,0,0.5-0.224,0.5-0.5
		c0-0.071,0.026-0.149,0.083-0.245c0.094-0.157,0.094-0.354,0-0.511c-0.057-0.095-0.083-0.173-0.083-0.244
		c0-0.276,0.224-0.5,0.5-0.5s0.5,0.224,0.5,0.5c0,0.071-0.026,0.149-0.083,0.245c-0.094,0.157-0.094,0.354,0,0.511
		c0.057,0.095,0.083,0.173,0.083,0.244c0,0.276,0.224,0.5,0.5,0.5h3c0.276,0,0.5-0.224,0.5-0.5c0-0.071,0.026-0.149,0.083-0.245
		c0.094-0.157,0.094-0.354,0-0.511c-0.057-0.095-0.083-0.173-0.083-0.244c0-0.276,0.224-0.5,0.5-0.5s0.5,0.224,0.5,0.5
		c0,0.071-0.026,0.149-0.083,0.245c-0.094,0.157-0.094,0.354,0,0.511c0.057,0.095,0.083,0.173,0.083,0.244
		c0,0.276,0.224,0.5,0.5,0.5h3c0.276,0,0.5-0.224,0.5-0.5c0-0.071,0.026-0.149,0.083-0.245c0.094-0.157,0.094-0.354,0-0.511
		c-0.057-0.095-0.083-0.173-0.083-0.244c0-0.276,0.224-0.5,0.5-0.5s0.5,0.224,0.5,0.5c0,0.071-0.026,0.149-0.083,0.245
		c-0.094,0.157-0.094,0.354,0,0.511c0.057,0.095,0.083,0.173,0.083,0.244c0,0.276,0.224,0.5,0.5,0.5h3c0.276,0,0.5-0.224,0.5-0.5
		c0-0.071,0.026-0.149,0.083-0.245c0.094-0.157,0.094-0.354,0-0.511c-0.057-0.095-0.083-0.173-0.083-0.244
		c0-0.276,0.224-0.5,0.5-0.5s0.5,0.224,0.5,0.5c0,0.071-0.026,0.149-0.083,0.245c-0.094,0.157-0.094,0.354,0,0.511
		c0.057,0.095,0.083,0.173,0.083,0.244c0,0.276,0.224,0.5,0.5,0.5h3c0.276,0,0.5-0.224,0.5-0.5v-14
		C-443,273.724-443.224,273.5-443.5,273.5z M-456.5,284.5h-8c-0.276,0-0.5-0.224-0.5-0.5c0-1.885,1.167-3.497,2.815-4.166
		c-0.498-0.457-0.815-1.107-0.815-1.834c0-1.378,1.122-2.5,2.5-2.5s2.5,1.122,2.5,2.5c0,0.727-0.317,1.377-0.815,1.834
		c1.648,0.669,2.815,2.281,2.815,4.166C-456,284.276-456.224,284.5-456.5,284.5z M-445.5,283.5h-8c-0.276,0-0.5-0.224-0.5-0.5
		s0.224-0.5,0.5-0.5h8c0.276,0,0.5,0.224,0.5,0.5S-445.224,283.5-445.5,283.5z M-454,280c0-0.276,0.224-0.5,0.5-0.5h5
		c0.276,0,0.5,0.224,0.5,0.5s-0.224,0.5-0.5,0.5h-5C-453.776,280.5-454,280.276-454,280z M-445.5,277.5h-8
		c-0.276,0-0.5-0.224-0.5-0.5s0.224-0.5,0.5-0.5h8c0.276,0,0.5,0.224,0.5,0.5S-445.224,277.5-445.5,277.5z"/>
	<path d="M-460.5,280.5c-1.76,0-3.221,1.306-3.464,3h6.929C-457.279,281.806-458.74,280.5-460.5,280.5z"/>
	<circle cx="-460.5" cy="278" r="1.5"/>
</g>
</svg>
