<?xml version="1.0" encoding="utf-8"?>
<!-- Generator: Adobe Illustrator 19.0.0, SVG Export Plug-In . SVG Version: 6.00 Build 0)  -->
<svg version="1.1" id="Layer_1" xmlns="http://www.w3.org/2000/svg" xmlns:xlink="http://www.w3.org/1999/xlink" x="0px" y="0px"
	 viewBox="0 0 24 24" style="enable-background:new 0 0 24 24;" xml:space="preserve">
<path d="M16.5,4.5C14.9,4.5,13.3,5,12,6c-1.3-1-2.9-1.5-4.5-1.5C3.4,4.5,0,7.9,0,12s3.4,7.5,7.5,7.5c1.6,0,3.2-0.5,4.5-1.5
	c1.3,0.9,2.9,1.5,4.5,1.5c4.2,0,7.5-3.4,7.5-7.5S20.6,4.5,16.5,4.5z M22.5,14.5h-7.9c0.1-0.3,0.2-0.7,0.3-1h7.9
	C22.7,13.8,22.6,14.2,22.5,14.5z M12,16.7c-0.4-0.4-0.7-0.8-1-1.2h2C12.7,15.9,12.4,16.4,12,16.7z M10.5,14.5L10.5,14.5
	c-0.2-0.3-0.3-0.7-0.4-1h3.8c-0.1,0.3-0.2,0.7-0.3,1H10.5z M10.5,9.5L10.5,9.5h3.1c0.1,0.3,0.3,0.7,0.3,1h-3.8
	C10.2,10.2,10.3,9.8,10.5,9.5z M12,7.3c0.4,0.4,0.7,0.8,1,1.2h-2C11.3,8.1,11.6,7.6,12,7.3z M22.8,10.5h-7.9c-0.1-0.3-0.2-0.7-0.3-1
	h7.9C22.6,9.8,22.7,10.2,22.8,10.5z M10,11.5h4c0,0.2,0,0.3,0,0.5s0,0.3,0,0.5h-4l0,0c0-0.2,0-0.3,0-0.5C9.9,11.8,10,11.7,10,11.5
	L10,11.5z M15,12.5c0-0.2,0-0.3,0-0.5s0-0.3,0-0.5h8c0,0.2,0,0.3,0,0.5s0,0.3,0,0.5H15z M22,8.5h-7.8c-0.2-0.3-0.4-0.7-0.6-1H21
	c0.1,0,0.1,0,0.1,0C21.5,7.8,21.7,8.1,22,8.5z M16.5,5.5c1.3,0,2.5,0.4,3.5,1h-7C14.1,5.9,15.2,5.5,16.5,5.5z M13,17.5h6.9
	c-1,0.6-2.2,1-3.5,1C15.2,18.5,14.1,18.1,13,17.5z M21.1,16.5H21h-7.5c0.2-0.3,0.5-0.7,0.6-1H22C21.7,15.9,21.5,16.2,21.1,16.5z"/>
</svg>
