<?xml version="1.0" encoding="utf-8"?>
<!-- Generator: Adobe Illustrator 19.0.0, SVG Export Plug-In . SVG Version: 6.00 Build 0)  -->
<svg version="1.1" id="Layer_1" xmlns="http://www.w3.org/2000/svg" xmlns:xlink="http://www.w3.org/1999/xlink" x="0px" y="0px"
	 viewBox="0 0 24 24" style="enable-background:new 0 0 24 24;" xml:space="preserve">
<g>
	<path d="M11.1,11.3c0.2,0.1,0.3,0.1,0.4,0.1c0.2,0,0.3,0,0.5,0s0.3,0,0.5,0c0.1,0,0.3-0.1,0.4-0.1c0,0,0,0,0.1,0
		c0.9-0.4,1.6-1.3,1.6-2.3c0-1.4-1.1-2.5-2.5-2.5c-1.4,0-2.6,1.1-2.6,2.5C9.5,10.1,10.2,11,11.1,11.3z"/>
	<path d="M7.5,15c0,0.3,0.2,0.5,0.5,0.5h8c0.3,0,0.5-0.2,0.5-0.5c0-1.5-0.8-2.9-1.9-3.7C13.9,12,13,12.5,12,12.5s-1.9-0.5-2.6-1.2
		C8.3,12.1,7.5,13.5,7.5,15z"/>
	<path d="M5.4,12.5H7c0.3,0,0.5-0.2,0.5-0.5S7.3,11.5,7,11.5H5.4c-0.2-1.1-1.2-2-2.4-2c-1.4,0-2.5,1.1-2.5,2.5s1.1,2.5,2.5,2.5
		C4.2,14.5,5.2,13.6,5.4,12.5z M3,13.5c-0.8,0-1.5-0.7-1.5-1.5s0.7-1.5,1.5-1.5s1.5,0.7,1.5,1.5S3.8,13.5,3,13.5z"/>
	<path d="M18,16.5c-0.5,0-1,0.2-1.4,0.4l-0.8-0.8c-0.2-0.2-0.5-0.2-0.7,0c-0.2,0.2-0.2,0.5,0,0.7l0.8,0.8c-0.3,0.4-0.4,0.9-0.4,1.4
		c0,1.4,1.1,2.5,2.5,2.5s2.5-1.1,2.5-2.5S19.4,16.5,18,16.5z M18,20.5c-0.8,0-1.5-0.7-1.5-1.5s0.7-1.5,1.5-1.5s1.5,0.7,1.5,1.5
		S18.8,20.5,18,20.5z"/>
	<path d="M15.8,7.9l0.8-0.8C17,7.3,17.5,7.5,18,7.5c1.4,0,2.5-1.1,2.5-2.5c0-1.4-1.1-2.5-2.5-2.5c-1.4,0-2.5,1.1-2.5,2.5
		c0,0.5,0.1,1,0.4,1.4l-0.8,0.8c-0.2,0.2-0.2,0.5,0,0.7S15.6,8.1,15.8,7.9z M18,3.5c0.8,0,1.5,0.7,1.5,1.5S18.8,6.5,18,6.5
		S16.5,5.8,16.5,5S17.2,3.5,18,3.5z"/>
	<path d="M8.2,16.1l-0.8,0.8C7,16.7,6.5,16.5,6,16.5c-1.4,0-2.5,1.1-2.5,2.5s1.1,2.5,2.5,2.5c1.4,0,2.5-1.1,2.5-2.5
		c0-0.5-0.1-1-0.4-1.4l0.8-0.8c0.2-0.2,0.2-0.5,0-0.7C8.7,15.9,8.4,15.9,8.2,16.1z M6,20.5c-0.8,0-1.5-0.7-1.5-1.5s0.7-1.5,1.5-1.5
		s1.5,0.7,1.5,1.5S6.8,20.5,6,20.5z"/>
	<path d="M6,7.5c0.5,0,1-0.2,1.4-0.4l0.8,0.8c0.2,0.2,0.5,0.2,0.7,0c0.2-0.2,0.2-0.5,0-0.7L8.1,6.4C8.4,6,8.5,5.5,8.5,5
		c0-1.4-1.1-2.5-2.5-2.5S3.5,3.6,3.5,5C3.5,6.4,4.6,7.5,6,7.5z M6,3.5c0.8,0,1.5,0.7,1.5,1.5S6.8,6.5,6,6.5S4.5,5.8,4.5,5
		S5.2,3.5,6,3.5z"/>
	<path d="M21,9.5c-1.2,0-2.2,0.9-2.4,2H17c-0.3,0-0.5,0.2-0.5,0.5s0.2,0.5,0.5,0.5h1.6c0.2,1.1,1.2,2,2.4,2c1.4,0,2.5-1.1,2.5-2.5
		S22.4,9.5,21,9.5z M21,13.5c-0.8,0-1.5-0.7-1.5-1.5s0.7-1.5,1.5-1.5s1.5,0.7,1.5,1.5S21.8,13.5,21,13.5z"/>
</g>
</svg>
