<?xml version="1.0" encoding="utf-8"?>
<!-- Generator: Adobe Illustrator 19.0.0, SVG Export Plug-In . SVG Version: 6.00 Build 0)  -->
<svg version="1.1" id="Layer_1" xmlns="http://www.w3.org/2000/svg" xmlns:xlink="http://www.w3.org/1999/xlink" x="0px" y="0px"
	 viewBox="0 0 24 24" style="enable-background:new 0 0 24 24;" xml:space="preserve">
<g>
	<path d="M11.1,4.8L11.1,4.8c0.2,0.1,0.3,0.1,0.4,0.1c0.2,0,0.3,0,0.5,0s0.3,0,0.5,0c0.1,0,0.3-0.1,0.4-0.1c0,0,0,0,0.1,0
		c0.9-0.4,1.6-1.3,1.6-2.3C14.5,1.1,13.4,0,12,0S9.5,1.1,9.5,2.5C9.5,3.6,10.2,4.5,11.1,4.8z"/>
	<path d="M4.1,19.8L4.1,19.8c0.2,0.1,0.3,0.1,0.4,0.1c0.2,0,0.3,0,0.5,0s0.3,0,0.5,0c0.1,0,0.3-0.1,0.4-0.1c0,0,0,0,0.1,0
		c0.9-0.4,1.6-1.3,1.6-2.3C7.5,16.1,6.4,15,5,15s-2.5,1.1-2.5,2.5C2.5,18.6,3.2,19.5,4.1,19.8z"/>
	<path d="M8,9h8c0.3,0,0.5-0.2,0.5-0.5c0-1.5-0.8-2.9-1.9-3.7C13.9,5.5,13,6,12,6s-1.9-0.5-2.6-1.2C8.3,5.6,7.5,7,7.5,8.5
		C7.5,8.8,7.7,9,8,9z"/>
	<path d="M16.5,17.5c0,1.1,0.7,2,1.6,2.3c0,0,0,0,0.1,0s0.2,0.1,0.4,0.1c0.2,0,0.3,0,0.5,0s0.3,0,0.5,0c0.1,0,0.3-0.1,0.4-0.1
		c0,0,0,0,0.1,0c0.9-0.4,1.6-1.3,1.6-2.3c0-1.4-1.1-2.5-2.5-2.5S16.5,16.1,16.5,17.5z"/>
	<path d="M21.6,19.8C20.9,20.5,20,21,19,21s-1.9-0.5-2.6-1.2c-1.2,0.8-1.9,2.2-1.9,3.7c0,0.3,0.2,0.5,0.5,0.5h8
		c0.3,0,0.5-0.2,0.5-0.5C23.5,22,22.7,20.6,21.6,19.8z"/>
	<path d="M7.6,19.8C6.9,20.5,6,21,5,21s-1.9-0.5-2.6-1.2c-1.2,0.8-1.9,2.2-1.9,3.7C0.5,23.8,0.7,24,1,24h8c0.3,0,0.5-0.2,0.5-0.5
		C9.5,22,8.7,20.6,7.6,19.8z"/>
	<path d="M5,14c0.3,0,0.5-0.2,0.5-0.5V6H7c0.3,0,0.5-0.2,0.5-0.5S7.3,5,7,5H5C4.7,5,4.5,5.2,4.5,5.5v8C4.5,13.8,4.7,14,5,14z"/>
	<path d="M17,6h1.5v7.5c0,0.3,0.2,0.5,0.5,0.5s0.5-0.2,0.5-0.5v-8C19.5,5.2,19.3,5,19,5h-2c-0.3,0-0.5,0.2-0.5,0.5S16.7,6,17,6z"/>
</g>
</svg>
