<?xml version="1.0" encoding="utf-8"?>
<!-- Generator: Adobe Illustrator 19.0.0, SVG Export Plug-In . SVG Version: 6.00 Build 0)  -->
<svg version="1.1" id="Layer_1" xmlns="http://www.w3.org/2000/svg" xmlns:xlink="http://www.w3.org/1999/xlink" x="0px" y="0px"
	 viewBox="0 0 30 30" style="enable-background:new 0 0 30 30;" xml:space="preserve">
<g>
	<g>
		<path d="M6.5,27c-0.1,0-0.2,0-0.2-0.1c-0.2-0.1-0.3-0.4-0.2-0.7l4-7c0.1-0.2,0.4-0.3,0.7-0.2c0.2,0.1,0.3,0.4,0.2,0.7l-4,7
			C6.8,26.9,6.7,27,6.5,27z"/>
	</g>
	<g>
		<path d="M10.5,27c-0.1,0-0.2,0-0.2-0.1c-0.2-0.1-0.3-0.4-0.2-0.7l4-7c0.1-0.2,0.4-0.3,0.7-0.2c0.2,0.1,0.3,0.4,0.2,0.7l-4,7
			C10.8,26.9,10.7,27,10.5,27z"/>
	</g>
	<g>
		<path d="M14.5,27c-0.1,0-0.2,0-0.2-0.1c-0.2-0.1-0.3-0.4-0.2-0.7l4-7c0.1-0.2,0.4-0.3,0.7-0.2c0.2,0.1,0.3,0.4,0.2,0.7l-4,7
			C14.8,26.9,14.7,27,14.5,27z"/>
	</g>
	<g>
		<path d="M18.5,27c-0.1,0-0.2,0-0.2-0.1c-0.2-0.1-0.3-0.4-0.2-0.7l4-7c0.1-0.2,0.4-0.3,0.7-0.2c0.2,0.1,0.3,0.4,0.2,0.7l-4,7
			C18.8,26.9,18.7,27,18.5,27z"/>
	</g>
	<g>
		<path d="M23.2,22c-0.3,0-0.5-0.2-0.5-0.5c0-0.3,0.2-0.5,0.5-0.5c0,0,0.1,0,0.1,0c3.2-0.2,5.7-2.8,5.7-6c0-3.3-2.7-6-6-6
			c-0.6,0-1.2,0.1-1.7,0.3c-0.2,0.1-0.5,0-0.6-0.3c-1.4-3-4.3-5-7.6-5c-4.2,0-7.7,3.2-8.3,7.4c0,0.2-0.2,0.4-0.4,0.4
			c-2,0.5-3.5,2.4-3.5,4.5C1,18.9,3,21,5.5,21C5.8,21,6,21.2,6,21.5S5.8,22,5.5,22C2.5,22,0,19.5,0,16.4c0-2.5,1.6-4.7,3.9-5.4
			c0.7-4.6,4.6-8,9.2-8c3.5,0,6.7,2,8.3,5.2C21.9,8.1,22.5,8,23,8c3.9,0,7,3.1,7,7c0,3.7-2.9,6.8-6.6,7C23.3,22,23.3,22,23.2,22z"/>
	</g>
</g>
</svg>
