<?xml version="1.0" encoding="utf-8"?>
<!-- Generator: Adobe Illustrator 19.0.0, SVG Export Plug-In . SVG Version: 6.00 Build 0)  -->
<svg version="1.1" id="Layer_1" xmlns="http://www.w3.org/2000/svg" xmlns:xlink="http://www.w3.org/1999/xlink" x="0px" y="0px"
	 viewBox="0 0 24 24" style="enable-background:new 0 0 24 24;" xml:space="preserve">
<g>
	<circle cx="8.5" cy="21.5" r="2.5"/>
	<path d="M23.9,5.2C23.8,5.1,23.7,5,23.5,5h-2.9l0.6-0.6C21.7,3.9,22,3.3,22,2.6s-0.3-1.3-0.8-1.8c-0.8-0.8-2-1-3-0.5
		C18.1,0.4,18,0.5,18,0.7V5h-1V0.5C17,0.2,16.8,0,16.5,0h-4C12.2,0,12,0.2,12,0.5V5h-1V2.5c0-0.1-0.1-0.3-0.1-0.4l-2-2
		C8.7,0,8.3,0,8.1,0.1l-3,3C5,3.3,5,3.7,5.1,3.9L6.3,5H4.5L4,2.4C3.9,2.2,3.7,2,3.5,2h-3C0.2,2,0,2.2,0,2.5S0.2,3,0.5,3h2.6
		l2.4,12.2C5.9,16.8,7.3,18,9,18h11.5c0.3,0,0.5-0.2,0.5-0.5S20.8,17,20.5,17H9c-0.8,0-1.6-0.4-2-1.1l14.6-2c0.2,0,0.4-0.2,0.4-0.4
		l2-8C24,5.5,24,5.3,23.9,5.2z"/>
	<circle cx="18.5" cy="21.5" r="2.5"/>
</g>
</svg>
