<?xml version="1.0" encoding="utf-8"?>
<!-- Generator: Adobe Illustrator 19.0.0, SVG Export Plug-In . SVG Version: 6.00 Build 0)  -->
<svg version="1.1" id="Layer_1" xmlns="http://www.w3.org/2000/svg" xmlns:xlink="http://www.w3.org/1999/xlink" x="0px" y="0px"
	 viewBox="0 0 24 24" style="enable-background:new 0 0 24 24;" xml:space="preserve">
<g>
	<path d="M10,12.9H2c-0.3,0-0.5,0.2-0.5,0.5v7c0,1.4,1.1,2.5,2.5,2.5h6c0.3,0,0.5-0.2,0.5-0.5v-9C10.5,13.1,10.3,12.9,10,12.9z"/>
	<path d="M9.7,10.7c-0.2,0.1-0.5,0.2-0.7,0.2l0,0c-0.4,0-0.8-0.2-1-0.4c-0.3-0.3-0.4-0.7-0.4-1.1S7.8,8.6,8,8.3l0.7-0.7
		c0.1-0.1,0.2-0.3,0.1-0.4S8.7,7,8.5,6.9c-0.3-0.2-0.7-0.5-1-0.8C7.4,6,7.3,5.9,7.2,5.9H3C1.6,5.9,0.5,7,0.5,8.4v3
		c0,0.3,0.2,0.5,0.5,0.5h9c0.3,0,0.5-0.2,0.5-0.5v-0.3c0-0.2-0.1-0.3-0.3-0.4C10.1,10.6,9.9,10.6,9.7,10.7z"/>
	<path d="M22,12.9h-8c-0.3,0-0.5,0.2-0.5,0.5v9c0,0.3,0.2,0.5,0.5,0.5h6c1.4,0,2.5-1.1,2.5-2.5v-7C22.5,13.1,22.3,12.9,22,12.9z"/>
	<path d="M15,9.9c0.1,0,0.3,0,0.4-0.1c0.2-0.2,0.2-0.5,0-0.7l-2.3-2.3c2-0.4,3.6-1.8,4.2-3.8c0.1-0.4,0-0.9-0.2-1.3
		c-0.4-0.5-1-0.7-1.6-0.5c-1.6,0.5-2.8,1.6-3.4,3c-0.6-1.4-1.9-2.6-3.4-3C8,1,7.3,1.2,7,1.7C6.7,2.1,6.6,2.5,6.7,3
		c0.6,2,2.2,3.4,4.2,3.8L8.6,9.1c-0.2,0.2-0.2,0.5,0,0.7s0.5,0.2,0.7,0l2.1-2.1v14.8c0,0.3,0.2,0.5,0.5,0.5s0.5-0.2,0.5-0.5V7.6
		l2.1,2.1C14.7,9.9,14.9,9.9,15,9.9z M7.7,2.7c-0.1-0.2,0-0.3,0.1-0.4C7.9,2.2,8,2.1,8.2,2.1h0.1c1.7,0.5,3,2,3.2,3.8
		C9.7,5.7,8.2,4.4,7.7,2.7z M15.7,2.1h0.1c0.1,0,0.3,0.1,0.4,0.2c0.1,0.1,0.1,0.2,0.1,0.4c-0.5,1.7-2,3-3.8,3.2
		C12.7,4.1,14,2.6,15.7,2.1z"/>
	<path d="M21,5.9h-4.2c-0.1,0-0.3,0-0.3,0.1c-0.4,0.3-0.7,0.6-1,0.8c-0.1,0.1-0.2,0.2-0.2,0.4s0,0.3,0.1,0.4l0.7,0.7
		c0.3,0.3,0.4,0.7,0.4,1.1s-0.2,0.8-0.4,1.1c-0.3,0.3-0.7,0.4-1.1,0.4c-0.3,0-0.5-0.1-0.7-0.2c-0.2-0.1-0.3-0.1-0.5,0
		s-0.3,0.3-0.3,0.4v0.3c0,0.3,0.2,0.5,0.5,0.5h9c0.3,0,0.5-0.2,0.5-0.5v-3C23.5,7,22.4,5.9,21,5.9z"/>
</g>
</svg>
