<?xml version="1.0" encoding="utf-8"?>
<!-- Generator: Adobe Illustrator 19.0.0, SVG Export Plug-In . SVG Version: 6.00 Build 0)  -->
<svg version="1.1" id="Layer_1" xmlns="http://www.w3.org/2000/svg" xmlns:xlink="http://www.w3.org/1999/xlink" x="0px" y="0px"
	 viewBox="0 0 24 24" style="enable-background:new 0 0 24 24;" xml:space="preserve">
<g>
	<circle cx="11" cy="14.5" r="3"/>
	<path d="M23,6.5h-4.5V4c0-1.9-1.6-3.5-3.5-3.5H9C7.1,0.5,5.5,2.1,5.5,4v2.5H1C0.7,6.5,0.5,6.7,0.5,7v16c0,0.3,0.2,0.5,0.5,0.5h22
		c0.3,0,0.5-0.2,0.5-0.5V7C23.5,6.7,23.3,6.5,23,6.5z M16.9,20.4c-0.1,0.1-0.2,0.1-0.4,0.1s-0.3,0-0.4-0.1l-2.7-2.7
		c-0.7,0.5-1.5,0.9-2.4,0.9c-2.2,0-4-1.8-4-4s1.8-4,4-4s4,1.8,4,4c0,0.9-0.3,1.8-0.9,2.4l2.7,2.7C17,19.8,17,20.2,16.9,20.4z
		 M17.5,10c0,0.3-0.2,0.5-0.5,0.5s-0.5-0.2-0.5-0.5V6.5h-9V10c0,0.3-0.2,0.5-0.5,0.5S6.5,10.3,6.5,10V4c0-1.4,1.1-2.5,2.5-2.5h6
		c1.4,0,2.5,1.1,2.5,2.5V10z"/>
</g>
</svg>
