<?xml version="1.0" encoding="utf-8"?>
<!-- Generator: Adobe Illustrator 19.0.0, SVG Export Plug-In . SVG Version: 6.00 Build 0)  -->
<svg version="1.1" id="Layer_1" xmlns="http://www.w3.org/2000/svg" xmlns:xlink="http://www.w3.org/1999/xlink" x="0px" y="0px"
	 viewBox="0 0 24 24" style="enable-background:new 0 0 24 24;" xml:space="preserve">
<g>
	<path d="M22.8,8.3l-4.2-3.5C18,4.3,17.3,4,16.5,4h-10C5.6,4,4.8,4.4,4.3,5h3.2C7.8,5,8,5.2,8,5.5S7.8,6,7.5,6h-7C0.2,6,0,6.2,0,6.5
		S0.2,7,0.5,7h2.7L2.7,8h2.8C5.8,8,6,8.2,6,8.5S5.8,9,5.5,9h-5C0.2,9,0,9.2,0,9.5S0.2,10,0.5,10h1.2l-0.5,1h2.3
		C3.8,11,4,11.2,4,11.5S3.8,12,3.5,12h-3C0.2,12,0,12.2,0,12.5c0,0.2,0.1,0.3,0.3,0.4C0.1,13.3,0,13.7,0,14.1c0,1,0.5,1.9,1.3,2.4
		c0.1,0.1,0.3,0.1,0.5,0C1.9,16.4,2,16.3,2,16.1C2.2,13.8,4.2,12,6.5,12C9,12,11,14,11,16.5c0,0.3,0.2,0.5,0.5,0.5h1
		c0.3,0,0.5-0.2,0.5-0.5c0-2.5,2-4.5,4.5-4.5c2,0,3.7,1.3,4.3,3.2c0.1,0.2,0.2,0.3,0.4,0.3c0.2,0,0.4-0.1,0.5-0.3l0.5-1
		c0.5-1,0.8-2.2,0.8-3.4C24,9.8,23.6,8.9,22.8,8.3z M22,10.7c-0.1,0.2-0.3,0.3-0.5,0.3h-6c-0.2,0-0.3-0.1-0.4-0.2
		C15,10.7,15,10.5,15,10.4l1-4c0-0.2,0.2-0.3,0.3-0.4c0.2-0.1,0.3,0,0.5,0.1l5,4C22,10.2,22,10.5,22,10.7z"/>
	<path d="M6.5,13C4.6,13,3,14.6,3,16.5S4.6,20,6.5,20s3.5-1.6,3.5-3.5S8.4,13,6.5,13z"/>
	<path d="M17.5,13c-1.9,0-3.5,1.6-3.5,3.5s1.6,3.5,3.5,3.5s3.5-1.6,3.5-3.5S19.4,13,17.5,13z"/>
</g>
</svg>
