<?xml version="1.0" encoding="utf-8"?>
<!-- Generator: Adobe Illustrator 19.0.0, SVG Export Plug-In . SVG Version: 6.00 Build 0)  -->
<svg version="1.1" id="Layer_1" xmlns="http://www.w3.org/2000/svg" xmlns:xlink="http://www.w3.org/1999/xlink" x="0px" y="0px"
	 viewBox="0 0 30 30" style="enable-background:new 0 0 30 30;" xml:space="preserve">
<g>
	<path d="M15,12.5c-3.6,0-6.5,2.9-6.5,6.5s2.9,6.5,6.5,6.5s6.5-2.9,6.5-6.5S18.6,12.5,15,12.5z M9.5,19c0-1.3,0.5-2.6,1.3-3.5
		l7.7,7.7c-1,0.8-2.2,1.3-3.5,1.3C12,24.5,9.5,22,9.5,19z M19.2,22.5l-7.7-7.7c1-0.8,2.2-1.3,3.5-1.3c3,0,5.5,2.5,5.5,5.5
		C20.5,20.3,20,21.6,19.2,22.5z"/>
	<path d="M29,8.5h-5.5V4.7c0-2.3-2-4.2-4.5-4.2h-8c-2.5,0-4.5,1.9-4.5,4.2v3.8H1C0.7,8.5,0.5,8.7,0.5,9v20c0,0.3,0.2,0.5,0.5,0.5h28
		c0.3,0,0.5-0.2,0.5-0.5V9C29.5,8.7,29.3,8.5,29,8.5z M15,26.5c-4.1,0-7.5-3.4-7.5-7.5s3.4-7.5,7.5-7.5s7.5,3.4,7.5,7.5
		S19.1,26.5,15,26.5z M22.5,8.5V12c0,0.3-0.2,0.5-0.5,0.5s-0.5-0.2-0.5-0.5V8.5h-13V12c0,0.3-0.2,0.5-0.5,0.5S7.5,12.3,7.5,12V8.5
		V4.7c0-1.7,1.6-3.2,3.5-3.2h8c1.9,0,3.5,1.4,3.5,3.2V8.5z"/>
</g>
</svg>
