<?xml version="1.0" encoding="utf-8"?>
<!-- Generator: Adobe Illustrator 19.0.0, SVG Export Plug-In . SVG Version: 6.00 Build 0)  -->
<svg version="1.1" id="Layer_1" xmlns="http://www.w3.org/2000/svg" xmlns:xlink="http://www.w3.org/1999/xlink" x="0px" y="0px"
	 viewBox="0 0 30 30" style="enable-background:new 0 0 30 30;" xml:space="preserve">
<g>
	<circle cx="10.5" cy="26.5" r="3"/>
	<circle cx="23.5" cy="26.5" r="3"/>
	<path d="M27.4,11.8c-0.9,0.5-1.9,0.7-2.9,0.7c-3.2,0-6-2.4-6.4-5.6c0-0.2-0.2-0.4-0.5-0.4H5.4L4.7,2.9c0-0.2-0.3-0.4-0.5-0.4H0.5
		C0.2,2.5,0,2.7,0,3s0.2,0.5,0.5,0.5h3.3l0.7,3.4c0,0.1,0,0.1,0,0.2l0.6,3L6.9,19c0.4,2,2.1,3.5,4.2,3.5h14.4c0.3,0,0.5-0.2,0.5-0.5
		s-0.2-0.5-0.5-0.5H11.1c-1.3,0-2.5-0.8-3-2.1l18.5-2.3c0.2,0,0.4-0.2,0.4-0.4l1.1-4.3c0.1-0.2,0-0.4-0.2-0.5
		C27.8,11.8,27.6,11.7,27.4,11.8z"/>
	<path d="M24.5,0.5c-0.4,0-1,1-1.3,3h2.6C25.5,1.5,24.9,0.5,24.5,0.5z"/>
	<path d="M28.5,3.5c0.2,0,0.4-0.1,0.4-0.3c0.1-0.2,0.1-0.4,0-0.5c-0.7-1-1.7-1.6-2.9-2c0.4,0.7,0.6,1.7,0.8,2.8L28.5,3.5L28.5,3.5z"
		/>
	<path d="M20.5,3.5h1.7c0.2-1.1,0.4-2.1,0.8-2.8c-1.1,0.3-2.1,1-2.9,2c-0.1,0.2-0.1,0.4,0,0.5C20.2,3.4,20.3,3.5,20.5,3.5z"/>
	<path d="M29.9,4.9c0-0.2-0.3-0.4-0.5-0.4h-2.5C27,5,27,5.5,27,6s0,1-0.1,1.5h2.5c0.2,0,0.4-0.2,0.5-0.4C30,6.7,30,6.4,30,6
		S30,5.3,29.9,4.9z"/>
	<path d="M25.9,7.5C26,7,26,6.5,26,6s0-1-0.1-1.5h-2.9C23,5,23,5.5,23,6s0,1,0.1,1.5H25.9z"/>
	<path d="M19.6,7.5h2.5C22,7,22,6.5,22,6s0-1,0.1-1.5h-2.5c-0.2,0-0.4,0.2-0.5,0.4C19,5.3,19,5.6,19,6s0,0.7,0.1,1.1
		C19.2,7.3,19.4,7.5,19.6,7.5z"/>
	<path d="M24.5,11.5c0.4,0,1-1,1.3-3h-2.6C23.5,10.5,24.1,11.5,24.5,11.5z"/>
	<path d="M20.5,8.5c-0.2,0-0.4,0.1-0.4,0.3c-0.1,0.2-0.1,0.4,0,0.5c0.7,1,1.7,1.6,2.9,2c-0.4-0.7-0.6-1.7-0.8-2.8L20.5,8.5L20.5,8.5
		z"/>
	<path d="M28.5,8.5h-1.7c-0.2,1.1-0.4,2.1-0.8,2.8c1.1-0.3,2.1-1,2.9-2c0.1-0.2,0.1-0.4,0-0.5C28.8,8.6,28.7,8.5,28.5,8.5z"/>
</g>
</svg>
