<?xml version="1.0" encoding="utf-8"?>
<!-- Generator: Adobe Illustrator 19.0.0, SVG Export Plug-In . SVG Version: 6.00 Build 0)  -->
<svg version="1.1" id="Layer_1" xmlns="http://www.w3.org/2000/svg" xmlns:xlink="http://www.w3.org/1999/xlink" x="0px" y="0px"
	 viewBox="0 0 30 30" style="enable-background:new 0 0 30 30;" xml:space="preserve">
<g>
	<path d="M29.6,18.2l-5-1.2c-0.1,0-0.2,0-0.2,0l-5,1.2c-0.2,0.1-0.4,0.3-0.4,0.5v7.2c0,1.8,4.1,3.6,5.3,4.1c0.1,0,0.1,0,0.2,0
		s0.1,0,0.2,0c1.2-0.5,5.3-2.3,5.3-4.1v-7.2C30,18.5,29.8,18.3,29.6,18.2z M28,25.8c0,0.1-0.1,0.3-0.2,0.4c-0.6,0.5-1.8,1.2-3.1,1.8
		c-0.1,0-0.1,0-0.2,0c-0.1,0-0.2,0-0.3-0.1c-0.1-0.1-0.2-0.3-0.2-0.4v-3.4h-2.5c-0.3,0-0.5-0.2-0.5-0.5v-3.4c0-0.2,0.2-0.4,0.4-0.5
		l3-0.7c0.2,0,0.3,0,0.4,0.1c0.1,0.1,0.2,0.2,0.2,0.4v3.6h2.5c0.3,0,0.5,0.2,0.5,0.5C28,23.6,28,25.8,28,25.8z"/>
	<circle cx="10.5" cy="21.5" r="1.5"/>
	<circle cx="15.5" cy="21.5" r="1.5"/>
	<path d="M27.5,0h-25C1.1,0,0,1.1,0,2.5v2v23C0,28.9,1.1,30,2.5,30h17.6c0,0,0,0,0,0c0.3,0,0.5-0.2,0.5-0.5c0-0.2-0.1-0.4-0.3-0.5
		C18.8,28,18,27,18,25.9v-7.2c0-0.7,0.5-1.3,1.1-1.5l5-1.2c0.2-0.1,0.5-0.1,0.7,0l4.5,1.1c0.1,0,0.3,0,0.4-0.1
		c0.1-0.1,0.2-0.2,0.2-0.4V4.5v-2C30,1.1,28.9,0,27.5,0z M6.5,2C6.8,2,7,2.2,7,2.5S6.8,3,6.5,3S6,2.8,6,2.5S6.2,2,6.5,2z M4.5,2
		C4.8,2,5,2.2,5,2.5S4.8,3,4.5,3S4,2.8,4,2.5S4.2,2,4.5,2z M2.5,2C2.8,2,3,2.2,3,2.5S2.8,3,2.5,3S2,2.8,2,2.5S2.2,2,2.5,2z M29,16
		l-3.9-0.9c-0.4-0.1-0.8-0.1-1.2,0l-4.6,1.1l0.7-4.6c0-0.1,0-0.3-0.1-0.4c-0.1-0.1-0.2-0.2-0.4-0.2h-13c0,0,0,0-0.1,0L6,9.4
		C5.9,9.2,5.7,9,5.5,9h-2C3.2,9,3,9.2,3,9.5S3.2,10,3.5,10h1.6L8,20.6C8.1,20.9,8.3,21,8.5,21c0,0,0.1,0,0.1,0
		c0.3-0.1,0.4-0.3,0.4-0.6l-0.7-2.5l9.5-1C17.3,17.4,17,18,17,18.7v2.8v4.4c0,1.1,0.5,2.1,1.6,3.1H2.5C1.7,29,1,28.3,1,27.5V5h28V16
		z"/>
</g>
</svg>
