<?xml version="1.0" encoding="utf-8"?>
<!-- Generator: Adobe Illustrator 19.0.0, SVG Export Plug-In . SVG Version: 6.00 Build 0)  -->
<svg version="1.1" id="Layer_1" xmlns="http://www.w3.org/2000/svg" xmlns:xlink="http://www.w3.org/1999/xlink" x="0px" y="0px"
	 viewBox="0 0 30 30" style="enable-background:new 0 0 30 30;" xml:space="preserve">
<g>
	<path d="M13.9,0.3l-2.1,0.6c-0.1,0-0.2,0.1-0.3,0.3c-0.1,0.1-0.1,0.3,0,0.4c0.1,0.2,0.1,0.3,0.1,0.5v12.5c0,0.4-0.2,0.8-0.4,1.1
		l-1,1c-0.5,0.5-1.3,0.6-1.9,0.2l-0.4-0.3c-0.2-0.1-0.4-0.1-0.6,0l-0.4,0.3c-0.6,0.4-1.4,0.3-1.9-0.2l-1-1c-0.3-0.3-0.4-0.7-0.4-1.1
		V3.7c0-0.2-0.1-0.3-0.2-0.4C3.2,3.2,3,3.2,2.9,3.3l-2,0.5C0.7,3.9,0.5,4.1,0.5,4.3v21.4c0,0.2,0.2,0.4,0.4,0.5l13,3.5
		c0,0,0.1,0,0.1,0c0.1,0,0.2,0,0.3-0.1c0.1-0.1,0.2-0.2,0.2-0.4V0.8c0-0.2-0.1-0.3-0.2-0.4C14.2,0.3,14,0.2,13.9,0.3z M12.4,22.9
		C12.3,23,12.1,23,12,23s-0.3,0-0.4-0.1l-1.1-1.1v2.8c0,0.3-0.2,0.5-0.5,0.5s-0.5-0.2-0.5-0.5v-2.8l-1.1,1.1c-0.2,0.2-0.5,0.2-0.7,0
		s-0.2-0.5,0-0.7l2-2c0,0,0.1-0.1,0.2-0.1c0.1-0.1,0.3-0.1,0.4,0c0.1,0,0.1,0.1,0.2,0.1l2,2C12.5,22.3,12.5,22.7,12.4,22.9z"/>
	<path d="M29.1,3.8l-2-0.5c-0.2,0-0.3,0-0.4,0.1c-0.1,0.1-0.2,0.2-0.2,0.4v10.8c0,0.4-0.2,0.8-0.4,1.1l-1,1
		c-0.5,0.5-1.3,0.6-1.9,0.2l-0.4-0.3c-0.2-0.1-0.4-0.1-0.6,0l-0.4,0.3c-0.6,0.4-1.4,0.3-1.9-0.2l-1-1c-0.3-0.3-0.4-0.7-0.4-1.1V2
		c0-0.2,0-0.3,0.1-0.5c0-0.1,0-0.3,0-0.4c-0.1-0.1-0.2-0.2-0.3-0.3l-2.1-0.6c-0.2,0-0.3,0-0.4,0.1c-0.1,0.1-0.2,0.2-0.2,0.4v28.5
		c0,0.2,0.1,0.3,0.2,0.4c0.1,0.1,0.2,0.1,0.3,0.1c0,0,0.1,0,0.1,0l13-3.5c0.2-0.1,0.4-0.3,0.4-0.5V4.3C29.5,4.1,29.3,3.9,29.1,3.8z
		 M21.6,24l-3.5,1c0,0-0.1,0-0.1,0c-0.2,0-0.4-0.1-0.5-0.4c-0.1-0.3,0.1-0.5,0.3-0.6l3.5-1c0.3-0.1,0.5,0.1,0.6,0.3
		C22.1,23.6,21.9,23.9,21.6,24z"/>
	<path d="M20.6,15.9c0.2,0.2,0.4,0.2,0.6,0.1l1.2-0.8l1.2,0.8C23.8,16,23.9,16,24,16c0.1,0,0.3-0.1,0.4-0.1l1-1
		c0.1-0.1,0.1-0.2,0.1-0.4v-11c0-0.2-0.1-0.4-0.4-0.5l-5-1.5c-0.2,0-0.3,0-0.4,0.1c-0.1,0.1-0.2,0.2-0.2,0.4v12.5
		c0,0.1,0.1,0.3,0.1,0.4L20.6,15.9z"/>
	<path d="M5.6,15.9C5.8,16,6.1,16,6.3,15.9l1.2-0.8l1.2,0.8C8.8,16,8.9,16,9,16c0.1,0,0.3-0.1,0.4-0.1l1-1c0.1-0.1,0.1-0.2,0.1-0.4
		V2c0-0.2-0.1-0.3-0.2-0.4S10,1.5,9.9,1.5L4.9,3C4.6,3.1,4.5,3.3,4.5,3.5v11c0,0.1,0.1,0.3,0.1,0.4L5.6,15.9z"/>
</g>
</svg>
