<?xml version="1.0" encoding="iso-8859-1"?>
<!-- Generator: Adobe Illustrator 19.0.0, SVG Export Plug-In . SVG Version: 6.00 Build 0)  -->
<svg version="1.1" id="Layer_1" xmlns="http://www.w3.org/2000/svg" xmlns:xlink="http://www.w3.org/1999/xlink" x="0px" y="0px"
	 viewBox="0 0 30 30" style="enable-background:new 0 0 30 30;" xml:space="preserve">
<g>
	<g>
		<path d="M29.635,21.39c-0.044-0.134-0.142-0.242-0.27-0.299c-0.127-0.057-0.274-0.058-0.403-0.003
			c-0.332,0.141-0.696,0.024-0.869-0.282c-0.175-0.31-0.089-0.71,0.201-0.933c0.109-0.083,0.179-0.208,0.193-0.345
			c0.013-0.138-0.029-0.274-0.119-0.378c-0.965-1.12-2.207-1.86-3.593-2.141c-0.138-0.028-0.282,0.003-0.396,0.088
			c-0.114,0.084-0.187,0.212-0.201,0.353C24.138,17.855,23.801,18,23.5,18s-0.638-0.145-0.677-0.55
			c-0.014-0.141-0.087-0.269-0.201-0.353s-0.259-0.115-0.396-0.088c-1.386,0.282-2.629,1.021-3.593,2.141
			c-0.09,0.105-0.133,0.24-0.119,0.378c0.014,0.137,0.084,0.262,0.193,0.345c0.289,0.223,0.376,0.623,0.201,0.933
			c-0.173,0.305-0.537,0.424-0.869,0.282c-0.131-0.056-0.276-0.055-0.403,0.003c-0.128,0.057-0.226,0.165-0.27,0.299
			C17.12,22.132,17,22.822,17,23.5s0.12,1.368,0.365,2.11c0.044,0.134,0.142,0.242,0.27,0.299c0.128,0.058,0.274,0.06,0.403,0.003
			c0.33-0.143,0.696-0.024,0.869,0.282c0.175,0.31,0.089,0.71-0.201,0.933c-0.109,0.083-0.179,0.208-0.193,0.345
			c-0.013,0.138,0.029,0.274,0.119,0.378c0.965,1.12,2.207,1.86,3.593,2.141c0.136,0.027,0.282-0.004,0.396-0.088
			c0.114-0.084,0.187-0.212,0.201-0.353C22.862,29.145,23.199,29,23.5,29s0.638,0.145,0.678,0.549
			c0.014,0.141,0.087,0.269,0.201,0.353C24.466,29.967,24.57,30,24.676,30c0.033,0,0.066-0.003,0.098-0.009
			c1.386-0.282,2.629-1.021,3.593-2.141c0.09-0.105,0.133-0.24,0.119-0.378c-0.014-0.137-0.084-0.262-0.193-0.345
			c-0.289-0.222-0.375-0.623-0.201-0.933c0.174-0.304,0.539-0.423,0.869-0.282c0.129,0.055,0.275,0.054,0.403-0.003
			s0.226-0.165,0.27-0.299C29.88,24.868,30,24.178,30,23.5S29.88,22.132,29.635,21.39z M28.814,24.859
			c-0.642-0.06-1.264,0.262-1.593,0.843c-0.327,0.579-0.277,1.288,0.087,1.82c-0.656,0.656-1.434,1.125-2.288,1.377
			C24.755,28.351,24.19,28,23.5,28s-1.255,0.351-1.52,0.899c-0.853-0.252-1.632-0.721-2.288-1.377
			c0.363-0.532,0.413-1.241,0.086-1.82c-0.328-0.581-0.95-0.901-1.593-0.843C18.061,24.385,18,23.937,18,23.5
			s0.061-0.885,0.185-1.359c0.635,0.053,1.264-0.262,1.594-0.843c0.327-0.579,0.277-1.288-0.087-1.82
			c0.656-0.656,1.434-1.125,2.288-1.377C22.245,18.649,22.81,19,23.5,19s1.255-0.351,1.52-0.899
			c0.853,0.252,1.632,0.721,2.288,1.377c-0.363,0.532-0.413,1.241-0.086,1.82c0.328,0.581,0.953,0.898,1.593,0.843
			C28.939,22.615,29,23.062,29,23.5S28.939,24.385,28.814,24.859z M23.5,20c-1.93,0-3.5,1.57-3.5,3.5s1.57,3.5,3.5,3.5
			s3.5-1.57,3.5-3.5S25.43,20,23.5,20z M23.5,26c-1.378,0-2.5-1.121-2.5-2.5c0-1.379,1.122-2.5,2.5-2.5s2.5,1.121,2.5,2.5
			C26,24.879,24.878,26,23.5,26z M16.908,27.642C15.494,27.88,14.011,28,12.5,28C5.621,28,1,25.673,1,23.5V19.69
			C2.889,21.654,7.271,23,12.5,23c1.068,0,2.125-0.058,3.141-0.17c0.275-0.031,0.472-0.278,0.442-0.553
			c-0.03-0.273-0.272-0.464-0.552-0.441C14.552,21.945,13.532,22,12.5,22C5.621,22,1,19.673,1,17.5V13.69
			C2.889,15.654,7.271,17,12.5,17c5.229,0,9.611-1.346,11.5-3.309v1.878c0,0.276,0.224,0.5,0.5,0.5s0.5-0.223,0.5-0.5V5.5
			C25,2.416,19.509,0,12.5,0C5.491,0,0,2.416,0,5.5v18C0,26.584,5.491,29,12.5,29c1.566,0,3.105-0.125,4.574-0.372
			c0.272-0.046,0.456-0.304,0.41-0.576C17.438,27.78,17.181,27.592,16.908,27.642z M12.5,1c6.863,0,11.477,2.331,11.498,4.515
			C23.977,7.683,19.363,10,12.5,10C5.637,10,1.023,7.683,1.002,5.515C1.023,3.332,5.637,1,12.5,1z M1,7.733
			c1.889,1.974,6.271,3.327,11.5,3.327c5.229,0,9.611-1.353,11.5-3.328V11.5c0,2.173-4.621,4.5-11.5,4.5C5.621,16,1,13.673,1,11.5
			V7.733z"/>
	</g>
</g>
</svg>
