<?xml version="1.0" encoding="iso-8859-1"?>
<!-- Generator: Adobe Illustrator 19.0.0, SVG Export Plug-In . SVG Version: 6.00 Build 0)  -->
<svg version="1.1" id="Layer_1" xmlns="http://www.w3.org/2000/svg" xmlns:xlink="http://www.w3.org/1999/xlink" x="0px" y="0px"
	 viewBox="0 0 30 30" style="enable-background:new 0 0 30 30;" xml:space="preserve">
<g>
	<g>
		<path d="M20.001,27.404c-0.08-0.264-0.36-0.415-0.623-0.334C17.36,27.679,14.982,28,12.5,28C5.621,28,1,25.673,1,23.5v-3.809
			C2.889,21.654,7.27,23,12.5,23s9.611-1.346,11.5-3.309V21.5c0,0.276,0.224,0.5,0.5,0.5s0.5-0.224,0.5-0.5v-16
			C25,2.416,19.51,0,12.5,0S0,2.416,0,5.5v18C0,26.584,5.49,29,12.5,29c2.579,0,5.057-0.336,7.167-0.973
			C19.932,27.948,20.081,27.669,20.001,27.404z M12.5,1c6.863,0,11.477,2.332,11.498,4.515C23.977,7.684,19.363,10,12.5,10
			C5.637,10,1.023,7.684,1.002,5.515C1.023,3.332,5.637,1,12.5,1z M1,7.734c1.889,1.974,6.27,3.327,11.5,3.327
			S22.111,9.708,24,7.734V11.5c0,2.173-4.621,4.5-11.5,4.5C5.621,16,1,13.673,1,11.5V7.734z M1,13.691C2.889,15.654,7.27,17,12.5,17
			s9.611-1.346,11.5-3.309V17.5c0,2.173-4.621,4.5-11.5,4.5C5.621,22,1,19.673,1,17.5V13.691z M29.5,24h-2l2.4-3.2
			c0.113-0.151,0.132-0.354,0.047-0.523c-0.085-0.169-0.258-0.276-0.447-0.276h-3c-0.276,0-0.5,0.224-0.5,0.5s0.224,0.5,0.5,0.5h2
			l-2.4,3.2c-0.113,0.151-0.132,0.354-0.047,0.523C26.138,24.893,26.311,25,26.5,25h3c0.276,0,0.5-0.224,0.5-0.5S29.776,24,29.5,24z
			 M25.501,29h-3.933l4.316-5.18c0.125-0.149,0.151-0.356,0.069-0.532C25.87,23.112,25.694,23,25.5,23h-5
			c-0.276,0-0.5,0.224-0.5,0.5s0.224,0.5,0.5,0.5h3.932l-4.316,5.18c-0.125,0.149-0.151,0.356-0.069,0.532
			C20.13,29.888,20.306,30,20.5,30h5c0.276,0,0.501-0.224,0.501-0.5S25.777,29,25.501,29z"/>
	</g>
</g>
</svg>
