<?xml version="1.0" encoding="iso-8859-1"?>
<!-- Generator: Adobe Illustrator 19.0.0, SVG Export Plug-In . SVG Version: 6.00 Build 0)  -->
<svg version="1.1" id="Layer_1" xmlns="http://www.w3.org/2000/svg" xmlns:xlink="http://www.w3.org/1999/xlink" x="0px" y="0px"
	 viewBox="0 0 30 30" style="enable-background:new 0 0 30 30;" xml:space="preserve">
<g>
	<g>
		<path d="M16.908,27.642C15.495,27.88,14.012,28,12.5,28C5.621,28,1,25.673,1,23.5v-3.809C2.889,21.654,7.27,23,12.5,23
			c1.068,0,2.126-0.058,3.142-0.17c0.275-0.031,0.472-0.278,0.442-0.552c-0.031-0.275-0.283-0.472-0.552-0.442
			C14.552,21.945,13.531,22,12.5,22C5.621,22,1,19.673,1,17.5v-3.809C2.889,15.654,7.27,17,12.5,17s9.611-1.346,11.5-3.309v1.878
			c0,0.276,0.224,0.5,0.5,0.5s0.5-0.223,0.5-0.5V5.5C25,2.416,19.51,0,12.5,0S0,2.416,0,5.5v18C0,26.584,5.49,29,12.5,29
			c1.567,0,3.105-0.125,4.574-0.372c0.272-0.046,0.456-0.304,0.41-0.576C17.438,27.78,17.177,27.598,16.908,27.642z M12.5,1
			c6.863,0,11.477,2.332,11.498,4.515C23.977,7.684,19.363,10,12.5,10C5.637,10,1.023,7.684,1.002,5.515C1.023,3.332,5.637,1,12.5,1
			z M1,7.734c1.889,1.974,6.27,3.327,11.5,3.327S22.111,9.708,24,7.734V11.5c0,2.173-4.621,4.5-11.5,4.5C5.621,16,1,13.673,1,11.5
			V7.734z M29.991,23.69C29.996,23.627,30,23.564,30,23.5c0-3.584-2.916-6.5-6.5-6.5S17,19.916,17,23.5s2.916,6.5,6.5,6.5
			c1.795,0,3.516-0.752,4.746-2.068c0.137-0.083,0.229-0.235,0.237-0.412c0.012-0.266-0.204-0.498-0.471-0.522
			c-0.157-0.009-0.313,0.048-0.418,0.165C26.549,28.33,25.057,29,23.5,29c-3.032,0-5.5-2.468-5.5-5.5s2.468-5.5,5.5-5.5
			s5.5,2.468,5.5,5.5l-0.006,0.12c0,0.004-0.006,0.096-0.006,0.1c-0.001,0.027,0.009,0.05,0.012,0.075V24c0,0.552-0.448,1-1,1
			s-1-0.448-1-1v-0.5c0-1.93-1.57-3.5-3.5-3.5S20,21.57,20,23.5s1.57,3.5,3.5,3.5c1.271,0,2.376-0.688,2.989-1.705
			C26.856,25.723,27.393,26,28,26c1.103,0,2-0.897,2-2v-0.257c0-0.017-0.008-0.032-0.01-0.049
			C29.99,23.692,29.991,23.691,29.991,23.69z M23.5,26c-1.379,0-2.5-1.121-2.5-2.5c0-1.379,1.121-2.5,2.5-2.5
			c1.379,0,2.5,1.121,2.5,2.5C26,24.879,24.879,26,23.5,26z"/>
	</g>
</g>
</svg>
