<?xml version="1.0" encoding="iso-8859-1"?>
<!-- Generator: Adobe Illustrator 19.0.0, SVG Export Plug-In . SVG Version: 6.00 Build 0)  -->
<svg version="1.1" id="Layer_1" xmlns="http://www.w3.org/2000/svg" xmlns:xlink="http://www.w3.org/1999/xlink" x="0px" y="0px"
	 viewBox="0 0 30 30" style="enable-background:new 0 0 30 30;" xml:space="preserve">
<g>
	<g>
		<path d="M16.908,27.642C15.494,27.88,14.011,28,12.5,28C5.621,28,1,25.673,1,23.5v-3.809C2.889,21.654,7.271,23,12.5,23
			c1.068,0,2.125-0.058,3.141-0.17c0.275-0.031,0.472-0.278,0.442-0.553c-0.03-0.273-0.276-0.464-0.552-0.441
			C14.552,21.945,13.532,22,12.5,22C5.621,22,1,19.673,1,17.5v-3.809C2.889,15.654,7.271,17,12.5,17c5.229,0,9.611-1.346,11.5-3.309
			v1.878c0,0.276,0.224,0.5,0.5,0.5s0.5-0.223,0.5-0.5V5.5C25,2.416,19.509,0,12.5,0C5.491,0,0,2.416,0,5.5v18
			C0,26.584,5.491,29,12.5,29c1.566,0,3.105-0.125,4.574-0.372c0.272-0.046,0.456-0.304,0.41-0.576
			C17.439,27.78,17.181,27.592,16.908,27.642z M12.5,1c6.863,0,11.477,2.332,11.498,4.515C23.977,7.684,19.363,10,12.5,10
			C5.637,10,1.023,7.684,1.002,5.515C1.023,3.332,5.637,1,12.5,1z M1,7.734c1.889,1.974,6.271,3.327,11.5,3.327
			c5.229,0,9.611-1.353,11.5-3.327V11.5c0,2.173-4.621,4.5-11.5,4.5C5.621,16,1,13.673,1,11.5V7.734z M23.5,17
			c-1.787,0-3.408,0.726-4.585,1.897c-0.003,0.003-0.008,0.004-0.011,0.008c-0.003,0.003-0.005,0.008-0.008,0.012
			C17.725,20.093,17,21.713,17,23.5c0,3.584,2.916,6.5,6.5,6.5c1.785,0,3.404-0.724,4.58-1.894c0.005-0.004,0.011-0.006,0.016-0.01
			c0.005-0.005,0.006-0.011,0.01-0.016C29.276,26.904,30,25.285,30,23.5C30,19.916,27.084,17,23.5,17z M23.5,29
			c-3.033,0-5.5-2.468-5.5-5.5c0-1.336,0.48-2.562,1.276-3.516l7.741,7.74C26.063,28.52,24.837,29,23.5,29z M27.724,27.017
			l-7.741-7.74C20.937,18.481,22.163,18,23.5,18c3.033,0,5.5,2.468,5.5,5.5C29,24.836,28.52,26.063,27.724,27.017z"/>
	</g>
</g>
</svg>
