<?xml version="1.0" encoding="iso-8859-1"?>
<!-- Generator: Adobe Illustrator 19.0.0, SVG Export Plug-In . SVG Version: 6.00 Build 0)  -->
<svg version="1.1" id="Layer_1" xmlns="http://www.w3.org/2000/svg" xmlns:xlink="http://www.w3.org/1999/xlink" x="0px" y="0px"
	 viewBox="0 0 30 30" style="enable-background:new 0 0 30 30;" xml:space="preserve">
<g>
	<g>
		<path d="M4.325,21.687c0.058,0.022,0.117,0.032,0.175,0.032c0.203,0,0.394-0.124,0.468-0.326c0.097-0.259-0.034-0.547-0.293-0.643
			C2.339,19.878,1,18.694,1,17.499V13.7c1.06,1.102,2.925,2.023,5.415,2.62c0.039,0.01,0.078,0.014,0.117,0.014
			c0.226,0,0.431-0.154,0.486-0.383c0.064-0.269-0.101-0.539-0.37-0.603C3.217,14.525,1,13.015,1,11.5V7.733
			c1.889,1.974,6.271,3.327,11.5,3.327c5.229,0,9.611-1.353,11.5-3.327V11.5c0,1.332-1.672,2.649-4.471,3.523
			c-0.264,0.082-0.411,0.362-0.329,0.626C19.267,15.863,19.465,16,19.678,16c0.05,0,0.1-0.007,0.149-0.023
			c1.893-0.591,3.302-1.386,4.173-2.299V15.5c0,0.276,0.224,0.5,0.5,0.5s0.5-0.224,0.5-0.5v-10C25,2.416,19.509,0,12.5,0
			C5.493,0,0.003,2.415,0,5.498c0,0,0,0.001,0,0.001v18c0,1.659,1.536,3.146,4.325,4.188c0.058,0.022,0.117,0.032,0.175,0.032
			c0.203,0,0.393-0.124,0.468-0.326c0.097-0.258-0.034-0.546-0.293-0.643C2.339,25.877,1,24.692,1,23.499v-3.805
			C1.732,20.456,2.846,21.136,4.325,21.687z M12.5,1c6.863,0,11.477,2.331,11.498,4.515C23.977,7.684,19.363,10,12.5,10
			C5.637,10,1.023,7.684,1.002,5.515C1.023,3.331,5.637,1,12.5,1z M26.5,20h-6c-0.276,0-0.5,0.224-0.5,0.5s0.224,0.5,0.5,0.5h6
			c0.276,0,0.5-0.224,0.5-0.5S26.776,20,26.5,20z M9.5,25.5c-0.552,0-1,0.448-1,1s0.448,1,1,1s1-0.448,1-1S10.052,25.5,9.5,25.5z
			 M9.5,19.5c-0.552,0-1,0.448-1,1s0.448,1,1,1s1-0.448,1-1S10.052,19.5,9.5,19.5z M26.5,26h-6c-0.276,0-0.5,0.224-0.5,0.5
			s0.224,0.5,0.5,0.5h6c0.276,0,0.5-0.224,0.5-0.5S26.776,26,26.5,26z M30,19c0-1.103-0.897-2-2-2H8c-1.103,0-2,0.897-2,2v3
			c0,0.6,0.271,1.133,0.691,1.5C6.271,23.867,6,24.4,6,25v3c0,1.103,0.897,2,2,2h20c1.103,0,2-0.897,2-2v-3
			c0-0.6-0.271-1.133-0.691-1.5C29.729,23.133,30,22.6,30,22V19z M29,28c0,0.551-0.449,1-1,1H8c-0.551,0-1-0.449-1-1v-3
			c0-0.551,0.449-1,1-1h20c0.551,0,1,0.449,1,1V28z M29,22c0,0.551-0.449,1-1,1H8c-0.551,0-1-0.449-1-1v-3c0-0.551,0.449-1,1-1h20
			c0.551,0,1,0.449,1,1V22z"/>
	</g>
</g>
</svg>
