<?xml version="1.0" encoding="iso-8859-1"?>
<!-- Generator: Adobe Illustrator 19.0.0, SVG Export Plug-In . SVG Version: 6.00 Build 0)  -->
<svg version="1.1" id="Layer_1" xmlns="http://www.w3.org/2000/svg" xmlns:xlink="http://www.w3.org/1999/xlink" x="0px" y="0px"
	 viewBox="0 0 30 30" style="enable-background:new 0 0 30 30;" xml:space="preserve">
<g>
	<g>
		<path d="M24.5,17c0.176,0,0.339-0.092,0.429-0.243C25.136,16.411,30,8.248,30,5.423C30,2.433,27.532,0,24.5,0S19,2.433,19,5.423
			c0,2.825,4.864,10.988,5.071,11.334C24.161,16.908,24.324,17,24.5,17z M24.5,1C26.981,1,29,2.984,29,5.423
			c0,1.922-2.934,7.386-4.5,10.09C22.934,12.809,20,7.346,20,5.423C20,2.984,22.019,1,24.5,1z M15.5,19h7.865
			c0.277,0,0.5-0.224,0.5-0.5s-0.224-0.5-0.5-0.5H15.5c-0.276,0-0.5,0.224-0.5,0.5S15.224,19,15.5,19z M28,5.5
			C28,3.57,26.43,2,24.5,2S21,3.57,21,5.5S22.57,9,24.5,9S28,7.43,28,5.5z M22,5.5C22,4.122,23.121,3,24.5,3S27,4.122,27,5.5
			S25.879,8,24.5,8S22,6.878,22,5.5z M25.5,26h-10c-0.276,0-0.5,0.224-0.5,0.5s0.224,0.5,0.5,0.5h10c0.276,0,0.5-0.224,0.5-0.5
			S25.776,26,25.5,26z M28.532,13.472c-0.232-0.143-0.542-0.074-0.688,0.161c-0.146,0.234-0.073,0.542,0.161,0.688
			C28.628,14.708,29,15.371,29,16.094v2.813C29,20.061,28.062,21,26.907,21H3.093C1.938,21,1,20.061,1,18.907v-2.813
			c0-1.154,0.939-2.093,2.093-2.093h17.429c0.276,0,0.5-0.224,0.5-0.5s-0.224-0.5-0.5-0.5H3.093C1.388,13.001,0,14.388,0,16.094
			v2.813c0,1.087,0.567,2.041,1.419,2.593C0.567,22.052,0,23.006,0,24.094v2.813C0,28.612,1.388,30,3.093,30h23.814
			C28.612,30,30,28.612,30,26.906v-2.813c0-1.087-0.567-2.041-1.419-2.593C29.433,20.948,30,19.995,30,18.908v-2.813
			C30,15.024,29.451,14.043,28.532,13.472z M29,24.094v2.813C29,28.061,28.062,29,26.907,29H3.093C1.938,29,1,28.061,1,26.906
			v-2.813C1,22.939,1.938,22,3.093,22h23.814C28.062,22,29,22.939,29,24.094z M3,17.5C3,18.327,3.673,19,4.5,19S6,18.327,6,17.5
			S5.327,16,4.5,16S3,16.673,3,17.5z M5,17.5C5,17.776,4.775,18,4.5,18S4,17.776,4,17.5S4.225,17,4.5,17S5,17.224,5,17.5z M25.5,24
			h-10c-0.276,0-0.5,0.224-0.5,0.5s0.224,0.5,0.5,0.5h10c0.276,0,0.5-0.224,0.5-0.5S25.776,24,25.5,24z M4.5,24
			C3.673,24,3,24.673,3,25.5S3.673,27,4.5,27S6,26.327,6,25.5S5.327,24,4.5,24z M4.5,26C4.225,26,4,25.776,4,25.5S4.225,25,4.5,25
			S5,25.224,5,25.5S4.775,26,4.5,26z M15.5,17h6.68c0.276,0,0.5-0.224,0.5-0.5s-0.224-0.5-0.5-0.5H15.5c-0.276,0-0.5,0.224-0.5,0.5
			S15.224,17,15.5,17z"/>
	</g>
</g>
</svg>
