<?xml version="1.0" encoding="iso-8859-1"?>
<!-- Generator: Adobe Illustrator 19.0.0, SVG Export Plug-In . SVG Version: 6.00 Build 0)  -->
<svg version="1.1" id="Layer_1" xmlns="http://www.w3.org/2000/svg" xmlns:xlink="http://www.w3.org/1999/xlink" x="0px" y="0px"
	 viewBox="0 0 30 30" style="enable-background:new 0 0 30 30;" xml:space="preserve">
<g>
	<g>
		<path d="M23,15.563V14.5c0-0.276-0.224-0.5-0.5-0.5S22,14.224,22,14.5v1.063c0,0.276,0.224,0.5,0.5,0.5S23,15.839,23,15.563z
			 M26,15.754V14.5c0-0.276-0.224-0.5-0.5-0.5S25,14.224,25,14.5v1.254c0,0.276,0.224,0.5,0.5,0.5S26,16.03,26,15.754z M25,24
			c-0.552,0-1,0.448-1,1c0,0.552,0.448,1,1,1c0.552,0,1-0.448,1-1C26,24.448,25.552,24,25,24z M24.723,21.052
			c-0.247-0.123-0.546-0.022-0.671,0.224l-2,4c-0.123,0.247-0.023,0.547,0.224,0.671C22.349,25.983,22.425,26,22.5,26
			c0.183,0,0.359-0.102,0.447-0.277l2-4C25.07,21.476,24.97,21.176,24.723,21.052z M20,16.5v-2c0-0.276-0.224-0.5-0.5-0.5
			S19,14.224,19,14.5v2c0,0.276,0.224,0.5,0.5,0.5S20,16.776,20,16.5z M23.5,17c-3.584,0-6.5,2.916-6.5,6.5s2.916,6.5,6.5,6.5
			c3.584,0,6.5-2.916,6.5-6.5S27.084,17,23.5,17z M23.5,29c-3.032,0-5.5-2.468-5.5-5.5s2.468-5.5,5.5-5.5c3.032,0,5.5,2.468,5.5,5.5
			S26.532,29,23.5,29z M23,22c0-0.552-0.448-1-1-1c-0.552,0-1,0.448-1,1c0,0.552,0.448,1,1,1C22.552,23,23,22.552,23,22z M25.5,3
			C25.224,3,25,3.224,25,3.5v2C25,5.776,25.224,6,25.5,6S26,5.776,26,5.5v-2C26,3.224,25.776,3,25.5,3z M26.907,9
			C28.612,9,30,7.612,30,5.907V3.093C30,1.388,28.612,0,26.907,0H3.093C1.388,0,0,1.388,0,3.093v2.814C0,7.612,1.388,9,3.093,9H11v2
			H3.093C1.388,11,0,12.388,0,14.093v2.814C0,18.612,1.388,20,3.093,20H11v1h-0.5c-0.276,0-0.5,0.224-0.5,0.5V22H9.5
			C9.224,22,9,22.224,9,22.5V23H2.5C2.224,23,2,23.224,2,23.5S2.224,24,2.5,24H9v0.5C9,24.776,9.224,25,9.5,25h4
			c0.276,0,0.5-0.224,0.5-0.5V24h1.5c0.276,0,0.5-0.224,0.5-0.5S15.776,23,15.5,23H14v-0.5c0-0.276-0.224-0.5-0.5-0.5H13v-0.5
			c0-0.276-0.224-0.5-0.5-0.5H12v-1h4.582c0.276,0,0.5-0.223,0.5-0.499s-0.224-0.5-0.5-0.5h-5.077C11.503,19.001,11.502,19,11.5,19
			s-0.003,0.001-0.005,0.001H3.093C1.938,19.001,1,18.062,1,16.908v-2.814c0-1.155,0.939-2.093,2.093-2.093h23.814
			c1.155,0,2.093,0.939,2.093,2.093v2.814c0,0.292-0.063,0.58-0.188,0.856c-0.114,0.251-0.003,0.548,0.249,0.661
			c0.248,0.113,0.549,0.004,0.661-0.249C29.906,17.769,30,17.343,30,16.907v-2.814C30,12.388,28.612,11,26.907,11H12V9H26.907z
			 M12,22v0.5c0,0.276,0.224,0.5,0.5,0.5H13v1h-3v-1h0.5c0.276,0,0.5-0.224,0.5-0.5V22H12z M3.093,8C1.938,8,1,7.061,1,5.907V3.093
			C1,1.938,1.939,1,3.093,1h23.814C28.062,1,29,1.939,29,3.093v2.814C29,7.062,28.061,8,26.907,8H3.093z M16,14.5v2
			c0,0.276,0.224,0.5,0.5,0.5s0.5-0.224,0.5-0.5v-2c0-0.276-0.224-0.5-0.5-0.5S16,14.224,16,14.5z M3,15.5C3,16.327,3.673,17,4.5,17
			C5.327,17,6,16.327,6,15.5C6,14.673,5.327,14,4.5,14C3.673,14,3,14.673,3,15.5z M5,15.5C5,15.775,4.775,16,4.5,16
			C4.225,16,4,15.775,4,15.5C4,15.225,4.225,15,4.5,15C4.775,15,5,15.225,5,15.5z M4.5,3C3.673,3,3,3.673,3,4.5
			C3,5.327,3.673,6,4.5,6C5.327,6,6,5.327,6,4.5C6,3.673,5.327,3,4.5,3z M4.5,5C4.225,5,4,4.775,4,4.5C4,4.225,4.225,4,4.5,4
			C4.775,4,5,4.225,5,4.5C5,4.775,4.775,5,4.5,5z M16.5,3C16.224,3,16,3.224,16,3.5v2C16,5.776,16.224,6,16.5,6S17,5.776,17,5.5v-2
			C17,3.224,16.776,3,16.5,3z M19.5,3C19.224,3,19,3.224,19,3.5v2C19,5.776,19.224,6,19.5,6S20,5.776,20,5.5v-2
			C20,3.224,19.776,3,19.5,3z M22.5,3C22.224,3,22,3.224,22,3.5v2C22,5.776,22.224,6,22.5,6S23,5.776,23,5.5v-2
			C23,3.224,22.776,3,22.5,3z"/>
	</g>
</g>
</svg>
