<?xml version="1.0" encoding="iso-8859-1"?>
<!-- Generator: Adobe Illustrator 19.0.0, SVG Export Plug-In . SVG Version: 6.00 Build 0)  -->
<svg version="1.1" id="Layer_1" xmlns="http://www.w3.org/2000/svg" xmlns:xlink="http://www.w3.org/1999/xlink" x="0px" y="0px"
	 viewBox="0 0 30 30" style="enable-background:new 0 0 30 30;" xml:space="preserve">
<g>
	<g>
		<path d="M19.5,19c-0.276,0-0.5,0.224-0.5,0.5c0,0.276,0.224,0.5,0.5,0.5c0.276,0,0.5-0.224,0.5-0.5C20,19.224,19.776,19,19.5,19z
			 M16.5,19c-0.276,0-0.5,0.224-0.5,0.5c0,0.276,0.224,0.5,0.5,0.5c0.276,0,0.5-0.224,0.5-0.5C17,19.224,16.776,19,16.5,19z M4.5,17
			C3.673,17,3,17.673,3,18.5C3,19.327,3.673,20,4.5,20C5.327,20,6,19.327,6,18.5C6,17.673,5.327,17,4.5,17z M4.5,19
			C4.224,19,4,18.776,4,18.5S4.224,18,4.5,18S5,18.224,5,18.5S4.776,19,4.5,19z M22.5,19c-0.276,0-0.5,0.224-0.5,0.5
			c0,0.276,0.224,0.5,0.5,0.5c0.276,0,0.5-0.224,0.5-0.5C23,19.224,22.776,19,22.5,19z M22.5,11c-0.276,0-0.5,0.224-0.5,0.5
			c0,0.276,0.224,0.5,0.5,0.5c0.276,0,0.5-0.224,0.5-0.5C23,11.224,22.776,11,22.5,11z M19.5,11c-0.276,0-0.5,0.224-0.5,0.5
			c0,0.276,0.224,0.5,0.5,0.5c0.276,0,0.5-0.224,0.5-0.5C20,11.224,19.776,11,19.5,11z M25.5,11c-0.276,0-0.5,0.224-0.5,0.5
			c0,0.276,0.224,0.5,0.5,0.5c0.276,0,0.5-0.224,0.5-0.5C26,11.224,25.776,11,25.5,11z M30,11.907V9.094
			c0-0.631-0.192-1.218-0.518-1.708c-0.013-0.055-0.031-0.11-0.064-0.16l-3.856-5.878C25.009,0.504,24.056,0,23.014,0H6.987
			C5.945,0,4.992,0.504,4.439,1.348L0.583,7.226c-0.033,0.05-0.051,0.105-0.064,0.16C0.193,7.876,0,8.462,0,9.094v2.813
			c0,1.088,0.567,2.042,1.419,2.594C0.568,15.052,0,16.006,0,17.094v2.813C0,21.612,1.388,23,3.094,23H11v3h-0.5
			c-0.276,0-0.5,0.224-0.5,0.5V27H9.5C9.224,27,9,27.224,9,27.5V28H2.5C2.224,28,2,28.224,2,28.5S2.224,29,2.5,29H9v0.5
			C9,29.776,9.224,30,9.5,30h4c0.276,0,0.5-0.224,0.5-0.5V29h6.5c0.276,0,0.5-0.224,0.5-0.5S20.776,28,20.5,28H14v-0.5
			c0-0.276-0.224-0.5-0.5-0.5H13v-0.5c0-0.276-0.224-0.5-0.5-0.5H12v-3h14.907C28.612,23,30,21.612,30,19.907v-2.813
			c0-1.088-0.567-2.042-1.419-2.594C29.432,13.949,30,12.995,30,11.907z M5.275,1.896C5.637,1.343,6.294,1,6.987,1h16.027
			c0.693,0,1.349,0.343,1.712,0.896l2.729,4.161c-0.179-0.032-0.361-0.055-0.548-0.055H3.094c-0.188,0-0.37,0.023-0.548,0.055
			L5.275,1.896z M12.5,28H13v1h-3v-1h0.5c0.276,0,0.5-0.224,0.5-0.5V27h1v0.5C12,27.776,12.224,28,12.5,28z M28.999,17.093v2.813
			c0,1.154-0.939,2.093-2.093,2.093H3.093C1.939,21.999,1,21.06,1,19.906v-2.813C1,15.939,1.939,15,3.093,15h23.813
			C28.06,15,28.999,15.939,28.999,17.093z M28.999,11.906c0,1.154-0.939,2.093-2.093,2.093H3.093C1.939,13.999,1,13.06,1,11.906
			V9.093C1,7.939,1.939,7,3.093,7h23.813c1.154,0,2.093,0.939,2.093,2.093V11.906z M4.5,9C3.673,9,3,9.673,3,10.5
			C3,11.327,3.673,12,4.5,12C5.327,12,6,11.327,6,10.5C6,9.673,5.327,9,4.5,9z M4.5,11C4.224,11,4,10.776,4,10.5S4.224,10,4.5,10
			S5,10.224,5,10.5S4.776,11,4.5,11z M16.5,11c-0.276,0-0.5,0.224-0.5,0.5c0,0.276,0.224,0.5,0.5,0.5c0.276,0,0.5-0.224,0.5-0.5
			C17,11.224,16.776,11,16.5,11z M25.5,19c-0.276,0-0.5,0.224-0.5,0.5c0,0.276,0.224,0.5,0.5,0.5c0.276,0,0.5-0.224,0.5-0.5
			C26,19.224,25.776,19,25.5,19z"/>
	</g>
</g>
</svg>
