<?xml version="1.0" encoding="iso-8859-1"?>
<!-- Generator: Adobe Illustrator 19.0.0, SVG Export Plug-In . SVG Version: 6.00 Build 0)  -->
<svg version="1.1" id="Layer_1" xmlns="http://www.w3.org/2000/svg" xmlns:xlink="http://www.w3.org/1999/xlink" x="0px" y="0px"
	 viewBox="0 0 30 30" style="enable-background:new 0 0 30 30;" xml:space="preserve">
<g>
	<g>
		<path d="M9.5,6.5c0.552,0,1-0.448,1-1c0-0.552-0.448-1-1-1s-1,0.448-1,1C8.5,6.052,8.947,6.5,9.5,6.5z M20.5,6h6
			C26.776,6,27,5.776,27,5.5S26.776,5,26.5,5h-6C20.224,5,20,5.224,20,5.5S20.224,6,20.5,6z M6.5,12.999c0.276,0,0.5-0.224,0.5-0.5
			V10c0-0.551,0.448-1,1-1h20c0.552,0,1,0.449,1,1v3c0,0.551-0.448,1-1,1H11.142c-0.276,0-0.5,0.224-0.5,0.5s0.224,0.5,0.5,0.5H28
			c0.552,0,1,0.449,1,1l-0.003,3.018c-0.001,0.009-0.008,0.067-0.009,0.075c-0.024,0.271,0.176,0.485,0.446,0.515
			c0.017,0.002,0.033,0.003,0.05,0.003c0.25,0,0.47-0.206,0.504-0.458C29.991,19.131,30,19.022,30,19v-3
			c0-0.6-0.271-1.133-0.691-1.5C29.728,14.133,30,13.6,30,13v-3c0-0.6-0.271-1.133-0.691-1.5C29.728,8.133,30,7.6,30,7V4
			c0-1.103-0.897-2-2-2H8C6.897,2,6,2.897,6,4v3c0,0.6,0.271,1.133,0.691,1.5C6.271,8.867,6,9.4,6,10v2.499
			C6,12.775,6.224,12.999,6.5,12.999z M7,4c0-0.551,0.448-1,1-1h20c0.552,0,1,0.449,1,1v3c0,0.551-0.448,1-1,1H8
			C7.448,8,7,7.551,7,7V4z M29.955,21.995c-0.815-1.775-2.705-2.709-4.485-2.225l-4.11,1.117c-0.126-1.697-1.002-2.694-2.827-3.19
			L6.962,15.099c0.012-0.11,0.026-0.225,0.035-0.328c0.013-0.15-0.043-0.298-0.151-0.402c-1.03-0.994-5.442-1.308-6.316-1.361
			c-0.136-0.007-0.272,0.041-0.373,0.135C0.057,13.237,0,13.369,0,13.507v11c0,0.276,0.224,0.5,0.5,0.5h4
			c0.228,0,0.427-0.153,0.482-0.375c0.011-0.042,0.064-0.244,0.14-0.545l9.21,3.392C15.237,27.802,15.945,28,16.748,28
			c1.344,0,2.954-0.555,6.205-2.001l6.77-3.347C29.965,22.532,30.068,22.241,29.955,21.995z M4.112,24.007H0.999v-9.963
			c1.824,0.143,4.189,0.482,4.976,0.92C5.688,17.678,4.465,22.615,4.112,24.007z M22.527,25.093
			c-5.103,2.274-5.786,2.186-7.854,1.447l-9.308-3.429c0.436-1.779,1.131-4.758,1.47-7.016l11.457,2.572
			c1.467,0.4,2.048,1.08,2.09,2.483l-1.285,0.349c-0.457,0.125-0.921,0.136-1.381,0.036l-5.34-1.162
			c-0.273-0.058-0.536,0.113-0.595,0.382c-0.058,0.27,0.112,0.536,0.382,0.595l5.34,1.162c0.272,0.059,0.551,0.089,0.829,0.089
			c0.347,0,0.693-0.046,1.029-0.137l1.641-0.446c0.005-0.001,0.009,0,0.014-0.001l4.715-1.282c1.187-0.322,2.393,0.187,3.081,1.251
			L22.527,25.093z M8.5,11.5c0,0.552,0.448,1,1,1s1-0.448,1-1c0-0.552-0.448-1-1-1S8.5,10.948,8.5,11.5z M20.5,17
			c-0.276,0-0.5,0.224-0.5,0.5s0.224,0.5,0.5,0.5h6c0.276,0,0.5-0.224,0.5-0.5S26.776,17,26.5,17H20.5z M26.5,12
			c0.276,0,0.5-0.224,0.5-0.5S26.776,11,26.5,11h-6c-0.276,0-0.5,0.224-0.5,0.5s0.224,0.5,0.5,0.5H26.5z"/>
	</g>
</g>
</svg>
