<?xml version="1.0" encoding="iso-8859-1"?>
<!-- Generator: Adobe Illustrator 19.0.0, SVG Export Plug-In . SVG Version: 6.00 Build 0)  -->
<svg version="1.1" id="Layer_1" xmlns="http://www.w3.org/2000/svg" xmlns:xlink="http://www.w3.org/1999/xlink" x="0px" y="0px"
	 viewBox="0 0 30 30" style="enable-background:new 0 0 30 30;" xml:space="preserve">
<g>
	<g>
		<path d="M3.5,19.5c-0.552,0-1,0.448-1,1s0.448,1,1,1c0.552,0,1-0.448,1-1S4.052,19.5,3.5,19.5z M3.5,25.5c-0.552,0-1,0.448-1,1
			s0.448,1,1,1c0.552,0,1-0.448,1-1S4.052,25.5,3.5,25.5z M20.5,26h-6c-0.276,0-0.5,0.224-0.5,0.5s0.224,0.5,0.5,0.5h6
			c0.276,0,0.5-0.224,0.5-0.5S20.776,26,20.5,26z M29.5,0h-23C6.224,0,6,0.224,6,0.5v15C6,15.776,6.224,16,6.5,16S7,15.776,7,15.5V1
			h22v19h-3.5c-0.276,0-0.5,0.224-0.5,0.5s0.224,0.5,0.5,0.5h4c0.276,0,0.5-0.224,0.5-0.5v-20C30,0.224,29.776,0,29.5,0z
			 M10.916,15.777l3.522-5.283l1.614,3.229c0.082,0.163,0.246,0.269,0.428,0.276c0.195,0.016,0.354-0.086,0.448-0.242l2.531-4.219
			l0.593,1.186c0.076,0.151,0.222,0.253,0.39,0.273c0.164,0.019,0.333-0.047,0.441-0.176l5-6c0.177-0.213,0.149-0.528-0.063-0.705
			c-0.211-0.175-0.526-0.148-0.704,0.064l-4.511,5.413l-0.658-1.316c-0.082-0.163-0.246-0.269-0.428-0.276
			c-0.224-0.023-0.354,0.086-0.448,0.242l-2.531,4.219l-1.593-3.186c-0.08-0.159-0.238-0.264-0.416-0.275
			c-0.172-0.007-0.348,0.074-0.447,0.222l-4,6c-0.153,0.23-0.09,0.54,0.139,0.693C10.308,15.973,10.404,16,10.5,16
			C10.661,16,10.819,15.922,10.916,15.777z M20.5,20h-6c-0.276,0-0.5,0.224-0.5,0.5s0.224,0.5,0.5,0.5h6c0.276,0,0.5-0.224,0.5-0.5
			S20.776,20,20.5,20z M22,17H2c-1.103,0-2,0.897-2,2v3c0,0.6,0.271,1.133,0.691,1.5C0.271,23.867,0,24.4,0,25v3
			c0,1.103,0.897,2,2,2h20c1.103,0,2-0.897,2-2v-3c0-0.6-0.271-1.133-0.691-1.5C23.729,23.133,24,22.6,24,22v-3
			C24,17.897,23.103,17,22,17z M23,28c0,0.551-0.448,1-1,1H2c-0.552,0-1-0.449-1-1v-3c0-0.551,0.448-1,1-1h20c0.552,0,1,0.449,1,1
			V28z M23,22c0,0.551-0.448,1-1,1H2c-0.552,0-1-0.449-1-1v-3c0-0.551,0.448-1,1-1h20c0.552,0,1,0.449,1,1V22z"/>
	</g>
</g>
</svg>
