<?xml version="1.0" encoding="iso-8859-1"?>
<!-- Generator: Adobe Illustrator 19.0.0, SVG Export Plug-In . SVG Version: 6.00 Build 0)  -->
<svg version="1.1" id="Layer_1" xmlns="http://www.w3.org/2000/svg" xmlns:xlink="http://www.w3.org/1999/xlink" x="0px" y="0px"
	 viewBox="0 0 24 24" style="enable-background:new 0 0 24 24;" xml:space="preserve">
<g>
	<g>
		<path d="M2,24c-0.062,0-0.123-0.011-0.183-0.035C1.626,23.89,1.5,23.706,1.5,23.5v-23c0-0.202,0.122-0.385,0.309-0.462
			C1.994-0.04,2.211,0.004,2.354,0.147l16,16c0.143,0.143,0.186,0.358,0.108,0.545S18.202,17,18,17H8.718l-6.352,6.84
			C2.27,23.944,2.137,24,2,24z M2.5,1.707v20.52l5.634-6.067C8.229,16.058,8.361,16,8.5,16h8.293L2.5,1.707z"/>
	</g>
	<g>
		<g>
			<g>
				<g>
					<g>
						<g>
							<path d="M17,11c-3.032,0-5.5-2.467-5.5-5.5S13.968,0,17,0s5.5,2.467,5.5,5.5S20.032,11,17,11z M17,1
								c-2.481,0-4.5,2.019-4.5,4.5S14.519,10,17,10s4.5-2.019,4.5-4.5S19.481,1,17,1z"/>
						</g>
					</g>
				</g>
			</g>
		</g>
	</g>
	<g>
		<path d="M20.535,9.536c-0.128,0-0.256-0.049-0.354-0.146l-7.07-7.071c-0.195-0.195-0.195-0.512,0-0.707s0.512-0.195,0.707,0
			l7.07,7.071c0.195,0.195,0.195,0.512,0,0.707C20.791,9.487,20.663,9.536,20.535,9.536z"/>
	</g>
</g>
<g>
</g>
<g>
</g>
<g>
</g>
<g>
</g>
<g>
</g>
<g>
</g>
<g>
</g>
<g>
</g>
<g>
</g>
<g>
</g>
<g>
</g>
<g>
</g>
<g>
</g>
<g>
</g>
<g>
</g>
</svg>
