<?xml version="1.0" encoding="iso-8859-1"?>
<!-- Generator: Adobe Illustrator 19.0.0, SVG Export Plug-In . SVG Version: 6.00 Build 0)  -->
<svg version="1.1" id="Layer_1" xmlns="http://www.w3.org/2000/svg" xmlns:xlink="http://www.w3.org/1999/xlink" x="0px" y="0px"
	 viewBox="0 0 24 24" style="enable-background:new 0 0 24 24;" xml:space="preserve">
<g>
	<g>
		<path d="M15.517,16.488c-0.222,0-0.442-0.05-0.649-0.149L3.17,10.707c-0.733-0.353-1.053-1.241-0.712-1.98L4.62,4.043
			C4.79,3.675,5.094,3.397,5.475,3.26c0.381-0.138,0.791-0.116,1.158,0.06l0,0L18.33,8.952c0.733,0.353,1.053,1.241,0.712,1.98
			l-2.162,4.684c-0.17,0.368-0.474,0.646-0.854,0.783C15.859,16.459,15.688,16.488,15.517,16.488z M5.982,4.171
			c-0.057,0-0.114,0.01-0.169,0.03C5.686,4.247,5.585,4.339,5.528,4.462L3.366,9.146c-0.113,0.246-0.007,0.542,0.237,0.66
			l11.697,5.632c0.123,0.059,0.26,0.066,0.386,0.02c0.128-0.045,0.229-0.138,0.285-0.261l2.162-4.684
			c0.113-0.246,0.007-0.542-0.237-0.66L6.199,4.221C6.131,4.188,6.057,4.171,5.982,4.171z"/>
	</g>
	<g>
		<path d="M8.5,16.83c-1.379,0-2.5-1.122-2.5-2.5c0-1.091,0.704-2.045,1.752-2.376c0.265-0.082,0.544,0.063,0.627,0.327
			c0.083,0.264-0.063,0.544-0.326,0.627C7.423,13.106,7,13.677,7,14.33c0,0.827,0.673,1.5,1.5,1.5s1.5-0.673,1.5-1.5
			c0-0.175-0.035-0.355-0.104-0.536c-0.099-0.258,0.03-0.547,0.288-0.646c0.261-0.098,0.547,0.031,0.646,0.289
			C10.943,13.732,11,14.032,11,14.33C11,15.708,9.879,16.83,8.5,16.83z"/>
	</g>
	<g>
		<path d="M8.5,20.83h-8c-0.276,0-0.5-0.224-0.5-0.5s0.224-0.5,0.5-0.5H8v-3.5c0-0.276,0.224-0.5,0.5-0.5S9,16.053,9,16.33v4
			C9,20.606,8.776,20.83,8.5,20.83z"/>
	</g>
	<g>
		<path d="M21,18.33c-0.077,0-0.153-0.018-0.224-0.053l-1-0.5c-0.118-0.06-0.209-0.164-0.251-0.289l-0.441-1.325l-2.341-1.405
			c-0.237-0.142-0.314-0.449-0.172-0.686s0.452-0.312,0.686-0.171l2.5,1.5c0.103,0.062,0.18,0.157,0.218,0.271l0.435,1.304
			l0.351,0.175l2.086-4.589l-0.384-0.192l-1.304,0.434c-0.113,0.038-0.233,0.033-0.344-0.01l-2.5-1
			c-0.257-0.103-0.381-0.394-0.278-0.65c0.103-0.257,0.395-0.381,0.649-0.279l2.33,0.932l1.326-0.442
			c0.127-0.042,0.264-0.032,0.382,0.027l1,0.5c0.24,0.12,0.343,0.409,0.231,0.654l-2.5,5.5c-0.056,0.124-0.16,0.219-0.288,0.264
			C21.112,18.32,21.057,18.33,21,18.33z"/>
	</g>
	<g>
		<circle cx="8.5" cy="14.33" r="0.5"/>
	</g>
</g>
<g>
</g>
<g>
</g>
<g>
</g>
<g>
</g>
<g>
</g>
<g>
</g>
<g>
</g>
<g>
</g>
<g>
</g>
<g>
</g>
<g>
</g>
<g>
</g>
<g>
</g>
<g>
</g>
<g>
</g>
</svg>
