<?xml version="1.0" encoding="iso-8859-1"?>
<!-- Generator: Adobe Illustrator 19.0.0, SVG Export Plug-In . SVG Version: 6.00 Build 0)  -->
<svg version="1.1" id="Layer_1" xmlns="http://www.w3.org/2000/svg" xmlns:xlink="http://www.w3.org/1999/xlink" x="0px" y="0px"
	 viewBox="0 0 24 24" style="enable-background:new 0 0 24 24;" xml:space="preserve">
<g>
	<g>
		<path d="M21,5h-8.5V4H13c0.276,0,0.5-0.224,0.5-0.5V3H14c0.276,0,0.5-0.224,0.5-0.5V2H23c0.276,0,0.5-0.224,0.5-0.5S23.276,1,23,1
			h-8.5V0.5C14.5,0.224,14.276,0,14,0h-4C9.724,0,9.5,0.224,9.5,0.5V1H1C0.724,1,0.5,1.224,0.5,1.5S0.724,2,1,2h8.5v0.5
			C9.5,2.776,9.724,3,10,3h0.5v0.5C10.5,3.776,10.724,4,11,4h0.5v1H3C1.621,5,0.5,6.122,0.5,7.5v10C0.5,18.878,1.621,20,3,20h7.5v1
			H8c-1.379,0-2.5,1.122-2.5,2.5C5.5,23.776,5.724,24,6,24h12c0.276,0,0.5-0.224,0.5-0.5c0-1.378-1.121-2.5-2.5-2.5h-2.5v-1H21
			c1.379,0,2.5-1.122,2.5-2.5v-10C23.5,6.122,22.379,5,21,5z M12.5,21h-1v-1h1V21z M22.5,16h-21V7.5C1.5,6.673,2.173,6,3,6h18
			c0.827,0,1.5,0.673,1.5,1.5V16z"/>
	</g>
</g>
</svg>
