<?xml version="1.0" encoding="iso-8859-1"?>
<!-- Generator: Adobe Illustrator 19.0.0, SVG Export Plug-In . SVG Version: 6.00 Build 0)  -->
<svg version="1.1" id="Layer_1" xmlns="http://www.w3.org/2000/svg" xmlns:xlink="http://www.w3.org/1999/xlink" x="0px" y="0px"
	 viewBox="0 0 24 24" style="enable-background:new 0 0 24 24;" xml:space="preserve">
<g>
	<g>
		<path d="M19.201,7.624C17.211,9.111,13.771,10,10,10S2.789,9.111,0.8,7.624C0.647,7.51,0.446,7.494,0.277,7.577
			c-0.17,0.085-0.276,0.258-0.276,0.447V10.5C0,12.174,3.724,13.691,8.478,13.954c0.009,0.001,0.019,0.001,0.027,0.001
			c0.126,0,0.247-0.047,0.34-0.133c0.099-0.092,0.157-0.221,0.16-0.355C9.023,12.658,9.693,12,10.5,12h2
			c0.528,0,1.023,0.288,1.293,0.751C13.883,12.905,14.048,13,14.226,13H16.8c0.057,0,0.112-0.01,0.165-0.028
			C18.894,12.297,20,11.396,20,10.5V8.024c0-0.189-0.106-0.362-0.276-0.447C19.557,7.494,19.355,7.51,19.201,7.624z M10,19
			c0.593,0,1.157-0.022,1.706-0.057c0.147-0.009,0.284-0.084,0.372-0.204c0.088-0.119,0.118-0.272,0.082-0.416l-0.736-2.944
			C11.368,15.156,11.168,15,10.939,15h-0.424c-0.025-0.004-0.116-0.009-0.118-0.01L10,15c-3.786,0-7.238-0.743-9.235-1.988
			c-0.153-0.095-0.348-0.101-0.507-0.013C0.099,13.088,0,13.255,0,13.437V15.5C0,17.19,4.019,19,10,19z M10,9
			c5.607,0,10-1.977,10-4.5S15.607,0,10,0S0,1.977,0,4.5S4.393,9,10,9z M16.5,21c-0.828,0-1.5,0.672-1.5,1.5s0.672,1.5,1.5,1.5
			s1.5-0.672,1.5-1.5S17.328,21,16.5,21z M20.5,21c-0.828,0-1.5,0.672-1.5,1.5s0.672,1.5,1.5,1.5s1.5-0.672,1.5-1.5
			S21.328,21,20.5,21z M13.045,21.864l-0.394-1.576c-0.06-0.236-0.28-0.397-0.523-0.378C11.341,19.971,10.645,20,10,20
			c-3.786,0-7.238-0.743-9.235-1.988c-0.153-0.095-0.348-0.101-0.507-0.013C0.099,18.088,0,18.255,0,18.437v1.254
			c0,2.349,4.299,4.119,10,4.119c1.133,0,2.263-0.078,3.357-0.232c0.2-0.028,0.363-0.174,0.415-0.369
			c0.051-0.195-0.021-0.402-0.183-0.524C13.315,22.475,13.127,22.191,13.045,21.864z M23.895,14.192C23.8,14.071,23.654,14,23.5,14
			H13.141l-0.155-0.621C12.93,13.156,12.729,13,12.5,13h-2c-0.276,0-0.5,0.224-0.5,0.5s0.224,0.5,0.5,0.5h1.609l1.905,7.621
			C14.071,21.849,14.275,22,14.5,22c0.04,0,0.081-0.005,0.121-0.015c0.269-0.067,0.431-0.339,0.364-0.606l-0.362-1.449l7.936-0.934
			c0.206-0.023,0.376-0.173,0.427-0.375l1-4C24.022,14.472,23.989,14.313,23.895,14.192z"/>
	</g>
</g>
</svg>
