<?xml version="1.0" encoding="iso-8859-1"?>
<!-- Generator: Adobe Illustrator 19.0.0, SVG Export Plug-In . SVG Version: 6.00 Build 0)  -->
<svg version="1.1" id="Layer_1" xmlns="http://www.w3.org/2000/svg" xmlns:xlink="http://www.w3.org/1999/xlink" x="0px" y="0px"
	 viewBox="0 0 24 24" style="enable-background:new 0 0 24 24;" xml:space="preserve">
<g>
	<g>
		<path d="M5,4h15c0.827,0,1.5-0.673,1.5-1.5v-1C21.5,0.673,20.827,0,20,0H5C4.173,0,3.5,0.673,3.5,1.5v1C3.5,3.327,4.173,4,5,4z
			 M15,2h4c0.276,0,0.5,0.224,0.5,0.5S19.276,3,19,3h-4c-0.276,0-0.5-0.224-0.5-0.5S14.724,2,15,2z M6,2c0.276,0,0.5,0.224,0.5,0.5
			S6.276,3,6,3S5.5,2.776,5.5,2.5S5.724,2,6,2z M4,19H2c-0.827,0-1.5,0.673-1.5,1.5v2C0.5,23.327,1.173,24,2,24h2
			c0.827,0,1.5-0.673,1.5-1.5v-2C5.5,19.673,4.827,19,4,19z M13,19h-2c-0.827,0-1.5,0.673-1.5,1.5v2c0,0.827,0.673,1.5,1.5,1.5h2
			c0.827,0,1.5-0.673,1.5-1.5v-2C14.5,19.673,13.827,19,13,19z M22,19h-2c-0.827,0-1.5,0.673-1.5,1.5v2c0,0.827,0.673,1.5,1.5,1.5h2
			c0.827,0,1.5-0.673,1.5-1.5v-2C23.5,19.673,22.827,19,22,19z M3,18c0.276,0,0.5-0.224,0.5-0.5v-2C3.5,14.673,4.173,14,5,14h6.5
			v3.5c0,0.276,0.224,0.5,0.5,0.5s0.5-0.224,0.5-0.5V14H19c0.827,0,1.5,0.673,1.5,1.5v2c0,0.276,0.224,0.5,0.5,0.5
			s0.5-0.224,0.5-0.5v-2c0-1.378-1.121-2.5-2.5-2.5h-6.5v-2.5c0-0.276-0.224-0.5-0.5-0.5s-0.5,0.224-0.5,0.5V13H5
			c-1.379,0-2.5,1.122-2.5,2.5v2C2.5,17.776,2.724,18,3,18z M5,9h15c0.827,0,1.5-0.673,1.5-1.5v-1C21.5,5.673,20.827,5,20,5H5
			C4.173,5,3.5,5.673,3.5,6.5v1C3.5,8.327,4.173,9,5,9z M15,7h4c0.276,0,0.5,0.224,0.5,0.5S19.276,8,19,8h-4
			c-0.276,0-0.5-0.224-0.5-0.5S14.724,7,15,7z M6,7c0.276,0,0.5,0.224,0.5,0.5S6.276,8,6,8S5.5,7.776,5.5,7.5S5.724,7,6,7z"/>
	</g>
</g>
</svg>
