<?xml version="1.0" encoding="iso-8859-1"?>
<!-- Generator: Adobe Illustrator 19.0.0, SVG Export Plug-In . SVG Version: 6.00 Build 0)  -->
<svg version="1.1" id="Layer_1" xmlns="http://www.w3.org/2000/svg" xmlns:xlink="http://www.w3.org/1999/xlink" x="0px" y="0px"
	 viewBox="0 0 24 24" style="enable-background:new 0 0 24 24;" xml:space="preserve">
<g>
	<g>
		<path d="M15.5,20h-14C0.673,20,0,20.673,0,21.5v1C0,23.327,0.673,24,1.5,24h14c0.827,0,1.5-0.673,1.5-1.5v-1
			C17,20.673,16.327,20,15.5,20z M2.5,23C2.224,23,2,22.776,2,22.5S2.224,22,2.5,22S3,22.224,3,22.5S2.776,23,2.5,23z M14.5,23h-4
			c-0.276,0-0.5-0.224-0.5-0.5s0.224-0.5,0.5-0.5h4c0.276,0,0.5,0.224,0.5,0.5S14.776,23,14.5,23z M23.907,9.298
			c-0.151-1.171-1.373-1.97-2.539-1.537c-0.419,0.156-0.93-0.077-1.121-0.504c-0.233-0.522-0.521-1.022-0.854-1.485
			c-0.289-0.402-0.235-0.93,0.125-1.226c0.445-0.366,0.693-0.907,0.682-1.483c-0.012-0.585-0.288-1.125-0.757-1.48
			c-0.764-0.579-1.598-1.061-2.479-1.432C16.724,0.051,16.473,0,16.216,0c-0.927,0-1.71,0.659-1.861,1.566
			c-0.076,0.459-0.49,0.77-1.005,0.719c-0.56-0.059-1.142-0.059-1.702,0c-0.506,0.051-0.928-0.259-1.004-0.719
			C10.493,0.659,9.71,0,8.783,0C8.527,0,8.275,0.051,8.036,0.152C7.155,0.523,6.321,1.005,5.557,1.584
			C5.088,1.939,4.813,2.479,4.801,3.063C4.79,3.639,5.038,4.18,5.484,4.547c0.36,0.296,0.413,0.822,0.124,1.225
			C5.275,6.236,4.987,6.736,4.754,7.257c-0.191,0.427-0.666,0.675-1.132,0.5c-0.213-0.08-0.434-0.12-0.658-0.12
			c-0.944,0-1.748,0.714-1.87,1.661c-0.062,0.479-0.093,0.964-0.093,1.442c0,0.478,0.031,0.963,0.093,1.442
			c0.151,1.171,1.373,1.976,2.539,1.537c0.282-0.105,0.607-0.044,0.851,0.152c0.03,0.025,0.103,0.064,0.138,0.081
			C4.689,13.984,4.762,14,4.836,14H9.89c0.307-0.01,0.51-0.22,0.51-0.5c0-0.189-0.105-0.354-0.261-0.439
			C9.414,12.393,9,11.465,9,10.5C9,8.57,10.57,7,12.5,7S16,8.57,16,10.5c0,0.996-0.44,1.952-1.208,2.624
			c-0.157,0.137-0.212,0.357-0.139,0.552S14.912,14,15.121,14H15.5c1.378,0,2.5,1.122,2.5,2.5v2c0,0.267-0.051,0.539-0.155,0.833
			c-0.039,0.108-0.039,0.227,0,0.335c0.039,0.109,0.066,0.223,0.092,0.338c0.034,0.151,0.136,0.277,0.276,0.343l0.092,0.043
			c0.067,0.032,0.14,0.047,0.212,0.047c0.096,0,0.19-0.027,0.273-0.081c0.223-0.146,0.441-0.299,0.653-0.46
			c0.469-0.356,0.745-0.896,0.756-1.481c0.011-0.576-0.238-1.116-0.683-1.483c-0.36-0.296-0.413-0.823-0.125-1.225
			c0.334-0.464,0.622-0.964,0.855-1.486c0.19-0.426,0.661-0.678,1.132-0.5c0.213,0.08,0.434,0.12,0.658,0.12
			c0.944,0,1.748-0.714,1.87-1.661C23.969,11.703,24,11.218,24,10.74C24,10.262,23.969,9.777,23.907,9.298z M15.5,15h-14
			C0.673,15,0,15.673,0,16.5v1C0,18.327,0.673,19,1.5,19h14c0.827,0,1.5-0.673,1.5-1.5v-1C17,15.673,16.327,15,15.5,15z M2.5,18
			C2.224,18,2,17.776,2,17.5S2.224,17,2.5,17S3,17.224,3,17.5S2.776,18,2.5,18z M14.5,18h-4c-0.276,0-0.5-0.224-0.5-0.5
			s0.224-0.5,0.5-0.5h4c0.276,0,0.5,0.224,0.5,0.5S14.776,18,14.5,18z"/>
	</g>
</g>
</svg>
