<?xml version="1.0" encoding="iso-8859-1"?>
<!-- Generator: Adobe Illustrator 19.0.0, SVG Export Plug-In . SVG Version: 6.00 Build 0)  -->
<svg version="1.1" id="Layer_1" xmlns="http://www.w3.org/2000/svg" xmlns:xlink="http://www.w3.org/1999/xlink" x="0px" y="0px"
	 viewBox="0 0 24 24" style="enable-background:new 0 0 24 24;" xml:space="preserve">
<g>
	<g>
		<path d="M4.5,14C4.776,14,5,13.776,5,13.5v-5c0-0.751,0.555-1.375,1.276-1.483l-0.13,0.13c-0.195,0.195-0.195,0.512,0,0.707
			s0.512,0.195,0.707,0L7.85,6.857c0.011-0.01,0.021-0.021,0.03-0.032c0.065-0.077,0.104-0.169,0.115-0.264
			C8,6.532,8,6.503,7.998,6.474C7.992,6.357,7.943,6.242,7.855,6.152c-0.001,0-0.001,0-0.001,0s0,0-0.001,0c0,0-0.001,0-0.001-0.001
			l-1-1c-0.195-0.195-0.512-0.195-0.707,0C6.047,5.25,5.999,5.378,5.999,5.505s0.049,0.256,0.146,0.354l0.154,0.154
			C5.013,6.115,3.998,7.195,3.998,8.505v5C4,13.776,4.224,14,4.5,14z M22.5,4h-6.558c-0.186-0.011-0.644-0.559-0.891-0.853
			C14.558,2.557,14.092,2,13.5,2h-3C9.672,2,9,2.673,9,3.5v6c0,0.827,0.673,1.5,1.5,1.5h12c0.827,0,1.5-0.673,1.5-1.5v-4
			C24,4.673,23.328,4,22.5,4z M13.5,1c1.06,0,1.758,0.834,2.319,1.504c0.08,0.097,0.184,0.22,0.277,0.326
			C16.191,2.938,16.328,3,16.471,3H22.5C22.776,3,23,2.776,23,2.5v-1C23,0.672,22.326,0,21.5,0h-8C13.224,0,13,0.224,13,0.5
			S13.224,1,13.5,1z M16.5,20h-15C0.674,20,0,20.673,0,21.5v1C0,23.327,0.674,24,1.5,24h15c0.827,0,1.5-0.673,1.5-1.5v-1
			C18,20.673,17.328,20,16.5,20z M2.5,23C2.224,23,2,22.776,2,22.5S2.224,22,2.5,22S3,22.224,3,22.5S2.776,23,2.5,23z M15.5,23h-4
			c-0.276,0-0.5-0.224-0.5-0.5s0.224-0.5,0.5-0.5h4c0.276,0,0.5,0.224,0.5,0.5S15.776,23,15.5,23z M22.5,12
			c-0.276,0-0.5,0.224-0.5,0.5v6c0,0.276-0.225,0.5-0.5,0.5h-0.793l0.146-0.146c0.195-0.195,0.195-0.512,0-0.707
			s-0.512-0.195-0.707,0l-0.997,0.997c-0.011,0.01-0.021,0.021-0.03,0.032c-0.065,0.077-0.104,0.169-0.115,0.264
			C19,19.469,19,19.5,19.001,19.529c0.007,0.117,0.055,0.231,0.143,0.321c0.001,0,0.001,0,0.001,0s0,0,0.001,0
			c0,0,0.001,0,0.001,0.001l1,1c0.098,0.098,0.226,0.146,0.354,0.146s0.256-0.049,0.354-0.146C20.954,20.753,21,20.628,21,20.5
			s-0.049-0.256-0.146-0.354L20.708,20H21.5c0.827,0,1.5-0.673,1.5-1.5v-6C23,12.224,22.776,12,22.5,12z M16.5,15h-15
			C0.674,15,0,15.673,0,16.5v1C0,18.327,0.674,19,1.5,19h15c0.827,0,1.5-0.673,1.5-1.5v-1C18,15.673,17.328,15,16.5,15z M2.5,18
			C2.224,18,2,17.776,2,17.5S2.224,17,2.5,17S3,17.224,3,17.5S2.776,18,2.5,18z M15.5,18h-4c-0.276,0-0.5-0.224-0.5-0.5
			s0.224-0.5,0.5-0.5h4c0.276,0,0.5,0.224,0.5,0.5S15.776,18,15.5,18z"/>
	</g>
</g>
</svg>
