<?xml version="1.0" encoding="iso-8859-1"?>
<!-- Generator: Adobe Illustrator 19.0.0, SVG Export Plug-In . SVG Version: 6.00 Build 0)  -->
<svg version="1.1" id="Layer_1" xmlns="http://www.w3.org/2000/svg" xmlns:xlink="http://www.w3.org/1999/xlink" x="0px" y="0px"
	 viewBox="0 0 24 24" style="enable-background:new 0 0 24 24;" xml:space="preserve">
<g>
	<path d="M22.934,7.074c-0.103-0.226-0.351-0.319-0.59-0.249c-0.238,0.068-0.388,0.327-0.355,0.573C21.994,7.432,22,7.465,22,7.5
		C22,8.327,21.327,9,20.5,9h-2C18.776,9,19,9.224,19,9.5c0,1.378-1.121,2.5-2.5,2.5S14,10.878,14,9.5C14,9.224,14.224,9,14.5,9
		S15,9.224,15,9.5c0,0.827,0.673,1.5,1.5,1.5c0.827,0,1.5-0.673,1.5-1.5C18,9.224,18.224,9,18.5,9h-2
		c-0.573,0-1.104-0.334-1.353-0.851c-0.248-0.516-0.177-1.139,0.182-1.586l1.405-1.756c0.115-0.145,0.142-0.341,0.068-0.511
		c-0.074-0.17-0.235-0.286-0.42-0.3C15.607,3.936,15,3.278,15,2.5c0-0.439,0.2-0.858,0.548-1.148
		c0.143-0.118,0.208-0.305,0.17-0.486c-0.037-0.181-0.172-0.327-0.35-0.378C14.26,0.164,13.126,0,12,0C5.383,0,0,5.383,0,12
		s5.383,12,12,12s12-5.383,12-12C24,10.299,23.641,8.642,22.934,7.074z M5,9.5C5,9.224,5.224,9,5.5,9S6,9.224,6,9.5
		C6,10.327,6.673,11,7.5,11S9,10.327,9,9.5C9,9.224,9.224,9,9.5,9S10,9.224,10,9.5c0,1.378-1.121,2.5-2.5,2.5S5,10.878,5,9.5z
		 M14.5,18h-5C9.224,18,9,17.776,9,17.5S9.224,17,9.5,17h5c0.276,0,0.5,0.224,0.5,0.5S14.776,18,14.5,18z"/>
	<g>
		<path d="M23.5,4h-2c-0.185,0-0.354-0.102-0.44-0.264c-0.088-0.163-0.078-0.36,0.024-0.513L22.565,1H21.5C21.224,1,21,0.776,21,0.5
			S21.224,0,21.5,0h2c0.185,0,0.354,0.102,0.44,0.264c0.088,0.163,0.078,0.36-0.024,0.513L22.434,3H23.5C23.776,3,24,3.224,24,3.5
			S23.776,4,23.5,4z"/>
	</g>
	<g>
		<path d="M20.5,8h-4c-0.192,0-0.367-0.11-0.45-0.283c-0.084-0.173-0.061-0.379,0.06-0.529L19.46,3H16.5C16.224,3,16,2.776,16,2.5
			S16.224,2,16.5,2h4c0.192,0,0.367,0.11,0.45,0.283c0.084,0.173,0.061,0.379-0.06,0.529L17.54,7h2.96C20.776,7,21,7.224,21,7.5
			S20.776,8,20.5,8z"/>
	</g>
</g>
<g>
</g>
<g>
</g>
<g>
</g>
<g>
</g>
<g>
</g>
<g>
</g>
<g>
</g>
<g>
</g>
<g>
</g>
<g>
</g>
<g>
</g>
<g>
</g>
<g>
</g>
<g>
</g>
<g>
</g>
</svg>
