<?xml version="1.0" encoding="iso-8859-1"?>
<!-- Generator: Adobe Illustrator 19.0.0, SVG Export Plug-In . SVG Version: 6.00 Build 0)  -->
<svg version="1.1" id="Layer_1" xmlns="http://www.w3.org/2000/svg" xmlns:xlink="http://www.w3.org/1999/xlink" x="0px" y="0px"
	 viewBox="0 0 24 24" style="enable-background:new 0 0 24 24;" xml:space="preserve">
<g>
	<path d="M23.69,12.03c-0.181-0.086-0.396-0.056-0.546,0.078C22.133,13.005,20.839,13.5,19.5,13.5c-2.804,0-5.354-1.553-6.695-4.119
		c-0.008-0.01-0.081-0.098-0.09-0.107c-0.07-0.117-0.185-0.2-0.317-0.23c-0.281-0.064-0.515-0.064-0.796,0
		c-0.132,0.03-0.264,0.132-0.334,0.249c-0.025,0.029-0.095,0.12-0.113,0.155C9.854,11.947,7.304,13.5,4.5,13.5
		c-1.339,0-2.633-0.495-3.644-1.392c-0.149-0.134-0.364-0.164-0.546-0.078c-0.181,0.086-0.293,0.272-0.285,0.472
		C0.292,18.95,5.553,24,12,24s11.708-5.05,11.975-11.498C23.983,12.302,23.871,12.116,23.69,12.03z M17.893,15.77
		C16.596,17.792,14.393,19,12,19s-4.596-1.208-5.893-3.23c-0.149-0.232-0.082-0.542,0.151-0.691c0.231-0.15,0.542-0.082,0.691,0.151
		C8.062,16.964,9.95,18,12,18s3.938-1.036,5.051-2.77c0.149-0.232,0.458-0.301,0.691-0.151
		C17.974,15.228,18.042,15.538,17.893,15.77z"/>
	<g>
		<path d="M9.997,9.02C9.721,9.02,9.5,8.776,9.5,8.5C9.5,7.701,10.668,7,12,7s2.5,0.701,2.5,1.5C14.5,8.776,14.276,9,14,9
			c-0.266,0-0.484-0.208-0.499-0.471C13.416,8.363,12.831,8,12,8c-0.849,0-1.44,0.378-1.506,0.54
			C10.494,8.816,10.273,9.02,9.997,9.02z"/>
	</g>
	<path d="M21.976,5L21.976,5L12,5.499L2,5C1.178,5,0,6.178,0,7v1c0,2.481,2.019,4.5,4.5,4.5c3.433,0,6.253-2.675,6.484-6.05
		l0.991,0.05C11.984,6.5,11.992,6.496,12,6.496c0.009,0,0.016,0.004,0.025,0.004l0.991-0.05c0.231,3.375,3.051,6.05,6.484,6.05
		c2.481,0,4.5-2.019,4.5-4.5V7C24,6.178,22.823,5,21.976,5z"/>
	<path d="M20.183,3.24C17.949,1.151,15.042,0,12,0C8.957,0,6.049,1.151,3.814,3.242C3.668,3.379,3.618,3.591,3.687,3.779
		c0.069,0.188,0.244,0.317,0.444,0.328l7.844,0.39c0.008,0,0.017,0,0.025,0s0.017,0,0.025,0l7.842-0.392
		c0.201-0.01,0.375-0.139,0.445-0.328C20.38,3.589,20.33,3.377,20.183,3.24z"/>
</g>
<g>
</g>
<g>
</g>
<g>
</g>
<g>
</g>
<g>
</g>
<g>
</g>
<g>
</g>
<g>
</g>
<g>
</g>
<g>
</g>
<g>
</g>
<g>
</g>
<g>
</g>
<g>
</g>
<g>
</g>
</svg>
