<?xml version="1.0" encoding="iso-8859-1"?>
<!-- Generator: Adobe Illustrator 19.0.0, SVG Export Plug-In . SVG Version: 6.00 Build 0)  -->
<svg version="1.1" id="Layer_1" xmlns="http://www.w3.org/2000/svg" xmlns:xlink="http://www.w3.org/1999/xlink" x="0px" y="0px"
	 viewBox="0 0 24 24" style="enable-background:new 0 0 24 24;" xml:space="preserve">
<g>
	<path d="M12,0C5.383,0,0,5.383,0,12c0,3.407,1.482,6.672,4.066,8.958c0.095,0.084,0.213,0.125,0.331,0.125
		c0.123,0,0.246-0.045,0.342-0.135c0.23-0.216,0.446-0.373,0.68-0.492c0.142-0.073,0.261-0.186,0.285-0.344
		c0.025-0.158-0.007-0.295-0.119-0.408c-0.021-0.027-0.044-0.052-0.07-0.075c-0.074-0.065-0.146-0.146-0.218-0.245
		C5.29,19.376,5.28,19.364,5.27,19.352c-0.011-0.022-0.024-0.046-0.03-0.057c-0.042-0.066-0.079-0.135-0.112-0.214l-0.04-0.099
		c-0.026-0.077-0.044-0.155-0.074-0.318c-0.014-0.12-0.015-0.228,0.008-0.375c0.012-0.083,0.025-0.166,0.04-0.218l-0.454-0.208
		l0.488,0.111c0.015-0.04,0.04-0.097,0.091-0.207C6.242,14.871,8.917,13,12,13s5.758,1.871,6.834,4.813
		c0.03,0.063,0.059,0.125,0.052,0.092c0.005,0.025,0.034,0.113,0.043,0.138c0.025,0.082,0.038,0.164,0.061,0.292
		c0.013,0.103,0.012,0.211-0.019,0.413c-0.014,0.08-0.03,0.159-0.058,0.235c-0.001,0.003-0.041,0.103-0.042,0.106
		c-0.031,0.072-0.068,0.141-0.11,0.208c0,0-0.015,0.028-0.027,0.053c-0.011,0.013-0.021,0.025-0.027,0.034
		c-0.067,0.092-0.135,0.168-0.234,0.262c-0.12,0.111-0.178,0.273-0.155,0.435c0.022,0.162,0.123,0.303,0.269,0.376
		c0.232,0.119,0.448,0.274,0.679,0.49c0.189,0.176,0.479,0.18,0.673,0.009C22.52,18.669,24,15.405,24,12C24,5.383,18.617,0,12,0z
		 M8.5,11h-3C5.224,11,5,10.776,5,10.5S5.224,10,5.5,10h3C8.776,10,9,10.224,9,10.5S8.776,11,8.5,11z M18.5,11h-3
		c-0.276,0-0.5-0.224-0.5-0.5s0.224-0.5,0.5-0.5h3c0.276,0,0.5,0.224,0.5,0.5S18.776,11,18.5,11z"/>
	<g>
		<path d="M12,16c3.287,0,5.007,1.148,5.821,1.968C16.884,15.584,14.605,14,12,14s-4.884,1.584-5.821,3.968
			C6.993,17.148,8.713,16,12,16z"/>
	</g>
	<g>
		<path d="M12,16c3.001,0,4.695,0.957,5.588,1.749C16.977,17.06,15.474,16,12,16z"/>
		<path d="M12,16c-3.474,0-4.977,1.06-5.588,1.749C7.305,16.957,8.999,16,12,16z"/>
		<path d="M18.998,22.461c-0.064-0.847-1.113-1.451-2.432-1.409c-0.054-0.105-0.026-0.582,0.278-1.211
			c0.225-0.465,0.462-0.717,0.589-0.801C17.048,18.503,15.645,17,12,17c-3.646,0-5.054,1.514-5.435,2.042
			c0.133,0.088,0.368,0.34,0.59,0.799C7.46,20.471,7.487,20.948,7.5,21c-1.382,0-2.433,0.615-2.501,1.495
			c-0.021,0.261-0.053,0.656,0.25,0.983C5.592,23.849,6.243,24,7.5,24h9c1.257,0,1.908-0.151,2.251-0.522
			C19.054,23.151,19.021,22.756,18.998,22.461z M10.5,22c-0.276,0-0.5-0.224-0.5-0.5c0-0.527-0.627-2.373-0.86-2.654
			c-0.171-0.206-0.162-0.522,0.035-0.702c0.197-0.18,0.489-0.188,0.679,0.002C10.292,18.584,11,20.778,11,21.5
			C11,21.776,10.776,22,10.5,22z M14.858,18.848C14.624,19.136,14,20.974,14,21.5c0,0.276-0.224,0.5-0.5,0.5S13,21.776,13,21.5
			c0-0.722,0.708-2.916,1.146-3.354c0.195-0.195,0.512-0.195,0.707,0C15.047,18.34,15.049,18.653,14.858,18.848z"/>
	</g>
</g>
<g>
</g>
<g>
</g>
<g>
</g>
<g>
</g>
<g>
</g>
<g>
</g>
<g>
</g>
<g>
</g>
<g>
</g>
<g>
</g>
<g>
</g>
<g>
</g>
<g>
</g>
<g>
</g>
<g>
</g>
</svg>
