<?xml version="1.0" encoding="iso-8859-1"?>
<!-- Generator: Adobe Illustrator 19.0.0, SVG Export Plug-In . SVG Version: 6.00 Build 0)  -->
<svg version="1.1" id="Layer_1" xmlns="http://www.w3.org/2000/svg" xmlns:xlink="http://www.w3.org/1999/xlink" x="0px" y="0px"
	 viewBox="0 0 24 24" style="enable-background:new 0 0 24 24;" xml:space="preserve">
<path d="M12,0C5.383,0,0,5.383,0,12s5.383,12,12,12s12-5.383,12-12S18.617,0,12,0z M5.5,11c-0.128,0-0.256-0.049-0.354-0.146
	c-0.195-0.195-0.195-0.512,0-0.707L6.793,8.5L5.146,6.854c-0.195-0.195-0.195-0.512,0-0.707s0.512-0.195,0.707,0L7.5,7.793
	l1.646-1.646c0.195-0.195,0.512-0.195,0.707,0s0.195,0.512,0,0.707L8.207,8.5l1.646,1.646c0.195,0.195,0.195,0.512,0,0.707
	C9.756,10.951,9.628,11,9.5,11s-0.256-0.049-0.354-0.146L7.5,9.207l-1.646,1.646C5.756,10.951,5.628,11,5.5,11z M17.5,17h-11
	C6.224,17,6,16.776,6,16.5S6.224,16,6.5,16h11c0.276,0,0.5,0.224,0.5,0.5S17.776,17,17.5,17z M18.854,10.146
	c0.195,0.195,0.195,0.512,0,0.707C18.756,10.951,18.628,11,18.5,11s-0.256-0.049-0.354-0.146L16.5,9.207l-1.646,1.646
	C14.756,10.951,14.628,11,14.5,11s-0.256-0.049-0.354-0.146c-0.195-0.195-0.195-0.512,0-0.707L15.793,8.5l-1.646-1.646
	c-0.195-0.195-0.195-0.512,0-0.707s0.512-0.195,0.707,0L16.5,7.793l1.646-1.646c0.195-0.195,0.512-0.195,0.707,0
	s0.195,0.512,0,0.707L17.207,8.5L18.854,10.146z"/>
<g>
</g>
<g>
</g>
<g>
</g>
<g>
</g>
<g>
</g>
<g>
</g>
<g>
</g>
<g>
</g>
<g>
</g>
<g>
</g>
<g>
</g>
<g>
</g>
<g>
</g>
<g>
</g>
<g>
</g>
</svg>
