<?xml version="1.0" encoding="iso-8859-1"?>
<!-- Generator: Adobe Illustrator 19.0.0, SVG Export Plug-In . SVG Version: 6.00 Build 0)  -->
<svg version="1.1" id="Layer_1" xmlns="http://www.w3.org/2000/svg" xmlns:xlink="http://www.w3.org/1999/xlink" x="0px" y="0px"
	 viewBox="0 0 30 30" style="enable-background:new 0 0 30 30;" xml:space="preserve">
<g>
	<g>
		<path d="M26,0.5H4C2.07,0.5,0.5,2.07,0.5,4v22c0,1.93,1.57,3.5,3.5,3.5h22c1.93,0,3.5-1.57,3.5-3.5V4C29.5,2.07,27.93,0.5,26,0.5z
			 M28.5,26c0,1.378-1.122,2.5-2.5,2.5H4c-1.378,0-2.5-1.122-2.5-2.5V4c0-1.378,1.122-2.5,2.5-2.5h22c1.378,0,2.5,1.122,2.5,2.5V26z
			 M24,18.5h-8.766l-4.85-5.82C10.289,12.566,10.148,12.5,10,12.5H6c-0.276,0-0.5,0.224-0.5,0.5s0.224,0.5,0.5,0.5h3.766l4.85,5.82
			c0.095,0.114,0.236,0.18,0.384,0.18h9c0.276,0,0.5-0.224,0.5-0.5S24.276,18.5,24,18.5z M24,12.5h-9c-0.276,0-0.5,0.224-0.5,0.5
			s0.224,0.5,0.5,0.5h9c0.276,0,0.5-0.224,0.5-0.5S24.276,12.5,24,12.5z"/>
	</g>
</g>
</svg>
