<?xml version="1.0" encoding="iso-8859-1"?>
<!-- Generator: Adobe Illustrator 19.0.0, SVG Export Plug-In . SVG Version: 6.00 Build 0)  -->
<svg version="1.1" id="Layer_1" xmlns="http://www.w3.org/2000/svg" xmlns:xlink="http://www.w3.org/1999/xlink" x="0px" y="0px"
	 viewBox="0 0 30 30" style="enable-background:new 0 0 30 30;" xml:space="preserve">
<g>
	<g>
		<path d="M26.5,0h-23C1.57,0,0,1.57,0,3.5v23C0,28.43,1.57,30,3.5,30h23c1.93,0,3.5-1.57,3.5-3.5v-23C30,1.57,28.43,0,26.5,0z
			 M29,26.5c0,1.378-1.121,2.5-2.5,2.5h-23C2.121,29,1,27.878,1,26.5v-23C1,2.122,2.121,1,3.5,1h23C27.879,1,29,2.122,29,3.5V26.5z
			 M24.5,9C24.224,9,24,9.224,24,9.5V16H10.999v-3.5c0-0.193-0.11-0.368-0.283-0.451c-0.175-0.084-0.379-0.06-0.529,0.06l-5,4
			c-0.119,0.096-0.188,0.239-0.188,0.391s0.07,0.296,0.188,0.391l5,4C10.278,20.963,10.389,21,10.5,21
			c0.073,0,0.147-0.016,0.216-0.049c0.173-0.084,0.283-0.259,0.283-0.451V17H24.5c0.276,0,0.5-0.224,0.5-0.5v-7
			C25,9.224,24.776,9,24.5,9z M10,19.459L6.301,16.5L10,13.54V19.459z"/>
	</g>
</g>
</svg>
