<?xml version="1.0" encoding="iso-8859-1"?>
<!-- Generator: Adobe Illustrator 19.0.0, SVG Export Plug-In . SVG Version: 6.00 Build 0)  -->
<svg version="1.1" id="Layer_1" xmlns="http://www.w3.org/2000/svg" xmlns:xlink="http://www.w3.org/1999/xlink" x="0px" y="0px"
	 viewBox="0 0 30 30" style="enable-background:new 0 0 30 30;" xml:space="preserve">
<g>
	<g>
		<path d="M15.364,5.198c-0.19-0.199-0.537-0.199-0.726,0l-8.5,8.957C6,14.301,5.962,14.513,6.041,14.697C6.12,14.881,6.3,15,6.5,15
			H10v9.5c0,0.276,0.224,0.5,0.5,0.5h9c0.276,0,0.5-0.224,0.5-0.5V15h3.5c0.2,0,0.38-0.119,0.461-0.303
			c0.078-0.184,0.041-0.397-0.097-0.542L15.364,5.198z M19.5,14c-0.276,0-0.5,0.224-0.5,0.5V24h-8v-9.5c0-0.276-0.224-0.5-0.5-0.5
			H7.664L15,6.27L22.336,14H19.5z M26.5,0h-23C1.57,0,0,1.57,0,3.5v23C0,28.43,1.57,30,3.5,30h23c1.93,0,3.5-1.57,3.5-3.5v-23
			C30,1.57,28.43,0,26.5,0z M29,26.5c0,1.378-1.122,2.5-2.5,2.5h-23C2.122,29,1,27.878,1,26.5v-23C1,2.122,2.122,1,3.5,1h23
			C27.878,1,29,2.122,29,3.5V26.5z"/>
	</g>
</g>
</svg>
