<?xml version="1.0" encoding="iso-8859-1"?>
<!-- Generator: Adobe Illustrator 19.2.1, SVG Export Plug-In . SVG Version: 6.00 Build 0)  -->
<svg version="1.1" id="Layer_1" xmlns="http://www.w3.org/2000/svg" xmlns:xlink="http://www.w3.org/1999/xlink" x="0px" y="0px"
	 viewBox="0 0 30 30" style="enable-background:new 0 0 30 30;" xml:space="preserve">
<g>
	<g>
		<path d="M23.5,17.001c-3.584,0-6.5,2.916-6.5,6.5s2.916,6.5,6.5,6.5s6.5-2.916,6.5-6.5S27.084,17.001,23.5,17.001z M23.5,29.001
			c-3.032,0-5.5-2.467-5.5-5.5s2.468-5.5,5.5-5.5s5.5,2.467,5.5,5.5S26.532,29.001,23.5,29.001z M15.546,24.421l-8.62,1.499
			L4.06,4.908l21.038-3.825l2.965,16.309c0.049,0.272,0.316,0.453,0.582,0.402c0.271-0.049,0.451-0.31,0.402-0.581L25.992,0.412
			c-0.024-0.131-0.099-0.246-0.208-0.322c-0.108-0.076-0.24-0.109-0.374-0.081l-8.319,1.513c-0.016-0.003-0.027-0.016-0.043-0.018
			l-15.5-1.5C1.41-0.01,1.276,0.034,1.172,0.124C1.068,0.214,1.007,0.343,1,0.48l-1,23c-0.01,0.259,0.178,0.484,0.436,0.517
			l5.313,0.693l0.256,1.878c0.017,0.135,0.09,0.256,0.2,0.336c0.086,0.064,0.19,0.097,0.295,0.097c0.028,0,0.058-0.002,0.086-0.007
			l9.132-1.588c0.271-0.047,0.454-0.306,0.406-0.578C16.077,24.555,15.811,24.377,15.546,24.421z M1.02,23.064L1.976,1.049
			l11.559,1.119L3.41,4.009c-0.018,0.003-0.033,0.015-0.05,0.02C3.253,4.061,3.159,4.121,3.096,4.207
			C3.023,4.308,2.987,4.435,3.005,4.568l2.604,19.094L1.02,23.064z M25.5,23.001H24v-1.5c0-0.276-0.224-0.5-0.5-0.5
			s-0.5,0.224-0.5,0.5v1.5h-1.5c-0.276,0-0.5,0.224-0.5,0.5s0.224,0.5,0.5,0.5H23v1.5c0,0.276,0.224,0.5,0.5,0.5s0.5-0.224,0.5-0.5
			v-1.5h1.5c0.276,0,0.5-0.224,0.5-0.5S25.776,23.001,25.5,23.001z"/>
	</g>
</g>
</svg>
