<?xml version="1.0" encoding="utf-8"?>
<!-- Generator: Adobe Illustrator 19.0.0, SVG Export Plug-In . SVG Version: 6.00 Build 0)  -->
<svg version="1.1" id="Layer_1" xmlns="http://www.w3.org/2000/svg" xmlns:xlink="http://www.w3.org/1999/xlink" x="0px" y="0px"
	 viewBox="0 0 30 30" style="enable-background:new 0 0 30 30;" xml:space="preserve">
<g>
	<g>
		<path d="M16,22.4c0-1.5,0.6-4.1,2.3-5.2c0.2-0.1,0.2-0.3,0.2-0.5s-0.1-0.3-0.3-0.4c-2.6-1.1-4.7-4.6-4.7-6.8C13.5,9.2,13.3,9,13,9
			C11,9,0,9.7,0,13c0,4.7,3.2,17,18,17c0.2,0,0.4-0.1,0.5-0.3c0.1-0.2,0-0.4-0.1-0.5C16.5,27.3,16,23.9,16,22.4z"/>
	</g>
	<g>
		<path d="M22,18.1V18c0-0.1-0.1-0.3-0.1-0.4c-0.1-0.1-0.2-0.1-0.4-0.1l-0.1,0c-0.3,0-1,0-1.7-0.1c-0.2,0-0.3,0.1-0.5,0.2
			c-0.1,0.2-0.3,0.3-0.4,0.4c-1.2,0.8-1.6,2.7-1.7,3.3c0,0,0,0.1,0,0.1l0.2,3.2c0.3,1.2,0.8,2.8,1.8,3.8c0.1,0.1,0.2,0.3,0.3,0.5
			c0.1,0.2,0.3,0.3,0.5,0.3c0,0,0,0,0.1,0c3.1-0.4,5.1-1.1,5.9-1.9C26,27.2,26,27.1,26,27c0-0.1-0.1-0.3-0.2-0.4
			C22,24,22,19.6,22,18.1z"/>
	</g>
	<g>
		<path d="M1.9,9.8c0.1,0,0.1,0,0.2,0C5.9,8.2,11.6,8,12.7,8c0.2,0,0.4-0.2,0.5-0.4c0.1-0.8,0.3-1.5,0.3-1.5c0-0.1,0-0.3-0.1-0.4
			c-0.3-0.4-0.9-0.1-1.6,0C11,5.8,10,6,9,6C7,6,5.5,5.3,4.4,3.7C4.3,3.6,4.2,3.5,4,3.5c-0.1,0-0.3,0-0.4,0.1
			C2.8,4.5,2.1,6.3,1.5,9.2c0,0.2,0,0.4,0.2,0.5C1.7,9.7,1.8,9.8,1.9,9.8z"/>
	</g>
	<g>
		<path d="M26.8,18c-0.8,0-1.7,0.1-2.5,0.3c-0.3,0-0.5,0.1-0.8,0.1c-0.3,0-0.4,0.3-0.4,0.5c0.1,3.1,1.1,5.2,3.1,6.7
			c0.1,0.1,0.2,0.1,0.3,0.1c0.1,0,0.2,0,0.3-0.1c1.5-1,3.3-2.7,3.3-4.6C30,19,28.9,18,26.8,18z"/>
	</g>
	<g>
		<path d="M9,5L9,5c0.8,0,1.7-0.2,2.6-0.3c0.6-0.1,1-0.2,1.4-0.2c0.2,0,0.4-0.1,0.4-0.3C13.8,3.3,14.3,2,13.7,1
			c-0.4-0.7-1.3-1-2.7-1C9.1,0,7,1.5,5.6,2.8C5.4,3,5.4,3.3,5.5,3.5C6.4,4.5,7.5,5,9,5z"/>
	</g>
</g>
</svg>
