<?xml version="1.0" encoding="utf-8"?>
<!-- Generator: Adobe Illustrator 19.0.0, SVG Export Plug-In . SVG Version: 6.00 Build 0)  -->
<svg version="1.1" id="Layer_1" xmlns="http://www.w3.org/2000/svg" xmlns:xlink="http://www.w3.org/1999/xlink" x="0px" y="0px"
	 viewBox="0 0 30 30" style="enable-background:new 0 0 30 30;" xml:space="preserve">
<g>
	<g>
		<path d="M13,10.5c-2.4,0-5,1.2-5,3c0,1.3,1.6,2,5,2s5-0.7,5-2C18,11.7,15.4,10.5,13,10.5z M14.9,14.4c-0.3,0.1-0.8,0.1-1.9,0.1
			c-1.2,0-1.7,0-2.1-0.1c-0.3-0.1-0.4-0.4-0.3-0.6c0.1-0.3,0.4-0.4,0.6-0.3c0.2,0.1,1,0.1,1.7,0.1c0.8,0,1.4,0,1.5-0.1
			c0.3-0.1,0.5,0,0.6,0.3C15.3,14,15.2,14.3,14.9,14.4z"/>
	</g>
	<g>
		<path d="M24,12.6c0-1.1-0.3-2.1-1.2-3.1c-2-2.4-6.5-4-11.1-4C5.2,5.5,0,8.5,0,12.3c0,3,3.4,6,7.9,6.9c1.2,0.2,2.4,1,3.2,2
			c1.7,2.1,5.1,3.4,8.9,3.4c5.3,0,10-3,10-6.5C30,15.4,27.8,13.5,24,12.6z M13,16.5c-1.5,0-6,0-6-3c0-2.5,3.1-4,6-4s6,1.5,6,4
			C19,16.5,14.5,16.5,13,16.5z"/>
	</g>
</g>
</svg>
