<?xml version="1.0" encoding="utf-8"?>
<!-- Generator: Adobe Illustrator 19.0.0, SVG Export Plug-In . SVG Version: 6.00 Build 0)  -->
<svg version="1.1" id="Layer_1" xmlns="http://www.w3.org/2000/svg" xmlns:xlink="http://www.w3.org/1999/xlink" x="0px" y="0px"
	 viewBox="0 0 30 30" style="enable-background:new 0 0 30 30;" xml:space="preserve">
<g>
	<g>
		<g>
			<path d="M26.3,4.6c-1.2,0-2.5,0.5-3.6,1.4c-1.3,1-1.8,2.2-2.3,3.6c-0.7,1.7-1.5,3.8-4.6,6.5c-2,1.7-6.9,5.2-8.7,6.2
				c-1.7,0.9-2.5,2.8-2.1,4.6C5.5,28.3,7,30,9.9,30c0.4,0,0.8,0,1.2-0.1c2.5-0.3,7.7-4.2,11-7.5C25.8,18.8,30,13,30,8.9
				C30,6.3,28.6,4.6,26.3,4.6z"/>
		</g>
		<g>
			<path d="M19.1,3.8c0.2-0.7,0.5-1.2,0.7-1.8c0.1-0.2,0.1-0.4-0.1-0.6c-0.1-0.2-0.3-0.2-0.5-0.1c-1.6,0.5-2.2,1.8-2.9,3.4
				c-0.7,1.5-1.6,3.4-3.7,5.5c-2.1,2.1-4.4,3.5-6.2,4.6C5.1,15.6,4,16.2,3.2,17c-0.2,0.2-0.2,0.4-0.1,0.6c0.1,0.1,0.3,0.2,0.4,0.2
				c0.1,0,0.1,0,0.2,0c3.2-1.2,8.4-3.7,10-5.3C16,10.3,17.8,7.4,19.1,3.8z"/>
		</g>
	</g>
	<g>
		<path d="M25,0.1l0.4,1.3c0.1,0.3-0.1,0.5-0.3,0.6C25.1,2,25,2,25,2c-0.2,0-0.4-0.1-0.5-0.3l-0.2-0.5l-0.4,0.6
			c-0.2,0.2-0.5,0.3-0.7,0.1c-0.2-0.2-0.3-0.5-0.1-0.7L23.9,0c-1.4,0.1-2.7,0.6-3.9,4.1c-1.3,3.7-3.2,6.8-5.5,9.2
			C12.2,15.6,4.1,18.7,4,18.8C1.7,19.7,0,21.5,0,23c0,0.1,0,0.2,0,0.3l1.1-1.1c0.2-0.2,0.5-0.2,0.7,0s0.2,0.5,0,0.7L1,23.7l0.9-0.2
			c0.3-0.1,0.5,0.1,0.6,0.4s-0.1,0.5-0.4,0.6l-1.4,0.3c0.5,0.6,1.3,1,2.8,1.2c0,0,0,0,0,0c0.1,0,0.2,0,0.3-0.1
			C3.9,25.7,4,25.6,4,25.5c0.1-1.8,1.1-3.3,2.7-4.1c1.7-0.9,6.6-4.4,8.5-6.1c2.9-2.5,3.6-4.4,4.3-6.1c0.6-1.4,1.1-2.8,2.6-4
			c1.4-1.1,3.1-1.7,4.6-1.6c0.3,0,0.5-0.2,0.5-0.5c0,0,0-0.1,0-0.2C27.2,1.4,26.4,0.4,25,0.1z"/>
	</g>
</g>
</svg>
