<?xml version="1.0" encoding="utf-8"?>
<!-- Generator: Adobe Illustrator 19.0.0, SVG Export Plug-In . SVG Version: 6.00 Build 0)  -->
<svg version="1.1" id="Layer_1" xmlns="http://www.w3.org/2000/svg" xmlns:xlink="http://www.w3.org/1999/xlink" x="0px" y="0px"
	 viewBox="0 0 30 30" style="enable-background:new 0 0 30 30;" xml:space="preserve">
<g>
	<g>
		<path d="M19.1,10.9C14.9,6.6,10.6,6.1,9.7,6L2.1,24.4l0,0l-2,4.9c-0.1,0.2,0,0.4,0.1,0.5C0.2,29.9,0.4,30,0.5,30
			c0.1,0,0.1,0,0.2,0l18.1-7.5l0,0l3.9-1.6l0,0l1.3-0.6C23.9,19.4,23.4,15.1,19.1,10.9z M2.1,27l0.7-1.6l0.7-1.7C3.8,24,4,24.5,4,25
			C4,26.1,3.1,27,2.1,27z M6.8,15.6L6.8,15.6L8.3,12c1,0.1,1.7,1,1.7,2c0,1.1-0.9,2-2,2C7.6,16,7.1,15.9,6.8,15.6z M12.8,23.9
			L11,24.6l-0.7,0.3C9.5,24.6,9,23.9,9,23c0-1.1,0.9-2,2-2s2,0.9,2,2C13,23.3,12.9,23.6,12.8,23.9z M15,16c-1.1,0-2-0.9-2-2
			s0.9-2,2-2s2,0.9,2,2S16.1,16,15,16z M22,20.1l-3.3,1.4C18.2,21.1,18,20.6,18,20c0-1.1,0.9-2,2-2S22,18.9,22,20.1
			C22,20,22,20,22,20.1z"/>
	</g>
	<g>
		<path d="M30,17.4c-0.1-0.3-1.6-6.2-6.6-11.2C18.3,1.1,12.8,0.1,12.6,0c-0.2,0-0.5,0.1-0.6,0.3l-2,4.7c1.5,0.2,5.6,1,9.8,5.1
			s5,8.3,5.1,9.8l4.7-2C29.9,17.9,30,17.6,30,17.4z"/>
	</g>
</g>
</svg>
