<?xml version="1.0" encoding="iso-8859-1"?>
<!-- Generator: Adobe Illustrator 19.0.0, SVG Export Plug-In . SVG Version: 6.00 Build 0)  -->
<svg version="1.1" id="Layer_1" xmlns="http://www.w3.org/2000/svg" xmlns:xlink="http://www.w3.org/1999/xlink" x="0px" y="0px"
	 viewBox="0 0 30 30" style="enable-background:new 0 0 30 30;" xml:space="preserve">
<g>
	<g>
		<path d="M23,15c-1.5,0-3.8,2.9-6.1,5.6c-3,3.6-6,7.4-8.9,7.4s-5.6-1.8-7.4-4v0.3C0.8,25.9,2.4,30,8,30c2.9,0,6.2-3.6,9.5-7.1
			c2.5-2.7,5-5.4,6.5-5.4c4,0,5.9-3,6-5.8C28.6,13.6,25.8,15,23,15z"/>
	</g>
	<g>
		<g>
			<path d="M2,9C1.9,9,1.7,9,1.6,8.9c-0.2-0.2-0.2-0.5,0-0.7C2.5,7.3,2.2,6,1.8,4.6C1.4,3.1,0.9,1.4,2.1,0.1C2.3,0,2.7,0,2.9,0.1
				s0.2,0.5,0,0.7C2,1.7,2.4,2.9,2.8,4.3c0.4,1.5,0.9,3.3-0.4,4.6C2.3,9,2.1,9,2,9z"/>
		</g>
	</g>
	<g>
		<g>
			<path d="M6.5,6C6.3,6,6.2,5.9,6.1,5.8C5.9,5.5,6,5.2,6.2,5.1c0.6-0.4,0.5-0.8-0.1-1.9C5.6,2.3,4.8,1,6.2,0.1
				C6.5-0.1,6.8,0,6.9,0.2C7.1,0.5,7,0.8,6.8,0.9C6.2,1.3,6.3,1.6,6.9,2.7c0.5,0.9,1.3,2.2-0.2,3.2C6.7,6,6.6,6,6.5,6z"/>
		</g>
	</g>
	<g>
		<g>
			<path d="M9.5,4C9.3,4,9.1,3.9,9,3.7C8.9,3.4,9.1,3.1,9.3,3c0.4-0.1,0.4-0.2,0.4-0.2c0-0.1-0.1-0.4-0.2-0.6
				C9.4,1.8,9.1,1.3,9.3,0.8c0.1-0.3,0.5-0.6,1-0.8c0.3-0.1,0.5,0.1,0.6,0.3c0.1,0.3-0.1,0.5-0.3,0.6c-0.3,0.1-0.4,0.2-0.4,0.2
				c0,0.1,0.1,0.4,0.2,0.6c0.2,0.4,0.4,0.9,0.2,1.4c-0.2,0.4-0.5,0.6-1,0.8C9.6,4,9.6,4,9.5,4z"/>
		</g>
	</g>
	<g>
		<path d="M22.5,5c-1,0-1.9,0-2.7,0c-4.4-0.1-6.2-0.1-10.6,2.6C8.5,8,7.9,8.4,7.2,8.8C3,11.2,0,12.9,0,17c0,2.1,0.7,5,2.2,7.3
			C3.8,25.8,5.8,27,8,27c2.4,0,5.5-3.7,8.2-7c2.6-3.2,4.9-6,6.8-6c3.4,0,6.8-2.4,7-4.8C29.8,6.4,27.4,5,22.5,5z M8,19
			c-1.7,0-3-0.9-3-2s1.3-2,3-2s3,0.9,3,2S9.7,19,8,19z M16.9,14.8C16.8,15,16.6,15,16.5,15s-0.3,0-0.4-0.1C15.2,14,10,12,8.5,12
			C8.2,12,8,11.8,8,11.5S8.2,11,8.5,11c1.7,0,7.2,1.9,8.4,3.1C17.1,14.3,17.1,14.6,16.9,14.8z M23.9,10.8C23.8,11,23.6,11,23.5,11
			s-0.3,0-0.4-0.1C22.4,10.1,19.2,9,16.5,9C16.2,9,16,8.8,16,8.5S16.2,8,16.5,8c2.9,0,6.4,1.2,7.4,2.1
			C24.1,10.3,24.1,10.6,23.9,10.8z"/>
		<path d="M8,16c-1.1,0-2,0.5-2,1s0.9,1,2,1s2-0.5,2-1S9.1,16,8,16z"/>
	</g>
</g>
</svg>
