<?xml version="1.0" encoding="iso-8859-1"?>
<!-- Generator: Adobe Illustrator 19.0.0, SVG Export Plug-In . SVG Version: 6.00 Build 0)  -->
<svg version="1.1" id="Layer_1" xmlns="http://www.w3.org/2000/svg" xmlns:xlink="http://www.w3.org/1999/xlink" x="0px" y="0px"
	 viewBox="0 0 24 24" style="enable-background:new 0 0 24 24;" xml:space="preserve">
<g>
	<g>
		<path d="M11,5.5c-0.276,0-0.5,0.224-0.5,0.5v1.191L9.224,6.553C8.977,6.43,8.677,6.53,8.553,6.777
			C8.429,7.024,8.53,7.324,8.777,7.448l1.724,0.862v3.19H8.31L7.448,9.776C7.324,9.529,7.024,9.43,6.777,9.552
			C6.53,9.676,6.43,9.976,6.553,10.223l0.638,1.276H6c-0.276,0-0.5,0.224-0.5,0.5s0.224,0.5,0.5,0.5h1.191l-0.638,1.276
			c-0.124,0.247-0.023,0.547,0.224,0.671C6.849,14.482,6.925,14.499,7,14.499c0.184,0,0.36-0.101,0.448-0.276l0.862-1.724h2.19
			v3.191l-1.724,0.862c-0.247,0.124-0.347,0.424-0.224,0.671C8.64,17.398,8.816,17.499,9,17.499c0.075,0,0.151-0.017,0.223-0.053
			l1.276-0.638v1.191c0,0.276,0.224,0.5,0.5,0.5s0.5-0.224,0.5-0.5v-12C11.5,5.724,11.276,5.5,11,5.5z M13,9.5
			c1.107,0,1.649-0.362,2.085-0.653C15.397,8.638,15.603,8.5,16,8.5c0.804,0,1.156,0.235,1.529,0.485C17.89,9.226,18.3,9.5,19,9.5
			c0.276,0,0.5-0.224,0.5-0.5S19.276,8.5,19,8.5c-0.397,0-0.603-0.138-0.915-0.347C17.649,7.862,17.107,7.5,16,7.5
			c-0.7,0-1.11,0.274-1.471,0.515C14.156,8.265,13.804,8.5,13,8.5c-0.276,0-0.5,0.224-0.5,0.5S12.724,9.5,13,9.5z M19,14.5
			c-0.397,0-0.603-0.138-0.915-0.347C17.649,13.862,17.107,13.5,16,13.5c-0.7,0-1.11,0.274-1.471,0.515
			C14.156,14.265,13.804,14.5,13,14.5c-0.276,0-0.5,0.224-0.5,0.5s0.224,0.5,0.5,0.5c1.107,0,1.649-0.362,2.085-0.653
			C15.397,14.638,15.603,14.5,16,14.5c0.804,0,1.156,0.235,1.529,0.485C17.89,15.226,18.3,15.5,19,15.5c0.276,0,0.5-0.224,0.5-0.5
			S19.276,14.5,19,14.5z M12,0.5C5.659,0.5,0.5,5.659,0.5,12S5.659,23.5,12,23.5S23.5,18.341,23.5,12S18.341,0.5,12,0.5z M12,22.5
			C6.21,22.5,1.5,17.79,1.5,12S6.21,1.5,12,1.5S22.5,6.21,22.5,12S17.79,22.5,12,22.5z M19,11.5c-0.397,0-0.603-0.138-0.915-0.347
			C17.649,10.862,17.107,10.5,16,10.5c-0.7,0-1.11,0.274-1.471,0.515C14.156,11.265,13.804,11.5,13,11.5c-0.276,0-0.5,0.224-0.5,0.5
			s0.224,0.5,0.5,0.5c1.107,0,1.649-0.362,2.085-0.653C15.397,11.638,15.603,11.5,16,11.5c0.804,0,1.156,0.235,1.529,0.485
			C17.89,12.226,18.3,12.5,19,12.5c0.276,0,0.5-0.224,0.5-0.5S19.276,11.5,19,11.5z"/>
	</g>
</g>
</svg>
