<?xml version="1.0" encoding="iso-8859-1"?>
<!-- Generator: Adobe Illustrator 19.0.0, SVG Export Plug-In . SVG Version: 6.00 Build 0)  -->
<svg version="1.1" id="Layer_1" xmlns="http://www.w3.org/2000/svg" xmlns:xlink="http://www.w3.org/1999/xlink" x="0px" y="0px"
	 viewBox="0 0 24 24" style="enable-background:new 0 0 24 24;" xml:space="preserve">
<g>
	<g>
		<path d="M15.5,7C16.328,7,17,6.328,17,5.5S16.328,4,15.5,4S14,4.672,14,5.5S14.672,7,15.5,7z M8.5,16C8.224,16,8,16.224,8,16.5
			v1.793l-5.146-5.146c-0.195-0.195-0.512-0.195-0.707,0s-0.195,0.512,0,0.707L7.293,19H5.5C5.224,19,5,19.224,5,19.5
			S5.224,20,5.5,20h3c0.065,0,0.13-0.013,0.191-0.038c0.122-0.051,0.22-0.148,0.271-0.271C8.987,19.63,9,19.565,9,19.5v-3
			C9,16.224,8.776,16,8.5,16z M21.5,16h-1.793L17,13.293V9.5C17,8.673,16.327,8,15.5,8C14.673,8,14,8.673,14,9.5v0.793L8.025,4.318
			C7.175,3.468,6.046,3,4.843,3H2.5C1.122,3,0,4.122,0,5.5S1.122,8,2.5,8h1.293l11.682,11.682c0.85,0.85,1.979,1.318,3.182,1.318
			H21.5c1.378,0,2.5-1.122,2.5-2.5S22.878,16,21.5,16z"/>
	</g>
</g>
</svg>
