<?xml version="1.0" encoding="iso-8859-1"?>
<!-- Generator: Adobe Illustrator 19.0.0, SVG Export Plug-In . SVG Version: 6.00 Build 0)  -->
<svg version="1.1" id="Layer_1" xmlns="http://www.w3.org/2000/svg" xmlns:xlink="http://www.w3.org/1999/xlink" x="0px" y="0px"
	 viewBox="0 0 24 24" style="enable-background:new 0 0 24 24;" xml:space="preserve">
<g>
	<g>
		<path d="M13.5,11h-3c-0.276,0-0.5,0.224-0.5,0.5V12h4v-0.5C14,11.224,13.776,11,13.5,11z M21.5,8h-19C1.673,8,1,8.673,1,9.5v13
			C1,23.327,1.673,24,2.5,24h19c0.827,0,1.5-0.673,1.5-1.5v-13C23,8.673,22.327,8,21.5,8z M7,21.95c-1.14-0.233-2-1.243-2-2.45v-5
			c0-1.207,0.86-2.217,2-2.449V21.95z M16,22H8V12h1v-0.5c0-0.827,0.673-1.5,1.5-1.5h3c0.827,0,1.5,0.673,1.5,1.5V12h1V22z M19,19.5
			c0,1.207-0.86,2.217-2,2.449V12.05c1.14,0.232,2,1.242,2,2.449V19.5z M7.146,5.853C7.24,5.947,7.367,6,7.5,6h2
			c0.133,0,0.26-0.053,0.354-0.146L10,5.708l0.146,0.146C10.24,5.947,10.367,6,10.5,6H12c0.133,0,0.26-0.053,0.354-0.146
			l0.245-0.245l0.678,0.339c0.069,0.035,0.146,0.053,0.224,0.053h0.566c0.654,0.638,1.529,1,2.434,1c1.93,0,3.5-1.57,3.5-3.5
			S18.43,0,16.5,0c-0.905,0-1.78,0.362-2.434,1H7.5C7.367,1,7.24,1.053,7.146,1.146l-2,2c-0.195,0.195-0.195,0.512,0,0.707
			L7.146,5.853z M17,2.5c0.551,0,1,0.449,1,1s-0.449,1-1,1c-0.551,0-1-0.449-1-1S16.449,2.5,17,2.5z M8.5,3h5
			C13.776,3,14,3.224,14,3.5S13.776,4,13.5,4h-5C8.224,4,8,3.776,8,3.5S8.224,3,8.5,3z"/>
	</g>
</g>
</svg>
