<?xml version="1.0" encoding="iso-8859-1"?>
<!-- Generator: Adobe Illustrator 19.0.0, SVG Export Plug-In . SVG Version: 6.00 Build 0)  -->
<svg version="1.1" id="Layer_1" xmlns="http://www.w3.org/2000/svg" xmlns:xlink="http://www.w3.org/1999/xlink" x="0px" y="0px"
	 viewBox="0 0 24 24" style="enable-background:new 0 0 24 24;" xml:space="preserve">
<g>
	<g>
		<path d="M9.49,17.098l0.1-0.5c0.029-0.147-0.009-0.299-0.104-0.415C9.392,16.067,9.25,16,9.1,16H6.5C6.224,16,6,16.224,6,16.5
			v1.62c0,0.615,0.305,1.185,0.758,1.48l1.406,1.271C8.26,20.957,8.38,21,8.5,21c0.128,0,0.256-0.049,0.354-0.146l0.5-0.5
			C9.666,20.041,10,19.521,10,19v-0.229c0-0.489-0.191-0.95-0.51-1.261C9.467,17.459,9.455,17.273,9.49,17.098z M12,0
			C5.383,0,0,5.383,0,12s5.383,12,12,12s12-5.383,12-12S18.617,0,12,0z M12,23C5.935,23,1,18.065,1,12
			c0-2.853,1.101-5.447,2.889-7.404L7.293,8H6.5C4.57,8,3,9.57,3,11.5S4.57,15,6.5,15h3.136l5.156,2.475
			C15.16,17.807,15.565,18,16,18c0.333,0,0.66-0.116,0.967-0.326l2.437,2.437C17.447,21.899,14.853,23,12,23z M14.616,15.323
			l1.625,1.625c-0.248,0.105-0.51,0.038-0.768-0.18c-0.017-0.024-0.03-0.051-0.052-0.072C15.117,16.403,14.842,15.922,14.616,15.323
			z M20.111,19.404l-2.759-2.759l-3.328-3.328L8.853,8.146L4.595,3.888C6.553,2.101,9.147,1,12,1c6.065,0,11,4.935,11,11
			C23,14.853,21.899,17.447,20.111,19.404z M16,4.998c-0.486,0-0.932,0.247-1.331,0.657l-3.873,2.112
			c-0.139,0.076-0.233,0.212-0.256,0.368c-0.023,0.156,0.03,0.313,0.142,0.425l2.489,2.49c0.018,0.018,0.042,0.027,0.062,0.042
			c0.028,0.021,0.055,0.044,0.087,0.058c0.033,0.015,0.069,0.02,0.105,0.027c0.024,0.005,0.046,0.017,0.071,0.018
			c0.005,0,0.009-0.002,0.013-0.002c0.005,0,0.01,0.003,0.015,0.003c0.039,0,0.076-0.012,0.115-0.021
			c0.018-0.005,0.038-0.004,0.055-0.01c0.003-0.001,0.006,0,0.008-0.002c0.008-0.003,0.012-0.012,0.021-0.016
			c0.067-0.03,0.124-0.076,0.172-0.131c0.017-0.019,0.031-0.036,0.045-0.058c0.045-0.07,0.079-0.147,0.083-0.234
			c0.018-0.313,0.049-0.61,0.086-0.899c0.01-0.079,0.021-0.157,0.032-0.235c0.037-0.25,0.079-0.491,0.128-0.719
			c0.007-0.031,0.012-0.065,0.019-0.096c0.058-0.26,0.125-0.502,0.197-0.731c0.016-0.05,0.033-0.097,0.049-0.146
			c0.06-0.177,0.123-0.344,0.19-0.499c0.021-0.05,0.042-0.102,0.065-0.15c0.069-0.148,0.14-0.281,0.214-0.404
			c0.048-0.081,0.099-0.155,0.15-0.226c0.277-0.39,0.571-0.62,0.848-0.62c0.944,0,2,2.352,2,5.5c0,1.277-0.171,2.487-0.496,3.5
			c-0.084,0.263,0.061,0.544,0.324,0.628c0.051,0.016,0.102,0.024,0.152,0.024c0.211,0,0.408-0.135,0.476-0.348
			C18.812,14.194,19,12.878,19,11.498C19,7.792,17.71,4.998,16,4.998z M15.5,10c-0.276,0-0.5,0.224-0.5,0.5s0.224,0.5,0.5,0.5
			s0.5,0.224,0.5,0.5S15.776,12,15.5,12S15,12.224,15,12.5s0.224,0.5,0.5,0.5c0.827,0,1.5-0.673,1.5-1.5S16.327,10,15.5,10z"/>
	</g>
</g>
</svg>
