<?xml version="1.0" encoding="iso-8859-1"?>
<!-- Generator: Adobe Illustrator 19.0.0, SVG Export Plug-In . SVG Version: 6.00 Build 0)  -->
<svg version="1.1" id="Layer_1" xmlns="http://www.w3.org/2000/svg" xmlns:xlink="http://www.w3.org/1999/xlink" x="0px" y="0px"
	 viewBox="0 0 24 24" style="enable-background:new 0 0 24 24;" xml:space="preserve">
<g>
	<g>
		<path d="M9.995,2.5c0-0.438,0.145-0.84,0.385-1.169C9.713,0.979,8.801,0.5,7.401,0.5c-1.181,0-2.087,0.603-2.964,1.186
			C3.533,2.287,2.679,2.854,1.476,2.901C1.278,2.908,1.112,3.04,1.038,3.224C0.964,3.408,1.015,3.625,1.153,3.766
			c2.052,2.102,5.031,3.319,8.842,3.638V2.5z M20.995,10.5c-0.551,0-1,0.449-1,1c0,0.276-0.224,0.5-0.5,0.5s-0.5-0.224-0.5-0.5v-1
			c0-0.551-0.449-1-1-1c-0.551,0-1,0.449-1,1V11c0,0.276-0.224,0.5-0.5,0.5s-0.5-0.224-0.5-0.5V9.5c0-0.551-0.449-1-1-1
			c-0.551,0-1,0.449-1,1V12c0,0.276-0.224,0.5-0.5,0.5s-0.5-0.224-0.5-0.5V2.5c0-0.551-0.449-1-1-1c-0.551,0-1,0.449-1,1v12.823
			c0,0.659-0.538,1.196-1.199,1.196c-0.315,0-0.614-0.125-0.84-0.352l-0.814-0.814c-0.759-0.759-2.019-0.882-2.901-0.316
			l6.745,6.745c1.106,1.108,2.579,1.718,4.145,1.718c3.234,0,5.864-2.63,5.864-5.864V11.5C21.995,10.949,21.546,10.5,20.995,10.5z
			 M22.959,3.215c-0.073-0.184-0.248-0.307-0.445-0.314c-1.203-0.046-2.057-0.614-2.961-1.215C18.676,1.103,17.769,0.5,16.589,0.5
			c-1.4,0-2.312,0.479-2.978,0.831C13.85,1.66,13.995,2.062,13.995,2.5v4.903c3.811-0.319,6.79-1.536,8.858-3.654
			C22.991,3.608,23.033,3.398,22.959,3.215z"/>
	</g>
</g>
</svg>
