<?xml version="1.0" encoding="iso-8859-1"?>
<!-- Generator: Adobe Illustrator 19.0.0, SVG Export Plug-In . SVG Version: 6.00 Build 0)  -->
<svg version="1.1" id="Layer_1" xmlns="http://www.w3.org/2000/svg" xmlns:xlink="http://www.w3.org/1999/xlink" x="0px" y="0px"
	 viewBox="0 0 24 24" style="enable-background:new 0 0 24 24;" xml:space="preserve">
<g>
	<g>
		<path d="M23.853,12.925c-0.195-0.195-0.512-0.195-0.707,0l-5.268,5.268c-0.014-0.009-0.031-0.012-0.045-0.021
			c-0.174-0.11-0.364-0.194-0.563-0.259c-0.032-0.01-0.062-0.021-0.094-0.029c-0.216-0.061-0.44-0.105-0.676-0.105
			c-0.236,0-0.46,0.043-0.676,0.105c-0.032,0.009-0.062,0.019-0.094,0.029c-0.199,0.065-0.389,0.149-0.563,0.259
			c-0.014,0.009-0.031,0.012-0.045,0.021L2.854,5.925C2.702,5.773,2.47,5.735,2.277,5.831l-2,1C0.03,6.955-0.07,7.255,0.053,7.502
			c0.124,0.247,0.423,0.347,0.671,0.224l1.678-0.839l12.015,12.015C14.155,19.297,14,19.77,14,20.278c0,1.378,1.122,2.5,2.5,2.5
			c1.378,0,2.5-1.122,2.5-2.5c0-0.509-0.154-0.981-0.417-1.376l5.27-5.27C24.048,13.437,24.048,13.121,23.853,12.925z M9.181,10.562
			c0.098,0.098,0.226,0.146,0.354,0.146s0.256-0.049,0.354-0.146l4.95-4.95c0.195-0.195,0.195-0.512,0-0.707l-3.536-3.536
			c-0.195-0.195-0.512-0.195-0.707,0l-4.95,4.95c-0.195,0.195-0.195,0.512,0,0.707L9.181,10.562z M8.474,6.319l2.121-2.122
			c0.195-0.195,0.512-0.195,0.707,0s0.195,0.512,0,0.707L9.181,7.026C9.083,7.124,8.955,7.172,8.827,7.172S8.571,7.123,8.473,7.026
			C8.279,6.831,8.279,6.514,8.474,6.319z M10.595,11.976l5.657,5.657c0.098,0.098,0.226,0.146,0.354,0.146s0.256-0.049,0.354-0.146
			l5.657-5.657c0.094-0.094,0.146-0.221,0.146-0.354c0-0.133-0.053-0.26-0.146-0.354L16.96,5.611c-0.195-0.195-0.512-0.195-0.707,0
			l-5.657,5.657C10.4,11.464,10.4,11.78,10.595,11.976z M13.424,11.269l2.828-2.829c0.195-0.195,0.512-0.195,0.707,0
			s0.195,0.512,0,0.707l-2.828,2.829c-0.098,0.098-0.226,0.146-0.354,0.146s-0.256-0.049-0.354-0.146
			C13.228,11.78,13.228,11.464,13.424,11.269z"/>
	</g>
</g>
</svg>
