<?xml version="1.0" encoding="iso-8859-1"?>
<!-- Generator: Adobe Illustrator 19.0.0, SVG Export Plug-In . SVG Version: 6.00 Build 0)  -->
<svg version="1.1" id="Layer_1" xmlns="http://www.w3.org/2000/svg" xmlns:xlink="http://www.w3.org/1999/xlink" x="0px" y="0px"
	 viewBox="0 0 30 30" style="enable-background:new 0 0 30 30;" xml:space="preserve">
<g>
	<g>
		<path d="M26.979,0H3.022C1.356,0,0.001,1.355,0.001,3.022v23.956C0.001,28.645,1.356,30,3.022,30h23.957
			C28.645,30,30,28.645,30,26.978V3.022C30,1.355,28.645,0,26.979,0z M4,5.786C4,4.802,4.801,4,5.786,4h6.428
			C13.199,4,14,4.801,14,5.786v6.429c0,0.984-0.801,1.786-1.786,1.786H5.786C4.801,14.001,4,13.2,4,12.215V5.786z M13,22.36
			c0.29,0.91,0.738,2.753-0.124,3.406c-0.213,0.161-0.478,0.227-0.768,0.227c-0.882,0-1.997-0.606-2.608-0.985
			c-0.813,0.504-2.518,1.41-3.376,0.758C5.262,25.113,5.71,23.27,6,22.36c-0.855-0.763-2.271-2.216-1.952-3.24
			c0.332-1.063,2.259-1.092,3.281-1.028C7.684,16.925,8.433,15,9.5,15c1.067,0,1.815,1.926,2.171,3.092
			c1.022-0.062,2.949-0.035,3.281,1.028C15.271,20.144,13.855,21.598,13,22.36z M24.214,26h-6.428C16.801,26,16,25.199,16,24.214
			c0-0.201,0.037-0.404,0.11-0.604c0.008-0.03,0.019-0.06,0.032-0.088c0.003-0.01,0.005-0.013,3.177-6.303
			c0.008-0.016,0.017-0.032,0.026-0.046c0.258-0.707,0.906-1.172,1.654-1.172c0.75,0,1.399,0.467,1.656,1.177
			c0.009,0.014,0.017,0.028,0.024,0.043l3.191,6.397c0.075,0.219,0.128,0.391,0.128,0.597C26,25.199,25.199,26,24.214,26z M21,14
			c-2.757,0-5-2.243-5-5s2.243-5,5-5c2.757,0,5,2.243,5,5S23.757,14,21,14z"/>
	</g>
</g>
</svg>
