<?xml version="1.0" encoding="utf-8"?>
<!-- Generator: Adobe Illustrator 19.0.0, SVG Export Plug-In . SVG Version: 6.00 Build 0)  -->
<svg version="1.1" id="Layer_1" xmlns="http://www.w3.org/2000/svg" xmlns:xlink="http://www.w3.org/1999/xlink" x="0px" y="0px"
	 viewBox="0 0 30 30" style="enable-background:new 0 0 30 30;" xml:space="preserve">
<g>
	<g>
		<path d="M13.1,30H8.9c-0.5,0-0.9-0.4-1-0.8l-0.3-2.4c-0.5-0.2-0.9-0.5-1.4-0.8l-2.3,0.9c-0.5,0.2-1,0-1.2-0.4L0.6,23
			c-0.3-0.4-0.2-1,0.2-1.3l2-1.5c0-0.3,0-0.5,0-0.8c0-0.2,0-0.5,0-0.7l-1.9-1.5c-0.4-0.3-0.5-0.9-0.2-1.3l2.1-3.4
			c0.3-0.4,0.8-0.6,1.2-0.4L6.2,13c0.4-0.3,0.9-0.5,1.4-0.8l0.3-2.4C8,9.4,8.5,9,8.9,9h4.1c0.5,0,0.9,0.4,1,0.8l0.3,2.4
			c0.5,0.2,0.9,0.5,1.4,0.8l2.3-0.9c0.5-0.2,1,0,1.2,0.4l2.1,3.5c0.3,0.4,0.2,1-0.2,1.3l-2,1.5c0,0.3,0,0.5,0,0.8c0,0.2,0,0.5,0,0.7
			l1.9,1.5c0.4,0.3,0.5,0.9,0.2,1.3l-2.1,3.4c-0.3,0.4-0.8,0.6-1.2,0.4L15.8,26c-0.4,0.3-0.9,0.5-1.4,0.8l-0.3,2.4
			C14,29.6,13.5,30,13.1,30z M6.3,25c0.1,0,0.2,0,0.3,0.1c0.5,0.4,1,0.7,1.6,0.9c0.2,0.1,0.3,0.2,0.3,0.4L8.9,29l4.1,0l0.4-2.6
			c0-0.2,0.1-0.3,0.3-0.4c0.6-0.3,1.1-0.6,1.6-0.9c0.1-0.1,0.3-0.1,0.5-0.1l2.6,1l2.1-3.5l-2.2-1.6c-0.1-0.1-0.2-0.3-0.2-0.5
			c0-0.3,0.1-0.6,0.1-0.9c0-0.3,0-0.6-0.1-0.9c0-0.2,0.1-0.4,0.2-0.5l2.2-1.7L18.4,13l-2.6,1c-0.2,0.1-0.3,0-0.5-0.1
			c-0.5-0.4-1-0.7-1.6-0.9c-0.2-0.1-0.3-0.2-0.3-0.4L13.1,10l-4.1,0l-0.4,2.6c0,0.2-0.1,0.3-0.3,0.4c-0.6,0.3-1.1,0.6-1.6,0.9
			c-0.1,0.1-0.3,0.1-0.5,0.1l-2.6-1l-2.1,3.5l2.2,1.6c0.1,0.1,0.2,0.3,0.2,0.5c0,0.3-0.1,0.6-0.1,0.9c0,0.3,0,0.6,0.1,0.9
			c0,0.2-0.1,0.4-0.2,0.5l-2.2,1.7L3.6,26l2.6-1C6.2,25,6.3,25,6.3,25z M11,23c-1.9,0-3.5-1.6-3.5-3.5S9.1,16,11,16s3.5,1.6,3.5,3.5
			S12.9,23,11,23z M11,17c-1.4,0-2.5,1.1-2.5,2.5S9.6,22,11,22s2.5-1.1,2.5-2.5S12.4,17,11,17z"/>
	</g>
	<g>
		<path d="M24.6,12h-2.3c-0.4,0-0.7-0.3-0.8-0.6l-0.2-1.2c-0.2-0.1-0.4-0.2-0.6-0.3l-1.1,0.5c-0.4,0.1-0.8,0-1-0.3l-1.1-1.9
			c-0.2-0.3-0.1-0.7,0.2-1l1-0.8c0-0.1,0-0.2,0-0.3s0-0.2,0-0.3l-1-0.7c-0.3-0.2-0.4-0.7-0.2-1L18.7,2c0.2-0.3,0.6-0.5,0.9-0.3
			l1.2,0.5C21,2,21.2,1.9,21.4,1.8l0.2-1.2C21.7,0.3,22,0,22.4,0h2.3c0.4,0,0.7,0.3,0.8,0.7l0.2,1.1C25.8,1.9,26,2,26.1,2.2l1.1-0.5
			c0.4-0.1,0.8,0,1,0.3l1.1,1.9c0.2,0.3,0.1,0.7-0.2,1l-1,0.8c0,0.1,0,0.2,0,0.3c0,0.1,0,0.2,0,0.3l1,0.7c0,0,0,0,0,0
			c0.3,0.2,0.4,0.6,0.2,1L28.3,10c-0.2,0.3-0.6,0.5-0.9,0.3l-1.2-0.5c-0.2,0.1-0.4,0.2-0.6,0.3l-0.2,1.2C25.3,11.7,25,12,24.6,12z
			 M22.6,11h1.9l0.2-1.3c0-0.2,0.1-0.3,0.3-0.4c0.3-0.1,0.6-0.3,0.8-0.5c0.1-0.1,0.3-0.1,0.5-0.1l1.2,0.5l0.9-1.6l-1-0.8
			c-0.1-0.1-0.2-0.3-0.2-0.5c0-0.2,0-0.3,0-0.5c0-0.2,0-0.3,0-0.4c0-0.2,0-0.4,0.2-0.5l1-0.8l-0.9-1.6l-1.2,0.5
			c-0.2,0.1-0.3,0-0.5-0.1c-0.3-0.2-0.6-0.4-0.8-0.5c-0.2-0.1-0.3-0.2-0.3-0.4L24.4,1h-1.9l-0.2,1.3c0,0.2-0.1,0.3-0.3,0.4
			c-0.3,0.1-0.6,0.3-0.9,0.5c-0.1,0.1-0.3,0.1-0.5,0.1l-1.2-0.5l-0.9,1.6l1,0.8c0.1,0.1,0.2,0.3,0.2,0.5c0,0.2,0,0.3,0,0.5
			s0,0.3,0,0.5c0,0.2-0.1,0.4-0.2,0.5l-1,0.8l0.9,1.6l1.2-0.5c0.2-0.1,0.3,0,0.5,0.1c0.3,0.2,0.6,0.4,0.8,0.5
			c0.2,0.1,0.3,0.2,0.3,0.4L22.6,11z M23.5,8c-1.1,0-2-0.9-2-2s0.9-2,2-2s2,0.9,2,2S24.6,8,23.5,8z M23.5,5c-0.6,0-1,0.4-1,1
			s0.4,1,1,1s1-0.4,1-1S24.1,5,23.5,5z"/>
	</g>
</g>
</svg>
