<?xml version="1.0" encoding="utf-8"?>
<!-- Generator: Adobe Illustrator 19.0.0, SVG Export Plug-In . SVG Version: 6.00 Build 0)  -->
<svg version="1.1" id="Layer_1" xmlns="http://www.w3.org/2000/svg" xmlns:xlink="http://www.w3.org/1999/xlink" x="0px" y="0px"
	 viewBox="0 0 30 30" style="enable-background:new 0 0 30 30;" xml:space="preserve">
<g>
	<g>
		<path d="M25.7,30c-0.9,0-1.8-0.4-2.5-1l-6.7-6.7c-0.8-0.8-1.2-1.5-1.5-2.2c-0.2-0.6-0.7-1.1-1.3-1.3c-0.8-0.3-1.5-0.7-2.2-1.5
			c-0.3-0.3-0.4-0.6-0.4-1c0-0.4,0.1-0.7,0.4-1l3.8-3.8c0.5-0.5,1.4-0.5,1.9,0c0.8,0.8,1.3,1.5,1.5,2.3c0.2,0.6,0.7,1.1,1.3,1.3
			c0.8,0.3,1.5,0.7,2.2,1.5l6.7,6.7c0.7,0.7,1,1.6,1,2.5c0,0.9-0.4,1.8-1,2.5L28.2,29C27.6,29.6,26.7,30,25.7,30z M16.3,12.1
			c-0.1,0-0.2,0-0.3,0.1L12.2,16c-0.1,0.1-0.1,0.2-0.1,0.3s0,0.2,0.1,0.3c0.7,0.7,1.3,1.1,1.9,1.3c0.9,0.3,1.6,1,1.9,1.9
			c0.2,0.6,0.6,1.2,1.3,1.9l6.7,6.7c1,1,2.6,0.9,3.6,0l0,0l0.7-0.7c0.5-0.5,0.7-1.1,0.7-1.8c0-0.7-0.3-1.3-0.7-1.8l-6.7-6.7
			c-0.7-0.7-1.2-1.1-1.9-1.3c-0.9-0.3-1.6-1-1.9-1.9c-0.2-0.6-0.6-1.2-1.3-1.9C16.5,12.1,16.4,12.1,16.3,12.1z"/>
	</g>
	<g>
		<path d="M12.5,14.9c-0.1,0-0.3,0-0.4-0.1L4.7,7.3H3.8c-0.7,0-1.3-0.4-1.6-1L0.1,2C0,1.8,0,1.6,0.1,1.4l1.3-1.3C1.6,0,1.8,0,2,0.1
			l4.3,2.2c0.6,0.3,1,0.9,1,1.6v0.9l7.4,7.4c0.2,0.2,0.2,0.5,0,0.7s-0.5,0.2-0.7,0L6.5,5.3C6.4,5.2,6.3,5,6.3,4.9V3.8
			c0-0.3-0.2-0.6-0.4-0.7l-4-2L1.1,1.9l2,4c0.1,0.3,0.4,0.4,0.7,0.4h1.1c0.1,0,0.3,0.1,0.4,0.1l7.6,7.6c0.2,0.2,0.2,0.5,0,0.7
			C12.7,14.8,12.6,14.9,12.5,14.9z"/>
	</g>
</g>
</svg>
