<?xml version="1.0" encoding="utf-8"?>
<!-- Generator: Adobe Illustrator 19.0.0, SVG Export Plug-In . SVG Version: 6.00 Build 0)  -->
<svg version="1.1" id="Layer_1" xmlns="http://www.w3.org/2000/svg" xmlns:xlink="http://www.w3.org/1999/xlink" x="0px" y="0px"
	 viewBox="0 0 30 30" style="enable-background:new 0 0 30 30;" xml:space="preserve">
<g>
	<g>
		<path d="M25,29.5H5c-2.5,0-4.5-2-4.5-4.5V5c0-2.5,2-4.5,4.5-4.5h20c2.5,0,4.5,2,4.5,4.5v20C29.5,27.5,27.5,29.5,25,29.5z M5,1.5
			C3.1,1.5,1.5,3.1,1.5,5v20c0,1.9,1.6,3.5,3.5,3.5h20c1.9,0,3.5-1.6,3.5-3.5V5c0-1.9-1.6-3.5-3.5-3.5H5z"/>
	</g>
	<g>
		<path d="M20,13.5H10C7,13.5,4.5,11,4.5,8S7,2.5,10,2.5h10c3,0,5.5,2.5,5.5,5.5S23,13.5,20,13.5z M10,3.5c-2.5,0-4.5,2-4.5,4.5
			s2,4.5,4.5,4.5h10c2.5,0,4.5-2,4.5-4.5s-2-4.5-4.5-4.5H10z"/>
	</g>
	<g>
		<path d="M10,11.5c-1.9,0-3.5-1.6-3.5-3.5S8.1,4.5,10,4.5s3.5,1.6,3.5,3.5S11.9,11.5,10,11.5z M10,5.5C8.6,5.5,7.5,6.6,7.5,8
			s1.1,2.5,2.5,2.5s2.5-1.1,2.5-2.5S11.4,5.5,10,5.5z"/>
	</g>
	<g>
		<path d="M20,27.5H10c-3,0-5.5-2.5-5.5-5.5S7,16.5,10,16.5h10c3,0,5.5,2.5,5.5,5.5S23,27.5,20,27.5z M10,17.5c-2.5,0-4.5,2-4.5,4.5
			s2,4.5,4.5,4.5h10c2.5,0,4.5-2,4.5-4.5s-2-4.5-4.5-4.5H10z"/>
	</g>
	<g>
		<path d="M20,25.5c-1.9,0-3.5-1.6-3.5-3.5s1.6-3.5,3.5-3.5s3.5,1.6,3.5,3.5S21.9,25.5,20,25.5z M20,19.5c-1.4,0-2.5,1.1-2.5,2.5
			s1.1,2.5,2.5,2.5s2.5-1.1,2.5-2.5S21.4,19.5,20,19.5z"/>
	</g>
</g>
</svg>
