<?xml version="1.0" encoding="iso-8859-1"?>
<!-- Generator: Adobe Illustrator 19.0.0, SVG Export Plug-In . SVG Version: 6.00 Build 0)  -->
<svg version="1.1" id="Layer_1" xmlns="http://www.w3.org/2000/svg" xmlns:xlink="http://www.w3.org/1999/xlink" x="0px" y="0px"
	 viewBox="0 0 30 30" style="enable-background:new 0 0 30 30;" xml:space="preserve">
<g>
	<g>
		<path d="M5.5,28.5v1C5.5,29.776,5.724,30,6,30s0.5-0.224,0.5-0.5v-1C6.5,28.224,6.276,28,6,28S5.5,28.224,5.5,28.5z M7.276,0.053
			l-3,1.5C4.107,1.638,4,1.811,4,2v25.5C4,27.776,4.224,28,4.5,28H6h1.5C7.776,28,8,27.776,8,27.5v-27
			c0-0.173-0.09-0.334-0.237-0.425S7.431-0.025,7.276,0.053z M7,27H5v-1h2V27z M23.5,28.5v1c0,0.276,0.224,0.5,0.5,0.5
			s0.5-0.224,0.5-0.5v-1c0-0.276-0.224-0.5-0.5-0.5S23.5,28.224,23.5,28.5z M20.691,2.038c-0.186-0.078-0.401-0.035-0.545,0.108
			L15.703,6.59l-0.309-0.397c-0.189-0.243-0.6-0.243-0.789,0L14.297,6.59L9.854,2.147C9.711,2.004,9.495,1.961,9.309,2.039
			C9.122,2.115,9,2.298,9,2.5V7c0,0.133,0.053,0.26,0.146,0.354l2.563,2.563l-0.604,0.776c-0.141,0.181-0.141,0.434,0,0.614
			L13,13.743V27.5c0,0.276,0.224,0.5,0.5,0.5H15h1.5c0.276,0,0.5-0.224,0.5-0.5V13.743l1.895-2.436c0.141-0.181,0.141-0.434,0-0.614
			l-0.604-0.776l2.563-2.563C20.947,7.26,21,7.133,21,7V2.5C21,2.298,20.878,2.115,20.691,2.038z M16,27h-2v-1h2V27z M15,14.686
			L12.134,11L15,7.314L17.866,11L15,14.686z M14.5,28.5v1c0,0.276,0.224,0.5,0.5,0.5s0.5-0.224,0.5-0.5v-1
			c0-0.276-0.224-0.5-0.5-0.5S14.5,28.224,14.5,28.5z M25.724,1.553l-3-1.5c-0.155-0.077-0.339-0.069-0.486,0.022
			C22.091,0.166,22,0.327,22,0.5v27c0,0.276,0.224,0.5,0.5,0.5H24h1.5c0.276,0,0.5-0.224,0.5-0.5V2
			C26,1.811,25.893,1.638,25.724,1.553z M25,27h-2v-1h2V27z"/>
	</g>
</g>
</svg>
