<?xml version="1.0" encoding="iso-8859-1"?>
<!-- Generator: Adobe Illustrator 19.0.0, SVG Export Plug-In . SVG Version: 6.00 Build 0)  -->
<svg version="1.1" id="Layer_1" xmlns="http://www.w3.org/2000/svg" xmlns:xlink="http://www.w3.org/1999/xlink" x="0px" y="0px"
	 viewBox="0 0 30 30" style="enable-background:new 0 0 30 30;" xml:space="preserve">
<g>
	<g>
		<path d="M15,15.293V10.5c0-0.276-0.224-0.5-0.5-0.5S14,10.224,14,10.5v5c0,0.133,0.053,0.26,0.146,0.354l5,5
			C19.244,20.952,19.372,21,19.5,21s0.256-0.049,0.354-0.146c0.195-0.195,0.195-0.512,0-0.707L15,15.293z M24.5,13
			c0.276,0,0.5-0.224,0.5-0.5v-3C25,9.224,24.776,9,24.5,9H24V6.5c0-1.207-0.86-2.217-2-2.449V0.5C22,0.224,21.776,0,21.5,0h-14
			C7.224,0,7,0.224,7,0.5v3.551C5.86,4.283,5,5.293,5,6.5v17c0,1.207,0.86,2.217,2,2.449V29.5C7,29.776,7.224,30,7.5,30h14
			c0.276,0,0.5-0.224,0.5-0.5v-3.551c1.14-0.232,2-1.242,2-2.449V18h0.5c0.276,0,0.5-0.224,0.5-0.5v-3c0-0.276-0.224-0.5-0.5-0.5H24
			v-1H24.5z M23,23.5c0,0.827-0.673,1.5-1.5,1.5h-14C6.673,25,6,24.327,6,23.5v-17C6,5.673,6.673,5,7.5,5h14
			C22.327,5,23,5.673,23,6.5V23.5z"/>
	</g>
</g>
</svg>
