<?xml version="1.0" encoding="utf-8"?>
<!-- Generator: Adobe Illustrator 19.0.0, SVG Export Plug-In . SVG Version: 6.00 Build 0)  -->
<svg version="1.1" id="Layer_1" xmlns="http://www.w3.org/2000/svg" xmlns:xlink="http://www.w3.org/1999/xlink" x="0px" y="0px"
	 viewBox="0 0 30 30" style="enable-background:new 0 0 30 30;" xml:space="preserve">
<g>
	<g>
		<g>
			<path d="M10.4,30c-1.7,0-3-1.3-3-3s1.3-3,3-3s3,1.3,3,3S12,30,10.4,30z M10.4,25c-1.1,0-2,0.9-2,2s0.9,2,2,2s2-0.9,2-2
				S11.5,25,10.4,25z"/>
		</g>
		<g>
			<path d="M23.4,30c-1.7,0-3-1.3-3-3s1.3-3,3-3s3,1.3,3,3S25,30,23.4,30z M23.4,25c-1.1,0-2,0.9-2,2s0.9,2,2,2s2-0.9,2-2
				S24.5,25,23.4,25z"/>
		</g>
		<g>
			<path d="M25.4,23H11c-2,0-3.8-1.5-4.2-3.5L3.7,4H0.5C0.2,4,0,3.8,0,3.5S0.2,3,0.5,3h3.6c0.2,0,0.4,0.2,0.5,0.4l3.1,15.9
				C8.1,20.9,9.4,22,11,22h14.4c0.3,0,0.5,0.2,0.5,0.5S25.7,23,25.4,23z"/>
		</g>
		<g>
			<path d="M7.4,20c-0.2,0-0.4-0.2-0.5-0.4l-2.5-12c0-0.1,0-0.3,0.1-0.4S4.7,7,4.9,7h10.7c0.3,0,0.5,0.2,0.5,0.5S15.8,8,15.6,8H5.5
				l2.3,10.9L26,16.6l0.8-3.2c0.1-0.3,0.3-0.4,0.6-0.4c0.3,0.1,0.4,0.3,0.4,0.6l-0.9,3.6c-0.1,0.2-0.2,0.3-0.4,0.4L7.4,20
				C7.5,20,7.4,20,7.4,20z"/>
		</g>
	</g>
	<g>
		<path d="M23.5,9c-1.3,0-2.4-0.7-2.5-1.6c0-0.3,0.2-0.5,0.4-0.5C21.7,6.8,22,7,22,7.3C22,7.6,22.7,8,23.5,8C24.3,8,25,7.6,25,7.2
			c0-0.2-0.3-0.6-1.5-0.7l-0.1,0C22.8,6.4,21,6.1,21,4.8c0-1,1.1-1.8,2.5-1.8c1.3,0,2.4,0.7,2.5,1.6c0,0.3-0.2,0.5-0.4,0.5
			C25.3,5.2,25,5,25,4.7C25,4.4,24.3,4,23.5,4C22.7,4,22,4.4,22,4.8c0,0.2,0.3,0.6,1.5,0.7c0,0,0.1,0,0.1,0C24.3,5.6,26,5.9,26,7.3
			C26,8.2,24.9,9,23.5,9z"/>
	</g>
	<g>
		<path d="M23.5,10C23.2,10,23,9.8,23,9.5v-7C23,2.2,23.2,2,23.5,2S24,2.2,24,2.5v7C24,9.8,23.8,10,23.5,10z"/>
	</g>
	<g>
		<path d="M23.5,13c-3.6,0-6.5-2.9-6.5-6.5S19.9,0,23.5,0S30,2.9,30,6.5S27.1,13,23.5,13z M23.5,1c-3,0-5.5,2.5-5.5,5.5
			s2.5,5.5,5.5,5.5S29,9.5,29,6.5S26.5,1,23.5,1z"/>
	</g>
</g>
</svg>
