<?xml version="1.0" encoding="utf-8"?>
<!-- Generator: Adobe Illustrator 19.0.0, SVG Export Plug-In . SVG Version: 6.00 Build 0)  -->
<svg version="1.1" id="Layer_1" xmlns="http://www.w3.org/2000/svg" xmlns:xlink="http://www.w3.org/1999/xlink" x="0px" y="0px"
	 viewBox="0 0 30 30" style="enable-background:new 0 0 30 30;" xml:space="preserve">
<g>
	<g>
		<path d="M27.5,30h-25C1.1,30,0,28.9,0,27.5v-25C0,1.1,1.1,0,2.5,0h25C28.9,0,30,1.1,30,2.5v25C30,28.9,28.9,30,27.5,30z M2.5,1
			C1.7,1,1,1.7,1,2.5v25C1,28.3,1.7,29,2.5,29h25c0.8,0,1.5-0.7,1.5-1.5v-25C29,1.7,28.3,1,27.5,1H2.5z"/>
	</g>
	<g>
		<path d="M29.3,5H0.5C0.2,5,0,4.8,0,4.5S0.2,4,0.5,4h28.8c0.3,0,0.5,0.2,0.5,0.5S29.5,5,29.3,5z"/>
	</g>
	<g>
		<path d="M11.5,23c-0.2,0-0.4-0.1-0.5-0.4L8.1,12H6.5C6.2,12,6,11.8,6,11.5S6.2,11,6.5,11h2c0.2,0,0.4,0.2,0.5,0.4l3,11
			c0.1,0.3-0.1,0.5-0.4,0.6C11.6,23,11.5,23,11.5,23z"/>
	</g>
	<g>
		<path d="M10.8,19.9c-0.3,0-0.5-0.2-0.5-0.4c0-0.3,0.2-0.5,0.4-0.5l10.6-1.1l0.6-3.8H9.5C9.2,14,9,13.8,9,13.5S9.2,13,9.5,13h13
			c0.1,0,0.3,0.1,0.4,0.2c0.1,0.1,0.1,0.3,0.1,0.4l-0.7,4.8c0,0.2-0.2,0.4-0.4,0.4L10.8,19.9C10.9,19.9,10.9,19.9,10.8,19.9z"/>
	</g>
	<g>
		<path d="M13.5,25c-0.8,0-1.5-0.7-1.5-1.5s0.7-1.5,1.5-1.5s1.5,0.7,1.5,1.5S14.3,25,13.5,25z M13.5,23c-0.3,0-0.5,0.2-0.5,0.5
			s0.2,0.5,0.5,0.5s0.5-0.2,0.5-0.5S13.8,23,13.5,23z"/>
	</g>
	<g>
		<path d="M18.5,25c-0.8,0-1.5-0.7-1.5-1.5s0.7-1.5,1.5-1.5s1.5,0.7,1.5,1.5S19.3,25,18.5,25z M18.5,23c-0.3,0-0.5,0.2-0.5,0.5
			s0.2,0.5,0.5,0.5s0.5-0.2,0.5-0.5S18.8,23,18.5,23z"/>
	</g>
	<g>
		<circle cx="2.5" cy="2.5" r="0.5"/>
	</g>
	<g>
		<circle cx="4.5" cy="2.5" r="0.5"/>
	</g>
	<g>
		<circle cx="6.5" cy="2.5" r="0.5"/>
	</g>
</g>
</svg>
