<?xml version="1.0" encoding="utf-8"?>
<!-- Generator: Adobe Illustrator 19.0.0, SVG Export Plug-In . SVG Version: 6.00 Build 0)  -->
<svg version="1.1" id="Layer_1" xmlns="http://www.w3.org/2000/svg" xmlns:xlink="http://www.w3.org/1999/xlink" x="0px" y="0px"
	 viewBox="0 0 30 30" style="enable-background:new 0 0 30 30;" xml:space="preserve">
<style type="text/css">
	.st0{fill:none;stroke:#000000;stroke-linecap:round;stroke-linejoin:round;stroke-miterlimit:10;}
</style>
<g>
	<g>
		<path d="M26.5,28.5h-23C3.2,28.5,3,28.3,3,28v-5.2c0-1,0.2-2.1,0.7-3c0,0,0-0.1,0.1-0.1l6.3-8c0.1-0.1,0.2-0.2,0.4-0.2h9
			c0.2,0,0.3,0.1,0.4,0.2l6.3,8c0,0,0,0.1,0.1,0.1c0.5,0.9,0.7,2,0.7,3V28C27,28.3,26.8,28.5,26.5,28.5z M4,27.5h22v-4.7
			c0-0.9-0.2-1.7-0.6-2.5l-6.2-7.8h-8.5l-6.2,7.8C4.2,21.1,4,21.9,4,22.8C4,22.8,4,27.5,4,27.5z"/>
	</g>
	<g>
		<path d="M12.5,20.5h-1c-0.3,0-0.5-0.2-0.5-0.5s0.2-0.5,0.5-0.5h1c0.3,0,0.5,0.2,0.5,0.5S12.8,20.5,12.5,20.5z"/>
	</g>
	<g>
		<path d="M15.5,20.5h-1c-0.3,0-0.5-0.2-0.5-0.5s0.2-0.5,0.5-0.5h1c0.3,0,0.5,0.2,0.5,0.5S15.8,20.5,15.5,20.5z"/>
	</g>
	<g>
		<path d="M18.5,20.5h-1c-0.3,0-0.5-0.2-0.5-0.5s0.2-0.5,0.5-0.5h1c0.3,0,0.5,0.2,0.5,0.5S18.8,20.5,18.5,20.5z"/>
	</g>
	<g>
		<path d="M12.5,18.5h-1c-0.3,0-0.5-0.2-0.5-0.5s0.2-0.5,0.5-0.5h1c0.3,0,0.5,0.2,0.5,0.5S12.8,18.5,12.5,18.5z"/>
	</g>
	<g>
		<path d="M15.5,18.5h-1c-0.3,0-0.5-0.2-0.5-0.5s0.2-0.5,0.5-0.5h1c0.3,0,0.5,0.2,0.5,0.5S15.8,18.5,15.5,18.5z"/>
	</g>
	<g>
		<path d="M18.5,18.5h-1c-0.3,0-0.5-0.2-0.5-0.5s0.2-0.5,0.5-0.5h1c0.3,0,0.5,0.2,0.5,0.5S18.8,18.5,18.5,18.5z"/>
	</g>
	<g>
		<path class="st0" d="M12.4,15"/>
	</g>
	<g>
		<path d="M12.5,16.5h-1c-0.3,0-0.5-0.2-0.5-0.5s0.2-0.5,0.5-0.5h1c0.3,0,0.5,0.2,0.5,0.5S12.8,16.5,12.5,16.5z"/>
	</g>
	<g>
		<path d="M15.5,16.5h-1c-0.3,0-0.5-0.2-0.5-0.5s0.2-0.5,0.5-0.5h1c0.3,0,0.5,0.2,0.5,0.5S15.8,16.5,15.5,16.5z"/>
	</g>
	<g>
		<path d="M18.5,16.5h-1c-0.3,0-0.5-0.2-0.5-0.5s0.2-0.5,0.5-0.5h1c0.3,0,0.5,0.2,0.5,0.5S18.8,16.5,18.5,16.5z"/>
	</g>
	<g>
		<path d="M11.5,12.5c-0.3,0-0.5-0.2-0.5-0.5v-2c0-0.3,0.2-0.5,0.5-0.5S12,9.7,12,10v2C12,12.3,11.8,12.5,11.5,12.5z"/>
	</g>
	<g>
		<path d="M18.5,12.5c-0.3,0-0.5-0.2-0.5-0.5v-2c0-0.3,0.2-0.5,0.5-0.5S19,9.7,19,10v2C19,12.3,18.8,12.5,18.5,12.5z"/>
	</g>
	<g id="XMLID_49_">
		<g id="XMLID_52_">
			<path d="M4.6,13.6c-0.5,0-0.9-0.2-1.2-0.5L0.5,9.5C0.2,9.3,0,8.8,0,8.4c0-0.5,0.2-0.9,0.5-1.2C4.5,3.3,9.3,1.4,15,1.5
				c5.6,0,10.7,2,14.5,5.6C29.8,7.5,30,7.9,30,8.4c0,0.5-0.2,0.9-0.5,1.2L26.9,13c-0.7,0.7-1.8,0.7-2.4,0.1
				c-0.7-0.7-1.9-1.3-2.9-1.8l-0.7-0.3c-0.5-0.3-0.8-0.9-0.8-1.7V5.4c-1.8-0.6-3.4-0.8-5-0.9c-1.8,0-3.2,0.3-5,0.9v4.1
				c0,0.6-0.2,1.3-0.8,1.6l-0.6,0.3c-1,0.5-2,1-2.8,1.7C5.5,13.4,5.1,13.6,4.6,13.6z M14.8,2.5C9.5,2.5,5,4.3,1.2,7.9
				C1.1,8,1,8.2,1,8.4c0,0.2,0.1,0.4,0.2,0.5l3,3.6c0.2,0.2,0.7,0.2,1,0c0.9-0.8,2-1.3,3-1.9l0.6-0.3C8.9,10.2,9,9.9,9,9.5V5
				c0-0.2,0.1-0.4,0.3-0.5c2-0.6,3.6-1.1,5.7-1l0,0c1.8,0,3.6,0.4,5.7,1C20.9,4.6,21,4.8,21,5v4.3c0,0.4,0.1,0.7,0.3,0.8l0.7,0.3
				c1.1,0.5,2.4,1.1,3.2,1.9c0.3,0.3,0.8,0.3,1,0l2.6-3.4C28.9,8.7,29,8.5,29,8.4c0-0.2-0.1-0.4-0.2-0.5C25.2,4.4,20.3,2.5,15,2.5
				C14.9,2.5,14.9,2.5,14.8,2.5z"/>
		</g>
	</g>
</g>
</svg>
