<?xml version="1.0" encoding="utf-8"?>
<!-- Generator: Adobe Illustrator 19.0.0, SVG Export Plug-In . SVG Version: 6.00 Build 0)  -->
<svg version="1.1" id="Layer_1" xmlns="http://www.w3.org/2000/svg" xmlns:xlink="http://www.w3.org/1999/xlink" x="0px" y="0px"
	 viewBox="0 0 30 30" style="enable-background:new 0 0 30 30;" xml:space="preserve">
<g>
	<g>
		<path d="M5,29.5H1c-0.3,0-0.5-0.2-0.5-0.5v-5c0-0.3,0.2-0.5,0.5-0.5h4c0.3,0,0.5,0.2,0.5,0.5v5C5.5,29.3,5.3,29.5,5,29.5z
			 M1.5,28.5h3v-4h-3V28.5z"/>
	</g>
	<g>
		<path d="M11,29.5H7c-0.3,0-0.5-0.2-0.5-0.5V19c0-0.3,0.2-0.5,0.5-0.5h4c0.3,0,0.5,0.2,0.5,0.5v10C11.5,29.3,11.3,29.5,11,29.5z
			 M7.5,28.5h3v-9h-3V28.5z"/>
	</g>
	<g>
		<path d="M17,29.5h-4c-0.3,0-0.5-0.2-0.5-0.5V12c0-0.3,0.2-0.5,0.5-0.5h4c0.3,0,0.5,0.2,0.5,0.5v17C17.5,29.3,17.3,29.5,17,29.5z
			 M13.5,28.5h3v-16h-3V28.5z"/>
	</g>
	<g>
		<path d="M23,29.5h-4c-0.3,0-0.5-0.2-0.5-0.5V6c0-0.3,0.2-0.5,0.5-0.5h4c0.3,0,0.5,0.2,0.5,0.5v23C23.5,29.3,23.3,29.5,23,29.5z
			 M19.5,28.5h3v-22h-3V28.5z"/>
	</g>
	<g>
		<path d="M29,29.5h-4c-0.3,0-0.5-0.2-0.5-0.5V1c0-0.3,0.2-0.5,0.5-0.5h4c0.3,0,0.5,0.2,0.5,0.5v28C29.5,29.3,29.3,29.5,29,29.5z
			 M25.5,28.5h3v-27h-3V28.5z"/>
	</g>
</g>
</svg>
