<svg width="15.780000" height="21.150000" viewBox="1.950000 -42.150000 15.780000 21.150000" xmlns="http://www.w3.org/2000/svg"><path d="M1.950000 -39.000000L3.570000 -39.000000L3.570000 -28.830000L5.670000 -28.830000L5.670000 -42.150000L4.290000 -42.150000C3.930000 -41.250000 3.570000 -40.470000 1.950000 -40.470000ZM15.630000 -24.420000C15.630000 -23.220000 15.210000 -22.890000 14.550000 -22.890000C13.890000 -22.890000 13.470000 -23.280000 13.470000 -24.210000L13.470000 -25.440000L11.490000 -25.440000L11.490000 -24.360000C11.490000 -22.200000 12.540000 -21.000000 14.610000 -21.000000C16.680000 -21.000000 17.730000 -22.200000 17.730000 -24.360000L17.730000 -25.410000C17.730000 -26.760000 17.310000 -27.750000 16.260000 -28.200000C17.280000 -28.620000 17.730000 -29.490000 17.730000 -30.930000L17.730000 -31.260000C17.730000 -33.420000 16.680000 -34.620000 14.610000 -34.620000C12.540000 -34.620000 11.490000 -33.420000 11.490000 -31.260000L11.490000 -30.570000L13.470000 -30.570000L13.470000 -31.410000C13.470000 -32.340000 13.890000 -32.730000 14.550000 -32.730000C15.210000 -32.730000 15.630000 -32.400000 15.630000 -31.200000L15.630000 -30.450000C15.630000 -29.400000 15.150000 -29.010000 14.370000 -29.010000L13.560000 -29.010000L13.560000 -27.120000L14.280000 -27.120000C15.210000 -27.120000 15.630000 -26.700000 15.630000 -25.440000ZM3.900000 -21.150000L5.850000 -21.150000L14.130000 -42.150000L12.180000 -42.150000ZM3.900000 -21.150000"></path></svg>