<svg width="11.550000" height="26.820000" viewBox="0.330000 -53.640000 11.550000 26.820000" xmlns="http://www.w3.org/2000/svg"><path d="M8.520000 -47.820000L3.690000 -47.820000L0.330000 -26.820000L3.360000 -26.820000L3.930000 -30.630000L7.980000 -30.630000L8.550000 -26.820000L11.880000 -26.820000ZM5.910000 -44.100000L5.970000 -44.100000L7.530000 -33.480000L4.350000 -33.480000ZM3.690000 -51.240000C3.690000 -49.890000 4.740000 -48.840000 6.090000 -48.840000C7.440000 -48.840000 8.490000 -49.890000 8.490000 -51.240000C8.490000 -52.590000 7.440000 -53.640000 6.090000 -53.640000C4.740000 -53.640000 3.690000 -52.590000 3.690000 -51.240000ZM5.190000 -51.240000C5.190000 -51.750000 5.580000 -52.140000 6.090000 -52.140000C6.600000 -52.140000 6.990000 -51.750000 6.990000 -51.240000C6.990000 -50.730000 6.600000 -50.340000 6.090000 -50.340000C5.580000 -50.340000 5.190000 -50.730000 5.190000 -51.240000ZM5.190000 -51.240000"></path></svg>