<svg width="10.020000" height="25.500000" viewBox="0.930000 -50.760000 10.020000 25.500000" xmlns="http://www.w3.org/2000/svg"><path d="M4.230000 -41.670000C4.230000 -43.170000 4.890000 -43.740000 5.940000 -43.740000C6.990000 -43.740000 7.650000 -43.170000 7.650000 -41.670000L7.650000 -30.330000C7.650000 -28.830000 6.990000 -28.260000 5.940000 -28.260000C4.890000 -28.260000 4.230000 -28.830000 4.230000 -30.330000ZM0.930000 -30.540000C0.930000 -27.180000 2.700000 -25.260000 5.940000 -25.260000C9.180000 -25.260000 10.950000 -27.180000 10.950000 -30.540000L10.950000 -41.460000C10.950000 -44.820000 9.180000 -46.740000 5.940000 -46.740000C2.700000 -46.740000 0.930000 -44.820000 0.930000 -41.460000ZM7.140000 -49.890000C6.810000 -49.890000 6.510000 -49.980000 6.030000 -50.220000C5.430000 -50.520000 4.980000 -50.640000 4.440000 -50.640000C3.240000 -50.640000 2.400000 -49.950000 1.890000 -48.600000L3.480000 -47.490000C3.780000 -48.120000 4.110000 -48.360000 4.770000 -48.360000C5.100000 -48.360000 5.400000 -48.270000 5.880000 -48.030000C6.570000 -47.700000 6.990000 -47.610000 7.470000 -47.610000C8.670000 -47.610000 9.510000 -48.300000 10.020000 -49.650000L8.430000 -50.760000C8.130000 -50.130000 7.800000 -49.890000 7.140000 -49.890000ZM7.140000 -49.890000"></path></svg>