<svg width="6.360000" height="13.620000" viewBox="0.960000 -37.620000 6.360000 13.620000" xmlns="http://www.w3.org/2000/svg"><path d="M7.320000 -34.260000C7.320000 -36.390000 6.210000 -37.620000 4.140000 -37.620000C2.070000 -37.620000 0.960000 -36.390000 0.960000 -34.260000L0.960000 -31.830000C0.960000 -29.880000 1.740000 -28.800000 3.270000 -28.800000C4.230000 -28.800000 4.800000 -29.190000 5.160000 -29.940000L5.220000 -29.940000L5.220000 -27.540000C5.220000 -26.250000 4.800000 -25.890000 4.050000 -25.890000C3.390000 -25.890000 2.970000 -26.250000 2.970000 -27.210000L2.970000 -27.690000L0.990000 -27.690000L0.990000 -27.360000C0.990000 -25.230000 2.070000 -24.000000 4.110000 -24.000000C6.300000 -24.000000 7.320000 -25.230000 7.320000 -27.450000ZM4.140000 -30.690000C3.480000 -30.690000 3.060000 -31.050000 3.060000 -32.010000L3.060000 -34.410000C3.060000 -35.370000 3.480000 -35.700000 4.140000 -35.700000C4.800000 -35.700000 5.220000 -35.370000 5.220000 -34.410000L5.220000 -32.010000C5.220000 -31.050000 4.800000 -30.690000 4.140000 -30.690000ZM4.140000 -30.690000"></path></svg>