<svg width="11.550000" height="25.410000" viewBox="0.330000 -46.410000 11.550000 25.410000" xmlns="http://www.w3.org/2000/svg"><path d="M8.520000 -46.410000L3.690000 -46.410000L0.330000 -25.410000L3.360000 -25.410000L3.930000 -29.220000L7.980000 -29.220000L8.640000 -25.050000C7.680000 -24.420000 7.230000 -23.670000 7.230000 -22.860000C7.230000 -21.630000 8.250000 -21.000000 9.840000 -21.000000C10.680000 -21.000000 11.190000 -21.060000 11.880000 -21.330000L11.880000 -23.010000C11.550000 -22.920000 11.400000 -22.830000 10.800000 -22.830000C10.260000 -22.830000 9.750000 -23.100000 9.750000 -23.670000C9.750000 -24.090000 9.900000 -24.780000 10.650000 -25.410000L11.880000 -25.410000ZM5.910000 -42.690000L5.970000 -42.690000L7.530000 -32.070000L4.350000 -32.070000ZM5.910000 -42.690000"></path></svg>