<?xml version="1.0" encoding="iso-8859-1"?>
<!-- Generator: Adobe Illustrator 19.0.0, SVG Export Plug-In . SVG Version: 6.00 Build 0)  -->
<svg version="1.1" id="Layer_1" xmlns="http://www.w3.org/2000/svg" xmlns:xlink="http://www.w3.org/1999/xlink" x="0px" y="0px"
	 viewBox="0 0 24 24" style="enable-background:new 0 0 24 24;" xml:space="preserve">
<g>
	<g>
		<path d="M12,23.5C5.659,23.5,0.5,18.341,0.5,12S5.659,0.5,12,0.5S23.5,5.658,23.5,12S18.341,23.5,12,23.5z M12,1.5
			C6.21,1.5,1.5,6.21,1.5,12S6.21,22.5,12,22.5s10.5-4.71,10.5-10.5S17.79,1.5,12,1.5z"/>
	</g>
	<g>
		<path d="M22.785,10.324c-0.144,0-0.287-0.062-0.386-0.182C18.889,5.89,14.284,5.23,11.03,5.433C6.75,5.694,2.97,7.627,1.921,9.269
			c-0.149,0.232-0.458,0.3-0.69,0.152C0.998,9.273,0.93,8.964,1.079,8.731c1.189-1.863,5.06-4.002,9.891-4.296
			c4.918-0.299,9.254,1.501,12.201,5.071c0.176,0.213,0.146,0.528-0.067,0.704C23.01,10.286,22.897,10.324,22.785,10.324z"/>
	</g>
	<g>
		<path d="M3,18.5c-0.276,0-0.5-0.224-0.5-0.5c0-1.215,1.465-2.892,3.32-5.015C7.905,10.598,10.5,7.629,10.5,5.5
			c0-1.15-0.297-1.985-0.883-2.481c-0.83-0.703-2.022-0.527-2.035-0.526c-0.272,0.05-0.53-0.139-0.575-0.411
			C6.961,1.81,7.146,1.552,7.418,1.507c0.066-0.012,1.651-0.262,2.846,0.749C11.084,2.951,11.5,4.042,11.5,5.5
			c0,2.504-2.617,5.5-4.927,8.143C5.063,15.372,3.5,17.16,3.5,18C3.5,18.276,3.276,18.5,3,18.5z"/>
	</g>
	<g>
		<path d="M10.5,23c-0.084,0-0.17-0.021-0.249-0.066c-0.24-0.138-0.322-0.443-0.185-0.683C12.981,17.18,13.5,15.183,13.5,1.5
			C13.5,1.223,13.724,1,14,1s0.5,0.224,0.5,0.5c0,13.357-0.4,15.74-3.566,21.249C10.841,22.91,10.673,23,10.5,23z"/>
	</g>
	<g>
		<path d="M19.5,20.5c-0.073,0-0.147-0.016-0.218-0.05c-0.249-0.121-0.352-0.42-0.231-0.668c1.146-2.358,0.134-4.782-0.937-7.347
			C17.32,10.534,16.5,8.57,16.5,6.5c0-3.256,2.434-3.496,2.458-3.498c0.276-0.027,0.517,0.181,0.54,0.457
			c0.023,0.275-0.181,0.517-0.457,0.54C18.889,4.014,17.5,4.228,17.5,6.5c0,1.87,0.781,3.74,1.536,5.549
			c1.109,2.658,2.256,5.405,0.914,8.169C19.863,20.396,19.685,20.5,19.5,20.5z"/>
	</g>
</g>
<g>
</g>
<g>
</g>
<g>
</g>
<g>
</g>
<g>
</g>
<g>
</g>
<g>
</g>
<g>
</g>
<g>
</g>
<g>
</g>
<g>
</g>
<g>
</g>
<g>
</g>
<g>
</g>
<g>
</g>
</svg>
