<?xml version="1.0" encoding="iso-8859-1"?>
<!-- Generator: Adobe Illustrator 19.0.0, SVG Export Plug-In . SVG Version: 6.00 Build 0)  -->
<svg version="1.1" id="Layer_1" xmlns="http://www.w3.org/2000/svg" xmlns:xlink="http://www.w3.org/1999/xlink" x="0px" y="0px"
	 viewBox="0 0 24 24" style="enable-background:new 0 0 24 24;" xml:space="preserve">
<g>
	<g>
		<path d="M6.498,23.998c-0.748,0-1.495-0.285-2.064-0.854l-3.578-3.578c-1.138-1.138-1.138-2.991,0-4.129l3.789-3.789
			c0.195-0.195,0.512-0.195,0.707,0s0.195,0.512,0,0.707l-3.789,3.789c-0.749,0.749-0.749,1.966,0,2.715l3.578,3.578
			c0.749,0.748,1.966,0.748,2.715,0l3.789-3.789c0.195-0.195,0.512-0.195,0.707,0s0.195,0.512,0,0.707l-3.789,3.789
			C7.993,23.713,7.246,23.998,6.498,23.998z"/>
	</g>
	<g>
		<path d="M5.498,21.002c-0.128,0-0.256-0.049-0.354-0.146l-2-2c-0.195-0.195-0.195-0.512,0-0.707s0.512-0.195,0.707,0l2,2
			c0.195,0.195,0.195,0.512,0,0.707C5.754,20.953,5.626,21.002,5.498,21.002z"/>
	</g>
	<g>
		<path d="M7.498,20.002c-0.128,0-0.256-0.049-0.354-0.146l-3-3c-0.195-0.195-0.195-0.512,0-0.707s0.512-0.195,0.707,0l3,3
			c0.195,0.195,0.195,0.512,0,0.707C7.754,19.953,7.626,20.002,7.498,20.002z"/>
	</g>
	<g>
		<path d="M12.998,19.502c-3,0-9-6.458-9-9c0-1.807,4.219-10.5,10.5-10.5c6.333,0,9.5,7.686,9.5,9.5
			c0,1.783-1.115,2.825-1.162,2.869c-0.004,0.004-0.008,0.007-0.013,0.011c0.115,0.391,0.175,0.773,0.175,1.121
			C22.998,17.775,15.941,19.502,12.998,19.502z M14.498,1.002c-5.654,0-9.5,8.317-9.5,9.5c0,1.836,5.384,8,8,8c2.479,0,9-1.538,9-5
			c0-1.377-1.288-3.5-3-3.5c-0.822,0-1.395,0.675-1.657,1.308c-0.314,0.759-0.37,1.959,0.51,2.839c0.195,0.195,0.195,0.512,0,0.707
			s-0.512,0.195-0.707,0c-1.011-1.011-1.297-2.553-0.727-3.929c0.492-1.188,1.48-1.925,2.581-1.925c1.528,0,2.729,1.093,3.401,2.35
			c0.249-0.339,0.599-0.974,0.599-1.85C22.998,8.118,20.04,1.002,14.498,1.002z"/>
	</g>
	<g>
		<path d="M16.498,14.002c-2.202,0-6.5-4.965-6.5-6.5c0-1.295,1.273-3.816,2.233-4.423c0.234-0.146,0.542-0.078,0.69,0.156
			c0.147,0.233,0.078,0.542-0.156,0.69c-0.624,0.394-1.767,2.563-1.767,3.577c0,0.855,3.846,5.5,5.5,5.5c0.276,0,0.5,0.224,0.5,0.5
			S16.774,14.002,16.498,14.002z"/>
	</g>
	<g>
		<path d="M10.999,6.002c-0.187,0-0.366-0.105-0.452-0.285c0-0.001-0.38-0.8-0.462-0.938l0.414-0.277l0.085-0.493
			c0.279,0.048,0.279,0.048,0.866,1.278c0.119,0.25,0.013,0.548-0.236,0.667C11.144,5.986,11.07,6.002,10.999,6.002z"/>
	</g>
</g>
<g>
</g>
<g>
</g>
<g>
</g>
<g>
</g>
<g>
</g>
<g>
</g>
<g>
</g>
<g>
</g>
<g>
</g>
<g>
</g>
<g>
</g>
<g>
</g>
<g>
</g>
<g>
</g>
<g>
</g>
</svg>
