<?xml version="1.0" encoding="iso-8859-1"?>
<!-- Generator: Adobe Illustrator 19.0.0, SVG Export Plug-In . SVG Version: 6.00 Build 0)  -->
<svg version="1.1" id="Layer_1" xmlns="http://www.w3.org/2000/svg" xmlns:xlink="http://www.w3.org/1999/xlink" x="0px" y="0px"
	 viewBox="0 0 30 30" style="enable-background:new 0 0 30 30;" xml:space="preserve">
<g>
	<g>
		<path d="M27.055,11H9.945C8.322,11,7,12.346,7,14v10c0,1.654,1.321,3,2.944,3H18v2h-4.5c-0.276,0-0.5,0.224-0.5,0.5
			s0.224,0.5,0.5,0.5h10c0.276,0,0.5-0.224,0.5-0.5S23.776,29,23.5,29H19v-2h8.056C28.678,27,30,25.654,30,24V14
			C30,12.346,28.678,11,27.055,11z M28.998,23h-21v-9H8c0-1.103,0.872-2,1.944-2h17.111c1.072,0,1.944,0.897,1.944,2V23z M9.943,10
			H24.5c0.276,0,0.5-0.224,0.5-0.5V3.033C25,1.36,23.643,0,21.974,0H3.026C1.357,0,0,1.36,0,3.033v13.934C0,18.64,1.357,20,3.026,20
			H5.5C5.776,20,6,19.776,6,19.5V14C6,11.794,7.769,10,9.943,10z M7.5,2C7.776,2,8,2.224,8,2.5S7.776,3,7.5,3S7,2.776,7,2.5
			S7.224,2,7.5,2z M5.5,2C5.776,2,6,2.224,6,2.5S5.776,3,5.5,3S5,2.776,5,2.5S5.224,2,5.5,2z M3.5,2C3.776,2,4,2.224,4,2.5
			S3.776,3,3.5,3S3,2.776,3,2.5S3.224,2,3.5,2z M5,14v5H3.026C1.909,19,1,18.088,1,16.967V5h23v4H9.943C7.217,9,5,11.243,5,14z"/>
	</g>
</g>
</svg>
