<?xml version="1.0" encoding="iso-8859-1"?>
<!-- Generator: Adobe Illustrator 19.0.0, SVG Export Plug-In . SVG Version: 6.00 Build 0)  -->
<svg version="1.1" id="Layer_1" xmlns="http://www.w3.org/2000/svg" xmlns:xlink="http://www.w3.org/1999/xlink" x="0px" y="0px"
	 viewBox="0 0 30 30" style="enable-background:new 0 0 30 30;" xml:space="preserve">
<g>
	<g>
		<path d="M11.5,25.098c0.276,0,0.5-0.224,0.5-0.5v-1.025c0-0.276-0.224-0.5-0.5-0.5s-0.5,0.224-0.5,0.5v1.025
			C11,24.874,11.224,25.098,11.5,25.098z M12,26.929v-0.281c0-0.276-0.224-0.5-0.5-0.5s-0.5,0.224-0.5,0.5v0.281
			c0,0.298,0.043,0.593,0.127,0.876c0.065,0.218,0.264,0.357,0.479,0.357c0.047,0,0.096-0.007,0.143-0.021
			c0.265-0.079,0.415-0.357,0.337-0.622C12.028,27.329,12,27.13,12,26.929z M16.924,29h-1.025c-0.276,0-0.5,0.224-0.5,0.5
			s0.224,0.5,0.5,0.5h1.025c0.276,0,0.5-0.224,0.5-0.5S17.2,29,16.924,29z M19.997,29h-1.024c-0.276,0-0.5,0.224-0.5,0.5
			s0.224,0.5,0.5,0.5h1.024c0.276,0,0.5-0.224,0.5-0.5S20.273,29,19.997,29z M13.892,28.992c-0.276-0.024-0.541-0.102-0.786-0.231
			c-0.241-0.128-0.546-0.036-0.676,0.209c-0.129,0.244-0.035,0.547,0.209,0.676c0.364,0.192,0.757,0.308,1.167,0.343
			c0.015,0.001,0.029,0.002,0.044,0.002c0.256,0,0.475-0.196,0.497-0.457C14.37,29.258,14.167,29.016,13.892,28.992z M22.174,11.965
			c0.189-0.071,0.325-0.25,0.325-0.465c0-0.276-0.224-0.5-0.5-0.5h-0.487c-0.177-0.217-0.363-0.428-0.568-0.626l-1.946-1.868
			C18.999,8.504,19,8.502,19,8.5V3.071C19,1.378,17.622,0,15.929,0H3.072C1.379,0,0,1.378,0,3.071v12.858
			C0,17.622,1.378,19,3.072,19h6.986c0.123,0.659,0.47,1.333,0.967,1.877C11.014,20.917,11,20.956,11,21v0.5
			c0,0.276,0.224,0.5,0.5,0.5c0.23,0,0.415-0.158,0.474-0.369C12.387,21.859,12.838,22,13.31,22H16c3.859,0,7-3.074,7-6.853
			C23,14.019,22.714,12.932,22.174,11.965z M7.5,2C7.776,2,8,2.224,8,2.5S7.776,3,7.5,3S7,2.776,7,2.5S7.224,2,7.5,2z M5.5,2
			C5.776,2,6,2.224,6,2.5S5.776,3,5.5,3S5,2.776,5,2.5S5.224,2,5.5,2z M3.5,2C3.776,2,4,2.224,4,2.5S3.776,3,3.5,3S3,2.776,3,2.5
			S3.224,2,3.5,2z M18,7.942c-0.611-0.134-1.278,0.022-1.753,0.478c-0.259,0.249-0.435,0.558-0.513,0.894
			c-0.694-0.306-1.541-0.183-2.111,0.367c-0.309,0.297-0.5,0.679-0.549,1.092c-0.604-0.133-1.273,0.029-1.747,0.483
			c-0.362,0.348-0.563,0.812-0.563,1.307c0,0.086,0.006,0.171,0.019,0.255c-0.445,0.024-0.883,0.2-1.222,0.526
			C9.199,13.691,9,14.155,9,14.65c0,0.494,0.199,0.958,0.563,1.307l0.45,0.431C10.005,16.424,10,16.461,10,16.5V18H3.071
			C1.929,18,1,17.071,1,15.929V5h17V7.942z M29.5,25.101c-0.276,0-0.5,0.224-0.5,0.5v1.024c0,0.276,0.224,0.5,0.5,0.5
			s0.5-0.224,0.5-0.5v-1.024C30,25.324,29.776,25.101,29.5,25.101z M23.073,29h-1.024c-0.276,0-0.5,0.224-0.5,0.5s0.224,0.5,0.5,0.5
			h1.024c0.276,0,0.5-0.224,0.5-0.5S23.35,29,23.073,29z M29.5,22.025c-0.276,0-0.5,0.224-0.5,0.5v1.025c0,0.276,0.224,0.5,0.5,0.5
			s0.5-0.224,0.5-0.5v-1.025C30,22.249,29.776,22.025,29.5,22.025z M29.863,13.164c-0.082-0.263-0.356-0.413-0.626-0.329
			c-0.264,0.082-0.411,0.362-0.329,0.626C28.969,13.657,29,13.862,29,14.071v0.255c0,0.276,0.224,0.5,0.5,0.5s0.5-0.224,0.5-0.5
			v-0.255C30,13.762,29.954,13.457,29.863,13.164z M29.5,15.876c-0.276,0-0.5,0.224-0.5,0.5v1.025c0,0.276,0.224,0.5,0.5,0.5
			s0.5-0.224,0.5-0.5v-1.025C30,16.1,29.776,15.876,29.5,15.876z M29.5,18.951c-0.276,0-0.5,0.224-0.5,0.5v1.024
			c0,0.276,0.224,0.5,0.5,0.5s0.5-0.224,0.5-0.5v-1.024C30,19.175,29.776,18.951,29.5,18.951z M25.575,11.5
			c0-0.276-0.224-0.5-0.5-0.5H24.05c-0.276,0-0.5,0.224-0.5,0.5s0.224,0.5,0.5,0.5h1.025C25.352,12,25.575,11.776,25.575,11.5z
			 M28.541,28.229c-0.175,0.217-0.388,0.393-0.631,0.523c-0.243,0.13-0.335,0.434-0.204,0.677c0.09,0.168,0.263,0.264,0.44,0.264
			c0.08,0,0.161-0.02,0.236-0.06c0.362-0.194,0.677-0.455,0.936-0.775c0.174-0.215,0.141-0.529-0.074-0.703
			C29.029,27.98,28.715,28.015,28.541,28.229z M26.148,29h-1.025c-0.276,0-0.5,0.224-0.5,0.5s0.224,0.5,0.5,0.5h1.025
			c0.276,0,0.5-0.224,0.5-0.5S26.424,29,26.148,29z M28.104,12.284c0.181,0,0.356-0.099,0.445-0.271
			c0.126-0.246,0.028-0.547-0.217-0.674c-0.367-0.188-0.761-0.299-1.172-0.33c-0.271-0.028-0.515,0.187-0.536,0.462
			c-0.021,0.275,0.187,0.515,0.462,0.536c0.276,0.021,0.542,0.096,0.789,0.223C27.949,12.267,28.027,12.284,28.104,12.284z"/>
	</g>
</g>
</svg>
