<?xml version="1.0" encoding="iso-8859-1"?>
<!-- Generator: Adobe Illustrator 19.0.0, SVG Export Plug-In . SVG Version: 6.00 Build 0)  -->
<svg version="1.1" id="Layer_1" xmlns="http://www.w3.org/2000/svg" xmlns:xlink="http://www.w3.org/1999/xlink" x="0px" y="0px"
	 viewBox="0 0 30 30" style="enable-background:new 0 0 30 30;" xml:space="preserve">
<g>
	<g>
		<path d="M9.309,22.962C9.37,22.987,9.435,23,9.5,23h3c0.276,0,0.5-0.224,0.5-0.5S12.776,22,12.5,22h-1.793L15,17.707L19.293,22
			H17.5c-0.276,0-0.5,0.224-0.5,0.5s0.224,0.5,0.5,0.5h3c0.065,0,0.13-0.013,0.191-0.038c0.122-0.051,0.22-0.148,0.271-0.271
			C20.987,22.63,21,22.565,21,22.5v-3c0-0.276-0.224-0.5-0.5-0.5S20,19.224,20,19.5v1.793L15.707,17L20,12.707V14.5
			c0,0.276,0.224,0.5,0.5,0.5s0.5-0.224,0.5-0.5v-3c0-0.065-0.013-0.13-0.038-0.191c-0.051-0.122-0.148-0.22-0.271-0.271
			C20.63,11.013,20.565,11,20.5,11h-3c-0.276,0-0.5,0.224-0.5,0.5s0.224,0.5,0.5,0.5h1.793L15,16.293L10.707,12H12.5
			c0.276,0,0.5-0.224,0.5-0.5S12.776,11,12.5,11h-3c-0.065,0-0.13,0.013-0.191,0.038c-0.122,0.051-0.22,0.148-0.271,0.271
			C9.013,11.37,9,11.435,9,11.5v3C9,14.776,9.224,15,9.5,15s0.5-0.224,0.5-0.5v-1.793L14.293,17L10,21.293V19.5
			c0-0.276-0.224-0.5-0.5-0.5S9,19.224,9,19.5v3c0,0.065,0.013,0.13,0.038,0.191C9.089,22.813,9.187,22.911,9.309,22.962z M26.979,1
			H3.022C1.355,1,0,2.378,0,4.071v21.858C0,27.622,1.355,29,3.021,29h23.957C28.645,29,30,27.622,30,25.929V4.071
			C30,2.378,28.645,1,26.979,1z M9.5,3C9.776,3,10,3.224,10,3.5S9.776,4,9.5,4S9,3.776,9,3.5S9.224,3,9.5,3z M6.5,3
			C6.776,3,7,3.224,7,3.5S6.776,4,6.5,4S6,3.776,6,3.5S6.224,3,6.5,3z M3.5,3C3.776,3,4,3.224,4,3.5S3.776,4,3.5,4S3,3.776,3,3.5
			S3.224,3,3.5,3z M29,25.929C29,27.071,28.093,28,26.979,28H3.022C1.907,28,1,27.071,1,25.929V6h28V25.929z"/>
	</g>
</g>
</svg>
