<?xml version="1.0" encoding="iso-8859-1"?>
<!-- Generator: Adobe Illustrator 19.0.0, SVG Export Plug-In . SVG Version: 6.00 Build 0)  -->
<svg version="1.1" id="Layer_1" xmlns="http://www.w3.org/2000/svg" xmlns:xlink="http://www.w3.org/1999/xlink" x="0px" y="0px"
	 viewBox="0 0 30 30" style="enable-background:new 0 0 30 30;" xml:space="preserve">
<g>
	<g>
		<path d="M27,10h-4.5c-0.276,0-0.5,0.224-0.5,0.5v6.467C22,19.191,20.206,21,18,21H9.5C9.224,21,9,21.224,9,21.5v5.467
			C9,28.639,10.346,30,12,30h15c1.654,0,3-1.361,3-3.033V13.033C30,11.361,28.654,10,27,10z M29,26.967C29,28.088,28.103,29,27,29
			H12c-1.103,0-2-0.912-2-2.033V22h8c2.757,0,5-2.258,5-5.033V16h6V26.967z M21,16.967V3.033C21,1.361,19.654,0,18,0H3
			C1.346,0,0,1.361,0,3.033v13.934C0,18.639,1.346,20,3,20h15C19.654,20,21,18.639,21,16.967z M7.5,2C7.776,2,8,2.224,8,2.5
			S7.776,3,7.5,3S7,2.776,7,2.5S7.224,2,7.5,2z M5.5,2C5.776,2,6,2.224,6,2.5S5.776,3,5.5,3S5,2.776,5,2.5S5.224,2,5.5,2z M3.5,2
			C3.776,2,4,2.224,4,2.5S3.776,3,3.5,3S3,2.776,3,2.5S3.224,2,3.5,2z M1,16.967V5h19v11.967C20,18.088,19.103,19,18,19H3
			C1.897,19,1,18.088,1,16.967z M14.5,11c-0.276,0-0.5,0.224-0.5,0.5v2.793L6.854,7.147c-0.195-0.195-0.512-0.195-0.707,0
			c-0.195,0.195-0.195,0.512,0,0.707L13.293,15H10.5c-0.276,0-0.5,0.224-0.5,0.5s0.224,0.5,0.5,0.5h4
			c0.065,0,0.13-0.013,0.191-0.038c0.122-0.051,0.22-0.148,0.271-0.271C14.987,15.63,15,15.565,15,15.5v-4
			C15,11.224,14.776,11,14.5,11z"/>
	</g>
</g>
</svg>
