<?xml version="1.0" encoding="iso-8859-1"?>
<!-- Generator: Adobe Illustrator 19.0.0, SVG Export Plug-In . SVG Version: 6.00 Build 0)  -->
<svg version="1.1" id="Layer_1" xmlns="http://www.w3.org/2000/svg" xmlns:xlink="http://www.w3.org/1999/xlink" x="0px" y="0px"
	 viewBox="0 0 30 30" style="enable-background:new 0 0 30 30;" xml:space="preserve">
<g>
	<g>
		<path d="M10,23.5c1.121,0,2-0.659,2-1.5v-6.691l7-3.5v6.893c-0.294-0.126-0.631-0.202-1-0.202c-1.121,0-2,0.659-2,1.5
			s0.879,1.5,2,1.5c1.121,0,2-0.659,2-1.5v-9c0-0.173-0.09-0.334-0.237-0.425c-0.147-0.092-0.331-0.1-0.486-0.022l-8,4
			C11.108,14.638,11,14.811,11,15v5.702c-0.294-0.126-0.631-0.202-1-0.202c-1.121,0-2,0.659-2,1.5S8.879,23.5,10,23.5z M26.979,1.5
			H3.021C1.356,1.5,0,2.835,0,4.476v21.048C0,27.165,1.356,28.5,3.021,28.5h23.957c1.666,0,3.021-1.335,3.021-2.976V4.476
			C30,2.835,28.645,1.5,26.979,1.5z M9.5,3.5C9.776,3.5,10,3.724,10,4S9.776,4.5,9.5,4.5S9,4.276,9,4S9.224,3.5,9.5,3.5z M6.5,3.5
			C6.776,3.5,7,3.724,7,4S6.776,4.5,6.5,4.5S6,4.276,6,4S6.224,3.5,6.5,3.5z M3.5,3.5C3.776,3.5,4,3.724,4,4S3.776,4.5,3.5,4.5
			S3,4.276,3,4S3.224,3.5,3.5,3.5z M29.001,25.524H29c0,1.09-0.907,1.976-2.021,1.976H3.022c-1.115,0-2.021-0.886-2.021-1.976V6.5
			h28V25.524z"/>
	</g>
</g>
</svg>
