<?xml version="1.0" encoding="iso-8859-1"?>
<!-- Generator: Adobe Illustrator 19.0.0, SVG Export Plug-In . SVG Version: 6.00 Build 0)  -->
<svg version="1.1" id="Layer_1" xmlns="http://www.w3.org/2000/svg" xmlns:xlink="http://www.w3.org/1999/xlink" x="0px" y="0px"
	 viewBox="0 0 30 30" style="enable-background:new 0 0 30 30;" xml:space="preserve">
<g>
	<g>
		<path d="M26.565,25c1.618,0,2.935-1.25,2.935-2.786V2.786C29.5,1.25,28.184,0,26.565,0H3.434C1.816,0,0.5,1.25,0.5,2.786v19.428
			C0.5,23.75,1.816,25,3.435,25H14.5v1H14c-0.276,0-0.5,0.224-0.5,0.5V27H13c-0.276,0-0.5,0.224-0.5,0.5V28H1
			c-0.276,0-0.5,0.224-0.5,0.5S0.724,29,1,29h11.5v0.5c0,0.276,0.224,0.5,0.5,0.5h4c0.276,0,0.5-0.224,0.5-0.5V29H29
			c0.276,0,0.5-0.224,0.5-0.5S29.276,28,29,28H17.5v-0.5c0-0.276-0.224-0.5-0.5-0.5h-0.5v-0.5c0-0.276-0.224-0.5-0.5-0.5h-0.5v-1
			H26.565z M10,2c0.276,0,0.5,0.224,0.5,0.5S10.276,3,10,3S9.5,2.776,9.5,2.5S9.724,2,10,2z M7,2c0.276,0,0.5,0.224,0.5,0.5
			S7.276,3,7,3S6.5,2.776,6.5,2.5S6.724,2,7,2z M4,2c0.276,0,0.5,0.224,0.5,0.5S4.276,3,4,3S3.5,2.776,3.5,2.5S3.724,2,4,2z
			 M3.434,24c-1.066,0-1.935-0.801-1.935-1.786V5h27v17.214H28.5c0,0.985-0.868,1.786-1.935,1.786H3.434z M15,18
			c-0.552,0-1,0.448-1,1s0.448,1,1,1s1-0.448,1-1S15.552,18,15,18z M15,12c-1.663,0-3.22,0.774-4.385,2.181
			c-0.177,0.213-0.146,0.528,0.065,0.704c0.214,0.176,0.529,0.147,0.704-0.065C12.356,13.646,13.641,13,15,13
			s2.644,0.646,3.615,1.819C18.714,14.938,18.856,15,19,15c0.112,0,0.226-0.038,0.319-0.115c0.212-0.176,0.242-0.491,0.065-0.704
			C18.22,12.774,16.663,12,15,12z M9.17,11.124c-0.207,0.183-0.228,0.499-0.046,0.706c0.182,0.207,0.499,0.228,0.706,0.045
			c2.85-2.503,7.49-2.503,10.34,0C20.265,11.959,20.383,12,20.5,12c0.139,0,0.277-0.058,0.376-0.17
			c0.182-0.208,0.161-0.523-0.046-0.706C17.615,8.302,12.385,8.302,9.17,11.124z M12.598,16.181
			c-0.177,0.213-0.146,0.528,0.065,0.704c0.214,0.176,0.528,0.147,0.704-0.065c0.875-1.057,2.355-1.057,3.23,0
			c0.099,0.119,0.241,0.181,0.385,0.181c0.112,0,0.226-0.038,0.319-0.115c0.212-0.176,0.242-0.491,0.065-0.704
			C16.105,14.659,13.859,14.659,12.598,16.181z"/>
	</g>
</g>
</svg>
