<?xml version="1.0" encoding="iso-8859-1"?>
<!-- Generator: Adobe Illustrator 19.0.0, SVG Export Plug-In . SVG Version: 6.00 Build 0)  -->
<svg version="1.1" id="Layer_1" xmlns="http://www.w3.org/2000/svg" xmlns:xlink="http://www.w3.org/1999/xlink" x="0px" y="0px"
	 viewBox="0 0 30 30" style="enable-background:new 0 0 30 30;" xml:space="preserve">
<g>
	<g>
		<path d="M26.979,1.5H3.021C1.356,1.5,0,2.835,0,4.476v21.048C0,27.165,1.356,28.5,3.021,28.5h23.957
			c1.666,0,3.021-1.335,3.021-2.976V4.476C30,2.835,28.644,1.5,26.979,1.5z M9.5,3.5C9.776,3.5,10,3.724,10,4S9.776,4.5,9.5,4.5
			S9,4.276,9,4S9.224,3.5,9.5,3.5z M6.5,3.5C6.776,3.5,7,3.724,7,4S6.776,4.5,6.5,4.5S6,4.276,6,4S6.224,3.5,6.5,3.5z M3.5,3.5
			C3.776,3.5,4,3.724,4,4S3.776,4.5,3.5,4.5S3,4.276,3,4S3.224,3.5,3.5,3.5z M29,25.524L29,25.524
			C29,26.614,28.093,27.5,26.979,27.5H3.021C1.906,27.5,1,26.614,1,25.524V6.5h28V25.524z M15.5,20.5h6c0.276,0,0.5-0.224,0.5-0.5
			s-0.224-0.5-0.5-0.5h-6c-0.276,0-0.5,0.224-0.5,0.5S15.224,20.5,15.5,20.5z M9.146,21.354C9.244,21.452,9.372,21.5,9.5,21.5
			s0.256-0.049,0.354-0.146l4-4c0.195-0.195,0.195-0.512,0-0.707l-4-4c-0.195-0.195-0.512-0.195-0.707,0s-0.195,0.512,0,0.707
			L12.792,17l-3.646,3.646C8.951,20.842,8.951,21.158,9.146,21.354z"/>
	</g>
</g>
</svg>
