<?xml version="1.0" encoding="iso-8859-1"?>
<!-- Generator: Adobe Illustrator 19.0.0, SVG Export Plug-In . SVG Version: 6.00 Build 0)  -->
<svg version="1.1" id="Layer_1" xmlns="http://www.w3.org/2000/svg" xmlns:xlink="http://www.w3.org/1999/xlink" x="0px" y="0px"
	 viewBox="0 0 30 30" style="enable-background:new 0 0 30 30;" xml:space="preserve">
<g>
	<g>
		<path d="M7.5,21c0.128,0,0.256-0.049,0.354-0.146l2.776-2.776C10.084,19.985,10,22.156,10,24.5c0,0.276,0.224,0.5,0.5,0.5
			s0.5-0.224,0.5-0.5c0-3.284,0.144-6.211,1.604-8.397l0.152-0.152C12.836,15.971,12.914,16,13,16c0.551,0,1-0.448,1-1
			c0-0.086-0.029-0.164-0.049-0.244l0.583-0.583C17.279,12.307,21.218,12,23.5,12c0.276,0,0.5-0.224,0.5-0.5S23.776,11,23.5,11
			c-1.729,0-4.362,0.171-6.81,1.017l2.164-2.164c0.195-0.195,0.195-0.512,0-0.707s-0.512-0.195-0.707,0l-4.261,4.261
			c-0.271,0.188-0.528,0.396-0.776,0.615C13.072,14.018,13.039,14,13,14c-0.551,0-1,0.448-1,1c0,0.065,0.025,0.121,0.037,0.183
			c-0.074,0.098-0.152,0.194-0.221,0.295l-4.669,4.669c-0.195,0.195-0.195,0.512,0,0.707C7.244,20.951,7.372,21,7.5,21z M26.979,1
			H3.022C1.355,1,0,2.378,0,4.071v21.858C0,27.622,1.355,29,3.021,29h23.958C28.645,29,30,27.622,30,25.929V4.071
			C30,2.378,28.645,1,26.979,1z M9.5,3C9.776,3,10,3.224,10,3.5S9.776,4,9.5,4S9,3.776,9,3.5S9.224,3,9.5,3z M6.5,3
			C6.776,3,7,3.224,7,3.5S6.776,4,6.5,4S6,3.776,6,3.5S6.224,3,6.5,3z M3.5,3C3.776,3,4,3.224,4,3.5S3.776,4,3.5,4S3,3.776,3,3.5
			S3.224,3,3.5,3z M29,25.929C29,27.071,28.093,28,26.979,28H3.022C1.907,28,1,27.071,1,25.929V6h28V25.929z"/>
	</g>
</g>
</svg>
