<?xml version="1.0" encoding="iso-8859-1"?>
<!-- Generator: Adobe Illustrator 19.0.0, SVG Export Plug-In . SVG Version: 6.00 Build 0)  -->
<svg version="1.1" id="Layer_1" xmlns="http://www.w3.org/2000/svg" xmlns:xlink="http://www.w3.org/1999/xlink" x="0px" y="0px"
	 viewBox="0 0 24 24" style="enable-background:new 0 0 24 24;" xml:space="preserve">
<g>
	<g>
		<path d="M7.854,16.147c-0.046-0.046-0.102-0.083-0.163-0.108c-0.035-0.014-0.073-0.016-0.109-0.022C7.554,16.012,7.529,16,7.5,16
			c-0.038,0-0.072,0.014-0.108,0.022c-0.027,0.006-0.055,0.006-0.081,0.016c-0.063,0.026-0.12,0.064-0.167,0.111l-1.497,1.497
			c-0.195,0.195-0.195,0.512,0,0.707s0.512,0.195,0.707,0L7,17.708V19.5C7,19.776,7.224,20,7.5,20S8,19.776,8,19.5v-1.792
			l0.646,0.646C8.744,18.451,8.872,18.5,9,18.5s0.256-0.049,0.354-0.146c0.195-0.195,0.195-0.512,0-0.707L7.854,16.147
			C7.854,16.147,7.854,16.147,7.854,16.147z M23.5,17H23v-0.5c0-1.93-1.57-3.5-3.5-3.5S16,14.57,16,16.5V17h-0.5
			c-0.276,0-0.5,0.224-0.5,0.5v6c0,0.276,0.224,0.5,0.5,0.5h8c0.276,0,0.5-0.224,0.5-0.5v-6C24,17.224,23.776,17,23.5,17z M17,16.5
			c0-1.378,1.122-2.5,2.5-2.5s2.5,1.122,2.5,2.5V17h-5V16.5z M23,23h-7v-5h7V23z M13.37,22.472L12,22.846V1.154l10.001,2.728v8.638
			c0,0.276,0.224,0.5,0.5,0.5s0.5-0.224,0.5-0.5V3.5c0-0.225-0.151-0.422-0.369-0.482l-11-3c-0.014-0.004-0.029,0.003-0.043,0
			C11.559,0.012,11.532,0,11.5,0s-0.059,0.012-0.089,0.018c-0.014,0.003-0.028-0.004-0.042,0l-11,3C0.151,3.077,0,3.274,0,3.5v17
			c0,0.225,0.151,0.422,0.369,0.482l11,3C11.412,23.994,11.456,24,11.5,24s0.088-0.006,0.133-0.018l2-0.545
			c0.267-0.073,0.424-0.348,0.351-0.614C13.912,22.556,13.635,22.4,13.37,22.472z M4,3.064l2.999-0.818v9.047l-0.5,0.5l-0.646-0.646
			c-0.195-0.195-0.512-0.195-0.707,0L4.5,11.793l-0.5-0.5V3.064z M11,22.845l-9.999-2.727V3.882L3,3.337V11.5
			c0,0.133,0.053,0.26,0.147,0.354l1,1c0.195,0.195,0.512,0.195,0.707,0L5.5,12.208l0.646,0.646C6.244,12.951,6.372,13,6.5,13
			s0.256-0.049,0.353-0.146l1-1c0.093-0.094,0.146-0.221,0.146-0.354V2c0-0.009-0.005-0.016-0.005-0.025L11,1.155V22.845z
			 M19,20.847V21.5c0,0.276,0.224,0.5,0.5,0.5s0.5-0.224,0.5-0.5v-0.653c0.294-0.174,0.5-0.481,0.5-0.847c0-0.552-0.448-1-1-1
			s-1,0.448-1,1C18.5,20.366,18.706,20.673,19,20.847z"/>
	</g>
</g>
</svg>
