<?xml version="1.0" encoding="iso-8859-1"?>
<!-- Generator: Adobe Illustrator 19.0.0, SVG Export Plug-In . SVG Version: 6.00 Build 0)  -->
<svg version="1.1" id="Layer_1" xmlns="http://www.w3.org/2000/svg" xmlns:xlink="http://www.w3.org/1999/xlink" x="0px" y="0px"
	 viewBox="0 0 24 24" style="enable-background:new 0 0 24 24;" xml:space="preserve">
<g>
	<g>
		<path d="M4,10c0.922,0,1.762-0.326,2.439-0.853l2.707,2.707C9.244,11.951,9.372,12,9.5,12s0.256-0.049,0.353-0.146
			c0.195-0.195,0.195-0.512,0-0.707L7.146,8.44C7.673,7.763,8,6.923,8,6c0-2.206-1.794-4-4-4S0,3.794,0,6S1.794,10,4,10z M4,3
			c1.654,0,3,1.346,3,3S5.654,9,4,9S1,7.654,1,6S2.346,3,4,3z M22.804,10.271l-4.198-3.499c-0.596-0.498-1.352-0.771-2.128-0.771
			H9.475c-0.276,0-0.5,0.224-0.5,0.5s0.224,0.5,0.5,0.5h7.003c0.543,0,1.071,0.191,1.488,0.538l4.198,3.5
			C22.695,11.481,23,12.132,23,12.824c0,1.019-0.241,2.041-0.697,2.953l-0.974,1.947c-0.074,0.15-0.22,0.235-0.381,0.258
			C20.695,16.299,19.253,15,17.5,15c-1.759,0-3.204,1.308-3.449,3H9.949c-0.245-1.692-1.691-3-3.449-3
			c-1.758,0-3.204,1.308-3.449,2.999H2.927C1.865,17.999,1,17.135,1,16.072c0-0.298,0.071-0.595,0.204-0.862l1.838-3.676
			c0.123-0.247,0.023-0.547-0.224-0.671c-0.246-0.124-0.547-0.022-0.671,0.224l-1.838,3.676C0.107,15.168,0,15.621,0,16.073
			C0,17.687,1.313,19,2.927,19h0.124c0.245,1.692,1.691,3,3.449,3s3.204-1.308,3.449-3h4.101c0.245,1.692,1.691,3,3.449,3
			c1.762,0,3.209-1.313,3.45-3.009c0.544-0.025,1.028-0.329,1.273-0.819l0.974-1.947c0.525-1.05,0.803-2.226,0.803-3.4
			C24,11.834,23.564,10.904,22.804,10.271z M6.5,21C5.122,21,4,19.879,4,18.5C4,17.121,5.122,16,6.5,16S9,17.121,9,18.5
			C9,19.879,7.878,21,6.5,21z M17.5,21c-1.378,0-2.5-1.121-2.5-2.5c0-1.379,1.122-2.5,2.5-2.5s2.5,1.121,2.5,2.5
			C20,19.879,18.878,21,17.5,21z M21.5,13c0.212,0,0.401-0.134,0.471-0.335s0.007-0.423-0.159-0.556l-5-4
			c-0.133-0.106-0.313-0.138-0.472-0.083c-0.161,0.055-0.284,0.188-0.325,0.353l-1,4c-0.037,0.15-0.004,0.308,0.091,0.429
			C15.201,12.929,15.346,13,15.5,13H21.5z M16.796,9.377L20.075,12h-3.934L16.796,9.377z"/>
	</g>
</g>
</svg>
