<?xml version="1.0" encoding="utf-8"?>
<!-- Generator: Adobe Illustrator 19.0.0, SVG Export Plug-In . SVG Version: 6.00 Build 0)  -->
<svg version="1.1" id="Layer_1" xmlns="http://www.w3.org/2000/svg" xmlns:xlink="http://www.w3.org/1999/xlink" x="0px" y="0px"
	 viewBox="0 0 30 30" style="enable-background:new 0 0 30 30;" xml:space="preserve">
<g>
	<g>
		<path d="M12.5,11.1c-0.3,0-0.5-0.2-0.5-0.5C12,9.7,13.3,9,15,9s3,0.7,3,1.6c0,0.3-0.2,0.5-0.5,0.5c-0.3,0-0.5-0.2-0.5-0.5
			C17,10.4,16.2,10,15,10c-1.3,0-2,0.4-2,0.6C13,10.9,12.8,11.1,12.5,11.1z"/>
	</g>
	<g>
		<g>
			<path d="M15,7.9L3,7.3c-0.2,0-0.3-0.1-0.4-0.3c-0.1-0.2-0.1-0.4,0-0.5C5.4,2.4,10,0,15,0s9.6,2.4,12.4,6.6c0.1,0.1,0.1,0.3,0,0.5
				c-0.1,0.2-0.2,0.3-0.4,0.3L15,7.9z M4,6.4L15,6.9l11-0.6C23.4,3,19.3,1,15,1S6.6,3,4,6.4z"/>
		</g>
		<g>
			<path d="M15,30C6.7,30,0,23.3,0,15c0-1.1,0.1-2.2,0.4-3.3c0.1-0.3,0.3-0.4,0.6-0.4c0.3,0.1,0.4,0.3,0.4,0.6C1.1,13,1,14,1,15
				c0,7.7,6.3,14,14,14s14-6.3,14-14c0-1-0.1-2-0.4-3.1c-0.1-0.3,0.1-0.5,0.4-0.6c0.3-0.1,0.5,0.1,0.6,0.4c0.3,1.1,0.4,2.2,0.4,3.3
				C30,23.3,23.3,30,15,30z"/>
		</g>
	</g>
	<g>
		<path d="M5.5,16C2.6,16,0,13.2,0,10V8.7c0-1,1.4-2.4,2.4-2.4L15,7c0.3,0,0.5,0.3,0.5,0.5C15.5,7.8,15.2,8,15,8l-1.4-0.1
			C13.3,12.3,9.7,16,5.5,16z M2.4,7.3C2,7.3,1,8.3,1,8.7V10c0,2.4,1.9,5,4.5,5c3.7,0,6.9-3.3,7.1-7.1L2.4,7.3z"/>
	</g>
	<g>
		<path d="M24.4,16c-4.2,0-7.8-3.7-8-8.1L15,8c-0.3,0-0.5-0.2-0.5-0.5C14.5,7.3,14.7,7,15,7l12.6-0.7l0,0c1,0,2.4,1.4,2.4,2.4V10
			C30,13.1,27.3,16,24.4,16z M17.4,7.9c0.2,3.8,3.4,7.1,7,7.1c2.4,0,4.6-2.4,4.6-5V8.7c0-0.4-1-1.4-1.4-1.4L17.4,7.9z"/>
	</g>
	<g>
		<path d="M15.3,24c-3.1,0-5.9-1.6-7.6-4.1c-0.1-0.2-0.1-0.5,0.2-0.7C8.1,19,8.4,19,8.6,19.3c1.5,2.3,4,3.7,6.7,3.7
			c2.8,0,5.3-1.4,6.8-3.7c0.1-0.2,0.5-0.3,0.7-0.2c0.2,0.1,0.3,0.5,0.2,0.7C21.3,22.4,18.4,24,15.3,24z"/>
	</g>
</g>
</svg>
