<?xml version="1.0" encoding="utf-8"?>
<!-- Generator: Adobe Illustrator 19.0.0, SVG Export Plug-In . SVG Version: 6.00 Build 0)  -->
<svg version="1.1" id="Layer_1" xmlns="http://www.w3.org/2000/svg" xmlns:xlink="http://www.w3.org/1999/xlink" x="0px" y="0px"
	 viewBox="0 0 30 30" style="enable-background:new 0 0 30 30;" xml:space="preserve">
<g>
	<g>
		<path d="M10.5,11h-3C7.2,11,7,10.8,7,10.5S7.2,10,7.5,10h3c0.3,0,0.5,0.2,0.5,0.5S10.8,11,10.5,11z"/>
	</g>
	<g>
		<path d="M15,30C6.7,30,0,23.3,0,15S6.7,0,15,0s15,6.7,15,15S23.3,30,15,30z M15,1C7.3,1,1,7.3,1,15s6.3,14,14,14s14-6.3,14-14
			S22.7,1,15,1z"/>
	</g>
	<g>
		<path d="M15,24c-3.1,0-5.9-1.6-7.6-4.1c-0.1-0.2-0.1-0.5,0.2-0.7c0.2-0.1,0.5-0.1,0.7,0.2c1.5,2.3,4,3.7,6.7,3.7
			c2.8,0,5.3-1.4,6.8-3.7c0.1-0.2,0.5-0.3,0.7-0.2c0.2,0.1,0.3,0.5,0.2,0.7C21,22.4,18.1,24,15,24z"/>
	</g>
	<g>
		<path d="M20.5,12c-0.8,0-1.5-0.7-1.5-1.5S19.7,9,20.5,9S22,9.7,22,10.5S21.3,12,20.5,12z M20.5,10c-0.3,0-0.5,0.2-0.5,0.5
			s0.2,0.5,0.5,0.5s0.5-0.2,0.5-0.5S20.8,10,20.5,10z"/>
	</g>
</g>
</svg>
