<?xml version="1.0" encoding="iso-8859-1"?>
<!-- Generator: Adobe Illustrator 19.0.0, SVG Export Plug-In . SVG Version: 6.00 Build 0)  -->
<svg version="1.1" id="Layer_1" xmlns="http://www.w3.org/2000/svg" xmlns:xlink="http://www.w3.org/1999/xlink" x="0px" y="0px"
	 viewBox="0 0 24 24" style="enable-background:new 0 0 24 24;" xml:space="preserve">
<g>
	<path d="M19.635,16.126l-2.572-0.895c-0.188-0.064-0.398-0.013-0.533,0.134C15.27,16.742,13.661,17.5,12,17.5
		s-3.27-0.758-4.529-2.134c-0.136-0.147-0.345-0.199-0.533-0.134l-2.572,0.895C1.754,17.034,0,19.501,0,22.266V23
		c0,0.276,0.224,0.5,0.5,0.5h23c0.276,0,0.5-0.224,0.5-0.5v-0.734C24,19.501,22.246,17.034,19.635,16.126z"/>
	<g>
		<path d="M10.5,9.5h-1C9.224,9.5,9,9.276,9,9s0.224-0.5,0.5-0.5h1C10.776,8.5,11,8.724,11,9S10.776,9.5,10.5,9.5z"/>
	</g>
	<g>
		<path d="M14.5,9.5h-1C13.224,9.5,13,9.276,13,9s0.224-0.5,0.5-0.5h1C14.776,8.5,15,8.724,15,9S14.776,9.5,14.5,9.5z"/>
	</g>
	<g>
		<path d="M12,16.5c-2.464,0-4.653-1.99-5.562-5.002C5.614,11.448,5,10.391,5,9c0-1.133,0.407-2.044,1.004-2.37
			C6.001,6.587,6,6.543,6,6.5c0-3.309,2.691-6,6-6s6,2.691,6,6c0,0.053-0.002,0.106-0.005,0.159C18.611,6.999,19,7.894,19,9
			c0,1.391-0.614,2.448-1.438,2.498C16.653,14.51,14.464,16.5,12,16.5z M6.791,10.417c0.061,0,0.12,0.01,0.176,0.033
			c0.147,0.06,0.272,0.176,0.312,0.332C7.979,13.604,9.876,15.5,12,15.5s4.021-1.896,4.722-4.718
			c0.039-0.155,0.149-0.282,0.297-0.343c0.147-0.06,0.316-0.045,0.452,0.039C17.632,10.502,18,9.966,18,9
			c0-0.917-0.337-1.442-0.479-1.496c-0.005,0.001-0.01,0.001-0.015,0.002c-0.149,0.014-0.298-0.038-0.404-0.145
			c-0.105-0.106-0.158-0.255-0.143-0.405l0.014-0.125C16.986,6.723,17,6.613,17,6.5c0-2.757-2.243-5-5-5s-5,2.243-5,5
			c0,0.113,0.014,0.223,0.026,0.332L7.04,6.957c0.016,0.149-0.037,0.298-0.143,0.405C6.791,7.468,6.639,7.52,6.493,7.506
			c-0.005,0-0.01-0.001-0.015-0.002C6.337,7.558,6,8.083,6,9c0,0.968,0.376,1.5,0.5,1.5C6.585,10.447,6.688,10.417,6.791,10.417z"/>
	</g>
</g>
<g>
</g>
<g>
</g>
<g>
</g>
<g>
</g>
<g>
</g>
<g>
</g>
<g>
</g>
<g>
</g>
<g>
</g>
<g>
</g>
<g>
</g>
<g>
</g>
<g>
</g>
<g>
</g>
<g>
</g>
</svg>
