<?xml version="1.0" encoding="iso-8859-1"?>
<!-- Generator: Adobe Illustrator 19.0.0, SVG Export Plug-In . SVG Version: 6.00 Build 0)  -->
<svg version="1.1" id="Layer_1" xmlns="http://www.w3.org/2000/svg" xmlns:xlink="http://www.w3.org/1999/xlink" x="0px" y="0px"
	 viewBox="0 0 24 24" style="enable-background:new 0 0 24 24;" xml:space="preserve">
<path d="M19.743,18.045l-3.831-0.958l-0.221-0.885c2.643-0.445,4.003-1.237,4.063-1.272c0.142-0.083,0.23-0.234,0.242-0.398
	c0.011-0.164-0.062-0.325-0.191-0.428C19.787,14.09,18,12.614,18,7.5C18,3.187,16.991,1,15,1h-0.295C13.987,0.306,13.448,0,12,0
	c-1.879,0-6,1.889-6,7.5c0,5.114-1.787,6.59-1.8,6.6c-0.133,0.1-0.208,0.259-0.2,0.425c0.009,0.167,0.099,0.317,0.242,0.403
	c0.06,0.036,1.407,0.832,4.066,1.276l-0.221,0.883l-3.831,0.958C1.75,18.672,0,20.914,0,23.5C0,23.776,0.224,24,0.5,24h23
	c0.276,0,0.5-0.226,0.5-0.502C24,20.914,22.25,18.672,19.743,18.045z"/>
<g>
</g>
<g>
</g>
<g>
</g>
<g>
</g>
<g>
</g>
<g>
</g>
<g>
</g>
<g>
</g>
<g>
</g>
<g>
</g>
<g>
</g>
<g>
</g>
<g>
</g>
<g>
</g>
<g>
</g>
</svg>
