<?xml version="1.0" encoding="iso-8859-1"?>
<!-- Generator: Adobe Illustrator 19.0.0, SVG Export Plug-In . SVG Version: 6.00 Build 0)  -->
<svg version="1.1" id="Layer_1" xmlns="http://www.w3.org/2000/svg" xmlns:xlink="http://www.w3.org/1999/xlink" x="0px" y="0px"
	 viewBox="0 0 24 24" style="enable-background:new 0 0 24 24;" xml:space="preserve">
<path d="M19.743,18.045l-3.831-0.958l-0.326-1.304c1.025-1.015,1.727-2.409,1.935-3.839c0.568-0.16,1.008-0.647,1.084-1.258l0.25-2
	c0.053-0.422-0.077-0.849-0.357-1.169c-0.164-0.188-0.371-0.33-0.6-0.417l0.092-1.883l0.374-0.375
	c0.563-0.599,1.03-1.626,0.054-3.116C17.668,0.581,16.394,0,14.63,0c-0.696,0-2.298,0-3.79,1.002C6.58,1.091,6,3.07,6,5
	c0,0.449,0.109,1.46,0.181,2.07C5.924,7.151,5.69,7.301,5.508,7.507C5.224,7.83,5.091,8.259,5.145,8.686l0.25,2
	c0.082,0.652,0.577,1.165,1.203,1.287c0.207,1.375,0.873,2.724,1.839,3.722l-0.348,1.393l-3.831,0.958C1.75,18.672,0,20.914,0,23.5
	C0,23.776,0.224,24,0.5,24h23c0.276,0,0.5-0.226,0.5-0.502C24,20.914,22.25,18.672,19.743,18.045z"/>
<g>
</g>
<g>
</g>
<g>
</g>
<g>
</g>
<g>
</g>
<g>
</g>
<g>
</g>
<g>
</g>
<g>
</g>
<g>
</g>
<g>
</g>
<g>
</g>
<g>
</g>
<g>
</g>
<g>
</g>
</svg>
