<?xml version="1.0" encoding="iso-8859-1"?>
<!-- Generator: Adobe Illustrator 19.0.0, SVG Export Plug-In . SVG Version: 6.00 Build 0)  -->
<svg version="1.1" id="Layer_1" xmlns="http://www.w3.org/2000/svg" xmlns:xlink="http://www.w3.org/1999/xlink" x="0px" y="0px"
	 viewBox="0 0 24 24" style="enable-background:new 0 0 24 24;" xml:space="preserve">
<g>
	<g>
		<path d="M12,18c-2.464,0-4.653-1.99-5.562-5.002C5.614,12.948,5,11.891,5,10.5C5,9.075,5.645,8,6.5,8
			c0.047,0,0.117,0.011,0.162,0.024C6.937,8.051,7.103,8.29,7.075,8.565C7.047,8.84,6.771,9.028,6.493,9.006
			c-0.004,0-0.01-0.001-0.015-0.002C6.337,9.058,6,9.583,6,10.5C6,11.468,6.375,12,6.5,12c0.136-0.084,0.32-0.109,0.467-0.049
			c0.148,0.061,0.273,0.176,0.312,0.331C7.979,15.104,9.876,17,12,17s4.021-1.896,4.721-4.718c0.039-0.155,0.149-0.282,0.296-0.342
			c0.148-0.06,0.316-0.046,0.452,0.038C17.633,11.984,18,11.468,18,10.5c0-0.917-0.337-1.442-0.478-1.496
			c-0.005,0.001-0.011,0.001-0.015,0.002c-0.272,0.027-0.52-0.173-0.547-0.448c-0.027-0.275,0.173-0.52,0.448-0.547
			C18.399,8.012,19,9.075,19,10.5c0,1.391-0.614,2.448-1.438,2.498C16.653,16.01,14.464,18,12,18z"/>
	</g>
	<g>
		<path d="M12,10c0,0.828-1.395,1.5-2.5,1.5S8,10.828,8,10s-0.396-1.5,2-1.5C12.313,8.5,12,9.172,12,10z"/>
		<path d="M9.5,12c-1.252,0-2-0.748-2-2c0-0.096-0.006-0.189-0.012-0.279C7.465,9.36,7.437,8.911,7.781,8.544
			C8.144,8.158,8.787,8,10,8c1.167,0,1.82,0.163,2.186,0.544c0.356,0.372,0.336,0.837,0.321,1.211C12.503,9.835,12.5,9.917,12.5,10
			C12.5,11.239,10.753,12,9.5,12z M10,9C8.817,9,8.56,9.175,8.51,9.229C8.462,9.28,8.475,9.472,8.486,9.658
			C8.493,9.768,8.5,9.883,8.5,10c0,0.691,0.309,1,1,1c0.966,0,2-0.587,2-1c0-0.098,0.004-0.194,0.008-0.287
			c0.009-0.212,0.018-0.413-0.044-0.477C11.396,9.166,11.117,9,10,9z"/>
	</g>
	<g>
		<path d="M12.014,10c0,0.828,1.381,1.5,2.486,1.5s1.514-0.672,1.514-1.5s0.396-1.5-2-1.5C11.702,8.5,12.014,9.172,12.014,10z"/>
		<path d="M14.5,12c-1.247,0-2.986-0.761-2.986-2c0-0.083-0.003-0.165-0.007-0.245c-0.016-0.374-0.036-0.839,0.321-1.211
			C12.194,8.163,12.848,8,14.014,8c1.213,0,1.856,0.158,2.219,0.544c0.344,0.366,0.315,0.815,0.292,1.176
			c-0.005,0.09-0.012,0.184-0.012,0.279C16.514,11.233,15.742,12,14.5,12z M14.014,9c-1.117,0-1.396,0.166-1.464,0.236
			c-0.062,0.064-0.053,0.265-0.044,0.477C12.51,9.806,12.514,9.902,12.514,10c0,0.413,1.027,1,1.986,1c0.701,0,1.014-0.309,1.014-1
			c0-0.117,0.007-0.232,0.014-0.342c0.012-0.186,0.024-0.378-0.023-0.429C15.454,9.175,15.197,9,14.014,9z"/>
	</g>
	<path d="M17.611,4.512C16.832,2.148,15.415,0,14,0c-0.915,0-1.601,0.438-2,0.785C11.601,0.438,10.915,0,10,0
		C8.585,0,7.168,2.148,6.389,4.512C2.534,5.177,2,5.86,2,6.5C2,8.474,8.286,9,12,9s10-0.526,10-2.5
		C22,5.86,21.466,5.177,17.611,4.512z M16.884,4.82C16.783,4.941,15.791,6,12,6S7.217,4.941,7.116,4.82
		C6.939,4.608,6.968,4.292,7.18,4.116c0.208-0.173,0.515-0.149,0.693,0.051C7.913,4.205,8.783,5,12,5c3.28,0,4.12-0.826,4.128-0.834
		c0.188-0.192,0.5-0.208,0.7-0.03C17.028,4.315,17.056,4.614,16.884,4.82z"/>
	<g>
		<path d="M6.668,21.748c-0.317-0.211-0.541-0.532-0.628-0.904C6,20.676,5.876,20.54,5.712,20.485l-0.187-0.063
			c-0.22-0.073-0.422-0.198-0.586-0.362l-1.562-1.562c-0.169-0.169-0.434-0.196-0.631-0.063C1.001,19.599,0,21.445,0,23.5
			C0,23.776,0.224,24,0.5,24h7.895c0.22,0,0.415-0.144,0.479-0.355s-0.018-0.439-0.201-0.561L6.668,21.748z"/>
		<path d="M17,20.5v-0.64l1.158-0.386c0.074-0.024,0.141-0.066,0.195-0.121l2.5-2.5c0.123-0.123,0.173-0.3,0.133-0.468
			c-0.04-0.169-0.164-0.305-0.329-0.359l-3-1c-0.21-0.07-0.444,0.007-0.57,0.191L12,22.618l-5.088-7.401
			c-0.126-0.184-0.358-0.261-0.57-0.191l-3,1c-0.165,0.055-0.289,0.19-0.329,0.359c-0.04,0.168,0.011,0.346,0.133,0.468l2.5,2.5
			c0.055,0.055,0.122,0.096,0.195,0.121L7,19.86v0.64c0,0.167,0.083,0.323,0.223,0.416l4.494,2.996
			c0.029,0.02,0.06,0.037,0.091,0.05C11.87,23.987,11.935,24,12,24c0.066,0,0.132-0.013,0.194-0.039
			c0.031-0.013,0.061-0.029,0.088-0.049l4.495-2.996C16.917,20.823,17,20.667,17,20.5z"/>
		<path d="M21.253,18.436c-0.197-0.133-0.462-0.106-0.631,0.063l-1.563,1.563c-0.164,0.164-0.366,0.289-0.586,0.362l-0.186,0.062
			c-0.164,0.055-0.288,0.19-0.328,0.359c-0.087,0.372-0.311,0.692-0.628,0.904l-2.004,1.336c-0.183,0.122-0.265,0.35-0.201,0.561
			S15.385,24,15.605,24H23.5c0.276,0,0.5-0.224,0.5-0.5C24,21.445,22.999,19.599,21.253,18.436z"/>
	</g>
</g>
<g>
</g>
<g>
</g>
<g>
</g>
<g>
</g>
<g>
</g>
<g>
</g>
<g>
</g>
<g>
</g>
<g>
</g>
<g>
</g>
<g>
</g>
<g>
</g>
<g>
</g>
<g>
</g>
<g>
</g>
</svg>
