<?xml version="1.0" encoding="iso-8859-1"?>
<!-- Generator: Adobe Illustrator 19.0.0, SVG Export Plug-In . SVG Version: 6.00 Build 0)  -->
<svg version="1.1" id="Layer_1" xmlns="http://www.w3.org/2000/svg" xmlns:xlink="http://www.w3.org/1999/xlink" x="0px" y="0px"
	 viewBox="0 0 24 24" style="enable-background:new 0 0 24 24;" xml:space="preserve">
<g>
	<path style="fill:none;stroke:#000000;stroke-linecap:round;stroke-linejoin:round;stroke-miterlimit:10;" d="M10.51,13.5
		c0,0,0.313,0.5,1.5,0.5s1.5-0.5,1.5-0.5"/>
	<g>
		<path d="M13.49,18.999c-0.053,0-0.106-0.008-0.158-0.026l-1.342-0.447l-1.342,0.447c-0.153,0.052-0.321,0.025-0.45-0.068
			c-0.131-0.094-0.208-0.245-0.208-0.406v-1c0-0.161,0.077-0.312,0.208-0.406c0.129-0.094,0.297-0.121,0.45-0.068l1.342,0.447
			l1.342-0.447c0.152-0.053,0.32-0.026,0.45,0.068c0.131,0.094,0.208,0.245,0.208,0.406v1c0,0.161-0.077,0.312-0.208,0.406
			C13.696,18.967,13.594,18.999,13.49,18.999z"/>
	</g>
	<g>
		<path d="M4.941,23.999H19.04c0.167-2.734,0.716-5.468,0.902-6.333l-3.228-1.614c-0.227-0.112-0.506-0.039-0.645,0.177
			l-4.079,6.346l-4.079-6.346c-0.139-0.216-0.42-0.289-0.645-0.177l-3.228,1.614C4.224,18.532,4.774,21.266,4.941,23.999z
			 M15.49,20.999h2c0.276,0,0.5,0.224,0.5,0.5s-0.224,0.5-0.5,0.5h-2c-0.276,0-0.5-0.224-0.5-0.5S15.214,20.999,15.49,20.999z"/>
		<path d="M3.113,18.129L2.09,18.641c-0.653,0.327-1.13,0.921-1.308,1.63l-0.777,3.107c-0.037,0.149-0.004,0.308,0.091,0.429
			c0.095,0.122,0.24,0.192,0.395,0.192h3.447C3.784,21.596,3.326,19.162,3.113,18.129z"/>
		<path d="M23.943,23.248l-0.745-2.978c-0.178-0.709-0.654-1.304-1.308-1.63l-1.023-0.512c-0.212,1.033-0.67,3.468-0.824,5.871
			h3.447c0.007,0.001,0.015,0,0.02,0c0.276,0,0.5-0.224,0.5-0.5C24.01,23.408,23.985,23.322,23.943,23.248z"/>
	</g>
	<g>
		<path d="M12.01,17c-2.463,0-4.65-1.99-5.559-5.001C5.625,11.951,5.01,10.893,5.01,9.5c0-0.448,0.067-0.886,0.193-1.267
			c0.086-0.262,0.37-0.404,0.632-0.317c0.263,0.087,0.404,0.37,0.317,0.632C6.059,8.829,6.01,9.158,6.01,9.5
			c0,0.968,0.376,1.5,0.5,1.5c0.137-0.085,0.32-0.11,0.468-0.051c0.148,0.061,0.275,0.176,0.313,0.332
			C7.99,14.104,9.887,16,12.01,16s4.02-1.896,4.719-4.719c0.038-0.156,0.149-0.283,0.298-0.343c0.149-0.06,0.317-0.045,0.452,0.04
			c0.176,0.035,0.531-0.506,0.531-1.477c0-0.342-0.049-0.671-0.143-0.951c-0.087-0.262,0.055-0.545,0.317-0.632
			c0.26-0.087,0.546,0.055,0.632,0.317C18.942,8.614,19.01,9.052,19.01,9.5c0,1.393-0.615,2.451-1.441,2.499
			C16.66,15.01,14.473,17,12.01,17z"/>
	</g>
	<path d="M12.01,0c-3.859,0-7,3.14-7,7c0,0.463,0.057,0.939,0.18,1.498c0.031,0.143,0.124,0.266,0.253,0.334
		c0.13,0.069,0.285,0.077,0.419,0.023c0.146-0.058,3.14-1.274,3.948-3.975c1.561,1.709,5.151,4.01,8.532,4.01
		c0.235,0,0.438-0.164,0.488-0.393C18.953,7.939,19.01,7.463,19.01,7C19.01,3.14,15.869,0,12.01,0z"/>
	<g>
		<path d="M10.51,10h-1c-0.276,0-0.5-0.224-0.5-0.5S9.234,9,9.51,9h1c0.276,0,0.5,0.224,0.5,0.5S10.786,10,10.51,10z"/>
	</g>
	<g>
		<path d="M14.51,10h-1c-0.276,0-0.5-0.224-0.5-0.5S13.234,9,13.51,9h1c0.276,0,0.5,0.224,0.5,0.5S14.786,10,14.51,10z"/>
	</g>
	<g>
		<path d="M6.01,10.833V7c0-0.276-0.224-0.5-0.5-0.5S5.01,6.724,5.01,7c0,1.615-0.897,5.19-1.854,6.146
			c-0.195,0.195-0.195,0.512,0,0.707c1.105,1.106,4.868,1.591,5.293,1.643C8.47,15.499,8.49,15.5,8.51,15.5
			c0.177,0,0.343-0.094,0.433-0.25c0.101-0.173,0.088-0.39-0.032-0.55L6.01,10.833z"/>
		<path d="M20.863,13.146C19.907,12.19,19.01,8.615,19.01,7c0-0.276-0.224-0.5-0.5-0.5s-0.5,0.224-0.5,0.5v3.833l-2.9,3.867
			c-0.12,0.16-0.133,0.376-0.032,0.55c0.09,0.156,0.256,0.25,0.433,0.25c0.02,0,0.04-0.001,0.061-0.003
			c0.425-0.052,4.188-0.537,5.293-1.643C21.059,13.658,21.059,13.342,20.863,13.146z"/>
	</g>
</g>
<g>
</g>
<g>
</g>
<g>
</g>
<g>
</g>
<g>
</g>
<g>
</g>
<g>
</g>
<g>
</g>
<g>
</g>
<g>
</g>
<g>
</g>
<g>
</g>
<g>
</g>
<g>
</g>
<g>
</g>
</svg>
