<?xml version="1.0" encoding="utf-8"?>
<!-- Generator: Adobe Illustrator 19.0.0, SVG Export Plug-In . SVG Version: 6.00 Build 0)  -->
<svg version="1.1" id="Layer_1" xmlns="http://www.w3.org/2000/svg" xmlns:xlink="http://www.w3.org/1999/xlink" x="0px" y="0px"
	 viewBox="0 0 30 30" style="enable-background:new 0 0 30 30;" xml:space="preserve">
<style type="text/css">
	.st0{fill:#231F20;}
</style>
<g>
	<g>
		<path class="st0" d="M18,23.5c-0.1,0-0.3,0-0.4-0.1l-8-8c-0.2-0.2-0.2-0.5,0-0.7l8-8c0.2-0.2,0.5-0.2,0.7,0s0.2,0.5,0,0.7L10.7,15
			l7.6,7.6c0.2,0.2,0.2,0.5,0,0.7C18.3,23.5,18.1,23.5,18,23.5z"/>
	</g>
	<g>
		<path class="st0" d="M15,29.5C7,29.5,0.5,23,0.5,15S7,0.5,15,0.5S29.5,7,29.5,15S23,29.5,15,29.5z M15,1.5C7.6,1.5,1.5,7.6,1.5,15
			S7.6,28.5,15,28.5S28.5,22.4,28.5,15S22.4,1.5,15,1.5z"/>
	</g>
</g>
</svg>
