<?xml version="1.0" encoding="utf-8"?>
<!-- Generator: Adobe Illustrator 19.0.0, SVG Export Plug-In . SVG Version: 6.00 Build 0)  -->
<svg version="1.1" id="Layer_1" xmlns="http://www.w3.org/2000/svg" xmlns:xlink="http://www.w3.org/1999/xlink" x="0px" y="0px"
	 viewBox="0 0 30 30" style="enable-background:new 0 0 30 30;" xml:space="preserve">
<style type="text/css">
	.st0{fill:#231F20;}
</style>
<g>
	<g>
		<path class="st0" d="M13.9,23.4c-0.7,0-1.4-0.3-1.9-0.8L5,15.7c-0.7-0.7-0.7-1.8,0-2.5l6.9-6.9c1-1,2.8-1,3.8,0
			c1.1,1.1,1.1,2.8,0,3.8l-1.3,1.4h8.1c1.6,0,2.9,1.3,3,3c0,0,0,0,0,0c0,0,0,0,0,0s0,0,0,0c0,0,0,0,0,0c0,1.6-1.4,2.9-3,2.9h-8.1
			l1.3,1.3c1.1,1.1,1.1,2.8,0,3.8C15.3,23.1,14.6,23.4,13.9,23.4z M13.9,6.5c-0.5,0-0.9,0.2-1.2,0.5l-6.9,6.9
			c-0.3,0.3-0.3,0.8,0,1.1l6.9,6.9c0.6,0.6,1.8,0.6,2.4,0c0.7-0.7,0.7-1.8,0-2.4l-2.2-2.1c-0.1-0.1-0.2-0.4-0.1-0.5
			c0.1-0.2,0.3-0.3,0.5-0.3h9.3c1.1,0,2-0.9,2-2c0-1.1-0.9-2-2-2h-9.3c-0.2,0-0.4-0.1-0.5-0.3s0-0.4,0.1-0.5l2.2-2.2
			c0.7-0.7,0.7-1.8,0-2.4C14.7,6.7,14.3,6.5,13.9,6.5z"/>
	</g>
	<g>
		<path class="st0" d="M15,29.5C7,29.5,0.5,23,0.5,15S7,0.5,15,0.5S29.5,7,29.5,15S23,29.5,15,29.5z M15,1.5C7.6,1.5,1.5,7.6,1.5,15
			S7.6,28.5,15,28.5S28.5,22.4,28.5,15S22.4,1.5,15,1.5z"/>
	</g>
</g>
</svg>
