<?xml version="1.0" encoding="utf-8"?>
<!-- Generator: Adobe Illustrator 19.0.0, SVG Export Plug-In . SVG Version: 6.00 Build 0)  -->
<svg version="1.1" id="Layer_1" xmlns="http://www.w3.org/2000/svg" xmlns:xlink="http://www.w3.org/1999/xlink" x="0px" y="0px"
	 viewBox="0 0 30 30" style="enable-background:new 0 0 30 30;" xml:space="preserve">
<style type="text/css">
	.st0{fill:#231F20;}
</style>
<g>
	<g>
		<path class="st0" d="M13.5,28.5c-0.1,0-0.3-0.1-0.4-0.1l-13-13c-0.2-0.2-0.2-0.5,0-0.7l13-13c0.1-0.1,0.4-0.2,0.5-0.1
			C13.9,1.6,14,1.8,14,2v7.5h15.5c0.3,0,0.5,0.2,0.5,0.5v10c0,0.3-0.2,0.5-0.5,0.5H14V28c0,0.2-0.1,0.4-0.3,0.5
			C13.6,28.5,13.6,28.5,13.5,28.5z M1.2,15L13,26.8V20c0-0.3,0.2-0.5,0.5-0.5H29v-9H13.5c-0.3,0-0.5-0.2-0.5-0.5V3.2L1.2,15z"/>
	</g>
</g>
</svg>
