<?xml version="1.0" encoding="utf-8"?>
<!-- Generator: Adobe Illustrator 19.0.0, SVG Export Plug-In . SVG Version: 6.00 Build 0)  -->
<svg version="1.1" id="Layer_1" xmlns="http://www.w3.org/2000/svg" xmlns:xlink="http://www.w3.org/1999/xlink" x="0px" y="0px"
	 viewBox="0 0 30 30" style="enable-background:new 0 0 30 30;" xml:space="preserve">
<style type="text/css">
	.st0{fill:#231F20;}
</style>
<g>
	<g>
		<path class="st0" d="M20.5,23.6c-0.8,0-1.6-0.3-2.2-0.9L13.5,18v1.3c0,1.7-1.3,3-3,3s-3-1.3-3-3v-10c0-1,0.8-1.8,1.8-1.8h10
			c1.7,0,3,1.3,3,3s-1.3,3-3,3H18l4.8,4.8c0.6,0.6,0.9,1.4,0.9,2.2s-0.3,1.6-0.9,2.2C22.1,23.3,21.3,23.6,20.5,23.6z M13,16.3
			c0.1,0,0.3,0.1,0.4,0.1L19,22c0.8,0.8,2.2,0.8,3,0c0.4-0.4,0.6-0.9,0.6-1.5S22.4,19.4,22,19l-5.6-5.6c-0.1-0.1-0.2-0.4-0.1-0.5
			c0.1-0.2,0.3-0.3,0.5-0.3h2.5c1.1,0,2-0.9,2-2s-0.9-2-2-2h-10c-0.4,0-0.8,0.3-0.8,0.8v10c0,1.1,0.9,2,2,2s2-0.9,2-2v-2.5
			c0-0.2,0.1-0.4,0.3-0.5C12.9,16.3,12.9,16.3,13,16.3z"/>
	</g>
	<g>
		<path class="st0" d="M15,29.5C7,29.5,0.5,23,0.5,15S7,0.5,15,0.5S29.5,7,29.5,15S23,29.5,15,29.5z M15,1.5C7.6,1.5,1.5,7.6,1.5,15
			S7.6,28.5,15,28.5S28.5,22.4,28.5,15S22.4,1.5,15,1.5z"/>
	</g>
</g>
</svg>
