<?xml version="1.0" encoding="utf-8"?>
<!-- Generator: Adobe Illustrator 19.0.0, SVG Export Plug-In . SVG Version: 6.00 Build 0)  -->
<svg version="1.1" id="Layer_1" xmlns="http://www.w3.org/2000/svg" xmlns:xlink="http://www.w3.org/1999/xlink" x="0px" y="0px"
	 viewBox="0 0 30 30" style="enable-background:new 0 0 30 30;" xml:space="preserve">
<style type="text/css">
	.st0{fill:#231F20;}
</style>
<g>
	<g>
		<circle class="st0" cx="4" cy="26" r="0.5"/>
	</g>
	<g>
		<circle class="st0" cx="6" cy="26" r="0.5"/>
	</g>
	<g>
		<circle class="st0" cx="6" cy="24" r="0.5"/>
	</g>
	<g>
		<circle class="st0" cx="8" cy="24" r="0.5"/>
	</g>
	<g>
		<circle class="st0" cx="8" cy="22" r="0.5"/>
	</g>
	<g>
		<circle class="st0" cx="8" cy="20" r="0.5"/>
	</g>
	<g>
		<circle class="st0" cx="8" cy="18" r="0.5"/>
	</g>
	<g>
		<circle class="st0" cx="8" cy="16" r="0.5"/>
	</g>
	<g>
		<circle class="st0" cx="8" cy="14" r="0.5"/>
	</g>
	<g>
		<circle class="st0" cx="8" cy="12" r="0.5"/>
	</g>
	<g>
		<circle class="st0" cx="6" cy="22" r="0.5"/>
	</g>
	<g>
		<circle class="st0" cx="6" cy="20" r="0.5"/>
	</g>
	<g>
		<circle class="st0" cx="6" cy="18" r="0.5"/>
	</g>
	<g>
		<circle class="st0" cx="6" cy="16" r="0.5"/>
	</g>
	<g>
		<circle class="st0" cx="6" cy="14" r="0.5"/>
	</g>
	<g>
		<circle class="st0" cx="6" cy="12" r="0.5"/>
	</g>
	<g>
		<circle class="st0" cx="6" cy="10" r="0.5"/>
	</g>
	<g>
		<circle class="st0" cx="8" cy="26" r="0.5"/>
	</g>
	<g>
		<circle class="st0" cx="10" cy="26" r="0.5"/>
	</g>
	<g>
		<circle class="st0" cx="10" cy="24" r="0.5"/>
	</g>
	<g>
		<circle class="st0" cx="10" cy="22" r="0.5"/>
	</g>
	<g>
		<circle class="st0" cx="10" cy="20" r="0.5"/>
	</g>
	<g>
		<circle class="st0" cx="10" cy="18" r="0.5"/>
	</g>
	<g>
		<circle class="st0" cx="10" cy="16" r="0.5"/>
	</g>
	<g>
		<circle class="st0" cx="10" cy="14" r="0.5"/>
	</g>
	<g>
		<circle class="st0" cx="12" cy="26" r="0.5"/>
	</g>
	<g>
		<circle class="st0" cx="12" cy="24" r="0.5"/>
	</g>
	<g>
		<circle class="st0" cx="12" cy="22" r="0.5"/>
	</g>
	<g>
		<circle class="st0" cx="12" cy="20" r="0.5"/>
	</g>
	<g>
		<circle class="st0" cx="12" cy="18" r="0.5"/>
	</g>
	<g>
		<circle class="st0" cx="12" cy="16" r="0.5"/>
	</g>
	<g>
		<circle class="st0" cx="14" cy="26" r="0.5"/>
	</g>
	<g>
		<circle class="st0" cx="14" cy="24" r="0.5"/>
	</g>
	<g>
		<circle class="st0" cx="14" cy="22" r="0.5"/>
	</g>
	<g>
		<circle class="st0" cx="14" cy="20" r="0.5"/>
	</g>
	<g>
		<circle class="st0" cx="14" cy="18" r="0.5"/>
	</g>
	<g>
		<circle class="st0" cx="16" cy="16" r="0.5"/>
	</g>
	<g>
		<circle class="st0" cx="18" cy="14" r="0.5"/>
	</g>
	<g>
		<circle class="st0" cx="20" cy="12" r="0.5"/>
	</g>
	<g>
		<circle class="st0" cx="22" cy="10" r="0.5"/>
	</g>
	<g>
		<circle class="st0" cx="24" cy="8" r="0.5"/>
	</g>
	<g>
		<circle class="st0" cx="26" cy="6" r="0.5"/>
	</g>
	<g>
		<circle class="st0" cx="14" cy="14" r="0.5"/>
	</g>
	<g>
		<circle class="st0" cx="16" cy="12" r="0.5"/>
	</g>
	<g>
		<circle class="st0" cx="18" cy="10" r="0.5"/>
	</g>
	<g>
		<circle class="st0" cx="20" cy="8" r="0.5"/>
	</g>
	<g>
		<circle class="st0" cx="22" cy="6" r="0.5"/>
	</g>
	<g>
		<circle class="st0" cx="24" cy="4" r="0.5"/>
	</g>
	<g>
		<circle class="st0" cx="14" cy="16" r="0.5"/>
	</g>
	<g>
		<circle class="st0" cx="16" cy="14" r="0.5"/>
	</g>
	<g>
		<circle class="st0" cx="18" cy="12" r="0.5"/>
	</g>
	<g>
		<circle class="st0" cx="24" cy="6" r="0.5"/>
	</g>
	<g>
		<circle class="st0" cx="22" cy="8" r="0.5"/>
	</g>
	<g>
		<circle class="st0" cx="20" cy="10" r="0.5"/>
	</g>
	<g>
		<circle class="st0" cx="16" cy="26" r="0.5"/>
	</g>
	<g>
		<circle class="st0" cx="16" cy="24" r="0.5"/>
	</g>
	<g>
		<circle class="st0" cx="16" cy="22" r="0.5"/>
	</g>
	<g>
		<circle class="st0" cx="16" cy="20" r="0.5"/>
	</g>
	<g>
		<circle class="st0" cx="18" cy="26" r="0.5"/>
	</g>
	<g>
		<circle class="st0" cx="18" cy="24" r="0.5"/>
	</g>
	<g>
		<circle class="st0" cx="18" cy="22" r="0.5"/>
	</g>
	<g>
		<circle class="st0" cx="20" cy="26" r="0.5"/>
	</g>
	<g>
		<circle class="st0" cx="20" cy="24" r="0.5"/>
	</g>
	<g>
		<circle class="st0" cx="22" cy="26" r="0.5"/>
	</g>
	<g>
		<circle class="st0" cx="4" cy="24" r="0.5"/>
	</g>
	<g>
		<circle class="st0" cx="4" cy="22" r="0.5"/>
	</g>
	<g>
		<circle class="st0" cx="4" cy="20" r="0.5"/>
	</g>
	<g>
		<circle class="st0" cx="4" cy="18" r="0.5"/>
	</g>
	<g>
		<circle class="st0" cx="4" cy="16" r="0.5"/>
	</g>
	<g>
		<circle class="st0" cx="4" cy="14" r="0.5"/>
	</g>
	<g>
		<circle class="st0" cx="4" cy="12" r="0.5"/>
	</g>
	<g>
		<circle class="st0" cx="4" cy="10" r="0.5"/>
	</g>
	<g>
		<circle class="st0" cx="4" cy="8" r="0.5"/>
	</g>
</g>
</svg>
