<?xml version="1.0" encoding="iso-8859-1"?>
<!-- Generator: Adobe Illustrator 19.0.0, SVG Export Plug-In . SVG Version: 6.00 Build 0)  -->
<svg version="1.1" id="Layer_1" xmlns="http://www.w3.org/2000/svg" xmlns:xlink="http://www.w3.org/1999/xlink" x="0px" y="0px"
	 viewBox="0 0 30 30" style="enable-background:new 0 0 30 30;" xml:space="preserve">
<g>
	<g>
		<path d="M29.973,14.868c-0.005-0.018-0.004-0.038-0.011-0.056c-0.026-0.065-0.065-0.122-0.115-0.17l-3.994-3.994
			c-0.195-0.195-0.512-0.195-0.707,0c-0.195,0.195-0.195,0.512,0,0.707l3.145,3.145h-8.316c-0.259-3.903-3.507-7-7.475-7
			s-7.216,3.097-7.475,7H0.5C0.224,14.5,0,14.724,0,15s0.224,0.5,0.5,0.5h4.525c0.259,3.903,3.507,7,7.475,7s7.216-3.097,7.475-7
			h8.318l-3.147,3.147c-0.195,0.195-0.195,0.512,0,0.707c0.098,0.097,0.226,0.146,0.354,0.146s0.256-0.049,0.353-0.145l4-4
			c0.014-0.014,0.019-0.032,0.031-0.046c0.029-0.036,0.059-0.073,0.077-0.117c0.018-0.043,0.022-0.089,0.027-0.134
			C29.991,15.038,30,15.02,30,15C30,14.953,29.985,14.911,29.973,14.868z M12.5,21.5c-3.415,0-6.218-2.649-6.475-6H16.5
			c0.276,0,0.5-0.224,0.5-0.5s-0.224-0.5-0.5-0.5H6.025c0.257-3.351,3.059-6,6.475-6c3.584,0,6.5,2.916,6.5,6.5
			S16.084,21.5,12.5,21.5z"/>
	</g>
</g>
</svg>
