<?xml version="1.0" encoding="iso-8859-1"?>
<!-- Generator: Adobe Illustrator 19.0.0, SVG Export Plug-In . SVG Version: 6.00 Build 0)  -->
<svg version="1.1" id="Layer_1" xmlns="http://www.w3.org/2000/svg" xmlns:xlink="http://www.w3.org/1999/xlink" x="0px" y="0px"
	 viewBox="0 0 30 30" style="enable-background:new 0 0 30 30;" xml:space="preserve">
<g>
	<g>
		<path d="M0.5,9.999h27.793l-5.147,5.147c-0.195,0.195-0.195,0.512,0,0.707c0.098,0.097,0.226,0.146,0.354,0.146
			s0.256-0.049,0.353-0.145l6-6c0.014-0.014,0.019-0.032,0.031-0.046c0.029-0.036,0.059-0.073,0.077-0.117
			c0.018-0.043,0.022-0.089,0.027-0.134C29.991,9.537,30,9.52,30,9.499c0-0.047-0.015-0.089-0.027-0.132
			c-0.005-0.018-0.004-0.038-0.011-0.056c-0.026-0.065-0.065-0.122-0.115-0.17l-5.994-5.994c-0.195-0.195-0.512-0.195-0.707,0
			s-0.195,0.512,0,0.707l5.145,5.145H0.5c-0.276,0-0.5,0.224-0.5,0.5S0.224,9.999,0.5,9.999z M29.5,19.999H1.707l5.146-5.146
			c0.195-0.195,0.195-0.512,0-0.707s-0.512-0.195-0.707,0l-6,6c-0.004,0.004-0.005,0.01-0.01,0.014
			c-0.04,0.043-0.075,0.092-0.098,0.147c-0.051,0.123-0.051,0.261,0,0.384c0.014,0.033,0.038,0.058,0.058,0.087
			c0.017,0.025,0.027,0.052,0.049,0.074l6,6c0.098,0.097,0.226,0.146,0.354,0.146s0.256-0.049,0.353-0.147
			c0.195-0.195,0.195-0.512,0-0.707l-5.146-5.146H29.5c0.276,0,0.5-0.224,0.5-0.5S29.776,19.999,29.5,19.999z"/>
	</g>
</g>
</svg>
