<?xml version="1.0" encoding="iso-8859-1"?>
<!-- Generator: Adobe Illustrator 19.0.0, SVG Export Plug-In . SVG Version: 6.00 Build 0)  -->
<svg version="1.1" id="Layer_1" xmlns="http://www.w3.org/2000/svg" xmlns:xlink="http://www.w3.org/1999/xlink" x="0px" y="0px"
	 viewBox="0 0 30 30" style="enable-background:new 0 0 30 30;" xml:space="preserve">
<g>
	<g>
		<path d="M26.501,12.91c-0.276,0-0.5,0.224-0.5,0.5v11.118c0,1.087-0.887,1.971-1.977,1.971H2.977C1.887,26.499,1,25.614,1,24.528
			V8.469c0-1.087,0.887-1.971,1.977-1.971h16.095c0.276,0,0.5-0.224,0.5-0.5s-0.224-0.5-0.5-0.5H2.977C1.335,5.498,0,6.831,0,8.469
			v16.059c0,1.638,1.335,2.971,2.977,2.971h21.046c1.642,0,2.977-1.333,2.978-2.971V13.41C27.001,13.134,26.777,12.91,26.501,12.91z
			 M29.973,6.867c-0.005-0.018-0.004-0.038-0.011-0.056c-0.026-0.065-0.065-0.122-0.115-0.17l-3.994-3.994
			c-0.195-0.195-0.512-0.195-0.707,0s-0.195,0.512,0,0.707l3.145,3.145h-1.253c-7.74,0-14.038,6.505-14.038,14.5
			c0,0.276,0.224,0.5,0.5,0.5s0.5-0.224,0.5-0.5c0-7.444,5.849-13.5,13.038-13.5h1.255l-3.147,3.147
			c-0.195,0.195-0.195,0.512,0,0.707c0.098,0.097,0.226,0.146,0.354,0.146s0.256-0.049,0.353-0.145l4-4
			c0.014-0.014,0.019-0.032,0.031-0.046c0.029-0.036,0.059-0.073,0.077-0.117c0.018-0.043,0.022-0.089,0.027-0.134
			C29.991,7.037,30,7.02,30,6.999C30,6.952,29.985,6.91,29.973,6.867z"/>
	</g>
</g>
</svg>
