<?xml version="1.0" encoding="iso-8859-1"?>
<!-- Generator: Adobe Illustrator 19.0.0, SVG Export Plug-In . SVG Version: 6.00 Build 0)  -->
<svg version="1.1" id="Layer_1" xmlns="http://www.w3.org/2000/svg" xmlns:xlink="http://www.w3.org/1999/xlink" x="0px" y="0px"
	 viewBox="0 0 30 30" style="enable-background:new 0 0 30 30;" xml:space="preserve">
<g>
	<g>
		<path d="M29.921,20.232c-0.148-0.234-0.457-0.302-0.689-0.154l-3.013,1.913c0.828-1.793,1.26-3.743,1.26-5.73
			c0-5.801-3.68-11.002-9.159-12.941c-0.26-0.092-0.545,0.044-0.639,0.304c-0.091,0.26,0.045,0.546,0.305,0.638
			c5.08,1.799,8.493,6.621,8.493,11.999c0,2.03-0.492,4.015-1.42,5.813l-1.075-4.198c-0.068-0.267-0.337-0.43-0.608-0.36
			c-0.267,0.068-0.428,0.34-0.36,0.608l1.362,5.319c0.007,0.115,0.052,0.221,0.133,0.308c0.005,0.006,0.012,0.011,0.017,0.017
			c0.023,0.022,0.041,0.049,0.069,0.067c0.014,0.009,0.03,0.006,0.044,0.013c0.023,0.013,0.039,0.035,0.064,0.045
			c0.06,0.023,0.122,0.035,0.185,0.035c0.093,0,0.186-0.027,0.266-0.079l4.61-2.927C30,20.774,30.069,20.464,29.921,20.232z
			 M13.024,3.559l-2.857,2.569c-0.206,0.186-0.223,0.501-0.038,0.707C10.228,6.944,10.364,7,10.501,7
			c0.119,0,0.238-0.042,0.334-0.129l3.722-3.345c0.189-0.066,0.303-0.239,0.312-0.447c0.001-0.022-0.008-0.042-0.01-0.063
			c0-0.02,0.009-0.039,0.007-0.059c-0.003-0.024-0.019-0.043-0.026-0.067c-0.002-0.006-0.004-0.011-0.006-0.016
			c-0.04-0.125-0.116-0.236-0.235-0.297L9.73,0.055C9.488-0.071,9.184,0.023,9.056,0.269C8.929,0.514,9.025,0.816,9.271,0.943
			l3.175,1.644C5.476,3.242,0.001,9.122,0.001,16.261c0,0.815,0.078,1.634,0.238,2.506c0.045,0.241,0.255,0.409,0.491,0.409
			c0.031,0,0.061-0.003,0.093-0.008c0.271-0.051,0.451-0.312,0.401-0.583c-0.151-0.81-0.223-1.571-0.223-2.324
			C1.001,9.478,6.334,3.933,13.024,3.559z M22.01,25.939C19.702,27.913,16.765,29,13.74,29c-4.354,0-8.333-2.2-10.672-5.81
			l4.289,1.289C7.622,24.56,7.9,24.41,7.979,24.144c0.08-0.264-0.07-0.543-0.335-0.622L2.2,21.886c-0.1-0.05-0.21-0.066-0.321-0.043
			c-0.008,0.001-0.015,0.005-0.023,0.007c-0.035,0.009-0.072,0.013-0.105,0.03c-0.017,0.009-0.027,0.024-0.042,0.034
			c-0.015,0.009-0.034,0.01-0.049,0.021c-0.019,0.014-0.028,0.037-0.045,0.054c-0.011,0.012-0.021,0.024-0.031,0.037
			c-0.073,0.09-0.125,0.195-0.124,0.312l0.042,5.166C1.503,27.779,1.727,28,2.001,28c0.001,0,0.003,0,0.003,0
			c0.276-0.002,0.498-0.228,0.496-0.504l-0.027-3.391C5.023,27.779,9.195,30,13.74,30c3.263,0,6.431-1.172,8.92-3.301
			c0.21-0.18,0.235-0.495,0.055-0.705C22.536,25.785,22.221,25.759,22.01,25.939z M8.001,16c0,3.309,2.691,6,6,6s6-2.691,6-6
			s-2.691-6-6-6S8.001,12.691,8.001,16z M19.001,16c0,2.757-2.243,5-5,5s-5-2.243-5-5s2.243-5,5-5S19.001,13.243,19.001,16z"/>
	</g>
</g>
</svg>
