<?xml version="1.0" encoding="iso-8859-1"?>
<!-- Generator: Adobe Illustrator 19.0.0, SVG Export Plug-In . SVG Version: 6.00 Build 0)  -->
<svg version="1.1" id="Layer_1" xmlns="http://www.w3.org/2000/svg" xmlns:xlink="http://www.w3.org/1999/xlink" x="0px" y="0px"
	 viewBox="0 0 30 30" style="enable-background:new 0 0 30 30;" xml:space="preserve">
<g>
	<g>
		<path d="M29.465,12.342c-0.008-0.024-0.009-0.05-0.021-0.073l-5.021-9.635C23.898,1.626,22.863,1,21.722,1H8.281
			C7.141,1,6.105,1.627,5.58,2.635l-5.021,9.634c-0.012,0.022-0.012,0.047-0.02,0.07c-0.338,0.493-0.538,1.088-0.538,1.73v11.863
			C0.001,27.624,1.377,29,3.069,29h23.863C28.624,29,30,27.624,30,25.932V14.069C30,13.429,29.801,12.835,29.465,12.342z
			 M6.467,3.097C6.819,2.42,7.514,2,8.281,2h13.441c0.766,0,1.461,0.421,1.814,1.097l4.179,8.018
			c-0.251-0.067-0.51-0.114-0.783-0.114H3.069c-0.271,0-0.53,0.047-0.78,0.113L6.467,3.097z M28.999,25.931
			c0,1.14-0.927,2.068-2.068,2.068H3.068C1.927,27.999,1,27.072,1,25.931V14.068C1,12.928,1.927,12,3.068,12h23.863
			c1.14,0,2.068,0.927,2.068,2.068V25.931z M9.565,19.357c0.232-1.24,1.04-2.13,1.05-2.14c0.188-0.202,0.177-0.519-0.024-0.707
			c-0.199-0.188-0.515-0.179-0.705,0.022c-0.05,0.052-1.061,1.147-1.323,2.731c-1.107-0.603-1.704-1.646-1.711-1.659
			c-0.133-0.239-0.437-0.331-0.679-0.195c-0.241,0.133-0.33,0.435-0.197,0.677c0.035,0.064,0.764,1.365,2.188,2.103
			c-0.917,0.867-2.092,1.111-2.106,1.113c-0.271,0.053-0.448,0.314-0.396,0.585c0.046,0.239,0.255,0.406,0.49,0.406
			c0.031,0,0.062-0.002,0.093-0.008c0.071-0.013,1.533-0.305,2.676-1.433c0.541,1.14,0.409,2.334,0.408,2.348
			c-0.033,0.274,0.161,0.524,0.434,0.558c0.021,0.003,0.042,0.004,0.063,0.004c0.248,0,0.463-0.183,0.495-0.437
			c0.01-0.071,0.185-1.551-0.534-2.986c1.251-0.163,2.346,0.332,2.359,0.337c0.068,0.032,0.14,0.047,0.211,0.047
			c0.188,0,0.369-0.107,0.453-0.287c0.117-0.249,0.011-0.546-0.238-0.664C12.505,19.741,11.151,19.117,9.565,19.357z M9,14
			c-3.309,0-6,2.691-6,6s2.691,6,6,6s6-2.691,6-6S12.309,14,9,14z M9,25c-2.757,0-5-2.243-5-5s2.243-5,5-5s5,2.243,5,5
			S11.757,25,9,25z M25.134,20h-4.268C19.837,20,19,20.837,19,21.866V24.5c0,0.276,0.224,0.5,0.5,0.5h7c0.276,0,0.5-0.224,0.5-0.5
			v-2.634C27,20.837,26.163,20,25.134,20z M26,24h-6v-2.134C20,21.389,20.388,21,20.866,21h4.268C25.611,21,26,21.388,26,21.866V24z
			 M25.134,14h-4.268C19.837,14,19,14.837,19,15.866V18.5c0,0.276,0.224,0.5,0.5,0.5h7c0.276,0,0.5-0.224,0.5-0.5v-2.634
			C27,14.837,26.163,14,25.134,14z M26,18h-6v-2.134C20,15.389,20.388,15,20.866,15h4.268C25.611,15,26,15.388,26,15.866V18z"/>
	</g>
</g>
</svg>
