<?xml version="1.0" encoding="iso-8859-1"?>
<!-- Generator: Adobe Illustrator 19.0.0, SVG Export Plug-In . SVG Version: 6.00 Build 0)  -->
<svg version="1.1" id="Layer_1" xmlns="http://www.w3.org/2000/svg" xmlns:xlink="http://www.w3.org/1999/xlink" x="0px" y="0px"
	 viewBox="0 0 30 30" style="enable-background:new 0 0 30 30;" xml:space="preserve">
<g>
	<g>
		<path d="M16.501,16.001h-0.5v-3.5c0-0.215-0.138-0.406-0.342-0.474c-0.202-0.068-0.428,0.002-0.559,0.174l-3,4
			c-0.113,0.151-0.132,0.354-0.047,0.523C12.138,16.893,12.311,17,12.5,17H15v1.5c0,0.276,0.224,0.5,0.5,0.5s0.5-0.224,0.5-0.499
			v-1.5h0.501c0.276,0,0.5-0.224,0.5-0.5S16.777,16.001,16.501,16.001z M15,16h-1.5l1.5-2V16z M20.854,5.146
			C20.76,5.053,20.633,5,20.5,5c0,0,0,0-0.001,0L5.508,5.019c-0.275,0-0.499,0.224-0.499,0.5L5,24.5
			c0,0.132,0.052,0.261,0.146,0.354S5.367,25,5.5,25h19c0.276,0,0.5-0.224,0.5-0.5v-15c0-0.133-0.052-0.26-0.146-0.354L20.854,5.146
			z M24,24H6L6.009,6.018L20.293,6L24,9.707V24z M29.5,13c0.276,0,0.5-0.224,0.5-0.5S29.776,12,29.5,12H27V8h2.5
			C29.776,8,30,7.776,30,7.5S29.776,7,29.5,7H27V5.316C27,4.039,25.961,3,24.685,3H23V0.5C23,0.224,22.776,0,22.5,0S22,0.224,22,0.5
			V3h-4V0.5C18,0.224,17.776,0,17.5,0S17,0.224,17,0.5V3h-4V0.5C13,0.224,12.776,0,12.5,0S12,0.224,12,0.5V3H8V0.5
			C8,0.224,7.776,0,7.5,0S7,0.224,7,0.5V3H5.316C4.04,3,3.001,4.039,3.001,5.316V7H0.5C0.224,7,0,7.224,0,7.5S0.224,8,0.5,8h2.501v4
			H0.5C0.224,12,0,12.224,0,12.5S0.224,13,0.5,13h2.501v4H0.5C0.224,17,0,17.224,0,17.5S0.224,18,0.5,18h2.501v4H0.5
			C0.224,22,0,22.224,0,22.5S0.224,23,0.5,23h2.501v1.684C3.001,25.961,4.04,27,5.316,27H7v2.5C7,29.776,7.224,30,7.5,30
			S8,29.776,8,29.5V27h4v2.5c0,0.276,0.224,0.5,0.5,0.5s0.5-0.224,0.5-0.5V27h4v2.5c0,0.276,0.224,0.5,0.5,0.5s0.5-0.224,0.5-0.5V27
			h4v2.5c0,0.276,0.224,0.5,0.5,0.5s0.5-0.224,0.5-0.5V27h1.685C25.961,27,27,25.961,27,24.684V23h2.5c0.276,0,0.5-0.224,0.5-0.5
			S29.776,22,29.5,22H27v-4h2.5c0.276,0,0.5-0.224,0.5-0.5S29.776,17,29.5,17H27v-4H29.5z M25.999,24.684
			c0,0.726-0.589,1.316-1.315,1.316H5.315C4.59,26,4,25.41,4,24.684V5.316C4,4.59,4.589,4,5.315,4h19.369
			c0.725,0,1.315,0.59,1.315,1.316V24.684z"/>
	</g>
</g>
</svg>
