<?xml version="1.0" encoding="iso-8859-1"?>
<!-- Generator: Adobe Illustrator 19.0.0, SVG Export Plug-In . SVG Version: 6.00 Build 0)  -->
<svg version="1.1" id="Layer_1" xmlns="http://www.w3.org/2000/svg" xmlns:xlink="http://www.w3.org/1999/xlink" x="0px" y="0px"
	 viewBox="0 0 30 30" style="enable-background:new 0 0 30 30;" xml:space="preserve">
<g>
	<g>
		<path d="M24,12c2.757,0,5-2.243,5-5h0.5C29.776,7,30,6.776,30,6.5C30,3.468,27.532,1,24.5,1C24.224,1,24,1.224,24,1.5V2
			c-2.757,0-5,2.243-5,5S21.243,12,24,12z M25,2.027c2.083,0.232,3.741,1.89,3.972,3.973H25V2.027z M24,3v3.5
			C24,6.776,24.224,7,24.5,7H28c0,2.206-1.794,4-4,4s-4-1.794-4-4S21.794,3,24,3z M29.451,19.785l-3.097-6.501
			c-0.119-0.249-0.418-0.356-0.666-0.236c-0.249,0.118-0.355,0.417-0.236,0.666l2.537,5.326C27.859,19.018,27.727,19,27.59,19H2.41
			c-0.137,0-0.269,0.018-0.4,0.04L7.311,7.884c0.014-0.02,0.026-0.042,0.037-0.065C7.586,7.314,8.073,7,8.62,7h8.88
			C17.776,7,18,6.776,18,6.5S17.776,6,17.5,6H8.62C7.721,6,6.886,6.52,6.475,7.329C6.46,7.35,6.447,7.374,6.436,7.397L0.549,19.785
			c-0.025,0.052-0.035,0.107-0.041,0.162C0.194,20.354,0,20.857,0,21.41v5.18C0,27.919,1.081,29,2.41,29h25.18
			c1.329,0,2.41-1.081,2.41-2.41v-5.18c0-0.553-0.194-1.056-0.508-1.463C29.486,19.892,29.476,19.837,29.451,19.785z M29,26.59
			c0,0.777-0.633,1.41-1.41,1.41H2.41C1.633,28,1,27.367,1,26.59v-5.18C1,20.633,1.633,20,2.41,20h25.18
			c0.777,0,1.41,0.633,1.41,1.41V26.59z M8,24c0.552,0,1-0.448,1-1c0-0.552-0.448-1-1-1s-1,0.448-1,1C7,23.552,7.448,24,8,24z
			 M26.5,25h-23C3.224,25,3,25.224,3,25.5S3.224,26,3.5,26h23c0.276,0,0.5-0.224,0.5-0.5S26.776,25,26.5,25z M4,24
			c0.552,0,1-0.448,1-1c0-0.552-0.448-1-1-1s-1,0.448-1,1C3,23.552,3.448,24,4,24z"/>
	</g>
</g>
</svg>
