<?xml version="1.0" encoding="iso-8859-1"?>
<!-- Generator: Adobe Illustrator 19.0.0, SVG Export Plug-In . SVG Version: 6.00 Build 0)  -->
<svg version="1.1" id="Layer_1" xmlns="http://www.w3.org/2000/svg" xmlns:xlink="http://www.w3.org/1999/xlink" x="0px" y="0px"
	 viewBox="0 0 30 30" style="enable-background:new 0 0 30 30;" xml:space="preserve">
<g>
	<g>
		<path d="M29.854,8.147l-8-8c-0.195-0.195-0.512-0.195-0.707,0L15.5,5.793l-0.646-0.646c-0.195-0.195-0.512-0.195-0.707,0
			l-7.758,7.757c-2.534,2.534-2.534,6.658,0,9.192L6.793,22.5l-6.647,6.647c-0.195,0.195-0.195,0.512,0,0.707
			C0.245,29.951,0.372,30,0.5,30s0.256-0.049,0.353-0.146L7.5,23.207l0.404,0.404c1.228,1.228,2.86,1.904,4.596,1.904
			c1.736,0,3.368-0.677,4.595-1.903l7.758-7.757C24.946,15.761,25,15.634,25,15.501s-0.052-0.26-0.146-0.354L24.207,14.5
			l5.646-5.646C30.049,8.659,30.049,8.342,29.854,8.147z M16.391,22.904c-1.039,1.039-2.42,1.611-3.889,1.611
			s-2.85-0.572-3.889-1.611l-1.516-1.515c-2.144-2.144-2.144-5.633,0-7.778L14.5,6.207l0.644,0.644
			c0.001,0.001,0.001,0.002,0.002,0.003l8,8c0.002,0.002,0.004,0.002,0.006,0.004l0.642,0.642L16.391,22.904z M23.5,13.793
			L16.208,6.5L21.5,1.207L28.794,8.5L23.5,13.793z M24.146,9.854C24.245,9.951,24.372,10,24.5,10s0.256-0.049,0.353-0.146l1-1
			c0.195-0.195,0.195-0.512,0-0.707l-1-1c-0.195-0.195-0.512-0.195-0.707,0l-1,1c-0.195,0.195-0.195,0.512,0,0.707L24.146,9.854z
			 M24.5,8.207L24.794,8.5L24.5,8.793L24.208,8.5L24.5,8.207z M21.146,4.146l-1.006,1.006c-0.093,0.094-0.146,0.222-0.146,0.355
			c0,0.133,0.053,0.261,0.148,0.354l1.006,0.994C21.247,6.952,21.373,7,21.5,7c0.128,0,0.256-0.049,0.353-0.147l1-1
			c0.195-0.195,0.195-0.512,0-0.707l-1-1C21.659,3.951,21.341,3.951,21.146,4.146z M21.794,5.5l-0.295,0.295l-0.295-0.291
			l0.297-0.297L21.794,5.5z"/>
	</g>
</g>
</svg>
