<?xml version="1.0" encoding="utf-8"?>
<!-- Generator: Adobe Illustrator 19.0.0, SVG Export Plug-In . SVG Version: 6.00 Build 0)  -->
<svg version="1.1" id="Layer_1" xmlns="http://www.w3.org/2000/svg" xmlns:xlink="http://www.w3.org/1999/xlink" x="0px" y="0px"
	 viewBox="0 0 30 30" style="enable-background:new 0 0 30 30;" xml:space="preserve">
<g>
	<g>
		<path d="M15.5,12.5c-0.1,0-0.2,0-0.3-0.1l-9-8C6,4.2,5.9,3.8,6.1,3.6c0.2-0.2,0.5-0.2,0.7,0l8.6,7.7l7.7-7.7
			c0.2-0.2,0.5-0.2,0.7,0s0.2,0.5,0,0.7l-8,8C15.8,12.4,15.6,12.5,15.5,12.5z"/>
	</g>
	<g>
		<path d="M6.5,8.5C6.2,8.5,6,8.2,6,8V4c0-0.3,0.2-0.5,0.5-0.5h4C10.8,3.5,11,3.7,11,4s-0.2,0.5-0.5,0.5H7V8C7,8.2,6.8,8.5,6.5,8.5z
			"/>
	</g>
	<g id="XMLID_38_">
		<g id="XMLID_39_">
			<path d="M4.6,26.5c-0.5,0-0.9-0.2-1.2-0.5l-2.9-3.6C0.2,22.2,0,21.8,0,21.3c0-0.5,0.2-0.9,0.5-1.2c4-3.8,8.8-5.7,14.5-5.6
				c5.6,0,10.7,2,14.5,5.6c0.3,0.3,0.5,0.8,0.5,1.2c0,0.5-0.2,0.9-0.5,1.2l-2.6,3.4c-0.7,0.7-1.8,0.7-2.4,0.1
				c-0.7-0.7-1.9-1.3-2.9-1.8l-0.7-0.3C20.3,23.7,20,23,20,22.3v-3.9c-1.8-0.6-3.4-0.8-5-0.9c-1.8,0-3.2,0.3-5,0.9v4.1
				c0,0.6-0.2,1.3-0.8,1.6l-0.6,0.3c-1,0.5-2,1-2.8,1.7C5.5,26.4,5.1,26.5,4.6,26.5z M14.8,15.5c-5.4,0-9.8,1.8-13.6,5.4
				C1.1,20.9,1,21.1,1,21.3c0,0.2,0.1,0.4,0.2,0.5l3,3.6c0.2,0.2,0.7,0.2,1,0c0.9-0.8,2-1.3,3-1.9l0.6-0.3C8.9,23.1,9,22.8,9,22.5
				V18c0-0.2,0.1-0.4,0.3-0.5c2-0.6,3.6-1,5.7-1l0,0c1.8,0,3.6,0.4,5.7,1c0.2,0.1,0.3,0.3,0.3,0.5v4.3c0,0.4,0.1,0.7,0.3,0.8
				l0.7,0.3c1.1,0.5,2.4,1.1,3.2,1.9c0.3,0.3,0.8,0.3,1,0l2.6-3.4c0.2-0.2,0.2-0.4,0.2-0.6c0-0.2-0.1-0.4-0.2-0.5
				c-3.6-3.4-8.5-5.3-13.8-5.3C14.9,15.5,14.9,15.5,14.8,15.5z"/>
		</g>
	</g>
</g>
</svg>
