<?xml version="1.0" encoding="iso-8859-1"?>
<!-- Generator: Adobe Illustrator 19.0.0, SVG Export Plug-In . SVG Version: 6.00 Build 0)  -->
<svg version="1.1" id="Layer_1" xmlns="http://www.w3.org/2000/svg" xmlns:xlink="http://www.w3.org/1999/xlink" x="0px" y="0px"
	 viewBox="0 0 24 24" style="enable-background:new 0 0 24 24;" xml:space="preserve">
<g>
	<g>
		<path d="M17,9.5h-2.5V9c0-0.276-0.224-0.5-0.5-0.5h-1.5v-2h1.119c0.27,0.587,0.996,1,1.881,1c1.122,0,2-0.659,2-1.5
			s-0.878-1.5-2-1.5c-0.886,0-1.612,0.413-1.881,1h-3.237C10.112,4.913,9.386,4.499,8.5,4.499c-0.249,0-0.495,0.034-0.728,0.1
			c-0.266,0.076-0.42,0.352-0.344,0.618c0.076,0.266,0.353,0.421,0.618,0.344C8.19,5.52,8.343,5.499,8.5,5.499c0.61,0,1,0.296,1,0.5
			c0,0.093-0.085,0.204-0.228,0.297C9.041,6.447,8.975,6.757,9.125,6.988c0.096,0.148,0.256,0.228,0.42,0.228
			c0.093,0,0.188-0.026,0.272-0.081c0.262-0.17,0.446-0.392,0.559-0.635H11.5v2.129C11.396,8.721,11.328,8.851,11.328,9
			c0,0.276,0.224,0.5,0.5,0.5H13.5V10v1.172c0,0.276,0.224,0.5,0.5,0.5s0.5-0.224,0.5-0.5V10.5H17c1.378,0,2.5,1.122,2.5,2.5v2.5h-1
			V14c0-0.827-0.673-1.5-1.5-1.5h-1.172c-0.276,0-0.5,0.224-0.5,0.5s0.224,0.5,0.5,0.5H17c0.276,0,0.5,0.224,0.5,0.5v2
			c0,0.276,0.224,0.5,0.5,0.5h2c0.276,0,0.5-0.224,0.5-0.5v-3C20.5,11.07,18.93,9.5,17,9.5z M15.5,5.5c0.61,0,1,0.296,1,0.5
			s-0.39,0.5-1,0.5s-1-0.296-1-0.5S14.89,5.5,15.5,5.5z M12,0.5C5.659,0.5,0.5,5.659,0.5,12S5.659,23.5,12,23.5S23.5,18.341,23.5,12
			S18.341,0.5,12,0.5z M12,22.5C6.21,22.5,1.5,17.79,1.5,12c0-2.715,1.044-5.185,2.742-7.05l4.55,4.55H5c-0.276,0-0.5,0.224-0.5,0.5
			v3c0,0.276,0.224,0.5,0.5,0.5h4.5V14c0,0.276,0.224,0.5,0.5,0.5h3.792l5.258,5.258C17.185,21.456,14.715,22.5,12,22.5z M9.5,10.5
			v2h-4v-2H9.5z M10.5,13.5V13v-1.792l2.292,2.292H10.5z M19.757,19.051l-5.401-5.401c-0.001-0.001-0.001-0.003-0.002-0.004l-4-4
			c-0.001-0.001-0.003-0.001-0.004-0.002L4.949,4.243C6.815,2.545,9.284,1.5,12,1.5c5.79,0,10.5,4.71,10.5,10.5
			C22.5,14.716,21.455,17.185,19.757,19.051z"/>
	</g>
</g>
</svg>
