<?xml version="1.0" encoding="iso-8859-1"?>
<!-- Generator: Adobe Illustrator 19.0.0, SVG Export Plug-In . SVG Version: 6.00 Build 0)  -->
<svg version="1.1" id="Layer_1" xmlns="http://www.w3.org/2000/svg" xmlns:xlink="http://www.w3.org/1999/xlink" x="0px" y="0px"
	 viewBox="0 0 30 30" style="enable-background:new 0 0 30 30;" xml:space="preserve">
<g>
	<g>
		<path d="M7.5,7.998c1.103,0,2-0.897,2-2v-3c0-1.103-0.897-2-2-2c-1.103,0-2,0.897-2,2v3C5.5,7.102,6.398,7.998,7.5,7.998z M16,26
			h-0.5v-5.5c0-0.202-0.122-0.385-0.309-0.462c-0.186-0.078-0.401-0.035-0.545,0.108l-1,1c-0.195,0.195-0.195,0.512,0,0.707
			s0.512,0.195,0.707,0l0.146-0.146V26H14c-0.276,0-0.5,0.224-0.5,0.5S13.724,27,14,27h2c0.276,0,0.5-0.224,0.5-0.5S16.276,26,16,26
			z M22.5,7.998c1.103,0,2-0.897,2-2v-3c0-1.103-0.897-2-2-2c-1.103,0-2,0.897-2,2v3C20.5,7.102,21.398,7.998,22.5,7.998z
			 M26.479,3.998H26c-0.276,0-0.5,0.224-0.5,0.5v1.5c0,1.654-1.346,3-3,3s-3-1.346-3-3v-1.5c0-0.276-0.224-0.5-0.5-0.5h-8
			c-0.276,0-0.5,0.224-0.5,0.5v1.5c0,1.654-1.346,3-3,3s-3-1.346-3-3v-1.5c0-0.276-0.224-0.5-0.5-0.5H3.521
			C1.855,3.998,0.5,5.37,0.5,7.053v18.892c0,1.685,1.355,3.056,3.021,3.056h22.957c1.666,0,3.021-1.371,3.021-3.056V7.053
			C29.5,5.368,28.146,3.998,26.479,3.998z M28.502,25.944C28.5,27.078,27.594,28,26.479,28H3.523c-1.114,0-2.021-0.922-2.021-2.056
			V10.997h27V25.944z M18,19c0.276,0,0.5-0.224,0.5-0.5V16h1c1.103,0,2-0.897,2-2c0-1.103-0.897-2-2-2H18
			c-0.276,0-0.5,0.224-0.5,0.5v6C17.5,18.776,17.724,19,18,19z M18.5,13h1c0.552,0,1,0.449,1,1c0,0.551-0.448,1-1,1h-1V13z M9.5,18
			c-0.552,0-1-0.449-1-1c0-0.276-0.224-0.5-0.5-0.5S7.5,16.724,7.5,17c0,1.103,0.897,2,2,2c1.103,0,2-0.897,2-2c0-1.103-0.897-2-2-2
			c-0.552,0-1-0.449-1-1c0-0.551,0.448-1,1-1s1,0.449,1,1c0,0.276,0.224,0.5,0.5,0.5s0.5-0.224,0.5-0.5c0-1.103-0.897-2-2-2
			c-1.103,0-2,0.897-2,2c0,1.103,0.897,2,2,2c0.552,0,1,0.449,1,1C10.5,17.551,10.052,18,9.5,18z M13,19h3
			c0.276,0,0.5-0.224,0.5-0.5S16.276,18,16,18h-2.5v-2H15c0.276,0,0.5-0.224,0.5-0.5S15.276,15,15,15h-1.5v-2H16
			c0.276,0,0.5-0.224,0.5-0.5S16.276,12,16,12h-3c-0.276,0-0.5,0.224-0.5,0.5v6C12.5,18.776,12.724,19,13,19z"/>
	</g>
</g>
</svg>
