<?xml version="1.0" encoding="iso-8859-1"?>
<!-- Generator: Adobe Illustrator 19.0.0, SVG Export Plug-In . SVG Version: 6.00 Build 0)  -->
<svg version="1.1" id="Layer_1" xmlns="http://www.w3.org/2000/svg" xmlns:xlink="http://www.w3.org/1999/xlink" x="0px" y="0px"
	 viewBox="0 0 30 30" style="enable-background:new 0 0 30 30;" xml:space="preserve">
<g>
	<g>
		<path d="M29.5,2h-29C0.224,2,0,2.224,0,2.5v25C0,27.776,0.224,28,0.5,28h29c0.276,0,0.5-0.224,0.5-0.5v-25
			C30,2.224,29.776,2,29.5,2z M27,25H3V5h24V25z M17,19h3c0.276,0,0.5-0.224,0.5-0.5S20.276,18,20,18h-1v-7.5
			c0-0.202-0.122-0.385-0.309-0.462c-0.185-0.079-0.402-0.035-0.545,0.108l-1,1c-0.195,0.195-0.195,0.512,0,0.707
			s0.512,0.195,0.707,0l0.146-0.146V18h-1c-0.276,0-0.5,0.224-0.5,0.5S16.724,19,17,19z M21.5,14h3c0.276,0,0.5-0.224,0.5-0.5
			S24.776,13,24.5,13h-3c-0.276,0-0.5,0.224-0.5,0.5S21.224,14,21.5,14z M21.5,16h3c0.276,0,0.5-0.224,0.5-0.5S24.776,15,24.5,15h-3
			c-0.276,0-0.5,0.224-0.5,0.5S21.224,16,21.5,16z M11.5,15H13v1.5c0,0.276,0.224,0.5,0.5,0.5s0.5-0.224,0.5-0.5V15h1.5
			c0.276,0,0.5-0.224,0.5-0.5S15.776,14,15.5,14H14v-1.5c0-0.276-0.224-0.5-0.5-0.5S13,12.224,13,12.5V14h-1.5
			c-0.276,0-0.5,0.224-0.5,0.5S11.224,15,11.5,15z M7.5,18C6.673,18,6,17.327,6,16.5C6,16.224,5.776,16,5.5,16S5,16.224,5,16.5
			C5,17.878,6.121,19,7.5,19c1.379,0,2.5-1.122,2.5-2.5c0-0.821-0.403-1.544-1.015-2C9.598,14.044,10,13.321,10,12.5
			c0-1.378-1.121-2.5-2.5-2.5C6.121,10,5,11.122,5,12.5C5,12.776,5.224,13,5.5,13S6,12.776,6,12.5C6,11.673,6.673,11,7.5,11
			C8.327,11,9,11.673,9,12.5C9,13.327,8.327,14,7.5,14H7c-0.276,0-0.5,0.224-0.5,0.5S6.724,15,7,15h0.5C8.327,15,9,15.673,9,16.5
			C9,17.327,8.327,18,7.5,18z"/>
	</g>
</g>
</svg>
