<?xml version="1.0" encoding="iso-8859-1"?>
<!-- Generator: Adobe Illustrator 19.0.0, SVG Export Plug-In . SVG Version: 6.00 Build 0)  -->
<svg version="1.1" id="Layer_1" xmlns="http://www.w3.org/2000/svg" xmlns:xlink="http://www.w3.org/1999/xlink" x="0px" y="0px"
	 viewBox="0 0 24 24" style="enable-background:new 0 0 24 24;" xml:space="preserve">
<g>
	<g>
		<g>
			<path d="M12,24c-0.116,0-0.233-0.041-0.327-0.122C11.339,23.59,3.5,16.718,3.5,8.5C3.5,3.813,7.313,0,12,0s8.5,3.813,8.5,8.5
				c0,8.218-7.839,15.09-8.173,15.378C12.233,23.959,12.116,24,12,24z M12,1C7.864,1,4.5,4.364,4.5,8.5
				c0,6.842,6.016,12.926,7.5,14.322c1.483-1.397,7.5-7.488,7.5-14.322C19.5,4.364,16.136,1,12,1z"/>
		</g>
	</g>
	<g>
		<g>
			<path d="M12,14c-3.032,0-5.5-2.467-5.5-5.5S8.968,3,12,3s5.5,2.467,5.5,5.5S15.032,14,12,14z M12,4C9.519,4,7.5,6.019,7.5,8.5
				S9.519,13,12,13s4.5-2.019,4.5-4.5S14.481,4,12,4z"/>
		</g>
	</g>
	<g>
		<path d="M12,12c-0.276,0-0.5-0.224-0.5-0.5V8.309l-0.276,0.138c-0.247,0.122-0.547,0.024-0.671-0.224
			c-0.123-0.247-0.023-0.547,0.224-0.671l1-0.5c0.154-0.078,0.339-0.069,0.486,0.022S12.5,7.327,12.5,7.5v4
			C12.5,11.776,12.276,12,12,12z"/>
	</g>
	<g>
		<path d="M13,12h-2c-0.276,0-0.5-0.224-0.5-0.5S10.724,11,11,11h2c0.276,0,0.5,0.224,0.5,0.5S13.276,12,13,12z"/>
	</g>
	<g>
		<circle cx="12" cy="5.5" r="0.5"/>
	</g>
</g>
<g>
</g>
<g>
</g>
<g>
</g>
<g>
</g>
<g>
</g>
<g>
</g>
<g>
</g>
<g>
</g>
<g>
</g>
<g>
</g>
<g>
</g>
<g>
</g>
<g>
</g>
<g>
</g>
<g>
</g>
</svg>
