<?xml version="1.0" encoding="iso-8859-1"?>
<!-- Generator: Adobe Illustrator 19.0.0, SVG Export Plug-In . SVG Version: 6.00 Build 0)  -->
<svg version="1.1" id="Layer_1" xmlns="http://www.w3.org/2000/svg" xmlns:xlink="http://www.w3.org/1999/xlink" x="0px" y="0px"
	 viewBox="0 0 24 24" style="enable-background:new 0 0 24 24;" xml:space="preserve">
<g>
	<g>
		<g>
			<path d="M12,6c-0.827,0-1.5-0.673-1.5-1.5S11.173,3,12,3s1.5,0.673,1.5,1.5S12.827,6,12,6z M12,4c-0.276,0-0.5,0.224-0.5,0.5
				S11.724,5,12,5s0.5-0.224,0.5-0.5S12.276,4,12,4z"/>
		</g>
		<g>
			<path d="M11.998,13.019c-0.276,0-0.498-0.243-0.498-0.519C11.358,12.115,9.32,11,8,11c-0.276,0-0.5-0.224-0.5-0.5v-4
				C7.5,6.224,7.724,6,8,6c1.166,0,3.094,0.736,4,1.597C12.906,6.736,14.834,6,16,6c0.276,0,0.5,0.224,0.5,0.5v4
				c0,0.276-0.224,0.5-0.5,0.5c-1.309,0-3.325,1.097-3.501,1.528c-0.001,0.018-0.002,0.035-0.005,0.053
				C12.472,12.835,12.259,13.019,11.998,13.019z M8.5,10.038c1.16,0.16,2.714,0.813,3.5,1.56c0.786-0.747,2.34-1.4,3.5-1.56V7.045
				c-1.269,0.21-2.846,1.104-3.001,1.483c-0.001,0.018-0.002,0.035-0.005,0.053c-0.021,0.254-0.234,0.438-0.496,0.438
				c-0.267,0-0.482-0.227-0.497-0.491C11.346,8.149,9.769,7.255,8.5,7.045V10.038z"/>
		</g>
		<g>
			<path d="M12,13c-0.276,0-0.5-0.224-0.5-0.5v-4C11.5,8.224,11.724,8,12,8s0.5,0.224,0.5,0.5v4C12.5,12.776,12.276,13,12,13z"/>
		</g>
	</g>
	<g>
		<path d="M12,24c-0.117,0-0.233-0.041-0.327-0.122C11.339,23.59,3.5,16.718,3.5,8.5C3.5,3.813,7.313,0,12,0s8.5,3.813,8.5,8.5
			c0,8.218-7.839,15.09-8.173,15.378C12.233,23.959,12.117,24,12,24z M12,1C7.864,1,4.5,4.364,4.5,8.5
			c0,6.842,6.016,12.926,7.5,14.322c1.483-1.397,7.5-7.488,7.5-14.322C19.5,4.364,16.136,1,12,1z"/>
	</g>
</g>
<g>
</g>
<g>
</g>
<g>
</g>
<g>
</g>
<g>
</g>
<g>
</g>
<g>
</g>
<g>
</g>
<g>
</g>
<g>
</g>
<g>
</g>
<g>
</g>
<g>
</g>
<g>
</g>
<g>
</g>
</svg>
