<?xml version="1.0" encoding="iso-8859-1"?>
<!-- Generator: Adobe Illustrator 19.0.0, SVG Export Plug-In . SVG Version: 6.00 Build 0)  -->
<svg version="1.1" id="Layer_1" xmlns="http://www.w3.org/2000/svg" xmlns:xlink="http://www.w3.org/1999/xlink" x="0px" y="0px"
	 viewBox="0 0 24 24" style="enable-background:new 0 0 24 24;" xml:space="preserve">
<g>
	<g>
		<g>
			<g>
				<path d="M21,19H3c-1.379,0-2.5-1.122-2.5-2.5v-14C0.5,1.122,1.621,0,3,0h18c1.379,0,2.5,1.122,2.5,2.5v14
					C23.5,17.878,22.379,19,21,19z M3,1C2.173,1,1.5,1.673,1.5,2.5v14C1.5,17.327,2.173,18,3,18h18c0.827,0,1.5-0.673,1.5-1.5v-14
					C22.5,1.673,21.827,1,21,1H3z"/>
			</g>
			<g>
				<path d="M19,24H5c-0.276,0-0.5-0.224-0.5-0.5C4.5,22.122,5.621,21,7,21h10c1.379,0,2.5,1.122,2.5,2.5
					C19.5,23.776,19.276,24,19,24z M5.586,23h12.828c-0.206-0.582-0.762-1-1.414-1H7C6.348,22,5.792,22.418,5.586,23z"/>
			</g>
			<g>
				<path d="M23,16H1c-0.276,0-0.5-0.224-0.5-0.5S0.724,15,1,15h22c0.276,0,0.5,0.224,0.5,0.5S23.276,16,23,16z"/>
			</g>
			<g>
				<path d="M20.02,17c-0.275,0-0.505-0.224-0.505-0.5S19.733,16,20.01,16h0.01c0.276,0,0.5,0.224,0.5,0.5S20.296,17,20.02,17z"/>
			</g>
			<g>
				<path d="M11,22c-0.276,0-0.5-0.224-0.5-0.5v-3c0-0.276,0.224-0.5,0.5-0.5s0.5,0.224,0.5,0.5v3C11.5,21.776,11.276,22,11,22z"/>
			</g>
			<g>
				<path d="M13,22c-0.276,0-0.5-0.224-0.5-0.5v-3c0-0.276,0.224-0.5,0.5-0.5s0.5,0.224,0.5,0.5v3C13.5,21.776,13.276,22,13,22z"/>
			</g>
			<g>
				<path d="M23,3H1C0.724,3,0.5,2.776,0.5,2.5S0.724,2,1,2h22c0.276,0,0.5,0.224,0.5,0.5S23.276,3,23,3z"/>
			</g>
		</g>
	</g>
	<g>
		<path d="M12,9c-0.827,0-1.5-0.673-1.5-1.5S11.173,6,12,6s1.5,0.673,1.5,1.5S12.827,9,12,9z M12,7c-0.275,0-0.5,0.224-0.5,0.5
			S11.725,8,12,8s0.5-0.224,0.5-0.5S12.275,7,12,7z"/>
	</g>
	<g>
		<path d="M12,14c-0.164,0-0.318-0.081-0.411-0.216C11.272,13.327,8.5,9.262,8.5,7.5C8.5,5.57,10.07,4,12,4s3.5,1.57,3.5,3.5
			c0,1.762-2.772,5.827-3.089,6.284C12.318,13.919,12.164,14,12,14z M12,5c-1.379,0-2.5,1.122-2.5,2.5
			c0,0.967,1.398,3.422,2.5,5.104c1.102-1.682,2.5-4.137,2.5-5.104C14.5,6.122,13.379,5,12,5z"/>
	</g>
</g>
<g>
</g>
<g>
</g>
<g>
</g>
<g>
</g>
<g>
</g>
<g>
</g>
<g>
</g>
<g>
</g>
<g>
</g>
<g>
</g>
<g>
</g>
<g>
</g>
<g>
</g>
<g>
</g>
<g>
</g>
</svg>
