<?xml version="1.0" encoding="iso-8859-1"?>
<!-- Generator: Adobe Illustrator 19.0.0, SVG Export Plug-In . SVG Version: 6.00 Build 0)  -->
<svg version="1.1" id="Layer_1" xmlns="http://www.w3.org/2000/svg" xmlns:xlink="http://www.w3.org/1999/xlink" x="0px" y="0px"
	 viewBox="0 0 24 24" style="enable-background:new 0 0 24 24;" xml:space="preserve">
<g>
	<g>
		<path d="M9.944,6.487C9.711,6.516,4.23,7.162,2.881,7.5C2.613,7.566,2.45,7.837,2.517,8.105c0.056,0.228,0.26,0.379,0.484,0.379
			c0.04,0,0.081-0.005,0.122-0.016c1.288-0.321,6.881-0.981,6.938-0.988c0.274-0.032,0.47-0.281,0.438-0.555
			C10.467,6.651,10.216,6.451,9.944,6.487z M9.944,12.487C9.711,12.516,4.23,13.162,2.881,13.5
			c-0.268,0.067-0.431,0.338-0.364,0.606c0.056,0.228,0.26,0.379,0.484,0.379c0.04,0,0.081-0.005,0.122-0.016
			c1.288-0.321,6.881-0.981,6.938-0.988c0.274-0.032,0.47-0.281,0.438-0.555C10.467,12.651,10.216,12.454,9.944,12.487z
			 M9.944,15.487C9.711,15.516,4.23,16.162,2.881,16.5c-0.268,0.067-0.431,0.338-0.364,0.606c0.056,0.228,0.26,0.379,0.484,0.379
			c0.04,0,0.081-0.005,0.122-0.016c1.288-0.321,6.881-0.981,6.938-0.988c0.274-0.032,0.47-0.281,0.438-0.555
			C10.467,15.651,10.216,15.453,9.944,15.487z M9.944,9.487C9.711,9.516,4.23,10.162,2.881,10.5
			c-0.268,0.067-0.431,0.338-0.364,0.606c0.056,0.228,0.26,0.379,0.484,0.379c0.04,0,0.081-0.005,0.122-0.016
			c1.288-0.321,6.881-0.981,6.938-0.988c0.274-0.032,0.47-0.281,0.438-0.555C10.467,9.651,10.216,9.448,9.944,9.487z M21.121,16.5
			c-1.349-0.338-6.831-0.985-7.063-1.012c-0.279-0.033-0.523,0.164-0.555,0.438s0.164,0.523,0.438,0.555
			c0.057,0.007,5.65,0.666,6.938,0.988c0.041,0.01,0.082,0.015,0.122,0.015c0.225,0,0.428-0.151,0.484-0.378
			C21.552,16.839,21.389,16.568,21.121,16.5z M13.503,6.927c-0.032,0.274,0.164,0.523,0.438,0.555
			c0.057,0.007,5.65,0.666,6.938,0.988c0.041,0.01,0.082,0.015,0.122,0.015c0.225,0,0.428-0.151,0.484-0.378
			c0.067-0.268-0.096-0.539-0.364-0.606c-1.349-0.338-6.831-0.985-7.063-1.012C13.779,6.453,13.535,6.652,13.503,6.927z
			 M23.055,4.487L14,3.483c-0.393,0-1.391,0.212-2.001,0.667c-0.614-0.455-1.66-0.654-2.054-0.664l-9,1
			C0.691,4.514,0.5,4.728,0.5,4.983v15c0,0.143,0.061,0.278,0.167,0.373c0.107,0.096,0.248,0.14,0.389,0.125l8.945-0.997
			c0.456,0,1.389,0.348,1.5,0.5c0,0.277,0.218,0.532,0.494,0.532c0.228,0,0.408-0.135,0.466-0.336
			c0.001-0.002,0.001-0.004,0.002-0.006c0.006-0.02,0.017-0.038,0.019-0.059c0.007-0.027,0.013-0.055,0.015-0.084
			c0.159-0.217,1.056-0.547,1.447-0.55l9,1c0.143,0.015,0.283-0.03,0.389-0.125c0.106-0.095,0.167-0.231,0.167-0.373v-15
			C23.5,4.729,23.308,4.514,23.055,4.487z M11.501,4.984v13.881c-0.578-0.26-1.255-0.385-1.555-0.38l-8.445,0.938V5.43l8.5-0.947
			c0.456,0,1.389,0.348,1.5,0.5C11.501,4.983,11.501,4.983,11.501,4.984C11.501,4.984,11.501,4.984,11.501,4.984z M22.501,19.425
			l-8.5-0.941c-0.297,0-0.94,0.122-1.5,0.378V5.029c0.163-0.217,1.055-0.545,1.445-0.548l8.555,0.951V19.425z M21.121,10.5
			c-1.349-0.338-6.831-0.985-7.063-1.012c-0.279-0.037-0.523,0.164-0.555,0.438s0.164,0.523,0.438,0.555
			c0.057,0.007,5.65,0.666,6.938,0.988c0.041,0.01,0.082,0.015,0.122,0.015c0.225,0,0.428-0.151,0.484-0.378
			C21.552,10.839,21.389,10.568,21.121,10.5z M21.121,13.5c-1.349-0.338-6.831-0.985-7.063-1.012
			c-0.279-0.032-0.523,0.164-0.555,0.438s0.164,0.523,0.438,0.555c0.057,0.007,5.65,0.666,6.938,0.988
			c0.041,0.01,0.082,0.015,0.122,0.015c0.225,0,0.428-0.151,0.484-0.378C21.552,13.839,21.389,13.568,21.121,13.5z"/>
	</g>
</g>
</svg>
