<?xml version="1.0" encoding="iso-8859-1"?>
<!-- Generator: Adobe Illustrator 19.0.0, SVG Export Plug-In . SVG Version: 6.00 Build 0)  -->
<svg version="1.1" id="Layer_1" xmlns="http://www.w3.org/2000/svg" xmlns:xlink="http://www.w3.org/1999/xlink" x="0px" y="0px"
	 viewBox="0 0 24 24" style="enable-background:new 0 0 24 24;" xml:space="preserve">
<g>
	<g>
		<path d="M23.354,5.646l-2-2c-0.004-0.004-0.01-0.005-0.014-0.01c-0.043-0.04-0.092-0.075-0.147-0.098
			C21.13,3.513,21.064,3.5,20.999,3.5H14c-0.392,0-1.39,0.212-2,0.666C11.391,3.712,10.393,3.5,10,3.5H3.001
			c-0.066,0-0.132,0.013-0.193,0.039C2.775,3.553,2.75,3.577,2.721,3.597C2.696,3.614,2.668,3.624,2.646,3.646l-2,2
			C0.554,5.74,0.5,5.867,0.5,6v12.999c0,0.066,0.013,0.132,0.039,0.193c0.014,0.033,0.038,0.058,0.058,0.087
			c0.017,0.025,0.027,0.052,0.049,0.074c0.017,0.016,0.038,0.023,0.056,0.037c0.034,0.026,0.067,0.054,0.107,0.07
			C0.87,19.487,0.935,19.5,1,19.5h8.643c0.33,0.593,1.229,1,2.357,1s2.027-0.407,2.357-1H23c0.065,0,0.13-0.013,0.191-0.039
			c0.053-0.022,0.098-0.055,0.14-0.093c0.007-0.006,0.015-0.008,0.022-0.014c0,0,0,0,0,0c0.046-0.046,0.082-0.101,0.108-0.162
			c0.025-0.061,0.038-0.127,0.038-0.192V6C23.5,5.867,23.448,5.74,23.354,5.646z M12.5,5.045C12.663,4.829,13.558,4.5,14,4.5h6.5v12
			H14c-0.297,0-0.94,0.122-1.5,0.378V5.045z M3.5,4.499H10c0.456,0,1.389,0.348,1.5,0.5c0,0,0,0,0,0.001s0,0,0,0v11.878
			C10.94,16.622,10.297,16.5,10,16.5H3.5V4.499z M1.5,6.207L2.5,5.206v11.587L1.5,17.794V6.207z M14,18.5
			c-0.276,0-0.5,0.224-0.5,0.5c0,0.125-0.532,0.5-1.5,0.5c-0.968,0-1.5-0.375-1.5-0.5c0-0.276-0.224-0.5-0.5-0.5c0,0,0,0,0,0
			s0,0,0,0H2.208l1-1H10c0.456,0,1.389,0.348,1.5,0.5c0,0.277,0.218,0.532,0.494,0.532c0.253,0,0.456-0.161,0.489-0.401
			c0.007-0.027,0.013-0.055,0.015-0.084C12.658,17.831,13.557,17.5,14,17.5h6.792l1,1H14z M22.5,17.794l-1-1V5.207l1,1V17.794z"/>
	</g>
</g>
</svg>
