<?xml version="1.0" encoding="iso-8859-1"?>
<!-- Generator: Adobe Illustrator 19.0.0, SVG Export Plug-In . SVG Version: 6.00 Build 0)  -->
<svg version="1.1" id="Layer_1" xmlns="http://www.w3.org/2000/svg" xmlns:xlink="http://www.w3.org/1999/xlink" x="0px" y="0px"
	 viewBox="0 0 24 24" style="enable-background:new 0 0 24 24;" xml:space="preserve">
<g>
	<g>
		<path d="M23.978,11.393c-0.006-0.027-0.006-0.056-0.017-0.082c-0.026-0.063-0.064-0.119-0.111-0.167L22,9.294V0.5
			C22,0.224,21.776,0,21.5,0h-19C2.224,0,2,0.224,2,0.5v8.793l-1.854,1.854c-0.004,0.004-0.005,0.01-0.01,0.014
			c-0.04,0.043-0.075,0.092-0.098,0.147C0.013,11.371,0,11.436,0,11.502V22.5C0,23.327,0.673,24,1.5,24h21
			c0.827,0,1.5-0.673,1.5-1.5v-11C24,11.462,23.986,11.428,23.978,11.393z M22,10.708L22.292,11H22V10.708z M3,1h18v8.499
			c0,0.001,0,0.002,0,0.003V11h-2.693l-3.361-6.722c-0.17-0.339-0.725-0.339-0.895,0l-3.19,6.379L8.352,8.148
			C8.246,8.043,8.105,7.993,7.949,8.004C7.8,8.018,7.665,8.099,7.582,8.224L5.731,11H3V1z M17.19,11h-5.382l2.691-5.381L17.19,11z
			 M9.791,11H6.933l1.143-1.715L9.791,11z M2,10.707V11H1.707L2,10.707z M23,22.5c0,0.276-0.224,0.5-0.5,0.5h-21
			C1.224,23,1,22.776,1,22.5V12h22V22.5z M9,17h6c1.103,0,2-0.897,2-2s-0.897-2-2-2H9c-1.103,0-2,0.897-2,2S7.897,17,9,17z M9,14h6
			c0.551,0,1,0.449,1,1s-0.449,1-1,1H9c-0.551,0-1-0.449-1-1S8.449,14,9,14z M8.5,7C9.878,7,11,5.878,11,4.5S9.878,2,8.5,2
			S6,3.122,6,4.5S7.122,7,8.5,7z M8.5,3C9.327,3,10,3.673,10,4.5S9.327,6,8.5,6C7.673,6,7,5.327,7,4.5S7.673,3,8.5,3z"/>
	</g>
</g>
</svg>
