<?xml version="1.0" encoding="iso-8859-1"?>
<!-- Generator: Adobe Illustrator 19.0.0, SVG Export Plug-In . SVG Version: 6.00 Build 0)  -->
<svg version="1.1" id="Layer_1" xmlns="http://www.w3.org/2000/svg" xmlns:xlink="http://www.w3.org/1999/xlink" x="0px" y="0px"
	 viewBox="0 0 24 24" style="enable-background:new 0 0 24 24;" xml:space="preserve">
<g>
	<g>
		<path d="M16.5,19.5h-3c-0.276,0-0.5,0.224-0.5,0.5s0.224,0.5,0.5,0.5h3c0.276,0,0.5-0.224,0.5-0.5S16.776,19.5,16.5,19.5z
			 M16.5,17.5h-5c-0.276,0-0.5,0.224-0.5,0.5s0.224,0.5,0.5,0.5h5c0.276,0,0.5-0.224,0.5-0.5S16.776,17.5,16.5,17.5z M22,7.614
			V4.387c0-0.521-0.336-1.003-0.856-1.226l-1.179-0.505C19.795,1.442,18.76,0.5,17.5,0.5h-12C4.122,0.5,3,1.622,3,3v0.5H2.5
			C2.224,3.5,2,3.724,2,4s0.224,0.5,0.5,0.5H3v3H2.5C2.224,7.5,2,7.724,2,8s0.224,0.5,0.5,0.5H3v3H2.5C2.224,11.5,2,11.724,2,12
			s0.224,0.5,0.5,0.5H3v3H2.5C2.224,15.5,2,15.724,2,16s0.224,0.5,0.5,0.5H3v3H2.5C2.224,19.5,2,19.724,2,20s0.224,0.5,0.5,0.5H3V21
			c0,1.378,1.122,2.5,2.5,2.5h12c1.26,0,2.295-0.941,2.465-2.155l1.18-0.505C21.664,20.617,22,20.135,22,19.614v-3.227
			c0-0.521-0.336-1.003-0.856-1.226l-0.374-0.16l0.375-0.161C21.664,14.617,22,14.135,22,13.614v-3.227
			c0-0.521-0.336-1.003-0.856-1.226l-0.374-0.16l0.375-0.161C21.664,8.617,22,8.135,22,7.614z M19,21c0,0.827-0.673,1.5-1.5,1.5h-12
			C4.673,22.5,4,21.827,4,21v-0.5h0.5C4.776,20.5,5,20.276,5,20s-0.224-0.5-0.5-0.5H4v-3h0.5C4.776,16.5,5,16.276,5,16
			s-0.224-0.5-0.5-0.5H4v-3h0.5C4.776,12.5,5,12.276,5,12s-0.224-0.5-0.5-0.5H4v-3h0.5C4.776,8.5,5,8.276,5,8S4.776,7.5,4.5,7.5H4
			v-3h0.5C4.776,4.5,5,4.276,5,4S4.776,3.5,4.5,3.5H4V3c0-0.827,0.673-1.5,1.5-1.5h12C18.327,1.5,19,2.173,19,3V21z M21.001,16.387
			v3.227c0,0.121-0.099,0.242-0.25,0.307L20,20.243v-4.485l0.751,0.322C20.903,16.145,21.001,16.265,21.001,16.387z M21.001,10.387
			v3.227c0,0.121-0.099,0.242-0.25,0.307L20,14.243V9.758l0.751,0.322C20.903,10.145,21.001,10.265,21.001,10.387z M21.001,7.614
			c0,0.121-0.099,0.242-0.25,0.307L20,8.243V3.758l0.751,0.322c0.152,0.065,0.25,0.185,0.25,0.307V7.614z"/>
	</g>
</g>
</svg>
