<?xml version="1.0" encoding="iso-8859-1"?>
<!-- Generator: Adobe Illustrator 19.0.0, SVG Export Plug-In . SVG Version: 6.00 Build 0)  -->
<svg version="1.1" id="Layer_1" xmlns="http://www.w3.org/2000/svg" xmlns:xlink="http://www.w3.org/1999/xlink" x="0px" y="0px"
	 viewBox="0 0 24 24" style="enable-background:new 0 0 24 24;" xml:space="preserve">
<g>
	<g>
		<path d="M17,6.5C17,6.224,16.776,6,16.5,6h-9C7.224,6,7,6.224,7,6.5S7.224,7,7.5,7h9C16.776,7,17,6.776,17,6.5z M5.5,10
			C5.776,10,6,9.776,6,9.5v-6C6,2.122,7.122,1,8.5,1h7C16.878,1,18,2.122,18,3.5v6c0,0.276,0.224,0.5,0.5,0.5S19,9.776,19,9.5v-6
			C19,1.57,17.43,0,15.5,0h-7C6.57,0,5,1.57,5,3.5v6C5,9.776,5.224,10,5.5,10z M23.961,21.052L20.99,6.4
			c-0.054-0.27-0.318-0.446-0.589-0.391s-0.446,0.318-0.391,0.589l2.968,14.64c0.077,0.438-0.043,0.884-0.329,1.225
			c-0.286,0.341-0.705,0.536-1.149,0.536h-19c-0.444,0-0.863-0.196-1.149-0.536c-0.286-0.341-0.406-0.787-0.331-1.213L3.99,6.598
			c0.055-0.27-0.12-0.534-0.391-0.589C3.33,5.951,3.065,6.129,3.01,6.4L0.039,21.065c-0.129,0.73,0.071,1.475,0.547,2.042
			S1.76,24,2.5,24h19c0.741,0,1.439-0.326,1.915-0.894C23.891,22.538,24.091,21.794,23.961,21.052z M12,12.56
			c-0.431-0.361-0.963-0.561-1.522-0.561C9.112,11.999,8,13.196,8,14.666c0,0.656,0.239,1.295,0.692,1.849
			c0.702,0.858,2.847,3.221,2.938,3.321C11.726,19.94,11.859,20,12,20s0.275-0.06,0.37-0.164c0.091-0.1,2.236-2.464,2.938-3.321
			C15.761,15.961,16,15.322,16,14.666c0-1.471-1.112-2.667-2.478-2.667C12.964,11.999,12.432,12.199,12,12.56z M15,14.667
			c0,0.533-0.254,0.956-0.467,1.216c-0.512,0.627-1.872,2.141-2.533,2.873c-0.66-0.732-2.02-2.247-2.533-2.873
			C9.255,15.623,9,15.2,9,14.667C9,13.748,9.664,13,10.479,13c0.432,0,0.841,0.213,1.123,0.585c0.19,0.249,0.608,0.249,0.797,0
			C12.682,13.213,13.091,13,13.523,13C14.338,13,15,13.748,15,14.667z"/>
	</g>
</g>
</svg>
