<?xml version="1.0" encoding="iso-8859-1"?>
<!-- Generator: Adobe Illustrator 19.0.0, SVG Export Plug-In . SVG Version: 6.00 Build 0)  -->
<svg version="1.1" id="Layer_1" xmlns="http://www.w3.org/2000/svg" xmlns:xlink="http://www.w3.org/1999/xlink" x="0px" y="0px"
	 viewBox="0 0 24 24" style="enable-background:new 0 0 24 24;" xml:space="preserve">
<g>
	<g>
		<path d="M10.5,5.039c0.276,0,0.5-0.224,0.5-0.5c0-0.84,0.527-1.524,1.174-1.524c0.276,0,0.5-0.224,0.5-0.5s-0.224-0.5-0.5-0.5
			C10.975,2.016,10,3.148,10,4.539C10,4.815,10.224,5.039,10.5,5.039z M23.948,19.292c-0.695-1.389-2.231-2.097-3.738-1.719
			l-3.24,0.81c-0.144-1.249-0.883-1.986-2.362-2.356L5.934,14.1c0.027-0.19,0.048-0.372,0.063-0.542
			c0.013-0.152-0.043-0.302-0.154-0.406c-0.857-0.812-4.284-1.075-5.314-1.136c-0.143-0.004-0.273,0.041-0.373,0.135
			C0.057,12.245,0,12.378,0,12.516v9c0,0.276,0.224,0.5,0.5,0.5h3c0.216,0,0.408-0.139,0.475-0.345
			c0.013-0.04,0.081-0.25,0.184-0.575l7.164,2.388c0.841,0.317,1.421,0.501,2.073,0.501c1.014-0.001,2.202-0.444,4.812-1.513
			l5.5-2.5c0.123-0.056,0.219-0.16,0.264-0.288C24.017,19.554,24.009,19.414,23.948,19.292z M3.135,21.016H0.999v-7.964
			c1.607,0.127,3.342,0.403,3.972,0.709C4.706,15.951,3.507,19.841,3.135,21.016z M17.81,21.553
			c-4.204,1.722-4.349,1.668-6.152,0.988L4.453,20.14c0.411-1.361,0.984-3.38,1.312-5.052l8.613,1.914
			c1.108,0.277,1.553,0.713,1.614,1.626l-0.96,0.24c-0.356,0.09-0.734,0.099-1.096,0.026l-4.338-0.868
			c-0.275-0.058-0.534,0.121-0.588,0.392s0.121,0.534,0.392,0.588l4.339,0.868c0.225,0.045,0.456,0.067,0.686,0.067
			c0.286,0,0.573-0.034,0.848-0.104l1.341-0.335c0.002,0,0.003,0,0.005,0l3.831-0.958c0.874-0.217,1.763,0.088,2.315,0.756
			L17.81,21.553z M14.63,13.852c0.095,0.104,0.229,0.164,0.37,0.164s0.275-0.06,0.372-0.164c0.169-0.186,4.145-4.567,5.44-6.15
			c0.778-0.95,1.189-2.043,1.189-3.162c0-2.495-1.873-4.524-4.174-4.524c-1.057,0-2.06,0.429-2.826,1.194
			c-0.766-0.765-1.768-1.194-2.826-1.194c-2.301,0-4.174,2.029-4.174,4.524c0,1.119,0.411,2.212,1.189,3.162
			C10.485,9.284,14.461,13.665,14.63,13.852z M12.174,1.016c0.937,0,1.822,0.458,2.427,1.256c0.19,0.249,0.608,0.249,0.797,0
			c0.606-0.798,1.491-1.256,2.428-1.256c1.75,0,3.174,1.581,3.174,3.524c0,1.118-0.524,1.992-0.963,2.528
			C18.986,8.352,16.041,11.62,15,12.771c-1.041-1.151-3.986-4.419-5.037-5.703C9.523,6.531,9,5.657,9,4.539
			C9,2.596,10.424,1.016,12.174,1.016z"/>
	</g>
</g>
</svg>
