<?xml version="1.0" encoding="iso-8859-1"?>
<!-- Generator: Adobe Illustrator 19.0.0, SVG Export Plug-In . SVG Version: 6.00 Build 0)  -->
<svg version="1.1" id="Layer_1" xmlns="http://www.w3.org/2000/svg" xmlns:xlink="http://www.w3.org/1999/xlink" x="0px" y="0px"
	 viewBox="0 0 24 24" style="enable-background:new 0 0 24 24;" xml:space="preserve">
<g>
	<g>
		<path d="M6.029,6.977c-0.364,0-0.716,0.117-1.017,0.329C4.713,7.072,4.38,6.954,4.017,6.954c-1.086,0-2.003,0.9-2.003,2.034
			c0,1.795,2.427,3.659,2.704,3.866c0.089,0.067,0.194,0.1,0.299,0.1c0.107,0,0.213-0.034,0.303-0.102
			c0.276-0.21,2.697-2.106,2.691-3.885c0.003-0.021,0.006-0.061,0.006-0.082C8.017,7.833,7.125,6.977,6.029,6.977z M7.017,8.954
			c0,0.957-1.253,2.222-2.003,2.859c-0.75-0.626-2.001-1.864-2.003-2.778C3.014,9.014,3.014,8.94,3.014,8.919
			c0-0.569,0.528-0.965,1.003-0.965c0.132,0,0.338,0.037,0.591,0.357c0.19,0.239,0.594,0.239,0.784,0
			C5.49,8.186,5.704,7.978,6.029,7.978c0.475,0,0.988,0.347,0.988,0.908l0.001-0.015C7.017,8.901,7.017,8.939,7.017,8.954z M20.5,1
			h-17C1.57,1,0,2.57,0,4.5v10C0,16.43,1.57,18,3.5,18h2.261l-1.726,4.314c-0.082,0.206-0.019,0.442,0.156,0.579
			C4.282,22.964,4.391,23,4.5,23c0.102,0,0.204-0.031,0.29-0.093L11.66,18h8.84c1.93,0,3.5-1.57,3.5-3.5v-10C24,2.57,22.43,1,20.5,1
			z M23,14.501c0,1.378-1.122,2.5-2.5,2.5h-9c-0.104,0-0.207,0.032-0.291,0.093l-5.611,4.008l1.366-3.416
			c0.062-0.154,0.043-0.329-0.05-0.466C6.821,17.083,6.666,17,6.5,17h-3C2.122,17,1,15.878,1,14.5v-10C1,3.122,2.122,2,3.5,2v0.001
			h17c1.378,0,2.5,1.122,2.5,2.5V14.501z M20,7c-0.365,0-0.717,0.116-1.018,0.328c-0.365-0.283-0.726-0.353-0.994-0.353
			c-1.086,0-2.003,0.901-2.003,2.035c0,1.795,2.427,3.659,2.704,3.866c0.089,0.067,0.194,0.1,0.299,0.1
			c0.107,0,0.214-0.034,0.303-0.102c0.271-0.206,2.604-2.033,2.688-3.878h0.002c0.004-0.023,0.007-0.066,0.007-0.089
			C21.988,7.855,21.096,7,20,7z M20.988,8.976c0,0.957-1.253,2.222-2.003,2.859c-0.749-0.625-2.001-1.863-2.003-2.774
			c0.004-0.03,0.004-0.089,0.003-0.119c0-0.57,0.528-0.966,1.003-0.966c0.133,0,0.339,0.037,0.59,0.356
			c0.095,0.12,0.24,0.19,0.393,0.19s0.297-0.07,0.392-0.19c0.503-0.637,1.618-0.271,1.625,0.567
			C20.987,8.927,20.987,8.957,20.988,8.976z M13,7c-0.365,0-0.717,0.116-1.018,0.328c-0.365-0.283-0.726-0.353-0.994-0.353
			c-1.086,0-2.003,0.901-2.003,2.035c0,1.795,2.427,3.659,2.704,3.866c0.089,0.067,0.194,0.1,0.299,0.1
			c0.107,0,0.214-0.034,0.303-0.102c0.271-0.206,2.604-2.033,2.688-3.878h0.002c0.004-0.023,0.007-0.066,0.007-0.089
			C14.988,7.855,14.096,7,13,7z M13.988,8.976c0,0.957-1.253,2.222-2.003,2.859c-0.749-0.625-2.001-1.863-2.003-2.774
			c0.004-0.03,0.004-0.089,0.003-0.119c0-0.57,0.528-0.966,1.003-0.966c0.133,0,0.339,0.037,0.59,0.356
			c0.095,0.12,0.24,0.19,0.393,0.19s0.297-0.07,0.392-0.19c0.504-0.637,1.618-0.271,1.625,0.567
			C13.987,8.927,13.987,8.957,13.988,8.976z"/>
	</g>
</g>
</svg>
