<?xml version="1.0" encoding="iso-8859-1"?>
<!-- Generator: Adobe Illustrator 19.0.0, SVG Export Plug-In . SVG Version: 6.00 Build 0)  -->
<svg version="1.1" id="Layer_1" xmlns="http://www.w3.org/2000/svg" xmlns:xlink="http://www.w3.org/1999/xlink" x="0px" y="0px"
	 viewBox="0 0 24 24" style="enable-background:new 0 0 24 24;" xml:space="preserve">
<g>
	<g>
		<path d="M22.5,0h-21C1.224,0,1,0.224,1,0.5v23C1,23.776,1.224,24,1.5,24h21c0.276,0,0.5-0.224,0.5-0.5v-23
			C23,0.224,22.776,0,22.5,0z M22,23H2V1h20V23z M3.5,18h17c0.276,0,0.5-0.224,0.5-0.5v-15C21,2.224,20.776,2,20.5,2h-17
			C3.224,2,3,2.224,3,2.5v15C3,17.776,3.224,18,3.5,18z M4,3h16v14H4V3z M15.674,4C14.866,4,14.1,4.313,13.5,4.874
			C12.9,4.313,12.134,4,11.326,4C9.688,4,8.331,5.29,8.062,7.028C7.963,7.016,7.864,7,7.762,7C6.239,7,5.001,8.335,5.001,9.976
			c0,0.734,0.268,1.448,0.775,2.068c0.8,0.978,3.25,3.678,3.354,3.792C9.225,15.94,9.359,16,9.5,16s0.275-0.06,0.372-0.164
			c0.068-0.074,1.122-1.237,2.074-2.311c0.674,0.749,1.184,1.311,1.184,1.311C13.225,14.94,13.359,15,13.5,15s0.275-0.06,0.37-0.165
			c0.13-0.143,3.19-3.515,4.189-4.735C18.675,9.349,19,8.483,19,7.595C19,5.613,17.508,4,15.674,4z M12.106,11.819
			c-0.04,0.047-0.083,0.097-0.126,0.146c-0.119,0.138-0.245,0.282-0.381,0.437c-0.715,0.816-1.606,1.806-2.1,2.353
			c-0.733-0.812-2.349-2.61-2.951-3.345C6.298,11.104,6,10.607,6,9.976C6,8.886,6.79,8,7.761,8c0.192,0,0.377,0.046,0.555,0.113
			c0.004,0.002,0.006,0.006,0.01,0.008c0.312,0.12,0.58,0.319,0.775,0.576c0.19,0.249,0.608,0.249,0.797,0
			C10.234,8.254,10.723,8,11.239,8C12.21,8,13,8.886,13,9.976c0,0.631-0.299,1.128-0.549,1.434
			C12.359,11.522,12.238,11.665,12.106,11.819z M17.286,9.467c-0.78,0.953-2.921,3.33-3.786,4.288
			c-0.225-0.249-0.538-0.595-0.889-0.987c0.224-0.257,0.417-0.484,0.567-0.665c0.015-0.018,0.035-0.041,0.049-0.058
			c0.507-0.62,0.775-1.335,0.775-2.068c0,0,0,0,0,0s0,0,0,0C14.001,8.335,12.762,7,11.24,7c-0.641,0-1.252,0.237-1.739,0.664
			C9.35,7.532,9.185,7.425,9.013,7.331C9.133,6.024,10.124,5,11.327,5c0.684,0,1.331,0.335,1.775,0.92
			c0.19,0.249,0.608,0.249,0.797,0C14.342,5.335,14.989,5,15.674,5C16.957,5,18,6.164,18,7.595C18,8.422,17.612,9.069,17.286,9.467z
			"/>
	</g>
</g>
</svg>
