<?xml version="1.0" encoding="iso-8859-1"?>
<!-- Generator: Adobe Illustrator 19.0.0, SVG Export Plug-In . SVG Version: 6.00 Build 0)  -->
<svg version="1.1" id="Layer_1" xmlns="http://www.w3.org/2000/svg" xmlns:xlink="http://www.w3.org/1999/xlink" x="0px" y="0px"
	 viewBox="0 0 24 24" style="enable-background:new 0 0 24 24;" xml:space="preserve">
<g>
	<g>
		<path d="M11,11c0.397,0,0.74-0.091,1-0.241C12.26,10.909,12.603,11,13,11c0.869,0,1.5-0.42,1.5-1c0-0.276-0.224-0.5-0.5-0.5
			c-0.239,0-0.438,0.168-0.488,0.392C13.438,9.935,13.261,10,13,10c-0.253,0-0.422-0.06-0.5-0.103V9.208l0.854-0.854
			c0.142-0.143,0.185-0.358,0.108-0.545C13.385,7.622,13.202,7.5,13,7.5h-2c-0.202,0-0.384,0.122-0.462,0.309
			c-0.078,0.187-0.035,0.402,0.108,0.545L11.5,9.208v0.689C11.422,9.94,11.253,10,11,10c-0.261,0-0.438-0.064-0.512-0.108
			C10.438,9.667,10.239,9.5,10,9.5c-0.276,0-0.5,0.224-0.5,0.5C9.5,10.58,10.131,11,11,11z M14,5.5c0.276,0,0.5-0.224,0.5-0.5
			S14.276,4.5,14,4.5S13.5,4.723,13.5,5S13.724,5.5,14,5.5z M16.5,3C16.775,3,17,3.224,17,3.5S17.224,4,17.5,4S18,3.776,18,3.5
			C18,2.672,17.327,2,16.5,2C16.224,2,16,2.224,16,2.5S16.224,3,16.5,3z M10,5.5c0.276,0,0.5-0.224,0.5-0.5S10.276,4.5,10,4.5
			S9.5,4.723,9.5,5S9.724,5.5,10,5.5z M19,17c1.654,0,3-1.346,3-3s-1.346-3-3-3c-0.618,0-1.193,0.189-1.671,0.511
			c-0.216-0.258-0.445-0.495-0.687-0.714C17.49,9.762,18,8.439,18,7c0-0.116-0.004-0.232-0.012-0.346C19.206,6.081,20,4.859,20,3.5
			C20,1.57,18.43,0,16.5,0c-1.054,0-2.038,0.472-2.7,1.28c-1.174-0.372-2.426-0.372-3.6,0C9.538,0.471,8.555,0,7.5,0
			C5.57,0,4,1.57,4,3.5c0,1.36,0.794,2.582,2.012,3.154C6.004,6.768,6,6.883,6,7c0,1.44,0.51,2.762,1.359,3.797
			c-0.243,0.218-0.471,0.456-0.687,0.713C6.193,11.188,5.618,11,5,11c-1.654,0-3,1.346-3,3s1.346,3,3,3
			c0.029,0,0.056-0.008,0.084-0.009c0.024,0.168,0.054,0.333,0.09,0.497c-0.139,0.085-0.274,0.178-0.391,0.294
			c-1.108,1.109-0.751,3.203,0.812,4.767c0.72,0.719,1.592,1.211,2.454,1.383C8.275,23.979,8.496,24,8.707,24
			c0.66,0,1.233-0.219,1.655-0.64c0.147-0.147,0.266-0.315,0.363-0.497C11.154,22.945,11.582,23,12,23
			c0.418,0,0.846-0.055,1.276-0.136c0.097,0.182,0.216,0.35,0.363,0.497C14.06,23.781,14.633,24,15.293,24
			c0.211,0,0.432-0.022,0.659-0.068c0.862-0.172,1.734-0.663,2.454-1.383c1.564-1.564,1.92-3.658,0.812-4.767
			c-0.117-0.117-0.252-0.21-0.392-0.295c0.035-0.164,0.066-0.329,0.089-0.497C18.944,16.992,18.971,17,19,17z M7,7
			c0-0.206,0.017-0.408,0.041-0.609C7.07,6.156,6.93,5.932,6.705,5.856C5.686,5.512,5,4.565,5,3.5C5,2.122,6.121,1,7.5,1
			c0.848,0,1.631,0.429,2.095,1.146c0.129,0.199,0.38,0.28,0.601,0.195c1.168-0.453,2.439-0.453,3.607,0
			c0.22,0.086,0.472,0.004,0.601-0.195C14.869,1.429,15.652,1,16.5,1C17.879,1,19,2.122,19,3.5c0,1.065-0.686,2.012-1.705,2.357
			c-0.225,0.076-0.365,0.3-0.336,0.535C16.983,6.591,17,6.794,17,7c0,1.364-0.552,2.599-1.44,3.502
			c-0.183,0.186-0.385,0.344-0.59,0.497c-0.06,0.044-0.11,0.1-0.172,0.142c-0.141,0.096-0.297,0.163-0.446,0.244
			c-0.399,0.215-0.822,0.392-1.277,0.492c-0.024,0.005-0.046,0.017-0.071,0.022C12.681,11.964,12.344,12,12,12
			s-0.681-0.035-1.006-0.102c-0.025-0.005-0.047-0.017-0.071-0.022c-0.453-0.1-0.873-0.275-1.271-0.489
			c-0.151-0.081-0.309-0.15-0.451-0.247c-0.062-0.042-0.112-0.097-0.172-0.142c-0.205-0.153-0.407-0.311-0.59-0.497
			C7.552,9.599,7,8.363,7,7z M5,16c-1.103,0-2-0.897-2-2s0.897-2,2-2c0.542,0,1.032,0.218,1.393,0.569
			c0.292,0.285,0.487,0.641,0.567,1.03C6.986,13.728,7,13.862,7,14c0,0.127-0.015,0.251-0.038,0.372
			c-0.01,0.05-0.026,0.099-0.04,0.148c-0.018,0.067-0.037,0.134-0.061,0.198c-0.023,0.058-0.05,0.113-0.077,0.168
			c-0.025,0.051-0.052,0.101-0.081,0.149c-0.034,0.055-0.071,0.109-0.11,0.161c-0.032,0.043-0.067,0.084-0.103,0.125
			c-0.043,0.049-0.087,0.097-0.135,0.141c-0.04,0.037-0.084,0.071-0.127,0.105c-0.05,0.04-0.1,0.08-0.154,0.115
			c-0.048,0.031-0.1,0.055-0.15,0.082c-0.057,0.03-0.111,0.063-0.171,0.087c-0.034,0.014-0.071,0.021-0.106,0.033
			c-0.075,0.026-0.149,0.053-0.228,0.07c-0.005,0.001-0.008,0.004-0.013,0.005C5.275,15.985,5.139,16,5,16z M9.985,21.836
			c-0.009,0.111-0.028,0.218-0.058,0.32c-0.001,0.004,0,0.008-0.001,0.012c-0.057,0.188-0.142,0.357-0.272,0.487
			c-0.312,0.311-0.812,0.416-1.41,0.298c-0.671-0.134-1.36-0.528-1.942-1.11c-1.128-1.129-1.5-2.665-0.812-3.353
			c0.106-0.106,0.239-0.184,0.386-0.241c0.013-0.004,0.028-0.001,0.041-0.006c0.065-0.023,0.135-0.033,0.204-0.047
			c0.057-0.011,0.114-0.023,0.175-0.029c0.404-0.036,0.864,0.064,1.324,0.276c0.055,0.026,0.11,0.05,0.165,0.079
			c0.082,0.043,0.163,0.091,0.244,0.14c0.077,0.048,0.152,0.099,0.227,0.152c0.061,0.043,0.122,0.085,0.182,0.132
			c0.138,0.11,0.275,0.226,0.404,0.355c0.002,0.002,0.004,0.004,0.006,0.006c0.128,0.128,0.243,0.263,0.352,0.4
			c0.039,0.049,0.073,0.099,0.109,0.148c0.067,0.092,0.129,0.186,0.187,0.28c0.036,0.059,0.072,0.118,0.104,0.177
			c0.056,0.103,0.104,0.207,0.149,0.311c0.027,0.063,0.054,0.126,0.077,0.189c0.042,0.118,0.077,0.236,0.104,0.354
			c0.019,0.084,0.032,0.168,0.042,0.25c0.005,0.036,0.009,0.071,0.012,0.106c0.008,0.105,0.01,0.208,0.002,0.308
			C9.985,21.834,9.985,21.835,9.985,21.836z M13.913,19.225c-0.124,0.167-0.238,0.337-0.337,0.511
			c-0.008,0.014-0.018,0.027-0.026,0.042c-0.101,0.181-0.185,0.365-0.259,0.549c-0.023,0.058-0.044,0.116-0.064,0.174
			c-0.049,0.139-0.089,0.278-0.121,0.417c-0.01,0.044-0.029,0.087-0.038,0.13c-0.006,0.03-0.003,0.057-0.009,0.087
			c-0.026,0.151-0.04,0.3-0.045,0.447c-0.004,0.095-0.003,0.188,0.002,0.28c0.001,0.015-0.001,0.031,0,0.047
			c-0.687,0.123-1.345,0.123-2.033,0c0.001-0.01,0-0.02,0-0.03c0.006-0.103,0.007-0.207,0.002-0.315
			c-0.004-0.114-0.018-0.23-0.034-0.346c-0.009-0.057-0.005-0.111-0.017-0.169c-0.012-0.059-0.037-0.118-0.052-0.177
			c-0.028-0.115-0.061-0.23-0.101-0.346c-0.025-0.072-0.05-0.144-0.08-0.216c-0.071-0.175-0.15-0.349-0.246-0.521
			c-0.016-0.029-0.036-0.057-0.053-0.086c-0.092-0.158-0.196-0.314-0.308-0.466c-0.033-0.045-0.066-0.089-0.101-0.133
			c-0.136-0.174-0.281-0.344-0.443-0.506c-0.161-0.161-0.331-0.305-0.504-0.441c-0.051-0.04-0.102-0.077-0.153-0.115
			c-0.129-0.094-0.261-0.181-0.395-0.261c-0.057-0.035-0.113-0.072-0.171-0.104c-0.162-0.088-0.326-0.165-0.49-0.231
			c-0.097-0.04-0.194-0.07-0.292-0.102c-0.075-0.024-0.15-0.046-0.226-0.066c-0.075-0.02-0.149-0.05-0.223-0.065
			c-0.336-0.067-0.651-0.066-0.951-0.034c-0.007,0.001-0.015,0-0.022,0.001c-0.025-0.123-0.045-0.248-0.062-0.373
			c0.018-0.007,0.034-0.017,0.052-0.025c0.059-0.023,0.113-0.053,0.17-0.08c0.103-0.049,0.203-0.102,0.299-0.162
			c0.06-0.037,0.117-0.076,0.174-0.117c0.088-0.064,0.17-0.133,0.25-0.206c0.05-0.046,0.103-0.088,0.15-0.137
			c0.112-0.117,0.216-0.24,0.308-0.373c0.037-0.053,0.066-0.112,0.099-0.168c0.057-0.094,0.111-0.189,0.157-0.289
			c0.03-0.066,0.056-0.133,0.082-0.201c0.04-0.106,0.073-0.213,0.101-0.324c0.015-0.061,0.032-0.121,0.044-0.184
			C7.978,14.363,8,14.183,8,14c0-0.19-0.022-0.375-0.056-0.557c-0.01-0.054-0.026-0.105-0.039-0.158
			c-0.031-0.126-0.068-0.249-0.115-0.369c-0.023-0.059-0.048-0.115-0.074-0.172c-0.05-0.107-0.106-0.209-0.169-0.31
			c-0.036-0.058-0.07-0.115-0.109-0.17c-0.018-0.025-0.031-0.053-0.05-0.077c0.204-0.248,0.422-0.476,0.653-0.682
			c0.014,0.012,0.03,0.021,0.045,0.033c0.235,0.203,0.485,0.386,0.749,0.551c0.054,0.034,0.108,0.067,0.163,0.099
			c0.256,0.149,0.523,0.279,0.8,0.389c0.063,0.025,0.126,0.047,0.189,0.069c0.285,0.102,0.577,0.186,0.879,0.244
			c0.047,0.009,0.094,0.014,0.141,0.021C11.33,12.965,11.661,13,12,13s0.67-0.035,0.993-0.089c0.047-0.008,0.094-0.013,0.141-0.021
			c0.302-0.058,0.595-0.142,0.879-0.244c0.063-0.023,0.127-0.044,0.189-0.069c0.278-0.11,0.544-0.241,0.8-0.389
			c0.055-0.032,0.109-0.065,0.163-0.099c0.264-0.165,0.515-0.348,0.749-0.551c0.014-0.012,0.031-0.02,0.045-0.033
			c0.231,0.205,0.449,0.433,0.653,0.682c-0.019,0.025-0.032,0.052-0.05,0.077c-0.039,0.055-0.074,0.112-0.109,0.17
			c-0.062,0.101-0.119,0.203-0.168,0.31c-0.026,0.057-0.052,0.114-0.075,0.172c-0.047,0.12-0.084,0.243-0.115,0.369
			c-0.013,0.053-0.029,0.105-0.04,0.159C16.022,13.624,16,13.81,16,14c0,0.184,0.022,0.363,0.055,0.539
			c0.011,0.063,0.029,0.123,0.044,0.185c0.028,0.11,0.061,0.217,0.1,0.322c0.026,0.069,0.052,0.136,0.082,0.203
			c0.046,0.099,0.099,0.193,0.155,0.286c0.034,0.057,0.063,0.117,0.101,0.171c0.092,0.132,0.195,0.255,0.306,0.371
			c0.049,0.051,0.103,0.094,0.155,0.141c0.078,0.071,0.158,0.139,0.244,0.201c0.058,0.042,0.118,0.082,0.179,0.12
			c0.093,0.058,0.19,0.11,0.291,0.158c0.059,0.028,0.116,0.059,0.178,0.083c0.017,0.007,0.033,0.017,0.05,0.024
			c-0.017,0.125-0.038,0.25-0.062,0.373c-0.005-0.001-0.011,0-0.016-0.001c-0.302-0.033-0.619-0.034-0.957,0.034
			c-0.071,0.014-0.142,0.044-0.214,0.062c-0.082,0.021-0.164,0.045-0.246,0.072c-0.093,0.03-0.184,0.059-0.276,0.096
			c-0.168,0.067-0.334,0.145-0.499,0.235c-0.054,0.03-0.107,0.065-0.16,0.097c-0.137,0.082-0.272,0.171-0.405,0.267
			c-0.05,0.037-0.1,0.073-0.15,0.112c-0.174,0.136-0.344,0.281-0.506,0.442c-0.164,0.164-0.31,0.337-0.448,0.513
			C13.971,19.146,13.942,19.185,13.913,19.225z M17.698,21.841c-0.582,0.582-1.271,0.976-1.942,1.11
			c-0.598,0.117-1.098,0.013-1.41-0.298c-0.13-0.13-0.215-0.299-0.272-0.487c-0.001-0.003,0-0.006-0.001-0.01
			c-0.03-0.102-0.049-0.208-0.058-0.319c0-0.002,0-0.004-0.001-0.006c-0.008-0.099-0.006-0.203,0.002-0.308
			c0.003-0.033,0.007-0.067,0.011-0.102c0.01-0.084,0.023-0.17,0.043-0.257c0.024-0.104,0.055-0.207,0.091-0.311
			c0.03-0.088,0.066-0.175,0.104-0.264c0.04-0.09,0.08-0.179,0.128-0.268c0.036-0.067,0.077-0.134,0.118-0.201
			c0.052-0.083,0.107-0.166,0.165-0.247c0.042-0.059,0.084-0.119,0.13-0.177c0.089-0.111,0.185-0.22,0.286-0.325
			c0.022-0.023,0.041-0.048,0.064-0.07c0.026-0.026,0.054-0.047,0.08-0.073c0.103-0.098,0.208-0.191,0.316-0.277
			c0.067-0.053,0.135-0.1,0.203-0.148c0.069-0.049,0.139-0.096,0.21-0.14c0.084-0.052,0.168-0.101,0.253-0.146
			c0.05-0.026,0.1-0.048,0.15-0.072c0.614-0.286,1.232-0.374,1.713-0.204c0.009,0.003,0.019,0.001,0.028,0.004
			c0.151,0.058,0.29,0.132,0.399,0.241C19.198,19.177,18.826,20.714,17.698,21.841z M18.583,15.954
			c-0.001,0-0.001-0.001-0.002-0.001c-0.018-0.004-0.034-0.011-0.051-0.016c-0.098-0.024-0.194-0.051-0.286-0.089
			c-0.052-0.021-0.1-0.051-0.15-0.076c-0.058-0.03-0.116-0.058-0.171-0.093c-0.051-0.033-0.097-0.071-0.145-0.108
			c-0.046-0.036-0.093-0.072-0.136-0.112c-0.046-0.043-0.088-0.089-0.13-0.136c-0.037-0.042-0.073-0.085-0.107-0.13
			c-0.038-0.051-0.074-0.103-0.107-0.157c-0.031-0.05-0.058-0.102-0.084-0.154c-0.027-0.054-0.053-0.108-0.075-0.164
			c-0.025-0.065-0.044-0.133-0.063-0.201c-0.013-0.048-0.029-0.095-0.039-0.145C17.015,14.251,17,14.127,17,14
			c0-0.137,0.014-0.271,0.041-0.401c0.079-0.388,0.274-0.745,0.567-1.03C17.968,12.218,18.458,12,19,12c1.103,0,2,0.897,2,2
			s-0.897,2-2,2C18.857,16,18.718,15.983,18.583,15.954z M7.5,2C6.673,2,6,2.672,6,3.5C6,3.776,6.224,4,6.5,4S7,3.776,7,3.5
			S7.225,3,7.5,3C7.776,3,8,2.776,8,2.5S7.776,2,7.5,2z M15,16.047C15,14.917,14.142,14,13.087,14c-0.395,0-0.772,0.128-1.087,0.362
			C11.684,14.128,11.308,14,10.913,14C9.858,14,9,14.917,9,16.047c0,0.501,0.183,0.989,0.527,1.411
			c0.503,0.614,2.038,2.305,2.103,2.377C11.725,19.94,11.859,20,12,20s0.275-0.06,0.37-0.164c0.066-0.071,1.6-1.762,2.103-2.377
			C14.817,17.036,15,16.549,15,16.047z M13.699,16.826C13.36,17.24,12.498,18.202,12,18.755c-0.498-0.553-1.36-1.515-1.699-1.929
			C10.102,16.581,10,16.32,10,16.047C10,15.469,10.409,15,10.913,15c0.264,0,0.515,0.132,0.689,0.361
			c0.19,0.249,0.608,0.249,0.797,0C12.572,15.132,12.823,15,13.087,15C13.591,15,14,15.469,14,16.047
			C14,16.32,13.898,16.581,13.699,16.826z"/>
	</g>
</g>
</svg>
