<?xml version="1.0" encoding="iso-8859-1"?>
<!-- Generator: Adobe Illustrator 19.0.0, SVG Export Plug-In . SVG Version: 6.00 Build 0)  -->
<svg version="1.1" id="Layer_1" xmlns="http://www.w3.org/2000/svg" xmlns:xlink="http://www.w3.org/1999/xlink" x="0px" y="0px"
	 viewBox="0 0 24 24" style="enable-background:new 0 0 24 24;" xml:space="preserve">
<g>
	<g>
		<path d="M12,7.493c0-0.276-0.224-0.5-0.5-0.5h-4c-0.276,0-0.5,0.224-0.5,0.5s0.224,0.5,0.5,0.5h4C11.776,7.993,12,7.769,12,7.493z
			 M12,14.493c0,0.276,0.224,0.5,0.5,0.5h4c0.276,0,0.5-0.224,0.5-0.5s-0.224-0.5-0.5-0.5h-4C12.224,13.993,12,14.217,12,14.493z
			 M16.5,15.993h-6c-0.276,0-0.5,0.224-0.5,0.5s0.224,0.5,0.5,0.5h6c0.276,0,0.5-0.224,0.5-0.5S16.776,15.993,16.5,15.993z
			 M16.854,4.146C16.76,4.053,16.633,4,16.5,4h-12C4.224,4,4,4.224,4,4.5v15C4,19.776,4.224,20,4.5,20h15c0.276,0,0.5-0.224,0.5-0.5
			v-12c0-0.133-0.053-0.26-0.146-0.354L16.854,4.146z M19,19H5V5h11.293L19,7.707V19z M23.5,10c0.276,0,0.5-0.224,0.5-0.5
			S23.776,9,23.5,9h-1.492V6H23.5C23.776,6,24,5.776,24,5.5S23.776,5,23.5,5h-1.492V4.007c0-1.103-0.897-2-2-2H19V0.5
			C19,0.224,18.776,0,18.5,0S18,0.224,18,0.5v1.507h-3V0.5C15,0.224,14.776,0,14.5,0S14,0.224,14,0.5v1.507h-4V0.5
			C10,0.224,9.776,0,9.5,0S9,0.224,9,0.5v1.507H6V0.5C6,0.224,5.776,0,5.5,0S5,0.224,5,0.5v1.507H4.008c-1.103,0-2,0.897-2,2V5H0.5
			C0.224,5,0,5.224,0,5.5S0.224,6,0.5,6h1.508v3H0.5C0.224,9,0,9.224,0,9.5S0.224,10,0.5,10h1.508v4H0.5C0.224,14,0,14.224,0,14.5
			S0.224,15,0.5,15h1.508v3H0.5C0.224,18,0,18.224,0,18.5S0.224,19,0.5,19h1.508v1.007c0,1.103,0.897,2,2,2H5V23.5
			C5,23.776,5.224,24,5.5,24S6,23.776,6,23.5v-1.493h3V23.5C9,23.776,9.224,24,9.5,24s0.5-0.224,0.5-0.5v-1.493h4V23.5
			c0,0.276,0.224,0.5,0.5,0.5s0.5-0.224,0.5-0.5v-1.493h3V23.5c0,0.276,0.224,0.5,0.5,0.5s0.5-0.224,0.5-0.5v-1.493h1.008
			c1.102,0,2-0.897,2-2V19H23.5c0.276,0,0.5-0.224,0.5-0.5S23.776,18,23.5,18h-1.492v-3H23.5c0.276,0,0.5-0.224,0.5-0.5
			S23.776,14,23.5,14h-1.492v-4H23.5z M21.008,5.46C21.007,5.474,21,5.486,21,5.5s0.007,0.026,0.008,0.04V9.46
			C21.007,9.474,21,9.486,21,9.5s0.007,0.026,0.008,0.04v4.921C21.007,14.474,21,14.486,21,14.5s0.007,0.026,0.008,0.04v3.921
			C21.007,18.474,21,18.486,21,18.5s0.007,0.026,0.008,0.04v1.467c0,0.551-0.448,1-1,1H18.57c-0.024-0.003-0.045-0.014-0.07-0.014
			s-0.046,0.011-0.07,0.014H14.57c-0.024-0.003-0.045-0.014-0.07-0.014s-0.046,0.011-0.07,0.014H9.57
			c-0.024-0.003-0.045-0.014-0.07-0.014s-0.046,0.011-0.07,0.014H5.57c-0.024-0.003-0.045-0.014-0.07-0.014s-0.046,0.011-0.07,0.014
			H4.008c-0.552,0-1-0.449-1-1v-16c0-0.551,0.448-1,1-1h16c0.552,0,1,0.449,1,1V5.46z"/>
	</g>
</g>
</svg>
