<?xml version="1.0" encoding="iso-8859-1"?>
<!-- Generator: Adobe Illustrator 19.0.0, SVG Export Plug-In . SVG Version: 6.00 Build 0)  -->
<svg version="1.1" id="Layer_1" xmlns="http://www.w3.org/2000/svg" xmlns:xlink="http://www.w3.org/1999/xlink" x="0px" y="0px"
	 viewBox="0 0 24 24" style="enable-background:new 0 0 24 24;" xml:space="preserve">
<g>
	<g>
		<path d="M19.52,11h-0.01c-0.276,0-0.495,0.224-0.495,0.5S19.244,12,19.52,12s0.5-0.224,0.5-0.5S19.796,11,19.52,11z M2.5,22h1
			C3.776,22,4,21.776,4,21.5S3.776,21,3.5,21h-1C2.224,21,2,21.224,2,21.5S2.224,22,2.5,22z M6.5,21h-1C5.224,21,5,21.224,5,21.5
			S5.224,22,5.5,22h1C6.776,22,7,21.776,7,21.5S6.776,21,6.5,21z M8.5,21C8.224,21,8,21.224,8,21.5S8.224,22,8.5,22
			C8.776,22,9,21.776,9,21.5S8.776,21,8.5,21z M24,13.5v-11C24,1.122,22.878,0,21.5,0h-19C1.122,0,0,1.122,0,2.5v11
			C0,14.878,1.122,16,2.5,16h7.436c-0.139,0.68-0.579,1-1.436,1h-7C0.673,17,0,17.673,0,18.5v4C0,23.327,0.673,24,1.5,24h21
			c0.827,0,1.5-0.673,1.5-1.5v-4c0-0.827-0.673-1.5-1.5-1.5h-6c-0.857,0-1.297-0.32-1.436-1H21.5C22.878,16,24,14.878,24,13.5z
			 M1,2.5C1,1.673,1.673,1,2.5,1h19C22.327,1,23,1.673,23,2.5V13H1V2.5z M22.5,18c0.276,0,0.5,0.224,0.5,0.5v4
			c0,0.276-0.224,0.5-0.5,0.5h-21C1.224,23,1,22.776,1,22.5v-4C1,18.224,1.224,18,1.5,18H22.5z M10.634,17
			c0.168-0.274,0.258-0.621,0.31-1h3.112c0.052,0.379,0.142,0.726,0.31,1H10.634z M2.5,15c-0.651,0-1.201-0.419-1.408-1h21.816
			c-0.207,0.581-0.757,1-1.408,1H2.5z M2.5,20h7c0.276,0,0.5-0.224,0.5-0.5S9.776,19,9.5,19h-7C2.224,19,2,19.224,2,19.5
			S2.224,20,2.5,20z M12.5,22h9c0.276,0,0.5-0.224,0.5-0.5v-2c0-0.276-0.224-0.5-0.5-0.5h-9c-0.276,0-0.5,0.224-0.5,0.5v2
			C12,21.776,12.224,22,12.5,22z M13,20h8v1h-8V20z"/>
	</g>
</g>
</svg>
