<?xml version="1.0" encoding="utf-8"?>
<!-- Generated by IcoMoon.io -->
<!DOCTYPE svg PUBLIC "-//W3C//DTD SVG 1.1//EN" "http://www.w3.org/Graphics/SVG/1.1/DTD/svg11.dtd">
<svg version="1.1" xmlns="http://www.w3.org/2000/svg" xmlns:xlink="http://www.w3.org/1999/xlink" width="30" height="30" viewBox="0 0 30 30">
<path d="M21.25 7.5h-1.875v-4.375c0-0.096-0.023-0.193-0.066-0.28l-1.25-2.5c-0.106-0.211-0.323-0.345-0.559-0.345h-5c-0.236 0-0.452 0.134-0.559 0.345l-1.25 2.5c-0.044 0.088-0.066 0.184-0.066 0.28v4.375h-1.875c-0.345 0-0.625 0.28-0.625 0.625v2.878c0 1.529 0.814 2.965 2.124 3.751l4.126 2.475v9.021h-0.625c-0.345 0-0.625 0.28-0.625 0.625v0.625h-1.875c-0.345 0-0.625 0.28-0.625 0.625v1.25c0 0.345 0.28 0.625 0.625 0.625h7.5c0.345 0 0.625-0.28 0.625-0.625v-1.25c0-0.345-0.28-0.625-0.625-0.625h-1.875v-0.625c0-0.345-0.28-0.625-0.625-0.625h-0.625v-9.021l4.126-2.475c1.31-0.786 2.124-2.222 2.124-3.751v-2.878c0-0.345-0.28-0.625-0.625-0.625zM15.625 3.125c0-0.345 0.28-0.625 0.625-0.625s0.625 0.28 0.625 0.625v7.5c0 0.345-0.28 0.625-0.625 0.625s-0.625-0.28-0.625-0.625v-7.5zM13.125 3.125c0-0.345 0.28-0.625 0.625-0.625s0.625 0.28 0.625 0.625v7.5c0 0.345-0.28 0.625-0.625 0.625s-0.625-0.28-0.625-0.625v-7.5zM20.625 11.003c0 1.091-0.581 2.117-1.517 2.68l-4.108 2.465-4.108-2.465c-0.936-0.561-1.517-1.589-1.517-2.68v-2.252h1.25v1.875c0 0.096 0.022 0.193 0.066 0.28l1.25 2.5c0.106 0.211 0.322 0.345 0.559 0.345h5c0.236 0 0.452-0.134 0.559-0.345l1.25-2.5c0.044-0.086 0.066-0.182 0.066-0.28v-1.875h1.25v2.252z"></path>
</svg>
