<?xml version="1.0" encoding="utf-8"?>
<!-- Generated by IcoMoon.io -->
<!DOCTYPE svg PUBLIC "-//W3C//DTD SVG 1.1//EN" "http://www.w3.org/Graphics/SVG/1.1/DTD/svg11.dtd">
<svg version="1.1" xmlns="http://www.w3.org/2000/svg" xmlns:xlink="http://www.w3.org/1999/xlink" width="30" height="30" viewBox="0 0 30 30">
<path d="M19.055 12.255c-0.479-1.13-0.93-2.196-0.93-2.889 0-0.872 0.705-1.993 1.328-2.98 0.629-1 1.172-1.862 1.172-2.645 0-1.046-1.099-1.55-2.161-2.036-0.557-0.255-1.135-0.52-1.43-0.809-1.149-1.126-2.798-1.245-4.067 0-0.295 0.289-0.871 0.554-1.43 0.809-1.063 0.486-2.161 0.99-2.161 2.036 0 0.782 0.544 1.645 1.172 2.645 0.622 0.988 1.327 2.107 1.327 2.98 0 0.692-0.451 1.759-0.93 2.889-0.551 1.301-1.176 2.776-1.441 4.341-0.089 0.524 0.060 1.060 0.409 1.472 0.362 0.427 0.89 0.674 1.45 0.674h3.013v7.5h-1.875c-0.345 0-0.625 0.28-0.625 0.625v0.625h-0.625c-0.345 0-0.625 0.28-0.625 0.625v1.25c0 0.345 0.28 0.625 0.625 0.625h7.5c0.345 0 0.625-0.28 0.625-0.625v-1.25c0-0.345-0.28-0.625-0.625-0.625h-0.625v-0.625c0-0.345-0.28-0.625-0.625-0.625h-1.875v-7.5h3.014c0.56 0 1.087-0.245 1.45-0.674 0.347-0.413 0.496-0.949 0.409-1.472-0.266-1.565-0.891-3.040-1.442-4.341z"></path>
</svg>
