<?xml version="1.0" encoding="utf-8"?>
<!-- Generated by IcoMoon.io -->
<!DOCTYPE svg PUBLIC "-//W3C//DTD SVG 1.1//EN" "http://www.w3.org/Graphics/SVG/1.1/DTD/svg11.dtd">
<svg version="1.1" xmlns="http://www.w3.org/2000/svg" xmlns:xlink="http://www.w3.org/1999/xlink" width="30" height="30" viewBox="0 0 30 30">
<path d="M4.375 28.125c0 1.034 0.841 1.875 1.875 1.875h17.5c1.034 0 1.875-0.841 1.875-1.875v-1.875h-21.25v1.875zM23.75 6.25h-0.625v-3.125c0-0.345-0.28-0.625-0.625-0.625s-0.625 0.28-0.625 0.625v0.625h-5v-0.115c0.726-0.259 1.25-0.946 1.25-1.76 0-1.034-0.841-1.875-1.875-1.875h-3.75c-1.034 0-1.875 0.841-1.875 1.875 0 0.814 0.524 1.501 1.25 1.76v2.615h-5.625c-1.034 0-1.875 0.841-1.875 1.875v1.875h21.25v-1.875c0-1.034-0.841-1.875-1.875-1.875zM21.875 6.25h-5v-1.25h5v1.25zM4.375 25h21.25v-13.75h-21.25v13.75z"></path>
</svg>
