<?xml version="1.0" encoding="utf-8"?>
<!-- Generated by IcoMoon.io -->
<!DOCTYPE svg PUBLIC "-//W3C//DTD SVG 1.1//EN" "http://www.w3.org/Graphics/SVG/1.1/DTD/svg11.dtd">
<svg version="1.1" xmlns="http://www.w3.org/2000/svg" xmlns:xlink="http://www.w3.org/1999/xlink" width="30" height="30" viewBox="0 0 30 30">
<path d="M28.297 12.044c-2.227-5.417-7.445-8.919-13.297-8.919s-11.070 3.501-13.296 8.919c-0.096 0.234-0.043 0.501 0.136 0.679l12.276 12.276-0.808 0.808c-0.244 0.244-0.244 0.64 0 0.884 0.121 0.124 0.281 0.185 0.441 0.185s0.32-0.061 0.442-0.182l0.226-0.226c0.088 0.238 0.313 0.409 0.581 0.409s0.494-0.171 0.581-0.41l0.226 0.226c0.122 0.122 0.283 0.184 0.443 0.184s0.32-0.061 0.442-0.182c0.244-0.244 0.244-0.64 0-0.884l-0.809-0.809 12.276-12.276c0.179-0.179 0.233-0.446 0.137-0.68zM8.139 17.255c0.060-1.709 0.742-3.309 1.925-4.526l3.735 10.186-5.66-5.66zM14.375 20.854l-3.29-8.972c0.984-0.69 2.102-1.097 3.29-1.204v10.176zM15.625 21.479v-10.799c1.258 0.116 2.455 0.574 3.47 1.333l-3.47 9.466zM16.564 22.553l3.536-9.646c1.079 1.195 1.703 2.729 1.761 4.349l-5.297 5.297z"></path>
</svg>
