<?xml version="1.0" encoding="iso-8859-1"?>
<!-- Generator: Adobe Illustrator 19.0.0, SVG Export Plug-In . SVG Version: 6.00 Build 0)  -->
<svg version="1.1" id="Layer_1" xmlns="http://www.w3.org/2000/svg" xmlns:xlink="http://www.w3.org/1999/xlink" x="0px" y="0px"
	 viewBox="0 0 24 24" style="enable-background:new 0 0 24 24;" xml:space="preserve">
<g>
	<g>
		<g>
			<path d="M12,24C5.383,24,0,18.617,0,12S5.383,0,12,0s12,5.383,12,12S18.617,24,12,24z M12,1C5.935,1,1,5.935,1,12s4.935,11,11,11
				s11-4.935,11-11S18.065,1,12,1z"/>
		</g>
		<g>
			<path d="M6.5,11C5.673,11,5,10.327,5,9.5S5.673,8,6.5,8S8,8.673,8,9.5S7.327,11,6.5,11z M6.5,9C6.224,9,6,9.224,6,9.5
				S6.224,10,6.5,10S7,9.776,7,9.5S6.776,9,6.5,9z"/>
		</g>
		<g>
			<path d="M17.5,11c-0.827,0-1.5-0.673-1.5-1.5S16.673,8,17.5,8S19,8.673,19,9.5S18.327,11,17.5,11z M17.5,9
				C17.224,9,17,9.224,17,9.5s0.224,0.5,0.5,0.5S18,9.776,18,9.5S17.776,9,17.5,9z"/>
		</g>
		<g>
			<path d="M12,18c-2.258,0-4.573-0.172-5.893-2.23c-0.149-0.232-0.082-0.542,0.151-0.691c0.231-0.15,0.541-0.082,0.691,0.151
				C7.898,16.71,9.52,17,12,17s4.102-0.29,5.051-1.77c0.149-0.232,0.458-0.301,0.691-0.151c0.232,0.149,0.3,0.458,0.151,0.691
				C16.573,17.828,14.258,18,12,18z"/>
		</g>
	</g>
	<g>
		<path d="M13.5,10.5c-0.276,0-0.5-0.224-0.5-0.5c0-0.249-0.309-0.5-1-0.5s-1,0.251-1,0.5c0,0.276-0.224,0.5-0.5,0.5
			S10,10.276,10,10c0-0.747,0.619-1.5,2-1.5s2,0.753,2,1.5C14,10.276,13.776,10.5,13.5,10.5z"/>
	</g>
	<g>
		<path d="M6.5,14C4.019,14,2,11.981,2,9.5S4.019,5,6.5,5S11,7.019,11,9.5S8.981,14,6.5,14z M6.5,6C4.57,6,3,7.57,3,9.5
			S4.57,13,6.5,13S10,11.43,10,9.5S8.43,6,6.5,6z"/>
	</g>
	<g>
		<path d="M17.5,14c-2.481,0-4.5-2.019-4.5-4.5S15.019,5,17.5,5S22,7.019,22,9.5S19.981,14,17.5,14z M17.5,6C15.57,6,14,7.57,14,9.5
			s1.57,3.5,3.5,3.5S21,11.43,21,9.5S19.43,6,17.5,6z"/>
	</g>
	<g>
		<path d="M11.5,20h-2C9.224,20,9,19.776,9,19.5v-2C9,17.224,9.224,17,9.5,17s0.5,0.224,0.5,0.5V19h1v-1.5
			c0-0.276,0.224-0.5,0.5-0.5s0.5,0.224,0.5,0.5v2C12,19.776,11.776,20,11.5,20z"/>
	</g>
</g>
<g>
</g>
<g>
</g>
<g>
</g>
<g>
</g>
<g>
</g>
<g>
</g>
<g>
</g>
<g>
</g>
<g>
</g>
<g>
</g>
<g>
</g>
<g>
</g>
<g>
</g>
<g>
</g>
<g>
</g>
</svg>
