<?xml version="1.0" encoding="iso-8859-1"?>
<!-- Generator: Adobe Illustrator 19.0.0, SVG Export Plug-In . SVG Version: 6.00 Build 0)  -->
<svg version="1.1" id="Layer_1" xmlns="http://www.w3.org/2000/svg" xmlns:xlink="http://www.w3.org/1999/xlink" x="0px" y="0px"
	 viewBox="0 0 24 24" style="enable-background:new 0 0 24 24;" xml:space="preserve">
<g>
	<g>
		<path d="M19,20.749c-0.276,0-0.5-0.224-0.5-0.5v-0.988c0-0.927,0.327-1.845,0.92-2.585c1.361-1.699,2.08-3.749,2.08-5.927
			c0-2.592-1.024-5.014-2.886-6.819c-1.859-1.805-4.309-2.771-6.91-2.676C6.672,1.406,2.543,5.629,2.5,10.668
			c-0.018,2.185,0.727,4.327,2.097,6.029C5.179,17.42,5.5,18.311,5.5,19.204v1.045c0,0.276-0.224,0.5-0.5,0.5s-0.5-0.224-0.5-0.5
			v-1.045c0-0.666-0.242-1.333-0.683-1.879C2.304,15.442,1.481,13.076,1.5,10.66C1.547,5.09,6.111,0.422,11.675,0.254
			c2.863-0.065,5.581,0.964,7.636,2.958c2.057,1.995,3.189,4.672,3.189,7.537c0,2.408-0.795,4.673-2.299,6.552
			c-0.452,0.564-0.701,1.26-0.701,1.96v0.988C19.5,20.525,19.277,20.749,19,20.749z"/>
	</g>
	<g>
		<path d="M12,23.749c-0.493,0-0.854-0.392-1.146-0.707c-0.105-0.114-0.282-0.305-0.355-0.336c-0.049,0.02-0.298,0.237-0.431,0.353
			c-0.313,0.272-0.663,0.581-1.099,0.527c-0.52-0.061-0.834-0.519-1.087-0.887c-0.087-0.126-0.218-0.317-0.279-0.358
			c-0.065-0.032-0.398,0.179-0.576,0.281c-0.362,0.207-0.738,0.419-1.127,0.271c-0.839-0.318-0.979-1.097-1.081-1.665
			c-0.048-0.264-0.097-0.536-0.196-0.649c-0.182-0.208-0.16-0.524,0.048-0.706c0.206-0.182,0.522-0.162,0.706,0.047
			c0.281,0.322,0.358,0.751,0.427,1.13c0.091,0.506,0.16,0.76,0.39,0.88c0.085-0.033,0.235-0.118,0.34-0.178
			c0.372-0.212,0.839-0.479,1.329-0.371c0.385,0.083,0.619,0.422,0.845,0.751c0.103,0.15,0.295,0.428,0.389,0.461
			c0.009-0.022,0.193-0.184,0.315-0.29c0.331-0.288,0.715-0.602,1.18-0.59c0.418,0.021,0.713,0.34,0.998,0.649
			c0.117,0.127,0.334,0.362,0.427,0.387c0.061-0.025,0.277-0.26,0.395-0.387c0.284-0.309,0.578-0.628,0.997-0.649
			c0.476-0.011,0.85,0.302,1.181,0.59c0.122,0.106,0.308,0.268,0.382,0.291c0.028-0.033,0.223-0.314,0.326-0.465
			c0.228-0.328,0.462-0.668,0.846-0.75c0.488-0.104,0.957,0.158,1.331,0.371c0.104,0.06,0.255,0.145,0.34,0.177
			c0.227-0.119,0.294-0.373,0.385-0.877c0.067-0.379,0.145-0.81,0.427-1.131c0.183-0.208,0.498-0.228,0.705-0.046
			c0.208,0.182,0.229,0.498,0.047,0.706c-0.099,0.112-0.147,0.385-0.194,0.648c-0.102,0.568-0.241,1.346-1.076,1.664
			c-0.388,0.148-0.764-0.063-1.127-0.271c-0.188-0.107-0.494-0.284-0.626-0.262c-0.014,0.023-0.146,0.215-0.233,0.341
			c-0.254,0.368-0.57,0.825-1.091,0.887c-0.425,0.055-0.785-0.257-1.097-0.527c-0.134-0.117-0.384-0.333-0.48-0.346
			c-0.025,0.024-0.201,0.214-0.306,0.328C12.855,23.357,12.493,23.749,12,23.749z"/>
	</g>
	<g>
		<path d="M11,19.249c-0.995,0-1.5-0.505-1.5-1.5c0-1.058,1.639-2.83,2.141-3.348c0.193-0.196,0.51-0.204,0.707-0.011
			c0.198,0.192,0.203,0.509,0.012,0.707c-0.898,0.926-1.859,2.213-1.859,2.652c0,0.5,0.116,0.5,0.5,0.5c0.139,0,0.5-0.09,0.5-0.5
			c0-0.276,0.224-0.5,0.5-0.5s0.5,0.224,0.5,0.5C12.5,18.688,11.737,19.249,11,19.249z"/>
	</g>
	<g>
		<path d="M13,19.249c-0.737,0-1.5-0.561-1.5-1.5c0-0.276,0.224-0.5,0.5-0.5s0.5,0.224,0.5,0.5c0,0.41,0.361,0.5,0.5,0.5
			c0.384,0,0.5,0,0.5-0.5c0-0.439-0.961-1.726-1.859-2.652c-0.191-0.198-0.187-0.515,0.012-0.707
			c0.199-0.193,0.515-0.186,0.707,0.011c0.502,0.518,2.141,2.29,2.141,3.348C14.5,18.744,13.995,19.249,13,19.249z"/>
	</g>
	<g>
		<path d="M7,14.249c-1.379,0-2.5-1.122-2.5-2.5s1.121-2.5,2.5-2.5s2.5,1.122,2.5,2.5S8.379,14.249,7,14.249z M7,10.249
			c-0.827,0-1.5,0.673-1.5,1.5s0.673,1.5,1.5,1.5s1.5-0.673,1.5-1.5S7.827,10.249,7,10.249z"/>
	</g>
	<g>
		<path d="M17,14.249c-1.379,0-2.5-1.122-2.5-2.5s1.121-2.5,2.5-2.5s2.5,1.122,2.5,2.5S18.379,14.249,17,14.249z M17,10.249
			c-0.827,0-1.5,0.673-1.5,1.5s0.673,1.5,1.5,1.5s1.5-0.673,1.5-1.5S17.827,10.249,17,10.249z"/>
	</g>
</g>
<g>
</g>
<g>
</g>
<g>
</g>
<g>
</g>
<g>
</g>
<g>
</g>
<g>
</g>
<g>
</g>
<g>
</g>
<g>
</g>
<g>
</g>
<g>
</g>
<g>
</g>
<g>
</g>
<g>
</g>
</svg>
