<?xml version="1.0" encoding="utf-8"?>
<!-- Generator: Adobe Illustrator 19.0.0, SVG Export Plug-In . SVG Version: 6.00 Build 0)  -->
<svg version="1.1" id="Layer_1" xmlns="http://www.w3.org/2000/svg" xmlns:xlink="http://www.w3.org/1999/xlink" x="0px" y="0px"
	 viewBox="0 0 30 30" style="enable-background:new 0 0 30 30;" xml:space="preserve">
<path d="M27.3,23c-0.3-0.2-0.7-0.4-1.1-0.7c-0.9-0.6-1.8-1.3-3.1-1.3c-1.4,0-3.9,0.7-4.8,0.9c-0.6-1-2.2-4-1.6-6.8
	C16,15,15.5,15,15.1,15c-0.3,0-0.5-0.2-0.5-0.5c0-0.3,0.2-0.5,0.5-0.5c0.9,0,2.7,0.3,4.6,0.9c0.1,0,0.1,0,0.2,0.1c0.1,0,0.1,0,0.2,0
	c0,0,0,0,0,0c0.3,0,0.5-0.2,0.5-0.5c0-0.1,0-0.1,0-0.1c0-1-0.3-2.5-1.3-4.2c0.5-0.3,1.5-0.7,2.8-0.7c1.2,0,2.6,0.5,3.7,1
	c0.7,0.3,1.3,0.5,1.7,0.5c0.1,0,0.2,0,0.3-0.1c-0.7-0.8-2.3-2.5-3.9-2.9c-0.3-0.1-0.4-0.3-0.4-0.6c0.1-0.3,0.3-0.4,0.6-0.4
	c1.8,0.5,3.4,2.1,4.2,3C28.6,9,28,7.1,25.5,6.1C25.3,2.8,21.8,0,17.6,0c-4.1,0-6.8,1.7-8,3.2c0,0.1-0.1,0.1-0.1,0.2
	C7.5,2.8,4.1,2.5,1.6,6.2c-0.1,0.2-0.1,0.4,0,0.6C1.8,7,2,7,2.2,7c1.8-0.5,3.6,0.1,4.9,0.8C6,9,5.6,11.6,5.6,13.5
	c0,2.3,3.5,9.2,7.9,11.3c-0.1,0.2-0.3,0.5-0.5,0.8c-0.6,0.9-1.4,2.1-1.4,3.9c0,0.2,0.1,0.4,0.3,0.5c0.1,0,0.1,0,0.2,0
	c0.1,0,0.3,0,0.3-0.1c1.2-1.2,2-1.2,2.7-1.3c0.6-0.1,1.2-0.1,1.8-0.7c0.7-0.6,1.1-1.2,1.3-1.6c1,0.6,2.8,1,4.6-0.3
	c0.5-0.4,0.9-0.7,1.2-1c1.2-0.9,1.3-1.1,2.9-0.9c0.3,0,0.5-0.1,0.5-0.4C27.6,23.4,27.5,23.1,27.3,23z M19.1,4c0.3,0,0.5,0.2,0.5,0.5
	S19.3,5,19.1,5s-0.5-0.2-0.5-0.5S18.8,4,19.1,4z"/>
</svg>
