<?xml version="1.0" encoding="utf-8"?>
<!-- Generator: Adobe Illustrator 19.0.0, SVG Export Plug-In . SVG Version: 6.00 Build 0)  -->
<svg version="1.1" id="Layer_1" xmlns="http://www.w3.org/2000/svg" xmlns:xlink="http://www.w3.org/1999/xlink" x="0px" y="0px"
	 viewBox="0 0 30 30" style="enable-background:new 0 0 30 30;" xml:space="preserve">
<g>
	<path d="M3.6,3.1c0.5,1.4,2.2,3.4,3.2,4.5C7.2,7,7.8,6.4,8.2,6C7.3,4.9,4.9,3.6,3.6,3.1z"/>
	<path d="M9.5,23c0-0.3-0.4-0.9-1.2-1.5c-1.6-1.2-5.5-2.2-6.1-2c0,0,0,0,0,0c-0.3,0.4-0.5,0.7-0.5,0.7c-0.1,0.1-0.2,0.3-0.1,0.5
		c0.1,0.2,0.2,0.3,0.4,0.3c0,0,2.4,0.6,4.6,2c1.3,0.9,2.3,1.6,3.1,2.1L9.5,23L9.5,23z"/>
	<path d="M25.5,10.5c0-0.3,0.5-1.1,1-1.9c1.2-1.8,3-4.6,3-8.1C29.5,0.2,29.3,0,29,0c-5.6,0-9,3-9.8,3.8c-1.5-1-3-1.8-4.2-1.8
		s-2.8,0.8-4.2,1.8C10,3,6.6,0,1,0C0.7,0,0.5,0.2,0.5,0.5c0,3.5,1.8,6.3,3,8.1c0.5,0.8,1,1.6,1,1.9c0,0.7-2,2.4-3.8,3.6
		c-0.2,0.1-0.3,0.3-0.2,0.5s0.2,0.4,0.4,0.4c0,0,2.1,0.6,2.1,2c0,0.5-0.2,1-0.4,1.5c1.6,0.2,4.8,1.2,6.2,2.2
		c0.6,0.4,1.7,1.3,1.7,2.3v2.8v0.7c0,1.1,1.1,3.5,4.5,3.5s4.5-2.4,4.5-3.5v-0.7V23c0-0.9,1-1.8,1.7-2.3c1.4-1,4.6-2.1,6.2-2.2
		C27.2,18,27,17.5,27,17c0-1.4,2.1-2,2.1-2c0.2-0.1,0.3-0.2,0.4-0.4s-0.1-0.4-0.2-0.5C27.5,12.9,25.5,11.2,25.5,10.5z M7.1,9
		C7.1,9,7,9,7,9C6.9,9,6.8,9,6.7,8.9c-0.4-0.4-4.2-4-4.2-6.4C2.5,2.2,2.7,2,3,2c1.1,0,5.4,2.1,6.3,3.8C9.4,6,9.4,6.2,9.2,6.4
		C8.3,7.3,7.6,8.1,7.5,8.6C7.4,8.8,7.3,8.9,7.1,9z M12.5,15.7c-0.3,0.8-1.2,1.3-2.2,1.3S8.4,16.5,8,15.7C8,15.6,8,15.4,8,15.3
		c0.3-0.8,1.2-1.3,2.2-1.3s1.9,0.5,2.2,1.3C12.5,15.4,12.5,15.6,12.5,15.7z M16.9,27.6c0.2,0.2,0.2,0.5,0,0.7
		c-0.1,0.1-0.2,0.1-0.4,0.1s-0.3,0-0.4-0.1L15,27.2l-1.1,1.1c-0.2,0.2-0.5,0.2-0.7,0s-0.2-0.5,0-0.7l1.1-1.1
		C13.4,25.9,13,25.4,13,25c0-1,1.5-1,2-1s2,0,2,1c0,0.4-0.4,0.9-1.2,1.6L16.9,27.6z M22,15.7c-0.3,0.8-1.2,1.3-2.2,1.3
		s-1.9-0.5-2.2-1.3c-0.1-0.1-0.1-0.3,0-0.4c0.3-0.8,1.2-1.3,2.2-1.3s1.9,0.5,2.2,1.3C22,15.4,22,15.6,22,15.7z M23.3,8.9
		C23.3,9,23.1,9,23,9c0,0-0.1,0-0.1,0c-0.2,0-0.3-0.2-0.3-0.3c-0.1-0.5-0.8-1.3-1.7-2.3c-0.2-0.2-0.2-0.4-0.1-0.6
		C21.6,4.1,25.9,2,27,2c0.3,0,0.5,0.2,0.5,0.5C27.5,4.9,23.8,8.5,23.3,8.9z"/>
	<path d="M9.1,15.5c0.5,0.6,1.9,0.6,2.3,0C10.9,14.9,9.6,14.9,9.1,15.5z"/>
	<path d="M27.9,19.5C27.9,19.5,27.9,19.5,27.9,19.5c-0.6-0.1-4.5,0.9-6.1,2c-0.9,0.6-1.2,1.2-1.2,1.5v2.1c0.7-0.5,1.8-1.2,3.1-2.1
		c2.1-1.4,4.5-2,4.6-2c0.2,0,0.3-0.2,0.4-0.3c0.1-0.2,0-0.4-0.1-0.5C28.4,20.2,28.1,19.9,27.9,19.5z"/>
	<path d="M18.6,15.5c0.5,0.6,1.9,0.6,2.3,0C20.4,14.9,19.1,14.9,18.6,15.5z"/>
	<path d="M21.8,6c0.4,0.5,1,1.1,1.4,1.7c1.1-1.1,2.8-3.1,3.2-4.5C25.1,3.6,22.7,4.9,21.8,6z"/>
</g>
</svg>
