<?xml version="1.0" encoding="utf-8"?>
<!-- Generator: Adobe Illustrator 19.0.0, SVG Export Plug-In . SVG Version: 6.00 Build 0)  -->
<svg version="1.1" id="Layer_1" xmlns="http://www.w3.org/2000/svg" xmlns:xlink="http://www.w3.org/1999/xlink" x="0px" y="0px"
	 viewBox="0 0 30 30" style="enable-background:new 0 0 30 30;" xml:space="preserve">
<g>
	<g>
		<path d="M25.4,6.3c0.9-0.7,1.9-1.7,2-2.8c0.1-0.8-0.1-1.5-0.8-2.1c-1.7-1.7-3.3-1.5-4-1.2c-1,0.4-1.8,1.3-2.2,2.4
			C22.5,3.5,24.2,4.8,25.4,6.3z"/>
		<path d="M20.2,3.6c0,0.2-0.1,0.5-0.1,0.7h0.5l0,0l3.2,2.5l0.2,0.4c0,0,0.3-0.1,0.6-0.3C23.5,5.5,22,4.4,20.2,3.6z"/>
	</g>
	<g>
		<path d="M4.6,6.3c1.2-1.6,2.9-2.8,4.9-3.7c-0.4-1.1-1.2-2-2.2-2.4C6.6-0.1,5-0.4,3.3,1.4C2.7,2,2.4,2.7,2.5,3.5
			C2.7,4.6,3.7,5.6,4.6,6.3z"/>
		<path d="M5.4,6.9c0.3,0.2,0.5,0.3,0.6,0.3l0.2-0.4l3.2-2.5l0,0h0.5c0-0.2,0-0.5-0.1-0.7C8,4.4,6.5,5.5,5.4,6.9z"/>
	</g>
	<g>
		<path d="M10.9,27.3c-0.2,0.2-0.2,0.5,0,0.7c0,0,0.1,0.1,0.2,0.1c0.5-0.1,1-0.2,1.6-0.3c0.4-0.1,0.8-0.2,1.2-0.2H12
			c-0.3-0.2-0.4-0.4-0.4-0.4C11.4,27.1,11,27.1,10.9,27.3z"/>
		<path d="M17.4,27.8c0.5,0.1,1,0.2,1.6,0.3c0.1-0.1,0.1-0.1,0.2-0.1c0.2-0.2,0.2-0.5,0-0.7c-0.2-0.2-0.5-0.2-0.7,0
			c0,0-0.2,0.2-0.4,0.4h-1.8C16.6,27.7,17,27.8,17.4,27.8z"/>
		<path d="M17.2,28.8c-0.7-0.2-1.5-0.3-2.2-0.3s-1.5,0.2-2.2,0.3c-0.2,0-0.4,0.1-0.7,0.1C12.9,29.5,14,30,15,30s2.1-0.5,2.9-1.1
			C17.6,28.9,17.4,28.9,17.2,28.8z"/>
	</g>
	<g>
		<circle cx="22" cy="11.5" r="0.5"/>
		<circle cx="8" cy="11.5" r="0.5"/>
		<path d="M8.7,14.4c0.7-0.6,1.8-1.5,1.8-1.9c0-2.1-2.3-3.8-2.4-3.8C7.9,8.6,7.9,8.3,8,8c0.2-0.2,0.5-0.3,0.7-0.1
			c0.1,0.1,2.8,2,2.8,4.6c0,0.8-1,1.7-2.1,2.7c-1,0.9-2.2,1.9-3,3.3c-0.1,0.2-0.2,0.4-0.3,0.5c0,0,0,0,0,0c-0.1,0.2-0.2,0.4-0.2,0.5
			c0,0,0,0.1,0,0.1c-0.1,0.2-0.1,0.3-0.1,0.5c0,0,0,0.1,0,0.1c0,0.2-0.1,0.3-0.1,0.5c0,0.1,0,0.1,0,0.2c0,0.2,0,0.3,0,0.5
			c0,0.1,0,0.2,0,0.2c0,0.2,0,0.3,0,0.5c0,0.1,0,0.2,0,0.3c0,0.2,0.1,0.3,0.1,0.5c0,0.1,0,0.2,0.1,0.3c0,0.2,0.1,0.3,0.1,0.5
			C6,23.9,6,24,6,24.2c0.2,0.6,0.4,1.1,0.7,1.5c1.5,2.8,3.5,2.6,5.5,2.2c0.2,0,0.3-0.1,0.5-0.1c0.6-0.1,1.1-0.2,1.7-0.3
			c0,0,0.1,0,0.1,0c0.2,0,0.4,0,0.6,0c0.8,0,1.5,0.2,2.3,0.3c0,0,0.1,0,0.1,0c0.2,0,0.4,0.1,0.6,0.1c0.6,0.1,1.1,0.2,1.7,0.2
			c0.4,0,0.9,0,1.3-0.2c0,0,0,0,0,0c0.1,0,0.2-0.1,0.3-0.1c0,0,0,0,0,0c0.1,0,0.2-0.1,0.3-0.1c0,0,0,0,0,0c0.5-0.3,0.9-0.7,1.4-1.4
			c0,0,0,0,0,0c0.1-0.1,0.2-0.3,0.3-0.4c0,0,0,0,0,0c0.1-0.1,0.2-0.3,0.2-0.4c0,0,0,0,0-0.1c0.1-0.2,0.1-0.3,0.2-0.5c0,0,0,0,0-0.1
			c0.1-0.2,0.2-0.4,0.2-0.6c0-0.1,0.1-0.2,0.1-0.4c0.1-0.2,0.1-0.3,0.1-0.5c0-0.1,0-0.2,0.1-0.3c0-0.2,0.1-0.3,0.1-0.5
			c0-0.1,0-0.2,0-0.3c0-0.2,0-0.3,0-0.5c0-0.1,0-0.2,0-0.2c0-0.2,0-0.3,0-0.5c0-0.1,0-0.1,0-0.2c0-0.2,0-0.3-0.1-0.5
			c0,0,0-0.1,0-0.1c0-0.2-0.1-0.4-0.1-0.5c0,0,0-0.1,0-0.1c-0.1-0.2-0.1-0.4-0.2-0.5c0,0,0,0,0,0c-0.1-0.2-0.2-0.4-0.3-0.5
			c-0.8-1.4-2-2.4-3-3.3c-1.1-1-2.1-1.8-2.1-2.7c0-2.6,2.7-4.5,2.8-4.6C21.5,7.8,21.8,7.8,22,8c0.2,0.2,0.1,0.5-0.1,0.7
			c0,0-2.4,1.7-2.4,3.8c0,0.4,1.1,1.3,1.8,1.9c0.9,0.8,2.2,1.9,3.1,3.3c1.4-1.6,2.2-3.5,2.2-5.7c0-5.1-5.3-9.5-11.5-9.5
			S3.5,6.9,3.5,12c0,2.2,0.8,4.2,2.2,5.7C6.6,16.3,7.8,15.2,8.7,14.4z M23.5,11.5c0,0.8-0.7,1.5-1.5,1.5s-1.5-0.7-1.5-1.5
			S21.2,10,22,10S23.5,10.7,23.5,11.5z M21,20c0.3,0,0.5,0.2,0.5,0.5S21.3,21,21,21c-0.9,0-2.5,1.9-2.5,2.5c0,0.3-0.2,0.5-0.5,0.5
			s-0.5-0.2-0.5-0.5C17.5,22.3,19.6,20,21,20z M12,24c-0.3,0-0.5-0.2-0.5-0.5c0-0.6-1.6-2.5-2.5-2.5c-0.3,0-0.5-0.2-0.5-0.5
			S8.7,20,9,20c1.4,0,3.5,2.3,3.5,3.5C12.5,23.8,12.3,24,12,24z M8,10c0.8,0,1.5,0.7,1.5,1.5S8.8,13,8,13s-1.5-0.7-1.5-1.5
			S7.2,10,8,10z"/>
	</g>
</g>
</svg>
