<?xml version="1.0" encoding="utf-8"?>
<!-- Generator: Adobe Illustrator 19.0.0, SVG Export Plug-In . SVG Version: 6.00 Build 0)  -->
<svg version="1.1" id="Layer_1" xmlns="http://www.w3.org/2000/svg" xmlns:xlink="http://www.w3.org/1999/xlink" x="0px" y="0px"
	 viewBox="0 0 30 30" style="enable-background:new 0 0 30 30;" xml:space="preserve">
<g>
	<path d="M14,18.6C14,18.6,14,18.6,14,18.6L14,18.6L14,18.6z"/>
	<path d="M16,18.6C16,18.6,16,18.6,16,18.6L16,18.6L16,18.6z"/>
	<polygon points="15,22.9 12.2,24 12.7,25 17.3,25 17.8,24 	"/>
	<path d="M19.5,0c-2.2,0-3.1,0.2-4.5,0.6C13.6,0.2,12.8,0,10.5,0c-2.7,0-10,2.8-10,11.8c0,11.2,4,15.9,4.1,16.1C4.8,28,5,28,5.2,28
		c0.2-0.1,0.3-0.3,0.3-0.5v-1.7l2.6,3C8.2,28.9,8.4,29,8.5,29c0.2,0,0.3-0.1,0.4-0.2l1.2-1.6l4.6,2.8c0.1,0,0.2,0.1,0.3,0.1
		s0.2,0,0.3-0.1l4.6-2.8l1.2,1.6c0.1,0.1,0.2,0.2,0.4,0.2c0.1,0,0.3-0.1,0.4-0.2l2.6-3v1.7c0,0.2,0.1,0.4,0.3,0.5
		c0.2,0.1,0.4,0,0.6-0.1c0.2-0.2,4.1-4.9,4.1-16.1C29.5,2.9,22,0,19.5,0z M24.9,11.8l-3,5c-0.1,0.2-0.4,0.3-0.6,0.2L20,16.5l1.4,2.8
		c0.1,0.2,0.1,0.3,0,0.5l-3.5,6c-0.1,0.2-0.3,0.3-0.4,0.3h-5.1c-0.2,0-0.3-0.1-0.4-0.3l-3.5-6c-0.1-0.1-0.1-0.3,0-0.5l1.5-2.9
		L8.2,17c-0.2,0.1-0.5,0-0.6-0.2l-3-5c-0.1-0.1-0.1-0.3,0-0.4C4.5,11.3,6.7,5,15,5c8.3,0,10,6.3,10,6.4C25,11.5,25,11.6,24.9,11.8z"
		/>
	<path d="M15,6c-6.8,0-9,4.4-9.4,5.4l2.7,4.4l2.6-0.9c0.2-0.1,0.4,0,0.5,0.1c0.1,0.2,0.2,0.4,0.1,0.6l-1.9,3.8l2.1,3.7l2.8-1.1v-1.9
		l-1.8-1.2c-0.1-0.1-0.2-0.3-0.2-0.4c0-0.2,0.1-0.3,0.3-0.4l2-1c0.1-0.1,0.3-0.1,0.4,0l2,1c0.2,0.1,0.3,0.2,0.3,0.4
		s-0.1,0.3-0.2,0.4l-1.8,1.2V22l2.8,1.1l2.1-3.7l-1.9-3.8c-0.1-0.2-0.1-0.4,0.1-0.6C18.8,15,19,15,19.2,15l2.1,0.8l2.7-4.4
		C23.6,10.4,21.8,6,15,6z M12.5,12.5c0,0.3-0.2,0.5-0.5,0.5c-0.1,0-0.3-0.1-0.4-0.2C11.4,12.9,11.2,13,11,13c-0.8,0-1.5-0.7-1.5-1.5
		c0-0.1,0-0.1,0-0.2c-0.7,0.2-1.5,0.5-1.8,0.7c-0.1,0-0.1,0-0.2,0c-0.2,0-0.4-0.1-0.5-0.3c-0.1-0.3,0-0.5,0.3-0.7
		c0.3-0.1,2.5-1,3.7-1c0.8,0,1.5,0.7,1.5,1.5V12.5z M23,11.7c-0.1,0.2-0.3,0.3-0.5,0.3c-0.1,0-0.1,0-0.2,0c-0.4-0.2-1.1-0.4-1.8-0.7
		c0,0.1,0,0.1,0,0.2c0,0.8-0.7,1.5-1.5,1.5c-0.2,0-0.4-0.1-0.6-0.2C18.3,12.9,18.1,13,18,13c-0.3,0-0.5-0.2-0.5-0.5v-1
		c0-0.8,0.7-1.5,1.5-1.5c1.2,0,3.4,0.9,3.7,1C22.9,11.1,23.1,11.4,23,11.7z"/>
</g>
</svg>
