<?xml version="1.0" encoding="iso-8859-1"?>
<!-- Generator: Adobe Illustrator 19.0.0, SVG Export Plug-In . SVG Version: 6.00 Build 0)  -->
<svg version="1.1" id="Layer_1" xmlns="http://www.w3.org/2000/svg" xmlns:xlink="http://www.w3.org/1999/xlink" x="0px" y="0px"
	 viewBox="0 0 24 24" style="enable-background:new 0 0 24 24;" xml:space="preserve">
<g id="XMLID_69_">
	<g id="XMLID_75_">
		<path d="M19,24.024h-2c-1.93,0-3.5-1.57-3.5-3.5v-17c0-1.93,1.57-3.5,3.5-3.5h2c1.93,0,3.5,1.57,3.5,3.5v17
			C22.5,22.454,20.93,24.024,19,24.024z M17,1.024c-1.378,0-2.5,1.122-2.5,2.5v17c0,1.378,1.122,2.5,2.5,2.5h2
			c1.378,0,2.5-1.122,2.5-2.5v-17c0-1.378-1.122-2.5-2.5-2.5H17z"/>
	</g>
	<g id="XMLID_74_">
		<path d="M2,13.024c-0.107,0-0.215-0.035-0.304-0.103c-0.151-0.116-0.224-0.308-0.187-0.496l0.531-2.654
			c0.328-1.64,1.367-3.024,2.849-3.797l10.277-5.43c0.243-0.13,0.547-0.036,0.675,0.208c0.129,0.244,0.036,0.546-0.208,0.675
			L5.354,6.859C4.139,7.494,3.29,8.626,3.021,9.968l-0.33,1.652l11.085-5.543c0.247-0.123,0.547-0.023,0.671,0.224
			c0.124,0.247,0.023,0.547-0.224,0.671l-12,6C2.153,13.006,2.076,13.024,2,13.024z"/>
	</g>
	<g id="XMLID_73_">
		<path d="M15.406,23.566c-0.094,0-0.189-0.026-0.273-0.082l-7.106-4.648C7.067,18.177,6.5,17.099,6.5,15.946v-1.422
			c0-0.173,0.09-0.334,0.237-0.425C6.885,14.007,7.069,14,7.224,14.077l1.703,0.851c0.288,0.145,0.525,0.382,0.669,0.669
			l0.703,1.406c0.048,0.096,0.127,0.175,0.223,0.223l0.877,0.438l0.101-0.063v-0.155c0-0.374,0.189-0.714,0.507-0.91
			c0.317-0.196,0.706-0.214,1.041-0.047l1.175,0.587c0.247,0.124,0.347,0.424,0.224,0.671c-0.123,0.247-0.424,0.346-0.671,0.224
			l-1.175-0.587L12.5,17.446v0.155c0,0.374-0.189,0.714-0.507,0.91c-0.317,0.197-0.707,0.214-1.041,0.047l-0.878-0.438
			c-0.288-0.145-0.525-0.382-0.669-0.669l-0.703-1.406c-0.048-0.096-0.127-0.175-0.223-0.223L7.5,15.333v0.613
			c0,0.824,0.405,1.594,1.083,2.06l7.097,4.642c0.231,0.151,0.296,0.461,0.145,0.692C15.729,23.486,15.569,23.566,15.406,23.566z"/>
	</g>
	<g id="XMLID_72_">
		<path d="M9.5,6.524c-0.184,0-0.36-0.101-0.448-0.276C8.929,6.001,9.029,5.7,9.276,5.577l2-1c0.248-0.124,0.547-0.024,0.671,0.224
			c0.124,0.247,0.023,0.547-0.224,0.671l-2,1C9.652,6.507,9.576,6.524,9.5,6.524z"/>
	</g>
	<g id="XMLID_71_">
		<path d="M18,19.024c-0.276,0-0.5-0.224-0.5-0.5v-2c0-0.276,0.224-0.5,0.5-0.5s0.5,0.224,0.5,0.5v2
			C18.5,18.8,18.276,19.024,18,19.024z"/>
	</g>
	<g id="XMLID_70_">
		<path d="M19,18.024h-2c-0.276,0-0.5-0.224-0.5-0.5s0.224-0.5,0.5-0.5h2c0.276,0,0.5,0.224,0.5,0.5S19.276,18.024,19,18.024z"/>
	</g>
</g>
<g>
</g>
<g>
</g>
<g>
</g>
<g>
</g>
<g>
</g>
<g>
</g>
<g>
</g>
<g>
</g>
<g>
</g>
<g>
</g>
<g>
</g>
<g>
</g>
<g>
</g>
<g>
</g>
<g>
</g>
</svg>
