<?xml version="1.0" encoding="iso-8859-1"?>
<!-- Generator: Adobe Illustrator 19.0.0, SVG Export Plug-In . SVG Version: 6.00 Build 0)  -->
<svg version="1.1" id="Layer_1" xmlns="http://www.w3.org/2000/svg" xmlns:xlink="http://www.w3.org/1999/xlink" x="0px" y="0px"
	 viewBox="0 0 24 24" style="enable-background:new 0 0 24 24;" xml:space="preserve">
<g>
	<g>
		<path d="M14.004,15.051c-1.281,0-2.563-0.487-3.54-1.463c-1.95-1.95-1.95-5.122,0-7.071l2.171-2.307
			c0.093-0.099,0.222-0.155,0.357-0.157c0.125-0.01,0.265,0.051,0.361,0.146l6.5,6.5c0.096,0.096,0.148,0.226,0.146,0.361
			c-0.002,0.135-0.059,0.264-0.157,0.357l-2.318,2.182C16.557,14.566,15.281,15.051,14.004,15.051z M13.011,5.27l-1.829,1.943
			c-1.57,1.57-1.57,4.108-0.011,5.668s4.098,1.56,5.657,0l1.954-1.839L13.011,5.27z"/>
	</g>
	<g>
		<path d="M17.182,13.734c-0.128,0-0.256-0.049-0.354-0.146l-6.364-6.364c-0.195-0.195-0.195-0.512,0-0.707s0.512-0.195,0.707,0
			l6.364,6.364c0.195,0.195,0.195,0.512,0,0.707C17.438,13.685,17.31,13.734,17.182,13.734z"/>
	</g>
	<g>
		<path d="M3,24.052c-0.801,0-1.555-0.312-2.121-0.879C0.312,22.607,0,21.853,0,21.052s0.312-1.555,0.879-2.121l8.268-8.233
			c0.195-0.196,0.512-0.193,0.708,0.001c0.195,0.196,0.194,0.513-0.001,0.708l-8.268,8.232C1.208,20.016,1,20.518,1,21.052
			s0.208,1.036,0.586,1.414c0.756,0.756,2.072,0.756,2.828,0l8.231-8.267c0.196-0.194,0.512-0.196,0.708-0.001
			c0.195,0.195,0.196,0.512,0.001,0.708l-8.232,8.268C4.555,23.74,3.801,24.052,3,24.052z"/>
	</g>
	<g>
		<path d="M3,17.552c-0.128,0-0.256-0.049-0.354-0.146l-0.5-0.5c-0.195-0.195-0.195-0.512,0-0.707l2-2
			c0.195-0.195,0.512-0.195,0.707,0l0.5,0.5c0.195,0.195,0.195,0.512,0,0.707s-0.512,0.195-0.707,0L4.5,15.259l-1.293,1.293
			l0.146,0.146c0.195,0.195,0.195,0.512,0,0.707C3.256,17.503,3.128,17.552,3,17.552z"/>
	</g>
	<g>
		<path d="M15.5,4.052c-0.128,0-0.256-0.049-0.354-0.146c-0.195-0.195-0.195-0.512,0-0.707l3-3c0.195-0.195,0.512-0.195,0.707,0
			s0.195,0.512,0,0.707l-3,3C15.756,4.003,15.628,4.052,15.5,4.052z"/>
	</g>
	<g>
		<path d="M18,6.552c-0.128,0-0.256-0.049-0.354-0.146c-0.195-0.195-0.195-0.512,0-0.707l3-3c0.195-0.195,0.512-0.195,0.707,0
			s0.195,0.512,0,0.707l-3,3C18.256,6.503,18.128,6.552,18,6.552z"/>
	</g>
	<g>
		<path d="M20.5,9.052c-0.128,0-0.256-0.049-0.354-0.146c-0.195-0.195-0.195-0.512,0-0.707l3-3c0.195-0.195,0.512-0.195,0.707,0
			s0.195,0.512,0,0.707l-3,3C20.756,9.003,20.628,9.052,20.5,9.052z"/>
	</g>
</g>
<g>
</g>
<g>
</g>
<g>
</g>
<g>
</g>
<g>
</g>
<g>
</g>
<g>
</g>
<g>
</g>
<g>
</g>
<g>
</g>
<g>
</g>
<g>
</g>
<g>
</g>
<g>
</g>
<g>
</g>
</svg>
