<?xml version="1.0" encoding="iso-8859-1"?>
<!-- Generator: Adobe Illustrator 19.0.0, SVG Export Plug-In . SVG Version: 6.00 Build 0)  -->
<svg version="1.1" id="Layer_1" xmlns="http://www.w3.org/2000/svg" xmlns:xlink="http://www.w3.org/1999/xlink" x="0px" y="0px"
	 viewBox="0 0 24 24" style="enable-background:new 0 0 24 24;" xml:space="preserve">
<g>
	<g>
		<path d="M15.73,24.133H8.27c-0.152,0-0.297-0.07-0.392-0.189C6.667,22.416,6,20.353,6,18.133c0-1.716,0.404-3.355,1.17-4.742
			c0.088-0.159,0.256-0.258,0.438-0.258h8.785c0.182,0,0.35,0.099,0.438,0.258c0.766,1.386,1.17,3.026,1.17,4.742
			c0,2.219-0.667,4.283-1.878,5.811C16.027,24.064,15.883,24.133,15.73,24.133z M8.517,23.133h6.967
			c0.966-1.319,1.517-3.125,1.517-5c0-1.441-0.313-2.817-0.909-4H7.909C7.313,15.316,7,16.692,7,18.133
			C7,20.008,7.551,21.815,8.517,23.133z"/>
	</g>
	<g>
		<path d="M23.5,14.133h-23c-0.158,0-0.308-0.075-0.402-0.203c-0.094-0.127-0.122-0.292-0.075-0.444l4-13
			C4.087,0.276,4.28,0.133,4.5,0.133h15c0.22,0,0.413,0.143,0.478,0.353l4,13c0.047,0.151,0.019,0.316-0.075,0.444
			C23.808,14.058,23.658,14.133,23.5,14.133z M1.177,13.133h21.646l-3.692-12H4.869L1.177,13.133z"/>
	</g>
	<g>
		<path d="M20.5,19.133c-0.276,0-0.5-0.224-0.5-0.5v-5c0-0.276,0.224-0.5,0.5-0.5s0.5,0.224,0.5,0.5v5
			C21,18.91,20.776,19.133,20.5,19.133z"/>
	</g>
	<g>
		<path d="M20.5,21.133c-0.827,0-1.5-0.673-1.5-1.5s0.673-1.5,1.5-1.5s1.5,0.673,1.5,1.5S21.327,21.133,20.5,21.133z M20.5,19.133
			c-0.275,0-0.5,0.224-0.5,0.5s0.225,0.5,0.5,0.5s0.5-0.224,0.5-0.5S20.775,19.133,20.5,19.133z"/>
	</g>
	<g>
		<path d="M3.5,12.133c-0.053,0-0.105-0.008-0.158-0.026c-0.262-0.087-0.403-0.37-0.316-0.632l3-9
			c0.088-0.262,0.372-0.401,0.633-0.316c0.262,0.087,0.403,0.37,0.316,0.632l-3,9C3.904,12.001,3.709,12.133,3.5,12.133z"/>
	</g>
</g>
<g>
</g>
<g>
</g>
<g>
</g>
<g>
</g>
<g>
</g>
<g>
</g>
<g>
</g>
<g>
</g>
<g>
</g>
<g>
</g>
<g>
</g>
<g>
</g>
<g>
</g>
<g>
</g>
<g>
</g>
</svg>
