<?xml version="1.0" encoding="utf-8"?>
<!-- Generator: Adobe Illustrator 19.0.0, SVG Export Plug-In . SVG Version: 6.00 Build 0)  -->
<svg version="1.1" id="Layer_1" xmlns="http://www.w3.org/2000/svg" xmlns:xlink="http://www.w3.org/1999/xlink" x="0px" y="0px"
	 viewBox="0 0 30 30" style="enable-background:new 0 0 30 30;" xml:space="preserve">
<g>
	<g>
		<path d="M15,0C9.2,0,4.5,4.7,4.5,10.5c0,10.2,9.8,19,10.2,19.4C14.8,30,14.9,30,15,30s0.2,0,0.3-0.1c0.4-0.4,10.2-9.2,10.2-19.4
			C25.5,4.7,20.8,0,15,0z M13.4,5H17c0.8,0,1.4,0.5,1.7,1.2L19.4,9h-8.3l0.6-2.8C12,5.5,12.6,5,13.4,5z M19.5,13.8v0.7
			c0,0.3-0.2,0.5-0.5,0.5s-0.5-0.2-0.5-0.5V14h-7v0.5c0,0.3-0.2,0.5-0.5,0.5s-0.5-0.2-0.5-0.5v-0.7c-0.6-0.3-1-0.9-1-1.6v-1.4
			l1.6-0.8h8.2l1.2,0.8v1.5C20.5,12.9,20.1,13.5,19.5,13.8z"/>
	</g>
	<g>
		<path d="M12,11h-1c-0.3,0-0.5,0.2-0.5,0.5S10.7,12,11,12h1c0.3,0,0.5-0.2,0.5-0.5S12.3,11,12,11z"/>
	</g>
	<g>
		<path d="M19,11h-1c-0.3,0-0.5,0.2-0.5,0.5S17.7,12,18,12h1c0.3,0,0.5-0.2,0.5-0.5S19.3,11,19,11z"/>
	</g>
</g>
</svg>
