<?xml version="1.0" encoding="utf-8"?>
<!-- Generator: Adobe Illustrator 19.0.0, SVG Export Plug-In . SVG Version: 6.00 Build 0)  -->
<svg version="1.1" id="Layer_1" xmlns="http://www.w3.org/2000/svg" xmlns:xlink="http://www.w3.org/1999/xlink" x="0px" y="0px"
	 viewBox="0 0 30 30" style="enable-background:new 0 0 30 30;" xml:space="preserve">
<g>
	<g>
		<path d="M16,5h-2.5v3H16c0.8,0,1.5-0.7,1.5-1.5S16.8,5,16,5z"/>
	</g>
	<g>
		<path d="M13.5,12H16c0.8,0,1.5-0.7,1.5-1.5S16.8,9,16,9h-2.5V12z"/>
	</g>
	<g>
		<path d="M15,0c-4.9,0-8.5,4.6-8.5,8.8c0,0.3,0,0.6,0.1,0.9c0.3,3,1.8,5.1,3.4,7.4c2.1,3,4.5,6.3,4.5,12.4c0,0.3,0.2,0.5,0.5,0.5
			s0.5-0.2,0.5-0.5c0-6.1,2.4-9.5,4.5-12.4c1.6-2.3,3.1-4.4,3.4-7.3c0-0.3,0.1-0.6,0.1-0.9C23.5,4.6,19.9,0,15,0z M18.5,10.5
			c0,1.4-1.1,2.5-2.5,2.5h-3c-0.3,0-0.5-0.2-0.5-0.5v-8C12.5,4.2,12.7,4,13,4h3c1.4,0,2.5,1.1,2.5,2.5c0,0.8-0.4,1.5-1,2
			C18.1,9,18.5,9.7,18.5,10.5z"/>
	</g>
</g>
</svg>
