<?xml version="1.0" encoding="utf-8"?>
<!-- Generator: Adobe Illustrator 19.0.0, SVG Export Plug-In . SVG Version: 6.00 Build 0)  -->
<svg version="1.1" id="Layer_1" xmlns="http://www.w3.org/2000/svg" xmlns:xlink="http://www.w3.org/1999/xlink" x="0px" y="0px"
	 viewBox="0 0 30 30" style="enable-background:new 0 0 30 30;" xml:space="preserve">
<g>
	<g>
		<path d="M10.4,24.3c0.1,0.1,0.2,0.1,0.3,0.1c0.2,0,0.3-0.1,0.4-0.2l2-2.8c0.1-0.1,0.1-0.2,0.1-0.4c0-0.1-0.1-0.3-0.2-0.3l-8.4-5.6
			C4.4,15,4.2,15,4.1,15c-0.2,0.1-0.3,0.2-0.3,0.3l-1,3.4c-0.1,0.2,0,0.4,0.2,0.6L10.4,24.3z"/>
	</g>
	<g>
		<path d="M29.7,28.1L23,23.5c0,0-0.1,0-0.1-0.1c-0.1,0-0.1,0-0.1-0.1c0,0-0.1-0.1-0.1-0.1c0,0-0.1-0.1-0.1-0.1L9,14.1
			C8.9,14,8.8,14,8.7,14H6.3c-0.2,0-0.4,0.1-0.5,0.4s0,0.4,0.2,0.6l21,14c0.1,0.1,0.2,0.1,0.3,0.1h2.1c0.2,0,0.4-0.1,0.5-0.4
			C30,28.4,29.9,28.2,29.7,28.1z"/>
	</g>
	<g>
		<path d="M10,25.4c0-0.1-0.1-0.3-0.2-0.3L3,20.6c-0.1-0.1-0.3-0.1-0.4-0.1c-0.2,0.1-0.3,0.2-0.3,0.3l-2.2,7.5c0,0.2,0,0.3,0.1,0.4
			S0.4,29,0.5,29h6.8c0.2,0,0.3-0.1,0.4-0.2l2.2-3C10,25.7,10,25.6,10,25.4z"/>
	</g>
	<g>
		<path d="M24.1,22.4C24,22.5,24,22.7,24,22.8c0,0.1,0.1,0.3,0.2,0.3l4.2,2.8c0.1,0.1,0.2,0.1,0.3,0.1c0.1,0,0.2,0,0.3-0.1
			c0.2-0.1,0.2-0.3,0.2-0.5l-1.7-6c-0.1-0.2-0.2-0.3-0.4-0.4c-0.2,0-0.4,0-0.5,0.2L24.1,22.4z"/>
	</g>
	<g>
		<path d="M14.6,21.8c-0.2-0.1-0.5-0.1-0.7,0.1l-4.6,6.3c-0.1,0.2-0.1,0.4,0,0.5C9.4,28.9,9.6,29,9.8,29h14c0.2,0,0.4-0.1,0.5-0.4
			s0-0.4-0.2-0.6L14.6,21.8z M13.8,25.4l0.9-1.2l2.2,1.4l-0.9,1.2L13.8,25.4z"/>
	</g>
	<g>
		<path d="M20.5,18.5c0.2,0,0.3-0.1,0.4-0.3C21.2,17.9,26,9.4,26,6.5c0-3-2.5-5.5-5.5-5.5S15,3.5,15,6.5c0,2.9,4.9,11.4,5.1,11.7
			C20.2,18.4,20.4,18.5,20.5,18.5z M20.5,5C21.4,5,22,5.7,22,6.5S21.4,8,20.5,8S19,7.3,19,6.5S19.7,5,20.5,5z"/>
	</g>
	<g>
		<path d="M18.4,19.2c0.1,0.1,0.2,0.1,0.3,0.1c0.1,0,0.2,0,0.3-0.1c0.2-0.2,0.2-0.4,0.1-0.6c-0.5-0.8-1.4-2.4-2.3-4.3
			c-0.1-0.2-0.3-0.3-0.4-0.3h-4.1c-0.2,0-0.4,0.1-0.5,0.4c-0.1,0.2,0,0.4,0.2,0.6L18.4,19.2z"/>
	</g>
	<g>
		<path d="M25.5,14h-0.9c-0.2,0-0.4,0.1-0.4,0.3c-1,2-2,3.8-2.4,4.5c-0.3,0.5-0.8,0.8-1.3,0.8c0,0-0.1,0-0.1,0
			c-0.2,0-0.4,0.1-0.5,0.3c-0.1,0.2,0,0.4,0.2,0.6l2.4,1.6c0.1,0.1,0.2,0.1,0.3,0.1c0.1,0,0.3-0.1,0.4-0.2l3.5-4.4
			c0.1-0.1,0.1-0.3,0.1-0.4L26,14.4C26,14.1,25.8,14,25.5,14z"/>
	</g>
</g>
</svg>
