<?xml version="1.0" encoding="utf-8"?>
<!-- Generator: Adobe Illustrator 19.0.0, SVG Export Plug-In . SVG Version: 6.00 Build 0)  -->
<svg version="1.1" id="Layer_1" xmlns="http://www.w3.org/2000/svg" xmlns:xlink="http://www.w3.org/1999/xlink" x="0px" y="0px"
	 viewBox="0 0 30 30" style="enable-background:new 0 0 30 30;" xml:space="preserve">
<g>
	<g>
		<path d="M18.8,24.2c-0.3,0-0.5,0.2-0.5,0.4L18,26.7c-0.1,0.8-0.7,1.3-1.5,1.3h-3c-0.8,0-1.4-0.6-1.5-1.3l-0.2-2.1
			c0-0.3-0.3-0.5-0.5-0.4C9.1,24.4,4,25,4,27c0,2.1,5.7,3,11,3s11-0.9,11-3C26,25,20.9,24.4,18.8,24.2z"/>
	</g>
	<g>
		<path d="M11.7,17.9l0.4,0l1,8.6c0,0.3,0.2,0.4,0.5,0.4h3c0.3,0,0.5-0.2,0.5-0.4l1-8.6h0.3c0.5,0,1-0.2,1.3-0.6
			c0.3-0.4,0.5-0.9,0.4-1.4l-0.5-6.4C19.3,8.1,18,7,16.5,7h-3c-1.5,0-2.8,1.1-3,2.6L10,15.9c-0.1,0.5,0.1,1,0.4,1.4
			S11.2,17.9,11.7,17.9z"/>
	</g>
	<g>
		<circle cx="15" cy="3" r="3"/>
	</g>
</g>
</svg>
