<?xml version="1.0" encoding="utf-8"?>
<!-- Generator: Adobe Illustrator 19.0.0, SVG Export Plug-In . SVG Version: 6.00 Build 0)  -->
<svg version="1.1" id="Layer_1" xmlns="http://www.w3.org/2000/svg" xmlns:xlink="http://www.w3.org/1999/xlink" x="0px" y="0px"
	 viewBox="-239 289 24 24" style="enable-background:new -239 289 24 24;" xml:space="preserve">
<g>
	<path d="M-233,299.5c0.3,0,0.5-0.2,0.5-0.5v-6c0-1.4,1.1-2.5,2.5-2.5h6c1.4,0,2.5,1.1,2.5,2.5v6c0,0.3,0.2,0.5,0.5,0.5
		s0.5-0.2,0.5-0.5v-6c0-1.9-1.6-3.5-3.5-3.5h-6c-1.9,0-3.5,1.6-3.5,3.5v6C-233.5,299.3-233.3,299.5-233,299.5z"/>
	<path d="M-227,309.5c3,0,5.5-2.5,5.5-5.5s-2.5-5.5-5.5-5.5s-5.5,2.5-5.5,5.5S-230,309.5-227,309.5z M-227,299.5
		c2.5,0,4.5,2,4.5,4.5s-2,4.5-4.5,4.5s-4.5-2-4.5-4.5S-229.5,299.5-227,299.5z"/>
	<path d="M-216,295.5h-3c-0.3,0-0.5,0.2-0.5,0.5s0.2,0.5,0.5,0.5h2.5v15h-21v-15h2.5c0.3,0,0.5-0.2,0.5-0.5s-0.2-0.5-0.5-0.5h-3
		c-0.3,0-0.5,0.2-0.5,0.5v16c0,0.3,0.2,0.5,0.5,0.5h22c0.3,0,0.5-0.2,0.5-0.5v-16C-215.5,295.7-215.7,295.5-216,295.5z"/>
	<path d="M-229,306.5h0.5v0.5c0,0.3,0.2,0.5,0.5,0.5s0.5-0.2,0.5-0.5v-0.5h1v0.5c0,0.3,0.2,0.5,0.5,0.5s0.5-0.2,0.5-0.5v-0.6
		c0.6-0.2,1-0.8,1-1.4c0-0.4-0.1-0.7-0.4-1c0.2-0.3,0.4-0.6,0.4-1c0-0.7-0.4-1.2-1-1.4V301c0-0.3-0.2-0.5-0.5-0.5s-0.5,0.2-0.5,0.5
		v0.5h-1V301c0-0.3-0.2-0.5-0.5-0.5s-0.5,0.2-0.5,0.5v0.5h-0.5c-0.3,0-0.5,0.2-0.5,0.5v4C-229.5,306.3-229.3,306.5-229,306.5z
		 M-228.5,302.5h2.5c0.3,0,0.5,0.2,0.5,0.5s-0.2,0.5-0.5,0.5h-2.5V302.5z M-228.5,304.5h2.5c0.3,0,0.5,0.2,0.5,0.5s-0.2,0.5-0.5,0.5
		h-2.5V304.5z"/>
	<path d="M-223,296.5c0.3,0,0.5-0.2,0.5-0.5s-0.2-0.5-0.5-0.5h-8c-0.3,0-0.5,0.2-0.5,0.5s0.2,0.5,0.5,0.5H-223z"/>
</g>
</svg>
