<?xml version="1.0" encoding="utf-8"?>
<!-- Generator: Adobe Illustrator 19.0.0, SVG Export Plug-In . SVG Version: 6.00 Build 0)  -->
<svg version="1.1" id="Layer_1" xmlns="http://www.w3.org/2000/svg" xmlns:xlink="http://www.w3.org/1999/xlink" x="0px" y="0px"
	 viewBox="-239 289 24 24" style="enable-background:new -239 289 24 24;" xml:space="preserve">
<g>
	<path d="M-230.9,308c-1.4,0-2.5,1.1-2.5,2.5s1.1,2.5,2.5,2.5c1.4,0,2.5-1.1,2.5-2.5S-229.5,308-230.9,308z M-230.9,312
		c-0.8,0-1.5-0.7-1.5-1.5s0.7-1.5,1.5-1.5s1.5,0.7,1.5,1.5S-230.1,312-230.9,312z"/>
	<path d="M-220.9,308c-1.4,0-2.5,1.1-2.5,2.5s1.1,2.5,2.5,2.5c1.4,0,2.5-1.1,2.5-2.5S-219.5,308-220.9,308z M-220.9,312
		c-0.8,0-1.5-0.7-1.5-1.5s0.7-1.5,1.5-1.5s1.5,0.7,1.5,1.5S-220.1,312-220.9,312z"/>
	<path d="M-215.1,293.2h-4.1l-1.3-3.9c-0.1-0.4-0.8-0.4-1,0l-1.3,3.9h-4.1c-0.2,0-0.4,0.1-0.5,0.3c-0.1,0.2,0,0.4,0.2,0.6l3.3,2.4
		l-1.2,3.8c-0.1,0.2,0,0.4,0.2,0.6c0.2,0.1,0.4,0.1,0.6,0l3.2-2.3l3.2,2.3c0.1,0.1,0.2,0.1,0.3,0.1c0.1,0,0.2,0,0.3-0.1
		c0.2-0.1,0.3-0.3,0.2-0.6l-1.2-3.8l3.3-2.4c0.4-0.1,0.4-0.3,0.4-0.6C-214.7,293.3-214.9,293.2-215.1,293.2z M-219,295.9
		c-0.2,0.1-0.2,0.3-0.2,0.6l0.8,2.7l-2.3-1.7c-0.1-0.1-0.2-0.1-0.3-0.1s-0.2,0-0.3,0.1l-2.3,1.7l0.8-2.7c0.1-0.2,0-0.4-0.2-0.6
		l-2.3-1.7h2.9c0.2,0,0.4-0.1,0.5-0.3l0.9-2.8l0.9,2.8c0.1,0.2,0.3,0.3,0.5,0.3h2.9L-219,295.9z"/>
	<path d="M-218,302l-14.9,2l-1.8-9h6.8c0.3,0,0.5-0.2,0.5-0.5s-0.2-0.5-0.5-0.5h-7l-0.5-2.6c0-0.2-0.3-0.4-0.5-0.4h-3
		c-0.3,0-0.5,0.2-0.5,0.5s0.2,0.5,0.5,0.5h2.6l2.4,12.2c0.3,1.6,1.8,2.8,3.4,2.8h11.5c0.3,0,0.5-0.2,0.5-0.5s-0.2-0.5-0.5-0.5h-11.5
		c-0.8,0-1.6-0.4-2-1.1l14.6-2c0.3,0,0.5-0.3,0.4-0.6C-217.4,302.1-217.7,301.9-218,302z"/>
</g>
</svg>
