<?xml version="1.0" encoding="utf-8"?>
<!-- Generator: Adobe Illustrator 19.0.0, SVG Export Plug-In . SVG Version: 6.00 Build 0)  -->
<svg version="1.1" id="Layer_1" xmlns="http://www.w3.org/2000/svg" xmlns:xlink="http://www.w3.org/1999/xlink" x="0px" y="0px"
	 viewBox="-239 289 24 24" style="enable-background:new -239 289 24 24;" xml:space="preserve">
<g>
	<path d="M-215.4,302.5l-0.6-0.2V292c0-1.4-1.1-2.5-2.5-2.5h-18c-1.4,0-2.5,1.1-2.5,2.5v14c0,1.4,1.1,2.5,2.5,2.5h7.5v1h-3.5
		c-1.4,0-2.5,1.1-2.5,2.5c0,0.3,0.2,0.5,0.5,0.5h14c0.2,0,0.3-0.1,0.4-0.2c0.2,0.1,0.3,0.1,0.4,0.2c0.1,0,0.1,0,0.2,0
		c0.1,0,0.1,0,0.2,0c1-0.4,4.3-1.9,4.3-3.5v-6C-215,302.8-215.2,302.6-215.4,302.5z M-236.5,290.5h18c0.8,0,1.5,0.7,1.5,1.5v10.1
		l-2.4-0.6c-0.1,0-0.2,0-0.2,0l-3.4,0.9c0-0.1,0.1-0.2,0.1-0.4c0-0.8-0.7-1.5-1.5-1.5s-1.5,0.7-1.5,1.5s0.7,1.5,1.5,1.5
		c0.2,0,0.3,0,0.5-0.1v1.1h-14V292h-0.1C-238,291.2-237.3,290.5-236.5,290.5z M-224,302c0,0.3-0.2,0.5-0.5,0.5s-0.5-0.2-0.5-0.5
		s0.2-0.5,0.5-0.5S-224,301.7-224,302z M-223.9,309.5h-2.1v-1h2v0.5C-224,309.2-224,309.3-223.9,309.5z M-236.5,307.5
		c-0.8,0-1.5-0.7-1.5-1.5v-0.5h14v2H-236.5z M-227,308.5v1h-1v-1H-227z M-233.9,311.5c0.2-0.6,0.8-1,1.4-1h9.4
		c0.4,0.4,0.9,0.7,1.4,1H-233.9z M-216,309c0,0.6-1.8,1.7-3.5,2.5c-1.7-0.7-3.5-1.9-3.5-2.5v-5.6l3.5-0.9l3.5,0.9V309z"/>
	<path d="M-234.7,293.5h1.6l1.9,7.6c0.1,0.2,0.3,0.4,0.5,0.4h0.1c0.3-0.1,0.4-0.3,0.4-0.6l-0.2-1.5l7.9-0.9c0.2,0,0.4-0.2,0.4-0.4
		l1-4c0-0.1,0-0.3-0.1-0.4c-0.1-0.1-0.2-0.2-0.4-0.2H-232l-0.2-0.6c-0.1-0.2-0.3-0.4-0.5-0.4h-2c-0.3,0-0.5,0.2-0.5,0.5
		S-235,293.5-234.7,293.5z M-222.1,294.5l-0.8,3l-7.7,1l-1-4H-222.1z"/>
	<path d="M-228.5,300.5c-0.8,0-1.5,0.7-1.5,1.5s0.7,1.5,1.5,1.5s1.5-0.7,1.5-1.5S-227.7,300.5-228.5,300.5z M-228.5,302.5
		c-0.3,0-0.5-0.2-0.5-0.5s0.2-0.5,0.5-0.5s0.5,0.2,0.5,0.5S-228.2,302.5-228.5,302.5z"/>
	<path d="M-221.6,304.1c-0.2,0.1-0.4,0.3-0.4,0.5v2.4c0,0.3,0.2,0.5,0.5,0.5h1.5v2.3c0,0.2,0.1,0.3,0.2,0.4c0.1,0.1,0.2,0.1,0.3,0.1
		s0.2,0,0.2-0.1c0.9-0.4,1.7-0.9,2.1-1.3c0.1-0.1,0.2-0.2,0.2-0.4V307c0-0.3-0.2-0.5-0.5-0.5h-1.5v-0.4V306v-0.1v-1.8
		c0-0.2-0.1-0.3-0.2-0.4c-0.1-0.1-0.3-0.1-0.4-0.1L-221.6,304.1z M-220,306.5h-1V305l1-0.3V306.5z M-219,307.5h1v0.8
		c-0.2,0.2-0.6,0.4-1,0.6V307.5z"/>
</g>
</svg>
