<?xml version="1.0" encoding="utf-8"?>
<!-- Generator: Adobe Illustrator 19.0.0, SVG Export Plug-In . SVG Version: 6.00 Build 0)  -->
<svg version="1.1" id="Layer_1" xmlns="http://www.w3.org/2000/svg" xmlns:xlink="http://www.w3.org/1999/xlink" x="0px" y="0px"
	 viewBox="0 0 30 30" style="enable-background:new 0 0 30 30;" xml:space="preserve">
<g>
	<g>
		<g>
			<path d="M15,19c-3.1,0-6-0.4-6-3.5c0-2.8,2.7-3.9,2.8-4c0,0,0,0,0,0c1.8-0.6,8.3-0.6,13.1-0.5c1.7,0,3.2,0,4.1,0
				c0.2,0,0.4,0,0.5,0c0.3,0,0.5,0.2,0.5,0.5c0,0.3-0.2,0.5-0.5,0.5c-0.1,0-0.3,0-0.5,0c-2.4,0.2-5.3,2.2-7.8,3.9
				C18.8,17.6,16.7,19,15,19z M12.2,12.5c-0.2,0.1-2.2,1-2.2,3c0,1.8,1.3,2.5,5,2.5c1.3,0,3.4-1.4,5.6-2.9c1.6-1.1,3.3-2.3,5-3.1
				c-0.3,0-0.5,0-0.8,0C20.5,12,13.9,11.9,12.2,12.5z"/>
		</g>
	</g>
	<g>
		<g>
			<path d="M14,22c-4.5,0-9-3.2-9-6.5C5,12.3,4.5,9,0.5,9C0.2,9,0,8.8,0,8.6C0,8.3,0.1,8.1,0.3,8c1-0.3,1.9-0.7,2.2-0.9
				C2.6,6.1,3.5,3,6.2,3C7.1,3,10,3,10,6.5c0,1.1-0.2,1.8-0.4,2.3c0,0.1,0,0.1-0.1,0.2C9.7,9,9.8,9,10,9c0.6,0,1.1-0.1,1.8-0.3
				C12.8,8.4,14.2,8,17,8c4.2,0,9.3,2.6,10.1,3h2.4c0.3,0,0.5,0.2,0.5,0.5v1c0,0.2-0.1,0.3-0.3,0.4L24.1,16L24,16.2
				C22.6,17.7,18.4,22,14,22z M2.5,8.3C6,9.4,6,13.7,6,15.5c0,2.4,3.8,5.5,8,5.5c4,0,7.9-4.1,9.2-5.5l0.2-0.2c0,0,0.1-0.1,0.1-0.1
				l5.4-3V12h-2c-0.1,0-0.2,0-0.2-0.1C26.7,11.9,21.3,9,17,9c-2.7,0-3.9,0.4-5,0.6c-0.7,0.2-1.3,0.4-2,0.4c-0.6,0-1,0-1.3-0.4
				c-0.2-0.3-0.1-0.7,0-1.1C8.8,8,9,7.4,9,6.5C9,4.7,8.2,4,6.2,4C4,4,3.5,6.8,3.5,7.2C3.5,7.4,3.5,7.8,2.5,8.3z"/>
		</g>
	</g>
	<g>
		<g>
			<path d="M14.5,19c-0.3,0-0.5-0.2-0.5-0.5c0-0.3,0.2-0.5,0.5-0.5c0-0.1-0.1-0.4-0.1-0.5c-0.1-0.5-0.3-1.1,0.1-1.6
				c0.2-0.3,0.6-0.4,1-0.4c0.5,0,0.6-0.2,0.8-0.9C16.4,14,16.7,13,18,13c0.4,0,0.6-0.1,0.8-0.3c0.3-0.3,0.3-0.9,0.2-1.1
				c0-0.3,0.1-0.5,0.4-0.6c0.3,0,0.5,0.1,0.6,0.4c0,0.1,0.2,1.2-0.4,1.9C19.3,13.7,18.8,14,18,14c-0.5,0-0.6,0.2-0.8,0.9
				c-0.2,0.6-0.4,1.6-1.7,1.6c-0.2,0-0.3,0-0.3,0c0,0.1,0.1,0.5,0.1,0.7c0.1,0.5,0.3,1,0,1.4C15.1,18.9,14.9,19,14.5,19z"/>
		</g>
	</g>
	<g>
		<g>
			<path d="M15.5,27c-0.3,0-0.5-0.2-0.5-0.5v-5c0-0.3,0.2-0.5,0.5-0.5s0.5,0.2,0.5,0.5v5C16,26.8,15.8,27,15.5,27z"/>
		</g>
	</g>
	<g>
		<g>
			<path d="M13.5,27c-0.1,0-0.2,0-0.3-0.1c-0.2-0.2-0.3-0.5-0.1-0.7l2-2.5c0.2-0.2,0.5-0.2,0.7-0.1c0.2,0.2,0.2,0.5,0.1,0.7l-2,2.5
				C13.8,26.9,13.7,27,13.5,27z"/>
		</g>
	</g>
	<g>
		<g>
			<path d="M11.5,27c-0.3,0-0.5-0.2-0.5-0.5v-5c0-0.3,0.2-0.5,0.5-0.5s0.5,0.2,0.5,0.5v5C12,26.8,11.8,27,11.5,27z"/>
		</g>
	</g>
	<g>
		<g>
			<path d="M9.7,27c-0.1,0-0.2,0-0.3-0.1c-0.2-0.2-0.3-0.5-0.1-0.7l1.8-2.5c0.2-0.2,0.5-0.3,0.7-0.1c0.2,0.2,0.3,0.5,0.1,0.7
				l-1.8,2.5C10,26.9,9.9,27,9.7,27z"/>
		</g>
	</g>
</g>
</svg>
