<?xml version="1.0" encoding="utf-8"?>
<!-- Generator: Adobe Illustrator 19.0.0, SVG Export Plug-In . SVG Version: 6.00 Build 0)  -->
<svg version="1.1" id="Layer_1" xmlns="http://www.w3.org/2000/svg" xmlns:xlink="http://www.w3.org/1999/xlink" x="0px" y="0px"
	 viewBox="0 0 30 30" style="enable-background:new 0 0 30 30;" xml:space="preserve">
<g>
	<g>
		<g>
			<path d="M4.7,10c-1.9,0-4.2-0.9-4.2-3.5c0-2.6,3.8-5.9,6-5.9c2.1,0,3.7,2.3,3.7,4.4c0,0.3-0.2,0.5-0.5,0.5S9.2,5.1,9.2,4.9
				c0-1.5-1.2-3.4-2.7-3.4c-1.5,0-5,2.9-5,4.9C1.5,8.8,3.9,9,4.7,9c0.3,0,0.5,0.2,0.5,0.5S4.9,10,4.7,10z"/>
		</g>
	</g>
	<g>
		<g>
			<path d="M9.5,3.9c-0.1,0-0.3,0-0.4-0.1C9,3.6,9,3.3,9.2,3.1c1-1,3.3-1.6,5.8-1.6c0.3,0,0.5,0.2,0.5,0.5S15.3,2.5,15,2.5
				c-2.2,0-4.3,0.5-5.1,1.3C9.8,3.9,9.6,3.9,9.5,3.9z"/>
		</g>
	</g>
	<g>
		<g>
			<path d="M15,29.5C0.7,29.5,0.5,19,0.5,18.6c0-1.7,0.6-3.2,1.2-4.4C1.8,12.9,2.9,9.4,3,9.3C3,9.1,3.3,8.9,3.6,9
				C3.9,9.1,4,9.4,3.9,9.6c-0.5,1.5-1.2,4-1.2,4.7c0,0.1,0,0.2-0.1,0.2c-0.5,1.1-1.2,2.5-1.2,4c0,0.4,0.2,9.9,13.5,9.9
				c0.3,0,0.5,0.2,0.5,0.5S15.3,29.5,15,29.5z"/>
		</g>
	</g>
	<g>
		<g>
			<path d="M6.8,18.9c-0.2,0-0.4,0-0.6-0.1c-0.6-0.2-0.8-0.6-0.9-0.8c-0.2-1.1,0.5-2.5,1.3-3.9c0.2-0.4,0.4-0.8,0.6-1.2
				c0.6-1.2,1.6-2.8,3.4-2.7c2.1,0,3.4,1.1,3.4,2.9c0,1.3-0.6,1.8-1.4,2.6c-0.3,0.3-0.7,0.7-1.1,1.1C10.4,18,8.3,18.9,6.8,18.9z
				 M10.6,11.2c-1,0-1.7,0.7-2.4,2.2c-0.2,0.4-0.4,0.8-0.6,1.2c-0.6,1.1-1.4,2.6-1.2,3.2c0,0,0.1,0.1,0.2,0.1
				c0.8,0.2,3.1-0.5,4.3-1.8c0.4-0.5,0.8-0.9,1.2-1.2c0.8-0.7,1.1-1,1.1-1.9C13.1,11.8,12.2,11.2,10.6,11.2
				C10.6,11.2,10.6,11.2,10.6,11.2z"/>
		</g>
	</g>
	<g>
		<g>
			<path d="M25.1,10.2c-0.3,0-0.5-0.2-0.5-0.5s0.2-0.5,0.5-0.5c1.4,0,3.4-0.7,3.4-2.7c0-2.1-3.5-4.9-5-4.9c-1.5,0-2.7,1.8-2.7,3.4
				c0,0.3-0.2,0.5-0.5,0.5s-0.5-0.2-0.5-0.5c0-2.1,1.6-4.4,3.7-4.4c2.2,0,6,3.4,6,5.9C29.5,9.2,26.9,10.2,25.1,10.2z"/>
		</g>
	</g>
	<g>
		<g>
			<path d="M20.5,3.9c-0.1,0-0.3,0-0.4-0.1C19.3,3,17.2,2.5,15,2.5c-0.3,0-0.5-0.2-0.5-0.5s0.2-0.5,0.5-0.5c2.6,0,4.9,0.6,5.8,1.6
				c0.2,0.2,0.2,0.5,0,0.7C20.7,3.9,20.6,3.9,20.5,3.9z"/>
		</g>
	</g>
	<g>
		<g>
			<path d="M15,29.5c-0.3,0-0.5-0.2-0.5-0.5s0.2-0.5,0.5-0.5c13.3,0,13.5-9.5,13.5-9.9c0-1.5-0.6-2.9-1.2-4c0-0.1-0.1-0.1-0.1-0.2
				c0-0.7-0.7-3.2-1.2-4.7C26,9.4,26.1,9.1,26.4,9C26.7,8.9,27,9.1,27,9.3c0,0,1.2,3.6,1.2,4.9c0.6,1.2,1.2,2.7,1.2,4.4
				C29.5,19,29.3,29.5,15,29.5z"/>
		</g>
	</g>
	<g>
		<g>
			<path d="M23.2,18.9c-1.4,0-3.6-0.9-4.7-2.1c-0.4-0.5-0.8-0.8-1.1-1.1c-0.8-0.8-1.4-1.3-1.4-2.6c0-1.8,1.3-2.9,3.4-2.9
				c0,0,0.1,0,0.1,0c1.9,0,2.8,1.6,3.3,2.7c0.2,0.3,0.4,0.7,0.6,1.2c0.8,1.4,1.5,2.9,1.3,3.9c-0.1,0.2-0.2,0.7-0.9,0.8
				C23.6,18.9,23.4,18.9,23.2,18.9z M19.4,11.2C19.4,11.2,19.4,11.2,19.4,11.2c-1.7,0-2.5,0.6-2.5,1.9c0,0.8,0.3,1.1,1.1,1.9
				c0.3,0.3,0.7,0.7,1.2,1.2c1.1,1.3,3.4,2,4.3,1.8c0.1,0,0.2-0.1,0.2-0.1c0.2-0.7-0.6-2.2-1.2-3.2c-0.2-0.4-0.5-0.9-0.6-1.2
				C21.2,11.8,20.4,11.2,19.4,11.2z"/>
		</g>
	</g>
</g>
<g>
	<g>
		<path d="M15,17c-1.9,0-3.5-1.6-3.5-3.5c0-0.3,0.2-0.5,0.5-0.5h6c0.3,0,0.5,0.2,0.5,0.5C18.5,15.4,16.9,17,15,17z M12.6,14
			c0.2,1.1,1.2,2,2.4,2s2.2-0.9,2.4-2H12.6z"/>
	</g>
</g>
</svg>
