<?xml version="1.0" encoding="iso-8859-1"?>
<!-- Generator: Adobe Illustrator 19.0.0, SVG Export Plug-In . SVG Version: 6.00 Build 0)  -->
<svg version="1.1" id="Layer_1" xmlns="http://www.w3.org/2000/svg" xmlns:xlink="http://www.w3.org/1999/xlink" x="0px" y="0px"
	 viewBox="0 0 30 30" style="enable-background:new 0 0 30 30;" xml:space="preserve">
<g>
	<g>
		<path d="M26.691,9.886c-0.278-4.983-4.42-8.887-9.43-8.887H13.74c-4.537,0-8.352,3.206-9.24,7.511V2.767l2.777-1.852
			c0.183-0.122,0.265-0.35,0.201-0.561S7.219-0.001,6.999-0.001h-3c-0.276,0-0.5,0.224-0.5,0.5v8.556c-0.59,0.28-1,0.863-1,1.541
			v8.556c0,0.759,0.503,1.394,1.207,1.624l-0.205,3.695c-0.011,0.181,0.078,0.353,0.23,0.45l5.492,3.495
			c1.184,0.785,2.568,1.292,3.993,1.487c0.088,0.064,0.192,0.105,0.303,0.096c0.075-0.003,0.144-0.025,0.206-0.058
			c0.258,0.021,0.515,0.058,0.774,0.058h2c0.258,0,0.515-0.036,0.772-0.057c0.063,0.032,0.131,0.055,0.207,0.057h0.021
			c0.105,0,0.198-0.039,0.278-0.095c1.427-0.194,2.812-0.7,3.993-1.483l5.5-3.5c0.152-0.097,0.24-0.269,0.23-0.45L26.691,9.886z
			 M4.31,9.886l-0.544,9.801c-0.161-0.132-0.267-0.319-0.267-0.535v-8.556c0-0.398,0.349-0.722,0.778-0.722h0.034
			C4.311,9.878,4.31,9.882,4.31,9.886z M4.499,0.999h0.849L4.499,1.565V0.999z M13.739,1.999h3.521c4.114,0,7.565,2.945,8.295,6.875
			H5.444C6.174,4.944,9.626,1.999,13.739,1.999z M10.499,27.987c-0.247-0.13-0.499-0.255-0.731-0.41l-5.253-3.343l0.213-3.842
			c0,0,0,0,0,0c0,0,0,0,0,0l0.134-2.422c0.028,0.008,0.052,0.023,0.082,0.026c3.167,0.352,5.555,3.02,5.555,6.207V27.987z
			 M17.499,17.478l-0.478,11.482c-0.174,0.011-0.347,0.039-0.522,0.039h-2c-0.175,0-0.348-0.028-0.523-0.039l-0.478-11.482
			c-0.008-0.213-0.15-0.396-0.354-0.458l-5.151-1.559c-0.296-0.102-0.494-0.392-0.494-0.722v-0.981c0-0.418,0.32-0.759,0.714-0.759
			h14.571c0.394,0,0.714,0.341,0.714,0.759v0.981c0,0.33-0.198,0.62-0.475,0.716l-5.17,1.565
			C17.65,17.082,17.508,17.266,17.499,17.478z M19.499,28.433c-0.479,0.178-0.97,0.32-1.475,0.412l0.457-10.971l4.849-1.468
			c0.698-0.241,1.167-0.911,1.167-1.667v-0.981c0-0.97-0.769-1.759-1.714-1.759H8.212c-0.945,0-1.714,0.789-1.714,1.759v0.981
			c0,0.756,0.469,1.426,1.185,1.673l4.83,1.462l0.457,10.969c-0.503-0.092-0.992-0.233-1.471-0.412v-4.229
			c0-3.697-2.771-6.793-6.445-7.201c-0.048-0.004-0.093,0.006-0.139,0.014l0.392-7.074c0.001-0.023,0.006-0.045,0.007-0.068h20.371
			c0.001,0.023,0.006,0.045,0.007,0.068l0.392,7.074c-0.046-0.008-0.091-0.018-0.14-0.014c-3.674,0.409-6.445,3.504-6.445,7.201
			V28.433z M21.223,27.582c-0.23,0.153-0.479,0.276-0.724,0.406v-3.784c0-3.187,2.388-5.855,5.555-6.207
			c0.03-0.003,0.055-0.018,0.083-0.027l0.347,6.265L21.223,27.582z"/>
	</g>
</g>
</svg>
