<?xml version="1.0" encoding="iso-8859-1"?>
<!-- Generator: Adobe Illustrator 19.0.0, SVG Export Plug-In . SVG Version: 6.00 Build 0)  -->
<svg version="1.1" id="Layer_1" xmlns="http://www.w3.org/2000/svg" xmlns:xlink="http://www.w3.org/1999/xlink" x="0px" y="0px"
	 viewBox="0 0 30 30" style="enable-background:new 0 0 30 30;" xml:space="preserve">
<g>
	<g>
		<path d="M15,0C0.645,0,0,24.836,0,25.087C0,27.462,1.291,30,4.913,30c2.791,0,4.163-1.499,4.813-2.677l0.204,0.916
			c0.23,1.036,1.132,1.76,2.194,1.76c0.412,0,0.81-0.171,1.091-0.47l0.501-0.53h2.565l0.478,0.517
			c0.282,0.307,0.684,0.483,1.117,0.483c1.062,0,1.964-0.724,2.196-1.762l0.203-0.912c0.651,1.177,2.023,2.674,4.812,2.674
			c3.622,0,4.913-2.538,4.913-4.912C30,24.836,29.355,0,15,0z M9.336,25.61c-0.434,0.799-3.067,1.13-5.036,0.632
			C3.346,26,3,25.665,3,25.498c0-0.518,0.396-1.312,0.853-2.232c0.262-0.528,0.554-1.124,0.837-1.78
			c1.167,1.18,2.673,1.925,4.316,2.136c0.007,0.324,0.041,0.647,0.111,0.962l0.226,1.017C9.341,25.604,9.338,25.607,9.336,25.61z
			 M9.089,22.626c-1.547-0.21-2.956-0.965-3.993-2.162c0.222-0.611,0.422-1.271,0.579-1.988c0.814,1.426,2.296,2.402,4.042,2.494
			C9.408,21.483,9.195,22.041,9.089,22.626z M19.906,24.366l-0.813,3.655c-0.128,0.575-0.628,0.977-1.232,0.977
			c-0.139,0-0.272-0.058-0.367-0.161l-0.627-0.678c-0.095-0.103-0.227-0.161-0.367-0.161h-3c-0.137,0-0.268,0.057-0.363,0.157
			l-0.649,0.687c-0.092,0.099-0.225,0.156-0.363,0.156c-0.589,0-1.09-0.402-1.218-0.977l-0.813-3.655
			C10.031,24.087,10,23.799,10,23.511c0-0.78,0.229-1.537,0.68-2.215l1.754-3.047c0.007-0.012,0.006-0.024,0.012-0.036
			c0.086-0.018,0.173-0.036,0.258-0.054c0.787-0.168,1.53-0.326,2.296-0.326s1.509,0.158,2.296,0.326
			c0.086,0.018,0.173,0.036,0.259,0.054c0.005,0.011,0.005,0.024,0.012,0.035l1.771,3.075C19.771,21.973,20,22.73,20,23.511
			C20,23.799,19.969,24.087,19.906,24.366z M10.274,17.498c-0.701,0-1.272-0.673-1.272-1.5c0-0.827,0.571-1.5,1.272-1.5
			c0.858,0,1.641,0.17,2.398,0.336c0.742,0.162,1.51,0.33,2.329,0.33c0.819,0,1.587-0.168,2.329-0.33
			c0.756-0.165,1.54-0.336,2.398-0.336c0.701,0,1.272,0.673,1.272,1.5c0,0.827-0.571,1.5-1.272,1.5c-0.73,0-1.455-0.154-2.224-0.318
			c-0.803-0.171-1.633-0.348-2.504-0.348c-0.871,0-1.701,0.177-2.502,0.348C11.729,17.343,11.003,17.498,10.274,17.498z
			 M20.125,20.003l-0.421-0.049l-0.875-1.52c0.297,0.037,0.595,0.065,0.899,0.065c1.252,0,2.27-1.122,2.27-2.5s-1.019-2.5-2.272-2.5
			c-0.966,0-1.802,0.182-2.612,0.359c-0.721,0.158-1.404,0.307-2.115,0.307s-1.393-0.149-2.115-0.307
			c-0.809-0.176-1.645-0.359-2.612-0.359C9.02,13.499,8,14.621,8,15.999s1.019,2.5,2.272,2.5c0.304,0,0.603-0.028,0.901-0.065
			l-0.877,1.526l-0.363,0.039c-2.164,0-3.924-1.786-3.932-3.984c0.014-0.325,0.065-0.658,0.132-0.994
			c0.432-1.732,1.966-3.021,3.801-3.021c1.168,0,2.173,0.197,3.069,0.373c0.704,0.139,1.369,0.27,1.997,0.27
			s1.293-0.131,2.005-0.272c0.888-0.174,1.894-0.371,3.062-0.371c1.818,0,3.337,1.267,3.786,2.974
			c0.074,0.349,0.13,0.695,0.147,1.033C23.996,18.208,22.233,19.999,20.125,20.003z M13.498,9.779C14.1,9.897,14.619,9.999,15,9.999
			c0.381,0,0.9-0.102,1.502-0.22c0.935-0.183,2.1-0.411,3.483-0.411c0.008,0.001,0.242,0.01,0.522,0.043
			c0.717,0.655,1.35,1.406,1.879,2.201c-0.694-0.378-1.476-0.613-2.318-0.613c-1.266,0-2.322,0.207-3.263,0.392
			c-0.684,0.135-1.273,0.251-1.804,0.251c-0.531,0-1.121-0.116-1.813-0.253c-0.933-0.183-1.988-0.39-3.254-0.39
			c-0.855,0-1.647,0.241-2.349,0.63c0.529-0.801,1.164-1.557,1.885-2.216C9.761,9.378,10.006,9.368,10,9.368
			C11.398,9.368,12.563,9.596,13.498,9.779z M10.774,8.397C12.066,7.539,13.516,6.999,15,6.999c1.475,0,2.92,0.541,4.209,1.4
			c-1.136,0.064-2.102,0.244-2.9,0.399c-0.525,0.103-1.022,0.2-1.305,0.201c-0.001,0-0.003-0.001-0.004-0.001
			c-0.284,0-0.783-0.097-1.31-0.201C12.89,8.641,11.918,8.46,10.774,8.397z M24.334,18.465c0.158,0.716,0.358,1.377,0.58,1.988
			c-1.037,1.202-2.449,1.962-4,2.173c-0.107-0.588-0.319-1.146-0.623-1.649C22.026,20.895,23.518,19.907,24.334,18.465z
			 M20.664,25.609c-0.002-0.003-0.004-0.004-0.006-0.007l0.227-1.02c0.07-0.314,0.104-0.636,0.111-0.96
			c1.647-0.212,3.156-0.961,4.324-2.145c0.28,0.653,0.568,1.246,0.827,1.772C26.624,24.214,27,24.976,27,25.497
			c0,0.167-0.346,0.502-1.3,0.744C23.733,26.74,21.099,26.41,20.664,25.609z M25.087,28.999c-2.072,0-3.184-0.966-3.767-1.843
			c1.37,0.436,3.282,0.398,4.626,0.055C27.733,26.758,28,25.943,28,25.498c0-0.754-0.422-1.608-0.955-2.69
			c-0.799-1.62-1.892-3.835-2.043-6.805c0-0.001,0-0.002,0-0.004c0-0.441-0.075-0.86-0.181-1.268
			C23.921,10.532,19.659,5.998,15,5.998c-4.723,0-9.013,4.603-9.849,8.83c-0.025,0.104-0.047,0.207-0.065,0.313
			C5.041,15.422,5.012,15.701,5,15.977c-0.127,2.993-1.234,5.219-2.043,6.844C2.423,23.897,2,24.746,2,25.499
			c0,0.445,0.267,1.26,2.054,1.713C5.4,27.553,7.311,27.59,8.68,27.156c-0.583,0.878-1.695,1.843-3.767,1.843
			C1.381,28.999,1,26.263,1,25.086C1,24.845,1.602,0.999,15,0.999s14,23.846,14,24.087C29,26.263,28.619,28.999,25.087,28.999z"/>
	</g>
</g>
</svg>
