<?xml version="1.0" encoding="iso-8859-1"?>
<!-- Generator: Adobe Illustrator 19.0.0, SVG Export Plug-In . SVG Version: 6.00 Build 0)  -->
<svg version="1.1" id="Layer_1" xmlns="http://www.w3.org/2000/svg" xmlns:xlink="http://www.w3.org/1999/xlink" x="0px" y="0px"
	 viewBox="0 0 30 30" style="enable-background:new 0 0 30 30;" xml:space="preserve">
<g>
	<g>
		<path d="M29.853,7.646l-2.5-2.5c-0.195-0.195-0.512-0.195-0.707,0l-7.5,7.5c0,0-0.001,0.001-0.001,0.002
			c-0.001,0.001-0.001,0.001-0.002,0.001l-1.348,1.37c-0.194,0.197-0.191,0.513,0.006,0.707c0.098,0.096,0.225,0.144,0.351,0.144
			c0.13,0,0.259-0.05,0.356-0.15L19,14.22v1.073l-1.183,1.183c0.057-1.133-0.362-2.251-1.2-3.089l-0.011-0.01
			c-0.001-0.001-0.003-0.001-0.004-0.002l0.001-0.001c-0.834-0.835-1.956-1.252-3.074-1.196L14.707,11h1.073l-0.5,0.492
			c-0.197,0.194-0.2,0.51-0.006,0.707c0.098,0.099,0.227,0.149,0.356,0.149c0.127,0,0.254-0.048,0.351-0.143l1.37-1.348
			c0.001-0.001,0.001-0.003,0.003-0.004c0,0,0,0,0,0l7.5-7.5c0.195-0.195,0.195-0.512,0-0.707l-2.5-2.5
			c-0.153-0.152-0.384-0.19-0.576-0.094l-8.731,4.333L7.113,3.012c-0.004-0.001-0.008,0.001-0.012,0
			C7.034,2.999,6.964,2.996,6.892,3.011c-0.004,0.001-0.007,0.004-0.01,0.005C6.865,3.02,6.851,3.031,6.834,3.037
			C6.778,3.057,6.728,3.083,6.684,3.12C6.677,3.125,6.668,3.126,6.661,3.132l-0.812,0.75L4.636,2.669
			c-0.195-0.195-0.512-0.195-0.707,0L0.146,6.451c-0.195,0.195-0.195,0.512,0,0.707L1.18,8.192l-1.019,0.94
			C0.154,9.139,0.154,9.151,0.147,9.159C0.083,9.225,0.03,9.304,0.01,9.402c0,0.001,0,0.003,0,0.004
			c-0.001,0.006,0.001,0.012,0,0.018c-0.015,0.095,0.003,0.185,0.038,0.268c0.004,0.01,0,0.021,0.004,0.031L5,19.618v2.381
			c0,0.065,0.013,0.131,0.038,0.192c0.025,0.06,0.061,0.116,0.108,0.163l2.5,2.5C7.74,24.947,7.867,25,8,25h2.381l9.895,4.947
			c0.008,0.004,0.016,0.002,0.024,0.006C20.363,29.981,20.429,30,20.5,30c0.032,0,0.065-0.003,0.098-0.01
			c0.018-0.004,0.032-0.015,0.049-0.02c0.031-0.01,0.06-0.021,0.089-0.037c0.033-0.018,0.061-0.039,0.089-0.063
			c0.013-0.012,0.03-0.017,0.042-0.03l0.941-1.019l1.034,1.034C22.94,29.951,23.068,30,23.196,30c0.128,0,0.256-0.049,0.354-0.146
			l3.782-3.783c0.195-0.195,0.195-0.512,0-0.707l-1.214-1.214l0.749-0.811c0.005-0.006,0.006-0.014,0.011-0.02
			c0.041-0.048,0.071-0.103,0.091-0.166c0.004-0.011,0.011-0.02,0.014-0.031c0.001-0.005,0.005-0.009,0.006-0.014
			c0.016-0.073,0.013-0.145-0.002-0.213c-0.001-0.003,0.001-0.005,0-0.008l-1.373-5.934l4.333-8.731
			C30.043,8.029,30.005,7.798,29.853,7.646z M15.889,14.073l0.01,0.011l0.004-0.004c0.006,0.007,0.009,0.016,0.015,0.023
			c0.831,0.831,1.117,2.039,0.745,3.154l-0.187,0.56l-2.227,2.227l-1.293-1.293l2.396-2.396c0.471-0.471,0.471-1.236,0-1.707
			c-0.471-0.471-1.236-0.471-1.707,0l-2.396,2.396l-1.293-1.293l2.298-2.298l0.489-0.116C13.856,12.966,15.067,13.251,15.889,14.073
			z M10.5,19.793L10.207,19.5l4.146-4.146c0.069-0.069,0.224-0.069,0.293,0c0.069,0.069,0.069,0.224,0,0.293L10.5,19.793z
			 M6.701,4.457L7.452,7.84L5.335,9.957L1.559,9.202L6.701,4.457z M4.283,3.73l0.83,0.831L1.915,7.514L1.207,6.805L4.283,3.73z
			 M1.405,10.191l3.998,0.8C5.435,10.997,5.467,11,5.5,11c0.131,0,0.259-0.052,0.354-0.147l2.5-2.5
			c0.121-0.121,0.172-0.295,0.135-0.462L7.661,4.166L12.996,5.4c0.113,0.025,0.231,0.012,0.335-0.04L18,3.043v2.251l-2.707,2.707H13
			c-0.133,0-0.26,0.052-0.354,0.146l-8.175,8.175L1.405,10.191z M4.943,17.266l8.265-8.265H15.5c0.133,0,0.26-0.052,0.354-0.146l3-3
			C18.947,5.761,19,5.634,19,5.501V2.547l2.9-1.439L23.793,3l-7,7H14.5c-0.133,0-0.26,0.052-0.354,0.146l-8.509,8.509L4.943,17.266z
			 M6,20.793v-1.086l1-1v0.294c0,0.555-0.256,1.048-0.854,1.646L6,20.793z M8.007,23.8l-1.799-1.799l0.646-0.646
			C7.387,20.821,8,20.071,8,19.001v-1.294l1.25-1.249l1.293,1.293l-1.396,1.396c-0.195,0.195-0.195,0.512,0,0.707l1,1
			C10.244,20.951,10.372,21,10.5,21s0.256-0.049,0.353-0.146l1.396-1.396l1.293,1.293L12.293,22h-1.294
			c-1.069,0-1.819,0.612-2.357,1.15L8.007,23.8z M10.293,24H9.211l0.143-0.146C9.951,23.255,10.443,23,10.999,23h0.294L10.293,24z
			 M20.798,28.44l-0.755-3.775l2.117-2.117l3.382,0.751L20.798,28.44z M26.271,25.717l-3.075,3.076l-0.709-0.709l2.953-3.199
			L26.271,25.717z M24.638,16.669c-0.052,0.104-0.066,0.222-0.04,0.335l1.234,5.334l-3.723-0.827
			c-0.169-0.037-0.341,0.014-0.462,0.135l-2.5,2.5c-0.118,0.119-0.17,0.288-0.137,0.452l0.8,3.998l-6.132-3.066l8.176-8.176
			C21.947,17.26,22,17.133,22,17v-2.293L24.707,12h2.248L24.638,16.669z M27.452,11H24.5c-0.133,0-0.26,0.052-0.354,0.146l-3,3
			C21.053,14.24,21,14.367,21,14.5v2.293l-8.265,8.265l-1.391-0.695l5.787-5.787c0.062-0.035,0.103-0.087,0.146-0.146l2.576-2.576
			c0.093-0.094,0.146-0.221,0.146-0.354v-2.293l7-7L28.891,8.1L27.452,11z"/>
	</g>
</g>
</svg>
