<?xml version="1.0" encoding="iso-8859-1"?>
<!-- Generator: Adobe Illustrator 19.0.0, SVG Export Plug-In . SVG Version: 6.00 Build 0)  -->
<svg version="1.1" id="Layer_1" xmlns="http://www.w3.org/2000/svg" xmlns:xlink="http://www.w3.org/1999/xlink" x="0px" y="0px"
	 viewBox="0 0 30 30" style="enable-background:new 0 0 30 30;" xml:space="preserve">
<g>
	<g>
		<path d="M29.5,17.5H29v-3h0.5c0.276,0,0.5-0.224,0.5-0.5s-0.224-0.5-0.5-0.5H29v-0.214c0-0.985-0.897-1.786-2-1.786h-1.5
			c-0.276,0-0.5,0.224-0.5,0.5v0.5h-1.499c0,0,0,0-0.001,0s0,0,0,0c-0.014,0-0.026,0.007-0.039,0.008
			c-0.053,0.004-0.105,0.011-0.153,0.031c-0.055,0.023-0.102,0.057-0.145,0.097c-0.005,0.004-0.011,0.006-0.016,0.011l0,0
			c0,0,0,0,0,0L22.294,13.5h-1.298c-0.029-1.64-1.354-2.966-2.995-2.995c0-0.002,0.001-0.004,0.001-0.006V8
			c0-0.276-0.224-0.5-0.5-0.5c-1.601,0-3.237,2.449-3.419,2.728c-0.055,0.085-0.072,0.179-0.072,0.273H3.052
			C1.368,10.5,0,11.87,0,13.553v5.894C0,21.13,1.369,22.5,3.052,22.5h14.895c1.312,0,2.424-0.836,2.854-2H25V21
			c0,0.276,0.224,0.5,0.5,0.5H27c1.103,0,2-0.801,2-1.785V18.5h0.5c0.276,0,0.5-0.224,0.5-0.5S29.776,17.5,29.5,17.5z M17.002,8.643
			V10.5c0,0,0,0.001,0,0.001h-1.894C15.559,9.875,16.331,8.986,17.002,8.643z M20.002,19.447c0,1.132-0.921,2.053-2.053,2.053H8V21
			c0-0.276-0.224-0.5-0.5-0.5S7,20.724,7,21v0.5H6V21c0-0.276-0.224-0.5-0.5-0.5S5,20.724,5,21v0.5H4.011L4,20.99
			C3.995,20.717,3.771,20.5,3.5,20.5H3.49C3.214,20.506,2.995,20.735,3,21.011l0.01,0.485C1.899,21.473,1,20.565,1,19.447v-5.894
			C1,12.422,1.922,11.5,3.054,11.5h14.895c0.746,0,1.393,0.404,1.753,1H4.701c-0.937,0-1.7,0.762-1.7,1.7v3.6
			c0,0.937,0.762,1.7,1.7,1.7h7.8c0.276,0,0.5-0.224,0.5-0.5v-0.5h7.001V19.447z M5.5,17.5H12v1h-7.3c-0.386,0-0.7-0.314-0.7-0.7
			v-3.6c0-0.386,0.314-0.7,0.7-0.7H5V17C5,17.276,5.224,17.5,5.5,17.5z M6,16.5v-3h6v3H6z M20.002,13.995
			C20.002,13.997,20,13.999,20,14s0.001,0.003,0.001,0.005V17.5H13v-4h6.996c0,0.018,0.005,0.035,0.005,0.053V13.995z M23,19.5
			h-2.005c0-0.018,0.005-0.035,0.005-0.053V14.5h1.5c0.133,0,0.26-0.053,0.354-0.146L23,14.208V19.5z M25,19.5h-1v-6h1V19.5z
			 M28,19.714c0,0.433-0.448,0.786-1,0.786h-1v-7.495c0-0.002,0.001-0.003,0.001-0.005S26,12.997,26,12.995V12.5h1
			c0.552,0,1,0.353,1,0.786V19.714z"/>
	</g>
</g>
</svg>
