<?xml version="1.0" encoding="iso-8859-1"?>
<!-- Generator: Adobe Illustrator 19.0.0, SVG Export Plug-In . SVG Version: 6.00 Build 0)  -->
<svg version="1.1" id="Layer_1" xmlns="http://www.w3.org/2000/svg" xmlns:xlink="http://www.w3.org/1999/xlink" x="0px" y="0px"
	 viewBox="0 0 30 30" style="enable-background:new 0 0 30 30;" xml:space="preserve">
<g>
	<g>
		<path d="M21.944,10.261c-0.087-0.164-0.256-0.267-0.442-0.267h-13c-0.186,0-0.355,0.103-0.442,0.267
			c-0.087,0.164-0.075,0.363,0.03,0.516c0.09,0.131,2.261,3.217,6.912,3.217s6.822-3.086,6.912-3.217
			C22.019,10.625,22.031,10.425,21.944,10.261z M15.002,12.995c-2.725,0-4.479-1.176-5.375-2h10.74
			C19.465,11.818,17.701,12.995,15.002,12.995z M27.656,21.019l-2.833-0.944l-1.825-2.841c-0.037-0.058-0.085-0.106-0.138-0.142
			c0.623-3.035,0.642-5.375,0.642-5.598c0-3.342-1.935-7.912-2.578-8.678c-0.12-0.143-0.297-0.254-0.501-0.352
			c-0.247-0.555-1.391-2.47-5.421-2.47c-4.029,0-5.173,1.916-5.42,2.47C9.378,2.562,9.201,2.673,9.081,2.816
			c-0.643,0.766-2.579,5.337-2.579,8.678c0,0.222,0.019,2.562,0.642,5.596c-0.055,0.037-0.104,0.085-0.142,0.144l-1.825,2.841
			l-2.833,0.944c-0.168,0.056-0.294,0.197-0.331,0.37c-0.038,0.173,0.02,0.353,0.15,0.473c0.362,0.333,8.901,8.143,12.839,8.143
			s12.477-7.81,12.835-8.143c0.129-0.12,0.187-0.3,0.15-0.473C27.95,21.216,27.824,21.076,27.656,21.019z M15.002,0.995
			c2.16,0,3.314,0.587,3.914,1.113c-0.975-0.102-2.271-0.113-3.914-0.113c-1.643,0-2.94,0.01-3.915,0.113
			C11.688,1.582,12.842,0.995,15.002,0.995z M9.848,3.458c0.387-0.464,3.03-0.464,5.154-0.464c2.124,0,4.767,0,5.155,0.464
			c0.291,0.347,1.171,2.26,1.767,4.417c-1.261-1.629-3.358-2.881-6.847-2.881H15.06v0.5l-0.119-0.5
			c-3.497-0.002-5.596,1.245-6.858,2.87C8.679,5.712,9.558,3.805,9.848,3.458z M3.472,21.698l2.187-0.729
			c0.109-0.036,0.201-0.108,0.263-0.204l1.52-2.365c0.833,3.318,2.406,7.167,5.373,9.982C9.807,27,5.654,23.63,3.472,21.698z
			 M15.002,28.889C9.104,24.742,7.517,15.81,7.504,11.554c0.808-3.688,3.303-5.559,7.422-5.559h0.153
			c4.119,0,6.615,1.873,7.423,5.562C22.486,15.815,20.899,24.744,15.002,28.889z M17.193,28.378
			c2.963-2.814,4.536-6.659,5.368-9.974l1.517,2.361c0.062,0.096,0.155,0.168,0.263,0.204l2.187,0.729
			C24.348,23.629,20.2,26.995,17.193,28.378z M14.691,25.031c-0.012-0.005-1.188-0.5-1.188-2.037c0-1.504,0-6.079-2.639-8.845
			c-0.189-0.2-0.507-0.207-0.706-0.017c-0.201,0.19-0.208,0.507-0.017,0.707c2.361,2.476,2.361,6.75,2.361,8.155
			c0,2.202,1.739,2.933,1.812,2.963c0.062,0.025,0.125,0.037,0.188,0.037c0.197,0,0.385-0.118,0.463-0.312
			C15.07,25.427,14.947,25.135,14.691,25.031z M19.141,14.149c-2.576,2.699-3.139,7.661-3.139,9.345c0,0.276,0.224,0.5,0.5,0.5
			s0.5-0.224,0.501-0.5c0-1.573,0.513-6.194,2.861-8.655c0.191-0.2,0.183-0.517-0.017-0.707
			C19.648,13.943,19.33,13.951,19.141,14.149z"/>
	</g>
</g>
</svg>
