<?xml version="1.0" encoding="iso-8859-1"?>
<!-- Generator: Adobe Illustrator 19.2.1, SVG Export Plug-In . SVG Version: 6.00 Build 0)  -->
<svg version="1.1" id="Layer_1" xmlns="http://www.w3.org/2000/svg" xmlns:xlink="http://www.w3.org/1999/xlink" x="0px" y="0px"
	 viewBox="0 0 24 24" style="enable-background:new 0 0 24 24;" xml:space="preserve">
<g>
	<g>
		<path d="M11.001,18.5c0-3.584,2.916-6.5,6.5-6.5c0.624,0,1.249,0.092,1.857,0.273c0.152,0.047,0.314,0.016,0.441-0.078
			C19.925,12.101,20,11.952,20,11.794V1.5C20,0.673,19.327,0,18.5,0H18v3.5C18,4.327,17.327,5,16.5,5S15,4.327,15,3.5
			c0-0.651,0.419-1.201,1-1.408V3.5C16,3.776,16.224,4,16.5,4S17,3.776,17,3.5V0h-3v3.5C14,4.327,13.327,5,12.5,5S11,4.327,11,3.5
			c0-0.651,0.419-1.201,1-1.408V3.5C12,3.776,12.224,4,12.5,4S13,3.776,13,3.5V0h-3v3.5C10,4.327,9.327,5,8.5,5S7,4.327,7,3.5
			c0-0.651,0.419-1.201,1-1.408V3.5C8,3.776,8.224,4,8.5,4S9,3.776,9,3.5V0H6v3.5C6,4.327,5.327,5,4.5,5S3,4.327,3,3.5
			c0-0.651,0.419-1.201,1-1.408V3.5C4,3.776,4.224,4,4.5,4S5,3.776,5,3.5V0H2.5C1.673,0,1,0.673,1,1.5v19C1,21.327,1.673,22,2.5,22
			h8.683c0.171,0,0.331-0.088,0.423-0.233c0.091-0.145,0.103-0.327,0.029-0.482C11.214,20.401,11.001,19.464,11.001,18.5z M17.5,13
			c-3.033,0-5.5,2.467-5.5,5.5s2.467,5.5,5.5,5.5s5.5-2.467,5.5-5.5S20.533,13,17.5,13z M19.5,19H18v1.5c0,0.276-0.224,0.5-0.5,0.5
			S17,20.776,17,20.5V19h-1.5c-0.276,0-0.5-0.224-0.5-0.5s0.224-0.5,0.5-0.5H17v-1.5c0-0.276,0.224-0.5,0.5-0.5s0.5,0.224,0.5,0.5
			V18h1.5c0.276,0,0.5,0.224,0.5,0.5S19.776,19,19.5,19z"/>
	</g>
</g>
</svg>
