<?xml version="1.0" encoding="iso-8859-1"?>
<!-- Generator: Adobe Illustrator 19.2.1, SVG Export Plug-In . SVG Version: 6.00 Build 0)  -->
<svg version="1.1" id="Layer_1" xmlns="http://www.w3.org/2000/svg" xmlns:xlink="http://www.w3.org/1999/xlink" x="0px" y="0px"
	 viewBox="0 0 24 24" style="enable-background:new 0 0 24 24;" xml:space="preserve">
<g>
	<g>
		<path d="M13.5,16h6c0.276,0,0.5-0.224,0.5-0.5v-14C20,0.673,19.327,0,18.5,0H18v3.5C18,4.327,17.327,5,16.5,5
			C15.673,5,15,4.327,15,3.5c0-0.651,0.419-1.201,1-1.408V3.5C16,3.776,16.224,4,16.5,4S17,3.776,17,3.5V0h-3v3.5
			C14,4.327,13.327,5,12.5,5C11.673,5,11,4.327,11,3.5c0-0.651,0.419-1.201,1-1.408V3.5C12,3.776,12.224,4,12.5,4S13,3.776,13,3.5V0
			h-3v3.5C10,4.327,9.327,5,8.5,5C7.673,5,7,4.327,7,3.5c0-0.651,0.419-1.201,1-1.408V3.5C8,3.776,8.224,4,8.5,4S9,3.776,9,3.5V0H6
			v3.5C6,4.327,5.327,5,4.5,5C3.673,5,3,4.327,3,3.5c0-0.651,0.419-1.201,1-1.408V3.5C4,3.776,4.224,4,4.5,4S5,3.776,5,3.5V0H2.5
			C1.673,0,1,0.673,1,1.5v19C1,21.327,1.673,22,2.5,22h6.101c0.15,0,0.292-0.067,0.387-0.184c0.095-0.116,0.133-0.269,0.103-0.417
			C9.031,21.103,9,20.8,9,20.499C9,18.019,11.019,16,13.5,16z M20.5,17h-7c-1.93,0-3.5,1.57-3.5,3.5s1.57,3.5,3.5,3.5H19
			c0.276,0,0.5-0.224,0.5-0.5S19.276,23,19,23h-5.5c-1.378,0-2.5-1.122-2.5-2.5s1.122-2.5,2.5-2.5h7c0.827,0,1.5,0.673,1.5,1.5
			c0,0.827-0.673,1.5-1.5,1.5h-7c-0.276,0-0.5-0.224-0.5-0.5s0.224-0.5,0.5-0.5H19c0.276,0,0.5-0.224,0.5-0.5S19.276,19,19,19h-5.5
			c-0.827,0-1.5,0.673-1.5,1.5c0,0.827,0.673,1.5,1.5,1.5h7c1.378,0,2.5-1.122,2.5-2.5S21.878,17,20.5,17z"/>
	</g>
</g>
</svg>
