<?xml version="1.0" encoding="iso-8859-1"?>
<!-- Generator: Adobe Illustrator 19.2.1, SVG Export Plug-In . SVG Version: 6.00 Build 0)  -->
<svg version="1.1" id="Layer_1" xmlns="http://www.w3.org/2000/svg" xmlns:xlink="http://www.w3.org/1999/xlink" x="0px" y="0px"
	 viewBox="0 0 24 24" style="enable-background:new 0 0 24 24;" xml:space="preserve">
<g>
	<g>
		<path d="M14.811,21.072l-0.688-0.344c-0.133-0.067-0.289-0.07-0.428-0.009c-0.39,0.174-0.798,0.262-1.212,0.262
			c-1.654,0-3-1.346-3-3s1.346-3,3-3c0.414,0,0.822,0.088,1.212,0.262c0.138,0.06,0.294,0.057,0.428-0.009l3.18-1.59
			c0.134-0.067,0.229-0.189,0.264-0.334c0.278-1.205,1.29-2.126,2.517-2.292c0.248-0.034,0.433-0.246,0.433-0.496V1.519
			c0-0.827-0.673-1.5-1.5-1.5h-0.501v3.5c0,0.827-0.673,1.5-1.5,1.5c-0.827,0-1.5-0.673-1.5-1.5c0-0.651,0.419-1.201,1-1.408v1.408
			c0,0.276,0.224,0.5,0.5,0.5s0.5-0.224,0.5-0.5v-3.5h-3v3.5c0,0.827-0.673,1.5-1.5,1.5c-0.827,0-1.5-0.673-1.5-1.5
			c0-0.651,0.419-1.201,1-1.408v1.408c0,0.276,0.224,0.5,0.5,0.5s0.5-0.224,0.5-0.5v-3.5h-3v3.5c0,0.827-0.673,1.5-1.5,1.5
			c-0.827,0-1.5-0.673-1.5-1.5c0-0.651,0.419-1.201,1-1.408v1.408c0,0.276,0.224,0.5,0.5,0.5s0.5-0.224,0.5-0.5v-3.5h-3v3.5
			c0,0.827-0.673,1.5-1.5,1.5c-0.827,0-1.5-0.673-1.5-1.5c0-0.651,0.419-1.201,1-1.408v1.408c0,0.276,0.224,0.5,0.5,0.5
			s0.5-0.224,0.5-0.5v-3.5h-2.5c-0.827,0-1.5,0.673-1.5,1.5v19c0,0.827,0.673,1.5,1.5,1.5h11.571c0.231,0,0.434-0.16,0.486-0.385
			C15.127,21.408,15.018,21.175,14.811,21.072z M20.484,19.981c-0.682,0-1.285,0.345-1.646,0.868l-4.467-2.234
			c0.068-0.201,0.113-0.411,0.113-0.634c0-0.223-0.045-0.434-0.113-0.634l4.467-2.234c0.361,0.523,0.964,0.868,1.646,0.868
			c1.103,0,2-0.897,2-2c0-1.103-0.897-2-2-2c-1.103,0-2,0.897-2,2c0,0.062,0.013,0.121,0.018,0.182l-4.682,2.341
			c-0.355-0.321-0.821-0.523-1.336-0.523c-1.103,0-2,0.897-2,2c0,1.103,0.897,2,2,2c0.515,0,0.981-0.201,1.336-0.523l4.682,2.341
			c-0.006,0.061-0.018,0.119-0.018,0.182c0,1.103,0.897,2,2,2c1.103,0,2-0.897,2-2C22.484,20.878,21.586,19.981,20.484,19.981z"/>
	</g>
</g>
</svg>
