<?xml version="1.0" encoding="iso-8859-1"?>
<!-- Generator: Adobe Illustrator 19.2.1, SVG Export Plug-In . SVG Version: 6.00 Build 0)  -->
<svg version="1.1" id="Layer_1" xmlns="http://www.w3.org/2000/svg" xmlns:xlink="http://www.w3.org/1999/xlink" x="0px" y="0px"
	 viewBox="0 0 24 24" style="enable-background:new 0 0 24 24;" xml:space="preserve">
<g>
	<g>
		<path d="M20,20c-0.682,0-1.285,0.345-1.646,0.868l-4.467-2.234C13.955,18.434,14,18.223,14,18s-0.045-0.434-0.113-0.634
			l4.467-2.234C18.715,15.655,19.318,16,20,16c1.103,0,2-0.897,2-2s-0.897-2-2-2s-2,0.897-2,2c0,0.062,0.013,0.121,0.018,0.182
			l-4.682,2.341C12.981,16.201,12.515,16,12,16c-1.103,0-2,0.897-2,2s0.897,2,2,2c0.515,0,0.981-0.201,1.336-0.523l4.682,2.341
			C18.013,21.879,18,21.938,18,22c0,1.103,0.897,2,2,2s2-0.897,2-2S21.103,20,20,20z M6.5,4h9C15.776,4,16,3.776,16,3.5v-1
			C16,1.673,15.327,1,14.5,1h-1.774C12.372,0.39,11.717,0,11,0S9.628,0.39,9.274,1H7.5C6.673,1,6,1.673,6,2.5v1
			C6,3.776,6.224,4,6.5,4z M17.083,22.671c-0.034-0.145-0.131-0.268-0.264-0.334l-3.18-1.59c-0.133-0.067-0.289-0.07-0.428-0.009
			C12.822,20.912,12.414,21,12,21c-1.654,0-3-1.346-3-3s1.346-3,3-3c0.414,0,0.822,0.088,1.212,0.262
			c0.138,0.06,0.294,0.057,0.428-0.009l3.18-1.59c0.133-0.067,0.229-0.189,0.264-0.334c0.276-1.194,1.276-2.114,2.488-2.291
			C19.817,11.002,20,10.792,20,10.543V3.5C20,2.673,19.327,2,18.5,2h-1C17.224,2,17,2.224,17,2.5v1C17,4.327,16.327,5,15.5,5h-9
			C5.673,5,5,4.327,5,3.5v-1C5,2.224,4.776,2,4.5,2h-1C2.673,2,2,2.673,2,3.5v19C2,23.327,2.673,24,3.5,24h13.356
			c0.172,0,0.331-0.088,0.423-0.233c0.092-0.145,0.103-0.327,0.028-0.482C17.198,23.054,17.126,22.858,17.083,22.671z"/>
	</g>
</g>
</svg>
