<?xml version="1.0" encoding="iso-8859-1"?>
<!-- Generator: Adobe Illustrator 19.2.1, SVG Export Plug-In . SVG Version: 6.00 Build 0)  -->
<svg version="1.1" id="Layer_1" xmlns="http://www.w3.org/2000/svg" xmlns:xlink="http://www.w3.org/1999/xlink" x="0px" y="0px"
	 viewBox="0 0 24 24" style="enable-background:new 0 0 24 24;" xml:space="preserve">
<g>
	<g>
		<path d="M9.879,19.016l-3.48,0.87l-0.167-0.944v-0.001L3.58,3.911L14.748,2.05l5.856-0.976l1.905,9.525
			c0.054,0.271,0.315,0.449,0.588,0.392c0.271-0.054,0.446-0.317,0.392-0.588l-2-10c-0.053-0.265-0.31-0.445-0.572-0.395
			l-6.273,1.046L2.041,0.004c-0.136-0.016-0.268,0.032-0.37,0.121C1.569,0.213,1.507,0.339,1.5,0.474l-1,18
			c-0.015,0.265,0.18,0.496,0.444,0.525l4.368,0.485l0.195,1.104c0.024,0.137,0.104,0.257,0.22,0.333
			c0.083,0.053,0.177,0.08,0.273,0.08c0.041,0,0.081-0.005,0.121-0.015l4-1c0.268-0.067,0.431-0.338,0.364-0.606
			C10.418,19.112,10.146,18.948,9.879,19.016z M21.5,20.001c-0.683,0-1.285,0.345-1.646,0.868l-4.467-2.233
			c0.068-0.201,0.113-0.412,0.113-0.635s-0.045-0.434-0.113-0.635l4.467-2.233c0.361,0.523,0.963,0.868,1.646,0.868
			c1.103,0,2-0.897,2-2c0-1.103-0.897-2-2-2c-1.103,0-2,0.897-2,2c0,0.062,0.013,0.121,0.018,0.182l-4.682,2.341
			c-0.354-0.322-0.82-0.523-1.336-0.523c-1.103,0-2,0.897-2,2c0,1.103,0.897,2,2,2c0.516,0,0.982-0.201,1.336-0.523l4.682,2.341
			c-0.005,0.061-0.018,0.12-0.018,0.182c0,1.103,0.897,2,2,2c1.103,0,2-0.897,2-2C23.5,20.898,22.603,20.001,21.5,20.001z"/>
	</g>
</g>
</svg>
