<?xml version="1.0" encoding="utf-8"?>
<!-- Generator: Adobe Illustrator 19.0.0, SVG Export Plug-In . SVG Version: 6.00 Build 0)  -->
<svg version="1.1" id="Layer_1" xmlns="http://www.w3.org/2000/svg" xmlns:xlink="http://www.w3.org/1999/xlink" x="0px" y="0px"
	 viewBox="0 0 30 30" style="enable-background:new 0 0 30 30;" xml:space="preserve">
<g>
	<g>
		<g>
			<g>
				<g>
					<path d="M29.5,30h-29C0.2,30,0,29.8,0,29.5c0-3.4,2.1-6.3,5.4-7.5l3.4-1.8c0.2-0.1,0.5-0.1,0.6,0.1C11,22,13,23,15.1,23
						c2.1,0,4.2-1,5.8-2.7c0.2-0.2,0.4-0.2,0.6-0.1l2.9,1.8c3.3,1.2,5.6,4.2,5.6,7.5C30,29.8,29.8,30,29.5,30z M1,29h28
						c-0.2-2.7-2.1-5.1-4.9-6c0,0-0.1,0-0.1,0l-2.6-1.7C19.6,23,17.4,24,15.1,24c-2.3,0-4.5-1-6.2-2.7l-3.1,1.7
						C3,23.9,1.2,26.2,1,29z"/>
				</g>
				<g>
					<path d="M12.5,13h-1c-0.3,0-0.5-0.2-0.5-0.5s0.2-0.5,0.5-0.5h1c0.3,0,0.5,0.2,0.5,0.5S12.8,13,12.5,13z"/>
				</g>
				<g>
					<path d="M18.5,13h-1c-0.3,0-0.5-0.2-0.5-0.5s0.2-0.5,0.5-0.5h1c0.3,0,0.5,0.2,0.5,0.5S18.8,13,18.5,13z"/>
				</g>
				<g>
					<path d="M15,22c-3.2,0-6.1-2.4-7.2-6c0,0,0,0,0,0c-1,0-1.8-1.3-1.8-3c0-1.5,0.4-2.5,1-2.9c0-0.3,0-0.9,0-1.8L7,8
						c0-0.3,0.2-0.5,0.5-0.5S8,7.7,8,8l0,0.3c0,0.4,0,1.7,0,2.1c0,0,0,0.1,0,0.1C8,10.8,7.8,11,7.5,11C7.3,11,7,11.6,7,13
						c0,1.2,0.5,2,0.8,2c0,0,0,0,0.1,0c0.1-0.1,0.3-0.1,0.5,0c0.1,0.1,0.3,0.2,0.3,0.3C9.4,18.6,12.1,21,15,21s5.6-2.4,6.4-5.7
						c0-0.2,0.1-0.3,0.3-0.3c0.1-0.1,0.3,0,0.5,0c0.1,0,0.1,0,0.1,0c0.3,0,0.8-0.8,0.8-2c0-1.4-0.3-2-0.5-2l0,0c0,0,0,0,0,0
						c-0.3,0-0.5-0.2-0.5-0.5c0,0,0-0.1,0-0.1c0-0.3,0-1.6,0-2L22,8c0-0.3,0.2-0.5,0.5-0.5S23,7.7,23,8l0,0.3c0,0.9,0,1.4,0,1.8
						c0.6,0.3,1,1.3,1,2.9c0,1.7-0.8,3-1.8,3C21.1,19.6,18.2,22,15,22z"/>
				</g>
			</g>
			<g>
				<path d="M15,10c-4.6,0-7.6-1.5-7.7-1.6C7.1,8.4,7,8.2,7,8V3c0-0.1,0-0.2,0.1-0.3C7.2,2.6,9.5,0,15,0s7.8,2.6,7.9,2.7
					C23,2.8,23,2.9,23,3v5c0,0.2-0.1,0.4-0.3,0.4C22.6,8.5,19.6,10,15,10z M8,7.7C8.8,8,11.4,9,15,9s6.2-1,7-1.3V3.2
					C21.5,2.7,19.3,1,15,1c-4.3,0-6.5,1.7-7,2.2V7.7z"/>
			</g>
			<g>
				<path d="M9,21c-0.1,0-0.2,0-0.3-0.1c-0.2-0.2-0.3-0.5-0.1-0.7l1-1.5c0.2-0.2,0.5-0.3,0.7-0.1c0.2,0.2,0.3,0.5,0.1,0.7l-1,1.5
					C9.3,20.9,9.2,21,9,21z"/>
			</g>
			<g>
				<path d="M21,21c-0.2,0-0.3-0.1-0.4-0.2l-1-1.5c-0.2-0.2-0.1-0.5,0.1-0.7c0.2-0.2,0.5-0.1,0.7,0.1l1,1.5c0.2,0.2,0.1,0.5-0.1,0.7
					C21.2,21,21.1,21,21,21z"/>
			</g>
			<g>
				<path d="M15,5c-3.2,0-5.2-1-5.2-1.1C9.5,3.8,9.4,3.5,9.6,3.3C9.7,3,10,2.9,10.2,3.1c0,0,1.8,0.9,4.8,0.9s4.8-0.9,4.8-0.9
					c0.2-0.1,0.5,0,0.7,0.2c0.1,0.2,0,0.5-0.2,0.7C20.2,4,18.2,5,15,5z"/>
			</g>
		</g>
		<g>
			<path d="M15,19c-1.8,0-2.4-1.2-2.4-1.3c-0.1-0.2,0-0.5,0.2-0.7c0.2-0.1,0.5,0,0.7,0.2c0,0,0.4,0.7,1.6,0.7c1.1,0,1.5-0.7,1.6-0.7
				c0.1-0.2,0.4-0.3,0.7-0.2c0.2,0.1,0.3,0.4,0.2,0.7C17.4,17.8,16.8,19,15,19z"/>
		</g>
	</g>
	<g>
		<circle cx="12.5" cy="26.5" r="0.5"/>
	</g>
	<g>
		<circle cx="16.5" cy="26.5" r="0.5"/>
	</g>
</g>
</svg>
