<?xml version="1.0" encoding="utf-8"?>
<!-- Generator: Adobe Illustrator 19.0.0, SVG Export Plug-In . SVG Version: 6.00 Build 0)  -->
<svg version="1.1" id="Layer_1" xmlns="http://www.w3.org/2000/svg" xmlns:xlink="http://www.w3.org/1999/xlink" x="0px" y="0px"
	 viewBox="0 0 30 30" style="enable-background:new 0 0 30 30;" xml:space="preserve">
<g>
	<g>
		<g>
			<path d="M15,21c-3.2,0-6.1-2.5-7.2-6.1c-1,0.1-1.8-1.3-1.8-3c0-0.2,0-0.3,0-0.5c0-0.3-0.1-0.6,0-0.9c-0.1-0.4,0-0.9,0-1.4
				c0-0.2,0-0.4,0-0.6C6,3.5,9.9,0,15.5,0C20.3,0,24,3.7,24,8.5c0,0.2,0,0.4,0,0.5c0,0.3,0.1,0.6,0,1c0.1,0.3,0,0.7,0,1.1
				c0,0.2,0,0.4,0,0.5c0,1.7-0.8,3.1-1.8,3C21.1,18.3,18.1,21,15,21z M8.1,13.8c0.1,0,0.1,0,0.2,0c0.1,0.1,0.3,0.2,0.3,0.3
				C9.4,17.5,12.1,20,15,20c2.8,0,5.5-2.6,6.4-6.1c0-0.2,0.1-0.3,0.3-0.3c0.1-0.1,0.3,0,0.5,0c0.1,0,0.1,0,0.1,0
				c0.3,0,0.8-0.8,0.8-2c0-0.2,0-0.4,0-0.6c0-0.3,0.1-0.7,0-0.9c0-0.1,0-0.2,0-0.3c0.1-0.3,0-0.5,0-0.8c0-0.2,0-0.4,0-0.6
				C23,4.3,19.7,1,15.5,1C10.4,1,7,4,7,8.5c0,0.2,0,0.4,0,0.7c0,0.4-0.1,0.9,0,1.2c0,0.1,0,0.2,0,0.3c-0.1,0.2,0,0.4,0,0.7
				c0,0.2,0,0.4,0,0.6c0,1.2,0.5,2,0.8,2c0,0,0,0,0.1,0C7.9,13.8,8,13.8,8.1,13.8z"/>
		</g>
		<g>
			<path d="M23,11h-1.5c-0.2,0-0.4-0.1-0.4-0.3C21,10.5,20.2,9.1,20,8c-2.7-0.1-5.2-1.1-6.3-2.2c-0.1,0.2-0.2,0.4-0.4,0.5
				C12.4,7.2,10.8,7.1,9.9,7C9.8,7,9.7,7,9.6,7C9.3,7.3,9,8.9,9,10.5C9,10.8,8.8,11,8.5,11H7c-0.3,0-0.5-0.2-0.5-0.5S6.7,10,7,10h1
				c0.1-2.7,0.6-4,1.5-4C9.6,6,9.8,6,10,6c0.8,0.1,2,0.1,2.6-0.4C12.9,5.3,13,5,13,4.5C13,4.2,13.2,4,13.5,4S14,4.2,14,4.5
				C14,5.1,16.6,7,20.5,7C20.8,7,21,7.2,21,7.5c0,0.7,0.5,1.9,0.8,2.5H23c0.3,0,0.5,0.2,0.5,0.5S23.3,11,23,11z"/>
		</g>
		<g>
			<path d="M12.5,12h-1c-0.3,0-0.5-0.2-0.5-0.5s0.2-0.5,0.5-0.5h1c0.3,0,0.5,0.2,0.5,0.5S12.8,12,12.5,12z"/>
		</g>
		<g>
			<path d="M18.5,12h-1c-0.3,0-0.5-0.2-0.5-0.5s0.2-0.5,0.5-0.5h1c0.3,0,0.5,0.2,0.5,0.5S18.8,12,18.5,12z"/>
		</g>
		<g>
			<path d="M29.5,30L29.5,30l-29,0c-0.2,0-0.3-0.1-0.4-0.2S0,29.5,0,29.4l1-4.1c0.2-0.9,0.8-1.6,1.6-2L9,20C9.1,20,9.3,20,9.4,20
				c0.1,0,0.2,0.1,0.3,0.3l3.3,8l0.9-1.7c-0.3-0.4-0.9-1.3-0.9-2.1c0-1.2,0.8-2.5,2-2.5s2,1.3,2,2.5c0,0.8-0.6,1.7-0.9,2.1l0.8,1.7
				l3.1-7.9c0.1-0.1,0.2-0.2,0.3-0.3c0.1-0.1,0.3,0,0.4,0l6.7,3.5c0.8,0.4,1.3,1.1,1.6,2l1,3.9c0,0.1,0,0.3-0.1,0.4
				C29.8,29.9,29.7,30,29.5,30z M17.7,29l11.1,0L28,25.7c-0.1-0.6-0.5-1-1-1.3l-6.2-3.2L17.7,29z M13.8,29l2.4,0l-1.1-2.3
				c-0.1-0.2-0.1-0.4,0.1-0.6c0.2-0.3,0.9-1.1,0.9-1.7c0-0.7-0.4-1.5-1-1.5s-1,0.8-1,1.5c0,0.6,0.6,1.4,0.9,1.7
				c0.1,0.2,0.2,0.4,0.1,0.6L13.8,29z M1.1,29l11.1,0L9,21.2l-6,3c-0.5,0.3-0.9,0.7-1,1.3L1.1,29z"/>
		</g>
	</g>
	<g>
		<path d="M17,17.5c-0.3,0-0.5-0.2-0.5-0.5s0.2-0.5,0.5-0.5c1.3,0,5-0.6,5-2.5c0-0.3,0.2-0.5,0.5-0.5S23,13.7,23,14
			C23,16.9,18.3,17.5,17,17.5z"/>
	</g>
	<g>
		<path d="M15.5,18c-0.9,0-1.5-0.4-1.5-1s0.6-1,1.5-1c0.9,0,1.5,0.4,1.5,1S16.4,18,15.5,18z"/>
	</g>
</g>
</svg>
