<?xml version="1.0" encoding="utf-8"?>
<!-- Generator: Adobe Illustrator 19.0.0, SVG Export Plug-In . SVG Version: 6.00 Build 0)  -->
<svg version="1.1" id="Layer_1" xmlns="http://www.w3.org/2000/svg" xmlns:xlink="http://www.w3.org/1999/xlink" x="0px" y="0px"
	 viewBox="0 0 30 30" style="enable-background:new 0 0 30 30;" xml:space="preserve">
<g>
	<g>
		<g>
			<path d="M29.5,30h-29c-0.1,0-0.3-0.1-0.4-0.2C0,29.7,0,29.6,0,29.4l0.9-4.5c0.3-1.4,1.2-2.6,2.6-3.1l5.4-1.6
				c0.2-0.1,0.4,0,0.5,0.1C11,22,13,23,15.1,23s4.2-1,5.8-2.7c0.1-0.1,0.3-0.2,0.5-0.1l4.9,1.6c0,0,0,0,0,0c1.3,0.5,2.3,1.7,2.6,3.1
				l1.1,4.5c0,0.1,0,0.3-0.1,0.4C29.8,29.9,29.7,30,29.5,30z M1.1,29h27.8l-1-3.9c-0.2-1.1-0.9-2-1.9-2.4l-4.6-1.5
				c-1.8,1.8-4,2.8-6.3,2.8c-2.3,0-4.5-1-6.3-2.8l-5.1,1.5c-1,0.4-1.7,1.3-1.9,2.4L1.1,29z"/>
		</g>
		<g>
			<path d="M14.9,21c-3,0-5.8-2.5-6.9-6.3c-1,0-1.8-1.3-1.8-3l0-0.3c0-1.1,0-1.9,0.4-2.4c0.2-0.2,0.4-0.3,0.7-0.3
				c0.3,0,0.5,0.2,0.5,0.5S7.7,9.8,7.4,9.8V9.3l0,0.5c-0.1,0.1-0.1,1.1-0.1,1.7l0,0.3c0,1.2,0.5,2,0.8,2c0,0,0,0,0.1,0
				c0.1-0.1,0.3-0.1,0.5,0s0.3,0.2,0.3,0.3c0.9,3.6,3.3,6,6,6s5.1-2.4,6-6c0-0.2,0.1-0.3,0.3-0.3s0.3,0,0.5,0c0.1,0,0.1,0,0.1,0
				c0.3,0,1.2-1,1.2-2.1l0-0.3c0-0.6,0-1.5-0.1-1.7c-0.3,0-0.5-0.2-0.5-0.5c0-0.3,0.2-0.5,0.5-0.5c0.3,0,0.5,0.1,0.7,0.3
				C24,9.4,24,10.2,24,11.3l0,0.3c0,1.7-1.3,3.2-2.3,3.1C20.6,18.5,17.9,21,14.9,21z"/>
		</g>
		<g>
			<path d="M13.5,30c-0.3,0-0.5-0.2-0.5-0.5v-6c0-0.3,0.2-0.5,0.5-0.5s0.5,0.2,0.5,0.5v6C14,29.8,13.8,30,13.5,30z"/>
		</g>
		<g>
			<path d="M16.5,30c-0.3,0-0.5-0.2-0.5-0.5v-6c0-0.3,0.2-0.5,0.5-0.5s0.5,0.2,0.5,0.5v6C17,29.8,16.8,30,16.5,30z"/>
		</g>
		<g>
			<path d="M16.2,12h-2.7c-1.3,0-2.5-0.4-3.6-1l-3.7-2C6.1,8.8,6,8.7,6,8.5V7.9C6,4,8.9,1,12.5,1C12.8,1,13,1.2,13,1.5
				S12.8,2,12.5,2C9.4,2,7,4.6,7,7.9v0.3l3.5,1.9c0.9,0.6,2,0.9,3.1,0.9h2.7c1.1,0,2.1-0.3,3-0.9L23,8.2V8c0-3.3-2.5-6-5.5-6
				C17.2,2,17,1.8,17,1.5S17.2,1,17.5,1C21.1,1,24,4.1,24,8v0.5c0,0.2-0.1,0.4-0.3,0.4l-4,2.1C18.7,11.6,17.5,12,16.2,12z"/>
		</g>
		<g>
			<path d="M8,21c-0.1,0-0.2,0-0.2-0.1l-2.5-1.3C5.1,19.6,5,19.4,5,19.3v-2.5c0-5.8,1.3-8.3,1.3-8.4C6.4,8.1,6.7,8.1,7,8.2
				c0.2,0.1,0.3,0.4,0.2,0.7c0,0-1.2,2.4-1.2,7.9v2.2l2.2,1.1c0.2,0.1,0.3,0.4,0.2,0.7C8.4,20.9,8.2,21,8,21z"/>
		</g>
		<g>
			<path d="M21.7,21c-0.2,0-0.4-0.1-0.4-0.3c-0.1-0.2,0-0.5,0.2-0.7l2.2-1.1v-2.2c0-5.6-0.7-8.1-0.7-8.1c-0.1-0.3,0.1-0.5,0.3-0.6
				c0.3-0.1,0.5,0.1,0.6,0.3c0,0.1,0.8,2.6,0.8,8.4v2.5c0,0.2-0.1,0.4-0.3,0.4L22,20.9C21.9,21,21.8,21,21.7,21z"/>
		</g>
		<g>
			<path d="M9,21c-0.1,0-0.3-0.1-0.4-0.2c-1-1.2-0.7-2.2-0.1-2.7c0.7-0.6,1.8-0.6,2.3,0c0.2,0.2,0.2,0.5,0,0.7s-0.5,0.2-0.7,0
				c-0.2-0.2-0.7-0.2-1,0.1c-0.4,0.4-0.1,1,0.2,1.3c0.2,0.2,0.1,0.5-0.1,0.7C9.2,21,9.1,21,9,21z"/>
		</g>
		<g>
			<path d="M21,21.5c-0.1,0-0.2,0-0.3-0.1c-0.2-0.2-0.2-0.5,0-0.7c0.6-0.7,0.4-1.2,0.2-1.4c-0.3-0.3-0.8-0.5-1-0.3
				c-0.2,0.1-0.5,0.1-0.7-0.2c-0.1-0.2-0.1-0.5,0.2-0.7c0.7-0.4,1.7-0.2,2.3,0.5c0.5,0.6,0.8,1.7-0.2,2.8
				C21.3,21.4,21.1,21.5,21,21.5z"/>
		</g>
		<g>
			<path d="M15,9c-1.7,0-3-1.3-3-3V2c0-1.1,0.9-2,2-2h2c1.1,0,2,0.9,2,2v4C18,7.7,16.7,9,15,9z M14,1c-0.6,0-1,0.4-1,1v4
				c0,1.1,0.9,2,2,2s2-0.9,2-2V2c0-0.6-0.4-1-1-1H14z"/>
		</g>
	</g>
	<g>
		<path d="M22.9,28c-1.1,0-1.9-0.6-1.9-1.5c0-0.9,0.6-1.4,1.1-1.8c0.2-0.2,0.4-0.3,0.5-0.5c0.3-0.5,0.4-1.1,0.4-1.1
			c0-0.2,0.2-0.3,0.4-0.4c0.2,0,0.4,0,0.5,0.2c0,0.1,1.1,1.6,1.1,3c0,0.8-0.4,1.3-0.7,1.5C23.9,27.8,23.4,28,22.9,28z M23.6,24.4
			c-0.1,0.1-0.1,0.2-0.2,0.3c-0.2,0.3-0.5,0.5-0.7,0.7c-0.4,0.4-0.7,0.6-0.7,1c0,0.3,0.5,0.5,0.9,0.5c0.2,0,1.1,0,1.1-1
			C24,25.5,23.8,24.9,23.6,24.4z"/>
	</g>
</g>
</svg>
