<?xml version="1.0" encoding="utf-8"?>
<!-- Generator: Adobe Illustrator 19.0.0, SVG Export Plug-In . SVG Version: 6.00 Build 0)  -->
<svg version="1.1" id="Layer_1" xmlns="http://www.w3.org/2000/svg" xmlns:xlink="http://www.w3.org/1999/xlink" x="0px" y="0px"
	 viewBox="0 0 30 30" style="enable-background:new 0 0 30 30;" xml:space="preserve">
<g>
	<g>
		<path d="M29.5,30h-29C0.2,30,0,29.8,0,29.5c0-3.4,2.1-6.3,5.4-7.5l3-1c0.2-0.1,0.3,0,0.5,0.1l6.2,4.8l5.7-4.7
			C20.8,21,21,21,21.2,21l3.2,1.1c3.4,1.2,5.6,4.1,5.6,7.4C30,29.8,29.8,30,29.5,30z M1,29h28c-0.2-2.6-2.1-4.9-4.9-5.9l-2.9-1
			l-5.8,4.8c-0.2,0.2-0.4,0.2-0.6,0l-6.3-4.8L5.7,23C3,23.9,1.2,26.2,1,29z"/>
	</g>
	<g>
		<path d="M12.5,13h-1c-0.3,0-0.5-0.2-0.5-0.5s0.2-0.5,0.5-0.5h1c0.3,0,0.5,0.2,0.5,0.5S12.8,13,12.5,13z"/>
	</g>
	<g>
		<path d="M18.5,13h-1c-0.3,0-0.5-0.2-0.5-0.5s0.2-0.5,0.5-0.5h1c0.3,0,0.5,0.2,0.5,0.5S18.8,13,18.5,13z"/>
	</g>
	<g>
		<path d="M10,20C10,20,9.9,20,10,20c-0.5-0.1-4.5-0.8-5.9-2.1c-0.2-0.2-0.2-0.5,0-0.7C5.3,16,6,12.2,6,10c0-0.3,0.2-0.5,0.5-0.5
			S7,9.7,7,10c0,1.6-0.5,5.6-1.8,7.4c1.2,0.8,3.9,1.4,4.9,1.6c0.3,0,0.5,0.3,0.4,0.6C10.5,19.8,10.2,20,10,20z"/>
	</g>
	<g>
		<path d="M21,20c-0.5,0-0.9,0-1,0c-0.3,0-0.5-0.3-0.5-0.5c0-0.3,0.3-0.5,0.5-0.5c1.4,0.1,3.7,0,4.8-0.6c-1.3-2-1.8-6.8-1.8-8.4
			c0-0.3,0.2-0.5,0.5-0.5S24,9.7,24,10c0,2.1,0.7,6.9,1.9,8.1c0.2,0.2,0.2,0.5,0,0.7C24.8,19.9,22.4,20,21,20z"/>
	</g>
	<g>
		<path d="M15,22c-3.2,0-6.1-2.4-7.2-6c-1,0-1.8-1.3-1.8-3c0-0.5,0.1-1,0.2-1.4C6.1,11,6,10.4,6,9.9c0-2,0.8-4.1,2.1-5.7
			C8.3,4,8.6,3.9,8.8,4.1C9,4.3,9.1,4.6,8.9,4.8C7.7,6.2,7,8.2,7,9.9c0,0.5,0.1,1,0.2,1.6c0,0.1,0,0.2,0,0.3C7.1,12.1,7,12.6,7,13
			c0,1.2,0.5,2,0.8,2c0,0,0,0,0.1,0c0.1-0.1,0.3-0.1,0.5,0c0.1,0.1,0.3,0.2,0.3,0.3C9.4,18.6,12.1,21,15,21s5.6-2.4,6.4-5.7
			c0-0.2,0.1-0.3,0.3-0.3c0.1-0.1,0.3,0,0.5,0c0.1,0,0.1,0,0.1,0c0.3,0,0.8-0.8,0.8-2c0-0.4-0.1-0.9-0.2-1.2c0-0.1,0-0.2,0-0.3
			C22.9,11,23,10.6,23,10c0-1.8-0.7-3.8-1.9-5.2c-0.2-0.2-0.1-0.5,0.1-0.7c0.2-0.2,0.5-0.1,0.7,0.1C23.2,5.7,24,8,24,10
			c0,0.6-0.1,1.1-0.2,1.6C23.9,12,24,12.5,24,13c0,1.7-0.7,3-1.8,3C21.1,19.6,18.2,22,15,22z"/>
	</g>
	<g>
		<path d="M23,12c-3.5,0-7.6-1.8-9.8-3.6c-0.2-0.2-0.2-0.5-0.1-0.7c0.2-0.2,0.5-0.2,0.7-0.1c2,1.6,5.9,3.4,9.2,3.4
			c0.3,0,0.5,0.2,0.5,0.5S23.3,12,23,12z"/>
	</g>
	<g>
		<path d="M7,12.1c-0.2,0-0.4-0.1-0.5-0.3c-0.1-0.3,0-0.5,0.3-0.7c0,0,2.7-1.1,3.9-3.4c0.1-0.2,0.4-0.3,0.7-0.2
			c0.2,0.1,0.3,0.4,0.2,0.7c-1.4,2.6-4.3,3.8-4.4,3.8C7.1,12.1,7,12.1,7,12.1z"/>
	</g>
	<g>
		<path d="M20.5,8h-11C9.3,8,9.1,7.8,9,7.6L7.5,2.1c-0.1-0.2,0-0.5,0.3-0.6C7.9,1.5,11,0,14.9,0c3.9,0,6.7,1.5,6.9,1.6
			C21.9,1.7,22,1.9,22,2.1l-1,5.5C20.9,7.8,20.7,8,20.5,8z M9.9,7h10.2l0.9-4.7C20.1,1.9,17.8,1,14.9,1C12,1,9.5,1.9,8.6,2.3L9.9,7z
			"/>
	</g>
	<g>
		<path d="M15,6c-0.3,0-0.5-0.2-0.5-0.5v-2C14.5,3.2,14.7,3,15,3s0.5,0.2,0.5,0.5v2C15.5,5.8,15.3,6,15,6z"/>
	</g>
	<g>
		<path d="M16,5h-2c-0.3,0-0.5-0.2-0.5-0.5S13.7,4,14,4h2c0.3,0,0.5,0.2,0.5,0.5S16.3,5,16,5z"/>
	</g>
	<g>
		<path d="M15,27C15,27,15,27,15,27l-7.1-1c-0.3,0-0.5-0.3-0.4-0.6l0.5-4C8,21.2,8.3,21,8.6,21C8.8,21,9,21.3,9,21.6l-0.4,3.5L15,26
			l5.9-0.9l-0.4-3.5c0-0.3,0.2-0.5,0.4-0.6c0.3,0,0.5,0.2,0.6,0.4l0.5,4c0,0.3-0.2,0.5-0.4,0.6L15,27C15.1,27,15,27,15,27z"/>
	</g>
</g>
</svg>
