<?xml version="1.0" encoding="utf-8"?>
<!-- Generator: Adobe Illustrator 19.0.0, SVG Export Plug-In . SVG Version: 6.00 Build 0)  -->
<svg version="1.1" id="Layer_1" xmlns="http://www.w3.org/2000/svg" xmlns:xlink="http://www.w3.org/1999/xlink" x="0px" y="0px"
	 viewBox="0 0 30 30" style="enable-background:new 0 0 30 30;" xml:space="preserve">
<g>
	<g>
		<g>
			<path d="M29.5,30h-29C0.2,30,0,29.8,0,29.5c0-3.4,2.1-6.3,5.4-7.5l3.4-1.8c0.2-0.1,0.5-0.1,0.6,0.1C11,22,13,23,15.1,23
				s4.2-1,5.8-2.7c0.2-0.2,0.4-0.2,0.6-0.1l2.9,1.8c3.3,1.2,5.6,4.2,5.6,7.5C30,29.8,29.8,30,29.5,30z M1,29h28
				c-0.2-2.7-2.1-5.1-4.9-6c0,0-0.1,0-0.1,0l-2.6-1.7C19.6,23,17.4,24,15.1,24c-2.3,0-4.5-1-6.2-2.7l-3.1,1.7C3,23.9,1.2,26.2,1,29z
				"/>
		</g>
		<g>
			<path d="M12.5,13h-1c-0.3,0-0.5-0.2-0.5-0.5s0.2-0.5,0.5-0.5h1c0.3,0,0.5,0.2,0.5,0.5S12.8,13,12.5,13z"/>
		</g>
		<g>
			<path d="M18.5,13h-1c-0.3,0-0.5-0.2-0.5-0.5s0.2-0.5,0.5-0.5h1c0.3,0,0.5,0.2,0.5,0.5S18.8,13,18.5,13z"/>
		</g>
		<g>
			<path d="M15,22c-3.3,0-6.4-2.5-7.4-6C6.7,15.9,6,14.7,6,13c0-1.6,0.4-2.6,1-2.9C7,10,7,9.9,7,9.9c0-3.9,3.7-7.4,8-7.4
				s8,3.4,8,7.4c0,0.1,0,0.2,0,0.2c0.6,0.3,1,1.3,1,2.9c0,1.6-0.7,2.9-1.6,3C21.4,19.5,18.3,22,15,22z M8,15c0.1,0,0.1,0,0.2,0
				c0.1,0.1,0.3,0.2,0.3,0.3C9.3,18.6,12,21,15,21s5.7-2.4,6.5-5.6c0-0.2,0.1-0.3,0.3-0.3c0.1,0,0.2,0,0.3,0c0,0,0.1,0,0.1,0
				c0.3,0,0.8-0.8,0.8-2c0-1.3-0.3-2-0.5-2c0,0-0.1,0-0.1,0c-0.1,0-0.3-0.1-0.4-0.2c-0.1-0.1-0.2-0.3-0.1-0.4l0-0.2
				c0-0.1,0-0.3,0-0.4c0-3.4-3.3-6.4-7-6.4s-7,3-7,6.4c0,0.1,0,0.3,0,0.4l0,0.2c0,0.1,0,0.3-0.1,0.4S7.7,11,7.5,11c0,0,0,0,0,0
				C7.3,11,7,11.7,7,13c0,1.2,0.5,2,0.8,2c0.1,0,0.1,0,0.1,0C7.9,15,8,15,8,15z"/>
		</g>
	</g>
	<g>
		<path d="M10.5,11.5c-0.2,0-0.3-0.1-0.4-0.3c-0.1-0.2,0-0.5,0.2-0.7c0.1-0.1,1-0.6,1.7-0.6c0.3,0,0.5,0.2,0.5,0.5S12.3,11,12,11
			c-0.4,0-1,0.3-1.3,0.4C10.7,11.5,10.6,11.5,10.5,11.5z"/>
	</g>
	<g>
		<path d="M19.5,11.5c-0.1,0-0.2,0-0.2-0.1C19,11.3,18.3,11,18,11c-0.3,0-0.5-0.2-0.5-0.5S17.7,10,18,10c0.7,0,1.6,0.5,1.7,0.6
			c0.2,0.1,0.3,0.4,0.2,0.7C19.8,11.4,19.7,11.5,19.5,11.5z"/>
	</g>
	<g>
		<path d="M6.5,15c-0.1,0-0.3-0.1-0.4-0.2C6.1,14.8,4,12.6,4,10.5C4,9.2,4.7,8,5.3,7.1C5.2,7.1,5.1,7,5,6.9C4.5,6.4,4.8,5.5,5,4.8
			C6.2,2.1,10,0,12,0c2,0,3.3,1.1,3.3,1.1c0.2,0.2,0.2,0.5,0.1,0.7c-0.2,0.2-0.5,0.2-0.7,0.1c0,0-1.1-0.9-2.7-0.9
			c-1.7,0-5.1,1.9-6,4.2c-0.3,0.8-0.2,1-0.2,1c0,0,0.3-0.1,0.6-0.2c0.2-0.1,0.5,0,0.6,0.2s0.1,0.5,0,0.6c0,0-1.9,1.9-1.9,3.7
			s1.8,3.6,1.9,3.7c0.2,0.2,0.2,0.5,0,0.7C6.8,15,6.6,15,6.5,15z"/>
	</g>
	<g>
		<path d="M23.5,15c-0.1,0-0.3,0-0.3-0.1c-0.2-0.2-0.2-0.5,0-0.7c0,0,1.9-1.9,1.9-3.7c0-1.7-1.8-3.1-1.8-3.1C23,7.2,22.9,7,23.1,6.7
			c0.1-0.2,0.4-0.3,0.6-0.2c0.2,0.1,0.5,0.2,0.6,0.1c0,0,0-0.3-0.3-1C23.1,3.4,19.1,1,17.5,1c-1.5,0-2.1,0.8-2.1,0.8
			c-0.2,0.2-0.5,0.3-0.7,0.1c-0.2-0.2-0.3-0.5-0.1-0.7c0,0,0.9-1.2,2.9-1.2c2,0,6.4,2.6,7.5,5.3c0.3,0.7,0.6,1.6,0,2.1
			c-0.1,0.1-0.1,0.1-0.2,0.1c0.6,0.7,1.2,1.7,1.2,2.9c0,2.1-2.1,4.3-2.1,4.3C23.8,14.9,23.6,15,23.5,15z"/>
	</g>
	<g>
		<path d="M10.9,17c-1.1,0-2.2-0.1-3.2-1.1c-0.2-0.2-0.2-0.5,0-0.7s0.5-0.2,0.7,0C9.2,16,10,16,11.2,16l0.3,0c0.5,0,1-0.2,1.5-0.4
			c0.6-0.3,1.2-0.6,2-0.6c0.3,0,0.5,0.2,0.5,0.5S15.3,16,15,16c-0.6,0-1.1,0.2-1.6,0.5c-0.6,0.3-1.1,0.5-1.9,0.5l-0.3,0
			C11.1,17,11,17,10.9,17z"/>
	</g>
	<g>
		<path d="M19.1,17c-0.1,0-0.2,0-0.3,0l-0.3,0c-0.7,0-1.3-0.3-1.9-0.5c-0.5-0.2-1-0.5-1.6-0.5c-0.3,0-0.5-0.2-0.5-0.5S14.7,15,15,15
			c0.8,0,1.5,0.3,2,0.6c0.5,0.2,0.9,0.4,1.5,0.4l0.3,0c1.1,0,1.9,0,2.8-0.9c0.2-0.2,0.5-0.2,0.7,0s0.2,0.5,0,0.7
			C21.3,16.9,20.2,17,19.1,17z"/>
	</g>
	<g>
		<path d="M15.5,19h-1c-0.3,0-0.5-0.2-0.5-0.5s0.2-0.5,0.5-0.5h1c0.3,0,0.5,0.2,0.5,0.5S15.8,19,15.5,19z"/>
	</g>
</g>
</svg>
