<?xml version="1.0" encoding="utf-8"?>
<!-- Generator: Adobe Illustrator 19.0.0, SVG Export Plug-In . SVG Version: 6.00 Build 0)  -->
<svg version="1.1" id="Layer_1" xmlns="http://www.w3.org/2000/svg" xmlns:xlink="http://www.w3.org/1999/xlink" x="0px" y="0px"
	 viewBox="0 0 30 30" style="enable-background:new 0 0 30 30;" xml:space="preserve">
<g>
	<g>
		<path d="M29.5,30L29.5,30l-29-0.1c-0.3,0-0.5-0.2-0.5-0.5v-0.9c0-3.4,2.2-6.6,5.4-7.7l3.2-1.1c0.2-0.1,0.4,0,0.5,0.1L9.3,20
			c1.6,1.7,3.7,4,5.7,4c1.8,0,3.6-1.9,5.1-3.6l0.5-0.6c0.1-0.1,0.3-0.2,0.5-0.1l3.2,1.1l0,0c3.3,1.1,5.6,4.4,5.6,7.8v0.9
			c0,0.1-0.1,0.3-0.1,0.4C29.8,29.9,29.6,30,29.5,30z M1,28.9L29,29v-0.4c0-2.9-2.1-5.9-4.9-6.9l-2.9-1l-0.3,0.4
			C19.3,22.8,17.3,25,15,25c-2.4,0-4.7-2.5-6.4-4.3l-2.9,1c-2.8,1-4.7,3.8-4.7,6.8C1,28.5,1,28.9,1,28.9z"/>
	</g>
	<g>
		<path d="M10.5,11c-0.6,0-1-0.1-1.3-0.3C9.1,10.5,9,10.3,9,10c0-0.4,0.4-0.5,0.6-0.5c0.7-0.2,3-0.7,3.4-3c0-0.3,0.3-0.4,0.5-0.4
			C13.8,6,14,6.2,14,6.5C14,7.9,11.8,11,10.5,11z"/>
	</g>
	<g>
		<path d="M19.6,11c-0.1,0-0.1,0-0.2,0l-0.2,0C18,11,16,8,16,6.5C16,6.2,16.2,6,16.5,6c0.3,0,0.5,0.2,0.5,0.4
			c0.4,2.3,2.6,2.8,3.4,2.9C20.6,9.4,21,9.5,21,9.9c0,0.4-0.1,0.6-0.3,0.8C20.4,11,20.1,11,19.6,11z"/>
	</g>
	<g>
		<path d="M16,12.5c-0.2,0-0.3-0.1-0.4-0.2L15,11.4l-0.6,0.9c-0.2,0.2-0.5,0.3-0.7,0.1s-0.3-0.5-0.1-0.7l1-1.5
			c0.2-0.3,0.6-0.3,0.8,0l1,1.5c0.2,0.2,0.1,0.5-0.1,0.7C16.2,12.5,16.1,12.5,16,12.5z"/>
	</g>
	<g>
		<path d="M15,22c-0.2,0-0.4-0.1-0.5-0.2c-0.5-0.5-0.5-1.7-0.5-3.9l0-0.4c0-0.2-0.1-0.6-0.2-1c-0.2-0.9-0.4-2,0.1-2.6
			c0.2-0.2,0.5-0.4,1-0.4c0.6,0,0.9,0.2,1.1,0.4c0.5,0.6,0.3,1.6,0.1,2.5c-0.1,0.4-0.2,0.7-0.2,1l0,0.4c0,2.3-0.1,3.6-0.5,4
			C15.4,21.9,15.2,22,15,22z M15,14.5c-0.1,0-0.2,0-0.3,0.1c-0.2,0.3,0,1.2,0.1,1.8c0.1,0.4,0.2,0.8,0.2,1.2l0,0.4
			c0,0.2,0,0.7,0,1.1c0-0.4,0-0.8,0-1.2l0-0.4c0-0.3,0.1-0.7,0.2-1.2c0.1-0.5,0.3-1.4,0.1-1.6C15.2,14.5,15.1,14.5,15,14.5z"/>
	</g>
	<g>
		<g>
			<path d="M10,22c-0.2,0-0.4-0.1-0.4-0.3C9.4,21.4,6,14.8,6,11C6,7.3,9.1,0,14.9,0C20.5,0,24,7.1,24,11c0,3.8-3.9,10.5-4.1,10.8
				c-0.1,0.2-0.4,0.3-0.7,0.2c-0.2-0.1-0.3-0.4-0.2-0.7c0-0.1,3.9-6.7,3.9-10.2c0-3.5-3.1-10-8.1-10C9.8,1,7,7.6,7,11
				c0,3.6,3.4,10.2,3.4,10.3c0.1,0.2,0,0.5-0.2,0.7C10.2,22,10.1,22,10,22z"/>
		</g>
	</g>
	<g>
		<g>
			<path d="M15,25c-3,0-6-10.8-6-10.9c-0.1-0.4-0.5-0.6-1.1-0.9C7.1,12.8,6,12.3,6,10.5C6,9.2,7.1,7.3,9,7c0.2-4.6,3.5-7,5.9-7
				c2.3,0,6.4,2.4,6.6,7c1.8,0.3,2.5,2.2,2.5,3.6c0,1.8-1.1,2.3-1.9,2.7c-0.6,0.3-1,0.5-1.1,0.9C21,14.4,18,25,15,25z M14.9,1
				c-2,0-4.9,2.3-4.9,6.5C10,7.8,9.8,8,9.5,8C7.9,8,7,9.6,7,10.5c0,1.2,0.6,1.4,1.4,1.8C9,12.6,9.7,13,10,13.9
				c0.8,3,3.4,10.1,5,10.1c1.6,0,4.2-7,5-10c0.2-0.9,1-1.3,1.6-1.6c0.8-0.4,1.4-0.6,1.4-1.8c0,0,0-2.6-2-2.6c-0.3,0-0.5-0.2-0.5-0.5
				C20.5,3.2,16.8,1,14.9,1z"/>
		</g>
	</g>
</g>
</svg>
