<?xml version="1.0" encoding="utf-8"?>
<!-- Generator: Adobe Illustrator 19.0.0, SVG Export Plug-In . SVG Version: 6.00 Build 0)  -->
<svg version="1.1" id="Layer_1" xmlns="http://www.w3.org/2000/svg" xmlns:xlink="http://www.w3.org/1999/xlink" x="0px" y="0px"
	 viewBox="0 0 30 30" style="enable-background:new 0 0 30 30;" xml:space="preserve">
<g>
	<g>
		<g>
			<path d="M29.5,30h-29c-0.2,0-0.3-0.1-0.4-0.2C0,29.7,0,29.5,0,29.4l1-4.1c0.2-0.9,0.8-1.6,1.6-2L9.3,20c0.2-0.1,0.5,0,0.6,0.2
				l5.1,8.3l5.1-8.3c0.1-0.2,0.4-0.3,0.7-0.2l6.7,3.5c0.8,0.4,1.3,1.1,1.6,2l1,3.9c0,0.1,0,0.3-0.1,0.4C29.8,29.9,29.7,30,29.5,30z
				 M15.9,29h13L28,25.7c-0.1-0.6-0.5-1-1-1.3l-6.3-3.3L15.9,29z M1.1,29h13l-4.8-7.9l-6.3,3c-0.5,0.3-0.9,0.7-1,1.3L1.1,29z"/>
		</g>
		<g>
			<path d="M15.1,18c-1.7,0-2.2-0.8-2.3-0.9c-0.1-0.2-0.1-0.5,0.2-0.7c0.2-0.1,0.5-0.1,0.7,0.1c0,0,0.4,0.4,1.5,0.4
				c1.1,0,1.5-0.4,1.5-0.4c0.1-0.2,0.4-0.3,0.7-0.1c0.2,0.1,0.3,0.5,0.2,0.7C17.4,17.2,16.8,18,15.1,18z"/>
		</g>
		<g>
			<path d="M14.9,21c-3.1,0-6-2.7-7.1-6.4c-1,0-1.8-1.3-1.8-3c0-0.5,0.1-1,0.2-1.4C6.1,9.6,6,9,6,8.5C6,3.3,9.5,0,14.9,0
				C20.2,0,24,3.5,24,8.5c0,0.5-0.1,1.1-0.2,1.7c0.1,0.4,0.2,0.9,0.2,1.4c0,1.7-0.8,3-1.8,3c0,0,0,0,0,0C21.1,18.3,18,21,14.9,21z
				 M8.1,13.5c0.1,0,0.1,0,0.2,0c0.1,0.1,0.3,0.2,0.3,0.3c0.9,3.5,3.5,6.1,6.3,6.1c2.8,0,5.7-2.7,6.5-6.1c0-0.2,0.1-0.3,0.3-0.3
				s0.3,0,0.5,0c0.1,0,0.1,0,0.1,0c0.3,0,0.8-0.8,0.8-2c0-0.4-0.1-0.9-0.2-1.2c0-0.1,0-0.2,0-0.3C22.9,9.5,23,9,23,8.5
				C23,4.1,19.7,1,14.9,1C10,1,7,3.9,7,8.5c0,0.5,0.1,1,0.2,1.6c0,0.1,0,0.2,0,0.3C7.1,10.8,7,11.2,7,11.6c0,1.2,0.5,2,0.8,2
				c0,0,0,0,0.1,0C7.9,13.5,8,13.5,8.1,13.5z"/>
		</g>
		<g>
			<path d="M6.5,11c-0.2,0-0.4-0.1-0.5-0.3c-0.1-0.3,0-0.5,0.3-0.6c0,0,4.7-1.7,4.7-5.5C11,4.2,11.2,4,11.5,4S12,4.2,12,4.5
				c0.2,1,5.9,5.5,11,5.5c0.3,0,0.5,0.2,0.5,0.5S23.3,11,23,11c-4.4,0-9.3-3-11.2-5.1c-0.9,3.5-5,5-5.2,5.1C6.6,11,6.6,11,6.5,11z"
				/>
		</g>
		<g>
			<path d="M12.5,12h-1c-0.3,0-0.5-0.2-0.5-0.5s0.2-0.5,0.5-0.5h1c0.3,0,0.5,0.2,0.5,0.5S12.8,12,12.5,12z"/>
		</g>
		<g>
			<path d="M18.5,12h-1c-0.3,0-0.5-0.2-0.5-0.5s0.2-0.5,0.5-0.5h1c0.3,0,0.5,0.2,0.5,0.5S18.8,12,18.5,12z"/>
		</g>
		<g>
			<path d="M10.5,19C10.5,19,10.4,19,10.5,19c-0.6-0.1-5-0.8-6.4-2.1c-0.2-0.2-0.2-0.5,0-0.7C5.4,14.9,6,10.5,6,8.5
				C6,8.2,6.2,8,6.5,8S7,8.2,7,8.5c0,1.5-0.4,6-1.8,7.9c1.3,0.8,4.2,1.4,5.4,1.6c0.3,0,0.5,0.3,0.4,0.6C11,18.8,10.7,19,10.5,19z"/>
		</g>
		<g>
			<path d="M19.5,19c-0.2,0-0.5-0.2-0.5-0.4c0-0.3,0.1-0.5,0.4-0.6c1.1-0.2,4.1-0.8,5.4-1.6c-1.4-2-1.8-6.4-1.8-7.9
				C23,8.2,23.2,8,23.5,8S24,8.2,24,8.5c0,2,0.6,6.4,1.9,7.6c0.2,0.2,0.2,0.5,0,0.7C24.5,18.2,20.1,18.9,19.5,19
				C19.5,19,19.5,19,19.5,19z"/>
		</g>
	</g>
	<g>
		<path d="M5.5,30C5.2,30,5,29.8,5,29.5c0-4.3-0.9-5.7-0.9-5.7c-0.1-0.2-0.1-0.5,0.1-0.7c0.2-0.2,0.5-0.1,0.7,0.1
			C5,23.3,6,24.9,6,29.5C6,29.8,5.8,30,5.5,30z"/>
	</g>
	<g>
		<path d="M24.5,30c-0.3,0-0.5-0.2-0.5-0.5c0-4.6,1-6.2,1.1-6.3c0.2-0.2,0.5-0.3,0.7-0.1c0.2,0.2,0.3,0.5,0.1,0.7
			c0,0-0.9,1.5-0.9,5.7C25,29.8,24.8,30,24.5,30z"/>
	</g>
	<g>
		<path d="M16.5,24c-0.1,0-0.2,0-0.3-0.1L15,23.1l-1.2,0.8c-0.2,0.1-0.4,0.1-0.5,0c-0.2-0.1-0.3-0.3-0.3-0.4v-2
			c0-0.2,0.1-0.4,0.3-0.4c0.2-0.1,0.4-0.1,0.5,0l1.2,0.8l1.2-0.8c0.2-0.1,0.4-0.1,0.5,0c0.2,0.1,0.3,0.3,0.3,0.4v2
			c0,0.2-0.1,0.4-0.3,0.4C16.7,24,16.6,24,16.5,24z"/>
	</g>
	<g>
		<path d="M21.5,27h-2c-0.3,0-0.5-0.2-0.5-0.5s0.2-0.5,0.5-0.5h2c0.3,0,0.5,0.2,0.5,0.5S21.8,27,21.5,27z"/>
	</g>
</g>
</svg>
