<?xml version="1.0" encoding="utf-8"?>
<!-- Generator: Adobe Illustrator 19.0.0, SVG Export Plug-In . SVG Version: 6.00 Build 0)  -->
<svg version="1.1" id="Layer_1" xmlns="http://www.w3.org/2000/svg" xmlns:xlink="http://www.w3.org/1999/xlink" x="0px" y="0px"
	 viewBox="0 0 30 30" style="enable-background:new 0 0 30 30;" xml:space="preserve">
<g>
	<g>
		<path d="M27,26H3c-1.7,0-3-1.3-3-3v-8.1c0-1,0.3-1.8,0.9-2.3l4-6.1C5.7,4.9,7.4,4,9.5,4H21c1.4,0,2.7,0.7,3.5,1.9l4.7,6.3
			c0.5,0.7,0.7,1.5,0.7,2.4V23C30,24.7,28.7,26,27,26z M9.5,5C8.3,5,6.6,5.3,5.8,7l-4.1,6.2c0,0-0.1,0.1-0.1,0.1
			C1.2,13.6,1,14.2,1,14.9V23c0,1.1,0.9,2,2,2h24c1.1,0,2-0.9,2-2v-8.4c0-0.6-0.2-1.3-0.5-1.8l-4.7-6.3C23.1,5.5,22.1,5,21,5H9.5z"
			/>
	</g>
	<g>
		<path d="M20.5,20h-11C7.9,20,6,18.7,6,17c0-0.6-0.1-2-1.5-2h-4C0.2,15,0,14.8,0,14.5S0.2,14,0.5,14h4C6,14,7,15.2,7,17
			c0,1.1,1.4,2,2.5,2h11c1.1,0,2-0.9,2-2c0-1.7,1.3-3,3-3H29c0.3,0,0.5,0.2,0.5,0.5S29.3,15,29,15h-3.5c-1.1,0-2,0.9-2,2
			C23.5,18.7,22.2,20,20.5,20z"/>
	</g>
</g>
</svg>
