<?xml version="1.0" encoding="utf-8"?>
<!-- Generator: Adobe Illustrator 19.0.0, SVG Export Plug-In . SVG Version: 6.00 Build 0)  -->
<svg version="1.1" id="Layer_1" xmlns="http://www.w3.org/2000/svg" xmlns:xlink="http://www.w3.org/1999/xlink" x="0px" y="0px"
	 viewBox="0 0 30 30" style="enable-background:new 0 0 30 30;" xml:space="preserve">
<g>
	<g>
		<path d="M15,24c-0.3,0-0.5-0.2-0.5-0.5v-6c0-0.3,0.2-0.5,0.5-0.5s0.5,0.2,0.5,0.5v6C15.5,23.8,15.3,24,15,24z"/>
	</g>
	<g>
		<path d="M15,26c-0.1,0-0.3-0.1-0.4-0.1c-0.1-0.1-0.1-0.2-0.1-0.4s0.1-0.3,0.1-0.3c0.2-0.2,0.5-0.2,0.7,0c0.1,0.1,0.2,0.2,0.2,0.3
			s-0.1,0.3-0.2,0.3C15.3,25.9,15.1,26,15,26z"/>
	</g>
	<g>
		<g>
			<path d="M26.5,21H24c-0.3,0-0.5-0.2-0.5-0.5S23.7,20,24,20h2.5c1.1,0,2-0.9,2-2V4c0-1.1-0.9-2-2-2h-23c-1.1,0-2,0.9-2,2v14
				c0,1.1,0.9,2,2,2H6c0.3,0,0.5,0.2,0.5,0.5S6.3,21,6,21H3.5c-1.7,0-3-1.3-3-3V4c0-1.7,1.3-3,3-3h23c1.7,0,3,1.3,3,3v14
				C29.5,19.7,28.2,21,26.5,21z"/>
		</g>
		<g>
			<path d="M14.7,12c-0.7,0-1.5-0.2-2-0.6l-9.5-7C3,4.2,2.9,3.9,3.1,3.7c0.2-0.2,0.5-0.3,0.7-0.1l9.5,7c0.7,0.5,2.2,0.5,2.9,0l9.5-7
				c0.2-0.2,0.5-0.1,0.7,0.1c0.2,0.2,0.1,0.5-0.1,0.7l-9.5,7C16.2,11.8,15.5,12,14.7,12z"/>
		</g>
		<g>
			<path d="M4,18c-0.1,0-0.3,0-0.4-0.1c-0.2-0.2-0.2-0.5,0-0.7l6-6c0.2-0.2,0.5-0.2,0.7,0s0.2,0.5,0,0.7l-6,6C4.3,18,4.1,18,4,18z"
				/>
		</g>
		<g>
			<path d="M26,18c-0.1,0-0.3,0-0.4-0.1l-6-6c-0.2-0.2-0.2-0.5,0-0.7s0.5-0.2,0.7,0l6,6c0.2,0.2,0.2,0.5,0,0.7
				C26.3,18,26.1,18,26,18z"/>
		</g>
	</g>
	<g>
		<path d="M15,29c-4.1,0-7.5-3.4-7.5-7.5S10.9,14,15,14s7.5,3.4,7.5,7.5S19.1,29,15,29z M15,15c-3.6,0-6.5,2.9-6.5,6.5
			S11.4,28,15,28s6.5-2.9,6.5-6.5S18.6,15,15,15z"/>
	</g>
</g>
</svg>
