<?xml version="1.0" encoding="utf-8"?>
<!-- Generator: Adobe Illustrator 19.0.0, SVG Export Plug-In . SVG Version: 6.00 Build 0)  -->
<svg version="1.1" id="Layer_1" xmlns="http://www.w3.org/2000/svg" xmlns:xlink="http://www.w3.org/1999/xlink" x="0px" y="0px"
	 viewBox="0 0 30 30" style="enable-background:new 0 0 30 30;" xml:space="preserve">
<g>
	<g>
		<path d="M18,26.5h-6c-0.3,0-0.5-0.2-0.5-0.5s0.2-0.5,0.5-0.5h6c0.3,0,0.5,0.2,0.5,0.5S18.3,26.5,18,26.5z"/>
	</g>
	<g>
		<path d="M18,24.5h-6c-0.3,0-0.5-0.2-0.5-0.5s0.2-0.5,0.5-0.5h6c0.3,0,0.5,0.2,0.5,0.5S18.3,24.5,18,24.5z"/>
	</g>
	<g>
		<path d="M18,22.5h-6c-0.3,0-0.5-0.2-0.5-0.5s0.2-0.5,0.5-0.5h6c0.3,0,0.5,0.2,0.5,0.5S18.3,22.5,18,22.5z"/>
	</g>
	<g>
		<path d="M18,20.5h-6c-0.3,0-0.5-0.2-0.5-0.5s0.2-0.5,0.5-0.5h6c0.3,0,0.5,0.2,0.5,0.5S18.3,20.5,18,20.5z"/>
	</g>
	<g>
		<g>
			<path d="M26.5,23.5H21c-0.3,0-0.5-0.2-0.5-0.5s0.2-0.5,0.5-0.5h5.5c1.1,0,2-0.9,2-2v-14c0-1.1-0.9-2-2-2h-23c-1.1,0-2,0.9-2,2v14
				c0,1.1,0.9,2,2,2H9c0.3,0,0.5,0.2,0.5,0.5S9.3,23.5,9,23.5H3.5c-1.7,0-3-1.3-3-3v-14c0-1.7,1.3-3,3-3h23c1.7,0,3,1.3,3,3v14
				C29.5,22.2,28.2,23.5,26.5,23.5z"/>
		</g>
		<g>
			<path d="M15,14.5c-0.6,0-1.3-0.2-1.8-0.6L3.7,7.4C3.5,7.3,3.4,6.9,3.6,6.7c0.2-0.2,0.5-0.3,0.7-0.1l9.4,6.5
				c0.8,0.6,1.7,0.6,2.5,0l9.5-6.5c0.2-0.2,0.5-0.1,0.7,0.1c0.2,0.2,0.1,0.5-0.1,0.7l-9.5,6.5C16.2,14.3,15.6,14.5,15,14.5z"/>
		</g>
		<g>
			<path d="M4,20.5c-0.1,0-0.3,0-0.4-0.1c-0.2-0.2-0.2-0.5,0-0.7l6.3-6.3c0.2-0.2,0.5-0.2,0.7,0s0.2,0.5,0,0.7l-6.3,6.3
				C4.3,20.5,4.1,20.5,4,20.5z"/>
		</g>
		<g>
			<path d="M26,20.5c-0.1,0-0.3,0-0.4-0.1l-6.3-6.3c-0.2-0.2-0.2-0.5,0-0.7s0.5-0.2,0.7,0l6.3,6.3c0.2,0.2,0.2,0.5,0,0.7
				C26.3,20.5,26.1,20.5,26,20.5z"/>
		</g>
	</g>
</g>
</svg>
