<?xml version="1.0" encoding="iso-8859-1"?>
<!-- Generator: Adobe Illustrator 19.0.0, SVG Export Plug-In . SVG Version: 6.00 Build 0)  -->
<svg version="1.1" id="Layer_1" xmlns="http://www.w3.org/2000/svg" xmlns:xlink="http://www.w3.org/1999/xlink" x="0px" y="0px"
	 viewBox="0 0 24 24" style="enable-background:new 0 0 24 24;" xml:space="preserve">
<g>
	<g>
		<g>
			<g>
				<path d="M20.5,24h-17C3.224,24,3,23.776,3,23.5v-17c0-0.133,0.053-0.26,0.146-0.354l6-6C9.24,0.053,9.367,0,9.5,0h11
					C20.776,0,21,0.224,21,0.5v23C21,23.776,20.776,24,20.5,24z M4,23h16V1H9.707L4,6.707V23z"/>
			</g>
			<g>
				<path d="M9.5,7h-6C3.224,7,3,6.776,3,6.5S3.224,6,3.5,6H9V0.5C9,0.224,9.224,0,9.5,0S10,0.224,10,0.5v6C10,6.776,9.776,7,9.5,7z
					"/>
			</g>
		</g>
	</g>
	<g>
		<path d="M16.5,11c-0.13,0-0.258-0.051-0.354-0.146L14.5,9.207l-1.646,1.646c-0.143,0.143-0.36,0.187-0.545,0.108
			C12.122,10.885,12,10.702,12,10.5v-10C12,0.224,12.224,0,12.5,0S13,0.224,13,0.5v8.793l1.146-1.146
			c0.195-0.195,0.512-0.195,0.707,0L16,9.293V0.5C16,0.224,16.224,0,16.5,0S17,0.224,17,0.5v10c0,0.202-0.122,0.385-0.309,0.462
			C16.63,10.988,16.564,11,16.5,11z"/>
	</g>
</g>
<g>
</g>
<g>
</g>
<g>
</g>
<g>
</g>
<g>
</g>
<g>
</g>
<g>
</g>
<g>
</g>
<g>
</g>
<g>
</g>
<g>
</g>
<g>
</g>
<g>
</g>
<g>
</g>
<g>
</g>
</svg>
