<?xml version="1.0" encoding="iso-8859-1"?>
<!-- Generator: Adobe Illustrator 19.0.0, SVG Export Plug-In . SVG Version: 6.00 Build 0)  -->
<svg version="1.1" id="Layer_1" xmlns="http://www.w3.org/2000/svg" xmlns:xlink="http://www.w3.org/1999/xlink" x="0px" y="0px"
	 viewBox="0 0 24 24" style="enable-background:new 0 0 24 24;" xml:space="preserve">
<g>
	<g>
		<g>
			<path d="M12.5,24c-0.179,0-0.345-0.096-0.434-0.252l-2-3.5c-0.085-0.15-0.088-0.333-0.006-0.485l3.5-6.5
				c0.086-0.16,0.252-0.261,0.434-0.263c0.146,0.002,0.351,0.094,0.44,0.252l2,3.5c0.085,0.15,0.088,0.333,0.006,0.485l-3.5,6.5
				c-0.086,0.16-0.252,0.261-0.434,0.263C12.504,24,12.502,24,12.5,24z M11.072,19.993l1.415,2.477l2.941-5.462l-1.415-2.477
				L11.072,19.993z"/>
		</g>
		<g>
			<path d="M20.5,24h-6c-0.173,0-0.334-0.09-0.425-0.237s-0.1-0.332-0.022-0.486l1.5-3C15.638,20.107,15.81,20,16,20h6
				c0.173,0,0.334,0.09,0.425,0.237s0.1,0.332,0.022,0.486l-1.5,3C20.862,23.893,20.689,24,20.5,24z M15.309,23h4.882l1-2h-4.882
				L15.309,23z"/>
		</g>
		<g>
			<path d="M22,19h-3c-0.176,0-0.338-0.092-0.429-0.243l-3-5c-0.093-0.155-0.095-0.347-0.006-0.504S15.82,13,16,13h3
				c0.176,0,0.338,0.092,0.429,0.243l3,5c0.093,0.155,0.095,0.347,0.006,0.504S22.18,19,22,19z M19.283,18h1.833l-2.4-4h-1.833
				L19.283,18z"/>
		</g>
	</g>
	<g>
		<g>
			<g>
				<path d="M9,22H2c-0.276,0-0.5-0.224-0.5-0.5v-15c0-0.133,0.053-0.26,0.146-0.354l6-6C7.74,0.053,7.867,0,8,0h10
					c0.276,0,0.5,0.224,0.5,0.5v11c0,0.276-0.224,0.5-0.5,0.5s-0.5-0.224-0.5-0.5V1H8.207L2.5,6.707V21H9c0.276,0,0.5,0.224,0.5,0.5
					S9.276,22,9,22z"/>
			</g>
			<g>
				<path d="M8,7H2C1.724,7,1.5,6.776,1.5,6.5S1.724,6,2,6h5.5V0.5C7.5,0.224,7.724,0,8,0c0.276,0,0.5,0.224,0.5,0.5v6
					C8.5,6.776,8.276,7,8,7z"/>
			</g>
		</g>
	</g>
</g>
<g>
</g>
<g>
</g>
<g>
</g>
<g>
</g>
<g>
</g>
<g>
</g>
<g>
</g>
<g>
</g>
<g>
</g>
<g>
</g>
<g>
</g>
<g>
</g>
<g>
</g>
<g>
</g>
<g>
</g>
</svg>
