<?xml version="1.0" encoding="iso-8859-1"?>
<!-- Generator: Adobe Illustrator 19.0.0, SVG Export Plug-In . SVG Version: 6.00 Build 0)  -->
<svg version="1.1" id="Layer_1" xmlns="http://www.w3.org/2000/svg" xmlns:xlink="http://www.w3.org/1999/xlink" x="0px" y="0px"
	 viewBox="0 0 24 24" style="enable-background:new 0 0 24 24;" xml:space="preserve">
<g>
	<g>
		<g>
			<g>
				<path d="M20.5,24h-17C3.224,24,3,23.777,3,23.5v-17c0-0.133,0.053-0.26,0.146-0.354l6-6C9.24,0.053,9.367,0,9.5,0h11
					C20.776,0,21,0.224,21,0.5v23C21,23.777,20.776,24,20.5,24z M4,23h16V1H9.707L4,6.707V23z"/>
			</g>
			<g>
				<path d="M9.5,7h-6C3.224,7,3,6.777,3,6.5S3.224,6,3.5,6H9V0.5C9,0.224,9.224,0,9.5,0S10,0.224,10,0.5v6C10,6.777,9.776,7,9.5,7z
					"/>
			</g>
		</g>
	</g>
	<g>
		<path d="M13.5,22h-1c-0.276,0-0.5-0.224-0.5-0.5s0.224-0.5,0.5-0.5h1c0.276,0,0.5,0.224,0.5,0.5S13.776,22,13.5,22z"/>
	</g>
	<g>
		<path d="M13.5,20h-1c-0.276,0-0.5-0.224-0.5-0.5s0.224-0.5,0.5-0.5h1c0.276,0,0.5,0.224,0.5,0.5S13.776,20,13.5,20z"/>
	</g>
	<g>
		<path d="M13.5,18h-1c-0.276,0-0.5-0.224-0.5-0.5s0.224-0.5,0.5-0.5h1c0.276,0,0.5,0.224,0.5,0.5S13.776,18,13.5,18z"/>
	</g>
	<g>
		<path d="M13.5,16h-1c-0.276,0-0.5-0.224-0.5-0.5s0.224-0.5,0.5-0.5h1c0.276,0,0.5,0.224,0.5,0.5S13.776,16,13.5,16z"/>
	</g>
	<g>
		<path d="M13.5,14h-1c-0.276,0-0.5-0.224-0.5-0.5s0.224-0.5,0.5-0.5h1c0.276,0,0.5,0.224,0.5,0.5S13.776,14,13.5,14z"/>
	</g>
	<g>
		<path d="M13.5,12h-1c-0.276,0-0.5-0.224-0.5-0.5s0.224-0.5,0.5-0.5h1c0.276,0,0.5,0.224,0.5,0.5S13.776,12,13.5,12z"/>
	</g>
	<g>
		<path d="M13.5,10h-1C12.224,10,12,9.777,12,9.5S12.224,9,12.5,9h1C13.776,9,14,9.224,14,9.5S13.776,10,13.5,10z"/>
	</g>
	<g>
		<path d="M15.5,21h-1c-0.276,0-0.5-0.224-0.5-0.5s0.224-0.5,0.5-0.5h1c0.276,0,0.5,0.224,0.5,0.5S15.776,21,15.5,21z"/>
	</g>
	<g>
		<path d="M15.5,19h-1c-0.276,0-0.5-0.224-0.5-0.5s0.224-0.5,0.5-0.5h1c0.276,0,0.5,0.224,0.5,0.5S15.776,19,15.5,19z"/>
	</g>
	<g>
		<path d="M15.5,17h-1c-0.276,0-0.5-0.224-0.5-0.5s0.224-0.5,0.5-0.5h1c0.276,0,0.5,0.224,0.5,0.5S15.776,17,15.5,17z"/>
	</g>
	<g>
		<path d="M15.5,15h-1c-0.276,0-0.5-0.224-0.5-0.5s0.224-0.5,0.5-0.5h1c0.276,0,0.5,0.224,0.5,0.5S15.776,15,15.5,15z"/>
	</g>
	<g>
		<path d="M15.5,13h-1c-0.276,0-0.5-0.224-0.5-0.5s0.224-0.5,0.5-0.5h1c0.276,0,0.5,0.224,0.5,0.5S15.776,13,15.5,13z"/>
	</g>
	<g>
		<path d="M15.5,11h-1c-0.276,0-0.5-0.224-0.5-0.5s0.224-0.5,0.5-0.5h1c0.276,0,0.5,0.224,0.5,0.5S15.776,11,15.5,11z"/>
	</g>
	<g>
		<path d="M12.5,5c-0.184,0-0.36-0.101-0.448-0.276l-1-2c-0.07-0.141-0.07-0.307,0-0.447l1-2c0.124-0.248,0.424-0.347,0.671-0.224
			s0.347,0.424,0.224,0.671L12.059,2.5l0.888,1.776c0.124,0.247,0.023,0.547-0.224,0.671C12.652,4.983,12.576,5,12.5,5z"/>
	</g>
	<g>
		<path d="M15.5,5c-0.075,0-0.151-0.017-0.223-0.053c-0.247-0.124-0.347-0.424-0.224-0.671L15.941,2.5l-0.888-1.776
			c-0.124-0.247-0.023-0.547,0.224-0.671s0.546-0.024,0.671,0.224l1,2c0.07,0.141,0.07,0.307,0,0.447l-1,2
			C15.859,4.899,15.683,5,15.5,5z"/>
	</g>
	<g>
		<path d="M14,7.964c-0.458,0-0.917-0.174-1.266-0.523c-0.495-0.495-0.656-1.239-0.41-1.895l0.688-3.154
			C13.062,2.164,13.265,2,13.5,2h1c0.235,0,0.438,0.164,0.488,0.393l0.708,3.222c0.226,0.587,0.065,1.331-0.43,1.826
			C14.917,7.79,14.458,7.964,14,7.964z M13.902,3L13.28,5.83c-0.129,0.357-0.058,0.686,0.161,0.904c0.309,0.309,0.81,0.309,1.118,0
			c0.218-0.218,0.29-0.547,0.181-0.836L14.099,3H13.902z"/>
	</g>
</g>
<g>
</g>
<g>
</g>
<g>
</g>
<g>
</g>
<g>
</g>
<g>
</g>
<g>
</g>
<g>
</g>
<g>
</g>
<g>
</g>
<g>
</g>
<g>
</g>
<g>
</g>
<g>
</g>
<g>
</g>
</svg>
