<?xml version="1.0" encoding="iso-8859-1"?>
<!-- Generator: Adobe Illustrator 19.0.0, SVG Export Plug-In . SVG Version: 6.00 Build 0)  -->
<svg version="1.1" id="Layer_1" xmlns="http://www.w3.org/2000/svg" xmlns:xlink="http://www.w3.org/1999/xlink" x="0px" y="0px"
	 viewBox="0 0 24 24" style="enable-background:new 0 0 24 24;" xml:space="preserve">
<g>
	<path d="M17.5,19h-13c-1.103,0-2,0.897-2,2s0.897,2,2,2h13c1.103,0,2-0.897,2-2S18.603,19,17.5,19z"/>
	<g>
		<path d="M17.5,18c-0.276,0-0.5-0.224-0.5-0.5s0.224-0.5,0.5-0.5c1.654,0,3-1.346,3-3v-3.5c0-0.593-0.353-1.131-0.897-1.371
			c-0.252-0.111-0.367-0.407-0.255-0.659c0.111-0.253,0.403-0.366,0.659-0.256c0.907,0.4,1.493,1.297,1.493,2.286V14
			C21.5,16.206,19.706,18,17.5,18z"/>
	</g>
	<path d="M16.478,5.046C16.249,2.777,14.328,1,12,1C9.903,1,8.131,2.446,7.646,4.419C7.142,4.146,6.577,4,6,4
		C4.07,4,2.5,5.57,2.5,7.5S4.07,11,6,11c1.387,0,2.609-0.814,3.171-2.026c1.421,1.178,3.543,1.346,5.146,0.369
		C14.774,9.765,15.366,10,16,10c1.379,0,2.5-1.122,2.5-2.5C18.5,6.285,17.628,5.269,16.478,5.046z"/>
	<g>
		<g>
			<path d="M8.569,18H10c0.276,0,0.5-0.224,0.5-0.5v-6.738c-0.24-0.069-0.482-0.132-0.712-0.235
				c-0.19-0.087-0.416-0.043-0.563,0.108c-0.227,0.234-0.476,0.435-0.74,0.611L8.07,17.467C8.051,17.755,8.28,18,8.569,18z"/>
		</g>
		<g>
			<path d="M12,18h1.436c0.288,0,0.517-0.243,0.499-0.531l-0.42-6.714c-0.657,0.192-1.336,0.258-2.015,0.195v6.55
				C11.5,17.776,11.724,18,12,18z"/>
		</g>
		<g>
			<path d="M7.449,11.741C6.987,11.899,6.504,12,6,12c-0.196,0-0.386-0.029-0.642-0.067c-0.142-0.02-0.271,0.016-0.378,0.099
				c-0.107,0.083-0.177,0.206-0.191,0.34l-0.563,5.072c-0.016,0.141,0.029,0.283,0.125,0.389C4.445,17.939,4.58,18,4.723,18h1.842
				c0.263,0,0.481-0.204,0.499-0.467L7.449,11.741z"/>
		</g>
		<g>
			<path d="M17.783,17.313L17.19,11.38c-0.014-0.138-0.084-0.265-0.195-0.349c-0.11-0.084-0.252-0.12-0.389-0.094
				c-0.685,0.12-1.439,0.029-2.096-0.282l0.43,6.876C14.957,17.795,15.175,18,15.439,18h1.86c0.007,0.001,0.015,0,0.02,0
				c0.276,0,0.5-0.224,0.5-0.5C17.819,17.434,17.807,17.371,17.783,17.313z"/>
		</g>
	</g>
</g>
<g>
</g>
<g>
</g>
<g>
</g>
<g>
</g>
<g>
</g>
<g>
</g>
<g>
</g>
<g>
</g>
<g>
</g>
<g>
</g>
<g>
</g>
<g>
</g>
<g>
</g>
<g>
</g>
<g>
</g>
</svg>
