<?xml version="1.0" encoding="iso-8859-1"?>
<!-- Generator: Adobe Illustrator 19.0.0, SVG Export Plug-In . SVG Version: 6.00 Build 0)  -->
<svg version="1.1" id="Layer_1" xmlns="http://www.w3.org/2000/svg" xmlns:xlink="http://www.w3.org/1999/xlink" x="0px" y="0px"
	 viewBox="0 0 24 24" style="enable-background:new 0 0 24 24;" xml:space="preserve">
<g>
	<g>
		<path d="M5.909,9.5c0.276,0,0.5-0.224,0.5-0.5c0-0.087-0.022-0.168-0.061-0.24L5.623,5.5H9c0.276,0,0.5-0.224,0.5-0.5
			c0-0.171-0.032-0.334-0.051-0.5H4.377l1.111,5h0.401C5.895,9.499,5.902,9.5,5.909,9.5z"/>
		<path d="M3.265,4.108C3.232,3.96,3.268,3.806,3.363,3.687C3.458,3.569,3.601,3.5,3.753,3.5h5.47C8.602,1.758,6.953,0.5,5,0.5
			C2.518,0.5,0.5,2.519,0.5,5c0,2.293,1.731,4.17,3.951,4.445L3.265,4.108z"/>
	</g>
	<path d="M21,4.5h-3.213l-0.444,1h3.034l-3.777,17H9.401l-3.777-17h10.624l0.145-0.326L16.692,4.5H5
		c-0.152,0-0.295,0.069-0.39,0.187C4.515,4.806,4.479,4.96,4.512,5.108l4,18C8.562,23.337,8.766,23.5,9,23.5h8
		c0.234,0,0.437-0.163,0.488-0.392l4-18c0.033-0.148-0.003-0.303-0.098-0.421C21.295,4.569,21.152,4.5,21,4.5z"/>
	<path d="M15.564,9.5l-5.021,11.297c-0.083,0.187-0.266,0.297-0.458,0.297c-0.068,0-0.137-0.014-0.203-0.043
		c-0.252-0.112-0.366-0.408-0.254-0.66L14.47,9.5H6.512H5.488l3.024,13.608C8.562,23.337,8.766,23.5,9,23.5h8
		c0.234,0,0.437-0.163,0.488-0.392L20.512,9.5h-1.025H15.564z"/>
	<g>
		<path d="M10.999,21.5c-0.068,0-0.137-0.014-0.203-0.043c-0.252-0.112-0.366-0.408-0.254-0.66l8-18
			c0.047-0.106,0.13-0.192,0.233-0.244l4-2c0.246-0.122,0.547-0.023,0.671,0.224c0.124,0.247,0.023,0.547-0.224,0.671l-3.839,1.92
			l-7.927,17.836C11.374,21.39,11.191,21.5,10.999,21.5z"/>
	</g>
</g>
<g>
</g>
<g>
</g>
<g>
</g>
<g>
</g>
<g>
</g>
<g>
</g>
<g>
</g>
<g>
</g>
<g>
</g>
<g>
</g>
<g>
</g>
<g>
</g>
<g>
</g>
<g>
</g>
<g>
</g>
</svg>
