<?xml version="1.0" encoding="iso-8859-1"?>
<!-- Generator: Adobe Illustrator 19.0.0, SVG Export Plug-In . SVG Version: 6.00 Build 0)  -->
<svg version="1.1" id="Layer_1" xmlns="http://www.w3.org/2000/svg" xmlns:xlink="http://www.w3.org/1999/xlink" x="0px" y="0px"
	 viewBox="0 0 30 30" style="enable-background:new 0 0 30 30;" xml:space="preserve">
<g>
	<g>
		<path d="M30,10.961C30,7.209,27.044,0,23,0s-7,7.209-7,10.961c0,2.746,1.576,5.124,3.863,6.284L19.092,24.8
			C19.031,25.106,19,25.41,19,25.702C19,28.072,20.794,30,23,30s4-1.928,4-4.298c0-0.292-0.031-0.595-0.085-0.855l-0.778-7.602
			C28.424,16.085,30,13.707,30,10.961z M23,29c-1.654,0-3-1.479-3-3.298c0-0.23,0.024-0.461,0.08-0.754l0.747-7.299
			C21.512,17.874,22.241,18,23,18c0.759,0,1.488-0.126,2.173-0.352l0.754,7.347C25.976,25.241,26,25.473,26,25.702
			C26,27.521,24.654,29,23,29z M23,17c-3.309,0-6-2.709-6-6.039C17,7.303,19.965,1,23,1c3.035,0,6,6.303,6,9.961
			C29,14.291,26.309,17,23,17z M12,0c-1.103,0-2,0.897-2,2v7.5C10,9.776,9.776,10,9.5,10S9,9.776,9,9.5V2c0-1.103-0.897-2-2-2
			C5.897,0,5,0.897,5,2v7.5C5,9.776,4.776,10,4.5,10S4,9.776,4,9.5V2c0-1.103-0.897-2-2-2C0.897,0,0,0.897,0,2v8.961
			c0,2.746,1.576,5.124,3.863,6.284L3.092,24.8C3.031,25.106,3,25.41,3,25.702C3,28.072,4.794,30,7,30s4-1.928,4-4.298
			c0-0.292-0.031-0.595-0.085-0.855l-0.778-7.602C12.424,16.085,14,13.707,14,10.961V2C14,0.897,13.103,0,12,0z M7,29
			c-1.654,0-3-1.479-3-3.298c0-0.23,0.024-0.461,0.08-0.754l0.747-7.299C5.512,17.874,6.241,18,7,18
			c0.759,0,1.488-0.126,2.173-0.352l0.754,7.347C9.976,25.241,10,25.473,10,25.702C10,27.521,8.654,29,7,29z M13,10.961
			C13,14.291,10.309,17,7,17c-3.309,0-6-2.709-6-6.039V2c0-0.551,0.449-1,1-1c0.551,0,1,0.449,1,1v7.5C3,10.327,3.673,11,4.5,11
			C5.327,11,6,10.327,6,9.5V2c0-0.551,0.449-1,1-1c0.551,0,1,0.449,1,1v7.5C8,10.327,8.673,11,9.5,11c0.827,0,1.5-0.673,1.5-1.5V2
			c0-0.551,0.449-1,1-1c0.551,0,1,0.449,1,1V10.961z"/>
	</g>
</g>
</svg>
