<?xml version="1.0" encoding="iso-8859-1"?>
<!-- Generator: Adobe Illustrator 19.0.0, SVG Export Plug-In . SVG Version: 6.00 Build 0)  -->
<svg version="1.1" id="Layer_1" xmlns="http://www.w3.org/2000/svg" xmlns:xlink="http://www.w3.org/1999/xlink" x="0px" y="0px"
	 viewBox="0 0 30 30" style="enable-background:new 0 0 30 30;" xml:space="preserve">
<g>
	<g>
		<path d="M30,7.5c0-1.654-1.355-3-3.022-3h-3.723c-0.002,0-0.003-0.001-0.005-0.001H22c-0.003,0-0.006,0.001-0.01,0.001H8.01
			C8.006,4.5,8.003,4.499,8,4.499H6.75C6.748,4.499,6.747,4.5,6.745,4.5H3.022C1.355,4.5,0,5.846,0,7.5v5
			c0,0.135,0.016,0.263,0.02,0.397c-0.005,0.022-0.016,0.041-0.018,0.064c0,0.006,0.002,0.012,0.002,0.018
			C0.004,12.987,0,12.993,0,13c0,0.029,0.012,0.055,0.017,0.082c0.005,0.031,0.007,0.062,0.017,0.09
			C0.389,20.462,6.432,25.5,15,25.5c8.568,0,14.611-5.038,14.966-12.327c0.011-0.028,0.012-0.059,0.017-0.09
			C29.988,13.055,30,13.03,30,13c0-0.007-0.004-0.013-0.004-0.021c0-0.006,0.003-0.012,0.002-0.018
			c-0.002-0.023-0.013-0.042-0.018-0.063C29.984,12.764,30,12.636,30,12.5V7.5z M1,7.5c0-1.103,0.907-2,2.022-2h4.987
			C9.108,5.506,10,6.475,10,7.666v2.667c0,1.195-0.897,2.167-2,2.167H1V7.5z M1.057,13.57c5.689,0.681,9.259,4.464,9.891,10.491
			C5.845,22.93,1.522,19.557,1.057,13.57z M15,24.5c-1.015,0-2.029-0.089-3.025-0.249c-0.468-5.297-3.004-9.04-7.145-10.751H8
			c1.654,0,3-1.42,3-3.167V7.666c0-0.84-0.316-1.599-0.823-2.166h9.646C19.316,6.068,19,6.827,19,7.666v2.667
			c0,1.747,1.346,3.167,3,3.167h3.172c-4.142,1.711-6.679,5.454-7.147,10.751C17.029,24.412,16.015,24.5,15,24.5z M19.052,24.06
			c0.632-6.026,4.202-9.809,9.891-10.491C28.478,19.557,24.155,22.93,19.052,24.06z M29,12.5h-7c-1.103,0-2-0.972-2-2.167V7.666
			c0-1.191,0.892-2.16,1.991-2.166h4.987C28.093,5.5,29,6.397,29,7.5V12.5z"/>
	</g>
</g>
</svg>
