<?xml version="1.0" encoding="iso-8859-1"?>
<!-- Generator: Adobe Illustrator 19.0.0, SVG Export Plug-In . SVG Version: 6.00 Build 0)  -->
<svg version="1.1" id="Layer_1" xmlns="http://www.w3.org/2000/svg" xmlns:xlink="http://www.w3.org/1999/xlink" x="0px" y="0px"
	 viewBox="0 0 30 30" style="enable-background:new 0 0 30 30;" xml:space="preserve">
<g>
	<g>
		<path d="M23.5,9H21c-0.008,0-0.016,0.004-0.024,0.005c-0.297-0.388-0.701-0.687-1.166-0.853C19.926,7.783,20,7.374,20,7
			c0-0.806-0.433-1.69-1.146-2.354l-4.5-4.5C14.26,0.054,14.133,0,14,0h-2.5c-0.18,0-0.347,0.096-0.436,0.253
			c-0.088,0.157-0.086,0.349,0.007,0.504L14,5.638V7c0,0.34,0.099,0.693,0.214,1H11c-0.797,0-1.515,0.402-1.976,1.005
			C9.016,9.004,9.008,9,9,9H6.5C4.57,9,3,10.57,3,12.5v10C3,23.326,3.673,24,4.5,24C5.327,24,6,23.326,6,22.5v-7
			c0-0.651,0.419-1.201,1-1.408v12.78C7,28.596,8.403,30,10.129,30h9.742C21.597,30,23,28.596,23,26.872v-12.78
			c0.581,0.207,1,0.757,1,1.408v7c0,0.827,0.673,1.5,1.5,1.5c0.827,0,1.5-0.673,1.5-1.5v-10C27,10.57,25.43,9,23.5,9z M12.383,1
			h1.41l4.367,4.366C18.566,5.745,19.001,6.372,19.001,7c0,0.322-0.075,0.704-0.187,1H15.3C15.136,7.667,15,7.276,15,7V5.5
			c0-0.09-0.024-0.179-0.071-0.257L12.383,1z M11,9h8c0.645,0,1.22,0.46,1.42,1.056C20.241,10.024,20.059,10,19.871,10h-9.742
			c-0.188,0-0.37,0.024-0.549,0.055C9.78,9.459,10.355,9,11,9z M7.008,13.049C5.864,13.279,5,14.29,5,15.5v7
			C5,22.776,4.775,23,4.5,23C4.225,23,4,22.776,4,22.5v-10C4,11.122,5.121,10,6.5,10h2.053c-0.032,0.152-0.048,0.309-0.05,0.469
			C7.627,11.006,7.036,11.955,7.008,13.049z M22,26.87c0,1.173-0.955,2.128-2.129,2.128h-9.742C8.955,28.998,8,28.044,8,26.87V25
			h3.5c0.276,0,0.5-0.224,0.5-0.5S11.776,24,11.5,24H8v-2h2.5c0.276,0,0.5-0.224,0.5-0.5S10.776,21,10.5,21H8v-2h3.5
			c0.276,0,0.5-0.224,0.5-0.5S11.776,18,11.5,18H8v-2h2.5c0.276,0,0.5-0.224,0.5-0.5S10.776,15,10.5,15H8v-1.872
			C8,11.954,8.955,11,10.129,11h9.742C21.045,11,22,11.953,22,13.128V26.87z M26,22.5c0,0.276-0.225,0.5-0.5,0.5
			c-0.275,0-0.5-0.224-0.5-0.5v-7c0-1.21-0.864-2.221-2.008-2.45c-0.028-1.094-0.619-2.043-1.495-2.581
			c-0.002-0.16-0.017-0.317-0.05-0.469H23.5c1.379,0,2.5,1.122,2.5,2.5V22.5z"/>
	</g>
</g>
</svg>
