<?xml version="1.0" encoding="iso-8859-1"?>
<!-- Generator: Adobe Illustrator 19.0.0, SVG Export Plug-In . SVG Version: 6.00 Build 0)  -->
<svg version="1.1" id="Layer_1" xmlns="http://www.w3.org/2000/svg" xmlns:xlink="http://www.w3.org/1999/xlink" x="0px" y="0px"
	 viewBox="0 0 30 30" style="enable-background:new 0 0 30 30;" xml:space="preserve">
<g>
	<g>
		<path d="M23.1,13.8c3.804,0,6.9-3.095,6.9-6.9S26.904,0,23.1,0c-3.804,0-6.899,3.095-6.899,6.9c0,1.89-1.828,3.073-2.578,3.48
			L9.121,5.879C8.555,5.312,7.802,5,7,5C5.346,5,4,6.346,4,8c0,0.801,0.313,1.554,0.879,2.121l5.186,5.186l-1.024,1.024
			C8.37,16.125,7.687,16,7,16c-3.859,0-7,3.14-7,7s3.141,7,7,7s7-3.14,7.001-7c0-0.688-0.125-1.371-0.331-2.041l1.023-1.023
			l5.186,5.186C20.445,25.688,21.198,26,22,26c1.654,0,3-1.346,3-3c0-0.801-0.313-1.554-0.879-2.121l-4.501-4.501
			C20.027,15.627,21.211,13.8,23.1,13.8z M7,29c-3.309,0-6-2.691-6-6c0-3.309,2.691-6,6-6c0.411,0,0.82,0.059,1.227,0.146
			l-1.269,1.268c-0.199,0.199-0.356,0.422-0.493,0.654C4.503,19.335,3,20.998,3,23c0,2.206,1.794,4,4,4
			c2.002,0,3.664-1.502,3.93-3.464c0.234-0.139,0.458-0.297,0.656-0.494l1.269-1.269C12.942,22.179,13,22.589,13,23
			C13,26.309,10.309,29,7,29z M6.958,23.042C7.576,23.66,8.398,24,9.272,24c0.186,0,0.367-0.023,0.547-0.053
			C9.42,25.141,8.307,26,7,26c-1.654,0-3-1.346-3-3c0-1.308,0.859-2.421,2.054-2.82C5.884,21.19,6.181,22.264,6.958,23.042z
			 M10.879,22.335c-0.858,0.858-2.355,0.858-3.214,0c-0.886-0.886-0.886-2.328,0-3.214l1.891-1.891
			c0.002-0.002,0.004-0.004,0.006-0.006l1.21-1.21l3.214,3.214L10.879,22.335z M23.414,21.586C23.792,21.964,24,22.466,24,23
			c0,1.103-0.897,2-2,2c-0.534,0-1.036-0.208-1.414-0.586l-15-15C5.208,9.036,5,8.534,5,8c0-1.103,0.897-2,2-2
			c0.534,0,1.036,0.208,1.414,0.586l4.666,4.666c0.043,0.073,0.101,0.13,0.171,0.171l5.326,5.326c0.042,0.071,0.1,0.131,0.175,0.175
			L23.414,21.586z M18.885,15.643l-4.527-4.527c1.017-0.598,2.843-1.981,2.843-4.216c0-3.254,2.646-5.9,5.899-5.9
			C26.354,1,29,3.646,29,6.9c0,3.254-2.646,5.9-5.9,5.9C20.866,12.8,19.483,14.626,18.885,15.643z M23.599,2.5
			c0-0.276-0.224-0.5-0.5-0.5C20.398,2,18.2,4.198,18.2,6.9c0,0.276,0.224,0.5,0.5,0.5c0.277,0,0.5-0.224,0.5-0.5
			c0-2.15,1.749-3.9,3.899-3.9C23.375,3,23.599,2.776,23.599,2.5z"/>
	</g>
</g>
</svg>
