<?xml version="1.0" encoding="iso-8859-1"?>
<!-- Generator: Adobe Illustrator 19.0.0, SVG Export Plug-In . SVG Version: 6.00 Build 0)  -->
<svg version="1.1" id="Layer_1" xmlns="http://www.w3.org/2000/svg" xmlns:xlink="http://www.w3.org/1999/xlink" x="0px" y="0px"
	 viewBox="0 0 24 24" style="enable-background:new 0 0 24 24;" xml:space="preserve">
<g>
	<g>
		<path d="M23.003,23.003h-0.5v-2.5c0-0.276-0.224-0.5-0.5-0.5s-0.5,0.224-0.5,0.5v2.5h-1v-1.5c0-0.276-0.224-0.5-0.5-0.5
			s-0.5,0.224-0.5,0.5v1.5h-2v-3.5c0-0.147-0.028-0.286-0.067-0.42c-0.008-0.026-0.015-0.053-0.025-0.079
			c-0.047-0.131-0.108-0.257-0.189-0.368c-0.002-0.003-0.005-0.006-0.008-0.009c-0.087-0.118-0.19-0.223-0.307-0.311
			c-0.002-0.002-0.004-0.004-0.006-0.005c-0.12-0.09-0.254-0.163-0.399-0.214c-0.157-0.056-0.324-0.092-0.5-0.092h-1
			c-0.276,0-0.5-0.224-0.5-0.5s0.224-0.5,0.5-0.5h1c0.171,0,0.338,0.018,0.5,0.051v-2.553c0-0.147-0.028-0.286-0.067-0.42
			c-0.008-0.026-0.015-0.053-0.025-0.079c-0.047-0.131-0.108-0.257-0.189-0.368c-0.002-0.003-0.005-0.006-0.008-0.009
			c-0.087-0.118-0.19-0.223-0.307-0.311c-0.002-0.002-0.004-0.004-0.006-0.005c-0.12-0.09-0.254-0.163-0.399-0.214
			c-0.157-0.056-0.324-0.092-0.5-0.092h-1c-0.276,0-0.5-0.224-0.5-0.5s0.224-0.5,0.5-0.5h1c0.171,0,0.338,0.018,0.5,0.051v-1.553
			c0-0.15-0.028-0.292-0.069-0.427c-0.006-0.02-0.012-0.04-0.018-0.059c-0.151-0.421-0.488-0.753-0.912-0.906V9.095
			c-0.157-0.056-0.324-0.092-0.5-0.092c-0.276,0-0.5-0.224-0.5-0.5s0.224-0.5,0.5-0.5c0.171,0,0.338,0.018,0.5,0.051V6.503
			c0-0.695-0.478-1.276-1.121-1.446l-0.878-2.636V0.503c0-0.276-0.224-0.5-0.5-0.5s-0.5,0.224-0.5,0.5v1.918l-0.879,2.636
			c-0.643,0.17-1.121,0.751-1.121,1.446v0.551c0.162-0.033,0.329-0.051,0.5-0.051c0.276,0,0.5,0.224,0.5,0.5s-0.224,0.5-0.5,0.5
			c-0.176,0-0.343,0.036-0.5,0.092C9.359,8.146,9.225,8.219,9.104,8.309C9.102,8.311,9.1,8.313,9.098,8.314
			c-0.117,0.088-0.22,0.194-0.307,0.311C8.789,8.628,8.786,8.631,8.783,8.634c-0.08,0.111-0.141,0.237-0.189,0.368
			C8.585,9.028,8.577,9.054,8.569,9.081c-0.04,0.134-0.067,0.273-0.067,0.42v1.551c0.162-0.033,0.329-0.051,0.5-0.051h1
			c0.276,0,0.5,0.224,0.5,0.5s-0.224,0.5-0.5,0.5h-1c-0.176,0-0.343,0.036-0.5,0.092c-0.144,0.051-0.278,0.124-0.399,0.214
			c-0.002,0.002-0.004,0.004-0.006,0.005C7.98,12.4,7.877,12.506,7.79,12.623c-0.002,0.003-0.005,0.006-0.008,0.009
			C7.702,12.743,7.641,12.869,7.593,13c-0.009,0.026-0.017,0.052-0.025,0.079c-0.04,0.134-0.067,0.273-0.067,0.42v2.551
			c0.162-0.033,0.329-0.051,0.5-0.051h1c0.276,0,0.5,0.224,0.5,0.5s-0.224,0.5-0.5,0.5h-1c-0.176,0-0.343,0.036-0.5,0.092
			c-0.144,0.051-0.278,0.124-0.399,0.214C7.1,17.307,7.098,17.309,7.096,17.31c-0.117,0.088-0.22,0.194-0.307,0.311
			c-0.002,0.003-0.005,0.006-0.008,0.009c-0.08,0.111-0.141,0.237-0.189,0.368c-0.009,0.026-0.017,0.052-0.025,0.079
			C6.527,18.211,6.5,18.35,6.5,18.497v4.5h-2v-1.5c0-0.276-0.224-0.5-0.5-0.5s-0.5,0.224-0.5,0.5v1.5h-1v-2.5
			c0-0.276-0.224-0.5-0.5-0.5s-0.5,0.224-0.5,0.5v2.5H1c-0.276,0-0.5,0.224-0.5,0.5s0.224,0.5,0.5,0.5h22c0.276,0,0.5-0.224,0.5-0.5
			S23.279,23.003,23.003,23.003z M11.643,7.152c0.21-0.199,0.521-0.189,0.71-0.01c0.101,0.11,0.15,0.23,0.15,0.36
			s-0.05,0.25-0.141,0.35c-0.099,0.101-0.229,0.151-0.359,0.151s-0.26-0.05-0.36-0.15c-0.09-0.1-0.14-0.22-0.14-0.35
			S11.553,7.253,11.643,7.152z M11.503,11.003h1c0.276,0,0.5,0.224,0.5,0.5s-0.224,0.5-0.5,0.5h-1c-0.276,0-0.5-0.224-0.5-0.5
			S11.227,11.003,11.503,11.003z M10.503,15.003h3c0.276,0,0.5,0.224,0.5,0.5s-0.224,0.5-0.5,0.5h-3c-0.276,0-0.5-0.224-0.5-0.5
			S10.227,15.003,10.503,15.003z M14.003,21.003h-4c-0.276,0-0.5-0.224-0.5-0.5s0.224-0.5,0.5-0.5h4c0.276,0,0.5,0.224,0.5,0.5
			S14.279,21.003,14.003,21.003z"/>
	</g>
</g>
</svg>
