<?xml version="1.0" encoding="iso-8859-1"?>
<!-- Generator: Adobe Illustrator 19.0.0, SVG Export Plug-In . SVG Version: 6.00 Build 0)  -->
<svg version="1.1" id="Layer_1" xmlns="http://www.w3.org/2000/svg" xmlns:xlink="http://www.w3.org/1999/xlink" x="0px" y="0px"
	 viewBox="0 0 24 24" style="enable-background:new 0 0 24 24;" xml:space="preserve">
<g>
	<g>
		<path d="M17,23h-0.5V0.5C16.5,0.224,16.276,0,16,0H8C7.724,0,7.5,0.224,7.5,0.5V23H7c-0.276,0-0.5,0.224-0.5,0.5S6.724,24,7,24h10
			c0.276,0,0.5-0.224,0.5-0.5S17.276,23,17,23z M11,3h0.5V2.5C11.5,2.224,11.724,2,12,2s0.5,0.224,0.5,0.5V3H13
			c0.276,0,0.5,0.224,0.5,0.5S13.276,4,13,4h-0.5v0.5C12.5,4.776,12.276,5,12,5s-0.5-0.224-0.5-0.5V4H11c-0.276,0-0.5-0.224-0.5-0.5
			S10.724,3,11,3z M14.5,23h-5v-4.5c0-0.276,0.224-0.5,0.5-0.5h4c0.276,0,0.5,0.224,0.5,0.5V23z M14.5,16.5
			c0,0.276-0.224,0.5-0.5,0.5h-4c-0.276,0-0.5-0.224-0.5-0.5v-4c0-0.276,0.224-0.5,0.5-0.5h4c0.276,0,0.5,0.224,0.5,0.5V16.5z
			 M14.5,10.5c0,0.276-0.224,0.5-0.5,0.5h-4c-0.276,0-0.5-0.224-0.5-0.5v-4C9.5,6.224,9.724,6,10,6h4c0.276,0,0.5,0.224,0.5,0.5
			V10.5z M6.5,5.5C6.5,5.224,6.276,5,6,5H1C0.724,5,0.5,5.224,0.5,5.5v16C0.5,21.776,0.724,22,1,22h5c0.276,0,0.5-0.224,0.5-0.5V5.5
			z M5.5,19.5C5.5,19.776,5.276,20,5,20H2c-0.276,0-0.5-0.224-0.5-0.5v-2C1.5,17.224,1.724,17,2,17h3c0.276,0,0.5,0.224,0.5,0.5
			V19.5z M5.5,14.5C5.5,14.776,5.276,15,5,15H2c-0.276,0-0.5-0.224-0.5-0.5v-2C1.5,12.224,1.724,12,2,12h3
			c0.276,0,0.5,0.224,0.5,0.5V14.5z M5.5,9.5C5.5,9.776,5.276,10,5,10H2c-0.276,0-0.5-0.224-0.5-0.5v-2C1.5,7.224,1.724,7,2,7h3
			c0.276,0,0.5,0.224,0.5,0.5V9.5z M23,5h-5c-0.276,0-0.5,0.224-0.5,0.5v16c0,0.276,0.224,0.5,0.5,0.5h5c0.276,0,0.5-0.224,0.5-0.5
			v-16C23.5,5.224,23.276,5,23,5z M22.5,19.5c0,0.276-0.224,0.5-0.5,0.5h-3c-0.276,0-0.5-0.224-0.5-0.5v-2
			c0-0.276,0.224-0.5,0.5-0.5h3c0.276,0,0.5,0.224,0.5,0.5V19.5z M22.5,14.5c0,0.276-0.224,0.5-0.5,0.5h-3
			c-0.276,0-0.5-0.224-0.5-0.5v-2c0-0.276,0.224-0.5,0.5-0.5h3c0.276,0,0.5,0.224,0.5,0.5V14.5z M22.5,9.5
			c0,0.276-0.224,0.5-0.5,0.5h-3c-0.276,0-0.5-0.224-0.5-0.5v-2C18.5,7.224,18.724,7,19,7h3c0.276,0,0.5,0.224,0.5,0.5V9.5z"/>
	</g>
</g>
</svg>
