<?xml version="1.0" encoding="iso-8859-1"?>
<!-- Generator: Adobe Illustrator 19.0.0, SVG Export Plug-In . SVG Version: 6.00 Build 0)  -->
<svg version="1.1" id="Layer_1" xmlns="http://www.w3.org/2000/svg" xmlns:xlink="http://www.w3.org/1999/xlink" x="0px" y="0px"
	 viewBox="0 0 24 24" style="enable-background:new 0 0 24 24;" xml:space="preserve">
<g>
	<g>
		<path d="M17,3c0.062,0,0.125-0.012,0.186-0.036l5-2c0.256-0.103,0.381-0.394,0.279-0.649c-0.102-0.255-0.395-0.38-0.65-0.278l-5,2
			c-0.256,0.103-0.381,0.394-0.279,0.649C16.614,2.881,16.802,3,17,3z M17,5h3c0.276,0,0.5-0.224,0.5-0.5S20.276,4,20,4h-3
			c-0.276,0-0.5,0.224-0.5,0.5S16.724,5,17,5z M7,4H4C3.724,4,3.5,4.224,3.5,4.5S3.724,5,4,5h3c0.276,0,0.5-0.224,0.5-0.5
			S7.276,4,7,4z M1.814,0.964l5,2C6.875,2.988,6.938,3,7,3c0.198,0,0.386-0.119,0.464-0.314C7.567,2.43,7.442,2.139,7.185,2.037
			l-5-2c-0.254-0.102-0.547,0.022-0.65,0.278C1.432,0.571,1.558,0.861,1.814,0.964z M17.5,8.5C17.5,8.224,17.276,8,17,8h-0.846
			l-0.396-4.557C15.587,1.48,13.973,0,11.998,0c-1.971,0-3.585,1.48-3.756,3.443L7.846,8H7C6.724,8,6.5,8.224,6.5,8.5S6.724,9,7,9
			h0.759l-0.214,2.457l-1.044,12c-0.012,0.14,0.035,0.277,0.129,0.381S6.86,24,7,24h10c0.14,0,0.274-0.059,0.369-0.162
			c0.095-0.103,0.142-0.241,0.129-0.381l-1.044-12L16.241,9H17C17.276,9,17.5,8.776,17.5,8.5z M12.5,3.5C12.5,3.224,12.724,3,13,3
			s0.5,0.224,0.5,0.5v2C13.5,5.776,13.276,6,13,6s-0.5-0.224-0.5-0.5V3.5z M10.5,3.5C10.5,3.224,10.724,3,11,3s0.5,0.224,0.5,0.5v2
			C11.5,5.776,11.276,6,11,6s-0.5-0.224-0.5-0.5V3.5z M8.763,9h6.475l0.173,2H8.589L8.763,9z M8.241,15h7.518l0.174,2H8.067
			L8.241,15z M16.281,21l0.174,2h-8.91l0.174-2H16.281z M7.409,6.303C7.3,6.049,7.004,5.932,6.753,6.04l-4.95,2.121
			C1.549,8.27,1.431,8.564,1.54,8.818c0.081,0.189,0.266,0.303,0.459,0.303c0.066,0,0.133-0.013,0.197-0.04l4.95-2.121
			C7.4,6.851,7.518,6.557,7.409,6.303z M22.197,8.161l-4.95-2.121c-0.251-0.107-0.548,0.009-0.656,0.263
			C16.482,6.557,16.6,6.851,16.854,6.96l4.95,2.121c0.064,0.027,0.131,0.04,0.197,0.04c0.194,0,0.378-0.113,0.459-0.303
			C22.568,8.564,22.451,8.271,22.197,8.161z"/>
	</g>
</g>
</svg>
