<?xml version="1.0" encoding="iso-8859-1"?>
<!-- Generator: Adobe Illustrator 19.0.0, SVG Export Plug-In . SVG Version: 6.00 Build 0)  -->
<svg version="1.1" id="Layer_1" xmlns="http://www.w3.org/2000/svg" xmlns:xlink="http://www.w3.org/1999/xlink" x="0px" y="0px"
	 viewBox="0 0 24 24" style="enable-background:new 0 0 24 24;" xml:space="preserve">
<g>
	<g>
		<path d="M23.984,0.871c-0.071-0.267-0.347-0.427-0.612-0.354c-2.088,0.555-5.197,0.881-8.574,0.983h-4.697
			c-3.483-0.103-6.9-0.43-9.496-0.989C0.335,0.46,0.069,0.625,0.011,0.895C-0.047,1.166,0.125,1.431,0.395,1.49
			C0.901,1.599,1.443,1.696,2,1.789v2.212c0,0.276,0.224,0.5,0.5,0.5h1.473L3.001,22.974c-0.007,0.137,0.042,0.271,0.137,0.37
			c0.094,0.1,0.226,0.156,0.363,0.156h4c0.007-0.001,0.013-0.001,0.02,0c0.276,0,0.5-0.224,0.5-0.5c0-0.058-0.01-0.113-0.028-0.165
			L7.239,8.5h3.762V10c0,0.276,0.224,0.5,0.5,0.5h2c0.276,0,0.5-0.224,0.5-0.5V8.5h3.262l-0.762,14.474
			c-0.007,0.137,0.042,0.271,0.137,0.37c0.094,0.1,0.226,0.156,0.363,0.156h4c0.006-0.001,0.013-0.001,0.02,0
			c0.276,0,0.5-0.224,0.5-0.5c0-0.058-0.01-0.113-0.028-0.165L20.528,4.5h0.973c0.276,0,0.5-0.224,0.5-0.5V1.835
			c0.583-0.107,1.138-0.221,1.628-0.352C23.897,1.412,24.055,1.139,23.984,0.871z M17.316,7.5H7.186l-0.158-3h10.446L17.316,7.5z"/>
	</g>
</g>
</svg>
