<?xml version="1.0" encoding="iso-8859-1"?>
<!-- Generator: Adobe Illustrator 19.0.0, SVG Export Plug-In . SVG Version: 6.00 Build 0)  -->
<svg version="1.1" id="Layer_1" xmlns="http://www.w3.org/2000/svg" xmlns:xlink="http://www.w3.org/1999/xlink" x="0px" y="0px"
	 viewBox="0 0 24 24" style="enable-background:new 0 0 24 24;" xml:space="preserve">
<g>
	<g>
		<path d="M23.799,5.967c0.126-0.094,0.2-0.243,0.2-0.4c0-0.157-0.074-0.306-0.2-0.4l-2-1.5c-0.151-0.113-0.354-0.132-0.523-0.047
			C21.107,3.705,21,3.878,21,4.067V8.55c-1.705-0.515-4.189-0.761-6.193-0.877c-0.051-0.039-0.11-0.07-0.175-0.088
			c-0.137-0.038-0.276-0.011-0.39,0.058C13.287,7.596,12.488,7.578,12,7.572V6.318l1.8-1.35c0.126-0.094,0.2-0.243,0.2-0.4
			c0-0.157-0.074-0.306-0.2-0.4l-2-1.5c-0.15-0.114-0.354-0.131-0.523-0.047C11.107,2.706,11,2.879,11,3.068v4.504
			c-0.488,0.007-1.287,0.025-2.242,0.071c-0.114-0.069-0.253-0.095-0.39-0.058C8.302,7.603,8.243,7.634,8.193,7.673
			C5.748,7.815,2.586,8.149,1,8.93V7.317l1.8-1.35C2.927,5.873,3,5.724,3,5.567c0-0.157-0.074-0.306-0.2-0.4l-2-1.5
			C0.649,3.554,0.448,3.535,0.277,3.62C0.108,3.705,0.001,3.878,0.001,4.067v6c0,0.012,0.001,0.032,0.003,0.055l0.994,8.945
			c0,1.547,3.943,2.136,7,2.361v-3.361c0-0.827,0.673-1.5,1.5-1.5h4c0.827,0,1.5,0.673,1.5,1.5v3.364
			c3.057-0.22,6.999-0.797,6.997-2.309l0.991-8.917c0-0.004,0.001-0.009,0.001-0.013c0.002-0.023,0.005-0.047,0.007-0.069
			c0.002-0.023,0.003-0.043,0.003-0.055c0-0.458-0.38-0.832-1-1.137V7.318L23.799,5.967z M1.021,10.071
			c0.164-0.224,0.86-0.509,2.046-0.772c0.014,0.027,0.022,0.056,0.041,0.08l1.375,1.719C2.421,10.78,1.231,10.366,1.021,10.071z
			 M5.892,11.281c-0.013-0.021-0.018-0.047-0.035-0.068L4.158,9.089c1.075-0.18,2.404-0.335,3.985-0.428l0.777,2.848
			C7.798,11.46,6.788,11.38,5.892,11.281z M13.032,11.546c-0.119,0.003-0.232,0.008-0.353,0.01c-0.383,0.007-0.776,0.011-1.18,0.011
			c-0.405,0-0.799-0.004-1.183-0.011c-0.12-0.002-0.232-0.007-0.35-0.01l-0.8-2.934c0.733-0.029,1.51-0.045,2.333-0.045
			s1.6,0.016,2.333,0.045L13.032,11.546z M17.106,11.282c-0.123,0.014-0.241,0.028-0.369,0.041
			c-0.136,0.014-0.283,0.026-0.424,0.038c-0.162,0.015-0.32,0.03-0.489,0.044c-0.169,0.013-0.349,0.024-0.524,0.036
			c-0.152,0.01-0.298,0.022-0.455,0.031c-0.204,0.012-0.42,0.021-0.633,0.031c-0.045,0.002-0.088,0.004-0.133,0.006l0.777-2.849
			c1.583,0.094,2.914,0.247,3.99,0.422l-1.705,2.132C17.124,11.235,17.119,11.26,17.106,11.282z M22.003,10.022L22,10.035
			c-0.009,0.016-0.028,0.034-0.043,0.051c-0.017,0.019-0.029,0.037-0.053,0.057c-0.021,0.017-0.051,0.035-0.077,0.052
			c-0.032,0.021-0.06,0.042-0.1,0.064c-0.031,0.017-0.072,0.035-0.107,0.052c-0.047,0.023-0.091,0.046-0.147,0.07
			c-0.041,0.018-0.092,0.035-0.138,0.053c-0.063,0.024-0.123,0.049-0.194,0.073c-0.051,0.018-0.112,0.035-0.168,0.053
			c-0.078,0.025-0.153,0.05-0.24,0.075c-0.062,0.018-0.133,0.035-0.199,0.053c-0.094,0.025-0.184,0.05-0.286,0.075
			c-0.068,0.016-0.145,0.032-0.216,0.049c-0.112,0.026-0.222,0.051-0.343,0.076c-0.078,0.016-0.165,0.031-0.246,0.047
			c-0.126,0.024-0.248,0.049-0.383,0.073c-0.097,0.017-0.203,0.033-0.304,0.05c-0.079,0.013-0.157,0.026-0.239,0.039l1.374-1.717
			c0.023-0.029,0.033-0.063,0.049-0.095C21.172,9.547,21.881,9.827,22.003,10.022z"/>
	</g>
</g>
</svg>
