<?xml version="1.0" encoding="iso-8859-1"?>
<!-- Generator: Adobe Illustrator 19.0.0, SVG Export Plug-In . SVG Version: 6.00 Build 0)  -->
<svg version="1.1" id="Layer_1" xmlns="http://www.w3.org/2000/svg" xmlns:xlink="http://www.w3.org/1999/xlink" x="0px" y="0px"
	 viewBox="0 0 24 24" style="enable-background:new 0 0 24 24;" xml:space="preserve">
<g>
	<g>
		<path d="M14.544,8.209l0.284-0.283c0.195-0.195,0.512-0.195,0.707,0l0.506,0.506l0.201,0.201c0.094,0.094,0.221,0.146,0.354,0.146
			s0.26-0.053,0.354-0.146l4.95-4.95c0.195-0.195,0.195-0.512,0-0.707l-1.414-1.414c-0.188-0.188-0.52-0.188-0.707,0l-4.022,4.022
			l-0.159-1.583h0.447c0.215,0,0.406-0.138,0.474-0.342S16.518,3.23,16.346,3.1l-4-3c-0.178-0.133-0.422-0.133-0.6,0l-2.71,2.033
			l2.258,2.258c0.283,0.283,0.439,0.66,0.439,1.061s-0.156,0.777-0.439,1.061L10.94,6.867l0.269,0.269
			c0.267-0.08,0.544-0.135,0.837-0.135c0.646,0,1.231,0.223,1.72,0.573l-0.574,0.573c-0.046,0.046-0.079,0.099-0.103,0.155
			C12.784,8.114,12.429,8,12.046,8c-0.394,0-0.759,0.118-1.069,0.316L9.879,7.218c-0.195-0.195-0.195-0.512,0-0.707l0.707-0.707
			c0.094-0.094,0.146-0.221,0.146-0.354s-0.053-0.26-0.146-0.354L8.637,3.147L8.536,3.045L8.534,3.044L5.636,0.146
			c-0.195-0.195-0.512-0.195-0.707,0L3.516,1.56c-0.195,0.195-0.195,0.512,0,0.707L7.758,6.51l0.246,0.246L8.2,6.951l-0.346,3.46
			c0.226,0.068,0.44,0.169,0.612,0.341l0.224,0.224l0.278-0.018l0.191-0.191c-0.066-0.246-0.112-0.5-0.112-0.767
			c0-0.622,0.209-1.187,0.537-1.664l0.714,0.714c-0.155,0.284-0.251,0.604-0.251,0.95c0,0.37,0.108,0.712,0.283,1.01l-0.724,0.723
			l-0.434,0.434c-0.098,0.098-0.226,0.146-0.354,0.146s-0.256-0.049-0.354-0.146L7.756,11.46c-0.188-0.188-0.52-0.188-0.707,0
			l-4.95,4.95c-0.195,0.195-0.195,0.512,0,0.707l1.414,1.414c0.094,0.094,0.221,0.146,0.354,0.146s0.26-0.053,0.354-0.146
			l3.132-3.132L6.548,23.45c-0.014,0.141,0.032,0.28,0.127,0.386c0.094,0.105,0.229,0.165,0.37,0.165h2.5v-3.5
			c0-1.379,1.122-2.5,2.5-2.5s2.5,1.121,2.5,2.5v3.5h2.5c0.007-0.001,0.014,0,0.02,0c0.276,0,0.5-0.224,0.5-0.5
			c0-0.066-0.013-0.129-0.036-0.188l-0.31-3.097l-4.513-4.513c-0.585-0.585-0.585-1.536,0-2.121l0.354-0.354l-0.318-0.318
			C12.518,12.964,12.286,13,12.046,13c-0.646,0-1.231-0.223-1.72-0.573l0.711-0.71c0.297,0.176,0.64,0.283,1.01,0.283
			c0.346,0,0.666-0.096,0.95-0.251l1.126,1.126c0.195,0.195,0.195,0.511,0,0.706l-0.708,0.708c-0.195,0.195-0.195,0.512,0,0.707
			l3.315,3.315l0.259,0.259l1.375,1.375c0.098,0.098,0.226,0.146,0.354,0.146s0.256-0.049,0.354-0.146l1.415-1.414
			c0.094-0.094,0.146-0.221,0.146-0.354s-0.053-0.26-0.146-0.354l-3.894-3.894l-0.422-4.221c-0.236-0.07-0.455-0.192-0.634-0.371
			l-0.28-0.28l-0.153,0.006l-0.169,0.168c0.066,0.246,0.112,0.5,0.112,0.767c0,0.67-0.237,1.276-0.609,1.775l-0.706-0.706
			c0.197-0.31,0.316-0.675,0.316-1.069c0-0.383-0.114-0.739-0.302-1.043c0.056-0.024,0.109-0.057,0.155-0.103L14.544,8.209z"/>
	</g>
</g>
</svg>
