<?xml version="1.0" encoding="iso-8859-1"?>
<!-- Generator: Adobe Illustrator 19.0.0, SVG Export Plug-In . SVG Version: 6.00 Build 0)  -->
<svg version="1.1" id="Layer_1" xmlns="http://www.w3.org/2000/svg" xmlns:xlink="http://www.w3.org/1999/xlink" x="0px" y="0px"
	 viewBox="0 0 24 24" style="enable-background:new 0 0 24 24;" xml:space="preserve">
<g>
	<g>
		<path d="M19,23.5h-5c-1.93,0-3.5-1.57-3.5-3.5s1.57-3.5,3.5-3.5h6.5c1.378,0,2.5,1.122,2.5,2.5s-1.122,2.5-2.5,2.5H14
			c-0.827,0-1.5-0.673-1.5-1.5s0.673-1.5,1.5-1.5h5c0.276,0,0.5,0.224,0.5,0.5s-0.224,0.5-0.5,0.5h-5c-0.276,0-0.5,0.224-0.5,0.5
			s0.224,0.5,0.5,0.5h6.5c0.827,0,1.5-0.673,1.5-1.5s-0.673-1.5-1.5-1.5H14c-1.378,0-2.5,1.122-2.5,2.5s1.122,2.5,2.5,2.5h5
			c0.276,0,0.5,0.224,0.5,0.5S19.276,23.5,19,23.5z"/>
	</g>
	<g>
		<g>
			<g>
				<path d="M9.5,22.5h-8C1.224,22.5,1,22.276,1,22V7c0-0.133,0.053-0.26,0.146-0.354l6-6C7.24,0.553,7.367,0.5,7.5,0.5h10
					C17.776,0.5,18,0.724,18,1v14c0,0.276-0.224,0.5-0.5,0.5S17,15.276,17,15V1.5H7.707L2,7.207V21.5h7.5c0.276,0,0.5,0.224,0.5,0.5
					S9.776,22.5,9.5,22.5z"/>
			</g>
			<g>
				<path d="M7.5,7.5h-6C1.224,7.5,1,7.276,1,7s0.224-0.5,0.5-0.5H7V1c0-0.276,0.224-0.5,0.5-0.5S8,0.724,8,1v6
					C8,7.276,7.776,7.5,7.5,7.5z"/>
			</g>
		</g>
	</g>
</g>
<g>
</g>
<g>
</g>
<g>
</g>
<g>
</g>
<g>
</g>
<g>
</g>
<g>
</g>
<g>
</g>
<g>
</g>
<g>
</g>
<g>
</g>
<g>
</g>
<g>
</g>
<g>
</g>
<g>
</g>
</svg>
