<?xml version="1.0" encoding="iso-8859-1"?>
<!-- Generator: Adobe Illustrator 19.0.0, SVG Export Plug-In . SVG Version: 6.00 Build 0)  -->
<svg version="1.1" id="Layer_1" xmlns="http://www.w3.org/2000/svg" xmlns:xlink="http://www.w3.org/1999/xlink" x="0px" y="0px"
	 viewBox="0 0 24 24" style="enable-background:new 0 0 24 24;" xml:space="preserve">
<g>
	<g>
		<path d="M17,24c-3.033,0-5.5-2.467-5.5-5.5S13.967,13,17,13s5.5,2.467,5.5,5.5c0,0.276-0.224,0.5-0.5,0.5s-0.5-0.224-0.5-0.5
			c0-2.481-2.019-4.5-4.5-4.5s-4.5,2.019-4.5,4.5S14.519,23,17,23c1.174,0,2.286-0.449,3.129-1.266
			c0.199-0.191,0.515-0.187,0.707,0.012s0.187,0.515-0.012,0.707C19.794,23.451,18.436,24,17,24z"/>
	</g>
	<g>
		<path d="M17,21c-1.378,0-2.5-1.122-2.5-2.5S15.622,16,17,16s2.5,1.122,2.5,2.5S18.378,21,17,21z M17,17
			c-0.827,0-1.5,0.673-1.5,1.5S16.173,20,17,20s1.5-0.673,1.5-1.5S17.827,17,17,17z"/>
	</g>
	<g>
		<path d="M20.5,21c-1.252,0-2-0.935-2-2.5c0-0.276,0.224-0.5,0.5-0.5s0.5,0.224,0.5,0.5c0,0.995,0.336,1.5,1,1.5
			c0.748,0,1-0.378,1-1.5c0-0.276,0.224-0.5,0.5-0.5s0.5,0.224,0.5,0.5C22.5,19.118,22.5,21,20.5,21z"/>
	</g>
	<g>
		<g>
			<g>
				<path d="M10.5,22H2c-0.276,0-0.5-0.224-0.5-0.5v-15c0-0.133,0.053-0.26,0.146-0.354l6-6C7.74,0.053,7.867,0,8,0h10
					c0.276,0,0.5,0.224,0.5,0.5v11c0,0.276-0.224,0.5-0.5,0.5s-0.5-0.224-0.5-0.5V1H8.207L2.5,6.707V21h8c0.276,0,0.5,0.224,0.5,0.5
					S10.776,22,10.5,22z"/>
			</g>
			<g>
				<path d="M8,7H2C1.724,7,1.5,6.776,1.5,6.5S1.724,6,2,6h5.5V0.5C7.5,0.224,7.724,0,8,0s0.5,0.224,0.5,0.5v6
					C8.5,6.776,8.276,7,8,7z"/>
			</g>
		</g>
	</g>
</g>
<g>
</g>
<g>
</g>
<g>
</g>
<g>
</g>
<g>
</g>
<g>
</g>
<g>
</g>
<g>
</g>
<g>
</g>
<g>
</g>
<g>
</g>
<g>
</g>
<g>
</g>
<g>
</g>
<g>
</g>
</svg>
