<?xml version="1.0" encoding="iso-8859-1"?>
<!-- Generator: Adobe Illustrator 19.0.0, SVG Export Plug-In . SVG Version: 6.00 Build 0)  -->
<svg version="1.1" id="Layer_1" xmlns="http://www.w3.org/2000/svg" xmlns:xlink="http://www.w3.org/1999/xlink" x="0px" y="0px"
	 viewBox="0 0 24 24" style="enable-background:new 0 0 24 24;" xml:space="preserve">
<g>
	<g>
		<path d="M13.5,20c-1.103,0-2-0.897-2-2s0.897-2,2-2s2,0.897,2,2S14.603,20,13.5,20z M13.5,17c-0.551,0-1,0.449-1,1s0.449,1,1,1
			s1-0.449,1-1S14.051,17,13.5,17z"/>
	</g>
	<g>
		<path d="M21.5,16c-1.103,0-2-0.897-2-2s0.897-2,2-2s2,0.897,2,2S22.603,16,21.5,16z M21.5,13c-0.551,0-1,0.449-1,1s0.449,1,1,1
			s1-0.449,1-1S22.051,13,21.5,13z"/>
	</g>
	<g>
		<path d="M21.5,24c-1.103,0-2-0.897-2-2s0.897-2,2-2s2,0.897,2,2S22.603,24,21.5,24z M21.5,21c-0.551,0-1,0.449-1,1s0.449,1,1,1
			s1-0.449,1-1S22.051,21,21.5,21z"/>
	</g>
	<g>
		<path d="M15,17.5c-0.184,0-0.36-0.101-0.448-0.276c-0.124-0.247-0.023-0.547,0.224-0.671l5-2.5
			c0.247-0.123,0.547-0.023,0.671,0.224c0.124,0.247,0.023,0.547-0.224,0.671l-5,2.5C15.152,17.483,15.076,17.5,15,17.5z"/>
	</g>
	<g>
		<path d="M20,22c-0.075,0-0.151-0.017-0.223-0.053l-5-2.5c-0.247-0.124-0.347-0.424-0.224-0.671s0.424-0.346,0.671-0.224l5,2.5
			c0.247,0.124,0.347,0.424,0.224,0.671C20.359,21.899,20.183,22,20,22z"/>
	</g>
	<g>
		<g>
			<g>
				<g>
					<path d="M12,22H1c-0.276,0-0.5-0.224-0.5-0.5v-15c0-0.133,0.053-0.26,0.146-0.354l6-6C6.74,0.053,6.867,0,7,0h11
						c0.276,0,0.5,0.224,0.5,0.5v11c0,0.276-0.224,0.5-0.5,0.5s-0.5-0.224-0.5-0.5V1H7.207L1.5,6.707V21H12
						c0.276,0,0.5,0.224,0.5,0.5S12.276,22,12,22z"/>
				</g>
				<g>
					<path d="M7,7H1C0.724,7,0.5,6.776,0.5,6.5S0.724,6,1,6h5.5V0.5C6.5,0.224,6.724,0,7,0s0.5,0.224,0.5,0.5v6
						C7.5,6.776,7.276,7,7,7z"/>
				</g>
			</g>
		</g>
	</g>
</g>
<g>
</g>
<g>
</g>
<g>
</g>
<g>
</g>
<g>
</g>
<g>
</g>
<g>
</g>
<g>
</g>
<g>
</g>
<g>
</g>
<g>
</g>
<g>
</g>
<g>
</g>
<g>
</g>
<g>
</g>
</svg>
