<?xml version="1.0" encoding="utf-8"?>
<!-- Generator: Adobe Illustrator 19.0.0, SVG Export Plug-In . SVG Version: 6.00 Build 0)  -->
<svg version="1.1" id="Layer_1" xmlns="http://www.w3.org/2000/svg" xmlns:xlink="http://www.w3.org/1999/xlink" x="0px" y="0px"
	 viewBox="0 0 30 30" style="enable-background:new 0 0 30 30;" xml:space="preserve">
<style type="text/css">
	.st0{fill:none;}
</style>
<g>
	<g>
		<path d="M26.5,2h-26C0.2,2,0,2.2,0,2.5v5C0,7.8,0.2,8,0.5,8H21v21.5c0,0.3,0.2,0.5,0.5,0.5h5c0.3,0,0.5-0.2,0.5-0.5v-27
			C27,2.2,26.8,2,26.5,2z"/>
	</g>
	<g>
		<g>
			<line class="st0" x1="7.5" y1="8" x2="21.5" y2="22"/>
		</g>
		<g>
			<path d="M21.5,22.5c-0.1,0-0.3,0-0.4-0.1l-14-14C7,8.2,7,7.8,7.1,7.6s0.5-0.2,0.7,0l14,14c0.2,0.2,0.2,0.5,0,0.7
				C21.8,22.5,21.6,22.5,21.5,22.5z"/>
		</g>
	</g>
	<g>
		<g>
			<path d="M2,2v0.5C2,2.8,2.2,3,2.5,3h5C7.8,3,8,2.8,8,2.5V2H2z"/>
		</g>
		<g>
			<path d="M8,1V0.5C8,0.2,7.8,0,7.5,0h-5C2.2,0,2,0.2,2,0.5V1H8z"/>
		</g>
	</g>
	<g>
		<g>
			<path d="M27,21h-0.5c-0.3,0-0.5,0.2-0.5,0.5v5c0,0.3,0.2,0.5,0.5,0.5H27V21z"/>
		</g>
		<g>
			<path d="M29.5,21H28v6h1.5c0.3,0,0.5-0.2,0.5-0.5v-5C30,21.2,29.8,21,29.5,21z"/>
		</g>
	</g>
	<g>
		<g>
			<path d="M20,22H8V9H2v18.5C2,27.8,2.2,28,2.5,28H20V22z"/>
		</g>
		<g>
			<path d="M21.5,21.5H21v6h0.5c0.3,0,0.5-0.2,0.5-0.5v-5C22,21.7,21.8,21.5,21.5,21.5z"/>
		</g>
	</g>
</g>
</svg>
