<?xml version="1.0" encoding="utf-8"?>
<!-- Generator: Adobe Illustrator 19.0.0, SVG Export Plug-In . SVG Version: 6.00 Build 0)  -->
<svg version="1.1" id="Layer_1" xmlns="http://www.w3.org/2000/svg" xmlns:xlink="http://www.w3.org/1999/xlink" x="0px" y="0px"
	 viewBox="0 0 30 30" style="enable-background:new 0 0 30 30;" xml:space="preserve">
<g>
	<g>
		<g>
			<path d="M2,30c-0.1,0-0.3-0.1-0.4-0.1l-1.5-1.5c-0.2-0.2-0.2-0.4-0.1-0.6l1.5-2.5C1.8,24.9,2,23.9,2,23.5V23
				c0-0.8,0.6-2.3,1.1-2.9l7.6-7.6c0.2-0.2,0.5-0.2,0.7,0s0.2,0.5,0,0.7l-7.6,7.6C3.5,21.2,3,22.5,3,23v0.5c0,0.6-0.2,1.8-0.6,2.3
				l-1.3,2.1l0.9,0.9l2.2-1.3C4.7,27.2,5.9,27,6.5,27H7c0.6,0,1.8-0.5,2.1-0.8c1.6-1.7,5.4-5.5,7.6-7.6c0.2-0.2,0.5-0.2,0.7,0
				c0.2,0.2,0.2,0.5,0,0.7c-2.2,2.1-6,5.9-7.6,7.6C9.3,27.5,7.8,28,7,28H6.5c-0.4,0-1.4,0.2-1.7,0.4l-2.5,1.5C2.2,30,2.1,30,2,30z"
				/>
		</g>
	</g>
	<g>
		<path d="M22.8,15.1l-8-8c-0.2-0.2-0.5-0.2-0.7,0l-3,3c-0.2,0.2-0.2,0.5,0,0.7l8,8c0.1,0.1,0.2,0.1,0.4,0.1s0.3,0,0.4-0.1l3-3
			C23,15.7,23,15.3,22.8,15.1z"/>
	</g>
	<g>
		<g>
			<path d="M5.5,25C5.2,25,5,24.8,5,24.5v-1c0-0.8,0.6-1.8,1.1-2.4l3-3c0.2-0.2,0.5-0.2,0.7,0s0.2,0.5,0,0.7l-3,3
				C6.4,22.3,6,23,6,23.5v1C6,24.8,5.8,25,5.5,25z"/>
		</g>
	</g>
	<g>
		<path d="M29.4,2.8c-0.3-0.6-0.7-1.2-1.1-1.6c-0.7-0.7-2-1.1-3.2-1.1L25,0c-1.1,0-2.1,0.4-2.8,1.1l-5.6,5.6c-0.2,0.2-0.2,0.5,0,0.7
			l6,6c0.1,0.1,0.2,0.1,0.4,0.1s0.3-0.1,0.4-0.1l6.1-6.1C30.3,6.4,30.1,4.3,29.4,2.8z"/>
	</g>
</g>
</svg>
