<?xml version="1.0" encoding="utf-8"?>
<!-- Generator: Adobe Illustrator 19.0.0, SVG Export Plug-In . SVG Version: 6.00 Build 0)  -->
<svg version="1.1" id="Layer_1" xmlns="http://www.w3.org/2000/svg" xmlns:xlink="http://www.w3.org/1999/xlink" x="0px" y="0px"
	 viewBox="0 0 30 30" style="enable-background:new 0 0 30 30;" xml:space="preserve">
<g>
	<g>
		<path d="M11.5,23.5c0-1.3-1.2-2.5-2.5-2.5H7c-0.3,0-0.5,0.2-0.5,0.5v4c0,0,0,0,0,0v4C6.5,29.8,6.7,30,7,30s0.5-0.2,0.5-0.5v-2.8
			l3.1,3.1C10.7,30,10.9,30,11,30s0.3,0,0.4-0.1c0.2-0.2,0.2-0.5,0-0.7L8.2,26H9C10.3,26,11.5,24.8,11.5,23.5z M7.5,25v-3H9
			c0.8,0,1.5,0.7,1.5,1.5S9.8,25,9,25H7.5z"/>
	</g>
	<g>
		<path d="M23.5,23.5c0-1.4-1.1-2.5-2.5-2.5h-2c-0.3,0-0.5,0.2-0.5,0.5v8c0,0.3,0.2,0.5,0.5,0.5h2c1.4,0,2.5-1.1,2.5-2.5
			c0-0.8-0.4-1.5-1-2C23.1,25,23.5,24.3,23.5,23.5z M22.5,27.5c0,0.8-0.7,1.5-1.5,1.5h-1.5v-3H21C21.8,26,22.5,26.7,22.5,27.5z
			 M21,25h-1.5v-3H21c0.8,0,1.5,0.7,1.5,1.5S21.8,25,21,25z"/>
	</g>
	<g>
		<path d="M15,22c0.5,0,1.5,0.2,1.5,1.1c0,0.3,0.2,0.5,0.5,0.5s0.5-0.2,0.5-0.5c0-1.4-1.3-2.1-2.5-2.1c-1.4,0-2.5,1.1-2.5,2.5v4
			c0,1.4,1.1,2.5,2.5,2.5c1.3,0,2.5-1.2,2.5-2.6v-1.1c0-0.3-0.2-0.5-0.5-0.5h-1c-0.3,0-0.5,0.2-0.5,0.5s0.2,0.5,0.5,0.5h0.5v0.6
			c0,0.9-0.7,1.6-1.5,1.6c-0.8,0-1.5-0.7-1.5-1.5v-4C13.5,22.7,14.2,22,15,22z"/>
	</g>
	<g>
		<path d="M21.5,6.5L21.5,6.5C21.5,2.9,18.6,0,15,0S8.5,2.9,8.5,6.5v0c-2.3,1-4,3.3-4,6c0,3.6,2.9,6.5,6.5,6.5c1.5,0,2.9-0.5,4-1.4
			c1.1,0.9,2.5,1.4,4,1.4c3.6,0,6.5-2.9,6.5-6.5C25.5,9.8,23.8,7.5,21.5,6.5z M15,16.3c-0.9-0.9-1.4-2.1-1.5-3.4
			c0.5,0.1,1,0.2,1.5,0.2s1-0.1,1.5-0.2C16.4,14.2,15.9,15.4,15,16.3z M15,12c-0.5,0-1-0.1-1.4-0.2c0.2-1.2,0.7-2.2,1.4-3.1
			c0.8,0.8,1.3,1.9,1.4,3.1C16,11.9,15.5,12,15,12z M12.6,11.4c-1.6-0.8-2.8-2.4-3-4.2C10,7.1,10.5,7,11,7c1.2,0,2.3,0.4,3.3,1.1
			C13.4,9,12.8,10.1,12.6,11.4z M15.7,8.1C16.7,7.4,17.8,7,19,7c0.5,0,1,0.1,1.4,0.2c-0.2,1.9-1.4,3.4-3,4.2
			C17.2,10.1,16.6,9,15.7,8.1z M15,1c2.9,0,5.3,2.3,5.5,5.2C20,6.1,19.5,6,19,6c-1.5,0-2.9,0.5-4,1.4C13.9,6.5,12.5,6,11,6
			c-0.5,0-1,0.1-1.5,0.2C9.7,3.3,12.1,1,15,1z M5.5,12.5c0-2.2,1.3-4,3.1-4.9c0.4,2.2,1.9,4.1,3.9,4.9v0c0,1.7,0.7,3.3,1.8,4.4
			c-0.9,0.7-2,1.1-3.3,1.1C8,18,5.5,15.5,5.5,12.5z M19,18c-1.2,0-2.3-0.4-3.3-1.1c1.1-1.2,1.8-2.7,1.8-4.4v0c2-0.8,3.5-2.7,3.9-4.9
			c1.8,0.9,3.1,2.8,3.1,4.9C24.5,15.5,22,18,19,18z"/>
	</g>
</g>
</svg>
