<?xml version="1.0" encoding="iso-8859-1"?>
<!-- Generator: Adobe Illustrator 19.0.0, SVG Export Plug-In . SVG Version: 6.00 Build 0)  -->
<svg version="1.1" id="Layer_1" xmlns="http://www.w3.org/2000/svg" xmlns:xlink="http://www.w3.org/1999/xlink" x="0px" y="0px"
	 viewBox="3 -3 30 30" style="enable-background:new 3 -3 30 30;" xml:space="preserve">
<g>
	<g>
		<path d="M5.5,23C5.224,23,5,22.776,5,22.5v-21C5,1.224,5.224,1,5.5,1S6,1.224,6,1.5v21C6,22.776,5.776,23,5.5,23z"/>
	</g>
	<g>
		<g>
			<path d="M7.5-3h-4C3.224-3,3-2.776,3-2.5v4C3,1.776,3.224,2,3.5,2h4C7.776,2,8,1.776,8,1.5v-4C8-2.776,7.776-3,7.5-3z"/>
			<path d="M32.5-3h-4C28.224-3,28-2.776,28-2.5v4C28,1.776,28.224,2,28.5,2h4C32.776,2,33,1.776,33,1.5v-4
				C33-2.776,32.776-3,32.5-3z"/>
			<path d="M7.5,22h-4C3.224,22,3,22.224,3,22.5v4C3,26.776,3.224,27,3.5,27h4C7.776,27,8,26.776,8,26.5v-4
				C8,22.224,7.776,22,7.5,22z"/>
			<path d="M32.5,22h-4c-0.276,0-0.5,0.224-0.5,0.5v4c0,0.276,0.224,0.5,0.5,0.5h4c0.276,0,0.5-0.224,0.5-0.5v-4
				C33,22.224,32.776,22,32.5,22z"/>
		</g>
		<g>
			<path d="M28.5,0h-21C7.224,0,7-0.224,7-0.5S7.224-1,7.5-1h21C28.776-1,29-0.776,29-0.5S28.776,0,28.5,0z"/>
		</g>
		<g>
			<path d="M30.5,23c-0.276,0-0.5-0.224-0.5-0.5v-21C30,1.224,30.224,1,30.5,1S31,1.224,31,1.5v21C31,22.776,30.776,23,30.5,23z"/>
		</g>
	</g>
	<g>
		<path d="M28.5,25h-21C7.224,25,7,24.776,7,24.5S7.224,24,7.5,24h21c0.276,0,0.5,0.224,0.5,0.5S28.776,25,28.5,25z"/>
	</g>
</g>
</svg>
