<?xml version="1.0" encoding="iso-8859-1"?>
<!-- Generator: Adobe Illustrator 19.2.1, SVG Export Plug-In . SVG Version: 6.00 Build 0)  -->
<svg version="1.1" id="Layer_1" xmlns="http://www.w3.org/2000/svg" xmlns:xlink="http://www.w3.org/1999/xlink" x="0px" y="0px"
	 viewBox="0 0 30 30" style="enable-background:new 0 0 30 30;" xml:space="preserve">
<g>
	<g>
		<path d="M29.5,11h-2.542c0.021-0.11,0.056-0.215,0.056-0.33c0-0.691-0.391-1.312-1.011-1.615L21.61,6.796L22.305,5.3l1.167-0.485
			C23.639,4.932,23.833,5,24.039,5c0.101,0,0.204-0.015,0.307-0.045l4.362-1.312C29.469,3.415,30,2.68,30,1.858
			C30,0.833,29.196,0,28.209,0h-0.521c-0.409,0-0.81,0.147-1.128,0.415l-3.173,2.672c-0.254,0.215-0.373,0.521-0.372,0.835L22,4.344
			V2.5C22,2.224,21.776,2,21.5,2h-21C0.224,2,0,2.224,0,2.5v27C0,29.776,0.224,30,0.5,30h29c0.276,0,0.5-0.224,0.5-0.5v-18
			C30,11.224,29.776,11,29.5,11z M27.205,1.18C27.343,1.064,27.515,1,27.689,1V0.999h0.521c0.437,0,0.791,0.385,0.791,0.858
			c0,0.384-0.238,0.724-0.58,0.827l-4.362,1.312l0.144,0.479L24.043,4l-0.011-0.148L27.205,1.18z M25.554,9.948
			c0.283,0.139,0.459,0.415,0.459,0.725c0,0.37-0.26,0.692-0.63,0.782L7.927,15.643l3.263-3.681c0.137-0.056,0.236-0.174,0.28-0.316
			l4.291-4.841c0.412-0.484,1.018-0.761,1.664-0.761c0.335,0,0.671,0.078,0.961,0.219l1.912,0.983l-0.187,0.402l-5.865,3.421
			c-0.238,0.139-0.319,0.445-0.18,0.684C14.161,11.911,14.328,12,14.5,12c0.086,0,0.173-0.022,0.25-0.068l6-3.5
			c0.089-0.052,0.159-0.129,0.202-0.221l0.236-0.508L25.554,9.948z M8,14.054V12h1.82L8,14.054z M1,3h20v2.5
			c0,0.058,0.015,0.112,0.033,0.164L20.72,6.338l-1.884-0.969c-1.279-0.624-2.925-0.283-3.829,0.779L10.707,11H1V3z M1,12h6v3
			c0,0.053,0.015,0.101,0.03,0.148l-0.904,1.02c-0.145,0.163-0.167,0.402-0.055,0.589C6.163,16.91,6.327,17,6.5,17
			c0.039,0,0.078-0.004,0.117-0.014L7,16.894V20H1V12z M21,29H1v-8h20V29z M29,29h-7v-8h7V29z M29,20H8v-3.346l17.619-4.226
			c0.311-0.076,0.569-0.243,0.791-0.446C26.44,11.988,26.468,12,26.5,12H29V20z"/>
	</g>
</g>
</svg>
