<?xml version="1.0" encoding="utf-8"?>
<!-- Generator: Adobe Illustrator 19.0.0, SVG Export Plug-In . SVG Version: 6.00 Build 0)  -->
<svg version="1.1" id="Layer_1" xmlns="http://www.w3.org/2000/svg" xmlns:xlink="http://www.w3.org/1999/xlink" x="0px" y="0px"
	 viewBox="0 0 30 30" style="enable-background:new 0 0 30 30;" xml:space="preserve">
<g>
	<g>
		<path d="M26.5,29.5h-14c-1.7,0-3-1.3-3-3V20c0-0.3,0.2-0.5,0.5-0.5s0.5,0.2,0.5,0.5v6.5c0,1.1,0.9,2,2,2h14c1.1,0,2-0.9,2-2v-23
			c0-1.1-0.9-2-2-2h-14c-1.1,0-2,0.9-2,2V10c0,0.3-0.2,0.5-0.5,0.5S9.5,10.3,9.5,10V3.5c0-1.7,1.3-3,3-3h14c1.7,0,3,1.3,3,3v23
			C29.5,28.2,28.2,29.5,26.5,29.5z"/>
	</g>
	<g>
		<path d="M17,15.5H1c-0.3,0-0.5-0.2-0.5-0.5s0.2-0.5,0.5-0.5h16c0.3,0,0.5,0.2,0.5,0.5S17.3,15.5,17,15.5z"/>
	</g>
	<g>
		<path d="M12,20.5c-0.1,0-0.3,0-0.4-0.1c-0.2-0.2-0.2-0.5,0-0.7l4.6-4.6l-4.6-4.6c-0.2-0.2-0.2-0.5,0-0.7s0.5-0.2,0.7,0l5,5
			c0.2,0.2,0.2,0.5,0,0.7l-5,5C12.3,20.5,12.1,20.5,12,20.5z"/>
	</g>
</g>
</svg>
