<?xml version="1.0" encoding="iso-8859-1"?>
<!-- Generator: Adobe Illustrator 19.0.0, SVG Export Plug-In . SVG Version: 6.00 Build 0)  -->
<svg version="1.1" id="Layer_1" xmlns="http://www.w3.org/2000/svg" xmlns:xlink="http://www.w3.org/1999/xlink" x="0px" y="0px"
	 viewBox="0 0 24 24" style="enable-background:new 0 0 24 24;" xml:space="preserve">
<g>
	<g>
		<path d="M11.999,2c-1.103,0-2,0.897-2,2c0,1.103,0.897,2,2,2c1.103,0,2-0.897,2-2C13.999,2.897,13.102,2,11.999,2z M11.999,5
			c-0.551,0-1-0.449-1-1s0.449-1,1-1c0.551,0,1,0.449,1,1S12.55,5,11.999,5z M23.76,7.073l-11.5-7c-0.16-0.097-0.361-0.097-0.52,0
			l-11.5,7C0.048,7.19-0.042,7.419,0.018,7.635S0.275,8,0.499,8h0.5v1.476c0,0.001,0,0.002,0,0.003V9.5
			c0,0.075,0.019,0.145,0.049,0.209c0.002,0.005,0.001,0.01,0.003,0.014l0.948,1.896V23h-0.5c-0.276,0-0.5,0.224-0.5,0.5
			s0.224,0.5,0.5,0.5h21c0.276,0,0.5-0.224,0.5-0.5s-0.224-0.5-0.5-0.5h-0.5V11.617l0.947-1.894
			c0.002-0.004,0.001-0.008,0.003-0.012c0.031-0.065,0.051-0.135,0.051-0.211V8h0.5c0.224,0,0.423-0.149,0.483-0.365
			S23.952,7.19,23.76,7.073z M11.999,1.085L21.716,7H2.282L11.999,1.085z M3.999,23h-1V12h1V23z M4.19,11H2.808l-0.5-1H4.69L4.19,11
			z M6.999,23h-2V11.617L5.807,10h0.382l0.81,1.619V23z M8.999,23h-1V12h1V23z M9.19,11H7.808l-0.5-1H9.69L9.19,11z M13.999,23h-4
			V11.617L10.807,10h2.382l0.81,1.619V23z M15.999,23h-1V12h1V23z M16.19,11h-1.382l-0.5-1h2.382L16.19,11z M18.999,23h-2V11.617
			L17.807,10h0.382l0.81,1.619V23z M20.999,23h-1V12h1V23z M21.19,11h-1.382l-0.5-1h2.382L21.19,11z M21.999,9h-20V8h20V9z"/>
	</g>
</g>
</svg>
