<?xml version="1.0" encoding="iso-8859-1"?>
<!-- Generator: Adobe Illustrator 19.0.0, SVG Export Plug-In . SVG Version: 6.00 Build 0)  -->
<svg version="1.1" id="Layer_1" xmlns="http://www.w3.org/2000/svg" xmlns:xlink="http://www.w3.org/1999/xlink" x="0px" y="0px"
	 viewBox="0 0 24 24" style="enable-background:new 0 0 24 24;" xml:space="preserve">
<g>
	<g>
		<path d="M20,23h-2.5v-4.5c0-0.133-0.053-0.26-0.146-0.353L16.5,17.293V2.5c0-0.651-0.419-1.201-1-1.408V0.5
			C15.5,0.224,15.276,0,15,0s-0.5,0.224-0.5,0.5v0.592c-0.581,0.207-1,0.757-1,1.408v14.792l-0.854,0.854
			C12.553,18.24,12.5,18.367,12.5,18.5V23h-1.086L9.491,12.906c-0.048-0.257-0.293-0.435-0.546-0.403l-4.5,0.5
			c-0.14,0.015-0.266,0.089-0.349,0.202c-0.082,0.114-0.113,0.256-0.086,0.393L5.89,23H4c-0.276,0-0.5,0.224-0.5,0.5S3.724,24,4,24
			h16c0.276,0,0.5-0.224,0.5-0.5S20.276,23,20,23z M6.91,23l-1.813-9.063l3.498-0.389L10.396,23H6.91z M14.5,2.5
			C14.5,2.225,14.724,2,15,2s0.5,0.225,0.5,0.5V3h-1V2.5z M16.5,23h-3v-4.293l0.854-0.853C14.447,17.76,14.5,17.633,14.5,17.5V4h1
			v13.5c0,0.133,0.053,0.26,0.146,0.353l0.854,0.854V23z"/>
	</g>
</g>
</svg>
