<?xml version="1.0" encoding="iso-8859-1"?>
<!-- Generator: Adobe Illustrator 19.0.0, SVG Export Plug-In . SVG Version: 6.00 Build 0)  -->
<svg version="1.1" id="Layer_1" xmlns="http://www.w3.org/2000/svg" xmlns:xlink="http://www.w3.org/1999/xlink" x="0px" y="0px"
	 viewBox="0 0 24 24" style="enable-background:new 0 0 24 24;" xml:space="preserve">
<g>
	<g>
		<path d="M23.489,13.395l-1.5-7C21.939,6.165,21.736,6,21.5,6c-0.236,0-0.439,0.165-0.489,0.395l-1.5,7
			C19.504,13.43,19.5,13.465,19.5,13.5v10c0,0.276,0.224,0.5,0.5,0.5h3c0.276,0,0.5-0.224,0.5-0.5v-10
			C23.5,13.465,23.496,13.43,23.489,13.395z M21.5,8.886L22.382,13h-1.763L21.5,8.886z M22.5,23h-2v-9h2V23z M2.989,6.395
			C2.939,6.165,2.736,6,2.5,6C2.264,6,2.061,6.165,2.011,6.395l-1.5,7C0.504,13.43,0.5,13.465,0.5,13.5v10C0.5,23.776,0.724,24,1,24
			h3c0.276,0,0.5-0.224,0.5-0.5v-10c0-0.035-0.004-0.07-0.011-0.105L2.989,6.395z M2.5,8.886L3.382,13H1.618L2.5,8.886z M3.5,23h-2
			v-9h2V23z M9,7C8.724,7,8.5,7.224,8.5,7.5v2C8.5,9.776,8.724,10,9,10s0.5-0.224,0.5-0.5v-2C9.5,7.224,9.276,7,9,7z M15,7
			c-0.276,0-0.5,0.224-0.5,0.5v2c0,0.276,0.224,0.5,0.5,0.5s0.5-0.224,0.5-0.5v-2C15.5,7.224,15.276,7,15,7z M18.485,6.621l1-4
			C19.495,2.582,19.5,2.541,19.5,2.5v-2C19.5,0.224,19.276,0,19,0h-2c-0.276,0-0.5,0.224-0.5,0.5V2h-1V0.5C15.5,0.224,15.276,0,15,0
			h-2c-0.276,0-0.5,0.224-0.5,0.5V2h-1V0.5C11.5,0.224,11.276,0,11,0H9C8.724,0,8.5,0.224,8.5,0.5V2h-1V0.5C7.5,0.224,7.276,0,7,0H5
			C4.724,0,4.5,0.224,4.5,0.5v2c0,0.041,0.005,0.081,0.015,0.121l1,4C5.571,6.844,5.771,7,6,7h0.47L5.501,23.47
			c-0.009,0.138,0.04,0.272,0.135,0.373C5.73,23.943,5.862,24,6,24h3c0.276,0,0.5-0.224,0.5-0.5v-4c0-1.378,1.122-2.5,2.5-2.5
			s2.5,1.122,2.5,2.5v4c0,0.276,0.224,0.5,0.5,0.5h3c0.138,0,0.27-0.057,0.364-0.156c0.094-0.101,0.143-0.236,0.135-0.373L17.53,7
			H18C18.229,7,18.429,6.844,18.485,6.621z M17,5.999c-0.138,0-0.27,0.057-0.364,0.157c-0.094,0.101-0.143,0.236-0.135,0.373
			L17.47,23H15.5v-3.5c0-1.93-1.57-3.5-3.5-3.5s-3.5,1.57-3.5,3.5V23H6.53L7.499,6.53c0.009-0.138-0.04-0.272-0.135-0.373
			C7.27,6.057,7.138,6,7,6H6.391L5.5,2.438V1h1v1.5C6.5,2.776,6.724,3,7,3h2c0.276,0,0.5-0.224,0.5-0.5V1h1v1.5
			C10.5,2.776,10.724,3,11,3h2c0.276,0,0.5-0.224,0.5-0.5V1h1v1.5C14.5,2.776,14.724,3,15,3h2c0.276,0,0.5-0.224,0.5-0.5V1h1v1.437
			l-0.891,3.562H17z M12,7c-0.276,0-0.5,0.224-0.5,0.5v2c0,0.276,0.224,0.5,0.5,0.5s0.5-0.224,0.5-0.5v-2C12.5,7.224,12.276,7,12,7z
			"/>
	</g>
</g>
</svg>
