<?xml version="1.0" encoding="iso-8859-1"?>
<!-- Generator: Adobe Illustrator 19.0.0, SVG Export Plug-In . SVG Version: 6.00 Build 0)  -->
<svg version="1.1" id="Layer_1" xmlns="http://www.w3.org/2000/svg" xmlns:xlink="http://www.w3.org/1999/xlink" x="0px" y="0px"
	 viewBox="0 0 24 24" style="enable-background:new 0 0 24 24;" xml:space="preserve">
<g>
	<g>
		<path d="M10.5,22h3c0.276,0,0.5-0.224,0.5-0.5V20c0-1.103-0.897-2-2-2c-1.103,0-2,0.897-2,2v1.5C10,21.776,10.224,22,10.5,22z
			 M11,20c0-0.551,0.449-1,1-1s1,0.449,1,1v1h-2V20z M19.5,16c0.827,0,1.5-0.673,1.5-1.5S20.327,13,19.5,13S18,13.673,18,14.5
			S18.673,16,19.5,16z M19.5,14c0.276,0,0.5,0.224,0.5,0.5S19.776,15,19.5,15S19,14.776,19,14.5S19.224,14,19.5,14z M23.934,10.252
			L20,3.367V2h0.5C20.776,2,21,1.776,21,1.5S20.776,1,20.5,1H20V0.5C20,0.224,19.776,0,19.5,0S19,0.224,19,0.5V1h-0.5
			C18.224,1,18,1.224,18,1.5S18.224,2,18.5,2H19v1.367l-3.934,6.885c-0.089,0.155-0.088,0.345,0.001,0.499
			C15.157,10.905,15.322,11,15.5,11H16v1H3.501c-0.157,0-0.306,0.074-0.4,0.2l-3,4c-0.011,0.015-0.013,0.032-0.023,0.047
			c-0.019,0.032-0.036,0.064-0.047,0.099c-0.01,0.03-0.014,0.06-0.018,0.091C0.01,16.459,0,16.478,0,16.5v7
			C0,23.776,0.224,24,0.5,24h22c0.276,0,0.5-0.224,0.5-0.5V11h0.5c0.178,0,0.343-0.095,0.433-0.249
			C24.022,10.597,24.022,10.407,23.934,10.252z M16,23H1v-6h15V23z M16,16H1.501l2.25-3H16V16z M22,23h-5V12.505
			c0-0.002,0.001-0.003,0.001-0.005S17,12.497,17,12.495V11h5V23z M16.362,10L19.5,4.508L22.638,10H16.362z M3.5,22h3
			C6.776,22,7,21.776,7,21.5V20c0-1.103-0.897-2-2-2c-1.103,0-2,0.897-2,2v1.5C3,21.776,3.224,22,3.5,22z M4,20c0-0.551,0.449-1,1-1
			s1,0.449,1,1v1H4V20z"/>
	</g>
</g>
</svg>
