<?xml version="1.0" encoding="iso-8859-1"?>
<!-- Generator: Adobe Illustrator 19.0.0, SVG Export Plug-In . SVG Version: 6.00 Build 0)  -->
<svg version="1.1" id="Layer_1" xmlns="http://www.w3.org/2000/svg" xmlns:xlink="http://www.w3.org/1999/xlink" x="0px" y="0px"
	 viewBox="0 0 24 24" style="enable-background:new 0 0 24 24;" xml:space="preserve">
<g>
	<g>
		<path d="M8,5.507c-0.827,0-1.5,0.673-1.5,1.5v2.165c0,0.136,0.056,0.267,0.155,0.362C6.748,9.623,6.872,9.672,7,9.672
			c0.008,0,0.016,0,0.024-0.001c0.675-0.032,1.35-0.062,1.996-0.087c0.268-0.011,0.48-0.231,0.48-0.5V7.007
			C9.5,6.18,8.827,5.507,8,5.507z M8.5,8.604c-0.329,0.014-0.664,0.029-1,0.044V7.007c0-0.275,0.224-0.5,0.5-0.5s0.5,0.225,0.5,0.5
			V8.604z M23.47,11.834c-1.133-3.078-7.48-3.318-9.109-3.329l-0.886-2.656c-0.049-0.146-0.162-0.261-0.308-0.313l-1.223-0.43
			L10.96,2.81c-0.076-0.176-0.246-0.293-0.437-0.302c-3.807-0.18-8.371,1.078-9.97,4.275C0.518,6.853,0.5,6.93,0.5,7.007v14
			c0,0.138,0.057,0.27,0.158,0.364C0.75,21.459,0.873,21.507,1,21.507c0.01,0,0.021,0,0.028-0.001l1.994-0.12
			c0.002,0,0.005,0,0.007,0l1.998-0.112c0,0,0,0,0.001,0l1.987-0.102c0.003,0,0.006,0,0.009,0c0.675-0.032,1.35-0.062,1.996-0.087
			c0,0,0,0,0,0c0.719-0.029,1.391-0.05,1.989-0.063c0,0,0,0,0,0s0,0,0.001,0c0.681-0.015,1.154-0.018,1.974,0.004c0,0,0,0,0,0
			c0.569,0.015,1.25,0.041,1.993,0.072c0,0,0.001,0,0.001,0c0,0,0.001,0,0.001,0c0.638,0.027,1.313,0.058,1.997,0.091
			c0.008,0.001,0.016,0.001,0.024,0.001c0.001,0,0.002-0.001,0.003-0.001l1.966,0.098c0.002,0,0.003,0.001,0.005,0.001l1.998,0.106
			c0,0,0,0,0,0l1.999,0.112c0.138,0.013,0.271-0.041,0.372-0.136c0.1-0.093,0.157-0.225,0.157-0.363v-9
			C23.5,11.948,23.49,11.89,23.47,11.834z M4.497,20.303L3.5,20.358v-1.351c0-0.274,0.223-0.499,0.499-0.5
			c0.275,0.001,0.498,0.225,0.498,0.5V20.303z M8.498,20.104C8.17,20.118,7.835,20.133,7.5,20.148v-1.641
			c0-0.275,0.224-0.499,0.499-0.5c0.276,0.001,0.499,0.225,0.499,0.5V20.104z M12.498,20.013c-0.187-0.004-0.356-0.006-0.498-0.006
			c-0.154,0-0.322,0.002-0.5,0.004v-2.004c0-0.275,0.224-0.499,0.499-0.5c0.276,0.001,0.499,0.225,0.499,0.5V20.013z M16.498,20.164
			c-0.337-0.016-0.672-0.031-0.998-0.046v-1.611c0-0.275,0.224-0.499,0.499-0.5c0.276,0.001,0.499,0.225,0.499,0.5V20.164z
			 M20.499,20.368L19.5,20.315v-1.308c0-0.275,0.224-0.5,0.5-0.5c0.276,0,0.5,0.225,0.5,0.5V20.368z M22.5,20.478l-1-0.056v-1.415
			c0-0.207-0.042-0.404-0.118-0.583c-0.152-0.359-0.44-0.647-0.799-0.799c-0.179-0.076-0.377-0.118-0.583-0.118
			s-0.404,0.042-0.583,0.118c-0.359,0.152-0.647,0.44-0.799,0.799c-0.076,0.179-0.118,0.376-0.118,0.583v1.256l-1-0.05v-1.706
			c0-0.207-0.042-0.404-0.118-0.583c-0.152-0.359-0.44-0.647-0.799-0.799c-0.179-0.076-0.377-0.118-0.583-0.118
			s-0.404,0.042-0.583,0.118c-0.359,0.152-0.647,0.44-0.799,0.799c-0.076,0.179-0.118,0.376-0.118,0.583v1.569
			c-0.354-0.015-0.689-0.026-1-0.037v-2.032c0-0.207-0.042-0.404-0.118-0.583c-0.152-0.359-0.44-0.647-0.799-0.799
			c-0.179-0.076-0.377-0.118-0.583-0.118s-0.404,0.042-0.583,0.118c-0.359,0.152-0.647,0.44-0.799,0.799
			c-0.076,0.179-0.118,0.376-0.118,0.583v2.026c-0.318,0.009-0.652,0.019-1,0.032v-1.558c0-0.207-0.042-0.404-0.118-0.583
			c-0.152-0.359-0.44-0.647-0.799-0.799C8.404,17.05,8.207,17.007,8,17.007s-0.404,0.042-0.583,0.118
			c-0.359,0.152-0.647,0.44-0.799,0.799C6.542,18.104,6.5,18.301,6.5,18.507v1.69l-1,0.051v-1.241c0-0.207-0.042-0.404-0.118-0.583
			c-0.152-0.359-0.44-0.647-0.799-0.799C4.404,17.55,4.207,17.507,4,17.507s-0.404,0.042-0.583,0.118
			c-0.359,0.152-0.647,0.44-0.799,0.799C2.542,18.604,2.5,18.801,2.5,19.007v1.409l-1,0.06V7.128
			c1.403-2.639,5.276-3.714,8.666-3.633l0.945,2.206c0.055,0.128,0.161,0.227,0.293,0.274l1.199,0.422l0.923,2.768
			c0.069,0.207,0.237,0.34,0.485,0.342C16.059,9.46,21.55,9.85,22.5,12.102V20.478z M20,11.507c-0.827,0-1.5,0.673-1.5,1.5v1.782
			c0,0.266,0.208,0.485,0.474,0.499l1.999,0.106c0.009,0.001,0.018,0.001,0.027,0.001c0.127,0,0.25-0.049,0.344-0.137
			c0.099-0.094,0.156-0.225,0.156-0.363v-1.888C21.5,12.18,20.827,11.507,20,11.507z M20.5,14.368l-1-0.053v-1.308
			c0-0.275,0.224-0.5,0.5-0.5s0.5,0.225,0.5,0.5V14.368z M8,11.007c-0.827,0-1.5,0.673-1.5,1.5v2.165
			c0,0.136,0.056,0.267,0.155,0.362C6.748,15.123,6.872,15.172,7,15.172c0.008,0,0.016,0,0.024-0.001
			c0.675-0.032,1.35-0.062,1.996-0.087c0.268-0.011,0.48-0.231,0.48-0.5v-2.077C9.5,11.68,8.827,11.007,8,11.007z M8.5,14.104
			c-0.329,0.014-0.664,0.029-1,0.044v-1.641c0-0.275,0.224-0.5,0.5-0.5s0.5,0.225,0.5,0.5V14.104z M12,10.507
			c-0.827,0-1.5,0.673-1.5,1.5v2.514c0,0.134,0.054,0.263,0.15,0.357c0.095,0.094,0.227,0.142,0.36,0.143
			c0.682-0.015,1.155-0.018,1.976,0.004H13c0.13,0,0.255-0.051,0.349-0.142c0.096-0.093,0.151-0.223,0.151-0.358v-2.518
			C13.5,11.18,12.827,10.507,12,10.507z M12.5,14.013c-0.188-0.004-0.357-0.006-0.5-0.006c-0.154,0-0.322,0.002-0.5,0.004v-2.004
			c0-0.275,0.224-0.5,0.5-0.5s0.5,0.225,0.5,0.5V14.013z M16,11.007c-0.827,0-1.5,0.673-1.5,1.5v2.09c0,0.268,0.211,0.488,0.479,0.5
			c0.638,0.027,1.313,0.058,1.997,0.091c0.008,0.001,0.016,0.001,0.024,0.001c0.128,0,0.251-0.049,0.345-0.138
			c0.099-0.094,0.155-0.225,0.155-0.362v-2.182C17.5,11.68,16.827,11.007,16,11.007z M16.5,14.164c-0.338-0.016-0.673-0.031-1-0.046
			v-1.611c0-0.275,0.224-0.5,0.5-0.5s0.5,0.225,0.5,0.5V14.164z M4,6.007c-0.827,0-1.5,0.673-1.5,1.5v1.88
			c0,0.137,0.057,0.269,0.157,0.363C2.75,9.838,2.873,9.887,3,9.887c0.01,0,0.02,0,0.029-0.001l1.998-0.112
			C5.292,9.76,5.5,9.541,5.5,9.275V7.507C5.5,6.68,4.827,6.007,4,6.007z M4.5,8.802l-1,0.056V7.507c0-0.275,0.224-0.5,0.5-0.5
			s0.5,0.225,0.5,0.5V8.802z M4,11.507c-0.827,0-1.5,0.673-1.5,1.5v1.88c0,0.137,0.057,0.269,0.157,0.363
			C2.75,15.338,2.873,15.387,3,15.387c0.01,0,0.02,0,0.029-0.001l1.998-0.112C5.292,15.26,5.5,15.041,5.5,14.775v-1.768
			C5.5,12.18,4.827,11.507,4,11.507z M4.5,14.302l-1,0.056v-1.351c0-0.275,0.224-0.5,0.5-0.5s0.5,0.225,0.5,0.5V14.302z"/>
	</g>
</g>
</svg>
