<?xml version="1.0" encoding="iso-8859-1"?>
<!-- Generator: Adobe Illustrator 19.0.0, SVG Export Plug-In . SVG Version: 6.00 Build 0)  -->
<svg version="1.1" id="Layer_1" xmlns="http://www.w3.org/2000/svg" xmlns:xlink="http://www.w3.org/1999/xlink" x="0px" y="0px"
	 viewBox="0 0 24 24" style="enable-background:new 0 0 24 24;" xml:space="preserve">
<g>
	<g>
		<path d="M20.907,23.208l-0.58-0.801c-1.156-1.593-2.42-3.337-3.542-5.407h1.216c0.276,0,0.5-0.224,0.5-0.5s-0.224-0.5-0.5-0.5
			h-1.735c-0.979-1.988-1.8-4.282-2.288-7h0.522c0.276,0,0.5-0.224,0.5-0.5S14.777,8,14.501,8h-0.684
			c-0.198-1.389-0.316-2.878-0.316-4.5c0-0.075-0.019-0.145-0.049-0.209c-0.002-0.004-0.001-0.01-0.003-0.014l-0.948-1.896V0.5
			c0-0.276-0.224-0.5-0.5-0.5s-0.5,0.224-0.5,0.5v0.883l-0.947,1.894c-0.002,0.003-0.001,0.007-0.002,0.01
			C10.521,3.352,10.5,3.423,10.5,3.5c0,1.622-0.117,3.111-0.316,4.5H9.501c-0.276,0-0.5,0.224-0.5,0.5S9.225,9,9.501,9h0.521
			c-0.488,2.718-1.309,5.012-2.288,7H6.501c-0.276,0-0.5,0.224-0.5,0.5s0.224,0.5,0.5,0.5h0.715
			c-1.123,2.07-2.386,3.814-3.542,5.407l-0.58,0.801c-0.11,0.153-0.125,0.354-0.039,0.521S3.312,24,3.5,24h4.027
			c0.143,0,0.278-0.061,0.373-0.166c0.095-0.107,0.141-0.247,0.125-0.389C8.009,23.299,8.001,23.15,8.001,23c0-2.206,1.794-4,4-4
			s4,1.794,4,4c0,0.15-0.008,0.299-0.025,0.445c-0.015,0.142,0.03,0.283,0.125,0.389C16.197,23.939,16.332,24,16.474,24h4.027
			c0.187,0,0.36-0.104,0.445-0.271C21.031,23.562,21.016,23.36,20.907,23.208z M11.487,4h1.026c0.02,1.426,0.122,2.755,0.292,4
			h-1.611C11.365,6.755,11.468,5.425,11.487,4z M11.043,9h1.915c0.466,2.708,1.253,5,2.198,7h-1.295l-0.886-2.658
			C12.907,13.138,12.716,13,12.501,13h-1c-0.215,0-0.406,0.138-0.474,0.342L10.141,16H8.845C9.789,14,10.577,11.708,11.043,9z
			 M12.807,16h-1.612l0.666-2h0.279L12.807,16z M17.001,23c0-2.757-2.243-5-5-5c-2.757,0-5,2.243-5,5H4.48l0.003-0.006
			C5.75,21.247,7.141,19.321,8.349,17h7.302c1.209,2.32,2.599,4.247,3.866,5.994L19.522,23H17.001z"/>
	</g>
</g>
</svg>
