<?xml version="1.0" encoding="iso-8859-1"?>
<!-- Generator: Adobe Illustrator 19.0.0, SVG Export Plug-In . SVG Version: 6.00 Build 0)  -->
<svg version="1.1" id="Layer_1" xmlns="http://www.w3.org/2000/svg" xmlns:xlink="http://www.w3.org/1999/xlink" x="0px" y="0px"
	 viewBox="0 0 24 24" style="enable-background:new 0 0 24 24;" xml:space="preserve">
<g>
	<g>
		<path d="M1.814,0.964l5,2C6.875,2.988,6.938,3,7,3c0.198,0,0.386-0.119,0.464-0.314C7.566,2.431,7.441,2.14,7.185,2.037l-5-2
			C1.931-0.065,1.637,0.06,1.535,0.315C1.433,0.57,1.558,0.861,1.814,0.964z M17,5h3c0.276,0,0.5-0.224,0.5-0.5S20.276,4,20,4h-3
			c-0.276,0-0.5,0.224-0.5,0.5S16.724,5,17,5z M7,4H4C3.724,4,3.5,4.224,3.5,4.5S3.724,5,4,5h3c0.276,0,0.5-0.224,0.5-0.5
			S7.276,4,7,4z M17,3c0.062,0,0.125-0.012,0.186-0.036l5-2c0.257-0.102,0.382-0.393,0.279-0.649
			c-0.103-0.256-0.395-0.38-0.65-0.278l-5,2c-0.257,0.102-0.382,0.393-0.279,0.649C16.614,2.881,16.802,3,17,3z M13,3
			c-0.276,0-0.5,0.224-0.5,0.5v2C12.5,5.776,12.724,6,13,6s0.5-0.224,0.5-0.5v-2C13.5,3.224,13.276,3,13,3z M22.196,8.161
			l-4.95-2.121c-0.251-0.107-0.548,0.009-0.656,0.263c-0.109,0.254,0.009,0.548,0.263,0.657l4.95,2.121
			c0.064,0.027,0.131,0.04,0.197,0.04c0.194,0,0.378-0.113,0.459-0.303C22.568,8.564,22.45,8.27,22.196,8.161z M7.41,6.303
			C7.301,6.049,7.005,5.932,6.754,6.04l-4.95,2.121C1.55,8.27,1.432,8.564,1.541,8.818C1.622,9.008,1.806,9.121,2,9.121
			c0.066,0,0.133-0.013,0.197-0.04l4.95-2.121C7.401,6.851,7.519,6.557,7.41,6.303z M17.5,8.5C17.5,8.224,17.276,8,17,8h-0.846
			l-0.396-4.557C15.587,1.48,13.973,0,11.998,0c-1.971,0-3.585,1.48-3.756,3.443L7.846,8H7C6.724,8,6.5,8.224,6.5,8.5S6.724,9,7,9
			h0.76l-0.213,2.452c0,0.002-0.001,0.003-0.002,0.005l-0.261,3c0,0.002,0.001,0.003,0.001,0.005l-0.26,2.99
			c0,0.002-0.001,0.003-0.001,0.005l-0.261,3c0,0.002,0.001,0.003,0.001,0.005l-0.261,2.995c-0.013,0.14,0.034,0.278,0.129,0.381
			C6.726,23.941,6.86,24,7,24h10c0.14,0,0.276-0.058,0.37-0.162s0.141-0.241,0.129-0.381l-0.261-3c0-0.002-0.001-0.003-0.002-0.005
			l-0.26-2.99c0-0.002,0.001-0.003,0.001-0.005l-0.261-3c0-0.002-0.001-0.003-0.001-0.005l-0.26-2.986
			c0-0.003,0.001-0.006,0.001-0.009L16.242,9H17C17.276,9,17.5,8.776,17.5,8.5z M9.238,3.529C9.364,2.088,10.55,1,12.002,1
			c1.448,0,2.635,1.088,2.76,2.529L15.151,8H8.85L9.238,3.529z M8.762,9h6.475l0.174,2H8.589L8.762,9z M8.502,12h6.996l0.174,2
			H8.328L8.502,12z M8.241,15h7.518l0.174,2H8.067L8.241,15z M7.98,18h8.04l0.174,2H7.806L7.98,18z M16.28,21l0.174,2H7.545l0.173-2
			H16.28z M11,3c-0.276,0-0.5,0.224-0.5,0.5v2C10.5,5.776,10.724,6,11,6s0.5-0.224,0.5-0.5v-2C11.5,3.224,11.276,3,11,3z"/>
	</g>
</g>
</svg>
