<?xml version="1.0" encoding="iso-8859-1"?>
<!-- Generator: Adobe Illustrator 19.0.0, SVG Export Plug-In . SVG Version: 6.00 Build 0)  -->
<svg version="1.1" id="Layer_1" xmlns="http://www.w3.org/2000/svg" xmlns:xlink="http://www.w3.org/1999/xlink" x="0px" y="0px"
	 viewBox="0 0 24 24" style="enable-background:new 0 0 24 24;" xml:space="preserve">
<g>
	<g>
		<path d="M23,13.91h-0.5v-0.5c0-0.276-0.224-0.5-0.5-0.5h-1.552c-0.534-4.441-7.918-7.81-8.244-7.957
			C12.14,4.924,12.071,4.91,12.002,4.91C13.38,4.909,14.5,3.788,14.5,2.41c0-0.978-0.578-1.871-1.473-2.276
			c-0.192-0.086-0.414-0.045-0.56,0.102c-0.148,0.147-0.188,0.37-0.103,0.559C12.454,0.994,12.5,1.201,12.5,1.41
			c0,0.827-0.673,1.5-1.5,1.5c-0.209,0-0.416-0.045-0.613-0.135c-0.192-0.086-0.414-0.045-0.56,0.102
			c-0.148,0.147-0.188,0.37-0.103,0.559c0.404,0.894,1.296,1.473,2.274,1.474c-0.069,0-0.138,0.014-0.202,0.043
			C11.469,5.1,4.086,8.469,3.552,12.91H2c-0.276,0-0.5,0.224-0.5,0.5v0.5H1c-0.276,0-0.5,0.224-0.5,0.5v9c0,0.276,0.224,0.5,0.5,0.5
			h8c0.276,0,0.5-0.224,0.5-0.5v-4c0-0.225-0.148-0.415-0.352-0.478c0.469-0.8,1.948-1.608,2.852-1.984
			c0.905,0.377,2.383,1.184,2.852,1.984c-0.204,0.063-0.352,0.253-0.352,0.478v4c0,0.276,0.224,0.5,0.5,0.5h8
			c0.276,0,0.5-0.224,0.5-0.5v-9C23.5,14.134,23.276,13.91,23,13.91z M11.566,3.845c0.925-0.215,1.654-0.944,1.87-1.868
			C13.478,2.116,13.5,2.261,13.5,2.41c0,0.827-0.673,1.5-1.5,1.5C11.851,3.91,11.705,3.888,11.566,3.845z M12,5.962
			c1.167,0.56,6.922,3.491,7.448,6.948H4.552C5.078,9.456,10.833,6.522,12,5.962z M22.5,22.91h-7.001v-3c0.276,0,0.5-0.224,0.5-0.5
			c0-1.945-3.429-3.317-3.821-3.467c-0.115-0.044-0.242-0.044-0.357,0C11.43,16.093,8,17.466,8,19.41c0,0.276,0.224,0.5,0.5,0.5v3
			h-7v-8H2c0.276,0,0.5-0.224,0.5-0.5v-0.5h19v0.5c0,0.276,0.224,0.5,0.5,0.5h0.5V22.91z"/>
	</g>
</g>
</svg>
