<?xml version="1.0" encoding="iso-8859-1"?>
<!-- Generator: Adobe Illustrator 19.0.0, SVG Export Plug-In . SVG Version: 6.00 Build 0)  -->
<svg version="1.1" id="Layer_1" xmlns="http://www.w3.org/2000/svg" xmlns:xlink="http://www.w3.org/1999/xlink" x="0px" y="0px"
	 viewBox="0 0 24 24" style="enable-background:new 0 0 24 24;" xml:space="preserve">
<g>
	<g>
		<path d="M4.5,15.5C4.776,15.5,5,15.276,5,15v-1c0-0.276-0.224-0.5-0.5-0.5S4,13.724,4,14v1C4,15.276,4.224,15.5,4.5,15.5z
			 M2.5,12.5C2.776,12.5,3,12.276,3,12v-1c0-0.276-0.224-0.5-0.5-0.5S2,10.724,2,11v1C2,12.276,2.224,12.5,2.5,12.5z M2.5,15.5
			C2.776,15.5,3,15.276,3,15v-1c0-0.276-0.224-0.5-0.5-0.5S2,13.724,2,14v1C2,15.276,2.224,15.5,2.5,15.5z M15.5,5.5h2
			C17.776,5.5,18,5.276,18,5V3c0-0.276-0.224-0.5-0.5-0.5h-2C15.224,2.5,15,2.724,15,3v2C15,5.276,15.224,5.5,15.5,5.5z M16,3.5h1v1
			h-1V3.5z M6.5,12.5C6.776,12.5,7,12.276,7,12v-1c0-0.276-0.224-0.5-0.5-0.5S6,10.724,6,11v1C6,12.276,6.224,12.5,6.5,12.5z
			 M23.5,0.5h-10C13.224,0.5,13,0.724,13,1v10H9V9c0-0.276-0.224-0.5-0.5-0.5h-8C0.224,8.5,0,8.724,0,9v14
			c0,0.276,0.224,0.5,0.5,0.5h8C8.776,23.5,9,23.276,9,23v-7.5h4V23c0,0.276,0.224,0.5,0.5,0.5h10c0.276,0,0.5-0.224,0.5-0.5V1
			C24,0.724,23.776,0.5,23.5,0.5z M6,22.5H3v-5h3V22.5z M8,22.5H7V17c0-0.276-0.224-0.5-0.5-0.5h-4C2.224,16.5,2,16.724,2,17v5.5H1
			v-13h7V22.5z M13,14.5H9V12h4V14.5z M23,22.5h-9v-21h9V22.5z M4.5,12.5C4.776,12.5,5,12.276,5,12v-1c0-0.276-0.224-0.5-0.5-0.5
			S4,10.724,4,11v1C4,12.276,4.224,12.5,4.5,12.5z M6.5,15.5C6.776,15.5,7,15.276,7,15v-1c0-0.276-0.224-0.5-0.5-0.5S6,13.724,6,14
			v1C6,15.276,6.224,15.5,6.5,15.5z M19.5,17.5h2c0.276,0,0.5-0.224,0.5-0.5v-2c0-0.276-0.224-0.5-0.5-0.5h-2
			c-0.276,0-0.5,0.224-0.5,0.5v2C19,17.276,19.224,17.5,19.5,17.5z M20,15.5h1v1h-1V15.5z M15.5,17.5h2c0.276,0,0.5-0.224,0.5-0.5
			v-2c0-0.276-0.224-0.5-0.5-0.5h-2c-0.276,0-0.5,0.224-0.5,0.5v2C15,17.276,15.224,17.5,15.5,17.5z M16,15.5h1v1h-1V15.5z
			 M19.5,21.5h2c0.276,0,0.5-0.224,0.5-0.5v-2c0-0.276-0.224-0.5-0.5-0.5h-2c-0.276,0-0.5,0.224-0.5,0.5v2
			C19,21.276,19.224,21.5,19.5,21.5z M20,19.5h1v1h-1V19.5z M19.5,13.5h2c0.276,0,0.5-0.224,0.5-0.5v-2c0-0.276-0.224-0.5-0.5-0.5
			h-2c-0.276,0-0.5,0.224-0.5,0.5v2C19,13.276,19.224,13.5,19.5,13.5z M20,11.5h1v1h-1V11.5z M15.5,13.5h2
			c0.276,0,0.5-0.224,0.5-0.5v-2c0-0.276-0.224-0.5-0.5-0.5h-2c-0.276,0-0.5,0.224-0.5,0.5v2C15,13.276,15.224,13.5,15.5,13.5z
			 M16,11.5h1v1h-1V11.5z M19.5,9.5h2C21.776,9.5,22,9.276,22,9V7c0-0.276-0.224-0.5-0.5-0.5h-2C19.224,6.5,19,6.724,19,7v2
			C19,9.276,19.224,9.5,19.5,9.5z M20,7.5h1v1h-1V7.5z M15.5,21.5h2c0.276,0,0.5-0.224,0.5-0.5v-2c0-0.276-0.224-0.5-0.5-0.5h-2
			c-0.276,0-0.5,0.224-0.5,0.5v2C15,21.276,15.224,21.5,15.5,21.5z M16,19.5h1v1h-1V19.5z M15.5,9.5h2C17.776,9.5,18,9.276,18,9V7
			c0-0.276-0.224-0.5-0.5-0.5h-2C15.224,6.5,15,6.724,15,7v2C15,9.276,15.224,9.5,15.5,9.5z M16,7.5h1v1h-1V7.5z M19.5,5.5h2
			C21.776,5.5,22,5.276,22,5V3c0-0.276-0.224-0.5-0.5-0.5h-2C19.224,2.5,19,2.724,19,3v2C19,5.276,19.224,5.5,19.5,5.5z M20,3.5h1v1
			h-1V3.5z"/>
	</g>
</g>
</svg>
