<?xml version="1.0" encoding="iso-8859-1"?>
<!-- Generator: Adobe Illustrator 19.0.0, SVG Export Plug-In . SVG Version: 6.00 Build 0)  -->
<svg version="1.1" id="Layer_1" xmlns="http://www.w3.org/2000/svg" xmlns:xlink="http://www.w3.org/1999/xlink" x="0px" y="0px"
	 viewBox="0 0 24 24" style="enable-background:new 0 0 24 24;" xml:space="preserve">
<g>
	<g>
		<path d="M23.484,9.421c-0.003-0.019,0.003-0.038-0.002-0.056c-0.003-0.01-0.011-0.016-0.014-0.026
			c-0.018-0.053-0.046-0.1-0.081-0.143c-0.01-0.013-0.016-0.029-0.027-0.041c-0.05-0.052-0.11-0.092-0.179-0.119
			c-0.004-0.001-0.006-0.005-0.01-0.006l-11-4c-0.111-0.041-0.232-0.041-0.342,0l-11,4c-0.004,0.001-0.006,0.005-0.01,0.007
			C0.751,9.063,0.691,9.103,0.641,9.155C0.628,9.169,0.621,9.186,0.61,9.201C0.577,9.244,0.55,9.288,0.533,9.339
			c-0.003,0.01-0.012,0.016-0.015,0.026C0.513,9.384,0.519,9.403,0.516,9.421C0.512,9.448,0.5,9.472,0.5,9.5v4
			c0,0.113,0.039,0.224,0.109,0.312l4,5c0.006,0.007,0.015,0.01,0.02,0.016c0.033,0.037,0.072,0.065,0.115,0.091
			c0.017,0.011,0.031,0.025,0.05,0.034C4.857,18.982,4.926,19,5,19h5c0.276,0,0.5-0.224,0.5-0.5V17h3v1.5c0,0.276,0.224,0.5,0.5,0.5
			h5c0.074,0,0.143-0.018,0.206-0.047c0.02-0.009,0.034-0.024,0.053-0.036c0.041-0.025,0.079-0.052,0.111-0.087
			c0.006-0.007,0.016-0.01,0.022-0.017l4-5c0.07-0.089,0.109-0.2,0.109-0.313v-4C23.5,9.472,23.489,9.448,23.484,9.421z M4.5,17.075
			l-3-3.751v-2.398l3,3.75V17.075z M18.5,18h-4v-1.5c0-0.276-0.224-0.5-0.5-0.5h-4c-0.276,0-0.5,0.224-0.5,0.5V18h-4v-3h13V18z
			 M18.76,14H5.24L1.827,9.731l10.174-3.699l10.174,3.699L18.76,14z M22.5,13.324l-3,3.751v-2.399l3-3.75V13.324z M19.168,9.529
			l-7-2.5c-0.026-0.009-0.051-0.006-0.077-0.011c-0.025-0.005-0.048-0.014-0.073-0.014C12.012,7.004,12.007,7,12.001,7c0,0,0,0,0,0
			s0,0,0,0c-0.005,0-0.009,0.003-0.014,0.003c-0.036,0.001-0.069,0.012-0.103,0.02c-0.017,0.004-0.034,0.001-0.051,0.007
			l-0.025,0.009c-0.001,0-0.002,0-0.002,0.001L4.832,9.53C4.67,9.587,4.55,9.723,4.512,9.891c-0.038,0.167,0.013,0.342,0.134,0.463
			l2.5,2.5C7.24,12.947,7.367,13,7.5,13h9c0.133,0,0.26-0.053,0.354-0.147l2.5-2.5c0.121-0.121,0.172-0.296,0.134-0.463
			C19.45,9.722,19.33,9.587,19.168,9.529z M6.815,11.037c-0.017,0.007-0.028,0.02-0.044,0.028l-0.859-0.859L11.5,8.211v0.952
			L6.815,11.037z M16.293,12H12c-0.002,0-0.003,0.001-0.005,0.001H7.707l-0.175-0.175l4.469-1.787l4.467,1.787L16.293,12z
			 M17.229,11.065c-0.015-0.008-0.026-0.021-0.043-0.028l-4.685-1.875V8.21l5.587,1.995L17.229,11.065z"/>
	</g>
</g>
</svg>
