<?xml version="1.0" encoding="iso-8859-1"?>
<!-- Generator: Adobe Illustrator 19.0.0, SVG Export Plug-In . SVG Version: 6.00 Build 0)  -->
<svg version="1.1" id="Layer_1" xmlns="http://www.w3.org/2000/svg" xmlns:xlink="http://www.w3.org/1999/xlink" x="0px" y="0px"
	 viewBox="0 0 24 24" style="enable-background:new 0 0 24 24;" xml:space="preserve">
<g>
	<g>
		<path d="M18.374,7.62c0.012,0.001,0.024,0.001,0.036,0.001c0.26,0,0.479-0.201,0.498-0.465c0.02-0.275-0.187-0.514-0.463-0.534
			l-0.499-0.035l0.177-2.494c0.028-0.4-0.101-0.786-0.363-1.089c-0.149-0.172-0.333-0.3-0.536-0.388l0.042-0.588
			c0.028-0.4-0.101-0.786-0.363-1.089c-0.262-0.303-0.627-0.486-1.027-0.514L9.891,0.001c-0.809-0.04-1.544,0.566-1.602,1.391
			l-0.043,0.6C7.659,2.165,7.197,2.67,7.151,3.316L6.974,5.809L6.474,5.773C6.196,5.745,5.961,5.962,5.94,6.237
			c-0.02,0.275,0.187,0.514,0.463,0.534l0.5,0.035L6.691,9.799l-0.5-0.035c-0.278-0.018-0.514,0.189-0.534,0.464
			c-0.02,0.275,0.188,0.514,0.463,0.534l0.5,0.035L6.408,13.79l-0.5-0.035c-0.267-0.019-0.514,0.189-0.534,0.464
			c-0.02,0.275,0.188,0.514,0.463,0.534l0.5,0.035l-0.212,2.991l-0.499-0.035c-0.268-0.019-0.514,0.189-0.534,0.464
			c-0.02,0.275,0.187,0.514,0.463,0.534l0.499,0.035l-0.318,4.49C5.716,23.541,5.924,23.78,6.2,23.8L9.042,24h7.204
			c0.262,0,0.48-0.203,0.5-0.465l0.282-3.98l0.498,0.035c0.012,0.001,0.024,0.001,0.036,0.001c0.26,0,0.479-0.201,0.498-0.465
			c0.02-0.275-0.187-0.514-0.463-0.534l-0.498-0.035l0.212-2.992l0.497,0.035c0.012,0.001,0.024,0.001,0.036,0.001
			c0.261,0,0.48-0.202,0.498-0.465c0.02-0.275-0.188-0.514-0.463-0.534l-0.498-0.035l0.212-2.993l0.498,0.035
			c0.012,0.001,0.024,0.001,0.036,0.001c0.26,0,0.48-0.201,0.498-0.465c0.02-0.275-0.188-0.514-0.463-0.534l-0.498-0.035
			l0.212-2.991L18.374,7.62z M9.286,1.462c0.009-0.133,0.07-0.255,0.171-0.342c0.1-0.088,0.227-0.131,0.363-0.121l5.985,0.424
			c0.133,0.009,0.255,0.07,0.342,0.171c0.088,0.1,0.131,0.229,0.122,0.363l-0.036,0.498l-4.564-0.323L9.25,1.96L9.286,1.462z
			 M11.77,23h-1.002l0.096-1.376c0.02-0.276,0.254-0.487,0.535-0.464c0.133,0.009,0.255,0.07,0.342,0.171
			c0.088,0.1,0.131,0.229,0.122,0.363L11.77,23z M15.78,23l-3.007,0l0.087-1.235c0.058-0.826-0.565-1.544-1.391-1.603
			c-0.833-0.045-1.544,0.568-1.602,1.392l-0.102,1.447l-0.688,0l-2.308-0.163l0.283-3.991l1.493,0.106
			c0.001,0,0.002,0.001,0.004,0.001c0.006,0,0.012,0,0.018,0l2.972,0.211c0.001,0,0.002,0.001,0.003,0.001c0.004,0,0.008,0,0.013,0
			l2.979,0.211c0,0,0.001,0,0.001,0c0.002,0,0.004,0,0.006,0l1.49,0.106L15.78,23z M16.099,18.486l-0.998-0.071l0.106-1.496
			c0.02-0.275-0.188-0.514-0.463-0.534c-0.276-0.021-0.514,0.189-0.534,0.464l-0.106,1.495l-1.996-0.142l0.107-1.496
			c0.02-0.275-0.187-0.514-0.463-0.534c-0.275-0.024-0.514,0.189-0.534,0.464l-0.106,1.495l-1.995-0.142l0.106-1.496
			c0.02-0.275-0.188-0.514-0.463-0.534c-0.274-0.028-0.514,0.189-0.534,0.464L8.12,17.92l-0.998-0.071l0.212-2.991l8.978,0.636
			L16.099,18.486z M16.382,14.496l-0.997-0.071l0.106-1.496c0.02-0.275-0.188-0.514-0.463-0.534
			c-0.275-0.02-0.514,0.189-0.534,0.464l-0.106,1.496l-1.996-0.141l0.107-1.496c0.02-0.275-0.187-0.514-0.463-0.534
			c-0.274-0.023-0.514,0.189-0.534,0.464l-0.107,1.496L9.4,14.002l0.106-1.496c0.02-0.275-0.188-0.514-0.463-0.534
			c-0.273-0.027-0.514,0.189-0.534,0.464l-0.106,1.496L7.404,13.86l0.212-2.993l1.492,0.106c0.002,0,0.003,0.001,0.005,0.001
			c0.008,0.001,0.015,0.001,0.023,0.001l5.961,0.422c0,0,0,0,0,0c0,0,0.001,0,0.001,0l1.495,0.106L16.382,14.496z M16.665,10.505
			l-0.998-0.071l0.107-1.496c0.02-0.275-0.187-0.514-0.463-0.534c-0.275-0.018-0.514,0.189-0.534,0.464l-0.106,1.496l-1.995-0.141
			l0.107-1.496c0.02-0.275-0.187-0.514-0.463-0.534c-0.274-0.022-0.514,0.189-0.534,0.464l-0.106,1.496l-1.995-0.141l0.106-1.495
			c0.02-0.275-0.188-0.514-0.463-0.534C9.052,7.956,8.812,8.17,8.792,8.445L8.686,9.94L7.687,9.869l0.212-2.992l7.48,0.531
			c0.001,0,0.001,0,0.002,0c0.002,0,0.005,0,0.007,0l1.489,0.106L16.665,10.505z M16.948,6.516L15.95,6.445l0.107-1.496
			c0.02-0.275-0.187-0.514-0.463-0.534C15.32,4.397,15.08,4.604,15.06,4.879l-0.106,1.495l-1.996-0.142l0.107-1.496
			c0.019-0.275-0.188-0.514-0.463-0.534c-0.284-0.021-0.514,0.189-0.534,0.464L11.96,6.163L9.965,6.021l0.106-1.497
			c0.02-0.275-0.188-0.514-0.463-0.534C9.336,3.966,9.094,4.179,9.073,4.454L8.968,5.95L7.97,5.88l0.177-2.493
			c0.009-0.133,0.07-0.255,0.171-0.342c0.1-0.088,0.222-0.134,0.363-0.121l7.98,0.565h0c0.133,0.009,0.255,0.07,0.342,0.171
			c0.088,0.1,0.131,0.229,0.122,0.363L16.948,6.516z"/>
	</g>
</g>
</svg>
