<?xml version="1.0" encoding="iso-8859-1"?>
<!-- Generator: Adobe Illustrator 19.0.0, SVG Export Plug-In . SVG Version: 6.00 Build 0)  -->
<svg version="1.1" id="Layer_1" xmlns="http://www.w3.org/2000/svg" xmlns:xlink="http://www.w3.org/1999/xlink" x="0px" y="0px"
	 viewBox="0 0 24 24" style="enable-background:new 0 0 24 24;" xml:space="preserve">
<g>
	<g>
		<path d="M15.005,9.196C14.575,8.623,14.482,7.887,14.5,7.5c0-0.752-0.831-1.34-2-1.472V0.5C12.5,0.224,12.276,0,12,0
			s-0.5,0.224-0.5,0.5v5.528c-1.169,0.132-2,0.722-2,1.495c0.017,0.365-0.075,1.1-0.505,1.673C6.789,9.515,6.5,10.059,6.5,10.5
			c0,0.652,0.926,1.02,2.041,1.23l1.942,7.77l-0.969,3.879c-0.067,0.267,0.096,0.539,0.364,0.606C9.919,23.995,9.96,24,10,24
			c0.225,0,0.428-0.151,0.484-0.379l1-4c0.02-0.079,0.02-0.163,0-0.242L9.61,11.883c0.34,0.035,0.676,0.061,0.991,0.079
			l2.915,11.659C13.572,23.849,13.776,24,14,24c0.04,0,0.081-0.005,0.122-0.015c0.268-0.067,0.431-0.338,0.364-0.606l-1.54-6.161
			c0.002-0.005,0.007-0.006,0.009-0.011l2.488-5.474c1.122-0.209,2.057-0.578,2.057-1.233C17.5,10.058,17.211,9.514,15.005,9.196z
			 M12.558,15.665l-0.917-3.668C11.774,11.999,11.899,12,12,12c0.477,0,1.355-0.015,2.271-0.104L12.558,15.665z M13.141,10.971
			c0.206-0.062,0.359-0.246,0.359-0.471v-1C13.5,9.224,13.276,9,13,9s-0.5,0.224-0.5,0.5v1c0,0.245,0.18,0.439,0.412,0.482
			C12.623,10.993,12.322,11,12,11c-0.322,0-0.623-0.007-0.912-0.018C11.32,10.939,11.5,10.745,11.5,10.5v-1
			C11.5,9.224,11.276,9,11,9s-0.5,0.224-0.5,0.5v1c0,0.226,0.153,0.41,0.359,0.472c-1.563-0.073-2.617-0.284-3.109-0.469
			c0.28-0.105,0.773-0.237,1.573-0.342c0.119-0.016,0.228-0.073,0.308-0.163c0.691-0.773,0.902-1.81,0.87-2.498
			c0-0.124,0.533-0.5,1.5-0.5c0.967,0,1.5,0.376,1.5,0.477c-0.033,0.711,0.178,1.748,0.869,2.521c0.08,0.09,0.189,0.147,0.308,0.163
			c0.8,0.105,1.292,0.238,1.572,0.342C15.757,10.687,14.703,10.898,13.141,10.971z"/>
	</g>
</g>
</svg>
