<?xml version="1.0" encoding="iso-8859-1"?>
<!-- Generator: Adobe Illustrator 19.0.0, SVG Export Plug-In . SVG Version: 6.00 Build 0)  -->
<svg version="1.1" id="Layer_1" xmlns="http://www.w3.org/2000/svg" xmlns:xlink="http://www.w3.org/1999/xlink" x="0px" y="0px"
	 viewBox="0 0 24 24" style="enable-background:new 0 0 24 24;" xml:space="preserve">
<g>
	<g>
		<path d="M23.964,3.32c-0.007-0.019-0.019-0.034-0.028-0.052c-0.019-0.035-0.04-0.069-0.066-0.099
			c-0.015-0.017-0.032-0.031-0.049-0.046c-0.028-0.024-0.059-0.045-0.092-0.062c-0.021-0.011-0.041-0.021-0.064-0.029
			c-0.013-0.005-0.024-0.014-0.038-0.017l-11.5-3c-0.082-0.021-0.17-0.021-0.252,0l-11.5,3C0.36,3.02,0.349,3.028,0.336,3.033
			C0.313,3.041,0.293,3.051,0.272,3.062C0.238,3.079,0.208,3.1,0.18,3.124C0.163,3.139,0.146,3.153,0.131,3.169
			c-0.027,0.03-0.047,0.063-0.066,0.099C0.055,3.286,0.044,3.301,0.036,3.32C0.014,3.376,0,3.436,0,3.5v20C0,23.776,0.224,24,0.5,24
			h23c0.276,0,0.5-0.224,0.5-0.5v-20C24,3.436,23.986,3.376,23.964,3.32z M12,1.016L19.604,3H4.396L12,1.016z M6,23H3v-3h3V23z
			 M3,19v-2h2v2H3z M10,23H7v-2h3V23z M23,23h-7v-3h7V23z M23,19h-5v-2h5V19z M23,16h-5.5c-0.276,0-0.5,0.224-0.5,0.5V19h-1.5
			c-0.276,0-0.5,0.224-0.5,0.5V23h-4v-2.5c0-0.276-0.224-0.5-0.5-0.5H7v-0.5C7,19.224,6.776,19,6.5,19H6v-2.5
			C6,16.224,5.776,16,5.5,16h-3C2.224,16,2,16.224,2,16.5V23H1V13h22V16z M23,12H1v-2h22V12z M23,9H1V7h22V9z M23,6H1V4h22V6z"/>
	</g>
</g>
</svg>
