<?xml version="1.0" encoding="iso-8859-1"?>
<!-- Generator: Adobe Illustrator 19.0.0, SVG Export Plug-In . SVG Version: 6.00 Build 0)  -->
<svg version="1.1" id="Layer_1" xmlns="http://www.w3.org/2000/svg" xmlns:xlink="http://www.w3.org/1999/xlink" x="0px" y="0px"
	 viewBox="3 -3 30 30" style="enable-background:new 3 -3 30 30;" xml:space="preserve">
<g>
	<g>
		<path d="M32.5,24H6V-2.5C6-2.776,5.776-3,5.5-3S5-2.776,5-2.5V24H3.5C3.224,24,3,24.224,3,24.5S3.224,25,3.5,25H5v1.5
			C5,26.776,5.224,27,5.5,27S6,26.776,6,26.5V25h26.5c0.276,0,0.5-0.224,0.5-0.5S32.776,24,32.5,24z"/>
	</g>
	<g>
		<path d="M8.499,22c0.144,0,0.286-0.061,0.385-0.18l4.649-5.58l1.613,1.613c0.106,0.106,0.251,0.16,0.403,0.144
			c0.149-0.015,0.284-0.096,0.367-0.22l3.662-5.493l2.569,2.569c0.133,0.133,0.33,0.18,0.506,0.123
			c0.178-0.057,0.31-0.209,0.34-0.394l1.84-11.042l3.313,3.313c0.106,0.106,0.252,0.158,0.403,0.144
			c0.149-0.015,0.284-0.096,0.367-0.22l4-6c0.153-0.23,0.091-0.54-0.139-0.693c-0.231-0.153-0.541-0.092-0.693,0.139l-3.662,5.493
			l-3.569-3.569c-0.132-0.132-0.327-0.179-0.506-0.123c-0.178,0.057-0.31,0.209-0.34,0.394l-1.84,11.042l-2.313-2.313
			c-0.105-0.105-0.246-0.154-0.403-0.144c-0.149,0.015-0.284,0.096-0.367,0.22l-3.662,5.493l-1.569-1.569
			c-0.099-0.1-0.235-0.158-0.376-0.146c-0.141,0.006-0.271,0.071-0.362,0.179l-5,6c-0.177,0.212-0.148,0.528,0.064,0.705
			C8.273,21.962,8.387,22,8.499,22z"/>
	</g>
</g>
</svg>
