<?xml version="1.0" encoding="utf-8"?>
<!-- Generator: Adobe Illustrator 19.0.0, SVG Export Plug-In . SVG Version: 6.00 Build 0)  -->
<svg version="1.1" id="Layer_1" xmlns="http://www.w3.org/2000/svg" xmlns:xlink="http://www.w3.org/1999/xlink" x="0px" y="0px"
	 viewBox="0 0 30 30" style="enable-background:new 0 0 30 30;" xml:space="preserve">
<g>
	<path d="M15,1C9.5,1,4.6,3.4,2.1,7.3c-1,1.6-1.6,3.3-1.6,5.1v0.1c0,3.1,1.6,6.2,4.5,8.3l-2.5,7.5c-0.1,0.2,0,0.4,0.2,0.6
		C2.8,29,2.9,29,3,29c0.1,0,0.2,0,0.3-0.1l6.6-5.6c1.6,0.5,3.3,0.7,5,0.7c8,0,14.5-5.2,14.5-11.5S23,1,15,1z M19.2,13.9l2.8,2.5
		c0.6,0.5,0.7,1.5,0.1,2.1c-0.5,0.6-1.5,0.7-2.1,0.1l-2.8-2.5C17.1,16.1,17,16,16.9,16c-0.1,0-0.2,0-0.3,0.1c-0.9,0.6-2,0.9-3.1,0.9
		c-3.3,0-6-2.7-6-6s2.7-6,6-6s6,2.7,6,6c0,0.8-0.2,1.6-0.5,2.3C18.9,13.5,19,13.8,19.2,13.9z"/>
	<path d="M18.5,11c0-2.8-2.2-5-5-5s-5,2.2-5,5s2.2,5,5,5c1.3,0,2.5-0.5,3.4-1.4l3.7,3.3C20.8,18,20.9,18,21,18
		c0.1,0,0.3-0.1,0.4-0.2c0.2-0.2,0.2-0.5,0-0.7l-3.7-3.3C18.2,13,18.5,12.1,18.5,11z M13.5,15c-2.2,0-4-1.8-4-4s1.8-4,4-4s4,1.8,4,4
		S15.7,15,13.5,15z"/>
</g>
</svg>
