<?xml version="1.0" encoding="utf-8"?>
<!-- Generator: Adobe Illustrator 19.0.0, SVG Export Plug-In . SVG Version: 6.00 Build 0)  -->
<svg version="1.1" id="Layer_1" xmlns="http://www.w3.org/2000/svg" xmlns:xlink="http://www.w3.org/1999/xlink" x="0px" y="0px"
	 viewBox="0 0 30 30" style="enable-background:new 0 0 30 30;" xml:space="preserve">
<g>
	<circle cx="14.5" cy="13.4" r="2"/>
	<path d="M9.5,16.5c0.2,0.3,0.2,0.8-0.1,1.1c-0.2,0.2-0.1,0.5,0,0.7c1,1,2.2,1.7,3.6,2c0,0,0.1,0,0.1,0c0.2,0,0.4-0.1,0.5-0.3
		c0.3-0.7,1.5-0.7,1.8,0c0.1,0.2,0.3,0.3,0.6,0.3c1.4-0.3,2.6-1,3.6-2c0.2-0.2,0.2-0.5,0-0.7c-0.2-0.3-0.3-0.8-0.1-1.1
		c0.2-0.4,0.6-0.6,1.1-0.5c0.2,0,0.5-0.1,0.6-0.3c0.3-0.8,0.4-1.5,0.4-2.3c0-0.6-0.1-1.2-0.2-1.8c0-0.1-0.1-0.2-0.2-0.3
		s-0.3-0.1-0.4,0c-0.4,0.1-0.9-0.1-1.1-0.5c-0.2-0.4-0.1-1,0.2-1.3c0.1-0.1,0.2-0.2,0.2-0.3s0-0.3-0.1-0.4c-1-1.1-2.2-1.9-3.7-2.2
		c-0.1,0-0.3,0-0.4,0.1c-0.1,0.1-0.2,0.2-0.2,0.3c-0.1,0.5-0.5,0.9-1,0.9s-0.9-0.4-1-0.9c0-0.1-0.1-0.3-0.2-0.3
		c-0.1-0.1-0.3-0.1-0.4-0.1c-1.4,0.3-2.7,1.1-3.7,2.2C9.2,8.9,9.1,9,9.1,9.2s0.1,0.3,0.2,0.3c0.4,0.3,0.5,0.8,0.2,1.3
		c-0.2,0.4-0.7,0.6-1.1,0.5c-0.1,0-0.3,0-0.4,0c-0.1,0.1-0.2,0.2-0.2,0.3c-0.2,0.6-0.2,1.2-0.2,1.8c0,0.8,0.1,1.6,0.4,2.3
		C8,15.9,8.2,16.1,8.5,16C8.9,16,9.3,16.2,9.5,16.5z M14.5,10.4c1.7,0,3,1.3,3,3s-1.3,3-3,3s-3-1.3-3-3S12.8,10.4,14.5,10.4z"/>
	<path d="M15,1.3C9.5,1.3,4.6,3.7,2.1,7.6c-1,1.6-1.6,3.3-1.6,5.1v0.1c0,3.1,1.6,6.1,4.5,8.3l-2.5,7c-0.1,0.2,0,0.4,0.2,0.6
		c0.1,0.1,0.2,0.1,0.3,0.1c0.1,0,0.2,0,0.3-0.1l6.6-5.1c1.6,0.5,3.3,0.7,5.1,0.7c8,0,14.5-5.2,14.5-11.5S23,1.3,15,1.3z M8,17
		c-0.5-0.1-0.9-0.5-1-1c-0.3-0.9-0.5-1.8-0.5-2.7c0-0.7,0.1-1.4,0.3-2.1c0.1-0.4,0.4-0.7,0.7-0.9c0.1-0.1,0.2-0.1,0.3-0.1
		c0.1,0,0.2-0.1,0.3-0.2c0.1-0.1,0.1-0.3,0-0.4c0-0.1-0.1-0.2-0.1-0.4c0-0.4,0.1-0.8,0.4-1.1C9.6,6.9,11,6,12.7,5.6
		c0.4-0.1,0.9,0,1.2,0.2C14,5.9,14.1,6,14.1,6.1c0.2,0.2,0.6,0.2,0.7,0C14.9,6,15,5.9,15.1,5.8c0.3-0.2,0.8-0.3,1.2-0.2
		C18,6,19.4,6.9,20.5,8.1c0.3,0.3,0.4,0.7,0.4,1.1c0,0.1,0,0.3-0.1,0.4c0,0.1,0,0.3,0,0.4c0.1,0.1,0.2,0.2,0.3,0.2
		c0.1,0,0.2,0.1,0.3,0.1c0.4,0.2,0.6,0.5,0.7,0.9c0.2,0.7,0.3,1.4,0.3,2.1c0,0.9-0.2,1.8-0.5,2.7c-0.2,0.5-0.6,0.8-1.1,1
		c-0.3,0.1-0.4,0.3-0.4,0.6c0.1,0.5,0,1-0.4,1.4c-1.1,1.1-2.5,1.9-4.1,2.2c-0.5,0.1-1,0-1.3-0.4c-0.1-0.1-0.2-0.1-0.3-0.1
		s-0.2,0-0.3,0.1c-0.4,0.3-0.8,0.5-1.3,0.4c-1.5-0.3-3-1.1-4.1-2.2c-0.3-0.4-0.5-0.9-0.4-1.4C8.4,17.3,8.3,17.1,8,17z"/>
</g>
</svg>
