<?xml version="1.0" encoding="utf-8"?>
<!-- Generator: Adobe Illustrator 19.0.0, SVG Export Plug-In . SVG Version: 6.00 Build 0)  -->
<svg version="1.1" id="Layer_1" xmlns="http://www.w3.org/2000/svg" xmlns:xlink="http://www.w3.org/1999/xlink" x="0px" y="0px"
	 viewBox="0 0 30 30" style="enable-background:new 0 0 30 30;" xml:space="preserve">
<g>
	<path d="M13.2,20.2c0.2-0.6,0.8-1,1.4-1h4.2c0.2,0,0.4-0.1,0.5-0.3l1.3-4c0.2-0.6,0.8-1,1.4-1s1.2,0.4,1.4,1l1.3,4
		c0.1,0.2,0.3,0.3,0.5,0.3H28c0.2,0,0.3-0.1,0.4-0.3c0.4-0.7,0.6-1.4,0.6-2.1V4.3c0-2.3-1.9-4.3-4.3-4.3H4.3C1.9,0.1,0,2,0,4.3v12.5
		c0,2.3,1.9,4.3,4.3,4.3h2.5l-2.7,7.3c-0.1,0.2,0,0.4,0.2,0.6c0.1,0.1,0.2,0.1,0.3,0.1c0.1,0,0.2,0,0.3-0.1l8.4-6.8
		c0.2-0.2,0.2-0.5,0.1-0.7C13.1,21.2,13,20.7,13.2,20.2z M18,10.1c0-1.1,0.9-2,2-2s2,0.9,2,2s-0.9,2-2,2S18,11.2,18,10.1z M16,10.1
		c0,1.1-0.9,2-2,2s-2-0.9-2-2s0.9-2,2-2S16,9,16,10.1z M6,10.1c0-1.1,0.9-2,2-2s2,0.9,2,2s-0.9,2-2,2S6,11.2,6,10.1z"/>
	<path d="M29.9,20.5c-0.1-0.2-0.3-0.3-0.5-0.3h-5.3l-1.6-5.1c-0.1-0.4-0.8-0.4-1,0l-1.6,5.1h-5.3c-0.2,0-0.4,0.1-0.5,0.3
		s0,0.4,0.2,0.6l4.3,3.1L17,29.3c-0.1,0.2,0,0.4,0.2,0.6c0.2,0.1,0.4,0.1,0.6,0l4.3-3.1l4.3,3.1c0.1,0.1,0.2,0.1,0.3,0.1
		s0.2,0,0.3-0.1c0.2-0.1,0.2-0.4,0.2-0.6l-1.6-5.1l4.3-3.1C29.9,21,30,20.7,29.9,20.5z"/>
</g>
</svg>
