<?xml version="1.0" encoding="iso-8859-1"?>
<!-- Generator: Adobe Illustrator 19.0.0, SVG Export Plug-In . SVG Version: 6.00 Build 0)  -->
<svg version="1.1" id="Layer_1" xmlns="http://www.w3.org/2000/svg" xmlns:xlink="http://www.w3.org/1999/xlink" x="0px" y="0px"
	 viewBox="0 0 24 24" style="enable-background:new 0 0 24 24;" xml:space="preserve">
<g>
	<g>
		<path d="M16,0H8C6.07,0,4.5,1.57,4.5,3.5v17C4.5,22.43,6.07,24,8,24h8c1.93,0,3.5-1.57,3.5-3.5v-17C19.5,1.57,17.93,0,16,0z
			 M18.5,20.5c0,1.378-1.121,2.5-2.5,2.5H8c-1.379,0-2.5-1.122-2.5-2.5V19h13V20.5z M18.5,18h-13V5h13V18z M18.5,4h-13V3.5
			C5.5,2.122,6.621,1,8,1h8c1.379,0,2.5,1.122,2.5,2.5V4z M16.02,2h-0.01c-0.276,0-0.495,0.224-0.495,0.5S15.745,3,16.02,3
			c0.276,0,0.5-0.224,0.5-0.5S16.296,2,16.02,2z M12,22c0.552,0,1-0.448,1-1s-0.448-1-1-1s-1,0.448-1,1S11.448,22,12,22z M13,2h-2
			c-0.276,0-0.5,0.224-0.5,0.5S10.724,3,11,3h2c0.276,0,0.5-0.224,0.5-0.5S13.276,2,13,2z M8.851,16.977C8.9,16.993,8.95,17,9,17
			c0.186,0,0.36-0.104,0.446-0.276l1.776-3.553l1.553,0.776c0.13,0.064,0.28,0.071,0.415,0.015c0.134-0.056,0.237-0.167,0.283-0.304
			l2-6c0.087-0.262-0.054-0.545-0.316-0.632l-3-1c-0.145-0.049-0.299-0.029-0.425,0.051c-0.126,0.08-0.21,0.213-0.229,0.361
			l-0.399,3.197l-0.827-0.551c-0.141-0.096-0.323-0.111-0.481-0.041C9.639,9.114,9.529,9.259,9.505,9.429l-1,7
			C8.471,16.672,8.618,16.904,8.851,16.977z M10.383,10.356l0.84,0.56c0.143,0.097,0.327,0.112,0.485,0.039
			c0.157-0.073,0.267-0.221,0.288-0.393l0.425-3.395l1.946,0.649l-1.659,4.979l-1.484-0.742c-0.247-0.121-0.547-0.024-0.671,0.224
			l-0.622,1.244L10.383,10.356z"/>
	</g>
</g>
</svg>
