<?xml version="1.0" encoding="iso-8859-1"?>
<!-- Generator: Adobe Illustrator 19.0.0, SVG Export Plug-In . SVG Version: 6.00 Build 0)  -->
<svg version="1.1" id="Layer_1" xmlns="http://www.w3.org/2000/svg" xmlns:xlink="http://www.w3.org/1999/xlink" x="0px" y="0px"
	 viewBox="0 0 24 24" style="enable-background:new 0 0 24 24;" xml:space="preserve">
<g>
	<g>
		<path d="M14.277,8.914c0.248,0.122,0.547,0.024,0.671-0.224l1.025-2.05c0.208-0.415,0.625-0.673,1.089-0.673
			c0.417,0,0.799,0.209,1.024,0.56l3.993,6.211c0.096,0.148,0.257,0.229,0.421,0.229c0.093,0,0.187-0.026,0.27-0.08
			c0.232-0.149,0.299-0.459,0.15-0.691l-3.993-6.21c-0.409-0.638-1.107-1.019-1.866-1.019c-0.845,0-1.605,0.47-1.983,1.226
			l-1.025,2.05C13.93,8.49,14.03,8.789,14.277,8.914z M23.681,14c-0.11-0.042-2.704-1.034-5.681-1.034
			c-1.878,0-3.396,0.402-4.504,0.695c-0.617,0.164-1.151,0.305-1.496,0.305c-0.345,0-0.879-0.141-1.496-0.305
			C9.396,13.368,7.878,12.966,6,12.966c-2.977,0-5.571,0.992-5.681,1.034C0.127,14.074,0,14.259,0,14.466v2
			c0,0.827,0.673,1.5,1.5,1.5h4c0.827,0,1.5-0.673,1.5-1.5s-0.673-1.5-1.5-1.5H1V14.82c0.764-0.254,2.797-0.854,5-0.854
			c1.233,0,2.278,0.185,3.182,0.396c0.773,0.816,1.125,2.539,0.416,3.868c-0.13,0.244-0.037,0.547,0.206,0.677
			c0.075,0.04,0.155,0.059,0.235,0.059c0.179,0,0.352-0.096,0.442-0.265c0.257-0.482,0.399-0.997,0.46-1.512
			C10.976,17.122,11,17.048,11,16.966c0-0.249,0.31-0.5,1-0.5s1,0.251,1,0.5c0,0.082,0.024,0.156,0.06,0.225
			c0.065,0.542,0.218,1.083,0.503,1.588c0.092,0.163,0.261,0.255,0.436,0.255c0.083,0,0.167-0.021,0.245-0.064
			c0.24-0.136,0.326-0.44,0.19-0.681c-0.752-1.339-0.408-3.091,0.385-3.927c0.904-0.211,1.949-0.396,3.182-0.396
			c2.783,0,5.295,0.957,5.32,0.966c0.256,0.098,0.546-0.028,0.646-0.286C24.066,14.389,23.938,14.1,23.681,14z M5.5,15.966
			c0.275,0,0.5,0.224,0.5,0.5s-0.225,0.5-0.5,0.5h-4c-0.275,0-0.5-0.224-0.5-0.5v-0.5H5.5z M13.12,15.692
			c-0.296-0.138-0.662-0.226-1.12-0.226c-0.459,0-0.827,0.089-1.122,0.227c-0.069-0.348-0.171-0.68-0.305-0.984
			c0.553,0.143,1.032,0.257,1.428,0.257c0.395,0,0.872-0.113,1.424-0.256C13.289,15.014,13.189,15.346,13.12,15.692z M1.229,12.886
			c0.084,0.055,0.178,0.08,0.271,0.08c0.164,0,0.325-0.081,0.42-0.231l3.993-6.211c0.224-0.35,0.607-0.559,1.024-0.559
			c0.464,0,0.881,0.257,1.089,0.673l1.025,2.05c0.124,0.248,0.427,0.346,0.671,0.224c0.247-0.124,0.347-0.424,0.224-0.671
			l-1.025-2.05C8.543,5.435,7.784,4.966,6.938,4.966c-0.759,0-1.457,0.381-1.866,1.019l-3.993,6.211
			C0.929,12.428,0.997,12.737,1.229,12.886z"/>
	</g>
</g>
</svg>
