<?xml version="1.0" encoding="utf-8"?>
<!-- Generator: Adobe Illustrator 19.0.0, SVG Export Plug-In . SVG Version: 6.00 Build 0)  -->
<svg version="1.1" id="Layer_1" xmlns="http://www.w3.org/2000/svg" xmlns:xlink="http://www.w3.org/1999/xlink" x="0px" y="0px"
	 viewBox="0 0 30 30" style="enable-background:new 0 0 30 30;" xml:space="preserve">
<g>
	<g>
		<path d="M22,30H4c-0.1,0-0.3-0.1-0.4-0.1l-1.5-1.5C2.1,28.3,2,28.1,2,28v-2.5C2,25.2,2.2,25,2.5,25H19v-4H3
			c-0.1,0-0.3-0.1-0.4-0.1l-1.5-1.5C1.1,19.3,1,19.1,1,19V2c0-0.1,0.1-0.3,0.1-0.4l1.5-1.5C2.7,0.1,2.9,0,3,0h19
			c0.1,0,0.3,0.1,0.4,0.1l1.5,1.5C23.9,1.7,24,1.9,24,2v11l4-9.7C28.1,3.1,28.4,3,28.6,3c0.2,0,0.4,0.3,0.4,0.5v8
			c0,0.1,0,0.2-0.1,0.2L24,20.6V28c0,0.1-0.1,0.3-0.1,0.4l-1.5,1.5C22.3,29.9,22.1,30,22,30z M4.2,29h17.6l1.2-1.2v-7.3
			c0-0.1,0-0.2,0.1-0.2l4.9-8.9V6l-4,9.7c-0.1,0.2-0.3,0.3-0.6,0.3c-0.2,0-0.4-0.3-0.4-0.5V2.2L21.8,1H3.2L2,2.2v16.6L3.2,20h16.3
			c0.3,0,0.5,0.2,0.5,0.5v5c0,0.3-0.2,0.5-0.5,0.5H3v1.8L4.2,29z M19.5,17h-14C5.2,17,5,16.8,5,16.5v-12C5,4.2,5.2,4,5.5,4h14
			C19.8,4,20,4.2,20,4.5v12C20,16.8,19.8,17,19.5,17z M6,16h13V5H6V16z"/>
	</g>
</g>
</svg>
