<?xml version="1.0" encoding="utf-8"?>
<!-- Generator: Adobe Illustrator 19.0.0, SVG Export Plug-In . SVG Version: 6.00 Build 0)  -->
<svg version="1.1" id="Layer_1" xmlns="http://www.w3.org/2000/svg" xmlns:xlink="http://www.w3.org/1999/xlink" x="0px" y="0px"
	 viewBox="0 0 30 30" style="enable-background:new 0 0 30 30;" xml:space="preserve">
<g>
	<g>
		<path d="M25.8,30H4.3C1.9,30,0,28.1,0,25.8V4.3C0,1.9,1.9,0,4.3,0h21.5C28.1,0,30,1.9,30,4.3v21.5C30,28.1,28.1,30,25.8,30z
			 M4.3,1C2.5,1,1,2.5,1,4.3v21.5C1,27.5,2.5,29,4.3,29h21.5c1.8,0,3.3-1.5,3.3-3.3V4.3C29,2.5,27.5,1,25.8,1H4.3z"/>
	</g>
	<g>
		<path d="M10.5,10h-10C0.2,10,0,9.8,0,9.5S0.2,9,0.5,9h10C10.8,9,11,9.2,11,9.5S10.8,10,10.5,10z"/>
	</g>
	<g>
		<path d="M29,10h-9.5C19.2,10,19,9.8,19,9.5S19.2,9,19.5,9H29c0.3,0,0.5,0.2,0.5,0.5S29.3,10,29,10z"/>
	</g>
	<g>
		<path d="M25.5,7h-4C21.2,7,21,6.8,21,6.5v-4C21,2.2,21.2,2,21.5,2h4C25.8,2,26,2.2,26,2.5v4C26,6.8,25.8,7,25.5,7z M22,6h3V3h-3V6
			z"/>
	</g>
	<g>
		<path d="M2.5,6C2.2,6,2,5.8,2,5.5V1c0-0.3,0.2-0.5,0.5-0.5S3,0.7,3,1v4.5C3,5.8,2.8,6,2.5,6z"/>
	</g>
	<g>
		<path d="M4.5,6C4.2,6,4,5.8,4,5.5v-5C4,0.2,4.2,0,4.5,0S5,0.2,5,0.5v5C5,5.8,4.8,6,4.5,6z"/>
	</g>
	<g>
		<path d="M6.5,6C6.2,6,6,5.8,6,5.5v-5C6,0.2,6.2,0,6.5,0S7,0.2,7,0.5v5C7,5.8,6.8,6,6.5,6z"/>
	</g>
	<g>
		<path d="M15,19c-2.2,0-4-1.8-4-4s1.8-4,4-4s4,1.8,4,4S17.2,19,15,19z M15,12c-1.7,0-3,1.3-3,3s1.3,3,3,3s3-1.3,3-3S16.7,12,15,12z
			"/>
	</g>
	<g>
		<path d="M15,22.5c-4.1,0-7.5-3.4-7.5-7.5s3.4-7.5,7.5-7.5s7.5,3.4,7.5,7.5S19.1,22.5,15,22.5z M15,8.5c-3.6,0-6.5,2.9-6.5,6.5
			s2.9,6.5,6.5,6.5s6.5-2.9,6.5-6.5S18.6,8.5,15,8.5z"/>
	</g>
</g>
</svg>
