<?xml version="1.0" encoding="utf-8"?>
<!-- Generator: Adobe Illustrator 19.0.0, SVG Export Plug-In . SVG Version: 6.00 Build 0)  -->
<svg version="1.1" id="Layer_1" xmlns="http://www.w3.org/2000/svg" xmlns:xlink="http://www.w3.org/1999/xlink" x="0px" y="0px"
	 viewBox="0 0 30 30" style="enable-background:new 0 0 30 30;" xml:space="preserve">
<g>
	<g>
		<path d="M10,30c-2,0-3.7-1-3.8-1.1C6.1,28.8,6,28.7,6,28.5v-4c0-0.2,0.1-0.4,0.3-0.4C6.5,24,6.7,24,6.8,24.1
			c0.4,0.3,1.8,1.2,2.5,0.8C9.9,24.7,10,23.7,10,23c0.1-4,0-13.4,0-13.5c0-0.1,0.1-0.3,0.1-0.4C10.2,9.1,10.4,9,10.5,9h4
			C14.8,9,15,9.2,15,9.5v7.1c2.6,0.8,5.6,0.3,7.7-1.3c1.5-1.1,2.3-2.4,2.3-3.9C25,7.8,20.7,5,15,5C9.5,5,5,8.1,5,12
			c0,1.5,0.4,2.7,1.4,3.7c0.1,0.1,0.1,0.3,0.1,0.4c0,0.1-0.1,0.3-0.2,0.4l-3,2.1c-0.2,0.1-0.5,0.1-0.7-0.1c-1.7-2-2.6-4.2-2.6-6.6
			C0,5.3,6.7,0,14.9,0C23.2,0,30,5.2,30,11.5c0,2.7-1.2,5.2-3.4,6.9c-2.9,2.3-7.1,3.1-11.6,2.2v3.9C15,27.9,12.1,30,10,30z M7,28.2
			c0.5,0.3,1.7,0.8,3,0.8c1.6,0,4-1.8,4-4.5V20c0-0.2,0.1-0.3,0.2-0.4c0.1-0.1,0.3-0.1,0.4-0.1c4.4,1,8.5,0.4,11.3-1.9
			c2-1.6,3-3.7,3-6.2C29,5.7,22.7,1,14.9,1C7.2,1,1,5.8,1,11.8c0,2,0.7,3.9,2.1,5.6l2.2-1.5C4.4,14.8,4,13.6,4,12c0-4.5,4.8-8,11-8
			c6.4,0,11,3.2,11,7.5c0,1.8-1,3.4-2.7,4.7c-2.5,1.8-6,2.3-9,1.3C14.1,17.4,14,17.2,14,17v-7h-3c0,2,0.1,9.5,0,13
			c0,1.5-0.4,2.4-1.3,2.8c-0.9,0.4-2,0-2.7-0.4V28.2z"/>
	</g>
</g>
</svg>
