<?xml version="1.0" encoding="utf-8"?>
<!-- Generator: Adobe Illustrator 19.0.0, SVG Export Plug-In . SVG Version: 6.00 Build 0)  -->
<svg version="1.1" id="Layer_1" xmlns="http://www.w3.org/2000/svg" xmlns:xlink="http://www.w3.org/1999/xlink" x="0px" y="0px"
	 viewBox="0 0 30 30" style="enable-background:new 0 0 30 30;" xml:space="preserve">
<g>
	<g>
		<path d="M21.5,22c-0.1,0-0.2,0-0.3-0.1c-3.1-2.3-11-2.4-15.1-1.4c-0.3,0.1-0.5-0.1-0.6-0.4c-0.1-0.3,0.1-0.5,0.4-0.6
			c3.8-0.9,12.3-1.1,15.9,1.6c0.2,0.2,0.3,0.5,0.1,0.7C21.8,21.9,21.7,22,21.5,22z"/>
	</g>
	<g>
		<path d="M23,18c-0.1,0-0.2,0-0.3-0.1c-4.2-3-10-3.7-17.1-1.9c-0.3,0.1-0.5-0.1-0.6-0.4s0.1-0.5,0.4-0.6c7.4-1.8,13.4-1.1,17.9,2.1
			c0.2,0.2,0.3,0.5,0.1,0.7C23.3,17.9,23.2,18,23,18z"/>
	</g>
	<g>
		<path d="M24.5,13c-0.1,0-0.2,0-0.3-0.1C18.9,9.3,10.9,9.6,5.6,11c-0.3,0.1-0.5-0.1-0.6-0.4c-0.1-0.3,0.1-0.5,0.4-0.6
			c5.5-1.4,13.8-1.7,19.4,2.1c0.2,0.2,0.3,0.5,0.1,0.7C24.8,12.9,24.7,13,24.5,13z"/>
	</g>
	<g>
		<path d="M15,30C6.7,30,0,23.3,0,15S6.7,0,15,0s15,6.7,15,15S23.3,30,15,30z M15,1C7.3,1,1,7.3,1,15s6.3,14,14,14s14-6.3,14-14
			S22.7,1,15,1z"/>
	</g>
</g>
</svg>
