<?xml version="1.0" encoding="utf-8"?>
<!-- Generator: Adobe Illustrator 19.0.0, SVG Export Plug-In . SVG Version: 6.00 Build 0)  -->
<svg version="1.1" id="Layer_1" xmlns="http://www.w3.org/2000/svg" xmlns:xlink="http://www.w3.org/1999/xlink" x="0px" y="0px"
	 viewBox="0 0 30 30" style="enable-background:new 0 0 30 30;" xml:space="preserve">
<g>
	<g>
		<path d="M0.5,30c-0.1,0-0.3-0.1-0.4-0.2C0,29.7,0,29.5,0,29.3l2.4-6.2C0.8,20.7,0,17.9,0,15C0,6.7,6.7,0,15,0s15,6.7,15,15
			s-6.7,15-15,15c-2.8,0-5.6-0.8-8-2.3L0.7,30C0.6,30,0.6,30,0.5,30z M7.1,26.6c0.1,0,0.2,0,0.3,0.1C9.6,28.2,12.3,29,15,29
			c7.7,0,14-6.3,14-14S22.7,1,15,1S1,7.3,1,15c0,2.8,0.8,5.5,2.4,7.8c0.1,0.1,0.1,0.3,0.1,0.5l-2.1,5.4l5.6-2
			C7,26.7,7,26.6,7.1,26.6z"/>
	</g>
	<g>
		<path d="M19.4,22c-1.9,0-5.9-2.6-7.6-4.3l0,0C10,15.9,8,12.5,8,10.6C8,8.6,9.7,7,11.1,7h1c0.2,0,0.3,0.1,0.4,0.2
			c0,0.1,1.1,1.6,1.6,2.6c0.6,1.1-0.7,2.4-1.4,3c0.3,0.5,0.9,1.7,1.8,2.6c1,1,2.5,1.6,3.1,1.8c0.5-0.6,1.7-1.7,2.7-1.2
			c1,0.5,2.3,1.3,2.4,1.3c0.2,0.1,0.2,0.3,0.2,0.4v1.3C23,20.5,21.5,22,19.4,22z M11.1,8C10.3,8,9,9.2,9,10.6c0,1.5,1.7,4.6,3.5,6.4
			l0,0c1.7,1.7,5.4,4,6.9,4c1.4,0,2.6-1,2.6-1.8v-1c-0.4-0.2-1.3-0.8-2.1-1.1c-0.4-0.2-1.3,0.6-1.7,1.1c-0.1,0.2-0.3,0.2-0.5,0.2
			c-0.1,0-2.4-0.7-3.8-2.2c-1.5-1.5-2.2-3.2-2.2-3.3c-0.1-0.2,0-0.4,0.2-0.6c0.8-0.6,1.6-1.6,1.4-2c-0.4-0.7-1.1-1.8-1.4-2.3H11.1z"
			/>
	</g>
</g>
</svg>
