<?xml version="1.0" encoding="iso-8859-1"?>
<!-- Generator: Adobe Illustrator 19.0.0, SVG Export Plug-In . SVG Version: 6.00 Build 0)  -->
<svg version="1.1" id="Layer_1" xmlns="http://www.w3.org/2000/svg" xmlns:xlink="http://www.w3.org/1999/xlink" x="0px" y="0px"
	 viewBox="0 0 24 24" style="enable-background:new 0 0 24 24;" xml:space="preserve">
<g>
	<g>
		<path d="M12.5,22.62c-0.671,0-1.342-0.255-1.854-0.767c-1.022-1.022-1.022-2.685,0-3.707l3.646-3.646H2.5
			C1.122,14.5,0,13.379,0,12s1.122-2.5,2.5-2.5h11.793l-3.646-3.646c-1.022-1.022-1.022-2.685,0-3.707
			c1.022-1.022,2.685-1.022,3.707,0l9.5,9.5c0.195,0.195,0.195,0.512,0,0.707l-9.5,9.5C13.842,22.365,13.171,22.62,12.5,22.62z
			 M2.5,10.5C1.673,10.5,1,11.173,1,12s0.673,1.5,1.5,1.5h13c0.202,0,0.385,0.122,0.462,0.309c0.078,0.187,0.035,0.402-0.108,0.545
			l-4.5,4.5c-0.306,0.306-0.475,0.713-0.475,1.146s0.169,0.84,0.475,1.146c0.632,0.632,1.661,0.632,2.293,0L22.793,12l-9.146-9.146
			c-0.632-0.632-1.661-0.632-2.293,0C11.047,3.16,10.878,3.567,10.878,4s0.169,0.84,0.475,1.146l4.5,4.5
			c0.143,0.143,0.186,0.358,0.108,0.545c-0.077,0.187-0.26,0.309-0.462,0.309H2.5z"/>
	</g>
</g>
<g>
</g>
<g>
</g>
<g>
</g>
<g>
</g>
<g>
</g>
<g>
</g>
<g>
</g>
<g>
</g>
<g>
</g>
<g>
</g>
<g>
</g>
<g>
</g>
<g>
</g>
<g>
</g>
<g>
</g>
</svg>
