<?xml version="1.0" encoding="iso-8859-1"?>
<!-- Generator: Adobe Illustrator 19.0.0, SVG Export Plug-In . SVG Version: 6.00 Build 0)  -->
<svg version="1.1" id="Layer_1" xmlns="http://www.w3.org/2000/svg" xmlns:xlink="http://www.w3.org/1999/xlink" x="0px" y="0px"
	 viewBox="0 0 24 24" style="enable-background:new 0 0 24 24;" xml:space="preserve">
<g>
	<g>
		<path d="M20.56,21.048h-14c-1.379,0-2.5-1.122-2.5-2.5s1.121-2.5,2.5-2.5h5.793L3.706,7.402l0,0c-1.021-1.022-1.021-2.685,0-3.707
			c0.99-0.99,2.717-0.99,3.707,0l8.646,8.646V6.548c0-1.378,1.121-2.5,2.5-2.5s2.5,1.122,2.5,2.5v14
			C21.06,20.824,20.836,21.048,20.56,21.048z M6.56,17.048c-0.827,0-1.5,0.673-1.5,1.5s0.673,1.5,1.5,1.5h13.5v-13.5
			c0-0.827-0.673-1.5-1.5-1.5s-1.5,0.673-1.5,1.5v7c0,0.202-0.122,0.385-0.309,0.462c-0.185,0.079-0.401,0.036-0.545-0.108l-9.5-9.5
			c-0.613-0.612-1.68-0.612-2.293,0c-0.632,0.632-0.632,1.661,0,2.293l9.5,9.5c0.143,0.143,0.186,0.358,0.108,0.545
			s-0.26,0.309-0.462,0.309H6.56z"/>
	</g>
</g>
<g>
</g>
<g>
</g>
<g>
</g>
<g>
</g>
<g>
</g>
<g>
</g>
<g>
</g>
<g>
</g>
<g>
</g>
<g>
</g>
<g>
</g>
<g>
</g>
<g>
</g>
<g>
</g>
<g>
</g>
</svg>
