<?xml version="1.0" encoding="iso-8859-1"?>
<!-- Generator: Adobe Illustrator 19.0.0, SVG Export Plug-In . SVG Version: 6.00 Build 0)  -->
<svg version="1.1" id="Layer_1" xmlns="http://www.w3.org/2000/svg" xmlns:xlink="http://www.w3.org/1999/xlink" x="0px" y="0px"
	 viewBox="0 0 24 24" style="enable-background:new 0 0 24 24;" xml:space="preserve">
<g>
	<g>
		<g>
			<path d="M16,17.5H7c-0.276,0-0.5-0.224-0.5-0.5V8c0-0.202,0.122-0.385,0.309-0.462C6.995,7.46,7.21,7.503,7.354,7.646L9.5,9.793
				l5.146-5.146c0.195-0.195,0.512-0.195,0.707,0l4,4c0.195,0.195,0.195,0.512,0,0.707L14.207,14.5l2.146,2.146
				c0.143,0.143,0.186,0.358,0.108,0.545S16.202,17.5,16,17.5z M7.5,16.5h7.293l-1.646-1.646c-0.195-0.195-0.195-0.512,0-0.707
				L18.293,9L15,5.707l-5.146,5.146c-0.195,0.195-0.512,0.195-0.707,0L7.5,9.207V16.5z"/>
		</g>
	</g>
	<g>
		<path d="M12,23.495c-2.945,0-5.89-1.121-8.132-3.363c-4.484-4.484-4.484-11.78,0-16.264c4.484-4.483,11.779-4.483,16.264,0l0,0
			c4.484,4.484,4.484,11.78,0,16.264C17.89,22.373,14.945,23.495,12,23.495z M12,1.505c-2.688,0-5.378,1.023-7.425,3.07
			c-4.094,4.094-4.094,10.755,0,14.85c4.094,4.093,10.756,4.093,14.85,0c4.094-4.094,4.094-10.755,0-14.85
			C17.378,2.528,14.688,1.505,12,1.505z"/>
	</g>
</g>
<g>
</g>
<g>
</g>
<g>
</g>
<g>
</g>
<g>
</g>
<g>
</g>
<g>
</g>
<g>
</g>
<g>
</g>
<g>
</g>
<g>
</g>
<g>
</g>
<g>
</g>
<g>
</g>
<g>
</g>
</svg>
