<?xml version="1.0" encoding="iso-8859-1"?>
<!-- Generator: Adobe Illustrator 19.0.0, SVG Export Plug-In . SVG Version: 6.00 Build 0)  -->
<svg version="1.1" id="Layer_1" xmlns="http://www.w3.org/2000/svg" xmlns:xlink="http://www.w3.org/1999/xlink" x="0px" y="0px"
	 viewBox="0 0 24 24" style="enable-background:new 0 0 24 24;" xml:space="preserve">
<g>
	<path d="M23.5,24h-16c-0.133,0-0.26-0.053-0.354-0.146l-7-7c-0.143-0.143-0.186-0.358-0.108-0.545C0.115,16.122,0.298,16,0.5,16H16
		V0.5c0-0.202,0.122-0.385,0.309-0.462c0.188-0.078,0.402-0.034,0.545,0.108l7,7C23.947,7.24,24,7.367,24,7.5v16
		C24,23.776,23.776,24,23.5,24z M7.707,23H23V7.707l-6-6V16.5c0,0.276-0.224,0.5-0.5,0.5H1.707L7.707,23z"/>
</g>
<g>
</g>
<g>
</g>
<g>
</g>
<g>
</g>
<g>
</g>
<g>
</g>
<g>
</g>
<g>
</g>
<g>
</g>
<g>
</g>
<g>
</g>
<g>
</g>
<g>
</g>
<g>
</g>
<g>
</g>
</svg>
