<?xml version="1.0" encoding="iso-8859-1"?>
<!-- Generator: Adobe Illustrator 19.0.0, SVG Export Plug-In . SVG Version: 6.00 Build 0)  -->
<svg version="1.1" id="Layer_1" xmlns="http://www.w3.org/2000/svg" xmlns:xlink="http://www.w3.org/1999/xlink" x="0px" y="0px"
	 viewBox="0 0 24 24" style="enable-background:new 0 0 24 24;" xml:space="preserve">
<g>
	<g>
		<path d="M12,23.5C5.659,23.5,0.5,18.341,0.5,12S5.659,0.5,12,0.5S23.5,5.659,23.5,12S18.341,23.5,12,23.5z M12,1.5
			C6.21,1.5,1.5,6.21,1.5,12S6.21,22.5,12,22.5S22.5,17.79,22.5,12S17.79,1.5,12,1.5z"/>
	</g>
	<g>
		<path d="M18,16.5H6c-0.18,0-0.346-0.097-0.435-0.253s-0.086-0.349,0.006-0.504l6-10c0.181-0.301,0.677-0.301,0.857,0l6,10
			c0.093,0.155,0.095,0.347,0.006,0.504S18.18,16.5,18,16.5z M6.883,15.5h10.233L12,6.972L6.883,15.5z"/>
	</g>
</g>
<g>
</g>
<g>
</g>
<g>
</g>
<g>
</g>
<g>
</g>
<g>
</g>
<g>
</g>
<g>
</g>
<g>
</g>
<g>
</g>
<g>
</g>
<g>
</g>
<g>
</g>
<g>
</g>
<g>
</g>
</svg>
