<?xml version="1.0" encoding="iso-8859-1"?>
<!-- Generator: Adobe Illustrator 19.0.0, SVG Export Plug-In . SVG Version: 6.00 Build 0)  -->
<svg version="1.1" id="Layer_1" xmlns="http://www.w3.org/2000/svg" xmlns:xlink="http://www.w3.org/1999/xlink" x="0px" y="0px"
	 viewBox="0 0 30 30" style="enable-background:new 0 0 30 30;" xml:space="preserve">
<g>
	<g>
		<path d="M26,4.5H4C2.07,4.5,0.5,6.07,0.5,8v14c0,1.93,1.57,3.5,3.5,3.5h22c1.93,0,3.5-1.57,3.5-3.5V8C29.5,6.07,27.93,4.5,26,4.5z
			 M9,14c0.276,0,0.5,0.224,0.5,0.5S9.276,15,9,15H7.5v1.5H10c0.276,0,0.5,0.224,0.5,0.5s-0.224,0.5-0.5,0.5H7
			c-0.276,0-0.5-0.224-0.5-0.5v-5c0-0.276,0.224-0.5,0.5-0.5h3c0.276,0,0.5,0.224,0.5,0.5s-0.224,0.5-0.5,0.5H7.5V14H9z
			 M14.499,17.5c-1.33,0-2.403-0.697-2.496-1.62c-0.028-0.275,0.173-0.52,0.447-0.548c0.284-0.02,0.521,0.173,0.548,0.447
			c0.034,0.341,0.659,0.721,1.501,0.721c0.846,0,1.501-0.403,1.501-0.75c0-0.234-0.256-0.553-1.476-0.74
			c-0.003,0-0.104-0.017-0.107-0.017C13.752,14.891,12,14.622,12,13.25c0-0.981,1.099-1.75,2.501-1.75
			c1.33,0,2.403,0.696,2.496,1.62c0.028,0.275-0.172,0.52-0.447,0.548c-0.275,0.027-0.52-0.172-0.548-0.447
			c-0.034-0.341-0.659-0.72-1.501-0.72c-0.859,0-1.501,0.396-1.501,0.75c0,0.234,0.256,0.553,1.479,0.741
			c0.003,0,0.104,0.017,0.107,0.017C15.25,14.111,17,14.379,17,15.752C17,16.731,15.901,17.5,14.499,17.5z M20.333,16.5h1.333
			c0.459,0,0.833-0.336,0.833-0.75c0-0.276,0.224-0.5,0.5-0.5s0.5,0.224,0.5,0.5c0,0.965-0.822,1.75-1.833,1.75h-1.333
			c-1.011,0-1.833-0.785-1.833-1.75v-2.5c0-0.965,0.822-1.75,1.833-1.75h1.333c1.011,0,1.833,0.785,1.833,1.75
			c0,0.276-0.224,0.5-0.5,0.5s-0.5-0.224-0.5-0.5c0-0.414-0.374-0.75-0.833-0.75h-1.333c-0.459,0-0.833,0.336-0.833,0.75v2.5
			C19.5,16.164,19.874,16.5,20.333,16.5z"/>
	</g>
</g>
</svg>
