<?xml version="1.0" encoding="utf-8"?>
<!-- Generator: Adobe Illustrator 19.0.0, SVG Export Plug-In . SVG Version: 6.00 Build 0)  -->
<svg version="1.1" id="Layer_1" xmlns="http://www.w3.org/2000/svg" xmlns:xlink="http://www.w3.org/1999/xlink" x="0px" y="0px"
	 viewBox="0 0 30 30" style="enable-background:new 0 0 30 30;" xml:space="preserve">
<path d="M29.5,26.5H17V26c0-0.3-0.2-0.5-0.5-0.5H16V25c0-0.3-0.2-0.5-0.5-0.5H15v-2h8.5c3.6,0,6.5-2.9,6.5-6.5
	c0-3.4-2.7-6.3-6.1-6.5c-0.7-4.6-4.7-8-9.4-8C9.3,1.5,5,5.8,5,11c0,0.2,0,0.3,0,0.5c-2.8,0.2-5,2.6-5,5.5c0,3,2.5,5.5,5.5,5.5H14v2
	h-0.5c-0.3,0-0.5,0.2-0.5,0.5v0.5h-0.5c-0.3,0-0.5,0.2-0.5,0.5v0.5H0.5C0.2,26.5,0,26.7,0,27s0.2,0.5,0.5,0.5H12V28
	c0,0.3,0.2,0.5,0.5,0.5h4c0.3,0,0.5-0.2,0.5-0.5v-0.5h12.5c0.3,0,0.5-0.2,0.5-0.5S29.8,26.5,29.5,26.5z"/>
</svg>
