<?xml version="1.0" encoding="utf-8"?>
<!-- Generator: Adobe Illustrator 19.0.0, SVG Export Plug-In . SVG Version: 6.00 Build 0)  -->
<svg version="1.1" id="Layer_1" xmlns="http://www.w3.org/2000/svg" xmlns:xlink="http://www.w3.org/1999/xlink" x="0px" y="0px"
	 viewBox="0 0 30 30" style="enable-background:new 0 0 30 30;" xml:space="preserve">
<g>
	<circle cx="13.8" cy="21" r="3"/>
	<path d="M22.9,12.8c0.1,0.1,0.2,0.1,0.4,0.1s0.3,0,0.4-0.1c0.2-0.2,0.2-0.5,0-0.7C21,9.5,17.5,8,13.8,8C10,8,6.5,9.5,3.9,12.1
		c-0.2,0.2-0.2,0.5,0,0.7s0.5,0.2,0.7,0C7,10.3,10.3,9,13.8,9C17.2,9,20.5,10.3,22.9,12.8z"/>
	<path d="M26.5,9.3c0.1,0.1,0.2,0.1,0.4,0.1s0.3,0,0.4-0.1c0.2-0.2,0.2-0.5,0-0.7c-7.4-7.4-19.5-7.4-26.9,0c-0.2,0.2-0.2,0.5,0,0.7
		s0.5,0.2,0.7,0C8,2.2,19.5,2.2,26.5,9.3z"/>
	<path d="M23.3,14c-1.5,0-2.8,0.5-3.9,1.3c-1.5-1.5-3.5-2.3-5.6-2.3c-2.1,0-4.1,0.8-5.7,2.3c-0.2,0.2-0.2,0.5,0,0.7
		c0.2,0.2,0.5,0.2,0.7,0c1.3-1.3,3.1-2.1,4.9-2.1c1.8,0,3.6,0.7,4.9,2c-1.1,1.2-1.8,2.8-1.8,4.5c0,3.6,2.9,6.5,6.5,6.5
		s6.5-2.9,6.5-6.5S26.9,14,23.3,14z M23.7,23.8c-0.1,0.1-0.2,0.2-0.4,0.2s-0.3-0.1-0.4-0.2c-0.1-0.1-0.1-0.2-0.1-0.3
		s0.1-0.3,0.1-0.3c0.2-0.2,0.5-0.2,0.7,0c0.1,0.1,0.2,0.2,0.2,0.4C23.8,23.6,23.8,23.8,23.7,23.8z M23.8,21.5c0,0.3-0.2,0.5-0.5,0.5
		s-0.5-0.2-0.5-0.5v-5c0-0.3,0.2-0.5,0.5-0.5s0.5,0.2,0.5,0.5V21.5z"/>
</g>
</svg>
