<?xml version="1.0" encoding="utf-8"?>
<!-- Generator: Adobe Illustrator 19.0.0, SVG Export Plug-In . SVG Version: 6.00 Build 0)  -->
<svg version="1.1" id="Layer_1" xmlns="http://www.w3.org/2000/svg" xmlns:xlink="http://www.w3.org/1999/xlink" x="0px" y="0px"
	 viewBox="0 0 30 30" style="enable-background:new 0 0 30 30;" xml:space="preserve">
<g>
	<g>
		<path d="M16.4,22.6h-4c-0.3,0-0.5-0.2-0.5-0.5s0.2-0.5,0.5-0.5h4c0.3,0,0.5,0.2,0.5,0.5S16.7,22.6,16.4,22.6z"/>
	</g>
	<g>
		<path d="M14.4,24.6c-0.3,0-0.5-0.2-0.5-0.5v-4c0-0.3,0.2-0.5,0.5-0.5s0.5,0.2,0.5,0.5v4C14.9,24.4,14.7,24.6,14.4,24.6z"/>
	</g>
	<g>
		<path d="M23,22.6h-0.7c-0.3,0-0.5-0.2-0.5-0.5s0.2-0.5,0.5-0.5H23c3.2,0,5.8-2.6,5.8-5.8S26.3,10,23,10c-0.3,0-0.6-0.2-0.6-0.4
			c-0.6-4-4.1-7.1-8.2-7.1C9.7,2.5,6,6.1,6,10.8C6,11.2,6,11.5,6,12C6,12,6,12.3,6,12.4s-0.3,0.2-0.4,0.2H5.5C3,12.5,1,14.5,1,17
			s2,4.5,4.5,4.5h1C6.8,21.5,7,21.7,7,22s-0.2,0.5-0.5,0.5h-1C2.4,22.5,0,20,0,17c0-2.9,2.2-5.2,5.1-5.5c0-0.3,0-0.5,0-0.8
			c0-5.1,4.2-9.3,9.3-9.3c4.5,0,8.3,3.2,9.2,7.5C27.1,9.1,30,12,30,15.6C29.9,19.6,26.8,22.6,23,22.6z"/>
	</g>
	<g>
		<path d="M14.4,28.6c-3.6,0-6.5-2.9-6.5-6.5s2.9-6.5,6.5-6.5s6.5,2.9,6.5,6.5S18,28.6,14.4,28.6z M14.4,16.6c-3,0-5.5,2.5-5.5,5.5
			s2.5,5.5,5.5,5.5s5.5-2.5,5.5-5.5S17.4,16.6,14.4,16.6z"/>
	</g>
</g>
</svg>
