<?xml version="1.0" encoding="utf-8"?>
<!-- Generator: Adobe Illustrator 19.0.0, SVG Export Plug-In . SVG Version: 6.00 Build 0)  -->
<svg version="1.1" id="Layer_1" xmlns="http://www.w3.org/2000/svg" xmlns:xlink="http://www.w3.org/1999/xlink" x="0px" y="0px"
	 viewBox="0 0 30 30" style="enable-background:new 0 0 30 30;" xml:space="preserve">
<g>
	<g>
		<g>
			<path d="M25.8,30H4.2c-1.9,0-3.5-1.6-3.5-3.5S2.3,23,4.2,23h21.5c1.9,0,3.5,1.6,3.5,3.5S27.7,30,25.8,30z M4.2,24
				c-1.4,0-2.5,1.1-2.5,2.5S2.9,29,4.2,29h21.5c1.4,0,2.5-1.1,2.5-2.5S27.1,24,25.8,24H4.2z"/>
		</g>
		<g>
			<path d="M4.8,27c-0.3,0-0.5-0.2-0.5-0.5S4.5,26,4.8,26h0c0.3,0,0.5,0.2,0.5,0.5S5,27,4.8,27z"/>
		</g>
		<g>
			<path d="M6.8,27c-0.3,0-0.5-0.2-0.5-0.5S6.5,26,6.8,26h0c0.3,0,0.5,0.2,0.5,0.5S7,27,6.8,27z"/>
		</g>
		<g>
			<path d="M25.8,24H4.2c-1.9,0-3.5-1.6-3.5-3.5S2.3,17,4.2,17h21.5c1.9,0,3.5,1.6,3.5,3.5S27.7,24,25.8,24z M4.2,18
				c-1.4,0-2.5,1.1-2.5,2.5S2.9,23,4.2,23h21.5c1.4,0,2.5-1.1,2.5-2.5S27.1,18,25.8,18H4.2z"/>
		</g>
		<g>
			<path d="M4.8,21c-0.3,0-0.5-0.2-0.5-0.5S4.5,20,4.8,20h0c0.3,0,0.5,0.2,0.5,0.5S5.1,21,4.8,21z"/>
		</g>
		<g>
			<path d="M6.8,21c-0.3,0-0.5-0.2-0.5-0.5S6.5,20,6.8,20h0c0.3,0,0.5,0.2,0.5,0.5S7,21,6.8,21z"/>
		</g>
		<g>
			<circle cx="26.3" cy="26" r="1"/>
		</g>
		<g>
			<circle cx="26.3" cy="20" r="1"/>
		</g>
	</g>
	<g>
		<path d="M21.3,15H9.2c-2.2,0-4-1.8-4-4c0-2,1.5-3.7,3.5-4c0-0.1,0-0.2,0-0.2c0-3.8,3-6.8,6.7-6.8c3,0,5.6,2,6.4,4.9
			c2.5,0.3,4.4,2.4,4.4,5C26.3,12.7,24,15,21.3,15z M9.2,8c-1.6,0-2.9,1.3-2.9,3c0,1.7,1.3,3,3,3h12.1c2.2,0,4-1.8,4-4.1
			c0-2.2-1.7-3.9-3.8-4c-0.2,0-0.4-0.2-0.5-0.4C20.4,2.9,18.1,1,15.4,1c-3.1,0-5.7,2.6-5.7,5.8c0,0.2,0,0.4,0,0.6
			c0,0.2,0,0.3-0.1,0.4S9.3,8,9.2,8C9.2,8,9.2,8,9.2,8z"/>
	</g>
</g>
</svg>
