<?xml version="1.0" encoding="iso-8859-1"?>
<!-- Generator: Adobe Illustrator 19.0.0, SVG Export Plug-In . SVG Version: 6.00 Build 0)  -->
<svg version="1.1" id="Layer_1" xmlns="http://www.w3.org/2000/svg" xmlns:xlink="http://www.w3.org/1999/xlink" x="0px" y="0px"
	 viewBox="0 0 24 24" style="enable-background:new 0 0 24 24;" xml:space="preserve">
<g>
	<g>
		<path d="M17,20h-0.171c-0.208-0.502-0.642-1.61-1.036-3h0.205c0.827,0,1.5-0.673,1.5-1.5s-0.673-1.5-1.5-1.5h-0.849
			c-0.1-0.715-0.151-1.386-0.151-2c0-0.051-0.015-0.098-0.029-0.145C15.9,11.03,16.5,9.839,16.5,8.5c0-2.184-3.285-6.708-4-7.667
			V0.5C12.5,0.224,12.276,0,12,0s-0.5,0.224-0.5,0.5v0.333c-0.715,0.959-4,5.484-4,7.667c0,1.338,0.599,2.529,1.53,3.354
			C9.015,11.901,9,11.948,9,12c0,0.614-0.051,1.285-0.151,2H8c-0.827,0-1.5,0.673-1.5,1.5S7.173,17,8,17h0.205
			c-0.393,1.387-0.828,2.497-1.036,3H7c-1.378,0-2.5,1.122-2.5,2.5C4.5,23.327,5.173,24,6,24h12c0.827,0,1.5-0.673,1.5-1.5
			C19.5,21.122,18.378,20,17,20z M8.5,8.5c0-1.495,2.248-4.922,3.5-6.657c1.252,1.735,3.5,5.16,3.5,6.657c0,1.93-1.57,3.5-3.5,3.5
			S8.5,10.43,8.5,8.5z M7.999,16c-0.276,0-0.5-0.224-0.5-0.5s0.224-0.5,0.5-0.5h1.279c0.245,0,0.454-0.177,0.494-0.419
			c0.121-0.741,0.18-1.43,0.205-2.084C10.588,12.808,11.269,13,12,13c0.73,0,1.411-0.192,2.021-0.502
			c0.025,0.654,0.084,1.343,0.205,2.083C14.266,14.822,14.475,15,14.72,15h1.279c0.276,0,0.5,0.224,0.5,0.5s-0.224,0.5-0.5,0.5
			H8.858c0,0,0,0-0.001,0H7.999z M15.751,20H8.247c0.257-0.655,0.643-1.729,0.99-3h5.524C15.107,18.27,15.493,19.345,15.751,20z
			 M18,23H6c-0.276,0-0.5-0.224-0.5-0.5C5.5,21.673,6.173,21,7,21h10c0.827,0,1.5,0.673,1.5,1.5C18.5,22.776,18.276,23,18,23z"/>
	</g>
</g>
</svg>
