<?xml version="1.0" encoding="iso-8859-1"?>
<!-- Generator: Adobe Illustrator 19.0.0, SVG Export Plug-In . SVG Version: 6.00 Build 0)  -->
<svg version="1.1" id="Layer_1" xmlns="http://www.w3.org/2000/svg" xmlns:xlink="http://www.w3.org/1999/xlink" x="0px" y="0px"
	 viewBox="0 0 24 24" style="enable-background:new 0 0 24 24;" xml:space="preserve">
<g>
	<path d="M5.5,5C5.224,5,5,4.776,5,4.5v-4C5,0.224,5.224,0,5.5,0S6,0.224,6,0.5v4C6,4.776,5.776,5,5.5,5z"/>
	<path d="M18.5,5C18.224,5,18,4.776,18,4.5v-4C18,0.224,18.224,0,18.5,0S19,0.224,19,0.5v4C19,4.776,18.776,5,18.5,5z"/>
	<g>
		<path d="M24,8V5.5C24,3.57,22.43,2,20.5,2H20v2.5C20,5.327,19.327,6,18.5,6S17,5.327,17,4.5V2H7v2.5C7,5.327,6.327,6,5.5,6
			S4,5.327,4,4.5V2H3.5C1.57,2,0,3.57,0,5.5V8H24z"/>
		<path d="M0,9v11.5C0,22.43,1.57,24,3.5,24h17c1.93,0,3.5-1.57,3.5-3.5V9H0z M12,19c0,1.654-1.346,3-3,3s-3-1.346-3-3
			c0-0.276,0.224-0.5,0.5-0.5S7,18.724,7,19c0,1.103,0.897,2,2,2s2-0.897,2-2s-0.897-2-2-2H7.5C7.224,17,7,16.776,7,16.5
			S7.224,16,7.5,16H9c1.103,0,2-0.897,2-2s-0.897-2-2-2s-2,0.897-2,2c0,0.276-0.224,0.5-0.5,0.5S6,14.276,6,14c0-1.654,1.346-3,3-3
			s3,1.346,3,3c0,1.042-0.534,1.962-1.343,2.5C11.466,17.038,12,17.958,12,19z M17,21.5c0,0.276-0.224,0.5-0.5,0.5
			S16,21.776,16,21.5v-8.793l-1.146,1.146c-0.195,0.195-0.512,0.195-0.707,0s-0.195-0.512,0-0.707l2-2
			c0.144-0.143,0.357-0.186,0.545-0.108C16.878,11.115,17,11.298,17,11.5V21.5z"/>
	</g>
</g>
<g>
</g>
<g>
</g>
<g>
</g>
<g>
</g>
<g>
</g>
<g>
</g>
<g>
</g>
<g>
</g>
<g>
</g>
<g>
</g>
<g>
</g>
<g>
</g>
<g>
</g>
<g>
</g>
<g>
</g>
</svg>
