<?xml version="1.0" encoding="iso-8859-1"?>
<!-- Generator: Adobe Illustrator 19.0.0, SVG Export Plug-In . SVG Version: 6.00 Build 0)  -->
<svg version="1.1" id="Layer_1" xmlns="http://www.w3.org/2000/svg" xmlns:xlink="http://www.w3.org/1999/xlink" x="0px" y="0px"
	 viewBox="0 0 24 24" style="enable-background:new 0 0 24 24;" xml:space="preserve">
<g>
	<g>
		<path d="M20.5,18H8.959c-1.662,0-3.106-1.183-3.432-2.813L3.09,3H0.5C0.224,3,0,2.776,0,2.5S0.224,2,0.5,2h3
			c0.238,0,0.443,0.168,0.49,0.402L6.508,14.99C6.741,16.155,7.772,17,8.959,17H20.5c0.276,0,0.5,0.224,0.5,0.5S20.776,18,20.5,18z"
			/>
	</g>
	<g>
		<circle cx="18.5" cy="21.5" r="2.5"/>
		<circle cx="8.5" cy="21.5" r="2.5"/>
		<path d="M21.964,11.307c-0.152-0.116-0.358-0.135-0.528-0.049c-0.422,0.212-0.868,0.422-1.36,0.627
			c-0.367,0.153-0.786,0.153-1.153,0C15.703,10.543,14,9.026,14,7.5v-2C14,5.224,13.776,5,13.5,5h-9C4.351,5,4.21,5.067,4.115,5.181
			S3.981,5.446,4.009,5.592l1.5,8C5.553,13.829,5.759,14,6,14h13.734c1.258,0,2.325-0.941,2.48-2.19
			C22.237,11.633,22.106,11.415,21.964,11.307z"/>
	</g>
	<path d="M23.621,1.015l-4-1c-0.079-0.021-0.163-0.021-0.242,0l-4,1C15.156,1.071,15,1.271,15,1.5v6
		c0,1.547,3.297,3.041,4.308,3.461C19.369,10.987,19.435,11,19.5,11s0.131-0.013,0.192-0.039C20.703,10.541,24,9.047,24,7.5v-6
		C24,1.271,23.844,1.071,23.621,1.015z M22,7.085c0,0.142-0.06,0.276-0.165,0.372c-0.393,0.354-1.203,0.85-2.115,1.296
		c-0.069,0.034-0.145,0.051-0.22,0.051c-0.092,0-0.184-0.025-0.265-0.076C19.089,8.637,19,8.476,19,8.304V6h-1.5
		C17.224,6,17,5.776,17,5.5V3.062c0-0.229,0.156-0.429,0.379-0.485l2-0.5c0.148-0.04,0.307-0.004,0.429,0.091
		C19.929,2.262,20,2.408,20,2.562V5h1.5C21.776,5,22,5.224,22,5.5V7.085z"/>
</g>
<g>
</g>
<g>
</g>
<g>
</g>
<g>
</g>
<g>
</g>
<g>
</g>
<g>
</g>
<g>
</g>
<g>
</g>
<g>
</g>
<g>
</g>
<g>
</g>
<g>
</g>
<g>
</g>
<g>
</g>
</svg>
