<?xml version="1.0" encoding="iso-8859-1"?>
<!-- Generator: Adobe Illustrator 19.0.0, SVG Export Plug-In . SVG Version: 6.00 Build 0)  -->
<svg version="1.1" id="Layer_1" xmlns="http://www.w3.org/2000/svg" xmlns:xlink="http://www.w3.org/1999/xlink" x="0px" y="0px"
	 viewBox="0 0 24 24" style="enable-background:new 0 0 24 24;" xml:space="preserve">
<g>
	<path d="M18.33,8.947L6.633,3.315C5.9,2.963,4.961,3.302,4.62,4.038L2.458,8.722c-0.341,0.739-0.021,1.627,0.712,1.98l11.697,5.632
		c0.205,0.099,0.424,0.148,0.65,0.148c0.583,0,1.117-0.342,1.362-0.872l2.162-4.684C19.383,10.188,19.063,9.3,18.33,8.947z"/>
	<g>
		<path d="M8.5,20.825h-8c-0.276,0-0.5-0.224-0.5-0.5s0.224-0.5,0.5-0.5H8v-3.5c0-0.276,0.224-0.5,0.5-0.5s0.5,0.224,0.5,0.5v4
			C9,20.601,8.776,20.825,8.5,20.825z"/>
	</g>
	<path d="M23.724,11.877l-1-0.5c-0.118-0.059-0.255-0.069-0.382-0.027l-1.326,0.442l-2.33-0.932
		c-0.255-0.103-0.547,0.022-0.649,0.279c-0.097,0.243,0.013,0.511,0.243,0.627l-1.059,2.117c-0.229-0.114-0.514-0.041-0.649,0.184
		c-0.143,0.237-0.065,0.544,0.172,0.686l2.341,1.405l0.441,1.325c0.042,0.125,0.133,0.229,0.251,0.289l1,0.5
		c0.07,0.035,0.146,0.053,0.224,0.053c0.057,0,0.112-0.009,0.167-0.029c0.128-0.045,0.232-0.141,0.288-0.264l2.5-5.5
		C24.066,12.287,23.964,11.998,23.724,11.877z"/>
	<path d="M10.83,13.432c-0.099-0.258-0.385-0.387-0.646-0.289c-0.124,0.048-0.216,0.141-0.27,0.252L8.35,12.641
		c0.053-0.111,0.068-0.24,0.029-0.366c-0.083-0.263-0.362-0.409-0.627-0.327C6.704,12.279,6,13.234,6,14.325
		c0,1.378,1.121,2.5,2.5,2.5s2.5-1.122,2.5-2.5C11,14.027,10.943,13.727,10.83,13.432z M8.5,14.825c-0.276,0-0.5-0.224-0.5-0.5
		c0-0.276,0.224-0.5,0.5-0.5s0.5,0.224,0.5,0.5C9,14.601,8.776,14.825,8.5,14.825z"/>
</g>
<g>
</g>
<g>
</g>
<g>
</g>
<g>
</g>
<g>
</g>
<g>
</g>
<g>
</g>
<g>
</g>
<g>
</g>
<g>
</g>
<g>
</g>
<g>
</g>
<g>
</g>
<g>
</g>
<g>
</g>
</svg>
