<?xml version="1.0" encoding="iso-8859-1"?>
<!-- Generator: Adobe Illustrator 19.0.0, SVG Export Plug-In . SVG Version: 6.00 Build 0)  -->
<svg version="1.1" id="Layer_1" xmlns="http://www.w3.org/2000/svg" xmlns:xlink="http://www.w3.org/1999/xlink" x="0px" y="0px"
	 viewBox="0 0 24 24" style="enable-background:new 0 0 24 24;" xml:space="preserve">
<g>
	<g>
		<path d="M23.5,10c0.276,0,0.5-0.224,0.5-0.5S23.776,9,23.5,9h-1.493V6H23.5C23.776,6,24,5.776,24,5.5S23.776,5,23.5,5h-1.493
			V4.007c0-1.103-0.897-2-2-2H19V0.5C19,0.224,18.776,0,18.5,0S18,0.224,18,0.5v1.507h-3V0.5C15,0.224,14.776,0,14.5,0
			S14,0.224,14,0.5v1.507h-4V0.5C10,0.224,9.776,0,9.5,0S9,0.224,9,0.5v1.507H6V0.5C6,0.224,5.776,0,5.5,0S5,0.224,5,0.5v1.507
			H4.007c-1.103,0-2,0.897-2,2V5H0.5C0.224,5,0,5.224,0,5.5S0.224,6,0.5,6h1.507v3H0.5C0.224,9,0,9.224,0,9.5S0.224,10,0.5,10h1.507
			v4H0.5C0.224,14,0,14.224,0,14.5S0.224,15,0.5,15h1.507v3H0.5C0.224,18,0,18.224,0,18.5S0.224,19,0.5,19h1.507v1.007
			c0,1.103,0.897,2,2,2H5V23.5C5,23.776,5.224,24,5.5,24S6,23.776,6,23.5v-1.493h3V23.5C9,23.776,9.224,24,9.5,24s0.5-0.224,0.5-0.5
			v-1.493h4V23.5c0,0.276,0.224,0.5,0.5,0.5s0.5-0.224,0.5-0.5v-1.493h3V23.5c0,0.276,0.224,0.5,0.5,0.5s0.5-0.224,0.5-0.5v-1.493
			h1.007c1.103,0,2-0.897,2-2V19H23.5c0.276,0,0.5-0.224,0.5-0.5S23.776,18,23.5,18h-1.493v-3H23.5c0.276,0,0.5-0.224,0.5-0.5
			S23.776,14,23.5,14h-1.493v-4H23.5z M20,19.5c0,0.276-0.224,0.5-0.5,0.5h-15C4.224,20,4,19.776,4,19.5v-15C4,4.224,4.224,4,4.5,4
			h12c0.133,0,0.26,0.053,0.354,0.146l3,3C19.947,7.24,20,7.367,20,7.5V19.5z M5,5v14h14V7.707L16.293,5H5z M18,12.5
			c0,0.276-0.224,0.5-0.5,0.5h-1.191l-0.862,1.724c-0.096,0.193-0.306,0.301-0.521,0.271c-0.214-0.032-0.383-0.199-0.419-0.413
			l-0.605-3.628l-1.417,5.667C12.429,16.844,12.229,17,12,17s-0.429-0.156-0.485-0.379l-1.111-4.442l-0.936,2.497
			C9.398,14.862,9.224,14.989,9.026,15c-0.196,0.02-0.385-0.098-0.474-0.276L7.691,13H6.5C6.224,13,6,12.776,6,12.5S6.224,12,6.5,12
			H8c0.189,0,0.362,0.107,0.447,0.276l0.487,0.975l1.097-2.927c0.077-0.204,0.279-0.337,0.497-0.323
			c0.219,0.012,0.404,0.166,0.457,0.378L12,14.439l1.515-6.06c0.057-0.229,0.258-0.405,0.505-0.378
			c0.237,0.009,0.434,0.184,0.473,0.417l0.747,4.483l0.313-0.625C15.638,12.107,15.811,12,16,12h1.5C17.776,12,18,12.224,18,12.5z"
			/>
	</g>
</g>
</svg>
