<?xml version="1.0" encoding="iso-8859-1"?>
<!-- Generator: Adobe Illustrator 19.0.0, SVG Export Plug-In . SVG Version: 6.00 Build 0)  -->
<svg version="1.1" id="Layer_1" xmlns="http://www.w3.org/2000/svg" xmlns:xlink="http://www.w3.org/1999/xlink" x="0px" y="0px"
	 viewBox="0 0 30 30" style="enable-background:new 0 0 30 30;" xml:space="preserve">
<g>
	<g>
		<path d="M26,16.5c0.276,0,0.5-0.224,0.5-0.5s-0.224-0.5-0.5-0.5H16c-0.276,0-0.5,0.224-0.5,0.5v13c0,0.276,0.224,0.5,0.5,0.5h10
			c0.276,0,0.5-0.224,0.5-0.5s-0.224-0.5-0.5-0.5h-9.5v-5H25c0.276,0,0.5-0.224,0.5-0.5s-0.224-0.5-0.5-0.5h-8.5v-6H26z M13,12.5
			H3.5V1c0-0.276-0.224-0.5-0.5-0.5S2.5,0.724,2.5,1v12c0,0.276,0.224,0.5,0.5,0.5h10c0.276,0,0.5-0.224,0.5-0.5
			S13.276,12.5,13,12.5z M13.178,15.534c-0.258-0.098-0.547,0.03-0.646,0.287L7.999,27.608L3.466,15.821
			c-0.099-0.257-0.388-0.385-0.646-0.287c-0.257,0.099-0.386,0.388-0.287,0.646l5,13C7.607,29.373,7.793,29.5,8,29.5
			c0.207,0,0.393-0.127,0.465-0.32l5-13C13.564,15.923,13.435,15.633,13.178,15.534z M20.63,13.336
			C20.725,13.44,20.859,13.5,21,13.5s0.275-0.06,0.37-0.164c0.156-0.172,3.827-4.217,5.024-5.679
			C27.118,6.772,27.5,5.755,27.5,4.714c0-2.323-1.746-4.214-3.891-4.214C22.634,0.5,21.71,0.89,21,1.587
			C20.289,0.89,19.365,0.5,18.391,0.5c-2.145,0-3.891,1.891-3.891,4.214c0,1.041,0.382,2.058,1.107,2.944
			C16.803,9.12,20.474,13.165,20.63,13.336z M18.391,1.5c0.853,0,1.659,0.417,2.211,1.144c0.19,0.249,0.608,0.249,0.797,0
			C21.95,1.917,22.756,1.5,23.609,1.5c1.594,0,2.891,1.442,2.891,3.213c0,1.02-0.479,1.819-0.88,2.31
			c-0.96,1.173-3.635,4.142-4.62,5.231c-0.986-1.089-3.66-4.057-4.62-5.23c-0.401-0.491-0.88-1.29-0.88-2.31
			C15.5,2.942,16.797,1.5,18.391,1.5z"/>
	</g>
</g>
</svg>
