<?xml version="1.0" encoding="iso-8859-1"?>
<!-- Generator: Adobe Illustrator 19.0.0, SVG Export Plug-In . SVG Version: 6.00 Build 0)  -->
<svg version="1.1" id="Layer_1" xmlns="http://www.w3.org/2000/svg" xmlns:xlink="http://www.w3.org/1999/xlink" x="0px" y="0px"
	 viewBox="0 0 30 30" style="enable-background:new 0 0 30 30;" xml:space="preserve">
<g>
	<g>
		<path d="M16.24,18c-0.641,0-1.252,0.237-1.739,0.664C14.014,18.237,13.404,18,12.762,18c-1.523,0-2.761,1.335-2.761,2.976
			c0,0.733,0.267,1.447,0.775,2.068c0.8,0.978,3.25,3.678,3.354,3.792C14.225,26.94,14.359,27,14.5,27s0.275-0.06,0.372-0.165
			c0.103-0.114,2.553-2.813,3.354-3.792c0.507-0.62,0.775-1.335,0.775-2.067C19.001,19.335,17.762,18,16.24,18z M17.451,22.41
			c-0.601,0.735-2.218,2.533-2.951,3.345c-0.733-0.811-2.349-2.61-2.951-3.344C11.299,22.104,11,21.606,11,20.976
			C11,19.886,11.79,19,12.761,19c0.515,0,1.005,0.254,1.34,0.697c0.19,0.249,0.608,0.249,0.797,0C15.234,19.254,15.723,19,16.239,19
			C17.21,19,18,19.886,18,20.976C18,21.606,17.701,22.104,17.451,22.41z M28.5,18c-1.93,0-3.5-1.57-3.5-3.5
			c0-0.276-0.224-0.5-0.5-0.5h-20C4.224,14,4,14.224,4,14.5C4,16.43,2.43,18,0.5,18C0.224,18,0,18.224,0,18.5v7
			C0,25.776,0.224,26,0.5,26C2.43,26,4,27.57,4,29.5C4,29.776,4.224,30,4.5,30h20c0.276,0,0.5-0.224,0.5-0.5
			c0-1.93,1.57-3.5,3.5-3.5c0.276,0,0.5-0.224,0.5-0.5v-7C29,18.224,28.776,18,28.5,18z M28.001,25.028
			c-2.083,0.231-3.742,1.889-3.973,3.972H4.973C4.741,26.917,3.083,25.259,1,25.028v-6.056C3.083,18.741,4.742,17.083,4.973,15
			h19.055c0.232,2.082,1.89,3.741,3.973,3.972V25.028z M18.722,8.66l0.12,0.111c1.083,0.992,1.166,2.329,1.157,3.726
			c-0.002,0.276,0.221,0.502,0.497,0.503h0.003c0.274,0,0.498-0.222,0.501-0.498c0.01-1.567-0.097-3.202-1.487-4.474
			C19.5,8.017,19.43,7.95,19.417,7.94c-1.494-1.365-3.629-1.102-4.749-0.075c-0.504,0.461-0.786,1.092-0.811,1.79
			c-0.776-0.013-1.438,0.202-1.924,0.648c-0.602,0.549-0.942,1.351-0.933,2.201c0.003,0.274,0.226,0.495,0.5,0.495h0.005
			c0.276-0.003,0.498-0.229,0.495-0.505c-0.006-0.566,0.215-1.096,0.607-1.454c0.378-0.346,0.936-0.459,1.713-0.343
			c0.163,0.021,0.32-0.031,0.433-0.146c0.113-0.115,0.162-0.277,0.134-0.436c-0.108-0.608,0.054-1.145,0.455-1.512
			C16.141,7.873,17.666,7.696,18.722,8.66z M28.829,8.279c0-0.935,0.364-1.814,1.025-2.475C29.947,5.71,30,5.583,30,5.45
			c0-0.133-0.052-0.26-0.146-0.354l-4.95-4.95c-0.187-0.188-0.519-0.188-0.707,0c-1.322,1.322-3.627,1.322-4.949,0
			C19.154,0.053,19.027,0,18.894,0c-0.133,0-0.26,0.052-0.354,0.146l-12,12c-0.195,0.195-0.195,0.512,0,0.707
			c0.195,0.195,0.512,0.195,0.707,0L18.913,1.187c1.588,1.274,4.029,1.274,5.617,0l4.282,4.281
			c-0.637,0.795-0.984,1.775-0.984,2.809c0,1.035,0.346,2.015,0.984,2.81l-2.666,2.666c-0.195,0.195-0.195,0.512,0,0.707
			c0.098,0.097,0.226,0.146,0.354,0.146s0.256-0.048,0.354-0.144l3-3C29.947,11.368,30,11.241,30,11.108
			c0-0.133-0.052-0.26-0.146-0.354C29.193,10.093,28.829,9.214,28.829,8.279z"/>
	</g>
</g>
</svg>
