<?xml version="1.0" encoding="utf-8"?>
<!-- Generator: Adobe Illustrator 19.0.0, SVG Export Plug-In . SVG Version: 6.00 Build 0)  -->
<svg version="1.1" id="Layer_1" xmlns="http://www.w3.org/2000/svg" xmlns:xlink="http://www.w3.org/1999/xlink" x="0px" y="0px"
	 viewBox="0 0 30 30" style="enable-background:new 0 0 30 30;" xml:space="preserve">
<g>
	<path d="M23.7,8.8c-1.1-4.2-4.8-7-9.2-7C9.3,1.8,5,6,5,11.3c0,0.2,0,0.3,0,0.5c-2.8,0.2-5,2.6-5,5.5c0,3,2.5,5.5,5.5,5.5H8
		c0,0,0,0,0,0c0.3,0,0.5-0.2,0.5-0.5c0-0.2-0.1-0.3-0.2-0.4l-2-2.7c-0.3-0.5-0.4-1.1-0.1-1.6c0.3-0.5,0.8-0.8,1.3-0.8h2.7
		c0.2,0,0.4-0.1,0.5-0.3l1.5-3.3c0.2-0.5,0.8-0.9,1.4-0.9s1.1,0.3,1.4,0.9l1.5,3.3c0.1,0.2,0.3,0.3,0.5,0.3H20
		c0.6,0,1.1,0.3,1.4,0.9c0.2,0.5,0.2,1.2-0.2,1.6l-2.3,2.7c-0.1,0.1-0.2,0.4-0.1,0.5c0.1,0.2,0.3,0.3,0.5,0.3H23c3.9,0,7-3.1,7-7
		C30,12.1,27.3,9.1,23.7,8.8z"/>
	<path d="M20.4,18.6c0.1-0.1,0.2-0.4,0.1-0.5s-0.3-0.3-0.5-0.3h-4.2L14,13.5c-0.2-0.4-0.8-0.4-0.9,0l-1.9,4.2H7.5
		c-0.2,0-0.4,0.1-0.4,0.3c-0.1,0.2-0.1,0.4,0,0.5l2.9,3.8l-1.4,5.3c-0.1,0.2,0,0.4,0.2,0.5c0.2,0.1,0.4,0.1,0.6,0l4.3-2.4l4.3,2.4
		c0.1,0,0.2,0.1,0.2,0.1c0.1,0,0.2,0,0.3-0.1c0.2-0.1,0.2-0.3,0.2-0.5l-1.4-5.2L20.4,18.6z"/>
</g>
</svg>
