<?xml version="1.0" encoding="utf-8"?>
<!-- Generator: Adobe Illustrator 19.0.0, SVG Export Plug-In . SVG Version: 6.00 Build 0)  -->
<svg version="1.1" id="Layer_1" xmlns="http://www.w3.org/2000/svg" xmlns:xlink="http://www.w3.org/1999/xlink" x="0px" y="0px"
	 viewBox="0 0 30 30" style="enable-background:new 0 0 30 30;" xml:space="preserve">
<g>
	<path d="M23.7,8.5c-1.1-4.2-4.8-7-9.2-7C9.3,1.5,5,5.8,5,11c0,0.2,0,0.3,0,0.5c-2.8,0.2-5,2.6-5,5.5c0,3,2.5,5.5,5.5,5.5h1
		C6.8,22.5,7,22.3,7,22c0-4.1,3.4-7.5,7.5-7.5S22,17.9,22,22c0,0.3,0.2,0.5,0.5,0.5H23c3.9,0,7-3.1,7-7C30,11.9,27.3,8.9,23.7,8.5z"
		/>
	<path d="M14.5,15.5C10.9,15.5,8,18.4,8,22s2.9,6.5,6.5,6.5S21,25.6,21,22S18.1,15.5,14.5,15.5z M16.5,22.5h-4
		c-0.3,0-0.5-0.2-0.5-0.5s0.2-0.5,0.5-0.5h4c0.3,0,0.5,0.2,0.5,0.5S16.8,22.5,16.5,22.5z"/>
</g>
</svg>
