<?xml version="1.0" encoding="utf-8"?>
<!-- Generator: Adobe Illustrator 19.0.0, SVG Export Plug-In . SVG Version: 6.00 Build 0)  -->
<svg version="1.1" id="Layer_1" xmlns="http://www.w3.org/2000/svg" xmlns:xlink="http://www.w3.org/1999/xlink" x="0px" y="0px"
	 viewBox="0 0 30 30" style="enable-background:new 0 0 30 30;" xml:space="preserve">
<path d="M29.5,2.5H17V1c0-0.2-0.1-0.3-0.2-0.4s-0.3-0.1-0.4-0.1l-16,4C0.2,4.6,0,4.8,0,5v21c0,0.2,0.2,0.4,0.4,0.5l16,3h0.1
	c0.1,0,0.2,0,0.3-0.1c0.1-0.1,0.2-0.2,0.2-0.4v-1.5h12.5c0.3,0,0.5-0.2,0.5-0.5V3C30,2.7,29.8,2.5,29.5,2.5z M14,11.2l-3,9
	c-0.1,0.2-0.3,0.3-0.5,0.3l0,0c-0.2,0-0.4-0.2-0.5-0.4l-1.5-5.5c-0.1-0.4-0.8-0.4-1,0L6,20.1c-0.1,0.2-0.2,0.4-0.5,0.4
	s-0.4-0.2-0.4-0.3l-3-9c-0.1-0.3,0.1-0.5,0.3-0.6c0.1,0,0.1,0,0.2,0c0.2,0,0.4,0.1,0.5,0.3l2,5.9c0.1,0.2,0.3,0.3,0.5,0.3
	s0.4-0.2,0.5-0.4l1.6-5.8c0.1-0.4,0.8-0.4,1,0l1.6,5.8c0.1,0.2,0.2,0.4,0.5,0.4c0.2,0,0.4-0.1,0.5-0.3l2-5.9
	c0.1-0.3,0.4-0.4,0.6-0.3C13.9,10.6,14.1,10.9,14,11.2z M29,26.5H17v-3h9.5c0.3,0,0.5-0.2,0.5-0.5s-0.2-0.5-0.5-0.5H17v-3h9.5
	c0.3,0,0.5-0.2,0.5-0.5s-0.2-0.5-0.5-0.5H17v-3h9.5c0.3,0,0.5-0.2,0.5-0.5s-0.2-0.5-0.5-0.5H17v-3h9.5c0.3,0,0.5-0.2,0.5-0.5
	s-0.2-0.5-0.5-0.5H17v-3h9.5C26.8,7.5,27,7.3,27,7s-0.2-0.5-0.5-0.5H17v-3h12V26.5z"/>
</svg>
