<?xml version="1.0" encoding="iso-8859-1"?>
<!-- Generator: Adobe Illustrator 19.2.1, SVG Export Plug-In . SVG Version: 6.00 Build 0)  -->
<svg version="1.1" id="Layer_1" xmlns="http://www.w3.org/2000/svg" xmlns:xlink="http://www.w3.org/1999/xlink" x="0px" y="0px"
	 viewBox="0 0 24 24" style="enable-background:new 0 0 24 24;" xml:space="preserve">
<g>
	<g>
		<path d="M12.5,17.5h-1c-1.654,0-3-1.346-3-3v-5c0-0.091,0.019-0.177,0.027-0.266L3.535,4.242C1.657,6.29,0.5,9.009,0.5,12
			c0,6.341,5.159,11.5,11.5,11.5c2.991,0,5.71-1.157,7.758-3.035l-4.601-4.601C14.659,16.831,13.661,17.5,12.5,17.5z M12.5,16.5
			c0.891,0,1.639-0.59,1.897-1.396L9.5,10.207V14.5c0,1.103,0.897,2,2,2H12.5z M12,0.499c-2.991,0-5.71,1.157-7.758,3.035
			l4.602,4.602C9.342,7.169,10.339,6.5,11.5,6.5h1c1.654,0,3,1.346,3,3V10c0,0.276-0.224,0.5-0.5,0.5s-0.5-0.224-0.5-0.5V9.5
			c0-1.103-0.897-2-2-2h-1c-0.891,0-1.639,0.59-1.897,1.396l4.931,4.931c0.071-0.19,0.25-0.328,0.465-0.328
			c0.276,0,0.5,0.224,0.5,0.5v0.5c0,0.091-0.019,0.177-0.027,0.266l4.992,4.992c1.878-2.048,3.035-4.767,3.035-7.758
			C23.5,5.658,18.341,0.499,12,0.499z"/>
	</g>
</g>
</svg>
