<?xml version="1.0" encoding="iso-8859-1"?>
<!-- Generator: Adobe Illustrator 19.2.1, SVG Export Plug-In . SVG Version: 6.00 Build 0)  -->
<svg version="1.1" id="Layer_1" xmlns="http://www.w3.org/2000/svg" xmlns:xlink="http://www.w3.org/1999/xlink" x="0px" y="0px"
	 viewBox="0 0 24 24" style="enable-background:new 0 0 24 24;" xml:space="preserve">
<g>
	<g>
		<path d="M12,18.5c0-3.208,2.395-5.97,5.571-6.425C17.818,12.039,18,11.828,18,11.58V0.5C18,0.224,17.776,0,17.5,0h-11
			C6.479,0,6.459,0.01,6.438,0.013C6.414,0.016,6.394,0.02,6.372,0.026c-0.086,0.023-0.165,0.06-0.226,0.121L0.147,6.146
			C0.086,6.207,0.049,6.287,0.026,6.373c-0.006,0.021-0.01,0.04-0.013,0.062C0.009,6.457,0,6.477,0,6.5v15C0,21.776,0.224,22,0.5,22
			h11.683c0.172,0,0.331-0.088,0.423-0.233c0.092-0.145,0.103-0.327,0.028-0.482C12.214,20.4,12,19.463,12,18.5z M6,6H1.708L6,1.707
			V6z M17,17.5c0,0.003,0.015,0.243,1,0.422v-0.874C17.36,17.146,17,17.4,17,17.5z M19,19.078v0.873c0.664-0.103,1-0.371,1-0.451
			C20,19.498,19.985,19.257,19,19.078z M18.5,13c-3.032,0-5.5,2.467-5.5,5.5s2.468,5.5,5.5,5.5s5.5-2.467,5.5-5.5S21.532,13,18.5,13
			z M19,20.971V21.5c0,0.276-0.224,0.5-0.5,0.5S18,21.776,18,21.5v-0.528c-1.097-0.123-1.907-0.651-1.996-1.346
			c-0.035-0.274,0.159-0.524,0.433-0.559c0.271-0.035,0.524,0.159,0.56,0.433c0.015,0.116,0.383,0.359,1.004,0.454v-1.02
			c-0.817-0.127-2-0.434-2-1.435c0-0.751,0.831-1.34,2-1.471v-0.529c0-0.276,0.224-0.5,0.5-0.5s0.5,0.224,0.5,0.5v0.528
			c1.097,0.123,1.907,0.651,1.996,1.345c0.035,0.274-0.159,0.524-0.433,0.559c-0.272,0.028-0.524-0.159-0.56-0.433
			C19.99,17.382,19.622,17.14,19,17.045v1.019c0.817,0.128,2,0.435,2,1.435C21,20.252,20.169,20.84,19,20.971z"/>
	</g>
</g>
</svg>
