<?xml version="1.0" encoding="iso-8859-1"?>
<!-- Generator: Adobe Illustrator 19.2.1, SVG Export Plug-In . SVG Version: 6.00 Build 0)  -->
<svg version="1.1" id="Layer_1" xmlns="http://www.w3.org/2000/svg" xmlns:xlink="http://www.w3.org/1999/xlink" x="0px" y="0px"
	 viewBox="0 0 24 24" style="enable-background:new 0 0 24 24;" xml:space="preserve">
<g>
	<g>
		<path d="M13,8.5h-2.5v4H13c0.827,0,1.5-0.673,1.5-1.5v-1C14.5,9.173,13.827,8.5,13,8.5z M12,0.5C5.659,0.5,0.5,5.659,0.5,12
			S5.659,23.5,12,23.5S23.5,18.341,23.5,12S18.341,0.5,12,0.5z M15.5,11c0,1.378-1.121,2.5-2.5,2.5h-2.5V16
			c0,0.276-0.224,0.5-0.5,0.5S9.5,16.276,9.5,16V8c0-0.276,0.224-0.5,0.5-0.5h3c1.379,0,2.5,1.122,2.5,2.5V11z"/>
	</g>
</g>
</svg>
