<?xml version="1.0" encoding="iso-8859-1"?>
<!-- Generator: Adobe Illustrator 19.0.0, SVG Export Plug-In . SVG Version: 6.00 Build 0)  -->
<svg version="1.1" id="Layer_1" xmlns="http://www.w3.org/2000/svg" xmlns:xlink="http://www.w3.org/1999/xlink" x="0px" y="0px"
	 viewBox="0 0 24 24" style="enable-background:new 0 0 24 24;" xml:space="preserve">
<g>
	<g>
		<path d="M21.328,7.108c-1.366-1.187-3.563-1.354-5.438-1.215c0.681-0.777,2.065-1.564,3.257-1.93
			c0.231-0.071,0.379-0.298,0.35-0.538S19.271,3,19.029,2.986l-0.228-0.013c-2.014-0.115-3.393-0.194-4.443,0.5
			c-0.201-0.674-0.587-1.176-0.964-1.667c-0.338-0.44-0.687-0.895-0.929-1.505c-0.152-0.381-0.779-0.381-0.93,0
			c-0.242,0.61-0.591,1.065-0.929,1.505c-0.377,0.49-0.763,0.992-0.964,1.667C8.593,2.78,7.214,2.858,5.2,2.973L4.971,2.986
			C4.731,3,4.533,3.185,4.504,3.425s0.119,0.467,0.35,0.538C6.046,4.329,7.43,5.116,8.11,5.893C6.238,5.757,4.038,5.922,2.672,7.108
			C2.528,7.233,2.468,7.429,2.517,7.614c0.05,0.184,0.199,0.325,0.386,0.362C3.174,8.03,3.669,8.093,4.273,8.17
			c0.992,0.126,2.265,0.289,3.283,0.507c-0.435,0.365-0.849,0.766-1.21,1.237C6.344,9.916,6.343,9.916,6.342,9.918
			c-0.986,1.287-1.601,2.857-1.78,4.541c0,0.002,0.001,0.003,0.001,0.005c-0.036,0.335-0.06,0.673-0.06,1.02
			c0,0.344,0.023,0.68,0.058,1.013c0,0.001,0.001,0.002,0.002,0.004c0.176,1.683,0.79,3.254,1.773,4.542
			c0.997,1.304,2.3,2.223,3.77,2.657c0.001,0,0.001,0.001,0.002,0.001c0.637,0.189,1.274,0.284,1.895,0.284
			c0.618,0,1.253-0.096,1.887-0.283c0.006-0.002,0.013-0.001,0.019-0.003c1.461-0.436,2.757-1.349,3.75-2.643
			c0.001-0.001,0.003-0.002,0.004-0.003c0.992-1.295,1.609-2.875,1.784-4.569c0.034-0.329,0.056-0.661,0.056-0.999
			c0-0.344-0.023-0.68-0.058-1.013v-0.001c-0.178-1.692-0.797-3.271-1.79-4.563c-0.001-0.001-0.003-0.002-0.004-0.003
			c-0.359-0.468-0.77-0.866-1.202-1.229c1.016-0.218,2.286-0.379,3.276-0.505c0.605-0.077,1.102-0.141,1.373-0.195
			c0.187-0.037,0.337-0.178,0.386-0.362C21.532,7.429,21.472,7.233,21.328,7.108z M10.124,8.314l1.18,1.18l-2.292,2.293
			l-1.598-1.598C8.171,9.311,9.098,8.671,10.124,8.314z M11.995,16.185l2.292,2.293l-2.276,2.276l-2.292-2.292L11.995,16.185z
			 M9.01,17.753l-2.277-2.277L9.01,13.2l2.277,2.277L9.01,17.753z M12.702,15.477l2.293-2.292l2.293,2.293l-2.292,2.293
			L12.702,15.477z M11.995,14.77l-2.277-2.276l2.293-2.293l2.276,2.277L11.995,14.77z M11.263,8.038
			c0.504-0.072,0.99-0.071,1.494,0.002l-0.746,0.746L11.263,8.038z M6.805,10.995l1.498,1.498L6.027,14.77l-0.441-0.441
			C5.749,13.115,6.166,11.977,6.805,10.995z M6.799,19.966c-0.639-0.984-1.055-2.124-1.216-3.338l0.443-0.443l1.137,1.137l1.14,1.14
			L6.799,19.966z M7.405,20.774l1.605-1.605l2.292,2.293l-1.19,1.19C9.088,22.294,8.162,21.651,7.405,20.774z M11.25,22.93
			l0.761-0.761l0.759,0.759C12.258,23.003,11.762,23.004,11.25,22.93z M13.905,22.649l-1.187-1.187l1.14-1.14l1.137-1.137
			l1.598,1.598C15.841,21.652,14.922,22.291,13.905,22.649z M17.201,19.976l-1.499-1.499l2.293-2.292l0.43,0.43
			C18.264,17.838,17.845,18.985,17.201,19.976z M17.194,10.985c0.646,0.988,1.066,2.135,1.229,3.357l-0.428,0.428l-2.293-2.293
			L17.194,10.985z M16.585,10.179l-1.59,1.591l-2.277-2.277l1.175-1.176C14.911,8.674,15.831,9.31,16.585,10.179z M15.363,7.918
			c-0.467-0.266-0.951-0.497-1.465-0.649c-0.001,0-0.002-0.001-0.003-0.002c-1.266-0.374-2.502-0.377-3.775-0.004
			c-0.003,0.001-0.004,0.003-0.006,0.004C9.597,7.42,9.111,7.652,8.641,7.92C7.54,7.585,5.844,7.361,4.551,7.197
			c1.428-0.476,3.257-0.361,4.386-0.216C9.099,7,9.26,6.943,9.371,6.822c0.11-0.121,0.154-0.287,0.118-0.446
			C9.272,5.401,8.253,4.529,7.153,3.894c1.189,0.002,1.895,0.19,2.456,0.901c0.133,0.168,0.356,0.234,0.557,0.163
			c0.201-0.07,0.336-0.259,0.336-0.472c0-0.9,0.397-1.417,0.899-2.071c0.195-0.254,0.404-0.525,0.601-0.838
			c0.197,0.312,0.406,0.584,0.601,0.838c0.503,0.654,0.899,1.171,0.899,2.071c0,0.213,0.135,0.402,0.336,0.472
			s0.425,0.004,0.557-0.163c0.561-0.711,1.266-0.899,2.456-0.901c-1.099,0.634-2.118,1.506-2.336,2.482
			c-0.036,0.159,0.008,0.325,0.118,0.446c0.11,0.12,0.273,0.178,0.433,0.159c1.13-0.144,2.957-0.26,4.386,0.216
			C18.16,7.361,16.465,7.584,15.363,7.918z"/>
	</g>
</g>
</svg>
