<?xml version="1.0" encoding="iso-8859-1"?>
<!-- Generator: Adobe Illustrator 19.0.0, SVG Export Plug-In . SVG Version: 6.00 Build 0)  -->
<svg version="1.1" id="Layer_1" xmlns="http://www.w3.org/2000/svg" xmlns:xlink="http://www.w3.org/1999/xlink" x="0px" y="0px"
	 viewBox="0 0 24 24" style="enable-background:new 0 0 24 24;" xml:space="preserve">
<g>
	<g>
		<path d="M8.015,7.5c-2.439,0-3.531,2.762-3.531,5.5c0,0.276,0.224,0.5,0.5,0.5s0.5-0.224,0.5-0.5c0-2.24,0.782-4.5,2.531-4.5
			c0.276,0,0.5-0.224,0.5-0.5S8.291,7.5,8.015,7.5z M15.983,5.5c-0.084,0-0.159,0.014-0.24,0.019
			c1.059-1.008,1.772-2.52,1.772-4.519c0-0.276-0.224-0.5-0.5-0.5c-2.029,0-4.075,1.139-4.995,3.337
			c-0.401-1.216-0.978-2.148-1.489-2.956l-0.094-0.148C10.291,0.499,9.98,0.43,9.748,0.577C9.514,0.724,9.445,1.033,9.592,1.266
			l0.094,0.149c0.793,1.256,1.675,2.679,1.803,5.039c-0.286-0.074-0.589-0.193-0.922-0.33C9.851,5.833,9.037,5.5,8.016,5.5
			c-3.308,0-5.531,3.014-5.531,7.5c0,4.228,3.162,10.5,7.531,10.5c0.797,0,1.157-0.185,1.447-0.333
			c0.183-0.094,0.296-0.152,0.537-0.165c0.241,0.013,0.354,0.071,0.537,0.165c0.289,0.148,0.65,0.333,1.447,0.333
			c4.368,0,7.531-6.272,7.53-10.5C21.514,8.514,19.292,5.5,15.983,5.5z M16.496,1.53c-0.209,2.809-2.072,4.222-3.962,4.44
			C12.743,3.161,14.606,1.748,16.496,1.53z M13.983,22.499c-0.555,0-0.758-0.103-0.991-0.223c-0.224-0.115-0.503-0.257-0.987-0.276
			c-0.031-0.001-0.06,0-0.09,0.004c-0.437,0.03-0.698,0.163-0.91,0.272c-0.233,0.119-0.435,0.223-0.991,0.223
			c-3.456,0-6.531-5.312-6.531-9.5c0-3.888,1.821-6.5,4.531-6.5c0.825,0,1.51,0.28,2.173,0.551c0.604,0.247,1.174,0.48,1.796,0.48
			h0.027c0.002,0,0.003,0.001,0.005,0.001c0.003,0,0.006-0.002,0.009-0.002c0.618-0.003,1.185-0.234,1.786-0.479
			c0.663-0.271,1.348-0.551,2.173-0.551c2.71,0,4.531,2.612,4.531,6.5C20.514,17.186,17.439,22.499,13.983,22.499z"/>
	</g>
</g>
</svg>
