<?xml version="1.0" encoding="iso-8859-1"?>
<!-- Generator: Adobe Illustrator 19.0.0, SVG Export Plug-In . SVG Version: 6.00 Build 0)  -->
<svg version="1.1" id="Layer_1" xmlns="http://www.w3.org/2000/svg" xmlns:xlink="http://www.w3.org/1999/xlink" x="0px" y="0px"
	 viewBox="0 0 24 24" style="enable-background:new 0 0 24 24;" xml:space="preserve">
<g>
	<g>
		<path d="M11.499,13.05l0.003-0.805c0.016-2.179,0.031-4.237-0.982-5.588C10.23,6.271,9.789,6.05,9.309,6.05
			c-0.48,0-0.921,0.221-1.21,0.607c-1.017,1.357-1.6,3.687-1.6,6.393s0.583,5.037,1.6,6.393c0.289,0.385,0.73,0.607,1.211,0.607
			c0.48,0,0.921-0.221,1.211-0.607c1.013-1.351,0.998-3.409,0.982-5.588L11.499,13.05z M10.503,13.862
			c0.014,2.005,0.028,3.9-0.782,4.981C9.623,18.974,9.473,19.05,9.31,19.05c-0.162,0-0.312-0.076-0.41-0.207
			c-0.877-1.17-1.4-3.335-1.4-5.793s0.523-4.623,1.4-5.793C8.998,7.126,9.148,7.05,9.31,7.05s0.312,0.076,0.411,0.207
			c0.81,1.081,0.797,2.976,0.782,4.981l-0.004,0.812L10.503,13.862z M14.688,6.05c-0.48,0-0.921,0.221-1.211,0.607
			c-1.013,1.351-0.998,3.409-0.982,5.588l0.004,0.805l-0.004,0.805c-0.016,2.179-0.031,4.237,0.982,5.588
			c0.29,0.386,0.731,0.607,1.211,0.607c0.481,0,0.922-0.222,1.211-0.607c1.017-1.357,1.6-3.687,1.6-6.393s-0.583-5.037-1.6-6.393
			C15.61,6.272,15.168,6.05,14.688,6.05z M15.099,18.843c-0.197,0.263-0.624,0.262-0.822,0c-0.81-1.081-0.797-2.976-0.782-4.981
			l0.004-0.812l-0.004-0.812c-0.014-2.005-0.028-3.9,0.782-4.981c0.098-0.131,0.248-0.207,0.411-0.207
			c0.163,0,0.312,0.076,0.411,0.207c0.877,1.17,1.4,3.335,1.4,5.793S15.975,17.673,15.099,18.843z M19.967,14.823
			c0.021-0.134,0.196-0.354,0.35-0.547c0.273-0.344,0.583-0.732,0.583-1.227s-0.31-0.883-0.583-1.226
			c-0.155-0.194-0.329-0.413-0.35-0.548c-0.023-0.151,0.082-0.422,0.175-0.661c0.155-0.402,0.331-0.856,0.188-1.312
			c-0.148-0.474-0.562-0.751-0.928-0.996c-0.205-0.138-0.437-0.293-0.498-0.416c-0.068-0.137-0.053-0.427-0.04-0.683
			c0.023-0.432,0.048-0.92-0.234-1.309c-0.297-0.408-0.786-0.534-1.217-0.645c-0.237-0.061-0.505-0.13-0.603-0.223
			c-0.113-0.106-0.203-0.38-0.284-0.622C16.387,3.99,16.23,3.515,15.81,3.261c-0.445-0.269-0.954-0.179-1.405-0.098
			c-0.236,0.043-0.503,0.09-0.637,0.05c-0.142-0.042-0.344-0.23-0.523-0.396c-0.219-0.204-0.463-0.415-0.746-0.545V0.55
			c0-0.276-0.224-0.5-0.5-0.5s-0.5,0.224-0.5,0.5v1.724c-0.281,0.131-0.523,0.341-0.741,0.543c-0.179,0.165-0.381,0.353-0.523,0.396
			c-0.134,0.039-0.4-0.008-0.637-0.05C9.148,3.082,8.639,2.991,8.193,3.26C7.774,3.514,7.616,3.989,7.477,4.407
			c-0.08,0.242-0.172,0.516-0.284,0.622C7.094,5.122,6.825,5.191,6.589,5.252C6.158,5.364,5.669,5.49,5.372,5.898
			C5.09,6.286,5.116,6.775,5.138,7.207c0.013,0.256,0.028,0.546-0.04,0.683c-0.062,0.123-0.294,0.279-0.5,0.417
			C4.233,8.552,3.818,8.83,3.67,9.303c-0.144,0.456,0.033,0.91,0.188,1.311c0.092,0.239,0.197,0.51,0.175,0.661
			c-0.021,0.134-0.196,0.354-0.35,0.547C3.41,12.166,3.1,12.554,3.1,13.049s0.31,0.883,0.583,1.226
			c0.155,0.194,0.329,0.413,0.35,0.548c0.023,0.151-0.082,0.422-0.175,0.661c-0.155,0.402-0.331,0.856-0.188,1.312
			c0.148,0.474,0.562,0.751,0.928,0.996c0.205,0.138,0.437,0.293,0.498,0.416c0.068,0.137,0.053,0.427,0.04,0.683
			c-0.023,0.432-0.048,0.92,0.234,1.309c0.297,0.408,0.786,0.534,1.217,0.645c0.237,0.061,0.505,0.13,0.603,0.223
			c0.113,0.106,0.203,0.38,0.284,0.622c0.139,0.418,0.296,0.893,0.716,1.147c0.444,0.269,0.954,0.179,1.405,0.098
			c0.236-0.042,0.505-0.088,0.637-0.05c0.142,0.042,0.344,0.23,0.523,0.396c0.338,0.314,0.722,0.669,1.244,0.669
			c0.522,0,0.905-0.356,1.243-0.669c0.179-0.165,0.381-0.353,0.523-0.396c0.134-0.038,0.4,0.008,0.637,0.05
			c0.451,0.082,0.96,0.173,1.405-0.097c0.419-0.254,0.577-0.729,0.716-1.147c0.08-0.242,0.172-0.516,0.284-0.622
			c0.099-0.093,0.368-0.162,0.604-0.223c0.431-0.112,0.92-0.238,1.217-0.646c0.282-0.388,0.256-0.877,0.234-1.309
			c-0.013-0.256-0.028-0.546,0.04-0.683c0.062-0.123,0.294-0.279,0.5-0.417c0.365-0.245,0.78-0.523,0.928-0.996
			c0.144-0.456-0.033-0.91-0.188-1.311C20.05,15.245,19.945,14.974,19.967,14.823z M19.535,13.651
			c-0.232,0.292-0.496,0.622-0.556,1.021c-0.063,0.414,0.093,0.817,0.231,1.172c0.091,0.236,0.205,0.529,0.167,0.651
			c-0.043,0.137-0.314,0.318-0.531,0.464c-0.309,0.207-0.658,0.442-0.838,0.802c-0.185,0.372-0.163,0.802-0.143,1.181
			c0.013,0.239,0.03,0.566-0.044,0.668c-0.086,0.118-0.404,0.2-0.659,0.266c-0.354,0.091-0.754,0.194-1.041,0.465
			c-0.295,0.279-0.428,0.679-0.546,1.033c-0.077,0.23-0.181,0.544-0.286,0.607c-0.121,0.075-0.447,0.017-0.71-0.031
			c-0.364-0.065-0.739-0.131-1.102-0.023c-0.364,0.11-0.657,0.381-0.915,0.621c-0.183,0.17-0.434,0.402-0.563,0.402
			c-0.13,0-0.381-0.233-0.564-0.402c-0.258-0.24-0.551-0.511-0.915-0.621c-0.139-0.042-0.28-0.058-0.422-0.058
			c-0.227,0-0.456,0.041-0.68,0.081c-0.261,0.047-0.587,0.105-0.71,0.031c-0.104-0.063-0.209-0.377-0.285-0.606
			c-0.117-0.353-0.25-0.754-0.546-1.034c-0.287-0.27-0.687-0.373-1.04-0.464c-0.256-0.066-0.574-0.148-0.659-0.265
			c-0.073-0.102-0.056-0.429-0.044-0.668c0.02-0.379,0.043-0.809-0.143-1.181c-0.178-0.36-0.528-0.594-0.837-0.801
			c-0.217-0.145-0.487-0.326-0.53-0.463c-0.038-0.122,0.076-0.415,0.167-0.651c0.138-0.356,0.294-0.759,0.231-1.172
			c-0.06-0.399-0.324-0.729-0.556-1.021c-0.162-0.204-0.365-0.458-0.365-0.603s0.202-0.399,0.365-0.603
			c0.232-0.292,0.496-0.622,0.556-1.021c0.063-0.414-0.093-0.817-0.231-1.172C4.7,10.02,4.586,9.727,4.624,9.605
			c0.043-0.137,0.314-0.318,0.531-0.464c0.309-0.207,0.658-0.442,0.838-0.802c0.185-0.372,0.163-0.802,0.143-1.181
			C6.123,6.919,6.106,6.592,6.18,6.49c0.086-0.118,0.404-0.2,0.659-0.266C7.193,6.133,7.593,6.03,7.88,5.759
			C8.175,5.48,8.308,5.08,8.426,4.726c0.077-0.23,0.181-0.544,0.286-0.607c0.122-0.073,0.447-0.016,0.71,0.031
			c0.364,0.066,0.74,0.133,1.102,0.023c0.364-0.11,0.657-0.381,0.915-0.621c0.183-0.17,0.434-0.402,0.563-0.402
			c0.13,0,0.381,0.233,0.564,0.402c0.258,0.24,0.551,0.511,0.915,0.621c0.362,0.109,0.738,0.042,1.102-0.023
			c0.262-0.046,0.589-0.104,0.71-0.031c0.104,0.063,0.209,0.377,0.285,0.606c0.117,0.353,0.25,0.754,0.546,1.034
			c0.287,0.27,0.687,0.373,1.04,0.464c0.256,0.066,0.574,0.148,0.659,0.265c0.073,0.102,0.056,0.429,0.044,0.668
			c-0.02,0.379-0.043,0.809,0.143,1.181c0.178,0.36,0.528,0.594,0.837,0.801c0.217,0.145,0.487,0.326,0.53,0.463
			c0.038,0.122-0.076,0.415-0.167,0.651c-0.138,0.356-0.294,0.759-0.231,1.172c0.06,0.399,0.324,0.729,0.556,1.021
			c0.162,0.204,0.365,0.458,0.365,0.603C19.9,13.193,19.698,13.447,19.535,13.651z"/>
	</g>
</g>
</svg>
