<?xml version="1.0" encoding="iso-8859-1"?>
<!-- Generator: Adobe Illustrator 19.0.0, SVG Export Plug-In . SVG Version: 6.00 Build 0)  -->
<svg version="1.1" id="Layer_1" xmlns="http://www.w3.org/2000/svg" xmlns:xlink="http://www.w3.org/1999/xlink" x="0px" y="0px"
	 viewBox="0 0 24 24" style="enable-background:new 0 0 24 24;" xml:space="preserve">
<g>
	<g>
		<path d="M22.658,11.361c-0.139-0.071-0.233-0.202-0.264-0.369C21.702,7.291,17.233,4.5,12,4.5c-4.944,0-9.263,2.504-10.269,5.954
			c-0.029,0.098-0.104,0.275-0.285,0.357C0.845,11.083,0.5,11.517,0.5,12c0,0.483,0.345,0.917,0.945,1.189
			c0.182,0.083,0.257,0.26,0.286,0.358C2.737,16.996,7.056,19.5,12,19.5c4.685,0,8.84-2.241,10.106-5.45
			c0.031-0.08,0.107-0.223,0.258-0.279c0.722-0.267,1.136-0.73,1.136-1.271C23.5,12.235,23.391,11.734,22.658,11.361z
			 M22.015,12.833c-0.377,0.14-0.683,0.449-0.841,0.849c-1.118,2.837-4.891,4.817-9.175,4.817c-4.51,0-8.425-2.2-9.309-5.233
			c-0.13-0.446-0.434-0.807-0.832-0.988C1.565,12.146,1.499,12.018,1.499,12s0.067-0.146,0.36-0.279
			c0.398-0.181,0.702-0.541,0.832-0.988C3.576,7.701,7.491,5.5,12,5.5c4.76,0,8.806,2.44,9.41,5.674
			c0.088,0.472,0.377,0.865,0.792,1.076c0.242,0.124,0.297,0.234,0.297,0.249C22.499,12.533,22.383,12.696,22.015,12.833z
			 M12.001,6.5c-3.02,0-5.846,1.074-7.375,2.804C4.442,9.511,4.462,9.827,4.669,10.01C4.764,10.093,4.882,10.135,5,10.135
			c0.138,0,0.275-0.057,0.375-0.169C6.7,8.468,9.301,7.5,12.001,7.5c0.276,0,0.5-0.224,0.5-0.5S12.277,6.5,12.001,6.5z"/>
	</g>
</g>
</svg>
