<?xml version="1.0" encoding="iso-8859-1"?>
<!-- Generator: Adobe Illustrator 19.0.0, SVG Export Plug-In . SVG Version: 6.00 Build 0)  -->
<svg version="1.1" id="Layer_1" xmlns="http://www.w3.org/2000/svg" xmlns:xlink="http://www.w3.org/1999/xlink" x="0px" y="0px"
	 viewBox="0 0 24 24" style="enable-background:new 0 0 24 24;" xml:space="preserve">
<g>
	<g>
		<path d="M11.5,7h0.006C11.782,6.997,12.003,6.77,12,6.494c-0.027-2.165,0.797-4.716,2.698-5.535
			c0.254-0.109,0.37-0.404,0.261-0.657c-0.109-0.254-0.404-0.371-0.657-0.261c-2.043,0.88-3.34,3.418-3.302,6.465
			C11.003,6.78,11.227,7,11.5,7z M11.631,11.017c-0.083-0.022-0.169-0.023-0.252-0.002C11.282,11.039,9,11.648,9,15
			s2.282,3.961,2.379,3.985C11.418,18.995,11.459,19,11.5,19c0.038,0,0.075-0.004,0.112-0.014C11.709,18.964,14,18.4,14,14.999
			C14,11.696,11.728,11.043,11.631,11.017z M11.505,17.973C11.125,17.813,10,17.159,10,15c0-2.146,1.112-2.805,1.495-2.969
			C11.885,12.204,13,12.884,13,15C13,17.189,11.878,17.823,11.505,17.973z M14,7c-0.072,0-0.143,0.014-0.216,0.016
			C13.716,7.012,13.648,7,13.579,7c-0.074,0-0.143,0.018-0.207,0.047c-0.549,0.046-1.094,0.13-1.622,0.295
			c-0.491-0.153-0.995-0.235-1.504-0.286C10.179,7.023,10.106,7,10.026,7c-0.088,0-0.173,0.014-0.26,0.02C9.677,7.017,9.589,7,9.5,7
			C5.224,7,2,10.654,2,15.5S5.224,24,9.5,24c0.089,0,0.177-0.017,0.266-0.02C9.853,23.987,9.938,24,10.026,24
			c0.08,0,0.153-0.023,0.22-0.056c0.509-0.05,1.013-0.133,1.504-0.286c0.529,0.164,1.073,0.249,1.622,0.295
			C13.436,23.982,13.505,24,13.579,24c0.069,0,0.137-0.012,0.205-0.016C13.857,23.986,13.928,24,14,24c4.411,0,8-3.813,8-8.5
			S18.411,7,14,7z M3.001,15.5c0-3.266,1.632-5.912,4.054-6.983C5.786,10.013,5,12.503,5,15.5c0,2.997,0.785,5.487,2.054,6.983
			C4.633,21.412,3.001,18.766,3.001,15.5z M13.783,22.983c-0.636-0.021-1.266-0.12-1.874-0.323
			c-0.052-0.017-0.105-0.026-0.159-0.026s-0.107,0.009-0.158,0.026c-0.589,0.197-1.2,0.293-1.818,0.319C7.606,22.75,6,19.617,6,15.5
			c0-4.117,1.607-7.25,3.775-7.478c0.617,0.026,1.228,0.121,1.817,0.319c0.102,0.034,0.214,0.034,0.317,0
			c0.607-0.203,1.238-0.302,1.874-0.323C16.126,8.201,18,11.481,18,15.5C18,19.519,16.126,22.8,13.783,22.983z M16.726,22.408
			C18.1,20.865,19,18.347,19,15.5s-0.9-5.364-2.274-6.908C19.235,9.733,21,12.4,21,15.5S19.235,21.267,16.726,22.408z M9.5,6
			C9.776,6,10,5.776,10,5.5C10,2.767,8.111,0,4.5,0C4.224,0,4,0.224,4,0.5C4,3.233,5.889,6,9.5,6z M8.972,4.976
			C6.48,4.748,5.223,2.898,5.027,1.023C7.52,1.252,8.776,3.101,8.972,4.976z"/>
	</g>
</g>
</svg>
