<?xml version="1.0" encoding="iso-8859-1"?>
<!-- Generator: Adobe Illustrator 19.0.0, SVG Export Plug-In . SVG Version: 6.00 Build 0)  -->
<svg version="1.1" id="Layer_1" xmlns="http://www.w3.org/2000/svg" xmlns:xlink="http://www.w3.org/1999/xlink" x="0px" y="0px"
	 viewBox="0 0 24 24" style="enable-background:new 0 0 24 24;" xml:space="preserve">
<g>
	<g>
		<path d="M20.5,14.001c0-1.285-0.979-2.334-2.227-2.472c0.143-0.314,0.227-0.661,0.227-1.028c0-1.378-1.122-2.5-2.5-2.5
			c-0.034,0-0.066,0.009-0.099,0.01C17.583,6.95,18.5,5.067,18.5,2.501c0-0.276-0.224-0.5-0.5-0.5c-2.599,0-4.369,1.145-5.399,2.716
			c0.269-2.515,0.855-4.008,0.863-4.029c0.079-0.197,0.026-0.422-0.133-0.562c-0.158-0.141-0.389-0.167-0.573-0.063
			c-0.008,0.004-0.767,0.403-1.521-0.003c-0.165-0.088-0.365-0.078-0.52,0.028c-0.154,0.106-0.236,0.289-0.213,0.475l0.938,7.506
			C10.854,8.204,10.349,8.547,10,9.016C9.544,8.404,8.82,8.001,8,8.001c-1.378,0-2.5,1.122-2.5,2.5c0,0.367,0.084,0.713,0.227,1.028
			C4.479,11.666,3.5,12.716,3.5,14.001c0,1.285,0.979,2.334,2.227,2.472C5.584,16.787,5.5,17.134,5.5,17.501
			c0,1.378,1.122,2.5,2.5,2.5c0.005,0,0.009-0.001,0.014-0.001C7.696,20.419,7.5,20.935,7.5,21.501c0,1.378,1.122,2.5,2.5,2.5
			c0.82,0,1.544-0.403,2-1.016c0.456,0.613,1.18,1.016,2,1.016c1.378,0,2.5-1.122,2.5-2.5c0-0.566-0.196-1.082-0.514-1.501
			c0.005,0,0.009,0.001,0.014,0.001c1.378,0,2.5-1.122,2.5-2.5c0-0.367-0.084-0.713-0.227-1.028
			C19.521,16.335,20.5,15.285,20.5,14.001z M16,9.001c0.827,0,1.5,0.673,1.5,1.5c0,0.827-0.673,1.5-1.5,1.5
			c-0.827,0-1.5-0.673-1.5-1.5C14.5,9.674,15.173,9.001,16,9.001z M14,15.501c-0.827,0-1.5-0.673-1.5-1.5c0-0.827,0.673-1.5,1.5-1.5
			c0.827,0,1.5,0.673,1.5,1.5C15.5,14.828,14.827,15.501,14,15.501z M14.014,19.002c-0.005,0-0.009-0.001-0.014-0.001
			s-0.009,0.001-0.014,0.001c0.005-0.006,0.01-0.011,0.014-0.017C14.004,18.991,14.01,18.996,14.014,19.002z M13.822,8.801
			c0.163-0.034,0.319-0.076,0.474-0.119C14.187,8.784,14.089,8.896,14,9.016C13.944,8.942,13.886,8.869,13.822,8.801z M17.485,3.019
			c-0.173,3.049-1.916,4.793-4.965,4.968C12.711,5.555,14.273,3.242,17.485,3.019z M12.234,1.23
			c-0.128,0.451-0.279,1.061-0.413,1.811l-0.228-1.824C11.822,1.251,12.039,1.25,12.234,1.23z M12,9.001c0.827,0,1.5,0.673,1.5,1.5
			c0,0.827-0.673,1.5-1.5,1.5c-0.827,0-1.5-0.673-1.5-1.5C10.5,9.674,11.173,9.001,12,9.001z M10,12.501c0.827,0,1.5,0.673,1.5,1.5
			c0,0.827-0.673,1.5-1.5,1.5c-0.827,0-1.5-0.673-1.5-1.5C8.5,13.174,9.173,12.501,10,12.501z M10.014,19.002
			c-0.005,0-0.009-0.001-0.014-0.001s-0.009,0.001-0.014,0.001c0.005-0.006,0.01-0.011,0.014-0.017
			C10.004,18.991,10.01,18.996,10.014,19.002z M8,9.001c0.827,0,1.5,0.673,1.5,1.5c0,0.827-0.673,1.5-1.5,1.5
			c-0.827,0-1.5-0.673-1.5-1.5C6.5,9.674,7.173,9.001,8,9.001z M6,15.501c-0.827,0-1.5-0.673-1.5-1.5c0-0.827,0.673-1.5,1.5-1.5
			c0.827,0,1.5,0.673,1.5,1.5C7.5,14.828,6.827,15.501,6,15.501z M8,19.001c-0.827,0-1.5-0.673-1.5-1.5c0-0.827,0.673-1.5,1.5-1.5
			c0.827,0,1.5,0.673,1.5,1.5C9.5,18.328,8.827,19.001,8,19.001z M10,23.001c-0.827,0-1.5-0.673-1.5-1.5c0-0.827,0.673-1.5,1.5-1.5
			c0.827,0,1.5,0.673,1.5,1.5C11.5,22.328,10.827,23.001,10,23.001z M12,20.016c-0.004-0.006-0.01-0.011-0.014-0.017
			c0.005,0,0.009,0.001,0.014,0.001s0.009-0.001,0.014-0.001C12.01,20.005,12.004,20.01,12,20.016z M12,19.001
			c-0.827,0-1.5-0.673-1.5-1.5c0-0.827,0.673-1.5,1.5-1.5c0.827,0,1.5,0.673,1.5,1.5C13.5,18.328,12.827,19.001,12,19.001z
			 M14,23.001c-0.827,0-1.5-0.673-1.5-1.5c0-0.827,0.673-1.5,1.5-1.5c0.827,0,1.5,0.673,1.5,1.5
			C15.5,22.328,14.827,23.001,14,23.001z M16,19.001c-0.827,0-1.5-0.673-1.5-1.5c0-0.827,0.673-1.5,1.5-1.5
			c0.827,0,1.5,0.673,1.5,1.5C17.5,18.328,16.827,19.001,16,19.001z M18,15.501c-0.827,0-1.5-0.673-1.5-1.5
			c0-0.827,0.673-1.5,1.5-1.5c0.827,0,1.5,0.673,1.5,1.5C19.5,14.828,18.827,15.501,18,15.501z"/>
	</g>
</g>
</svg>
