<?xml version="1.0" encoding="iso-8859-1"?>
<!-- Generator: Adobe Illustrator 19.0.0, SVG Export Plug-In . SVG Version: 6.00 Build 0)  -->
<svg version="1.1" id="Layer_1" xmlns="http://www.w3.org/2000/svg" xmlns:xlink="http://www.w3.org/1999/xlink" x="0px" y="0px"
	 viewBox="0 0 24 24" style="enable-background:new 0 0 24 24;" xml:space="preserve">
<g>
	<g>
		<g>
			<path d="M7.513,4.718c-0.173,0-0.341-0.089-0.434-0.25l-1-1.732C5.941,2.497,6.023,2.191,6.263,2.053
				c0.238-0.138,0.544-0.057,0.683,0.183l1,1.732c0.138,0.239,0.056,0.545-0.183,0.683C7.684,4.697,7.598,4.718,7.513,4.718z"/>
		</g>
		<g>
			<path d="M4.218,8.013c-0.085,0-0.171-0.021-0.25-0.067l-1.732-1C1.997,6.808,1.915,6.502,2.053,6.263
				c0.138-0.24,0.444-0.322,0.683-0.183l1.732,1C4.707,7.218,4.79,7.523,4.651,7.763C4.559,7.923,4.391,8.013,4.218,8.013z"/>
		</g>
	</g>
	<path d="M19.557,16.946c-0.239-0.138-0.321-0.444-0.183-0.683c0.138-0.239,0.444-0.321,0.683-0.183l2.148,1.24
		c0.758-1.449,1.208-3.079,1.283-4.807h-2.475c-0.276,0-0.5-0.224-0.5-0.5s0.224-0.5,0.5-0.5h2.475
		c-0.075-1.728-0.525-3.358-1.283-4.807l-2.148,1.24c-0.239,0.138-0.545,0.056-0.683-0.183c-0.138-0.239-0.056-0.545,0.183-0.683
		l2.144-1.238c-0.903-1.413-2.104-2.614-3.517-3.517l-1.238,2.144c-0.138,0.239-0.444,0.321-0.683,0.183s-0.321-0.444-0.183-0.683
		l1.24-2.148c-1.59-0.831-3.393-1.308-5.307-1.308c-0.276,0-0.5,0.224-0.5,0.5v10.5h-10.5c-0.276,0-0.5,0.224-0.5,0.5
		c0,1.915,0.477,3.717,1.308,5.307l2.148-1.24c0.239-0.138,0.545-0.056,0.683,0.183c0.138,0.239,0.056,0.545-0.183,0.683
		l-2.144,1.238c0.903,1.413,2.104,2.614,3.517,3.517l1.238-2.144c0.138-0.239,0.444-0.321,0.683-0.183s0.321,0.444,0.183,0.683
		l-1.24,2.148c1.449,0.758,3.079,1.208,4.807,1.283v-2.475c0-0.276,0.224-0.5,0.5-0.5s0.5,0.224,0.5,0.5v2.475
		c1.728-0.075,3.358-0.525,4.807-1.283l-1.24-2.148c-0.138-0.239-0.056-0.545,0.183-0.683s0.545-0.056,0.683,0.183l1.238,2.144
		c1.413-0.903,2.614-2.104,3.517-3.517L19.557,16.946z"/>
</g>
<g>
</g>
<g>
</g>
<g>
</g>
<g>
</g>
<g>
</g>
<g>
</g>
<g>
</g>
<g>
</g>
<g>
</g>
<g>
</g>
<g>
</g>
<g>
</g>
<g>
</g>
<g>
</g>
<g>
</g>
</svg>
