<?xml version="1.0" encoding="utf-8"?>
<!-- Generator: Adobe Illustrator 19.0.0, SVG Export Plug-In . SVG Version: 6.00 Build 0)  -->
<svg version="1.1" id="Layer_1" xmlns="http://www.w3.org/2000/svg" xmlns:xlink="http://www.w3.org/1999/xlink" x="0px" y="0px"
	 viewBox="3 -3 30 30" style="enable-background:new 3 -3 30 30;" xml:space="preserve">
<g>
	<g>
		<path d="M14,20c-1.9,0-3.5,1.6-3.5,3.5S12.1,27,14,27s3.5-1.6,3.5-3.5S15.9,20,14,20z"/>
	</g>
	<g>
		<path d="M26,20c-1.9,0-3.5,1.6-3.5,3.5S24.1,27,26,27s3.5-1.6,3.5-3.5S27.9,20,26,20z"/>
	</g>
	<g>
		<path d="M30.5,9.5c-1.3,1-2.9,1.5-4.5,1.5c-4.1,0-7.5-3.4-7.5-7.5C18.5,3.2,18.3,3,18,3H9.1L8.5-0.6C8.5-0.8,8.2-1,8-1H4
			C3.7-1,3.5-0.8,3.5-0.5S3.7,0,4,0h3.6L10,15.6c0.4,1.9,2.4,3.4,4.5,3.4H29c0.3,0,0.5-0.2,0.5-0.5S29.3,18,29,18H14.5
			c-1.6,0-3.2-1.2-3.5-2.6L10.8,14H28c1.6,0,2.8-1,3-2.3l0.3-1.7c0-0.2-0.1-0.4-0.2-0.5C30.9,9.3,30.7,9.3,30.5,9.5z"/>
	</g>
	<g>
		<path d="M26,10c3.6,0,6.5-2.9,6.5-6.5S29.6-3,26-3s-6.5,2.9-6.5,6.5S22.4,10,26,10z M24,3h1.5V1.5C25.5,1.2,25.7,1,26,1
			s0.5,0.2,0.5,0.5V3H28c0.3,0,0.5,0.2,0.5,0.5S28.3,4,28,4h-1.5v1.5C26.5,5.8,26.3,6,26,6s-0.5-0.2-0.5-0.5V4H24
			c-0.3,0-0.5-0.2-0.5-0.5S23.7,3,24,3z"/>
	</g>
</g>
</svg>
