<?xml version="1.0" encoding="utf-8"?>
<!-- Generator: Adobe Illustrator 19.0.0, SVG Export Plug-In . SVG Version: 6.00 Build 0)  -->
<svg version="1.1" id="Layer_1" xmlns="http://www.w3.org/2000/svg" xmlns:xlink="http://www.w3.org/1999/xlink" x="0px" y="0px"
	 viewBox="0 0 30 30" style="enable-background:new 0 0 30 30;" xml:space="preserve">
<g>
	<g>
		<g>
			<path d="M14.8,8.5c-3.3,0-6.3-2.2-7.2-5.2C7.4,2.8,7.5,2.2,7.9,1.7c0.5-0.6,1.3-0.9,2-0.7C13,2,15.3,4.9,15.3,8
				C15.3,8.3,15,8.5,14.8,8.5z M9.3,2C9.1,2,8.8,2.1,8.7,2.3C8.6,2.5,8.4,2.7,8.5,3.1c0.7,2.4,3.1,4.2,5.7,4.4C14,5,12.1,2.8,9.6,2
				C9.5,2,9.4,2,9.3,2z"/>
		</g>
	</g>
	<g>
		<g>
			<path d="M14.8,8.5c-0.3,0-0.5-0.2-0.5-0.5c0-3.3,1.9-6,4.9-6.9c0.7-0.2,1.5,0.1,2,0.7c0.3,0.5,0.5,1,0.3,1.6
				C20.5,6.5,17.9,8.5,14.8,8.5z M19.7,2c-0.1,0-0.1,0-0.2,0c-2.4,0.7-4,2.8-4.2,5.4c2.4-0.2,4.4-1.9,5.2-4.4c0.1-0.3,0-0.6-0.1-0.7
				C20.2,2.1,19.9,2,19.7,2z"/>
		</g>
	</g>
	<g>
		<g>
			<path d="M11,12c-0.1,0-0.3-0.1-0.4-0.2c-0.2-0.2-0.2-0.5,0-0.7l4-3.5c0.2-0.2,0.5-0.2,0.7,0c0.2,0.2,0.2,0.5,0,0.7l-4,3.5
				C11.2,12,11.1,12,11,12z"/>
		</g>
	</g>
	<g>
		<g>
			<path d="M18,12c-0.1,0-0.3-0.1-0.4-0.2l-3-3.5c-0.2-0.2-0.2-0.5,0.1-0.7c0.2-0.2,0.5-0.2,0.7,0.1l3,3.5c0.2,0.2,0.2,0.5-0.1,0.7
				C18.2,12,18.1,12,18,12z"/>
		</g>
	</g>
	<g>
		<g>
			<path d="M10.7,11.1c-0.2,0.2-0.2,0.5,0,0.7c0.2,0.2,0.4,0.3,0.7,0l3.2-2.8V8h-2.3c0.2,0.1,0.4,0.2,0.6,0.2c0.2,0,0.3,0.2,0.4,0.4
				c0,0.2,0,0.4-0.2,0.5L10.7,11.1z"/>
		</g>
		<g>
			<path d="M17.7,8.9l1.4,1.6c0.3,0.3,0.4,0.7,0.4,1.1s-0.2,0.8-0.5,1c-0.3,0.2-0.6,0.4-1,0.4c-0.4,0-0.9-0.2-1.1-0.5l-1.4-1.6V15
				h13v-0.1c0.6-0.2,1-0.6,1-1.4V10c0-1-0.5-2-1.5-2h-8.6C18.9,8.4,18.3,8.7,17.7,8.9z"/>
		</g>
		<g>
			<path d="M17.6,11.8c0.1,0.2,0.4,0.3,0.7,0.1c0.1-0.1,0.2-0.2,0.2-0.3c0-0.1,0-0.3-0.1-0.4L16.5,9c-0.1-0.1-0.1-0.3-0.1-0.5
				c0-0.2,0.2-0.3,0.3-0.3c0.2-0.1,0.4-0.1,0.5-0.2h-1.8v1.4L17.6,11.8z"/>
		</g>
		<g>
			<path d="M1.5,14.9L1.5,14.9l13,0.1v-4.6L12,12.6c-0.6,0.5-1.6,0.5-2.1-0.1c-0.5-0.6-0.5-1.6,0.1-2.1l1.7-1.5
				C11.1,8.7,10.5,8.4,9.9,8H2c-1,0-1.5,1-1.5,2v3.5C0.5,14.3,0.9,14.8,1.5,14.9z"/>
		</g>
		<g>
			<path d="M15.5,16v12c0,0.3-0.2,0.5-0.5,0.5s-0.5-0.2-0.5-0.5V16h-13v9.5c0,1.6,1.3,3.5,3,3.5h21c1.7,0,3-1.9,3-3.5V16H15.5z"/>
		</g>
	</g>
</g>
</svg>
