<?xml version="1.0" encoding="iso-8859-1"?>
<!-- Generator: Adobe Illustrator 19.0.0, SVG Export Plug-In . SVG Version: 6.00 Build 0)  -->
<svg version="1.1" id="Layer_1" xmlns="http://www.w3.org/2000/svg" xmlns:xlink="http://www.w3.org/1999/xlink" x="0px" y="0px"
	 viewBox="0 0 24 24" style="enable-background:new 0 0 24 24;" xml:space="preserve">
<g>
	<path d="M23,19H1c-0.276,0-0.5,0.224-0.5,0.5v2C0.5,21.776,0.724,22,1,22h22c0.276,0,0.5-0.224,0.5-0.5v-2
		C23.5,19.224,23.276,19,23,19z"/>
	<rect x="5.5" y="7" width="2" height="2"/>
	<rect x="16.5" y="13" width="2" height="2"/>
	<rect x="5.5" y="13" width="2" height="2"/>
	<rect x="16.5" y="7" width="2" height="2"/>
	<rect x="10.5" y="13" width="3" height="5"/>
	<g>
		<path d="M9.5,17.5v-5c0-0.276,0.224-0.5,0.5-0.5h4c0.276,0,0.5,0.224,0.5,0.5v5c0,0.276,0.224,0.5,0.5,0.5h6
			c0.276,0,0.5-0.224,0.5-0.5v-13C21.5,4.224,21.276,4,21,4h-4.5V2.5C16.5,2.224,16.276,2,16,2H8C7.724,2,7.5,2.224,7.5,2.5V4H3
			C2.724,4,2.5,4.224,2.5,4.5v13C2.5,17.776,2.724,18,3,18h6C9.276,18,9.5,17.776,9.5,17.5z M15.5,6.5C15.5,6.224,15.724,6,16,6h3
			c0.276,0,0.5,0.224,0.5,0.5v3c0,0.276-0.224,0.5-0.5,0.5h-3c-0.276,0-0.5-0.224-0.5-0.5V6.5z M15.5,12.5
			c0-0.276,0.224-0.5,0.5-0.5h3c0.276,0,0.5,0.224,0.5,0.5v3c0,0.276-0.224,0.5-0.5,0.5h-3c-0.276,0-0.5-0.224-0.5-0.5V12.5z
			 M9.5,4.5C9.5,4.224,9.724,4,10,4s0.5,0.224,0.5,0.5V7h3V4.5C13.5,4.224,13.724,4,14,4s0.5,0.224,0.5,0.5v6
			c0,0.276-0.224,0.5-0.5,0.5s-0.5-0.224-0.5-0.5V8h-3v2.5c0,0.276-0.224,0.5-0.5,0.5s-0.5-0.224-0.5-0.5V4.5z M4.5,6.5
			C4.5,6.224,4.724,6,5,6h3c0.276,0,0.5,0.224,0.5,0.5v3C8.5,9.776,8.276,10,8,10H5c-0.276,0-0.5-0.224-0.5-0.5V6.5z M4.5,12.5
			C4.5,12.224,4.724,12,5,12h3c0.276,0,0.5,0.224,0.5,0.5v3C8.5,15.776,8.276,16,8,16H5c-0.276,0-0.5-0.224-0.5-0.5V12.5z"/>
		<path d="M14.5,19v0.5c0,0.276-0.224,0.5-0.5,0.5h7c0.276,0,0.5-0.224,0.5-0.5V19H14.5z"/>
		<path d="M9.5,19.5V19h-7v0.5C2.5,19.776,2.724,20,3,20h7C9.724,20,9.5,19.776,9.5,19.5z"/>
	</g>
</g>
<g>
</g>
<g>
</g>
<g>
</g>
<g>
</g>
<g>
</g>
<g>
</g>
<g>
</g>
<g>
</g>
<g>
</g>
<g>
</g>
<g>
</g>
<g>
</g>
<g>
</g>
<g>
</g>
<g>
</g>
</svg>
