<?xml version="1.0" encoding="iso-8859-1"?>
<!-- Generator: Adobe Illustrator 19.0.0, SVG Export Plug-In . SVG Version: 6.00 Build 0)  -->
<svg version="1.1" id="Layer_1" xmlns="http://www.w3.org/2000/svg" xmlns:xlink="http://www.w3.org/1999/xlink" x="0px" y="0px"
	 viewBox="0 0 24 24" style="enable-background:new 0 0 24 24;" xml:space="preserve">
<path d="M19,0.5H5C2.519,0.5,0.5,2.519,0.5,5v14c0,2.481,2.019,4.5,4.5,4.5h14c2.481,0,4.5-2.019,4.5-4.5V5
	C23.5,2.519,21.481,0.5,19,0.5z M12.5,10.5V9c0-0.276-0.224-0.5-0.5-0.5S11.5,8.724,11.5,9v1.5H4.517
	c0.046-0.689,0.189-1.352,0.409-1.978l1.85,0.925C6.848,9.483,6.924,9.5,7,9.5c0.184,0,0.36-0.101,0.448-0.276
	c0.124-0.247,0.023-0.547-0.224-0.671L5.322,7.602c0.283-0.555,0.63-1.072,1.037-1.536l1.288,1.288C7.744,7.451,7.872,7.5,8,7.5
	s0.256-0.049,0.354-0.146c0.195-0.195,0.195-0.512,0-0.707L7.07,5.363C7.534,4.956,8.045,4.602,8.6,4.318l0.953,1.905
	C9.641,6.399,9.817,6.5,10,6.5c0.075,0,0.151-0.017,0.223-0.053c0.247-0.124,0.347-0.424,0.224-0.671L9.524,3.929
	c0.626-0.22,1.288-0.359,1.976-0.405V5.5C11.5,5.776,11.724,6,12,6s0.5-0.224,0.5-0.5V3.524c0.689,0.046,1.351,0.185,1.976,0.405
	l-0.924,1.847c-0.124,0.247-0.023,0.547,0.224,0.671C13.848,6.483,13.924,6.5,14,6.5c0.184,0,0.36-0.101,0.448-0.276L15.4,4.318
	c0.555,0.283,1.066,0.638,1.53,1.045l-1.284,1.284c-0.195,0.195-0.195,0.512,0,0.707C15.744,7.451,15.872,7.5,16,7.5
	s0.256-0.049,0.354-0.146l1.288-1.288c0.407,0.464,0.753,0.981,1.037,1.536l-1.902,0.951c-0.247,0.124-0.347,0.424-0.224,0.671
	C16.641,9.399,16.817,9.5,17,9.5c0.075,0,0.151-0.017,0.223-0.053l1.85-0.925c0.22,0.626,0.364,1.289,0.409,1.978H12.5z"/>
<g>
	<rect x="8" y="11.5" width="8" height="1"/>
</g>
<g>
	<rect x="8" y="11.5" width="8" height="1"/>
</g>
<g>
</g>
<g>
</g>
<g>
</g>
<g>
</g>
<g>
</g>
<g>
</g>
<g>
</g>
<g>
</g>
<g>
</g>
<g>
</g>
<g>
</g>
<g>
</g>
<g>
</g>
<g>
</g>
<g>
</g>
</svg>
