<?xml version="1.0" encoding="utf-8"?>
<!-- Generator: Adobe Illustrator 19.0.0, SVG Export Plug-In . SVG Version: 6.00 Build 0)  -->
<svg version="1.1" id="Layer_1" xmlns="http://www.w3.org/2000/svg" xmlns:xlink="http://www.w3.org/1999/xlink" x="0px" y="0px"
	 viewBox="0 0 30 30" style="enable-background:new 0 0 30 30;" xml:space="preserve">
<path id="XMLID_199_" d="M23.6,7c-1.2,0.2-2.1,1.3-2.1,2.6v3.9c0,0.8-0.7,1.5-1.5,1.5h-1c-0.8,0-1.5-0.7-1.5-1.5V4.7
	c0-1.9-1.5-3.6-3.3-3.7L14,1c-1.9,0-3.5,1.6-3.5,3.5v5c0,0.2-0.6,0.5-1,0.5c-0.2,0-1,0-1-1.5v-2C8.5,5,7.1,3.8,5.6,4
	C4.4,4.2,3.5,5.3,3.5,6.6V10c0,2.9,1.9,5,4.5,5h2.5v13.5c0,0.3,0.2,0.5,0.5,0.5h1.5V13H8c-1.5,0-2.5-1.2-2.5-3V6.5
	C5.5,6.2,5.7,6,6,6s0.5,0.2,0.5,0.5V10c0,0.6,0.1,2,1.5,2h4.5V3.5C12.5,3.2,12.7,3,13,3s0.5,0.2,0.5,0.5V29h1V3.5
	C14.5,3.2,14.7,3,15,3s0.5,0.2,0.5,0.5V17h6c1.1,0,2-1.4,2-2.5v-5C23.5,9.2,23.7,9,24,9s0.5,0.2,0.5,0.5v5c0,1.6-1.3,3.5-3,3.5h-6
	v11H17c0.3,0,0.5-0.2,0.5-0.5V20h4c2.9,0,5-2.9,5-5.5v-5C26.5,8,25.1,6.8,23.6,7z"/>
</svg>
