<?xml version="1.0" encoding="utf-8"?>
<!-- Generator: Adobe Illustrator 19.0.0, SVG Export Plug-In . SVG Version: 6.00 Build 0)  -->
<svg version="1.1" id="Layer_1" xmlns="http://www.w3.org/2000/svg" xmlns:xlink="http://www.w3.org/1999/xlink" x="0px" y="0px"
	 viewBox="0 0 30 30" style="enable-background:new 0 0 30 30;" xml:space="preserve">
<g id="XMLID_263_">
	<path id="XMLID_264_" d="M16.5,25.5h-16C0.2,25.5,0,25.7,0,26v2c0,0.3,0.2,0.5,0.5,0.5H1V29c0,0.3,0.2,0.5,0.5,0.5S2,29.3,2,29
		v-0.5h13V29c0,0.3,0.2,0.5,0.5,0.5S16,29.3,16,29v-0.5h0.5c0.3,0,0.5-0.2,0.5-0.5v-2C17,25.7,16.8,25.5,16.5,25.5z"/>
	<path id="XMLID_265_" d="M1.5,24.5h14c0.3,0,0.5-0.2,0.5-0.5v-3v-1c0-0.3-0.2-0.5-0.5-0.5S15,19.7,15,20v0.5H2V20
		c0-0.3-0.2-0.5-0.5-0.5S1,19.7,1,20v1v3C1,24.3,1.2,24.5,1.5,24.5z"/>
	<path id="XMLID_266_" d="M21.5,20.5h-3c-0.3,0-0.5,0.2-0.5,0.5v8c0,0.3,0.2,0.5,0.5,0.5h3c0.3,0,0.5-0.2,0.5-0.5v-8
		C22,20.7,21.8,20.5,21.5,20.5z"/>
	<path id="XMLID_267_" d="M20.5,0.5C15.3,0.5,11,4.8,11,10s4.3,9.5,9.5,9.5S30,15.2,30,10S25.7,0.5,20.5,0.5z M16.5,11.5
		c-0.3,0-0.5-0.2-0.5-0.5s-0.2-0.5-0.5-0.5S15,10.7,15,11s-0.2,0.5-0.5,0.5S14,11.3,14,11c0-0.8,0.7-1.5,1.5-1.5S17,10.2,17,11
		C17,11.3,16.8,11.5,16.5,11.5z M18.5,6.5C18.2,6.5,18,6.3,18,6s-0.2-0.5-0.5-0.5S17,5.7,17,6s-0.2,0.5-0.5,0.5S16,6.3,16,6
		c0-0.8,0.7-1.5,1.5-1.5S19,5.2,19,6C19,6.3,18.8,6.5,18.5,6.5z M22.5,14.5c-0.3,0-0.5-0.2-0.5-0.5s-0.2-0.5-0.5-0.5S21,13.7,21,14
		s-0.2,0.5-0.5,0.5S20,14.3,20,14c0-0.8,0.7-1.5,1.5-1.5S23,13.2,23,14C23,14.3,22.8,14.5,22.5,14.5z M25.5,9.5
		C25.2,9.5,25,9.3,25,9s-0.2-0.5-0.5-0.5S24,8.7,24,9s-0.2,0.5-0.5,0.5S23,9.3,23,9c0-0.8,0.7-1.5,1.5-1.5S26,8.2,26,9
		C26,9.3,25.8,9.5,25.5,9.5z"/>
</g>
</svg>
