<?xml version="1.0" encoding="utf-8"?>
<!-- Generator: Adobe Illustrator 19.0.0, SVG Export Plug-In . SVG Version: 6.00 Build 0)  -->
<svg version="1.1" id="Layer_1" xmlns="http://www.w3.org/2000/svg" xmlns:xlink="http://www.w3.org/1999/xlink" x="0px" y="0px"
	 viewBox="0 0 30 30" style="enable-background:new 0 0 30 30;" xml:space="preserve">
<g>
	<g>
		<path d="M14.5,19c-2,0-3.5-1.1-3.5-2.5c0-0.3,0.2-0.5,0.5-0.5s0.5,0.2,0.5,0.5c0,0.8,1.1,1.5,2.5,1.5s2.5-0.7,2.5-1.5
			S15.9,15,14.5,15c-2,0-3.5-1.1-3.5-2.5s1.5-2.5,3.5-2.5s3.5,1.1,3.5,2.5c0,0.3-0.2,0.5-0.5,0.5S17,12.8,17,12.5
			c0-0.8-1.1-1.5-2.5-1.5S12,11.7,12,12.5s1.1,1.5,2.5,1.5c2,0,3.5,1.1,3.5,2.5S16.5,19,14.5,19z"/>
	</g>
	<g>
		<path d="M14.5,20c-0.3,0-0.5-0.2-0.5-0.5v-10C14,9.2,14.2,9,14.5,9S15,9.2,15,9.5v10C15,19.8,14.8,20,14.5,20z"/>
	</g>
	<g>
		<path d="M15,25C9.5,25,5,20.5,5,15S9.5,5,15,5s10,4.5,10,10S20.5,25,15,25z M15,6c-5,0-9,4-9,9s4,9,9,9s9-4,9-9S20,6,15,6z"/>
	</g>
	<g>
		<path d="M15,30C6.7,30,0,23.3,0,15S6.7,0,15,0s15,6.7,15,15S23.3,30,15,30z M15,1C7.3,1,1,7.3,1,15s6.3,14,14,14s14-6.3,14-14
			S22.7,1,15,1z"/>
	</g>
	<g>
		<g>
			<g>
				<path d="M12.5,6c-0.2,0-0.4-0.2-0.5-0.4l-1-4.5c-0.1-0.3,0.1-0.5,0.4-0.6c0.3-0.1,0.5,0.1,0.6,0.4l1,4.5C13,5.7,12.9,5.9,12.6,6
					C12.6,6,12.5,6,12.5,6z"/>
			</g>
			<g>
				<path d="M17.5,6c0,0-0.1,0-0.1,0C17.1,5.9,17,5.7,17,5.4l1-4.5c0.1-0.3,0.3-0.4,0.6-0.4C18.9,0.6,19,0.8,19,1.1l-1,4.5
					C17.9,5.8,17.7,6,17.5,6z"/>
			</g>
			<g>
				<circle cx="15" cy="3" r="1"/>
			</g>
		</g>
		<g>
			<g>
				<path d="M18.5,29.5c-0.2,0-0.4-0.2-0.5-0.4l-1-4.5c-0.1-0.3,0.1-0.5,0.4-0.6c0.3-0.1,0.5,0.1,0.6,0.4l1,4.5
					c0.1,0.3-0.1,0.5-0.4,0.6C18.6,29.5,18.5,29.5,18.5,29.5z"/>
			</g>
			<g>
				<path d="M11.5,29.5c0,0-0.1,0-0.1,0c-0.3-0.1-0.4-0.3-0.4-0.6l1-4.5c0.1-0.3,0.3-0.4,0.6-0.4c0.3,0.1,0.4,0.3,0.4,0.6l-1,4.5
					C11.9,29.3,11.7,29.5,11.5,29.5z"/>
			</g>
			<g>
				<path d="M15,28c-0.6,0-1-0.4-1-1s0.4-1,1-1s1,0.4,1,1S15.6,28,15,28z M15,27h-0.5H15L15,27z"/>
			</g>
		</g>
	</g>
	<g>
		<g>
			<g>
				<path d="M5.5,12.9c-0.1,0-0.1,0-0.2,0L1,11.5c-0.3-0.1-0.4-0.4-0.3-0.6c0.1-0.3,0.4-0.4,0.6-0.3l4.4,1.4C5.9,12,6.1,12.3,6,12.6
					C5.9,12.8,5.7,12.9,5.5,12.9z"/>
			</g>
			<g>
				<path d="M8,8.6c-0.1,0-0.2,0-0.3-0.1L4.3,5.3c-0.2-0.2-0.2-0.5,0-0.7c0.2-0.2,0.5-0.2,0.7,0l3.4,3.1c0.2,0.2,0.2,0.5,0,0.7
					C8.3,8.5,8.2,8.6,8,8.6z"/>
			</g>
			<g>
				<path d="M4.6,10c-0.2,0-0.3,0-0.5-0.1C3.9,9.7,3.7,9.5,3.6,9.3s0-0.5,0.1-0.8C3.9,8.3,4.1,8.1,4.3,8C4.6,8,4.9,8,5.1,8.1
					C5.6,8.4,5.7,9,5.5,9.5C5.3,9.8,5,10,4.6,10z"/>
			</g>
		</g>
		<g>
			<g>
				<path d="M28.9,19.5c-0.1,0-0.1,0-0.2,0l-4.4-1.4c-0.3-0.1-0.4-0.4-0.3-0.6c0.1-0.3,0.4-0.4,0.6-0.3l4.4,1.4
					c0.3,0.1,0.4,0.4,0.3,0.6C29.3,19.3,29.1,19.5,28.9,19.5z"/>
			</g>
			<g>
				<path d="M25.4,25.5c-0.1,0-0.2,0-0.3-0.1l-3.4-3.1c-0.2-0.2-0.2-0.5,0-0.7c0.2-0.2,0.5-0.2,0.7,0l3.4,3.1c0.2,0.2,0.2,0.5,0,0.7
					C25.6,25.5,25.5,25.5,25.4,25.5z"/>
			</g>
			<g>
				<path d="M25.4,22c-0.2,0-0.3,0-0.5-0.1c-0.5-0.3-0.6-0.9-0.4-1.4c0.3-0.5,0.9-0.6,1.4-0.4c0.2,0.1,0.4,0.3,0.5,0.6
					s0,0.5-0.1,0.8c-0.1,0.2-0.3,0.4-0.6,0.5C25.6,22,25.5,22,25.4,22z M25.4,21L25.4,21l-0.3,0.4L25.4,21L25.4,21z"/>
			</g>
		</g>
	</g>
	<g>
		<g>
			<g>
				<path d="M4.6,25.5c-0.1,0-0.3-0.1-0.4-0.2c-0.2-0.2-0.2-0.5,0-0.7l3.4-3.1c0.2-0.2,0.5-0.2,0.7,0c0.2,0.2,0.2,0.5,0,0.7L5,25.4
					C4.9,25.5,4.7,25.5,4.6,25.5z"/>
			</g>
			<g>
				<path d="M1.1,19.5c-0.2,0-0.4-0.1-0.5-0.3c-0.1-0.3,0.1-0.5,0.3-0.6l4.4-1.4C5.6,17,5.9,17.2,6,17.4c0.1,0.3-0.1,0.5-0.3,0.6
					l-4.4,1.4C1.2,19.5,1.2,19.5,1.1,19.5z"/>
			</g>
			<g>
				<path d="M4.6,22c-0.1,0-0.2,0-0.3,0c-0.3-0.1-0.5-0.2-0.6-0.5c-0.1-0.2-0.2-0.5-0.1-0.8c0.1-0.3,0.2-0.5,0.5-0.6
					c0.5-0.3,1.1-0.1,1.4,0.4c0.3,0.5,0.1,1.1-0.4,1.4C5,22,4.8,22,4.6,22z"/>
			</g>
		</g>
		<g>
			<g>
				<path d="M22,8.6c-0.1,0-0.3-0.1-0.4-0.2c-0.2-0.2-0.2-0.5,0-0.7L25,4.6c0.2-0.2,0.5-0.2,0.7,0c0.2,0.2,0.2,0.5,0,0.7l-3.4,3.1
					C22.2,8.5,22.1,8.6,22,8.6z"/>
			</g>
			<g>
				<path d="M24.5,12.9c-0.2,0-0.4-0.1-0.5-0.3c-0.1-0.3,0.1-0.5,0.3-0.6l4.4-1.4c0.3-0.1,0.5,0.1,0.6,0.3c0.1,0.3-0.1,0.5-0.3,0.6
					l-4.4,1.4C24.6,12.9,24.5,12.9,24.5,12.9z"/>
			</g>
			<g>
				<path d="M25.4,10c-0.3,0-0.7-0.2-0.9-0.5c-0.3-0.5-0.1-1.1,0.4-1.4C25.1,8,25.4,8,25.7,8c0.3,0.1,0.5,0.2,0.6,0.5
					c0.1,0.2,0.2,0.5,0.1,0.8c-0.1,0.3-0.2,0.5-0.5,0.6C25.7,10,25.6,10,25.4,10z"/>
			</g>
		</g>
	</g>
</g>
</svg>
