<?xml version="1.0" encoding="utf-8"?>
<!-- Generator: Adobe Illustrator 19.0.0, SVG Export Plug-In . SVG Version: 6.00 Build 0)  -->
<svg version="1.1" id="Layer_1" xmlns="http://www.w3.org/2000/svg" xmlns:xlink="http://www.w3.org/1999/xlink" x="0px" y="0px"
	 viewBox="0 0 30 30" style="enable-background:new 0 0 30 30;" xml:space="preserve">
<g>
	<g>
		<path d="M15,21c-0.1,0-0.2,0-0.3-0.1c-0.2-0.2-5.2-4.2-5.2-7.4c0-2.2,1.1-3.5,3-3.5c1.1,0,2,0.4,2.5,1c0.5-0.6,1.4-1,2.5-1
			c1.9,0,3,1.3,3,3.5c0,3.2-5,7.2-5.2,7.4C15.2,21,15.1,21,15,21z M12.5,11c-1.3,0-2,0.8-2,2.5c0,2.1,3,5.1,4.5,6.4
			c1.5-1.3,4.5-4.2,4.5-6.4c0-1.7-0.7-2.5-2-2.5c-0.7,0-2,0.2-2,1.5c0,0.3-0.2,0.5-0.5,0.5s-0.5-0.2-0.5-0.5
			C14.5,11.2,13.2,11,12.5,11z"/>
	</g>
	<g>
		<path d="M23,30H7c-1.4,0-2.5-1.1-2.5-2.5v-25C4.5,1.1,5.6,0,7,0h16c1.4,0,2.5,1.1,2.5,2.5v25C25.5,28.9,24.4,30,23,30z M7,1
			C6.2,1,5.5,1.7,5.5,2.5v25C5.5,28.3,6.2,29,7,29h16c0.8,0,1.5-0.7,1.5-1.5v-25C24.5,1.7,23.8,1,23,1H7z"/>
	</g>
	<g>
		<path d="M11,8c-0.2,0-0.4-0.1-0.5-0.3L9,3.8L7.5,7.7C7.4,7.9,7.1,8.1,6.8,8C6.6,7.9,6.4,7.6,6.5,7.3l2-5c0.2-0.4,0.8-0.4,0.9,0
			l2,5c0.1,0.3,0,0.5-0.3,0.7C11.1,8,11.1,8,11,8z"/>
	</g>
	<g>
		<path d="M10.5,7h-3C7.2,7,7,6.8,7,6.5S7.2,6,7.5,6h3C10.8,6,11,6.2,11,6.5S10.8,7,10.5,7z"/>
	</g>
	<g>
		<path d="M21,28c-0.2,0-0.4-0.1-0.5-0.3l-2-5c-0.1-0.3,0-0.5,0.3-0.7c0.3-0.1,0.5,0,0.7,0.3l1.5,3.8l1.5-3.8
			c0.1-0.3,0.4-0.4,0.7-0.3c0.3,0.1,0.4,0.4,0.3,0.7l-2,5C21.4,27.9,21.2,28,21,28z"/>
	</g>
	<g>
		<path d="M22.5,24h-3c-0.3,0-0.5-0.2-0.5-0.5s0.2-0.5,0.5-0.5h3c0.3,0,0.5,0.2,0.5,0.5S22.8,24,22.5,24z"/>
	</g>
</g>
</svg>
