<?xml version="1.0" encoding="iso-8859-1"?>
<!-- Generator: Adobe Illustrator 19.0.0, SVG Export Plug-In . SVG Version: 6.00 Build 0)  -->
<svg version="1.1" id="Layer_1" xmlns="http://www.w3.org/2000/svg" xmlns:xlink="http://www.w3.org/1999/xlink" x="0px" y="0px"
	 viewBox="0 0 24 24" style="enable-background:new 0 0 24 24;" xml:space="preserve">
<g>
	<g>
		<path d="M20.494,15.199C20.432,12.595,19.569,6.5,17,6.5c-0.679,0-1.409,0.385-2.181,0.792c-0.19,0.1-0.381,0.199-0.569,0.292
			c0.748,0.437,1.372,0.902,1.827,1.371c0.192,0.198,0.188,0.515-0.011,0.707c-0.097,0.094-0.223,0.141-0.348,0.141
			c-0.13,0-0.261-0.051-0.359-0.152c-0.546-0.563-1.389-1.133-2.438-1.647c-0.017-0.008-0.027-0.023-0.042-0.032
			c-0.366-0.07-0.969-0.435-1.567-0.806C10.113,6.424,8.622,5.5,7,5.5c-3.118,0-3.458,8.037-3.495,9.699
			C2.316,15.494,1.5,15.91,1.5,16.5c0,1.856,8.037,2,10.5,2s10.5-0.144,10.5-2C22.5,15.909,21.683,15.493,20.494,15.199z
			 M6.425,8.74c0.128-0.389,0.419-0.708,0.797-0.877C7.609,7.69,8.053,7.687,8.441,7.857c0.634,0.277,1.263,0.667,1.817,1.01
			c0.235,0.145,0.307,0.454,0.162,0.688C10.275,9.79,9.967,9.864,9.732,9.717C9.206,9.391,8.61,9.022,8.041,8.774
			c-0.13-0.056-0.28-0.057-0.412,0.002C7.505,8.831,7.415,8.93,7.374,9.055c-0.155,0.467-0.306,1.085-0.437,1.788
			c-0.045,0.24-0.255,0.408-0.491,0.408c-0.03,0-0.061-0.003-0.092-0.008c-0.271-0.051-0.45-0.312-0.4-0.583
			C6.093,9.913,6.256,9.25,6.425,8.74z M12,17.5c-5.012,0-8.46-0.552-9.348-1c0.329-0.166,1.01-0.346,1.99-0.507h0.002
			c0.204-0.034,0.421-0.066,0.643-0.097c0.098-0.014,0.201-0.027,0.304-0.04c0.122-0.016,0.246-0.031,0.372-0.045
			c0.122-0.014,0.244-0.028,0.371-0.042c0.151-0.016,0.306-0.031,0.462-0.045c0.136-0.013,0.274-0.025,0.416-0.037
			c0.226-0.019,0.455-0.037,0.69-0.053c0.075-0.005,0.153-0.01,0.229-0.015c0.229-0.015,0.46-0.028,0.695-0.04
			c0.073-0.004,0.147-0.007,0.222-0.011c0.247-0.012,0.497-0.022,0.749-0.03c0.069-0.002,0.137-0.005,0.207-0.007
			c0.268-0.008,0.539-0.015,0.812-0.019c0.059-0.001,0.116-0.003,0.176-0.004c0.333-0.005,0.669-0.008,1.007-0.008
			s0.674,0.003,1.007,0.008c0.059,0.001,0.115,0.003,0.173,0.004c0.276,0.005,0.551,0.011,0.822,0.02
			c0.063,0.002,0.123,0.004,0.185,0.006c0.264,0.009,0.526,0.02,0.785,0.032c0.062,0.003,0.125,0.006,0.186,0.009
			c0.254,0.013,0.504,0.028,0.751,0.044c0.061,0.004,0.123,0.008,0.183,0.012c0.258,0.018,0.509,0.037,0.757,0.058
			c0.172,0.015,0.338,0.03,0.502,0.046c0.095,0.009,0.19,0.018,0.283,0.028c1.921,0.201,3.218,0.484,3.714,0.734
			C20.46,16.948,17.012,17.5,12,17.5z"/>
	</g>
</g>
</svg>
