<?xml version="1.0" encoding="iso-8859-1"?>
<!-- Generator: Adobe Illustrator 19.0.0, SVG Export Plug-In . SVG Version: 6.00 Build 0)  -->
<svg version="1.1" id="Layer_1" xmlns="http://www.w3.org/2000/svg" xmlns:xlink="http://www.w3.org/1999/xlink" x="0px" y="0px"
	 viewBox="0 0 24 24" style="enable-background:new 0 0 24 24;" xml:space="preserve">
<g>
	<g>
		<path d="M12,10c-1.657,0-3,1.343-3,3s1.343,3,3,3s3-1.343,3-3S13.657,10,12,10z M21.5,5h-3.553c-0.245-1.692-1.689-3-3.447-3h-5
			C7.742,2,6.296,3.308,6.051,5H4V3.5C4,3.224,3.776,3,3.5,3h-1C2.224,3,2,3.224,2,3.5v1.551C0.86,5.283,0,6.293,0,7.5v10
			C0,18.878,1.122,20,2.5,20h3.856c1.545,1.248,3.508,2,5.644,2c2.136,0,4.099-0.752,5.644-2H21.5c1.378,0,2.5-1.122,2.5-2.5v-10
			C24,6.122,22.878,5,21.5,5z M19.953,13.851c-0.008,0.079-0.025,0.156-0.036,0.234c-0.027,0.201-0.057,0.401-0.099,0.597
			c-0.02,0.093-0.048,0.184-0.071,0.276c-0.045,0.177-0.091,0.353-0.147,0.526c-0.033,0.101-0.072,0.199-0.109,0.299
			c-0.059,0.158-0.119,0.314-0.188,0.468c-0.047,0.105-0.098,0.207-0.149,0.31c-0.071,0.142-0.145,0.282-0.224,0.42
			c-0.06,0.104-0.122,0.206-0.186,0.307c-0.083,0.131-0.171,0.259-0.262,0.385c-0.07,0.097-0.141,0.194-0.215,0.288
			c-0.101,0.127-0.208,0.25-0.317,0.371c-0.074,0.082-0.146,0.167-0.223,0.246c-0.136,0.139-0.28,0.271-0.426,0.401
			C15.885,20.232,14.033,21,12,21c-2.033,0-3.885-0.768-5.298-2.022c-0.146-0.13-0.291-0.262-0.426-0.401
			c-0.077-0.079-0.149-0.163-0.223-0.246c-0.109-0.121-0.216-0.244-0.317-0.371c-0.075-0.094-0.145-0.191-0.215-0.288
			c-0.091-0.126-0.179-0.254-0.262-0.385c-0.064-0.101-0.127-0.203-0.186-0.307c-0.079-0.138-0.153-0.278-0.224-0.42
			c-0.051-0.102-0.102-0.205-0.149-0.31c-0.069-0.154-0.129-0.31-0.188-0.468c-0.037-0.099-0.076-0.198-0.109-0.299
			C4.346,15.31,4.3,15.134,4.256,14.957c-0.023-0.092-0.051-0.183-0.071-0.276c-0.042-0.197-0.072-0.397-0.099-0.597
			c-0.011-0.079-0.027-0.155-0.036-0.234C4.017,13.57,4,13.286,4,13c0-0.333,0.027-0.662,0.068-0.987
			c0.012-0.093,0.028-0.184,0.042-0.276c0.039-0.243,0.089-0.483,0.149-0.719c0.022-0.087,0.042-0.176,0.068-0.262
			c0.088-0.302,0.191-0.599,0.313-0.887c0.026-0.06,0.058-0.117,0.085-0.177c0.103-0.226,0.216-0.446,0.339-0.66
			c0.06-0.104,0.123-0.206,0.187-0.307C5.362,8.55,5.482,8.38,5.607,8.213c0.067-0.09,0.13-0.182,0.201-0.269
			c0.184-0.225,0.382-0.44,0.591-0.645c0.081-0.08,0.168-0.154,0.253-0.23c0.161-0.145,0.327-0.284,0.5-0.417
			C7.238,6.586,7.323,6.52,7.411,6.458c0.257-0.18,0.523-0.352,0.805-0.503c0.043-0.023,0.089-0.041,0.132-0.064
			C8.584,5.77,8.824,5.659,9.07,5.563c0.049-0.019,0.098-0.036,0.147-0.054c1.779-0.65,3.787-0.65,5.566,0
			c0.049,0.018,0.099,0.035,0.147,0.054c0.246,0.096,0.487,0.207,0.722,0.328c0.044,0.022,0.089,0.041,0.132,0.064
			c0.281,0.151,0.547,0.323,0.805,0.503c0.088,0.062,0.174,0.128,0.259,0.194c0.173,0.132,0.339,0.272,0.5,0.417
			c0.085,0.076,0.172,0.15,0.253,0.23c0.209,0.205,0.407,0.42,0.591,0.645c0.071,0.087,0.134,0.179,0.201,0.269
			c0.125,0.166,0.244,0.336,0.356,0.512c0.064,0.101,0.127,0.203,0.187,0.307c0.123,0.215,0.236,0.435,0.339,0.66
			c0.027,0.06,0.059,0.116,0.085,0.177c0.122,0.288,0.225,0.585,0.313,0.887c0.025,0.086,0.045,0.174,0.068,0.262
			c0.061,0.237,0.11,0.476,0.149,0.719c0.015,0.092,0.031,0.183,0.042,0.276C19.973,12.338,20,12.667,20,13
			C20,13.286,19.983,13.57,19.953,13.851z"/>
	</g>
</g>
</svg>
