<?xml version="1.0" encoding="iso-8859-1"?>
<!-- Generator: Adobe Illustrator 19.0.0, SVG Export Plug-In . SVG Version: 6.00 Build 0)  -->
<svg version="1.1" id="Layer_1" xmlns="http://www.w3.org/2000/svg" xmlns:xlink="http://www.w3.org/1999/xlink" x="0px" y="0px"
	 viewBox="0 0 24 24" style="enable-background:new 0 0 24 24;" xml:space="preserve">
<g>
	<g>
		<path d="M23.743,11.796l-1.759-3.935C21.833,4.853,16.899,3.5,11.998,3.5S2.163,4.853,2.013,7.861l-1.75,3.915
			c-0.492,0.984-0.274,2.195,0.54,2.954l6.365,5.644C7.259,20.456,7.378,20.5,7.5,20.5c0.032,0,0.063-0.003,0.095-0.009
			c0.153-0.029,0.283-0.128,0.353-0.267L9.81,16.5h4.382l1.862,3.724c0.069,0.139,0.2,0.238,0.353,0.267
			c0.031,0.006,0.063,0.009,0.095,0.009c0.121,0,0.239-0.044,0.332-0.126l6.375-5.652C24.008,13.972,24.227,12.761,23.743,11.796z
			 M10.307,15.5l0.5-1h2.382l0.5,1H10.307z M13.332,13.5h-2.667L3.026,7.771C3.311,5.892,7.068,4.5,11.998,4.5
			c4.931,0,8.687,1.392,8.972,3.271L13.332,13.5z"/>
	</g>
</g>
</svg>
