<?xml version="1.0" encoding="iso-8859-1"?>
<!-- Generator: Adobe Illustrator 19.0.0, SVG Export Plug-In . SVG Version: 6.00 Build 0)  -->
<svg version="1.1" id="Layer_1" xmlns="http://www.w3.org/2000/svg" xmlns:xlink="http://www.w3.org/1999/xlink" x="0px" y="0px"
	 viewBox="0 0 24 24" style="enable-background:new 0 0 24 24;" xml:space="preserve">
<g>
	<g>
		<circle cx="18.5" cy="21.5" r="2.5"/>
		<circle cx="8.5" cy="21.5" r="2.5"/>
	</g>
	<g>
		<path d="M20.5,18H8.959c-1.663,0-3.106-1.183-3.432-2.813L3.09,3H0.5C0.224,3,0,2.776,0,2.5S0.224,2,0.5,2h3
			c0.238,0,0.443,0.168,0.49,0.402L6.508,14.99C6.741,16.155,7.771,17,8.959,17H20.5c0.276,0,0.5,0.224,0.5,0.5S20.776,18,20.5,18z"
			/>
	</g>
	<path d="M21.972,11.279c-0.149-0.088-0.332-0.094-0.485-0.013C20.552,11.753,19.547,12,18.5,12c-3.584,0-6.51-2.71-6.506-6.376
		c0-0.007,0.005-0.103,0.006-0.109c0.004-0.138-0.049-0.271-0.146-0.368C11.756,5.049,11.621,4.997,11.485,5l-7,0
		C4.339,5.004,4.202,5.073,4.111,5.187C4.019,5.3,3.981,5.448,4.009,5.592l1.5,8C5.553,13.829,5.759,14,6,14h13.734
		c1.258,0,2.325-0.941,2.48-2.19c0.003-0.025,0.003-0.088,0.003-0.113C22.213,11.525,22.12,11.367,21.972,11.279z"/>
	<path d="M18.5,0C15.467,0,13,2.467,13,5.5s2.467,5.5,5.5,5.5S24,8.533,24,5.5S21.533,0,18.5,0z M20.5,6H19v1.5
		C19,7.776,18.776,8,18.5,8S18,7.776,18,7.5V6h-1.5C16.224,6,16,5.776,16,5.5S16.224,5,16.5,5H18V3.5C18,3.224,18.224,3,18.5,3
		S19,3.224,19,3.5V5h1.5C20.776,5,21,5.224,21,5.5S20.776,6,20.5,6z"/>
</g>
<g>
</g>
<g>
</g>
<g>
</g>
<g>
</g>
<g>
</g>
<g>
</g>
<g>
</g>
<g>
</g>
<g>
</g>
<g>
</g>
<g>
</g>
<g>
</g>
<g>
</g>
<g>
</g>
<g>
</g>
</svg>
