<?xml version="1.0" encoding="iso-8859-1"?>
<!-- Generator: Adobe Illustrator 19.0.0, SVG Export Plug-In . SVG Version: 6.00 Build 0)  -->
<svg version="1.1" id="Layer_1" xmlns="http://www.w3.org/2000/svg" xmlns:xlink="http://www.w3.org/1999/xlink" x="0px" y="0px"
	 viewBox="0 0 24 24" style="enable-background:new 0 0 24 24;" xml:space="preserve">
<g>
	<g>
		<path d="M3.5,24c-0.103,0-0.208-0.032-0.297-0.098c-0.222-0.164-0.269-0.477-0.104-0.699l17-23
			c0.164-0.221,0.478-0.27,0.699-0.104c0.222,0.164,0.269,0.477,0.104,0.699l-17,23C3.804,23.93,3.653,24,3.5,24z"/>
	</g>
	<g>
		<path d="M4.5,22C4.224,22,4,21.777,4,21.5v-19C4,2.224,4.224,2,4.5,2h8c2.146,0,4.05,1.365,4.737,3.396
			c0.088,0.261-0.052,0.545-0.313,0.634c-0.261,0.09-0.545-0.052-0.634-0.313C15.74,4.092,14.217,3,12.5,3H5v18.5
			C5,21.777,4.776,22,4.5,22z"/>
	</g>
	<g>
		<path d="M14.5,22H5c-0.276,0-0.5-0.224-0.5-0.5S4.724,21,5,21h9.5c2.206,0,4-1.794,4-4v-1c0-2.206-1.794-4-4-4h-2
			c-0.276,0-0.5-0.224-0.5-0.5s0.224-0.5,0.5-0.5c2.206,0,4-1.794,4-4c0-0.439-0.071-0.872-0.21-1.283
			c-0.088-0.262,0.052-0.545,0.313-0.634c0.263-0.088,0.546,0.052,0.634,0.313C17.412,5.912,17.5,6.451,17.5,7
			c0,1.682-0.834,3.172-2.111,4.079C17.723,11.5,19.5,13.547,19.5,16v1C19.5,19.757,17.257,22,14.5,22z"/>
	</g>
	<g>
		<path d="M7.5,3C7.224,3,7,2.777,7,2.5v-2C7,0.224,7.224,0,7.5,0S8,0.224,8,0.5v2C8,2.777,7.776,3,7.5,3z"/>
	</g>
	<g>
		<path d="M11.5,3C11.224,3,11,2.777,11,2.5v-2C11,0.224,11.224,0,11.5,0S12,0.224,12,0.5v2C12,2.777,11.776,3,11.5,3z"/>
	</g>
	<g>
		<path d="M7.5,24C7.224,24,7,23.777,7,23.5v-2C7,21.224,7.224,21,7.5,21S8,21.224,8,21.5v2C8,23.777,7.776,24,7.5,24z"/>
	</g>
	<g>
		<path d="M11.5,24c-0.276,0-0.5-0.224-0.5-0.5v-2c0-0.276,0.224-0.5,0.5-0.5s0.5,0.224,0.5,0.5v2C12,23.777,11.776,24,11.5,24z"/>
	</g>
	<g>
		<path d="M12.5,12H5c-0.276,0-0.5-0.224-0.5-0.5S4.724,11,5,11h7.5c0.276,0,0.5,0.224,0.5,0.5S12.776,12,12.5,12z"/>
	</g>
</g>
<g>
</g>
<g>
</g>
<g>
</g>
<g>
</g>
<g>
</g>
<g>
</g>
<g>
</g>
<g>
</g>
<g>
</g>
<g>
</g>
<g>
</g>
<g>
</g>
<g>
</g>
<g>
</g>
<g>
</g>
</svg>
