<?xml version="1.0" encoding="utf-8"?>
<!-- Generator: Adobe Illustrator 19.0.0, SVG Export Plug-In . SVG Version: 6.00 Build 0)  -->
<svg version="1.1" id="Layer_1" xmlns="http://www.w3.org/2000/svg" xmlns:xlink="http://www.w3.org/1999/xlink" x="0px" y="0px"
	 viewBox="0 0 30 30" style="enable-background:new 0 0 30 30;" xml:space="preserve">
<g>
	<g>
		<path d="M29,8H1C0.7,8,0.5,7.8,0.5,7.5S0.7,7,1,7h28c0.3,0,0.5,0.2,0.5,0.5S29.3,8,29,8z"/>
	</g>
	<g>
		<path d="M23,11H7c-0.3,0-0.5-0.2-0.5-0.5S6.7,10,7,10h16c0.3,0,0.5,0.2,0.5,0.5S23.3,11,23,11z"/>
	</g>
	<g>
		<path d="M29,14H1c-0.3,0-0.5-0.2-0.5-0.5S0.7,13,1,13h28c0.3,0,0.5,0.2,0.5,0.5S29.3,14,29,14z"/>
	</g>
	<g>
		<path d="M23,17H7c-0.3,0-0.5-0.2-0.5-0.5S6.7,16,7,16h16c0.3,0,0.5,0.2,0.5,0.5S23.3,17,23,17z"/>
	</g>
	<g>
		<path d="M29,20H1c-0.3,0-0.5-0.2-0.5-0.5S0.7,19,1,19h28c0.3,0,0.5,0.2,0.5,0.5S29.3,20,29,20z"/>
	</g>
	<g>
		<path d="M23,23H7c-0.3,0-0.5-0.2-0.5-0.5S6.7,22,7,22h16c0.3,0,0.5,0.2,0.5,0.5S23.3,23,23,23z"/>
	</g>
</g>
</svg>
