<?xml version="1.0" encoding="utf-8"?>
<!-- Generator: Adobe Illustrator 19.0.0, SVG Export Plug-In . SVG Version: 6.00 Build 0)  -->
<svg version="1.1" id="Layer_1" xmlns="http://www.w3.org/2000/svg" xmlns:xlink="http://www.w3.org/1999/xlink" x="0px" y="0px"
	 viewBox="0 0 30 30" style="enable-background:new 0 0 30 30;" xml:space="preserve">
<g>
	<g>
		<path d="M15.5,18.5h-15C0.2,18.5,0,18.3,0,18V3c0-0.3,0.2-0.5,0.5-0.5h15C15.8,2.5,16,2.7,16,3v15C16,18.3,15.8,18.5,15.5,18.5z
			 M1,17.5h14v-14H1V17.5z"/>
	</g>
	<g>
		<path d="M13.5,16.5h-11c-0.2,0-0.3-0.1-0.4-0.2C2,16.2,2,16,2,15.8l3-8c0.1-0.2,0.2-0.3,0.4-0.3c0.2,0,0.4,0.1,0.5,0.3l2.2,4.4
			l2-1.6c0.1-0.1,0.3-0.1,0.4-0.1c0.1,0,0.3,0.1,0.3,0.2l3,5c0.1,0.2,0.1,0.3,0,0.5S13.7,16.5,13.5,16.5z M3.2,15.5h9.4l-2.3-3.8
			l-2.1,1.6c-0.1,0.1-0.3,0.1-0.4,0.1c-0.1,0-0.3-0.1-0.3-0.3l-2-4L3.2,15.5z"/>
	</g>
	<g>
		<path d="M29.5,3.5h-10C19.2,3.5,19,3.3,19,3s0.2-0.5,0.5-0.5h10C29.8,2.5,30,2.7,30,3S29.8,3.5,29.5,3.5z"/>
	</g>
	<g>
		<path d="M29.5,6.5h-10C19.2,6.5,19,6.3,19,6s0.2-0.5,0.5-0.5h10C29.8,5.5,30,5.7,30,6S29.8,6.5,29.5,6.5z"/>
	</g>
	<g>
		<path d="M29.5,9.5h-10C19.2,9.5,19,9.3,19,9s0.2-0.5,0.5-0.5h10C29.8,8.5,30,8.7,30,9S29.8,9.5,29.5,9.5z"/>
	</g>
	<g>
		<path d="M29.5,12.5h-10c-0.3,0-0.5-0.2-0.5-0.5s0.2-0.5,0.5-0.5h10c0.3,0,0.5,0.2,0.5,0.5S29.8,12.5,29.5,12.5z"/>
	</g>
	<g>
		<path d="M29.5,15.5h-10c-0.3,0-0.5-0.2-0.5-0.5s0.2-0.5,0.5-0.5h10c0.3,0,0.5,0.2,0.5,0.5S29.8,15.5,29.5,15.5z"/>
	</g>
	<g>
		<path d="M29.5,18.5h-10c-0.3,0-0.5-0.2-0.5-0.5s0.2-0.5,0.5-0.5h10c0.3,0,0.5,0.2,0.5,0.5S29.8,18.5,29.5,18.5z"/>
	</g>
	<g>
		<path d="M29.5,21.5h-29C0.2,21.5,0,21.3,0,21s0.2-0.5,0.5-0.5h29c0.3,0,0.5,0.2,0.5,0.5S29.8,21.5,29.5,21.5z"/>
	</g>
	<g>
		<path d="M29.5,24.5h-29C0.2,24.5,0,24.3,0,24s0.2-0.5,0.5-0.5h29c0.3,0,0.5,0.2,0.5,0.5S29.8,24.5,29.5,24.5z"/>
	</g>
	<g>
		<path d="M29.5,27.5h-29C0.2,27.5,0,27.3,0,27s0.2-0.5,0.5-0.5h29c0.3,0,0.5,0.2,0.5,0.5S29.8,27.5,29.5,27.5z"/>
	</g>
	<g>
		<path d="M10.5,9.5C9.1,9.5,8,8.4,8,7s1.1-2.5,2.5-2.5S13,5.6,13,7S11.9,9.5,10.5,9.5z M10.5,5.5C9.7,5.5,9,6.2,9,7
			s0.7,1.5,1.5,1.5S12,7.8,12,7S11.3,5.5,10.5,5.5z"/>
	</g>
</g>
</svg>
