<?xml version="1.0" encoding="iso-8859-1"?>
<!-- Generator: Adobe Illustrator 19.0.0, SVG Export Plug-In . SVG Version: 6.00 Build 0)  -->
<svg version="1.1" id="Layer_1" xmlns="http://www.w3.org/2000/svg" xmlns:xlink="http://www.w3.org/1999/xlink" x="0px" y="0px"
	 viewBox="0 0 24 24" style="enable-background:new 0 0 24 24;" xml:space="preserve">
<g>
	<path d="M15,0h-2c-0.276,0-0.5,0.224-0.5,0.5v6C12.5,6.776,12.724,7,13,7h2c0.276,0,0.5-0.224,0.5-0.5v-6C15.5,0.224,15.276,0,15,0
		z"/>
	<path d="M23.354,2.147l-2-2C21.26,0.053,21.133,0,21,0h-2c-0.276,0-0.5,0.224-0.5,0.5v6C18.5,7.328,17.828,8,17,8h-1h-4H8
		C7.172,8,6.5,7.328,6.5,6.5v-6C6.5,0.224,6.276,0,6,0H2C1.867,0,1.74,0.053,1.647,0.146l-1,1C0.553,1.24,0.5,1.367,0.5,1.5v21
		c0,0.133,0.053,0.26,0.146,0.353l1,1C1.74,23.947,1.867,24,2,24h20c0.133,0,0.26-0.053,0.354-0.146l1-1
		C23.447,22.76,23.5,22.633,23.5,22.5v-20C23.5,2.367,23.447,2.24,23.354,2.147z M21.5,22.5c0,0.276-0.224,0.5-0.5,0.5H3
		c-0.276,0-0.5-0.224-0.5-0.5v-12C2.5,9.673,3.173,9,4,9h16c0.827,0,1.5,0.673,1.5,1.5V22.5z"/>
	<path d="M17.189,14.744c-0.045-0.132-0.142-0.239-0.269-0.295c-0.127-0.057-0.271-0.059-0.4-0.004
		c-0.229,0.1-0.504,0.014-0.624-0.194c-0.124-0.214-0.063-0.482,0.145-0.638c0.111-0.083,0.183-0.21,0.197-0.349
		c0.014-0.138-0.03-0.276-0.122-0.381c-0.816-0.928-1.867-1.542-3.039-1.774c-0.137-0.03-0.282,0.004-0.395,0.088
		c-0.113,0.083-0.186,0.211-0.201,0.351C12.456,11.806,12.249,12,12,12s-0.456-0.194-0.482-0.453
		c-0.015-0.14-0.087-0.268-0.201-0.351c-0.113-0.084-0.257-0.118-0.395-0.088C9.75,11.341,8.7,11.955,7.884,12.883
		c-0.092,0.104-0.136,0.243-0.122,0.381c0.014,0.139,0.085,0.265,0.197,0.349c0.207,0.156,0.268,0.424,0.145,0.638
		c-0.12,0.207-0.393,0.292-0.624,0.194c-0.128-0.055-0.273-0.053-0.4,0.004c-0.127,0.057-0.224,0.164-0.269,0.295
		C6.602,15.36,6.5,15.935,6.5,16.5s0.102,1.14,0.311,1.756c0.045,0.132,0.142,0.239,0.269,0.295c0.126,0.057,0.272,0.059,0.4,0.004
		c0.232-0.097,0.504-0.013,0.624,0.194c0.124,0.214,0.063,0.482-0.145,0.638c-0.111,0.083-0.183,0.21-0.197,0.349
		c-0.014,0.138,0.03,0.276,0.122,0.381c0.816,0.928,1.867,1.542,3.039,1.774c0.136,0.028,0.281-0.004,0.395-0.088
		c0.113-0.083,0.186-0.211,0.201-0.351C11.544,21.194,11.751,21,12,21s0.456,0.194,0.482,0.453c0.015,0.14,0.087,0.268,0.201,0.351
		c0.086,0.064,0.191,0.098,0.297,0.098c0.033,0,0.065-0.003,0.098-0.01c1.172-0.233,2.223-0.847,3.039-1.774
		c0.092-0.104,0.136-0.243,0.122-0.381c-0.014-0.139-0.085-0.265-0.197-0.349c-0.207-0.156-0.268-0.424-0.145-0.638
		c0.119-0.208,0.392-0.293,0.624-0.194c0.128,0.054,0.273,0.052,0.4-0.004s0.224-0.164,0.269-0.295
		C17.398,17.64,17.5,17.065,17.5,16.5S17.398,15.36,17.189,14.744z M12,18c-0.827,0-1.5-0.673-1.5-1.5S11.173,15,12,15
		s1.5,0.673,1.5,1.5S12.827,18,12,18z"/>
</g>
<g>
</g>
<g>
</g>
<g>
</g>
<g>
</g>
<g>
</g>
<g>
</g>
<g>
</g>
<g>
</g>
<g>
</g>
<g>
</g>
<g>
</g>
<g>
</g>
<g>
</g>
<g>
</g>
<g>
</g>
</svg>
