<?xml version="1.0" encoding="utf-8"?>
<!-- Generator: Adobe Illustrator 19.0.0, SVG Export Plug-In . SVG Version: 6.00 Build 0)  -->
<svg version="1.1" id="Layer_1" xmlns="http://www.w3.org/2000/svg" xmlns:xlink="http://www.w3.org/1999/xlink" x="0px" y="0px"
	 viewBox="0 0 30 30" style="enable-background:new 0 0 30 30;" xml:space="preserve">
<g>
	<g>
		<path d="M29,26.5c-1.4,0-2,0.6-2.7,1.1c-0.6,0.5-1,0.9-2,0.9s-1.5-0.4-2-0.9c-0.6-0.5-1.3-1.1-2.7-1.1c-1.4,0-2,0.6-2.7,1.1
			c-0.6,0.5-1,0.9-2,0.9c-1,0-1.5-0.4-2-0.9c-0.6-0.5-1.3-1.1-2.7-1.1s-2,0.6-2.7,1.1c-0.6,0.5-1,0.9-2,0.9c-1,0-1.5-0.4-2-0.9
			C3,27.1,2.4,26.5,1,26.5c-0.3,0-0.5,0.2-0.5,0.5s0.2,0.5,0.5,0.5c1,0,1.5,0.4,2,0.9c0.6,0.5,1.3,1.1,2.7,1.1s2-0.6,2.7-1.1
			c0.6-0.5,1-0.9,2-0.9c1,0,1.5,0.4,2,0.9c0.6,0.5,1.3,1.1,2.7,1.1c1.4,0,2-0.6,2.7-1.1c0.6-0.5,1-0.9,2-0.9c1,0,1.5,0.4,2,0.9
			c0.6,0.5,1.3,1.1,2.7,1.1c1.4,0,2-0.6,2.7-1.1c0.6-0.5,1-0.9,2-0.9c0.3,0,0.5-0.2,0.5-0.5S29.3,26.5,29,26.5z"/>
	</g>
	<g>
		<path d="M8,3.5h4c0.3,0,0.5-0.2,0.5-0.5V1c0-0.3-0.2-0.5-0.5-0.5H8C7.7,0.5,7.5,0.7,7.5,1v2C7.5,3.3,7.7,3.5,8,3.5z"/>
	</g>
	<g>
		<path d="M14,3.5h8c0.3,0,0.5-0.2,0.5-0.5V1c0-0.3-0.2-0.5-0.5-0.5h-8c-0.3,0-0.5,0.2-0.5,0.5v2C13.5,3.3,13.7,3.5,14,3.5z"/>
	</g>
	<g>
		<path d="M14,9.5h-3c-0.3,0-0.5,0.2-0.5,0.5v2.3c0,0.2,0.1,0.3,0.2,0.4c0.1,0.1,0.2,0.1,0.3,0.1c0,0,0.1,0,0.1,0l3-0.7
			c0.2-0.1,0.4-0.3,0.4-0.5V10C14.5,9.7,14.3,9.5,14,9.5z"/>
	</g>
	<g>
		<path d="M14.5,5c0-0.3-0.2-0.5-0.5-0.5h-3c-0.3,0-0.5,0.2-0.5,0.5v3c0,0.3,0.2,0.5,0.5,0.5h3c0.3,0,0.5-0.2,0.5-0.5V5z"/>
	</g>
	<g>
		<path d="M24,9.5h-4c-0.3,0-0.5,0.2-0.5,0.5v2.6c0,0.2,0.2,0.4,0.4,0.5l4,0.9c0,0,0.1,0,0.1,0c0.1,0,0.2,0,0.3-0.1
			c0.1-0.1,0.2-0.2,0.2-0.4V10C24.5,9.7,24.3,9.5,24,9.5z"/>
	</g>
	<g>
		<path d="M18.5,5c0-0.3-0.2-0.5-0.5-0.5h-2c-0.3,0-0.5,0.2-0.5,0.5v3c0,0.3,0.2,0.5,0.5,0.5h2c0.3,0,0.5-0.2,0.5-0.5V5z"/>
	</g>
	<g>
		<path d="M18,9.5h-2c-0.3,0-0.5,0.2-0.5,0.5v1.7c0,0.2,0.2,0.4,0.4,0.5l2,0.5c0,0,0.1,0,0.1,0c0.1,0,0.2,0,0.3-0.1
			c0.1-0.1,0.2-0.2,0.2-0.4V10C18.5,9.7,18.3,9.5,18,9.5z"/>
	</g>
	<g>
		<path d="M19.5,5v3c0,0.3,0.2,0.5,0.5,0.5h4c0.3,0,0.5-0.2,0.5-0.5V5c0-0.3-0.2-0.5-0.5-0.5h-4C19.7,4.5,19.5,4.7,19.5,5z"/>
	</g>
	<g>
		<path d="M6,14c0,0,0.1,0,0.1,0l3-0.7c0.2-0.1,0.4-0.3,0.4-0.5V10c0-0.3-0.2-0.5-0.5-0.5H6c-0.3,0-0.5,0.2-0.5,0.5v3.5
			c0,0.2,0.1,0.3,0.2,0.4C5.8,13.9,5.9,14,6,14z"/>
	</g>
	<g>
		<path d="M6,8.5h3c0.3,0,0.5-0.2,0.5-0.5V5c0-0.3-0.2-0.5-0.5-0.5H6C5.7,4.5,5.5,4.7,5.5,5v3C5.5,8.3,5.7,8.5,6,8.5z"/>
	</g>
	<g>
		<path d="M1,24.5c1,0,1.5,0.4,2,0.9c0.6,0.5,1.3,1.1,2.7,1.1c1.4,0,2-0.6,2.7-1.1c0.1-0.1,0.1-0.1,0.2-0.2c0,0,0,0,0,0
			c0.1-0.1,0.2-0.2,0.3-0.2c0.1,0,0.1-0.1,0.2-0.1c0.1,0,0.1-0.1,0.2-0.1c0.1,0,0.2-0.1,0.3-0.1c0.1,0,0.1,0,0.2-0.1
			c0.2,0,0.4-0.1,0.6-0.1c1,0,1.5,0.4,2,0.9c0.6,0.5,1.3,1.1,2.7,1.1c1.2,0,1.9-0.5,2.4-0.9c0.1-0.1,0.2-0.1,0.2-0.2
			c0.6-0.5,1-0.9,2-0.9c0.2,0,0.4,0,0.6,0.1c0.1,0,0.1,0,0.2,0.1c0.1,0,0.2,0.1,0.3,0.1c0.1,0,0.1,0.1,0.2,0.1
			c0.1,0,0.1,0.1,0.2,0.1c0.1,0.1,0.2,0.1,0.3,0.2c0,0,0,0,0,0c0.1,0.1,0.1,0.1,0.2,0.2c0.6,0.5,1.3,1.1,2.7,1.1
			c1.4,0,2-0.6,2.7-1.1c0.6-0.5,1-0.9,2-0.9c0.3,0,0.5-0.2,0.5-0.5s-0.2-0.5-0.5-0.5c-1.4,0-2,0.6-2.7,1.1c-0.6,0.5-1,0.9-2,0.9
			c-0.9,0-1.4-0.4-1.9-0.8l4-8.5c0.1-0.1,0.1-0.3,0-0.4s-0.2-0.2-0.3-0.3l-11-2.5c-0.1,0-0.1,0-0.2,0l-11,2.5
			c-0.1,0-0.3,0.1-0.3,0.3c-0.1,0.1-0.1,0.3,0,0.4l4,8.5c-0.5,0.4-1,0.8-1.9,0.8c-1,0-1.5-0.4-2-0.9C3,24.1,2.3,23.5,1,23.5
			c-0.3,0-0.5,0.2-0.5,0.5S0.7,24.5,1,24.5z M15,15.5c0.3,0,0.5,0.2,0.5,0.5v9.4c-0.2,0-0.3,0.1-0.5,0.1c-0.2,0-0.3,0-0.5-0.1V16
			C14.5,15.7,14.7,15.5,15,15.5z"/>
	</g>
</g>
</svg>
