<?xml version="1.0" encoding="utf-8"?>
<!-- Generator: Adobe Illustrator 19.0.0, SVG Export Plug-In . SVG Version: 6.00 Build 0)  -->
<svg version="1.1" id="Layer_1" xmlns="http://www.w3.org/2000/svg" xmlns:xlink="http://www.w3.org/1999/xlink" x="0px" y="0px"
	 viewBox="0 0 30 30" style="enable-background:new 0 0 30 30;" xml:space="preserve">
<g>
	<g>
		<path d="M1.5,5.8l3,2.4c0.1,0.1,0.2,0.1,0.3,0.1c0.1,0,0.3-0.1,0.4-0.2C5.4,8,5.4,7.6,5.2,7.5L3.1,5.8c1.3-0.1,2.3-1.1,2.3-2.4
			C5.4,2.1,4.3,1,2.9,1H1C0.7,1,0.5,1.2,0.5,1.5v6.4c0,0.3,0.2,0.5,0.5,0.5s0.5-0.2,0.5-0.5V5.8z M1.5,2h1.4c0.8,0,1.4,0.6,1.4,1.4
			S3.7,4.8,2.9,4.8H1.6c0,0-0.1,0-0.1,0V2z"/>
	</g>
	<g>
		<path d="M9.9,3.8L10.5,3v4.5C10.5,7.8,10.7,8,11,8s0.5-0.2,0.5-0.5v-6c0-0.2-0.1-0.4-0.3-0.5C11,1,10.7,1,10.6,1.2l-1.5,2
			C8.9,3.4,9,3.7,9.2,3.9C9.4,4.1,9.7,4,9.9,3.8z"/>
	</g>
	<g>
		<path d="M17,4.4c0.3,0,0.5-0.2,0.5-0.5V3.2c0-0.7,0.6-1.2,1.4-1.2h0.2c0.8,0,1.4,0.5,1.4,1.2c0,0.3-0.1,0.6-0.4,0.8l-3.4,3.1
			c-0.2,0.1-0.2,0.4-0.1,0.6S16.8,8,17,8h4c0.3,0,0.5-0.2,0.5-0.5S21.3,7,21,7h-2.7l2.5-2.2c0.5-0.4,0.7-1,0.7-1.6
			C21.5,2,20.4,1,19.1,1h-0.2c-1.3,0-2.4,1-2.4,2.2v0.7C16.5,4.2,16.7,4.4,17,4.4z"/>
	</g>
	<g>
		<path d="M29.5,2.7c0-0.9-0.8-1.7-1.8-1.7h-1.3c-1,0-1.8,0.8-1.8,1.7c0,0.3,0.2,0.5,0.5,0.5s0.5-0.2,0.5-0.5c0-0.4,0.4-0.7,0.8-0.7
			h1.3c0.5,0,0.8,0.3,0.8,0.7c0,0.4-0.4,0.7-0.8,0.7h-1.3c-0.3,0-0.5,0.2-0.5,0.5s0.2,0.5,0.5,0.5h1.3c0.5,0,0.8,0.3,0.8,0.7v1.2
			c0,0.4-0.4,0.7-0.8,0.7h-1.3c-0.5,0-0.8-0.3-0.8-0.7c0-0.3-0.2-0.5-0.5-0.5S24.5,6,24.5,6.3c0,0.9,0.8,1.7,1.8,1.7h1.3
			c1,0,1.8-0.8,1.8-1.7V5.1c0-0.5-0.2-0.9-0.5-1.2C29.3,3.6,29.5,3.2,29.5,2.7z"/>
	</g>
	<g>
		<path d="M27,10c-0.3,0-0.5,0.2-0.5,0.5V15h-7v-4.5c0-0.3-0.2-0.5-0.5-0.5s-0.5,0.2-0.5,0.5V15h-7v-4.5c0-0.3-0.2-0.5-0.5-0.5
			s-0.5,0.2-0.5,0.5V15H5.9c-1.9,0-3.4-1.5-3.4-3.3v-1.3C2.5,10.2,2.3,10,2,10s-0.5,0.2-0.5,0.5v1.3c0,2.3,2,4.3,4.4,4.3h4.6v4.5
			c0,0.3,0.2,0.5,0.5,0.5s0.5-0.2,0.5-0.5V16h7v4.5c0,0.3,0.2,0.5,0.5,0.5s0.5-0.2,0.5-0.5V16H27c0.3,0,0.5-0.2,0.5-0.5v-5
			C27.5,10.2,27.3,10,27,10z"/>
	</g>
	<g>
		<path d="M12,26h-0.5v-0.5c0-0.3-0.2-0.5-0.5-0.5s-0.5,0.2-0.5,0.5V26H8.8l1.5-3.3c0.1-0.3,0-0.5-0.2-0.7c-0.3-0.1-0.5,0-0.7,0.2
			l-1.8,4c-0.1,0.2-0.1,0.3,0,0.5C7.7,26.9,7.8,27,8,27h2.5v1.5c0,0.3,0.2,0.5,0.5,0.5s0.5-0.2,0.5-0.5V27H12c0.3,0,0.5-0.2,0.5-0.5
			S12.3,26,12,26z"/>
	</g>
	<g>
		<path d="M20,23c0.3,0,0.5-0.2,0.5-0.5S20.3,22,20,22h-4c-0.3,0-0.5,0.2-0.5,0.5v1.2c0,0.9,0.8,1.7,1.8,1.7H18
			c0.8,0,1.5,0.6,1.5,1.3S18.8,28,18,28s-1.5-0.6-1.5-1.3c0-0.3-0.2-0.5-0.5-0.5s-0.5,0.2-0.5,0.5c0,1.3,1.1,2.3,2.5,2.3
			s2.5-1,2.5-2.3s-1.1-2.3-2.5-2.3h-0.7c-0.5,0-0.8-0.3-0.8-0.7V23H20z"/>
	</g>
</g>
</svg>
