<?xml version="1.0" encoding="utf-8"?>
<!-- Generator: Adobe Illustrator 19.0.0, SVG Export Plug-In . SVG Version: 6.00 Build 0)  -->
<svg version="1.1" id="Layer_1" xmlns="http://www.w3.org/2000/svg" xmlns:xlink="http://www.w3.org/1999/xlink" x="0px" y="0px"
	 viewBox="0 0 30 30" style="enable-background:new 0 0 30 30;" xml:space="preserve">
<g>
	<g>
		<path d="M23,10c0.3,0,0.5-0.2,0.5-0.5v-8C23.5,1.2,23.3,1,23,1s-0.5,0.2-0.5,0.5v4v4C22.5,9.8,22.7,10,23,10z"/>
	</g>
	<g>
		<path d="M23,20c-0.3,0-0.5,0.2-0.5,0.5v4v4c0,0.3,0.2,0.5,0.5,0.5s0.5-0.2,0.5-0.5v-8C23.5,20.2,23.3,20,23,20z"/>
	</g>
	<g>
		<path d="M19,11c-3.9,0-8.7,0.8-11.9,1.5C6.9,11.4,6.4,10,5.5,10c-1.1,0-1.5,2.1-1.7,3.5c-0.6,0.3-1.3,0.8-1.3,1.5s0.7,1.2,1.3,1.5
			C4,17.9,4.4,20,5.5,20c0.9,0,1.4-1.4,1.6-2.5C10.3,18.2,15.1,19,19,19c5.7,0,8.5-1.3,8.5-4S24.7,11,19,11z M23.2,17
			c-0.1,0-0.1,0-0.2,0c-0.2,0-0.4-0.1-0.5-0.3c-0.1-0.3,0-0.5,0.3-0.6c0.1,0,0.7-0.3,0.7-1s-0.6-1-0.7-1c-0.3-0.1-0.4-0.4-0.3-0.6
			c0.1-0.3,0.4-0.4,0.6-0.3c0.1,0,1.3,0.5,1.3,2S23.2,16.9,23.2,17z"/>
	</g>
	<g>
		<path d="M14.3,10.3C14.3,10.3,14.3,10.3,14.3,10.3c2.8-0.3,5-0.4,6.9-0.2c0,0,0,0,0,0c0,0,0,0,0,0c0.3,0,0.5-0.2,0.5-0.5
			c0-0.1,0-0.1,0-0.2l-0.3-2.4c0.6-0.2,1.1-0.8,1.1-1.4C22.5,4.7,21.8,4,21,4l-0.2-1.4C20.6,1.1,19.4,0,17.9,0
			c-1.5,0-2.8,1.2-2.9,2.7l-1.2,7.1c0,0.2,0,0.3,0.1,0.4C14,10.2,14.1,10.3,14.3,10.3z"/>
	</g>
	<g>
		<path d="M21.4,23.1l0.3-2.6c0-0.1,0-0.3-0.1-0.4s-0.3-0.2-0.4-0.2c-1.9,0.1-4.1,0.1-6.9-0.2c-0.2,0-0.3,0-0.4,0.2
			c-0.1,0.1-0.2,0.3-0.1,0.4l1.2,7c0.1,1.5,1.4,2.7,3,2.7c1.5,0,2.7-1.1,2.9-2.6L21,26c0.8,0,1.5-0.7,1.5-1.5
			C22.5,23.8,22,23.2,21.4,23.1z"/>
	</g>
</g>
</svg>
