<?xml version="1.0" encoding="utf-8"?>
<!-- Generator: Adobe Illustrator 19.0.0, SVG Export Plug-In . SVG Version: 6.00 Build 0)  -->
<svg version="1.1" id="Layer_1" xmlns="http://www.w3.org/2000/svg" xmlns:xlink="http://www.w3.org/1999/xlink" x="0px" y="0px"
	 viewBox="0 0 30 30" style="enable-background:new 0 0 30 30;" xml:space="preserve">
<g>
	<g>
		<path d="M29,27c-1.4,0-2,0.6-2.7,1.1c-0.6,0.5-1,0.9-2,0.9s-1.5-0.4-2-0.9C21.7,27.6,21,27,19.7,27c-1.4,0-2,0.6-2.7,1.1
			c-0.6,0.5-1,0.9-2,0.9s-1.5-0.4-2-0.9c-0.6-0.5-1.3-1.1-2.7-1.1s-2,0.6-2.7,1.1c-0.6,0.5-1,0.9-2,0.9s-1.5-0.4-2-0.9
			C3,27.6,2.4,27,1,27c-0.3,0-0.5,0.2-0.5,0.5S0.7,28,1,28c1,0,1.5,0.4,2,0.9C3.6,29.4,4.3,30,5.7,30c1.4,0,2-0.6,2.7-1.1
			c0.6-0.5,1-0.9,2-0.9c1,0,1.5,0.4,2,0.9c0.6,0.5,1.3,1.1,2.7,1.1s2-0.6,2.7-1.1c0.6-0.5,1-0.9,2-0.9c1,0,1.5,0.4,2,0.9
			c0.6,0.5,1.3,1.1,2.7,1.1c1.4,0,2-0.6,2.7-1.1c0.6-0.5,1-0.9,2-0.9c0.3,0,0.5-0.2,0.5-0.5S29.3,27,29,27z"/>
	</g>
	<g>
		<path d="M6.4,12.3c0,0,0.1,0,0.1,0l8.1-2.2c0.2-0.1,0.5-0.1,0.8,0l8.1,2c0,0,0.1,0,0.1,0c0,0,0,0,0,0c0.3,0,0.5-0.2,0.5-0.5
			c0-0.1,0-0.1,0-0.2l-0.7-4.1c-0.2-1.2-1.1-2.1-2.3-2.4c-1.4-0.3-3.5-0.7-5.6-0.8V1H17c0.3,0,0.5-0.2,0.5-0.5S17.3,0,17,0h-4
			c-0.3,0-0.5,0.2-0.5,0.5S12.7,1,13,1h1.5v3c-2.1,0.1-4.2,0.4-5.6,0.8C7.7,5.1,6.8,6,6.6,7.2l-0.7,4.5c0,0.2,0,0.3,0.2,0.5
			C6.2,12.2,6.3,12.3,6.4,12.3z M9.2,8.3c0.1-0.1,2.1-1.3,6-1.3c3.9,0,5.9,1.3,6,1.3c0.2,0.1,0.3,0.5,0.2,0.7
			c-0.1,0.1-0.3,0.2-0.4,0.2c-0.1,0-0.2,0-0.3-0.1c0,0-1.9-1.2-5.5-1.2c-3.6,0-5.4,1.2-5.5,1.2C9.5,9.3,9.2,9.3,9.1,9
			C8.9,8.8,9,8.5,9.2,8.3z"/>
	</g>
	<g>
		<path d="M1,25c1,0,1.5,0.4,2,0.9C3.6,26.4,4.3,27,5.7,27c1.4,0,2-0.6,2.7-1.1c0.6-0.5,1-0.9,2-0.9c1,0,1.5,0.4,2,0.9
			c0.6,0.5,1.3,1.1,2.7,1.1c0,0,0,0,0,0c0,0,0,0,0,0c0,0,0,0,0,0c0,0,0,0,0,0c1.3,0,2-0.6,2.6-1.1c0.6-0.5,1-0.9,2-0.9l1.1,0.2
			c0.3,0.2,0.6,0.4,0.9,0.6c0.6,0.5,1.3,1.1,2.7,1.1c1.4,0,2-0.6,2.7-1.1c0.6-0.5,1-0.9,2-0.9c0.3,0,0.5-0.2,0.5-0.5S29.3,24,29,24
			c-1.4,0-2,0.6-2.7,1.1c-0.6,0.5-1,0.9-2,0.9c-0.9,0-1.4-0.4-1.9-0.8c0,0,0,0,0,0l5-10.5c0.1-0.1,0.1-0.3,0-0.4
			c-0.1-0.1-0.2-0.2-0.3-0.3l-12-3c-0.1,0-0.2,0-0.3,0l-11,3c-0.1,0-0.3,0.1-0.3,0.3c-0.1,0.1-0.1,0.3,0,0.4l4,10.5c0,0,0,0,0,0
			c-0.5,0.4-1,0.8-1.9,0.8c-1,0-1.5-0.4-2-0.9C3,24.6,2.3,24,1,24c-0.3,0-0.5,0.2-0.5,0.5S0.7,25,1,25z M15,14
			c0.3,0,0.5,0.2,0.5,0.5v11.4C15.3,26,15.2,26,15,26c-0.2,0-0.3,0-0.5-0.1V14.5C14.5,14.2,14.7,14,15,14z"/>
	</g>
</g>
</svg>
