<?xml version="1.0" encoding="utf-8"?>
<!-- Generator: Adobe Illustrator 19.0.0, SVG Export Plug-In . SVG Version: 6.00 Build 0)  -->
<svg version="1.1" id="Layer_1" xmlns="http://www.w3.org/2000/svg" xmlns:xlink="http://www.w3.org/1999/xlink" x="0px" y="0px"
	 viewBox="0 0 30 30" style="enable-background:new 0 0 30 30;" xml:space="preserve">
<g>
	<g>
		<path d="M3,7l0.1,0c0,0,0.1,0,0.1,0h1.5c0.2,0,0.3-0.1,0.4-0.2c0.5-0.7,1.2-1.3,2.1-1.6C7.4,5.2,7.5,5,7.6,4.9C7.9,3.8,8.9,3,10,3
			c1,0,2,0.7,2.3,1.7C12.4,4.9,12.6,5,12.8,5h4.4c0.2,0,0.4-0.1,0.5-0.3C18,3.7,19,3,20,3c1.1,0,2.1,0.8,2.4,1.9
			c0,0.2,0.2,0.3,0.3,0.3c0.9,0.3,1.6,0.8,2.1,1.6C24.9,6.9,25.1,7,25.2,7h1.5c0,0,0.1,0,0.1,0L27,7c0,0,0,0,0,0
			c0.1,0,0.2,0,0.3-0.1c0.1-0.1,0.2-0.2,0.2-0.4V1.8c0-1-0.8-1.8-1.8-1.8H4.3c-1,0-1.8,0.8-1.8,1.8v4.8c0,0.1,0.1,0.3,0.2,0.4
			C2.8,7,2.9,7,3,7z"/>
	</g>
	<g>
		<circle cx="6" cy="22.5" r="1.5"/>
	</g>
	<g>
		<rect x="8.5" y="18" width="13" height="4"/>
	</g>
	<g>
		<circle cx="24" cy="22.5" r="1.5"/>
	</g>
	<g>
		<path d="M21.6,23H8.4c-0.2,1.1-1.2,2-2.4,2h18C22.8,25,21.8,24.1,21.6,23z"/>
	</g>
	<g>
		<path d="M29,10h-0.5V9.8c0-1-0.8-1.8-1.8-1.8h-2.4c-0.4-1.2-1.5-2-2.9-2h0c0.1-0.2,0.1-0.3,0.1-0.5C21.5,4.7,20.8,4,20,4
			s-1.5,0.7-1.5,1.5c0,0.2,0,0.3,0.1,0.5h-7.2c0.1-0.2,0.1-0.3,0.1-0.5C11.5,4.7,10.8,4,10,4S8.5,4.7,8.5,5.5c0,0.2,0,0.3,0.1,0.5h0
			C7.2,6,6.1,6.8,5.7,8H3.3c-1,0-1.8,0.8-1.8,1.8V10H1c-0.3,0-0.5,0.2-0.5,0.5v5C0.5,15.8,0.7,16,1,16h1.5v8H2
			c-0.3,0-0.5,0.2-0.5,0.5V25H6c-1.4,0-2.5-1.1-2.5-2.5c0-0.8,0.4-1.5,1-2h0V9h1c0,0,0,0,0,0v11C5.7,20,5.8,20,6,20
			c0.6,0,1.1,0.2,1.5,0.5v-3C7.5,17.2,7.7,17,8,17h14c0.3,0,0.5,0.2,0.5,0.5v3c0.4-0.3,0.9-0.5,1.5-0.5c0.2,0,0.3,0,0.5,0.1V9
			c0,0,0,0,0,0h1v11.5h0c0.6,0.5,1,1.2,1,2c0,1.4-1.1,2.5-2.5,2.5h4.5v-0.5c0-0.3-0.2-0.5-0.5-0.5h-0.5v-8H29c0.3,0,0.5-0.2,0.5-0.5
			v-5C29.5,10.2,29.3,10,29,10z M7.5,14.5v-3C7.5,10.1,8.6,9,10,9h4.5v6H8C7.7,15,7.5,14.8,7.5,14.5z M22.5,14.5
			c0,0.3-0.2,0.5-0.5,0.5h-6.5V9H20c1.4,0,2.5,1.1,2.5,2.5V14.5z"/>
	</g>
	<g>
		<path d="M1.5,27.5C1.5,27.8,1.7,28,2,28h0.5v1.5C2.5,29.8,2.7,30,3,30h5c0.3,0,0.5-0.2,0.5-0.5V28h13v1.5c0,0.3,0.2,0.5,0.5,0.5h5
			c0.3,0,0.5-0.2,0.5-0.5V28H28c0.3,0,0.5-0.2,0.5-0.5V26h-27V27.5z"/>
	</g>
</g>
</svg>
