<?xml version="1.0" encoding="utf-8"?>
<!-- Generator: Adobe Illustrator 19.0.0, SVG Export Plug-In . SVG Version: 6.00 Build 0)  -->
<svg version="1.1" id="Layer_1" xmlns="http://www.w3.org/2000/svg" xmlns:xlink="http://www.w3.org/1999/xlink" x="0px" y="0px"
	 viewBox="0 0 30 30" style="enable-background:new 0 0 30 30;" xml:space="preserve">
<g>
	<g>
		<g>
			<path d="M8.5,20H1.7c-0.3,0-0.5-0.2-0.5-0.5S1.5,19,1.7,19h6.2c-0.3-1-1.5-2-2.4-2H2c-0.3,0-0.5-0.2-0.5-0.5S1.7,16,2,16h3.5
				C7.2,16,9,17.8,9,19.5C9,19.8,8.8,20,8.5,20z"/>
		</g>
		<g>
			<path d="M18.5,21h-7c-0.2,0-0.4-0.2-0.5-0.4l-1-4c0-0.1,0-0.3,0.1-0.4c0.1-0.1,0.2-0.2,0.4-0.2h9c0.2,0,0.3,0.1,0.4,0.2
				c0.1,0.1,0.1,0.3,0.1,0.4l-1,4C18.9,20.8,18.7,21,18.5,21z M11.9,20h6.2l0.8-3h-7.7L11.9,20z"/>
		</g>
		<g>
			<path d="M3.5,13.5c0,0-0.1,0-0.1,0C1.8,13.1,0,12.4,0,11.4c0-0.8,0.3-1.4,0.8-1.8C1.7,8.8,3,9,3.1,9c0.2,0,0.3,0.1,0.4,0.3
				l1.2,2.5c0.1,0.2,0.1,0.4,0,0.5l-0.7,1C3.8,13.4,3.7,13.5,3.5,13.5z M2.6,10c-0.3,0-0.8,0.1-1.2,0.3C1.1,10.5,1,10.9,1,11.4
				c0.1,0.2,1.2,0.7,2.3,1l0.4-0.5l-1-2C2.6,10,2.6,10,2.6,10z"/>
		</g>
		<g>
			<path d="M26.7,25c-0.1,0-0.3,0-0.4-0.1c-0.2-0.2-0.2-0.5,0-0.7c0.8-0.8,1.6-3,1.6-5.1c0-2.2-0.8-5.1-2.3-6.6
				c-0.1-0.1-0.1-0.1-0.1-0.2c-0.9-2.9-3.7-6.2-4.7-6.7c-1.1-0.6-10.9-0.6-12.1,0C7.7,6,5.8,9.2,5,12.1c0,0.1-0.1,0.2-0.1,0.2
				C3.3,13.9,2,16.9,2,19c0,1.3,0,4.3,0.9,5.1c0.2,0.2,0.2,0.5,0,0.7s-0.5,0.2-0.7,0c-1-0.9-1.1-3-1.1-5.9c0-2.4,1.3-5.5,3.1-7.3
				C5,8.8,6.8,5.3,8.3,4.6c1.4-0.7,11.6-0.7,12.9,0c1.4,0.7,4.3,4.2,5.2,7.2c1.8,1.8,2.6,5,2.6,7.3c0,2.3-0.8,4.8-1.9,5.9
				C27,25,26.9,25,26.7,25z"/>
		</g>
		<g>
			<path d="M15,26c-3.6,0-8.5-0.5-8.6-0.5C6.2,25.5,6,25.2,6,25s0.3-0.5,0.5-0.4c0,0,4.9,0.5,8.4,0.5c3.5,0,7.9-0.4,8-0.4
				c0.2,0,0.5,0.2,0.5,0.5c0,0.3-0.2,0.5-0.5,0.5C23,25.6,18.6,26,15,26z"/>
		</g>
		<g>
			<path d="M15,13.5c-2.7,0-10.5-1-10.8-1c-0.3,0-0.5-0.3-0.4-0.6c0-0.3,0.3-0.5,0.6-0.4c0.1,0,8.1,1,10.7,1s10.4-1,10.4-1
				c0.3,0,0.5,0.2,0.6,0.4c0,0.3-0.2,0.5-0.4,0.6C25.2,12.5,17.7,13.5,15,13.5z"/>
		</g>
		<g>
			<path d="M28.5,20h-7c-0.3,0-0.5-0.2-0.5-0.5c0-1.7,1.8-3.5,3.5-3.5H28c0.3,0,0.5,0.2,0.5,0.5S28.3,17,28,17h-3.5
				c-0.9,0-2.1,1-2.4,2h6.4c0.3,0,0.5,0.2,0.5,0.5S28.8,20,28.5,20z"/>
		</g>
		<g>
			<path d="M26.7,13.1c-0.1,0-0.2,0-0.2-0.1l-1.3-0.6c-0.1-0.1-0.2-0.2-0.3-0.3c0-0.1,0-0.3,0.1-0.4l1.5-2.5C26.6,9.1,26.8,9,26.9,9
				c0.1,0,1.4-0.2,2.3,0.6c0.5,0.4,0.8,1.1,0.8,1.9C30,12.6,28,13,26.7,13.1C26.8,13.1,26.8,13.1,26.7,13.1z M26.2,11.8l0.6,0.3
				c1-0.1,2-0.4,2.2-0.7c0-0.5-0.1-0.8-0.4-1.1c-0.4-0.3-1-0.4-1.3-0.4L26.2,11.8z"/>
		</g>
		<g>
			<path d="M19.5,5c-0.2,0-0.4-0.1-0.4-0.3L17.7,2h-5.4l-1.4,2.7c-0.1,0.2-0.4,0.3-0.7,0.2C10,4.8,9.9,4.5,10.1,4.3l1.5-3
				C11.6,1.1,11.8,1,12,1h6c0.2,0,0.4,0.1,0.4,0.3l1.5,3c0.1,0.2,0,0.5-0.2,0.7C19.7,5,19.6,5,19.5,5z"/>
		</g>
	</g>
	<g>
		<path d="M6.5,25.5C6.5,25.5,6.5,25.5,6.5,25.5L2.4,25C2.2,25,2,24.7,2,24.4C2,24.2,2.3,24,2.6,24l4,0.5c0.3,0,0.5,0.3,0.4,0.6
			C7,25.3,6.7,25.5,6.5,25.5z"/>
	</g>
	<g>
		<path d="M23,25.6c-0.2,0-0.5-0.2-0.5-0.4c0-0.3,0.1-0.5,0.4-0.6l3.8-0.6c0.3,0,0.5,0.1,0.6,0.4s-0.1,0.5-0.4,0.6L23,25.6
			C23.1,25.6,23,25.6,23,25.6z"/>
	</g>
	<g>
		<path d="M5,29H4c-1.1,0-2-0.9-2-2v-2.5C2,24.2,2.2,24,2.5,24S3,24.2,3,24.5V27c0,0.6,0.4,1,1,1h1c0.6,0,1-0.4,1-1v-2
			c0-0.3,0.2-0.5,0.5-0.5S7,24.7,7,25v2C7,28.1,6.1,29,5,29z"/>
	</g>
	<g>
		<path d="M25.5,29h-1c-1.1,0-2-0.9-2-2v-1.5c0-0.3,0.2-0.5,0.5-0.5s0.5,0.2,0.5,0.5V27c0,0.6,0.4,1,1,1h1c0.6,0,1-0.4,1-1v-2.5
			c0-0.3,0.2-0.5,0.5-0.5s0.5,0.2,0.5,0.5V27C27.5,28.1,26.6,29,25.5,29z"/>
	</g>
</g>
</svg>
