<?xml version="1.0" encoding="utf-8"?>
<!-- Generator: Adobe Illustrator 19.0.0, SVG Export Plug-In . SVG Version: 6.00 Build 0)  -->
<svg version="1.1" id="Layer_1" xmlns="http://www.w3.org/2000/svg" xmlns:xlink="http://www.w3.org/1999/xlink" x="0px" y="0px"
	 viewBox="0 0 30 30" style="enable-background:new 0 0 30 30;" xml:space="preserve">
<g>
	<g>
		<path d="M26.5,25.5h-23C2.1,25.5,1,24.4,1,23v-8c0-1.4,1.1-2.5,2.5-2.5h23c1.4,0,2.5,1.1,2.5,2.5v8C29,24.4,27.9,25.5,26.5,25.5z
			 M3.5,13.5C2.7,13.5,2,14.2,2,15v8c0,0.8,0.7,1.5,1.5,1.5h23c0.8,0,1.5-0.7,1.5-1.5v-8c0-0.8-0.7-1.5-1.5-1.5H3.5z"/>
	</g>
	<g>
		<path d="M8.5,23.5h-4C4.2,23.5,4,23.3,4,23v-8c0-0.3,0.2-0.5,0.5-0.5h4C8.8,14.5,9,14.7,9,15s-0.2,0.5-0.5,0.5H5v7h3.5
			C8.8,22.5,9,22.7,9,23S8.8,23.5,8.5,23.5z"/>
	</g>
	<g>
		<path d="M7.5,19.5h-3C4.2,19.5,4,19.3,4,19s0.2-0.5,0.5-0.5h3C7.8,18.5,8,18.7,8,19S7.8,19.5,7.5,19.5z"/>
	</g>
	<g>
		<path d="M15.5,23.5c-0.2,0-0.3-0.1-0.4-0.2l-5-8c-0.1-0.2-0.1-0.5,0.2-0.7c0.2-0.1,0.5-0.1,0.7,0.2l5,8c0.1,0.2,0.1,0.5-0.2,0.7
			C15.7,23.5,15.6,23.5,15.5,23.5z"/>
	</g>
	<g>
		<path d="M10.5,23.5c-0.1,0-0.2,0-0.3-0.1c-0.2-0.1-0.3-0.5-0.2-0.7l5-8c0.1-0.2,0.5-0.3,0.7-0.2c0.2,0.1,0.3,0.5,0.2,0.7l-5,8
			C10.8,23.4,10.7,23.5,10.5,23.5z"/>
	</g>
	<g>
		<path d="M18.5,23.5c-0.3,0-0.5-0.2-0.5-0.5v-8c0-0.3,0.2-0.5,0.5-0.5S19,14.7,19,15v8C19,23.3,18.8,23.5,18.5,23.5z"/>
	</g>
	<g>
		<path d="M26.5,15.5h-6c-0.3,0-0.5-0.2-0.5-0.5s0.2-0.5,0.5-0.5h6c0.3,0,0.5,0.2,0.5,0.5S26.8,15.5,26.5,15.5z"/>
	</g>
	<g>
		<path d="M23.5,23.5c-0.3,0-0.5-0.2-0.5-0.5v-8c0-0.3,0.2-0.5,0.5-0.5S24,14.7,24,15v8C24,23.3,23.8,23.5,23.5,23.5z"/>
	</g>
	<g>
		<path d="M22.5,13.5c-0.3,0-0.5-0.2-0.5-0.5V7.5C22,7.2,22.2,7,22.5,7S23,7.2,23,7.5V13C23,13.3,22.8,13.5,22.5,13.5z"/>
	</g>
	<g>
		<path d="M23.5,7.5h-2C19.8,7.5,19,6.7,19,5c0-0.3,0.2-0.5,0.5-0.5h6C25.8,4.5,26,4.7,26,5C26,6.7,25.2,7.5,23.5,7.5z M20,5.5
			c0.1,0.7,0.5,1,1.5,1h2c0.9,0,1.3-0.3,1.5-1H20z"/>
	</g>
	<g>
		<path d="M7.5,13.5C7.2,13.5,7,13.3,7,13V7.5C7,7.2,7.2,7,7.5,7S8,7.2,8,7.5V13C8,13.3,7.8,13.5,7.5,13.5z"/>
	</g>
	<g>
		<path d="M8.5,7.5h-2C4.8,7.5,4,6.7,4,5c0-0.3,0.2-0.5,0.5-0.5h6C10.8,4.5,11,4.7,11,5C11,6.7,10.2,7.5,8.5,7.5z M5,5.5
			c0.1,0.7,0.5,1,1.5,1h2c0.9,0,1.3-0.3,1.5-1H5z"/>
	</g>
</g>
</svg>
