<?xml version="1.0" encoding="utf-8"?>
<!-- Generator: Adobe Illustrator 19.0.0, SVG Export Plug-In . SVG Version: 6.00 Build 0)  -->
<svg version="1.1" id="Layer_1" xmlns="http://www.w3.org/2000/svg" xmlns:xlink="http://www.w3.org/1999/xlink" x="0px" y="0px"
	 viewBox="0 0 30 30" style="enable-background:new 0 0 30 30;" xml:space="preserve">
<g>
	<g>
		<path d="M19,30H3c-1.4,0-2.5-1.1-2.5-2.5v-25C0.5,1.1,1.6,0,3,0h16c1.4,0,2.5,1.1,2.5,2.5v25C21.5,28.9,20.4,30,19,30z M3,1
			C2.2,1,1.5,1.7,1.5,2.5v25C1.5,28.3,2.2,29,3,29h16c0.8,0,1.5-0.7,1.5-1.5v-25C20.5,1.7,19.8,1,19,1H3z"/>
	</g>
	<g>
		<path d="M29,18h-3c-0.3,0-0.5-0.2-0.5-0.5S25.7,17,26,17h2.5V6H26c-0.3,0-0.5-0.2-0.5-0.5S25.7,5,26,5h3c0.3,0,0.5,0.2,0.5,0.5v12
			C29.5,17.8,29.3,18,29,18z"/>
	</g>
	<g>
		<path d="M19,28H3c-0.3,0-0.5-0.2-0.5-0.5v-25C2.5,2.2,2.7,2,3,2h16c0.3,0,0.5,0.2,0.5,0.5v25C19.5,27.8,19.3,28,19,28z M3.5,27h15
			V3h-15V27z"/>
	</g>
	<g>
		<path d="M11,25H6c-0.3,0-0.5-0.2-0.5-0.5v-5.7c0-0.9,0-1.8,0.4-2.7c0.4-0.7,0.6-1.6,0.6-2.4v-1.2C6.5,12.2,6.7,12,7,12h3
			c0.3,0,0.5,0.2,0.5,0.5v1.2c0,0.8,0.2,1.7,0.6,2.4c0.4,0.9,0.4,1.8,0.4,2.7v5.7C11.5,24.8,11.3,25,11,25z M6.5,24h4v-5.2
			c0-0.8,0-1.6-0.3-2.2c-0.4-0.9-0.7-1.9-0.7-2.9V13h-2v0.7c0,1-0.2,2-0.7,2.9c-0.3,0.7-0.3,1.4-0.3,2.2L6.5,24z"/>
	</g>
	<g>
		<path d="M18.5,11h-15C3.2,11,3,10.8,3,10.5S3.2,10,3.5,10h15c0.3,0,0.5,0.2,0.5,0.5S18.8,11,18.5,11z"/>
	</g>
	<g>
		<path d="M16,25h-5c-0.3,0-0.5-0.2-0.5-0.5v-5.7c0-0.9,0-1.8,0.4-2.7c0.4-0.8,0.6-1.6,0.6-2.4v-1.2c0-0.3,0.2-0.5,0.5-0.5h3
			c0.3,0,0.5,0.2,0.5,0.5v1.2c0,0.8,0.2,1.7,0.6,2.4c0.4,0.9,0.4,1.8,0.4,2.7v5.7C16.5,24.8,16.3,25,16,25z M11.5,24h4v-5.2
			c0-0.8,0-1.6-0.3-2.2c-0.4-0.9-0.7-1.9-0.7-2.9V13h-2v0.7c0,1-0.2,2-0.7,2.9c-0.3,0.7-0.3,1.4-0.3,2.2L11.5,24z"/>
	</g>
	<g>
		<path d="M24.5,30c-1.1,0-2-0.9-2-2V2c0-1.1,0.9-2,2-2s2,0.9,2,2v26C26.5,29.1,25.6,30,24.5,30z M24.5,1c-0.6,0-1,0.4-1,1v26
			c0,0.6,0.4,1,1,1s1-0.4,1-1V2C25.5,1.4,25.1,1,24.5,1z"/>
	</g>
</g>
</svg>
