<?xml version="1.0" encoding="utf-8"?>
<!-- Generator: Adobe Illustrator 19.0.0, SVG Export Plug-In . SVG Version: 6.00 Build 0)  -->
<svg version="1.1" id="Layer_1" xmlns="http://www.w3.org/2000/svg" xmlns:xlink="http://www.w3.org/1999/xlink" x="0px" y="0px"
	 viewBox="0 0 30 30" style="enable-background:new 0 0 30 30;" xml:space="preserve">
<g>
	<g>
		<path d="M20.5,23h-11C9.2,23,9,22.8,9,22.5v-1c0-1.4,1.1-2.5,2.5-2.5h7c1.4,0,2.5,1.1,2.5,2.5v1C21,22.8,20.8,23,20.5,23z M10,22
			h10v-0.5c0-0.8-0.7-1.5-1.5-1.5h-7c-0.8,0-1.5,0.7-1.5,1.5V22z"/>
	</g>
	<g>
		<path d="M24.5,12h-19C5.2,12,5,11.8,5,11.5v-3C5,8.2,5.2,8,5.5,8h19C24.8,8,25,8.2,25,8.5v3C25,11.8,24.8,12,24.5,12z M6,11h18V9
			H6V11z"/>
	</g>
	<g>
		<path d="M0.5,23C0.5,23,0.4,23,0.5,23C0.1,22.9,0,22.7,0,22.4l1-5.9L0,7.6C0,7.3,0.2,7,0.4,7C0.7,7,1,7.2,1,7.4l1,9
			c0,0,0,0.1,0,0.1l-1,6C1,22.8,0.7,23,0.5,23z"/>
	</g>
	<g>
		<path d="M6.5,23C6.2,23,6,22.8,6,22.5V17H1.5C1.2,17,1,16.8,1,16.5S1.2,16,1.5,16h5C6.8,16,7,16.2,7,16.5v6C7,22.8,6.8,23,6.5,23z
			"/>
	</g>
	<g>
		<path d="M15.5,20h-1c-0.2,0-0.4-0.2-0.5-0.4l-2-8c-0.1-0.3,0.1-0.5,0.4-0.6c0.3-0.1,0.5,0.1,0.6,0.4l1.9,7.6h0.2l1.9-7.6
			c0.1-0.3,0.3-0.4,0.6-0.4c0.3,0.1,0.4,0.3,0.4,0.6l-2,8C15.9,19.8,15.7,20,15.5,20z"/>
	</g>
	<g>
		<path d="M29.5,23c-0.2,0-0.5-0.2-0.5-0.4l-1-6c0,0,0-0.1,0-0.1l1-9C29,7.2,29.3,7,29.6,7C29.8,7,30,7.3,30,7.6l-1,8.9l1,5.9
			C30,22.7,29.9,22.9,29.5,23C29.6,23,29.5,23,29.5,23z"/>
	</g>
	<g>
		<path d="M23.5,23c-0.3,0-0.5-0.2-0.5-0.5v-6c0-0.3,0.2-0.5,0.5-0.5h5c0.3,0,0.5,0.2,0.5,0.5S28.8,17,28.5,17H24v5.5
			C24,22.8,23.8,23,23.5,23z"/>
	</g>
</g>
</svg>
