<?xml version="1.0" encoding="utf-8"?>
<!-- Generator: Adobe Illustrator 19.0.0, SVG Export Plug-In . SVG Version: 6.00 Build 0)  -->
<svg version="1.1" id="Layer_1" xmlns="http://www.w3.org/2000/svg" xmlns:xlink="http://www.w3.org/1999/xlink" x="0px" y="0px"
	 viewBox="0 0 30 30" style="enable-background:new 0 0 30 30;" xml:space="preserve">
<g>
	<g>
		<path d="M10.5,30h-2c-0.2,0-0.4-0.1-0.4-0.3l-2-4C6,25.5,6,25.3,6.1,25.1l0.6-0.6l-0.6-0.6c-0.2-0.2-0.2-0.5,0-0.7l0.6-0.6
			l-0.6-0.6c-0.2-0.2-0.2-0.5,0-0.7l0.7-0.7l-0.7-0.9C6,19.5,6,19.4,6,19.3v-4.4c0-0.3,0.2-0.5,0.5-0.5S7,14.6,7,14.9v4.2l0.9,1.1
			c0.2,0.2,0.1,0.5,0,0.7l-0.6,0.6l0.6,0.6c0.2,0.2,0.2,0.5,0,0.7l-0.6,0.6l0.6,0.6c0.2,0.2,0.2,0.5,0,0.7l-0.7,0.7L8.8,29h1.4
			l1.8-3.6V15c0-0.3,0.2-0.5,0.5-0.5S13,14.7,13,15v10.5c0,0.1,0,0.2-0.1,0.2l-2,4C10.9,29.9,10.7,30,10.5,30z"/>
	</g>
	<g>
		<path d="M10.5,30c-0.3,0-0.5-0.2-0.5-0.5v-14c0-0.3,0.2-0.5,0.5-0.5s0.5,0.2,0.5,0.5v14C11,29.8,10.8,30,10.5,30z"/>
	</g>
	<g>
		<path d="M10.5,6C10.5,6,10.5,6,10.5,6C10.2,6,10,5.7,10,5.5C10,5.4,10.6,0,16,0c5.2,0,6,4.4,6,4.4c0,0.3-0.1,0.5-0.4,0.6
			c-0.3,0-0.5-0.1-0.6-0.4C21,4.4,20.3,1,16,1c-4.5,0-5,4.4-5,4.6C11,5.8,10.8,6,10.5,6z"/>
	</g>
	<g>
		<path d="M25.5,19c-0.3,0-0.5-0.2-0.5-0.5V17h-2.5c-0.2,0-0.4-0.1-0.4-0.3s-0.1-0.4,0-0.5l2-3c0.2-0.2,0.5-0.3,0.7-0.1
			c0.2,0.2,0.3,0.5,0.1,0.7L23.4,16h2.1c0.3,0,0.5,0.2,0.5,0.5v2C26,18.8,25.8,19,25.5,19z"/>
	</g>
	<g>
		<path d="M21.5,26c-3.6,0-6.5-2.9-6.5-6.5v-7.4c0-0.1,0-0.2,0.1-0.3c0.6-1,0.9-2.2,0.9-3.3c0-1-0.2-1.9-0.6-2.8
			c-0.1-0.1-0.1-0.3,0-0.4C16.3,2.8,18.7,1,21.5,1C25.1,1,28,3.9,28,7.5v12C28,23.1,25.1,26,21.5,26z M16,12.2v7.3
			c0,3,2.5,5.5,5.5,5.5s5.5-2.5,5.5-5.5v-12c0-3-2.5-5.5-5.5-5.5c-2.3,0-4.3,1.4-5.1,3.5c0.4,1,0.6,2,0.6,3
			C17,9.8,16.7,11.1,16,12.2z"/>
	</g>
	<g>
		<path d="M9.5,16C5.4,16,2,12.6,2,8.5S5.4,1,9.5,1S17,4.4,17,8.5S13.6,16,9.5,16z M9.5,2C5.9,2,3,4.9,3,8.5S5.9,15,9.5,15
			S16,12.1,16,8.5S13.1,2,9.5,2z"/>
	</g>
	<g>
		<path d="M9.5,9C8.1,9,7,7.9,7,6.5S8.1,4,9.5,4S12,5.1,12,6.5S10.9,9,9.5,9z M9.5,5C8.7,5,8,5.7,8,6.5S8.7,8,9.5,8S11,7.3,11,6.5
			S10.3,5,9.5,5z"/>
	</g>
	<g>
		<path d="M19,19h-1.5c-0.3,0-0.5-0.2-0.5-0.5s0.2-0.5,0.5-0.5H19c0.6,0,1-0.4,1-1s-0.4-1-1-1h-1.5c-0.3,0-0.5-0.2-0.5-0.5v-2
			c0-0.3,0.2-0.5,0.5-0.5h3c0.3,0,0.5,0.2,0.5,0.5S20.8,14,20.5,14H18v1h1c1.1,0,2,0.9,2,2S20.1,19,19,19z"/>
	</g>
	<g>
		<path d="M21.5,7C20.7,7,20,6.3,20,5.5S20.7,4,21.5,4S23,4.7,23,5.5S22.3,7,21.5,7z M21.5,5C21.2,5,21,5.2,21,5.5S21.2,6,21.5,6
			S22,5.8,22,5.5S21.8,5,21.5,5z"/>
	</g>
</g>
</svg>
