<?xml version="1.0" encoding="utf-8"?>
<!-- Generator: Adobe Illustrator 19.0.0, SVG Export Plug-In . SVG Version: 6.00 Build 0)  -->
<svg version="1.1" id="Layer_1" xmlns="http://www.w3.org/2000/svg" xmlns:xlink="http://www.w3.org/1999/xlink" x="0px" y="0px"
	 viewBox="0 0 30 30" style="enable-background:new 0 0 30 30;" xml:space="preserve">
<g>
	<g>
		<path d="M15,25.5h-0.5c-0.8,0-1.5-0.2-2.2-0.6L2.6,19c-1.3-0.8-2.1-2.2-2.1-3.6v-0.6c0-0.7,0.3-1.3,0.9-1.6
			c0.2-0.1,0.3-0.1,0.5-0.2c-0.1-0.2-0.1-0.4-0.1-0.6c0-0.7,0.3-1.3,0.9-1.6l9.6-5.8c0.7-0.4,1.4-0.6,2.2-0.6H15
			c0.8,0,1.5,0.2,2.2,0.6l10.3,6c1.3,0.8,2.1,2.2,2.1,3.6V16c0,1.6-0.8,3-2.2,3.7L17.1,25C16.5,25.3,15.8,25.5,15,25.5z M2.3,14
			c-0.1,0-0.3,0-0.4,0.1c-0.3,0.1-0.4,0.4-0.4,0.7v0.6c0,1.1,0.6,2.2,1.6,2.8l9.8,5.9c0.5,0.3,1.1,0.5,1.7,0.5H15
			c0.5,0,1.1-0.1,1.6-0.4l10.2-5.3c1-0.6,1.7-1.7,1.7-2.8v-1.3c0-1.1-0.6-2.2-1.6-2.8L16.6,6c-0.5-0.3-1.1-0.5-1.7-0.5h-0.4
			c-0.6,0-1.2,0.2-1.7,0.5l-9.6,5.8c-0.3,0.2-0.4,0.4-0.4,0.8s0.2,0.6,0.4,0.8l9.6,5.8c0.5,0.3,1.1,0.5,1.7,0.5H15
			c0.6,0,1.1-0.1,1.6-0.4l8.1-4.5c0.2-0.1,0.5,0,0.7,0.2c0.1,0.2,0,0.5-0.2,0.7l-8.1,4.5c-0.6,0.4-1.4,0.6-2.1,0.6h-0.5
			c-0.8,0-1.5-0.2-2.2-0.6l-9.6-5.8c0,0,0,0,0,0C2.6,14,2.5,14,2.3,14z"/>
	</g>
	<g>
		<path d="M14.8,14.5c-0.6,0-2.4-0.1-3.2-0.8c-1-1-1.1-2.6-1.1-2.7c0-0.3,0.2-0.5,0.4-0.5c0.1,0,1.2-0.1,2.2,0.2
			c0.3-1.2,1.6-2.1,1.6-2.1c0.2-0.1,0.4-0.1,0.6,0c0.1,0,1.3,0.9,1.6,2.1c1-0.4,2.1-0.2,2.2-0.2c0.1,0,0.3,0.1,0.3,0.2
			s0.1,0.3,0,0.4c0,0.1-0.5,1.6-1.5,2.6C17.2,14.5,15.3,14.5,14.8,14.5z M11.6,11.5c0.1,0.4,0.3,1.1,0.7,1.5
			c0.3,0.3,1.2,0.5,2.5,0.5s2.2-0.3,2.5-0.5c0.4-0.4,0.8-1.1,1-1.6c-0.5,0-1.1,0.1-1.5,0.4c-0.2,0.1-0.4,0.2-0.6,0.1
			s-0.3-0.3-0.2-0.5c0,0,0-0.1,0-0.1c0-0.7-0.6-1.4-1-1.7c-0.4,0.4-1,1-1,1.7c0,0,0,0.1,0,0.1c0,0.2-0.1,0.4-0.3,0.5
			c-0.2,0.1-0.4,0.1-0.5,0C12.8,11.6,12.1,11.5,11.6,11.5z"/>
	</g>
</g>
</svg>
