<?xml version="1.0" encoding="utf-8"?>
<!-- Generator: Adobe Illustrator 19.0.0, SVG Export Plug-In . SVG Version: 6.00 Build 0)  -->
<svg version="1.1" id="Layer_1" xmlns="http://www.w3.org/2000/svg" xmlns:xlink="http://www.w3.org/1999/xlink" x="0px" y="0px"
	 viewBox="0 0 30 30" style="enable-background:new 0 0 30 30;" xml:space="preserve">
<g id="brifcase">
	<g>
		<path d="M28.3,27.5H1.8c-1,0-1.8-0.8-1.8-1.8V8.3c0-1,0.8-1.8,1.8-1.8h26.5c1,0,1.8,0.8,1.8,1.8v17.5C30,26.7,29.2,27.5,28.3,27.5
			z M1.8,7.5C1.3,7.5,1,7.8,1,8.3v17.5c0,0.4,0.3,0.8,0.8,0.8h26.5c0.4,0,0.8-0.3,0.8-0.8V8.3c0-0.4-0.3-0.8-0.8-0.8H1.8z"/>
	</g>
	<g>
		<path d="M20.5,7.5h-11C9.2,7.5,9,7.3,9,7V4.3c0-1,0.8-1.8,1.8-1.8h8.5c1,0,1.8,0.8,1.8,1.8V7C21,7.3,20.8,7.5,20.5,7.5z M10,6.5
			h10V4.3c0-0.4-0.3-0.8-0.8-0.8h-8.5c-0.4,0-0.8,0.3-0.8,0.8V6.5z"/>
	</g>
	<g>
		<path d="M10.5,11.5h-5C5.2,11.5,5,11.3,5,11V7.3C5,7,5.2,6.8,5.5,6.8S6,7,6,7.3v3.3h4V7.3c0-0.3,0.2-0.5,0.5-0.5S11,7,11,7.3V11
			C11,11.3,10.8,11.5,10.5,11.5z"/>
	</g>
	<g>
		<path d="M24.5,11.5h-5c-0.3,0-0.5-0.2-0.5-0.5V7c0-0.3,0.2-0.5,0.5-0.5S20,6.7,20,7v3.5h4V7c0-0.3,0.2-0.5,0.5-0.5S25,6.7,25,7v4
			C25,11.3,24.8,11.5,24.5,11.5z"/>
	</g>
	<g>
		<path d="M9.5,27.5h-3C6.2,27.5,6,27.3,6,27V11c0-0.3,0.2-0.5,0.5-0.5h3c0.3,0,0.5,0.2,0.5,0.5v16C10,27.3,9.8,27.5,9.5,27.5z
			 M7,26.5h2v-15H7V26.5z"/>
	</g>
	<g>
		<path d="M23.5,27.5h-3c-0.3,0-0.5-0.2-0.5-0.5V11c0-0.3,0.2-0.5,0.5-0.5h3c0.3,0,0.5,0.2,0.5,0.5v16C24,27.3,23.8,27.5,23.5,27.5z
			 M21,26.5h2v-15h-2V26.5z"/>
	</g>
	<g>
		<path d="M18.5,18.5h-7c-0.3,0-0.5-0.2-0.5-0.5v-5c0-0.3,0.2-0.5,0.5-0.5h7c0.3,0,0.5,0.2,0.5,0.5v5C19,18.3,18.8,18.5,18.5,18.5z
			 M12,17.5h6v-4h-6V17.5z"/>
	</g>
	<g>
		<path d="M1.5,10.5h-1C0.2,10.5,0,10.3,0,10s0.2-0.5,0.5-0.5h1C2.3,9.5,3,8.8,3,8V7c0-0.3,0.2-0.5,0.5-0.5S4,6.7,4,7v1
			C4,9.4,2.9,10.5,1.5,10.5z"/>
	</g>
	<g>
		<path d="M3.5,27.5C3.2,27.5,3,27.3,3,27v-1c0-0.8-0.7-1.5-1.5-1.5h-1C0.2,24.5,0,24.3,0,24s0.2-0.5,0.5-0.5h1
			C2.9,23.5,4,24.6,4,26v1C4,27.3,3.8,27.5,3.5,27.5z"/>
	</g>
	<g>
		<path d="M26.5,27.5c-0.3,0-0.5-0.2-0.5-0.5v-1c0-1.4,1.1-2.5,2.5-2.5h1c0.3,0,0.5,0.2,0.5,0.5s-0.2,0.5-0.5,0.5h-1
			c-0.8,0-1.5,0.7-1.5,1.5v1C27,27.3,26.8,27.5,26.5,27.5z"/>
	</g>
	<g>
		<path d="M29.5,10.5h-1C27.1,10.5,26,9.4,26,8V7c0-0.3,0.2-0.5,0.5-0.5S27,6.7,27,7v1c0,0.8,0.7,1.5,1.5,1.5h1
			c0.3,0,0.5,0.2,0.5,0.5S29.8,10.5,29.5,10.5z"/>
	</g>
</g>
</svg>
