<?xml version="1.0" encoding="utf-8"?>
<!-- Generator: Adobe Illustrator 19.0.0, SVG Export Plug-In . SVG Version: 6.00 Build 0)  -->
<svg version="1.1" id="Layer_1" xmlns="http://www.w3.org/2000/svg" xmlns:xlink="http://www.w3.org/1999/xlink" x="0px" y="0px"
	 viewBox="0 0 30 30" style="enable-background:new 0 0 30 30;" xml:space="preserve">
<g>
	<g id="XMLID_124_">
		<g id="XMLID_247_">
			<path d="M25.1,14c-0.4,0-0.9-0.2-1.2-0.5C23,12.7,22,12,20.8,11.4c-0.5-0.2-0.8-0.9-0.8-1.6V6.9C18.2,6.3,16.5,6,15,6
				c-1.5,0-3.1,0.3-5,0.9l0.1,2.9c0,0.6-0.2,1.3-0.8,1.6c-1,0.5-2.5,1.2-3.4,2.1c-0.6,0.6-1.7,0.6-2.4,0l-3-3.1
				C0.2,10.1,0,9.7,0,9.2C0,8.7,0.2,8.3,0.5,8c4-3.8,9.3-6,14.5-6c5.1,0,10.4,2.2,14.5,6.1C29.8,8.5,30,8.9,30,9.3s-0.2,0.9-0.5,1.2
				l-3.2,3C26,13.8,25.5,14,25.1,14z M15,5c1.7,0,3.6,0.3,5.7,1C20.9,6.1,21,6.3,21,6.5v3.3c0,0.4,0.1,0.7,0.3,0.7
				c1.2,0.6,2.3,1.4,3.3,2.3c0.3,0.3,0.7,0.3,1,0l3.2-3C28.9,9.7,29,9.5,29,9.4S28.9,9,28.8,8.9C24.9,5.1,19.8,3,15,3
				C10.1,3,5,5.1,1.2,8.7C1.1,8.8,1,9,1,9.2c0,0.2,0.1,0.4,0.2,0.5l3,3.1c0.2,0.2,0.7,0.2,1,0c1-1,2.5-1.7,3.6-2.3
				c0.2-0.1,0.3-0.4,0.3-0.7L9,6.5C9,6.3,9.1,6.1,9.3,6C11.5,5.3,13.3,5,15,5z"/>
		</g>
	</g>
	<g>
		<path d="M26.5,28h-24c-0.1,0-0.3-0.1-0.4-0.2S2,27.6,2,27.4l0.5-4.5c0-1,0.2-2,0.7-3L5,16.9C5.1,15.3,6.4,14,8,14h0.6
			c0.3,0,0.5,0.2,0.5,0.5S8.9,15,8.6,15H8c-1.1,0-2,0.9-2,2c0,0.1,0,0.2-0.1,0.3l-1.8,3.2c-0.4,0.8-0.6,1.7-0.6,2.5l-0.4,4H26v-4
			c0-0.9-0.2-1.8-0.6-2.6l-1.7-3.2c0-0.1-0.1-0.2-0.1-0.2c0-1.1-0.9-2-2-2H21c-0.3,0-0.5-0.2-0.5-0.5S20.7,14,21,14h0.6
			c1.6,0,2.9,1.3,3,2.9l1.7,3.1c0.5,0.9,0.7,2,0.7,3v4.5C27,27.8,26.8,28,26.5,28z"/>
	</g>
	<g>
		<path d="M15,19c-1.1,0-2-0.9-2-2s0.9-2,2-2s2,0.9,2,2S16.1,19,15,19z M15,16c-0.6,0-1,0.4-1,1s0.4,1,1,1s1-0.4,1-1S15.6,16,15,16z
			"/>
	</g>
	<g>
		<path d="M15,24c-3.9,0-7-3.1-7-7s3.1-7,7-7s7,3.1,7,7c0,2.1-0.9,4.1-2.6,5.4c-0.1,0.1-0.2,0.1-0.2,0.1c-0.6,0.1-1.2,0-1.7-0.1
			c0.1,0.1,0.2,0.2,0.3,0.2c0.1,0.1,0.2,0.3,0.2,0.5c0,0.2-0.1,0.3-0.3,0.4C16.7,23.8,15.9,24,15,24z M15,11c-3.3,0-6,2.7-6,6
			s2.7,6,6,6c0.5,0,1-0.1,1.4-0.2C16.1,22.4,16,22,16,21.5c0-0.2,0.1-0.3,0.2-0.4c0.2-0.1,0.3-0.1,0.5,0c0.7,0.4,1.4,0.6,2.1,0.5
			c1.3-1.1,2.1-2.8,2.1-4.6C21,13.7,18.3,11,15,11z"/>
	</g>
	<g>
		<path d="M21.5,25C21.5,25,21.5,25,21.5,25c-0.6-0.1-5.5-0.7-5.5-3.5c0-0.2,0.1-0.3,0.3-0.4s0.3-0.1,0.5,0c1.4,0.8,2.4,0.5,3.4,0.2
			c0.5-0.1,0.9-0.3,1.3-0.3c0.3,0,0.5,0.2,0.5,0.5v3c0,0.1-0.1,0.3-0.2,0.4C21.7,25,21.6,25,21.5,25z M17.4,22.4
			c0.8,0.8,2.5,1.3,3.6,1.5v-1.8c-0.2,0-0.3,0.1-0.5,0.2C19.7,22.5,18.7,22.8,17.4,22.4z"/>
	</g>
</g>
</svg>
