<?xml version="1.0" encoding="iso-8859-1"?>
<!-- Generator: Adobe Illustrator 19.0.0, SVG Export Plug-In . SVG Version: 6.00 Build 0)  -->
<svg version="1.1" id="Layer_1" xmlns="http://www.w3.org/2000/svg" xmlns:xlink="http://www.w3.org/1999/xlink" x="0px" y="0px"
	 viewBox="0 0 24 24" style="enable-background:new 0 0 24 24;" xml:space="preserve">
<g id="XMLID_108_">
	<path id="XMLID_109_" d="M18,0H9C8.867,0,8.74,0.053,8.646,0.146l-5,5C3.553,5.24,3.5,5.367,3.5,5.5v16C3.5,22.878,4.622,24,6,24
		h12c1.378,0,2.5-1.122,2.5-2.5v-19C20.5,1.122,19.378,0,18,0z M8,8h1.5v3.5c0,0.276,0.224,0.5,0.5,0.5s0.5-0.224,0.5-0.5V8h3v3.5
		c0,0.276,0.224,0.5,0.5,0.5s0.5-0.224,0.5-0.5V8H16c0.827,0,1.5,0.673,1.5,1.5V14h-5v-2.5c0-0.276-0.224-0.5-0.5-0.5
		s-0.5,0.224-0.5,0.5V14h-5V9.5C6.5,8.673,7.173,8,8,8z M16,21h-3.5v-3.5c0-0.276-0.224-0.5-0.5-0.5s-0.5,0.224-0.5,0.5V21H8
		c-0.827,0-1.5-0.673-1.5-1.5V15h3v2.5c0,0.276,0.224,0.5,0.5,0.5s0.5-0.224,0.5-0.5V15h3v2.5c0,0.276,0.224,0.5,0.5,0.5
		s0.5-0.224,0.5-0.5V15h3v4.5C17.5,20.327,16.827,21,16,21z"/>
</g>
<g>
</g>
<g>
</g>
<g>
</g>
<g>
</g>
<g>
</g>
<g>
</g>
<g>
</g>
<g>
</g>
<g>
</g>
<g>
</g>
<g>
</g>
<g>
</g>
<g>
</g>
<g>
</g>
<g>
</g>
</svg>
