<?xml version="1.0" encoding="iso-8859-1"?>
<!-- Generator: Adobe Illustrator 19.0.0, SVG Export Plug-In . SVG Version: 6.00 Build 0)  -->
<svg version="1.1" id="Layer_1" xmlns="http://www.w3.org/2000/svg" xmlns:xlink="http://www.w3.org/1999/xlink" x="0px" y="0px"
	 viewBox="0 0 24 24" style="enable-background:new 0 0 24 24;" xml:space="preserve">
<path d="M23,0.5H1C0.724,0.5,0.5,0.724,0.5,1v22c0,0.276,0.224,0.5,0.5,0.5h22c0.276,0,0.5-0.224,0.5-0.5V1
	C23.5,0.724,23.276,0.5,23,0.5z M20.169,17.5H3.831L12,2.069L20.169,17.5z M2.873,17.171C2.003,15.643,1.5,13.881,1.5,12
	c0-5.502,4.255-10.02,9.646-10.457L2.873,17.171z M20.231,18.5c-1.925,2.432-4.895,4-8.231,4c-3.335,0-6.306-1.568-8.231-4H20.231z
	 M21.127,17.171L12.854,1.543C18.245,1.98,22.5,6.498,22.5,12C22.5,13.881,21.997,15.643,21.127,17.171z M1.5,1.5h5.831
	C4.741,2.657,2.657,4.741,1.5,7.331V1.5z M1.5,22.5v-5.831c1.157,2.591,3.241,4.675,5.831,5.831H1.5z M22.5,22.5h-5.831
	c2.591-1.157,4.675-3.241,5.831-5.831V22.5z M16.669,1.5H22.5v5.831C21.343,4.741,19.259,2.657,16.669,1.5z"/>
</svg>
