<?xml version="1.0" encoding="iso-8859-1"?>
<!-- Generator: Adobe Illustrator 19.0.0, SVG Export Plug-In . SVG Version: 6.00 Build 0)  -->
<svg version="1.1" id="Layer_1" xmlns="http://www.w3.org/2000/svg" xmlns:xlink="http://www.w3.org/1999/xlink" x="0px" y="0px"
	 viewBox="0 0 24 24" style="enable-background:new 0 0 24 24;" xml:space="preserve">
<g>
	<g>
		<path d="M12,10c-3.859,0-7,3.14-7,7s3.141,7,7,7s7-3.14,7-7S15.859,10,12,10z M13.5,20c0.276,0,0.5,0.224,0.5,0.5
			S13.776,21,13.5,21h-3c-0.189,0-0.362-0.107-0.447-0.276c-0.085-0.169-0.066-0.372,0.047-0.523l2.1-2.8
			C12.716,16.712,13,15.86,13,15c0-0.551-0.448-1-1-1s-1,0.449-1,1v0.5c0,0.276-0.224,0.5-0.5,0.5S10,15.776,10,15.5V15
			c0-1.103,0.897-2,2-2c1.103,0,2,0.897,2,2c0,1.075-0.355,2.141-1.001,3L11.5,20H13.5z M19.909,0.213C19.816,0.08,19.663,0,19.5,0
			h-5c-0.211,0-0.399,0.133-0.471,0.332l-2.048,5.744L9.972,0.335C9.901,0.134,9.713,0,9.5,0h-5C4.337,0,4.184,0.08,4.091,0.213
			C3.997,0.346,3.975,0.517,4.03,0.671l3.313,9.108c0.05,0.138,0.159,0.248,0.297,0.298c0.056,0.021,0.114,0.031,0.173,0.031
			c0.086,0,0.171-0.022,0.247-0.065C9.261,9.361,10.624,9,12,9c0.051,0,0.1,0.004,0.148,0.007l0.138,0.008h0.04
			c0.083,0,0.158-0.025,0.227-0.061l0.208,0.07c0.034,0.012,0.07,0.02,0.106,0.023c1.083,0.117,2.117,0.451,3.074,0.995
			c0.076,0.043,0.161,0.065,0.247,0.065c0.059,0,0.117-0.01,0.173-0.031c0.138-0.051,0.247-0.16,0.297-0.298l3.313-9.108
			C20.025,0.518,20.003,0.347,19.909,0.213z"/>
	</g>
</g>
</svg>
