<?xml version="1.0" encoding="iso-8859-1"?>
<!-- Generator: Adobe Illustrator 19.0.0, SVG Export Plug-In . SVG Version: 6.00 Build 0)  -->
<svg version="1.1" id="Layer_1" xmlns="http://www.w3.org/2000/svg" xmlns:xlink="http://www.w3.org/1999/xlink" x="0px" y="0px"
	 viewBox="0 0 24 24" style="enable-background:new 0 0 24 24;" xml:space="preserve">
<g>
	<g>
		<path d="M18.5,13c-3.033,0-5.5,2.468-5.5,5.5s2.467,5.5,5.5,5.5s5.5-2.468,5.5-5.5S21.533,13,18.5,13z M21.854,16.854l-4,4
			C17.756,20.951,17.628,21,17.5,21s-0.256-0.049-0.354-0.146l-2-2c-0.195-0.195-0.195-0.512,0-0.707
			c0.195-0.195,0.512-0.195,0.707,0l1.646,1.646l3.646-3.646c0.195-0.195,0.512-0.195,0.707,0
			C22.047,16.342,22.049,16.659,21.854,16.854z M12,18.5c0-3.584,2.916-6.5,6.5-6.5c0.84,0,1.664,0.162,2.448,0.48
			c0.213,0.088,0.457,0.018,0.592-0.168l1.2-1.645C23.564,9.515,24,8.159,24,6.75C24,3.028,20.972,0,17.25,0
			C15.192,0,13.277,0.927,12,2.513C10.723,0.927,8.808,0,6.75,0C3.028,0,0,3.028,0,6.75c0,1.41,0.436,2.765,1.263,3.922
			l9.112,12.492c0.009,0.012,0.019,0.024,0.028,0.035C10.782,23.701,11.375,24,12,24c0.568,0,1.114-0.253,1.498-0.694
			c0.161-0.185,0.164-0.46,0.007-0.648C12.534,21.493,12,20.018,12,18.5z"/>
	</g>
</g>
</svg>
