<?xml version="1.0" encoding="iso-8859-1"?>
<!-- Generator: Adobe Illustrator 19.0.0, SVG Export Plug-In . SVG Version: 6.00 Build 0)  -->
<svg version="1.1" id="Layer_1" xmlns="http://www.w3.org/2000/svg" xmlns:xlink="http://www.w3.org/1999/xlink" x="0px" y="0px"
	 viewBox="0 0 24 24" style="enable-background:new 0 0 24 24;" xml:space="preserve">
<g>
	<g>
		<path d="M20.516,10.856c-1.401-0.228-3.32-0.539-5.076-2.295c-1.756-1.756-2.067-3.675-2.295-5.076
			c-0.095-0.587-0.168-1.037-0.279-1.253l-1-0.224C6.414,2.08,2,6.531,2,12c0,5.514,4.486,10,10,10c5.514,0,10-4.486,10-10
			c0-0.187-0.02-0.371-0.033-0.556C21.887,11.083,21.596,11.031,20.516,10.856z M7.57,8.111L7.216,7.757L6.155,8.818
			C6.057,8.916,5.929,8.964,5.801,8.964c-0.128,0-0.256-0.049-0.354-0.146c-0.195-0.195-0.195-0.512,0-0.707l2.828-2.828
			c0.195-0.195,0.512-0.195,0.707,0l1.414,1.414c0.195,0.195,0.195,0.512,0,0.707s-0.512,0.195-0.707,0L8.628,6.343L7.921,7.05
			l0.354,0.354c0.195,0.195,0.195,0.512,0,0.707C8.177,8.209,8.049,8.257,7.921,8.257C7.793,8.257,7.668,8.208,7.57,8.111z
			 M10.045,13.207c-0.276,0-0.5-0.224-0.5-0.5v-1.621l-0.561,0.561c-0.195,0.195-0.512,0.195-0.707,0s-0.195-0.512,0-0.707
			l1.404-1.404c0.007-0.007,0.013-0.013,0.02-0.02l1.405-1.405c0.195-0.195,0.512-0.195,0.707,0l0.707,0.707
			c0.585,0.585,0.585,1.537,0,2.122c-0.283,0.283-0.66,0.439-1.061,0.439c-0.336,0-0.654-0.109-0.915-0.311v1.639h0.001
			C10.545,12.983,10.321,13.207,10.045,13.207z M13.228,15.182c0.195,0.195,0.195,0.512,0,0.707
			c-0.098,0.098-0.226,0.146-0.354,0.146c-0.128,0-0.256-0.049-0.354-0.146l-1.414-1.415c-0.195-0.195-0.195-0.512,0-0.707
			l2.828-2.828c0.195-0.195,0.512-0.195,0.707,0l1.414,1.414c0.195,0.195,0.195,0.512,0,0.707s-0.512,0.195-0.707,0L14.288,12
			l-0.707,0.707l0.354,0.354c0.195,0.195,0.195,0.512,0,0.707c-0.098,0.098-0.226,0.146-0.354,0.146s-0.256-0.049-0.354-0.146
			l-0.354-0.354l-0.707,0.707L13.228,15.182z M18.884,15.889c-0.195,0.195-0.512,0.195-0.707,0l-1.061-1.061l-0.707,0.707
			l0.354,0.354c0.195,0.195,0.195,0.512,0,0.707c-0.098,0.098-0.226,0.146-0.354,0.146s-0.256-0.049-0.354-0.146l-0.354-0.354
			l-0.707,0.707l1.061,1.061c0.195,0.195,0.195,0.512,0,0.707c-0.098,0.098-0.226,0.146-0.354,0.146s-0.256-0.049-0.354-0.146
			l-1.414-1.414c-0.195-0.195-0.195-0.512,0-0.707l2.828-2.829c0.094-0.094,0.221-0.146,0.354-0.146s0.26,0.053,0.354,0.146
			l1.414,1.415C19.079,15.377,19.079,15.694,18.884,15.889z M23.934,11.18c-0.097-0.749-0.311-1.428-0.626-2.044
			c-0.003-0.006-0.007-0.011-0.01-0.017c-0.713-1.382-1.87-2.484-3.004-3.564c-0.314-0.299-0.631-0.601-0.939-0.909
			c-0.311-0.31-0.613-0.628-0.914-0.944c-1.142-1.199-2.318-2.413-3.813-3.11c-0.02-0.007-0.034-0.024-0.055-0.028l-0.025-0.005
			c-0.543-0.244-1.13-0.417-1.773-0.496C12.54,0.026,12.288,0,12,0C5.383,0,0,5.383,0,12s5.383,12,12,12s12-5.383,12-12
			C24,11.695,23.975,11.425,23.934,11.18z M12,23C5.935,23,1,18.065,1,12C1,6.071,5.719,1.237,11.596,1.022
			c0.091-0.038,0.191-0.057,0.294-0.034l0.065,0.014l0.131,0.029l1.178,0.264l0.126,0.028c0.028,0.021,0.042,0.055,0.067,0.078
			c0.016,0.013,0.038,0.015,0.053,0.029c0.062,0.063,0.107,0.14,0.155,0.213c0.015,0.024,0.035,0.042,0.049,0.068
			c0.211,0.368,0.298,0.873,0.418,1.612c0.217,1.337,0.487,3.001,2.015,4.529c1.528,1.528,3.192,1.798,4.529,2.015
			c0.44,0.072,0.808,0.135,1.119,0.223c0.153,0.043,0.289,0.095,0.412,0.155c0.016,0.008,0.03,0.017,0.046,0.025
			c0.108,0.057,0.204,0.127,0.288,0.206c0.013,0.012,0.025,0.025,0.037,0.037c0.082,0.085,0.152,0.187,0.209,0.303
			c0.006,0.013,0.013,0.024,0.019,0.037c0.126,0.277,0.195,0.637,0.195,1.145C23,18.065,18.065,23,12,23z M11.459,10.378
			c0.134,0,0.26-0.051,0.354-0.146c0.195-0.195,0.195-0.512,0-0.708L11.459,9.17l-0.708,0.708l0.354,0.353
			C11.2,10.326,11.325,10.378,11.459,10.378z"/>
	</g>
</g>
</svg>
