<?xml version="1.0" encoding="iso-8859-1"?>
<!-- Generator: Adobe Illustrator 19.0.0, SVG Export Plug-In . SVG Version: 6.00 Build 0)  -->
<svg version="1.1" id="Layer_1" xmlns="http://www.w3.org/2000/svg" xmlns:xlink="http://www.w3.org/1999/xlink" x="0px" y="0px"
	 viewBox="0 0 24 24" style="enable-background:new 0 0 24 24;" xml:space="preserve">
<g>
	<g>
		<path d="M12.78,10.823c-0.267,0-0.518,0.104-0.707,0.293l-0.707,0.707c-0.189,0.189-0.293,0.44-0.293,0.707
			c0,0.267,0.104,0.518,0.293,0.707c0.378,0.378,1.036,0.378,1.414,0l0.707-0.707c0.189-0.189,0.293-0.44,0.293-0.707
			s-0.104-0.518-0.293-0.707C13.298,10.927,13.047,10.823,12.78,10.823z M20.516,10.856c-1.401-0.228-3.32-0.539-5.076-2.295
			c-1.756-1.756-2.067-3.675-2.295-5.076c-0.095-0.587-0.168-1.037-0.279-1.253l-1-0.224C6.414,2.08,2,6.531,2,12
			c0,5.514,4.486,10,10,10s10-4.486,10-10c0-0.187-0.02-0.371-0.033-0.556C21.887,11.083,21.596,11.031,20.516,10.856z
			 M8.538,11.616c-0.128,0-0.256-0.049-0.354-0.146c-0.195-0.195-0.195-0.512,0-0.707l1.061-1.061L7.831,8.288L6.77,9.349
			C6.672,9.447,6.544,9.495,6.416,9.495S6.16,9.446,6.062,9.349c-0.195-0.195-0.195-0.512,0-0.707L8.89,5.814
			c0.195-0.195,0.512-0.195,0.707,0c0.195,0.195,0.195,0.512,0,0.707L8.536,7.582L9.95,8.996l1.061-1.061
			c0.195-0.195,0.512-0.195,0.707,0s0.195,0.512,0,0.707l-2.829,2.829C8.793,11.567,8.666,11.616,8.538,11.616z M12.073,14.53
			c-0.534,0-1.037-0.208-1.414-0.586c-0.378-0.377-0.586-0.879-0.586-1.414c0-0.534,0.208-1.036,0.586-1.414l0.707-0.707
			c0.756-0.756,2.074-0.756,2.828,0c0.378,0.377,0.586,0.88,0.586,1.414s-0.208,1.037-0.586,1.414l-0.707,0.707
			C13.11,14.322,12.607,14.53,12.073,14.53z M18.437,15.359c-0.098,0.098-0.226,0.146-0.354,0.146s-0.256-0.049-0.354-0.146
			l-0.707-0.707l-2.475,2.475c-0.098,0.098-0.226,0.146-0.354,0.146s-0.256-0.049-0.354-0.146c-0.195-0.195-0.195-0.512,0-0.707
			l2.475-2.475l-0.707-0.707c-0.195-0.195-0.195-0.512,0-0.707s0.512-0.195,0.707,0l1.06,1.06c0,0,0,0.001,0.001,0.001l1.06,1.06
			C18.632,14.847,18.632,15.164,18.437,15.359z M23.934,11.18c-0.097-0.749-0.311-1.428-0.626-2.044
			c-0.003-0.006-0.007-0.011-0.01-0.017c-0.713-1.382-1.87-2.484-3.004-3.564c-0.314-0.299-0.631-0.601-0.939-0.909
			c-0.311-0.31-0.613-0.628-0.914-0.944c-1.142-1.199-2.318-2.413-3.813-3.11c-0.02-0.007-0.034-0.024-0.055-0.028l-0.025-0.005
			c-0.543-0.244-1.13-0.417-1.773-0.496C12.54,0.026,12.288,0,12,0C5.383,0,0,5.383,0,12s5.383,12,12,12s12-5.383,12-12
			C24,11.695,23.975,11.425,23.934,11.18z M12,23C5.935,23,1,18.065,1,12C1,6.071,5.719,1.237,11.596,1.022
			c0.091-0.038,0.191-0.057,0.294-0.034l0.065,0.014l0.131,0.029l1.178,0.264l0.126,0.028c0.028,0.021,0.042,0.055,0.067,0.078
			c0.016,0.013,0.038,0.015,0.053,0.029c0.062,0.063,0.107,0.14,0.155,0.213c0.015,0.024,0.035,0.042,0.049,0.068
			c0.211,0.368,0.298,0.873,0.418,1.612c0.217,1.337,0.487,3.001,2.015,4.529c1.528,1.528,3.192,1.798,4.529,2.015
			c0.44,0.072,0.808,0.135,1.119,0.223c0.153,0.043,0.289,0.095,0.412,0.155c0.016,0.008,0.03,0.017,0.046,0.025
			c0.108,0.057,0.204,0.127,0.288,0.206c0.013,0.012,0.025,0.025,0.037,0.037c0.082,0.085,0.152,0.187,0.209,0.303
			c0.006,0.013,0.013,0.024,0.019,0.037C22.931,11.132,23,11.492,23,12C23,18.065,18.065,23,12,23z"/>
	</g>
</g>
</svg>
