<?xml version="1.0" encoding="iso-8859-1"?>
<!-- Generator: Adobe Illustrator 19.0.0, SVG Export Plug-In . SVG Version: 6.00 Build 0)  -->
<svg version="1.1" id="Layer_1" xmlns="http://www.w3.org/2000/svg" xmlns:xlink="http://www.w3.org/1999/xlink" x="0px" y="0px"
	 viewBox="0 0 24 24" style="enable-background:new 0 0 24 24;" xml:space="preserve">
<g>
	<g>
		<path d="M8,0H3.5C3.224,0,3,0.224,3,0.5v3.503c0,1.101,0.738,2.088,1.794,2.398L8,7.344V0z M20.5,0H16v7.345l3.206-0.943
			C20.263,6.091,21,5.105,21,4.004V0.501C21,0.224,20.776,0,20.5,0z M13.597,10.191C13.846,9.857,14,9.448,14,9
			c0-0.409-0.124-0.789-0.336-1.106C14.113,7.828,14.56,7.744,15,7.627V0H9v7.627c0.44,0.117,0.887,0.201,1.336,0.267
			C10.125,8.211,10,8.591,10,9c0,0.448,0.153,0.857,0.403,1.191C7.311,10.917,5,13.69,5,17c0,3.86,3.14,7,7,7s7-3.14,7-7
			C19,13.69,16.689,10.917,13.597,10.191z M16.303,15.898l-2.147,1.634l0.87,2.82c0.064,0.209-0.015,0.436-0.195,0.56
			c-0.18,0.124-0.421,0.116-0.592-0.02l-2.235-1.764l-2.189,1.761c-0.091,0.073-0.202,0.11-0.313,0.11
			c-0.097,0-0.193-0.028-0.278-0.084c-0.182-0.122-0.264-0.347-0.202-0.556l0.829-2.824L7.7,15.898
			c-0.171-0.13-0.24-0.354-0.171-0.558C7.597,15.136,7.788,15,8.003,15h2.64l0.886-2.658c0.136-0.408,0.813-0.408,0.948,0L13.363,15
			h2.64c0.214,0,0.405,0.137,0.474,0.34C16.542,15.543,16.474,15.768,16.303,15.898z"/>
	</g>
</g>
</svg>
