<?xml version="1.0" encoding="iso-8859-1"?>
<!-- Generator: Adobe Illustrator 19.0.0, SVG Export Plug-In . SVG Version: 6.00 Build 0)  -->
<svg version="1.1" id="Layer_1" xmlns="http://www.w3.org/2000/svg" xmlns:xlink="http://www.w3.org/1999/xlink" x="0px" y="0px"
	 viewBox="0 0 24 24" style="enable-background:new 0 0 24 24;" xml:space="preserve">
<g>
	<g>
		<path d="M22.143,3.021l-10-3c-0.094-0.028-0.193-0.028-0.287,0l-10,3C1.644,3.084,1.5,3.279,1.5,3.5v11
			c0,4.422,6.742,8.354,10.352,9.478C11.9,23.993,11.951,24,12,24s0.101-0.007,0.148-0.022C15.757,22.855,22.5,18.922,22.5,14.5v-11
			C22.499,3.279,22.354,3.084,22.143,3.021z M16.353,12.854l-1.818,1.818l0.436,2.612c0.031,0.065,0.049,0.139,0.049,0.216
			c0,0.276-0.224,0.5-0.5,0.5c-0.004,0-0.012,0.001-0.02,0c-0.089,0-0.178-0.023-0.257-0.071L12,16.583l-2.243,1.346
			C9.59,18.03,9.38,18.024,9.219,17.913c-0.161-0.109-0.244-0.303-0.212-0.495l0.458-2.747l-1.818-1.818
			c-0.133-0.132-0.18-0.328-0.123-0.506c0.058-0.178,0.21-0.31,0.395-0.34l2.723-0.454l0.896-2.239c0.15-0.38,0.777-0.38,0.928,0
			l0.896,2.239l2.723,0.454c0.185,0.031,0.337,0.162,0.395,0.34C16.532,12.526,16.485,12.721,16.353,12.854z M21.499,6.828
			l-9.356-2.807C12.096,4.007,12.048,4,11.999,4s-0.097,0.007-0.144,0.021L2.499,6.828V3.872l9.5-2.85l9.5,2.85V6.828z"/>
	</g>
</g>
</svg>
