<svg width="9.331055" height="9.360352" viewBox="1.406250 -30.849609 9.331055 9.360352" xmlns="http://www.w3.org/2000/svg"><path d="M3.295898 -26.176758C3.295898 -25.766602 3.361816 -25.371094 3.493652 -24.990234C3.625488 -24.609375 3.813477 -24.272461 4.057617 -23.979492C4.301758 -23.686523 4.594727 -23.454590 4.936523 -23.283691C5.278320 -23.112793 5.659180 -23.027344 6.079102 -23.027344C6.489258 -23.027344 6.865234 -23.112793 7.207031 -23.283691C7.548828 -23.454590 7.841797 -23.686523 8.085938 -23.979492C8.330078 -24.272461 8.518066 -24.609375 8.649902 -24.990234C8.781738 -25.371094 8.847656 -25.766602 8.847656 -26.176758C8.847656 -26.586914 8.781738 -26.982422 8.649902 -27.363281C8.518066 -27.744141 8.330078 -28.083496 8.085938 -28.381348C7.841797 -28.679199 7.546387 -28.916016 7.199707 -29.091797C6.853027 -29.267578 6.469727 -29.355469 6.049805 -29.355469C5.639648 -29.355469 5.266113 -29.267578 4.929199 -29.091797C4.592285 -28.916016 4.301758 -28.679199 4.057617 -28.381348C3.813477 -28.083496 3.625488 -27.744141 3.493652 -27.363281C3.361816 -26.982422 3.295898 -26.586914 3.295898 -26.176758ZM1.406250 -26.176758C1.406250 -26.831055 1.530762 -27.441406 1.779785 -28.007812C2.028809 -28.574219 2.368164 -29.067383 2.797852 -29.487305C3.227539 -29.907227 3.728027 -30.239258 4.299316 -30.483398C4.870605 -30.727539 5.473633 -30.849609 6.108398 -30.849609C6.811523 -30.849609 7.448730 -30.727539 8.020020 -30.483398C8.591309 -30.239258 9.079590 -29.907227 9.484863 -29.487305C9.890137 -29.067383 10.200195 -28.574219 10.415039 -28.007812C10.629883 -27.441406 10.737305 -26.831055 10.737305 -26.176758C10.737305 -25.522461 10.610352 -24.912109 10.356445 -24.345703C10.102539 -23.779297 9.760742 -23.283691 9.331055 -22.858887C8.901367 -22.434082 8.400879 -22.099609 7.829590 -21.855469C7.258301 -21.611328 6.655273 -21.489258 6.020508 -21.489258C5.317383 -21.489258 4.682617 -21.611328 4.116211 -21.855469C3.549805 -22.099609 3.063965 -22.434082 2.658691 -22.858887C2.253418 -23.283691 1.943359 -23.779297 1.728516 -24.345703C1.513672 -24.912109 1.406250 -25.522461 1.406250 -26.176758ZM1.406250 -26.176758"></path></svg>