<svg width="18.691406" height="28.298340" viewBox="1.376953 -56.113281 18.691406 28.298340" xmlns="http://www.w3.org/2000/svg"><path d="M11.997070 -48.557129C10.932617 -48.557129 9.934082 -48.330078 9.001465 -47.875977C8.068848 -47.421875 7.255859 -46.777344 6.562500 -45.942383C5.869141 -45.107422 5.322266 -44.094238 4.921875 -42.902832C4.521484 -41.711426 4.321289 -40.383301 4.321289 -38.918457C4.321289 -37.971191 4.416504 -37.080078 4.606934 -36.245117C4.797363 -35.410156 5.068359 -34.638672 5.419922 -33.930664C5.771484 -33.222656 6.191406 -32.587891 6.679688 -32.026367C7.167969 -31.464844 7.709961 -30.988770 8.305664 -30.598145C8.901367 -30.207520 9.541016 -29.907227 10.224609 -29.697266C10.908203 -29.487305 11.621094 -29.382324 12.363281 -29.382324C13.017578 -29.382324 13.669434 -29.455566 14.318848 -29.602051C14.968262 -29.748535 15.593262 -29.968262 16.193848 -30.261230C16.794434 -30.554199 17.358398 -30.915527 17.885742 -31.345215C18.413086 -31.774902 18.881836 -32.268066 19.291992 -32.824707L20.068359 -32.194824C19.423828 -31.306152 18.732910 -30.578613 17.995605 -30.012207C17.258301 -29.445801 16.516113 -28.999023 15.769043 -28.671875C15.021973 -28.344727 14.289551 -28.120117 13.571777 -27.998047C12.854004 -27.875977 12.187500 -27.814941 11.572266 -27.814941C10.068359 -27.814941 8.691406 -28.090820 7.441406 -28.642578C6.191406 -29.194336 5.117188 -29.948730 4.218750 -30.905762C3.320312 -31.862793 2.622070 -32.988281 2.124023 -34.282227C1.625977 -35.576172 1.376953 -36.970215 1.376953 -38.464355C1.376953 -39.401855 1.472168 -40.334473 1.662598 -41.262207C1.853027 -42.189941 2.141113 -43.071289 2.526855 -43.906250C2.912598 -44.741211 3.393555 -45.517578 3.969727 -46.235352C4.545898 -46.953125 5.219727 -47.575684 5.991211 -48.103027C6.762695 -48.630371 7.631836 -49.042969 8.598633 -49.340820C9.565430 -49.638672 10.629883 -49.787598 11.791992 -49.787598C12.924805 -49.787598 13.984375 -49.636230 14.970703 -49.333496C15.957031 -49.030762 16.914062 -48.571777 17.841797 -47.956543L17.695312 -49.567871L19.321289 -49.567871L19.321289 -42.609863L18.237305 -42.609863C18.129883 -43.547363 17.907715 -44.384766 17.570801 -45.122070C17.233887 -45.859375 16.799316 -46.481934 16.267090 -46.989746C15.734863 -47.497559 15.107422 -47.885742 14.384766 -48.154297C13.662109 -48.422852 12.866211 -48.557129 11.997070 -48.557129ZM10.444336 -51.091309L9.785156 -51.970215L13.564453 -55.573730C13.857422 -55.827637 14.123535 -55.983887 14.362793 -56.042480C14.602051 -56.101074 14.807129 -56.113281 14.978027 -56.079102C15.148926 -56.044922 15.285645 -55.986328 15.388184 -55.903320C15.490723 -55.820312 15.556641 -55.759277 15.585938 -55.720215C15.634766 -55.651855 15.683594 -55.551758 15.732422 -55.419922C15.781250 -55.288086 15.791016 -55.134277 15.761719 -54.958496C15.732422 -54.782715 15.649414 -54.592285 15.512695 -54.387207C15.375977 -54.182129 15.136719 -53.977051 14.794922 -53.771973ZM10.444336 -51.091309"></path></svg>