<svg width="19.511719" height="26.337891" viewBox="1.948242 -47.343750 19.511719 26.337891" xmlns="http://www.w3.org/2000/svg"><path d="M21.459961 -46.347656C20.893555 -46.328125 20.468750 -46.225586 20.185547 -46.040039C19.902344 -45.854492 19.702148 -45.600586 19.584961 -45.278320C19.467773 -44.956055 19.406738 -44.572754 19.401855 -44.128418C19.396973 -43.684082 19.394531 -43.198242 19.394531 -42.670898L19.394531 -29.707031C19.394531 -29.296875 19.387207 -28.908691 19.372559 -28.542480C19.357910 -28.176270 19.331055 -27.841797 19.291992 -27.539062L21.459961 -27.670898L21.459961 -26.337891L12.861328 -26.337891L12.861328 -21.005859L11.616211 -21.005859C11.616211 -21.748047 11.584473 -22.443848 11.520996 -23.093262C11.457520 -23.742676 11.337891 -24.309082 11.162109 -24.792480C10.986328 -25.275879 10.744629 -25.654297 10.437012 -25.927734C10.129395 -26.201172 9.726562 -26.337891 9.228516 -26.337891L1.948242 -26.337891L1.948242 -27.333984C2.504883 -27.353516 2.927246 -27.456055 3.215332 -27.641602C3.503418 -27.827148 3.706055 -28.081055 3.823242 -28.403320C3.940430 -28.725586 4.001465 -29.108887 4.006348 -29.553223C4.011230 -29.997559 4.013672 -30.488281 4.013672 -31.025391L4.013672 -43.769531C4.013672 -44.833984 4.042969 -45.625000 4.101562 -46.142578L1.948242 -46.025391L1.948242 -47.343750L8.701172 -47.343750L8.701172 -46.347656C8.134766 -46.328125 7.707520 -46.225586 7.419434 -46.040039C7.131348 -45.854492 6.928711 -45.600586 6.811523 -45.278320C6.694336 -44.956055 6.633301 -44.572754 6.628418 -44.128418C6.623535 -43.684082 6.621094 -43.198242 6.621094 -42.670898L6.621094 -27.524414L14.780273 -27.626953C15.200195 -27.646484 15.539551 -27.717285 15.798340 -27.839355C16.057129 -27.961426 16.257324 -28.125000 16.398926 -28.330078C16.540527 -28.535156 16.635742 -28.781738 16.684570 -29.069824C16.733398 -29.357910 16.762695 -29.677734 16.772461 -30.029297L16.772461 -43.769531C16.772461 -44.316406 16.779785 -44.785156 16.794434 -45.175781C16.809082 -45.566406 16.835938 -45.888672 16.875000 -46.142578L14.707031 -46.025391L14.707031 -47.343750L21.459961 -47.343750ZM21.459961 -46.347656"></path></svg>