<svg width="16.201172" height="15.483398" viewBox="1.113281 -30.966797 16.201172 15.483398" xmlns="http://www.w3.org/2000/svg"><path d="M3.120117 -26.879883C3.120117 -27.192383 3.125000 -27.509766 3.134766 -27.832031C3.144531 -28.154297 3.178711 -28.486328 3.237305 -28.828125L1.113281 -28.710938L1.113281 -29.970703C1.767578 -29.970703 2.299805 -29.992676 2.709961 -30.036621C3.120117 -30.080566 3.449707 -30.141602 3.698730 -30.219727C3.947754 -30.297852 4.140625 -30.383301 4.277344 -30.476074C4.414062 -30.568848 4.541016 -30.668945 4.658203 -30.776367L5.522461 -30.776367C5.541992 -30.551758 5.563965 -30.295410 5.588379 -30.007324C5.612793 -29.719238 5.634766 -29.370117 5.654297 -28.959961C5.976562 -29.243164 6.330566 -29.506836 6.716309 -29.750977C7.102051 -29.995117 7.504883 -30.207520 7.924805 -30.388184C8.344727 -30.568848 8.776855 -30.710449 9.221191 -30.812988C9.665527 -30.915527 10.102539 -30.966797 10.532227 -30.966797C12.270508 -30.966797 13.540039 -30.422363 14.340820 -29.333496C15.141602 -28.244629 15.541992 -26.552734 15.541992 -24.257812L15.541992 -18.662109C15.541992 -18.261719 15.537109 -17.907715 15.527344 -17.600098C15.517578 -17.292480 15.483398 -16.967773 15.424805 -16.625977L17.314453 -16.713867L17.314453 -15.483398L11.191406 -15.483398L11.191406 -16.376953C11.650391 -16.376953 11.999512 -16.467285 12.238770 -16.647949C12.478027 -16.828613 12.651367 -17.080078 12.758789 -17.402344C12.866211 -17.724609 12.927246 -18.110352 12.941895 -18.559570C12.956543 -19.008789 12.963867 -19.501953 12.963867 -20.039062L12.963867 -24.228516C12.944336 -25.957031 12.661133 -27.258301 12.114258 -28.132324C11.567383 -29.006348 10.698242 -29.443359 9.506836 -29.443359C9.145508 -29.443359 8.784180 -29.389648 8.422852 -29.282227C8.061523 -29.174805 7.714844 -29.035645 7.382812 -28.864746C7.050781 -28.693848 6.738281 -28.491211 6.445312 -28.256836C6.152344 -28.022461 5.898438 -27.768555 5.683594 -27.495117C5.693359 -27.319336 5.698242 -27.131348 5.698242 -26.931152C5.698242 -26.730957 5.698242 -26.528320 5.698242 -26.323242L5.668945 -18.662109C5.668945 -18.261719 5.664062 -17.907715 5.654297 -17.600098C5.644531 -17.292480 5.610352 -16.967773 5.551758 -16.625977L7.441406 -16.713867L7.441406 -15.483398L1.318359 -15.483398L1.318359 -16.376953C1.777344 -16.376953 2.126465 -16.467285 2.365723 -16.647949C2.604980 -16.828613 2.775879 -17.080078 2.878418 -17.402344C2.980957 -17.724609 3.039551 -18.110352 3.054199 -18.559570C3.068848 -19.008789 3.081055 -19.501953 3.090820 -20.039062ZM3.120117 -26.879883"></path></svg>