<svg width="15.087891" height="15.966797" viewBox="1.230469 -31.450195 15.087891 15.966797" xmlns="http://www.w3.org/2000/svg"><path d="M8.759766 -30.307617C7.968750 -30.307617 7.292480 -30.131836 6.730957 -29.780273C6.169434 -29.428711 5.708008 -28.959961 5.346680 -28.374023C4.985352 -27.788086 4.719238 -27.114258 4.548340 -26.352539C4.377441 -25.590820 4.291992 -24.799805 4.291992 -23.979492C4.291992 -23.051758 4.387207 -22.148438 4.577637 -21.269531C4.768066 -20.390625 5.058594 -19.611816 5.449219 -18.933105C5.839844 -18.254395 6.330566 -17.709961 6.921387 -17.299805C7.512207 -16.889648 8.203125 -16.684570 8.994141 -16.684570C9.785156 -16.684570 10.451660 -16.862793 10.993652 -17.219238C11.535645 -17.575684 11.975098 -18.046875 12.312012 -18.632812C12.648926 -19.218750 12.890625 -19.887695 13.037109 -20.639648C13.183594 -21.391602 13.256836 -22.163086 13.256836 -22.954102C13.256836 -23.852539 13.173828 -24.741211 13.007812 -25.620117C12.841797 -26.499023 12.578125 -27.285156 12.216797 -27.978516C11.855469 -28.671875 11.389160 -29.233398 10.817871 -29.663086C10.246582 -30.092773 9.560547 -30.307617 8.759766 -30.307617ZM8.759766 -31.450195C9.814453 -31.450195 10.800781 -31.257324 11.718750 -30.871582C12.636719 -30.485840 13.435059 -29.953613 14.113770 -29.274902C14.792480 -28.596191 15.329590 -27.790527 15.725098 -26.857910C16.120605 -25.925293 16.318359 -24.916992 16.318359 -23.833008C16.318359 -22.670898 16.125488 -21.582031 15.739746 -20.566406C15.354004 -19.550781 14.821777 -18.666992 14.143066 -17.915039C13.464355 -17.163086 12.663574 -16.569824 11.740723 -16.135254C10.817871 -15.700684 9.824219 -15.483398 8.759766 -15.483398C7.705078 -15.483398 6.721191 -15.671387 5.808105 -16.047363C4.895020 -16.423340 4.099121 -16.948242 3.420410 -17.622070C2.741699 -18.295898 2.207031 -19.099121 1.816406 -20.031738C1.425781 -20.964355 1.230469 -21.987305 1.230469 -23.100586C1.230469 -24.282227 1.423340 -25.383301 1.809082 -26.403809C2.194824 -27.424316 2.724609 -28.308105 3.398438 -29.055176C4.072266 -29.802246 4.868164 -30.388184 5.786133 -30.812988C6.704102 -31.237793 7.695312 -31.450195 8.759766 -31.450195ZM8.759766 -31.450195"></path></svg>