<svg width="13.183594" height="21.489258" viewBox="1.376953 -42.978516 13.183594 21.489258" xmlns="http://www.w3.org/2000/svg"><path d="M3.808594 -39.682617C4.003906 -39.467773 4.143066 -39.245605 4.226074 -39.016113C4.309082 -38.786621 4.350586 -38.559570 4.350586 -38.334961C4.350586 -38.208008 4.326172 -38.061523 4.277344 -37.895508C4.228516 -37.729492 4.145508 -37.575684 4.028320 -37.434082C3.911133 -37.292480 3.759766 -37.172852 3.574219 -37.075195C3.388672 -36.977539 3.159180 -36.933594 2.885742 -36.943359C2.436523 -36.962891 2.094727 -37.131348 1.860352 -37.448730C1.625977 -37.766113 1.508789 -38.149414 1.508789 -38.598633C1.508789 -39.018555 1.640625 -39.484863 1.904297 -39.997559C2.167969 -40.510254 2.563477 -40.986328 3.090820 -41.425781C3.618164 -41.865234 4.272461 -42.233887 5.053711 -42.531738C5.834961 -42.829590 6.743164 -42.978516 7.778320 -42.978516C8.569336 -42.978516 9.343262 -42.885742 10.100098 -42.700195C10.856934 -42.514648 11.530762 -42.209473 12.121582 -41.784668C12.712402 -41.359863 13.186035 -40.798340 13.542480 -40.100098C13.898926 -39.401855 14.077148 -38.544922 14.077148 -37.529297C14.077148 -37.021484 13.969727 -36.479492 13.754883 -35.903320C13.540039 -35.327148 13.198242 -34.707031 12.729492 -34.042969C12.260742 -33.378906 11.652832 -32.668457 10.905762 -31.911621C10.158691 -31.154785 9.252930 -30.336914 8.188477 -29.458008C7.504883 -28.901367 6.879883 -28.354492 6.313477 -27.817383C5.747070 -27.280273 5.253906 -26.770020 4.833984 -26.286621C4.414062 -25.803223 4.074707 -25.349121 3.815918 -24.924316C3.557129 -24.499512 3.393555 -24.111328 3.325195 -23.759766L8.642578 -23.613281C9.375000 -23.593750 10.046387 -23.581543 10.656738 -23.576660C11.267090 -23.571777 11.794434 -23.627930 12.238770 -23.745117C12.683105 -23.862305 13.029785 -24.069824 13.278809 -24.367676C13.527832 -24.665527 13.652344 -25.107422 13.652344 -25.693359L14.560547 -25.693359L14.370117 -21.489258L1.376953 -21.489258C1.376953 -22.543945 1.545410 -23.481445 1.882324 -24.301758C2.219238 -25.122070 2.663574 -25.881348 3.215332 -26.579590C3.767090 -27.277832 4.396973 -27.949219 5.104980 -28.593750C5.812988 -29.238281 6.542969 -29.916992 7.294922 -30.629883C8.593750 -31.870117 9.533691 -33.022461 10.114746 -34.086914C10.695801 -35.151367 10.986328 -36.176758 10.986328 -37.163086C10.986328 -37.719727 10.930176 -38.273926 10.817871 -38.825684C10.705566 -39.377441 10.507812 -39.875488 10.224609 -40.319824C9.941406 -40.764160 9.562988 -41.123047 9.089355 -41.396484C8.615723 -41.669922 8.017578 -41.806641 7.294922 -41.806641C6.884766 -41.806641 6.491699 -41.750488 6.115723 -41.638184C5.739746 -41.525879 5.397949 -41.374512 5.090332 -41.184082C4.782715 -40.993652 4.519043 -40.769043 4.299316 -40.510254C4.079590 -40.251465 3.916016 -39.975586 3.808594 -39.682617ZM3.808594 -39.682617"></path></svg>