<svg width="11.118164" height="23.261719" viewBox="1.567383 -38.745117 11.118164 23.261719" xmlns="http://www.w3.org/2000/svg"><path d="M6.958008 -23.950195C7.338867 -23.950195 7.722168 -23.996582 8.107910 -24.089355C8.493652 -24.182129 8.845215 -24.326172 9.162598 -24.521484C9.479980 -24.716797 9.738770 -24.963379 9.938965 -25.261230C10.139160 -25.559082 10.239258 -25.913086 10.239258 -26.323242C10.239258 -26.801758 10.114746 -27.209473 9.865723 -27.546387C9.616699 -27.883301 9.289551 -28.181152 8.884277 -28.439941C8.479004 -28.698730 8.015137 -28.930664 7.492676 -29.135742C6.970215 -29.340820 6.437988 -29.550781 5.895996 -29.765625C5.354004 -29.980469 4.824219 -30.217285 4.306641 -30.476074C3.789062 -30.734863 3.327637 -31.040039 2.922363 -31.391602C2.517090 -31.743164 2.189941 -32.163086 1.940918 -32.651367C1.691895 -33.139648 1.567383 -33.720703 1.567383 -34.394531C1.567383 -34.814453 1.645508 -35.275879 1.801758 -35.778809C1.958008 -36.281738 2.231445 -36.752930 2.622070 -37.192383C3.012695 -37.631836 3.537598 -38.000488 4.196777 -38.298340C4.855957 -38.596191 5.688477 -38.745117 6.694336 -38.745117C6.967773 -38.745117 7.258301 -38.725586 7.565918 -38.686523C7.873535 -38.647461 8.188477 -38.576660 8.510742 -38.474121C8.833008 -38.371582 9.155273 -38.237305 9.477539 -38.071289C9.799805 -37.905273 10.117188 -37.700195 10.429688 -37.456055L10.356445 -38.598633L11.616211 -38.598633L11.616211 -33.339844L10.678711 -33.339844C10.639648 -33.857422 10.539551 -34.370117 10.378418 -34.877930C10.217285 -35.385742 9.982910 -35.842285 9.675293 -36.247559C9.367676 -36.652832 8.979492 -36.982422 8.510742 -37.236328C8.041992 -37.490234 7.485352 -37.617188 6.840820 -37.617188C6.372070 -37.617188 5.957031 -37.556152 5.595703 -37.434082C5.234375 -37.312012 4.929199 -37.145996 4.680176 -36.936035C4.431152 -36.726074 4.243164 -36.484375 4.116211 -36.210938C3.989258 -35.937500 3.925781 -35.649414 3.925781 -35.346680C3.925781 -34.858398 4.050293 -34.438477 4.299316 -34.086914C4.548340 -33.735352 4.877930 -33.422852 5.288086 -33.149414C5.698242 -32.875977 6.166992 -32.629395 6.694336 -32.409668C7.221680 -32.189941 7.758789 -31.965332 8.305664 -31.735840C8.852539 -31.506348 9.389648 -31.262207 9.916992 -31.003418C10.444336 -30.744629 10.913086 -30.439453 11.323242 -30.087891C11.733398 -29.736328 12.062988 -29.326172 12.312012 -28.857422C12.561035 -28.388672 12.685547 -27.832031 12.685547 -27.187500C12.685547 -26.435547 12.534180 -25.781250 12.231445 -25.224609C11.928711 -24.667969 11.530762 -24.208984 11.037598 -23.847656C10.544434 -23.486328 9.987793 -23.217773 9.367676 -23.041992C8.747559 -22.866211 8.120117 -22.778320 7.485352 -22.778320C6.469727 -22.778320 5.576172 -22.912598 4.804688 -23.181152C4.033203 -23.449707 3.398438 -23.754883 2.900391 -24.096680L3.002930 -23.056641L1.743164 -23.056641L1.567383 -28.212891L2.490234 -28.212891C2.529297 -27.587891 2.673340 -27.014160 2.922363 -26.491699C3.171387 -25.969238 3.498535 -25.520020 3.903809 -25.144043C4.309082 -24.768066 4.772949 -24.475098 5.295410 -24.265137C5.817871 -24.055176 6.372070 -23.950195 6.958008 -23.950195ZM8.964844 -21.577148C9.199219 -21.079102 9.316406 -20.561523 9.316406 -20.024414C9.316406 -19.262695 9.101562 -18.493652 8.671875 -17.717285C8.242188 -16.940918 7.670898 -16.196289 6.958008 -15.483398L6.166992 -16.069336C6.489258 -16.665039 6.726074 -17.185059 6.877441 -17.629395C7.028809 -18.073730 7.119141 -18.481445 7.148438 -18.852539C7.177734 -19.223633 7.165527 -19.587402 7.111816 -19.943848C7.058105 -20.300293 6.987305 -20.688477 6.899414 -21.108398ZM8.964844 -21.577148"></path></svg>