<svg width="19.921875" height="21.489258" viewBox="1.713867 -42.978516 19.921875 21.489258" xmlns="http://www.w3.org/2000/svg"><path d="M13.330078 -23.745117C13.984375 -23.920898 14.626465 -24.250488 15.256348 -24.733887C15.886230 -25.217285 16.450195 -25.832520 16.948242 -26.579590C17.446289 -27.326660 17.846680 -28.186035 18.149414 -29.157715C18.452148 -30.129395 18.603516 -31.191406 18.603516 -32.343750C18.603516 -33.144531 18.537598 -33.933105 18.405762 -34.709473C18.273926 -35.485840 18.078613 -36.223145 17.819824 -36.921387C17.561035 -37.619629 17.236328 -38.264160 16.845703 -38.854980C16.455078 -39.445801 16.003418 -39.958496 15.490723 -40.393066C14.978027 -40.827637 14.404297 -41.166992 13.769531 -41.411133C13.134766 -41.655273 12.436523 -41.777344 11.674805 -41.777344C10.913086 -41.777344 10.212402 -41.657715 9.572754 -41.418457C8.933105 -41.179199 8.352051 -40.852051 7.829590 -40.437012C7.307129 -40.021973 6.848145 -39.528809 6.452637 -38.957520C6.057129 -38.386230 5.727539 -37.766113 5.463867 -37.097168C5.200195 -36.428223 5.000000 -35.729980 4.863281 -35.002441C4.726562 -34.274902 4.658203 -33.540039 4.658203 -32.797852C4.658203 -31.401367 4.831543 -30.158691 5.178223 -29.069824C5.524902 -27.980957 5.971680 -27.055664 6.518555 -26.293945C7.065430 -25.532227 7.673340 -24.936523 8.342285 -24.506836C9.011230 -24.077148 9.672852 -23.823242 10.327148 -23.745117L10.327148 -21.489258L2.446289 -21.489258L2.285156 -25.532227L3.193359 -25.532227C3.193359 -25.102539 3.266602 -24.750977 3.413086 -24.477539C3.559570 -24.204102 3.784180 -23.989258 4.086914 -23.833008C4.389648 -23.676758 4.772949 -23.571777 5.236816 -23.518066C5.700684 -23.464355 6.250000 -23.437500 6.884766 -23.437500L9.008789 -23.437500L9.008789 -23.466797C8.012695 -23.740234 7.070312 -24.172363 6.181641 -24.763184C5.292969 -25.354004 4.519043 -26.059570 3.859863 -26.879883C3.200684 -27.700195 2.678223 -28.618164 2.292480 -29.633789C1.906738 -30.649414 1.713867 -31.723633 1.713867 -32.856445C1.713867 -33.647461 1.804199 -34.445801 1.984863 -35.251465C2.165527 -36.057129 2.436523 -36.835938 2.797852 -37.587891C3.159180 -38.339844 3.615723 -39.042969 4.167480 -39.697266C4.719238 -40.351562 5.366211 -40.922852 6.108398 -41.411133C6.850586 -41.899414 7.685547 -42.282715 8.613281 -42.561035C9.541016 -42.839355 10.571289 -42.978516 11.704102 -42.978516C12.875977 -42.978516 13.935547 -42.836914 14.882812 -42.553711C15.830078 -42.270508 16.669922 -41.884766 17.402344 -41.396484C18.134766 -40.908203 18.769531 -40.336914 19.306641 -39.682617C19.843750 -39.028320 20.283203 -38.325195 20.625000 -37.573242C20.966797 -36.821289 21.220703 -36.042480 21.386719 -35.236816C21.552734 -34.431152 21.635742 -33.637695 21.635742 -32.856445C21.635742 -31.733398 21.418457 -30.673828 20.983887 -29.677734C20.549316 -28.681641 19.985352 -27.775879 19.291992 -26.960449C18.598633 -26.145020 17.822266 -25.439453 16.962891 -24.843750C16.103516 -24.248047 15.244141 -23.789062 14.384766 -23.466797L14.384766 -23.437500L16.875000 -23.437500C17.509766 -23.437500 18.059082 -23.464355 18.522949 -23.518066C18.986816 -23.571777 19.370117 -23.676758 19.672852 -23.833008C19.975586 -23.989258 20.200195 -24.204102 20.346680 -24.477539C20.493164 -24.750977 20.566406 -25.102539 20.566406 -25.532227L21.459961 -25.532227L21.284180 -21.489258L13.330078 -21.489258ZM13.330078 -23.745117"></path></svg>