<svg width="15.659180" height="27.861571" viewBox="1.655273 -55.723143 15.659180 27.861571" xmlns="http://www.w3.org/2000/svg"><path d="M6.342773 -31.318603C6.342773 -30.761962 6.335449 -30.295653 6.320801 -29.919677C6.306152 -29.543700 6.279297 -29.228759 6.240234 -28.974853L11.982422 -29.062743C12.636719 -29.072509 13.227539 -29.153075 13.754883 -29.304442C14.282227 -29.455810 14.733887 -29.709716 15.109863 -30.066161C15.485840 -30.422606 15.776367 -30.896239 15.981445 -31.487060C16.186523 -32.077880 16.289062 -32.817626 16.289062 -33.706298L17.314453 -33.706298L17.138672 -27.861571L1.655273 -27.861571L1.655273 -28.857665C2.133789 -28.867431 2.512207 -28.943114 2.790527 -29.084716C3.068848 -29.226317 3.276367 -29.419188 3.413086 -29.663329C3.549805 -29.907470 3.635254 -30.197997 3.669434 -30.534911C3.703613 -30.871825 3.720703 -31.245360 3.720703 -31.655517L3.720703 -32.534423L3.720703 -45.498290C3.720703 -45.908446 3.728027 -46.296630 3.742676 -46.662841C3.757324 -47.029052 3.784180 -47.363524 3.823242 -47.666259L1.655273 -47.534423L1.655273 -48.867431L16.083984 -48.867431L16.230469 -43.608642L15.249023 -43.608642C15.249023 -44.468017 15.148926 -45.171142 14.948730 -45.718017C14.748535 -46.264892 14.475098 -46.694579 14.128418 -47.007079C13.781738 -47.319579 13.374023 -47.531981 12.905273 -47.644286C12.436523 -47.756591 11.928711 -47.812743 11.381836 -47.812743L8.613281 -47.768798C8.056641 -47.739501 7.624512 -47.651610 7.316895 -47.505126C7.009277 -47.358642 6.782227 -47.141356 6.635742 -46.853271C6.489258 -46.565185 6.403809 -46.201415 6.379395 -45.761962C6.354980 -45.322509 6.342773 -44.795165 6.342773 -44.179931L6.342773 -39.345946L11.967773 -39.345946L11.748047 -41.938720L13.081055 -41.938720L13.081055 -35.625243L12.099609 -35.625243C12.099609 -36.211181 12.048340 -36.677489 11.945801 -37.024169C11.843262 -37.370849 11.682129 -37.639403 11.462402 -37.829833C11.242676 -38.020263 10.964355 -38.144774 10.627441 -38.203368C10.290527 -38.261962 9.882812 -38.291259 9.404297 -38.291259C9.267578 -38.291259 9.125977 -38.291259 8.979492 -38.291259C8.833008 -38.291259 7.954102 -38.257079 6.342773 -38.188720ZM11.419122 -53.912405C11.419122 -53.669171 11.374049 -53.439451 11.283903 -53.223243C11.193757 -53.007036 11.074314 -52.817854 10.925573 -52.655699C10.776832 -52.493543 10.605554 -52.367422 10.411740 -52.277336C10.217926 -52.187249 10.012844 -52.142206 9.796493 -52.142206C9.580142 -52.142206 9.375060 -52.187249 9.181246 -52.277336C8.987432 -52.367422 8.816155 -52.493543 8.667414 -52.655699C8.518673 -52.817854 8.401483 -53.007036 8.315844 -53.223243C8.230205 -53.439451 8.187386 -53.669171 8.187386 -53.912405C8.187386 -54.164647 8.232459 -54.401124 8.322605 -54.621836C8.412751 -54.842547 8.532194 -55.033981 8.680936 -55.196137C8.829677 -55.358292 9.003208 -55.486666 9.201529 -55.581256C9.399850 -55.675847 9.607186 -55.723143 9.823537 -55.723143C10.048902 -55.723143 10.258492 -55.675847 10.452306 -55.581256C10.646120 -55.486666 10.815144 -55.358292 10.959377 -55.196137C11.103611 -55.033981 11.216294 -54.842547 11.297425 -54.621836C11.378556 -54.401124 11.419122 -54.164647 11.419122 -53.912405ZM11.419122 -53.912405"></path></svg>