<svg width="20.727539" height="29.326172" viewBox="0.937500 -58.168945 20.727539 29.326172" xmlns="http://www.w3.org/2000/svg"><path d="M19.526367 -38.686523C19.516602 -37.377930 19.372559 -36.130371 19.094238 -34.943848C18.815918 -33.757324 18.361816 -32.712402 17.731934 -31.809082C17.102051 -30.905762 16.274414 -30.185547 15.249023 -29.648438C14.223633 -29.111328 12.958984 -28.842773 11.455078 -28.842773C9.853516 -28.842773 8.510742 -29.052734 7.426758 -29.472656C6.342773 -29.892578 5.471191 -30.539551 4.812012 -31.413574C4.152832 -32.287598 3.681641 -33.398438 3.398438 -34.746094C3.115234 -36.093750 2.973633 -37.695312 2.973633 -39.550781L2.973633 -45.644531C2.973633 -45.908203 2.976074 -46.201172 2.980957 -46.523438C2.985840 -46.845703 2.995605 -47.167969 3.010254 -47.490234C3.024902 -47.812500 3.037109 -48.117676 3.046875 -48.405762C3.056641 -48.693848 3.071289 -48.935547 3.090820 -49.130859L0.937500 -49.042969L0.937500 -50.332031L7.675781 -50.332031L7.675781 -49.335938C7.167969 -49.335938 6.774902 -49.250488 6.496582 -49.079590C6.218262 -48.908691 6.013184 -48.701172 5.881348 -48.457031C5.749512 -48.212891 5.671387 -47.954102 5.646973 -47.680664C5.622559 -47.407227 5.610352 -47.167969 5.610352 -46.962891L5.610352 -39.404297C5.610352 -38.662109 5.639648 -37.927246 5.698242 -37.199707C5.756836 -36.472168 5.866699 -35.781250 6.027832 -35.126953C6.188965 -34.472656 6.413574 -33.867188 6.701660 -33.310547C6.989746 -32.753906 7.363281 -32.270508 7.822266 -31.860352C8.281250 -31.450195 8.837891 -31.130371 9.492188 -30.900879C10.146484 -30.671387 10.922852 -30.556641 11.821289 -30.556641C12.905273 -30.556641 13.835449 -30.751953 14.611816 -31.142578C15.388184 -31.533203 16.027832 -32.082520 16.530762 -32.790527C17.033691 -33.498535 17.404785 -34.340820 17.644043 -35.317383C17.883301 -36.293945 18.012695 -37.368164 18.032227 -38.540039L18.149414 -46.962891C18.149414 -47.802734 18.178711 -48.525391 18.237305 -49.130859L16.083984 -48.999023L16.083984 -50.332031L21.665039 -50.332031L21.665039 -49.335938C21.098633 -49.316406 20.671387 -49.211426 20.383301 -49.020996C20.095215 -48.830566 19.892578 -48.574219 19.775391 -48.251953C19.658203 -47.929688 19.597168 -47.548828 19.592285 -47.109375C19.587402 -46.669922 19.584961 -46.181641 19.584961 -45.644531ZM11.630859 -57.231445C11.289062 -57.231445 10.981445 -57.077637 10.708008 -56.770020C10.434570 -56.462402 10.297852 -56.015625 10.297852 -55.429688C10.297852 -55.146484 10.329590 -54.880371 10.393066 -54.631348C10.456543 -54.382324 10.549316 -54.162598 10.671387 -53.972168C10.793457 -53.781738 10.942383 -53.632812 11.118164 -53.525391C11.293945 -53.417969 11.494141 -53.364258 11.718750 -53.364258C12.089844 -53.364258 12.397461 -53.522949 12.641602 -53.840332C12.885742 -54.157715 13.007812 -54.589844 13.007812 -55.136719C13.007812 -55.781250 12.888184 -56.291504 12.648926 -56.667480C12.409668 -57.043457 12.070312 -57.231445 11.630859 -57.231445ZM11.630859 -58.168945C11.982422 -58.168945 12.331543 -58.115234 12.678223 -58.007812C13.024902 -57.900391 13.337402 -57.734375 13.615723 -57.509766C13.894043 -57.285156 14.125977 -56.989746 14.311523 -56.623535C14.497070 -56.257324 14.589844 -55.869141 14.589844 -55.458984C14.589844 -54.951172 14.509277 -54.521484 14.348145 -54.169922C14.187012 -53.818359 13.969727 -53.510742 13.696289 -53.247070C13.422852 -52.983398 13.112793 -52.780762 12.766113 -52.639160C12.419434 -52.497559 12.060547 -52.426758 11.689453 -52.426758C11.318359 -52.426758 10.954590 -52.482910 10.598145 -52.595215C10.241699 -52.707520 9.924316 -52.880859 9.645996 -53.115234C9.367676 -53.349609 9.143066 -53.645020 8.972168 -54.001465C8.801270 -54.357910 8.715820 -54.785156 8.715820 -55.283203C8.715820 -55.712891 8.801270 -56.103516 8.972168 -56.455078C9.143066 -56.806641 9.365234 -57.109375 9.638672 -57.363281C9.912109 -57.617188 10.222168 -57.814941 10.568848 -57.956543C10.915527 -58.098145 11.269531 -58.168945 11.630859 -58.168945ZM11.630859 -58.168945"></path></svg>