<svg width="13.286133" height="23.276367" viewBox="-0.292969 -46.069336 13.286133 23.276367" xmlns="http://www.w3.org/2000/svg"><path d="M12.993164 -27.905273C12.807617 -27.182617 12.556152 -26.511230 12.238770 -25.891113C11.921387 -25.270996 11.540527 -24.731445 11.096191 -24.272461C10.651855 -23.813477 10.151367 -23.452148 9.594727 -23.188477C9.038086 -22.924805 8.422852 -22.792969 7.749023 -22.792969C7.260742 -22.792969 6.794434 -22.863770 6.350098 -23.005371C5.905762 -23.146973 5.498047 -23.344727 5.126953 -23.598633C4.755859 -23.852539 4.426270 -24.162598 4.138184 -24.528809C3.850098 -24.895020 3.623047 -25.302734 3.457031 -25.751953C3.193359 -26.425781 3.061523 -27.583008 3.061523 -29.223633L3.061523 -30.761719L0.322266 -28.051758L-0.292969 -28.637695L3.061523 -32.021484L3.061523 -39.550781C3.061523 -40.664062 3.183594 -41.630859 3.427734 -42.451172C3.671875 -43.271484 4.006348 -43.950195 4.431152 -44.487305C4.855957 -45.024414 5.358887 -45.422363 5.939941 -45.681152C6.520996 -45.939941 7.143555 -46.069336 7.807617 -46.069336C8.315430 -46.069336 8.771973 -45.993652 9.177246 -45.842285C9.582520 -45.690918 9.924316 -45.473633 10.202637 -45.190430C10.480957 -44.907227 10.693359 -44.567871 10.839844 -44.172363C10.986328 -43.776855 11.059570 -43.339844 11.059570 -42.861328C11.059570 -42.304688 10.974121 -41.723633 10.803223 -41.118164C10.632324 -40.512695 10.366211 -39.877930 10.004883 -39.213867C9.301758 -37.885742 7.846680 -35.981445 5.639648 -33.500977L5.639648 -28.183594C5.639648 -27.382812 5.708008 -26.711426 5.844727 -26.169434C5.981445 -25.627441 6.174316 -25.192871 6.423340 -24.865723C6.672363 -24.538574 6.970215 -24.304199 7.316895 -24.162598C7.663574 -24.020996 8.041992 -23.950195 8.452148 -23.950195C8.803711 -23.950195 9.147949 -24.023438 9.484863 -24.169922C9.821777 -24.316406 10.148926 -24.550781 10.466309 -24.873047C10.783691 -25.195312 11.083984 -25.620117 11.367188 -26.147461C11.650391 -26.674805 11.914062 -27.319336 12.158203 -28.081055ZM5.639648 -34.863281C8.471680 -38.017578 9.887695 -40.483398 9.887695 -42.260742C9.887695 -42.768555 9.836426 -43.195801 9.733887 -43.542480C9.631348 -43.889160 9.492188 -44.169922 9.316406 -44.384766C9.140625 -44.599609 8.933105 -44.755859 8.693848 -44.853516C8.454590 -44.951172 8.198242 -45.000000 7.924805 -45.000000C7.612305 -45.000000 7.319336 -44.934082 7.045898 -44.802246C6.772461 -44.670410 6.530762 -44.440918 6.320801 -44.113770C6.110840 -43.786621 5.944824 -43.347168 5.822754 -42.795410C5.700684 -42.243652 5.639648 -41.547852 5.639648 -40.708008ZM5.639648 -34.863281"></path></svg>