<svg width="15.571289" height="27.685547" viewBox="1.289062 -55.371094 15.571289 27.685547" xmlns="http://www.w3.org/2000/svg"><path d="M1.289062 -29.062500C1.855469 -29.853516 2.495117 -30.751953 3.208008 -31.757812C3.920898 -32.763672 4.719238 -33.908691 5.603027 -35.192871C6.486816 -36.477051 7.453613 -37.919922 8.503418 -39.521484C9.553223 -41.123047 10.698242 -42.910156 11.938477 -44.882812C12.221680 -45.332031 12.519531 -45.783691 12.832031 -46.237793C13.144531 -46.691895 13.486328 -47.138672 13.857422 -47.578125L6.210938 -47.460938C5.615234 -47.431641 5.097656 -47.316895 4.658203 -47.116699C4.218750 -46.916504 3.852539 -46.613770 3.559570 -46.208496C3.266602 -45.803223 3.046875 -45.292969 2.900391 -44.677734C2.753906 -44.062500 2.680664 -43.330078 2.680664 -42.480469L1.655273 -42.480469L1.831055 -48.691406L16.713867 -48.691406L16.713867 -47.636719L5.947266 -31.289062C5.722656 -30.966797 5.520020 -30.683594 5.339355 -30.439453C5.158691 -30.195312 4.987793 -29.975586 4.826660 -29.780273C4.665527 -29.584961 4.509277 -29.409180 4.357910 -29.252930C4.206543 -29.096680 4.052734 -28.945312 3.896484 -28.798828L11.191406 -28.916016C11.845703 -28.925781 12.458496 -29.028320 13.029785 -29.223633C13.601074 -29.418945 14.094238 -29.719238 14.509277 -30.124512C14.924316 -30.529785 15.251465 -31.040039 15.490723 -31.655273C15.729980 -32.270508 15.849609 -32.998047 15.849609 -33.837891L16.860352 -33.837891L16.684570 -27.685547L1.289062 -27.685547ZM8.935547 -50.068359L8.876953 -50.068359L3.354492 -54.301758L4.013672 -55.312500L8.994141 -52.675781L9.052734 -52.675781L14.150391 -55.371094L14.750977 -54.418945ZM8.935547 -50.068359"></path></svg>