<svg width="16.201172" height="22.954102" viewBox="1.113281 -45.908203 16.201172 22.954102" xmlns="http://www.w3.org/2000/svg"><path d="M3.120117 -34.350586C3.120117 -34.663086 3.125000 -34.980469 3.134766 -35.302734C3.144531 -35.625000 3.178711 -35.957031 3.237305 -36.298828L1.113281 -36.181641L1.113281 -37.441406C1.767578 -37.441406 2.299805 -37.463379 2.709961 -37.507324C3.120117 -37.551270 3.449707 -37.612305 3.698730 -37.690430C3.947754 -37.768555 4.140625 -37.854004 4.277344 -37.946777C4.414062 -38.039551 4.541016 -38.139648 4.658203 -38.247070L5.522461 -38.247070C5.541992 -38.022461 5.563965 -37.766113 5.588379 -37.478027C5.612793 -37.189941 5.634766 -36.840820 5.654297 -36.430664C5.976562 -36.713867 6.330566 -36.977539 6.716309 -37.221680C7.102051 -37.465820 7.504883 -37.678223 7.924805 -37.858887C8.344727 -38.039551 8.776855 -38.181152 9.221191 -38.283691C9.665527 -38.386230 10.102539 -38.437500 10.532227 -38.437500C12.270508 -38.437500 13.540039 -37.893066 14.340820 -36.804199C15.141602 -35.715332 15.541992 -34.023438 15.541992 -31.728516L15.541992 -26.132812C15.541992 -25.732422 15.537109 -25.378418 15.527344 -25.070801C15.517578 -24.763184 15.483398 -24.438477 15.424805 -24.096680L17.314453 -24.184570L17.314453 -22.954102L11.191406 -22.954102L11.191406 -23.847656C11.650391 -23.847656 11.999512 -23.937988 12.238770 -24.118652C12.478027 -24.299316 12.651367 -24.550781 12.758789 -24.873047C12.866211 -25.195312 12.927246 -25.581055 12.941895 -26.030273C12.956543 -26.479492 12.963867 -26.972656 12.963867 -27.509766L12.963867 -31.699219C12.944336 -33.427734 12.661133 -34.729004 12.114258 -35.603027C11.567383 -36.477051 10.698242 -36.914062 9.506836 -36.914062C9.145508 -36.914062 8.784180 -36.860352 8.422852 -36.752930C8.061523 -36.645508 7.714844 -36.506348 7.382812 -36.335449C7.050781 -36.164551 6.738281 -35.961914 6.445312 -35.727539C6.152344 -35.493164 5.898438 -35.239258 5.683594 -34.965820C5.693359 -34.790039 5.698242 -34.602051 5.698242 -34.401855C5.698242 -34.201660 5.698242 -33.999023 5.698242 -33.793945L5.668945 -26.132812C5.668945 -25.732422 5.664062 -25.378418 5.654297 -25.070801C5.644531 -24.763184 5.610352 -24.438477 5.551758 -24.096680L7.441406 -24.184570L7.441406 -22.954102L1.318359 -22.954102L1.318359 -23.847656C1.777344 -23.847656 2.126465 -23.937988 2.365723 -24.118652C2.604980 -24.299316 2.775879 -24.550781 2.878418 -24.873047C2.980957 -25.195312 3.039551 -25.581055 3.054199 -26.030273C3.068848 -26.479492 3.081055 -26.972656 3.090820 -27.509766ZM7.998047 -40.356445L7.163086 -41.044922L9.682617 -45.087891C9.907227 -45.410156 10.129395 -45.627441 10.349121 -45.739746C10.568848 -45.852051 10.759277 -45.908203 10.920410 -45.908203C11.081543 -45.908203 11.237793 -45.876465 11.389160 -45.812988C11.540527 -45.749512 11.665039 -45.654297 11.762695 -45.527344C11.860352 -45.400391 11.926270 -45.283203 11.960449 -45.175781C11.994629 -45.068359 12.011719 -44.951172 12.011719 -44.824219C12.011719 -44.716797 11.997070 -44.614258 11.967773 -44.516602C11.938477 -44.418945 11.909180 -44.335938 11.879883 -44.267578C11.791992 -44.042969 11.621094 -43.798828 11.367188 -43.535156ZM7.998047 -40.356445"></path></svg>