<svg width="15.087891" height="23.437500" viewBox="1.230469 -46.391602 15.087891 23.437500" xmlns="http://www.w3.org/2000/svg"><path d="M8.759766 -37.778320C7.968750 -37.778320 7.292480 -37.602539 6.730957 -37.250977C6.169434 -36.899414 5.708008 -36.430664 5.346680 -35.844727C4.985352 -35.258789 4.719238 -34.584961 4.548340 -33.823242C4.377441 -33.061523 4.291992 -32.270508 4.291992 -31.450195C4.291992 -30.522461 4.387207 -29.619141 4.577637 -28.740234C4.768066 -27.861328 5.058594 -27.082520 5.449219 -26.403809C5.839844 -25.725098 6.330566 -25.180664 6.921387 -24.770508C7.512207 -24.360352 8.203125 -24.155273 8.994141 -24.155273C9.785156 -24.155273 10.451660 -24.333496 10.993652 -24.689941C11.535645 -25.046387 11.975098 -25.517578 12.312012 -26.103516C12.648926 -26.689453 12.890625 -27.358398 13.037109 -28.110352C13.183594 -28.862305 13.256836 -29.633789 13.256836 -30.424805C13.256836 -31.323242 13.173828 -32.211914 13.007812 -33.090820C12.841797 -33.969727 12.578125 -34.755859 12.216797 -35.449219C11.855469 -36.142578 11.389160 -36.704102 10.817871 -37.133789C10.246582 -37.563477 9.560547 -37.778320 8.759766 -37.778320ZM8.759766 -38.920898C9.814453 -38.920898 10.800781 -38.728027 11.718750 -38.342285C12.636719 -37.956543 13.435059 -37.424316 14.113770 -36.745605C14.792480 -36.066895 15.329590 -35.261230 15.725098 -34.328613C16.120605 -33.395996 16.318359 -32.387695 16.318359 -31.303711C16.318359 -30.141602 16.125488 -29.052734 15.739746 -28.037109C15.354004 -27.021484 14.821777 -26.137695 14.143066 -25.385742C13.464355 -24.633789 12.663574 -24.040527 11.740723 -23.605957C10.817871 -23.171387 9.824219 -22.954102 8.759766 -22.954102C7.705078 -22.954102 6.721191 -23.142090 5.808105 -23.518066C4.895020 -23.894043 4.099121 -24.418945 3.420410 -25.092773C2.741699 -25.766602 2.207031 -26.569824 1.816406 -27.502441C1.425781 -28.435059 1.230469 -29.458008 1.230469 -30.571289C1.230469 -31.752930 1.423340 -32.854004 1.809082 -33.874512C2.194824 -34.895020 2.724609 -35.778809 3.398438 -36.525879C4.072266 -37.272949 4.868164 -37.858887 5.786133 -38.283691C6.704102 -38.708496 7.695312 -38.920898 8.759766 -38.920898ZM5.991211 -44.018555C5.737305 -44.282227 5.566406 -44.526367 5.478516 -44.750977C5.449219 -44.819336 5.419922 -44.902344 5.390625 -45.000000C5.361328 -45.097656 5.346680 -45.200195 5.346680 -45.307617C5.346680 -45.434570 5.363770 -45.551758 5.397949 -45.659180C5.432129 -45.766602 5.498047 -45.883789 5.595703 -46.010742C5.693359 -46.137695 5.817871 -46.232910 5.969238 -46.296387C6.120605 -46.359863 6.276855 -46.391602 6.437988 -46.391602C6.599121 -46.391602 6.789551 -46.335449 7.009277 -46.223145C7.229004 -46.110840 7.451172 -45.893555 7.675781 -45.571289L10.195312 -41.528320L9.360352 -40.839844ZM5.991211 -44.018555"></path></svg>