<svg width="21.123047" height="25.048828" viewBox="1.347656 -47.695312 21.123047 25.048828" xmlns="http://www.w3.org/2000/svg"><path d="M1.347656 -35.551758C1.347656 -36.391602 1.440430 -37.246094 1.625977 -38.115234C1.811523 -38.984375 2.094727 -39.826660 2.475586 -40.642090C2.856445 -41.457520 3.334961 -42.221680 3.911133 -42.934570C4.487305 -43.647461 5.161133 -44.272461 5.932617 -44.809570C6.704102 -45.346680 7.578125 -45.769043 8.554688 -46.076660C9.531250 -46.384277 10.610352 -46.538086 11.791992 -46.538086C13.012695 -46.538086 14.121094 -46.381836 15.117188 -46.069336C15.771484 -45.864258 16.381836 -45.610352 16.948242 -45.307617L18.325195 -47.695312L19.951172 -46.684570L18.530273 -44.267578C19.018555 -43.867188 19.462891 -43.417969 19.863281 -42.919922C20.449219 -42.207031 20.935059 -41.442871 21.320801 -40.627441C21.706543 -39.812012 21.994629 -38.969727 22.185059 -38.100586C22.375488 -37.231445 22.470703 -36.381836 22.470703 -35.551758C22.470703 -34.721680 22.375488 -33.874512 22.185059 -33.010254C21.994629 -32.145996 21.711426 -31.306152 21.335449 -30.490723C20.959473 -29.675293 20.483398 -28.908691 19.907227 -28.190918C19.331055 -27.473145 18.654785 -26.845703 17.878418 -26.308594C17.102051 -25.771484 16.228027 -25.346680 15.256348 -25.034180C14.284668 -24.721680 13.208008 -24.565430 12.026367 -24.565430C10.756836 -24.565430 9.609375 -24.716797 8.583984 -25.019531C8.183594 -25.136719 7.797852 -25.273438 7.426758 -25.429688L5.786133 -22.646484L4.350586 -23.554688L5.903320 -26.235352C5.893555 -26.245117 5.883789 -26.250000 5.874023 -26.250000C5.083008 -26.777344 4.401855 -27.395020 3.830566 -28.103027C3.259277 -28.811035 2.790527 -29.572754 2.424316 -30.388184C2.058105 -31.203613 1.787109 -32.050781 1.611328 -32.929688C1.435547 -33.808594 1.347656 -34.682617 1.347656 -35.551758ZM4.291992 -36.093750C4.291992 -35.351562 4.360352 -34.582520 4.497070 -33.786621C4.633789 -32.990723 4.841309 -32.211914 5.119629 -31.450195C5.397949 -30.688477 5.747070 -29.960938 6.166992 -29.267578C6.420898 -28.857422 6.699219 -28.481445 7.001953 -28.139648L15.996094 -43.666992L15.878906 -43.769531C15.302734 -44.257812 14.663086 -44.641113 13.959961 -44.919434C13.256836 -45.197754 12.500000 -45.336914 11.689453 -45.336914C10.458984 -45.336914 9.379883 -45.063477 8.452148 -44.516602C7.524414 -43.969727 6.752930 -43.256836 6.137695 -42.377930C5.522461 -41.499023 5.061035 -40.510254 4.753418 -39.411621C4.445801 -38.312988 4.291992 -37.207031 4.291992 -36.093750ZM17.416992 -42.055664C17.377930 -42.104492 17.343750 -42.153320 17.314453 -42.202148L8.320312 -26.953125C8.730469 -26.679688 9.169922 -26.445312 9.638672 -26.250000C10.371094 -25.947266 11.186523 -25.795898 12.084961 -25.795898C12.905273 -25.795898 13.657227 -25.920410 14.340820 -26.169434C15.024414 -26.418457 15.639648 -26.760254 16.186523 -27.194824C16.733398 -27.629395 17.211914 -28.142090 17.622070 -28.732910C18.032227 -29.323730 18.376465 -29.958496 18.654785 -30.637207C18.933105 -31.315918 19.140625 -32.026367 19.277344 -32.768555C19.414062 -33.510742 19.482422 -34.248047 19.482422 -34.980469C19.482422 -35.820312 19.401855 -36.660156 19.240723 -37.500000C19.079590 -38.339844 18.847656 -39.143066 18.544922 -39.909668C18.242188 -40.676270 17.866211 -41.391602 17.416992 -42.055664ZM17.416992 -42.055664"></path></svg>