<svg width="9.038086" height="8.876953" viewBox="1.494141 -24.536133 9.038086 8.876953" xmlns="http://www.w3.org/2000/svg"><path d="M1.494141 -20.097656C1.494141 -20.722656 1.611328 -21.303711 1.845703 -21.840820C2.080078 -22.377930 2.399902 -22.846680 2.805176 -23.247070C3.210449 -23.647461 3.686523 -23.962402 4.233398 -24.191895C4.780273 -24.421387 5.366211 -24.536133 5.991211 -24.536133C6.625977 -24.536133 7.216797 -24.421387 7.763672 -24.191895C8.310547 -23.962402 8.786621 -23.647461 9.191895 -23.247070C9.597168 -22.846680 9.921875 -22.377930 10.166016 -21.840820C10.410156 -21.303711 10.532227 -20.722656 10.532227 -20.097656C10.532227 -19.472656 10.412598 -18.891602 10.173340 -18.354492C9.934082 -17.817383 9.609375 -17.348633 9.199219 -16.948242C8.789062 -16.547852 8.308105 -16.232910 7.756348 -16.003418C7.204590 -15.773926 6.616211 -15.659180 5.991211 -15.659180C5.366211 -15.659180 4.780273 -15.773926 4.233398 -16.003418C3.686523 -16.232910 3.210449 -16.547852 2.805176 -16.948242C2.399902 -17.348633 2.080078 -17.817383 1.845703 -18.354492C1.611328 -18.891602 1.494141 -19.472656 1.494141 -20.097656ZM1.494141 -20.097656"></path></svg>