<svg width="12.138672" height="21.972656" viewBox="0.996094 -43.461914 12.138672 21.972656" xmlns="http://www.w3.org/2000/svg"><path d="M3.310547 -40.166016C3.417969 -39.990234 3.500977 -39.804688 3.559570 -39.609375C3.618164 -39.414062 3.647461 -39.208984 3.647461 -38.994141C3.647461 -38.867188 3.620605 -38.725586 3.566895 -38.569336C3.513184 -38.413086 3.432617 -38.269043 3.325195 -38.137207C3.217773 -38.005371 3.076172 -37.897949 2.900391 -37.814941C2.724609 -37.731934 2.514648 -37.695312 2.270508 -37.705078C1.840820 -37.724609 1.520996 -37.883301 1.311035 -38.181152C1.101074 -38.479004 0.996094 -38.842773 0.996094 -39.272461C0.996094 -39.711914 1.135254 -40.178223 1.413574 -40.671387C1.691895 -41.164551 2.092285 -41.616211 2.614746 -42.026367C3.137207 -42.436523 3.771973 -42.778320 4.519043 -43.051758C5.266113 -43.325195 6.113281 -43.461914 7.060547 -43.461914C8.212891 -43.461914 9.184570 -43.305664 9.975586 -42.993164C10.766602 -42.680664 11.398926 -42.275391 11.872559 -41.777344C12.346191 -41.279297 12.678223 -40.717773 12.868652 -40.092773C13.059082 -39.467773 13.134766 -38.842773 13.095703 -38.217773C13.056641 -37.543945 12.863770 -36.918945 12.517090 -36.342773C12.170410 -35.766602 11.748047 -35.229492 11.250000 -34.731445C10.751953 -34.233398 10.219727 -33.767090 9.653320 -33.332520C9.086914 -32.897949 8.562012 -32.490234 8.078613 -32.109375C7.595215 -31.728516 7.194824 -31.362305 6.877441 -31.010742C6.560059 -30.659180 6.401367 -30.317383 6.401367 -29.985352C6.401367 -29.868164 6.423340 -29.748535 6.467285 -29.626465C6.511230 -29.504395 6.582031 -29.396973 6.679688 -29.304199C6.777344 -29.211426 6.906738 -29.135742 7.067871 -29.077148C7.229004 -29.018555 7.426758 -28.989258 7.661133 -28.989258C7.797852 -28.989258 7.971191 -29.006348 8.181152 -29.040527C8.391113 -29.074707 8.588867 -29.130859 8.774414 -29.208984L9.125977 -28.154297C8.813477 -27.968750 8.435059 -27.832031 7.990723 -27.744141C7.546387 -27.656250 7.138672 -27.612305 6.767578 -27.612305C6.474609 -27.612305 6.184082 -27.648926 5.895996 -27.722168C5.607910 -27.795410 5.351562 -27.910156 5.126953 -28.066406C4.902344 -28.222656 4.719238 -28.427734 4.577637 -28.681641C4.436035 -28.935547 4.365234 -29.248047 4.365234 -29.619141C4.365234 -30.068359 4.506836 -30.490723 4.790039 -30.886230C5.073242 -31.281738 5.429688 -31.672363 5.859375 -32.058105C6.289062 -32.443848 6.755371 -32.844238 7.258301 -33.259277C7.761230 -33.674316 8.232422 -34.128418 8.671875 -34.621582C9.111328 -35.114746 9.479980 -35.661621 9.777832 -36.262207C10.075684 -36.862793 10.239258 -37.543945 10.268555 -38.305664C10.278320 -38.842773 10.227051 -39.353027 10.114746 -39.836426C10.002441 -40.319824 9.804688 -40.744629 9.521484 -41.110840C9.238281 -41.477051 8.857422 -41.765137 8.378906 -41.975098C7.900391 -42.185059 7.309570 -42.290039 6.606445 -42.290039C6.176758 -42.290039 5.769043 -42.224121 5.383301 -42.092285C4.997559 -41.960449 4.658203 -41.789551 4.365234 -41.579590C4.072266 -41.369629 3.833008 -41.140137 3.647461 -40.891113C3.461914 -40.642090 3.349609 -40.400391 3.310547 -40.166016ZM8.569336 -23.261719C8.569336 -23.017578 8.530273 -22.788086 8.452148 -22.573242C8.374023 -22.358398 8.264160 -22.170410 8.122559 -22.009277C7.980957 -21.848145 7.812500 -21.721191 7.617188 -21.628418C7.421875 -21.535645 7.207031 -21.489258 6.972656 -21.489258C6.767578 -21.489258 6.567383 -21.528320 6.372070 -21.606445C6.176758 -21.684570 6.003418 -21.801758 5.852051 -21.958008C5.700684 -22.114258 5.578613 -22.299805 5.485840 -22.514648C5.393066 -22.729492 5.346680 -22.978516 5.346680 -23.261719C5.346680 -23.505859 5.393066 -23.735352 5.485840 -23.950195C5.578613 -24.165039 5.700684 -24.353027 5.852051 -24.514160C6.003418 -24.675293 6.176758 -24.802246 6.372070 -24.895020C6.567383 -24.987793 6.767578 -25.034180 6.972656 -25.034180C7.197266 -25.034180 7.407227 -24.987793 7.602539 -24.895020C7.797852 -24.802246 7.966309 -24.675293 8.107910 -24.514160C8.249512 -24.353027 8.361816 -24.165039 8.444824 -23.950195C8.527832 -23.735352 8.569336 -23.505859 8.569336 -23.261719ZM8.569336 -23.261719"></path></svg>