<svg width="14.824219" height="15.629883" viewBox="1.230469 -30.878906 14.824219 15.629883" xmlns="http://www.w3.org/2000/svg"><path d="M15.161133 -19.057617C14.340820 -17.807617 13.395996 -16.860352 12.326660 -16.215820C11.257324 -15.571289 10.024414 -15.249023 8.627930 -15.249023C7.495117 -15.249023 6.472168 -15.449219 5.559082 -15.849609C4.645996 -16.250000 3.869629 -16.801758 3.229980 -17.504883C2.590332 -18.208008 2.097168 -19.033203 1.750488 -19.980469C1.403809 -20.927734 1.230469 -21.953125 1.230469 -23.056641C1.230469 -24.169922 1.408691 -25.202637 1.765137 -26.154785C2.121582 -27.106934 2.622070 -27.932129 3.266602 -28.630371C3.911133 -29.328613 4.687500 -29.877930 5.595703 -30.278320C6.503906 -30.678711 7.514648 -30.878906 8.627930 -30.878906C9.819336 -30.878906 10.869141 -30.673828 11.777344 -30.263672C12.685547 -29.853516 13.449707 -29.291992 14.069824 -28.579102C14.689941 -27.866211 15.166016 -27.036133 15.498047 -26.088867C15.830078 -25.141602 16.015625 -24.130859 16.054688 -23.056641L4.467773 -23.056641L4.467773 -17.944336C5.659180 -16.831055 7.045898 -16.274414 8.627930 -16.274414C10.991211 -16.274414 12.836914 -17.402344 14.165039 -19.658203ZM12.817383 -28.183594C11.635742 -29.326172 10.229492 -29.897461 8.598633 -29.897461C6.958008 -29.897461 5.581055 -29.326172 4.467773 -28.183594L4.467773 -24.096680L12.817383 -24.096680ZM12.817383 -28.183594"></path></svg>