<svg width="3.779297" height="8.393555" viewBox="0.747070 -31.201172 3.779297 8.393555" xmlns="http://www.w3.org/2000/svg"><path d="M1.494141 -23.408203C1.660156 -23.613281 1.835938 -23.891602 2.021484 -24.243164C2.207031 -24.594727 2.370605 -24.985352 2.512207 -25.415039C2.653809 -25.844727 2.763672 -26.296387 2.841797 -26.770020C2.919922 -27.243652 2.929688 -27.709961 2.871094 -28.168945C2.587891 -28.041992 2.316895 -27.988281 2.058105 -28.007812C1.799316 -28.027344 1.572266 -28.100586 1.376953 -28.227539C1.181641 -28.354492 1.027832 -28.525391 0.915527 -28.740234C0.803223 -28.955078 0.747070 -29.194336 0.747070 -29.458008C0.747070 -30.014648 0.908203 -30.444336 1.230469 -30.747070C1.552734 -31.049805 1.943359 -31.201172 2.402344 -31.201172C2.744141 -31.201172 3.046875 -31.130371 3.310547 -30.988770C3.574219 -30.847168 3.796387 -30.654297 3.977051 -30.410156C4.157715 -30.166016 4.294434 -29.877930 4.387207 -29.545898C4.479980 -29.213867 4.526367 -28.857422 4.526367 -28.476562C4.526367 -28.095703 4.472656 -27.648926 4.365234 -27.136230C4.257812 -26.623535 4.106445 -26.103516 3.911133 -25.576172C3.715820 -25.048828 3.481445 -24.538574 3.208008 -24.045410C2.934570 -23.552246 2.631836 -23.139648 2.299805 -22.807617ZM1.494141 -23.408203"></path></svg>