<svg width="19.614258" height="15.000000" viewBox="1.318359 -30.000000 19.614258 15.000000" xmlns="http://www.w3.org/2000/svg"><path d="M7.470703 -29.106445C7.011719 -29.106445 6.662598 -29.020996 6.423340 -28.850098C6.184082 -28.679199 6.010742 -28.464355 5.903320 -28.205566C5.795898 -27.946777 5.734863 -27.663574 5.720215 -27.355957C5.705566 -27.048340 5.698242 -26.752930 5.698242 -26.469727L5.698242 -23.701172L7.221680 -23.745117C8.432617 -23.784180 9.448242 -23.693848 10.268555 -23.474121C11.088867 -23.254395 11.748047 -22.944336 12.246094 -22.543945C12.744141 -22.143555 13.098145 -21.677246 13.308105 -21.145020C13.518066 -20.612793 13.623047 -20.048828 13.623047 -19.453125C13.623047 -18.730469 13.491211 -18.093262 13.227539 -17.541504C12.963867 -16.989746 12.607422 -16.525879 12.158203 -16.149902C11.708984 -15.773926 11.186523 -15.488281 10.590820 -15.292969C9.995117 -15.097656 9.370117 -15.000000 8.715820 -15.000000L1.318359 -15.000000L1.318359 -15.893555C1.679688 -15.903320 1.977539 -15.969238 2.211914 -16.091309C2.446289 -16.213379 2.631836 -16.384277 2.768555 -16.604004C2.905273 -16.823730 2.998047 -17.087402 3.046875 -17.395020C3.095703 -17.702637 3.120117 -18.056641 3.120117 -18.457031L3.120117 -26.821289C3.120117 -27.221680 3.125000 -27.575684 3.134766 -27.883301C3.144531 -28.190918 3.178711 -28.515625 3.237305 -28.857422L1.347656 -28.769531L1.347656 -30.000000L7.470703 -30.000000ZM20.932617 -29.106445C20.473633 -29.106445 20.124512 -29.016113 19.885254 -28.835449C19.645996 -28.654785 19.470215 -28.403320 19.357910 -28.081055C19.245605 -27.758789 19.179688 -27.373047 19.160156 -26.923828C19.140625 -26.474609 19.125977 -25.981445 19.116211 -25.444336L19.116211 -18.178711C19.116211 -17.778320 19.111328 -17.424316 19.101562 -17.116699C19.091797 -16.809082 19.057617 -16.484375 18.999023 -16.142578L20.888672 -16.230469L20.888672 -15.000000L14.765625 -15.000000L14.765625 -15.893555C15.224609 -15.893555 15.573730 -15.983887 15.812988 -16.164551C16.052246 -16.345215 16.228027 -16.596680 16.340332 -16.918945C16.452637 -17.241211 16.518555 -17.626953 16.538086 -18.076172C16.557617 -18.525391 16.572266 -19.018555 16.582031 -19.555664L16.582031 -26.821289C16.582031 -27.221680 16.586914 -27.575684 16.596680 -27.883301C16.606445 -28.190918 16.640625 -28.515625 16.699219 -28.857422L14.809570 -28.769531L14.809570 -30.000000L20.932617 -30.000000ZM5.698242 -17.900391C5.698242 -17.509766 5.690918 -17.180176 5.676270 -16.911621C5.661621 -16.643066 5.644531 -16.416016 5.625000 -16.230469C6.298828 -16.201172 6.967773 -16.186523 7.631836 -16.186523C8.090820 -16.186523 8.522949 -16.245117 8.928223 -16.362305C9.333496 -16.479492 9.687500 -16.665039 9.990234 -16.918945C10.292969 -17.172852 10.532227 -17.500000 10.708008 -17.900391C10.883789 -18.300781 10.971680 -18.789062 10.971680 -19.365234C10.971680 -20.400391 10.678711 -21.203613 10.092773 -21.774902C9.506836 -22.346191 8.686523 -22.631836 7.631836 -22.631836C7.416992 -22.631836 7.226562 -22.629395 7.060547 -22.624512C6.894531 -22.619629 6.738281 -22.614746 6.591797 -22.609863C6.445312 -22.604980 6.301270 -22.597656 6.159668 -22.587891C6.018066 -22.578125 5.864258 -22.568359 5.698242 -22.558594ZM5.698242 -17.900391"></path></svg>