<svg width="17.841797" height="21.005859" viewBox="0.659180 -42.011719 17.841797 21.005859" xmlns="http://www.w3.org/2000/svg"><path d="M17.373047 -35.668945C17.353516 -36.557617 17.285156 -37.331543 17.167969 -37.990723C17.050781 -38.649902 16.845703 -39.196777 16.552734 -39.631348C16.259766 -40.065918 15.864258 -40.390625 15.366211 -40.605469C14.868164 -40.820312 14.233398 -40.927734 13.461914 -40.927734L10.927734 -40.913086L10.883789 -24.580078C10.883789 -23.505859 10.854492 -22.714844 10.795898 -22.207031L13.286133 -22.324219L13.286133 -21.005859L6.240234 -21.005859L6.240234 -22.001953C6.796875 -22.021484 7.216797 -22.128906 7.500000 -22.324219C7.783203 -22.519531 7.983398 -22.780762 8.100586 -23.107910C8.217773 -23.435059 8.276367 -23.818359 8.276367 -24.257812C8.276367 -24.697266 8.276367 -25.170898 8.276367 -25.678711L8.320312 -40.883789L5.214844 -40.869141C4.580078 -40.869141 4.045410 -40.764160 3.610840 -40.554199C3.176270 -40.344238 2.822266 -40.024414 2.548828 -39.594727C2.275391 -39.165039 2.077637 -38.625488 1.955566 -37.976074C1.833496 -37.326660 1.772461 -36.557617 1.772461 -35.668945L0.659180 -35.668945L0.834961 -42.011719L18.325195 -42.011719L18.500977 -35.668945ZM17.373047 -35.668945"></path></svg>