<svg width="13.710938" height="21.489258" viewBox="1.025391 -42.495117 13.710938 21.489258" xmlns="http://www.w3.org/2000/svg"><path d="M10.166016 -28.828125C9.707031 -28.808594 9.230957 -28.767090 8.737793 -28.703613C8.244629 -28.640137 7.761230 -28.542480 7.287598 -28.410645C6.813965 -28.278809 6.367188 -28.110352 5.947266 -27.905273C5.527344 -27.700195 5.161133 -27.456055 4.848633 -27.172852C4.536133 -26.889648 4.291992 -26.562500 4.116211 -26.191406C3.940430 -25.820312 3.862305 -25.400391 3.881836 -24.931641C3.891602 -24.560547 3.962402 -24.235840 4.094238 -23.957520C4.226074 -23.679199 4.396973 -23.449707 4.606934 -23.269043C4.816895 -23.088379 5.058594 -22.951660 5.332031 -22.858887C5.605469 -22.766113 5.898438 -22.719727 6.210938 -22.719727C6.611328 -22.719727 6.987305 -22.758789 7.338867 -22.836914C7.690430 -22.915039 8.024902 -23.029785 8.342285 -23.181152C8.659668 -23.332520 8.967285 -23.515625 9.265137 -23.730469C9.562988 -23.945312 9.863281 -24.194336 10.166016 -24.477539ZM1.933594 -33.369141C1.933594 -33.867188 2.080078 -34.335938 2.373047 -34.775391C2.666016 -35.214844 3.076172 -35.598145 3.603516 -35.925293C4.130859 -36.252441 4.758301 -36.508789 5.485840 -36.694336C6.213379 -36.879883 7.006836 -36.972656 7.866211 -36.972656C9.545898 -36.972656 10.783691 -36.528320 11.579590 -35.639648C12.375488 -34.750977 12.768555 -33.339844 12.758789 -31.406250L12.729492 -24.667969C12.729492 -24.355469 12.722168 -24.040527 12.707520 -23.723145C12.692871 -23.405762 12.661133 -23.041992 12.612305 -22.631836L14.736328 -22.749023L14.736328 -21.489258L10.444336 -21.489258C10.385742 -21.831055 10.341797 -22.128906 10.312500 -22.382812C10.283203 -22.636719 10.258789 -22.905273 10.239258 -23.188477C9.565430 -22.514648 8.830566 -21.982422 8.034668 -21.591797C7.238770 -21.201172 6.396484 -21.005859 5.507812 -21.005859C4.755859 -21.005859 4.099121 -21.096191 3.537598 -21.276855C2.976074 -21.457520 2.509766 -21.708984 2.138672 -22.031250C1.767578 -22.353516 1.489258 -22.731934 1.303711 -23.166504C1.118164 -23.601074 1.025391 -24.067383 1.025391 -24.565430C1.025391 -25.180664 1.159668 -25.742188 1.428223 -26.250000C1.696777 -26.757812 2.058105 -27.209473 2.512207 -27.604980C2.966309 -28.000488 3.496094 -28.342285 4.101562 -28.630371C4.707031 -28.918457 5.349121 -29.155273 6.027832 -29.340820C6.706543 -29.526367 7.399902 -29.660645 8.107910 -29.743652C8.815918 -29.826660 9.506836 -29.863281 10.180664 -29.853516L10.180664 -31.728516C10.180664 -32.246094 10.151367 -32.749023 10.092773 -33.237305C10.034180 -33.725586 9.904785 -34.169922 9.704590 -34.570312C9.504395 -34.970703 9.191895 -35.288086 8.767090 -35.522461C8.342285 -35.756836 7.851562 -35.874023 7.294922 -35.874023C6.972656 -35.874023 6.665039 -35.847168 6.372070 -35.793457C6.079102 -35.739746 5.791016 -35.649414 5.507812 -35.522461C5.224609 -35.395508 4.968262 -35.229492 4.738770 -35.024414C4.509277 -34.819336 4.321289 -34.575195 4.174805 -34.291992C4.321289 -34.125977 4.421387 -33.942871 4.475098 -33.742676C4.528809 -33.542480 4.555664 -33.349609 4.555664 -33.164062C4.555664 -33.046875 4.531250 -32.912598 4.482422 -32.761230C4.433594 -32.609863 4.357910 -32.468262 4.255371 -32.336426C4.152832 -32.204590 4.020996 -32.097168 3.859863 -32.014160C3.698730 -31.931152 3.481445 -31.889648 3.208008 -31.889648C2.817383 -31.889648 2.507324 -32.033691 2.277832 -32.321777C2.048340 -32.609863 1.933594 -32.958984 1.933594 -33.369141ZM3.544922 -42.495117L11.499023 -42.495117L11.499023 -40.810547L3.544922 -40.693359ZM3.544922 -42.495117"></path></svg>