<svg width="14.077148" height="27.814941" viewBox="1.655273 -55.629883 14.077148 27.814941" xmlns="http://www.w3.org/2000/svg"><path d="M14.736328 -43.562012C14.736328 -44.450684 14.626465 -45.170898 14.406738 -45.722656C14.187012 -46.274414 13.889160 -46.704102 13.513184 -47.011719C13.137207 -47.319336 12.697754 -47.524414 12.194824 -47.626953C11.691895 -47.729492 11.157227 -47.775879 10.590820 -47.766113L8.408203 -47.707520C7.851562 -47.687988 7.429199 -47.583008 7.141113 -47.392578C6.853027 -47.202148 6.650391 -46.943359 6.533203 -46.616211C6.416016 -46.289062 6.354980 -45.903320 6.350098 -45.458984C6.345215 -45.014648 6.342773 -44.533691 6.342773 -44.016113L6.342773 -31.389160C6.342773 -30.842285 6.335449 -30.373535 6.320801 -29.982910C6.306152 -29.592285 6.279297 -29.270020 6.240234 -29.016113L9.301758 -29.133301L9.301758 -27.814941L1.655273 -27.814941L1.655273 -28.811035C2.221680 -28.830566 2.646484 -28.933105 2.929688 -29.118652C3.212891 -29.304199 3.413086 -29.558105 3.530273 -29.880371C3.647461 -30.202637 3.708496 -30.585938 3.713379 -31.030273C3.718262 -31.474609 3.720703 -31.960449 3.720703 -32.487793L3.720703 -45.451660C3.720703 -45.861816 3.728027 -46.250000 3.742676 -46.616211C3.757324 -46.982422 3.784180 -47.316895 3.823242 -47.619629L1.655273 -47.487793L1.655273 -48.820801L15.571289 -48.820801L15.732422 -43.562012ZM7.324219 -50.607910L6.665039 -51.486816L10.444336 -55.090332C10.737305 -55.344238 11.003418 -55.500488 11.242676 -55.559082C11.481934 -55.617676 11.687012 -55.629883 11.857910 -55.595703C12.028809 -55.561523 12.165527 -55.502930 12.268066 -55.419922C12.370605 -55.336914 12.436523 -55.275879 12.465820 -55.236816C12.514648 -55.168457 12.563477 -55.068359 12.612305 -54.936523C12.661133 -54.804688 12.670898 -54.650879 12.641602 -54.475098C12.612305 -54.299316 12.529297 -54.108887 12.392578 -53.903809C12.255859 -53.698730 12.016602 -53.493652 11.674805 -53.288574ZM7.324219 -50.607910"></path></svg>