<svg width="8.232422" height="29.985352" viewBox="-2.636719 -51.840820 8.232422 29.985352" xmlns="http://www.w3.org/2000/svg"><path d="M-2.636719 -23.525391C-2.636719 -23.896484 -2.517090 -24.226074 -2.277832 -24.514160C-2.038574 -24.802246 -1.728516 -24.946289 -1.347656 -24.946289C-1.103516 -24.946289 -0.898438 -24.904785 -0.732422 -24.821777C-0.566406 -24.738770 -0.432129 -24.633789 -0.329590 -24.506836C-0.227051 -24.379883 -0.153809 -24.240723 -0.109863 -24.089355C-0.065918 -23.937988 -0.043945 -23.803711 -0.043945 -23.686523C-0.043945 -23.637695 -0.043945 -23.591309 -0.043945 -23.547363C-0.043945 -23.503418 -0.048828 -23.457031 -0.058594 -23.408203C0.224609 -23.291016 0.478516 -23.232422 0.703125 -23.232422C0.830078 -23.232422 1.000977 -23.259277 1.215820 -23.312988C1.430664 -23.366699 1.669922 -23.510742 1.933594 -23.745117C2.265625 -24.057617 2.492676 -24.533691 2.614746 -25.173340C2.736816 -25.812988 2.797852 -26.552734 2.797852 -27.392578L2.856445 -41.381836C2.856445 -41.694336 2.858887 -41.997070 2.863770 -42.290039C2.868652 -42.583008 2.895508 -42.929688 2.944336 -43.330078L0.820312 -43.212891L0.820312 -44.472656C1.474609 -44.472656 2.019043 -44.494629 2.453613 -44.538574C2.888184 -44.582520 3.242188 -44.641113 3.515625 -44.714355C3.789062 -44.787598 4.003906 -44.873047 4.160156 -44.970703C4.316406 -45.068359 4.453125 -45.170898 4.570312 -45.278320L5.434570 -45.278320L5.434570 -29.882812C5.434570 -28.486328 5.290527 -27.282715 5.002441 -26.271973C4.714355 -25.261230 4.313965 -24.428711 3.801270 -23.774414C3.288574 -23.120117 2.685547 -22.636719 1.992188 -22.324219C1.298828 -22.011719 0.546875 -21.855469 -0.263672 -21.855469C-0.673828 -21.855469 -1.030273 -21.901855 -1.333008 -21.994629C-1.635742 -22.087402 -1.882324 -22.211914 -2.072754 -22.368164C-2.263184 -22.524414 -2.404785 -22.702637 -2.497559 -22.902832C-2.590332 -23.103027 -2.636719 -23.310547 -2.636719 -23.525391ZM5.595703 -50.024414C5.595703 -49.780273 5.549316 -49.550781 5.456543 -49.335938C5.363770 -49.121094 5.244141 -48.933105 5.097656 -48.771973C4.951172 -48.610840 4.780273 -48.486328 4.584961 -48.398438C4.389648 -48.310547 4.184570 -48.266602 3.969727 -48.266602C3.754883 -48.266602 3.549805 -48.310547 3.354492 -48.398438C3.159180 -48.486328 2.985840 -48.610840 2.834473 -48.771973C2.683105 -48.933105 2.565918 -49.121094 2.482910 -49.335938C2.399902 -49.550781 2.358398 -49.780273 2.358398 -50.024414C2.358398 -50.278320 2.402344 -50.515137 2.490234 -50.734863C2.578125 -50.954590 2.697754 -51.147461 2.849121 -51.313477C3.000488 -51.479492 3.173828 -51.608887 3.369141 -51.701660C3.564453 -51.794434 3.774414 -51.840820 3.999023 -51.840820C4.223633 -51.840820 4.431152 -51.794434 4.621582 -51.701660C4.812012 -51.608887 4.980469 -51.479492 5.126953 -51.313477C5.273438 -51.147461 5.388184 -50.954590 5.471191 -50.734863C5.554199 -50.515137 5.595703 -50.278320 5.595703 -50.024414ZM5.595703 -50.024414"></path></svg>