<svg width="19.409180" height="21.005859" viewBox="0.263672 -42.011719 19.409180 21.005859" xmlns="http://www.w3.org/2000/svg"><path d="M18.676758 -41.015625C18.198242 -40.947266 17.744141 -40.776367 17.314453 -40.502930C16.884766 -40.229492 16.474609 -39.897461 16.083984 -39.506836C15.693359 -39.116211 15.324707 -38.686523 14.978027 -38.217773C14.631348 -37.749023 14.296875 -37.290039 13.974609 -36.840820L10.590820 -32.036133C11.118164 -31.313477 11.647949 -30.603027 12.180176 -29.904785C12.712402 -29.206543 13.212891 -28.549805 13.681641 -27.934570C14.150391 -27.319336 14.572754 -26.762695 14.948730 -26.264648C15.324707 -25.766602 15.629883 -25.361328 15.864258 -25.048828L17.929688 -22.265625L19.672852 -22.324219L19.672852 -21.005859L12.319336 -21.005859L12.319336 -22.001953C12.895508 -21.972656 13.320312 -22.023926 13.593750 -22.155762C13.867188 -22.287598 14.033203 -22.463379 14.091797 -22.683105C14.150391 -22.902832 14.123535 -23.146973 14.011230 -23.415527C13.898926 -23.684082 13.754883 -23.940430 13.579102 -24.184570C13.120117 -24.809570 12.502441 -25.617676 11.726074 -26.608887C10.949707 -27.600098 10.102539 -28.735352 9.184570 -30.014648C8.686523 -29.282227 8.188477 -28.549805 7.690430 -27.817383C7.192383 -27.084961 6.694336 -26.342773 6.196289 -25.590820C5.834961 -25.053711 5.461426 -24.494629 5.075684 -23.913574C4.689941 -23.332520 4.252930 -22.753906 3.764648 -22.177734L6.254883 -22.324219L6.254883 -21.005859L0.351562 -21.005859L0.351562 -22.001953C0.830078 -22.099609 1.250000 -22.248535 1.611328 -22.448730C1.972656 -22.648926 2.309570 -22.897949 2.622070 -23.195801C2.934570 -23.493652 3.237305 -23.842773 3.530273 -24.243164C3.823242 -24.643555 4.140625 -25.092773 4.482422 -25.590820L8.364258 -31.171875C7.495117 -32.402344 6.748047 -33.454590 6.123047 -34.328613C5.498047 -35.202637 4.963379 -35.949707 4.519043 -36.569824C4.074707 -37.189941 3.713379 -37.705078 3.435059 -38.115234C3.156738 -38.525391 2.922363 -38.881836 2.731934 -39.184570C2.541504 -39.487305 2.387695 -39.755859 2.270508 -39.990234C2.153320 -40.224609 2.041016 -40.478516 1.933594 -40.751953L0.263672 -40.678711L0.263672 -42.011719L8.027344 -42.011719L8.027344 -41.015625L6.708984 -40.957031C6.162109 -40.927734 5.788574 -40.837402 5.588379 -40.686035C5.388184 -40.534668 5.290527 -40.346680 5.295410 -40.122070C5.300293 -39.897461 5.378418 -39.643555 5.529785 -39.360352C5.681152 -39.077148 5.844727 -38.798828 6.020508 -38.525391C6.206055 -38.222656 6.430664 -37.873535 6.694336 -37.478027C6.958008 -37.082520 7.250977 -36.655273 7.573242 -36.196289C7.895508 -35.737305 8.242188 -35.251465 8.613281 -34.738770C8.984375 -34.226074 9.365234 -33.701172 9.755859 -33.164062L12.641602 -37.324219C12.895508 -37.685547 13.146973 -38.044434 13.395996 -38.400879C13.645020 -38.757324 13.884277 -39.089355 14.113770 -39.396973C14.343262 -39.704590 14.558105 -39.980469 14.758301 -40.224609C14.958496 -40.468750 15.136719 -40.664062 15.292969 -40.810547L12.773438 -40.678711L12.773438 -42.011719L18.676758 -42.011719ZM18.676758 -41.015625"></path></svg>