<svg width="9.711914" height="10.078125" viewBox="1.435547 -31.567383 9.711914 10.078125" xmlns="http://www.w3.org/2000/svg"><path d="M6.225586 -30.556641C5.854492 -30.556641 5.495605 -30.454102 5.148926 -30.249023C4.802246 -30.043945 4.519043 -29.775391 4.299316 -29.443359C4.079590 -29.111328 3.911133 -28.723145 3.793945 -28.278809C3.676758 -27.834473 3.618164 -27.353516 3.618164 -26.835938C3.618164 -26.269531 3.674316 -25.727539 3.786621 -25.209961C3.898926 -24.692383 4.069824 -24.235840 4.299316 -23.840332C4.528809 -23.444824 4.816895 -23.129883 5.163574 -22.895508C5.510254 -22.661133 5.922852 -22.543945 6.401367 -22.543945C6.840820 -22.543945 7.224121 -22.639160 7.551270 -22.829590C7.878418 -23.020020 8.154297 -23.281250 8.378906 -23.613281C8.603516 -23.945312 8.771973 -24.333496 8.884277 -24.777832C8.996582 -25.222168 9.052734 -25.698242 9.052734 -26.206055C9.052734 -26.772461 8.999023 -27.319336 8.891602 -27.846680C8.784180 -28.374023 8.618164 -28.837891 8.393555 -29.238281C8.168945 -29.638672 7.885742 -29.958496 7.543945 -30.197754C7.202148 -30.437012 6.762695 -30.556641 6.225586 -30.556641ZM6.357422 -31.567383C7.050781 -31.567383 7.687988 -31.447754 8.269043 -31.208496C8.850098 -30.969238 9.353027 -30.634766 9.777832 -30.205078C10.202637 -29.775391 10.537109 -29.260254 10.781250 -28.659668C11.025391 -28.059082 11.147461 -27.397461 11.147461 -26.674805C11.147461 -25.913086 11.027832 -25.214844 10.788574 -24.580078C10.549316 -23.945312 10.214844 -23.398438 9.785156 -22.939453C9.355469 -22.480469 8.842773 -22.124023 8.247070 -21.870117C7.651367 -21.616211 6.997070 -21.489258 6.284180 -21.489258C5.590820 -21.489258 4.948730 -21.608887 4.357910 -21.848145C3.767090 -22.087402 3.256836 -22.419434 2.827148 -22.844238C2.397461 -23.269043 2.058105 -23.774414 1.809082 -24.360352C1.560059 -24.946289 1.435547 -25.590820 1.435547 -26.293945C1.435547 -27.036133 1.560059 -27.729492 1.809082 -28.374023C2.058105 -29.018555 2.402344 -29.577637 2.841797 -30.051270C3.281250 -30.524902 3.801270 -30.895996 4.401855 -31.164551C5.002441 -31.433105 5.654297 -31.567383 6.357422 -31.567383ZM6.357422 -31.567383"></path></svg>