<svg width="10.854492" height="19.687500" viewBox="0.629883 -38.891602 10.854492 19.687500" xmlns="http://www.w3.org/2000/svg"><path d="M0.629883 -34.687500C1.157227 -34.697266 1.635742 -34.841309 2.065430 -35.119629C2.495117 -35.397949 2.873535 -35.744629 3.200684 -36.159668C3.527832 -36.574707 3.803711 -37.026367 4.028320 -37.514648C4.252930 -38.002930 4.428711 -38.461914 4.555664 -38.891602L5.581055 -38.891602C5.581055 -38.090820 5.578613 -37.343750 5.573730 -36.650391C5.568848 -35.957031 5.566406 -35.302734 5.566406 -34.687500L10.620117 -34.687500L10.620117 -33.515625L5.566406 -33.457031C5.556641 -32.158203 5.551758 -31.049805 5.551758 -30.131836C5.551758 -29.213867 5.549316 -28.447266 5.544434 -27.832031C5.539551 -27.216797 5.537109 -26.730957 5.537109 -26.374512C5.537109 -26.018066 5.534668 -25.747070 5.529785 -25.561523C5.524902 -25.375977 5.522461 -25.256348 5.522461 -25.202637C5.522461 -25.148926 5.522461 -25.117188 5.522461 -25.107422C5.522461 -24.423828 5.559082 -23.820801 5.632324 -23.298340C5.705566 -22.775879 5.830078 -22.336426 6.005859 -21.979980C6.181641 -21.623535 6.413574 -21.354980 6.701660 -21.174316C6.989746 -20.993652 7.353516 -20.903320 7.792969 -20.903320C8.310547 -20.903320 8.823242 -21.059570 9.331055 -21.372070C9.838867 -21.684570 10.288086 -22.128906 10.678711 -22.705078L11.484375 -22.045898C11.044922 -21.381836 10.607910 -20.861816 10.173340 -20.485840C9.738770 -20.109863 9.326172 -19.826660 8.935547 -19.636230C8.544922 -19.445801 8.181152 -19.326172 7.844238 -19.277344C7.507324 -19.228516 7.211914 -19.204102 6.958008 -19.204102C6.655273 -19.204102 6.345215 -19.228516 6.027832 -19.277344C5.710449 -19.326172 5.397949 -19.421387 5.090332 -19.562988C4.782715 -19.704590 4.494629 -19.904785 4.226074 -20.163574C3.957520 -20.422363 3.720703 -20.756836 3.515625 -21.166992C3.310547 -21.577148 3.149414 -22.075195 3.032227 -22.661133C2.915039 -23.247070 2.861328 -23.940430 2.871094 -24.741211L2.929688 -33.413086L0.629883 -33.398438ZM0.629883 -34.687500"></path></svg>