<svg width="12.817383" height="15.000000" viewBox="1.201172 -30.000000 12.817383 15.000000" xmlns="http://www.w3.org/2000/svg"><path d="M1.201172 -15.000000L1.201172 -16.230469C7.255859 -24.023438 10.358887 -28.007812 10.510254 -28.183594C10.661621 -28.359375 10.803223 -28.515625 10.935059 -28.652344C11.066895 -28.789062 11.181641 -28.886719 11.279297 -28.945312L5.639648 -28.857422C5.083008 -28.847656 4.624023 -28.730469 4.262695 -28.505859C3.901367 -28.281250 3.610840 -27.978516 3.391113 -27.597656C3.171387 -27.216797 3.002930 -26.770020 2.885742 -26.257324C2.768555 -25.744629 2.666016 -25.200195 2.578125 -24.624023L1.655273 -24.624023L2.006836 -30.000000L13.769531 -30.000000L13.769531 -29.033203L5.317383 -17.915039C5.190430 -17.749023 5.070801 -17.597656 4.958496 -17.460938C4.846191 -17.324219 4.731445 -17.189941 4.614258 -17.058105C4.497070 -16.926270 4.370117 -16.794434 4.233398 -16.662598C4.096680 -16.530762 3.935547 -16.386719 3.750000 -16.230469L9.536133 -16.142578C10.161133 -16.132812 10.683594 -16.240234 11.103516 -16.464844C11.523438 -16.689453 11.870117 -16.997070 12.143555 -17.387695C12.416992 -17.778320 12.629395 -18.237305 12.780762 -18.764648C12.932129 -19.291992 13.051758 -19.858398 13.139648 -20.463867L14.018555 -20.463867L13.652344 -15.000000ZM1.201172 -15.000000"></path></svg>