<?xml version="1.0" encoding="iso-8859-1"?>
<!-- Generator: Adobe Illustrator 19.0.0, SVG Export Plug-In . SVG Version: 6.00 Build 0)  -->
<svg version="1.1" id="Layer_1" xmlns="http://www.w3.org/2000/svg" xmlns:xlink="http://www.w3.org/1999/xlink" x="0px" y="0px"
	 viewBox="0 0 24 24" style="enable-background:new 0 0 24 24;" xml:space="preserve">
<g>
	<g>
		<path d="M16.658,24.002H6.221c-3.488,0-6.221-2.855-6.221-6.5v-11c0-3.645,2.732-6.5,6.221-6.5h7c3.675,0,6.779,2.977,6.779,6.5
			v1.125c0,1.208,0.48,1.375,1,1.375c2.243,0,3,0.757,3,3v5.188C24,21.073,20.844,24.002,16.658,24.002z M6.221,1.002
			C3.293,1.002,1,3.418,1,6.502v11c0,3.084,2.293,5.5,5.221,5.5h10.438c3.675,0,6.342-2.444,6.342-5.813v-5.188c0-1.701-0.299-2-2-2
			c-0.747,0-2-0.309-2-2.375V6.502c0-2.93-2.7-5.5-5.779-5.5H6.221z"/>
	</g>
	<g>
		<path d="M12.5,9.002h-5c-0.827,0-1.5-0.673-1.5-1.5s0.673-1.5,1.5-1.5h5c0.827,0,1.5,0.673,1.5,1.5S13.327,9.002,12.5,9.002z
			 M7.5,7.002c-0.275,0-0.5,0.224-0.5,0.5s0.225,0.5,0.5,0.5h5c0.275,0,0.5-0.224,0.5-0.5s-0.225-0.5-0.5-0.5H7.5z"/>
	</g>
	<g>
		<path d="M16.5,18.002h-9c-0.827,0-1.5-0.673-1.5-1.5s0.673-1.5,1.5-1.5h9c0.827,0,1.5,0.673,1.5,1.5S17.327,18.002,16.5,18.002z
			 M7.5,16.002c-0.275,0-0.5,0.224-0.5,0.5s0.225,0.5,0.5,0.5h9c0.275,0,0.5-0.224,0.5-0.5s-0.225-0.5-0.5-0.5H7.5z"/>
	</g>
</g>
<g>
</g>
<g>
</g>
<g>
</g>
<g>
</g>
<g>
</g>
<g>
</g>
<g>
</g>
<g>
</g>
<g>
</g>
<g>
</g>
<g>
</g>
<g>
</g>
<g>
</g>
<g>
</g>
<g>
</g>
</svg>
