<?xml version="1.0" encoding="iso-8859-1"?>
<!-- Generator: Adobe Illustrator 19.0.0, SVG Export Plug-In . SVG Version: 6.00 Build 0)  -->
<svg version="1.1" id="Layer_1" xmlns="http://www.w3.org/2000/svg" xmlns:xlink="http://www.w3.org/1999/xlink" x="0px" y="0px"
	 viewBox="0 0 24 24" style="enable-background:new 0 0 24 24;" xml:space="preserve">
<g>
	<g>
		<path d="M12,24.001c-6.617,0-12-5.383-12-12s5.383-12,12-12s12,5.383,12,12c0,0.117-0.007,0.233-0.015,0.348l-0.011,0.174
			c-0.012,0.267-0.231,0.478-0.499,0.478c0,0,0,0-0.001,0c-0.267,0-0.487-0.209-0.5-0.477C22.723,7.184,18.341,3.001,13,3.001
			c-5.514,0-10,4.486-10,10c0,5.341,4.183,9.723,9.523,9.975c0.267,0.013,0.477,0.233,0.477,0.5c0,0.267-0.211,0.487-0.478,0.499
			l-0.174,0.011C12.233,23.993,12.117,24.001,12,24.001z M12,1.001c-6.065,0-11,4.935-11,11c0,3.272,1.436,6.214,3.71,8.231
			C3.019,18.297,2,15.766,2,13.001c0-6.065,4.935-11,11-11c2.765,0,5.297,1.019,7.231,2.71C18.214,2.436,15.272,1.001,12,1.001z"/>
	</g>
	<g>
		<path d="M14.25,22.501c-4.825,0-8.75-3.925-8.75-8.75s3.925-8.75,8.75-8.75c1.502,0,2.99,0.393,4.301,1.135
			c0.182,0.103,0.28,0.308,0.247,0.514c-0.033,0.207-0.19,0.37-0.395,0.412C17.011,7.341,16,8.578,16,10.001c0,1.654,1.346,3,3,3
			c1.16,0,2.227-0.687,2.717-1.749c0.087-0.19,0.273-0.311,0.492-0.289c0.208,0.016,0.384,0.159,0.442,0.36
			C22.883,12.124,23,12.941,23,13.751C23,18.575,19.075,22.501,14.25,22.501z M14.25,6.001c-4.273,0-7.75,3.477-7.75,7.75
			s3.477,7.75,7.75,7.75S22,18.024,22,13.751c0-0.345-0.024-0.691-0.072-1.038c-0.746,0.806-1.804,1.288-2.928,1.288
			c-2.206,0-4-1.794-4-4c0-1.467,0.806-2.785,2.031-3.48C16.145,6.178,15.201,6.001,14.25,6.001z"/>
	</g>
</g>
<g>
</g>
<g>
</g>
<g>
</g>
<g>
</g>
<g>
</g>
<g>
</g>
<g>
</g>
<g>
</g>
<g>
</g>
<g>
</g>
<g>
</g>
<g>
</g>
<g>
</g>
<g>
</g>
<g>
</g>
</svg>
