<?xml version="1.0" encoding="iso-8859-1"?>
<!-- Generator: Adobe Illustrator 19.0.0, SVG Export Plug-In . SVG Version: 6.00 Build 0)  -->
<svg version="1.1" id="Layer_1" xmlns="http://www.w3.org/2000/svg" xmlns:xlink="http://www.w3.org/1999/xlink" x="0px" y="0px"
	 viewBox="0 0 24 24" style="enable-background:new 0 0 24 24;" xml:space="preserve">
<g>
	<path d="M13,24.002h-3c-0.276,0-0.5-0.224-0.5-0.5v-10.5H6c-0.276,0-0.5-0.224-0.5-0.5v-3c0-0.276,0.224-0.5,0.5-0.5h3.5v-3.5
		c0-3.033,2.468-5.5,5.5-5.5h3c0.276,0,0.5,0.224,0.5,0.5v3c0,0.276-0.224,0.5-0.5,0.5h-3c-0.827,0-1.5,0.673-1.5,1.5v3.5H18
		c0.161,0,0.312,0.077,0.405,0.208c0.095,0.13,0.12,0.298,0.069,0.451l-1,3c-0.068,0.204-0.26,0.342-0.475,0.342h-3.5v10.5
		C13.5,23.779,13.276,24.002,13,24.002z M10.5,23.002h2v-10.5c0-0.276,0.224-0.5,0.5-0.5h3.64l0.667-2H13
		c-0.276,0-0.5-0.224-0.5-0.5v-4c0-1.378,1.121-2.5,2.5-2.5h2.5v-2H15c-2.481,0-4.5,2.019-4.5,4.5v4c0,0.276-0.224,0.5-0.5,0.5H6.5
		v2H10c0.276,0,0.5,0.224,0.5,0.5V23.002z"/>
</g>
<g>
</g>
<g>
</g>
<g>
</g>
<g>
</g>
<g>
</g>
<g>
</g>
<g>
</g>
<g>
</g>
<g>
</g>
<g>
</g>
<g>
</g>
<g>
</g>
<g>
</g>
<g>
</g>
<g>
</g>
</svg>
