<?xml version="1.0" encoding="iso-8859-1"?>
<!-- Generator: Adobe Illustrator 19.0.0, SVG Export Plug-In . SVG Version: 6.00 Build 0)  -->
<svg version="1.1" id="Layer_1" xmlns="http://www.w3.org/2000/svg" xmlns:xlink="http://www.w3.org/1999/xlink" x="0px" y="0px"
	 viewBox="0 0 24 24" style="enable-background:new 0 0 24 24;" xml:space="preserve">
<g>
	<path d="M12,24C5.383,24,0,18.617,0,12S5.383,0,12,0s12,5.383,12,12S18.617,24,12,24z M12,1C5.935,1,1,5.935,1,12s4.935,11,11,11
		s11-4.935,11-11S18.065,1,12,1z M12,19c-3.859,0-7-3.141-7-7s3.141-7,7-7c0.607,0,1.229,0.086,1.846,0.254
		c0.181,0.05,0.318,0.196,0.357,0.38c0.039,0.183-0.028,0.373-0.174,0.491C13.375,6.655,13,7.43,13,8.25
		C13,9.767,14.233,11,15.75,11c0.82,0,1.595-0.375,2.125-1.029c0.119-0.146,0.311-0.208,0.491-0.174
		c0.184,0.039,0.33,0.177,0.38,0.357C18.914,10.772,19,11.393,19,12C19,15.859,15.859,19,12,19z M12,6c-3.309,0-6,2.691-6,6
		s2.691,6,6,6s6-2.691,6-6c0-0.24-0.016-0.484-0.047-0.729C17.317,11.741,16.55,12,15.75,12C13.683,12,12,10.317,12,8.25
		c0-0.8,0.259-1.567,0.729-2.203C12.484,6.016,12.24,6,12,6z"/>
</g>
<g>
</g>
<g>
</g>
<g>
</g>
<g>
</g>
<g>
</g>
<g>
</g>
<g>
</g>
<g>
</g>
<g>
</g>
<g>
</g>
<g>
</g>
<g>
</g>
<g>
</g>
<g>
</g>
<g>
</g>
</svg>
