<?xml version="1.0" encoding="iso-8859-1"?>
<!-- Generator: Adobe Illustrator 19.0.0, SVG Export Plug-In . SVG Version: 6.00 Build 0)  -->
<svg version="1.1" id="Layer_1" xmlns="http://www.w3.org/2000/svg" xmlns:xlink="http://www.w3.org/1999/xlink" x="0px" y="0px"
	 viewBox="0 0 24 24" style="enable-background:new 0 0 24 24;" xml:space="preserve">
<g>
	<g>
		<path d="M5,15.001c-0.276,0-0.5-0.224-0.5-0.5v-5c0-0.276,0.224-0.5,0.5-0.5s0.5,0.224,0.5,0.5v5
			C5.5,14.777,5.276,15.001,5,15.001z"/>
	</g>
	<g>
		<path d="M11,15.001c-0.276,0-0.5-0.224-0.5-0.5v-4.5h-0.09L9.49,14.599C9.443,14.832,9.238,15.001,9,15.001
			s-0.443-0.168-0.49-0.402L7.59,10.001H7.5v4.5c0,0.276-0.224,0.5-0.5,0.5s-0.5-0.224-0.5-0.5v-5c0-0.276,0.224-0.5,0.5-0.5h1
			c0.238,0,0.443,0.168,0.49,0.402L9,11.951l0.51-2.549C9.557,9.169,9.762,9.001,10,9.001h1c0.276,0,0.5,0.224,0.5,0.5v5
			C11.5,14.777,11.276,15.001,11,15.001z"/>
	</g>
	<g>
		<path d="M14,15.001h-1c-0.276,0-0.5-0.224-0.5-0.5v-5c0-0.276,0.224-0.5,0.5-0.5h1c0.827,0,1.5,0.673,1.5,1.5v3
			C15.5,14.328,14.827,15.001,14,15.001z M13.5,14.001H14c0.276,0,0.5-0.224,0.5-0.5v-3c0-0.276-0.224-0.5-0.5-0.5h-0.5V14.001z"/>
	</g>
	<g>
		<path d="M17,15.001c-0.276,0-0.5-0.224-0.5-0.5v-5c0-0.276,0.224-0.5,0.5-0.5s0.5,0.224,0.5,0.5v5
			C17.5,14.777,17.276,15.001,17,15.001z"/>
	</g>
	<g>
		<path d="M18,15.001c-0.827,0-1.5-0.673-1.5-1.5v-2c0-0.827,0.673-1.5,1.5-1.5s1.5,0.673,1.5,1.5v2
			C19.5,14.328,18.827,15.001,18,15.001z M18,11.001c-0.276,0-0.5,0.224-0.5,0.5v2c0,0.276,0.224,0.5,0.5,0.5s0.5-0.224,0.5-0.5v-2
			C18.5,11.225,18.276,11.001,18,11.001z"/>
	</g>
	<g>
		<path d="M21,17.001H3c-1.378,0-2.5-1.122-2.5-2.5v-5c0-1.378,1.122-2.5,2.5-2.5h18c1.378,0,2.5,1.122,2.5,2.5v5
			C23.5,15.879,22.378,17.001,21,17.001z M3,8.001c-0.827,0-1.5,0.673-1.5,1.5v5c0,0.827,0.673,1.5,1.5,1.5h18
			c0.827,0,1.5-0.673,1.5-1.5v-5c0-0.827-0.673-1.5-1.5-1.5H3z"/>
	</g>
</g>
<g>
</g>
<g>
</g>
<g>
</g>
<g>
</g>
<g>
</g>
<g>
</g>
<g>
</g>
<g>
</g>
<g>
</g>
<g>
</g>
<g>
</g>
<g>
</g>
<g>
</g>
<g>
</g>
<g>
</g>
</svg>
