<?xml version="1.0" encoding="iso-8859-1"?>
<!-- Generator: Adobe Illustrator 19.0.0, SVG Export Plug-In . SVG Version: 6.00 Build 0)  -->
<svg version="1.1" id="Layer_1" xmlns="http://www.w3.org/2000/svg" xmlns:xlink="http://www.w3.org/1999/xlink" x="0px" y="0px"
	 viewBox="0 0 24 24" style="enable-background:new 0 0 24 24;" xml:space="preserve">
<g>
	<g>
		<path d="M0.5,24.002c-0.133,0-0.262-0.053-0.357-0.151c-0.137-0.14-0.18-0.346-0.109-0.529l1.863-4.845
			C0.654,16.546,0,14.313,0,12.002c0-6.617,5.383-12,12-12s12,5.383,12,12s-5.383,12-12,12c-2.244,0-4.429-0.626-6.333-1.814
			l-4.999,1.785C0.613,23.993,0.557,24.002,0.5,24.002z M5.73,21.135c0.096,0,0.191,0.027,0.273,0.081
			c1.79,1.169,3.864,1.787,5.997,1.787c6.065,0,11-4.935,11-11s-4.935-11-11-11s-11,4.935-11,11c0,2.198,0.646,4.32,1.87,6.136
			c0.091,0.135,0.11,0.307,0.052,0.459l-1.564,4.067l4.204-1.501C5.616,21.145,5.673,21.135,5.73,21.135z"/>
	</g>
	<g>
		<path d="M15,18.002c-1.571,0-4.587-1.879-5.854-3.146C7.879,13.588,6,10.572,6,9.002c0-1.616,1.375-3,2.5-3h1
			c0.19,0,0.364,0.108,0.448,0.279c0.001,0.001,0.603,1.225,0.997,1.993c0.444,0.867-0.391,1.887-0.866,2.368
			c0.17,0.436,0.567,1.3,1.274,2.007s1.571,1.105,2.007,1.274c0.48-0.476,1.5-1.312,2.368-0.866
			c0.768,0.395,1.991,0.996,1.992,0.996C17.892,14.138,18,14.312,18,14.502v1C18,16.628,16.615,18.002,15,18.002z M8.5,7.002
			c-0.565,0-1.5,0.935-1.5,2c0,1.159,1.634,3.926,2.854,5.146c1.333,1.333,4.074,2.854,5.146,2.854c1.065,0,2-0.935,2-1.5v-0.689
			c-0.41-0.202-1.184-0.586-1.729-0.866c-0.234-0.126-0.945,0.375-1.396,0.886c-0.129,0.146-0.33,0.202-0.514,0.149
			c-0.063-0.018-1.544-0.456-2.715-1.627s-1.608-2.652-1.627-2.715c-0.054-0.186,0.005-0.386,0.149-0.514
			c0.51-0.451,1.008-1.159,0.886-1.397C9.775,8.186,9.392,7.412,9.19,7.002H8.5z"/>
	</g>
</g>
<g>
</g>
<g>
</g>
<g>
</g>
<g>
</g>
<g>
</g>
<g>
</g>
<g>
</g>
<g>
</g>
<g>
</g>
<g>
</g>
<g>
</g>
<g>
</g>
<g>
</g>
<g>
</g>
<g>
</g>
</svg>
