<?xml version="1.0" encoding="iso-8859-1"?>
<!-- Generator: Adobe Illustrator 19.0.0, SVG Export Plug-In . SVG Version: 6.00 Build 0)  -->
<svg version="1.1" id="Layer_1" xmlns="http://www.w3.org/2000/svg" xmlns:xlink="http://www.w3.org/1999/xlink" x="0px" y="0px"
	 viewBox="0 0 24 24" style="enable-background:new 0 0 24 24;" xml:space="preserve">
<g>
	<g>
		<path d="M12,24.001c-6.617,0-12-5.383-12-12s5.383-12,12-12s12,5.383,12,12S18.617,24.001,12,24.001z M12,1.001
			c-6.065,0-11,4.935-11,11s4.935,11,11,11s11-4.935,11-11S18.065,1.001,12,1.001z"/>
	</g>
	<g>
		<path d="M12,21.001c-4.636,0-8-3.995-8-9.5c0-0.276,0.224-0.5,0.5-0.5h15c0.276,0,0.5,0.224,0.5,0.5
			C20,17.006,16.636,21.001,12,21.001z M5.01,12.001c0.186,4.736,3.008,8,6.99,8s6.805-3.264,6.99-8H5.01z"/>
	</g>
	<g>
		<path d="M19,14.001H5c-0.276,0-0.5-0.224-0.5-0.5s0.224-0.5,0.5-0.5h14c0.276,0,0.5,0.224,0.5,0.5S19.276,14.001,19,14.001z"/>
	</g>
	<g>
		<path d="M9,9.001c-0.579,0-1-0.631-1-1.5s0.421-1.5,1-1.5s1,0.631,1,1.5S9.579,9.001,9,9.001z"/>
	</g>
	<g>
		<path d="M15,9.001c-0.579,0-1-0.631-1-1.5s0.421-1.5,1-1.5s1,0.631,1,1.5S15.579,9.001,15,9.001z"/>
	</g>
</g>
<g>
</g>
<g>
</g>
<g>
</g>
<g>
</g>
<g>
</g>
<g>
</g>
<g>
</g>
<g>
</g>
<g>
</g>
<g>
</g>
<g>
</g>
<g>
</g>
<g>
</g>
<g>
</g>
<g>
</g>
</svg>
