<?xml version="1.0" encoding="iso-8859-1"?>
<!-- Generator: Adobe Illustrator 19.0.0, SVG Export Plug-In . SVG Version: 6.00 Build 0)  -->
<svg version="1.1" id="Layer_1" xmlns="http://www.w3.org/2000/svg" xmlns:xlink="http://www.w3.org/1999/xlink" x="0px" y="0px"
	 viewBox="0 0 24 24" style="enable-background:new 0 0 24 24;" xml:space="preserve">
<g>
	<g>
		<path d="M15,24.001c-1.435,0-3.348-0.585-4.419-2.227c-0.715-1.096-2.03-3.882-2.67-5.267c-0.523,0.658-1.391,1.494-2.411,1.494
			c-2,0-2-2.453-2-3.5c0-2.652,2.108-4.5,4-4.5c0.966,0,1.572,0.185,1.932,0.361l4.433-4.433c-1-0.13-1.732-0.411-2.308-0.631
			C11.123,5.132,10.78,5.001,10.5,5.001c-0.315,0-0.568,0.172-0.888,0.391C9.214,5.663,8.718,6.001,8,6.001
			c-0.32,0-0.611-0.126-0.842-0.366C6.465,4.914,6.488,3.299,6.5,2.982C6.526,1.955,7.082,0.001,9,0.001
			c3.901,0,6.607,1.173,7.718,1.76c0.281-0.722,0.849-1.76,1.782-1.76c0.743,0,2,0.632,2,3c0,1.646-1.071,2.525-1.933,3.23
			c-0.214,0.175-0.426,0.348-0.618,0.53c-0.461,1.355-3.974,4.71-6.315,6.839c0.889,1.487,3.012,4.4,4.866,4.4
			c0.872,0,1.202-0.234,1.552-0.483c0.341-0.242,0.727-0.517,1.448-0.517c1,0,1,1.565,1,2.5C20.5,22.617,16.515,24.001,15,24.001z
			 M8,15.001c0.008,0,0.017,0,0.025,0c0.187,0.009,0.354,0.123,0.431,0.293c0.021,0.045,2.057,4.544,2.963,5.933
			c0.853,1.307,2.409,1.773,3.581,1.773c1.048,0,4.5-1.091,4.5-3.5c0-0.967-0.08-1.348-0.134-1.495
			c-0.312,0.025-0.479,0.144-0.735,0.327c-0.418,0.297-0.939,0.668-2.131,0.668c-3.011,0-5.82-5.044-5.938-5.259
			c-0.111-0.203-0.068-0.456,0.104-0.612c2.945-2.663,6.206-5.963,6.337-6.651c0-0.132,0.051-0.237,0.145-0.331
			c0.239-0.239,0.511-0.463,0.787-0.689C18.774,4.769,19.5,4.174,19.5,3.001c0-1.374-0.519-2-1-2c-0.362,0-0.836,0.948-1.017,1.628
			c-0.041,0.156-0.155,0.281-0.306,0.339c-0.15,0.057-0.319,0.04-0.454-0.051C16.694,2.898,13.771,1.001,9,1.001
			c-1.434,0-1.498,1.93-1.5,2.013C7.478,3.632,7.581,4.633,7.879,4.942C7.932,4.996,7.966,5.001,8,5.001
			c0.409,0,0.705-0.202,1.049-0.436C9.437,4.301,9.876,4.001,10.5,4.001c0.466,0,0.905,0.168,1.415,0.364
			C12.654,4.648,13.574,5.001,15,5.001c0.202,0,0.385,0.122,0.462,0.309s0.034,0.402-0.108,0.545l-5.5,5.5
			c-0.096,0.096-0.219,0.141-0.361,0.146c-0.136-0.002-0.265-0.059-0.356-0.158c0,0,0,0,0,0c-0.003,0-0.419-0.342-1.636-0.342
			c-1.253,0-3,1.332-3,3.5c0,2.197,0.48,2.5,1,2.5c0.856,0,1.804-1.296,2.067-1.751C7.657,15.096,7.822,15.001,8,15.001z"/>
	</g>
</g>
<g>
</g>
<g>
</g>
<g>
</g>
<g>
</g>
<g>
</g>
<g>
</g>
<g>
</g>
<g>
</g>
<g>
</g>
<g>
</g>
<g>
</g>
<g>
</g>
<g>
</g>
<g>
</g>
<g>
</g>
</svg>
