<?xml version="1.0" encoding="utf-8"?>
<!-- Generator: Adobe Illustrator 19.0.0, SVG Export Plug-In . SVG Version: 6.00 Build 0)  -->
<svg version="1.1" id="Layer_1" xmlns="http://www.w3.org/2000/svg" xmlns:xlink="http://www.w3.org/1999/xlink" x="0px" y="0px"
	 viewBox="0 0 30 30" style="enable-background:new 0 0 30 30;" xml:space="preserve">
<g>
	<path d="M28.1,9.7c-0.2-0.1-0.4,0-0.5,0.1c-0.1,0.1-0.2,0.4-0.1,0.5c0.4,0.8,0.6,1.7,0.6,2.6c0,3.6-2.9,6.5-6.5,6.5S15,16.6,15,13
		c0-1,0.2-1.9,0.6-2.8c0.1-0.2,0.1-0.3,0-0.5s-0.3-0.2-0.4-0.2H3c-1.7,0-3,1.3-3,3v5c0,1.7,1.3,3,3,3h1V22c0,0.3,0.2,0.5,0.5,0.5
		S5,22.3,5,22v-1.5h16.5H25V22c0,0.3,0.2,0.5,0.5,0.5S26,22.3,26,22v-1.5h1c1.7,0,3-1.3,3-3v-5C30,11.3,29.2,10.2,28.1,9.7z
		 M13.5,17.5h-10C3.2,17.5,3,17.3,3,17s0.2-0.5,0.5-0.5h10c0.3,0,0.5,0.2,0.5,0.5S13.8,17.5,13.5,17.5z M13.5,15.5h-10
		C3.2,15.5,3,15.3,3,15s0.2-0.5,0.5-0.5h10c0.3,0,0.5,0.2,0.5,0.5S13.8,15.5,13.5,15.5z M13.5,13.5h-10C3.2,13.5,3,13.3,3,13
		s0.2-0.5,0.5-0.5h10c0.3,0,0.5,0.2,0.5,0.5S13.8,13.5,13.5,13.5z"/>
	<path d="M21.5,18.5c3,0,5.5-2.5,5.5-5.5s-2.5-5.5-5.5-5.5S16,10,16,13S18.5,18.5,21.5,18.5z M21.5,8.5c2.5,0,4.5,2,4.5,4.5
		s-2,4.5-4.5,4.5S17,15.5,17,13S19,8.5,21.5,8.5z"/>
	<path d="M19,13c0-1.4,1.1-2.5,2.5-2.5c0.3,0,0.5-0.2,0.5-0.5s-0.2-0.5-0.5-0.5c-1.9,0-3.5,1.6-3.5,3.5c0,0.3,0.2,0.5,0.5,0.5
		S19,13.3,19,13z"/>
</g>
</svg>
