<?xml version="1.0" encoding="utf-8"?>
<!-- Generator: Adobe Illustrator 19.0.0, SVG Export Plug-In . SVG Version: 6.00 Build 0)  -->
<svg version="1.1" id="Layer_1" xmlns="http://www.w3.org/2000/svg" xmlns:xlink="http://www.w3.org/1999/xlink" x="0px" y="0px"
	 viewBox="0 0 30 30" style="enable-background:new 0 0 30 30;" xml:space="preserve">
<g>
	<path d="M26.5,19.5h-14c-1.4,0-2.5,1.1-2.5,2.5v5c0,1.4,1.1,2.5,2.5,2.5h14c1.4,0,2.5-1.1,2.5-2.5v-5C29,20.6,27.9,19.5,26.5,19.5z
		 M21.8,24.9l-4,2.5c-0.1,0.1-0.2,0.1-0.3,0.1c-0.1,0-0.2,0-0.2-0.1C17.1,27.3,17,27.2,17,27v-5c0-0.2,0.1-0.3,0.3-0.4
		c0.2-0.1,0.4-0.1,0.5,0l4,2.5c0.1,0.1,0.2,0.3,0.2,0.4S21.9,24.8,21.8,24.9z"/>
	<circle cx="15" cy="15.5" r="1"/>
	<path d="M15,0.5c-8.3,0-15,6.7-15,15c0,5.7,3.2,10.9,8.3,13.4C8.4,29,8.5,29,8.5,29c0.1,0,0.2,0,0.2-0.1L9,28.8
		c0.2-0.1,0.3-0.4,0.3-0.6C9.1,27.8,9,27.4,9,27v-5c0-1.2,0.6-2.3,1.7-3c0.1-0.1,0.2-0.2,0.2-0.3c0-0.1,0-0.3-0.1-0.4
		c-0.6-0.8-0.9-1.8-0.9-2.8c0-2.8,2.2-5,5-5s5,2.2,5,5c0,0.8-0.2,1.6-0.6,2.3c-0.1,0.2-0.1,0.3,0,0.5s0.3,0.2,0.4,0.2h6.6
		c0.7,0,1.3,0.2,1.9,0.6c0.1,0.1,0.3,0.1,0.5,0l0.5-0.3c0.1-0.1,0.2-0.2,0.3-0.3c0.2-1,0.3-2,0.3-3C30,7.2,23.3,0.5,15,0.5z M6.5,24
		c0.2,0.2,0.2,0.5,0,0.7c-0.1,0.1-0.2,0.1-0.4,0.1s-0.3,0-0.4-0.1C3.4,22.2,2,19,2,15.5s1.3-6.7,3.8-9.2c0.2-0.2,0.5-0.2,0.7,0
		s0.2,0.5,0,0.7C4.3,9.3,3,12.3,3,15.5S4.3,21.7,6.5,24z"/>
</g>
</svg>
