<?xml version="1.0" encoding="iso-8859-1"?>
<!-- Generator: Adobe Illustrator 19.0.0, SVG Export Plug-In . SVG Version: 6.00 Build 0)  -->
<svg version="1.1" id="Layer_1" xmlns="http://www.w3.org/2000/svg" xmlns:xlink="http://www.w3.org/1999/xlink" x="0px" y="0px"
	 viewBox="0 0 24 24" style="enable-background:new 0 0 24 24;" xml:space="preserve">
<g>
	<g>
		<path d="M23.5,21c-0.097,0-0.193-0.028-0.277-0.084L18,17.434V17.5c0,1.93-1.57,3.5-3.5,3.5h-11C1.57,21,0,19.43,0,17.5v-6
			C0,9.57,1.57,8,3.5,8h11c1.93,0,3.5,1.57,3.5,3.5v0.066l5.223-3.482c0.154-0.103,0.351-0.112,0.514-0.025
			C23.898,8.146,24,8.315,24,8.5v12c0,0.185-0.102,0.354-0.264,0.441C23.662,20.98,23.581,21,23.5,21z M3.5,9
			C2.121,9,1,10.122,1,11.5v6C1,18.878,2.121,20,3.5,20h11c1.379,0,2.5-1.122,2.5-2.5v-1c0-0.185,0.102-0.354,0.264-0.441
			c0.163-0.087,0.358-0.078,0.514,0.025L23,19.566V9.434l-5.223,3.482c-0.155,0.103-0.351,0.112-0.514,0.025
			C17.102,12.854,17,12.685,17,12.5v-1c0-1.378-1.121-2.5-2.5-2.5H3.5z"/>
	</g>
	<g>
		<path d="M11.5,9C11.224,9,11,8.776,11,8.5v-2C11,5.122,12.121,4,13.5,4h2C15.776,4,16,4.224,16,4.5S15.776,5,15.5,5h-2
			C12.673,5,12,5.673,12,6.5v2C12,8.776,11.776,9,11.5,9z"/>
	</g>
	<g>
		<path d="M19.5,6h-4C15.224,6,15,5.776,15,5.5v-2C15,3.224,15.224,3,15.5,3h4C20.327,3,21,3.673,21,4.5S20.327,6,19.5,6z M16,5h3.5
			C19.775,5,20,4.776,20,4.5S19.775,4,19.5,4H16V5z"/>
	</g>
	<g>
		<path d="M8.5,9C8.224,9,8,8.776,8,8.5v-2C8,6.224,7.775,6,7.5,6h-4C3.225,6,3,6.224,3,6.5v2C3,8.776,2.776,9,2.5,9S2,8.776,2,8.5
			v-2C2,5.673,2.673,5,3.5,5h4C8.327,5,9,5.673,9,6.5v2C9,8.776,8.776,9,8.5,9z"/>
	</g>
	<g>
		<path d="M5.5,17C4.121,17,3,15.878,3,14.5S4.121,12,5.5,12S8,13.122,8,14.5S6.879,17,5.5,17z M5.5,13C4.673,13,4,13.673,4,14.5
			S4.673,16,5.5,16S7,15.327,7,14.5S6.327,13,5.5,13z"/>
	</g>
	<g>
		<path d="M12.5,17c-1.379,0-2.5-1.122-2.5-2.5s1.121-2.5,2.5-2.5s2.5,1.122,2.5,2.5S13.879,17,12.5,17z M12.5,13
			c-0.827,0-1.5,0.673-1.5,1.5s0.673,1.5,1.5,1.5s1.5-0.673,1.5-1.5S13.327,13,12.5,13z"/>
	</g>
	<g>
		<path d="M12.5,13h-7C5.224,13,5,12.776,5,12.5S5.224,12,5.5,12h7c0.276,0,0.5,0.224,0.5,0.5S12.776,13,12.5,13z"/>
	</g>
</g>
<g>
</g>
<g>
</g>
<g>
</g>
<g>
</g>
<g>
</g>
<g>
</g>
<g>
</g>
<g>
</g>
<g>
</g>
<g>
</g>
<g>
</g>
<g>
</g>
<g>
</g>
<g>
</g>
<g>
</g>
</svg>
