<?xml version="1.0" encoding="iso-8859-1"?>
<!-- Generator: Adobe Illustrator 19.0.0, SVG Export Plug-In . SVG Version: 6.00 Build 0)  -->
<svg version="1.1" id="Layer_1" xmlns="http://www.w3.org/2000/svg" xmlns:xlink="http://www.w3.org/1999/xlink" x="0px" y="0px"
	 viewBox="0 0 24 24" style="enable-background:new 0 0 24 24;" xml:space="preserve">
<g>
	<g id="pause">
		<g>
			<path d="M10.5,17h-3C7.224,17,7,16.776,7,16.5v-9C7,7.224,7.224,7,7.5,7h3C10.776,7,11,7.224,11,7.5v9
				C11,16.776,10.776,17,10.5,17z M8,16h2V8H8V16z"/>
		</g>
		<g>
			<path d="M16.5,17h-3c-0.276,0-0.5-0.224-0.5-0.5v-9C13,7.224,13.224,7,13.5,7h3C16.776,7,17,7.224,17,7.5v9
				C17,16.776,16.776,17,16.5,17z M14,16h2V8h-2V16z"/>
		</g>
	</g>
	<g>
		<path d="M18.5,22h-13C2.467,22,0,19.533,0,16.5v-9C0,4.467,2.467,2,5.5,2h13C21.533,2,24,4.467,24,7.5v9
			C24,19.533,21.533,22,18.5,22z M5.5,3C3.019,3,1,5.019,1,7.5v9C1,18.981,3.019,21,5.5,21h13c2.481,0,4.5-2.019,4.5-4.5v-9
			C23,5.019,20.981,3,18.5,3H5.5z"/>
	</g>
</g>
<g>
</g>
<g>
</g>
<g>
</g>
<g>
</g>
<g>
</g>
<g>
</g>
<g>
</g>
<g>
</g>
<g>
</g>
<g>
</g>
<g>
</g>
<g>
</g>
<g>
</g>
<g>
</g>
<g>
</g>
</svg>
