<?xml version="1.0" encoding="iso-8859-1"?>
<!-- Generator: Adobe Illustrator 19.0.0, SVG Export Plug-In . SVG Version: 6.00 Build 0)  -->
<svg version="1.1" id="Layer_1" xmlns="http://www.w3.org/2000/svg" xmlns:xlink="http://www.w3.org/1999/xlink" x="0px" y="0px"
	 viewBox="0 0 24 24" style="enable-background:new 0 0 24 24;" xml:space="preserve">
<g>
	<g>
		<path d="M23.5,20h-23C0.224,20,0,19.776,0,19.5v-15C0,4.224,0.224,4,0.5,4h23C23.776,4,24,4.224,24,4.5v15
			C24,19.776,23.776,20,23.5,20z M1,19h22V5H1V19z"/>
	</g>
	<g>
		<g>
			<path d="M8.5,17H3.879c-0.121,0-0.238-0.044-0.329-0.124C2.565,16.015,2,14.784,2,13.5s0.565-2.515,1.55-3.376
				C3.641,10.044,3.758,10,3.879,10H8.5C8.776,10,9,10.224,9,10.5v6C9,16.776,8.776,17,8.5,17z M4.074,16H8v-5H4.074
				C3.389,11.663,3,12.564,3,13.5S3.389,15.337,4.074,16z"/>
		</g>
		<g>
			<path d="M20.121,17H15.5c-0.276,0-0.5-0.224-0.5-0.5v-6c0-0.276,0.224-0.5,0.5-0.5h4.621c0.121,0,0.238,0.044,0.329,0.124
				C21.435,10.985,22,12.216,22,13.5s-0.565,2.515-1.55,3.376C20.359,16.956,20.242,17,20.121,17z M16,16h3.926
				C20.611,15.337,21,14.436,21,13.5s-0.389-1.837-1.074-2.5H16V16z"/>
		</g>
	</g>
	<g>
		<path d="M13.5,16h-3c-0.276,0-0.5-0.224-0.5-0.5v-4c0-0.276,0.224-0.5,0.5-0.5h3c0.276,0,0.5,0.224,0.5,0.5v4
			C14,15.776,13.776,16,13.5,16z M11,15h2v-3h-2V15z"/>
	</g>
	<g>
		<path d="M23.5,8h-23C0.224,8,0,7.776,0,7.5S0.224,7,0.5,7h23C23.776,7,24,7.224,24,7.5S23.776,8,23.5,8z"/>
	</g>
</g>
<g>
</g>
<g>
</g>
<g>
</g>
<g>
</g>
<g>
</g>
<g>
</g>
<g>
</g>
<g>
</g>
<g>
</g>
<g>
</g>
<g>
</g>
<g>
</g>
<g>
</g>
<g>
</g>
<g>
</g>
</svg>
