<?xml version="1.0" encoding="utf-8"?>
<!-- Generator: Adobe Illustrator 19.0.0, SVG Export Plug-In . SVG Version: 6.00 Build 0)  -->
<svg version="1.1" id="Layer_1" xmlns="http://www.w3.org/2000/svg" xmlns:xlink="http://www.w3.org/1999/xlink" x="0px" y="0px"
	 viewBox="0 0 30 30" style="enable-background:new 0 0 30 30;" xml:space="preserve">
<g>
	<g>
		<path d="M18.5,21h-3c-0.3,0-0.5-0.2-0.5-0.5s0.2-0.5,0.5-0.5h3c0.3,0,0.5,0.2,0.5,0.5S18.8,21,18.5,21z"/>
	</g>
	<g>
		<path d="M15,30c-0.7,0-1.5-0.1-2.4-0.2c-0.3,0-0.5-0.3-0.4-0.6c0-0.3,0.3-0.5,0.6-0.4c0.8,0.1,1.5,0.2,2.2,0.2c7.7,0,14-6.3,14-14
			S22.7,1,15,1S1,7.3,1,15c0,4.4,2.1,8.7,5.7,11.3C7,26.5,7,26.8,6.8,27c-0.2,0.2-0.5,0.3-0.7,0.1C2.3,24.3,0,19.8,0,15
			C0,6.7,6.7,0,15,0s15,6.7,15,15S23.3,30,15,30z"/>
	</g>
	<g>
		<path d="M12.5,21h-1c-0.3,0-0.5-0.2-0.5-0.5s0.2-0.5,0.5-0.5h1c0.3,0,0.5,0.2,0.5,0.5S12.8,21,12.5,21z"/>
	</g>
	<g>
		<g>
			<path d="M9.5,12C8.7,12,8,11.3,8,10.5S8.7,9,9.5,9S11,9.7,11,10.5S10.3,12,9.5,12z M9.5,10C9.2,10,9,10.2,9,10.5S9.2,11,9.5,11
				s0.5-0.2,0.5-0.5S9.8,10,9.5,10z"/>
		</g>
		<g>
			<path d="M20.5,12c-0.8,0-1.5-0.7-1.5-1.5S19.7,9,20.5,9S22,9.7,22,10.5S21.3,12,20.5,12z M20.5,10c-0.3,0-0.5,0.2-0.5,0.5
				s0.2,0.5,0.5,0.5s0.5-0.2,0.5-0.5S20.8,10,20.5,10z"/>
		</g>
	</g>
	<g>
		<path d="M11.2,30C8.7,30,6,28.7,6,26.5c0-2,2.2-3.5,5-3.5c0.2,0,0.5,0.1,1,0.2V20c0-1.1,0.9-2,2-2s2,0.9,2,2v7c0,0,0,0.1,0,0.1
			C15.6,28.8,13.6,30,11.2,30z M11,24c-2.2,0-4,1.1-4,2.5c0,1.4,1.9,2.5,4.2,2.5c1.9,0,3.5-0.9,3.8-2.1V20c0-0.6-0.4-1-1-1
			s-1,0.4-1,1v3.9c0,0.2-0.1,0.3-0.2,0.4s-0.3,0.1-0.4,0.1C12,24.3,11.2,24,11,24z"/>
	</g>
</g>
</svg>
