<?xml version="1.0" encoding="utf-8"?>
<!-- Generator: Adobe Illustrator 19.0.0, SVG Export Plug-In . SVG Version: 6.00 Build 0)  -->
<svg version="1.1" id="Layer_1" xmlns="http://www.w3.org/2000/svg" xmlns:xlink="http://www.w3.org/1999/xlink" x="0px" y="0px"
	 viewBox="0 0 30 30" style="enable-background:new 0 0 30 30;" xml:space="preserve">
<g>
	<g>
		<g>
			<path d="M24.5,18c-0.1,0-0.2,0-0.2-0.1l-4-2c-0.2-0.1-0.3-0.4-0.2-0.7c0.1-0.2,0.4-0.3,0.7-0.2l4,2c0.2,0.1,0.3,0.4,0.2,0.7
				C24.9,17.9,24.7,18,24.5,18z"/>
		</g>
		<g>
			<path d="M14.3,9.8c-0.2,0-0.4-0.1-0.4-0.3l-2-4c-0.1-0.2,0-0.5,0.2-0.7c0.2-0.1,0.5,0,0.7,0.2l2,4c0.1,0.2,0,0.5-0.2,0.7
				C14.5,9.8,14.4,9.8,14.3,9.8z"/>
		</g>
		<g>
			<path d="M15.8,26c-2.7,0-5.7-1.3-8.1-3.6C3.6,18.2,2.8,12.3,6,9.1C6.2,9,6.5,9,6.7,9.1l14.2,14.2c0.2,0.2,0.2,0.5,0,0.7
				C19.5,25.4,17.7,26,15.8,26z M6.3,10.2c-2.4,2.9-1.5,7.9,2,11.4s8.6,4.4,11.4,2L6.3,10.2z"/>
		</g>
		<g>
			<path d="M15,30c-4,0-7.8-1.6-10.6-4.4S0,19,0,15S1.6,7.2,4.4,4.4S11,0,15,0s7.8,1.6,10.6,4.4S30,11,30,15s-1.6,7.8-4.4,10.6l0,0
				l0,0C22.8,28.4,19,30,15,30z M15,1c-3.7,0-7.3,1.5-9.9,4.1C2.5,7.7,1,11.3,1,15s1.5,7.3,4.1,9.9C7.7,27.5,11.3,29,15,29
				s7.3-1.5,9.9-4.1l0,0c2.6-2.6,4.1-6.2,4.1-9.9s-1.5-7.3-4.1-9.9C22.3,2.5,18.7,1,15,1z"/>
		</g>
	</g>
</g>
</svg>
