<?xml version="1.0" encoding="utf-8"?>
<!-- Generator: Adobe Illustrator 19.0.0, SVG Export Plug-In . SVG Version: 6.00 Build 0)  -->
<svg version="1.1" id="Layer_1" xmlns="http://www.w3.org/2000/svg" xmlns:xlink="http://www.w3.org/1999/xlink" x="0px" y="0px"
	 viewBox="0 0 30 30" style="enable-background:new 0 0 30 30;" xml:space="preserve">
<g>
	<g>
		<path d="M15,30C6.7,30,0,23.3,0,15S6.7,0,15,0s15,6.7,15,15c0,2.9-0.8,5.8-2.5,8.2l2.4,5.1c0.1,0.2,0.1,0.4-0.1,0.6
			C29.7,29,29.5,29,29.3,29l-5.1-2.1C21.5,28.9,18.4,30,15,30z M15,1C7.3,1,1,7.3,1,15s6.3,14,14,14c3.2,0,6.3-1.1,8.8-3.1
			c0.1-0.1,0.3-0.1,0.5-0.1l4.2,1.7l-2-4.2c-0.1-0.2-0.1-0.4,0-0.5c1.6-2.3,2.4-5.1,2.4-7.9C29,7.3,22.7,1,15,1z"/>
	</g>
	<g>
		<path d="M15,19c-2.2,0-4-1.8-4-4s1.8-4,4-4s4,1.8,4,4S17.2,19,15,19z M15,12c-1.7,0-3,1.3-3,3s1.3,3,3,3s3-1.3,3-3S16.7,12,15,12z
			"/>
	</g>
	<g>
		<path d="M9.7,23c-0.3,0-0.6-0.1-0.9-0.3c-0.4-0.2-0.7-0.6-0.8-1.1l-2-8.5c-0.2-0.9,0.4-1.9,1.3-2.1l1.4-0.3c1.5-2.3,4-3.7,6.7-3.7
			c1.5,0,3,0.4,4.2,1.2L20.9,8c0.4-0.1,0.9,0,1.3,0.2c0.4,0.2,0.7,0.6,0.8,1.1l2,8c0,0,0,0,0,0c0.2,0.9-0.4,1.9-1.3,2.1l-13.5,3.4
			C10,23,9.9,23,9.7,23z M15.5,8c-2.5,0-4.7,1.3-6,3.4c-0.1,0.1-0.2,0.2-0.3,0.2L7.6,12c-0.4,0.1-0.6,0.5-0.6,0.9l2,8.5
			c0,0.2,0.2,0.4,0.3,0.5C9.5,22,9.7,22,9.9,22l13.5-3.4c0.4-0.1,0.7-0.5,0.6-0.9l-2-8c0-0.2-0.2-0.4-0.3-0.5C21.5,9,21.3,9,21.1,9
			l-1.4,0.2c-0.1,0-0.2,0-0.3-0.1C18.2,8.4,16.9,8,15.5,8z"/>
	</g>
</g>
</svg>
