<?xml version="1.0" encoding="utf-8"?>
<!-- Generator: Adobe Illustrator 19.0.0, SVG Export Plug-In . SVG Version: 6.00 Build 0)  -->
<svg version="1.1" id="Layer_1" xmlns="http://www.w3.org/2000/svg" xmlns:xlink="http://www.w3.org/1999/xlink" x="0px" y="0px"
	 viewBox="0 0 30 30" style="enable-background:new 0 0 30 30;" xml:space="preserve">
<g>
	<g>
		<path d="M8,20H2c-0.3,0-0.5-0.2-0.5-0.5v-8C1.5,11.2,1.7,11,2,11h3.5V6.5C5.5,6.2,5.7,6,6,6h2c0.3,0,0.5,0.2,0.5,0.5v13
			C8.5,19.8,8.3,20,8,20z M2.5,19h5V7h-1v4.5C6.5,11.8,6.3,12,6,12H2.5V19z"/>
	</g>
	<g>
		<path d="M20,24h-6c-0.3,0-0.5-0.2-0.5-0.5v-2c0-0.3,0.2-0.5,0.5-0.5h3.5v-1H14c-0.3,0-0.5-0.2-0.5-0.5v-8c0-0.3,0.2-0.5,0.5-0.5h6
			c0.3,0,0.5,0.2,0.5,0.5v12C20.5,23.8,20.3,24,20,24z M14.5,23h5V12h-5v7H18c0.3,0,0.5,0.2,0.5,0.5v2c0,0.3-0.2,0.5-0.5,0.5h-3.5
			V23z"/>
	</g>
	<g>
		<path d="M17.5,18h-1c-0.6,0-1-0.4-1-1v-3c0-0.6,0.4-1,1-1h1c0.6,0,1,0.4,1,1v3C18.5,17.6,18.1,18,17.5,18z M17.5,17v0.5V17
			L17.5,17z M16.5,14v3h1v-3H16.5z"/>
	</g>
	<g>
		<path d="M28,24h-6c-0.3,0-0.5-0.2-0.5-0.5v-2c0-0.3,0.2-0.5,0.5-0.5h3.5v-1H22c-0.3,0-0.5-0.2-0.5-0.5v-8c0-0.3,0.2-0.5,0.5-0.5h6
			c0.3,0,0.5,0.2,0.5,0.5v12C28.5,23.8,28.3,24,28,24z M22.5,23h5V12h-5v7H26c0.3,0,0.5,0.2,0.5,0.5v2c0,0.3-0.2,0.5-0.5,0.5h-3.5
			V23z"/>
	</g>
	<g>
		<path d="M25.5,18h-1c-0.6,0-1-0.4-1-1v-3c0-0.6,0.4-1,1-1h1c0.6,0,1,0.4,1,1v3C26.5,17.6,26.1,18,25.5,18z M25.5,17v0.5V17
			L25.5,17z M24.5,14v3h1v-3H24.5z"/>
	</g>
	<g>
		<path d="M12,20h-2c-0.3,0-0.5-0.2-0.5-0.5v-8c0-0.3,0.2-0.5,0.5-0.5h2c0.3,0,0.5,0.2,0.5,0.5v8C12.5,19.8,12.3,20,12,20z M10.5,19
			h1v-7h-1V19z"/>
	</g>
	<g>
		<path d="M12,9h-2C9.7,9,9.5,8.8,9.5,8.5v-2C9.5,6.2,9.7,6,10,6h2c0.3,0,0.5,0.2,0.5,0.5v2C12.5,8.8,12.3,9,12,9z M10.5,8h1V7h-1V8
			z"/>
	</g>
	<g>
		<path d="M5.5,18h-1c-0.6,0-1-0.4-1-1v-3c0-0.6,0.4-1,1-1h1c0.6,0,1,0.4,1,1v3C6.5,17.6,6.1,18,5.5,18z M5.5,17v0.5V17L5.5,17z
			 M4.5,14v3h1v-3H4.5z"/>
	</g>
</g>
</svg>
