<?xml version="1.0" encoding="utf-8"?>
<!-- Generator: Adobe Illustrator 19.0.0, SVG Export Plug-In . SVG Version: 6.00 Build 0)  -->
<svg version="1.1" id="Layer_1" xmlns="http://www.w3.org/2000/svg" xmlns:xlink="http://www.w3.org/1999/xlink" x="0px" y="0px"
	 viewBox="0 0 30 30" style="enable-background:new 0 0 30 30;" xml:space="preserve">
<g>
	<g>
		<path d="M1,20.5c-0.2,0-0.3-0.1-0.4-0.2c-0.1-0.2-0.1-0.5,0-0.6l13-14c0.2-0.2,0.5-0.2,0.7,0c0.2,0.2,0.2,0.5,0,0.7L2.9,18.7
			l22.9-9.2c0.3-0.1,0.5,0,0.7,0.3c0.1,0.3,0,0.5-0.3,0.6l-25,10C1.1,20.5,1.1,20.5,1,20.5z"/>
	</g>
	<g>
		<rect x="11.2" y="11.5" transform="matrix(-0.6495 -0.7604 0.7604 -0.6495 22.4155 34.3414)" width="15.8" height="1"/>
	</g>
	<g>
		<rect x="26" y="10.4" transform="matrix(-0.9702 -0.2423 0.2423 -0.9702 48.6984 34.9879)" width="1" height="8.2"/>
	</g>
	<g>
		<path d="M15.5,23.5c-0.2,0-0.4-0.1-0.5-0.3c-0.1-0.3,0-0.5,0.3-0.7l8.5-3.5c0.3-0.1,0.5,0,0.7,0.3s0,0.5-0.3,0.7l-8.5,3.5
			C15.6,23.5,15.6,23.5,15.5,23.5z"/>
	</g>
	<g>
		<path d="M12.5,23.5c0,0-0.1,0-0.1,0l-11.5-3c-0.3-0.1-0.4-0.3-0.4-0.6c0.1-0.3,0.3-0.4,0.6-0.4l11.5,3c0.3,0.1,0.4,0.3,0.4,0.6
			C12.9,23.4,12.7,23.5,12.5,23.5z"/>
	</g>
	<g>
		<path d="M25.5,8C25.5,8,25.5,8,25.5,8L13.9,6.5c-0.3,0-0.5-0.3-0.4-0.6c0-0.3,0.3-0.5,0.6-0.4L25.6,7c0.3,0,0.5,0.3,0.4,0.6
			C26,7.8,25.8,8,25.5,8z"/>
	</g>
	<g>
		<path d="M14.5,22c-0.3,0-0.5-0.2-0.5-0.5v-15C14,6.2,14.2,6,14.5,6S15,6.2,15,6.5v15C15,21.8,14.8,22,14.5,22z"/>
	</g>
	<g>
		<path d="M15.5,22.5c-0.1,0-0.2,0-0.3-0.1c-0.2-0.2-0.2-0.5,0-0.7l11-11.5c0.2-0.2,0.5-0.2,0.7,0c0.2,0.2,0.2,0.5,0,0.7l-11,11.5
			C15.8,22.4,15.6,22.5,15.5,22.5z"/>
	</g>
	<g>
		<path d="M13.5,22c-0.2,0-0.3-0.1-0.4-0.2l-3.5-5.5c-0.1-0.1-0.1-0.3,0-0.5l4-10c0.1-0.3,0.4-0.4,0.7-0.3c0.3,0.1,0.4,0.4,0.3,0.6
			l-3.9,9.8l3.4,5.3c0.1,0.2,0.1,0.5-0.2,0.7C13.7,22,13.6,22,13.5,22z"/>
	</g>
	<g>
		<circle cx="1" cy="20" r="1"/>
	</g>
	<g>
		<circle cx="10" cy="16" r="1"/>
	</g>
	<g>
		<path d="M14,25c-1.1,0-2-0.9-2-2s0.9-2,2-2s2,0.9,2,2S15.1,25,14,25z M14,22c-0.6,0-1,0.4-1,1s0.4,1,1,1s1-0.4,1-1S14.6,22,14,22z
			"/>
	</g>
	<g>
		<path d="M24.5,20c-0.8,0-1.5-0.7-1.5-1.5s0.7-1.5,1.5-1.5s1.5,0.7,1.5,1.5S25.3,20,24.5,20z M24.5,18c-0.3,0-0.5,0.2-0.5,0.5
			s0.2,0.5,0.5,0.5s0.5-0.2,0.5-0.5S24.8,18,24.5,18z"/>
	</g>
	<g>
		<path d="M27.5,11C26.1,11,25,9.9,25,8.5S26.1,6,27.5,6S30,7.1,30,8.5S28.9,11,27.5,11z M27.5,7C26.7,7,26,7.7,26,8.5
			s0.7,1.5,1.5,1.5S29,9.3,29,8.5S28.3,7,27.5,7z"/>
	</g>
	<g>
		<circle cx="14" cy="6" r="1"/>
	</g>
</g>
</svg>
