<?xml version="1.0" encoding="utf-8"?>
<!-- Generator: Adobe Illustrator 19.0.0, SVG Export Plug-In . SVG Version: 6.00 Build 0)  -->
<svg version="1.1" id="Layer_1" xmlns="http://www.w3.org/2000/svg" xmlns:xlink="http://www.w3.org/1999/xlink" x="0px" y="0px"
	 viewBox="0 0 30 30" style="enable-background:new 0 0 30 30;" xml:space="preserve">
<g>
	<g>
		<path d="M15,30c-8.3,0-15-2.9-15-6.4c0-1.8,1.4-3.4,3.9-4.4C1.7,9.3,8.1,3.1,11.2,0.1C11.3,0,11.5,0,11.7,0
			C11.9,0.1,12,0.3,12,0.5c0,1.1,1,2.9,1.4,3.5c0.1,0.1,2.6,3.7,2.6,6.5v0.1c0,0.9,0,2.1-0.6,3.3c1.2-0.2,2.2-0.7,2.9-1.5
			c0.7-0.8,0.9-1.7,0.7-2.9c0-0.2,0-0.4,0.2-0.5c0.2-0.1,0.3-0.1,0.5,0c5.1,2.5,6.2,5.8,6.3,10.1c2.5,1.1,4,2.8,4,4.3
			C30,27,23.1,30,15,30z M11.2,1.5C8,4.7,2.8,10.5,5,19.4C5,19.6,4.9,19.9,4.7,20C2.3,20.9,1,22.2,1,23.6C1,26.2,7,29,15,29
			s14-2.9,14-5.5c0-1.2-1.5-2.6-3.7-3.5c-0.2-0.1-0.3-0.3-0.3-0.5c0-4-0.8-6.8-4.9-9.1c0,1-0.4,2-1,2.7c-1,1.2-2.7,1.9-4.5,1.9
			c-0.2,0-0.4-0.1-0.4-0.3c-0.1-0.2-0.1-0.4,0-0.5C15,13,15,11.6,15,10.6v-0.1c0-2.5-2.4-5.9-2.4-6C12.5,4.5,11.5,3,11.2,1.5z
			 M15,25c-4.1,0-8-3.6-8-7.5c0-1.4,0.6-3,1.6-4.3C8.7,13,8.9,13,9.1,13c0.2,0.1,0.3,0.2,0.4,0.4C9.7,16.3,12.4,19,15,19
			c2.6,0,4.8-2.2,5-5c0-0.2,0.2-0.4,0.4-0.4c0.2-0.1,0.4,0,0.5,0.2c0.9,1.2,1.1,2.4,1.1,3.8C22,21.6,18.9,25,15,25z M8.7,14.8
			C8.3,15.7,8,16.7,8,17.5c0,3.3,3.5,6.5,7,6.5c3.7,0,6-3.4,6-6.5c0-0.8-0.1-1.4-0.3-2C19.9,18.1,17.7,20,15,20
			C12.3,20,9.6,17.7,8.7,14.8z"/>
	</g>
</g>
</svg>
