<?xml version="1.0" encoding="utf-8"?>
<!-- Generator: Adobe Illustrator 19.0.0, SVG Export Plug-In . SVG Version: 6.00 Build 0)  -->
<svg version="1.1" id="Layer_1" xmlns="http://www.w3.org/2000/svg" xmlns:xlink="http://www.w3.org/1999/xlink" x="0px" y="0px"
	 viewBox="0 0 30 30" style="enable-background:new 0 0 30 30;" xml:space="preserve">
<g>
	<g>
		<path d="M27,30H17c-0.3,0-0.5-0.2-0.5-0.5V17h-3v12.5c0,0.3-0.2,0.5-0.5,0.5H3c-0.2,0-0.3-0.1-0.4-0.2s-0.1-0.3,0-0.5l12-29
			c0.2-0.4,0.8-0.4,0.9,0l12,29c0.1,0.2,0,0.3,0,0.5S27.2,30,27,30z M17.5,29h8.8L15,1.8L3.7,29h8.8V16.5c0-0.3,0.2-0.5,0.5-0.5h4
			c0.3,0,0.5,0.2,0.5,0.5V29z"/>
	</g>
	<g>
		<path d="M13,23c-0.1,0-0.3,0-0.4-0.1l-2-2c-0.2-0.2-0.2-0.5,0-0.7s0.5-0.2,0.7,0l2,2c0.2,0.2,0.2,0.5,0,0.7
			C13.3,22.9,13.1,23,13,23z"/>
	</g>
	<g>
		<path d="M17,21.5c-0.2,0-0.3-0.1-0.4-0.2c-0.2-0.2-0.1-0.5,0.1-0.7l2-1.5c0.2-0.2,0.5-0.1,0.7,0.1c0.2,0.2,0.1,0.5-0.1,0.7l-2,1.5
			C17.2,21.5,17.1,21.5,17,21.5z"/>
	</g>
	<g>
		<path d="M17,24.5c-0.2,0-0.3-0.1-0.4-0.2c-0.1-0.2-0.1-0.5,0.2-0.7l4-2.5c0.2-0.1,0.5-0.1,0.7,0.2c0.1,0.2,0.1,0.5-0.2,0.7l-4,2.5
			C17.2,24.5,17.1,24.5,17,24.5z"/>
	</g>
</g>
</svg>
