<?xml version="1.0" encoding="utf-8"?>
<!-- Generator: Adobe Illustrator 19.0.0, SVG Export Plug-In . SVG Version: 6.00 Build 0)  -->
<svg version="1.1" id="Layer_1" xmlns="http://www.w3.org/2000/svg" xmlns:xlink="http://www.w3.org/1999/xlink" x="0px" y="0px"
	 viewBox="0 0 30 30" style="enable-background:new 0 0 30 30;" xml:space="preserve">
<g>
	<g>
		<path d="M9.5,16.5h-9C0.2,16.5,0,16.3,0,16V1c0-0.3,0.2-0.5,0.5-0.5h9C9.8,0.5,10,0.7,10,1v15C10,16.3,9.8,16.5,9.5,16.5z M1,15.5
			h8v-14H1V15.5z"/>
	</g>
	<g>
		<path d="M16.5,29.5c-1.2,0-2.2-0.5-2.2-0.6c-0.2-0.1-0.3-0.3-0.3-0.4v-4.4l-3.9-7.7l-0.9-0.4C9.1,15.9,9,15.7,9,15.5v-12
			c0-0.1,0.1-0.3,0.1-0.4C10,2.3,11.8,1.5,13,1.5h11.2c0.1,0,0.1,0,0.2,0C25.9,1.7,27,3,27,4.5c0,0.4-0.1,0.8-0.2,1.1
			C28.1,6,29,7.1,29,8.5c0,0.5-0.1,1-0.4,1.5c0.9,0.5,1.4,1.5,1.4,2.5c0,0.8-0.3,1.5-0.8,2c0.5,0.5,0.8,1.2,0.8,2c0,1.7-1.3,3-3,3
			c-0.1,0-0.2,0-0.4,0c0,0-0.1,0-0.1,0h-7.3c0.3,1.1,0.8,3.2,0.8,5C20,27,18,29.5,16.5,29.5z M15,28.2c0.3,0.1,0.9,0.3,1.5,0.3
			c0.7,0,2.5-1.8,2.5-4c0-2.2-1-5.3-1-5.3c0-0.2,0-0.3,0.1-0.4c0.1-0.1,0.2-0.2,0.4-0.2h7.8c0.1,0,0.2-0.1,0.3,0c0.1,0,0.3,0,0.4,0
			c1.1,0,2-0.9,2-2c0-0.6-0.3-1.2-0.8-1.6c-0.1-0.1-0.2-0.2-0.2-0.4s0.1-0.3,0.2-0.4c0.5-0.4,0.8-1,0.8-1.6c0-0.8-0.5-1.6-1.3-1.9
			c-0.2-0.1-0.3-0.2-0.3-0.3c0-0.2,0-0.3,0.1-0.5C27.8,9.5,28,9,28,8.5c0-1.1-0.9-2-2-2c-0.2,0-0.4-0.1-0.5-0.3s-0.1-0.4,0-0.5
			C25.9,5.3,26,4.9,26,4.5c0-1-0.8-1.9-1.8-2c0,0-0.1,0-0.1,0H13c-0.9,0-2.3,0.6-3,1.2v11.5l0.7,0.4c0.1,0,0.2,0.1,0.2,0.2l4,8
			c0,0.1,0.1,0.1,0.1,0.2V28.2z"/>
	</g>
</g>
</svg>
