<?xml version="1.0" encoding="utf-8"?>
<!-- Generator: Adobe Illustrator 19.0.0, SVG Export Plug-In . SVG Version: 6.00 Build 0)  -->
<svg version="1.1" id="Layer_1" xmlns="http://www.w3.org/2000/svg" xmlns:xlink="http://www.w3.org/1999/xlink" x="0px" y="0px"
	 viewBox="0 0 30 30" style="enable-background:new 0 0 30 30;" xml:space="preserve">
<g>
	<path d="M14.8,30c-0.5,0-1-0.1-1.4-0.4l-11-6.2C1.5,22.9,1,22,1,21V8.9c0-1,0.5-1.9,1.4-2.4l11-6.1c0.9-0.5,2-0.5,2.8,0l2.3,1.3
		c0.1,0,0.1,0.1,0.2,0.2C19.6,3,19,5.3,17.1,7.7c-2,2.7-4.9,3.9-7.9,3.3c0,0,0,0-0.1,0L9,11c0,0,0,0,0,0c-0.6,0-1,0.4-1,1
		c0,0.6,0.4,1,1,1c0.4,0,0.8-0.3,1-0.7c0.1-0.2,0.3-0.4,0.5-0.4c0,0,0,0,0,0c0.8,0,2.9,0,3.4-0.5c0.2-0.2,0.5-0.2,0.7,0
		c0.1,0.1,0.1,0.2,0.1,0.4s0,0.3-0.1,0.4c-0.1,0.1-0.3,0.3-0.4,0.4c-1.6,1.7-3.4,3.5-4.9,3.5c0,0-0.1,0-0.1,0L9,15.5L9,16
		c-0.6,0-1,0.4-1,1s0.4,1,1,1c0.5,0,1-0.4,1-1c0-0.2,0.1-0.3,0.2-0.4c1.6-1,4.3-2.7,4.4-2.7c0.2-0.1,0.4-0.1,0.6,0s0.2,0.3,0.2,0.5
		c-0.1,0.2-1.4,4.9-2.3,6.6C13,21,13,21.1,12.9,21.1c-0.5,0.2-0.9,0.8-0.9,1.4c0,0.8,0.7,1.5,1.5,1.5s1.5-0.7,1.5-1.5
		c0,0,0-0.1,0-0.2c0,0,0-0.1,0-0.1c-0.1-0.3-0.1-0.5-0.3-0.7c-0.1-0.1-0.1-0.3-0.1-0.5c0.1-0.3,0.3-0.8,0.5-1.3
		C16.2,16.9,17,15,18,15c0.8,0,1.5,0.7,2.1,2.1c0.1,0.1,0.1,0.3,0,0.4C20,17.7,20,17.9,20,18c0,0.6,0.4,1,1,1s1-0.4,1-1
		c0-0.5-0.3-0.9-0.8-1c-0.1,0-0.2-0.1-0.3-0.2c-0.8-1-2.2-3.1-2.2-4.5c0-1.4,0.7-3.1,2-4.7l0.2-0.3c0.9-1.1,1.9-2.5,3.8-2.3
		c0.1,0,0.1,0,0.2,0.1l2.6,1.3c0,0,0,0,0,0C28.5,7.1,29,8,29,9v12.1c0,1-0.5,1.9-1.4,2.4l-11.3,6.1C15.8,29.9,15.3,30,14.8,30z
		 M14.9,1c-0.3,0-0.6,0.1-0.9,0.2l-11,6.1C2.4,7.7,2,8.3,2,8.9V21c0,0.6,0.4,1.2,0.9,1.5l11,6.2c0.6,0.3,1.3,0.3,1.9,0l11.3-6.1
		c0.6-0.3,0.9-0.9,0.9-1.5V9c0-0.6-0.3-1.2-0.9-1.5l-2.5-1.3C23.3,6,22.5,7,21.7,8l-0.2,0.3c-1.1,1.4-1.8,2.9-1.8,4.1
		c0,0.9,0.9,2.6,1.9,3.7c0.8,0.3,1.4,1,1.4,1.9c0,1.1-0.9,2-2,2s-2-0.9-2-2c0-0.2,0-0.4,0.1-0.6c-0.5-1-0.9-1.4-1.1-1.4
		c-0.5,0.2-1.5,2.9-1.9,4.1c-0.2,0.4-0.3,0.8-0.4,1.1c0.1,0.2,0.2,0.5,0.3,0.8c0,0,0,0.1,0,0.1c0,0.1,0,0.2,0,0.3c0,0,0,0.1,0,0.1
		c0,0,0,0,0,0c0,1.4-1.1,2.5-2.5,2.5S11,23.9,11,22.5c0-0.9,0.5-1.7,1.3-2.2c0.6-1.1,1.3-3.5,1.7-4.9c-0.9,0.6-2.1,1.3-3,1.9
		c-0.1,1-1,1.7-2,1.7c-1.1,0-2-0.9-2-2s0.9-2,2-2c0,0,0.1,0,0.1,0c0,0,0.1,0,0.1,0c0.9,0,2.2-1.2,3.2-2.2c-0.5,0.1-1.1,0.1-1.7,0.1
		C10.5,13.6,9.8,14,9,14c-1.1,0-2-0.9-2-2s0.9-2,2-2c0,0,0.1,0,0.1,0c0,0,0.1,0,0.1,0c1.7,0.3,4.7,0.3,7.1-2.9
		c1.6-2.2,2-3.9,1.6-4.6l-2.2-1.2C15.5,1.1,15.2,1,14.9,1z"/>
</g>
</svg>
