<?xml version="1.0" encoding="utf-8"?>
<!-- Generator: Adobe Illustrator 19.0.0, SVG Export Plug-In . SVG Version: 6.00 Build 0)  -->
<svg version="1.1" id="Layer_1" xmlns="http://www.w3.org/2000/svg" xmlns:xlink="http://www.w3.org/1999/xlink" x="0px" y="0px"
	 viewBox="0 0 30 30" style="enable-background:new 0 0 30 30;" xml:space="preserve">
<g>
	<path d="M22.5,30H13C7.2,30,2.5,25.3,2.5,19.5V5c0-2.8,2.2-5,5-5s5,2.2,5,5h10c2.8,0,5,2.2,5,5s-2.2,5-5,5h-10v5h10
		c2.8,0,5,2.2,5,5S25.3,30,22.5,30z M7.5,1c-2.2,0-4,1.8-4,4v14.5c0,5.2,4.3,9.5,9.5,9.5h9.5c2.2,0,4-1.8,4-4s-1.8-4-4-4H12
		c-0.3,0-0.5-0.2-0.5-0.5v-6c0-0.3,0.2-0.5,0.5-0.5h10.5c2.2,0,4-1.8,4-4s-1.8-4-4-4H12c-0.3,0-0.5-0.2-0.5-0.5V5
		C11.5,2.8,9.7,1,7.5,1z"/>
</g>
</svg>
