<?xml version="1.0" encoding="iso-8859-1"?>
<!-- Generator: Adobe Illustrator 19.0.0, SVG Export Plug-In . SVG Version: 6.00 Build 0)  -->
<svg version="1.1" id="Layer_1" xmlns="http://www.w3.org/2000/svg" xmlns:xlink="http://www.w3.org/1999/xlink" x="0px" y="0px"
	 viewBox="0 0 24 24" style="enable-background:new 0 0 24 24;" xml:space="preserve">
<g>
	<g>
		<path d="M14.5,17H14v-0.5c0-0.276-0.224-0.5-0.5-0.5S13,16.224,13,16.5V17h-0.5c-0.276,0-0.5,0.224-0.5,0.5s0.224,0.5,0.5,0.5H13
			v0.5c0,0.276,0.224,0.5,0.5,0.5s0.5-0.224,0.5-0.5V18h0.5c0.276,0,0.5-0.224,0.5-0.5S14.776,17,14.5,17z M8.037,22.91
			C4.026,22.547,1,21.081,1,19.5v-2.994c1.274,1.194,3.687,2.079,6.782,2.384c0.016,0.001,0.033,0.002,0.049,0.002
			c0.254,0,0.472-0.193,0.497-0.451c0.027-0.275-0.174-0.52-0.449-0.547C3.958,17.507,1,16.048,1,14.5v-3.018
			C2.603,12.984,5.986,14,10,14c0.39,0,0.772-0.012,1.149-0.031c0.276-0.013,0.489-0.248,0.475-0.524
			c-0.014-0.276-0.256-0.515-0.524-0.474C10.74,12.988,10.373,13,10,13c-5.304,0-9-1.845-9-3.5V6.482C2.603,7.984,5.986,9,10,9
			s7.397-1.016,9-2.518V9.5c0,0.91-1.086,1.856-2.905,2.531c-0.259,0.096-0.391,0.384-0.295,0.643C15.875,12.875,16.067,13,16.27,13
			c0.058,0,0.117-0.01,0.174-0.031c1.101-0.408,1.957-0.906,2.557-1.465v1.072c0,0.276,0.224,0.5,0.5,0.5s0.5-0.223,0.5-0.5V4.5
			C20,1.977,15.607,0,10,0S0,1.977,0,4.5v15c0,2.171,3.268,3.982,7.948,4.406c0.015,0.001,0.03,0.002,0.045,0.002
			c0.256,0,0.474-0.195,0.497-0.455C8.516,23.179,8.313,22.935,8.037,22.91z M10,1c5.304,0,9,1.845,9,3.5C19,6.155,15.305,8,10,8
			S1,6.155,1,4.5C1,2.845,4.696,1,10,1z M19.5,17c0.276,0,0.5-0.224,0.5-0.5S19.776,16,19.5,16S19,16.224,19,16.5S19.223,17,19.5,17
			z M18.5,14h-4C10.304,14,9,18.765,9,20.5c0,2.322,0.673,3.5,2,3.5c2.074,0,3.094-1.946,3.384-2.615
			C14.729,21.257,15.541,21,16.5,21s1.77,0.257,2.116,0.385C18.904,22.054,19.925,24,22,24c1.327,0,2-1.178,2-3.5
			C24,18.765,22.695,14,18.5,14z M22,23c-1.739,0-2.521-2.145-2.528-2.166c-0.046-0.128-0.141-0.232-0.264-0.289
			C19.159,20.523,17.997,20,16.5,20c-1.499,0-2.66,0.523-2.708,0.545c-0.123,0.057-0.219,0.161-0.264,0.289
			C13.521,20.855,12.739,23,11,23c-0.248,0-1,0-1-2.5c0-0.854,0.83-5.5,4.5-5.5h4c3.67,0,4.5,4.646,4.5,5.5C23,23,22.247,23,22,23z
			 M20.5,17c-0.276,0-0.5,0.224-0.5,0.5s0.224,0.5,0.5,0.5s0.5-0.224,0.5-0.5S20.776,17,20.5,17z M19.5,18
			c-0.276,0-0.5,0.224-0.5,0.5s0.224,0.5,0.5,0.5s0.5-0.224,0.5-0.5S19.776,18,19.5,18z M18.5,17c-0.276,0-0.5,0.224-0.5,0.5
			s0.224,0.5,0.5,0.5s0.5-0.224,0.5-0.5S18.776,17,18.5,17z"/>
	</g>
</g>
</svg>
