<?xml version="1.0" encoding="iso-8859-1"?>
<!-- Generator: Adobe Illustrator 19.0.0, SVG Export Plug-In . SVG Version: 6.00 Build 0)  -->
<svg version="1.1" id="Layer_1" xmlns="http://www.w3.org/2000/svg" xmlns:xlink="http://www.w3.org/1999/xlink" x="0px" y="0px"
	 viewBox="0 0 24 24" style="enable-background:new 0 0 24 24;" xml:space="preserve">
<g>
	<g>
		<path d="M18.5,13c-3.032,0-5.5,2.468-5.5,5.5s2.468,5.5,5.5,5.5c3.032,0,5.5-2.468,5.5-5.5S21.531,13,18.5,13z M18.5,23
			c-2.481,0-4.5-2.019-4.5-4.5s2.019-4.5,4.5-4.5c2.481,0,4.5,2.019,4.5,4.5S20.98,23,18.5,23z M13.282,22.743
			C12.216,22.914,11.112,23,10,23c-5.304,0-9-1.845-9-3.5v-3.018C2.603,17.984,5.986,19,10,19c0.524,0,1.034-0.021,1.536-0.056
			c0.276-0.018,0.484-0.257,0.465-0.533c-0.018-0.276-0.26-0.485-0.533-0.465C10.99,17.979,10.501,18,10,18c-5.304,0-9-1.845-9-3.5
			v-3.018C2.603,12.984,5.986,14,10,14c1.425,0,2.813-0.132,4.126-0.391c0.272-0.054,0.448-0.316,0.394-0.587
			c-0.053-0.272-0.319-0.451-0.587-0.394C12.683,12.875,11.36,13,10,13c-5.304,0-9-1.845-9-3.5V6.482C2.603,7.984,5.986,9,10,9
			s7.397-1.016,9-2.518v3.019c0,0.678-0.596,1.25-1.096,1.609c-0.224,0.162-0.275,0.474-0.114,0.698
			c0.098,0.136,0.251,0.208,0.406,0.208c0.102,0,0.204-0.031,0.292-0.094c0.194-0.139,0.354-0.287,0.512-0.435v0.093
			c0,0.276,0.224,0.5,0.5,0.5s0.5-0.224,0.5-0.5V4.5C20,1.977,15.607,0,10,0S0,1.977,0,4.5v15C0,22.023,4.393,24,10,24
			c1.164,0,2.321-0.091,3.44-0.269c0.272-0.044,0.458-0.3,0.415-0.573C13.811,22.886,13.557,22.7,13.282,22.743z M10,1
			c5.304,0,9,1.845,9,3.5C19,6.155,15.305,8,10,8S1,6.155,1,4.5C1,2.845,4.696,1,10,1z M18,17c0-0.552-0.448-1-1-1
			c-0.552,0-1,0.448-1,1s0.448,1,1,1C17.552,18,18,17.552,18,17z M20,19c-0.552,0-1,0.448-1,1s0.448,1,1,1c0.552,0,1-0.448,1-1
			S20.552,19,20,19z M19.722,16.052c-0.246-0.122-0.547-0.023-0.671,0.224l-2,4c-0.123,0.247-0.023,0.547,0.224,0.671
			C17.349,20.983,17.424,21,17.5,21c0.183,0,0.359-0.102,0.447-0.277l2-4C20.07,16.476,19.969,16.176,19.722,16.052z"/>
	</g>
</g>
</svg>
