<?xml version="1.0" encoding="iso-8859-1"?>
<!-- Generator: Adobe Illustrator 19.0.0, SVG Export Plug-In . SVG Version: 6.00 Build 0)  -->
<svg version="1.1" id="Layer_1" xmlns="http://www.w3.org/2000/svg" xmlns:xlink="http://www.w3.org/1999/xlink" x="0px" y="0px"
	 viewBox="0 0 24 24" style="enable-background:new 0 0 24 24;" xml:space="preserve">
<g>
	<g>
		<path d="M15.5,21h-4c-0.276,0-0.5,0.224-0.5,0.5s0.224,0.5,0.5,0.5h4c0.276,0,0.5-0.224,0.5-0.5S15.776,21,15.5,21z M4.5,14
			C4.776,14,5,13.776,5,13.496v-5c0-0.827,0.673-1.5,1.5-1.5h3.793l-0.146,0.146c-0.195,0.195-0.195,0.512,0,0.707
			s0.512,0.195,0.707,0l0.997-0.997c0.01-0.01,0.02-0.021,0.03-0.032c0.065-0.077,0.104-0.169,0.115-0.264
			C11.999,6.527,12,6.497,11.998,6.468c-0.007-0.116-0.055-0.231-0.143-0.321c-0.001-0.001-0.001-0.001-0.001-0.001l-1-1
			c-0.195-0.195-0.512-0.195-0.707,0C10.05,5.244,10.001,5.372,10.001,5.5s0.048,0.256,0.146,0.354L10.293,6H6.5
			C5.122,6,4,7.122,4,8.5v5C4,13.776,4.224,14,4.5,14z M2.5,21C2.224,21,2,21.224,2,21.5S2.224,22,2.5,22S3,21.776,3,21.5
			S2.776,21,2.5,21z M24,5.5C24,2.467,21.533,0,18.5,0S13,2.467,13,5.5s2.467,5.5,5.5,5.5S24,8.533,24,5.5z M23,5.5
			c0,0.402-0.767,0.918-2.064,1.229C20.977,6.322,21,5.91,21,5.5s-0.023-0.822-0.064-1.229C22.233,4.582,23,5.098,23,5.5z
			 M22.672,3.835c-0.53-0.271-1.182-0.476-1.891-0.616c-0.14-0.709-0.345-1.361-0.616-1.891C21.307,1.785,22.215,2.693,22.672,3.835
			z M18.5,1c0.402,0,0.918,0.767,1.229,2.064C19.322,3.023,18.91,3,18.5,3s-0.822,0.023-1.229,0.064C17.582,1.767,18.098,1,18.5,1z
			 M14,5.5c0-0.402,0.767-0.918,2.064-1.229C16.023,4.678,16,5.09,16,5.5s0.023,0.822,0.064,1.229C14.767,6.418,14,5.902,14,5.5z
			 M14.328,7.165c0.53,0.271,1.182,0.476,1.891,0.616c0.14,0.709,0.346,1.361,0.616,1.891C15.693,9.215,14.785,8.306,14.328,7.165z
			 M16.219,3.219c-0.709,0.14-1.361,0.345-1.891,0.616c0.457-1.142,1.366-2.05,2.507-2.507C16.565,1.858,16.359,2.51,16.219,3.219z
			 M18.5,10c-0.402,0-0.918-0.767-1.229-2.064C17.678,7.977,18.09,8,18.5,8s0.822-0.023,1.229-0.064C19.418,9.233,18.902,10,18.5,10
			z M19.908,6.908C19.472,6.962,19.01,7,18.5,7s-0.972-0.038-1.408-0.092C17.038,6.472,17,6.01,17,5.5s0.038-0.972,0.092-1.408
			C17.528,4.038,17.99,4,18.5,4s0.972,0.038,1.408,0.092C19.962,4.528,20,4.99,20,5.5S19.962,6.472,19.908,6.908z M20.165,9.672
			c0.271-0.53,0.476-1.182,0.616-1.891c0.709-0.14,1.361-0.346,1.891-0.616C22.215,8.306,21.307,9.215,20.165,9.672z M22.5,12.004
			c-0.276,0-0.5,0.224-0.5,0.5v6c0,0.276-0.224,0.5-0.5,0.5h-0.793l0.146-0.146c0.195-0.195,0.195-0.512,0-0.707
			s-0.512-0.195-0.707,0l-0.997,0.997c-0.01,0.01-0.02,0.021-0.03,0.032c-0.065,0.077-0.104,0.169-0.115,0.264
			c-0.003,0.029-0.004,0.059-0.002,0.088c0.007,0.116,0.055,0.231,0.143,0.321c0.001,0.001,0.001,0.001,0.001,0.001l1,1
			C20.244,20.951,20.372,21,20.5,21s0.256-0.044,0.353-0.142c0.097-0.098,0.146-0.226,0.146-0.354c0-0.128-0.048-0.256-0.146-0.354
			l-0.146-0.146H21.5c0.827,0,1.5-0.673,1.5-1.5v-6C23,12.228,22.776,12.004,22.5,12.004z M2.5,17C2.224,17,2,17.224,2,17.5
			S2.224,18,2.5,18S3,17.776,3,17.5S2.776,17,2.5,17z M16.5,15h-15C0.673,15,0,15.673,0,16.5v2c0,0.385,0.15,0.734,0.39,1
			C0.15,19.766,0,20.115,0,20.5v2C0,23.327,0.673,24,1.5,24h15c0.827,0,1.5-0.673,1.5-1.5v-2c0-0.385-0.15-0.734-0.39-1
			c0.24-0.266,0.39-0.615,0.39-1v-2C18,15.673,17.327,15,16.5,15z M17,22.5c0,0.276-0.224,0.5-0.5,0.5h-15C1.224,23,1,22.776,1,22.5
			v-2C1,20.224,1.224,20,1.5,20h15c0.276,0,0.5,0.224,0.5,0.5V22.5z M17,18.5c0,0.276-0.224,0.5-0.5,0.5h-15
			C1.224,19,1,18.776,1,18.5v-2C1,16.224,1.224,16,1.5,16h15c0.276,0,0.5,0.224,0.5,0.5V18.5z M15.5,17h-4
			c-0.276,0-0.5,0.224-0.5,0.5s0.224,0.5,0.5,0.5h4c0.276,0,0.5-0.224,0.5-0.5S15.776,17,15.5,17z"/>
	</g>
</g>
</svg>
