<?xml version="1.0" encoding="iso-8859-1"?>
<!-- Generator: Adobe Illustrator 19.0.0, SVG Export Plug-In . SVG Version: 6.00 Build 0)  -->
<svg version="1.1" id="Layer_1" xmlns="http://www.w3.org/2000/svg" xmlns:xlink="http://www.w3.org/1999/xlink" x="0px" y="0px"
	 viewBox="0 0 24 24" style="enable-background:new 0 0 24 24;" xml:space="preserve">
<g>
	<g>
		<path d="M19,12.5v-2c0-0.276-0.224-0.5-0.5-0.5S18,10.224,18,10.5v2c0,0.276,0.224,0.5,0.5,0.5S19,12.776,19,12.5z M21,12.5v-2
			c0-0.276-0.224-0.5-0.5-0.5S20,10.224,20,10.5v2c0,0.276,0.224,0.5,0.5,0.5S21,12.776,21,12.5z M21.146,20.44
			C21.673,19.763,22,18.923,22,18c0-2.206-1.794-4-4-4s-4,1.794-4,4s1.794,4,4,4c0.922,0,1.762-0.326,2.439-0.853l2.707,2.707
			C23.244,23.951,23.372,24,23.5,24c0.128,0,0.256-0.049,0.353-0.146c0.195-0.195,0.195-0.512,0-0.707L21.146,20.44z M18,21
			c-1.654,0-3-1.346-3-3s1.346-3,3-3c1.654,0,3,1.346,3,3S19.654,21,18,21z M15,10.5c0-0.276-0.224-0.5-0.5-0.5S14,10.224,14,10.5v2
			c0,0.276,0.224,0.5,0.5,0.5s0.5-0.224,0.5-0.5V10.5z M17,12.5v-2c0-0.276-0.224-0.5-0.5-0.5S16,10.224,16,10.5v2
			c0,0.276,0.224,0.5,0.5,0.5S17,12.776,17,12.5z M3.5,2C2.673,2,2,2.673,2,3.5S2.673,5,3.5,5C4.327,5,5,4.327,5,3.5S4.327,2,3.5,2z
			 M3.5,4C3.225,4,3,3.776,3,3.5S3.225,3,3.5,3C3.775,3,4,3.224,4,3.5S3.775,4,3.5,4z M21.5,7C22.879,7,24,5.878,24,4.5v-2
			C24,1.122,22.879,0,21.5,0h-19C1.121,0,0,1.122,0,2.5v2C0,5.878,1.121,7,2.5,7H9v1H2.5C1.121,8,0,9.122,0,10.5v2
			C0,13.878,1.121,15,2.5,15H9v1H8.5C8.224,16,8,16.224,8,16.5V17H7.5C7.224,17,7,17.224,7,17.5V18H2.5C2.224,18,2,18.224,2,18.5
			S2.224,19,2.5,19H7v0.5C7,19.776,7.224,20,7.5,20h4c0.276,0,0.5-0.224,0.5-0.5V19h0.525c0.277,0,0.5-0.224,0.5-0.5
			s-0.224-0.5-0.5-0.5H12v-0.5c0-0.276-0.224-0.5-0.5-0.5H11v-0.5c0-0.276-0.224-0.5-0.5-0.5H10v-1h3.761
			c0.276,0,0.499-0.224,0.499-0.5s-0.224-0.5-0.5-0.5H2.499c-0.827,0-1.5-0.673-1.5-1.5v-2c0-0.827,0.673-1.5,1.5-1.5h19
			c0.827,0,1.5,0.673,1.5,1.5v2c0,0.639-0.411,1.206-1.024,1.413c-0.26,0.088-0.402,0.371-0.313,0.633
			c0.088,0.262,0.368,0.403,0.634,0.314C23.315,14.517,24,13.568,24,12.5v-2C24,9.122,22.879,8,21.5,8H10V7H21.5z M10.5,18H11v1H8
			v-1h0.5C8.776,18,9,17.776,9,17.5V17h1v0.5C10,17.776,10.224,18,10.5,18z M2.5,6C1.673,6,1,5.327,1,4.5v-2C1,1.673,1.673,1,2.5,1
			h19C22.327,1,23,1.673,23,2.5v2C23,5.327,22.327,6,21.5,6H2.5z M20.5,2C20.224,2,20,2.224,20,2.5v2C20,4.776,20.224,5,20.5,5
			S21,4.776,21,4.5v-2C21,2.224,20.776,2,20.5,2z M14.5,2C14.224,2,14,2.224,14,2.5v2C14,4.776,14.224,5,14.5,5S15,4.776,15,4.5v-2
			C15,2.224,14.776,2,14.5,2z M2,11.5C2,12.327,2.673,13,3.5,13C4.327,13,5,12.327,5,11.5S4.327,10,3.5,10C2.673,10,2,10.673,2,11.5
			z M4,11.5C4,11.776,3.775,12,3.5,12C3.225,12,3,11.776,3,11.5S3.225,11,3.5,11C3.775,11,4,11.224,4,11.5z M16.5,2
			C16.224,2,16,2.224,16,2.5v2C16,4.776,16.224,5,16.5,5S17,4.776,17,4.5v-2C17,2.224,16.776,2,16.5,2z M18.5,2
			C18.224,2,18,2.224,18,2.5v2C18,4.776,18.224,5,18.5,5S19,4.776,19,4.5v-2C19,2.224,18.776,2,18.5,2z"/>
	</g>
</g>
</svg>
