<?xml version="1.0" encoding="iso-8859-1"?>
<!-- Generator: Adobe Illustrator 19.0.0, SVG Export Plug-In . SVG Version: 6.00 Build 0)  -->
<svg version="1.1" id="Layer_1" xmlns="http://www.w3.org/2000/svg" xmlns:xlink="http://www.w3.org/1999/xlink" x="0px" y="0px"
	 viewBox="0 0 24 24" style="enable-background:new 0 0 24 24;" xml:space="preserve">
<g>
	<g>
		<path d="M20.5,9h-8C12.224,9,12,9.224,12,9.5s0.224,0.5,0.5,0.5h8c0.276,0,0.5-0.224,0.5-0.5S20.776,9,20.5,9z M17.379,15.576
			C17.156,15.633,17,15.833,17,16.062V18.5c0,0.276,0.224,0.5,0.5,0.5H19v2.304c0,0.172,0.089,0.333,0.235,0.424
			c0.081,0.051,0.173,0.076,0.265,0.076c0.075,0,0.15-0.017,0.22-0.051c0.912-0.446,1.723-0.943,2.115-1.296
			C21.94,20.361,22,20.227,22,20.085V18.5c0-0.276-0.224-0.5-0.5-0.5H20v-2.438c0-0.154-0.07-0.299-0.192-0.394
			c-0.122-0.095-0.28-0.13-0.429-0.091L17.379,15.576z M19,18h-1v-1.548l1-0.25V18z M20,19h1v0.849c-0.24,0.181-0.594,0.404-1,0.63
			V19z M23.621,14.015l-4-1c-0.079-0.021-0.163-0.021-0.242,0l-4,1C15.156,14.07,15,14.271,15,14.5v6
			c0,1.546,3.298,3.04,4.308,3.461C19.369,23.987,19.435,24,19.5,24s0.131-0.013,0.192-0.039C20.703,23.541,24,22.047,24,20.5v-6
			C24,14.27,23.844,14.07,23.621,14.015z M23,20.5c0,0.567-1.806,1.722-3.5,2.457C17.806,22.221,16,21.068,16,20.5v-5.609l3.5-0.875
			l3.5,0.875V20.5z M3.5,7C2.673,7,2,7.672,2,8.5C2,9.326,2.673,10,3.5,10C4.327,10,5,9.326,5,8.5C5,7.672,4.327,7,3.5,7z M3.5,9
			C3.224,9,3,8.776,3,8.5S3.224,8,3.5,8S4,8.224,4,8.5S3.776,9,3.5,9z M20.5,7h-8C12.224,7,12,7.224,12,7.5S12.224,8,12.5,8h8
			C20.776,8,21,7.776,21,7.5S20.776,7,20.5,7z M13.5,21h-1c-0.276,0-0.5,0.224-0.5,0.5s0.224,0.5,0.5,0.5h1
			c0.276,0,0.5-0.224,0.5-0.5S13.776,21,13.5,21z M2,20.5C2,21.326,2.673,22,3.5,22C4.327,22,5,21.326,5,20.5
			C5,19.672,4.327,19,3.5,19C2.673,19,2,19.672,2,20.5z M4,20.5C4,20.776,3.776,21,3.5,21S3,20.776,3,20.5S3.224,20,3.5,20
			S4,20.224,4,20.5z M2,14.5C2,15.326,2.673,16,3.5,16C4.327,16,5,15.326,5,14.5C5,13.672,4.327,13,3.5,13C2.673,13,2,13.672,2,14.5
			z M4,14.5C4,14.776,3.776,15,3.5,15S3,14.776,3,14.5S3.224,14,3.5,14S4,14.224,4,14.5z M13.5,19h-1c-0.276,0-0.5,0.224-0.5,0.5
			s0.224,0.5,0.5,0.5h1c0.276,0,0.5-0.224,0.5-0.5S13.776,19,13.5,19z M13.5,15h-1c-0.276,0-0.5,0.224-0.5,0.5s0.224,0.5,0.5,0.5h1
			c0.276,0,0.5-0.224,0.5-0.5S13.776,15,13.5,15z M23.618,6.187c-0.006-0.012-0.007-0.026-0.014-0.037l-3.092-4.97
			C20.053,0.442,19.259,0,18.389,0H5.612C4.741,0,3.948,0.442,3.489,1.18L0.397,6.15c-0.006,0.01-0.006,0.021-0.012,0.032
			C0.145,6.565,0,7.015,0,7.5v2c0,0.82,0.403,1.544,1.016,2C0.403,11.956,0,12.679,0,13.5v2c0,0.859,0.429,1.559,1.131,2
			C0.429,17.94,0,18.64,0,19.5v2C0,22.878,1.122,24,2.5,24h12c0.276,0,0.5-0.224,0.5-0.5S14.776,23,14.5,23h-12
			C1.673,23,1,22.326,1,21.5v-2C1,18.589,1.785,18,3,18h10.5c0.276,0,0.5-0.224,0.5-0.5S13.776,17,13.5,17H3.001
			c-1.215,0-2-0.589-2-1.5v-2c0-0.827,0.673-1.5,1.5-1.5h19c0.473,0,0.911,0.229,1.202,0.628c0.161,0.223,0.474,0.272,0.698,0.11
			c0.223-0.162,0.273-0.475,0.11-0.698c-0.153-0.211-0.339-0.381-0.538-0.531C23.593,11.053,24,10.325,24,9.5v-2
			C24,7.017,23.856,6.57,23.618,6.187z M4.338,1.708C4.613,1.265,5.089,1,5.611,1h12.777c0.522,0,0.998,0.265,1.274,0.708
			l2.063,3.315C21.65,5.015,21.577,5,21.5,5h-19C2.423,5,2.35,5.015,2.275,5.022L4.338,1.708z M23,9.5c0,0.827-0.673,1.5-1.5,1.5
			h-19C1.673,11,1,10.326,1,9.5v-2C1,6.672,1.673,6,2.5,6h19C22.327,6,23,6.672,23,7.5V9.5z M13.5,13h-1c-0.276,0-0.5,0.224-0.5,0.5
			s0.224,0.5,0.5,0.5h1c0.276,0,0.5-0.224,0.5-0.5S13.776,13,13.5,13z"/>
	</g>
</g>
</svg>
