<?xml version="1.0" encoding="iso-8859-1"?>
<!-- Generator: Adobe Illustrator 19.0.0, SVG Export Plug-In . SVG Version: 6.00 Build 0)  -->
<svg version="1.1" id="Layer_1" xmlns="http://www.w3.org/2000/svg" xmlns:xlink="http://www.w3.org/1999/xlink" x="0px" y="0px"
	 viewBox="0 0 24 24" style="enable-background:new 0 0 24 24;" xml:space="preserve">
<g>
	<g>
		<path d="M3.5,2C2.672,2,2,2.673,2,3.5S2.672,5,3.5,5C4.326,5,5,4.327,5,3.5S4.326,2,3.5,2z M3.5,4C3.224,4,3,3.776,3,3.5
			S3.224,3,3.5,3C3.774,3,4,3.224,4,3.5S3.774,4,3.5,4z M14.5,2C14.224,2,14,2.224,14,2.5v2C14,4.776,14.224,5,14.5,5
			S15,4.776,15,4.5v-2C15,2.224,14.776,2,14.5,2z M20.5,2C20.224,2,20,2.224,20,2.5v2C20,4.776,20.224,5,20.5,5S21,4.776,21,4.5v-2
			C21,2.224,20.776,2,20.5,2z M18.5,2C18.224,2,18,2.224,18,2.5v2C18,4.776,18.224,5,18.5,5S19,4.776,19,4.5v-2
			C19,2.224,18.776,2,18.5,2z M16.5,2C16.224,2,16,2.224,16,2.5v2C16,4.776,16.224,5,16.5,5S17,4.776,17,4.5v-2
			C17,2.224,16.776,2,16.5,2z M20,10.5v1.416c0,0.276,0.224,0.5,0.5,0.5s0.5-0.224,0.5-0.5V10.5c0-0.276-0.224-0.5-0.5-0.5
			S20,10.224,20,10.5z M2,11.5C2,12.327,2.672,13,3.5,13C4.326,13,5,12.327,5,11.5S4.326,10,3.5,10C2.672,10,2,10.673,2,11.5z
			 M4,11.5C4,11.776,3.774,12,3.5,12C3.224,12,3,11.776,3,11.5S3.224,11,3.5,11C3.774,11,4,11.224,4,11.5z M18.5,16.099
			c-1.379,0-2.5,1.122-2.5,2.5s1.121,2.5,2.5,2.5c1.379,0,2.5-1.122,2.5-2.5S19.878,16.099,18.5,16.099z M18.5,20.099
			c-0.827,0-1.5-0.673-1.5-1.5s0.673-1.5,1.5-1.5c0.827,0,1.5,0.673,1.5,1.5S19.326,20.099,18.5,20.099z M23.69,16.843
			c-0.045-0.131-0.143-0.238-0.269-0.295c-0.128-0.058-0.272-0.058-0.4-0.004c-0.235,0.101-0.501,0.019-0.624-0.195
			c-0.123-0.213-0.062-0.481,0.145-0.636c0.111-0.084,0.182-0.21,0.196-0.349c0.015-0.138-0.029-0.277-0.121-0.381
			c-0.816-0.928-1.867-1.542-3.039-1.774c-0.139-0.03-0.282,0.005-0.395,0.088c-0.113,0.084-0.186,0.211-0.2,0.351
			C18.956,13.906,18.748,14.1,18.5,14.1c-0.249,0-0.457-0.194-0.483-0.452c-0.013-0.14-0.087-0.267-0.2-0.351
			c-0.114-0.083-0.254-0.116-0.395-0.088c-1.172,0.232-2.223,0.846-3.039,1.774c-0.092,0.104-0.136,0.242-0.121,0.381
			c0.013,0.139,0.085,0.265,0.196,0.349c0.207,0.155,0.268,0.423,0.144,0.637c-0.122,0.214-0.383,0.296-0.622,0.194
			c-0.128-0.054-0.272-0.054-0.4,0.004c-0.126,0.056-0.224,0.163-0.269,0.295C13.102,17.459,13,18.033,13,18.599
			s0.102,1.14,0.311,1.756c0.045,0.132,0.143,0.239,0.27,0.296c0.126,0.056,0.271,0.058,0.399,0.004
			c0.238-0.102,0.5-0.02,0.623,0.194c0.123,0.213,0.062,0.481-0.145,0.637c-0.111,0.084-0.182,0.21-0.196,0.349
			c-0.015,0.138,0.029,0.277,0.122,0.381c0.815,0.927,1.866,1.541,3.038,1.774c0.139,0.029,0.282-0.005,0.395-0.088
			c0.113-0.083,0.186-0.211,0.2-0.351c0.026-0.259,0.234-0.453,0.483-0.453c0.248,0,0.456,0.195,0.482,0.453
			c0.013,0.14,0.087,0.268,0.2,0.351C19.269,23.966,19.373,24,19.479,24c0.032,0,0.065-0.003,0.098-0.011
			c1.172-0.232,2.223-0.846,3.038-1.774c0.093-0.105,0.137-0.243,0.122-0.381c-0.013-0.139-0.085-0.266-0.196-0.349
			c-0.208-0.156-0.268-0.424-0.145-0.637c0,0,0,0,0.001,0c0.122-0.213,0.386-0.295,0.623-0.194c0.129,0.054,0.273,0.053,0.4-0.004
			c0.127-0.057,0.225-0.164,0.269-0.296C23.898,19.736,24,19.162,24,18.599C24,18.033,23.898,17.459,23.69,16.843z M22.865,19.614
			c-0.494-0.011-1.057,0.253-1.336,0.735c-0.279,0.481-0.252,1.066,0.03,1.522c-0.507,0.48-1.1,0.829-1.747,1.029
			c-0.25-0.481-0.746-0.802-1.313-0.802c-0.567,0-1.064,0.321-1.314,0.802c-0.647-0.199-1.24-0.549-1.747-1.029
			c0.282-0.456,0.308-1.04,0.03-1.522c-0.279-0.483-0.798-0.758-1.336-0.735C14.043,19.262,14,18.927,14,18.599
			c0-0.327,0.044-0.662,0.133-1.015c0.54,0.022,1.057-0.252,1.335-0.734c0.28-0.482,0.253-1.067-0.029-1.523
			c0.507-0.48,1.1-0.829,1.747-1.029c0.25,0.481,0.747,0.802,1.314,0.802c0.567,0,1.063-0.321,1.313-0.802
			c0.647,0.199,1.24,0.549,1.747,1.029c-0.282,0.456-0.308,1.041-0.03,1.522c0.279,0.483,0.805,0.771,1.337,0.735
			C22.956,17.937,23,18.272,23,18.599C23,18.925,22.956,19.26,22.865,19.614z M16,10.5v1.416c0,0.276,0.224,0.5,0.5,0.5
			s0.5-0.224,0.5-0.5V10.5c0-0.276-0.224-0.5-0.5-0.5S16,10.224,16,10.5z M18,10.5v0.964c0,0.276,0.224,0.5,0.5,0.5
			s0.5-0.224,0.5-0.5V10.5c0-0.276-0.224-0.5-0.5-0.5S18,10.224,18,10.5z M12.519,14H2.498c-0.827,0-1.5-0.673-1.5-1.5v-2
			c0-0.827,0.673-1.5,1.5-1.5h19c0.827,0,1.5,0.673,1.5,1.5v2c0,0.254-0.069,0.504-0.206,0.743c-0.137,0.24-0.054,0.546,0.186,0.683
			c0.236,0.135,0.544,0.054,0.682-0.186C23.885,13.347,24,12.93,24,12.5v-2C24,9.122,22.878,8,21.5,8H10V7h11.5
			C22.878,7,24,5.878,24,4.5v-2C24,1.122,22.878,0,21.5,0h-19C1.12,0,0,1.122,0,2.5v2C0,5.878,1.12,7,2.5,7H9v1H2.5
			C1.12,8,0,9.122,0,10.5v2C0,13.878,1.12,15,2.5,15H9v1H8.5C8.224,16,8,16.224,8,16.5V17H7.5C7.224,17,7,17.224,7,17.5V18H2.5
			C2.224,18,2,18.224,2,18.5S2.224,19,2.5,19H7v0.5C7,19.776,7.224,20,7.5,20h4c0.276,0,0.5-0.224,0.5-0.5v-2
			c0-0.276-0.224-0.5-0.5-0.5H11v-0.5c0-0.276-0.224-0.5-0.5-0.5H10v-1h2.522c0.276,0,0.498-0.224,0.498-0.5S12.795,14,12.519,14z
			 M2.5,6C1.672,6,1,5.327,1,4.5v-2C1,1.673,1.672,1,2.5,1h19C22.326,1,23,1.673,23,2.5v2C23,5.327,22.326,6,21.5,6H2.5z M10.5,18
			H11v1H8v-1h0.5C8.776,18,9,17.776,9,17.5V17h1v0.5C10,17.776,10.224,18,10.5,18z M14,10.5v2c0,0.276,0.224,0.5,0.5,0.5
			s0.5-0.224,0.5-0.5v-2c0-0.276-0.224-0.5-0.5-0.5S14,10.224,14,10.5z"/>
	</g>
</g>
</svg>
