<?xml version="1.0" encoding="iso-8859-1"?>
<!-- Generator: Adobe Illustrator 19.0.0, SVG Export Plug-In . SVG Version: 6.00 Build 0)  -->
<svg version="1.1" id="Layer_1" xmlns="http://www.w3.org/2000/svg" xmlns:xlink="http://www.w3.org/1999/xlink" x="0px" y="0px"
	 viewBox="0 0 24 24" style="enable-background:new 0 0 24 24;" xml:space="preserve">
<g>
	<g>
		<path d="M17.499,5.016h4c0.276,0,0.5-0.224,0.5-0.5s-0.224-0.5-0.5-0.5h-4c-0.276,0-0.5,0.224-0.5,0.5S17.223,5.016,17.499,5.016z
			 M6.499,9.016c0.276,0,0.5-0.224,0.5-0.5v-1c0-0.276,0.225-0.5,0.5-0.5h15c0.275,0,0.5,0.224,0.5,0.5v2c0,0.276-0.225,0.5-0.5,0.5
			h-12c-0.276,0-0.5,0.224-0.5,0.5s0.224,0.5,0.5,0.5h12c0.275,0,0.5,0.224,0.5,0.5v2c0,0.276,0.224,0.5,0.5,0.5s0.5-0.224,0.5-0.5
			v-2c0-0.385-0.15-0.734-0.39-1c0.24-0.266,0.39-0.615,0.39-1v-2c0-0.385-0.15-0.734-0.39-1c0.24-0.266,0.39-0.615,0.39-1v-2
			c0-0.827-0.673-1.5-1.5-1.5h-15c-0.827,0-1.5,0.673-1.5,1.5v2c0,0.385,0.15,0.734,0.39,1c-0.24,0.266-0.39,0.615-0.39,1v1
			C5.999,8.792,6.223,9.016,6.499,9.016z M6.999,3.516c0-0.276,0.225-0.5,0.5-0.5h15c0.275,0,0.5,0.224,0.5,0.5v2
			c0,0.276-0.225,0.5-0.5,0.5h-15c-0.275,0-0.5-0.224-0.5-0.5V3.516z M8.499,5.016c0.276,0,0.5-0.224,0.5-0.5
			c0-0.276-0.224-0.5-0.5-0.5s-0.5,0.224-0.5,0.5C7.999,4.792,8.223,5.016,8.499,5.016z M7.999,8.516c0,0.276,0.224,0.5,0.5,0.5
			s0.5-0.224,0.5-0.5c0-0.276-0.224-0.5-0.5-0.5S7.999,8.239,7.999,8.516z M23.948,17.292c-0.694-1.389-2.232-2.097-3.737-1.719
			l-3.241,0.81c-0.144-1.249-0.883-1.986-2.362-2.357L5.933,12.1c0.027-0.19,0.048-0.371,0.063-0.54
			c0.014-0.152-0.044-0.302-0.154-0.407c-0.857-0.812-4.284-1.075-5.314-1.136c-0.135-0.005-0.272,0.041-0.372,0.135
			c-0.1,0.094-0.157,0.226-0.157,0.364v9c0,0.276,0.224,0.5,0.5,0.5h3c0.216,0,0.408-0.139,0.475-0.344
			c0.013-0.041,0.082-0.251,0.184-0.577l7.165,2.389c0.84,0.317,1.421,0.501,2.072,0.501c1.014-0.001,2.202-0.444,4.812-1.513
			l5.5-2.5c0.123-0.056,0.219-0.16,0.265-0.288C24.017,17.555,24.009,17.414,23.948,17.292z M3.134,19.016H0.999v-7.964
			c1.607,0.127,3.341,0.403,3.972,0.709C4.705,13.951,3.506,17.841,3.134,19.016z M17.811,19.553
			c-4.204,1.723-4.351,1.668-6.152,0.988l-7.207-2.402c0.411-1.361,0.983-3.38,1.311-5.052l8.615,1.914
			c1.107,0.276,1.553,0.713,1.614,1.626l-0.96,0.24c-0.356,0.089-0.736,0.098-1.097,0.026l-4.339-0.868
			c-0.258-0.056-0.533,0.121-0.588,0.392c-0.054,0.271,0.122,0.534,0.393,0.588l4.339,0.868c0.226,0.045,0.456,0.067,0.686,0.067
			c0.286,0,0.572-0.034,0.849-0.104l1.341-0.335c0.002,0,0.004,0,0.006,0l3.831-0.958c0.875-0.216,1.764,0.088,2.315,0.756
			L17.811,19.553z M17.499,12.016c-0.276,0-0.5,0.224-0.5,0.5s0.224,0.5,0.5,0.5h4c0.276,0,0.5-0.224,0.5-0.5s-0.224-0.5-0.5-0.5
			H17.499z M21.499,9.016c0.276,0,0.5-0.224,0.5-0.5s-0.224-0.5-0.5-0.5h-4c-0.276,0-0.5,0.224-0.5,0.5s0.224,0.5,0.5,0.5H21.499z"
			/>
	</g>
</g>
</svg>
