<?xml version="1.0" encoding="iso-8859-1"?>
<!-- Generator: Adobe Illustrator 19.0.0, SVG Export Plug-In . SVG Version: 6.00 Build 0)  -->
<svg version="1.1" id="Layer_1" xmlns="http://www.w3.org/2000/svg" xmlns:xlink="http://www.w3.org/1999/xlink" x="0px" y="0px"
	 viewBox="0 0 24 24" style="enable-background:new 0 0 24 24;" xml:space="preserve">
<g>
	<g>
		<path d="M14.5,11c-0.276,0-0.5,0.224-0.5,0.5s0.224,0.5,0.5,0.5s0.5-0.224,0.5-0.5S14.776,11,14.5,11z M8.146,20.854
			C8.244,20.951,8.372,21,8.5,21s0.256-0.049,0.353-0.146L9.5,20.208l0.646,0.646C10.244,20.951,10.372,21,10.5,21
			s0.256-0.049,0.353-0.146c0.195-0.195,0.195-0.512,0-0.707L10.207,19.5l0.646-0.646c0.195-0.195,0.195-0.512,0-0.707
			c-0.195-0.195-0.512-0.195-0.707,0L9.5,18.793l-0.646-0.646c-0.195-0.195-0.512-0.195-0.707,0s-0.195,0.512,0,0.707L8.792,19.5
			l-0.646,0.646C7.951,20.342,7.951,20.659,8.146,20.854z M12.146,20.854C12.244,20.951,12.372,21,12.5,21s0.256-0.049,0.353-0.146
			l0.646-0.646l0.646,0.646C14.244,20.951,14.372,21,14.5,21s0.256-0.049,0.353-0.146c0.195-0.195,0.195-0.512,0-0.707L14.207,19.5
			l0.646-0.646c0.195-0.195,0.195-0.512,0-0.707c-0.195-0.195-0.512-0.195-0.707,0L13.5,18.793l-0.646-0.646
			c-0.195-0.195-0.512-0.195-0.707,0s-0.195,0.512,0,0.707l0.646,0.646l-0.646,0.646C11.951,20.342,11.951,20.659,12.146,20.854z
			 M16.146,20.854C16.244,20.951,16.372,21,16.5,21s0.256-0.049,0.353-0.146l0.646-0.646l0.646,0.646
			C18.244,20.951,18.372,21,18.5,21s0.256-0.049,0.353-0.146c0.195-0.195,0.195-0.512,0-0.707L18.207,19.5l0.646-0.646
			c0.195-0.195,0.195-0.512,0-0.707c-0.195-0.195-0.512-0.195-0.707,0L17.5,18.793l-0.646-0.646c-0.195-0.195-0.512-0.195-0.707,0
			s-0.195,0.512,0,0.707l0.646,0.646l-0.646,0.646C15.951,20.342,15.951,20.659,16.146,20.854z M4.146,18.147
			c-0.195,0.195-0.195,0.512,0,0.707L4.792,19.5l-0.646,0.646c-0.195,0.195-0.195,0.512,0,0.707C4.244,20.951,4.372,21,4.5,21
			s0.256-0.049,0.353-0.146L5.5,20.208l0.646,0.646C6.244,20.951,6.372,21,6.5,21s0.256-0.049,0.353-0.146
			c0.195-0.195,0.195-0.512,0-0.707L6.207,19.5l0.646-0.646c0.195-0.195,0.195-0.512,0-0.707c-0.195-0.195-0.512-0.195-0.707,0
			L5.5,18.793l-0.646-0.646C4.658,17.952,4.341,17.952,4.146,18.147z M16.5,11c-0.276,0-0.5,0.224-0.5,0.5s0.224,0.5,0.5,0.5
			s0.5-0.224,0.5-0.5S16.776,11,16.5,11z M3.5,9C2.673,9,2,9.673,2,10.5C2,11.327,2.673,12,3.5,12S5,11.327,5,10.5
			C5,9.673,4.327,9,3.5,9z M3.5,11C3.225,11,3,10.776,3,10.5S3.225,10,3.5,10S4,10.224,4,10.5S3.775,11,3.5,11z M16.5,5
			C16.224,5,16,5.224,16,5.5S16.224,6,16.5,6S17,5.776,17,5.5S16.776,5,16.5,5z M18.5,5C18.224,5,18,5.224,18,5.5S18.224,6,18.5,6
			S19,5.776,19,5.5S18.776,5,18.5,5z M18.5,11c-0.276,0-0.5,0.224-0.5,0.5s0.224,0.5,0.5,0.5s0.5-0.224,0.5-0.5S18.776,11,18.5,11z
			 M24,5.5v-2C24,2.122,22.879,1,21.5,1h-19C1.121,1,0,2.122,0,3.5v2c0,0.82,0.403,1.544,1.015,2C0.403,7.956,0,8.68,0,9.5v2
			C0,12.878,1.121,14,2.5,14H11v2H4.5C3.121,16,2,17.122,2,18.5v2C2,21.878,3.121,23,4.5,23h14c1.379,0,2.5-1.122,2.5-2.5v-2
			c0-1.378-1.121-2.5-2.5-2.5H12v-2h9.5c1.379,0,2.5-1.122,2.5-2.5v-2c0-0.82-0.403-1.544-1.015-2C23.597,7.044,24,6.32,24,5.5z
			 M18.5,17c0.827,0,1.5,0.673,1.5,1.5v2c0,0.827-0.673,1.5-1.5,1.5h-14C3.673,22,3,21.327,3,20.5v-2C3,17.673,3.673,17,4.5,17H18.5
			z M23,9.5v2c0,0.827-0.673,1.5-1.5,1.5h-19C1.673,13,1,12.327,1,11.5v-2C1,8.673,1.673,8,2.5,8h19C22.327,8,23,8.673,23,9.5z
			 M23,5.5C23,6.327,22.327,7,21.5,7h-19C1.673,7,1,6.327,1,5.5v-2C1,2.673,1.673,2,2.5,2h19C22.327,2,23,2.673,23,3.5V5.5z M20.5,5
			C20.224,5,20,5.224,20,5.5S20.224,6,20.5,6S21,5.776,21,5.5S20.776,5,20.5,5z M14.5,5C14.224,5,14,5.224,14,5.5S14.224,6,14.5,6
			S15,5.776,15,5.5S14.776,5,14.5,5z M20.5,11c-0.276,0-0.5,0.224-0.5,0.5s0.224,0.5,0.5,0.5s0.5-0.224,0.5-0.5S20.776,11,20.5,11z
			 M3.5,3C2.673,3,2,3.673,2,4.5C2,5.327,2.673,6,3.5,6S5,5.327,5,4.5C5,3.673,4.327,3,3.5,3z M3.5,5C3.225,5,3,4.776,3,4.5
			S3.225,4,3.5,4S4,4.224,4,4.5S3.775,5,3.5,5z"/>
	</g>
</g>
</svg>
