<?xml version="1.0" encoding="iso-8859-1"?>
<!-- Generator: Adobe Illustrator 19.0.0, SVG Export Plug-In . SVG Version: 6.00 Build 0)  -->
<svg version="1.1" id="Layer_1" xmlns="http://www.w3.org/2000/svg" xmlns:xlink="http://www.w3.org/1999/xlink" x="0px" y="0px"
	 viewBox="0 0 24 24" style="enable-background:new 0 0 24 24;" xml:space="preserve">
<g>
	<g>
		<path d="M14.024,23H3.504c-0.891,0-1.695-0.458-2.15-1.224C0.9,21.01,0.883,20.085,1.328,19.265L8.805,2.302
			C9.25,1.487,10.071,1,11,1s1.75,0.487,2.175,1.265l4.628,10.497c0.112,0.253,0.409,0.369,0.659,0.256
			c0.253-0.111,0.367-0.407,0.256-0.659L14.072,1.825C13.449,0.682,12.299,0,10.999,0c-1.3,0-2.449,0.682-3.091,1.862L0.431,18.825
			c-0.597,1.095-0.574,2.39,0.063,3.462C1.131,23.359,2.256,24,3.504,24h10.52c0.276,0,0.5-0.224,0.5-0.5S14.3,23,14.024,23z
			 M9.5,19.5c0,0.827,0.673,1.5,1.5,1.5c0.827,0,1.5-0.673,1.5-1.5S11.827,18,11,18C10.173,18,9.5,18.672,9.5,19.5z M11.5,19.5
			c0,0.276-0.224,0.5-0.5,0.5s-0.5-0.224-0.5-0.5S10.724,19,11,19S11.5,19.224,11.5,19.5z M12.377,6.612
			c-0.703-0.777-2.052-0.777-2.755,0C9.271,7,9.099,7.521,9.151,8.042l0.851,8.507C10.028,16.805,10.243,17,10.5,17h1
			c0.257,0,0.472-0.195,0.497-0.45l0.851-8.507C12.9,7.521,12.728,7,12.377,6.612z M11.048,16h-0.095l-0.804-8.057
			c-0.025-0.244,0.052-0.479,0.217-0.661c0.329-0.364,0.942-0.364,1.271,0c0.164,0.182,0.241,0.417,0.217,0.661L11.048,16z M24,16
			c0-2.626-9-2.626-9,0c0,0.018,0.01,0.033,0.011,0.051C15.009,16.07,15,16.087,15,16.107v5.786C15,23.341,17.333,24,19.5,24
			s4.5-0.659,4.5-2.107v-5.786c0-0.02-0.009-0.037-0.011-0.056C23.99,16.033,24,16.018,24,16z M23,21.893
			C23,22.344,21.637,23,19.5,23c-2.137,0-3.5-0.656-3.5-1.107v-0.64C16.869,21.742,18.183,22,19.5,22s2.632-0.258,3.5-0.747V21.893z
			 M23,19.893C23,20.283,21.671,21,19.5,21c-2.171,0-3.5-0.717-3.5-1.107v-0.569c0.868,0.489,2.183,0.747,3.5,0.747
			s2.632-0.258,3.5-0.747V19.893z M23,17.964c0,0.39-1.329,1.107-3.5,1.107c-2.171,0-3.5-0.717-3.5-1.107V17.29
			C16.869,17.755,18.183,18,19.5,18s2.632-0.245,3.5-0.709V17.964z M19.5,17c-2.273,0-3.5-0.71-3.5-1s1.227-1,3.5-1s3.5,0.71,3.5,1
			S21.773,17,19.5,17z"/>
	</g>
</g>
</svg>
