<?xml version="1.0" encoding="utf-8"?>
<!-- Generator: Adobe Illustrator 19.0.0, SVG Export Plug-In . SVG Version: 6.00 Build 0)  -->
<svg version="1.1" id="Layer_1" xmlns="http://www.w3.org/2000/svg" xmlns:xlink="http://www.w3.org/1999/xlink" x="0px" y="0px"
	 viewBox="0 0 30 30" style="enable-background:new 0 0 30 30;" xml:space="preserve">
<g>
	<g>
		<path d="M28.2,26H1.8c-1,0-1.8-0.8-1.8-1.7V8.7C0,7.8,0.8,7,1.8,7h4.7c0.1,0,0.3,0.1,0.4,0.1L7.7,8h14.6l0.9-0.9
			C23.2,7.1,23.4,7,23.5,7h4.7c1,0,1.8,0.8,1.8,1.7v15.5C30,25.2,29.2,26,28.2,26z M1.8,8C1.3,8,1,8.3,1,8.7v15.5
			C1,24.7,1.3,25,1.8,25h26.5c0.4,0,0.8-0.3,0.8-0.7V8.7C29,8.3,28.7,8,28.2,8h-4.5l-0.9,0.9C22.8,8.9,22.6,9,22.5,9h-15
			C7.4,9,7.2,8.9,7.1,8.9L6.3,8H1.8z"/>
	</g>
	<g>
		<path d="M19.5,9C19.2,9,19,8.8,19,8.5V6.7C19,6.3,18.7,6,18.2,6h-6.5C11.3,6,11,6.3,11,6.7v1.8C11,8.8,10.8,9,10.5,9
			S10,8.8,10,8.5V6.7c0-1,0.8-1.7,1.8-1.7h6.5c1,0,1.8,0.8,1.8,1.7v1.8C20,8.8,19.8,9,19.5,9z"/>
	</g>
	<g>
		<path d="M5.5,8C5.2,8,5,7.8,5,7.5V5H3v2.5C3,7.8,2.8,8,2.5,8S2,7.8,2,7.5v-3C2,4.2,2.2,4,2.5,4h3C5.8,4,6,4.2,6,4.5v3
			C6,7.8,5.8,8,5.5,8z"/>
	</g>
	<g>
		<path d="M27.5,8C27.2,8,27,7.8,27,7.5V5h-2v2c0,0.3-0.2,0.5-0.5,0.5S24,7.3,24,7V4.5C24,4.2,24.2,4,24.5,4h3C27.8,4,28,4.2,28,4.5
			v3C28,7.8,27.8,8,27.5,8z"/>
	</g>
	<g>
		<path d="M9.5,17h-6C3.2,17,3,16.8,3,16.5S3.2,16,3.5,16h6c0.3,0,0.5,0.2,0.5,0.5S9.8,17,9.5,17z"/>
	</g>
	<g>
		<path d="M6.5,20C6.2,20,6,19.8,6,19.5v-6C6,13.2,6.2,13,6.5,13S7,13.2,7,13.5v6C7,19.8,6.8,20,6.5,20z"/>
	</g>
	<g>
		<path d="M25.5,17h-5c-0.3,0-0.5-0.2-0.5-0.5s0.2-0.5,0.5-0.5h5c0.3,0,0.5,0.2,0.5,0.5S25.8,17,25.5,17z"/>
	</g>
</g>
</svg>
