<?xml version="1.0" encoding="iso-8859-1"?>
<!-- Generator: Adobe Illustrator 19.0.0, SVG Export Plug-In . SVG Version: 6.00 Build 0)  -->
<svg version="1.1" id="Layer_1" xmlns="http://www.w3.org/2000/svg" xmlns:xlink="http://www.w3.org/1999/xlink" x="0px" y="0px"
	 viewBox="0 0 30 30" style="enable-background:new 0 0 30 30;" xml:space="preserve">
<g>
	<g>
		<path id="XMLID_14_" d="M19.5,19h-1c-0.276,0-0.5-0.224-0.5-0.5s0.224-0.5,0.5-0.5h1c0.276,0,0.5,0.224,0.5,0.5S19.776,19,19.5,19
			z"/>
	</g>
	<g>
		<path id="XMLID_13_" d="M21.5,24h-13C8.224,24,8,23.776,8,23.5S8.224,23,8.5,23h13c0.276,0,0.5,0.224,0.5,0.5S21.776,24,21.5,24z"
			/>
	</g>
	<g>
		<path id="XMLID_12_" d="M23.5,16h-8c-0.276,0-0.5-0.224-0.5-0.5v-5c0-0.276,0.224-0.5,0.5-0.5s0.5,0.224,0.5,0.5V15h7.5
			c0.276,0,0.5,0.224,0.5,0.5S23.776,16,23.5,16z"/>
	</g>
	<g>
		<path id="XMLID_11_" d="M11.5,12h-7C4.224,12,4,11.776,4,11.5S4.224,11,4.5,11h7c0.276,0,0.5,0.224,0.5,0.5S11.776,12,11.5,12z"/>
	</g>
	<g>
		<path id="XMLID_10_" d="M14.5,9h-10C4.224,9,4,8.776,4,8.5S4.224,8,4.5,8h10C14.776,8,15,8.224,15,8.5S14.776,9,14.5,9z"/>
	</g>
	<g>
		<path id="XMLID_9_" d="M11.5,15h-7C4.224,15,4,14.776,4,14.5S4.224,14,4.5,14h7c0.276,0,0.5,0.224,0.5,0.5S11.776,15,11.5,15z"/>
	</g>
	<g>
		<path id="XMLID_8_" d="M26.979,24c-0.276,0-0.5-0.224-0.5-0.5s0.224-0.5,0.5-0.5C28.093,23,29,22.116,29,21.029V17.2
			c0-0.338-0.235-0.631-0.571-0.713c-1.113-0.271-2.131-0.836-2.942-1.631l-5.685-5.57c-0.377-0.369-0.899-0.581-1.434-0.581
			c-0.158,0-0.308-0.075-0.402-0.203l-2.36-3.195C15.463,5.115,15.232,5,14.987,5H1.761C1.341,5,1,5.33,1,5.735L0.978,21.03
			C0.978,22.116,1.885,23,3,23c0.276,0,0.5,0.224,0.5,0.5S3.276,24,3,24c-1.667,0-3.022-1.333-3.022-2.971L0,5.735
			C0,4.778,0.79,4,1.761,4h13.226c0.561,0,1.093,0.267,1.423,0.714l2.218,3.003c0.708,0.059,1.365,0.357,1.873,0.856l5.685,5.569
			c0.685,0.669,1.542,1.145,2.48,1.374C29.451,15.708,30,16.4,30,17.2v3.829C30,22.667,28.645,24,26.979,24z"/>
	</g>
	<g>
		<path id="XMLID_5_" d="M24,26.044c-1.666,0-3.021-1.355-3.021-3.022C20.979,21.355,22.334,20,24,20s3.021,1.355,3.021,3.021
			C27.021,24.688,25.666,26.044,24,26.044z M24,21c-1.114,0-2.021,0.907-2.021,2.021c0,1.115,0.907,2.022,2.021,2.022
			s2.021-0.907,2.021-2.022C26.021,21.907,25.114,21,24,21z"/>
	</g>
	<g>
		<path id="XMLID_2_" d="M6,26.021c-1.654,0-3-1.346-3-3s1.346-3,3-3s3,1.346,3,3S7.654,26.021,6,26.021z M6,21.021
			c-1.103,0-2,0.897-2,2s0.897,2,2,2s2-0.897,2-2S7.103,21.021,6,21.021z"/>
	</g>
</g>
<g id="XMLID_1_">
</g>
<g id="XMLID_15_">
</g>
<g id="XMLID_16_">
</g>
<g id="XMLID_17_">
</g>
<g id="XMLID_18_">
</g>
<g id="XMLID_19_">
</g>
<g id="XMLID_20_">
</g>
<g id="XMLID_21_">
</g>
<g id="XMLID_22_">
</g>
<g id="XMLID_23_">
</g>
<g id="XMLID_24_">
</g>
<g id="XMLID_25_">
</g>
<g id="XMLID_26_">
</g>
<g id="XMLID_27_">
</g>
<g id="XMLID_28_">
</g>
</svg>
