<?xml version="1.0" encoding="utf-8"?>
<!-- Generator: Adobe Illustrator 19.0.0, SVG Export Plug-In . SVG Version: 6.00 Build 0)  -->
<svg version="1.1" id="Layer_1" xmlns="http://www.w3.org/2000/svg" xmlns:xlink="http://www.w3.org/1999/xlink" x="0px" y="0px"
	 viewBox="0 0 30 30" style="enable-background:new 0 0 30 30;" xml:space="preserve">
<g>
	<g>
		<path d="M5,10.5c-0.1,0-0.3,0-0.4-0.1L0.1,5.9C0,5.7,0,5.3,0.1,5.1s0.5-0.2,0.7,0L5,9.3L9.3,5L5.1,0.9C5,0.7,5,0.3,5.1,0.1
			s0.5-0.2,0.7,0l4.5,4.5c0.2,0.2,0.2,0.5,0,0.7l-5,5C5.3,10.5,5.1,10.5,5,10.5z"/>
	</g>
	<g>
		<path d="M7.7,15C7.7,15,7.6,15,7.7,15c-0.5,0-0.9-0.2-1.2-0.5c-0.6-0.6-1.3-1.4-1.9-1.9C4.2,12.2,4,11.8,4,11.3
			c0-0.5,0.2-0.9,0.5-1.2l5.6-5.6c0.7-0.7,1.8-0.7,2.4,0l1.9,1.9C14.8,6.8,15,7.2,15,7.7s-0.2,0.9-0.5,1.2l-5.6,5.6
			C8.6,14.8,8.1,15,7.7,15z M11.3,5c-0.2,0-0.4,0.1-0.5,0.2l-5.6,5.6c0,0,0,0,0,0C5.1,10.9,5,11.1,5,11.3c0,0.2,0.1,0.4,0.2,0.5
			c0.6,0.6,1.3,1.4,1.9,2C7.3,13.9,7.5,14,7.7,14c0.2,0,0.4-0.1,0.5-0.2l5.6-5.6C13.9,8,14,7.9,14,7.7s-0.1-0.4-0.2-0.5l-1.9-1.9
			C11.7,5.1,11.5,5,11.3,5z"/>
	</g>
	<g>
		<path d="M13.5,18c-0.1,0-0.3,0-0.4-0.1l-4-4c-0.2-0.2-0.2-0.5,0-0.7s0.5-0.2,0.7,0l3.6,3.6l3.3-3.3l-3.6-3.6
			c-0.2-0.2-0.2-0.5,0-0.7s0.5-0.2,0.7,0l4,4c0.2,0.2,0.2,0.5,0,0.7l-4,4C13.8,18,13.6,18,13.5,18z"/>
	</g>
	<g>
		<path d="M7.5,12c-0.1,0-0.3,0-0.4-0.1c-0.2-0.2-0.2-0.5,0-0.7l4-4c0.2-0.2,0.5-0.2,0.7,0s0.2,0.5,0,0.7l-4,4C7.8,12,7.6,12,7.5,12
			z"/>
	</g>
	<g>
		<path d="M24.5,30c-0.1,0-0.3,0-0.4-0.1l-4-4c-0.2-0.2-0.2-0.5,0-0.7l5-5c0.2-0.2,0.5-0.2,0.7,0l4,4c0.2,0.2,0.2,0.5,0,0.7
			s-0.5,0.2-0.7,0l-3.6-3.6l-4.3,4.3l3.6,3.6c0.2,0.2,0.2,0.5,0,0.7C24.8,30,24.6,30,24.5,30z"/>
	</g>
	<g>
		<path d="M20.6,26c-0.1,0-0.2,0-0.3-0.1l-5.5-3.5c-0.4-0.3-0.7-0.7-0.8-1.3c-0.1-0.5,0.1-1,0.5-1.4l5.2-5.2
			c0.4-0.4,0.9-0.6,1.4-0.5c0.5,0.1,1,0.4,1.3,0.8c2.7,4.3,3.3,5.2,3.4,5.4c0.1,0.1,0.1,0.1,0.1,0.2c0.1,0.2,0,0.4-0.1,0.5l-4.9,4.9
			C20.8,25.9,20.7,26,20.6,26z M21,15c-0.2,0-0.4,0.1-0.5,0.2l-5.2,5.2C15.1,20.6,15,20.8,15,21c0,0.2,0.1,0.4,0.3,0.5l5.2,3.3
			l4.3-4.4c-0.5-0.6-1.3-2.1-3.3-5.2C21.5,15.2,21.3,15,21,15C21,15,21,15,21,15z"/>
	</g>
	<g>
		<path d="M18.5,22c-0.1,0-0.3,0-0.4-0.1c-0.2-0.2-0.2-0.5,0-0.7l3-3c0.2-0.2,0.5-0.2,0.7,0s0.2,0.5,0,0.7l-3,3
			C18.8,22,18.6,22,18.5,22z"/>
	</g>
	<g>
		<g>
			<path d="M11.5,24c-0.3,0-0.5-0.2-0.5-0.5v-2c0-0.3,0.2-0.5,0.5-0.5s0.5,0.2,0.5,0.5v2C12,23.8,11.8,24,11.5,24z"/>
		</g>
		<g>
			<path d="M7.5,18h-2C5.2,18,5,17.8,5,17.5S5.2,17,5.5,17h2C7.8,17,8,17.2,8,17.5S7.8,18,7.5,18z"/>
		</g>
		<g>
			<path d="M7.1,22.4c-0.1,0-0.3,0-0.4-0.1c-0.2-0.2-0.2-0.5,0-0.7l1.4-1.4c0.2-0.2,0.5-0.2,0.7,0s0.2,0.5,0,0.7l-1.4,1.4
				C7.3,22.4,7.2,22.4,7.1,22.4z"/>
		</g>
	</g>
	<g>
		<g>
			<path d="M17.5,8C17.2,8,17,7.8,17,7.5v-2C17,5.2,17.2,5,17.5,5S18,5.2,18,5.5v2C18,7.8,17.8,8,17.5,8z"/>
		</g>
		<g>
			<path d="M23.5,12h-2c-0.3,0-0.5-0.2-0.5-0.5s0.2-0.5,0.5-0.5h2c0.3,0,0.5,0.2,0.5,0.5S23.8,12,23.5,12z"/>
		</g>
		<g>
			<path d="M20.5,9c-0.1,0-0.3,0-0.4-0.1c-0.2-0.2-0.2-0.5,0-0.7l1.4-1.4c0.2-0.2,0.5-0.2,0.7,0s0.2,0.5,0,0.7l-1.4,1.4
				C20.8,9,20.6,9,20.5,9z"/>
		</g>
	</g>
</g>
</svg>
