<?xml version="1.0" encoding="utf-8"?>
<!-- Generator: Adobe Illustrator 19.0.0, SVG Export Plug-In . SVG Version: 6.00 Build 0)  -->
<svg version="1.1" id="Layer_1" xmlns="http://www.w3.org/2000/svg" xmlns:xlink="http://www.w3.org/1999/xlink" x="0px" y="0px"
	 viewBox="0 0 30 30" style="enable-background:new 0 0 30 30;" xml:space="preserve">
<g>
	<g>
		<path d="M4.2,18.5c-2.4,0-3.6-0.1-4-0.5C0.1,17.8,0,17.7,0,17.5c0-0.2,0-0.8,2.3-2l-2.2-3.2c-0.1-0.2-0.1-0.4,0-0.6l1-1.5
			C1.2,10,1.5,9.9,1.7,10L7,12.5l3.3-1.4c0.3-0.1,0.5,0,0.7,0.3c0.1,0.3,0,0.5-0.3,0.7l-3.5,1.5c-0.1,0.1-0.3,0.1-0.4,0l-5.1-2.3
			L1.1,12l2.3,3.3c0.1,0.1,0.1,0.3,0.1,0.4c0,0.1-0.1,0.3-0.3,0.3c-0.9,0.4-1.7,1-2.1,1.3c0.7,0.1,2.2,0.1,3.4,0.1H5
			c4.5,0,24-7.5,24-9.9c0-0.5-1.2-1.1-4.5-1.1c-3.3,0-7.3,1.5-7.3,1.5c-0.3,0.1-0.5,0-0.6-0.3c-0.1-0.3,0-0.5,0.3-0.6
			C17,7,21,5.5,24.5,5.5c2.4,0,5.5,0.2,5.5,2.1c0,3.8-21.7,10.9-25,10.9H4.5C4.4,18.5,4.3,18.5,4.2,18.5z"/>
	</g>
	<g>
		<path d="M11.5,12.5c-0.1,0-0.2,0-0.2-0.1l-9-5C2.1,7.4,2,7.2,2,7.1c0-0.2,0-0.3,0.1-0.4l3-3c0.1-0.1,0.3-0.2,0.5-0.1l12.5,4
			c0.2,0.1,0.3,0.2,0.3,0.4c0,0.2-0.1,0.4-0.2,0.5l-6.5,4C11.7,12.5,11.6,12.5,11.5,12.5z M3.3,6.9l8.2,4.5l5.3-3.3L5.6,4.6L3.3,6.9
			z"/>
	</g>
	<g>
		<path d="M24.5,8.5c-0.1,0-0.3,0-0.4-0.1c-0.2-0.2-0.2-0.5,0-0.7C24.2,7.6,25.8,6,28.5,6C28.8,6,29,6.2,29,6.5S28.8,7,28.5,7
			c-2.2,0-3.6,1.3-3.6,1.4C24.8,8.5,24.6,8.5,24.5,8.5z"/>
	</g>
	<g>
		<path d="M22,22.5c-0.1,0-0.3-0.1-0.4-0.2l-5.7-7c-0.2-0.2-0.1-0.5,0.1-0.7c0.2-0.2,0.5-0.1,0.7,0.1l5.5,6.7l1.8-0.7l-1.8-7.4
			c-0.1-0.3,0.1-0.5,0.4-0.6s0.5,0.1,0.6,0.4l1.9,7.9c0.1,0.2-0.1,0.5-0.3,0.6l-2.5,1C22.1,22.5,22.1,22.5,22,22.5z"/>
	</g>
	<g>
		<path d="M14.5,26.5h-14C0.2,26.5,0,26.3,0,26s0.2-0.5,0.5-0.5h14c0.3,0,0.5,0.2,0.5,0.5S14.8,26.5,14.5,26.5z"/>
	</g>
</g>
</svg>
