<?xml version="1.0" encoding="utf-8"?>
<!-- Generator: Adobe Illustrator 19.0.0, SVG Export Plug-In . SVG Version: 6.00 Build 0)  -->
<svg version="1.1" id="Layer_1" xmlns="http://www.w3.org/2000/svg" xmlns:xlink="http://www.w3.org/1999/xlink" x="0px" y="0px"
	 viewBox="0 0 30 30" style="enable-background:new 0 0 30 30;" xml:space="preserve">
<g>
	<g>
		<path d="M15,10c-2.2,0-4-1.8-4-4s1.8-4,4-4s4,1.8,4,4S17.2,10,15,10z M15,3c-1.7,0-3,1.3-3,3s1.3,3,3,3s3-1.3,3-3S16.7,3,15,3z"/>
	</g>
	<g>
		<path d="M15,19c-2.2,0-4-1.8-4-4s1.8-4,4-4s4,1.8,4,4S17.2,19,15,19z M15,12c-1.7,0-3,1.3-3,3s1.3,3,3,3s3-1.3,3-3S16.7,12,15,12z
			"/>
	</g>
	<g>
		<path d="M15,28c-2.2,0-4-1.8-4-4s1.8-4,4-4s4,1.8,4,4S17.2,28,15,28z M15,21c-1.7,0-3,1.3-3,3s1.3,3,3,3s3-1.3,3-3S16.7,21,15,21z
			"/>
	</g>
	<g>
		<path d="M19.5,30h-9C9.7,30,9,29.3,9,28.5v-27C9,0.7,9.7,0,10.5,0h9C20.3,0,21,0.7,21,1.5v27C21,29.3,20.3,30,19.5,30z M10.5,1
			C10.2,1,10,1.2,10,1.5v27c0,0.3,0.2,0.5,0.5,0.5h9c0.3,0,0.5-0.2,0.5-0.5v-27C20,1.2,19.8,1,19.5,1H10.5z"/>
	</g>
	<g>
		<path d="M9.5,29C9.2,29,9,28.8,9,28.5c0-2.5-1.6-3.8-2.9-5C5,22.6,4,21.8,4,20.5C4,20.2,4.2,20,4.5,20h5c0.3,0,0.5,0.2,0.5,0.5
			S9.8,21,9.5,21H5.1c0.2,0.6,0.9,1.1,1.6,1.7C8.2,24,10,25.5,10,28.5C10,28.8,9.8,29,9.5,29z"/>
	</g>
	<g>
		<path d="M9.5,20C9.2,20,9,19.8,9,19.5c0-2.5-1.6-3.8-2.9-5C5,13.6,4,12.8,4,11.5C4,11.2,4.2,11,4.5,11h5c0.3,0,0.5,0.2,0.5,0.5
			S9.8,12,9.5,12H5.1c0.2,0.6,0.9,1.1,1.6,1.7C8.2,15,10,16.5,10,19.5C10,19.8,9.8,20,9.5,20z"/>
	</g>
	<g>
		<path d="M9.5,11C9.2,11,9,10.8,9,10.5c0-2.5-1.6-3.8-2.9-5C5,4.6,4,3.8,4,2.5C4,2.2,4.2,2,4.5,2h5C9.8,2,10,2.2,10,2.5
			S9.8,3,9.5,3H5.1C5.3,3.6,6,4.1,6.7,4.7C8.2,6,10,7.5,10,10.5C10,10.8,9.8,11,9.5,11z"/>
	</g>
	<g>
		<path d="M20.5,29c-0.3,0-0.5-0.2-0.5-0.5c0-3,1.8-4.5,3.3-5.8c0.8-0.6,1.4-1.2,1.6-1.7h-4.4c-0.3,0-0.5-0.2-0.5-0.5
			s0.2-0.5,0.5-0.5h5c0.3,0,0.5,0.2,0.5,0.5c0,1.3-1,2.1-2.1,3c-1.4,1.1-2.9,2.4-2.9,5C21,28.8,20.8,29,20.5,29z"/>
	</g>
	<g>
		<path d="M20.5,20c-0.3,0-0.5-0.2-0.5-0.5c0-3,1.8-4.5,3.3-5.8c0.8-0.6,1.4-1.2,1.6-1.7h-4.4c-0.3,0-0.5-0.2-0.5-0.5
			s0.2-0.5,0.5-0.5h5c0.3,0,0.5,0.2,0.5,0.5c0,1.3-1,2.1-2.1,3c-1.4,1.1-2.9,2.4-2.9,5C21,19.8,20.8,20,20.5,20z"/>
	</g>
	<g>
		<path d="M20.5,11c-0.3,0-0.5-0.2-0.5-0.5c0-3,1.8-4.5,3.3-5.8C24,4.1,24.7,3.6,24.9,3h-4.4C20.2,3,20,2.8,20,2.5S20.2,2,20.5,2h5
			C25.8,2,26,2.2,26,2.5c0,1.3-1,2.1-2.1,3C22.6,6.7,21,8,21,10.5C21,10.8,20.8,11,20.5,11z"/>
	</g>
</g>
</svg>
