<?xml version="1.0" encoding="utf-8"?>
<!-- Generator: Adobe Illustrator 19.0.0, SVG Export Plug-In . SVG Version: 6.00 Build 0)  -->
<svg version="1.1" id="Layer_1" xmlns="http://www.w3.org/2000/svg" xmlns:xlink="http://www.w3.org/1999/xlink" x="0px" y="0px"
	 viewBox="0 0 30 30" style="enable-background:new 0 0 30 30;" xml:space="preserve">
<g>
	<g>
		<path d="M14.5,13C13,13,8,12.9,8,11.3l0.4-3.7C8.4,6.7,9.2,6,10.1,6h8.9c0.9,0,1.6,0.7,1.7,1.6l0.4,3.7C21,12.9,16,13,14.5,13z
			 M9,11.2c0.4,0.3,2.3,0.8,5.5,0.8c3.2,0,5.1-0.5,5.5-0.8l-0.4-3.5c0-0.4-0.3-0.7-0.7-0.7h-8.9C9.7,7,9.4,7.3,9.4,7.7L9,11.2z"/>
	</g>
	<g>
		<path d="M17.5,21h-4.8c-0.3,0-0.5-0.2-0.5-0.5s0.2-0.5,0.5-0.5h4.8c0.3,0,0.5,0.2,0.5,0.5S17.8,21,17.5,21z"/>
	</g>
	<g>
		<path d="M23,2.3c-0.1,0-0.2,0-0.3-0.1c0,0-1.7-1.2-7.8-1.2S7.1,2.2,7,2.2C6.8,2.3,6.5,2.3,6.4,2.1C6.2,1.8,6.2,1.5,6.4,1.4
			C6.6,1.2,8.4,0,14.9,0s8.2,1.2,8.4,1.4c0.2,0.2,0.3,0.5,0.1,0.7C23.3,2.2,23.2,2.3,23,2.3z"/>
	</g>
	<g>
		<path d="M4.5,30c-0.1,0-0.2,0-0.3-0.1c-0.2-0.2-0.2-0.5-0.1-0.7l2.5-3c0.2-0.2,0.5-0.2,0.7-0.1c0.2,0.2,0.2,0.5,0.1,0.7l-2.5,3
			C4.8,29.9,4.6,30,4.5,30z"/>
	</g>
	<g>
		<path d="M25.5,30c-0.1,0-0.3-0.1-0.4-0.2l-2.5-3c-0.2-0.2-0.1-0.5,0.1-0.7c0.2-0.2,0.5-0.1,0.7,0.1l2.5,3c0.2,0.2,0.1,0.5-0.1,0.7
			C25.7,30,25.6,30,25.5,30z"/>
	</g>
	<g>
		<path d="M15,29c0,0-0.1,0-0.1,0L4.4,26C4.1,25.9,4,25.6,4,25.4l1-4C5.1,21.1,5.3,21,5.6,21l9.4,1.9l8.4-1.9
			c0.2-0.1,0.5,0.1,0.6,0.3l2,4c0.1,0.1,0.1,0.3,0,0.4s-0.2,0.2-0.3,0.3l-10.5,3C15.1,29,15,29,15,29z M5.1,25.2L15,28l9.8-2.8
			l-1.6-3.1l-8.1,1.8c-0.1,0-0.1,0-0.2,0l-9-1.8L5.1,25.2z"/>
	</g>
	<g>
		<path d="M23.5,22c0,0-0.1,0-0.1,0c-0.3-0.1-0.4-0.3-0.4-0.6l0.9-3.3c0.2-0.6,0.2-1.3,0-2L23.2,14C23,13.6,23,13.2,23,12.7V9
			c0-1.1-0.5-2.1-1.4-2.7l-1.1-0.8C20,5.2,19.4,5,18.8,5h-8.6C9.6,5,9,5.2,8.5,5.5L7.4,6.3C6.5,6.9,6,7.9,6,9v3.7
			C6,13.2,6,13.6,5.8,14l-0.7,2.1c-0.2,0.6-0.2,1.3,0,2L6,21.4c0.1,0.3-0.1,0.5-0.4,0.6c-0.3,0.1-0.5-0.1-0.6-0.4l-0.9-3.3
			c-0.2-0.8-0.2-1.7,0.1-2.5l0.7-2.1C5,13.4,5,13.1,5,12.7V9c0-1.4,0.7-2.8,1.8-3.6l1.1-0.8C8.6,4.3,9.4,4,10.2,4h8.6
			c0.8,0,1.6,0.3,2.3,0.7l1.1,0.8C23.3,6.3,24,7.6,24,9v3.7c0,0.4,0.1,0.7,0.2,1l0.7,2.1c0.3,0.8,0.3,1.7,0.1,2.5L24,21.6
			C23.9,21.9,23.7,22,23.5,22z"/>
	</g>
	<g>
		<path d="M11.8,4.8c-0.2,0-0.4-0.1-0.5-0.3L10,1.3c-0.1-0.3,0-0.5,0.3-0.6c0.3-0.1,0.5,0,0.6,0.3l1.3,3.2c0.1,0.3,0,0.5-0.3,0.6
			C11.9,4.8,11.8,4.8,11.8,4.8z"/>
	</g>
	<g>
		<path d="M18,4.8c-0.1,0-0.1,0-0.2,0c-0.3-0.1-0.4-0.4-0.3-0.6l1.3-3.2c0.1-0.3,0.4-0.4,0.6-0.3c0.3,0.1,0.4,0.4,0.3,0.6l-1.3,3.2
			C18.4,4.7,18.2,4.8,18,4.8z"/>
	</g>
	<g>
		<path d="M15,27c-0.2,0-0.4-0.1-0.4-0.3l-1.5-3c-0.1-0.2,0-0.5,0.2-0.7c0.2-0.1,0.5,0,0.7,0.2l1.1,2.1l1.1-2.1
			c0.1-0.2,0.4-0.3,0.7-0.2c0.2,0.1,0.3,0.4,0.2,0.7l-1.5,3C15.4,26.9,15.2,27,15,27z"/>
	</g>
	<g>
		<path d="M13,28.5c-0.2,0-0.4-0.1-0.5-0.3L10,22.8c-0.1-0.3,0-0.5,0.2-0.7c0.3-0.1,0.5,0,0.7,0.2l2.5,5.4c0.1,0.3,0,0.5-0.2,0.7
			C13.1,28.5,13.1,28.5,13,28.5z"/>
	</g>
	<g>
		<path d="M8.5,27c-0.2,0-0.4-0.1-0.5-0.3l-2-4.5c-0.1-0.3,0-0.5,0.3-0.7c0.3-0.1,0.5,0,0.7,0.3l2,4.5c0.1,0.3,0,0.5-0.3,0.7
			C8.6,27,8.6,27,8.5,27z"/>
	</g>
	<g>
		<path d="M16.8,28.1c-0.1,0-0.2,0-0.2-0.1c-0.2-0.1-0.3-0.4-0.2-0.7l2.8-5.1c0.1-0.2,0.4-0.3,0.7-0.2c0.2,0.1,0.3,0.4,0.2,0.7
			l-2.8,5.1C17.1,28,16.9,28.1,16.8,28.1z"/>
	</g>
	<g>
		<path d="M21,27c-0.1,0-0.1,0-0.2,0c-0.3-0.1-0.4-0.4-0.3-0.6l1.5-4.6c0.1-0.3,0.4-0.4,0.6-0.3c0.3,0.1,0.4,0.4,0.3,0.6l-1.5,4.6
			C21.4,26.9,21.2,27,21,27z"/>
	</g>
	<g>
		<path d="M9.5,21C8.7,21,8,20.3,8,19.5S8.7,18,9.5,18s1.5,0.7,1.5,1.5S10.3,21,9.5,21z M9.5,19C9.2,19,9,19.2,9,19.5S9.2,20,9.5,20
			s0.5-0.2,0.5-0.5S9.8,19,9.5,19z"/>
	</g>
	<g>
		<path d="M20.5,21c-0.8,0-1.5-0.7-1.5-1.5s0.7-1.5,1.5-1.5s1.5,0.7,1.5,1.5S21.3,21,20.5,21z M20.5,19c-0.3,0-0.5,0.2-0.5,0.5
			s0.2,0.5,0.5,0.5s0.5-0.2,0.5-0.5S20.8,19,20.5,19z"/>
	</g>
	<g>
		<path d="M24.5,29h-19C5.2,29,5,28.8,5,28.5S5.2,28,5.5,28h19c0.3,0,0.5,0.2,0.5,0.5S24.8,29,24.5,29z"/>
	</g>
</g>
</svg>
