<?xml version="1.0" encoding="utf-8"?>
<!-- Generator: Adobe Illustrator 19.0.0, SVG Export Plug-In . SVG Version: 6.00 Build 0)  -->
<svg version="1.1" id="Layer_1" xmlns="http://www.w3.org/2000/svg" xmlns:xlink="http://www.w3.org/1999/xlink" x="0px" y="0px"
	 viewBox="0 0 30 30" style="enable-background:new 0 0 30 30;" xml:space="preserve">
<g>
	<g>
		<path d="M15,16c-1.1,0-6.5-0.1-6.5-1.8l0.4-6.5C8.9,6.7,9.7,6,10.6,6h8.9c0.9,0,1.6,0.7,1.7,1.7l0.4,6.5C21.5,15.9,16.1,16,15,16z
			 M9.5,14.2C9.8,14.5,11.7,15,15,15s5.2-0.5,5.5-0.8l-0.4-6.4c0-0.4-0.3-0.7-0.7-0.7h-8.9c-0.4,0-0.7,0.3-0.7,0.7L9.5,14.2z"/>
	</g>
	<g>
		<path d="M17,21h-4c-0.3,0-0.5-0.2-0.5-0.5S12.7,20,13,20h4c0.3,0,0.5,0.2,0.5,0.5S17.3,21,17,21z"/>
	</g>
	<g>
		<path d="M21,2c-0.1,0-0.2,0-0.3-0.1c0,0-1.2-0.9-5.7-0.9S9.3,1.9,9.3,1.9C9.1,2.1,8.8,2,8.6,1.8C8.4,1.6,8.5,1.3,8.7,1.1
			C8.8,1,10.2,0,15,0s6.2,1,6.3,1.1c0.2,0.2,0.2,0.5,0.1,0.7C21.3,1.9,21.1,2,21,2z"/>
	</g>
	<g>
		<path d="M15,4.8c-0.2,0-0.4-0.1-0.4-0.3l-1.9-3.7c-0.1-0.2,0-0.5,0.2-0.7c0.2-0.1,0.5,0,0.7,0.2L15,3.2l1.4-2.8
			c0.1-0.2,0.4-0.3,0.7-0.2c0.2,0.1,0.3,0.4,0.2,0.7l-1.9,3.7C15.4,4.7,15.2,4.8,15,4.8z"/>
	</g>
	<g>
		<path d="M15,26c-4.5,0-9.5-1.3-9.5-3L6.6,6.8C6.7,5.2,7.9,4,9.4,4h11.1c1.5,0,2.8,1.2,2.9,2.8L24.5,23C24.5,24.7,19.5,26,15,26z
			 M9.4,5c-1,0-1.8,0.8-1.9,1.8L6.5,23.1C6.7,23.6,10.1,25,15,25s8.3-1.4,8.5-2L22.5,6.8l0,0c-0.1-1-0.9-1.8-1.9-1.8H9.4z"/>
	</g>
	<g>
		<path d="M5,30c-0.1,0-0.2,0-0.3-0.1c-0.2-0.2-0.3-0.5-0.1-0.7l3.5-4.5c0.2-0.2,0.5-0.3,0.7-0.1c0.2,0.2,0.3,0.5,0.1,0.7l-3.5,4.5
			C5.3,29.9,5.1,30,5,30z"/>
	</g>
	<g>
		<path d="M25,30c-0.1,0-0.3-0.1-0.4-0.2l-3.5-4.5c-0.2-0.2-0.1-0.5,0.1-0.7c0.2-0.2,0.5-0.1,0.7,0.1l3.5,4.5
			c0.2,0.2,0.1,0.5-0.1,0.7C25.2,30,25.1,30,25,30z"/>
	</g>
	<g>
		<path d="M22.5,27H7.4c-0.3,0-0.5-0.2-0.5-0.5S7.1,26,7.4,26h15.1c0.3,0,0.5,0.2,0.5,0.5S22.8,27,22.5,27z"/>
	</g>
	<g>
		<path d="M24,29H6c-0.3,0-0.5-0.2-0.5-0.5S5.7,28,6,28h18c0.3,0,0.5,0.2,0.5,0.5S24.3,29,24,29z"/>
	</g>
	<g>
		<path d="M9.5,22c-1.1,0-2-0.9-2-2s0.9-2,2-2s2,0.9,2,2S10.6,22,9.5,22z M9.5,19c-0.6,0-1,0.4-1,1s0.4,1,1,1s1-0.4,1-1
			S10.1,19,9.5,19z"/>
	</g>
	<g>
		<path d="M20.5,22c-1.1,0-2-0.9-2-2s0.9-2,2-2s2,0.9,2,2S21.6,22,20.5,22z M20.5,19c-0.6,0-1,0.4-1,1s0.4,1,1,1s1-0.4,1-1
			S21.1,19,20.5,19z"/>
	</g>
</g>
</svg>
