<?xml version="1.0" encoding="iso-8859-1"?>
<!-- Generator: Adobe Illustrator 19.0.0, SVG Export Plug-In . SVG Version: 6.00 Build 0)  -->
<svg version="1.1" id="Layer_1" xmlns="http://www.w3.org/2000/svg" xmlns:xlink="http://www.w3.org/1999/xlink" x="0px" y="0px"
	 viewBox="0 0 24 24" style="enable-background:new 0 0 24 24;" xml:space="preserve">
<g>
	<path d="M23.5,5h-3.69l-0.586-1.171C18.968,3.318,18.454,3,17.882,3h-2.301L13.89,2.437C13.022,2.147,12.118,2,11.202,2H1.5
		C0.673,2,0,2.673,0,3.5v4C0,8.327,0.673,9,1.5,9h2.416l-0.88,5.722L1.2,16.1c-0.007,0.005-0.008,0.014-0.014,0.02
		c-0.07,0.057-0.122,0.13-0.153,0.217c-0.006,0.016-0.006,0.031-0.01,0.048C1.014,16.423,1,16.459,1,16.5v4
		C1,21.327,1.673,22,2.5,22h8c0.827,0,1.5-0.673,1.5-1.5v-4c0-0.012-0.006-0.022-0.007-0.034c-0.003-0.037-0.011-0.072-0.022-0.107
		c-0.007-0.025-0.012-0.049-0.023-0.072c-0.016-0.033-0.038-0.061-0.061-0.09c-0.015-0.019-0.026-0.04-0.043-0.056
		c-0.034-0.033-0.075-0.057-0.118-0.08c-0.013-0.007-0.023-0.017-0.036-0.022l-3.138-1.345l0.339-2.206
		C8.928,12.495,8.964,12.5,9,12.5c0.225,0,0.428-0.151,0.484-0.379l0.5-2c0.067-0.268-0.096-0.539-0.364-0.606
		C9.525,9.49,9.432,9.504,9.346,9.532L9.428,9h1.774c0.915,0,1.819-0.147,2.688-0.437L15.581,8h2.301
		c0.572,0,1.086-0.318,1.342-0.83L19.809,6H23.5C23.776,6,24,5.776,24,5.5S23.776,5,23.5,5z M11,20.5c0,0.276-0.224,0.5-0.5,0.5h-8
		C2.224,21,2,20.776,2,20.5V17h9V20.5z M7.803,15.459L9.064,16H3l0.8-0.601c0.105-0.078,0.174-0.195,0.194-0.324L4.929,9h3.488
		l-0.911,5.923C7.471,15.149,7.593,15.369,7.803,15.459z M13.574,7.615C12.808,7.871,12.01,8,11.202,8H8.999l0,0h-4.5l0,0H1.5
		C1.224,8,1,7.776,1,7.5v-4C1,3.224,1.224,3,1.5,3V2.999h9.702c0.808,0,1.606,0.13,2.372,0.385L15,3.86v3.28L13.574,7.615z
		 M18.329,6.724C18.244,6.894,18.073,7,17.882,7h-1.881V4h1.881c0.191,0,0.362,0.106,0.447,0.276L18.941,5.5L18.329,6.724z"/>
	<path d="M5.5,4h-3C2.224,4,2,4.224,2,4.5S2.224,5,2.5,5h3C5.776,5,6,4.776,6,4.5S5.776,4,5.5,4z"/>
	<path d="M5.5,6h-3C2.224,6,2,6.224,2,6.5S2.224,7,2.5,7h3C5.776,7,6,6.776,6,6.5S5.776,6,5.5,6z"/>
</g>
</svg>
