<?xml version="1.0" encoding="iso-8859-1"?>
<!-- Generator: Adobe Illustrator 19.0.0, SVG Export Plug-In . SVG Version: 6.00 Build 0)  -->
<svg version="1.1" id="Layer_1" xmlns="http://www.w3.org/2000/svg" xmlns:xlink="http://www.w3.org/1999/xlink" x="0px" y="0px"
	 viewBox="0 0 24 24" style="enable-background:new 0 0 24 24;" xml:space="preserve">
<g>
	<path d="M20.5,0C18.57,0,17,1.57,17,3.5c0,0.526-0.456,1.248-1.354,2.146c-0.958,0.957-2.15,2.144-6.897-0.58
		c-0.007-0.004-0.016,0-0.023-0.004C8.64,5.018,8.549,5,8.456,5.009c-0.018,0.002-0.033,0.006-0.05,0.01
		c-0.095,0.018-0.187,0.054-0.26,0.127l-3,3c-0.195,0.195-0.195,0.512,0,0.707L5.543,9.25l-5.396,5.396
		c-0.195,0.195-0.195,0.512,0,0.707l0.5,0.5C0.74,15.947,0.867,16,1,16h1v1c0,0.133,0.053,0.26,0.146,0.354l1.5,1.5
		C3.74,18.947,3.867,19,4,19h2v2c0,0.133,0.053,0.26,0.146,0.354l2.5,2.5C8.744,23.951,8.872,24,9,24s0.256-0.049,0.353-0.146
		l5.396-5.396l0.396,0.396C15.244,18.951,15.372,19,15.5,19s0.256-0.049,0.354-0.145l3-3c0.003-0.003,0.002-0.007,0.005-0.01
		c0.068-0.07,0.103-0.156,0.121-0.246c0.004-0.02,0.009-0.037,0.011-0.057c0.008-0.092-0.01-0.182-0.052-0.266
		c-0.004-0.008,0-0.017-0.005-0.024c-2.726-4.751-1.536-5.941-0.58-6.897C19.252,7.456,19.974,7,20.5,7C22.43,7,24,5.43,24,3.5
		S22.43,0,20.5,0z M9,22.792l-2-2V18.5C7,18.224,6.776,18,6.5,18H4.207L3,16.792V15.5C3,15.224,2.776,15,2.5,15H1.207L6.25,9.957
		l7.793,7.793L9,22.792z M15.5,17.792L6.207,8.5L8.5,6.208l9.292,9.292L15.5,17.792z M20.501,6c-0.824,0-1.731,0.522-2.854,1.646
		c-1.125,1.124-2.008,2.419-0.888,5.406l-5.811-5.811c2.99,1.12,4.283,0.236,5.408-0.887c1.123-1.124,1.646-2.03,1.646-2.854
		c0-1.378,1.121-2.5,2.5-2.5s2.5,1.122,2.5,2.5S21.88,6,20.501,6z"/>
	<path d="M20.5,2C19.673,2,19,2.672,19,3.5C19,4.326,19.673,5,20.5,5S22,4.326,22,3.5C22,2.672,21.327,2,20.5,2z M20.5,4
		C20.225,4,20,3.776,20,3.5S20.225,3,20.5,3S21,3.224,21,3.5S20.775,4,20.5,4z"/>
</g>
</svg>
