<?xml version="1.0" encoding="iso-8859-1"?>
<!-- Generator: Adobe Illustrator 19.0.0, SVG Export Plug-In . SVG Version: 6.00 Build 0)  -->
<svg version="1.1" id="Layer_1" xmlns="http://www.w3.org/2000/svg" xmlns:xlink="http://www.w3.org/1999/xlink" x="0px" y="0px"
	 viewBox="0 0 24 24" style="enable-background:new 0 0 24 24;" xml:space="preserve">
<g>
	<path d="M17.5,9.5c-0.517,0-1.018,0.067-1.5,0.182V5c0-0.651-0.419-1.201-1-1.408V3c0-0.827-0.673-1.5-1.5-1.5
		C13.224,1.5,13,1.724,13,2s0.224,0.5,0.5,0.5C13.775,2.5,14,2.724,14,3v0.592C13.419,3.799,13,4.349,13,5v3.882l-2.053-4.106
		c-0.005-0.011-0.017-0.015-0.023-0.026c-0.035-0.059-0.081-0.108-0.136-0.148c-0.018-0.013-0.033-0.025-0.052-0.035
		C10.664,4.528,10.587,4.5,10.5,4.5H6c-0.229,0-0.43,0.156-0.486,0.379l-1.466,5.865l-3.902,3.902C0.053,14.74,0,14.867,0,15v4
		c0,0.276,0.224,0.5,0.5,0.5H2c0,1.654,1.346,3,3,3s3-1.346,3-3c0-0.046-0.012-0.09-0.014-0.135l2.595-0.865h0.921
		c0.982,2.346,3.3,4,5.998,4c3.584,0,6.5-2.916,6.5-6.5S21.084,9.5,17.5,9.5z M14,5c0-0.276,0.225-0.5,0.5-0.5S15,4.724,15,5v4.691
		l-1,0.5V5z M11,7.116l1.692,3.384H11V7.116z M6.391,5.5H10v5H5.141L6.391,5.5z M5,21.5c-1.103,0-2-0.897-2-2s0.897-2,2-2
		s2,0.897,2,2S6.103,21.5,5,21.5z M10.5,17.5c-0.054,0-0.107,0.009-0.159,0.026L7.778,18.38C7.333,17.28,6.258,16.5,5,16.5
		c-1.302,0-2.401,0.839-2.816,2H1v-3.293L4.707,11.5h8.114c-0.554,0.576-1.006,1.251-1.319,2H10.5c-0.276,0-0.5,0.224-0.5,0.5
		s0.224,0.5,0.5,0.5h0.682C11.067,14.982,11,15.483,11,16s0.067,1.018,0.182,1.5H10.5z M12,16c0-0.521,0.078-1.022,0.213-1.5H17.5
		c0.827,0,1.5,0.673,1.5,1.5s-0.673,1.5-1.5,1.5h-5.287C12.078,17.022,12,16.521,12,16z M17.5,21.5c-2.132,0-3.98-1.222-4.893-3
		H17.5c1.379,0,2.5-1.122,2.5-2.5s-1.121-2.5-2.5-2.5h-4.893c0.912-1.778,2.761-3,4.893-3c3.032,0,5.5,2.467,5.5,5.5
		S20.532,21.5,17.5,21.5z"/>
	<circle cx="17.5" cy="16" r="0.5"/>
</g>
</svg>
