<?xml version="1.0" encoding="iso-8859-1"?>
<!-- Generator: Adobe Illustrator 19.0.0, SVG Export Plug-In . SVG Version: 6.00 Build 0)  -->
<svg version="1.1" id="Layer_1" xmlns="http://www.w3.org/2000/svg" xmlns:xlink="http://www.w3.org/1999/xlink" x="0px" y="0px"
	 viewBox="0 0 24 24" style="enable-background:new 0 0 24 24;" xml:space="preserve">
<g>
	<g>
		<path d="M21.463,15.984c-2.226,0-5.544-1.796-8.592-4.844C8.768,7.038,6.933,2.446,8.693,0.686
			c1.76-1.761,6.352,0.075,10.454,4.177c4.102,4.102,5.937,8.693,4.177,10.454C22.872,15.769,22.232,15.984,21.463,15.984z
			 M10.567,1.008c-0.509,0-0.909,0.128-1.167,0.385c-1.149,1.15,0.283,5.146,4.177,9.04c3.894,3.894,7.891,5.329,9.04,4.177
			c1.149-1.15-0.283-5.146-4.177-9.04C15.417,2.548,12.333,1.008,10.567,1.008z"/>
	</g>
	<g>
		<path d="M3.956,24.001c-0.23,0-0.513-0.055-0.856-0.202c-0.548-0.235-1.147-0.661-1.687-1.201c-0.54-0.54-0.966-1.139-1.201-1.687
			c-0.4-0.933-0.117-1.415,0.087-1.619c0.178-0.179,0.557-0.407,1.254-0.212L8.046,3.311c0.106-0.255,0.396-0.375,0.653-0.272
			c0.255,0.105,0.377,0.397,0.272,0.653L2.293,19.91c-0.052,0.127-0.154,0.227-0.282,0.276c-0.128,0.048-0.272,0.044-0.395-0.015
			c-0.386-0.184-0.588-0.177-0.628-0.159c-0.041,0.131,0.185,0.932,1.132,1.879c0.947,0.947,1.75,1.174,1.907,1.103
			c-0.011-0.012-0.005-0.22-0.194-0.613c-0.06-0.124-0.065-0.267-0.016-0.396c0.049-0.128,0.149-0.231,0.277-0.283l16.226-6.662
			c0.253-0.106,0.548,0.017,0.652,0.272c0.105,0.255-0.017,0.547-0.272,0.652L4.925,22.44c0.203,0.707-0.027,1.092-0.207,1.271
			C4.589,23.84,4.35,24.001,3.956,24.001z"/>
	</g>
	<g>
		<path d="M10.982,23.711c-0.552,0-1.081-0.306-1.342-0.828l-1.079-2.159c-0.124-0.247-0.023-0.547,0.224-0.671
			c0.247-0.123,0.548-0.023,0.671,0.224l1.079,2.159c0.118,0.236,0.402,0.339,0.642,0.235l5.163-2.212
			c0.127-0.055,0.224-0.156,0.271-0.287c0.047-0.13,0.04-0.27-0.022-0.394l-1.027-2.054c-0.124-0.247-0.023-0.547,0.224-0.671
			c0.247-0.122,0.547-0.024,0.671,0.224l1.027,2.054c0.184,0.367,0.208,0.799,0.067,1.185c-0.142,0.386-0.439,0.7-0.817,0.862
			L11.57,23.59C11.379,23.672,11.179,23.711,10.982,23.711z"/>
	</g>
</g>
<g>
</g>
<g>
</g>
<g>
</g>
<g>
</g>
<g>
</g>
<g>
</g>
<g>
</g>
<g>
</g>
<g>
</g>
<g>
</g>
<g>
</g>
<g>
</g>
<g>
</g>
<g>
</g>
<g>
</g>
</svg>
