<?xml version="1.0" encoding="iso-8859-1"?>
<!-- Generator: Adobe Illustrator 19.0.0, SVG Export Plug-In . SVG Version: 6.00 Build 0)  -->
<svg version="1.1" id="Layer_1" xmlns="http://www.w3.org/2000/svg" xmlns:xlink="http://www.w3.org/1999/xlink" x="0px" y="0px"
	 viewBox="0 0 24 24" style="enable-background:new 0 0 24 24;" xml:space="preserve">
<g id="XMLID_66_">
	<g id="XMLID_233_">
		<path d="M18.5,20.232H6c-0.223,0-0.419-0.148-0.481-0.363l-2-7c-0.05-0.174-0.001-0.362,0.127-0.491l8-8
			c0.195-0.195,0.512-0.195,0.707,0l8,8c0.12,0.12,0.171,0.292,0.135,0.458l-1.5,7C18.939,20.068,18.736,20.232,18.5,20.232z
			 M6.377,19.232h11.719l1.358-6.339L12,5.439l-7.438,7.438L6.377,19.232z"/>
	</g>
	<g id="XMLID_69_">
		<path d="M1,16.232c-0.128,0-0.256-0.049-0.354-0.146c-0.195-0.195-0.195-0.512,0-0.707l3-3c0.195-0.195,0.512-0.195,0.707,0
			s0.195,0.512,0,0.707l-3,3C1.256,16.183,1.128,16.232,1,16.232z"/>
	</g>
	<g id="XMLID_68_">
		<path d="M12,20.232c-0.276,0-0.5-0.224-0.5-0.5v-15c0-0.276,0.224-0.5,0.5-0.5s0.5,0.224,0.5,0.5c0,3.086,1.096,5.889,1.854,6.646
			c0.453,0.453,3.29,0.796,5.659,0.854c0.128,0.003,0.25,0.056,0.341,0.146l3,3c0.195,0.195,0.195,0.512,0,0.707
			c-0.195,0.195-0.512,0.195-0.707,0l-2.859-2.859c-1.442-0.043-5.243-0.243-6.141-1.141c-0.392-0.392-0.796-1.083-1.146-1.966
			v9.613C12.5,20.009,12.276,20.232,12,20.232z"/>
	</g>
	<g id="XMLID_67_">
		<path d="M18.5,20.232c-0.116,0-0.233-0.04-0.328-0.122c-1.374-1.191-1.741-3.001-1.008-4.967c0.526-1.411,1.699-2.911,2.835-2.911
			c0.276,0,0.5,0.224,0.5,0.5s-0.224,0.5-0.5,0.5c-0.43,0-1.384,0.88-1.898,2.26c-0.274,0.734-0.752,2.581,0.726,3.862
			c0.208,0.181,0.231,0.497,0.05,0.706C18.779,20.174,18.64,20.232,18.5,20.232z"/>
	</g>
</g>
<g>
</g>
<g>
</g>
<g>
</g>
<g>
</g>
<g>
</g>
<g>
</g>
<g>
</g>
<g>
</g>
<g>
</g>
<g>
</g>
<g>
</g>
<g>
</g>
<g>
</g>
<g>
</g>
<g>
</g>
</svg>
