<?xml version="1.0" encoding="iso-8859-1"?>
<!-- Generator: Adobe Illustrator 19.0.0, SVG Export Plug-In . SVG Version: 6.00 Build 0)  -->
<svg version="1.1" id="Layer_1" xmlns="http://www.w3.org/2000/svg" xmlns:xlink="http://www.w3.org/1999/xlink" x="0px" y="0px"
	 viewBox="0 0 24 24" style="enable-background:new 0 0 24 24;" xml:space="preserve">
<g>
	<g>
		<path d="M19,22.105c-0.276,0-0.5-0.224-0.5-0.5c0-3.584-2.916-6.5-6.5-6.5s-6.5,2.916-6.5,6.5c0,0.276-0.224,0.5-0.5,0.5
			s-0.5-0.224-0.5-0.5c0-4.136,3.364-7.5,7.5-7.5s7.5,3.364,7.5,7.5C19.5,21.881,19.276,22.105,19,22.105z"/>
	</g>
	<g>
		<path d="M12,24.105c-3.612,0-7.5-0.782-7.5-2.5s3.888-2.5,7.5-2.5s7.5,0.782,7.5,2.5S15.612,24.105,12,24.105z M12,20.105
			c-4.289,0-6.5,1.051-6.5,1.5s2.211,1.5,6.5,1.5s6.5-1.051,6.5-1.5S16.289,20.105,12,20.105z"/>
	</g>
	<g>
		<path d="M13,12.105c-0.276,0-0.5-0.224-0.5-0.5v-10c0-0.276-0.224-0.5-0.5-0.5s-0.5,0.224-0.5,0.5v10c0,0.276-0.224,0.5-0.5,0.5
			s-0.5-0.224-0.5-0.5v-10c0-0.827,0.673-1.5,1.5-1.5s1.5,0.673,1.5,1.5v10C13.5,11.881,13.276,12.105,13,12.105z"/>
	</g>
	<g>
		<path d="M14,15.105c-0.276,0-0.5-0.224-0.5-0.5v-2.381c-0.993-0.158-2.007-0.158-3,0v2.381c0,0.276-0.224,0.5-0.5,0.5
			s-0.5-0.224-0.5-0.5v-2.799c0-0.238,0.167-0.443,0.401-0.49c1.381-0.279,2.817-0.279,4.198,0c0.233,0.047,0.401,0.252,0.401,0.49
			v2.799C14.5,14.881,14.276,15.105,14,15.105z"/>
	</g>
</g>
<g>
</g>
<g>
</g>
<g>
</g>
<g>
</g>
<g>
</g>
<g>
</g>
<g>
</g>
<g>
</g>
<g>
</g>
<g>
</g>
<g>
</g>
<g>
</g>
<g>
</g>
<g>
</g>
<g>
</g>
</svg>
