<?xml version="1.0" encoding="iso-8859-1"?>
<!-- Generator: Adobe Illustrator 19.0.0, SVG Export Plug-In . SVG Version: 6.00 Build 0)  -->
<svg version="1.1" id="Layer_1" xmlns="http://www.w3.org/2000/svg" xmlns:xlink="http://www.w3.org/1999/xlink" x="0px" y="0px"
	 viewBox="0 0 24 24" style="enable-background:new 0 0 24 24;" xml:space="preserve">
<g>
	<path d="M22,14.5c-0.276,0-0.5,0.224-0.5,0.5c0,0.07,0.015,0.136,0.041,0.197l-2.544,1.09c-0.046-0.046-0.095-0.092-0.14-0.138
		c-0.193-0.197-0.511-0.2-0.707-0.006c-0.197,0.194-0.2,0.51-0.006,0.707c0.021,0.021,0.056,0.055,0.08,0.079
		c1.269-0.806,2.506-1.43,3.777-1.43c0.276,0,0.5,0.224,0.5,0.5s-0.224,0.5-0.5,0.5c-0.955,0-1.968,0.489-3.028,1.144
		C19.87,18.463,21.169,19.5,22,19.5c1.424,0,2-1.764,2-2.5C24,15.505,23.196,14.5,22,14.5z"/>
	<g>
		<path d="M23.034,14.811l-4.104-2.784c-4.435,0.245-12.648,3.212-15.338,4.808c1.078,1.11,3.881,3.665,6.867,3.665
			c2.466,0,4.514-1.387,6.494-2.728C18.679,16.604,20.309,15.5,22,15.5c0.073,0,0.141-0.017,0.203-0.045l0.269,0.183
			c0.229,0.157,0.539,0.096,0.694-0.133C23.322,15.277,23.262,14.966,23.034,14.811z"/>
		<path d="M4.093,15.439c-1.245-3.485-1.389-6.218-0.426-8.12c0.684-1.35,1.892-2.265,3.691-2.798
			c0.266-0.078,0.543,0.073,0.622,0.337c0.078,0.265-0.073,0.543-0.337,0.622C6.671,5.767,5.295,6.317,4.559,7.771
			c-0.826,1.631-0.674,4.068,0.444,7.237c3.584-1.621,9.481-3.535,13.237-3.927l-1.386-4.505c-0.312-1.011-1.051-1.819-2.028-2.215
			C13.858,3.967,12.322,3.5,10.5,3.5c-3.467,0-6.746,1.039-8.354,2.646C0.662,7.631,0,9.436,0,12c0,2.166,0.496,4.05,0.517,4.129
			C0.575,16.348,0.773,16.5,1,16.5h1.327C2.694,16.195,3.296,15.834,4.093,15.439z"/>
	</g>
</g>
<g>
</g>
<g>
</g>
<g>
</g>
<g>
</g>
<g>
</g>
<g>
</g>
<g>
</g>
<g>
</g>
<g>
</g>
<g>
</g>
<g>
</g>
<g>
</g>
<g>
</g>
<g>
</g>
<g>
</g>
</svg>
