<?xml version="1.0" encoding="iso-8859-1"?>
<!-- Generator: Adobe Illustrator 19.0.0, SVG Export Plug-In . SVG Version: 6.00 Build 0)  -->
<svg version="1.1" id="Layer_1" xmlns="http://www.w3.org/2000/svg" xmlns:xlink="http://www.w3.org/1999/xlink" x="0px" y="0px"
	 viewBox="0 0 24 24" style="enable-background:new 0 0 24 24;" xml:space="preserve">
<g>
	<g>
		<path d="M6.69,16.78C7.3,17.082,8.84,17.5,12,17.5s4.7-0.418,5.31-0.72c-0.585-0.116-1.998-0.28-5.31-0.28
			S7.275,16.664,6.69,16.78z"/>
		<path d="M22,12.5c-0.209,0-0.58,0.059-1.333,0.182C18.917,12.968,15.657,13.5,12,13.5s-6.917-0.532-8.667-0.818
			C2.58,12.559,2.209,12.5,2,12.5c-0.858,0-2,0.259-2,2.5c0,2.776,5.944,5.5,12,5.5s12-2.724,12-5.5C24,12.759,22.858,12.5,22,12.5z
			 M18.569,16.873C18.272,17.892,15.817,18.5,12,18.5s-6.272-0.608-6.569-1.627c-0.076-0.262-0.003-0.526,0.188-0.707
			C5.856,15.879,6.798,15.5,12,15.5s6.144,0.379,6.381,0.666C18.572,16.346,18.645,16.61,18.569,16.873z"/>
	</g>
	<path d="M12,3.5c-4.86,0-8,2.551-8,6.5v4.5C4,14.776,4.224,15,4.5,15S5,14.776,5,14.5h14c0,0.276,0.224,0.5,0.5,0.5
		s0.5-0.224,0.5-0.5V10C20,6.051,16.86,3.5,12,3.5z M17.951,12.215c-0.085,0.18-0.265,0.285-0.452,0.285
		c-0.072,0-0.146-0.016-0.215-0.049c-1.72-0.82-5.266-0.95-5.302-0.952c-0.001,0.001-3.55,0.132-5.268,0.952
		c-0.249,0.118-0.548,0.013-0.667-0.236c-0.119-0.249-0.013-0.548,0.236-0.667c1.906-0.91,5.544-1.043,5.698-1.048
		c0.188,0.005,3.827,0.139,5.732,1.048C17.964,11.667,18.07,11.966,17.951,12.215z"/>
</g>
<g>
</g>
<g>
</g>
<g>
</g>
<g>
</g>
<g>
</g>
<g>
</g>
<g>
</g>
<g>
</g>
<g>
</g>
<g>
</g>
<g>
</g>
<g>
</g>
<g>
</g>
<g>
</g>
<g>
</g>
</svg>
