<?xml version="1.0" encoding="iso-8859-1"?>
<!-- Generator: Adobe Illustrator 19.0.0, SVG Export Plug-In . SVG Version: 6.00 Build 0)  -->
<svg version="1.1" id="Layer_1" xmlns="http://www.w3.org/2000/svg" xmlns:xlink="http://www.w3.org/1999/xlink" x="0px" y="0px"
	 viewBox="0 0 24 24" style="enable-background:new 0 0 24 24;" xml:space="preserve">
<g>
	<g>
		<path d="M8.004,10.5c0,0.149-0.016,0.32-0.039,0.5h0.539c0.104,0,0.208,0.034,0.292,0.095C8.809,11.104,10.082,12,12.004,12
			s3.195-0.896,3.208-0.905C15.296,11.034,15.399,11,15.504,11h0.539c-0.023-0.18-0.039-0.351-0.039-0.5
			c0-0.93,0.272-1.409,0.588-1.963c0.501-0.88,1.019-1.79,0.395-4.164C16.929,4.153,16.731,4,16.504,4
			c-1.691,0-3.611,1.035-4.5,2.221C11.115,5.035,9.194,4,7.504,4C7.276,4,7.078,4.153,7.02,4.373
			C6.396,6.747,6.914,7.657,7.415,8.537C7.731,9.091,8.004,9.57,8.004,10.5z"/>
		<path d="M19.953,21.281c-0.034-0.069-2.87-5.905-3.711-9.281h-0.588c-0.427,0.268-1.763,1-3.65,1s-3.224-0.732-3.65-1H7.765
			c-0.841,3.377-3.682,9.224-3.743,9.365C4,21.443,3.908,21.859,4.271,22.338C5.107,23.441,7.708,24,12.004,24
			s6.897-0.559,7.732-1.662C20.099,21.859,20.007,21.443,19.953,21.281z"/>
	</g>
	<g>
		<path d="M8.504,5c-0.276,0-0.5-0.224-0.5-0.5v-4c0-0.276,0.224-0.5,0.5-0.5s0.5,0.224,0.5,0.5v4C9.004,4.776,8.78,5,8.504,5z"/>
	</g>
	<g>
		<path d="M15.504,5c-0.276,0-0.5-0.224-0.5-0.5v-4c0-0.276,0.224-0.5,0.5-0.5s0.5,0.224,0.5,0.5v4C16.004,4.776,15.78,5,15.504,5z"
			/>
	</g>
</g>
<g>
</g>
<g>
</g>
<g>
</g>
<g>
</g>
<g>
</g>
<g>
</g>
<g>
</g>
<g>
</g>
<g>
</g>
<g>
</g>
<g>
</g>
<g>
</g>
<g>
</g>
<g>
</g>
<g>
</g>
</svg>
