<?xml version="1.0" encoding="iso-8859-1"?>
<!-- Generator: Adobe Illustrator 19.0.0, SVG Export Plug-In . SVG Version: 6.00 Build 0)  -->
<svg version="1.1" id="Layer_1" xmlns="http://www.w3.org/2000/svg" xmlns:xlink="http://www.w3.org/1999/xlink" x="0px" y="0px"
	 viewBox="0 0 24 24" style="enable-background:new 0 0 24 24;" xml:space="preserve">
<g>
	<path d="M16.434,5c-0.085,0.679-0.243,1.43-0.415,2.232c-0.243,1.129-0.493,2.296-0.52,3.282C15.492,10.785,15.27,11,15,11
		c-0.005,0-0.009,0-0.014,0c-0.276-0.008-0.494-0.237-0.486-0.514c0.029-1.078,0.29-2.291,0.542-3.464
		C15.186,6.348,15.336,5.637,15.423,5H8.576c0.088,0.637,0.237,1.348,0.382,2.022C9.21,8.195,9.471,9.409,9.5,10.486
		C9.507,10.763,9.29,10.992,9.014,11C9.009,11,9.004,11,9,11c-0.27,0-0.493-0.215-0.5-0.486C8.474,9.528,8.223,8.361,7.98,7.232
		C7.809,6.43,7.651,5.679,7.566,5H1.382C1.108,6.328,0.5,9.556,0.5,12c0,3.058,0.962,11.213,1.003,11.559
		C1.533,23.811,1.747,24,2,24h9c0.26,0,0.477-0.199,0.498-0.458L12,17.521l0.502,6.021C12.523,23.801,12.74,24,13,24h9
		c0.253,0,0.467-0.189,0.497-0.441C22.538,23.213,23.5,15.058,23.5,12c0-2.444-0.608-5.672-0.882-7H16.434z"/>
	<path d="M7.501,4c0.012-0.528,0.112-0.981,0.352-1.335c0.243-0.358,0.601-0.58,1.063-0.658c0.271-0.046,0.53,0.137,0.577,0.41
		c0.046,0.272-0.137,0.53-0.41,0.577C8.839,3.035,8.74,3.14,8.681,3.226C8.563,3.4,8.515,3.674,8.506,4h6.987
		c-0.008-0.326-0.057-0.6-0.175-0.774c-0.059-0.086-0.158-0.191-0.402-0.233c-0.272-0.046-0.456-0.305-0.41-0.577
		c0.046-0.272,0.305-0.451,0.577-0.41c0.463,0.079,0.821,0.3,1.063,0.658c0.24,0.354,0.34,0.807,0.352,1.335H22.5V2.5
		C22.5,1.122,21.378,0,20,0H4C2.622,0,1.5,1.122,1.5,2.5V4H7.501z"/>
</g>
<g>
</g>
<g>
</g>
<g>
</g>
<g>
</g>
<g>
</g>
<g>
</g>
<g>
</g>
<g>
</g>
<g>
</g>
<g>
</g>
<g>
</g>
<g>
</g>
<g>
</g>
<g>
</g>
<g>
</g>
</svg>
