<?xml version="1.0" encoding="iso-8859-1"?>
<!-- Generator: Adobe Illustrator 19.0.0, SVG Export Plug-In . SVG Version: 6.00 Build 0)  -->
<svg version="1.1" id="Layer_1" xmlns="http://www.w3.org/2000/svg" xmlns:xlink="http://www.w3.org/1999/xlink" x="0px" y="0px"
	 viewBox="0 0 24 24" style="enable-background:new 0 0 24 24;" xml:space="preserve">
<g>
	<g>
		<path d="M16.581,15.524C16.823,15.484,17,15.275,17,15.03v-1.589c0-0.609,0.364-1.153,0.927-1.386
			c0.552-0.229,1.211-0.098,1.634,0.325l2.586,2.586c0.144,0.143,0.359,0.188,0.545,0.108c0.187-0.077,0.309-0.26,0.309-0.462V3.441
			c0-0.226-0.151-0.423-0.369-0.482L12,0.059v18.366C13.272,16.339,15.44,15.71,16.581,15.524z M8,11.441
			c0,0.133-0.053,0.26-0.146,0.354l-1,1c-0.098,0.097-0.226,0.146-0.354,0.146s-0.256-0.049-0.354-0.146L5.5,12.149l-0.646,0.646
			c-0.195,0.195-0.512,0.195-0.707,0l-1-1C3.053,11.701,3,11.574,3,11.441v-9.2L0.369,2.959C0.151,3.019,0,3.216,0,3.441v17
			c0,0.226,0.151,0.423,0.369,0.482l10.16,2.771c0.043,0.012,0.087,0.018,0.131,0.018c0.127,0,0.247-0.055,0.34-0.144V0.06L8,0.878
			V11.441z M9.354,18.295C9.256,18.392,9.128,18.441,9,18.441s-0.256-0.049-0.354-0.146L8,17.648v1.793c0,0.276-0.224,0.5-0.5,0.5
			S7,19.717,7,19.441v-1.793l-0.646,0.646c-0.195,0.195-0.512,0.195-0.707,0c-0.195-0.195-0.195-0.512,0-0.707l1.499-1.499
			c0.046-0.046,0.102-0.083,0.163-0.109c0.122-0.051,0.26-0.051,0.382,0c0.062,0.025,0.117,0.062,0.163,0.109l1.499,1.499
			C9.549,17.783,9.549,18.099,9.354,18.295z M23.854,18.087l-5-5c-0.143-0.143-0.356-0.186-0.545-0.108
			C18.122,13.056,18,13.239,18,13.441v2.974c-1.364-0.01-6,0.346-6,6.026c0,0.249,0.183,0.459,0.429,0.495
			c0.25,0.038,0.481-0.116,0.551-0.354c0.609-2.076,3.895-2.186,5.02-2.163v3.022c0,0.202,0.122,0.385,0.309,0.462
			c0.062,0.026,0.127,0.038,0.191,0.038c0.13,0,0.258-0.051,0.354-0.146l5-5C24.049,18.599,24.049,18.283,23.854,18.087z"/>
	</g>
</g>
</svg>
