<?xml version="1.0" encoding="iso-8859-1"?>
<!-- Generator: Adobe Illustrator 19.0.0, SVG Export Plug-In . SVG Version: 6.00 Build 0)  -->
<svg version="1.1" id="Layer_1" xmlns="http://www.w3.org/2000/svg" xmlns:xlink="http://www.w3.org/1999/xlink" x="0px" y="0px"
	 viewBox="0 0 24 24" style="enable-background:new 0 0 24 24;" xml:space="preserve">
<g>
	<g>
		<path d="M8,11.441c0,0.133-0.053,0.26-0.146,0.354l-1,1c-0.098,0.097-0.226,0.146-0.354,0.146s-0.256-0.049-0.354-0.146
			L5.5,12.149l-0.646,0.646c-0.195,0.195-0.512,0.195-0.707,0l-1-1C3.053,11.701,3,11.574,3,11.441v-9.2L0.369,2.959
			C0.151,3.018,0,3.215,0,3.441v17c0,0.226,0.151,0.423,0.369,0.482L11,23.823V0.059L8,0.877V11.441z M9.354,18.295
			C9.256,18.392,9.128,18.441,9,18.441s-0.256-0.049-0.354-0.146L8,17.648v1.793c0,0.276-0.224,0.5-0.5,0.5S7,19.717,7,19.441
			v-1.793l-0.646,0.646c-0.195,0.195-0.512,0.195-0.707,0c-0.195-0.195-0.195-0.512,0-0.707l1.499-1.499
			c0.046-0.046,0.102-0.083,0.163-0.109c0.122-0.051,0.26-0.051,0.382,0c0.062,0.025,0.117,0.062,0.163,0.109l1.499,1.499
			C9.549,17.783,9.549,18.099,9.354,18.295z M14.75,20.74c-0.284-0.164-0.51-0.421-0.635-0.725
			c-0.233-0.563-0.105-1.204,0.325-1.634l4-4c0.565-0.567,1.554-0.567,2.121,0l1.586,1.586c0.144,0.143,0.358,0.188,0.545,0.108
			c0.187-0.077,0.309-0.26,0.309-0.462V3.441c0-0.226-0.151-0.423-0.369-0.482L12,0.059v23.732l2.671-0.971
			C14.869,22.748,15,22.561,15,22.35v-1.177C15,20.994,14.905,20.829,14.75,20.74z M23.854,19.087l-4-4
			c-0.195-0.195-0.512-0.195-0.707,0l-4,4c-0.143,0.143-0.186,0.358-0.108,0.545c0.076,0.187,0.259,0.309,0.461,0.309H16v3.5
			c0,0.276,0.224,0.5,0.5,0.5h2c0.276,0,0.5-0.224,0.5-0.5v-2.5h1v2.5c0,0.276,0.224,0.5,0.5,0.5h2c0.276,0,0.5-0.224,0.5-0.5v-3.5
			h0.5c0.202,0,0.385-0.122,0.462-0.309C24.04,19.445,23.997,19.231,23.854,19.087z"/>
	</g>
</g>
</svg>
