<?xml version="1.0" encoding="iso-8859-1"?>
<!-- Generator: Adobe Illustrator 19.0.0, SVG Export Plug-In . SVG Version: 6.00 Build 0)  -->
<svg version="1.1" id="Layer_1" xmlns="http://www.w3.org/2000/svg" xmlns:xlink="http://www.w3.org/1999/xlink" x="0px" y="0px"
	 viewBox="0 0 24 24" style="enable-background:new 0 0 24 24;" xml:space="preserve">
<g>
	<g>
		<path d="M5.501,12.999c3.032,0,5.5-2.467,5.5-5.5c0-3.033-2.468-5.5-5.5-5.5c-3.032,0-5.5,2.467-5.5,5.5
			C0.001,10.532,2.469,12.999,5.501,12.999z M5.851,10.849c-0.09,0.1-0.22,0.15-0.35,0.15c-0.141,0-0.26-0.05-0.36-0.15
			c-0.09-0.09-0.14-0.22-0.14-0.35s0.05-0.26,0.14-0.35c0.19-0.19,0.521-0.19,0.71,0c0.09,0.09,0.15,0.22,0.15,0.35
			S5.951,10.759,5.851,10.849z M5.497,3.998c1.379,0,2.501,0.897,2.501,2C7.999,6.955,7.327,7.595,6,7.907L5.999,8.5
			c-0.001,0.276-0.225,0.499-0.5,0.499H5.498c-0.276,0-0.5-0.225-0.499-0.501l0.002-1c0-0.237,0.167-0.441,0.398-0.489l0.109-0.021
			c1.017-0.188,1.49-0.502,1.49-0.99c0-0.542-0.688-1-1.501-1c-0.783,0-1.457,0.425-1.501,0.946C3.974,6.22,3.713,6.427,3.456,6.4
			C3.181,6.377,2.977,6.135,3,5.86C3.09,4.798,4.163,3.998,5.497,3.998z M22.805,10.269L18.607,6.77
			c-0.596-0.497-1.352-0.771-2.128-0.771h-4.057c-0.145,0-0.283,0.063-0.378,0.173c-0.095,0.109-0.138,0.255-0.117,0.398
			c0.05,0.354,0.074,0.649,0.074,0.929c0,3.584-2.916,6.5-6.5,6.5c-1.296,0-2.549-0.383-3.625-1.107
			c-0.119-0.079-0.267-0.104-0.406-0.068c-0.139,0.036-0.256,0.131-0.32,0.26l-0.84,1.68c-0.202,0.404-0.309,0.857-0.309,1.31
			c0,1.614,1.313,2.927,2.927,2.927h0.123c0.245,1.692,1.691,3,3.449,3s3.204-1.308,3.449-3h4.101c0.245,1.692,1.691,3,3.449,3
			c1.762,0,3.209-1.313,3.45-3.01c0.543-0.025,1.028-0.329,1.273-0.82l0.974-1.947c0.525-1.051,0.803-2.227,0.803-3.4
			C24.001,11.832,23.565,10.901,22.805,10.269z M6.501,20.999c-1.378,0-2.5-1.121-2.5-2.5c0-1.379,1.122-2.5,2.5-2.5
			s2.5,1.121,2.5,2.5C9.001,19.878,7.879,20.999,6.501,20.999z M17.501,20.999c-1.378,0-2.5-1.121-2.5-2.5
			c0-1.379,1.122-2.5,2.5-2.5s2.5,1.121,2.5,2.5C20.001,19.878,18.879,20.999,17.501,20.999z M21.973,12.664
			c-0.07,0.201-0.259,0.335-0.472,0.335h-6c-0.154,0-0.299-0.071-0.394-0.192c-0.095-0.121-0.128-0.279-0.091-0.429l1-4
			c0.041-0.165,0.164-0.298,0.325-0.353c0.159-0.056,0.339-0.022,0.472,0.083l5,4C21.979,12.241,22.043,12.464,21.973,12.664z"/>
	</g>
</g>
</svg>
