<?xml version="1.0" encoding="iso-8859-1"?>
<!-- Generator: Adobe Illustrator 19.0.0, SVG Export Plug-In . SVG Version: 6.00 Build 0)  -->
<svg version="1.1" id="Layer_1" xmlns="http://www.w3.org/2000/svg" xmlns:xlink="http://www.w3.org/1999/xlink" x="0px" y="0px"
	 viewBox="0 0 24 24" style="enable-background:new 0 0 24 24;" xml:space="preserve">
<g>
	<path d="M22.156,16.019l-0.148-0.025C21.131,15.851,21,15.623,21,15.5c0-0.199,0.399-0.5,1.001-0.5
		c0.592,0,0.982,0.281,1.001,0.483c0.027,0.276,0.281,0.487,0.546,0.45c0.274-0.026,0.476-0.27,0.45-0.545
		c-0.076-0.792-0.934-1.389-1.997-1.389c-1.122,0-2.001,0.659-2.001,1.5c0,0.783,0.621,1.281,1.848,1.481l0.08-0.493l0.066,0.518
		C22.825,17.142,23,17.35,23,17.5c0,0.199-0.399,0.5-1.001,0.5c-0.592,0-0.982-0.282-1.001-0.484
		c-0.026-0.275-0.275-0.48-0.546-0.45c-0.274,0.026-0.476,0.27-0.45,0.545C20.078,18.403,20.936,19,21.999,19
		C23.121,19,24,18.341,24,17.5C24,16.718,23.38,16.22,22.156,16.019z"/>
	<path d="M17.155,16.019l-0.148-0.025c-0.877-0.143-1.008-0.371-1.008-0.494c0-0.199,0.399-0.5,1.001-0.5
		c0.592,0,0.982,0.282,1.001,0.483c0.027,0.276,0.278,0.487,0.546,0.45c0.274-0.026,0.476-0.27,0.45-0.545
		c-0.076-0.792-0.934-1.389-1.997-1.389c-1.122,0-2.001,0.659-2.001,1.5c0,0.783,0.621,1.281,1.848,1.481l0.08-0.493l0.067,0.518
		c0.83,0.137,1.005,0.345,1.005,0.495c0,0.199-0.399,0.5-1.001,0.5c-0.592,0-0.982-0.282-1.001-0.484
		c-0.027-0.275-0.273-0.48-0.546-0.45c-0.274,0.026-0.476,0.27-0.45,0.545C15.077,18.403,15.935,19,16.998,19
		c1.122,0,2.001-0.659,2.001-1.5C18.999,16.718,18.379,16.22,17.155,16.019z"/>
	<path d="M11.5,15h1c0.275,0,0.5,0.224,0.5,0.5s0.224,0.5,0.5,0.5s0.5-0.224,0.5-0.5c0-0.827-0.673-1.5-1.5-1.5h-1
		c-0.827,0-1.5,0.673-1.5,1.5v2c0,0.827,0.673,1.5,1.5,1.5h1c0.827,0,1.5-0.673,1.5-1.5c0-0.276-0.224-0.5-0.5-0.5
		S13,17.224,13,17.5S12.775,18,12.5,18h-1c-0.275,0-0.5-0.224-0.5-0.5v-2C11,15.224,11.225,15,11.5,15z"/>
	<path d="M17.5,20c-0.276,0-0.5,0.224-0.5,0.5V23H1V7h5.5C6.776,7,7,6.776,7,6.5V1h10v11.5c0,0.276,0.224,0.5,0.5,0.5
		s0.5-0.224,0.5-0.5v-12C18,0.224,17.776,0,17.5,0h-11C6.432,0,6.367,0.014,6.306,0.039c-0.019,0.008-0.033,0.023-0.05,0.034
		c-0.038,0.022-0.078,0.042-0.11,0.073l-6,6C0.123,6.169,0.11,6.2,0.092,6.227c-0.018,0.027-0.041,0.05-0.053,0.08
		C0.014,6.368,0,6.433,0,6.5v17C0,23.776,0.224,24,0.5,24h17c0.276,0,0.5-0.224,0.5-0.5v-3C18,20.224,17.776,20,17.5,20z M1.707,6
		L6,1.707V6H1.707z"/>
</g>
</svg>
