<?xml version="1.0" encoding="iso-8859-1"?>
<!-- Generator: Adobe Illustrator 19.0.0, SVG Export Plug-In . SVG Version: 6.00 Build 0)  -->
<svg version="1.1" id="Layer_1" xmlns="http://www.w3.org/2000/svg" xmlns:xlink="http://www.w3.org/1999/xlink" x="0px" y="0px"
	 viewBox="0 0 24 24" style="enable-background:new 0 0 24 24;" xml:space="preserve">
<g>
	<path d="M22.871,0.165C22.776,0.06,22.641,0,22.5,0h-21C1.358,0,1.224,0.06,1.129,0.165C1.034,0.269,0.988,0.409,1.002,0.55l2,20
		c0.019,0.195,0.152,0.362,0.339,0.424l9,3C12.392,23.992,12.446,24,12.499,24c0.06,0,0.119-0.011,0.177-0.032l8-3
		c0.178-0.066,0.303-0.229,0.322-0.418l2-20C23.012,0.41,22.966,0.269,22.871,0.165z M20.032,20.141l-7.543,2.829l-8.525-2.842
		L2.051,1h19.895L20.032,20.141z"/>
	<path d="M13.499,12H16.9l-0.84,4.619l-2.719,0.907c-0.262,0.087-0.403,0.37-0.316,0.632c0.07,0.21,0.265,0.342,0.474,0.342
		c0.052,0,0.105-0.008,0.159-0.025l3-1c0.173-0.058,0.301-0.205,0.333-0.385l1-5.5c0.027-0.146-0.013-0.296-0.108-0.41
		C17.788,11.066,17.647,11,17.499,11h-3.5V6h3.859l-0.344,1.379c-0.067,0.268,0.096,0.539,0.364,0.606
		c0.265,0.066,0.539-0.096,0.606-0.364l0.5-2c0.037-0.15,0.004-0.308-0.091-0.429C18.798,5.071,18.653,5,18.499,5h-5
		c-0.276,0-0.5,0.224-0.5,0.5v6C12.999,11.776,13.223,12,13.499,12z"/>
	<path d="M5.498,6h5.5v11.337l-2.569-0.734l-0.44-2.201c-0.054-0.27-0.313-0.447-0.588-0.392c-0.27,0.054-0.446,0.317-0.392,0.588
		l0.5,2.5c0.037,0.184,0.173,0.331,0.353,0.383l3.5,1c0.045,0.013,0.091,0.019,0.137,0.019c0.107,0,0.213-0.035,0.3-0.101
		c0.125-0.094,0.199-0.242,0.199-0.399V5.5c0-0.276-0.224-0.5-0.5-0.5h-6c-0.276,0-0.5,0.224-0.5,0.5S5.222,6,5.498,6z"/>
</g>
</svg>
