<?xml version="1.0" encoding="iso-8859-1"?>
<!-- Generator: Adobe Illustrator 19.0.0, SVG Export Plug-In . SVG Version: 6.00 Build 0)  -->
<svg version="1.1" id="Layer_1" xmlns="http://www.w3.org/2000/svg" xmlns:xlink="http://www.w3.org/1999/xlink" x="0px" y="0px"
	 viewBox="0 0 24 24" style="enable-background:new 0 0 24 24;" xml:space="preserve">
<g>
	<path d="M12.998,18c-0.591,0-0.981-0.282-1.001-0.484c-0.026-0.275-0.27-0.487-0.545-0.45c-0.275,0.026-0.476,0.27-0.45,0.545
		C11.078,18.403,11.936,19,12.999,19C14.121,19,15,18.341,15,17.5c0-0.782-0.62-1.28-1.844-1.481l-0.148-0.025
		C12.131,15.851,12,15.623,12,15.5c0-0.199,0.399-0.5,1.001-0.5c0.591,0,0.981,0.281,1.001,0.483c0.026,0.275,0.27,0.481,0.545,0.45
		c0.275-0.026,0.476-0.27,0.45-0.545c-0.076-0.792-0.934-1.389-1.997-1.389c-1.122,0-2.001,0.659-2.001,1.5
		c0,0.783,0.621,1.281,1.847,1.481l0.081-0.493l0.067,0.518c0.831,0.137,1.005,0.345,1.005,0.495C13.999,17.699,13.6,18,12.998,18z"
		/>
	<path d="M18.5,14h-1c-0.827,0-1.5,0.673-1.5,1.5v2c0,0.827,0.673,1.5,1.5,1.5h1c0.231,0,0.447-0.057,0.642-0.15l0.004,0.004
		C19.244,18.951,19.372,19,19.5,19s0.256-0.049,0.353-0.146c0.195-0.195,0.195-0.512,0-0.707l-0.004-0.004
		C19.943,17.948,20,17.731,20,17.5v-2C20,14.673,19.327,14,18.5,14z M18.853,17.147c-0.195-0.195-0.512-0.195-0.707,0
		s-0.195,0.512,0,0.707L18.292,18H17.5c-0.276,0-0.5-0.224-0.5-0.5v-2c0-0.276,0.224-0.5,0.5-0.5h1c0.276,0,0.5,0.224,0.5,0.5v1.794
		L18.853,17.147z"/>
	<path d="M23.5,18H22v-3.5c0-0.276-0.224-0.5-0.5-0.5S21,14.224,21,14.5v4c0,0.276,0.224,0.5,0.5,0.5h2c0.276,0,0.5-0.224,0.5-0.5
		S23.776,18,23.5,18z"/>
	<path d="M7.277,20.947C7.349,20.983,7.425,21,7.5,21c0.183,0,0.359-0.101,0.448-0.277l2-4c0.123-0.247,0.023-0.547-0.224-0.671
		c-0.247-0.123-0.546-0.023-0.671,0.224L8.5,17.383l-0.553-1.106c-0.124-0.247-0.425-0.347-0.671-0.224
		c-0.247,0.124-0.348,0.424-0.224,0.671l0.889,1.777l-0.888,1.775C6.93,20.523,7.03,20.823,7.277,20.947z"/>
	<path d="M5.5,19C5.776,19,6,18.776,6,18.5v-4c0-0.215-0.138-0.406-0.342-0.474C5.454,13.957,5.229,14.028,5.1,14.2L4,15.666
		L2.9,14.2c-0.129-0.172-0.352-0.243-0.558-0.174C2.138,14.094,2,14.285,2,14.5v4C2,18.776,2.224,19,2.5,19S3,18.776,3,18.5V16
		l0.6,0.8c0.189,0.252,0.612,0.252,0.8,0L5,16v2.5C5,18.776,5.224,19,5.5,19z"/>
	<path d="M17.5,20c-0.276,0-0.5,0.224-0.5,0.5V23H1V7h5.5C6.776,7,7,6.776,7,6.5V1h10v11.5c0,0.276,0.224,0.5,0.5,0.5
		s0.5-0.224,0.5-0.5v-12C18,0.224,17.776,0,17.5,0h-11C6.433,0,6.367,0.014,6.306,0.039c-0.019,0.008-0.033,0.023-0.05,0.034
		c-0.038,0.022-0.078,0.042-0.11,0.073l-6,6C0.123,6.169,0.11,6.2,0.092,6.227c-0.018,0.027-0.041,0.05-0.053,0.08
		C0.014,6.368,0,6.433,0,6.5v17C0,23.776,0.224,24,0.5,24h17c0.276,0,0.5-0.224,0.5-0.5v-3C18,20.224,17.776,20,17.5,20z M1.707,6
		L6,1.707V6H1.707z"/>
</g>
</svg>
