<?xml version="1.0" encoding="iso-8859-1"?>
<!-- Generator: Adobe Illustrator 19.0.0, SVG Export Plug-In . SVG Version: 6.00 Build 0)  -->
<svg version="1.1" id="Layer_1" xmlns="http://www.w3.org/2000/svg" xmlns:xlink="http://www.w3.org/1999/xlink" x="0px" y="0px"
	 viewBox="0 0 24 24" style="enable-background:new 0 0 24 24;" xml:space="preserve">
<g>
	<path d="M20.5,17c-0.276,0-0.5,0.224-0.5,0.5v3c0,0.827-0.673,1.5-1.5,1.5h-16C1.673,22,1,21.327,1,20.5V6h19v3.5
		c0,0.276,0.224,0.5,0.5,0.5S21,9.776,21,9.5v-6C21,2.122,19.878,1,18.5,1h-16C1.122,1,0,2.122,0,3.5v17C0,21.878,1.122,23,2.5,23
		h16c1.378,0,2.5-1.122,2.5-2.5v-3C21,17.224,20.776,17,20.5,17z M2.5,2h16C19.327,2,20,2.673,20,3.5V5H1V3.5C1,2.673,1.673,2,2.5,2
		z"/>
	<circle cx="2.5" cy="3.5" r="0.5"/>
	<circle cx="4.5" cy="3.5" r="0.5"/>
	<circle cx="6.5" cy="3.5" r="0.5"/>
	<path d="M12.998,15c-0.591,0-0.981-0.282-1.001-0.484c-0.026-0.275-0.269-0.486-0.545-0.45c-0.275,0.026-0.476,0.27-0.45,0.545
		C11.078,15.403,11.936,16,12.999,16C14.121,16,15,15.341,15,14.5c0-0.782-0.62-1.28-1.844-1.481l-0.148-0.025
		C12.131,12.851,12,12.623,12,12.5c0-0.199,0.399-0.5,1.001-0.5c0.591,0,0.981,0.281,1.001,0.483
		c0.026,0.274,0.263,0.482,0.545,0.45c0.275-0.026,0.476-0.27,0.45-0.545c-0.076-0.792-0.934-1.389-1.997-1.389
		c-1.122,0-2.001,0.659-2.001,1.5c0,0.783,0.621,1.281,1.847,1.481l0.081-0.493l0.067,0.518c0.831,0.137,1.005,0.345,1.005,0.495
		C13.999,14.699,13.6,15,12.998,15z"/>
	<path d="M20,12.5c0-0.827-0.673-1.5-1.5-1.5h-1c-0.827,0-1.5,0.673-1.5,1.5v2c0,0.827,0.673,1.5,1.5,1.5h1
		c0.231,0,0.447-0.057,0.642-0.15l0.004,0.004C19.244,15.951,19.372,16,19.5,16s0.256-0.049,0.353-0.146
		c0.195-0.195,0.195-0.512,0-0.707l-0.004-0.004C19.943,14.948,20,14.731,20,14.5V12.5z M18.853,14.147
		c-0.195-0.195-0.512-0.195-0.707,0s-0.195,0.512,0,0.707L18.292,15H17.5c-0.276,0-0.5-0.224-0.5-0.5v-2c0-0.276,0.224-0.5,0.5-0.5
		h1c0.276,0,0.5,0.224,0.5,0.5v1.794L18.853,14.147z"/>
	<path d="M23.5,15H22v-3.5c0-0.276-0.224-0.5-0.5-0.5S21,11.224,21,11.5v4c0,0.276,0.224,0.5,0.5,0.5h2c0.276,0,0.5-0.224,0.5-0.5
		S23.776,15,23.5,15z"/>
	<path d="M7.277,17.947C7.349,17.983,7.425,18,7.5,18c0.183,0,0.359-0.101,0.448-0.277l2-4c0.123-0.247,0.023-0.547-0.224-0.671
		c-0.247-0.123-0.547-0.024-0.671,0.224L8.5,14.382l-0.553-1.105c-0.124-0.248-0.423-0.347-0.671-0.224
		c-0.247,0.124-0.348,0.424-0.224,0.671l0.888,1.777l-0.888,1.775C6.93,17.523,7.03,17.823,7.277,17.947z"/>
	<path d="M5.5,16C5.776,16,6,15.776,6,15.5v-4c0-0.215-0.138-0.406-0.342-0.474C5.454,10.958,5.229,11.028,5.1,11.2L4,12.666
		L2.9,11.2c-0.129-0.173-0.353-0.242-0.558-0.174C2.138,11.094,2,11.285,2,11.5v4C2,15.776,2.224,16,2.5,16S3,15.776,3,15.5V13
		l0.6,0.8c0.189,0.252,0.612,0.252,0.8,0L5,13v2.5C5,15.776,5.224,16,5.5,16z"/>
</g>
</svg>
