<?xml version="1.0" encoding="iso-8859-1"?>
<!-- Generator: Adobe Illustrator 19.0.0, SVG Export Plug-In . SVG Version: 6.00 Build 0)  -->
<svg version="1.1" id="Layer_1" xmlns="http://www.w3.org/2000/svg" xmlns:xlink="http://www.w3.org/1999/xlink" x="0px" y="0px"
	 viewBox="0 0 24 24" style="enable-background:new 0 0 24 24;" xml:space="preserve">
<g>
	<path d="M17.5,0h-11C6.433,0,6.367,0.014,6.306,0.039c-0.019,0.008-0.033,0.023-0.05,0.034c-0.038,0.022-0.078,0.042-0.11,0.073
		l-6,6C0.123,6.169,0.11,6.2,0.092,6.227c-0.018,0.027-0.041,0.05-0.053,0.08C0.014,6.368,0,6.433,0,6.5v17
		C0,23.776,0.224,24,0.5,24h17c0.276,0,0.5-0.224,0.5-0.5v-3c0-0.276-0.224-0.5-0.5-0.5S17,20.224,17,20.5V23H1V7h5.5
		C6.776,7,7,6.776,7,6.5V1h10v11.5c0,0.276,0.224,0.5,0.5,0.5s0.5-0.224,0.5-0.5v-12C18,0.224,17.776,0,17.5,0z M1.707,6L6,1.707V6
		H1.707z"/>
	<path d="M9.015,14.38l-0.64,2.56L7.46,14.804c-0.158-0.368-0.762-0.368-0.92,0L5.625,16.94l-0.64-2.56
		c-0.066-0.269-0.343-0.432-0.606-0.364c-0.268,0.067-0.43,0.338-0.364,0.606l1,4c0.052,0.208,0.231,0.36,0.445,0.377
		c0.23,0.019,0.415-0.105,0.5-0.302L7,16.27l1.04,2.427C8.12,18.882,8.301,19,8.5,19c0.013,0,0.026,0,0.04-0.001
		c0.214-0.017,0.392-0.169,0.445-0.377l1-4c0.067-0.268-0.095-0.539-0.364-0.606C9.348,13.949,9.081,14.111,9.015,14.38z"/>
	<path d="M16.015,14.38l-0.64,2.56l-0.915-2.136c-0.158-0.368-0.762-0.368-0.92,0l-0.915,2.136l-0.64-2.56
		c-0.067-0.269-0.343-0.432-0.606-0.364c-0.268,0.067-0.43,0.338-0.364,0.606l1,4c0.052,0.208,0.231,0.36,0.445,0.377
		c0.232,0.019,0.415-0.105,0.5-0.302L14,16.27l1.04,2.427C15.12,18.882,15.301,19,15.5,19c0.013,0,0.026,0,0.04-0.001
		c0.214-0.017,0.392-0.169,0.445-0.377l1-4c0.067-0.268-0.095-0.539-0.364-0.606C16.348,13.949,16.081,14.111,16.015,14.38z"/>
	<path d="M23.621,14.016c-0.272-0.067-0.54,0.095-0.606,0.364l-0.64,2.56l-0.915-2.136c-0.158-0.368-0.762-0.368-0.92,0
		l-0.915,2.136l-0.64-2.56c-0.066-0.269-0.343-0.432-0.606-0.364c-0.268,0.067-0.43,0.338-0.364,0.606l1,4
		c0.052,0.208,0.231,0.36,0.445,0.377c0.233,0.019,0.415-0.105,0.5-0.302L21,16.27l1.04,2.427C22.12,18.882,22.301,19,22.5,19
		c0.013,0,0.026,0,0.04-0.001c0.214-0.017,0.392-0.169,0.445-0.377l1-4C24.052,14.354,23.89,14.083,23.621,14.016z"/>
</g>
</svg>
