<?xml version="1.0" encoding="iso-8859-1"?>
<!-- Generator: Adobe Illustrator 19.0.0, SVG Export Plug-In . SVG Version: 6.00 Build 0)  -->
<svg version="1.1" id="Layer_1" xmlns="http://www.w3.org/2000/svg" xmlns:xlink="http://www.w3.org/1999/xlink" x="0px" y="0px"
	 viewBox="0 0 24 24" style="enable-background:new 0 0 24 24;" xml:space="preserve">
<g>
	<g>
		<path d="M11.794,15.5H2.5C1.673,15.5,1,14.827,1,14V3c0-0.827,0.673-1.5,1.5-1.5h12.335c0.626,0,1.225,0.232,1.687,0.655
			l6.059,5.535C22.847,7.882,23,8.177,23,8.5s-0.153,0.619-0.465,0.849l-1.903,1.74l0.675,0.738l1.858-1.705
			C23.688,9.745,24,9.139,24,8.5c0-0.638-0.312-1.245-0.79-1.586l-6.014-5.497C16.55,0.826,15.711,0.5,14.835,0.5H2.5
			C1.122,0.5,0,1.622,0,3v11c0,1.378,1.122,2.5,2.5,2.5h9.294c0.276,0,0.5-0.224,0.5-0.5S12.07,15.5,11.794,15.5z M19,6.5
			c-1.103,0-2,0.897-2,2s0.897,2,2,2c1.103,0,2-0.897,2-2C21,7.397,20.103,6.5,19,6.5z M19,9.5c-0.551,0-1-0.449-1-1s0.449-1,1-1
			c0.551,0,1,0.449,1,1S19.551,9.5,19,9.5z M11.5,6.5C11.776,6.5,12,6.276,12,6s-0.224-0.5-0.5-0.5C11.224,5.5,11,5.724,11,6
			S11.224,6.5,11.5,6.5z M18.5,12.5c-3.033,0-5.5,2.467-5.5,5.5s2.467,5.5,5.5,5.5c3.033,0,5.5-2.467,5.5-5.5S21.533,12.5,18.5,12.5
			z M18.5,22.5c-2.481,0-4.5-2.019-4.5-4.5s2.019-4.5,4.5-4.5c2.481,0,4.5,2.019,4.5,4.5S20.981,22.5,18.5,22.5z M18.854,14.646
			c-0.022-0.022-0.051-0.033-0.076-0.05c-0.028-0.02-0.053-0.043-0.085-0.057c-0.123-0.051-0.261-0.051-0.384,0
			c-0.057,0.024-0.107,0.059-0.151,0.1c-0.003,0.003-0.008,0.004-0.011,0.007l0,0c0,0,0,0,0,0l-1.999,1.999
			c-0.195,0.195-0.195,0.512,0,0.707c0.195,0.195,0.512,0.195,0.707,0L18,16.207V21c0,0.276,0.224,0.5,0.5,0.5S19,21.276,19,21
			v-4.793l1.146,1.147c0.098,0.097,0.226,0.146,0.354,0.146s0.256-0.049,0.354-0.147c0.195-0.195,0.195-0.512,0-0.707L18.854,14.646
			z M4,10.923V13c0,0.276,0.224,0.5,0.5,0.5h2.077c0.133,0,0.26-0.053,0.353-0.146l3.35-3.35c0.155,0.024,0.304,0.035,0.451,0.035
			c1.803,0,3.269-1.467,3.269-3.27s-1.466-3.27-3.269-3.27s-3.27,1.466-3.27,3.269c0,0.147,0.012,0.296,0.035,0.451l-3.35,3.35
			C4.053,10.663,4,10.79,4,10.923z M5,11.13l3.389-3.39c0.122-0.122,0.173-0.297,0.134-0.465C8.482,7.092,8.461,6.926,8.461,6.769
			c0-1.251,1.019-2.269,2.27-2.269S13,5.518,13,6.768c0,1.252-1.018,2.27-2.269,2.27c-0.157,0-0.322-0.02-0.506-0.062
			C10.056,8.936,9.882,8.989,9.76,9.11L6.37,12.5H5V11.13z"/>
	</g>
</g>
</svg>
