<?xml version="1.0" encoding="iso-8859-1"?>
<!-- Generator: Adobe Illustrator 19.0.0, SVG Export Plug-In . SVG Version: 6.00 Build 0)  -->
<svg version="1.1" id="Layer_1" xmlns="http://www.w3.org/2000/svg" xmlns:xlink="http://www.w3.org/1999/xlink" x="0px" y="0px"
	 viewBox="0 0 24 24" style="enable-background:new 0 0 24 24;" xml:space="preserve">
<g>
	<g>
		<path d="M18,14c0.276,0,0.5-0.224,0.5-0.5V10h2v4.879c0,0.276,0.224,0.5,0.5,0.5s0.5-0.223,0.5-0.5V9.5C21.5,9.224,21.276,9,21,9
			h-3c-0.276,0-0.5,0.224-0.5,0.5v4C17.5,13.776,17.724,14,18,14z M13,21h2.38c0.276,0,0.5-0.224,0.5-0.5s-0.224-0.5-0.5-0.5H13.5
			v-8h2v2.055c0,0.276,0.224,0.5,0.5,0.5s0.5-0.224,0.5-0.5V11.5c0-0.276-0.224-0.5-0.5-0.5h-3c-0.276,0-0.5,0.224-0.5,0.5v9
			C12.5,20.776,12.724,21,13,21z M20.083,18.877c0.262-0.395,0.417-0.868,0.417-1.377c0-1.378-1.121-2.5-2.5-2.5
			c-1.379,0-2.5,1.122-2.5,2.5S16.621,20,18,20c0.509,0,0.981-0.154,1.376-0.416l1.27,1.27C20.744,20.951,20.872,21,21,21
			s0.256-0.049,0.353-0.146c0.195-0.195,0.195-0.512,0-0.707L20.083,18.877z M18,19c-0.827,0-1.5-0.673-1.5-1.5
			c0-0.827,0.673-1.5,1.5-1.5s1.5,0.673,1.5,1.5C19.5,18.327,18.827,19,18,19z M21,1H3C1.621,1,0.5,2.122,0.5,3.5v17
			C0.5,21.878,1.621,23,3,23h18c1.379,0,2.5-1.122,2.5-2.5v-17C23.5,2.122,22.379,1,21,1z M22.5,20.5c0,0.827-0.673,1.5-1.5,1.5H3
			c-0.827,0-1.5-0.673-1.5-1.5V6h21V20.5z M22.5,5h-21V3.5C1.5,2.673,2.173,2,3,2h18c0.827,0,1.5,0.673,1.5,1.5V5z M5,3
			C4.724,3,4.5,3.224,4.5,3.5C4.5,3.776,4.724,4,5,4s0.5-0.224,0.5-0.5C5.5,3.224,5.276,3,5,3z M3,3C2.724,3,2.5,3.224,2.5,3.5
			C2.5,3.776,2.724,4,3,4s0.5-0.224,0.5-0.5C3.5,3.224,3.276,3,3,3z M3,21h3c0.276,0,0.5-0.224,0.5-0.5v-4C6.5,16.224,6.276,16,6,16
			H3c-0.276,0-0.5,0.224-0.5,0.5v4C2.5,20.776,2.724,21,3,21z M3.5,17h2v3h-2V17z M8,21h3c0.276,0,0.5-0.224,0.5-0.5v-7
			c0-0.276-0.224-0.5-0.5-0.5H8c-0.276,0-0.5,0.224-0.5,0.5v7C7.5,20.776,7.724,21,8,21z M8.5,14h2v6h-2V14z M7,3
			C6.724,3,6.5,3.224,6.5,3.5C6.5,3.776,6.724,4,7,4s0.5-0.224,0.5-0.5C7.5,3.224,7.276,3,7,3z"/>
	</g>
</g>
</svg>
