<?xml version="1.0" encoding="iso-8859-1"?>
<!-- Generator: Adobe Illustrator 19.0.0, SVG Export Plug-In . SVG Version: 6.00 Build 0)  -->
<svg version="1.1" id="Layer_1" xmlns="http://www.w3.org/2000/svg" xmlns:xlink="http://www.w3.org/1999/xlink" x="0px" y="0px"
	 viewBox="0 0 24 24" style="enable-background:new 0 0 24 24;" xml:space="preserve">
<g>
	<g>
		<path d="M15.5,11.294c0.616-0.77,1-1.733,1-2.794C16.5,6.019,14.481,4,12,4S7.5,6.019,7.5,8.5S9.519,13,12,13
			c1.06,0,2.023-0.384,2.793-0.999l3.853,3.853C18.744,15.951,18.872,16,19,16s0.256-0.049,0.353-0.146
			c0.195-0.195,0.195-0.512,0-0.707L15.5,11.294z M12,12c-1.93,0-3.5-1.57-3.5-3.5S10.07,5,12,5s3.5,1.57,3.5,3.5S13.93,12,12,12z
			 M12,0C7.313,0,3.5,3.813,3.5,8.5c0,8.218,7.839,15.09,8.173,15.378C11.767,23.959,11.884,24,12,24
			c0.116,0,0.233-0.041,0.329-0.121c0.13-0.113,3.215-2.803,5.573-6.828c0.139-0.239,0.059-0.545-0.179-0.685
			c-0.241-0.139-0.545-0.06-0.685,0.179c-1.834,3.131-4.184,5.477-5.037,6.278c-1.482-1.396-7.5-7.48-7.5-14.323
			c0-4.136,3.364-7.5,7.5-7.5c4.136,0,7.5,3.364,7.5,7.5c0,1.37-0.245,2.805-0.726,4.264c-0.087,0.262,0.055,0.545,0.318,0.631
			c0.26,0.088,0.544-0.057,0.631-0.318c0.515-1.561,0.776-3.1,0.776-4.577C20.5,3.813,16.687,0,12,0z"/>
	</g>
</g>
</svg>
