<?xml version="1.0" encoding="iso-8859-1"?>
<!-- Generator: Adobe Illustrator 19.0.0, SVG Export Plug-In . SVG Version: 6.00 Build 0)  -->
<svg version="1.1" id="Layer_1" xmlns="http://www.w3.org/2000/svg" xmlns:xlink="http://www.w3.org/1999/xlink" x="0px" y="0px"
	 viewBox="0 0 24 24" style="enable-background:new 0 0 24 24;" xml:space="preserve">
<g>
	<g>
		<path d="M7.656,11.019l-0.148-0.025C6.631,10.851,6.5,10.623,6.5,10.5c0-0.199,0.399-0.5,1.001-0.5
			c0.591,0,0.981,0.281,1.001,0.483c0.026,0.275,0.268,0.48,0.545,0.45c0.275-0.026,0.476-0.27,0.45-0.545
			C9.422,9.596,8.563,8.999,7.5,8.999c-1.122,0-2.001,0.659-2.001,1.5c0,0.783,0.621,1.281,1.847,1.481l0.081-0.493l0.067,0.518
			C8.326,12.142,8.5,12.35,8.5,12.5C8.5,12.699,8.1,13,7.498,13c-0.591,0-0.981-0.282-1.001-0.484
			c-0.026-0.275-0.264-0.487-0.545-0.45c-0.275,0.026-0.476,0.27-0.45,0.545C5.578,13.403,6.437,14,7.5,14
			C8.622,14,9.5,13.341,9.5,12.5C9.5,11.718,8.88,11.22,7.656,11.019z M16.5,14c1.103,0,2-0.897,2-2v-1c0-1.103-0.897-2-2-2
			c-1.103,0-2,0.897-2,2v1C14.5,13.103,15.398,14,16.5,14z M15.5,11c0-0.551,0.449-1,1-1c0.551,0,1,0.449,1,1v1c0,0.551-0.449,1-1,1
			c-0.551,0-1-0.449-1-1V11z M10.5,9.5v4c0,0.276,0.224,0.5,0.5,0.5h2.5c0.276,0,0.5-0.224,0.5-0.5S13.776,13,13.5,13h-2v-1H13
			c0.276,0,0.5-0.224,0.5-0.5S13.276,11,13,11h-1.5v-1h2c0.276,0,0.5-0.224,0.5-0.5S13.776,9,13.5,9H11
			C10.724,9,10.5,9.224,10.5,9.5z M22.143,3.021l-10-3c-0.094-0.028-0.193-0.028-0.287,0l-10,3C1.646,3.084,1.5,3.279,1.5,3.5v11
			c0,4.422,6.743,8.355,10.352,9.478C11.901,23.993,11.951,24,12,24s0.1-0.007,0.147-0.022C15.758,22.854,22.5,18.922,22.5,14.5v-11
			C22.5,3.279,22.354,3.084,22.143,3.021z M21.5,14.5c0,3.511-5.563,7.203-9.5,8.476c-3.937-1.273-9.5-4.965-9.5-8.476V3.872
			l9.5-2.85l9.5,2.85V14.5z"/>
	</g>
</g>
</svg>
