<?xml version="1.0" encoding="iso-8859-1"?>
<!-- Generator: Adobe Illustrator 19.0.0, SVG Export Plug-In . SVG Version: 6.00 Build 0)  -->
<svg version="1.1" id="Layer_1" xmlns="http://www.w3.org/2000/svg" xmlns:xlink="http://www.w3.org/1999/xlink" x="0px" y="0px"
	 viewBox="0 0 24 24" style="enable-background:new 0 0 24 24;" xml:space="preserve">
<g>
	<g>
		<g>
			<path d="M7,21c-0.113,0-0.226-0.038-0.32-0.116c-0.212-0.177-0.241-0.492-0.064-0.705l2.5-3c0.177-0.212,0.491-0.24,0.705-0.064
				c0.212,0.177,0.241,0.492,0.064,0.705l-2.5,3C7.285,20.939,7.143,21,7,21z"/>
		</g>
		<g>
			<path d="M6.5,23C5.673,23,5,22.327,5,21.5S5.673,20,6.5,20S8,20.673,8,21.5S7.327,23,6.5,23z M6.5,21C6.224,21,6,21.224,6,21.5
				S6.224,22,6.5,22S7,21.776,7,21.5S6.776,21,6.5,21z"/>
		</g>
		<g>
			<path d="M11,21c-0.113,0-0.226-0.038-0.32-0.116c-0.212-0.177-0.241-0.492-0.064-0.705l2.5-3c0.177-0.212,0.492-0.24,0.705-0.064
				c0.212,0.177,0.241,0.492,0.064,0.705l-2.5,3C11.285,20.939,11.143,21,11,21z"/>
		</g>
		<g>
			<path d="M10.5,23C9.673,23,9,22.327,9,21.5S9.673,20,10.5,20s1.5,0.673,1.5,1.5S11.327,23,10.5,23z M10.5,21
				c-0.276,0-0.5,0.224-0.5,0.5s0.224,0.5,0.5,0.5s0.5-0.224,0.5-0.5S10.776,21,10.5,21z"/>
		</g>
		<g>
			<path d="M15,21c-0.113,0-0.226-0.038-0.32-0.116c-0.212-0.177-0.241-0.492-0.064-0.705l2.5-3c0.176-0.212,0.491-0.24,0.705-0.064
				c0.212,0.177,0.241,0.492,0.064,0.705l-2.5,3C15.285,20.939,15.143,21,15,21z"/>
		</g>
		<g>
			<path d="M14.5,23c-0.827,0-1.5-0.673-1.5-1.5s0.673-1.5,1.5-1.5s1.5,0.673,1.5,1.5S15.327,23,14.5,23z M14.5,21
				c-0.276,0-0.5,0.224-0.5,0.5s0.224,0.5,0.5,0.5s0.5-0.224,0.5-0.5S14.776,21,14.5,21z"/>
		</g>
	</g>
	<g>
		<path d="M22.5,12c-0.145,0-0.288-0.062-0.386-0.182c-0.176-0.213-0.146-0.528,0.068-0.704C22.748,10.648,23,9.688,23,8
			c0-3.309-2.691-6-6-6c-0.272,0-0.544,0.019-0.814,0.057C18.211,3.317,19.5,5.562,19.5,8c0,0.349-0.026,0.699-0.077,1.041
			c-0.041,0.273-0.295,0.46-0.569,0.42c-0.273-0.041-0.461-0.296-0.42-0.569C18.478,8.6,18.5,8.299,18.5,8
			c0-2.496-1.577-4.755-3.923-5.623c-0.196-0.072-0.327-0.26-0.327-0.469c0-0.209,0.13-0.396,0.327-0.469
			C15.366,1.148,16.181,1,17,1c3.86,0,7,3.14,7,7c0,2.042-0.354,3.204-1.182,3.886C22.725,11.962,22.612,12,22.5,12z"/>
	</g>
	<g>
		<path d="M18.5,20c-0.276,0-0.5-0.224-0.5-0.5s0.224-0.5,0.5-0.5c2.481,0,4.5-2.019,4.5-4.5S20.981,10,18.5,10
			c-0.436,0-0.893,0.081-1.396,0.246c-0.25,0.082-0.515-0.041-0.616-0.28C15.466,7.557,13.116,6,10.5,6
			c-3.267,0-6.037,2.444-6.443,5.685c-0.026,0.207-0.177,0.375-0.378,0.424C2.101,12.49,1,13.885,1,15.5C1,17.43,2.57,19,4.5,19
			C4.776,19,5,19.224,5,19.5S4.776,20,4.5,20C2.019,20,0,17.981,0,15.5c0-1.964,1.264-3.674,3.113-4.271C3.724,7.655,6.842,5,10.5,5
			c2.869,0,5.46,1.623,6.722,4.169C17.666,9.056,18.087,9,18.5,9c3.033,0,5.5,2.467,5.5,5.5S21.533,20,18.5,20z"/>
	</g>
</g>
<g>
</g>
<g>
</g>
<g>
</g>
<g>
</g>
<g>
</g>
<g>
</g>
<g>
</g>
<g>
</g>
<g>
</g>
<g>
</g>
<g>
</g>
<g>
</g>
<g>
</g>
<g>
</g>
<g>
</g>
</svg>
