<?xml version="1.0" encoding="iso-8859-1"?>
<!-- Generator: Adobe Illustrator 19.0.0, SVG Export Plug-In . SVG Version: 6.00 Build 0)  -->
<svg version="1.1" id="Layer_1" xmlns="http://www.w3.org/2000/svg" xmlns:xlink="http://www.w3.org/1999/xlink" x="0px" y="0px"
	 viewBox="0 0 24 24" style="enable-background:new 0 0 24 24;" xml:space="preserve">
<g>
	<g>
		<g>
			<path d="M7,19c-0.113,0-0.226-0.038-0.32-0.116c-0.212-0.177-0.241-0.492-0.064-0.705l2.5-3c0.177-0.212,0.492-0.241,0.705-0.064
				c0.212,0.177,0.241,0.492,0.064,0.705l-2.5,3C7.285,18.939,7.143,19,7,19z"/>
		</g>
		<g>
			<path d="M6.5,21C5.673,21,5,20.327,5,19.5S5.673,18,6.5,18S8,18.673,8,19.5S7.327,21,6.5,21z M6.5,19C6.224,19,6,19.224,6,19.5
				S6.224,20,6.5,20S7,19.776,7,19.5S6.776,19,6.5,19z"/>
		</g>
		<g>
			<path d="M11,19c-0.113,0-0.226-0.038-0.32-0.116c-0.212-0.177-0.241-0.492-0.064-0.705l2.5-3
				c0.176-0.212,0.491-0.241,0.705-0.064c0.212,0.177,0.241,0.492,0.064,0.705l-2.5,3C11.285,18.939,11.143,19,11,19z"/>
		</g>
		<g>
			<path d="M10.5,21C9.673,21,9,20.327,9,19.5S9.673,18,10.5,18s1.5,0.673,1.5,1.5S11.327,21,10.5,21z M10.5,19
				c-0.276,0-0.5,0.224-0.5,0.5s0.224,0.5,0.5,0.5s0.5-0.224,0.5-0.5S10.776,19,10.5,19z"/>
		</g>
		<g>
			<path d="M15,19c-0.113,0-0.226-0.038-0.32-0.116c-0.212-0.177-0.241-0.492-0.064-0.705l2.5-3
				c0.177-0.212,0.492-0.241,0.705-0.064c0.212,0.177,0.241,0.492,0.064,0.705l-2.5,3C15.285,18.939,15.143,19,15,19z"/>
		</g>
		<g>
			<path d="M14.5,21c-0.827,0-1.5-0.673-1.5-1.5s0.673-1.5,1.5-1.5s1.5,0.673,1.5,1.5S15.327,21,14.5,21z M14.5,19
				c-0.276,0-0.5,0.224-0.5,0.5s0.224,0.5,0.5,0.5s0.5-0.224,0.5-0.5S14.776,19,14.5,19z"/>
		</g>
	</g>
	<g>
		<path d="M18.5,18c-0.276,0-0.5-0.224-0.5-0.5s0.224-0.5,0.5-0.5c2.481,0,4.5-2.019,4.5-4.5S20.981,8,18.5,8
			c-0.436,0-0.893,0.081-1.396,0.246c-0.249,0.081-0.515-0.042-0.616-0.28C15.466,5.557,13.116,4,10.5,4
			C7.233,4,4.463,6.444,4.057,9.685C4.031,9.891,3.88,10.06,3.678,10.108C2.101,10.49,1,11.885,1,13.5C1,15.43,2.57,17,4.5,17
			C4.776,17,5,17.224,5,17.5S4.776,18,4.5,18C2.019,18,0,15.981,0,13.5c0-1.964,1.264-3.674,3.113-4.271C3.724,5.655,6.842,3,10.5,3
			c2.869,0,5.46,1.623,6.722,4.169C17.666,7.056,18.087,7,18.5,7c3.033,0,5.5,2.467,5.5,5.5S21.533,18,18.5,18z"/>
	</g>
</g>
<g>
</g>
<g>
</g>
<g>
</g>
<g>
</g>
<g>
</g>
<g>
</g>
<g>
</g>
<g>
</g>
<g>
</g>
<g>
</g>
<g>
</g>
<g>
</g>
<g>
</g>
<g>
</g>
<g>
</g>
</svg>
