<?xml version="1.0" encoding="iso-8859-1"?>
<!-- Generator: Adobe Illustrator 19.0.0, SVG Export Plug-In . SVG Version: 6.00 Build 0)  -->
<svg version="1.1" id="Layer_1" xmlns="http://www.w3.org/2000/svg" xmlns:xlink="http://www.w3.org/1999/xlink" x="0px" y="0px"
	 viewBox="0 0 24 24" style="enable-background:new 0 0 24 24;" xml:space="preserve">
<g>
	<g>
		<path d="M6.5,24c-0.075,0-0.151-0.017-0.223-0.053c-0.247-0.124-0.347-0.424-0.224-0.671l1-2c0.124-0.247,0.423-0.347,0.671-0.224
			c0.247,0.124,0.347,0.424,0.224,0.671l-1,2C6.859,23.899,6.683,24,6.5,24z"/>
	</g>
	<g>
		<path d="M9.5,24c-0.075,0-0.151-0.017-0.223-0.053c-0.247-0.124-0.347-0.424-0.224-0.671l1-2c0.124-0.247,0.424-0.347,0.671-0.224
			c0.247,0.124,0.347,0.424,0.224,0.671l-1,2C9.859,23.899,9.683,24,9.5,24z"/>
	</g>
	<g>
		<path d="M12.5,24c-0.075,0-0.151-0.017-0.223-0.053c-0.247-0.124-0.347-0.424-0.224-0.671l1-2
			c0.125-0.247,0.424-0.347,0.671-0.224c0.247,0.124,0.347,0.424,0.224,0.671l-1,2C12.859,23.899,12.683,24,12.5,24z"/>
	</g>
	<g>
		<path d="M15.5,24c-0.075,0-0.151-0.017-0.223-0.053c-0.247-0.124-0.347-0.424-0.224-0.671l1-2
			c0.124-0.247,0.424-0.347,0.671-0.224c0.247,0.124,0.347,0.424,0.224,0.671l-1,2C15.859,23.899,15.683,24,15.5,24z"/>
	</g>
	<g>
		<path d="M6.5,20c-0.075,0-0.151-0.017-0.223-0.053c-0.247-0.124-0.347-0.424-0.224-0.671l1-2c0.124-0.247,0.423-0.346,0.671-0.224
			c0.247,0.124,0.347,0.424,0.224,0.671l-1,2C6.859,19.899,6.683,20,6.5,20z"/>
	</g>
	<g>
		<path d="M9.5,20c-0.075,0-0.151-0.017-0.223-0.053c-0.247-0.124-0.347-0.424-0.224-0.671l1-2c0.124-0.247,0.424-0.346,0.671-0.224
			c0.247,0.124,0.347,0.424,0.224,0.671l-1,2C9.859,19.899,9.683,20,9.5,20z"/>
	</g>
	<g>
		<path d="M12.5,20c-0.075,0-0.151-0.017-0.223-0.053c-0.247-0.124-0.347-0.424-0.224-0.671l1-2
			c0.125-0.247,0.424-0.346,0.671-0.224c0.247,0.124,0.347,0.424,0.224,0.671l-1,2C12.859,19.899,12.683,20,12.5,20z"/>
	</g>
	<g>
		<path d="M15.5,20c-0.075,0-0.151-0.017-0.223-0.053c-0.247-0.124-0.347-0.424-0.224-0.671l1-2
			c0.124-0.247,0.424-0.346,0.671-0.224c0.247,0.124,0.347,0.424,0.224,0.671l-1,2C15.859,19.899,15.683,20,15.5,20z"/>
	</g>
	<g>
		<g>
			<g>
				<g>
					<path d="M20.5,10C20.224,10,20,9.776,20,9.5C20,6.467,17.533,4,14.5,4c-1.139,0-3.007,0.597-3.55,1.718
						c-0.12,0.249-0.419,0.352-0.668,0.231C10.033,5.83,9.93,5.53,10.05,5.282C10.856,3.62,13.207,3,14.5,3
						C18.084,3,21,5.916,21,9.5C21,9.776,20.776,10,20.5,10z"/>
				</g>
				<g>
					<path d="M14.5,2C14.224,2,14,1.776,14,1.5v-1C14,0.224,14.224,0,14.5,0S15,0.224,15,0.5v1C15,1.776,14.776,2,14.5,2z"/>
				</g>
				<g>
					<path d="M8.843,4.343c-0.128,0-0.256-0.049-0.354-0.146L7.783,3.49c-0.195-0.195-0.195-0.512,0-0.707s0.512-0.195,0.707,0
						L9.197,3.49c0.195,0.195,0.195,0.512,0,0.707C9.099,4.294,8.971,4.343,8.843,4.343z"/>
				</g>
				<g>
					<path d="M23.5,10h-1C22.224,10,22,9.776,22,9.5S22.224,9,22.5,9h1C23.776,9,24,9.224,24,9.5S23.776,10,23.5,10z"/>
				</g>
				<g>
					<path d="M20.157,4.343c-0.128,0-0.256-0.049-0.354-0.146c-0.195-0.195-0.195-0.512,0-0.707l0.707-0.707
						c0.195-0.195,0.512-0.195,0.707,0s0.195,0.512,0,0.707L20.51,4.197C20.413,4.294,20.285,4.343,20.157,4.343z"/>
				</g>
			</g>
		</g>
		<g>
			<path d="M18.5,20c-0.276,0-0.5-0.224-0.5-0.5s0.224-0.5,0.5-0.5c2.481,0,4.5-2.019,4.5-4.5S20.981,10,18.5,10
				c-0.436,0-0.893,0.081-1.396,0.246c-0.249,0.081-0.515-0.041-0.616-0.28C15.466,7.557,13.116,6,10.5,6
				c-3.267,0-6.037,2.444-6.443,5.685c-0.026,0.207-0.177,0.375-0.378,0.424C2.101,12.49,1,13.885,1,15.5C1,17.43,2.57,19,4.5,19
				C4.776,19,5,19.224,5,19.5S4.776,20,4.5,20C2.019,20,0,17.981,0,15.5c0-1.964,1.264-3.674,3.113-4.271
				C3.724,7.655,6.842,5,10.5,5c2.869,0,5.46,1.623,6.722,4.169C17.666,9.056,18.087,9,18.5,9c3.033,0,5.5,2.467,5.5,5.5
				S21.533,20,18.5,20z"/>
		</g>
	</g>
</g>
<g>
</g>
<g>
</g>
<g>
</g>
<g>
</g>
<g>
</g>
<g>
</g>
<g>
</g>
<g>
</g>
<g>
</g>
<g>
</g>
<g>
</g>
<g>
</g>
<g>
</g>
<g>
</g>
<g>
</g>
</svg>
