<?xml version="1.0" encoding="iso-8859-1"?>
<!-- Generator: Adobe Illustrator 19.0.0, SVG Export Plug-In . SVG Version: 6.00 Build 0)  -->
<svg version="1.1" id="Layer_1" xmlns="http://www.w3.org/2000/svg" xmlns:xlink="http://www.w3.org/1999/xlink" x="0px" y="0px"
	 viewBox="0 0 24 24" style="enable-background:new 0 0 24 24;" xml:space="preserve">
<g>
	<g>
		<path d="M5.5,21.5C5.224,21.5,5,21.276,5,21v-2c0-0.276,0.224-0.5,0.5-0.5S6,18.724,6,19v2C6,21.276,5.776,21.5,5.5,21.5z"/>
	</g>
	<g>
		<path d="M6.366,21c-0.085,0-0.171-0.021-0.25-0.067l-1.732-1c-0.239-0.138-0.321-0.444-0.183-0.683
			c0.138-0.239,0.443-0.322,0.683-0.183l1.732,1c0.239,0.138,0.321,0.444,0.183,0.683C6.707,20.91,6.539,21,6.366,21z"/>
	</g>
	<g>
		<path d="M4.634,21c-0.173,0-0.341-0.09-0.434-0.25c-0.138-0.239-0.056-0.545,0.183-0.683l1.732-1
			c0.237-0.139,0.544-0.056,0.683,0.183c0.138,0.239,0.056,0.545-0.183,0.683l-1.732,1C4.805,20.979,4.719,21,4.634,21z"/>
	</g>
	<g>
		<path d="M13.5,21.5c-0.276,0-0.5-0.224-0.5-0.5v-2c0-0.276,0.224-0.5,0.5-0.5S14,18.724,14,19v2C14,21.276,13.776,21.5,13.5,21.5z
			"/>
	</g>
	<g>
		<path d="M14.366,21c-0.085,0-0.171-0.021-0.25-0.067l-1.732-1c-0.239-0.138-0.321-0.444-0.183-0.683
			c0.138-0.239,0.444-0.322,0.683-0.183l1.732,1c0.239,0.138,0.321,0.444,0.183,0.683C14.707,20.91,14.539,21,14.366,21z"/>
	</g>
	<g>
		<path d="M12.634,21c-0.173,0-0.341-0.09-0.434-0.25c-0.138-0.239-0.056-0.545,0.183-0.683l1.732-1
			c0.238-0.139,0.544-0.056,0.683,0.183c0.138,0.239,0.056,0.545-0.183,0.683l-1.732,1C12.805,20.979,12.719,21,12.634,21z"/>
	</g>
	<g>
		<path d="M11.5,18.5c-0.276,0-0.5-0.224-0.5-0.5v-2c0-0.276,0.224-0.5,0.5-0.5S12,15.724,12,16v2C12,18.276,11.776,18.5,11.5,18.5z
			"/>
	</g>
	<g>
		<path d="M12.366,18c-0.085,0-0.171-0.021-0.25-0.067l-1.732-1c-0.239-0.138-0.321-0.444-0.183-0.683
			c0.138-0.239,0.444-0.321,0.683-0.183l1.732,1c0.239,0.138,0.321,0.444,0.183,0.683C12.707,17.91,12.539,18,12.366,18z"/>
	</g>
	<g>
		<path d="M10.634,18c-0.173,0-0.341-0.09-0.434-0.25c-0.138-0.239-0.056-0.545,0.183-0.683l1.732-1
			c0.238-0.138,0.544-0.056,0.683,0.183c0.138,0.239,0.056,0.545-0.183,0.683l-1.732,1C10.805,17.979,10.719,18,10.634,18z"/>
	</g>
	<g>
		<path d="M6.5,17.5c-0.075,0-0.151-0.017-0.223-0.053c-0.247-0.124-0.347-0.424-0.224-0.671l1-2
			c0.124-0.248,0.423-0.347,0.671-0.224c0.247,0.124,0.347,0.424,0.224,0.671l-1,2C6.859,17.399,6.683,17.5,6.5,17.5z"/>
	</g>
	<g>
		<path d="M8.5,21.5c-0.075,0-0.151-0.017-0.223-0.053c-0.247-0.124-0.347-0.424-0.224-0.671l1-2
			c0.124-0.248,0.423-0.346,0.671-0.224c0.247,0.124,0.347,0.424,0.224,0.671l-1,2C8.859,21.399,8.683,21.5,8.5,21.5z"/>
	</g>
	<g>
		<path d="M15.5,17.5c-0.075,0-0.151-0.017-0.223-0.053c-0.247-0.124-0.347-0.424-0.224-0.671l1-2
			c0.124-0.248,0.424-0.347,0.671-0.224c0.247,0.124,0.347,0.424,0.224,0.671l-1,2C15.859,17.399,15.683,17.5,15.5,17.5z"/>
	</g>
	<g>
		<path d="M18.5,17.5c-0.276,0-0.5-0.224-0.5-0.5s0.224-0.5,0.5-0.5c2.481,0,4.5-2.019,4.5-4.5s-2.019-4.5-4.5-4.5
			c-0.436,0-0.893,0.081-1.396,0.246c-0.248,0.081-0.515-0.042-0.616-0.28C15.466,5.057,13.116,3.5,10.5,3.5
			c-3.267,0-6.037,2.444-6.443,5.685C4.031,9.391,3.88,9.56,3.678,9.608C2.101,9.99,1,11.385,1,13c0,1.93,1.57,3.5,3.5,3.5
			C4.776,16.5,5,16.724,5,17s-0.224,0.5-0.5,0.5C2.019,17.5,0,15.481,0,13c0-1.964,1.264-3.674,3.113-4.271
			C3.724,5.155,6.842,2.5,10.5,2.5c2.869,0,5.46,1.623,6.722,4.169C17.666,6.556,18.087,6.5,18.5,6.5c3.033,0,5.5,2.467,5.5,5.5
			S21.533,17.5,18.5,17.5z"/>
	</g>
</g>
<g>
</g>
<g>
</g>
<g>
</g>
<g>
</g>
<g>
</g>
<g>
</g>
<g>
</g>
<g>
</g>
<g>
</g>
<g>
</g>
<g>
</g>
<g>
</g>
<g>
</g>
<g>
</g>
<g>
</g>
</svg>
