<?xml version="1.0" encoding="iso-8859-1"?>
<!-- Generator: Adobe Illustrator 19.0.0, SVG Export Plug-In . SVG Version: 6.00 Build 0)  -->
<svg version="1.1" id="Layer_1" xmlns="http://www.w3.org/2000/svg" xmlns:xlink="http://www.w3.org/1999/xlink" x="0px" y="0px"
	 viewBox="0 0 24 24" style="enable-background:new 0 0 24 24;" xml:space="preserve">
<g>
	<g>
		<path d="M5.5,2h-2C3.224,2,3,2.224,3,2.5v2C3,4.776,3.224,5,3.5,5h2C5.776,5,6,4.776,6,4.5v-2C6,2.224,5.776,2,5.5,2z M5,4H4V3h1
			V4z M19.5,0C17.019,0,15,2.019,15,4.5v7.683c0,0.276,0.224,0.5,0.5,0.5s0.5-0.224,0.5-0.5V4.5C16,2.57,17.57,1,19.5,1
			S23,2.57,23,4.5v4C23,8.776,23.224,9,23.5,9S24,8.776,24,8.5v-4C24,2.019,21.981,0,19.5,0z M9.5,2h-2C7.224,2,7,2.224,7,2.5v2
			C7,4.776,7.224,5,7.5,5h2C9.776,5,10,4.776,10,4.5v-2C10,2.224,9.776,2,9.5,2z M9,4H8V3h1V4z M12.866,22.515
			C12.263,22.837,11.635,23,11,23c-2.206,0-4-1.794-4-4v-0.025c3.351-0.257,6-3.059,6-6.475v-3c0-0.651-0.419-1.201-1-1.408V0.5
			C12,0.224,11.776,0,11.5,0h-10C1.224,0,1,0.224,1,0.5v7.592C0.419,8.299,0,8.849,0,9.5v3c0,3.415,2.649,6.218,6,6.475V19
			c0,2.757,2.243,5,5,5c0.801,0,1.587-0.203,2.337-0.602c0.244-0.131,0.336-0.433,0.206-0.677
			C13.413,22.478,13.111,22.386,12.866,22.515z M2,1h9v7H2V1z M1,12.5v-3C1,9.224,1.224,9,1.5,9h10C11.776,9,12,9.224,12,9.5v3
			c0,3.033-2.467,5.5-5.5,5.5S1,15.533,1,12.5z M20.853,16.147c-0.195-0.195-0.512-0.195-0.707,0L18.5,17.793l-1.646-1.646
			c-0.195-0.195-0.512-0.195-0.707,0c-0.195,0.195-0.195,0.512,0,0.707l1.646,1.646l-1.646,1.646c-0.195,0.195-0.195,0.512,0,0.707
			C16.244,20.951,16.372,21,16.5,21s0.256-0.049,0.353-0.146l1.646-1.646l1.646,1.646C20.244,20.951,20.372,21,20.5,21
			s0.256-0.049,0.353-0.146c0.195-0.195,0.195-0.512,0-0.707L19.207,18.5l1.646-1.646C21.048,16.659,21.048,16.342,20.853,16.147z
			 M18.5,13c-3.033,0-5.5,2.467-5.5,5.5s2.467,5.5,5.5,5.5s5.5-2.467,5.5-5.5S21.533,13,18.5,13z M18.5,23
			c-2.481,0-4.5-2.019-4.5-4.5s2.019-4.5,4.5-4.5s4.5,2.019,4.5,4.5S20.981,23,18.5,23z"/>
	</g>
</g>
</svg>
