<?xml version="1.0" encoding="iso-8859-1"?>
<!-- Generator: Adobe Illustrator 19.0.0, SVG Export Plug-In . SVG Version: 6.00 Build 0)  -->
<svg version="1.1" id="Layer_1" xmlns="http://www.w3.org/2000/svg" xmlns:xlink="http://www.w3.org/1999/xlink" x="0px" y="0px"
	 viewBox="0 0 24 24" style="enable-background:new 0 0 24 24;" xml:space="preserve">
<g>
	<g>
		<path d="M16.141,4.152c-0.195,0.195-0.195,0.512,0,0.707l1,1c0.098,0.097,0.226,0.146,0.354,0.146s0.256-0.049,0.353-0.147l1-1
			c0.195-0.195,0.195-0.512,0-0.707l-0.917-0.917c-0.02-0.032-0.045-0.064-0.073-0.092c-0.195-0.195-0.512-0.195-0.707,0
			L16.141,4.152z M17.495,4.212l0.293,0.293l-0.293,0.293l-0.293-0.293L17.495,4.212z M18.146,6.854l1,1
			C19.245,7.951,19.372,8,19.5,8s0.256-0.049,0.353-0.146l1-1c0.195-0.195,0.195-0.512,0-0.707l-1-1
			c-0.195-0.195-0.512-0.195-0.707,0l-1,1C17.951,6.342,17.951,6.659,18.146,6.854z M19.5,6.207L19.794,6.5L19.5,6.793L19.208,6.5
			L19.5,6.207z M23.854,6.147l-6-6c-0.195-0.195-0.512-0.195-0.707,0l-4.646,4.646l-0.647-0.647c-0.195-0.195-0.512-0.195-0.707,0
			L5.604,9.688c-1.007,1.007-1.561,2.345-1.561,3.768c0,1.423,0.554,2.762,1.561,3.768l0.233,0.233l-5.69,5.69
			c-0.195,0.195-0.195,0.512,0,0.707C0.245,23.951,0.372,24,0.5,24s0.256-0.049,0.353-0.146l5.69-5.69l0.232,0.232
			c1.039,1.039,2.404,1.558,3.768,1.558c1.364,0,2.728-0.519,3.768-1.557l5.543-5.543c0.195-0.195,0.195-0.512,0-0.707L19.208,11.5
			l4.646-4.646C24.048,6.659,24.048,6.342,23.854,6.147z M13.604,17.689c-1.687,1.688-4.433,1.687-6.121,0l-1.172-1.172
			c-0.818-0.818-1.268-1.905-1.268-3.061c0-1.157,0.451-2.244,1.268-3.061L11.5,5.206l0.642,0.642
			c0.002,0.002,0.002,0.004,0.004,0.006l6,6c0.001,0.001,0.002,0.001,0.003,0.002l0.644,0.644L13.604,17.689z M18.5,10.793
			L13.208,5.5L17.5,1.207L22.794,6.5L18.5,10.793z"/>
	</g>
</g>
</svg>
