<?xml version="1.0" encoding="iso-8859-1"?>
<!-- Generator: Adobe Illustrator 19.0.0, SVG Export Plug-In . SVG Version: 6.00 Build 0)  -->
<svg version="1.1" id="Layer_1" xmlns="http://www.w3.org/2000/svg" xmlns:xlink="http://www.w3.org/1999/xlink" x="0px" y="0px"
	 viewBox="0 0 30 30" style="enable-background:new 0 0 30 30;" xml:space="preserve">
<g>
	<g>
		<path d="M25.5,0H24v4.5C24,5.327,23.327,6,22.5,6C21.673,6,21,5.327,21,4.5S21.673,3,22.5,3c0.176,0,0.343,0.036,0.5,0.092V0h-4
			v4.5C19,5.327,18.327,6,17.5,6C16.673,6,16,5.327,16,4.5S16.673,3,17.5,3c0.176,0,0.343,0.036,0.5,0.092V0h-4v4.5
			C14,5.327,13.327,6,12.5,6C11.673,6,11,5.327,11,4.5S11.673,3,12.5,3c0.176,0,0.343,0.036,0.5,0.092V0H9v4.5
			C9,5.327,8.327,6,7.5,6C6.673,6,6,5.327,6,4.5S6.673,3,7.5,3C7.676,3,7.843,3.036,8,3.092V0H4.5C3.673,0,3,0.673,3,1.5v27
			C3,29.327,3.673,30,4.5,30h21c0.827,0,1.5-0.673,1.5-1.5v-27C27,0.673,26.327,0,25.5,0z M18.5,27h-7c-0.276,0-0.5-0.224-0.5-0.5
			s0.224-0.5,0.5-0.5h7c0.276,0,0.5,0.224,0.5,0.5S18.776,27,18.5,27z M20.5,24h-11C9.224,24,9,23.776,9,23.5S9.224,23,9.5,23h11
			c0.276,0,0.5,0.224,0.5,0.5S20.776,24,20.5,24z M21,21H9c-0.276,0-0.5-0.224-0.5-0.5c0-1.459,0.988-2.725,2.402-3.078l1.859-0.465
			l0.115-0.461c-0.457-0.511-0.78-1.164-0.909-1.837c-0.361-0.138-0.605-0.442-0.652-0.814l-0.13-1.044
			c-0.037-0.291,0.054-0.583,0.248-0.803c0.079-0.089,0.171-0.163,0.272-0.218c-0.036-0.318-0.076-0.725-0.076-0.932
			c0-1.048,0.31-2.25,2.69-2.323C15.141,8,15.996,8,16.373,8c1.253,0,1.875,0.549,2.176,1.009c0.626,0.956,0.235,1.614-0.054,1.921
			l-0.135,0.135l-0.036,0.733c0.091,0.055,0.175,0.124,0.247,0.206c0.19,0.218,0.279,0.509,0.243,0.797l-0.13,1.043
			c-0.045,0.361-0.276,0.659-0.59,0.803c-0.131,0.701-0.472,1.378-0.958,1.898l0.103,0.412l1.86,0.465
			c1.414,0.354,2.402,1.618,2.402,3.077C21.5,20.775,21.276,21,21,21z"/>
	</g>
</g>
</svg>
