<?xml version="1.0" encoding="iso-8859-1"?>
<!-- Generator: Adobe Illustrator 19.0.0, SVG Export Plug-In . SVG Version: 6.00 Build 0)  -->
<svg version="1.1" id="Layer_1" xmlns="http://www.w3.org/2000/svg" xmlns:xlink="http://www.w3.org/1999/xlink" x="0px" y="0px"
	 viewBox="0 0 30 30" style="enable-background:new 0 0 30 30;" xml:space="preserve">
<g>
	<g>
		<path d="M8.498,19c0.128,0,0.256-0.049,0.354-0.146c0.195-0.195,0.195-0.512,0-0.707l-3-3c-0.195-0.195-0.512-0.195-0.707,0
			c-0.195,0.195-0.195,0.512,0,0.707l3,3C8.242,18.951,8.37,19,8.498,19z M12.998,12.5c0-1.458-0.988-2.723-2.402-3.076L8.737,8.958
			L8.634,8.546C9.12,8.024,9.461,7.349,9.592,6.648c0.314-0.144,0.545-0.442,0.59-0.803L10.313,4.8
			c0.035-0.288-0.054-0.578-0.244-0.796C9.998,3.922,9.914,3.854,9.822,3.799l0.036-0.733L9.994,2.93
			c0.288-0.307,0.679-0.964,0.054-1.92C9.746,0.549,9.124,0,7.871,0C7.495,0,6.64,0,5.82,0.526C3.439,0.597,3.13,1.8,3.13,2.849
			c0,0.207,0.04,0.614,0.075,0.932C3.104,3.836,3.012,3.909,2.934,3.998C2.74,4.218,2.649,4.51,2.685,4.802l0.131,1.043
			c0.046,0.373,0.29,0.678,0.652,0.816c0.129,0.673,0.451,1.326,0.908,1.836L4.261,8.959L2.402,9.424C0.988,9.779,0,11.044,0,12.503
			c0,0.276,0.224,0.5,0.5,0.5h12C12.774,13,12.998,12.776,12.998,12.5z M23.144,15.146l-3,3c-0.195,0.195-0.195,0.512,0,0.707
			C20.242,18.951,20.37,19,20.498,19s0.256-0.049,0.354-0.146l3-3c0.195-0.195,0.195-0.512,0-0.707
			C23.657,14.953,23.34,14.951,23.144,15.146z M27.596,9.422l-1.859-0.465l-0.103-0.413c0.486-0.521,0.827-1.197,0.958-1.898
			c0.314-0.144,0.545-0.442,0.59-0.803l0.131-1.044c0.035-0.288-0.054-0.578-0.244-0.796c-0.071-0.082-0.155-0.151-0.247-0.206
			l0.036-0.733l0.136-0.136c0.288-0.307,0.679-0.964,0.054-1.92C26.746,0.549,26.124,0,24.871,0c-0.376,0-1.231,0-2.051,0.525
			c-2.381,0.072-2.69,1.275-2.69,2.323c0,0.207,0.04,0.614,0.075,0.932c-0.101,0.056-0.193,0.129-0.271,0.218
			c-0.194,0.219-0.285,0.512-0.249,0.804l0.131,1.043c0.046,0.373,0.29,0.678,0.652,0.816c0.129,0.673,0.451,1.326,0.908,1.836
			l-0.115,0.462l-1.859,0.465C17.988,9.777,17,11.042,17,12.501c0,0.276,0.224,0.5,0.5,0.5h12c0.276,0,0.5-0.225,0.5-0.501
			C29.998,11.042,29.01,9.776,27.596,9.422z M18.427,26.206l-2.038-0.509l-0.123-0.493c0.535-0.566,0.908-1.307,1.047-2.074
			c0.337-0.146,0.587-0.462,0.635-0.846l0.142-1.13c0.038-0.3-0.055-0.603-0.254-0.831c-0.08-0.092-0.175-0.168-0.278-0.228
			l0.04-0.835l0.157-0.158c0.305-0.324,0.716-1.018,0.054-2.029C17.488,16.583,16.825,16,15.486,16c-0.405,0-1.328,0-2.21,0.568
			c-2.553,0.074-2.885,1.357-2.885,2.475c0,0.229,0.046,0.686,0.084,1.033c-0.115,0.06-0.22,0.141-0.308,0.24
			c-0.202,0.229-0.297,0.534-0.259,0.837l0.142,1.13c0.049,0.395,0.312,0.718,0.701,0.858c0.137,0.737,0.49,1.454,0.994,2.008
			l-0.137,0.546L9.57,26.203C8.056,26.584,6.998,27.94,6.998,29.5c0,0.276,0.224,0.5,0.5,0.5h13c0.276,0,0.5-0.225,0.5-0.501
			C20.998,27.938,19.94,26.584,18.427,26.206z"/>
	</g>
</g>
</svg>
