<?xml version="1.0" encoding="iso-8859-1"?>
<!-- Generator: Adobe Illustrator 19.0.0, SVG Export Plug-In . SVG Version: 6.00 Build 0)  -->
<svg version="1.1" id="Layer_1" xmlns="http://www.w3.org/2000/svg" xmlns:xlink="http://www.w3.org/1999/xlink" x="0px" y="0px"
	 viewBox="0 0 30 30" style="enable-background:new 0 0 30 30;" xml:space="preserve">
<g>
	<g>
		<path d="M27.588,26.422l-1.86-0.465l-0.103-0.412c0.486-0.521,0.827-1.197,0.958-1.898c0.313-0.144,0.544-0.441,0.59-0.803
			l0.13-1.043c0.036-0.288-0.053-0.578-0.243-0.797c-0.072-0.082-0.155-0.151-0.247-0.206l0.036-0.733l0.135-0.135
			c0.289-0.308,0.68-0.966,0.054-1.922C26.737,17.548,26.115,17,24.863,17c-0.376,0-1.231,0-2.052,0.524
			c-2.38,0.073-2.69,1.275-2.69,2.323c0,0.207,0.04,0.614,0.076,0.932c-0.102,0.057-0.194,0.13-0.272,0.219
			c-0.194,0.22-0.284,0.512-0.248,0.802l0.13,1.045c0.047,0.372,0.291,0.677,0.652,0.814c0.129,0.673,0.452,1.326,0.909,1.837
			l-0.115,0.461l-1.859,0.465c-1.416,0.353-2.404,1.619-2.404,3.078c0,0.276,0.224,0.5,0.5,0.5h12c0.276,0,0.5-0.225,0.5-0.501
			C29.99,28.04,29.002,26.775,27.588,26.422z M19.151,25.452l0.237-0.06c0.14-0.035,0.258-0.13,0.323-0.258
			c0.022-0.042,0.027-0.089,0.036-0.135H11.49c-0.276,0-0.5-0.224-0.5-0.5v-8c0-0.276,0.224-0.5,0.5-0.5h12.5
			c0.067,0,0.13,0.014,0.188,0.038C24.461,16.009,24.71,16,24.863,16c0.202,0,0.389,0.017,0.569,0.037
			c0.144,0.023,0.284-0.028,0.391-0.122c0.106-0.096,0.167-0.231,0.167-0.374V15h3.51c0.276,0.012,0.51-0.22,0.51-0.5
			c0-0.181-0.096-0.34-0.24-0.428l-3.78-3.779V0.5c0-0.276-0.224-0.5-0.5-0.5h-5c-0.276,0-0.5,0.224-0.5,0.5v3.768l-3.57-3.676
			c-0.756-0.758-2.099-0.76-2.86,0.002L0.134,14.149c-0.142,0.144-0.184,0.357-0.106,0.544S0.288,15,0.49,15h3.5v14.5
			c0,0.276,0.224,0.5,0.5,0.5h11c0.276,0,0.5-0.224,0.5-0.5C15.99,27.581,17.289,25.917,19.151,25.452z"/>
	</g>
</g>
</svg>
