<?xml version="1.0" encoding="iso-8859-1"?>
<!-- Generator: Adobe Illustrator 19.0.0, SVG Export Plug-In . SVG Version: 6.00 Build 0)  -->
<svg version="1.1" id="Layer_1" xmlns="http://www.w3.org/2000/svg" xmlns:xlink="http://www.w3.org/1999/xlink" x="0px" y="0px"
	 viewBox="0 0 30 30" style="enable-background:new 0 0 30 30;" xml:space="preserve">
<g>
	<g>
		<path d="M27.5,4h-25C1.122,4,0,5.122,0,6.5V7h30V6.5C30,5.122,28.878,4,27.5,4z M0,23.5C0,24.879,1.122,26,2.5,26h25
			c1.378,0,2.5-1.121,2.5-2.5V8H0V23.5z M26.437,21.031h-4c-0.276,0-0.5-0.224-0.5-0.5s0.224-0.5,0.5-0.5h4
			c0.276,0,0.5,0.224,0.5,0.5S26.714,21.031,26.437,21.031z M24.5,12h2c0.276,0,0.5,0.224,0.5,0.5S26.776,13,26.5,13h-2
			c-0.276,0-0.5-0.224-0.5-0.5S24.224,12,24.5,12z M18.5,12h4c0.276,0,0.5,0.224,0.5,0.5S22.776,13,22.5,13h-4
			c-0.276,0-0.5-0.224-0.5-0.5S18.224,12,18.5,12z M18.5,16h8c0.276,0,0.5,0.224,0.5,0.5S26.776,17,26.5,17h-8
			c-0.276,0-0.5-0.224-0.5-0.5S18.224,16,18.5,16z M18.5,20h2c0.276,0,0.5,0.224,0.5,0.5S20.776,21,20.5,21h-2
			c-0.276,0-0.5-0.224-0.5-0.5S18.224,20,18.5,20z M5.402,19.422l1.859-0.465l0.018-0.073c-1.266-0.246-1.919-0.632-1.95-0.65
			c-0.143-0.086-0.233-0.237-0.242-0.403c-0.008-0.166,0.066-0.325,0.199-0.425c0,0,0.844-0.738,0.844-3.253
			c0-3.107,2.314-4.152,3.37-4.152c0.758,0,1.106,0.156,1.506,0.522h0.06c1.197,0,1.804,1.221,1.804,3.63
			c0,2.517,0.845,3.253,0.854,3.261c0.125,0.104,0.196,0.267,0.183,0.428c-0.013,0.162-0.099,0.312-0.239,0.395
			c-0.031,0.019-0.69,0.401-1.948,0.646l0.019,0.075l1.86,0.465C15.012,19.775,16,21.04,16,22.499C16,22.775,15.776,23,15.5,23h-12
			C3.224,23,3,22.776,3,22.5C3,21.041,3.988,19.775,5.402,19.422z"/>
	</g>
</g>
</svg>
