<?xml version="1.0" encoding="iso-8859-1"?>
<!-- Generator: Adobe Illustrator 19.0.0, SVG Export Plug-In . SVG Version: 6.00 Build 0)  -->
<svg version="1.1" id="Layer_1" xmlns="http://www.w3.org/2000/svg" xmlns:xlink="http://www.w3.org/1999/xlink" x="0px" y="0px"
	 viewBox="0 0 30 30" style="enable-background:new 0 0 30 30;" xml:space="preserve">
<g>
	<g>
		<path d="M27.272,16.99l-2.206-0.554l-0.143-0.575c0.581-0.61,0.985-1.416,1.131-2.249c0.358-0.149,0.625-0.482,0.676-0.888
			l0.151-1.217c0.039-0.313-0.057-0.628-0.264-0.866c-0.088-0.101-0.192-0.184-0.308-0.246l0.045-0.94l0.178-0.179
			c0.318-0.34,0.749-1.07,0.054-2.136C26.247,6.62,25.545,6,24.126,6c-0.433,0-1.419,0-2.358,0.612
			c-1.332,0.037-2.206,0.389-2.669,1.073c-0.024,0.036-0.043,0.074-0.058,0.114c-0.055,0.157-0.128,0.31-0.208,0.461
			c-0.02,0.037-0.034,0.076-0.044,0.117C18.729,8.629,18.7,8.911,18.7,9.24c0,0.251,0.052,0.76,0.094,1.136
			c-0.239,0.12-0.432,0.327-0.536,0.591c-0.037,0.094-0.044,0.198-0.021,0.296c0.071,0.306,0.09,0.58,0.047,0.922
			c-0.005,0.042-0.005,0.084,0,0.125l0.052,0.414c0.051,0.417,0.332,0.757,0.748,0.9c0.143,0.801,0.526,1.581,1.073,2.181L20,16.436
			l-2.205,0.554c-0.168,0.042-0.328,0.101-0.485,0.165c-0.037,0.015-0.071,0.034-0.103,0.057l-1.204,0.867
			c-0.158,0.114-0.235,0.309-0.199,0.5c0.037,0.191,0.181,0.344,0.37,0.391l2.147,0.537c0.958,0.24,1.828,0.7,2.584,1.368
			C20.998,20.956,21.115,21,21.237,21H29.5c0.276,0,0.5-0.225,0.5-0.501C30,18.836,28.878,17.394,27.272,16.99z M18.08,20.479
			l-3.472-0.868l-0.285-1.142c0.927-0.925,1.562-2.188,1.757-3.485c0.522-0.158,0.923-0.612,0.994-1.178l0.229-1.826
			c0.05-0.398-0.073-0.8-0.337-1.102c-0.147-0.169-0.332-0.299-0.535-0.381l0.082-1.671l0.33-0.331
			c0.525-0.558,0.96-1.515,0.054-2.899C16.204,4.536,15.028,4,13.402,4c-0.638,0-2.104,0-3.475,0.916
			C6.01,5,5.478,6.828,5.478,8.609c0,0.403,0.096,1.298,0.161,1.859c-0.229,0.079-0.436,0.216-0.599,0.4
			c-0.268,0.304-0.394,0.708-0.343,1.111l0.229,1.826c0.076,0.604,0.528,1.081,1.103,1.206c0.195,1.246,0.797,2.466,1.669,3.375
			l-0.306,1.224L3.92,20.477C1.612,21.055,0,23.12,0,25.5C0,25.776,0.224,26,0.5,26h21c0.276,0,0.5-0.226,0.5-0.502
			C22,23.12,20.388,21.055,18.08,20.479z"/>
	</g>
</g>
</svg>
