<?xml version="1.0" encoding="iso-8859-1"?>
<!-- Generator: Adobe Illustrator 19.0.0, SVG Export Plug-In . SVG Version: 6.00 Build 0)  -->
<svg version="1.1" id="Layer_1" xmlns="http://www.w3.org/2000/svg" xmlns:xlink="http://www.w3.org/1999/xlink" x="0px" y="0px"
	 viewBox="0 0 30 30" style="enable-background:new 0 0 30 30;" xml:space="preserve">
<g>
	<g>
		<path d="M26.098,17.422l-1.859-0.465l-0.103-0.412c0.486-0.521,0.827-1.197,0.958-1.897c0.314-0.145,0.545-0.442,0.59-0.803
			l0.131-1.045c0.035-0.288-0.054-0.578-0.244-0.796c-0.071-0.082-0.155-0.151-0.247-0.206l0.036-0.732l0.137-0.137
			c0.287-0.307,0.678-0.965,0.053-1.921C25.248,8.548,24.625,8,23.373,8c-0.376,0-1.23,0-2.051,0.524
			c-2.38,0.073-2.69,1.275-2.69,2.323c0,0.207,0.04,0.614,0.075,0.932c-0.101,0.056-0.193,0.129-0.271,0.218
			c-0.194,0.219-0.285,0.511-0.249,0.804l0.131,1.043c0.046,0.372,0.29,0.678,0.652,0.816c0.129,0.673,0.451,1.326,0.908,1.836
			l-0.115,0.461l-1.859,0.465C16.488,17.775,15.5,19.041,15.5,20.5c0,0.276,0.224,0.5,0.5,0.5h12c0.276,0,0.5-0.225,0.5-0.501
			C28.5,19.04,27.512,17.775,26.098,17.422z M22,22c-0.276,0-0.5,0.224-0.5,0.5V23h-19V3.021C2.5,1.907,3.397,1,4.5,1h15
			c1.103,0,2,0.907,2,2.021v2.522c0,0.276,0.224,0.5,0.5,0.5s0.5-0.224,0.5-0.5V3.021C22.5,1.355,21.154,0,19.5,0h-15
			c-1.654,0-3,1.355-3,3.021V27.5C1.5,28.879,2.621,30,4,30h16c1.379,0,2.5-1.121,2.5-2.5v-5C22.5,22.224,22.276,22,22,22z M14,27
			h-4c-0.276,0-0.5-0.224-0.5-0.5S9.724,26,10,26h4c0.276,0,0.5,0.224,0.5,0.5S14.276,27,14,27z M4,3.5c0,0.552,0.448,1,1,1
			c0.552,0,1-0.448,1-1s-0.448-1-1-1C4.448,2.5,4,2.948,4,3.5z"/>
	</g>
</g>
</svg>
