<?xml version="1.0" encoding="iso-8859-1"?>
<!-- Generator: Adobe Illustrator 19.0.0, SVG Export Plug-In . SVG Version: 6.00 Build 0)  -->
<svg version="1.1" id="Layer_1" xmlns="http://www.w3.org/2000/svg" xmlns:xlink="http://www.w3.org/1999/xlink" x="0px" y="0px"
	 viewBox="0 0 30 30" style="enable-background:new 0 0 30 30;" xml:space="preserve">
<g>
	<g>
		<path d="M10.159,10.895C9.968,9.245,8.651,8,7.096,8H3.905c-1.556,0-2.872,1.245-3.063,2.896L0.014,18.07
			c-0.064,0.564,0.109,1.124,0.478,1.537c0.342,0.383,0.805,0.594,1.303,0.594l0.708,9.337C2.523,29.799,2.74,30,3.002,30h5
			c0.262,0,0.479-0.202,0.499-0.463l0.697-9.337h0.011c0.498,0,0.961-0.211,1.303-0.594c0.368-0.413,0.542-0.973,0.478-1.537
			L10.159,10.895z M19,5h2.5C21.776,5,22,4.776,22,4.5S21.776,4,21.5,4H19c-1.654,0-3,1.321-3,2.944V15h-3.5
			c-0.276,0-0.5,0.224-0.5,0.5s0.224,0.5,0.5,0.5H16v8.056C16,25.68,17.346,27,19,27h2.5c0.276,0,0.5-0.224,0.5-0.5
			S21.776,26,21.5,26H19c-1.103,0-2-0.872-2-1.944V16h4.5c0.276,0,0.5-0.224,0.5-0.5S21.776,15,21.5,15H17V6.943
			C17,5.872,17.897,5,19,5z M5.5,6c1.657,0,3-1.343,3-3s-1.343-3-3-3c-1.657,0-3,1.343-3,3S3.843,6,5.5,6z M28.5,12h-3
			c-0.827,0-1.5,0.673-1.5,1.5v3c0,0.827,0.673,1.5,1.5,1.5h3c0.827,0,1.5-0.673,1.5-1.5v-3C30,12.672,29.327,12,28.5,12z M28.5,24
			h-3c-0.827,0-1.5,0.673-1.5,1.5v3c0,0.827,0.673,1.5,1.5,1.5h3c0.827,0,1.5-0.673,1.5-1.5v-3C30,24.672,29.327,24,28.5,24z
			 M28.5,1h-3C24.673,1,24,1.672,24,2.5v3C24,6.326,24.673,7,25.5,7h3C29.327,7,30,6.326,30,5.5v-3C30,1.672,29.327,1,28.5,1z"/>
	</g>
</g>
</svg>
