<?xml version="1.0" encoding="iso-8859-1"?>
<!-- Generator: Adobe Illustrator 19.2.1, SVG Export Plug-In . SVG Version: 6.00 Build 0)  -->
<svg version="1.1" id="Layer_1" xmlns="http://www.w3.org/2000/svg" xmlns:xlink="http://www.w3.org/1999/xlink" x="0px" y="0px"
	 viewBox="0 0 24 24" style="enable-background:new 0 0 24 24;" xml:space="preserve">
<g>
	<g>
		<path d="M19.248,19.791c-0.479,0.279-1.024,0.278-1.502-0.003c-0.155-0.091-0.347-0.091-0.502-0.002
			c-0.751,0.432-1.579,0.166-1.992-0.454l-0.336-0.504c-0.186-0.278-0.646-0.278-0.832,0l-0.336,0.504
			c-0.442,0.664-1.411,0.863-2.08,0.416c-0.136-0.09-0.256-0.209-0.37-0.362c-0.079-0.107-0.198-0.179-0.331-0.198
			c-0.132-0.02-0.266,0.015-0.373,0.096C9.973,19.753,9.249,20,8.499,20h-1c-0.827,0-1.5-0.673-1.5-1.5v-6
			c0-0.827,0.673-1.5,1.5-1.5h1c0.75,0,1.474,0.248,2.095,0.716c0.107,0.081,0.242,0.116,0.373,0.096
			c0.132-0.019,0.251-0.09,0.331-0.198c0.113-0.153,0.234-0.272,0.37-0.363c0.669-0.446,1.637-0.248,2.08,0.417l0.336,0.504
			c0.186,0.278,0.646,0.278,0.832,0l0.336-0.504c0.422-0.634,1.332-0.844,1.997-0.458c0.155,0.09,0.348,0.09,0.503-0.001
			C17.99,11.07,18.242,11,18.501,11h1c0.276,0,0.5-0.224,0.5-0.5v-10c0-0.276-0.224-0.5-0.5-0.5h-11C8.479,0,8.46,0.01,8.438,0.013
			C8.415,0.016,8.395,0.02,8.372,0.026c-0.085,0.023-0.165,0.06-0.225,0.121L2.148,6.146C2.087,6.207,2.05,6.287,2.027,6.372
			c-0.006,0.022-0.01,0.042-0.013,0.064C2.011,6.458,2.001,6.477,2.001,6.5v17c0,0.276,0.224,0.5,0.5,0.5h17
			c0.276,0,0.5-0.224,0.5-0.5v-3.277c0-0.179-0.096-0.344-0.25-0.434C19.592,19.7,19.402,19.7,19.248,19.791z M7.999,1.707V6H3.706
			L7.999,1.707z M8.499,12h-1c-0.276,0-0.5,0.224-0.5,0.5v6c0,0.276,0.224,0.5,0.5,0.5h1c1.378,0,2.5-1.122,2.5-2.5v-2
			C10.999,13.122,9.877,12,8.499,12z M9.999,16.5c0,0.827-0.673,1.5-1.5,1.5h-0.5v-5h0.5c0.827,0,1.5,0.673,1.5,1.5V16.5z
			 M12.222,18.916C12.307,18.973,12.404,19,12.499,19c0.162,0,0.32-0.078,0.417-0.223l1.584-2.376l1.584,2.376
			C16.18,18.922,16.339,19,16.501,19c0.095,0,0.191-0.027,0.277-0.084c0.23-0.153,0.292-0.463,0.139-0.693L15.102,15.5l1.815-2.723
			c0.151-0.23,0.089-0.54-0.141-0.693c-0.231-0.154-0.541-0.091-0.693,0.139l-1.584,2.376l-1.584-2.376
			c-0.153-0.23-0.463-0.292-0.693-0.139c-0.23,0.153-0.292,0.463-0.139,0.693l1.815,2.723l-1.815,2.723
			C11.93,18.453,11.992,18.763,12.222,18.916z M21.499,12h-3c-0.276,0-0.5,0.224-0.5,0.5v6c0,0.276,0.224,0.5,0.5,0.5
			s0.5-0.224,0.5-0.5V16h1.5c0.276,0,0.5-0.224,0.5-0.5s-0.224-0.5-0.5-0.5h-1.5v-2h2.5c0.276,0,0.5-0.224,0.5-0.5
			S21.775,12,21.499,12z"/>
	</g>
</g>
</svg>
