<?xml version="1.0" encoding="iso-8859-1"?>
<!-- Generator: Adobe Illustrator 19.2.1, SVG Export Plug-In . SVG Version: 6.00 Build 0)  -->
<svg version="1.1" id="Layer_1" xmlns="http://www.w3.org/2000/svg" xmlns:xlink="http://www.w3.org/1999/xlink" x="0px" y="0px"
	 viewBox="0 0 24 24" style="enable-background:new 0 0 24 24;" xml:space="preserve">
<g>
	<g>
		<path d="M16,13h0.24c-0.451-1.283-1.457-2.289-2.74-2.74v0.24c0,0.276-0.224,0.5-0.5,0.5h-2c-0.276,0-0.5-0.224-0.5-0.5v-0.24
			C9.217,10.711,8.211,11.717,7.76,13H8c0.276,0,0.5,0.224,0.5,0.5v2C8.5,15.776,8.276,16,8,16H7.76
			c0.451,1.283,1.457,2.289,2.74,2.74V18.5c0-0.276,0.224-0.5,0.5-0.5h2c0.276,0,0.5,0.224,0.5,0.5v0.24
			c1.283-0.451,2.289-1.457,2.74-2.74H16c-0.276,0-0.5-0.224-0.5-0.5v-2C15.5,13.224,15.724,13,16,13z M21,0H9
			C8.977,0,8.958,0.01,8.936,0.013C8.913,0.016,8.894,0.02,8.872,0.026c-0.086,0.023-0.165,0.06-0.226,0.121L2.647,6.146
			C2.586,6.207,2.549,6.287,2.526,6.372C2.52,6.394,2.516,6.414,2.513,6.436C2.51,6.458,2.5,6.477,2.5,6.5v17
			C2.5,23.776,2.724,24,3,24h18c0.276,0,0.5-0.224,0.5-0.5v-23C21.5,0.224,21.276,0,21,0z M8.5,1.707V6H4.207L8.5,1.707z M18.5,15.5
			c0,0.276-0.224,0.5-0.5,0.5h-0.723c-0.52,1.835-1.942,3.257-3.777,3.777V20.5c0,0.276-0.224,0.5-0.5,0.5h-2
			c-0.276,0-0.5-0.224-0.5-0.5v-0.723C8.665,19.257,7.243,17.835,6.723,16H6c-0.276,0-0.5-0.224-0.5-0.5v-2
			C5.5,13.224,5.724,13,6,13h0.723c0.52-1.835,1.942-3.257,3.777-3.777V8.5C10.5,8.224,10.724,8,11,8h2c0.276,0,0.5,0.224,0.5,0.5
			v0.723c1.835,0.52,3.257,1.942,3.777,3.777H18c0.276,0,0.5,0.224,0.5,0.5V15.5z"/>
	</g>
</g>
</svg>
