<?xml version="1.0" encoding="iso-8859-1"?>
<!-- Generator: Adobe Illustrator 19.2.1, SVG Export Plug-In . SVG Version: 6.00 Build 0)  -->
<svg version="1.1" id="Layer_1" xmlns="http://www.w3.org/2000/svg" xmlns:xlink="http://www.w3.org/1999/xlink" x="0px" y="0px"
	 viewBox="0 0 24 24" style="enable-background:new 0 0 24 24;" xml:space="preserve">
<g>
	<g>
		<path d="M20.5,0h-11C9.477,0,9.458,0.01,9.436,0.013C9.413,0.016,9.394,0.02,9.372,0.026c-0.086,0.023-0.165,0.06-0.226,0.121
			L3.147,6.146C3.086,6.207,3.049,6.287,3.026,6.372C3.02,6.394,3.016,6.414,3.013,6.436C3.01,6.458,3,6.477,3,6.5v17
			C3,23.776,3.224,24,3.5,24h17c0.276,0,0.5-0.224,0.5-0.5v-23C21,0.224,20.776,0,20.5,0z M9,1.707V6H4.707L9,1.707z M18,11.5
			c0,0.276-0.224,0.5-0.5,0.5h-2c-0.276,0-0.5-0.224-0.5-0.5v-0.475C11.264,11.273,8.273,14.263,8.025,18H8.5
			C8.776,18,9,18.224,9,18.5v2C9,20.776,8.776,21,8.5,21h-2C6.224,21,6,20.776,6,20.5v-2C6,18.224,6.224,18,6.5,18h0.525
			c0.251-4.287,3.687-7.723,7.975-7.975V9.5C15,9.224,15.224,9,15.5,9h2C17.776,9,18,9.224,18,9.5V11.5z"/>
	</g>
</g>
</svg>
