<?xml version="1.0" encoding="iso-8859-1"?>
<!-- Generator: Adobe Illustrator 19.2.1, SVG Export Plug-In . SVG Version: 6.00 Build 0)  -->
<svg version="1.1" id="Layer_1" xmlns="http://www.w3.org/2000/svg" xmlns:xlink="http://www.w3.org/1999/xlink" x="0px" y="0px"
	 viewBox="0 0 30 30" style="enable-background:new 0 0 30 30;" xml:space="preserve">
<g>
	<g>
		<path d="M29.853,24.146L21.207,15.5l0.647-0.646c0.187-0.187,0.196-0.487,0.021-0.685l-0.824-0.933l1.064-1.316
			c1.178-1.179,1.178-3.096,0.008-4.266L17.2,2.508l1.654-1.654c0.143-0.143,0.186-0.358,0.108-0.545C18.885,0.122,18.702,0,18.5,0
			h-18C0.224,0,0,0.224,0,0.5v18c0,0.202,0.122,0.385,0.309,0.462c0.187,0.079,0.402,0.036,0.545-0.108l1.669-1.669l5.624,4.93
			c1.177,1.177,3.095,1.178,4.25,0.022l1.082-0.952l0.168,0.168c0.169,0.169,0.433,0.195,0.631,0.063l1.159-0.772L16,21.207V23.5
			c0,0.276,0.224,0.5,0.5,0.5h1.793L21,26.707V28.5c0,0.276,0.224,0.5,0.5,0.5h1.882l1.894,0.947C25.346,29.982,25.422,30,25.5,30h4
			c0.276,0,0.5-0.224,0.5-0.5v-5C30,24.367,29.947,24.24,29.853,24.146z M29,29h-3.382l-1.894-0.947
			C23.654,28.018,23.578,28,23.5,28H22v-1.5c0-0.133-0.053-0.26-0.146-0.354l-3-3C18.76,23.053,18.633,23,18.5,23H17v-2
			c0-0.133-0.053-0.26-0.147-0.352l-1-1c-0.169-0.169-0.434-0.195-0.631-0.063l-1.159,0.772l-0.21-0.21
			c-0.186-0.186-0.486-0.195-0.684-0.022l-1.457,1.283c-0.789,0.789-2.071,0.788-2.883-0.022l-6-5.261
			c-0.198-0.174-0.497-0.164-0.683,0.022L1,17.293V1h16.293l-1.147,1.146c-0.193,0.192-0.196,0.503-0.008,0.699l5.269,5.508
			c0.788,0.789,0.788,2.071-0.035,2.898l-1.365,1.684c-0.154,0.19-0.149,0.463,0.013,0.646l0.793,0.897l-0.667,0.668
			c-0.195,0.195-0.195,0.512,0,0.707L29,24.707V29z M10.853,5.146c-0.195-0.195-0.512-0.195-0.707,0l-4.958,4.958
			c-0.015,0.013-0.03,0.026-0.044,0.04c-0.097,0.098-0.146,0.226-0.146,0.354s0.048,0.256,0.146,0.354l2.502,2.502l2.5,2.5
			C10.244,15.951,10.372,16,10.5,16s0.256-0.049,0.353-0.147l2.497-2.497c0.001-0.001,0.002-0.001,0.003-0.002
			s0.001-0.002,0.002-0.003l2.498-2.498c0.195-0.195,0.195-0.512,0-0.707L10.853,5.146z M10.5,6.207L12.293,8L10.5,9.793L8.707,8
			L10.5,6.207z M6.207,10.5L8,8.708L9.792,10.5L8,12.293L6.207,10.5z M10.5,14.793L8.707,13l1.792-1.792L12.292,13L10.5,14.793z
			 M13,12.293L11.207,10.5L13,8.707l1.793,1.793L13,12.293z M17.146,17.147c-0.195,0.195-0.195,0.512,0,0.707l9,9
			C26.244,26.951,26.372,27,26.5,27s0.256-0.049,0.353-0.146c0.195-0.195,0.195-0.512,0-0.707l-9-9
			C17.658,16.952,17.341,16.952,17.146,17.147z"/>
	</g>
</g>
</svg>
