<?xml version="1.0" encoding="iso-8859-1"?>
<!-- Generator: Adobe Illustrator 19.2.1, SVG Export Plug-In . SVG Version: 6.00 Build 0)  -->
<svg version="1.1" id="Layer_1" xmlns="http://www.w3.org/2000/svg" xmlns:xlink="http://www.w3.org/1999/xlink" x="0px" y="0px"
	 viewBox="0 0 24 24" style="enable-background:new 0 0 24 24;" xml:space="preserve">
<g>
	<g>
		<path d="M6.715,11.5h10.568c0.664-1.92,2.445-3.965,4.666-3.996c-0.244-1.693-1.69-3.004-3.45-3.004h-13
			c-1.76,0-3.206,1.31-3.45,3.004C4.27,7.535,6.051,9.58,6.715,11.5z M13.999,7c0-0.276,0.224-0.5,0.5-0.5s0.5,0.224,0.5,0.5
			c0.03,0.138,0.24,0.419,0.498,0.702c0.26-0.288,0.473-0.578,0.504-0.729c0-0.276,0.223-0.486,0.499-0.486
			c0.276,0,0.499,0.237,0.499,0.513c0,0.347-0.327,0.882-0.761,1.37c0.104,0.069,0.2,0.122,0.268,0.131
			c0.276,0,0.497,0.224,0.497,0.5s-0.228,0.5-0.504,0.5c-0.288,0-0.646-0.185-1-0.448c-0.354,0.263-0.712,0.448-1,0.448
			c-0.276,0-0.5-0.224-0.5-0.5c0-0.274,0.222-0.498,0.495-0.5c0.068-0.009,0.163-0.062,0.266-0.13
			C14.326,7.882,13.999,7.347,13.999,7z M6.999,7c0-0.276,0.224-0.5,0.5-0.5s0.5,0.224,0.5,0.5c0.03,0.138,0.24,0.419,0.498,0.702
			c0.26-0.288,0.473-0.578,0.504-0.729c0-0.276,0.223-0.486,0.499-0.486c0.276,0,0.499,0.237,0.499,0.513
			c0,0.347-0.327,0.882-0.761,1.37c0.104,0.069,0.2,0.122,0.268,0.131c0.276,0,0.497,0.224,0.497,0.5s-0.228,0.5-0.504,0.5
			c-0.288,0-0.646-0.185-1-0.448c-0.354,0.263-0.712,0.448-1,0.448c-0.276,0-0.5-0.224-0.5-0.5c0-0.274,0.222-0.498,0.495-0.5
			c0.068-0.009,0.163-0.062,0.266-0.13C7.326,7.882,6.999,7.347,6.999,7z M22.091,12.509c0.001-0.003,0.002-0.009,0.003-0.012
			c1.059-0.05,1.904-0.927,1.904-1.998c0-1.103-0.897-2-2-2c-0.189,0-0.371,0.026-0.551,0.063c-0.03,0.006-0.059,0.014-0.088,0.021
			c-0.768,0.184-1.446,0.676-1.988,1.299c-0.021,0.024-0.04,0.05-0.061,0.074c-0.087,0.104-0.171,0.21-0.251,0.319
			c-0.062,0.083-0.121,0.167-0.179,0.253c-0.001,0.002-0.003,0.004-0.004,0.006c-0.208,0.313-0.39,0.638-0.528,0.965h0.015
			c-0.148,0.349-0.253,0.688-0.31,1H5.946c-0.057-0.312-0.162-0.651-0.31-1h0.015c-0.138-0.327-0.32-0.652-0.528-0.965
			c-0.001-0.002-0.003-0.004-0.004-0.006c-0.057-0.086-0.117-0.169-0.179-0.253c-0.08-0.109-0.164-0.215-0.251-0.319
			c-0.021-0.024-0.04-0.05-0.061-0.074C4.086,9.26,3.407,8.767,2.64,8.583C2.611,8.576,2.581,8.568,2.552,8.562
			C2.372,8.525,2.19,8.499,2.001,8.499c-1.103,0-2,0.897-2,2c0,1.071,0.846,1.947,1.903,1.998c0.001,0.003,0.002,0.009,0.003,0.012
			C0.849,12.559,0,13.428,0,14.5c0,1.103,0.897,2,2,2V18c0,0.827,0.673,1.5,1.5,1.5h1C5.327,19.5,6,18.827,6,18v-1.5h12V18
			c0,0.827,0.673,1.5,1.5,1.5h1c0.827,0,1.5-0.673,1.5-1.5v-1.5c1.103,0,2-0.897,2-2C23.999,13.429,23.15,12.559,22.091,12.509z"/>
	</g>
</g>
</svg>
