<?xml version="1.0" encoding="iso-8859-1"?>
<!-- Generator: Adobe Illustrator 19.2.1, SVG Export Plug-In . SVG Version: 6.00 Build 0)  -->
<svg version="1.1" id="Layer_1" xmlns="http://www.w3.org/2000/svg" xmlns:xlink="http://www.w3.org/1999/xlink" x="0px" y="0px"
	 viewBox="0 0 24 24" style="enable-background:new 0 0 24 24;" xml:space="preserve">
<g>
	<g>
		<path d="M8.153,9.842l1.493,1.493c0.098,0.098,0.226,0.146,0.354,0.146c0.128,0,0.256-0.049,0.354-0.146l0.586-0.586
			c0.473-0.472,0.732-1.1,0.732-1.768c0-0.668-0.26-1.296-0.732-1.768L7.268,3.541c-0.945-0.944-2.59-0.944-3.535,0L3.147,4.127
			c-0.195,0.195-0.195,0.512,0,0.707l1.492,1.492L8.153,9.842z M3.999,7.981c0,0.668,0.26,1.296,0.732,1.768
			c0.487,0.487,1.127,0.731,1.768,0.731c0.255,0,0.506-0.05,0.751-0.126L4.126,7.23C4.05,7.47,3.999,7.721,3.999,7.981z
			 M19.499,11.981c-0.231,0-0.448,0.057-0.644,0.151c-0.001-0.001-0.002-0.003-0.003-0.004L13.42,6.696
			C14.11,5.954,14.498,5,14.498,3.981c0-1.068-0.416-2.073-1.172-2.829c-1.51-1.511-4.146-1.511-5.656,0L7.255,1.568
			c-0.107,0.108-0.16,0.259-0.144,0.41c0.018,0.151,0.103,0.286,0.231,0.367c0.253,0.158,0.459,0.318,0.63,0.489l3.672,3.673
			c0.17,0.169,0.33,0.375,0.489,0.629C12.214,7.265,12.35,7.35,12.5,7.367c0.02,0.002,0.038,0.003,0.057,0.003
			c0.035,0,0.068-0.013,0.103-0.02l5.484,5.484c0.001,0.001,0.003,0.002,0.004,0.003c-0.094,0.196-0.151,0.412-0.151,0.644
			c0,0.23,0.056,0.446,0.149,0.641l-5.97,4.975c-0.114,0.095-0.18,0.236-0.18,0.384v1.5h-1.5c-1.379,0-2.5,1.122-2.5,2.5
			c0,0.276,0.224,0.5,0.5,0.5h8c0.007,0.001,0.015,0,0.02,0c0.276,0,0.5-0.224,0.5-0.5c0-0.055-0.008-0.107-0.024-0.156
			c-0.081-1.306-1.169-2.344-2.495-2.344h-1.498v-1.266l5.82-4.85c0.013-0.011,0.019-0.026,0.031-0.038
			c0.197,0.096,0.416,0.154,0.649,0.154c0.827,0,1.5-0.673,1.5-1.5C20.999,12.654,20.326,11.981,19.499,11.981z"/>
	</g>
</g>
</svg>
