<?xml version="1.0" encoding="iso-8859-1"?>
<!-- Generator: Adobe Illustrator 19.2.1, SVG Export Plug-In . SVG Version: 6.00 Build 0)  -->
<svg version="1.1" id="Layer_1" xmlns="http://www.w3.org/2000/svg" xmlns:xlink="http://www.w3.org/1999/xlink" x="0px" y="0px"
	 viewBox="0 0 24 24" style="enable-background:new 0 0 24 24;" xml:space="preserve">
<g>
	<g>
		<path d="M23.5,3.5h-23C0.224,3.5,0,3.724,0,4s0.224,0.5,0.5,0.5H1V6c0,0.276,0.224,0.5,0.5,0.5H2V20c0,0.276,0.224,0.5,0.5,0.5h2
			C4.776,20.5,5,20.276,5,20v-4.5h14V20c0,0.276,0.224,0.5,0.5,0.5h2c0.276,0,0.5-0.224,0.5-0.5V6.5h0.5C22.776,6.5,23,6.276,23,6
			V4.5h0.5C23.776,4.5,24,4.276,24,4S23.776,3.5,23.5,3.5z M19,14.5H5v-6h14V14.5z"/>
	</g>
</g>
</svg>
