<?xml version="1.0" encoding="iso-8859-1"?>
<!-- Generator: Adobe Illustrator 19.2.1, SVG Export Plug-In . SVG Version: 6.00 Build 0)  -->
<svg version="1.1" id="Layer_1" xmlns="http://www.w3.org/2000/svg" xmlns:xlink="http://www.w3.org/1999/xlink" x="0px" y="0px"
	 viewBox="0 0 24 24" style="enable-background:new 0 0 24 24;" xml:space="preserve">
<g>
	<g>
		<path d="M9,23h7V0H9V23z M10,10.5c0-0.276,0.224-0.5,0.5-0.5s0.5,0.224,0.5,0.5v1c0,0.276-0.224,0.5-0.5,0.5S10,11.776,10,11.5
			V10.5z M0,2.5v20C0,22.776,0.224,23,0.5,23H1v0.5C1,23.776,1.224,24,1.5,24S2,23.776,2,23.5V23h6V0H2.5C1.122,0,0,1.122,0,2.5z
			 M6,10.5C6,10.224,6.224,10,6.5,10S7,10.224,7,10.5v1C7,11.776,6.776,12,6.5,12S6,11.776,6,11.5V10.5z M17,23h5v0.5
			c0,0.276,0.224,0.5,0.5,0.5s0.5-0.224,0.5-0.5V23h0.5c0.276,0,0.5-0.224,0.5-0.5V19h-7V23z M19.5,20h1c0.276,0,0.5,0.224,0.5,0.5
			S20.776,21,20.5,21h-1c-0.276,0-0.5-0.224-0.5-0.5S19.224,20,19.5,20z M17,14h7V8h-7V14z M21.5,0H17v7h7V2.5
			C24,1.122,22.878,0,21.5,0z M17,18h7v-3h-7V18z M19.5,16h1c0.276,0,0.5,0.224,0.5,0.5S20.776,17,20.5,17h-1
			c-0.276,0-0.5-0.224-0.5-0.5S19.224,16,19.5,16z"/>
	</g>
</g>
</svg>
