<?xml version="1.0" encoding="iso-8859-1"?>
<!-- Generator: Adobe Illustrator 19.0.0, SVG Export Plug-In . SVG Version: 6.00 Build 0)  -->
<svg version="1.1" id="Layer_1" xmlns="http://www.w3.org/2000/svg" xmlns:xlink="http://www.w3.org/1999/xlink" x="0px" y="0px"
	 viewBox="0 0 24 24" style="enable-background:new 0 0 24 24;" xml:space="preserve">
<g>
	<g>
		<g>
			<path d="M7.5,4.706c-0.172,0-0.341-0.089-0.433-0.25l-1-1.732C5.929,2.484,6.011,2.179,6.25,2.041
				c0.238-0.138,0.545-0.058,0.683,0.183l1,1.732C8.071,4.195,7.989,4.5,7.75,4.639C7.671,4.684,7.585,4.706,7.5,4.706z"/>
		</g>
		<g>
			<path d="M17.5,22.026c-0.172,0-0.341-0.089-0.433-0.25l-1-1.732c-0.139-0.239-0.057-0.545,0.183-0.683
				c0.238-0.139,0.545-0.057,0.683,0.183l1,1.732c0.139,0.239,0.057,0.545-0.183,0.683C17.671,22.005,17.585,22.026,17.5,22.026z"/>
		</g>
		<g>
			<path d="M4.206,8c-0.085,0-0.171-0.021-0.25-0.067l-1.732-1C1.984,6.795,1.902,6.489,2.041,6.25
				c0.137-0.239,0.443-0.319,0.683-0.183l1.732,1C4.695,7.205,4.777,7.511,4.639,7.75C4.547,7.91,4.378,8,4.206,8z"/>
		</g>
		<g>
			<path d="M21.526,18c-0.085,0-0.171-0.021-0.25-0.067l-1.732-1c-0.239-0.138-0.321-0.444-0.183-0.683
				c0.137-0.239,0.443-0.319,0.683-0.183l1.732,1c0.239,0.138,0.321,0.444,0.183,0.683C21.867,17.91,21.698,18,21.526,18z"/>
		</g>
		<g>
			<path d="M2.474,18c-0.172,0-0.341-0.09-0.433-0.25c-0.139-0.239-0.057-0.545,0.183-0.683l1.732-1
				c0.238-0.137,0.545-0.057,0.683,0.183c0.139,0.239,0.057,0.545-0.183,0.683l-1.732,1C2.645,17.979,2.559,18,2.474,18z"/>
		</g>
		<g>
			<path d="M19.794,8c-0.172,0-0.341-0.09-0.433-0.25c-0.139-0.239-0.057-0.545,0.183-0.683l1.732-1
				c0.238-0.138,0.545-0.056,0.683,0.183c0.139,0.239,0.057,0.545-0.183,0.683l-1.732,1C19.965,7.979,19.879,8,19.794,8z"/>
		</g>
		<g>
			<path d="M6.5,22.026c-0.085,0-0.171-0.021-0.25-0.067c-0.239-0.138-0.321-0.444-0.183-0.683l1-1.732
				c0.138-0.24,0.445-0.32,0.683-0.183c0.239,0.138,0.321,0.444,0.183,0.683l-1,1.732C6.841,21.937,6.672,22.026,6.5,22.026z"/>
		</g>
		<g>
			<path d="M16.5,4.706c-0.085,0-0.171-0.021-0.25-0.067c-0.239-0.138-0.321-0.444-0.183-0.683l1-1.732
				c0.137-0.24,0.443-0.32,0.683-0.183c0.239,0.138,0.321,0.444,0.183,0.683l-1,1.732C16.841,4.616,16.672,4.706,16.5,4.706z"/>
		</g>
		<g>
			<path d="M12,3.5c-0.276,0-0.5-0.224-0.5-0.5V1c0-0.276,0.224-0.5,0.5-0.5s0.5,0.224,0.5,0.5v2C12.5,3.276,12.276,3.5,12,3.5z"/>
		</g>
		<g>
			<path d="M3,12.5H1c-0.276,0-0.5-0.224-0.5-0.5s0.224-0.5,0.5-0.5h2c0.276,0,0.5,0.224,0.5,0.5S3.276,12.5,3,12.5z"/>
		</g>
		<g>
			<path d="M23,12.5h-2c-0.276,0-0.5-0.224-0.5-0.5s0.224-0.5,0.5-0.5h2c0.276,0,0.5,0.224,0.5,0.5S23.276,12.5,23,12.5z"/>
		</g>
		<g>
			<path d="M12,23.5c-0.276,0-0.5-0.224-0.5-0.5v-2c0-0.276,0.224-0.5,0.5-0.5s0.5,0.224,0.5,0.5v2C12.5,23.276,12.276,23.5,12,23.5
				z"/>
		</g>
	</g>
	<g>
		<path d="M12,23.5C5.659,23.5,0.5,18.341,0.5,12S5.659,0.5,12,0.5S23.5,5.659,23.5,12S18.341,23.5,12,23.5z M12,1.5
			C6.21,1.5,1.5,6.21,1.5,12S6.21,22.5,12,22.5S22.5,17.79,22.5,12S17.79,1.5,12,1.5z"/>
	</g>
</g>
<g>
</g>
<g>
</g>
<g>
</g>
<g>
</g>
<g>
</g>
<g>
</g>
<g>
</g>
<g>
</g>
<g>
</g>
<g>
</g>
<g>
</g>
<g>
</g>
<g>
</g>
<g>
</g>
<g>
</g>
</svg>
