<?xml version="1.0" encoding="iso-8859-1"?>
<!-- Generator: Adobe Illustrator 19.0.0, SVG Export Plug-In . SVG Version: 6.00 Build 0)  -->
<svg version="1.1" id="Layer_1" xmlns="http://www.w3.org/2000/svg" xmlns:xlink="http://www.w3.org/1999/xlink" x="0px" y="0px"
	 viewBox="0 0 24 24" style="enable-background:new 0 0 24 24;" xml:space="preserve">
<g>
	<g>
		<path d="M11.999,23.5c-5.238,0-9.5-4.262-9.5-9.5s4.262-9.5,9.5-9.5s9.5,4.262,9.5,9.5S17.237,23.5,11.999,23.5z M11.999,5.5
			c-4.687,0-8.5,3.813-8.5,8.5s3.813,8.5,8.5,8.5s8.5-3.813,8.5-8.5S16.686,5.5,11.999,5.5z"/>
	</g>
	<g>
		<path d="M11.999,21.5c-4.136,0-7.5-3.364-7.5-7.5s3.364-7.5,7.5-7.5s7.5,3.364,7.5,7.5S16.134,21.5,11.999,21.5z M11.999,7.5
			c-3.584,0-6.5,2.916-6.5,6.5s2.916,6.5,6.5,6.5s6.5-2.916,6.5-6.5S15.583,7.5,11.999,7.5z"/>
	</g>
	<g>
		<path d="M15.998,17.5c-0.104,0-0.209-0.033-0.299-0.1l-4-3c-0.126-0.094-0.2-0.243-0.2-0.4V9c0-0.276,0.224-0.5,0.5-0.5
			s0.5,0.224,0.5,0.5v4.75l3.8,2.85c0.221,0.166,0.266,0.479,0.1,0.7C16.3,17.431,16.15,17.5,15.998,17.5z"/>
	</g>
	<g>
		<path d="M2.423,7.502c-0.248,0-0.5-0.049-0.744-0.15C0.951,7.05,0.499,6.373,0.499,5.585V5.583c0-0.51,0.199-0.991,0.56-1.352
			l3.17-3.17C4.59,0.699,5.071,0.5,5.581,0.5c0.791,0,1.467,0.452,1.769,1.181c0.302,0.728,0.143,1.527-0.415,2.084L3.763,6.937
			C3.393,7.308,2.916,7.502,2.423,7.502z M5.583,1.5c-0.246,0-0.476,0.095-0.648,0.268L1.766,4.937
			C1.594,5.109,1.499,5.339,1.499,5.583v0.002c0,0.382,0.21,0.697,0.563,0.843C2.416,6.573,2.786,6.5,3.056,6.23l3.172-3.172
			c0.27-0.27,0.344-0.642,0.198-0.995C6.28,1.71,5.965,1.5,5.583,1.5z"/>
	</g>
	<g>
		<path d="M21.577,7.502c-0.493,0-0.97-0.194-1.34-0.565l-3.172-3.172c-0.557-0.557-0.716-1.356-0.415-2.084
			C16.952,0.952,17.628,0.5,18.417,0.5c0.513,0,0.993,0.199,1.354,0.56l3.17,3.17c0.361,0.362,0.56,0.842,0.56,1.353v0.002
			c0,0.788-0.452,1.465-1.181,1.767C22.077,7.453,21.825,7.502,21.577,7.502z M18.419,1.5c-0.384,0-0.699,0.21-0.846,0.563
			c-0.146,0.353-0.072,0.724,0.198,0.994l3.172,3.172c0.27,0.27,0.641,0.343,0.995,0.198c0.353-0.146,0.563-0.461,0.563-0.843V5.583
			c0-0.244-0.095-0.473-0.268-0.646l-3.169-3.169C18.892,1.595,18.663,1.5,18.419,1.5z"/>
	</g>
</g>
<g>
</g>
<g>
</g>
<g>
</g>
<g>
</g>
<g>
</g>
<g>
</g>
<g>
</g>
<g>
</g>
<g>
</g>
<g>
</g>
<g>
</g>
<g>
</g>
<g>
</g>
<g>
</g>
<g>
</g>
</svg>
