<?xml version="1.0" encoding="iso-8859-1"?>
<!-- Generator: Adobe Illustrator 19.0.0, SVG Export Plug-In . SVG Version: 6.00 Build 0)  -->
<svg version="1.1" id="Layer_1" xmlns="http://www.w3.org/2000/svg" xmlns:xlink="http://www.w3.org/1999/xlink" x="0px" y="0px"
	 viewBox="0 0 24 24" style="enable-background:new 0 0 24 24;" xml:space="preserve">
<g>
	<g>
		<path d="M18,3H6C5.173,3,4.5,2.327,4.5,1.5S5.173,0,6,0h12c0.827,0,1.5,0.673,1.5,1.5S18.827,3,18,3z M6,1
			C5.724,1,5.5,1.224,5.5,1.5S5.724,2,6,2h12c0.276,0,0.5-0.224,0.5-0.5S18.276,1,18,1H6z"/>
	</g>
	<g>
		<path d="M18,24H6c-0.827,0-1.5-0.673-1.5-1.5S5.173,21,6,21h12c0.827,0,1.5,0.673,1.5,1.5S18.827,24,18,24z M6,22
			c-0.276,0-0.5,0.224-0.5,0.5S5.724,23,6,23h12c0.276,0,0.5-0.224,0.5-0.5S18.276,22,18,22H6z"/>
	</g>
	<g>
		<path d="M6,22c-0.276,0-0.5-0.224-0.5-0.5v-4.185c0-1.297,0.56-2.532,1.537-3.387L9.241,12l-2.204-1.928
			C6.06,9.217,5.5,7.982,5.5,6.685V2.5C5.5,2.224,5.724,2,6,2s0.5,0.224,0.5,0.5v4.185c0,1.009,0.436,1.969,1.195,2.634l2.634,2.305
			C10.438,11.719,10.5,11.856,10.5,12s-0.062,0.281-0.171,0.376l-2.634,2.305C6.936,15.346,6.5,16.306,6.5,17.315V21.5
			C6.5,21.776,6.276,22,6,22z"/>
	</g>
	<g>
		<path d="M18,22c-0.276,0-0.5-0.224-0.5-0.5v-4.185c0-1.009-0.436-1.969-1.195-2.634l-2.634-2.305
			C13.562,12.281,13.5,12.144,13.5,12s0.062-0.281,0.171-0.376l2.634-2.305c0.76-0.665,1.195-1.625,1.195-2.634V2.5
			C17.5,2.224,17.724,2,18,2s0.5,0.224,0.5,0.5v4.185c0,1.297-0.56,2.532-1.537,3.387L14.759,12l2.204,1.928
			c0.977,0.855,1.537,2.089,1.537,3.387V21.5C18.5,21.776,18.276,22,18,22z"/>
	</g>
	<g>
		<path d="M16,20H8c-0.192,0-0.367-0.11-0.451-0.283c-0.083-0.173-0.06-0.379,0.06-0.529l4-5c0.19-0.237,0.591-0.237,0.781,0l4,5
			c0.12,0.15,0.143,0.356,0.06,0.529C16.367,19.89,16.192,20,16,20z M9.041,19h5.919L12,15.3L9.041,19z"/>
	</g>
	<g>
		<path d="M12,11c-0.128,0-0.256-0.049-0.354-0.146l-2-2C9.503,8.71,9.46,8.496,9.538,8.309C9.615,8.122,9.798,8,10,8h4
			c0.202,0,0.385,0.122,0.462,0.309c0.078,0.187,0.035,0.402-0.108,0.545l-2,2C12.256,10.951,12.128,11,12,11z M11.207,9L12,9.793
			L12.793,9H11.207z"/>
	</g>
</g>
<g>
</g>
<g>
</g>
<g>
</g>
<g>
</g>
<g>
</g>
<g>
</g>
<g>
</g>
<g>
</g>
<g>
</g>
<g>
</g>
<g>
</g>
<g>
</g>
<g>
</g>
<g>
</g>
<g>
</g>
</svg>
