<?xml version="1.0" encoding="iso-8859-1"?>
<!-- Generator: Adobe Illustrator 19.0.0, SVG Export Plug-In . SVG Version: 6.00 Build 0)  -->
<svg version="1.1" id="Layer_1" xmlns="http://www.w3.org/2000/svg" xmlns:xlink="http://www.w3.org/1999/xlink" x="0px" y="0px"
	 viewBox="0 0 24 24" style="enable-background:new 0 0 24 24;" xml:space="preserve">
<g>
	<g>
		<g>
			<path d="M17.285,21H1.715C0.769,21,0,20.231,0,19.285c0-0.264,0.059-0.518,0.175-0.754C0.646,17.563,3,12.528,3,8.5
				C3,4.916,5.916,2,9.5,2S16,4.916,16,8.5c0,4.026,2.352,9.059,2.825,10.031l0,0C18.941,18.767,19,19.021,19,19.285
				C19,20.231,18.23,21,17.285,21z M9.5,3C6.468,3,4,5.467,4,8.5c0,4.141-2.24,9.061-2.927,10.47C1.024,19.07,1,19.175,1,19.285
				C1,19.679,1.32,20,1.715,20h15.57C17.68,20,18,19.679,18,19.285c0-0.11-0.024-0.215-0.073-0.314c0,0,0-0.001,0-0.001
				C17.24,17.561,15,12.641,15,8.5C15,5.467,12.532,3,9.5,3z"/>
		</g>
		<g>
			<path d="M2.943,19c-0.068,0-0.137-0.014-0.202-0.043c-0.253-0.111-0.367-0.407-0.255-0.659C3.425,16.176,5,12.082,5,8.5
				C5,6.019,7.018,4,9.5,4C9.776,4,10,4.224,10,4.5S9.776,5,9.5,5C7.57,5,6,6.57,6,8.5c0,3.766-1.629,8.008-2.6,10.202
				C3.318,18.889,3.135,19,2.943,19z"/>
		</g>
		<g>
			<path d="M9.5,24C7.57,24,6,22.43,6,20.5C6,20.224,6.224,20,6.5,20S7,20.224,7,20.5C7,21.878,8.121,23,9.5,23s2.5-1.122,2.5-2.5
				c0-0.276,0.224-0.5,0.5-0.5s0.5,0.224,0.5,0.5C13,22.43,11.43,24,9.5,24z"/>
		</g>
		<g>
			<path d="M11.5,3C11.224,3,11,2.776,11,2.5C11,1.673,10.327,1,9.5,1S8,1.673,8,2.5C8,2.776,7.776,3,7.5,3S7,2.776,7,2.5
				C7,1.122,8.121,0,9.5,0S12,1.122,12,2.5C12,2.776,11.776,3,11.5,3z"/>
		</g>
	</g>
	<g>
		<path d="M23.5,4h-2c-0.185,0-0.354-0.102-0.44-0.264c-0.088-0.163-0.078-0.36,0.024-0.513L22.565,1H21.5C21.224,1,21,0.776,21,0.5
			S21.224,0,21.5,0h2c0.185,0,0.354,0.102,0.44,0.264c0.088,0.163,0.078,0.36-0.024,0.513L22.434,3H23.5C23.776,3,24,3.224,24,3.5
			S23.776,4,23.5,4z"/>
	</g>
	<g>
		<path d="M20.5,8h-4c-0.192,0-0.367-0.11-0.45-0.283c-0.084-0.173-0.061-0.379,0.06-0.529L19.46,3H16.5C16.224,3,16,2.776,16,2.5
			S16.224,2,16.5,2h4c0.192,0,0.367,0.11,0.45,0.283c0.084,0.173,0.061,0.379-0.06,0.529L17.54,7h2.96C20.776,7,21,7.224,21,7.5
			S20.776,8,20.5,8z"/>
	</g>
</g>
<g>
</g>
<g>
</g>
<g>
</g>
<g>
</g>
<g>
</g>
<g>
</g>
<g>
</g>
<g>
</g>
<g>
</g>
<g>
</g>
<g>
</g>
<g>
</g>
<g>
</g>
<g>
</g>
<g>
</g>
</svg>
