<?xml version="1.0" encoding="utf-8"?>
<!-- Generator: Adobe Illustrator 19.0.0, SVG Export Plug-In . SVG Version: 6.00 Build 0)  -->
<svg version="1.1" id="Layer_1" xmlns="http://www.w3.org/2000/svg" xmlns:xlink="http://www.w3.org/1999/xlink" x="0px" y="0px"
	 viewBox="0 0 30 30" style="enable-background:new 0 0 30 30;" xml:space="preserve">
<g>
	<circle cx="10.5" cy="27" r="3"/>
	<circle cx="23.5" cy="27" r="3"/>
	<path d="M27.2,13c-1.1,0.6-2.4,1-3.7,1c-3.8,0-7-2.8-7.4-6.6C16,7.2,15.8,7,15.6,7H5.4L4.7,3.4C4.7,3.2,4.5,3,4.3,3H0.5
		C0.2,3,0,3.2,0,3.5S0.2,4,0.5,4h3.3l0.7,3.4c0,0.1,0,0.1,0,0.2l0.6,3l1.8,8.9c0.4,2,2.1,3.5,4.2,3.5h14.4c0.3,0,0.5-0.2,0.5-0.5
		S25.8,22,25.5,22H11.1c-1.3,0-2.5-0.8-3-2.1l18.5-2.3c0.2,0,0.4-0.2,0.4-0.4l1-3.6c0.1-0.2,0-0.4-0.2-0.5
		C27.6,12.9,27.4,12.9,27.2,13z"/>
	<path d="M24,6.6v1.3c0.6-0.1,1-0.4,1-0.7C25,7.1,24.8,6.8,24,6.6z"/>
	<path d="M22,4.8c0,0.2,0.2,0.5,1,0.6V4.1C22.4,4.2,22,4.5,22,4.8z"/>
	<path d="M23.5,0C19.9,0,17,2.9,17,6.5s2.9,6.5,6.5,6.5S30,10.1,30,6.5S27.1,0,23.5,0z M24,9v0.5c0,0.3-0.2,0.5-0.5,0.5
		S23,9.8,23,9.5V9c-1.1-0.1-1.9-0.8-2-1.6c0-0.3,0.2-0.5,0.4-0.5C21.7,6.8,22,7,22,7.3c0,0.3,0.4,0.6,1,0.7V6.4
		c-0.8-0.2-2-0.5-2-1.7c0-0.9,0.8-1.6,2-1.7V2.5C23,2.2,23.2,2,23.5,2S24,2.2,24,2.5V3c1.1,0.1,1.9,0.8,2,1.6c0,0.3-0.2,0.5-0.4,0.5
		C25.3,5.2,25,5,25,4.7c0-0.3-0.4-0.6-1-0.7v1.5c0.8,0.2,2,0.5,2,1.7C26,8.1,25.2,8.8,24,9z"/>
</g>
</svg>
