<?xml version="1.0" encoding="iso-8859-1"?>
<!-- Generator: Adobe Illustrator 19.0.0, SVG Export Plug-In . SVG Version: 6.00 Build 0)  -->
<svg version="1.1" id="Layer_1" xmlns="http://www.w3.org/2000/svg" xmlns:xlink="http://www.w3.org/1999/xlink" x="0px" y="0px"
	 viewBox="0 0 30 30" style="enable-background:new 0 0 30 30;" xml:space="preserve">
<g>
	<g>
		<path d="M12.5,11.06c7.009,0,12.5-2.429,12.5-5.53c0-0.005-0.002-0.01-0.002-0.015S25,5.505,25,5.5C25,2.416,19.51,0,12.5,0
			C5.492,0,0,2.416,0,5.5c0,0.005,0.002,0.01,0.002,0.015S0,5.525,0,5.53C0,8.631,5.492,11.06,12.5,11.06z M28.258,18h-9.516
			C17.783,18,17,18.782,17,19.742v6.516C17,27.218,17.783,28,18.742,28H23v1h-1.5c-0.276,0-0.5,0.224-0.5,0.5s0.224,0.5,0.5,0.5h4
			c0.276,0,0.5-0.224,0.5-0.5S25.776,29,25.5,29H24v-1h4.258C29.219,28,30,27.218,30,26.258v-6.516C30,18.782,29.219,18,28.258,18z
			 M29,25H18v-5.258C18,19.333,18.333,19,18.742,19h9.516C28.667,19,29,19.333,29,19.742V25z M12.5,17c7.477,0,12.5-2.327,12.5-4.5
			V9.278c0-0.193-0.111-0.37-0.287-0.452c-0.174-0.083-0.381-0.058-0.531,0.066C21.851,10.809,17.375,12,12.5,12
			c-4.874,0-9.35-1.191-11.683-3.108C0.669,8.768,0.461,8.744,0.286,8.826C0.112,8.909,0,9.085,0,9.278V12.5
			C0,14.673,5.023,17,12.5,17z M16,26.258v-1.903c0-0.141-0.059-0.274-0.163-0.369c-0.104-0.095-0.242-0.143-0.382-0.129
			C14.417,23.952,13.424,24,12.5,24c-4.841,0-9.33-1.04-11.713-2.713c-0.152-0.107-0.353-0.12-0.518-0.035
			C0.104,21.338,0,21.509,0,21.696v1.773c0,3.101,5.491,5.53,12.5,5.53c1.275,0,2.544-0.084,3.773-0.251
			c0.178-0.024,0.329-0.142,0.396-0.308c0.067-0.167,0.041-0.356-0.071-0.497C16.208,27.447,16,26.864,16,26.258z M0.789,15.287
			c-0.152-0.107-0.353-0.12-0.518-0.035C0.104,15.338,0,15.509,0,15.696V18.5C0,20.673,5.023,23,12.5,23
			c1.019,0,2.015-0.046,3.046-0.141C15.804,22.835,16,22.619,16,22.361v-2.619c0-0.402,0.097-0.804,0.288-1.194
			c0.08-0.163,0.065-0.356-0.039-0.505c-0.103-0.148-0.281-0.224-0.46-0.212C9.722,18.447,3.703,17.333,0.789,15.287z"/>
	</g>
</g>
</svg>
