<?xml version="1.0" encoding="iso-8859-1"?>
<!-- Generator: Adobe Illustrator 19.0.0, SVG Export Plug-In . SVG Version: 6.00 Build 0)  -->
<svg version="1.1" id="Layer_1" xmlns="http://www.w3.org/2000/svg" xmlns:xlink="http://www.w3.org/1999/xlink" x="0px" y="0px"
	 viewBox="0 0 30 30" style="enable-background:new 0 0 30 30;" xml:space="preserve">
<g>
	<g>
		<path d="M7,22.001c4.225,0,6.651-1.097,6.961-1.839C13.987,20.101,14,20.035,14,19.969v-1.905c0-0.18-0.097-0.346-0.253-0.435
			c-0.156-0.09-0.349-0.087-0.503,0.005C11.786,18.503,9.51,19.001,7,19.001s-4.786-0.498-6.244-1.367
			c-0.154-0.091-0.346-0.093-0.503-0.005C0.097,17.718,0,17.884,0,18.064v1.937c0,0.064,0.013,0.128,0.037,0.188
			C0.346,20.949,2.937,22.001,7,22.001z M7,18.001c3.394,0,7-1.051,7-3c0-1.949-3.606-3-7-3c-3.394,0-7,1.051-7,3
			C0,16.95,3.606,18.001,7,18.001z M13.289,21.904C11.813,22.591,9.462,23.001,7,23.001c-2.462,0-4.813-0.41-6.289-1.097
			c-0.154-0.072-0.335-0.061-0.479,0.032c-0.144,0.092-0.231,0.25-0.231,0.421v1.644c0,0.064,0.013,0.128,0.037,0.188
			c0.308,0.76,2.899,1.812,6.962,1.812c4.225,0,6.651-1.097,6.961-1.839C13.987,24.101,14,24.036,14,23.969v-1.612
			c0-0.171-0.087-0.33-0.231-0.421C13.625,21.843,13.443,21.832,13.289,21.904z M13.289,25.904C11.813,26.591,9.462,27.001,7,27.001
			c-2.462,0-4.813-0.41-6.289-1.097c-0.154-0.072-0.335-0.061-0.479,0.032c-0.144,0.092-0.231,0.25-0.231,0.421v0.644
			c0,1.949,3.606,3,7,3c3.394,0,7-1.051,7-3v-0.644c0-0.171-0.087-0.33-0.231-0.421C13.625,25.843,13.443,25.832,13.289,25.904z
			 M29.887,11.69c-0.089-0.71-0.485-1.324-1.086-1.684c-0.574-0.344-1.262-0.403-1.899-0.159c-0.586,0.225-1.258-0.086-1.529-0.708
			c-0.286-0.654-0.636-1.281-1.043-1.862c-0.401-0.573-0.325-1.324,0.176-1.748c0.519-0.439,0.809-1.085,0.795-1.773
			c-0.014-0.698-0.336-1.343-0.884-1.769c-0.935-0.728-1.958-1.334-3.041-1.803c-0.632-0.273-1.339-0.242-1.94,0.087
			c-0.604,0.331-1.015,0.916-1.126,1.606c-0.106,0.656-0.697,1.097-1.369,1.023c-0.685-0.074-1.398-0.074-2.083,0
			c-0.673,0.075-1.262-0.367-1.369-1.023c-0.112-0.69-0.523-1.275-1.127-1.606c-0.601-0.329-1.307-0.36-1.94-0.087
			c-1.083,0.468-2.105,1.075-3.04,1.803c-0.547,0.426-0.87,1.071-0.883,1.769C6.485,4.444,6.775,5.09,7.294,5.529
			c0.501,0.423,0.577,1.174,0.175,1.747C7.062,7.858,6.711,8.484,6.427,9.138C6.156,9.76,5.484,10.073,4.884,9.841
			C3.892,9.462,2.773,9.86,2.231,10.775c-0.116,0.174-0.111,0.402,0.011,0.571s0.335,0.245,0.54,0.188
			c2.441-0.683,5.79-0.701,8.279-0.042c0.216,0.057,0.447-0.038,0.561-0.233c0.819-1.413,2.269-2.258,3.878-2.258
			c2.481,0,4.5,2.019,4.5,4.5s-2.019,4.5-4.5,4.5c-0.276,0-0.5,0.224-0.5,0.5v5.245c0,0.276,0.224,0.5,0.5,0.5
			c0.272,0,0.732-0.058,1.102-0.104l0.339-0.041c0.673-0.075,1.263,0.367,1.369,1.023c0.112,0.69,0.522,1.275,1.126,1.606
			c0.33,0.181,0.692,0.272,1.056,0.272c0.299,0,0.599-0.062,0.884-0.185c1.083-0.468,2.106-1.075,3.041-1.803
			c0.547-0.426,0.869-1.071,0.883-1.769c0.014-0.688-0.276-1.334-0.796-1.774c-0.5-0.423-0.576-1.174-0.175-1.747
			c0.407-0.581,0.757-1.208,1.043-1.862c0.271-0.623,0.944-0.934,1.542-0.703c0.623,0.239,1.311,0.18,1.886-0.164
			c0.601-0.36,0.997-0.974,1.086-1.684C29.962,14.709,30,14.1,30,13.501S29.962,12.293,29.887,11.69z"/>
	</g>
</g>
</svg>
