<?xml version="1.0" encoding="iso-8859-1"?>
<!-- Generator: Adobe Illustrator 19.0.0, SVG Export Plug-In . SVG Version: 6.00 Build 0)  -->
<svg version="1.1" id="Layer_1" xmlns="http://www.w3.org/2000/svg" xmlns:xlink="http://www.w3.org/1999/xlink" x="0px" y="0px"
	 viewBox="0 0 30 30" style="enable-background:new 0 0 30 30;" xml:space="preserve">
<g>
	<g>
		<path d="M12.501,17c7.477,0,12.5-2.327,12.5-4.5V9.278c0-0.193-0.111-0.369-0.287-0.452c-0.174-0.082-0.381-0.056-0.531,0.065
			C21.851,10.81,17.375,12,12.501,12c-4.874,0-9.35-1.19-11.683-3.108C0.669,8.771,0.461,8.745,0.287,8.826
			C0.112,8.909,0,9.086,0,9.279V12.5C0.001,14.672,5.024,17,12.501,17z M25.001,20.5c0-0.276-0.224-0.5-0.5-0.5s-0.5,0.224-0.5,0.5
			v5.793l-1.146-1.146c-0.195-0.195-0.512-0.195-0.707,0s-0.195,0.512,0,0.707l2,2c0.047,0.047,0.101,0.08,0.157,0.105
			c0.002,0.001,0.003,0.003,0.005,0.004h0.002C24.373,27.987,24.437,28,24.502,28c0.064,0,0.129-0.013,0.189-0.037
			c0.06-0.025,0.116-0.061,0.164-0.109l2-2c0.195-0.195,0.195-0.512,0-0.707s-0.512-0.195-0.707,0l-1.146,1.146V20.5H25.001z
			 M12.501,11.06c7.009,0,12.5-2.429,12.5-5.53c0-0.005-0.002-0.01-0.002-0.015s0.002-0.01,0.002-0.015c0-3.084-5.491-5.5-12.5-5.5
			c-7.009,0-12.5,2.416-12.5,5.5c0,0.005,0.002,0.01,0.002,0.015s-0.002,0.01-0.002,0.015C0.001,8.632,5.492,11.06,12.501,11.06z
			 M12.501,23c4.1,0,7.829-0.72,10.231-1.976c0.165-0.087,0.269-0.257,0.269-0.443V20.5c0-0.827,0.673-1.5,1.5-1.5
			c0.276,0,0.5-0.224,0.5-0.5v-2.804c0-0.187-0.104-0.357-0.27-0.443c-0.165-0.087-0.365-0.073-0.518,0.034
			C21.83,16.961,17.341,18,12.5,18s-9.33-1.039-11.713-2.713c-0.152-0.107-0.353-0.121-0.518-0.034
			c-0.166,0.086-0.27,0.257-0.27,0.443V18.5C0.001,20.672,5.024,23,12.501,23z M29.501,26c-0.276,0-0.5,0.224-0.5,0.5V29h-9v-2.5
			c0-0.276-0.224-0.5-0.5-0.5s-0.5,0.224-0.5,0.5v3c0,0.276,0.224,0.5,0.5,0.5h10c0.276,0,0.5-0.224,0.5-0.5v-3
			C30.001,26.224,29.777,26,29.501,26z M20.607,25.497c0.118,0.131,0.294,0.188,0.466,0.156c0.172-0.034,0.314-0.154,0.374-0.319
			c0.078-0.212,0.193-0.396,0.344-0.546c0.215-0.216,0.491-0.358,0.798-0.413c0.239-0.042,0.413-0.25,0.413-0.492V22.76
			c0-0.168-0.084-0.324-0.224-0.417c-0.14-0.092-0.316-0.109-0.471-0.044C19.745,23.38,16.171,24,12.501,24
			c-4.841,0-9.33-1.039-11.713-2.713c-0.152-0.108-0.353-0.12-0.518-0.034C0.104,21.339,0,21.51,0,21.695v1.773
			c0,3.102,5.491,5.53,12.5,5.53c1.761,0,3.475-0.158,5.095-0.471C17.83,28.482,18,28.276,18,28.036V26.5c0-0.827,0.673-1.5,1.5-1.5
			C19.924,25,20.316,25.177,20.607,25.497z"/>
	</g>
</g>
</svg>
