<?xml version="1.0" encoding="iso-8859-1"?>
<!-- Generator: Adobe Illustrator 19.0.0, SVG Export Plug-In . SVG Version: 6.00 Build 0)  -->
<svg version="1.1" id="Layer_1" xmlns="http://www.w3.org/2000/svg" xmlns:xlink="http://www.w3.org/1999/xlink" x="0px" y="0px"
	 viewBox="0 0 30 30" style="enable-background:new 0 0 30 30;" xml:space="preserve">
<g>
	<g>
		<path d="M12.5,17.001c7.477,0,12.5-2.327,12.5-4.5V9.279c0.001-0.194-0.11-0.37-0.286-0.453c-0.173-0.082-0.38-0.056-0.531,0.065
			C21.851,10.81,17.375,12,12.5,12c-4.874,0-9.35-1.19-11.683-3.108C0.669,8.771,0.461,8.745,0.286,8.827
			C0.112,8.91,0,9.086,0,9.279v3.222C0,14.674,5.023,17.001,12.5,17.001z M23.5,17c-1.786,0-3.405,0.724-4.581,1.894
			c-0.005,0.004-0.011,0.006-0.015,0.01c-0.005,0.005-0.006,0.011-0.01,0.015C17.726,20.095,17,21.714,17,23.499
			c0,3.584,2.916,6.5,6.5,6.5c1.786,0,3.405-0.724,4.581-1.894c0.005-0.004,0.011-0.006,0.015-0.01
			c0.005-0.004,0.006-0.01,0.01-0.015C29.276,26.904,30,25.285,30,23.5C30,19.917,27.084,17,23.5,17z M23.5,29
			c-3.033,0-5.5-2.468-5.5-5.5c0-1.336,0.48-2.562,1.276-3.517l7.741,7.74C26.063,28.521,24.838,29,23.5,29z M27.724,27.017
			l-7.741-7.74c0.954-0.796,2.18-1.276,3.517-1.276C26.534,18,29,20.469,29,23.5C29,24.836,28.521,26.063,27.724,27.017z
			 M12.5,11.06c7.009,0,12.5-2.429,12.5-5.53c0-0.005-0.002-0.01-0.002-0.015S25,5.505,25,5.5C25,2.417,19.51,0,12.5,0
			C5.492,0,0,2.417,0,5.5c0,0.005,0.002,0.01,0.002,0.015S0,5.525,0,5.53C0,8.633,5.492,11.06,12.5,11.06z M12.5,23
			c1.051,0,2.078-0.049,3.139-0.149c0.229-0.022,0.415-0.198,0.447-0.427c0.216-1.492,0.873-2.871,1.898-3.987
			c0.144-0.156,0.173-0.388,0.072-0.575c-0.1-0.187-0.305-0.293-0.518-0.257C15.932,17.863,14.19,18,12.5,18
			c-4.841,0-9.33-1.039-11.713-2.713c-0.152-0.108-0.353-0.121-0.518-0.034C0.104,15.339,0,15.51,0,15.696V18.5
			C0,20.673,5.023,23,12.5,23z M16.044,24.299c-0.029-0.272-0.268-0.469-0.543-0.445C14.445,23.951,13.437,24,12.5,24
			c-4.841,0-9.33-1.039-11.713-2.713c-0.152-0.108-0.353-0.121-0.518-0.034C0.104,21.339,0,21.51,0,21.696v1.773
			c0,3.102,5.491,5.53,12.5,5.53c1.564,0,3.103-0.126,4.573-0.374c0.169-0.029,0.313-0.143,0.378-0.302
			c0.066-0.16,0.045-0.342-0.055-0.481C16.646,26.792,16.18,25.565,16.044,24.299z"/>
	</g>
</g>
</svg>
