<?xml version="1.0" encoding="iso-8859-1"?>
<!-- Generator: Adobe Illustrator 19.0.0, SVG Export Plug-In . SVG Version: 6.00 Build 0)  -->
<svg version="1.1" id="Layer_1" xmlns="http://www.w3.org/2000/svg" xmlns:xlink="http://www.w3.org/1999/xlink" x="0px" y="0px"
	 viewBox="0 0 30 30" style="enable-background:new 0 0 30 30;" xml:space="preserve">
<g>
	<g>
		<path d="M29.5,20h-4.662l-1.874-4.686c-0.152-0.381-0.776-0.381-0.929,0L20.161,20h-4.662c-0.208,0-0.395,0.129-0.468,0.324
			s-0.018,0.415,0.139,0.552l3.764,3.294l-1.417,5.198c-0.055,0.201,0.021,0.416,0.19,0.537c0.17,0.123,0.396,0.125,0.57,0.011
			l4.223-2.815l4.223,2.815C26.807,29.972,26.904,30,27,30c0.103,0,0.205-0.031,0.292-0.095c0.169-0.121,0.245-0.336,0.19-0.537
			l-1.417-5.198l3.764-3.294c0.157-0.137,0.212-0.356,0.139-0.552C29.895,20.128,29.708,20,29.5,20z M26.907,9.001L26.907,9.001
			C28.613,9,30,7.612,30,5.907V3.093C30,1.388,28.612,0,26.907,0H3.094C1.388,0,0.001,1.388,0.001,3.093v2.814
			C0.001,7.612,1.389,9,3.094,9H11v2H3.093C1.387,11,0,12.388,0,14.093v2.814C0,18.612,1.388,20,3.093,20H11v1h-0.5
			c-0.276,0-0.5,0.224-0.5,0.5V22H9.5C9.224,22,9,22.224,9,22.5V23H2.5C2.224,23,2,23.224,2,23.5S2.224,24,2.5,24H9v0.5
			C9,24.776,9.224,25,9.5,25h4c0.276,0,0.5-0.224,0.5-0.5V24h1.959c0.276,0,0.5-0.224,0.5-0.5s-0.224-0.5-0.5-0.5H14v-0.5
			c0-0.276-0.224-0.5-0.5-0.5H13v-0.5c0-0.276-0.224-0.5-0.5-0.5H12v-1h1.79c0.179,0,0.344-0.096,0.433-0.25
			C14.385,19.47,14.765,19,15.5,19h3.646c0.205,0,0.388-0.124,0.464-0.314l1.497-3.742c0.278-0.695,0.902-0.943,1.393-0.943
			s1.115,0.248,1.393,0.943l1.497,3.742C25.466,18.876,25.65,19,25.854,19h3.085c0.153,0,0.298-0.07,0.393-0.191
			C29.769,18.253,30,17.596,30,16.908v-2.814c0-1.705-1.388-3.093-3.093-3.093H12v-2H26.907z M25,3.5C25,3.224,25.224,3,25.5,3
			S26,3.224,26,3.5v2C26,5.776,25.776,6,25.5,6S25,5.776,25,5.5V3.5z M22,3.5C22,3.224,22.224,3,22.5,3S23,3.224,23,3.5v2
			C23,5.776,22.776,6,22.5,6S22,5.776,22,5.5V3.5z M19,3.5C19,3.224,19.224,3,19.5,3S20,3.224,20,3.5v2C20,5.776,19.776,6,19.5,6
			S19,5.776,19,5.5V3.5z M16,3.5C16,3.224,16.224,3,16.5,3S17,3.224,17,3.5v2C17,5.776,16.776,6,16.5,6S16,5.776,16,5.5V3.5z M4.5,6
			C3.673,6,3,5.327,3,4.5C3,3.673,3.673,3,4.5,3C5.327,3,6,3.673,6,4.5C6,5.327,5.327,6,4.5,6z M4.5,17C3.673,17,3,16.327,3,15.5
			C3,14.673,3.673,14,4.5,14C5.327,14,6,14.673,6,15.5C6,16.327,5.327,17,4.5,17z M25,14.5c0-0.276,0.224-0.5,0.5-0.5
			s0.5,0.224,0.5,0.5v2c0,0.276-0.224,0.5-0.5,0.5S25,16.776,25,16.5V14.5z M19,14.5c0-0.276,0.224-0.5,0.5-0.5s0.5,0.224,0.5,0.5v2
			c0,0.276-0.224,0.5-0.5,0.5S19,16.776,19,16.5V14.5z M16,14.5c0-0.276,0.224-0.5,0.5-0.5s0.5,0.224,0.5,0.5v2
			c0,0.276-0.224,0.5-0.5,0.5S16,16.776,16,16.5V14.5z"/>
	</g>
</g>
</svg>
