<?xml version="1.0" encoding="iso-8859-1"?>
<!-- Generator: Adobe Illustrator 19.0.0, SVG Export Plug-In . SVG Version: 6.00 Build 0)  -->
<svg version="1.1" id="Layer_1" xmlns="http://www.w3.org/2000/svg" xmlns:xlink="http://www.w3.org/1999/xlink" x="0px" y="0px"
	 viewBox="0 0 30 30" style="enable-background:new 0 0 30 30;" xml:space="preserve">
<g>
	<g>
		<path d="M29.883,11.836c-0.091-0.71-0.489-1.327-1.096-1.691c-0.59-0.354-1.298-0.417-1.954-0.17
			c-0.613,0.231-1.314-0.086-1.597-0.723c-0.293-0.662-0.654-1.295-1.073-1.885c-0.413-0.581-0.334-1.343,0.183-1.774
			c0.533-0.443,0.831-1.096,0.816-1.792c-0.014-0.707-0.345-1.36-0.907-1.791c-0.962-0.737-2.014-1.351-3.125-1.824
			c-0.654-0.278-1.38-0.244-1.995,0.096c-0.61,0.335-1.025,0.923-1.139,1.614c-0.11,0.668-0.709,1.12-1.427,1.043
			c-0.703-0.075-1.436-0.075-2.139,0c-0.703,0.076-1.316-0.375-1.427-1.043c-0.113-0.69-0.528-1.279-1.139-1.614
			c-0.616-0.34-1.344-0.374-1.994-0.096C8.758,0.659,7.706,1.273,6.744,2.01C6.181,2.441,5.85,3.093,5.837,3.801
			C5.822,4.497,6.12,5.151,6.653,5.594c0.518,0.43,0.596,1.192,0.183,1.773c-0.417,0.586-0.778,1.22-1.073,1.886
			C5.482,9.891,4.78,10.209,4.153,9.97c-0.644-0.242-1.351-0.179-1.94,0.175c-0.606,0.364-1.005,0.98-1.096,1.69
			C1.039,12.444,1,13.062,1,13.671s0.039,1.227,0.113,1.772c0,0.093,0.022,0.156,0.058,0.251c0.076,0.21,0.284,0.352,0.505,0.328
			c0.011,0,0.183-0.02,0.193-0.021h9.053c0.169,0,0.326-0.085,0.419-0.227c0.092-0.141,0.106-0.319,0.039-0.474
			C11.128,14.724,11,14.119,11,13.501c0-2.481,2.019-4.5,4.5-4.5s4.5,2.019,4.5,4.5c0,0.618-0.128,1.224-0.38,1.799
			c-0.067,0.155-0.053,0.333,0.039,0.474c0.093,0.142,0.25,0.227,0.419,0.227h1.031c1.488,0,2.709,1.126,2.841,2.619
			c0.02,0.224,0.187,0.407,0.407,0.448c0.03,0.005,0.061,0.008,0.091,0.008c0.188,0,0.364-0.107,0.449-0.281
			c0.17-0.349,0.308-0.633,0.339-0.705c0.282-0.638,0.989-0.953,1.61-0.717c0.645,0.244,1.351,0.181,1.94-0.175
			c0.606-0.364,1.005-0.98,1.096-1.69C29.961,14.898,30,14.281,30,13.671S29.961,12.445,29.883,11.836z M21.131,24.001H1.869
			C0.839,24.001,0,24.839,0,25.87v2.262c0,1.031,0.839,1.869,1.869,1.869h19.262c1.03,0,1.869-0.838,1.869-1.869V25.87
			C23,24.839,22.161,24.001,21.131,24.001z M4,28.001c-0.552,0-1-0.448-1-1s0.448-1,1-1s1,0.448,1,1S4.552,28.001,4,28.001z
			 M20.5,28.001h-6c-0.276,0-0.5-0.224-0.5-0.5s0.224-0.5,0.5-0.5h6c0.276,0,0.5,0.224,0.5,0.5S20.776,28.001,20.5,28.001z
			 M21.131,17.001H1.869C0.839,17.001,0,17.839,0,18.87v2.262c0,1.031,0.839,1.869,1.869,1.869h19.262
			c1.03,0,1.869-0.838,1.869-1.869V18.87C23,17.839,22.161,17.001,21.131,17.001z M4,21.001c-0.552,0-1-0.448-1-1s0.448-1,1-1
			s1,0.448,1,1S4.552,21.001,4,21.001z M20.5,21.001h-6c-0.276,0-0.5-0.224-0.5-0.5s0.224-0.5,0.5-0.5h6c0.276,0,0.5,0.224,0.5,0.5
			S20.776,21.001,20.5,21.001z"/>
	</g>
</g>
</svg>
