<?xml version="1.0" encoding="iso-8859-1"?>
<!-- Generator: Adobe Illustrator 19.0.0, SVG Export Plug-In . SVG Version: 6.00 Build 0)  -->
<svg version="1.1" id="Layer_1" xmlns="http://www.w3.org/2000/svg" xmlns:xlink="http://www.w3.org/1999/xlink" x="0px" y="0px"
	 viewBox="0 0 30 30" style="enable-background:new 0 0 30 30;" xml:space="preserve">
<g>
	<g>
		<path d="M27.074,6H2.926C1.313,6,0,7.313,0,8.926v2.148C0,12.687,1.313,14,2.926,14h24.148C28.687,14,30,12.687,30,11.074V8.926
			C30,7.312,28.687,6,27.074,6z M4,11c-0.551,0-1-0.449-1-1c0-0.551,0.449-1,1-1c0.551,0,1,0.449,1,1C5,10.551,4.551,11,4,11z
			 M16.5,11c-0.276,0-0.5-0.224-0.5-0.5s0.224-0.5,0.5-0.5s0.5,0.224,0.5,0.5S16.776,11,16.5,11z M19.5,11
			c-0.276,0-0.5-0.224-0.5-0.5s0.224-0.5,0.5-0.5s0.5,0.224,0.5,0.5S19.776,11,19.5,11z M22.5,11c-0.276,0-0.5-0.224-0.5-0.5
			s0.224-0.5,0.5-0.5s0.5,0.224,0.5,0.5S22.776,11,22.5,11z M25.5,11c-0.276,0-0.5-0.224-0.5-0.5s0.224-0.5,0.5-0.5
			s0.5,0.224,0.5,0.5S25.776,11,25.5,11z M2.969,5h24.063c0.183,0,0.352-0.101,0.44-0.262c0.087-0.162,0.079-0.358-0.022-0.512
			l-1.888-2.878C25.009,0.504,24.056,0,23.014,0H6.987C5.945,0,4.992,0.504,4.439,1.348L2.551,4.226
			C2.45,4.38,2.442,4.576,2.529,4.738C2.616,4.899,2.785,5,2.969,5z M27.074,15H2.926C1.313,15,0,16.313,0,17.926v2.148
			C0,21.687,1.313,23,2.926,23H11v3h-0.5c-0.276,0-0.5,0.224-0.5,0.5V27H9.5C9.224,27,9,27.224,9,27.5V28H2.5
			C2.224,28,2,28.224,2,28.5S2.224,29,2.5,29H9v0.5C9,29.776,9.224,30,9.5,30h4c0.276,0,0.5-0.224,0.5-0.5V29h6.5
			c0.276,0,0.5-0.224,0.5-0.5S20.776,28,20.5,28H14v-0.5c0-0.276-0.224-0.5-0.5-0.5H13v-0.5c0-0.276-0.224-0.5-0.5-0.5H12v-3h15.074
			C28.687,23,30,21.687,30,20.074v-2.148C30,16.312,28.687,15,27.074,15z M4,20c-0.551,0-1-0.449-1-1c0-0.551,0.449-1,1-1
			c0.551,0,1,0.449,1,1C5,19.551,4.551,20,4,20z M16.5,20c-0.276,0-0.5-0.224-0.5-0.5s0.224-0.5,0.5-0.5s0.5,0.224,0.5,0.5
			S16.776,20,16.5,20z M19.5,20c-0.276,0-0.5-0.224-0.5-0.5s0.224-0.5,0.5-0.5s0.5,0.224,0.5,0.5S19.776,20,19.5,20z M22.5,20
			c-0.276,0-0.5-0.224-0.5-0.5s0.224-0.5,0.5-0.5s0.5,0.224,0.5,0.5S22.776,20,22.5,20z M25.5,20c-0.276,0-0.5-0.224-0.5-0.5
			s0.224-0.5,0.5-0.5s0.5,0.224,0.5,0.5S25.776,20,25.5,20z"/>
	</g>
</g>
</svg>
