<?xml version="1.0" encoding="iso-8859-1"?>
<!-- Generator: Adobe Illustrator 19.0.0, SVG Export Plug-In . SVG Version: 6.00 Build 0)  -->
<svg version="1.1" id="Layer_1" xmlns="http://www.w3.org/2000/svg" xmlns:xlink="http://www.w3.org/1999/xlink" x="0px" y="0px"
	 viewBox="0 0 30 30" style="enable-background:new 0 0 30 30;" xml:space="preserve">
<g>
	<g>
		<path d="M22.131,24.001H1.869C0.839,24.001,0,24.839,0,25.87v2.262c0,1.031,0.839,1.869,1.869,1.869h20.262
			c1.03,0,1.869-0.838,1.869-1.869V25.87C24,24.839,23.161,24.001,22.131,24.001z M4,28.001c-0.552,0-1-0.448-1-1s0.448-1,1-1
			s1,0.448,1,1S4.552,28.001,4,28.001z M20.5,28.001h-6c-0.276,0-0.5-0.224-0.5-0.5s0.224-0.5,0.5-0.5h6c0.276,0,0.5,0.224,0.5,0.5
			S20.776,28.001,20.5,28.001z M6.5,16.002c0.276,0,0.5-0.224,0.5-0.5v-6c0-0.827,0.673-1.5,1.5-1.5h5.793l-0.146,0.146
			c-0.195,0.195-0.195,0.512,0,0.707s0.512,0.195,0.707,0l0.997-0.997c0.011-0.01,0.021-0.021,0.03-0.032
			c0.065-0.077,0.104-0.169,0.115-0.264C16,7.533,16.001,7.503,15.999,7.474c-0.007-0.119-0.055-0.234-0.143-0.324
			c-0.001,0-0.001-0.001-0.002-0.001c0,0-0.001,0-0.001-0.001l-1-1c-0.195-0.195-0.512-0.195-0.707,0
			C14.048,6.246,14,6.374,14,6.502s0.049,0.256,0.146,0.354l0.146,0.146H8.5c-1.379,0-2.5,1.122-2.5,2.5v6
			C6,15.778,6.224,16.002,6.5,16.002z M22.131,17.001H1.869C0.839,17.001,0,17.839,0,18.87v2.262c0,1.031,0.839,1.869,1.869,1.869
			h20.262c1.03,0,1.869-0.838,1.869-1.869V18.87C24,17.839,23.161,17.001,22.131,17.001z M4,21.001c-0.552,0-1-0.448-1-1
			s0.448-1,1-1s1,0.448,1,1S4.552,21.001,4,21.001z M20.5,21.001h-6c-0.276,0-0.5-0.224-0.5-0.5s0.224-0.5,0.5-0.5h6
			c0.276,0,0.5,0.224,0.5,0.5S20.776,21.001,20.5,21.001z M27.429,10.207l-2.038-0.51l-0.123-0.493
			c0.535-0.566,0.908-1.307,1.047-2.074c0.337-0.146,0.587-0.462,0.635-0.846l0.142-1.13c0.038-0.3-0.055-0.603-0.254-0.831
			c-0.08-0.092-0.175-0.168-0.278-0.228L26.6,3.26l0.157-0.158c0.305-0.324,0.716-1.018,0.054-2.029
			c-0.321-0.49-0.984-1.074-2.323-1.074c-0.405,0-1.328,0-2.21,0.568c-2.553,0.074-2.885,1.357-2.885,2.475
			c0,0.229,0.046,0.686,0.084,1.033c-0.115,0.06-0.22,0.141-0.308,0.24c-0.202,0.229-0.297,0.534-0.259,0.837l0.142,1.13
			C19.101,6.677,19.364,7,19.753,7.14c0.137,0.737,0.49,1.454,0.994,2.008L20.61,9.694l-2.038,0.51
			c-1.514,0.378-2.571,1.733-2.571,3.294c0,0.133,0.053,0.26,0.146,0.354c0.093,0.094,0.22,0.149,0.353,0.149L29.5,14
			c0.276,0,0.5-0.224,0.5-0.5C30,11.939,28.942,10.585,27.429,10.207z M28.5,15.001c-0.276,0-0.5,0.224-0.5,0.5v7
			c0,0.276-0.225,0.5-0.5,0.5h-0.793l0.146-0.146c0.195-0.195,0.195-0.512,0-0.707s-0.512-0.195-0.707,0l-0.997,0.997
			c-0.011,0.01-0.021,0.021-0.03,0.032c-0.065,0.077-0.104,0.169-0.115,0.264C25,23.47,24.999,23.5,25.001,23.529
			c0.007,0.117,0.055,0.231,0.143,0.321c0.001,0,0.001,0,0.001,0s0,0,0.001,0c0,0,0.001,0,0.001,0.001l1,1
			c0.098,0.098,0.226,0.146,0.354,0.146s0.256-0.049,0.354-0.146C26.953,24.754,27,24.629,27,24.501s-0.049-0.256-0.146-0.354
			l-0.147-0.146H27.5c0.827,0,1.5-0.673,1.5-1.5v-7C29,15.225,28.776,15.001,28.5,15.001z"/>
	</g>
</g>
</svg>
