<?xml version="1.0" encoding="iso-8859-1"?>
<!-- Generator: Adobe Illustrator 19.0.0, SVG Export Plug-In . SVG Version: 6.00 Build 0)  -->
<svg version="1.1" id="Layer_1" xmlns="http://www.w3.org/2000/svg" xmlns:xlink="http://www.w3.org/1999/xlink" x="0px" y="0px"
	 viewBox="0 0 30 30" style="enable-background:new 0 0 30 30;" xml:space="preserve">
<g>
	<g>
		<path d="M26.907,0H3.093C1.388,0,0,1.388,0,3.093v2.813c0,1.706,1.388,3.093,3.093,3.093H11v2H3.093
			C1.388,10.999,0,12.387,0,14.092v2.813c0,1.706,1.388,3.093,3.093,3.093H11v1h-0.5c-0.276,0-0.5,0.224-0.5,0.5V22H9.5
			C9.224,22,9,22.224,9,22.5V23H2.5C2.224,23,2,23.224,2,23.5S2.224,24,2.5,24H9v0.5C9,24.776,9.224,25,9.5,25h4
			c0.276,0,0.5-0.224,0.5-0.5V24h1.5c0.276,0,0.5-0.224,0.5-0.5S15.776,23,15.5,23H14v-0.5c0-0.276-0.224-0.5-0.5-0.5H13v-0.5
			c0-0.276-0.224-0.5-0.5-0.5H12v-1h4.582c0.178,0,0.343-0.095,0.433-0.249C18.101,17.882,19.936,16.6,22,16.17V14.5
			c0-0.276,0.224-0.5,0.5-0.5s0.5,0.224,0.5,0.5v1.534C23.167,16.023,23.332,16,23.5,16c0.51,0,1.012,0.051,1.5,0.15V14.5
			c0-0.276,0.224-0.5,0.5-0.5s0.5,0.224,0.5,0.5v1.937c1.085,0.386,2.078,1.016,2.905,1.879c0.116,0.12,0.281,0.175,0.445,0.146
			c0.164-0.028,0.303-0.135,0.371-0.286c0.185-0.406,0.278-0.833,0.278-1.27v-2.813c0-1.706-1.388-3.093-3.093-3.093H12V9h14.907
			C28.612,9,30,7.612,30,5.907V3.093C30,1.388,28.612,0,26.907,0z M4.5,6C3.673,6,3,5.327,3,4.5S3.673,3,4.5,3
			C5.327,3,6,3.673,6,4.5S5.327,6,4.5,6z M4.5,17C3.673,17,3,16.327,3,15.5S3.673,14,4.5,14C5.327,14,6,14.673,6,15.5
			S5.327,17,4.5,17z M19,14.5c0-0.276,0.224-0.5,0.5-0.5s0.5,0.224,0.5,0.5v2c0,0.276-0.224,0.5-0.5,0.5S19,16.776,19,16.5V14.5z
			 M16,14.5c0-0.276,0.224-0.5,0.5-0.5s0.5,0.224,0.5,0.5v2c0,0.276-0.224,0.5-0.5,0.5S16,16.776,16,16.5V14.5z M17,5.5
			C17,5.776,16.776,6,16.5,6S16,5.776,16,5.5v-2C16,3.224,16.224,3,16.5,3S17,3.224,17,3.5V5.5z M20,5.5C20,5.776,19.776,6,19.5,6
			S19,5.776,19,5.5v-2C19,3.224,19.224,3,19.5,3S20,3.224,20,3.5V5.5z M23,5.5C23,5.776,22.776,6,22.5,6S22,5.776,22,5.5v-2
			C22,3.224,22.224,3,22.5,3S23,3.224,23,3.5V5.5z M26,5.5C26,5.776,25.776,6,25.5,6S25,5.776,25,5.5v-2C25,3.224,25.224,3,25.5,3
			S26,3.224,26,3.5V5.5z M23.5,17c-3.584,0-6.5,2.916-6.5,6.5s2.916,6.5,6.5,6.5s6.5-2.916,6.5-6.5S27.084,17,23.5,17z M23.5,28
			c-0.276,0-0.5-0.224-0.5-0.5s0.224-0.5,0.5-0.5s0.5,0.224,0.5,0.5S23.776,28,23.5,28z M24,23.965V24.5c0,0.276-0.224,0.5-0.5,0.5
			S23,24.776,23,24.5v-1c0-0.276,0.224-0.5,0.5-0.5c1.103,0,2-0.673,2-1.5s-0.897-1.5-2-1.5c-1.103,0-2,0.673-2,1.5
			c0,0.276-0.224,0.5-0.5,0.5s-0.5-0.224-0.5-0.5c0-1.379,1.346-2.5,3-2.5s3,1.121,3,2.5C26.5,22.736,25.417,23.767,24,23.965z"/>
	</g>
</g>
</svg>
