<?xml version="1.0" encoding="utf-8"?>
<!-- Generator: Adobe Illustrator 19.0.0, SVG Export Plug-In . SVG Version: 6.00 Build 0)  -->
<svg version="1.1" id="Layer_1" xmlns="http://www.w3.org/2000/svg" xmlns:xlink="http://www.w3.org/1999/xlink" x="0px" y="0px"
	 viewBox="0 0 30 30" style="enable-background:new 0 0 30 30;" xml:space="preserve">
<g>
	<g>
		<path d="M4.9,19.5H2c-0.6,0-1.2-0.3-1.6-0.7C0.1,18.4,0,17.9,0,17.5c0,0,0,0,0,0L2,7.9C2.6,5.7,4,4.5,6,4.5h8.5
			c1.5,0,2.5,1.2,2.5,3V11c0,1.7-0.8,2.5-2.5,2.5H7.9l-1.3,4.6C6.4,18.9,5.7,19.5,4.9,19.5z M1,17.7c0,0.2,0,0.3,0.1,0.5
			c0.2,0.2,0.5,0.4,0.8,0.4h2.9c0.4,0,0.7-0.3,0.7-0.6l1.4-5c0.1-0.2,0.3-0.4,0.5-0.4h7c1.1,0,1.5-0.4,1.5-1.5V7.5
			c0-0.6-0.1-2-1.5-2H6c-1.9,0-2.7,1.4-3,2.6L1,17.7z"/>
	</g>
	<g>
		<path d="M11.5,25.5h-5c-2.4,0-4-1.6-4-4V19c0-0.3,0.2-0.5,0.5-0.5s0.5,0.2,0.5,0.5v2.5c0,1.8,1.2,3,3,3h5c0.3,0,0.5,0.2,0.5,0.5
			S11.8,25.5,11.5,25.5z"/>
	</g>
	<g>
		<path d="M17.8,11.5c-0.3,0-0.7-0.1-1-0.3c-0.5-0.4-0.8-1-0.8-1.7v-1c0-0.6,0.3-1.2,0.8-1.6c0.4-0.3,0.9-0.4,1.4-0.3l2.5,0.6
			C21.4,7.4,22,8.1,22,8.9v0.5c0,0.8-0.5,1.3-1.4,1.6l-2.5,0.5C18,11.5,17.9,11.5,17.8,11.5z M17.8,7.5c-0.2,0-0.3,0.1-0.4,0.2
			C17.1,7.9,17,8.2,17,8.5v1c0,0.3,0.2,0.7,0.4,0.9c0.2,0.1,0.3,0.2,0.4,0.1l2.5-0.5C20.6,10,21,9.8,21,9.4V8.9
			c0-0.3-0.2-0.6-0.6-0.7l-2.5-0.6C17.9,7.5,17.8,7.5,17.8,7.5z"/>
	</g>
	<g>
		<path d="M21.7,9.5c-0.3,0-0.5-0.2-0.5-0.5s0.2-0.5,0.5-0.5l7.8,0C29.8,8.5,30,8.7,30,9s-0.2,0.5-0.5,0.5L21.7,9.5z"/>
	</g>
	<g>
		<path d="M14.5,8.5h-5C9.2,8.5,9,8.3,9,8s0.2-0.5,0.5-0.5h5C14.8,7.5,15,7.7,15,8S14.8,8.5,14.5,8.5z"/>
	</g>
	<g>
		<path d="M14.5,10.5h-5C9.2,10.5,9,10.3,9,10s0.2-0.5,0.5-0.5h5c0.3,0,0.5,0.2,0.5,0.5S14.8,10.5,14.5,10.5z"/>
	</g>
	<g>
		<path d="M9.5,15.5C9.2,15.5,9,15.3,9,15v-2c0-0.3,0.2-0.5,0.5-0.5S10,12.7,10,13v2C10,15.3,9.8,15.5,9.5,15.5z"/>
	</g>
</g>
</svg>
