<?xml version="1.0" encoding="utf-8"?>
<!-- Generator: Adobe Illustrator 19.0.0, SVG Export Plug-In . SVG Version: 6.00 Build 0)  -->
<svg version="1.1" id="Layer_1" xmlns="http://www.w3.org/2000/svg" xmlns:xlink="http://www.w3.org/1999/xlink" x="0px" y="0px"
	 viewBox="0 0 30 30" style="enable-background:new 0 0 30 30;" xml:space="preserve">
<g>
	<g>
		<path d="M18,30h-6c-0.1,0-0.3-0.1-0.4-0.2c-0.1-0.1-0.1-0.3-0.1-0.4l2-12c0-0.2,0.2-0.4,0.5-0.4h2c0.2,0,0.5,0.2,0.5,0.4l2,12
			c0,0.1,0,0.3-0.1,0.4C18.3,29.9,18.1,30,18,30z M12.6,29h4.8l-1.8-11h-1.2L12.6,29z"/>
	</g>
	<g>
		<path d="M15,12c-1.4,0-2.5-1.1-2.5-2.5C12.5,8.9,13,6,14,0.8C14.1,0.4,14.5,0,15,0s0.9,0.3,1,0.8c1,5.1,1.5,8,1.5,8.6
			C17.5,10.9,16.4,12,15,12z M15,1c-1.4,6.9-1.5,8.2-1.5,8.4c0,0.8,0.7,1.5,1.5,1.5s1.5-0.7,1.5-1.5C16.5,9.2,16.4,7.9,15,1z"/>
	</g>
	<g>
		<path d="M4.2,20.7c-0.3,0-0.7-0.2-0.9-0.5c-0.2-0.4-0.2-0.9,0.2-1.3c3.9-3.4,6.2-5.3,6.7-5.6l0,0c0.6-0.3,1.3-0.4,1.9-0.3
			c0.6,0.2,1.2,0.6,1.5,1.2c0.3,0.6,0.4,1.3,0.2,1.9c-0.2,0.6-0.6,1.2-1.2,1.5c-0.5,0.3-3.3,1.3-8.2,3C4.4,20.7,4.3,20.7,4.2,20.7z
			 M11.5,14c-0.3,0-0.5,0.1-0.7,0.2l0,0c-0.2,0.1-1.3,0.9-6.6,5.5c6.6-2.3,7.8-2.8,8.1-2.9c0.3-0.2,0.6-0.5,0.7-0.9s0.1-0.8-0.1-1.1
			s-0.5-0.6-0.9-0.7C11.8,14,11.7,14,11.5,14z"/>
	</g>
	<g>
		<path d="M25.8,20.7c-0.1,0-0.2,0-0.3-0.1c-4.9-1.7-7.7-2.7-8.2-3l0,0c-0.6-0.3-1-0.9-1.2-1.5c-0.2-0.6-0.1-1.3,0.3-1.9
			c0.3-0.6,0.9-1,1.5-1.2c0.6-0.2,1.3-0.1,1.9,0.3c0.5,0.3,2.8,2.2,6.7,5.6c0.4,0.3,0.4,0.8,0.2,1.3C26.5,20.5,26.1,20.7,25.8,20.7z
			 M17.7,16.8c0.2,0.1,1.4,0.7,8.1,2.9c-5.3-4.6-6.4-5.4-6.6-5.5c-0.3-0.2-0.8-0.3-1.1-0.2c-0.4,0.1-0.7,0.4-0.9,0.7
			c-0.2,0.3-0.3,0.8-0.2,1.1S17.4,16.6,17.7,16.8L17.7,16.8z"/>
	</g>
	<g>
		<path d="M15,16c-1.4,0-2.5-1.1-2.5-2.5S13.6,11,15,11s2.5,1.1,2.5,2.5S16.4,16,15,16z M15,12c-0.8,0-1.5,0.7-1.5,1.5
			S14.2,15,15,15s1.5-0.7,1.5-1.5S15.8,12,15,12z"/>
	</g>
</g>
</svg>
