<?xml version="1.0" encoding="utf-8"?>
<!-- Generator: Adobe Illustrator 19.0.0, SVG Export Plug-In . SVG Version: 6.00 Build 0)  -->
<svg version="1.1" id="Layer_1" xmlns="http://www.w3.org/2000/svg" xmlns:xlink="http://www.w3.org/1999/xlink" x="0px" y="0px"
	 viewBox="0 0 30 30" style="enable-background:new 0 0 30 30;" xml:space="preserve">
<g>
	<path d="M24.7,20.3l-3.2-1.1c-0.2-0.1-0.4,0-0.5,0.1C19.3,21,17.3,22,15.2,22s-4.2-1-5.8-2.7c-0.1-0.1-0.3-0.2-0.5-0.1l-3.2,1.1
		C2.5,21.4,0,25.1,0,28.6v0.9C0,29.8,0.2,30,0.5,30h29c0.3,0,0.5-0.2,0.5-0.5v-0.9C30,25.5,28.1,21.5,24.7,20.3z"/>
	<path d="M11.5,12h1c0.3,0,0.5-0.2,0.5-0.5S12.8,11,12.5,11h-1c-0.3,0-0.5,0.2-0.5,0.5S11.2,12,11.5,12z"/>
	<path d="M17.5,12h1c0.3,0,0.5-0.2,0.5-0.5S18.8,11,18.5,11h-1c-0.3,0-0.5,0.2-0.5,0.5S17.2,12,17.5,12z"/>
	<path d="M7.8,14.6C8.9,18.3,11.9,21,15,21c3.2,0,6.2-2.4,7.2-6c1,0,1.8-1.3,1.8-3c0-1.4-0.5-2.5-1.3-2.9c0-0.1,0-0.2,0-0.3
		c0-3.3-2.1-6.2-5.1-7.2l0.3-1c0.1-0.2,0-0.3-0.1-0.5C17.8,0.1,17.7,0,17.5,0h-5c-0.2,0-0.3,0.1-0.4,0.2C12,0.3,12,0.5,12,0.7l0.3,1
		c-3.1,1-5.1,3.6-5.1,6.8c0,0.1,0,0.2,0,0.2C6.5,9.1,6,10.2,6,11.6C6,13.3,6.8,14.6,7.8,14.6z M7.7,9.6C7.7,9.6,7.8,9.6,7.7,9.6
		c0.2,0,0.3,0,0.4-0.1c0.1-0.1,0.2-0.3,0.1-0.4l0-0.2c0-0.1,0-0.3,0-0.4c0-2.8,1.8-5.1,4.4-5.9l1.3,4C14.1,6.9,14.3,7,14.5,7h1
		c0.2,0,0.4-0.1,0.5-0.3l1.3-4c2.6,0.8,4.4,3.4,4.4,6.2c0,0.1,0,0.3,0,0.4l0,0.2c0,0.1,0,0.3,0.1,0.4c0.1,0.1,0.2,0.2,0.4,0.2
		c0,0,0,0,0.1,0c0.3,0.1,0.7,0.8,0.7,2c0,1.2-0.5,2-0.8,2c0,0,0,0-0.1,0c-0.1-0.1-0.3-0.1-0.5,0c-0.1,0.1-0.3,0.2-0.3,0.3
		C20.6,17.6,17.9,20,15,20c-2.8,0-5.5-2.6-6.4-6.1c0-0.2-0.1-0.3-0.3-0.3c-0.1-0.1-0.3,0-0.5,0c-0.1,0-0.1,0-0.1,0
		c-0.3,0-0.8-0.8-0.8-2C7,10.4,7.4,9.7,7.7,9.6z"/>
</g>
</svg>
