<?xml version="1.0" encoding="utf-8"?>
<!-- Generator: Adobe Illustrator 19.0.0, SVG Export Plug-In . SVG Version: 6.00 Build 0)  -->
<svg version="1.1" id="Layer_1" xmlns="http://www.w3.org/2000/svg" xmlns:xlink="http://www.w3.org/1999/xlink" x="0px" y="0px"
	 viewBox="0 0 30 30" style="enable-background:new 0 0 30 30;" xml:space="preserve">
<g>
	<path d="M21,25.5v-0.7l1.7-0.9c0,0,0.1-0.1,0.1-0.1l3-3c0.1-0.1,0.2-0.3,0.1-0.5c0-0.2-0.2-0.3-0.4-0.4l-4-1
		c-0.2-0.1-0.4,0-0.5,0.2l-6.6,9.4l-6.1-9.4C8.3,19,8.1,19,7.9,19l-3.5,1c-0.2,0-0.3,0.2-0.3,0.4s0,0.4,0.1,0.5l3,3
		c0,0,0.1,0.1,0.1,0.1L9,24.8v0.7c0,0.2,0.1,0.3,0.2,0.4l5,4c0,0,0.1,0,0.1,0.1l0,0c0.1,0,0.1,0,0.2,0l0,0l0,0c0,0,0,0,0,0
		c0.1,0,0.1,0,0.2,0c0,0,0.1,0,0.1-0.1l6-4C20.9,25.8,21,25.7,21,25.5z"/>
	<path d="M25.9,22.7c-0.2-0.1-0.4-0.1-0.6,0.1l-1.7,1.7c-0.1,0.1-0.2,0.2-0.4,0.3l-0.9,0.5c-0.2,0.1-0.3,0.2-0.3,0.4
		c-0.1,0.4-0.3,0.8-0.7,1.1l-3.5,2.3c-0.2,0.1-0.3,0.3-0.2,0.6s0.3,0.4,0.5,0.4h11.4c0.3,0,0.5-0.2,0.5-0.5
		C30,26.8,28.4,24.2,25.9,22.7z"/>
	<path d="M8.6,26.7c-0.3-0.2-0.5-0.6-0.6-1c0-0.2-0.1-0.3-0.3-0.4l-0.9-0.5c-0.1-0.1-0.3-0.2-0.4-0.3l-1.8-1.8
		c-0.2-0.2-0.4-0.2-0.6-0.1c-2.5,1.4-4,4-4,6.8C0,29.8,0.2,30,0.5,30h10.8c0.2,0,0.4-0.1,0.5-0.3s0-0.4-0.2-0.6L8.6,26.7z"/>
	<path d="M7,10.3c-0.6,0.5-1,1.5-1,2.7c0,1.7,0.8,3,1.8,3c0,0,0,0,0,0c1.1,3.6,4,6,7.2,6s6.2-2.4,7.2-6c1,0,1.8-1.3,1.8-3
		c0-1.1-0.5-2.1-1.1-2.7C25.2,9.9,27,9.2,27,8c0-0.7-0.6-1.6-5-2.3c-1-3-2.8-5.7-4.5-5.7c-1.2,0-2,0.5-2.5,0.8
		C14.5,0.5,13.7,0,12.5,0c-1.6,0-3.8,2.5-4.9,5.5c-0.1,0-0.1,0-0.2,0C4.5,6,3,6.9,3,8C3,9.1,4.7,9.9,7,10.3z M21.7,11l0.3,0
		c0.3,0,1,0.8,1,2c0,1.2-0.5,2-0.8,2c0,0,0,0-0.1,0c-0.1-0.1-0.3-0.1-0.5,0s-0.3,0.2-0.3,0.3C20.6,18.6,17.9,21,15,21
		s-5.6-2.4-6.4-5.7c0-0.2-0.1-0.3-0.3-0.3c-0.1-0.1-0.3,0-0.5,0c-0.1,0-0.1,0-0.1,0C7.5,15,7,14.2,7,13s0.5-2,0.7-2L8,11
		c0.3,0,0.5-0.2,0.5-0.4c0.3,0,0.7,0.1,1,0.1C9.1,11.2,9,11.8,9,12.5c0,1.2,0.8,2.5,2.5,2.5c1.6,0,3.5-1.1,3.5-2.5
		c0,1.4,1.9,2.5,3.5,2.5c1.7,0,2.5-1.3,2.5-2.5c0-0.7-0.1-1.3-0.6-1.8c0.3,0,0.5-0.1,0.8-0.1C21.3,10.8,21.5,11,21.7,11z M15,12.3
		c0-0.4,0-0.9-0.2-1.3c0.1,0,0.1,0,0.2,0s0.1,0,0.2,0C15,11.4,15,11.9,15,12.3z M9.2,4.6c0.2-0.2,0.5-0.1,0.7,0.1
		c0,0,1.2,1.3,4.7,1.3c3.6,0,5.1-1.4,5.1-1.4c0.2-0.2,0.5-0.2,0.7,0c0.2,0.2,0.2,0.5,0,0.7C20.3,5.4,18.5,7,14.5,7
		c-4,0-5.4-1.6-5.4-1.7C8.9,5.1,9,4.8,9.2,4.6z"/>
</g>
</svg>
