<?xml version="1.0" encoding="iso-8859-1"?>
<!-- Generator: Adobe Illustrator 19.0.0, SVG Export Plug-In . SVG Version: 6.00 Build 0)  -->
<svg version="1.1" id="Layer_1" xmlns="http://www.w3.org/2000/svg" xmlns:xlink="http://www.w3.org/1999/xlink" x="0px" y="0px"
	 viewBox="0 0 30 30" style="enable-background:new 0 0 30 30;" xml:space="preserve">
<g>
	<g>
		<path d="M25.479,18.02c0-1.635-1.325-2.965-2.957-2.976c0.285-0.457,0.457-0.991,0.457-1.568c0-1.642-1.336-2.978-2.978-2.978
			c-1.034,0-1.944,0.53-2.478,1.331c-0.142-0.213-0.317-0.399-0.508-0.569c3.842-0.892,6.464-4.3,6.464-8.762
			c0-0.276-0.224-0.5-0.5-0.5c-3.327,0-5.847,1.878-7.249,4.354c0.538-3.414,1.674-5.587,1.69-5.617
			c0.099-0.185,0.072-0.413-0.068-0.569c-0.139-0.156-0.361-0.209-0.558-0.131c-0.007,0.002-0.689,0.271-1.473,0.271
			c-0.432,0-0.803-0.083-1.103-0.246c-0.163-0.088-0.36-0.08-0.515,0.022c-0.154,0.102-0.239,0.28-0.222,0.464l0.954,10.016
			c-0.793,0.165-1.466,0.649-1.891,1.308c-0.531-0.823-1.45-1.371-2.5-1.371c-1.643,0-2.979,1.336-2.979,2.978
			c0,0.577,0.172,1.111,0.457,1.568c-0.007,0-0.014-0.002-0.022-0.002c-1.643,0-2.979,1.336-2.979,2.979
			c0,1.633,1.323,2.961,2.953,2.975c-0.254,0.438-0.41,0.939-0.41,1.481c0,1.621,1.303,2.938,2.916,2.972
			c-0.286,0.457-0.459,0.993-0.459,1.572C9.521,28.664,10.857,30,12.5,30c1.049,0,1.969-0.549,2.5-1.371
			C15.531,29.452,16.45,30,17.5,30c1.642,0,2.978-1.336,2.978-2.978c0-0.577-0.172-1.111-0.457-1.568
			c0.008,0,0.015,0.002,0.022,0.002c1.642,0,2.978-1.336,2.978-2.979c0-0.545-0.158-1.049-0.414-1.489
			C24.2,20.929,25.479,19.625,25.479,18.02z"/>
	</g>
</g>
</svg>
