<?xml version="1.0" encoding="iso-8859-1"?>
<!-- Generator: Adobe Illustrator 19.0.0, SVG Export Plug-In . SVG Version: 6.00 Build 0)  -->
<svg version="1.1" id="Layer_1" xmlns="http://www.w3.org/2000/svg" xmlns:xlink="http://www.w3.org/1999/xlink" x="0px" y="0px"
	 viewBox="0 0 30 30" style="enable-background:new 0 0 30 30;" xml:space="preserve">
<g>
	<g>
		<path d="M15,9h0.006c0.276-0.003,0.497-0.23,0.494-0.506c-0.036-2.905,1.338-6.518,3.698-7.535
			c0.253-0.109,0.37-0.403,0.261-0.657c-0.108-0.254-0.404-0.37-0.657-0.261c-2.847,1.226-4.341,5.277-4.302,8.465
			C14.504,8.78,14.727,9,15,9z M18,9c-0.656,0-1.391,0.09-2.099,0.243c1.137,1.136,1.599,3.123,1.599,6.257
			c0,0.276-0.224,0.5-0.5,0.5s-0.5-0.224-0.5-0.5c0-4.372-0.912-5.89-2.801-6.335C13.119,9.062,12.533,9,12,9
			c-5.327,0-9.5,4.612-9.5,10.5S6.673,30,12,30c0.773,0,1.58-0.356,2.292-0.671c0.245-0.108,0.483-0.214,0.708-0.298
			c0.225,0.084,0.463,0.19,0.708,0.298C16.42,29.644,17.227,30,18,30c5.327,0,9.5-4.612,9.5-10.5S23.327,9,18,9z M13,8
			c0.276,0,0.5-0.224,0.5-0.5C13.5,3.959,10.293,0,6,0C5.724,0,5.5,0.224,5.5,0.5C5.5,4.041,8.707,8,13,8z"/>
	</g>
</g>
</svg>
