<?xml version="1.0" encoding="iso-8859-1"?>
<!-- Generator: Adobe Illustrator 19.0.0, SVG Export Plug-In . SVG Version: 6.00 Build 0)  -->
<svg version="1.1" id="Layer_1" xmlns="http://www.w3.org/2000/svg" xmlns:xlink="http://www.w3.org/1999/xlink" x="0px" y="0px"
	 viewBox="0 0 30 30" style="enable-background:new 0 0 30 30;" xml:space="preserve">
<g>
	<g>
		<path d="M14.5,9h0.006C14.782,8.997,15.003,8.77,15,8.494c-0.036-2.905,1.338-6.518,3.698-7.535
			c0.253-0.109,0.37-0.403,0.261-0.657c-0.109-0.254-0.404-0.37-0.657-0.261C15.456,1.267,13.961,5.318,14,8.506
			C14.005,8.78,14.227,9,14.5,9z M12.5,8C12.776,8,13,7.776,13,7.5C13,3.959,9.794,0,5.5,0C5.224,0,5,0.224,5,0.5
			C5,4.041,8.208,8,12.5,8z M17,9c-1.008,0-1.62,0.162-2.438,0.432c-0.683-0.22-1.333-0.372-2.192-0.413
			c-0.007-0.001-0.013-0.005-0.021-0.005l-0.105-0.006C12.164,9.004,12.086,9,12,9c-5.215,0-9,4.416-9,10.5
			C3,25.78,6.417,30,11.5,30c0.075,0,0.153-0.004,0.231-0.009l0.107-0.006c0.881-0.036,1.841-0.202,2.661-0.459
			c0.821,0.257,1.782,0.423,2.664,0.459l0.107,0.006C17.349,29.996,17.424,30,17.5,30c5.327,0,9.5-4.612,9.5-10.5
			C27,13.71,22.514,9,17,9z M22.969,20.427c-0.003,0.041-0.009,0.081-0.012,0.122c-0.02,0.264-0.044,0.526-0.078,0.784
			c-0.015,0.117-0.039,0.229-0.057,0.344c-0.028,0.179-0.054,0.36-0.089,0.536c-0.03,0.152-0.069,0.298-0.105,0.446
			c-0.032,0.134-0.059,0.271-0.094,0.403c-0.044,0.162-0.096,0.317-0.145,0.475c-0.035,0.112-0.066,0.228-0.104,0.339
			c-0.052,0.15-0.111,0.293-0.168,0.439c-0.043,0.111-0.082,0.226-0.128,0.334c-0.056,0.132-0.119,0.256-0.179,0.383
			c-0.054,0.115-0.104,0.233-0.161,0.344c-0.063,0.123-0.132,0.236-0.199,0.354c-0.06,0.107-0.117,0.218-0.18,0.321
			c-0.068,0.111-0.142,0.212-0.214,0.318c-0.068,0.1-0.133,0.206-0.203,0.301c-0.073,0.1-0.152,0.189-0.228,0.283
			c-0.074,0.091-0.145,0.188-0.221,0.273c-0.081,0.091-0.167,0.172-0.251,0.257c-0.076,0.078-0.151,0.161-0.229,0.233
			c-0.083,0.076-0.169,0.14-0.254,0.21c-0.085,0.07-0.168,0.145-0.255,0.209c-0.082,0.06-0.168,0.108-0.251,0.162
			c-0.094,0.06-0.186,0.126-0.281,0.179c-0.083,0.046-0.17,0.079-0.254,0.119c-0.1,0.047-0.198,0.1-0.3,0.139
			c-0.084,0.032-0.17,0.051-0.255,0.077c-0.105,0.032-0.21,0.071-0.316,0.094c-0.086,0.019-0.174,0.023-0.261,0.036
			c-0.107,0.015-0.214,0.037-0.322,0.042c-0.83-0.037-1.767-0.207-2.515-0.458c-0.104-0.033-0.216-0.033-0.319,0.001
			c-0.756,0.253-1.707,0.425-2.498,0.459C9.037,28.846,7,24.857,7,19.5c0-5.085,2.392-9.332,5.336-9.484
			c0.784,0.036,1.396,0.192,2.069,0.417c0.102,0.034,0.214,0.034,0.317,0C15.602,10.139,16.112,10,17,10c3.196,0,6,4.439,6,9.5
			C23,19.812,22.99,20.121,22.969,20.427z M14.63,14.017c-0.083-0.022-0.168-0.023-0.25-0.002C14.346,14.023,11,14.907,11,19
			s3.345,4.977,3.379,4.985C14.419,23.995,14.459,24,14.5,24c0.038,0,0.076-0.004,0.113-0.013C14.648,23.979,18,23.151,18,19
			C18,14.965,14.664,14.026,14.63,14.017z"/>
	</g>
</g>
</svg>
