<?xml version="1.0" encoding="iso-8859-1"?>
<!-- Generator: Adobe Illustrator 19.0.0, SVG Export Plug-In . SVG Version: 6.00 Build 0)  -->
<svg version="1.1" id="Layer_1" xmlns="http://www.w3.org/2000/svg" xmlns:xlink="http://www.w3.org/1999/xlink" x="0px" y="0px"
	 viewBox="0 0 30 30" style="enable-background:new 0 0 30 30;" xml:space="preserve">
<g>
	<g>
		<path d="M22.004,14.671c-0.858-0.967-1.669-1.881-2.036-2.848c-0.275-0.728-0.419-1.524-0.559-2.294
			c-0.275-1.522-0.584-3.184-2.054-4.006c1.747-0.744,3.146-2.378,3.146-5.023c0-0.276-0.224-0.5-0.5-0.5
			c-1.998,0-4.109,0.98-5.027,3.083c-0.629-1.363-1.718-2.415-2.717-3.012c-0.235-0.142-0.543-0.065-0.686,0.173
			c-0.142,0.237-0.064,0.544,0.172,0.686c1.203,0.719,2.563,2.199,2.726,4.094c-3.244,0.237-3.839,2.65-4.362,4.795
			c-0.164,0.672-0.333,1.366-0.575,2.004c-0.36,0.953-1.079,1.845-1.84,2.791C6.213,16.452,4.535,18.537,4.5,22c0,4.411,3.589,8,8,8
			c0.765,0,1.563-0.15,2.5-0.47c0.937,0.32,1.735,0.47,2.5,0.47c4.411,0,8-3.589,8-8.005C25.466,18.57,23.627,16.498,22.004,14.671z
			 M12.001,28c-3.033,0-5.5-2.467-5.5-5.5c0-0.276,0.224-0.5,0.5-0.5s0.5,0.224,0.5,0.5c0,2.481,2.019,4.5,4.5,4.5
			c0.276,0,0.5,0.224,0.5,0.5S12.277,28,12.001,28z"/>
	</g>
</g>
</svg>
