<?xml version="1.0" encoding="utf-8"?>
<!-- Generator: Adobe Illustrator 19.0.0, SVG Export Plug-In . SVG Version: 6.00 Build 0)  -->
<svg version="1.1" id="Layer_1" xmlns="http://www.w3.org/2000/svg" xmlns:xlink="http://www.w3.org/1999/xlink" x="0px" y="0px"
	 viewBox="0 0 30 30" style="enable-background:new 0 0 30 30;" xml:space="preserve">
<path d="M15,0C6.7,0,0,6.7,0,15s6.7,15,15,15s15-6.7,15-15S23.3,0,15,0z M10.5,11h-4C6.2,11,6,10.8,6,10.5S6.2,10,6.5,10h4
	c0.3,0,0.5,0.2,0.5,0.5S10.8,11,10.5,11z M20,24.6c0,0.1-0.1,0.3-0.2,0.4C19.7,25,19.6,25,19.5,25c-0.1,0-0.1,0-0.2,0
	c-0.8-0.3-3.1-1-3.8-1c-0.3,0-0.5-0.2-0.5-0.5s0.2-0.5,0.5-0.5c0.8,0,2.6,0.5,3.5,0.8c0-0.5-0.1-1-0.3-1.2c-0.1-0.1-0.1-0.1-0.2-0.1
	c-0.3,0-0.5-0.2-0.5-0.5s0.2-0.5,0.5-0.5c0.1,0,0.2,0,0.2-0.1c0.2-0.2,0.3-0.7,0.3-1.2c-1,0.3-2.7,0.8-3.5,0.8
	c-0.3,0-0.5-0.2-0.5-0.5s0.2-0.5,0.5-0.5c0.8,0,3-0.7,3.8-1c0.1,0,0.3,0,0.4,0.1c0.1,0.1,0.2,0.2,0.2,0.4c0,0.2,0.2,1.7-0.5,2.6
	C20.2,22.8,20,24.4,20,24.6z M23.5,11h-4c-0.3,0-0.5-0.2-0.5-0.5s0.2-0.5,0.5-0.5h4c0.3,0,0.5,0.2,0.5,0.5S23.8,11,23.5,11z"/>
</svg>
