<?xml version="1.0" encoding="iso-8859-1"?>
<!-- Generator: Adobe Illustrator 19.0.0, SVG Export Plug-In . SVG Version: 6.00 Build 0)  -->
<svg version="1.1" id="Layer_1" xmlns="http://www.w3.org/2000/svg" xmlns:xlink="http://www.w3.org/1999/xlink" x="0px" y="0px"
	 viewBox="0 0 30 30" style="enable-background:new 0 0 30 30;" xml:space="preserve">
<g>
	<g>
		<path d="M26.473,25.368c-0.005-0.018-0.004-0.038-0.011-0.056c-0.026-0.065-0.065-0.122-0.115-0.17l-2.994-2.994
			c-0.195-0.195-0.512-0.195-0.707,0s-0.195,0.512,0,0.707L24.791,25H5.2l2.127-2.147c0.195-0.197,0.193-0.514-0.003-0.708
			c-0.198-0.194-0.514-0.193-0.708,0.003l-2.969,2.998l0,0l-0.001,0.001c-0.008,0.008-0.011,0.019-0.018,0.028
			c-0.035,0.041-0.068,0.084-0.088,0.134c-0.021,0.05-0.028,0.103-0.031,0.156C3.506,25.478,3.5,25.488,3.5,25.5
			s0.006,0.022,0.007,0.034c0.004,0.053,0.011,0.106,0.031,0.156c0.021,0.05,0.053,0.094,0.088,0.134
			c0.007,0.009,0.01,0.02,0.018,0.028l0.001,0.001l0,0l2.969,2.998C6.714,28.951,6.842,29,6.971,29c0.127,0,0.254-0.048,0.353-0.143
			c0.195-0.195,0.197-0.512,0.003-0.708L5.198,26h19.595l-2.147,2.147c-0.195,0.195-0.195,0.512,0,0.707
			C22.744,28.951,22.872,29,23,29s0.256-0.049,0.353-0.145l3-3c0.014-0.014,0.019-0.032,0.031-0.046
			c0.029-0.036,0.059-0.073,0.077-0.117c0.018-0.043,0.022-0.089,0.027-0.134c0.002-0.02,0.012-0.037,0.012-0.058
			C26.5,25.453,26.485,25.411,26.473,25.368z M6,4c0.276,0,0.5-0.224,0.5-0.5V2h8v21H13c-0.276,0-0.5,0.224-0.5,0.5S12.724,24,13,24
			h4c0.276,0,0.5-0.224,0.5-0.5S17.276,23,17,23h-1.5V2h8v1.5C23.5,3.776,23.724,4,24,4s0.5-0.224,0.5-0.5v-2
			C24.5,1.224,24.276,1,24,1H6C5.724,1,5.5,1.224,5.5,1.5v2C5.5,3.776,5.724,4,6,4z"/>
	</g>
</g>
</svg>
