<?xml version="1.0" encoding="iso-8859-1"?>
<!-- Generator: Adobe Illustrator 19.0.0, SVG Export Plug-In . SVG Version: 6.00 Build 0)  -->
<svg version="1.1" id="Layer_1" xmlns="http://www.w3.org/2000/svg" xmlns:xlink="http://www.w3.org/1999/xlink" x="0px" y="0px"
	 viewBox="0 0 30 30" style="enable-background:new 0 0 30 30;" xml:space="preserve">
<g>
	<g>
		<path d="M29.5,24.5h-29C0.224,24.5,0,24.724,0,25s0.224,0.5,0.5,0.5h29c0.277,0,0.5-0.224,0.5-0.5S29.776,24.5,29.5,24.5z
			 M29.5,28.5h-29C0.224,28.5,0,28.724,0,29s0.224,0.5,0.5,0.5h29c0.277,0,0.5-0.224,0.5-0.5S29.776,28.5,29.5,28.5z M0.351,17.477
			c0.268,0.084,0.544-0.065,0.627-0.328L2.431,12.5H8.57l1.453,4.649C10.09,17.363,10.287,17.5,10.5,17.5
			c0.049,0,0.1-0.007,0.15-0.023c0.264-0.082,0.41-0.363,0.328-0.626l-1.493-4.777C9.489,12.049,9.5,12.026,9.5,12
			c0-0.139-0.057-0.265-0.149-0.355L5.978,0.851c-0.131-0.418-0.824-0.418-0.955,0L1.65,11.644C1.558,11.735,1.5,11.86,1.5,12
			c0,0.027,0.011,0.05,0.015,0.076l-1.492,4.775C-0.059,17.114,0.087,17.395,0.351,17.477z M5.5,2.676L8.257,11.5H2.743L5.5,2.676z
			 M12.5,1.5h17C29.777,1.5,30,1.276,30,1s-0.224-0.5-0.5-0.5h-17C12.224,0.5,12,0.724,12,1S12.224,1.5,12.5,1.5z M29.5,4.5h-17
			C12.224,4.5,12,4.724,12,5s0.224,0.5,0.5,0.5h17C29.777,5.5,30,5.276,30,5S29.776,4.5,29.5,4.5z M29.5,12.5h-17
			c-0.276,0-0.5,0.224-0.5,0.5s0.224,0.5,0.5,0.5h17c0.277,0,0.5-0.224,0.5-0.5S29.776,12.5,29.5,12.5z M29.5,8.5h-17
			C12.224,8.5,12,8.724,12,9s0.224,0.5,0.5,0.5h17C29.777,9.5,30,9.276,30,9S29.776,8.5,29.5,8.5z M29.5,20.5h-29
			C0.224,20.5,0,20.724,0,21s0.224,0.5,0.5,0.5h29c0.277,0,0.5-0.224,0.5-0.5S29.776,20.5,29.5,20.5z M29.5,16.5h-17
			c-0.276,0-0.5,0.224-0.5,0.5s0.224,0.5,0.5,0.5h17c0.277,0,0.5-0.224,0.5-0.5S29.776,16.5,29.5,16.5z"/>
	</g>
</g>
</svg>
