<?xml version="1.0" encoding="iso-8859-1"?>
<!-- Generator: Adobe Illustrator 19.0.0, SVG Export Plug-In . SVG Version: 6.00 Build 0)  -->
<svg version="1.1" id="Layer_1" xmlns="http://www.w3.org/2000/svg" xmlns:xlink="http://www.w3.org/1999/xlink" x="0px" y="0px"
	 viewBox="0 0 30 30" style="enable-background:new 0 0 30 30;" xml:space="preserve">
<g>
	<g>
		<path d="M22.5,29H21V12h1.5c0.276,0,0.5-0.224,0.5-0.5S22.776,11,22.5,11H10V6.174C10,3.321,12.243,1,15,1
			c2.619,0,4.75,2.101,4.959,4.756C19.673,5.598,19.349,5.5,19,5.5c-1.103,0-2,0.897-2,2s0.897,2,2,2s2-0.897,2-2V6.174
			C21,2.77,18.309,0,15,0S9,2.77,9,6.174V11H7.5C7.224,11,7,11.224,7,11.5S7.224,12,7.5,12H9v17H7.5C7.224,29,7,29.224,7,29.5
			S7.224,30,7.5,30h4c0.276,0,0.5-0.224,0.5-0.5S11.776,29,11.5,29H10V12h10v17h-1.5c-0.276,0-0.5,0.224-0.5,0.5s0.224,0.5,0.5,0.5
			h4c0.276,0,0.5-0.224,0.5-0.5S22.776,29,22.5,29z M19,8.5c-0.551,0-1-0.449-1-1s0.449-1,1-1s1,0.449,1,1S19.551,8.5,19,8.5z"/>
	</g>
</g>
</svg>
