<?xml version="1.0" encoding="iso-8859-1"?>
<!-- Generator: Adobe Illustrator 19.0.0, SVG Export Plug-In . SVG Version: 6.00 Build 0)  -->
<svg version="1.1" id="Layer_1" xmlns="http://www.w3.org/2000/svg" xmlns:xlink="http://www.w3.org/1999/xlink" x="0px" y="0px"
	 viewBox="0 0 30 30" style="enable-background:new 0 0 30 30;" xml:space="preserve">
<g>
	<g>
		<path d="M26.5,10.5h-5c-1.93,0-3.5,1.57-3.5,3.5v0.5h-6V14c0-1.93-1.57-3.5-3.5-3.5h-5C1.57,10.5,0,12.07,0,14v2
			c0,1.93,1.57,3.5,3.5,3.5h5c1.93,0,3.5-1.57,3.5-3.5v-0.5h6V16c0,1.93,1.57,3.5,3.5,3.5h5c1.93,0,3.5-1.57,3.5-3.5v-2
			C30,12.07,28.43,10.5,26.5,10.5z M11,14.5H9.5C9.224,14.5,9,14.724,9,15s0.224,0.5,0.5,0.5H11V16c0,1.378-1.121,2.5-2.5,2.5h-5
			C2.121,18.5,1,17.378,1,16v-2c0-1.378,1.121-2.5,2.5-2.5h5c1.379,0,2.5,1.122,2.5,2.5V14.5z M29,16c0,1.378-1.121,2.5-2.5,2.5h-5
			c-1.379,0-2.5-1.122-2.5-2.5v-0.5h1.5c0.276,0,0.5-0.224,0.5-0.5s-0.224-0.5-0.5-0.5H19V14c0-1.378,1.121-2.5,2.5-2.5h5
			c1.379,0,2.5,1.122,2.5,2.5V16z"/>
	</g>
</g>
</svg>
