<?xml version="1.0" encoding="iso-8859-1"?>
<!-- Generator: Adobe Illustrator 19.0.0, SVG Export Plug-In . SVG Version: 6.00 Build 0)  -->
<svg version="1.1" id="Layer_1" xmlns="http://www.w3.org/2000/svg" xmlns:xlink="http://www.w3.org/1999/xlink" x="0px" y="0px"
	 viewBox="0 0 30 30" style="enable-background:new 0 0 30 30;" xml:space="preserve">
<g>
	<g>
		<path d="M11.101,12.5l7.815-11.723c0.153-0.23,0.09-0.54-0.139-0.693c-0.227-0.152-0.539-0.092-0.693,0.139L10.5,11.599
			L2.916,0.223C2.762-0.008,2.45-0.069,2.223,0.084c-0.23,0.153-0.292,0.463-0.139,0.693L9.899,12.5L2.084,24.223
			c-0.153,0.23-0.09,0.54,0.139,0.693C2.308,24.973,2.404,25,2.5,25c0.161,0,0.319-0.078,0.416-0.223L10.5,13.401l7.584,11.376
			C18.181,24.922,18.339,25,18.5,25c0.096,0,0.192-0.027,0.277-0.084c0.23-0.153,0.292-0.463,0.139-0.693L11.101,12.5z M27.5,29
			h-5.75l4.61-4.392C27.418,23.602,28,22.26,28,20.833C28,18.72,26.206,17,24,17s-4,1.719-4,3.833V21.5c0,0.276,0.224,0.5,0.5,0.5
			s0.5-0.224,0.5-0.5v-0.667C21,19.271,22.346,18,24,18s3,1.271,3,2.834c0,1.151-0.472,2.235-1.329,3.051l-5.516,5.253
			c-0.148,0.141-0.195,0.359-0.119,0.548C20.111,29.875,20.296,30,20.5,30h7c0.276,0,0.5-0.224,0.5-0.5S27.776,29,27.5,29z"/>
	</g>
</g>
</svg>
