<?xml version="1.0" encoding="iso-8859-1"?>
<!-- Generator: Adobe Illustrator 19.0.0, SVG Export Plug-In . SVG Version: 6.00 Build 0)  -->
<svg version="1.1" id="Layer_1" xmlns="http://www.w3.org/2000/svg" xmlns:xlink="http://www.w3.org/1999/xlink" x="0px" y="0px"
	 viewBox="0 0 30 30" style="enable-background:new 0 0 30 30;" xml:space="preserve">
<g>
	<g>
		<path d="M11.101,17.5l7.815-11.723c0.153-0.23,0.09-0.54-0.139-0.693c-0.227-0.152-0.539-0.091-0.693,0.139L10.5,16.599
			L2.916,5.223C2.762,4.991,2.45,4.931,2.223,5.084c-0.23,0.153-0.292,0.463-0.139,0.693L9.899,17.5L2.084,29.223
			c-0.153,0.23-0.09,0.54,0.139,0.693C2.308,29.973,2.404,30,2.5,30c0.161,0,0.319-0.078,0.416-0.223L10.5,18.401l7.584,11.376
			C18.181,29.922,18.339,30,18.5,30c0.096,0,0.192-0.027,0.277-0.084c0.23-0.153,0.292-0.463,0.139-0.693L11.101,17.5z M27.5,12
			h-5.75l4.61-4.392C27.418,6.602,28,5.26,28,3.833C28,1.72,26.206,0,24,0s-4,1.72-4,3.833V4.5C20,4.776,20.224,5,20.5,5
			S21,4.776,21,4.5V3.833C21,2.271,22.346,1,24,1s3,1.271,3,2.834c0,1.151-0.472,2.235-1.329,3.051l-5.516,5.253
			c-0.148,0.141-0.195,0.359-0.119,0.548C20.111,12.875,20.296,13,20.5,13h7c0.276,0,0.5-0.224,0.5-0.5S27.776,12,27.5,12z"/>
	</g>
</g>
</svg>
