<?xml version="1.0" encoding="utf-8"?>
<!-- Generator: Adobe Illustrator 19.0.0, SVG Export Plug-In . SVG Version: 6.00 Build 0)  -->
<svg version="1.1" id="Layer_1" xmlns="http://www.w3.org/2000/svg" xmlns:xlink="http://www.w3.org/1999/xlink" x="0px" y="0px"
	 viewBox="0 0 30 30" style="enable-background:new 0 0 30 30;" xml:space="preserve">
<path d="M26.6,11.4c-1.2,0-1.6-1-1.6-2V8c0-4.3-4-8-8.5-8H7.7C3.4,0,0,3.5,0,8v14c0,4.5,3.4,8,7.7,8h13.3c5.2,0,9.1-3.6,9.1-8.4V15
	C30,12.4,29.5,11.4,26.6,11.4z M16,9c0,0.6-0.4,1-1,1H9c-0.6,0-1-0.4-1-1s0.4-1,1-1h6C15.6,8,16,8.4,16,9z M9,20h11c0.6,0,1,0.4,1,1
	s-0.4,1-1,1H9c-0.6,0-1-0.4-1-1S8.4,20,9,20z"/>
</svg>
