<?xml version="1.0" encoding="utf-8"?>
<!-- Generator: Adobe Illustrator 19.0.0, SVG Export Plug-In . SVG Version: 6.00 Build 0)  -->
<svg version="1.1" id="Layer_1" xmlns="http://www.w3.org/2000/svg" xmlns:xlink="http://www.w3.org/1999/xlink" x="0px" y="0px"
	 viewBox="0 0 30 30" style="enable-background:new 0 0 30 30;" xml:space="preserve">
<g>
	<path d="M21.1,21.5c-1.7,2.4-4.1,4.8-5.6,4.8c-0.8,0-0.8,0-0.8-0.8c0-0.3,0.2-1,0.6-2c0,0,0-0.1,0-0.1C16.7,19.6,19.8,12,22,6.9
		c0.1-0.3,0-0.5-0.3-0.7c-0.3-0.1-0.5,0-0.7,0.3c-0.4,0.9-2.1,5-3.8,9.2c-0.1-0.3-0.3-0.5-0.5-0.8c-0.4-0.5-1-0.7-1.7-0.7
		c0,0,0,0,0,0c-2.3,0-7.2,4.7-7.9,9.2c-0.2,1.6,0,2.8,0.6,3.6c0.4,0.5,1.1,0.8,1.7,0.8c1.3,0,3.1-1.5,4.3-2.7c0,0.2-0.1,0.3-0.1,0.4
		c0,1.1,0.3,1.8,1.8,1.8c2.4,0,5.5-4,6.4-5.2c0.2-0.2,0.1-0.5-0.1-0.7C21.6,21.2,21.3,21.2,21.1,21.5z M9.5,26.7
		c-0.3,0-0.7-0.1-1-0.4c-0.3-0.4-0.6-1.1-0.4-2.8c0.6-4.1,5.1-8.3,6.9-8.3c0,0,0,0,0,0c0.4,0,0.8,0.1,1,0.4c0.4,0.4,0.5,1.1,0.5,1.6
		c0,0.1,0,0.1,0,0.2c-0.8,2.1-1.6,4.1-2.1,5.6C13.1,24.5,10.7,26.7,9.5,26.7z"/>
	<path d="M12.5,10.2c0.3,0,0.5-0.2,0.5-0.5s-0.2-0.5-0.5-0.5c-1.9,0-3.4-0.6-4.6-1.9C7,6.6,7,5.2,7,2.7c0-0.3-0.2-0.5-0.5-0.5
		S6,2.5,6,2.7c0,2.4,0,3.8-0.9,4.6C3.9,8.6,2.4,9.2,0.5,9.2C0.2,9.2,0,9.5,0,9.7s0.2,0.5,0.5,0.5c2.2,0,3.7,0.4,4.6,1.4
		C6,12.4,6,13.3,6,15.7c0,0.3,0.2,0.5,0.5,0.5S7,16,7,15.7c0-2.4,0-3.3,0.9-4.1C8.8,10.7,10.3,10.2,12.5,10.2z"/>
	<path d="M12.5,6.2C13.2,6.2,14,7,14,7.7c0,0.3,0.2,0.5,0.5,0.5S15,8,15,7.7c0-0.7,0.8-1.5,1.5-1.5C16.8,6.2,17,6,17,5.7
		s-0.2-0.5-0.5-0.5c-0.7,0-1.5-0.8-1.5-1.5c0-0.3-0.2-0.5-0.5-0.5S14,3.5,14,3.7c0,0.7-0.8,1.5-1.5,1.5c-0.3,0-0.5,0.2-0.5,0.5
		S12.2,6.2,12.5,6.2z"/>
	<path d="M29.5,18.2c-1.2,0-2.1-0.3-2.6-0.9S26,15.9,26,14.7c0-0.3-0.2-0.5-0.5-0.5S25,14.5,25,14.7c0,1.2-0.3,2.1-0.9,2.6
		s-1.5,0.9-2.6,0.9c-0.3,0-0.5,0.2-0.5,0.5s0.2,0.5,0.5,0.5c1.2,0,2.1,0.3,2.6,0.9s0.9,1.5,0.9,2.6c0,0.3,0.2,0.5,0.5,0.5
		S26,23,26,22.7c0-1.2,0.3-2.1,0.9-2.6s1.5-0.9,2.6-0.9c0.3,0,0.5-0.2,0.5-0.5S29.8,18.2,29.5,18.2z"/>
</g>
</svg>
