<?xml version="1.0" encoding="utf-8"?>
<!-- Generator: Adobe Illustrator 19.0.0, SVG Export Plug-In . SVG Version: 6.00 Build 0)  -->
<svg version="1.1" id="Layer_1" xmlns="http://www.w3.org/2000/svg" xmlns:xlink="http://www.w3.org/1999/xlink" x="0px" y="0px"
	 viewBox="0 0 30 30" style="enable-background:new 0 0 30 30;" xml:space="preserve">
<g>
	<path d="M23.6,6c-0.2-0.1-0.4,0-0.6,0.2c0,0,0,0-0.1,0.1c-0.1,0-0.1,0.1-0.2,0.2C21.2,9.3,18.2,11,15,11S8.8,9.3,7.2,6.5
		c0-0.1-0.1-0.1-0.2-0.2C7,6.3,6.9,6.2,6.9,6.2C6.8,6.1,6.6,6,6.4,6C6.2,6.1,6,6.3,6,6.5v23C6,29.8,6.2,30,6.5,30h4
		c0.3,0,0.5-0.2,0.5-0.5V14.2c1.5,0.5,2.8,0.8,4,0.8s2.5-0.3,4-0.8v15.3c0,0.3,0.2,0.5,0.5,0.5h4c0.3,0,0.5-0.2,0.5-0.5v-23
		C24,6.3,23.9,6.1,23.6,6z"/>
	<circle cx="8.5" cy="2.5" r="2.5"/>
	<circle cx="21.5" cy="2.5" r="2.5"/>
</g>
</svg>
