<?xml version="1.0" encoding="utf-8"?>
<!-- Generator: Adobe Illustrator 19.0.0, SVG Export Plug-In . SVG Version: 6.00 Build 0)  -->
<svg version="1.1" id="Layer_1" xmlns="http://www.w3.org/2000/svg" xmlns:xlink="http://www.w3.org/1999/xlink" x="0px" y="0px"
	 viewBox="0 0 30 30" style="enable-background:new 0 0 30 30;" xml:space="preserve">
<path d="M26.3,2c-0.4-1.2-1.6-2-2.8-2c-0.4,0-0.7,0.1-1,0.2c-1.6,0.6-2.3,2.3-1.7,3.9c1.1,1.9,2.2,5.3,2.6,8.4
	c-1.3-1.9-3.9-5.2-7.8-8.2c0,0,0,0,0,0c-0.1-0.1-0.1-0.2-0.2-0.4c-0.4-1.2-1.6-2-2.8-2c-0.4,0-0.7,0.1-1,0.2
	C10.7,2.5,10.1,3,9.8,3.6C9.4,4.3,9.4,5,9.7,5.8C9.8,6,9.9,6.2,10,6.4c0.9,1.8,1.5,3.9,1.7,6.6c-1.3-1.9-3.8-4.4-6.4-6.4
	C4,5.6,2.1,5.9,1.1,7.2c-1,1.3-0.7,3.2,0.6,4.2c5.1,3.1,8,10.4,7.8,12c0,0.1,0,0.2,0,0.2c-0.1,0.5,0,1.1,0.2,1.6
	c0.3,0.7,0.9,1.3,1.7,1.6c0.3,0.1,0.7,0.2,1,0.2c1.2,0,2.4-0.8,2.8-1.9c1.2-2.2,2.1-5.2,2.4-8.1c1.2,1.8,3.5,6.4,2.9,9.4
	c0,0.1,0,0.2,0,0.2c-0.1,0.5,0,1.1,0.2,1.6c0.3,0.7,0.9,1.3,1.7,1.6c0.3,0.1,0.7,0.2,1,0.2c1.2,0,2.4-0.8,2.8-1.9
	c1.4-2.6,3.2-9.2,3.2-13.1S27.7,4.5,26.3,2z M2.3,10.6C1.4,9.9,1.2,8.7,1.9,7.8c0.7-0.9,1.9-1.1,2.8-0.4c3.4,2.6,6.2,5.8,6.8,7.3
	c0,0.1,0.1,0.2,0.2,0.2c0,3.3-0.5,5-1.5,6.9C9.5,18.7,6.5,13.2,2.3,10.6z M17.9,15.6c0,0-0.1-0.1-0.1-0.1c0-0.2,0-0.5,0-0.7
	c0-2.8-0.6-6.1-1.4-8.6c4.3,3.8,6.7,7.6,7.2,8.3c0,0.1,0,0.3,0,0.4c0,2.9-0.9,6.5-2,9.2C21.1,20.6,18.8,16.6,17.9,15.6z"/>
</svg>
