<?xml version="1.0" encoding="utf-8"?>
<!-- Generator: Adobe Illustrator 19.0.0, SVG Export Plug-In . SVG Version: 6.00 Build 0)  -->
<svg version="1.1" id="Layer_1" xmlns="http://www.w3.org/2000/svg" xmlns:xlink="http://www.w3.org/1999/xlink" x="0px" y="0px"
	 viewBox="0 0 30 30" style="enable-background:new 0 0 30 30;" xml:space="preserve">
<path d="M22,9c-3,0-5.5,1.7-6.2,4H11c-0.3,0-0.5,0.2-0.5,0.5v2.3c-0.8-0.3-2-1.1-2-3.3c0-2.9,1.6-3.4,2.3-3.5c0,0,0,0.1,0,0.1
	C10.9,9.7,11.1,11,13,11c2.6,0,3.5-1.4,3.5-2.8C16.5,7,15.3,5,11,5c-3.9,0-9.5,2.3-9.5,7.5c0,3.8,2.9,6.8,5.2,7.4
	c-0.3,0.8-0.3,1.8,0.1,2.7C7.1,23.5,8.2,25,11,25c3.6,0,5.5-1.9,5.5-5.5v-2.1C17.7,19,19.7,20,22,20c3.6,0,6.5-2.5,6.5-5.5
	C28.5,11.5,25.6,9,22,9z M11.3,21.1c-0.1,0.2-0.3,0.3-0.6,0.3c-0.2,0-0.4-0.1-0.6-0.2c-0.2-0.1-0.6-0.5-0.6-1c0-0.5,0.5-0.7,0.9-0.9
	c0.1,0,0.2-0.1,0.3-0.2C10.8,19,11,19,11.2,19s0.3,0.2,0.3,0.4C11.6,19.8,11.6,20.7,11.3,21.1z M22.5,16.5c0,0.3-0.2,0.5-0.5,0.5
	s-0.5-0.2-0.5-0.5v-4c0-0.3,0.2-0.5,0.5-0.5s0.5,0.2,0.5,0.5V16.5z"/>
</svg>
