<?xml version="1.0" encoding="utf-8"?>
<!-- Generator: Adobe Illustrator 19.0.0, SVG Export Plug-In . SVG Version: 6.00 Build 0)  -->
<svg version="1.1" id="Layer_1" xmlns="http://www.w3.org/2000/svg" xmlns:xlink="http://www.w3.org/1999/xlink" x="0px" y="0px"
	 viewBox="0 0 30 30" style="enable-background:new 0 0 30 30;" xml:space="preserve">
<g>
	<path d="M14.5,26.5c0-0.3,0.2-0.5,0.5-0.5s0.5,0.2,0.5,0.5V29c6.5-0.7,12-8.9,12-15.5c0-0.3,0.2-0.5,0.5-0.5s0.5,0.2,0.5,0.5
		C28.5,6.1,22.4,0,15,0S1.5,6.1,1.5,13.5c0,7.3,5.8,13.2,13,13.5V26.5z M15.5,9.5C15.5,9.2,15.7,9,16,9h5c0.3,0,0.5,0.2,0.5,0.5v5
		c0,0.3,0.1,1.3-1.2,2.4C20.2,17,20.1,17,20,17c-0.1,0-0.1,0-0.2,0c-0.2-0.1-0.3-0.3-0.3-0.5V15H16c-0.3,0-0.5-0.2-0.5-0.5V9.5z
		 M12,17c-0.1,0-0.1,0-0.2,0c-0.2-0.1-0.3-0.3-0.3-0.5V15H8c-0.3,0-0.5-0.2-0.5-0.5v-5C7.5,9.2,7.7,9,8,9h5c0.3,0,0.5,0.2,0.5,0.5v5
		c0,0.3,0.1,1.3-1.2,2.4C12.2,17,12.1,17,12,17z"/>
	<path d="M14.5,29.6C14.5,29.6,14.5,29.7,14.5,29.6C14.5,29.7,14.5,29.6,14.5,29.6z"/>
	<path d="M14.8,30C14.8,30,14.8,30,14.8,30C14.8,30,14.8,30,14.8,30z"/>
	<path d="M14.6,29.8C14.6,29.8,14.6,29.9,14.6,29.8C14.6,29.9,14.6,29.9,14.6,29.8C14.6,29.9,14.6,29.8,14.6,29.8z"/>
</g>
</svg>
