<?xml version="1.0" encoding="utf-8"?>
<!-- Generator: Adobe Illustrator 19.0.0, SVG Export Plug-In . SVG Version: 6.00 Build 0)  -->
<svg version="1.1" id="Layer_1" xmlns="http://www.w3.org/2000/svg" xmlns:xlink="http://www.w3.org/1999/xlink" x="0px" y="0px"
	 viewBox="0 0 30 30" style="enable-background:new 0 0 30 30;" xml:space="preserve">
<g>
	<path d="M9.5,0.5h-9C0.2,0.5,0,0.7,0,1v15c0,0.3,0.2,0.5,0.5,0.5h9c0.3,0,0.5-0.2,0.5-0.5V1C10,0.7,9.8,0.5,9.5,0.5z"/>
	<path d="M30,12.5c0-1-0.5-2-1.4-2.5C28.9,9.5,29,9,29,8.5c0-1.4-0.9-2.5-2.2-2.9C26.9,5.3,27,4.9,27,4.5c0-1.5-1.1-2.8-2.6-3
		c-0.1,0-0.1,0-0.2,0H13c-0.6,0-1.2,0.2-1.7,0.4C11.1,1.9,11,2.1,11,2.3V16c0,0.3-0.1,0.6-0.3,0.9c-0.1,0.2-0.1,0.4,0,0.5l3.4,6.7
		v4.4c0,0.2,0.1,0.3,0.3,0.4c0,0,1,0.6,2.2,0.6c1.5,0,3.5-2.5,3.5-5c0-1.8-0.5-3.9-0.8-5h7.3c0,0,0,0,0,0c0.1,0,0.1,0,0.1,0
		c0.1,0,0.2,0,0.3,0c1.7,0,3-1.3,3-3c0-0.8-0.3-1.5-0.8-2C29.7,14,30,13.3,30,12.5z"/>
</g>
</svg>
