<?xml version="1.0" encoding="utf-8"?>
<!-- Generator: Adobe Illustrator 19.0.0, SVG Export Plug-In . SVG Version: 6.00 Build 0)  -->
<svg version="1.1" id="Layer_1" xmlns="http://www.w3.org/2000/svg" xmlns:xlink="http://www.w3.org/1999/xlink" x="0px" y="0px"
	 viewBox="0 0 30 30" style="enable-background:new 0 0 30 30;" xml:space="preserve">
<path d="M26.1,4.8l-6.6-0.6c-2.9-0.3-6.1-0.3-9,0L3.9,4.8C1.7,5,0,6.8,0,9v12c0,2.2,1.7,4,3.9,4.2l6.6,0.6c1.4,0.1,3,0.2,4.5,0.2
	s3.1-0.1,4.5-0.2l6.6-0.6c2.2-0.2,3.9-2,3.9-4.2V9C30,6.8,28.3,5,26.1,4.8z M20.7,14.9l-9,5c-0.1,0-0.2,0.1-0.2,0.1
	c-0.1,0-0.2,0-0.3-0.1c-0.2-0.1-0.2-0.3-0.2-0.4v-10c0-0.2,0.1-0.3,0.2-0.4c0.2-0.1,0.3-0.1,0.5,0l9,5c0.2,0.1,0.3,0.3,0.3,0.4
	S20.9,14.8,20.7,14.9z"/>
</svg>
