<?xml version="1.0" encoding="iso-8859-1"?>
<!-- Generator: Adobe Illustrator 19.0.0, SVG Export Plug-In . SVG Version: 6.00 Build 0)  -->
<svg version="1.1" id="Layer_1" xmlns="http://www.w3.org/2000/svg" xmlns:xlink="http://www.w3.org/1999/xlink" x="0px" y="0px"
	 viewBox="0 0 24 24" style="enable-background:new 0 0 24 24;" xml:space="preserve">
<g>
	<g>
		<path d="M14.645,13.147L12.5,15.292v-2.586l2.352-2.352c0.195-0.195,0.195-0.512,0-0.707c-0.195-0.195-0.512-0.195-0.707,0
			L12.5,11.292V8.706l1.852-1.852c0.195-0.195,0.195-0.512,0-0.707s-0.512-0.195-0.707,0L12.5,7.292V4.706l0.852-0.852
			c0.195-0.195,0.195-0.512,0-0.707s-0.512-0.195-0.707,0L12.5,3.292V2.5C12.5,2.224,12.276,2,12,2s-0.5,0.224-0.5,0.5v0.794
			l-0.147-0.147c-0.195-0.195-0.512-0.195-0.707,0s-0.195,0.512,0,0.707L11.5,4.708v2.586l-1.147-1.147
			c-0.195-0.195-0.512-0.195-0.707,0s-0.195,0.512,0,0.707L11.5,8.708v2.586L9.853,9.647c-0.195-0.195-0.512-0.195-0.707,0
			c-0.195,0.195-0.195,0.512,0,0.707l2.354,2.354v2.586l-2.147-2.147c-0.195-0.195-0.512-0.195-0.707,0
			c-0.195,0.195-0.195,0.512,0,0.707l2.854,2.854v1.586l-0.647-0.647c-0.195-0.195-0.512-0.195-0.707,0
			c-0.195,0.195-0.195,0.512,0,0.707l1.354,1.354V21.5c0,0.276,0.224,0.5,0.5,0.5s0.5-0.224,0.5-0.5v-1.794l1.352-1.352
			c0.195-0.195,0.195-0.512,0-0.707c-0.195-0.195-0.512-0.195-0.707,0L12.5,18.292v-1.586l2.852-2.852
			c0.195-0.195,0.195-0.512,0-0.707C15.157,12.952,14.84,12.952,14.645,13.147z M21.5,10.5c0-1.726-0.97-3.267-2.5-4.024
			c-0.011-1.944-1.286-3.66-3.137-4.249C15.054,0.848,13.593,0,12,0S8.946,0.848,8.137,2.227C6.286,2.816,5.011,4.532,5,6.476
			C3.47,7.233,2.5,8.774,2.5,10.5c0,1.168,0.467,2.286,1.293,3.125C3.599,14.065,3.5,14.526,3.5,15c0,1.572,1.036,2.922,2.518,3.351
			c0.143,1.46,1.178,2.662,2.604,3.026C9.015,22.917,10.384,24,12,24s2.985-1.083,3.378-2.622c1.49-0.381,2.554-1.678,2.619-3.227
			C19.209,17.577,20,16.354,20,15c0-0.354-0.054-0.702-0.161-1.04C20.886,13.108,21.5,11.842,21.5,10.5z M18.957,13.371
			c-0.2,0.136-0.275,0.396-0.176,0.617C18.927,14.313,19,14.653,19,15c0,1.055-0.676,1.999-1.682,2.349
			c-0.21,0.073-0.346,0.275-0.335,0.497C16.985,17.888,16.99,17.928,17,18c0,1.237-0.893,2.272-2.121,2.46
			c-0.217,0.033-0.386,0.203-0.419,0.419C14.272,22.108,13.237,23,12,23s-2.272-0.892-2.46-2.121
			c-0.033-0.216-0.202-0.386-0.419-0.419C7.893,20.272,7,19.238,6.997,18.051l-0.495-0.076l0.503-0.025
			c0-0.244-0.177-0.453-0.418-0.493C5.378,17.255,4.5,16.222,4.5,15c0-0.426,0.115-0.842,0.341-1.236
			c0.12-0.209,0.075-0.474-0.109-0.63C3.949,12.466,3.5,11.506,3.5,10.5c0-1.439,0.869-2.714,2.215-3.248
			c0.204-0.081,0.331-0.286,0.313-0.505l-0.016-0.14C6.007,6.572,6,6.537,6,6.5c0-1.574,1.07-2.959,2.603-3.368
			c0.134-0.035,0.249-0.126,0.313-0.25C9.526,1.721,10.708,1,12,1s2.474,0.721,3.085,1.882c0.064,0.124,0.178,0.214,0.313,0.25
			c1.533,0.409,2.603,1.794,2.603,3.368c0,0.036-0.007,0.071-0.012,0.107l-0.016,0.14c-0.018,0.219,0.109,0.424,0.313,0.505
			C19.631,7.786,20.5,9.061,20.5,10.5C20.5,11.642,19.923,12.715,18.957,13.371z"/>
	</g>
</g>
</svg>
