<?xml version="1.0" encoding="iso-8859-1"?>
<!-- Generator: Adobe Illustrator 19.0.0, SVG Export Plug-In . SVG Version: 6.00 Build 0)  -->
<svg version="1.1" id="Layer_1" xmlns="http://www.w3.org/2000/svg" xmlns:xlink="http://www.w3.org/1999/xlink" x="0px" y="0px"
	 viewBox="0 0 24 24" style="enable-background:new 0 0 24 24;" xml:space="preserve">
<g>
	<g>
		<path d="M24,3c0-1.654-1.346-3-3-3c-0.9,0-1.736,0.4-2.304,1.085c-1.57-0.392-3.122,0.575-3.564,2.046
			C13.88,3.508,13,4.666,13,5.999c0,0.778,0.22,1.497,0.616,2.047l-1.955,1.71l-0.099-0.095C10.176,8.33,8.36,7.638,6.435,7.723
			c-1.921,0.081-3.677,0.922-4.948,2.368c-1.424,1.643-1.865,3.882-1.15,5.842c0.629,1.726,1.287,5.2-0.239,7.271
			c-0.147,0.199-0.126,0.475,0.049,0.65C0.243,23.95,0.372,24,0.5,24c0.104,0,0.208-0.032,0.295-0.098
			c2.071-1.527,5.545-0.869,7.271-0.239c1.959,0.714,4.199,0.274,5.917-1.216c1.457-1.288,2.314-3.14,2.354-5.083
			c0.04-1.943-0.741-3.829-2.143-5.176l-0.247-0.237l1.945-1.612C16.449,10.763,17.193,11,18,11c1.334,0,2.492-0.879,2.868-2.132
			C22.122,8.491,23,7.333,23,6c0-0.231-0.028-0.464-0.086-0.696C23.6,4.736,24,3.9,24,3z M4.159,21.965
			c-0.829,0-1.692,0.102-2.506,0.381c0.291-0.847,0.387-1.747,0.379-2.606l2.229,2.229C4.227,21.968,4.194,21.965,4.159,21.965z
			 M15.337,17.344c-0.034,1.689-0.75,3.236-2.083,4.414c-1.369,1.186-3.226,1.556-4.844,0.966c-0.231-0.085-1.272-0.442-2.614-0.634
			l-3.884-3.884c-0.192-1.344-0.551-2.385-0.636-2.617c-0.59-1.619-0.22-3.475,0.964-4.841c1.087-1.236,2.592-1.956,4.237-2.026
			c1.646-0.076,3.205,0.52,4.393,1.661l1.91,1.834l0.07,0.067c0,0,0,0,0,0l0.652,0.626C14.721,14.08,15.372,15.655,15.337,17.344z
			 M22.063,4.69c-0.201,0.127-0.285,0.379-0.2,0.601C21.954,5.529,22,5.769,22,6.002c0,0.962-0.688,1.788-1.636,1.962
			c-0.204,0.037-0.363,0.197-0.401,0.401c-0.174,0.948-0.999,1.636-1.962,1.636c-0.704,0-1.348-0.246-1.725-0.659
			c-0.181-0.197-0.484-0.218-0.688-0.048l-2.367,1.96l-0.385-0.37l-0.45-0.432l2.265-1.979c0.108-0.094,0.17-0.228,0.171-0.371
			c0.001-0.143-0.058-0.279-0.163-0.375C14.246,7.35,14,6.705,14,6.002c0-0.962,0.688-1.788,1.636-1.962
			C15.841,4.003,16,3.843,16.037,3.639c0.217-1.178,1.448-1.968,2.674-1.499c0.221,0.084,0.474,0.002,0.601-0.2
			C19.683,1.353,20.315,1.002,21,1.002c1.103,0,2,0.897,2,2C23,3.689,22.649,4.319,22.063,4.69z"/>
	</g>
</g>
</svg>
