<?xml version="1.0" encoding="iso-8859-1"?>
<!-- Generator: Adobe Illustrator 19.0.0, SVG Export Plug-In . SVG Version: 6.00 Build 0)  -->
<svg version="1.1" id="Layer_1" xmlns="http://www.w3.org/2000/svg" xmlns:xlink="http://www.w3.org/1999/xlink" x="0px" y="0px"
	 viewBox="0 0 24 24" style="enable-background:new 0 0 24 24;" xml:space="preserve">
<g>
	<g>
		<path d="M14.222,5.947c0.247-0.124,0.348-0.424,0.224-0.671c-0.124-0.247-0.423-0.346-0.671-0.224l-1.258,0.629
			c-0.002-0.585-0.008-1.038-0.018-1.21c-0.016-0.276-0.257-0.478-0.528-0.47c-0.276,0.016-0.487,0.253-0.47,0.528
			c0.009,0.157,0.014,0.591,0.016,1.17l-1.294-0.647C9.975,4.93,9.676,5.029,9.552,5.276C9.429,5.523,9.529,5.823,9.776,5.947
			l1.742,0.871c-0.001,0.597-0.003,1.246-0.006,1.879l-1.289-0.645C9.975,7.93,9.676,8.029,9.552,8.276
			C9.429,8.523,9.529,8.823,9.776,8.947l1.731,0.865c-0.002,0.365-0.004,0.708-0.007,1.004v0.875l-1.277-0.638
			c-0.248-0.123-0.547-0.023-0.671,0.224c-0.123,0.247-0.023,0.547,0.224,0.671l1.724,0.862V14.5c0,0.276,0.224,0.5,0.5,0.5
			s0.5-0.224,0.5-0.5v-1.692l1.722-0.861c0.247-0.124,0.348-0.424,0.224-0.671c-0.124-0.247-0.423-0.347-0.671-0.224L12.5,11.69
			v-0.87c0-0.058,0.003-0.452,0.006-1.015l1.716-0.858c0.247-0.124,0.348-0.424,0.224-0.671c-0.124-0.247-0.423-0.347-0.671-0.224
			l-1.263,0.631c0.003-0.606,0.005-1.265,0.006-1.884L14.222,5.947z M12,0C8.416,0,5.5,3.757,5.5,8.375
			c0,3.417,1.716,7.588,3.906,9.495c0.433,0.378,0.702,0.944,0.756,1.593l0.257,3.082C10.487,23.361,11.181,24,12,24
			c0.819,0,1.513-0.639,1.581-1.455l0.257-3.082c0.054-0.65,0.323-1.215,0.756-1.593c2.19-1.907,3.906-6.078,3.906-9.495
			C18.5,3.757,15.584,0,12,0z M13.937,17.116c-0.631,0.55-1.02,1.354-1.095,2.264l-0.257,3.082C12.559,22.769,12.308,23,12,23
			s-0.559-0.231-0.584-0.538l-0.257-3.082c-0.075-0.91-0.465-1.714-1.096-2.264C8.098,15.405,6.5,11.484,6.5,8.375
			C6.5,4.309,8.967,1,12,1s5.5,3.309,5.5,7.375C17.5,11.484,15.902,15.405,13.937,17.116z"/>
	</g>
</g>
</svg>
