<?xml version="1.0" encoding="utf-8"?>
<!-- Generator: Adobe Illustrator 19.0.0, SVG Export Plug-In . SVG Version: 6.00 Build 0)  -->
<svg version="1.1" id="Layer_1" xmlns="http://www.w3.org/2000/svg" xmlns:xlink="http://www.w3.org/1999/xlink" x="0px" y="0px"
	 viewBox="0 0 30 30" style="enable-background:new 0 0 30 30;" xml:space="preserve">
<g>
	<g>
		<path d="M29.5,24.5h-29C0.2,24.5,0,24.3,0,24v-5c0-0.3,0.2-0.5,0.5-0.5C2.4,18.5,4,16.9,4,15s-1.6-3.5-3.5-3.5
			C0.2,11.5,0,11.3,0,11V6c0-0.3,0.2-0.5,0.5-0.5h29C29.8,5.5,30,5.7,30,6v5c0,0.3-0.2,0.5-0.5,0.5c-1.9,0-3.5,1.6-3.5,3.5
			s1.6,3.5,3.5,3.5c0.3,0,0.5,0.2,0.5,0.5v5C30,24.3,29.8,24.5,29.5,24.5z M1,23.5h28v-4c-2.2-0.3-4-2.2-4-4.5s1.8-4.2,4-4.5v-4H1v4
			c2.2,0.3,4,2.2,4,4.5s-1.8,4.2-4,4.5V23.5z"/>
	</g>
	<g>
		<path d="M7.5,16.5C7.2,16.5,7,16.3,7,16v-2c0-0.3,0.2-0.5,0.5-0.5S8,13.7,8,14v2C8,16.3,7.8,16.5,7.5,16.5z"/>
	</g>
	<g>
		<path d="M7.5,11.5C7.2,11.5,7,11.3,7,11V9c0-0.3,0.2-0.5,0.5-0.5S8,8.7,8,9v2C8,11.3,7.8,11.5,7.5,11.5z"/>
	</g>
	<g>
		<path d="M7.5,21.5C7.2,21.5,7,21.3,7,21v-2c0-0.3,0.2-0.5,0.5-0.5S8,18.7,8,19v2C8,21.3,7.8,21.5,7.5,21.5z"/>
	</g>
	<g>
		<path d="M22.5,16.5c-0.3,0-0.5-0.2-0.5-0.5v-2c0-0.3,0.2-0.5,0.5-0.5S23,13.7,23,14v2C23,16.3,22.8,16.5,22.5,16.5z"/>
	</g>
	<g>
		<path d="M22.5,11.5c-0.3,0-0.5-0.2-0.5-0.5V9c0-0.3,0.2-0.5,0.5-0.5S23,8.7,23,9v2C23,11.3,22.8,11.5,22.5,11.5z"/>
	</g>
	<g>
		<path d="M22.5,21.5c-0.3,0-0.5-0.2-0.5-0.5v-2c0-0.3,0.2-0.5,0.5-0.5S23,18.7,23,19v2C23,21.3,22.8,21.5,22.5,21.5z"/>
	</g>
</g>
</svg>
