<?xml version="1.0" encoding="utf-8"?>
<!-- Generator: Adobe Illustrator 19.0.0, SVG Export Plug-In . SVG Version: 6.00 Build 0)  -->
<svg version="1.1" id="Layer_1" xmlns="http://www.w3.org/2000/svg" xmlns:xlink="http://www.w3.org/1999/xlink" x="0px" y="0px"
	 viewBox="0 0 30 30" style="enable-background:new 0 0 30 30;" xml:space="preserve">
<g>
	<g>
		<path d="M4,24c-0.3,0-0.5-0.2-0.5-0.5v-8C3.5,15.2,3.7,15,4,15h4c0.3,0,0.5,0.2,0.5,0.5S8.3,16,8,16H4.5v7.5C4.5,23.8,4.3,24,4,24
			z"/>
	</g>
	<g>
		<path d="M7,20H4c-0.3,0-0.5-0.2-0.5-0.5S3.7,19,4,19h3c0.3,0,0.5,0.2,0.5,0.5S7.3,20,7,20z"/>
	</g>
	<g>
		<path d="M14,24c-0.1,0-0.3-0.1-0.4-0.2l-3.1-3.6v3.2c0,0.3-0.2,0.5-0.5,0.5s-0.5-0.2-0.5-0.5v-8c0-0.3,0.2-0.5,0.5-0.5h2
			c1.3,0,2.5,1.2,2.5,2.5c0,1.5-0.8,2.5-2,2.5h-0.9l2.8,3.2c0.2,0.2,0.2,0.5,0,0.7C14.2,24,14.1,24,14,24z M10.5,19h2
			c1,0,1-1.3,1-1.5c0-0.8-0.7-1.5-1.5-1.5h-1.5V19z"/>
	</g>
	<g>
		<path d="M20,24h-4c-0.3,0-0.5-0.2-0.5-0.5v-8c0-0.3,0.2-0.5,0.5-0.5h4c0.3,0,0.5,0.2,0.5,0.5S20.3,16,20,16h-3.5v7H20
			c0.3,0,0.5,0.2,0.5,0.5S20.3,24,20,24z"/>
	</g>
	<g>
		<path d="M19,20h-3c-0.3,0-0.5-0.2-0.5-0.5S15.7,19,16,19h3c0.3,0,0.5,0.2,0.5,0.5S19.3,20,19,20z"/>
	</g>
	<g>
		<path d="M26,24h-4c-0.3,0-0.5-0.2-0.5-0.5v-8c0-0.3,0.2-0.5,0.5-0.5h4c0.3,0,0.5,0.2,0.5,0.5S26.3,16,26,16h-3.5v7H26
			c0.3,0,0.5,0.2,0.5,0.5S26.3,24,26,24z"/>
	</g>
	<g>
		<path d="M25,20h-3c-0.3,0-0.5-0.2-0.5-0.5S21.7,19,22,19h3c0.3,0,0.5,0.2,0.5,0.5S25.3,20,25,20z"/>
	</g>
	<g>
		<path d="M26.5,26h-23c-1.7,0-3-1.3-3-3v-7c0-1.7,1.3-3,3-3h23c1.7,0,3,1.3,3,3v7C29.5,24.7,28.2,26,26.5,26z M3.5,14
			c-1.1,0-2,0.9-2,2v7c0,1.1,0.9,2,2,2h23c1.1,0,2-0.9,2-2v-7c0-1.1-0.9-2-2-2H3.5z"/>
	</g>
	<g>
		<path d="M6,13.5c-0.1,0-0.3,0-0.4-0.1c-0.2-0.2-0.2-0.5,0-0.7l6-6c0.2-0.2,0.5-0.2,0.7,0s0.2,0.5,0,0.7l-6,6
			C6.3,13.5,6.1,13.5,6,13.5z"/>
	</g>
	<g>
		<path d="M24,14c-0.1,0-0.2,0-0.3-0.1l-7-6.5c-0.2-0.2-0.2-0.5,0-0.7c0.2-0.2,0.5-0.2,0.7,0l7,6.5c0.2,0.2,0.2,0.5,0,0.7
			C24.3,13.9,24.1,14,24,14z"/>
	</g>
	<g>
		<path d="M14.5,10c-1.7,0-3-1.3-3-3s1.3-3,3-3s3,1.3,3,3S16.2,10,14.5,10z M14.5,5c-1.1,0-2,0.9-2,2s0.9,2,2,2s2-0.9,2-2
			S15.6,5,14.5,5z"/>
	</g>
</g>
</svg>
