<?xml version="1.0" encoding="iso-8859-1"?>
<!-- Generator: Adobe Illustrator 19.0.0, SVG Export Plug-In . SVG Version: 6.00 Build 0)  -->
<svg version="1.1" id="Layer_1" xmlns="http://www.w3.org/2000/svg" xmlns:xlink="http://www.w3.org/1999/xlink" x="0px" y="0px"
	 viewBox="0 0 30 30" style="enable-background:new 0 0 30 30;" xml:space="preserve">
<g>
	<g>
		<path d="M12.5,23c0.628,0,1.229-0.022,1.816-0.053c0.21-0.011,0.391-0.152,0.452-0.354c0.592-1.94,2.058-3.509,3.919-4.198
			c0.244-0.09,0.378-0.353,0.308-0.604c-0.07-0.25-0.316-0.407-0.577-0.355C16.526,17.805,14.48,18,12.5,18
			c-4.842,0-9.329-1.04-11.713-2.713c-0.154-0.108-0.354-0.12-0.518-0.035C0.104,15.338,0,15.509,0,15.696V18.5
			C0,20.673,5.022,23,12.5,23z M12.5,17c7.478,0,12.5-2.327,12.5-4.5V9.278c0-0.193-0.111-0.37-0.286-0.452
			c-0.175-0.082-0.383-0.057-0.531,0.066C21.852,10.809,17.375,12,12.5,12S3.149,10.809,0.818,8.892
			C0.669,8.769,0.462,8.744,0.286,8.826C0.112,8.909,0,9.085,0,9.278V12.5C0,14.673,5.022,17,12.5,17z M12.5,11.06
			c7.01,0,12.5-2.429,12.5-5.53c0-0.005-0.002-0.01-0.002-0.015S25,5.505,25,5.5C25,2.416,19.51,0,12.5,0S0,2.416,0,5.5
			c0,0.005,0.002,0.01,0.002,0.015S0,5.525,0,5.53C0,8.631,5.49,11.06,12.5,11.06z M12.266,23.994
			c-4.751-0.034-9.148-1.071-11.478-2.707c-0.154-0.106-0.354-0.121-0.518-0.035C0.104,21.338,0,21.509,0,21.696v1.773
			c0,2.975,5.055,5.345,11.757,5.515h0.013c0.159,0,0.31-0.076,0.404-0.206c0.097-0.133,0.122-0.304,0.067-0.459
			C12.079,27.854,12,27.423,12,27c0-0.796,0.234-1.566,0.677-2.229c0.102-0.153,0.112-0.35,0.025-0.512
			C12.617,24.097,12.448,23.995,12.266,23.994z M25.808,21.5c-0.132,0-0.262,0.008-0.39,0.023C24.422,19.958,22.714,19,20.885,19
			c-2.837,0-5.173,2.222-5.404,5.04C14.076,24.273,13,25.512,13,27c0,1.654,1.329,3,2.962,3h9.846C28.12,30,30,28.093,30,25.75
			S28.12,21.5,25.808,21.5z"/>
	</g>
</g>
</svg>
