<?xml version="1.0" encoding="iso-8859-1"?>
<!-- Generator: Adobe Illustrator 19.0.0, SVG Export Plug-In . SVG Version: 6.00 Build 0)  -->
<svg version="1.1" id="Layer_1" xmlns="http://www.w3.org/2000/svg" xmlns:xlink="http://www.w3.org/1999/xlink" x="0px" y="0px"
	 viewBox="0 0 30 30" style="enable-background:new 0 0 30 30;" xml:space="preserve">
<g>
	<g>
		<path d="M12.5,23c1.051,0,2.078-0.049,3.139-0.149c0.229-0.022,0.415-0.198,0.447-0.427c0.216-1.492,0.873-2.871,1.898-3.987
			c0.144-0.156,0.173-0.388,0.072-0.575c-0.1-0.187-0.305-0.293-0.518-0.257C15.933,17.863,14.192,18,12.5,18
			c-4.841,0-9.33-1.039-11.713-2.713c-0.152-0.108-0.353-0.121-0.518-0.034C0.104,15.339,0,15.51,0,15.696V18.5
			C0,20.673,5.022,23,12.5,23z M12.5,11.06c7.009,0,12.5-2.429,12.5-5.53c0-0.005-0.002-0.01-0.002-0.015S25,5.505,25,5.5
			C25,2.416,19.51,0,12.5,0C5.492,0,0,2.416,0,5.5c0,0.005,0.002,0.01,0.002,0.015S0,5.525,0,5.53C0,8.632,5.492,11.06,12.5,11.06z
			 M12.5,17.001c7.477,0,12.5-2.327,12.5-4.5V9.279c0.001-0.194-0.11-0.37-0.286-0.453c-0.173-0.082-0.38-0.056-0.531,0.065
			C21.851,10.81,17.375,12,12.5,12c-4.874,0-9.35-1.19-11.683-3.108C0.669,8.771,0.461,8.745,0.286,8.827
			C0.112,8.91,0,9.086,0,9.279v3.222C0,14.674,5.022,17.001,12.5,17.001z M16.044,24.299c-0.029-0.272-0.268-0.469-0.543-0.445
			C14.445,23.952,13.437,24,12.5,24c-4.841,0-9.33-1.039-11.713-2.713c-0.152-0.108-0.353-0.121-0.518-0.034
			C0.104,21.339,0,21.51,0,21.696v1.773c0,3.102,5.491,5.53,12.5,5.53c1.564,0,3.103-0.126,4.573-0.374
			c0.169-0.029,0.313-0.143,0.378-0.302c0.066-0.16,0.045-0.342-0.055-0.481C16.646,26.791,16.18,25.565,16.044,24.299z M23.5,17
			c-3.584,0-6.5,2.916-6.5,6.5s2.916,6.5,6.5,6.5s6.5-2.916,6.5-6.5S27.084,17,23.5,17z M26.854,21.854l-4,4
			C22.756,25.952,22.628,26,22.5,26s-0.256-0.049-0.354-0.146l-2-2c-0.195-0.195-0.195-0.512,0-0.707s0.512-0.195,0.707,0
			l1.646,1.646l3.646-3.646c0.195-0.195,0.512-0.195,0.707,0S27.049,21.658,26.854,21.854z"/>
	</g>
</g>
</svg>
