<?xml version="1.0" encoding="iso-8859-1"?>
<!-- Generator: Adobe Illustrator 19.0.0, SVG Export Plug-In . SVG Version: 6.00 Build 0)  -->
<svg version="1.1" id="Layer_1" xmlns="http://www.w3.org/2000/svg" xmlns:xlink="http://www.w3.org/1999/xlink" x="0px" y="0px"
	 viewBox="0 0 30 30" style="enable-background:new 0 0 30 30;" xml:space="preserve">
<g>
	<g>
		<path d="M26.907,0H3.093C1.388,0,0,1.388,0,3.093v2.813c0,1.706,1.388,3.093,3.093,3.093H11v2H3.093C1.388,11,0,12.388,0,14.093
			v2.813c0,1.706,1.388,3.093,3.093,3.093H11v1h-0.5c-0.276,0-0.5,0.224-0.5,0.5V22H9.5C9.224,22,9,22.224,9,22.5V23H2.5
			C2.224,23,2,23.224,2,23.5S2.224,24,2.5,24H9v0.5C9,24.776,9.224,25,9.5,25h4c0.276,0,0.5-0.224,0.5-0.5V24h1.5
			c0.276,0,0.5-0.224,0.5-0.5S15.776,23,15.5,23H14v-0.5c0-0.276-0.224-0.5-0.5-0.5H13v-0.5c0-0.276-0.224-0.5-0.5-0.5H12v-1h4.582
			c0.178,0,0.343-0.095,0.433-0.249c1.086-1.869,2.921-3.151,4.985-3.581V14.5c0-0.276,0.224-0.5,0.5-0.5s0.5,0.224,0.5,0.5v1.534
			C23.167,16.023,23.332,16,23.5,16c0.51,0,1.012,0.051,1.5,0.15V14.5c0-0.276,0.224-0.5,0.5-0.5s0.5,0.224,0.5,0.5v1.937
			c1.085,0.386,2.078,1.016,2.905,1.879c0.116,0.12,0.281,0.175,0.445,0.146c0.164-0.028,0.303-0.135,0.371-0.286
			c0.185-0.406,0.278-0.833,0.278-1.27v-2.813c0-1.706-1.388-3.093-3.093-3.093H12V9h14.907C28.612,9,30,7.612,30,5.906V3.093
			C30,1.388,28.612,0,26.907,0z M4.5,6C3.673,6,3,5.327,3,4.5S3.673,3,4.5,3S6,3.672,6,4.5S5.327,6,4.5,6z M4.5,17
			C3.673,17,3,16.327,3,15.5S3.673,14,4.5,14S6,14.672,6,15.5S5.327,17,4.5,17z M19,14.5c0-0.276,0.224-0.5,0.5-0.5
			s0.5,0.224,0.5,0.5v2c0,0.276-0.224,0.5-0.5,0.5S19,16.776,19,16.5V14.5z M16,14.5c0-0.276,0.224-0.5,0.5-0.5s0.5,0.224,0.5,0.5v2
			c0,0.276-0.224,0.5-0.5,0.5S16,16.776,16,16.5V14.5z M17,5.5C17,5.776,16.776,6,16.5,6S16,5.776,16,5.5v-2
			C16,3.224,16.224,3,16.5,3S17,3.224,17,3.5V5.5z M20,5.5C20,5.776,19.776,6,19.5,6S19,5.776,19,5.5v-2C19,3.224,19.224,3,19.5,3
			S20,3.224,20,3.5V5.5z M23,5.5C23,5.776,22.776,6,22.5,6S22,5.776,22,5.5v-2C22,3.224,22.224,3,22.5,3S23,3.224,23,3.5V5.5z
			 M26,5.5C26,5.776,25.776,6,25.5,6S25,5.776,25,5.5v-2C25,3.224,25.224,3,25.5,3S26,3.224,26,3.5V5.5z M29.363,21.091
			c-0.128-0.059-0.273-0.058-0.402-0.003c-0.329,0.141-0.696,0.023-0.868-0.282c-0.179-0.314-0.095-0.707,0.2-0.933
			c0.108-0.083,0.179-0.208,0.192-0.345c0.015-0.137-0.028-0.273-0.118-0.378c-0.964-1.119-2.206-1.859-3.592-2.141
			c-0.141-0.028-0.282,0.004-0.396,0.088c-0.113,0.084-0.187,0.212-0.2,0.353C24.138,17.854,23.802,18,23.5,18
			s-0.638-0.145-0.679-0.55c-0.014-0.141-0.087-0.269-0.2-0.353c-0.114-0.084-0.258-0.116-0.396-0.088
			c-1.386,0.281-2.628,1.021-3.592,2.141c-0.09,0.104-0.133,0.241-0.118,0.378c0.014,0.137,0.084,0.262,0.192,0.345
			c0.295,0.226,0.379,0.618,0.2,0.933c-0.173,0.306-0.54,0.423-0.868,0.282c-0.129-0.055-0.275-0.056-0.402,0.003
			c-0.128,0.057-0.227,0.165-0.271,0.298C17.12,22.13,17,22.82,17,23.5s0.12,1.37,0.366,2.111c0.044,0.133,0.143,0.241,0.271,0.298
			c0.127,0.058,0.273,0.059,0.402,0.003c0.327-0.142,0.695-0.023,0.868,0.282c0.179,0.314,0.095,0.707-0.2,0.933
			c-0.108,0.083-0.179,0.208-0.192,0.345c-0.015,0.137,0.028,0.273,0.118,0.378c0.964,1.119,2.206,1.859,3.592,2.141
			c0.139,0.027,0.282-0.005,0.396-0.088c0.113-0.084,0.187-0.212,0.2-0.353C22.862,29.144,23.198,29,23.5,29s0.638,0.145,0.679,0.55
			c0.014,0.141,0.087,0.269,0.2,0.353C24.466,29.966,24.569,30,24.676,30c0.033,0,0.066-0.003,0.1-0.01
			c1.386-0.281,2.628-1.021,3.592-2.141c0.09-0.104,0.133-0.241,0.118-0.378c-0.014-0.137-0.084-0.262-0.192-0.345
			c-0.295-0.226-0.379-0.618-0.2-0.933c0.173-0.306,0.54-0.423,0.868-0.282c0.129,0.056,0.274,0.055,0.402-0.003
			c0.128-0.057,0.227-0.165,0.271-0.298C29.88,24.87,30,24.18,30,23.5s-0.12-1.37-0.366-2.111
			C29.59,21.255,29.491,21.148,29.363,21.091z M23.5,26c-1.381,0-2.5-1.119-2.5-2.5s1.119-2.5,2.5-2.5s2.5,1.119,2.5,2.5
			S24.881,26,23.5,26z"/>
	</g>
</g>
</svg>
