<?xml version="1.0" encoding="iso-8859-1"?>
<!-- Generator: Adobe Illustrator 19.0.0, SVG Export Plug-In . SVG Version: 6.00 Build 0)  -->
<svg version="1.1" id="Layer_1" xmlns="http://www.w3.org/2000/svg" xmlns:xlink="http://www.w3.org/1999/xlink" x="0px" y="0px"
	 viewBox="0 0 30 30" style="enable-background:new 0 0 30 30;" xml:space="preserve">
<g>
	<g>
		<path d="M26.907,11.5C28.613,11.5,30,10.112,30,8.407V5.594c0-1.706-1.388-3.093-3.093-3.093H3.094
			c-1.706,0-3.093,1.388-3.093,3.093v2.813c0,1.706,1.388,3.093,3.093,3.093H11v2H3.093C1.387,13.5,0,14.888,0,16.593v2.813
			c0,1.706,1.388,3.093,3.093,3.093H11v1h-0.5c-0.276,0-0.5,0.224-0.5,0.5v0.5H9.5c-0.276,0-0.5,0.224-0.5,0.5v0.5H2.5
			c-0.276,0-0.5,0.224-0.5,0.5s0.224,0.5,0.5,0.5H9v0.5c0,0.276,0.224,0.5,0.5,0.5h4c0.276,0,0.5-0.224,0.5-0.5v-0.5h6.5
			c0.276,0,0.5-0.224,0.5-0.5s-0.224-0.5-0.5-0.5H14v-0.5c0-0.276-0.224-0.5-0.5-0.5H13v-0.5c0-0.276-0.224-0.5-0.5-0.5H12v-1
			h14.907c1.706,0,3.093-1.388,3.093-3.093v-2.813c0-1.706-1.388-3.093-3.093-3.093H12v-2H26.907z M25,6c0-0.276,0.224-0.5,0.5-0.5
			S26,5.724,26,6v2c0,0.276-0.224,0.5-0.5,0.5S25,8.276,25,8V6z M22,6c0-0.276,0.224-0.5,0.5-0.5S23,5.724,23,6v2
			c0,0.276-0.224,0.5-0.5,0.5S22,8.276,22,8V6z M19,6c0-0.276,0.224-0.5,0.5-0.5S20,5.724,20,6v2c0,0.276-0.224,0.5-0.5,0.5
			S19,8.276,19,8V6z M16,6c0-0.276,0.224-0.5,0.5-0.5S17,5.724,17,6v2c0,0.276-0.224,0.5-0.5,0.5S16,8.276,16,8V6z M4.5,8.5
			C3.673,8.5,3,7.827,3,7c0-0.827,0.673-1.5,1.5-1.5C5.327,5.5,6,6.173,6,7C6,7.827,5.327,8.5,4.5,8.5z M4.5,19.5
			C3.673,19.5,3,18.827,3,18c0-0.827,0.673-1.5,1.5-1.5C5.327,16.5,6,17.173,6,18C6,18.827,5.327,19.5,4.5,19.5z M25,17
			c0-0.276,0.224-0.5,0.5-0.5S26,16.724,26,17v2c0,0.276-0.224,0.5-0.5,0.5S25,19.276,25,19V17z M22,17c0-0.276,0.224-0.5,0.5-0.5
			S23,16.724,23,17v2c0,0.276-0.224,0.5-0.5,0.5S22,19.276,22,19V17z M19,17c0-0.276,0.224-0.5,0.5-0.5S20,16.724,20,17v2
			c0,0.276-0.224,0.5-0.5,0.5S19,19.276,19,19V17z M16,17c0-0.276,0.224-0.5,0.5-0.5S17,16.724,17,17v2c0,0.276-0.224,0.5-0.5,0.5
			S16,19.276,16,19V17z"/>
	</g>
</g>
</svg>
