<?xml version="1.0" encoding="iso-8859-1"?>
<!-- Generator: Adobe Illustrator 19.0.0, SVG Export Plug-In . SVG Version: 6.00 Build 0)  -->
<svg version="1.1" id="Layer_1" xmlns="http://www.w3.org/2000/svg" xmlns:xlink="http://www.w3.org/1999/xlink" x="0px" y="0px"
	 viewBox="0 0 30 30" style="enable-background:new 0 0 30 30;" xml:space="preserve">
<g>
	<g>
		<path d="M26.907,9C28.612,9,30,7.612,30,5.907V3.093C30,1.388,28.612,0,26.907,0H3.093C1.388,0,0,1.388,0,3.093v2.813
			C0,7.612,1.388,9,3.093,9H11v2H3.093C1.388,11,0,12.388,0,14.093v2.813C0,18.612,1.388,20,3.093,20H11v1h-0.5
			c-0.276,0-0.5,0.224-0.5,0.5V22H9.5C9.224,22,9,22.224,9,22.5V23H2.5C2.224,23,2,23.224,2,23.5S2.224,24,2.5,24H9v0.5
			C9,24.776,9.224,25,9.5,25h4c0.276,0,0.5-0.224,0.5-0.5V24h1.5c0.276,0,0.5-0.224,0.5-0.5S15.776,23,15.5,23H14v-0.5
			c0-0.276-0.224-0.5-0.5-0.5H13v-0.5c0-0.276-0.224-0.5-0.5-0.5H12v-1h4.582c0.178,0,0.343-0.095,0.433-0.249
			C18.1,17.882,19.936,16.6,22,16.17V14.5c0-0.276,0.224-0.5,0.5-0.5s0.5,0.224,0.5,0.5v1.534C23.167,16.022,23.332,16,23.5,16
			c0.51,0,1.012,0.051,1.5,0.15V14.5c0-0.276,0.224-0.5,0.5-0.5s0.5,0.224,0.5,0.5v1.937c1.085,0.386,2.078,1.016,2.905,1.879
			c0.116,0.12,0.281,0.175,0.445,0.146c0.164-0.028,0.303-0.135,0.371-0.286C29.906,17.77,30,17.343,30,16.907v-2.813
			C30,12.388,28.612,11,26.907,11H12V9H26.907z M25,3.5C25,3.224,25.224,3,25.5,3S26,3.224,26,3.5v2C26,5.776,25.776,6,25.5,6
			S25,5.776,25,5.5V3.5z M22,3.5C22,3.224,22.224,3,22.5,3S23,3.224,23,3.5v2C23,5.776,22.776,6,22.5,6S22,5.776,22,5.5V3.5z
			 M19,3.5C19,3.224,19.224,3,19.5,3S20,3.224,20,3.5v2C20,5.776,19.776,6,19.5,6S19,5.776,19,5.5V3.5z M16,3.5
			C16,3.224,16.224,3,16.5,3S17,3.224,17,3.5v2C17,5.776,16.776,6,16.5,6S16,5.776,16,5.5V3.5z M4.5,6C3.673,6,3,5.327,3,4.5
			S3.673,3,4.5,3C5.327,3,6,3.673,6,4.5S5.327,6,4.5,6z M4.5,17C3.673,17,3,16.327,3,15.5S3.673,14,4.5,14C5.327,14,6,14.673,6,15.5
			S5.327,17,4.5,17z M19,14.5c0-0.276,0.224-0.5,0.5-0.5s0.5,0.224,0.5,0.5v2c0,0.276-0.224,0.5-0.5,0.5S19,16.776,19,16.5V14.5z
			 M16,14.5c0-0.276,0.224-0.5,0.5-0.5s0.5,0.224,0.5,0.5v2c0,0.276-0.224,0.5-0.5,0.5S16,16.776,16,16.5V14.5z M23.5,17
			c-3.584,0-6.5,2.916-6.5,6.5s2.916,6.5,6.5,6.5s6.5-2.916,6.5-6.5S27.084,17,23.5,17z M26.854,22.854
			C26.756,22.951,26.628,23,26.5,23s-0.256-0.049-0.354-0.146L24,20.707V27.5c0,0.276-0.224,0.5-0.5,0.5S23,27.776,23,27.5v-6.793
			l-2.146,2.146c-0.195,0.195-0.512,0.195-0.707,0c-0.195-0.195-0.195-0.512,0-0.707l2.999-2.999
			c0.046-0.046,0.102-0.083,0.163-0.109c0.122-0.051,0.26-0.051,0.382,0c0.062,0.025,0.117,0.062,0.163,0.109l2.999,2.999
			C27.049,22.342,27.049,22.658,26.854,22.854z"/>
	</g>
</g>
</svg>
