<?xml version="1.0" encoding="iso-8859-1"?>
<!-- Generator: Adobe Illustrator 19.0.0, SVG Export Plug-In . SVG Version: 6.00 Build 0)  -->
<svg version="1.1" id="Layer_1" xmlns="http://www.w3.org/2000/svg" xmlns:xlink="http://www.w3.org/1999/xlink" x="0px" y="0px"
	 viewBox="0 0 30 30" style="enable-background:new 0 0 30 30;" xml:space="preserve">
<g>
	<g>
		<path d="M13.001,17c7.478,0,12.5-2.327,12.5-4.5V9.278c0-0.193-0.111-0.369-0.286-0.452c-0.175-0.083-0.383-0.056-0.531,0.065
			C22.352,10.81,17.875,12,13.001,12C8.127,12,3.65,10.81,1.318,8.892C1.17,8.771,0.963,8.744,0.787,8.827
			C0.612,8.91,0.501,9.086,0.501,9.279v3.222C0.501,14.673,5.523,17,13.001,17z M13.001,11.061c7.01,0,12.5-2.429,12.5-5.53
			c0-0.005-0.002-0.01-0.002-0.015s0.002-0.011,0.002-0.016c0-3.084-5.49-5.5-12.5-5.5s-12.5,2.416-12.5,5.5
			c0,0.005,0.002,0.01,0.002,0.015S0.501,5.525,0.501,5.53C0.501,8.632,5.991,11.061,13.001,11.061z M27.001,25
			c-0.796,0-1.499,0.381-1.957,0.963l-5.638-2.819c0.055-0.207,0.094-0.42,0.094-0.644c0-0.382-0.093-0.74-0.246-1.064l5.781-2.409
			C25.493,19.614,26.199,20,27,20c1.379,0,2.5-1.121,2.5-2.5c0-1.379-1.121-2.5-2.5-2.5c-1.379,0-2.5,1.121-2.5,2.5
			c0,0.219,0.037,0.427,0.09,0.629l-5.782,2.409c-0.059,0.025-0.109,0.061-0.152,0.103C18.214,20.247,17.638,20,17,20
			c-1.379,0-2.5,1.121-2.5,2.5c0,1.379,1.121,2.5,2.5,2.5c0.796,0,1.499-0.381,1.957-0.963l5.638,2.819
			c-0.055,0.207-0.094,0.42-0.094,0.644c0,1.379,1.121,2.5,2.5,2.5c1.379,0,2.5-1.121,2.5-2.5C29.501,26.121,28.38,25,27.001,25z
			 M13.001,23c0.276,0,0.5-0.224,0.5-0.5c0-1.93,1.57-3.5,3.5-3.5c0.521,0,1.041,0.127,1.546,0.378
			c0.13,0.065,0.281,0.07,0.415,0.015l4.267-1.778c0.172-0.072,0.289-0.232,0.306-0.418c0.009-0.094,0.029-0.185,0.05-0.275
			l0.024-0.113c0.037-0.183-0.03-0.371-0.175-0.488c-0.145-0.118-0.344-0.145-0.514-0.071c-2.572,1.113-6.188,1.752-9.919,1.752
			c-4.842,0-9.329-1.039-11.713-2.713c-0.154-0.108-0.353-0.12-0.518-0.034c-0.166,0.086-0.27,0.257-0.27,0.443v2.804
			C0.501,20.673,5.523,23,13.001,23z M21.76,26.557l-2.336-1.168c-0.16-0.081-0.352-0.067-0.499,0.03
			C18.35,25.799,17.685,26,17.001,26c-1.233,0-2.39-0.676-3.019-1.765c-0.091-0.158-0.274-0.278-0.44-0.25l-0.247,0.008
			C13.197,23.996,13.099,24,13.001,24c-4.842,0-9.329-1.039-11.713-2.713c-0.154-0.108-0.353-0.121-0.518-0.034
			C0.604,21.339,0.5,21.51,0.5,21.696v1.773c0,3.102,5.49,5.53,12.5,5.53c3.295,0,6.396-0.546,8.73-1.536
			c0.18-0.076,0.299-0.249,0.305-0.444S21.935,26.644,21.76,26.557z"/>
	</g>
</g>
</svg>
