<?xml version="1.0" encoding="iso-8859-1"?>
<!-- Generator: Adobe Illustrator 19.0.0, SVG Export Plug-In . SVG Version: 6.00 Build 0)  -->
<svg version="1.1" id="Layer_1" xmlns="http://www.w3.org/2000/svg" xmlns:xlink="http://www.w3.org/1999/xlink" x="0px" y="0px"
	 viewBox="0 0 24 24" style="enable-background:new 0 0 24 24;" xml:space="preserve">
<g>
	<g>
		<path d="M13.5,15.5h-5C8.224,15.5,8,15.276,8,15v-4c0-0.276,0.224-0.5,0.5-0.5h5c0.276,0,0.5,0.224,0.5,0.5v4
			C14,15.276,13.776,15.5,13.5,15.5z M9,14.5h4v-3H9V14.5z"/>
	</g>
	<g>
		<path d="M13.5,13.5H11c-0.276,0-0.5-0.224-0.5-0.5s0.224-0.5,0.5-0.5h2.5c0.276,0,0.5,0.224,0.5,0.5S13.776,13.5,13.5,13.5z"/>
	</g>
	<g>
		<path d="M8.5,14.405c-0.009,0-0.019,0-0.027-0.001C5.309,14.229,0,13.683,0,12v-2c0-0.276,0.224-0.5,0.5-0.5S1,9.724,1,10v2
			c0.176,0.3,2.261,1.113,7.527,1.406c0.276,0.015,0.487,0.251,0.472,0.527C8.984,14.199,8.764,14.405,8.5,14.405z"/>
	</g>
	<g>
		<path d="M19.999,14c-0.245,0-0.46-0.181-0.494-0.432c-0.038-0.273,0.153-0.526,0.427-0.563c1.462-0.203,2.955-0.699,3.07-1.02
			L23,10c0-0.276,0.224-0.5,0.5-0.5S24,9.724,24,10v2c0,1.31-2.749,1.832-3.932,1.995C20.045,13.999,20.022,14,19.999,14z"/>
	</g>
	<g>
		<path d="M20.5,16.5c-0.063,0-0.125-0.012-0.185-0.035c-1.392-0.552-5.331-1.984-6.815-1.984c-0.276,0-0.5-0.224-0.5-0.5
			s0.224-0.5,0.5-0.5c1.813,0,6.153,1.653,7.034,1.995l1.156-0.289l-0.515-0.771c-0.91-0.32-5.602-1.935-7.676-1.935
			c-0.274,0-0.497-0.22-0.5-0.494s0.215-0.5,0.488-0.506c6.229-0.141,9.275-1.066,9.521-1.529C22.715,9.493,18.784,8.5,12,8.5
			S1.285,9.493,0.991,10.048c0.185,0.251,2.27,1.065,7.536,1.357c0.276,0.015,0.487,0.251,0.472,0.527
			c-0.015,0.275-0.245,0.514-0.526,0.471C5.309,12.229,0,11.683,0,10c0-2.43,10.771-2.5,12-2.5S24,7.57,24,10
			c0,1.342-3.34,1.962-6.371,2.248c2.035,0.562,3.907,1.234,4.041,1.282c0.101,0.036,0.187,0.104,0.246,0.193l1,1.5
			c0.09,0.135,0.109,0.306,0.051,0.458c-0.059,0.152-0.188,0.266-0.346,0.305l-2,0.5C20.581,16.495,20.541,16.5,20.5,16.5z"/>
	</g>
</g>
<g>
</g>
<g>
</g>
<g>
</g>
<g>
</g>
<g>
</g>
<g>
</g>
<g>
</g>
<g>
</g>
<g>
</g>
<g>
</g>
<g>
</g>
<g>
</g>
<g>
</g>
<g>
</g>
<g>
</g>
</svg>
