<?xml version="1.0" encoding="iso-8859-1"?>
<!-- Generator: Adobe Illustrator 19.0.0, SVG Export Plug-In . SVG Version: 6.00 Build 0)  -->
<svg version="1.1" id="Layer_1" xmlns="http://www.w3.org/2000/svg" xmlns:xlink="http://www.w3.org/1999/xlink" x="0px" y="0px"
	 viewBox="0 0 24 24" style="enable-background:new 0 0 24 24;" xml:space="preserve">
<g>
	<g>
		<path d="M16.5,24h-9c-0.217,0-0.41-0.141-0.476-0.348C6.982,23.522,6,20.408,6,16.5c0-2.458,0.786-4.229,1.359-5.522
			C7.717,10.171,8,9.533,8,9c0-0.772-0.26-1.556-0.512-2.313C7.237,5.93,7,5.215,7,4.5c0-1.177-0.919-2.728-0.929-2.743
			C5.967,1.582,5.978,1.362,6.1,1.2c0.165-0.22,0.739-0.954,1.197-1.157c0.183-0.081,0.397-0.045,0.544,0.091
			c0.98,0.915,2.921,0.885,3.854,0.869L12,1l0.305,0.003c0.934,0.016,2.873,0.046,3.854-0.869c0.147-0.137,0.361-0.172,0.544-0.091
			C17.161,0.247,17.735,0.98,17.9,1.2c0.122,0.162,0.133,0.382,0.029,0.557C17.919,1.772,17,3.323,17,4.5
			c0,0.715-0.237,1.43-0.488,2.187C16.26,7.444,16,8.228,16,9c0,0.533,0.283,1.171,0.641,1.978C17.214,12.271,18,14.042,18,16.5
			c0,3.908-0.982,7.022-1.024,7.152C16.91,23.859,16.717,24,16.5,24z M7.875,23h8.249C16.374,22.093,17,19.514,17,16.5
			c0-2.246-0.706-3.837-1.273-5.116C15.337,10.504,15,9.745,15,9c0-0.934,0.299-1.834,0.563-2.628C15.788,5.693,16,5.053,16,4.5
			c0-1.11,0.598-2.378,0.9-2.951c-0.134-0.16-0.271-0.309-0.385-0.419c-1.299,0.919-3.248,0.889-4.226,0.873L12,2l-0.29,0.003
			C10.736,2.02,8.785,2.051,7.485,1.13C7.371,1.24,7.233,1.389,7.1,1.549C7.402,2.122,8,3.39,8,4.5c0,0.553,0.212,1.193,0.438,1.872
			C8.701,7.166,9,8.066,9,9c0,0.745-0.337,1.504-0.727,2.384C7.706,12.663,7,14.254,7,16.5C7,19.514,7.626,22.093,7.875,23z"/>
	</g>
	<g>
		<path d="M15.5,9h-7C8.224,9,8,8.776,8,8.5S8.224,8,8.5,8h7C15.776,8,16,8.224,16,8.5S15.776,9,15.5,9z"/>
	</g>
</g>
<g>
</g>
<g>
</g>
<g>
</g>
<g>
</g>
<g>
</g>
<g>
</g>
<g>
</g>
<g>
</g>
<g>
</g>
<g>
</g>
<g>
</g>
<g>
</g>
<g>
</g>
<g>
</g>
<g>
</g>
</svg>
