<?xml version="1.0" encoding="iso-8859-1"?>
<!-- Generator: Adobe Illustrator 19.0.0, SVG Export Plug-In . SVG Version: 6.00 Build 0)  -->
<svg version="1.1" id="Layer_1" xmlns="http://www.w3.org/2000/svg" xmlns:xlink="http://www.w3.org/1999/xlink" x="0px" y="0px"
	 viewBox="0 0 24 24" style="enable-background:new 0 0 24 24;" xml:space="preserve">
<g>
	<g>
		<path d="M1.5,12.5C1.224,12.5,1,12.276,1,12s0.224-0.5,0.5-0.5c1.364,0,2-2.383,2-7.5c0-0.276,0.224-0.5,0.5-0.5S4.5,3.724,4.5,4
			C4.5,8.415,4.137,12.5,1.5,12.5z"/>
	</g>
	<g>
		<path d="M22,22.5h-8c-0.242,0-0.449-0.173-0.492-0.411L12,13.795l-1.508,8.294C10.449,22.327,10.242,22.5,10,22.5H2
			c-0.25,0-0.462-0.185-0.496-0.434C1.463,21.762,0.5,14.562,0.5,11.5c0-2.935,0.879-7.011,1-7.555V2c0-0.276,0.224-0.5,0.5-0.5h20
			c0.276,0,0.5,0.224,0.5,0.5v1.945c0.121,0.544,1,4.62,1,7.555c0,3.062-0.963,10.262-1.004,10.566
			C22.462,22.315,22.25,22.5,22,22.5z M14.417,21.5h7.144c0.211-1.63,0.938-7.427,0.938-10c0-2.971-0.978-7.346-0.988-7.39
			C21.504,4.074,21.5,4.037,21.5,4V2.5h-19V4c0,0.037-0.004,0.074-0.012,0.11C2.478,4.154,1.5,8.529,1.5,11.5
			c0,2.573,0.727,8.37,0.938,10h7.144l1.926-10.589C11.551,10.673,11.758,10.5,12,10.5s0.449,0.173,0.492,0.411L14.417,21.5z"/>
	</g>
	<g>
		<path d="M22,4.5H2C1.724,4.5,1.5,4.276,1.5,4S1.724,3.5,2,3.5h20c0.276,0,0.5,0.224,0.5,0.5S22.276,4.5,22,4.5z"/>
	</g>
	<g>
		<path d="M22.5,12.5c-2.637,0-3-4.085-3-8.5c0-0.276,0.224-0.5,0.5-0.5s0.5,0.224,0.5,0.5c0,5.117,0.636,7.5,2,7.5
			c0.276,0,0.5,0.224,0.5,0.5S22.776,12.5,22.5,12.5z"/>
	</g>
	<g>
		<path d="M12,11.5c-0.276,0-0.5-0.224-0.5-0.5V4c0-0.276,0.224-0.5,0.5-0.5s0.5,0.224,0.5,0.5v7C12.5,11.276,12.276,11.5,12,11.5z"
			/>
	</g>
</g>
<g>
</g>
<g>
</g>
<g>
</g>
<g>
</g>
<g>
</g>
<g>
</g>
<g>
</g>
<g>
</g>
<g>
</g>
<g>
</g>
<g>
</g>
<g>
</g>
<g>
</g>
<g>
</g>
<g>
</g>
</svg>
