<?xml version="1.0" encoding="utf-8"?>
<!-- Generator: Adobe Illustrator 19.0.0, SVG Export Plug-In . SVG Version: 6.00 Build 0)  -->
<svg version="1.1" id="Layer_1" xmlns="http://www.w3.org/2000/svg" xmlns:xlink="http://www.w3.org/1999/xlink" x="0px" y="0px"
	 viewBox="0 0 30 30" style="enable-background:new 0 0 30 30;" xml:space="preserve">
<g id="XMLID_170_">
	<path id="XMLID_171_" d="M19.8,13.5L9.8,17c-0.2,0.1-0.4,0.3-0.3,0.6c0,0.2,0.2,0.4,0.5,0.4c0.9,0,2.2,0.7,2.5,2.5h-2v4h9v-4h-1V17
		c0-0.3-0.2-0.5-0.5-0.5s-0.5,0.2-0.5,0.5v3.5h-4c-0.1-1.5-0.9-2.5-1.8-3l8.5-3c0.3-0.1,0.4-0.4,0.3-0.6
		C20.4,13.6,20.1,13.4,19.8,13.5z"/>
	<path id="XMLID_172_" d="M19.8,9.5l-10,4c-0.3,0.1-0.4,0.4-0.3,0.7c0.1,0.2,0.3,0.3,0.5,0.3c0.1,0,0.1,0,0.2,0l10-4
		c0.3-0.1,0.4-0.4,0.3-0.7C20.4,9.6,20.1,9.4,19.8,9.5z"/>
	<path id="XMLID_173_" d="M19.8,5.5l-10,4c-0.3,0.1-0.4,0.4-0.3,0.7c0.1,0.2,0.3,0.3,0.5,0.3c0.1,0,0.1,0,0.2,0l10-4
		c0.3-0.1,0.4-0.4,0.3-0.7C20.4,5.6,20.1,5.4,19.8,5.5z"/>
	<path id="XMLID_174_" d="M10,6.5c0.1,0,0.1,0,0.2,0l10-4c0.3-0.1,0.4-0.4,0.3-0.7c-0.1-0.3-0.4-0.4-0.6-0.3l-10,4
		C9.6,5.6,9.4,5.9,9.5,6.2C9.6,6.4,9.8,6.5,10,6.5z"/>
	<path id="XMLID_175_" d="M10,3c0.1,0,0.1,0,0.2,0l4-1.5c0.3-0.1,0.4-0.4,0.3-0.6c-0.1-0.3-0.4-0.4-0.6-0.3L9.8,2
		C9.6,2.1,9.4,2.4,9.5,2.7C9.6,2.9,9.8,3,10,3z"/>
	<path id="XMLID_176_" d="M11.7,27.7l1.6,1.8h2.9l2.1-1.8c0.6-0.6,1-1.4,1.2-2.2h-8.8C10.7,26.3,11.1,27.1,11.7,27.7z"/>
</g>
</svg>
