<?xml version="1.0" encoding="utf-8"?>
<!-- Generator: Adobe Illustrator 19.0.0, SVG Export Plug-In . SVG Version: 6.00 Build 0)  -->
<svg version="1.1" id="Layer_1" xmlns="http://www.w3.org/2000/svg" xmlns:xlink="http://www.w3.org/1999/xlink" x="0px" y="0px"
	 viewBox="0 0 30 30" style="enable-background:new 0 0 30 30;" xml:space="preserve">
<g id="XMLID_177_">
	<path id="XMLID_178_" d="M20.2,1.5c-0.1-0.1-0.3-0.1-0.4,0c-0.1,0-0.2,0.1-0.3,0.2c-0.1,0.1-0.2,0.3-0.3,0.4
		c-1.1,1.1-1.5,3.5-1.9,5.7c-0.4,2.4-0.8,4.6-2.1,5.9c-1.7,1.7-3.8,2.3-6,1.6c-0.2-0.1-0.4,0-0.6,0.2S8.6,15.9,8.7,16l0.1,0.1
		c0.1,0.1,0.2,0.2,0.3,0.4c0.3,0.3,0.5,0.6,0.6,1c0,0.2,0.1,0.4,0.1,0.6c0.3,2,0.9,5.4,2.8,5.4h5c2.1,0,3.1-4.2,3.4-6
		c0-0.1,0.2-0.5,0.9-1.2c2-1.8,3.2-4.4,3.2-6.9C25.2,6.3,23.3,3.3,20.2,1.5z"/>
	<path id="XMLID_179_" d="M10.9,14.5c1.3,0,2.6-0.6,3.7-1.6c1.1-1,1.4-3.1,1.8-5.3c0.4-2.4,0.9-4.9,2.2-6.2c0.1-0.1,0.2-0.4,0.1-0.5
		s-0.3-0.3-0.5-0.3c-5.7,0-9.7,2-11.6,3.9c-2.1,2.1-2.4,4.5-0.9,6.8c1.2-3.6,4.1-6.7,5.5-6.7c0.3,0,0.5,0.2,0.5,0.5
		s-0.2,0.5-0.5,0.5c-0.1,0-0.1,0-0.2,0c0,0-0.1,0-0.1,0c-0.1,0-0.1,0.1-0.2,0.1c0,0-0.1,0.1-0.1,0.1c-0.1,0-0.1,0.1-0.2,0.1
		c-0.1,0-0.1,0.1-0.2,0.1c-0.1,0-0.1,0.1-0.2,0.1C10.1,6.2,10,6.2,9.9,6.3c0,0-0.1,0.1-0.1,0.1C9.2,7,8.7,7.7,8.1,8.5c0,0,0,0,0,0
		c-1,1.6-1.9,3.5-1.9,5.5c0,0.3,0.2,0.5,0.5,0.5s0.5-0.2,0.5-0.5c0-0.3,0-0.7,0.1-1C8.5,14,9.7,14.5,10.9,14.5z"/>
	<path id="XMLID_180_" d="M17.2,24.5h-4c-0.3,0-0.5,0.2-0.5,0.5s0.2,0.5,0.5,0.5h4c0.3,0,0.5-0.2,0.5-0.5S17.5,24.5,17.2,24.5z"/>
	<path id="XMLID_181_" d="M17.2,26.5h-4c-0.3,0-0.5,0.2-0.5,0.5s0.2,0.5,0.5,0.5h4c0.3,0,0.5-0.2,0.5-0.5S17.5,26.5,17.2,26.5z"/>
	<path id="XMLID_182_" d="M16.2,28.5h-2c-0.3,0-0.5,0.2-0.5,0.5s0.2,0.5,0.5,0.5h2c0.3,0,0.5-0.2,0.5-0.5S16.5,28.5,16.2,28.5z"/>
</g>
</svg>
