<?xml version="1.0" encoding="iso-8859-1"?>
<!-- Generator: Adobe Illustrator 19.0.0, SVG Export Plug-In . SVG Version: 6.00 Build 0)  -->
<svg version="1.1" id="Layer_1" xmlns="http://www.w3.org/2000/svg" xmlns:xlink="http://www.w3.org/1999/xlink" x="0px" y="0px"
	 viewBox="0 0 24 24" style="enable-background:new 0 0 24 24;" xml:space="preserve">
<g>
	<g>
		<circle cx="10.501" cy="21.5" r="2.5"/>
		<circle cx="2.501" cy="21.5" r="2.5"/>
	</g>
	<g>
		<path d="M7.501,20h-2c-0.189,0-0.362-0.107-0.447-0.276L4.193,18H0.502c-0.151,0-0.295-0.069-0.39-0.187
			c-0.096-0.119-0.131-0.273-0.099-0.421l2-9C2.064,8.163,2.267,8,2.501,8h8c0.234,0,0.437,0.163,0.488,0.392l1.971,8.869
			c0.039,0.071,0.061,0.153,0.061,0.24c0,0.276-0.224,0.5-0.5,0.5c-0.005,0-0.012,0-0.02,0H8.81l-0.861,1.724
			C7.863,19.893,7.691,20,7.501,20z M5.81,19h1.383l0.861-1.724C8.139,17.107,8.312,17,8.501,17h3.377L10.1,9H2.903l-1.778,8h3.377
			c0.189,0,0.362,0.107,0.447,0.276L5.81,19z"/>
	</g>
	<path d="M16.501,0h-2c-0.276,0-0.5,0.224-0.5,0.5v21c0,0.276,0.224,0.5,0.5,0.5h2c0.276,0,0.5-0.224,0.5-0.5v-21
		C17.001,0.223,16.778,0,16.501,0z"/>
	<path d="M23.501,19h-7c-0.276,0-0.5,0.224-0.5,0.5s0.224,0.5,0.5,0.5v0.98l-0.138,0.039c-0.266,0.076-0.419,0.353-0.343,0.618
		C16.083,21.857,16.283,22,16.5,22c0.045,0,0.092-0.006,0.138-0.019l7-2c0.239-0.069,0.392-0.303,0.357-0.55S23.75,19,23.501,19z"/>
	<path d="M7.948,18.276l-2-4C5.863,14.107,5.69,14,5.501,14h-4c-0.215,0-0.406,0.138-0.475,0.342l-1,3
		c-0.051,0.152-0.025,0.32,0.069,0.451c0.094,0.13,0.244,0.208,0.405,0.208h3.691l0.861,1.724c0.085,0.169,0.258,0.276,0.447,0.276
		h2c0.276,0,0.5-0.224,0.5-0.5v-1C8.001,18.422,7.983,18.345,7.948,18.276z"/>
	<g>
		<path d="M9.5,18c-0.233,0-0.441-0.164-0.489-0.402l-1-5c-0.055-0.271,0.121-0.534,0.393-0.588
			c0.259-0.055,0.533,0.121,0.588,0.392l1,5c0.055,0.271-0.121,0.534-0.393,0.588C9.567,17.997,9.533,18,9.5,18z"/>
	</g>
	<g>
		<path d="M9.501,13h-2c-0.276,0-0.5-0.224-0.5-0.5s0.224-0.5,0.5-0.5h2c0.276,0,0.5,0.224,0.5,0.5S9.778,13,9.501,13z"/>
	</g>
</g>
</svg>
