<?xml version="1.0" encoding="iso-8859-1"?>
<!-- Generator: Adobe Illustrator 19.0.0, SVG Export Plug-In . SVG Version: 6.00 Build 0)  -->
<svg version="1.1" id="Layer_1" xmlns="http://www.w3.org/2000/svg" xmlns:xlink="http://www.w3.org/1999/xlink" x="0px" y="0px"
	 viewBox="0 0 24 24" style="enable-background:new 0 0 24 24;" xml:space="preserve">
<g>
	<path d="M21,1H10C9.173,1,8.5,1.673,8.5,2.5S9.173,4,10,4h11c0.827,0,1.5-0.673,1.5-1.5S21.827,1,21,1z"/>
	<g>
		<line style="fill:none;" x1="20" y1="0.5" x2="18" y2="0.5"/>
		<path d="M20,1h-2c-0.276,0-0.5-0.224-0.5-0.5S17.724,0,18,0h2c0.276,0,0.5,0.224,0.5,0.5S20.276,1,20,1z"/>
	</g>
	<path d="M14,21H3c-0.827,0-1.5,0.673-1.5,1.5S2.173,24,3,24h11c0.827,0,1.5-0.673,1.5-1.5S14.827,21,14,21z"/>
	<path d="M14,13H3c-0.827,0-1.5,0.673-1.5,1.5S2.173,16,3,16h11c0.827,0,1.5-0.673,1.5-1.5S14.827,13,14,13z"/>
	<path d="M14,5H3C2.173,5,1.5,5.673,1.5,6.5S2.173,8,3,8h11c0.827,0,1.5-0.673,1.5-1.5S14.827,5,14,5z"/>
	<g>
		<line style="fill:none;" x1="4" y1="4.5" x2="6" y2="4.5"/>
		<path d="M6,5H4C3.724,5,3.5,4.776,3.5,4.5S3.724,4,4,4h2c0.276,0,0.5,0.224,0.5,0.5S6.276,5,6,5z"/>
	</g>
	<path d="M14,17H3c-0.276,0-0.5,0.224-0.5,0.5v4C2.5,21.776,2.724,22,3,22h11c0.276,0,0.5-0.224,0.5-0.5v-4
		C14.5,17.224,14.276,17,14,17z"/>
	<path d="M21,5h-4.184c-0.163,0-0.315,0.079-0.409,0.212c-0.093,0.132-0.117,0.303-0.063,0.456c0.104,0.294,0.155,0.566,0.155,0.833
		c0,0.747-0.343,1.452-0.94,1.935c-0.166,0.134-0.228,0.358-0.156,0.559c0.064,0.178,0.096,0.344,0.096,0.507
		c0,0.276,0.224,0.5,0.5,0.5h5c0.276,0,0.5-0.224,0.5-0.5v-4C21.5,5.224,21.276,5,21,5z"/>
	<path d="M21,9h-5c-0.276,0-0.5,0.224-0.5,0.5v2c0,0.276,0.224,0.5,0.5,0.5h5c0.827,0,1.5-0.673,1.5-1.5S21.827,9,21,9z"/>
	<path d="M21,13h-4.192c-0.163,0-0.316,0.08-0.41,0.213c-0.094,0.134-0.116,0.305-0.06,0.458c0.109,0.298,0.162,0.568,0.162,0.829
		c0,0.747-0.343,1.452-0.94,1.935c-0.166,0.134-0.228,0.358-0.156,0.559c0.064,0.178,0.096,0.344,0.096,0.507
		c0,0.276,0.224,0.5,0.5,0.5h5c0.276,0,0.5-0.224,0.5-0.5v-4C21.5,13.224,21.276,13,21,13z"/>
	<path d="M21,17h-5c-0.276,0-0.5,0.224-0.5,0.5v2c0,0.276,0.224,0.5,0.5,0.5h5c0.827,0,1.5-0.673,1.5-1.5S21.827,17,21,17z"/>
	<path d="M14,9H3C2.724,9,2.5,9.224,2.5,9.5v4C2.5,13.776,2.724,14,3,14h11c0.276,0,0.5-0.224,0.5-0.5v-4C14.5,9.224,14.276,9,14,9z
		"/>
</g>
</svg>
