<?xml version="1.0" encoding="iso-8859-1"?>
<!-- Generator: Adobe Illustrator 19.0.0, SVG Export Plug-In . SVG Version: 6.00 Build 0)  -->
<svg version="1.1" id="Layer_1" xmlns="http://www.w3.org/2000/svg" xmlns:xlink="http://www.w3.org/1999/xlink" x="0px" y="0px"
	 viewBox="0 0 24 24" style="enable-background:new 0 0 24 24;" xml:space="preserve">
<g>
	<g>
		<path d="M13.795,8.444c-0.077,0-0.155-0.018-0.226-0.054c-1.021-0.517-2.115-0.517-3.137,0c-0.145,0.072-0.315,0.071-0.457-0.003
			C9.832,8.313,9.734,8.174,9.711,8.014L9.505,6.571C9.5,5.122,10.622,4,12,4s2.5,1.122,2.5,2.5l-0.211,1.514
			c-0.023,0.159-0.121,0.298-0.264,0.373C13.954,8.425,13.875,8.444,13.795,8.444z M12.001,5.001c-0.827,0-1.5,0.673-1.5,1.5
			l0.107,0.733c0.911-0.309,1.871-0.31,2.783-0.001l0.114-0.803C13.501,5.674,12.828,5.001,12.001,5.001z"/>
	</g>
	<g>
		<circle cx="12.001" cy="11.501" r="1.5"/>
		<path d="M12.001,7.001c-2.481,0-4.5,2.019-4.5,4.5c0,1.421,0.675,2.675,1.706,3.5h5.587c1.032-0.825,1.706-2.079,1.706-3.5
			C16.501,9.02,14.482,7.001,12.001,7.001z M12.001,14.001c-1.378,0-2.5-1.122-2.5-2.5s1.122-2.5,2.5-2.5s2.5,1.122,2.5,2.5
			S13.379,14.001,12.001,14.001z"/>
	</g>
	<path d="M21.81,16H2.191c-0.018,0.049-0.049,0.09-0.062,0.143c-0.169,0.671,0.124,1.342,0.729,1.668C5.401,19.182,8.819,20,12,20
		s6.599-0.818,9.142-2.189c0.605-0.326,0.898-0.997,0.729-1.668C21.859,16.091,21.828,16.051,21.81,16z"/>
	<path d="M21.479,15.001c-0.2-3.705-2.589-6.974-5.991-8.327c-0.002,0.013-0.001,0.027-0.003,0.041l-0.071,0.497
		c1.265,1.007,2.086,2.55,2.086,4.289c0,1.328-0.474,2.548-1.261,3.5C16.239,15.001,21.479,15.001,21.479,15.001z"/>
	<path d="M8.587,7.212L8.516,6.714C8.514,6.701,8.515,6.688,8.513,6.675c-3.401,1.353-5.791,4.621-5.99,8.327h5.239
		c-0.787-0.952-1.261-2.172-1.261-3.5C6.501,9.761,7.322,8.219,8.587,7.212z"/>
</g>
</svg>
