<?xml version="1.0" encoding="utf-8"?>
<!-- Generator: Adobe Illustrator 19.0.0, SVG Export Plug-In . SVG Version: 6.00 Build 0)  -->
<svg version="1.1" id="Layer_1" xmlns="http://www.w3.org/2000/svg" xmlns:xlink="http://www.w3.org/1999/xlink" x="0px" y="0px"
	 viewBox="0 0 30 30" style="enable-background:new 0 0 30 30;" xml:space="preserve">
<g>
	<path d="M26.9,0h-2c-0.2,0-0.3,0.1-0.4,0.2l-2.2,3l-0.1-0.1c-0.2-0.2-0.5-0.2-0.7,0l-5.1,5.1l-1.1-1.1c-0.2-0.2-0.5-0.2-0.7,0l-5,5
		c-0.9,0.9-1.1,2.1-0.7,3.2l-0.8,0.8c-0.3,0.3-0.5,0.8-0.5,1.4c0,0.5,0.2,0.9,0.4,1.2l-2.4,2.4l-2,2c-1.7,1.7-1,4.2,0.5,5.7
		C4.9,29.7,5.8,30,6.6,30c1,0,2-0.5,2.7-1.1l10-10c1-1,3-1.2,4.3,0c1.2,1.4,1.2,3.1,0,4.3l-5,5c-0.2,0.2-0.2,0.5,0,0.7
		s0.5,0.2,0.7,0l5-5c1.6-1.6,1.6-3.9,0-5.7c-1.8-1.6-4.4-1.3-5.7,0l-10,10c-0.9,0.9-2.4,1.4-3.8,0C3.6,27,3,25.1,4.3,23.9l2-2
		l2.4-2.4c0.3,0.3,0.8,0.4,1.2,0.4c0.5,0,1-0.2,1.4-0.5l0.8-0.8c0.3,0.1,0.7,0.2,1.1,0.2c0.8,0,1.5-0.3,2.1-0.9l5-5
		c0.2-0.2,0.2-0.5,0-0.7l-0.6-0.6l5.1-5.1c0.2-0.2,0.2-0.5,0-0.7l-0.1-0.1l2.6-2.6c0.1-0.1,0.1-0.2,0.1-0.4v-2
		C27.4,0.2,27.2,0,26.9,0z M18.9,10.8L17.1,9l4.8-4.8l0.1,0.1l1.5,1.5L23.7,6L18.9,10.8z M26.4,2.3l-2.5,2.5L23.1,4L25.2,1h1.2V2.3z
		"/>
</g>
</svg>
