<?xml version="1.0" encoding="utf-8"?>
<!-- Generator: Adobe Illustrator 19.0.0, SVG Export Plug-In . SVG Version: 6.00 Build 0)  -->
<svg version="1.1" id="Layer_1" xmlns="http://www.w3.org/2000/svg" xmlns:xlink="http://www.w3.org/1999/xlink" x="0px" y="0px"
	 viewBox="0 0 30 30" style="enable-background:new 0 0 30 30;" xml:space="preserve">
<g>
	<g>
		<circle cx="5.5" cy="11.5" r="0.5"/>
	</g>
	<g>
		<circle cx="5.5" cy="17.5" r="2.5"/>
	</g>
	<g>
		<path d="M10,7H3c-1.7,0-3,1.4-3,3v10c0,1.7,1.4,3,3,3h7V7z M5.5,10C6.3,10,7,10.7,7,11.5S6.3,13,5.5,13S4,12.3,4,11.5
			S4.7,10,5.5,10z M5.5,21C3.6,21,2,19.4,2,17.5S3.6,14,5.5,14S9,15.6,9,17.5S7.4,21,5.5,21z"/>
	</g>
	<g>
		<path d="M19,13h-8v10h8V13z M13.5,14h3c0.3,0,0.5,0.2,0.5,0.5S16.8,15,16.5,15h-3c-0.3,0-0.5-0.2-0.5-0.5S13.2,14,13.5,14z
			 M16.5,21h-3c-0.3,0-0.5-0.2-0.5-0.5s0.2-0.5,0.5-0.5h3c0.3,0,0.5,0.2,0.5,0.5S16.8,21,16.5,21z M16.5,19h-3
			c-0.3,0-0.5-0.2-0.5-0.5s0.2-0.5,0.5-0.5h3c0.3,0,0.5,0.2,0.5,0.5S16.8,19,16.5,19z M16.5,17h-3c-0.3,0-0.5-0.2-0.5-0.5
			s0.2-0.5,0.5-0.5h3c0.3,0,0.5,0.2,0.5,0.5S16.8,17,16.5,17z"/>
	</g>
	<g>
		<rect x="11" y="7" width="8" height="5"/>
	</g>
	<g>
		<circle cx="24.5" cy="11.5" r="0.5"/>
	</g>
	<g>
		<path d="M27,7h-7v16h7c1.7,0,3-1.4,3-3V10C30,8.3,28.6,7,27,7z M24.5,10c0.8,0,1.5,0.7,1.5,1.5S25.3,13,24.5,13S23,12.3,23,11.5
			S23.7,10,24.5,10z M24.5,21c-1.9,0-3.5-1.6-3.5-3.5s1.6-3.5,3.5-3.5s3.5,1.6,3.5,3.5S26.4,21,24.5,21z"/>
	</g>
	<g>
		<circle cx="24.5" cy="17.5" r="2.5"/>
	</g>
</g>
</svg>
