<?xml version="1.0" encoding="utf-8"?>
<!-- Generator: Adobe Illustrator 19.0.0, SVG Export Plug-In . SVG Version: 6.00 Build 0)  -->
<svg version="1.1" id="Layer_1" xmlns="http://www.w3.org/2000/svg" xmlns:xlink="http://www.w3.org/1999/xlink" x="0px" y="0px"
	 viewBox="0 0 30 30" style="enable-background:new 0 0 30 30;" xml:space="preserve">
<g>
	<g>
		<path d="M19.4,3.8C19.1,1.7,17.3,0,15,0s-4.1,1.7-4.4,3.9C12,3.3,13.4,3,15,3C16.6,3,18,3.3,19.4,3.8z"/>
	</g>
	<g>
		<path d="M26,10.2c0.6-0.8,0.9-1.7,0.9-2.7c0-1.2-0.5-2.3-1.3-3.2c-0.8-0.8-2-1.3-3.2-1.3c-1,0-1.9,0.3-2.7,0.9
			C22.6,5.2,24.8,7.4,26,10.2z"/>
	</g>
	<g>
		<path d="M10.3,4C9.5,3.4,8.5,3,7.5,3C5,3,3,5,3,7.5c0,1,0.4,2,1,2.8C5.2,7.5,7.4,5.2,10.3,4z"/>
	</g>
	<g>
		<path d="M26.1,10.5c0.6,1.4,0.9,2.9,0.9,4.5c0,1.5-0.3,3-0.8,4.4c0.9-0.1,1.8-0.5,2.5-1.2c0.9-0.8,1.3-2,1.3-3.2
			C30,12.7,28.3,10.8,26.1,10.5z"/>
	</g>
	<g>
		<path d="M19.7,26c0.8,0.6,1.7,0.9,2.7,0.9c1.2,0,2.3-0.5,3.2-1.3c1.6-1.6,1.7-4.1,0.4-5.8C24.8,22.6,22.5,24.8,19.7,26z"/>
	</g>
	<g>
		<path d="M26,15c0-6.1-4.9-11-11-11C9.3,4,4.7,8.3,4.1,13.8c0.6,0.4,1,0.8,1.4,1.4l1.4-1.6c0.5-0.5,1-0.8,1.6-0.9
			C9.4,9.9,12,8,15,8c3.9,0,7,3.1,7,7c0,3-1.9,5.6-4.6,6.6c-0.1,0.5-0.4,1.1-0.8,1.5l-2.9,2.9C14.1,26,14.6,26,15,26
			C21.1,26,26,21.1,26,15z"/>
	</g>
	<g>
		<path d="M15.9,19.1c-0.5-0.5-1.2-0.7-1.8-0.7c0-0.1,0-0.2,0-0.2c0-0.6-0.2-1.2-0.7-1.6c-0.5-0.5-1.2-0.7-1.8-0.7
			c0.1-0.7-0.1-1.3-0.7-1.8c-0.9-0.9-2.3-0.9-3.2,0l-2.6,3V17c0-1.7-1.8-3-3.5-3C1.3,14,1,14.2,1,14.4c0,0.3-1,7.1-1,9.6
			c0,1.3,0.2,2.9,2.1,4.9C2.9,29.6,4,30,5.2,30c1.8,0,3.9-0.9,5.2-2.2l5.5-5.5C16.7,21.5,16.7,20,15.9,19.1z"/>
	</g>
</g>
</svg>
