<?xml version="1.0" encoding="utf-8"?>
<!-- Generator: Adobe Illustrator 19.0.0, SVG Export Plug-In . SVG Version: 6.00 Build 0)  -->
<svg version="1.1" id="Layer_1" xmlns="http://www.w3.org/2000/svg" xmlns:xlink="http://www.w3.org/1999/xlink" x="0px" y="0px"
	 viewBox="0 0 30 30" style="enable-background:new 0 0 30 30;" xml:space="preserve">
<g>
	<g>
		<g>
			<path d="M27,25.5h-4c-0.3,0-0.5-0.2-0.5-0.5s0.2-0.5,0.5-0.5h3.5V21c0-0.3,0.2-0.5,0.5-0.5s0.5,0.2,0.5,0.5v4
				C27.5,25.3,27.3,25.5,27,25.5z"/>
		</g>
	</g>
	<g>
		<path d="M17.5,24.5c0-2.2,1.8-4,4-4c1.1,0,2.2,0.5,3,1.3v-1.3c-0.9-0.6-1.9-1-3-1c-2.8,0-5,2.2-5,5c0,1.1,0.4,2.2,1,3h1.4
			C18,26.8,17.5,25.7,17.5,24.5z"/>
	</g>
	<g>
		<path d="M15.6,23.4c0.3-1.6,1.3-3.1,2.7-3.9c1.8-1.2,3.8-1.3,5.6-0.5c0.3,0.1,0.7-0.1,0.7-0.5V1c0-0.3-0.2-0.5-0.5-0.5H10
			c-0.1,0-0.1,0-0.2,0c-0.1,0-0.1,0.1-0.2,0.1l-7,7c0,0-0.1,0.1-0.1,0.2c0,0.1,0,0.1,0,0.2v19c0,0.3,0.2,0.5,0.5,0.5h12.5
			c0.4,0,0.6-0.4,0.5-0.7C15.5,25.8,15.4,24.7,15.6,23.4z M9,7.5H4.2l5.3-5.3V7C9.5,7.3,9.3,7.5,9,7.5z M14.5,18c0,1.1-1.1,2-2.5,2
			s-2.5-0.9-2.5-2s1.1-2,2.5-2c0.6,0,1.1,0.2,1.5,0.4V10c0-0.3,0.2-0.5,0.5-0.5h2c0.3,0,0.5,0.2,0.5,0.5s-0.2,0.5-0.5,0.5h-1.5V18z"
			/>
	</g>
	<g>
		<g>
			<path d="M21.5,29.5c-2.8,0-5-2.2-5-5s2.2-5,5-5c2.6,0,4.9,2.1,5.5,4.9c0.1,0.3-0.1,0.5-0.4,0.6c-0.3,0.1-0.5-0.1-0.6-0.4
				c-0.5-2.4-2.4-4.1-4.5-4.1c-2.2,0-4,1.8-4,4s1.8,4,4,4c0.3,0,0.5,0.2,0.5,0.5S21.8,29.5,21.5,29.5z"/>
		</g>
	</g>
</g>
</svg>
