<?xml version="1.0" encoding="utf-8"?>
<!-- Generator: Adobe Illustrator 19.0.0, SVG Export Plug-In . SVG Version: 6.00 Build 0)  -->
<svg version="1.1" id="Layer_1" xmlns="http://www.w3.org/2000/svg" xmlns:xlink="http://www.w3.org/1999/xlink" x="0px" y="0px"
	 viewBox="0 0 30 30" style="enable-background:new 0 0 30 30;" xml:space="preserve">
<g id="sound_wave_3_1_">
	<g>
		<g>
			<path d="M17.5,25c-0.2,0-0.4-0.1-0.5-0.4l-3.6-11.8l-3.4,6.9C9.9,19.9,9.7,20,9.5,20c-0.2,0-0.3-0.1-0.4-0.2L6.2,16H0.5
				C0.2,16,0,15.8,0,15.5S0.2,15,0.5,15h6c0.2,0,0.3,0.1,0.4,0.2l2.5,3.4l3.6-7.3c0.1-0.2,0.3-0.3,0.5-0.3c0.2,0,0.4,0.2,0.4,0.4
				l3.4,10.9L20,5.4C20,5.2,20.3,5,20.5,5c0,0,0,0,0,0C20.7,5,21,5.2,21,5.4l1.8,11l1.3-1.3c0.1-0.1,0.2-0.1,0.4-0.1h5
				c0.3,0,0.5,0.2,0.5,0.5S29.8,16,29.5,16h-4.8l-1.9,1.9C22.7,18,22.5,18,22.3,18c-0.2-0.1-0.3-0.2-0.3-0.4l-1.5-9l-2.5,16
				C18,24.8,17.8,25,17.5,25C17.5,25,17.5,25,17.5,25z"/>
		</g>
	</g>
</g>
</svg>
