<?xml version="1.0" encoding="utf-8"?>
<!-- Generator: Adobe Illustrator 19.0.0, SVG Export Plug-In . SVG Version: 6.00 Build 0)  -->
<svg version="1.1" id="Layer_1" xmlns="http://www.w3.org/2000/svg" xmlns:xlink="http://www.w3.org/1999/xlink" x="0px" y="0px"
	 viewBox="0 0 30 30" style="enable-background:new 0 0 30 30;" xml:space="preserve">
<g>
	<g>
		<g>
			<circle cx="15" cy="15.5" r="1.5"/>
		</g>
		<g>
			<circle cx="15" cy="21.5" r="1.5"/>
		</g>
		<g>
			<path d="M19,11h-8c-0.3,0-0.5,0.2-0.5,0.5v16c0,0.3,0.2,0.5,0.5,0.5h8c0.3,0,0.5-0.2,0.5-0.5v-16C19.5,11.2,19.3,11,19,11z
				 M15,24c-1.4,0-2.5-1.1-2.5-2.5S13.6,19,15,19s2.5,1.1,2.5,2.5S16.4,24,15,24z M15,18c-1.4,0-2.5-1.1-2.5-2.5S13.6,13,15,13
				s2.5,1.1,2.5,2.5S16.4,18,15,18z"/>
		</g>
	</g>
	<g>
		<g>
			<path d="M7.5,16V2.5C7.5,2.2,7.3,2,7,2H1C0.7,2,0.5,2.2,0.5,2.5V16H7.5z M4,4.5c0.6,0,1,0.4,1,1s-0.4,1-1,1s-1-0.4-1-1
				S3.4,4.5,4,4.5z M4,8.5c0.6,0,1,0.4,1,1s-0.4,1-1,1s-1-0.4-1-1S3.4,8.5,4,8.5z"/>
		</g>
		<g>
			<path d="M0.5,17v10.5C0.5,27.8,0.7,28,1,28h6c0.3,0,0.5-0.2,0.5-0.5V17H0.5z"/>
		</g>
	</g>
	<g>
		<g>
			<path d="M29.5,16V2.5C29.5,2.2,29.3,2,29,2h-6c-0.3,0-0.5,0.2-0.5,0.5V16H29.5z M26,4.5c0.6,0,1,0.4,1,1s-0.4,1-1,1s-1-0.4-1-1
				S25.4,4.5,26,4.5z M26,8.5c0.6,0,1,0.4,1,1s-0.4,1-1,1s-1-0.4-1-1S25.4,8.5,26,8.5z"/>
		</g>
		<g>
			<path d="M22.5,17v10.5c0,0.3,0.2,0.5,0.5,0.5h6c0.3,0,0.5-0.2,0.5-0.5V17H22.5z"/>
		</g>
	</g>
</g>
</svg>
