<?xml version="1.0" encoding="utf-8"?>
<!-- Generator: Adobe Illustrator 19.0.0, SVG Export Plug-In . SVG Version: 6.00 Build 0)  -->
<svg version="1.1" id="Layer_1" xmlns="http://www.w3.org/2000/svg" xmlns:xlink="http://www.w3.org/1999/xlink" x="0px" y="0px"
	 viewBox="0 0 30 30" style="enable-background:new 0 0 30 30;" xml:space="preserve">
<g>
	<g>
		<path d="M15,9c1.7,0,3-1.3,3-3s-1.3-3-3-3s-3,1.3-3,3S13.3,9,15,9z M15,4c1.1,0,2,0.9,2,2s-0.9,2-2,2s-2-0.9-2-2S13.9,4,15,4z"/>
	</g>
	<g>
		<circle cx="15" cy="18" r="2"/>
	</g>
	<g>
		<circle cx="15" cy="6" r="1"/>
	</g>
	<g>
		<path d="M23.5,0h-17C6.2,0,6,0.2,6,0.5v29C6,29.8,6.2,30,6.5,30h17c0.3,0,0.5-0.2,0.5-0.5v-29C24,0.2,23.8,0,23.5,0z M15,2
			c2.2,0,4,1.8,4,4s-1.8,4-4,4s-4-1.8-4-4S12.8,2,15,2z M15,28c-0.6,0-1-0.4-1-1s0.4-1,1-1s1,0.4,1,1S15.6,28,15,28z M15,24
			c-3.3,0-6-2.7-6-6s2.7-6,6-6s6,2.7,6,6S18.3,24,15,24z"/>
	</g>
	<g>
		<path d="M15,13c-2.8,0-5,2.2-5,5s2.2,5,5,5s5-2.2,5-5S17.8,13,15,13z M15,21c-1.7,0-3-1.3-3-3s1.3-3,3-3s3,1.3,3,3S16.7,21,15,21z
			"/>
	</g>
</g>
</svg>
