<?xml version="1.0" encoding="utf-8"?>
<!-- Generator: Adobe Illustrator 19.0.0, SVG Export Plug-In . SVG Version: 6.00 Build 0)  -->
<svg version="1.1" id="Layer_1" xmlns="http://www.w3.org/2000/svg" xmlns:xlink="http://www.w3.org/1999/xlink" x="0px" y="0px"
	 viewBox="0 0 30 30" style="enable-background:new 0 0 30 30;" xml:space="preserve">
<g>
	<g>
		<path d="M26.5,15H24v-2.5c0-0.3-0.2-0.5-0.5-0.5S23,12.2,23,12.5V15h-2.5c-0.3,0-0.5,0.2-0.5,0.5s0.2,0.5,0.5,0.5H23v2.5
			c0,0.3,0.2,0.5,0.5,0.5s0.5-0.2,0.5-0.5V16h2.5c0.3,0,0.5-0.2,0.5-0.5S26.8,15,26.5,15z"/>
	</g>
	<g>
		<path d="M22,18.5V17h-1.5c-0.8,0-1.5-0.7-1.5-1.5s0.7-1.5,1.5-1.5H22v-1.5c0-0.8,0.7-1.5,1.5-1.5c0.2,0,0.3,0,0.5,0.1V0.5
			c0-0.2-0.1-0.4-0.3-0.5c-0.2-0.1-0.4,0-0.5,0.1L13.3,9H9.5C5.9,9,3,11.7,3,15s2.9,6,6.5,6h3.8l9.9,8.9c0.1,0.1,0.2,0.1,0.3,0.1
			c0.1,0,0.1,0,0.2,0c0.2-0.1,0.3-0.3,0.3-0.5v-9.6C23.8,20,23.7,20,23.5,20C22.7,20,22,19.3,22,18.5z M13.9,11H9.5
			C7.1,11,5,12.8,5,15c0,0.3-0.2,0.5-0.5,0.5S4,15.3,4,15c0-2.7,2.5-5,5.5-5h4.4c0.3,0,0.5,0.2,0.5,0.5S14.2,11,13.9,11z"/>
	</g>
</g>
</svg>
