<?xml version="1.0" encoding="iso-8859-1"?>
<!-- Generator: Adobe Illustrator 19.0.0, SVG Export Plug-In . SVG Version: 6.00 Build 0)  -->
<svg version="1.1" id="Layer_1" xmlns="http://www.w3.org/2000/svg" xmlns:xlink="http://www.w3.org/1999/xlink" x="0px" y="0px"
	 viewBox="0 0 30 30" style="enable-background:new 0 0 30 30;" xml:space="preserve">
<g>
	<g>
		<path d="M29.683,7.053c-0.192-0.088-0.421-0.046-0.569,0.107c-0.906,0.941-1.617,1.729-2.178,2.352
			c-0.627,0.695-1.221,1.354-1.457,1.487c-0.498-0.133-2.622-1.173-3.728-1.908c-0.186-0.124-0.431-0.109-0.601,0.036
			c-0.17,0.144-0.224,0.383-0.132,0.586c0.171,0.38,0.542,0.888,1.01,1.531c0.811,1.113,2.037,2.794,1.948,3.715
			c-0.096,0.984-1.739,2.563-6.01,3.881c-0.07-0.317-0.221-0.641-0.446-0.941c-0.418-0.558-0.997-0.891-1.546-0.891h-0.71
			c-0.98,0-1.502,1.314-1.648,2.058l-0.1,0.998c-0.028,0.003-0.057,0.006-0.085,0.009c-0.161,0.017-0.322,0.034-0.448,0.054
			c-2.686,0.382-6.363,0.905-7.908,4.163c-0.045,0.095-0.059,0.201-0.04,0.304c0.173,0.952,1.271,2.143,2.794,3.033
			c1.159,0.678,4.188,2.088,7.89,0.988l0.092,0.184c0.415,0.827,1.392,1.194,2.335,1.194c0.234,0,0.467-0.022,0.688-0.067
			c1.24-0.247,2.139-1.264,2.139-2.417c0-0.054-0.009-0.107-0.026-0.158l-0.389-1.168c3.099-2.542,5.164-6.585,5.413-10.647
			c0.036-0.164,0.439-0.677,0.763-1.089c1.098-1.398,2.936-3.737,3.237-6.89C29.992,7.343,29.876,7.141,29.683,7.053z
			 M22.786,20.013c-0.896,1.947-2.187,3.609-3.731,4.808c-0.091,0.071-0.199,0.105-0.306,0.105c-0.149,0-0.297-0.066-0.396-0.193
			c-0.169-0.218-0.13-0.532,0.088-0.702c1.398-1.085,2.619-2.66,3.437-4.436c0.115-0.251,0.412-0.362,0.663-0.245
			C22.792,19.466,22.902,19.763,22.786,20.013z M8.851,20.871c0.17-0.144,0.224-0.383,0.132-0.586
			c-0.171-0.38-0.542-0.888-1.01-1.531c-0.811-1.113-2.037-2.794-1.948-3.715c0.096-0.984,1.739-2.563,6.01-3.881
			c0.07,0.317,0.221,0.641,0.446,0.941c0.418,0.558,0.997,0.891,1.546,0.891h0.71c0.979,0,1.501-1.314,1.648-2.058l0.1-0.998
			c0.028-0.003,0.057-0.006,0.085-0.009c0.161-0.017,0.322-0.034,0.448-0.054c2.686-0.382,6.363-0.906,7.908-4.163
			c0.045-0.095,0.059-0.201,0.04-0.304c-0.174-0.949-1.271-2.14-2.795-3.031c-1.16-0.679-4.189-2.089-7.89-0.988l-0.092-0.183
			c-0.518-1.032-1.913-1.351-3.023-1.127c-1.24,0.247-2.139,1.264-2.139,2.417c0,0.054,0.009,0.107,0.026,0.158l0.389,1.168
			c-3.1,2.542-5.165,6.586-5.413,10.647c-0.036,0.164-0.439,0.677-0.763,1.089c-1.098,1.398-2.936,3.737-3.237,6.89
			c-0.021,0.211,0.096,0.413,0.289,0.501c0.067,0.031,0.138,0.046,0.209,0.046c0.133,0,0.264-0.053,0.36-0.153
			c0.906-0.941,1.617-1.729,2.178-2.352c0.627-0.695,1.221-1.354,1.457-1.487c0.498,0.133,2.622,1.173,3.728,1.908
			C8.436,21.029,8.681,21.015,8.851,20.871z M7.214,9.985c0.896-1.947,2.187-3.609,3.731-4.808c0.219-0.169,0.533-0.129,0.702,0.088
			c0.17,0.219,0.13,0.533-0.088,0.702c-1.398,1.085-2.619,2.66-3.437,4.436c-0.084,0.183-0.265,0.291-0.455,0.291
			c-0.07,0-0.141-0.015-0.208-0.046C7.208,10.533,7.098,10.235,7.214,9.985z"/>
	</g>
</g>
</svg>
