<?xml version="1.0" encoding="utf-8"?>
<!-- Generator: Adobe Illustrator 19.0.0, SVG Export Plug-In . SVG Version: 6.00 Build 0)  -->
<svg version="1.1" id="Layer_1" xmlns="http://www.w3.org/2000/svg" xmlns:xlink="http://www.w3.org/1999/xlink" x="0px" y="0px"
	 viewBox="0 0 30 30" style="enable-background:new 0 0 30 30;" xml:space="preserve">
<g>
	<g>
		<path d="M27,25H3c-1.7,0-3-1.3-3-3V8c0-1.7,1.3-3,3-3h23.5C28.1,5,30,6.3,30,8v14C30,23.7,28.7,25,27,25z M3,6C1.9,6,1,6.9,1,8v14
			c0,1.1,0.9,2,2,2h24c1.1,0,2-0.9,2-2V8c0-1.1-1.4-2-2.5-2H3z"/>
	</g>
	<g>
		<path d="M29.5,14h-29C0.2,14,0,13.8,0,13.5v-4C0,9.2,0.2,9,0.5,9h29C29.8,9,30,9.2,30,9.5v4C30,13.8,29.8,14,29.5,14z M1,13h28v-3
			H1V13z"/>
	</g>
	<g>
		<path d="M9.5,19h-5C4.2,19,4,18.8,4,18.5S4.2,18,4.5,18h5c0.3,0,0.5,0.2,0.5,0.5S9.8,19,9.5,19z"/>
	</g>
	<g>
		<path d="M12.5,21h-8C4.2,21,4,20.8,4,20.5S4.2,20,4.5,20h8c0.3,0,0.5,0.2,0.5,0.5S12.8,21,12.5,21z"/>
	</g>
</g>
</svg>
