<?xml version="1.0" encoding="iso-8859-1"?>
<!-- Generator: Adobe Illustrator 19.0.0, SVG Export Plug-In . SVG Version: 6.00 Build 0)  -->
<svg version="1.1" id="Layer_1" xmlns="http://www.w3.org/2000/svg" xmlns:xlink="http://www.w3.org/1999/xlink" x="0px" y="0px"
	 viewBox="0 0 30 30" style="enable-background:new 0 0 30 30;" xml:space="preserve">
<g>
	<g>
		<path d="M25.055,1.927C23.139,0.685,20.667,0,18.096,0c-2.429,0-4.791,0.616-6.651,1.734c-0.689,0.414-1.333,0.72-1.944,0.93
			v9.672c0.611,0.21,1.255,0.516,1.944,0.93c0.916,0.551,1.955,0.978,3.063,1.272c0.001,0.011-0.003,0.021-0.002,0.032
			c0.577,4.097,0.795,8.923,0.142,9.577c-0.143,0.143-0.186,0.358-0.108,0.545C14.617,24.879,14.8,25,15.002,25h2.491
			c-0.068,2.018-0.656,4-4.491,4c-2.947,0-4.601-0.445-5.205-1.401c-0.474-0.748-0.326-1.945,0.439-3.558
			c0.097-0.205,0.223-0.445,0.362-0.713c0.896-1.719,2.394-4.598,1.078-6.767C8.631,14.839,6.12,14,2.001,14
			c-0.276,0-0.5,0.224-0.5,0.5s0.224,0.5,0.5,0.5c3.688,0,5.983,0.7,6.82,2.079c1.024,1.688-0.312,4.253-1.11,5.786
			c-0.146,0.28-0.277,0.532-0.378,0.747c-0.935,1.97-1.06,3.449-0.381,4.521C7.768,29.424,9.635,30,13.002,30
			c5.004,0,5.454-3.185,5.495-5H19.5c0.113,0,0.222-0.038,0.311-0.108c1.179-0.933,1.685-4.021,1.689-10.313
			c1.3-0.325,2.511-0.83,3.555-1.507c2.189-1.42,3.445-3.451,3.445-5.572C28.5,5.38,27.244,3.347,25.055,1.927z M18.5,19.5
			c0,0.276-0.224,0.5-0.5,0.5s-0.5-0.224-0.5-0.5v-2c0-0.276,0.224-0.5,0.5-0.5s0.5,0.224,0.5,0.5V19.5z M24,10h-4
			c-0.276,0-0.5-0.224-0.5-0.5S19.724,9,20,9h4c0.276,0,0.5,0.224,0.5,0.5S24.276,10,24,10z M24,6h-4c-0.276,0-0.5-0.224-0.5-0.5
			S19.724,5,20,5h4c0.276,0,0.5,0.224,0.5,0.5S24.276,6,24,6z M3.238,12h4.426c0.272,0,0.55,0.027,0.836,0.075V2.924
			C8.215,2.973,7.936,2.999,7.664,2.999H3.238c-0.958,0-1.738,0.852-1.738,1.9v5.2C1.5,11.148,2.28,12,3.238,12z"/>
	</g>
</g>
</svg>
