<?xml version="1.0" encoding="iso-8859-1"?>
<!-- Generator: Adobe Illustrator 19.0.0, SVG Export Plug-In . SVG Version: 6.00 Build 0)  -->
<svg version="1.1" id="Layer_1" xmlns="http://www.w3.org/2000/svg" xmlns:xlink="http://www.w3.org/1999/xlink" x="0px" y="0px"
	 viewBox="0 0 30 30" style="enable-background:new 0 0 30 30;" xml:space="preserve">
<g>
	<g>
		<path d="M19.36,19.5h1.28L20,17.581L19.36,19.5z M14.556,16.5H13.5v2h1.056c0.556,0,0.944-0.411,0.944-1S15.112,16.5,14.556,16.5z
			 M27,12.5h-4.575l-4.956-5.186C17.482,7.209,17.501,7.107,17.501,7c0-1.381-1.119-2.5-2.5-2.5c-1.381,0-2.5,1.119-2.5,2.5
			c0,0.107,0.018,0.21,0.032,0.313L7.577,12.5H3c-1.378,0-2.5,1.122-2.5,2.5v8c0,1.378,1.122,2.5,2.5,2.5h24
			c1.378,0,2.5-1.122,2.5-2.5v-8C29.5,13.622,28.378,12.5,27,12.5z M12.91,8.366C13.356,9.048,14.125,9.5,15.001,9.5
			c0.876,0,1.644-0.453,2.091-1.135l3.951,4.134H8.959L12.91,8.366z M7.5,18.5c1.103,0,2,0.897,2,2c0,1.103-0.897,2-2,2
			c-1.103,0-2-0.897-2-2C5.5,20.224,5.724,20,6,20s0.5,0.224,0.5,0.5c0,0.551,0.449,1,1,1c0.551,0,1-0.449,1-1c0-0.551-0.449-1-1-1
			c-1.103,0-2-0.897-2-2c0-1.103,0.897-2,2-2c1.103,0,2,0.897,2,2C9.5,17.776,9.276,18,9,18s-0.5-0.224-0.5-0.5c0-0.551-0.449-1-1-1
			c-0.551,0-1,0.449-1,1C6.5,18.05,6.949,18.5,7.5,18.5z M14.556,19.5H13.5V22c0,0.276-0.224,0.5-0.5,0.5s-0.5-0.224-0.5-0.5v-6
			c0-0.276,0.224-0.5,0.5-0.5h1.556c1.108,0,1.944,0.86,1.944,2S15.664,19.5,14.556,19.5z M22.158,22.474
			C22.105,22.492,22.052,22.5,22,22.5c-0.209,0-0.404-0.132-0.474-0.342L20.973,20.5h-1.936c-0.003,0-0.006-0.002-0.01-0.002
			l-0.553,1.66c-0.087,0.262-0.368,0.403-0.632,0.316c-0.262-0.087-0.403-0.37-0.316-0.632l2-6c0.136-0.408,0.813-0.408,0.948,0l2,6
			C22.562,22.104,22.42,22.386,22.158,22.474z"/>
	</g>
</g>
</svg>
