<?xml version="1.0" encoding="utf-8"?>
<!-- Generator: Adobe Illustrator 19.0.0, SVG Export Plug-In . SVG Version: 6.00 Build 0)  -->
<svg version="1.1" id="Layer_1" xmlns="http://www.w3.org/2000/svg" xmlns:xlink="http://www.w3.org/1999/xlink" x="0px" y="0px"
	 viewBox="0 0 30 30" style="enable-background:new 0 0 30 30;" xml:space="preserve">
<g>
	<path d="M28.1,4l-13-4c-0.1,0-0.2,0-0.3,0l-13,4C1.6,4.1,1.5,4.3,1.5,4.5v13.7c0,5.5,8.7,10.4,13.4,11.8c0,0,0.1,0,0.1,0
		s0.1,0,0.1,0c4.7-1.4,13.4-6.3,13.4-11.8V4.5C28.5,4.3,28.4,4.1,28.1,4z M15,21c-4.1,0-7.5-3.4-7.5-7.5S10.9,6,15,6
		s7.5,3.4,7.5,7.5S19.1,21,15,21z"/>
	<path d="M15,7c-3.6,0-6.5,2.9-6.5,6.5S11.4,20,15,20s6.5-2.9,6.5-6.5S18.6,7,15,7z M17.4,15.1c0.2,0.2,0.2,0.5,0,0.7
		C17.3,16,17.1,16,17,16s-0.3,0-0.4-0.1L15,14.2l-1.6,1.6C13.3,16,13.1,16,13,16s-0.3,0-0.4-0.1c-0.2-0.2-0.2-0.5,0-0.7l1.6-1.6
		l-1.6-1.6c-0.2-0.2-0.2-0.5,0-0.7s0.5-0.2,0.7,0l1.6,1.6l1.6-1.6c0.2-0.2,0.5-0.2,0.7,0s0.2,0.5,0,0.7l-1.6,1.6L17.4,15.1z"/>
</g>
</svg>
