<?xml version="1.0" encoding="iso-8859-1"?>
<!-- Generator: Adobe Illustrator 19.0.0, SVG Export Plug-In . SVG Version: 6.00 Build 0)  -->
<svg version="1.1" id="Layer_1" xmlns="http://www.w3.org/2000/svg" xmlns:xlink="http://www.w3.org/1999/xlink" x="0px" y="0px"
	 viewBox="0 0 30 30" style="enable-background:new 0 0 30 30;" xml:space="preserve">
<g>
	<g>
		<path d="M13,16c-0.276,0-0.5,0.224-0.5,0.5S12.724,17,13,17s0.5-0.224,0.5-0.5S13.276,16,13,16z M14,24
			c-0.276,0-0.5,0.224-0.5,0.5S13.724,25,14,25s0.5-0.224,0.5-0.5S14.276,24,14,24z M12,19c-0.276,0-0.5,0.224-0.5,0.5
			S11.724,20,12,20s0.5-0.224,0.5-0.5S12.276,19,12,19z M14,21c-0.276,0-0.5,0.224-0.5,0.5S13.724,22,14,22s0.5-0.224,0.5-0.5
			S14.276,21,14,21z M14,18c-0.276,0-0.5,0.224-0.5,0.5S13.724,19,14,19s0.5-0.224,0.5-0.5S14.276,18,14,18z M15,11
			c0.276,0,0.5-0.224,0.5-0.5S15.276,10,15,10s-0.5,0.224-0.5,0.5S14.724,11,15,11z M15,15c-0.276,0-0.5,0.224-0.5,0.5
			S14.724,16,15,16s0.5-0.224,0.5-0.5S15.276,15,15,15z M14,13c0.276,0,0.5-0.224,0.5-0.5S14.276,12,14,12s-0.5,0.224-0.5,0.5
			S13.724,13,14,13z M12,22c-0.276,0-0.5,0.224-0.5,0.5S11.724,23,12,23s0.5-0.224,0.5-0.5S12.276,22,12,22z M13,15
			c0.276,0,0.5-0.224,0.5-0.5S13.276,14,13,14s-0.5,0.224-0.5,0.5S12.724,15,13,15z M15,13c-0.276,0-0.5,0.224-0.5,0.5
			S14.724,14,15,14s0.5-0.224,0.5-0.5S15.276,13,15,13z M18,20c0.276,0,0.5-0.224,0.5-0.5S18.276,19,18,19s-0.5,0.224-0.5,0.5
			S17.724,20,18,20z M17,15c0.276,0,0.5-0.224,0.5-0.5S17.276,14,17,14s-0.5,0.224-0.5,0.5S16.724,15,17,15z M15.5,11.5
			c0,0.276,0.224,0.5,0.5,0.5s0.5-0.224,0.5-0.5S16.276,11,16,11S15.5,11.224,15.5,11.5z M15,8c-3.358,0-5.5,8.536-5.5,13
			c0,4.038,1.799,6,5.5,6s5.5-1.962,5.5-6C20.5,16.536,18.358,8,15,8z M15,26c-3.112,0-4.5-1.542-4.5-5c0-4.957,2.327-12,4.5-12
			c2.173,0,4.5,7.043,4.5,12C19.5,24.458,18.112,26,15,26z M15.495,2.038c0.001-0.01,0.005-0.018,0.005-0.027V0.5
			C15.5,0.224,15.276,0,15,0s-0.5,0.224-0.5,0.5v1.511c0,0.01,0.005,0.018,0.005,0.027C9.362,2.821,5.5,15.605,5.5,20.924
			C5.5,26.777,8.874,30,15,30c6.126,0,9.5-3.223,9.5-9.076C24.5,15.605,20.638,2.821,15.495,2.038z M15,29
			c-5.561,0-8.5-2.792-8.5-8.076C6.5,15.325,10.609,3,15,3s8.5,12.325,8.5,17.924C23.5,26.208,20.561,29,15,29z M18,22
			c-0.276,0-0.5,0.224-0.5,0.5S17.724,23,18,23s0.5-0.224,0.5-0.5S18.276,22,18,22z M16,18c-0.276,0-0.5,0.224-0.5,0.5
			S15.724,19,16,19s0.5-0.224,0.5-0.5S16.276,18,16,18z M16,20c-0.276,0-0.5,0.224-0.5,0.5S15.724,21,16,21s0.5-0.224,0.5-0.5
			S16.276,20,16,20z M17,16c-0.276,0-0.5,0.224-0.5,0.5S16.724,17,17,17s0.5-0.224,0.5-0.5S17.276,16,17,16z M16,22
			c-0.276,0-0.5,0.224-0.5,0.5S15.724,23,16,23s0.5-0.224,0.5-0.5S16.276,22,16,22z"/>
	</g>
</g>
</svg>
