<?xml version="1.0" encoding="iso-8859-1"?>
<!-- Generator: Adobe Illustrator 18.0.0, SVG Export Plug-In . SVG Version: 6.00 Build 0)  -->
<!DOCTYPE svg PUBLIC "-//W3C//DTD SVG 1.1//EN" "http://www.w3.org/Graphics/SVG/1.1/DTD/svg11.dtd">
<svg version="1.1" id="Layer_1" xmlns="http://www.w3.org/2000/svg" xmlns:xlink="http://www.w3.org/1999/xlink" x="0px" y="0px"
	 viewBox="0 0 24 24" style="enable-background:new 0 0 24 24;" xml:space="preserve">
<g>
	<path d="M7.5,5.001h-5c-0.276,0-0.5-0.224-0.5-0.5s0.224-0.5,0.5-0.5h5c0.276,0,0.5,0.224,0.5,0.5S7.776,5.001,7.5,5.001z"/>
	<path d="M8,9.001H2c-0.276,0-0.5-0.224-0.5-0.5s0.224-0.5,0.5-0.5h6c0.276,0,0.5,0.224,0.5,0.5S8.276,9.001,8,9.001z"/>
	<path d="M8.5,13.001h-7c-0.276,0-0.5-0.224-0.5-0.5s0.224-0.5,0.5-0.5h7c0.276,0,0.5,0.224,0.5,0.5S8.776,13.001,8.5,13.001z"/>
	<path d="M9.499,24.001c-0.002,0-0.004,0-0.005,0H0.5c-0.14,0-0.274-0.059-0.369-0.162s-0.142-0.242-0.129-0.381l2-23
		C2.024,0.199,2.241,0.001,2.5,0.001h5c0.259,0,0.476,0.198,0.498,0.457l1.313,15.098l3.857-3.428
		c0.146-0.13,0.357-0.164,0.537-0.083C13.884,12.125,14,12.304,14,12.501v2.959l4.188-3.35c0.15-0.12,0.355-0.144,0.529-0.06
		C18.89,12.133,19,12.308,19,12.501v2.959l4.188-3.35c0.15-0.12,0.354-0.144,0.529-0.06C23.89,12.133,24,12.308,24,12.501v11
		c0,0.276-0.224,0.5-0.5,0.5H9.505C9.503,24.001,9.501,24.001,9.499,24.001z M9.958,23.001H23v-9.459l-4.188,3.35
		c-0.15,0.12-0.355,0.144-0.529,0.06C18.11,16.868,18,16.693,18,16.501v-2.959l-4.188,3.35c-0.15,0.12-0.355,0.144-0.529,0.06
		C13.11,16.868,13,16.693,13,16.501v-2.887l-3.581,3.183L9.958,23.001z M1.045,23.001h7.909l-0.521-6H1.567L1.045,23.001z
		 M1.654,16.001h6.691l-1.304-15H2.958L1.654,16.001z"/>
</g>
<g>
</g>
<g>
</g>
<g>
</g>
<g>
</g>
<g>
</g>
<g>
</g>
<g>
</g>
<g>
</g>
<g>
</g>
<g>
</g>
<g>
</g>
<g>
</g>
<g>
</g>
<g>
</g>
<g>
</g>
</svg>
