<?xml version="1.0" encoding="iso-8859-1"?>
<!-- Generator: Adobe Illustrator 18.0.0, SVG Export Plug-In . SVG Version: 6.00 Build 0)  -->
<!DOCTYPE svg PUBLIC "-//W3C//DTD SVG 1.1//EN" "http://www.w3.org/Graphics/SVG/1.1/DTD/svg11.dtd">
<svg version="1.1" id="Layer_1" xmlns="http://www.w3.org/2000/svg" xmlns:xlink="http://www.w3.org/1999/xlink" x="0px" y="0px"
	 viewBox="0 0 24 24" style="enable-background:new 0 0 24 24;" xml:space="preserve">
<g>
	<path d="M22.49,5.5h-21c-0.276,0-0.5-0.224-0.5-0.5V2c0-0.276,0.224-0.5,0.5-0.5h21c0.276,0,0.5,0.224,0.5,0.5v3
		C22.99,5.277,22.767,5.5,22.49,5.5z M1.99,4.5h20v-2h-20V4.5z"/>
	<path d="M23.51,22.5c-0.005,0-0.013,0-0.02,0h-23c-0.161,0-0.312-0.077-0.405-0.208c-0.095-0.13-0.12-0.298-0.069-0.45l0.544-1.633
		C0.901,19.187,1.855,18.5,2.932,18.5h18.117c1.077,0,2.03,0.687,2.372,1.709l0.503,1.51c0.055,0.08,0.086,0.177,0.086,0.281
		C24.01,22.277,23.786,22.5,23.51,22.5z M1.184,21.5h21.613l-0.325-0.975c-0.204-0.613-0.776-1.025-1.423-1.025H2.932
		c-0.646,0-1.219,0.412-1.423,1.025L1.184,21.5z"/>
	<path d="M11.49,19.5h-5c-0.202,0-0.385-0.122-0.462-0.309s-0.034-0.402,0.108-0.545L12.783,12L6.137,5.354
		C5.994,5.211,5.951,4.995,6.028,4.809S6.288,4.5,6.49,4.5h5c0.133,0,0.26,0.053,0.354,0.146l5.32,5.32
		c1.121,1.121,1.121,2.945,0,4.066l-5.32,5.32C11.75,19.448,11.623,19.5,11.49,19.5z M7.697,18.5h3.586l5.174-5.174
		c0.731-0.731,0.731-1.921,0-2.652L11.283,5.5H7.697l6.146,6.146c0.195,0.195,0.195,0.512,0,0.707L7.697,18.5z"/>
	<path d="M15.521,12.5c-0.276,0-0.505-0.224-0.505-0.5s0.219-0.5,0.494-0.5h0.011c0.275,0,0.5,0.224,0.5,0.5
		S15.796,12.5,15.521,12.5z"/>
	<path d="M9.498,16.493c-0.128,0-0.256-0.049-0.354-0.146l-2.313-2.313c-1.12-1.121-1.12-2.945,0-4.066l2.313-2.313
		c0.195-0.195,0.512-0.195,0.707,0l2.5,2.5c0.195,0.195,0.195,0.512,0,0.707L11.213,12l1.139,1.139c0.195,0.195,0.195,0.512,0,0.707
		l-2.5,2.5C9.754,16.444,9.626,16.493,9.498,16.493z M9.498,8.715l-1.959,1.959c-0.73,0.731-0.73,1.921,0,2.652l1.959,1.959
		l1.793-1.793l-1.139-1.139c-0.195-0.195-0.195-0.512,0-0.707l1.139-1.139L9.498,8.715z"/>
	<path d="M8.536,12.5c-0.276,0-0.505-0.224-0.505-0.5s0.219-0.5,0.494-0.5h0.011c0.275,0,0.5,0.224,0.5,0.5S8.812,12.5,8.536,12.5z"
		/>
	<path d="M17.49,19.5c-0.128,0-0.256-0.049-0.354-0.146l-3-3c-0.195-0.195-0.195-0.512,0-0.707s0.512-0.195,0.707,0l3,3
		c0.195,0.195,0.195,0.512,0,0.707C17.746,19.452,17.618,19.5,17.49,19.5z"/>
	<path d="M14.49,8.5c-0.128,0-0.256-0.049-0.354-0.146c-0.195-0.195-0.195-0.512,0-0.707l3-3c0.195-0.195,0.512-0.195,0.707,0
		s0.195,0.512,0,0.707l-3,3C14.746,8.452,14.618,8.5,14.49,8.5z"/>
</g>
<g>
</g>
<g>
</g>
<g>
</g>
<g>
</g>
<g>
</g>
<g>
</g>
<g>
</g>
<g>
</g>
<g>
</g>
<g>
</g>
<g>
</g>
<g>
</g>
<g>
</g>
<g>
</g>
<g>
</g>
</svg>
