<?xml version="1.0" encoding="iso-8859-1"?>
<!-- Generator: Adobe Illustrator 18.0.0, SVG Export Plug-In . SVG Version: 6.00 Build 0)  -->
<!DOCTYPE svg PUBLIC "-//W3C//DTD SVG 1.1//EN" "http://www.w3.org/Graphics/SVG/1.1/DTD/svg11.dtd">
<svg version="1.1" id="Layer_1" xmlns="http://www.w3.org/2000/svg" xmlns:xlink="http://www.w3.org/1999/xlink" x="0px" y="0px"
	 viewBox="0 0 24 24" style="enable-background:new 0 0 24 24;" xml:space="preserve">
<g>
	<path d="M20.5,18.001h-17c-0.221,0-0.416-0.145-0.479-0.356l-3-10c-0.045-0.151-0.017-0.315,0.078-0.442
		C0.193,7.075,0.342,7.001,0.5,7.001h23c0.158,0,0.307,0.075,0.401,0.202c0.094,0.126,0.123,0.291,0.078,0.442l-3,10
		C20.916,17.856,20.721,18.001,20.5,18.001z M3.872,17.001h16.256l2.7-9H1.172L3.872,17.001z"/>
	<path d="M6,23.001c-1.103,0-2-0.897-2-2s0.897-2,2-2s2,0.897,2,2S7.103,23.001,6,23.001z M6,20.001c-0.551,0-1,0.449-1,1
		s0.449,1,1,1s1-0.449,1-1S6.551,20.001,6,20.001z"/>
	<path d="M18,23.001c-1.103,0-2-0.897-2-2s0.897-2,2-2s2,0.897,2,2S19.103,23.001,18,23.001z M18,20.001c-0.551,0-1,0.449-1,1
		s0.449,1,1,1s1-0.449,1-1S18.551,20.001,18,20.001z"/>
	<path d="M21.5,8.001c-0.276,0-0.5-0.224-0.5-0.5c0-0.827-0.673-1.5-1.5-1.5c-0.276,0-0.5-0.224-0.5-0.5c0-0.827-0.673-1.5-1.5-1.5
		c-0.276,0-0.5-0.224-0.5-0.5c0-0.827-0.673-1.5-1.5-1.5c-0.543,0-1.046,0.302-1.311,0.79c-0.175,0.321-0.703,0.321-0.878,0
		c-0.265-0.487-0.768-0.79-1.311-0.79s-1.046,0.302-1.311,0.79c-0.175,0.321-0.703,0.321-0.878,0C9.546,2.303,9.043,2.001,8.5,2.001
		c-0.827,0-1.5,0.673-1.5,1.5c0,0.276-0.224,0.5-0.5,0.5c-0.827,0-1.5,0.673-1.5,1.5c0,0.276-0.224,0.5-0.5,0.5
		c-0.827,0-1.5,0.673-1.5,1.5c0,0.276-0.224,0.5-0.5,0.5S2,7.777,2,7.501c0-1.222,0.881-2.242,2.042-2.458
		c0.188-1.012,0.988-1.812,2-2C6.258,1.882,7.278,1.001,8.5,1.001c0.664,0,1.289,0.267,1.75,0.725c0.922-0.916,2.578-0.916,3.5,0
		c0.461-0.458,1.086-0.725,1.75-0.725c1.222,0,2.242,0.881,2.458,2.042c1.012,0.188,1.812,0.988,2,2C21.119,5.259,22,6.279,22,7.501
		C22,7.777,21.776,8.001,21.5,8.001z"/>
</g>
<g>
</g>
<g>
</g>
<g>
</g>
<g>
</g>
<g>
</g>
<g>
</g>
<g>
</g>
<g>
</g>
<g>
</g>
<g>
</g>
<g>
</g>
<g>
</g>
<g>
</g>
<g>
</g>
<g>
</g>
</svg>
