<?xml version="1.0" encoding="iso-8859-1"?>
<!-- Generator: Adobe Illustrator 18.0.0, SVG Export Plug-In . SVG Version: 6.00 Build 0)  -->
<!DOCTYPE svg PUBLIC "-//W3C//DTD SVG 1.1//EN" "http://www.w3.org/Graphics/SVG/1.1/DTD/svg11.dtd">
<svg version="1.1" id="Layer_1" xmlns="http://www.w3.org/2000/svg" xmlns:xlink="http://www.w3.org/1999/xlink" x="0px" y="0px"
	 viewBox="0 0 24 24" style="enable-background:new 0 0 24 24;" xml:space="preserve">
<g>
	<path d="M17.02,24c-0.007-0.001-0.013-0.001-0.02,0H7c-0.151,0-0.294-0.068-0.389-0.187c-0.095-0.117-0.131-0.271-0.1-0.42l5-23
		C11.562,0.164,11.765,0,12,0s0.438,0.164,0.489,0.394l4.971,22.869c0.038,0.07,0.06,0.151,0.06,0.237
		C17.52,23.777,17.296,24,17.02,24z M7.621,23h8.759L12,2.854L7.621,23z"/>
	<path d="M7,24c-0.145,0-0.288-0.063-0.386-0.183c-0.176-0.213-0.146-0.527,0.068-0.703L14.106,17H8.5
		c-0.188,0-0.359-0.104-0.444-0.271c-0.086-0.166-0.071-0.367,0.038-0.52L12.528,10H10.5C10.224,10,10,9.777,10,9.5S10.224,9,10.5,9
		h3c0.188,0,0.359,0.104,0.444,0.271c0.086,0.166,0.071,0.367-0.038,0.52L9.472,16H15.5c0.211,0,0.399,0.133,0.471,0.331
		c0.071,0.199,0.01,0.421-0.153,0.555l-8.5,7C7.225,23.963,7.112,24,7,24z"/>
	<path d="M21,8c-0.276,0-0.5-0.224-0.5-0.5V6h-17v1.5C3.5,7.777,3.276,8,3,8S2.5,7.777,2.5,7.5v-2C2.5,5.224,2.724,5,3,5h18
		c0.276,0,0.5,0.224,0.5,0.5v2C21.5,7.777,21.276,8,21,8z"/>
	<path d="M10,10C9.916,10,9.83,9.979,9.752,9.935l-7-4c-0.24-0.138-0.323-0.443-0.186-0.683C2.702,5.013,3.008,4.93,3.248,5.066l7,4
		c0.24,0.138,0.323,0.443,0.186,0.683C10.342,9.909,10.173,10,10,10z"/>
	<path d="M14,10c-0.174,0-0.342-0.091-0.435-0.252c-0.137-0.239-0.054-0.545,0.186-0.683l7-4c0.24-0.136,0.544-0.053,0.682,0.187
		c0.137,0.239,0.054,0.545-0.186,0.683l-7,4C14.17,9.979,14.084,10,14,10z"/>
</g>
<g>
</g>
<g>
</g>
<g>
</g>
<g>
</g>
<g>
</g>
<g>
</g>
<g>
</g>
<g>
</g>
<g>
</g>
<g>
</g>
<g>
</g>
<g>
</g>
<g>
</g>
<g>
</g>
<g>
</g>
</svg>
