<?xml version="1.0" encoding="iso-8859-1"?>
<!-- Generator: Adobe Illustrator 19.0.0, SVG Export Plug-In . SVG Version: 6.00 Build 0)  -->
<svg version="1.1" id="Layer_1" xmlns="http://www.w3.org/2000/svg" xmlns:xlink="http://www.w3.org/1999/xlink" x="0px" y="0px"
	 viewBox="0 0 30 30" style="enable-background:new 0 0 30 30;" xml:space="preserve">
<g>
	<g>
		<path d="M10.062,19.844c-0.058-0.071-0.097-0.403-0.031-0.713l0.407-1.5c0.041-0.15,0.009-0.311-0.085-0.435
			C10.259,17.073,10.112,17,9.956,17H5.499c-0.276,0-0.5,0.224-0.5,0.5v3c0,0.783,0.355,1.519,1.083,2.246l2.06,2.104
			C8.24,24.951,8.37,25,8.499,25c0.115,0,0.231-0.04,0.325-0.12l1.235-1.056c0.455-0.424,0.94-1.126,0.94-1.824v-0.317
			c0.019-0.563-0.446-1.362-0.938-1.837L10.062,19.844z M17.084,14.974c0.07-0.039,0.13-0.091,0.174-0.157
			c0.083-0.117,0.106-0.264,0.072-0.405C17.112,13.168,17,11.853,17,10.5C17,4.901,18.845,1,20.5,1c1.655,0,3.5,3.901,3.5,9.5
			c0,1.368-0.113,2.699-0.335,3.955c-0.048,0.272,0.133,0.532,0.405,0.58c0.03,0.005,0.059,0.008,0.088,0.008
			c0.238,0,0.449-0.17,0.492-0.413c0.233-1.314,0.351-2.703,0.351-4.13c0-5.888-1.977-10.5-4.5-10.5
			c-0.45,0-0.882,0.153-1.289,0.427c-0.018,0.008-0.038,0.009-0.055,0.019L11.366,5H5.501c-2.649,0-5.5,1.721-5.5,5.5
			s2.851,5.5,5.5,5.5h6.109l2.507,1.536c0.002,0.001,0.005,0.001,0.007,0.002c0.004,0.003,0.006,0.007,0.011,0.009
			c0.077,0.043,0.16,0.063,0.242,0.063c0.011,0,0.021-0.008,0.031-0.008c0.075-0.005,0.148-0.02,0.214-0.057
			c0.025-0.014,0.039-0.041,0.062-0.059c0.043-0.035,0.09-0.065,0.12-0.115c0.002-0.004,0.002-0.008,0.004-0.012
			c0.001-0.003,0.004-0.003,0.006-0.006C15.353,16.381,16.138,15.561,17.084,14.974z M29.853,29.146l-5.13-5.13
			c0.796-0.954,1.276-2.18,1.276-3.517c0-3.033-2.467-5.5-5.5-5.5c-3.033,0-5.5,2.467-5.5,5.5c0,3.033,2.467,5.5,5.5,5.5
			c1.337,0,2.563-0.48,3.517-1.276l5.13,5.13c0.098,0.098,0.226,0.146,0.354,0.146c0.128,0,0.256-0.049,0.354-0.146
			C30.048,29.659,30.048,29.342,29.853,29.146z M20.499,25c-2.481,0-4.5-2.019-4.5-4.5s2.019-4.5,4.5-4.5s4.5,2.019,4.5,4.5
			S22.98,25,20.499,25z M20.499,11c-0.276,0-0.5,0.224-0.5,0.5s0.224,0.5,0.5,0.5c0.827,0,1.5-0.673,1.5-1.5
			c0-0.827-0.673-1.5-1.5-1.5c-0.276,0-0.5,0.224-0.5,0.5s0.224,0.5,0.5,0.5s0.5,0.224,0.5,0.5S20.775,11,20.499,11z"/>
	</g>
</g>
</svg>
