<?xml version="1.0" encoding="iso-8859-1"?>
<!-- Generator: Adobe Illustrator 19.0.0, SVG Export Plug-In . SVG Version: 6.00 Build 0)  -->
<svg version="1.1" xmlns="http://www.w3.org/2000/svg" xmlns:xlink="http://www.w3.org/1999/xlink" x="0px" y="0px"
	 viewBox="3 -3 30 30" style="enable-background:new 3 -3 30 30;" xml:space="preserve">
<g id="Layer_1">
</g>
<g id="Search_Place_2">
</g>
<g id="Search_Plus">
</g>
<g id="Search_Minus">
</g>
<g id="Search">
	<g>
		<g>
			<path d="M32.707,25.293l-9.406-9.406C24.983,13.887,26,11.311,26,8.5C26,2.159,20.841-3,14.5-3S3,2.159,3,8.5S8.159,20,14.5,20
				c2.811,0,5.387-1.017,7.387-2.699l9.406,9.406C31.488,26.902,31.744,27,32,27s0.512-0.098,0.707-0.293
				C33.098,26.316,33.098,25.684,32.707,25.293z M14.5,18C9.262,18,5,13.738,5,8.5S9.262-1,14.5-1S24,3.262,24,8.5
				S19.738,18,14.5,18z"/>
		</g>
	</g>
</g>
</svg>
