<?xml version="1.0" encoding="iso-8859-1"?>
<!-- Generator: Adobe Illustrator 19.0.0, SVG Export Plug-In . SVG Version: 6.00 Build 0)  -->
<svg version="1.1" id="Layer_1" xmlns="http://www.w3.org/2000/svg" xmlns:xlink="http://www.w3.org/1999/xlink" x="0px" y="0px"
	 viewBox="0 0 30 30" style="enable-background:new 0 0 30 30;" xml:space="preserve">
<g>
	<g>
		<path d="M18.015,11.063c-0.28-0.28-0.648-0.42-1.016-0.42c-0.368,0-0.735,0.14-1.016,0.42l-0.088,0.089
			c-0.272,0.272-0.422,0.633-0.422,1.017c0,0.384,0.149,0.744,0.421,1.016l0.797,0.797c0.542,0.542,1.488,0.543,2.031,0l0.09-0.09
			c0.56-0.56,0.56-1.471,0-2.031L18.015,11.063z M23.757,8.849C23.345,10.54,23,12.484,23,14.499c0,2.121,0.178,3.907,0.44,5.375
			l4.936-4.936C29.423,13.891,30,12.499,30,11.018V3.02C30,1.355,28.645,0,26.978,0H18.98c-1.481,0-2.873,0.577-3.92,1.624
			L1.036,15.648c-0.668,0.668-1.037,1.557-1.037,2.506c0,0.945,0.368,1.834,1.037,2.502l8.307,8.307C10.011,29.631,10.9,30,11.85,30
			c0.945,0,1.833-0.368,2.502-1.037l7.405-7.405C22.494,24.697,23.755,27,25.5,27c2.227,0,4.077-4.029,4.499-9.797
			c0.02-0.275-0.187-0.515-0.462-0.535c-0.284-0.019-0.515,0.187-0.535,0.462C28.596,22.682,26.903,26,25.501,26
			c-1.082,0-2.242-2.028-2.918-5.32c-0.086-0.421-0.166-0.861-0.235-1.321c-0.001-0.007-0.002-0.013-0.003-0.02
			c-0.069-0.459-0.128-0.94-0.178-1.435c-0.007-0.075-0.013-0.154-0.02-0.23c-0.036-0.39-0.065-0.792-0.088-1.203
			c-0.008-0.147-0.016-0.293-0.023-0.442c-0.02-0.454-0.032-0.918-0.033-1.393c0-0.046-0.002-0.09-0.002-0.136
			c0-0.038,0.003-0.075,0.003-0.112c0.002-0.402,0.019-0.8,0.045-1.194c0.01-0.148,0.023-0.293,0.036-0.439
			c0.026-0.304,0.058-0.605,0.095-0.902c0.016-0.128,0.031-0.258,0.049-0.385c0.122-0.852,0.281-1.672,0.459-2.443
			c0.199-0.861,0.417-1.666,0.626-2.386c0.077-0.266-0.075-0.543-0.34-0.62c-0.268-0.078-0.543,0.075-0.62,0.34
			c-0.195,0.669-0.397,1.414-0.585,2.205C21.302,8.201,21,7.638,21,6.999c0-1.105,0.895-2,2-2s2,0.895,2,2
			C25,7.835,24.486,8.55,23.757,8.849z M12.393,21.1c-0.122,0.524-0.432,1.057-0.875,1.5c-0.604,0.604-1.336,0.93-1.974,0.93
			c-0.354,0-0.68-0.101-0.937-0.311c-0.214-0.174-0.246-0.489-0.071-0.703c0.174-0.214,0.488-0.248,0.703-0.071
			c0.268,0.216,0.977,0.043,1.571-0.552c0.308-0.308,0.53-0.679,0.608-1.019c0.06-0.256,0.032-0.465-0.076-0.573
			c-0.167-0.167-0.573-0.21-1.567,0.521c-0.002,0.002-0.085,0.062-0.087,0.063c-0.542,0.397-1.973,1.448-2.941,0.477
			c-0.357-0.357-0.483-0.906-0.344-1.506c0.121-0.524,0.432-1.057,0.875-1.5c0.94-0.939,2.191-1.205,2.91-0.62
			c0.214,0.175,0.246,0.49,0.072,0.704c-0.176,0.213-0.49,0.246-0.704,0.072c-0.266-0.218-0.977-0.043-1.571,0.552
			c-0.308,0.308-0.53,0.679-0.608,1.019c-0.059,0.256-0.031,0.465,0.077,0.574c0.165,0.165,0.572,0.209,1.569-0.522
			c0.002-0.001,0.085-0.062,0.088-0.063c0.542-0.397,1.968-1.445,2.939-0.475C12.406,19.951,12.532,20.5,12.393,21.1z M16.778,17.34
			l-2.121,2.121c-0.098,0.098-0.226,0.146-0.354,0.146c-0.128,0-0.256-0.049-0.354-0.146l-3.536-3.536
			c-0.195-0.195-0.195-0.512,0-0.707l2.121-2.121c0.195-0.195,0.512-0.195,0.707,0s0.195,0.512,0,0.707l-1.768,1.768l1.061,1.061
			l1.447-1.447c0.195-0.195,0.512-0.195,0.707,0s0.195,0.512,0,0.707l-1.447,1.447l1.061,1.061l1.768-1.768
			c0.195-0.195,0.512-0.195,0.707,0S16.973,17.145,16.778,17.34z M19.519,14.599l-0.091,0.09c-0.459,0.459-1.071,0.713-1.722,0.713
			s-1.263-0.253-1.723-0.714l-0.797-0.797c-0.46-0.46-0.714-1.072-0.714-1.723c0-0.65,0.253-1.263,0.714-1.723l0.088-0.089
			c0.951-0.951,2.497-0.951,3.447-0.001l0.797,0.797C20.469,12.104,20.469,13.649,19.519,14.599z"/>
	</g>
</g>
</svg>
