<?xml version="1.0" encoding="iso-8859-1"?>
<!-- Generator: Adobe Illustrator 19.0.0, SVG Export Plug-In . SVG Version: 6.00 Build 0)  -->
<svg version="1.1" id="Layer_1" xmlns="http://www.w3.org/2000/svg" xmlns:xlink="http://www.w3.org/1999/xlink" x="0px" y="0px"
	 viewBox="0 0 30 30" style="enable-background:new 0 0 30 30;" xml:space="preserve">
<g>
	<g>
		<path d="M11.5,22.5c-1.654,0-3,1.346-3,3s1.346,3,3,3s3-1.346,3-3S13.154,22.5,11.5,22.5z M23.5,22.5c-1.654,0-3,1.346-3,3
			s1.346,3,3,3s3-1.346,3-3S25.154,22.5,23.5,22.5z M29.379,5.674C29.284,5.564,29.146,5.5,29,5.5H6.153L5.492,1.909
			C5.449,1.672,5.242,1.5,5,1.5H1C0.724,1.5,0.5,1.724,0.5,2S0.724,2.5,1,2.5h3.583l2.821,15.315C7.797,19.95,9.658,21.5,11.83,21.5
			h14.169c0.276,0,0.5-0.224,0.5-0.5s-0.224-0.5-0.5-0.5H11.83c-1.689,0-3.136-1.205-3.442-2.866L8.179,16.5h16.737
			c1.718,0,3.207-1.282,3.461-2.981l1.117-7.445C29.516,5.93,29.474,5.784,29.379,5.674z M11.066,10.504
			c1.498,0.172,2.434,0.937,2.434,1.996c0,1.103-1.122,2-2.5,2c-1.402,0-2.5-0.747-2.5-1.7c0-0.276,0.224-0.5,0.5-0.5
			s0.5,0.224,0.5,0.5c0,0.286,0.584,0.7,1.5,0.7c0.813,0,1.5-0.458,1.5-1c0-0.608-0.804-0.917-1.557-1.003
			C9.433,11.296,8.5,10.532,8.5,9.5c0-1.103,1.122-2,2.5-2c1.402,0,2.5,0.747,2.5,1.7c0,0.276-0.224,0.5-0.5,0.5s-0.5-0.224-0.5-0.5
			c0-0.286-0.584-0.7-1.5-0.7c-0.813,0-1.5,0.458-1.5,1C9.5,10.05,10.287,10.4,11.066,10.504z M18.5,10.5c0.276,0,0.5,0.224,0.5,0.5
			s-0.224,0.5-0.5,0.5h-3v2H19c0.276,0,0.5,0.224,0.5,0.5s-0.224,0.5-0.5,0.5h-4c-0.276,0-0.5-0.224-0.5-0.5V8
			c0-0.276,0.224-0.5,0.5-0.5h4c0.276,0,0.5,0.224,0.5,0.5S19.276,8.5,19,8.5h-3.5v2H18.5z M25.5,12c0,1.378-1.122,2.5-2.5,2.5
			s-2.5-1.122-2.5-2.5v-2c0-1.378,1.122-2.5,2.5-2.5s2.5,1.122,2.5,2.5V12z M23,8.5c-0.827,0-1.5,0.673-1.5,1.5v2
			c0,0.827,0.673,1.5,1.5,1.5c0.827,0,1.5-0.673,1.5-1.5v-2C24.5,9.173,23.827,8.5,23,8.5z"/>
	</g>
</g>
</svg>
