<?xml version="1.0" encoding="iso-8859-1"?>
<!-- Generator: Adobe Illustrator 19.0.0, SVG Export Plug-In . SVG Version: 6.00 Build 0)  -->
<svg version="1.1" id="Layer_1" xmlns="http://www.w3.org/2000/svg" xmlns:xlink="http://www.w3.org/1999/xlink" x="0px" y="0px"
	 viewBox="0 0 24 24" style="enable-background:new 0 0 24 24;" xml:space="preserve">
<g>
	<g>
		<path d="M12,15.5c-3.084,0-5-1.341-5-3.5c0-1.842,1.534-2.751,2.356-2.979c1.66-0.536,7.506-0.566,13.019-0.527L23.5,8.5
			C23.776,8.5,24,8.724,24,9s-0.224,0.5-0.5,0.5c-1.962,0-4.383,1.774-6.519,3.339C15.032,14.267,13.349,15.5,12,15.5z M9.632,9.982
			C9.558,10.003,8,10.461,8,12c0,2.32,3.062,2.5,4,2.5c1.021,0,2.658-1.199,4.39-2.468c1.224-0.896,2.535-1.857,3.844-2.55
			c-3.641-0.009-9.188,0.037-10.577,0.493C9.649,9.978,9.641,9.98,9.632,9.982z"/>
	</g>
	<g>
		<path d="M11,17.5c-3.663,0-7-2.383-7-5c0-2.473-0.416-5-3.5-5c-0.249,0-0.46-0.183-0.495-0.429S0.121,6.59,0.36,6.52
			C1.06,6.316,1.783,6.021,2.009,5.854C2.085,5.062,2.722,2.5,5,2.5c2.479,0,3,1.631,3,3c0,0.78-0.132,1.357-0.219,1.74
			C7.763,7.321,7.742,7.414,7.728,7.49C7.789,7.496,7.877,7.5,8,7.5c0.462,0,0.817-0.128,1.309-0.305
			C10.125,6.902,11.243,6.5,13.5,6.5c3.354,0,7.405,1.695,8.105,2H23.5C23.776,8.5,24,8.724,24,9v1c0,0.182-0.099,0.349-0.257,0.437
			l-4.439,2.466C16.276,15.918,13.413,17.5,11,17.5z M2.342,6.82C5,7.875,5,11.255,5,12.5c0,1.812,2.677,4,6,4
			c2.124,0,4.833-1.539,7.626-4.333c0.033-0.033,0.091-0.082,0.131-0.104L23,9.706V9.5h-1.5c-0.07,0-0.141-0.015-0.204-0.044
			C21.252,9.437,16.892,7.5,13.5,7.5c-2.083,0-3.064,0.353-3.853,0.637C9.105,8.332,8.636,8.5,8,8.5
			c-0.408,0-0.866-0.027-1.123-0.35c-0.256-0.32-0.17-0.696-0.07-1.132C6.888,6.659,7,6.167,7,5.5c0-1.402-0.598-2-2-2
			C3.275,3.5,3,5.975,3,6C3,6.155,3,6.445,2.342,6.82z"/>
	</g>
	<g>
		<path d="M11.5,15.5c-0.276,0-0.5-0.224-0.5-0.5c0-0.254,0.19-0.465,0.437-0.496c-0.006-0.097-0.026-0.232-0.041-0.332
			c-0.063-0.415-0.141-0.931,0.189-1.315C11.789,12.62,12.097,12.5,12.5,12.5c0.308,0,0.365-0.071,0.518-0.631
			c0.139-0.512,0.371-1.369,1.482-1.369c0.253,0,0.352-0.087,0.403-0.152c0.23-0.289,0.173-0.958,0.109-1.236
			c-0.062-0.27,0.106-0.538,0.376-0.599c0.272-0.064,0.538,0.107,0.599,0.375c0.031,0.136,0.286,1.345-0.302,2.083
			C15.493,11.212,15.132,11.5,14.5,11.5c-0.308,0-0.365,0.071-0.518,0.631C13.844,12.643,13.611,13.5,12.5,13.5
			c-0.13,0-0.172,0.023-0.173,0.023c-0.011,0.053,0.033,0.343,0.057,0.5c0.061,0.396,0.128,0.845-0.161,1.181
			C12.107,15.339,11.887,15.5,11.5,15.5z"/>
	</g>
	<g>
		<path d="M12.5,21.5c-0.276,0-0.5-0.224-0.5-0.5v-4c0-0.276,0.224-0.5,0.5-0.5S13,16.724,13,17v4C13,21.276,12.776,21.5,12.5,21.5z
			"/>
	</g>
	<g>
		<path d="M11,21.5c-0.104,0-0.21-0.033-0.3-0.1c-0.221-0.166-0.266-0.479-0.101-0.7l1.5-2c0.167-0.221,0.48-0.265,0.7-0.1
			c0.221,0.166,0.266,0.479,0.101,0.7l-1.5,2C11.302,21.431,11.151,21.5,11,21.5z"/>
	</g>
	<g>
		<path d="M9.5,21.5C9.224,21.5,9,21.276,9,21v-4c0-0.276,0.224-0.5,0.5-0.5S10,16.724,10,17v4C10,21.276,9.776,21.5,9.5,21.5z"/>
	</g>
	<g>
		<path d="M8,21.5c-0.104,0-0.21-0.033-0.3-0.1C7.48,21.234,7.435,20.921,7.6,20.7l1.5-2c0.167-0.221,0.48-0.265,0.7-0.1
			c0.221,0.166,0.266,0.479,0.101,0.7l-1.5,2C8.302,21.431,8.151,21.5,8,21.5z"/>
	</g>
</g>
<g>
</g>
<g>
</g>
<g>
</g>
<g>
</g>
<g>
</g>
<g>
</g>
<g>
</g>
<g>
</g>
<g>
</g>
<g>
</g>
<g>
</g>
<g>
</g>
<g>
</g>
<g>
</g>
<g>
</g>
</svg>
