<?xml version="1.0" encoding="iso-8859-1"?>
<!-- Generator: Adobe Illustrator 19.0.0, SVG Export Plug-In . SVG Version: 6.00 Build 0)  -->
<svg version="1.1" id="Layer_1" xmlns="http://www.w3.org/2000/svg" xmlns:xlink="http://www.w3.org/1999/xlink" x="0px" y="0px"
	 viewBox="0 0 24 24" style="enable-background:new 0 0 24 24;" xml:space="preserve">
<g>
	<g>
		<path d="M8.5,14c-0.84,0-1.596-0.535-1.879-1.332c-0.039-0.109-0.039-0.227,0-0.336C6.904,11.535,7.66,11,8.5,11
			s1.596,0.535,1.879,1.332c0.039,0.109,0.039,0.227,0,0.336C10.096,13.465,9.34,14,8.5,14z M7.641,12.5
			c0.354,0.61,1.365,0.61,1.719,0C9.006,11.89,7.994,11.89,7.641,12.5z"/>
	</g>
	<g>
		<path d="M12,21.5c-0.095,0-0.188-0.027-0.271-0.08C10.913,20.893,10.5,20.416,10.5,20c0-1.374,3-1.374,3,0
			c0,0.416-0.413,0.893-1.229,1.42C12.188,21.473,12.095,21.5,12,21.5z M11.578,20.063c0.091,0.074,0.247,0.2,0.421,0.328
			c0.157-0.117,0.3-0.238,0.397-0.335C12.187,19.993,11.773,20,11.578,20.063z"/>
	</g>
	<g>
		<path d="M15.5,14c-0.84,0-1.596-0.535-1.879-1.332c-0.039-0.109-0.039-0.227,0-0.336C13.904,11.535,14.66,11,15.5,11
			s1.596,0.535,1.879,1.332c0.039,0.109,0.039,0.227,0,0.336C17.096,13.465,16.34,14,15.5,14z M14.641,12.5
			c0.354,0.61,1.365,0.61,1.719,0C16.006,11.89,14.994,11.89,14.641,12.5z"/>
	</g>
	<g>
		<path d="M18.5,7.5c-0.038,0-0.075-0.004-0.113-0.013C18.21,7.446,18.07,7.313,18.02,7.139C17.682,5.97,13.865,3,12,3
			S6.318,5.97,5.98,7.139C5.93,7.313,5.79,7.446,5.613,7.487c-0.178,0.04-0.361-0.016-0.483-0.15C4.86,7.04,2.5,4.389,2.5,2.5
			C2.5,2.224,2.724,2,3,2c0.883,0,3.027,1.348,3.754,2.67C8.321,3.296,10.569,2,12,2s3.679,1.296,5.246,2.67
			C17.973,3.348,20.117,2,21,2c0.276,0,0.5,0.224,0.5,0.5c0,1.889-2.36,4.54-2.63,4.836C18.774,7.442,18.639,7.5,18.5,7.5z
			 M18.01,5.405c0.229,0.244,0.427,0.484,0.586,0.711c0.613-0.759,1.444-1.927,1.768-2.895C19.472,3.684,18.138,4.763,18.01,5.405z
			 M3.637,3.221C3.96,4.189,4.791,5.357,5.404,6.116C5.563,5.889,5.762,5.649,5.99,5.405C5.862,4.763,4.528,3.684,3.637,3.221z"/>
	</g>
	<g>
		<path d="M13,23c-0.128,0-0.256-0.049-0.354-0.146L12,22.207l-0.646,0.646c-0.195,0.195-0.512,0.195-0.707,0s-0.195-0.512,0-0.707
			l1-1c0.195-0.195,0.512-0.195,0.707,0l1,1c0.195,0.195,0.195,0.512,0,0.707C13.256,22.951,13.128,23,13,23z"/>
	</g>
	<g>
		<path d="M9,21c-0.106,0-0.213-0.034-0.304-0.103c-0.014-0.011-1.432-1.092-3.478-2.483c-1.637-1.113-3.29-1.418-3.306-1.421
			c-0.164-0.029-0.303-0.138-0.37-0.29c-0.067-0.152-0.055-0.328,0.034-0.469C1.586,16.219,2.5,14.751,2.5,13.5
			c0-1.005-1.625-1.516-1.641-1.521c-0.188-0.056-0.328-0.217-0.354-0.412s0.063-0.387,0.23-0.491C2.07,10.241,3.5,9.006,3.5,8.5
			c0-0.249-0.384-0.884-0.754-1.498C1.852,5.522,0.5,3.285,0.5,0.5C0.5,0.224,0.724,0,1,0c4.913,0,7.75,3.033,7.868,3.162
			c0.187,0.203,0.173,0.519-0.03,0.706C8.636,4.055,8.32,4.042,8.132,3.838c-0.025-0.027-2.47-2.622-6.615-2.826
			c0.149,2.269,1.26,4.106,2.085,5.472C4.123,7.348,4.5,7.972,4.5,8.5c0,0.993-1.441,2.188-2.462,2.909
			C2.705,11.784,3.5,12.451,3.5,13.5c0,0.996-0.43,2.038-0.747,2.67c0.7,0.202,1.859,0.622,3.028,1.417
			c2.07,1.408,3.508,2.505,3.522,2.517c0.22,0.167,0.261,0.481,0.094,0.701C9.299,20.933,9.15,21,9,21z"/>
	</g>
	<g>
		<path d="M15,21c-0.15,0-0.299-0.067-0.397-0.196c-0.167-0.219-0.126-0.533,0.094-0.701c0.015-0.011,1.452-1.108,3.522-2.517
			c1.169-0.795,2.328-1.214,3.028-1.417C20.93,15.538,20.5,14.496,20.5,13.5c0-1.049,0.795-1.716,1.462-2.091
			C20.941,10.688,19.5,9.493,19.5,8.5c0-0.528,0.377-1.152,0.898-2.015c0.825-1.367,1.936-3.203,2.085-5.472
			c-4.163,0.203-6.59,2.798-6.615,2.825c-0.188,0.205-0.504,0.217-0.706,0.031c-0.203-0.187-0.217-0.503-0.03-0.707
			C15.25,3.033,18.087,0,23,0c0.276,0,0.5,0.224,0.5,0.5c0,2.785-1.352,5.022-2.246,6.502C20.884,7.616,20.5,8.251,20.5,8.5
			c0,0.507,1.43,1.741,2.765,2.576c0.167,0.104,0.257,0.296,0.23,0.491s-0.165,0.356-0.354,0.412
			C23.125,11.984,21.5,12.495,21.5,13.5c0,1.257,0.913,2.718,0.923,2.733c0.089,0.141,0.102,0.316,0.034,0.469
			s-0.206,0.261-0.37,0.291c-0.016,0.003-1.669,0.308-3.306,1.421c-2.048,1.393-3.464,2.473-3.478,2.483
			C15.213,20.966,15.106,21,15,21z"/>
	</g>
	<g>
		<path d="M12,24c-2.857,0-3.5-2.222-3.5-3v-2.5c0-0.588-0.605-1.378-1.618-2.114c-1.431-1.037-3.151-1.596-3.727-1.41
			c-0.265,0.083-0.545-0.058-0.631-0.321c-0.085-0.262,0.058-0.544,0.32-0.63c1.12-0.363,3.215,0.529,4.624,1.552
			C8.228,16.127,9.5,17.239,9.5,18.5V21c0,0.02,0.107,2,2.5,2s2.5-1.98,2.5-2v-2.5c0-1.261,1.272-2.373,2.031-2.923
			c1.41-1.023,3.509-1.913,4.624-1.552c0.263,0.086,0.405,0.368,0.32,0.63c-0.086,0.263-0.369,0.404-0.631,0.321
			c-0.57-0.187-2.296,0.373-3.727,1.41C16.105,17.122,15.5,17.912,15.5,18.5V21C15.5,21.778,14.857,24,12,24z"/>
	</g>
</g>
<g>
</g>
<g>
</g>
<g>
</g>
<g>
</g>
<g>
</g>
<g>
</g>
<g>
</g>
<g>
</g>
<g>
</g>
<g>
</g>
<g>
</g>
<g>
</g>
<g>
</g>
<g>
</g>
<g>
</g>
</svg>
