<?xml version="1.0" encoding="iso-8859-1"?>
<!-- Generator: Adobe Illustrator 19.0.0, SVG Export Plug-In . SVG Version: 6.00 Build 0)  -->
<svg version="1.1" id="Layer_1" xmlns="http://www.w3.org/2000/svg" xmlns:xlink="http://www.w3.org/1999/xlink" x="0px" y="0px"
	 viewBox="0 0 24 24" style="enable-background:new 0 0 24 24;" xml:space="preserve">
<g>
	<g>
		<path d="M21.5,8c-0.14,0-0.276-0.059-0.372-0.167c-0.126-0.14-0.162-0.34-0.093-0.516c0.324-0.828,0.563-2.128,0.171-2.413
			c-0.224-0.162-0.273-0.475-0.11-0.698c0.162-0.224,0.474-0.273,0.698-0.11c0.678,0.493,0.687,1.469,0.541,2.29
			C22.687,6.002,23,5.407,23,4.5C23,2.375,20.771,1,20,1c-1.568,0-5.507,2.07-8.11,5.313c-0.173,0.216-0.487,0.25-0.703,0.077
			c-0.215-0.173-0.25-0.488-0.077-0.703C13.938,2.164,18.194,0,20,0c1.222,0,4,1.7,4,4.5c0,2.248-1.55,3.261-2.369,3.482
			C21.587,7.994,21.543,8,21.5,8z"/>
	</g>
	<g>
		<path d="M21.5,7c-0.027,0-0.055-0.002-0.083-0.007C20.515,6.843,19,6.448,19,5.5C19,5.224,19.224,5,19.5,5S20,5.224,20,5.5
			c0.099,0.11,0.875,0.389,1.582,0.507c0.272,0.045,0.457,0.303,0.411,0.575C21.953,6.827,21.741,7,21.5,7z"/>
	</g>
	<g>
		<path d="M0.5,19c-0.064,0-0.129-0.012-0.191-0.038C0.122,18.885,0,18.702,0,18.5C0,13.969,8.812,5,14.5,5
			C20.687,5,21,8.749,21,9.5c0,1.406-3.143,4.5-6.5,4.5c-3.399,0-10.11,1.318-13.646,4.854C0.758,18.949,0.63,19,0.5,19z M14.5,6
			C9.978,6,2.659,12.903,1.242,17.185C5.144,14.156,11.263,13,14.5,13c2.9,0,5.5-2.692,5.5-3.5C20,8.679,19.604,6,14.5,6z"/>
	</g>
	<g>
		<path d="M1.5,15.5c-0.581,0-0.974-0.185-1.171-0.549c-0.426-0.791,0.362-1.989,1.453-3.647c0.439-0.668,0.894-1.359,1.283-2.049
			C4.73,6.296,8.604,3,11.5,3c0.568,0,0.909,0.231,1.095,0.425C13.014,3.862,13.002,4.455,13,4.521
			C12.988,4.797,12.744,5.026,12.479,5C12.205,4.988,11.992,4.758,12,4.485c0.001-0.066-0.021-0.26-0.13-0.371
			C11.795,4.039,11.671,4,11.5,4C9.063,4,5.432,7.088,3.936,9.746c-0.406,0.72-0.87,1.425-1.318,2.108
			c-0.593,0.902-1.486,2.26-1.406,2.622C1.221,14.469,1.304,14.5,1.5,14.5C1.776,14.5,2,14.724,2,15S1.776,15.5,1.5,15.5z"/>
	</g>
	<g>
		<path d="M13.5,14c-0.067,0-0.135-0.014-0.201-0.042c-0.127-0.056-3.14-1.382-4.087-2.049C8.21,11.203,8,9.666,8,8.5
			C8,8.224,8.224,8,8.5,8S9,8.224,9,8.5c0,1.275,0.294,2.244,0.788,2.591c0.865,0.61,3.882,1.938,3.913,1.951
			c0.253,0.111,0.368,0.406,0.257,0.659C13.875,13.889,13.692,14,13.5,14z"/>
	</g>
	<g>
		<path d="M4,15C3.9,15,3.8,14.971,3.713,14.909c-0.226-0.159-0.281-0.471-0.122-0.696c1.582-2.253,4.578-3.612,4.705-3.669
			c0.25-0.113,0.547,0,0.66,0.252s0,0.548-0.251,0.661c-0.029,0.013-2.874,1.307-4.295,3.331C4.312,14.926,4.157,15,4,15z"/>
	</g>
	<g>
		<path d="M5.617,23.042c-0.18,0-0.347-0.064-0.471-0.188C4.955,22.662,4,21.432,4,16c0-0.276,0.224-0.5,0.5-0.5S5,15.724,5,16
			c0,3.779,0.466,5.33,0.711,5.883C5.843,21.674,6,21.253,6,20.5c0-1.836,0.976-5.476,1.017-5.63
			c0.072-0.267,0.346-0.426,0.613-0.353c0.267,0.072,0.424,0.347,0.353,0.613C7.973,15.167,7,18.795,7,20.5
			c0,1.889-0.811,2.372-1.06,2.475C5.832,23.02,5.723,23.042,5.617,23.042z"/>
	</g>
	<g>
		<path d="M2.5,24C1.626,24,0,24,0,22.5c0-0.66,2.254-1.936,2.276-1.947C2.957,20.212,4,18.709,4,17.5C4,17.224,4.224,17,4.5,17
			S5,17.224,5,17.5c0,1.556-1.246,3.432-2.276,3.947c-0.607,0.303-1.409,0.925-1.702,1.202C1.112,22.917,1.501,23,2.5,23
			c0.463,0,1.563-0.816,2.161-1.367c0.203-0.187,0.521-0.174,0.707,0.028c0.188,0.203,0.175,0.52-0.028,0.707
			C5.044,22.64,3.519,24,2.5,24z"/>
	</g>
	<g>
		<path d="M14.5,19c-1.076,0-1.821-0.236-2.216-0.702c-0.337-0.398-0.29-0.803-0.277-0.88c0.008-0.049,0.023-0.097,0.046-0.142l2-4
			c0.124-0.248,0.424-0.347,0.671-0.224c0.247,0.124,0.347,0.424,0.224,0.671l-1.944,3.889C13.061,17.726,13.395,18,14.5,18
			c0.276,0,0.5,0.224,0.5,0.5S14.776,19,14.5,19z"/>
	</g>
	<g>
		<path d="M12.5,18c-0.175,0-0.346-0.092-0.437-0.256c-0.135-0.241-0.048-0.545,0.193-0.68C12.334,17.02,14.177,16,15.5,16
			c0.276,0,0.5,0.224,0.5,0.5S15.776,17,15.5,17c-0.885,0-2.29,0.676-2.756,0.937C12.667,17.979,12.583,18,12.5,18z"/>
	</g>
	<g>
		<path d="M9.5,16.5c-0.157,0-0.31-0.073-0.406-0.208c-0.143-0.199-0.121-0.472,0.052-0.645l2.5-2.5
			c0.195-0.195,0.512-0.195,0.707,0s0.195,0.512,0,0.707l-1.159,1.159C11.295,15.004,11.397,15,11.5,15c0.276,0,0.5,0.224,0.5,0.5
			S11.776,16,11.5,16c-0.865,0-1.768,0.443-1.777,0.448C9.652,16.483,9.576,16.5,9.5,16.5z"/>
	</g>
	<g>
		<path d="M10.5,18C9.313,18,9,16.692,9,16c0-0.275,0.223-0.498,0.499-0.499c0,0,0.001,0,0.001,0c0.275,0,0.498,0.223,0.5,0.498
			C10,16.008,10.028,17,10.5,17c0.276,0,0.5,0.224,0.5,0.5S10.776,18,10.5,18z"/>
	</g>
	<g>
		<circle cx="20.5" cy="2.5" r="0.5"/>
	</g>
</g>
<g>
</g>
<g>
</g>
<g>
</g>
<g>
</g>
<g>
</g>
<g>
</g>
<g>
</g>
<g>
</g>
<g>
</g>
<g>
</g>
<g>
</g>
<g>
</g>
<g>
</g>
<g>
</g>
<g>
</g>
</svg>
