<?xml version="1.0" encoding="iso-8859-1"?>
<!-- Generator: Adobe Illustrator 19.0.0, SVG Export Plug-In . SVG Version: 6.00 Build 0)  -->
<svg version="1.1" id="Layer_1" xmlns="http://www.w3.org/2000/svg" xmlns:xlink="http://www.w3.org/1999/xlink" x="0px" y="0px"
	 viewBox="0 0 24 24" style="enable-background:new 0 0 24 24;" xml:space="preserve">
<g>
	<g>
		<g>
			<g>
				<path d="M20.5,1.5C20.224,1.5,20,1.276,20,1V0.5C20,0.224,20.224,0,20.5,0S21,0.224,21,0.5V1C21,1.276,20.776,1.5,20.5,1.5z"/>
			</g>
			<g>
				<path d="M20.5,21.587c-0.276,0-0.5-0.224-0.5-0.5V20.13c0-0.276,0.224-0.5,0.5-0.5s0.5,0.224,0.5,0.5v0.957
					C21,21.363,20.776,21.587,20.5,21.587z M20.5,18.717c-0.276,0-0.5-0.224-0.5-0.5v-0.957c0-0.276,0.224-0.5,0.5-0.5
					s0.5,0.224,0.5,0.5v0.957C21,18.494,20.776,18.717,20.5,18.717z M20.5,15.848c-0.276,0-0.5-0.224-0.5-0.5v-0.957
					c0-0.276,0.224-0.5,0.5-0.5s0.5,0.224,0.5,0.5v0.957C21,15.624,20.776,15.848,20.5,15.848z M20.5,12.979
					c-0.276,0-0.5-0.224-0.5-0.5v-0.957c0-0.276,0.224-0.5,0.5-0.5s0.5,0.224,0.5,0.5v0.957C21,12.755,20.776,12.979,20.5,12.979z
					 M20.5,10.109c-0.276,0-0.5-0.224-0.5-0.5V8.652c0-0.276,0.224-0.5,0.5-0.5s0.5,0.224,0.5,0.5v0.957
					C21,9.885,20.776,10.109,20.5,10.109z M20.5,7.239c-0.276,0-0.5-0.224-0.5-0.5V5.783c0-0.276,0.224-0.5,0.5-0.5
					s0.5,0.224,0.5,0.5v0.957C21,7.016,20.776,7.239,20.5,7.239z M20.5,4.37c-0.276,0-0.5-0.224-0.5-0.5V2.913
					c0-0.276,0.224-0.5,0.5-0.5s0.5,0.224,0.5,0.5V3.87C21,4.146,20.776,4.37,20.5,4.37z"/>
			</g>
			<g>
				<path d="M20.5,24H20c-0.276,0-0.5-0.224-0.5-0.5S19.724,23,20,23c0-0.276,0.224-0.5,0.5-0.5S21,22.724,21,23v0.5
					C21,23.776,20.776,24,20.5,24z"/>
			</g>
			<g>
				<path d="M18.117,24h-0.941c-0.276,0-0.5-0.224-0.5-0.5s0.224-0.5,0.5-0.5h0.941c0.276,0,0.5,0.224,0.5,0.5S18.394,24,18.117,24z
					 M15.294,24h-0.941c-0.276,0-0.5-0.224-0.5-0.5s0.224-0.5,0.5-0.5h0.941c0.276,0,0.5,0.224,0.5,0.5S15.57,24,15.294,24z
					 M12.47,24h-0.94c-0.276,0-0.5-0.224-0.5-0.5s0.224-0.5,0.5-0.5h0.94c0.276,0,0.5,0.224,0.5,0.5S12.746,24,12.47,24z M9.646,24
					H8.705c-0.276,0-0.5-0.224-0.5-0.5s0.224-0.5,0.5-0.5h0.941c0.276,0,0.5,0.224,0.5,0.5S9.923,24,9.646,24z M6.823,24H5.882
					c-0.276,0-0.5-0.224-0.5-0.5s0.224-0.5,0.5-0.5h0.941c0.276,0,0.5,0.224,0.5,0.5S7.1,24,6.823,24z"/>
			</g>
			<g>
				<path d="M4,24H3.5C3.224,24,3,23.776,3,23.5S3.224,23,3.5,23H4c0.276,0,0.5,0.224,0.5,0.5S4.276,24,4,24z"/>
			</g>
		</g>
	</g>
	<path d="M20.5,0h-0.233H9.5C9.477,0,9.458,0.01,9.436,0.013C9.414,0.016,9.394,0.02,9.373,0.026
		c-0.086,0.023-0.166,0.06-0.227,0.121L3.147,6.146C3.086,6.207,3.049,6.286,3.026,6.372C3.02,6.394,3.016,6.414,3.013,6.436
		C3.01,6.458,3,6.477,3,6.5v16.81v0.19C3,23.776,3.224,24,3.5,24l0.274-0.055L20.978,0.719L21,0.5C21,0.224,20.776,0,20.5,0z
		 M9,1.707V5.5C9,5.776,8.776,6,8.5,6H4.707L9,1.707z"/>
</g>
<g>
</g>
<g>
</g>
<g>
</g>
<g>
</g>
<g>
</g>
<g>
</g>
<g>
</g>
<g>
</g>
<g>
</g>
<g>
</g>
<g>
</g>
<g>
</g>
<g>
</g>
<g>
</g>
<g>
</g>
</svg>
