<?xml version="1.0" encoding="iso-8859-1"?>
<!-- Generator: Adobe Illustrator 19.0.0, SVG Export Plug-In . SVG Version: 6.00 Build 0)  -->
<svg version="1.1" id="Layer_1" xmlns="http://www.w3.org/2000/svg" xmlns:xlink="http://www.w3.org/1999/xlink" x="0px" y="0px"
	 viewBox="0 0 24 24" style="enable-background:new 0 0 24 24;" xml:space="preserve">
<g>
	<path d="M14,21h-0.5v-0.5c0-0.276-0.224-0.5-0.5-0.5h-2c-0.276,0-0.5,0.224-0.5,0.5V21H10c-0.276,0-0.5,0.224-0.5,0.5v2
		c0,0.276,0.224,0.5,0.5,0.5h4c0.276,0,0.5-0.224,0.5-0.5v-2C14.5,21.224,14.276,21,14,21z"/>
	<g>
		<path d="M12,21c-0.276,0-0.5-0.224-0.5-0.5v-2c0-0.276,0.224-0.5,0.5-0.5s0.5,0.224,0.5,0.5v2C12.5,20.776,12.276,21,12,21z"/>
	</g>
	<g>
		<path d="M19,23h-5c-0.276,0-0.5-0.224-0.5-0.5S13.724,22,14,22h5c0.276,0,0.5,0.224,0.5,0.5S19.276,23,19,23z"/>
	</g>
	<g>
		<path d="M10,23H5c-0.276,0-0.5-0.224-0.5-0.5S4.724,22,5,22h5c0.276,0,0.5,0.224,0.5,0.5S10.276,23,10,23z"/>
	</g>
	<path d="M19,0h-8c-0.133,0-0.26,0.053-0.354,0.146l-6,6C4.553,6.24,4.5,6.367,4.5,6.5v12C4.5,18.776,4.724,19,5,19h14
		c0.276,0,0.5-0.224,0.5-0.5v-18C19.5,0.224,19.276,0,19,0z M10,6H6.207L10.5,1.707V5.5C10.5,5.776,10.276,6,10,6z"/>
</g>
<g>
</g>
<g>
</g>
<g>
</g>
<g>
</g>
<g>
</g>
<g>
</g>
<g>
</g>
<g>
</g>
<g>
</g>
<g>
</g>
<g>
</g>
<g>
</g>
<g>
</g>
<g>
</g>
<g>
</g>
</svg>
