<?xml version="1.0" encoding="iso-8859-1"?>
<!-- Generator: Adobe Illustrator 19.0.0, SVG Export Plug-In . SVG Version: 6.00 Build 0)  -->
<svg version="1.1" id="Layer_1" xmlns="http://www.w3.org/2000/svg" xmlns:xlink="http://www.w3.org/1999/xlink" x="0px" y="0px"
	 viewBox="0 0 30 30" style="enable-background:new 0 0 30 30;" xml:space="preserve">
<g>
	<g>
		<path d="M15,6.5c-0.276,0-0.5,0.224-0.5,0.5c0,0.276,0.224,0.5,0.5,0.5s0.5-0.224,0.5-0.5C15.5,6.724,15.276,6.5,15,6.5z
			 M29.436,20.753C29.347,20.596,29.18,20.5,29,20.5h-1.5V6.25c0-0.965-0.795-1.75-1.772-1.75H4.273
			c-0.978,0-1.772,0.785-1.772,1.75V20.5h-1.5c-0.18,0-0.347,0.097-0.436,0.253c-0.088,0.157-0.086,0.349,0.007,0.504l1.515,2.523
			C2.86,24.921,4.009,25.5,5.5,25.5h19c1.491,0,2.64-0.579,3.429-1.743l1.5-2.5C29.521,21.103,29.523,20.91,29.436,20.753z
			 M26.499,20.5h-4.042c-0.198-1.339-1.174-2.45-2.518-2.791L17.9,17.098l-0.123-0.406c0.529-0.564,0.898-1.3,1.036-2.062
			c0.337-0.146,0.587-0.462,0.635-0.846l0.142-1.13c0.038-0.3-0.055-0.603-0.254-0.831c-0.08-0.092-0.175-0.168-0.278-0.228
			l0.04-0.835l0.157-0.158c0.305-0.324,0.716-1.018,0.054-2.029c-0.321-0.49-0.984-1.074-2.323-1.074c-0.405,0-1.328,0-2.21,0.568
			c-2.553,0.074-2.885,1.357-2.885,2.475c0,0.229,0.046,0.686,0.084,1.033c-0.115,0.06-0.22,0.141-0.308,0.24
			c-0.202,0.229-0.297,0.534-0.259,0.837l0.142,1.13c0.049,0.395,0.312,0.718,0.701,0.858c0.136,0.732,0.485,1.444,0.983,1.997
			l-0.137,0.459l-2.027,0.607c-1.349,0.337-2.33,1.451-2.529,2.794H3.5V6.25c0-0.414,0.347-0.75,0.772-0.75h21.455
			c0.426,0,0.772,0.336,0.772,0.75V20.5z"/>
	</g>
</g>
</svg>
