<?xml version="1.0" encoding="iso-8859-1"?>
<!-- Generator: Adobe Illustrator 19.0.0, SVG Export Plug-In . SVG Version: 6.00 Build 0)  -->
<svg version="1.1" id="Layer_1" xmlns="http://www.w3.org/2000/svg" xmlns:xlink="http://www.w3.org/1999/xlink" x="0px" y="0px"
	 viewBox="0 0 24 24" style="enable-background:new 0 0 24 24;" xml:space="preserve">
<g>
	<path d="M2.5,8.5C2.776,8.5,3,8.276,3,8V6.5h1.5C4.776,6.5,5,6.276,5,6S4.776,5.5,4.5,5.5H3v-1h1.5C4.776,4.5,5,4.276,5,4
		S4.776,3.5,4.5,3.5h-2C2.224,3.5,2,3.724,2,4v4C2,8.276,2.224,8.5,2.5,8.5z"/>
	<path d="M7.5,8.5C8.327,8.5,9,7.827,9,7V6c0-0.276-0.224-0.5-0.5-0.5S8,5.724,8,6v1c0,0.276-0.225,0.5-0.5,0.5S7,7.276,7,7V6
		c0-0.276-0.224-0.5-0.5-0.5S6,5.724,6,6v1C6,7.827,6.673,8.5,7.5,8.5z"/>
	<path d="M10.5,8.5C10.776,8.5,11,8.276,11,8V4c0-0.276-0.224-0.5-0.5-0.5S10,3.724,10,4v4C10,8.276,10.224,8.5,10.5,8.5z"/>
	<path d="M12.5,8.5C12.776,8.5,13,8.276,13,8V4c0-0.276-0.224-0.5-0.5-0.5S12,3.724,12,4v4C12,8.276,12.224,8.5,12.5,8.5z"/>
	<path d="M15.5,8.5C15.776,8.5,16,8.276,16,8V6.5h1V8c0,0.276,0.224,0.5,0.5,0.5S18,8.276,18,8V4c0-0.276-0.224-0.5-0.5-0.5
		S17,3.724,17,4v1.5h-1V4c0-0.276-0.224-0.5-0.5-0.5S15,3.724,15,4v4C15,8.276,15.224,8.5,15.5,8.5z"/>
	<path d="M19.5,8.5h1C21.327,8.5,22,7.827,22,7V5c0-0.827-0.673-1.5-1.5-1.5h-1C19.224,3.5,19,3.724,19,4v4
		C19,8.276,19.224,8.5,19.5,8.5z M20,4.5h0.5C20.775,4.5,21,4.724,21,5v2c0,0.276-0.225,0.5-0.5,0.5H20V4.5z"/>
	<path d="M9,12.5c-0.552,0-1,0.449-1,1v3c0,0.551,0.448,1,1,1s1-0.449,1-1v-3C10,12.949,9.552,12.5,9,12.5z"/>
	<circle cx="14" cy="13.5" r="1"/>
	<path d="M19,12.5c-0.552,0-1,0.449-1,1v3c0,0.551,0.448,1,1,1s1-0.449,1-1v-3C20,12.949,19.552,12.5,19,12.5z"/>
	<path d="M19.5,9.5h-15C2.57,9.5,1,11.07,1,13v4c0,1.93,1.57,3.5,3.5,3.5h15c1.93,0,3.5-1.57,3.5-3.5v-4
		C23,11.07,21.43,9.5,19.5,9.5z M5,18c0,0.276-0.224,0.5-0.5,0.5S4,18.276,4,18v-3.882l-0.053,0.105
		c-0.124,0.248-0.422,0.346-0.671,0.224c-0.247-0.124-0.347-0.424-0.224-0.671l1-2c0.104-0.208,0.332-0.316,0.563-0.263
		C4.841,11.566,5,11.768,5,12V18z M11,16.5c0,1.103-0.897,2-2,2s-2-0.897-2-2v-3c0-1.103,0.897-2,2-2s2,0.897,2,2V16.5z M16,16.5
		c0,1.103-0.897,2-2,2s-2-0.897-2-2c0-0.6,0.271-1.133,0.691-1.5C12.271,14.633,12,14.1,12,13.5c0-1.103,0.897-2,2-2s2,0.897,2,2
		c0,0.6-0.271,1.133-0.691,1.5C15.729,15.367,16,15.9,16,16.5z M21,16.5c0,1.103-0.897,2-2,2s-2-0.897-2-2v-3c0-1.103,0.897-2,2-2
		s2,0.897,2,2V16.5z"/>
	<circle cx="14" cy="16.5" r="1"/>
</g>
<g>
</g>
<g>
</g>
<g>
</g>
<g>
</g>
<g>
</g>
<g>
</g>
<g>
</g>
<g>
</g>
<g>
</g>
<g>
</g>
<g>
</g>
<g>
</g>
<g>
</g>
<g>
</g>
<g>
</g>
</svg>
