<?xml version="1.0" encoding="iso-8859-1"?>
<!-- Generator: Adobe Illustrator 19.0.0, SVG Export Plug-In . SVG Version: 6.00 Build 0)  -->
<svg version="1.1" id="Layer_1" xmlns="http://www.w3.org/2000/svg" xmlns:xlink="http://www.w3.org/1999/xlink" x="0px" y="0px"
	 viewBox="0 0 24 24" style="enable-background:new 0 0 24 24;" xml:space="preserve">
<path d="M20.5,0h-11C9.367,0,9.24,0.053,9.146,0.146l-6,6C3.053,6.24,3,6.367,3,6.5v17C3,23.776,3.224,24,3.5,24h17
	c0.276,0,0.5-0.224,0.5-0.5v-23C21,0.224,20.776,0,20.5,0z M9,1.707V5.5C9,5.776,8.776,6,8.5,6H4.707L9,1.707z M15.777,13.916l-6,4
	C9.693,17.972,9.597,18,9.5,18c-0.081,0-0.162-0.02-0.236-0.059C9.102,17.854,9,17.685,9,17.5v-8c0-0.185,0.102-0.354,0.264-0.441
	c0.163-0.087,0.358-0.078,0.514,0.025l6,4C15.916,13.177,16,13.333,16,13.5S15.916,13.823,15.777,13.916z"/>
<g>
</g>
<g>
</g>
<g>
</g>
<g>
</g>
<g>
</g>
<g>
</g>
<g>
</g>
<g>
</g>
<g>
</g>
<g>
</g>
<g>
</g>
<g>
</g>
<g>
</g>
<g>
</g>
<g>
</g>
</svg>
