<?xml version="1.0" encoding="utf-8"?>
<!-- Generator: Adobe Illustrator 19.0.0, SVG Export Plug-In . SVG Version: 6.00 Build 0)  -->
<svg version="1.1" id="Layer_1" xmlns="http://www.w3.org/2000/svg" xmlns:xlink="http://www.w3.org/1999/xlink" x="0px" y="0px"
	 viewBox="0 0 30 30" style="enable-background:new 0 0 30 30;" xml:space="preserve">
<g>
	<g>
		<path d="M14.9,21c-3.2,0-5.7-2.3-6.8-6c-0.1,0-0.2,0-0.2-0.1c-0.1,0-0.1,0-0.2,0c0,0,0,0,0,0c-1,0-1.7-1.3-1.7-3
			c0-0.5,0.1-1,0.2-1.4C6.1,9.9,6,9.1,6,8.5C6,3.9,10.1,0,15,0c4.8,0,8.5,3.8,8.5,8.6c0,0.2,0.1,0.4,0.2,0.7
			c0.2,0.4,0.3,0.8,0.3,1.2c0.1,0.3,0,0.6,0,0.9c0,0.2,0,0.3,0,0.5c0,1.7-0.8,3-1.8,3c0,0-0.1,0-0.1,0c-0.1,0-0.2,0-0.2,0.1
			C20.9,18.6,18.1,21,14.9,21z M8.5,14c0.1,0,0.1,0,0.2,0c0.1,0.1,0.3,0.2,0.3,0.3c0.9,3.5,3.1,5.6,5.9,5.6c2.9,0,5.3-2.2,6.1-5.6
			c0-0.2,0.1-0.3,0.3-0.3c0.1,0,0.2,0,0.3,0c0.1,0,0.2,0,0.3-0.1c0.2,0,0.3-0.1,0.4-0.1c0.3,0,0.8-0.8,0.8-2c0-0.2,0-0.4,0-0.6
			c0-0.3,0-0.5,0-0.7c0-0.1,0-0.2,0-0.3c0-0.1-0.1-0.5-0.2-0.7c-0.1-0.3-0.3-0.7-0.3-1.1C22.5,4.3,19.2,1,15,1c-4.3,0-8,3.4-8,7.5
			c0,0.6,0.1,1.4,0.2,1.9c0,0.1,0,0.2,0,0.3C7.1,11,7,11.4,7,11.9c0,1.2,0.5,2,0.8,2c0.1,0,0.2,0,0.4,0.1c0.1,0,0.2,0,0.3,0.1
			C8.4,14,8.5,14,8.5,14z"/>
	</g>
	<g>
		<path d="M8.5,15C8.2,15,8,14.8,8,14.5S8.2,14,8.5,14c1.8,0,6.3-1.5,6.3-1.5c0.3-0.1,0.5,0.1,0.6,0.3c0.1,0.3-0.1,0.5-0.3,0.6
			C15,13.5,10.5,15,8.5,15z"/>
	</g>
	<g>
		<path d="M21.5,15c-2,0-6.5-1.5-6.7-1.5c-0.3-0.1-0.4-0.4-0.3-0.6c0.1-0.3,0.4-0.4,0.6-0.3c0,0,4.5,1.5,6.3,1.5
			c0.3,0,0.5,0.2,0.5,0.5S21.8,15,21.5,15z"/>
	</g>
	<g>
		<path d="M16.5,8c-0.2,0-0.4-0.1-0.5-0.4l-1-3.4l-1,3.4c-0.1,0.3-0.4,0.4-0.6,0.3c-0.3-0.1-0.4-0.4-0.3-0.6l1.5-5
			c0.1-0.4,0.8-0.4,1,0l1.5,5c0.1,0.3-0.1,0.5-0.3,0.6C16.6,8,16.5,8,16.5,8z"/>
	</g>
	<g>
		<path d="M16,7h-2c-0.3,0-0.5-0.2-0.5-0.5S13.7,6,14,6h2c0.3,0,0.5,0.2,0.5,0.5S16.3,7,16,7z"/>
	</g>
	<g>
		<path d="M6.5,11c-0.2,0-0.4-0.1-0.4-0.3l-2-4C4,6.6,4,6.5,4,6.4l1-4C5.1,2.2,5.3,2,5.5,2C5.7,2,5.9,2.2,6,2.4l1,5.5
			C7,8.2,6.9,8.4,6.6,8.5C6.3,8.5,6.1,8.4,6,8.1L5.4,4.9L5,6.4l1.9,3.8c0.1,0.2,0,0.5-0.2,0.7C6.7,11,6.6,11,6.5,11z"/>
	</g>
	<g>
		<path d="M23.5,11c-0.1,0-0.2,0-0.2-0.1c-0.2-0.1-0.3-0.4-0.2-0.7L25,6.4l-0.5-2l-1,3.7c-0.1,0.3-0.4,0.4-0.6,0.4
			c-0.3-0.1-0.4-0.3-0.4-0.6L24,2.4C24.1,2.1,24.3,2,24.5,2c0.2,0,0.4,0.2,0.5,0.4l1,4c0,0.1,0,0.2,0,0.3l-2,4
			C23.9,10.9,23.7,11,23.5,11z"/>
	</g>
	<g>
		<path d="M18.5,12c-1.6,0-2.5-0.8-2.5-1.5C16,9.8,16.9,9,18.5,9c0.6,0,2.5,0,2.5,1.5S19.1,12,18.5,12z M17,10.5
			c0.1,0.1,0.5,0.5,1.5,0.5c1.5,0,1.5-0.4,1.5-0.5s0-0.5-1.5-0.5C17.5,10,17.1,10.4,17,10.5z"/>
	</g>
	<g>
		<path d="M29.5,30h-11c-0.2,0-0.3-0.1-0.4-0.2s-0.1-0.3,0-0.5l0.6-1.3h-2.2c-0.2,0-0.3-0.1-0.4-0.2L15,26.3l-1.1,1.5
			c-0.1,0.1-0.2,0.2-0.4,0.2h-2.2l0.6,1.3c0.1,0.2,0.1,0.3,0,0.5S11.7,30,11.5,30h-11C0.2,30,0,29.8,0,29.5v-3.8
			c0-1.8,1.1-3.4,2.9-4l5.7-2.5c0.2-0.1,0.4,0,0.6,0.1c1.6,1.7,3.6,2.7,5.8,2.7s4.2-1,5.8-2.7c0.1-0.2,0.4-0.2,0.6-0.1l6,2.7
			c1.7,0.6,2.8,2.2,2.8,4v3.6C30,29.8,29.8,30,29.5,30z M19.3,29H29v-3.1c0-1.4-0.9-2.6-2.2-3.1c0,0,0,0,0,0l-5.7-2.6
			c-1.8,1.8-4,2.8-6.2,2.8c-2.3,0-4.5-1-6.2-2.8l-5.4,2.4C1.9,23.1,1,24.3,1,25.7V29h9.7l-0.6-1.3c-0.1-0.2-0.1-0.3,0-0.5
			s0.3-0.2,0.4-0.2h2.8l1.3-1.8c0.2-0.3,0.6-0.3,0.8,0l1.3,1.8h2.8c0.2,0,0.3,0.1,0.4,0.2s0.1,0.3,0,0.5L19.3,29z"/>
	</g>
	<g>
		<path d="M16.5,17h-3c-0.3,0-0.5-0.2-0.5-0.5s0.2-0.5,0.5-0.5h3c0.3,0,0.5,0.2,0.5,0.5S16.8,17,16.5,17z"/>
	</g>
	<g>
		<path d="M11.5,12C10.9,12,9,12,9,10.5S10.9,9,11.5,9c1.6,0,2.5,0.8,2.5,1.5C14,11.2,13.1,12,11.5,12z M11.5,10
			C10,10,10,10.4,10,10.5s0,0.5,1.5,0.5c1,0,1.4-0.3,1.5-0.5C12.9,10.4,12.5,10,11.5,10z"/>
	</g>
</g>
</svg>
