<?xml version="1.0" encoding="utf-8"?>
<!-- Generator: Adobe Illustrator 19.0.0, SVG Export Plug-In . SVG Version: 6.00 Build 0)  -->
<svg version="1.1" id="Layer_1" xmlns="http://www.w3.org/2000/svg" xmlns:xlink="http://www.w3.org/1999/xlink" x="0px" y="0px"
	 viewBox="0 0 30 30" style="enable-background:new 0 0 30 30;" xml:space="preserve">
<g>
	<path d="M29.5,30c-0.2,0-0.4-0.1-0.5-0.3L28.4,28c-0.3-0.8-1-1.5-1.8-1.8l-5.9-3.8c-1.1-0.6-2.4-4.1-2.7-4.7
		c-0.1-0.3,0-0.5,0.3-0.6c0,0,2.3-1,3.6-1.7C21.6,14.4,21,11.9,21,8c0-4.6-1.9-6.9-5.8-7l-0.4,0.4c-0.1,0.1-0.2,0.1-0.4,0.1
		C12.7,1.5,10,3.6,10,8c0,3.9-0.6,6.4-0.9,7.3c1.3,0.8,3.6,1.7,3.6,1.7c0.2,0.1,0.4,0.4,0.3,0.6c-0.2,0.6-1.1,3.9-2.2,4.5l-6.5,3.8
		c-1.2,0.5-2,1.1-2.3,1.8l-1,2c-0.1,0.2-0.4,0.3-0.7,0.2c-0.2-0.1-0.3-0.4-0.2-0.7l1-2c0.4-1.1,1.7-1.8,2.8-2.2l6.4-3.7
		c0.5-0.3,1.2-2,1.6-3.5c-0.8-0.4-2.7-1.2-3.7-1.9C8,15.8,8,15.5,8,15.3c0,0,1-2.7,1-7.3c0-5,3-7.4,5.3-7.5l0.4-0.4
		C14.7,0.1,14.9,0,15,0c4.6,0,7,2.8,7,8c0,4.6,1,7.3,1,7.3c0.1,0.2,0,0.4-0.2,0.6c-1,0.7-2.8,1.5-3.6,1.9c0.6,1.5,1.6,3.5,2.1,3.8
		l5.8,3.8c1,0.4,1.8,1.2,2.2,2.3l0.7,1.7c0.1,0.3,0,0.5-0.3,0.7C29.6,30,29.6,30,29.5,30z"/>
</g>
</svg>
