<?xml version="1.0" encoding="iso-8859-1"?>
<!-- Generator: Adobe Illustrator 19.0.0, SVG Export Plug-In . SVG Version: 6.00 Build 0)  -->
<svg version="1.1" id="Layer_1" xmlns="http://www.w3.org/2000/svg" xmlns:xlink="http://www.w3.org/1999/xlink" x="0px" y="0px"
	 viewBox="0 0 30 30" style="enable-background:new 0 0 30 30;" xml:space="preserve">
<g>
	<g>
		<path d="M20.5,15.979h-11c-0.276,0-0.5,0.224-0.5,0.5s0.224,0.5,0.5,0.5h11c0.276,0,0.5-0.224,0.5-0.5S20.776,15.979,20.5,15.979z
			 M20.5,19.979h-11c-0.276,0-0.5,0.224-0.5,0.5s0.224,0.5,0.5,0.5h11c0.276,0,0.5-0.224,0.5-0.5S20.776,19.979,20.5,19.979z
			 M20.5,17.979h-11c-0.276,0-0.5,0.224-0.5,0.5s0.224,0.5,0.5,0.5h11c0.276,0,0.5-0.224,0.5-0.5S20.776,17.979,20.5,17.979z
			 M20.5,13.979h-11c-0.276,0-0.5,0.224-0.5,0.5s0.224,0.5,0.5,0.5h11c0.276,0,0.5-0.224,0.5-0.5S20.776,13.979,20.5,13.979z
			 M30,10.479c0-0.119-0.047-0.223-0.116-0.309c-0.114-0.509-0.31-0.996-0.604-1.437l-4.546-6.824C23.939,0.713,22.607,0,21.171,0
			H9.521C7.651,0,5.92,0.932,4.892,2.495L0.821,8.68C0.502,9.118,0.284,9.608,0.15,10.123C0.058,10.213,0,10.339,0,10.479
			c0,0.07,0.015,0.137,0.041,0.197C0.02,10.85,0,11.025,0,11.203v15.773C0,28.645,1.355,30,3.022,30h23.956
			c1.667,0,3.022-1.356,3.021-3.025V11.109c0-0.155-0.017-0.307-0.034-0.46C29.985,10.596,30,10.539,30,10.479z M1.636,9.26
			C1.641,9.254,1.646,9.247,1.65,9.24l4.077-6.194C6.57,1.766,7.988,1,9.521,1v0h11.651c1.1,0,2.121,0.547,2.731,1.463l4.546,6.825
			c0.144,0.216,0.253,0.45,0.342,0.69H26c-1.71,0-3,1.29-3,3v8c0,1.178-0.822,2-2,2H9c-1.178,0-2-0.822-2-2v-8c0-1.71-1.29-3-3-3
			H1.246C1.348,9.727,1.472,9.484,1.636,9.26z M29,26.977c0,1.116-0.907,2.024-2.022,2.024H3.022C1.907,29.001,1,28.093,1,26.977
			V11.203c0-0.076,0.013-0.15,0.018-0.225H4c1.178,0,2,0.822,2,2v8c0,1.71,1.29,3,3,3h12c1.71,0,3-1.29,3-3v-8c0-1.178,0.822-2,2-2
			h2.99c0.002,0.044,0.01,0.088,0.01,0.132V26.977z M8.5,10.979h13c0.276,0,0.5-0.224,0.5-0.5s-0.224-0.5-0.5-0.5h-13
			c-0.276,0-0.5,0.224-0.5,0.5S8.224,10.979,8.5,10.979z M20.5,11.979h-11c-0.276,0-0.5,0.224-0.5,0.5s0.224,0.5,0.5,0.5h11
			c0.276,0,0.5-0.224,0.5-0.5S20.776,11.979,20.5,11.979z"/>
	</g>
</g>
</svg>
