<?xml version="1.0" encoding="iso-8859-1"?>
<!-- Generator: Adobe Illustrator 19.0.0, SVG Export Plug-In . SVG Version: 6.00 Build 0)  -->
<svg version="1.1" id="Layer_1" xmlns="http://www.w3.org/2000/svg" xmlns:xlink="http://www.w3.org/1999/xlink" x="0px" y="0px"
	 viewBox="0 0 30 30" style="enable-background:new 0 0 30 30;" xml:space="preserve">
<g>
	<g>
		<path d="M29.067,5.753L18,4.25c-1.082,0-2.318,0.415-2.993,1.032c-0.668-0.619-1.909-1.028-3.061-1.028h-0.013l-11,1.5
			C0.685,5.789,0.5,6,0.5,6.25v19c0,0.145,0.062,0.282,0.171,0.377c0.108,0.095,0.254,0.137,0.396,0.119L12,24.25
			c1.414,0,2.48,0.759,2.5,1c0,0.276,0.224,0.501,0.5,0.501c0.138,0,0.262-0.057,0.352-0.147c0.006-0.006,0.009-0.014,0.015-0.021
			c0.036-0.04,0.069-0.084,0.091-0.134c0.008-0.019,0.009-0.041,0.015-0.061c0.011-0.038,0.026-0.075,0.028-0.117v-0.02
			c0.034-0.283,1.172-1.002,2.433-1.006l11,1.5c0.143,0.018,0.288-0.024,0.396-0.119c0.108-0.094,0.171-0.231,0.171-0.376v-19
			C29.5,6,29.315,5.789,29.067,5.753z M14.5,23.923c-0.694-0.411-1.646-0.67-2.554-0.67h-0.013L1.5,24.676V6.685L12,5.249
			c1.414,0,2.48,0.759,2.5,1V23.923z M28.5,24.677L18,23.25c-0.86,0-1.805,0.269-2.5,0.686V6.25
			c0.034-0.283,1.172-1.002,2.433-1.006L28.5,6.685V24.677z"/>
	</g>
</g>
</svg>
