<?xml version="1.0" encoding="iso-8859-1"?>
<!-- Generator: Adobe Illustrator 19.0.0, SVG Export Plug-In . SVG Version: 6.00 Build 0)  -->
<svg version="1.1" id="Layer_1" xmlns="http://www.w3.org/2000/svg" xmlns:xlink="http://www.w3.org/1999/xlink" x="0px" y="0px"
	 viewBox="0 0 30 30" style="enable-background:new 0 0 30 30;" xml:space="preserve">
<g>
	<g>
		<path d="M28.363,19.954l-2.828-2.828c-0.195-0.195-0.512-0.195-0.707,0l-9.192,9.192c-0.093,0.094-0.146,0.221-0.146,0.354V29.5
			c0,0.276,0.224,0.5,0.5,0.5h2.828c0.133,0,0.26-0.053,0.353-0.147l9.192-9.192C28.558,20.466,28.558,20.149,28.363,19.954z
			 M18.611,29H16.49v-2.121l6.846-6.846l2.121,2.121L18.611,29z M26.164,21.447l-2.121-2.121l1.139-1.139l2.121,2.121L26.164,21.447
			z M13.99,27H4.461c-1.087,0-1.971-0.972-1.971-2.167V6.099C3.016,6.653,3.702,7,4.461,7H21.49v11c0,0.276,0.224,0.5,0.5,0.5
			s0.5-0.224,0.5-0.5V6.5c0-0.032-0.012-0.06-0.018-0.09c-0.003-0.015-0.005-0.029-0.009-0.043
			c-0.025-0.089-0.068-0.168-0.134-0.229c-0.003-0.002-0.003-0.006-0.005-0.009C22.29,6.097,21.49,5.34,21.49,3.5
			c0-1.84,0.8-2.597,0.829-2.624c0.158-0.137,0.212-0.357,0.139-0.552S22.198,0,21.99,0H4.461C2.823,0,1.49,1.57,1.49,3.5v21.333
			C1.49,26.579,2.823,28,4.461,28h9.529c0.276,0,0.5-0.224,0.5-0.5S14.266,27,13.99,27z M4.461,1h16.574
			c-0.235,0.462-0.451,1.129-0.516,2H4.99c-0.276,0-0.5,0.224-0.5,0.5S4.714,4,4.99,4h15.529c0.065,0.871,0.281,1.538,0.516,2H4.461
			C3.374,6,2.49,4.879,2.49,3.5C2.49,2.121,3.374,1,4.461,1z"/>
	</g>
</g>
</svg>
