<?xml version="1.0" encoding="iso-8859-1"?>
<!-- Generator: Adobe Illustrator 19.0.0, SVG Export Plug-In . SVG Version: 6.00 Build 0)  -->
<svg version="1.1" id="Layer_1" xmlns="http://www.w3.org/2000/svg" xmlns:xlink="http://www.w3.org/1999/xlink" x="0px" y="0px"
	 viewBox="0 0 30 30" style="enable-background:new 0 0 30 30;" xml:space="preserve">
<g>
	<g>
		<path d="M16.37,4h1.826c0.276,0,0.5-0.224,0.5-0.5S18.472,3,18.196,3H16.37c-0.276,0-0.5,0.224-0.5,0.5S16.094,4,16.37,4z
			 M20.935,4h1.826c0.277,0,0.5-0.224,0.5-0.5S23.037,3,22.761,3h-1.826c-0.276,0-0.5,0.224-0.5,0.5S20.659,4,20.935,4z M11.5,22h7
			c1.378,0,2.5-1.122,2.5-2.5S19.878,17,18.5,17h-7C10.122,17,9,18.122,9,19.5S10.122,22,11.5,22z M11.5,18h7
			c0.827,0,1.5,0.673,1.5,1.5S19.327,21,18.5,21h-7c-0.827,0-1.5-0.673-1.5-1.5S10.673,18,11.5,18z M29.978,14.393
			c-0.006-0.027-0.006-0.056-0.017-0.082c-0.026-0.063-0.064-0.119-0.111-0.167L27,11.294V0.5C27,0.224,26.776,0,26.5,0h-23
			C3.224,0,3,0.224,3,0.5v10.793l-2.854,2.854c-0.004,0.004-0.005,0.01-0.01,0.014c-0.04,0.043-0.075,0.092-0.098,0.147
			C0.013,14.371,0,14.436,0,14.502v13.714C0,29.2,0.8,30,1.784,30h26.432C29.2,30,30,29.2,30,28.216V14.5
			C30,14.462,29.986,14.428,29.978,14.393z M27,12.708L28.292,14H27V12.708z M4,4h0.5C4.776,4,5,3.776,5,3.5S4.776,3,4.5,3H4V1h22v2
			h-0.5C25.224,3,25,3.224,25,3.5S25.224,4,25.5,4H26v7.499c0,0.001,0,0.002,0,0.003V14h-6.849l1.626-1.084
			C20.917,12.823,21,12.667,21,12.5s-0.083-0.323-0.223-0.416l-9-6c-0.153-0.102-0.351-0.112-0.513-0.025
			C11.102,6.146,11,6.315,11,6.5V14H4V4z M17.348,14H12V7.434l7.598,5.066L17.348,14z M3,12.707V14H1.707L3,12.707z M29,28.216
			C29,28.648,28.648,29,28.216,29H1.784C1.352,29,1,28.648,1,28.216V15h28V28.216z M11.804,4h1.826c0.277,0,0.5-0.224,0.5-0.5
			S13.906,3,13.63,3h-1.826c-0.276,0-0.5,0.224-0.5,0.5S11.528,4,11.804,4z M9.065,3H7.239c-0.276,0-0.5,0.224-0.5,0.5
			S6.963,4,7.239,4h1.826c0.277,0,0.5-0.224,0.5-0.5S9.341,3,9.065,3z"/>
	</g>
</g>
</svg>
