<?xml version="1.0" encoding="iso-8859-1"?>
<!-- Generator: Adobe Illustrator 19.0.0, SVG Export Plug-In . SVG Version: 6.00 Build 0)  -->
<svg version="1.1" id="Layer_1" xmlns="http://www.w3.org/2000/svg" xmlns:xlink="http://www.w3.org/1999/xlink" x="0px" y="0px"
	 viewBox="0 0 30 30" style="enable-background:new 0 0 30 30;" xml:space="preserve">
<g>
	<g>
		<path d="M11.5,20h7c1.378,0,2.5-1.122,2.5-2.5S19.878,15,18.5,15h-7C10.122,15,9,16.122,9,17.5S10.122,20,11.5,20z M11.5,16h7
			c0.827,0,1.5,0.673,1.5,1.5S19.327,19,18.5,19h-7c-0.827,0-1.5-0.673-1.5-1.5S10.673,16,11.5,16z M29.978,12.393
			c-0.006-0.027-0.006-0.056-0.017-0.082c-0.026-0.063-0.064-0.119-0.111-0.167L27,9.294V0.5C27,0.224,26.776,0,26.5,0h-16
			c-0.067,0-0.132,0.014-0.193,0.039c-0.029,0.012-0.051,0.034-0.077,0.051c-0.028,0.019-0.06,0.032-0.084,0.056l-7,7
			C3.123,7.169,3.11,7.2,3.092,7.227c-0.018,0.027-0.041,0.05-0.053,0.08C3.014,7.368,3,7.433,3,7.5v1.793l-2.854,2.854
			c-0.004,0.004-0.005,0.01-0.01,0.014c-0.04,0.043-0.075,0.092-0.098,0.147C0.013,12.371,0,12.436,0,12.502v15.714
			C0,29.2,0.8,30,1.784,30h26.432C29.2,30,30,29.2,30,28.216V12.5C30,12.462,29.986,12.428,29.978,12.393z M27,10.708L28.292,12H27
			V10.708z M10,1.707V7H4.707L10,1.707z M4,8h6.5C10.776,8,11,7.776,11,7.5V1h15v8.499c0,0.001,0,0.002,0,0.003V12H4V8z M3,10.707
			V12H1.707L3,10.707z M29,28.216C29,28.648,28.649,29,28.216,29H1.784C1.352,29,1,28.649,1,28.216V13h28V28.216z M24.5,5h-10
			C14.224,5,14,5.224,14,5.5S14.224,6,14.5,6h10C24.776,6,25,5.776,25,5.5S24.776,5,24.5,5z M24.5,9h-10C14.224,9,14,9.224,14,9.5
			s0.224,0.5,0.5,0.5h10c0.276,0,0.5-0.224,0.5-0.5S24.776,9,24.5,9z"/>
	</g>
</g>
</svg>
