<?xml version="1.0" encoding="iso-8859-1"?>
<!-- Generator: Adobe Illustrator 19.0.0, SVG Export Plug-In . SVG Version: 6.00 Build 0)  -->
<svg version="1.1" id="Layer_1" xmlns="http://www.w3.org/2000/svg" xmlns:xlink="http://www.w3.org/1999/xlink" x="0px" y="0px"
	 viewBox="0 0 30 30" style="enable-background:new 0 0 30 30;" xml:space="preserve">
<g>
	<g>
		<path d="M28.203,0H1.797C0.806,0,0,0.805,0,1.796V8.5C0,8.776,0.224,9,0.5,9H1v19.206C1,29.195,1.801,30,2.786,30h24.428
			C28.199,30,29,29.195,29,28.206V9h0.5C29.776,9,30,8.776,30,8.5V1.796C30,0.806,29.194,0,28.203,0z M28,28.206
			C28,28.644,27.648,29,27.214,29H2.786C2.353,29,2,28.644,2,28.206V9h26V28.206z M29,8H1V1.796C1,1.357,1.358,1,1.797,1h26.406
			C28.643,1,29,1.357,29,1.796V8z M11.5,16h7c1.379,0,2.5-1.122,2.5-2.5S19.879,11,18.5,11h-7C10.121,11,9,12.122,9,13.5
			S10.121,16,11.5,16z M11.5,12h7c0.827,0,1.5,0.673,1.5,1.5S19.327,15,18.5,15h-7c-0.827,0-1.5-0.673-1.5-1.5S10.673,12,11.5,12z"
			/>
	</g>
</g>
</svg>
