<?xml version="1.0" encoding="iso-8859-1"?>
<!-- Generator: Adobe Illustrator 19.0.0, SVG Export Plug-In . SVG Version: 6.00 Build 0)  -->
<svg version="1.1" id="Layer_1" xmlns="http://www.w3.org/2000/svg" xmlns:xlink="http://www.w3.org/1999/xlink" x="0px" y="0px"
	 viewBox="0 0 30 30" style="enable-background:new 0 0 30 30;" xml:space="preserve">
<g>
	<g>
		<path d="M26.002,20.042c-1.06-0.178-2.036,0.034-2.681,0.58c-0.12,0.101-0.227,0.212-0.321,0.332
			c-0.093-0.12-0.201-0.231-0.321-0.332c-0.645-0.547-1.62-0.758-2.682-0.58c-1.424,0.238-2.497,1.601-2.497,3.25
			c0,0.817,0.311,1.587,0.874,2.167l4.268,4.39C22.735,29.945,22.865,30,23,30s0.265-0.055,0.358-0.151l4.268-4.39
			c0.563-0.58,0.874-1.35,0.874-2.25C28.5,21.643,27.427,20.28,26.002,20.042z M26.91,24.762l-3.909,4.021l-3.909-4.021
			c-0.375-0.387-0.591-0.922-0.591-1.553c0-1.084,0.715-2.022,1.662-2.181c0.194-0.032,0.383-0.049,0.563-0.049
			c0.534,0,0.994,0.14,1.307,0.405c0.311,0.263,0.468,0.641,0.468,1.123c0,0.276,0.224,0.5,0.5,0.5s0.5-0.224,0.5-0.5
			c0-0.482,0.157-0.86,0.468-1.123c0.419-0.355,1.097-0.484,1.869-0.356c0.948,0.16,1.663,1.097,1.663,2.264
			C27.501,23.84,27.285,24.375,26.91,24.762z M18.5,27H4.471C3.384,27,2.5,26.028,2.5,24.833V6.099C3.026,6.653,3.712,7,4.471,7
			H21.5v11.5c0,0.276,0.224,0.5,0.5,0.5s0.5-0.224,0.5-0.5v-12c0-0.032-0.012-0.06-0.018-0.09c-0.003-0.015-0.005-0.028-0.009-0.043
			c-0.025-0.089-0.068-0.168-0.134-0.229c-0.003-0.002-0.003-0.006-0.005-0.009C22.3,6.097,21.5,5.34,21.5,3.5
			c0-1.84,0.8-2.597,0.829-2.624c0.158-0.137,0.212-0.357,0.139-0.552S22.208,0,22,0H4.471C2.833,0,1.5,1.57,1.5,3.5v21.333
			C1.5,26.579,2.833,28,4.471,28H18.5c0.276,0,0.5-0.224,0.5-0.5S18.776,27,18.5,27z M4.471,1h16.574
			c-0.235,0.462-0.451,1.129-0.516,2H5C4.724,3,4.5,3.224,4.5,3.5S4.724,4,5,4h15.529c0.065,0.871,0.281,1.538,0.516,2H4.471
			C3.384,6,2.5,4.879,2.5,3.5C2.5,2.121,3.384,1,4.471,1z"/>
	</g>
</g>
</svg>
