<?xml version="1.0" encoding="iso-8859-1"?>
<!-- Generator: Adobe Illustrator 19.0.0, SVG Export Plug-In . SVG Version: 6.00 Build 0)  -->
<svg version="1.1" id="Layer_1" xmlns="http://www.w3.org/2000/svg" xmlns:xlink="http://www.w3.org/1999/xlink" x="0px" y="0px"
	 viewBox="0 0 30 30" style="enable-background:new 0 0 30 30;" xml:space="preserve">
<g>
	<g>
		<path d="M26.745,0.001h-4.74C22.003,0.001,22.002,0,22,0s-0.003,0.001-0.005,0.001h-4.99C17.003,0.001,17.002,0,17,0
			s-0.003,0.001-0.005,0.001H4.256c-0.967,0-1.755,0.787-1.755,1.755V6H2C1.724,6,1.5,6.224,1.5,6.5S1.724,7,2,7h0.501v5H2
			c-0.276,0-0.5,0.224-0.5,0.5S1.724,13,2,13h0.501v5H2c-0.276,0-0.5,0.224-0.5,0.5S1.724,19,2,19h0.501v5H2
			c-0.276,0-0.5,0.224-0.5,0.5S1.724,25,2,25h0.501v3.245C2.501,29.212,3.288,30,4.256,30h22.489c0.967,0,1.755-0.788,1.755-1.756
			V1.755C28.5,0.788,27.712,0,26.745,0.001z M17.5,1h4v8.293l-1.647-1.646c-0.195-0.195-0.512-0.195-0.707,0L17.5,9.293V1z
			 M27.5,28.245c0,0.416-0.339,0.755-0.755,0.754H4.255c-0.416,0-0.755-0.338-0.755-0.755V25h2.092C5.799,25.581,6.349,26,7,26
			c0.827,0,1.5-0.673,1.5-1.5C8.5,23.673,7.827,23,7,23c-0.651,0-1.201,0.419-1.408,1H3.5v-5h2.092C5.799,19.581,6.349,20,7,20
			c0.827,0,1.5-0.673,1.5-1.5C8.5,17.673,7.827,17,7,17c-0.651,0-1.201,0.419-1.408,1H3.5v-5h2.092C5.799,13.581,6.349,14,7,14
			c0.827,0,1.5-0.673,1.5-1.5C8.5,11.673,7.827,11,7,11c-0.651,0-1.201,0.419-1.408,1H3.5V7h2.092C5.799,7.581,6.349,8,7,8
			c0.827,0,1.5-0.673,1.5-1.5C8.5,5.673,7.827,5,7,5C6.349,5,5.799,5.419,5.592,6H3.5V1.755C3.5,1.339,3.838,1,4.255,1H16.5v9.5
			c0,0.202,0.122,0.385,0.309,0.461c0.188,0.078,0.401,0.036,0.545-0.108L19.5,8.707l2.146,2.147C21.742,10.949,21.87,11,22,11
			c0.064,0,0.129-0.012,0.191-0.038c0.187-0.077,0.309-0.26,0.309-0.462V1h4.245C27.161,1,27.5,1.339,27.5,1.756V28.245z M6.5,24.5
			C6.5,24.224,6.724,24,7,24s0.5,0.224,0.5,0.5S7.276,25,7,25S6.5,24.776,6.5,24.5z M6.5,18.5C6.5,18.224,6.724,18,7,18
			s0.5,0.224,0.5,0.5S7.276,19,7,19S6.5,18.776,6.5,18.5z M6.5,12.5C6.5,12.224,6.724,12,7,12s0.5,0.224,0.5,0.5S7.276,13,7,13
			S6.5,12.776,6.5,12.5z M6.5,6.5C6.5,6.224,6.724,6,7,6s0.5,0.224,0.5,0.5S7.276,7,7,7S6.5,6.776,6.5,6.5z"/>
	</g>
</g>
</svg>
