<?xml version="1.0" encoding="iso-8859-1"?>
<!-- Generator: Adobe Illustrator 19.0.0, SVG Export Plug-In . SVG Version: 6.00 Build 0)  -->
<svg version="1.1" id="Layer_1" xmlns="http://www.w3.org/2000/svg" xmlns:xlink="http://www.w3.org/1999/xlink" x="0px" y="0px"
	 viewBox="0 0 24 24" style="enable-background:new 0 0 24 24;" xml:space="preserve">
<g>
	<path d="M10.682,5.489l-2.415-3.45C8.203,2.195,8.151,2.316,8.118,2.381l-0.92,1.84L10.682,5.489z"/>
	<path d="M16.802,4.222l-0.92-1.84c-0.04-0.081-0.078-0.219-0.114-0.392l-2.449,3.499L16.802,4.222z"/>
	<path d="M9,1.342l3,4.286l3.037-4.339l0.22-0.879C14.763,0.152,14.218,0,13.646,0h-3.291C9.887,0,9.428,0.106,9,0.286V1.342z"/>
	<path d="M11,6.668L6.329,4.97C6.195,4.921,6.088,4.817,6.035,4.685S5.989,4.404,6.053,4.276l1.171-2.342
		c0.081-0.163,0.212-0.494,0.344-0.863c-0.735,0.077-1.465,0.224-2.193,0.49l-2.08,1.001C2.515,2.938,1.978,3.706,1.892,4.567
		L0.003,23.45c-0.015,0.141,0.031,0.281,0.126,0.385C0.224,23.94,0.358,24,0.5,24H4c0.256,0,0.47-0.193,0.497-0.447L5,18.86v3.64
		c0,0.189,0.107,0.362,0.276,0.447c0.079,0.04,1.858,0.902,5.724,1.034V6.668z"/>
	<path d="M22.108,4.567c-0.086-0.861-0.623-1.629-1.402-2.004l-2.126-1.02c-0.629-0.229-1.281-0.364-1.939-0.449
		c0.048,0.4,0.101,0.746,0.142,0.856l1.164,2.327c0.063,0.127,0.07,0.276,0.018,0.409s-0.16,0.236-0.294,0.285l-5.404,1.965
		C12.191,6.978,12.112,7,12.011,7C12.007,7,12.004,7,12,7v17c4.565,0,6.638-1.01,6.724-1.053C18.893,22.862,19,22.689,19,22.5v-3.64
		l0.503,4.693C19.53,23.807,19.744,24,20,24h3.5c0.142,0,0.276-0.06,0.371-0.165c0.095-0.104,0.141-0.245,0.126-0.385L22.108,4.567z
		"/>
</g>
<g>
</g>
<g>
</g>
<g>
</g>
<g>
</g>
<g>
</g>
<g>
</g>
<g>
</g>
<g>
</g>
<g>
</g>
<g>
</g>
<g>
</g>
<g>
</g>
<g>
</g>
<g>
</g>
<g>
</g>
</svg>
