<?xml version="1.0" encoding="iso-8859-1"?>
<!-- Generator: Adobe Illustrator 19.0.0, SVG Export Plug-In . SVG Version: 6.00 Build 0)  -->
<svg version="1.1" id="Layer_1" xmlns="http://www.w3.org/2000/svg" xmlns:xlink="http://www.w3.org/1999/xlink" x="0px" y="0px"
	 viewBox="0 0 24 24" style="enable-background:new 0 0 24 24;" xml:space="preserve">
<path d="M23.266,13.667C22.824,13.224,22.23,13,21.5,13c-1.938,0-5.185-0.491-7.284-1.734l-1.336,1.559
	C12.781,12.941,12.641,13,12.5,13c-0.115,0-0.231-0.04-0.325-0.121c-0.21-0.18-0.234-0.495-0.054-0.705l1.277-1.49
	c-0.188-0.16-0.364-0.326-0.513-0.505c-0.277-0.333-0.515-0.649-0.731-0.948l-1.264,1.579C10.792,10.935,10.646,11,10.5,11
	c-0.109,0-0.22-0.036-0.312-0.109c-0.215-0.173-0.25-0.487-0.078-0.703l1.458-1.822c-0.406-0.645-0.61-1.07-0.614-1.077
	c-0.058-0.123-0.163-0.218-0.292-0.262c-0.128-0.042-0.269-0.034-0.391,0.029C10.252,7.065,8.413,8,6,8
	C3.6,8,1.747,7.065,1.729,7.055C1.54,6.96,1.313,6.991,1.159,7.135C1.005,7.279,0.958,7.504,1.041,7.698
	C1.159,7.972,0.9,8.574,0.649,9.156C0.345,9.863,0,10.663,0,11.5c0,1.405,0.392,2.738,0.5,3.079V16.5C0.5,16.776,0.724,17,1,17h6.5
	C7.776,17,8,16.776,8,16.5v-0.563C8.907,16.413,10.612,17,13.5,17h6c1.964,0,4.122-1.005,4.213-1.047
	C23.888,15.87,24,15.695,24,15.501C24,15.456,23.995,14.398,23.266,13.667z"/>
<g>
</g>
<g>
</g>
<g>
</g>
<g>
</g>
<g>
</g>
<g>
</g>
<g>
</g>
<g>
</g>
<g>
</g>
<g>
</g>
<g>
</g>
<g>
</g>
<g>
</g>
<g>
</g>
<g>
</g>
</svg>
