<?xml version="1.0" encoding="iso-8859-1"?>
<!-- Generator: Adobe Illustrator 19.0.0, SVG Export Plug-In . SVG Version: 6.00 Build 0)  -->
<svg version="1.1" id="Layer_1" xmlns="http://www.w3.org/2000/svg" xmlns:xlink="http://www.w3.org/1999/xlink" x="0px" y="0px"
	 viewBox="0 0 24 24" style="enable-background:new 0 0 24 24;" xml:space="preserve">
<g>
	<path d="M20.504,4.5c0.042,4.767,0.678,7,1.996,7h1c0-2.444-0.608-5.672-0.882-7H22H20.504z"/>
	<rect x="4.5" y="1.5" width="15" height="2"/>
	<path d="M20.5,3.5H22h0.5V2c0-0.276-0.224-0.5-0.5-0.5h-1.5V3.5z"/>
	<path d="M22.5,12.5c-2.537,0-2.968-3.782-2.997-8H12.5V9c0,0.276-0.224,0.5-0.5,0.5S11.5,9.276,11.5,9V4.5H4.497
		c-0.029,4.218-0.461,8-2.997,8H0.527c0.152,3.395,0.94,9.291,0.977,9.566C1.538,22.315,1.75,22.5,2,22.5h8
		c0.242,0,0.449-0.173,0.492-0.411l1.505-8.311l1.511,8.311C13.551,22.327,13.758,22.5,14,22.5h8c0.25,0,0.462-0.185,0.496-0.434
		c0.037-0.275,0.825-6.172,0.977-9.566H22.5z"/>
	<path d="M2,3.5h1.5v-2H2C1.724,1.5,1.5,1.724,1.5,2v1.5H2z"/>
	<path d="M3.496,4.5H2H1.382C1.108,5.828,0.5,9.056,0.5,11.5h1C2.818,11.5,3.454,9.267,3.496,4.5z"/>
</g>
<g>
</g>
<g>
</g>
<g>
</g>
<g>
</g>
<g>
</g>
<g>
</g>
<g>
</g>
<g>
</g>
<g>
</g>
<g>
</g>
<g>
</g>
<g>
</g>
<g>
</g>
<g>
</g>
<g>
</g>
</svg>
