<?xml version="1.0" encoding="iso-8859-1"?>
<!-- Generator: Adobe Illustrator 19.0.0, SVG Export Plug-In . SVG Version: 6.00 Build 0)  -->
<svg version="1.1" id="Layer_1" xmlns="http://www.w3.org/2000/svg" xmlns:xlink="http://www.w3.org/1999/xlink" x="0px" y="0px"
	 viewBox="0 0 24 24" style="enable-background:new 0 0 24 24;" xml:space="preserve">
<g>
	<g>
		<path d="M12.463,11.693c-0.077-0.265-0.357-0.416-0.619-0.341c-0.266,0.078-0.418,0.355-0.342,0.62
			c0.286,0.988,1.052,1.67,1.837,2.26c0.09,0.068,0.196,0.101,0.301,0.101c0.151,0,0.301-0.068,0.4-0.2
			c0.166-0.221,0.122-0.534-0.099-0.7C13.294,12.946,12.667,12.399,12.463,11.693z M12,22c0.552,0,1-0.448,1-1s-0.448-1-1-1
			s-1,0.448-1,1S11.448,22,12,22z M13.212,14.637c-0.248-0.386-0.622-0.97-1.23-0.97c-0.774,0-1.057,1.101-1.157,1.758
			c-0.042,0.273,0.146,0.527,0.419,0.569C11.269,15.998,11.295,16,11.32,16c0.243,0,0.456-0.177,0.493-0.425
			c0.047-0.305,0.147-0.652,0.237-0.838c0.115,0.12,0.257,0.342,0.32,0.44c0.093,0.144,0.165,0.258,0.253,0.345
			c0.191,0.189,0.488,0.183,0.684,0c0.196-0.183,0.203-0.5,0.027-0.703C13.3,14.779,13.261,14.713,13.212,14.637z M13.671,11.15
			c-0.291-1-1.349-1.579-2.354-1.294c-0.979,0.279-1.542,1.272-1.313,2.311c0.349,1.576,0.028,1.675-0.416,1.813
			c-0.264,0.081-0.412,0.361-0.33,0.625c0.067,0.214,0.264,0.352,0.478,0.352c0.049,0,0.099-0.008,0.147-0.023
			c1.37-0.423,1.436-1.455,1.098-2.983c-0.116-0.523,0.14-0.999,0.609-1.133c0.476-0.135,0.982,0.138,1.12,0.611
			c0.083,0.285,0.335,0.587,0.929,1.112c0.204,0.182,0.52,0.164,0.706-0.043c0.183-0.207,0.163-0.523-0.044-0.706
			C13.764,11.317,13.678,11.163,13.671,11.15z M10.291,8.304c0.086-0.038,0.16-0.075,0.229-0.11C10.75,8.077,10.901,8,11.667,8
			c0.891,0,1.199,0.114,1.555,0.245l0.214,0.076c0.054,0.019,0.107,0.027,0.161,0.027c0.208,0,0.402-0.131,0.474-0.341
			c0.088-0.261-0.051-0.545-0.313-0.634l-0.19-0.068c-0.409-0.15-0.831-0.306-1.9-0.306c-0.937,0-1.23,0.115-1.601,0.303
			C10.012,7.33,9.953,7.36,9.885,7.39C9.633,7.502,9.519,7.798,9.631,8.05C9.743,8.303,10.039,8.416,10.291,8.304z M16,0H8
			C6.07,0,4.5,1.57,4.5,3.5v17C4.5,22.43,6.07,24,8,24h8c1.93,0,3.5-1.57,3.5-3.5v-17C19.5,1.57,17.93,0,16,0z M18.5,20.5
			c0,1.378-1.121,2.5-2.5,2.5H8c-1.379,0-2.5-1.122-2.5-2.5V19h13V20.5z M18.5,18h-13V5h13V18z M18.5,4h-13V3.5
			C5.5,2.122,6.621,1,8,1h8c1.379,0,2.5,1.122,2.5,2.5V4z M8.785,11.947c-0.147,0.087-0.25,0.24-0.25,0.423
			c0,0.254,0.143,0.577,0.229,0.746c0.087,0.174,0.263,0.275,0.446,0.275c0.076,0,0.152-0.017,0.224-0.053
			c0.247-0.124,0.346-0.424,0.222-0.671c-0.047-0.095-0.11-0.251-0.121-0.312c-0.006-0.192-0.122-0.353-0.285-0.432
			c0.147-0.087,0.25-0.24,0.25-0.423c0-1.276,0.884-2.167,2.151-2.167c1.266,0,1.743,0.69,2.205,1.357
			c0.283,0.41,0.551,0.796,0.99,0.938c0.263,0.082,0.545-0.06,0.629-0.323c0.085-0.263-0.059-0.544-0.322-0.629
			c-0.117-0.037-0.315-0.324-0.475-0.554c-0.492-0.713-1.237-1.789-3.027-1.789C9.825,8.333,8.5,9.665,8.5,11.5
			C8.5,11.698,8.618,11.866,8.785,11.947z M16.02,2h-0.01c-0.276,0-0.495,0.224-0.495,0.5S15.745,3,16.02,3
			c0.276,0,0.5-0.224,0.5-0.5S16.296,2,16.02,2z M13,2h-2c-0.276,0-0.5,0.224-0.5,0.5S10.724,3,11,3h2c0.276,0,0.5-0.224,0.5-0.5
			S13.276,2,13,2z"/>
	</g>
</g>
</svg>
