<?xml version="1.0" encoding="iso-8859-1"?>
<!-- Generator: Adobe Illustrator 19.0.0, SVG Export Plug-In . SVG Version: 6.00 Build 0)  -->
<svg version="1.1" id="Layer_1" xmlns="http://www.w3.org/2000/svg" xmlns:xlink="http://www.w3.org/1999/xlink" x="0px" y="0px"
	 viewBox="0 0 24 24" style="enable-background:new 0 0 24 24;" xml:space="preserve">
<g>
	<g>
		<path d="M14.43,10.243c-0.142-0.236-0.448-0.313-0.686-0.171l-2.243,1.346l-2.243-1.346C9.02,9.93,8.714,10.007,8.572,10.243
			c-0.142,0.237-0.066,0.544,0.171,0.686l2.5,1.5c0.079,0.047,0.168,0.071,0.257,0.071s0.178-0.024,0.259-0.071l2.5-1.5
			C14.495,10.787,14.572,10.48,14.43,10.243z M9.776,12.553l-1,0.5c-0.247,0.124-0.348,0.424-0.224,0.671C8.64,13.899,8.816,14,9,14
			c0.076,0,0.152-0.017,0.223-0.052l1-0.5c0.247-0.124,0.348-0.424,0.224-0.671C10.323,12.53,10.024,12.431,9.776,12.553z
			 M15.929,5.961l-0.431-5.004C15.476,0.699,15.259,0.5,15,0.5H8c-0.259,0-0.476,0.199-0.498,0.457L7.071,5.961
			C5.213,7.327,4,9.522,4,12s1.213,4.673,3.071,6.039l0.431,5.004C7.524,23.301,7.741,23.5,8,23.5h7
			c0.259,0,0.476-0.199,0.498-0.457l0.431-5.004C17.787,16.673,19,14.478,19,12S17.787,7.327,15.929,5.961z M8.459,1.5h6.082
			l0.328,3.808C13.854,4.796,12.712,4.5,11.5,4.5c-1.213,0-2.355,0.296-3.37,0.809L8.459,1.5z M14.541,22.5H8.459L8.13,18.691
			c1.015,0.513,2.157,0.809,3.37,0.809c1.213,0,2.355-0.296,3.37-0.809L14.541,22.5z M11.5,18.5C7.916,18.5,5,15.584,5,12
			s2.916-6.5,6.5-6.5S18,8.416,18,12S15.084,18.5,11.5,18.5z M19.5,11c-0.276,0-0.5,0.224-0.5,0.5V12v0.5c0,0.276,0.224,0.5,0.5,0.5
			s0.5-0.224,0.5-0.5v-1C20,11.224,19.776,11,19.5,11z M14.224,13.052l-1-0.5c-0.247-0.122-0.548-0.023-0.671,0.224
			c-0.123,0.247-0.023,0.547,0.224,0.671l1,0.5C13.849,13.983,13.925,14,14,14c0.183,0,0.359-0.101,0.448-0.277
			C14.571,13.476,14.471,13.176,14.224,13.052z M14.5,8.5h-6C7.673,8.5,7,9.173,7,10v4c0,0.827,0.673,1.5,1.5,1.5h6
			c0.827,0,1.5-0.673,1.5-1.5v-4C16,9.173,15.327,8.5,14.5,8.5z M15,14c0,0.276-0.224,0.5-0.5,0.5h-6C8.224,14.5,8,14.276,8,14v-4
			c0-0.276,0.224-0.5,0.5-0.5h6c0.276,0,0.5,0.224,0.5,0.5V14z"/>
	</g>
</g>
</svg>
