<?xml version="1.0" encoding="iso-8859-1"?>
<!-- Generator: Adobe Illustrator 19.0.0, SVG Export Plug-In . SVG Version: 6.00 Build 0)  -->
<svg version="1.1" id="Layer_1" xmlns="http://www.w3.org/2000/svg" xmlns:xlink="http://www.w3.org/1999/xlink" x="0px" y="0px"
	 viewBox="0 0 24 24" style="enable-background:new 0 0 24 24;" xml:space="preserve">
<g>
	<g>
		<path d="M14.876,8.682c-0.261,0.087-0.403,0.37-0.316,0.632c0.292,0.878,0.44,1.782,0.44,2.687c0,0.905-0.148,1.809-0.44,2.687
			c-0.087,0.261,0.054,0.545,0.316,0.632c0.053,0.017,0.105,0.025,0.158,0.025c0.21,0,0.404-0.133,0.475-0.342
			C15.835,14.024,16,13.013,16,12.001c0-1.012-0.165-2.023-0.491-3.002C15.421,8.736,15.138,8.597,14.876,8.682z M19.5,11
			c-0.276,0-0.5,0.224-0.5,0.5V12v0.5c0,0.276,0.224,0.5,0.5,0.5s0.5-0.224,0.5-0.5v-1C20,11.224,19.776,11,19.5,11z M15.928,5.96
			l-0.43-5.003C15.476,0.699,15.26,0.5,15,0.5H8c-0.26,0-0.476,0.199-0.498,0.457L7.072,5.96C5.213,7.327,4,9.521,4,12
			s1.213,4.673,3.072,6.04l0.43,5.003C7.524,23.301,7.74,23.5,8,23.5h7c0.26,0,0.476-0.199,0.498-0.457l0.43-5.003
			C17.787,16.673,19,14.479,19,12S17.787,7.327,15.928,5.96z M8.459,1.5h6.082l0.328,3.808C13.854,4.796,12.712,4.5,11.5,4.5
			S9.146,4.796,8.131,5.308L8.459,1.5z M14.541,22.5H8.459l-0.328-3.808C9.146,19.204,10.288,19.5,11.5,19.5
			s2.354-0.296,3.369-0.808L14.541,22.5z M11.5,18.5C7.916,18.5,5,15.584,5,12s2.916-6.5,6.5-6.5S18,8.416,18,12
			S15.084,18.5,11.5,18.5z M13.277,7.553L9.382,9.5H7.5C7.224,9.5,7,9.724,7,10v4c0,0.276,0.224,0.5,0.5,0.5h1.882l3.894,1.947
			c0.071,0.035,0.148,0.053,0.224,0.053c0.092,0,0.183-0.025,0.263-0.075C13.91,16.334,14,16.173,14,16V8
			c0-0.173-0.09-0.334-0.237-0.425C13.617,7.483,13.432,7.475,13.277,7.553z M9,13.5H8v-3h1V13.5z M13,15.191l-3-1.5v-3.382l3-1.5
			V15.191z"/>
	</g>
</g>
</svg>
