<?xml version="1.0" encoding="iso-8859-1"?>
<!-- Generator: Adobe Illustrator 19.0.0, SVG Export Plug-In . SVG Version: 6.00 Build 0)  -->
<svg version="1.1" id="Layer_1" xmlns="http://www.w3.org/2000/svg" xmlns:xlink="http://www.w3.org/1999/xlink" x="0px" y="0px"
	 viewBox="0 0 24 24" style="enable-background:new 0 0 24 24;" xml:space="preserve">
<g>
	<path d="M12.002,22.5h-0.01c-0.276,0-0.495,0.224-0.495,0.5s0.229,0.5,0.505,0.5c0.276,0,0.5-0.224,0.5-0.5
		S12.279,22.5,12.002,22.5z"/>
	<path d="M12.002,20.5h-0.01c-0.276,0-0.495,0.224-0.495,0.5s0.229,0.5,0.505,0.5c0.276,0,0.5-0.224,0.5-0.5
		S12.279,20.5,12.002,20.5z"/>
	<path d="M12.002,18.5h-0.01c-0.276,0-0.495,0.224-0.495,0.5s0.229,0.5,0.505,0.5c0.276,0,0.5-0.224,0.5-0.5
		S12.279,18.5,12.002,18.5z"/>
	<path d="M12.002,16.5h-0.01c-0.276,0-0.495,0.224-0.495,0.5s0.229,0.5,0.505,0.5c0.276,0,0.5-0.224,0.5-0.5
		S12.279,16.5,12.002,16.5z"/>
	<path d="M12.002,14.5h-0.01c-0.276,0-0.495,0.224-0.495,0.5s0.229,0.5,0.505,0.5c0.276,0,0.5-0.224,0.5-0.5
		S12.279,14.5,12.002,14.5z"/>
	<path d="M12.002,12.5h-0.01c-0.276,0-0.495,0.224-0.495,0.5s0.229,0.5,0.505,0.5c0.276,0,0.5-0.224,0.5-0.5
		S12.279,12.5,12.002,12.5z"/>
	<path d="M12.002,10.5h-0.01c-0.276,0-0.495,0.224-0.495,0.5s0.229,0.5,0.505,0.5c0.276,0,0.5-0.224,0.5-0.5
		S12.279,10.5,12.002,10.5z"/>
	<path d="M14.002,20.5h-0.01c-0.276,0-0.495,0.224-0.495,0.5s0.229,0.5,0.505,0.5c0.276,0,0.5-0.224,0.5-0.5
		S14.279,20.5,14.002,20.5z"/>
	<path d="M14.002,18.5h-0.01c-0.276,0-0.495,0.224-0.495,0.5s0.229,0.5,0.505,0.5c0.276,0,0.5-0.224,0.5-0.5
		S14.279,18.5,14.002,18.5z"/>
	<path d="M14.002,16.5h-0.01c-0.276,0-0.495,0.224-0.495,0.5s0.229,0.5,0.505,0.5c0.276,0,0.5-0.224,0.5-0.5
		S14.279,16.5,14.002,16.5z"/>
	<path d="M14.002,14.5h-0.01c-0.276,0-0.495,0.224-0.495,0.5s0.229,0.5,0.505,0.5c0.276,0,0.5-0.224,0.5-0.5
		S14.279,14.5,14.002,14.5z"/>
	<path d="M14.002,12.5h-0.01c-0.276,0-0.495,0.224-0.495,0.5s0.229,0.5,0.505,0.5c0.276,0,0.5-0.224,0.5-0.5
		S14.279,12.5,14.002,12.5z"/>
	<path d="M16.002,18.5h-0.01c-0.276,0-0.495,0.224-0.495,0.5s0.229,0.5,0.505,0.5c0.276,0,0.5-0.224,0.5-0.5
		S16.279,18.5,16.002,18.5z"/>
	<path d="M16.002,16.5h-0.01c-0.276,0-0.495,0.224-0.495,0.5s0.229,0.5,0.505,0.5c0.276,0,0.5-0.224,0.5-0.5
		S16.279,16.5,16.002,16.5z"/>
	<path d="M16.002,14.5h-0.01c-0.276,0-0.495,0.224-0.495,0.5s0.229,0.5,0.505,0.5c0.276,0,0.5-0.224,0.5-0.5
		S16.279,14.5,16.002,14.5z"/>
	<path d="M16.002,12.5h-0.01c-0.276,0-0.495,0.224-0.495,0.5s0.229,0.5,0.505,0.5c0.276,0,0.5-0.224,0.5-0.5
		S16.279,12.5,16.002,12.5z"/>
	<path d="M18.002,16.5h-0.01c-0.276,0-0.495,0.224-0.495,0.5s0.229,0.5,0.505,0.5c0.276,0,0.5-0.224,0.5-0.5
		S18.279,16.5,18.002,16.5z"/>
	<path d="M18.002,14.5h-0.01c-0.276,0-0.495,0.224-0.495,0.5s0.229,0.5,0.505,0.5c0.276,0,0.5-0.224,0.5-0.5
		S18.279,14.5,18.002,14.5z"/>
	<path d="M18.002,12.5h-0.01c-0.276,0-0.495,0.224-0.495,0.5s0.229,0.5,0.505,0.5c0.276,0,0.5-0.224,0.5-0.5
		S18.279,12.5,18.002,12.5z"/>
	<path d="M20.002,14.5h-0.01c-0.276,0-0.495,0.224-0.495,0.5s0.229,0.5,0.505,0.5c0.276,0,0.5-0.224,0.5-0.5
		S20.279,14.5,20.002,14.5z"/>
	<path d="M20.002,12.5h-0.01c-0.276,0-0.495,0.224-0.495,0.5s0.229,0.5,0.505,0.5c0.276,0,0.5-0.224,0.5-0.5
		S20.279,12.5,20.002,12.5z"/>
	<path d="M22.002,12.5h-0.01c-0.276,0-0.495,0.224-0.495,0.5s0.229,0.5,0.505,0.5c0.276,0,0.5-0.224,0.5-0.5
		S22.279,12.5,22.002,12.5z"/>
	<path d="M10.002,20.5h-0.01c-0.276,0-0.495,0.224-0.495,0.5s0.229,0.5,0.505,0.5c0.276,0,0.5-0.224,0.5-0.5
		S10.279,20.5,10.002,20.5z"/>
	<path d="M10.002,18.5h-0.01c-0.276,0-0.495,0.224-0.495,0.5s0.229,0.5,0.505,0.5c0.276,0,0.5-0.224,0.5-0.5
		S10.279,18.5,10.002,18.5z"/>
	<path d="M10.002,16.5h-0.01c-0.276,0-0.495,0.224-0.495,0.5s0.229,0.5,0.505,0.5c0.276,0,0.5-0.224,0.5-0.5
		S10.279,16.5,10.002,16.5z"/>
	<path d="M10.002,14.5h-0.01c-0.276,0-0.495,0.224-0.495,0.5s0.229,0.5,0.505,0.5c0.276,0,0.5-0.224,0.5-0.5
		S10.279,14.5,10.002,14.5z"/>
	<path d="M10.002,12.5h-0.01c-0.276,0-0.495,0.224-0.495,0.5s0.229,0.5,0.505,0.5c0.276,0,0.5-0.224,0.5-0.5
		S10.279,12.5,10.002,12.5z"/>
	<path d="M8.002,18.5h-0.01c-0.276,0-0.495,0.224-0.495,0.5s0.229,0.5,0.505,0.5c0.276,0,0.5-0.224,0.5-0.5S8.279,18.5,8.002,18.5z"
		/>
	<path d="M8.002,16.5h-0.01c-0.276,0-0.495,0.224-0.495,0.5s0.229,0.5,0.505,0.5c0.276,0,0.5-0.224,0.5-0.5S8.279,16.5,8.002,16.5z"
		/>
	<path d="M8.002,14.5h-0.01c-0.276,0-0.495,0.224-0.495,0.5s0.229,0.5,0.505,0.5c0.276,0,0.5-0.224,0.5-0.5S8.279,14.5,8.002,14.5z"
		/>
	<path d="M8.002,12.5h-0.01c-0.276,0-0.495,0.224-0.495,0.5s0.229,0.5,0.505,0.5c0.276,0,0.5-0.224,0.5-0.5S8.279,12.5,8.002,12.5z"
		/>
	<path d="M6.002,16.5h-0.01c-0.276,0-0.495,0.224-0.495,0.5s0.229,0.5,0.505,0.5c0.276,0,0.5-0.224,0.5-0.5S6.279,16.5,6.002,16.5z"
		/>
	<path d="M6.002,14.5h-0.01c-0.276,0-0.495,0.224-0.495,0.5s0.229,0.5,0.505,0.5c0.276,0,0.5-0.224,0.5-0.5S6.279,14.5,6.002,14.5z"
		/>
	<path d="M6.002,12.5h-0.01c-0.276,0-0.495,0.224-0.495,0.5s0.229,0.5,0.505,0.5c0.276,0,0.5-0.224,0.5-0.5S6.279,12.5,6.002,12.5z"
		/>
	<path d="M4.002,14.5h-0.01c-0.276,0-0.495,0.224-0.495,0.5s0.229,0.5,0.505,0.5c0.276,0,0.5-0.224,0.5-0.5S4.279,14.5,4.002,14.5z"
		/>
	<path d="M4.002,12.5h-0.01c-0.276,0-0.495,0.224-0.495,0.5s0.229,0.5,0.505,0.5c0.276,0,0.5-0.224,0.5-0.5S4.279,12.5,4.002,12.5z"
		/>
	<path d="M2.002,12.5h-0.01c-0.276,0-0.495,0.224-0.495,0.5s0.229,0.5,0.505,0.5c0.276,0,0.5-0.224,0.5-0.5S2.279,12.5,2.002,12.5z"
		/>
	<path d="M12.002,8.5h-0.01c-0.276,0-0.495,0.224-0.495,0.5s0.229,0.5,0.505,0.5c0.276,0,0.5-0.224,0.5-0.5S12.279,8.5,12.002,8.5z"
		/>
	<path d="M12.002,6.5h-0.01c-0.276,0-0.495,0.224-0.495,0.5s0.229,0.5,0.505,0.5c0.276,0,0.5-0.224,0.5-0.5S12.279,6.5,12.002,6.5z"
		/>
	<path d="M12.002,4.5h-0.01c-0.276,0-0.495,0.224-0.495,0.5s0.229,0.5,0.505,0.5c0.276,0,0.5-0.224,0.5-0.5S12.279,4.5,12.002,4.5z"
		/>
	<path d="M12.002,2.5h-0.01c-0.276,0-0.495,0.224-0.495,0.5s0.229,0.5,0.505,0.5c0.276,0,0.5-0.224,0.5-0.5S12.279,2.5,12.002,2.5z"
		/>
	<path d="M12.002,0.5h-0.01c-0.276,0-0.495,0.224-0.495,0.5s0.229,0.5,0.505,0.5c0.276,0,0.5-0.224,0.5-0.5S12.279,0.5,12.002,0.5z"
		/>
	<path d="M10.002,10.5h-0.01c-0.276,0-0.495,0.224-0.495,0.5s0.229,0.5,0.505,0.5c0.276,0,0.5-0.224,0.5-0.5
		S10.279,10.5,10.002,10.5z"/>
	<path d="M10.002,8.5h-0.01C9.716,8.5,9.498,8.724,9.498,9s0.229,0.5,0.505,0.5c0.276,0,0.5-0.224,0.5-0.5S10.279,8.5,10.002,8.5z"
		/>
	<path d="M10.002,6.5h-0.01C9.716,6.5,9.498,6.724,9.498,7s0.229,0.5,0.505,0.5c0.276,0,0.5-0.224,0.5-0.5S10.279,6.5,10.002,6.5z"
		/>
	<path d="M10.002,4.5h-0.01C9.716,4.5,9.498,4.724,9.498,5s0.229,0.5,0.505,0.5c0.276,0,0.5-0.224,0.5-0.5S10.279,4.5,10.002,4.5z"
		/>
	<path d="M10.002,2.5h-0.01C9.716,2.5,9.498,2.724,9.498,3s0.229,0.5,0.505,0.5c0.276,0,0.5-0.224,0.5-0.5S10.279,2.5,10.002,2.5z"
		/>
	<path d="M10.002,0.5h-0.01C9.716,0.5,9.498,0.724,9.498,1s0.229,0.5,0.505,0.5c0.276,0,0.5-0.224,0.5-0.5S10.279,0.5,10.002,0.5z"
		/>
	<path d="M14.002,10.5h-0.01c-0.276,0-0.495,0.224-0.495,0.5s0.229,0.5,0.505,0.5c0.276,0,0.5-0.224,0.5-0.5
		S14.279,10.5,14.002,10.5z"/>
	<path d="M14.002,8.5h-0.01c-0.276,0-0.495,0.224-0.495,0.5s0.229,0.5,0.505,0.5c0.276,0,0.5-0.224,0.5-0.5S14.279,8.5,14.002,8.5z"
		/>
	<path d="M14.002,6.5h-0.01c-0.276,0-0.495,0.224-0.495,0.5s0.229,0.5,0.505,0.5c0.276,0,0.5-0.224,0.5-0.5S14.279,6.5,14.002,6.5z"
		/>
	<path d="M14.002,4.5h-0.01c-0.276,0-0.495,0.224-0.495,0.5s0.229,0.5,0.505,0.5c0.276,0,0.5-0.224,0.5-0.5S14.279,4.5,14.002,4.5z"
		/>
	<path d="M14.002,2.5h-0.01c-0.276,0-0.495,0.224-0.495,0.5s0.229,0.5,0.505,0.5c0.276,0,0.5-0.224,0.5-0.5S14.279,2.5,14.002,2.5z"
		/>
	<path d="M14.002,0.5h-0.01c-0.276,0-0.495,0.224-0.495,0.5s0.229,0.5,0.505,0.5c0.276,0,0.5-0.224,0.5-0.5S14.279,0.5,14.002,0.5z"
		/>
</g>
<g>
</g>
<g>
</g>
<g>
</g>
<g>
</g>
<g>
</g>
<g>
</g>
<g>
</g>
<g>
</g>
<g>
</g>
<g>
</g>
<g>
</g>
<g>
</g>
<g>
</g>
<g>
</g>
<g>
</g>
</svg>
