<?xml version="1.0" encoding="iso-8859-1"?>
<!-- Generator: Adobe Illustrator 19.0.0, SVG Export Plug-In . SVG Version: 6.00 Build 0)  -->
<svg version="1.1" id="Layer_1" xmlns="http://www.w3.org/2000/svg" xmlns:xlink="http://www.w3.org/1999/xlink" x="0px" y="0px"
	 viewBox="0 0 24 24" style="enable-background:new 0 0 24 24;" xml:space="preserve">
<path d="M23.504,7.498h-12.5v-5.5c0-0.202-0.122-0.384-0.309-0.462s-0.402-0.035-0.545,0.108l-10.008,10
	c-0.094,0.094-0.146,0.221-0.146,0.354s0.053,0.26,0.146,0.354l10.008,10.004c0.096,0.096,0.224,0.146,0.354,0.146
	c0.064,0,0.129-0.012,0.191-0.038c0.187-0.078,0.309-0.26,0.309-0.462v-5.504h12.5c0.276,0,0.5-0.224,0.5-0.5v-8
	C24.004,7.722,23.781,7.498,23.504,7.498z"/>
<g>
</g>
<g>
</g>
<g>
</g>
<g>
</g>
<g>
</g>
<g>
</g>
<g>
</g>
<g>
</g>
<g>
</g>
<g>
</g>
<g>
</g>
<g>
</g>
<g>
</g>
<g>
</g>
<g>
</g>
</svg>
