<?xml version="1.0" encoding="iso-8859-1"?>
<!-- Generator: Adobe Illustrator 19.0.0, SVG Export Plug-In . SVG Version: 6.00 Build 0)  -->
<svg version="1.1" id="Layer_1" xmlns="http://www.w3.org/2000/svg" xmlns:xlink="http://www.w3.org/1999/xlink" x="0px" y="0px"
	 viewBox="0 0 24 24" style="enable-background:new 0 0 24 24;" xml:space="preserve">
<path d="M23.857,11.631L13.849,1.656c-0.143-0.142-0.356-0.183-0.545-0.108c-0.187,0.078-0.308,0.26-0.308,0.462v5.5h-12.5
	c-0.276,0-0.5,0.224-0.5,0.5v8c0,0.276,0.224,0.5,0.5,0.5h12.5v5.479c0,0.202,0.122,0.384,0.309,0.462
	c0.062,0.026,0.127,0.038,0.191,0.038c0.13,0,0.258-0.051,0.354-0.146l10.008-10.004c0.094-0.094,0.146-0.221,0.146-0.354
	S23.951,11.725,23.857,11.631z"/>
<g>
</g>
<g>
</g>
<g>
</g>
<g>
</g>
<g>
</g>
<g>
</g>
<g>
</g>
<g>
</g>
<g>
</g>
<g>
</g>
<g>
</g>
<g>
</g>
<g>
</g>
<g>
</g>
<g>
</g>
</svg>
