<?xml version="1.0" encoding="utf-8"?>
<!-- Generator: Adobe Illustrator 19.0.0, SVG Export Plug-In . SVG Version: 6.00 Build 0)  -->
<svg version="1.1" id="Layer_1" xmlns="http://www.w3.org/2000/svg" xmlns:xlink="http://www.w3.org/1999/xlink" x="0px" y="0px"
	 viewBox="0 0 30 30" style="enable-background:new 0 0 30 30;" xml:space="preserve">
<g>
	<g>
		<path d="M12.5,9.5h5C17.8,9.5,18,9.3,18,9V4c0-0.3-0.2-0.5-0.5-0.5h-5C12.2,3.5,12,3.7,12,4v5C12,9.3,12.2,9.5,12.5,9.5z"/>
	</g>
	<g>
		<path d="M12,16.5c0-1.7-1.3-3-3-3s-3,1.3-3,3c0,0.9,0.4,1.7,1.1,2.3C6.2,19,5.4,19.4,4.7,20c0.9,1.5,2.5,2.5,4.3,2.5
			s3.4-1,4.3-2.5c-0.7-0.6-1.5-1-2.4-1.2C11.6,18.2,12,17.4,12,16.5z"/>
	</g>
	<g>
		<path d="M27,6.5h-7.5C19.2,6.5,19,6.7,19,7v2c0,0.8-0.7,1.5-1.5,1.5h-5C11.7,10.5,11,9.8,11,9V7c0-0.3-0.2-0.5-0.5-0.5H3
			c-1.7,0-3,1.3-3,3v14c0,1.7,1.3,3,3,3h24c1.7,0,3-1.3,3-3v-14C30,7.8,28.7,6.5,27,6.5z M9,23.5c-3.3,0-6-2.7-6-6s2.7-6,6-6
			s6,2.7,6,6S12.3,23.5,9,23.5z M26.5,20.5h-9c-0.3,0-0.5-0.2-0.5-0.5s0.2-0.5,0.5-0.5h9c0.3,0,0.5,0.2,0.5,0.5S26.8,20.5,26.5,20.5
			z M26.5,17.5h-9c-0.3,0-0.5-0.2-0.5-0.5s0.2-0.5,0.5-0.5h9c0.3,0,0.5,0.2,0.5,0.5S26.8,17.5,26.5,17.5z M26.5,14.5h-9
			c-0.3,0-0.5-0.2-0.5-0.5s0.2-0.5,0.5-0.5h9c0.3,0,0.5,0.2,0.5,0.5S26.8,14.5,26.5,14.5z"/>
	</g>
</g>
</svg>
