<?xml version="1.0" encoding="iso-8859-1"?>
<!-- Generator: Adobe Illustrator 19.0.0, SVG Export Plug-In . SVG Version: 6.00 Build 0)  -->
<svg version="1.1" id="Layer_1" xmlns="http://www.w3.org/2000/svg" xmlns:xlink="http://www.w3.org/1999/xlink" x="0px" y="0px"
	 viewBox="0 0 30 30" style="enable-background:new 0 0 30 30;" xml:space="preserve">
<g>
	<g>
		<path d="M18,9.491c0.095,0,0.189-0.027,0.272-0.081c0.185-0.119,0.269-0.345,0.208-0.556l-0.919-3.217l1.792-1.792
			c0.142-0.143,0.185-0.358,0.108-0.545c-0.077-0.187-0.26-0.309-0.462-0.309h-2.217l-1.354-2.257c-0.179-0.301-0.677-0.301-0.857,0
			l-1.354,2.257H11c-0.202,0-0.384,0.122-0.462,0.309c-0.078,0.187-0.035,0.402,0.108,0.545l1.792,1.792l-0.919,3.217
			c-0.061,0.211,0.023,0.436,0.208,0.556c0.183,0.119,0.423,0.105,0.593-0.035L15,7.142l2.68,2.233
			C17.772,9.452,17.886,9.491,18,9.491z M15.32,6.107C15.228,6.03,15.113,5.991,15,5.991c-0.113,0-0.228,0.039-0.321,0.116
			l-1.753,1.461l0.554-1.94c0.05-0.175,0.002-0.363-0.127-0.491l-1.146-1.146H13.5c0.176,0,0.339-0.093,0.429-0.243L15,1.962
			l1.071,1.786c0.09,0.151,0.253,0.243,0.429,0.243h1.292l-1.146,1.146c-0.129,0.129-0.177,0.317-0.127,0.491l0.554,1.94
			L15.32,6.107z M29.462,12.299c-0.077-0.187-0.26-0.309-0.462-0.309h-2.217l-1.354-2.257C25.331,9.57,25.151,9.48,24.96,9.492
			c-0.19,0.015-0.354,0.136-0.424,0.313l-0.875,2.186H21c-0.202,0-0.384,0.122-0.462,0.309c-0.078,0.187-0.035,0.402,0.108,0.545
			l1.792,1.792l-0.919,3.217c-0.061,0.211,0.023,0.436,0.208,0.556c0.183,0.119,0.424,0.106,0.593-0.035L25,16.142l2.68,2.233
			c0.092,0.077,0.206,0.116,0.32,0.116c0.095,0,0.189-0.027,0.273-0.082c0.185-0.119,0.269-0.345,0.208-0.556l-0.919-3.217
			l1.792-1.792C29.496,12.701,29.539,12.486,29.462,12.299z M26.646,14.137c-0.129,0.129-0.177,0.317-0.127,0.491l0.554,1.94
			l-1.753-1.461c-0.092-0.077-0.207-0.116-0.32-0.116c-0.113,0-0.228,0.039-0.321,0.115l-1.753,1.461l0.554-1.94
			c0.05-0.175,0.002-0.363-0.127-0.491l-1.146-1.146H24c0.204,0,0.389-0.124,0.464-0.314l0.626-1.564l0.981,1.636
			c0.09,0.151,0.253,0.243,0.429,0.243h1.292L26.646,14.137z M7.68,18.375c0.092,0.077,0.206,0.116,0.32,0.116
			c0.095,0,0.189-0.027,0.272-0.081c0.185-0.119,0.269-0.345,0.208-0.556l-0.919-3.217l1.792-1.792
			c0.142-0.143,0.185-0.358,0.108-0.545c-0.077-0.187-0.26-0.309-0.462-0.309H6.782L5.428,9.734c-0.179-0.301-0.677-0.301-0.857,0
			l-1.354,2.257H1c-0.202,0-0.384,0.122-0.462,0.309c-0.078,0.187-0.035,0.402,0.108,0.545l1.792,1.792l-0.919,3.217
			c-0.061,0.211,0.023,0.436,0.208,0.556c0.183,0.119,0.424,0.106,0.593-0.035L5,16.142L7.68,18.375z M2.926,16.568l0.554-1.94
			c0.05-0.175,0.002-0.363-0.127-0.491l-1.146-1.146H3.5c0.176,0,0.339-0.093,0.429-0.243L5,10.962l1.071,1.786
			c0.09,0.151,0.253,0.243,0.429,0.243h1.292l-1.146,1.146c-0.129,0.129-0.177,0.317-0.127,0.491l0.554,1.94L5.32,15.107
			C5.228,15.03,5.113,14.991,5,14.991c-0.113,0-0.228,0.039-0.321,0.116L2.926,16.568z M13,23.492h-2.661l-0.875-2.186
			c-0.07-0.177-0.235-0.298-0.424-0.313c-0.191-0.014-0.371,0.078-0.469,0.241l-1.354,2.257H5c-0.189,0-0.362,0.108-0.447,0.277
			C4.468,23.937,4.487,24.14,4.6,24.291l1.371,1.829l-0.465,2.789c-0.033,0.196,0.055,0.394,0.222,0.502
			c0.168,0.108,0.383,0.108,0.549-0.004l2.696-1.797l2.214,1.772c0.091,0.072,0.202,0.109,0.313,0.109
			c0.087,0,0.175-0.022,0.254-0.067c0.178-0.105,0.274-0.309,0.24-0.513l-0.458-2.747l1.818-1.818
			c0.142-0.143,0.185-0.358,0.108-0.545C13.385,23.614,13.202,23.492,13,23.492z M10.646,25.637
			c-0.115,0.115-0.166,0.277-0.14,0.436l0.285,1.711L9.312,26.6c-0.17-0.136-0.409-0.145-0.59-0.025l-2.04,1.36l0.311-1.862
			C7.015,25.938,6.982,25.8,6.9,25.691l-0.899-1.199H7.5c0.176,0,0.339-0.093,0.429-0.243l0.981-1.636l0.626,1.564
			c0.075,0.189,0.26,0.314,0.464,0.314h1.792L10.646,25.637z M25.999,23.491h-2.717l-1.354-2.257c-0.179-0.301-0.677-0.301-0.857,0
			l-1.354,2.257H17c-0.212,0-0.401,0.135-0.471,0.335c-0.07,0.2-0.007,0.423,0.159,0.556l2.271,1.816l-0.452,2.711
			c-0.034,0.204,0.061,0.408,0.24,0.513c0.177,0.105,0.403,0.088,0.565-0.041l2.188-1.75l2.187,1.751
			c0.091,0.072,0.202,0.109,0.313,0.109c0.087,0,0.175-0.022,0.253-0.07c0.178-0.105,0.274-0.309,0.24-0.513l-0.452-2.711
			l2.271-1.816c0.166-0.133,0.23-0.356,0.159-0.556S26.211,23.491,25.999,23.491z M23.188,25.6
			c-0.142,0.114-0.211,0.294-0.181,0.473l0.285,1.711L21.813,26.6c-0.092-0.072-0.203-0.109-0.313-0.109s-0.221,0.037-0.312,0.11
			l-1.479,1.184l0.285-1.711c0.03-0.179-0.039-0.36-0.181-0.473l-1.387-1.109H20c0.176,0,0.339-0.093,0.429-0.243l1.071-1.786
			l1.071,1.785c0.09,0.151,0.253,0.243,0.429,0.243h1.575L23.188,25.6z"/>
	</g>
</g>
</svg>
