<?xml version="1.0" encoding="iso-8859-1"?>
<!-- Generator: Adobe Illustrator 19.0.0, SVG Export Plug-In . SVG Version: 6.00 Build 0)  -->
<svg version="1.1" id="Layer_1" xmlns="http://www.w3.org/2000/svg" xmlns:xlink="http://www.w3.org/1999/xlink" x="0px" y="0px"
	 viewBox="0 0 30 30" style="enable-background:new 0 0 30 30;" xml:space="preserve">
<g>
	<g>
		<path d="M28.324,13.12C29.03,12.677,29.5,11.893,29.5,11c0-1.072-0.679-1.989-1.629-2.344C28.262,8.215,28.5,7.635,28.5,7
			c0-0.997-0.586-1.859-1.432-2.26C27.338,4.399,27.5,3.968,27.5,3.5c0-1.103-0.897-2-2-2H13c-0.951,0-2.476,0.773-3.503,1.473
			C9.483,1.608,8.369,0.5,7,0.5H3C1.622,0.5,0.5,1.622,0.5,3v11c0,1.378,1.122,2.5,2.5,2.5h6c0.276,0,0.5-0.224,0.5-0.5v-0.45
			l0.608,0.311l3.392,8.238V28.5c0,0.199,0.118,0.379,0.3,0.458c0.052,0.023,1.262,0.542,2.417,0.542c1.322,0,3.283-1.89,3.283-4.5
			c0-1.855-0.616-5.144-0.887-6.5H26.5c1.654,0,3-1.346,3-3C29.5,14.531,29.039,13.668,28.324,13.12z M8.5,15.5H3
			c-0.827,0-1.5-0.673-1.5-1.5V3c0-0.827,0.673-1.5,1.5-1.5h4c0.827,0,1.5,0.673,1.5,1.5V15.5z M26.5,17.5H18
			c-0.151,0-0.293,0.068-0.388,0.186c-0.095,0.117-0.132,0.271-0.101,0.418C17.521,18.15,18.5,22.777,18.5,25
			c0,2.022-1.501,3.5-2.283,3.5c-0.638,0-1.332-0.208-1.717-0.344V24c0-0.065-0.013-0.13-0.037-0.191l-3.5-8.5
			c-0.046-0.11-0.129-0.201-0.235-0.255l-0.978-0.5c-0.08-0.041-0.166-0.05-0.25-0.046V4.225C10.27,3.548,12.157,2.5,13,2.5h12.5
			c0.551,0,1,0.449,1,1c0,0.551-0.449,1-1,1C25.224,4.5,25,4.724,25,5s0.224,0.5,0.5,0.5H26c0.827,0,1.5,0.673,1.5,1.5
			c0,0.827-0.673,1.5-1.5,1.5c-0.276,0-0.5,0.224-0.5,0.5s0.224,0.5,0.5,0.5h1c0.827,0,1.5,0.673,1.5,1.5c0,0.827-0.673,1.5-1.5,1.5
			h-0.5c-0.276,0-0.5,0.224-0.5,0.5s0.224,0.5,0.5,0.5c1.103,0,2,0.897,2,2C28.5,16.603,27.603,17.5,26.5,17.5z"/>
	</g>
</g>
</svg>
