<?xml version="1.0" encoding="iso-8859-1"?>
<!-- Generator: Adobe Illustrator 19.0.0, SVG Export Plug-In . SVG Version: 6.00 Build 0)  -->
<svg version="1.1" id="Layer_1" xmlns="http://www.w3.org/2000/svg" xmlns:xlink="http://www.w3.org/1999/xlink" x="0px" y="0px"
	 viewBox="0 0 30 30" style="enable-background:new 0 0 30 30;" xml:space="preserve">
<g>
	<g>
		<path d="M21,20h-2.538c-0.068-0.537-0.222-1.229-0.392-2.002c-0.262-1.181-0.554-2.51-0.566-3.437
			c2.906-1.034,4.996-3.804,4.997-7.062c0-1.221-0.378-2.552-1.066-3.749c-0.022-0.038-0.053-0.064-0.082-0.093
			C21.439,3.256,21.5,2.865,21.5,2.5c0-0.167-0.084-0.323-0.223-0.416l-3-2c-0.155-0.102-0.351-0.112-0.514-0.025
			c-0.097,0.052-0.162,0.138-0.207,0.235C16.738,0.036,15.903,0,15,0c-4.136,0-7.5,3.364-7.5,7.5c0,0.94,0.033,1.756,0.288,2.554
			c-0.081,0.039-0.154,0.094-0.205,0.171c-0.093,0.14-0.108,0.318-0.043,0.472l1.5,3.5C9.118,14.381,9.299,14.5,9.5,14.5
			c0.773,0,1.582-0.184,2.4-0.485c0.213,0.119,0.421,0.235,0.629,0.342C12.514,14.403,12.5,14.449,12.5,14.5
			c0,0.929-0.302,2.294-0.57,3.498c-0.172,0.772-0.325,1.465-0.392,2.002H9c-0.173,0-0.335,0.089-0.425,0.236
			c-0.09,0.147-0.099,0.331-0.023,0.486c0.072,0.144,1.506,2.956,4.405,3.938c-1.761,1.031-3.265,2.921-3.351,3.031
			C9.536,27.779,9.5,27.888,9.5,28v1.5c0,0.276,0.224,0.5,0.5,0.5h10c0.276,0,0.5-0.224,0.5-0.5V28c0-0.112-0.037-0.221-0.106-0.309
			c-0.086-0.109-1.59-2-3.351-3.031c2.899-0.982,4.333-3.794,4.405-3.938c0.077-0.155,0.068-0.339-0.023-0.486
			C21.333,20.089,21.172,20,21,20z M21.5,7.499c0,3.584-2.916,6.5-6.5,6.5c-0.783,0-1.332-0.19-1.938-0.495
			c3.351-1.711,6.608-5.342,7.875-8.513C21.301,5.825,21.5,6.693,21.5,7.499z M17.451,20h-4.904c0.07-0.479,0.209-1.116,0.358-1.786
			c0.258-1.16,0.536-2.451,0.578-3.462C13.931,14.899,14.413,15,15,15c0.521,0,1.03-0.054,1.522-0.156
			c0.055,0.997,0.322,2.244,0.572,3.37C17.242,18.884,17.382,19.521,17.451,20z M15,1c0.903,0,1.672,0.039,2.403,0.305
			c-0.666,3.251-5.005,7.962-8.596,8.616C8.54,9.205,8.5,8.449,8.5,7.5C8.5,3.916,11.417,1,15,1z M9.823,13.489l-1.088-2.541
			c4.161-0.576,8.985-5.798,9.679-9.57l2.075,1.384C20.221,6.601,14.232,13.174,9.823,13.489z M19.5,28.176V29h-9v-0.824
			C11.315,27.178,13.424,25,15,25C16.571,25,18.683,27.178,19.5,28.176z M15,24c-2.632,0-4.346-1.917-5.104-3h10.208
			C19.346,22.083,17.632,24,15,24z"/>
	</g>
</g>
</svg>
