<?xml version="1.0" encoding="iso-8859-1"?>
<!-- Generator: Adobe Illustrator 19.0.0, SVG Export Plug-In . SVG Version: 6.00 Build 0)  -->
<svg version="1.1" id="Layer_1" xmlns="http://www.w3.org/2000/svg" xmlns:xlink="http://www.w3.org/1999/xlink" x="0px" y="0px"
	 viewBox="0 0 30 30" style="enable-background:new 0 0 30 30;" xml:space="preserve">
<g>
	<g>
		<path d="M22.547,20.002l-5.208-0.473l-1.881-4.232c-0.161-0.361-0.753-0.361-0.914,0l-1.881,4.232l-5.208,0.473
			c-0.199,0.018-0.367,0.153-0.43,0.342c-0.062,0.19-0.006,0.398,0.143,0.53l4.262,3.788l-1.409,4.695
			c-0.058,0.195,0.007,0.406,0.166,0.533c0.159,0.127,0.379,0.147,0.556,0.047L15,27.572l4.257,2.365
			C19.333,29.979,19.417,30,19.5,30c0.112,0,0.223-0.038,0.315-0.11c0.159-0.127,0.225-0.338,0.166-0.533l-1.409-4.695l4.262-3.788
			c0.149-0.133,0.205-0.341,0.143-0.53C22.914,20.154,22.745,20.02,22.547,20.002z M17.669,24.127
			c-0.146,0.129-0.203,0.331-0.147,0.517l1.146,3.822l-3.425-1.903C15.167,26.521,15.083,26.5,15,26.5
			c-0.083,0-0.167,0.021-0.242,0.063l-3.425,1.903l1.146-3.822c0.056-0.186-0.001-0.388-0.147-0.517l-3.637-3.233l4.35-0.396
			c0.181-0.017,0.338-0.129,0.412-0.295L15,16.731l1.544,3.472c0.074,0.166,0.232,0.278,0.412,0.295l4.35,0.396L17.669,24.127z
			 M23.962,8.81l-3.5-8.5C20.385,0.122,20.203,0,20,0h-4.5c-0.002,0-0.004,0-0.005,0H9.5C9.494,0,9.489,0.005,9.482,0.005
			c-0.006,0-0.011-0.004-0.018-0.004C9.436,0.003,9.415,0.024,9.388,0.03C9.331,0.044,9.277,0.058,9.229,0.09
			C9.196,0.112,9.174,0.141,9.147,0.17C9.122,0.196,9.09,0.213,9.071,0.244C9.062,0.26,9.065,0.278,9.057,0.294
			C9.05,0.309,9.034,0.317,9.028,0.333l-3,8.5C5.951,9.052,6.034,9.295,6.229,9.42l7,4.5C13.311,13.973,13.405,14,13.5,14
			c0.038,0,0.076-0.004,0.114-0.014c0.132-0.03,0.246-0.113,0.315-0.229l1.129-1.881l1.002,1.861
			c0.066,0.123,0.18,0.212,0.315,0.247C16.416,13.995,16.458,14,16.5,14c0.095,0,0.189-0.027,0.27-0.079l7-4.5
			C23.973,9.29,24.054,9.033,23.962,8.81z M13.336,12.8L7.103,8.793l2.486-7.045l4.837,9.235L13.336,12.8z M16.684,12.787L10.337,1
			h4.834l4.287,10.004L16.684,12.787z M20.311,10.456L16.259,1h3.407l3.214,7.805L20.311,10.456z"/>
	</g>
</g>
</svg>
