<?xml version="1.0" encoding="iso-8859-1"?>
<!-- Generator: Adobe Illustrator 19.0.0, SVG Export Plug-In . SVG Version: 6.00 Build 0)  -->
<svg version="1.1" id="Layer_1" xmlns="http://www.w3.org/2000/svg" xmlns:xlink="http://www.w3.org/1999/xlink" x="0px" y="0px"
	 viewBox="0 0 30 30" style="enable-background:new 0 0 30 30;" xml:space="preserve">
<g>
	<g>
		<path d="M27.634,3.518l-12.5-3.5c-0.088-0.024-0.182-0.024-0.27,0l-12.5,3.5C2.148,3.578,1.999,3.776,1.999,4v14.152
			c0,5.507,8.369,10.419,12.851,11.825C14.898,29.992,14.948,30,14.999,30c0.051,0,0.101-0.008,0.149-0.023
			c4.482-1.407,12.851-6.319,12.851-11.825V4C27.999,3.776,27.85,3.579,27.634,3.518z M26.999,18.151c0,4.499-7.041,9.217-12,10.823
			c-4.959-1.606-12-6.324-12-10.823v-3.773l12-3.36l12,3.36V18.151z M26.999,13.339l-11.864-3.322c-0.088-0.024-0.182-0.024-0.27,0
			L2.999,13.34V9.378l12-3.36l12,3.36V13.339z M26.999,8.339L15.135,5.018c-0.088-0.024-0.182-0.024-0.27,0L2.999,8.34V4.378
			l12-3.36l12,3.36V8.339z"/>
	</g>
</g>
</svg>
