<?xml version="1.0" encoding="iso-8859-1"?>
<!-- Generator: Adobe Illustrator 19.0.0, SVG Export Plug-In . SVG Version: 6.00 Build 0)  -->
<svg version="1.1" id="Layer_1" xmlns="http://www.w3.org/2000/svg" xmlns:xlink="http://www.w3.org/1999/xlink" x="0px" y="0px"
	 viewBox="0 0 30 30" style="enable-background:new 0 0 30 30;" xml:space="preserve">
<g>
	<g>
		<path d="M24.441,0H5.559C3.874,0,2.503,1.355,2.503,3.022V29.5c0,0.18,0.096,0.345,0.251,0.434C2.831,29.978,2.917,30,3.003,30
			c0.087,0,0.174-0.023,0.252-0.068l11.741-6.853l11.749,6.854c0.156,0.089,0.347,0.091,0.501,0.001
			c0.155-0.09,0.251-0.255,0.251-0.434V3.022C27.497,1.355,26.126,0,24.441,0z M26.496,28.629l-11.248-6.561
			C15.17,22.022,15.083,22,14.996,22c-0.087,0-0.174,0.023-0.253,0.068L3.502,28.629V3.022C3.502,1.907,4.424,1,5.558,1H24.44
			c1.134,0,2.056,0.907,2.056,2.022V28.629z M25.038,9.502l-5.76-0.48l-3.866-5.799c-0.186-0.278-0.646-0.278-0.832,0l-3.866,5.799
			l-5.76,0.48C4.765,9.518,4.601,9.639,4.531,9.816s-0.034,0.378,0.093,0.519l4.333,4.813l-1.451,7.254
			c-0.038,0.192,0.039,0.389,0.198,0.504c0.159,0.113,0.369,0.125,0.54,0.028l6.742-3.853l6.248,3.845
			c0.08,0.05,0.171,0.074,0.262,0.074c0.101,0,0.2-0.03,0.286-0.091c0.163-0.113,0.243-0.313,0.204-0.508l-1.447-7.237l4.811-4.811
			c0.137-0.137,0.182-0.342,0.116-0.525C25.398,9.645,25.231,9.518,25.038,9.502z M19.643,14.646
			c-0.118,0.119-0.17,0.288-0.137,0.452l1.274,6.375l-5.522-3.398c-0.156-0.095-0.351-0.097-0.51-0.008l-6.046,3.455l1.284-6.423
			c0.031-0.155-0.013-0.316-0.118-0.433l-3.826-4.251l4.996-0.418c0.151-0.013,0.289-0.094,0.374-0.221L14.996,4.4l3.584,5.376
			c0.085,0.127,0.223,0.209,0.374,0.221l4.926,0.411L19.643,14.646z"/>
	</g>
</g>
</svg>
