<?xml version="1.0" encoding="iso-8859-1"?>
<!-- Generator: Adobe Illustrator 19.0.0, SVG Export Plug-In . SVG Version: 6.00 Build 0)  -->
<svg version="1.1" id="Layer_1" xmlns="http://www.w3.org/2000/svg" xmlns:xlink="http://www.w3.org/1999/xlink" x="0px" y="0px"
	 viewBox="0 0 30 30" style="enable-background:new 0 0 30 30;" xml:space="preserve">
<g>
	<g>
		<path d="M15.001,14.489c-0.276,0-0.5,0.224-0.5,0.5v6c0,0.276,0.224,0.5,0.5,0.5s0.5-0.224,0.5-0.5v-6
			C15.501,14.713,15.277,14.489,15.001,14.489z M13.659,14.515c-0.26-0.085-0.544,0.055-0.633,0.316l-1.525,4.577L9.975,14.83
			c-0.088-0.261-0.369-0.402-0.633-0.316c-0.261,0.088-0.403,0.371-0.316,0.633l2,6c0.069,0.204,0.26,0.342,0.475,0.342
			c0.215,0,0.406-0.138,0.474-0.341l2-6C14.062,14.886,13.921,14.603,13.659,14.515z M17.001,14.489c-0.276,0-0.5,0.224-0.5,0.5v6
			c0,0.276,0.224,0.5,0.5,0.5s0.5-0.224,0.5-0.5v-2.5h1.007c0.99,0,1.993-0.516,1.993-1.5v-1c0-0.984-1.006-1.5-2-1.5H17.001z
			 M19.501,15.989v1c0,0.341-0.593,0.5-0.993,0.5h-1.007v-2h1C18.904,15.489,19.501,15.648,19.501,15.989z M29.475,11.834
			c-0.058-0.179-0.211-0.311-0.397-0.34l-9.239-1.459l-4.387-9.261c-0.166-0.35-0.738-0.35-0.904,0l-4.387,9.261l-9.239,1.459
			c-0.185,0.029-0.338,0.161-0.397,0.34c-0.058,0.179-0.011,0.375,0.122,0.508l6.811,6.811l-1.947,9.738
			c-0.037,0.186,0.036,0.379,0.187,0.495c0.152,0.115,0.358,0.136,0.527,0.05l8.776-4.389l8.776,4.389
			c0.072,0.035,0.148,0.053,0.224,0.053c0.107,0,0.215-0.035,0.301-0.103c0.152-0.116,0.224-0.308,0.187-0.495l-1.947-9.738
			l6.811-6.811C29.486,12.209,29.533,12.013,29.475,11.834z M21.648,18.636c-0.118,0.118-0.17,0.288-0.137,0.451l1.8,8.998
			l-8.086-4.043c-0.071-0.035-0.148-0.053-0.224-0.053s-0.153,0.018-0.222,0.053l-8.086,4.043l1.8-8.998
			c0.033-0.163-0.019-0.333-0.137-0.451L2.05,12.33l8.53-1.347c0.163-0.026,0.303-0.131,0.374-0.28l4.048-8.546l4.048,8.546
			c0.071,0.149,0.211,0.254,0.374,0.28l8.53,1.347L21.648,18.636z"/>
	</g>
</g>
</svg>
