<?xml version="1.0" encoding="iso-8859-1"?>
<!-- Generator: Adobe Illustrator 19.0.0, SVG Export Plug-In . SVG Version: 6.00 Build 0)  -->
<svg version="1.1" id="Layer_1" xmlns="http://www.w3.org/2000/svg" xmlns:xlink="http://www.w3.org/1999/xlink" x="0px" y="0px"
	 viewBox="0 0 30 30" style="enable-background:new 0 0 30 30;" xml:space="preserve">
<g>
	<g>
		<path d="M14.5,17.5c0-1.378-1.122-2.5-2.5-2.5s-2.5,1.122-2.5,2.5S10.622,20,12,20S14.5,18.878,14.5,17.5z M10.5,17.5
			c0-0.827,0.673-1.5,1.5-1.5c0.827,0,1.5,0.673,1.5,1.5c0,0.827-0.673,1.5-1.5,1.5C11.174,19,10.5,18.327,10.5,17.5z M19,25h-8
			c-0.276,0-0.5,0.224-0.5,0.5S10.724,26,11,26h8c0.276,0,0.5-0.224,0.5-0.5S19.276,25,19,25z M19,22h-8c-0.276,0-0.5,0.224-0.5,0.5
			S10.724,23,11,23h8c0.276,0,0.5-0.224,0.5-0.5S19.276,22,19,22z M21.428,0H8.571C6.878,0,5.5,1.355,5.5,3.022v23.956
			C5.5,28.645,6.878,30,8.571,30H10c0.276,0,0.5-0.224,0.5-0.5V29h9v0.5c0,0.276,0.224,0.5,0.5,0.5h1.429
			c1.693,0,3.071-1.355,3.07-3.022V3.022C24.5,1.355,23.121,0,21.428,0z M23.5,26.978C23.5,28.093,22.571,29,21.43,29H20.5v-0.5
			c0-0.276-0.224-0.5-0.5-0.5H10c-0.276,0-0.5,0.224-0.5,0.5V29H8.573c-1.142,0-2.071-0.907-2.071-2.022V3.022
			C6.502,1.907,7.43,1,8.573,1H21.43C22.571,1,23.5,1.907,23.5,3.022V26.978z M18,15c-1.378,0-2.5,1.122-2.5,2.5S16.622,20,18,20
			s2.5-1.122,2.5-2.5S19.378,15,18,15z M18,19c-0.827,0-1.5-0.673-1.5-1.5c0-0.827,0.673-1.5,1.5-1.5c0.827,0,1.5,0.673,1.5,1.5
			C19.5,18.327,18.828,19,18,19z M21,3H9C8.724,3,8.5,3.224,8.5,3.5v9C8.5,12.776,8.724,13,9,13h12c0.276,0,0.5-0.224,0.5-0.5v-9
			C21.5,3.224,21.276,3,21,3z M20.5,12h-11v-2h11V12z M20.5,9h-11V7h11V9z M20.5,6h-11V4h11V6z"/>
	</g>
</g>
</svg>
