<?xml version="1.0" encoding="iso-8859-1"?>
<!-- Generator: Adobe Illustrator 19.0.0, SVG Export Plug-In . SVG Version: 6.00 Build 0)  -->
<svg version="1.1" id="Layer_1" xmlns="http://www.w3.org/2000/svg" xmlns:xlink="http://www.w3.org/1999/xlink" x="0px" y="0px"
	 viewBox="0 0 30 30" style="enable-background:new 0 0 30 30;" xml:space="preserve">
<g>
	<g>
		<path d="M3.5,26.999h1c0.276,0,0.5-0.224,0.5-0.5s-0.224-0.5-0.5-0.5h-1c-0.276,0-0.5,0.224-0.5,0.5S3.224,26.999,3.5,26.999z
			 M24.5,12.999c-0.276,0-0.5,0.224-0.5,0.5s0.224,0.5,0.5,0.5c0.276,0,0.5-0.224,0.5-0.5S24.776,12.999,24.5,12.999z M8.5,25.999
			h-1c-0.276,0-0.5,0.224-0.5,0.5s0.224,0.5,0.5,0.5h1c0.276,0,0.5-0.224,0.5-0.5S8.776,25.999,8.5,25.999z M15.5,26.999h11
			c0.276,0,0.5-0.224,0.5-0.5v-2c0-0.276-0.224-0.5-0.5-0.5h-11c-0.276,0-0.5,0.224-0.5,0.5v2C15,26.775,15.224,26.999,15.5,26.999z
			 M16,24.999h10v1H16V24.999z M3.5,24.999h8c0.276,0,0.5-0.224,0.5-0.5s-0.224-0.5-0.5-0.5h-8c-0.276,0-0.5,0.224-0.5,0.5
			S3.224,24.999,3.5,24.999z M30,16.972V3.027C30,1.358,28.642,0,26.973,0H3.028C1.359,0,0.001,1.358,0.001,3.027v13.467
			C0.001,16.496,0,16.498,0,16.499s0.001,0.003,0.001,0.005v0.468c0,1.669,1.358,3.027,3.027,3.027h8.935
			c-0.112,0.723-0.555,1-1.963,1C9.998,20.999,9.997,21,9.995,21H1.797c-0.99,0-1.796,0.805-1.796,1.796v5.407
			c0,0.99,0.805,1.796,1.796,1.796h26.407c0.99,0,1.796-0.806,1.796-1.796v-5.407C30,21.806,29.195,21,28.204,21h-8.199
			c-0.002,0-0.003-0.001-0.005-0.001c-1.407,0-1.85-0.277-1.963-1h8.936C28.642,19.999,30,18.641,30,16.972z M1,3.026
			c0-1.117,0.909-2.027,2.027-2.027h23.945c1.117,0,2.027,0.909,2.027,2.027v12.973H1V3.026z M28.203,21.999
			c0.439,0,0.796,0.357,0.796,0.796v5.407c0,0.439-0.357,0.796-0.796,0.796H1.796C1.357,28.998,1,28.641,1,28.202v-5.407
			c0-0.439,0.357-0.796,0.796-0.796H28.203z M12.652,20.999c0.16-0.261,0.269-0.591,0.318-1h4.06c0.049,0.409,0.158,0.739,0.318,1
			H12.652z M3.027,18.998c-1.107,0-2.009-0.894-2.024-1.999h27.993c-0.015,1.104-0.916,1.999-2.024,1.999H3.027z M11.5,25.999
			c-0.276,0-0.5,0.224-0.5,0.5s0.224,0.5,0.5,0.5c0.276,0,0.5-0.224,0.5-0.5S11.776,25.999,11.5,25.999z"/>
	</g>
</g>
</svg>
