<?xml version="1.0" encoding="iso-8859-1"?>
<!-- Generator: Adobe Illustrator 19.0.0, SVG Export Plug-In . SVG Version: 6.00 Build 0)  -->
<svg version="1.1" id="Layer_1" xmlns="http://www.w3.org/2000/svg" xmlns:xlink="http://www.w3.org/1999/xlink" x="0px" y="0px"
	 viewBox="0 0 30 30" style="enable-background:new 0 0 30 30;" xml:space="preserve">
<g>
	<g>
		<path d="M29.501,21h-1.503V7.5c0-1.378-1.121-2.5-2.5-2.5h-21c-1.379,0-2.5,1.122-2.5,2.5V21H0.499c-0.276,0-0.5,0.224-0.5,0.5v1
			c0,1.378,1.355,2.5,3.021,2.5h23.957c1.666,0,3.021-1.122,3.024-2.5v-1C30.001,21.224,29.777,21,29.501,21z M2.998,7.5
			c0-0.827,0.673-1.5,1.5-1.5h21c0.827,0,1.5,0.673,1.5,1.5V21h-7.497c-0.133,0-0.26,0.052-0.354,0.146L18.293,22h-6.586
			l-0.854-0.854C10.759,21.053,10.632,21,10.499,21H2.998V7.5z M28.997,22.5c0,0.827-0.907,1.5-2.021,1.5H3.019
			c-1.114,0-2.021-0.673-2.021-1.5V22h9.293l0.851,0.854C11.236,22.947,11.363,23,11.496,23h7c0.133,0,0.26-0.052,0.354-0.146
			L19.704,22h9.293V22.5z"/>
	</g>
</g>
</svg>
