<?xml version="1.0" encoding="iso-8859-1"?>
<!-- Generator: Adobe Illustrator 19.0.0, SVG Export Plug-In . SVG Version: 6.00 Build 0)  -->
<svg version="1.1" id="Layer_1" xmlns="http://www.w3.org/2000/svg" xmlns:xlink="http://www.w3.org/1999/xlink" x="0px" y="0px"
	 viewBox="0 0 30 30" style="enable-background:new 0 0 30 30;" xml:space="preserve">
<g>
	<g>
		<path d="M26.477,4.818l-4.363-4.305C21.779,0.182,21.333,0,20.859,0H4.777C3.797,0,3,0.79,3,1.761V6.5C3,6.776,3.224,7,3.5,7H4v3
			H3.5C3.224,10,3,10.224,3,10.5v17.739C3,29.21,3.797,30,4.777,30h20.445c0.98,0,1.777-0.79,1.777-1.761V6.066
			C27,5.601,26.81,5.146,26.477,4.818z M25.998,28.239c0,0.42-0.348,0.761-0.777,0.761H4.776c-0.428,0-0.777-0.342-0.777-0.761V11
			h0.499c0.276,0,0.5-0.224,0.5-0.5v-4c0-0.276-0.224-0.5-0.5-0.5h-0.5V1.761C3.998,1.341,4.346,1,4.775,1h4.224v1.5
			c0,0.276,0.224,0.5,0.5,0.5s0.5-0.224,0.5-0.5V1h1v1.5c0,0.276,0.224,0.5,0.5,0.5s0.5-0.224,0.5-0.5V1h1v1.5
			c0,0.276,0.224,0.5,0.5,0.5s0.5-0.224,0.5-0.5V1h1v1.5c0,0.276,0.224,0.5,0.5,0.5s0.5-0.224,0.5-0.5V1h1v1.5
			c0,0.276,0.224,0.5,0.5,0.5s0.5-0.224,0.5-0.5V1h1v1.5c0,0.276,0.224,0.5,0.5,0.5s0.5-0.224,0.5-0.5V1h0.858
			c0.206,0,0.407,0.082,0.552,0.225l4.363,4.305c0.146,0.144,0.226,0.334,0.226,0.536V28.239z M24.499,13h-19
			c-0.276,0-0.5,0.224-0.5,0.5v14c0,0.276,0.224,0.5,0.5,0.5h19c0.276,0,0.5-0.224,0.5-0.5v-14C24.999,13.224,24.775,13,24.499,13z
			 M23.999,27h-18V14h18V27z"/>
	</g>
</g>
</svg>
