<?xml version="1.0" encoding="iso-8859-1"?>
<!-- Generator: Adobe Illustrator 19.0.0, SVG Export Plug-In . SVG Version: 6.00 Build 0)  -->
<svg version="1.1" id="Layer_1" xmlns="http://www.w3.org/2000/svg" xmlns:xlink="http://www.w3.org/1999/xlink" x="0px" y="0px"
	 viewBox="0 0 30 30" style="enable-background:new 0 0 30 30;" xml:space="preserve">
<g>
	<g>
		<path d="M20.5,5C20.776,5,21,4.776,21,4.5S20.776,4,20.5,4C20.224,4,20,4.224,20,4.5S20.224,5,20.5,5z M12.5,14.5
			c0.276,0,0.5-0.224,0.5-0.5c0-1.103,0.897-2,2-2c0.276,0,0.5-0.224,0.5-0.5S15.276,11,15,11c-1.654,0-3,1.346-3,3
			C12,14.276,12.224,14.5,12.5,14.5z M25.276,23.476C27.58,20.98,29,17.657,29,14c0-7.72-6.28-14-14-14C7.28,0,1,6.28,1,14
			c0,3.657,1.421,6.981,3.725,9.477l-0.661,3.046c-0.176,0.813,0.029,1.659,0.562,2.321C5.217,29.579,6.123,30,7.107,30h15.787
			c0.984,0,1.889-0.421,2.481-1.156c0.534-0.662,0.739-1.508,0.562-2.321L25.276,23.476z M2,14C2,6.832,7.832,1,15,1
			c7.168,0,13,5.832,13,13c0,7.168-5.832,13-13,13C7.832,27,2,21.168,2,14z M24.597,28.216C24.196,28.714,23.575,29,22.894,29H7.107
			c-0.681,0-1.302-0.286-1.703-0.784c-0.347-0.431-0.476-0.957-0.363-1.481l0.525-2.421C8.058,26.595,11.364,28,15,28
			c3.637,0,6.943-1.405,9.435-3.686l0.525,2.421C25.074,27.259,24.945,27.785,24.597,28.216z M15,20c3.309,0,6-2.691,6-6
			s-2.691-6-6-6c-3.309,0-6,2.691-6,6S11.691,20,15,20z M15,9c2.757,0,5,2.243,5,5s-2.243,5-5,5c-2.757,0-5-2.243-5-5S12.243,9,15,9
			z M15,23c4.963,0,9-4.038,9-9c0-4.962-4.037-9-9-9s-9,4.038-9,9C6,18.962,10.037,23,15,23z M15,6c4.411,0,8,3.589,8,8
			s-3.589,8-8,8s-8-3.589-8-8S10.589,6,15,6z"/>
	</g>
</g>
</svg>
