<?xml version="1.0" encoding="iso-8859-1"?>
<!-- Generator: Adobe Illustrator 19.0.0, SVG Export Plug-In . SVG Version: 6.00 Build 0)  -->
<svg version="1.1" id="Layer_1" xmlns="http://www.w3.org/2000/svg" xmlns:xlink="http://www.w3.org/1999/xlink" x="0px" y="0px"
	 viewBox="0 0 30 30" style="enable-background:new 0 0 30 30;" xml:space="preserve">
<g>
	<g>
		<path d="M15.5,18.501c3.032,0,5.5-2.531,5.5-5.643V9.144c0-3.112-2.468-5.643-5.5-5.643h-10C2.468,3.501,0,6.032,0,9.144v3.714
			c0,3.112,2.468,5.643,5.5,5.643H6v3.5c0,0.202,0.122,0.385,0.309,0.462c0.062,0.026,0.127,0.038,0.191,0.038
			c0.13,0,0.258-0.051,0.354-0.146l3.854-3.854H15.5z M24.5,7.501h-2.099c-0.146,0-0.285,0.064-0.381,0.175
			c-0.095,0.112-0.136,0.259-0.113,0.403C21.97,8.469,22,8.817,22,9.143v3.714c0,3.663-2.916,6.643-6.5,6.643h-4.172
			c-0.133,0-0.26,0.053-0.354,0.146l-0.422,0.421c-0.19,0.19-0.196,0.499-0.011,0.696c1.05,1.12,2.456,1.736,3.958,1.736h4.793
			l3.854,3.854c0.096,0.096,0.224,0.146,0.354,0.146c0.064,0,0.13-0.012,0.191-0.038C23.878,26.384,24,26.201,24,25.999v-3.5h0.5
			c3.033,0,5.5-2.531,5.5-5.643v-3.714C30,10.032,27.533,7.501,24.5,7.501z"/>
	</g>
</g>
</svg>
