<?xml version="1.0" encoding="iso-8859-1"?>
<!-- Generator: Adobe Illustrator 19.0.0, SVG Export Plug-In . SVG Version: 6.00 Build 0)  -->
<svg version="1.1" id="Layer_1" xmlns="http://www.w3.org/2000/svg" xmlns:xlink="http://www.w3.org/1999/xlink" x="0px" y="0px"
	 viewBox="0 0 30 30" style="enable-background:new 0 0 30 30;" xml:space="preserve">
<g>
	<g>
		<path d="M18,18.5c1.654,0,3-1.346,3-3v-9c0-1.654-1.346-3-3-3H3c-1.654,0-3,1.346-3,3v9c0,1.654,1.346,3,3,3h0.842l-1.733,2.189
			c-0.144,0.181-0.145,0.435-0.004,0.617C2.202,21.432,2.35,21.5,2.5,21.5c0.068,0,0.138-0.014,0.203-0.043L9.356,18.5H18z M27,8.5
			h-4.5C22.224,8.5,22,8.724,22,9v6.5c0,2.206-1.794,4-4,4h-7.957c-0.126,0-0.246,0.047-0.339,0.132l-0.543,0.5
			C9.059,20.227,9,20.36,9,20.5c0,1.654,1.346,3,3,3h8.644l6.653,2.957c0.065,0.029,0.135,0.043,0.203,0.043h0.011
			c0.274-0.02,0.509-0.221,0.509-0.5c0-0.163-0.077-0.307-0.197-0.398L26.158,23.5H27c1.654,0,3-1.346,3-3v-9
			C30,9.846,28.654,8.5,27,8.5z"/>
	</g>
</g>
</svg>
