<?xml version="1.0" encoding="iso-8859-1"?>
<!-- Generator: Adobe Illustrator 19.0.0, SVG Export Plug-In . SVG Version: 6.00 Build 0)  -->
<svg version="1.1" id="Layer_1" xmlns="http://www.w3.org/2000/svg" xmlns:xlink="http://www.w3.org/1999/xlink" x="0px" y="0px"
	 viewBox="0 0 30 30" style="enable-background:new 0 0 30 30;" xml:space="preserve">
<g>
	<g>
		<path d="M6.009,6.018L6,24h18V9.707L20.293,6L6.009,6.018z M22,15.5c0,0.276-0.224,0.5-0.5,0.5h-1.191l-0.862,1.724
			c-0.095,0.189-0.295,0.299-0.51,0.272c-0.21-0.027-0.381-0.184-0.426-0.391l-1.049-4.894l-1.978,7.91
			c-0.054,0.218-0.247,0.372-0.47,0.379h-0.015c-0.218,0-0.412-0.142-0.477-0.351l-2.013-6.441l-1.031,3.436
			c-0.059,0.196-0.232,0.337-0.436,0.354c-0.205,0.02-0.398-0.091-0.49-0.274L9.691,16H8.5C8.224,16,8,15.776,8,15.5
			S8.224,15,8.5,15H10c0.189,0,0.362,0.107,0.447,0.276l0.436,0.873l1.138-3.792c0.063-0.21,0.256-0.355,0.476-0.356
			c0.193-0.019,0.415,0.141,0.48,0.351l1.969,6.301l2.069-8.273c0.056-0.226,0.278-0.386,0.493-0.379
			c0.233,0.004,0.432,0.168,0.48,0.395l1.202,5.606l0.362-0.725C19.638,15.107,19.811,15,20,15h1.5C21.776,15,22,15.224,22,15.5z
			 M29.5,13c0.276,0,0.5-0.224,0.5-0.5S29.776,12,29.5,12H27V8h2.5C29.776,8,30,7.776,30,7.5S29.776,7,29.5,7H27V5.316
			C27,4.039,25.961,3,24.685,3H23V0.5C23,0.224,22.776,0,22.5,0S22,0.224,22,0.5V3h-4V0.5C18,0.224,17.776,0,17.5,0S17,0.224,17,0.5
			V3h-4V0.5C13,0.224,12.776,0,12.5,0S12,0.224,12,0.5V3H8V0.5C8,0.224,7.776,0,7.5,0S7,0.224,7,0.5V3H5.315
			C4.039,3,3,4.039,3,5.316V7H0.5C0.224,7,0,7.224,0,7.5S0.224,8,0.5,8H3v4H0.5C0.224,12,0,12.224,0,12.5S0.224,13,0.5,13H3v4H0.5
			C0.224,17,0,17.224,0,17.5S0.224,18,0.5,18H3v4H0.5C0.224,22,0,22.224,0,22.5S0.224,23,0.5,23H3v1.684C3,25.961,4.039,27,5.315,27
			H7v2.5C7,29.776,7.224,30,7.5,30S8,29.776,8,29.5V27h4v2.5c0,0.276,0.224,0.5,0.5,0.5s0.5-0.224,0.5-0.5V27h4v2.5
			c0,0.276,0.224,0.5,0.5,0.5s0.5-0.224,0.5-0.5V27h4v2.5c0,0.276,0.224,0.5,0.5,0.5s0.5-0.224,0.5-0.5V27h1.685
			C25.961,27,27,25.961,27,24.684V23h2.5c0.276,0,0.5-0.224,0.5-0.5S29.776,22,29.5,22H27v-4h2.5c0.276,0,0.5-0.224,0.5-0.5
			S29.776,17,29.5,17H27v-4H29.5z M25,24.5c0,0.276-0.224,0.5-0.5,0.5h-19c-0.133,0-0.26-0.053-0.354-0.146S5,24.632,5,24.5
			L5.009,5.519c0-0.276,0.224-0.5,0.499-0.5L20.499,5C20.5,5,20.5,5,20.5,5c0.133,0,0.26,0.053,0.354,0.146l4,4
			C24.947,9.24,25,9.367,25,9.5V24.5z"/>
	</g>
</g>
</svg>
