<?xml version="1.0" encoding="iso-8859-1"?>
<!-- Generator: Adobe Illustrator 19.0.0, SVG Export Plug-In . SVG Version: 6.00 Build 0)  -->
<svg version="1.1" id="Layer_1" xmlns="http://www.w3.org/2000/svg" xmlns:xlink="http://www.w3.org/1999/xlink" x="0px" y="0px"
	 viewBox="0 0 30 30" style="enable-background:new 0 0 30 30;" xml:space="preserve">
<g>
	<g>
		<path d="M27.59,19H2.41C1.081,19,0,20.081,0,21.41v5.18C0,27.919,1.081,29,2.41,29h25.18c1.329,0,2.41-1.081,2.41-2.41v-5.18
			C30,20.081,28.919,19,27.59,19z M8,22c0.551,0,1,0.448,1,1s-0.449,1-1,1c-0.551,0-1-0.448-1-1S7.449,22,8,22z M4,22
			c0.551,0,1,0.448,1,1s-0.449,1-1,1c-0.551,0-1-0.448-1-1S3.449,22,4,22z M26.5,26h-23C3.224,26,3,25.776,3,25.5S3.224,25,3.5,25
			h23c0.276,0,0.5,0.224,0.5,0.5S26.776,26,26.5,26z M2.177,18.023c0.01,0,0.02,0,0.031-0.001C2.221,18.021,2.397,18.002,2.41,18
			l25.244,0.007c0.012,0.001,0.124,0.014,0.137,0.015c0.175,0.011,0.345-0.073,0.445-0.219c0.1-0.146,0.114-0.335,0.038-0.495
			l-2.111-4.442c-0.065-0.135-0.188-0.236-0.335-0.271c-0.146-0.033-0.3-0.002-0.421,0.09C25.139,12.891,24.825,13,24.5,13
			c-3.584,0-6.5-2.916-6.5-6.5C18,6.224,17.776,6,17.5,6H8.621c-0.9,0-1.733,0.519-2.144,1.327c-0.016,0.021-0.03,0.046-0.042,0.07
			l-4.71,9.911c-0.075,0.16-0.061,0.349,0.038,0.495C1.856,17.941,2.011,18.023,2.177,18.023z M29.5,1C29.224,1,29,1.224,29,1.5
			v1.932C27.949,2.183,26.183,1,24.25,1C21.257,1,19,3.364,19,6.5c0,3.032,2.467,5.5,5.5,5.5c0.276,0,0.5-0.224,0.5-0.5
			S24.776,11,24.5,11C22.019,11,20,8.981,20,6.5C20,3.935,21.827,2,24.25,2c2.166,0,4.063,1.908,4.596,3H25.5
			C25.224,5,25,5.224,25,5.5S25.224,6,25.5,6h4C29.776,6,30,5.776,30,5.5v-4C30,1.224,29.776,1,29.5,1z"/>
	</g>
</g>
</svg>
