<?xml version="1.0" encoding="iso-8859-1"?>
<!-- Generator: Adobe Illustrator 19.2.1, SVG Export Plug-In . SVG Version: 6.00 Build 0)  -->
<svg version="1.1" id="Layer_1" xmlns="http://www.w3.org/2000/svg" xmlns:xlink="http://www.w3.org/1999/xlink" x="0px" y="0px"
	 viewBox="0 0 24 24" style="enable-background:new 0 0 24 24;" xml:space="preserve">
<g>
	<g>
		<path d="M12.171,20h-3.68c-0.276,0-0.5-0.224-0.5-0.5v-6c0-0.276,0.224-0.5,0.5-0.5h6.552c1.001-0.63,2.181-1,3.448-1
			c0.624,0,1.249,0.092,1.857,0.273c0.152,0.047,0.315,0.016,0.441-0.078c0.069-0.051,0.122-0.119,0.157-0.195H23.5
			c0.292-0.006,0.511-0.22,0.51-0.5c0-0.181-0.096-0.339-0.24-0.427l-2.78-2.78V0.5c0-0.276-0.224-0.5-0.5-0.5h-4
			c-0.276,0-0.5,0.224-0.5,0.5v2.793L13.197,0.5c-0.643-0.644-1.768-0.645-2.413,0L0.137,11.146
			c-0.143,0.143-0.186,0.358-0.108,0.545C0.106,11.878,0.289,12,0.491,12h2.5v11.5c0,0.276,0.224,0.5,0.5,0.5h10.105
			c0.203,0,0.386-0.123,0.463-0.311c0.077-0.188,0.032-0.404-0.113-0.546C13.052,22.268,12.45,21.182,12.171,20z M16.99,17.5
			c0,0.003,0.015,0.243,1,0.422v-0.874C17.35,17.146,16.99,17.4,16.99,17.5z M18.99,19.078v0.873c0.664-0.102,1-0.371,1-0.451
			C19.99,19.497,19.975,19.257,18.99,19.078z M18.49,13c-3.033,0-5.5,2.467-5.5,5.5s2.467,5.5,5.5,5.5c3.033,0,5.5-2.467,5.5-5.5
			S21.523,13,18.49,13z M18.99,20.971V21.5c0,0.276-0.224,0.5-0.5,0.5s-0.5-0.224-0.5-0.5v-0.528
			c-1.098-0.123-1.908-0.651-1.996-1.346c-0.035-0.274,0.16-0.524,0.434-0.559c0.278-0.033,0.524,0.16,0.559,0.434
			c0.014,0.116,0.382,0.358,1.004,0.453v-1.02c-0.817-0.127-2-0.434-2-1.435c0-0.751,0.831-1.34,2-1.471v-0.529
			c0-0.276,0.224-0.5,0.5-0.5s0.5,0.224,0.5,0.5v0.528c1.098,0.123,1.908,0.651,1.996,1.346c0.035,0.274-0.16,0.524-0.434,0.559
			c-0.272,0.033-0.524-0.16-0.559-0.434c-0.014-0.116-0.382-0.358-1.004-0.453v1.019c0.817,0.128,2,0.435,2,1.435
			C20.99,20.252,20.159,20.839,18.99,20.971z"/>
	</g>
</g>
</svg>
