<?xml version="1.0" encoding="iso-8859-1"?>
<!-- Generator: Adobe Illustrator 19.2.1, SVG Export Plug-In . SVG Version: 6.00 Build 0)  -->
<svg version="1.1" id="Layer_1" xmlns="http://www.w3.org/2000/svg" xmlns:xlink="http://www.w3.org/1999/xlink" x="0px" y="0px"
	 viewBox="0 0 24 24" style="enable-background:new 0 0 24 24;" xml:space="preserve">
<g>
	<g>
		<path d="M6.503,7.208L5.21,8.501l1.293,1.293l1.293-1.293L6.503,7.208z M9.796,6.501L8.503,5.208L7.21,6.501l1.293,1.293
			L9.796,6.501z M7.21,10.501l1.293,1.293l1.293-1.293L8.503,9.208L7.21,10.501z M23.854,19.646L16.208,12l0.646-0.646
			c0.195-0.195,0.195-0.512,0-0.707l-0.396-0.396l0.982-0.982c0.975-0.975,0.975-2.561,0-3.535L13.708,2l1.146-1.146
			c0.143-0.143,0.186-0.358,0.108-0.545C14.885,0.122,14.701,0,14.5,0h-14C0.224,0,0,0.224,0,0.5v14
			c0,0.202,0.122,0.385,0.309,0.462c0.188,0.079,0.401,0.035,0.545-0.108L2,13.708l3.732,3.732c0.944,0.944,2.591,0.944,3.535,0
			l0.982-0.982l0.396,0.396c0.195,0.195,0.512,0.195,0.707,0l0.646-0.646l1,1v1.293c0,0.276,0.224,0.5,0.5,0.5h1.293l2.207,2.207
			v1.293c0,0.276,0.224,0.5,0.5,0.5h1.293l0.854,0.854C19.74,23.947,19.867,24,20,24h3.5c0.276,0,0.5-0.224,0.5-0.5V20
			C24,19.867,23.948,19.74,23.854,19.646z M12.854,8.854l-4,4C8.757,12.951,8.628,13,8.5,13s-0.256-0.049-0.354-0.146
			c-0.814-0.814-1.462-1.462-1.991-1.994c-0.003-0.003-0.006-0.003-0.009-0.006s-0.003-0.006-0.006-0.009
			C5.166,9.864,4.617,9.303,4.326,8.969C4.26,8.945,4.2,8.906,4.146,8.854L4.19,8.81C3.964,8.529,3.987,8.46,4.021,8.35
			c0.03-0.096,0.087-0.178,0.163-0.239l3.963-3.963c0.195-0.195,0.512-0.195,0.707,0l4,4C13.049,8.342,13.049,8.658,12.854,8.854z
			 M21.354,21.354C21.257,21.452,21.128,21.5,21,21.5s-0.256-0.049-0.354-0.146l-7-7c-0.195-0.195-0.195-0.512,0-0.707
			s0.512-0.195,0.707,0l7,7C21.549,20.842,21.549,21.158,21.354,21.354z M9.21,8.501l1.293,1.293l1.293-1.293l-1.293-1.293
			L9.21,8.501z"/>
	</g>
</g>
</svg>
