<?xml version="1.0" encoding="iso-8859-1"?>
<!-- Generator: Adobe Illustrator 19.2.1, SVG Export Plug-In . SVG Version: 6.00 Build 0)  -->
<svg version="1.1" id="Layer_1" xmlns="http://www.w3.org/2000/svg" xmlns:xlink="http://www.w3.org/1999/xlink" x="0px" y="0px"
	 viewBox="0 0 24 24" style="enable-background:new 0 0 24 24;" xml:space="preserve">
<g>
	<g>
		<path d="M23.853,11.146l-2.854-2.854V0.499c0-0.276-0.224-0.5-0.5-0.5h-4c-0.276,0-0.5,0.224-0.5,0.5v2.793l-2.793-2.793
			c-0.644-0.644-1.768-0.645-2.413,0L0.146,11.146c-0.143,0.143-0.186,0.358-0.108,0.545C0.115,11.878,0.298,12,0.5,12H3v11.5
			C3,23.776,3.224,24,3.5,24h17c0.276,0,0.5-0.224,0.5-0.5V12h2.5c0.202,0,0.385-0.122,0.462-0.309
			C24.039,11.504,23.996,11.29,23.853,11.146z M15.999,19.5c0,0.276-0.224,0.5-0.5,0.5h-7c-0.276,0-0.5-0.224-0.5-0.5v-7
			c0-0.276,0.224-0.5,0.5-0.5h7c0.276,0,0.5,0.224,0.5,0.5V19.5z"/>
	</g>
</g>
</svg>
