<?xml version="1.0" encoding="utf-8"?>
<!-- Generator: Adobe Illustrator 19.0.0, SVG Export Plug-In . SVG Version: 6.00 Build 0)  -->
<svg version="1.1" id="Layer_1" xmlns="http://www.w3.org/2000/svg" xmlns:xlink="http://www.w3.org/1999/xlink" x="0px" y="0px"
	 viewBox="-408 286.3 24 24" style="enable-background:new -408 286.3 24 24;" xml:space="preserve">
<g>
	<g>
		<path d="M-393.2,300.4c-0.2-0.2-0.5-0.1-0.7,0.1l-1.1,1.5l-1.1-1.5c-0.2-0.2-0.5-0.3-0.7-0.1c-0.2,0.2-0.3,0.5-0.1,0.7l1.3,1.7
			l-1.3,1.7c-0.2,0.2-0.1,0.5,0.1,0.7c0.1,0.1,0.2,0.1,0.3,0.1c0.2,0,0.3-0.1,0.4-0.2l1.1-1.5l1.1,1.5c0.1,0.1,0.2,0.2,0.4,0.2
			c0.1,0,0.2,0,0.3-0.1c0.2-0.2,0.3-0.5,0.1-0.7l-1.3-1.7l1.3-1.7C-392.9,300.9-393,300.5-393.2,300.4z M-390.3,306.1
			c-0.2-0.1-0.3-0.1-0.5,0c-0.5,0.3-1,0.3-1.5,0c-0.2-0.1-0.3-0.1-0.5,0c-0.7,0.4-1.4,0.2-1.9-0.3c-0.1-0.1-0.2-0.2-0.4-0.2
			s-0.3,0.1-0.4,0.2c-0.5,0.6-1.4,0.7-2,0.2c-0.7-0.5-0.8-1.4-0.3-2.1l0.6-0.8c0.1-0.2,0.1-0.4,0-0.6l-0.6-0.8
			c-0.5-0.7-0.4-1.6,0.3-2.1c0.6-0.5,1.5-0.4,2,0.2c0.1,0.1,0.2,0.2,0.4,0.2c0.1,0,0.3-0.1,0.4-0.2c0.5-0.5,1.3-0.7,1.9-0.3
			c0.2,0.1,0.4,0,0.6,0c0.1,0,0.1-0.1,0.2-0.1c0.4-0.1,0.8-0.1,1.2,0.1c0.2,0.1,0.3,0.1,0.5,0c0.2-0.1,0.3-0.3,0.3-0.4v-12.3
			c0-0.3-0.2-0.5-0.5-0.5h-11c0,0,0,0-0.1,0c0,0,0,0-0.1,0c-0.1,0-0.2,0.1-0.2,0.1l-6,6c-0.1,0.1-0.1,0.1-0.1,0.2c0,0,0,0,0,0.1
			c0,0,0,0,0,0.1v17c0,0.3,0.2,0.5,0.5,0.5h17c0.3,0,0.5-0.2,0.5-0.5v-3.3C-390,306.3-390.1,306.2-390.3,306.1z M-402,292.3h-4.3
			l4.3-4.3V292.3z M-388.3,300.3c-0.2-0.1-0.4,0-0.6,0.2l-1.1,1.5l-1.1-1.5c-0.1-0.2-0.4-0.2-0.6-0.2c-0.2,0.1-0.3,0.3-0.3,0.5v4
			c0,0.3,0.2,0.5,0.5,0.5s0.5-0.2,0.5-0.5v-2.5l0.6,0.8c0.2,0.3,0.6,0.3,0.8,0l0.6-0.8v2.5c0,0.3,0.2,0.5,0.5,0.5s0.5-0.2,0.5-0.5
			v-4C-388,300.6-388.1,300.4-388.3,300.3z M-384.5,304.3h-1.5v-3.5c0-0.3-0.2-0.5-0.5-0.5s-0.5,0.2-0.5,0.5v4
			c0,0.3,0.2,0.5,0.5,0.5h2c0.3,0,0.5-0.2,0.5-0.5S-384.2,304.3-384.5,304.3z"/>
	</g>
</g>
</svg>
