<?xml version="1.0" encoding="utf-8"?>
<!-- Generator: Adobe Illustrator 19.0.0, SVG Export Plug-In . SVG Version: 6.00 Build 0)  -->
<svg version="1.1" id="Layer_1" xmlns="http://www.w3.org/2000/svg" xmlns:xlink="http://www.w3.org/1999/xlink" x="0px" y="0px"
	 viewBox="0 0 30 30" style="enable-background:new 0 0 30 30;" xml:space="preserve">
<g>
	<path d="M14,0.5c-2.5,0-4.5,2-4.5,4.5s2,4.5,4.5,4.5s4.5-2,4.5-4.5S16.5,0.5,14,0.5z M15.9,6.9C15.8,7,15.6,7,15.5,7
		s-0.3,0-0.4-0.1l-1.5-1.5c-0.1-0.1-0.1-0.2-0.1-0.4V3c0-0.3,0.2-0.5,0.5-0.5s0.5,0.2,0.5,0.5v1.8l1.4,1.4
		C16.1,6.3,16.1,6.7,15.9,6.9z"/>
	<path d="M9.2,29.5h11.6c1.5,0,3-0.6,4.1-1.7l2-2c1.1-1.1,1.7-2.5,1.7-4.1c0-1.4-0.5-2.8-1.5-3.9l-4.7-5.1c-0.4-0.4-1.3-0.5-1.8,0
		c-0.5,0.5-0.5,1.3,0,1.8l0.1,0.1c0.2,0.2,0.2,0.5,0,0.7c-0.2,0.2-0.5,0.2-0.7,0l0,0l0,0l0,0c0,0,0,0,0,0l0,0l0,0l0,0l0,0l0,0
		c0,0,0,0,0,0c0,0,0,0,0,0l-1.3-1.3c-0.5-0.5-1.3-0.5-1.8,0c-0.5,0.5-0.5,1.3,0,1.8l1.3,1.3c0.1,0.1,0.1,0.2,0.1,0.4s0,0.3-0.1,0.4
		c-0.2,0.2-0.5,0.2-0.7,0l-2.6-2.6c-0.5-0.5-1.3-0.5-1.8,0c-0.5,0.5-0.5,1.3,0,1.8l2.6,2.6c0.1,0.1,0.1,0.2,0.1,0.4s0,0.3-0.1,0.4
		c-0.2,0.2-0.5,0.2-0.7,0l-6.3-6.3c-0.2-0.2-0.6-0.4-0.9-0.4s-0.7,0.1-0.9,0.4c-0.5,0.5-0.5,1.3,0,1.8l9.4,9.4
		c0.1,0.1,0.2,0.3,0.1,0.5c-0.1,0.2-0.2,0.3-0.4,0.3l-6,1c-0.8,0.1-1.4,0.8-1.4,1.6C8.5,29.2,8.8,29.5,9.2,29.5z"/>
	<g>
		<path d="M4.9,19.1c-0.1,0-0.1,0-0.2,0c-2-0.9-3.2-2.9-3.2-5C1.5,11,4,8.5,7,8.5c2.2,0,4.1,1.3,5,3.2c0.1,0.3,0,0.5-0.3,0.7
			c-0.3,0.1-0.5,0-0.7-0.3C10.4,10.5,8.7,9.5,7,9.5c-2.5,0-4.5,2-4.5,4.5c0,1.8,1,3.4,2.7,4.1c0.3,0.1,0.4,0.4,0.3,0.7
			C5.3,18.9,5.1,19.1,4.9,19.1z"/>
	</g>
</g>
</svg>
