<?xml version="1.0" encoding="utf-8"?>
<!-- Generator: Adobe Illustrator 19.0.0, SVG Export Plug-In . SVG Version: 6.00 Build 0)  -->
<svg version="1.1" id="Layer_1" xmlns="http://www.w3.org/2000/svg" xmlns:xlink="http://www.w3.org/1999/xlink" x="0px" y="0px"
	 viewBox="0 0 30 30" style="enable-background:new 0 0 30 30;" xml:space="preserve">
<g>
	<g>
		<path d="M21.8,7.2c-0.1,0-0.3,0-0.4-0.1C16,1.7,7.2,1.7,1.8,7.1c-0.2,0.2-0.5,0.2-0.7,0s-0.2-0.5,0-0.7c5.8-5.8,15.2-5.8,21,0
			c0.2,0.2,0.2,0.5,0,0.7C22,7.2,21.9,7.2,21.8,7.2z"/>
	</g>
	<g>
		<path d="M4.7,8H1C0.7,8,0.5,7.8,0.5,7.5V3.7c0-0.3,0.2-0.5,0.5-0.5s0.5,0.2,0.5,0.5V7h3.3C5,7,5.2,7.2,5.2,7.5S5,8,4.7,8z"/>
	</g>
	<path d="M10.2,28h11.6c1.5,0,3-0.6,4.1-1.7l2-2c1.1-1.1,1.7-2.5,1.7-4.1c0-1.4-0.5-2.8-1.5-3.9l-4.7-5.1c-0.4-0.4-1.3-0.5-1.8,0
		c-0.5,0.5-0.5,1.3,0,1.8l0.1,0.1c0.2,0.2,0.2,0.5,0,0.7c-0.2,0.2-0.5,0.2-0.7,0l0,0l0,0c0,0,0,0,0,0s0,0,0,0l0,0l0,0l0,0l0,0l0,0
		c0,0,0,0,0,0c0,0,0,0,0,0l-1.3-1.3c-0.5-0.5-1.3-0.5-1.8,0c-0.5,0.5-0.5,1.3,0,1.8l1.3,1.3c0.1,0.1,0.1,0.2,0.1,0.4s0,0.3-0.1,0.4
		c-0.2,0.2-0.5,0.2-0.7,0l-2.6-2.6c-0.5-0.5-1.3-0.5-1.8,0c-0.5,0.5-0.5,1.3,0,1.8l2.6,2.6c0.1,0.1,0.1,0.2,0.1,0.4s0,0.3-0.1,0.4
		c-0.2,0.2-0.5,0.2-0.7,0l-6.3-6.3c-0.2-0.2-0.6-0.4-0.9-0.4s-0.7,0.1-0.9,0.4c-0.5,0.5-0.5,1.3,0,1.8l9.4,9.4
		c0.1,0.1,0.2,0.3,0.1,0.5c-0.1,0.2-0.2,0.3-0.4,0.3l-6,1c-0.8,0.1-1.4,0.8-1.4,1.6C9.5,27.7,9.8,28,10.2,28z"/>
</g>
</svg>
