<?xml version="1.0" encoding="utf-8"?>
<!-- Generator: Adobe Illustrator 19.0.0, SVG Export Plug-In . SVG Version: 6.00 Build 0)  -->
<svg version="1.1" id="Layer_1" xmlns="http://www.w3.org/2000/svg" xmlns:xlink="http://www.w3.org/1999/xlink" x="0px" y="0px"
	 viewBox="0 0 30 30" style="enable-background:new 0 0 30 30;" xml:space="preserve">
<g>
	<g>
		<path d="M15.6,18.7c-0.1,0-0.2,0-0.3-0.1c-0.2-0.2-0.3-0.5-0.1-0.7l4.9-7.4l-0.7-3c-0.2-0.9-1-1.5-1.9-1.5C17.2,6,17,5.8,17,5.5
			S17.2,5,17.5,5c1.3,0,2.5,0.9,2.8,2.2l0.8,3.2c0,0.1,0,0.3-0.1,0.4l-5,7.6C16,18.6,15.8,18.7,15.6,18.7z"/>
	</g>
	<g>
		<path d="M13.7,18.7c-0.2,0-0.4-0.1-0.5-0.3L9,7.7C8.9,7.4,9.1,7.1,9.3,7c0.3-0.1,0.5,0,0.6,0.3L14.2,18c0.1,0.3,0,0.5-0.3,0.6
			C13.9,18.7,13.8,18.7,13.7,18.7z"/>
	</g>
	<g>
		<path d="M11.5,8h-3C8.2,8,8,7.8,8,7.5S8.2,7,8.5,7h3C11.8,7,12,7.2,12,7.5S11.8,8,11.5,8z"/>
	</g>
	<g>
		<path d="M24,19.5c-0.2,0-0.4-0.1-0.5-0.3l-3.3-8.4c-0.1-0.3,0-0.5,0.3-0.6c0.3-0.1,0.5,0,0.6,0.3l3.3,8.4c0.1,0.3,0,0.5-0.3,0.6
			C24.1,19.5,24.1,19.5,24,19.5z"/>
	</g>
	<g>
		<path d="M6,20c-0.2,0-0.4-0.1-0.5-0.3l-3.5-9c-0.1-0.3,0-0.5,0.3-0.6c0.3-0.1,0.5,0,0.6,0.3l2.8,7.1l0.8-7c0-0.3,0.3-0.5,0.6-0.4
			c0.3,0,0.5,0.3,0.4,0.6l-1,9C6.5,19.8,6.3,20,6,20C6,20,6,20,6,20z"/>
	</g>
	<g>
		<path d="M10.5,11h-9C1.2,11,1,10.8,1,10.5S1.2,10,1.5,10h9c0.3,0,0.5,0.2,0.5,0.5S10.8,11,10.5,11z"/>
	</g>
	<g>
		<path d="M24,25c-3.3,0-6-2.7-6-6s2.7-6,6-6s6,2.7,6,6S27.3,25,24,25z M24,14c-2.8,0-5,2.2-5,5s2.2,5,5,5s5-2.2,5-5S26.8,14,24,14z
			"/>
	</g>
	<g>
		<path d="M6,25c-3.3,0-6-2.7-6-6s2.7-6,6-6c3.2,0,5.9,2.6,6,5.9c0,0.3-0.2,0.5-0.4,0.5l-2.4,0.3l2.2,0.5c0.1,0,0.3,0.1,0.3,0.2
			s0.1,0.3,0,0.4C10.9,23.3,8.6,25,6,25z M6,14c-2.8,0-5,2.2-5,5s2.2,5,5,5c2,0,3.8-1.2,4.6-3l-4.7-1c-0.2-0.1-0.4-0.3-0.4-0.5
			S5.7,19,5.9,19l5-0.5C10.7,16,8.6,14,6,14z"/>
	</g>
	<g>
		<path d="M15.2,22c-0.2,0-0.5-0.1-0.7-0.2L5.9,20c-0.2-0.1-0.4-0.3-0.4-0.5S5.7,19,5.9,19l9.2-1c0,0,0,0,0.1,0c1,0,1.8,0.9,1.8,2
			S16.2,22,15.2,22z M9.1,19.7l5.6,1.2c0,0,0.1,0,0.1,0c0.6,0.3,1.2-0.2,1.2-0.9c0-0.5-0.4-1-0.8-1L9.1,19.7z"/>
	</g>
</g>
</svg>
