<?xml version="1.0" encoding="utf-8"?>
<!-- Generator: Adobe Illustrator 19.0.0, SVG Export Plug-In . SVG Version: 6.00 Build 0)  -->
<svg version="1.1" id="Layer_1" xmlns="http://www.w3.org/2000/svg" xmlns:xlink="http://www.w3.org/1999/xlink" x="0px" y="0px"
	 viewBox="0 0 30 30" style="enable-background:new 0 0 30 30;" xml:space="preserve">
<g>
	<g>
		<path d="M23.7,27H6.3c-0.8,0-1.5-0.3-2-0.9c-0.6-0.6-0.9-1.4-0.8-2.2L4.4,4c0.1-2.3,1.9-4,4-4h13.2c2.1,0,3.9,1.8,4,4l0.9,19.9
			c0,0.8-0.3,1.7-0.8,2.2C25.1,26.7,24.4,27,23.7,27z M8.4,1c-1.6,0-2.9,1.3-3,3.1L4.5,23.9c0,0.6,0.2,1.1,0.6,1.5
			C5.4,25.8,5.9,26,6.3,26h17.3c0.5,0,0.9-0.2,1.3-0.6c0.4-0.4,0.6-0.9,0.6-1.5L24.6,4.1c-0.1-1.7-1.4-3.1-3-3.1H8.4z"/>
	</g>
	<g>
		<path d="M4.5,11H2.4c-1,0-1.9-0.8-1.9-1.8V8c0-1.7,1.5-3,3.3-3h0.7C4.8,5,5,5.2,5,5.5S4.8,6,4.5,6H3.8C2.5,6,1.5,6.9,1.5,8v1.3
			c0,0.4,0.4,0.8,0.9,0.8h2.1C4.8,10,5,10.2,5,10.5S4.8,11,4.5,11z"/>
	</g>
	<g>
		<path d="M27.6,11h-2.1c-0.3,0-0.5-0.2-0.5-0.5s0.2-0.5,0.5-0.5h2.1c0.5,0,0.9-0.3,0.9-0.8V8c0-1.1-1-2-2.3-2h-0.7
			C25.2,6,25,5.8,25,5.5S25.2,5,25.5,5h0.7c1.8,0,3.3,1.3,3.3,3v1.3C29.5,10.2,28.6,11,27.6,11z"/>
	</g>
	<g>
		<path d="M15,17c-4.2,0-8.5-1-8.5-3L6.9,3.7C7,2.7,7.7,2,8.6,2h12.9c0.9,0,1.6,0.7,1.6,1.7v0l0.4,10.2C23.5,16,19.2,17,15,17z
			 M8.6,3C8.2,3,7.9,3.3,7.9,3.7L7.5,14c0,0.8,2.9,2,7.5,2s7.5-1.2,7.5-2L22.1,3.7c0-0.4-0.3-0.7-0.6-0.7H8.6z"/>
	</g>
	<g>
		<path d="M8.5,24c-1.1,0-2-0.9-2-2s0.9-2,2-2s2,0.9,2,2S9.6,24,8.5,24z M8.5,21c-0.6,0-1,0.4-1,1s0.4,1,1,1s1-0.4,1-1
			S9.1,21,8.5,21z"/>
	</g>
	<g>
		<path d="M21.5,24c-1.1,0-2-0.9-2-2s0.9-2,2-2s2,0.9,2,2S22.6,24,21.5,24z M21.5,21c-0.6,0-1,0.4-1,1s0.4,1,1,1s1-0.4,1-1
			S22.1,21,21.5,21z"/>
	</g>
	<g>
		<path d="M9.8,30H7.3c-1,0-1.8-0.9-1.8-2v-1.5C5.5,26.2,5.7,26,6,26s0.5,0.2,0.5,0.5V28c0,0.5,0.3,1,0.8,1h2.5c0.4,0,0.8-0.5,0.8-1
			v-1.5c0-0.3,0.2-0.5,0.5-0.5s0.5,0.2,0.5,0.5V28C11.5,29.1,10.7,30,9.8,30z"/>
	</g>
	<g>
		<path d="M22.8,30h-2.5c-1,0-1.8-0.9-1.8-2v-1.5c0-0.3,0.2-0.5,0.5-0.5s0.5,0.2,0.5,0.5V28c0,0.5,0.3,1,0.8,1h2.5
			c0.4,0,0.8-0.5,0.8-1v-1.5c0-0.3,0.2-0.5,0.5-0.5s0.5,0.2,0.5,0.5V28C24.5,29.1,23.7,30,22.8,30z"/>
	</g>
	<g>
		<path d="M18,19h-6c-0.3,0-0.5-0.2-0.5-0.5S11.7,18,12,18h6c0.3,0,0.5,0.2,0.5,0.5S18.3,19,18,19z"/>
	</g>
	<g>
		<path d="M18,22h-6c-0.3,0-0.5-0.2-0.5-0.5S11.7,21,12,21h6c0.3,0,0.5,0.2,0.5,0.5S18.3,22,18,22z"/>
	</g>
	<g>
		<path d="M18,25h-6c-0.3,0-0.5-0.2-0.5-0.5S11.7,24,12,24h6c0.3,0,0.5,0.2,0.5,0.5S18.3,25,18,25z"/>
	</g>
</g>
</svg>
