<?xml version="1.0" encoding="utf-8"?>
<!-- Generator: Adobe Illustrator 19.0.0, SVG Export Plug-In . SVG Version: 6.00 Build 0)  -->
<svg version="1.1" id="Layer_1" xmlns="http://www.w3.org/2000/svg" xmlns:xlink="http://www.w3.org/1999/xlink" x="0px" y="0px"
	 viewBox="0 0 30 30" style="enable-background:new 0 0 30 30;" xml:space="preserve">
<g>
	<g>
		<path d="M19.5,13.5h-6c-0.3,0-0.5-0.2-0.5-0.5v-2c0-0.3,0.2-0.5,0.5-0.5S14,10.7,14,11v1.5h5.5c0.3,0,0.5,0.2,0.5,0.5
			S19.8,13.5,19.5,13.5z"/>
	</g>
	<g>
		<path d="M20.5,20.5h-12C8.2,20.5,8,20.3,8,20s0.2-0.5,0.5-0.5h12c0.3,0,0.5,0.2,0.5,0.5S20.8,20.5,20.5,20.5z"/>
	</g>
	<g>
		<path d="M2.5,20.5c-0.4,0-0.7-0.2-1.1-0.5C0.3,18.9,0,15.7,0,15c0-1.9,0.7-3.4,2.1-4.7l-1-1C1,9.2,1,9,1,8.8
			c0.1-0.2,0.3-0.3,0.5-0.3h3.4c2.4-1,5.1-1,6.9-1c6.5,0,11,3.3,11.8,4c4.5,0.1,6.3,2.9,6.3,4.1v3.1c0,1.1-1.2,1.8-1.8,1.8h-1.7
			c-0.3,0-0.5-0.2-0.5-0.5s0.2-0.5,0.5-0.5h1.7c0.2,0,0.8-0.3,0.8-0.8v-3.1c0-0.6-1.4-3.1-5.5-3.1c-0.1,0-0.2,0-0.3-0.1
			c0,0-4.6-3.9-11.3-3.9c-1.7,0-4.4,0-6.7,1c-0.1,0-0.1,0-0.2,0H2.7L3.2,10c0.1,0.1,0.2,0.2,0.1,0.4s-0.1,0.3-0.2,0.4
			C1.7,11.9,1,13.3,1,15c0,0.9,0.3,3.5,1.1,4.3c0.2,0.2,0.3,0.2,0.4,0.2C2.8,19.5,3,19.7,3,20C3,20.3,2.8,20.5,2.5,20.5
			C2.5,20.5,2.5,20.5,2.5,20.5z"/>
	</g>
	<g>
		<path d="M23.5,22.5c-1.9,0-3.5-1.6-3.5-3.5s1.6-3.5,3.5-3.5S27,17.1,27,19S25.4,22.5,23.5,22.5z M23.5,16.5
			c-1.4,0-2.5,1.1-2.5,2.5s1.1,2.5,2.5,2.5S26,20.4,26,19S24.9,16.5,23.5,16.5z"/>
	</g>
	<g>
		<path d="M5.5,22.5C3.6,22.5,2,20.9,2,19s1.6-3.5,3.5-3.5S9,17.1,9,19S7.4,22.5,5.5,22.5z M5.5,16.5C4.1,16.5,3,17.6,3,19
			s1.1,2.5,2.5,2.5S8,20.4,8,19S6.9,16.5,5.5,16.5z"/>
	</g>
</g>
</svg>
