<?xml version="1.0" encoding="utf-8"?>
<!-- Generator: Adobe Illustrator 19.0.0, SVG Export Plug-In . SVG Version: 6.00 Build 0)  -->
<svg version="1.1" id="Layer_1" xmlns="http://www.w3.org/2000/svg" xmlns:xlink="http://www.w3.org/1999/xlink" x="0px" y="0px"
	 viewBox="0 0 30 30" style="enable-background:new 0 0 30 30;" xml:space="preserve">
<g>
	<g>
		<path d="M29.5,15.5h-3c-0.3,0-0.5-0.2-0.5-0.5s0.2-0.5,0.5-0.5h3c0.3,0,0.5,0.2,0.5,0.5S29.8,15.5,29.5,15.5z"/>
	</g>
	<g>
		<path d="M20.7,16.8c-0.2,0-0.3-0.1-0.4-0.2c-0.2-0.2-0.1-0.5,0.1-0.7c0.4-0.3,0.9-0.7,1-0.9c-0.1-0.2-0.6-0.6-1-0.9
			c-0.2-0.2-0.3-0.5-0.1-0.7c0.2-0.2,0.5-0.3,0.7-0.1c1,0.7,1.5,1.2,1.5,1.7s-0.5,1-1.5,1.7C20.9,16.7,20.8,16.8,20.7,16.8z"/>
	</g>
	<g>
		<path d="M15.5,6.5h-4C11.2,6.5,11,6.3,11,6s0.2-0.5,0.5-0.5h4C15.8,5.5,16,5.7,16,6S15.8,6.5,15.5,6.5z"/>
	</g>
	<g>
		<path d="M7.5,6.5h-2C5.2,6.5,5,6.3,5,6s0.2-0.5,0.5-0.5h2C7.8,5.5,8,5.7,8,6S7.8,6.5,7.5,6.5z"/>
	</g>
	<g>
		<path d="M9.4,27.5C9.4,27.5,9.4,27.5,9.4,27.5l-2.9,0C6.2,27.5,6,27.3,6,27v-5.7l-2.6,3c-0.2,0.2-0.4,0.2-0.7,0.1l-1.5-1
			C1.1,23.3,1,23.1,1,22.9l1.4-6.6l-2.1-0.8C0.1,15.4,0,15.2,0,15s0.1-0.4,0.3-0.5l2.1-0.8L1,7.1c0-0.2,0-0.4,0.2-0.5l1.5-1
			c0.2-0.1,0.5-0.1,0.7,0.1l2.6,3V3c0-0.3,0.2-0.5,0.5-0.5h3c0.1,0,0.3,0.1,0.4,0.2l8.3,8.8h2.3c3.8,0,6.3,3.1,6.4,3.2
			c0.1,0.2,0.1,0.4,0,0.6c-0.1,0.1-2.6,3.2-6.4,3.2h-2.3l-8.4,8.9C9.7,27.5,9.6,27.5,9.4,27.5z M7,26.5l2.2,0l8.1-8.6
			c0-0.3,0.2-0.5,0.5-0.5h2.7c2.7,0,4.6-1.8,5.3-2.5c-0.7-0.7-2.7-2.5-5.3-2.5h-2.7c-0.3,0-0.5-0.2-0.5-0.5l-8-8.5H7V10
			c0,0.2-0.1,0.4-0.3,0.5c-0.2,0.1-0.4,0-0.6-0.1L2.9,6.6L2.1,7.2l1.4,6.7c0.1,0.2-0.1,0.5-0.3,0.6L1.8,15l1.3,0.5
			c0.2,0.1,0.4,0.3,0.3,0.6l-1.4,6.7l0.9,0.6l3.2-3.7c0.1-0.2,0.4-0.2,0.6-0.1C6.9,19.6,7,19.8,7,20V26.5z"/>
	</g>
	<g>
		<path d="M7.5,24.5h-2C5.2,24.5,5,24.3,5,24s0.2-0.5,0.5-0.5h2C7.8,23.5,8,23.7,8,24S7.8,24.5,7.5,24.5z"/>
	</g>
	<g>
		<path d="M14.5,13.5H2c-1.1,0-2-0.9-2-2s0.9-2,2-2h9.5c0.1,0,0.3,0.1,0.4,0.1l3,3C15,12.8,15,13,15,13.2
			C14.9,13.4,14.7,13.5,14.5,13.5z M2,10.5c-0.6,0-1,0.4-1,1s0.4,1,1,1h11.3l-2-2H2z"/>
	</g>
	<g>
		<path d="M11.5,20.5H2c-1.1,0-2-0.9-2-2s0.9-2,2-2h12.5c0.2,0,0.4,0.1,0.5,0.3c0.1,0.2,0,0.4-0.1,0.5l-3,3
			C11.8,20.4,11.6,20.5,11.5,20.5z M2,17.5c-0.6,0-1,0.4-1,1s0.4,1,1,1h9.3l2-2H2z"/>
	</g>
</g>
</svg>
