<?xml version="1.0" encoding="utf-8"?>
<!-- Generator: Adobe Illustrator 19.0.0, SVG Export Plug-In . SVG Version: 6.00 Build 0)  -->
<svg version="1.1" id="Layer_1" xmlns="http://www.w3.org/2000/svg" xmlns:xlink="http://www.w3.org/1999/xlink" x="0px" y="0px"
	 viewBox="0 0 30 30" style="enable-background:new 0 0 30 30;" xml:space="preserve">
<g>
	<g>
		<path d="M10.1,30H9.5c-0.1,0-0.3-0.1-0.4-0.2S9,29.6,9,29.4L10.9,18l-5.2-0.6l-3.6,3.4C2,20.9,1.9,21,1.8,21H0.5
			c-0.2,0-0.3-0.1-0.4-0.2S0,20.5,0,20.3l1.7-4.4l-1.4-0.5C0.1,15.4,0,15.2,0,15s0.1-0.4,0.3-0.5l1.4-0.5L0,9.7C0,9.5,0,9.4,0.1,9.2
			S0.3,9,0.5,9h1.3C1.9,9,2,9,2.1,9.1l3.6,3.4l5.2-0.5L9,0.6c0-0.1,0-0.3,0.1-0.4C9.2,0.1,9.4,0,9.5,0h0.6c1,0,1.9,0.5,2.4,1.3
			l7.2,9.7c1.3,0,7.4,0.2,9.5,2.3c0.5,0.5,0.8,1.1,0.8,1.7s-0.3,1.2-0.8,1.7c-2.1,2.1-8.1,2.2-9.5,2.3l-7.2,9.8
			C12,29.5,11.1,30,10.1,30z M10.1,29L10.1,29c0.7,0,1.3-0.3,1.6-0.8l7.4-10c0.1-0.1,0.2-0.2,0.4-0.2c0.1,0,0.1,0,0.1,0
			c2,0,7.3-0.3,8.9-2c0.3-0.3,0.5-0.7,0.5-1s-0.2-0.7-0.5-1c-1.7-1.7-7.1-2-9-2c-0.2,0-0.3-0.1-0.4-0.2l-7.4-10
			c-0.4-0.5-1-0.8-1.6-0.8h0L12,12.4c0,0.1,0,0.3-0.1,0.4S11.7,13,11.6,13l-6,0.6c-0.1,0-0.3,0-0.4-0.1L1.6,10H1.2l1.6,4.2
			c0,0.1,0,0.3,0,0.4s-0.2,0.2-0.3,0.3L2.1,15l0.5,0.2c0.1,0,0.2,0.1,0.3,0.3c0.1,0.1,0.1,0.3,0,0.4L1.2,20h0.3l3.6-3.5
			c0.1-0.1,0.3-0.2,0.4-0.1l6,0.7c0.1,0,0.3,0.1,0.3,0.2c0.1,0.1,0.1,0.2,0.1,0.4L10.1,29z"/>
	</g>
	<g>
		<path d="M24.5,17c-0.2,0-0.4-0.1-0.5-0.3c-0.1-0.3,0-0.5,0.3-0.6c0.1,0,0.7-0.3,0.7-1s-0.6-1-0.7-1c-0.3-0.1-0.4-0.4-0.3-0.6
			c0.1-0.3,0.4-0.4,0.6-0.3c0.1,0,1.3,0.5,1.3,2s-1.3,1.9-1.3,2C24.6,17,24.6,17,24.5,17z"/>
	</g>
</g>
</svg>
