<?xml version="1.0" encoding="utf-8"?>
<!-- Generator: Adobe Illustrator 19.0.0, SVG Export Plug-In . SVG Version: 6.00 Build 0)  -->
<svg version="1.1" id="Layer_1" xmlns="http://www.w3.org/2000/svg" xmlns:xlink="http://www.w3.org/1999/xlink" x="0px" y="0px"
	 viewBox="0 0 30 30" style="enable-background:new 0 0 30 30;" xml:space="preserve">
<g>
	<g>
		<path d="M21.5,18h-1c-0.3,0-0.5-0.2-0.5-0.5s0.2-0.5,0.5-0.5h1c0.3,0,0.5,0.2,0.5,0.5S21.8,18,21.5,18z"/>
	</g>
	<g>
		<path d="M21.5,25h-13C8.2,25,8,24.8,8,24.5S8.2,24,8.5,24h13c0.3,0,0.5,0.2,0.5,0.5S21.8,25,21.5,25z"/>
	</g>
	<g>
		<path d="M25.5,16h-5c-0.3,0-0.5-0.2-0.5-0.5v-6C20,9.2,20.2,9,20.5,9S21,9.2,21,9.5V15h4.5c0.3,0,0.5,0.2,0.5,0.5S25.8,16,25.5,16
			z"/>
	</g>
	<g>
		<path d="M27,25c-0.3,0-0.5-0.2-0.5-0.5S26.7,24,27,24c1.1,0,2-0.9,2-2.1v-6l-0.8-0.5C28.1,15.3,28,15.2,28,15v-5
			c0-0.2,0.1-0.4,0.3-0.4L29,9.2V7.6c-0.4-0.3-0.8-0.5-1.3-0.5c-0.1,0-0.3-0.1-0.3-0.1l-2.6-2.6C24.5,4.3,23.5,4,23.2,4H16v14.5
			c0,0.3-0.2,0.5-0.5,0.5H2.9l-1.7,5H3c0.3,0,0.5,0.2,0.5,0.5S3.3,25,3,25H0.5c-0.2,0-0.3-0.1-0.4-0.2C0,24.6,0,24.5,0,24.3l2-6
			C2.1,18.1,2.3,18,2.5,18H15V3.5C15,3.2,15.2,3,15.5,3h7.7c0.3,0,1.9,0.3,2.3,0.8l2.4,2.4c0.7,0.1,1.4,0.4,1.9,0.9
			C29.9,7.2,30,7.3,30,7.4v2.1c0,0.2-0.1,0.4-0.3,0.4L29,10.3v4.4l0.8,0.5c0.1,0.1,0.2,0.3,0.2,0.4v6.3C30,23.6,28.6,25,27,25z"/>
	</g>
	<g>
		<path d="M6.5,18h-2C4.2,18,4,17.8,4,17.5S4.2,17,4.5,17h2C6.8,17,7,17.2,7,17.5S6.8,18,6.5,18z"/>
	</g>
	<g>
		<path d="M24.5,8h-6C18.2,8,18,7.8,18,7.5S18.2,7,18.5,7h6C24.8,7,25,7.2,25,7.5S24.8,8,24.5,8z"/>
	</g>
	<g>
		<path d="M24,27c-1.7,0-3-1.4-3-3c0-1.7,1.4-3,3-3c1.7,0,3,1.4,3,3C27,25.7,25.6,27,24,27z M24,22c-1.1,0-2,0.9-2,2s0.9,2,2,2
			c1.1,0,2-0.9,2-2S25.1,22,24,22z"/>
	</g>
	<g>
		<path d="M6,27c-1.7,0-3-1.3-3-3s1.3-3,3-3s3,1.3,3,3S7.6,27,6,27z M6,22c-1.1,0-2,0.9-2,2s0.9,2,2,2s2-0.9,2-2S7.1,22,6,22z"/>
	</g>
</g>
</svg>
