<?xml version="1.0" encoding="utf-8"?>
<!-- Generator: Adobe Illustrator 19.0.0, SVG Export Plug-In . SVG Version: 6.00 Build 0)  -->
<svg version="1.1" id="Layer_1" xmlns="http://www.w3.org/2000/svg" xmlns:xlink="http://www.w3.org/1999/xlink" x="0px" y="0px"
	 viewBox="0 0 30 30" style="enable-background:new 0 0 30 30;" xml:space="preserve">
<g>
	<g>
		<path d="M3,19.3c-0.2,0-0.4-0.1-0.5-0.4L0,9.5C0,9.4,0,9.2,0.2,9C0.4,8.8,6.3,4.2,15,4.2S29.6,8.8,29.8,9C30,9.2,30,9.4,30,9.5
			l-2.5,9.3c0,0.1-0.1,0.2-0.2,0.3c-0.1,0.1-0.3,0.1-0.4,0c-0.1,0-6.5-2-11.3-2c-4.8,0-12.3,2-12.3,2C3.1,19.2,3.1,19.3,3,19.3z
			 M1.1,9.6l2.3,8.5c1.8-0.4,7.8-1.9,12.1-1.9c4.2,0,9.5,1.4,11.1,1.9l2.3-8.5C27.7,8.7,22.4,5.3,15,5.3S2.3,8.7,1.1,9.6z"/>
	</g>
	<g>
		<path d="M14.5,25.8c-1.1,0-2-0.9-2-2s0.9-2,2-2s2,0.9,2,2S15.6,25.8,14.5,25.8z M14.5,22.8c-0.6,0-1,0.4-1,1s0.4,1,1,1s1-0.4,1-1
			S15.1,22.8,14.5,22.8z"/>
	</g>
	<g>
		<path d="M14.5,22.3c-0.2,0-0.4-0.1-0.5-0.4l-3.5-11.5c-0.1-0.3,0.1-0.5,0.3-0.6c0.3-0.1,0.5,0.1,0.6,0.3L15,21.6
			c0.1,0.3-0.1,0.5-0.3,0.6C14.6,22.2,14.5,22.3,14.5,22.3z"/>
	</g>
	<g>
		<path d="M11.5,15.3c-0.2,0-0.5-0.2-0.5-0.4l-1-7c0-0.3,0.2-0.5,0.4-0.6c0.3,0,0.5,0.2,0.6,0.4l1,7C12,15,11.8,15.2,11.5,15.3
			C11.5,15.2,11.5,15.3,11.5,15.3z"/>
	</g>
	<g>
		<path d="M15.5,6.3C15.2,6.3,15,6,15,5.8v-1c0-0.3,0.2-0.5,0.5-0.5S16,4.5,16,4.8v1C16,6,15.8,6.3,15.5,6.3z"/>
	</g>
	<g>
		<path d="M15.5,10.3c-0.3,0-0.5-0.2-0.5-0.5v-1c0-0.3,0.2-0.5,0.5-0.5S16,8.5,16,8.8v1C16,10,15.8,10.3,15.5,10.3z"/>
	</g>
	<g>
		<path d="M15.5,14.3c-0.3,0-0.5-0.2-0.5-0.5v-1c0-0.3,0.2-0.5,0.5-0.5s0.5,0.2,0.5,0.5v1C16,14,15.8,14.3,15.5,14.3z"/>
	</g>
	<g>
		<path d="M15.5,17.3c-0.3,0-0.5-0.2-0.5-0.5v-1c0-0.3,0.2-0.5,0.5-0.5s0.5,0.2,0.5,0.5v1C16,17,15.8,17.3,15.5,17.3z"/>
	</g>
</g>
</svg>
