<?xml version="1.0" encoding="utf-8"?>
<!-- Generator: Adobe Illustrator 19.0.0, SVG Export Plug-In . SVG Version: 6.00 Build 0)  -->
<svg version="1.1" id="Layer_1" xmlns="http://www.w3.org/2000/svg" xmlns:xlink="http://www.w3.org/1999/xlink" x="0px" y="0px"
	 viewBox="0 0 30 30" style="enable-background:new 0 0 30 30;" xml:space="preserve">
<g>
	<g>
		<path d="M15,30c-0.1,0-0.1,0-0.2,0c-0.2-0.1-0.3-0.3-0.3-0.5V16.6l-7.2,6.3c-0.2,0.2-0.5,0.2-0.7,0c-0.2-0.2-0.2-0.5,0-0.7
			l7.5-6.6L6.7,9.9C6.5,9.7,6.4,9.4,6.6,9.2C6.8,9,7.1,8.9,7.3,9.1l7.2,5.4v-14c0-0.2,0.1-0.4,0.3-0.5C15,0,15.2,0,15.4,0.1l8,8
			c0.1,0.1,0.2,0.2,0.1,0.4c0,0.1-0.1,0.3-0.2,0.4l-7.5,6.6l7.5,5.6c0.1,0.1,0.2,0.2,0.2,0.4c0,0.1,0,0.3-0.1,0.4l-8,8
			C15.3,29.9,15.1,30,15,30z M15.5,16.5v11.8l6.7-6.7L15.5,16.5z M15.5,1.7v12.7l6.8-5.9L15.5,1.7z"/>
	</g>
</g>
</svg>
