<?xml version="1.0" encoding="iso-8859-1"?>
<!-- Generator: Adobe Illustrator 19.0.0, SVG Export Plug-In . SVG Version: 6.00 Build 0)  -->
<svg version="1.1" id="Layer_1" xmlns="http://www.w3.org/2000/svg" xmlns:xlink="http://www.w3.org/1999/xlink" x="0px" y="0px"
	 viewBox="0 0 30 30" style="enable-background:new 0 0 30 30;" xml:space="preserve">
<g>
	<g>
		<path d="M24,19.5c-1.654,0-3-1.346-3-3c0-0.276-0.224-0.5-0.5-0.5S20,16.224,20,16.5c0,2.206,1.794,4,4,4
			c0.276,0,0.5-0.224,0.5-0.5S24.276,19.5,24,19.5z M18,19l-0.166,0.045l-0.308,0.111L18,19z M6,19.5c-1.654,0-3-1.346-3-3
			C3,16.224,2.776,16,2.5,16S2,16.224,2,16.5c0,2.206,1.794,4,4,4c0.276,0,0.5-0.224,0.5-0.5S6.276,19.5,6,19.5z M24,10.5
			c-2.793,0-5.138,1.919-5.804,4.507C18.13,15.004,18.065,15,18,15c-0.017,0-0.033,0.002-0.05,0.002
			c0.063-0.889,0.247-1.888,0.671-3.007c0.529-1.397,0.519-2.508-0.029-3.301C17.91,7.707,16.606,7.5,15.631,7.5H14.37
			c-0.962,0-2.252,0.205-2.935,1.182c-0.553,0.791-0.572,1.905-0.057,3.309c0.413,1.125,0.594,2.123,0.658,3.01
			C12.024,15.001,12.012,15,12,15c-0.065,0-0.13,0.004-0.196,0.007C11.138,12.419,8.793,10.5,6,10.5c-3.309,0-6,2.691-6,6
			s2.691,6,6,6c2.486,0,4.623-1.519,5.532-3.678c-0.002,0.006-0.005,0.016-0.007,0.022c-0.087,0.262,0.056,0.545,0.318,0.631
			C11.896,19.492,11.948,19.5,12,19.5c0.21,0,0.405-0.133,0.475-0.344c0.159-0.48,0.401-1.255,0.523-2.266
			C13.566,16.753,14,16.477,14,16c0-0.462-0.407-0.738-0.949-0.879c-0.056-1.013-0.255-2.169-0.734-3.475
			c-0.395-1.079-0.416-1.884-0.062-2.392C12.714,8.598,13.777,8.5,14.37,8.5h1.261c0.601,0,1.68,0.099,2.138,0.763
			c0.35,0.506,0.322,1.307-0.084,2.378c-0.494,1.304-0.698,2.465-0.752,3.484C16.399,15.268,16,15.542,16,16
			c0,0.474,0.43,0.751,0.993,0.888c0.125,0.995,0.366,1.763,0.524,2.243l0.317-0.086l0.632-0.228C19.374,20.979,21.512,22.5,24,22.5
			c3.309,0,6-2.691,6-6S27.309,10.5,24,10.5z M6,21.5c-2.757,0-5-2.243-5-5s2.243-5,5-5c2.294,0,4.211,1.561,4.798,3.67
			C10.335,15.322,10,15.583,10,16c0,0.466,0.413,0.742,0.961,0.882C10.762,19.458,8.626,21.5,6,21.5z M11.973,17.024
			c0.001-0.008,0.001-0.017,0.001-0.025c0.001,0,0.001,0,0.002,0C11.975,17.007,11.975,17.016,11.973,17.024z M18.016,16.999
			c0.003,0,0.006,0,0.01,0c0.004,0.048,0.005,0.096,0.01,0.143C18.028,17.096,18.023,17.047,18.016,16.999z M24,21.5
			c-2.626,0-4.762-2.042-4.961-4.618C19.587,16.742,20,16.466,20,16c0-0.417-0.335-0.678-0.798-0.83
			c0.587-2.109,2.504-3.67,4.798-3.67c2.757,0,5,2.243,5,5S26.757,21.5,24,21.5z"/>
	</g>
</g>
</svg>
