<?xml version="1.0" encoding="iso-8859-1"?>
<!-- Generator: Adobe Illustrator 19.0.0, SVG Export Plug-In . SVG Version: 6.00 Build 0)  -->
<svg version="1.1" id="Layer_1" xmlns="http://www.w3.org/2000/svg" xmlns:xlink="http://www.w3.org/1999/xlink" x="0px" y="0px"
	 viewBox="0 0 30 30" style="enable-background:new 0 0 30 30;" xml:space="preserve">
<g>
	<g>
		<path d="M6.789,11c-2.066,0-3.3,1.78-3.3,3.5c0,0.276,0.224,0.5,0.5,0.5s0.5-0.224,0.5-0.5c0-1.229,0.861-2.5,2.3-2.5
			c0.276,0,0.5-0.224,0.5-0.5S7.065,11,6.789,11z M23.165,11c-4.78,0-5.176,1.656-5.176,3.5c0,0.276,0.224,0.5,0.5,0.5
			s0.5-0.224,0.5-0.5c0-1.286,0-2.5,4.176-2.5c0.276,0,0.5-0.224,0.5-0.5S23.441,11,23.165,11z M29.997,10.653l-0.009-0.175
			c-0.009-0.229-0.174-0.422-0.399-0.468c-0.527-0.108-1.022-0.218-1.499-0.324C26.508,9.334,25.142,9.03,23.498,9h-0.009
			c-0.039,0-0.073,0.013-0.109,0.022C23.307,9.019,23.239,9,23.165,9c-3.542,0-5.676,0.87-6.612,2.747
			C16.152,11.166,15.541,11,14.989,11c-0.552,0-1.164,0.166-1.565,0.748C12.486,9.87,10.344,9,6.789,9
			C6.717,9,6.651,9.018,6.58,9.021C6.546,9.015,6.518,9.003,6.48,9.001c-1.643,0.03-3.01,0.334-4.592,0.686
			c-0.477,0.106-0.972,0.216-1.499,0.324c-0.238,0.048-0.407,0.261-0.4,0.504c0.004,0.108-0.001,0.258-0.006,0.441
			c-0.039,1.389-0.13,4.644,2.155,6.9c0.077,0.076,0.175,0.114,0.275,0.129C3.35,19.699,4.923,21,6.789,21
			c2.908,0,7.2-3.424,7.2-6.5c0-0.281-0.016-0.546-0.04-0.804c0.026-0.06,0.04-0.126,0.04-0.196c0-1.384,0.494-1.5,1-1.5
			c0.506,0,1,0.116,1,1.5c0,0.07,0.015,0.136,0.04,0.196c-0.024,0.258-0.04,0.523-0.04,0.804c0,3.076,4.277,6.5,7.176,6.5
			c1.874,0,3.454-1.3,4.395-3.013c0.098-0.014,0.193-0.049,0.27-0.123C30.258,15.596,30.061,11.875,29.997,10.653z M1.489,14.5
			c0,0.176,0.009,0.353,0.024,0.53c-0.586-1.567-0.556-3.193-0.532-4.045c0.001-0.026,0.002-0.052,0.002-0.076
			c0.389-0.083,0.76-0.165,1.121-0.246c0.387-0.086,0.76-0.169,1.126-0.245C2.163,11.417,1.489,12.856,1.489,14.5z M6.789,20
			c-2.422,0-4.3-2.957-4.3-5.5c0-2.523,1.889-4.5,4.3-4.5c5.449,0,6.2,2.163,6.2,4.5C12.989,16.813,9.396,20,6.789,20z M23.165,20
			c-2.597,0-6.176-3.187-6.176-5.5c0-2.337,0.748-4.5,6.176-4.5c2.425,0,4.324,1.977,4.324,4.5C27.489,17.043,25.6,20,23.165,20z
			 M28.46,15.099c0.019-0.2,0.029-0.4,0.029-0.599c0-1.646-0.679-3.087-1.755-4.087c0.371,0.077,0.748,0.161,1.139,0.248
			c0.366,0.082,0.742,0.166,1.136,0.249C29.051,11.779,29.071,13.504,28.46,15.099z"/>
	</g>
</g>
</svg>
