<?xml version="1.0" encoding="iso-8859-1"?>
<!-- Generator: Adobe Illustrator 19.0.0, SVG Export Plug-In . SVG Version: 6.00 Build 0)  -->
<svg version="1.1" id="Layer_1" xmlns="http://www.w3.org/2000/svg" xmlns:xlink="http://www.w3.org/1999/xlink" x="0px" y="0px"
	 viewBox="0 0 30 30" style="enable-background:new 0 0 30 30;" xml:space="preserve">
<g>
	<g>
		<path d="M7.5,11.5C5.57,11.5,4,13.07,4,15c0,0.276,0.224,0.5,0.5,0.5S5,15.276,5,15c0-1.378,1.122-2.5,2.5-2.5
			C7.776,12.5,8,12.276,8,12S7.776,11.5,7.5,11.5z M29.5,12.5h-1c-0.189,0-0.362,0.107-0.447,0.276l-0.299,0.598
			C27.059,11.132,24.967,9.5,22.5,9.5c-2.431,0-4.495,1.586-5.22,3.777C16.805,12.82,16.073,12.5,15,12.5s-1.805,0.32-2.28,0.777
			C11.995,11.086,9.931,9.5,7.5,9.5c-2.467,0-4.559,1.632-5.254,3.874l-0.299-0.598C1.862,12.607,1.689,12.5,1.5,12.5h-1
			C0.224,12.5,0,12.724,0,13v2c0,0.276,0.224,0.5,0.5,0.5S1,15.276,1,15v-1.5h0.191l0.816,1.633C2.078,18.104,4.512,20.5,7.5,20.5
			c3.033,0,5.5-2.467,5.5-5.5c0-0.953,0.729-1.5,2-1.5s2,0.547,2,1.5c0,3.033,2.467,5.5,5.5,5.5c2.989,0,5.423-2.397,5.493-5.369
			l0.816-1.631H29V15c0,0.276,0.224,0.5,0.5,0.5S30,15.276,30,15v-2C30,12.724,29.776,12.5,29.5,12.5z M7.5,19.5
			C5.019,19.5,3,17.481,3,15s2.019-4.5,4.5-4.5S12,12.519,12,15S9.981,19.5,7.5,19.5z M22.5,19.5c-2.481,0-4.5-2.019-4.5-4.5
			s2.019-4.5,4.5-4.5S27,12.519,27,15S24.981,19.5,22.5,19.5z M22.5,11.5c-1.93,0-3.5,1.57-3.5,3.5c0,0.276,0.224,0.5,0.5,0.5
			S20,15.276,20,15c0-1.378,1.122-2.5,2.5-2.5c0.276,0,0.5-0.224,0.5-0.5S22.776,11.5,22.5,11.5z"/>
	</g>
</g>
</svg>
