<?xml version="1.0" encoding="iso-8859-1"?>
<!-- Generator: Adobe Illustrator 19.0.0, SVG Export Plug-In . SVG Version: 6.00 Build 0)  -->
<svg version="1.1" id="Layer_1" xmlns="http://www.w3.org/2000/svg" xmlns:xlink="http://www.w3.org/1999/xlink" x="0px" y="0px"
	 viewBox="0 0 30 30" style="enable-background:new 0 0 30 30;" xml:space="preserve">
<g>
	<g>
		<path d="M27.347,16.035L22.483,4.449C21.21,1.746,18.469,0,15.5,0c-2.833,0-5.436,1.565-6.798,4.096L2.676,16.033
			C1.452,16.194,0.5,17.233,0.5,18.5v9C0.5,28.878,1.622,30,3,30h24c1.378,0,2.5-1.122,2.5-2.5v-9
			C29.5,17.241,28.56,16.206,27.347,16.035z M9.588,4.558C10.77,2.363,13.035,1,15.5,1c2.583,0,4.969,1.521,6.07,3.855L26.248,16
			H3.812L9.588,4.558z M15.5,17v5h-1v-5H15.5z M13.5,29H3c-0.827,0-1.5-0.673-1.5-1.5v-9C1.5,17.673,2.173,17,3,17h10.5v5H11
			c-0.276,0-0.5,0.224-0.5,0.5v5c0,0.276,0.224,0.5,0.5,0.5h2.5V29z M15.5,29h-1v-1h1V29z M11.5,27v-4h3v1.5
			c0,0.276,0.224,0.5,0.5,0.5s0.5-0.224,0.5-0.5V23h3v4H11.5z M28.5,27.5c0,0.827-0.673,1.5-1.5,1.5H16.5v-1H19
			c0.276,0,0.5-0.224,0.5-0.5v-5c0-0.276-0.224-0.5-0.5-0.5h-2.5v-5H27c0.827,0,1.5,0.673,1.5,1.5V27.5z"/>
	</g>
</g>
</svg>
