<?xml version="1.0" encoding="iso-8859-1"?>
<!-- Generator: Adobe Illustrator 19.0.0, SVG Export Plug-In . SVG Version: 6.00 Build 0)  -->
<svg version="1.1" id="Layer_1" xmlns="http://www.w3.org/2000/svg" xmlns:xlink="http://www.w3.org/1999/xlink" x="0px" y="0px"
	 viewBox="0 0 30 30" style="enable-background:new 0 0 30 30;" xml:space="preserve">
<g>
	<g>
		<path d="M30,9.087c0-0.213-0.097-0.52-0.556-0.777c-1.451-0.809-7.202-1.302-11.009,0.196l-0.898-0.415
			c-1.355-0.768-3.604-0.788-4.864-0.067l-1.201,0.529C9.659,7.826,7.376,7.53,5.162,7.555C4.3,7.564,0,7.679,0,9.086
			C0,9.383,0.008,9.66,0.013,9.947C0.01,9.968,0,9.987,0,10.01c0,0.026,0.011,0.048,0.015,0.073
			c0.151,8.568,2.258,12.419,6.789,12.419c4.416,0,8.196-7.354,8.196-9.649v-0.01c-0.019-0.912-0.309-1.681-0.787-2.333h1.455
			c-0.472,0.69-0.706,1.481-0.668,2.355c0.004,0.723,0.378,1.94,1.025,3.27c0.021,0.079,0.055,0.152,0.109,0.21
			c1.444,2.866,4.107,6.156,7.062,6.156c4.531,0,6.639-3.852,6.789-12.419C29.989,10.058,30,10.035,30,10.01
			c0-0.022-0.01-0.041-0.013-0.063C29.992,9.661,30,9.384,30,9.087z M28.973,10.51c-0.009,0.342-0.02,0.679-0.036,1H16.25
			c0.163-0.363,0.4-0.698,0.725-1H28.973z M27.991,17.51H18c-0.01,0-0.018,0.005-0.027,0.005c-0.221-0.337-0.424-0.667-0.613-1.005
			h10.917C28.187,16.864,28.094,17.203,27.991,17.51z M16,12.853v-0.022c-0.005-0.11,0.006-0.215,0.011-0.321h12.865
			c-0.026,0.349-0.059,0.677-0.093,1H16.095C16.039,13.26,16,13.031,16,12.853z M16.836,15.51c-0.163-0.345-0.318-0.687-0.435-1
			h12.265c-0.05,0.352-0.108,0.682-0.168,1H16.836z M1,9.2c0.771-0.573,6.285-1.182,9.981,0.232c0.064,0.024,0.118,0.053,0.18,0.078
			H1.006C1.005,9.402,1,9.309,1,9.2z M1.026,10.51h11.832c0.344,0.302,0.606,0.637,0.794,1H1.062
			C1.046,11.189,1.036,10.851,1.026,10.51z M3.843,20.51h5.532c-0.815,0.608-1.686,0.992-2.571,0.992
			C5.812,21.502,4.768,21.3,3.843,20.51z M10.492,19.51H3c-0.011,0-0.021,0.006-0.032,0.006c-0.197-0.293-0.384-0.626-0.558-1.006
			h8.935C11.074,18.86,10.79,19.197,10.492,19.51z M12.049,17.52c-0.017-0.002-0.031-0.01-0.049-0.01H2.021
			c-0.105-0.312-0.205-0.639-0.296-1h10.937C12.473,16.846,12.268,17.185,12.049,17.52z M13.159,15.542
			c-0.05-0.017-0.102-0.032-0.159-0.032H1.502c-0.063-0.329-0.122-0.67-0.174-1.035c0.054,0.02,0.111,0.035,0.172,0.035h12.099
			C13.478,14.835,13.329,15.181,13.159,15.542z M13.905,13.51H1.5c-0.103,0-0.194,0.039-0.273,0.092
			c-0.038-0.351-0.074-0.71-0.103-1.092h12.84c0.015,0.115,0.034,0.228,0.037,0.348C13.999,13.035,13.961,13.262,13.905,13.51z
			 M13.216,9.51c-0.18-0.136-0.37-0.263-0.571-0.384l0.476-0.211c0.906-0.515,2.775-0.606,3.959,0.063l0.189,0.088
			c-0.041,0.024-0.087,0.044-0.127,0.069c-0.191,0.118-0.368,0.243-0.534,0.374H13.216z M23.196,21.501
			c-0.882,0-1.749-0.387-2.562-0.991h5.54C25.244,21.305,24.193,21.501,23.196,21.501z M27.04,19.518
			c-0.014-0.001-0.026-0.008-0.04-0.008h-7.483c-0.296-0.31-0.573-0.653-0.842-1h8.921C27.422,18.889,27.237,19.226,27.04,19.518z
			 M28.994,9.51H18.747c0.039-0.023,0.076-0.047,0.107-0.081c1.675-0.644,3.739-0.885,5.586-0.885c2.226,0,4.117,0.331,4.559,0.658
			C29,9.31,28.995,9.403,28.994,9.51z"/>
	</g>
</g>
</svg>
