<?xml version="1.0" encoding="iso-8859-1"?>
<!-- Generator: Adobe Illustrator 19.0.0, SVG Export Plug-In . SVG Version: 6.00 Build 0)  -->
<svg version="1.1" id="Layer_1" xmlns="http://www.w3.org/2000/svg" xmlns:xlink="http://www.w3.org/1999/xlink" x="0px" y="0px"
	 viewBox="0 0 30 30" style="enable-background:new 0 0 30 30;" xml:space="preserve">
<g>
	<g>
		<path d="M20,2c-1.924,0-3.488,1.56-3.498,3.481c0,0.001-0.001,0.002-0.001,0.004c0,0.001,0,0.002,0,0.002
			c0,0.004-0.001,0.008-0.001,0.013c0,0.841,0.31,1.603,0.806,2.207c0.022,0.037,0.043,0.075,0.065,0.112
			c0.564,0.948,1.087,1.846,0.714,2.854c-0.816,1.181-1.582,2.513-2.066,3.733C15.751,14.156,15.394,14,15,14
			c-0.395,0-0.752,0.156-1.02,0.407c-0.482-1.218-1.246-2.547-2.061-3.727c-0.379-1.012,0.146-1.912,0.711-2.862
			c0.022-0.037,0.043-0.075,0.065-0.113C13.19,7.101,13.5,6.34,13.5,5.5c0-0.003-0.001-0.005-0.001-0.008
			c0-0.003,0.001-0.005,0.001-0.008c0-0.004-0.003-0.007-0.003-0.011c-0.014-1.767-1.346-3.211-3.059-3.428
			C10.143,0.649,8.526,0,7,0C6.724,0,6.5,0.224,6.5,0.5S6.724,1,7,1c0.856,0,2.06,0.294,2.4,1.061C7.756,2.347,6.5,3.775,6.5,5.5
			c0,1.648,1.148,3.025,2.685,3.394c0.597,0.592,1.237,1.392,1.842,2.262c0.007,0.015,0.008,0.03,0.015,0.046
			c0.02,0.045,0.061,0.071,0.092,0.107c1.249,1.83,2.306,3.949,2.367,5.215c0.104,2.138,0.964,12.574,1.001,13.017
			c0.001,0.018,0.01,0.032,0.014,0.049c0.007,0.036,0.015,0.07,0.029,0.103c0.011,0.026,0.026,0.049,0.041,0.073
			c0.018,0.029,0.036,0.056,0.06,0.08c0.021,0.021,0.044,0.037,0.068,0.054c0.027,0.019,0.052,0.038,0.082,0.052
			c0.029,0.013,0.061,0.019,0.092,0.027c0.024,0.006,0.045,0.018,0.07,0.02C14.972,30,14.986,30,15,30c0.013,0,0.027,0,0.04-0.001
			c0.024-0.002,0.044-0.014,0.066-0.019c0.035-0.008,0.068-0.014,0.1-0.029c0.026-0.012,0.049-0.029,0.072-0.045
			c0.028-0.019,0.055-0.038,0.078-0.063c0.02-0.021,0.035-0.044,0.051-0.069c0.018-0.027,0.035-0.054,0.047-0.084
			c0.013-0.031,0.02-0.064,0.026-0.098c0.003-0.018,0.012-0.033,0.014-0.051c0.037-0.443,0.897-10.879,1.001-13.017
			c0.061-1.262,1.111-3.371,2.355-5.197c0.038-0.04,0.083-0.071,0.107-0.124c0.008-0.019,0.011-0.037,0.018-0.055
			c0.603-0.867,1.24-1.663,1.835-2.253C22.35,8.526,23.5,7.149,23.5,5.5C23.5,3.57,21.93,2,20,2z M10.873,9.281
			c-0.095-0.117-0.19-0.232-0.284-0.341c0.142-0.024,0.277-0.063,0.413-0.104C10.95,8.982,10.908,9.13,10.873,9.281z M10,8
			C8.622,8,7.5,6.878,7.5,5.5S8.622,3,10,3s2.5,1.122,2.5,2.5c0,0.027-0.007,0.052-0.008,0.078c-0.01,0.477-0.299,1.011-0.632,1.576
			C11.402,7.669,10.742,8,10,8z M14.999,23.284c-0.198-2.504-0.397-5.098-0.475-6.369C14.674,16.966,14.833,17,15,17
			c0.167,0,0.324-0.034,0.474-0.084C15.396,18.187,15.197,20.78,14.999,23.284z M15,16c-0.276,0-0.5-0.224-0.5-0.5S14.724,15,15,15
			s0.5,0.224,0.5,0.5S15.276,16,15,16z M19.127,9.28c-0.035-0.151-0.077-0.299-0.129-0.443c0.135,0.041,0.27,0.08,0.411,0.104
			C19.316,9.049,19.222,9.163,19.127,9.28z M20,8c-0.741,0-1.4-0.331-1.859-0.845C17.799,6.577,17.5,6.03,17.504,5.543
			c0-0.015-0.004-0.028-0.004-0.043C17.5,4.122,18.622,3,20,3s2.5,1.122,2.5,2.5S21.378,8,20,8z"/>
	</g>
</g>
</svg>
