<?xml version="1.0" encoding="utf-8"?>
<!-- Generator: Adobe Illustrator 19.0.0, SVG Export Plug-In . SVG Version: 6.00 Build 0)  -->
<svg version="1.1" id="Layer_1" xmlns="http://www.w3.org/2000/svg" xmlns:xlink="http://www.w3.org/1999/xlink" x="0px" y="0px"
	 viewBox="0 0 30 30" style="enable-background:new 0 0 30 30;" xml:space="preserve">
<g>
	<path d="M16,4.8c0.9-0.4,1.5-1.3,1.5-2.3C17.5,1.1,16.4,0,15,0s-2.5,1.1-2.5,2.5c0,1,0.6,1.9,1.5,2.3c-2,2.2-8.5,9.8-8.5,14.7
		c0,5,3.1,9.1,7.4,10.2c-1.4-1.8-2.4-5.4-2.4-9.6c0-5,2.9-13,3.8-15.2C14.5,5,14.8,5,15,5s0.5,0,0.7-0.1c0.9,2.2,3.8,10.2,3.8,15.2
		c0,4.2-0.9,7.8-2.4,9.6c4.2-1.1,7.4-5.2,7.4-10.2C24.5,14.6,18,7.1,16,4.8z M13.5,2.5C13.5,1.7,14.2,1,15,1s1.5,0.7,1.5,1.5
		S15.8,4,15,4S13.5,3.3,13.5,2.5z"/>
	<path d="M15,5.9c-1,2.8-3.5,9.8-3.5,14.2c0,5.7,1.8,9.9,3.5,9.9s3.5-4.2,3.5-9.9C18.5,15.7,16,8.7,15,5.9z"/>
</g>
</svg>
