<?xml version="1.0" encoding="utf-8"?>
<!-- Generator: Adobe Illustrator 19.0.0, SVG Export Plug-In . SVG Version: 6.00 Build 0)  -->
<svg version="1.1" id="Layer_1" xmlns="http://www.w3.org/2000/svg" xmlns:xlink="http://www.w3.org/1999/xlink" x="0px" y="0px"
	 viewBox="0 0 30 30" style="enable-background:new 0 0 30 30;" xml:space="preserve">
<g>
	<path d="M27.9,0.2C27.8,0.1,27.7,0,27.5,0h-3c-0.2,0-0.4,0.1-0.5,0.3l-7.8,22c-1.3-0.5-3.8-1.3-6.7-1.3C4.2,21,2,22,2,24.5
		C2,27.6,5,30,7.5,30c2.3,0,9.9-2.9,10.2-3c0.1-0.1,0.2-0.2,0.3-0.3l10-26C28,0.5,28,0.4,27.9,0.2z M7.7,26.9C7.7,27,7.6,27,7.5,27
		c-0.2,0-0.4-0.1-0.4-0.3l-1-2c-0.1-0.2,0-0.5,0.2-0.7c0.2-0.1,0.5,0,0.7,0.2l1,2C8.1,26.5,8,26.8,7.7,26.9z M9.7,26.9
		C9.7,27,9.6,27,9.5,27c-0.2,0-0.4-0.1-0.4-0.3l-1-2c-0.1-0.2,0-0.5,0.2-0.7c0.2-0.1,0.5,0,0.7,0.2l1,2C10.1,26.5,10,26.8,9.7,26.9z
		 M11.7,26.9c-0.1,0-0.1,0.1-0.2,0.1c-0.2,0-0.4-0.1-0.4-0.3l-1-2c-0.1-0.2,0-0.5,0.2-0.7c0.2-0.1,0.5,0,0.7,0.2l1,2
		C12.1,26.5,12,26.8,11.7,26.9z"/>
	<path d="M5,12.9C5,13,5,13,5,12.9l0,3.6C5,16.8,5.2,17,5.5,17S6,16.8,6,16.5V13c0,0,0,0,0-0.1c1.1-0.2,2-1.2,2-2.4
		C8,9.1,6.9,8,5.5,8S3,9.1,3,10.5C3,11.7,3.9,12.7,5,12.9z"/>
</g>
</svg>
