<?xml version="1.0" encoding="utf-8"?>
<!-- Generator: Adobe Illustrator 19.0.0, SVG Export Plug-In . SVG Version: 6.00 Build 0)  -->
<svg version="1.1" id="Layer_1" xmlns="http://www.w3.org/2000/svg" xmlns:xlink="http://www.w3.org/1999/xlink" x="0px" y="0px"
	 viewBox="0 0 30 30" style="enable-background:new 0 0 30 30;" xml:space="preserve">
<path d="M15,0C6.7,0,0,6.7,0,15c0,3.9,1.5,7.5,4,10.1l0.1,0.2c0,0,0.1,0.1,0.1,0.1l0,0C7,28.2,10.8,30,15,30c8.3,0,15-6.7,15-15
	S23.3,0,15,0z M28.4,10.8l-2.5-0.7L23,5.4V3.5C25.5,5.3,27.4,7.8,28.4,10.8z M19.5,23.9l-3.4-2.6l1.8-4.8l5.2-0.4l0.9,5.2L19.5,23.9
	z M15.1,21L8.8,22l-2.7-5l2.7-5l4.5-0.4l3.6,4.6L15.1,21z M11.6,4.1l4.2,2.1l-2.6,4.3L8.8,11L7.1,7.6L11.6,4.1z M22,2.9
	C22,2.9,22,3,22,2.9L22,5l-5.4,0.4L12,3.2V1.3C13,1.1,14,1,15,1C17.6,1,20,1.7,22,2.9z M3.2,7.5l3,0.4l1.8,3.5l-2.8,5l-4,0.4
	C1.1,16.3,1,15.7,1,15C1,12.3,1.8,9.7,3.2,7.5z M7.1,26.5L8.8,23l6.5-0.9l3.6,2.7l-0.9,3.9c-1,0.2-2,0.3-3.1,0.3
	C12,29,9.3,28.1,7.1,26.5z M27.6,21c0,0-0.1,0-0.1,0h-2.6L24,15.6l1.8-4.5l2.9,0.8c0.2,1,0.4,2,0.4,3.1C29,17.2,28.5,19.2,27.6,21z"
	/>
</svg>
