<?xml version="1.0" encoding="utf-8"?>
<!-- Generator: Adobe Illustrator 19.0.0, SVG Export Plug-In . SVG Version: 6.00 Build 0)  -->
<svg version="1.1" id="Layer_1" xmlns="http://www.w3.org/2000/svg" xmlns:xlink="http://www.w3.org/1999/xlink" x="0px" y="0px"
	 viewBox="0 0 30 30" style="enable-background:new 0 0 30 30;" xml:space="preserve">
<g>
	<g>
		<path d="M28.5,27h-3.8c-0.1,0-0.3-0.1-0.4-0.2s-0.1-0.2-0.1-0.4c0.3-2.8,0.8-7.9,0.8-9.9c0-1.5-0.5-2.4-1.1-3.3
			c-0.5-0.8-0.9-1.6-0.9-2.7c0-0.6,0.2-1.3,0.4-2.2c0.4-1.5,0.9-3.4,0.3-4.4c-0.2-0.4-0.7-0.6-1.3-0.8C22.2,3,22,2.8,22.1,2.5
			C22.3,0.9,23.4,0,25.5,0c1.4,0,2.4,0.4,2.9,1.1c1.1,1.4,0.5,3.6,0,5.4C28.2,7.3,28,8,28,8.5c0,0.8,0.4,1.5,0.8,2.2
			c0.6,1,1.2,2,1.2,3.8c0,3-1,11.7-1,12.1C29,26.8,28.8,27,28.5,27z M25.3,26h2.8c0.2-1.9,0.9-9,0.9-11.5c0-1.5-0.5-2.4-1.1-3.3
			C27.5,10.4,27,9.6,27,8.5c0-0.6,0.2-1.3,0.4-2.2c0.4-1.6,1-3.6,0.2-4.5C27.3,1.2,26.5,1,25.5,1c-1.6,0-2.2,0.6-2.4,1.2
			c0.6,0.2,1.1,0.6,1.4,1.1c0.9,1.4,0.3,3.5-0.2,5.2c-0.2,0.8-0.4,1.5-0.4,2c0,0.8,0.4,1.5,0.8,2.2c0.6,1,1.2,2,1.2,3.8
			C26,18.5,25.6,23.1,25.3,26z"/>
	</g>
	<g>
		<path d="M24.5,29h-6c-0.3,0-0.5-0.2-0.5-0.4c0-0.4-1-9.1-1-12.1c0-1.7,0.6-2.8,1.2-3.8c0.4-0.7,0.8-1.4,0.8-2.2
			c0-0.5-0.2-1.2-0.4-2c-0.5-1.8-1.1-4,0-5.4C19.2,2.4,20.1,2,21.5,2c1.4,0,2.4,0.4,2.9,1.1c1.1,1.4,0.5,3.6,0,5.4
			c-0.2,0.8-0.4,1.5-0.4,2c0,0.8,0.4,1.5,0.8,2.2c0.6,1,1.2,2,1.2,3.8c0,3-1,11.7-1,12.1C25,28.8,24.8,29,24.5,29z M18.9,28h5.1
			c0.2-1.9,0.9-9,0.9-11.5c0-1.5-0.5-2.4-1.1-3.3c-0.5-0.8-0.9-1.6-0.9-2.7c0-0.6,0.2-1.3,0.4-2.2c0.4-1.6,1-3.6,0.2-4.5
			C23.3,3.2,22.5,3,21.5,3c-1,0-1.7,0.2-2.1,0.7c-0.8,1-0.2,3,0.2,4.6c0.2,0.9,0.4,1.6,0.4,2.2c0,1.1-0.5,1.9-0.9,2.7
			C18.5,14.1,18,15,18,16.5C18,19,18.7,26.1,18.9,28z"/>
	</g>
	<g>
		<path d="M18.3,27h-2.8c-0.3,0-0.5-0.2-0.5-0.5c0-0.2,0-0.3,0.1-0.4c1.2-1.4,1.9-3.3,1.9-5.2c0-2.3-1-4.6-2.8-6.1
			c-0.1-0.1-0.2-0.2-0.2-0.4c0-1.8,0.6-2.9,1.2-3.8C15.6,10,16,9.3,16,8.5c0-0.5-0.2-1.2-0.4-2c-0.5-1.8-1.1-4,0-5.4
			C16.2,0.4,17.1,0,18.5,0c2,0,3.2,0.8,3.5,2.4c0,0.1,0,0.3-0.1,0.4C21.8,2.9,21.6,3,21.5,3c-1,0-1.7,0.3-2.1,0.7
			c-0.8,1-0.2,3,0.2,4.6c0.2,0.9,0.4,1.6,0.4,2.2c0,1.1-0.5,1.9-0.9,2.7C18.5,14.1,18,15,18,16.5c0,2.1,0.5,7.1,0.8,9.9
			c0,0.1,0,0.3-0.1,0.4S18.4,27,18.3,27z M16.5,26h1.3c-0.1-0.6-0.1-1.4-0.2-2.1C17.3,24.6,16.9,25.3,16.5,26z M15,14.3
			c0.8,0.7,1.5,1.6,2,2.6c0-0.1,0-0.3,0-0.4c0-1.7,0.6-2.8,1.2-3.8c0.4-0.7,0.8-1.4,0.8-2.2c0-0.5-0.2-1.2-0.4-2
			c-0.5-1.8-1.1-4,0-5.4c0.5-0.6,1.2-1,2.2-1.1c-0.2-0.6-0.8-1-2.3-1c-1,0-1.7,0.2-2.1,0.7c-0.8,1-0.2,3,0.2,4.6
			C16.8,7.2,17,7.9,17,8.5c0,1.1-0.5,1.9-0.9,2.7C15.6,12.1,15,12.9,15,14.3z"/>
	</g>
	<g>
		<path d="M9,30c-5,0-9-4-9-9s4-9,9-9s9,4,9,9S14,30,9,30z M9,13c-4.4,0-8,3.6-8,8s3.6,8,8,8s8-3.6,8-8S13.4,13,9,13z"/>
	</g>
	<g>
		<path d="M6.5,18C5.7,18,5,17.3,5,16.5S5.7,15,6.5,15S8,15.7,8,16.5S7.3,18,6.5,18z M6.5,16C6.2,16,6,16.2,6,16.5S6.2,17,6.5,17
			S7,16.8,7,16.5S6.8,16,6.5,16z"/>
	</g>
	<g>
		<path d="M4.5,22C3.7,22,3,21.3,3,20.5S3.7,19,4.5,19S6,19.7,6,20.5S5.3,22,4.5,22z M4.5,20C4.2,20,4,20.2,4,20.5S4.2,21,4.5,21
			S5,20.8,5,20.5S4.8,20,4.5,20z"/>
	</g>
	<g>
		<path d="M8.5,22C7.7,22,7,21.3,7,20.5S7.7,19,8.5,19s1.5,0.7,1.5,1.5S9.3,22,8.5,22z M8.5,20C8.2,20,8,20.2,8,20.5S8.2,21,8.5,21
			S9,20.8,9,20.5S8.8,20,8.5,20z"/>
	</g>
</g>
</svg>
