<?xml version="1.0" encoding="utf-8"?>
<!-- Generator: Adobe Illustrator 19.0.0, SVG Export Plug-In . SVG Version: 6.00 Build 0)  -->
<svg version="1.1" id="Layer_1" xmlns="http://www.w3.org/2000/svg" xmlns:xlink="http://www.w3.org/1999/xlink" x="0px" y="0px"
	 viewBox="0 0 30 30" style="enable-background:new 0 0 30 30;" xml:space="preserve">
<g>
	<g>
		<path d="M14.5,29c-0.6,0-1.4-0.3-1.9-1.5c-1.1-2.6-2.3-3.8-2.9-3.9c-0.6-0.2-1.1-0.8-1.2-1.4l-1-8.4c-0.1-0.5,0.1-1.1,0.5-1.5
			l2.4-2C10.6,1.7,18.3,1,20.7,1H22c0.3,0,0.5,0.2,0.5,0.5S22.2,2,22,2h-1.3c-2.8,0-9.3,0.8-9.3,8.5c0,0.2-0.1,0.3-0.2,0.4L8.7,13
			c-0.1,0.1-0.2,0.4-0.2,0.6l1,8.4c0,0.3,0.2,0.5,0.5,0.6c0.8,0.3,2.3,1.6,3.5,4.5c0.4,0.9,0.9,0.9,1,0.9c1.1,0,2.6-1.7,3.4-3.6
			c0.6-1.5,0.6-2.8,0-3.4c-0.9-0.9-2-1.2-3.1-1.5c-1.7-0.5-3.4-0.9-3.4-3.9c0-0.9,0.4-1.8,1.1-2.4c2.4-2.3,7.9-2,8.2-2h1.2
			c0.3,0,0.5,0.2,0.5,0.5S22.2,12,21.9,12h-1.3c-0.1,0-5.4-0.2-7.5,1.8c-0.5,0.5-0.7,1-0.7,1.7c0,2.2,1,2.5,2.7,3
			c1.1,0.3,2.4,0.7,3.5,1.8c0.9,0.9,1,2.6,0.2,4.5C18.1,26.8,16.3,29,14.5,29C14.5,29,14.5,29,14.5,29z"/>
	</g>
</g>
<g>
	<g>
		<path d="M15.5,29C15.5,29,15.5,29,15.5,29c-1.7,0-3.5-2.2-4.4-4.2c-0.8-1.9-0.7-3.6,0.2-4.5c1.1-1.1,2.4-1.5,3.5-1.8
			c1.7-0.5,2.7-0.7,2.7-3c0-0.7-0.2-1.2-0.7-1.7c-2-2-7.4-1.8-7.4-1.8H8.1c-0.3,0-0.5-0.2-0.5-0.5S7.8,11,8.1,11h1.3
			c0.2,0,5.8-0.2,8.2,2c0.7,0.7,1.1,1.5,1.1,2.4c0,3-1.7,3.5-3.4,3.9C14.1,19.7,13,20,12.1,21c-0.6,0.6-0.6,1.9,0,3.4
			c0.8,2,2.4,3.6,3.4,3.6c0.1,0,0.6,0,1-0.9c1.2-2.9,2.6-4.3,3.5-4.5c0.3-0.1,0.5-0.3,0.5-0.6l1-8.4c0-0.2,0-0.5-0.2-0.6l-2.5-2.1
			c-0.1-0.1-0.2-0.2-0.2-0.4c0-7.7-6.5-8.5-9.3-8.5H8C7.7,2,7.5,1.8,7.5,1.5S7.7,1,8,1h1.3c2.4,0,10.1,0.7,10.2,9.3l2.4,2
			c0.4,0.4,0.6,0.9,0.5,1.5l-1,8.4c-0.1,0.7-0.6,1.3-1.2,1.4c-0.5,0.2-1.8,1.4-2.9,3.9C16.9,28.7,16.1,29,15.5,29z"/>
	</g>
</g>
</svg>
