<?xml version="1.0" encoding="iso-8859-1"?>
<!-- Generator: Adobe Illustrator 19.0.0, SVG Export Plug-In . SVG Version: 6.00 Build 0)  -->
<svg version="1.1" id="Layer_1" xmlns="http://www.w3.org/2000/svg" xmlns:xlink="http://www.w3.org/1999/xlink" x="0px" y="0px"
	 viewBox="0 0 24 24" style="enable-background:new 0 0 24 24;" xml:space="preserve">
<g>
	<path d="M18.5,13c-3.032,0-5.5,2.467-5.5,5.5s2.468,5.5,5.5,5.5s5.5-2.467,5.5-5.5S21.532,13,18.5,13z M18.5,23
		c-2.481,0-4.5-2.019-4.5-4.5s2.019-4.5,4.5-4.5s4.5,2.019,4.5,4.5S20.981,23,18.5,23z"/>
	<path d="M11.5,21H1V7h5.5C6.776,7,7,6.776,7,6.5V1h10v10.5c0,0.276,0.224,0.5,0.5,0.5s0.5-0.224,0.5-0.5v-11
		C18,0.224,17.776,0,17.5,0h-11C6.433,0,6.368,0.014,6.307,0.039C6.278,0.051,6.256,0.073,6.23,0.09
		C6.202,0.108,6.17,0.122,6.146,0.146l-6,6C0.123,6.169,0.11,6.2,0.092,6.227c-0.018,0.027-0.041,0.05-0.053,0.08
		C0.014,6.368,0,6.433,0,6.5v15C0,21.776,0.224,22,0.5,22h11c0.276,0,0.5-0.224,0.5-0.5S11.776,21,11.5,21z M1.707,6L6,1.707V6
		H1.707z"/>
	<path d="M16.5,17c0.275,0,0.5,0.224,0.5,0.5s0.224,0.5,0.5,0.5s0.5-0.224,0.5-0.5c0-0.827-0.673-1.5-1.5-1.5S15,16.673,15,17.5v2
		c0,0.827,0.673,1.5,1.5,1.5s1.5-0.673,1.5-1.5c0-0.276-0.224-0.5-0.5-0.5S17,19.224,17,19.5S16.775,20,16.5,20S16,19.776,16,19.5
		v-2C16,17.224,16.225,17,16.5,17z"/>
	<path d="M21.5,19c-0.276,0-0.5,0.224-0.5,0.5S20.775,20,20.5,20S20,19.776,20,19.5v-2c0-0.276,0.225-0.5,0.5-0.5s0.5,0.224,0.5,0.5
		s0.224,0.5,0.5,0.5s0.5-0.224,0.5-0.5c0-0.827-0.673-1.5-1.5-1.5S19,16.673,19,17.5v2c0,0.827,0.673,1.5,1.5,1.5s1.5-0.673,1.5-1.5
		C22,19.224,21.776,19,21.5,19z"/>
</g>
</svg>
