<?xml version="1.0" encoding="iso-8859-1"?>
<!-- Generator: Adobe Illustrator 19.0.0, SVG Export Plug-In . SVG Version: 6.00 Build 0)  -->
<svg version="1.1" id="Layer_1" xmlns="http://www.w3.org/2000/svg" xmlns:xlink="http://www.w3.org/1999/xlink" x="0px" y="0px"
	 viewBox="0 0 24 24" style="enable-background:new 0 0 24 24;" xml:space="preserve">
<g>
	<path d="M18.5,13c-3.032,0-5.5,2.467-5.5,5.5s2.468,5.5,5.5,5.5s5.5-2.467,5.5-5.5S21.532,13,18.5,13z M18.5,23
		c-2.481,0-4.5-2.019-4.5-4.5s2.019-4.5,4.5-4.5s4.5,2.019,4.5,4.5S20.981,23,18.5,23z"/>
	<path d="M11.5,21H1V7h5.5C6.776,7,7,6.776,7,6.5V1h10v10.5c0,0.276,0.224,0.5,0.5,0.5s0.5-0.224,0.5-0.5v-11
		C18,0.224,17.776,0,17.5,0h-11C6.433,0,6.367,0.014,6.306,0.039c-0.019,0.008-0.033,0.023-0.05,0.034
		c-0.038,0.022-0.078,0.042-0.11,0.073l-6,6C0.123,6.169,0.11,6.2,0.092,6.227c-0.018,0.027-0.041,0.05-0.053,0.08
		C0.014,6.368,0,6.433,0,6.5v15C0,21.776,0.224,22,0.5,22h11c0.276,0,0.5-0.224,0.5-0.5S11.776,21,11.5,21z M1.707,6L6,1.707V6
		H1.707z"/>
	<path d="M19,18.064v-1.019c0.621,0.095,0.989,0.337,1.004,0.453c0.036,0.274,0.288,0.461,0.56,0.433
		c0.274-0.035,0.468-0.285,0.433-0.559c-0.088-0.694-0.899-1.222-1.997-1.345V15.5c0-0.276-0.224-0.5-0.5-0.5S18,15.224,18,15.5
		v0.528c-1.169,0.132-1.999,0.72-1.999,1.471c0,1,1.182,1.307,1.999,1.434v1.021c-0.621-0.095-0.988-0.338-1.003-0.454
		c-0.036-0.274-0.289-0.468-0.56-0.433c-0.274,0.035-0.468,0.285-0.433,0.559c0.088,0.695,0.898,1.223,1.996,1.346V21.5
		c0,0.276,0.224,0.5,0.5,0.5s0.5-0.224,0.5-0.5v-0.529c1.169-0.132,2-0.72,2-1.472C21,18.499,19.817,18.192,19,18.064z M17,17.499
		c0-0.101,0.359-0.354,1-0.453v0.874C17.015,17.742,17,17.502,17,17.499z M19,19.952v-0.874c0.986,0.179,1.001,0.42,1.001,0.423
		C20.001,19.58,19.664,19.849,19,19.952z"/>
</g>
</svg>
