<?xml version="1.0" encoding="iso-8859-1"?>
<!-- Generator: Adobe Illustrator 19.0.0, SVG Export Plug-In . SVG Version: 6.00 Build 0)  -->
<svg version="1.1" id="Layer_1" xmlns="http://www.w3.org/2000/svg" xmlns:xlink="http://www.w3.org/1999/xlink" x="0px" y="0px"
	 viewBox="0 0 24 24" style="enable-background:new 0 0 24 24;" xml:space="preserve">
<g>
	<path d="M20.523,23.609c0.037-0.015,0.075-0.026,0.112-0.041c0.292-0.123,0.568-0.275,0.832-0.445
		c0.037-0.024,0.075-0.044,0.112-0.069c0.274-0.186,0.529-0.398,0.765-0.629c0.013-0.013,0.029-0.021,0.042-0.034
		c0.003-0.003,0.003-0.006,0.005-0.009C23.385,21.388,24,20.014,24,18.5c0-3.033-2.468-5.5-5.5-5.5S13,15.467,13,18.5
		c0,1.514,0.615,2.887,1.609,3.883c0.002,0.003,0.003,0.007,0.005,0.009c0.013,0.013,0.029,0.022,0.042,0.035
		c0.236,0.231,0.491,0.442,0.765,0.628c0.036,0.025,0.075,0.045,0.112,0.069c0.264,0.17,0.54,0.321,0.832,0.445
		c0.037,0.016,0.075,0.026,0.112,0.041c0.297,0.118,0.606,0.215,0.926,0.28c0.021,0.004,0.042,0.006,0.062,0.009
		C17.8,23.963,18.146,24,18.5,24s0.7-0.037,1.035-0.101c0.021-0.004,0.042-0.005,0.062-0.009
		C19.917,23.824,20.226,23.728,20.523,23.609z M20.884,22.301c-0.091,0.057-0.189,0.104-0.284,0.154
		c-1.3,0.666-2.906,0.665-4.204-0.003c-0.092-0.049-0.186-0.094-0.274-0.149c-0.114-0.07-0.221-0.152-0.329-0.233
		c-0.077-0.058-0.15-0.121-0.223-0.184C16.096,20.746,17.236,20,18.501,20s2.403,0.746,2.931,1.886
		c-0.075,0.065-0.151,0.13-0.23,0.19C21.097,22.154,20.994,22.234,20.884,22.301z M18.5,19c-0.827,0-1.5-0.673-1.5-1.5
		s0.673-1.5,1.5-1.5s1.5,0.673,1.5,1.5S19.327,19,18.5,19z M18.5,14c2.481,0,4.5,2.019,4.5,4.5c0,0.978-0.322,1.877-0.854,2.616
		c-0.462-0.793-1.161-1.404-1.987-1.76C20.671,18.898,21,18.239,21,17.5c0-1.378-1.121-2.5-2.5-2.5S16,16.122,16,17.5
		c0,0.739,0.329,1.397,0.841,1.856c-0.826,0.356-1.525,0.967-1.987,1.76C14.322,20.377,14,19.478,14,18.5
		C14,16.019,16.019,14,18.5,14z"/>
	<path d="M11.5,21H1V7h5.5C6.776,7,7,6.776,7,6.5V1h10v10.5c0,0.276,0.224,0.5,0.5,0.5s0.5-0.224,0.5-0.5v-11
		C18,0.224,17.776,0,17.5,0h-11C6.433,0,6.367,0.014,6.306,0.039c-0.019,0.008-0.033,0.023-0.05,0.034
		c-0.038,0.022-0.078,0.042-0.11,0.073l-6,6C0.123,6.169,0.11,6.2,0.092,6.227c-0.018,0.027-0.041,0.05-0.053,0.08
		C0.014,6.368,0,6.433,0,6.5v15C0,21.776,0.224,22,0.5,22h11c0.276,0,0.5-0.224,0.5-0.5S11.776,21,11.5,21z M1.707,6L6,1.707V6
		H1.707z"/>
</g>
</svg>
