<?xml version="1.0" encoding="utf-8"?>
<!-- Generator: Adobe Illustrator 19.0.0, SVG Export Plug-In . SVG Version: 6.00 Build 0)  -->
<svg version="1.1" id="Layer_1" xmlns="http://www.w3.org/2000/svg" xmlns:xlink="http://www.w3.org/1999/xlink" x="0px" y="0px"
	 viewBox="0 0 30 30" style="enable-background:new 0 0 30 30;" xml:space="preserve">
<g>
	<g>
		<path d="M27,30H3c-1.7,0-3-1.4-3-3l0-11c0-1.7,1.4-3,3-3h8c0.3,0,0.6-0.2,0.7-0.5l0.6-2.2C12.6,9.5,13.3,9,14,9h7
			c0.8,0,1.4,0.5,1.7,1.2l0.7,2.3c0.1,0.2,0.3,0.5,0.6,0.5h3c1.7,0,3,1.3,3,3v11C30,28.6,28.7,30,27,30z M3,14c-1.1,0-2,0.9-2,2
			l0,11c0,1.1,0.9,2,2,2h24c1.1,0,2-0.9,2-2V16c0-1.1-0.9-2-2-2h-3c-0.7,0-1.3-0.5-1.6-1.2l-0.7-2.3C21.6,10.2,21.3,10,21,10h-7
			c-0.3,0-0.6,0.2-0.7,0.5l-0.6,2.2C12.4,13.5,11.8,14,11,14L3,14L3,14z"/>
	</g>
	<g>
		<path d="M5.5,11h-2C3.2,11,3,10.8,3,10.5S3.2,10,3.5,10h2C5.8,10,6,10.2,6,10.5S5.8,11,5.5,11z"/>
	</g>
	<g>
		<path d="M5.5,17h-2C3.2,17,3,16.8,3,16.5S3.2,16,3.5,16h2C5.8,16,6,16.2,6,16.5S5.8,17,5.5,17z"/>
	</g>
	<g>
		<path d="M22,10h-9c-0.1,0-0.3-0.1-0.4-0.2l-2.5-3C10.1,6.7,10,6.6,10,6.5v-6C10,0.2,10.2,0,10.5,0h14C24.8,0,25,0.2,25,0.5v6
			c0,0.1,0,0.2-0.1,0.3l-2.5,3C22.3,9.9,22.2,10,22,10z M13.2,9h8.5L24,6.3V1H11v5.3L13.2,9z"/>
	</g>
	<g>
		<path d="M22.5,6h-10C12.2,6,12,5.8,12,5.5v-3C12,2.2,12.2,2,12.5,2h10C22.8,2,23,2.2,23,2.5v3C23,5.8,22.8,6,22.5,6z M13,5h9V3h-9
			V5z"/>
	</g>
	<g>
		<path d="M17.5,28c-3.6,0-6.5-2.9-6.5-6.5s2.9-6.5,6.5-6.5s6.5,2.9,6.5,6.5S21.1,28,17.5,28z M17.5,16c-3,0-5.5,2.5-5.5,5.5
			s2.5,5.5,5.5,5.5s5.5-2.5,5.5-5.5S20.5,16,17.5,16z"/>
	</g>
</g>
</svg>
