<?xml version="1.0" encoding="utf-8"?>
<!-- Generator: Adobe Illustrator 19.0.0, SVG Export Plug-In . SVG Version: 6.00 Build 0)  -->
<svg version="1.1" id="Layer_1" xmlns="http://www.w3.org/2000/svg" xmlns:xlink="http://www.w3.org/1999/xlink" x="0px" y="0px"
	 viewBox="0 0 30 30" style="enable-background:new 0 0 30 30;" xml:space="preserve">
<g>
	<g>
		<path d="M28.5,27.5h-27C0.7,27.5,0,26.8,0,26V6c0-0.8,0.7-1.5,1.5-1.5h27C29.3,4.5,30,5.2,30,6v20C30,26.8,29.3,27.5,28.5,27.5z
			 M1.5,5.5C1.2,5.5,1,5.7,1,6v20c0,0.3,0.2,0.5,0.5,0.5h27c0.3,0,0.5-0.2,0.5-0.5V6c0-0.3-0.2-0.5-0.5-0.5H1.5z"/>
	</g>
	<g>
		<path d="M15,25.5c-5,0-9-4-9-9s4-9,9-9s9,4,9,9S20,25.5,15,25.5z M15,8.5c-4.4,0-8,3.6-8,8s3.6,8,8,8s8-3.6,8-8S19.4,8.5,15,8.5z"
			/>
	</g>
	<g>
		<path d="M22.5,13.5H15c-0.3,0-0.5-0.2-0.5-0.5s0.2-0.5,0.5-0.5h7.5c0.3,0,0.5,0.2,0.5,0.5S22.8,13.5,22.5,13.5z"/>
	</g>
	<g>
		<path d="M15,20.5H7.5C7.2,20.5,7,20.3,7,20s0.2-0.5,0.5-0.5H15c0.3,0,0.5,0.2,0.5,0.5S15.3,20.5,15,20.5z"/>
	</g>
	<g>
		<path d="M22.5,13.5H15c-0.3,0-0.5-0.2-0.5-0.5s0.2-0.5,0.5-0.5h7.5c0.3,0,0.5,0.2,0.5,0.5S22.8,13.5,22.5,13.5z"/>
	</g>
	<g>
		<path d="M15,20.5H7.5C7.2,20.5,7,20.3,7,20s0.2-0.5,0.5-0.5H15c0.3,0,0.5,0.2,0.5,0.5S15.3,20.5,15,20.5z"/>
	</g>
	<g>
		<path d="M6.5,5.5C6.2,5.5,6,5.3,6,5V4c0-0.3-0.2-0.5-0.5-0.5h-3C2.2,3.5,2,3.7,2,4v1c0,0.3-0.2,0.5-0.5,0.5S1,5.3,1,5V4
			c0-0.8,0.7-1.5,1.5-1.5h3C6.3,2.5,7,3.2,7,4v1C7,5.3,6.8,5.5,6.5,5.5z"/>
	</g>
	<g>
		<path d="M15,20.5c-2.2,0-4-1.8-4-4s1.8-4,4-4s4,1.8,4,4S17.2,20.5,15,20.5z M15,13.5c-1.7,0-3,1.3-3,3s1.3,3,3,3s3-1.3,3-3
			S16.7,13.5,15,13.5z"/>
	</g>
	<g>
		<path d="M11.5,17.5c-0.2,0-0.4-0.1-0.4-0.3l-3-6c-0.1-0.2,0-0.5,0.2-0.7c0.2-0.1,0.5,0,0.7,0.2l3,6c0.1,0.2,0,0.5-0.2,0.7
			C11.7,17.5,11.6,17.5,11.5,17.5z"/>
	</g>
	<g>
		<path d="M12.5,14.5c-0.1,0-0.2,0-0.3-0.1c-0.2-0.2-0.3-0.5-0.1-0.7l3.7-5.6c0.2-0.2,0.5-0.3,0.7-0.1c0.2,0.2,0.3,0.5,0.1,0.7
			l-3.7,5.6C12.8,14.4,12.7,14.5,12.5,14.5z"/>
	</g>
	<g>
		<path d="M21.5,22.5c-0.2,0-0.4-0.1-0.4-0.3l-3-6c-0.1-0.2,0-0.5,0.2-0.7c0.2-0.1,0.5,0,0.7,0.2l3,6c0.1,0.2,0,0.5-0.2,0.7
			C21.7,22.5,21.6,22.5,21.5,22.5z"/>
	</g>
	<g>
		<path d="M13.8,25.1c-0.1,0-0.2,0-0.3-0.1c-0.2-0.2-0.3-0.5-0.1-0.7l3.7-5.6c0.2-0.2,0.5-0.3,0.7-0.1c0.2,0.2,0.3,0.5,0.1,0.7
			l-3.7,5.6C14.1,25,14,25.1,13.8,25.1z"/>
	</g>
	<g>
		<circle cx="26" cy="8.5" r="1"/>
	</g>
</g>
</svg>
