<?xml version="1.0" encoding="utf-8"?>
<!-- Generator: Adobe Illustrator 19.0.0, SVG Export Plug-In . SVG Version: 6.00 Build 0)  -->
<svg version="1.1" id="Layer_1" xmlns="http://www.w3.org/2000/svg" xmlns:xlink="http://www.w3.org/1999/xlink" x="0px" y="0px"
	 viewBox="0 0 30 30" style="enable-background:new 0 0 30 30;" xml:space="preserve">
<g>
	<path d="M16.5,17h-3c-0.3,0-0.5,0.2-0.5,0.5s0.2,0.5,0.5,0.5h3c0.3,0,0.5-0.2,0.5-0.5S16.8,17,16.5,17z"/>
	<path d="M29.8,24.1L24,20.2L22,0.5c0-0.2-0.2-0.4-0.4-0.4s-0.4,0-0.5,0.2l-1.7,2.1C18.7,1.9,17.1,1,15,1s-3.7,0.9-4.4,1.3L8.9,0.2
		C8.8,0,8.6,0,8.4,0C8.2,0.1,8,0.2,8,0.5L6,20.2l-5.8,3.6C0.1,23.9,0,24.1,0,24.3v5.3C0,29.8,0.2,30,0.5,30h29
		c0.3,0,0.5-0.2,0.5-0.5v-5C30,24.3,29.9,24.2,29.8,24.1z M16.6,10l1.3-0.5L19.3,9c0.3-0.1,0.5,0.1,0.6,0.3c0.1,0.3-0.1,0.5-0.3,0.6
		l-0.7,0.2c0.1,0.1,0.1,0.2,0.1,0.3c0,0.3-0.2,0.5-0.5,0.5h-1.8c-0.2,0-0.4-0.2-0.5-0.4C16.2,10.4,16.3,10.1,16.6,10z M10,9.3
		c0.1-0.3,0.4-0.4,0.7-0.3l2.5,1c0.2,0.1,0.4,0.3,0.3,0.6c0,0.2-0.3,0.4-0.5,0.4h-1.5c-0.3,0-0.5-0.2-0.5-0.5v-0.3L10.3,10
		C10.1,9.9,9.9,9.6,10,9.3z M20.7,18.9l-3.8,2c-0.1,0-0.2,0.1-0.2,0.1H13c-0.1,0-0.2,0-0.2-0.1l-3.5-2C9.1,18.8,9,18.6,9,18.4l1-6
		c0-0.1,0.1-0.3,0.2-0.3c0.1-0.1,0.3-0.1,0.4,0l4.3,1.4l4.3-1.4c0.1,0,0.3,0,0.4,0s0.2,0.2,0.2,0.3l1,6C21,18.6,20.9,18.8,20.7,18.9
		z"/>
</g>
</svg>
