<?xml version="1.0" encoding="utf-8"?>
<!-- Generator: Adobe Illustrator 19.0.0, SVG Export Plug-In . SVG Version: 6.00 Build 0)  -->
<svg version="1.1" id="Layer_1" xmlns="http://www.w3.org/2000/svg" xmlns:xlink="http://www.w3.org/1999/xlink" x="0px" y="0px"
	 viewBox="0 0 30 30" style="enable-background:new 0 0 30 30;" xml:space="preserve">
<g>
	<path d="M6,11.4c0,0.2,0,0.3,0,0.5c0,1.7,0.8,3.1,1.8,3C8.9,18.5,11.8,21,15,21c2.6,0,5.1-1.9,6.5-4.7c0.7-0.5,1.3-1.1,1.4-1.9
		c0.6-0.4,1-1.5,1-2.8c0-0.2,0-0.3,0-0.5c0-0.2,0-0.4,0-0.6l0,0l0,0v0v0c0-0.2,0-0.3,0-0.5c0.1-0.4,0-0.7,0-1c0-0.2,0-0.3,0-0.5
		C24,3.7,20.3,0,15.5,0C9.9,0,6,3.5,6,8.5c0,0.2,0,0.4,0,0.6c0,0.5,0,0.9,0,1.4C5.9,10.8,5.9,11.1,6,11.4z M23,11c0,0.2,0,0.4,0,0.6
		c0,1-0.3,1.7-0.6,1.9c-0.1,0-0.2,0-0.2,0.1c0,0,0,0-0.1,0c-0.1-0.1-0.3-0.1-0.5,0c-0.1,0.1-0.3,0.2-0.3,0.3
		c-0.2,0.6-0.4,1.2-0.6,1.7c-1.2,0.6-3,0.9-3.8,0.9c-0.1,0-0.1,0-0.2,0c-0.2-0.3-0.7-0.5-1.3-0.5c-0.9,0-1.5,0.4-1.5,1s0.6,1,1.5,1
		c0.6,0,1.1-0.2,1.3-0.5c0.1,0,0.1,0,0.2,0c0.6,0,1.8-0.1,3-0.5c-1.3,1.8-3.1,3-5,3c-2.9,0-5.6-2.5-6.4-5.9c0-0.2-0.1-0.3-0.3-0.3
		c-0.1,0-0.1,0-0.2,0c-0.1,0-0.2,0-0.3,0.1c-0.1,0-0.1,0-0.1,0c-0.3,0-0.8-0.8-0.8-2c0-0.2,0-0.4,0-0.6c0-0.1,0-0.2,0-0.3h1.6
		C8.8,11,9,10.8,9,10.5c0-1.3,0.2-2.6,0.4-3.2c0-0.1,0.1-0.2,0.1-0.3c0.1,0,0.2,0,0.4,0c0.3,0,0.6,0,0.9,0c1.6,0,2.5-0.6,2.8-1.3
		C14.9,6.9,17.3,7.9,20,8c0.2,1.1,0.9,2.6,1,2.7c0.1,0.2,0.3,0.3,0.4,0.3L23,11C23,11,23,11,23,11z"/>
	<path d="M12.5,11h-1c-0.3,0-0.5,0.2-0.5,0.5s0.2,0.5,0.5,0.5h1c0.3,0,0.5-0.2,0.5-0.5S12.8,11,12.5,11z"/>
	<path d="M18.5,11h-1c-0.3,0-0.5,0.2-0.5,0.5s0.2,0.5,0.5,0.5h1c0.3,0,0.5-0.2,0.5-0.5S18.8,11,18.5,11z"/>
	<path d="M30,29.4l-1-3.9c-0.2-0.9-0.8-1.6-1.6-2L20.7,20c-0.1-0.1-0.3-0.1-0.4,0c-0.1,0.1-0.2,0.2-0.3,0.3l-3.1,7.9l-0.8-1.7
		c0.3-0.4,0.9-1.3,0.9-2.1c0-1.2-0.8-2.5-2-2.5s-2,1.3-2,2.5c0,0.8,0.6,1.7,0.9,2.1L13,28.3l-3.3-8c-0.1-0.1-0.2-0.2-0.3-0.3
		c-0.1,0-0.3,0-0.4,0l-6.5,3.2c-0.8,0.4-1.4,1.1-1.6,2l-1,4.1c0,0.1,0,0.3,0.1,0.4S0.3,30,0.5,30l29,0c0.2,0,0.3-0.1,0.4-0.2
		C30,29.7,30,29.5,30,29.4z"/>
</g>
</svg>
