<?xml version="1.0" encoding="utf-8"?>
<!-- Generator: Adobe Illustrator 19.0.0, SVG Export Plug-In . SVG Version: 6.00 Build 0)  -->
<svg version="1.1" id="Layer_1" xmlns="http://www.w3.org/2000/svg" xmlns:xlink="http://www.w3.org/1999/xlink" x="0px" y="0px"
	 viewBox="0 0 30 30" style="enable-background:new 0 0 30 30;" xml:space="preserve">
<path d="M30,29.4l-0.8-3c-0.4-1.4-1.4-2.5-2.8-3l-5.3-1.8c-1.4-0.6-2.1-3-2.2-3.8c0.9-0.8,1.4-2,1.4-3.2c0-0.7,0.3-0.8,0.2-0.8
	c0.2,0,0.3-0.2,0.3-0.3c0-0.1,0.7-1.7,0.7-2.7c0,0,0-0.1,0-0.1c-0.1-0.3-0.3-0.7-0.6-0.9V6.4c0-2-0.6-2.8-1.3-3.2
	c-0.1-1-1-3.1-4.7-3.1c-3.8,0-6.3,3.8-6.3,6.4c0,1.1,0,2.1-0.1,2.7c0,0.2,0,0.5,0,0.7C8.3,10,8.1,10.4,8,10.6c0,0,0,0.1,0,0.1
	c0,1,0.6,2.6,0.7,2.7c0.1,0.1,0.2,0.3,0.3,0.3c0,0,0.3,0.1,0.3,0.8c0,1.4,1.4,2.8,2,3.3c-0.1,0.8-0.7,3.1-2.1,3.7l-5.5,1.8
	c-1.4,0.5-2.4,1.6-2.8,3l-0.8,3c0,0.1,0,0.3,0.1,0.4C0.2,29.9,0.3,30,0.5,30h29c0.2,0,0.3-0.1,0.4-0.2C30,29.7,30,29.5,30,29.4z"/>
</svg>
