<?xml version="1.0" encoding="utf-8"?>
<!-- Generator: Adobe Illustrator 19.0.0, SVG Export Plug-In . SVG Version: 6.00 Build 0)  -->
<svg version="1.1" id="Layer_1" xmlns="http://www.w3.org/2000/svg" xmlns:xlink="http://www.w3.org/1999/xlink" x="0px" y="0px"
	 viewBox="0 0 30 30" style="enable-background:new 0 0 30 30;" xml:space="preserve">
<g>
	<path d="M4.6,8.6c0,1.1,2.5,2.5,4.1,3.2c0.2,0.8,0.9,3.2,2.1,4.1c0.3,0.2,0.5,0.4,0.7,0.6c0.9,0.7,1.8,1.5,3.5,1.5
		c1.5,0,2.6-0.8,3.7-1.6c0.2-0.2,0.4-0.3,0.6-0.5c1.2-0.9,1.8-3.2,1.9-4c1.6-0.7,4-1.8,4-3c0-0.3,0.9-1.2,1.4-1.7
		c1.2-1.3,1.9-2,1.6-2.7C28.2,4.3,28,4,27.4,4c-1.1,0-2.6,0.6-3.7,1.1c-0.4,0.2-1,0.4-1.3,0.5c-0.2-1-1.4-2.6-2.3-3.1
		C19.6,1.5,17.7,0,16.6,0c-0.7,0-1.3,0.2-1.6,0.4C14.7,0.2,14,0,13.2,0c-1.1,0-3.1,1.5-3.5,2.6c-0.9,0.4-1.8,2-2,3
		C7.4,5.5,6.9,5.3,6.5,5.2C5.3,4.6,3.8,3.9,2.6,4C2,4.1,1.8,4.3,1.7,4.6C1.5,5.2,2.1,5.9,3.3,7C3.7,7.5,4.6,8.4,4.6,8.6z M12.1,10
		h-1c-0.3,0-0.5-0.2-0.5-0.5S10.8,9,11.1,9h1c0.3,0,0.5,0.2,0.5,0.5S12.4,10,12.1,10z M18.9,10h-1c-0.3,0-0.5-0.2-0.5-0.5
		S17.6,9,17.9,9h1c0.3,0,0.5,0.2,0.5,0.5S19.2,10,18.9,10z M18.4,5.3l0.5-1.5c0.1-0.3,0.4-0.4,0.6-0.3c0.3,0.1,0.4,0.4,0.3,0.6
		l-0.5,1.5C19.3,5.9,19.1,6,18.9,6c-0.1,0-0.1,0-0.2,0C18.5,5.9,18.3,5.6,18.4,5.3z M16.5,7.1c1.9-1.9,3.8,0.1,4.7,1
		c0.2,0.2,0.2,0.5,0,0.7C21.2,9,21,9,20.9,9s-0.3,0-0.4-0.1c-1.6-1.6-2.4-1.9-3.3-1c-0.2,0.2-0.5,0.2-0.7,0S16.3,7.3,16.5,7.1z
		 M14.6,2.5c0-0.3,0.2-0.5,0.5-0.5s0.5,0.2,0.5,0.5v4c0,0.3-0.2,0.5-0.5,0.5s-0.5-0.2-0.5-0.5V2.5z M10.5,3c0.3-0.1,0.5,0.1,0.6,0.4
		l0.5,2c0.1,0.3-0.1,0.5-0.4,0.6c0,0-0.1,0-0.1,0c-0.2,0-0.4-0.2-0.5-0.4l-0.5-2C10.1,3.4,10.2,3.1,10.5,3z M8.8,8.1
		c0.9-0.9,2.9-2.9,4.7-1c0.2,0.2,0.2,0.5,0,0.7s-0.5,0.2-0.7,0c-0.9-0.9-1.7-0.6-3.3,1C9.4,9,9.2,9,9.1,9s-0.3,0-0.4-0.1
		C8.6,8.7,8.6,8.3,8.8,8.1z"/>
	<path d="M12.9,26.4c-1.8-2.5-4.8-6.4-5.9-7c-0.4-0.2-0.8-0.4-1.2-0.6c-0.2-0.1-0.4-0.1-0.6,0l-1.7,1.3c-0.1,0.1-0.1,0.1-0.2,0.2
		l-2.8,9c0,0.2,0,0.3,0.1,0.4C0.8,29.9,0.9,30,1.1,30h7.3c-0.6-1.4-2-4.8-2.7-6.3c-0.1-0.2,0-0.5,0.2-0.7c0.2-0.1,0.5,0,0.7,0.2
		C7.4,25,9,28.9,9.4,30h4.2v-3.1C13.3,26.8,13.1,26.6,12.9,26.4z"/>
	<path d="M29.4,29.3l-3-9c0-0.1-0.1-0.2-0.2-0.2l-1.7-1.3c-0.2-0.1-0.4-0.1-0.6,0c-0.4,0.2-0.8,0.4-1.2,0.6
		c-1.1,0.5-5.1,4.6-7.5,7.1c-0.2,0.2-0.4,0.3-0.6,0.4V30h5.9c0.3-1.2,1.1-5,2-6.7c0.1-0.3,0.4-0.4,0.7-0.2c0.2,0.1,0.4,0.4,0.2,0.7
		c-0.7,1.5-1.5,4.9-1.8,6.3h7.4c0.2,0,0.3-0.1,0.4-0.2C29.4,29.7,29.4,29.5,29.4,29.3z"/>
	<path d="M22.3,18.5c2.1-0.9,3.1-1.9,3-3c0-1-1-2-2.7-2.6c-0.1,0-0.3,0-0.4,0c-0.1,0.1-0.2,0.2-0.3,0.3c-0.3,1.2-1,2.7-2.1,3.5
		c-0.2,0.1-0.4,0.3-0.6,0.4C18.3,18,17,19,15.1,19c-2.1,0-3.2-0.9-4.2-1.7c-0.2-0.2-0.4-0.4-0.7-0.5c-1.1-0.8-1.8-2.4-2.2-3.6
		c0-0.1-0.1-0.2-0.3-0.3c-0.1-0.1-0.3-0.1-0.4,0c-1.3,0.5-2.7,1.5-2.8,2.8c0,1.1,0.9,2,2.8,2.8l0,0c0,0,0,0,0,0
		c1.2,0.5,4.4,4.7,6.3,7.3c0.1,0.1,0.2,0.2,0.4,0.2c0,0,0,0,0,0c0.1,0,0.3-0.1,0.4-0.2C16.2,24,21,19.1,22.3,18.5z"/>
</g>
</svg>
