<?xml version="1.0" encoding="utf-8"?>
<!-- Generator: Adobe Illustrator 19.0.0, SVG Export Plug-In . SVG Version: 6.00 Build 0)  -->
<svg version="1.1" id="Layer_1" xmlns="http://www.w3.org/2000/svg" xmlns:xlink="http://www.w3.org/1999/xlink" x="0px" y="0px"
	 viewBox="0 0 30 30" style="enable-background:new 0 0 30 30;" xml:space="preserve">
<g>
	<path d="M24.5,21.9c-0.1-0.1-0.2-0.2-0.3-0.3l-4.8-1.9c-0.1,0-0.2,0-0.4,0L19,19.8c-0.1,0-0.1,0-0.1,0.1c-0.1,0-0.2,0.1-0.2,0.1
		c0,0-0.7,0.7-1.2,1.2c0,0-0.4,0.3-0.3,0.3c-0.1,0.1-0.1,0.1-0.1,0.1C16.8,21.8,16.4,22,16,22h-2c-0.3,0-0.6-0.1-0.8-0.3l-1.5-1
		c-0.2-0.2-0.4-0.4-0.5-0.7c0-0.1-0.1-0.2-0.3-0.3c-0.1-0.1-0.3-0.1-0.4,0l-4.8,1.9c-0.1,0.1-0.2,0.1-0.3,0.3s0,0.3,0,0.4l3.2,7.3
		C8.7,29.9,8.9,30,9.1,30h11.3c0.2,0,0.4-0.1,0.4-0.3l3.7-7.4C24.6,22.2,24.6,22.1,24.5,21.9z"/>
	<path d="M30,29.4l-1.3-5.3c-0.2-0.9-0.8-1.7-1.5-2.1l-0.6-0.4c-0.1-0.1-0.3-0.1-0.4-0.1c-0.1,0-0.3,0.1-0.3,0.3l-3.7,7.4
		c-0.1,0.2-0.1,0.3,0,0.5s0.3,0.2,0.4,0.2h6.9c0.2,0,0.3-0.1,0.4-0.2C30,29.7,30,29.5,30,29.4z"/>
	<path d="M4.1,21.8c-0.1-0.1-0.2-0.2-0.3-0.3c-0.1,0-0.3,0-0.4,0L2.6,22c-0.8,0.4-1.4,1.2-1.6,2.1l-1,5.3c0,0.1,0,0.3,0.1,0.4
		C0.2,29.9,0.4,30,0.5,30h6.4c0.2,0,0.3-0.1,0.4-0.2s0.1-0.3,0-0.5L4.1,21.8z"/>
	<path d="M5.5,20c0,0,0.1,0,0.1,0c0.3-0.1,0.4-0.3,0.4-0.6C3.9,10.9,5.3,7.5,6.3,6.2c0.6-0.7,1.3-1.1,2-1.1C8.1,5.8,8,6.5,8,7.4
		c-0.9,2-3.3,7-0.9,11.4C7.2,18.9,7.3,19,7.5,19c0.1,0,0.2,0,0.2-0.1c0.2-0.1,0.3-0.4,0.2-0.7c-1.6-3-0.7-6.5,0.2-8.8
		c0.2,0.9,0.5,1.8,1.2,2.6C8.8,13.1,8,14.5,8,15.5c0,1.5,2.4,3.1,3.8,3.5l0.2,0.1v-3.6c0-0.2,0.1-0.3,0.2-0.4l1.5-1
		c0.2-0.2,0.5-0.1,0.7,0.1c0.2,0.2,0.1,0.5-0.1,0.7L13,15.8v4.5l1.2,0.8h1.6l1.2-1.2v-4l-1.3-0.9c-0.2-0.2-0.3-0.5-0.1-0.7
		c0.2-0.2,0.5-0.3,0.7-0.1l1.5,1c0.1,0.1,0.2,0.2,0.2,0.4v3.6l0.1-0.1c1.3-0.1,3.9-1.7,3.9-3.5c0-1-0.4-2.9-0.9-4
		c0.4-0.6,0.7-1.3,0.8-2c0.9,2.3,1.8,5.7,0.2,8.7c-0.1,0.2,0,0.5,0.2,0.7c0.1,0,0.2,0.1,0.2,0.1c0.2,0,0.4-0.1,0.4-0.3
		c2.3-4.3,0-9.4-0.9-11.4c0-0.8-0.2-1.6-0.4-2.3c0.7,0.2,1.4,0.6,1.9,1.3c1.1,1.4,2.6,4.9,0.5,13c-0.1,0.3,0.1,0.5,0.4,0.6
		c0,0,0.1,0,0.1,0c0.2,0,0.4-0.2,0.5-0.4c2.1-8.6,0.5-12.4-0.7-13.9c-0.8-1.1-2-1.7-3.2-1.7c-1.3-2.4-3.8-4-6.6-4
		c-2.7,0-4.8,1.6-5.9,4c0,0-0.1,0-0.1,0c-1.2,0-2.2,0.6-3,1.5C3.6,8,3.4,13,5,19.6C5.1,19.8,5.3,20,5.5,20z M15.3,11.5
		c1-0.4,3.9-1.5,4.8-2.4C20.3,9,20.5,9,20.7,9C20.9,9.1,21,9.3,21,9.5c0,2.2-1.3,4.5-3.5,4.5c-1.8,0-2.4-1.3-2.5-1.9
		C15,11.8,15.1,11.6,15.3,11.5z M9.3,9C9.5,9,9.7,9,9.9,9.1c0.9,0.9,3.8,2,4.8,2.4c0.2,0.1,0.4,0.3,0.3,0.5
		c-0.1,0.7-0.7,1.9-2.5,1.9C10.3,14,9,11.7,9,9.5C9,9.3,9.1,9.1,9.3,9z"/>
</g>
</svg>
