<?xml version="1.0" encoding="utf-8"?>
<!-- Generator: Adobe Illustrator 19.0.0, SVG Export Plug-In . SVG Version: 6.00 Build 0)  -->
<svg version="1.1" id="Layer_1" xmlns="http://www.w3.org/2000/svg" xmlns:xlink="http://www.w3.org/1999/xlink" x="0px" y="0px"
	 viewBox="0 0 30 30" style="enable-background:new 0 0 30 30;" xml:space="preserve">
<g>
	<path d="M4.7,24.5c-0.3-0.1-1.6-1.6-1.7-2.1c0-0.2-0.2-0.3-0.3-0.4c-0.2-0.1-0.4,0-0.5,0.1C1.3,23,0.8,27.6,1,29.5
		C1,29.8,1.2,30,1.5,30H3c0.3,0,0.5-0.2,0.5-0.5C3.5,29,4,27.9,4.4,27C5,25.8,5.2,25.3,5,24.9C4.9,24.7,4.8,24.6,4.7,24.5z
		 M3.5,26.6c-0.4,0.8-0.8,1.7-0.9,2.4H2c-0.1-1.7,0.2-4.1,0.6-5.3C3,24.3,3.6,25,4,25.3C3.9,25.6,3.7,26.2,3.5,26.6z"/>
	<path d="M27.9,22.1C27.7,22,27.5,22,27.4,22c-0.2,0.1-0.3,0.2-0.3,0.4c-0.1,0.5-1.3,2-1.7,2.1c-0.1,0-0.3,0.2-0.4,0.3
		c-0.2,0.4,0,1,0.4,2.4C25.7,28,26,29,26,29.5c0,0.3,0.2,0.5,0.5,0.5h2c0.3,0,0.5-0.2,0.5-0.5C29.2,27.6,28.7,23,27.9,22.1z M28,29
		H27c-0.1-0.6-0.4-1.4-0.6-2.1c-0.2-0.5-0.4-1.2-0.4-1.5c0.5-0.3,1.1-1,1.6-1.7C27.8,24.9,28.1,27.3,28,29z"/>
	<path d="M18.6,25.4c0.6,0,1.1,0.1,1.5,0.1c0.9,0,1.4-0.2,1.9-0.7c0.2,0.1,0.3,0.2,0.5,0.2c0,0,0,0,0.1,0c1.2,0,2.9-2.5,3.4-3.2
		c0.1-0.1,0.1-0.3,0-0.5S25.8,21,25.6,21c-0.8-0.1-3.1-0.6-3.9-1C21.6,20,21.5,20,21.4,20c-0.2,0-0.5,0.1-0.7,0.6
		c-0.6-0.5-1-0.5-1.1-0.6c-0.3,0-0.5,0.1-0.6,0.4c0,0.3,0.1,0.5,0.4,0.6c0,0,0.5,0.1,1.2,0.9c0,0,0,0,0,0c0.1,0.7,0.3,1.5,0.7,2.2
		c0,0,0,0,0,0c-0.3,0.5-0.5,0.5-2.7,0.4c-1.3-0.1-1.9-0.4-1.9-0.4c0,0,0,0-0.1,0l0.3-1.4c0-0.1,0-0.3-0.1-0.4
		C16.8,22.1,16.1,21,15,21s-1.8,1.1-1.9,1.2C13,22.3,13,22.5,13,22.6l0.3,1.4c0,0-1,0.4-2.4,0.5l-0.4,0c-1.5,0.1-1.8,0.1-2-0.2
		c0.4-0.7,0.7-1.7,0.8-2.4c0,0,0,0,0,0c0.7-0.7,1.2-0.9,1.2-0.9c0.3,0,0.5-0.3,0.4-0.6c0-0.3-0.3-0.5-0.6-0.4
		c-0.1,0-0.5,0.1-1.1,0.6C9.2,20,8.8,20,8.6,20c-0.1,0-0.2,0-0.4,0.1c-0.7,0.4-3,0.8-3.9,1c-0.2,0-0.3,0.1-0.4,0.3s-0.1,0.3,0,0.5
		C4.6,22.5,6.2,25,7.5,25c0,0,0,0,0,0c0,0,0,0,0.1,0c0.1,0,0.1,0,0.2,0c0.4,0.5,0.8,0.6,1.6,0.6c0.4,0,0.8,0,1.3-0.1l0.4,0
		c1.2-0.1,2.1-0.4,2.5-0.5l0.2,1c0,0-0.1,0.1-0.1,0.1c0,0-0.5,0.5-2.4,0.8C10,27.2,8.3,26.7,8,26.3c0.1-0.2,0-0.5-0.3-0.6
		c-0.2-0.1-0.5,0-0.7,0.2c-0.1,0.3-0.1,0.7,0.1,0.9c0.5,0.7,2.1,1.1,3.4,1.1c0.3,0,0.6,0,0.8-0.1c1.4-0.2,2.2-0.6,2.6-0.8l0.3,1.3
		c-0.1-0.1-0.3-0.1-0.5,0c0,0-0.9,0.5-3.5,0.5c-1.9,0-3-0.4-3.3-0.6c0.1-0.2,0-0.4-0.1-0.5c-0.2-0.2-0.5-0.2-0.7,0
		c-0.2,0.2-0.3,0.5-0.1,0.8c0.3,0.8,2,1.3,4.3,1.3c2.9,0,3.9-0.6,4-0.7c0,0,0,0,0.1-0.1l0.1,0.4c0.1,0.2,0.3,0.4,0.5,0.4
		s0.4-0.2,0.5-0.4l0-0.2c0.5,0.2,1.6,0.6,3.7,0.6c2.3,0,3.9-0.5,4.3-1.3c0.1-0.3,0.1-0.6-0.1-0.8c-0.2-0.2-0.5-0.2-0.7,0
		c-0.1,0.1-0.2,0.3-0.1,0.5c-0.3,0.2-1.3,0.6-3.3,0.6c-2.6,0-3.5-0.5-3.5-0.5c0,0,0,0,0,0l0.3-1.3c0.4,0.2,1.2,0.6,2.6,0.8
		c0.2,0,0.5,0.1,0.8,0.1c1.3,0,2.9-0.4,3.4-1.1c0.2-0.3,0.3-0.6,0.1-0.9c-0.1-0.3-0.4-0.4-0.7-0.2c-0.2,0.1-0.3,0.4-0.3,0.6
		c-0.3,0.3-2,0.8-3.2,0.6c-1.9-0.3-2.4-0.8-2.4-0.8l0,0c0-0.1-0.1-0.1-0.1-0.1l0.2-1C16.8,25.2,17.5,25.4,18.6,25.4z M24.7,21.9
		C23.8,23,22.9,24,22.5,24c-0.1,0-0.3-0.2-0.5-0.8c-0.3-0.8-0.4-1.7-0.4-2.1C22.4,21.4,23.8,21.7,24.7,21.9z M7.5,24.5V24
		c-0.4,0-1.3-0.9-2.1-2.1c0.9-0.2,2.3-0.5,3.1-0.8c0,0.4-0.1,1.3-0.4,2.1C7.7,23.8,7.5,24,7.5,24L7.5,24.5z M14,22.6
		c0.2-0.3,0.6-0.6,1-0.6c0.4,0,0.7,0.4,1,0.6l-1,4.5L14,22.6z"/>
	<path d="M11.8,11c0.2,0,0.6-0.3,0.9-0.8C12.9,10,13,9.6,13,9.4c0-0.2,0-0.3-0.1-0.3c0,0,0,0,0,0c-0.3,0-0.7,0.3-1,0.8
		C11.5,10.5,11.6,11,11.8,11L11.8,11z"/>
	<path d="M18.2,11C18.3,11,18.3,11,18.2,11c0.1,0,0.2-0.2,0.2-0.3c0-0.3-0.1-0.6-0.3-0.9C17.8,9.3,17.4,9,17.2,9
		C17,9.1,17,9.2,17,9.4c0,0.3,0.1,0.6,0.3,0.9C17.6,10.8,18,11,18.2,11z"/>
	<path d="M19.4,13.7c0,0,0,0.1,0,0.2c-0.2,0.9-0.7,3-4.4,3s-4.2-2.1-4.4-3c0-0.1-0.1-0.2-0.1-0.3c-0.1-0.1-0.5-0.3-0.8-0.5
		C9.5,13.1,9.3,13,9,12.9c0,0,0,0.1,0,0.1c0,1.9,1.1,7,6,7c4.9,0,6-4.9,6-6.8c-0.3,0.1-0.5,0.2-0.8,0.3
		C19.9,13.5,19.5,13.7,19.4,13.7z"/>
	<path d="M8.7,10.1C8.9,9.8,9,9.7,9,9.5C9,9.2,9.2,9,9.5,9S10,9.2,10,9.5c0,0.5-0.3,0.9-0.6,1.2C9.2,11,9,11.2,9,11.5
		c0,0.2,0.8,0.7,1.2,0.9c0.6,0.3,1.1,0.5,1.2,0.9c0.1,0.1,0.1,0.3,0.1,0.5c0.2,0.8,0.5,2.2,3.4,2.2s3.2-1.4,3.4-2.2
		c0-0.2,0.1-0.3,0.1-0.5c0.2-0.4,0.7-0.6,1.4-0.8c0.3-0.1,1.1-0.3,1.1-0.5c0-0.4-0.2-0.7-0.5-1.1C20.3,10.4,20,10,20,9.5
		C20,9.2,20.2,9,20.5,9S21,9.2,21,9.5c0,0.2,0.2,0.5,0.4,0.9c0,0.1,0.1,0.2,0.1,0.2c0.5-0.9,1-1.8,1-3.1C22.5,3.4,19.1,0,15,0
		c-4.5,0-8,3.3-8,7.5c0,1.6,0.7,3.1,1,3.7C8.1,10.7,8.4,10.3,8.7,10.1z M16.6,8.2c0.7-0.4,1.8,0.1,2.4,1.1c0.3,0.5,0.4,1,0.4,1.4
		c0,0.5-0.2,1-0.6,1.2C18.6,12,18.4,12,18.2,12c-0.6,0-1.3-0.5-1.8-1.3c-0.3-0.5-0.4-1-0.4-1.4C16,8.9,16.2,8.4,16.6,8.2z M15,12
		c0.3,0,0.7,0,1.5,2.3c0.1,0.3-0.1,0.5-0.3,0.6s-0.5-0.1-0.6-0.3c-0.2-0.5-0.4-1-0.5-1.3c-0.2,0.3-0.4,0.8-0.5,1.3
		C14.4,14.9,14.2,15,14,15c-0.1,0-0.1,0-0.2,0c-0.3-0.1-0.4-0.4-0.3-0.6C14.3,12,14.7,12,15,12z M11,9.3c0.6-1,1.7-1.5,2.4-1.1
		C13.8,8.4,14,8.9,14,9.4c0,0.4-0.2,0.9-0.4,1.4c-0.5,0.8-1.2,1.3-1.8,1.3c-0.2,0-0.4-0.1-0.6-0.2C10.5,11.5,10.4,10.3,11,9.3z"/>
</g>
</svg>
