<?xml version="1.0" encoding="utf-8"?>
<!-- Generator: Adobe Illustrator 19.0.0, SVG Export Plug-In . SVG Version: 6.00 Build 0)  -->
<svg version="1.1" id="Layer_1" xmlns="http://www.w3.org/2000/svg" xmlns:xlink="http://www.w3.org/1999/xlink" x="0px" y="0px"
	 viewBox="0 0 30 30" style="enable-background:new 0 0 30 30;" xml:space="preserve">
<g>
	<path d="M12.5,11h-1c-0.3,0-0.5,0.2-0.5,0.5s0.2,0.5,0.5,0.5h1c0.3,0,0.5-0.2,0.5-0.5S12.8,11,12.5,11z"/>
	<path d="M18.5,11h-1c-0.3,0-0.5,0.2-0.5,0.5s0.2,0.5,0.5,0.5h1c0.3,0,0.5-0.2,0.5-0.5S18.8,11,18.5,11z"/>
	<rect x="21" y="27" width="3" height="3"/>
	<path d="M29.1,25.1c-0.3-1.4-1.2-2.6-2.5-3.1l-5.2-2.7c0,0,0-0.1,0-0.1L20.5,18c0.8-0.9,1.4-2,1.7-3.3c0,0,0,0,0,0
		c1,0,1.8-1.3,1.8-3c0-0.3,0-0.5-0.1-0.8h0.6c0.3,0,0.5-0.2,0.5-0.5C25,4.1,21.1,0,15,0S5,4.1,5,10.5C5,10.8,5.2,11,5.5,11h0.7
		c-0.1,0.3-0.1,0.6-0.1,0.9c0,1.7,0.8,3,1.8,3c0.3,1.1,0.8,2.1,1.5,3l-1.2,1.3C8.1,19.2,8,19.3,8,19.4l-4.6,2.3
		c-1.3,0.5-2.3,1.7-2.6,3.1L0,29.4c0,0.1,0,0.3,0.1,0.4C0.2,29.9,0.4,30,0.5,30H14v-8.1c-1.7-0.2-3.4-1.1-4.8-2.5l0.7-0.7
		c1.3,1.5,3.1,2.3,4.9,2.3c1.8,0,3.6-0.8,4.9-2.2l0.6,0.8C18.9,21.1,17,22,15,22v8h5v-3.5c0-0.3,0.2-0.5,0.5-0.5h4
		c0.3,0,0.5,0.2,0.5,0.5V30h4.5c0.1,0,0.3-0.1,0.4-0.2s0.1-0.3,0.1-0.4L29.1,25.1z M8.8,21.9l-4,3C4.7,25,4.6,25,4.5,25
		c-0.2,0-0.3-0.1-0.4-0.2c-0.2-0.2-0.1-0.5,0.1-0.7l4-3c0.2-0.2,0.5-0.1,0.7,0.1C9.1,21.4,9,21.7,8.8,21.9z M14.9,20
		c-2.8,0-5.4-2.4-6.2-5.8c0-0.2-0.1-0.3-0.3-0.3c-0.1-0.1-0.3,0-0.5,0c-0.1,0-0.1,0-0.1,0c-0.3,0-0.8-0.8-0.8-2
		c0-0.4,0.1-0.9,0.2-1.2c0,0,0,0,0-0.1l0.9-1.5C9,9.5,10.9,10,15,10c3,0,4.8-0.3,5.6-0.8l2.1,1.7c0.1,0.1,0.2,0.1,0.2,0.1
		c0,0.2,0.1,0.5,0.1,0.8c0,1.2-0.5,2-0.8,2c0,0,0,0-0.1,0c-0.1-0.1-0.3-0.1-0.5,0c-0.1,0.1-0.3,0.2-0.3,0.3
		C20.5,17.4,17.7,20,14.9,20z M25.9,24.8c-0.1,0.1-0.2,0.2-0.4,0.2c-0.1,0-0.2,0-0.3-0.1l-4-3c-0.2-0.2-0.3-0.5-0.1-0.7
		c0.2-0.2,0.5-0.3,0.7-0.1l4,3C26,24.3,26.1,24.6,25.9,24.8z"/>
</g>
</svg>
