<?xml version="1.0" encoding="iso-8859-1"?>
<!-- Generator: Adobe Illustrator 19.0.0, SVG Export Plug-In . SVG Version: 6.00 Build 0)  -->
<svg version="1.1" id="Layer_1" xmlns="http://www.w3.org/2000/svg" xmlns:xlink="http://www.w3.org/1999/xlink" x="0px" y="0px"
	 viewBox="0 0 24 24" style="enable-background:new 0 0 24 24;" xml:space="preserve">
<g>
	<g>
		<path d="M19.003,20h-3c-1.103,0-2,0.897-2,2v1.5c0,0.276,0.224,0.5,0.5,0.5h4.5c1.103,0,2-0.897,2-2
			C21.003,20.897,20.106,20,19.003,20z M8.003,20h-3c-1.103,0-2,0.897-2,2c0,1.103,0.897,2,2,2h4.5c0.276,0,0.5-0.224,0.5-0.5V22
			C10.003,20.897,9.106,20,8.003,20z M12.385,17.5h-0.764l-1.618,0.809V22c0,1.103,0.897,2,2,2c1.103,0,2-0.897,2-2v-3.691
			L12.385,17.5z M12.003,5c-2.206,0-4,1.794-4,4s1.794,4,4,4s4-1.794,4-4S14.209,5,12.003,5z M12.003,8c-0.551,0-1,0.449-1,1
			c0,0.276-0.224,0.5-0.5,0.5s-0.5-0.224-0.5-0.5c0-1.103,0.897-2,2-2c0.276,0,0.5,0.224,0.5,0.5S12.279,8,12.003,8z M23.993,10.45
			c-0.001-0.012,0.004-0.023,0.002-0.036l-0.184-1.057c-0.012-0.069-0.038-0.134-0.077-0.192C23.463,8.76,23.016,8.512,22.537,8.5
			c-0.346-0.008-1.034-0.288-1.56-0.879c0.01-0.04,0.024-0.078,0.024-0.121v-7c0-0.276-0.224-0.5-0.5-0.5s-0.5,0.224-0.5,0.5v4.943
			C18.603,2.136,15.545,0,12.001,0C7.967,0,4.558,2.764,3.536,6.817C3.084,7.969,1.947,8.489,1.466,8.5
			C0.987,8.512,0.54,8.76,0.269,9.165C0.23,9.223,0.205,9.289,0.192,9.357l-0.184,1.057c-0.002,0.013,0.004,0.024,0.002,0.037
			C0.008,10.468,0,10.482,0,10.5c0,1.156,2.388,1.931,7.084,2.308l1.745,4.363c0.109,0.272,0.426,0.392,0.688,0.262l1.759-0.879
			c0.069-0.035,0.146-0.053,0.224-0.053h1c0.078,0,0.154,0.018,0.224,0.053l1.8,0.9c0.247,0.124,0.547,0.023,0.671-0.224
			l2.232-4.464C21.788,12.375,24,11.614,24,10.501C24.003,10.483,23.995,10.467,23.993,10.45z M1.61,10.822l4.495-0.749
			c0.109,0.602,0.307,1.172,0.582,1.697C3.89,11.516,2.361,11.126,1.61,10.822z M12.003,14c-2.757,0-5-2.243-5-5s2.243-5,5-5
			c2.757,0,5,2.243,5,5S14.76,14,12.003,14z M17.32,11.771c0.275-0.525,0.472-1.096,0.582-1.697l4.495,0.749
			C21.645,11.126,20.116,11.516,17.32,11.771z"/>
	</g>
</g>
</svg>
