<?xml version="1.0" encoding="iso-8859-1"?>
<!-- Generator: Adobe Illustrator 19.0.0, SVG Export Plug-In . SVG Version: 6.00 Build 0)  -->
<svg version="1.1" id="Layer_1" xmlns="http://www.w3.org/2000/svg" xmlns:xlink="http://www.w3.org/1999/xlink" x="0px" y="0px"
	 viewBox="0 0 24 24" style="enable-background:new 0 0 24 24;" xml:space="preserve">
<g>
	<g>
		<path d="M12,24c-0.213,0-0.404-0.136-0.473-0.338c-0.008-0.024-0.83-2.394-2.137-4.073C5.86,18.453,3.5,15.222,3.5,11.5
			C3.5,6.813,7.313,3,12,3s8.5,3.813,8.5,8.5c0,3.722-2.36,6.953-5.89,8.089c-1.31,1.683-2.128,4.049-2.137,4.073
			C12.404,23.864,12.214,24,12,24z M12,4c-4.136,0-7.5,3.364-7.5,7.5c0,3.331,2.142,6.216,5.331,7.179
			c0.096,0.029,0.181,0.086,0.244,0.164c0.858,1.062,1.517,2.373,1.925,3.306c0.409-0.933,1.067-2.244,1.925-3.306
			c0.063-0.078,0.148-0.135,0.244-0.164c3.188-0.963,5.331-3.848,5.331-7.179C19.5,7.364,16.136,4,12,4z"/>
	</g>
	<g>
		<path d="M19.5,10h-15C4.224,10,4,9.776,4,9.5S4.224,9,4.5,9h15C19.776,9,20,9.224,20,9.5S19.776,10,19.5,10z"/>
	</g>
	<g>
		<path d="M19.5,14h-15C4.224,14,4,13.776,4,13.5S4.224,13,4.5,13h15c0.276,0,0.5,0.224,0.5,0.5S19.776,14,19.5,14z"/>
	</g>
	<g>
		<path d="M15,4.5c-0.276,0-0.5-0.224-0.5-0.5V2.5C14.5,1.673,13.827,1,13,1h-2c-0.827,0-1.5,0.673-1.5,1.5V4
			c0,0.276-0.224,0.5-0.5,0.5S8.5,4.276,8.5,4V2.5C8.5,1.122,9.622,0,11,0h2c1.378,0,2.5,1.122,2.5,2.5V4
			C15.5,4.276,15.276,4.5,15,4.5z"/>
	</g>
</g>
<g>
</g>
<g>
</g>
<g>
</g>
<g>
</g>
<g>
</g>
<g>
</g>
<g>
</g>
<g>
</g>
<g>
</g>
<g>
</g>
<g>
</g>
<g>
</g>
<g>
</g>
<g>
</g>
<g>
</g>
</svg>
