<?xml version="1.0" encoding="iso-8859-1"?>
<!-- Generator: Adobe Illustrator 19.0.0, SVG Export Plug-In . SVG Version: 6.00 Build 0)  -->
<svg version="1.1" id="Layer_1" xmlns="http://www.w3.org/2000/svg" xmlns:xlink="http://www.w3.org/1999/xlink" x="0px" y="0px"
	 viewBox="0 0 24 24" style="enable-background:new 0 0 24 24;" xml:space="preserve">
<g>
	<g>
		<path d="M3,12c-1.654,0-3-1.346-3-3s1.346-3,3-3s3,1.346,3,3S4.654,12,3,12z M3,7C1.897,7,1,7.897,1,9s0.897,2,2,2s2-0.897,2-2
			S4.103,7,3,7z"/>
	</g>
	<g>
		<path d="M12,24c-8.245,0-12-2.592-12-5c0-1.794,0.733-5.5,3-5.5c0.738,0,1.574,0.226,2.632,0.511C7.264,14.452,9.295,15,12,15
			s4.736-0.548,6.368-0.989C19.426,13.726,20.262,13.5,21,13.5c2.267,0,3,3.706,3,5.5C24,21.408,20.245,24,12,24z M3,14.5
			c-1.239,0-2,2.621-2,4.5c0,1.546,2.986,4,11,4s11-2.454,11-4c0-1.879-0.761-4.5-2-4.5c-0.606,0-1.385,0.21-2.371,0.477
			C17.029,15.409,14.838,16,12,16s-5.029-0.591-6.629-1.023C4.385,14.71,3.606,14.5,3,14.5z"/>
	</g>
	<g>
		<path d="M20.5,14.5c-0.276,0-0.5-0.224-0.5-0.5c0-8.444-4.614-13-6.5-13c-1.177,0-1.495,0.265-1.803,0.521
			C11.441,1.735,11.123,2,10.5,2C9.822,2,9.48,1.694,9.205,1.448C8.925,1.198,8.704,1,8,1C6.638,1,3,3.675,3,6.5
			C3,6.776,2.776,7,2.5,7S2,6.776,2,6.5C2,3.143,6.125,0,8,0c1.085,0,1.54,0.406,1.872,0.703C10.1,0.907,10.204,1,10.5,1
			c0.261,0,0.347-0.072,0.557-0.247C11.438,0.435,11.961,0,13.5,0C16.144,0,21,5.315,21,14C21,14.276,20.776,14.5,20.5,14.5z"/>
	</g>
	<g>
		<path d="M4.5,7C4.372,7,4.244,6.951,4.146,6.854c-0.195-0.195-0.195-0.512,0-0.707C5.093,5.2,8.274,4,10.5,4
			C10.776,4,11,4.224,11,4.5S10.776,5,10.5,5C8.443,5,5.568,6.139,4.854,6.854C4.756,6.951,4.628,7,4.5,7z"/>
	</g>
	<g>
		<path d="M3.5,14.5C3.224,14.5,3,14.276,3,14c0-0.959,0.94-2.985,1.048-3.213c0.118-0.25,0.415-0.358,0.665-0.239
			c0.25,0.117,0.357,0.415,0.239,0.665C4.491,12.194,4,13.504,4,14C4,14.276,3.776,14.5,3.5,14.5z"/>
	</g>
	<g>
		<path d="M5.5,8.5c-0.052,0-0.106-0.008-0.158-0.026C5.08,8.387,4.938,8.104,5.026,7.842C5.095,7.634,5.73,5.792,6.709,5.093
			c0.225-0.161,0.537-0.108,0.697,0.116s0.108,0.537-0.116,0.697C6.684,6.34,6.135,7.679,5.974,8.158C5.904,8.368,5.709,8.5,5.5,8.5
			z"/>
	</g>
</g>
<g>
</g>
<g>
</g>
<g>
</g>
<g>
</g>
<g>
</g>
<g>
</g>
<g>
</g>
<g>
</g>
<g>
</g>
<g>
</g>
<g>
</g>
<g>
</g>
<g>
</g>
<g>
</g>
<g>
</g>
</svg>
