<?xml version="1.0" encoding="iso-8859-1"?>
<!-- Generator: Adobe Illustrator 19.0.0, SVG Export Plug-In . SVG Version: 6.00 Build 0)  -->
<svg version="1.1" id="Layer_1" xmlns="http://www.w3.org/2000/svg" xmlns:xlink="http://www.w3.org/1999/xlink" x="0px" y="0px"
	 viewBox="0 0 24 24" style="enable-background:new 0 0 24 24;" xml:space="preserve">
<g>
	<path d="M13.198,10.847c0.698-0.239,1.25-0.739,1.553-1.408c0.331-0.729,0.334-1.565,0.01-2.355C14.239,5.809,12.994,5,11.731,5
		c-0.313,0-0.625,0.049-0.929,0.154c-0.698,0.239-1.25,0.739-1.553,1.408C8.918,7.29,8.915,8.126,9.239,8.917
		C9.89,10.506,11.667,11.374,13.198,10.847z"/>
	<path d="M13.783,13.52c-0.028-0.02-0.057-0.041-0.084-0.061c-0.052,0.022-0.109,0.037-0.169,0.04C13.474,13.502,8,13.894,8,16.5
		c0,1.659,1.346,2.5,4,2.5s4-1.009,4-3C16,15.113,14.771,14.23,13.783,13.52z"/>
	<path d="M21.5,0h-19C1.122,0,0,1.122,0,2.5v19C0,22.878,1.122,24,2.5,24h19c1.378,0,2.5-1.122,2.5-2.5v-19
		C24,1.122,22.878,0,21.5,0z M12,20c-4.351,0-5-2.193-5-3.5c0-2.813,3.819-3.665,5.593-3.908c-0.209-0.198-0.365-0.398-0.467-0.605
		c-1.605-0.063-3.155-1.087-3.812-2.691C7.884,8.248,7.893,7.13,8.338,6.148c0.417-0.921,1.177-1.611,2.139-1.941
		c0.471-0.161,0.959-0.215,1.442-0.191C11.947,4.012,11.971,4,12,4h4c0.276,0,0.5,0.224,0.5,0.5S16.276,5,16,5h-1.596
		c0.544,0.446,1,1.016,1.282,1.705c0.429,1.047,0.42,2.166-0.025,3.147c-0.417,0.921-1.177,1.611-2.139,1.941
		c-0.083,0.028-0.167,0.041-0.251,0.063c0.294,0.275,0.765,0.615,1.095,0.852C15.54,13.551,17,14.601,17,16
		C17,18.58,15.224,20,12,20z"/>
</g>
<g>
</g>
<g>
</g>
<g>
</g>
<g>
</g>
<g>
</g>
<g>
</g>
<g>
</g>
<g>
</g>
<g>
</g>
<g>
</g>
<g>
</g>
<g>
</g>
<g>
</g>
<g>
</g>
<g>
</g>
</svg>
