<?xml version="1.0" encoding="iso-8859-1"?>
<!-- Generator: Adobe Illustrator 19.0.0, SVG Export Plug-In . SVG Version: 6.00 Build 0)  -->
<svg version="1.1" id="Layer_1" xmlns="http://www.w3.org/2000/svg" xmlns:xlink="http://www.w3.org/1999/xlink" x="0px" y="0px"
	 viewBox="0 0 24 24" style="enable-background:new 0 0 24 24;" xml:space="preserve">
<g>
	<path d="M9.427,13.948C9.611,13.976,9.799,14,10,14c2.502,0,5.268-2.171,6.341-3.104c0.111-0.097,0.174-0.238,0.172-0.385
		s-0.069-0.287-0.185-0.38C14.557,8.687,11.705,7,9.5,7C9.224,7,9,7.224,9,7.5v1.044c0,0.254,0.19,0.468,0.443,0.497
		c1.797,0.205,3.323,1.527,3.387,1.583c0.101,0.088,0.16,0.21,0.169,0.344s-0.035,0.261-0.124,0.362
		c-0.182,0.207-0.496,0.227-0.705,0.046c-0.412-0.36-1.481-1.097-2.573-1.311c-0.146-0.027-0.299,0.01-0.414,0.104
		C9.066,10.265,9,10.406,9,10.556v2.898C9,13.701,9.182,13.912,9.427,13.948z"/>
	<path d="M23.5,4h-14C9.224,4,9,4.224,9,4.5v1C9,5.776,9.224,6,9.5,6c2.984,0,6.704,2.541,8.35,4.143
		c0.095,0.092,0.149,0.221,0.15,0.354s-0.053,0.263-0.146,0.357C17.161,11.546,13.528,15,10,15c-0.14,0-0.271-0.013-0.455-0.029
		c-0.147-0.013-0.279,0.034-0.383,0.129S9,15.329,9,15.469V16.5C9,16.776,9.224,17,9.5,17c2.236,0,8.576-1.784,10.646-3.854
		c0.195-0.195,0.512-0.195,0.707,0C20.948,13.241,21,13.367,21,13.5c0,0.134-0.052,0.259-0.146,0.354
		C18.584,16.123,11.935,18,9.5,18C9.224,18,9,18.224,9,18.5v1C9,19.776,9.224,20,9.5,20h14c0.276,0,0.5-0.224,0.5-0.5v-15
		C24,4.224,23.776,4,23.5,4z"/>
	<path d="M8.995,9.477C8.955,9.202,8.683,9.01,8.429,9.054c-1.722,0.25-3.194,1.515-3.257,1.569
		c-0.152,0.133-0.21,0.345-0.146,0.537c0.036,0.108,0.915,2.65,3.299,3.539c0.058,0.021,0.117,0.031,0.175,0.031
		c0.203,0,0.394-0.124,0.469-0.325c0.097-0.259-0.035-0.547-0.294-0.644c-1.482-0.552-2.276-1.965-2.568-2.602
		c0.459-0.338,1.426-0.965,2.465-1.116C8.845,10.003,9.034,9.75,8.995,9.477z"/>
	<path d="M8.648,16.847c-1.986-0.617-4.906-3.071-7.384-6.18c0.655-0.349,1.327-0.739,1.98-1.12c1.808-1.052,3.678-2.14,5.348-2.455
		C8.864,7.042,9.042,6.78,8.991,6.509C8.94,6.237,8.674,6.059,8.407,6.11C6.568,6.457,4.623,7.588,2.742,8.683
		c-0.859,0.5-1.671,0.973-2.466,1.37c-0.134,0.067-0.23,0.189-0.264,0.335c-0.033,0.145,0,0.298,0.091,0.417
		c2.707,3.536,5.945,6.283,8.248,6.998c0.05,0.015,0.1,0.022,0.148,0.022c0.213,0,0.411-0.137,0.478-0.352
		C9.06,17.209,8.912,16.929,8.648,16.847z"/>
</g>
<g>
</g>
<g>
</g>
<g>
</g>
<g>
</g>
<g>
</g>
<g>
</g>
<g>
</g>
<g>
</g>
<g>
</g>
<g>
</g>
<g>
</g>
<g>
</g>
<g>
</g>
<g>
</g>
<g>
</g>
</svg>
