<?xml version="1.0" encoding="iso-8859-1"?>
<!-- Generator: Adobe Illustrator 19.0.0, SVG Export Plug-In . SVG Version: 6.00 Build 0)  -->
<svg version="1.1" id="Layer_1" xmlns="http://www.w3.org/2000/svg" xmlns:xlink="http://www.w3.org/1999/xlink" x="0px" y="0px"
	 viewBox="0 0 24 24" style="enable-background:new 0 0 24 24;" xml:space="preserve">
<g>
	<path d="M4.985,18.053c0.094-0.376,0.011-0.768-0.228-1.073C4.519,16.675,4.16,16.5,3.772,16.5H2.5
		c-0.229,0-0.43,0.156-0.485,0.379l-0.497,1.989c-0.002,0.007-0.004,0.014-0.005,0.021l-0.498,1.99
		c-0.066,0.268,0.096,0.539,0.364,0.606C1.42,21.495,1.46,21.5,1.5,21.5c0.225,0,0.429-0.151,0.485-0.379L2.391,19.5h1.257
		c0.575,0,1.074-0.39,1.213-0.947L4.985,18.053z M3.89,18.312C3.862,18.422,3.763,18.5,3.647,18.5H2.641l0.25-1h0.882
		c0.106,0,0.169,0.06,0.197,0.096c0.027,0.036,0.071,0.112,0.045,0.215L3.89,18.312z"/>
	<path d="M8.121,18.515c-0.21-0.052-0.415,0.035-0.529,0.2C7.376,18.581,7.129,18.5,6.865,18.5H6.153
		c-0.615,0-1.148,0.417-1.297,1.012L4.79,19.777v0c-0.104,0.417-0.012,0.851,0.253,1.189C5.308,21.306,5.705,21.5,6.135,21.5h0.712
		c0.145,0,0.284-0.027,0.416-0.07c0.037,0.021,0.073,0.044,0.116,0.055C7.42,21.495,7.46,21.5,7.5,21.5
		c0.225,0,0.429-0.151,0.485-0.379l0.5-2C8.552,18.854,8.39,18.582,8.121,18.515z M6.135,20.5c-0.119,0-0.23-0.054-0.304-0.148
		c-0.074-0.094-0.1-0.215-0.07-0.331l0.066-0.266c0.037-0.15,0.171-0.254,0.326-0.254h0.712c0.119,0,0.23,0.054,0.304,0.148
		c0.074,0.094,0.1,0.215,0.07,0.331l-0.066,0.266C7.136,20.396,7.002,20.5,6.847,20.5H6.135z"/>
	<path d="M16.985,18.053c0.094-0.376,0.011-0.768-0.228-1.073c-0.239-0.305-0.598-0.48-0.985-0.48H14.5
		c-0.229,0-0.43,0.156-0.485,0.379l-0.497,1.989c-0.002,0.007-0.004,0.014-0.005,0.021l-0.498,1.99
		c-0.066,0.268,0.096,0.539,0.364,0.606C13.42,21.495,13.46,21.5,13.5,21.5c0.225,0,0.429-0.151,0.485-0.379l0.405-1.621h1.257
		c0.575,0,1.074-0.39,1.213-0.947L16.985,18.053z M15.89,18.312c-0.027,0.111-0.127,0.188-0.242,0.188h-1.007l0.25-1h0.882
		c0.106,0,0.169,0.06,0.197,0.096c0.027,0.036,0.071,0.112,0.045,0.215L15.89,18.312z"/>
	<path d="M20.121,18.515c-0.211-0.052-0.416,0.035-0.53,0.2c-0.216-0.134-0.463-0.215-0.726-0.215h-0.712
		c-0.615,0-1.148,0.417-1.297,1.012l-0.066,0.265v0c-0.104,0.417-0.012,0.851,0.253,1.189c0.265,0.338,0.662,0.533,1.092,0.533
		h0.712c0.145,0,0.284-0.027,0.416-0.07c0.037,0.021,0.073,0.044,0.116,0.055C19.42,21.495,19.46,21.5,19.5,21.5
		c0.225,0,0.429-0.151,0.485-0.379l0.5-2C20.552,18.854,20.39,18.582,20.121,18.515z M18.135,20.5c-0.119,0-0.23-0.054-0.304-0.148
		c-0.074-0.094-0.1-0.215-0.07-0.331l0.066-0.266c0.037-0.15,0.171-0.254,0.326-0.254h0.712c0.119,0,0.23,0.054,0.304,0.148
		c0.074,0.094,0.1,0.215,0.07,0.331l-0.066,0.266c-0.037,0.15-0.171,0.254-0.326,0.254H18.135z"/>
	<path d="M11.616,18.68l-0.96,1.153l-0.74-1.11c-0.155-0.23-0.466-0.291-0.693-0.139c-0.229,0.153-0.292,0.463-0.139,0.693
		l0.904,1.356L9.116,21.68c-0.177,0.212-0.148,0.528,0.063,0.705C9.273,22.462,9.387,22.5,9.5,22.5c0.143,0,0.285-0.061,0.384-0.18
		l2.5-3c0.177-0.212,0.148-0.528-0.063-0.705C12.108,18.441,11.793,18.467,11.616,18.68z"/>
	<path d="M22.621,16.515c-0.271-0.068-0.54,0.096-0.606,0.364l-1,4c-0.066,0.268,0.096,0.539,0.364,0.606
		C21.42,21.495,21.46,21.5,21.5,21.5c0.225,0,0.429-0.151,0.485-0.379l1-4C23.052,16.854,22.89,16.582,22.621,16.515z"/>
	<path d="M18.009,9.028l0.37-1.482c0.207-0.831,0.044-1.693-0.436-2.308c-0.339-0.434-0.797-0.679-1.298-0.721l0.019-0.13
		c0.104-0.726-0.112-1.46-0.593-2.015S14.894,1.5,14.16,1.5H8.5c-0.241,0-0.448,0.173-0.492,0.411l-2,11
		c-0.026,0.146,0.014,0.296,0.108,0.41S6.352,13.5,6.5,13.5h2.359l-0.345,1.379c-0.037,0.149-0.004,0.308,0.091,0.429
		C8.7,15.429,8.846,15.5,9,15.5h2.5c0.229,0,0.43-0.156,0.485-0.379l0.905-3.621h1.952C16.343,11.5,17.645,10.484,18.009,9.028z
		 M12.5,10.5c-0.229,0-0.43,0.156-0.485,0.379L11.109,14.5H9.641l0.345-1.379L10.891,9.5H12.5c1.958,0,3.643-1.461,3.919-3.398
		l0.086-0.601c0.311,0.002,0.525,0.193,0.65,0.353c0.287,0.369,0.385,0.924,0.253,1.451l-0.37,1.482
		c-0.252,1.009-1.155,1.714-2.195,1.714H12.5z"/>
</g>
<g>
</g>
<g>
</g>
<g>
</g>
<g>
</g>
<g>
</g>
<g>
</g>
<g>
</g>
<g>
</g>
<g>
</g>
<g>
</g>
<g>
</g>
<g>
</g>
<g>
</g>
<g>
</g>
<g>
</g>
</svg>
