<?xml version="1.0" encoding="iso-8859-1"?>
<!-- Generator: Adobe Illustrator 19.0.0, SVG Export Plug-In . SVG Version: 6.00 Build 0)  -->
<svg version="1.1" id="Layer_1" xmlns="http://www.w3.org/2000/svg" xmlns:xlink="http://www.w3.org/1999/xlink" x="0px" y="0px"
	 viewBox="0 0 30 30" style="enable-background:new 0 0 30 30;" xml:space="preserve">
<g>
	<g>
		<path d="M22.854,10.146c-0.195-0.195-0.512-0.195-0.707,0l-2.857,2.857c-0.575,0.022-1.122,0.154-1.648,0.356
			c0.198-0.527,0.333-1.077,0.355-1.649l2.857-2.858c0.195-0.195,0.195-0.512,0-0.707s-0.512-0.195-0.707,0l-3,3
			c-0.094,0.094-0.146,0.221-0.146,0.354c0,1.197-0.467,2.283-1.354,3.146l-0.146,0.146l-1.135-1.135
			c0.406-0.554,0.635-1.214,0.635-1.914c0-0.87-0.339-1.687-0.954-2.302C12.807,8.199,10,7.325,8.663,8.661
			c-1.335,1.335-0.462,4.143,0.779,5.384c0.635,0.635,1.469,0.952,2.303,0.952c0.674,0,1.343-0.219,1.913-0.635l1.136,1.136
			l-4.646,4.646c-0.195,0.195-0.195,0.512,0,0.707c0.098,0.098,0.226,0.146,0.354,0.146s0.256-0.049,0.354-0.146l4.646-4.646
			l4.646,4.646c0.098,0.098,0.226,0.146,0.354,0.146c0.128,0,0.256-0.049,0.354-0.146c0.195-0.195,0.195-0.512,0-0.707l-4.646-4.646
			l0.142-0.142c0.927-0.901,1.987-1.358,3.151-1.358c0.133,0,0.26-0.053,0.354-0.146l3-3C23.049,10.658,23.049,10.342,22.854,10.146
			z M15,0C6.729,0,0,6.729,0,15s6.729,15,15,15s15-6.729,15-15S23.271,0,15,0z M15,26C8.935,26,4,21.065,4,15S8.935,4,15,4
			s11,4.935,11,11S21.065,26,15,26z"/>
	</g>
</g>
</svg>
