<?xml version="1.0" encoding="iso-8859-1"?>
<!-- Generator: Adobe Illustrator 19.0.0, SVG Export Plug-In . SVG Version: 6.00 Build 0)  -->
<svg version="1.1" id="Layer_1" xmlns="http://www.w3.org/2000/svg" xmlns:xlink="http://www.w3.org/1999/xlink" x="0px" y="0px"
	 viewBox="0 0 30 30" style="enable-background:new 0 0 30 30;" xml:space="preserve">
<g>
	<g>
		<path d="M2.997,14.419c0-1.336,0.521-2.591,1.465-3.536c0.195-0.196,0.195-0.512-0.001-0.707c-0.195-0.195-0.512-0.195-0.707,0
			c-1.134,1.133-1.758,2.64-1.758,4.243c0,1.603,0.624,3.109,1.758,4.243c0.098,0.098,0.226,0.146,0.354,0.146
			c0.128,0,0.256-0.049,0.354-0.146c0.195-0.195,0.195-0.512,0-0.707C3.518,17.011,2.997,15.755,2.997,14.419z M2.753,10.161
			c0.195-0.195,0.195-0.512,0-0.707s-0.512-0.195-0.707,0c-2.729,2.729-2.729,7.17,0,9.899c0.098,0.098,0.226,0.146,0.354,0.146
			s0.256-0.049,0.354-0.146c0.195-0.195,0.195-0.512,0-0.707C0.415,16.307,0.415,12.5,2.753,10.161z M27.954,9.646
			c-0.195-0.195-0.512-0.195-0.707,0s-0.195,0.512,0,0.707c2.339,2.339,2.339,6.146,0,8.485c-0.195,0.195-0.195,0.512,0,0.707
			c0.098,0.098,0.226,0.146,0.354,0.146s0.256-0.049,0.354-0.146C30.682,16.816,30.682,12.376,27.954,9.646z M26.246,10.339
			c-0.195-0.195-0.512-0.195-0.707,0s-0.195,0.512,0,0.707c0.944,0.944,1.465,2.2,1.465,3.536s-0.521,2.591-1.465,3.536
			c-0.195,0.195-0.195,0.512,0,0.707c0.098,0.098,0.226,0.146,0.354,0.146s0.256-0.049,0.354-0.146
			c1.134-1.133,1.758-2.64,1.758-4.243C28.005,12.979,27.379,11.472,26.246,10.339z M19.5,0h-10C7.019,0,5,2.019,5,4.5v21
			C5,27.981,7.019,30,9.5,30h10c2.481,0,4.5-2.019,4.5-4.5v-21C24,2.019,21.981,0,19.5,0z M19.5,2C19.776,2,20,2.224,20,2.5
			S19.776,3,19.5,3S19,2.776,19,2.5S19.224,2,19.5,2z M13.5,2h2C15.776,2,16,2.224,16,2.5S15.776,3,15.5,3h-2
			C13.224,3,13,2.776,13,2.5S13.224,2,13.5,2z M14.5,27.5c-0.552,0-1-0.448-1-1s0.448-1,1-1s1,0.448,1,1S15.052,27.5,14.5,27.5z
			 M23,23H6V5h17V23z"/>
	</g>
</g>
</svg>
