<?xml version="1.0" encoding="iso-8859-1"?>
<!-- Generator: Adobe Illustrator 19.0.0, SVG Export Plug-In . SVG Version: 6.00 Build 0)  -->
<svg version="1.1" id="Layer_1" xmlns="http://www.w3.org/2000/svg" xmlns:xlink="http://www.w3.org/1999/xlink" x="0px" y="0px"
	 viewBox="0 0 30 30" style="enable-background:new 0 0 30 30;" xml:space="preserve">
<g>
	<g>
		<path d="M10.82,21.967C10.879,21.989,10.94,22,11,22c0.171,0,0.335-0.088,0.428-0.241l3.266-5.391l1.82,1.024
			c0.135,0.075,0.296,0.084,0.438,0.025c0.143-0.06,0.249-0.181,0.29-0.33l2.241-8.196c0.068-0.249-0.065-0.509-0.307-0.6
			L15.814,7.03c-0.145-0.054-0.308-0.04-0.44,0.044c-0.132,0.082-0.218,0.221-0.233,0.375l-0.484,4.912l-1.574-0.885
			c-0.141-0.079-0.309-0.085-0.456-0.018c-0.146,0.068-0.25,0.202-0.28,0.359l-1.836,9.587C10.464,21.644,10.595,21.88,10.82,21.967
			z M20,0H10C7.519,0,5.5,2.019,5.5,4.5v21c0,2.481,2.019,4.5,4.5,4.5h10c2.481,0,4.5-2.019,4.5-4.5v-21C24.5,2.019,22.481,0,20,0z
			 M14,2h2c0.276,0,0.5,0.224,0.5,0.5S16.276,3,16,3h-2c-0.276,0-0.5-0.224-0.5-0.5S13.724,2,14,2z M15,27.5c-0.552,0-1-0.448-1-1
			s0.448-1,1-1s1,0.448,1,1S15.552,27.5,15,27.5z M23.5,23h-17V5h17V23z"/>
	</g>
</g>
</svg>
