<?xml version="1.0" encoding="iso-8859-1"?>
<!-- Generator: Adobe Illustrator 19.0.0, SVG Export Plug-In . SVG Version: 6.00 Build 0)  -->
<svg version="1.1" id="Layer_1" xmlns="http://www.w3.org/2000/svg" xmlns:xlink="http://www.w3.org/1999/xlink" x="0px" y="0px"
	 viewBox="0 0 30 30" style="enable-background:new 0 0 30 30;" xml:space="preserve">
<g>
	<g>
		<path d="M9,5.5h11c0.144,0,0.28-0.062,0.375-0.169c0.095-0.107,0.139-0.251,0.121-0.393l-0.5-4C19.965,0.688,19.752,0.5,19.5,0.5
			h-10c-0.252,0-0.465,0.188-0.496,0.438l-0.5,4C8.486,5.08,8.53,5.224,8.625,5.331C8.72,5.438,8.856,5.5,9,5.5z M19.833,24.5H9
			c-0.144,0-0.28,0.062-0.375,0.169c-0.095,0.107-0.139,0.251-0.121,0.393l0.5,4C9.035,29.312,9.248,29.5,9.5,29.5H19
			c0.237,0,0.441-0.166,0.489-0.398l0.833-4c0.031-0.147-0.006-0.301-0.101-0.417C20.126,24.568,19.984,24.5,19.833,24.5z
			 M15,15.793V14c0-0.276-0.224-0.5-0.5-0.5S14,13.724,14,14v2c0,0.133,0.053,0.26,0.146,0.354l1,1
			c0.098,0.098,0.226,0.146,0.354,0.146s0.256-0.049,0.354-0.146c0.195-0.195,0.195-0.512,0-0.707L15,15.793z M23.5,12.5
			c0.276,0,0.5-0.224,0.5-0.5v-1c0-0.276-0.224-0.5-0.5-0.5S23,10.724,23,11V9c0-1.378-1.122-2.5-2.5-2.5h-12C7.122,6.5,6,7.622,6,9
			v12c0,1.378,1.122,2.5,2.5,2.5h12c1.378,0,2.5-1.122,2.5-2.5v-2c0,0.276,0.224,0.5,0.5,0.5S24,19.276,24,19v-1
			c0-0.276-0.224-0.5-0.5-0.5S23,17.724,23,18v-6C23,12.276,23.224,12.5,23.5,12.5z M16.646,10.146c0.195-0.195,0.512-0.195,0.707,0
			l1,1c0.195,0.195,0.195,0.512,0,0.707c-0.098,0.098-0.226,0.146-0.354,0.146s-0.256-0.049-0.354-0.146l-1-1
			C16.451,10.658,16.451,10.342,16.646,10.146z M10.646,11.146l1-1c0.195-0.195,0.512-0.195,0.707,0s0.195,0.512,0,0.707l-1,1
			c-0.098,0.098-0.226,0.146-0.354,0.146c-0.128,0-0.256-0.049-0.354-0.146C10.451,11.658,10.451,11.342,10.646,11.146z M14.5,20.5
			c-2.481,0-4.5-2.019-4.5-4.5s2.019-4.5,4.5-4.5S19,13.519,19,16S16.981,20.5,14.5,20.5z"/>
	</g>
</g>
</svg>
