<?xml version="1.0" encoding="iso-8859-1"?>
<!-- Generator: Adobe Illustrator 19.0.0, SVG Export Plug-In . SVG Version: 6.00 Build 0)  -->
<svg version="1.1" id="Layer_1" xmlns="http://www.w3.org/2000/svg" xmlns:xlink="http://www.w3.org/1999/xlink" x="0px" y="0px"
	 viewBox="0 0 30 30" style="enable-background:new 0 0 30 30;" xml:space="preserve">
<g>
	<g>
		<path d="M20,0H10C7.519,0,5.5,2.019,5.5,4.5v21c0,2.481,2.019,4.5,4.5,4.5h10c2.481,0,4.5-2.019,4.5-4.5v-21
			C24.5,2.019,22.481,0,20,0z M14,2h2.5C16.776,2,17,2.224,17,2.5S16.776,3,16.5,3H14c-0.276,0-0.5-0.224-0.5-0.5S13.724,2,14,2z
			 M23.5,25h-17V5h17V25z"/>
	</g>
</g>
</svg>
