<?xml version="1.0" encoding="iso-8859-1"?>
<!-- Generator: Adobe Illustrator 19.0.0, SVG Export Plug-In . SVG Version: 6.00 Build 0)  -->
<svg version="1.1" id="Layer_1" xmlns="http://www.w3.org/2000/svg" xmlns:xlink="http://www.w3.org/1999/xlink" x="0px" y="0px"
	 viewBox="0 0 30 30" style="enable-background:new 0 0 30 30;" xml:space="preserve">
<g>
	<g>
		<path d="M24.265,0H5.736C4.779,0,4,0.789,4,1.76V28.24C4,29.211,4.779,30,5.736,30h18.529C25.221,30,26,29.21,26,28.24V1.76
			C26,0.789,25.221,0,24.265,0z M10.5,28h-2C8.224,28,8,27.776,8,27.5S8.224,27,8.5,27h2c0.276,0,0.5,0.224,0.5,0.5
			S10.776,28,10.5,28z M21.5,28h-2c-0.276,0-0.5-0.224-0.5-0.5s0.224-0.5,0.5-0.5h2c0.276,0,0.5,0.224,0.5,0.5S21.776,28,21.5,28z
			 M24,25.5c0,0.276-0.224,0.5-0.5,0.5h-17C6.224,26,6,25.776,6,25.5v-23C6,2.224,6.224,2,6.5,2h17C23.776,2,24,2.224,24,2.5V25.5z"
			/>
	</g>
</g>
</svg>
