<?xml version="1.0" encoding="iso-8859-1"?>
<!-- Generator: Adobe Illustrator 19.0.0, SVG Export Plug-In . SVG Version: 6.00 Build 0)  -->
<svg version="1.1" id="Layer_1" xmlns="http://www.w3.org/2000/svg" xmlns:xlink="http://www.w3.org/1999/xlink" x="0px" y="0px"
	 viewBox="0 0 30 30" style="enable-background:new 0 0 30 30;" xml:space="preserve">
<g>
	<g>
		<path d="M17.854,10.146c-0.195-0.195-0.512-0.195-0.707,0l-6,6c-0.195,0.195-0.195,0.512,0,0.707
			c0.098,0.098,0.226,0.146,0.354,0.146s0.256-0.049,0.354-0.146l6-6C18.049,10.658,18.049,10.342,17.854,10.146z M16.146,15.146
			l-3,3c-0.195,0.195-0.195,0.512,0,0.707c0.098,0.098,0.226,0.146,0.354,0.146s0.256-0.049,0.354-0.146l3-3
			c0.195-0.195,0.195-0.512,0-0.707S16.342,14.951,16.146,15.146z M23.146,4.854C23.244,4.952,23.372,5,23.5,5
			s0.256-0.049,0.354-0.146l4-4c0.195-0.195,0.195-0.512,0-0.707s-0.512-0.195-0.707,0l-4,4C22.951,4.342,22.951,4.658,23.146,4.854
			z M13.146,10.854C13.244,10.952,13.372,11,13.5,11s0.256-0.049,0.354-0.146l9-9c0.195-0.195,0.195-0.512,0-0.707
			s-0.512-0.195-0.707,0l-9,9C12.951,10.342,12.951,10.658,13.146,10.854z M21.146,6.146l-2,2c-0.195,0.195-0.195,0.512,0,0.707
			c0.098,0.098,0.226,0.146,0.354,0.146s0.256-0.049,0.354-0.146l2-2c0.195-0.195,0.195-0.512,0-0.707S21.342,5.951,21.146,6.146z
			 M23.147,16.146L12.143,27.088C10.911,28.321,9.271,29,7.527,29C3.927,29,1,26.072,1,22.472c0-1.743,0.679-3.383,1.913-4.617
			L13.854,6.852c0.194-0.196,0.194-0.512-0.002-0.707c-0.196-0.195-0.513-0.193-0.707,0.002L2.205,17.149
			C0.783,18.571,0,20.461,0,22.472C0,26.623,3.377,30,7.527,30c2.012,0,3.902-0.783,5.322-2.204l11.003-10.941
			c0.196-0.195,0.196-0.511,0.002-0.707C23.66,15.952,23.344,15.951,23.147,16.146z M28.146,7.146l-2,2
			c-0.195,0.195-0.195,0.512,0,0.707c0.098,0.098,0.226,0.146,0.354,0.146s0.256-0.049,0.354-0.146l2-2
			c0.195-0.195,0.195-0.512,0-0.707S28.342,6.951,28.146,7.146z M29.854,2.146c-0.195-0.195-0.512-0.195-0.707,0l-11,11
			c-0.195,0.195-0.195,0.512,0,0.707c0.098,0.098,0.226,0.146,0.354,0.146c0.128,0,0.256-0.049,0.354-0.146l11-11
			C30.049,2.658,30.049,2.342,29.854,2.146z M8.854,15.854l3-3c0.195-0.195,0.195-0.512,0-0.707s-0.512-0.195-0.707,0l-3,3
			c-0.195,0.195-0.195,0.512,0,0.707C8.245,15.952,8.373,16,8.501,16S8.756,15.951,8.854,15.854z M3,22.5C3,24.981,5.019,27,7.5,27
			s4.5-2.019,4.5-4.5c0-2.481-2.019-4.5-4.5-4.5S3,20.019,3,22.5z M8,20.5C8,20.776,7.776,21,7.5,21C6.673,21,6,21.673,6,22.5
			C6,22.776,5.776,23,5.5,23S5,22.776,5,22.5C5,21.122,6.121,20,7.5,20C7.776,20,8,20.224,8,20.5z M24.146,11.146l-10,10
			c-0.195,0.195-0.195,0.512,0,0.707c0.098,0.098,0.226,0.146,0.354,0.146s0.256-0.049,0.354-0.146l10-10
			c0.195-0.195,0.195-0.512,0-0.707S24.342,10.951,24.146,11.146z"/>
	</g>
</g>
</svg>
