<?xml version="1.0" encoding="iso-8859-1"?>
<!-- Generator: Adobe Illustrator 18.0.0, SVG Export Plug-In . SVG Version: 6.00 Build 0)  -->
<!DOCTYPE svg PUBLIC "-//W3C//DTD SVG 1.1//EN" "http://www.w3.org/Graphics/SVG/1.1/DTD/svg11.dtd">
<svg version="1.1" id="Layer_1" xmlns="http://www.w3.org/2000/svg" xmlns:xlink="http://www.w3.org/1999/xlink" x="0px" y="0px"
	 viewBox="0 0 24 24" style="enable-background:new 0 0 24 24;" xml:space="preserve">
<g id="benjo_1_">
	<g>
		<path d="M15.5,11.001c-0.128,0-0.256-0.049-0.354-0.147c-0.194-0.195-0.194-0.512,0.001-0.707l4-3.99
			c0.094-0.093,0.221-0.146,0.354-0.146h0.75L23,2.345V1.001h-1.333L18,3.751v0.75c0,0.133-0.053,0.26-0.146,0.354l-4,4
			c-0.195,0.195-0.512,0.195-0.707,0s-0.195-0.512,0-0.707L17,4.294V3.501c0-0.157,0.074-0.306,0.2-0.4l4-3
			c0.086-0.065,0.191-0.1,0.3-0.1h2c0.276,0,0.5,0.224,0.5,0.5v2.01c0,0.108-0.035,0.213-0.1,0.3l-3,4
			c-0.095,0.126-0.243,0.2-0.4,0.2h-0.793l-3.854,3.844C15.756,10.952,15.628,11.001,15.5,11.001z"/>
	</g>
	<g>
		<path d="M8.5,21.001c-3.032,0-5.5-2.467-5.5-5.5s2.468-5.5,5.5-5.5s5.5,2.467,5.5,5.5S11.532,21.001,8.5,21.001z M8.5,11.001
			c-2.481,0-4.5,2.019-4.5,4.5s2.019,4.5,4.5,4.5s4.5-2.019,4.5-4.5S10.981,11.001,8.5,11.001z"/>
		<path d="M8.5,11.001c-0.276,0-0.5-0.224-0.5-0.5v-3c0-0.276,0.224-0.5,0.5-0.5S9,7.224,9,7.501v3
			C9,10.777,8.776,11.001,8.5,11.001z"/>
		<path d="M8.5,24.001c-0.276,0-0.5-0.224-0.5-0.5v-3c0-0.276,0.224-0.5,0.5-0.5s0.5,0.224,0.5,0.5v3
			C9,23.777,8.776,24.001,8.5,24.001z"/>
		<path d="M4.965,12.465c-0.128,0-0.256-0.049-0.354-0.146l-2.122-2.121c-0.195-0.195-0.195-0.512,0-0.707s0.512-0.195,0.707,0
			l2.122,2.121c0.195,0.195,0.195,0.512,0,0.707C5.221,12.416,5.093,12.465,4.965,12.465z"/>
		<path d="M14.157,21.658c-0.128,0-0.256-0.049-0.354-0.146l-2.122-2.121c-0.195-0.195-0.195-0.512,0-0.707s0.512-0.195,0.707,0
			l2.122,2.121c0.195,0.195,0.195,0.512,0,0.707C14.413,21.609,14.285,21.658,14.157,21.658z"/>
		<path d="M3.5,16.001h-3c-0.276,0-0.5-0.224-0.5-0.5s0.224-0.5,0.5-0.5h3c0.276,0,0.5,0.224,0.5,0.5S3.776,16.001,3.5,16.001z"/>
		<path d="M16.5,16.001h-3c-0.276,0-0.5-0.224-0.5-0.5s0.224-0.5,0.5-0.5h3c0.276,0,0.5,0.224,0.5,0.5S16.776,16.001,16.5,16.001z"
			/>
		<path d="M2.843,21.658c-0.128,0-0.256-0.049-0.354-0.146c-0.195-0.195-0.195-0.512,0-0.707l2.122-2.121
			c0.195-0.195,0.512-0.195,0.707,0s0.195,0.512,0,0.707l-2.122,2.121C3.099,21.609,2.971,21.658,2.843,21.658z"/>
		<path d="M12,12.501c-0.128,0-0.256-0.049-0.354-0.146c-0.195-0.195-0.195-0.512,0-0.707l2.121-2.121
			c0.195-0.195,0.512-0.195,0.707,0s0.195,0.512,0,0.707l-2.121,2.121C12.256,12.452,12.128,12.501,12,12.501z"/>
		<path d="M8.5,24.001c-4.687,0-8.5-3.813-8.5-8.5s3.813-8.5,8.5-8.5s8.5,3.813,8.5,8.5S13.187,24.001,8.5,24.001z M8.5,8.001
			c-4.136,0-7.5,3.364-7.5,7.5s3.364,7.5,7.5,7.5s7.5-3.364,7.5-7.5S12.636,8.001,8.5,8.001z"/>
	</g>
	<path d="M7.5,18.001c-0.128,0-0.256-0.049-0.354-0.146l-1-1c-0.195-0.195-0.195-0.512,0-0.707c0.195-0.195,0.512-0.195,0.707,0l1,1
		c0.195,0.195,0.195,0.512,0,0.707C7.756,17.952,7.628,18.001,7.5,18.001z"/>
</g>
<g>
</g>
<g>
</g>
<g>
</g>
<g>
</g>
<g>
</g>
<g>
</g>
<g>
</g>
<g>
</g>
<g>
</g>
<g>
</g>
<g>
</g>
<g>
</g>
<g>
</g>
<g>
</g>
<g>
</g>
</svg>
