<?xml version="1.0" encoding="iso-8859-1"?>
<!-- Generator: Adobe Illustrator 18.0.0, SVG Export Plug-In . SVG Version: 6.00 Build 0)  -->
<!DOCTYPE svg PUBLIC "-//W3C//DTD SVG 1.1//EN" "http://www.w3.org/Graphics/SVG/1.1/DTD/svg11.dtd">
<svg version="1.1" id="Layer_1" xmlns="http://www.w3.org/2000/svg" xmlns:xlink="http://www.w3.org/1999/xlink" x="0px" y="0px"
	 viewBox="0 0 24 24" style="enable-background:new 0 0 24 24;" xml:space="preserve">
<g>
	<g>
		<g>
			<g>
				<g>
					<path d="M11.5,22h-11C0.224,22,0,21.776,0,21.5v-15c0-0.133,0.053-0.26,0.146-0.354l6-6C6.24,0.052,6.367,0,6.5,0h11
						C17.776,0,18,0.223,18,0.5v11c0,0.276-0.224,0.5-0.5,0.5S17,11.776,17,11.5V1H6.707L1,6.707V21h10.5c0.276,0,0.5,0.224,0.5,0.5
						S11.776,22,11.5,22z"/>
					<path d="M6.5,7h-6C0.224,7,0,6.776,0,6.5S0.224,6,0.5,6H6V0.5C6,0.223,6.224,0,6.5,0S7,0.223,7,0.5v6C7,6.776,6.776,7,6.5,7z"
						/>
				</g>
			</g>
		</g>
		<path d="M18.5,24c-3.032,0-5.5-2.468-5.5-5.5s2.468-5.5,5.5-5.5s5.5,2.468,5.5,5.5S21.532,24,18.5,24z M18.5,14
			c-2.481,0-4.5,2.019-4.5,4.5s2.019,4.5,4.5,4.5s4.5-2.019,4.5-4.5S20.981,14,18.5,14z"/>
	</g>
	<path d="M17.5,21c-0.128,0-0.256-0.049-0.354-0.146l-2-2c-0.195-0.195-0.195-0.512,0-0.707s0.512-0.195,0.707,0l1.646,1.646
		l3.646-3.646c0.195-0.195,0.512-0.195,0.707,0c0.195,0.195,0.195,0.512,0,0.707l-4,4C17.756,20.951,17.628,21,17.5,21z"/>
	<g>
		<path d="M9.5,14C9.224,14,9,13.776,9,13.5v-6C9,7.223,9.224,7,9.5,7h2C11.776,7,12,7.223,12,7.5S11.776,8,11.5,8H10v5.5
			C10,13.776,9.776,14,9.5,14z"/>
		<path d="M8,15c-1.121,0-2-0.659-2-1.5S6.879,12,8,12s2,0.659,2,1.5S9.121,15,8,15z M8,13c-0.61,0-1,0.296-1,0.5S7.39,14,8,14
			s1-0.296,1-0.5S8.61,13,8,13z"/>
	</g>
</g>
<g>
</g>
<g>
</g>
<g>
</g>
<g>
</g>
<g>
</g>
<g>
</g>
<g>
</g>
<g>
</g>
<g>
</g>
<g>
</g>
<g>
</g>
<g>
</g>
<g>
</g>
<g>
</g>
<g>
</g>
</svg>
