<?xml version="1.0" encoding="iso-8859-1"?>
<!-- Generator: Adobe Illustrator 18.0.0, SVG Export Plug-In . SVG Version: 6.00 Build 0)  -->
<!DOCTYPE svg PUBLIC "-//W3C//DTD SVG 1.1//EN" "http://www.w3.org/Graphics/SVG/1.1/DTD/svg11.dtd">
<svg version="1.1" id="Layer_1" xmlns="http://www.w3.org/2000/svg" xmlns:xlink="http://www.w3.org/1999/xlink" x="0px" y="0px"
	 viewBox="0 0 24 24" style="enable-background:new 0 0 24 24;" xml:space="preserve">
<g id="load">
	<path d="M18.5,24h-13C2.467,24,0,21.532,0,18.5v-13C0,2.468,2.467,0,5.5,0h13C21.533,0,24,2.468,24,5.5v13
		C24,21.532,21.533,24,18.5,24z M5.5,1C3.019,1,1,3.018,1,5.5v13C1,20.981,3.019,23,5.5,23h13c2.481,0,4.5-2.019,4.5-4.5v-13
		C23,3.018,20.981,1,18.5,1H5.5z"/>
	<path d="M16.52,14c-0.006,0-0.013,0-0.02,0h-9c-0.183,0-0.351-0.1-0.439-0.261c-0.087-0.16-0.081-0.355,0.019-0.51l4.5-7
		c0.184-0.285,0.657-0.285,0.841,0l4.437,6.901c0.1,0.091,0.163,0.223,0.163,0.369C17.02,13.776,16.796,14,16.52,14z M8.416,13
		h7.168L12,7.425L8.416,13z"/>
	<path d="M16.5,16h-9C7.224,16,7,15.776,7,15.5S7.224,15,7.5,15h9c0.276,0,0.5,0.224,0.5,0.5S16.776,16,16.5,16z"/>
</g>
<g>
</g>
<g>
</g>
<g>
</g>
<g>
</g>
<g>
</g>
<g>
</g>
<g>
</g>
<g>
</g>
<g>
</g>
<g>
</g>
<g>
</g>
<g>
</g>
<g>
</g>
<g>
</g>
<g>
</g>
</svg>
