<?xml version="1.0" encoding="iso-8859-1"?>
<!-- Generator: Adobe Illustrator 18.0.0, SVG Export Plug-In . SVG Version: 6.00 Build 0)  -->
<!DOCTYPE svg PUBLIC "-//W3C//DTD SVG 1.1//EN" "http://www.w3.org/Graphics/SVG/1.1/DTD/svg11.dtd">
<svg version="1.1" id="Layer_1" xmlns="http://www.w3.org/2000/svg" xmlns:xlink="http://www.w3.org/1999/xlink" x="0px" y="0px"
	 viewBox="0 0 24 24" style="enable-background:new 0 0 24 24;" xml:space="preserve">
<g id="mp3_player_2_1_">
	<path d="M20.5,24h-17C1.57,24,0,22.43,0,20.5v-17C0,1.57,1.57,0,3.5,0h17C22.43,0,24,1.57,24,3.5v17C24,22.43,22.43,24,20.5,24z
		 M3.5,1C2.122,1,1,2.121,1,3.5v17C1,21.879,2.122,23,3.5,23h17c1.378,0,2.5-1.121,2.5-2.5v-17C23,2.121,21.878,1,20.5,1H3.5z"/>
	<path d="M12,22C6.486,22,2,17.514,2,12S6.486,2,12,2s10,4.486,10,10S17.514,22,12,22z M12,3c-4.962,0-9,4.037-9,9s4.038,9,9,9
		s9-4.037,9-9S16.962,3,12,3z"/>
	<path d="M12,17c-2.757,0-5-2.243-5-5s2.243-5,5-5s5,2.243,5,5S14.757,17,12,17z M12,8c-2.206,0-4,1.794-4,4s1.794,4,4,4
		s4-1.794,4-4S14.206,8,12,8z"/>
	<path d="M5.283,19.218c-0.128,0-0.256-0.049-0.354-0.146c-0.195-0.195-0.195-0.512,0-0.707l3.435-3.436
		c0.195-0.195,0.512-0.195,0.707,0s0.195,0.512,0,0.707l-3.435,3.436C5.539,19.169,5.411,19.218,5.283,19.218z"/>
	<path d="M15.25,9.25c-0.128,0-0.256-0.049-0.354-0.146c-0.195-0.195-0.195-0.512,0-0.707l3.467-3.468
		c0.195-0.195,0.512-0.195,0.707,0s0.195,0.512,0,0.707l-3.467,3.468C15.506,9.201,15.378,9.25,15.25,9.25z"/>
	<path d="M18.717,19.218c-0.128,0-0.256-0.049-0.354-0.146l-3.435-3.436c-0.195-0.195-0.195-0.512,0-0.707s0.512-0.195,0.707,0
		l3.435,3.436c0.195,0.195,0.195,0.512,0,0.707C18.973,19.169,18.845,19.218,18.717,19.218z"/>
	<path d="M8.75,9.25c-0.128,0-0.256-0.049-0.354-0.146L4.929,5.636c-0.195-0.195-0.195-0.512,0-0.707s0.512-0.195,0.707,0
		l3.467,3.468c0.195,0.195,0.195,0.512,0,0.707C9.006,9.201,8.878,9.25,8.75,9.25z"/>
	<path d="M10.5,14.5c-0.087,0-0.173-0.022-0.251-0.067C10.095,14.343,10,14.179,10,14v-4c0-0.179,0.095-0.343,0.249-0.433
		c0.154-0.089,0.345-0.091,0.499-0.002l3.5,2C14.404,11.655,14.5,11.82,14.5,12s-0.096,0.345-0.252,0.435l-3.5,2
		C10.671,14.479,10.585,14.5,10.5,14.5z M11,10.861v2.277L12.992,12L11,10.861z"/>
</g>
<g>
</g>
<g>
</g>
<g>
</g>
<g>
</g>
<g>
</g>
<g>
</g>
<g>
</g>
<g>
</g>
<g>
</g>
<g>
</g>
<g>
</g>
<g>
</g>
<g>
</g>
<g>
</g>
<g>
</g>
</svg>
