<?xml version="1.0" encoding="iso-8859-1"?>
<!-- Generator: Adobe Illustrator 18.0.0, SVG Export Plug-In . SVG Version: 6.00 Build 0)  -->
<!DOCTYPE svg PUBLIC "-//W3C//DTD SVG 1.1//EN" "http://www.w3.org/Graphics/SVG/1.1/DTD/svg11.dtd">
<svg version="1.1" id="Layer_1" xmlns="http://www.w3.org/2000/svg" xmlns:xlink="http://www.w3.org/1999/xlink" x="0px" y="0px"
	 viewBox="0 0 24 24" style="enable-background:new 0 0 24 24;" xml:space="preserve">
<g>
	<path d="M8.5,23.5C8.224,23.5,8,23.276,8,23V3c0-0.276,0.224-0.5,0.5-0.5S9,2.724,9,3v20C9,23.276,8.776,23.5,8.5,23.5z"/>
	<path d="M15.5,21.5c-0.276,0-0.5-0.224-0.5-0.5V1c0-0.276,0.224-0.5,0.5-0.5S16,0.724,16,1v20C16,21.276,15.776,21.5,15.5,21.5z"/>
	<path d="M2.5,19.5c-0.203,0-0.395-0.125-0.469-0.327c-0.096-0.259,0.037-0.547,0.296-0.642l19-7
		c0.255-0.097,0.546,0.036,0.642,0.296c0.096,0.259-0.037,0.547-0.296,0.642l-19,7C2.616,19.49,2.558,19.5,2.5,19.5z"/>
	<path d="M2.5,12.5c-0.203,0-0.395-0.125-0.469-0.327c-0.096-0.259,0.037-0.547,0.296-0.642l19-7
		c0.255-0.097,0.546,0.036,0.642,0.296c0.096,0.259-0.037,0.547-0.296,0.642l-19,7C2.616,12.49,2.558,12.5,2.5,12.5z"/>
</g>
<g>
</g>
<g>
</g>
<g>
</g>
<g>
</g>
<g>
</g>
<g>
</g>
<g>
</g>
<g>
</g>
<g>
</g>
<g>
</g>
<g>
</g>
<g>
</g>
<g>
</g>
<g>
</g>
<g>
</g>
</svg>
