<?xml version="1.0" encoding="iso-8859-1"?>
<!-- Generator: Adobe Illustrator 18.0.0, SVG Export Plug-In . SVG Version: 6.00 Build 0)  -->
<!DOCTYPE svg PUBLIC "-//W3C//DTD SVG 1.1//EN" "http://www.w3.org/Graphics/SVG/1.1/DTD/svg11.dtd">
<svg version="1.1" id="Layer_1" xmlns="http://www.w3.org/2000/svg" xmlns:xlink="http://www.w3.org/1999/xlink" x="0px" y="0px"
	 viewBox="0 0 24 24" style="enable-background:new 0 0 24 24;" xml:space="preserve">
<g id="big_speakers_1_1_">
	<path d="M5.5,22.501h-5c-0.276,0-0.5-0.224-0.5-0.5v-20c0-0.276,0.224-0.5,0.5-0.5h5c0.276,0,0.5,0.224,0.5,0.5v20
		C6,22.277,5.776,22.501,5.5,22.501z M1,21.501h4v-19H1V21.501z"/>
	<path d="M15.5,22.501h-7c-0.276,0-0.5-0.224-0.5-0.5v-13c0-0.276,0.224-0.5,0.5-0.5h7c0.276,0,0.5,0.224,0.5,0.5v13
		C16,22.277,15.776,22.501,15.5,22.501z M9,21.501h6v-12H9V21.501z"/>
	<path d="M23.5,22.501h-5c-0.276,0-0.5-0.224-0.5-0.5v-20c0-0.276,0.224-0.5,0.5-0.5h5c0.276,0,0.5,0.224,0.5,0.5v20
		C24,22.277,23.776,22.501,23.5,22.501z M19,21.501h4v-19h-4V21.501z"/>
	<path d="M12,19.501c-1.103,0-2-0.897-2-2s0.897-2,2-2s2,0.897,2,2S13.103,19.501,12,19.501z M12,16.501c-0.551,0-1,0.449-1,1
		s0.449,1,1,1s1-0.449,1-1S12.551,16.501,12,16.501z"/>
	<path d="M12,14.501c-1.103,0-2-0.897-2-2s0.897-2,2-2s2,0.897,2,2S13.103,14.501,12,14.501z M12,11.501c-0.551,0-1,0.449-1,1
		s0.449,1,1,1s1-0.449,1-1S12.551,11.501,12,11.501z"/>
	<path d="M5.5,13.501h-5c-0.276,0-0.5-0.224-0.5-0.5s0.224-0.5,0.5-0.5h5c0.276,0,0.5,0.224,0.5,0.5S5.776,13.501,5.5,13.501z"/>
	<path d="M23.5,13.501h-5c-0.276,0-0.5-0.224-0.5-0.5s0.224-0.5,0.5-0.5h5c0.276,0,0.5,0.224,0.5,0.5S23.776,13.501,23.5,13.501z"/>
	<circle cx="3" cy="4.501" r="1"/>
	<circle cx="3" cy="7.501" r="1"/>
	<circle cx="21" cy="4.501" r="1"/>
	<circle cx="21" cy="7.501" r="1"/>
</g>
<g>
</g>
<g>
</g>
<g>
</g>
<g>
</g>
<g>
</g>
<g>
</g>
<g>
</g>
<g>
</g>
<g>
</g>
<g>
</g>
<g>
</g>
<g>
</g>
<g>
</g>
<g>
</g>
<g>
</g>
</svg>
