<?xml version="1.0" encoding="iso-8859-1"?>
<!-- Generator: Adobe Illustrator 18.0.0, SVG Export Plug-In . SVG Version: 6.00 Build 0)  -->
<!DOCTYPE svg PUBLIC "-//W3C//DTD SVG 1.1//EN" "http://www.w3.org/Graphics/SVG/1.1/DTD/svg11.dtd">
<svg version="1.1" id="Layer_1" xmlns="http://www.w3.org/2000/svg" xmlns:xlink="http://www.w3.org/1999/xlink" x="0px" y="0px"
	 viewBox="0 0 24 24" style="enable-background:new 0 0 24 24;" xml:space="preserve">
<g id="trompent">
	<path d="M2.484,24.019h-2c-0.276,0-0.5-0.224-0.5-0.5v-2c0-0.133,0.053-0.26,0.146-0.354l1-1c0.195-0.195,0.512-0.195,0.707,0l2,2
		c0.195,0.195,0.195,0.512,0,0.707l-1,1C2.743,23.966,2.616,24.019,2.484,24.019z M0.984,23.019h1.293l0.5-0.5l-1.293-1.293
		l-0.5,0.5V23.019z"/>
	<path d="M1.484,21.019c-0.128,0-0.256-0.049-0.354-0.146c-0.195-0.195-0.195-0.512,0-0.707L13.046,8.25l2.427-7.422
		c0.085-0.263,0.369-0.408,0.63-0.32c0.263,0.086,0.406,0.368,0.32,0.63l-2.464,7.536c-0.024,0.075-0.066,0.143-0.122,0.198l-12,12
		C1.74,20.97,1.612,21.019,1.484,21.019z"/>
	<path d="M3.484,23.019c-0.128,0-0.256-0.049-0.354-0.146c-0.195-0.195-0.195-0.512,0-0.707l12-12
		c0.055-0.055,0.122-0.096,0.195-0.121l7.5-2.5c0.265-0.087,0.545,0.054,0.632,0.316c0.087,0.262-0.054,0.545-0.316,0.632
		l-7.388,2.463L3.837,22.872C3.74,22.97,3.612,23.019,3.484,23.019z"/>
	<path d="M21.527,9.055c-1.387,0-3.03-0.816-4.397-2.183c-2.161-2.161-2.82-4.887-1.5-6.207c0.446-0.446,1.072-0.683,1.81-0.683
		c1.387,0,3.03,0.816,4.397,2.183c2.161,2.161,2.82,4.887,1.5,6.207C22.891,8.819,22.265,9.055,21.527,9.055z M17.44,0.983
		c-0.474,0-0.845,0.131-1.103,0.39c-0.893,0.893-0.206,3.087,1.5,4.793c1.166,1.166,2.58,1.89,3.69,1.89
		c0.474,0,0.845-0.131,1.103-0.39c0.893-0.893,0.206-3.087-1.5-4.793C19.965,1.707,18.551,0.983,17.44,0.983z"/>
	<path d="M9.485,23.019c-0.78,0-1.511-0.303-2.061-0.853L5.63,20.372c-0.195-0.195-0.195-0.512,0-0.707s0.512-0.195,0.707,0
		l1.794,1.794c0.724,0.724,1.985,0.72,2.705,0l3.588-3.588c0.361-0.361,0.56-0.841,0.56-1.351c0-0.513-0.199-0.993-0.56-1.354
		l-1.794-1.794c-0.195-0.195-0.195-0.512,0-0.707s0.512-0.195,0.707,0l1.794,1.794c0.55,0.55,0.853,1.281,0.853,2.058
		c0,0.78-0.303,1.511-0.853,2.061l-3.588,3.588C10.993,22.716,10.262,23.019,9.485,23.019z"/>
	<path d="M10.484,22.019c-0.128,0-0.256-0.049-0.354-0.146l-3-3c-0.195-0.195-0.195-0.512,0-0.707s0.512-0.195,0.707,0l3,3
		c0.195,0.195,0.195,0.512,0,0.707C10.74,21.97,10.612,22.019,10.484,22.019z"/>
	<path d="M12.484,20.019c-0.128,0-0.256-0.049-0.354-0.146l-3-3c-0.195-0.195-0.195-0.512,0-0.707c0.195-0.195,0.512-0.195,0.707,0
		l3,3c0.195,0.195,0.195,0.512,0,0.707C12.74,19.97,12.612,20.019,12.484,20.019z"/>
	<path d="M14.484,18.019c-0.128,0-0.256-0.049-0.354-0.146l-3-3c-0.195-0.195-0.195-0.512,0-0.707s0.512-0.195,0.707,0l3,3
		c0.195,0.195,0.195,0.512,0,0.707C14.74,17.97,14.612,18.019,14.484,18.019z"/>
	<path d="M9.484,13.019c-0.128,0-0.256-0.049-0.354-0.146l-1-1c-0.195-0.195-0.195-0.512,0-0.707s0.512-0.195,0.707,0l1,1
		c0.195,0.195,0.195,0.512,0,0.707C9.74,12.97,9.612,13.019,9.484,13.019z"/>
	<path d="M7.484,15.019c-0.128,0-0.256-0.049-0.354-0.146l-1-1c-0.195-0.195-0.195-0.512,0-0.707s0.512-0.195,0.707,0l1,1
		c0.195,0.195,0.195,0.512,0,0.707C7.74,14.97,7.612,15.019,7.484,15.019z"/>
	<path d="M5.484,17.019c-0.128,0-0.256-0.049-0.354-0.146l-1-1c-0.195-0.195-0.195-0.512,0-0.707s0.512-0.195,0.707,0l1,1
		c0.195,0.195,0.195,0.512,0,0.707C5.74,16.97,5.612,17.019,5.484,17.019z"/>
</g>
<g>
</g>
<g>
</g>
<g>
</g>
<g>
</g>
<g>
</g>
<g>
</g>
<g>
</g>
<g>
</g>
<g>
</g>
<g>
</g>
<g>
</g>
<g>
</g>
<g>
</g>
<g>
</g>
<g>
</g>
</svg>
