<?xml version="1.0" encoding="iso-8859-1"?>
<!-- Generator: Adobe Illustrator 18.0.0, SVG Export Plug-In . SVG Version: 6.00 Build 0)  -->
<!DOCTYPE svg PUBLIC "-//W3C//DTD SVG 1.1//EN" "http://www.w3.org/Graphics/SVG/1.1/DTD/svg11.dtd">
<svg version="1.1" id="Layer_1" xmlns="http://www.w3.org/2000/svg" xmlns:xlink="http://www.w3.org/1999/xlink" x="0px" y="0px"
	 viewBox="0 0 24 24" style="enable-background:new 0 0 24 24;" xml:space="preserve">
<g id="mute_2">
	<g>
		<path d="M16.5,24c-0.13,0-0.258-0.051-0.354-0.146L8.293,16H4.5C4.224,16,4,15.777,4,15.5v-7C4,8.224,4.224,8,4.5,8h1.172
			c0.276,0,0.5,0.224,0.5,0.5S5.948,9,5.672,9H5v6h3.5c0.133,0,0.26,0.053,0.354,0.146L16,22.293v-2.965c0-0.276,0.224-0.5,0.5-0.5
			s0.5,0.224,0.5,0.5V23.5c0,0.202-0.122,0.385-0.309,0.462C16.63,23.987,16.564,24,16.5,24z"/>
		<path d="M16.5,14.172c-0.276,0-0.5-0.224-0.5-0.5V1.707L10.268,7.44c-0.195,0.195-0.512,0.195-0.707,0s-0.195-0.512,0-0.707
			l6.586-6.586c0.143-0.144,0.36-0.186,0.545-0.108C16.878,0.115,17,0.298,17,0.5v13.172C17,13.948,16.776,14.172,16.5,14.172z"/>
	</g>
	<path d="M21.5,22c-0.128,0-0.256-0.049-0.354-0.146l-19-19c-0.195-0.195-0.195-0.512,0-0.707s0.512-0.195,0.707,0l19,19
		c0.195,0.195,0.195,0.512,0,0.707C21.756,21.951,21.628,22,21.5,22z"/>
</g>
<g>
</g>
<g>
</g>
<g>
</g>
<g>
</g>
<g>
</g>
<g>
</g>
<g>
</g>
<g>
</g>
<g>
</g>
<g>
</g>
<g>
</g>
<g>
</g>
<g>
</g>
<g>
</g>
<g>
</g>
</svg>
