<?xml version="1.0" encoding="iso-8859-1"?>
<!-- Generator: Adobe Illustrator 18.0.0, SVG Export Plug-In . SVG Version: 6.00 Build 0)  -->
<!DOCTYPE svg PUBLIC "-//W3C//DTD SVG 1.1//EN" "http://www.w3.org/Graphics/SVG/1.1/DTD/svg11.dtd">
<svg version="1.1" id="Layer_1" xmlns="http://www.w3.org/2000/svg" xmlns:xlink="http://www.w3.org/1999/xlink" x="0px" y="0px"
	 viewBox="0 0 24 24" style="enable-background:new 0 0 24 24;" xml:space="preserve">
<g id="Xilofone_1_">
	<g>
		<g>
			<g>
				<path d="M10,9.001H7c-0.276,0-0.5-0.224-0.5-0.5v-4c0-0.276,0.224-0.5,0.5-0.5h3c0.276,0,0.5,0.224,0.5,0.5v4
					C10.5,8.777,10.276,9.001,10,9.001z M7.5,8.001h2v-3h-2V8.001z"/>
				<path d="M17,9.001h-3c-0.276,0-0.5-0.224-0.5-0.5v-4c0-0.276,0.224-0.5,0.5-0.5h3c0.276,0,0.5,0.224,0.5,0.5v4
					C17.5,8.777,17.276,9.001,17,9.001z M14.5,8.001h2v-3h-2V8.001z"/>
				<path d="M22,9.001h-1c-0.276,0-0.5-0.224-0.5-0.5v-4c0-0.276,0.224-0.5,0.5-0.5h1c0.827,0,1.5,0.673,1.5,1.5v2
					C23.5,8.328,22.827,9.001,22,9.001z M21.5,8.001H22c0.276,0,0.5-0.224,0.5-0.5v-2c0-0.276-0.224-0.5-0.5-0.5h-0.5V8.001z"/>
				<path d="M3,9.001H2c-0.827,0-1.5-0.673-1.5-1.5v-2c0-0.827,0.673-1.5,1.5-1.5h1c0.276,0,0.5,0.224,0.5,0.5v4
					C3.5,8.777,3.276,9.001,3,9.001z M2,5.001c-0.276,0-0.5,0.224-0.5,0.5v2c0,0.276,0.224,0.5,0.5,0.5h0.5v-3H2z"/>
			</g>
			<path d="M6,24.001H4c-0.827,0-1.5-0.673-1.5-1.5v-21c0-0.827,0.673-1.5,1.5-1.5h2c0.827,0,1.5,0.673,1.5,1.5v21
				C7.5,23.328,6.827,24.001,6,24.001z M4,1.001c-0.276,0-0.5,0.224-0.5,0.5v21c0,0.276,0.224,0.5,0.5,0.5h2
				c0.276,0,0.5-0.224,0.5-0.5v-21c0-0.276-0.224-0.5-0.5-0.5H4z"/>
			<path d="M13,20.001h-2c-0.827,0-1.5-0.673-1.5-1.5v-17c0-0.827,0.673-1.5,1.5-1.5h2c0.827,0,1.5,0.673,1.5,1.5v17
				C14.5,19.328,13.827,20.001,13,20.001z M11,1.001c-0.276,0-0.5,0.224-0.5,0.5v17c0,0.276,0.224,0.5,0.5,0.5h2
				c0.276,0,0.5-0.224,0.5-0.5v-17c0-0.276-0.224-0.5-0.5-0.5H11z"/>
			<path d="M20,16.001h-2c-0.827,0-1.5-0.673-1.5-1.5v-13c0-0.827,0.673-1.5,1.5-1.5h2c0.827,0,1.5,0.673,1.5,1.5v13
				C21.5,15.328,20.827,16.001,20,16.001z M18,1.001c-0.276,0-0.5,0.224-0.5,0.5v13c0,0.276,0.224,0.5,0.5,0.5h2
				c0.276,0,0.5-0.224,0.5-0.5v-13c0-0.276-0.224-0.5-0.5-0.5H18z"/>
		</g>
	</g>
	<path d="M5,7.001c-0.13,0-0.26-0.05-0.35-0.15c-0.1-0.09-0.15-0.22-0.15-0.35c0-0.13,0.05-0.26,0.15-0.35
		c0.2-0.19,0.51-0.19,0.7-0.01c0.1,0.1,0.15,0.23,0.15,0.36c0,0.13-0.05,0.25-0.14,0.35C5.26,6.95,5.13,7.001,5,7.001z"/>
	<path d="M12,7.001c-0.13,0-0.26-0.05-0.35-0.15c-0.1-0.08-0.15-0.21-0.15-0.35c0-0.13,0.05-0.26,0.15-0.35
		c0.18-0.19,0.52-0.19,0.7,0c0.1,0.1,0.15,0.22,0.15,0.35c0,0.13-0.05,0.26-0.15,0.35C12.26,6.95,12.13,7.001,12,7.001z"/>
	<path d="M19,7.001c-0.13,0-0.25-0.05-0.35-0.14c-0.1-0.1-0.15-0.23-0.15-0.36c0-0.13,0.05-0.26,0.14-0.35
		c0.21-0.2,0.52-0.19,0.71-0.01c0.1,0.11,0.15,0.23,0.15,0.36c0,0.13-0.05,0.26-0.14,0.35C19.26,6.95,19.13,7.001,19,7.001z"/>
</g>
<g>
</g>
<g>
</g>
<g>
</g>
<g>
</g>
<g>
</g>
<g>
</g>
<g>
</g>
<g>
</g>
<g>
</g>
<g>
</g>
<g>
</g>
<g>
</g>
<g>
</g>
<g>
</g>
<g>
</g>
</svg>
