<?xml version="1.0" encoding="utf-8"?>
<!-- Generated by IcoMoon.io -->
<!DOCTYPE svg PUBLIC "-//W3C//DTD SVG 1.1//EN" "http://www.w3.org/Graphics/SVG/1.1/DTD/svg11.dtd">
<svg version="1.1" xmlns="http://www.w3.org/2000/svg" xmlns:xlink="http://www.w3.org/1999/xlink" width="30" height="30" viewBox="0 0 30 30">
<path d="M28.45 12.329c-0.209-0.379-0.406-0.737-0.479-1.088-0.058-0.277-0.016-0.641 0.029-1.025 0.067-0.581 0.144-1.239-0.092-1.88-0.235-0.64-0.726-1.101-1.159-1.509-0.281-0.264-0.546-0.514-0.676-0.751-0.171-0.311-0.249-0.697-0.331-1.105-0.114-0.565-0.233-1.149-0.62-1.615-0.512-0.616-1.229-0.883-1.86-1.119-0.313-0.116-0.61-0.227-0.806-0.358-0.293-0.195-0.581-0.484-0.861-0.763-0.557-0.557-1.139-1.105-1.904-1.117-0.277 0.006-0.518 0.195-0.589 0.464-1.637 6.12-6.155 9.386-9.785 12.011-1.656 1.198-3.086 2.233-4.044 3.373-0.585 0.696-0.946 1.391-1.101 2.102-0.23-0.14-0.508-0.251-0.83-0.334-0.196-0.435-0.629-0.741-1.136-0.741-0.689 0-1.25 0.561-1.25 1.25s0.561 1.25 1.25 1.25c0.415 0 0.765-0.216 0.992-0.529 0.98 0.314 1.029 1.132 0.902 2.909-0.103 1.45-0.208 3.217 1.23 4.202v2.168c0 0.345 0.28 0.625 0.625 0.625h0.625v0.625c0 0.345 0.28 0.625 0.625 0.625s0.625-0.28 0.625-0.625v-0.625h11.25v0.625c0 0.345 0.28 0.625 0.625 0.625s0.625-0.28 0.625-0.625v-0.625h0.625c0.345 0 0.625-0.28 0.625-0.625v-3.75c0-0.345-0.28-0.625-0.625-0.625h-6.875v-1.25h3.125c0.345 0 0.625-0.28 0.625-0.625s-0.28-0.625-0.625-0.625h-7.5c-0.345 0-0.625 0.28-0.625 0.625s0.28 0.625 0.625 0.625h3.125v1.25h-6.875c-0.23 0-0.424 0.13-0.531 0.316-0.164-0.559-0.143-1.291-0.076-2.222 0.015-0.216 0.031-0.444 0.041-0.676 0.512 0.272 1.109 0.384 1.724 0.384 0.739 0 1.496-0.148 2.135-0.324 0.014-0.004 0.024-0.014 0.036-0.019 0.589-0.1 1.048-0.591 1.048-1.209 0-0.689-0.561-1.25-1.25-1.25s-1.25 0.561-1.25 1.25c0 0.084 0.032 0.158 0.047 0.238-0.924 0.128-1.67 0.038-2.078-0.274-0.316-0.24-0.47-0.637-0.47-1.214 0-0.701 0.286-1.367 0.9-2.098 0.113-0.134 0.235-0.268 0.364-0.401 0.775 0.026 1.723-0.011 2.821-0.056 4.538-0.189 11.399-0.471 16.129 3.651 0.115 0.101 0.261 0.154 0.411 0.154 0.064 0 0.129-0.010 0.191-0.030 0.974-0.314 1.309-1.498 1.605-2.543 0.060-0.214 0.12-0.425 0.184-0.624 0.066-0.208 0.217-0.461 0.379-0.73 0.331-0.555 0.744-1.246 0.729-2.079-0.010-0.606-0.306-1.145-0.594-1.666zM21.47 4.862c-0.834 1.764-1.904 3.375-3.272 4.928-0.124 0.14-0.296 0.211-0.469 0.211-0.148 0-0.294-0.051-0.414-0.156-0.259-0.229-0.284-0.624-0.055-0.883 1.289-1.463 2.296-2.979 3.080-4.635 0.148-0.313 0.519-0.445 0.832-0.298 0.311 0.148 0.444 0.52 0.298 0.832z"></path>
</svg>
