<?xml version="1.0" encoding="iso-8859-1"?>
<!-- Generator: Adobe Illustrator 19.0.0, SVG Export Plug-In . SVG Version: 6.00 Build 0)  -->
<svg version="1.1" id="Layer_1" xmlns="http://www.w3.org/2000/svg" xmlns:xlink="http://www.w3.org/1999/xlink" x="0px" y="0px"
	 viewBox="0 0 24 24" style="enable-background:new 0 0 24 24;" xml:space="preserve">
<g>
	<g>
		<path d="M7,16.801c-0.276,0-0.5,0.224-0.5,0.5c0,0.276,0.224,0.5,0.5,0.5c0.276,0,0.5-0.224,0.5-0.5
			C7.5,17.025,7.276,16.801,7,16.801z M22.511,5.302h-0.889c0.248-0.357,0.582-0.885,0.802-1.237
			c0.084-0.136,0.099-0.304,0.039-0.452c-0.06-0.148-0.187-0.258-0.342-0.297c-1.394-0.349-2.862,0.086-3.835,1.134
			c-0.174,0.188-0.451,0.482-0.804,0.851H3.5c-1.93,0-3.5,1.57-3.5,3.5c0,0.276,0.224,0.5,0.5,0.5h12
			c0.276,0,0.496-0.208,0.497-0.484c0.007-0.014,0.169-0.269,1.413-0.453c-2.83,2.706-6.693,6.075-10.193,8.012
			C3.6,16.718,3.17,17.311,3.041,18.003c-0.13,0.693,0.055,1.401,0.507,1.943l0.002,0.003c0.464,0.557,1.134,0.853,1.814,0.853
			c0.399,0,0.801-0.102,1.167-0.314c3.047-1.753,8.865-6.415,13.137-12.285c0.527,0.012,1.036,0.027,1.496,0.04
			c0.504,0.016,0.954,0.03,1.321,0.036h0.026c0.393,0,0.763-0.151,1.044-0.426C23.842,7.57,24,7.193,24,6.791
			C24,5.97,23.332,5.302,22.511,5.302z M12.134,8.301H1.05c0.233-1.14,1.242-2,2.45-2h13.007c-0.296,0.3-0.611,0.615-0.942,0.941
			C14.064,7.337,12.579,7.555,12.134,8.301z M20.258,5.536c-0.41,0.654-0.831,1.283-1.252,1.868
			c-0.002,0.002-0.001,0.006-0.003,0.008c-4.186,5.837-9.963,10.48-12.971,12.211c-0.57,0.328-1.29,0.196-1.714-0.314l-0.002-0.003
			c-0.26-0.313-0.367-0.72-0.292-1.118s0.322-0.74,0.678-0.937c5.986-3.313,12.977-10.677,14.317-12.12
			c0.558-0.601,1.335-0.931,2.137-0.933c-0.239,0.369-0.448,0.68-0.51,0.75c-0.029,0.029-0.054,0.06-0.075,0.095
			c-0.1,0.166-0.209,0.327-0.312,0.492C20.259,5.536,20.258,5.536,20.258,5.536z M22.854,7.138c-0.095,0.093-0.219,0.124-0.352,0.14
			c-0.363-0.006-0.809-0.02-1.308-0.035c-0.266-0.007-0.547-0.016-0.839-0.024c0.003-0.004,0.005-0.008,0.008-0.012
			c0.202-0.297,0.397-0.598,0.59-0.9c0.002-0.002,0.003-0.005,0.005-0.007h1.553C22.781,6.3,23,6.519,23,6.789
			C23,6.922,22.948,7.045,22.854,7.138z M19,5.801c-0.276,0-0.5,0.224-0.5,0.5c0,0.276,0.224,0.5,0.5,0.5c0.276,0,0.5-0.224,0.5-0.5
			C19.5,6.025,19.276,5.801,19,5.801z M14,11.301c-0.276,0-0.5,0.224-0.5,0.5c0,0.276,0.224,0.5,0.5,0.5c0.276,0,0.5-0.224,0.5-0.5
			C14.5,11.525,14.276,11.301,14,11.301z"/>
	</g>
</g>
</svg>
