<?xml version="1.0" encoding="iso-8859-1"?>
<!-- Generator: Adobe Illustrator 19.0.0, SVG Export Plug-In . SVG Version: 6.00 Build 0)  -->
<svg version="1.1" id="Layer_1" xmlns="http://www.w3.org/2000/svg" xmlns:xlink="http://www.w3.org/1999/xlink" x="0px" y="0px"
	 viewBox="0 0 24 24" style="enable-background:new 0 0 24 24;" xml:space="preserve">
<g>
	<g>
		<path d="M19,15c-1.103,0-2-0.897-2-2c0-0.276-0.224-0.5-0.5-0.5S16,12.724,16,13c0,1.654,1.346,3,3,3c0.276,0,0.5-0.224,0.5-0.5
			S19.276,15,19,15z M5,15c-1.103,0-2-0.897-2-2c0-0.276-0.224-0.5-0.5-0.5S2,12.724,2,13c0,1.654,1.346,3,3,3
			c0.276,0,0.5-0.224,0.5-0.5S5.276,15,5,15z M19,8c-1.95,0-3.625,1.133-4.449,2.765c0.112-0.349,0.241-0.7,0.404-1.058
			c0.499-1.098,0.536-1.991,0.109-2.654C14.474,6.137,13.205,6,12.5,6h-1c-0.705,0-1.974,0.137-2.564,1.053
			c-0.427,0.663-0.39,1.556,0.109,2.654c0.163,0.358,0.292,0.71,0.404,1.059C8.625,9.133,6.95,8,5,8c-2.757,0-5,2.243-5,5
			s2.243,5,5,5c2.003,0,3.723-1.191,4.52-2.896c0.036,0.167,0.149,0.313,0.322,0.37c0.264,0.087,0.545-0.054,0.632-0.316
			c0.14-0.421,0.234-0.851,0.29-1.289C11.213,13.702,11.5,13.389,11.5,13c0-0.387-0.285-0.7-0.731-0.867
			c-0.105-0.919-0.372-1.867-0.814-2.84c-0.24-0.529-0.466-1.252-0.178-1.699C10.132,7.043,11.186,7,11.5,7h1
			c0.314,0,1.368,0.043,1.723,0.594c0.288,0.447,0.062,1.171-0.178,1.699c-0.442,0.973-0.709,1.921-0.814,2.84
			C12.785,12.3,12.5,12.613,12.5,13c0,0.389,0.287,0.702,0.736,0.869c0.056,0.438,0.15,0.869,0.29,1.289
			c0.07,0.21,0.265,0.342,0.474,0.342c0.052,0,0.105-0.008,0.158-0.026c0.174-0.058,0.286-0.204,0.322-0.37
			C15.278,16.809,16.997,18,19,18c2.757,0,5-2.243,5-5S21.757,8,19,8z M8.927,13.719C8.587,15.582,6.96,17,5,17
			c-2.206,0-4-1.794-4-4s1.794-4,4-4c1.96,0,3.587,1.418,3.927,3.281C8.659,12.458,8.5,12.709,8.5,13S8.659,13.542,8.927,13.719z
			 M19,17c-1.96,0-3.587-1.418-3.927-3.281C15.341,13.542,15.5,13.291,15.5,13s-0.159-0.542-0.427-0.719C15.413,10.418,17.04,9,19,9
			c2.206,0,4,1.794,4,4S21.206,17,19,17z"/>
	</g>
</g>
</svg>
