<?xml version="1.0" encoding="iso-8859-1"?>
<!-- Generator: Adobe Illustrator 19.0.0, SVG Export Plug-In . SVG Version: 6.00 Build 0)  -->
<svg version="1.1" id="Layer_1" xmlns="http://www.w3.org/2000/svg" xmlns:xlink="http://www.w3.org/1999/xlink" x="0px" y="0px"
	 viewBox="0 0 24 24" style="enable-background:new 0 0 24 24;" xml:space="preserve">
<g>
	<g>
		<path d="M18.418,9.216C17.339,6.74,14.87,5.003,12,5.003c-2.226,0-4.208,1.048-5.492,2.673C2.49,8.038,0,9.873,0,12.503
			c0,2.498,1.732,4.893,4.309,5.96c0.864,0.358,1.748,0.533,2.621,0.533c1.784,0,3.518-0.733,4.924-2.139
			c1.867-1.868,4.627-1.794,7.067-1.728c1.878,0.051,3.5,0.094,4.411-0.793C23.776,13.904,24,13.287,24,12.503
			C24,10.779,21.866,9.954,18.418,9.216z M7.149,8.479c0.002-0.003,0.004-0.006,0.006-0.009C8.247,6.977,10.012,6.003,12,6.003
			c3.163,0,5.761,2.459,5.984,5.566c-1.01,0.132-3.586,0.434-5.984,0.434c-2.25,0-4.938-0.306-5.984-0.437
			C6.099,10.418,6.509,9.359,7.149,8.479z M22.634,13.62c-0.61,0.593-2.106,0.553-3.687,0.51c-2.508-0.067-5.63-0.151-7.801,2.02
			c-1.826,1.826-4.18,2.332-6.456,1.39C2.482,16.625,1,14.602,1,12.503c0-1.899,1.818-3.276,4.796-3.729
			C5.291,9.742,5,10.839,5,12.003c0,0.25,0.184,0.461,0.431,0.495C5.58,12.519,9.083,13.003,12,13.003
			c3.125,0,6.539-0.5,6.573-0.505C18.818,12.461,19,12.252,19,12.003c0-0.582-0.079-1.144-0.214-1.685
			C20.897,10.801,23,11.476,23,12.503C23,13.014,22.881,13.38,22.634,13.62z"/>
	</g>
</g>
</svg>
