<?xml version="1.0" encoding="iso-8859-1"?>
<!-- Generator: Adobe Illustrator 19.0.0, SVG Export Plug-In . SVG Version: 6.00 Build 0)  -->
<svg version="1.1" id="Layer_1" xmlns="http://www.w3.org/2000/svg" xmlns:xlink="http://www.w3.org/1999/xlink" x="0px" y="0px"
	 viewBox="0 0 24 24" style="enable-background:new 0 0 24 24;" xml:space="preserve">
<g>
	<g>
		<path d="M12,0C5.935,0,1,4.935,1,11v7.5c0,1.759,1.308,3.204,3,3.449V22c0,1.103,0.897,2,2,2c1.103,0,2-0.897,2-2v-7
			c0-1.103-0.897-2-2-2c-1.103,0-2,0.897-2,2v-4c0-4.411,3.589-8,8-8s8,3.589,8,8v4c0-1.103-0.897-2-2-2c-1.103,0-2,0.897-2,2v7
			c0,1.103,0.897,2,2,2c1.103,0,2-0.897,2-2v-0.051c1.692-0.245,3-1.691,3-3.449V11C23,4.935,18.065,0,12,0z M5,15
			c0-0.551,0.449-1,1-1s1,0.449,1,1v7c0,0.551-0.449,1-1,1s-1-0.449-1-1V15z M19,22c0,0.551-0.449,1-1,1s-1-0.449-1-1v-7
			c0-0.551,0.449-1,1-1s1,0.449,1,1V22z M4,20.949c-1.139-0.232-2-1.243-2-2.449s0.861-2.217,2-2.449V20.949z M20,20.949v-4.899
			c1.139,0.232,2,1.243,2,2.449S21.139,20.717,20,20.949z M22,16.058c-0.286-0.293-0.627-0.528-1-0.707V11c0-4.962-4.038-9-9-9
			s-9,4.038-9,9v4.351c-0.373,0.179-0.714,0.414-1,0.707V11C2,5.486,6.486,1,12,1s10,4.486,10,10V16.058z"/>
	</g>
</g>
</svg>
