<?xml version="1.0" encoding="iso-8859-1"?>
<!-- Generator: Adobe Illustrator 19.0.0, SVG Export Plug-In . SVG Version: 6.00 Build 0)  -->
<svg version="1.1" id="Layer_1" xmlns="http://www.w3.org/2000/svg" xmlns:xlink="http://www.w3.org/1999/xlink" x="0px" y="0px"
	 viewBox="0 0 24 24" style="enable-background:new 0 0 24 24;" xml:space="preserve">
<g>
	<g>
		<path d="M12.5,5.5C12.5,5.224,12.276,5,12,5s-0.5,0.224-0.5,0.5S11.724,6,12,6S12.5,5.776,12.5,5.5z M12,21
			c-0.276,0-0.5,0.224-0.5,0.5S11.724,22,12,22s0.5-0.224,0.5-0.5S12.276,21,12,21z M4,13c-0.276,0-0.5,0.224-0.5,0.5S3.724,14,4,14
			s0.5-0.224,0.5-0.5S4.276,13,4,13z M13.5,3.12V1H14c0.276,0,0.5-0.224,0.5-0.5S14.276,0,14,0h-4C9.724,0,9.5,0.224,9.5,0.5
			S9.724,1,10,1h0.5v2.12c-5.08,0.732-9,5.101-9,10.38C1.5,19.29,6.21,24,12,24s10.5-4.71,10.5-10.5
			C22.5,8.221,18.58,3.852,13.5,3.12z M11.5,1h1v2h-1V1z M12,23c-5.238,0-9.5-4.262-9.5-9.5C2.5,8.262,6.762,4,12,4
			s9.5,4.262,9.5,9.5C21.5,18.738,17.238,23,12,23z M20,13c-0.276,0-0.5,0.224-0.5,0.5S19.724,14,20,14s0.5-0.224,0.5-0.5
			S20.276,13,20,13z M13.085,8.948C12.811,8.244,12.5,7.446,12.5,6.5C12.5,6.224,12.276,6,12,6s-0.5,0.224-0.5,0.5
			c0,0.946-0.311,1.744-0.585,2.448C10.692,9.519,10.5,10.013,10.5,10.5c0,0.718,0.421,1.305,0.738,1.715
			C10.798,12.477,10.5,12.952,10.5,13.5c0,0.06,0.011,0.117,0.018,0.175c-0.54,0.092-1.534,0.268-2.7,1.435
			c-0.345,0.345-0.558,0.829-0.805,1.391c-0.303,0.692-0.648,1.476-1.317,2.145C5.599,18.744,5.55,18.872,5.55,19
			s0.048,0.257,0.146,0.354C5.794,19.451,5.922,19.5,6.05,19.5s0.256-0.049,0.352-0.147c0.669-0.669,1.455-1.013,2.146-1.317
			c0.562-0.246,1.046-0.459,1.391-0.804c0.963-0.963,1.243-1.834,1.369-2.409C11.516,14.932,11.749,15,12,15
			c0.827,0,1.5-0.673,1.5-1.5c0-0.548-0.298-1.023-0.738-1.285c0.317-0.41,0.738-0.996,0.738-1.715
			C13.5,10.013,13.308,9.519,13.085,8.948z M9.233,16.526c-0.212,0.211-0.616,0.389-1.086,0.595
			c-0.125,0.055-0.256,0.112-0.391,0.174c0.062-0.135,0.118-0.266,0.174-0.391c0.206-0.469,0.384-0.874,0.596-1.086
			c0.713-0.713,1.323-0.964,1.776-1.078C10.184,15.203,9.933,15.825,9.233,16.526z M12,14c-0.275,0-0.5-0.224-0.5-0.5
			S11.725,13,12,13s0.5,0.224,0.5,0.5S12.275,14,12,14z M12,11.568c-0.242-0.317-0.5-0.693-0.5-1.068
			c0-0.299,0.16-0.712,0.347-1.189c0.049-0.128,0.101-0.261,0.153-0.4c0.052,0.139,0.104,0.272,0.153,0.4
			C12.34,9.788,12.5,10.201,12.5,10.5C12.5,10.875,12.242,11.251,12,11.568z"/>
	</g>
</g>
</svg>
