<?xml version="1.0" encoding="iso-8859-1"?>
<!-- Generator: Adobe Illustrator 19.0.0, SVG Export Plug-In . SVG Version: 6.00 Build 0)  -->
<svg version="1.1" id="Layer_1" xmlns="http://www.w3.org/2000/svg" xmlns:xlink="http://www.w3.org/1999/xlink" x="0px" y="0px"
	 viewBox="0 0 24 24" style="enable-background:new 0 0 24 24;" xml:space="preserve">
<g>
	<g>
		<path d="M14.83,0.623C14.545,0.227,14.101,0,13.613,0h-3.225C9.9,0,9.456,0.227,9.171,0.623C8.885,1.019,8.81,1.512,8.964,1.975
			l0.333,1C9.502,3.588,10.074,4,10.72,4h2.559c0.646,0,1.218-0.412,1.424-1.025l0.334-1C15.19,1.512,15.115,1.019,14.83,0.623z
			 M14.087,1.659l-0.333,1c-0.069,0.205-0.26,0.342-0.475,0.342H10.72c-0.215,0-0.406-0.137-0.474-0.342l-0.333-1
			C9.861,1.504,9.886,1.34,9.981,1.208C10.076,1.076,10.224,1,10.387,1h3.225c0.163,0,0.311,0.076,0.406,0.208
			C14.113,1.34,14.138,1.505,14.087,1.659z M13,5.001h-2c-0.263,0-0.48,0.202-0.499,0.464l-1,14
			c-0.007,0.089,0.011,0.179,0.051,0.259l2,4C11.637,23.893,11.81,24,11.999,24c0.19,0,0.363-0.107,0.449-0.276l2-4
			c0.04-0.08,0.057-0.17,0.051-0.259l-1-14C13.48,5.204,13.262,5.001,13,5.001z M12,22.382l-1.492-2.983L11.465,6h1.069
			l0.958,13.399L12,22.382z"/>
	</g>
</g>
</svg>
