<?xml version="1.0" encoding="iso-8859-1"?>
<!-- Generator: Adobe Illustrator 19.0.0, SVG Export Plug-In . SVG Version: 6.00 Build 0)  -->
<svg version="1.1" id="Layer_1" xmlns="http://www.w3.org/2000/svg" xmlns:xlink="http://www.w3.org/1999/xlink" x="0px" y="0px"
	 viewBox="-2 4 24 24" style="enable-background:new -2 4 24 24;" xml:space="preserve">
<g id="icomoon-ignore">
	<g>
		<path style="fill:#449FDB;" d="M10,16"/>
	</g>
</g>
<g>
	<g>
		<path d="M11,18H9c-0.276,0-0.5-0.224-0.5-0.5S8.724,17,9,17h2c0.276,0,0.5,0.224,0.5,0.5S11.276,18,11,18z"/>
	</g>
	<g>
		<path d="M21.5,28h-23C-1.776,28-2,27.776-2,27.5v-4c0-0.176,0.092-0.338,0.243-0.429l4.775-2.865L4.001,4.469
			C4.014,4.272,4.14,4.102,4.323,4.032c0.184-0.068,0.391-0.026,0.53,0.114l1.721,1.721C7.151,5.545,8.37,5,10,5
			s2.849,0.545,3.426,0.867l1.721-1.721c0.14-0.14,0.346-0.183,0.53-0.114c0.184,0.07,0.31,0.24,0.322,0.437l0.983,15.738
			l4.774,2.865C21.908,23.162,22,23.324,22,23.5v4C22,27.776,21.776,28,21.5,28z M-1,27h22v-3.217l-4.757-2.854
			c-0.142-0.084-0.231-0.233-0.242-0.397L15.07,5.637l-1.217,1.216c-0.173,0.174-0.447,0.194-0.646,0.052
			C13.194,6.896,11.922,6,10,6S6.806,6.896,6.793,6.905c-0.2,0.143-0.475,0.12-0.646-0.052L4.93,5.637L3.999,20.531
			c-0.011,0.164-0.101,0.313-0.242,0.397L-1,23.783V27z"/>
	</g>
	<g>
		<path d="M11.5,21h-3c-0.099,0-0.195-0.029-0.277-0.084l-3-2c-0.176-0.117-0.259-0.333-0.208-0.537l1-4
			c0.033-0.132,0.118-0.244,0.235-0.312C6.366,14,6.506,13.983,6.638,14.019L10,14.98l3.362-0.961
			c0.132-0.038,0.27-0.019,0.388,0.048c0.117,0.068,0.202,0.18,0.235,0.312l1,4c0.051,0.205-0.032,0.42-0.208,0.537l-3,2
			C11.695,20.971,11.599,21,11.5,21z M8.651,20h2.697l2.581-1.721l-0.789-3.157l-3.003,0.858c-0.09,0.025-0.186,0.025-0.275,0
			l-3.003-0.858L6.07,18.279L8.651,20z"/>
	</g>
	<g>
		<path d="M12.5,13h-1c-0.231,0-0.434-0.16-0.486-0.385c-0.054-0.226,0.056-0.458,0.263-0.562l2-1
			c0.248-0.123,0.547-0.024,0.671,0.224c0.123,0.247,0.023,0.547-0.224,0.671l-0.755,0.377C12.989,12.379,13,12.438,13,12.5
			C13,12.776,12.776,13,12.5,13z"/>
	</g>
	<g>
		<path d="M8.5,13h-1C7.224,13,7,12.776,7,12.5v-0.191l-0.724-0.362c-0.247-0.124-0.347-0.424-0.224-0.671
			c0.124-0.248,0.425-0.345,0.671-0.224l0.99,0.495c0.006,0.003,0.013,0.006,0.019,0.009l0.991,0.496
			c0.207,0.104,0.316,0.336,0.263,0.562C8.934,12.84,8.731,13,8.5,13z"/>
	</g>
</g>
</svg>
