<?xml version="1.0" encoding="iso-8859-1"?>
<!-- Generator: Adobe Illustrator 19.0.0, SVG Export Plug-In . SVG Version: 6.00 Build 0)  -->
<svg version="1.1" id="Layer_1" xmlns="http://www.w3.org/2000/svg" xmlns:xlink="http://www.w3.org/1999/xlink" x="0px" y="0px"
	 viewBox="0 0 24 24" style="enable-background:new 0 0 24 24;" xml:space="preserve">
<g>
	<g>
		<g>
			<path d="M12,17c-2.463,0-4.65-1.99-5.559-5.001C5.615,11.951,5,10.893,5,9.5c0-0.396,0.053-0.784,0.152-1.132
				C5.049,7.864,5,7.427,5,7c0-3.86,3.141-7,7-7s7,3.14,7,7c0,0.427-0.049,0.864-0.152,1.368C18.947,8.716,19,9.104,19,9.5
				c0,1.393-0.615,2.451-1.441,2.499C16.65,15.01,14.463,17,12,17z M6.793,10.917c0.061,0,0.12,0.01,0.175,0.032
				c0.148,0.061,0.275,0.176,0.313,0.332C7.98,14.104,9.877,16,12,16s4.02-1.896,4.719-4.719c0.038-0.156,0.149-0.283,0.298-0.343
				c0.149-0.06,0.317-0.045,0.452,0.04C17.639,11.015,18,10.471,18,9.5c0-0.342-0.049-0.671-0.143-0.951
				c-0.028-0.085-0.033-0.177-0.014-0.265C17.95,7.797,18,7.389,18,7c0-3.309-2.691-6-6-6S6,3.691,6,7
				c0,0.389,0.05,0.797,0.156,1.284c0.02,0.088,0.015,0.179-0.014,0.265C6.049,8.829,6,9.158,6,9.5C6,10.468,6.376,11,6.5,11
				C6.586,10.946,6.69,10.917,6.793,10.917z"/>
		</g>
		<g>
			<path d="M23.5,24h-23C0.224,24,0,23.776,0,23.5v-0.734c0-2.764,1.754-5.231,4.365-6.139l2.572-0.895
				c0.189-0.064,0.398-0.013,0.533,0.134C8.73,17.242,10.339,18,12,18s3.27-0.758,4.529-2.134c0.135-0.147,0.344-0.199,0.533-0.134
				l2.572,0.895C22.246,17.534,24,20.001,24,22.766V23.5C24,23.776,23.776,24,23.5,24z M1,23h22v-0.234
				c0-2.339-1.484-4.426-3.693-5.195l-2.269-0.789C15.621,18.215,13.844,19,12,19s-3.621-0.785-5.038-2.218l-2.269,0.789
				C2.484,18.339,1,20.427,1,22.766V23z"/>
		</g>
		<g>
			<path d="M5.668,8.891c-0.198,0-0.387-0.12-0.464-0.315C5.102,8.319,5.228,8.029,5.483,7.926C5.519,7.913,9,6.488,9,3.5
				C9,3.224,9.224,3,9.5,3S10,3.224,10,3.5c0.151,0.658,4.214,4.391,8.332,4.391c0.276,0,0.5,0.224,0.5,0.5s-0.224,0.5-0.5,0.5
				c-3.381,0-6.972-2.301-8.532-4.01C8.991,7.582,5.998,8.798,5.852,8.856C5.792,8.88,5.729,8.891,5.668,8.891z"/>
		</g>
		<g>
			<path d="M10.5,10h-1C9.224,10,9,9.776,9,9.5S9.224,9,9.5,9h1C10.776,9,11,9.224,11,9.5S10.776,10,10.5,10z"/>
		</g>
		<g>
			<path d="M14.5,10h-1C13.224,10,13,9.776,13,9.5S13.224,9,13.5,9h1C14.776,9,15,9.224,15,9.5S14.776,10,14.5,10z"/>
		</g>
	</g>
	<g>
		<path d="M8.501,15.5c-0.021,0-0.041-0.001-0.062-0.003c-0.425-0.052-4.188-0.537-5.293-1.643c-0.195-0.195-0.195-0.512,0-0.707
			C4.103,12.19,5,8.615,5,7c0-0.276,0.224-0.5,0.5-0.5S6,6.724,6,7c0,1.489-0.718,4.833-1.782,6.404
			c0.967,0.53,3.068,0.944,4.343,1.1c0.274,0.034,0.469,0.283,0.436,0.557C8.966,15.314,8.75,15.5,8.501,15.5z"/>
	</g>
	<g>
		<path d="M15.499,15.5c-0.249,0-0.465-0.186-0.495-0.439c-0.033-0.274,0.161-0.523,0.436-0.557c1.274-0.155,3.376-0.57,4.343-1.1
			C18.718,11.833,18,8.489,18,7c0-0.276,0.224-0.5,0.5-0.5S19,6.724,19,7c0,1.615,0.897,5.19,1.854,6.146
			c0.195,0.195,0.195,0.512,0,0.707c-1.105,1.106-4.868,1.591-5.293,1.643C15.54,15.499,15.52,15.5,15.499,15.5z"/>
	</g>
</g>
<g>
</g>
<g>
</g>
<g>
</g>
<g>
</g>
<g>
</g>
<g>
</g>
<g>
</g>
<g>
</g>
<g>
</g>
<g>
</g>
<g>
</g>
<g>
</g>
<g>
</g>
<g>
</g>
<g>
</g>
</svg>
