<?xml version="1.0" encoding="iso-8859-1"?>
<!-- Generator: Adobe Illustrator 19.0.0, SVG Export Plug-In . SVG Version: 6.00 Build 0)  -->
<svg version="1.1" id="Layer_1" xmlns="http://www.w3.org/2000/svg" xmlns:xlink="http://www.w3.org/1999/xlink" x="0px" y="0px"
	 viewBox="0 0 24 24" style="enable-background:new 0 0 24 24;" xml:space="preserve">
<g>
	<g>
		<g>
			<path d="M23.5,24h-23C0.224,24,0,23.777,0,23.5v-0.734c0-2.764,1.754-5.231,4.365-6.139l2.572-0.895
				c0.189-0.065,0.398-0.012,0.533,0.134C8.73,17.243,10.339,18,12,18s3.27-0.758,4.529-2.134c0.135-0.146,0.344-0.199,0.533-0.134
				l2.572,0.895C22.246,17.534,24,20.002,24,22.766V23.5C24,23.777,23.776,24,23.5,24z M1,23h22v-0.234
				c0-2.339-1.484-4.426-3.693-5.195l-2.269-0.789C15.621,18.215,13.844,19,12,19s-3.621-0.785-5.038-2.218l-2.269,0.789
				C2.484,18.34,1,20.427,1,22.766V23z"/>
		</g>
		<g>
			<path d="M10.5,10h-1C9.224,10,9,9.777,9,9.5S9.224,9,9.5,9h1C10.776,9,11,9.224,11,9.5S10.776,10,10.5,10z"/>
		</g>
		<g>
			<path d="M14.5,10h-1C13.224,10,13,9.777,13,9.5S13.224,9,13.5,9h1C14.776,9,15,9.224,15,9.5S14.776,10,14.5,10z"/>
		</g>
		<g>
			<path d="M12,17c-2.464,0-4.653-1.99-5.562-5.002C5.614,11.948,5,10.891,5,9.5c0-1.133,0.407-2.044,1.004-2.37
				C6.001,7.087,6,7.044,6,7V5.5C6,5.224,6.224,5,6.5,5S7,5.224,7,5.5V7c0,0.113,0.014,0.222,0.026,0.332L7.04,7.457
				c0.016,0.149-0.037,0.298-0.143,0.405C6.791,7.969,6.639,8.017,6.493,8.007c-0.005,0-0.01-0.001-0.015-0.002
				C6.337,8.058,6,8.584,6,9.5C6,10.468,6.376,11,6.5,11c0.135-0.084,0.316-0.11,0.467-0.05c0.147,0.06,0.272,0.176,0.312,0.332
				C7.979,14.104,9.876,16,12,16s4.021-1.896,4.722-4.718c0.039-0.155,0.149-0.282,0.297-0.343c0.148-0.061,0.316-0.046,0.452,0.039
				C17.628,11.014,18,10.466,18,9.5c0-0.917-0.337-1.442-0.479-1.496c-0.005,0.001-0.01,0.001-0.015,0.002
				c-0.149,0.011-0.298-0.038-0.404-0.145c-0.105-0.106-0.158-0.255-0.143-0.405l0.014-0.125C16.986,7.222,17,7.113,17,7V5.5
				C17,5.224,17.224,5,17.5,5S18,5.224,18,5.5V7c0,0.053-0.002,0.106-0.005,0.159C18.611,7.499,19,8.394,19,9.5
				c0,1.391-0.614,2.448-1.438,2.498C16.653,15.01,14.464,17,12,17z"/>
		</g>
	</g>
	<g>
		<path d="M12.5,4c-0.019,0-0.037-0.001-0.056-0.003l-9-1c-0.24-0.027-0.427-0.222-0.443-0.463c-0.016-0.242,0.143-0.46,0.378-0.519
			l8-2c0.058-0.016,0.116-0.02,0.177-0.012l9,1c0.24,0.027,0.427,0.222,0.443,0.463c0.016,0.242-0.143,0.46-0.378,0.519l-8,2
			C12.581,3.995,12.541,4,12.5,4z M6.32,2.31l6.146,0.683L17.68,1.69l-6.146-0.683L6.32,2.31z"/>
	</g>
	<g>
		<path d="M12,7C7.996,7,6.305,5.968,6.234,5.924C6.089,5.832,6,5.672,6,5.5v-3C6,2.224,6.224,2,6.5,2S7,2.224,7,2.5v2.692
			C7.557,5.441,9.129,6,12,6c2.869,0,4.441-0.559,5-0.808V2c0-0.276,0.224-0.5,0.5-0.5S18,1.724,18,2v3.5
			c0,0.172-0.089,0.332-0.234,0.423C17.695,5.968,16.004,7,12,7z"/>
	</g>
	<g>
		<path d="M20.5,9c-0.189,0-0.362-0.107-0.447-0.276l-1-2c-0.097-0.192-0.059-0.425,0.094-0.577L20,5.293V1.5
			C20,1.224,20.224,1,20.5,1S21,1.224,21,1.5v3.793l0.854,0.854c0.152,0.152,0.19,0.385,0.094,0.577l-1,2
			C20.862,8.893,20.689,9,20.5,9z M20.108,6.599L20.5,7.382l0.392-0.783L20.5,6.207L20.108,6.599z"/>
	</g>
</g>
<g>
</g>
<g>
</g>
<g>
</g>
<g>
</g>
<g>
</g>
<g>
</g>
<g>
</g>
<g>
</g>
<g>
</g>
<g>
</g>
<g>
</g>
<g>
</g>
<g>
</g>
<g>
</g>
<g>
</g>
</svg>
