<?xml version="1.0" encoding="iso-8859-1"?>
<!-- Generator: Adobe Illustrator 19.0.0, SVG Export Plug-In . SVG Version: 6.00 Build 0)  -->
<svg version="1.1" id="Layer_1" xmlns="http://www.w3.org/2000/svg" xmlns:xlink="http://www.w3.org/1999/xlink" x="0px" y="0px"
	 viewBox="0 0 24 24" style="enable-background:new 0 0 24 24;" xml:space="preserve">
<g>
	<g>
		<path d="M20.5,24h-17C1.57,24,0,22.43,0,20.5v-17C0,1.57,1.57,0,3.5,0h17C22.43,0,24,1.57,24,3.5v17C24,22.43,22.43,24,20.5,24z
			 M3.5,1C2.122,1,1,2.122,1,3.5v17C1,21.878,2.122,23,3.5,23h17c1.378,0,2.5-1.122,2.5-2.5v-17C23,2.122,21.878,1,20.5,1H3.5z"/>
	</g>
	<g>
		<path d="M23.5,5h-23C0.224,5,0,4.776,0,4.5S0.224,4,0.5,4h23C23.776,4,24,4.224,24,4.5S23.776,5,23.5,5z"/>
	</g>
	<g>
		<circle cx="3.5" cy="2.5" r="0.5"/>
	</g>
	<g>
		<circle cx="5.5" cy="2.5" r="0.5"/>
	</g>
	<g>
		<circle cx="7.5" cy="2.5" r="0.5"/>
	</g>
	<g>
		<path d="M13.3,21h-2.6c-0.394,0-0.745-0.292-0.817-0.678l-0.206-1.467c-0.249-0.12-0.484-0.258-0.711-0.416l-1.357,0.546
			c-0.385,0.146-0.808-0.002-1.015-0.346L5.29,16.386c-0.205-0.341-0.129-0.786,0.185-1.051l1.169-0.917
			C6.632,14.279,6.625,14.14,6.625,14c0-0.137,0.007-0.274,0.019-0.41l-1.155-0.905c-0.328-0.276-0.404-0.721-0.195-1.069
			l1.296-2.24c0.21-0.351,0.632-0.5,1.008-0.356l1.368,0.55c0.222-0.153,0.459-0.292,0.71-0.414L9.88,7.709
			C9.953,7.291,10.297,7,10.7,7h2.6c0.393,0,0.744,0.291,0.816,0.677l0.207,1.468c0.249,0.12,0.484,0.258,0.711,0.416l1.357-0.546
			C16.778,8.87,17.2,9.017,17.406,9.36l1.304,2.254c0.205,0.341,0.129,0.786-0.185,1.051l-1.169,0.917
			c0.012,0.139,0.019,0.279,0.019,0.418c0,0.137-0.007,0.274-0.019,0.41l1.155,0.905c0.328,0.276,0.404,0.721,0.195,1.069
			l-1.296,2.24c-0.21,0.35-0.633,0.497-1.007,0.357l-1.369-0.551c-0.222,0.153-0.459,0.292-0.71,0.414l-0.203,1.447
			C14.047,20.709,13.703,21,13.3,21z M10.848,20h2.304l0.22-1.566c0.024-0.173,0.138-0.321,0.298-0.39
			c0.363-0.156,0.695-0.349,0.985-0.576c0.14-0.11,0.329-0.136,0.494-0.069l1.472,0.592l1.149-1.987l-1.25-0.979
			c-0.14-0.11-0.211-0.285-0.187-0.461c0.025-0.183,0.042-0.374,0.042-0.564c0-0.192-0.017-0.384-0.042-0.576
			c-0.023-0.175,0.048-0.349,0.187-0.458l1.25-0.98L16.621,10l-1.472,0.592c-0.163,0.067-0.354,0.04-0.494-0.069
			c-0.305-0.237-0.626-0.425-0.981-0.574c-0.163-0.068-0.278-0.217-0.302-0.392L13.152,8h-2.304l-0.22,1.566
			c-0.024,0.173-0.138,0.321-0.298,0.39c-0.363,0.156-0.695,0.349-0.985,0.576c-0.141,0.108-0.33,0.136-0.494,0.069l-1.472-0.592
			L6.23,11.996l1.25,0.979c0.14,0.11,0.211,0.285,0.187,0.461C7.642,13.619,7.625,13.81,7.625,14c0,0.192,0.017,0.384,0.042,0.576
			c0.023,0.175-0.048,0.349-0.187,0.458l-1.25,0.98L7.379,18l1.472-0.592c0.165-0.067,0.354-0.04,0.494,0.069
			c0.305,0.237,0.626,0.425,0.981,0.574c0.163,0.068,0.278,0.217,0.302,0.392L10.848,20z M12,16c-1.103,0-2-0.897-2-2s0.897-2,2-2
			s2,0.897,2,2S13.103,16,12,16z M12,13c-0.551,0-1,0.449-1,1s0.449,1,1,1s1-0.449,1-1S12.551,13,12,13z"/>
	</g>
</g>
<g>
</g>
<g>
</g>
<g>
</g>
<g>
</g>
<g>
</g>
<g>
</g>
<g>
</g>
<g>
</g>
<g>
</g>
<g>
</g>
<g>
</g>
<g>
</g>
<g>
</g>
<g>
</g>
<g>
</g>
</svg>
