<?xml version="1.0" encoding="iso-8859-1"?>
<!-- Generator: Adobe Illustrator 19.0.0, SVG Export Plug-In . SVG Version: 6.00 Build 0)  -->
<svg version="1.1" id="Layer_1" xmlns="http://www.w3.org/2000/svg" xmlns:xlink="http://www.w3.org/1999/xlink" x="0px" y="0px"
	 viewBox="0 0 24 24" style="enable-background:new 0 0 24 24;" xml:space="preserve">
<g>
	<g>
		<path d="M12.604,23H9.158c-0.525,0-0.971-0.387-1.035-0.899l-0.377-2.629c-0.511-0.231-1.006-0.519-1.478-0.858l-2.479,0.996
			c-0.504,0.183-1.053-0.021-1.297-0.466l-2.194-3.795C0.043,14.879,0.153,14.317,0.554,14l2.103-1.644
			c-0.033-0.317-0.048-0.594-0.048-0.857s0.016-0.54,0.048-0.857L0.556,9.001c-0.41-0.324-0.519-0.905-0.254-1.353l2.197-3.801
			C2.743,3.4,3.298,3.2,3.785,3.389L6.27,4.387c0.493-0.35,0.979-0.633,1.475-0.859l0.378-2.638C8.187,0.386,8.632,0,9.158,0h4.4
			c0.526,0,0.972,0.387,1.035,0.9l0.377,2.628c0.511,0.231,1.006,0.519,1.478,0.858l2.479-0.996
			c0.504-0.181,1.054,0.021,1.296,0.467l2.194,3.794c0.255,0.469,0.145,1.031-0.256,1.347l-2.102,1.644
			c0.026,0.252,0.048,0.546,0.048,0.857c0,0.018-0.005,0.099-0.007,0.117c-0.015,0.138-0.088,0.292-0.2,0.375
			c-0.112,0.083-0.257,0.143-0.391,0.119c-1.087-0.198-2.046-0.128-3.018,0.162c-0.156,0.044-0.324,0.014-0.452-0.087
			c-0.127-0.101-0.198-0.257-0.19-0.419c0.003-0.054,0.01-0.107,0.017-0.16c0.009-2.57-2.014-4.593-4.501-4.593
			s-4.51,2.023-4.51,4.511c0,2.487,2.023,4.51,4.51,4.51c0.136-0.017,0.189-0.024,0.243-0.027c0.162-0.005,0.319,0.063,0.419,0.19
			s0.133,0.296,0.087,0.452c-0.18,0.607-0.271,1.23-0.271,1.852c0,1.333,0.404,2.618,1.17,3.714
			c0.106,0.153,0.119,0.352,0.033,0.517C12.961,22.896,12.79,23,12.604,23z M6.342,17.545c0.108,0,0.216,0.035,0.305,0.104
			c0.549,0.422,1.135,0.763,1.744,1.012c0.164,0.067,0.28,0.216,0.306,0.392l0.418,2.915l2.595,0.024
			c-0.567-1.073-0.864-2.265-0.864-3.492c0-0.495,0.05-0.99,0.149-1.479c-2.865-0.192-5.137-2.584-5.137-5.498
			c0-3.039,2.472-5.511,5.51-5.511c2.913,0,5.305,2.272,5.498,5.137c0.732-0.148,1.464-0.19,2.228-0.109
			c-0.014-0.2-0.036-0.388-0.057-0.556c-0.022-0.174,0.05-0.348,0.188-0.456l2.321-1.815l-2.192-3.865L16.56,5.419
			c-0.164,0.066-0.352,0.041-0.491-0.067c-0.549-0.423-1.136-0.763-1.744-1.012c-0.164-0.067-0.28-0.216-0.306-0.392l-0.418-2.915
			L9.158,1L8.696,3.948C8.67,4.123,8.554,4.272,8.39,4.34C7.804,4.58,7.232,4.912,6.642,5.355C6.502,5.46,6.318,5.484,6.155,5.419
			l-2.739-1.1L1.165,8.153l2.328,1.875c0.138,0.108,0.21,0.282,0.188,0.456c-0.05,0.398-0.073,0.721-0.073,1.016
			s0.023,0.618,0.073,1.016c0.022,0.174-0.05,0.348-0.188,0.456l-2.321,1.815l2.193,3.866l2.791-1.072
			C6.216,17.556,6.279,17.545,6.342,17.545z"/>
	</g>
	<g>
		<g>
			<g>
				<g>
					<g>
						<path d="M18.343,24c-3.033,0-5.5-2.467-5.5-5.5s2.467-5.5,5.5-5.5s5.5,2.467,5.5,5.5S21.375,24,18.343,24z M18.343,14
							c-2.481,0-4.5,2.019-4.5,4.5s2.019,4.5,4.5,4.5s4.5-2.019,4.5-4.5S20.824,14,18.343,14z"/>
					</g>
				</g>
				<g>
					<path d="M18.344,22c-0.13,0-0.26-0.05-0.35-0.15c-0.1-0.09-0.15-0.22-0.15-0.35c0-0.13,0.05-0.26,0.15-0.35
						c0.18-0.19,0.51-0.19,0.7,0c0.09,0.09,0.15,0.22,0.15,0.35c0,0.13-0.06,0.26-0.15,0.35C18.604,21.949,18.474,22,18.344,22z"/>
				</g>
				<g>
					<path d="M18.343,20L18.343,20c-0.277,0-0.5-0.225-0.5-0.5l0.001-1c0-0.237,0.167-0.441,0.399-0.489l0.109-0.021
						c1.017-0.188,1.491-0.502,1.491-0.99c0-0.542-0.688-1-1.501-1c-0.783,0-1.457,0.424-1.5,0.946
						c-0.023,0.275-0.266,0.487-0.54,0.456c-0.275-0.023-0.479-0.265-0.456-0.54C15.933,15.801,17.007,15,18.341,15
						c1.379,0,2.501,0.897,2.501,2c0,0.955-0.672,1.596-1.999,1.908l-0.001,0.593C18.842,19.777,18.619,20,18.343,20z"/>
				</g>
			</g>
		</g>
	</g>
</g>
<g>
</g>
<g>
</g>
<g>
</g>
<g>
</g>
<g>
</g>
<g>
</g>
<g>
</g>
<g>
</g>
<g>
</g>
<g>
</g>
<g>
</g>
<g>
</g>
<g>
</g>
<g>
</g>
<g>
</g>
</svg>
