<?xml version="1.0" encoding="iso-8859-1"?>
<!-- Generator: Adobe Illustrator 19.0.0, SVG Export Plug-In . SVG Version: 6.00 Build 0)  -->
<svg version="1.1" id="Layer_1" xmlns="http://www.w3.org/2000/svg" xmlns:xlink="http://www.w3.org/1999/xlink" x="0px" y="0px"
	 viewBox="0 0 24 24" style="enable-background:new 0 0 24 24;" xml:space="preserve">
<g>
	<g>
		<g>
			<path d="M9,12.5c-0.128,0-0.256-0.049-0.354-0.146L6.143,9.849C5.738,9.951,5.362,10,5,10c-1.371,0-2.697-0.572-3.639-1.57
				C0.407,7.418-0.073,6.093,0.009,4.699c0.01-0.172,0.108-0.327,0.26-0.41c0.154-0.085,0.364-0.092,0.517,0L3.521,5.93
				C4.353,5.5,4.896,4.693,4.986,3.775L1.931,1.941C1.79,1.857,1.7,1.71,1.688,1.547C1.678,1.384,1.746,1.226,1.874,1.124
				c0.894-0.721,1.953-1.109,3.064-1.123C6.153-0.02,7.463,0.559,8.417,1.575c1.117,1.191,1.633,2.37,1.578,3.603
				c-0.028,0.677,0.275,1.385,0.833,1.943l1.525,1.525c0.195,0.195,0.195,0.512,0,0.707s-0.512,0.195-0.707,0l-1.525-1.525
				C9.365,7.073,8.956,6.092,8.996,5.135c0.043-0.964-0.373-1.877-1.309-2.875c-0.762-0.812-1.764-1.27-2.736-1.259
				C4.308,1.008,3.686,1.175,3.117,1.488l2.64,1.583C5.908,3.162,6,3.324,6,3.5c0,1.424-0.791,2.705-2.065,3.342L3.724,6.947
				c-0.153,0.076-0.336,0.07-0.48-0.019L1.045,5.61c0.121,0.796,0.479,1.533,1.044,2.133C2.854,8.554,3.887,9,5,9
				c0.354,0,0.718-0.06,1.146-0.189c0.18-0.055,0.369-0.005,0.498,0.125l2.71,2.71c0.195,0.195,0.195,0.512,0,0.707
				C9.256,12.451,9.128,12.5,9,12.5z"/>
		</g>
		<g>
			<path d="M19.003,24c-1.241,0-2.495-0.582-3.442-1.598c-1.1-1.182-1.609-2.352-1.558-3.577c0.03-0.679-0.274-1.389-0.835-1.949
				l-1.521-1.522c-0.195-0.195-0.195-0.512,0-0.707s0.512-0.195,0.707,0l1.521,1.522c0.758,0.757,1.169,1.741,1.128,2.7
				c-0.041,0.957,0.369,1.863,1.29,2.852c0.758,0.813,1.745,1.28,2.71,1.28c0.002,0,0.003,0,0.005,0
				c0.558-0.001,1.103-0.12,1.608-0.347l-2.873-1.724c-0.151-0.09-0.243-0.253-0.243-0.429c0-1.424,0.791-2.705,2.065-3.342
				l0.211-0.105c0.151-0.077,0.336-0.07,0.48,0.019l2.732,1.639C22.841,16.64,21.108,15,19,15c-0.006,0-0.012,0-0.019,0
				c-1.093,0-2.062-0.374-2.741-1.053l-1.594-1.594c-0.195-0.195-0.195-0.512,0-0.707s0.512-0.195,0.707,0l1.594,1.594
				c0.49,0.49,1.208,0.76,2.023,0.76c0.004,0,0.009,0,0.014,0C21.757,14,24,16.243,24,19c0,0.173-0.021,0.339-0.044,0.506
				l-0.017,0.122c-0.021,0.168-0.125,0.313-0.277,0.388c-0.152,0.073-0.332,0.066-0.476-0.021l-3.208-1.924
				c-0.831,0.43-1.374,1.236-1.465,2.155l3.345,2.007c0.146,0.087,0.236,0.241,0.243,0.409c0.006,0.168-0.072,0.329-0.21,0.427
				c-0.854,0.607-1.85,0.93-2.882,0.932C19.008,24,19.006,24,19.003,24z"/>
		</g>
	</g>
	<g>
		<g>
			<path d="M4.998,24c-0.003,0-0.005,0-0.008,0c-1.032-0.002-2.029-0.324-2.882-0.932c-0.138-0.098-0.216-0.258-0.21-0.427
				c0.007-0.168,0.099-0.322,0.243-0.409l3.345-2.007C5.396,19.307,4.853,18.5,4.021,18.07l-3.208,1.924
				c-0.145,0.088-0.325,0.094-0.476,0.021c-0.152-0.074-0.257-0.22-0.277-0.388l-0.017-0.122C0.021,19.339,0,19.173,0,19
				c0-2.757,2.243-5,5-5c0.005,0,0.01,0,0.015,0c0.83,0,1.548-0.27,2.038-0.76l6.119-6.119c0.559-0.558,0.861-1.266,0.831-1.943
				c-0.053-1.234,0.464-2.413,1.58-3.603C16.523,0.572,17.771,0,19.011,0c0.017,0,0.034,0,0.052,0
				c1.11,0.014,2.17,0.402,3.063,1.123c0.128,0.103,0.196,0.261,0.186,0.424C22.3,1.71,22.21,1.857,22.069,1.941l-3.056,1.833
				c0.091,0.918,0.634,1.725,1.465,2.155l2.736-1.641c0.149-0.09,0.34-0.096,0.496-0.01c0.152,0.083,0.271,0.248,0.28,0.42
				c0.082,1.394-0.398,2.719-1.353,3.731C21.697,9.428,20.371,10,19,10c-0.362,0-0.738-0.049-1.143-0.151l-7.025,7.026
				c-0.561,0.56-0.865,1.27-0.835,1.949c0.052,1.226-0.458,2.396-1.558,3.578C7.492,23.418,6.238,24,4.998,24z M3.384,22.653
				C3.89,22.88,4.435,22.999,4.992,23c0.002,0,0.004,0,0.006,0c0.964,0,1.951-0.466,2.709-1.28c0.921-0.989,1.331-1.896,1.29-2.853
				c-0.041-0.958,0.37-1.942,1.128-2.7l7.231-7.232c0.13-0.13,0.319-0.179,0.498-0.125C18.282,8.94,18.646,9,19,9
				c1.113,0,2.146-0.446,2.911-1.256c0.565-0.6,0.923-1.337,1.044-2.133l-2.198,1.318c-0.146,0.088-0.328,0.094-0.48,0.019
				l-0.211-0.105C18.791,6.205,18,4.924,18,3.5c0-0.176,0.092-0.338,0.243-0.429l2.64-1.583c-0.568-0.313-1.19-0.479-1.833-0.487
				c-1.022-0.014-1.976,0.446-2.738,1.259c-0.935,0.997-1.351,1.911-1.309,2.875c0.041,0.956-0.368,1.938-1.124,2.693L7.76,13.947
				C7.081,14.626,6.112,15,5.029,15c-0.006,0-0.012,0-0.018,0c-2.119,0-3.853,1.64-4.001,3.71l2.732-1.639
				c0.145-0.088,0.327-0.095,0.48-0.019l0.211,0.105C5.709,17.795,6.5,19.076,6.5,20.5c0,0.176-0.092,0.338-0.243,0.429
				L3.384,22.653z"/>
		</g>
	</g>
</g>
<g>
</g>
<g>
</g>
<g>
</g>
<g>
</g>
<g>
</g>
<g>
</g>
<g>
</g>
<g>
</g>
<g>
</g>
<g>
</g>
<g>
</g>
<g>
</g>
<g>
</g>
<g>
</g>
<g>
</g>
</svg>
