<?xml version="1.0" encoding="utf-8"?>
<!-- Generator: Adobe Illustrator 19.0.0, SVG Export Plug-In . SVG Version: 6.00 Build 0)  -->
<svg version="1.1" id="Layer_1" xmlns="http://www.w3.org/2000/svg" xmlns:xlink="http://www.w3.org/1999/xlink" x="0px" y="0px"
	 viewBox="0 0 30 30" style="enable-background:new 0 0 30 30;" xml:space="preserve">
<g>
	<g>
		<path d="M12,14.5c-0.1,0-0.2,0-0.3-0.1l-11-7C0.5,7.3,0.4,7,0.6,6.7C0.7,6.5,1,6.4,1.3,6.6l11,7c0.2,0.1,0.3,0.5,0.2,0.7
			C12.3,14.4,12.2,14.5,12,14.5z"/>
	</g>
	<g>
		<path d="M15,18.5c-0.3,0-0.5-0.2-0.5-0.5v-4.8l-0.6,0.6c-0.2,0.2-0.5,0.2-0.7,0s-0.2-0.5,0-0.7l1.5-1.5c0.1-0.1,0.4-0.2,0.5-0.1
			c0.2,0.1,0.3,0.3,0.3,0.5v6C15.5,18.3,15.3,18.5,15,18.5z"/>
	</g>
	<g>
		<path d="M16.5,18.5h-3c-0.3,0-0.5-0.2-0.5-0.5s0.2-0.5,0.5-0.5h3c0.3,0,0.5,0.2,0.5,0.5S16.8,18.5,16.5,18.5z"/>
	</g>
	<g>
		<path d="M15,5c-0.3,0-0.5-0.2-0.5-0.5v-2C14.5,2.2,14.7,2,15,2s0.5,0.2,0.5,0.5v2C15.5,4.8,15.3,5,15,5z"/>
	</g>
	<g>
		<path d="M15,28c-0.3,0-0.5-0.2-0.5-0.5v-2c0-0.3,0.2-0.5,0.5-0.5s0.5,0.2,0.5,0.5v2C15.5,27.8,15.3,28,15,28z"/>
	</g>
	<g>
		<path d="M5,15.5H1c-0.3,0-0.5-0.2-0.5-0.5s0.2-0.5,0.5-0.5h4c0.3,0,0.5,0.2,0.5,0.5S5.3,15.5,5,15.5z"/>
	</g>
	<g>
		<path d="M28.5,15.5H25c-0.3,0-0.5-0.2-0.5-0.5s0.2-0.5,0.5-0.5h3.5c0.3,0,0.5,0.2,0.5,0.5S28.8,15.5,28.5,15.5z"/>
	</g>
	<g>
		<path d="M29,28.5H1c-0.3,0-0.5-0.2-0.5-0.5V2c0-0.3,0.2-0.5,0.5-0.5h28c0.3,0,0.5,0.2,0.5,0.5v26C29.5,28.3,29.3,28.5,29,28.5z
			 M1.5,27.5h27v-25h-27V27.5z"/>
	</g>
	<g>
		<path d="M9,15.5H7c-0.3,0-0.5-0.2-0.5-0.5s0.2-0.5,0.5-0.5h2c0.3,0,0.5,0.2,0.5,0.5S9.3,15.5,9,15.5z"/>
	</g>
	<g>
		<path d="M15,9.5c-0.3,0-0.5-0.2-0.5-0.5V7c0-0.3,0.2-0.5,0.5-0.5s0.5,0.2,0.5,0.5v2C15.5,9.3,15.3,9.5,15,9.5z"/>
	</g>
	<g>
		<path d="M23,15.5h-2c-0.3,0-0.5-0.2-0.5-0.5s0.2-0.5,0.5-0.5h2c0.3,0,0.5,0.2,0.5,0.5S23.3,15.5,23,15.5z"/>
	</g>
	<g>
		<path d="M15,23c-0.3,0-0.5-0.2-0.5-0.5V21c0-0.3,0.2-0.5,0.5-0.5s0.5,0.2,0.5,0.5v1.5C15.5,22.8,15.3,23,15,23z"/>
	</g>
	<g>
		<path d="M15,23.5c-4.7,0-8.5-3.8-8.5-8.5s3.8-8.5,8.5-8.5s8.5,3.8,8.5,8.5S19.7,23.5,15,23.5z M15,7.5c-4.1,0-7.5,3.4-7.5,7.5
			s3.4,7.5,7.5,7.5s7.5-3.4,7.5-7.5S19.1,7.5,15,7.5z"/>
	</g>
	<g>
		<path d="M15,25.5C9.2,25.5,4.5,20.8,4.5,15S9.2,4.5,15,4.5S25.5,9.2,25.5,15S20.8,25.5,15,25.5z M15,5.5c-5.2,0-9.5,4.3-9.5,9.5
			s4.3,9.5,9.5,9.5s9.5-4.3,9.5-9.5S20.2,5.5,15,5.5z"/>
	</g>
</g>
</svg>
