<?xml version="1.0" encoding="utf-8"?>
<!-- Generator: Adobe Illustrator 19.0.0, SVG Export Plug-In . SVG Version: 6.00 Build 0)  -->
<svg version="1.1" id="Layer_1" xmlns="http://www.w3.org/2000/svg" xmlns:xlink="http://www.w3.org/1999/xlink" x="0px" y="0px"
	 viewBox="0 0 30 30" style="enable-background:new 0 0 30 30;" xml:space="preserve">
<g>
	<g>
		<path d="M27.5,30h-23C4.2,30,4,29.8,4,29.5v-13C4,16.2,4.2,16,4.5,16h23c0.3,0,0.5,0.2,0.5,0.5v13C28,29.8,27.8,30,27.5,30z M5,29
			h22V17H5V29z"/>
	</g>
	<g>
		<path d="M29.5,17h-26c-0.1,0-0.3-0.1-0.4-0.2S3,16.6,3,16.5l0-0.9c0-0.3,0.3-0.5,0.5-0.5c0.3,0,0.5,0.2,0.5,0.5L4,16h25v-3H6
			c-0.3,0-0.5-0.2-0.5-0.5S5.7,12,6,12h23.5c0.3,0,0.5,0.2,0.5,0.5v4C30,16.8,29.8,17,29.5,17z"/>
	</g>
	<g>
		<path d="M3,16c-1.7,0-3-1.3-3-3s1.3-3,3-3s3,1.3,3,3S4.7,16,3,16z M3,11c-1.1,0-2,0.9-2,2s0.9,2,2,2s2-0.9,2-2S4.1,11,3,11z"/>
	</g>
	<g>
		<path d="M6,12.3c-0.2,0-0.4-0.1-0.5-0.3c-0.1-0.3,0-0.5,0.3-0.6L27.1,4l-0.9-2.8L3.2,9.5l0.1,0.1c0.2,0.2,0.2,0.5,0,0.7
			s-0.5,0.2-0.7,0L2,9.7C1.9,9.6,1.8,9.4,1.8,9.2S2,8.9,2.2,8.9L26.3,0c0.1,0,0.3,0,0.4,0c0.1,0.1,0.2,0.2,0.3,0.3l1.2,3.8
			c0.1,0.3-0.1,0.5-0.3,0.6L6.1,12.3C6.1,12.3,6,12.3,6,12.3z"/>
	</g>
	<g>
		<path d="M7.4,16.8c-0.1,0-0.2,0-0.3-0.1c-0.2-0.2-0.2-0.5,0-0.7l3.5-3.6c0.2-0.2,0.5-0.2,0.7,0c0.2,0.2,0.2,0.5,0,0.7l-3.5,3.6
			C7.6,16.7,7.5,16.8,7.4,16.8z"/>
	</g>
	<g>
		<path d="M12,17c-0.1,0-0.3,0-0.3-0.1c-0.2-0.2-0.2-0.5,0-0.7l3.6-3.7c0.2-0.2,0.5-0.2,0.7,0c0.2,0.2,0.2,0.5,0,0.7l-3.6,3.7
			C12.3,16.9,12.1,17,12,17z"/>
	</g>
	<g>
		<path d="M17,17c-0.1,0-0.3,0-0.4-0.1c-0.2-0.2-0.2-0.5,0-0.7l3.8-3.9c0.2-0.2,0.5-0.2,0.7,0c0.2,0.2,0.2,0.5,0,0.7l-3.8,3.9
			C17.3,16.9,17.1,17,17,17z"/>
	</g>
	<g>
		<path d="M22,17c-0.1,0-0.3,0-0.3-0.1c-0.2-0.2-0.2-0.5,0-0.7l3.6-3.6c0.2-0.2,0.5-0.2,0.7,0c0.2,0.2,0.2,0.5,0,0.7l-3.6,3.6
			C22.3,16.9,22.1,17,22,17z"/>
	</g>
	<g>
		<path d="M27,17c-0.1,0-0.3,0-0.4-0.1c-0.2-0.2-0.2-0.5,0-0.7l2.4-2.4c0.2-0.2,0.5-0.2,0.7,0s0.2,0.5,0,0.7l-2.4,2.4
			C27.3,16.9,27.1,17,27,17z"/>
	</g>
	<g>
		<path d="M9.6,11.1c-0.1,0-0.2,0-0.3-0.1L5.7,8.5C5.4,8.3,5.4,8,5.5,7.8C5.7,7.6,6,7.5,6.2,7.7l3.6,2.5c0.2,0.2,0.3,0.5,0.1,0.7
			C9.9,11,9.7,11.1,9.6,11.1z"/>
	</g>
	<g>
		<path d="M14.4,9.2c-0.1,0-0.2,0-0.3-0.1l-3.6-2.2c-0.2-0.1-0.3-0.5-0.2-0.7C10.5,6,10.8,5.9,11.1,6l3.6,2.2
			C14.9,8.4,15,8.7,14.9,9C14.8,9.1,14.6,9.2,14.4,9.2z"/>
	</g>
	<g>
		<path d="M18.6,7.5c-0.1,0-0.2,0-0.3-0.1l-3.6-2.2c-0.2-0.1-0.3-0.5-0.2-0.7c0.1-0.2,0.5-0.3,0.7-0.2l3.6,2.2
			c0.2,0.1,0.3,0.5,0.2,0.7C19,7.4,18.8,7.5,18.6,7.5z"/>
	</g>
	<g>
		<path d="M23.3,6.1c-0.1,0-0.2,0-0.3-0.1l-3.6-2.2c-0.2-0.1-0.3-0.5-0.2-0.7s0.5-0.3,0.7-0.2l3.6,2.2c0.2,0.1,0.3,0.5,0.2,0.7
			C23.6,6,23.4,6.1,23.3,6.1z"/>
	</g>
	<g>
		<path d="M27.2,4.3c-0.1,0-0.2,0-0.3-0.1L23.3,2c-0.2-0.1-0.3-0.5-0.2-0.7c0.1-0.2,0.5-0.3,0.7-0.2l3.6,2.2
			c0.2,0.1,0.3,0.5,0.2,0.7C27.5,4.2,27.4,4.3,27.2,4.3z"/>
	</g>
	<g>
		<path d="M8.5,25h-1C7.2,25,7,24.8,7,24.5S7.2,24,7.5,24h1C8.8,24,9,23.8,9,23.3c0-0.4-0.3-0.8-0.7-0.8H7.5C7.2,22.5,7,22.3,7,22
			v-2.5C7,19.2,7.2,19,7.5,19h2c0.3,0,0.5,0.2,0.5,0.5S9.8,20,9.5,20H8v1.5h0.3c0.9,0,1.7,0.8,1.7,1.8C10,24.3,9.4,25,8.5,25z"/>
	</g>
	<g>
		<path d="M13.5,25c-0.3,0-0.5-0.2-0.5-0.5V24h-1.5c-0.2,0-0.3-0.1-0.4-0.2s-0.1-0.3,0-0.5l2-4c0.1-0.2,0.4-0.3,0.7-0.2
			c0.2,0.1,0.3,0.4,0.2,0.7L12.3,23h1.2c0.3,0,0.5,0.2,0.5,0.5v1C14,24.8,13.8,25,13.5,25z"/>
	</g>
	<g>
		<path d="M13.5,27h-6C7.2,27,7,26.8,7,26.5S7.2,26,7.5,26h6c0.3,0,0.5,0.2,0.5,0.5S13.8,27,13.5,27z"/>
	</g>
	<g>
		<path d="M24.5,21h-7c-0.3,0-0.5-0.2-0.5-0.5s0.2-0.5,0.5-0.5h7c0.3,0,0.5,0.2,0.5,0.5S24.8,21,24.5,21z"/>
	</g>
	<g>
		<path d="M24.5,24h-7c-0.3,0-0.5-0.2-0.5-0.5s0.2-0.5,0.5-0.5h7c0.3,0,0.5,0.2,0.5,0.5S24.8,24,24.5,24z"/>
	</g>
	<g>
		<path d="M24.5,27h-7c-0.3,0-0.5-0.2-0.5-0.5s0.2-0.5,0.5-0.5h7c0.3,0,0.5,0.2,0.5,0.5S24.8,27,24.5,27z"/>
	</g>
</g>
</svg>
