<?xml version="1.0" encoding="utf-8"?>
<!-- Generator: Adobe Illustrator 19.0.0, SVG Export Plug-In . SVG Version: 6.00 Build 0)  -->
<svg version="1.1" id="Layer_1" xmlns="http://www.w3.org/2000/svg" xmlns:xlink="http://www.w3.org/1999/xlink" x="0px" y="0px"
	 viewBox="0 0 30 30" style="enable-background:new 0 0 30 30;" xml:space="preserve">
<g id="XMLID_193_">
	<g id="XMLID_194_">
		<path id="XMLID_596_" d="M16.2,29.5h-2.9l-1.6-1.8c-0.8-0.8-1.2-1.8-1.2-3v-4.2h9v4.2c0,1.1-0.4,2.2-1.2,3L16.2,29.5z M13.7,28.5
			h2.1l1.8-1.5c0.6-0.6,0.9-1.4,0.9-2.3v-3.2h-7v3.2c0,0.9,0.3,1.7,1,2.3L13.7,28.5z"/>
	</g>
	<g id="XMLID_195_">
		<path id="XMLID_595_" d="M18,21.5c-0.3,0-0.5-0.2-0.5-0.5v-4c0-0.3,0.2-0.5,0.5-0.5s0.5,0.2,0.5,0.5v4
			C18.5,21.3,18.3,21.5,18,21.5z"/>
	</g>
	<g id="XMLID_196_">
		<path id="XMLID_594_" d="M13,21.5c-0.3,0-0.5-0.2-0.5-0.5c0-2.2-1.5-3-2.5-3c-0.2,0-0.5-0.2-0.5-0.4c0-0.2,0.1-0.5,0.3-0.6l10-3.5
			c0.3-0.1,0.5,0,0.6,0.3c0.1,0.3,0,0.5-0.3,0.6l-8.5,3c1,0.6,1.9,1.8,1.9,3.5C13.5,21.3,13.3,21.5,13,21.5z"/>
	</g>
	<g id="XMLID_197_">
		<path id="XMLID_593_" d="M10,14.5c-0.2,0-0.4-0.1-0.5-0.3c-0.1-0.3,0-0.5,0.3-0.7l10-4c0.3-0.1,0.5,0,0.6,0.3
			c0.1,0.3,0,0.5-0.3,0.7l-10,4C10.1,14.5,10.1,14.5,10,14.5z"/>
	</g>
	<g id="XMLID_198_">
		<path id="XMLID_592_" d="M10,10.5c-0.2,0-0.4-0.1-0.5-0.3c-0.1-0.3,0-0.5,0.3-0.7l10-4c0.3-0.1,0.5,0,0.6,0.3
			c0.1,0.3,0,0.5-0.3,0.7l-10,4C10.1,10.5,10.1,10.5,10,10.5z"/>
	</g>
	<g id="XMLID_199_">
		<path id="XMLID_591_" d="M10,6.5c-0.2,0-0.4-0.1-0.5-0.3c-0.1-0.3,0-0.5,0.3-0.7l10-4c0.3-0.1,0.5,0,0.6,0.3
			c0.1,0.3,0,0.5-0.3,0.7l-10,4C10.1,6.5,10.1,6.5,10,6.5z"/>
	</g>
	<g id="XMLID_200_">
		<path id="XMLID_590_" d="M10,3C9.8,3,9.6,2.9,9.5,2.7C9.4,2.4,9.6,2.1,9.8,2l4-1.5c0.3-0.1,0.5,0,0.6,0.3c0.1,0.3,0,0.5-0.3,0.6
			l-4,1.5C10.1,3,10.1,3,10,3z"/>
	</g>
	<g id="XMLID_201_">
		<path id="XMLID_589_" d="M18.5,25.5H11c-0.3,0-0.5-0.2-0.5-0.5s0.2-0.5,0.5-0.5h7.5c0.3,0,0.5,0.2,0.5,0.5S18.8,25.5,18.5,25.5z"
			/>
	</g>
</g>
</svg>
