<?xml version="1.0" encoding="utf-8"?>
<!-- Generator: Adobe Illustrator 19.0.0, SVG Export Plug-In . SVG Version: 6.00 Build 0)  -->
<svg version="1.1" id="Layer_1" xmlns="http://www.w3.org/2000/svg" xmlns:xlink="http://www.w3.org/1999/xlink" x="0px" y="0px"
	 viewBox="0 0 30 30" style="enable-background:new 0 0 30 30;" xml:space="preserve">
<g id="XMLID_320_">
	<g id="XMLID_321_">
		<path id="XMLID_443_" d="M16,21c-0.3,0-0.5-0.2-0.5-0.5v-11C15.5,9.2,15.7,9,16,9s0.5,0.2,0.5,0.5v11C16.5,20.8,16.3,21,16,21z"/>
	</g>
	<g id="XMLID_322_">
		<g id="XMLID_323_">
			<path id="XMLID_437_" d="M11,17c-1,0-2.2-0.5-2.9-1.2c-0.6-0.6-0.7-1.5-0.8-2.5c-0.1-1-0.2-1.9-0.7-2.5c-0.1-0.1-0.2-0.4-0.1-0.5
				C6.6,10.1,6.8,10,7,10c2.6,0,4.2,0.5,5.4,1.6c1.2,1.2,1.7,3.5,0.5,4.7C12.4,16.8,11.7,17,11,17z M7.9,11c0.3,0.7,0.4,1.5,0.4,2.3
				c0.1,0.8,0.1,1.5,0.5,1.9c0.9,0.9,2.5,1.3,3.3,0.5s0.4-2.4-0.5-3.3C10.8,11.5,9.7,11.1,7.9,11z"/>
		</g>
	</g>
	<g id="XMLID_324_">
		<path id="XMLID_436_" d="M16,21c-0.3,0-0.5-0.2-0.5-0.5c0-1.7-1.5-2.7-2.5-3.5c-0.3-0.2-0.6-0.5-0.8-0.7c-0.2-0.2-0.2-0.5,0-0.7
			s0.5-0.2,0.7,0c0.1,0.1,0.4,0.3,0.7,0.6c1.2,0.8,2.9,2.1,2.9,4.3C16.5,20.8,16.3,21,16,21z"/>
	</g>
	<g id="XMLID_325_">
		<g id="XMLID_326_">
			<g id="XMLID_327_">
				<path id="XMLID_432_" d="M20,30h-9c-0.2,0-0.4-0.1-0.5-0.3l-3-9c-0.1-0.2,0-0.3,0.1-0.5C7.7,20.1,7.8,20,8,20h15
					c0.2,0,0.3,0.1,0.4,0.2c0.1,0.1,0.1,0.3,0.1,0.5l-3,9C20.4,29.9,20.2,30,20,30z M11.4,29h8.3l2.7-8H8.7L11.4,29z"/>
			</g>
		</g>
	</g>
	<g id="XMLID_328_">
		<path id="XMLID_431_" d="M16,6c-0.1,0-0.3-0.1-0.3-0.2c-0.1-0.1-0.2-0.2-0.2-0.3s0.1-0.3,0.1-0.3c0.2-0.2,0.5-0.2,0.7,0
			c0.1,0.1,0.2,0.2,0.2,0.4s-0.1,0.3-0.1,0.3C16.3,5.9,16.1,6,16,6z"/>
	</g>
	<g id="XMLID_174_">
		<path id="XMLID_428_" d="M18,10c-0.9,0-1.6-0.2-2-0.7c-0.4,0.4-1.1,0.7-2,0.7c-1.4,0-2.5-1.1-2.5-2.5c0-0.3,0.1-0.6,0.2-0.9
			c-0.7-0.5-1.2-1.2-1.2-2.1C10.5,3.1,11.6,2,13,2c0.2,0,0.4,0,0.5,0.1C13.7,0.9,14.8,0,16,0s2.3,0.9,2.5,2.1C18.6,2,18.8,2,19,2
			c1.4,0,2.5,1.1,2.5,2.5c0,0.9-0.5,1.7-1.2,2.1c0.1,0.3,0.2,0.6,0.2,0.9C20.5,8.9,19.4,10,18,10z M16.5,7.9c0,0.3,0,1.1,1.5,1.1
			c0.8,0,1.5-0.7,1.5-1.5c0-0.3-0.1-0.6-0.3-0.8c-0.1-0.1-0.1-0.3-0.1-0.4c0-0.1,0.2-0.3,0.3-0.3c0.6-0.2,1-0.8,1-1.4
			C20.5,3.7,19.8,3,19,3c-0.3,0-0.5,0.1-0.8,0.2c-0.2,0.1-0.4,0.1-0.5,0c-0.2-0.1-0.2-0.3-0.2-0.5c0-0.1,0-0.1,0-0.2
			C17.5,1.7,16.8,1,16,1s-1.5,0.7-1.5,1.5c0,0.1,0,0.1,0,0.2c0,0.2-0.1,0.4-0.2,0.5c-0.2,0.1-0.4,0.1-0.5,0C13.5,3.1,13.3,3,13,3
			c-0.8,0-1.5,0.7-1.5,1.5c0,0.6,0.4,1.2,1,1.4c0.1,0.1,0.3,0.2,0.3,0.3c0,0.1,0,0.3-0.1,0.4c-0.2,0.2-0.3,0.5-0.3,0.8
			C12.5,8.3,13.2,9,14,9c1.5,0,1.5-0.8,1.5-1c0-0.3,0.2-0.5,0.5-0.5S16.5,7.7,16.5,7.9z"/>
	</g>
</g>
<g id="XMLID_329_">
	<path id="XMLID_427_" d="M15,15.5c-0.3,0-0.5-0.2-0.5-0.5s0.2-0.5,0.5-0.5h0c0.3,0,0.5,0.2,0.5,0.5S15.3,15.5,15,15.5z"/>
</g>
</svg>
