<?xml version="1.0" encoding="utf-8"?>
<!-- Generator: Adobe Illustrator 19.0.0, SVG Export Plug-In . SVG Version: 6.00 Build 0)  -->
<svg version="1.1" id="Layer_1" xmlns="http://www.w3.org/2000/svg" xmlns:xlink="http://www.w3.org/1999/xlink" x="0px" y="0px"
	 viewBox="0 0 30 30" style="enable-background:new 0 0 30 30;" xml:space="preserve">
<g id="XMLID_363_">
	<g id="XMLID_368_">
		<path id="XMLID_389_" d="M8.5,23.5C8.5,23.5,8.4,23.5,8.5,23.5c-0.2,0-0.4-0.1-0.4-0.3l-2-4C5.9,19,6,18.8,6.1,18.6l2.5-2.5
			C8.8,16,8.9,16,9.1,16c0.2,0,0.3,0.1,0.4,0.3l2,4c0.1,0.2,0.1,0.4-0.1,0.6l-2.5,2.5C8.8,23.4,8.6,23.5,8.5,23.5z M7.1,19.1
			l1.5,3.1l1.8-1.8l-1.5-3.1L7.1,19.1z"/>
	</g>
	<g id="XMLID_364_">
		<path id="XMLID_388_" d="M12.5,28.5h-6c-0.2,0-0.4-0.2-0.5-0.4l-3-11c-0.1-0.3,0.1-0.5,0.4-0.6c0.3-0.1,0.5,0.1,0.6,0.4l2.9,10.6
			h5.2L15,16.9c0.1-0.3,0.3-0.4,0.6-0.4c0.3,0.1,0.4,0.3,0.4,0.6l-3,11C12.9,28.3,12.7,28.5,12.5,28.5z"/>
	</g>
	<g id="XMLID_367_">
		<path id="XMLID_366_" d="M22,7.5c-1.7,0-3-1.3-3-3s1.3-3,3-3s3,1.3,3,3S23.6,7.5,22,7.5z M22,2.5c-1.1,0-2,0.9-2,2s0.9,2,2,2
			s2-0.9,2-2S23.1,2.5,22,2.5z"/>
	</g>
	<g id="XMLID_175_">
		<path id="XMLID_314_" d="M23.5,28.5h-5c-0.3,0-0.5-0.2-0.5-0.5l-1-14.3l-1.9,0.7c-0.1,0-0.1,0-0.2,0h-4.3c-0.1,0-0.3,0-0.4-0.1
			c-0.8-0.3-1.4-1-1.4-1.9s0.6-1.6,1.4-1.9c0.1-0.1,0.2-0.1,0.4-0.1h3.7l5.4-2c0.1,0,0.1,0,0.2,0h2.8c1.5,0,3,1.4,3.2,2.9l1,6
			c0,0,0,0,0,0c0.1,0.6-0.1,1.2-0.4,1.6c-0.3,0.3-0.6,0.5-1.1,0.5h-0.6l-1,8.6C24,28.3,23.7,28.5,23.5,28.5z M19,27.5H23l1-8.6
			c0-0.3,0.2-0.4,0.5-0.4h1c0.1,0,0.2,0,0.3-0.1c0.1-0.2,0.2-0.5,0.2-0.8l-1-6c-0.1-1.1-1.2-2.1-2.2-2.1h-2.7l-5.4,2
			c-0.1,0-0.1,0-0.2,0h-3.7c0,0-0.1,0-0.1,0c-0.4,0.1-0.7,0.5-0.7,1s0.3,0.8,0.7,1c0,0,0.1,0,0.1,0h4.1l2.4-1c0.1-0.1,0.3,0,0.5,0
			c0.1,0.1,0.2,0.2,0.2,0.4L19,27.5z"/>
	</g>
</g>
</svg>
