<?xml version="1.0" encoding="utf-8"?>
<!-- Generator: Adobe Illustrator 19.0.0, SVG Export Plug-In . SVG Version: 6.00 Build 0)  -->
<svg version="1.1" id="Layer_1" xmlns="http://www.w3.org/2000/svg" xmlns:xlink="http://www.w3.org/1999/xlink" x="0px" y="0px"
	 viewBox="0 0 30 30" style="enable-background:new 0 0 30 30;" xml:space="preserve">
<g id="XMLID_91_">
	<g id="XMLID_100_">
		<path id="XMLID_772_" d="M19,30h-7c-0.3,0-0.5-0.2-0.5-0.4c-0.2-1.9,0-9.3,0.4-11.4c-2-1.7-7-3.2-7.1-3.2
			c-0.2-0.1-0.4-0.3-0.4-0.6S4.7,14,5,14h6.6c0.5-1.8,2.6-8.5,4-9.9C15.8,4,16,4,16.2,4.1c0.2,0.1,0.3,0.3,0.3,0.5
			c-0.5,2.4,0.6,7,0.9,8.4c1.7-0.1,6.7-0.1,8,1.2c0.1,0.1,0.2,0.4,0.1,0.5C25.4,14.9,25.2,15,25,15c-2,0-6.7,0-8.5,1.7
			c0.1,2,2,9.1,3,12.7c0,0.2,0,0.3-0.1,0.4C19.3,29.9,19.2,30,19,30z M12.5,29h5.9c-0.6-2.4-2.8-10.6-2.8-12.5c0-0.1,0-0.2,0.1-0.3
			c1.2-1.3,3.5-1.9,6.1-2.1C20.2,14,18.3,13.9,17,14c-0.2,0-0.4-0.1-0.5-0.4c-0.1-0.2-1-4-1.1-7.1c-1.1,2.4-2.4,6.4-2.9,8.1
			C12.4,14.9,12.2,15,12,15H8c1.7,0.7,3.8,1.6,4.8,2.6C13,17.8,13,18,13,18.2C12.6,19.2,12.3,26.4,12.5,29z"/>
	</g>
	<g id="XMLID_8_">
		<path id="XMLID_771_" d="M22,21c-0.2,0-0.3,0-0.5,0c-0.2,0-0.4,0-0.5,0c-0.7,0-1.3-0.1-2.1-0.3c-0.3-0.1-0.4-0.3-0.4-0.6
			c0.1-0.3,0.3-0.4,0.6-0.4C20,20,20.7,20,21.4,20c0,0,0.1,0,0.2,0c0.2,0,0.3,0,0.5,0c3.6,0,6.5-2.9,6.5-6.5c0-1.4-0.4-2.7-1.2-3.8
			c-0.1-0.1-0.1-0.3-0.1-0.5c0.2-0.6,0.3-1.2,0.3-1.8C27.5,4.5,25,2,22,2c-1.1,0-2.2,0.3-3.1,0.9C18.8,3,18.7,3,18.6,3
			c-0.3,0-0.4,0-0.4,0c-0.2,0.1-0.5,0-0.7-0.2C16.9,1.7,15.7,1,14.4,1c-1.6,0-3,1.1-3.4,2.6c0,0.2-0.2,0.3-0.3,0.3
			c-0.1,0.1-0.3,0-0.4-0.1C9.5,3.3,8.5,3,7.5,3c-2.8,0-5,2.2-5,5c0,0.6,0.1,1.2,0.3,1.8c0.1,0.2,0,0.3-0.1,0.5
			c-0.8,1.1-1.3,2.3-1.3,3.7c0,3.3,2.7,6.1,6.1,6.1c0.6,0,1.2-0.1,1.8-0.3c0,0,0.1,0,0.2,0l0.7,0c0.3,0,0.5,0.2,0.5,0.5
			c0,0.3-0.2,0.5-0.5,0.5c0,0,0,0,0,0l-0.6,0c-4.8,1.4-9.1-2.2-9.1-6.7c0-1.4,0.5-2.8,1.3-4C1.6,9.3,1.5,8.6,1.5,8c0-3.3,2.7-6,6-6
			c1,0,1.9,0.2,2.8,0.7C11,1.1,12.6,0,14.4,0c1.5,0,2.9,0.8,3.8,2c0.1,0,0.2,0,0.3,0c1-0.7,2.2-1,3.5-1c3.6,0,6.5,2.9,6.5,6.5
			c0,0.6-0.1,1.2-0.3,1.8c0.8,1.2,1.3,2.7,1.3,4.2C29.5,17.6,26.1,21,22,21z"/>
	</g>
</g>
</svg>
