<?xml version="1.0" encoding="iso-8859-1"?>
<!-- Generator: Adobe Illustrator 19.0.0, SVG Export Plug-In . SVG Version: 6.00 Build 0)  -->
<svg version="1.1" id="Layer_1" xmlns="http://www.w3.org/2000/svg" xmlns:xlink="http://www.w3.org/1999/xlink" x="0px" y="0px"
	 viewBox="0 0 24 24" style="enable-background:new 0 0 24 24;" xml:space="preserve">
<g>
	<path d="M12.5,1c0,0.511,0.049,1.009,0.12,1.5h0.88C13.776,2.5,14,2.724,14,3s-0.224,0.5-0.5,0.5h-0.687
		c0.171,0.697,0.411,1.365,0.714,2l0.715-0.429c0.237-0.143,0.544-0.065,0.686,0.171c0.142,0.237,0.065,0.544-0.171,0.686
		l-0.756,0.454c0.359,0.598,0.774,1.155,1.241,1.668l0.404-0.404c0.195-0.195,0.512-0.195,0.707,0s0.195,0.512,0,0.707l-0.404,0.404
		c0.513,0.467,1.071,0.882,1.668,1.241l0.454-0.756c0.142-0.237,0.448-0.313,0.686-0.171c0.237,0.142,0.313,0.449,0.171,0.686
		L18.5,10.472c0.635,0.303,1.303,0.543,2,0.714V10.5c0-0.276,0.224-0.5,0.5-0.5s0.5,0.224,0.5,0.5v0.88
		c0.491,0.071,0.989,0.12,1.5,0.12h0.475C23.217,5.558,18.442,0.783,12.5,0.525V1z"/>
	<path d="M11.5,23c0-0.511-0.049-1.009-0.12-1.5H10.5c-0.276,0-0.5-0.224-0.5-0.5s0.224-0.5,0.5-0.5h0.687
		c-0.171-0.697-0.411-1.365-0.714-2l-0.715,0.429C9.677,18.977,9.588,19,9.5,19c-0.17,0-0.335-0.086-0.429-0.243
		c-0.142-0.237-0.065-0.544,0.171-0.686l0.756-0.454c-0.359-0.598-0.774-1.155-1.241-1.668l-0.404,0.404
		C8.256,16.451,8.128,16.5,8,16.5s-0.256-0.049-0.354-0.146c-0.195-0.195-0.195-0.512,0-0.707l0.404-0.404
		c-0.513-0.467-1.071-0.882-1.668-1.241l-0.454,0.756C5.835,14.914,5.669,15,5.5,15c-0.087,0-0.176-0.023-0.257-0.071
		c-0.237-0.142-0.313-0.449-0.171-0.686L5.5,13.528c-0.635-0.303-1.303-0.543-2-0.714V13.5C3.5,13.776,3.276,14,3,14
		s-0.5-0.224-0.5-0.5v-0.88C2.009,12.549,1.511,12.5,1,12.5H0.525C0.783,18.442,5.558,23.217,11.5,23.475V23z"/>
	<path d="M23,12.5c-0.51,0-1.008-0.045-1.5-0.109V13c0,0.276-0.224,0.5-0.5,0.5s-0.5-0.224-0.5-0.5v-0.782
		c-0.882-0.197-1.723-0.499-2.516-0.886l-0.555,0.925C17.335,12.414,17.169,12.5,17,12.5c-0.087,0-0.176-0.023-0.257-0.071
		c-0.237-0.142-0.313-0.449-0.171-0.686l0.533-0.888c-0.668-0.401-1.29-0.867-1.861-1.391l-0.889,0.889
		C14.256,10.451,14.128,10.5,14,10.5s-0.256-0.049-0.354-0.146c-0.195-0.195-0.195-0.512,0-0.707l0.889-0.889
		c-0.524-0.571-0.989-1.194-1.391-1.861l-0.888,0.533C12.177,7.477,12.088,7.5,12,7.5c-0.17,0-0.335-0.086-0.429-0.243
		c-0.142-0.237-0.065-0.544,0.171-0.686l0.925-0.555c-0.387-0.794-0.689-1.634-0.886-2.516H11c-0.276,0-0.5-0.224-0.5-0.5
		s0.224-0.5,0.5-0.5h0.609C11.545,2.008,11.5,1.51,11.5,1V0.525C5.558,0.783,0.783,5.558,0.525,11.5H1c0.51,0,1.008,0.045,1.5,0.109
		V11c0-0.276,0.224-0.5,0.5-0.5s0.5,0.224,0.5,0.5v0.782c0.882,0.197,1.723,0.499,2.516,0.886l0.555-0.925
		c0.143-0.237,0.449-0.313,0.686-0.171s0.313,0.449,0.171,0.686l-0.533,0.888c0.668,0.401,1.29,0.867,1.861,1.391l0.889-0.889
		c0.195-0.195,0.512-0.195,0.707,0s0.195,0.512,0,0.707l-0.889,0.889c0.524,0.571,0.989,1.194,1.391,1.861l0.888-0.533
		c0.237-0.142,0.544-0.065,0.686,0.171c0.142,0.237,0.065,0.544-0.171,0.686l-0.925,0.555c0.387,0.794,0.689,1.634,0.886,2.516H13
		c0.276,0,0.5,0.224,0.5,0.5s-0.224,0.5-0.5,0.5h-0.609c0.065,0.492,0.109,0.99,0.109,1.5v0.475
		c5.942-0.257,10.717-5.033,10.975-10.975H23z"/>
</g>
<g>
</g>
<g>
</g>
<g>
</g>
<g>
</g>
<g>
</g>
<g>
</g>
<g>
</g>
<g>
</g>
<g>
</g>
<g>
</g>
<g>
</g>
<g>
</g>
<g>
</g>
<g>
</g>
<g>
</g>
</svg>
