<?xml version="1.0" encoding="iso-8859-1"?>
<!-- Generator: Adobe Illustrator 19.0.0, SVG Export Plug-In . SVG Version: 6.00 Build 0)  -->
<svg version="1.1" id="Layer_1" xmlns="http://www.w3.org/2000/svg" xmlns:xlink="http://www.w3.org/1999/xlink" x="0px" y="0px"
	 viewBox="0 0 24 24" style="enable-background:new 0 0 24 24;" xml:space="preserve">
<path d="M23,1h-4.5V0.5C18.5,0.224,18.276,0,18,0H6C5.724,0,5.5,0.224,5.5,0.5V1H1C0.724,1,0.5,1.224,0.5,1.5V6c0,3.309,2.691,6,6,6
	c0.02,0,0.037-0.009,0.056-0.011c0.901,1.38,2.305,2.412,3.93,2.818c-0.063,1.25-0.382,3.855-1.344,4.845L8.87,19.93
	C7.494,21.342,6.5,22.362,6.5,23.5C6.5,23.776,6.724,24,7,24h10c0.276,0,0.5-0.224,0.5-0.5c0-1.138-0.994-2.158-2.37-3.57
	l-0.271-0.279c-0.962-0.99-1.281-3.595-1.344-4.845c1.625-0.405,3.029-1.438,3.93-2.818C17.463,11.991,17.48,12,17.5,12
	c3.309,0,6-2.691,6-6V1.5C23.5,1.224,23.276,1,23,1z M1.5,6V2h4v6.5c0,0.861,0.18,1.689,0.5,2.45C3.481,10.695,1.5,8.586,1.5,6z
	 M22.5,6c0,2.586-1.981,4.695-4.5,4.95c0.32-0.76,0.5-1.588,0.5-2.45V2h4V6z"/>
<g>
</g>
<g>
</g>
<g>
</g>
<g>
</g>
<g>
</g>
<g>
</g>
<g>
</g>
<g>
</g>
<g>
</g>
<g>
</g>
<g>
</g>
<g>
</g>
<g>
</g>
<g>
</g>
<g>
</g>
</svg>
