<?xml version="1.0" encoding="iso-8859-1"?>
<!-- Generator: Adobe Illustrator 19.0.0, SVG Export Plug-In . SVG Version: 6.00 Build 0)  -->
<svg version="1.1" id="Layer_1" xmlns="http://www.w3.org/2000/svg" xmlns:xlink="http://www.w3.org/1999/xlink" x="0px" y="0px"
	 viewBox="0 0 24 24" style="enable-background:new 0 0 24 24;" xml:space="preserve">
<g>
	<path d="M10,14.744c0.853,0.915,2.726,2.756,4,2.756c1.686,0,3.5-1.408,3.5-4.5c0-2.902-2.663-4.5-7.5-4.5S2.5,10.098,2.5,13
		c0,3.092,1.814,4.5,3.5,4.5C7.274,17.5,9.147,15.659,10,14.744z"/>
	<path d="M18.5,18c0,0.827-0.673,1.5-1.5,1.5h-4c-0.004,0-0.007,0.002-0.011,0.002C12.533,18.897,11.815,18.5,11,18.5H9
		c-1.379,0-2.5,1.122-2.5,2.5s1.121,2.5,2.5,2.5h2c0.815,0,1.533-0.397,1.989-1.002c0.004,0,0.007,0.002,0.011,0.002h4
		c2.481,0,4.5-2.019,4.5-4.5V5.5h-3V18z"/>
	<path d="M21,0.5h-2c-0.276,0-0.5,0.224-0.5,0.5v3.5h3V1C21.5,0.724,21.276,0.5,21,0.5z"/>
</g>
<g>
</g>
<g>
</g>
<g>
</g>
<g>
</g>
<g>
</g>
<g>
</g>
<g>
</g>
<g>
</g>
<g>
</g>
<g>
</g>
<g>
</g>
<g>
</g>
<g>
</g>
<g>
</g>
<g>
</g>
</svg>
