<?xml version="1.0" encoding="iso-8859-1"?>
<!-- Generator: Adobe Illustrator 19.0.0, SVG Export Plug-In . SVG Version: 6.00 Build 0)  -->
<svg version="1.1" id="Layer_1" xmlns="http://www.w3.org/2000/svg" xmlns:xlink="http://www.w3.org/1999/xlink" x="0px" y="0px"
	 viewBox="0 0 24 24" style="enable-background:new 0 0 24 24;" xml:space="preserve">
<g>
	<path d="M14.429,17.69c-1.646,0.411-3.211,0.411-4.857,0c-0.2-0.052-0.411,0.028-0.53,0.197c-0.118,0.169-0.121,0.394-0.007,0.565
		l1.513,2.269l0.979,2.937C11.594,23.862,11.785,24,12,24s0.406-0.138,0.475-0.342l0.979-2.937l1.513-2.269
		c0.114-0.172,0.111-0.396-0.007-0.565C14.839,17.719,14.628,17.638,14.429,17.69z"/>
	<path d="M12,0C7.313,0,3.5,3.813,3.5,8.5S7.313,17,12,17s8.5-3.813,8.5-8.5S16.687,0,12,0z M7.02,11
		c-0.275,0-0.505-0.224-0.505-0.5S6.733,10,7.01,10h0.01c0.276,0,0.5,0.224,0.5,0.5S7.296,11,7.02,11z M7.02,8
		C6.744,8,6.515,7.776,6.515,7.5S6.733,7,7.01,7h0.01c0.276,0,0.5,0.224,0.5,0.5S7.296,8,7.02,8z M9.02,13
		c-0.275,0-0.505-0.224-0.505-0.5S8.733,12,9.01,12h0.01c0.276,0,0.5,0.224,0.5,0.5S9.296,13,9.02,13z M10.02,10
		c-0.275,0-0.505-0.224-0.505-0.5S9.733,9,10.01,9h0.01c0.276,0,0.5,0.224,0.5,0.5S10.296,10,10.02,10z M12.02,14
		c-0.275,0-0.505-0.224-0.505-0.5S11.733,13,12.01,13h0.01c0.276,0,0.5,0.224,0.5,0.5S12.296,14,12.02,14z M12.52,11
		c-0.275,0-0.505-0.224-0.505-0.5S12.233,10,12.51,10h0.01c0.276,0,0.5,0.224,0.5,0.5S12.796,11,12.52,11z M15.02,13
		c-0.275,0-0.505-0.224-0.505-0.5S14.733,12,15.01,12h0.01c0.276,0,0.5,0.224,0.5,0.5S15.296,13,15.02,13z M15.02,10
		c-0.275,0-0.505-0.224-0.505-0.5S14.733,9,15.01,9h0.01c0.276,0,0.5,0.224,0.5,0.5S15.296,10,15.02,10z M16.02,5
		c-0.275,0-0.505-0.224-0.505-0.5S15.733,4,16.01,4h0.01c0.276,0,0.5,0.224,0.5,0.5S16.296,5,16.02,5z M17.02,11
		c-0.275,0-0.505-0.224-0.505-0.5S16.733,10,17.01,10h0.01c0.276,0,0.5,0.224,0.5,0.5S17.296,11,17.02,11z M17.02,8
		c-0.275,0-0.505-0.224-0.505-0.5S16.733,7,17.01,7h0.01c0.276,0,0.5,0.224,0.5,0.5S17.296,8,17.02,8z"/>
</g>
<g>
</g>
<g>
</g>
<g>
</g>
<g>
</g>
<g>
</g>
<g>
</g>
<g>
</g>
<g>
</g>
<g>
</g>
<g>
</g>
<g>
</g>
<g>
</g>
<g>
</g>
<g>
</g>
<g>
</g>
</svg>
