<?xml version="1.0" encoding="iso-8859-1"?>
<!-- Generator: Adobe Illustrator 19.0.0, SVG Export Plug-In . SVG Version: 6.00 Build 0)  -->
<svg version="1.1" id="Layer_1" xmlns="http://www.w3.org/2000/svg" xmlns:xlink="http://www.w3.org/1999/xlink" x="0px" y="0px"
	 viewBox="0 0 24 24" style="enable-background:new 0 0 24 24;" xml:space="preserve">
<g>
	<path d="M22.412,0.216C22.319,0.081,22.164,0,22,0h-2c-0.21,0-0.396,0.13-0.469,0.327l-6.487,17.607C11.846,17.47,10.111,17,8,17
		c-3.557,0-6.5,0.188-6.5,2.5C1.5,22.034,3.919,24,6,24c1.808,0,7.895-1.941,8.152-2.024c0.145-0.046,0.261-0.156,0.314-0.298l8-21
		C22.526,0.524,22.505,0.352,22.412,0.216z M6.224,21.947C6.152,21.983,6.075,22,6,22c-0.183,0-0.359-0.101-0.447-0.276l-1-2
		c-0.123-0.247-0.023-0.547,0.224-0.671c0.248-0.123,0.547-0.024,0.671,0.224l1,2C6.57,21.523,6.471,21.824,6.224,21.947z
		 M8.224,21.447C8.152,21.483,8.075,21.5,8,21.5c-0.183,0-0.359-0.101-0.447-0.276l-1-2c-0.123-0.247-0.023-0.547,0.224-0.671
		c0.247-0.122,0.547-0.023,0.671,0.224l1,2C8.57,21.023,8.471,21.324,8.224,21.447z M10.277,20.916C10.193,20.973,10.096,21,10,21
		c-0.161,0-0.319-0.078-0.416-0.223l-1-1.5c-0.153-0.23-0.091-0.54,0.139-0.693c0.227-0.153,0.539-0.092,0.693,0.139l1,1.5
		C10.569,20.453,10.507,20.763,10.277,20.916z"/>
	<path d="M4.5,10.949V13.5C4.5,13.776,4.724,14,5,14s0.5-0.224,0.5-0.5v-2.551c1.14-0.232,2-1.242,2-2.449C7.5,7.122,6.379,6,5,6
		S2.5,7.122,2.5,8.5C2.5,9.707,3.36,10.717,4.5,10.949z"/>
</g>
<g>
</g>
<g>
</g>
<g>
</g>
<g>
</g>
<g>
</g>
<g>
</g>
<g>
</g>
<g>
</g>
<g>
</g>
<g>
</g>
<g>
</g>
<g>
</g>
<g>
</g>
<g>
</g>
<g>
</g>
</svg>
