<?xml version="1.0" encoding="iso-8859-1"?>
<!-- Generator: Adobe Illustrator 19.0.0, SVG Export Plug-In . SVG Version: 6.00 Build 0)  -->
<svg version="1.1" id="Layer_1" xmlns="http://www.w3.org/2000/svg" xmlns:xlink="http://www.w3.org/1999/xlink" x="0px" y="0px"
	 viewBox="0 0 24 24" style="enable-background:new 0 0 24 24;" xml:space="preserve">
<path d="M23.5,3h-23C0.224,3,0,3.224,0,3.5v17C0,20.776,0.224,21,0.5,21h2c0.012,0,0.021-0.006,0.033-0.007
	c0.036-0.002,0.07-0.011,0.105-0.021c0.029-0.008,0.057-0.016,0.083-0.029c0.028-0.014,0.052-0.033,0.078-0.052
	c0.028-0.021,0.054-0.042,0.077-0.069C2.882,20.814,2.893,20.809,2.9,20.8L5.75,17h12.5l2.85,3.8
	c0.006,0.008,0.016,0.011,0.023,0.019c0.035,0.041,0.076,0.073,0.122,0.102c0.017,0.01,0.03,0.024,0.047,0.032
	C21.356,20.981,21.425,21,21.5,21h2c0.276,0,0.5-0.224,0.5-0.5v-17C24,3.224,23.776,3,23.5,3z M3,6.808
	c1.383,1.757,1.987,3.988,1.999,9.527L3,19V6.808z M3.636,6h16.728c-1.581,1.905-2.318,4.261-2.359,10H5.995
	C5.955,10.261,5.217,7.905,3.636,6z M21,6.808V19l-1.999-2.665C19.013,10.797,19.617,8.566,21,6.808z"/>
<g>
</g>
<g>
</g>
<g>
</g>
<g>
</g>
<g>
</g>
<g>
</g>
<g>
</g>
<g>
</g>
<g>
</g>
<g>
</g>
<g>
</g>
<g>
</g>
<g>
</g>
<g>
</g>
<g>
</g>
</svg>
