<?xml version="1.0" encoding="iso-8859-1"?>
<!-- Generator: Adobe Illustrator 19.0.0, SVG Export Plug-In . SVG Version: 6.00 Build 0)  -->
<svg version="1.1" id="Layer_1" xmlns="http://www.w3.org/2000/svg" xmlns:xlink="http://www.w3.org/1999/xlink" x="0px" y="0px"
	 viewBox="0 0 24 24" style="enable-background:new 0 0 24 24;" xml:space="preserve">
<g>
	<path d="M4.655,17.989l13.877-0.001c0.142-0.01,3.464-0.278,3.464-2.499c0-1.983-2.589-4.5-5.5-4.5
		c-3.723,0-4.972-2.093-5.355-3.084c1.067-0.285,1.855-1.26,1.855-2.416c0-1.208-0.86-2.217-2-2.45V1.95
		c0-0.797-0.458-1.481-1.194-1.787C9.066-0.142,8.258,0.019,7.695,0.583L6.432,1.845L5.878,1.477
		c-0.607-0.405-1.37-0.476-2.041-0.188C3.166,1.575,2.69,2.175,2.563,2.894L0.726,13.306c-0.206,1.165,0.112,2.352,0.873,3.257
		C2.358,17.469,3.472,17.989,4.655,17.989z M12.142,13.135l1-1c0.195-0.195,0.512-0.195,0.707,0s0.195,0.512,0,0.707l-1,1
		c-0.098,0.098-0.226,0.146-0.354,0.146s-0.256-0.049-0.354-0.146C11.947,13.647,11.947,13.331,12.142,13.135z M10.719,11.936l-2,1
		c-0.072,0.036-0.148,0.053-0.223,0.053c-0.184,0-0.36-0.101-0.448-0.276c-0.124-0.247-0.023-0.547,0.224-0.671l2-1
		c0.248-0.122,0.547-0.023,0.671,0.224C11.066,11.512,10.966,11.813,10.719,11.936z M6.496,4.989h4.5c0.276,0,0.5,0.224,0.5,0.5
		s-0.224,0.5-0.5,0.5h-4.5c-0.276,0-0.5-0.224-0.5-0.5S6.219,4.989,6.496,4.989z"/>
	<path d="M20.508,20.989c0.655,0,1.211-0.401,1.419-1.022c0.207-0.622,0.002-1.277-0.521-1.67c-0.04-0.03-0.068-0.069-0.096-0.107
		c-0.875,0.504-1.92,0.739-2.705,0.796c-0.012,0.001-0.097,0.004-0.109,0.004H4.655c-1.395,0-2.71-0.584-3.652-1.601l-0.975,2.925
		c-0.023,0.061-0.024,0.126-0.022,0.189c0.004,0.042,0.012,0.085,0.024,0.126c0.015,0.05,0.025,0.101,0.056,0.145
		c0.093,0.135,0.247,0.215,0.411,0.215H20.508z"/>
	<path d="M0.167,21.949c0.403,1.182,1.511,2.04,2.828,2.04c1.302,0,2.402-0.839,2.816-2H0.496
		C0.384,21.989,0.274,21.973,0.167,21.949z"/>
	<path d="M14.996,23.989c1.302,0,2.402-0.839,2.816-2H12.18C12.594,23.15,13.694,23.989,14.996,23.989z"/>
	<path d="M22.863,18.66c0.181,0.508,0.196,1.073,0.012,1.623c-0.346,1.037-1.275,1.706-2.367,1.706H18.18
		c0.414,1.161,1.514,2,2.816,2c1.654,0,3-1.346,3-3C23.996,20.044,23.548,19.21,22.863,18.66z"/>
	<path d="M8.996,23.989c1.302,0,2.402-0.839,2.816-2H6.18C6.594,23.15,7.694,23.989,8.996,23.989z"/>
</g>
<g>
</g>
<g>
</g>
<g>
</g>
<g>
</g>
<g>
</g>
<g>
</g>
<g>
</g>
<g>
</g>
<g>
</g>
<g>
</g>
<g>
</g>
<g>
</g>
<g>
</g>
<g>
</g>
<g>
</g>
</svg>
