<?xml version="1.0" encoding="iso-8859-1"?>
<!-- Generator: Adobe Illustrator 19.0.0, SVG Export Plug-In . SVG Version: 6.00 Build 0)  -->
<svg version="1.1" id="Layer_1" xmlns="http://www.w3.org/2000/svg" xmlns:xlink="http://www.w3.org/1999/xlink" x="0px" y="0px"
	 viewBox="0 0 24 24" style="enable-background:new 0 0 24 24;" xml:space="preserve">
<g>
	<path style="stroke:#000000;stroke-linecap:round;stroke-linejoin:round;stroke-miterlimit:10;" d="M2.5,17h-1
		c-0.552,0-1-0.448-1-1V8c0-0.552,0.448-1,1-1h1c0.552,0,1,0.448,1,1v8C3.5,16.552,3.052,17,2.5,17z"/>
	<path style="stroke:#000000;stroke-linecap:round;stroke-linejoin:round;stroke-miterlimit:10;" d="M5.5,20h-1
		c-0.552,0-1-0.448-1-1V5c0-0.552,0.448-1,1-1h1c0.552,0,1,0.448,1,1v14C6.5,19.552,6.052,20,5.5,20z"/>
	<path style="stroke:#000000;stroke-linecap:round;stroke-linejoin:round;stroke-miterlimit:10;" d="M21.5,17h1c0.552,0,1-0.448,1-1
		V8c0-0.552-0.448-1-1-1h-1c-0.552,0-1,0.448-1,1v8C20.5,16.552,20.948,17,21.5,17z"/>
	<path style="stroke:#000000;stroke-linecap:round;stroke-linejoin:round;stroke-miterlimit:10;" d="M18.5,20h1c0.552,0,1-0.448,1-1
		V5c0-0.552-0.448-1-1-1h-1c-0.552,0-1,0.448-1,1v14C17.5,19.552,17.948,20,18.5,20z"/>
	
		<rect x="6.5" y="11" style="stroke:#000000;stroke-linecap:round;stroke-linejoin:round;stroke-miterlimit:10;" width="11" height="2"/>
</g>
<g>
</g>
<g>
</g>
<g>
</g>
<g>
</g>
<g>
</g>
<g>
</g>
<g>
</g>
<g>
</g>
<g>
</g>
<g>
</g>
<g>
</g>
<g>
</g>
<g>
</g>
<g>
</g>
<g>
</g>
</svg>
