<?xml version="1.0" encoding="iso-8859-1"?>
<!-- Generator: Adobe Illustrator 19.0.0, SVG Export Plug-In . SVG Version: 6.00 Build 0)  -->
<svg version="1.1" id="Layer_1" xmlns="http://www.w3.org/2000/svg" xmlns:xlink="http://www.w3.org/1999/xlink" x="0px" y="0px"
	 viewBox="0 0 24 24" style="enable-background:new 0 0 24 24;" xml:space="preserve">
<g>
	<path d="M20,14c-0.827,0-1.5,0.673-1.5,1.5c0,1.378-1.122,2.5-2.5,2.5H8c-1.378,0-2.5-1.122-2.5-2.5C5.5,14.673,4.827,14,4,14H0.5
		v6.5C0.5,21.878,1.622,23,3,23h18c1.378,0,2.5-1.122,2.5-2.5V14H20z"/>
	<g>
		<path d="M12,14c-0.064,0-0.129-0.012-0.191-0.038c-0.187-0.077-0.309-0.26-0.309-0.462v-12C11.5,1.224,11.724,1,12,1
			s0.5,0.224,0.5,0.5v10.793l1.146-1.146c0.195-0.195,0.512-0.195,0.707,0s0.195,0.512,0,0.707l-2,2C12.258,13.949,12.13,14,12,14z"
			/>
	</g>
	<path d="M22.912,11.967l-3.605-5.408C18.656,5.583,17.567,5,16.395,5H13.5v5.085C13.659,10.029,13.827,10,14,10
		c0.4,0,0.777,0.156,1.061,0.439c0.585,0.585,0.585,1.536,0,2.121l-2,2C12.777,14.844,12.4,15,12,15
		c-0.333,0-0.647-0.114-0.907-0.313c-0.031-0.023-0.06-0.047-0.089-0.073c-0.021-0.019-0.045-0.033-0.065-0.053l-2-2
		C8.656,12.277,8.5,11.9,8.5,11.5s0.156-0.777,0.439-1.061S9.6,10,10,10c0.174,0,0.341,0.035,0.5,0.091V5H8.155
		C6.637,5,5.232,5.757,4.397,7.024l-3.22,4.888C0.934,12.245,0.76,12.613,0.647,13H4c1.378,0,2.5,1.122,2.5,2.5
		C6.5,16.327,7.173,17,8,17h8c0.827,0,1.5-0.673,1.5-1.5c0-1.378,1.122-2.5,2.5-2.5h3.374
		C23.276,12.635,23.125,12.286,22.912,11.967z"/>
	<g>
		<path d="M12,14c-0.128,0-0.256-0.049-0.354-0.146l-2-2c-0.195-0.195-0.195-0.512,0-0.707s0.512-0.195,0.707,0l2,2
			c0.195,0.195,0.195,0.512,0,0.707C12.256,13.951,12.128,14,12,14z"/>
	</g>
</g>
<g>
</g>
<g>
</g>
<g>
</g>
<g>
</g>
<g>
</g>
<g>
</g>
<g>
</g>
<g>
</g>
<g>
</g>
<g>
</g>
<g>
</g>
<g>
</g>
<g>
</g>
<g>
</g>
<g>
</g>
</svg>
