<?xml version="1.0" encoding="iso-8859-1"?>
<!-- Generator: Adobe Illustrator 19.0.0, SVG Export Plug-In . SVG Version: 6.00 Build 0)  -->
<svg version="1.1" id="Layer_1" xmlns="http://www.w3.org/2000/svg" xmlns:xlink="http://www.w3.org/1999/xlink" x="0px" y="0px"
	 viewBox="0 0 24 24" style="enable-background:new 0 0 24 24;" xml:space="preserve">
<g>
	<path d="M20.5,12c-0.827,0-1.5,0.673-1.5,1.5c0,1.378-1.122,2.5-2.5,2.5h-9C6.122,16,5,14.878,5,13.5C5,12.673,4.327,12,3.5,12H0
		v6.5C0,19.878,1.122,21,2.5,21h19c1.378,0,2.5-1.122,2.5-2.5V12H20.5z"/>
	<path d="M3.5,11C4.878,11,6,12.122,6,13.5C6,14.327,6.673,15,7.5,15h9c0.827,0,1.5-0.673,1.5-1.5c0-1.378,1.122-2.5,2.5-2.5h3.374
		c-0.098-0.365-0.249-0.714-0.462-1.033l-3.605-5.408C19.156,3.583,18.067,3,16.895,3h-9.24C6.137,3,4.732,3.757,3.897,5.024
		l-3.22,4.888C0.434,10.245,0.26,10.613,0.147,11H3.5z"/>
</g>
<g>
</g>
<g>
</g>
<g>
</g>
<g>
</g>
<g>
</g>
<g>
</g>
<g>
</g>
<g>
</g>
<g>
</g>
<g>
</g>
<g>
</g>
<g>
</g>
<g>
</g>
<g>
</g>
<g>
</g>
</svg>
