<?xml version="1.0" encoding="iso-8859-1"?>
<!-- Generator: Adobe Illustrator 19.0.0, SVG Export Plug-In . SVG Version: 6.00 Build 0)  -->
<svg version="1.1" id="Layer_1" xmlns="http://www.w3.org/2000/svg" xmlns:xlink="http://www.w3.org/1999/xlink" x="0px" y="0px"
	 viewBox="0 0 24 24" style="enable-background:new 0 0 24 24;" xml:space="preserve">
<g>
	<path d="M21,1.5H3C1.622,1.5,0.5,2.622,0.5,4v11c0,1.378,1.122,2.5,2.5,2.5h3.025c0.003,0,0.007,0,0.01,0
		c0.273,0.019,0.51-0.22,0.51-0.5c0-0.063-0.012-0.124-0.033-0.179C6.505,16.715,6.5,16.608,6.5,16.5c0-2.757,2.243-5,5-5
		s5,2.243,5,5c0,0.153-0.011,0.304-0.024,0.454c-0.013,0.14,0.034,0.279,0.129,0.383c0.095,0.104,0.229,0.163,0.369,0.163H21
		c1.378,0,2.5-1.122,2.5-2.5V4C23.5,2.622,22.378,1.5,21,1.5z M8.354,10.354l-5,5C3.256,15.451,3.128,15.5,3,15.5
		s-0.256-0.049-0.354-0.146c-0.195-0.195-0.195-0.512,0-0.707l5-5c0.195-0.195,0.512-0.195,0.707,0S8.549,10.158,8.354,10.354z
		 M13.523,10.017c-0.456,0.329-0.99,0.494-1.523,0.494s-1.068-0.165-1.523-0.494l-7.77-5.611C2.483,4.244,2.433,3.931,2.595,3.707
		c0.161-0.224,0.473-0.275,0.698-0.112l7.77,5.611c0.569,0.411,1.306,0.411,1.875,0l7.77-5.611c0.224-0.163,0.536-0.111,0.698,0.112
		c0.162,0.224,0.111,0.537-0.112,0.698L13.523,10.017z M21.354,15.354C21.256,15.451,21.128,15.5,21,15.5s-0.256-0.049-0.354-0.146
		l-5-5c-0.195-0.195-0.195-0.512,0-0.707s0.512-0.195,0.707,0l5,5C21.549,14.842,21.549,15.158,21.354,15.354z"/>
	<g>
		<path d="M11.5,20.5c-2.206,0-4-1.794-4-4s1.794-4,4-4s4,1.794,4,4S13.706,20.5,11.5,20.5z M11.5,13.5c-1.654,0-3,1.346-3,3
			s1.346,3,3,3s3-1.346,3-3S13.154,13.5,11.5,13.5z"/>
	</g>
	<g>
		<path d="M17,22.5c-0.128,0-0.256-0.049-0.354-0.146l-3-3c-0.195-0.195-0.195-0.512,0-0.707s0.512-0.195,0.707,0l3,3
			c0.195,0.195,0.195,0.512,0,0.707C17.256,22.451,17.128,22.5,17,22.5z"/>
	</g>
</g>
<g>
</g>
<g>
</g>
<g>
</g>
<g>
</g>
<g>
</g>
<g>
</g>
<g>
</g>
<g>
</g>
<g>
</g>
<g>
</g>
<g>
</g>
<g>
</g>
<g>
</g>
<g>
</g>
<g>
</g>
</svg>
