<?xml version="1.0" encoding="iso-8859-1"?>
<!-- Generator: Adobe Illustrator 19.0.0, SVG Export Plug-In . SVG Version: 6.00 Build 0)  -->
<svg version="1.1" id="Layer_1" xmlns="http://www.w3.org/2000/svg" xmlns:xlink="http://www.w3.org/1999/xlink" x="0px" y="0px"
	 viewBox="0 0 24 24" style="enable-background:new 0 0 24 24;" xml:space="preserve">
<g>
	<path d="M23.774,7.211C23.499,6.766,23.022,6.5,22.499,6.5H9.352c-0.953,0-1.81,0.529-2.236,1.382l-3.723,7.447
		c-0.234,0.468-0.21,1.014,0.065,1.459C3.733,17.234,4.211,17.5,4.734,17.5h13.146c0.953,0,1.81-0.529,2.236-1.382l3.724-7.448
		C24.075,8.202,24.05,7.656,23.774,7.211z M11.685,13.464l-5,2C6.625,15.489,6.561,15.5,6.5,15.5c-0.198,0-0.386-0.119-0.464-0.314
		c-0.103-0.256,0.021-0.547,0.278-0.65l5-2c0.255-0.104,0.547,0.022,0.649,0.279S11.942,13.362,11.685,13.464z M17.9,15.3
		c-0.099,0.131-0.249,0.2-0.4,0.2c-0.104,0-0.21-0.033-0.3-0.1l-2-1.5c-0.221-0.166-0.266-0.479-0.101-0.7
		c0.167-0.221,0.48-0.265,0.7-0.1l2,1.5C18.02,14.766,18.065,15.079,17.9,15.3z M20.731,9.443l-5.221,2.724
		c-0.486,0.227-1,0.338-1.509,0.338c-0.764,0-1.515-0.251-2.14-0.738L9.168,9.374c-0.207-0.184-0.226-0.5-0.042-0.706
		C9.31,8.461,9.627,8.442,9.832,8.626L12.501,11c0.718,0.558,1.712,0.669,2.567,0.271l5.2-2.714
		c0.246-0.126,0.548-0.033,0.675,0.212C21.071,9.014,20.976,9.315,20.731,9.443z"/>
	<g>
		<path d="M4.5,8.5h-4C0.223,8.5,0,8.276,0,8s0.224-0.5,0.5-0.5h4C4.776,7.5,5,7.724,5,8S4.776,8.5,4.5,8.5z"/>
	</g>
	<g>
		<path d="M0.5,16.5c-0.13,0-0.26-0.05-0.351-0.15C0.05,16.26,0,16.13,0,16c0-0.13,0.05-0.25,0.14-0.35
			c0.21-0.2,0.53-0.19,0.71-0.01C0.95,15.74,1,15.87,1,16c0,0.14-0.061,0.27-0.15,0.36S0.63,16.5,0.5,16.5z"/>
	</g>
	<g>
		<path d="M2.5,12.5h-2C0.223,12.5,0,12.276,0,12s0.224-0.5,0.5-0.5h2C2.776,11.5,3,11.724,3,12S2.776,12.5,2.5,12.5z"/>
	</g>
</g>
<g>
</g>
<g>
</g>
<g>
</g>
<g>
</g>
<g>
</g>
<g>
</g>
<g>
</g>
<g>
</g>
<g>
</g>
<g>
</g>
<g>
</g>
<g>
</g>
<g>
</g>
<g>
</g>
<g>
</g>
</svg>
