<?xml version="1.0" encoding="iso-8859-1"?>
<!-- Generator: Adobe Illustrator 19.0.0, SVG Export Plug-In . SVG Version: 6.00 Build 0)  -->
<svg version="1.1" id="Layer_1" xmlns="http://www.w3.org/2000/svg" xmlns:xlink="http://www.w3.org/1999/xlink" x="0px" y="0px"
	 viewBox="0 0 24 24" style="enable-background:new 0 0 24 24;" xml:space="preserve">
<g>
	<g>
		<g>
			<g>
				<path d="M13,11.5h-2c-0.276,0-0.5-0.224-0.5-0.5s0.224-0.5,0.5-0.5h2c0.276,0,0.5,0.224,0.5,0.5S13.276,11.5,13,11.5z"/>
			</g>
			<g>
				<path d="M9,11.5c-0.276,0-0.5-0.224-0.5-0.5c0-0.257-0.829-0.489-1.508-0.5C6.716,10.496,6.496,10.268,6.5,9.992
					S6.712,9.51,7.008,9.5C7.263,9.504,9.5,9.58,9.5,11C9.5,11.276,9.276,11.5,9,11.5z"/>
			</g>
			<g>
				<path d="M16.5,15.5h-1c-0.561,0-1-0.439-1-1v-0.339C13.896,14.312,12.954,14.5,12,14.5s-1.896-0.188-2.5-0.339V14.5
					c0,0.561-0.439,1-1,1h-1c-0.561,0-1-0.439-1-1v-0.828C6.069,13.021,6,11.747,6,11c0-1.072,0.328-2.471,1.059-3.263
					C7.474,6.475,8.486,5.242,9.167,4.9C9.546,4.711,10.838,4.5,12,4.5s2.454,0.211,2.832,0.4c0.682,0.342,1.694,1.574,2.109,2.836
					C17.672,8.529,18,9.928,18,11c0,0.747-0.069,2.021-0.5,2.672V14.5C17.5,15.061,17.061,15.5,16.5,15.5z M15,13
					c0.104,0,0.206,0.032,0.292,0.095c0.13,0.094,0.208,0.245,0.208,0.405v1h1v-1c0-0.133,0.053-0.26,0.146-0.354
					C16.793,13,17,12.237,17,11c0-0.904-0.291-2.102-0.848-2.641c-0.062-0.06-0.107-0.134-0.131-0.216
					c-0.333-1.115-1.249-2.154-1.636-2.348C14.201,5.71,13.134,5.5,12,5.5S9.799,5.71,9.613,5.796
					C9.228,5.989,8.312,7.028,7.979,8.143c-0.024,0.082-0.07,0.156-0.131,0.216C7.291,8.898,7,10.096,7,11
					c0,1.237,0.207,2,0.354,2.146C7.447,13.24,7.5,13.367,7.5,13.5v1h1v-1c0-0.161,0.077-0.312,0.208-0.405
					c0.13-0.095,0.298-0.121,0.45-0.069C9.172,13.03,10.603,13.5,12,13.5s2.828-0.47,2.842-0.475C14.894,13.008,14.947,13,15,13z"/>
			</g>
			<g>
				<path d="M12,9.5c-1.132,0-4.433-0.485-4.573-0.505C7.154,8.955,6.965,8.7,7.005,8.427c0.04-0.273,0.293-0.465,0.567-0.422
					C7.606,8.01,10.94,8.5,12,8.5s4.394-0.49,4.427-0.495c0.272-0.042,0.527,0.149,0.567,0.422c0.041,0.273-0.148,0.527-0.422,0.567
					C16.433,9.015,13.132,9.5,12,9.5z"/>
			</g>
			<g>
				<path d="M15,11.5c-0.276,0-0.5-0.224-0.5-0.5c0-1.42,2.237-1.496,2.492-1.5c0.264-0.003,0.503,0.216,0.507,0.492
					c0.005,0.276-0.215,0.503-0.491,0.508C16.325,10.512,15.5,10.738,15.5,11C15.5,11.276,15.276,11.5,15,11.5z"/>
			</g>
		</g>
		<g>
			<path d="M9,14H7c-0.276,0-0.5-0.224-0.5-0.5S6.724,13,7,13h2c0.276,0,0.5,0.224,0.5,0.5S9.276,14,9,14z"/>
		</g>
		<g>
			<path d="M17,14h-2c-0.276,0-0.5-0.224-0.5-0.5S14.724,13,15,13h2c0.276,0,0.5,0.224,0.5,0.5S17.276,14,17,14z"/>
		</g>
	</g>
	<g>
		<path d="M12,23.5C5.659,23.5,0.5,18.341,0.5,12S5.659,0.5,12,0.5S23.5,5.659,23.5,12S18.341,23.5,12,23.5z M12,1.5
			C6.21,1.5,1.5,6.21,1.5,12S6.21,22.5,12,22.5S22.5,17.79,22.5,12S17.79,1.5,12,1.5z"/>
	</g>
	<g>
		<path d="M9,19.5H8c-0.276,0-0.5-0.224-0.5-0.5s0.224-0.5,0.5-0.5h0.691l0.25-0.5l-0.25-0.5H8c-0.276,0-0.5-0.224-0.5-0.5
			s0.224-0.5,0.5-0.5h1c0.189,0,0.362,0.107,0.447,0.276l0.5,1c0.07,0.141,0.07,0.307,0,0.447l-0.5,1
			C9.362,19.393,9.189,19.5,9,19.5z"/>
	</g>
	<g>
		<path d="M16,19.5h-1c-0.189,0-0.362-0.107-0.447-0.276l-0.5-1c-0.07-0.141-0.07-0.307,0-0.447l0.5-1
			C14.638,16.607,14.811,16.5,15,16.5h1c0.276,0,0.5,0.224,0.5,0.5s-0.224,0.5-0.5,0.5h-0.691l-0.25,0.5l0.25,0.5H16
			c0.276,0,0.5,0.224,0.5,0.5S16.276,19.5,16,19.5z"/>
	</g>
	<g>
		<path d="M14.5,18.5h-5C9.224,18.5,9,18.276,9,18s0.224-0.5,0.5-0.5h5c0.276,0,0.5,0.224,0.5,0.5S14.776,18.5,14.5,18.5z"/>
	</g>
	<g>
		<path d="M6.498,9C6.384,9,6.269,8.96,6.175,8.88C6.106,8.821,5.5,8.281,5.5,7.5c0-0.231,0.096-0.431,0.271-0.562
			C5.902,6.84,6.066,6.79,6.256,6.79C6.762,6.79,8,7.313,8,8c0,0.276-0.224,0.5-0.5,0.5c-0.225,0-0.415-0.148-0.478-0.352
			C6.949,8.076,6.801,7.986,6.65,7.915c0.065,0.097,0.137,0.171,0.178,0.208c0.206,0.182,0.229,0.497,0.048,0.704
			C6.777,8.94,6.638,9,6.498,9z"/>
	</g>
	<g>
		<path d="M17.5,9c-0.141,0-0.281-0.06-0.38-0.175c-0.179-0.21-0.154-0.525,0.056-0.705c0.04-0.036,0.11-0.11,0.175-0.206
			c-0.151,0.071-0.299,0.161-0.373,0.234C16.915,8.352,16.725,8.5,16.5,8.5C16.224,8.5,16,8.276,16,8c0-0.687,1.238-1.21,1.744-1.21
			c0.19,0,0.354,0.05,0.485,0.148C18.404,7.069,18.5,7.269,18.5,7.5c0,0.781-0.606,1.321-0.675,1.38C17.73,8.96,17.615,9,17.5,9z"/>
	</g>
</g>
<g>
</g>
<g>
</g>
<g>
</g>
<g>
</g>
<g>
</g>
<g>
</g>
<g>
</g>
<g>
</g>
<g>
</g>
<g>
</g>
<g>
</g>
<g>
</g>
<g>
</g>
<g>
</g>
<g>
</g>
</svg>
