<?xml version="1.0" encoding="iso-8859-1"?>
<!-- Generator: Adobe Illustrator 19.0.0, SVG Export Plug-In . SVG Version: 6.00 Build 0)  -->
<svg version="1.1" id="Layer_1" xmlns="http://www.w3.org/2000/svg" xmlns:xlink="http://www.w3.org/1999/xlink" x="0px" y="0px"
	 viewBox="0 0 24 24" style="enable-background:new 0 0 24 24;" xml:space="preserve">
<g>
	<g>
		<g>
			<path d="M19.329,23.5c-1.138,0-1.729-0.645-2.204-1.162c-0.43-0.468-0.77-0.838-1.467-0.838c-0.696,0-1.035,0.37-1.464,0.838
				c-0.475,0.518-1.065,1.162-2.201,1.162s-1.727-0.645-2.201-1.162C9.363,21.87,9.024,21.5,8.329,21.5s-1.035,0.37-1.463,0.838
				C6.391,22.855,5.801,23.5,4.665,23.5s-1.727-0.645-2.201-1.162C2.035,21.87,1.696,21.5,1,21.5c-0.276,0-0.5-0.224-0.5-0.5
				s0.224-0.5,0.5-0.5c1.136,0,1.727,0.645,2.201,1.162C3.63,22.13,3.969,22.5,4.665,22.5s1.035-0.37,1.463-0.838
				C6.602,21.145,7.192,20.5,8.329,20.5s1.727,0.645,2.201,1.162c0.429,0.468,0.768,0.838,1.463,0.838
				c0.696,0,1.035-0.37,1.464-0.838c0.475-0.518,1.065-1.162,2.201-1.162c1.137,0,1.729,0.644,2.204,1.162
				c0.43,0.468,0.77,0.838,1.468,0.838c0.698,0,1.038-0.37,1.467-0.838C21.271,21.144,21.862,20.5,23,20.5
				c0.276,0,0.5,0.224,0.5,0.5s-0.224,0.5-0.5,0.5c-0.698,0-1.038,0.37-1.467,0.838C21.058,22.856,20.467,23.5,19.329,23.5z"/>
		</g>
		<g>
			<path d="M19.329,21.5c-1.138,0-1.729-0.645-2.204-1.162c-0.43-0.468-0.77-0.838-1.467-0.838c-0.696,0-1.035,0.37-1.464,0.838
				c-0.475,0.518-1.065,1.162-2.201,1.162s-1.727-0.645-2.201-1.162C9.363,19.87,9.024,19.5,8.329,19.5s-1.035,0.37-1.463,0.838
				C6.391,20.855,5.801,21.5,4.665,21.5s-1.727-0.645-2.201-1.162C2.035,19.87,1.696,19.5,1,19.5c-0.276,0-0.5-0.224-0.5-0.5
				s0.224-0.5,0.5-0.5c1.136,0,1.727,0.645,2.201,1.162C3.63,20.13,3.969,20.5,4.665,20.5s1.035-0.37,1.463-0.838
				C6.602,19.145,7.192,18.5,8.329,18.5s1.727,0.645,2.201,1.162c0.429,0.468,0.768,0.838,1.463,0.838
				c0.696,0,1.035-0.37,1.464-0.838c0.475-0.518,1.065-1.162,2.201-1.162c1.137,0,1.729,0.644,2.204,1.162
				c0.43,0.468,0.77,0.838,1.468,0.838c0.698,0,1.038-0.37,1.467-0.838C21.271,19.144,21.862,18.5,23,18.5
				c0.276,0,0.5,0.224,0.5,0.5s-0.224,0.5-0.5,0.5c-0.698,0-1.038,0.37-1.467,0.838C21.058,20.856,20.467,21.5,19.329,21.5z"/>
		</g>
		<g>
			<path d="M18,21c-0.062,0-0.125-0.011-0.186-0.036c-0.256-0.103-0.381-0.394-0.279-0.65l2.782-6.954L12,11.512L3.683,13.36
				l2.782,6.954c0.103,0.256-0.022,0.547-0.279,0.65c-0.254,0.102-0.547-0.021-0.65-0.279l-3-7.5
				c-0.054-0.136-0.046-0.289,0.022-0.419c0.069-0.13,0.191-0.223,0.334-0.255l9-2c0.071-0.016,0.146-0.016,0.217,0l9,2
				c0.143,0.032,0.265,0.125,0.334,0.255c0.068,0.13,0.076,0.283,0.022,0.419l-3,7.5C18.386,20.881,18.198,21,18,21z"/>
		</g>
		<g>
			<path d="M12,21.5c-0.276,0-0.5-0.224-0.5-0.5v-8c0-0.276,0.224-0.5,0.5-0.5s0.5,0.224,0.5,0.5v8C12.5,21.276,12.276,21.5,12,21.5
				z"/>
		</g>
	</g>
	<g>
		<path d="M19,13c-0.276,0-0.5-0.224-0.5-0.5v-8h-13v8C5.5,12.776,5.276,13,5,13s-0.5-0.224-0.5-0.5V4c0-0.276,0.224-0.5,0.5-0.5h14
			c0.276,0,0.5,0.224,0.5,0.5v8.5C19.5,12.776,19.276,13,19,13z"/>
	</g>
	<g>
		<path d="M19,10.5H5c-0.276,0-0.5-0.224-0.5-0.5S4.724,9.5,5,9.5h14c0.276,0,0.5,0.224,0.5,0.5S19.276,10.5,19,10.5z"/>
	</g>
	<g>
		<path d="M19,7.5H5C4.724,7.5,4.5,7.276,4.5,7S4.724,6.5,5,6.5h14c0.276,0,0.5,0.224,0.5,0.5S19.276,7.5,19,7.5z"/>
	</g>
	<g>
		<path d="M17,4.5c-0.276,0-0.5-0.224-0.5-0.5V1.5h-9V4c0,0.276-0.224,0.5-0.5,0.5S6.5,4.276,6.5,4V1c0-0.276,0.224-0.5,0.5-0.5h10
			c0.276,0,0.5,0.224,0.5,0.5v3C17.5,4.276,17.276,4.5,17,4.5z"/>
	</g>
	<g>
		<path d="M8,12c-0.276,0-0.5-0.224-0.5-0.5V4c0-0.276,0.224-0.5,0.5-0.5S8.5,3.724,8.5,4v7.5C8.5,11.776,8.276,12,8,12z"/>
	</g>
	<g>
		<path d="M12,11.5c-0.276,0-0.5-0.224-0.5-0.5V4c0-0.276,0.224-0.5,0.5-0.5s0.5,0.224,0.5,0.5v7C12.5,11.276,12.276,11.5,12,11.5z"
			/>
	</g>
	<g>
		<path d="M15,12c-0.276,0-0.5-0.224-0.5-0.5V4c0-0.276,0.224-0.5,0.5-0.5s0.5,0.224,0.5,0.5v7.5C15.5,11.776,15.276,12,15,12z"/>
	</g>
	<g>
		<path d="M11,4.5c-0.276,0-0.5-0.224-0.5-0.5V1c0-0.276,0.224-0.5,0.5-0.5s0.5,0.224,0.5,0.5v3C11.5,4.276,11.276,4.5,11,4.5z"/>
	</g>
</g>
<g>
</g>
<g>
</g>
<g>
</g>
<g>
</g>
<g>
</g>
<g>
</g>
<g>
</g>
<g>
</g>
<g>
</g>
<g>
</g>
<g>
</g>
<g>
</g>
<g>
</g>
<g>
</g>
<g>
</g>
</svg>
