<?xml version="1.0" encoding="iso-8859-1"?>
<!-- Generator: Adobe Illustrator 19.0.0, SVG Export Plug-In . SVG Version: 6.00 Build 0)  -->
<svg version="1.1" id="Layer_1" xmlns="http://www.w3.org/2000/svg" xmlns:xlink="http://www.w3.org/1999/xlink" x="0px" y="0px"
	 viewBox="0 0 24 24" style="enable-background:new 0 0 24 24;" xml:space="preserve">
<g>
	<g>
		<path d="M12.5,23.5h-1C9.57,23.5,8,21.93,8,20V4c0-1.93,1.57-3.5,3.5-3.5h0.635c6.427,0,11.749,5.063,11.863,11.285
			c0.057,3.114-1.112,6.052-3.292,8.272C18.526,22.277,15.611,23.5,12.5,23.5z M11.5,1.5C10.122,1.5,9,2.622,9,4v16
			c0,1.378,1.122,2.5,2.5,2.5h1c2.841,0,5.502-1.117,7.493-3.144c1.99-2.027,3.058-4.709,3.005-7.553
			C22.894,6.122,18.021,1.5,12.135,1.5H11.5z"/>
	</g>
	<g>
		<path d="M0.5,14.5c-0.198,0-0.386-0.119-0.464-0.314c-0.103-0.256,0.022-0.547,0.279-0.65l5-2c0.255-0.104,0.547,0.022,0.65,0.279
			c0.103,0.256-0.022,0.547-0.279,0.65l-5,2C0.625,14.489,0.562,14.5,0.5,14.5z"/>
	</g>
	<g>
		<path d="M0.5,9.5c-0.198,0-0.386-0.119-0.464-0.314c-0.103-0.256,0.022-0.547,0.279-0.65l5-2c0.255-0.102,0.547,0.022,0.65,0.279
			c0.103,0.256-0.022,0.547-0.279,0.65l-5,2C0.625,9.489,0.562,9.5,0.5,9.5z"/>
	</g>
	<g>
		<path d="M0.5,19.5c-0.198,0-0.386-0.119-0.464-0.314c-0.103-0.256,0.022-0.547,0.279-0.65l5-2c0.255-0.104,0.547,0.022,0.65,0.279
			c0.103,0.256-0.022,0.547-0.279,0.65l-5,2C0.625,19.489,0.562,19.5,0.5,19.5z"/>
	</g>
</g>
<g>
</g>
<g>
</g>
<g>
</g>
<g>
</g>
<g>
</g>
<g>
</g>
<g>
</g>
<g>
</g>
<g>
</g>
<g>
</g>
<g>
</g>
<g>
</g>
<g>
</g>
<g>
</g>
<g>
</g>
</svg>
