<?xml version="1.0" encoding="iso-8859-1"?>
<!-- Generator: Adobe Illustrator 19.0.0, SVG Export Plug-In . SVG Version: 6.00 Build 0)  -->
<svg version="1.1" id="Layer_1" xmlns="http://www.w3.org/2000/svg" xmlns:xlink="http://www.w3.org/1999/xlink" x="0px" y="0px"
	 viewBox="0 0 24 24" style="enable-background:new 0 0 24 24;" xml:space="preserve">
<g>
	<g>
		<path d="M4.5,17.951c-1.378,0-2.5-1.122-2.5-2.5s1.122-2.5,2.5-2.5s2.5,1.122,2.5,2.5S5.878,17.951,4.5,17.951z M4.5,13.951
			c-0.827,0-1.5,0.673-1.5,1.5c0,0.827,0.673,1.5,1.5,1.5s1.5-0.673,1.5-1.5C6,14.624,5.327,13.951,4.5,13.951z"/>
	</g>
	<g>
		<path d="M19.5,17.951c-1.378,0-2.5-1.122-2.5-2.5s1.122-2.5,2.5-2.5s2.5,1.122,2.5,2.5S20.878,17.951,19.5,17.951z M19.5,13.951
			c-0.827,0-1.5,0.673-1.5,1.5c0,0.827,0.673,1.5,1.5,1.5s1.5-0.673,1.5-1.5C21,14.624,20.327,13.951,19.5,13.951z"/>
	</g>
	<g>
		<path d="M17.5,15.951h-11c-0.276,0-0.5-0.224-0.5-0.5s0.224-0.5,0.5-0.5h11c0.276,0,0.5,0.224,0.5,0.5S17.776,15.951,17.5,15.951z
			"/>
	</g>
	<g>
		<path d="M16.5,10.951h-8c-0.174,0-0.336-0.091-0.427-0.24c-0.091-0.149-0.098-0.334-0.018-0.49
			c0.109-0.212,1.101-2.088,2.199-2.706c0.24-0.136,0.545-0.05,0.681,0.19c0.136,0.241,0.05,0.545-0.19,0.681
			C10.27,8.654,9.743,9.361,9.368,9.951H16.5c0.276,0,0.5,0.224,0.5,0.5S16.776,10.951,16.5,10.951z"/>
	</g>
	<g>
		<path d="M13.5,12.951h-1c-0.276,0-0.5-0.224-0.5-0.5s0.224-0.5,0.5-0.5h1c0.276,0,0.5,0.224,0.5,0.5S13.776,12.951,13.5,12.951z"
			/>
	</g>
	<g>
		<path d="M21.501,15.951c-0.184,0-0.36-0.101-0.448-0.276c-0.124-0.247-0.023-0.547,0.224-0.671l0.895-0.447
			C22.682,14.301,23,13.787,23,13.215v-0.954c0-0.774-0.581-1.416-1.351-1.493l-2.704-0.27c-0.406-0.041-0.8-0.182-1.138-0.408
			l-3.433-2.289c-0.355-0.237-0.769-0.38-1.195-0.413L8.837,7.056C8.112,7.004,7.395,7.264,6.878,7.78L5.732,8.926
			c-0.661,0.661-1.54,1.025-2.475,1.025H2.5c-0.827,0-1.5,0.673-1.5,1.5v3c0,0.276,0.224,0.5,0.5,0.5h1c0.276,0,0.5,0.224,0.5,0.5
			s-0.224,0.5-0.5,0.5h-1c-0.827,0-1.5-0.673-1.5-1.5v-3c0-1.378,1.122-2.5,2.5-2.5h0.757c0.668,0,1.296-0.26,1.768-0.732
			l1.146-1.146C6.895,6.35,7.895,5.982,8.915,6.059l4.342,0.334c0.597,0.046,1.175,0.246,1.673,0.578l3.433,2.289
			c0.203,0.136,0.439,0.22,0.683,0.245l2.704,0.27C23.032,9.902,24,10.972,24,12.261v0.954c0,0.953-0.529,1.809-1.382,2.236
			l-0.895,0.447C21.652,15.934,21.576,15.951,21.501,15.951z"/>
	</g>
	<g>
		<path d="M2.501,8.451c-0.04,0-0.081-0.005-0.122-0.015l-2-0.5C0.111,7.869-0.052,7.598,0.015,7.33
			c0.066-0.269,0.336-0.433,0.606-0.364l2,0.5c0.268,0.067,0.431,0.338,0.364,0.606C2.928,8.3,2.725,8.451,2.501,8.451z"/>
	</g>
	<g>
		<path d="M2,9.951c-0.209,0-0.404-0.132-0.474-0.342l-0.5-1.5C0.939,7.847,1.08,7.564,1.342,7.477
			C1.607,7.39,1.887,7.531,1.974,7.793l0.5,1.5C2.562,9.555,2.42,9.838,2.158,9.925C2.105,9.943,2.052,9.951,2,9.951z"/>
	</g>
</g>
<g>
</g>
<g>
</g>
<g>
</g>
<g>
</g>
<g>
</g>
<g>
</g>
<g>
</g>
<g>
</g>
<g>
</g>
<g>
</g>
<g>
</g>
<g>
</g>
<g>
</g>
<g>
</g>
<g>
</g>
</svg>
