<?xml version="1.0" encoding="iso-8859-1"?>
<!-- Generator: Adobe Illustrator 19.0.0, SVG Export Plug-In . SVG Version: 6.00 Build 0)  -->
<svg version="1.1" id="Layer_1" xmlns="http://www.w3.org/2000/svg" xmlns:xlink="http://www.w3.org/1999/xlink" x="0px" y="0px"
	 viewBox="0 0 24 24" style="enable-background:new 0 0 24 24;" xml:space="preserve">
<g>
	<g>
		<path d="M22,22H2c-0.276,0-0.5-0.224-0.5-0.5v-2C1.5,19.224,1.724,19,2,19h20c0.276,0,0.5,0.224,0.5,0.5v2
			C22.5,21.776,22.276,22,22,22z M2.5,21h19v-1h-19V21z"/>
	</g>
	<g>
		<path d="M21,20c-0.276,0-0.5-0.224-0.5-0.5v-2c0-0.827-0.673-1.5-1.5-1.5c-0.276,0-0.5-0.224-0.5-0.5v-8C18.5,6.673,17.827,6,17,6
			H7C6.173,6,5.5,6.673,5.5,7.5v8C5.5,15.776,5.276,16,5,16c-0.827,0-1.5,0.673-1.5,1.5v2C3.5,19.776,3.276,20,3,20
			s-0.5-0.224-0.5-0.5v-2c0-1.208,0.86-2.217,2-2.45V7.5C4.5,6.122,5.622,5,7,5h10c1.378,0,2.5,1.122,2.5,2.5v7.55
			c1.14,0.232,2,1.242,2,2.45v2C21.5,19.776,21.276,20,21,20z"/>
	</g>
	<g>
		<path d="M17,12H7c-0.276,0-0.5-0.224-0.5-0.5v-3C6.5,7.673,7.173,7,8,7h8c0.827,0,1.5,0.673,1.5,1.5v3
			C17.5,11.776,17.276,12,17,12z M7.5,11h9V8.5C16.5,8.224,16.276,8,16,8H8C7.724,8,7.5,8.224,7.5,8.5V11z"/>
	</g>
	<g>
		<path d="M12,12c-0.276,0-0.5-0.224-0.5-0.5v-4C11.5,7.224,11.724,7,12,7s0.5,0.224,0.5,0.5v4C12.5,11.776,12.276,12,12,12z"/>
	</g>
	<g>
		<path d="M17,18H7c-0.276,0-0.5-0.224-0.5-0.5v-4C6.5,13.224,6.724,13,7,13h10c0.276,0,0.5,0.224,0.5,0.5v4
			C17.5,17.776,17.276,18,17,18z M7.5,17h9v-3h-9V17z"/>
	</g>
	<g>
		<path d="M21,20c-0.276,0-0.5-0.224-0.5-0.5v-18C20.5,1.224,20.276,1,20,1H4C3.724,1,3.5,1.224,3.5,1.5v18
			C3.5,19.776,3.276,20,3,20s-0.5-0.224-0.5-0.5v-18C2.5,0.673,3.173,0,4,0h16c0.827,0,1.5,0.673,1.5,1.5v18
			C21.5,19.776,21.276,20,21,20z"/>
	</g>
	<g>
		<path d="M8,6C7.173,6,6.5,5.327,6.5,4.5S7.173,3,8,3s1.5,0.673,1.5,1.5S8.827,6,8,6z M8,4C7.724,4,7.5,4.224,7.5,4.5S7.724,5,8,5
			s0.5-0.224,0.5-0.5S8.276,4,8,4z"/>
	</g>
	<g>
		<path d="M16,6c-0.827,0-1.5-0.673-1.5-1.5S15.173,3,16,3s1.5,0.673,1.5,1.5S16.827,6,16,6z M16,4c-0.276,0-0.5,0.224-0.5,0.5
			S15.724,5,16,5s0.5-0.224,0.5-0.5S16.276,4,16,4z"/>
	</g>
	<g>
		<path d="M2,9C1.724,9,1.5,8.776,1.5,8.5v-1C1.5,6.673,2.173,6,3,6h2c0.276,0,0.5,0.224,0.5,0.5S5.276,7,5,7H3
			C2.724,7,2.5,7.224,2.5,7.5v1C2.5,8.776,2.276,9,2,9z"/>
	</g>
	<g>
		<path d="M3,13H1c-0.276,0-0.5-0.224-0.5-0.5v-4C0.5,8.224,0.724,8,1,8h2c0.276,0,0.5,0.224,0.5,0.5v4C3.5,12.776,3.276,13,3,13z
			 M1.5,12h1V9h-1V12z"/>
	</g>
	<g>
		<path d="M22,9c-0.276,0-0.5-0.224-0.5-0.5v-1C21.5,7.224,21.276,7,21,7h-2c-0.276,0-0.5-0.224-0.5-0.5S18.724,6,19,6h2
			c0.827,0,1.5,0.673,1.5,1.5v1C22.5,8.776,22.276,9,22,9z"/>
	</g>
	<g>
		<path d="M23,13h-2c-0.276,0-0.5-0.224-0.5-0.5v-4C20.5,8.224,20.724,8,21,8h2c0.276,0,0.5,0.224,0.5,0.5v4
			C23.5,12.776,23.276,13,23,13z M21.5,12h1V9h-1V12z"/>
	</g>
	<g>
		<path d="M7,24H3c-0.276,0-0.5-0.224-0.5-0.5v-2C2.5,21.224,2.724,21,3,21s0.5,0.224,0.5,0.5V23h3v-1.5C6.5,21.224,6.724,21,7,21
			s0.5,0.224,0.5,0.5v2C7.5,23.776,7.276,24,7,24z"/>
	</g>
	<g>
		<path d="M21,24h-4c-0.276,0-0.5-0.224-0.5-0.5v-2c0-0.276,0.224-0.5,0.5-0.5s0.5,0.224,0.5,0.5V23h3v-1.5
			c0-0.276,0.224-0.5,0.5-0.5s0.5,0.224,0.5,0.5v2C21.5,23.776,21.276,24,21,24z"/>
	</g>
	<g>
		<path d="M5,20c-1.378,0-2.5-1.122-2.5-2.5S3.622,15,5,15s2.5,1.122,2.5,2.5S6.378,20,5,20z M5,16c-0.827,0-1.5,0.673-1.5,1.5
			S4.173,19,5,19s1.5-0.673,1.5-1.5S5.827,16,5,16z"/>
	</g>
	<g>
		<path d="M19,20c-1.378,0-2.5-1.122-2.5-2.5S17.622,15,19,15s2.5,1.122,2.5,2.5S20.378,20,19,20z M19,16
			c-0.827,0-1.5,0.673-1.5,1.5S18.173,19,19,19s1.5-0.673,1.5-1.5S19.827,16,19,16z"/>
	</g>
</g>
<g>
</g>
<g>
</g>
<g>
</g>
<g>
</g>
<g>
</g>
<g>
</g>
<g>
</g>
<g>
</g>
<g>
</g>
<g>
</g>
<g>
</g>
<g>
</g>
<g>
</g>
<g>
</g>
<g>
</g>
</svg>
