<?xml version="1.0" encoding="iso-8859-1"?>
<!-- Generator: Adobe Illustrator 19.0.0, SVG Export Plug-In . SVG Version: 6.00 Build 0)  -->
<svg version="1.1" id="Layer_1" xmlns="http://www.w3.org/2000/svg" xmlns:xlink="http://www.w3.org/1999/xlink" x="0px" y="0px"
	 viewBox="0 0 24 24" style="enable-background:new 0 0 24 24;" xml:space="preserve">
<g>
	<path d="M18.5,20h-13C2.467,20,0,17.533,0,14.5c0-2.472,1.665-4.636,4.012-5.294C4.162,7.413,5.669,6,7.5,6
		c0.531,0,1.048,0.119,1.52,0.347C10.045,4.888,11.72,4,13.5,4c2.871,0,5.236,2.211,5.479,5.021C21.789,9.264,24,11.629,24,14.5
		C24,17.533,21.533,20,18.5,20z M7.5,7C6.122,7,5,8.122,5,9.5c0.011,0.246-0.15,0.541-0.391,0.59C2.518,10.51,1,12.365,1,14.5
		C1,16.981,3.019,19,5.5,19h13c2.481,0,4.5-2.019,4.5-4.5S20.981,10,18.5,10C18.224,10,18,9.776,18,9.5C18,7.019,15.981,5,13.5,5
		c-1.589,0-3.077,0.869-3.883,2.267C9.548,7.388,9.432,7.474,9.296,7.505C9.161,7.537,9.018,7.509,8.903,7.431
		C8.488,7.149,8.002,7,7.5,7z"/>
</g>
<g>
</g>
<g>
</g>
<g>
</g>
<g>
</g>
<g>
</g>
<g>
</g>
<g>
</g>
<g>
</g>
<g>
</g>
<g>
</g>
<g>
</g>
<g>
</g>
<g>
</g>
<g>
</g>
<g>
</g>
</svg>
