<?xml version="1.0" encoding="iso-8859-1"?>
<!-- Generator: Adobe Illustrator 19.0.0, SVG Export Plug-In . SVG Version: 6.00 Build 0)  -->
<svg version="1.1" id="Layer_1" xmlns="http://www.w3.org/2000/svg" xmlns:xlink="http://www.w3.org/1999/xlink" x="0px" y="0px"
	 viewBox="0 0 24 24" style="enable-background:new 0 0 24 24;" xml:space="preserve">
<g>
	<g>
		<g>
			<path d="M23.5,24h-23C0.224,24,0,23.776,0,23.5v-23C0,0.224,0.224,0,0.5,0h23C23.776,0,24,0.224,24,0.5v23
				C24,23.776,23.776,24,23.5,24z M1,23h22V1H1V23z"/>
		</g>
		<g>
			<path d="M21.5,22h-19C2.224,22,2,21.776,2,21.5v-19C2,2.224,2.224,2,2.5,2h19C21.776,2,22,2.224,22,2.5v19
				C22,21.776,21.776,22,21.5,22z M3,21h18V3H3V21z"/>
		</g>
		<g>
			<path d="M13.5,17c-0.209,0-0.404-0.132-0.475-0.342L10.5,9.081l-2.525,7.577c-0.088,0.263-0.369,0.405-0.633,0.316
				c-0.262-0.087-0.403-0.37-0.316-0.632l3-9c0.137-0.408,0.813-0.408,0.949,0l3,9c0.087,0.262-0.055,0.545-0.316,0.632
				C13.605,16.992,13.553,17,13.5,17z"/>
		</g>
		<g>
			<path d="M12.5,14h-4C8.224,14,8,13.776,8,13.5S8.224,13,8.5,13h4c0.276,0,0.5,0.224,0.5,0.5S12.776,14,12.5,14z"/>
		</g>
		<g>
			<path d="M16.5,17c-0.276,0-0.5-0.224-0.5-0.5v-7C16,9.224,16.224,9,16.5,9S17,9.224,17,9.5v7C17,16.776,16.776,17,16.5,17z"/>
		</g>
	</g>
	<g>
		<circle cx="16.5" cy="7.5" r="0.5"/>
	</g>
</g>
<g>
</g>
<g>
</g>
<g>
</g>
<g>
</g>
<g>
</g>
<g>
</g>
<g>
</g>
<g>
</g>
<g>
</g>
<g>
</g>
<g>
</g>
<g>
</g>
<g>
</g>
<g>
</g>
<g>
</g>
</svg>
