<?xml version="1.0" encoding="iso-8859-1"?>
<!-- Generator: Adobe Illustrator 19.0.0, SVG Export Plug-In . SVG Version: 6.00 Build 0)  -->
<svg version="1.1" id="Layer_1" xmlns="http://www.w3.org/2000/svg" xmlns:xlink="http://www.w3.org/1999/xlink" x="0px" y="0px"
	 viewBox="0 0 24 24" style="enable-background:new 0 0 24 24;" xml:space="preserve">
<g>
	<g>
		<path d="M22.5,24h-1c-0.276,0-0.5-0.224-0.5-0.5v-12c0-0.276-0.225-0.5-0.5-0.5h-17C3.225,11,3,11.224,3,11.5v12
			C3,23.776,2.776,24,2.5,24h-1c-0.133,0-0.26-0.053-0.354-0.146l-1-1C0.053,22.76,0,22.633,0,22.5v-21
			c0-0.133,0.053-0.26,0.146-0.354l1-1C1.24,0.053,1.367,0,1.5,0h20c0.133,0,0.26,0.053,0.354,0.146l2,2
			C23.947,2.24,24,2.367,24,2.5v20c0,0.133-0.053,0.26-0.146,0.354l-1,1C22.76,23.947,22.633,24,22.5,24z M22,23h0.293L23,22.293
			V2.707L21.293,1H1.707L1,1.707v20.586L1.707,23H2V11.5C2,10.673,2.673,10,3.5,10h17c0.827,0,1.5,0.673,1.5,1.5V23z"/>
	</g>
	<g>
		<path style="fill:none;stroke:#000000;stroke-linecap:round;stroke-linejoin:round;stroke-miterlimit:10;" d="M4.5,13"/>
	</g>
	<g>
		<path d="M19.5,14h-15C4.224,14,4,13.776,4,13.5S4.224,13,4.5,13h15c0.276,0,0.5,0.224,0.5,0.5S19.776,14,19.5,14z"/>
	</g>
	<g>
		<path d="M19.5,17h-15C4.224,17,4,16.776,4,16.5S4.224,16,4.5,16h15c0.276,0,0.5,0.224,0.5,0.5S19.776,17,19.5,17z"/>
	</g>
	<g>
		<path d="M11.5,20h-7C4.224,20,4,19.776,4,19.5S4.224,19,4.5,19h7c0.276,0,0.5,0.224,0.5,0.5S11.776,20,11.5,20z"/>
	</g>
	<g>
		<path d="M14.75,22h-0.5C13.561,22,13,21.439,13,20.75v-1.5c0-0.689,0.561-1.25,1.25-1.25h1.25c0.276,0,0.5,0.224,0.5,0.5
			S15.776,19,15.5,19h-1.25C14.112,19,14,19.112,14,19.25v0.25h0.75c0.689,0,1.25,0.561,1.25,1.25S15.439,22,14.75,22z M14,20.5
			v0.25c0,0.138,0.112,0.25,0.25,0.25h0.5c0.138,0,0.25-0.112,0.25-0.25s-0.112-0.25-0.25-0.25H14z"/>
	</g>
	<g>
		<path d="M19.5,21H17c-0.173,0-0.334-0.09-0.426-0.237c-0.091-0.147-0.099-0.332-0.021-0.486l1-2
			c0.124-0.248,0.424-0.345,0.671-0.224c0.247,0.124,0.347,0.424,0.224,0.671L17.809,20H19.5c0.276,0,0.5,0.224,0.5,0.5
			S19.776,21,19.5,21z"/>
	</g>
	<g>
		<path d="M18.5,22c-0.276,0-0.5-0.224-0.5-0.5V20c0-0.276,0.224-0.5,0.5-0.5S19,19.724,19,20v1.5C19,21.776,18.776,22,18.5,22z"/>
	</g>
	<g>
		<path d="M22.52,22c-0.275,0-0.505-0.224-0.505-0.5S22.233,21,22.51,21h0.01c0.276,0,0.5,0.224,0.5,0.5S22.796,22,22.52,22z"/>
	</g>
	<g>
		<path d="M21.5,24h-19C2.224,24,2,23.776,2,23.5S2.224,23,2.5,23h19c0.276,0,0.5,0.224,0.5,0.5S21.776,24,21.5,24z"/>
	</g>
	<g>
		<path d="M17.5,9h-9C7.673,9,7,8.327,7,7.5v-7C7,0.224,7.224,0,7.5,0h11C18.776,0,19,0.224,19,0.5v7C19,8.327,18.327,9,17.5,9z
			 M8,1v6.5C8,7.776,8.225,8,8.5,8h9C17.775,8,18,7.776,18,7.5V1H8z"/>
	</g>
	<g>
		<path d="M16.5,9h-4C12.224,9,12,8.776,12,8.5v-8C12,0.224,12.224,0,12.5,0h4C16.776,0,17,0.224,17,0.5v8C17,8.776,16.776,9,16.5,9
			z M13,8h3V1h-3V8z"/>
	</g>
</g>
<g>
</g>
<g>
</g>
<g>
</g>
<g>
</g>
<g>
</g>
<g>
</g>
<g>
</g>
<g>
</g>
<g>
</g>
<g>
</g>
<g>
</g>
<g>
</g>
<g>
</g>
<g>
</g>
<g>
</g>
</svg>
