<?xml version="1.0" encoding="iso-8859-1"?>
<!-- Generator: Adobe Illustrator 19.0.0, SVG Export Plug-In . SVG Version: 6.00 Build 0)  -->
<svg version="1.1" id="Layer_1" xmlns="http://www.w3.org/2000/svg" xmlns:xlink="http://www.w3.org/1999/xlink" x="0px" y="0px"
	 viewBox="0 0 24 24" style="enable-background:new 0 0 24 24;" xml:space="preserve">
<g>
	<g>
		<path d="M20.937,20.854l-1.501-0.375l-0.063-0.251c0.389-0.43,0.666-0.979,0.781-1.549c0.267-0.138,0.46-0.4,0.5-0.715l0.108-0.87
			c0.033-0.264-0.048-0.53-0.223-0.73c-0.054-0.061-0.116-0.115-0.182-0.16l0.025-0.531l0.091-0.091
			c0.258-0.274,0.607-0.859,0.055-1.703C20.266,13.478,19.726,13,18.644,13c-0.319,0-1.038,0-1.736,0.437
			c-2.058,0.073-2.3,1.182-2.3,2.019c0,0.165,0.03,0.474,0.058,0.732c-0.074,0.047-0.142,0.105-0.201,0.172
			c-0.178,0.202-0.26,0.469-0.226,0.734l0.108,0.87c0.041,0.326,0.248,0.596,0.553,0.729c0.112,0.545,0.374,1.073,0.739,1.492
			l-0.073,0.294l-1.501,0.375C12.85,21.158,12,22.246,12,23.5c0,0.133,0.052,0.261,0.146,0.354S12.367,24,12.5,24l10-0.001
			c0.276,0,0.5-0.224,0.5-0.5C23,22.246,22.15,21.158,20.937,20.854z M13.073,22.999c0.172-0.57,0.633-1.024,1.235-1.174
			l1.792-0.448c0.179-0.045,0.319-0.185,0.364-0.364l0.213-0.853c0.044-0.176-0.011-0.362-0.144-0.486
			c-0.389-0.366-0.647-0.901-0.689-1.431c-0.021-0.259-0.243-0.403-0.504-0.403l-0.128-0.798c0.144,0,0.28-0.061,0.375-0.169
			c0.095-0.107,0.139-0.25,0.121-0.393c-0.038-0.302-0.099-0.848-0.099-1.024c0-0.518,0-1.007,1.462-1.022
			c0.102-0.001,0.202-0.033,0.286-0.093C17.833,14,18.381,14,18.644,14c0.516,0,0.859,0.139,1.047,0.426
			c0.203,0.311,0.12,0.399,0.064,0.46l-0.217,0.217c-0.088,0.088-0.14,0.205-0.146,0.329l-0.053,1.088
			c-0.006,0.136,0.01,0.231,0.103,0.33c0.094,0.099,0.19,0.119,0.326,0.12l-0.064,0.813c-0.261,0-0.477,0.2-0.498,0.46
			c-0.044,0.539-0.321,1.098-0.723,1.459c-0.137,0.123-0.196,0.313-0.151,0.493l0.204,0.817c0.045,0.179,0.184,0.32,0.364,0.364
			l1.793,0.448c0.602,0.151,1.062,0.605,1.234,1.176L13.073,22.999z M10.5,23h-8C2.225,23,2,22.776,2,22.5v-19
			C2,3.224,2.225,3,2.5,3H5v0.5C5,3.776,5.224,4,5.5,4h9C14.776,4,15,3.776,15,3.5V3h2.5C17.775,3,18,3.224,18,3.5v8
			c0,0.276,0.224,0.5,0.5,0.5s0.5-0.224,0.5-0.5v-8C19,2.673,18.327,2,17.5,2h-2.592c-0.207-0.581-0.757-1-1.408-1h-1.774
			C11.372,0.39,10.717,0,10,0S8.628,0.39,8.274,1H6.5C5.849,1,5.299,1.419,5.092,2H2.5C1.673,2,1,2.673,1,3.5v19
			C1,23.327,1.673,24,2.5,24h8c0.276,0,0.5-0.224,0.5-0.5S10.776,23,10.5,23z M6,2.5C6,2.224,6.225,2,6.5,2h2.092
			c0.212,0,0.4-0.133,0.47-0.332C9.205,1.269,9.582,1,10,1c0.418,0,0.795,0.269,0.937,0.668C11.008,1.867,11.196,2,11.408,2H13.5
			C13.775,2,14,2.224,14,2.5V3H6V2.5z"/>
	</g>
</g>
</svg>
