<?xml version="1.0" encoding="iso-8859-1"?>
<!-- Generator: Adobe Illustrator 19.0.0, SVG Export Plug-In . SVG Version: 6.00 Build 0)  -->
<svg version="1.1" id="Layer_1" xmlns="http://www.w3.org/2000/svg" xmlns:xlink="http://www.w3.org/1999/xlink" x="0px" y="0px"
	 viewBox="0 0 24 24" style="enable-background:new 0 0 24 24;" xml:space="preserve">
<g>
	<g>
		<path d="M5.5,20h13c0.069,0,0.135-0.014,0.195-0.039C18.874,19.885,19,19.708,19,19.502V2.5C19,2.224,18.776,2,18.5,2h-13
			C5.224,2,5,2.224,5,2.5v17C5,19.776,5.224,20,5.5,20z M6,3h12v13.135c-0.287-0.159-0.591-0.281-0.908-0.36l-2.397-0.599
			l-0.164-0.655c0.632-0.655,1.071-1.526,1.225-2.425c0.383-0.15,0.671-0.501,0.724-0.93l0.163-1.304
			c0.041-0.325-0.059-0.652-0.274-0.899c-0.097-0.112-0.214-0.202-0.343-0.268l0.051-1.042l0.2-0.201
			c0.336-0.358,0.789-1.125,0.054-2.247C15.808,4.405,14.928,4,13.715,4c-0.463,0-1.522,0-2.527,0.656
			c-2.9,0.077-3.276,1.521-3.276,2.779c0,0.273,0.058,0.833,0.104,1.237C7.872,8.738,7.742,8.834,7.635,8.955
			C7.417,9.203,7.315,9.532,7.356,9.86l0.163,1.304c0.057,0.458,0.381,0.827,0.804,0.958c0.154,0.859,0.569,1.696,1.161,2.337
			l-0.179,0.715l-2.397,0.599C6.591,15.852,6.287,15.975,6,16.134V3z M6,17.345c0.336-0.289,0.73-0.496,1.15-0.601l2.688-0.672
			c0.179-0.045,0.32-0.185,0.364-0.364l0.32-1.279c0.044-0.176-0.011-0.362-0.143-0.486c-0.628-0.59-1.044-1.453-1.112-2.31
			c-0.021-0.26-0.238-0.46-0.499-0.46H8.662c-0.077,0-0.142-0.057-0.151-0.133L8.348,9.736c-0.007-0.059,0.02-0.1,0.037-0.12
			C8.402,9.597,8.44,9.565,8.567,9.565c0.144,0,0.28-0.061,0.375-0.169c0.095-0.107,0.139-0.25,0.121-0.393
			c-0.042-0.331-0.15-1.258-0.15-1.568c0-0.783,0-1.758,2.439-1.782c0.102-0.001,0.203-0.033,0.286-0.093
			c0.688-0.493,1.436-0.559,2.077-0.559c0.866,0,1.448,0.246,1.779,0.752c0.414,0.631,0.18,0.88,0.065,1.002l-0.326,0.326
			c-0.088,0.088-0.14,0.206-0.146,0.33l-0.079,1.632c-0.006,0.136,0.043,0.268,0.136,0.367c0.093,0.099,0.222,0.156,0.358,0.157
			c0.06,0,0.097,0.033,0.114,0.052c0.02,0.023,0.043,0.062,0.036,0.117l-0.163,1.305c-0.01,0.076-0.075,0.133-0.183,0.133
			c-0.261,0-0.478,0.2-0.499,0.46c-0.07,0.87-0.516,1.772-1.165,2.354c-0.138,0.124-0.196,0.314-0.151,0.494l0.307,1.226
			c0.045,0.178,0.185,0.319,0.364,0.363l2.688,0.672c0.42,0.106,0.814,0.312,1.15,0.601V19H6V17.345z M20.5,0h-17
			C3.224,0,3,0.224,3,0.5v23C3,23.776,3.224,24,3.5,24h17c0.276,0,0.5-0.224,0.5-0.5v-23C21,0.224,20.776,0,20.5,0z M20,23H4V1h16
			V23z"/>
	</g>
</g>
</svg>
