<?xml version="1.0" encoding="iso-8859-1"?>
<!-- Generator: Adobe Illustrator 19.0.0, SVG Export Plug-In . SVG Version: 6.00 Build 0)  -->
<svg version="1.1" id="Layer_1" xmlns="http://www.w3.org/2000/svg" xmlns:xlink="http://www.w3.org/1999/xlink" x="0px" y="0px"
	 viewBox="0 0 24 24" style="enable-background:new 0 0 24 24;" xml:space="preserve">
<g>
	<g>
		<path d="M14.5,11.5h4c0.276,0,0.5-0.224,0.5-0.5s-0.224-0.5-0.5-0.5h-4c-0.276,0-0.5,0.224-0.5,0.5S14.224,11.5,14.5,11.5z
			 M14.5,8.5h7C21.776,8.5,22,8.276,22,8s-0.224-0.5-0.5-0.5h-7C14.224,7.5,14,7.724,14,8S14.224,8.5,14.5,8.5z M2.5,16.5l10-0.003
			c0.276,0,0.5-0.224,0.5-0.5c0-1.254-0.849-2.341-2.065-2.645l-1.501-0.375l-0.063-0.251c0.39-0.43,0.666-0.978,0.781-1.548
			c0.266-0.137,0.46-0.4,0.5-0.715l0.109-0.87c0.033-0.263-0.049-0.529-0.223-0.729c-0.054-0.062-0.116-0.116-0.183-0.161
			l0.026-0.53l0.092-0.092c0.258-0.274,0.607-0.859,0.054-1.703C10.265,5.978,9.725,5.5,8.644,5.5c-0.318,0-1.037,0-1.736,0.437
			c-2.058,0.073-2.3,1.182-2.3,2.019c0,0.165,0.03,0.474,0.058,0.732C4.592,8.735,4.524,8.792,4.465,8.859
			C4.288,9.06,4.205,9.327,4.238,9.594l0.109,0.87C4.388,10.79,4.595,11.06,4.9,11.193c0.114,0.545,0.374,1.073,0.739,1.492
			l-0.073,0.294l-1.501,0.375C2.849,13.658,2,14.746,2,16c0,0.133,0.052,0.261,0.146,0.354S2.367,16.5,2.5,16.5z M4.306,14.323
			l1.792-0.448c0.179-0.044,0.32-0.184,0.364-0.363l0.213-0.853c0.045-0.176-0.011-0.362-0.143-0.486
			c-0.389-0.365-0.647-0.9-0.689-1.431c-0.021-0.26-0.243-0.403-0.504-0.403L5.211,9.543c0.144,0,0.28-0.061,0.375-0.169
			c0.095-0.107,0.139-0.25,0.121-0.393C5.669,8.679,5.608,8.133,5.608,7.957c0-0.518,0-1.007,1.461-1.022
			c0.102-0.001,0.203-0.033,0.286-0.093c0.477-0.341,1.024-0.341,1.287-0.341c0.768,0,0.978,0.321,1.047,0.426
			c0.204,0.311,0.12,0.399,0.065,0.459L9.536,7.603c-0.088,0.088-0.14,0.206-0.146,0.33L9.337,9.021
			c-0.006,0.136,0.011,0.231,0.104,0.33C9.535,9.45,9.632,9.47,9.768,9.471l-0.065,0.813c-0.261,0-0.478,0.2-0.499,0.46
			c-0.042,0.539-0.319,1.098-0.721,1.458c-0.138,0.124-0.196,0.314-0.151,0.494l0.205,0.817c0.045,0.178,0.185,0.319,0.364,0.363
			l1.792,0.448c0.602,0.151,1.062,0.605,1.234,1.176l-8.854-0.001C3.246,14.929,3.706,14.475,4.306,14.323z M23.5,3.5h-23
			C0.224,3.5,0,3.724,0,4v16c0,0.276,0.224,0.5,0.5,0.5h3C3.776,20.5,4,20.276,4,20c0-0.071,0.026-0.149,0.083-0.245
			c0.094-0.157,0.094-0.354,0-0.511C4.026,19.148,4,19.07,4,18.999c0-0.276,0.224-0.5,0.5-0.5s0.5,0.224,0.5,0.5
			c0,0.072-0.026,0.149-0.083,0.245c-0.094,0.157-0.094,0.354,0,0.511C4.974,19.851,5,19.929,5,20c0,0.276,0.224,0.5,0.5,0.5h3
			C8.776,20.5,9,20.276,9,20c0-0.071,0.026-0.149,0.083-0.245c0.094-0.157,0.094-0.354,0-0.511C9.026,19.148,9,19.07,9,18.999
			c0-0.276,0.224-0.5,0.5-0.5s0.5,0.224,0.5,0.5c0,0.072-0.026,0.149-0.083,0.245c-0.094,0.157-0.094,0.354,0,0.511
			C9.974,19.851,10,19.929,10,20c0,0.276,0.224,0.5,0.5,0.5h3c0.276,0,0.5-0.224,0.5-0.5c0-0.071,0.026-0.149,0.083-0.244
			c0.094-0.157,0.094-0.354,0-0.511C14.026,19.149,14,19.071,14,19c0-0.276,0.224-0.5,0.5-0.5S15,18.724,15,19
			c0,0.071-0.026,0.149-0.083,0.244c-0.094,0.157-0.094,0.354,0,0.511C14.974,19.851,15,19.929,15,20c0,0.276,0.224,0.5,0.5,0.5h3
			c0.276,0,0.5-0.224,0.5-0.5c0-0.071,0.026-0.149,0.083-0.244c0.094-0.157,0.094-0.354,0-0.511C19.026,19.149,19,19.071,19,19
			c0-0.276,0.224-0.5,0.5-0.5S20,18.724,20,19c0,0.071-0.026,0.149-0.083,0.244c-0.094,0.157-0.094,0.354,0,0.511
			C19.974,19.851,20,19.929,20,20c0,0.276,0.224,0.5,0.5,0.5h3c0.276,0,0.5-0.224,0.5-0.5V4C24,3.724,23.776,3.5,23.5,3.5z M23,19.5
			h-2.097C20.968,19.334,21,19.169,21,19c0-0.827-0.673-1.5-1.5-1.5S18,18.173,18,19c0,0.169,0.032,0.334,0.097,0.5h-2.194
			C15.968,19.334,16,19.169,16,19c0-0.827-0.673-1.5-1.5-1.5S13,18.173,13,19c0,0.169,0.032,0.334,0.097,0.5h-2.194
			C10.968,19.334,11,19.169,11,19c0-0.827-0.673-1.5-1.5-1.5S8,18.173,8,19c0,0.169,0.032,0.334,0.097,0.5H5.903
			C5.968,19.334,6,19.169,6,19c0-0.827-0.673-1.5-1.5-1.5S3,18.173,3,19c0,0.169,0.032,0.334,0.097,0.5H1v-15h22V19.5z M14.5,14.5h7
			c0.276,0,0.5-0.224,0.5-0.5s-0.224-0.5-0.5-0.5h-7c-0.276,0-0.5,0.224-0.5,0.5S14.224,14.5,14.5,14.5z"/>
	</g>
</g>
</svg>
