<?xml version="1.0" encoding="iso-8859-1"?>
<!-- Generator: Adobe Illustrator 19.0.0, SVG Export Plug-In . SVG Version: 6.00 Build 0)  -->
<svg version="1.1" id="Layer_1" xmlns="http://www.w3.org/2000/svg" xmlns:xlink="http://www.w3.org/1999/xlink" x="0px" y="0px"
	 viewBox="0 0 24 24" style="enable-background:new 0 0 24 24;" xml:space="preserve">
<g>
	<g>
		<path d="M4.5,5C5.878,5,7,3.878,7,2.5S5.878,0,4.5,0C3.122,0,2,1.122,2,2.5S3.122,5,4.5,5z M4.5,1C5.327,1,6,1.673,6,2.5
			C6,3.327,5.327,4,4.5,4C3.673,4,3,3.327,3,2.5C3,1.673,3.673,1,4.5,1z M10.423,11.765l2.167-3.467l1.556,1.556
			c0.106,0.106,0.255,0.159,0.403,0.144c0.149-0.014,0.284-0.095,0.367-0.22l1.662-2.493l0.569,0.569
			c0.102,0.103,0.241,0.158,0.389,0.145C17.68,7.988,17.813,7.916,17.9,7.8l3-4c0.166-0.221,0.121-0.534-0.1-0.7
			c-0.221-0.165-0.534-0.121-0.7,0.1l-2.654,3.539l-0.592-0.592c-0.106-0.105-0.247-0.156-0.403-0.144
			c-0.149,0.014-0.284,0.095-0.367,0.22l-1.662,2.493l-1.569-1.569c-0.107-0.108-0.258-0.162-0.41-0.143
			c-0.151,0.017-0.286,0.102-0.367,0.231l-2.5,4c-0.146,0.234-0.075,0.543,0.159,0.689C9.818,11.976,9.91,12,10,12
			C10.166,12,10.329,11.917,10.423,11.765z M8.325,8.429C8.168,7.044,7.071,6,5.776,6H3.222C1.927,6,0.831,7.044,0.673,8.429
			l-0.662,5.808c-0.055,0.486,0.095,0.969,0.411,1.323c0.273,0.305,0.635,0.483,1.027,0.505l0.552,7.472
			C2.021,23.798,2.238,24,2.5,24h4c0.262,0,0.479-0.202,0.497-0.463l0.552-7.472c0.392-0.022,0.755-0.199,1.027-0.505
			c0.317-0.355,0.467-0.837,0.411-1.323L8.325,8.429z M7.831,14.894c-0.057,0.064-0.182,0.173-0.366,0.173H7.086
			c-0.262,0-0.48,0.202-0.499,0.463L6.035,23H2.964l-0.551-7.47c-0.02-0.261-0.237-0.463-0.499-0.463H1.535
			c-0.184,0-0.308-0.109-0.366-0.173c-0.127-0.143-0.187-0.341-0.164-0.544l0.662-5.808C1.767,7.663,2.436,7,3.223,7h2.554
			c0.786,0,1.455,0.663,1.556,1.542l0.662,5.808C8.018,14.553,7.958,14.751,7.831,14.894z M23.5,0H8C7.724,0,7.5,0.224,7.5,0.5
			S7.724,1,8,1h15v13H10.5c-0.276,0-0.5,0.224-0.5,0.5s0.224,0.5,0.5,0.5h13c0.276,0,0.5-0.224,0.5-0.5v-14
			C24,0.224,23.776,0,23.5,0z"/>
	</g>
</g>
</svg>
