<?xml version="1.0" encoding="iso-8859-1"?>
<!-- Generator: Adobe Illustrator 19.0.0, SVG Export Plug-In . SVG Version: 6.00 Build 0)  -->
<svg version="1.1" id="Layer_1" xmlns="http://www.w3.org/2000/svg" xmlns:xlink="http://www.w3.org/1999/xlink" x="0px" y="0px"
	 viewBox="0 0 24 24" style="enable-background:new 0 0 24 24;" xml:space="preserve">
<g>
	<g>
		<path d="M16.49,14.237l-0.663-5.808C15.669,7.044,14.573,6,13.276,6h-2.553c-1.296,0-2.393,1.045-2.55,2.429L7.51,14.237
			c-0.055,0.486,0.095,0.969,0.411,1.323c0.272,0.305,0.634,0.483,1.027,0.505L9.5,23.537C9.521,23.798,9.737,24,10,24h4
			c0.262,0,0.479-0.202,0.5-0.463l0.552-7.472c0.392-0.022,0.755-0.199,1.027-0.505C16.394,15.205,16.544,14.723,16.49,14.237z
			 M15.331,14.894c-0.057,0.064-0.182,0.173-0.366,0.173h-0.38c-0.262,0-0.479,0.202-0.499,0.463L13.534,23h-3.07l-0.553-7.47
			c-0.02-0.261-0.237-0.463-0.499-0.463h-0.38c-0.183,0-0.308-0.109-0.366-0.173c-0.127-0.143-0.186-0.341-0.163-0.544l0.663-5.808
			C9.266,7.663,9.935,7,10.722,7h2.553c0.787,0,1.456,0.663,1.556,1.542l0.663,5.808C15.518,14.553,15.458,14.751,15.331,14.894z
			 M12,5c1.379,0,2.5-1.122,2.5-2.5S13.378,0,12,0C10.62,0,9.5,1.122,9.5,2.5S10.62,5,12,5z M12,1c0.827,0,1.5,0.673,1.5,1.5
			C13.5,3.327,12.826,4,12,4c-0.827,0-1.5-0.673-1.5-1.5C10.5,1.673,11.172,1,12,1z"/>
	</g>
</g>
</svg>
