<?xml version="1.0" encoding="iso-8859-1"?>
<!-- Generator: Adobe Illustrator 19.0.0, SVG Export Plug-In . SVG Version: 6.00 Build 0)  -->
<svg version="1.1" id="Layer_1" xmlns="http://www.w3.org/2000/svg" xmlns:xlink="http://www.w3.org/1999/xlink" x="0px" y="0px"
	 viewBox="0 0 24 24" style="enable-background:new 0 0 24 24;" xml:space="preserve">
<g>
	<g>
		<path d="M4.5,5C5.879,5,7,3.878,7,2.5S5.879,0,4.5,0C3.121,0,2,1.122,2,2.5S3.121,5,4.5,5z M4.5,1C5.327,1,6,1.673,6,2.5
			C6,3.327,5.327,4,4.5,4C3.673,4,3,3.327,3,2.5C3,1.673,3.673,1,4.5,1z M23.5,7H20V6.5C20,6.224,19.776,6,19.5,6S19,6.224,19,6.5V7
			h-2.872l-2.152-6.653c-0.085-0.263-0.363-0.408-0.63-0.322c-0.262,0.085-0.406,0.366-0.321,0.629l5.5,17
			C18.593,17.866,18.789,18,19,18c0.051,0,0.103-0.008,0.154-0.024c0.262-0.085,0.406-0.366,0.321-0.629l-1.128-3.486
			c0.417-0.303,0.815-0.673,1.197-1.073c0.96,1.012,1.928,1.907,2.118,2.081C21.758,14.957,21.879,15,22,15
			c0.135,0,0.271-0.055,0.368-0.161c0.187-0.205,0.172-0.52-0.031-0.707c-0.468-0.429-1.33-1.253-2.128-2.096
			c1.139-1.404,1.985-3.013,2.217-4.036H23.5C23.776,8,24,7.776,24,7.5S23.776,7,23.5,7z M19.535,11.294
			c-0.511-0.584-0.928-1.125-1.073-1.482c-0.103-0.256-0.396-0.379-0.651-0.275s-0.378,0.396-0.274,0.652
			c0.199,0.49,0.724,1.173,1.335,1.866c-0.271,0.285-0.556,0.547-0.855,0.786L16.451,8h4.95
			C21.164,8.789,20.484,10.096,19.535,11.294z M8.327,8.429C8.17,7.044,7.073,6,5.777,6H3.224c-1.296,0-2.393,1.045-2.55,2.429
			l-0.663,5.808c-0.055,0.486,0.095,0.969,0.411,1.323c0.272,0.305,0.634,0.483,1.027,0.505l0.552,7.472
			C2.021,23.798,2.238,24,2.5,24h4c0.262,0,0.479-0.202,0.5-0.463l0.552-7.472c0.392-0.022,0.755-0.199,1.027-0.505
			c0.316-0.355,0.466-0.837,0.411-1.323L8.327,8.429z M7.832,14.894c-0.057,0.064-0.182,0.173-0.366,0.173h-0.38
			c-0.262,0-0.479,0.202-0.499,0.463L6.035,23h-3.07l-0.553-7.47c-0.02-0.261-0.237-0.463-0.499-0.463h-0.38
			c-0.183,0-0.308-0.109-0.366-0.173c-0.127-0.143-0.186-0.341-0.163-0.544l0.663-5.808C1.767,7.663,2.436,7,3.223,7h2.553
			c0.787,0,1.456,0.663,1.556,1.542l0.663,5.808C8.019,14.553,7.959,14.751,7.832,14.894z M12.47,3.332
			c-0.142-0.398-0.798-0.398-0.941,0l-2.5,7c-0.093,0.26,0.043,0.546,0.303,0.639c0.262,0.093,0.546-0.043,0.639-0.303L10.567,9
			h2.867l0.596,1.668C14.103,10.873,14.295,11,14.5,11c0.056,0,0.112-0.009,0.167-0.029c0.26-0.093,0.396-0.379,0.303-0.639
			L12.47,3.332z M10.924,8L12,4.987L13.076,8H10.924z"/>
	</g>
</g>
</svg>
