<?xml version="1.0" encoding="iso-8859-1"?>
<!-- Generator: Adobe Illustrator 19.0.0, SVG Export Plug-In . SVG Version: 6.00 Build 0)  -->
<svg version="1.1" id="Layer_1" xmlns="http://www.w3.org/2000/svg" xmlns:xlink="http://www.w3.org/1999/xlink" x="0px" y="0px"
	 viewBox="0 0 24 24" style="enable-background:new 0 0 24 24;" xml:space="preserve">
<g>
	<g>
		<path d="M15.437,19.854l-1.501-0.375l-0.063-0.251c0.389-0.43,0.666-0.979,0.781-1.549c0.267-0.138,0.46-0.4,0.5-0.715l0.108-0.87
			c0.033-0.264-0.048-0.53-0.223-0.73c-0.054-0.061-0.116-0.115-0.182-0.16l0.025-0.531l0.091-0.091
			c0.258-0.274,0.607-0.859,0.055-1.703C14.766,12.478,14.226,12,13.144,12c-0.319,0-1.038,0-1.736,0.437
			c-2.058,0.073-2.3,1.182-2.3,2.019c0,0.165,0.03,0.474,0.058,0.732c-0.074,0.047-0.142,0.105-0.201,0.172
			c-0.178,0.202-0.26,0.469-0.226,0.734l0.108,0.87C8.888,17.29,9.095,17.56,9.4,17.693c0.112,0.545,0.374,1.073,0.739,1.492
			l-0.073,0.294l-1.501,0.375C7.35,20.158,6.5,21.246,6.5,22.5c0,0.133,0.052,0.261,0.146,0.354S6.867,23,7,23l10.002-0.001
			c0.276,0,0.5-0.224,0.5-0.5C17.502,21.245,16.653,20.158,15.437,19.854z M7.573,21.999c0.172-0.57,0.633-1.024,1.237-1.176
			l1.792-0.448c0.179-0.045,0.319-0.185,0.364-0.364l0.213-0.853c0.044-0.176-0.011-0.362-0.144-0.486
			c-0.389-0.366-0.647-0.901-0.689-1.431c-0.021-0.259-0.243-0.403-0.504-0.403l-0.129-0.796c0.144,0,0.28-0.061,0.375-0.169
			c0.095-0.107,0.139-0.25,0.121-0.393c-0.038-0.302-0.099-0.848-0.099-1.024c0-0.518,0-1.007,1.462-1.022
			c0.102-0.001,0.202-0.033,0.286-0.093C12.334,13,12.882,13,13.145,13c0.517,0,0.859,0.139,1.047,0.426
			c0.203,0.311,0.12,0.399,0.064,0.46l-0.217,0.217c-0.088,0.088-0.14,0.205-0.146,0.329L13.84,15.52
			c-0.006,0.136,0.01,0.231,0.103,0.33c0.094,0.099,0.19,0.119,0.326,0.12l-0.064,0.813c-0.261,0-0.477,0.2-0.498,0.46
			c-0.044,0.539-0.321,1.098-0.723,1.459c-0.137,0.123-0.196,0.313-0.151,0.493l0.204,0.817c0.045,0.179,0.184,0.32,0.364,0.364
			l1.792,0.448c0.602,0.151,1.062,0.605,1.234,1.176L7.573,21.999z M2.646,14.854C2.744,14.951,2.872,15,3,15
			s0.256-0.049,0.353-0.146l5-5c0.195-0.195,0.195-0.512,0-0.707c-0.195-0.195-0.512-0.195-0.707,0l-5,5
			C2.451,14.342,2.451,14.659,2.646,14.854z M21,1H3C1.621,1,0.5,2.122,0.5,3.5v11C0.5,15.878,1.621,17,3,17h4
			c0.276,0,0.5-0.224,0.5-0.5S7.276,16,7,16H3c-0.827,0-1.5-0.673-1.5-1.5v-11C1.5,2.673,2.173,2,3,2h18c0.827,0,1.5,0.673,1.5,1.5
			v11c0,0.827-0.673,1.5-1.5,1.5h-4c-0.276,0-0.5,0.224-0.5,0.5S16.724,17,17,17h4c1.379,0,2.5-1.122,2.5-2.5v-11
			C23.5,2.122,22.379,1,21,1z M15.646,9.147c-0.195,0.195-0.195,0.512,0,0.707l5,5C20.744,14.951,20.872,15,21,15
			s0.256-0.049,0.353-0.146c0.195-0.195,0.195-0.512,0-0.707l-5-5C16.158,8.952,15.841,8.952,15.646,9.147z M20.708,3.096
			l-7.77,5.611c-0.568,0.411-1.307,0.411-1.875,0l-7.77-5.611C3.07,2.934,2.757,2.983,2.595,3.208
			C2.433,3.432,2.483,3.744,2.707,3.906l7.77,5.611C10.933,9.846,11.466,10.01,12,10.01s1.067-0.165,1.524-0.493l7.77-5.611
			c0.223-0.161,0.274-0.474,0.112-0.698S20.932,2.934,20.708,3.096z"/>
	</g>
</g>
</svg>
