<?xml version="1.0" encoding="iso-8859-1"?>
<!-- Generator: Adobe Illustrator 19.0.0, SVG Export Plug-In . SVG Version: 6.00 Build 0)  -->
<svg version="1.1" id="Layer_1" xmlns="http://www.w3.org/2000/svg" xmlns:xlink="http://www.w3.org/1999/xlink" x="0px" y="0px"
	 viewBox="0 0 24 24" style="enable-background:new 0 0 24 24;" xml:space="preserve">
<g>
	<g>
		<path d="M0.526,13c0.276,0,0.5-0.224,0.5-0.501c0-4.136,3.364-7.5,7.5-7.5c4.057,0,5.477,2.294,6.62,4.138
			c0.672,1.085,1.252,2.023,2.226,2.338c0.269,0.086,0.545-0.059,0.63-0.321c0.085-0.263-0.058-0.545-0.321-0.63
			c-0.625-0.203-1.117-0.995-1.685-1.913C14.79,6.665,13.139,4,8.526,4c-4.687,0-8.5,3.813-8.5,8.5C0.026,12.776,0.25,13,0.526,13z
			 M0.766,5.928C1.001,6.069,1.307,5.996,1.453,5.76C1.888,5.044,4.029,3,8.026,3c3.843,0,6.579,1.947,7.072,2.76
			C15.193,5.914,15.357,6,15.526,6c0.089,0,0.178-0.023,0.26-0.072c0.235-0.144,0.311-0.452,0.168-0.688
			C15.266,4.11,12.237,2,8.025,2c-4.48,0-6.88,2.339-7.428,3.24C0.454,5.477,0.53,5.784,0.766,5.928z M1.026,16.5
			c0.075,0,0.151-0.017,0.223-0.053c0.247-0.124,0.347-0.424,0.224-0.671c-0.18-0.36-0.447-1.015-0.447-1.276
			c0-0.276-0.224-0.5-0.5-0.5s-0.5,0.224-0.5,0.5c0,0.588,0.461,1.539,0.553,1.724C0.667,16.398,0.842,16.5,1.026,16.5z
			 M3.237,14.022C2.832,12.61,3,11.124,3.711,9.839C4.422,8.553,5.592,7.62,7.004,7.214c2.877-0.817,5.914,0.836,6.781,3.688
			c0.012,0.039,0.029,0.076,0.05,0.111c0.062,0.104,0.117,0.194,1.894,1.664c0.212,0.176,0.526,0.147,0.704-0.067
			c0.176-0.213,0.146-0.527-0.067-0.704c-1.216-1.006-1.574-1.325-1.653-1.392c-1.063-3.312-4.622-5.222-7.982-4.262
			C5.06,6.733,3.678,7.834,2.837,9.354c-0.84,1.519-1.039,3.274-0.56,4.943c0.82,2.85-0.939,3.641-1.499,3.816
			c-0.264,0.083-0.41,0.363-0.328,0.627c0.068,0.214,0.265,0.351,0.478,0.351c0.049,0,0.1-0.007,0.148-0.021
			C2.605,18.591,4.089,16.983,3.237,14.022z M17.048,8.652C17.117,8.864,17.313,9,17.526,9c0.051,0,0.101-0.008,0.153-0.025
			c0.262-0.085,0.408-0.366,0.324-0.629c-0.266-0.83-1.019-2.057-1.051-2.109c-0.146-0.236-0.456-0.31-0.688-0.164
			c-0.235,0.145-0.309,0.453-0.164,0.688C16.107,6.773,16.82,7.938,17.048,8.652z M3.732,1.956C3.958,1.853,4.152,1.755,4.336,1.66
			C5.083,1.277,5.623,1,8.026,1c2.703,0,3.698,0.369,4.752,0.761c0.191,0.071,0.384,0.143,0.586,0.212
			C13.417,1.991,13.471,2,13.526,2c0.208,0,0.401-0.13,0.475-0.338c0.089-0.261-0.049-0.545-0.311-0.635
			c-0.195-0.067-0.378-0.136-0.563-0.204C12.036,0.419,10.909,0,8.026,0C5.383,0,4.721,0.34,3.88,0.771
			C3.711,0.857,3.533,0.949,3.322,1.044C3.07,1.157,2.958,1.453,3.07,1.705C3.182,1.957,3.479,2.069,3.732,1.956z M13.104,20.053
			c-2.559-2.072-5.275-4.539-6.021-7.137c-0.111-0.385-0.065-0.79,0.129-1.141c0.194-0.351,0.512-0.605,0.897-0.715
			c0.386-0.109,0.792-0.064,1.142,0.129c0.351,0.193,0.605,0.512,0.715,0.898c0.33,1.145,1.498,2.589,3.569,4.411
			c0.207,0.184,0.522,0.162,0.705-0.045c0.183-0.207,0.163-0.523-0.045-0.705c-2.363-2.08-3.082-3.29-3.269-3.938
			c-0.183-0.643-0.607-1.174-1.191-1.497c-0.584-0.322-1.256-0.398-1.901-0.215c-0.643,0.184-1.174,0.607-1.497,1.192
			c-0.323,0.584-0.4,1.258-0.215,1.9c0.824,2.865,3.673,5.468,6.353,7.638c0.092,0.075,0.204,0.111,0.314,0.111
			c0.146,0,0.29-0.063,0.389-0.183C13.352,20.541,13.319,20.227,13.104,20.053z M9.005,12.361c-0.077-0.266-0.349-0.42-0.619-0.342
			c-0.265,0.076-0.418,0.353-0.342,0.619c0.789,2.741,3.782,5.012,5.603,6.395l0.572-0.822C12.529,16.928,9.701,14.783,9.005,12.361
			z M21.909,20.853l-1.501-0.374l-0.063-0.252c0.389-0.43,0.666-0.979,0.781-1.549c0.267-0.138,0.461-0.401,0.5-0.716l0.108-0.868
			c0.033-0.263-0.048-0.53-0.223-0.73c-0.054-0.061-0.116-0.115-0.183-0.16l0.026-0.531l0.091-0.092
			c0.258-0.273,0.607-0.859,0.055-1.702C21.238,13.479,20.699,13,19.617,13c-0.319,0-1.038,0-1.736,0.439
			c-2.058,0.072-2.3,1.181-2.3,2.018c0,0.165,0.03,0.474,0.058,0.733c-0.074,0.047-0.142,0.105-0.201,0.172
			c-0.178,0.201-0.26,0.468-0.226,0.732l0.108,0.87c0.041,0.326,0.248,0.596,0.553,0.729c0.112,0.546,0.373,1.073,0.739,1.493
			l-0.073,0.294l-1.501,0.374c-1.215,0.304-2.065,1.392-2.065,2.646c0,0.133,0.052,0.261,0.146,0.354
			C13.213,23.947,13.339,24,13.472,24l10.002-0.001c0.276,0,0.5-0.224,0.5-0.5C23.974,22.246,23.125,21.158,21.909,20.853z
			 M14.045,22.999c0.172-0.57,0.633-1.024,1.236-1.175l1.792-0.447c0.179-0.045,0.319-0.184,0.364-0.364l0.213-0.853
			c0.044-0.175-0.011-0.361-0.144-0.485c-0.389-0.367-0.646-0.902-0.689-1.432c-0.021-0.26-0.243-0.403-0.504-0.403l-0.129-0.796
			c0.144,0,0.28-0.062,0.375-0.169c0.095-0.109,0.139-0.251,0.121-0.394c-0.038-0.302-0.099-0.849-0.099-1.025
			c0-0.517,0-1.006,1.462-1.021c0.102-0.001,0.202-0.033,0.286-0.094C18.805,14,19.354,14,19.617,14c0.768,0,0.977,0.32,1.048,0.426
			c0.203,0.312,0.12,0.4,0.064,0.46l-0.217,0.217c-0.088,0.088-0.14,0.205-0.146,0.329l-0.053,1.089
			c-0.006,0.136,0.01,0.231,0.103,0.33c0.094,0.099,0.19,0.118,0.326,0.12l-0.064,0.812c-0.261,0-0.477,0.2-0.498,0.46
			c-0.044,0.54-0.321,1.1-0.723,1.46c-0.137,0.123-0.196,0.313-0.151,0.493l0.204,0.817c0.045,0.179,0.184,0.319,0.364,0.364
			l1.792,0.447c0.602,0.151,1.062,0.605,1.234,1.176L14.045,22.999z M11.521,21.694C11.023,21.02,10.272,20,9.026,20
			c-1.697,0-1.963,2.89-1.999,3.469c-0.017,0.275,0.193,0.512,0.468,0.53C7.505,24,7.516,24,7.526,24
			c0.262,0,0.482-0.204,0.499-0.469C8.089,22.497,8.482,21,9.026,21c0.741,0,1.267,0.714,1.689,1.287
			c0.168,0.227,0.319,0.428,0.457,0.566c0.195,0.195,0.512,0.195,0.707,0c0.195-0.195,0.195-0.512,0-0.707
			C11.769,22.037,11.654,21.875,11.521,21.694z M7.001,17.347c-0.085-0.262-0.366-0.406-0.629-0.324
			c-0.262,0.084-0.408,0.366-0.324,0.629c0.427,1.338-0.413,3.962-1.678,4.372c-0.262,0.085-0.406,0.367-0.321,0.63
			C4.118,22.865,4.315,23,4.526,23c0.051,0,0.103-0.008,0.154-0.025C6.605,22.35,7.532,19.008,7.001,17.347z M5.169,13.497
			c-0.433-1.97,0.593-3.845,2.388-4.361c1.853-0.53,3.799,0.542,4.331,2.396c0.166,0.575,0.603,1.25,2.198,2.674
			c0.206,0.183,0.522,0.166,0.706-0.04s0.166-0.522-0.04-0.706c-1.512-1.35-1.811-1.888-1.903-2.204
			c-0.685-2.383-3.184-3.764-5.567-3.081c-2.31,0.663-3.638,3.043-3.089,5.537c1.01,4.598,0.256,5.663-1.817,6.31
			c-0.264,0.083-0.41,0.363-0.328,0.627C2.115,20.863,2.313,21,2.526,21c0.049,0,0.099-0.007,0.148-0.024
			C5.568,20.071,6.198,18.185,5.169,13.497z"/>
	</g>
</g>
</svg>
