<?xml version="1.0" encoding="iso-8859-1"?>
<!-- Generator: Adobe Illustrator 19.0.0, SVG Export Plug-In . SVG Version: 6.00 Build 0)  -->
<svg version="1.1" id="Layer_1" xmlns="http://www.w3.org/2000/svg" xmlns:xlink="http://www.w3.org/1999/xlink" x="0px" y="0px"
	 viewBox="0 0 24 24" style="enable-background:new 0 0 24 24;" xml:space="preserve">
<g>
	<g>
		<path d="M23.853,15.146l-2-2c-0.195-0.195-0.512-0.195-0.707,0l-8,8C13.053,21.24,13,21.367,13,21.5v2c0,0.276,0.224,0.5,0.5,0.5
			h2c0.133,0,0.26-0.053,0.353-0.147l5.997-5.997c0.001-0.001,0.002-0.001,0.003-0.002s0.001-0.002,0.002-0.003l1.998-1.998
			C24.048,15.658,24.048,15.341,23.853,15.146z M15.293,23H14v-1.293l5.5-5.5l1.293,1.293L15.293,23z M21.5,16.793L20.207,15.5
			l1.293-1.293l1.293,1.293L21.5,16.793z M11.586,6c1.378,0,2.5-1.122,2.5-2.5S12.964,1,11.586,1c-1.378,0-2.5,1.122-2.5,2.5
			S10.208,6,11.586,6z M11.586,2c0.827,0,1.5,0.673,1.5,1.5c0,0.827-0.673,1.5-1.5,1.5c-0.827,0-1.5-0.673-1.5-1.5
			C10.086,2.673,10.759,2,11.586,2z M11.5,22.001h-1.449l-0.36-5.037c-0.019-0.275-0.259-0.495-0.534-0.463
			c-0.275,0.019-0.483,0.259-0.463,0.534l0.393,5.501C9.106,22.797,9.324,23,9.586,23H11.5c0.276,0,0.5-0.223,0.5-0.499
			S11.776,22.001,11.5,22.001z M14.308,9.315l0.641,5.124c0.018,0.144-0.025,0.284-0.121,0.393
			c-0.097,0.109-0.229,0.169-0.375,0.169h-0.367c-0.263,0-0.48,0.202-0.499,0.464l-0.199,2.785c-0.02,0.275,0.188,0.514,0.463,0.534
			c0.012,0.001,0.024,0.001,0.036,0.001c0.26,0,0.48-0.202,0.496-0.463l0.167-2.324c0.394-0.026,0.763-0.206,1.026-0.504
			c0.285-0.323,0.417-0.752,0.364-1.179l-0.641-5.124c-0.155-1.249-1.222-2.19-2.48-2.19H10.35c-0.277,0-0.558,0.049-0.833,0.147
			C9.257,7.24,9.121,7.526,9.213,7.786c0.093,0.26,0.378,0.397,0.638,0.304c0.168-0.059,0.336-0.089,0.5-0.089h2.469
			C13.575,8.001,14.214,8.566,14.308,9.315z M4.5,5C5.878,5,7,3.878,7,2.5S5.878,0,4.5,0C3.122,0,2,1.122,2,2.5S3.122,5,4.5,5z
			 M4.5,1C5.327,1,6,1.673,6,2.5C6,3.327,5.327,4,4.5,4C3.673,4,3,3.327,3,2.5C3,1.673,3.673,1,4.5,1z M8.987,14.237L8.325,8.429
			C8.168,7.044,7.071,6,5.776,6H3.222C1.927,6,0.831,7.044,0.673,8.429l-0.662,5.808c-0.055,0.486,0.095,0.969,0.411,1.323
			c0.273,0.305,0.635,0.483,1.027,0.505l0.552,7.472C2.021,23.798,2.238,24,2.5,24h4c0.262,0,0.479-0.202,0.497-0.463l0.552-7.472
			c0.392-0.022,0.755-0.199,1.027-0.505C8.893,15.205,9.043,14.723,8.987,14.237z M7.831,14.894
			c-0.057,0.064-0.182,0.173-0.366,0.173H7.086c-0.262,0-0.48,0.202-0.499,0.463L6.035,23H2.964l-0.551-7.47
			c-0.02-0.261-0.237-0.463-0.499-0.463H1.535c-0.184,0-0.308-0.109-0.366-0.173c-0.127-0.143-0.187-0.341-0.164-0.544l0.662-5.808
			C1.767,7.663,2.436,7,3.223,7h2.554c0.786,0,1.455,0.663,1.556,1.542l0.662,5.808C8.018,14.553,7.958,14.751,7.831,14.894z"/>
	</g>
</g>
</svg>
