<?xml version="1.0" encoding="iso-8859-1"?>
<!-- Generator: Adobe Illustrator 19.0.0, SVG Export Plug-In . SVG Version: 6.00 Build 0)  -->
<svg version="1.1" id="Layer_1" xmlns="http://www.w3.org/2000/svg" xmlns:xlink="http://www.w3.org/1999/xlink" x="0px" y="0px"
	 viewBox="0 0 24 24" style="enable-background:new 0 0 24 24;" xml:space="preserve">
<g>
	<g>
		<path d="M23.837,11.63c0,0-1.411-1.281-1.906-1.686C21.576,9.653,21.163,9.5,20.74,9.5c-0.958,0-1.738,0.731-1.738,1.63
			c0,0.127,0.026,0.249,0.056,0.37H5.811L4.949,9.776C4.863,9.607,4.69,9.5,4.501,9.5h-4c-0.202,0-0.385,0.122-0.462,0.309
			c-0.078,0.187-0.035,0.402,0.108,0.545L1.793,12l-1.646,1.646c-0.143,0.143-0.186,0.358-0.108,0.545
			c0.077,0.187,0.26,0.309,0.462,0.309h4c0.189,0,0.362-0.107,0.447-0.276L5.81,12.5h13.247c-0.03,0.121-0.056,0.243-0.056,0.37
			c0,0.899,0.78,1.63,1.738,1.63c0.424,0,0.836-0.153,1.192-0.444c0.494-0.405,1.905-1.686,1.905-1.686
			C23.94,12.275,24,12.141,24,12S23.941,11.725,23.837,11.63z M5.31,8.691c0.128,0,0.256-0.049,0.354-0.146l5.229-5.229
			c0.41,0.48,0.925,0.977,1.463,1.496c1.24,1.195,2.646,2.55,2.646,3.688c0,0.563-0.054,1.003-0.166,1.345
			c-0.05,0.152-0.024,0.319,0.07,0.449S15.15,10.5,15.31,10.5h1.865c0.205,0,0.389-0.125,0.464-0.315
			C17.886,9.566,18.001,8.872,18.001,8c0-1.563-1.501-3.009-2.953-4.408C14.088,2.668,13.001,1.621,13.001,1
			c0-0.202-0.122-0.385-0.309-0.462c-0.187-0.078-0.401-0.035-0.545,0.108L10.583,2.21L4.956,7.837
			c-0.195,0.195-0.195,0.512,0,0.707C5.054,8.643,5.182,8.691,5.31,8.691z M17.175,13.5H15.31c-0.16,0-0.311,0.077-0.405,0.207
			c-0.094,0.13-0.12,0.297-0.07,0.449c0.112,0.341,0.166,0.781,0.166,1.344c0,1.138-1.405,2.493-2.646,3.688
			c-0.538,0.519-1.053,1.016-1.463,1.496l-5.229-5.229c-0.195-0.195-0.512-0.195-0.707,0s-0.195,0.512,0,0.707l7.191,7.191
			c0.096,0.096,0.224,0.147,0.354,0.147c0.064,0,0.129-0.012,0.191-0.038c0.187-0.077,0.309-0.26,0.309-0.462
			c0-0.621,1.087-1.668,2.047-2.592C16.5,19.01,18.001,17.563,18.001,16c0-0.872-0.115-1.566-0.362-2.185
			C17.563,13.625,17.379,13.5,17.175,13.5z"/>
	</g>
</g>
</svg>
