<?xml version="1.0" encoding="iso-8859-1"?>
<!-- Generator: Adobe Illustrator 19.0.0, SVG Export Plug-In . SVG Version: 6.00 Build 0)  -->
<svg version="1.1" id="Layer_1" xmlns="http://www.w3.org/2000/svg" xmlns:xlink="http://www.w3.org/1999/xlink" x="0px" y="0px"
	 viewBox="0 0 24 24" style="enable-background:new 0 0 24 24;" xml:space="preserve">
<g>
	<g>
		<path d="M11.63,15.336c-0.078-0.086-1.918-2.113-2.52-2.849C8.711,12,8.5,11.436,8.5,10.857c0-1.3,0.985-2.357,2.196-2.357
			c0.476,0,0.931,0.164,1.304,0.46c0.374-0.296,0.828-0.46,1.304-0.46c1.211,0,2.196,1.057,2.196,2.357
			c0,0.579-0.211,1.143-0.609,1.63c-0.603,0.736-2.442,2.763-2.521,2.849C12.275,15.44,12.141,15.5,12,15.5h10.382
			c-0.613-4.256-3.785-7.689-7.902-8.693C14.38,5.52,13.312,4.5,12,4.5S9.62,5.52,9.52,6.807c-4.116,1.004-7.287,4.437-7.9,8.693H12
			C11.859,15.5,11.725,15.44,11.63,15.336z M12,5.5c0.691,0,1.269,0.473,1.442,1.11C12.97,6.545,12.49,6.5,12,6.5
			s-0.97,0.045-1.442,0.11C10.731,5.973,11.309,5.5,12,5.5z M23,16.5H1c-0.276,0-0.5,0.224-0.5,0.5s0.224,0.5,0.5,0.5h0.144
			c0.465,1.193,1.609,2,2.917,2h15.878c1.308,0,2.452-0.807,2.917-2H23c0.276,0,0.5-0.224,0.5-0.5S23.276,16.5,23,16.5z"/>
	</g>
</g>
</svg>
