<?xml version="1.0" encoding="iso-8859-1"?>
<!-- Generator: Adobe Illustrator 19.0.0, SVG Export Plug-In . SVG Version: 6.00 Build 0)  -->
<svg version="1.1" id="Layer_1" xmlns="http://www.w3.org/2000/svg" xmlns:xlink="http://www.w3.org/1999/xlink" x="0px" y="0px"
	 viewBox="0 0 24 24" style="enable-background:new 0 0 24 24;" xml:space="preserve">
<g>
	<g>
		<path d="M19,17c1.654,0,3-1.346,3-3s-1.346-3-3-3c-0.618,0-1.193,0.188-1.671,0.51c-0.216-0.258-0.445-0.495-0.687-0.714
			C17.49,9.762,18,8.44,18,7c0-0.116-0.004-0.232-0.012-0.346C19.206,6.082,20,4.86,20,3.5C20,1.57,18.43,0,16.5,0
			c-1.055,0-2.038,0.472-2.7,1.28c-1.174-0.372-2.426-0.372-3.6,0C9.538,0.472,8.555,0,7.5,0C5.57,0,4,1.57,4,3.5
			c0,1.36,0.794,2.582,2.012,3.154C6.004,6.768,6,6.884,6,7c0,1.44,0.51,2.762,1.359,3.797c-0.243,0.218-0.471,0.456-0.687,0.714
			C6.193,11.188,5.618,11,5,11c-1.654,0-3,1.346-3,3s1.346,3,3,3c0.029,0,0.056-0.008,0.085-0.009
			c0.024,0.17,0.055,0.336,0.091,0.502c-0.141,0.082-0.276,0.174-0.392,0.29c-1.108,1.109-0.752,3.203,0.812,4.767
			C6.503,23.458,7.664,24,8.7,24c0.669,0,1.243-0.221,1.661-0.639c0.147-0.147,0.266-0.316,0.363-0.497
			C11.154,22.945,11.582,23,12,23c0.418,0,0.846-0.055,1.276-0.136c0.097,0.182,0.216,0.35,0.363,0.497
			C14.056,23.779,14.631,24,15.3,24c1.036,0,2.197-0.542,3.105-1.45c1.563-1.564,1.92-3.658,0.812-4.767
			c-0.116-0.116-0.251-0.208-0.392-0.29c0.036-0.165,0.067-0.332,0.091-0.502C18.944,16.992,18.971,17,19,17z M16.5,2
			C17.327,2,18,2.673,18,3.5C18,3.776,17.776,4,17.5,4S17,3.776,17,3.5S16.775,3,16.5,3C16.224,3,16,2.776,16,2.5S16.224,2,16.5,2z
			 M14,4.5c0.276,0,0.5,0.224,0.5,0.5S14.276,5.5,14,5.5S13.5,5.276,13.5,5S13.724,4.5,14,4.5z M10,4.5c0.276,0,0.5,0.224,0.5,0.5
			S10.276,5.5,10,5.5S9.5,5.276,9.5,5S9.724,4.5,10,4.5z M10,9.5c0.239,0,0.438,0.168,0.488,0.392C10.562,9.936,10.739,10,11,10
			c0.253,0,0.423-0.06,0.5-0.103v-0.69l-0.854-0.854c-0.143-0.143-0.186-0.358-0.108-0.545C10.616,7.621,10.798,7.5,11,7.5h2
			c0.202,0,0.385,0.122,0.462,0.309c0.077,0.187,0.034,0.402-0.108,0.545L12.5,9.207v0.69C12.577,9.94,12.747,10,13,10
			c0.261,0,0.438-0.064,0.512-0.108C13.562,9.668,13.761,9.5,14,9.5c0.276,0,0.5,0.224,0.5,0.5c0,0.58-0.631,1-1.5,1
			c-0.397,0-0.74-0.091-1-0.241C11.74,10.909,11.397,11,11,11c-0.869,0-1.5-0.42-1.5-1C9.5,9.724,9.724,9.5,10,9.5z M7,3.5
			C7,3.776,6.776,4,6.5,4S6,3.776,6,3.5C6,2.673,6.673,2,7.5,2C7.776,2,8,2.224,8,2.5S7.776,3,7.5,3C7.225,3,7,3.224,7,3.5z
			 M17.877,17.177c-0.874-0.105-1.903,0.232-2.794,0.884c-0.029,0.021-0.057,0.042-0.086,0.064c-0.19,0.144-0.375,0.298-0.547,0.471
			c-0.161,0.161-0.305,0.33-0.441,0.503c-0.036,0.046-0.071,0.092-0.105,0.139c-0.113,0.154-0.218,0.31-0.31,0.47
			c-0.015,0.026-0.034,0.052-0.049,0.079c-0.097,0.175-0.178,0.352-0.249,0.529c-0.027,0.067-0.051,0.134-0.074,0.201
			c-0.043,0.125-0.079,0.25-0.109,0.375c-0.013,0.053-0.035,0.105-0.046,0.157c-0.009,0.045-0.006,0.087-0.013,0.132
			c-0.021,0.132-0.034,0.263-0.039,0.393c-0.004,0.101-0.004,0.2,0.002,0.297c0.001,0.013-0.001,0.026,0,0.038
			c-0.688,0.123-1.346,0.123-2.033,0c0.001-0.012-0.001-0.025,0-0.038c0.006-0.098,0.006-0.196,0.002-0.298
			c-0.005-0.129-0.018-0.26-0.039-0.392c-0.007-0.045-0.004-0.087-0.013-0.132c-0.01-0.052-0.033-0.104-0.046-0.157
			c-0.03-0.125-0.066-0.25-0.109-0.376c-0.023-0.067-0.047-0.134-0.074-0.201c-0.072-0.178-0.152-0.355-0.25-0.529
			c-0.015-0.027-0.033-0.052-0.049-0.079c-0.093-0.16-0.197-0.316-0.311-0.47c-0.034-0.047-0.069-0.092-0.105-0.138
			c-0.136-0.173-0.28-0.343-0.441-0.504c-0.173-0.173-0.359-0.327-0.548-0.472c-0.028-0.021-0.055-0.042-0.083-0.062
			c-0.891-0.653-1.919-0.99-2.796-0.885c-0.024-0.123-0.045-0.247-0.062-0.372c0.017-0.006,0.032-0.016,0.049-0.023
			c0.063-0.025,0.121-0.056,0.181-0.085c0.098-0.047,0.194-0.098,0.286-0.155c0.063-0.039,0.123-0.079,0.183-0.123
			c0.084-0.061,0.162-0.128,0.239-0.197c0.054-0.048,0.109-0.093,0.159-0.145c0.111-0.115,0.213-0.238,0.305-0.369
			c0.039-0.056,0.069-0.117,0.104-0.176c0.055-0.091,0.107-0.183,0.152-0.28c0.031-0.067,0.057-0.135,0.083-0.204
			c0.039-0.105,0.072-0.211,0.1-0.321c0.016-0.062,0.033-0.123,0.044-0.186C7.978,14.363,8,14.184,8,14
			c0-0.189-0.022-0.375-0.056-0.557c-0.01-0.055-0.027-0.107-0.04-0.161c-0.031-0.125-0.067-0.247-0.114-0.366
			c-0.023-0.059-0.049-0.117-0.076-0.174c-0.049-0.105-0.105-0.206-0.166-0.305c-0.037-0.06-0.073-0.119-0.113-0.176
			c-0.017-0.024-0.03-0.051-0.048-0.074c0.204-0.249,0.422-0.477,0.653-0.682c0.014,0.013,0.031,0.021,0.046,0.034
			c0.234,0.202,0.484,0.385,0.748,0.549c0.054,0.034,0.109,0.067,0.164,0.1c0.256,0.149,0.522,0.279,0.8,0.389
			c0.063,0.025,0.126,0.047,0.189,0.069c0.284,0.102,0.577,0.186,0.879,0.244c0.047,0.009,0.094,0.014,0.142,0.022
			C11.331,12.965,11.661,13,12,13s0.669-0.035,0.993-0.089c0.047-0.008,0.095-0.013,0.142-0.022
			c0.302-0.058,0.595-0.142,0.879-0.244c0.063-0.023,0.126-0.044,0.189-0.069c0.278-0.11,0.544-0.24,0.8-0.389
			c0.056-0.032,0.11-0.066,0.164-0.1c0.263-0.165,0.513-0.347,0.747-0.549c0.014-0.013,0.031-0.021,0.046-0.034
			c0.231,0.206,0.449,0.434,0.653,0.682c-0.018,0.024-0.031,0.05-0.048,0.074c-0.041,0.057-0.077,0.116-0.113,0.176
			c-0.061,0.099-0.117,0.201-0.166,0.306c-0.027,0.057-0.052,0.114-0.075,0.174c-0.047,0.12-0.083,0.242-0.114,0.367
			c-0.013,0.054-0.03,0.106-0.04,0.161C16.022,13.625,16,13.811,16,14c0,0.184,0.022,0.363,0.055,0.539
			c0.012,0.064,0.029,0.124,0.044,0.186c0.028,0.109,0.06,0.216,0.1,0.32c0.026,0.069,0.052,0.137,0.083,0.204
			c0.045,0.097,0.098,0.19,0.153,0.281c0.035,0.059,0.065,0.12,0.104,0.176c0.091,0.131,0.194,0.254,0.305,0.369
			c0.05,0.052,0.106,0.097,0.159,0.146c0.077,0.069,0.155,0.135,0.238,0.197c0.06,0.044,0.12,0.084,0.183,0.123
			c0.092,0.057,0.188,0.108,0.286,0.155c0.06,0.029,0.118,0.06,0.181,0.085c0.016,0.007,0.031,0.017,0.048,0.024
			C17.922,16.93,17.902,17.055,17.877,17.177z M13.087,14c-0.395,0-0.771,0.128-1.087,0.362C11.685,14.128,11.308,14,10.913,14
			C9.858,14,9,14.918,9,16.048c0,0.501,0.183,0.989,0.527,1.411c0.503,0.614,2.037,2.305,2.103,2.377C11.725,19.94,11.859,20,12,20
			s0.275-0.06,0.37-0.164c0.065-0.072,1.6-1.763,2.103-2.377C14.817,17.037,15,16.549,15,16.048C15,14.918,14.142,14,13.087,14z"/>
	</g>
</g>
</svg>
