<?xml version="1.0" encoding="utf-8"?>
<!-- Generator: Adobe Illustrator 19.0.0, SVG Export Plug-In . SVG Version: 6.00 Build 0)  -->
<svg version="1.1" id="Layer_1" xmlns="http://www.w3.org/2000/svg" xmlns:xlink="http://www.w3.org/1999/xlink" x="0px" y="0px"
	 viewBox="0 0 30 30" style="enable-background:new 0 0 30 30;" xml:space="preserve">
<g>
	<path d="M16,23.5c0-3.4,2.3-6.4,5.6-7.3c0.2-0.1,0.4-0.3,0.4-0.5V0.5C22,0.2,21.8,0,21.5,0h-13c0,0,0,0-0.1,0c0,0,0,0-0.1,0
		C8.3,0,8.2,0.1,8.1,0.1l-8,8C0.1,8.2,0,8.3,0,8.4c0,0,0,0,0,0.1c0,0,0,0,0,0.1v18C0,26.8,0.2,27,0.5,27h15.6c0.2,0,0.3-0.1,0.4-0.2
		c0.1-0.1,0.1-0.3,0-0.5C16.2,25.4,16,24.5,16,23.5z M8,1.7V8H1.7L8,1.7z"/>
	<path d="M23.5,17c-3.6,0-6.5,2.9-6.5,6.5s2.9,6.5,6.5,6.5s6.5-2.9,6.5-6.5S27.1,17,23.5,17z M26.9,23.9l-3,3c0,0-0.1,0.1-0.2,0.1
		c-0.1,0.1-0.3,0.1-0.4,0c-0.1,0-0.1-0.1-0.2-0.1l-3-3c-0.2-0.2-0.2-0.5,0-0.7c0.1-0.1,0.2-0.1,0.4-0.1s0.3,0,0.4,0.1l2.1,2.1v-5.8
		c0-0.3,0.2-0.5,0.5-0.5s0.5,0.2,0.5,0.5v5.8l2.1-2.1c0.2-0.2,0.5-0.2,0.7,0S27,23.7,26.9,23.9z"/>
</g>
</svg>
