<?xml version="1.0" encoding="utf-8"?>
<!-- Generator: Adobe Illustrator 19.0.0, SVG Export Plug-In . SVG Version: 6.00 Build 0)  -->
<svg version="1.1" id="Layer_1" xmlns="http://www.w3.org/2000/svg" xmlns:xlink="http://www.w3.org/1999/xlink" x="0px" y="0px"
	 viewBox="0 0 30 30" style="enable-background:new 0 0 30 30;" xml:space="preserve">
<g>
	<path d="M27,25c-1,0-1.8,0.5-2.2,1.3l-6.4-3.2c0.1-0.2,0.1-0.4,0.1-0.6s0-0.4-0.1-0.6l6.4-3.2C25.2,19.5,26,20,27,20
		c1.4,0,2.5-1.1,2.5-2.5S28.4,15,27,15s-2.5,1.1-2.5,2.5c0,0.1,0,0.1,0,0.2L18,21c-0.5-0.6-1.2-1-2-1c-1.4,0-2.5,1.1-2.5,2.5
		S14.6,25,16,25c0.8,0,1.5-0.4,2-1l6.6,3.3c0,0.1,0,0.1,0,0.2c0,1.4,1.1,2.5,2.5,2.5s2.5-1.1,2.5-2.5S28.4,25,27,25z"/>
	<path d="M19.8,26.1l-1.3-0.7c-0.2-0.1-0.4-0.1-0.5,0C17.3,25.8,16.7,26,16,26c-1.9,0-3.5-1.6-3.5-3.5S14.1,19,16,19
		c0.7,0,1.3,0.2,1.9,0.6c0.1,0.1,0.3,0.1,0.5,0l3.8-1.9c0.2-0.1,0.3-0.3,0.3-0.4V0.5C22.5,0.2,22.3,0,22,0H9c0,0,0,0-0.1,0
		c0,0,0,0-0.1,0C8.8,0,8.7,0.1,8.6,0.1l-8,8C0.6,8.2,0.5,8.3,0.5,8.4c0,0,0,0,0,0.1s0,0,0,0.1v18C0.5,26.8,0.7,27,1,27h15h3.5
		c0.2,0,0.4-0.2,0.5-0.4C20.1,26.4,20,26.2,19.8,26.1z M8.5,1.7V8H2.2L8.5,1.7z"/>
</g>
</svg>
