<?xml version="1.0" encoding="utf-8"?>
<!-- Generator: Adobe Illustrator 19.0.0, SVG Export Plug-In . SVG Version: 6.00 Build 0)  -->
<svg version="1.1" id="Layer_1" xmlns="http://www.w3.org/2000/svg" xmlns:xlink="http://www.w3.org/1999/xlink" x="0px" y="0px"
	 viewBox="0 0 30 30" style="enable-background:new 0 0 30 30;" xml:space="preserve">
<g>
	<path d="M16,21.5v-21C16,0.2,15.8,0,15.5,0h-7c0,0,0,0-0.1,0c0,0,0,0-0.1,0C8.3,0,8.2,0.1,8.1,0.1l-8,8C0.1,8.2,0,8.3,0,8.4
		c0,0,0,0,0,0.1c0,0,0,0,0,0.1v13C0,21.8,0.2,22,0.5,22h15C15.8,22,16,21.8,16,21.5z M8,8H1.7L8,1.7V8z"/>
	<path d="M30,20.4C30,20.4,30,20.4,30,20.4c0-0.2-0.1-0.2-0.1-0.3l-6-6c-0.1-0.1-0.1-0.1-0.2-0.1c0,0,0,0-0.1,0c0,0,0,0-0.1,0h-6
		c-0.3,0-0.5,0.2-0.5,0.5v7c0,0.8-0.7,1.5-1.5,1.5h-8C7.2,23,7,23.2,7,23.5v6C7,29.8,7.2,30,7.5,30h22c0.3,0,0.5-0.2,0.5-0.5
		L30,20.4C30,20.5,30,20.5,30,20.4z M24,20v-4.3l4.3,4.3H24z"/>
	<path d="M18,4.7c0,0.1,0.1,0.1,0.1,0.2l2,2C20.2,7,20.4,7,20.5,7s0.3,0,0.4-0.1c0.2-0.2,0.2-0.5,0-0.7L19.7,5H23c1.1,0,2,0.9,2,2
		v3.3l-1.1-1.1c-0.2-0.2-0.5-0.2-0.7,0s-0.2,0.5,0,0.7l2,2c0,0,0.1,0.1,0.2,0.1c0,0,0,0,0,0h0c0.1,0,0.1,0,0.2,0c0.1,0,0.1,0,0.2,0
		c0.1,0,0.1-0.1,0.2-0.1l2-2c0.2-0.2,0.2-0.5,0-0.7s-0.5-0.2-0.7,0L26,10.3V7c0-1.7-1.3-3-3-3h-3.3l1.1-1.1c0.2-0.2,0.2-0.5,0-0.7
		s-0.5-0.2-0.7,0l-2,2c0,0-0.1,0.1-0.1,0.2C18,4.4,18,4.6,18,4.7z"/>
</g>
</svg>
