<?xml version="1.0" encoding="iso-8859-1"?>
<!-- Generator: Adobe Illustrator 19.0.0, SVG Export Plug-In . SVG Version: 6.00 Build 0)  -->
<svg version="1.1" id="Layer_1" xmlns="http://www.w3.org/2000/svg" xmlns:xlink="http://www.w3.org/1999/xlink" x="0px" y="0px"
	 viewBox="0 0 30 30" style="enable-background:new 0 0 30 30;" xml:space="preserve">
<g>
	<g>
		<path d="M29.854,14.147L26,10.293V0.5C26,0.224,25.776,0,25.5,0h-5C20.224,0,20,0.224,20,0.5v3.768l-3.572-3.677
			c-0.762-0.761-2.09-0.764-2.859,0.002L0.144,14.148c-0.141,0.143-0.183,0.358-0.106,0.544C0.116,14.879,0.298,15,0.5,15H4v14.5
			C4,29.776,4.224,30,4.5,30h21c0.276,0,0.5-0.224,0.5-0.5V15h3.5c0.202,0,0.384-0.121,0.462-0.308
			C30.04,14.505,29.997,14.29,29.854,14.147z M25.5,14c-0.276,0-0.5,0.224-0.5,0.5V29H5V14.5C5,14.224,4.776,14,4.5,14H1.699
			L14.278,1.299c0.384-0.384,1.063-0.381,1.438-0.006l4.425,4.555c0.142,0.146,0.359,0.191,0.546,0.115
			C20.877,5.887,21,5.704,21,5.5V1h4v9.5c0,0.133,0.053,0.26,0.147,0.354L28.293,14H25.5z M16.957,14
			c-0.724,0-1.412,0.275-1.956,0.769C14.457,14.275,13.769,14,13.045,14c-1.679,0-3.044,1.474-3.044,3.286
			c0,0.81,0.296,1.6,0.858,2.286c0.898,1.099,3.654,4.136,3.771,4.264C14.725,23.94,14.859,24,15,24s0.275-0.06,0.372-0.163
			c0.117-0.129,2.873-3.165,3.771-4.264c0.561-0.686,0.858-1.477,0.858-2.287C20.001,15.474,18.636,14,16.957,14z M18.368,18.939
			c-0.69,0.843-2.567,2.929-3.368,3.816c-0.801-0.886-2.678-2.973-3.368-3.816C11.344,18.587,11,18.014,11,17.286
			C11,16.025,11.917,15,13.044,15c0.6,0,1.168,0.295,1.557,0.809c0.19,0.249,0.608,0.249,0.797,0C15.788,15.295,16.356,15,16.956,15
			C18.083,15,19,16.026,19,17.286C19,18.014,18.656,18.586,18.368,18.939z"/>
	</g>
</g>
</svg>
