<?xml version="1.0" encoding="iso-8859-1"?>
<!-- Generator: Adobe Illustrator 19.0.0, SVG Export Plug-In . SVG Version: 6.00 Build 0)  -->
<svg version="1.1" id="Layer_1" xmlns="http://www.w3.org/2000/svg" xmlns:xlink="http://www.w3.org/1999/xlink" x="0px" y="0px"
	 viewBox="0 0 30 30" style="enable-background:new 0 0 30 30;" xml:space="preserve">
<g>
	<g>
		<path d="M21,3c-0.27,0-0.538,0.028-0.804,0.067c-0.969-1.459-2.663-3.068-5.446-3.068c-1.803,0-3.137,0.645-4.123,1.485
			C9.808,1.177,8.925,1,8,1C3.864,1,0.5,4.365,0.5,8.5c0,2.872,1.624,5.369,4,6.628V18c0,0.133,0.053,0.26,0.146,0.357l1.146,1.146
			l-1.146,1.146c-0.195,0.195-0.195,0.512,0,0.707l1.146,1.146l-1.146,1.146c-0.195,0.195-0.195,0.512,0,0.707l1.146,1.146
			l-1.146,1.146c-0.195,0.195-0.195,0.512,0,0.707l2.5,2.5C7.24,29.948,7.367,30,7.5,30H9c0.079,0,0.151-0.022,0.217-0.054
			c0.02-0.01,0.035-0.024,0.053-0.036c0.045-0.03,0.084-0.065,0.118-0.107c0.008-0.01,0.021-0.015,0.028-0.026l2-3
			c0.055-0.082,0.084-0.178,0.084-0.277V15.129c0.378-0.2,0.733-0.435,1.069-0.694C12.526,14.963,12.5,15.487,12.5,16
			c0,7.168,3.813,13,8.5,13s8.5-5.832,8.5-13C29.5,8.832,25.687,3,21,3z M21,6c0.276,0,0.5,0.224,0.5,0.5S21.276,7,21,7
			s-0.5-0.224-0.5-0.5S20.724,6,21,6z M14.75,0.999c2.179,0,3.57,1.149,4.421,2.304c-1.477,0.495-2.842,1.589-3.956,3.173
			c-0.544-1.937-1.843-3.559-3.564-4.523C12.443,1.397,13.453,0.999,14.75,0.999z M8.5,29H7.707l-2-2l1.146-1.147
			c0.195-0.195,0.195-0.512,0-0.707L5.707,24l1.146-1.147c0.195-0.195,0.195-0.512,0-0.707L5.707,21l1.147-1.146
			c0.195-0.195,0.195-0.512,0-0.707L5.5,17.793v-2.23C6.283,15.841,7.122,16,8,16c0.169,0,0.334-0.014,0.5-0.025V29z M10.5,26.349
			l-1,1.499v-12c0.344-0.07,0.675-0.171,1-0.286V26.349z M8,15c-3.584,0-6.5-2.916-6.5-6.5S4.416,2,8,2
			c0.638,0,1.253,0.096,1.836,0.268c-0.532,0.624-0.915,1.279-1.179,1.83C8.446,4.041,8.229,4,8,4C6.622,4,5.5,5.122,5.5,6.5
			S6.622,9,8,9s2.5-1.122,2.5-2.5c0-0.793-0.379-1.493-0.957-1.952c0.267-0.566,0.685-1.262,1.288-1.89
			C12.999,3.714,14.5,5.932,14.5,8.5C14.5,12.084,11.584,15,8,15z M8.519,6.029c0.039,0.01,0.079,0.014,0.118,0.014
			c0.225,0,0.43-0.153,0.486-0.383c0.001-0.004,0.013-0.047,0.03-0.107C9.367,5.812,9.5,6.14,9.5,6.5C9.5,7.327,8.827,8,8,8
			C7.173,8,6.5,7.327,6.5,6.5C6.5,5.673,7.173,5,8,5c0.094,0,0.185,0.011,0.275,0.028C8.194,5.263,8.153,5.417,8.151,5.425
			C8.086,5.694,8.25,5.964,8.519,6.029z M21,28c-4.136,0-7.5-5.383-7.5-12c0-0.856,0.069-1.741,0.195-2.632
			c1.123-1.311,1.805-3.01,1.805-4.868c0-0.189-0.015-0.374-0.028-0.559c1.137-1.991,2.641-3.294,4.261-3.749
			c0.223,0.413,0.376,0.778,0.471,1.041C19.783,5.5,19.5,5.966,19.5,6.5C19.5,7.327,20.173,8,21,8c0.827,0,1.5-0.673,1.5-1.5
			c0-0.764-0.577-1.39-1.316-1.481c-0.088-0.244-0.227-0.589-0.432-0.997C20.834,4.018,20.917,4,21,4c4.136,0,7.5,5.383,7.5,12
			S25.136,28,21,28z M23.174,12C22.366,12,21.6,12.313,21,12.874C20.4,12.313,19.634,12,18.826,12c-1.834,0-3.326,1.613-3.326,3.595
			c0,0.888,0.325,1.755,0.941,2.506c0.999,1.219,4.059,4.592,4.189,4.735C20.725,22.94,20.859,23,21,23s0.275-0.06,0.37-0.165
			c0.13-0.143,3.19-3.515,4.189-4.735c0.616-0.751,0.941-1.617,0.941-2.505C26.5,13.613,25.008,12,23.174,12z M24.786,17.467
			c-0.78,0.953-2.921,3.33-3.786,4.288c-0.866-0.957-3.006-3.335-3.786-4.288c-0.325-0.398-0.714-1.046-0.714-1.872
			c0-1.431,1.043-2.595,2.326-2.595c0.685,0,1.332,0.335,1.776,0.92c0.19,0.249,0.608,0.249,0.797,0
			c0.443-0.585,1.09-0.92,1.775-0.92c1.283,0,2.326,1.164,2.326,2.595C25.5,16.422,25.111,17.069,24.786,17.467z"/>
	</g>
</g>
</svg>
