<?xml version="1.0" encoding="iso-8859-1"?>
<!-- Generator: Adobe Illustrator 19.0.0, SVG Export Plug-In . SVG Version: 6.00 Build 0)  -->
<svg version="1.1" id="Layer_1" xmlns="http://www.w3.org/2000/svg" xmlns:xlink="http://www.w3.org/1999/xlink" x="0px" y="0px"
	 viewBox="0 0 30 30" style="enable-background:new 0 0 30 30;" xml:space="preserve">
<g>
	<g>
		<path d="M9,20H1.5v-7.5C1.5,12.224,1.276,12,1,12s-0.5,0.224-0.5,0.5v15C0.5,27.776,0.724,28,1,28s0.5-0.224,0.5-0.5V21h7v6.5
			C8.5,27.776,8.724,28,9,28s0.5-0.224,0.5-0.5v-7C9.5,20.224,9.276,20,9,20z M19,27h-1.5v-9h4c1.103,0,2-0.897,2-2
			c0-1.103-0.897-2-2-2h-1v-1.092c0.581-0.207,1-0.757,1-1.408v-1c0-0.276-0.224-0.5-0.5-0.5h-2c-0.276,0-0.5,0.224-0.5,0.5v1
			c0,0.651,0.419,1.201,1,1.408V14h-3V7.554c0-0.741-0.089-1.473-0.265-2.176C16.079,4.756,16,4.106,16,3.446V2.5
			C16,2.224,15.776,2,15.5,2h-1C14.224,2,14,2.224,14,2.5v0.946c0,0.66-0.079,1.31-0.235,1.932v0.001
			C13.589,6.08,13.5,6.812,13.5,7.554V14h-3v-1.092c0.581-0.207,1-0.757,1-1.408v-1c0-0.276-0.224-0.5-0.5-0.5H9
			c-0.276,0-0.5,0.224-0.5,0.5v1c0,0.651,0.419,1.201,1,1.408V14h-1c-1.103,0-2,0.897-2,2c0,1.103,0.897,2,2,2h4v9H11
			c-0.276,0-0.5,0.224-0.5,0.5S10.724,28,11,28h8c0.276,0,0.5-0.224,0.5-0.5S19.276,27,19,27z M19.5,11h1v0.5
			c0,0.276-0.225,0.5-0.5,0.5c-0.275,0-0.5-0.224-0.5-0.5V11z M14.5,7.554c0-0.66,0.079-1.31,0.235-1.933
			C14.911,4.92,15,4.188,15,3.446c0,0.741,0.089,1.473,0.265,2.176C15.421,6.244,15.5,6.894,15.5,7.554V14h-1V7.554z M9.5,11h1v0.5
			c0,0.276-0.225,0.5-0.5,0.5c-0.275,0-0.5-0.224-0.5-0.5V11z M16.5,17.5V27h-3v-9.5c0-0.276-0.224-0.5-0.5-0.5H8.5
			c-0.552,0-1-0.449-1-1s0.448-1,1-1h13c0.552,0,1,0.449,1,1s-0.448,1-1,1H17C16.724,17,16.5,17.224,16.5,17.5z M29,12
			c-0.276,0-0.5,0.224-0.5,0.5V20H21c-0.276,0-0.5,0.224-0.5,0.5v7c0,0.276,0.224,0.5,0.5,0.5s0.5-0.224,0.5-0.5V21h7v6.5
			c0,0.276,0.224,0.5,0.5,0.5s0.5-0.224,0.5-0.5v-15C29.5,12.224,29.276,12,29,12z"/>
	</g>
</g>
</svg>
