<?xml version="1.0" encoding="iso-8859-1"?>
<!-- Generator: Adobe Illustrator 19.0.0, SVG Export Plug-In . SVG Version: 6.00 Build 0)  -->
<svg version="1.1" id="Layer_1" xmlns="http://www.w3.org/2000/svg" xmlns:xlink="http://www.w3.org/1999/xlink" x="0px" y="0px"
	 viewBox="0 0 30 30" style="enable-background:new 0 0 30 30;" xml:space="preserve">
<g>
	<g>
		<path d="M29.853,29.147L19.111,18.405C20.899,16.448,22,13.853,22,11c0-6.065-4.935-11-11-11S0,4.935,0,11s4.935,11,11,11
			c2.853,0,5.447-1.101,7.404-2.888l10.742,10.742C29.244,29.951,29.372,30,29.5,30s0.256-0.049,0.353-0.146
			C30.048,29.659,30.048,29.342,29.853,29.147z M11,21C5.486,21,1,16.514,1,11S5.486,1,11,1c5.514,0,10,4.486,10,10S16.514,21,11,21
			z M12.958,5.999c-0.725,0-1.413,0.275-1.957,0.769c-0.544-0.494-1.233-0.769-1.957-0.769c-1.678,0-3.043,1.474-3.043,3.286
			c0,0.81,0.296,1.601,0.858,2.287c0.899,1.099,3.654,4.136,3.771,4.264C10.725,15.94,10.859,16,11,16s0.275-0.06,0.372-0.164
			c0.117-0.129,2.872-3.165,3.771-4.264c0.561-0.686,0.858-1.477,0.858-2.287C16.001,7.473,14.636,5.999,12.958,5.999z
			 M14.368,10.939c-0.69,0.843-2.567,2.929-3.368,3.816c-0.801-0.886-2.678-2.973-3.368-3.816C7.344,10.587,7,10.014,7,9.286
			C7,8.025,7.916,7,9.043,7c0.601,0,1.168,0.295,1.559,0.809c0.19,0.249,0.608,0.249,0.797,0C11.789,7.295,12.357,7,12.957,7
			C14.083,7,15,8.026,15,9.286C15,10.014,14.656,10.587,14.368,10.939z"/>
	</g>
</g>
</svg>
