<?xml version="1.0" encoding="utf-8"?>
<!-- Generator: Adobe Illustrator 19.0.0, SVG Export Plug-In . SVG Version: 6.00 Build 0)  -->
<svg version="1.1" id="Layer_1" xmlns="http://www.w3.org/2000/svg" xmlns:xlink="http://www.w3.org/1999/xlink" x="0px" y="0px"
	 viewBox="0 0 30 30" style="enable-background:new 0 0 30 30;" xml:space="preserve">
<g>
	<path d="M7,12c-1.1,0-2,0.8-2,1.8v2.5c0,1,0.9,1.8,2,1.8s2-0.8,2-1.8v-2.5C9,12.8,8.1,12,7,12z M8,16.3C8,16.7,7.5,17,7,17
		s-1-0.3-1-0.8v-2.5C6,13.3,6.5,13,7,13s1,0.3,1,0.8V16.3z"/>
	<path d="M13.5,12c-0.3,0-0.5,0.2-0.5,0.5v3.2l-2.1-3.5c-0.1-0.2-0.3-0.3-0.6-0.2c-0.2,0.1-0.4,0.3-0.4,0.5v5c0,0.3,0.2,0.5,0.5,0.5
		s0.5-0.2,0.5-0.5v-3.2l2.1,3.5c0.1,0.2,0.3,0.2,0.4,0.2c0,0,0.1,0,0.1,0c0.2-0.1,0.4-0.3,0.4-0.5v-5C14,12.2,13.8,12,13.5,12z"/>
	<path d="M22,10c-2.8,0-5,2.2-5,5s2.2,5,5,5s5-2.2,5-5S24.8,10,22,10z"/>
	<path d="M21.9,7H8.1C3.6,7,0,10.6,0,15s3.6,8,8.1,8h13.9c4.4,0,8.1-3.6,8.1-8S26.4,7,21.9,7z M21.9,22H8.1C4.2,22,1,18.9,1,15
		s3.2-7,7.1-7h13.9c3.9,0,7.1,3.1,7.1,7S25.8,22,21.9,22z"/>
</g>
</svg>
