<?xml version="1.0" encoding="iso-8859-1"?>
<!-- Generator: Adobe Illustrator 19.0.0, SVG Export Plug-In . SVG Version: 6.00 Build 0)  -->
<svg version="1.1" id="Layer_1" xmlns="http://www.w3.org/2000/svg" xmlns:xlink="http://www.w3.org/1999/xlink" x="0px" y="0px"
	 viewBox="0 0 24 24" style="enable-background:new 0 0 24 24;" xml:space="preserve">
<g>
	<g>
		<path d="M22.5,21h-21C0.673,21,0,20.327,0,19.5v-13C0,5.673,0.673,5,1.5,5h4c0.189,0,0.362,0.107,0.447,0.276L6.309,6h11.383
			l0.361-0.724C18.138,5.107,18.311,5,18.5,5h4C23.327,5,24,5.673,24,6.5v13C24,20.327,23.327,21,22.5,21z M1.5,6
			C1.225,6,1,6.224,1,6.5v13C1,19.776,1.225,20,1.5,20h21c0.275,0,0.5-0.224,0.5-0.5v-13C23,6.224,22.775,6,22.5,6h-3.691
			l-0.361,0.724C18.362,6.893,18.189,7,18,7H6C5.811,7,5.638,6.893,5.553,6.724L5.191,6H1.5z"/>
	</g>
	<g>
		<path d="M15.5,7C15.224,7,15,6.776,15,6.5v-1C15,5.224,14.775,5,14.5,5h-5C9.225,5,9,5.224,9,5.5v1C9,6.776,8.776,7,8.5,7
			S8,6.776,8,6.5v-1C8,4.673,8.673,4,9.5,4h5C15.327,4,16,4.673,16,5.5v1C16,6.776,15.776,7,15.5,7z"/>
	</g>
	<g>
		<path d="M4.5,6C4.224,6,4,5.776,4,5.5V4H3v1.5C3,5.776,2.776,6,2.5,6S2,5.776,2,5.5v-2C2,3.224,2.224,3,2.5,3h2
			C4.776,3,5,3.224,5,3.5v2C5,5.776,4.776,6,4.5,6z"/>
	</g>
	<g>
		<path d="M21.5,6C21.224,6,21,5.776,21,5.5V4h-1v1.5C20,5.776,19.776,6,19.5,6S19,5.776,19,5.5v-2C19,3.224,19.224,3,19.5,3h2
			C21.776,3,22,3.224,22,3.5v2C22,5.776,21.776,6,21.5,6z"/>
	</g>
	<g>
		<path d="M7.5,14h-4C3.224,14,3,13.776,3,13.5S3.224,13,3.5,13h4C7.776,13,8,13.224,8,13.5S7.776,14,7.5,14z"/>
	</g>
	<g>
		<path d="M5.5,16C5.224,16,5,15.776,5,15.5v-4C5,11.224,5.224,11,5.5,11S6,11.224,6,11.5v4C6,15.776,5.776,16,5.5,16z"/>
	</g>
	<g>
		<path d="M20.5,14h-4c-0.276,0-0.5-0.224-0.5-0.5s0.224-0.5,0.5-0.5h4c0.276,0,0.5,0.224,0.5,0.5S20.776,14,20.5,14z"/>
	</g>
</g>
<g>
</g>
<g>
</g>
<g>
</g>
<g>
</g>
<g>
</g>
<g>
</g>
<g>
</g>
<g>
</g>
<g>
</g>
<g>
</g>
<g>
</g>
<g>
</g>
<g>
</g>
<g>
</g>
<g>
</g>
</svg>
