<?xml version="1.0" encoding="iso-8859-1"?>
<!-- Generator: Adobe Illustrator 19.0.0, SVG Export Plug-In . SVG Version: 6.00 Build 0)  -->
<svg version="1.1" id="Layer_1" xmlns="http://www.w3.org/2000/svg" xmlns:xlink="http://www.w3.org/1999/xlink" x="0px" y="0px"
	 viewBox="0 0 24 24" style="enable-background:new 0 0 24 24;" xml:space="preserve">
<g>
	<g>
		<path d="M5,18.5c-1.654,0-3-1.346-3-3s1.346-3,3-3s3,1.346,3,3S6.654,18.5,5,18.5z M5,13.5c-1.103,0-2,0.897-2,2s0.897,2,2,2
			s2-0.897,2-2S6.103,13.5,5,13.5z"/>
	</g>
	<g>
		<path d="M19,18.5c-1.654,0-3-1.346-3-3s1.346-3,3-3s3,1.346,3,3S20.654,18.5,19,18.5z M19,13.5c-1.103,0-2,0.897-2,2s0.897,2,2,2
			s2-0.897,2-2S20.103,13.5,19,13.5z"/>
	</g>
	<g>
		<path d="M21.5,16.5c-0.276,0-0.5-0.224-0.5-0.5s0.224-0.5,0.5-0.5c0.725,0,1.5-0.394,1.5-1.5v-2c0-0.827-0.673-1.5-1.5-1.5h-1.757
			c-0.935,0-1.814-0.364-2.475-1.025l-2.242-2.242C14.553,6.76,13.925,6.5,13.257,6.5H7.5C7.224,6.5,7,6.724,7,7v3
			c0,0.276-0.224,0.5-0.5,0.5H1v4.389C1.094,15.045,1.456,15.5,2.5,15.5C2.776,15.5,3,15.724,3,16s-0.224,0.5-0.5,0.5
			c-1.99,0-2.454-1.283-2.473-1.337C0.009,15.11,0,15.055,0,15v-5c0-0.276,0.224-0.5,0.5-0.5H6V7c0-0.827,0.673-1.5,1.5-1.5h5.757
			c0.935,0,1.814,0.364,2.475,1.025l2.242,2.242c0.472,0.472,1.1,0.732,1.768,0.732H21.5c1.378,0,2.5,1.122,2.5,2.5v2
			C24,15.472,22.972,16.5,21.5,16.5z"/>
	</g>
	<g>
		<path d="M16.5,16.5h-9C7.224,16.5,7,16.276,7,16s0.224-0.5,0.5-0.5h9c0.276,0,0.5,0.224,0.5,0.5S16.776,16.5,16.5,16.5z"/>
	</g>
	<g>
		<path d="M12.5,12.5h-1c-0.276,0-0.5-0.224-0.5-0.5s0.224-0.5,0.5-0.5h1c0.276,0,0.5,0.224,0.5,0.5S12.776,12.5,12.5,12.5z"/>
	</g>
	<g>
		<path d="M15.5,10.5h-4c-0.276,0-0.5-0.224-0.5-0.5V8c0-0.276,0.224-0.5,0.5-0.5S12,7.724,12,8v1.5h3.5c0.276,0,0.5,0.224,0.5,0.5
			S15.776,10.5,15.5,10.5z"/>
	</g>
</g>
<g>
</g>
<g>
</g>
<g>
</g>
<g>
</g>
<g>
</g>
<g>
</g>
<g>
</g>
<g>
</g>
<g>
</g>
<g>
</g>
<g>
</g>
<g>
</g>
<g>
</g>
<g>
</g>
<g>
</g>
</svg>
