<?xml version="1.0" encoding="iso-8859-1"?>
<!-- Generator: Adobe Illustrator 19.0.0, SVG Export Plug-In . SVG Version: 6.00 Build 0)  -->
<svg version="1.1" id="Layer_1" xmlns="http://www.w3.org/2000/svg" xmlns:xlink="http://www.w3.org/1999/xlink" x="0px" y="0px"
	 viewBox="0 0 24 24" style="enable-background:new 0 0 24 24;" xml:space="preserve">
<g>
	<g>
		<g>
			<path d="M8,17c-0.827,0-1.5-0.673-1.5-1.5S7.173,14,8,14s1.5,0.673,1.5,1.5S8.827,17,8,17z M8,15c-0.275,0-0.5,0.224-0.5,0.5
				S7.725,16,8,16s0.5-0.224,0.5-0.5S8.275,15,8,15z"/>
		</g>
		<g>
			<path d="M16,17c-0.827,0-1.5-0.673-1.5-1.5S15.173,14,16,14s1.5,0.673,1.5,1.5S16.827,17,16,17z M16,15
				c-0.275,0-0.5,0.224-0.5,0.5S15.725,16,16,16s0.5-0.224,0.5-0.5S16.275,15,16,15z"/>
		</g>
		<g>
			<path d="M13,15h-2c-0.276,0-0.5-0.224-0.5-0.5S10.724,14,11,14h2c0.276,0,0.5,0.224,0.5,0.5S13.276,15,13,15z"/>
		</g>
		<g>
			<path d="M13,17h-2c-0.276,0-0.5-0.224-0.5-0.5S10.724,16,11,16h2c0.276,0,0.5,0.224,0.5,0.5S13.276,17,13,17z"/>
		</g>
		<g>
			<path d="M6,23H4c-0.827,0-1.5-0.673-1.5-1.5v-1C2.5,20.224,2.724,20,3,20s0.5,0.224,0.5,0.5v1C3.5,21.776,3.725,22,4,22h2
				c0.275,0,0.5-0.224,0.5-0.5v-1C6.5,20.224,6.724,20,7,20s0.5,0.224,0.5,0.5v1C7.5,22.327,6.827,23,6,23z"/>
		</g>
		<g>
			<path d="M20,23h-2c-0.827,0-1.5-0.673-1.5-1.5v-1c0-0.276,0.224-0.5,0.5-0.5s0.5,0.224,0.5,0.5v1c0,0.276,0.225,0.5,0.5,0.5h2
				c0.275,0,0.5-0.224,0.5-0.5v-1c0-0.276,0.224-0.5,0.5-0.5s0.5,0.224,0.5,0.5v1C21.5,22.327,20.827,23,20,23z"/>
		</g>
	</g>
	<g>
		<path d="M19,19c-0.276,0-0.5-0.224-0.5-0.5v-4c0-0.827-0.673-1.5-1.5-1.5H7c-0.827,0-1.5,0.673-1.5,1.5v4
			C5.5,18.776,5.276,19,5,19s-0.5-0.224-0.5-0.5v-4C4.5,13.122,5.621,12,7,12h10c1.379,0,2.5,1.122,2.5,2.5v4
			C19.5,18.776,19.276,19,19,19z"/>
	</g>
	<g>
		<path d="M22,21H2c-0.276,0-0.5-0.224-0.5-0.5v-2C1.5,18.224,1.724,18,2,18h7c0.133,0,0.26,0.053,0.354,0.146L10.207,19h3.586
			l0.854-0.854C14.74,18.053,14.867,18,15,18h7c0.276,0,0.5,0.224,0.5,0.5v2C22.5,20.776,22.276,21,22,21z M14,20h7.5v-1h-6.293
			l-0.854,0.854C14.26,19.947,14.133,20,14,20z M2.5,20H10c-0.133,0-0.26-0.053-0.354-0.146L8.793,19H2.5V20z"/>
	</g>
	<g>
		<path d="M21,19c-0.276,0-0.5-0.224-0.5-0.5V5.474c0-0.497-0.241-0.959-0.646-1.236C18.629,3.402,15.979,2,12,2
			S5.371,3.402,4.146,4.238C3.741,4.515,3.5,4.977,3.5,5.474V18.5C3.5,18.776,3.276,19,3,19s-0.5-0.224-0.5-0.5V5.474
			c0-0.828,0.404-1.599,1.082-2.062C4.902,2.511,7.752,1,12,1s7.098,1.511,8.418,2.412C21.096,3.875,21.5,4.646,21.5,5.474V18.5
			C21.5,18.776,21.276,19,21,19z"/>
	</g>
	<g>
		<path d="M14,6h-4C9.173,6,8.5,5.327,8.5,4.5S9.173,3,10,3h4c0.827,0,1.5,0.673,1.5,1.5S14.827,6,14,6z M10,4
			C9.725,4,9.5,4.224,9.5,4.5S9.725,5,10,5h4c0.275,0,0.5-0.224,0.5-0.5S14.275,4,14,4H10z"/>
	</g>
	<g>
		<path d="M19,11H5c-0.276,0-0.5-0.224-0.5-0.5v-4C4.5,5.673,5.173,5,6,5h12c0.827,0,1.5,0.673,1.5,1.5v4
			C19.5,10.776,19.276,11,19,11z M5.5,10h13V6.5C18.5,6.224,18.275,6,18,6H6C5.725,6,5.5,6.224,5.5,6.5V10z"/>
	</g>
	<g>
		<path d="M12,11c-0.276,0-0.5-0.224-0.5-0.5v-5C11.5,5.224,11.724,5,12,5s0.5,0.224,0.5,0.5v5C12.5,10.776,12.276,11,12,11z"/>
	</g>
	<g>
		<path d="M22,11h-1c-0.276,0-0.5-0.224-0.5-0.5S20.724,10,21,10h1c0.275,0,0.5-0.224,0.5-0.5v-2C22.5,7.224,22.275,7,22,7h-1
			c-0.276,0-0.5-0.224-0.5-0.5S20.724,6,21,6h1c0.827,0,1.5,0.673,1.5,1.5v2C23.5,10.327,22.827,11,22,11z"/>
	</g>
	<g>
		<path d="M3,11H2c-0.827,0-1.5-0.673-1.5-1.5v-2C0.5,6.673,1.173,6,2,6h1c0.276,0,0.5,0.224,0.5,0.5S3.276,7,3,7H2
			C1.725,7,1.5,7.224,1.5,7.5v2C1.5,9.776,1.725,10,2,10h1c0.276,0,0.5,0.224,0.5,0.5S3.276,11,3,11z"/>
	</g>
	<g>
		<circle cx="7" cy="4.5" r="0.5"/>
	</g>
	<g>
		<circle cx="17" cy="4.5" r="0.5"/>
	</g>
</g>
<g>
</g>
<g>
</g>
<g>
</g>
<g>
</g>
<g>
</g>
<g>
</g>
<g>
</g>
<g>
</g>
<g>
</g>
<g>
</g>
<g>
</g>
<g>
</g>
<g>
</g>
<g>
</g>
<g>
</g>
</svg>
