<?xml version="1.0" encoding="iso-8859-1"?>
<!-- Generator: Adobe Illustrator 19.0.0, SVG Export Plug-In . SVG Version: 6.00 Build 0)  -->
<svg version="1.1" id="Layer_1" xmlns="http://www.w3.org/2000/svg" xmlns:xlink="http://www.w3.org/1999/xlink" x="0px" y="0px"
	 viewBox="0 0 24 24" style="enable-background:new 0 0 24 24;" xml:space="preserve">
<g>
	<g>
		<path d="M4.5,9C4.372,9,4.244,8.951,4.146,8.854l-4-4c-0.195-0.195-0.195-0.512,0-0.707s0.512-0.195,0.707,0L4.5,7.793L7.793,4.5
			L4.146,0.854c-0.195-0.195-0.195-0.512,0-0.707s0.512-0.195,0.707,0l4,4c0.195,0.195,0.195,0.512,0,0.707l-4,4
			C4.756,8.951,4.628,9,4.5,9z"/>
	</g>
	<g>
		<path d="M6.512,12.574c-0.004,0-0.008,0-0.013,0c-0.404-0.003-0.781-0.165-1.063-0.456c-0.468-0.483-1.083-1.114-1.557-1.587
			C3.597,10.25,3.441,9.874,3.441,9.474c0-0.401,0.156-0.778,0.44-1.063l4.558-4.558c0.585-0.585,1.536-0.585,2.121,0l1.586,1.586
			c0.585,0.585,0.585,1.536,0,2.121l-4.573,4.573C7.289,12.418,6.913,12.574,6.512,12.574z M9.5,4.415
			c-0.128,0-0.256,0.048-0.354,0.146L4.588,9.119C4.493,9.214,4.441,9.34,4.441,9.474c0,0.132,0.052,0.256,0.146,0.35
			c0.478,0.477,1.097,1.112,1.569,1.599c0.094,0.097,0.219,0.15,0.353,0.151c0.119-0.004,0.262-0.051,0.358-0.147l4.573-4.573
			c0.094-0.095,0.146-0.22,0.146-0.354s-0.052-0.259-0.146-0.354L9.854,4.561C9.756,4.463,9.628,4.415,9.5,4.415z"/>
	</g>
	<g>
		<path d="M11,14.5c-0.128,0-0.256-0.049-0.354-0.146l-3-3c-0.195-0.195-0.195-0.512,0-0.707s0.512-0.195,0.707,0L11,13.293
			L13.293,11l-2.646-2.646c-0.195-0.195-0.195-0.512,0-0.707s0.512-0.195,0.707,0l3,3c0.195,0.195,0.195,0.512,0,0.707l-3,3
			C11.256,14.451,11.128,14.5,11,14.5z"/>
	</g>
	<g>
		<path d="M6.5,10c-0.128,0-0.256-0.049-0.354-0.146c-0.195-0.195-0.195-0.512,0-0.707l3-3c0.195-0.195,0.512-0.195,0.707,0
			s0.195,0.512,0,0.707l-3,3C6.756,9.951,6.628,10,6.5,10z"/>
	</g>
	<g>
		<path d="M19.5,24c-0.128,0-0.256-0.049-0.354-0.146l-3-3c-0.195-0.195-0.195-0.512,0-0.707l4-4c0.195-0.195,0.512-0.195,0.707,0
			l3,3c0.195,0.195,0.195,0.512,0,0.707s-0.512,0.195-0.707,0L20.5,17.207L17.207,20.5l2.646,2.646c0.195,0.195,0.195,0.512,0,0.707
			C19.756,23.951,19.628,24,19.5,24z"/>
	</g>
	<g>
		<path d="M16.5,21c-0.093,0-0.186-0.025-0.269-0.078l-4.448-2.831c-0.386-0.246-0.636-0.648-0.686-1.103s0.107-0.9,0.43-1.224
			l4.225-4.225c0.328-0.328,0.778-0.486,1.237-0.433c0.454,0.053,0.853,0.307,1.094,0.696c1.776,2.866,2.578,4.103,2.749,4.324
			c0.057,0.05,0.102,0.114,0.131,0.188c0.074,0.186,0.03,0.397-0.111,0.538l-4,4C16.757,20.95,16.629,21,16.5,21z M16.817,12.098
			c-0.133,0-0.26,0.053-0.357,0.149l-4.225,4.225c-0.107,0.107-0.16,0.256-0.143,0.408c0.017,0.152,0.1,0.286,0.229,0.368
			l4.11,2.615l3.41-3.41c-0.401-0.568-1.124-1.732-2.605-4.123c-0.109-0.176-0.272-0.219-0.359-0.229
			C16.855,12.099,16.836,12.098,16.817,12.098z"/>
	</g>
	<g>
		<path d="M14.5,18c-0.128,0-0.256-0.049-0.354-0.146c-0.195-0.195-0.195-0.512,0-0.707l3-3c0.195-0.195,0.512-0.195,0.707,0
			s0.195,0.512,0,0.707l-3,3C14.756,17.951,14.628,18,14.5,18z"/>
	</g>
	<g>
		<path d="M14.5,7C14.224,7,14,6.776,14,6.5v-1C14,5.224,14.224,5,14.5,5S15,5.224,15,5.5v1C15,6.776,14.776,7,14.5,7z"/>
	</g>
	<g>
		<path d="M18.5,10h-1C17.224,10,17,9.776,17,9.5S17.224,9,17.5,9h1C18.776,9,19,9.224,19,9.5S18.776,10,18.5,10z"/>
	</g>
	<g>
		<path d="M16.5,8c-0.128,0-0.256-0.049-0.354-0.146c-0.195-0.195-0.195-0.512,0-0.707l1-1c0.195-0.195,0.512-0.195,0.707,0
			s0.195,0.512,0,0.707l-1,1C16.756,7.951,16.628,8,16.5,8z"/>
	</g>
	<g>
		<path d="M9.5,19C9.224,19,9,18.776,9,18.5v-1C9,17.224,9.224,17,9.5,17s0.5,0.224,0.5,0.5v1C10,18.776,9.776,19,9.5,19z"/>
	</g>
	<g>
		<path d="M6.5,15h-1C5.224,15,5,14.776,5,14.5S5.224,14,5.5,14h1C6.776,14,7,14.224,7,14.5S6.776,15,6.5,15z"/>
	</g>
	<g>
		<path d="M6.5,18c-0.128,0-0.256-0.049-0.354-0.146c-0.195-0.195-0.195-0.512,0-0.707l1-1c0.195-0.195,0.512-0.195,0.707,0
			s0.195,0.512,0,0.707l-1,1C6.756,17.951,6.628,18,6.5,18z"/>
	</g>
</g>
<g>
</g>
<g>
</g>
<g>
</g>
<g>
</g>
<g>
</g>
<g>
</g>
<g>
</g>
<g>
</g>
<g>
</g>
<g>
</g>
<g>
</g>
<g>
</g>
<g>
</g>
<g>
</g>
<g>
</g>
</svg>
