<?xml version="1.0" encoding="iso-8859-1"?>
<!-- Generator: Adobe Illustrator 19.0.0, SVG Export Plug-In . SVG Version: 6.00 Build 0)  -->
<svg version="1.1" id="Layer_1" xmlns="http://www.w3.org/2000/svg" xmlns:xlink="http://www.w3.org/1999/xlink" x="0px" y="0px"
	 viewBox="0 0 24 24" style="enable-background:new 0 0 24 24;" xml:space="preserve">
<g>
	<g>
		<path d="M4,15c-2.719,0-4-0.099-4-1c0-0.195,0-0.688,1.779-1.681L0.084,9.777c-0.132-0.198-0.106-0.462,0.063-0.631l1-1
			c0.152-0.153,0.384-0.19,0.577-0.094L5.5,9.941l2.776-1.388C8.523,8.429,8.823,8.53,8.947,8.776
			c0.124,0.247,0.023,0.547-0.224,0.671l-3,1.5c-0.141,0.07-0.307,0.07-0.447,0L1.599,9.108L1.144,9.563l1.772,2.659
			c0.079,0.118,0.104,0.265,0.068,0.403c-0.036,0.138-0.128,0.253-0.255,0.319c-0.587,0.303-1.175,0.67-1.503,0.928
			C1.932,14,3.438,14,4,14c3.346,0,19-6.135,19-8c0-0.387-0.95-1-3.5-1c-2.605,0-5.759,1.439-5.791,1.454
			c-0.251,0.115-0.548,0.005-0.664-0.245c-0.116-0.251-0.006-0.548,0.245-0.664C13.427,5.483,16.673,4,19.5,4
			C23.562,4,24,5.398,24,6C24,9.145,6.662,15,4,15z"/>
	</g>
	<g>
		<path d="M9.5,10c-0.085,0-0.171-0.022-0.248-0.066l-7-4C2.117,5.857,2.025,5.721,2.004,5.566s0.032-0.31,0.142-0.42l2-2
			c0.131-0.13,0.321-0.178,0.497-0.125l10,3c0.19,0.057,0.328,0.22,0.353,0.417c0.024,0.196-0.069,0.389-0.239,0.491l-5,3
			C9.678,9.976,9.589,10,9.5,10z M3.316,5.391l6.177,3.53l3.778-2.267L4.643,4.065L3.316,5.391z"/>
	</g>
	<g>
		<path d="M19.501,6.498c-0.131,0-0.262-0.051-0.359-0.152c-0.191-0.198-0.188-0.511,0.008-0.704C19.198,5.596,20.342,4.5,22.5,4.5
			C22.776,4.5,23,4.724,23,5s-0.224,0.5-0.5,0.5c-1.729,0-2.616,0.825-2.653,0.86C19.75,6.452,19.625,6.498,19.501,6.498z"/>
	</g>
	<g>
		<path d="M17.5,18c-0.146,0-0.29-0.064-0.387-0.184l-4.5-5.5c-0.175-0.213-0.143-0.528,0.071-0.704
			c0.213-0.175,0.528-0.144,0.704,0.071l4.247,5.19l1.284-0.642l-1.402-5.611c-0.067-0.268,0.096-0.539,0.364-0.606
			c0.265-0.067,0.539,0.095,0.606,0.364l1.5,6c0.057,0.227-0.052,0.463-0.261,0.568l-2,1C17.652,17.983,17.576,18,17.5,18z"/>
	</g>
	<g>
		<path d="M11.5,21h-11C0.224,21,0,20.776,0,20.5S0.224,20,0.5,20h11c0.276,0,0.5,0.224,0.5,0.5S11.776,21,11.5,21z"/>
	</g>
</g>
<g>
</g>
<g>
</g>
<g>
</g>
<g>
</g>
<g>
</g>
<g>
</g>
<g>
</g>
<g>
</g>
<g>
</g>
<g>
</g>
<g>
</g>
<g>
</g>
<g>
</g>
<g>
</g>
<g>
</g>
</svg>
