<?xml version="1.0" encoding="iso-8859-1"?>
<!-- Generator: Adobe Illustrator 19.0.0, SVG Export Plug-In . SVG Version: 6.00 Build 0)  -->
<svg version="1.1" id="Layer_1" xmlns="http://www.w3.org/2000/svg" xmlns:xlink="http://www.w3.org/1999/xlink" x="0px" y="0px"
	 viewBox="0 0 24 24" style="enable-background:new 0 0 24 24;" xml:space="preserve">
<g>
	<g>
		<path d="M13.658,9.526C13.454,9.458,13.229,9.528,13.1,9.7L12,11.166L10.9,9.7c-0.129-0.172-0.352-0.243-0.558-0.174
			C10.138,9.594,10,9.785,10,10v4c0,0.276,0.224,0.5,0.5,0.5S11,14.276,11,14v-2.5l0.6,0.8c0.189,0.252,0.612,0.252,0.8,0l0.6-0.8
			V14c0,0.276,0.224,0.5,0.5,0.5S14,14.276,14,14v-4C14,9.785,13.862,9.594,13.658,9.526z M6.5,10.5h1C7.776,10.5,8,10.724,8,11
			s0.224,0.5,0.5,0.5S9,11.276,9,11c0-0.827-0.673-1.5-1.5-1.5h-1C5.673,9.5,5,10.173,5,11v2c0,0.827,0.673,1.5,1.5,1.5h1
			C8.327,14.5,9,13.827,9,13c0-0.276-0.224-0.5-0.5-0.5S8,12.724,8,13s-0.224,0.5-0.5,0.5h-1C6.224,13.5,6,13.276,6,13v-2
			C6,10.724,6.224,10.5,6.5,10.5z M20.5,0.5h-17C1.57,0.5,0,2.07,0,4v16c0,1.93,1.57,3.5,3.5,3.5h17c1.93,0,3.5-1.57,3.5-3.5V4
			C24,2.07,22.43,0.5,20.5,0.5z M23,20c0,1.378-1.122,2.5-2.5,2.5h-17C2.122,22.5,1,21.378,1,20V4c0-1.378,1.122-2.5,2.5-2.5h17
			C21.878,1.5,23,2.622,23,4V20z M17.5,9.5h-2C15.224,9.5,15,9.724,15,10v4c0,0.276,0.224,0.5,0.5,0.5h2c0.827,0,1.5-0.673,1.5-1.5
			v-2C19,10.173,18.327,9.5,17.5,9.5z M18,13c0,0.276-0.224,0.5-0.5,0.5H16v-3h1.5c0.276,0,0.5,0.224,0.5,0.5V13z"/>
	</g>
</g>
</svg>
