<?xml version="1.0" encoding="iso-8859-1"?>
<!-- Generator: Adobe Illustrator 19.2.1, SVG Export Plug-In . SVG Version: 6.00 Build 0)  -->
<svg version="1.1" id="Layer_1" xmlns="http://www.w3.org/2000/svg" xmlns:xlink="http://www.w3.org/1999/xlink" x="0px" y="0px"
	 viewBox="0 0 30 30" style="enable-background:new 0 0 30 30;" xml:space="preserve">
<g>
	<g>
		<path d="M18.5,16.5c-0.276,0-0.5,0.224-0.5,0.5s0.224,0.5,0.5,0.5c0.276,0,0.5-0.224,0.5-0.5S18.776,16.5,18.5,16.5z M9.5,16.5H10
			V17c0,0.276,0.224,0.5,0.5,0.5S11,17.276,11,17v-0.5h0.5c0.276,0,0.5-0.224,0.5-0.5s-0.224-0.5-0.5-0.5H11V15
			c0-0.276-0.224-0.5-0.5-0.5S10,14.724,10,15v0.5H9.5C9.224,15.5,9,15.724,9,16S9.224,16.5,9.5,16.5z M17.5,16.5
			c0.276,0,0.5-0.224,0.5-0.5s-0.224-0.5-0.5-0.5c-0.276,0-0.5,0.224-0.5,0.5S17.224,16.5,17.5,16.5z M19.5,16.5
			c0.276,0,0.5-0.224,0.5-0.5s-0.224-0.5-0.5-0.5c-0.276,0-0.5,0.224-0.5,0.5S19.224,16.5,19.5,16.5z M18.5,15.5
			c0.276,0,0.5-0.224,0.5-0.5s-0.224-0.5-0.5-0.5c-0.276,0-0.5,0.224-0.5,0.5S18.224,15.5,18.5,15.5z M7.429,23.499
			c2.628,0,3.904-2.416,4.237-3.167c0.417-0.152,1.513-0.499,2.834-0.499c1.313,0,2.415,0.348,2.834,0.5
			c0.334,0.752,1.61,3.167,4.237,3.167c1.612,0,2.429-1.402,2.43-4.168c0-1.288-1.205-7.833-6.929-7.833h-5.143
			C6.205,11.499,5,18.043,5,19.332C5,22.097,5.818,23.499,7.429,23.499z M11.929,12.499h5.143c4.836,0,5.929,5.771,5.929,6.833
			c0,3.167-1.075,3.167-1.429,3.167c-2.343,0-3.378-2.702-3.388-2.729c-0.048-0.127-0.145-0.231-0.27-0.285
			c-0.062-0.027-1.524-0.652-3.414-0.652s-3.352,0.626-3.413,0.652c-0.125,0.055-0.223,0.158-0.27,0.286
			C10.806,19.799,9.785,22.5,7.429,22.5C7.075,22.5,6,22.5,6,19.332C6,18.27,7.094,12.499,11.929,12.499z M9.5,3.5
			C9.224,3.5,9,3.724,9,4s0.224,0.5,0.5,0.5S10,4.276,10,4S9.776,3.5,9.5,3.5z M26.978,1.5H3.022C1.355,1.5,0,2.835,0,4.476v21.048
			C0,27.165,1.355,28.5,3.022,28.5h23.956c1.667,0,3.022-1.335,3.022-2.976V4.476C30,2.835,28.645,1.5,26.978,1.5z M29,25.524
			c0,1.09-0.907,1.976-2.022,1.976H3.022C1.907,27.5,1,26.614,1,25.524V6.5h28V25.524z M29,5.5H1V4.476C1,3.386,1.907,2.5,3.022,2.5
			h23.956C28.093,2.5,29,3.386,29,4.476V5.5z M6.5,3.5C6.224,3.5,6,3.724,6,4s0.224,0.5,0.5,0.5S7,4.276,7,4S6.776,3.5,6.5,3.5z
			 M3.5,3.5C3.224,3.5,3,3.724,3,4s0.224,0.5,0.5,0.5S4,4.276,4,4S3.776,3.5,3.5,3.5z"/>
	</g>
</g>
</svg>
