<?xml version="1.0" encoding="utf-8"?>
<!-- Generator: Adobe Illustrator 19.0.0, SVG Export Plug-In . SVG Version: 6.00 Build 0)  -->
<svg version="1.1" id="Layer_1" xmlns="http://www.w3.org/2000/svg" xmlns:xlink="http://www.w3.org/1999/xlink" x="0px" y="0px"
	 viewBox="0 0 30 30" style="enable-background:new 0 0 30 30;" xml:space="preserve">
<g>
	<g>
		<path d="M29,24.5H1c-0.3,0-0.5-0.2-0.5-0.5V6c0-0.3,0.2-0.5,0.5-0.5h28c0.3,0,0.5,0.2,0.5,0.5v18C29.5,24.3,29.3,24.5,29,24.5z
			 M1.5,23.5h27v-17h-27V23.5z"/>
	</g>
	<g>
		<g>
			<path d="M14.7,19.5c-1.7,0-3.2-1.1-3.2-2.5v-4c0-1.4,1.3-2.5,3-2.5c2.5,0,3,0.8,3,1.5c0,0.3-0.2,0.5-0.5,0.5s-0.5-0.2-0.5-0.5
				c0-0.2-0.5-0.5-2-0.5c-1.1,0-2,0.6-2,1.5v4c0,0.8,1,1.5,2.2,1.5c1.1,0,1.8-0.4,1.8-1c0-0.3,0.2-0.5,0.5-0.5s0.5,0.2,0.5,0.5
				C17.5,18.7,16.4,19.5,14.7,19.5z"/>
		</g>
		<g>
			<path d="M15,14.5h-4c-0.3,0-0.5-0.2-0.5-0.5s0.2-0.5,0.5-0.5h4c0.3,0,0.5,0.2,0.5,0.5S15.3,14.5,15,14.5z"/>
		</g>
		<g>
			<path d="M15,16.5h-4c-0.3,0-0.5-0.2-0.5-0.5s0.2-0.5,0.5-0.5h4c0.3,0,0.5,0.2,0.5,0.5S15.3,16.5,15,16.5z"/>
		</g>
	</g>
	<g>
		<path d="M26,9.5h-2c-0.3,0-0.5-0.2-0.5-0.5s0.2-0.5,0.5-0.5h2c0.3,0,0.5,0.2,0.5,0.5S26.3,9.5,26,9.5z"/>
	</g>
	<g>
		<path d="M6,21.5H4c-0.3,0-0.5-0.2-0.5-0.5s0.2-0.5,0.5-0.5h2c0.3,0,0.5,0.2,0.5,0.5S6.3,21.5,6,21.5z"/>
	</g>
</g>
</svg>
