<?xml version="1.0" encoding="utf-8"?>
<!-- Generator: Adobe Illustrator 19.0.0, SVG Export Plug-In . SVG Version: 6.00 Build 0)  -->
<svg version="1.1" id="Layer_1" xmlns="http://www.w3.org/2000/svg" xmlns:xlink="http://www.w3.org/1999/xlink" x="0px" y="0px"
	 viewBox="0 0 30 30" style="enable-background:new 0 0 30 30;" xml:space="preserve">
<g>
	<g>
		<g>
			<g>
				<path d="M20.5,26.5h-20C0.2,26.5,0,26.3,0,26V13c0-0.3,0.2-0.5,0.5-0.5h20c0.3,0,0.5,0.2,0.5,0.5v13
					C21,26.3,20.8,26.5,20.5,26.5z M1,25.5h19v-12H1V25.5z"/>
			</g>
		</g>
	</g>
	<g>
		<g>
			<path d="M23.5,23.5h-3c-0.3,0-0.5-0.2-0.5-0.5s0.2-0.5,0.5-0.5H23v-12H4V13c0,0.3-0.2,0.5-0.5,0.5S3,13.3,3,13v-3
				c0-0.3,0.2-0.5,0.5-0.5h20c0.3,0,0.5,0.2,0.5,0.5v13C24,23.3,23.8,23.5,23.5,23.5z"/>
		</g>
	</g>
	<g>
		<g>
			<path d="M26.5,20.5h-3c-0.3,0-0.5-0.2-0.5-0.5s0.2-0.5,0.5-0.5H26v-12H7V10c0,0.3-0.2,0.5-0.5,0.5S6,10.3,6,10V7
				c0-0.3,0.2-0.5,0.5-0.5h20C26.8,6.5,27,6.7,27,7v13C27,20.3,26.8,20.5,26.5,20.5z"/>
		</g>
	</g>
	<g>
		<g>
			<path d="M29.5,17.5h-3c-0.3,0-0.5-0.2-0.5-0.5s0.2-0.5,0.5-0.5H29v-12H10V7c0,0.3-0.2,0.5-0.5,0.5S9,7.3,9,7V4
				c0-0.3,0.2-0.5,0.5-0.5h20C29.8,3.5,30,3.7,30,4v13C30,17.3,29.8,17.5,29.5,17.5z"/>
		</g>
	</g>
	<g>
		<path d="M10.5,24.5C8,24.5,6,22.5,6,20s2-4.5,4.5-4.5s4.5,2,4.5,4.5S13,24.5,10.5,24.5z M10.5,16.5C8.6,16.5,7,18.1,7,20
			s1.6,3.5,3.5,3.5S14,21.9,14,20S12.4,16.5,10.5,16.5z"/>
	</g>
	<g>
		<path d="M17.5,24.5h-1c-0.3,0-0.5-0.2-0.5-0.5s0.2-0.5,0.5-0.5h0.6c0.2-0.4,0.5-0.8,0.9-0.9v-5.2c-0.4-0.2-0.8-0.5-0.9-0.9h-0.6
			c-0.3,0-0.5-0.2-0.5-0.5s0.2-0.5,0.5-0.5h1c0.3,0,0.5,0.2,0.5,0.5s0.2,0.5,0.5,0.5S19,16.7,19,17v6c0,0.3-0.2,0.5-0.5,0.5
			S18,23.7,18,24C18,24.3,17.8,24.5,17.5,24.5z"/>
	</g>
	<g>
		<path d="M4.5,24.5h-1C3.2,24.5,3,24.3,3,24s-0.2-0.5-0.5-0.5S2,23.3,2,23v-6c0-0.3,0.2-0.5,0.5-0.5S3,16.3,3,16s0.2-0.5,0.5-0.5h1
			C4.8,15.5,5,15.7,5,16s-0.2,0.5-0.5,0.5H3.9c-0.2,0.4-0.5,0.8-0.9,0.9v5.2c0.4,0.2,0.8,0.5,0.9,0.9h0.6C4.8,23.5,5,23.7,5,24
			S4.8,24.5,4.5,24.5z"/>
	</g>
</g>
</svg>
