<?xml version="1.0" encoding="utf-8"?>
<!-- Generator: Adobe Illustrator 19.0.0, SVG Export Plug-In . SVG Version: 6.00 Build 0)  -->
<svg version="1.1" id="Layer_1" xmlns="http://www.w3.org/2000/svg" xmlns:xlink="http://www.w3.org/1999/xlink" x="0px" y="0px"
	 viewBox="0 0 30 30" style="enable-background:new 0 0 30 30;" xml:space="preserve">
<g>
	<g>
		<g>
			<path d="M12.5,28c-2.1,0-6-2.1-6-6c0-3.7,3.9-9.5,4.1-9.8c0.2-0.2,0.5-0.3,0.7-0.1c0.2,0.2,0.3,0.5,0.1,0.7
				c0,0.1-3.9,5.8-3.9,9.2c0,3.3,3.3,5,5,5c1.5,0,2-3,2-3.8v-2.4c-0.7-0.5-2-1.4-2-2.3c0-0.3,0.2-0.5,0.5-0.5c0.3,0,0.5,0.2,0.5,0.5
				c0,0.3,0.9,1,1.8,1.6c0.1,0.1,0.2,0.3,0.2,0.4v2.7C15.5,24.1,15,28,12.5,28z"/>
		</g>
	</g>
	<g>
		<g>
			<path d="M8,18.5c-0.2,0-0.4-0.1-0.5-0.3c-0.2-0.6-2-5.6-2-7.2c0-1.9,2.8-3,5.5-3c0.3,0,0.5,0.2,0.5,0.5S11.3,9,11,9
				c-2.4,0-4.5,0.9-4.5,2c0,1.2,1.4,5.3,2,6.8c0.1,0.3,0,0.5-0.3,0.6C8.1,18.5,8.1,18.5,8,18.5z"/>
		</g>
	</g>
	<g>
		<g>
			<path d="M13,13.5c-0.1,0-0.2,0-0.3-0.1c-0.2-0.2-0.3-0.5-0.1-0.7c0.7-0.9,1.8-3.1,1.1-3.9c-0.2-0.2-0.2-0.5,0-0.7
				c0.2-0.2,0.5-0.2,0.7,0c1.5,1.5-0.7,4.8-0.9,5.1C13.3,13.4,13.2,13.5,13,13.5z"/>
		</g>
	</g>
	<g>
		<g>
			<path d="M9,7C7.2,7,4.5,5,4.5,3.7c0-3,1.3-3.7,2.4-3.7C8.9,0,11,3.3,11,4.5C11,4.8,10.8,5,10.5,5S10,4.8,10,4.5
				C10,3.8,8.3,1,6.9,1C6.5,1,5.5,1,5.5,3.7C5.5,4.2,7.5,6,9,6c0.3,0,0.5,0.2,0.5,0.5S9.3,7,9,7z"/>
		</g>
	</g>
	<g>
		<g>
			<path d="M15,30c-1.7,0-2.5-0.4-2.5-2.5c0-0.3,0.2-0.5,0.5-0.5s0.5,0.2,0.5,0.5c0,1.4,0.2,1.5,1.5,1.5s1.5-0.1,1.5-1.5
				c0-0.3,0.2-0.5,0.5-0.5s0.5,0.2,0.5,0.5C17.5,29.6,16.7,30,15,30z"/>
		</g>
	</g>
	<g>
		<g>
			<path d="M17.5,28c-2.5,0-3-3.9-3-4.8v-2.7c0-0.2,0.1-0.3,0.2-0.4c0.9-0.5,1.7-1.3,1.8-1.6S16.8,18,17,18c0.3,0,0.5,0.2,0.5,0.5
				c0,0.9-1.3,1.8-2,2.3v2.4c0,0.8,0.5,3.8,2,3.8c1.7,0,5-1.7,5-5c0-3.4-3.9-9.2-3.9-9.2c-0.2-0.2-0.1-0.5,0.1-0.7
				c0.2-0.2,0.5-0.1,0.7,0.1c0.2,0.2,4.1,6.1,4.1,9.8C23.5,25.9,19.6,28,17.5,28z"/>
		</g>
	</g>
	<g>
		<g>
			<path d="M22,18.5c-0.1,0-0.1,0-0.2,0c-0.3-0.1-0.4-0.4-0.3-0.6c0.5-1.6,2-6.1,2-7.3C23.5,9.6,21.7,9,19,9c-0.3,0-0.5-0.2-0.5-0.5
				S18.7,8,19,8c3.5,0,5.5,0.9,5.5,2.5c0,1.6-1.8,7-2,7.7C22.4,18.4,22.2,18.5,22,18.5z"/>
		</g>
	</g>
	<g>
		<g>
			<path d="M21,9c-0.3,0-0.5-0.2-0.5-0.5C20.5,6.3,18.2,3,15,3S9.5,6.3,9.5,8.5C9.5,8.8,9.3,9,9,9S8.5,8.8,8.5,8.5
				C8.5,5.9,11.1,2,15,2s6.5,3.9,6.5,6.5C21.5,8.8,21.3,9,21,9z"/>
		</g>
	</g>
	<g>
		<g>
			<path d="M16.5,13.5c-0.2,0-0.3-0.1-0.4-0.3c-0.2-0.4-1.9-3.6-0.4-5.1c0.2-0.2,0.5-0.2,0.7,0c0.2,0.2,0.2,0.5,0,0.7
				c-0.8,0.8,0.2,3.2,0.6,3.9c0.1,0.2,0,0.5-0.2,0.7C16.7,13.5,16.6,13.5,16.5,13.5z"/>
		</g>
	</g>
	<g>
		<g>
			<path d="M21,7c-0.3,0-0.5-0.2-0.5-0.5S20.7,6,21,6c1.5,0,3.5-1.8,3.5-2.3c0-2.7-1-2.7-1.4-2.7C21.7,1,20,3.8,20,4.5
				C20,4.8,19.8,5,19.5,5S19,4.8,19,4.5C19,3.3,21.1,0,23.1,0c1.1,0,2.4,0.6,2.4,3.7C25.5,5,22.8,7,21,7z"/>
		</g>
	</g>
	<g>
		<g>
			<circle cx="9.5" cy="11" r="1"/>
		</g>
	</g>
	<g>
		<g>
			<circle cx="20.5" cy="11" r="1"/>
		</g>
	</g>
</g>
</svg>
