<?xml version="1.0" encoding="utf-8"?>
<!-- Generator: Adobe Illustrator 19.0.0, SVG Export Plug-In . SVG Version: 6.00 Build 0)  -->
<svg version="1.1" id="Layer_1" xmlns="http://www.w3.org/2000/svg" xmlns:xlink="http://www.w3.org/1999/xlink" x="0px" y="0px"
	 viewBox="0 0 30 30" style="enable-background:new 0 0 30 30;" xml:space="preserve">
<g>
	<g>
		<g>
			<path d="M10.8,3.5c-0.5,0-0.9-0.2-1.2-0.5C9.4,2.8,9.4,2.5,9.4,2.2C9.6,1.6,10.2,1,11,0.5c1.1-0.6,2.5-0.8,3,0c0,0,0,0,0,0
				c0.2,0.2,0.2,0.5,0.1,0.8C14,1.9,13.4,2.6,12.6,3C12,3.3,11.3,3.5,10.8,3.5z M12.9,1c-0.3,0-0.8,0.1-1.4,0.4
				c-0.8,0.4-1.1,0.9-1.1,1.1c0.1,0.1,0.8,0.1,1.7-0.3c0.8-0.4,1.1-0.9,1.1-1.1C13.2,1,13.1,1,12.9,1z"/>
		</g>
	</g>
	<g>
		<g>
			<path d="M12.5,6c-1.5,0-2-1.6-2-3c0-0.3,0.2-0.5,0.5-0.5s0.5,0.2,0.5,0.5c0,0.2,0,2,1,2C12.8,5,13,5.2,13,5.5S12.8,6,12.5,6z"/>
		</g>
	</g>
	<g>
		<g>
			<path d="M19.2,3.5c-0.6,0-1.3-0.2-1.8-0.5c-0.8-0.4-1.4-1.1-1.6-1.7c-0.1-0.3,0-0.6,0.1-0.8c0,0,0,0,0,0c0.5-0.8,1.9-0.6,3,0
				c0.8,0.5,1.4,1.1,1.6,1.7c0.1,0.3,0,0.6-0.1,0.8C20.2,3.4,19.7,3.5,19.2,3.5z M16.8,1.1c0,0.1,0.3,0.6,1.1,1.1
				c0.9,0.5,1.6,0.4,1.7,0.3c0-0.1-0.3-0.6-1.1-1.1C17.6,0.9,16.9,1,16.8,1.1z"/>
		</g>
	</g>
	<g>
		<g>
			<path d="M17.5,6C17.3,6,17,5.8,17,5.5S17.3,5,17.5,5c0.9,0,1-1.6,1-2c0-0.3,0.2-0.5,0.5-0.5s0.5,0.2,0.5,0.5
				C19.5,4.9,18.8,6,17.5,6z"/>
		</g>
	</g>
	<g>
		<g>
			<path d="M16.5,2.5c-0.1,0-0.2,0-0.3-0.1c0,0-0.6-0.4-1.2-0.4c-0.6,0-1,0.2-1,0.2c-0.2,0.1-0.5,0-0.7-0.2c-0.1-0.2,0-0.5,0.2-0.7
				C13.6,1.3,14.1,1,15,1c0.9,0,1.7,0.5,1.8,0.6c0.2,0.2,0.3,0.5,0.1,0.7C16.8,2.4,16.7,2.5,16.5,2.5z"/>
		</g>
	</g>
	<g>
		<g>
			<path d="M7,30c-0.1,0-0.2,0-0.3-0.1c-0.2-0.2-0.3-0.5-0.1-0.7l1.8-2.2l-0.8-1.6c-0.1-0.2,0-0.5,0.2-0.7c0.2-0.1,0.5,0,0.7,0.2
				l1,1.9c0.1,0.2,0.1,0.4-0.1,0.5l-2,2.5C7.3,29.9,7.1,30,7,30z"/>
		</g>
	</g>
	<g>
		<g>
			<path d="M22.6,30c-0.2,0-0.4-0.1-0.4-0.3l-1.3-2.5c-0.1-0.1-0.1-0.3,0-0.4l0.6-1.9c0.1-0.3,0.4-0.4,0.6-0.3
				c0.3,0.1,0.4,0.4,0.3,0.6l-0.6,1.7l1.2,2.3c0.1,0.2,0,0.5-0.2,0.7C22.8,30,22.7,30,22.6,30z"/>
		</g>
	</g>
	<g>
		<g>
			<path d="M1,13c-0.2,0-0.4-0.1-0.5-0.3c-0.1-0.3,0-0.5,0.3-0.7l2.3-0.9l2.4-3.9C5.7,7,6,6.9,6.3,7.1l2.5,1.5C9,8.7,9.1,9,8.9,9.3
				C8.8,9.5,8.5,9.6,8.2,9.4L6.2,8.2l-2.2,3.6c-0.1,0.1-0.1,0.2-0.2,0.2l-2.5,1C1.1,13,1.1,13,1,13z"/>
		</g>
	</g>
	<g>
		<g>
			<path d="M11,7c-0.1,0-0.1,0-0.2,0l-5-2C5.6,4.9,5.5,4.7,5.5,4.5V1.7L4.6,0.9c-0.2-0.2-0.2-0.5,0-0.7s0.5-0.2,0.7,0l1,1
				c0.1,0.1,0.1,0.2,0.1,0.4v2.7L11.2,6c0.3,0.1,0.4,0.4,0.3,0.7C11.4,6.9,11.2,7,11,7z"/>
		</g>
	</g>
	<g>
		<g>
			<path d="M15,29c-2.7,0-4.4-4.8-4.9-6.3c-0.1-0.2,0-0.4,0.1-0.5c0.4-0.4,0.8-0.9,1.2-1.2c1.4-1.4,2.2-4.2,2-7.4
				c0-0.2,0.1-0.4,0.4-0.5c0.3-0.1,0.6-0.1,0.8,0c0.2,0,0.5,0,0.7,0c0.2,0,0.5-0.1,0.8,0c0.2,0.1,0.4,0.3,0.4,0.5
				c-0.2,3.2,0.6,6,2,7.4l0,0c0.4,0.4,0.8,0.8,1.2,1.2c0.1,0.1,0.2,0.3,0.1,0.5C19.4,24.2,17.7,29,15,29z M11.1,22.7
				C12,25.4,13.5,28,15,28s3-2.6,3.8-5.3c-0.4-0.4-0.7-0.7-1-1l0,0c-1.6-1.5-2.4-4.4-2.3-7.7c0,0,0,0-0.1,0c-0.3,0-0.6,0-0.9,0
				c0,0,0,0-0.1,0c0.1,3.3-0.8,6.2-2.3,7.7C11.8,22,11.5,22.3,11.1,22.7z"/>
		</g>
	</g>
	<g>
		<g>
			<path d="M29,13c-0.1,0-0.1,0-0.2,0l-2.5-1c-0.1,0-0.2-0.1-0.2-0.2l-2.2-3.5l-1.6,1.4c-0.2,0.2-0.5,0.2-0.7,0
				c-0.2-0.2-0.2-0.5,0-0.7l2-1.8C23.8,7,23.9,7,24.1,7c0.1,0,0.3,0.1,0.4,0.2l2.4,3.9l2.3,0.9c0.3,0.1,0.4,0.4,0.3,0.7
				C29.4,12.9,29.2,13,29,13z"/>
		</g>
	</g>
	<g>
		<g>
			<path d="M19,7c-0.2,0-0.4-0.1-0.5-0.3c-0.1-0.3,0-0.5,0.3-0.7l4.7-1.9V1.5c0-0.1,0.1-0.3,0.1-0.4l1-1c0.2-0.2,0.5-0.2,0.7,0
				s0.2,0.5,0,0.7l-0.9,0.9v2.8c0,0.2-0.1,0.4-0.3,0.5l-5,2C19.1,7,19.1,7,19,7z"/>
		</g>
	</g>
	<g>
		<g>
			<path d="M18.1,6.7c-0.2,0-0.3-0.1-0.4-0.2C16.8,5,15.1,5,15,5c-0.1,0-1.8,0-2.7,1.5c-0.1,0.2-0.5,0.3-0.7,0.2
				c-0.2-0.1-0.3-0.5-0.2-0.7c1.2-2,3.5-2,3.6-2c0.1,0,2.3,0,3.5,2c0.1,0.2,0.1,0.5-0.2,0.7C18.3,6.7,18.2,6.7,18.1,6.7z"/>
		</g>
	</g>
	<g>
		<g>
			<path d="M3.6,28.1C3.6,28.1,3.6,28.1,3.6,28.1c-0.7,0-1.2-0.3-1.7-0.7v0c-1-1.1-1.5-2.8-1.3-4.9C0.9,18.1,4,11.5,11.5,5.8
				c0.2-0.2,0.5-0.1,0.7,0c1.3,1.3,2.4,5.1,2.3,8.7c0,3.2-0.9,5.7-2.3,7.1c-0.4,0.4-0.9,0.9-1.4,1.3C8.3,25.5,5.7,28.1,3.6,28.1z
				 M2.6,26.6c0.3,0.3,0.6,0.4,1,0.4c0,0,0,0,0,0c1.7,0,4.2-2.5,6.5-4.8c0.5-0.5,0.9-0.9,1.4-1.4c1.3-1.2,2-3.5,2-6.4
				c0-3.2-0.9-6.4-1.8-7.7c-7,5.5-9.8,11.6-10.2,15.6C1.4,24.3,1.8,25.8,2.6,26.6L2.6,26.6z M26.3,28.1L26.3,28.1
				c-2.3,0-5.2-3-7.7-5.6l-0.8-0.8c-3.8-3.8-2.3-13.5,0-15.8c0.2-0.2,0.5-0.2,0.7,0c7.6,5.8,10.7,12.4,11,16.6
				c0.2,2.1-0.3,3.8-1.4,4.9C27.6,27.8,27,28.1,26.3,28.1z M18.2,6.9c-1.7,2.4-3.1,10.7,0.3,14.1l0.8,0.8c2.3,2.4,5.2,5.3,7,5.3
				c0,0,0,0,0,0c0.4,0,0.7-0.1,1-0.4c0.9-0.9,1.3-2.4,1.1-4.2C28.2,18.5,25.3,12.4,18.2,6.9z"/>
		</g>
	</g>
</g>
</svg>
