<?xml version="1.0" encoding="utf-8"?>
<!-- Generator: Adobe Illustrator 19.0.0, SVG Export Plug-In . SVG Version: 6.00 Build 0)  -->
<svg version="1.1" id="Layer_1" xmlns="http://www.w3.org/2000/svg" xmlns:xlink="http://www.w3.org/1999/xlink" x="0px" y="0px"
	 viewBox="0 0 30 30" style="enable-background:new 0 0 30 30;" xml:space="preserve">
<g>
	<g>
		<g>
			<path d="M28.5,22.5c-0.1,0-0.3-0.1-0.4-0.2c-0.2-0.2-0.2-0.5,0-0.7c0.6-0.6,0.9-1.1,0.8-1.6c-0.1-0.8-1.1-1.4-1.1-1.4
				c-0.2-0.1-0.2-0.3-0.2-0.4c0-0.2-0.1-2.2-2.2-2.2c-0.6,0-1.2,0.3-1.8,0.5C23.1,16.8,22.6,17,22,17c0,0-3.8-0.1-4.9-1.1
				c-0.2-0.2-0.2-0.5,0-0.7c0.2-0.2,0.5-0.2,0.7,0c0.5,0.5,2.8,0.9,4.1,0.9c0.4,0,0.8-0.2,1.3-0.4c0.6-0.3,1.4-0.6,2.2-0.6
				c2.3,0,3.1,1.8,3.2,2.9c0.4,0.3,1.2,1,1.3,2.1c0.1,0.8-0.3,1.7-1.2,2.4C28.7,22.5,28.6,22.5,28.5,22.5z"/>
		</g>
	</g>
	<g>
		<g>
			<path d="M21.9,24.3c-0.2,0-0.4-0.1-0.5-0.3c-0.1-0.3,0.1-0.5,0.3-0.6c1.5-0.5,5.4-3.2,5.5-3.3c0.1-0.1,0.3-0.1,0.5-0.1
				c0.1,0,1.3,0.5,1.3,2c0,0.3-0.2,0.5-0.5,0.5S28,22.3,28,22c0-0.5-0.3-0.8-0.5-0.9c-0.9,0.6-4,2.8-5.5,3.2
				C22,24.3,21.9,24.3,21.9,24.3z"/>
		</g>
	</g>
	<g>
		<g>
			<path d="M21.2,25.1c-0.5,0-1.2-0.3-2-0.6c-0.5-0.2-1.3-0.6-1.5-0.5c-0.3,0.1-0.5,0-0.6-0.3c-0.1-0.3,0-0.5,0.3-0.7
				c0.6-0.2,1.4,0.1,2.3,0.5c0.3,0.2,0.8,0.4,1.2,0.5c-0.2-1-0.1-2.4,0.3-2.9c0.2-0.2,0.5-0.2,0.7,0c0.2,0.2,0.2,0.5,0,0.7
				c-0.2,0.3-0.2,2,0,2.3c0.2,0.2,0.2,0.5,0,0.7C21.7,25,21.4,25.1,21.2,25.1z"/>
		</g>
	</g>
	<g>
		<g>
			<path d="M27,30c-0.1,0-0.3,0-0.4-0.1c-0.2-0.2-0.2-0.5,0-0.7c0.4-0.4,0.4-0.7,0.3-0.9c-0.3-1.3-3.6-2.7-5.6-3.3
				c-0.3-0.1-0.4-0.4-0.3-0.6c0.1-0.3,0.4-0.4,0.6-0.3c0.6,0.2,5.7,1.8,6.3,4c0.1,0.4,0.1,1.1-0.6,1.8C27.3,29.9,27.1,30,27,30z"/>
		</g>
	</g>
	<g>
		<g>
			<path d="M24.5,30c-0.1,0-0.3,0-0.4-0.1c-0.4-0.4-0.4-0.9-0.4-1.1c0.3-1.3,2.4-2.1,2.5-2.2c0.3-0.1,0.5,0,0.6,0.3
				c0.1,0.3,0,0.5-0.3,0.6c-0.9,0.3-1.8,1-1.9,1.4c0,0,0,0.1,0.1,0.2c0.2,0.2,0.2,0.5,0,0.7C24.8,29.9,24.6,30,24.5,30z"/>
		</g>
	</g>
	<g>
		<g>
			<path d="M8.5,30c-1.7,0-3.5-2.7-4.2-3.8c-0.4,0.3-0.8,0.8-0.8,1.3C3.5,27.8,3.3,28,3,28c-1.1,0-1.6-1.8-1.9-3.4l-0.3,0.3
				C0.7,25,0.5,25,0.3,25C0.1,24.9,0,24.7,0,24.5c0-0.2,0.1-4.8,3.9-6c4-1.2,5.8-0.5,5.8-0.5c0.3,0.1,0.4,0.4,0.3,0.7
				c-0.1,0.3-0.4,0.4-0.7,0.3c0,0-1.6-0.6-5.2,0.5c-1.9,0.6-2.6,2.3-2.9,3.6C1.3,23,1.5,23,1.7,23C1.8,23.1,2,23.3,2,23.4
				c0.1,1.2,0.4,2.5,0.7,3.1c0.5-1,1.5-1.5,1.6-1.5c0.2-0.1,0.5,0,0.7,0.2c0.5,0.9,1.3,2.1,2.1,2.9c-0.1-0.4-0.2-0.8-0.1-1.2
				c0.2-2.2,2.7-3.8,2.8-3.8c0.2-0.1,0.4-0.1,0.6,0c0,0,2.5,1.9,4.7,1.9c2.2,0,3.9-0.5,5.3-1c0.3-0.1,0.5,0.1,0.6,0.3
				c0.1,0.3,0,0.5-0.3,0.6c-1.6,0.5-3.3,1-5.7,1c-2,0-4.2-1.3-5-1.9c-0.6,0.4-1.9,1.6-2,2.9c-0.1,0.7,0.2,1.4,0.9,2.1
				C9,29.3,9,29.5,9,29.7C8.9,29.9,8.7,30,8.5,30z"/>
		</g>
	</g>
	<g>
		<g>
			<path d="M21.5,19c-0.1,0-0.1,0-0.2,0c-3.3-1.1-6-4.5-7.1-9.3c-0.7-3-0.7-6,0-7.9C12.2,3.2,12,5.4,12,5.5c0,0.2-0.2,0.4-0.4,0.4
				c-0.2,0-0.4-0.1-0.5-0.3c0-0.1-0.6-1.3-0.9-2.7C9.6,4.5,10,6.4,10,6.4C10,6.6,9.9,6.9,9.7,7C9.5,7,9.2,7,9.1,6.8L8,5.3
				C7,6.8,7,9.5,7,9.5C7,9.7,6.8,10,6.6,10C6.3,10,6.1,9.9,6,9.7L5.4,7.8C5.2,8.4,5,9.3,5,10.5c0,2.5,1.9,4.6,1.9,4.7
				C7,15.3,7,15.5,7,15.7c0,0.1-0.1,0.1-0.1,0.2l3,2.2c0.2,0.2,0.3,0.5,0.1,0.7c-0.2,0.2-0.5,0.3-0.7,0.1l-4-3C5,15.8,5,15.5,5,15.3
				C5.1,15.1,5.3,15,5.5,15h0C4.9,14.1,4,12.4,4,10.5c0-2.9,1.1-4.3,1.1-4.3C5.2,6,5.4,6,5.6,6C5.8,6,5.9,6.2,6,6.3l0.3,0.8
				c0.2-1.1,0.6-2.3,1.4-3C7.7,4,7.9,4,8,4c0.1,0,0.3,0.1,0.4,0.2l0.5,0.6c0-1.2,0.3-2.7,1.3-3.7C10.3,1,10.5,1,10.7,1
				C10.9,1.1,11,1.3,11,1.5c0,0.8,0.2,1.7,0.4,2.4c0.5-1.3,1.6-3,3.9-3.8c0.2-0.1,0.5,0,0.6,0.2C16,0.4,16,0.7,15.9,0.9
				c-1.3,1.3-1.6,4.9-0.7,8.6c1.1,4.4,3.5,7.6,6.5,8.6c0.3,0.1,0.4,0.4,0.3,0.6C21.9,18.9,21.7,19,21.5,19z"/>
		</g>
	</g>
	<g>
		<g>
			<path d="M22.5,30c-0.3,0-0.5-0.2-0.5-0.5c0-1.5-3.1-3.1-4.2-3.5c-0.3-0.1-0.4-0.4-0.3-0.7c0.1-0.3,0.4-0.4,0.7-0.3
				c0.5,0.2,4.8,2.1,4.8,4.5C23,29.8,22.8,30,22.5,30z"/>
		</g>
	</g>
	<g>
		<g>
			<path d="M19.5,30c-0.1,0-0.3,0-0.4-0.1c-0.3-0.3-0.4-0.6-0.4-1c0.1-0.9,1.2-1.7,1.4-1.8c0.2-0.1,0.5-0.1,0.7,0.2
				c0.1,0.2,0.1,0.5-0.2,0.7c-0.4,0.2-0.9,0.7-1,1.1c0,0,0,0.1,0.1,0.2c0.2,0.2,0.2,0.5,0,0.7C19.8,29.9,19.6,30,19.5,30z"/>
		</g>
	</g>
	<g>
		<g>
			<path d="M23.5,16.5c-0.1,0-0.3,0-0.4-0.1c-0.1-0.1-0.2-0.1-0.2-0.2C22.2,15.6,21,14.5,21,12c0-2.4,3.8-6.7,7-7.7
				C27.6,4.1,27,4,26.5,4c-1.1,0-2.2,1.3-2.6,1.8C23.8,6,23.6,6,23.3,6C23.1,5.9,23,5.7,23,5.5V3.4c-1.7,1.3-3.2,3.5-3.2,3.5
				c-0.1,0.2-0.3,0.2-0.5,0.2c-0.2,0-0.3-0.1-0.4-0.3l-0.7-1.6c-0.7,0.5-2.2,1.6-3.3,3.5c-0.1,0.2-0.4,0.3-0.7,0.2
				c-0.2-0.1-0.3-0.4-0.2-0.7c1.8-3,4.1-4.1,4.2-4.2C18.4,4,18.5,4,18.7,4c0.1,0,0.2,0.1,0.3,0.3l0.6,1.3c0.8-1,2.2-2.8,3.8-3.6
				c0.2-0.1,0.3-0.1,0.5,0C23.9,2.2,24,2.3,24,2.5v1.7C24.6,3.6,25.5,3,26.5,3c1.1,0,2.9,0.5,3.4,1.2c0.1,0.2,0.1,0.3,0,0.5
				C29.8,4.9,29.7,5,29.5,5C26.6,5,22,9.7,22,12c0,2,0.9,2.8,1.6,3.4c0.1,0.1,0.2,0.2,0.3,0.3c0.2,0.2,0.2,0.5,0,0.7
				C23.8,16.4,23.6,16.5,23.5,16.5z"/>
		</g>
	</g>
	<g>
		<g>
			<circle cx="25.5" cy="18.5" r="0.5"/>
		</g>
	</g>
</g>
</svg>
