<?xml version="1.0" encoding="iso-8859-1"?>
<!-- Generator: Adobe Illustrator 19.0.0, SVG Export Plug-In . SVG Version: 6.00 Build 0)  -->
<svg version="1.1" id="Layer_1" xmlns="http://www.w3.org/2000/svg" xmlns:xlink="http://www.w3.org/1999/xlink" x="0px" y="0px"
	 viewBox="0 0 24 24" style="enable-background:new 0 0 24 24;" xml:space="preserve">
<g>
	<g>
		<path d="M7.5,16.5C3.224,16.5,0,14.995,0,13s3.224-3.5,7.5-3.5S15,11.005,15,13S11.776,16.5,7.5,16.5z M7.5,10.5
			C3.669,10.5,1,11.818,1,13s2.669,2.5,6.5,2.5S14,14.183,14,13S11.33,10.5,7.5,10.5z"/>
	</g>
	<g>
		<path d="M7.5,14.5C6.748,14.5,3,14.428,3,13s3.749-1.5,4.5-1.5S12,11.573,12,13S8.251,14.5,7.5,14.5z M4.136,13
			c0.431,0.215,1.593,0.5,3.364,0.5s2.933-0.285,3.364-0.5c-0.431-0.215-1.593-0.5-3.364-0.5S4.567,12.785,4.136,13z"/>
	</g>
	<g>
		<path d="M7.5,23.5C3.224,23.5,0,21.995,0,20v-7c0-0.276,0.224-0.5,0.5-0.5S1,12.724,1,13v7c0,1.183,2.669,2.5,6.5,2.5
			S14,21.183,14,20v-2.5c0-0.276,0.224-0.5,0.5-0.5s0.5,0.224,0.5,0.5V20C15,21.995,11.776,23.5,7.5,23.5z"/>
	</g>
	<g>
		<path d="M7.5,21.5c-0.049,0-0.099-0.007-0.146-0.022c-0.131-0.04-0.24-0.132-0.301-0.254l-0.5-1c-0.113-0.226-0.04-0.5,0.17-0.64
			l16.5-11c0.23-0.153,0.541-0.092,0.693,0.139c0.153,0.23,0.091,0.54-0.139,0.693L7.644,20.172l0.068,0.135l15.542-8.742
			c0.242-0.136,0.546-0.05,0.681,0.19c0.136,0.241,0.05,0.545-0.19,0.681l-16,9C7.669,21.479,7.585,21.5,7.5,21.5z"/>
	</g>
	<g>
		<path d="M7.5,10.5c-0.175,0-0.345-0.092-0.436-0.255c-0.136-0.241-0.05-0.545,0.19-0.681l16-9c0.242-0.137,0.546-0.05,0.681,0.19
			c0.136,0.241,0.05,0.545-0.19,0.681l-16,9C7.667,10.48,7.583,10.5,7.5,10.5z"/>
	</g>
	<g>
		<path d="M10.5,10.5c-0.184,0-0.36-0.101-0.448-0.276c-0.124-0.247-0.023-0.547,0.224-0.671l13-6.5
			c0.248-0.123,0.547-0.023,0.671,0.224c0.124,0.247,0.023,0.547-0.224,0.671l-13,6.5C10.652,10.483,10.576,10.5,10.5,10.5z"/>
	</g>
	<g>
		<path d="M14.5,15c-0.276,0-0.5-0.224-0.5-0.5V13c0-0.276,0.224-0.5,0.5-0.5S15,12.724,15,13v1.5C15,14.777,14.776,15,14.5,15z"/>
	</g>
</g>
<g>
</g>
<g>
</g>
<g>
</g>
<g>
</g>
<g>
</g>
<g>
</g>
<g>
</g>
<g>
</g>
<g>
</g>
<g>
</g>
<g>
</g>
<g>
</g>
<g>
</g>
<g>
</g>
<g>
</g>
</svg>
