<?xml version="1.0" encoding="iso-8859-1"?>
<!-- Generator: Adobe Illustrator 19.0.0, SVG Export Plug-In . SVG Version: 6.00 Build 0)  -->
<svg version="1.1" id="Layer_1" xmlns="http://www.w3.org/2000/svg" xmlns:xlink="http://www.w3.org/1999/xlink" x="0px" y="0px"
	 viewBox="0 0 24 24" style="enable-background:new 0 0 24 24;" xml:space="preserve">
<g>
	<g>
		<path d="M23.964,16.815l-6-15c-0.091-0.228-0.332-0.355-0.573-0.303l-9,2C8.237,3.546,8.122,3.65,8.057,3.781
			C8.054,3.787,8.047,3.789,8.044,3.796l-8,18c-0.068,0.155-0.054,0.334,0.038,0.476C0.174,22.415,0.331,22.5,0.5,22.5h4.672
			c0.186,0,0.357-0.103,0.443-0.268c1.119-2.138,2.132-6.368,2.753-9.725c0.36,3.294,1.007,7.509,2.043,9.706
			c0.082,0.175,0.259,0.287,0.452,0.287H16.5c0.097,0,0.186-0.034,0.265-0.085c0.008-0.005,0.017-0.003,0.025-0.008l7-5
			C23.978,17.273,24.049,17.029,23.964,16.815z M11.188,21.5C9.75,18.073,9.057,9.937,9.001,7.985C8.992,7.715,8.772,7.5,8.501,7.5
			c-0.271,0-0.492,0.215-0.5,0.485C7.944,9.891,6.479,18.124,4.864,21.5H1.27L8.5,5.231l7.23,16.269H11.188z M16.709,21.236
			L9.206,4.356l7.986-1.775l5.697,14.241L16.709,21.236z"/>
	</g>
</g>
</svg>
