<?xml version="1.0" encoding="iso-8859-1"?>
<!-- Generator: Adobe Illustrator 19.0.0, SVG Export Plug-In . SVG Version: 6.00 Build 0)  -->
<svg version="1.1" id="Layer_1" xmlns="http://www.w3.org/2000/svg" xmlns:xlink="http://www.w3.org/1999/xlink" x="0px" y="0px"
	 viewBox="0 0 24 24" style="enable-background:new 0 0 24 24;" xml:space="preserve">
<g>
	<g>
		<path d="M18.077,15.619C19.869,13.972,21,11.619,21,9c0-4.962-4.037-9-9-9S3,4.038,3,9c0,2.618,1.131,4.972,2.922,6.618
			l-2.89,7.707c-0.072,0.193-0.019,0.409,0.133,0.547C3.26,23.956,3.379,24,3.5,24c0.076,0,0.152-0.017,0.224-0.052l3.74-1.87
			l2.759,1.839c0.127,0.084,0.286,0.105,0.431,0.06c0.145-0.047,0.261-0.157,0.314-0.3l1.092-2.913l0.965,2.894
			c0.05,0.148,0.166,0.264,0.313,0.315c0.147,0.05,0.309,0.03,0.439-0.057l2.759-1.839l3.74,1.87C20.348,23.983,20.424,24,20.5,24
			c0.121,0,0.24-0.044,0.334-0.129c0.153-0.137,0.205-0.354,0.133-0.547L18.077,15.619z M11.532,19.325l-1.279,3.41l-2.476-1.65
			c-0.151-0.099-0.342-0.112-0.501-0.031l-2.861,1.431l2.324-6.198c1.259,0.911,2.756,1.51,4.385,1.669l0.44,1.319
			C11.554,19.292,11.539,19.305,11.532,19.325z M12,17c-4.411,0-8-3.589-8-8s3.589-8,8-8s8,3.589,8,8S16.411,17,12,17z
			 M16.723,21.053c-0.16-0.081-0.352-0.069-0.501,0.031l-2.455,1.637L12.19,17.99c1.891-0.04,3.637-0.665,5.07-1.703l2.324,6.197
			L16.723,21.053z M14.5,6c-1.103,0-2,0.897-2,2v2c0,1.103,0.897,2,2,2c1.103,0,2-0.897,2-2V8C16.5,6.897,15.603,6,14.5,6z M15.5,10
			c0,0.551-0.448,1-1,1s-1-0.449-1-1V8c0-0.551,0.448-1,1-1s1,0.449,1,1V10z M11,7c0.276,0,0.5-0.224,0.5-0.5S11.276,6,11,6H8
			C7.724,6,7.5,6.224,7.5,6.5v2C7.5,8.776,7.724,9,8,9h2c0.275,0,0.5,0.224,0.5,0.5v1c0,0.276-0.225,0.5-0.5,0.5H9
			c-0.275,0-0.5-0.224-0.5-0.5S8.276,10,8,10s-0.5,0.224-0.5,0.5C7.5,11.327,8.173,12,9,12h1c0.827,0,1.5-0.673,1.5-1.5v-1
			C11.5,8.673,10.827,8,10,8H8.5V7H11z"/>
	</g>
</g>
</svg>
