<?xml version="1.0" encoding="iso-8859-1"?>
<!-- Generator: Adobe Illustrator 19.0.0, SVG Export Plug-In . SVG Version: 6.00 Build 0)  -->
<svg version="1.1" id="Layer_1" xmlns="http://www.w3.org/2000/svg" xmlns:xlink="http://www.w3.org/1999/xlink" x="0px" y="0px"
	 viewBox="0 0 24 24" style="enable-background:new 0 0 24 24;" xml:space="preserve">
<g>
	<g>
		<path d="M12.146,17.492c-1.536,0.049-2.961-0.528-4.035-1.603c-1.074-1.075-1.644-2.508-1.603-4.035
			c0.007-0.276-0.211-0.506-0.487-0.513c-0.242,0.014-0.506,0.211-0.513,0.487c-0.047,1.805,0.625,3.498,1.896,4.768
			c1.228,1.228,2.852,1.898,4.589,1.898c0.059,0,0.119,0,0.179-0.002c0.276-0.007,0.494-0.237,0.487-0.513
			C12.652,17.702,12.41,17.497,12.146,17.492z M11.288,5.541c-0.274,0.031-0.472,0.277-0.442,0.552
			c0.031,0.274,0.271,0.471,0.552,0.442c1.668-0.182,3.307,0.391,4.492,1.575c1.184,1.185,1.758,2.822,1.574,4.492
			c-0.031,0.275,0.168,0.522,0.442,0.552c0.018,0.002,0.037,0.003,0.055,0.003c0.252,0,0.468-0.189,0.496-0.446
			c0.217-1.973-0.461-3.908-1.861-5.308C15.196,6.003,13.264,5.326,11.288,5.541z M21.902,9.598
			c-0.471-0.412-0.958-0.838-1.122-1.233c-0.177-0.426-0.136-1.095-0.096-1.741c0.062-1.021,0.127-2.075-0.552-2.755
			c-0.679-0.679-1.734-0.613-2.755-0.552c-0.648,0.039-1.316,0.079-1.741-0.096c-0.395-0.164-0.821-0.651-1.233-1.122
			C13.748,1.35,13.004,0.5,12,0.5s-1.748,0.85-2.402,1.598C9.186,2.569,8.76,3.056,8.365,3.22C7.939,3.397,7.27,3.356,6.624,3.316
			C5.603,3.255,4.548,3.188,3.869,3.868C3.19,4.548,3.254,5.602,3.317,6.623c0.039,0.647,0.08,1.315-0.096,1.741
			C3.057,8.759,2.57,9.185,2.099,9.597C1.35,10.252,0.5,10.996,0.5,12s0.85,1.748,1.598,2.402c0.471,0.412,0.958,0.838,1.122,1.233
			c0.177,0.426,0.136,1.095,0.096,1.741c-0.062,1.021-0.127,2.075,0.552,2.755c0.68,0.68,1.735,0.614,2.755,0.552
			c0.646-0.04,1.315-0.081,1.741,0.096c0.395,0.164,0.821,0.651,1.233,1.122C10.252,22.65,10.996,23.5,12,23.5
			s1.748-0.85,2.402-1.598c0.412-0.471,0.838-0.958,1.233-1.122c0.426-0.176,1.094-0.136,1.741-0.096
			c1.02,0.061,2.076,0.127,2.755-0.552c0.679-0.68,0.615-1.734,0.552-2.755c-0.039-0.647-0.08-1.315,0.096-1.741
			c0.164-0.395,0.651-0.821,1.122-1.233C22.65,13.748,23.5,13.004,23.5,12S22.65,10.252,21.902,9.598z M21.242,13.651
			c-0.557,0.488-1.134,0.992-1.387,1.603c-0.265,0.639-0.217,1.425-0.17,2.185c0.049,0.799,0.099,1.625-0.261,1.986
			c-0.36,0.361-1.188,0.311-1.986,0.261c-0.76-0.046-1.546-0.095-2.185,0.17c-0.611,0.253-1.115,0.829-1.603,1.387
			C13.11,21.861,12.55,22.5,12,22.5s-1.11-0.639-1.65-1.257c-0.488-0.557-0.992-1.134-1.603-1.387
			c-0.39-0.162-0.834-0.207-1.294-0.207c-0.294,0-0.595,0.018-0.892,0.036c-0.798,0.049-1.625,0.1-1.986-0.261
			c-0.361-0.361-0.31-1.187-0.261-1.986c0.047-0.76,0.095-1.546-0.17-2.185c-0.253-0.611-0.829-1.115-1.387-1.603
			C2.139,13.11,1.5,12.55,1.5,12s0.639-1.11,1.258-1.651c0.557-0.488,1.134-0.992,1.387-1.603c0.265-0.639,0.217-1.425,0.17-2.185
			C4.266,5.762,4.216,4.936,4.576,4.575c0.361-0.361,1.19-0.309,1.986-0.261c0.762,0.048,1.547,0.095,2.185-0.17
			c0.611-0.253,1.115-0.829,1.603-1.387C10.89,2.139,11.45,1.5,12,1.5s1.11,0.639,1.651,1.258c0.488,0.557,0.992,1.134,1.603,1.387
			c0.639,0.265,1.424,0.218,2.185,0.17c0.798-0.049,1.626-0.099,1.986,0.261c0.361,0.361,0.31,1.187,0.261,1.986
			c-0.047,0.76-0.095,1.546,0.17,2.185c0.253,0.611,0.829,1.115,1.387,1.603c0.618,0.54,1.257,1.1,1.257,1.65
			S21.861,13.11,21.242,13.651z"/>
	</g>
</g>
</svg>
