<?xml version="1.0" encoding="iso-8859-1"?>
<!-- Generator: Adobe Illustrator 19.0.0, SVG Export Plug-In . SVG Version: 6.00 Build 0)  -->
<svg version="1.1" id="Layer_1" xmlns="http://www.w3.org/2000/svg" xmlns:xlink="http://www.w3.org/1999/xlink" x="0px" y="0px"
	 viewBox="0 0 24 24" style="enable-background:new 0 0 24 24;" xml:space="preserve">
<g>
	<g>
		<path d="M17.5,6h-6C11.224,6,11,6.224,11,6.5S11.224,7,11.5,7h6C17.776,7,18,6.776,18,6.5S17.776,6,17.5,6z M22,16.5
			c0-1.378-1.122-2.5-2.5-2.5S17,15.122,17,16.5c0,0.81,0.394,1.525,0.994,1.982l-0.984,4.919c-0.037,0.188,0.036,0.38,0.187,0.496
			c0.152,0.117,0.357,0.135,0.527,0.05l1.776-0.888l1.776,0.888C21.347,23.982,21.424,24,21.5,24c0.107,0,0.215-0.035,0.302-0.103
			c0.152-0.117,0.225-0.308,0.187-0.496l-0.984-4.918C21.606,18.025,22,17.311,22,16.5z M19.723,22.052
			c-0.14-0.07-0.306-0.07-0.447,0l-1.085,0.543l0.733-3.669C19.11,18.971,19.301,19,19.5,19c0.199,0,0.389-0.029,0.575-0.073
			l0.733,3.668L19.723,22.052z M19.5,18c-0.827,0-1.5-0.673-1.5-1.5c0-0.827,0.673-1.5,1.5-1.5s1.5,0.673,1.5,1.5
			C21,17.327,20.327,18,19.5,18z M15.5,21H3V7h5.5C8.776,7,9,6.776,9,6.5V1h10v11.5c0,0.276,0.224,0.5,0.5,0.5s0.5-0.224,0.5-0.5
			v-12C20,0.224,19.776,0,19.5,0h-11C8.433,0,8.368,0.014,8.307,0.039C8.278,0.051,8.256,0.073,8.23,0.09
			C8.202,0.108,8.17,0.122,8.146,0.146l-6,6C2.123,6.169,2.11,6.2,2.092,6.227c-0.018,0.027-0.041,0.05-0.053,0.08
			C2.014,6.368,2,6.433,2,6.5v15C2,21.776,2.224,22,2.5,22h13c0.276,0,0.5-0.224,0.5-0.5S15.776,21,15.5,21z M8,1.707V6H3.707
			L8,1.707z M17.5,10h-13C4.224,10,4,10.224,4,10.5S4.224,11,4.5,11h13c0.276,0,0.5-0.224,0.5-0.5S17.776,10,17.5,10z M15.5,14h-11
			C4.224,14,4,14.224,4,14.5S4.224,15,4.5,15h11c0.276,0,0.5-0.224,0.5-0.5S15.776,14,15.5,14z M8.5,19C8.776,19,9,18.776,9,18.5
			S8.776,18,8.5,18h-4C4.224,18,4,18.224,4,18.5S4.224,19,4.5,19H8.5z"/>
	</g>
</g>
</svg>
