<?xml version="1.0" encoding="iso-8859-1"?>
<!-- Generator: Adobe Illustrator 19.0.0, SVG Export Plug-In . SVG Version: 6.00 Build 0)  -->
<svg version="1.1" id="Layer_1" xmlns="http://www.w3.org/2000/svg" xmlns:xlink="http://www.w3.org/1999/xlink" x="0px" y="0px"
	 viewBox="0 0 24 24" style="enable-background:new 0 0 24 24;" xml:space="preserve">
<g>
	<g>
		<path d="M11.723,17.54c-0.14-0.07-0.306-0.07-0.447,0l-6.085,3.043l1.299-6.498c0.032-0.164-0.019-0.334-0.137-0.452L1.569,8.849
			L8.07,7.987c0.164-0.022,0.307-0.124,0.381-0.272l3.047-6.108l3.047,6.108c0.073,0.148,0.216,0.25,0.381,0.272l6.501,0.862
			l-2.353,2.353c-0.195,0.195-0.195,0.512,0,0.707s0.512,0.195,0.707,0L22.85,8.84c0.135-0.135,0.181-0.334,0.12-0.514
			c-0.061-0.18-0.22-0.31-0.408-0.335l-7.242-0.96l-3.376-6.768c-0.169-0.339-0.726-0.339-0.895,0L7.673,7.031l-7.242,0.96
			C0.242,8.016,0.084,8.146,0.023,8.326S0.008,8.705,0.143,8.84l5.311,5.311l-1.447,7.237c-0.037,0.188,0.036,0.38,0.187,0.496
			c0.089,0.068,0.197,0.103,0.304,0.103c0.076,0,0.152-0.018,0.225-0.052l6.894-3.447c0.143-0.031,0.27-0.127,0.342-0.271
			C12.082,17.97,11.97,17.664,11.723,17.54z M18.503,12.992c-3.033,0-5.5,2.467-5.5,5.5c0,3.033,2.467,5.5,5.5,5.5
			c3.033,0,5.5-2.467,5.5-5.5C24.003,15.459,21.536,12.992,18.503,12.992z M22.241,15.992H20.74
			c-0.138-0.625-0.329-1.197-0.572-1.672C21.016,14.659,21.739,15.243,22.241,15.992z M18.503,13.992c0.396,0,0.903,0.74,1.215,2
			h-2.43C17.6,14.732,18.108,13.992,18.503,13.992z M14.28,19.992c-0.168-0.471-0.277-0.971-0.277-1.5
			c0-0.528,0.108-1.029,0.277-1.5h1.815c-0.061,0.493-0.092,0.999-0.092,1.5s0.031,1.007,0.092,1.5H14.28z M14.765,20.992h1.501
			c0.138,0.625,0.329,1.197,0.572,1.672C15.991,22.324,15.268,21.74,14.765,20.992z M16.266,15.992h-1.501
			c0.502-0.749,1.226-1.333,2.073-1.672C16.596,14.794,16.404,15.367,16.266,15.992z M18.503,22.992c-0.396,0-0.903-0.74-1.215-2
			h2.43C19.406,22.251,18.899,22.992,18.503,22.992z M19.9,19.992h-2.793c-0.061-0.461-0.104-0.955-0.104-1.5s0.043-1.039,0.104-1.5
			H19.9c0.061,0.461,0.104,0.955,0.104,1.5S19.961,19.53,19.9,19.992z M20.168,22.664c0.243-0.475,0.434-1.048,0.572-1.672h1.501
			C21.739,21.74,21.016,22.324,20.168,22.664z M20.911,19.992c0.061-0.493,0.092-0.999,0.092-1.5s-0.031-1.007-0.092-1.5h1.815
			c0.168,0.471,0.277,0.972,0.277,1.5c0,0.529-0.108,1.029-0.277,1.5H20.911z"/>
	</g>
</g>
</svg>
