<?xml version="1.0" encoding="iso-8859-1"?>
<!-- Generator: Adobe Illustrator 19.0.0, SVG Export Plug-In . SVG Version: 6.00 Build 0)  -->
<svg version="1.1" id="Layer_1" xmlns="http://www.w3.org/2000/svg" xmlns:xlink="http://www.w3.org/1999/xlink" x="0px" y="0px"
	 viewBox="0 0 24 24" style="enable-background:new 0 0 24 24;" xml:space="preserve">
<g>
	<g>
		<path d="M17.25,0C15.192,0,13.277,0.928,12,2.514C10.723,0.928,8.808,0,6.75,0C3.028,0,0,3.028,0,6.75
			c0,1.41,0.436,2.765,1.262,3.922l9.112,12.492c0.011,0.014,0.02,0.026,0.032,0.039C10.784,23.703,11.376,24,12,24
			c0.624,0,1.215-0.297,1.594-0.797c0.011-0.013,0.021-0.025,0.032-0.039l9.112-12.492c0.001-0.002,0.002-0.003,0.003-0.004
			C23.564,9.515,24,8.16,24,6.75C24,3.028,20.972,0,17.25,0z M21.928,10.084l-9.083,12.452c-0.012,0.014-0.023,0.027-0.033,0.042
			c-0.385,0.537-1.24,0.537-1.625,0c-0.01-0.015-0.02-0.028-0.032-0.041L2.073,10.086C1.371,9.104,1,7.95,1,6.75
			C1,3.579,3.579,1,6.75,1c1.957,0,3.763,0.987,4.83,2.638c0.184,0.285,0.656,0.285,0.84,0C13.487,1.986,15.293,1,17.25,1
			C20.421,1,23,3.579,23,6.75C23,7.949,22.63,9.103,21.928,10.084z"/>
	</g>
</g>
</svg>
