<?xml version="1.0" encoding="iso-8859-1"?>
<!-- Generator: Adobe Illustrator 19.0.0, SVG Export Plug-In . SVG Version: 6.00 Build 0)  -->
<svg version="1.1" id="Layer_1" xmlns="http://www.w3.org/2000/svg" xmlns:xlink="http://www.w3.org/1999/xlink" x="0px" y="0px"
	 viewBox="0 0 24 24" style="enable-background:new 0 0 24 24;" xml:space="preserve">
<g>
	<g>
		<path d="M24,14.251c0-0.601-0.239-1.161-0.65-1.575c0.467-0.511,0.704-1.197,0.639-1.909C23.873,9.496,22.727,8.5,21.382,8.5
			h-6.176C15.51,7.571,16,5.868,16,4.5c0-2.169-1.843-4-3-4c-1.039,0-1.782,0.584-1.813,0.609C11.068,1.205,11,1.348,11,1.5v3.39
			l-2.88,6.241L8,11.191V11c0-0.276-0.224-0.5-0.5-0.5h-5C1.122,10.5,0,11.622,0,13v8c0,1.378,1.122,2.5,2.5,2.5h3
			c1.082,0,2.005-0.69,2.354-1.652c0.832,0.428,1.952,0.653,2.647,0.653h9.179c1.089,0,2.041-0.735,2.265-1.747
			c0.115-0.521,0.048-1.046-0.18-1.502C22.503,18.88,23,18.119,23,17.251c0-0.354-0.081-0.693-0.235-1
			C23.503,15.879,24,15.118,24,14.251z M5.5,22.5h-3C1.672,22.5,1,21.827,1,21v-8c0-0.827,0.673-1.5,1.5-1.5v0.005h4.498v0.5
			c0,0.003,0.002,0.005,0.002,0.008V21C7,21.827,6.326,22.5,5.5,22.5z M21.89,15.486c-0.193,0.022-0.356,0.153-0.417,0.338
			c-0.061,0.184-0.011,0.388,0.131,0.521c0.255,0.241,0.395,0.563,0.395,0.907c0,0.63-0.476,1.161-1.108,1.233
			c-0.193,0.022-0.356,0.153-0.417,0.338c-0.061,0.184-0.011,0.388,0.131,0.521c0.33,0.311,0.462,0.747,0.363,1.194
			c-0.123,0.557-0.665,0.962-1.289,0.962H10.5c-0.743,0-1.939-0.321-2.5-0.738v-8.45l0.721-0.36c0.101-0.051,0.182-0.135,0.23-0.238
			l3-6.5c0.03-0.065,0.046-0.137,0.046-0.209V1.777c0.208-0.115,0.569-0.272,1-0.272c0.548,0,2,1.363,2,3
			c0,1.759-0.957,4.297-0.967,4.322c-0.058,0.153-0.038,0.326,0.056,0.461s0.247,0.216,0.412,0.216h6.881
			c0.834,0,1.542,0.596,1.612,1.358c0.053,0.57-0.219,1.112-0.711,1.415c-0.154,0.094-0.244,0.265-0.237,0.445
			c0.006,0.18,0.11,0.342,0.271,0.425c0.422,0.216,0.684,0.64,0.684,1.106C22.997,14.883,22.521,15.414,21.89,15.486z"/>
	</g>
</g>
</svg>
