<?xml version="1.0" encoding="iso-8859-1"?>
<!-- Generator: Adobe Illustrator 19.0.0, SVG Export Plug-In . SVG Version: 6.00 Build 0)  -->
<svg version="1.1" id="Layer_1" xmlns="http://www.w3.org/2000/svg" xmlns:xlink="http://www.w3.org/1999/xlink" x="0px" y="0px"
	 viewBox="0 0 24 24" style="enable-background:new 0 0 24 24;" xml:space="preserve">
<g>
	<g>
		<path d="M19.459,7.304l-3-7C16.381,0.12,16.2,0.001,16,0.001h-4.004c-0.004,0-0.007,0-0.01,0H8c-0.001,0-0.002,0.001-0.003,0.001
			c-0.001,0-0.002-0.001-0.002-0.001c-0.008,0-0.015,0.007-0.023,0.007c-0.083,0.005-0.16,0.029-0.229,0.071
			C7.717,0.094,7.701,0.118,7.679,0.137C7.645,0.167,7.605,0.19,7.58,0.23C7.571,0.243,7.572,0.26,7.565,0.275
			C7.559,0.286,7.546,0.292,7.541,0.304l-3,7C4.446,7.525,4.522,7.783,4.723,7.917l6,4c0.083,0.055,0.179,0.084,0.277,0.084
			c0.046,0,0.092-0.006,0.137-0.019c0.141-0.041,0.257-0.141,0.318-0.274L12,10.509l0.545,1.199
			c0.061,0.133,0.177,0.233,0.318,0.274c0.045,0.013,0.091,0.019,0.137,0.019c0.098,0,0.194-0.029,0.277-0.084l6-4
			C19.478,7.783,19.554,7.525,19.459,7.304z M10.789,10.758L5.624,7.315l2.39-5.575l3.437,7.562L10.789,10.758z M13.212,10.759
			l-1.251-2.752L8.776,1.001h2.898l3.697,8.319L13.212,10.759z M16.216,8.756l-3.447-7.756h2.902l2.707,6.315L16.216,8.756z
			 M17.561,16.005l-3.715-0.464l-1.387-3.236c-0.157-0.368-0.762-0.368-0.919,0l-1.387,3.236l-3.715,0.464
			c-0.189,0.023-0.349,0.153-0.411,0.334c-0.061,0.181-0.015,0.381,0.12,0.516l2.803,2.803l-0.874,3.729
			c-0.046,0.194,0.028,0.397,0.189,0.516c0.161,0.118,0.376,0.131,0.549,0.03l3.188-1.855l3.25,1.857
			c0.077,0.044,0.163,0.066,0.248,0.066c0.107,0,0.213-0.034,0.3-0.1c0.16-0.121,0.232-0.326,0.183-0.52l-0.931-3.726l2.8-2.8
			c0.136-0.135,0.182-0.335,0.12-0.516C17.91,16.158,17.75,16.028,17.561,16.005z M14.146,19.147
			c-0.124,0.124-0.174,0.305-0.131,0.475l0.716,2.863l-2.483-1.418c-0.077-0.044-0.163-0.066-0.248-0.066
			c-0.087,0-0.174,0.022-0.251,0.067l-2.435,1.417l0.673-2.87c0.04-0.169-0.01-0.346-0.133-0.468L7.577,16.87l2.985-0.373
			c0.176-0.022,0.327-0.135,0.397-0.299L12,13.771l1.041,2.427c0.069,0.163,0.221,0.277,0.397,0.299l2.985,0.373L14.146,19.147z"/>
	</g>
</g>
</svg>
