<?xml version="1.0" encoding="iso-8859-1"?>
<!-- Generator: Adobe Illustrator 19.0.0, SVG Export Plug-In . SVG Version: 6.00 Build 0)  -->
<svg version="1.1" id="Layer_1" xmlns="http://www.w3.org/2000/svg" xmlns:xlink="http://www.w3.org/1999/xlink" x="0px" y="0px"
	 viewBox="0 0 24 24" style="enable-background:new 0 0 24 24;" xml:space="preserve">
<g>
	<g>
		<path d="M18.001,21.989c-0.552,0-1,0.448-1,1c0,0.552,0.448,1,1,1c0.552,0,1-0.448,1-1C19.001,22.437,18.553,21.989,18.001,21.989
			z M15.226,19.292l-3.5-1.75c-0.14-0.07-0.306-0.07-0.447,0l-6.085,3.043l1.299-6.498c0.032-0.164-0.019-0.334-0.137-0.452
			L1.572,8.851l6.501-0.862C8.237,7.967,8.38,7.865,8.454,7.717l3.047-6.108l3.047,6.108c0.073,0.148,0.216,0.25,0.381,0.272
			l6.501,0.862l-4.784,4.784c-0.195,0.195-0.195,0.512,0,0.707c0.195,0.195,0.512,0.195,0.707,0l5.5-5.5
			c0.135-0.135,0.181-0.334,0.12-0.514c-0.061-0.18-0.22-0.31-0.408-0.335l-7.242-0.96l-3.376-6.768
			c-0.169-0.339-0.726-0.339-0.895,0L7.676,7.033l-7.242,0.96C0.245,8.018,0.087,8.148,0.026,8.328
			c-0.061,0.18-0.015,0.379,0.12,0.514l5.311,5.311L4.01,21.39c-0.037,0.188,0.036,0.38,0.187,0.496
			c0.089,0.068,0.197,0.103,0.304,0.103c0.076,0,0.153-0.018,0.224-0.053l6.776-3.388l3.278,1.639
			c0.247,0.122,0.547,0.023,0.671-0.224C15.573,19.716,15.473,19.416,15.226,19.292z M23.882,16.166
			c-0.094-0.113-0.234-0.177-0.381-0.177h-6.86l-0.155-0.621c-0.056-0.223-0.256-0.379-0.485-0.379h-1c-0.276,0-0.5,0.224-0.5,0.5
			s0.224,0.5,0.5,0.5h0.609l1.217,4.864c0.167,0.669,0.766,1.136,1.455,1.136h3.719h0.5c0.276,0,0.5-0.224,0.5-0.5
			s-0.224-0.5-0.5-0.5h-4.219c-0.23,0-0.429-0.156-0.485-0.378l-0.156-0.622h4.513c0.737,0,1.359-0.527,1.479-1.253l0.361-2.165
			C24.018,16.426,23.977,16.278,23.882,16.166z M22.647,18.572c-0.04,0.241-0.247,0.417-0.493,0.417h-4.763l-0.5-2h6.02
			L22.647,18.572z M21.001,22.989c0,0.552,0.448,1,1,1c0.552,0,1-0.448,1-1c0-0.552-0.448-1-1-1
			C21.449,21.989,21.001,22.437,21.001,22.989z"/>
	</g>
</g>
</svg>
