<?xml version="1.0" encoding="iso-8859-1"?>
<!-- Generator: Adobe Illustrator 19.0.0, SVG Export Plug-In . SVG Version: 6.00 Build 0)  -->
<svg version="1.1" id="Layer_1" xmlns="http://www.w3.org/2000/svg" xmlns:xlink="http://www.w3.org/1999/xlink" x="0px" y="0px"
	 viewBox="0 0 24 24" style="enable-background:new 0 0 24 24;" xml:space="preserve">
<g>
	<g>
		<path d="M7.568,21.99c-3.449-1.706-5.592-5.146-5.592-8.979c0-2.884,1.253-5.633,3.437-7.542c0.198-0.173,0.218-0.475,0.045-0.673
			C5.285,4.598,4.983,4.578,4.785,4.751c-2.392,2.091-3.763,5.102-3.763,8.261c0,4.199,2.346,7.967,6.123,9.835
			c0.068,0.034,0.14,0.05,0.211,0.05c0.176,0,0.345-0.098,0.428-0.268C7.901,22.393,7.804,22.107,7.568,21.99z M19.409,4.927
			c-0.195-0.179-0.497-0.164-0.675,0.029c-0.178,0.195-0.165,0.497,0.029,0.675c2.072,1.899,3.26,4.589,3.26,7.381
			c0,3.43-1.733,6.586-4.636,8.443c-0.222,0.141-0.287,0.437-0.145,0.659c0.09,0.142,0.245,0.22,0.402,0.22
			c0.087,0,0.177-0.024,0.258-0.076c3.179-2.033,5.076-5.49,5.076-9.247C22.978,9.953,21.677,7.006,19.409,4.927z M16.101,22.629
			c-0.002-0.004-0.003-0.007-0.005-0.011c0,0,0-0.001,0-0.001c-0.001-0.002-0.002-0.004-0.003-0.006
			c-4.436-9.503,1.768-19.735,1.831-19.837c0.077-0.126,0.095-0.279,0.049-0.419c-0.046-0.141-0.152-0.253-0.289-0.308l-5-2
			c-0.02-0.008-0.04-0.006-0.06-0.011c-0.024-0.006-0.047-0.011-0.072-0.013c-0.06-0.006-0.118-0.002-0.175,0.013
			c-0.011,0.003-0.023-0.001-0.034,0.003l-6,2C6.089,2.122,5.947,2.39,6.019,2.647c0,0,0.14,0.501,0.382,1.338
			c0.574,1.923,1.585,5.103,2.888,8.437c0.748,2.588,0.572,8.125-0.164,10.666c-0.037,0.126-0.02,0.261,0.046,0.374
			c0.066,0.113,0.176,0.194,0.303,0.224c0.852,0.201,1.702,0.303,2.525,0.303c0.119,0,0.237-0.007,0.354-0.017l0.143-0.009
			c0.001,0,0.002,0.001,0.003,0.001c1.474,0,2.65-0.403,3.124-0.593c0.03-0.006,0.064-0.005,0.09-0.015
			c0.055-0.021,0.109-0.042,0.158-0.066c0.047-0.024,0.086-0.059,0.123-0.096c0.008-0.008,0.019-0.012,0.027-0.021
			c0.029-0.032,0.046-0.072,0.066-0.111c0.01-0.019,0.025-0.035,0.032-0.056c0.001-0.003,0.003-0.005,0.004-0.008
			c0.013-0.037,0.011-0.075,0.015-0.113c0.002-0.024,0.01-0.046,0.009-0.07c-0.002-0.047-0.018-0.091-0.033-0.136
			C16.108,22.664,16.109,22.646,16.101,22.629z M12.859,2.556c0.026-0.549,0.056-0.995,0.081-1.329l3.841,1.536
			c-0.811,1.495-3.029,6.078-3.252,11.543C12.709,9.523,12.754,4.915,12.859,2.556z M11.999,23.035
			c-0.597,0-1.209-0.059-1.828-0.176c0.412-1.752,0.614-4.389,0.535-6.776c0.984,3.251,1.233,5.913,1.295,6.952
			C12,23.035,11.999,23.035,11.999,23.035z M11.054,14.119c-0.257-0.71-0.55-1.435-0.881-2.17C8.907,8.693,7.921,5.585,7.359,3.703
			C7.256,3.349,7.173,3.055,7.11,2.835l4.826-1.609c-0.024,0.334-0.053,0.767-0.077,1.284c-0.178,4.031-0.098,11.085,1.975,17.248
			C12.834,18.073,11.898,16.112,11.054,14.119z M12.954,22.991c-0.039-0.653-0.151-1.925-0.461-3.584
			c0.683,1.233,1.399,2.352,2.139,3.293C14.199,22.825,13.618,22.948,12.954,22.991z"/>
	</g>
</g>
</svg>
