<?xml version="1.0" encoding="iso-8859-1"?>
<!-- Generator: Adobe Illustrator 19.0.0, SVG Export Plug-In . SVG Version: 6.00 Build 0)  -->
<svg version="1.1" id="Layer_1" xmlns="http://www.w3.org/2000/svg" xmlns:xlink="http://www.w3.org/1999/xlink" x="0px" y="0px"
	 viewBox="0 0 30 30" style="enable-background:new 0 0 30 30;" xml:space="preserve">
<g>
	<g>
		<path d="M23.5,17c-3.584,0-6.5,2.916-6.5,6.5s2.916,6.5,6.5,6.5s6.5-2.916,6.5-6.5S27.084,17,23.5,17z M25.854,25.853
			c-0.098,0.098-0.226,0.146-0.354,0.146s-0.256-0.049-0.354-0.146L23.5,24.207l-1.646,1.646c-0.098,0.098-0.226,0.146-0.354,0.146
			s-0.256-0.049-0.354-0.146c-0.195-0.195-0.195-0.512,0-0.707l1.646-1.646l-1.646-1.646c-0.195-0.195-0.195-0.512,0-0.707
			s0.512-0.195,0.707,0l1.646,1.646l1.646-1.646c0.195-0.195,0.512-0.195,0.707,0s0.195,0.512,0,0.707L24.206,23.5l1.648,1.646
			C26.049,25.341,26.049,25.658,25.854,25.853z M15.5,26H2.976C1.886,26,1,25.113,1,24.023V5h25v10.5c0,0.276,0.224,0.5,0.5,0.5
			s0.5-0.224,0.5-0.5V2.977C27,1.335,25.665,0,24.024,0H2.976C1.335,0,0,1.335,0,2.977v21.046C0,25.665,1.335,27,2.976,27H15.5
			c0.276,0,0.5-0.224,0.5-0.5S15.776,26,15.5,26z M9.5,2C9.776,2,10,2.224,10,2.5S9.776,3,9.5,3S9,2.776,9,2.5S9.224,2,9.5,2z
			 M6.5,2C6.776,2,7,2.224,7,2.5S6.776,3,6.5,3S6,2.776,6,2.5S6.224,2,6.5,2z M3.5,2C3.776,2,4,2.224,4,2.5S3.776,3,3.5,3
			S3,2.776,3,2.5S3.224,2,3.5,2z"/>
	</g>
</g>
</svg>
