<?xml version="1.0" encoding="iso-8859-1"?>
<!-- Generator: Adobe Illustrator 19.0.0, SVG Export Plug-In . SVG Version: 6.00 Build 0)  -->
<svg version="1.1" id="Layer_1" xmlns="http://www.w3.org/2000/svg" xmlns:xlink="http://www.w3.org/1999/xlink" x="0px" y="0px"
	 viewBox="0 0 30 30" style="enable-background:new 0 0 30 30;" xml:space="preserve">
<g>
	<g>
		<path d="M26.979,1H3.023C1.356,1,0,2.378,0,4.071v21.858C0,27.622,1.356,29,3.021,29h23.957C28.644,29,30,27.622,30,25.929V4.071
			C30,2.378,28.646,1,26.979,1z M9.5,3C9.776,3,10,3.224,10,3.5S9.776,4,9.5,4S9,3.776,9,3.5S9.224,3,9.5,3z M6.5,3
			C6.776,3,7,3.224,7,3.5S6.776,4,6.5,4S6,3.776,6,3.5S6.224,3,6.5,3z M3.5,3C3.776,3,4,3.224,4,3.5S3.776,4,3.5,4S3,3.776,3,3.5
			S3.224,3,3.5,3z M29.002,25.929H29C29,27.072,28.094,28,26.979,28H3.023c-1.115,0-2.021-0.929-2.021-2.071V6h28V25.929z
			 M14.5,24.981c1.006,0,1.996-0.157,2.947-0.469l2.837,1.418c0.069,0.034,0.143,0.051,0.216,0.051c0.123,0,0.245-0.047,0.337-0.138
			c0.147-0.144,0.187-0.365,0.099-0.551l-0.984-2.069c1.932-1.428,3.03-3.493,3.03-5.724c0-4.126-3.805-7.482-8.481-7.482
			c-4.676,0-8.481,3.356-8.481,7.482C6.021,21.625,9.823,24.981,14.5,24.981z M18.5,16.019c0.817,0,1.481,0.664,1.481,1.481
			s-0.664,1.481-1.481,1.481s-1.481-0.664-1.481-1.481S17.683,16.019,18.5,16.019z M14.5,16.019c0.817,0,1.481,0.664,1.481,1.481
			s-0.664,1.481-1.481,1.481s-1.481-0.664-1.481-1.481S13.683,16.019,14.5,16.019z M10.5,16.019c0.817,0,1.481,0.664,1.481,1.481
			s-0.664,1.481-1.481,1.481S9.019,18.317,9.019,17.5S9.683,16.019,10.5,16.019z"/>
	</g>
</g>
</svg>
