<?xml version="1.0" encoding="iso-8859-1"?>
<!-- Generator: Adobe Illustrator 19.0.0, SVG Export Plug-In . SVG Version: 6.00 Build 0)  -->
<svg version="1.1" id="Layer_1" xmlns="http://www.w3.org/2000/svg" xmlns:xlink="http://www.w3.org/1999/xlink" x="0px" y="0px"
	 viewBox="0 0 30 30" style="enable-background:new 0 0 30 30;" xml:space="preserve">
<g>
	<g>
		<path d="M29.967,20.322C29.893,20.128,29.707,20,29.5,20h-5.162l-1.874-4.686c-0.152-0.381-0.776-0.381-0.929,0L19.662,20H14.5
			c-0.208,0-0.394,0.128-0.467,0.322c-0.073,0.194-0.02,0.413,0.135,0.552l4.262,3.788l-1.409,4.694
			c-0.061,0.202,0.012,0.42,0.182,0.546c0.169,0.124,0.399,0.129,0.575,0.014l4.223-2.815l4.223,2.815
			C26.308,29.972,26.405,30,26.501,30c0.104,0,0.209-0.033,0.297-0.098c0.169-0.126,0.242-0.344,0.182-0.546l-1.409-4.694
			l4.262-3.788C29.987,20.735,30.041,20.517,29.967,20.322z M15.5,26H2.976C1.886,26,1,25.113,1,24.023V5h25v10.5
			c0,0.276,0.224,0.5,0.5,0.5s0.5-0.224,0.5-0.5V2.977C27,1.335,25.665,0,24.024,0H2.976C1.335,0,0,1.335,0,2.977v21.046
			C0,25.665,1.335,27,2.976,27H15.5c0.276,0,0.5-0.224,0.5-0.5S15.776,26,15.5,26z M9.5,2C9.776,2,10,2.224,10,2.5S9.776,3,9.5,3
			S9,2.776,9,2.5S9.224,2,9.5,2z M6.5,2C6.776,2,7,2.224,7,2.5S6.776,3,6.5,3S6,2.776,6,2.5S6.224,2,6.5,2z M3.5,2
			C3.776,2,4,2.224,4,2.5S3.776,3,3.5,3S3,2.776,3,2.5S3.224,2,3.5,2z"/>
	</g>
</g>
</svg>
