<?xml version="1.0" encoding="iso-8859-1"?>
<!-- Generator: Adobe Illustrator 19.0.0, SVG Export Plug-In . SVG Version: 6.00 Build 0)  -->
<svg version="1.1" id="Layer_1" xmlns="http://www.w3.org/2000/svg" xmlns:xlink="http://www.w3.org/1999/xlink" x="0px" y="0px"
	 viewBox="0 0 30 30" style="enable-background:new 0 0 30 30;" xml:space="preserve">
<g>
	<g>
		<path d="M26.979,1.5H3.021C1.356,1.5,0,2.835,0,4.476v21.048C0,27.165,1.354,28.5,3.021,28.5h23.957
			c1.667,0,3.022-1.335,3.022-2.976V4.476C30,2.835,28.644,1.5,26.979,1.5z M9.5,3.5C9.776,3.5,10,3.724,10,4S9.776,4.5,9.5,4.5
			S9,4.276,9,4S9.224,3.5,9.5,3.5z M6.5,3.5C6.776,3.5,7,3.724,7,4S6.776,4.5,6.5,4.5S6,4.276,6,4S6.224,3.5,6.5,3.5z M3.5,3.5
			C3.776,3.5,4,3.724,4,4S3.776,4.5,3.5,4.5S3,4.276,3,4S3.224,3.5,3.5,3.5z M29,25.524c0,1.09-0.907,1.976-2.021,1.976H3.021
			C1.906,27.5,1,26.614,1,25.524V6.5h28V25.524z M9.5,24.5h10c0.276,0,0.5-0.224,0.5-0.5v-8c0-0.276-0.224-0.5-0.5-0.5H19v-0.75
			c0-2.343-2.019-4.25-4.5-4.25S10,12.407,10,14.75v0.75H9.5C9.224,15.5,9,15.724,9,16v8C9,24.276,9.224,24.5,9.5,24.5z M15,20.408
			V21.5c0,0.276-0.224,0.5-0.5,0.5S14,21.776,14,21.5v-1.092c-0.581-0.207-1-0.757-1-1.408c0-0.827,0.673-1.5,1.5-1.5
			c0.827,0,1.5,0.673,1.5,1.5C16,19.651,15.581,20.201,15,20.408z M11,14.75c0-1.792,1.57-3.25,3.5-3.25s3.5,1.458,3.5,3.25v0.75h-7
			V14.75z"/>
	</g>
</g>
</svg>
