<?xml version="1.0" encoding="iso-8859-1"?>
<!-- Generator: Adobe Illustrator 19.0.0, SVG Export Plug-In . SVG Version: 6.00 Build 0)  -->
<svg version="1.1" id="Layer_1" xmlns="http://www.w3.org/2000/svg" xmlns:xlink="http://www.w3.org/1999/xlink" x="0px" y="0px"
	 viewBox="0 0 30 30" style="enable-background:new 0 0 30 30;" xml:space="preserve">
<g>
	<g>
		<path d="M10.5,26h-10C0.224,26,0,26.224,0,26.5v3C0,29.776,0.224,30,0.5,30h10c0.276,0,0.5-0.224,0.5-0.5v-3
			C11,26.224,10.776,26,10.5,26z M6.146,24.854C6.244,24.952,6.372,25,6.5,25s0.256-0.049,0.354-0.146L16,15.708v2.793
			c0,0.276,0.224,0.5,0.5,0.5s0.5-0.224,0.5-0.5v-4c0-0.276-0.224-0.5-0.5-0.5h-4c-0.276,0-0.5,0.224-0.5,0.5s0.224,0.5,0.5,0.5
			h2.793l-9.146,9.146C5.951,24.342,5.951,24.658,6.146,24.854z M26.979,0H3.022C1.356,0,0.001,1.122,0.001,2.5v17
			c0,1.378,1.355,2.5,3.021,2.5h3.479c0.276,0,0.5-0.224,0.5-0.5S6.777,21,6.501,21H3.022c-1.115,0-2.021-0.673-2.021-1.5V5h28v14.5
			c0,0.827-0.907,1.5-2.021,1.5H12.5c-0.276,0-0.5,0.224-0.5,0.5s0.224,0.5,0.5,0.5h14.479C28.645,22,30,20.878,30,19.5v-17
			C30,1.122,28.645,0,26.979,0z M3.5,3C3.224,3,3,2.776,3,2.5S3.224,2,3.5,2S4,2.224,4,2.5S3.776,3,3.5,3z M6.5,3
			C6.224,3,6,2.776,6,2.5S6.224,2,6.5,2S7,2.224,7,2.5S6.776,3,6.5,3z M9.5,3C9.224,3,9,2.776,9,2.5S9.224,2,9.5,2S10,2.224,10,2.5
			S9.776,3,9.5,3z"/>
	</g>
</g>
</svg>
