<?xml version="1.0" encoding="iso-8859-1"?>
<!-- Generator: Adobe Illustrator 19.0.0, SVG Export Plug-In . SVG Version: 6.00 Build 0)  -->
<svg version="1.1" id="Layer_1" xmlns="http://www.w3.org/2000/svg" xmlns:xlink="http://www.w3.org/1999/xlink" x="0px" y="0px"
	 viewBox="0 0 30 30" style="enable-background:new 0 0 30 30;" xml:space="preserve">
<g>
	<g>
		<path d="M27,1H3C1.346,1,0,2.306,0,3.911v22.178C0,27.694,1.346,29,3,29h24c1.654,0,3-1.306,3-2.911V3.911C30,2.306,28.654,1,27,1
			z M9.5,3C9.776,3,10,3.224,10,3.5S9.776,4,9.5,4S9,3.776,9,3.5S9.224,3,9.5,3z M6.5,3C6.776,3,7,3.224,7,3.5S6.776,4,6.5,4
			S6,3.776,6,3.5S6.224,3,6.5,3z M3.5,3C3.776,3,4,3.224,4,3.5S3.776,4,3.5,4S3,3.776,3,3.5S3.224,3,3.5,3z M29,26.089
			C29,27.143,28.103,28,27,28H3c-1.103,0-2-0.857-2-1.911V18h5.5c0.211,0,0.399-0.133,0.471-0.332l1.962-5.494l3.085,11.456
			c0.058,0.216,0.252,0.367,0.476,0.37h0.007c0.221,0,0.415-0.145,0.479-0.356l2.574-8.579l2.479,6.611
			c0.077,0.206,0.269,0.342,0.502,0.323c0.22-0.015,0.404-0.173,0.453-0.389l2.119-9.324l1.923,5.382
			C23.101,17.867,23.289,18,23.5,18H29V26.089z M29,17h-5.147l-2.382-6.668c-0.074-0.21-0.263-0.357-0.501-0.331
			c-0.222,0.014-0.408,0.172-0.457,0.389l-2.131,9.372l-2.414-6.438c-0.075-0.201-0.271-0.313-0.484-0.324
			c-0.215,0.008-0.4,0.15-0.462,0.356l-2.495,8.316L9.482,10.37C9.425,10.159,9.238,10.009,9.019,10
			c-0.195-0.008-0.417,0.125-0.49,0.332L6.147,17H1V6h28V17z"/>
	</g>
</g>
</svg>
