<?xml version="1.0" encoding="iso-8859-1"?>
<!-- Generator: Adobe Illustrator 19.0.0, SVG Export Plug-In . SVG Version: 6.00 Build 0)  -->
<svg version="1.1" id="Layer_1" xmlns="http://www.w3.org/2000/svg" xmlns:xlink="http://www.w3.org/1999/xlink" x="0px" y="0px"
	 viewBox="0 0 30 30" style="enable-background:new 0 0 30 30;" xml:space="preserve">
<g>
	<g>
		<path d="M26.565,1H3.435C1.817,1,0.5,2.378,0.5,4.071v21.858C0.5,27.622,1.815,29,3.435,29h23.131
			c1.618,0,2.935-1.378,2.935-3.071V4.071C29.5,2.378,28.185,1,26.565,1z M10,3c0.276,0,0.5,0.224,0.5,0.5S10.276,4,10,4
			S9.5,3.776,9.5,3.5S9.724,3,10,3z M7,3c0.276,0,0.5,0.224,0.5,0.5S7.276,4,7,4S6.5,3.776,6.5,3.5S6.724,3,7,3z M4,3
			c0.276,0,0.5,0.224,0.5,0.5S4.276,4,4,4S3.5,3.776,3.5,3.5S3.724,3,4,3z M26.565,28H3.435C2.369,28,1.5,27.071,1.5,25.929V6h27
			v19.929H28.5C28.5,27.071,27.633,28,26.565,28z M12.277,11.084c-0.155-0.102-0.351-0.112-0.514-0.025
			c-0.162,0.087-0.264,0.256-0.264,0.441v12c0.001,0.185,0.103,0.354,0.265,0.441C11.839,23.981,11.919,24,12,24
			c0.097,0,0.193-0.028,0.277-0.084l9-6c0.139-0.093,0.223-0.249,0.223-0.416s-0.084-0.323-0.223-0.416L12.277,11.084z"/>
	</g>
</g>
</svg>
