<?xml version="1.0" encoding="iso-8859-1"?>
<!-- Generator: Adobe Illustrator 18.0.0, SVG Export Plug-In . SVG Version: 6.00 Build 0)  -->
<!DOCTYPE svg PUBLIC "-//W3C//DTD SVG 1.1//EN" "http://www.w3.org/Graphics/SVG/1.1/DTD/svg11.dtd">
<svg version="1.1" id="Layer_1" xmlns="http://www.w3.org/2000/svg" xmlns:xlink="http://www.w3.org/1999/xlink" x="0px" y="0px"
	 viewBox="0 0 24 24" style="enable-background:new 0 0 24 24;" xml:space="preserve">
<g>
	<path d="M16,23H8c-0.253,0-0.467-0.19-0.497-0.441l-2-17C5.487,5.417,5.531,5.274,5.626,5.168C5.721,5.061,5.857,5,6,5h12
		c0.143,0,0.279,0.061,0.374,0.168c0.095,0.106,0.14,0.249,0.123,0.391l-2,17C16.467,22.81,16.253,23,16,23z M8.445,22h7.11
		l1.882-16H6.563L8.445,22z"/>
	<path d="M20,6H4C3.724,6,3.5,5.776,3.5,5.5v-2C3.5,3.224,3.724,3,4,3h16c0.276,0,0.5,0.224,0.5,0.5v2C20.5,5.776,20.276,6,20,6z
		 M4.5,5h15V4h-15V5z"/>
	<path d="M18.02,4C18.013,3.999,18.007,4,18,4H6C5.724,4,5.5,3.776,5.5,3.5C5.5,2.122,6.622,1,8,1h8
		c1.326,0,2.415,1.038,2.495,2.344C18.511,3.393,18.52,3.445,18.52,3.5C18.52,3.776,18.296,4,18.02,4z M6.585,3h10.829
		C17.208,2.418,16.652,2,16,2H8C7.348,2,6.792,2.418,6.585,3z"/>
	<path d="M17.5,9h-11C6.224,9,6,8.776,6,8.5S6.224,8,6.5,8h11C17.776,8,18,8.224,18,8.5S17.776,9,17.5,9z"/>
	<path d="M16,19H8c-0.276,0-0.5-0.224-0.5-0.5S7.724,18,8,18h8c0.276,0,0.5,0.224,0.5,0.5S16.276,19,16,19z"/>
</g>
<g>
</g>
<g>
</g>
<g>
</g>
<g>
</g>
<g>
</g>
<g>
</g>
<g>
</g>
<g>
</g>
<g>
</g>
<g>
</g>
<g>
</g>
<g>
</g>
<g>
</g>
<g>
</g>
<g>
</g>
</svg>
