<?xml version="1.0" encoding="iso-8859-1"?>
<!-- Generator: Adobe Illustrator 19.0.0, SVG Export Plug-In . SVG Version: 6.00 Build 0)  -->
<svg version="1.1" id="Layer_1" xmlns="http://www.w3.org/2000/svg" xmlns:xlink="http://www.w3.org/1999/xlink" x="0px" y="0px"
	 viewBox="0 0 24 24" style="enable-background:new 0 0 24 24;" xml:space="preserve">
<g>
	<g>
		<path d="M11.998,24c-3.205,0-6.219-1.248-8.485-3.515c-0.094-0.094-0.146-0.221-0.146-0.354s0.053-0.26,0.146-0.354
			c1.271-1.271,2.698-1.915,4.243-1.915c0.734,0,0.943-0.765,0.99-0.999c0.169-0.854,1.103-1.374,1.951-1.081
			c1.424,0.489,3.06,0.115,4.13-0.955c1.342-1.343,1.555-3.462,0.505-5.04c-0.446-0.671-0.315-1.563,0.299-2.031
			c1.052-0.801,2.209-1.207,3.438-1.207c0.683,0,1.017-0.495,1.128-0.707c0.208-0.396,0.219-0.854,0.028-1.149L20.098,4.54
			c-0.171-0.206-0.15-0.509,0.047-0.689c0.197-0.18,0.501-0.175,0.69,0.016c0.07,0.07,0.132,0.145,0.188,0.223l0.37,0.444
			c3.8,4.781,3.405,11.634-0.911,15.95C18.217,22.752,15.203,24,11.998,24z M4.594,20.136C6.624,21.987,9.233,23,11.998,23
			c2.938,0,5.701-1.144,7.778-3.222c3.712-3.712,4.26-9.47,1.443-13.78c-0.038,0.105-0.083,0.209-0.137,0.31
			C20.673,7.085,19.92,7.55,19.068,7.55c-1.02,0-1.946,0.328-2.833,1.003c-0.218,0.166-0.208,0.477-0.072,0.682
			c1.312,1.973,1.046,4.623-0.631,6.301c-1.338,1.337-3.379,1.807-5.162,1.194c-0.253-0.089-0.58,0-0.646,0.33
			c-0.217,1.096-0.991,1.804-1.97,1.804C6.614,18.864,5.575,19.281,4.594,20.136z"/>
	</g>
	<g>
		<path d="M12.004,21.252c-0.559,0-1.148-0.084-1.682-0.284c-0.258-0.097-0.389-0.385-0.292-0.644s0.385-0.39,0.644-0.292
			c0.867,0.327,2.021,0.259,2.634,0.006c0.256-0.104,0.547,0.017,0.653,0.272c0.105,0.255-0.017,0.548-0.272,0.653
			C13.258,21.139,12.652,21.252,12.004,21.252z"/>
	</g>
	<g>
		<path d="M20.498,13c-0.128,0-0.256-0.049-0.354-0.146c-0.195-0.195-0.195-0.512,0-0.707c0.529-0.529,0.226-2.049-0.001-2.294
			c-0.185-0.2-0.183-0.517,0.014-0.707c0.196-0.189,0.502-0.192,0.694,0c0.579,0.579,0.958,2.75,0,3.707
			C20.754,12.951,20.626,13,20.498,13z"/>
	</g>
	<g>
		<path d="M18.722,18.121c-1.153,0-2.001-0.691-2.577-1.267c-0.195-0.195-0.195-0.512,0-0.707s0.512-0.195,0.707,0
			c0.619,0.62,1.4,1.208,2.501,0.875c0.266-0.08,0.544,0.07,0.624,0.333c0.08,0.264-0.069,0.543-0.333,0.624
			C19.316,18.078,19.009,18.121,18.722,18.121z"/>
	</g>
	<path d="M20.508,3.551c0-0.004-0.002-0.007-0.003-0.011c-0.008-0.008-0.014-0.017-0.022-0.025
		c-1.681-1.681-3.773-2.798-6.049-3.265c-0.008-0.002-0.015-0.004-0.023-0.006c-0.337-0.069-0.68-0.117-1.024-0.157
		c-0.058-0.007-0.115-0.02-0.173-0.026c-0.402-0.04-0.807-0.062-1.216-0.062s-0.814,0.021-1.216,0.062
		c-0.059,0.006-0.115,0.019-0.173,0.026c-0.345,0.039-0.687,0.088-1.024,0.157C9.577,0.246,9.57,0.248,9.562,0.25
		C7.286,0.717,5.194,1.834,3.513,3.515C2.69,4.338,2.018,5.254,1.485,6.226C1.473,6.248,1.459,6.268,1.447,6.29
		C1.332,6.503,1.235,6.721,1.134,6.939C1.067,7.082,0.993,7.221,0.931,7.367c-0.01,0.025-0.018,0.051-0.028,0.077
		c-0.58,1.406-0.904,2.944-0.904,4.557c0,1.47,0.279,2.873,0.765,4.176c0.001,0.002,0.001,0.003,0.002,0.005
		c0.129,0.344,0.272,0.681,0.431,1.01c0.011,0.023,0.022,0.047,0.034,0.07c0.153,0.313,0.32,0.617,0.499,0.914
		c0.024,0.04,0.049,0.08,0.073,0.12c0.177,0.286,0.366,0.563,0.566,0.833c0.034,0.046,0.068,0.092,0.103,0.137
		c0.204,0.267,0.419,0.525,0.645,0.774c0.022,0.025,0.041,0.051,0.063,0.076c0.001-0.001,0.002-0.002,0.003-0.003
		c2.195,2.383,5.33,3.888,8.817,3.888c6.617,0,12-5.383,12-12C23.998,8.707,22.663,5.721,20.508,3.551z M14.998,4.5
		c0,0.276-0.224,0.5-0.5,0.5s-0.5-0.224-0.5-0.5s0.224-0.5,0.5-0.5S14.998,4.224,14.998,4.5z M8.998,3.5c0,0.276-0.224,0.5-0.5,0.5
		s-0.5-0.224-0.5-0.5S8.222,3,8.498,3S8.998,3.224,8.998,3.5z M5.998,15.5c0,0.276-0.224,0.5-0.5,0.5s-0.5-0.224-0.5-0.5
		s0.224-0.5,0.5-0.5S5.998,15.224,5.998,15.5z M3.498,11c-0.276,0-0.5-0.224-0.5-0.5s0.224-0.5,0.5-0.5s0.5,0.224,0.5,0.5
		S3.774,11,3.498,11z M11.998,23c-3.189,0-6.057-1.373-8.068-3.548c0.878-0.703,2.284-1.588,3.825-1.588
		c0.619,0,0.863-0.541,0.952-0.852c-1.63-1.074-2.71-2.918-2.71-5.012c0-3.309,2.691-6,6-6c1.531,0,2.925,0.581,3.986,1.528
		C16.94,6.891,17.902,7,18.997,7c0.63,0,1.318-1.141,1.605-1.833c1.495,1.879,2.395,4.251,2.395,6.833
		C22.998,18.065,18.063,23,11.998,23z"/>
</g>
</svg>
