<?xml version="1.0" encoding="iso-8859-1"?>
<!-- Generator: Adobe Illustrator 19.0.0, SVG Export Plug-In . SVG Version: 6.00 Build 0)  -->
<svg version="1.1" id="Layer_1" xmlns="http://www.w3.org/2000/svg" xmlns:xlink="http://www.w3.org/1999/xlink" x="0px" y="0px"
	 viewBox="0 0 24 24" style="enable-background:new 0 0 24 24;" xml:space="preserve">
<g>
	<g>
		<path d="M22.952,12.268c-0.031-0.035-0.05-0.068-0.082-0.104c-0.187-0.204-0.502-0.216-0.707-0.03
			c-0.107,0.099-0.158,0.233-0.158,0.368H22.6L22.952,12.268z"/>
		<path d="M20.778,14.919c-0.084,0.056-0.181,0.084-0.277,0.084c-0.085,0-0.171-0.022-0.248-0.066l-3.5-2
			c-0.002-0.001-0.003-0.003-0.005-0.005c-0.009,0.005-0.014,0.013-0.023,0.018l-4,2c-0.071,0.035-0.147,0.053-0.224,0.053
			c-0.097,0-0.194-0.028-0.277-0.084l-3-2c-0.144-0.096-0.213-0.255-0.214-0.416H8.992c0,0.161-0.069,0.32-0.214,0.416l-3,2
			c-0.084,0.056-0.181,0.084-0.277,0.084s-0.193-0.028-0.277-0.084l-3-2c-0.144-0.096-0.213-0.255-0.214-0.416H2.001
			c0-0.128-0.049-0.256-0.146-0.354c-0.195-0.195-0.512-0.195-0.707,0c-0.614,0.614-0.924,1.303-0.897,1.993
			c0.025,0.644,0.346,1.246,0.926,1.741c0.96,0.819,6.327,1.113,11.415,1.113c4.438,0,8.664-0.224,9.565-0.519
			c0.443-0.145,1.503-0.591,1.768-1.606c0.144-0.551,0.003-1.155-0.38-1.797L20.778,14.919z"/>
	</g>
	<path d="M19.477,7.857c0.31,0.539,0.524,1.145,0.524,1.646c0,0.276-0.224,0.5-0.5,0.5s-0.5-0.224-0.5-0.5
		c0-0.674-0.687-1.792-1.124-2.003c-1.325-0.239-2.847-0.392-4.531-0.458c0.352,0.796,0.655,1.808,0.655,2.461
		c0,0.276-0.224,0.5-0.5,0.5s-0.5-0.224-0.5-0.5c0-0.617-0.407-1.81-0.778-2.49c-0.24-0.003-0.475-0.01-0.722-0.01
		c-1.52,0-3.029,0.19-4.434,0.516c0.276,0.655,0.405,1.697,0.431,1.929C7.528,9.722,7.331,9.969,7.056,10
		C7.037,10.002,7.019,10.003,7,10.003c-0.251,0-0.468-0.189-0.497-0.445C6.439,8.985,6.267,8.055,6.084,7.78
		C6.083,7.778,6.083,7.776,6.082,7.774C2.605,8.778,0,10.627,0,12.502c0,0.276,0.224,0.5,0.5,0.5h23c0.276,0,0.5-0.224,0.5-0.5v-1
		C24.001,9.885,22.363,8.628,19.477,7.857z"/>
</g>
</svg>
