<?xml version="1.0" encoding="iso-8859-1"?>
<!-- Generator: Adobe Illustrator 19.0.0, SVG Export Plug-In . SVG Version: 6.00 Build 0)  -->
<svg version="1.1" id="Layer_1" xmlns="http://www.w3.org/2000/svg" xmlns:xlink="http://www.w3.org/1999/xlink" x="0px" y="0px"
	 viewBox="0 0 24 24" style="enable-background:new 0 0 24 24;" xml:space="preserve">
<g>
	<g>
		<path d="M21,14.437v-2.436h0.5c0.276,0,0.5-0.224,0.5-0.5s-0.224-0.5-0.5-0.5h-5c-0.276,0-0.5,0.224-0.5,0.5s0.224,0.5,0.5,0.5H17
			v2.436c-1.808,0.792-3,2.584-3,4.564v1.5c0,0.276,0.224,0.5,0.5,0.5h9c0.276,0,0.5-0.224,0.5-0.5v-1.5
			C24,17.02,22.808,15.229,21,14.437z M23,20.001h-8v-1c0-1.678,1.072-3.186,2.667-3.754c0.2-0.071,0.333-0.26,0.333-0.471v-2.775h2
			v2.776c0,0.211,0.134,0.4,0.333,0.471C21.928,15.815,23,17.323,23,19.001V20.001z M13.37,10.264l-0.667-0.167l2.128-0.355
			c0.161-0.027,0.299-0.13,0.369-0.277l2.75-5.75c0.076-0.159,0.063-0.347-0.035-0.493C17.817,3.075,17.64,2.985,17.473,3
			c-2.29,0.12-5.732,1.227-5.878,1.274c-0.127,0.041-0.233,0.132-0.293,0.252l-0.44,0.879l-0.259-0.259
			c-0.155-0.155-0.393-0.191-0.585-0.089c-0.441,0.231-2.668,1.413-3.153,2c-0.239,0.288-0.43,0.854-0.572,1.412L6.197,8.277
			c-0.07-0.139-0.2-0.237-0.352-0.267c-0.153-0.032-0.31,0.012-0.426,0.115c-0.146,0.129-3.484,3.133-2.095,6.698
			c-1.128,1.672-2.156,3.482-3.259,5.432c-0.136,0.24-0.051,0.545,0.189,0.681c0.078,0.044,0.163,0.065,0.246,0.065
			c0.174,0,0.343-0.091,0.435-0.254c1.004-1.776,1.942-3.435,2.955-4.973c0.429,0.459,1.005,0.71,1.721,0.71
			c0.047,0,0.094-0.001,0.141-0.005c2.926-0.124,7.499-4.236,7.968-5.564c0.047-0.132,0.036-0.279-0.031-0.403
			C13.623,10.388,13.507,10.298,13.37,10.264z M5.711,15.482c-0.567,0.027-0.963-0.168-1.233-0.573
			c2.093-2.984,4.59-5.482,8.617-7.459c0.249-0.122,0.351-0.421,0.229-0.669c-0.122-0.249-0.42-0.351-0.669-0.229
			c-3.982,1.955-6.511,4.374-8.602,7.233c-0.359-1.918,0.861-3.63,1.565-4.43l0.435,0.87c0.097,0.195,0.307,0.307,0.526,0.27
			c0.216-0.034,0.384-0.205,0.416-0.421c0.138-0.937,0.422-2.113,0.641-2.379c0.217-0.264,1.397-0.975,2.522-1.579l0.489,0.489
			c0.114,0.114,0.273,0.166,0.434,0.14c0.159-0.026,0.295-0.126,0.367-0.27l0.655-1.31c0.653-0.203,2.794-0.839,4.564-1.08
			l-2.255,4.716l-4.243,0.707C9.936,9.547,9.761,9.744,9.752,9.981c-0.01,0.237,0.148,0.448,0.378,0.505l2.344,0.586
			C11.4,12.443,7.916,15.389,5.711,15.482z"/>
	</g>
</g>
</svg>
