<?xml version="1.0" encoding="iso-8859-1"?>
<!-- Generator: Adobe Illustrator 19.0.0, SVG Export Plug-In . SVG Version: 6.00 Build 0)  -->
<svg version="1.1" id="Layer_1" xmlns="http://www.w3.org/2000/svg" xmlns:xlink="http://www.w3.org/1999/xlink" x="0px" y="0px"
	 viewBox="0 0 24 24" style="enable-background:new 0 0 24 24;" xml:space="preserve">
<g>
	<g>
		<path d="M3.999,9c0.276,0,0.5-0.224,0.5-0.5c0-0.551,0.449-1,1-1c0.551,0,1,0.449,1,1c0,0.487-0.214,0.946-0.589,1.258
			l-2.23,1.857c-0.162,0.135-0.222,0.356-0.15,0.554c0.072,0.198,0.26,0.33,0.47,0.33h3c0.276,0,0.499-0.223,0.499-0.499
			s-0.224-0.5-0.5-0.5H5.381l1.168-0.973c0.604-0.503,0.95-1.241,0.95-2.027c0-1.103-0.897-2-2-2c-1.103,0-2,0.897-2,2
			C3.499,8.776,3.723,9,3.999,9z M22,0.5H2C1.173,0.5,0.5,1.173,0.5,2c0,0.651,0.419,1.201,1,1.408V16c0,0.276,0.224,0.5,0.5,0.5
			h9.5v4.092c-0.581,0.207-1,0.757-1,1.408c0,0.827,0.673,1.5,1.5,1.5c0.827,0,1.5-0.673,1.5-1.5c0-0.651-0.419-1.201-1-1.408V16.5
			H22c0.276,0,0.5-0.224,0.5-0.5V3.408c0.581-0.207,1-0.757,1-1.408C23.5,1.173,22.827,0.5,22,0.5z M12,22.5
			c-0.276,0-0.5-0.224-0.5-0.5s0.224-0.5,0.5-0.5s0.5,0.224,0.5,0.5S12.276,22.5,12,22.5z M21.5,15.5h-19v-12h19V15.5z M22,2.5H2
			C1.724,2.5,1.5,2.276,1.5,2S1.724,1.5,2,1.5h20c0.276,0,0.5,0.224,0.5,0.5S22.276,2.5,22,2.5z M18,11.5h2
			c0.276,0,0.5-0.224,0.5-0.5s-0.224-0.5-0.5-0.5h-2c-0.276,0-0.5,0.224-0.5,0.5S17.724,11.5,18,11.5z M18,9.5h2
			c0.276,0,0.5-0.224,0.5-0.5S20.276,8.5,20,8.5h-2c-0.276,0-0.5,0.224-0.5,0.5S17.724,9.5,18,9.5z M8.646,11.354
			C8.744,11.451,8.872,11.5,9,11.5s0.256-0.049,0.353-0.146L10,10.708l0.646,0.646C10.744,11.451,10.872,11.5,11,11.5
			s0.256-0.049,0.353-0.146c0.195-0.195,0.195-0.512,0-0.707L10.707,10l0.646-0.646c0.195-0.195,0.195-0.512,0-0.707
			s-0.512-0.195-0.707,0L10,9.293L9.353,8.647c-0.195-0.195-0.512-0.195-0.707,0s-0.195,0.512,0,0.707L9.292,10l-0.646,0.646
			C8.451,10.842,8.451,11.159,8.646,11.354z M12.999,9.001c0.276,0,0.5-0.224,0.5-0.5c0-0.551,0.449-1,1-1c0.551,0,1,0.449,1,1
			c0,0.487-0.214,0.946-0.589,1.258l-2.23,1.857c-0.162,0.135-0.222,0.356-0.15,0.554c0.072,0.198,0.26,0.33,0.47,0.33h3
			c0.276,0,0.499-0.223,0.499-0.499s-0.224-0.5-0.5-0.5h-1.618l1.168-0.973c0.604-0.503,0.95-1.241,0.95-2.027c0-1.103-0.897-2-2-2
			c-1.103,0-2,0.897-2,2C12.499,8.777,12.723,9.001,12.999,9.001z"/>
	</g>
</g>
</svg>
