<?xml version="1.0" encoding="iso-8859-1"?>
<!-- Generator: Adobe Illustrator 19.0.0, SVG Export Plug-In . SVG Version: 6.00 Build 0)  -->
<svg version="1.1" id="Layer_1" xmlns="http://www.w3.org/2000/svg" xmlns:xlink="http://www.w3.org/1999/xlink" x="0px" y="0px"
	 viewBox="0 0 24 24" style="enable-background:new 0 0 24 24;" xml:space="preserve">
<g>
	<g>
		<path d="M12,0.5C5.659,0.5,0.5,5.659,0.5,12S5.659,23.5,12,23.5c3.85,0,7.614-2.011,8.95-4.781c0.487-1.009,0.267-1.699-0.004-2.1
			c-0.432-0.64-1.317-0.981-2.444-1.012v-0.599c0-0.644-0.524-1.167-1.167-1.167c-0.763,0-1.511-0.12-2.218-0.353
			c-0.415-0.145-0.885-0.033-1.144,0.234l-1.354,1.022c-1.552-0.845-2.53-1.821-3.363-3.362l0.977-1.301
			c0.312-0.311,0.423-0.764,0.289-1.191c-0.235-0.712-0.355-1.46-0.355-2.223C10.167,6.023,9.643,5.5,9,5.5H6.667
			C6.023,5.5,5.5,6.023,5.5,6.667c0,6.524,5.309,11.833,11.833,11.833c0.644,0,1.167-0.523,1.169-1.165v-0.739
			c0.769,0.023,1.375,0.227,1.615,0.582c0.181,0.267,0.158,0.639-0.067,1.105C18.871,20.727,15.485,22.5,12,22.5
			C6.21,22.5,1.5,17.79,1.5,12S6.21,1.5,12,1.5S22.5,6.21,22.5,12c0,0.276,0.224,0.5,0.5,0.5s0.5-0.224,0.5-0.5
			C23.5,5.659,18.341,0.5,12,0.5z M17.5,17.333c0,0.091-0.077,0.167-0.167,0.167C11.36,17.5,6.5,12.64,6.5,6.667
			C6.5,6.576,6.576,6.5,6.667,6.5H9c0.09,0,0.167,0.076,0.167,0.167c0,0.869,0.136,1.723,0.402,2.529
			c0.01,0.031,0.024,0.109-0.089,0.229l-1.213,1.607C8.152,11.185,8.134,11.39,8.22,11.56c1.006,1.976,2.228,3.198,4.218,4.218
			c0.169,0.088,0.376,0.07,0.529-0.046l1.66-1.259c0.043-0.043,0.109-0.059,0.169-0.039c0.814,0.269,1.668,0.405,2.537,0.405
			c0.091,0,0.167,0.077,0.167,0.167V17.333z"/>
	</g>
</g>
</svg>
