<?xml version="1.0" encoding="utf-8"?>
<!-- Generator: Adobe Illustrator 19.0.0, SVG Export Plug-In . SVG Version: 6.00 Build 0)  -->
<svg version="1.1" id="Layer_1" xmlns="http://www.w3.org/2000/svg" xmlns:xlink="http://www.w3.org/1999/xlink" x="0px" y="0px"
	 viewBox="0 0 30 30" style="enable-background:new 0 0 30 30;" xml:space="preserve">
<g>
	<rect x="17" y="8" width="3" height="13"/>
	<path d="M20,7V5c0-0.8-0.7-1.5-1.5-1.5S17,4.2,17,5v2H20z"/>
	<path d="M25.5,0h-14c-0.1,0-0.1,0-0.2,0c-0.1,0-0.1,0.1-0.2,0.1l-7,7c0,0-0.1,0.1-0.1,0.2c0,0.1,0,0.1,0,0.2v22
		C4,29.8,4.2,30,4.5,30h21c0.3,0,0.5-0.2,0.5-0.5v-29C26,0.2,25.8,0,25.5,0z M11,7H5.7L11,1.7V7z M21,21.5c0,0.1,0,0.1,0,0.2
		c0,0,0,0,0,0l0,0c0,0,0,0,0,0l-2,5c-0.1,0.2-0.3,0.3-0.5,0.3s-0.4-0.1-0.5-0.3l-2-5c0,0,0,0,0,0l0,0c0,0,0,0,0,0c0-0.1,0-0.1,0-0.2
		V5c0-1.3,1.2-2.5,2.5-2.5S21,3.7,21,5V21.5z"/>
	<polygon points="18.5,25.2 19.8,22 17.2,22 	"/>
</g>
</svg>
