<?xml version="1.0" encoding="utf-8"?>
<!-- Generator: Adobe Illustrator 19.0.0, SVG Export Plug-In . SVG Version: 6.00 Build 0)  -->
<svg version="1.1" id="Layer_1" xmlns="http://www.w3.org/2000/svg" xmlns:xlink="http://www.w3.org/1999/xlink" x="0px" y="0px"
	 viewBox="0 0 30 30" style="enable-background:new 0 0 30 30;" xml:space="preserve">
<g>
	<path d="M27,2.5H3C1.6,2.5,0.5,3.6,0.5,5v15c0,1.4,1.1,2.5,2.5,2.5h5.2c0,0,0,0,0,0c0.3,0,0.5-0.2,0.5-0.5c0-0.1,0-0.2-0.1-0.3
		c-0.1-0.4-0.2-0.7-0.2-1c0-2.1,1.4-3.9,3.3-4.2c1-0.2,1.9,0.1,2.7,0.7c0.2,0.1,0.4,0.1,0.6,0c0.9-0.6,1.9-0.9,3-0.7
		c1.9,0.3,3.3,2.1,3.3,4.1c0,0.4-0.1,0.8-0.2,1.2c0,0.2,0,0.3,0.1,0.4c0.1,0.1,0.2,0.2,0.4,0.2H27c1.4,0,2.5-1.1,2.5-2.5V5
		C29.5,3.6,28.4,2.5,27,2.5z M11,13.4l-6.8,6c-0.1,0.1-0.2,0.1-0.3,0.1c-0.1,0-0.3-0.1-0.4-0.2c-0.2-0.2-0.2-0.5,0-0.7l6.8-6
		c0.2-0.2,0.5-0.2,0.7,0C11.2,12.9,11.2,13.2,11,13.4z M16.7,12.9c-0.5,0.4-1.3,0.6-2,0.6c-0.7,0-1.4-0.2-2-0.6L3.6,6.4
		C3.4,6.2,3.3,5.9,3.5,5.7s0.5-0.3,0.7-0.1l9.2,6.5c0.8,0.5,2,0.5,2.8,0l9.7-6.5c0.2-0.2,0.5-0.1,0.7,0.1c0.2,0.2,0.1,0.5-0.1,0.7
		L16.7,12.9z M26.5,19.3c-0.1,0.1-0.2,0.2-0.4,0.2c-0.1,0-0.2,0-0.3-0.1l-6.8-6c-0.2-0.2-0.2-0.5,0-0.7c0.2-0.2,0.5-0.2,0.7,0l6.8,6
		C26.6,18.8,26.7,19.1,26.5,19.3z"/>
	<path d="M18,17.5c-0.9-0.1-1.8,0.1-2.4,0.7c-0.3,0.2-0.5,0.5-0.7,0.8c-0.2-0.3-0.4-0.6-0.7-0.8c-0.6-0.6-1.4-0.8-2.2-0.7
		c-1.4,0.2-2.5,1.6-2.5,3.2c0,0.8,0.3,1.6,0.9,2.1l4.3,4.5c0.1,0.1,0.2,0.2,0.4,0.2s0.3-0.1,0.4-0.2l4.3-4.5
		c0.6-0.6,0.9-1.3,0.9-2.2C20.5,19.1,19.4,17.8,18,17.5z"/>
</g>
</svg>
