<?xml version="1.0" encoding="utf-8"?>
<!-- Generator: Adobe Illustrator 19.0.0, SVG Export Plug-In . SVG Version: 6.00 Build 0)  -->
<svg version="1.1" id="Layer_1" xmlns="http://www.w3.org/2000/svg" xmlns:xlink="http://www.w3.org/1999/xlink" x="0px" y="0px"
	 viewBox="0 0 30 30" style="enable-background:new 0 0 30 30;" xml:space="preserve">
<g>
	<path d="M9.5,28h-3C6.2,28,6,28.2,6,28.5v1C6,29.8,6.2,30,6.5,30h3c0.3,0,0.5-0.2,0.5-0.5v-1C10,28.2,9.8,28,9.5,28z"/>
	<path d="M22.5,28h-3c-0.3,0-0.5,0.2-0.5,0.5v1c0,0.3,0.2,0.5,0.5,0.5h3c0.3,0,0.5-0.2,0.5-0.5v-1C23,28.2,22.8,28,22.5,28z"/>
	<path d="M24.5,8L23,8c0,0,0,0,0,0H6c0,0,0,0,0,0L5.5,8C4.7,8,4,8.7,4,9.5C4,10.3,4.7,11,5.5,11H6h17h1.5c0.8,0,1.5-0.7,1.5-1.5
		C26,8.7,25.3,8,24.5,8z"/>
	<path d="M14.5,0c-3.9,0-7.6,3.2-8.3,7h16.7C22.1,3.2,18.4,0,14.5,0z M16.5,6h-4C12.2,6,12,5.8,12,5.5S12.2,5,12.5,5h4
		C16.8,5,17,5.2,17,5.5S16.8,6,16.5,6z"/>
	<path d="M10.5,21h8c0.3,0,0.5-0.2,0.5-0.5v-3.9l-4.2,3.3C14.7,20,14.6,20,14.5,20s-0.2,0-0.3-0.1L10,16.6v3.9
		C10,20.8,10.2,21,10.5,21z"/>
	<polygon points="18.2,16 10.8,16 14.5,18.9 	"/>
	<path d="M6,26.5C6,26.8,6.2,27,6.5,27h16c0.3,0,0.5-0.2,0.5-0.5V12H6V26.5z M9,16.5c0-0.8,0.7-1.5,1.5-1.5h8c0.8,0,1.5,0.7,1.5,1.5
		v4c0,0.8-0.7,1.5-1.5,1.5h-8C9.7,22,9,21.3,9,20.5V16.5z"/>
</g>
</svg>
