<?xml version="1.0" encoding="utf-8"?>
<!-- Generator: Adobe Illustrator 19.0.0, SVG Export Plug-In . SVG Version: 6.00 Build 0)  -->
<svg version="1.1" id="Layer_1" xmlns="http://www.w3.org/2000/svg" xmlns:xlink="http://www.w3.org/1999/xlink" x="0px" y="0px"
	 viewBox="0 0 30 30" style="enable-background:new 0 0 30 30;" xml:space="preserve">
<g>
	<path d="M27,3.5H3C1.6,3.5,0.5,4.6,0.5,6v15c0,1.4,1.1,2.5,2.5,2.5h7.3c0,0,0,0,0,0c0.3,0,0.5-0.2,0.5-0.5c0-0.1-0.1-0.3-0.1-0.3
		c-0.1-0.2-0.2-0.4-0.2-0.7c0-0.3,0.1-0.5,0.2-0.7c0.1-0.2,0.1-0.3,0-0.5c-0.1-0.2-0.2-0.5-0.2-0.7c0-0.8,0.7-1.5,1.5-1.5h6
		c0.8,0,1.5,0.7,1.5,1.5c0,0.3-0.1,0.5-0.2,0.7c-0.1,0.2-0.1,0.3,0,0.5c0.1,0.2,0.2,0.5,0.2,0.7s-0.1,0.5-0.2,0.7
		c-0.1,0.2-0.1,0.3,0,0.5s0.3,0.3,0.4,0.3H27c1.4,0,2.5-1.1,2.5-2.5V6C29.5,4.6,28.4,3.5,27,3.5z M11,14.4l-6.8,6
		c-0.1,0.1-0.2,0.1-0.3,0.1c-0.1,0-0.3-0.1-0.4-0.2c-0.2-0.2-0.2-0.5,0-0.7l6.8-6c0.2-0.2,0.5-0.2,0.7,0
		C11.2,13.9,11.2,14.2,11,14.4z M16.7,13.9c-0.5,0.4-1.3,0.6-2,0.6c-0.7,0-1.4-0.2-2-0.6L3.6,7.4C3.4,7.2,3.3,6.9,3.5,6.7
		c0.2-0.2,0.5-0.3,0.7-0.1l9.2,6.5c0.8,0.5,2,0.5,2.8,0l9.7-6.5c0.2-0.2,0.5-0.1,0.7,0.1c0.2,0.2,0.1,0.5-0.1,0.7L16.7,13.9z
		 M26.5,20.3c-0.1,0.1-0.2,0.2-0.4,0.2c-0.1,0-0.2,0-0.3-0.1l-6.8-6c-0.2-0.2-0.2-0.5,0-0.7c0.2-0.2,0.5-0.2,0.7,0l6.8,6
		C26.6,19.8,26.7,20.1,26.5,20.3z"/>
	<g>
		<path d="M18,26.5h-6c-0.3,0-0.5-0.2-0.5-0.5s0.2-0.5,0.5-0.5h6c0.3,0,0.5,0.2,0.5,0.5S18.3,26.5,18,26.5z"/>
	</g>
	<g>
		<path d="M18,24.5h-6c-0.3,0-0.5-0.2-0.5-0.5s0.2-0.5,0.5-0.5h6c0.3,0,0.5,0.2,0.5,0.5S18.3,24.5,18,24.5z"/>
	</g>
	<g>
		<path d="M18,22.5h-6c-0.3,0-0.5-0.2-0.5-0.5s0.2-0.5,0.5-0.5h6c0.3,0,0.5,0.2,0.5,0.5S18.3,22.5,18,22.5z"/>
	</g>
	<g>
		<path d="M18,20.5h-6c-0.3,0-0.5-0.2-0.5-0.5s0.2-0.5,0.5-0.5h6c0.3,0,0.5,0.2,0.5,0.5S18.3,20.5,18,20.5z"/>
	</g>
</g>
</svg>
