<?xml version="1.0" encoding="utf-8"?>
<!-- Generator: Adobe Illustrator 19.0.0, SVG Export Plug-In . SVG Version: 6.00 Build 0)  -->
<svg version="1.1" id="Layer_1" xmlns="http://www.w3.org/2000/svg" xmlns:xlink="http://www.w3.org/1999/xlink" x="0px" y="0px"
	 viewBox="0 0 30 30" style="enable-background:new 0 0 30 30;" xml:space="preserve">
<g>
	<path d="M4,15c0-0.4,0.2-0.8,0.5-1.1L14,5.1V2c0-0.2-0.1-0.4-0.3-0.5c-0.2-0.1-0.4,0-0.5,0.1l-13,13c-0.2,0.2-0.2,0.5,0,0.7l13,13
		c0.1,0.1,0.2,0.1,0.4,0.1c0.1,0,0.1,0,0.2,0c0.2-0.1,0.3-0.3,0.3-0.5v-3.1l-9.5-8.8C4.2,15.8,4,15.4,4,15z"/>
	<path d="M24.9,12.7c-2.3-1.8-4.8-2.1-5.9-2.2V3c0-0.2-0.1-0.4-0.3-0.5c-0.2-0.1-0.4,0-0.5,0.1L14,6.5v0l-8.8,8.2
		C5.1,14.7,5,14.9,5,15s0.1,0.3,0.2,0.4l8.8,8.2v0l4.2,3.8c0.1,0.1,0.2,0.1,0.3,0.1c0.1,0,0.1,0,0.2,0c0.2-0.1,0.3-0.3,0.3-0.5v-7.5
		c1.9,0.1,8.3,0.7,10,6.6c0.1,0.2,0.3,0.4,0.6,0.4c0.2,0,0.4-0.2,0.4-0.5C30,19.7,28.3,15.3,24.9,12.7z"/>
</g>
</svg>
