<?xml version="1.0" encoding="iso-8859-1"?>
<!-- Generator: Adobe Illustrator 19.0.0, SVG Export Plug-In . SVG Version: 6.00 Build 0)  -->
<svg version="1.1" id="Layer_1" xmlns="http://www.w3.org/2000/svg" xmlns:xlink="http://www.w3.org/1999/xlink" x="0px" y="0px"
	 viewBox="0 0 24 24" style="enable-background:new 0 0 24 24;" xml:space="preserve">
<g>
	<g>
		<path d="M23.001,13.5c-0.082,0-0.165-0.02-0.241-0.063c-0.241-0.132-0.33-0.436-0.198-0.678C22.566,12.751,23,11.943,23,10.833
			c0-1.746-1.476-3.167-3.289-3.167c-0.046,0-0.089,0.007-0.133,0.013l-0.146,0.017c-0.228,0.01-0.436-0.117-0.512-0.33
			C18.198,5.353,16.231,4,14.026,4c-1.965,0-3.762,1.068-4.578,2.721c-0.122,0.25-0.426,0.347-0.67,0.227
			C8.531,6.826,8.43,6.526,8.552,6.279C9.535,4.287,11.684,3,14.026,3c2.492,0,4.731,1.458,5.692,3.667
			C22.08,6.67,24,8.539,24,10.833c0,1.379-0.54,2.368-0.563,2.409C23.346,13.407,23.176,13.5,23.001,13.5z"/>
	</g>
	<g>
		<path d="M18.5,21h-14C2.019,21,0,18.981,0,16.5c0-1.964,1.264-3.674,3.113-4.271C3.724,8.655,6.842,6,10.5,6
			c2.869,0,5.46,1.623,6.722,4.169C17.666,10.056,18.088,10,18.5,10c3.032,0,5.5,2.467,5.5,5.5S21.532,21,18.5,21z M10.5,7
			c-3.267,0-6.037,2.444-6.443,5.685c-0.025,0.207-0.177,0.375-0.379,0.424C2.102,13.49,1,14.885,1,16.5C1,18.43,2.57,20,4.5,20h14
			c2.481,0,4.5-2.019,4.5-4.5S20.981,11,18.5,11c-0.436,0-0.893,0.081-1.397,0.246c-0.242,0.082-0.514-0.041-0.615-0.28
			C15.466,8.557,13.116,7,10.5,7z"/>
	</g>
</g>
<g>
</g>
<g>
</g>
<g>
</g>
<g>
</g>
<g>
</g>
<g>
</g>
<g>
</g>
<g>
</g>
<g>
</g>
<g>
</g>
<g>
</g>
<g>
</g>
<g>
</g>
<g>
</g>
<g>
</g>
</svg>
