<?xml version="1.0" encoding="iso-8859-1"?>
<!-- Generator: Adobe Illustrator 19.0.0, SVG Export Plug-In . SVG Version: 6.00 Build 0)  -->
<svg version="1.1" id="Layer_1" xmlns="http://www.w3.org/2000/svg" xmlns:xlink="http://www.w3.org/1999/xlink" x="0px" y="0px"
	 viewBox="0 0 24 24" style="enable-background:new 0 0 24 24;" xml:space="preserve">
<g>
	<g>
		<path d="M13.998,17.5c-0.801,0-1.224-0.338-1.563-0.609c-0.283-0.227-0.488-0.391-0.938-0.391c-0.449,0-0.643,0.155-0.937,0.39
			c-0.34,0.272-0.762,0.61-1.563,0.61c-0.8,0-1.222-0.338-1.561-0.609C7.143,16.655,6.949,16.5,6.5,16.5C6.224,16.5,6,16.276,6,16
			s0.224-0.5,0.5-0.5c0.8,0,1.223,0.338,1.562,0.61c0.293,0.235,0.487,0.39,0.936,0.39c0.449,0,0.644-0.155,0.938-0.391
			c0.34-0.271,0.762-0.609,1.562-0.609c0.801,0,1.224,0.338,1.563,0.609c0.283,0.227,0.488,0.391,0.938,0.391
			s0.655-0.164,0.938-0.391c0.34-0.271,0.763-0.609,1.563-0.609c0.276,0,0.5,0.224,0.5,0.5s-0.224,0.5-0.5,0.5
			c-0.45,0-0.655,0.164-0.938,0.391C15.222,17.162,14.799,17.5,13.998,17.5z"/>
	</g>
	<g>
		<path d="M13.998,20.5c-0.801,0-1.224-0.338-1.563-0.609c-0.283-0.227-0.488-0.391-0.938-0.391c-0.449,0-0.643,0.155-0.937,0.39
			c-0.34,0.272-0.762,0.61-1.563,0.61c-0.8,0-1.222-0.338-1.561-0.609C7.143,19.655,6.949,19.5,6.5,19.5C6.224,19.5,6,19.276,6,19
			s0.224-0.5,0.5-0.5c0.8,0,1.223,0.338,1.562,0.61c0.293,0.235,0.487,0.39,0.936,0.39c0.449,0,0.644-0.155,0.938-0.391
			c0.34-0.271,0.762-0.609,1.562-0.609c0.801,0,1.224,0.338,1.563,0.609c0.283,0.227,0.488,0.391,0.938,0.391
			s0.655-0.164,0.938-0.391c0.34-0.271,0.763-0.609,1.563-0.609c0.276,0,0.5,0.224,0.5,0.5s-0.224,0.5-0.5,0.5
			c-0.45,0-0.655,0.164-0.938,0.391C15.222,20.162,14.799,20.5,13.998,20.5z"/>
	</g>
	<g>
		<path d="M13.998,23.5c-0.801,0-1.224-0.338-1.563-0.609c-0.283-0.227-0.488-0.391-0.938-0.391c-0.449,0-0.643,0.155-0.937,0.39
			c-0.34,0.272-0.762,0.61-1.563,0.61c-0.8,0-1.222-0.338-1.561-0.609C7.143,22.655,6.949,22.5,6.5,22.5C6.224,22.5,6,22.276,6,22
			s0.224-0.5,0.5-0.5c0.8,0,1.223,0.338,1.562,0.61c0.293,0.235,0.487,0.39,0.936,0.39c0.449,0,0.644-0.155,0.938-0.391
			c0.34-0.271,0.762-0.609,1.562-0.609c0.801,0,1.224,0.338,1.563,0.609c0.283,0.227,0.488,0.391,0.938,0.391
			s0.655-0.164,0.938-0.391c0.34-0.271,0.763-0.609,1.563-0.609c0.276,0,0.5,0.224,0.5,0.5s-0.224,0.5-0.5,0.5
			c-0.45,0-0.655,0.164-0.938,0.391C15.222,23.162,14.799,23.5,13.998,23.5z"/>
	</g>
	<g>
		<g>
			<g>
				<path d="M22.5,11.5c-0.144,0-0.287-0.062-0.386-0.182c-0.176-0.213-0.146-0.528,0.067-0.704C22.748,10.148,23,9.188,23,7.5
					c0-3.309-2.691-6-6-6c-0.272,0-0.544,0.019-0.814,0.057C18.211,2.817,19.5,5.062,19.5,7.5c0,0.348-0.025,0.698-0.077,1.041
					c-0.04,0.273-0.298,0.458-0.567,0.421c-0.273-0.041-0.462-0.295-0.421-0.568C18.478,8.099,18.5,7.799,18.5,7.5
					c0-2.496-1.577-4.755-3.924-5.623C14.38,1.805,14.25,1.618,14.25,1.408s0.131-0.396,0.327-0.469C15.366,0.648,16.182,0.5,17,0.5
					c3.859,0,7,3.14,7,7c0,2.041-0.354,3.203-1.182,3.886C22.725,11.462,22.612,11.5,22.5,11.5z"/>
			</g>
			<g>
				<path d="M18.5,19.5c-0.276,0-0.5-0.224-0.5-0.5s0.224-0.5,0.5-0.5c2.481,0,4.5-2.019,4.5-4.5s-2.019-4.5-4.5-4.5
					c-0.436,0-0.893,0.081-1.397,0.246c-0.243,0.083-0.514-0.041-0.615-0.28C15.466,7.057,13.116,5.5,10.5,5.5
					c-3.267,0-6.037,2.444-6.443,5.685c-0.025,0.207-0.177,0.375-0.379,0.424C2.102,11.99,1,13.385,1,15c0,1.93,1.57,3.5,3.5,3.5
					C4.776,18.5,5,18.724,5,19s-0.224,0.5-0.5,0.5C2.019,19.5,0,17.481,0,15c0-1.964,1.264-3.674,3.113-4.271
					C3.724,7.155,6.842,4.5,10.5,4.5c2.869,0,5.46,1.623,6.722,4.169C17.666,8.556,18.088,8.5,18.5,8.5c3.032,0,5.5,2.467,5.5,5.5
					S21.532,19.5,18.5,19.5z"/>
			</g>
		</g>
	</g>
</g>
<g>
</g>
<g>
</g>
<g>
</g>
<g>
</g>
<g>
</g>
<g>
</g>
<g>
</g>
<g>
</g>
<g>
</g>
<g>
</g>
<g>
</g>
<g>
</g>
<g>
</g>
<g>
</g>
<g>
</g>
</svg>
