<?xml version="1.0" encoding="iso-8859-1"?>
<!-- Generator: Adobe Illustrator 19.0.0, SVG Export Plug-In . SVG Version: 6.00 Build 0)  -->
<svg version="1.1" id="Layer_1" xmlns="http://www.w3.org/2000/svg" xmlns:xlink="http://www.w3.org/1999/xlink" x="0px" y="0px"
	 viewBox="0 0 24 24" style="enable-background:new 0 0 24 24;" xml:space="preserve">
<g>
	<g>
		<g>
			<path d="M3.5,24C1.57,24,0,22.43,0,20.5c0-0.905,0.362-1.78,1-2.434V2.5C1,1.122,2.121,0,3.5,0S6,1.122,6,2.5v15.566
				c0.638,0.654,1,1.529,1,2.434C7,22.43,5.43,24,3.5,24z M3.5,1C2.673,1,2,1.673,2,2.5v15.778c0,0.142-0.06,0.276-0.165,0.372
				C1.297,19.135,1,19.792,1,20.5C1,21.878,2.121,23,3.5,23S6,21.878,6,20.5c0-0.708-0.297-1.365-0.835-1.85
				C5.06,18.555,5,18.42,5,18.278V2.5C5,1.673,4.327,1,3.5,1z"/>
		</g>
		<g>
			<path d="M3.5,22C2.673,22,2,21.327,2,20.5S2.673,19,3.5,19S5,19.673,5,20.5S4.327,22,3.5,22z M3.5,20C3.225,20,3,20.224,3,20.5
				S3.225,21,3.5,21S4,20.776,4,20.5S3.775,20,3.5,20z"/>
		</g>
		<g>
			<path d="M3.5,20C3.224,20,3,19.776,3,19.5v-10C3,9.224,3.224,9,3.5,9S4,9.224,4,9.5v10C4,19.776,3.776,20,3.5,20z"/>
		</g>
	</g>
	<g>
		<g>
			<path d="M12.5,19C8.364,19,5,15.636,5,11.5S8.364,4,12.5,4S20,7.364,20,11.5S16.636,19,12.5,19z M12.5,5C8.916,5,6,7.916,6,11.5
				S8.916,18,12.5,18s6.5-2.916,6.5-6.5S16.084,5,12.5,5z"/>
		</g>
		<g>
			<path d="M12.5,3C12.224,3,12,2.776,12,2.5v-2C12,0.224,12.224,0,12.5,0S13,0.224,13,0.5v2C13,2.776,12.776,3,12.5,3z"/>
		</g>
		<g>
			<path d="M12.5,23c-0.276,0-0.5-0.224-0.5-0.5v-2c0-0.276,0.224-0.5,0.5-0.5s0.5,0.224,0.5,0.5v2C13,22.776,12.776,23,12.5,23z"/>
		</g>
		<g>
			<path d="M8,4.206c-0.172,0-0.341-0.089-0.433-0.25l-1-1.732C6.429,1.984,6.511,1.679,6.75,1.541
				c0.239-0.138,0.545-0.057,0.683,0.183l1,1.732C8.571,3.695,8.489,4,8.25,4.139C8.171,4.184,8.085,4.206,8,4.206z"/>
		</g>
		<g>
			<path d="M18,21.526c-0.172,0-0.341-0.089-0.433-0.25l-1-1.732c-0.139-0.239-0.057-0.545,0.183-0.683
				c0.238-0.138,0.545-0.057,0.683,0.183l1,1.732c0.139,0.239,0.057,0.545-0.183,0.683C18.171,21.505,18.085,21.526,18,21.526z"/>
		</g>
		<g>
			<path d="M22.026,17.5c-0.085,0-0.171-0.021-0.25-0.067l-1.732-1c-0.239-0.138-0.321-0.444-0.183-0.683
				c0.138-0.238,0.444-0.32,0.683-0.183l1.732,1c0.239,0.138,0.321,0.444,0.183,0.683C22.367,17.41,22.198,17.5,22.026,17.5z"/>
		</g>
		<g>
			<path d="M23.5,12h-2c-0.276,0-0.5-0.224-0.5-0.5s0.224-0.5,0.5-0.5h2c0.276,0,0.5,0.224,0.5,0.5S23.776,12,23.5,12z"/>
		</g>
		<g>
			<path d="M20.294,7.5c-0.172,0-0.341-0.09-0.433-0.25c-0.139-0.239-0.057-0.545,0.183-0.683l1.732-1
				c0.239-0.139,0.545-0.057,0.683,0.183c0.139,0.239,0.057,0.545-0.183,0.683l-1.732,1C20.465,7.479,20.379,7.5,20.294,7.5z"/>
		</g>
		<g>
			<path d="M7,21.526c-0.085,0-0.171-0.021-0.25-0.067c-0.239-0.138-0.321-0.444-0.183-0.683l1-1.732
				c0.138-0.239,0.444-0.32,0.683-0.183C8.489,19,8.571,19.305,8.433,19.544l-1,1.732C7.341,21.437,7.172,21.526,7,21.526z"/>
		</g>
		<g>
			<path d="M17,4.206c-0.085,0-0.171-0.021-0.25-0.067C16.511,4,16.429,3.695,16.567,3.456l1-1.732
				c0.138-0.24,0.445-0.319,0.683-0.183c0.239,0.138,0.321,0.444,0.183,0.683l-1,1.732C17.341,4.116,17.172,4.206,17,4.206z"/>
		</g>
	</g>
</g>
<g>
</g>
<g>
</g>
<g>
</g>
<g>
</g>
<g>
</g>
<g>
</g>
<g>
</g>
<g>
</g>
<g>
</g>
<g>
</g>
<g>
</g>
<g>
</g>
<g>
</g>
<g>
</g>
<g>
</g>
</svg>
