<?xml version="1.0" encoding="utf-8"?>
<!-- Generator: Adobe Illustrator 19.0.0, SVG Export Plug-In . SVG Version: 6.00 Build 0)  -->
<svg version="1.1" id="Layer_1" xmlns="http://www.w3.org/2000/svg" xmlns:xlink="http://www.w3.org/1999/xlink" x="0px" y="0px"
	 viewBox="0 0 30 30" style="enable-background:new 0 0 30 30;" xml:space="preserve">
<g>
	<path d="M29.5,20l0-16.5c0-1.7-1.4-3-3-3H3.5c-1.7,0-3,1.4-3,3V20v1.5c0,1.7,1.4,3,3,3h10v2H8c-1.4,0-2.5,1.1-2.5,2.5
		c0,0.3,0.2,0.5,0.5,0.5h18c0,0,0,0,0,0c0.3,0,0.5-0.2,0.5-0.5c0-0.1,0-0.1,0-0.2c-0.1-1.3-1.2-2.3-2.5-2.3h-5.5v-2h10
		c1.7,0,3-1.4,3-3L29.5,20z M1.5,3.5c0-1.1,0.9-2,2-2h22.9c1.1,0,2,0.9,2,2l0,16h-27V3.5z M26,22.5c-0.3,0-0.5-0.2-0.5-0.5
		s0.2-0.5,0.5-0.5h0c0.3,0,0.5,0.2,0.5,0.5S26.3,22.5,26,22.5z"/>
	<path d="M20.2,6.5l-5-2c-0.1,0-0.3,0-0.4,0l-5,2C9.6,6.6,9.5,6.8,9.5,7v7c0,1.9,4.4,4,5.3,4.5c0.1,0,0.1,0,0.2,0s0.1,0,0.2,0
		c0.9-0.4,5.3-2.6,5.3-4.5V7C20.5,6.8,20.4,6.6,20.2,6.5z M17.5,13c0,0.1-0.1,0.3-0.2,0.4l-0.2,0.2c-0.4,0.4-0.9,0.9-1.9,1.4
		C15.1,15,15.1,15,15,15c-0.1,0-0.2,0-0.3-0.1c-0.1-0.1-0.2-0.3-0.2-0.4v-3H13c-0.3,0-0.5-0.2-0.5-0.5V8.5c0-0.2,0.1-0.4,0.3-0.4
		l2-1c0.2-0.1,0.3-0.1,0.5,0c0.1,0.1,0.2,0.3,0.2,0.4v3H17c0.3,0,0.5,0.2,0.5,0.5L17.5,13L17.5,13z"/>
</g>
</svg>
