<?xml version="1.0" encoding="utf-8"?>
<!-- Generator: Adobe Illustrator 19.0.0, SVG Export Plug-In . SVG Version: 6.00 Build 0)  -->
<svg version="1.1" id="Layer_1" xmlns="http://www.w3.org/2000/svg" xmlns:xlink="http://www.w3.org/1999/xlink" x="0px" y="0px"
	 viewBox="0 0 30 30" style="enable-background:new 0 0 30 30;" xml:space="preserve">
<g>
	<path d="M22.5,15c0.3,0,0.5-0.2,0.5-0.5v-14C23,0.2,22.8,0,22.5,0h-12c-0.1,0-0.1,0-0.2,0c-0.1,0-0.1,0.1-0.2,0.1l-8,8
		c0,0-0.1,0.1-0.1,0.2c0,0.1,0,0.1,0,0.2v18C2,26.8,2.2,27,2.5,27h13.2c0.2,0,0.3-0.1,0.4-0.2c0.1-0.1,0.1-0.3,0.1-0.5
		C16.1,26,16,25.8,16,25.5v-7c0-0.6,0.4-1.2,0.9-1.4l5-2C22.1,15,22.3,15,22.5,15z M10,8H3.7L10,1.7V8z"/>
	<path d="M27.7,18l-5-2c-0.1,0-0.3,0-0.4,0l-5,2c-0.2,0.1-0.3,0.3-0.3,0.5v7c0,1.9,4.4,4,5.3,4.5c0.1,0,0.1,0,0.2,0s0.1,0,0.2,0
		c0.9-0.4,5.3-2.6,5.3-4.5v-7C28,18.3,27.9,18.1,27.7,18z M25,24.5c0,0.1-0.1,0.3-0.2,0.4l-0.2,0.2c-0.4,0.4-0.9,0.9-1.9,1.4
		c-0.1,0-0.1,0.1-0.2,0.1c-0.1,0-0.2,0-0.3-0.1C22.1,26.3,22,26.2,22,26v-3h-1.5c-0.3,0-0.5-0.2-0.5-0.5V20c0-0.2,0.1-0.4,0.3-0.4
		l2-1c0.2-0.1,0.3-0.1,0.5,0c0.1,0.1,0.2,0.3,0.2,0.4v3h1.5c0.3,0,0.5,0.2,0.5,0.5V24.5z"/>
</g>
</svg>
