<?xml version="1.0" encoding="utf-8"?>
<!-- Generator: Adobe Illustrator 19.0.0, SVG Export Plug-In . SVG Version: 6.00 Build 0)  -->
<svg version="1.1" id="Layer_1" xmlns="http://www.w3.org/2000/svg" xmlns:xlink="http://www.w3.org/1999/xlink" x="0px" y="0px"
	 viewBox="0 0 30 30" style="enable-background:new 0 0 30 30;" xml:space="preserve">
<g>
	<path d="M2.5,2.1C2.9,2,3.2,2,3.5,2H7c1.7,0,3.2,1.1,3.8,2.7c0,0,0,0.1,0,0.2l0.1,0.3c0,0.2,0.2,0.3,0.4,0.4L13.6,6h12.9
		c0.4,0,0.9,0.1,1.3,0.2c0.1,0,0.1,0,0.2,0c0.1,0,0.2,0,0.3-0.1c0.1-0.1,0.2-0.2,0.2-0.4V3c0-1.7-1.3-3-3-3h-21c-1,0-2,0.5-2.5,1.4
		C1.9,1.6,1.9,1.8,2,1.9C2.1,2.1,2.3,2.2,2.5,2.1z"/>
	<path d="M26.5,7H11.9C11,7,10.2,6.4,10,5.7L9.8,5.1C9.4,3.8,8.3,3,7,3H3.5c-1.7,0-3,1.3-3,3v15c0,1.7,1.3,3,3,3H8
		c0.3,0,0.5-0.2,0.5-0.5v-5c0-0.6,0.4-1.2,0.9-1.4l5-2c0.4-0.1,0.8-0.1,1.1,0l5,2c0.6,0.2,0.9,0.8,0.9,1.4v5c0,0.3,0.2,0.5,0.5,0.5
		h4.5c1.7,0,3-1.3,3-3V10C29.5,8.3,28.2,7,26.5,7z"/>
	<path d="M20.2,18l-5-2c-0.1,0-0.3,0-0.4,0l-5,2c-0.2,0.1-0.3,0.3-0.3,0.5v7c0,1.9,4.4,4,5.3,4.5c0.1,0,0.1,0,0.2,0s0.1,0,0.2,0
		c0.9-0.4,5.3-2.6,5.3-4.5v-7C20.5,18.3,20.4,18.1,20.2,18z M17.5,24.5c0,0.1-0.1,0.3-0.2,0.4l-0.2,0.2c-0.4,0.4-0.9,0.9-1.9,1.4
		c-0.1,0-0.1,0.1-0.2,0.1c-0.1,0-0.2,0-0.3-0.1c-0.1-0.1-0.2-0.3-0.2-0.4v-3H13c-0.3,0-0.5-0.2-0.5-0.5V20c0-0.2,0.1-0.4,0.3-0.4
		l2-1c0.2-0.1,0.3-0.1,0.5,0c0.1,0.1,0.2,0.3,0.2,0.4v3H17c0.3,0,0.5,0.2,0.5,0.5V24.5z"/>
</g>
</svg>
