<?xml version="1.0" encoding="utf-8"?>
<!-- Generator: Adobe Illustrator 19.0.0, SVG Export Plug-In . SVG Version: 6.00 Build 0)  -->
<svg version="1.1" id="Layer_1" xmlns="http://www.w3.org/2000/svg" xmlns:xlink="http://www.w3.org/1999/xlink" x="0px" y="0px"
	 viewBox="0 0 30 30" style="enable-background:new 0 0 30 30;" xml:space="preserve">
<g>
	<path d="M22.5,0h-15c-1.7,0-3,1.4-3,3v21.5V27c0,1.7,1.3,3,3,3h15c1.7,0,3-1.4,3-3v-2.5V3C25.5,1.4,24.2,0,22.5,0z M5.5,3
		c0-1.1,0.9-2,2-2h15c1.1,0,2,0.9,2,2v21h-19V3z M17,27h-3c-0.3,0-0.5-0.2-0.5-0.5S13.7,26,14,26h3c0.3,0,0.5,0.2,0.5,0.5
		S17.3,27,17,27z"/>
	<path d="M20.2,8l-5-2c-0.1,0-0.3,0-0.4,0l-5,2C9.6,8.1,9.5,8.3,9.5,8.5v7c0,1.9,4.4,4,5.3,4.5c0.1,0,0.1,0,0.2,0s0.1,0,0.2,0
		c0.9-0.4,5.3-2.6,5.3-4.5v-7C20.5,8.3,20.4,8.1,20.2,8z M17.5,14.5c0,0.1-0.1,0.3-0.2,0.4l-0.2,0.2c-0.4,0.4-0.9,0.9-1.9,1.4
		c-0.1,0-0.1,0.1-0.2,0.1c-0.1,0-0.2,0-0.3-0.1c-0.1-0.1-0.2-0.3-0.2-0.4v-3H13c-0.3,0-0.5-0.2-0.5-0.5V10c0-0.2,0.1-0.4,0.3-0.4
		l2-1c0.2-0.1,0.3-0.1,0.5,0c0.1,0.1,0.2,0.3,0.2,0.4v3H17c0.3,0,0.5,0.2,0.5,0.5V14.5z"/>
	<circle cx="7" cy="2.5" r="0.5"/>
</g>
</svg>
