<?xml version="1.0" encoding="iso-8859-1"?>
<!-- Generator: Adobe Illustrator 19.0.0, SVG Export Plug-In . SVG Version: 6.00 Build 0)  -->
<svg version="1.1" id="Layer_1" xmlns="http://www.w3.org/2000/svg" xmlns:xlink="http://www.w3.org/1999/xlink" x="0px" y="0px"
	 viewBox="0 0 30 30" style="enable-background:new 0 0 30 30;" xml:space="preserve">
<g>
	<g>
		<path d="M25.5,0h-13c-0.065,0-0.13,0.013-0.191,0.038c-0.062,0.025-0.117,0.062-0.163,0.109L4.147,8.146
			C4.101,8.192,4.064,8.248,4.038,8.309C4.013,8.37,4,8.435,4,8.5v21C4,29.776,4.224,30,4.5,30h21c0.276,0,0.5-0.224,0.5-0.5v-29
			C26,0.224,25.776,0,25.5,0z M12,1.707V8H5.707L12,1.707z M9.001,24.5H9C9,24.776,8.776,25,8.5,25S8,24.776,8,24.5v-2.793
			l-0.146,0.146c-0.195,0.195-0.512,0.195-0.707,0c-0.195-0.195-0.195-0.512,0-0.707l1-1c0.143-0.144,0.36-0.187,0.545-0.108
			c0.187,0.077,0.309,0.26,0.309,0.462V24.5z M10.5,17h-3C7.224,17,7,16.776,7,16.5v-4C7,12.224,7.224,12,7.5,12h3
			c0.276,0,0.5,0.224,0.5,0.5v4C11,16.776,10.776,17,10.5,17z M15,24.5c0,0.276-0.224,0.5-0.5,0.5h-3c-0.276,0-0.5-0.224-0.5-0.5v-4
			c0-0.276,0.224-0.5,0.5-0.5h3c0.276,0,0.5,0.224,0.5,0.5V24.5z M15.001,16.5H15c0,0.276-0.224,0.5-0.5,0.5S14,16.776,14,16.5
			v-2.793l-0.146,0.146c-0.195,0.195-0.512,0.195-0.707,0c-0.195-0.195-0.195-0.512,0-0.707l1-1
			c0.144-0.143,0.359-0.187,0.545-0.108c0.187,0.077,0.309,0.26,0.309,0.462V16.5z M19.001,24.5H19c0,0.276-0.224,0.5-0.5,0.5
			S18,24.776,18,24.5v-2.793l-0.146,0.146c-0.195,0.195-0.512,0.195-0.707,0c-0.195-0.195-0.195-0.512,0-0.707l1-1
			c0.144-0.144,0.359-0.187,0.545-0.108c0.187,0.077,0.309,0.26,0.309,0.462V24.5z M19.001,16.5H19c0,0.276-0.224,0.5-0.5,0.5
			S18,16.776,18,16.5v-2.793l-0.146,0.146c-0.195,0.195-0.512,0.195-0.707,0c-0.195-0.195-0.195-0.512,0-0.707l1-1
			c0.144-0.143,0.359-0.187,0.545-0.108c0.187,0.077,0.309,0.26,0.309,0.462V16.5z M23.001,24.5H23c0,0.276-0.224,0.5-0.5,0.5
			S22,24.776,22,24.5v-2.793l-0.146,0.146c-0.195,0.195-0.512,0.195-0.707,0c-0.195-0.195-0.195-0.512,0-0.707l1-1
			c0.143-0.144,0.359-0.187,0.545-0.108c0.187,0.077,0.309,0.26,0.309,0.462V24.5z M23.001,16.5H23c0,0.276-0.224,0.5-0.5,0.5
			S22,16.776,22,16.5v-2.793l-0.146,0.146c-0.195,0.195-0.512,0.195-0.707,0c-0.195-0.195-0.195-0.512,0-0.707l1-1
			c0.143-0.143,0.359-0.187,0.545-0.108c0.187,0.077,0.309,0.26,0.309,0.462V16.5z M8,16h2v-3H8V16z M12,24h2v-3h-2V24z"/>
	</g>
</g>
</svg>
