<?xml version="1.0" encoding="iso-8859-1"?>
<!-- Generator: Adobe Illustrator 19.0.0, SVG Export Plug-In . SVG Version: 6.00 Build 0)  -->
<svg version="1.1" id="Layer_1" xmlns="http://www.w3.org/2000/svg" xmlns:xlink="http://www.w3.org/1999/xlink" x="0px" y="0px"
	 viewBox="0 0 30 30" style="enable-background:new 0 0 30 30;" xml:space="preserve">
<g>
	<g>
		<path d="M28.874,0.168C28.779,0.061,28.643,0,28.5,0h-27C1.357,0,1.221,0.061,1.126,0.168c-0.095,0.106-0.14,0.249-0.123,0.391
			l3,25.5c0.023,0.195,0.159,0.359,0.347,0.418l11.143,3.5c0.049,0.015,0.1,0.023,0.15,0.023c0.057,0,0.113-0.01,0.167-0.029
			l9.857-3.5c0.179-0.063,0.307-0.224,0.329-0.413l3-25.5C29.013,0.417,28.969,0.274,28.874,0.168z M20.99,21.101
			c-0.031,0.15-0.129,0.278-0.266,0.346l-5,2.5C15.654,23.982,15.577,24,15.5,24c-0.07,0-0.141-0.015-0.207-0.045l-5.5-2.5
			c-0.151-0.069-0.259-0.208-0.286-0.373l-0.5-3c-0.045-0.272,0.139-0.53,0.411-0.575c0.271-0.047,0.53,0.139,0.575,0.411
			l0.456,2.737l5.041,2.291l4.57-2.285L21.645,13H8.5C8.224,13,8,12.776,8,12.5S8.224,12,8.5,12h13.351l1.034-5H7.5
			C7.224,7,7,6.776,7,6.5S7.224,6,7.5,6h16c0.15,0,0.293,0.068,0.388,0.184c0.095,0.117,0.132,0.27,0.102,0.417L20.99,21.101z"/>
	</g>
</g>
</svg>
