<?xml version="1.0" encoding="iso-8859-1"?>
<!-- Generator: Adobe Illustrator 19.0.0, SVG Export Plug-In . SVG Version: 6.00 Build 0)  -->
<svg version="1.1" id="Layer_1" xmlns="http://www.w3.org/2000/svg" xmlns:xlink="http://www.w3.org/1999/xlink" x="0px" y="0px"
	 viewBox="0 0 30 30" style="enable-background:new 0 0 30 30;" xml:space="preserve">
<g>
	<g>
		<path d="M21.749,24.791c-0.155-0.089-0.346-0.089-0.501,0.001c-0.238,0.139-0.49,0.209-0.748,0.209c-0.827,0-1.5-0.673-1.5-1.5
			c0-0.276-0.224-0.5-0.5-0.5s-0.5,0.224-0.5,0.5c0,0.827-0.673,1.5-1.5,1.5c-0.827,0-1.5-0.673-1.5-1.5c0-0.276-0.224-0.5-0.5-0.5
			s-0.5,0.224-0.5,0.5c0,0.827-0.673,1.5-1.5,1.5c-0.827,0-1.5-0.673-1.5-1.5c0-0.276-0.224-0.5-0.5-0.5s-0.5,0.224-0.5,0.5
			c0,0.827-0.673,1.5-1.5,1.5c-0.827,0-1.5-0.673-1.5-1.5v-6c0-0.827,0.673-1.5,1.5-1.5c0.827,0,1.5,0.673,1.5,1.5
			c0,0.276,0.224,0.5,0.5,0.5s0.5-0.224,0.5-0.5c0-0.827,0.673-1.5,1.5-1.5c0.258,0,0.51,0.07,0.748,0.209
			c0.156,0.091,0.348,0.091,0.504,0c0.238-0.139,0.49-0.209,0.748-0.209h4c0.263,0,0.518,0.072,0.759,0.215
			c0.154,0.092,0.347,0.093,0.503,0.004c0.011-0.006,0.154-0.098,0.165-0.105c0.421-0.175,0.916-0.138,1.322,0.098
			c0.154,0.09,0.346,0.092,0.5,0.001C21.904,16.125,22,15.959,22,15.78V0.5C22,0.224,21.776,0,21.5,0h-13
			C8.435,0,8.37,0.013,8.309,0.038C8.247,0.063,8.192,0.1,8.146,0.147L0.147,8.146C0.101,8.192,0.064,8.248,0.038,8.309
			C0.013,8.37,0,8.435,0,8.5v21C0,29.776,0.224,30,0.5,30h21c0.276,0,0.5-0.224,0.5-0.5v-4.277
			C22,25.045,21.904,24.88,21.749,24.791z M8,1.709v6.293H1.707L8,1.709z M16.5,24.002c0.276,0,0.5-0.224,0.5-0.5v-5.5h1.5
			c0.276,0,0.5-0.224,0.5-0.5s-0.224-0.5-0.5-0.5h-4c-0.276,0-0.5,0.224-0.5,0.5s0.224,0.5,0.5,0.5H16v5.5
			C16,23.778,16.224,24.002,16.5,24.002z M29.5,23.002H27v-5.5c0-0.276-0.224-0.5-0.5-0.5s-0.5,0.224-0.5,0.5v6
			c0,0.276,0.224,0.5,0.5,0.5h3c0.276,0,0.5-0.224,0.5-0.5S29.776,23.002,29.5,23.002z M12.5,24.002c0.276,0,0.5-0.224,0.5-0.5v-6
			c0-0.276-0.224-0.5-0.5-0.5s-0.5,0.224-0.5,0.5v2.5H9v-2.5c0-0.276-0.224-0.5-0.5-0.5S8,17.226,8,17.502v6
			c0,0.276,0.224,0.5,0.5,0.5s0.5-0.224,0.5-0.5v-2.5h3v2.5C12,23.778,12.224,24.002,12.5,24.002z M24.691,17.04
			c-0.186-0.079-0.401-0.035-0.545,0.108L22.5,18.794l-1.646-1.646c-0.143-0.143-0.359-0.186-0.545-0.108
			C20.122,17.117,20,17.3,20,17.502v6c0,0.276,0.224,0.5,0.5,0.5s0.5-0.224,0.5-0.5v-4.793l1.146,1.146
			c0.195,0.195,0.512,0.195,0.707,0l1.146-1.146v4.793c0,0.276,0.224,0.5,0.5,0.5s0.5-0.224,0.5-0.5v-6
			C25,17.3,24.878,17.117,24.691,17.04z"/>
	</g>
</g>
</svg>
