<?xml version="1.0" encoding="iso-8859-1"?>
<!-- Generator: Adobe Illustrator 19.0.0, SVG Export Plug-In . SVG Version: 6.00 Build 0)  -->
<svg version="1.1" id="Layer_1" xmlns="http://www.w3.org/2000/svg" xmlns:xlink="http://www.w3.org/1999/xlink" x="0px" y="0px"
	 viewBox="0 0 30 30" style="enable-background:new 0 0 30 30;" xml:space="preserve">
<g>
	<g>
		<path d="M25.5,22.5c-0.276,0-0.5,0.224-0.5,0.5v2.524c0,1.09-0.907,1.976-2.021,1.976H3.022c-1.114,0-2.021-0.886-2.021-1.976V6.5
			h24.016l-0.016,5.499C25,12.275,25.224,12.499,25.5,12.5h0.001c0.275,0,0.499-0.223,0.5-0.499l0.018-6L26.023,4.5
			c0-1.641-1.355-2.976-3.021-2.976L3.021,1.5C1.355,1.5,0,2.835,0,4.476v21.048C0,27.165,1.355,28.5,3.021,28.5h19.957
			c1.666,0,3.021-1.335,3.021-2.976V23C26,22.724,25.776,22.5,25.5,22.5z M7.5,3.5C7.776,3.5,8,3.724,8,4S7.776,4.5,7.5,4.5
			S7,4.276,7,4S7.224,3.5,7.5,3.5z M5.5,3.5C5.776,3.5,6,3.724,6,4S5.776,4.5,5.5,4.5S5,4.276,5,4S5.224,3.5,5.5,3.5z M3.5,3.5
			C3.776,3.5,4,3.724,4,4S3.776,4.5,3.5,4.5S3,4.276,3,4S3.224,3.5,3.5,3.5z M29.935,20.751c-0.057-0.148-0.225-0.642-0.446-1.305
			c-0.008-0.072-0.03-0.137-0.065-0.196c-0.426-1.28-1.021-3.095-1.448-4.405c-0.067-0.205-0.258-0.344-0.474-0.345
			c-0.001,0-0.001,0-0.001,0c-0.216,0-0.407,0.138-0.475,0.342l-2,5.998c-0.087,0.262,0.054,0.545,0.316,0.632
			c0.264,0.089,0.545-0.054,0.632-0.316L26.359,20h2.27c0.154,0.435,0.273,0.748,0.371,0.971v0.027h0.013
			c0.191,0.427,0.303,0.51,0.441,0.51c0.039,0,0.079-0.006,0.124-0.014C29.821,21.455,30,21.244,30,20.998
			C30,20.908,29.977,20.824,29.935,20.751z M26.693,19l0.802-2.403c0.322,0.986,0.58,1.771,0.792,2.403H26.693z M24.026,14.842
			L22.5,19.419l-1.526-4.577c-0.087-0.262-0.368-0.404-0.632-0.316c-0.262,0.087-0.403,0.37-0.316,0.632l2,6
			c0.068,0.204,0.259,0.342,0.474,0.342c0.215,0,0.406-0.138,0.474-0.342l2-6c0.087-0.262-0.054-0.545-0.316-0.632
			C24.395,14.438,24.113,14.58,24.026,14.842z M13,15v4.5c0,0.551-0.449,1-1,1c-0.551,0-1-0.449-1-1c0-0.276-0.224-0.5-0.5-0.5
			S10,19.224,10,19.5c0,1.103,0.897,2,2,2c1.103,0,2-0.897,2-2V15c0-0.276-0.224-0.5-0.5-0.5S13,14.724,13,15z M19.013,20.998
			c0.191,0.427,0.303,0.51,0.441,0.51c0.039,0,0.079-0.006,0.124-0.014C19.821,21.455,20,21.244,20,20.998
			c0-0.09-0.023-0.174-0.065-0.247c-0.057-0.148-0.225-0.642-0.446-1.305c-0.008-0.072-0.03-0.137-0.065-0.196
			c-0.426-1.28-1.021-3.095-1.448-4.405c-0.067-0.205-0.258-0.344-0.474-0.345c-0.001,0-0.001,0-0.001,0
			c-0.216,0-0.407,0.138-0.475,0.342l-2,5.998c-0.087,0.262,0.054,0.545,0.316,0.632c0.264,0.089,0.545-0.054,0.632-0.316L16.359,20
			h2.27c0.154,0.435,0.273,0.748,0.371,0.971v0.027H19.013z M16.693,19l0.802-2.403c0.322,0.986,0.58,1.771,0.792,2.403H16.693z"/>
	</g>
</g>
</svg>
