<?xml version="1.0" encoding="iso-8859-1"?>
<!-- Generator: Adobe Illustrator 19.0.0, SVG Export Plug-In . SVG Version: 6.00 Build 0)  -->
<svg version="1.1" id="Layer_1" xmlns="http://www.w3.org/2000/svg" xmlns:xlink="http://www.w3.org/1999/xlink" x="0px" y="0px"
	 viewBox="0 0 30 30" style="enable-background:new 0 0 30 30;" xml:space="preserve">
<g>
	<g>
		<path d="M29.981,22.365C29.954,22.268,29.273,20,25.5,20c-3.015,0-4.631,2.481-6.195,4.881C17.925,27,16.621,29,14.5,29
			c-4.046,0-5.263-3.302-5.464-5h1.233C11.224,24,12,23.231,12,22.286v-1.821c0-1.708,0.873-3.373,2.336-4.456
			C16.004,14.775,17,12.809,17,10.75V7.714C17,6.769,16.224,6,15.269,6H13V0.5C13,0.224,12.776,0,12.5,0S12,0.224,12,0.5V6H5V0.5
			C5,0.224,4.776,0,4.5,0S4,0.224,4,0.5V6H1.731C0.776,6,0,6.769,0,7.714v3.036c0,2.059,0.996,4.024,2.664,5.259
			C4.127,17.092,5,18.757,5,20.465v1.821C5,23.231,5.776,24,6.731,24h1.301c0.205,1.977,1.614,6,6.468,6
			c2.663,0,4.178-2.325,5.643-4.573C21.626,23.15,23.028,21,25.5,21c2.974,0,3.5,1.575,3.519,1.635
			c0.075,0.266,0.356,0.421,0.617,0.346C29.901,22.907,30.056,22.63,29.981,22.365z M6,13.5C6,12.122,7.122,11,8.5,11
			s2.5,1.122,2.5,2.5S9.878,16,8.5,16S6,14.878,6,13.5z"/>
	</g>
</g>
</svg>
