<?xml version="1.0" encoding="iso-8859-1"?>
<!-- Generator: Adobe Illustrator 19.0.0, SVG Export Plug-In . SVG Version: 6.00 Build 0)  -->
<svg version="1.1" id="Layer_1" xmlns="http://www.w3.org/2000/svg" xmlns:xlink="http://www.w3.org/1999/xlink" x="0px" y="0px"
	 viewBox="0 0 30 30" style="enable-background:new 0 0 30 30;" xml:space="preserve">
<g>
	<g>
		<path d="M21.25,24.79c-0.479,0.279-1.025,0.278-1.502-0.003c-0.155-0.091-0.347-0.091-0.502-0.002
			c-0.751,0.433-1.58,0.166-1.992-0.454l-0.336-0.504c-0.186-0.278-0.646-0.278-0.832,0l-0.336,0.504
			c-0.442,0.665-1.411,0.863-2.08,0.416c-0.333-0.222-0.56-0.561-0.639-0.954c-0.079-0.393,0-0.792,0.223-1.126l1.26-1.891
			c0.112-0.168,0.112-0.387,0-0.555l-1.26-1.891c-0.222-0.333-0.301-0.733-0.223-1.126c0.079-0.393,0.305-0.732,0.639-0.955
			c0.668-0.447,1.637-0.248,2.08,0.417l0.336,0.504c0.186,0.278,0.646,0.278,0.832,0l0.336-0.504
			c0.425-0.637,1.341-0.845,2.007-0.453c0.156,0.094,0.391,0.071,0.546-0.021c0.098-0.057,0.183-0.106,0.26-0.129
			c0.382-0.116,0.81-0.056,1.183,0.163c0.154,0.089,0.345,0.091,0.501,0.002c0.154-0.088,0.25-0.254,0.25-0.433V0.5
			C22,0.224,21.776,0,21.5,0h-13C8.435,0,8.372,0.013,8.31,0.037c-0.001,0-0.002,0.001-0.003,0.001
			C8.247,0.063,8.192,0.1,8.146,0.146L0.146,8.146C0.101,8.191,0.063,8.247,0.039,8.307c0,0.001-0.001,0.002-0.001,0.003
			C0.013,8.372,0,8.435,0,8.5v21C0,29.776,0.224,30,0.5,30h21C21.776,30,22,29.776,22,29.5v-4.277c0-0.179-0.096-0.344-0.25-0.434
			C21.594,24.699,21.404,24.699,21.25,24.79z M8,8H1.708L8,1.706V8z M24.646,17.021c-0.211-0.064-0.439,0.018-0.561,0.201
			L22.5,19.599l-1.584-2.376c-0.122-0.184-0.351-0.265-0.561-0.201C20.144,17.084,20,17.279,20,17.5v6c0,0.276,0.224,0.5,0.5,0.5
			s0.5-0.224,0.5-0.5v-4.349l1.084,1.626c0.186,0.278,0.646,0.278,0.832,0L24,19.151V23.5c0,0.276,0.224,0.5,0.5,0.5
			s0.5-0.224,0.5-0.5v-6C25,17.279,24.857,17.084,24.646,17.021z M29.5,23H27v-5.5c0-0.276-0.224-0.5-0.5-0.5S26,17.224,26,17.5v6
			c0,0.276,0.224,0.5,0.5,0.5h3c0.276,0,0.5-0.224,0.5-0.5S29.776,23,29.5,23z M18.778,17.083c-0.23-0.153-0.541-0.092-0.693,0.139
			L16.5,19.599l-1.584-2.376c-0.153-0.23-0.463-0.292-0.693-0.139s-0.292,0.463-0.139,0.693l1.815,2.723l-1.815,2.723
			c-0.153,0.23-0.091,0.54,0.139,0.693C14.308,23.972,14.404,24,14.5,24c0.162,0,0.32-0.078,0.417-0.223l1.584-2.376l1.584,2.376
			C18.18,23.922,18.339,24,18.5,24c0.095,0,0.191-0.027,0.277-0.084c0.23-0.153,0.292-0.463,0.139-0.693L17.102,20.5l1.815-2.723
			C19.07,17.547,19.008,17.237,18.778,17.083z"/>
	</g>
</g>
</svg>
