<svg width="19.410000" height="24.000000" viewBox="0.720000 -46.200000 19.410000 24.000000" xmlns="http://www.w3.org/2000/svg"><path d="M14.280000 -27.810000C16.590000 -27.810000 20.130000 -30.000000 20.130000 -37.380000C20.130000 -42.240000 18.120000 -46.200000 11.790000 -46.200000C4.380000 -46.200000 0.720000 -40.110000 0.720000 -32.700000C0.720000 -26.490000 3.600000 -22.200000 10.350000 -22.200000C12.570000 -22.200000 14.520000 -22.560000 16.500000 -23.880000L16.740000 -26.760000C14.640000 -25.140000 12.750000 -24.720000 10.530000 -24.720000C5.760000 -24.720000 3.540000 -27.720000 3.540000 -32.550000C3.540000 -39.390000 6.330000 -43.650000 11.670000 -43.650000C15.840000 -43.650000 17.640000 -41.070000 17.640000 -37.320000C17.640000 -34.260000 16.920000 -30.540000 15.240000 -30.540000C14.760000 -30.540000 14.580000 -30.780000 14.640000 -31.290000L15.540000 -39.960000L12.750000 -39.960000L12.480000 -38.250000L12.420000 -38.250000C12.030000 -39.420000 11.220000 -40.080000 9.960000 -40.080000C7.860000 -40.080000 6.660000 -38.580000 6.360000 -35.640000L6.030000 -32.610000C6.000000 -32.280000 5.970000 -31.920000 5.970000 -31.590000C5.970000 -29.310000 6.960000 -27.990000 8.790000 -27.990000C10.110000 -27.990000 11.010000 -28.560000 11.610000 -29.790000L11.670000 -29.790000C11.790000 -28.380000 12.750000 -27.810000 14.280000 -27.810000ZM9.210000 -35.310000C9.360000 -36.720000 9.990000 -37.200000 10.920000 -37.200000C11.670000 -37.200000 12.240000 -36.780000 12.240000 -35.880000C12.240000 -35.790000 12.240000 -35.700000 12.210000 -35.520000L11.910000 -32.670000C11.760000 -31.290000 11.130000 -30.750000 10.230000 -30.780000C9.420000 -30.810000 8.910000 -31.260000 8.910000 -32.310000C8.910000 -32.460000 8.910000 -32.520000 8.940000 -32.760000ZM9.210000 -35.310000"></path></svg>