<svg width="11.220000" height="21.000000" viewBox="0.120000 -42.000000 11.220000 21.000000" xmlns="http://www.w3.org/2000/svg"><path d="M1.200000 -21.000000L6.420000 -21.000000C9.720000 -21.000000 11.340000 -22.830000 11.340000 -26.190000L11.340000 -36.810000C11.340000 -40.170000 9.720000 -42.000000 6.420000 -42.000000L1.200000 -42.000000L1.200000 -32.850000L0.120000 -32.850000L0.120000 -30.150000L1.200000 -30.150000ZM6.360000 -39.000000C7.410000 -39.000000 8.040000 -38.460000 8.040000 -36.960000L8.040000 -26.040000C8.040000 -24.540000 7.410000 -24.000000 6.360000 -24.000000L4.500000 -24.000000L4.500000 -30.150000L6.540000 -30.150000L6.540000 -32.850000L4.500000 -32.850000L4.500000 -39.000000ZM6.360000 -39.000000"></path></svg>