<svg width="6.540000" height="13.620000" viewBox="0.930000 -37.620000 6.540000 13.620000" xmlns="http://www.w3.org/2000/svg"><path d="M7.470000 -27.360000L7.470000 -28.380000C7.470000 -29.670000 7.080000 -30.630000 6.180000 -31.140000L6.180000 -31.200000C7.050000 -31.680000 7.470000 -32.550000 7.470000 -33.840000L7.470000 -34.260000C7.470000 -36.390000 6.300000 -37.620000 4.200000 -37.620000C2.100000 -37.620000 0.930000 -36.390000 0.930000 -34.260000L0.930000 -33.840000C0.930000 -32.550000 1.350000 -31.680000 2.220000 -31.200000L2.220000 -31.140000C1.320000 -30.630000 0.930000 -29.670000 0.930000 -28.380000L0.930000 -27.360000C0.930000 -25.230000 2.100000 -24.000000 4.200000 -24.000000C6.300000 -24.000000 7.470000 -25.230000 7.470000 -27.360000ZM3.030000 -27.390000L3.030000 -28.650000C3.030000 -29.700000 3.450000 -30.150000 4.200000 -30.150000C4.950000 -30.150000 5.370000 -29.700000 5.370000 -28.650000L5.370000 -27.390000C5.370000 -26.220000 4.860000 -25.890000 4.200000 -25.890000C3.540000 -25.890000 3.030000 -26.220000 3.030000 -27.390000ZM3.030000 -34.200000C3.030000 -35.400000 3.540000 -35.730000 4.200000 -35.730000C4.860000 -35.730000 5.370000 -35.400000 5.370000 -34.200000L5.370000 -33.450000C5.370000 -32.400000 4.860000 -32.040000 4.200000 -32.040000C3.510000 -32.040000 3.030000 -32.400000 3.030000 -33.450000ZM3.030000 -34.200000"></path></svg>