<svg width="16.800000" height="21.300000" viewBox="1.080000 -42.450000 16.800000 21.300000" xmlns="http://www.w3.org/2000/svg"><path d="M5.220000 -32.250000C5.220000 -31.050000 4.800000 -30.720000 4.140000 -30.720000C3.480000 -30.720000 3.060000 -31.110000 3.060000 -32.040000L3.060000 -33.270000L1.080000 -33.270000L1.080000 -32.190000C1.080000 -30.030000 2.130000 -28.830000 4.200000 -28.830000C6.270000 -28.830000 7.320000 -30.030000 7.320000 -32.190000L7.320000 -33.240000C7.320000 -34.590000 6.900000 -35.550000 5.850000 -36.000000L5.850000 -36.060000C6.870000 -36.480000 7.320000 -37.320000 7.320000 -38.760000L7.320000 -39.090000C7.320000 -41.250000 6.270000 -42.450000 4.200000 -42.450000C2.130000 -42.450000 1.080000 -41.250000 1.080000 -39.090000L1.080000 -38.400000L3.060000 -38.400000L3.060000 -39.240000C3.060000 -40.170000 3.480000 -40.560000 4.140000 -40.560000C4.800000 -40.560000 5.220000 -40.230000 5.220000 -39.030000L5.220000 -38.280000C5.220000 -37.230000 4.740000 -36.840000 3.960000 -36.840000L3.150000 -36.840000L3.150000 -34.950000L3.870000 -34.950000C4.800000 -34.950000 5.220000 -34.530000 5.220000 -33.270000ZM4.290000 -21.300000L6.240000 -21.300000L14.520000 -42.300000L12.570000 -42.300000ZM17.880000 -24.510000L17.880000 -25.530000C17.880000 -26.820000 17.490000 -27.780000 16.590000 -28.290000L16.590000 -28.350000C17.460000 -28.830000 17.880000 -29.700000 17.880000 -30.990000L17.880000 -31.410000C17.880000 -33.540000 16.710000 -34.770000 14.610000 -34.770000C12.510000 -34.770000 11.340000 -33.540000 11.340000 -31.410000L11.340000 -30.990000C11.340000 -29.700000 11.760000 -28.830000 12.630000 -28.350000L12.630000 -28.290000C11.730000 -27.780000 11.340000 -26.820000 11.340000 -25.530000L11.340000 -24.510000C11.340000 -22.380000 12.510000 -21.150000 14.610000 -21.150000C16.710000 -21.150000 17.880000 -22.380000 17.880000 -24.510000ZM13.440000 -24.540000L13.440000 -25.800000C13.440000 -26.850000 13.860000 -27.300000 14.610000 -27.300000C15.360000 -27.300000 15.780000 -26.850000 15.780000 -25.800000L15.780000 -24.540000C15.780000 -23.370000 15.270000 -23.040000 14.610000 -23.040000C13.950000 -23.040000 13.440000 -23.370000 13.440000 -24.540000ZM13.440000 -31.350000C13.440000 -32.550000 13.950000 -32.880000 14.610000 -32.880000C15.270000 -32.880000 15.780000 -32.550000 15.780000 -31.350000L15.780000 -30.600000C15.780000 -29.550000 15.270000 -29.190000 14.610000 -29.190000C13.920000 -29.190000 13.440000 -29.550000 13.440000 -30.600000ZM13.440000 -31.350000"></path></svg>