<svg width="9.840000" height="25.530000" viewBox="1.050000 -50.790000 9.840000 25.530000" xmlns="http://www.w3.org/2000/svg"><path d="M1.050000 -46.530000L1.050000 -30.540000C1.050000 -27.180000 2.730000 -25.260000 5.970000 -25.260000C9.210000 -25.260000 10.890000 -27.180000 10.890000 -30.540000L10.890000 -46.530000L7.770000 -46.530000L7.770000 -30.330000C7.770000 -28.830000 7.110000 -28.290000 6.060000 -28.290000C5.010000 -28.290000 4.350000 -28.830000 4.350000 -30.330000L4.350000 -46.530000ZM7.200000 -49.920000C6.870000 -49.920000 6.570000 -50.010000 6.090000 -50.250000C5.490000 -50.550000 5.040000 -50.670000 4.500000 -50.670000C3.300000 -50.670000 2.460000 -49.980000 1.950000 -48.630000L3.540000 -47.520000C3.840000 -48.150000 4.170000 -48.390000 4.830000 -48.390000C5.160000 -48.390000 5.460000 -48.300000 5.940000 -48.060000C6.630000 -47.730000 7.050000 -47.640000 7.530000 -47.640000C8.730000 -47.640000 9.570000 -48.330000 10.080000 -49.680000L8.490000 -50.790000C8.190000 -50.160000 7.860000 -49.920000 7.200000 -49.920000ZM7.200000 -49.920000"></path></svg>