<svg width="6.360000" height="13.620000" viewBox="1.020000 -25.140000 6.360000 13.620000" xmlns="http://www.w3.org/2000/svg"><path d="M3.120000 -21.930000C3.120000 -22.860000 3.510000 -23.250000 4.200000 -23.250000C4.860000 -23.250000 5.280000 -22.860000 5.280000 -21.930000L5.280000 -14.730000C5.280000 -13.800000 4.860000 -13.410000 4.200000 -13.410000C3.510000 -13.410000 3.120000 -13.800000 3.120000 -14.730000ZM1.020000 -14.880000C1.020000 -12.720000 2.130000 -11.520000 4.200000 -11.520000C6.270000 -11.520000 7.380000 -12.720000 7.380000 -14.880000L7.380000 -21.780000C7.380000 -23.940000 6.270000 -25.140000 4.200000 -25.140000C2.130000 -25.140000 1.020000 -23.940000 1.020000 -21.780000ZM1.020000 -14.880000"></path></svg>