<svg width="9.840000" height="25.680000" viewBox="0.930000 -51.120000 9.840000 25.680000" xmlns="http://www.w3.org/2000/svg"><path d="M6.150000 -34.380000L7.650000 -34.380000L7.650000 -30.510000C7.650000 -29.010000 6.990000 -28.470000 5.940000 -28.470000C4.890000 -28.470000 4.230000 -29.010000 4.230000 -30.510000L4.230000 -41.850000C4.230000 -43.350000 4.890000 -43.920000 5.940000 -43.920000C6.990000 -43.920000 7.650000 -43.350000 7.650000 -41.850000L7.650000 -39.600000L10.770000 -39.600000L10.770000 -41.640000C10.770000 -45.000000 9.090000 -46.920000 5.850000 -46.920000C2.610000 -46.920000 0.930000 -45.000000 0.930000 -41.640000L0.930000 -30.720000C0.930000 -27.360000 2.610000 -25.440000 5.850000 -25.440000C9.090000 -25.440000 10.770000 -27.360000 10.770000 -30.720000L10.770000 -37.380000L6.150000 -37.380000ZM7.230000 -51.120000C7.140000 -49.980000 6.660000 -49.710000 5.790000 -49.710000C4.950000 -49.710000 4.500000 -49.980000 4.410000 -51.120000L2.460000 -51.120000C2.490000 -49.020000 3.540000 -47.670000 5.790000 -47.670000C8.040000 -47.670000 9.180000 -49.020000 9.180000 -51.120000ZM7.230000 -51.120000"></path></svg>