<svg width="8.408203" height="23.334961" viewBox="0.000000 -46.669922 8.408203 23.334961" xmlns="http://www.w3.org/2000/svg"><path d="M4.321289 -46.669922L4.379883 -46.669922L8.408203 -41.791992L7.587891 -40.825195L4.233398 -43.945312L4.174805 -43.945312L0.747070 -41.030273L0.000000 -41.909180ZM3.105469 -34.731445C3.105469 -35.043945 3.112793 -35.346680 3.127441 -35.639648C3.142090 -35.932617 3.173828 -36.279297 3.222656 -36.679688L1.098633 -36.562500L1.098633 -37.822266C1.752930 -37.822266 2.294922 -37.844238 2.724609 -37.888184C3.154297 -37.932129 3.505859 -37.993164 3.779297 -38.071289C4.052734 -38.149414 4.265137 -38.234863 4.416504 -38.327637C4.567871 -38.420410 4.702148 -38.520508 4.819336 -38.627930L5.683594 -38.627930L5.683594 -26.513672C5.683594 -26.113281 5.678711 -25.759277 5.668945 -25.451660C5.659180 -25.144043 5.625000 -24.819336 5.566406 -24.477539L7.456055 -24.565430L7.456055 -23.334961L1.333008 -23.334961L1.333008 -24.228516C1.782227 -24.228516 2.128906 -24.318848 2.373047 -24.499512C2.617188 -24.680176 2.792969 -24.931641 2.900391 -25.253906C3.007812 -25.576172 3.068848 -25.961914 3.083496 -26.411133C3.098145 -26.860352 3.105469 -27.353516 3.105469 -27.890625ZM3.105469 -34.731445"></path></svg>