<svg width="19.497070" height="27.099609" viewBox="-0.175781 -54.199219 19.497070 27.099609" xmlns="http://www.w3.org/2000/svg"><path d="M8.510742 -35.200195L3.310547 -43.447266C2.792969 -44.248047 2.412109 -44.919434 2.167969 -45.461426C1.923828 -46.003418 1.762695 -46.464844 1.684570 -46.845703L-0.175781 -46.772461L-0.175781 -48.105469L7.558594 -48.105469L7.558594 -47.109375C6.865234 -47.109375 6.337891 -47.028809 5.976562 -46.867676C5.615234 -46.706543 5.383301 -46.481934 5.280762 -46.193848C5.178223 -45.905762 5.192871 -45.561523 5.324707 -45.161133C5.456543 -44.760742 5.673828 -44.321289 5.976562 -43.842773C6.347656 -43.247070 6.699219 -42.683105 7.031250 -42.150879C7.363281 -41.618652 7.695312 -41.093750 8.027344 -40.576172C8.359375 -40.058594 8.703613 -39.531250 9.060059 -38.994141C9.416504 -38.457031 9.809570 -37.890625 10.239258 -37.294922L10.297852 -37.294922C12.534180 -41.552734 13.867188 -44.072266 14.296875 -44.853516C14.726562 -45.634766 15.009766 -46.127930 15.146484 -46.333008C15.283203 -46.538086 15.424805 -46.718750 15.571289 -46.875000L13.198242 -46.772461L13.198242 -48.105469L19.321289 -48.105469L19.321289 -47.109375C18.823242 -47.080078 18.378906 -46.982422 17.988281 -46.816406C17.597656 -46.650391 17.231445 -46.408691 16.889648 -46.091309C16.547852 -45.773926 16.218262 -45.378418 15.900879 -44.904785C15.583496 -44.431152 13.989258 -41.494141 11.118164 -36.093750C11.108398 -35.126953 11.101074 -33.981934 11.096191 -32.658691C11.091309 -31.335449 11.093750 -30.673828 11.103516 -30.673828C11.103516 -29.599609 11.074219 -28.808594 11.015625 -28.300781L13.505859 -28.417969L13.505859 -27.099609L6.459961 -27.099609L6.459961 -28.095703C7.016602 -28.115234 7.436523 -28.222656 7.719727 -28.417969C8.002930 -28.613281 8.203125 -28.874512 8.320312 -29.201660C8.437500 -29.528809 8.496094 -29.912109 8.496094 -30.351562C8.496094 -30.791016 8.496094 -31.264648 8.496094 -31.772461ZM13.901367 -52.265625C13.901367 -52.001953 13.857422 -51.755371 13.769531 -51.525879C13.681641 -51.296387 13.562012 -51.096191 13.410645 -50.925293C13.259277 -50.754395 13.083496 -50.620117 12.883301 -50.522461C12.683105 -50.424805 12.475586 -50.375977 12.260742 -50.375977C12.036133 -50.375977 11.826172 -50.424805 11.630859 -50.522461C11.435547 -50.620117 11.264648 -50.754395 11.118164 -50.925293C10.971680 -51.096191 10.854492 -51.296387 10.766602 -51.525879C10.678711 -51.755371 10.634766 -52.001953 10.634766 -52.265625C10.634766 -52.529297 10.678711 -52.778320 10.766602 -53.012695C10.854492 -53.247070 10.976562 -53.452148 11.132812 -53.627930C11.289062 -53.803711 11.464844 -53.942871 11.660156 -54.045410C11.855469 -54.147949 12.065430 -54.199219 12.290039 -54.199219C12.514648 -54.199219 12.724609 -54.147949 12.919922 -54.045410C13.115234 -53.942871 13.286133 -53.803711 13.432617 -53.627930C13.579102 -53.452148 13.693848 -53.247070 13.776855 -53.012695C13.859863 -52.778320 13.901367 -52.529297 13.901367 -52.265625ZM8.510742 -52.265625C8.510742 -52.001953 8.466797 -51.755371 8.378906 -51.525879C8.291016 -51.296387 8.171387 -51.096191 8.020020 -50.925293C7.868652 -50.754395 7.692871 -50.620117 7.492676 -50.522461C7.292480 -50.424805 7.084961 -50.375977 6.870117 -50.375977C6.645508 -50.375977 6.435547 -50.424805 6.240234 -50.522461C6.044922 -50.620117 5.874023 -50.754395 5.727539 -50.925293C5.581055 -51.096191 5.463867 -51.296387 5.375977 -51.525879C5.288086 -51.755371 5.244141 -52.001953 5.244141 -52.265625C5.244141 -52.529297 5.288086 -52.778320 5.375977 -53.012695C5.463867 -53.247070 5.585938 -53.452148 5.742188 -53.627930C5.898438 -53.803711 6.074219 -53.942871 6.269531 -54.045410C6.464844 -54.147949 6.674805 -54.199219 6.899414 -54.199219C7.124023 -54.199219 7.333984 -54.147949 7.529297 -54.045410C7.724609 -53.942871 7.895508 -53.803711 8.041992 -53.627930C8.188477 -53.452148 8.303223 -53.247070 8.386230 -53.012695C8.469238 -52.778320 8.510742 -52.529297 8.510742 -52.265625ZM8.510742 -52.265625"></path></svg>