<svg width="20.727539" height="28.293457" viewBox="0.937500 -56.103516 20.727539 28.293457" xmlns="http://www.w3.org/2000/svg"><path d="M19.526367 -37.653809C19.516602 -36.345215 19.372559 -35.097656 19.094238 -33.911133C18.815918 -32.724609 18.361816 -31.679688 17.731934 -30.776367C17.102051 -29.873047 16.274414 -29.152832 15.249023 -28.615723C14.223633 -28.078613 12.958984 -27.810059 11.455078 -27.810059C9.853516 -27.810059 8.510742 -28.020020 7.426758 -28.439941C6.342773 -28.859863 5.471191 -29.506836 4.812012 -30.380859C4.152832 -31.254883 3.681641 -32.365723 3.398438 -33.713379C3.115234 -35.061035 2.973633 -36.662598 2.973633 -38.518066L2.973633 -44.611816C2.973633 -44.875488 2.976074 -45.168457 2.980957 -45.490723C2.985840 -45.812988 2.995605 -46.135254 3.010254 -46.457520C3.024902 -46.779785 3.037109 -47.084961 3.046875 -47.373047C3.056641 -47.661133 3.071289 -47.902832 3.090820 -48.098145L0.937500 -48.010254L0.937500 -49.299316L7.675781 -49.299316L7.675781 -48.303223C7.167969 -48.303223 6.774902 -48.217773 6.496582 -48.046875C6.218262 -47.875977 6.013184 -47.668457 5.881348 -47.424316C5.749512 -47.180176 5.671387 -46.921387 5.646973 -46.647949C5.622559 -46.374512 5.610352 -46.135254 5.610352 -45.930176L5.610352 -38.371582C5.610352 -37.629395 5.639648 -36.894531 5.698242 -36.166992C5.756836 -35.439453 5.866699 -34.748535 6.027832 -34.094238C6.188965 -33.439941 6.413574 -32.834473 6.701660 -32.277832C6.989746 -31.721191 7.363281 -31.237793 7.822266 -30.827637C8.281250 -30.417480 8.837891 -30.097656 9.492188 -29.868164C10.146484 -29.638672 10.922852 -29.523926 11.821289 -29.523926C12.905273 -29.523926 13.835449 -29.719238 14.611816 -30.109863C15.388184 -30.500488 16.027832 -31.049805 16.530762 -31.757812C17.033691 -32.465820 17.404785 -33.308105 17.644043 -34.284668C17.883301 -35.261230 18.012695 -36.335449 18.032227 -37.507324L18.149414 -45.930176C18.149414 -46.770020 18.178711 -47.492676 18.237305 -48.098145L16.083984 -47.966309L16.083984 -49.299316L21.665039 -49.299316L21.665039 -48.303223C21.098633 -48.283691 20.671387 -48.178711 20.383301 -47.988281C20.095215 -47.797852 19.892578 -47.541504 19.775391 -47.219238C19.658203 -46.896973 19.597168 -46.516113 19.592285 -46.076660C19.587402 -45.637207 19.584961 -45.148926 19.584961 -44.611816ZM10.166016 -55.231934C10.400391 -55.642090 10.690918 -55.898438 11.037598 -56.000977C11.384277 -56.103516 11.713867 -56.013184 12.026367 -55.729980C12.143555 -55.622559 12.233887 -55.498047 12.297363 -55.356445C12.360840 -55.214844 12.390137 -55.065918 12.385254 -54.909668C12.380371 -54.753418 12.338867 -54.592285 12.260742 -54.426270C12.182617 -54.260254 12.055664 -54.099121 11.879883 -53.942871L9.111328 -51.452637L8.320312 -52.009277ZM15.263672 -55.290527C15.400391 -55.417480 15.549316 -55.512695 15.710449 -55.576172C15.871582 -55.639648 16.032715 -55.664062 16.193848 -55.649414C16.354980 -55.634766 16.508789 -55.581055 16.655273 -55.488281C16.801758 -55.395508 16.923828 -55.256348 17.021484 -55.070801C17.109375 -54.904785 17.160645 -54.736328 17.175293 -54.565430C17.189941 -54.394531 17.172852 -54.233398 17.124023 -54.082031C17.075195 -53.930664 16.997070 -53.791504 16.889648 -53.664551C16.782227 -53.537598 16.655273 -53.439941 16.508789 -53.371582L12.377930 -51.467285L11.953125 -52.229004ZM15.263672 -55.290527"></path></svg>