<svg width="15.776367" height="23.129883" viewBox="0.864258 -38.613281 15.776367 23.129883" xmlns="http://www.w3.org/2000/svg"><path d="M2.871094 -34.526367C2.871094 -34.838867 2.875977 -35.156250 2.885742 -35.478516C2.895508 -35.800781 2.929688 -36.132812 2.988281 -36.474609L0.864258 -36.357422L0.864258 -37.617188C1.518555 -37.617188 2.050781 -37.639160 2.460938 -37.683105C2.871094 -37.727051 3.200684 -37.788086 3.449707 -37.866211C3.698730 -37.944336 3.891602 -38.029785 4.028320 -38.122559C4.165039 -38.215332 4.287109 -38.315430 4.394531 -38.422852L5.273438 -38.422852C5.292969 -38.227539 5.312500 -37.998047 5.332031 -37.734375C5.351562 -37.470703 5.371094 -37.163086 5.390625 -36.811523C5.693359 -37.075195 6.027832 -37.319336 6.394043 -37.543945C6.760254 -37.768555 7.145996 -37.958984 7.551270 -38.115234C7.956543 -38.271484 8.369141 -38.393555 8.789062 -38.481445C9.208984 -38.569336 9.628906 -38.613281 10.048828 -38.613281C10.917969 -38.613281 11.750488 -38.442383 12.546387 -38.100586C13.342285 -37.758789 14.042969 -37.268066 14.648438 -36.628418C15.253906 -35.988770 15.737305 -35.207520 16.098633 -34.284668C16.459961 -33.361816 16.640625 -32.319336 16.640625 -31.157227C16.640625 -30.307617 16.545410 -29.506836 16.354980 -28.754883C16.164551 -28.002930 15.898438 -27.312012 15.556641 -26.682129C15.214844 -26.052246 14.807129 -25.488281 14.333496 -24.990234C13.859863 -24.492188 13.339844 -24.069824 12.773438 -23.723145C12.207031 -23.376465 11.604004 -23.110352 10.964355 -22.924805C10.324707 -22.739258 9.667969 -22.646484 8.994141 -22.646484C7.607422 -22.646484 6.411133 -22.973633 5.405273 -23.627930L5.390625 -18.662109C5.390625 -18.261719 5.385742 -17.907715 5.375977 -17.600098C5.366211 -17.292480 5.332031 -16.967773 5.273438 -16.625977L7.163086 -16.713867L7.163086 -15.483398L1.040039 -15.483398L1.040039 -16.376953C1.499023 -16.376953 1.848145 -16.467285 2.087402 -16.647949C2.326660 -16.828613 2.497559 -17.080078 2.600098 -17.402344C2.702637 -17.724609 2.761230 -18.110352 2.775879 -18.559570C2.790527 -19.008789 2.802734 -19.501953 2.812500 -20.039062ZM8.979492 -37.148438C8.627930 -37.148438 8.286133 -37.102051 7.954102 -37.009277C7.622070 -36.916504 7.304688 -36.794434 7.001953 -36.643066C6.699219 -36.491699 6.413574 -36.313477 6.145020 -36.108398C5.876465 -35.903320 5.639648 -35.688477 5.434570 -35.463867C5.434570 -35.385742 5.437012 -35.295410 5.441895 -35.192871C5.446777 -35.090332 5.449219 -34.916992 5.449219 -34.672852C5.449219 -34.428711 5.449219 -34.084473 5.449219 -33.640137C5.449219 -33.195801 5.446777 -32.600098 5.441895 -31.853027C5.437012 -31.105957 5.432129 -30.175781 5.427246 -29.062500C5.422363 -27.949219 5.419922 -26.601562 5.419922 -25.019531C5.917969 -24.648438 6.464844 -24.360352 7.060547 -24.155273C7.656250 -23.950195 8.281250 -23.847656 8.935547 -23.847656C9.648438 -23.847656 10.288086 -24.018555 10.854492 -24.360352C11.420898 -24.702148 11.904297 -25.178223 12.304688 -25.788574C12.705078 -26.398926 13.012695 -27.121582 13.227539 -27.956543C13.442383 -28.791504 13.549805 -29.707031 13.549805 -30.703125C13.549805 -31.513672 13.464355 -32.304688 13.293457 -33.076172C13.122559 -33.847656 12.854004 -34.536133 12.487793 -35.141602C12.121582 -35.747070 11.650391 -36.232910 11.074219 -36.599121C10.498047 -36.965332 9.799805 -37.148438 8.979492 -37.148438ZM8.979492 -37.148438"></path></svg>