<svg width="13.710938" height="23.818359" viewBox="1.025391 -47.153320 13.710938 23.818359" xmlns="http://www.w3.org/2000/svg"><path d="M10.166016 -31.157227C9.707031 -31.137695 9.230957 -31.096191 8.737793 -31.032715C8.244629 -30.969238 7.761230 -30.871582 7.287598 -30.739746C6.813965 -30.607910 6.367188 -30.439453 5.947266 -30.234375C5.527344 -30.029297 5.161133 -29.785156 4.848633 -29.501953C4.536133 -29.218750 4.291992 -28.891602 4.116211 -28.520508C3.940430 -28.149414 3.862305 -27.729492 3.881836 -27.260742C3.891602 -26.889648 3.962402 -26.564941 4.094238 -26.286621C4.226074 -26.008301 4.396973 -25.778809 4.606934 -25.598145C4.816895 -25.417480 5.058594 -25.280762 5.332031 -25.187988C5.605469 -25.095215 5.898438 -25.048828 6.210938 -25.048828C6.611328 -25.048828 6.987305 -25.087891 7.338867 -25.166016C7.690430 -25.244141 8.024902 -25.358887 8.342285 -25.510254C8.659668 -25.661621 8.967285 -25.844727 9.265137 -26.059570C9.562988 -26.274414 9.863281 -26.523438 10.166016 -26.806641ZM1.933594 -35.698242C1.933594 -36.196289 2.080078 -36.665039 2.373047 -37.104492C2.666016 -37.543945 3.076172 -37.927246 3.603516 -38.254395C4.130859 -38.581543 4.758301 -38.837891 5.485840 -39.023438C6.213379 -39.208984 7.006836 -39.301758 7.866211 -39.301758C9.545898 -39.301758 10.783691 -38.857422 11.579590 -37.968750C12.375488 -37.080078 12.768555 -35.668945 12.758789 -33.735352L12.729492 -26.997070C12.729492 -26.684570 12.722168 -26.369629 12.707520 -26.052246C12.692871 -25.734863 12.661133 -25.371094 12.612305 -24.960938L14.736328 -25.078125L14.736328 -23.818359L10.444336 -23.818359C10.385742 -24.160156 10.341797 -24.458008 10.312500 -24.711914C10.283203 -24.965820 10.258789 -25.234375 10.239258 -25.517578C9.565430 -24.843750 8.830566 -24.311523 8.034668 -23.920898C7.238770 -23.530273 6.396484 -23.334961 5.507812 -23.334961C4.755859 -23.334961 4.099121 -23.425293 3.537598 -23.605957C2.976074 -23.786621 2.509766 -24.038086 2.138672 -24.360352C1.767578 -24.682617 1.489258 -25.061035 1.303711 -25.495605C1.118164 -25.930176 1.025391 -26.396484 1.025391 -26.894531C1.025391 -27.509766 1.159668 -28.071289 1.428223 -28.579102C1.696777 -29.086914 2.058105 -29.538574 2.512207 -29.934082C2.966309 -30.329590 3.496094 -30.671387 4.101562 -30.959473C4.707031 -31.247559 5.349121 -31.484375 6.027832 -31.669922C6.706543 -31.855469 7.399902 -31.989746 8.107910 -32.072754C8.815918 -32.155762 9.506836 -32.192383 10.180664 -32.182617L10.180664 -34.057617C10.180664 -34.575195 10.151367 -35.078125 10.092773 -35.566406C10.034180 -36.054688 9.904785 -36.499023 9.704590 -36.899414C9.504395 -37.299805 9.191895 -37.617188 8.767090 -37.851562C8.342285 -38.085938 7.851562 -38.203125 7.294922 -38.203125C6.972656 -38.203125 6.665039 -38.176270 6.372070 -38.122559C6.079102 -38.068848 5.791016 -37.978516 5.507812 -37.851562C5.224609 -37.724609 4.968262 -37.558594 4.738770 -37.353516C4.509277 -37.148438 4.321289 -36.904297 4.174805 -36.621094C4.321289 -36.455078 4.421387 -36.271973 4.475098 -36.071777C4.528809 -35.871582 4.555664 -35.678711 4.555664 -35.493164C4.555664 -35.375977 4.531250 -35.241699 4.482422 -35.090332C4.433594 -34.938965 4.357910 -34.797363 4.255371 -34.665527C4.152832 -34.533691 4.020996 -34.426270 3.859863 -34.343262C3.698730 -34.260254 3.481445 -34.218750 3.208008 -34.218750C2.817383 -34.218750 2.507324 -34.362793 2.277832 -34.650879C2.048340 -34.938965 1.933594 -35.288086 1.933594 -35.698242ZM7.514648 -47.153320L7.573242 -47.153320L12.041016 -42.275391L11.235352 -41.308594L7.426758 -44.575195L7.368164 -44.575195L3.486328 -41.513672L2.739258 -42.392578ZM7.514648 -47.153320"></path></svg>