<svg width="13.828125" height="23.437500" viewBox="1.274414 -46.391602 13.828125 23.437500" xmlns="http://www.w3.org/2000/svg"><path d="M8.862305 -37.749023C7.690430 -37.749023 6.723633 -37.404785 5.961914 -36.716309C5.200195 -36.027832 4.697266 -34.912109 4.453125 -33.369141L12.099609 -33.369141C12.099609 -33.896484 12.041016 -34.421387 11.923828 -34.943848C11.806641 -35.466309 11.618652 -35.935059 11.359863 -36.350098C11.101074 -36.765137 10.766602 -37.102051 10.356445 -37.360840C9.946289 -37.619629 9.448242 -37.749023 8.862305 -37.749023ZM14.926758 -32.285156L4.365234 -32.109375C4.355469 -30.957031 4.443359 -29.912109 4.628906 -28.974609C4.814453 -28.037109 5.107422 -27.236328 5.507812 -26.572266C5.908203 -25.908203 6.423340 -25.395508 7.053223 -25.034180C7.683105 -24.672852 8.437500 -24.492188 9.316406 -24.492188C9.785156 -24.492188 10.263672 -24.555664 10.751953 -24.682617C11.240234 -24.809570 11.711426 -24.982910 12.165527 -25.202637C12.619629 -25.422363 13.037109 -25.686035 13.417969 -25.993652C13.798828 -26.301270 14.116211 -26.630859 14.370117 -26.982422L15.102539 -26.381836C14.692383 -25.756836 14.216309 -25.227051 13.674316 -24.792480C13.132324 -24.357910 12.570801 -24.003906 11.989746 -23.730469C11.408691 -23.457031 10.825195 -23.259277 10.239258 -23.137207C9.653320 -23.015137 9.106445 -22.954102 8.598633 -22.954102C7.563477 -22.954102 6.599121 -23.139648 5.705566 -23.510742C4.812012 -23.881836 4.038086 -24.414062 3.383789 -25.107422C2.729492 -25.800781 2.214355 -26.635742 1.838379 -27.612305C1.462402 -28.588867 1.274414 -29.687500 1.274414 -30.908203C1.274414 -31.962891 1.455078 -32.971191 1.816406 -33.933105C2.177734 -34.895020 2.690430 -35.747070 3.354492 -36.489258C4.018555 -37.231445 4.814453 -37.822266 5.742188 -38.261719C6.669922 -38.701172 7.700195 -38.920898 8.833008 -38.920898C9.663086 -38.920898 10.446777 -38.784180 11.184082 -38.510742C11.921387 -38.237305 12.568359 -37.827148 13.125000 -37.280273C13.681641 -36.733398 14.121094 -36.042480 14.443359 -35.207520C14.765625 -34.372559 14.926758 -33.398438 14.926758 -32.285156ZM6.621094 -44.018555C6.367188 -44.282227 6.196289 -44.526367 6.108398 -44.750977C6.079102 -44.819336 6.049805 -44.902344 6.020508 -45.000000C5.991211 -45.097656 5.976562 -45.200195 5.976562 -45.307617C5.976562 -45.434570 5.993652 -45.551758 6.027832 -45.659180C6.062012 -45.766602 6.127930 -45.883789 6.225586 -46.010742C6.323242 -46.137695 6.447754 -46.232910 6.599121 -46.296387C6.750488 -46.359863 6.906738 -46.391602 7.067871 -46.391602C7.229004 -46.391602 7.419434 -46.335449 7.639160 -46.223145C7.858887 -46.110840 8.081055 -45.893555 8.305664 -45.571289L10.825195 -41.528320L9.990234 -40.839844ZM6.621094 -44.018555"></path></svg>