<svg width="13.710938" height="22.675781" viewBox="1.083984 -41.337891 13.710938 22.675781" xmlns="http://www.w3.org/2000/svg"><path d="M12.128906 -35.463867C11.992188 -35.815430 11.791992 -36.096191 11.528320 -36.306152C11.264648 -36.516113 10.979004 -36.679688 10.671387 -36.796875C10.363770 -36.914062 10.058594 -36.989746 9.755859 -37.023926C9.453125 -37.058105 9.194336 -37.075195 8.979492 -37.075195C8.295898 -37.075195 7.658691 -36.936035 7.067871 -36.657715C6.477051 -36.379395 5.966797 -35.966797 5.537109 -35.419922C5.107422 -34.873047 4.768066 -34.199219 4.519043 -33.398438C4.270020 -32.597656 4.145508 -31.679688 4.145508 -30.644531C4.145508 -29.648438 4.270020 -28.725586 4.519043 -27.875977C4.768066 -27.026367 5.117188 -26.293945 5.566406 -25.678711C6.015625 -25.063477 6.557617 -24.582520 7.192383 -24.235840C7.827148 -23.889160 8.530273 -23.715820 9.301758 -23.715820C9.770508 -23.715820 10.234375 -23.784180 10.693359 -23.920898C11.152344 -24.057617 11.586914 -24.243164 11.997070 -24.477539C12.407227 -24.711914 12.785645 -24.987793 13.132324 -25.305176C13.479004 -25.622559 13.774414 -25.961914 14.018555 -26.323242L14.794922 -25.722656C14.443359 -25.175781 14.045410 -24.694824 13.601074 -24.279785C13.156738 -23.864746 12.690430 -23.513184 12.202148 -23.225098C11.713867 -22.937012 11.215820 -22.707520 10.708008 -22.536621C10.200195 -22.365723 9.707031 -22.250977 9.228516 -22.192383L9.213867 -18.662109L7.470703 -18.662109L7.456055 -22.192383C6.557617 -22.299805 5.722656 -22.553711 4.951172 -22.954102C4.179688 -23.354492 3.505859 -23.884277 2.929688 -24.543457C2.353516 -25.202637 1.901855 -25.983887 1.574707 -26.887207C1.247559 -27.790527 1.083984 -28.798828 1.083984 -29.912109C1.083984 -30.839844 1.237793 -31.757812 1.545410 -32.666016C1.853027 -33.574219 2.287598 -34.406738 2.849121 -35.163574C3.410645 -35.920410 4.086914 -36.564941 4.877930 -37.097168C5.668945 -37.629395 6.547852 -37.983398 7.514648 -38.159180L7.500000 -41.337891L9.448242 -41.337891L9.418945 -38.159180C10.180664 -38.110352 10.871582 -37.978516 11.491699 -37.763672C12.111816 -37.548828 12.641602 -37.275391 13.081055 -36.943359C13.520508 -36.611328 13.859863 -36.232910 14.099121 -35.808105C14.338379 -35.383301 14.458008 -34.941406 14.458008 -34.482422C14.458008 -34.267578 14.426270 -34.064941 14.362793 -33.874512C14.299316 -33.684082 14.208984 -33.515625 14.091797 -33.369141C13.974609 -33.222656 13.830566 -33.107910 13.659668 -33.024902C13.488770 -32.941895 13.291016 -32.900391 13.066406 -32.900391C12.802734 -32.900391 12.583008 -32.944336 12.407227 -33.032227C12.231445 -33.120117 12.089844 -33.232422 11.982422 -33.369141C11.875000 -33.505859 11.796875 -33.652344 11.748047 -33.808594C11.699219 -33.964844 11.674805 -34.111328 11.674805 -34.248047C11.674805 -34.443359 11.706543 -34.648438 11.770020 -34.863281C11.833496 -35.078125 11.953125 -35.278320 12.128906 -35.463867ZM12.128906 -35.463867"></path></svg>