<svg width="6.752930" height="27.846923" viewBox="1.655273 -55.693846 6.752930 27.846923" xmlns="http://www.w3.org/2000/svg"><path d="M3.720703 -45.483642C3.720703 -45.893798 3.728027 -46.281981 3.742676 -46.648192C3.757324 -47.014403 3.784180 -47.348876 3.823242 -47.651610L1.655273 -47.519774L1.655273 -48.852782L8.408203 -48.852782L8.408203 -47.856688C7.841797 -47.837157 7.416992 -47.732177 7.133789 -47.541747C6.850586 -47.351317 6.650391 -47.094970 6.533203 -46.772704C6.416016 -46.450438 6.354980 -46.069579 6.350098 -45.630126C6.345215 -45.190673 6.342773 -44.702392 6.342773 -44.165282L6.342773 -31.421142C6.342773 -30.874267 6.335449 -30.405517 6.320801 -30.014892C6.306152 -29.624267 6.279297 -29.302001 6.240234 -29.048095L8.408203 -29.165282L8.408203 -27.846923L1.655273 -27.846923L1.655273 -28.843017C2.221680 -28.862548 2.646484 -28.965087 2.929688 -29.150634C3.212891 -29.336181 3.413086 -29.590087 3.530273 -29.912353C3.647461 -30.234618 3.708496 -30.617919 3.713379 -31.062255C3.718262 -31.506591 3.720703 -31.992431 3.720703 -32.519774ZM6.731622 -53.883108C6.731622 -53.639874 6.686549 -53.410154 6.596403 -53.193946C6.506257 -52.977739 6.386814 -52.788557 6.238073 -52.626402C6.089332 -52.464246 5.918054 -52.338125 5.724240 -52.248039C5.530426 -52.157952 5.325344 -52.112909 5.108993 -52.112909C4.892642 -52.112909 4.687560 -52.157952 4.493746 -52.248039C4.299932 -52.338125 4.128655 -52.464246 3.979914 -52.626402C3.831173 -52.788557 3.713983 -52.977739 3.628344 -53.193946C3.542705 -53.410154 3.499886 -53.639874 3.499886 -53.883108C3.499886 -54.135350 3.544959 -54.371827 3.635105 -54.592539C3.725251 -54.813251 3.844694 -55.004684 3.993436 -55.166840C4.142177 -55.328996 4.315708 -55.457369 4.514029 -55.551960C4.712350 -55.646550 4.919686 -55.693846 5.136037 -55.693846C5.361402 -55.693846 5.570992 -55.646550 5.764806 -55.551960C5.958620 -55.457369 6.127644 -55.328996 6.271877 -55.166840C6.416111 -55.004684 6.528794 -54.813251 6.609925 -54.592539C6.691056 -54.371827 6.731622 -54.135350 6.731622 -53.883108ZM6.731622 -53.883108"></path></svg>