<svg width="19.321289" height="27.304688" viewBox="-0.175781 -54.609375 19.321289 27.304688" xmlns="http://www.w3.org/2000/svg"><path d="M3.837891 -30.571289C3.759766 -30.336914 3.691406 -30.126953 3.632812 -29.941406C3.574219 -29.755859 3.515625 -29.584961 3.457031 -29.428711C3.398438 -29.272461 3.339844 -29.121094 3.281250 -28.974609C3.222656 -28.828125 3.159180 -28.671875 3.090820 -28.505859L5.434570 -28.623047L5.434570 -27.304688L-0.175781 -27.304688L-0.175781 -28.300781C0.273438 -28.300781 0.639648 -28.391113 0.922852 -28.571777C1.206055 -28.752441 1.445312 -29.008789 1.640625 -29.340820C1.835938 -29.672852 2.014160 -30.068359 2.175293 -30.527344C2.336426 -30.986328 2.519531 -31.494141 2.724609 -32.050781L8.906250 -48.881836L9.624023 -48.881836L16.318359 -31.801758C16.406250 -31.596680 16.496582 -31.350098 16.589355 -31.062012C16.682129 -30.773926 16.770020 -30.478516 16.853027 -30.175781C16.936035 -29.873047 16.999512 -29.575195 17.043457 -29.282227C17.087402 -28.989258 17.104492 -28.730469 17.094727 -28.505859L19.145508 -28.623047L19.145508 -27.304688L12.275391 -27.304688L12.275391 -28.300781C12.832031 -28.310547 13.242188 -28.413086 13.505859 -28.608398C13.769531 -28.803711 13.935547 -29.042969 14.003906 -29.326172C14.072266 -29.609375 14.072266 -29.912109 14.003906 -30.234375C13.935547 -30.556641 13.847656 -30.859375 13.740234 -31.142578L12.685547 -33.955078L4.877930 -33.779297C4.663086 -33.164062 4.472656 -32.600098 4.306641 -32.087402C4.140625 -31.574707 3.984375 -31.069336 3.837891 -30.571289ZM7.470703 -41.103516C7.011719 -39.814453 6.608887 -38.679199 6.262207 -37.697754C5.915527 -36.716309 5.605469 -35.839844 5.332031 -35.068359L12.275391 -35.068359L10.136719 -40.810547L8.789062 -44.501953L8.730469 -44.501953ZM6.562500 -52.749023C6.132812 -52.749023 5.749512 -52.587891 5.412598 -52.265625C5.075684 -51.943359 4.721680 -51.503906 4.350586 -50.947266L3.325195 -51.518555C3.500977 -51.958008 3.718262 -52.363281 3.977051 -52.734375C4.235840 -53.105469 4.514160 -53.427734 4.812012 -53.701172C5.109863 -53.974609 5.422363 -54.191895 5.749512 -54.353027C6.076660 -54.514160 6.401367 -54.599609 6.723633 -54.609375C7.114258 -54.609375 7.468262 -54.558105 7.785645 -54.455566C8.103027 -54.353027 8.393555 -54.223633 8.657227 -54.067383C8.920898 -53.911133 9.167480 -53.740234 9.396973 -53.554688C9.626465 -53.369141 9.853516 -53.198242 10.078125 -53.041992C10.302734 -52.885742 10.529785 -52.756348 10.759277 -52.653809C10.988770 -52.551270 11.240234 -52.500000 11.513672 -52.500000C11.777344 -52.500000 12.026367 -52.553711 12.260742 -52.661133C12.495117 -52.768555 12.712402 -52.910156 12.912598 -53.085938C13.112793 -53.261719 13.298340 -53.466797 13.469238 -53.701172C13.640137 -53.935547 13.798828 -54.184570 13.945312 -54.448242L14.912109 -53.979492C14.697266 -53.364258 14.453125 -52.841797 14.179688 -52.412109C13.906250 -51.982422 13.613281 -51.635742 13.300781 -51.372070C12.988281 -51.108398 12.666016 -50.915527 12.333984 -50.793457C12.001953 -50.671387 11.669922 -50.610352 11.337891 -50.610352C10.947266 -50.610352 10.593262 -50.664062 10.275879 -50.771484C9.958496 -50.878906 9.663086 -51.010742 9.389648 -51.166992C9.116211 -51.323242 8.859863 -51.494141 8.620605 -51.679688C8.381348 -51.865234 8.146973 -52.036133 7.917480 -52.192383C7.687988 -52.348633 7.463379 -52.480469 7.243652 -52.587891C7.023926 -52.695312 6.796875 -52.749023 6.562500 -52.749023ZM6.562500 -52.749023"></path></svg>