<svg width="14.194336" height="21.972656" viewBox="1.684570 -43.461914 14.194336 21.972656" xmlns="http://www.w3.org/2000/svg"><path d="M8.906250 -33.735352C8.437500 -33.735352 7.973633 -33.645020 7.514648 -33.464355C7.055664 -33.283691 6.628418 -33.039551 6.232910 -32.731934C5.837402 -32.424316 5.490723 -32.070312 5.192871 -31.669922C4.895020 -31.269531 4.672852 -30.854492 4.526367 -30.424805C4.575195 -29.477539 4.685059 -28.540039 4.855957 -27.612305C5.026855 -26.684570 5.280762 -25.854492 5.617676 -25.122070C5.954590 -24.389648 6.389160 -23.796387 6.921387 -23.342285C7.453613 -22.888184 8.115234 -22.661133 8.906250 -22.661133C9.609375 -22.661133 10.212402 -22.800293 10.715332 -23.078613C11.218262 -23.356934 11.625977 -23.728027 11.938477 -24.191895C12.250977 -24.655762 12.480469 -25.190430 12.626953 -25.795898C12.773438 -26.401367 12.846680 -27.036133 12.846680 -27.700195C12.846680 -28.071289 12.827148 -28.479004 12.788086 -28.923340C12.749023 -29.367676 12.678223 -29.814453 12.575684 -30.263672C12.473145 -30.712891 12.329102 -31.145020 12.143555 -31.560059C11.958008 -31.975098 11.718750 -32.343750 11.425781 -32.666016C11.132812 -32.988281 10.778809 -33.247070 10.363770 -33.442383C9.948730 -33.637695 9.462891 -33.735352 8.906250 -33.735352ZM12.875977 -40.590820C12.817383 -40.766602 12.707520 -40.957031 12.546387 -41.162109C12.385254 -41.367188 12.177734 -41.557617 11.923828 -41.733398C11.669922 -41.909180 11.372070 -42.053223 11.030273 -42.165527C10.688477 -42.277832 10.312500 -42.333984 9.902344 -42.333984C9.140625 -42.333984 8.479004 -42.158203 7.917480 -41.806641C7.355957 -41.455078 6.877441 -40.996094 6.481934 -40.429688C6.086426 -39.863281 5.764160 -39.223633 5.515137 -38.510742C5.266113 -37.797852 5.068359 -37.080078 4.921875 -36.357422C4.775391 -35.634766 4.670410 -34.938965 4.606934 -34.270020C4.543457 -33.601074 4.506836 -33.027344 4.497070 -32.548828C4.741211 -32.880859 5.031738 -33.200684 5.368652 -33.508301C5.705566 -33.815918 6.086426 -34.086914 6.511230 -34.321289C6.936035 -34.555664 7.399902 -34.741211 7.902832 -34.877930C8.405762 -35.014648 8.950195 -35.083008 9.536133 -35.083008C10.737305 -35.083008 11.743164 -34.875488 12.553711 -34.460449C13.364258 -34.045410 14.016113 -33.510742 14.509277 -32.856445C15.002441 -32.202148 15.354004 -31.479492 15.563965 -30.688477C15.773926 -29.897461 15.878906 -29.121094 15.878906 -28.359375C15.878906 -27.421875 15.700684 -26.535645 15.344238 -25.700684C14.987793 -24.865723 14.497070 -24.138184 13.872070 -23.518066C13.247070 -22.897949 12.504883 -22.404785 11.645508 -22.038574C10.786133 -21.672363 9.853516 -21.489258 8.847656 -21.489258C7.509766 -21.489258 6.386719 -21.730957 5.478516 -22.214355C4.570312 -22.697754 3.833008 -23.388672 3.266602 -24.287109C2.700195 -25.185547 2.294922 -26.271973 2.050781 -27.546387C1.806641 -28.820801 1.684570 -30.253906 1.684570 -31.845703C1.684570 -32.441406 1.728516 -33.142090 1.816406 -33.947754C1.904297 -34.753418 2.060547 -35.585938 2.285156 -36.445312C2.509766 -37.304688 2.814941 -38.154297 3.200684 -38.994141C3.586426 -39.833984 4.082031 -40.583496 4.687500 -41.242676C5.292969 -41.901855 6.018066 -42.436523 6.862793 -42.846680C7.707520 -43.256836 8.701172 -43.461914 9.843750 -43.461914C10.732422 -43.461914 11.508789 -43.332520 12.172852 -43.073730C12.836914 -42.814941 13.388672 -42.495117 13.828125 -42.114258C14.267578 -41.733398 14.597168 -41.320801 14.816895 -40.876465C15.036621 -40.432129 15.146484 -40.024414 15.146484 -39.653320C15.146484 -39.223633 15.041504 -38.859863 14.831543 -38.562012C14.621582 -38.264160 14.301758 -38.105469 13.872070 -38.085938C13.618164 -38.076172 13.403320 -38.110352 13.227539 -38.188477C13.051758 -38.266602 12.910156 -38.369141 12.802734 -38.496094C12.695312 -38.623047 12.617188 -38.762207 12.568359 -38.913574C12.519531 -39.064941 12.495117 -39.204102 12.495117 -39.331055C12.495117 -39.526367 12.526855 -39.736328 12.590332 -39.960938C12.653809 -40.185547 12.749023 -40.395508 12.875977 -40.590820ZM12.875977 -40.590820"></path></svg>