<svg width="15.761719" height="21.049805" viewBox="1.655273 -42.099609 15.761719 21.049805" xmlns="http://www.w3.org/2000/svg"><path d="M7.412109 -28.945312C7.314453 -28.945312 7.160645 -28.945312 6.950684 -28.945312C6.740723 -28.945312 6.538086 -28.950195 6.342773 -28.959961L6.342773 -24.624023C6.342773 -24.077148 6.335449 -23.608398 6.320801 -23.217773C6.306152 -22.827148 6.279297 -22.504883 6.240234 -22.250977L9.008789 -22.397461L9.008789 -21.049805L1.655273 -21.049805L1.655273 -22.045898C2.221680 -22.065430 2.646484 -22.167969 2.929688 -22.353516C3.212891 -22.539062 3.413086 -22.792969 3.530273 -23.115234C3.647461 -23.437500 3.708496 -23.820801 3.713379 -24.265137C3.718262 -24.709473 3.720703 -25.195312 3.720703 -25.722656L3.720703 -38.686523C3.720703 -39.096680 3.728027 -39.484863 3.742676 -39.851074C3.757324 -40.217285 3.784180 -40.551758 3.823242 -40.854492L1.655273 -40.722656L1.655273 -42.055664C2.709961 -42.075195 3.793945 -42.087402 4.907227 -42.092285C6.020508 -42.097168 7.167969 -42.099609 8.349609 -42.099609C11.259766 -42.099609 13.471680 -41.611328 14.985352 -40.634766C16.606445 -39.570312 17.416992 -38.012695 17.416992 -35.961914C17.416992 -35.541992 17.370605 -35.078125 17.277832 -34.570312C17.185059 -34.062500 16.997070 -33.537598 16.713867 -32.995605C16.430664 -32.453613 16.042480 -31.936035 15.549316 -31.442871C15.056152 -30.949707 14.436035 -30.520020 13.688965 -30.153809C12.941895 -29.787598 12.050781 -29.494629 11.015625 -29.274902C9.980469 -29.055176 8.779297 -28.945312 7.412109 -28.945312ZM6.342773 -30.205078C6.713867 -30.156250 7.038574 -30.126953 7.316895 -30.117188C7.595215 -30.107422 7.919922 -30.102539 8.291016 -30.102539C9.140625 -30.102539 9.943848 -30.229492 10.700684 -30.483398C11.457520 -30.737305 12.116699 -31.105957 12.678223 -31.589355C13.239746 -32.072754 13.684082 -32.661133 14.011230 -33.354492C14.338379 -34.047852 14.501953 -34.833984 14.501953 -35.712891C14.501953 -36.660156 14.350586 -37.465820 14.047852 -38.129883C13.745117 -38.793945 13.320312 -39.333496 12.773438 -39.748535C12.226562 -40.163574 11.572266 -40.463867 10.810547 -40.649414C10.048828 -40.834961 9.208984 -40.927734 8.291016 -40.927734C7.753906 -40.927734 7.351074 -40.842285 7.082520 -40.671387C6.813965 -40.500488 6.623535 -40.258789 6.511230 -39.946289C6.398926 -39.633789 6.342773 -39.260254 6.342773 -38.825684C6.342773 -38.391113 6.342773 -37.905273 6.342773 -37.368164ZM6.342773 -30.205078"></path></svg>