<svg width="15.087891" height="21.489258" viewBox="1.230469 -42.495117 15.087891 21.489258" xmlns="http://www.w3.org/2000/svg"><path d="M8.759766 -35.830078C7.968750 -35.830078 7.292480 -35.654297 6.730957 -35.302734C6.169434 -34.951172 5.708008 -34.482422 5.346680 -33.896484C4.985352 -33.310547 4.719238 -32.636719 4.548340 -31.875000C4.377441 -31.113281 4.291992 -30.322266 4.291992 -29.501953C4.291992 -28.574219 4.387207 -27.670898 4.577637 -26.791992C4.768066 -25.913086 5.058594 -25.134277 5.449219 -24.455566C5.839844 -23.776855 6.330566 -23.232422 6.921387 -22.822266C7.512207 -22.412109 8.203125 -22.207031 8.994141 -22.207031C9.785156 -22.207031 10.451660 -22.385254 10.993652 -22.741699C11.535645 -23.098145 11.975098 -23.569336 12.312012 -24.155273C12.648926 -24.741211 12.890625 -25.410156 13.037109 -26.162109C13.183594 -26.914062 13.256836 -27.685547 13.256836 -28.476562C13.256836 -29.375000 13.173828 -30.263672 13.007812 -31.142578C12.841797 -32.021484 12.578125 -32.807617 12.216797 -33.500977C11.855469 -34.194336 11.389160 -34.755859 10.817871 -35.185547C10.246582 -35.615234 9.560547 -35.830078 8.759766 -35.830078ZM8.759766 -36.972656C9.814453 -36.972656 10.800781 -36.779785 11.718750 -36.394043C12.636719 -36.008301 13.435059 -35.476074 14.113770 -34.797363C14.792480 -34.118652 15.329590 -33.312988 15.725098 -32.380371C16.120605 -31.447754 16.318359 -30.439453 16.318359 -29.355469C16.318359 -28.193359 16.125488 -27.104492 15.739746 -26.088867C15.354004 -25.073242 14.821777 -24.189453 14.143066 -23.437500C13.464355 -22.685547 12.663574 -22.092285 11.740723 -21.657715C10.817871 -21.223145 9.824219 -21.005859 8.759766 -21.005859C7.705078 -21.005859 6.721191 -21.193848 5.808105 -21.569824C4.895020 -21.945801 4.099121 -22.470703 3.420410 -23.144531C2.741699 -23.818359 2.207031 -24.621582 1.816406 -25.554199C1.425781 -26.486816 1.230469 -27.509766 1.230469 -28.623047C1.230469 -29.804688 1.423340 -30.905762 1.809082 -31.926270C2.194824 -32.946777 2.724609 -33.830566 3.398438 -34.577637C4.072266 -35.324707 4.868164 -35.910645 5.786133 -36.335449C6.704102 -36.760254 7.695312 -36.972656 8.759766 -36.972656ZM4.819336 -42.495117L12.773438 -42.495117L12.773438 -40.810547L4.819336 -40.693359ZM4.819336 -42.495117"></path></svg>