<svg width="18.691406" height="27.814941" viewBox="1.669922 -55.629883 18.691406 27.814941" xmlns="http://www.w3.org/2000/svg"><path d="M3.735352 -45.451660C3.735352 -45.861816 3.742676 -46.250000 3.757324 -46.616211C3.771973 -46.982422 3.798828 -47.316895 3.837891 -47.619629L1.669922 -47.487793L1.669922 -48.820801L8.422852 -48.820801L8.422852 -47.824707C7.856445 -47.805176 7.431641 -47.700195 7.148438 -47.509766C6.865234 -47.319336 6.665039 -47.062988 6.547852 -46.740723C6.430664 -46.418457 6.369629 -46.037598 6.364746 -45.598145C6.359863 -45.158691 6.357422 -44.670410 6.357422 -44.133301L6.357422 -39.211426L8.598633 -39.211426L12.348633 -45.129395C12.475586 -45.324707 12.619629 -45.534668 12.780762 -45.759277C12.941895 -45.983887 13.112793 -46.208496 13.293457 -46.433105C13.474121 -46.657715 13.666992 -46.875000 13.872070 -47.084961C14.077148 -47.294922 14.282227 -47.482910 14.487305 -47.648926L12.656250 -47.590332L12.656250 -48.820801L19.101562 -48.820801L19.101562 -47.824707C18.466797 -47.775879 17.890625 -47.690430 17.373047 -47.568359C16.855469 -47.446289 16.362305 -47.241211 15.893555 -46.953125C15.424805 -46.665039 14.958496 -46.269531 14.494629 -45.766602C14.030762 -45.263672 13.544922 -44.602051 13.037109 -43.781738L10.107422 -39.094238C10.390625 -38.918457 10.644531 -38.730469 10.869141 -38.530273C11.093750 -38.330078 11.303711 -38.122559 11.499023 -37.907715C11.694336 -37.692871 11.879883 -37.470703 12.055664 -37.241211C12.231445 -37.011719 12.412109 -36.779785 12.597656 -36.545410L15.952148 -32.077637C16.518555 -31.315918 17.006836 -30.717773 17.416992 -30.283203C17.827148 -29.848633 18.198242 -29.521484 18.530273 -29.301758C18.862305 -29.082031 19.169922 -28.945312 19.453125 -28.891602C19.736328 -28.837891 20.039062 -28.811035 20.361328 -28.811035L20.361328 -27.814941L16.699219 -27.814941C16.552734 -27.814941 16.367188 -27.895508 16.142578 -28.056641C15.917969 -28.217773 15.671387 -28.435059 15.402832 -28.708496C15.134277 -28.981934 14.851074 -29.296875 14.553223 -29.653320C14.255371 -30.009766 13.959961 -30.378418 13.666992 -30.759277L10.078125 -35.607910C9.697266 -36.105957 9.316406 -36.579590 8.935547 -37.028809C8.554688 -37.478027 8.183594 -37.814941 7.822266 -38.039551L6.357422 -38.010254L6.357422 -31.389160C6.357422 -30.842285 6.350098 -30.373535 6.335449 -29.982910C6.320801 -29.592285 6.293945 -29.270020 6.254883 -29.016113L8.422852 -29.133301L8.422852 -27.814941L1.669922 -27.814941L1.669922 -28.811035C2.236328 -28.830566 2.661133 -28.933105 2.944336 -29.118652C3.227539 -29.304199 3.427734 -29.558105 3.544922 -29.880371C3.662109 -30.202637 3.723145 -30.585938 3.728027 -31.030273C3.732910 -31.474609 3.735352 -31.960449 3.735352 -32.487793ZM9.418945 -50.607910L8.759766 -51.486816L12.539062 -55.090332C12.832031 -55.344238 13.098145 -55.500488 13.337402 -55.559082C13.576660 -55.617676 13.781738 -55.629883 13.952637 -55.595703C14.123535 -55.561523 14.260254 -55.502930 14.362793 -55.419922C14.465332 -55.336914 14.531250 -55.275879 14.560547 -55.236816C14.609375 -55.168457 14.658203 -55.068359 14.707031 -54.936523C14.755859 -54.804688 14.765625 -54.650879 14.736328 -54.475098C14.707031 -54.299316 14.624023 -54.108887 14.487305 -53.903809C14.350586 -53.698730 14.111328 -53.493652 13.769531 -53.288574ZM9.418945 -50.607910"></path></svg>