<svg width="16.201172" height="23.261719" viewBox="1.127930 -38.745117 16.201172 23.261719" xmlns="http://www.w3.org/2000/svg"><path d="M3.134766 -34.658203C3.134766 -34.970703 3.139648 -35.288086 3.149414 -35.610352C3.159180 -35.932617 3.193359 -36.264648 3.251953 -36.606445L1.127930 -36.489258L1.127930 -37.749023C1.782227 -37.749023 2.314453 -37.770996 2.724609 -37.814941C3.134766 -37.858887 3.464355 -37.919922 3.713379 -37.998047C3.962402 -38.076172 4.155273 -38.161621 4.291992 -38.254395C4.428711 -38.347168 4.555664 -38.447266 4.672852 -38.554688L5.537109 -38.554688C5.556641 -38.330078 5.578613 -38.073730 5.603027 -37.785645C5.627441 -37.497559 5.649414 -37.148438 5.668945 -36.738281C5.991211 -37.021484 6.345215 -37.285156 6.730957 -37.529297C7.116699 -37.773438 7.519531 -37.985840 7.939453 -38.166504C8.359375 -38.347168 8.791504 -38.488770 9.235840 -38.591309C9.680176 -38.693848 10.117188 -38.745117 10.546875 -38.745117C12.285156 -38.745117 13.554688 -38.200684 14.355469 -37.111816C15.156250 -36.022949 15.556641 -34.331055 15.556641 -32.036133L15.556641 -26.440430C15.556641 -26.040039 15.551758 -25.686035 15.541992 -25.378418C15.532227 -25.070801 15.498047 -24.746094 15.439453 -24.404297L17.329102 -24.492188L17.329102 -23.261719L11.206055 -23.261719L11.206055 -24.155273C11.665039 -24.155273 12.014160 -24.245605 12.253418 -24.426270C12.492676 -24.606934 12.666016 -24.858398 12.773438 -25.180664C12.880859 -25.502930 12.941895 -25.888672 12.956543 -26.337891C12.971191 -26.787109 12.978516 -27.280273 12.978516 -27.817383L12.978516 -32.006836C12.958984 -33.735352 12.675781 -35.036621 12.128906 -35.910645C11.582031 -36.784668 10.712891 -37.221680 9.521484 -37.221680C9.160156 -37.221680 8.798828 -37.167969 8.437500 -37.060547C8.076172 -36.953125 7.729492 -36.813965 7.397461 -36.643066C7.065430 -36.472168 6.752930 -36.269531 6.459961 -36.035156C6.166992 -35.800781 5.913086 -35.546875 5.698242 -35.273438C5.708008 -35.097656 5.712891 -34.909668 5.712891 -34.709473C5.712891 -34.509277 5.712891 -34.306641 5.712891 -34.101562L5.683594 -26.440430C5.683594 -26.040039 5.678711 -25.686035 5.668945 -25.378418C5.659180 -25.070801 5.625000 -24.746094 5.566406 -24.404297L7.456055 -24.492188L7.456055 -23.261719L1.333008 -23.261719L1.333008 -24.155273C1.791992 -24.155273 2.141113 -24.245605 2.380371 -24.426270C2.619629 -24.606934 2.790527 -24.858398 2.893066 -25.180664C2.995605 -25.502930 3.054199 -25.888672 3.068848 -26.337891C3.083496 -26.787109 3.095703 -27.280273 3.105469 -27.817383ZM9.448242 -21.577148C9.682617 -21.079102 9.799805 -20.561523 9.799805 -20.024414C9.799805 -19.262695 9.584961 -18.493652 9.155273 -17.717285C8.725586 -16.940918 8.154297 -16.196289 7.441406 -15.483398L6.650391 -16.069336C6.972656 -16.665039 7.209473 -17.185059 7.360840 -17.629395C7.512207 -18.073730 7.602539 -18.481445 7.631836 -18.852539C7.661133 -19.223633 7.648926 -19.587402 7.595215 -19.943848C7.541504 -20.300293 7.470703 -20.688477 7.382812 -21.108398ZM9.448242 -21.577148"></path></svg>