<svg width="18.691406" height="21.972656" viewBox="0.908203 -43.461914 18.691406 21.972656" xmlns="http://www.w3.org/2000/svg"><path d="M3.134766 -41.630859C4.062500 -42.246094 5.019531 -42.705078 6.005859 -43.007812C6.992188 -43.310547 8.051758 -43.461914 9.184570 -43.461914C10.346680 -43.461914 11.411133 -43.312988 12.377930 -43.015137C13.344727 -42.717285 14.213867 -42.304688 14.985352 -41.777344C15.756836 -41.250000 16.430664 -40.627441 17.006836 -39.909668C17.583008 -39.191895 18.063965 -38.415527 18.449707 -37.580566C18.835449 -36.745605 19.123535 -35.864258 19.313965 -34.936523C19.504395 -34.008789 19.599609 -33.076172 19.599609 -32.138672C19.599609 -30.644531 19.350586 -29.250488 18.852539 -27.956543C18.354492 -26.662598 17.656250 -25.537109 16.757812 -24.580078C15.859375 -23.623047 14.785156 -22.868652 13.535156 -22.316895C12.285156 -21.765137 10.908203 -21.489258 9.404297 -21.489258C8.789062 -21.489258 8.120117 -21.550293 7.397461 -21.672363C6.674805 -21.794434 5.939941 -22.019043 5.192871 -22.346191C4.445801 -22.673340 3.706055 -23.120117 2.973633 -23.686523C2.241211 -24.252930 1.552734 -24.980469 0.908203 -25.869141L1.684570 -26.499023C2.094727 -25.942383 2.563477 -25.449219 3.090820 -25.019531C3.618164 -24.589844 4.182129 -24.228516 4.782715 -23.935547C5.383301 -23.642578 6.008301 -23.422852 6.657715 -23.276367C7.307129 -23.129883 7.958984 -23.056641 8.613281 -23.056641C9.707031 -23.056641 10.734863 -23.278809 11.696777 -23.723145C12.658691 -24.167480 13.500977 -24.797363 14.223633 -25.612793C14.946289 -26.428223 15.524902 -27.404785 15.959473 -28.542480C16.394043 -29.680176 16.625977 -30.937500 16.655273 -32.314453L9.990234 -32.387695C9.355469 -32.397461 8.811035 -32.387695 8.356934 -32.358398C7.902832 -32.329102 7.531738 -32.231445 7.243652 -32.065430C6.955566 -31.899414 6.745605 -31.635742 6.613770 -31.274414C6.481934 -30.913086 6.416016 -30.400391 6.416016 -29.736328L5.434570 -29.736328L5.434570 -36.049805L6.767578 -36.049805L6.547852 -33.486328L16.625977 -33.486328C16.547852 -34.824219 16.293945 -36.032715 15.864258 -37.111816C15.434570 -38.190918 14.877930 -39.108887 14.194336 -39.865723C13.510742 -40.622559 12.722168 -41.206055 11.828613 -41.616211C10.935059 -42.026367 9.985352 -42.231445 8.979492 -42.231445C8.110352 -42.231445 7.314453 -42.097168 6.591797 -41.828613C5.869141 -41.560059 5.241699 -41.171875 4.709473 -40.664062C4.177246 -40.156250 3.742676 -39.533691 3.405762 -38.796387C3.068848 -38.059082 2.846680 -37.221680 2.739258 -36.284180L1.655273 -36.284180L1.655273 -43.242188L3.281250 -43.242188ZM3.134766 -41.630859"></path></svg>