<svg width="3.779297" height="20.844727" viewBox="2.094727 -36.328125 3.779297 20.844727" xmlns="http://www.w3.org/2000/svg"><path d="M2.841797 -16.083984C3.007812 -16.289062 3.183594 -16.567383 3.369141 -16.918945C3.554688 -17.270508 3.718262 -17.661133 3.859863 -18.090820C4.001465 -18.520508 4.111328 -18.972168 4.189453 -19.445801C4.267578 -19.919434 4.277344 -20.385742 4.218750 -20.844727C3.935547 -20.717773 3.664551 -20.664062 3.405762 -20.683594C3.146973 -20.703125 2.919922 -20.776367 2.724609 -20.903320C2.529297 -21.030273 2.375488 -21.201172 2.263184 -21.416016C2.150879 -21.630859 2.094727 -21.870117 2.094727 -22.133789C2.094727 -22.690430 2.255859 -23.120117 2.578125 -23.422852C2.900391 -23.725586 3.291016 -23.876953 3.750000 -23.876953C4.091797 -23.876953 4.394531 -23.806152 4.658203 -23.664551C4.921875 -23.522949 5.144043 -23.330078 5.324707 -23.085938C5.505371 -22.841797 5.642090 -22.553711 5.734863 -22.221680C5.827637 -21.889648 5.874023 -21.533203 5.874023 -21.152344C5.874023 -20.771484 5.820312 -20.324707 5.712891 -19.812012C5.605469 -19.299316 5.454102 -18.779297 5.258789 -18.251953C5.063477 -17.724609 4.829102 -17.214355 4.555664 -16.721191C4.282227 -16.228027 3.979492 -15.815430 3.647461 -15.483398ZM5.595703 -34.365234C5.595703 -34.101562 5.546875 -33.852539 5.449219 -33.618164C5.351562 -33.383789 5.222168 -33.178711 5.061035 -33.002930C4.899902 -32.827148 4.714355 -32.690430 4.504395 -32.592773C4.294434 -32.495117 4.072266 -32.446289 3.837891 -32.446289C3.603516 -32.446289 3.381348 -32.495117 3.171387 -32.592773C2.961426 -32.690430 2.775879 -32.827148 2.614746 -33.002930C2.453613 -33.178711 2.326660 -33.383789 2.233887 -33.618164C2.141113 -33.852539 2.094727 -34.101562 2.094727 -34.365234C2.094727 -34.638672 2.143555 -34.895020 2.241211 -35.134277C2.338867 -35.373535 2.468262 -35.581055 2.629395 -35.756836C2.790527 -35.932617 2.978516 -36.071777 3.193359 -36.174316C3.408203 -36.276855 3.632812 -36.328125 3.867188 -36.328125C4.111328 -36.328125 4.338379 -36.276855 4.548340 -36.174316C4.758301 -36.071777 4.941406 -35.932617 5.097656 -35.756836C5.253906 -35.581055 5.375977 -35.373535 5.463867 -35.134277C5.551758 -34.895020 5.595703 -34.638672 5.595703 -34.365234ZM5.595703 -34.365234"></path></svg>