<svg width="13.330078" height="8.833008" viewBox="2.226562 -22.177734 13.330078 8.833008" xmlns="http://www.w3.org/2000/svg"><path d="M5.917969 -20.258789C5.507812 -20.258789 5.136719 -20.224609 4.804688 -20.156250C4.472656 -20.087891 4.160156 -19.990234 3.867188 -19.863281C3.574219 -19.736328 3.295898 -19.589844 3.032227 -19.423828C2.768555 -19.257812 2.500000 -19.086914 2.226562 -18.911133L2.226562 -20.683594C2.539062 -20.917969 2.839355 -21.127930 3.127441 -21.313477C3.415527 -21.499023 3.708496 -21.657715 4.006348 -21.789551C4.304199 -21.921387 4.616699 -22.019043 4.943848 -22.082520C5.270996 -22.145996 5.634766 -22.177734 6.035156 -22.177734C6.572266 -22.177734 7.041016 -22.124023 7.441406 -22.016602C7.841797 -21.909180 8.198242 -21.777344 8.510742 -21.621094C8.823242 -21.464844 9.108887 -21.293945 9.367676 -21.108398C9.626465 -20.922852 9.890137 -20.751953 10.158691 -20.595703C10.427246 -20.439453 10.715332 -20.310059 11.022949 -20.207520C11.330566 -20.104980 11.689453 -20.053711 12.099609 -20.053711C12.763672 -20.053711 13.386230 -20.173340 13.967285 -20.412598C14.548340 -20.651855 15.078125 -20.976562 15.556641 -21.386719L15.556641 -19.614258C15.146484 -19.174805 14.645996 -18.820801 14.055176 -18.552246C13.464355 -18.283691 12.773438 -18.149414 11.982422 -18.149414C11.484375 -18.149414 11.042480 -18.203125 10.656738 -18.310547C10.270996 -18.417969 9.921875 -18.549805 9.609375 -18.706055C9.296875 -18.862305 9.003906 -19.030762 8.730469 -19.211426C8.457031 -19.392090 8.178711 -19.560547 7.895508 -19.716797C7.612305 -19.873047 7.312012 -20.002441 6.994629 -20.104980C6.677246 -20.207520 6.318359 -20.258789 5.917969 -20.258789ZM5.917969 -15.468750C5.507812 -15.468750 5.136719 -15.432129 4.804688 -15.358887C4.472656 -15.285645 4.160156 -15.185547 3.867188 -15.058594C3.574219 -14.931641 3.295898 -14.787598 3.032227 -14.626465C2.768555 -14.465332 2.500000 -14.291992 2.226562 -14.106445L2.226562 -15.878906C2.539062 -16.113281 2.839355 -16.323242 3.127441 -16.508789C3.415527 -16.694336 3.708496 -16.853027 4.006348 -16.984863C4.304199 -17.116699 4.616699 -17.214355 4.943848 -17.277832C5.270996 -17.341309 5.634766 -17.373047 6.035156 -17.373047C6.572266 -17.373047 7.041016 -17.319336 7.441406 -17.211914C7.841797 -17.104492 8.198242 -16.972656 8.510742 -16.816406C8.823242 -16.660156 9.108887 -16.489258 9.367676 -16.303711C9.626465 -16.118164 9.890137 -15.947266 10.158691 -15.791016C10.427246 -15.634766 10.715332 -15.505371 11.022949 -15.402832C11.330566 -15.300293 11.689453 -15.249023 12.099609 -15.249023C12.763672 -15.249023 13.386230 -15.368652 13.967285 -15.607910C14.548340 -15.847168 15.078125 -16.171875 15.556641 -16.582031L15.556641 -14.809570C15.146484 -14.379883 14.645996 -14.028320 14.055176 -13.754883C13.464355 -13.481445 12.773438 -13.344727 11.982422 -13.344727C11.484375 -13.344727 11.042480 -13.398438 10.656738 -13.505859C10.270996 -13.613281 9.921875 -13.745117 9.609375 -13.901367C9.296875 -14.057617 9.003906 -14.226074 8.730469 -14.406738C8.457031 -14.587402 8.178711 -14.755859 7.895508 -14.912109C7.612305 -15.068359 7.312012 -15.200195 6.994629 -15.307617C6.677246 -15.415039 6.318359 -15.468750 5.917969 -15.468750ZM5.917969 -15.468750"></path></svg>