<svg width="18.691406" height="21.972656" viewBox="1.391602 -43.461914 18.691406 21.972656" xmlns="http://www.w3.org/2000/svg"><path d="M12.011719 -42.231445C10.947266 -42.231445 9.948730 -42.004395 9.016113 -41.550293C8.083496 -41.096191 7.270508 -40.451660 6.577148 -39.616699C5.883789 -38.781738 5.336914 -37.768555 4.936523 -36.577148C4.536133 -35.385742 4.335938 -34.057617 4.335938 -32.592773C4.335938 -31.645508 4.431152 -30.754395 4.621582 -29.919434C4.812012 -29.084473 5.083008 -28.312988 5.434570 -27.604980C5.786133 -26.896973 6.206055 -26.262207 6.694336 -25.700684C7.182617 -25.139160 7.724609 -24.663086 8.320312 -24.272461C8.916016 -23.881836 9.555664 -23.581543 10.239258 -23.371582C10.922852 -23.161621 11.635742 -23.056641 12.377930 -23.056641C13.032227 -23.056641 13.684082 -23.129883 14.333496 -23.276367C14.982910 -23.422852 15.607910 -23.642578 16.208496 -23.935547C16.809082 -24.228516 17.373047 -24.589844 17.900391 -25.019531C18.427734 -25.449219 18.896484 -25.942383 19.306641 -26.499023L20.083008 -25.869141C19.438477 -24.980469 18.747559 -24.252930 18.010254 -23.686523C17.272949 -23.120117 16.530762 -22.673340 15.783691 -22.346191C15.036621 -22.019043 14.304199 -21.794434 13.586426 -21.672363C12.868652 -21.550293 12.202148 -21.489258 11.586914 -21.489258C10.083008 -21.489258 8.706055 -21.765137 7.456055 -22.316895C6.206055 -22.868652 5.131836 -23.623047 4.233398 -24.580078C3.334961 -25.537109 2.636719 -26.662598 2.138672 -27.956543C1.640625 -29.250488 1.391602 -30.644531 1.391602 -32.138672C1.391602 -33.076172 1.486816 -34.008789 1.677246 -34.936523C1.867676 -35.864258 2.155762 -36.745605 2.541504 -37.580566C2.927246 -38.415527 3.408203 -39.191895 3.984375 -39.909668C4.560547 -40.627441 5.234375 -41.250000 6.005859 -41.777344C6.777344 -42.304688 7.646484 -42.717285 8.613281 -43.015137C9.580078 -43.312988 10.644531 -43.461914 11.806641 -43.461914C12.939453 -43.461914 13.999023 -43.310547 14.985352 -43.007812C15.971680 -42.705078 16.928711 -42.246094 17.856445 -41.630859L17.709961 -43.242188L19.335938 -43.242188L19.335938 -36.284180L18.251953 -36.284180C18.144531 -37.221680 17.922363 -38.059082 17.585449 -38.796387C17.248535 -39.533691 16.813965 -40.156250 16.281738 -40.664062C15.749512 -41.171875 15.122070 -41.560059 14.399414 -41.828613C13.676758 -42.097168 12.880859 -42.231445 12.011719 -42.231445ZM12.011719 -42.231445"></path></svg>