<svg width="21.064453" height="15.966797" viewBox="1.025391 -31.450195 21.064453 15.966797" xmlns="http://www.w3.org/2000/svg"><path d="M10.356445 -19.174805C10.327148 -19.379883 10.297852 -19.650879 10.268555 -19.987793C10.239258 -20.324707 10.209961 -20.681152 10.180664 -21.057129C10.151367 -21.433105 10.124512 -21.809082 10.100098 -22.185059C10.075684 -22.561035 10.058594 -22.895508 10.048828 -23.188477C9.375000 -23.159180 8.676758 -23.076172 7.954102 -22.939453C7.231445 -22.802734 6.567383 -22.590332 5.961914 -22.302246C5.356445 -22.014160 4.858398 -21.638184 4.467773 -21.174316C4.077148 -20.710449 3.881836 -20.141602 3.881836 -19.467773C3.881836 -19.008789 3.959961 -18.632812 4.116211 -18.339844C4.272461 -18.046875 4.472656 -17.814941 4.716797 -17.644043C4.960938 -17.473145 5.227051 -17.353516 5.515137 -17.285156C5.803223 -17.216797 6.074219 -17.182617 6.328125 -17.182617C7.158203 -17.182617 7.897949 -17.358398 8.547363 -17.709961C9.196777 -18.061523 9.799805 -18.549805 10.356445 -19.174805ZM16.479492 -30.278320C15.893555 -30.278320 15.393066 -30.161133 14.978027 -29.926758C14.562988 -29.692383 14.218750 -29.375000 13.945312 -28.974609C13.671875 -28.574219 13.457031 -28.110352 13.300781 -27.583008C13.144531 -27.055664 13.032227 -26.494141 12.963867 -25.898438L19.204102 -25.898438C19.204102 -26.425781 19.172363 -26.950684 19.108887 -27.473145C19.045410 -27.995605 18.916016 -28.464355 18.720703 -28.879395C18.525391 -29.294434 18.249512 -29.631348 17.893066 -29.890137C17.536621 -30.148926 17.065430 -30.278320 16.479492 -30.278320ZM1.992188 -27.744141C1.992188 -28.193359 2.119141 -28.640137 2.373047 -29.084473C2.626953 -29.528809 2.995605 -29.926758 3.479004 -30.278320C3.962402 -30.629883 4.545898 -30.913086 5.229492 -31.127930C5.913086 -31.342773 6.689453 -31.450195 7.558594 -31.450195C8.564453 -31.450195 9.416504 -31.223145 10.114746 -30.769043C10.812988 -30.314941 11.342773 -29.677734 11.704102 -28.857422C12.260742 -29.619141 12.946777 -30.241699 13.762207 -30.725098C14.577637 -31.208496 15.522461 -31.450195 16.596680 -31.450195C17.358398 -31.450195 18.061523 -31.328125 18.706055 -31.083984C19.350586 -30.839844 19.909668 -30.451660 20.383301 -29.919434C20.856934 -29.387207 21.228027 -28.701172 21.496582 -27.861328C21.765137 -27.021484 21.904297 -26.005859 21.914062 -24.814453L12.758789 -24.638672C12.729492 -24.257812 12.714844 -23.896484 12.714844 -23.554688C12.714844 -22.500000 12.827148 -21.564941 13.051758 -20.749512C13.276367 -19.934082 13.588867 -19.250488 13.989258 -18.698730C14.389648 -18.146973 14.863281 -17.729492 15.410156 -17.446289C15.957031 -17.163086 16.552734 -17.021484 17.197266 -17.021484C17.666016 -17.021484 18.098145 -17.084961 18.493652 -17.211914C18.889160 -17.338867 19.255371 -17.512207 19.592285 -17.731934C19.929199 -17.951660 20.241699 -18.215332 20.529785 -18.522949C20.817871 -18.830566 21.088867 -19.160156 21.342773 -19.511719L22.089844 -18.911133C21.679688 -18.286133 21.252441 -17.756348 20.808105 -17.321777C20.363770 -16.887207 19.904785 -16.533203 19.431152 -16.259766C18.957520 -15.986328 18.474121 -15.788574 17.980957 -15.666504C17.487793 -15.544434 16.987305 -15.483398 16.479492 -15.483398C15.297852 -15.483398 14.248047 -15.708008 13.330078 -16.157227C12.412109 -16.606445 11.674805 -17.329102 11.118164 -18.325195L11.088867 -18.325195C10.708008 -17.807617 10.297852 -17.368164 9.858398 -17.006836C9.418945 -16.645508 8.959961 -16.352539 8.481445 -16.127930C8.002930 -15.903320 7.504883 -15.739746 6.987305 -15.637207C6.469727 -15.534668 5.942383 -15.483398 5.405273 -15.483398C4.721680 -15.483398 4.108887 -15.571289 3.566895 -15.747070C3.024902 -15.922852 2.565918 -16.164551 2.189941 -16.472168C1.813965 -16.779785 1.525879 -17.148438 1.325684 -17.578125C1.125488 -18.007812 1.025391 -18.471680 1.025391 -18.969727C1.025391 -19.594727 1.157227 -20.156250 1.420898 -20.654297C1.684570 -21.152344 2.041016 -21.596680 2.490234 -21.987305C2.939453 -22.377930 3.461914 -22.712402 4.057617 -22.990723C4.653320 -23.269043 5.288086 -23.498535 5.961914 -23.679199C6.635742 -23.859863 7.326660 -23.994141 8.034668 -24.082031C8.742676 -24.169922 9.428711 -24.213867 10.092773 -24.213867L10.092773 -26.044922C10.092773 -26.582031 10.065918 -27.106934 10.012207 -27.619629C9.958496 -28.132324 9.829102 -28.591309 9.624023 -28.996582C9.418945 -29.401855 9.118652 -29.729004 8.723145 -29.978027C8.327637 -30.227051 7.792969 -30.351562 7.119141 -30.351562C6.787109 -30.351562 6.464844 -30.310059 6.152344 -30.227051C5.839844 -30.144043 5.551758 -30.024414 5.288086 -29.868164C5.024414 -29.711914 4.792480 -29.523926 4.592285 -29.304199C4.392090 -29.084473 4.238281 -28.837891 4.130859 -28.564453C4.267578 -28.437500 4.370117 -28.271484 4.438477 -28.066406C4.506836 -27.861328 4.541016 -27.700195 4.541016 -27.583008C4.541016 -27.465820 4.516602 -27.333984 4.467773 -27.187500C4.418945 -27.041016 4.343262 -26.901855 4.240723 -26.770020C4.138184 -26.638184 4.003906 -26.528320 3.837891 -26.440430C3.671875 -26.352539 3.471680 -26.308594 3.237305 -26.308594C2.866211 -26.308594 2.565918 -26.437988 2.336426 -26.696777C2.106934 -26.955566 1.992188 -27.304688 1.992188 -27.744141ZM1.992188 -27.744141"></path></svg>