<svg width="6.386719" height="22.646484" viewBox="0.747070 -45.292969 6.386719 22.646484" xmlns="http://www.w3.org/2000/svg"><path d="M2.783203 -41.396484C2.783203 -41.708984 2.785645 -42.011719 2.790527 -42.304688C2.795410 -42.597656 2.822266 -42.944336 2.871094 -43.344727L0.747070 -43.227539L0.747070 -44.487305C1.401367 -44.487305 1.945801 -44.509277 2.380371 -44.553223C2.814941 -44.597168 3.168945 -44.658203 3.442383 -44.736328C3.715820 -44.814453 3.930664 -44.899902 4.086914 -44.992676C4.243164 -45.085449 4.379883 -45.185547 4.497070 -45.292969L5.361328 -45.292969L5.390625 -25.825195C5.390625 -25.424805 5.380859 -25.070801 5.361328 -24.763184C5.341797 -24.455566 5.302734 -24.130859 5.244141 -23.789062L7.133789 -23.876953L7.133789 -22.646484L1.010742 -22.646484L1.010742 -23.540039C1.469727 -23.540039 1.818848 -23.630371 2.058105 -23.811035C2.297363 -23.991699 2.470703 -24.243164 2.578125 -24.565430C2.685547 -24.887695 2.746582 -25.273438 2.761230 -25.722656C2.775879 -26.171875 2.783203 -26.665039 2.783203 -27.202148ZM2.783203 -41.396484"></path></svg>