<svg width="16.259766" height="22.353516" viewBox="0.776367 -44.223633 16.259766 22.353516" xmlns="http://www.w3.org/2000/svg"><path d="M12.451172 -33.413086C12.451172 -33.901367 12.460938 -34.318848 12.480469 -34.665527C12.500000 -35.012207 12.539062 -35.356445 12.597656 -35.698242L10.444336 -35.610352L10.444336 -36.840820L11.367188 -36.840820C11.796875 -36.840820 12.163086 -36.862793 12.465820 -36.906738C12.768555 -36.950684 13.027344 -37.011719 13.242188 -37.089844C13.457031 -37.167969 13.635254 -37.253418 13.776855 -37.346191C13.918457 -37.438965 14.047852 -37.539062 14.165039 -37.646484L15.029297 -37.646484L15.000000 -26.308594C15.000000 -26.152344 14.997559 -25.954590 14.992676 -25.715332C14.987793 -25.476074 14.980469 -25.227051 14.970703 -24.968262C14.960938 -24.709473 14.948730 -24.450684 14.934082 -24.191895C14.919434 -23.933105 14.902344 -23.701172 14.882812 -23.496094L17.036133 -23.613281L17.036133 -22.353516L12.744141 -22.353516C12.695312 -22.695312 12.653809 -23.010254 12.619629 -23.298340C12.585449 -23.586426 12.558594 -23.872070 12.539062 -24.155273C12.226562 -23.842773 11.879883 -23.547363 11.499023 -23.269043C11.118164 -22.990723 10.715332 -22.749023 10.290527 -22.543945C9.865723 -22.338867 9.428711 -22.175293 8.979492 -22.053223C8.530273 -21.931152 8.085938 -21.870117 7.646484 -21.870117C6.826172 -21.870117 6.108398 -21.979980 5.493164 -22.199707C4.877930 -22.419434 4.365234 -22.783203 3.955078 -23.291016C3.544922 -23.798828 3.237305 -24.470215 3.032227 -25.305176C2.827148 -26.140137 2.724609 -27.177734 2.724609 -28.417969L2.724609 -33.750000C2.724609 -34.062500 2.729492 -34.379883 2.739258 -34.702148C2.749023 -35.024414 2.783203 -35.356445 2.841797 -35.698242L0.776367 -35.610352L0.776367 -36.840820L1.713867 -36.840820C2.133789 -36.840820 2.495117 -36.862793 2.797852 -36.906738C3.100586 -36.950684 3.359375 -37.011719 3.574219 -37.089844C3.789062 -37.167969 3.967285 -37.253418 4.108887 -37.346191C4.250488 -37.438965 4.379883 -37.539062 4.497070 -37.646484L5.361328 -37.646484L5.361328 -28.505859C5.361328 -27.636719 5.419922 -26.882324 5.537109 -26.242676C5.654297 -25.603027 5.842285 -25.070801 6.101074 -24.645996C6.359863 -24.221191 6.694336 -23.908691 7.104492 -23.708496C7.514648 -23.508301 8.017578 -23.408203 8.613281 -23.408203C8.994141 -23.408203 9.367676 -23.471680 9.733887 -23.598633C10.100098 -23.725586 10.449219 -23.896484 10.781250 -24.111328C11.113281 -24.326172 11.423340 -24.570312 11.711426 -24.843750C11.999512 -25.117188 12.246094 -25.410156 12.451172 -25.722656L12.451172 -26.967773ZM8.144531 -42.407227C8.144531 -42.163086 8.103027 -41.933594 8.020020 -41.718750C7.937012 -41.503906 7.827148 -41.315918 7.690430 -41.154785C7.553711 -40.993652 7.395020 -40.866699 7.214355 -40.773926C7.033691 -40.681152 6.845703 -40.634766 6.650391 -40.634766C6.445312 -40.634766 6.252441 -40.681152 6.071777 -40.773926C5.891113 -40.866699 5.732422 -40.993652 5.595703 -41.154785C5.458984 -41.315918 5.351562 -41.503906 5.273438 -41.718750C5.195312 -41.933594 5.156250 -42.163086 5.156250 -42.407227C5.156250 -42.651367 5.197754 -42.885742 5.280762 -43.110352C5.363770 -43.334961 5.473633 -43.527832 5.610352 -43.688965C5.747070 -43.850098 5.908203 -43.979492 6.093750 -44.077148C6.279297 -44.174805 6.469727 -44.223633 6.665039 -44.223633C6.879883 -44.223633 7.077637 -44.174805 7.258301 -44.077148C7.438965 -43.979492 7.595215 -43.850098 7.727051 -43.688965C7.858887 -43.527832 7.961426 -43.334961 8.034668 -43.110352C8.107910 -42.885742 8.144531 -42.651367 8.144531 -42.407227ZM13.154297 -42.407227C13.154297 -42.163086 13.112793 -41.933594 13.029785 -41.718750C12.946777 -41.503906 12.836914 -41.315918 12.700195 -41.154785C12.563477 -40.993652 12.404785 -40.866699 12.224121 -40.773926C12.043457 -40.681152 11.855469 -40.634766 11.660156 -40.634766C11.455078 -40.634766 11.262207 -40.681152 11.081543 -40.773926C10.900879 -40.866699 10.742188 -40.993652 10.605469 -41.154785C10.468750 -41.315918 10.361328 -41.503906 10.283203 -41.718750C10.205078 -41.933594 10.166016 -42.163086 10.166016 -42.407227C10.166016 -42.651367 10.207520 -42.885742 10.290527 -43.110352C10.373535 -43.334961 10.483398 -43.527832 10.620117 -43.688965C10.756836 -43.850098 10.917969 -43.979492 11.103516 -44.077148C11.289062 -44.174805 11.479492 -44.223633 11.674805 -44.223633C11.889648 -44.223633 12.087402 -44.174805 12.268066 -44.077148C12.448730 -43.979492 12.604980 -43.850098 12.736816 -43.688965C12.868652 -43.527832 12.971191 -43.334961 13.044434 -43.110352C13.117676 -42.885742 13.154297 -42.651367 13.154297 -42.407227ZM13.154297 -42.407227"></path></svg>