<svg width="6.840820" height="6.635742" viewBox="1.376953 -34.716797 6.840820 6.635742" xmlns="http://www.w3.org/2000/svg"><path d="M4.672852 -33.691406C4.204102 -33.662109 3.828125 -33.457031 3.544922 -33.076172C3.261719 -32.695312 3.120117 -32.182617 3.120117 -31.538086C3.120117 -30.815430 3.278809 -30.234375 3.596191 -29.794922C3.913574 -29.355469 4.340820 -29.135742 4.877930 -29.135742C5.083008 -29.135742 5.283203 -29.182129 5.478516 -29.274902C5.673828 -29.367676 5.844727 -29.501953 5.991211 -29.677734C6.137695 -29.853516 6.254883 -30.065918 6.342773 -30.314941C6.430664 -30.563965 6.474609 -30.849609 6.474609 -31.171875C6.474609 -32.001953 6.315918 -32.629395 5.998535 -33.054199C5.681152 -33.479004 5.273438 -33.691406 4.775391 -33.691406ZM4.775391 -34.716797C5.175781 -34.716797 5.576172 -34.655762 5.976562 -34.533691C6.376953 -34.411621 6.740723 -34.221191 7.067871 -33.962402C7.395020 -33.703613 7.663574 -33.378906 7.873535 -32.988281C8.083496 -32.597656 8.198242 -32.133789 8.217773 -31.596680C8.217773 -31.049805 8.122559 -30.561523 7.932129 -30.131836C7.741699 -29.702148 7.487793 -29.333496 7.170410 -29.025879C6.853027 -28.718262 6.491699 -28.483887 6.086426 -28.322754C5.681152 -28.161621 5.263672 -28.081055 4.833984 -28.081055C4.404297 -28.081055 3.981934 -28.144531 3.566895 -28.271484C3.151855 -28.398438 2.783203 -28.596191 2.460938 -28.864746C2.138672 -29.133301 1.877441 -29.472656 1.677246 -29.882812C1.477051 -30.292969 1.376953 -30.781250 1.376953 -31.347656C1.376953 -31.855469 1.477051 -32.316895 1.677246 -32.731934C1.877441 -33.146973 2.138672 -33.500977 2.460938 -33.793945C2.783203 -34.086914 3.146973 -34.313965 3.552246 -34.475098C3.957520 -34.636230 4.365234 -34.716797 4.775391 -34.716797ZM4.775391 -34.716797"></path></svg>