<svg width="15.659180" height="27.814941" viewBox="1.655273 -55.629883 15.659180 27.814941" xmlns="http://www.w3.org/2000/svg"><path d="M6.342773 -31.271973C6.342773 -30.715332 6.335449 -30.249023 6.320801 -29.873047C6.306152 -29.497070 6.279297 -29.182129 6.240234 -28.928223L11.982422 -29.016113C12.636719 -29.025879 13.227539 -29.106445 13.754883 -29.257812C14.282227 -29.409180 14.733887 -29.663086 15.109863 -30.019531C15.485840 -30.375977 15.776367 -30.849609 15.981445 -31.440430C16.186523 -32.031250 16.289062 -32.770996 16.289062 -33.659668L17.314453 -33.659668L17.138672 -27.814941L1.655273 -27.814941L1.655273 -28.811035C2.133789 -28.820801 2.512207 -28.896484 2.790527 -29.038086C3.068848 -29.179688 3.276367 -29.372559 3.413086 -29.616699C3.549805 -29.860840 3.635254 -30.151367 3.669434 -30.488281C3.703613 -30.825195 3.720703 -31.198730 3.720703 -31.608887L3.720703 -32.487793L3.720703 -45.451660C3.720703 -45.861816 3.728027 -46.250000 3.742676 -46.616211C3.757324 -46.982422 3.784180 -47.316895 3.823242 -47.619629L1.655273 -47.487793L1.655273 -48.820801L16.083984 -48.820801L16.230469 -43.562012L15.249023 -43.562012C15.249023 -44.421387 15.148926 -45.124512 14.948730 -45.671387C14.748535 -46.218262 14.475098 -46.647949 14.128418 -46.960449C13.781738 -47.272949 13.374023 -47.485352 12.905273 -47.597656C12.436523 -47.709961 11.928711 -47.766113 11.381836 -47.766113L8.613281 -47.722168C8.056641 -47.692871 7.624512 -47.604980 7.316895 -47.458496C7.009277 -47.312012 6.782227 -47.094727 6.635742 -46.806641C6.489258 -46.518555 6.403809 -46.154785 6.379395 -45.715332C6.354980 -45.275879 6.342773 -44.748535 6.342773 -44.133301L6.342773 -39.299316L11.967773 -39.299316L11.748047 -41.892090L13.081055 -41.892090L13.081055 -35.578613L12.099609 -35.578613C12.099609 -36.164551 12.048340 -36.630859 11.945801 -36.977539C11.843262 -37.324219 11.682129 -37.592773 11.462402 -37.783203C11.242676 -37.973633 10.964355 -38.098145 10.627441 -38.156738C10.290527 -38.215332 9.882812 -38.244629 9.404297 -38.244629C9.267578 -38.244629 9.125977 -38.244629 8.979492 -38.244629C8.833008 -38.244629 7.954102 -38.210449 6.342773 -38.142090ZM6.005859 -53.288574C5.664062 -53.493652 5.424805 -53.698730 5.288086 -53.903809C5.151367 -54.108887 5.068359 -54.299316 5.039062 -54.475098C5.009766 -54.650879 5.019531 -54.804688 5.068359 -54.936523C5.117188 -55.068359 5.166016 -55.168457 5.214844 -55.236816C5.244141 -55.275879 5.310059 -55.336914 5.412598 -55.419922C5.515137 -55.502930 5.651855 -55.561523 5.822754 -55.595703C5.993652 -55.629883 6.198730 -55.617676 6.437988 -55.559082C6.677246 -55.500488 6.943359 -55.344238 7.236328 -55.090332L11.015625 -51.486816L10.356445 -50.607910ZM6.005859 -53.288574"></path></svg>