<svg width="21.123047" height="28.298340" viewBox="1.376953 -56.113281 21.123047 28.298340" xmlns="http://www.w3.org/2000/svg"><path d="M4.321289 -39.343262C4.321289 -38.601074 4.389648 -37.832031 4.526367 -37.036133C4.663086 -36.240234 4.870605 -35.461426 5.148926 -34.699707C5.427246 -33.937988 5.778809 -33.212891 6.203613 -32.524414C6.628418 -31.835938 7.131348 -31.235352 7.712402 -30.722656C8.293457 -30.209961 8.947754 -29.802246 9.675293 -29.499512C10.402832 -29.196777 11.215820 -29.045410 12.114258 -29.045410C12.934570 -29.045410 13.686523 -29.169922 14.370117 -29.418945C15.053711 -29.667969 15.668945 -30.009766 16.215820 -30.444336C16.762695 -30.878906 17.241211 -31.391602 17.651367 -31.982422C18.061523 -32.573242 18.403320 -33.208008 18.676758 -33.886719C18.950195 -34.565430 19.157715 -35.290527 19.299316 -36.062012C19.440918 -36.833496 19.511719 -37.556152 19.511719 -38.229980C19.511719 -38.952637 19.433594 -39.753418 19.277344 -40.632324C19.121094 -41.511230 18.891602 -42.333984 18.588867 -43.100586C18.286133 -43.867188 17.915039 -44.584961 17.475586 -45.253906C17.036133 -45.922852 16.528320 -46.503906 15.952148 -46.997070C15.375977 -47.490234 14.733887 -47.878418 14.025879 -48.161621C13.317871 -48.444824 12.548828 -48.586426 11.718750 -48.586426C10.488281 -48.586426 9.409180 -48.312988 8.481445 -47.766113C7.553711 -47.219238 6.782227 -46.506348 6.166992 -45.627441C5.551758 -44.748535 5.090332 -43.759766 4.782715 -42.661133C4.475098 -41.562500 4.321289 -40.456543 4.321289 -39.343262ZM1.376953 -38.801270C1.376953 -39.641113 1.469727 -40.495605 1.655273 -41.364746C1.840820 -42.233887 2.124023 -43.076172 2.504883 -43.891602C2.885742 -44.707031 3.364258 -45.471191 3.940430 -46.184082C4.516602 -46.896973 5.190430 -47.521973 5.961914 -48.059082C6.733398 -48.596191 7.607422 -49.018555 8.583984 -49.326172C9.560547 -49.633789 10.639648 -49.787598 11.821289 -49.787598C13.041992 -49.787598 14.152832 -49.631348 15.153809 -49.318848C16.154785 -49.006348 17.050781 -48.583984 17.841797 -48.051758C18.632812 -47.519531 19.318848 -46.894531 19.899902 -46.176758C20.480957 -45.458984 20.964355 -44.692383 21.350098 -43.876953C21.735840 -43.061523 22.023926 -42.219238 22.214355 -41.350098C22.404785 -40.480957 22.500000 -39.631348 22.500000 -38.801270C22.500000 -37.971191 22.404785 -37.124023 22.214355 -36.259766C22.023926 -35.395508 21.740723 -34.555664 21.364746 -33.740234C20.988770 -32.924805 20.512695 -32.158203 19.936523 -31.440430C19.360352 -30.722656 18.684082 -30.095215 17.907715 -29.558105C17.131348 -29.020996 16.257324 -28.596191 15.285645 -28.283691C14.313965 -27.971191 13.237305 -27.814941 12.055664 -27.814941C10.786133 -27.814941 9.641113 -27.966309 8.620605 -28.269043C7.600098 -28.571777 6.694336 -28.984375 5.903320 -29.506836C5.112305 -30.029297 4.431152 -30.644531 3.859863 -31.352539C3.288574 -32.060547 2.819824 -32.819824 2.453613 -33.630371C2.087402 -34.440918 1.816406 -35.288086 1.640625 -36.171875C1.464844 -37.055664 1.376953 -37.932129 1.376953 -38.801270ZM8.876953 -53.771973C8.535156 -53.977051 8.295898 -54.182129 8.159180 -54.387207C8.022461 -54.592285 7.939453 -54.782715 7.910156 -54.958496C7.880859 -55.134277 7.890625 -55.288086 7.939453 -55.419922C7.988281 -55.551758 8.037109 -55.651855 8.085938 -55.720215C8.115234 -55.759277 8.181152 -55.820312 8.283691 -55.903320C8.386230 -55.986328 8.522949 -56.044922 8.693848 -56.079102C8.864746 -56.113281 9.069824 -56.101074 9.309082 -56.042480C9.548340 -55.983887 9.814453 -55.827637 10.107422 -55.573730L13.886719 -51.970215L13.227539 -51.091309ZM8.876953 -53.771973"></path></svg>