<svg width="16.215820" height="15.336914" viewBox="0.219727 -30.336914 16.215820 15.336914" xmlns="http://www.w3.org/2000/svg"><path d="M14.663086 -18.515625C14.643555 -18.115234 14.626465 -17.761230 14.611816 -17.453613C14.597168 -17.145996 14.560547 -16.821289 14.501953 -16.479492L16.391602 -16.567383L16.391602 -15.336914L10.268555 -15.336914L10.268555 -16.230469C10.727539 -16.230469 11.076660 -16.320801 11.315918 -16.501465C11.555176 -16.682129 11.730957 -16.933594 11.843262 -17.255859C11.955566 -17.578125 12.021484 -17.963867 12.041016 -18.413086C12.060547 -18.862305 12.075195 -19.355469 12.084961 -19.892578L12.084961 -27.158203C12.084961 -27.558594 12.089844 -27.912598 12.099609 -28.220215C12.109375 -28.527832 12.143555 -28.852539 12.202148 -29.194336L9.565430 -29.194336C9.223633 -29.194336 8.937988 -29.138184 8.708496 -29.025879C8.479004 -28.913574 8.295898 -28.754883 8.159180 -28.549805C8.022461 -28.344727 7.927246 -28.098145 7.873535 -27.810059C7.819824 -27.521973 7.792969 -27.197266 7.792969 -26.835938C7.744141 -25.888672 7.666016 -24.936523 7.558594 -23.979492C7.451172 -23.022461 7.307129 -22.106934 7.126465 -21.232910C6.945801 -20.358887 6.718750 -19.541016 6.445312 -18.779297C6.171875 -18.017578 5.847168 -17.358398 5.471191 -16.801758C5.095215 -16.245117 4.658203 -15.805664 4.160156 -15.483398C3.662109 -15.161133 3.095703 -15.000000 2.460938 -15.000000C1.738281 -15.000000 1.184082 -15.144043 0.798340 -15.432129C0.412598 -15.720215 0.219727 -16.103516 0.219727 -16.582031C0.219727 -17.031250 0.329590 -17.397461 0.549316 -17.680664C0.769043 -17.963867 1.098633 -18.110352 1.538086 -18.120117C1.782227 -18.120117 1.987305 -18.088379 2.153320 -18.024902C2.319336 -17.961426 2.456055 -17.875977 2.563477 -17.768555C2.670898 -17.661133 2.751465 -17.543945 2.805176 -17.416992C2.858887 -17.290039 2.885742 -17.167969 2.885742 -17.050781C2.885742 -16.992188 2.878418 -16.918945 2.863770 -16.831055C2.849121 -16.743164 2.832031 -16.665039 2.812500 -16.596680C2.890625 -16.557617 2.983398 -16.538086 3.090820 -16.538086C3.383789 -16.538086 3.696289 -16.755371 4.028320 -17.189941C4.360352 -17.624512 4.677734 -18.337402 4.980469 -19.328613C5.283203 -20.319824 5.554199 -21.621094 5.793457 -23.232422C6.032715 -24.843750 6.210938 -26.826172 6.328125 -29.179688L3.515625 -29.033203L3.515625 -30.336914L16.435547 -30.336914L16.435547 -29.443359C15.976562 -29.443359 15.627441 -29.353027 15.388184 -29.172363C15.148926 -28.991699 14.975586 -28.740234 14.868164 -28.417969C14.760742 -28.095703 14.699707 -27.709961 14.685059 -27.260742C14.670410 -26.811523 14.663086 -26.318359 14.663086 -25.781250ZM14.663086 -18.515625"></path></svg>