<svg width="11.118164" height="15.966797" viewBox="1.567383 -31.450195 11.118164 15.966797" xmlns="http://www.w3.org/2000/svg"><path d="M6.958008 -16.655273C7.338867 -16.655273 7.722168 -16.701660 8.107910 -16.794434C8.493652 -16.887207 8.845215 -17.031250 9.162598 -17.226562C9.479980 -17.421875 9.738770 -17.668457 9.938965 -17.966309C10.139160 -18.264160 10.239258 -18.618164 10.239258 -19.028320C10.239258 -19.506836 10.114746 -19.914551 9.865723 -20.251465C9.616699 -20.588379 9.289551 -20.886230 8.884277 -21.145020C8.479004 -21.403809 8.015137 -21.635742 7.492676 -21.840820C6.970215 -22.045898 6.437988 -22.255859 5.895996 -22.470703C5.354004 -22.685547 4.824219 -22.922363 4.306641 -23.181152C3.789062 -23.439941 3.327637 -23.745117 2.922363 -24.096680C2.517090 -24.448242 2.189941 -24.868164 1.940918 -25.356445C1.691895 -25.844727 1.567383 -26.425781 1.567383 -27.099609C1.567383 -27.519531 1.645508 -27.980957 1.801758 -28.483887C1.958008 -28.986816 2.231445 -29.458008 2.622070 -29.897461C3.012695 -30.336914 3.537598 -30.705566 4.196777 -31.003418C4.855957 -31.301270 5.688477 -31.450195 6.694336 -31.450195C6.967773 -31.450195 7.258301 -31.430664 7.565918 -31.391602C7.873535 -31.352539 8.188477 -31.281738 8.510742 -31.179199C8.833008 -31.076660 9.155273 -30.942383 9.477539 -30.776367C9.799805 -30.610352 10.117188 -30.405273 10.429688 -30.161133L10.356445 -31.303711L11.616211 -31.303711L11.616211 -26.044922L10.678711 -26.044922C10.639648 -26.562500 10.539551 -27.075195 10.378418 -27.583008C10.217285 -28.090820 9.982910 -28.547363 9.675293 -28.952637C9.367676 -29.357910 8.979492 -29.687500 8.510742 -29.941406C8.041992 -30.195312 7.485352 -30.322266 6.840820 -30.322266C6.372070 -30.322266 5.957031 -30.261230 5.595703 -30.139160C5.234375 -30.017090 4.929199 -29.851074 4.680176 -29.641113C4.431152 -29.431152 4.243164 -29.189453 4.116211 -28.916016C3.989258 -28.642578 3.925781 -28.354492 3.925781 -28.051758C3.925781 -27.563477 4.050293 -27.143555 4.299316 -26.791992C4.548340 -26.440430 4.877930 -26.127930 5.288086 -25.854492C5.698242 -25.581055 6.166992 -25.334473 6.694336 -25.114746C7.221680 -24.895020 7.758789 -24.670410 8.305664 -24.440918C8.852539 -24.211426 9.389648 -23.967285 9.916992 -23.708496C10.444336 -23.449707 10.913086 -23.144531 11.323242 -22.792969C11.733398 -22.441406 12.062988 -22.031250 12.312012 -21.562500C12.561035 -21.093750 12.685547 -20.537109 12.685547 -19.892578C12.685547 -19.140625 12.534180 -18.486328 12.231445 -17.929688C11.928711 -17.373047 11.530762 -16.914062 11.037598 -16.552734C10.544434 -16.191406 9.987793 -15.922852 9.367676 -15.747070C8.747559 -15.571289 8.120117 -15.483398 7.485352 -15.483398C6.469727 -15.483398 5.576172 -15.617676 4.804688 -15.886230C4.033203 -16.154785 3.398438 -16.459961 2.900391 -16.801758L3.002930 -15.761719L1.743164 -15.761719L1.567383 -20.917969L2.490234 -20.917969C2.529297 -20.292969 2.673340 -19.719238 2.922363 -19.196777C3.171387 -18.674316 3.498535 -18.225098 3.903809 -17.849121C4.309082 -17.473145 4.772949 -17.180176 5.295410 -16.970215C5.817871 -16.760254 6.372070 -16.655273 6.958008 -16.655273ZM6.958008 -16.655273"></path></svg>