<svg width="24.785156" height="15.483398" viewBox="1.083984 -30.966797 24.785156 15.483398" xmlns="http://www.w3.org/2000/svg"><path d="M3.090820 -26.879883C3.090820 -27.192383 3.095703 -27.509766 3.105469 -27.832031C3.115234 -28.154297 3.149414 -28.486328 3.208008 -28.828125L1.083984 -28.710938L1.083984 -29.970703C1.738281 -29.970703 2.270508 -29.992676 2.680664 -30.036621C3.090820 -30.080566 3.420410 -30.141602 3.669434 -30.219727C3.918457 -30.297852 4.111328 -30.383301 4.248047 -30.476074C4.384766 -30.568848 4.511719 -30.668945 4.628906 -30.776367L5.493164 -30.776367C5.512695 -30.581055 5.532227 -30.356445 5.551758 -30.102539C5.571289 -29.848633 5.590820 -29.541016 5.610352 -29.179688C5.913086 -29.433594 6.240234 -29.670410 6.591797 -29.890137C6.943359 -30.109863 7.307129 -30.300293 7.683105 -30.461426C8.059082 -30.622559 8.444824 -30.747070 8.840332 -30.834961C9.235840 -30.922852 9.628906 -30.966797 10.019531 -30.966797C11.035156 -30.966797 11.879883 -30.783691 12.553711 -30.417480C13.227539 -30.051270 13.754883 -29.560547 14.135742 -28.945312C14.467773 -29.228516 14.833984 -29.492188 15.234375 -29.736328C15.634766 -29.980469 16.049805 -30.195312 16.479492 -30.380859C16.909180 -30.566406 17.348633 -30.710449 17.797852 -30.812988C18.247070 -30.915527 18.686523 -30.966797 19.116211 -30.966797C19.985352 -30.966797 20.739746 -30.839844 21.379395 -30.585938C22.019043 -30.332031 22.546387 -29.934082 22.961426 -29.392090C23.376465 -28.850098 23.679199 -28.154297 23.869629 -27.304688C24.060059 -26.455078 24.145508 -25.439453 24.125977 -24.257812L24.096680 -18.662109C24.096680 -18.261719 24.091797 -17.907715 24.082031 -17.600098C24.072266 -17.292480 24.038086 -16.967773 23.979492 -16.625977L25.869141 -16.713867L25.869141 -15.483398L19.746094 -15.483398L19.746094 -16.376953C20.205078 -16.376953 20.554199 -16.467285 20.793457 -16.647949C21.032715 -16.828613 21.206055 -17.080078 21.313477 -17.402344C21.420898 -17.724609 21.481934 -18.110352 21.496582 -18.559570C21.511230 -19.008789 21.518555 -19.501953 21.518555 -20.039062L21.518555 -24.228516C21.518555 -25.957031 21.245117 -27.248535 20.698242 -28.103027C20.151367 -28.957520 19.282227 -29.384766 18.090820 -29.384766C17.465820 -29.384766 16.843262 -29.243164 16.223145 -28.959961C15.603027 -28.676758 15.063477 -28.325195 14.604492 -27.905273C14.809570 -27.231445 14.912109 -26.503906 14.912109 -25.722656L14.853516 -18.662109C14.853516 -18.261719 14.848633 -17.907715 14.838867 -17.600098C14.829102 -17.292480 14.794922 -16.967773 14.736328 -16.625977L16.625977 -16.713867L16.625977 -15.483398L10.502930 -15.483398L10.502930 -16.376953C10.961914 -16.376953 11.311035 -16.467285 11.550293 -16.647949C11.789551 -16.828613 11.960449 -17.080078 12.062988 -17.402344C12.165527 -17.724609 12.224121 -18.110352 12.238770 -18.559570C12.253418 -19.008789 12.265625 -19.501953 12.275391 -20.039062L12.304688 -24.228516C12.314453 -25.947266 12.062988 -27.246094 11.550293 -28.125000C11.037598 -29.003906 10.190430 -29.443359 9.008789 -29.443359C8.393555 -29.443359 7.785645 -29.309082 7.185059 -29.040527C6.584473 -28.771973 6.074219 -28.422852 5.654297 -27.993164C5.654297 -27.758789 5.656738 -27.507324 5.661621 -27.238770C5.666504 -26.970215 5.668945 -26.684570 5.668945 -26.381836L5.668945 -18.662109C5.668945 -18.261719 5.664062 -17.907715 5.654297 -17.600098C5.644531 -17.292480 5.610352 -16.967773 5.551758 -16.625977L7.441406 -16.713867L7.441406 -15.483398L1.318359 -15.483398L1.318359 -16.376953C1.777344 -16.376953 2.126465 -16.467285 2.365723 -16.647949C2.604980 -16.828613 2.778320 -17.080078 2.885742 -17.402344C2.993164 -17.724609 3.054199 -18.110352 3.068848 -18.559570C3.083496 -19.008789 3.090820 -19.501953 3.090820 -20.039062ZM3.090820 -26.879883"></path></svg>