<svg width="14.003906" height="21.972656" viewBox="1.406250 -43.461914 14.003906 21.972656" xmlns="http://www.w3.org/2000/svg"><path d="M11.542969 -40.839844C11.435547 -41.230469 11.179199 -41.574707 10.773926 -41.872559C10.368652 -42.170410 9.814453 -42.319336 9.111328 -42.319336C8.544922 -42.319336 8.049316 -42.202148 7.624512 -41.967773C7.199707 -41.733398 6.845703 -41.420898 6.562500 -41.030273C6.279297 -40.639648 6.066895 -40.190430 5.925293 -39.682617C5.783691 -39.174805 5.712891 -38.642578 5.712891 -38.085938C5.712891 -37.578125 5.734863 -37.092285 5.778809 -36.628418C5.822754 -36.164551 5.878906 -35.715332 5.947266 -35.280762C6.015625 -34.846191 6.091309 -34.421387 6.174316 -34.006348C6.257324 -33.591309 6.342773 -33.178711 6.430664 -32.768555L10.971680 -32.768555L10.971680 -31.333008L6.679688 -31.333008C6.728516 -30.971680 6.770020 -30.607910 6.804199 -30.241699C6.838379 -29.875488 6.855469 -29.497070 6.855469 -29.106445C6.855469 -28.461914 6.713867 -27.836914 6.430664 -27.231445C6.147461 -26.625977 5.771484 -26.044922 5.302734 -25.488281C5.556641 -25.527344 5.812988 -25.556641 6.071777 -25.576172C6.330566 -25.595703 6.591797 -25.605469 6.855469 -25.605469C7.509766 -25.605469 8.127441 -25.512695 8.708496 -25.327148C9.289551 -25.141602 9.831543 -24.934082 10.334473 -24.704590C10.837402 -24.475098 11.298828 -24.267578 11.718750 -24.082031C12.138672 -23.896484 12.519531 -23.803711 12.861328 -23.803711C13.310547 -23.803711 13.679199 -23.957520 13.967285 -24.265137C14.255371 -24.572754 14.423828 -25.048828 14.472656 -25.693359L15.410156 -25.693359C15.390625 -25.087891 15.310059 -24.528809 15.168457 -24.016113C15.026855 -23.503418 14.829102 -23.059082 14.575195 -22.683105C14.321289 -22.307129 14.006348 -22.014160 13.630371 -21.804199C13.254395 -21.594238 12.827148 -21.489258 12.348633 -21.489258C11.928711 -21.489258 11.520996 -21.560059 11.125488 -21.701660C10.729980 -21.843262 10.339355 -22.021484 9.953613 -22.236328C9.567871 -22.451172 9.184570 -22.683105 8.803711 -22.932129C8.422852 -23.181152 8.034668 -23.413086 7.639160 -23.627930C7.243652 -23.842773 6.838379 -24.020996 6.423340 -24.162598C6.008301 -24.304199 5.576172 -24.375000 5.126953 -24.375000C4.921875 -24.375000 4.760742 -24.365234 4.643555 -24.345703C4.594727 -23.964844 4.501953 -23.601074 4.365234 -23.254395C4.228516 -22.907715 4.064941 -22.602539 3.874512 -22.338867C3.684082 -22.075195 3.474121 -21.867676 3.244629 -21.716309C3.015137 -21.564941 2.778320 -21.489258 2.534180 -21.489258C2.172852 -21.489258 1.894531 -21.604004 1.699219 -21.833496C1.503906 -22.062988 1.406250 -22.319336 1.406250 -22.602539C1.406250 -22.875977 1.472168 -23.144531 1.604004 -23.408203C1.735840 -23.671875 1.916504 -23.920898 2.145996 -24.155273C2.375488 -24.389648 2.648926 -24.597168 2.966309 -24.777832C3.283691 -24.958496 3.632812 -25.102539 4.013672 -25.209961C4.238281 -25.561523 4.423828 -25.966797 4.570312 -26.425781C4.716797 -26.884766 4.790039 -27.392578 4.790039 -27.949219C4.790039 -28.593750 4.738770 -29.184570 4.636230 -29.721680C4.533691 -30.258789 4.409180 -30.795898 4.262695 -31.333008L1.875000 -31.333008L1.875000 -32.768555L3.867188 -32.768555C3.720703 -33.354492 3.593750 -33.974609 3.486328 -34.628906C3.378906 -35.283203 3.325195 -36.035156 3.325195 -36.884766C3.325195 -37.880859 3.464355 -38.784180 3.742676 -39.594727C4.020996 -40.405273 4.404297 -41.096191 4.892578 -41.667480C5.380859 -42.238770 5.964355 -42.680664 6.643066 -42.993164C7.321777 -43.305664 8.066406 -43.461914 8.876953 -43.461914C9.755859 -43.461914 10.495605 -43.344727 11.096191 -43.110352C11.696777 -42.875977 12.180176 -42.583008 12.546387 -42.231445C12.912598 -41.879883 13.173828 -41.499023 13.330078 -41.088867C13.486328 -40.678711 13.564453 -40.302734 13.564453 -39.960938C13.564453 -39.619141 13.459473 -39.316406 13.249512 -39.052734C13.039551 -38.789062 12.744141 -38.657227 12.363281 -38.657227C12.138672 -38.657227 11.950684 -38.696289 11.799316 -38.774414C11.647949 -38.852539 11.523438 -38.950195 11.425781 -39.067383C11.328125 -39.184570 11.259766 -39.311523 11.220703 -39.448242C11.181641 -39.584961 11.162109 -39.711914 11.162109 -39.829102C11.162109 -39.936523 11.184082 -40.087891 11.228027 -40.283203C11.271973 -40.478516 11.376953 -40.664062 11.542969 -40.839844ZM11.542969 -40.839844"></path></svg>