<svg width="13.828125" height="15.966797" viewBox="1.259766 -31.450195 13.828125 15.966797" xmlns="http://www.w3.org/2000/svg"><path d="M8.847656 -30.278320C7.675781 -30.278320 6.708984 -29.934082 5.947266 -29.245605C5.185547 -28.557129 4.682617 -27.441406 4.438477 -25.898438L12.084961 -25.898438C12.084961 -26.425781 12.026367 -26.950684 11.909180 -27.473145C11.791992 -27.995605 11.604004 -28.464355 11.345215 -28.879395C11.086426 -29.294434 10.751953 -29.631348 10.341797 -29.890137C9.931641 -30.148926 9.433594 -30.278320 8.847656 -30.278320ZM14.912109 -24.814453L4.350586 -24.638672C4.340820 -23.486328 4.428711 -22.441406 4.614258 -21.503906C4.799805 -20.566406 5.092773 -19.765625 5.493164 -19.101562C5.893555 -18.437500 6.408691 -17.924805 7.038574 -17.563477C7.668457 -17.202148 8.422852 -17.021484 9.301758 -17.021484C9.770508 -17.021484 10.249023 -17.084961 10.737305 -17.211914C11.225586 -17.338867 11.696777 -17.512207 12.150879 -17.731934C12.604980 -17.951660 13.022461 -18.215332 13.403320 -18.522949C13.784180 -18.830566 14.101562 -19.160156 14.355469 -19.511719L15.087891 -18.911133C14.677734 -18.286133 14.201660 -17.756348 13.659668 -17.321777C13.117676 -16.887207 12.556152 -16.533203 11.975098 -16.259766C11.394043 -15.986328 10.810547 -15.788574 10.224609 -15.666504C9.638672 -15.544434 9.091797 -15.483398 8.583984 -15.483398C7.548828 -15.483398 6.584473 -15.668945 5.690918 -16.040039C4.797363 -16.411133 4.023438 -16.943359 3.369141 -17.636719C2.714844 -18.330078 2.199707 -19.165039 1.823730 -20.141602C1.447754 -21.118164 1.259766 -22.216797 1.259766 -23.437500C1.259766 -24.492188 1.440430 -25.500488 1.801758 -26.462402C2.163086 -27.424316 2.675781 -28.276367 3.339844 -29.018555C4.003906 -29.760742 4.799805 -30.351562 5.727539 -30.791016C6.655273 -31.230469 7.685547 -31.450195 8.818359 -31.450195C9.648438 -31.450195 10.432129 -31.313477 11.169434 -31.040039C11.906738 -30.766602 12.553711 -30.356445 13.110352 -29.809570C13.666992 -29.262695 14.106445 -28.571777 14.428711 -27.736816C14.750977 -26.901855 14.912109 -25.927734 14.912109 -24.814453ZM14.912109 -24.814453"></path></svg>