<svg width="13.828125" height="22.339110" viewBox="1.259766 -44.194822 13.828125 22.339110" xmlns="http://www.w3.org/2000/svg"><path d="M8.847656 -36.650634C7.675781 -36.650634 6.708984 -36.306396 5.947266 -35.617919C5.185547 -34.929442 4.682617 -33.813720 4.438477 -32.270751L12.084961 -32.270751C12.084961 -32.798095 12.026367 -33.322997 11.909180 -33.845458C11.791992 -34.367919 11.604004 -34.836669 11.345215 -35.251708C11.086426 -35.666747 10.751953 -36.003661 10.341797 -36.262450C9.931641 -36.521239 9.433594 -36.650634 8.847656 -36.650634ZM14.912109 -31.186767L4.350586 -31.010985C4.340820 -29.858642 4.428711 -28.813720 4.614258 -27.876220C4.799805 -26.938720 5.092773 -26.137938 5.493164 -25.473876C5.893555 -24.809813 6.408691 -24.297118 7.038574 -23.935790C7.668457 -23.574462 8.422852 -23.393798 9.301758 -23.393798C9.770508 -23.393798 10.249023 -23.457274 10.737305 -23.584228C11.225586 -23.711181 11.696777 -23.884521 12.150879 -24.104247C12.604980 -24.323974 13.022461 -24.587646 13.403320 -24.895263C13.784180 -25.202880 14.101562 -25.532470 14.355469 -25.884032L15.087891 -25.283446C14.677734 -24.658446 14.201660 -24.128661 13.659668 -23.694091C13.117676 -23.259521 12.556152 -22.905517 11.975098 -22.632079C11.394043 -22.358642 10.810547 -22.160888 10.224609 -22.038817C9.638672 -21.916747 9.091797 -21.855712 8.583984 -21.855712C7.548828 -21.855712 6.584473 -22.041259 5.690918 -22.412353C4.797363 -22.783446 4.023438 -23.315673 3.369141 -24.009032C2.714844 -24.702392 2.199707 -25.537353 1.823730 -26.513915C1.447754 -27.490478 1.259766 -28.589110 1.259766 -29.809813C1.259766 -30.864501 1.440430 -31.872802 1.801758 -32.834716C2.163086 -33.796630 2.675781 -34.648681 3.339844 -35.390868C4.003906 -36.133056 4.799805 -36.723876 5.727539 -37.163329C6.655273 -37.602782 7.685547 -37.822509 8.818359 -37.822509C9.648438 -37.822509 10.432129 -37.685790 11.169434 -37.412353C11.906738 -37.138915 12.553711 -36.728759 13.110352 -36.181884C13.666992 -35.635009 14.106445 -34.944091 14.428711 -34.109130C14.750977 -33.274169 14.912109 -32.300048 14.912109 -31.186767ZM10.730646 -42.384084C10.730646 -42.140851 10.685573 -41.911131 10.595427 -41.694923C10.505280 -41.478716 10.385837 -41.289534 10.237096 -41.127378C10.088355 -40.965223 9.917077 -40.839102 9.723263 -40.749015C9.529449 -40.658929 9.324367 -40.613886 9.108016 -40.613886C8.891666 -40.613886 8.686584 -40.658929 8.492770 -40.749015C8.298956 -40.839102 8.127678 -40.965223 7.978937 -41.127378C7.830196 -41.289534 7.713006 -41.478716 7.627367 -41.694923C7.541729 -41.911131 7.498909 -42.140851 7.498909 -42.384084C7.498909 -42.636327 7.543982 -42.872804 7.634128 -43.093515C7.724274 -43.314227 7.843718 -43.505661 7.992459 -43.667817C8.141200 -43.829972 8.314731 -43.958345 8.513052 -44.052936C8.711374 -44.147527 8.918710 -44.194822 9.135060 -44.194822C9.360425 -44.194822 9.570015 -44.147527 9.763829 -44.052936C9.957643 -43.958345 10.126667 -43.829972 10.270901 -43.667817C10.415134 -43.505661 10.527817 -43.314227 10.608948 -43.093515C10.690080 -42.872804 10.730646 -42.636327 10.730646 -42.384084ZM10.730646 -42.384084"></path></svg>