<svg width="15.776367" height="23.129883" viewBox="1.259766 -45.776367 15.776367 23.129883" xmlns="http://www.w3.org/2000/svg"><path d="M15.029297 -26.308594C15.029297 -25.996094 15.021973 -25.681152 15.007324 -25.363770C14.992676 -25.046387 14.960938 -24.682617 14.912109 -24.272461L17.036133 -24.389648L17.036133 -23.129883L12.744141 -23.129883C12.695312 -23.422852 12.656250 -23.696289 12.626953 -23.950195C12.597656 -24.204102 12.573242 -24.453125 12.553711 -24.697266C11.977539 -24.072266 11.281738 -23.574219 10.466309 -23.203125C9.650879 -22.832031 8.740234 -22.646484 7.734375 -22.646484C6.806641 -22.646484 5.949707 -22.822266 5.163574 -23.173828C4.377441 -23.525391 3.693848 -24.028320 3.112793 -24.682617C2.531738 -25.336914 2.077637 -26.130371 1.750488 -27.062988C1.423340 -27.995605 1.259766 -29.042969 1.259766 -30.205078C1.259766 -31.425781 1.452637 -32.551270 1.838379 -33.581543C2.224121 -34.611816 2.758789 -35.500488 3.442383 -36.247559C4.125977 -36.994629 4.938965 -37.575684 5.881348 -37.990723C6.823730 -38.405762 7.851562 -38.613281 8.964844 -38.613281C9.296875 -38.613281 9.628906 -38.588867 9.960938 -38.540039C10.292969 -38.491211 10.612793 -38.427734 10.920410 -38.349609C11.228027 -38.271484 11.513672 -38.183594 11.777344 -38.085938C12.041016 -37.988281 12.270508 -37.885742 12.465820 -37.778320L12.480469 -41.879883C12.480469 -42.192383 12.482910 -42.495117 12.487793 -42.788086C12.492676 -43.081055 12.519531 -43.427734 12.568359 -43.828125L10.444336 -43.710938L10.444336 -44.970703C11.098633 -44.970703 11.640625 -44.992676 12.070312 -45.036621C12.500000 -45.080566 12.851562 -45.141602 13.125000 -45.219727C13.398438 -45.297852 13.610840 -45.383301 13.762207 -45.476074C13.913574 -45.568848 14.047852 -45.668945 14.165039 -45.776367L15.029297 -45.776367ZM8.818359 -24.125977C9.150391 -24.125977 9.487305 -24.174805 9.829102 -24.272461C10.170898 -24.370117 10.500488 -24.506836 10.817871 -24.682617C11.135254 -24.858398 11.433105 -25.065918 11.711426 -25.305176C11.989746 -25.544434 12.241211 -25.805664 12.465820 -26.088867C12.456055 -26.333008 12.451172 -26.591797 12.451172 -26.865234C12.451172 -27.138672 12.451172 -27.431641 12.451172 -27.744141L12.465820 -36.386719C11.987305 -36.757812 11.464844 -37.023926 10.898438 -37.185059C10.332031 -37.346191 9.750977 -37.426758 9.155273 -37.426758C8.403320 -37.426758 7.724609 -37.260742 7.119141 -36.928711C6.513672 -36.596680 5.998535 -36.125488 5.573730 -35.515137C5.148926 -34.904785 4.838867 -34.208984 4.643555 -33.427734C4.448242 -32.646484 4.350586 -31.665039 4.350586 -30.483398C4.350586 -29.672852 4.460449 -28.850098 4.680176 -28.015137C4.899902 -27.180176 5.197754 -26.481934 5.573730 -25.920410C5.949707 -25.358887 6.408691 -24.919434 6.950684 -24.602051C7.492676 -24.284668 8.115234 -24.125977 8.818359 -24.125977ZM8.818359 -24.125977"></path></svg>