<svg width="11.440430" height="15.000000" viewBox="1.318359 -30.000000 11.440430 15.000000" xmlns="http://www.w3.org/2000/svg"><path d="M11.616211 -25.473633C11.596680 -26.098633 11.525879 -26.625977 11.403809 -27.055664C11.281738 -27.485352 11.069336 -27.827148 10.766602 -28.081055C10.463867 -28.334961 10.051270 -28.518066 9.528809 -28.630371C9.006348 -28.742676 8.339844 -28.798828 7.529297 -28.798828C7.089844 -28.798828 6.748047 -28.725586 6.503906 -28.579102C6.259766 -28.432617 6.076660 -28.215332 5.954590 -27.927246C5.832520 -27.639160 5.756836 -27.287598 5.727539 -26.872559C5.698242 -26.457520 5.678711 -25.981445 5.668945 -25.444336L5.668945 -18.178711C5.668945 -17.778320 5.664062 -17.424316 5.654297 -17.116699C5.644531 -16.809082 5.610352 -16.484375 5.551758 -16.142578L7.441406 -16.230469L7.441406 -15.000000L1.318359 -15.000000L1.318359 -15.893555C1.777344 -15.893555 2.126465 -15.983887 2.365723 -16.164551C2.604980 -16.345215 2.780762 -16.596680 2.893066 -16.918945C3.005371 -17.241211 3.068848 -17.626953 3.083496 -18.076172C3.098145 -18.525391 3.110352 -19.018555 3.120117 -19.555664L3.120117 -26.821289C3.120117 -27.221680 3.125000 -27.575684 3.134766 -27.883301C3.144531 -28.190918 3.178711 -28.515625 3.237305 -28.857422L1.362305 -28.769531L1.362305 -30.000000L12.626953 -30.000000L12.758789 -25.473633ZM11.616211 -25.473633"></path></svg>