<svg width="6.752930" height="21.005859" viewBox="1.669922 -42.011719 6.752930 21.005859" xmlns="http://www.w3.org/2000/svg"><path d="M3.735352 -38.642578C3.735352 -39.052734 3.742676 -39.440918 3.757324 -39.807129C3.771973 -40.173340 3.798828 -40.507812 3.837891 -40.810547L1.669922 -40.678711L1.669922 -42.011719L8.422852 -42.011719L8.422852 -41.015625C7.856445 -40.996094 7.431641 -40.891113 7.148438 -40.700684C6.865234 -40.510254 6.665039 -40.253906 6.547852 -39.931641C6.430664 -39.609375 6.369629 -39.228516 6.364746 -38.789062C6.359863 -38.349609 6.357422 -37.861328 6.357422 -37.324219L6.357422 -24.580078C6.357422 -24.033203 6.350098 -23.564453 6.335449 -23.173828C6.320801 -22.783203 6.293945 -22.460938 6.254883 -22.207031L8.422852 -22.324219L8.422852 -21.005859L1.669922 -21.005859L1.669922 -22.001953C2.236328 -22.021484 2.661133 -22.124023 2.944336 -22.309570C3.227539 -22.495117 3.427734 -22.749023 3.544922 -23.071289C3.662109 -23.393555 3.723145 -23.776855 3.728027 -24.221191C3.732910 -24.665527 3.735352 -25.151367 3.735352 -25.678711ZM3.735352 -38.642578"></path></svg>