<svg width="21.489258" height="15.000000" viewBox="1.318359 -30.000000 21.489258 15.000000" xmlns="http://www.w3.org/2000/svg"><path d="M16.406250 -23.745117C17.617188 -23.784180 18.632812 -23.693848 19.453125 -23.474121C20.273438 -23.254395 20.932617 -22.946777 21.430664 -22.551270C21.928711 -22.155762 22.282715 -21.689453 22.492676 -21.152344C22.702637 -20.615234 22.807617 -20.048828 22.807617 -19.453125C22.807617 -18.730469 22.675781 -18.093262 22.412109 -17.541504C22.148438 -16.989746 21.791992 -16.525879 21.342773 -16.149902C20.893555 -15.773926 20.371094 -15.488281 19.775391 -15.292969C19.179688 -15.097656 18.554688 -15.000000 17.900391 -15.000000L10.751953 -15.000000L10.751953 -15.893555C11.113281 -15.903320 11.411133 -15.969238 11.645508 -16.091309C11.879883 -16.213379 12.065430 -16.384277 12.202148 -16.604004C12.338867 -16.823730 12.431641 -17.087402 12.480469 -17.395020C12.529297 -17.702637 12.553711 -18.056641 12.553711 -18.457031L12.553711 -22.514648L5.668945 -22.426758L5.668945 -18.178711C5.668945 -17.778320 5.664062 -17.424316 5.654297 -17.116699C5.644531 -16.809082 5.610352 -16.484375 5.551758 -16.142578L7.441406 -16.230469L7.441406 -15.000000L1.318359 -15.000000L1.318359 -15.893555C1.777344 -15.893555 2.126465 -15.983887 2.365723 -16.164551C2.604980 -16.345215 2.780762 -16.596680 2.893066 -16.918945C3.005371 -17.241211 3.071289 -17.626953 3.090820 -18.076172C3.110352 -18.525391 3.125000 -19.018555 3.134766 -19.555664L3.134766 -26.821289C3.134766 -27.221680 3.139648 -27.575684 3.149414 -27.883301C3.159180 -28.190918 3.193359 -28.515625 3.251953 -28.857422L1.362305 -28.769531L1.362305 -30.000000L7.485352 -30.000000L7.485352 -29.106445C7.026367 -29.106445 6.677246 -29.016113 6.437988 -28.835449C6.198730 -28.654785 6.025391 -28.403320 5.917969 -28.081055C5.810547 -27.758789 5.749512 -27.373047 5.734863 -26.923828C5.720215 -26.474609 5.708008 -25.981445 5.698242 -25.444336L5.698242 -23.701172L12.553711 -23.701172L12.553711 -26.821289C12.553711 -27.221680 12.558594 -27.575684 12.568359 -27.883301C12.578125 -28.190918 12.612305 -28.515625 12.670898 -28.857422L10.781250 -28.769531L10.781250 -30.000000L16.904297 -30.000000L16.904297 -29.106445C16.445312 -29.106445 16.096191 -29.016113 15.856934 -28.835449C15.617676 -28.654785 15.444336 -28.403320 15.336914 -28.081055C15.229492 -27.758789 15.168457 -27.373047 15.153809 -26.923828C15.139160 -26.474609 15.131836 -25.981445 15.131836 -25.444336L15.131836 -23.701172ZM15.131836 -17.900391C15.131836 -17.509766 15.124512 -17.180176 15.109863 -16.911621C15.095215 -16.643066 15.078125 -16.416016 15.058594 -16.230469C15.224609 -16.210938 15.397949 -16.198730 15.578613 -16.193848C15.759277 -16.188965 15.930176 -16.186523 16.091309 -16.186523C16.252441 -16.186523 16.396484 -16.186523 16.523438 -16.186523C16.650391 -16.186523 16.748047 -16.186523 16.816406 -16.186523C17.275391 -16.186523 17.707520 -16.245117 18.112793 -16.362305C18.518066 -16.479492 18.872070 -16.665039 19.174805 -16.918945C19.477539 -17.172852 19.716797 -17.500000 19.892578 -17.900391C20.068359 -18.300781 20.156250 -18.789062 20.156250 -19.365234C20.156250 -20.400391 19.890137 -21.203613 19.357910 -21.774902C18.825684 -22.346191 17.978516 -22.631836 16.816406 -22.631836C16.601562 -22.631836 16.425781 -22.631836 16.289062 -22.631836C16.152344 -22.631836 16.027832 -22.626953 15.915527 -22.617188C15.803223 -22.607422 15.688477 -22.597656 15.571289 -22.587891C15.454102 -22.578125 15.307617 -22.568359 15.131836 -22.558594ZM15.131836 -17.900391"></path></svg>