<svg width="14.487305" height="15.000000" viewBox="0.512695 -30.000000 14.487305 15.000000" xmlns="http://www.w3.org/2000/svg"><path d="M13.198242 -18.178711C13.198242 -17.778320 13.193359 -17.424316 13.183594 -17.116699C13.173828 -16.809082 13.139648 -16.484375 13.081055 -16.142578L14.970703 -16.230469L14.970703 -15.000000L8.847656 -15.000000L8.847656 -15.893555C9.238281 -15.893555 9.550781 -15.964355 9.785156 -16.105957C10.019531 -16.247559 10.197754 -16.440430 10.319824 -16.684570C10.441895 -16.928711 10.522461 -17.214355 10.561523 -17.541504C10.600586 -17.868652 10.620117 -18.212891 10.620117 -18.574219L10.620117 -21.005859L9.213867 -20.976562L8.554688 -20.961914C8.359375 -20.776367 8.151855 -20.544434 7.932129 -20.266113C7.712402 -19.987793 7.495117 -19.697266 7.280273 -19.394531C7.065430 -19.091797 6.862793 -18.801270 6.672363 -18.522949C6.481934 -18.244629 6.318359 -18.012695 6.181641 -17.827148C5.927734 -17.475586 5.664062 -17.131348 5.390625 -16.794434C5.117188 -16.457520 4.838867 -16.154785 4.555664 -15.886230C4.272461 -15.617676 3.989258 -15.402832 3.706055 -15.241699C3.422852 -15.080566 3.144531 -15.000000 2.871094 -15.000000L0.512695 -15.000000L0.512695 -15.893555C0.854492 -15.893555 1.157227 -15.964355 1.420898 -16.105957C1.684570 -16.247559 1.948242 -16.457520 2.211914 -16.735840C2.475586 -17.014160 2.758789 -17.353516 3.061523 -17.753906C3.364258 -18.154297 3.725586 -18.618164 4.145508 -19.145508L5.214844 -20.478516C5.439453 -20.751953 5.659180 -20.957031 5.874023 -21.093750C6.088867 -21.230469 6.323242 -21.333008 6.577148 -21.401367C5.815430 -21.538086 5.175781 -21.738281 4.658203 -22.001953C4.140625 -22.265625 3.723145 -22.580566 3.405762 -22.946777C3.088379 -23.312988 2.858887 -23.715820 2.717285 -24.155273C2.575684 -24.594727 2.504883 -25.058594 2.504883 -25.546875C2.504883 -26.269531 2.636719 -26.906738 2.900391 -27.458496C3.164062 -28.010254 3.520508 -28.474121 3.969727 -28.850098C4.418945 -29.226074 4.941406 -29.511719 5.537109 -29.707031C6.132812 -29.902344 6.757812 -30.000000 7.412109 -30.000000L15.000000 -30.000000L15.000000 -29.106445C14.628906 -29.096680 14.328613 -29.030762 14.099121 -28.908691C13.869629 -28.786621 13.686523 -28.615723 13.549805 -28.395996C13.413086 -28.176270 13.320312 -27.910156 13.271484 -27.597656C13.222656 -27.285156 13.198242 -26.933594 13.198242 -26.542969ZM10.620117 -27.099609C10.620117 -27.490234 10.627441 -27.819824 10.642090 -28.088379C10.656738 -28.356934 10.673828 -28.583984 10.693359 -28.769531C10.527344 -28.789062 10.332031 -28.801270 10.107422 -28.806152C9.882812 -28.811035 9.663086 -28.813477 9.448242 -28.813477C9.233398 -28.813477 9.038086 -28.813477 8.862305 -28.813477C8.686523 -28.813477 8.564453 -28.813477 8.496094 -28.813477C8.037109 -28.813477 7.604980 -28.754883 7.199707 -28.637695C6.794434 -28.520508 6.440430 -28.334961 6.137695 -28.081055C5.834961 -27.827148 5.595703 -27.497559 5.419922 -27.092285C5.244141 -26.687012 5.156250 -26.201172 5.156250 -25.634766C5.156250 -25.146484 5.231934 -24.685059 5.383301 -24.250488C5.534668 -23.815918 5.754395 -23.437500 6.042480 -23.115234C6.330566 -22.792969 6.679688 -22.539062 7.089844 -22.353516C7.500000 -22.167969 7.968750 -22.075195 8.496094 -22.075195C8.925781 -22.075195 9.301758 -22.082520 9.624023 -22.097168C9.946289 -22.111816 10.278320 -22.128906 10.620117 -22.148438ZM10.620117 -27.099609"></path></svg>