<?xml version="1.0" encoding="iso-8859-1"?>
<!-- Generator: Adobe Illustrator 19.0.0, SVG Export Plug-In . SVG Version: 6.00 Build 0)  -->
<svg version="1.1" id="Layer_1" xmlns="http://www.w3.org/2000/svg" xmlns:xlink="http://www.w3.org/1999/xlink" x="0px" y="0px"
	 viewBox="0 0 24 24" style="enable-background:new 0 0 24 24;" xml:space="preserve">
<g>
	<g>
		<path d="M21.531,11.001c-0.379-1.198-1.004-2.326-1.81-3.314c0.182-0.372,0.278-0.782,0.278-1.185c0-0.653-0.205-1.171-0.355-1.55
			c-0.068-0.172-0.145-0.368-0.145-0.45c0-0.082,0.077-0.278,0.145-0.45c0.15-0.379,0.355-0.898,0.355-1.55
			c0-1.204-0.782-2.5-2.5-2.5c-1.541,0-2.815,0.874-3.602,1.81C13.378,1.312,12.722,1,11.999,1c-0.723,0-1.378,0.312-1.897,0.811
			C9.314,0.875,8.041,0,6.499,0c-1.718,0-2.5,1.296-2.5,2.5c0,0.653,0.205,1.171,0.355,1.55C4.422,4.222,4.499,4.418,4.499,4.5
			c0,0.082-0.077,0.278-0.145,0.45C4.204,5.329,3.999,5.848,3.999,6.5c0,0.404,0.097,0.816,0.279,1.188
			C3.472,8.675,2.848,9.802,2.469,11c-1.365,0.016-2.47,1.131-2.47,2.5c0,1.28,0.967,2.338,2.209,2.483
			C3.143,20.653,7.195,24,11.999,24c4.804,0,8.856-3.347,9.793-8.016c1.242-0.145,2.209-1.203,2.209-2.483
			C24.001,12.132,22.896,11.017,21.531,11.001z M14.527,2.633c0.748-0.994,1.893-1.632,2.971-1.632c1.428,0,1.5,1.25,1.5,1.5
			c0,0.462-0.152,0.845-0.285,1.183c-0.111,0.28-0.215,0.544-0.215,0.817c0,0.273,0.104,0.537,0.215,0.817
			c0.134,0.338,0.285,0.721,0.285,1.183c0,0.25-0.072,1.5-1.5,1.5c-1.077,0-2.223-0.638-2.971-1.633
			c0.295-0.542,0.472-1.18,0.472-1.868C14.999,3.812,14.822,3.175,14.527,2.633z M11.999,2c1.103,0,2,1.122,2,2.5s-0.897,2.5-2,2.5
			c-1.103,0-2-1.122-2-2.5S10.896,2,11.999,2z M5.285,3.682C5.151,3.344,5,2.961,5,2.499c0-0.25,0.072-1.5,1.5-1.5
			c1.077,0,2.223,0.638,2.971,1.633C9.176,3.174,8.999,3.812,8.999,4.5c0,0.688,0.177,1.325,0.472,1.867
			C8.723,7.361,7.578,7.999,6.5,7.999c-1.428,0-1.5-1.25-1.5-1.5c0-0.462,0.152-0.845,0.285-1.183C5.396,5.036,5.5,4.772,5.5,4.499
			C5.5,4.226,5.396,3.962,5.285,3.682z M21.514,15.002c-0.007,0-0.107-0.012-0.114-0.012c-0.243-0.014-0.482,0.167-0.522,0.421
			c-0.693,4.398-4.427,7.59-8.878,7.59s-8.185-3.192-8.878-7.59C3.084,15.167,2.782,15,2.531,15C1.673,14.989,1,14.338,1,13.501
			c0-0.827,0.673-1.5,1.5-1.5c0.085,0,0.169,0.013,0.251,0.027c0.253,0.039,0.499-0.114,0.566-0.364
			c0.307-1.141,0.864-2.221,1.601-3.17C5.312,8.802,5.833,9,6.499,9c1.541,0,2.815-0.875,3.602-1.812C10.62,7.688,11.276,8,11.999,8
			c0.723,0,1.378-0.312,1.897-0.811C14.684,8.125,15.957,9,17.499,9c0.666,0,1.188-0.198,1.582-0.507
			c0.738,0.949,1.296,2.03,1.602,3.172c0.067,0.25,0.317,0.403,0.566,0.364c0.082-0.014,0.165-0.027,0.251-0.027
			c0.827,0,1.5,0.673,1.5,1.5C23,14.329,22.327,15.002,21.514,15.002z M15.999,13.001c-1.294,0-1.921,1.224-1.947,1.276
			c-0.123,0.246-0.023,0.543,0.222,0.668c0.243,0.123,0.545,0.027,0.671-0.218C14.949,14.719,15.328,14,15.999,14
			c0.671,0,1.05,0.719,1.052,0.724C17.139,14.899,17.315,15,17.499,15c0.076,0,0.152-0.017,0.223-0.052
			c0.247-0.124,0.348-0.424,0.224-0.671C17.92,14.225,17.293,13.001,15.999,13.001z M9.051,14.724C9.139,14.899,9.315,15,9.499,15
			c0.076,0,0.152-0.017,0.223-0.052c0.247-0.124,0.348-0.424,0.224-0.671c-0.026-0.052-0.653-1.276-1.947-1.276
			c-1.294,0-1.921,1.224-1.947,1.276c-0.123,0.246-0.023,0.543,0.222,0.668c0.243,0.123,0.545,0.027,0.671-0.218
			C6.949,14.719,7.328,14,7.999,14C8.67,14,9.049,14.719,9.051,14.724z M15.125,18.169c-0.008,0.008-0.789,0.83-3.125,0.83
			c-2.304,0-3.095-0.799-3.124-0.829c-0.179-0.204-0.49-0.229-0.699-0.053c-0.211,0.179-0.238,0.494-0.06,0.705
			C8.219,18.943,9.191,20,11.999,20c2.808,0,3.78-1.057,3.884-1.179c0.175-0.208,0.149-0.514-0.056-0.694
			C15.623,17.947,15.309,17.969,15.125,18.169z"/>
	</g>
</g>
</svg>
