<?xml version="1.0" encoding="iso-8859-1"?>
<!-- Generator: Adobe Illustrator 19.0.0, SVG Export Plug-In . SVG Version: 6.00 Build 0)  -->
<svg version="1.1" id="Layer_1" xmlns="http://www.w3.org/2000/svg" xmlns:xlink="http://www.w3.org/1999/xlink" x="0px" y="0px"
	 viewBox="0 0 24 24" style="enable-background:new 0 0 24 24;" xml:space="preserve">
<g>
	<g>
		<path d="M21,14c0-1.103-0.897-2-2-2h-1.665C18.168,10.375,20,6.364,20,2.5C20,1.122,18.879,0,17.5,0h-11C5.121,0,4,1.122,4,2.5
			c0,3.864,1.832,7.875,2.665,9.5H5c-1.103,0-2,0.897-2,2c0,1.103,0.897,2,2,2h1.697l-2.224,4.044C4.163,20.474,4,20.978,4,21.5
			C4,22.878,5.121,24,6.5,24c1.112,0,2.088-0.742,2.397-1.811c0.005-0.014,0.01-0.027,0.015-0.042L10.748,16h2.504l1.836,6.147
			c0.005,0.014,0.01,0.028,0.015,0.042C15.411,23.258,16.388,24,17.5,24c1.379,0,2.5-1.122,2.5-2.5c0-0.521-0.163-1.025-0.44-1.406
			L17.304,16H19C20.103,16,21,15.103,21,14z M5,2.5C5,1.673,5.673,1,6.5,1h11C18.327,1,19,1.673,19,2.5
			c0,4.034-2.215,8.42-2.795,9.5h-8.41C7.215,10.92,5,6.534,5,2.5z M7.968,21.807c-0.009,0.022-0.017,0.046-0.023,0.069
			C7.772,22.538,7.178,23,6.5,23C5.673,23,5,22.327,5,21.5c0-0.311,0.099-0.613,0.316-0.923L7.837,16h1.867L7.968,21.807z
			 M18.716,20.628C18.901,20.887,19,21.188,19,21.5c0,0.827-0.673,1.5-1.5,1.5c-0.678,0-1.272-0.462-1.446-1.123
			c-0.005-0.024-0.013-0.046-0.022-0.068L14.296,16h1.867L18.716,20.628z M5,15c-0.552,0-1-0.449-1-1c0-0.551,0.448-1,1-1h14
			c0.552,0,1,0.449,1,1c0,0.551-0.448,1-1,1H5z M11.665,8.872C11.761,8.957,11.88,9,12,9s0.239-0.043,0.335-0.128
			C12.361,8.848,15,6.361,15,5c0-1.103-0.897-2-2-2c-0.353,0-0.696,0.095-1,0.273C11.696,3.095,11.353,3,11,3C9.897,3,9,3.897,9,5
			C9,6.361,11.639,8.848,11.665,8.872z M11,4c0.242,0,0.479,0.093,0.665,0.261c0.191,0.171,0.479,0.171,0.67,0
			C12.521,4.093,12.758,4,13,4c0.552,0,1,0.449,1,1c0,0.573-1.256,2.045-2,2.804C11.256,7.044,10,5.573,10,5C10,4.449,10.448,4,11,4
			z"/>
	</g>
</g>
</svg>
