<?xml version="1.0" encoding="iso-8859-1"?>
<!-- Generator: Adobe Illustrator 19.0.0, SVG Export Plug-In . SVG Version: 6.00 Build 0)  -->
<svg version="1.1" id="Layer_1" xmlns="http://www.w3.org/2000/svg" xmlns:xlink="http://www.w3.org/1999/xlink" x="0px" y="0px"
	 viewBox="0 0 24 24" style="enable-background:new 0 0 24 24;" xml:space="preserve">
<g>
	<g>
		<path d="M7.941,13.734c0.101-0.193,0.067-0.428-0.085-0.583c-0.153-0.156-0.388-0.195-0.581-0.098
			c-1.858,0.928-2.276,2.848-2.276,3.447c0,0.827,0.673,1.5,1.5,1.5c0.827,0,1.5-0.673,1.499-1.499c0-0.165-0.031-0.422-0.072-0.725
			C7.846,15.175,7.712,14.169,7.941,13.734z M6.499,17c-0.276,0-0.5-0.224-0.5-0.5c0-0.246,0.166-1.127,0.816-1.858
			c0.011,0.44,0.07,0.885,0.121,1.265c0.033,0.248,0.063,0.457,0.063,0.593C6.999,16.776,6.775,17,6.499,17z M21.531,11.001
			c-0.379-1.198-1.004-2.326-1.81-3.314c0.182-0.372,0.278-0.782,0.278-1.185c0-0.653-0.205-1.171-0.355-1.55
			c-0.068-0.172-0.145-0.368-0.145-0.45c0-0.082,0.077-0.278,0.145-0.45c0.15-0.379,0.355-0.898,0.355-1.55
			c0-1.204-0.782-2.5-2.5-2.5c-1.541,0-2.815,0.874-3.602,1.81C13.378,1.312,12.722,1,11.999,1c-0.723,0-1.378,0.312-1.897,0.811
			C9.314,0.875,8.041,0,6.499,0c-1.718,0-2.5,1.296-2.5,2.5c0,0.653,0.205,1.171,0.355,1.55C4.422,4.222,4.499,4.418,4.499,4.5
			c0,0.082-0.077,0.278-0.145,0.45C4.204,5.329,3.999,5.848,3.999,6.5c0,0.404,0.097,0.816,0.279,1.188
			C3.472,8.675,2.848,9.802,2.469,11c-1.365,0.016-2.47,1.131-2.47,2.5c0,1.28,0.967,2.338,2.209,2.483
			C3.143,20.653,7.195,24,11.999,24s8.856-3.347,9.793-8.016c1.242-0.145,2.209-1.203,2.209-2.483
			C24.001,12.132,22.896,11.017,21.531,11.001z M14.527,2.633c0.748-0.994,1.893-1.632,2.971-1.632c1.428,0,1.5,1.25,1.5,1.5
			c0,0.462-0.152,0.845-0.285,1.183c-0.111,0.28-0.215,0.544-0.215,0.817c0,0.273,0.104,0.537,0.215,0.817
			c0.134,0.338,0.285,0.721,0.285,1.183c0,0.25-0.072,1.5-1.5,1.5c-1.077,0-2.223-0.638-2.971-1.633
			c0.295-0.542,0.472-1.18,0.472-1.868C14.999,3.812,14.822,3.175,14.527,2.633z M11.999,2c1.103,0,2,1.122,2,2.5s-0.897,2.5-2,2.5
			c-1.103,0-2-1.122-2-2.5S10.896,2,11.999,2z M5.285,3.682C5.151,3.344,5,2.961,5,2.499c0-0.25,0.072-1.5,1.5-1.5
			c1.077,0,2.223,0.638,2.971,1.633C9.176,3.174,8.999,3.812,8.999,4.5c0,0.688,0.177,1.325,0.472,1.867
			C8.723,7.361,7.578,7.999,6.5,7.999c-1.428,0-1.5-1.25-1.5-1.5c0-0.462,0.152-0.845,0.285-1.183C5.396,5.036,5.5,4.772,5.5,4.499
			C5.5,4.226,5.396,3.962,5.285,3.682z M21.514,15.002c-0.007,0-0.107-0.012-0.114-0.012c-0.241-0.014-0.482,0.167-0.522,0.421
			c-0.693,4.398-4.427,7.59-8.878,7.59c-4.451,0-8.185-3.192-8.878-7.59C3.084,15.167,2.782,15,2.531,15
			C1.694,14.989,1,14.338,1,13.501c0-0.827,0.673-1.5,1.5-1.5c0.085,0,0.169,0.013,0.251,0.027c0.253,0.039,0.499-0.114,0.566-0.364
			c0.307-1.141,0.864-2.221,1.601-3.17C5.312,8.802,5.833,9,6.499,9c1.541,0,2.815-0.875,3.602-1.812C10.62,7.688,11.276,8,11.999,8
			c0.723,0,1.378-0.312,1.897-0.811C14.684,8.125,15.957,9,17.499,9c0.666,0,1.188-0.198,1.582-0.507
			c0.738,0.95,1.296,2.03,1.602,3.172c0.067,0.25,0.317,0.403,0.566,0.364c0.082-0.014,0.165-0.027,0.251-0.027
			c0.827,0,1.5,0.673,1.5,1.5C23,14.329,22.327,15.002,21.514,15.002z M15.999,11.001c-1.294,0-1.921,1.224-1.947,1.276
			c-0.123,0.246-0.023,0.543,0.222,0.668c0.242,0.123,0.546,0.027,0.671-0.218C14.949,12.719,15.328,12,15.999,12
			s1.05,0.719,1.052,0.724C17.139,12.899,17.315,13,17.499,13c0.076,0,0.152-0.017,0.223-0.052c0.247-0.124,0.348-0.424,0.224-0.671
			C17.92,12.225,17.293,11.001,15.999,11.001z M15.979,19.364c-0.004-0.016-0.013-0.035-0.018-0.052
			c-0.001-0.003-0.002-0.007-0.004-0.01c-0.351-1.177-1.598-3.303-3.96-3.303c-2.4,0-3.653,2.201-3.981,3.365
			c-0.007,0.025-0.003,0.05-0.006,0.075C8.009,19.46,7.999,19.478,7.999,19.5c0,0.01,0.005,0.018,0.006,0.027
			c0.002,0.04,0.012,0.077,0.024,0.115C8.06,19.83,8.135,20,8.277,20.12c0.424,0.356,1.125,0.237,2.097,0.072
			C10.9,20.102,11.498,20,11.999,20c0.501,0,1.098,0.102,1.625,0.192c0.508,0.087,0.941,0.161,1.3,0.161
			c0.329,0,0.595-0.062,0.797-0.233c0.147-0.125,0.223-0.301,0.252-0.495c0.008-0.03,0.017-0.059,0.019-0.091
			c0-0.012,0.007-0.022,0.007-0.034c0-0.027-0.011-0.051-0.015-0.076C15.98,19.404,15.985,19.384,15.979,19.364z M13.792,19.206
			C13.227,19.109,12.584,19,11.999,19s-1.227,0.109-1.793,0.206c-0.355,0.061-0.842,0.138-1.125,0.142
			c0.27-0.68,1.115-2.349,2.917-2.349c1.816,0,2.652,1.664,2.919,2.35C14.634,19.347,14.149,19.267,13.792,19.206z M6.274,12.945
			c0.243,0.123,0.545,0.027,0.671-0.218C6.949,12.719,7.328,12,7.999,12s1.05,0.719,1.052,0.724C9.139,12.899,9.315,13,9.499,13
			c0.076,0,0.152-0.017,0.223-0.052c0.247-0.124,0.348-0.424,0.224-0.671c-0.026-0.052-0.653-1.276-1.947-1.276
			s-1.921,1.224-1.947,1.276C5.929,12.523,6.029,12.82,6.274,12.945z"/>
	</g>
</g>
</svg>
