<?xml version="1.0" encoding="iso-8859-1"?>
<!-- Generator: Adobe Illustrator 18.0.0, SVG Export Plug-In . SVG Version: 6.00 Build 0)  -->
<!DOCTYPE svg PUBLIC "-//W3C//DTD SVG 1.1//EN" "http://www.w3.org/Graphics/SVG/1.1/DTD/svg11.dtd">
<svg version="1.1" id="Layer_1" xmlns="http://www.w3.org/2000/svg" xmlns:xlink="http://www.w3.org/1999/xlink" x="0px" y="0px"
	 viewBox="0 0 24 24" style="enable-background:new 0 0 24 24;" xml:space="preserve">
<g>
	<path d="M12,24c-5.238,0-9.5-3.364-9.5-7.5c0-2.866,6.409-9.59,7.14-10.347C9.734,6.055,9.864,6,10,6h4
		c0.136,0,0.266,0.055,0.36,0.153C15.091,6.91,21.5,13.634,21.5,16.5C21.5,20.636,17.238,24,12,24z M10.213,7
		C8.21,9.098,3.5,14.464,3.5,16.5c0,3.584,3.813,6.5,8.5,6.5s8.5-2.916,8.5-6.5c0-2.036-4.71-7.402-6.713-9.5H10.213z"/>
	<path d="M16,7H8C7.724,7,7.5,6.776,7.5,6.5S7.724,6,8,6h8c0.276,0,0.5,0.224,0.5,0.5S16.276,7,16,7z"/>
	<path d="M14,7h-4C9.887,7,9.776,6.961,9.688,6.891c-0.429-0.343-4.199-3.404-4.36-5.255C5.295,1.26,5.398,0.926,5.625,0.669
		c0.141-0.16,0.406-0.351,0.867-0.351c1.005,0,2.603,0.972,3.375,1.484C10.437,0.992,11.282,0,12,0s1.563,0.992,2.133,1.802
		c0.772-0.512,2.37-1.484,3.375-1.484c0.46,0,0.726,0.191,0.867,0.351c0.227,0.257,0.33,0.591,0.297,0.966
		c-0.161,1.852-3.931,4.913-4.36,5.255C14.224,6.961,14.113,7,14,7z M10.176,6h3.647c1.498-1.219,3.761-3.408,3.852-4.451
		c0.013-0.146-0.032-0.196-0.051-0.218l0,0c-0.003,0-0.042-0.013-0.117-0.013c-0.729,0-2.36,0.974-3.217,1.588
		c-0.112,0.08-0.249,0.109-0.385,0.085c-0.134-0.025-0.252-0.105-0.327-0.22c-0.568-0.878-1.328-1.723-1.593-1.772
		c-0.24,0.049-1,0.894-1.567,1.772c-0.074,0.115-0.192,0.194-0.327,0.22C9.958,3.016,9.82,2.986,9.708,2.906
		C8.852,2.292,7.221,1.318,6.492,1.318c-0.077,0-0.115,0.013-0.123,0.018C6.356,1.353,6.312,1.403,6.324,1.549
		C6.415,2.592,8.679,4.781,10.176,6z"/>
	<path d="M11.999,20c-1.334,0-2.408-0.801-2.497-1.862c-0.023-0.275,0.181-0.517,0.456-0.54c0.279-0.027,0.517,0.181,0.54,0.456
		c0.044,0.522,0.717,0.946,1.5,0.946c0.814,0,1.501-0.458,1.501-1c0-0.488-0.474-0.802-1.491-0.99L11.9,16.99
		c-1.623-0.299-2.4-0.963-2.4-1.99c0-1.103,1.122-2,2.501-2c1.334,0,2.407,0.8,2.497,1.862c0.023,0.275-0.181,0.517-0.456,0.54
		c-0.267,0.035-0.517-0.181-0.54-0.456C13.458,14.424,12.785,14,12.001,14c-0.814,0-1.501,0.458-1.501,1
		c0,0.488,0.475,0.802,1.493,0.99l0.11,0.021C13.723,16.31,14.5,16.973,14.5,18C14.5,19.103,13.378,20,11.999,20z"/>
	<path d="M12,21c-0.276,0-0.5-0.224-0.5-0.5v-8c0-0.276,0.224-0.5,0.5-0.5s0.5,0.224,0.5,0.5v8C12.5,20.776,12.276,21,12,21z"/>
</g>
<g>
</g>
<g>
</g>
<g>
</g>
<g>
</g>
<g>
</g>
<g>
</g>
<g>
</g>
<g>
</g>
<g>
</g>
<g>
</g>
<g>
</g>
<g>
</g>
<g>
</g>
<g>
</g>
<g>
</g>
</svg>
