<?xml version="1.0" encoding="iso-8859-1"?>
<!-- Generator: Adobe Illustrator 19.0.0, SVG Export Plug-In . SVG Version: 6.00 Build 0)  -->
<svg version="1.1" id="Layer_1" xmlns="http://www.w3.org/2000/svg" xmlns:xlink="http://www.w3.org/1999/xlink" x="0px" y="0px"
	 viewBox="0 0 24 24" style="enable-background:new 0 0 24 24;" xml:space="preserve">
<g>
	<g>
		<path d="M23.686,12.448c-0.001-0.002,0-0.004-0.001-0.007L18.87,1.517C18.557,0.609,17.704,0,16.75,0h-9.5
			c-0.954,0-1.806,0.61-2.104,1.479L0.359,12.341l-0.044,0.1c-0.001,0.002,0,0.004-0.001,0.007C0.112,12.927,0,13.451,0,14
			c0,2.206,1.794,4,4,4h0.263C5.155,21.445,8.28,24,12,24c3.72,0,6.845-2.555,7.737-6H20c2.206,0,4-1.794,4-4
			C24,13.451,23.888,12.927,23.686,12.448z M6.5,8h2C8.776,8,9,8.224,9,8.5S8.776,9,8.5,9h-2C6.224,9,6,8.776,6,8.5S6.224,8,6.5,8z
			 M12,18c-1.103,0-2-0.897-2-2c0-1.103,0.897-2,2-2c1.103,0,2,0.897,2,2C14,17.103,13.103,18,12,18z M20,17h-0.069
			C19.972,16.672,20,16.339,20,16c0-0.671-0.088-1.341-0.26-2h0.76c0.276,0,0.5-0.224,0.5-0.5S20.776,13,20.5,13h-17
			C3.224,13,3,13.224,3,13.5S3.224,14,3.5,14h0.76C4.088,14.659,4,15.329,4,16c0,0.339,0.028,0.672,0.069,1H4c-1.654,0-3-1.346-3-3
			c0-0.615,0.187-1.187,0.506-1.664c0.012-0.018,0.026-0.034,0.039-0.051c0.088-0.126,0.186-0.243,0.292-0.354
			c0.032-0.034,0.066-0.066,0.099-0.098c0.1-0.096,0.208-0.183,0.32-0.264c0.032-0.023,0.061-0.048,0.094-0.07
			c0.14-0.093,0.289-0.173,0.444-0.241c0.045-0.02,0.092-0.034,0.138-0.052c0.121-0.046,0.244-0.085,0.372-0.116
			c0.053-0.013,0.107-0.026,0.161-0.036C3.639,11.022,3.817,11,4,11h16c0.183,0,0.361,0.022,0.535,0.054
			c0.054,0.01,0.107,0.023,0.161,0.036c0.127,0.03,0.251,0.069,0.372,0.116c0.046,0.018,0.093,0.032,0.138,0.052
			c0.155,0.068,0.304,0.149,0.444,0.241c0.033,0.021,0.062,0.047,0.094,0.07c0.113,0.081,0.22,0.169,0.32,0.264
			c0.034,0.032,0.067,0.065,0.099,0.098c0.106,0.111,0.204,0.228,0.292,0.354c0.012,0.018,0.027,0.033,0.039,0.051
			C22.813,12.813,23,13.385,23,14C23,15.654,21.654,17,20,17z"/>
	</g>
</g>
</svg>
