<?xml version="1.0" encoding="iso-8859-1"?>
<!-- Generator: Adobe Illustrator 19.0.0, SVG Export Plug-In . SVG Version: 6.00 Build 0)  -->
<svg version="1.1" id="Layer_1" xmlns="http://www.w3.org/2000/svg" xmlns:xlink="http://www.w3.org/1999/xlink" x="0px" y="0px"
	 viewBox="0 0 24 24" style="enable-background:new 0 0 24 24;" xml:space="preserve">
<g>
	<g>
		<path d="M21.061,3.854L17.647,0.44c-0.283-0.283-0.66-0.439-1.061-0.439H16.5v2.5c0,0.276-0.224,0.5-0.5,0.5s-0.5-0.224-0.5-0.5V0
			h-1v2.5C14.5,2.776,14.276,3,14,3s-0.5-0.224-0.5-0.5V0h-1v2.5C12.5,2.776,12.276,3,12,3s-0.5-0.224-0.5-0.5V0h-1v2.5
			C10.5,2.776,10.276,3,10,3S9.5,2.776,9.5,2.5V0h-1v2.5C8.5,2.776,8.276,3,8,3S7.5,2.776,7.5,2.5V0h-1v2.5C6.5,2.776,6.276,3,6,3
			S5.5,2.776,5.5,2.5V0H4C3.173,0,2.5,0.673,2.5,1.5v4C2.5,5.776,2.724,6,3,6h0.5v2H3C2.724,8,2.5,8.224,2.5,8.5v14
			C2.5,23.327,3.173,24,4,24h16c0.827,0,1.5-0.673,1.5-1.5V4.914C21.5,4.514,21.344,4.137,21.061,3.854z M18.5,21h-13V11h13V21z"/>
	</g>
</g>
</svg>
