<?xml version="1.0" encoding="iso-8859-1"?>
<!-- Generator: Adobe Illustrator 19.0.0, SVG Export Plug-In . SVG Version: 6.00 Build 0)  -->
<svg version="1.1" id="Layer_1" xmlns="http://www.w3.org/2000/svg" xmlns:xlink="http://www.w3.org/1999/xlink" x="0px" y="0px"
	 viewBox="0 0 24 24" style="enable-background:new 0 0 24 24;" xml:space="preserve">
<g>
	<g>
		<path d="M18.5,13c-3.033,0-5.5,2.467-5.5,5.5s2.467,5.5,5.5,5.5s5.5-2.467,5.5-5.5S21.533,13,18.5,13z M20.854,20.853
			C20.756,20.951,20.628,21,20.5,21s-0.256-0.049-0.354-0.146L18.5,19.208l-1.646,1.646C16.756,20.951,16.628,21,16.5,21
			s-0.256-0.049-0.354-0.146c-0.195-0.195-0.195-0.512,0-0.707l1.646-1.646l-1.646-1.646c-0.195-0.195-0.195-0.512,0-0.707
			s0.512-0.195,0.707,0l1.646,1.646l1.646-1.646c0.195-0.195,0.512-0.195,0.707,0s0.195,0.512,0,0.707l-1.646,1.646l1.648,1.645
			C21.049,20.341,21.049,20.658,20.854,20.853z M19.5,0C17.019,0,15,2.019,15,4.5v7.683c0,0.276,0.224,0.5,0.5,0.5
			s0.5-0.224,0.5-0.5V4.5C16,2.57,17.57,1,19.5,1S23,2.57,23,4.5v4C23,8.776,23.224,9,23.5,9S24,8.776,24,8.5v-4
			C24,2.019,21.981,0,19.5,0z M12.866,22.515C12.263,22.837,11.635,23,11,23c-2.206,0-4-1.794-4-4v-0.025
			c3.351-0.257,6-3.059,6-6.475v-3C13,8.673,12.327,8,11.5,8h-10C0.673,8,0,8.673,0,9.5v3c0,3.415,2.649,6.218,6,6.475V19
			c0,2.757,2.243,5,5,5c0.801,0,1.587-0.203,2.337-0.603c0.244-0.13,0.336-0.433,0.206-0.677
			C13.413,22.478,13.111,22.386,12.866,22.515z M1.5,7h10C11.776,7,12,6.776,12,6.5v-6C12,0.224,11.776,0,11.5,0h-10
			C1.224,0,1,0.224,1,0.5v6C1,6.776,1.224,7,1.5,7z M7,2.5C7,2.224,7.224,2,7.5,2h2C9.776,2,10,2.224,10,2.5v2
			C10,4.776,9.776,5,9.5,5h-2C7.224,5,7,4.776,7,4.5V2.5z M3,2.5C3,2.224,3.224,2,3.5,2h2C5.776,2,6,2.224,6,2.5v2
			C6,4.776,5.776,5,5.5,5h-2C3.224,5,3,4.776,3,4.5V2.5z"/>
	</g>
</g>
</svg>
