<?xml version="1.0" encoding="iso-8859-1"?>
<!-- Generator: Adobe Illustrator 19.2.1, SVG Export Plug-In . SVG Version: 6.00 Build 0)  -->
<svg version="1.1" id="Layer_1" xmlns="http://www.w3.org/2000/svg" xmlns:xlink="http://www.w3.org/1999/xlink" x="0px" y="0px"
	 viewBox="0 0 24 24" style="enable-background:new 0 0 24 24;" xml:space="preserve">
<g>
	<g>
		<path d="M6,4h9c0.276,0,0.5-0.224,0.5-0.5v-1C15.5,1.673,14.827,1,14,1h-1.774c-0.354-0.61-1.009-1-1.726-1S9.128,0.39,8.774,1H7
			C6.173,1,5.5,1.673,5.5,2.5v1C5.5,3.776,5.724,4,6,4z M20,17h-7c-1.93,0-3.5,1.57-3.5,3.5S11.07,24,13,24h5.5
			c0.276,0,0.5-0.224,0.5-0.5S18.776,23,18.5,23H13c-1.379,0-2.5-1.122-2.5-2.5S11.621,18,13,18h7c0.827,0,1.5,0.673,1.5,1.5
			S20.827,21,20,21h-7c-0.275,0-0.5-0.224-0.5-0.5S12.725,20,13,20h5.5c0.276,0,0.5-0.224,0.5-0.5S18.776,19,18.5,19H13
			c-0.827,0-1.5,0.673-1.5,1.5S12.173,22,13,22h7c1.379,0,2.5-1.122,2.5-2.5S21.379,17,20,17z M8.5,20.5c0-2.481,2.019-4.5,4.5-4.5
			h6c0.276,0,0.5-0.224,0.5-0.5v-12C19.5,2.673,18.827,2,18,2h-1c-0.276,0-0.5,0.224-0.5,0.5v1C16.5,4.327,15.827,5,15,5H6
			C5.173,5,4.5,4.327,4.5,3.5v-1C4.5,2.224,4.276,2,4,2H3C2.173,2,1.5,2.673,1.5,3.5v19C1.5,23.327,2.173,24,3,24h6.025
			c0.189,0,0.363-0.107,0.447-0.277c0.085-0.17,0.066-0.373-0.049-0.524C8.819,22.4,8.5,21.467,8.5,20.5z"/>
	</g>
</g>
</svg>
