<?xml version="1.0" encoding="iso-8859-1"?>
<!-- Generator: Adobe Illustrator 19.2.1, SVG Export Plug-In . SVG Version: 6.00 Build 0)  -->
<svg version="1.1" id="Layer_1" xmlns="http://www.w3.org/2000/svg" xmlns:xlink="http://www.w3.org/1999/xlink" x="0px" y="0px"
	 viewBox="0 0 24 24" style="enable-background:new 0 0 24 24;" xml:space="preserve">
<g>
	<g>
		<path d="M6,4h9c0.276,0,0.5-0.224,0.5-0.5v-1C15.5,1.673,14.827,1,14,1h-1.774c-0.354-0.61-1.009-1-1.726-1S9.128,0.39,8.774,1H7
			C6.173,1,5.5,1.673,5.5,2.5v1C5.5,3.776,5.724,4,6,4z M17,13c-3.032,0-5.5,2.467-5.5,5.5S13.968,24,17,24s5.5-2.467,5.5-5.5
			S20.032,13,17,13z M19.354,20.853C19.256,20.951,19.128,21,19,21s-0.256-0.049-0.354-0.146L17,19.208l-1.646,1.646
			C15.256,20.951,15.128,21,15,21s-0.256-0.049-0.354-0.146c-0.195-0.195-0.195-0.512,0-0.707l1.646-1.646l-1.646-1.646
			c-0.195-0.195-0.195-0.512,0-0.707c0.195-0.195,0.512-0.195,0.707,0l1.646,1.646l1.646-1.646c0.195-0.195,0.512-0.195,0.707,0
			c0.195,0.195,0.195,0.512,0,0.707l-1.646,1.646l1.648,1.645C19.549,20.341,19.549,20.658,19.354,20.853z M10.5,18.5
			c0-3.584,2.916-6.5,6.5-6.5c0.624,0,1.249,0.092,1.857,0.273c0.152,0.047,0.316,0.017,0.441-0.078
			c0.127-0.094,0.201-0.243,0.201-0.401V3.5C19.5,2.673,18.827,2,18,2h-1c-0.276,0-0.5,0.224-0.5,0.5v1C16.5,4.327,15.827,5,15,5H6
			C5.173,5,4.5,4.327,4.5,3.5v-1C4.5,2.224,4.276,2,4,2H3C2.173,2,1.5,2.673,1.5,3.5v19C1.5,23.327,2.173,24,3,24h9.105
			c0.007,0,0.015,0.001,0.02,0c0.276,0,0.5-0.224,0.5-0.5c0-0.182-0.097-0.34-0.241-0.428C11.168,21.846,10.5,20.226,10.5,18.5z"/>
	</g>
</g>
</svg>
