<?xml version="1.0" encoding="iso-8859-1"?>
<!-- Generator: Adobe Illustrator 19.2.1, SVG Export Plug-In . SVG Version: 6.00 Build 0)  -->
<svg version="1.1" id="Layer_1" xmlns="http://www.w3.org/2000/svg" xmlns:xlink="http://www.w3.org/1999/xlink" x="0px" y="0px"
	 viewBox="0 0 24 24" style="enable-background:new 0 0 24 24;" xml:space="preserve">
<g>
	<g>
		<path d="M20,1h-0.5v3.5C19.5,5.327,18.827,6,18,6c-0.827,0-1.5-0.673-1.5-1.5c0-0.651,0.419-1.201,1-1.408V4.5
			C17.5,4.776,17.724,5,18,5s0.5-0.224,0.5-0.5v-4C18.5,0.224,18.276,0,18,0s-0.5,0.224-0.5,0.5V1h-2v3.5C15.5,5.327,14.827,6,14,6
			c-0.827,0-1.5-0.673-1.5-1.5c0-0.651,0.419-1.201,1-1.408V4.5C13.5,4.776,13.724,5,14,5s0.5-0.224,0.5-0.5v-4
			C14.5,0.224,14.276,0,14,0s-0.5,0.224-0.5,0.5V1h-2v3.5C11.5,5.327,10.827,6,10,6C9.173,6,8.5,5.327,8.5,4.5
			c0-0.651,0.419-1.201,1-1.408V4.5C9.5,4.776,9.724,5,10,5s0.5-0.224,0.5-0.5v-4C10.5,0.224,10.276,0,10,0S9.5,0.224,9.5,0.5V1h-2
			v3.5C7.5,5.327,6.827,6,6,6C5.173,6,4.5,5.327,4.5,4.5c0-0.651,0.419-1.201,1-1.408V4.5C5.5,4.776,5.724,5,6,5s0.5-0.224,0.5-0.5
			v-4C6.5,0.224,6.276,0,6,0S5.5,0.224,5.5,0.5V1H4C3.173,1,2.5,1.673,2.5,2.5v20C2.5,23.327,3.173,24,4,24h16
			c0.827,0,1.5-0.673,1.5-1.5v-20C21.5,1.673,20.827,1,20,1z"/>
	</g>
</g>
</svg>
