<?xml version="1.0" encoding="iso-8859-1"?>
<!-- Generator: Adobe Illustrator 19.2.1, SVG Export Plug-In . SVG Version: 6.00 Build 0)  -->
<svg version="1.1" id="Layer_1" xmlns="http://www.w3.org/2000/svg" xmlns:xlink="http://www.w3.org/1999/xlink" x="0px" y="0px"
	 viewBox="0 0 24 24" style="enable-background:new 0 0 24 24;" xml:space="preserve">
<g>
	<g>
		<path d="M20.5,0h-17C2.673,0,2,0.673,2,1.5V5h3.5C5.776,5,6,4.776,6,4.5S5.776,4,5.5,4H4.092C4.299,3.419,4.849,3,5.5,3
			C6.327,3,7,3.673,7,4.5C7,5.327,6.327,6,5.5,6H2v4h3.5C5.776,10,6,9.776,6,9.5S5.776,9,5.5,9H4.092C4.299,8.419,4.849,8,5.5,8
			C6.327,8,7,8.673,7,9.5C7,10.327,6.327,11,5.5,11H2v4h3.5C5.776,15,6,14.776,6,14.5S5.776,14,5.5,14H4.092
			c0.207-0.581,0.757-1,1.408-1C6.327,13,7,13.673,7,14.5C7,15.327,6.327,16,5.5,16H2v4h3.5C5.776,20,6,19.776,6,19.5
			S5.776,19,5.5,19H4.092c0.207-0.581,0.757-1,1.408-1C6.327,18,7,18.673,7,19.5C7,20.327,6.327,21,5.5,21H2v1.5
			C2,23.327,2.673,24,3.5,24h17c0.827,0,1.5-0.673,1.5-1.5v-21C22,0.673,21.327,0,20.5,0z M16.5,19h-7C9.224,19,9,18.776,9,18.5
			S9.224,18,9.5,18h7c0.276,0,0.5,0.224,0.5,0.5S16.776,19,16.5,19z M18.5,15h-9C9.224,15,9,14.776,9,14.5S9.224,14,9.5,14h9
			c0.276,0,0.5,0.224,0.5,0.5S18.776,15,18.5,15z M18.5,11h-9C9.224,11,9,10.776,9,10.5S9.224,10,9.5,10h9
			c0.276,0,0.5,0.224,0.5,0.5S18.776,11,18.5,11z M18.5,7h-9C9.224,7,9,6.776,9,6.5S9.224,6,9.5,6h9C18.776,6,19,6.224,19,6.5
			S18.776,7,18.5,7z"/>
	</g>
</g>
</svg>
