<?xml version="1.0" encoding="iso-8859-1"?>
<!-- Generator: Adobe Illustrator 19.2.1, SVG Export Plug-In . SVG Version: 6.00 Build 0)  -->
<svg version="1.1" id="Layer_1" xmlns="http://www.w3.org/2000/svg" xmlns:xlink="http://www.w3.org/1999/xlink" x="0px" y="0px"
	 viewBox="0 0 24 24" style="enable-background:new 0 0 24 24;" xml:space="preserve">
<g>
	<g>
		<path d="M6,4h9c0.276,0,0.5-0.224,0.5-0.5v-1C15.5,1.673,14.827,1,14,1h-1.774c-0.354-0.61-1.009-1-1.726-1
			C9.783,0,9.128,0.39,8.774,1H7C6.173,1,5.5,1.673,5.5,2.5v1C5.5,3.776,5.724,4,6,4z M17,13c-3.033,0-5.5,2.467-5.5,5.5
			c0,1.515,0.616,2.889,1.61,3.885c0.002,0.002,0.002,0.005,0.004,0.007c0.01,0.01,0.023,0.017,0.034,0.028
			c0.24,0.236,0.501,0.452,0.781,0.641c0.031,0.021,0.064,0.038,0.096,0.058c0.267,0.173,0.547,0.326,0.843,0.451
			c0.034,0.014,0.069,0.024,0.104,0.038c0.3,0.119,0.61,0.217,0.933,0.282c0.019,0.004,0.039,0.005,0.058,0.009
			C16.299,23.963,16.645,24,17,24c0.355,0,0.701-0.037,1.038-0.101c0.019-0.004,0.039-0.005,0.058-0.009
			c0.323-0.066,0.633-0.163,0.933-0.283c0.034-0.014,0.07-0.024,0.104-0.038c0.296-0.125,0.576-0.278,0.843-0.451
			c0.032-0.02,0.065-0.037,0.096-0.058c0.28-0.189,0.54-0.405,0.781-0.641c0.01-0.01,0.023-0.017,0.034-0.028
			c0.002-0.002,0.002-0.005,0.004-0.007c0.993-0.995,1.609-2.369,1.609-3.884C22.5,15.467,20.033,13,17,13z M20.647,21.116
			c-0.462-0.793-1.161-1.404-1.987-1.761c0.512-0.458,0.84-1.116,0.84-1.855c0-1.378-1.122-2.5-2.5-2.5s-2.5,1.122-2.5,2.5
			c0,0.739,0.328,1.397,0.84,1.855c-0.826,0.357-1.525,0.968-1.987,1.761C12.822,20.377,12.5,19.478,12.5,18.5
			c0-2.481,2.019-4.5,4.5-4.5c2.481,0,4.5,2.019,4.5,4.5C21.5,19.478,21.178,20.377,20.647,21.116z M10.5,18.5
			c0-3.584,2.916-6.5,6.5-6.5c0.624,0,1.249,0.092,1.857,0.273c0.152,0.047,0.316,0.017,0.441-0.078
			c0.128-0.094,0.202-0.243,0.202-0.401V3.5C19.5,2.673,18.827,2,18,2h-1c-0.276,0-0.5,0.224-0.5,0.5v1C16.5,4.327,15.827,5,15,5H6
			C5.173,5,4.5,4.327,4.5,3.5v-1C4.5,2.224,4.276,2,4,2H3C2.173,2,1.5,2.673,1.5,3.5v19C1.5,23.327,2.173,24,3,24h9.105
			c0.007,0,0.015,0.001,0.02,0c0.276,0,0.5-0.224,0.5-0.5c0-0.182-0.097-0.34-0.241-0.428C11.168,21.846,10.5,20.226,10.5,18.5z"/>
	</g>
</g>
</svg>
