<?xml version="1.0" encoding="iso-8859-1"?>
<!-- Generator: Adobe Illustrator 19.2.1, SVG Export Plug-In . SVG Version: 6.00 Build 0)  -->
<svg version="1.1" id="Layer_1" xmlns="http://www.w3.org/2000/svg" xmlns:xlink="http://www.w3.org/1999/xlink" x="0px" y="0px"
	 viewBox="0 0 24 24" style="enable-background:new 0 0 24 24;" xml:space="preserve">
<g>
	<g>
		<path d="M23,2.474c-0.007-0.135-0.069-0.261-0.171-0.35c-0.102-0.088-0.234-0.137-0.37-0.121l-0.773,0.064
			c0.096,0.212,0.172,0.435,0.224,0.667c0.002,0.009,0.006,0.016,0.008,0.025c0.052,0.24,0.083,0.487,0.083,0.741
			c0,0.247-0.027,0.488-0.077,0.721c-0.007,0.034-0.023,0.065-0.031,0.099c-0.048,0.2-0.108,0.395-0.189,0.58
			c-0.005,0.012-0.013,0.022-0.018,0.033c-0.035,0.078-0.087,0.146-0.128,0.221c-0.075,0.139-0.151,0.277-0.242,0.403
			c-0.125,0.17-0.263,0.332-0.416,0.477c-0.001,0-0.001,0.001-0.001,0.001l-2.516,14.252l-0.289,1.637L1.08,19.089L3.906,3.073
			L15.34,4.978c-0.086-0.183-0.147-0.378-0.202-0.575c-0.034-0.131-0.059-0.265-0.079-0.402C15.033,3.835,15,3.671,15,3.497
			c0-0.308,0.053-0.602,0.128-0.887L9.855,3.049L3.582,2.004C3.311,1.954,3.055,2.14,3.008,2.41l-3,17
			c-0.023,0.131,0.007,0.267,0.084,0.375c0.077,0.108,0.194,0.183,0.326,0.205l4.486,0.748L5,22.524
			c0.008,0.138,0.071,0.266,0.176,0.354c0.091,0.077,0.206,0.119,0.323,0.119c0.019,0,0.037-0.001,0.055-0.003l7.732-0.859
			l5.131,0.855c0.028,0.005,0.055,0.007,0.083,0.007c0.238,0,0.449-0.171,0.492-0.413l0.195-1.104l4.368-0.485
			c0.264-0.029,0.459-0.26,0.444-0.525L23,2.474z M16.157,4.344c0.011,0.031,0.017,0.064,0.029,0.094
			c0.031,0.077,0.072,0.147,0.111,0.219c0.012,0.022,0.023,0.044,0.036,0.066c0.029,0.052,0.052,0.107,0.085,0.156l-2.27,2.27
			c-0.195,0.195-0.195,0.512,0,0.707c0.098,0.098,0.226,0.146,0.354,0.146c0.128,0,0.256-0.049,0.354-0.146l2.27-2.27
			c0.395,0.262,0.868,0.417,1.376,0.417c0.895,0,1.676-0.477,2.118-1.186c0.01-0.015,0.017-0.032,0.026-0.048
			c0.093-0.156,0.166-0.323,0.223-0.499c0.016-0.047,0.031-0.094,0.044-0.142c0.052-0.201,0.089-0.408,0.089-0.625
			c0-0.226-0.04-0.441-0.097-0.65c-0.012-0.043-0.025-0.085-0.039-0.127c-0.329-0.997-1.258-1.723-2.364-1.723
			c-1.032,0-1.92,0.629-2.301,1.524c-0.061,0.143-0.107,0.293-0.14,0.447c-0.003,0.007-0.007,0.014-0.008,0.023
			c-0.034,0.163-0.052,0.332-0.052,0.505c0,0.167,0.017,0.33,0.049,0.488C16.074,4.112,16.115,4.228,16.157,4.344z"/>
	</g>
</g>
</svg>
