<?xml version="1.0" encoding="iso-8859-1"?>
<!-- Generator: Adobe Illustrator 19.2.1, SVG Export Plug-In . SVG Version: 6.00 Build 0)  -->
<svg version="1.1" id="Layer_1" xmlns="http://www.w3.org/2000/svg" xmlns:xlink="http://www.w3.org/1999/xlink" x="0px" y="0px"
	 viewBox="0 0 24 24" style="enable-background:new 0 0 24 24;" xml:space="preserve">
<g>
	<g>
		<path d="M12.423,11.392c1.261,1.051,1.618,2.244,1.712,2.68L21.5,6.707L17.793,3l-7.349,7.349
			C11.007,10.502,11.711,10.798,12.423,11.392z M23.232,4.975C23.727,4.48,24,3.822,24,3.121c0-1.445-1.176-2.62-2.622-2.62
			c-0.7,0-1.357,0.272-1.853,0.768L18.5,2.294l3.707,3.707L23.232,4.975z M11.783,12.16c-0.712-0.594-1.398-0.822-1.861-0.912
			l-0.908,3.63c-0.043,0.17,0.007,0.351,0.131,0.475c0.095,0.095,0.223,0.146,0.354,0.146c0.041,0,0.081-0.005,0.121-0.015
			l3.633-0.908c-0.039-0.061-0.069-0.129-0.078-0.206C13.17,14.326,13.003,13.176,11.783,12.16z M21.662,7.959l-1.233,1.233
			L18.268,21.44l-0.174,0.985l-8.619-1.436L5.464,20.32c0,0,0,0-0.001,0L1.08,19.589L3.906,3.574l10.198,1.7l2.265-2.265
			L9.855,3.552L3.582,2.506c-0.27-0.05-0.527,0.136-0.574,0.406l-3,17c-0.023,0.131,0.007,0.267,0.084,0.375
			c0.077,0.108,0.194,0.183,0.326,0.205l4.486,0.748L5,23.026c0.008,0.138,0.071,0.266,0.176,0.354
			c0.091,0.077,0.206,0.119,0.323,0.119c0.019,0,0.037-0.001,0.055-0.003l7.732-0.859l5.131,0.855
			c0.028,0.005,0.055,0.007,0.083,0.007c0.238,0,0.449-0.171,0.492-0.413l0.195-1.104l4.368-0.485
			c0.264-0.029,0.459-0.26,0.444-0.525L23.191,6.43L21.662,7.959z"/>
	</g>
</g>
</svg>
