<?xml version="1.0" encoding="iso-8859-1"?>
<!-- Generator: Adobe Illustrator 19.2.1, SVG Export Plug-In . SVG Version: 6.00 Build 0)  -->
<svg version="1.1" id="Layer_1" xmlns="http://www.w3.org/2000/svg" xmlns:xlink="http://www.w3.org/1999/xlink" x="0px" y="0px"
	 viewBox="0 0 24 24" style="enable-background:new 0 0 24 24;" xml:space="preserve">
<g>
	<g>
		<path d="M19.06,22.681c-0.146-0.146-0.367-0.188-0.555-0.104C17.867,22.858,17.192,23,16.5,23c-2.757,0-5-2.243-5-5s2.243-5,5-5
			c0.794,0,1.558,0.186,2.271,0.552c0.155,0.079,0.34,0.073,0.489-0.018c0.148-0.091,0.239-0.252,0.239-0.427V3.5
			c0-0.827-0.673-1.5-1.5-1.5h-1c-0.276,0-0.5,0.224-0.5,0.5v1c0,0.827-0.673,1.5-1.5,1.5h-9c-0.827,0-1.5-0.673-1.5-1.5v-1
			c0-0.276-0.224-0.5-0.5-0.5h-1c-0.827,0-1.5,0.673-1.5,1.5v19c0,0.827,0.673,1.5,1.5,1.5h16c0.276,0,0.5-0.224,0.5-0.5v-0.172
			c0-0.133-0.053-0.26-0.146-0.354L19.06,22.681z M6,4h9c0.276,0,0.5-0.224,0.5-0.5v-1C15.5,1.673,14.827,1,14,1h-1.774
			c-0.353-0.61-1.008-1-1.726-1S9.127,0.39,8.774,1H7C6.173,1,5.5,1.673,5.5,2.5v1C5.5,3.776,5.724,4,6,4z M22.354,23.146
			l-2.707-2.707C20.173,19.762,20.5,18.922,20.5,18c0-2.206-1.794-4-4-4s-4,1.794-4,4s1.794,4,4,4c0.922,0,1.762-0.327,2.44-0.853
			l2.707,2.707C21.744,23.951,21.872,24,22,24s0.256-0.049,0.354-0.146C22.549,23.658,22.549,23.342,22.354,23.146z M16.5,21
			c-1.654,0-3-1.346-3-3s1.346-3,3-3s3,1.346,3,3S18.154,21,16.5,21z"/>
	</g>
</g>
</svg>
