<?xml version="1.0" encoding="iso-8859-1"?>
<!-- Generator: Adobe Illustrator 19.2.1, SVG Export Plug-In . SVG Version: 6.00 Build 0)  -->
<svg version="1.1" id="Layer_1" xmlns="http://www.w3.org/2000/svg" xmlns:xlink="http://www.w3.org/1999/xlink" x="0px" y="0px"
	 viewBox="0 0 24 24" style="enable-background:new 0 0 24 24;" xml:space="preserve">
<g>
	<g>
		<path d="M23.853,23.146l-2.707-2.707c0.527-0.677,0.853-1.517,0.853-2.44c0-2.206-1.794-4-4-4s-4,1.794-4,4s1.794,4,4,4
			c0.923,0,1.763-0.327,2.44-0.853l2.707,2.707c0.098,0.098,0.226,0.146,0.354,0.146c0.128,0,0.256-0.049,0.354-0.146
			C24.048,23.658,24.048,23.342,23.853,23.146z M17.999,21c-1.654,0-3-1.346-3-3s1.346-3,3-3s3,1.346,3,3S19.653,21,17.999,21z
			 M12.429,19.005l-6.521,0.932l-0.176-0.996L3.08,3.911L14.249,2.05h0.001l5.839-0.973l2.418,14.507
			c0.046,0.273,0.309,0.46,0.575,0.411c0.272-0.045,0.457-0.303,0.411-0.575l-2.5-15c-0.046-0.272-0.311-0.458-0.575-0.411
			l-6.273,1.045L1.542,0.004C1.4-0.012,1.273,0.036,1.172,0.125C1.07,0.213,1.008,0.339,1.001,0.474l-1,18
			c-0.015,0.265,0.18,0.496,0.443,0.525l4.369,0.486l0.195,1.104c0.042,0.242,0.253,0.413,0.491,0.413
			c0.023,0,0.048-0.001,0.071-0.005l7-1c0.273-0.039,0.464-0.292,0.425-0.566C12.954,19.156,12.694,18.967,12.429,19.005z"/>
	</g>
</g>
</svg>
