<?xml version="1.0" encoding="iso-8859-1"?>
<!-- Generator: Adobe Illustrator 19.0.0, SVG Export Plug-In . SVG Version: 6.00 Build 0)  -->
<svg version="1.1" id="Layer_1" xmlns="http://www.w3.org/2000/svg" xmlns:xlink="http://www.w3.org/1999/xlink" x="0px" y="0px"
	 viewBox="0 0 24 24" style="enable-background:new 0 0 24 24;" xml:space="preserve">
<g>
	<g>
		<path d="M14.989,3c-0.561,0-1.5-0.195-1.5-1.5c0-0.106-0.017-0.208-0.03-0.301c-0.038-0.255-0.091-0.605,0.154-0.89
			C13.853,0.032,14.228,0,14.489,0c1.121,0,2,0.659,2,1.5C16.489,2.805,15.55,3,14.989,3z M14.44,1
			c0.002,0.018,0.005,0.035,0.007,0.051c0.021,0.138,0.042,0.29,0.042,0.448c0,0.399,0.059,0.5,0.5,0.5s0.5-0.101,0.5-0.5
			c0-0.199-0.398-0.5-1-0.5C14.472,1,14.455,1,14.44,1z"/>
	</g>
	<g>
		<path d="M7.989,24c-2.778,0-3.706-0.559-5.111-1.405c-0.333-0.201-0.697-0.421-1.129-0.657c-0.16-0.087-0.26-0.256-0.26-0.438v-2
			c0-0.095,0.027-0.188,0.078-0.269c0.1-0.156,1.121-1.575,6.271-3.208c4.165-1.321,6.651-4.133,6.651-7.523
			c0-0.633,0.012-1.236,0.022-1.8c0.032-1.752,0.063-3.407-0.376-3.847c-0.195-0.195-0.195-0.512,0-0.707s0.512-0.195,0.707,0
			c0.741,0.741,0.712,2.265,0.668,4.573c-0.01,0.558-0.021,1.154-0.021,1.781c0,3.849-2.747,7.018-7.349,8.477
			c-4.021,1.275-5.333,2.383-5.651,2.708v1.522c0.335,0.189,0.63,0.367,0.905,0.532C4.745,22.552,5.489,23,7.989,23
			c3.628,0,7.607-1.814,10.646-4.854c3.071-3.071,2.914-7.762,2.862-9.304c-0.005-0.146-0.009-0.262-0.009-0.343
			c0-0.551-0.338-2.375-1.88-4.175c-0.751-0.876-1.42-1.128-2.128-1.395c-0.606-0.229-1.233-0.465-1.846-1.077
			c-0.195-0.195-0.195-0.512,0-0.707s0.512-0.195,0.707,0c0.46,0.46,0.938,0.64,1.491,0.848c0.758,0.286,1.617,0.609,2.535,1.68
			c1.677,1.957,2.12,4.012,2.12,4.825c0,0.073,0.004,0.177,0.008,0.309c0.148,4.423-0.913,7.803-3.154,10.044
			C16.121,22.076,11.876,24,7.989,24z"/>
	</g>
	<g>
		<path d="M1.989,21c-0.276,0-0.5-0.224-0.5-0.5s0.224-0.5,0.5-0.5c6.775,0,14.5-5.593,14.5-10.5c0-3.575-0.9-5.194-2.354-6.646
			c-0.195-0.195-0.195-0.512,0-0.707s0.512-0.195,0.707,0c1.589,1.588,2.646,3.446,2.646,7.354C17.489,14.981,9.377,21,1.989,21z"/>
	</g>
</g>
<g>
</g>
<g>
</g>
<g>
</g>
<g>
</g>
<g>
</g>
<g>
</g>
<g>
</g>
<g>
</g>
<g>
</g>
<g>
</g>
<g>
</g>
<g>
</g>
<g>
</g>
<g>
</g>
<g>
</g>
</svg>
