<?xml version="1.0" encoding="iso-8859-1"?>
<!-- Generator: Adobe Illustrator 19.0.0, SVG Export Plug-In . SVG Version: 6.00 Build 0)  -->
<svg version="1.1" id="Layer_1" xmlns="http://www.w3.org/2000/svg" xmlns:xlink="http://www.w3.org/1999/xlink" x="0px" y="0px"
	 viewBox="0 0 24 24" style="enable-background:new 0 0 24 24;" xml:space="preserve">
<g>
	<g>
		<path d="M0.5,11c-0.222,0-0.425-0.149-0.483-0.374c-0.07-0.267,0.09-0.54,0.358-0.61l23-6c0.263-0.066,0.54,0.09,0.61,0.358
			c0.07,0.267-0.09,0.54-0.358,0.61l-23,6C0.584,10.995,0.542,11,0.5,11z"/>
	</g>
	<g>
		<path d="M0.5,24c-0.109,0-0.217-0.036-0.306-0.104C0.072,23.801,0,23.655,0,23.5v-5C0,18.224,0.224,18,0.5,18
			C1.327,18,2,17.327,2,16.5S1.327,15,0.5,15C0.224,15,0,14.776,0,14.5v-4c0-0.155,0.072-0.301,0.194-0.396
			C0.299,10.023,10.726,1.956,13.2,0.1C13.287,0.035,13.392,0,13.5,0c9.148,0,10.431,4.187,10.481,4.365
			C23.994,4.409,24,4.454,24,4.5v13c0,0.228-0.154,0.426-0.374,0.484l-23,6C0.584,23.995,0.542,24,0.5,24z M1,18.95v3.903l22-5.739
			V4.586C22.824,4.153,21.292,1.045,13.667,1C11.185,2.869,2.419,9.647,1,10.745v3.305c1.14,0.232,2,1.242,2,2.45
			S2.14,18.717,1,18.95z M11.5,18c-0.827,0-1.5-0.673-1.5-1.5s0.673-1.5,1.5-1.5s1.5,0.673,1.5,1.5S12.327,18,11.5,18z M11.5,16
			c-0.276,0-0.5,0.224-0.5,0.5s0.224,0.5,0.5,0.5s0.5-0.224,0.5-0.5S11.776,16,11.5,16z M18,16c-1.103,0-2-0.897-2-2s0.897-2,2-2
			s2,0.897,2,2S19.103,16,18,16z M18,13c-0.551,0-1,0.449-1,1s0.449,1,1,1s1-0.449,1-1S18.551,13,18,13z M6.5,16
			C5.122,16,4,14.878,4,13.5S5.122,11,6.5,11S9,12.122,9,13.5S7.878,16,6.5,16z M6.5,12C5.673,12,5,12.673,5,13.5S5.673,15,6.5,15
			S8,14.327,8,13.5S7.327,12,6.5,12z M13.5,12c-0.827,0-1.5-0.673-1.5-1.5S12.673,9,13.5,9S15,9.673,15,10.5S14.327,12,13.5,12z
			 M13.5,10c-0.276,0-0.5,0.224-0.5,0.5s0.224,0.5,0.5,0.5s0.5-0.224,0.5-0.5S13.776,10,13.5,10z"/>
	</g>
</g>
<g>
</g>
<g>
</g>
<g>
</g>
<g>
</g>
<g>
</g>
<g>
</g>
<g>
</g>
<g>
</g>
<g>
</g>
<g>
</g>
<g>
</g>
<g>
</g>
<g>
</g>
<g>
</g>
<g>
</g>
</svg>
