<?xml version="1.0" encoding="iso-8859-1"?>
<!-- Generator: Adobe Illustrator 19.0.0, SVG Export Plug-In . SVG Version: 6.00 Build 0)  -->
<svg version="1.1" id="Layer_1" xmlns="http://www.w3.org/2000/svg" xmlns:xlink="http://www.w3.org/1999/xlink" x="0px" y="0px"
	 viewBox="0 0 24 24" style="enable-background:new 0 0 24 24;" xml:space="preserve">
<g>
	<g>
		<path d="M15.773,24H7.727c-1.104,0-2.064-0.709-2.39-1.765l0,0L1.772,10.647c-0.046-0.151-0.019-0.316,0.076-0.444
			C1.942,10.075,2.091,10,2.25,10h5c0.276,0,0.5,0.224,0.5,0.5c0,1.93,1.57,3.5,3.5,3.5h1c1.93,0,3.5-1.57,3.5-3.5
			c0-0.276,0.224-0.5,0.5-0.5h5c0.159,0,0.308,0.075,0.402,0.203c0.094,0.127,0.122,0.292,0.076,0.444l-3.565,11.588
			C17.837,23.291,16.877,24,15.773,24z M6.293,21.941C6.488,22.575,7.064,23,7.727,23h8.046c0.663,0,1.239-0.425,1.434-1.059
			L20.573,11h-3.851c-0.25,2.247-2.16,4-4.472,4h-1c-2.313,0-4.223-1.753-4.472-4H2.927L6.293,21.941z"/>
	</g>
	<g>
		<path d="M18.75,11c-0.023,0-0.047-0.001-0.071-0.005c-0.273-0.039-0.463-0.292-0.424-0.566l0.437-3.054l-1.015-0.253l-0.43,3.44
			c-0.034,0.273-0.284,0.463-0.558,0.434c-0.274-0.034-0.468-0.284-0.434-0.558l0.5-4c0.018-0.142,0.095-0.27,0.213-0.351
			c0.119-0.081,0.265-0.106,0.404-0.072l2,0.5c0.249,0.062,0.41,0.302,0.374,0.556l-0.5,3.5C19.209,10.82,18.996,11,18.75,11z"/>
	</g>
	<g>
		<path d="M12.75,14.5c-0.009,0-0.018,0-0.027,0c-0.276-0.015-0.487-0.25-0.473-0.526l0.5-9.5C12.765,4.208,12.984,4,13.25,4h2
			c0.137,0,0.269,0.057,0.363,0.156c0.094,0.1,0.144,0.234,0.136,0.372l-0.5,9c-0.016,0.275-0.243,0.485-0.527,0.471
			c-0.275-0.015-0.487-0.251-0.471-0.527L14.722,5h-0.997l-0.475,9.026C13.235,14.293,13.015,14.5,12.75,14.5z"/>
	</g>
	<g>
		<path d="M2.75,11c-0.24,0-0.452-0.173-0.493-0.418l-1-6c-0.044-0.266,0.13-0.52,0.395-0.572l2.5-0.5
			c0.133-0.025,0.271,0.001,0.382,0.079c0.111,0.077,0.187,0.196,0.209,0.33l0.5,3c0.045,0.272-0.139,0.53-0.411,0.575
			c-0.274,0.046-0.53-0.139-0.575-0.411l-0.415-2.49L2.323,4.896l0.92,5.522c0.045,0.272-0.139,0.53-0.411,0.575
			C2.804,10.998,2.777,11,2.75,11z"/>
	</g>
	<g>
		<path d="M5.25,11c-0.245,0-0.459-0.18-0.495-0.429l-0.5-3.5C4.219,6.817,4.38,6.577,4.629,6.515L6.23,6.114L5.82,2.623L4.75,2.891
			V4c0,0.276-0.224,0.5-0.5,0.5S3.75,4.276,3.75,4V2.5c0-0.229,0.156-0.429,0.379-0.485l2-0.5c0.14-0.036,0.287-0.008,0.405,0.073
			C6.652,1.67,6.73,1.799,6.747,1.941l1,8.5c0.032,0.274-0.163,0.522-0.437,0.555c-0.276,0.034-0.522-0.161-0.556-0.435l-0.43-3.44
			L5.309,7.375l0.437,3.054c0.039,0.273-0.151,0.527-0.424,0.566C5.297,10.999,5.273,11,5.25,11z"/>
	</g>
	<g>
		<path d="M9.25,5c-0.217,0-0.417-0.143-0.48-0.363l-0.834-2.92l-1.461,0.73C6.227,2.569,5.926,2.471,5.803,2.224
			S5.779,1.676,6.026,1.553l2-1c0.133-0.067,0.289-0.071,0.425-0.01c0.136,0.06,0.239,0.177,0.28,0.32l1,3.5
			c0.076,0.265-0.078,0.542-0.344,0.618C9.341,4.994,9.295,5,9.25,5z"/>
	</g>
	<g>
		<path d="M11.25,15c-0.002,0-0.003,0-0.005,0c-0.264-0.003-0.481-0.211-0.494-0.475L10.274,5H9.758c-0.005,0-0.01,0-0.015,0H9.277
			l0.473,8.974c0.014,0.276-0.197,0.511-0.473,0.526c-0.271,0.009-0.511-0.198-0.526-0.473l-0.5-9.5
			C8.244,4.389,8.293,4.255,8.387,4.156S8.613,4,8.75,4h0.559l0.445-3.562C9.785,0.188,9.998,0,10.25,0h2
			c0.139,0,0.271,0.058,0.366,0.159c0.095,0.102,0.143,0.238,0.133,0.376l-1,14C11.73,14.797,11.512,15,11.25,15z M10.316,4h0.434
			c0.267,0,0.486,0.209,0.5,0.475l0.088,1.774L11.713,1h-1.021L10.316,4z"/>
	</g>
	<g>
		<path d="M14.25,5c-0.276,0-0.5-0.224-0.5-0.5V2h-1.5c-0.276,0-0.5-0.224-0.5-0.5S11.974,1,12.25,1h2c0.276,0,0.5,0.224,0.5,0.5v3
			C14.75,4.776,14.526,5,14.25,5z"/>
	</g>
	<g>
		<path d="M16.25,11c-0.023,0-0.047-0.001-0.071-0.005c-0.273-0.039-0.463-0.292-0.424-0.566l0.931-6.516l-2.518-0.42
			c-0.272-0.045-0.457-0.303-0.411-0.575s0.304-0.458,0.575-0.411l3,0.5c0.268,0.044,0.451,0.295,0.413,0.564l-1,7
			C16.709,10.82,16.496,11,16.25,11z"/>
	</g>
	<g>
		<path d="M20.25,11c-0.052,0-0.105-0.008-0.158-0.026c-0.262-0.087-0.403-0.37-0.316-0.632l1.863-5.588l-1.165-0.583l-1.276,2.553
			c-0.124,0.247-0.424,0.346-0.671,0.224c-0.247-0.124-0.347-0.424-0.224-0.671l1.5-3c0.124-0.247,0.424-0.346,0.671-0.224l2,1
			c0.223,0.111,0.33,0.369,0.25,0.605l-2,6C20.654,10.868,20.459,11,20.25,11z"/>
	</g>
	<g>
		<path d="M19.25,6c-0.276,0-0.5-0.224-0.5-0.5V2h-1v1.5c0,0.276-0.224,0.5-0.5,0.5s-0.5-0.224-0.5-0.5v-2
			c0-0.276,0.224-0.5,0.5-0.5h2c0.276,0,0.5,0.224,0.5,0.5v4C19.75,5.776,19.526,6,19.25,6z"/>
	</g>
</g>
<g>
</g>
<g>
</g>
<g>
</g>
<g>
</g>
<g>
</g>
<g>
</g>
<g>
</g>
<g>
</g>
<g>
</g>
<g>
</g>
<g>
</g>
<g>
</g>
<g>
</g>
<g>
</g>
<g>
</g>
</svg>
