<?xml version="1.0" encoding="iso-8859-1"?>
<!-- Generator: Adobe Illustrator 19.0.0, SVG Export Plug-In . SVG Version: 6.00 Build 0)  -->
<svg version="1.1" id="Layer_1" xmlns="http://www.w3.org/2000/svg" xmlns:xlink="http://www.w3.org/1999/xlink" x="0px" y="0px"
	 viewBox="0 0 24 24" style="enable-background:new 0 0 24 24;" xml:space="preserve">
<g>
	<g>
		<path d="M16,19.5c-3.069,0-5.814-1.055-7.164-2.754c-0.642-0.807-1.528-1.359-2.496-1.553C2.489,14.418,0,12.38,0,10
			c0-3.084,4.173-5.5,9.5-5.5c3.675,0,6.946,1.172,8.537,3.06c0.66,0.783,0.987,1.652,0.961,2.54C22.14,10.854,24,12.48,24,14.5
			C24,17.304,20.486,19.5,16,19.5z M9.5,5.5C4.893,5.5,1,7.561,1,10c0,1.854,2.225,3.546,5.537,4.212
			c1.199,0.241,2.293,0.92,3.082,1.912C10.766,17.567,13.271,18.5,16,18.5c3.794,0,7-1.832,7-4c0-1.602-1.736-2.917-4.644-3.519
			c-0.264-0.055-0.438-0.309-0.392-0.574c0.131-0.761-0.102-1.502-0.692-2.202C15.888,6.562,12.837,5.5,9.5,5.5z"/>
	</g>
	<g>
		<path d="M10.5,13.5c-1.347,0-4.5,0-4.5-2.5c0-1.93,2.019-3.5,4.5-3.5S15,9.07,15,11C15,13.5,11.847,13.5,10.5,13.5z M10.5,8.5
			C8.57,8.5,7,9.622,7,11c0,0.742,0.416,1.5,3.5,1.5S14,11.742,14,11C14,9.622,12.43,8.5,10.5,8.5z"/>
	</g>
	<g>
		<path d="M10.442,12c-0.715,0-1.262-0.074-1.627-0.219c-0.256-0.102-0.382-0.393-0.279-0.649c0.103-0.257,0.394-0.383,0.649-0.279
			C9.297,10.896,9.643,11,10.442,11c0.801,0,1.147-0.104,1.258-0.149c0.256-0.103,0.547,0.022,0.65,0.278
			c0.103,0.256-0.022,0.547-0.278,0.65C11.707,11.926,11.158,12,10.442,12z"/>
	</g>
</g>
<g>
</g>
<g>
</g>
<g>
</g>
<g>
</g>
<g>
</g>
<g>
</g>
<g>
</g>
<g>
</g>
<g>
</g>
<g>
</g>
<g>
</g>
<g>
</g>
<g>
</g>
<g>
</g>
<g>
</g>
</svg>
