<?xml version="1.0" encoding="iso-8859-1"?>
<!-- Generator: Adobe Illustrator 19.0.0, SVG Export Plug-In . SVG Version: 6.00 Build 0)  -->
<svg version="1.1" id="Layer_1" xmlns="http://www.w3.org/2000/svg" xmlns:xlink="http://www.w3.org/1999/xlink" x="0px" y="0px"
	 viewBox="0 0 24 24" style="enable-background:new 0 0 24 24;" xml:space="preserve">
<g>
	<g>
		<path d="M16,24c-0.99,0-2.192-1.006-2.325-1.121c-0.21-0.179-0.234-0.495-0.055-0.704c0.18-0.21,0.495-0.235,0.705-0.055
			C14.723,22.46,15.53,23,16,23c0.737,0,2.702-0.794,5.023-8.15c0.761-2.411,1.002-4.652,0.977-5.839C21.896,4.057,18.159,4,18,4
			c-1.243,0-2.145,0.852-2.154,0.861c-0.199,0.19-0.516,0.185-0.707-0.015c-0.191-0.199-0.185-0.516,0.015-0.707
			C15.202,4.093,16.359,3,18,3c1.686,0,4.901,1.252,5,5.99c0.035,1.663-0.367,4.081-1.023,6.161C20.124,21.022,18.113,24,16,24z"/>
	</g>
	<g>
		<path d="M8,24c-2.113,0-4.124-2.978-5.977-8.85C1.367,13.07,0.965,10.652,1,8.989C1.099,4.252,4.314,3,6,3
			c1.641,0,2.798,1.093,2.846,1.139C9.045,4.33,9.051,4.645,8.861,4.844c-0.19,0.199-0.506,0.208-0.706,0.018
			C8.146,4.854,7.229,4,6,4C5.841,4,2.104,4.057,2,9.01c-0.025,1.187,0.216,3.428,0.977,5.839C5.298,22.206,7.263,23,8,23
			c0.47,0,1.277-0.54,1.675-0.88c0.21-0.18,0.525-0.155,0.705,0.055c0.179,0.209,0.155,0.525-0.055,0.704
			C10.192,22.994,8.99,24,8,24z"/>
	</g>
	<g>
		<path d="M12,24c-2.068,0-3.752-2.924-3.937-3.257c-0.134-0.241-0.047-0.545,0.194-0.68c0.243-0.134,0.545-0.046,0.68,0.194
			C9.362,21.02,10.741,23,12,23c1.049,0,1.833-1.077,2.591-2.119c0.175-0.241,0.347-0.476,0.516-0.691
			c0.171-0.216,0.486-0.252,0.703-0.083c0.216,0.171,0.253,0.486,0.083,0.703c-0.162,0.205-0.325,0.429-0.493,0.66
			C14.579,22.597,13.558,24,12,24z"/>
	</g>
	<g>
		<path d="M12.5,4C12.224,4,12,3.776,12,3.5C12,2.432,11.258,1,10.5,1C10.224,1,10,0.776,10,0.5S10.224,0,10.5,0
			C12.026,0,13,2.073,13,3.5C13,3.776,12.776,4,12.5,4z"/>
	</g>
	<g>
		<path d="M16.5,8.5C16.224,8.5,16,8.276,16,8c0-2.206-1.794-4-4-4S8,5.794,8,8c0,0.276-0.224,0.5-0.5,0.5S7,8.276,7,8
			c0-2.757,2.243-5,5-5s5,2.243,5,5C17,8.276,16.776,8.5,16.5,8.5z"/>
	</g>
</g>
<g>
</g>
<g>
</g>
<g>
</g>
<g>
</g>
<g>
</g>
<g>
</g>
<g>
</g>
<g>
</g>
<g>
</g>
<g>
</g>
<g>
</g>
<g>
</g>
<g>
</g>
<g>
</g>
<g>
</g>
</svg>
