<?xml version="1.0" encoding="iso-8859-1"?>
<!-- Generator: Adobe Illustrator 19.0.0, SVG Export Plug-In . SVG Version: 6.00 Build 0)  -->
<svg version="1.1" id="Layer_1" xmlns="http://www.w3.org/2000/svg" xmlns:xlink="http://www.w3.org/1999/xlink" x="0px" y="0px"
	 viewBox="0 0 24 24" style="enable-background:new 0 0 24 24;" xml:space="preserve">
<g>
	<g>
		<path d="M3.563,16.437c-0.128,0-0.256-0.049-0.354-0.146C1.462,14.543,0.5,12.221,0.5,9.75s0.962-4.793,2.709-6.541
			C4.957,1.462,7.279,0.5,9.75,0.5s4.793,0.962,6.541,2.709c0.195,0.195,0.195,0.512,0,0.707s-0.512,0.195-0.707,0
			C14.025,2.358,11.954,1.5,9.75,1.5S5.475,2.358,3.917,3.917C2.358,5.475,1.5,7.546,1.5,9.75s0.858,4.275,2.417,5.833
			c0.195,0.195,0.195,0.512,0,0.707C3.819,16.388,3.691,16.437,3.563,16.437z"/>
	</g>
	<g>
		<path d="M4,16.5H1c-0.276,0-0.5-0.224-0.5-0.5s0.224-0.5,0.5-0.5h2.5V13c0-0.276,0.224-0.5,0.5-0.5s0.5,0.224,0.5,0.5v3
			C4.5,16.276,4.276,16.5,4,16.5z"/>
	</g>
	<path d="M7,11.084c-0.233,0-0.466,0.089-0.644,0.266c-0.361,0.361-0.361,0.938-0.006,1.293l7.503,7.503
		c0.133,0.133,0.18,0.33,0.122,0.508c-0.059,0.179-0.212,0.31-0.398,0.339l-5.015,0.788C7.954,21.869,7.5,22.392,7.5,23
		c0,0.276,0.224,0.5,0.5,0.5h9.429c1.202,0,2.332-0.468,3.182-1.318l1.573-1.573c0.849-0.849,1.316-1.977,1.316-3.177
		c0-1.121-0.416-2.195-1.169-3.024l-7.486-7.856c-0.347-0.346-0.924-0.347-1.279,0.009c-0.361,0.361-0.361,0.938-0.006,1.293
		l3.793,3.793C17.451,11.744,17.5,11.872,17.5,12s-0.049,0.256-0.146,0.354c-0.195,0.195-0.512,0.195-0.707,0l-5.25-5.25
		c-0.354-0.354-0.933-0.354-1.287,0c-0.361,0.361-0.361,0.938-0.006,1.293l5.25,5.25C15.451,13.744,15.5,13.872,15.5,14
		s-0.049,0.256-0.146,0.354c-0.195,0.195-0.512,0.195-0.707,0l-6-6c-0.354-0.354-0.933-0.354-1.287,0
		C6.999,8.714,6.999,9.292,7.354,9.646l6,6C13.451,15.744,13.5,15.872,13.5,16s-0.049,0.256-0.146,0.354
		c-0.195,0.195-0.512,0.195-0.707,0l-5.003-5.003C7.466,11.173,7.233,11.084,7,11.084z"/>
</g>
<g>
</g>
<g>
</g>
<g>
</g>
<g>
</g>
<g>
</g>
<g>
</g>
<g>
</g>
<g>
</g>
<g>
</g>
<g>
</g>
<g>
</g>
<g>
</g>
<g>
</g>
<g>
</g>
<g>
</g>
</svg>
