<?xml version="1.0" encoding="iso-8859-1"?>
<!-- Generator: Adobe Illustrator 19.0.0, SVG Export Plug-In . SVG Version: 6.00 Build 0)  -->
<svg version="1.1" id="Layer_1" xmlns="http://www.w3.org/2000/svg" xmlns:xlink="http://www.w3.org/1999/xlink" x="0px" y="0px"
	 viewBox="0 0 24 24" style="enable-background:new 0 0 24 24;" xml:space="preserve">
<g>
	<g>
		<path d="M21.5,4h-6C15.224,4,15,3.776,15,3.5S15.224,3,15.5,3h6C21.776,3,22,3.224,22,3.5S21.776,4,21.5,4z"/>
	</g>
	<g>
		<path d="M19.5,6c-0.128,0-0.256-0.049-0.354-0.146c-0.195-0.195-0.195-0.512,0-0.707L20.793,3.5l-1.646-1.646
			c-0.195-0.195-0.195-0.512,0-0.707s0.512-0.195,0.707,0l2,2c0.195,0.195,0.195,0.512,0,0.707l-2,2C19.756,5.951,19.628,6,19.5,6z"
			/>
	</g>
	<g>
		<path d="M8.5,4h-6C2.224,4,2,3.776,2,3.5S2.224,3,2.5,3h6C8.776,3,9,3.224,9,3.5S8.776,4,8.5,4z"/>
	</g>
	<g>
		<path d="M4.5,6C4.372,6,4.244,5.951,4.146,5.854l-2-2c-0.195-0.195-0.195-0.512,0-0.707l2-2c0.195-0.195,0.512-0.195,0.707,0
			s0.195,0.512,0,0.707L3.207,3.5l1.646,1.646c0.195,0.195,0.195,0.512,0,0.707C4.756,5.951,4.628,6,4.5,6z"/>
	</g>
	<path d="M6.7,13.678c-0.416,0-0.83,0.159-1.14,0.468c-0.195,0.195-0.195,0.512,0,0.707l7.121,7.122
		C13.343,22.636,14.222,23,15.157,23H17.5c2.481,0,4.5-2.019,4.5-4.5V13c0-0.551-0.448-1-1-1s-1,0.449-1,1v0.5
		c0,0.276-0.224,0.5-0.5,0.5S19,13.776,19,13.5V12c0-0.551-0.448-1-1-1s-1,0.449-1,1v1.5c0,0.276-0.224,0.5-0.5,0.5
		S16,13.776,16,13.5V11c0-0.551-0.448-1-1-1s-1,0.449-1,1v2.5c0,0.276-0.224,0.5-0.5,0.5S13,13.776,13,13.5V6c0-0.551-0.448-1-1-1
		s-1,0.449-1,1v9.5c0,0.189-0.107,0.362-0.276,0.447c-0.168,0.084-0.372,0.066-0.523-0.047l-2.537-1.903
		C7.378,13.783,7.038,13.678,6.7,13.678z"/>
</g>
<g>
</g>
<g>
</g>
<g>
</g>
<g>
</g>
<g>
</g>
<g>
</g>
<g>
</g>
<g>
</g>
<g>
</g>
<g>
</g>
<g>
</g>
<g>
</g>
<g>
</g>
<g>
</g>
<g>
</g>
</svg>
