<?xml version="1.0" encoding="iso-8859-1"?>
<!-- Generator: Adobe Illustrator 19.0.0, SVG Export Plug-In . SVG Version: 6.00 Build 0)  -->
<svg version="1.1" id="Layer_1" xmlns="http://www.w3.org/2000/svg" xmlns:xlink="http://www.w3.org/1999/xlink" x="0px" y="0px"
	 viewBox="0 0 24 24" style="enable-background:new 0 0 24 24;" xml:space="preserve">
<g>
	<path d="M0.999,6C0.751,6,0.535,5.815,0.504,5.562C0.47,5.288,0.664,5.038,0.937,5.004l8-1c0.268-0.032,0.524,0.159,0.559,0.434
		c0.034,0.274-0.16,0.524-0.434,0.558l-8,1C1.041,5.999,1.021,6,0.999,6z"/>
	<path d="M21.5,6c-0.088,0-0.177-0.023-0.257-0.071c-0.237-0.142-0.314-0.449-0.172-0.686l1.299-2.165l-1.724-1.724
		c-0.195-0.195-0.195-0.512,0-0.707s0.512-0.195,0.707,0l2,2c0.162,0.162,0.193,0.414,0.075,0.611l-1.5,2.5
		C21.835,5.914,21.669,6,21.5,6z"/>
	<path d="M3,8C2.872,8,2.744,7.951,2.646,7.854l-2-2C0.484,5.691,0.453,5.439,0.571,5.243l1.5-2.5
		c0.143-0.238,0.452-0.312,0.686-0.171c0.237,0.142,0.314,0.449,0.172,0.686L1.63,5.422l1.724,1.724
		c0.195,0.195,0.195,0.512,0,0.707C3.256,7.951,3.128,8,3,8z"/>
	<path d="M14.499,4.5c-0.25,0-0.466-0.187-0.495-0.441c-0.033-0.274,0.163-0.523,0.438-0.555l8.5-1
		c0.266-0.038,0.522,0.164,0.555,0.438c0.033,0.274-0.163,0.523-0.438,0.555l-8.5,1C14.539,4.499,14.519,4.5,14.499,4.5z"/>
	<path d="M6,7.5C5.725,7.5,5.5,7.724,5.5,8v9.429c0,1.203,0.468,2.333,1.318,3.182l1.572,1.573c0.849,0.849,1.978,1.316,3.178,1.316
		c1.121,0,2.195-0.416,3.023-1.169l4.115-3.744c0.338-0.338,0.338-0.916-0.017-1.271c-0.357-0.354-0.948-0.35-1.293-0.006
		l-0.044,0.044l-0.707-0.707l1.044-1.043c0.354-0.354,0.354-0.932,0-1.288c-0.357-0.354-0.949-0.35-1.293-0.006l-1.044,1.044
		c-0.195,0.195-0.512,0.195-0.707,0s-0.195-0.512,0-0.707l2.044-2.043c0.354-0.354,0.354-0.932,0-1.288
		c-0.357-0.354-0.949-0.35-1.293-0.006l-2.044,2.044c-0.195,0.195-0.512,0.195-0.707,0s-0.195-0.512,0-0.707l5.003-5.003
		c0.354-0.355,0.354-0.932,0-1.287c-0.361-0.362-0.939-0.36-1.293-0.006l-7.503,7.503c-0.134,0.133-0.329,0.181-0.509,0.122
		c-0.179-0.059-0.31-0.212-0.339-0.398L7.218,8.563C7.132,7.954,6.608,7.5,6,7.5z"/>
</g>
<g>
</g>
<g>
</g>
<g>
</g>
<g>
</g>
<g>
</g>
<g>
</g>
<g>
</g>
<g>
</g>
<g>
</g>
<g>
</g>
<g>
</g>
<g>
</g>
<g>
</g>
<g>
</g>
<g>
</g>
</svg>
