<?xml version="1.0" encoding="iso-8859-1"?>
<!-- Generator: Adobe Illustrator 19.0.0, SVG Export Plug-In . SVG Version: 6.00 Build 0)  -->
<svg version="1.1" id="Layer_1" xmlns="http://www.w3.org/2000/svg" xmlns:xlink="http://www.w3.org/1999/xlink" x="0px" y="0px"
	 viewBox="0 0 24 24" style="enable-background:new 0 0 24 24;" xml:space="preserve">
<g>
	<g>
		<path d="M9.5,6C9.776,6,10,5.776,10,5.5C10,2.767,8.111,0,4.5,0C4.224,0,4,0.224,4,0.5C4,3.233,5.889,6,9.5,6z M14,7
			c-0.284,0-0.565,0.032-0.845,0.064C14.409,8.084,15,9.859,15,12.5c0,0.276-0.224,0.5-0.5,0.5S14,12.776,14,12.5
			c0-2.7-0.599-4.264-2.003-4.99C11.997,7.504,12,7.5,12,7.494c-0.032-2.57,0.991-5.799,2.698-6.535
			c0.254-0.109,0.371-0.403,0.261-0.657c-0.109-0.254-0.403-0.372-0.657-0.261c-2.35,1.012-3.248,4.779-3.298,7.14
			C10.509,7.075,10.008,7,9.5,7C5.224,7,2,10.654,2,15.5C2,20.346,5.224,24,9.5,24c0.764,0,1.52-0.115,2.25-0.342
			C12.48,23.885,13.236,24,14,24c4.411,0,8-3.813,8-8.5C22,10.813,18.411,7,14,7z"/>
	</g>
</g>
</svg>
