<?xml version="1.0" encoding="iso-8859-1"?>
<!-- Generator: Adobe Illustrator 19.0.0, SVG Export Plug-In . SVG Version: 6.00 Build 0)  -->
<svg version="1.1" id="Layer_1" xmlns="http://www.w3.org/2000/svg" xmlns:xlink="http://www.w3.org/1999/xlink" x="0px" y="0px"
	 viewBox="0 0 30 30" style="enable-background:new 0 0 30 30;" xml:space="preserve">
<g>
	<g>
		<path d="M24.5,13.5c-0.276,0-0.5,0.224-0.5,0.5v1v1c0,0.276,0.224,0.5,0.5,0.5S25,16.276,25,16v-2
			C25,13.724,24.776,13.5,24.5,13.5z M4.33,10.445c-0.207-0.182-0.523-0.162-0.705,0.045C2.577,11.68,2,13.204,2,14.78
			c0,1.576,0.577,3.1,1.625,4.29C3.724,19.182,3.861,19.239,4,19.239c0.117,0,0.235-0.041,0.33-0.124
			c0.208-0.183,0.228-0.498,0.045-0.706C3.488,17.402,3,16.113,3,14.78c0-1.333,0.488-2.622,1.375-3.629
			C4.558,10.944,4.538,10.628,4.33,10.445z M1,14.781c0-1.819,0.666-3.576,1.875-4.949C3.058,9.624,3.038,9.308,2.83,9.126
			C2.623,8.942,2.308,8.963,2.125,9.17C0.755,10.726,0,12.718,0,14.78c0,2.062,0.755,4.054,2.125,5.61
			c0.099,0.112,0.236,0.169,0.375,0.169c0.117,0,0.235-0.041,0.33-0.123c0.208-0.183,0.228-0.498,0.045-0.706
			C1.666,18.357,1,16.6,1,14.781z M27.875,9.168c-0.182-0.207-0.498-0.228-0.705-0.044c-0.208,0.183-0.228,0.498-0.045,0.706
			C28.334,11.203,29,12.961,29,14.779s-0.666,3.576-1.875,4.949c-0.183,0.207-0.163,0.523,0.045,0.706
			c0.095,0.084,0.213,0.125,0.33,0.125c0.139,0,0.276-0.058,0.375-0.171C29.245,18.832,30,16.84,30,14.778
			C30,12.716,29.245,10.724,27.875,9.168z M19.889,7.186l-0.894-6.257C18.96,0.683,18.749,0.5,18.5,0.5h-8
			c-0.249,0-0.46,0.183-0.495,0.429L9.111,7.186C6.631,8.902,5,11.763,5,15c0,3.248,1.641,6.118,4.134,7.832l0.891,6.239
			c0.035,0.246,0.246,0.429,0.495,0.429h7.98c0.247,0,0.457-0.18,0.494-0.423l0.966-6.315C22.399,21.04,24,18.206,24,15
			C24,11.763,22.369,8.902,19.889,7.186z M10.933,1.5h7.133l0.72,5.033C17.496,5.878,16.043,5.5,14.5,5.5
			c-1.543,0-2.996,0.378-4.286,1.033L10.933,1.5z M18.07,28.5h-7.117l-0.716-5.022c1.284,0.648,2.729,1.022,4.263,1.022
			c1.566,0,3.041-0.388,4.345-1.062L18.07,28.5z M14.5,23.5C9.813,23.5,6,19.687,6,15s3.813-8.5,8.5-8.5S23,10.313,23,15
			S19.187,23.5,14.5,23.5z M15,14.793V11c0-0.276-0.224-0.5-0.5-0.5S14,10.724,14,11v4c0,0.133,0.053,0.26,0.146,0.354l2,2
			c0.098,0.097,0.226,0.146,0.354,0.146s0.256-0.049,0.354-0.146c0.195-0.195,0.195-0.512,0-0.707L15,14.793z M26.375,10.489
			c-0.183-0.207-0.498-0.227-0.705-0.045c-0.208,0.183-0.228,0.498-0.045,0.706C26.512,12.157,27,13.446,27,14.779
			s-0.488,2.622-1.375,3.629c-0.183,0.207-0.163,0.523,0.045,0.706c0.095,0.084,0.213,0.125,0.33,0.125
			c0.139,0,0.276-0.057,0.375-0.17c1.048-1.19,1.625-2.714,1.625-4.29S27.423,11.679,26.375,10.489z"/>
	</g>
</g>
</svg>
