<?xml version="1.0" encoding="iso-8859-1"?>
<!-- Generator: Adobe Illustrator 19.0.0, SVG Export Plug-In . SVG Version: 6.00 Build 0)  -->
<svg version="1.1" id="Layer_1" xmlns="http://www.w3.org/2000/svg" xmlns:xlink="http://www.w3.org/1999/xlink" x="0px" y="0px"
	 viewBox="0 0 30 30" style="enable-background:new 0 0 30 30;" xml:space="preserve">
<g>
	<g>
		<path d="M13,10.75c0-1.241-1.121-2.25-2.5-2.25C9.121,8.5,8,9.509,8,10.75c0,0.276,0.224,0.5,0.5,0.5S9,11.026,9,10.75
			c0-0.689,0.673-1.25,1.5-1.25s1.5,0.561,1.5,1.25S11.327,12,10.5,12c-0.276,0-0.5,0.224-0.5,0.5s0.224,0.5,0.5,0.5
			c0.827,0,1.5,0.561,1.5,1.25s-0.673,1.25-1.5,1.25S9,14.939,9,14.25c0-0.276-0.224-0.5-0.5-0.5S8,13.974,8,14.25
			c0,1.24,1.121,2.25,2.5,2.25c1.379,0,2.5-1.01,2.5-2.25c0-0.706-0.364-1.337-0.931-1.75C12.637,12.087,13,11.456,13,10.75z
			 M18.5,8.5h-3C15.224,8.5,15,8.724,15,9v7c0,0.276,0.224,0.5,0.5,0.5h3c1.379,0,2.5-1.121,2.5-2.5v-3
			C21,9.622,19.879,8.5,18.5,8.5z M20,14c0,0.827-0.673,1.5-1.5,1.5H16v-6h2.5c0.827,0,1.5,0.673,1.5,1.5V14z M28.5,2.5h-27
			C0.673,2.5,0,3.173,0,4v18c0,0.827,0.673,1.5,1.5,1.5H13v1.11l-7.621,1.905c-0.268,0.067-0.43,0.339-0.364,0.606
			c0.066,0.267,0.34,0.426,0.606,0.364l7.94-1.985h2.877l7.941,1.985C24.42,27.495,24.46,27.5,24.5,27.5
			c0.225,0,0.429-0.151,0.485-0.379c0.067-0.267-0.095-0.539-0.364-0.606L17,24.61V23.5h11.5c0.827,0,1.5-0.673,1.5-1.5V4
			C30,3.173,29.327,2.5,28.5,2.5z M16,24.5h-2v-1h2V24.5z M29,22c0,0.275-0.225,0.5-0.5,0.5h-27C1.225,22.5,1,22.275,1,22V4
			c0-0.276,0.225-0.5,0.5-0.5h27C28.775,3.5,29,3.724,29,4V22z"/>
	</g>
</g>
</svg>
