<?xml version="1.0" encoding="iso-8859-1"?>
<!-- Generator: Adobe Illustrator 19.0.0, SVG Export Plug-In . SVG Version: 6.00 Build 0)  -->
<svg version="1.1" id="Layer_1" xmlns="http://www.w3.org/2000/svg" xmlns:xlink="http://www.w3.org/1999/xlink" x="0px" y="0px"
	 viewBox="0 0 30 30" style="enable-background:new 0 0 30 30;" xml:space="preserve">
<g>
	<g>
		<path d="M23.5,13.499c0.276,0,0.5-0.224,0.5-0.5v-2c0-0.276-0.224-0.5-0.5-0.5s-0.5,0.224-0.5,0.5v-2
			c0-1.325-1.041-2.403-2.346-2.484l-0.656-5.574C19.968,0.69,19.754,0.5,19.501,0.5h-10c-0.254,0-0.467,0.19-0.497,0.441
			L8.348,6.515C7.042,6.595,6,7.673,6,8.999v13c0,1.371,1.111,2.486,2.479,2.498c0,0.021-0.008,0.04-0.005,0.061l0.529,4.5
			c0.03,0.251,0.244,0.441,0.497,0.441h10c0.253,0,0.467-0.19,0.497-0.441l0.529-4.5c0.003-0.021-0.005-0.04-0.005-0.061
			C21.889,24.486,23,23.37,23,21.999v-3c0,0.276,0.224,0.5,0.5,0.5s0.5-0.224,0.5-0.5v-2c0-0.276-0.224-0.5-0.5-0.5
			s-0.5,0.224-0.5,0.5v-4C23,13.275,23.224,13.499,23.5,13.499z M9.945,1.499h9.11l0.589,5H9.357L9.945,1.499z M19.055,28.5h-9.11
			l-0.471-4.001h10.052L19.055,28.5z M22,21.999c0,0.827-0.673,1.5-1.5,1.5h-12c-0.827,0-1.5-0.673-1.5-1.5v-13
			c0-0.827,0.673-1.5,1.5-1.5h12c0.827,0,1.5,0.673,1.5,1.5V21.999z"/>
	</g>
</g>
</svg>
