<?xml version="1.0" encoding="iso-8859-1"?>
<!-- Generator: Adobe Illustrator 19.0.0, SVG Export Plug-In . SVG Version: 6.00 Build 0)  -->
<svg version="1.1" id="Layer_1" xmlns="http://www.w3.org/2000/svg" xmlns:xlink="http://www.w3.org/1999/xlink" x="0px" y="0px"
	 viewBox="0 0 30 30" style="enable-background:new 0 0 30 30;" xml:space="preserve">
<g>
	<g>
		<path d="M16.5,27h-3c-0.276,0-0.5,0.224-0.5,0.5s0.224,0.5,0.5,0.5h3c0.276,0,0.5-0.224,0.5-0.5S16.776,27,16.5,27z M22.5,0h-15
			C6.298,0,4,0.974,4,2.5v25C4,29.026,6.298,30,7.5,30h15c1.202,0,3.5-0.974,3.5-2.5v-25C26,0.974,23.702,0,22.5,0z M25,27.5
			c0,0.695-1.513,1.5-2.5,1.5h-15C6.513,29,5,28.195,5,27.5v-25C5,1.805,6.513,1,7.5,1h15C23.487,1,25,1.805,25,2.5V27.5z M23.5,2
			h-17C6.224,2,6,2.224,6,2.5v23C6,25.776,6.224,26,6.5,26h17c0.276,0,0.5-0.224,0.5-0.5v-23C24,2.224,23.776,2,23.5,2z M23,25H7V3
			h16V25z"/>
	</g>
</g>
</svg>
