<?xml version="1.0" encoding="iso-8859-1"?>
<!-- Generator: Adobe Illustrator 19.0.0, SVG Export Plug-In . SVG Version: 6.00 Build 0)  -->
<svg version="1.1" id="Layer_1" xmlns="http://www.w3.org/2000/svg" xmlns:xlink="http://www.w3.org/1999/xlink" x="0px" y="0px"
	 viewBox="0 0 30 30" style="enable-background:new 0 0 30 30;" xml:space="preserve">
<g>
	<g>
		<path d="M15,26.5c-0.552,0-1,0.448-1,1c0,0.552,0.448,1,1,1c0.552,0,1-0.448,1-1C16,26.948,15.552,26.5,15,26.5z M23,0H7
			C5.346,0,4,1.346,4,3v24c0,1.654,1.346,3,3,3h16c1.654,0,3-1.346,3-3V3C26,1.346,24.654,0,23,0z M25,27c0,1.103-0.897,2-2,2H7
			c-1.103,0-2-0.897-2-2V3c0-1.103,0.897-2,2-2h16c1.103,0,2,0.897,2,2V27z M23.5,2h-17C6.224,2,6,2.224,6,2.5v23
			C6,25.776,6.224,26,6.5,26h17c0.276,0,0.5-0.224,0.5-0.5v-23C24,2.224,23.776,2,23.5,2z M23,25H7V3h16V25z"/>
	</g>
</g>
</svg>
