<?xml version="1.0" encoding="iso-8859-1"?>
<!-- Generator: Adobe Illustrator 19.0.0, SVG Export Plug-In . SVG Version: 6.00 Build 0)  -->
<svg version="1.1" id="Layer_1" xmlns="http://www.w3.org/2000/svg" xmlns:xlink="http://www.w3.org/1999/xlink" x="0px" y="0px"
	 viewBox="0 0 24 24" style="enable-background:new 0 0 24 24;" xml:space="preserve">
<g>
	<path d="M12,0C7.313,0,3.5,3.813,3.5,8.5c0,8.218,7.839,15.09,8.173,15.378C11.767,23.959,11.884,24,12,24s0.233-0.041,0.327-0.122
		C12.661,23.589,20.5,16.717,20.5,8.5C20.5,3.813,16.687,0,12,0z M14.5,14c0.276,0,0.5,0.224,0.5,0.5S14.776,15,14.5,15h-5
		C9.224,15,9,14.776,9,14.5S9.224,14,9.5,14h2v-3h-0.72C9.522,11,8.5,9.977,8.5,8.72c0-0.188,0.022-0.374,0.067-0.554l0.947-3.788
		C9.57,4.155,9.77,3.999,9.999,3.999h4c0.229,0,0.43,0.156,0.485,0.379l0.947,3.788c0.045,0.18,0.067,0.366,0.067,0.553
		c0,1.258-1.022,2.281-2.28,2.281h-0.72v3L14.5,14L14.5,14z"/>
</g>
</svg>
