<?xml version="1.0" encoding="iso-8859-1"?>
<!-- Generator: Adobe Illustrator 19.0.0, SVG Export Plug-In . SVG Version: 6.00 Build 0)  -->
<svg version="1.1" id="Layer_1" xmlns="http://www.w3.org/2000/svg" xmlns:xlink="http://www.w3.org/1999/xlink" x="0px" y="0px"
	 viewBox="0 0 24 24" style="enable-background:new 0 0 24 24;" xml:space="preserve">
<g>
	<g>
		<path d="M16.922,9.113c-0.195,0-0.381-0.115-0.461-0.307c-0.053-0.126-0.158-0.227-0.287-0.275l-4-1.5
			c-0.112-0.043-0.238-0.043-0.351,0l-4,1.5C7.695,8.579,7.59,8.679,7.537,8.806C7.43,9.06,7.136,9.181,6.883,9.074
			C6.629,8.968,6.508,8.675,6.615,8.42c0.159-0.378,0.471-0.679,0.856-0.824l4-1.5c0.34-0.127,0.714-0.127,1.054,0l4,1.5
			c0.386,0.146,0.698,0.446,0.856,0.825c0.107,0.255-0.013,0.548-0.268,0.654C17.053,9.101,16.987,9.113,16.922,9.113z"/>
	</g>
	<path d="M12,0C7.313,0,3.5,3.813,3.5,8.5c0,8.218,7.839,15.09,8.173,15.378C11.767,23.959,11.883,24,12,24s0.233-0.041,0.327-0.122
		C12.66,23.589,20.5,16.717,20.5,8.5C20.5,3.813,16.687,0,12,0z M9.5,5.5c0-0.189,0.107-0.362,0.276-0.447L10.5,4.691V3
		c0-0.099,0.029-0.195,0.084-0.277C10.763,2.454,11.263,2,12,2s1.237,0.454,1.416,0.723C13.471,2.805,13.5,2.902,13.5,3v1.691
		l0.724,0.362C14.393,5.138,14.5,5.311,14.5,5.5V7c0,0.276-0.224,0.5-0.5,0.5S13.5,7.276,13.5,7h-3c0,0.276-0.224,0.5-0.5,0.5
		S9.5,7.276,9.5,7V5.5z M15.553,12.277c0.126-0.243,0.426-0.341,0.669-0.22c0.244,0.122,0.347,0.413,0.229,0.659
		C16.426,12.769,15.815,14,14,14l0,0l0,0l0,0c-0.786,0-1.336-0.234-1.72-0.5h-0.558c-0.382,0.265-0.927,0.495-1.705,0.499
		c-0.004,0-0.008,0.001-0.011,0.001c-0.002,0-0.003,0-0.005,0c-1.815,0-2.426-1.231-2.451-1.284
		c-0.119-0.249-0.014-0.547,0.235-0.667c0.248-0.117,0.542-0.015,0.664,0.229c0.015,0.03,0.211,0.366,0.714,0.569L7.544,9.204
		C7.488,9.078,7.487,8.934,7.54,8.808s0.156-0.227,0.285-0.275l4-1.5c0.113-0.042,0.238-0.042,0.352,0l4,1.5
		c0.129,0.048,0.232,0.148,0.285,0.275s0.052,0.271-0.004,0.396l-1.619,3.643C15.348,12.641,15.542,12.298,15.553,12.277z"/>
	<g>
		<path d="M11.553,12.277c0.009-0.017,0.024-0.027,0.034-0.043c0.022-0.034,0.045-0.065,0.074-0.093
			c0.016-0.015,0.033-0.026,0.051-0.038c0.024-0.018,0.044-0.041,0.072-0.054c0.015-0.007,0.032-0.006,0.047-0.012
			c0.014-0.005,0.027-0.007,0.041-0.01c0.05-0.013,0.098-0.021,0.148-0.019c0.013,0,0.024,0.004,0.037,0.005
			c0.052,0.006,0.101,0.018,0.148,0.04c0.005,0.002,0.011,0.002,0.016,0.004c0.01,0.005,0.015,0.013,0.024,0.019
			c0.042,0.024,0.079,0.051,0.113,0.087c0.016,0.016,0.027,0.034,0.04,0.052c0.016,0.022,0.037,0.039,0.049,0.063
			c0.004,0.007,0.024,0.039,0.052,0.079V7c0-0.276-0.224-0.5-0.5-0.5s-0.5,0.224-0.5,0.5v5.357
			C11.53,12.315,11.55,12.282,11.553,12.277z"/>
		<path d="M12,13.28c-0.133,0.123-0.295,0.246-0.5,0.359V16c0,0.276,0.224,0.5,0.5,0.5s0.5-0.224,0.5-0.5v-2.361
			C12.295,13.527,12.133,13.403,12,13.28z"/>
	</g>
</g>
</svg>
