<?xml version="1.0" encoding="iso-8859-1"?>
<!-- Generator: Adobe Illustrator 19.0.0, SVG Export Plug-In . SVG Version: 6.00 Build 0)  -->
<svg version="1.1" id="Layer_1" xmlns="http://www.w3.org/2000/svg" xmlns:xlink="http://www.w3.org/1999/xlink" x="0px" y="0px"
	 viewBox="0 0 24 24" style="enable-background:new 0 0 24 24;" xml:space="preserve">
<g>
	<g>
		<path d="M16.499,13c-0.276,0-0.5-0.224-0.5-0.5v-6c0-0.276,0.224-0.5,0.5-0.5s0.5,0.224,0.5,0.5v6
			C16.999,12.776,16.775,13,16.499,13z"/>
	</g>
	<circle cx="16.499" cy="4.5" r="2.5"/>
	<g>
		<path d="M17.999,12.5c0,0.276-0.224,0.5-0.5,0.5s-0.5-0.224-0.5-0.5V10H8.688l9.661,6.356l3.102-4.265l-0.47-1.722
			C20.921,10.151,20.724,10,20.499,10h-2.5V12.5z"/>
		<polygon points="23.547,19.775 21.788,13.327 19.185,16.906 		"/>
		<polygon points="13.292,19.159 11.65,18.174 11.206,18.841 12.848,19.826 		"/>
		<path d="M23.945,21.234L6.87,10H4.151l18,12H23.5c0.156,0,0.303-0.073,0.397-0.196c0.094-0.124,0.126-0.285,0.085-0.435
			L23.945,21.234z"/>
		<path d="M7.949,18.734l-6.104-4.069l-1.828,6.704c-0.041,0.15-0.009,0.311,0.085,0.435C0.197,21.928,0.344,22,0.499,22h5
			L7.949,18.734z"/>
		<polygon points="2.122,13.648 8.55,17.933 10.449,15.401 2.999,10.434 		"/>
		<path d="M20.348,22l-9.066-6.044L6.749,22H20.348z M11.083,17.223c0.148-0.222,0.443-0.29,0.673-0.151l2.5,1.5
			c0.117,0.07,0.201,0.186,0.23,0.319c0.03,0.134,0.004,0.273-0.072,0.387l-1,1.5C13.319,20.921,13.161,21,12.999,21
			c-0.087,0-0.176-0.023-0.257-0.071l-2.5-1.5c-0.117-0.07-0.201-0.186-0.23-0.319c-0.03-0.134-0.004-0.273,0.072-0.387
			L11.083,17.223z"/>
	</g>
</g>
</svg>
