<?xml version="1.0" encoding="iso-8859-1"?>
<!-- Generator: Adobe Illustrator 19.0.0, SVG Export Plug-In . SVG Version: 6.00 Build 0)  -->
<svg version="1.1" id="Layer_1" xmlns="http://www.w3.org/2000/svg" xmlns:xlink="http://www.w3.org/1999/xlink" x="0px" y="0px"
	 viewBox="0 0 24 24" style="enable-background:new 0 0 24 24;" xml:space="preserve">
<g>
	<path d="M11.5,15c0.177,0,0.341-0.094,0.431-0.246C12.348,14.047,16,7.779,16,5.5C16,3.019,13.981,1,11.5,1S7,3.019,7,5.5
		c0,2.279,3.652,8.547,4.069,9.254C11.159,14.906,11.323,15,11.5,15z M10,5.5C10,4.673,10.673,4,11.5,4S13,4.673,13,5.5
		S12.327,7,11.5,7S10,6.327,10,5.5z"/>
	<path d="M15.891,9.302c-0.689,1.594-1.567,3.255-2.286,4.542l2.004,1.86c0.014-0.019,0.021-0.041,0.038-0.058l3.354-3.354V9h-2.65
		C16.15,9,15.97,9.119,15.891,9.302z"/>
	<path d="M0,12.5v7C0,21.43,1.57,23,3.5,23H5V9H3.5C1.57,9,0,10.57,0,12.5z M4,16c0,0.551-0.448,1-1,1s-1-0.449-1-1s0.448-1,1-1
		S4,15.449,4,16z"/>
	<path d="M12.793,15.261C12.524,15.717,12.029,16,11.5,16s-1.024-0.283-1.293-0.738c-0.734-1.248-2.113-3.682-3.098-5.96
		C7.03,9.119,6.849,9,6.65,9H6v3.279L16.693,22h-1.486l-4.438-4.035L7.541,22H6.26l3.767-4.709L6,13.63V22v1h0.5h10H19v-1v-1.783
		l-5.902-5.48C12.988,14.929,12.885,15.104,12.793,15.261z"/>
	<path d="M16.327,16.371L19,18.853v-5.147l-2.646,2.646C16.346,16.361,16.335,16.364,16.327,16.371z"/>
	<path d="M20.5,9H20v14h0.5c1.93,0,3.5-1.57,3.5-3.5v-7C24,10.57,22.43,9,20.5,9z M21,14.5c0-0.276,0.224-0.5,0.5-0.5
		s0.5,0.224,0.5,0.5v3c0,0.276-0.224,0.5-0.5,0.5S21,17.776,21,17.5V14.5z M21.53,20c-0.276,0-0.505-0.224-0.505-0.5
		s0.219-0.5,0.494-0.5h0.011c0.275,0,0.5,0.224,0.5,0.5S21.806,20,21.53,20z"/>
</g>
</svg>
