<?xml version="1.0" encoding="iso-8859-1"?>
<!-- Generator: Adobe Illustrator 19.0.0, SVG Export Plug-In . SVG Version: 6.00 Build 0)  -->
<svg version="1.1" id="Layer_1" xmlns="http://www.w3.org/2000/svg" xmlns:xlink="http://www.w3.org/1999/xlink" x="0px" y="0px"
	 viewBox="0 0 24 24" style="enable-background:new 0 0 24 24;" xml:space="preserve">
<g>
	<circle cx="7" cy="2" r="2"/>
	<circle cx="17" cy="2" r="2"/>
	<path d="M18.629,5.247c-0.219-0.053-0.45,0.037-0.563,0.233c-0.667,1.156-1.636,2.093-2.799,2.706
		c-2.061,1.08-4.477,1.079-6.535,0.001c-1.165-0.614-2.133-1.551-2.8-2.707C5.82,5.284,5.589,5.193,5.371,5.247
		C5.152,5.306,5,5.504,5,5.73V23.5C5,23.776,5.224,24,5.5,24h3C8.776,24,9,23.776,9,23.5V11.539c1.938,0.611,4.062,0.611,6,0V23.5
		c0,0.276,0.224,0.5,0.5,0.5h3c0.276,0,0.5-0.224,0.5-0.5V5.73C19,5.504,18.848,5.306,18.629,5.247z"/>
</g>
<g>
</g>
<g>
</g>
<g>
</g>
<g>
</g>
<g>
</g>
<g>
</g>
<g>
</g>
<g>
</g>
<g>
</g>
<g>
</g>
<g>
</g>
<g>
</g>
<g>
</g>
<g>
</g>
<g>
</g>
</svg>
