<?xml version="1.0" encoding="iso-8859-1"?>
<!-- Generator: Adobe Illustrator 19.0.0, SVG Export Plug-In . SVG Version: 6.00 Build 0)  -->
<svg version="1.1" id="Layer_1" xmlns="http://www.w3.org/2000/svg" xmlns:xlink="http://www.w3.org/1999/xlink" x="0px" y="0px"
	 viewBox="0 0 24 24" style="enable-background:new 0 0 24 24;" xml:space="preserve">
<path d="M20.053,1.037C19.767,0.696,19.348,0.5,18.903,0.5H6.097c-1.378,0-2.5,1.122-2.5,2.5v18.624
	c0,1.034,0.842,1.876,1.876,1.876c0.541,0,1.055-0.233,1.412-0.641l6.439-7.359h2.599c1.213,0,2.248-0.867,2.461-2.061l0.777-4.352
	c0.026-0.146-0.014-0.295-0.109-0.409C18.957,8.565,18.816,8.5,18.668,8.5h-7.571c-0.276,0-0.5-0.224-0.5-0.5s0.224-0.5,0.5-0.5
	h7.929c0.242,0,0.45-0.174,0.492-0.412l0.861-4.824C20.458,1.825,20.338,1.378,20.053,1.037z"/>
<g>
</g>
<g>
</g>
<g>
</g>
<g>
</g>
<g>
</g>
<g>
</g>
<g>
</g>
<g>
</g>
<g>
</g>
<g>
</g>
<g>
</g>
<g>
</g>
<g>
</g>
<g>
</g>
<g>
</g>
</svg>
