<?xml version="1.0" encoding="iso-8859-1"?>
<!-- Generator: Adobe Illustrator 19.0.0, SVG Export Plug-In . SVG Version: 6.00 Build 0)  -->
<svg version="1.1" id="Layer_1" xmlns="http://www.w3.org/2000/svg" xmlns:xlink="http://www.w3.org/1999/xlink" x="0px" y="0px"
	 viewBox="0 0 24 24" style="enable-background:new 0 0 24 24;" xml:space="preserve">
<path d="M12,0C5.383,0,0,5.383,0,12s5.383,12,12,12s12-5.383,12-12S18.617,0,12,0z M16.42,12.229C15.093,10.179,12.217,8,9.5,8
	C9.224,8,9,8.224,9,8.5v4C9,13.878,7.878,15,6.5,15c-1.148,0-2.141-0.781-2.405-1.849c-0.038-0.273-0.066-0.556-0.077-0.868
	C4.009,12.189,4,12.094,4,12c0-4.411,3.589-8,8-8s8,3.589,8,8c0,0.083-0.009,0.166-0.02,0.288c-0.009,0.388-0.046,0.768-0.108,1.131
	C19.601,14.366,18.952,15,18.25,15c-0.466,0-0.671-0.366-1.098-1.335C16.957,13.22,16.735,12.716,16.42,12.229z"/>
<g>
</g>
<g>
</g>
<g>
</g>
<g>
</g>
<g>
</g>
<g>
</g>
<g>
</g>
<g>
</g>
<g>
</g>
<g>
</g>
<g>
</g>
<g>
</g>
<g>
</g>
<g>
</g>
<g>
</g>
</svg>
