<?xml version="1.0" encoding="iso-8859-1"?>
<!-- Generator: Adobe Illustrator 19.2.1, SVG Export Plug-In . SVG Version: 6.00 Build 0)  -->
<svg version="1.1" id="Layer_1" xmlns="http://www.w3.org/2000/svg" xmlns:xlink="http://www.w3.org/1999/xlink" x="0px" y="0px"
	 viewBox="0 0 30 30" style="enable-background:new 0 0 30 30;" xml:space="preserve">
<g>
	<g>
		<path d="M21,24h-0.214c-0.288-0.542-0.953-1.987-1.218-3.991C20.639,19.972,21.5,19.088,21.5,18c0-1.103-0.897-2-2-2h-1.039
			c-0.009-0.099-0.019-0.197-0.03-0.294c-0.066-0.63-0.124-1.182,0.013-1.888c0.572-0.359,2.057-1.424,2.057-2.818
			c0-1.006-0.505-1.931-1.338-2.485l0.224-2.649C19.575,5.95,19.781,6,20,6c0.827,0,1.5-0.673,1.5-1.5C21.5,3.673,20.827,3,20,3
			c-0.683,0-1.255,0.462-1.435,1.088c-0.65,0.143-1.461,0.038-2.2-0.317c-0.34-0.163-0.566-0.538-0.72-0.923
			C16.149,2.606,16.5,2.095,16.5,1.5C16.5,0.673,15.827,0,15,0s-1.5,0.673-1.5,1.5c0,0.595,0.352,1.107,0.855,1.349
			c-0.154,0.385-0.38,0.76-0.719,0.922c-0.738,0.357-1.55,0.461-2.201,0.317C11.255,3.462,10.683,3,10,3C9.173,3,8.5,3.673,8.5,4.5
			C8.5,5.327,9.173,6,10,6c0.219,0,0.426-0.05,0.614-0.135l0.224,2.65C10.005,9.069,9.5,9.994,9.5,11
			c0,1.394,1.485,2.459,2.056,2.818c0.137,0.705,0.079,1.258,0.013,1.888c-0.01,0.097-0.02,0.195-0.03,0.294H10.5
			c-1.103,0-2,0.897-2,2c0,1.081,0.862,1.958,1.934,1.993C10.171,21.997,9.502,23.454,9.214,24H9c-1.379,0-2.5,1.122-2.5,2.5v2
			C6.5,29.327,7.173,30,8,30h14c0.827,0,1.5-0.673,1.5-1.5v-2C23.5,25.122,22.379,24,21,24z M20,4c0.275,0,0.5,0.224,0.5,0.5
			S20.275,5,20,5s-0.5-0.224-0.5-0.5S19.725,4,20,4z M10,5C9.725,5,9.5,4.776,9.5,4.5S9.725,4,10,4s0.5,0.224,0.5,0.5S10.275,5,10,5
			z M15,1c0.275,0,0.5,0.224,0.5,0.5S15.275,2,15,2s-0.5-0.224-0.5-0.5S14.725,1,15,1z M9.5,18c0-0.551,0.448-1,1-1v0.001h1.498
			c0.265,0,0.483-0.206,0.499-0.47c0.015-0.252,0.04-0.489,0.064-0.72c0.075-0.715,0.153-1.454-0.077-2.426
			c-0.032-0.136-0.12-0.253-0.241-0.321c-0.485-0.273-1.745-1.177-1.745-2.064c0-0.745,0.418-1.423,1.092-1.77
			c0.18-0.092,0.287-0.284,0.269-0.486l-0.305-3.606c0.794,0.093,1.688-0.068,2.514-0.465c0.369-0.177,0.68-0.469,0.931-0.872
			c0.251,0.403,0.562,0.695,0.931,0.872c0.827,0.397,1.723,0.557,2.514,0.465l-0.305,3.606c-0.017,0.201,0.089,0.393,0.269,0.486
			C19.082,9.577,19.5,10.255,19.5,11c0,0.887-1.26,1.791-1.745,2.063c-0.121,0.069-0.209,0.185-0.241,0.321
			c-0.23,0.972-0.152,1.711-0.077,2.426c0.024,0.232,0.048,0.468,0.064,0.72C17.517,16.794,17.735,17,18,17h1.5c0.552,0,1,0.449,1,1
			c0,0.56-0.448,1.016-0.992,1.016L10.5,19C9.948,19,9.5,18.551,9.5,18z M11.441,20h7.051l0.067,0.001
			c0.218,1.796,0.737,3.193,1.111,3.999h-9.34C10.705,23.194,11.223,21.797,11.441,20z M22.5,28.5c0,0.276-0.225,0.5-0.5,0.5H8
			c-0.275,0-0.5-0.224-0.5-0.5v-2C7.5,25.673,8.173,25,9,25h0.444c0.019,0.002,0.037,0.016,0.056,0.016
			c0.022,0,0.041-0.013,0.063-0.016h10.874c0.022,0.003,0.041,0.016,0.063,0.016c0.019,0,0.036-0.014,0.056-0.016H21
			c0.827,0,1.5,0.673,1.5,1.5V28.5z"/>
	</g>
</g>
</svg>
