<?xml version="1.0" encoding="iso-8859-1"?>
<!-- Generator: Adobe Illustrator 19.0.0, SVG Export Plug-In . SVG Version: 6.00 Build 0)  -->
<svg version="1.1" id="Layer_1" xmlns="http://www.w3.org/2000/svg" xmlns:xlink="http://www.w3.org/1999/xlink" x="0px" y="0px"
	 viewBox="0 0 24 24" style="enable-background:new 0 0 24 24;" xml:space="preserve">
<g id="XMLID_899_">
	<g id="XMLID_913_">
		<g id="XMLID_926_">
			<path id="XMLID_927_" d="M11.5,24h-9C1.121,24,0,22.878,0,21.5v-19C0,1.122,1.121,0,2.5,0h9C12.879,0,14,1.122,14,2.5v19
				C14,22.878,12.879,24,11.5,24z M2.5,1C1.673,1,1,1.673,1,2.5v19C1,22.327,1.673,23,2.5,23h9c0.827,0,1.5-0.673,1.5-1.5v-19
				C13,1.673,12.327,1,11.5,1H2.5z"/>
		</g>
		<g id="XMLID_924_">
			<path id="XMLID_925_" d="M13.5,5h-13C0.224,5,0,4.776,0,4.5S0.224,4,0.5,4h13C13.776,4,14,4.224,14,4.5S13.776,5,13.5,5z"/>
		</g>
		<g id="XMLID_922_">
			<path id="XMLID_923_" d="M13.5,20h-13C0.224,20,0,19.776,0,19.5S0.224,19,0.5,19h13c0.276,0,0.5,0.224,0.5,0.5S13.776,20,13.5,20
				z"/>
		</g>
		<g id="XMLID_920_">
			<path id="XMLID_921_" d="M7.5,3h-1C6.224,3,6,2.776,6,2.5S6.224,2,6.5,2h1C7.776,2,8,2.224,8,2.5S7.776,3,7.5,3z"/>
		</g>
		<g id="XMLID_918_">
			<path id="XMLID_919_" d="M10.52,3c-0.275,0-0.505-0.224-0.505-0.5S10.233,2,10.51,2h0.01c0.276,0,0.5,0.224,0.5,0.5
				S10.796,3,10.52,3z"/>
		</g>
		<g id="XMLID_916_">
			<path id="XMLID_917_" d="M4.5,22h-2C2.224,22,2,21.776,2,21.5S2.224,21,2.5,21h2C4.776,21,5,21.224,5,21.5S4.776,22,4.5,22z"/>
		</g>
		<g id="XMLID_914_">
			<path id="XMLID_915_" d="M11.5,22h-2C9.224,22,9,21.776,9,21.5S9.224,21,9.5,21h2c0.276,0,0.5,0.224,0.5,0.5S11.776,22,11.5,22z"
				/>
		</g>
	</g>
	<g id="XMLID_904_">
		<g id="XMLID_911_">
			<path id="XMLID_912_" d="M21.5,24h-12C9.224,24,9,23.776,9,23.5S9.224,23,9.5,23h12c0.827,0,1.5-0.673,1.5-1.5v-9
				c0-0.827-0.673-1.5-1.5-1.5h-8c-0.276,0-0.5-0.224-0.5-0.5s0.224-0.5,0.5-0.5h8c1.379,0,2.5,1.122,2.5,2.5v9
				C24,22.878,22.879,24,21.5,24z"/>
		</g>
		<g id="XMLID_909_">
			<path id="XMLID_910_" d="M19.5,24c-0.276,0-0.5-0.224-0.5-0.5v-13c0-0.276,0.224-0.5,0.5-0.5s0.5,0.224,0.5,0.5v13
				C20,23.776,19.776,24,19.5,24z"/>
		</g>
		<g id="XMLID_907_">
			<path id="XMLID_908_" d="M21.5,18c-0.276,0-0.5-0.224-0.5-0.5v-1c0-0.276,0.224-0.5,0.5-0.5s0.5,0.224,0.5,0.5v1
				C22,17.776,21.776,18,21.5,18z"/>
		</g>
		<g id="XMLID_905_">
			<path id="XMLID_906_" d="M21.52,21c-0.275,0-0.505-0.224-0.505-0.5S21.233,20,21.51,20h0.01c0.276,0,0.5,0.224,0.5,0.5
				S21.796,21,21.52,21z"/>
		</g>
	</g>
	<g id="XMLID_902_">
		<path id="XMLID_903_" d="M21.5,8C21.224,8,21,7.776,21,7.5C21,4.467,18.532,2,15.5,2C15.224,2,15,1.776,15,1.5S15.224,1,15.5,1
			C19.084,1,22,3.916,22,7.5C22,7.776,21.776,8,21.5,8z"/>
	</g>
	<g id="XMLID_900_">
		<path id="XMLID_901_" d="M21.5,9c-0.186,0-0.354-0.102-0.44-0.263c-0.198-0.225-1.097-1.104-1.905-1.876
			c-0.199-0.19-0.207-0.507-0.016-0.707c0.19-0.2,0.507-0.207,0.707-0.016c0.826,0.789,1.352,1.292,1.68,1.629l1.621-1.622
			c0.195-0.195,0.512-0.195,0.707,0s0.195,0.512,0,0.707l-1.979,1.979C21.781,8.937,21.645,9,21.5,9z"/>
	</g>
</g>
<g>
</g>
<g>
</g>
<g>
</g>
<g>
</g>
<g>
</g>
<g>
</g>
<g>
</g>
<g>
</g>
<g>
</g>
<g>
</g>
<g>
</g>
<g>
</g>
<g>
</g>
<g>
</g>
<g>
</g>
</svg>
