<?xml version="1.0" encoding="iso-8859-1"?>
<!-- Generator: Adobe Illustrator 19.0.0, SVG Export Plug-In . SVG Version: 6.00 Build 0)  -->
<svg version="1.1" id="Layer_1" xmlns="http://www.w3.org/2000/svg" xmlns:xlink="http://www.w3.org/1999/xlink" x="0px" y="0px"
	 viewBox="0 0 24 24" style="enable-background:new 0 0 24 24;" xml:space="preserve">
<g>
	<g>
		<path d="M7,3C4.243,3,2,5.242,2,8c0,0.276,0.224,0.5,0.5,0.5S3,8.276,3,8c0-2.206,1.794-4,4-4c0.276,0,0.5-0.224,0.5-0.5
			S7.276,3,7,3z M17,1c-1.894,0-3.686,0.76-5,2.103C10.686,1.76,8.894,1,7,1c-3.86,0-7,3.14-7,7c0,1.742,0.703,3.447,2.032,4.93
			c2.287,2.55,9.541,9.849,9.614,9.922c0.012,0.012,0.029,0.017,0.042,0.028c0.027,0.022,0.054,0.041,0.085,0.057
			c0.03,0.015,0.059,0.026,0.092,0.035c0.018,0.005,0.033,0.017,0.053,0.02C11.945,22.997,11.973,23,12,23
			c0.064,0,0.125-0.014,0.182-0.036c0.02-0.008,0.036-0.022,0.055-0.032c0.035-0.019,0.068-0.038,0.097-0.064
			c0.006-0.005,0.014-0.008,0.02-0.013c0.073-0.073,7.327-7.372,9.614-9.923C23.297,11.448,24,9.744,24,8C24,4.141,20.86,1,17,1z
			 M11.667,21.453c-1.872-1.889-7.037-7.124-8.891-9.191C1.966,11.357,1,9.885,1,8C1,4.69,3.691,2,7,2
			c1.737,0,3.369,0.75,4.51,2.055c0.01,0.094,0.039,0.187,0.104,0.265l2.188,2.625l-3.632,3.178c-0.171,0.15-0.22,0.396-0.118,0.6
			l1.87,3.74l-1.839,2.759c-0.132,0.198-0.105,0.463,0.063,0.631l1.818,1.818L11.667,21.453z M21.224,12.262
			c-1.729,1.93-6.343,6.616-8.472,8.769l0.242-1.449c0.026-0.16-0.026-0.322-0.14-0.436l-1.71-1.71l1.772-2.659
			c0.099-0.149,0.111-0.34,0.031-0.501l-1.827-3.654l3.709-3.246c0.204-0.179,0.229-0.488,0.055-0.697l-2.285-2.742
			C13.735,2.706,15.318,2,17,2c3.309,0,6,2.691,6,6C23,9.885,22.034,11.357,21.224,12.262z"/>
	</g>
</g>
</svg>
