<?xml version="1.0" encoding="iso-8859-1"?>
<!-- Generator: Adobe Illustrator 19.0.0, SVG Export Plug-In . SVG Version: 6.00 Build 0)  -->
<svg version="1.1" id="Layer_1" xmlns="http://www.w3.org/2000/svg" xmlns:xlink="http://www.w3.org/1999/xlink" x="0px" y="0px"
	 viewBox="0 0 24 24" style="enable-background:new 0 0 24 24;" xml:space="preserve">
<g>
	<g>
		<path d="M8.012,8.524c-0.366,0-0.718,0.117-1.018,0.329C6.629,8.57,6.268,8.5,6,8.5c-1.086,0-2.003,0.9-2.003,2.034
			c0,1.795,2.427,3.659,2.704,3.866C6.79,14.467,6.895,14.5,7,14.5c0.106,0,0.214-0.034,0.303-0.102
			c0.276-0.211,2.697-2.106,2.691-3.886C9.997,10.491,10,10.452,10,10.431C10,9.379,9.109,8.524,8.012,8.524z M9,10.5
			c0,0.958-1.253,2.223-2.003,2.859c-0.75-0.626-2-1.864-2.003-2.778c0.003-0.021,0.003-0.095,0.003-0.116
			C4.997,9.896,5.525,9.5,6,9.5c0.133,0,0.339,0.037,0.591,0.356c0.191,0.24,0.596,0.24,0.785,0C7.878,9.22,9,9.586,9,10.431
			l0.001-0.014C9,10.447,9,10.485,9,10.5z M17.694,12.364c0.089,0.068,0.197,0.102,0.303,0.102s0.211-0.033,0.299-0.101
			C18.573,12.159,21,10.294,21,8.43c0-1.065-0.917-1.965-2.003-1.965c-0.268,0-0.63,0.07-0.994,0.353
			c-0.301-0.213-0.654-0.329-1.018-0.329c-1.096,0-1.988,0.856-1.988,1.908v0.069C14.997,10.258,17.418,12.154,17.694,12.364z
			 M15.995,8.398L15.995,8.398c0.002-0.844,1.118-1.215,1.626-0.575c0.095,0.119,0.24,0.189,0.392,0.189
			c0.154,0,0.298-0.07,0.393-0.19c0.252-0.319,0.458-0.356,0.591-0.356c0.475,0,1.003,0.396,1.006,0.918C20,8.405,20,8.479,20,8.5
			c0,0.954-1.251,2.199-2,2.825c-0.75-0.636-2.003-1.896-2.006-2.813C15.996,8.498,15.995,8.441,15.995,8.398z M21.5,3.5h-9
			c-0.181,0-0.364,0.022-0.564,0.068c-0.27,0.062-0.438,0.33-0.375,0.6c0.063,0.27,0.335,0.438,0.6,0.375
			C12.286,4.514,12.396,4.5,12.5,4.5h9C22.327,4.5,23,5.173,23,6v7c0,0.827-0.673,1.5-1.5,1.5h-1c-0.161,0-0.311,0.078-0.405,0.208
			c-0.094,0.131-0.12,0.299-0.069,0.451l0.494,1.481L17.8,14.6c-0.086-0.065-0.192-0.1-0.3-0.1h-2c-0.276,0-0.5,0.224-0.5,0.5
			s0.224,0.5,0.5,0.5h1.833l3.867,2.9c0.089,0.067,0.195,0.1,0.3,0.1c0.103,0,0.205-0.031,0.291-0.094
			c0.178-0.128,0.252-0.356,0.183-0.564L21.193,15.5H21.5c1.379,0,2.5-1.122,2.5-2.5V6C24,4.622,22.879,3.5,21.5,3.5z M11.5,5.5h-9
			C1.121,5.5,0,6.622,0,8v7c0,1.378,1.121,2.5,2.5,2.5h0.307l-0.782,2.342c-0.069,0.208,0.005,0.436,0.183,0.564
			C2.295,20.469,2.397,20.5,2.5,20.5c0.105,0,0.211-0.033,0.3-0.1l3.867-2.9H11.5c1.379,0,2.5-1.122,2.5-2.5V8
			C14,6.622,12.879,5.5,11.5,5.5z M13,15c0,0.827-0.673,1.5-1.5,1.5h-5c-0.109,0-0.214,0.035-0.3,0.1l-2.72,2.04l0.494-1.481
			C4.025,17.006,4,16.838,3.905,16.708C3.812,16.577,3.661,16.5,3.5,16.5h-1C1.673,16.5,1,15.827,1,15V8c0-0.827,0.673-1.5,1.5-1.5
			h9C12.327,6.5,13,7.173,13,8V15z"/>
	</g>
</g>
</svg>
