<?xml version="1.0" encoding="iso-8859-1"?>
<!-- Generator: Adobe Illustrator 19.0.0, SVG Export Plug-In . SVG Version: 6.00 Build 0)  -->
<svg version="1.1" id="Layer_1" xmlns="http://www.w3.org/2000/svg" xmlns:xlink="http://www.w3.org/1999/xlink" x="0px" y="0px"
	 viewBox="0 0 24 24" style="enable-background:new 0 0 24 24;" xml:space="preserve">
<g>
	<g>
		<path d="M14,19H7c-0.276,0-0.5,0.224-0.5,0.5S6.724,20,7,20h7c0.276,0,0.5-0.224,0.5-0.5S14.276,19,14,19z M17,16H7
			c-0.276,0-0.5,0.224-0.5,0.5S6.724,17,7,17h10c0.276,0,0.5-0.224,0.5-0.5S17.276,16,17,16z M17,10H7c-0.276,0-0.5,0.224-0.5,0.5
			S6.724,11,7,11h10c0.276,0,0.5-0.224,0.5-0.5S17.276,10,17,10z M20,0H10C9.933,0,9.867,0.014,9.806,0.039
			c-0.019,0.008-0.033,0.023-0.05,0.034c-0.038,0.022-0.078,0.042-0.11,0.073l-6,6C3.623,6.169,3.61,6.2,3.592,6.227
			c-0.018,0.027-0.041,0.05-0.053,0.08C3.514,6.368,3.5,6.433,3.5,6.5v17C3.5,23.776,3.724,24,4,24h16c0.276,0,0.5-0.224,0.5-0.5
			v-23C20.5,0.224,20.276,0,20,0z M9.5,1.707V6H5.207L9.5,1.707z M19.5,23h-15V7H10c0.276,0,0.5-0.224,0.5-0.5V1h9V23z M15.204,7.9
			C15.293,7.967,15.398,8,15.503,8c0.107,0,0.213-0.034,0.303-0.101c0.276-0.21,2.697-2.106,2.697-3.898
			c0-0.021-0.002-0.042-0.004-0.063C18.466,2.863,17.582,2,16.5,2c-0.353,0-0.697,0.095-1,0.273C15.197,2.095,14.853,2,14.5,2
			c-1.082,0-1.966,0.863-1.996,1.969C12.501,3.99,12.5,4.012,12.5,4.034C12.5,5.829,14.927,7.693,15.204,7.9z M13.499,4
			c0-0.551,0.449-1,1-1c0.243,0,0.479,0.093,0.666,0.261c0.19,0.171,0.48,0.171,0.669,0C16.021,3.093,16.257,3,16.5,3
			c0.551,0,1,0.449,1,1c0,0.015,0,0.03,0.002,0.045c-0.038,0.951-1.264,2.187-2.002,2.814c-0.75-0.626-2-1.87-2.001-2.825
			C13.5,4.023,13.5,4.011,13.499,4z M17,13H7c-0.276,0-0.5,0.224-0.5,0.5S6.724,14,7,14h10c0.276,0,0.5-0.224,0.5-0.5
			S17.276,13,17,13z"/>
	</g>
</g>
</svg>
