<?xml version="1.0" encoding="iso-8859-1"?>
<!-- Generator: Adobe Illustrator 19.0.0, SVG Export Plug-In . SVG Version: 6.00 Build 0)  -->
<svg version="1.1" id="Layer_1" xmlns="http://www.w3.org/2000/svg" xmlns:xlink="http://www.w3.org/1999/xlink" x="0px" y="0px"
	 viewBox="0 0 24 24" style="enable-background:new 0 0 24 24;" xml:space="preserve">
<g>
	<g>
		<path d="M14,13.5v2c0,0.276,0.224,0.5,0.5,0.5s0.5-0.224,0.5-0.5v-2c0-0.276-0.224-0.5-0.5-0.5S14,13.224,14,13.5z M18.5,4h-3
			C15.224,4,15,4.224,15,4.5S15.224,5,15.5,5h3C18.776,5,19,4.776,19,4.5S18.776,4,18.5,4z M20.15,1.386
			C18.592,0.492,16.585,0,14.5,0c-1.969,0-3.886,0.442-5.398,1.246C8.173,1.739,7.127,2,6.075,2H2.5C1.673,2,1,2.673,1,3.5v4
			C1,8.327,1.673,9,2.5,9h3.575c1.051,0,2.098,0.261,3.026,0.754c0.835,0.444,1.8,0.765,2.823,0.975
			c0.44,3.682,0.593,7.898,0.123,8.417c-0.143,0.143-0.186,0.358-0.108,0.545C12.016,19.878,12.199,20,12.401,20h1.488
			c-0.072,1.53-0.577,2.999-3.488,2.999c-2.022,0-3.561-0.55-4.118-1.471c-0.371-0.614-0.318-1.386,0.16-2.296l0.223-0.411
			c0.737-1.338,2.108-3.827,1.003-5.697c-0.845-1.43-2.862-2.125-6.169-2.125c-0.276,0-0.5,0.224-0.5,0.5s0.224,0.5,0.5,0.5
			c2.882,0,4.667,0.549,5.308,1.633c0.815,1.379-0.377,3.543-1.018,4.706l-0.233,0.429c-0.811,1.546-0.519,2.636-0.13,3.279
			C6.189,23.306,7.955,24,10.401,24c3.982,0,4.44-2.557,4.492-4h0.508c0.113,0,0.223-0.038,0.311-0.108
			c1.085-0.859,1.185-4.323,1.189-9.137c1.189-0.227,2.307-0.6,3.249-1.141C21.961,8.576,23,7.076,23,5.5S21.962,2.425,20.15,1.386z
			 M7,8.059C6.693,8.021,6.385,8,6.075,8H2.5C2.224,8,2,7.776,2,7.5v-4C2,3.224,2.224,3,2.5,3h3.576C6.385,3,6.694,2.979,7,2.941
			V8.059z M15.191,19h-0.785c-0.002,0-0.003-0.001-0.005-0.001S14.398,19,14.396,19H13.14c0.437-1.87,0.07-5.873-0.188-8.096
			C13.461,10.964,13.978,11,14.5,11c0.473,0,0.94-0.033,1.401-0.082C15.899,13.642,15.866,18.072,15.191,19z M19.654,8.747
			C18.244,9.555,16.415,10,14.501,10c-1.809,0-3.559-0.401-4.93-1.129C9.073,8.606,8.544,8.406,8,8.261V2.74
			c0.544-0.146,1.073-0.346,1.572-0.611C10.942,1.401,12.692,1,14.501,1c1.914,0,3.743,0.445,5.153,1.253
			c1.492,0.856,2.347,2.039,2.347,3.247S21.146,7.891,19.654,8.747z M18.5,6h-3C15.224,6,15,6.224,15,6.5S15.224,7,15.5,7h3
			C18.776,7,19,6.776,19,6.5S18.776,6,18.5,6z"/>
	</g>
</g>
</svg>
