<?xml version="1.0" encoding="iso-8859-1"?>
<!-- Generator: Adobe Illustrator 19.0.0, SVG Export Plug-In . SVG Version: 6.00 Build 0)  -->
<svg version="1.1" id="Layer_1" xmlns="http://www.w3.org/2000/svg" xmlns:xlink="http://www.w3.org/1999/xlink" x="0px" y="0px"
	 viewBox="0 0 30 30" style="enable-background:new 0 0 30 30;" xml:space="preserve">
<g>
	<g>
		<path d="M8.692,20.038c-0.185-0.079-0.402-0.036-0.545,0.108l-1,1c-0.195,0.195-0.195,0.512,0,0.707
			c0.195,0.195,0.512,0.195,0.707,0L8,21.707V24.5C8,24.776,8.224,25,8.5,25s0.5-0.224,0.501-0.5v-4
			C9.001,20.298,8.879,20.115,8.692,20.038z M11,12.5c0-0.276-0.224-0.5-0.5-0.5h-3C7.224,12,7,12.224,7,12.5v4
			C7,16.776,7.224,17,7.5,17h3c0.276,0,0.5-0.224,0.5-0.5V12.5z M10,16H8v-3h2V16z M14.5,20h-3c-0.276,0-0.5,0.224-0.5,0.5v4
			c0,0.276,0.224,0.5,0.5,0.5h3c0.276,0,0.5-0.224,0.5-0.5v-4C15,20.224,14.776,20,14.5,20z M14,24h-2v-3h2V24z M17.854,21.853
			L18,21.707V24.5c0,0.276,0.224,0.5,0.5,0.5s0.5-0.224,0.501-0.5v-4c0-0.202-0.122-0.385-0.309-0.462
			c-0.186-0.079-0.401-0.036-0.545,0.108l-1,1c-0.195,0.195-0.195,0.512,0,0.707C17.342,22.048,17.659,22.048,17.854,21.853z
			 M13.854,13.853L14,13.707V16.5c0,0.276,0.224,0.5,0.5,0.5s0.5-0.224,0.501-0.5v-4c0-0.202-0.122-0.385-0.309-0.462
			c-0.186-0.079-0.401-0.035-0.545,0.108l-1,1c-0.195,0.195-0.195,0.512,0,0.707C13.342,14.048,13.659,14.048,13.854,13.853z
			 M25.5,0h-13c-0.067,0-0.133,0.014-0.194,0.039c-0.019,0.008-0.033,0.023-0.05,0.034c-0.038,0.022-0.078,0.042-0.11,0.073l-8,8
			C4.123,8.169,4.11,8.2,4.092,8.227c-0.018,0.027-0.041,0.05-0.053,0.08C4.014,8.368,4,8.433,4,8.5v21C4,29.776,4.224,30,4.5,30h21
			c0.276,0,0.5-0.224,0.5-0.5v-29C26,0.224,25.776,0,25.5,0z M12,1.707V8H5.707L12,1.707z M25,29H5V9h7.5C12.776,9,13,8.776,13,8.5
			V1h12V29z M17.854,13.853L18,13.707V16.5c0,0.276,0.224,0.5,0.5,0.5s0.5-0.224,0.501-0.5v-4c0-0.202-0.122-0.385-0.309-0.462
			c-0.186-0.079-0.401-0.035-0.545,0.108l-1,1c-0.195,0.195-0.195,0.512,0,0.707C17.342,14.048,17.659,14.048,17.854,13.853z
			 M21.854,13.853L22,13.707V16.5c0,0.276,0.224,0.5,0.5,0.5s0.5-0.224,0.501-0.5v-4c0-0.202-0.122-0.385-0.309-0.462
			c-0.186-0.079-0.402-0.035-0.545,0.108l-1,1c-0.195,0.195-0.195,0.512,0,0.707C21.342,14.048,21.659,14.048,21.854,13.853z
			 M21.854,21.853L22,21.707V24.5c0,0.276,0.224,0.5,0.5,0.5s0.5-0.224,0.501-0.5v-4c0-0.202-0.122-0.385-0.309-0.462
			c-0.186-0.079-0.402-0.036-0.545,0.108l-1,1c-0.195,0.195-0.195,0.512,0,0.707C21.342,22.048,21.659,22.048,21.854,21.853z"/>
	</g>
</g>
</svg>
