<?xml version="1.0" encoding="iso-8859-1"?>
<!-- Generator: Adobe Illustrator 19.0.0, SVG Export Plug-In . SVG Version: 6.00 Build 0)  -->
<svg version="1.1" id="Layer_1" xmlns="http://www.w3.org/2000/svg" xmlns:xlink="http://www.w3.org/1999/xlink" x="0px" y="0px"
	 viewBox="0 0 30 30" style="enable-background:new 0 0 30 30;" xml:space="preserve">
<g>
	<g>
		<path d="M28.874,0.168C28.779,0.061,28.643,0,28.5,0h-27C1.357,0,1.221,0.061,1.126,0.168c-0.095,0.107-0.14,0.249-0.123,0.391
			l3,25.5c0.023,0.195,0.159,0.359,0.347,0.418l11.143,3.5c0.049,0.015,0.1,0.023,0.15,0.023c0.057,0,0.113-0.01,0.168-0.028
			l9.857-3.5c0.179-0.064,0.307-0.224,0.329-0.413l3-25.5C29.014,0.417,28.969,0.274,28.874,0.168z M25.039,25.633l-9.406,3.34
			L4.959,25.62L2.062,1h25.875L25.039,25.633z M7.5,7h15.386l-1.034,5H8.5C8.224,12,8,12.224,8,12.5S8.224,13,8.5,13h13.145
			l-1.585,7.661l-4.57,2.285l-5.041-2.291l-0.456-2.737c-0.045-0.272-0.304-0.458-0.575-0.411c-0.272,0.045-0.456,0.303-0.411,0.575
			l0.5,3c0.027,0.165,0.135,0.304,0.286,0.373l5.5,2.5C15.359,23.985,15.43,24,15.5,24c0.077,0,0.153-0.018,0.224-0.053l5-2.5
			c0.137-0.068,0.235-0.196,0.266-0.346l3-14.5c0.03-0.147-0.007-0.3-0.102-0.417C23.793,6.068,23.65,6,23.5,6h-16
			C7.224,6,7,6.224,7,6.5S7.224,7,7.5,7z"/>
	</g>
</g>
</svg>
