<?xml version="1.0" encoding="iso-8859-1"?>
<!-- Generator: Adobe Illustrator 19.0.0, SVG Export Plug-In . SVG Version: 6.00 Build 0)  -->
<svg version="1.1" id="Layer_1" xmlns="http://www.w3.org/2000/svg" xmlns:xlink="http://www.w3.org/1999/xlink" x="0px" y="0px"
	 viewBox="0 0 30 30" style="enable-background:new 0 0 30 30;" xml:space="preserve">
<g>
	<g>
		<path d="M7.5,3.5C7.224,3.5,7,3.724,7,4s0.224,0.5,0.5,0.5S8,4.276,8,4S7.776,3.5,7.5,3.5z M5.5,3.5C5.224,3.5,5,3.724,5,4
			s0.224,0.5,0.5,0.5S6,4.276,6,4S5.776,3.5,5.5,3.5z M3.5,3.5C3.224,3.5,3,3.724,3,4s0.224,0.5,0.5,0.5S4,4.276,4,4
			S3.776,3.5,3.5,3.5z M21.498,20.5c-0.783,0-1.456-0.425-1.5-0.946c-0.023-0.276-0.294-0.484-0.54-0.456
			c-0.275,0.023-0.479,0.265-0.456,0.54c0.09,1.062,1.163,1.862,2.496,1.862c1.38,0,2.502-0.897,2.502-1.999
			c0-1.027-0.776-1.691-2.396-1.99l-0.109-0.021c-1.019-0.188-1.494-0.502-1.494-0.99c0-0.542,0.688-1,1.502-1
			c0.783,0,1.456,0.424,1.5,0.946c0.022,0.276,0.285,0.478,0.54,0.456c0.275-0.023,0.479-0.266,0.456-0.541
			c-0.09-1.061-1.163-1.861-2.496-1.861c-1.38,0-2.502,0.897-2.502,2c0,1.027,0.778,1.691,2.4,1.99l0.109,0.021
			C22.526,18.698,23,19.012,23,19.5C23,20.042,22.312,20.5,21.498,20.5z M25.499,22.5c-0.276,0-0.5,0.224-0.5,0.5v2.524
			c0,1.09-0.907,1.976-2.021,1.976H3.021C1.907,27.5,1,26.614,1,25.524V6.5h24.015L25,11.999c-0.001,0.276,0.223,0.5,0.499,0.501
			H25.5c0.275,0,0.499-0.224,0.5-0.499L26.022,4.5c0-1.641-1.356-2.976-3.021-2.976L3.022,1.5c-1.666,0-3.021,1.335-3.021,2.976
			v1.519C0.001,5.997,0,5.998,0,6s0.001,0.003,0.001,0.005v19.519c0,1.641,1.355,2.976,3.021,2.976h19.957
			c1.666,0,3.021-1.335,3.02-2.976V23C25.999,22.724,25.775,22.5,25.499,22.5z M1,4.476C1,3.386,1.908,2.5,3.021,2.5L23,2.524
			c1.114,0,2.021,0.887,2.021,1.975L25.018,5.5H1V4.476z M27.604,17.511l-0.109-0.021c-1.019-0.188-1.494-0.502-1.494-0.99
			c0-0.542,0.688-1,1.502-1c0.783,0,1.456,0.424,1.5,0.946c0.022,0.276,0.285,0.478,0.54,0.456c0.275-0.023,0.479-0.266,0.456-0.541
			c-0.09-1.061-1.163-1.861-2.496-1.861c-1.38,0-2.502,0.897-2.502,2c0,1.027,0.778,1.691,2.4,1.99l0.109,0.021
			C28.526,18.698,29,19.012,29,19.5c0,0.542-0.688,1-1.502,1c-0.783,0-1.456-0.425-1.5-0.946c-0.023-0.276-0.295-0.484-0.54-0.456
			c-0.275,0.023-0.479,0.265-0.456,0.54c0.09,1.062,1.163,1.862,2.496,1.862c1.38,0,2.502-0.897,2.502-1.999
			C30,18.474,29.224,17.81,27.604,17.511z M14.833,15.5h1.334c0.459,0,0.833,0.449,0.833,1c0,0.276,0.224,0.5,0.5,0.5
			s0.5-0.224,0.5-0.5c0-1.103-0.822-2-1.833-2h-1.334c-1.011,0-1.833,0.897-1.833,2v3c0,1.103,0.822,2,1.833,2h1.334
			c1.011,0,1.833-0.897,1.833-2c0-0.276-0.224-0.5-0.5-0.5S17,19.224,17,19.5c0,0.551-0.374,1-0.833,1h-1.334
			c-0.459,0-0.833-0.449-0.833-1v-3C14,15.949,14.374,15.5,14.833,15.5z"/>
	</g>
</g>
</svg>
