<?xml version="1.0" encoding="iso-8859-1"?>
<!-- Generator: Adobe Illustrator 19.0.0, SVG Export Plug-In . SVG Version: 6.00 Build 0)  -->
<svg version="1.1" id="Layer_1" xmlns="http://www.w3.org/2000/svg" xmlns:xlink="http://www.w3.org/1999/xlink" x="0px" y="0px"
	 viewBox="0 0 30 30" style="enable-background:new 0 0 30 30;" xml:space="preserve">
<g>
	<g>
		<path d="M21.5,25c-0.276,0-0.5,0.224-0.5,0.5V29H1V9h7.5C8.776,9,9,8.776,9,8.5V1h12v14.5c0,0.276,0.224,0.5,0.5,0.5
			s0.5-0.224,0.5-0.5v-15C22,0.224,21.776,0,21.5,0h-13C8.433,0,8.368,0.014,8.307,0.039C8.278,0.051,8.256,0.073,8.23,0.09
			C8.202,0.108,8.17,0.122,8.146,0.146l-8,8C0.123,8.169,0.11,8.2,0.092,8.227c-0.018,0.027-0.041,0.05-0.053,0.08
			C0.014,8.368,0,8.433,0,8.5v21C0,29.776,0.224,30,0.5,30h21c0.276,0,0.5-0.224,0.5-0.5v-4C22,25.224,21.776,25,21.5,25z M8,1.707
			V8H1.707L8,1.707z M24.645,17.022c-0.211-0.064-0.439,0.017-0.561,0.201L22.5,19.599l-1.584-2.377
			c-0.122-0.183-0.351-0.265-0.561-0.201C20.144,17.085,20,17.28,20,17.5v6c0,0.276,0.224,0.5,0.5,0.5s0.5-0.224,0.5-0.5v-4.349
			l1.084,1.626c0.186,0.278,0.646,0.278,0.832,0L24,19.151V23.5c0,0.276,0.224,0.5,0.5,0.5s0.5-0.224,0.5-0.5v-6
			C25,17.28,24.856,17.086,24.645,17.022z M29.5,23H27v-5.5c0-0.276-0.224-0.5-0.5-0.5S26,17.224,26,17.5v6
			c0,0.276,0.224,0.5,0.5,0.5h3c0.276,0,0.5-0.224,0.5-0.5S29.776,23,29.5,23z M18.777,17.084c-0.23-0.153-0.541-0.091-0.693,0.139
			L16.5,19.6l-1.585-2.377c-0.152-0.231-0.463-0.292-0.693-0.139c-0.23,0.153-0.292,0.463-0.139,0.693l1.816,2.724l-1.815,2.722
			c-0.153,0.23-0.091,0.54,0.139,0.693C14.309,23.973,14.405,24,14.5,24c0.161,0,0.32-0.078,0.416-0.223l1.583-2.375l1.583,2.375
			C18.18,23.922,18.338,24,18.5,24c0.096,0,0.192-0.027,0.276-0.084c0.23-0.153,0.292-0.463,0.139-0.693L17.1,20.501l1.816-2.724
			C19.069,17.547,19.007,17.237,18.777,17.084z"/>
	</g>
</g>
</svg>
