<?xml version="1.0" encoding="iso-8859-1"?>
<!-- Generator: Adobe Illustrator 19.0.0, SVG Export Plug-In . SVG Version: 6.00 Build 0)  -->
<svg version="1.1" id="Layer_1" xmlns="http://www.w3.org/2000/svg" xmlns:xlink="http://www.w3.org/1999/xlink" x="0px" y="0px"
	 viewBox="0 0 30 30" style="enable-background:new 0 0 30 30;" xml:space="preserve">
<g>
	<g>
		<path d="M20.5,23.5c-0.276,0-0.5,0.224-0.5,0.5s0.224,0.5,0.5,0.5c0.276,0,0.5-0.224,0.5-0.5S20.776,23.5,20.5,23.5z M10,20.5
			c-1.105,0-2,0.895-2,2s0.895,2,2,2s2-0.895,2-2S11.104,20.5,10,20.5z M29.031,23.062C29.639,21.997,30,20.406,30,18.5
			c0-3.533-1.233-6-3-6h-1.36l1.345-5.379C26.995,7.081,27,7.041,27,7V4.286C27,3.302,26.215,2.5,25.25,2.5h-2.5
			C21.785,2.5,21,3.301,21,4.286V7c0,0.041,0.005,0.082,0.015,0.121l1.345,5.379H20v-2c0-1.103-0.897-2-2-2c-1.103,0-2,0.897-2,2v2
			h-2v-6h0.5C14.776,6.5,15,6.276,15,6V4.396C15,3.35,14.148,2.5,13.104,2.5H2.897C1.851,2.5,1,3.351,1,4.396V6
			c0,0.276,0.224,0.5,0.5,0.5H2v11H1V17c0-0.276-0.224-0.5-0.5-0.5S0,16.724,0,17v5c0,0.276,0.224,0.5,0.5,0.5S1,22.276,1,22v-0.5
			h1.007c0.039,1.66,1.395,3,3.064,3h0.353c0.774,1.763,2.531,3,4.576,3c2.045,0,3.802-1.237,4.576-3h2.474
			c0.245,1.692,1.691,3,3.449,3s3.204-1.308,3.449-3h0.298l0.7,0.947c0.857,1.285,2.559,2.053,4.553,2.053
			c0.154,0,0.299-0.071,0.394-0.192c0.095-0.121,0.128-0.279,0.091-0.429L29.031,23.062z M5,14V9c0-0.276,0.224-0.5,0.5-0.5h5
			C10.776,8.5,11,8.724,11,9v5c0,0.276-0.224,0.5-0.5,0.5h-5C5.224,14.5,5,14.276,5,14z M10,26.5c-2.206,0-4-1.794-4-4s1.794-4,4-4
			s4,1.794,4,4S12.206,26.5,10,26.5z M20.5,26.5c-1.378,0-2.5-1.122-2.5-2.5s1.122-2.5,2.5-2.5S23,22.622,23,24
			S21.878,26.5,20.5,26.5z"/>
	</g>
</g>
</svg>
