<?xml version="1.0" encoding="iso-8859-1"?>
<!-- Generator: Adobe Illustrator 19.0.0, SVG Export Plug-In . SVG Version: 6.00 Build 0)  -->
<svg version="1.1" id="Layer_1" xmlns="http://www.w3.org/2000/svg" xmlns:xlink="http://www.w3.org/1999/xlink" x="0px" y="0px"
	 viewBox="0 0 30 30" style="enable-background:new 0 0 30 30;" xml:space="preserve">
<g>
	<g>
		<path d="M7.5,8h-4C1.57,8,0,9.57,0,11.5v7C0,19.327,0.673,20,1.5,20c0.175,0,0.344-0.03,0.5-0.085V28c0,1.103,0.897,2,2,2
			c0.597,0,1.133-0.263,1.5-0.679C5.867,29.737,6.403,30,7,30c1.103,0,2-0.897,2-2v-8.085C9.156,19.97,9.325,20,9.5,20
			c0.827,0,1.5-0.673,1.5-1.5v-7C11,9.57,9.43,8,7.5,8z M5.5,7C7.43,7,9,5.43,9,3.5S7.43,0,5.5,0S2,1.57,2,3.5S3.57,7,5.5,7z
			 M21.5,8C21.224,8,21,8.224,21,8.5V16h-7.5c-0.276,0-0.5,0.224-0.5,0.5v3c0,3.033,2.468,5.5,5.5,5.5h6c3.032,0,5.5-2.467,5.5-5.5
			v-3C30,11.813,26.187,8,21.5,8z M18,26c-1.105,0-2,0.895-2,2s0.895,2,2,2s2-0.895,2-2S19.105,26,18,26z M25,26
			c-1.105,0-2,0.895-2,2s0.895,2,2,2s2-0.895,2-2S26.105,26,25,26z"/>
	</g>
</g>
</svg>
