<?xml version="1.0" encoding="iso-8859-1"?>
<!-- Generator: Adobe Illustrator 19.0.0, SVG Export Plug-In . SVG Version: 6.00 Build 0)  -->
<svg version="1.1" id="Layer_1" xmlns="http://www.w3.org/2000/svg" xmlns:xlink="http://www.w3.org/1999/xlink" x="0px" y="0px"
	 viewBox="0 0 30 30" style="enable-background:new 0 0 30 30;" xml:space="preserve">
<g>
	<g>
		<path d="M15,0.5C7.005,0.5,0.5,7.005,0.5,15S7.005,29.5,15,29.5S29.5,22.995,29.5,15S22.995,0.5,15,0.5z M3.285,21.679
			C2.156,19.707,1.501,17.43,1.501,15C1.5,11.455,2.884,8.235,5.127,5.824c0.008,0.009,0.011,0.021,0.02,0.03l8.833,8.833
			l2.799,2.798c-0.434,0.37-0.946,0.674-1.541,0.922c-0.016-0.025-0.041-0.052-0.05-0.074c-0.083-0.188,0.008-0.444,0.164-0.846
			c0.041-0.104,0.082-0.211,0.121-0.321c0.054-0.154,0.03-0.324-0.064-0.457c-0.094-0.131-0.246-0.209-0.407-0.209h-0.005
			C6.8,16.572,4.073,20.165,3.285,21.679z M11.499,20c0,0.13-0.05,0.26-0.15,0.35c-0.09,0.1-0.22,0.15-0.35,0.15
			s-0.26-0.05-0.351-0.15C10.55,20.26,10.5,20.13,10.5,20s0.05-0.26,0.149-0.35c0.181-0.19,0.511-0.19,0.7-0.01
			C11.45,19.74,11.499,19.87,11.499,20z M8.028,19.834c0.092-0.26,0.377-0.398,0.638-0.306c0.261,0.092,0.397,0.377,0.306,0.638
			c-0.388,1.103,2.348,2.752,3.734,3.378c0.251,0.113,0.363,0.41,0.25,0.661C12.872,24.391,12.69,24.5,12.5,24.5
			c-0.069,0-0.139-0.014-0.205-0.044C11.774,24.221,7.232,22.098,8.028,19.834z M15,28.501c-0.888-0.001-1.754-0.093-2.595-0.257
			c1.447-1.745,5.183-6.481,4.716-8.326c-0.097-0.38-0.34-0.655-0.704-0.796c-0.073-0.028-0.118-0.053-0.183-0.08
			c0.464-0.244,0.881-0.528,1.25-0.85l6.687,6.687C21.76,27.119,18.542,28.501,15,28.501z M24.878,24.171L5.853,5.146
			c-0.009-0.009-0.021-0.012-0.03-0.02c2.411-2.243,5.631-3.627,9.176-3.627C22.444,1.5,28.5,7.556,28.5,15
			C28.5,18.542,27.118,21.76,24.878,24.171z M16.66,10.528c-1.383-0.472-2.399-1.342-3.196-2.729l-0.98-3.918
			c-0.054-0.215-0.242-0.369-0.463-0.378c-0.241-0.016-0.423,0.127-0.495,0.336c-0.361,1.043,0.37,3.23,1.037,4.409
			c0.001-0.002,0.001-0.002,0.001-0.001c0.917,1.619,2.151,2.674,3.774,3.227c1.404,0.478,2.263,1.088,2.554,1.813
			c0.221,0.55,0.13,1.199-0.278,1.983c-0.128,0.245-0.032,0.547,0.213,0.674c0.073,0.039,0.152,0.057,0.23,0.057
			c0.18,0,0.354-0.098,0.443-0.269c0.543-1.044,0.651-1.992,0.32-2.817C19.41,11.893,18.376,11.112,16.66,10.528z"/>
	</g>
</g>
</svg>
