<?xml version="1.0" encoding="iso-8859-1"?>
<!-- Generator: Adobe Illustrator 19.0.0, SVG Export Plug-In . SVG Version: 6.00 Build 0)  -->
<svg version="1.1" id="Layer_1" xmlns="http://www.w3.org/2000/svg" xmlns:xlink="http://www.w3.org/1999/xlink" x="0px" y="0px"
	 viewBox="0 0 30 30" style="enable-background:new 0 0 30 30;" xml:space="preserve">
<g>
	<g>
		<path d="M15,0.5C7.005,0.5,0.5,7.005,0.5,15S7.005,29.5,15,29.5S29.5,22.995,29.5,15S22.995,0.5,15,0.5z M15,28.5
			C7.556,28.5,1.5,22.444,1.5,15c0-3.545,1.384-6.765,3.627-9.176c0.008,0.009,0.011,0.021,0.02,0.03l5.914,5.914
			C7.789,12.651,5.5,15.751,5.5,19.5V21c0,0.276,0.224,0.5,0.5,0.5h14.793l3.354,3.354c0.009,0.009,0.021,0.012,0.03,0.02
			C21.765,27.116,18.545,28.5,15,28.5z M24.873,24.176c-0.008-0.009-0.011-0.021-0.02-0.03l-3.5-3.5l-8.933-8.933L5.853,5.146
			c-0.009-0.009-0.021-0.012-0.03-0.02C8.235,2.884,11.455,1.5,15,1.5c7.444,0,13.5,6.056,13.5,13.5
			C28.5,18.545,27.116,21.765,24.873,24.176z M21,5.5H11c-0.276,0-0.5,0.224-0.5,0.5s0.224,0.5,0.5,0.5h9.537l0.385,5h-6.094
			c-0.202,0-0.385,0.122-0.462,0.309c-0.078,0.187-0.035,0.402,0.108,0.545l6.943,6.943c0.096,0.096,0.224,0.146,0.354,0.146
			c0.002,0,0.005-0.002,0.007-0.002C21.846,19.476,21.919,19.5,22,19.5c0.013,0,0.026,0,0.039-0.001
			c0.275-0.021,0.481-0.262,0.46-0.537l-1-13C21.479,5.701,21.261,5.5,21,5.5z"/>
	</g>
</g>
</svg>
