<?xml version="1.0" encoding="iso-8859-1"?>
<!-- Generator: Adobe Illustrator 19.0.0, SVG Export Plug-In . SVG Version: 6.00 Build 0)  -->
<svg version="1.1" id="Layer_1" xmlns="http://www.w3.org/2000/svg" xmlns:xlink="http://www.w3.org/1999/xlink" x="0px" y="0px"
	 viewBox="0 0 30 30" style="enable-background:new 0 0 30 30;" xml:space="preserve">
<g>
	<g>
		<path d="M12,19.5c-0.276,0-0.5,0.224-0.5,0.5v2c0,0.276,0.224,0.5,0.5,0.5s0.5-0.224,0.5-0.5v-2C12.5,19.724,12.276,19.5,12,19.5z
			 M10.121,22.515c-0.273-0.067-0.54,0.095-0.606,0.364l-0.5,2c-0.066,0.268,0.096,0.539,0.364,0.606
			C9.42,25.495,9.46,25.5,9.5,25.5c0.225,0,0.429-0.151,0.485-0.379l0.5-2C10.552,22.854,10.39,22.582,10.121,22.515z M14,23.5
			c-0.276,0-0.5,0.224-0.5,0.5v2c0,0.276,0.224,0.5,0.5,0.5s0.5-0.224,0.5-0.5v-2C14.5,23.724,14.276,23.5,14,23.5z M9.224,19.553
			c-0.246-0.122-0.547-0.023-0.671,0.224l-1,2c-0.123,0.247-0.023,0.547,0.224,0.671C7.849,22.483,7.925,22.5,8,22.5
			c0.183,0,0.359-0.101,0.447-0.276l1-2C9.57,19.977,9.471,19.676,9.224,19.553z M18.485,22.879
			c-0.067-0.269-0.344-0.432-0.606-0.364c-0.269,0.067-0.431,0.338-0.364,0.606l0.5,2c0.056,0.228,0.26,0.379,0.485,0.379
			c0.04,0,0.081-0.005,0.121-0.015c0.269-0.067,0.431-0.338,0.364-0.606L18.485,22.879z M16,19.5c-0.276,0-0.5,0.224-0.5,0.5v2
			c0,0.276,0.224,0.5,0.5,0.5s0.5-0.224,0.5-0.5v-2C16.5,19.724,16.276,19.5,16,19.5z M15,0.5C7.005,0.5,0.5,7.005,0.5,15
			S7.005,29.5,15,29.5S29.5,22.995,29.5,15S22.995,0.5,15,0.5z M15,28.5C7.556,28.5,1.5,22.444,1.5,15
			c0-3.545,1.384-6.765,3.627-9.176c0.008,0.009,0.011,0.021,0.02,0.03l4.151,4.151C6.976,11.33,5.5,13.799,5.5,16.5v2
			C5.5,18.776,5.724,19,6,19h12.293l0.538,0.538c-0.018,0.007-0.037,0.006-0.055,0.015c-0.247,0.124-0.347,0.424-0.224,0.671l1,2
			C19.641,22.399,19.817,22.5,20,22.5c0.075,0,0.151-0.017,0.224-0.053c0.247-0.124,0.347-0.424,0.224-0.671l-0.622-1.244
			l4.321,4.321c0.009,0.009,0.021,0.012,0.03,0.02C21.765,27.116,18.545,28.5,15,28.5z M24.873,24.176
			c-0.008-0.009-0.011-0.021-0.02-0.03l-19-19c-0.009-0.009-0.021-0.012-0.03-0.02C8.235,2.884,11.455,1.5,15,1.5
			c7.444,0,13.5,6.056,13.5,13.5C28.5,18.545,27.116,21.765,24.873,24.176z M21,4.5H11c-0.276,0-0.5,0.224-0.5,0.5
			s0.224,0.5,0.5,0.5h9.536L20.795,9H13c-0.231,0-0.459,0.014-0.685,0.034c-0.193,0.018-0.359,0.145-0.425,0.328
			c-0.066,0.183-0.021,0.387,0.116,0.524l8.968,8.968C21.068,18.948,21.195,19,21.328,19H22c0.012,0,0.025,0,0.037-0.001
			c0.034-0.003,0.064-0.018,0.096-0.027c0.028-0.008,0.056-0.011,0.082-0.023c0.047-0.022,0.085-0.055,0.122-0.089
			c0.011-0.01,0.025-0.015,0.035-0.026c0.001-0.001,0.001-0.003,0.002-0.004c0.044-0.05,0.079-0.109,0.1-0.174
			c0.006-0.019,0.004-0.039,0.007-0.059c0.01-0.044,0.021-0.087,0.018-0.134l-1-13.5C21.479,4.702,21.262,4.5,21,4.5z"/>
	</g>
</g>
</svg>
