<?xml version="1.0" encoding="iso-8859-1"?>
<!-- Generator: Adobe Illustrator 19.0.0, SVG Export Plug-In . SVG Version: 6.00 Build 0)  -->
<svg version="1.1" id="Layer_1" xmlns="http://www.w3.org/2000/svg" xmlns:xlink="http://www.w3.org/1999/xlink" x="0px" y="0px"
	 viewBox="0 0 24 24" style="enable-background:new 0 0 24 24;" xml:space="preserve">
<g>
	<g>
		<path d="M17.918,11.52c-0.601-0.75-1.168-1.459-1.45-2.198c-0.188-0.493-0.321-1.021-0.45-1.532
			c-0.313-1.244-0.659-2.601-1.887-3.305c1.345-0.673,2.37-2.004,2.37-3.985c0-0.276-0.224-0.5-0.5-0.5
			c-1.559,0-3.114,0.768-3.923,2.225c-0.434-1.021-1.137-1.749-1.822-2.155c-0.238-0.141-0.544-0.062-0.685,0.175
			C9.43,0.483,9.508,0.789,9.746,0.93c0.761,0.451,1.617,1.518,1.734,3.092C8.878,4.241,8.404,6.119,7.983,7.79
			c-0.128,0.511-0.262,1.039-0.45,1.532c-0.282,0.738-0.849,1.447-1.45,2.198C4.886,13.016,3.529,14.712,3.5,17.5
			c0,3.584,2.916,6.5,6.5,6.5c0.673,0,1.345-0.108,2-0.321C12.655,23.892,13.327,24,14,24c3.584,0,6.5-2.916,6.5-6.505
			C20.472,14.711,19.115,13.016,17.918,11.52z M10.001,22c-2.481,0-4.5-2.019-4.5-4.5c0-0.276,0.224-0.5,0.5-0.5s0.5,0.224,0.5,0.5
			c0,1.93,1.57,3.5,3.5,3.5c0.276,0,0.5,0.224,0.5,0.5S10.277,22,10.001,22z"/>
	</g>
</g>
</svg>
