<?xml version="1.0" encoding="utf-8"?>
<!-- Generator: Adobe Illustrator 19.0.0, SVG Export Plug-In . SVG Version: 6.00 Build 0)  -->
<svg version="1.1" id="Layer_1" xmlns="http://www.w3.org/2000/svg" xmlns:xlink="http://www.w3.org/1999/xlink" x="0px" y="0px"
	 viewBox="0 0 30 30" style="enable-background:new 0 0 30 30;" xml:space="preserve">
<g>
	<g>
		<path d="M5.5,30c-0.1,0-0.2,0-0.3-0.1C5,29.7,5,29.4,5.2,29.2c3.1-3.7,1.7-6.6,0-8.3c-0.2-0.2-0.2-0.5,0-0.7s0.5-0.2,0.7,0
			c2.8,2.8,2.9,6.4,0.1,9.7C5.8,29.9,5.7,30,5.5,30z"/>
	</g>
	<g>
		<path d="M23.5,26C23.5,26,23.5,26,23.5,26c-0.2,0-0.4-0.1-0.5-0.3l-5-12c-0.1-0.2,0-0.4,0.1-0.6c0.2-0.1,0.4-0.2,0.6-0.1l11,6
			c0.2,0.1,0.3,0.3,0.3,0.4c0,0.2-0.1,0.4-0.3,0.4l-3.9,1.9l-1.9,3.9C23.9,25.9,23.7,26,23.5,26z M19.5,14.6l4,9.7l1.5-3
			c0-0.1,0.1-0.2,0.2-0.2l3.1-1.6L19.5,14.6z"/>
	</g>
	<g>
		<path d="M15,20c-2.6,0-5.3-0.5-7.8-1.5c-0.1-0.1-0.3-0.2-0.3-0.3c-0.2-0.8-1.1-1.4-2-1c-0.1,0.1-0.3,0-0.5,0C1.6,15.2,0,12.7,0,10
			C0,4.5,6.7,0,15,0s15,4.5,15,10c0,2.9-1.7,5.6-4.7,7.4c-0.2,0.1-0.3,0.1-0.5,0l-5.3-2.8l1.5,3.7c0.1,0.1,0,0.3,0,0.4
			c-0.1,0.1-0.2,0.2-0.3,0.3l-0.5,0.1C18.6,19.5,16.8,20,15,20z M7.8,17.6c2.3,0.9,4.8,1.4,7.2,1.4c1.6,0,3.3-0.4,4.8-0.8L18,13.7
			c-0.1-0.2,0-0.4,0.1-0.6c0.2-0.1,0.4-0.2,0.6-0.1l6.2,3.4c2.6-1.6,4-4,4-6.4c0-5-6.3-9-14-9S1,5,1,10c0,2.3,1.4,4.4,3.9,6.1
			C6.1,15.7,7.4,16.5,7.8,17.6z"/>
	</g>
	<g>
		<path d="M5.5,21C4.1,21,3,19.9,3,18.5S4.1,16,5.5,16S8,17.1,8,18.5S6.9,21,5.5,21z M5.5,17C4.7,17,4,17.7,4,18.5S4.7,20,5.5,20
			S7,19.3,7,18.5S6.3,17,5.5,17z"/>
	</g>
</g>
</svg>
