<?xml version="1.0" encoding="iso-8859-1"?>
<!-- Generator: Adobe Illustrator 19.0.0, SVG Export Plug-In . SVG Version: 6.00 Build 0)  -->
<svg version="1.1" id="Layer_1" xmlns="http://www.w3.org/2000/svg" xmlns:xlink="http://www.w3.org/1999/xlink" x="0px" y="0px"
	 viewBox="0 0 24 24" style="enable-background:new 0 0 24 24;" xml:space="preserve">
<g>
	<g>
		<path d="M9.523,19.5c0.194-0.008,0.368-0.131,0.441-0.314l0.619-1.547c-0.886,0.189-1.418,0.545-1.878,0.89l0.347,0.695
			C9.138,19.394,9.309,19.5,9.5,19.5V20L9.523,19.5z M1.858,17.517c0.425,1.192,1.09,2.504,1.197,2.712
			C3.141,20.396,3.313,20.5,3.5,20.5c0.013,0,0.025,0,0.038-0.001c0.201-0.015,0.373-0.149,0.436-0.34l0.49-1.471
			c-0.068-0.052-0.14-0.103-0.207-0.153C3.618,18.051,3.006,17.597,1.858,17.517z M17.5,19.5c-0.551,0-0.988-0.175-1.373-0.4
			l-0.285,0.571c-0.256,0.511-0.77,0.829-1.342,0.829c-0.006,0-0.053-0.001-0.06-0.001c-0.591-0.024-1.114-0.394-1.333-0.941
			l-0.819-2.046C12.191,17.508,12.104,17.5,12,17.5s-0.191,0.008-0.289,0.011l-0.818,2.046c-0.22,0.548-0.742,0.917-1.331,0.941
			c-0.007,0-0.055,0.001-0.062,0.001c-0.572,0-1.086-0.318-1.342-0.829L7.873,19.1c-0.385,0.224-0.822,0.4-1.373,0.4
			c-0.443,0-0.82-0.115-1.161-0.274l-0.276,0.829C6.446,20.715,8.19,21.5,9.5,21.5c1.099,0,1.546-0.407,1.872-0.705
			C11.595,20.593,11.696,20.5,12,20.5s0.405,0.093,0.628,0.295c0.326,0.297,0.773,0.705,1.872,0.705c1.31,0,3.054-0.785,4.437-1.445
			l-0.276-0.829C18.32,19.386,17.943,19.5,17.5,19.5z M14.479,19.5L14.5,20v-0.5c0.191,0,0.362-0.106,0.447-0.276l0.347-0.695
			c-0.46-0.346-0.992-0.701-1.878-0.89l0.619,1.547C14.108,19.368,14.283,19.491,14.479,19.5z M20.92,9.548
			c-0.113-0.121-0.231-0.25-0.347-0.376c-0.366,0.492-0.763,0.951-1.155,1.315c-0.096,0.089-0.218,0.133-0.339,0.133
			c-0.134,0-0.269-0.054-0.367-0.16c-0.188-0.203-0.175-0.519,0.027-0.707c1.076-0.995,1.967-2.49,2.198-3.37
			C20.97,6.247,21,6.113,21,6c0-0.6-0.7-1.416-1.582-2.11C18.413,3.114,17.178,2.5,16.5,2.5c-0.12,0-0.246,0.018-0.375,0.047
			c-0.029,0.006-0.059,0.016-0.088,0.024c-0.104,0.028-0.209,0.062-0.317,0.105c-0.035,0.014-0.07,0.029-0.105,0.045
			c-0.096,0.042-0.193,0.091-0.29,0.144c-0.057,0.031-0.114,0.061-0.172,0.096c-0.714,0.422-1.446,1.072-2.022,1.701
			c-0.187,0.203-0.503,0.216-0.707,0.031c-0.204-0.187-0.217-0.503-0.031-0.707c0.313-0.341,0.857-0.885,1.507-1.38l-0.242-0.081
			c-0.103-0.034-0.214-0.034-0.316,0L12,2.973l-1.342-0.447c-0.103-0.034-0.214-0.034-0.316,0L10.1,2.607
			c0.65,0.494,1.194,1.039,1.507,1.38c0.187,0.204,0.173,0.52-0.031,0.707c-0.204,0.186-0.52,0.172-0.707-0.031
			c-0.578-0.631-1.313-1.284-2.03-1.706c-0.053-0.032-0.105-0.06-0.157-0.088C8.581,2.814,8.48,2.763,8.38,2.719
			C8.347,2.705,8.314,2.69,8.281,2.677c-0.109-0.044-0.215-0.078-0.32-0.106C7.933,2.563,7.903,2.553,7.875,2.547
			C7.746,2.518,7.62,2.5,7.5,2.5c-0.678,0-1.913,0.614-2.918,1.39C3.7,4.584,3,5.4,3,6c0,0.115,0.03,0.251,0.063,0.389
			C3.09,6.492,3.125,6.603,3.169,6.721c0.009,0.024,0.018,0.048,0.027,0.072C3.311,7.082,3.47,7.405,3.668,7.741
			c0.112,0.187,0.231,0.375,0.36,0.56c0,0.001,0,0.003-0.001,0.004C4.394,8.84,4.836,9.369,5.312,9.8
			c0.205,0.185,0.221,0.501,0.035,0.706c-0.099,0.109-0.234,0.165-0.371,0.165c-0.12,0-0.24-0.042-0.335-0.129
			C4.233,10.172,3.813,9.69,3.427,9.17C3.311,9.297,3.193,9.427,3.08,9.548C1.853,10.871,0,12.869,0,15c0,0.737,0.561,1.5,1.5,1.5
			c0.022,0,0.04,0.003,0.062,0.003c0.425,0.004,0.796,0.05,1.127,0.123c0.322,0.072,0.609,0.17,0.865,0.285
			c0.003,0.002,0.007,0.003,0.01,0.005c0.126,0.057,0.245,0.118,0.358,0.182c0.027,0.015,0.052,0.032,0.079,0.047
			c0.085,0.05,0.169,0.1,0.248,0.152c0.053,0.035,0.103,0.07,0.154,0.106c0.047,0.033,0.095,0.065,0.14,0.098
			c0.086,0.063,0.171,0.126,0.254,0.189l0,0c0.021,0.016,0.043,0.032,0.063,0.047C5.378,18.129,5.867,18.5,6.5,18.5
			c0.584,0,1.023-0.332,1.488-0.683C8.723,17.261,9.729,16.5,12,16.5s3.277,0.761,4.012,1.317c0.465,0.351,0.904,0.683,1.488,0.683
			c0.633,0,1.122-0.371,1.64-0.763c0.02-0.015,0.042-0.032,0.063-0.047l0,0c0.084-0.064,0.171-0.128,0.26-0.193
			c0.035-0.026,0.073-0.051,0.11-0.077c0.06-0.042,0.121-0.085,0.184-0.126c0.068-0.045,0.142-0.088,0.215-0.132
			c0.037-0.022,0.073-0.045,0.111-0.066c0.103-0.057,0.211-0.112,0.324-0.165c0.015-0.007,0.028-0.015,0.043-0.021
			c0.129-0.058,0.265-0.112,0.41-0.16c0.004-0.001,0.007-0.003,0.011-0.004c0.13-0.043,0.271-0.08,0.415-0.113
			c0.338-0.077,0.716-0.125,1.152-0.13c0.022,0,0.04-0.003,0.062-0.003c0.939,0,1.5-0.763,1.5-1.5
			C24,12.869,22.147,10.871,20.92,9.548z M15.5,5.5C16.327,5.5,17,6.173,17,7s-0.673,1.5-1.5,1.5S14,7.827,14,7S14.673,5.5,15.5,5.5
			z M8.5,5.5C9.327,5.5,10,6.173,10,7S9.327,8.5,8.5,8.5S7,7.827,7,7S7.673,5.5,8.5,5.5z M10.447,13.245
			c-0.088,0.175-0.264,0.276-0.448,0.276c-0.075,0-0.151-0.017-0.223-0.053l-1.678-0.839l-0.745,0.745
			c-0.195,0.195-0.512,0.195-0.707,0s-0.195-0.512,0-0.707l1-1c0.153-0.153,0.384-0.191,0.577-0.094l2,1
			C10.471,12.697,10.571,12.998,10.447,13.245z M17.354,13.375c-0.195,0.195-0.512,0.195-0.707,0l-0.745-0.745l-1.678,0.839
			c-0.072,0.036-0.148,0.053-0.223,0.053c-0.184,0-0.36-0.101-0.448-0.276c-0.124-0.247-0.023-0.547,0.224-0.671l2-1
			c0.192-0.096,0.425-0.059,0.577,0.094l1,1C17.549,12.863,17.549,13.179,17.354,13.375z M19.829,13.397
			c-0.095,0.083-0.212,0.124-0.329,0.124c-0.139,0-0.277-0.058-0.376-0.171c-1.302-1.488-2.736-2.784-3.131-2.83
			c-0.391,0-1.286,0.583-1.939,1.009c-0.944,0.615-1.549,0.992-2.054,0.992s-1.109-0.377-2.054-0.992
			C9.293,11.104,8.398,10.521,8,10.521c-0.388,0.045-1.821,1.341-3.124,2.829c-0.184,0.208-0.499,0.229-0.706,0.047
			c-0.208-0.182-0.229-0.498-0.047-0.706C4.958,11.738,7.005,9.521,8,9.521c0.695,0,1.568,0.568,2.492,1.17
			c0.507,0.33,1.273,0.829,1.508,0.83c0.235-0.001,1.001-0.5,1.508-0.83c0.924-0.602,1.797-1.17,2.492-1.17
			c0.995,0,3.042,2.217,3.876,3.171C20.058,12.899,20.037,13.215,19.829,13.397z M8.5,7.5C8.776,7.5,9,7.276,9,7S8.776,6.5,8.5,6.5
			S8,6.724,8,7S8.224,7.5,8.5,7.5z M20.896,17.805c-0.031,0.013-0.054,0.032-0.084,0.046c-0.126,0.059-0.242,0.127-0.356,0.196
			c-0.069,0.042-0.145,0.079-0.211,0.124c-0.171,0.115-0.335,0.237-0.5,0.362c-0.023,0.017-0.048,0.035-0.072,0.053
			c-0.047,0.034-0.093,0.068-0.139,0.102l0.312,0.933h0.001l0.179,0.537c0.063,0.191,0.235,0.325,0.436,0.34
			C20.475,20.5,20.487,20.5,20.5,20.5c0.187,0,0.359-0.104,0.445-0.271c0.107-0.208,0.772-1.52,1.197-2.712
			c-0.51,0.035-0.904,0.152-1.251,0.305L20.896,17.805z M15.5,7.5C15.776,7.5,16,7.276,16,7s-0.224-0.5-0.5-0.5S15,6.724,15,7
			S15.224,7.5,15.5,7.5z"/>
	</g>
</g>
</svg>
