<?xml version="1.0" encoding="iso-8859-1"?>
<!-- Generator: Adobe Illustrator 19.0.0, SVG Export Plug-In . SVG Version: 6.00 Build 0)  -->
<svg version="1.1" id="Layer_1" xmlns="http://www.w3.org/2000/svg" xmlns:xlink="http://www.w3.org/1999/xlink" x="0px" y="0px"
	 viewBox="0 0 24 24" style="enable-background:new 0 0 24 24;" xml:space="preserve">
<g>
	<g>
		<path d="M20.823,7.138c-0.118-0.124-0.245-0.258-0.373-0.395c1.247-1.386,1.804-4.697,0.903-5.597
			c-0.93-0.93-3.308,0.271-4.066,0.876C15.992,0.98,13.955,0,12,0S8.007,0.98,6.713,2.022c-0.76-0.605-3.138-1.806-4.067-0.876
			c-0.9,0.9-0.344,4.211,0.903,5.597C3.422,6.88,3.294,7.014,3.177,7.138C1.984,8.392,0.5,9.952,0.5,11.5
			c0,2.448,2.524,5.222,2.632,5.338C3.279,17,3.513,17.04,3.713,16.944c0.13-0.062,0.224-0.178,0.264-0.312
			c0.536,1.265,1.362,2.723,1.59,3.117c0.118,0.203,0.358,0.296,0.584,0.228c0.224-0.07,0.368-0.287,0.348-0.521
			c-0.014-0.157-0.015-0.41,0.014-0.672c0.271,0.425,0.616,0.822,0.969,1.178c-0.115-0.283-0.234-0.573-0.364-0.882
			c-1.467-3.49,0.317-4.965,1.175-5.673c0.067-0.056,0.155-0.126,0.226-0.188c-0.007-0.402-0.032-0.878-0.09-1.289
			C8.291,11.971,8.149,12,8,12c-0.827,0-1.5-0.673-1.5-1.5S7.172,9,8,9c0.827,0,1.5,0.673,1.5,1.5c0,0.134-0.02,0.262-0.054,0.385
			c-0.011,0.041-0.033,0.077-0.048,0.117c-0.031,0.082-0.059,0.165-0.102,0.24c0.13,0.522,0.203,1.238,0.204,2.248
			c-0.009,0.055-0.015,0.112-0.041,0.161c-0.026,0.048-0.063,0.098-0.11,0.151c-0.001,0.002-0.003,0.003-0.005,0.005
			c-0.098,0.108-0.239,0.227-0.415,0.372c-0.823,0.681-2.068,1.711-0.89,4.516c0.26,0.619,0.48,1.169,0.677,1.658
			C9.719,22.856,10.177,24,12,24c1.681,0,2.205-0.988,3.064-3.104c0.071-0.172,0.144-0.352,0.22-0.544
			c0.196-0.488,0.417-1.039,0.677-1.658c0.147-0.351,0.257-0.674,0.334-0.971c0.116-0.447,0.159-0.838,0.148-1.182
			c-0.04-1.262-0.805-1.895-1.372-2.363c-0.262-0.217-0.448-0.377-0.527-0.525c-0.018-0.05-0.044-0.097-0.044-0.153
			c0-1.016,0.074-1.735,0.204-2.259c-0.036-0.063-0.058-0.134-0.086-0.202c-0.017-0.043-0.04-0.082-0.053-0.127
			c-0.004-0.014-0.009-0.026-0.013-0.04C14.519,10.753,14.5,10.629,14.5,10.5C14.5,9.673,15.172,9,16,9c0.827,0,1.5,0.673,1.5,1.5
			S16.826,12,16,12c-0.144,0-0.28-0.027-0.412-0.065c-0.058,0.431-0.08,0.927-0.086,1.306c0.059,0.045,0.127,0.101,0.207,0.167
			c0.856,0.708,2.641,2.183,1.174,5.673c-0.131,0.312-0.251,0.604-0.364,0.882c0.353-0.357,0.699-0.754,0.97-1.18
			c0.027,0.26,0.026,0.512,0.013,0.674c-0.02,0.233,0.125,0.449,0.349,0.519s0.465-0.024,0.583-0.227
			c0.227-0.394,1.05-1.846,1.587-3.109c0.037,0.129,0.127,0.241,0.253,0.306c0.2,0.102,0.441,0.057,0.595-0.107
			c0.107-0.117,2.632-2.89,2.632-5.338C23.5,9.952,22.016,8.392,20.823,7.138z M4.596,4.49C4.563,4.497,4.531,4.5,4.5,4.5
			c-0.234,0-0.443-0.165-0.49-0.403C3.901,3.556,3.635,3.033,3.497,3C3.222,3,2.998,2.776,2.998,2.5S3.224,2,3.5,2
			c1.065,0,1.429,1.586,1.49,1.904C5.044,4.175,4.867,4.437,4.596,4.49z M13.224,20.553c0.247,0.124,0.347,0.424,0.224,0.671
			C13.359,21.399,13.182,21.5,13,21.5c-0.075,0-0.151-0.017-0.224-0.053L12,21.059l-0.776,0.388C11.151,21.483,11.075,21.5,11,21.5
			c-0.183,0-0.359-0.101-0.447-0.276c-0.123-0.247-0.023-0.547,0.224-0.671l0.724-0.362V18.68c-0.989-1.174-1-1.555-1-1.68
			c0-0.664,0.505-1,1.5-1s1.5,0.336,1.5,1c0,0.125-0.011,0.506-1,1.68v1.511L13.224,20.553z M15.364,5.343
			C15.266,5.447,15.133,5.5,15,5.5c-0.121,0-0.242-0.044-0.339-0.132C14.638,5.347,14.232,5,13.5,5c-0.74,0-1.146,0.354-1.162,0.369
			c-0.193,0.172-0.492,0.173-0.681-0.004C11.646,5.354,11.24,5,10.5,5S9.354,5.354,9.338,5.369c-0.203,0.182-0.52,0.169-0.704-0.033
			c-0.185-0.202-0.176-0.512,0.023-0.7C8.727,4.571,9.365,4,10.5,4c0.687,0,1.193,0.209,1.5,0.389C12.307,4.209,12.812,4,13.5,4
			c1.135,0,1.773,0.571,1.843,0.636C15.544,4.825,15.554,5.142,15.364,5.343z M19.99,4.096C19.943,4.334,19.734,4.5,19.5,4.5
			c-0.031,0-0.063-0.003-0.096-0.009c-0.271-0.053-0.448-0.315-0.396-0.586C19.07,3.586,19.433,2,20.5,2
			c0.275,0,0.497,0.223,0.498,0.498c0,0.275-0.224,0.5-0.498,0.502C20.364,3.035,20.097,3.557,19.99,4.096z M7.5,10.5
			C7.5,10.776,7.723,11,8,11c0.276,0,0.5-0.224,0.5-0.5S8.276,10,8,10C7.723,10,7.5,10.224,7.5,10.5z M16,11
			c0.276,0,0.5-0.224,0.5-0.5S16.276,10,16,10s-0.5,0.224-0.5,0.5S15.723,11,16,11z"/>
	</g>
</g>
</svg>
