<?xml version="1.0" encoding="iso-8859-1"?>
<!-- Generator: Adobe Illustrator 19.0.0, SVG Export Plug-In . SVG Version: 6.00 Build 0)  -->
<svg version="1.1" id="Layer_1" xmlns="http://www.w3.org/2000/svg" xmlns:xlink="http://www.w3.org/1999/xlink" x="0px" y="0px"
	 viewBox="0 0 24 24" style="enable-background:new 0 0 24 24;" xml:space="preserve">
<g>
	<g>
		<path d="M19.5,2c-0.437,0-0.856,0.164-1.249,0.487c-0.117,0.096-0.184,0.241-0.182,0.392s0.073,0.294,0.192,0.387
			c2.216,1.734,3.815,4.129,4.751,7.118c0.066,0.211,0.261,0.351,0.477,0.351c0.023,0,0.046-0.001,0.07-0.005
			c0.242-0.034,0.424-0.238,0.431-0.482C23.996,10.001,24,9.752,24,9.5C24,4.647,21.027,2,19.5,2z M8.5,5C8.224,5,8,5.224,8,5.5
			S8.224,6,8.5,6S9,5.776,9,5.5S8.776,5,8.5,5z M7.211,17.404c0.016,0.011,0.034,0.014,0.05,0.023
			C7.305,17.452,7.348,17.48,7.4,17.49c0.021,0.004,0.041-0.003,0.062-0.002C7.476,17.49,7.486,17.5,7.5,17.5
			c0.026,0,0.052-0.01,0.078-0.014c0.023-0.004,0.045-0.006,0.067-0.012c0.011-0.003,0.022-0.002,0.033-0.006
			c0.034-0.013,0.059-0.037,0.089-0.056c0.018-0.012,0.04-0.015,0.056-0.029c0.004-0.003,0.093-0.077,0.22-0.181
			C8.016,17.139,8,17.072,8,17c0-2.424,2.628-5,7.5-5c3.5,0,6.091,1.855,7.443,3.772C22.208,3.733,13.842,1.823,11.918,1.545
			C11.673,0.816,10.907,0,10,0C9.235,0,8.575,0.638,8.27,0.99C8.079,0.983,7.792,0.976,7.447,0.976C3.833,0.976,2,1.657,2,3
			c0,0.162,0.022,0.34,0.057,0.526c0.007,0.039,0.018,0.079,0.026,0.119c0.036,0.163,0.082,0.333,0.142,0.509
			C2.234,4.182,2.243,4.21,2.253,4.238C2.405,4.66,2.62,5.111,2.89,5.571c1.155,1.953,3.288,3.998,5.517,4.42
			c0.271,0.051,0.449,0.313,0.398,0.584c-0.045,0.24-0.255,0.407-0.491,0.407c-0.031,0-0.062-0.003-0.094-0.009
			C5.715,10.499,3.465,8.411,2.165,6.3C2.069,6.498,2,6.722,2,7c0,1.283,2.616,4.25,4.837,5.274c-0.242,0.33-0.459,0.745-0.614,1.24
			c-0.559-0.748-1.219-1.357-1.937-1.487c-0.296-0.42-1.002-1.283-1.91-1.482C2.209,10.225,1.885,10,1.5,10c-0.552,0-1,0.448-1,1
			s0.448,1,1,1c0.337,0,0.621-0.178,0.802-0.434c0.291,0.111,0.576,0.352,0.808,0.602L1.8,12.43C1.619,12.176,1.336,12,1,12
			c-0.552,0-1,0.448-1,1s0.448,1,1,1c0.396,0,0.731-0.235,0.893-0.569l0.55-0.11c-0.175,0.245-0.313,0.515-0.386,0.794
			C1.73,14.28,1.5,14.609,1.5,15c0,0.552,0.448,1,1,1s1-0.448,1-1c0-0.332-0.172-0.611-0.421-0.793
			c0.179-0.401,0.65-0.873,1.059-1.187C4.722,13.142,5.41,14,6.006,15.027c0.004,0.068,0.016,0.135,0.047,0.197l1,2
			C7.09,17.298,7.146,17.357,7.211,17.404z M8.5,7C7.673,7,7,6.327,7,5.5S7.673,4,8.5,4S10,4.673,10,5.5S9.327,7,8.5,7z M15.5,13
			C11.278,13,9,15.061,9,17c0,0.695,0.469,1.299,1.09,1.807c-0.41-0.135-0.822-0.23-1.219-0.271C8.702,18.221,8.382,18,8,18
			c-0.552,0-1,0.448-1,1s0.448,1,1,1c0.351,0,0.646-0.192,0.824-0.466c0.518,0.061,1.09,0.244,1.625,0.471
			c-0.857,0.057-1.711,0.211-2.169,0.552C8.19,20.53,8.099,20.5,8,20.5c-0.552,0-1,0.448-1,1s0.448,1,1,1s1-0.448,1-1
			c0-0.074-0.027-0.139-0.042-0.208c0.361-0.202,1.374-0.31,2.452-0.317c-0.449,0.34-0.847,0.699-1.172,1.074
			C10.16,22.028,10.084,22,10,22c-0.552,0-1,0.448-1,1s0.448,1,1,1s1-0.448,1-1c0-0.09-0.029-0.17-0.051-0.252
			C12.761,20.593,17.45,19,18.5,19c0.351,0,0.907,0.16,1.445,0.314c1.044,0.3,2.032,0.583,2.635,0.127
			C22.771,19.297,23,19.017,23,18.5C23,16.611,20.079,13,15.5,13z"/>
	</g>
</g>
</svg>
