<?xml version="1.0" encoding="iso-8859-1"?>
<!-- Generator: Adobe Illustrator 19.2.1, SVG Export Plug-In . SVG Version: 6.00 Build 0)  -->
<svg version="1.1" id="Layer_1" xmlns="http://www.w3.org/2000/svg" xmlns:xlink="http://www.w3.org/1999/xlink" x="0px" y="0px"
	 viewBox="0 0 30 30" style="enable-background:new 0 0 30 30;" xml:space="preserve">
<g>
	<g>
		<path d="M1.5,27C0.673,27,0,27.673,0,28.5C0,29.327,0.673,30,1.5,30C2.327,30,3,29.327,3,28.5C3,27.673,2.327,27,1.5,27z M1.5,29
			C1.225,29,1,28.776,1,28.5S1.225,28,1.5,28C1.775,28,2,28.224,2,28.5S1.775,29,1.5,29z M20,0c-2.669,0-5.155,1.032-7.043,2.915
			C11.732,2.315,10.372,2,9,2c-4.963,0-9,4.038-9,9c0,4.962,4.037,9,9,9c0.146,0,0.289-0.005,0.432-0.013
			C10.221,21.804,12.011,23,14,23c2.039,0,3.839-1.23,4.604-3.103C19.082,19.966,19.542,20,20,20c5.514,0,10-4.486,10-10
			C30,4.486,25.514,0,20,0z M20.001,19.001c-0.53,0-1.064-0.051-1.634-0.156c-0.26-0.051-0.492,0.101-0.568,0.342
			C17.272,20.869,15.746,22,14.001,22c-1.693,0-3.205-1.086-3.764-2.702c-0.071-0.203-0.261-0.337-0.473-0.337
			c-0.015,0-0.03,0.001-0.044,0.002C9.482,18.984,9.243,19,9,19c-4.411,0-8-3.589-8-8s3.589-8,8-8c1.334,0,2.654,0.335,3.82,0.97
			c0.199,0.109,0.449,0.071,0.604-0.098c1.726-1.851,4.062-2.871,6.577-2.871c4.963,0,9,4.038,9,9
			C29.001,14.963,24.964,19.001,20.001,19.001z M15.853,5.146c-0.195-0.195-0.512-0.195-0.707,0l-5,5
			c-0.142,0.143-0.185,0.358-0.108,0.545C10.115,10.878,10.298,11,10.5,11H11v4.5c0,0.276,0.224,0.5,0.5,0.5h3
			c0.276,0,0.5-0.224,0.5-0.5V12h1v3.5c0,0.276,0.224,0.5,0.5,0.5h3c0.276,0,0.5-0.224,0.5-0.5V11h0.5
			c0.202,0,0.383-0.122,0.461-0.309s0.035-0.402-0.108-0.545L15.853,5.146z M19,10.5V15h-2v-3.5c0-0.276-0.224-0.5-0.5-0.5h-2
			c-0.276,0-0.5,0.224-0.5,0.5V15h-2v-4.5c0-0.214-0.135-0.397-0.324-0.468L15.5,6.207l3.824,3.825C19.135,10.103,19,10.286,19,10.5
			z M7.5,23C6.121,23,5,24.122,5,25.5S6.121,28,7.5,28c1.379,0,2.5-1.122,2.5-2.5S8.879,23,7.5,23z M7.5,27
			C6.673,27,6,26.327,6,25.5C6,24.673,6.673,24,7.5,24C8.327,24,9,24.673,9,25.5C9,26.327,8.327,27,7.5,27z"/>
	</g>
</g>
</svg>
