<?xml version="1.0" encoding="iso-8859-1"?>
<!-- Generator: Adobe Illustrator 19.2.1, SVG Export Plug-In . SVG Version: 6.00 Build 0)  -->
<svg version="1.1" id="Layer_1" xmlns="http://www.w3.org/2000/svg" xmlns:xlink="http://www.w3.org/1999/xlink" x="0px" y="0px"
	 viewBox="0 0 30 30" style="enable-background:new 0 0 30 30;" xml:space="preserve">
<g>
	<g>
		<path d="M29.855,14.148L26,10.254V0.5C26,0.224,25.776,0,25.5,0h-5C20.224,0,20,0.224,20,0.5v3.694l-3.572-3.608
			c-0.761-0.755-2.088-0.76-2.858,0.003L0.145,14.148c-0.142,0.143-0.184,0.358-0.106,0.544C0.116,14.879,0.298,15,0.5,15H4v14.5
			C4,29.776,4.224,30,4.5,30h21c0.276,0,0.5-0.224,0.5-0.5V15h3.5c0.201,0,0.383-0.121,0.461-0.308
			C30.039,14.506,29.997,14.291,29.855,14.148z M25.5,14c-0.276,0-0.5,0.224-0.5,0.5V29H5V14.5C5,14.224,4.776,14,4.5,14H1.699
			L14.276,1.295c0.383-0.382,1.064-0.379,1.442-0.003l4.425,4.469c0.144,0.145,0.358,0.188,0.546,0.111
			c0.187-0.077,0.31-0.259,0.31-0.462V1h4v9.46c0,0.132,0.052,0.259,0.145,0.352L28.301,14H25.5z M19.5,15h-9
			c-0.276,0-0.5,0.224-0.5,0.5v9c0,0.276,0.224,0.5,0.5,0.5h9c0.276,0,0.5-0.224,0.5-0.5v-9C20,15.224,19.776,15,19.5,15z M19,24h-8
			v-8h8V24z"/>
	</g>
</g>
</svg>
