<?xml version="1.0" encoding="iso-8859-1"?>
<!-- Generator: Adobe Illustrator 19.2.1, SVG Export Plug-In . SVG Version: 6.00 Build 0)  -->
<svg version="1.1" id="Layer_1" xmlns="http://www.w3.org/2000/svg" xmlns:xlink="http://www.w3.org/1999/xlink" x="0px" y="0px"
	 viewBox="0 0 30 30" style="enable-background:new 0 0 30 30;" xml:space="preserve">
<g>
	<g>
		<path d="M5.502,16.499c0.791,0,1.449,0.617,1.499,1.404c0.016,0.274,0.235,0.48,0.53,0.467c0.277-0.018,0.486-0.256,0.468-0.531
			c-0.083-1.312-1.181-2.34-2.497-2.34c-1.38,0-2.502,1.122-2.502,2.5c0,1.261,0.768,2.089,2.368,2.482l0.114,0.029
			C6.232,20.695,7,21.016,7,21.999c0,0.827-0.674,1.5-1.502,1.5c-0.791,0-1.449-0.616-1.499-1.404
			c-0.016-0.275-0.249-0.474-0.53-0.467c-0.277,0.018-0.486,0.256-0.468,0.531C3.084,23.472,4.182,24.5,5.498,24.5
			c1.38,0,2.502-1.121,2.501-2.5c0-1.26-0.766-2.088-2.365-2.482l-0.112-0.029C4.77,19.305,4,18.983,4,17.999
			C4,17.172,4.674,16.499,5.502,16.499z M27.5,13.5h-2.782l-6.74-7.221C17.862,4.729,16.578,3.5,15,3.5
			c-1.579,0-2.863,1.23-2.978,2.78L5.283,13.5H2.5C1.121,13.5,0,14.622,0,16v8c0,1.378,1.121,2.5,2.5,2.5h25
			c1.379,0,2.5-1.122,2.5-2.5v-8C30,14.622,28.879,13.5,27.5,13.5z M15,4.5c1.103,0,2,0.897,2,2c0,1.103-0.897,2-2,2
			c-1.103,0-2-0.897-2-2C13,5.397,13.897,4.5,15,4.5z M12.201,7.553C12.63,8.687,13.718,9.5,15,9.5c1.282,0,2.371-0.813,2.799-1.947
			L23.35,13.5H6.651L12.201,7.553z M29,24c0,0.827-0.673,1.5-1.5,1.5h-25C1.673,25.5,1,24.827,1,24v-8c0-0.827,0.673-1.5,1.5-1.5h25
			c0.827,0,1.5,0.673,1.5,1.5V24z M20.5,23.5H17V16c0-0.276-0.224-0.5-0.5-0.5S16,15.724,16,16v8c0,0.276,0.224,0.5,0.5,0.5h4
			c0.276,0,0.5-0.224,0.5-0.5S20.776,23.5,20.5,23.5z M14.46,22.195c0.025-0.06,0.04-0.126,0.04-0.195
			c0-0.173-0.094-0.319-0.228-0.409l-1.794-5.74c-0.131-0.418-0.824-0.418-0.955,0l-1.794,5.74C9.594,21.68,9.5,21.826,9.5,22
			c0,0.07,0.015,0.136,0.04,0.196l-0.517,1.655c-0.082,0.263,0.064,0.544,0.328,0.626c0.266,0.083,0.544-0.064,0.627-0.328
			l0.515-1.649h3.014l0.515,1.649C14.09,24.363,14.287,24.5,14.5,24.5c0.049,0,0.1-0.007,0.15-0.023
			c0.264-0.082,0.41-0.363,0.328-0.626L14.46,22.195z M10.805,21.5L12,17.676l1.195,3.824H10.805z M26.5,16.5
			c0.276,0,0.5-0.224,0.5-0.5s-0.224-0.5-0.5-0.5h-4c-0.276,0-0.5,0.224-0.5,0.5v8c0,0.276,0.224,0.5,0.5,0.5h4
			c0.276,0,0.5-0.224,0.5-0.5s-0.224-0.5-0.5-0.5H23v-3h2.5c0.276,0,0.5-0.224,0.5-0.5s-0.224-0.5-0.5-0.5H23v-3H26.5z"/>
	</g>
</g>
</svg>
