<?xml version="1.0" encoding="iso-8859-1"?>
<!-- Generator: Adobe Illustrator 19.2.1, SVG Export Plug-In . SVG Version: 6.00 Build 0)  -->
<svg version="1.1" id="Layer_1" xmlns="http://www.w3.org/2000/svg" xmlns:xlink="http://www.w3.org/1999/xlink" x="0px" y="0px"
	 viewBox="0 0 30 30" style="enable-background:new 0 0 30 30;" xml:space="preserve">
<g>
	<g>
		<path d="M17.5,29H5V14.5C5,14.224,4.776,14,4.5,14H1.698L14.277,1.295c0.379-0.379,1.065-0.377,1.442-0.003l4.425,4.469
			c0.143,0.145,0.359,0.188,0.546,0.111C20.878,5.795,21,5.613,21,5.41V1h4v9.46c0,0.132,0.052,0.259,0.145,0.352L28.302,14H25.5
			c-0.276,0-0.5,0.224-0.5,0.5s0.224,0.5,0.5,0.5h4c0.202,0,0.384-0.121,0.461-0.308c0.078-0.186,0.036-0.401-0.106-0.544L26,10.254
			V0.5C26,0.224,25.776,0,25.5,0h-5C20.224,0,20,0.224,20,0.5v3.694l-3.573-3.608c-0.754-0.751-2.096-0.756-2.858,0.003
			L0.144,14.148c-0.141,0.143-0.183,0.358-0.106,0.544C0.116,14.879,0.298,15,0.5,15H4v14.5C4,29.776,4.224,30,4.5,30h13
			c0.276,0,0.5-0.224,0.5-0.5S17.776,29,17.5,29z M29.5,21H29v-1.5c0-1.93-1.57-3.5-3.5-3.5h-2c-1.93,0-3.5,1.57-3.5,3.5V21h-0.5
			c-0.276,0-0.5,0.224-0.5,0.5v8c0,0.276,0.224,0.5,0.5,0.5h10c0.276,0,0.5-0.224,0.5-0.5v-8C30,21.224,29.776,21,29.5,21z M21,19.5
			c0-1.378,1.121-2.5,2.5-2.5h2c1.379,0,2.5,1.122,2.5,2.5V21h-7V19.5z M29,29h-9v-7h9V29z M17.5,24H11v-8h8v0.5
			c0,0.276,0.224,0.5,0.5,0.5s0.5-0.224,0.5-0.5v-1c0-0.276-0.224-0.5-0.5-0.5h-9c-0.276,0-0.5,0.224-0.5,0.5v9
			c0,0.276,0.224,0.5,0.5,0.5h7c0.276,0,0.5-0.224,0.5-0.5S17.776,24,17.5,24z M24,25.908V26.5c0,0.276,0.224,0.5,0.5,0.5
			s0.5-0.224,0.5-0.5v-0.592c0.581-0.207,1-0.757,1-1.408c0-0.827-0.673-1.5-1.5-1.5c-0.827,0-1.5,0.673-1.5,1.5
			C23,25.151,23.419,25.701,24,25.908z"/>
	</g>
</g>
</svg>
