<?xml version="1.0" encoding="iso-8859-1"?>
<!-- Generator: Adobe Illustrator 19.0.0, SVG Export Plug-In . SVG Version: 6.00 Build 0)  -->
<svg version="1.1" id="Layer_1" xmlns="http://www.w3.org/2000/svg" xmlns:xlink="http://www.w3.org/1999/xlink" x="0px" y="0px"
	 viewBox="0 0 30 30" style="enable-background:new 0 0 30 30;" xml:space="preserve">
<g>
	<g>
		<path d="M12.501,14.305c0.276,0,0.5-0.223,0.5-0.5v-2.207c1.307,0.918,3.7,1.402,6,1.402s4.693-0.484,6-1.402v2.401
			c0,0.644-1.367,1.514-3.9,1.859c-0.273,0.038-0.465,0.29-0.428,0.563c0.034,0.251,0.248,0.433,0.495,0.433
			c0.022,0,0.044-0.001,0.067-0.005c1.658-0.226,2.944-0.677,3.766-1.266v1.662c0,0.276,0.224,0.5,0.5,0.5s0.5-0.224,0.5-0.5V6
			c0-1.949-3.606-3-7-3s-7,1.051-7,3v7.805C12.001,14.081,12.225,14.305,12.501,14.305z M19.001,4c3.717,0,6,1.165,6,2s-2.283,2-6,2
			s-6-1.165-6-2S15.284,4,19.001,4z M13.001,7.598c1.307,0.918,3.7,1.402,6,1.402s4.693-0.484,6-1.402V10c0,0.835-2.283,2-6,2
			s-6-1.165-6-2V7.598z M29.954,20.995c-0.815-1.775-2.704-2.709-4.486-2.225l-4.108,1.117c-0.126-1.697-1.002-2.694-2.827-3.19
			L6.964,14.099c0.012-0.11,0.026-0.225,0.035-0.328c0.013-0.15-0.043-0.298-0.151-0.402c-1.031-0.994-5.443-1.308-6.317-1.361
			c-0.135-0.006-0.272,0.04-0.373,0.135c-0.1,0.094-0.157,0.226-0.157,0.364v11c0,0.276,0.224,0.5,0.5,0.5h4
			c0.228,0,0.426-0.153,0.484-0.375c0.011-0.042,0.063-0.244,0.139-0.545l9.209,3.392C15.239,26.802,15.946,27,16.749,27
			c1.344,0,2.955-0.555,6.204-2.001l6.769-3.347C29.964,21.532,30.067,21.241,29.954,20.995z M4.113,23.007H1.001v-9.963
			c1.823,0.143,4.189,0.482,4.975,0.92C5.69,16.678,4.467,21.615,4.113,23.007z M22.528,24.093
			c-5.102,2.274-5.785,2.185-7.854,1.447l-9.307-3.429c0.436-1.779,1.13-4.758,1.469-7.016l11.455,2.572
			c1.468,0.4,2.049,1.08,2.091,2.483l-1.285,0.349c-0.449,0.122-0.928,0.135-1.382,0.036l-5.34-1.162
			c-0.271-0.059-0.536,0.112-0.595,0.382c-0.059,0.27,0.112,0.536,0.382,0.595l5.34,1.162c0.273,0.059,0.552,0.089,0.83,0.089
			c0.347,0,0.693-0.046,1.028-0.137l1.641-0.446c0.005-0.001,0.01,0,0.015-0.001l4.714-1.282c1.182-0.324,2.391,0.187,3.081,1.251
			L22.528,24.093z"/>
	</g>
</g>
</svg>
