<?xml version="1.0" encoding="iso-8859-1"?>
<!-- Generator: Adobe Illustrator 19.0.0, SVG Export Plug-In . SVG Version: 6.00 Build 0)  -->
<svg version="1.1" id="Layer_1" xmlns="http://www.w3.org/2000/svg" xmlns:xlink="http://www.w3.org/1999/xlink" x="0px" y="0px"
	 viewBox="0 0 30 30" style="enable-background:new 0 0 30 30;" xml:space="preserve">
<g>
	<g>
		<path d="M26.145,24.147L24,26.292V19.5c0-0.276-0.224-0.5-0.5-0.5S23,19.224,23,19.5v6.794l-2.147-2.147
			c-0.195-0.195-0.512-0.195-0.707,0s-0.195,0.512,0,0.707l3,3c0.017,0.016,0.038,0.023,0.056,0.037
			c0.034,0.026,0.067,0.054,0.107,0.07C23.37,27.987,23.435,28,23.5,28c0.065,0,0.13-0.013,0.191-0.039
			c0.062-0.026,0.118-0.064,0.165-0.111l2.996-2.996c0.195-0.195,0.195-0.512,0-0.707C26.657,23.952,26.34,23.952,26.145,24.147z
			 M16.908,27.642C15.494,27.88,14.011,28,12.5,28C5.621,28,1,25.673,1,23.5v-3.809C2.889,21.654,7.271,23,12.5,23
			c1.068,0,2.125-0.058,3.141-0.17c0.275-0.031,0.472-0.278,0.442-0.553c-0.03-0.273-0.272-0.464-0.552-0.441
			C14.552,21.945,13.532,22,12.5,22C5.621,22,1,19.673,1,17.5v-3.809C2.889,15.654,7.271,17,12.5,17c5.229,0,9.611-1.346,11.5-3.309
			v1.878c0,0.276,0.224,0.5,0.5,0.5s0.5-0.223,0.5-0.5V5.5C25,2.416,19.509,0,12.5,0C5.491,0,0,2.416,0,5.5v18
			C0,26.584,5.491,29,12.5,29c1.566,0,3.105-0.125,4.574-0.372c0.272-0.046,0.456-0.304,0.41-0.576
			C17.439,27.78,17.181,27.592,16.908,27.642z M12.5,1c6.863,0,11.477,2.332,11.498,4.515C23.977,7.684,19.363,10,12.5,10
			C5.637,10,1.023,7.684,1.002,5.515C1.023,3.332,5.637,1,12.5,1z M1,7.734c1.889,1.974,6.271,3.327,11.5,3.327
			c5.229,0,9.611-1.353,11.5-3.327V11.5c0,2.173-4.621,4.5-11.5,4.5C5.621,16,1,13.673,1,11.5V7.734z M23.5,17
			c-3.584,0-6.5,2.916-6.5,6.5s2.916,6.5,6.5,6.5s6.5-2.916,6.5-6.5S27.084,17,23.5,17z M23.5,29c-3.033,0-5.5-2.468-5.5-5.5
			s2.467-5.5,5.5-5.5c3.033,0,5.5,2.468,5.5,5.5S26.533,29,23.5,29z"/>
	</g>
</g>
</svg>
