<?xml version="1.0" encoding="iso-8859-1"?>
<!-- Generator: Adobe Illustrator 19.0.0, SVG Export Plug-In . SVG Version: 6.00 Build 0)  -->
<svg version="1.1" id="Layer_1" xmlns="http://www.w3.org/2000/svg" xmlns:xlink="http://www.w3.org/1999/xlink" x="0px" y="0px"
	 viewBox="0 0 30 30" style="enable-background:new 0 0 30 30;" xml:space="preserve">
<g>
	<g>
		<path d="M23,15.845V14.5c0-0.276-0.224-0.5-0.5-0.5S22,14.224,22,14.5v1.345c0,0.276,0.224,0.5,0.5,0.5S23,16.121,23,15.845z
			 M26.907,9C28.612,9,30,7.612,30,5.906V3.093C30,1.388,28.612,0,26.907,0H3.093C1.388,0,0,1.388,0,3.093v2.814
			C0,7.612,1.388,9,3.093,9H11v2H3.093C1.388,11,0,12.387,0,14.093v2.814C0,18.612,1.388,20,3.093,20H11v1h-0.5
			c-0.276,0-0.5,0.224-0.5,0.5V22H9.5C9.224,22,9,22.224,9,22.5V23H2.5C2.224,23,2,23.224,2,23.5S2.224,24,2.5,24H9v0.5
			C9,24.776,9.224,25,9.5,25h4c0.276,0,0.5-0.224,0.5-0.5V24h3.5c0.276,0,0.5-0.224,0.5-0.5S17.776,23,17.5,23H14v-0.5
			c0-0.276-0.224-0.5-0.5-0.5H13v-0.5c0-0.276-0.224-0.5-0.5-0.5H12v-1h6.853c0.276,0,0.5-0.223,0.5-0.499s-0.224-0.5-0.5-0.5
			h-7.348C11.503,19.001,11.502,19,11.5,19s-0.003,0.001-0.005,0.001H3.093C1.938,19.001,1,18.062,1,16.908v-2.814
			c0-1.154,0.939-2.093,2.093-2.093h23.814c1.155,0,2.093,0.939,2.093,2.093v2.814c0,0.284-0.058,0.561-0.17,0.824
			c-0.109,0.254,0.008,0.548,0.262,0.656c0.251,0.11,0.547-0.008,0.656-0.262C29.915,17.738,30,17.328,30,16.907v-2.814
			C30,12.387,28.612,11,26.907,11H12V9H26.907z M12,22v0.5c0,0.276,0.224,0.5,0.5,0.5H13v1h-3v-1h0.5c0.276,0,0.5-0.224,0.5-0.5V22
			H12z M3.093,7.999C1.938,7.999,1,7.06,1,5.906V3.093C1,1.939,1.938,1,3.093,1h23.814C28.062,1,29,1.939,29,3.093v2.813
			c0,1.154-0.939,2.093-2.093,2.093H3.093z M24,25.847V26.5c0,0.276,0.224,0.5,0.5,0.5s0.5-0.224,0.5-0.5v-0.653
			c0.294-0.174,0.5-0.481,0.5-0.847c0-0.552-0.448-1-1-1c-0.552,0-1,0.448-1,1C23.5,25.366,23.707,25.672,24,25.847z M26,15.584
			V14.5c0-0.276-0.224-0.5-0.5-0.5S25,14.224,25,14.5v1.084c0,0.276,0.224,0.5,0.5,0.5S26,15.86,26,15.584z M3,15.5
			C3,16.327,3.673,17,4.5,17C5.327,17,6,16.327,6,15.5S5.327,14,4.5,14C3.673,14,3,14.673,3,15.5z M5,15.5C5,15.775,4.775,16,4.5,16
			C4.225,16,4,15.775,4,15.5S4.225,15,4.5,15C4.775,15,5,15.225,5,15.5z M29.5,22H29v-0.5c0-2.481-2.019-4.5-4.5-4.5
			c-2.481,0-4.5,2.019-4.5,4.5V22h-0.5c-0.276,0-0.5,0.224-0.5,0.5v7c0,0.276,0.224,0.5,0.5,0.5h10c0.276,0,0.5-0.224,0.5-0.5v-7
			C30,22.224,29.776,22,29.5,22z M21,21.5c0-1.93,1.57-3.5,3.5-3.5s3.5,1.57,3.5,3.5V22h-7V21.5z M29,29h-9v-6h9V29z M20,16.5v-2
			c0-0.276-0.224-0.5-0.5-0.5S19,14.224,19,14.5v2c0,0.276,0.224,0.5,0.5,0.5S20,16.776,20,16.5z M19.5,3C19.224,3,19,3.224,19,3.5
			v2C19,5.776,19.224,6,19.5,6S20,5.776,20,5.5v-2C20,3.224,19.776,3,19.5,3z M22.5,3C22.224,3,22,3.224,22,3.5v2
			C22,5.776,22.224,6,22.5,6S23,5.776,23,5.5v-2C23,3.224,22.776,3,22.5,3z M25.5,3C25.224,3,25,3.224,25,3.5v2
			C25,5.776,25.224,6,25.5,6S26,5.776,26,5.5v-2C26,3.224,25.776,3,25.5,3z M16.5,3C16.224,3,16,3.224,16,3.5v2
			C16,5.776,16.224,6,16.5,6S17,5.776,17,5.5v-2C17,3.224,16.776,3,16.5,3z M16,14.5v2c0,0.276,0.224,0.5,0.5,0.5s0.5-0.224,0.5-0.5
			v-2c0-0.276-0.224-0.5-0.5-0.5S16,14.224,16,14.5z M4.5,3C3.673,3,3,3.673,3,4.5S3.673,6,4.5,6C5.327,6,6,5.327,6,4.5
			S5.327,3,4.5,3z M4.5,5C4.225,5,4,4.776,4,4.5S4.225,4,4.5,4C4.775,4,5,4.224,5,4.5S4.775,5,4.5,5z"/>
	</g>
</g>
</svg>
