<?xml version="1.0" encoding="iso-8859-1"?>
<!-- Generator: Adobe Illustrator 19.0.0, SVG Export Plug-In . SVG Version: 6.00 Build 0)  -->
<svg version="1.1" id="Layer_1" xmlns="http://www.w3.org/2000/svg" xmlns:xlink="http://www.w3.org/1999/xlink" x="0px" y="0px"
	 viewBox="0 0 30 30" style="enable-background:new 0 0 30 30;" xml:space="preserve">
<g>
	<g>
		<path d="M4.5,3C3.673,3,3,3.673,3,4.5C3,5.327,3.673,6,4.5,6C5.327,6,6,5.327,6,4.5C6,3.673,5.327,3,4.5,3z M4.5,5
			C4.224,5,4,4.775,4,4.5C4,4.225,4.224,4,4.5,4S5,4.225,5,4.5C5,4.775,4.776,5,4.5,5z M16.5,3C16.224,3,16,3.224,16,3.5v2
			C16,5.776,16.224,6,16.5,6S17,5.776,17,5.5v-2C17,3.224,16.776,3,16.5,3z M26,16.5v-2c0-0.276-0.224-0.5-0.5-0.5
			S25,14.224,25,14.5v2c0,0.276,0.224,0.5,0.5,0.5S26,16.776,26,16.5z M29.5,26c-0.276,0-0.5,0.224-0.5,0.5V29h-9v-2.5
			c0-0.276-0.224-0.5-0.5-0.5S19,26.224,19,26.5v3c0,0.276,0.224,0.5,0.5,0.5h10c0.276,0,0.5-0.224,0.5-0.5v-3
			C30,26.224,29.776,26,29.5,26z M22.147,22.854c0.195,0.195,0.512,0.195,0.707,0L24,21.708v5.73c0,0.276,0.224,0.5,0.5,0.5
			s0.5-0.224,0.5-0.5v-5.73l1.146,1.146C26.244,22.951,26.372,23,26.5,23s0.256-0.049,0.353-0.146c0.195-0.195,0.195-0.512,0-0.707
			l-2-2c-0.045-0.045-0.098-0.078-0.154-0.102c-0.003-0.001-0.004-0.005-0.008-0.006c-0.001,0-0.001,0-0.002,0
			c-0.082-0.034-0.169-0.037-0.255-0.026c-0.021,0.003-0.039,0.006-0.059,0.011c-0.084,0.021-0.165,0.057-0.23,0.122
			c-0.001,0.001-0.001,0.002-0.002,0.003l-1.997,1.997C21.952,22.342,21.952,22.659,22.147,22.854z M22.5,14
			c-0.276,0-0.5,0.224-0.5,0.5v2c0,0.276,0.224,0.5,0.5,0.5s0.5-0.224,0.5-0.5v-2C23,14.224,22.776,14,22.5,14z M19,14.5v2
			c0,0.276,0.224,0.5,0.5,0.5s0.5-0.224,0.5-0.5v-2c0-0.276-0.224-0.5-0.5-0.5S19,14.224,19,14.5z M16,14.5v2
			c0,0.276,0.224,0.5,0.5,0.5s0.5-0.224,0.5-0.5v-2c0-0.276-0.224-0.5-0.5-0.5S16,14.224,16,14.5z M3,15.5C3,16.327,3.673,17,4.5,17
			C5.327,17,6,16.327,6,15.5C6,14.673,5.327,14,4.5,14C3.673,14,3,14.673,3,15.5z M5,15.5C5,15.775,4.776,16,4.5,16S4,15.775,4,15.5
			C4,15.225,4.224,15,4.5,15S5,15.225,5,15.5z M22.5,3C22.224,3,22,3.224,22,3.5v2C22,5.776,22.224,6,22.5,6S23,5.776,23,5.5v-2
			C23,3.224,22.776,3,22.5,3z M26.907,9C28.612,9,30,7.612,30,5.907V3.093C30,1.388,28.612,0,26.907,0H3.093
			C1.388,0,0,1.388,0,3.093v2.814C0,7.612,1.388,9,3.094,9H11v2H3.093C1.388,11,0,12.388,0,14.093v2.814C0,18.612,1.388,20,3.093,20
			H11v1h-0.5c-0.276,0-0.5,0.224-0.5,0.5V22H9.5C9.224,22,9,22.224,9,22.5V23H2.5C2.224,23,2,23.224,2,23.5S2.224,24,2.5,24H9v0.5
			C9,24.776,9.224,25,9.5,25h4c0.276,0,0.5-0.224,0.5-0.5V24h6.5c0.276,0,0.5-0.224,0.5-0.5S20.776,23,20.5,23H14v-0.5
			c0-0.276-0.224-0.5-0.5-0.5H13v-0.5c0-0.276-0.224-0.5-0.5-0.5H12v-1h10.5c0.276,0,0.5-0.224,0.5-0.5S22.776,19,22.5,19H3.093
			C1.939,19,1,18.062,1,16.907v-2.814C1,12.938,1.939,12,3.094,12h23.813C28.061,12,29,12.938,29,14.093v2.814
			C29,18.062,28.061,19,26.907,19H26.5c-0.276,0-0.5,0.224-0.5,0.5s0.224,0.5,0.5,0.5h0.407C28.612,20,30,18.612,30,16.907v-2.814
			C30,12.388,28.612,11,26.907,11H12V9H26.907z M12.5,23H13v1h-3v-1h0.5c0.276,0,0.5-0.224,0.5-0.5V22h1v0.5
			C12,22.776,12.224,23,12.5,23z M3.093,8C1.939,8,1,7.062,1,5.907V3.093C1,1.938,1.939,1,3.093,1h23.814
			C28.061,1,29,1.938,29,3.093v2.814C29,7.062,28.061,8,26.907,8H3.093z M19.5,3C19.224,3,19,3.224,19,3.5v2
			C19,5.776,19.224,6,19.5,6S20,5.776,20,5.5v-2C20,3.224,19.776,3,19.5,3z M25.5,3C25.224,3,25,3.224,25,3.5v2
			C25,5.776,25.224,6,25.5,6S26,5.776,26,5.5v-2C26,3.224,25.776,3,25.5,3z"/>
	</g>
</g>
</svg>
