<?xml version="1.0" encoding="iso-8859-1"?>
<!-- Generator: Adobe Illustrator 19.0.0, SVG Export Plug-In . SVG Version: 6.00 Build 0)  -->
<svg version="1.1" id="Layer_1" xmlns="http://www.w3.org/2000/svg" xmlns:xlink="http://www.w3.org/1999/xlink" x="0px" y="0px"
	 viewBox="0 0 30 30" style="enable-background:new 0 0 30 30;" xml:space="preserve">
<g>
	<g>
		<path d="M15.5,25h2c0.276,0,0.5-0.224,0.5-0.5S17.776,24,17.5,24h-2c-0.276,0-0.5,0.224-0.5,0.5S15.224,25,15.5,25z M15.5,27
			h2.067c0.276,0,0.5-0.224,0.5-0.5s-0.224-0.5-0.5-0.5H15.5c-0.276,0-0.5,0.224-0.5,0.5S15.224,27,15.5,27z M29.598,18.01l-5-1
			c-0.064-0.013-0.132-0.013-0.196,0l-5,1C19.168,18.057,19,18.262,19,18.5v7.4c0,1.799,4.068,3.565,5.314,4.064
			C24.374,29.988,24.437,30,24.5,30s0.126-0.012,0.186-0.036C25.932,29.465,30,27.699,30,25.9v-7.4
			C30,18.262,29.831,18.057,29.598,18.01z M29,25.9c0,0.733-2.292,2.15-4.5,3.061C22.292,28.05,20,26.633,20,25.9v-6.99l4.5-0.9
			l4.5,0.9V25.9z M19.802,16.5c0-0.276-0.224-0.5-0.5-0.5H15.5c-0.276,0-0.5,0.224-0.5,0.5s0.224,0.5,0.5,0.5h3.802
			C19.578,17,19.802,16.776,19.802,16.5z M21.404,19.649C21.169,19.695,21,19.901,21,20.14v3.36c0,0.276,0.224,0.5,0.5,0.5H24v3.325
			c0,0.17,0.086,0.328,0.229,0.42c0.082,0.053,0.176,0.08,0.271,0.08c0.07,0,0.141-0.014,0.206-0.044
			c1.164-0.528,2.588-1.314,3.149-1.88C27.948,25.807,28,25.681,28,25.549V23.5c0-0.276-0.224-0.5-0.5-0.5H25v-3.448
			c0-0.149-0.067-0.291-0.182-0.386c-0.116-0.095-0.266-0.134-0.414-0.104L21.404,19.649z M24,23h-2v-2.449l2-0.391V23z M25,24h2
			v1.327c-0.358,0.293-1.083,0.746-2,1.206V24z M3,17.5C3,18.327,3.673,19,4.5,19C5.327,19,6,18.327,6,17.5S5.327,16,4.5,16
			C3.673,16,3,16.673,3,17.5z M5,17.5C5,17.776,4.776,18,4.5,18S4,17.776,4,17.5S4.224,17,4.5,17S5,17.224,5,17.5z M29.486,6.393
			c-0.016-0.072-0.043-0.142-0.092-0.204l-4-5.051C24.822,0.415,23.964,0,23.042,0H6.751c-0.939,0-1.837,0.449-2.4,1.2l-3.75,5
			C0.556,6.259,0.53,6.326,0.515,6.394c-0.323,0.488-0.514,1.072-0.514,1.7v2.813c0,1.088,0.567,2.042,1.419,2.593
			C0.568,14.052,0,15.006,0,16.094v2.813c0,1.088,0.567,2.042,1.419,2.594C0.568,22.052,0,23.006,0,24.094v2.813
			C0,28.612,1.387,30,3.093,30h16.983c0.277,0,0.5-0.224,0.5-0.5s-0.224-0.5-0.5-0.5H3.093C1.939,29,1,28.061,1,26.907v-2.813
			c0-1.154,0.939-2.093,2.093-2.093H17.5c0.276,0,0.5-0.224,0.5-0.5c0,0,0,0,0,0s0,0,0,0c0-0.276-0.224-0.5-0.5-0.5H3.093
			C1.939,21,1,20.061,1,18.907v-2.813c0-1.154,0.939-2.093,2.093-2.093h23.813c1.154,0,2.093,0.939,2.093,2.093v0.386
			c0,0.276,0.224,0.5,0.5,0.5s0.5-0.224,0.5-0.5v-0.386c0-1.088-0.567-2.042-1.419-2.593c0.852-0.552,1.42-1.506,1.42-2.594V8.094
			C30,7.466,29.809,6.882,29.486,6.393z M5.15,1.799c0.376-0.501,0.974-0.8,1.6-0.8h16.291c0.615,0,1.187,0.277,1.568,0.759
			L27.2,5.031c-0.098-0.009-0.193-0.03-0.293-0.03H3.094c-0.128,0-0.25,0.023-0.374,0.038L5.15,1.799z M28.999,10.906
			c0,1.154-0.939,2.093-2.093,2.093H3.093C1.939,12.999,1,12.06,1,10.906V8.093C1,6.939,1.939,6,3.093,6h23.813
			c1.154,0,2.093,0.939,2.093,2.093V10.906z M15.5,18c-0.276,0-0.5,0.224-0.5,0.5s0.224,0.5,0.5,0.5h2c0.276,0,0.5-0.224,0.5-0.5
			S17.776,18,17.5,18H15.5z M3,25.5C3,26.327,3.673,27,4.5,27C5.327,27,6,26.327,6,25.5S5.327,24,4.5,24C3.673,24,3,24.673,3,25.5z
			 M5,25.5C5,25.776,4.776,26,4.5,26S4,25.776,4,25.5S4.224,25,4.5,25S5,25.224,5,25.5z M4.5,8C3.673,8,3,8.673,3,9.5
			S3.673,11,4.5,11C5.327,11,6,10.327,6,9.5S5.327,8,4.5,8z M4.5,10C4.224,10,4,9.776,4,9.5S4.224,9,4.5,9S5,9.224,5,9.5
			S4.776,10,4.5,10z M25.5,8h-10C15.224,8,15,8.224,15,8.5S15.224,9,15.5,9h10C25.776,9,26,8.776,26,8.5S25.776,8,25.5,8z M25.5,10
			h-10c-0.276,0-0.5,0.224-0.5,0.5s0.224,0.5,0.5,0.5h10c0.276,0,0.5-0.224,0.5-0.5S25.776,10,25.5,10z"/>
	</g>
</g>
</svg>
