<?xml version="1.0" encoding="iso-8859-1"?>
<!-- Generator: Adobe Illustrator 19.0.0, SVG Export Plug-In . SVG Version: 6.00 Build 0)  -->
<svg version="1.1" id="Layer_1" xmlns="http://www.w3.org/2000/svg" xmlns:xlink="http://www.w3.org/1999/xlink" x="0px" y="0px"
	 viewBox="0 0 30 30" style="enable-background:new 0 0 30 30;" xml:space="preserve">
<g>
	<g>
		<path d="M16.5,14c-0.276,0-0.5,0.224-0.5,0.5s0.224,0.5,0.5,0.5s0.5-0.224,0.5-0.5S16.776,14,16.5,14z M4.5,12
			C3.673,12,3,12.672,3,13.5C3,14.326,3.673,15,4.5,15S6,14.326,6,13.5C6,12.672,5.327,12,4.5,12z M4.5,14C4.225,14,4,13.776,4,13.5
			S4.225,13,4.5,13S5,13.224,5,13.5S4.775,14,4.5,14z M30,6.906V4.094C30,2.388,28.612,1,26.907,1H3.093C1.388,1,0,2.388,0,4.094
			v2.813C0,7.994,0.568,8.948,1.419,9.5C0.568,10.051,0,11.005,0,12.094v2.813C0,16.612,1.388,18,3.093,18H14V21H5.11
			C3.396,21,2,22.396,2,24.11v1.779C2,27.604,3.395,29,5.11,29h18.78c1.714,0,3.11-1.396,3.109-3.11V24.11
			c0-1.714-1.395-3.11-3.11-3.11H15V18h11.907C28.612,18,30,16.612,30,14.906v-2.813c0-1.088-0.568-2.042-1.42-2.594
			C29.432,8.948,30,7.994,30,6.906z M23.889,22c1.164,0,2.11,0.946,2.11,2.11v1.779c0,1.163-0.946,2.11-2.11,2.11H5.11
			c-1.164,0-2.11-0.946-2.11-2.11v-1.779C3,22.947,3.946,22,5.11,22H23.889z M29,12.093v2.813c0,1.154-0.939,2.093-2.093,2.093
			H3.093C1.938,16.999,1,16.06,1,14.906v-2.813C1,10.938,1.939,10,3.093,10h23.814C28.062,10,29,10.938,29,12.093z M29,6.906
			c0,1.154-0.939,2.093-2.093,2.093H3.093C1.938,8.999,1,8.06,1,6.906V4.093C1,2.938,1.939,2,3.093,2h23.814
			C28.062,2,29,2.938,29,4.093V6.906z M20.146,26.854C20.244,26.951,20.372,27,20.5,27s0.256-0.049,0.353-0.146L22,25.707
			l1.146,1.146C23.244,26.951,23.372,27,23.5,27s0.256-0.049,0.353-0.146c0.195-0.195,0.195-0.512,0-0.707L22.707,25l1.146-1.146
			c0.195-0.195,0.195-0.512,0-0.707s-0.512-0.195-0.707,0L22,24.293l-1.146-1.146c-0.195-0.195-0.512-0.195-0.707,0
			s-0.195,0.512,0,0.707L21.292,25l-1.146,1.146C19.951,26.341,19.951,26.659,20.146,26.854z M5.146,23.854L6.292,25l-1.146,1.146
			c-0.195,0.195-0.195,0.512,0,0.707C5.244,26.951,5.372,27,5.5,27s0.256-0.049,0.353-0.146L7,25.707l1.146,1.146
			C8.244,26.951,8.372,27,8.5,27s0.256-0.049,0.353-0.146c0.195-0.195,0.195-0.512,0-0.707L7.707,25l1.146-1.146
			c0.195-0.195,0.195-0.512,0-0.707s-0.512-0.195-0.707,0L7,24.293l-1.146-1.146c-0.195-0.195-0.512-0.195-0.707,0
			S4.951,23.659,5.146,23.854z M15.146,26.854C15.244,26.951,15.372,27,15.5,27s0.256-0.049,0.353-0.146L17,25.707l1.146,1.146
			C18.244,26.951,18.372,27,18.5,27s0.256-0.049,0.353-0.146c0.195-0.195,0.195-0.512,0-0.707L17.707,25l1.146-1.146
			c0.195-0.195,0.195-0.512,0-0.707s-0.512-0.195-0.707,0L17,24.293l-1.146-1.146c-0.195-0.195-0.512-0.195-0.707,0
			s-0.195,0.512,0,0.707L16.292,25l-1.146,1.146C14.951,26.341,14.951,26.659,15.146,26.854z M10.146,26.854
			C10.244,26.951,10.372,27,10.5,27s0.256-0.049,0.353-0.146L12,25.707l1.146,1.146C13.244,26.951,13.372,27,13.5,27
			s0.256-0.049,0.353-0.146c0.195-0.195,0.195-0.512,0-0.707L12.707,25l1.146-1.146c0.195-0.195,0.195-0.512,0-0.707
			s-0.512-0.195-0.707,0L12,24.293l-1.146-1.146c-0.195-0.195-0.512-0.195-0.707,0s-0.195,0.512,0,0.707L11.292,25l-1.146,1.146
			C9.951,26.341,9.951,26.659,10.146,26.854z M25.5,6C25.224,6,25,6.223,25,6.5S25.224,7,25.5,7S26,6.776,26,6.5S25.776,6,25.5,6z
			 M22.5,6C22.224,6,22,6.223,22,6.5S22.224,7,22.5,7S23,6.776,23,6.5S22.776,6,22.5,6z M4.5,4C3.673,4,3,4.672,3,5.5
			C3,6.326,3.673,7,4.5,7S6,6.326,6,5.5C6,4.672,5.327,4,4.5,4z M4.5,6C4.225,6,4,5.776,4,5.5S4.225,5,4.5,5S5,5.224,5,5.5
			S4.775,6,4.5,6z M16.5,6C16.224,6,16,6.223,16,6.5S16.224,7,16.5,7S17,6.776,17,6.5S16.776,6,16.5,6z M25.5,14
			c-0.276,0-0.5,0.224-0.5,0.5s0.224,0.5,0.5,0.5s0.5-0.224,0.5-0.5S25.776,14,25.5,14z M19.5,6C19.224,6,19,6.223,19,6.5
			S19.224,7,19.5,7S20,6.776,20,6.5S19.776,6,19.5,6z M22.5,14c-0.276,0-0.5,0.224-0.5,0.5s0.224,0.5,0.5,0.5s0.5-0.224,0.5-0.5
			S22.776,14,22.5,14z M19.5,14c-0.276,0-0.5,0.224-0.5,0.5s0.224,0.5,0.5,0.5s0.5-0.224,0.5-0.5S19.776,14,19.5,14z"/>
	</g>
</g>
</svg>
