<?xml version="1.0" encoding="iso-8859-1"?>
<!-- Generator: Adobe Illustrator 19.0.0, SVG Export Plug-In . SVG Version: 6.00 Build 0)  -->
<svg version="1.1" id="Layer_1" xmlns="http://www.w3.org/2000/svg" xmlns:xlink="http://www.w3.org/1999/xlink" x="0px" y="0px"
	 viewBox="0 0 30 30" style="enable-background:new 0 0 30 30;" xml:space="preserve">
<g>
	<g>
		<path d="M20.5,26h-6c-0.276,0-0.5,0.224-0.5,0.5s0.224,0.5,0.5,0.5h6c0.276,0,0.5-0.224,0.5-0.5S20.776,26,20.5,26z M3.5,25.5
			c-0.552,0-1,0.448-1,1c0,0.552,0.448,1,1,1c0.552,0,1-0.448,1-1C4.5,25.947,4.053,25.5,3.5,25.5z M6.5,16
			C6.776,16,7,15.776,7,15.496v-6c0-0.827,0.673-1.5,1.5-1.5h5.794l-0.146,0.146c-0.195,0.195-0.195,0.512,0,0.707
			s0.512,0.195,0.707,0l0.997-0.997c0.01-0.01,0.02-0.021,0.03-0.032c0.065-0.077,0.104-0.169,0.115-0.264
			c0.004-0.029,0.005-0.059,0.003-0.088c-0.007-0.116-0.055-0.231-0.143-0.321c-0.001,0-0.001,0-0.001,0s0,0-0.001,0
			c0-0.001-0.001-0.001-0.001-0.001l-1-1c-0.195-0.195-0.512-0.195-0.707,0c-0.097,0.098-0.146,0.226-0.146,0.354
			s0.048,0.256,0.146,0.354L14.294,7H8.5C7.122,7,6,8.122,6,9.5v6C6,15.776,6.224,16,6.5,16z M27.429,10.208l-2.038-0.51
			l-0.123-0.493c0.535-0.566,0.908-1.307,1.047-2.074c0.337-0.146,0.587-0.462,0.635-0.846l0.142-1.13
			c0.038-0.3-0.055-0.603-0.254-0.831c-0.08-0.092-0.174-0.169-0.278-0.228l0.04-0.835l0.157-0.158
			c0.305-0.323,0.716-1.017,0.054-2.029C26.49,0.585,25.827,0,24.488,0c-0.405,0-1.328,0-2.21,0.568
			c-2.553,0.074-2.885,1.357-2.885,2.475c0,0.229,0.046,0.686,0.084,1.033c-0.116,0.06-0.22,0.141-0.308,0.24
			c-0.202,0.229-0.297,0.534-0.259,0.837l0.142,1.13C19.101,6.678,19.362,7,19.753,7.141c0.137,0.737,0.49,1.453,0.994,2.008
			l-0.137,0.546l-2.038,0.51C17.059,10.583,16,11.938,16,13.5c0,0.133,0.052,0.261,0.146,0.354C16.24,13.946,16.367,14,16.5,14
			L29.5,14c0.276,0,0.5-0.224,0.5-0.5C30,11.94,28.943,10.586,27.429,10.208z M17.054,12.998c0.186-0.881,0.858-1.598,1.761-1.825
			l2.329-0.582c0.179-0.044,0.319-0.184,0.364-0.363l0.277-1.108c0.044-0.176-0.011-0.362-0.144-0.486
			c-0.532-0.5-0.885-1.232-0.943-1.958c-0.02-0.26-0.237-0.46-0.498-0.46l-0.156-0.057l-0.126-1.182l0.107-0.022
			c0.144,0,0.28-0.061,0.375-0.169c0.095-0.107,0.139-0.25,0.121-0.393c-0.036-0.286-0.129-1.086-0.129-1.351
			c0-0.683,0-1.458,2.048-1.478c0.102-0.001,0.203-0.033,0.286-0.093c0.659-0.472,1.404-0.472,1.761-0.472
			c0.726,0,1.213,0.204,1.486,0.621c0.33,0.505,0.157,0.688,0.065,0.786l-0.283,0.283c-0.088,0.088-0.14,0.205-0.146,0.33
			L25.54,4.434c-0.007,0.135,0.074,0.303,0.167,0.402c0.094,0.099,0.255,0.191,0.391,0.193l-0.142,1.13l-0.093,0.057
			c-0.261,0-0.478,0.201-0.498,0.461c-0.058,0.737-0.436,1.502-0.987,1.997c-0.137,0.123-0.196,0.313-0.151,0.493l0.266,1.062
			c0.045,0.179,0.184,0.32,0.364,0.364l2.329,0.582c0.903,0.225,1.574,0.943,1.761,1.824L17.054,12.998z M28.5,15
			c-0.276,0-0.5,0.224-0.5,0.5v7c0,0.276-0.225,0.5-0.5,0.5h-0.793l0.145-0.142c0.195-0.195,0.195-0.512,0-0.707
			s-0.512-0.195-0.707,0l-0.997,0.997c-0.01,0.01-0.02,0.021-0.03,0.032c-0.065,0.077-0.104,0.169-0.115,0.264
			c-0.004,0.029-0.005,0.059-0.003,0.088c0.007,0.116,0.055,0.231,0.143,0.321c0.001,0,0.001,0,0.001,0s0,0,0.001,0
			c0,0.001,0.001,0.001,0.001,0.001l1,1C26.245,24.951,26.372,25,26.5,25s0.256-0.048,0.353-0.146C26.951,24.755,27,24.628,27,24.5
			s-0.048-0.256-0.146-0.354L26.708,24H27.5c0.827,0,1.5-0.673,1.5-1.5v-7C29,15.224,28.776,15,28.5,15z M22,17H2
			c-1.103,0-2,0.897-2,2v3c0,0.6,0.271,1.133,0.691,1.5C0.272,23.866,0,24.399,0,25v3c0,1.103,0.897,2,2,2h20c1.103,0,2-0.897,2-2
			v-3c0-0.6-0.271-1.133-0.691-1.5C23.729,23.133,24,22.6,24,22v-3C24,17.896,23.104,17,22,17z M23,28c0,0.551-0.448,1-1,1H2
			c-0.552,0-1-0.449-1-1v-3c0-0.551,0.448-1,1-1h20c0.552,0,1,0.449,1,1V28z M23,22c0,0.551-0.448,1-1,1H2c-0.552,0-1-0.449-1-1v-3
			c0-0.551,0.448-1,1-1h20c0.552,0,1,0.449,1,1V22z M3.5,19.5c-0.552,0-1,0.448-1,1c0,0.552,0.448,1,1,1c0.552,0,1-0.448,1-1
			C4.5,19.947,4.053,19.5,3.5,19.5z M20.5,20h-6c-0.276,0-0.5,0.224-0.5,0.5s0.224,0.5,0.5,0.5h6c0.276,0,0.5-0.224,0.5-0.5
			S20.776,20,20.5,20z"/>
	</g>
</g>
</svg>
