<?xml version="1.0" encoding="utf-8"?>
<!-- Generator: Adobe Illustrator 19.0.0, SVG Export Plug-In . SVG Version: 6.00 Build 0)  -->
<svg version="1.1" id="Layer_1" xmlns="http://www.w3.org/2000/svg" xmlns:xlink="http://www.w3.org/1999/xlink" x="0px" y="0px"
	 viewBox="0 0 30 30" style="enable-background:new 0 0 30 30;" xml:space="preserve">
<g>
	<path d="M4.6,24.8l2.5-1.7C7.3,23,7.5,23,7.6,23l3.8,1.9l3.3-1.9c0.1-0.1,0.3-0.1,0.5,0l3.8,1.9l3.3-1.9c0.1-0.1,0.3-0.1,0.5,0
		l2.8,1.4c0.9-1.3,1.6-2.9,2-4.5H2.4C2.8,21.8,3.6,23.4,4.6,24.8z"/>
	<path d="M27.8,15H2.2C2.1,15.7,2,16.3,2,17s0.1,1.3,0.2,2h25.7c0.1-0.7,0.2-1.3,0.2-2S27.9,15.7,27.8,15z"/>
	<path d="M20,5C20,5,20,5,20,5l0-1.9C20,1.4,18.8,0,17.3,0h-4.5C11.2,0,10,1.4,10,3.1V5c0,0,0,0,0,0c-3.8,1.6-6.7,4.9-7.6,9h25.3
		C26.7,9.9,23.8,6.6,20,5z M11,4.6V3.1C11,1.9,11.8,1,12.8,1h4.5c1,0,1.8,0.9,1.8,2.1v1.6C17.7,4.2,16.4,4,15,4S12.3,4.2,11,4.6z"/>
	<path d="M19.3,25.9c-0.1,0.1-0.3,0.1-0.5,0L15,24.1l-3.3,1.9c-0.1,0.1-0.3,0.1-0.5,0l-3.8-1.9l-2.2,1.5C7.6,28.3,11.1,30,15,30
		c4,0,7.6-1.8,10-4.7l-2.4-1.2L19.3,25.9z"/>
</g>
</svg>
