<?xml version="1.0" encoding="utf-8"?>
<!-- Generator: Adobe Illustrator 19.0.0, SVG Export Plug-In . SVG Version: 6.00 Build 0)  -->
<svg version="1.1" id="Layer_1" xmlns="http://www.w3.org/2000/svg" xmlns:xlink="http://www.w3.org/1999/xlink" x="0px" y="0px"
	 viewBox="0 0 30 30" style="enable-background:new 0 0 30 30;" xml:space="preserve">
<path d="M28.5,10.5C27.5,9.6,26.3,9.1,25,9c0-0.1,0-0.2,0-0.2C21.7,2.4,17.5,0,15.6,0c-1,0-1.6,0.2-2,0.3c-0.5,0.2-0.8,0.2-1.4,0
	C11.9,0.2,11.4,0,10.6,0C9,0,5,4.4,4.1,7C4.1,7,4,7,4,7c-2.2,0-4,1.8-4,4s1.8,4,4,4c1.4,0,2.6-0.7,3.3-1.8c0.1,0.5,0.3,1.2,0.5,1.8
	c0.6,2.2,1.2,5,1.7,6.2c-0.9,1-1.4,2.2-1.4,3.5c0,1.4,0.6,2.7,1.5,3.7c1,1,2.3,1.5,3.7,1.5c1.4,0,2.7-0.5,3.7-1.5
	c0.4-0.4,0.8-0.9,1.1-1.5c1.9-2.5,4.4-4.4,6.6-6c1.6-1.1,2.9-2.1,3.8-3.2c1-1,1.5-2.3,1.5-3.7S29.4,11.5,28.5,10.5z M4,14
	c-1.7,0-3-1.3-3-3s1.3-3,3-3c0.2,0,0.3,0,0.5,0.1c0,0,0,0,0,0c0.2,0,0.3,0.1,0.5,0.1c0,0,0,0,0,0c0.2,0.1,0.3,0.1,0.5,0.2
	c0,0,0,0,0,0c0.3,0.2,0.6,0.4,0.8,0.7c0,0,0,0,0,0c0,0,0.1,0.1,0.1,0.1c0.3,0.4,0.4,0.8,0.5,1.2c0,0,0,0,0,0c0,0.1,0,0.3,0,0.5
	C7,12.7,5.7,14,4,14z M8,10.7c0-0.4-0.1-0.8-0.3-1.2C8.3,8.9,9.4,8,10.5,8C10.8,8,11,8.2,11,8.5S10.8,9,10.5,9
	C9.5,9,8.4,10.2,8,10.7z M27.7,17.2c-0.8,1-2.1,1.9-3.6,3c-2.3,1.7-4.8,3.5-6.9,6.2c0,0,0,0.1-0.1,0.1c-0.2,0.5-0.5,0.9-0.9,1.3
	c-0.8,0.8-1.9,1.2-3,1.2c-1.1,0-2.2-0.4-3-1.2C9.4,27,9,25.9,9,24.8s0.4-2.2,1.3-3c0.1-0.1,0.2-0.2,0.3-0.4c0,0,0,0,0,0
	c0.4-0.6,1.1-1.2,1.8-2c0,0,0.1-0.1,0.1-0.1c0.1-0.1,0.3-0.3,0.4-0.4c0.1-0.1,0.2-0.1,0.2-0.2c0.1-0.1,0.2-0.2,0.3-0.3
	c0.1-0.1,0.2-0.2,0.4-0.3c0.1-0.1,0.2-0.2,0.3-0.2c0.1-0.1,0.3-0.3,0.4-0.4c0.1-0.1,0.1-0.1,0.2-0.2c0.2-0.1,0.3-0.3,0.5-0.4
	c0.1-0.1,0.1-0.1,0.2-0.2c0.2-0.1,0.3-0.3,0.5-0.4c0.1-0.1,0.1-0.1,0.2-0.2c0.1-0.1,0.3-0.2,0.4-0.4c0.1-0.1,0.2-0.2,0.3-0.3
	c0.1-0.1,0.2-0.1,0.3-0.2c1-0.9,2-1.7,2.8-2.4c0.5-0.4,0.8-0.7,1.2-1c0.3-0.2,0.5-0.4,0.6-0.5c0.2-0.2,0.4-0.3,0.6-0.5
	c0.1,0,0.1-0.1,0.2-0.1c0.1-0.1,0.3-0.2,0.5-0.2c0.1,0,0.2-0.1,0.2-0.1c0.2-0.1,0.4-0.1,0.6-0.2c0,0,0.1,0,0.1,0l0,0
	c0.3-0.1,0.5-0.1,0.8-0.1c1.1,0,2.2,0.4,3,1.2c0.8,0.8,1.2,1.8,1.2,3S28.6,16.4,27.7,17.2z"/>
</svg>
