<?xml version="1.0" encoding="utf-8"?>
<!-- Generator: Adobe Illustrator 19.0.0, SVG Export Plug-In . SVG Version: 6.00 Build 0)  -->
<svg version="1.1" id="Layer_1" xmlns="http://www.w3.org/2000/svg" xmlns:xlink="http://www.w3.org/1999/xlink" x="0px" y="0px"
	 viewBox="0 0 30 30" style="enable-background:new 0 0 30 30;" xml:space="preserve">
<g>
	<path d="M19.4,26c0.2,0.2,0.5,0.2,0.7,0c1.7-1.9,3.9-8.3,3.2-12c0.1,0,0.2,0,0.3,0c0.3,0,0.5-0.1,0.6-0.2c0.2-0.2,0.4-0.5,0.5-0.9
		c0.6,0.6,1.4,1.1,2.3,1.1c1.7,0,3-1.3,3-3c0-1.6-1.2-2.8-2.8-3c-1.2-1.7-5.8-8-7.8-8c-1.2,0-2,0.2-2.6,0.3
		c-0.5,0.1-0.9,0.2-1.3,0.2c-0.6,0-1.2-0.1-1.8-0.3C13,0.1,12.4,0,11.8,0C10.3,0,6.2,4.4,6,9.1C5.4,9.6,5,10,5,10.4
		c0,1.2,0,2.6,0.8,3.4C5.9,13.9,6.1,14,6.3,14l0,0c0.1,0,0.2,0,0.3,0C6,17.7,8.1,24.1,9.8,26c0.2,0.2,0.5,0.2,0.7,0
		c0.2-0.2,0.3-0.4,0.5-0.7c0.4,1.4,1.3,3.2,3.7,4.6C14.8,30,14.9,30,15,30s0.2,0,0.3-0.1c2.4-1.5,3.3-3.3,3.7-4.6
		C19.1,25.6,19.2,25.8,19.4,26z M24.4,9.4L24.4,9.4L24.4,9.4C24.4,9.4,24.4,9.4,24.4,9.4z M29,11c0,1.1-0.9,2-2,2s-2-0.9-2-2
		c0-0.9,0.6-1.6,1.3-1.9L27,9C28.1,9,29,9.9,29,11z M20.1,4.1c0.2-0.2,0.5-0.2,0.7,0c1.3,1.3,2.3,3.9,2.6,4.5C23,8.4,22.5,8.2,22,8
		c-0.4-1-1.1-2.3-1.9-3.1C19.9,4.7,19.9,4.3,20.1,4.1z M6,10.4c0.1-0.2,0.4-0.4,0.9-0.7C7,9.6,7.1,9.5,7.2,9.5
		c0.7-0.4,1.5-0.8,2.4-1.2C10,8.2,10.3,8.1,10.6,8c0,0,0,0,0,0c1.1-0.4,2.3-0.7,3.3-0.9c0,0,0.1,0,0.1,0C14.4,7,14.7,7,15,7
		c0.3,0,0.6,0,0.9,0.1c0.1,0,0.1,0,0.2,0c0.3,0,0.6,0.1,0.9,0.2c0,0,0,0,0,0c0.3,0.1,0.6,0.2,0.9,0.2c0.1,0,0.2,0.1,0.3,0.1
		c0.2,0.1,0.4,0.1,0.6,0.2c2.5,0.9,4.9,2.2,5.1,2.6c0,0.9,0,2.1-0.4,2.6c-0.2-0.1-0.7-0.4-1.1-0.6C21,11.5,18.5,10,15,10
		s-6,1.5-7.5,2.4c-0.4,0.2-0.9,0.5-1.1,0.6C6,12.5,6,11.3,6,10.4z M8,13.3c1.4-0.8,3.8-2.3,7-2.3c3.2,0,5.6,1.4,7,2.3
		c0.1,0.1,0.2,0.1,0.2,0.1l-3.1,3.9c-0.6-0.5-2-1.3-4.1-1.3s-3.5,0.8-4.1,1.3l-3.1-3.9C7.9,13.4,7.9,13.3,8,13.3z M18.5,22.6
		c-0.3,0.1-0.4,0.3-0.4,0.6c0,0,0.5,3.3-3.1,5.7c-3.6-2.4-3.1-5.6-3.1-5.7c0-0.3-0.1-0.5-0.4-0.6c0,0-0.1,0-0.1,0
		c-0.2,0-0.4,0.1-0.5,0.4c-0.1,0.4-0.4,1.2-0.7,1.9c-1.4-2-2.9-7-2.7-10.1l2.9,3.6c0.1,0.1,0.2,0.2,0.4,0.2c0.2,0,0.3-0.1,0.4-0.2
		c0.1-0.1,1.3-1.3,3.8-1.3s3.8,1.3,3.8,1.3c0.1,0.1,0.2,0.2,0.4,0.2c0.1,0,0.3-0.1,0.4-0.2l2.9-3.6c0.3,3.1-1.3,8.1-2.7,10.1
		c-0.3-0.6-0.6-1.5-0.7-1.9C19,22.7,18.7,22.6,18.5,22.6z"/>
	<path d="M16.5,19c-0.3,0-0.5,0.2-0.5,0.5c0,0.2-0.4,0.5-1,0.5s-1-0.3-1-0.5c0-0.3-0.2-0.5-0.5-0.5S13,19.2,13,19.5
		c0,0.8,0.9,1.5,2,1.5s2-0.7,2-1.5C17,19.2,16.8,19,16.5,19z"/>
	<circle cx="11.5" cy="14.5" r="0.5"/>
	<circle cx="18.5" cy="14.5" r="0.5"/>
	<path d="M30,29.4c0-5.6-1.5-8.4-5.4-10c-0.1-0.1-0.3,0-0.4,0c-0.1,0.1-0.2,0.2-0.3,0.3c-0.7,3-1.9,5.8-3,7
		c-0.3,0.3-0.8,0.5-1.3,0.5c-0.2,0-0.4,0.1-0.5,0.3c-0.3,0.6-0.8,1.2-1.3,1.8c-0.1,0.1-0.2,0.4-0.1,0.5c0.1,0.2,0.3,0.3,0.5,0.3
		h11.3c0,0,0,0,0,0c0.3,0,0.5-0.2,0.5-0.5C30,29.4,30,29.4,30,29.4z"/>
	<path d="M10.9,27.4c-0.1-0.2-0.3-0.3-0.5-0.3c-0.5,0.1-0.9-0.1-1.3-0.5c-1.1-1.2-2.3-4-3-7c0-0.1-0.1-0.3-0.3-0.3
		c-0.1-0.1-0.3-0.1-0.4,0C1.5,21,0,23.8,0,29.5C0,29.8,0.2,30,0.5,30h11.3c0.2,0,0.4-0.1,0.5-0.3c0.1-0.2,0-0.4-0.1-0.5
		C11.7,28.6,11.2,28,10.9,27.4z"/>
</g>
</svg>
