<?xml version="1.0" encoding="utf-8"?>
<!-- Generator: Adobe Illustrator 19.0.0, SVG Export Plug-In . SVG Version: 6.00 Build 0)  -->
<svg version="1.1" id="Layer_1" xmlns="http://www.w3.org/2000/svg" xmlns:xlink="http://www.w3.org/1999/xlink" x="0px" y="0px"
	 viewBox="0 0 30 30" style="enable-background:new 0 0 30 30;" xml:space="preserve">
<path d="M27.9,19.6c-0.2-1.1-1-2-1.9-2.4v-6.4C26,4.9,21.1,0,15,0S4,4.9,4,10.8v6.4c-1.2,0.5-2,1.6-2,2.9c0,1.7,1.3,3.1,2.9,3.2
	L6,29.6C6,29.8,6.3,30,6.5,30c0,0,0,0,0,0c0.2,0,0.4-0.2,0.5-0.4l0.5-2.9c0.3-1.8,1.8-3.6,3.8-3.6h0.5c1.1,0,2.4,1,2.8,2.3l0.4,1.4
	c0.1,0.2,0.2,0.3,0.4,0.4c0.2,0,0.4-0.1,0.5-0.3l1-2.3c0.2-0.6,0.6-1.4,1.1-1.4H19c0.7,0,1.6,0.8,1.7,1.6l1.3,4.1
	c0.1,0.2,0.3,0.4,0.5,0.4c0.2,0,0.4-0.2,0.5-0.4l0.6-3.5c0.2-1.1,0.9-1.7,1.9-1.7c0.1,0,0.3-0.1,0.4-0.1l0.1-0.1
	c1.2-0.5,2.1-1.6,2.1-3C28,20,28,19.8,27.9,19.6z M16,4.7c0-0.2,0.1-0.3,0.2-0.4c0.1-0.1,0.3-0.1,0.4-0.1c3,0.7,5.2,3.3,5.4,6.3
	c0,0.1,0,0.3-0.1,0.4c-0.1,0.1-0.2,0.2-0.4,0.2h-5c-0.3,0-0.5-0.2-0.5-0.5V4.7z M16.5,13h5c0.3,0,0.5,0.2,0.5,0.5V18
	c-1-0.6-2.5-1-4.9-1c-0.4,0-0.8,0-1.1,0.1v-3.6C16,13.2,16.2,13,16.5,13z M13.4,4.2c0.1,0,0.3,0,0.4,0.1C13.9,4.4,14,4.5,14,4.7v5.8
	c0,0.3-0.2,0.5-0.5,0.5h-5c-0.1,0-0.3-0.1-0.4-0.2C8.1,10.7,8,10.6,8,10.5C8.2,7.5,10.4,4.9,13.4,4.2z M8.5,13h5
	c0.3,0,0.5,0.2,0.5,0.5v4.8c-1-0.7-2.6-1.3-5.4-1.3c-0.2,0-0.4,0-0.6,0v-3.5C8,13.2,8.2,13,8.5,13z M25.5,22.2
	c-0.1,0-0.1,0.1-0.2,0.1c-1.3,0.1-2.4,1.1-2.7,2.5l-0.3,1.5l-0.6-2.1C21.5,23.1,20.2,22,19,22h-0.9c-0.6,0-1.5,0.4-2.1,2l-0.5,1.1
	l0-0.1c-0.5-1.5-2-3-3.7-3h-0.5c-2.6,0-4.4,2.2-4.8,4.5l0,0.2l-0.7-3.9c0-0.3-0.3-0.4-0.5-0.4c0,0-0.2,0-0.2,0c-1.2,0-2.1-1-2.1-2.2
	c0-1,0.7-1.9,1.6-2.1c0,0,0,0,0,0C4.8,18,5,18,5.1,18c0.3,0,0.7,0.1,1,0.3c-0.3,0.7,0,1.6,0.7,2.5C6.9,20.9,7.1,21,7.2,21
	c0.1,0,0.2,0,0.3-0.1c0.2-0.2,0.3-0.5,0.1-0.7c-0.5-0.7-0.7-1.3-0.5-1.7c0-0.1,0.1-0.1,0.2-0.2c0,0,0.1-0.1,0.1-0.1
	c0,0,0.1-0.1,0.1-0.1c0,0,0.1,0,0.2-0.1c0.1,0,0.2-0.1,0.3-0.1c0,0,0,0,0.1,0c0.2,0,0.3,0,0.5,0c4.2,0,5.3,1.3,6.1,2.3
	c0.1,0.2,0.3,0.3,0.4,0.5c0,0,0,0,0,0h0c0,0,0,0,0,0c0,0,0.1,0,0.1,0.1c0,0,0,0,0.1,0c0.1,0,0.1,0,0.2,0c0,0,0,0,0,0c0,0,0,0,0,0
	c0.1,0,0.2,0,0.3-0.1c0,0,0,0,0,0c0,0,0,0,0,0c0,0,0,0,0,0c0,0,0,0,0-0.1c0,0,0-0.1,0.1-0.1c0,0,0-0.1,0-0.1c0,0,0-0.1,0-0.1
	c0,0,0-0.1,0-0.1c0,0,0-0.1,0-0.1c0,0,0-0.1,0-0.1c0,0,0,0,0-0.1c-0.9-1.1-0.8-1.5-0.7-1.7c0,0,0,0,0,0c0.1-0.1,0.3-0.4,1.3-0.5
	c0,0,0,0,0,0c0.2,0,0.3,0,0.6,0c2,0,3.3,0.3,4.1,0.7c-0.1,0-0.1-0.1-0.2-0.1c0.2,0.1,0.5,0.2,0.7,0.3c0.7,0.4,1.1,0.9,1.5,1.4
	c0.2,0.2,0.3,0.4,0.5,0.5c0.2,0.2,0.5,0.2,0.7,0s0.2-0.5,0-0.7c-0.1-0.1-0.3-0.3-0.4-0.5c-0.2-0.3-0.4-0.5-0.7-0.8
	c0.4-0.5,1-0.8,1.7-0.8c0.2,0,0.3,0,0.5,0.1c0,0,0,0,0,0c0.8,0.2,1.4,0.9,1.6,1.7c0,0.1,0,0.2,0,0.4C27,21.1,26.4,21.9,25.5,22.2z"
	/>
</svg>
