<?xml version="1.0" encoding="iso-8859-1"?>
<!-- Generator: Adobe Illustrator 19.0.0, SVG Export Plug-In . SVG Version: 6.00 Build 0)  -->
<svg version="1.1" id="Layer_1" xmlns="http://www.w3.org/2000/svg" xmlns:xlink="http://www.w3.org/1999/xlink" x="0px" y="0px"
	 viewBox="0 0 24 24" style="enable-background:new 0 0 24 24;" xml:space="preserve">
<g>
	<path d="M23.854,15.146L22,13.292V9.499c0-0.276-0.224-0.5-0.5-0.5h-2c-0.276,0-0.5,0.224-0.5,0.5v0.793l-2.146-2.146
		c-0.195-0.195-0.512-0.195-0.707,0l-7,7c-0.143,0.143-0.186,0.358-0.108,0.545C9.115,15.878,9.299,16,9.5,16H10v7.5
		c0,0.276,0.224,0.5,0.5,0.5h12c0.276,0,0.5-0.224,0.499-0.5V16h0.5c0.202,0,0.385-0.122,0.462-0.309
		C24.039,15.504,23.997,15.289,23.854,15.146z M22,15.5V23H11.002v-7.499c0-0.214-0.135-0.397-0.325-0.468l5.825-5.825l2.646,2.646
		c0.144,0.143,0.358,0.187,0.545,0.108c0.187-0.077,0.309-0.26,0.309-0.462V10h1v3.5c0,0.133,0.052,0.26,0.146,0.354l1.178,1.178
		C22.135,15.103,22,15.286,22,15.5z"/>
	<path d="M18.5,16h-4c-0.276,0-0.5,0.224-0.5,0.5v4c0,0.276,0.224,0.5,0.5,0.5h4c0.276,0,0.5-0.224,0.5-0.5v-4
		C19,16.224,18.776,16,18.5,16z M18,20h-3v-3h3V20z"/>
	<path d="M5.5,8C5.224,8,5,8.224,5,8.5v4C5,12.776,5.224,13,5.5,13h4c0.276,0,0.5-0.224,0.5-0.5v-4C10,8.224,9.776,8,9.5,8H5.5z
		 M9,12H6V9h3V12z"/>
	<path d="M7.503,22.001c-2.192-0.007-3.702-1.684-4.283-3.581l1.057,0.528c0.246,0.123,0.547,0.023,0.671-0.224
		c0.123-0.247,0.023-0.547-0.224-0.671l-2-1c-0.013-0.007-0.028-0.006-0.041-0.011C2.65,17.029,2.616,17.02,2.58,17.014
		c-0.033-0.005-0.065-0.007-0.098-0.006c-0.015,0.001-0.03-0.005-0.045-0.003c-0.015,0.002-0.026,0.011-0.041,0.014
		c-0.037,0.008-0.07,0.02-0.104,0.036c-0.026,0.012-0.05,0.025-0.074,0.042c-0.028,0.019-0.052,0.042-0.076,0.067
		c-0.022,0.023-0.041,0.047-0.058,0.075c-0.009,0.014-0.023,0.024-0.031,0.039l-1,2c-0.123,0.247-0.023,0.547,0.224,0.671
		c0.072,0.036,0.148,0.053,0.223,0.053c0.183,0,0.359-0.101,0.448-0.276l0.388-0.776c0.75,2.171,2.565,4.043,5.164,4.052l0,0
		c0.275,0,0.501-0.224,0.502-0.499C8.003,22.227,7.779,22.002,7.503,22.001z"/>
	<path d="M16.5,2c2.192,0.007,3.701,1.683,4.283,3.581l-1.058-0.529c-0.247-0.122-0.547-0.023-0.671,0.224
		c-0.123,0.247-0.023,0.547,0.224,0.671l2,1c0.006,0.003,0.013,0.002,0.019,0.005C21.36,6.98,21.428,7,21.5,7
		c0.021,0,0.043-0.001,0.064-0.004c0.07-0.009,0.135-0.033,0.192-0.068c0.005-0.003,0.009-0.009,0.014-0.012
		c0.065-0.043,0.115-0.101,0.154-0.168c0.006-0.011,0.018-0.015,0.024-0.026l1-2c0.123-0.247,0.023-0.547-0.224-0.671
		c-0.247-0.122-0.547-0.024-0.671,0.224l-0.388,0.777C20.915,2.881,19.1,1.008,16.502,1c-0.277,0.049-0.5,0.222-0.501,0.499
		C16,1.774,16.224,1.999,16.5,2z"/>
	<path d="M1.5,16h6C7.776,16,8,15.777,8,15.501s-0.224-0.5-0.5-0.5H2v-7.5c0-0.214-0.135-0.397-0.325-0.468L7.5,1.208l2.646,2.646
		c0.144,0.143,0.358,0.187,0.545,0.108C10.878,3.885,11,3.702,11,3.5V2h1v3.5c0,0.133,0.052,0.26,0.146,0.354l1.178,1.178
		C13.134,7.103,13,7.286,13,7.5v1C13,8.776,13.224,9,13.5,9S14,8.776,14,8.5V8h0.5c0.202,0,0.385-0.122,0.462-0.309
		c0.078-0.187,0.035-0.402-0.108-0.545L13,5.292V1.499c0-0.276-0.224-0.5-0.5-0.5h-2c-0.276,0-0.5,0.224-0.5,0.5v0.793L7.854,0.146
		c-0.195-0.195-0.512-0.195-0.707,0l-7,7C0.003,7.289-0.039,7.504,0.039,7.691C0.115,7.878,0.299,8,0.5,8H1v7.5
		C1,15.776,1.224,16,1.5,16z"/>
</g>
</svg>
