<?xml version="1.0" encoding="iso-8859-1"?>
<!-- Generator: Adobe Illustrator 19.0.0, SVG Export Plug-In . SVG Version: 6.00 Build 0)  -->
<svg version="1.1" id="Layer_1" xmlns="http://www.w3.org/2000/svg" xmlns:xlink="http://www.w3.org/1999/xlink" x="0px" y="0px"
	 viewBox="0 0 24 24" style="enable-background:new 0 0 24 24;" xml:space="preserve">
<g>
	<path d="M15.5,13c0.276,0,0.5-0.224,0.5-0.5S15.776,12,15.5,12h-7C8.224,12,8,12.224,8,12.5v7C8,19.776,8.224,20,8.5,20h3
		c0.276,0,0.5-0.224,0.5-0.5S11.776,19,11.5,19H9v-6H15.5z"/>
	<path d="M14.001,23h-10V11.5c0-0.276-0.224-0.5-0.5-0.5H1.708l9.793-9.793c0.264-0.264,0.734-0.265,0.999,0l3.647,3.647
		c0.143,0.143,0.359,0.187,0.545,0.108c0.187-0.077,0.309-0.26,0.309-0.462V1h3v7.5c0,0.133,0.052,0.26,0.146,0.354L22.293,11H20.5
		c-0.276,0-0.5,0.224-0.5,0.5V12c0,0.276,0.224,0.5,0.5,0.5S21,12.276,21,12h2.499c0.202,0,0.385-0.122,0.462-0.309
		c0.078-0.187,0.035-0.402-0.108-0.545l-2.854-2.854V0.5c0-0.276-0.224-0.5-0.5-0.5h-4c-0.276,0-0.5,0.224-0.5,0.5v2.793L13.206,0.5
		c-0.643-0.644-1.767-0.645-2.413,0L0.146,11.146c-0.143,0.143-0.186,0.358-0.108,0.545C0.115,11.878,0.298,12,0.5,12H3v11.5
		C3,23.776,3.224,24,3.5,24H14c0.276,0,0.501-0.224,0.501-0.5S14.277,23,14.001,23z"/>
	<path d="M18.5,13c-3.033,0-5.5,2.467-5.5,5.5s2.467,5.5,5.5,5.5s5.5-2.467,5.5-5.5S21.533,13,18.5,13z M18.5,23
		c-2.481,0-4.5-2.019-4.5-4.5s2.019-4.5,4.5-4.5s4.5,2.019,4.5,4.5S20.981,23,18.5,23z"/>
	<path d="M19,18.064v-1.019c0.622,0.095,0.99,0.337,1.004,0.453c0.035,0.274,0.287,0.467,0.559,0.434
		c0.274-0.035,0.469-0.285,0.434-0.559c-0.088-0.695-0.898-1.223-1.997-1.346V15.5c0-0.276-0.224-0.5-0.5-0.5S18,15.224,18,15.5
		v0.528c-1.169,0.132-1.999,0.72-1.999,1.471c0,1,1.182,1.308,1.999,1.435v1.021c-0.621-0.095-0.989-0.337-1.003-0.453
		c-0.035-0.274-0.281-0.467-0.559-0.434c-0.274,0.035-0.469,0.285-0.434,0.559c0.088,0.694,0.898,1.222,1.996,1.346V21.5
		c0,0.276,0.224,0.5,0.5,0.5s0.5-0.224,0.5-0.5v-0.528c1.169-0.132,2-0.72,2.001-1.473C21.001,18.498,19.817,18.192,19,18.064z
		 M17.001,17.5c0-0.101,0.359-0.354,0.999-0.453v0.874C17.016,17.742,17.001,17.502,17.001,17.5z M19,19.952v-0.874
		c0.985,0.179,1,0.42,1,0.422C20,19.581,19.664,19.85,19,19.952z"/>
</g>
</svg>
