<?xml version="1.0" encoding="iso-8859-1"?>
<!-- Generator: Adobe Illustrator 19.0.0, SVG Export Plug-In . SVG Version: 6.00 Build 0)  -->
<svg version="1.1" id="Layer_1" xmlns="http://www.w3.org/2000/svg" xmlns:xlink="http://www.w3.org/1999/xlink" x="0px" y="0px"
	 viewBox="0 0 24 24" style="enable-background:new 0 0 24 24;" xml:space="preserve">
<g>
	<path d="M16,0c-2.356,0-4.545,1.015-6.07,2.801C8.949,2.276,7.859,2,6.75,2C3.028,2,0,5.028,0,8.75s3.028,6.75,6.75,6.75
		c0.02,0,0.038,0,0.058,0C7.414,17.01,8.853,18,10.5,18c1.524,0,2.907-0.881,3.574-2.234C14.703,15.921,15.349,16,16,16
		c4.411,0,8-3.589,8-8S20.411,0,16,0z M15.999,15c-0.703,0-1.398-0.104-2.067-0.311c-0.254-0.078-0.528,0.059-0.618,0.311
		c-0.424,1.196-1.555,2-2.814,2c-1.334,0-2.485-0.869-2.864-2.161c-0.063-0.214-0.33-0.354-0.558-0.354c-0.013,0-0.024,0-0.038,0
		c-0.097,0.007-0.193,0.014-0.291,0.014c-3.171,0-5.75-2.58-5.75-5.75s2.579-5.75,5.75-5.75c1.069,0,2.118,0.302,3.034,0.873
		c0.218,0.135,0.504,0.084,0.661-0.12C11.785,2.003,13.81,1,15.999,1c3.859,0,7,3.14,7,7S19.858,15,15.999,15z"/>
	<path d="M7,18c-1.103,0-2,0.897-2,2s0.897,2,2,2s2-0.897,2-2S8.103,18,7,18z M7,21c-0.552,0-1-0.449-1-1s0.448-1,1-1s1,0.449,1,1
		S7.552,21,7,21z"/>
	<path d="M2.5,21C1.673,21,1,21.673,1,22.5S1.673,24,2.5,24S4,23.327,4,22.5S3.327,21,2.5,21z M2.5,23C2.225,23,2,22.776,2,22.5
		S2.225,22,2.5,22S3,22.224,3,22.5S2.775,23,2.5,23z"/>
	<path d="M12.853,4.146c-0.195-0.195-0.512-0.195-0.707,0l-4,4C8.004,8.289,7.961,8.504,8.038,8.691C8.115,8.878,8.298,9,8.5,9H9
		v3.5C9,12.776,9.224,13,9.5,13h2c0.276,0,0.5-0.224,0.5-0.5V10h1v2.5c0,0.276,0.224,0.5,0.5,0.5h2c0.276,0,0.5-0.224,0.5-0.5V9h0.5
		c0.202,0,0.383-0.122,0.461-0.309s0.035-0.402-0.108-0.545L12.853,4.146z M15,8.5V12h-1V9.5C14,9.224,13.776,9,13.5,9h-2
		C11.224,9,11,9.224,11,9.5V12h-1V8.5c0-0.214-0.135-0.397-0.324-0.468L12.5,5.207l2.824,2.825C15.135,8.103,15,8.286,15,8.5z"/>
</g>
</svg>
