<?xml version="1.0" encoding="utf-8"?>
<!-- Generator: Adobe Illustrator 19.0.0, SVG Export Plug-In . SVG Version: 6.00 Build 0)  -->
<svg version="1.1" id="Layer_1" xmlns="http://www.w3.org/2000/svg" xmlns:xlink="http://www.w3.org/1999/xlink" x="0px" y="0px"
	 viewBox="0 0 30 30" style="enable-background:new 0 0 30 30;" xml:space="preserve">
<g>
	<g>
		<polygon points="6.4,14.5 9,14.5 9,11.5 8.3,11.5 		"/>
		<rect x="13" y="11.5" width="4" height="3"/>
		<path d="M28.7,9.6l-2-1c-0.1,0-0.1-0.1-0.2-0.1h-20c-0.2,0-0.3,0.1-0.4,0.2l-4,5C2,13.8,2,13.9,2,14v4.5H1.5C1.2,18.5,1,18.7,1,19
			v2c0,0.3,0.2,0.5,0.5,0.5h0.6c0.2,0,0.3-0.1,0.4-0.2c0.6-1.1,1.8-1.8,3-1.8s2.4,0.7,3,1.8c0.1,0.2,0.3,0.2,0.4,0.2H21
			c0.2,0,0.3-0.1,0.4-0.2c0.6-1.1,1.8-1.8,3-1.8h-16c-0.1,0-0.2,0-0.2-0.1l-2-1C6,18.3,5.9,18,6,17.7c0.1-0.2,0.4-0.3,0.7-0.2
			l1.9,0.9h18.9c0.3,0,0.5,0.2,0.5,0.5s-0.2,0.5-0.5,0.5h-3c1.2,0,2.4,0.7,3,1.8c0.1,0.2,0.3,0.2,0.4,0.2h0.6c0.3,0,0.5-0.2,0.5-0.5
			v-11C29,9.8,28.9,9.6,28.7,9.6z M10,15c0,0.3-0.2,0.5-0.5,0.5h-4c-0.2,0-0.3-0.1-0.4-0.3C5,15,5,14.8,5.1,14.7l2.5-4
			c0.1-0.1,0.3-0.2,0.4-0.2h1.5c0.3,0,0.5,0.2,0.5,0.5V15z M18,15c0,0.3-0.2,0.5-0.5,0.5h-5c-0.3,0-0.5-0.2-0.5-0.5v-4
			c0-0.3,0.2-0.5,0.5-0.5h5c0.3,0,0.5,0.2,0.5,0.5V15z M25.8,14.6c0.2,0.2,0.3,0.5,0.1,0.7c-0.1,0.1-0.2,0.2-0.4,0.2
			c-0.1,0-0.2,0-0.3-0.1L24,14.5V16c0,0.3-0.2,0.5-0.5,0.5S23,16.3,23,16v-1.5l-1.2,0.9c-0.1,0.1-0.2,0.1-0.3,0.1
			c-0.2,0-0.3-0.1-0.4-0.2c-0.2-0.2-0.1-0.5,0.1-0.7l1.5-1.1l-1.5-1.1c-0.2-0.2-0.3-0.5-0.1-0.7c0.2-0.2,0.5-0.3,0.7-0.1l1.2,0.9V11
			c0-0.3,0.2-0.5,0.5-0.5S24,10.7,24,11v1.5l1.2-0.9c0.2-0.2,0.5-0.1,0.7,0.1s0.1,0.5-0.1,0.7l-1.5,1.1L25.8,14.6z"/>
	</g>
	<g>
		<circle cx="24.5" cy="23" r="2.5"/>
		<circle cx="5.5" cy="23" r="2.5"/>
		<path d="M13.5,4.5h-1C11.7,4.5,11,5.2,11,6v3c0,0.3,0.2,0.5,0.5,0.5S12,9.3,12,9h2c0,0.3,0.2,0.5,0.5,0.5S15,9.3,15,9V6
			C15,5.2,14.3,4.5,13.5,4.5z"/>
	</g>
</g>
</svg>
