<?xml version="1.0" encoding="utf-8"?>
<!-- Generator: Adobe Illustrator 19.0.0, SVG Export Plug-In . SVG Version: 6.00 Build 0)  -->
<svg version="1.1" id="Layer_1" xmlns="http://www.w3.org/2000/svg" xmlns:xlink="http://www.w3.org/1999/xlink" x="0px" y="0px"
	 viewBox="0 0 30 30" style="enable-background:new 0 0 30 30;" xml:space="preserve">
<g>
	<g>
		<path d="M11,30C11,30,11,30,11,30c-0.3,0-0.5-0.2-0.5-0.5c0-1.4,0.6-2.6,1.5-3.2c0.2-0.1,0.5-0.1,0.7,0.2c0.1,0.2,0.1,0.5-0.2,0.7
			c-0.6,0.3-1,1.3-1,2.3C11.5,29.8,11.3,30,11,30z"/>
	</g>
	<g>
		<path d="M15,30c-0.3,0-0.5-0.2-0.5-0.5v-20C14.5,9.2,14.7,9,15,9s0.5,0.2,0.5,0.5v20C15.5,29.8,15.3,30,15,30z"/>
	</g>
	<g>
		<path d="M17,25c-0.2,0-0.3-0.1-0.4-0.2c-0.2-0.2-0.1-0.5,0.1-0.7c1.6-1.1,2.4-2.1,2.3-2.9c-0.1-1.2-2.4-2-3.6-2.5
			c-0.3-0.1-0.5-0.2-0.7-0.3c-0.3-0.1-0.4-0.4-0.3-0.7c0.1-0.3,0.4-0.4,0.7-0.3c0.2,0.1,0.4,0.2,0.6,0.3c1.5,0.6,4,1.5,4.2,3.3
			c0.1,1.2-0.8,2.4-2.7,3.8C17.2,25,17.1,25,17,25z"/>
	</g>
	<g>
		<path d="M19,30C19,30,19,30,19,30c-0.3,0-0.5-0.3-0.5-0.5c0-0.1,0.1-2.4-3.6-3.5c-3.7-1.1-5.5-2.3-5.7-3.7
			c-0.1-1.1,0.7-2.2,2.6-3.2c0.2-0.1,0.5,0,0.7,0.2c0.1,0.2,0,0.5-0.2,0.7c-1.4,0.8-2.1,1.6-2.1,2.2c0.1,0.5,0.8,1.6,5,2.9
			c4.6,1.3,4.4,4.4,4.4,4.5C19.5,29.8,19.3,30,19,30z"/>
	</g>
	<g>
		<path d="M15.2,17.5c-1.4-0.6-3.5-2-3.7-3.2c-0.1-0.4,0.1-0.7,0.4-1c0.7-0.7,0.6-1.4,0.1-1.8c-0.6-0.7-1.9-0.8-2.8,0.1
			c-0.8,0.8-0.9,1.6-0.8,2.2c0.5,2.2,4.4,4.1,6.2,4.7c0.1,0,0.1,0,0.2,0c0,0,0.1,0,0.1,0c0.2,0.1,0.5-0.1,0.6-0.3
			C15.6,17.9,15.5,17.7,15.2,17.5z"/>
		<path d="M20.4,11.6c-0.4-0.4-1-0.7-1.5-0.7c-0.7,0-1.3,0.4-1.6,0.9c-0.2,0.5-0.1,1,0.4,1.4c0.3,0.3,0.5,0.6,0.5,0.8
			c0,0.5-0.6,1.1-1.2,1.7l-0.3,0.3c-0.2,0.2-0.2,0.4-0.1,0.6c0.1,0.2,0.3,0.2,0.4,0.2c0.1,0,0.1,0,0.2,0c2.2-0.7,3.7-1.8,4-3.1
			C21.3,13.4,21.2,12.5,20.4,11.6z"/>
		<path d="M15,7c1.9,0,3.5-1.6,3.5-3.5S16.9,0,15,0s-3.5,1.6-3.5,3.5S13.1,7,15,7z"/>
	</g>
	<path d="M29,7c-1.2,0-2.6-0.8-4-1.5C23.6,4.7,22.2,4,21,4c-0.4,0-0.8,0.1-1.3,0.2c-0.2,0-0.3,0.2-0.4,0.4C18.9,6.6,17.1,8,15,8
		c-2,0-3.7-1.3-4.3-3.2c0-0.2-0.2-0.3-0.3-0.3C9.4,4.2,8.6,4,8,4C6.8,4,5.6,4.8,4.4,5.5C3.3,6.2,2.1,7,1,7C0.8,7,0.5,7.2,0.5,7.4
		c0,0.2,0.1,0.5,0.3,0.6c0.1,0,6.5,2,14.2,2s14.1-2,14.2-2c0.2-0.1,0.4-0.3,0.3-0.6C29.5,7.2,29.2,7,29,7z"/>
</g>
</svg>
