<?xml version="1.0" encoding="utf-8"?>
<!-- Generator: Adobe Illustrator 19.0.0, SVG Export Plug-In . SVG Version: 6.00 Build 0)  -->
<svg version="1.1" id="Layer_1" xmlns="http://www.w3.org/2000/svg" xmlns:xlink="http://www.w3.org/1999/xlink" x="0px" y="0px"
	 viewBox="0 0 30 30" style="enable-background:new 0 0 30 30;" xml:space="preserve">
<g>
	<g>
		<path d="M19,29.5h-8c-1.4,0-2.5-1.1-2.5-2.5v-5.5H3c-1.4,0-2.5-1.1-2.5-2.5v-8c0-1.4,1.1-2.5,2.5-2.5h5.5V3c0-1.4,1.1-2.5,2.5-2.5
			h8c1.4,0,2.5,1.1,2.5,2.5v5.5H27c1.4,0,2.5,1.1,2.5,2.5v8c0,1.4-1.1,2.5-2.5,2.5h-5.5V27C21.5,28.4,20.4,29.5,19,29.5z M3,9.5
			c-0.8,0-1.5,0.7-1.5,1.5v8c0,0.8,0.7,1.5,1.5,1.5h6c0.3,0,0.5,0.2,0.5,0.5v6c0,0.8,0.7,1.5,1.5,1.5h8c0.8,0,1.5-0.7,1.5-1.5v-6
			c0-0.3,0.2-0.5,0.5-0.5h6c0.8,0,1.5-0.7,1.5-1.5v-8c0-0.8-0.7-1.5-1.5-1.5h-6c-0.3,0-0.5-0.2-0.5-0.5V3c0-0.8-0.7-1.5-1.5-1.5h-8
			c-0.8,0-1.5,0.7-1.5,1.5v6c0,0.3-0.2,0.5-0.5,0.5H3z"/>
	</g>
	<g>
		<path d="M18,8.5h-6c-0.2,0-0.4-0.1-0.4-0.3s-0.1-0.4,0-0.5l3-4c0.2-0.3,0.6-0.3,0.8,0l3,4c0.1,0.2,0.1,0.4,0,0.5S18.2,8.5,18,8.5z
			 M13,7.5h4l-2-2.7L13,7.5z"/>
	</g>
	<g>
		<path d="M15,26.5c-0.2,0-0.3-0.1-0.4-0.2l-3-4c-0.1-0.2-0.1-0.4,0-0.5s0.3-0.3,0.4-0.3h6c0.2,0,0.4,0.1,0.4,0.3s0.1,0.4,0,0.5
			l-3,4C15.3,26.4,15.2,26.5,15,26.5z M13,22.5l2,2.7l2-2.7H13z"/>
	</g>
	<g>
		<path d="M22,18.5c-0.1,0-0.2,0-0.2-0.1c-0.2-0.1-0.3-0.3-0.3-0.4v-6c0-0.2,0.1-0.4,0.3-0.4c0.2-0.1,0.4-0.1,0.5,0l4,3
			c0.1,0.1,0.2,0.2,0.2,0.4s-0.1,0.3-0.2,0.4l-4,3C22.2,18.5,22.1,18.5,22,18.5z M22.5,13v4l2.7-2L22.5,13z"/>
	</g>
	<g>
		<path d="M8,18.5c-0.1,0-0.2,0-0.3-0.1l-4-3c-0.1-0.1-0.2-0.2-0.2-0.4s0.1-0.3,0.2-0.4l4-3c0.2-0.1,0.4-0.1,0.5,0
			c0.2,0.1,0.3,0.3,0.3,0.4v6c0,0.2-0.1,0.4-0.3,0.4C8.2,18.5,8.1,18.5,8,18.5z M4.8,15l2.7,2v-4L4.8,15z"/>
	</g>
	<g>
		<path d="M15,17.5c-1.4,0-2.5-1.1-2.5-2.5s1.1-2.5,2.5-2.5s2.5,1.1,2.5,2.5S16.4,17.5,15,17.5z M15,13.5c-0.8,0-1.5,0.7-1.5,1.5
			s0.7,1.5,1.5,1.5s1.5-0.7,1.5-1.5S15.8,13.5,15,13.5z"/>
	</g>
</g>
</svg>
