<?xml version="1.0" encoding="utf-8"?>
<!-- Generator: Adobe Illustrator 19.0.0, SVG Export Plug-In . SVG Version: 6.00 Build 0)  -->
<svg version="1.1" id="Layer_1" xmlns="http://www.w3.org/2000/svg" xmlns:xlink="http://www.w3.org/1999/xlink" x="0px" y="0px"
	 viewBox="0 0 30 30" style="enable-background:new 0 0 30 30;" xml:space="preserve">
<g>
	<g>
		<path d="M8.5,14.5C8.2,14.5,8,14.3,8,14V8c0-1.4,1.1-2.5,2.5-2.5S13,6.6,13,8v2c0,0.3-0.2,0.5-0.5,0.5S12,10.3,12,10V8
			c0-0.8-0.7-1.5-1.5-1.5S9,7.2,9,8v6C9,14.3,8.8,14.5,8.5,14.5z"/>
	</g>
	<g>
		<path d="M16.5,10.5c-0.3,0-0.5-0.2-0.5-0.5V7c0-0.8-0.7-1.5-1.5-1.5S13,6.2,13,7v3c0,0.3-0.2,0.5-0.5,0.5S12,10.3,12,10V7
			c0-1.4,1.1-2.5,2.5-2.5S17,5.6,17,7v3C17,10.3,16.8,10.5,16.5,10.5z"/>
	</g>
	<g>
		<path d="M20.5,10.5c-0.3,0-0.5-0.2-0.5-0.5V8c0-0.8-0.7-1.5-1.5-1.5S17,7.2,17,8v2c0,0.3-0.2,0.5-0.5,0.5S16,10.3,16,10V8
			c0-1.4,1.1-2.5,2.5-2.5S21,6.6,21,8v2C21,10.3,20.8,10.5,20.5,10.5z"/>
	</g>
	<g>
		<path d="M16.4,25.5c-2.8,0-5.3-1-7.3-2.8l-2.7-2.5c-0.9-0.8-1.4-1.9-1.4-3v-1.9c0-1.1,0.5-2.2,1.4-3l1.5-1.4
			c0.2-0.2,0.5-0.2,0.7,0c0.2,0.2,0.2,0.5,0,0.7L7,13c-0.7,0.6-1,1.4-1,2.3v1.9c0,0.9,0.4,1.7,1,2.3L9.7,22c1.7,1.6,4.1,2.5,6.6,2.5
			c4.2,0,7.6-3.1,7.6-7V10c0-0.8-0.7-1.5-1.5-1.5S21,9.2,21,10v1c0,0.3-0.2,0.5-0.5,0.5S20,11.3,20,11v-1c0-1.4,1.1-2.5,2.5-2.5
			S25,8.6,25,10v7.5C25,21.9,21.1,25.5,16.4,25.5z"/>
	</g>
</g>
</svg>
