<?xml version="1.0" encoding="iso-8859-1"?>
<!-- Generator: Adobe Illustrator 18.0.0, SVG Export Plug-In . SVG Version: 6.00 Build 0)  -->
<!DOCTYPE svg PUBLIC "-//W3C//DTD SVG 1.1//EN" "http://www.w3.org/Graphics/SVG/1.1/DTD/svg11.dtd">
<svg version="1.1" id="Layer_1" xmlns="http://www.w3.org/2000/svg" xmlns:xlink="http://www.w3.org/1999/xlink" x="0px" y="0px"
	 viewBox="0 0 24 24" style="enable-background:new 0 0 24 24;" xml:space="preserve">
<g>
	<g>
		<g>
			<path d="M9.619,18.461c-0.067,0-0.136-0.014-0.198-0.041C7.039,17.389,5.5,15.047,5.5,12.454c0-0.234,0.014-0.466,0.038-0.694
				c0.015-0.142,0.09-0.271,0.205-0.354c0.116-0.083,0.263-0.111,0.401-0.082c1.491,0.333,2.728,1.234,3.48,2.538
				c0.746,1.293,0.913,2.8,0.473,4.245c-0.042,0.136-0.14,0.248-0.269,0.308C9.763,18.446,9.69,18.461,9.619,18.461z M6.5,12.468
				c0.005,1.986,1.077,3.796,2.778,4.765c0.165-0.992-0.013-1.993-0.52-2.87C8.247,13.476,7.458,12.818,6.5,12.468z"/>
			<path d="M14.381,18.461c-0.071,0-0.144-0.016-0.21-0.046c-0.129-0.06-0.227-0.172-0.269-0.308
				c-0.44-1.445-0.273-2.952,0.472-4.245c0.754-1.304,1.99-2.205,3.481-2.538c0.139-0.029,0.285-0.001,0.401,0.082
				c0.115,0.083,0.19,0.212,0.205,0.354c0.024,0.229,0.038,0.46,0.038,0.694c0,2.593-1.539,4.935-3.921,5.966
				C14.517,18.448,14.448,18.461,14.381,18.461z M17.5,12.468c-0.958,0.35-1.747,1.008-2.26,1.895
				c-0.506,0.877-0.684,1.878-0.519,2.87C16.423,16.264,17.495,14.454,17.5,12.468z"/>
			<path d="M12,9.749c-1.513,0-2.916-0.626-3.952-1.762C7.952,7.883,7.906,7.743,7.919,7.604c0.014-0.141,0.086-0.27,0.199-0.354
				c2.268-1.695,5.496-1.695,7.764,0c0.113,0.084,0.186,0.213,0.199,0.354c0.013,0.14-0.033,0.279-0.129,0.384
				C14.916,9.123,13.513,9.749,12,9.749z M9.209,7.722c1.57,1.332,4.012,1.332,5.582,0C13.098,6.714,10.902,6.714,9.209,7.722z"/>
		</g>
		<path d="M12,13.954c-0.827,0-1.5-0.673-1.5-1.5s0.673-1.5,1.5-1.5s1.5,0.673,1.5,1.5S12.827,13.954,12,13.954z M12,11.954
			c-0.275,0-0.5,0.225-0.5,0.5s0.225,0.5,0.5,0.5s0.5-0.225,0.5-0.5S12.275,11.954,12,11.954z"/>
		<path d="M16.661,22.175c-1.216,0-2.417-0.322-3.474-0.933c-0.422-0.243-0.819-0.534-1.188-0.867
			c-0.368,0.333-0.766,0.624-1.188,0.867c-1.674,0.967-3.722,1.188-5.571,0.612c-0.228-0.071-0.374-0.295-0.348-0.532
			c0.026-0.238,0.217-0.424,0.455-0.443c0.66-0.056,1.27-0.242,1.813-0.556c2.083-1.203,2.8-3.877,1.598-5.961
			c-0.778-1.347-2.229-2.183-3.785-2.183c-0.761,0-1.514,0.202-2.177,0.585c-0.542,0.313-1.009,0.749-1.388,1.293
			c-0.136,0.196-0.39,0.269-0.611,0.173c-0.219-0.097-0.339-0.334-0.287-0.567c0.429-1.902,1.637-3.549,3.315-4.519
			C4.25,8.901,4.701,8.701,5.173,8.55C5.067,8.065,5.015,7.574,5.015,7.087c0-1.937,0.822-3.807,2.256-5.13
			c0.175-0.163,0.44-0.176,0.635-0.036c0.192,0.142,0.259,0.399,0.156,0.616C7.78,3.138,7.637,3.76,7.637,4.385
			c0,2.406,1.957,4.364,4.363,4.364s4.363-1.958,4.363-4.364c0-0.625-0.143-1.247-0.425-1.848c-0.103-0.217-0.036-0.475,0.156-0.616
			c0.194-0.14,0.46-0.127,0.635,0.036c1.434,1.323,2.256,3.193,2.256,5.13c0,0.487-0.053,0.978-0.158,1.463
			c0.472,0.151,0.923,0.351,1.346,0.595c1.679,0.969,2.887,2.615,3.315,4.519c0.052,0.233-0.068,0.471-0.287,0.567
			c-0.221,0.094-0.476,0.023-0.611-0.173c-0.379-0.544-0.846-0.979-1.388-1.293c-0.663-0.383-1.416-0.585-2.177-0.585
			c-1.557,0-3.007,0.836-3.785,2.183c-1.202,2.084-0.485,4.758,1.598,5.962c0.544,0.313,1.153,0.499,1.813,0.555
			c0.238,0.02,0.429,0.205,0.455,0.443c0.026,0.237-0.12,0.461-0.348,0.532C18.077,22.067,17.371,22.175,16.661,22.175z
			 M4.975,11.18c1.913,0,3.695,1.028,4.65,2.683c1.47,2.546,0.608,5.809-1.917,7.301c0.913-0.058,1.807-0.326,2.604-0.786
			c0.481-0.278,0.929-0.63,1.327-1.045c0.188-0.197,0.533-0.197,0.721,0c0.398,0.415,0.846,0.767,1.327,1.045
			c0.798,0.46,1.691,0.729,2.604,0.786c-2.525-1.492-3.387-4.755-1.917-7.301c0.955-1.654,2.737-2.683,4.65-2.683
			c0.916,0,1.822,0.238,2.625,0.689c-0.505-0.758-1.179-1.398-1.978-1.859c-0.483-0.278-1.011-0.489-1.568-0.626
			c-0.132-0.032-0.245-0.117-0.313-0.235s-0.086-0.259-0.048-0.39c0.161-0.553,0.242-1.115,0.242-1.672
			c0-0.941-0.215-1.845-0.622-2.659C17.34,7.366,14.943,9.749,12,9.749c-2.938,0-5.331-2.374-5.363-5.305
			C6.232,5.261,6.015,6.165,6.015,7.087c0,0.557,0.081,1.119,0.242,1.672c0.038,0.131,0.021,0.271-0.048,0.39
			S6.027,9.352,5.896,9.384C5.338,9.521,4.811,9.732,4.327,10.01c-0.814,0.472-1.489,1.108-1.99,1.867
			C3.143,11.421,4.054,11.18,4.975,11.18z"/>
	</g>
</g>
<g>
</g>
<g>
</g>
<g>
</g>
<g>
</g>
<g>
</g>
<g>
</g>
<g>
</g>
<g>
</g>
<g>
</g>
<g>
</g>
<g>
</g>
<g>
</g>
<g>
</g>
<g>
</g>
<g>
</g>
</svg>
