<?xml version="1.0" encoding="iso-8859-1"?>
<!-- Generator: Adobe Illustrator 18.0.0, SVG Export Plug-In . SVG Version: 6.00 Build 0)  -->
<!DOCTYPE svg PUBLIC "-//W3C//DTD SVG 1.1//EN" "http://www.w3.org/Graphics/SVG/1.1/DTD/svg11.dtd">
<svg version="1.1" id="Layer_1" xmlns="http://www.w3.org/2000/svg" xmlns:xlink="http://www.w3.org/1999/xlink" x="0px" y="0px"
	 viewBox="0 0 24 24" style="enable-background:new 0 0 24 24;" xml:space="preserve">
<g>
	<g>
		<path d="M12.5,14c-0.128,0-0.256-0.049-0.354-0.146l-4-4c-0.195-0.195-0.195-0.512,0-0.707l8-8c0.195-0.195,0.512-0.195,0.707,0
			l4,4c0.195,0.195,0.195,0.512,0,0.707l-1.732,1.732c-0.195,0.195-0.512,0.195-0.707,0C18.036,7.208,17.534,7,17,7
			c-1.103,0-2,0.897-2,2c0,0.534,0.208,1.036,0.586,1.414c0.195,0.195,0.195,0.512,0,0.707l-2.732,2.732
			C12.756,13.951,12.628,14,12.5,14z M9.207,9.5l3.293,3.293l2.055-2.055C14.194,10.234,14,9.632,14,9c0-1.654,1.346-3,3-3
			c0.632,0,1.234,0.194,1.738,0.555L19.793,5.5L16.5,2.207L9.207,9.5z"/>
		<path d="M20.5,24h-14C6.224,24,6,23.776,6,23.5v-1.613C5.01,21.096,4.251,20.127,3.739,19H2.5C2.224,19,2,18.776,2,18.5v-2
			C2,16.224,2.224,16,2.5,16h9c0.276,0,0.5,0.224,0.5,0.5v2c0,0.276-0.224,0.5-0.5,0.5H8.774c0.951,0.65,2.232,1,3.726,1
			c3.032,0,5.5-2.468,5.5-5.5c0-0.992-0.275-1.972-0.796-2.832c-0.082-0.135-0.095-0.301-0.036-0.446
			c0.06-0.146,0.185-0.256,0.337-0.296C18.386,10.695,19,9.903,19,9c-0.017-0.218,0.104-0.479,0.307-0.56
			c0.205-0.081,0.429-0.077,0.565,0.092C21.265,10.246,22,12.31,22,14.5c0,1.979-0.621,3.896-1.766,5.5H20.5
			c0.276,0,0.5,0.224,0.5,0.5v3C21,23.776,20.776,24,20.5,24z M7,23h13v-2h-0.806c-0.197,0-0.376-0.116-0.457-0.296
			c-0.08-0.181-0.047-0.391,0.085-0.538C20.227,18.601,21,16.588,21,14.5c0-1.563-0.419-3.055-1.222-4.372
			c-0.272,0.664-0.78,1.217-1.435,1.545C18.774,12.555,19,13.521,19,14.5c0,3.584-2.916,6.5-6.5,6.5
			c-2.336,0-4.251-0.776-5.392-2.186c-0.121-0.149-0.146-0.355-0.063-0.529C7.129,18.11,7.305,18,7.497,18H11v-1H3v1h1.069
			c0.204,0,0.388,0.124,0.464,0.313c0.471,1.167,1.233,2.152,2.268,2.93C6.926,21.336,7,21.484,7,21.642V23z"/>
	</g>
	<path d="M9.5,15c-0.128,0-0.256-0.049-0.354-0.146l-2-2c-0.195-0.195-0.195-0.512,0-0.707l2-2c0.195-0.195,0.512-0.195,0.707,0l2,2
		c0.195,0.195,0.195,0.512,0,0.707l-2,2C9.756,14.951,9.628,15,9.5,15z M8.207,12.5L9.5,13.793l1.293-1.293L9.5,11.207L8.207,12.5z"
		/>
	<path d="M19.5,5c-0.128,0-0.256-0.049-0.354-0.146l-2-2c-0.195-0.195-0.195-0.512,0-0.707l2-2c0.195-0.195,0.512-0.195,0.707,0l2,2
		c0.195,0.195,0.195,0.512,0,0.707l-2,2C19.756,4.951,19.628,5,19.5,5z M18.207,2.5L19.5,3.793L20.793,2.5L19.5,1.207L18.207,2.5z"
		/>
	<path d="M17,12c-1.654,0-3-1.346-3-3s1.346-3,3-3s3,1.346,3,3S18.654,12,17,12z M17,7c-1.103,0-2,0.897-2,2s0.897,2,2,2
		s2-0.897,2-2S18.103,7,17,7z"/>
</g>
<g>
</g>
<g>
</g>
<g>
</g>
<g>
</g>
<g>
</g>
<g>
</g>
<g>
</g>
<g>
</g>
<g>
</g>
<g>
</g>
<g>
</g>
<g>
</g>
<g>
</g>
<g>
</g>
<g>
</g>
</svg>
