<?xml version="1.0" encoding="iso-8859-1"?>
<!-- Generator: Adobe Illustrator 19.0.0, SVG Export Plug-In . SVG Version: 6.00 Build 0)  -->
<svg version="1.1" id="Layer_1" xmlns="http://www.w3.org/2000/svg" xmlns:xlink="http://www.w3.org/1999/xlink" x="0px" y="0px"
	 viewBox="0 0 24 24" style="enable-background:new 0 0 24 24;" xml:space="preserve">
<g>
	<g>
		<path d="M23.498,21h-1.5v-1.5c0-0.276-0.224-0.5-0.5-0.5h-2.5v-5.5c0-0.276-0.224-0.5-0.5-0.5h-3.5V9.707l0.514-0.514
			c1.779,1.638,3.896,2.613,5.75,2.613c1.071,0,1.967-0.33,2.59-0.953c0.195-0.195,0.195-0.512,0-0.707L19.206,5.5l1.646-1.646
			c0.001-0.001,0.002-0.003,0.003-0.004c0.196,0.094,0.412,0.151,0.644,0.151c0.827,0,1.5-0.673,1.5-1.5c0-0.827-0.673-1.5-1.5-1.5
			c-0.827,0-1.5,0.673-1.5,1.5c0,0.231,0.057,0.448,0.151,0.644c-0.001,0.001-0.003,0.002-0.004,0.003L18.5,4.794l-4.646-4.646
			c-0.195-0.195-0.512-0.195-0.707,0c-1.774,1.774-1.015,5.44,1.658,8.342l-0.658,0.658C14.051,9.24,13.998,9.367,13.998,9.5V13
			h-3.5c-0.276,0-0.5,0.224-0.5,0.5V19h-2V5.5c0-0.133-0.053-0.26-0.146-0.354l-5-5c-0.195-0.195-0.512-0.195-0.707,0
			s-0.195,0.512,0,0.707l4.854,4.854V19h-1v-7.5c0-0.133-0.053-0.26-0.146-0.354l-3-3c-0.195-0.195-0.512-0.195-0.707,0
			s-0.195,0.512,0,0.707L5,11.707V19H2.5C2.224,19,2,19.224,2,19.5V21H0.5C0.224,21,0,21.224,0,21.5v2C0,23.776,0.224,24,0.5,24h23
			c0.276,0,0.5-0.224,0.5-0.5v-2C23.998,21.224,23.774,21,23.498,21z M12.998,17.5c0,0.276-0.224,0.5-0.5,0.5s-0.5-0.224-0.5-0.5v-2
			c0-0.276,0.224-0.5,0.5-0.5s0.5,0.224,0.5,0.5V17.5z M14.998,17.5c0,0.276-0.224,0.5-0.5,0.5s-0.5-0.224-0.5-0.5v-2
			c0-0.276,0.224-0.5,0.5-0.5s0.5,0.224,0.5,0.5V17.5z M16.998,17.5c0,0.276-0.224,0.5-0.5,0.5s-0.5-0.224-0.5-0.5v-2
			c0-0.276,0.224-0.5,0.5-0.5s0.5,0.224,0.5,0.5V17.5z"/>
	</g>
</g>
</svg>
