<?xml version="1.0" encoding="iso-8859-1"?>
<!-- Generator: Adobe Illustrator 19.0.0, SVG Export Plug-In . SVG Version: 6.00 Build 0)  -->
<svg version="1.1" id="Layer_1" xmlns="http://www.w3.org/2000/svg" xmlns:xlink="http://www.w3.org/1999/xlink" x="0px" y="0px"
	 viewBox="0 0 24 24" style="enable-background:new 0 0 24 24;" xml:space="preserve">
<g>
	<g>
		<path d="M8.5,13.496v-2.272c0-0.222-0.146-0.417-0.359-0.48c-0.213-0.063-0.442,0.022-0.562,0.21
			C6.894,12.023,6.5,13.678,6.5,15.496c0,0.239,0.169,0.445,0.404,0.491C6.936,15.993,6.968,15.996,7,15.996
			c0.2,0,0.385-0.121,0.463-0.312c0.228-0.562,0.55-1.062,0.931-1.444c0.118-0.118,0.168-0.288,0.136-0.451
			C8.511,13.694,8.5,13.596,8.5,13.496z M9.867,13.969l-0.351,1.406c-0.038,0.149-0.004,0.308,0.091,0.429
			c0.095,0.122,0.24,0.192,0.394,0.192h4.02c0.276,0,0.5-0.224,0.5-0.5c0-0.091-0.024-0.177-0.067-0.25l-0.319-1.276
			c0.21-0.059,0.367-0.244,0.367-0.473v-9c0-0.162-0.033-0.331-0.062-0.5H9.564c-0.029,0.169-0.062,0.338-0.062,0.5v9
			C9.5,13.725,9.657,13.91,9.867,13.969z M12,6.996c0.276,0,0.5,0.224,0.5,0.5s-0.224,0.5-0.5,0.5s-0.5-0.224-0.5-0.5
			S11.724,6.996,12,6.996z M10.891,13.996h2.219l0.25,1h-2.719L10.891,13.996z M12.38,0.171c-0.19-0.223-0.57-0.223-0.761,0
			c-0.064,0.075-1.183,1.403-1.768,2.825h4.297C13.563,1.574,12.444,0.246,12.38,0.171z M12.448,20.718
			c0.123-0.247,0.021-0.547-0.227-0.67s-0.547-0.021-0.67,0.227c-0.332,0.67-0.168,1.324-0.038,1.849
			c0.126,0.506,0.196,0.832,0.038,1.151c-0.123,0.247-0.021,0.547,0.227,0.67c0.072,0.034,0.147,0.051,0.222,0.051
			c0.184,0,0.361-0.102,0.449-0.278c0.329-0.665,0.167-1.314,0.036-1.837C12.357,21.371,12.287,21.042,12.448,20.718z
			 M14.748,16.969c-0.11-0.29-0.205-0.541-0.319-0.731c-0.142-0.237-0.45-0.313-0.687-0.17c-0.236,0.143-0.313,0.45-0.17,0.687
			c0.08,0.132,0.154,0.339,0.24,0.568c0.206,0.543,0.438,1.16,0.848,1.54c0.096,0.089,0.218,0.133,0.34,0.133
			c0.134,0,0.268-0.054,0.366-0.16c0.188-0.202,0.176-0.519-0.026-0.707C15.103,17.909,14.906,17.388,14.748,16.969z M16.421,10.954
			c-0.12-0.187-0.35-0.272-0.562-0.21c-0.213,0.063-0.359,0.258-0.359,0.48v2.272c0,0.1-0.011,0.198-0.03,0.292
			c-0.033,0.164,0.018,0.333,0.136,0.451c0.381,0.383,0.703,0.882,0.931,1.444c0.077,0.192,0.262,0.313,0.463,0.313
			c0.032,0,0.064-0.003,0.096-0.009c0.235-0.046,0.404-0.252,0.404-0.491C17.5,13.678,17.106,12.023,16.421,10.954z M10.428,16.754
			c0.143-0.237,0.066-0.544-0.17-0.687C10.02,15.923,9.713,16,9.571,16.237c-0.115,0.19-0.209,0.441-0.319,0.731
			c-0.158,0.419-0.355,0.94-0.593,1.161c-0.202,0.188-0.214,0.504-0.026,0.707c0.099,0.106,0.232,0.16,0.366,0.16
			c0.122,0,0.244-0.044,0.34-0.134c0.41-0.38,0.642-0.997,0.848-1.54C10.274,17.094,10.349,16.886,10.428,16.754z M11,17.496
			c-0.276,0-0.5,0.224-0.5,0.5c0,0.362-0.17,0.666-0.386,1.051c-0.272,0.485-0.61,1.088-0.614,1.947
			c-0.001,0.276,0.222,0.501,0.498,0.502h0.001c0.276,0,0.5-0.223,0.5-0.498c0.002-0.6,0.237-1.019,0.486-1.462
			c0.254-0.451,0.515-0.917,0.515-1.54C11.5,17.72,11.276,17.496,11,17.496z M13.5,17.996c0-0.276-0.224-0.5-0.5-0.5
			s-0.5,0.224-0.5,0.5c0,0.623,0.261,1.089,0.514,1.54c0.249,0.443,0.484,0.862,0.486,1.462c0.001,0.275,0.225,0.498,0.5,0.498
			c0,0,0.001,0,0.002,0c0.276-0.001,0.499-0.226,0.498-0.502c-0.004-0.859-0.342-1.462-0.614-1.947
			C13.67,18.662,13.5,18.358,13.5,17.996z"/>
	</g>
</g>
</svg>
