<?xml version="1.0" encoding="utf-8"?>
<!-- Generator: Adobe Illustrator 19.0.0, SVG Export Plug-In . SVG Version: 6.00 Build 0)  -->
<svg version="1.1" id="Layer_1" xmlns="http://www.w3.org/2000/svg" xmlns:xlink="http://www.w3.org/1999/xlink" x="0px" y="0px"
	 viewBox="0 0 30 30" style="enable-background:new 0 0 30 30;" xml:space="preserve">
<g>
	<g>
		<path d="M3.5,30c-1.4,0-2.3-0.8-2.5-2.1c-0.6-0.3-1-1.1-1-2.4c0-1.2,1.2-1.8,2.4-1.8c0.4,0,0.9-0.5,1.5-1.1c4-4,6.1-6.2,6.1-9
			C10,10.9,12.1,0,22,0c4.4,0,8,5.3,8,8c0,9.8-10.9,11.8-13.9,11.8c-2.7,0-4.6,1.9-8.4,5.7l-0.4,0.4C6.2,27,6,27.3,6,28
			C6,29.2,4.4,30,3.5,30z M2,27.9C2.1,28.6,2.6,29,3.5,29C4,29,5,28.5,5,28c0-1.1,0.5-1.7,1.6-2.9L7,24.8c4-4,6-6,9.1-6
			C18.8,18.8,29,16.9,29,8c0-2.3-3.2-7-7-7c-9,0-11,10.1-11,12.6c0,3.2-2.2,5.5-6.4,9.7c-0.9,0.9-1.5,1.4-2.2,1.4
			c-0.1,0-1.4,0-1.4,0.8C1,26.4,1.2,27,1.5,27c0.1,0,0.4-0.3,0.5-0.4c0.4-0.4,1-1,1.7-0.5c0.2,0.1,0.3,0.4,0.2,0.7
			c-0.1,0.2-0.4,0.3-0.7,0.2c-0.1,0-0.3,0.1-0.5,0.4C2.5,27.5,2.3,27.7,2,27.9z"/>
	</g>
	<g>
		<path d="M12.5,21C12.5,21,12.5,21,12.5,21c-0.3,0-0.5-0.3-0.5-0.6l0,0c0,0,0-0.4-0.2-0.7c-0.2-0.2-0.4-0.3-0.8-0.3
			c-0.9,0-1.4-0.1-1.7-0.4C9,18.7,9,18.2,9,17.8l0-0.3C9,17.2,9.2,17,9.5,17s0.5,0.2,0.5,0.5l0,0.3c0,0.2,0,0.5,0,0.6
			c0,0,0.2,0.1,1,0.1c0.7,0,1.2,0.2,1.6,0.6c0.5,0.6,0.5,1.4,0.4,1.5C13,20.8,12.8,21,12.5,21z"/>
	</g>
</g>
</svg>
