<?xml version="1.0" encoding="utf-8"?>
<!-- Generator: Adobe Illustrator 19.0.0, SVG Export Plug-In . SVG Version: 6.00 Build 0)  -->
<svg version="1.1" id="Layer_1" xmlns="http://www.w3.org/2000/svg" xmlns:xlink="http://www.w3.org/1999/xlink" x="0px" y="0px"
	 viewBox="0 0 30 30" style="enable-background:new 0 0 30 30;" xml:space="preserve">
<style type="text/css">
	.st0{fill:none;stroke:#000000;stroke-linecap:round;stroke-linejoin:round;stroke-miterlimit:10;}
</style>
<g>
	<g>
		<path class="st0" d="M0.5,15.8"/>
	</g>
	<g>
		<path d="M25.5,24h-4c-0.2,0-0.4-0.1-0.4-0.3l-1.6-3.3l-2.5,3.4c-0.1,0.1-0.2,0.2-0.4,0.2h-4c-0.2,0-0.4-0.1-0.4-0.3l-1.6-3.3
			l-2.5,3.4C7.8,23.9,7.7,24,7.5,24h-3c-0.2,0-0.4-0.1-0.4-0.3l-4-8c-0.1-0.2-0.1-0.3,0-0.5C0.2,15.1,0.3,15,0.5,15h29
			c0.2,0,0.3,0.1,0.4,0.2c0.1,0.1,0.1,0.3,0,0.5l-4,8C25.9,23.9,25.7,24,25.5,24z M21.8,23h3.4l3.5-7H1.3l3.5,7h2.4l2.8-3.8
			c0.1-0.1,0.3-0.2,0.4-0.2c0.2,0,0.3,0.1,0.4,0.3l1.9,3.7h3.4l2.8-3.8c0.1-0.1,0.3-0.2,0.4-0.2c0.2,0,0.3,0.1,0.4,0.3L21.8,23z"/>
	</g>
	<g>
		<path d="M10.5,16c-0.3,0-0.5-0.2-0.5-0.5C10,10.7,7.3,7,6,7c-1.2,0-4,3.6-4,8.5C2,15.8,1.8,16,1.5,16S1,15.8,1,15.5
			C1,10.6,3.8,6,6,6c2.2,0,5,4.5,5,9.5C11,15.8,10.8,16,10.5,16z"/>
	</g>
	<g>
		<path d="M19.5,16c-0.3,0-0.5-0.2-0.5-0.5c0-4.8-2.7-8.5-4-8.5c-1.2,0-4,3.6-4,8.5c0,0.3-0.2,0.5-0.5,0.5S10,15.8,10,15.5
			c0-4.9,2.8-9.5,5-9.5c2.2,0,5,4.5,5,9.5C20,15.8,19.8,16,19.5,16z"/>
	</g>
	<g>
		<path d="M28.5,16c-0.3,0-0.5-0.2-0.5-0.5c0-4.8-2.7-8.5-4-8.5c-1.2,0-4,3.6-4,8.5c0,0.3-0.2,0.5-0.5,0.5S19,15.8,19,15.5
			c0-4.9,2.8-9.5,5-9.5c2.2,0,5,4.5,5,9.5C29,15.8,28.8,16,28.5,16z"/>
	</g>
</g>
</svg>
