<?xml version="1.0" encoding="utf-8"?>
<!-- Generator: Adobe Illustrator 19.0.0, SVG Export Plug-In . SVG Version: 6.00 Build 0)  -->
<svg version="1.1" id="Layer_1" xmlns="http://www.w3.org/2000/svg" xmlns:xlink="http://www.w3.org/1999/xlink" x="0px" y="0px"
	 viewBox="0 0 30 30" style="enable-background:new 0 0 30 30;" xml:space="preserve">
<g>
	<g>
		<path d="M7.5,30c0,0-0.1,0-0.1,0c-0.3-0.1-0.4-0.3-0.4-0.6l3-11c0.1-0.3,0.3-0.4,0.6-0.4c0.3,0.1,0.4,0.3,0.4,0.6l-3,11
			C7.9,29.9,7.7,30,7.5,30z"/>
	</g>
	<g>
		<path d="M18.7,26.9c-0.2,0-0.4-0.1-0.5-0.4L16,18.6c-0.1-0.3,0.1-0.5,0.4-0.6c0.3-0.1,0.5,0.1,0.6,0.4l2.1,7.9
			c0.1,0.3-0.1,0.5-0.4,0.6C18.7,26.9,18.7,26.9,18.7,26.9z"/>
	</g>
	<g>
		<path d="M18,25H9c-0.3,0-0.5-0.2-0.5-0.5S8.7,24,9,24h9c0.3,0,0.5,0.2,0.5,0.5S18.3,25,18,25z"/>
	</g>
	<g>
		<path d="M8,12.5c-0.1,0-0.3-0.1-0.4-0.2c-0.2-0.2-0.2-0.5,0-0.7c0.5-0.5,0.4-0.7-0.1-1.4C7.2,9.6,6.5,8.6,7.7,7.6
			c0.2-0.2,0.5-0.2,0.7,0c0.2,0.2,0.2,0.5,0,0.7C7.9,8.8,7.9,9,8.4,9.7c0.4,0.6,1.1,1.6-0.1,2.7C8.2,12.5,8.1,12.5,8,12.5z"/>
	</g>
	<g>
		<path d="M11,12.5c-0.1,0-0.3-0.1-0.4-0.2c-0.2-0.2-0.2-0.5,0-0.7c0.5-0.5,0.4-0.7-0.1-1.4c-0.4-0.6-1.1-1.6,0.1-2.6
			c0.2-0.2,0.5-0.2,0.7,0c0.2,0.2,0.2,0.5,0,0.7c-0.5,0.4-0.4,0.6,0.1,1.3c0.4,0.6,1.1,1.6-0.1,2.7C11.2,12.5,11.1,12.5,11,12.5z"/>
	</g>
	<g>
		<path d="M14,12.5c-0.1,0-0.3-0.1-0.4-0.2c-0.2-0.2-0.2-0.5,0-0.7c0.5-0.5,0.4-0.7-0.1-1.4c-0.4-0.6-1.1-1.6,0.1-2.6
			c0.2-0.2,0.5-0.2,0.7,0c0.2,0.2,0.2,0.5,0,0.7c-0.5,0.4-0.4,0.6,0.1,1.3c0.4,0.6,1.1,1.6-0.1,2.7C14.2,12.5,14.1,12.5,14,12.5z"/>
	</g>
	<g>
		<path d="M13.5,23C8.8,23,5,19.2,5,14.5C5,14.2,5.2,14,5.5,14h16c0.3,0,0.5,0.2,0.5,0.5C22,19.2,18.2,23,13.5,23z M6,15
			c0.3,3.9,3.5,7,7.5,7s7.2-3.1,7.5-7H6z"/>
	</g>
	<g>
		<path d="M21.5,15.3C21.5,15.3,21.4,15.2,21.5,15.3c-0.2,0-0.3-0.1-0.4-0.2l-9-13.2C12,1.7,12,1.6,12,1.4c0-0.1,0.1-0.3,0.2-0.3
			c3.3-1.9,7.5-1.3,10.2,1.4c3.3,3.3,3.3,8.7,0,12c-0.2,0.2-0.5,0.4-0.7,0.6C21.7,15.2,21.6,15.3,21.5,15.3z M13.3,1.7L21.6,14
			c0.1-0.1,0.1-0.1,0.2-0.2c2.9-2.9,2.9-7.7,0-10.6C19.5,0.9,16.1,0.4,13.3,1.7z"/>
	</g>
	<g>
		<path d="M19,30c-1.1,0-2-0.9-2-2s0.9-2,2-2s2,0.9,2,2S20.1,30,19,30z M19,27c-0.6,0-1,0.4-1,1s0.4,1,1,1s1-0.4,1-1S19.6,27,19,27z
			"/>
	</g>
</g>
</svg>
