<?xml version="1.0" encoding="iso-8859-1"?>
<!-- Generator: Adobe Illustrator 19.2.1, SVG Export Plug-In . SVG Version: 6.00 Build 0)  -->
<svg version="1.1" id="Layer_1" xmlns="http://www.w3.org/2000/svg" xmlns:xlink="http://www.w3.org/1999/xlink" x="0px" y="0px"
	 viewBox="0 0 24 24" style="enable-background:new 0 0 24 24;" xml:space="preserve">
<g>
	<g>
		<path d="M17.179,16h2.622c-0.312-1.951-0.939-3-1.311-3S17.491,14.049,17.179,16z M13.203,17c-0.136,0.478-0.213,0.979-0.213,1.5
			s0.078,1.022,0.213,1.5h2.852c-0.041-0.493-0.065-0.996-0.065-1.5c0-0.504,0.023-1.007,0.065-1.5H13.203z M12.171,20h-3.68
			c-0.276,0-0.5-0.224-0.5-0.5v-6c0-0.276,0.224-0.5,0.5-0.5h6.552c1.001-0.63,2.181-1,3.448-1c0.624,0,1.249,0.092,1.857,0.273
			c0.152,0.047,0.315,0.016,0.441-0.078c0.069-0.051,0.122-0.119,0.157-0.195H23.5c0.292-0.006,0.511-0.22,0.51-0.5
			c0-0.181-0.096-0.339-0.24-0.427l-2.78-2.78V0.5c0-0.276-0.224-0.5-0.5-0.5h-4c-0.276,0-0.5,0.224-0.5,0.5v2.793L13.197,0.5
			c-0.643-0.644-1.768-0.645-2.413,0L0.137,11.146c-0.143,0.143-0.186,0.358-0.108,0.545C0.106,11.878,0.289,12,0.491,12h2.5v11.5
			c0,0.276,0.224,0.5,0.5,0.5h10.105c0.203,0,0.386-0.123,0.463-0.311c0.077-0.188,0.032-0.404-0.113-0.546
			C13.052,22.268,12.45,21.182,12.171,20z M13.597,21c0.687,1.338,1.904,2.358,3.374,2.782c-0.374-0.717-0.641-1.696-0.802-2.782
			H13.597z M20.811,16h2.572c-0.687-1.338-1.904-2.358-3.374-2.782C20.382,13.935,20.65,14.914,20.811,16z M20.925,17
			c0.041,0.493,0.065,0.996,0.065,1.5c0,0.504-0.023,1.007-0.065,1.5h2.852c0.136-0.478,0.213-0.979,0.213-1.5
			s-0.078-1.022-0.213-1.5H20.925z M20.009,23.781c1.47-0.424,2.687-1.444,3.374-2.782h-2.572
			C20.65,22.086,20.382,23.065,20.009,23.781z M17.06,17c-0.041,0.466-0.07,0.958-0.07,1.5s0.029,1.034,0.07,1.5h2.86
			c0.041-0.466,0.07-0.958,0.07-1.5s-0.029-1.034-0.07-1.5H17.06z M18.49,24c0.372,0,0.999-1.049,1.311-3h-2.622
			C17.491,22.951,18.118,24,18.49,24z M13.597,16h2.572c0.161-1.086,0.428-2.065,0.802-2.782C15.501,13.641,14.284,14.661,13.597,16
			z"/>
	</g>
</g>
</svg>
