<?xml version="1.0" encoding="iso-8859-1"?>
<!-- Generator: Adobe Illustrator 19.2.1, SVG Export Plug-In . SVG Version: 6.00 Build 0)  -->
<svg version="1.1" id="Layer_1" xmlns="http://www.w3.org/2000/svg" xmlns:xlink="http://www.w3.org/1999/xlink" x="0px" y="0px"
	 viewBox="0 0 24 24" style="enable-background:new 0 0 24 24;" xml:space="preserve">
<g>
	<g>
		<path d="M7.499,9.018h1.5v4.34c0,0.234,0.163,0.437,0.392,0.488l4,0.889c0.146,0.03,0.303-0.003,0.421-0.098
			C13.931,14.542,14,14.399,14,14.247v-2.229h3v3.5c0,0.229,0.156,0.43,0.379,0.485l2.384,0.596c0.04,0.01,0.08,0.015,0.121,0.015
			c0.039,0,0.079-0.005,0.117-0.014c0.482-0.116,0.977-0.149,1.449-0.104c0.14,0.01,0.28-0.032,0.386-0.127
			C21.94,16.274,22,16.14,22,15.998v-6.98h1.5c0.202,0,0.385-0.122,0.462-0.309c0.077-0.187,0.034-0.402-0.108-0.545l-8-8
			c-0.195-0.195-0.512-0.195-0.707,0l-8,8C7.004,8.307,6.961,8.522,7.039,8.709S7.297,9.018,7.499,9.018z M23.946,19.294
			c-0.68-1.361-2.259-2.089-3.737-1.719l-2.261,0.565c0.034,0.229,0.051,0.468,0.051,0.72v0.158c0,0.689-0.468,1.288-1.137,1.455
			l-1.346,0.336c-0.354,0.089-0.721,0.134-1.091,0.134c-0.299,0-0.596-0.029-0.882-0.087l-4.339-0.868
			c-0.271-0.054-0.447-0.317-0.393-0.588c0.055-0.272,0.323-0.449,0.588-0.392l4.34,0.868c0.499,0.101,1.039,0.088,1.533-0.036
			l1.347-0.336c0.224-0.057,0.38-0.256,0.38-0.486V18.86c0-0.183-0.012-0.354-0.033-0.518c-0.006-0.047-0.017-0.089-0.025-0.135
			c-0.02-0.116-0.042-0.23-0.074-0.337c-0.014-0.047-0.031-0.09-0.047-0.135c-0.035-0.099-0.074-0.196-0.121-0.287
			c-0.021-0.04-0.044-0.079-0.067-0.118c-0.052-0.089-0.11-0.174-0.175-0.255c-0.026-0.033-0.053-0.066-0.082-0.097
			c-0.072-0.081-0.152-0.157-0.238-0.229c-0.03-0.025-0.059-0.051-0.091-0.076c-0.096-0.073-0.202-0.141-0.313-0.205
			c-0.03-0.017-0.058-0.037-0.09-0.053c-0.129-0.069-0.269-0.13-0.418-0.188c-0.022-0.008-0.041-0.018-0.063-0.027
			c-0.176-0.065-0.365-0.123-0.568-0.174l-7.167-1.593c-0.133-0.027-0.273-0.003-0.386,0.073c-0.114,0.076-0.191,0.195-0.215,0.329
			c-0.36,2.049-1.141,4.708-1.574,6.111c-0.08,0.26,0.062,0.536,0.319,0.622l5.749,1.917c0.77,0.291,1.368,0.497,2.074,0.497
			c0,0,0,0,0.001,0c1.026,0,2.188-0.435,4.809-1.509l5.5-2.5c0.123-0.056,0.219-0.16,0.265-0.288
			C24.016,19.557,24.007,19.416,23.946,19.294z M5.843,13.155c-0.857-0.812-4.284-1.075-5.314-1.136
			c-0.133-0.006-0.271,0.041-0.372,0.135C0.056,12.248,0,12.38,0,12.518v9c0,0.276,0.224,0.5,0.5,0.5h3
			c0.216,0,0.408-0.139,0.476-0.345c0.073-0.224,1.796-5.512,2.022-8.112C6.011,13.41,5.953,13.26,5.843,13.155z"/>
	</g>
</g>
</svg>
