<?xml version="1.0" encoding="iso-8859-1"?>
<!-- Generator: Adobe Illustrator 19.2.1, SVG Export Plug-In . SVG Version: 6.00 Build 0)  -->
<svg version="1.1" id="Layer_1" xmlns="http://www.w3.org/2000/svg" xmlns:xlink="http://www.w3.org/1999/xlink" x="0px" y="0px"
	 viewBox="0 0 24 24" style="enable-background:new 0 0 24 24;" xml:space="preserve">
<g>
	<g>
		<path d="M20.55,22.681c-0.146-0.146-0.366-0.188-0.556-0.104C19.357,22.857,18.682,23,17.99,23c-2.045,0-3.802-1.237-4.576-3H8.49
			c-0.276,0-0.5-0.224-0.5-0.5v-6c0-0.276,0.224-0.5,0.5-0.5h9c0.059,0,0.114,0.015,0.167,0.034C17.769,13.026,17.876,13,17.99,13
			c0.794,0,1.559,0.186,2.271,0.552c0.156,0.079,0.341,0.073,0.489-0.018s0.239-0.252,0.239-0.427V12h2.52
			c0.276,0,0.5-0.224,0.5-0.5c0-0.181-0.096-0.339-0.239-0.427l-2.78-2.78V0.5c0-0.276-0.224-0.5-0.5-0.5h-4
			c-0.276,0-0.5,0.224-0.5,0.5v2.793L13.196,0.5c-0.638-0.64-1.774-0.641-2.412,0L0.137,11.147
			c-0.143,0.143-0.186,0.358-0.108,0.545C0.107,11.879,0.288,12,0.49,12h2.5v11.5c0,0.276,0.224,0.5,0.5,0.5h17
			c0.276,0,0.5-0.224,0.5-0.5v-0.172c0-0.133-0.053-0.26-0.146-0.354L20.55,22.681z M21.137,20.44
			c0.527-0.677,0.853-1.517,0.853-2.44c0-2.206-1.794-4-4-4s-4,1.794-4,4s1.794,4,4,4c0.923,0,1.763-0.327,2.44-0.853l2.707,2.707
			C23.235,23.952,23.363,24,23.491,24c0.128,0,0.256-0.049,0.354-0.146c0.195-0.195,0.195-0.512,0-0.707L21.137,20.44z M17.99,21
			c-1.654,0-3-1.346-3-3s1.346-3,3-3s3,1.346,3,3S19.644,21,17.99,21z"/>
	</g>
</g>
</svg>
