<?xml version="1.0" encoding="iso-8859-1"?>
<!-- Generator: Adobe Illustrator 19.0.0, SVG Export Plug-In . SVG Version: 6.00 Build 0)  -->
<svg version="1.1" id="Layer_1" xmlns="http://www.w3.org/2000/svg" xmlns:xlink="http://www.w3.org/1999/xlink" x="0px" y="0px"
	 viewBox="0 0 24 24" style="enable-background:new 0 0 24 24;" xml:space="preserve">
<g>
	<g>
		<path d="M23.973,11.868c-0.005-0.018-0.004-0.038-0.011-0.056c-0.026-0.065-0.065-0.122-0.115-0.17l-2.994-2.994
			c-0.195-0.195-0.512-0.195-0.707,0c-0.195,0.195-0.195,0.512,0,0.707l2.145,2.145h-7.316c-0.261-4.454-3.956-8-8.475-8h-6
			C0.224,3.5,0,3.724,0,4s0.224,0.5,0.5,0.5h6c3.967,0,7.216,3.097,7.475,7H0.5C0.224,11.5,0,11.724,0,12s0.224,0.5,0.5,0.5h13.475
			c-0.259,3.903-3.507,7-7.475,7h-6C0.224,19.5,0,19.724,0,20s0.224,0.5,0.5,0.5h6c4.518,0,8.214-3.546,8.475-8h7.318l-2.147,2.147
			c-0.195,0.195-0.195,0.512,0,0.707c0.098,0.097,0.226,0.146,0.354,0.146s0.256-0.049,0.353-0.145l3-3
			c0.014-0.014,0.019-0.032,0.031-0.046c0.029-0.036,0.059-0.073,0.077-0.117c0.018-0.043,0.022-0.089,0.027-0.134
			C23.991,12.038,24,12.02,24,12C24,11.953,23.985,11.911,23.973,11.868z"/>
	</g>
</g>
</svg>
