<?xml version="1.0" encoding="iso-8859-1"?>
<!-- Generator: Adobe Illustrator 19.0.0, SVG Export Plug-In . SVG Version: 6.00 Build 0)  -->
<svg version="1.1" id="Layer_1" xmlns="http://www.w3.org/2000/svg" xmlns:xlink="http://www.w3.org/1999/xlink" x="0px" y="0px"
	 viewBox="0 0 24 24" style="enable-background:new 0 0 24 24;" xml:space="preserve">
<g>
	<g>
		<path d="M11.646,18.854c0.017,0.016,0.038,0.023,0.056,0.037c0.034,0.026,0.067,0.054,0.107,0.07C11.87,18.987,11.935,19,12,19
			c0.065,0,0.13-0.013,0.191-0.039c0.062-0.026,0.118-0.064,0.165-0.111l5.996-5.996c0.195-0.195,0.195-0.512,0-0.707
			s-0.512-0.195-0.707,0L12.5,17.292V0.5C12.5,0.224,12.276,0,12,0s-0.5,0.224-0.5,0.5v16.794l-5.147-5.147
			c-0.195-0.195-0.512-0.195-0.707,0s-0.195,0.512,0,0.707L11.646,18.854z M23,18c-0.276,0-0.5,0.224-0.5,0.5V23h-21v-4.5
			C1.5,18.224,1.276,18,1,18s-0.5,0.224-0.5,0.5v5C0.5,23.776,0.724,24,1,24h22c0.276,0,0.5-0.224,0.5-0.5v-5
			C23.5,18.224,23.276,18,23,18z"/>
	</g>
</g>
</svg>
