<?xml version="1.0" encoding="iso-8859-1"?>
<!-- Generator: Adobe Illustrator 19.0.0, SVG Export Plug-In . SVG Version: 6.00 Build 0)  -->
<svg version="1.1" id="Layer_1" xmlns="http://www.w3.org/2000/svg" xmlns:xlink="http://www.w3.org/1999/xlink" x="0px" y="0px"
	 viewBox="0 0 24 24" style="enable-background:new 0 0 24 24;" xml:space="preserve">
<g>
	<g>
		<path d="M12,0C5.383,0,0,5.383,0,12s5.383,12,12,12s12-5.383,12-12S18.617,0,12,0z M8.951,17.762
			c-0.095,0.15-0.257,0.232-0.423,0.232c-0.091,0-0.184-0.025-0.267-0.078C6.219,16.625,5,14.413,5,12c0-3.86,3.14-7,7-7
			c0.104,0,0.206,0.009,0.308,0.015l-1.162-1.162c-0.195-0.195-0.195-0.512,0-0.707s0.512-0.195,0.707,0l2,2
			c0.195,0.195,0.195,0.512,0,0.707l-2,2C11.756,7.951,11.628,8,11.5,8s-0.256-0.049-0.354-0.146c-0.195-0.195-0.195-0.512,0-0.707
			l1.132-1.132C12.186,6.008,12.094,6,12,6c-3.309,0-6,2.691-6,6c0,2.068,1.045,3.964,2.796,5.072
			C9.029,17.22,9.099,17.529,8.951,17.762z M12,19c-0.104,0-0.206-0.009-0.308-0.015l1.162,1.162c0.195,0.195,0.195,0.512,0,0.707
			C12.756,20.951,12.628,21,12.5,21s-0.256-0.049-0.354-0.146l-2-2c-0.195-0.195-0.195-0.512,0-0.707l2-2
			c0.195-0.195,0.512-0.195,0.707,0c0.195,0.195,0.195,0.512,0,0.707l-1.132,1.132C11.814,17.992,11.906,18,12,18
			c3.309,0,6-2.691,6-6c0-2.063-1.041-3.956-2.784-5.064c-0.233-0.148-0.302-0.457-0.153-0.69c0.148-0.232,0.456-0.301,0.69-0.153
			C17.786,7.385,19,9.594,19,12C19,15.86,15.86,19,12,19z"/>
	</g>
</g>
</svg>
