<?xml version="1.0" encoding="iso-8859-1"?>
<!-- Generator: Adobe Illustrator 19.0.0, SVG Export Plug-In . SVG Version: 6.00 Build 0)  -->
<svg version="1.1" id="Layer_1" xmlns="http://www.w3.org/2000/svg" xmlns:xlink="http://www.w3.org/1999/xlink" x="0px" y="0px"
	 viewBox="0 0 30 30" style="enable-background:new 0 0 30 30;" xml:space="preserve">
<g>
	<g>
		<path d="M7,11.496c0.128,0,0.256-0.049,0.354-0.146l7.719-7.719c0.287,0.27,0.591,0.543,0.915,0.828
			c1.646,1.44,3.512,3.072,3.512,5.538c0,1.49-0.211,2.266-0.418,2.828c-0.056,0.153-0.034,0.325,0.06,0.458s0.247,0.214,0.41,0.214
			h3c0.21,0,0.397-0.131,0.47-0.328c0.223-0.607,0.479-1.516,0.479-3.172c0-2.918-2.139-4.788-3.856-6.29
			c-1.15-1.006-2.144-1.874-2.144-2.71c0-0.086-0.03-0.168-0.074-0.245c-0.011-0.02-0.022-0.036-0.036-0.054
			c-0.013-0.018-0.02-0.038-0.036-0.054c-0.047-0.047-0.101-0.08-0.157-0.105c-0.002-0.001-0.003-0.003-0.005-0.004h-0.001
			c-0.081-0.033-0.168-0.037-0.254-0.026c-0.022,0.003-0.04,0.006-0.061,0.012c-0.083,0.022-0.163,0.057-0.228,0.122l-10,10
			c-0.195,0.195-0.195,0.512,0,0.707C6.744,11.447,6.872,11.496,7,11.496z M29.462,14.805c-0.025-0.062-0.062-0.117-0.109-0.163
			l-1.999-1.999c-0.195-0.195-0.512-0.195-0.707,0s-0.195,0.512,0,0.707l1.146,1.146H7.309l-0.862-1.724
			C6.362,12.603,6.189,12.496,6,12.496H1c-0.202,0-0.385,0.122-0.462,0.309c-0.077,0.187-0.034,0.402,0.108,0.545l1.646,1.646
			l-1.646,1.646C0.503,16.785,0.46,17,0.538,17.187S0.798,17.496,1,17.496h5c0.189,0,0.362-0.107,0.447-0.276l0.862-1.724h20.484
			l-1.146,1.146c-0.195,0.195-0.195,0.512,0,0.707c0.098,0.098,0.226,0.146,0.354,0.146s0.256-0.049,0.354-0.146l1.999-1.999
			c0.045-0.046,0.082-0.102,0.108-0.163C29.513,15.065,29.513,14.927,29.462,14.805z M22.552,16.496h-3
			c-0.163,0-0.316,0.08-0.41,0.214c-0.094,0.134-0.115,0.305-0.06,0.458c0.207,0.562,0.418,1.337,0.418,2.828
			c0,2.466-1.865,4.098-3.512,5.538c-0.325,0.285-0.629,0.558-0.915,0.828l-7.719-7.719c-0.195-0.195-0.512-0.195-0.707,0
			s-0.195,0.512,0,0.707l10,10c0.048,0.048,0.104,0.085,0.164,0.109c0.06,0.025,0.125,0.037,0.189,0.037
			c0.065,0,0.129-0.013,0.19-0.038h0.002c0.002-0.001,0.003-0.003,0.005-0.004c0.057-0.024,0.111-0.058,0.157-0.105
			c0.016-0.016,0.023-0.037,0.036-0.054c0.014-0.018,0.025-0.035,0.036-0.054c0.044-0.077,0.074-0.159,0.074-0.245
			c0-0.836,0.993-1.705,2.144-2.71c1.718-1.502,3.856-3.371,3.856-6.29c0-1.657-0.256-2.565-0.479-3.172
			C22.949,16.627,22.762,16.496,22.552,16.496z"/>
	</g>
</g>
</svg>
