<?xml version="1.0" encoding="iso-8859-1"?>
<!-- Generator: Adobe Illustrator 19.0.0, SVG Export Plug-In . SVG Version: 6.00 Build 0)  -->
<svg version="1.1" id="Layer_1" xmlns="http://www.w3.org/2000/svg" xmlns:xlink="http://www.w3.org/1999/xlink" x="0px" y="0px"
	 viewBox="0 0 30 30" style="enable-background:new 0 0 30 30;" xml:space="preserve">
<g>
	<g>
		<path d="M13.5,25c-0.276,0-0.5,0.224-0.5,0.5c0,0.276,0.224,0.5,0.5,0.5c0.276,0,0.5-0.224,0.5-0.5C14,25.224,13.776,25,13.5,25z
			 M16.5,25c-0.276,0-0.5,0.224-0.5,0.5c0,0.276,0.224,0.5,0.5,0.5c0.276,0,0.5-0.224,0.5-0.5C17,25.224,16.776,25,16.5,25z
			 M28.556,2.387c-0.237-0.37-0.442-0.689-0.59-1.069c-0.099-0.255-0.385-0.381-0.641-0.286c-0.256,0.095-0.388,0.378-0.296,0.636
			c1.408,3.966-0.496,6.058-0.929,6.305c-0.727,0.416-3.086,0.622-4.809,0.772c-0.862,0.075-1.621,0.142-2.154,0.224
			c-0.8-0.63-2.259-1.605-4.141-0.123c-2.105-1.621-3.865-0.471-4.631,0.123C9.858,8.888,9.173,8.823,8.397,8.75
			C6.81,8.6,4.637,8.394,3.901,7.973C3.468,7.725,1.564,5.634,2.971,1.668c0.091-0.257-0.041-0.541-0.296-0.636
			C2.419,0.937,2.133,1.063,2.034,1.318c-0.148,0.38-0.354,0.7-0.59,1.069C0.802,3.391,0,4.64,0,7.779
			c0,4.226,2.683,6.609,7.56,6.764c0.021,1.762,0.707,3.734,1.38,5.649c0.507,1.441,0.985,2.802,1.151,3.982
			c0.082,0.586,0.305,1.077,0.648,1.474c-0.009,0.115-0.022,0.233-0.022,0.34C10.718,27.677,12.599,29,15,29
			c2.402,0,4.283-1.323,4.283-3.012c0-0.107-0.016-0.223-0.026-0.336c0.344-0.398,0.568-0.89,0.651-1.478
			c0.167-1.18,0.645-2.542,1.151-3.982c0.673-1.915,1.359-3.887,1.38-5.649C27.317,14.388,30,12.005,30,7.779
			C30,4.64,29.199,3.391,28.556,2.387z M10.651,17.348c-0.566-0.563-0.789-1.333-0.569-1.959c0.05-0.144,0.163-0.257,0.307-0.307
			c0.625-0.218,1.396,0.004,1.96,0.568c0.564,0.564,0.788,1.334,0.568,1.96c-0.05,0.144-0.163,0.257-0.307,0.307
			C12.451,17.973,12.281,18,12.109,18C11.606,18,11.072,17.769,10.651,17.348z M15,28c-1.779,0-3.283-0.921-3.283-2.012
			c0-0.13,0.01-0.271,0.028-0.419c0.001-0.005,0.006-0.009,0.007-0.015c0.097-0.659,0.372-1.404,0.849-1.906
			c0.005-0.005,0.01-0.011,0.016-0.016c0.075-0.077,0.158-0.144,0.243-0.208c0.059-0.043,0.121-0.083,0.186-0.119
			c0.053-0.031,0.106-0.061,0.162-0.086c0.109-0.047,0.226-0.082,0.348-0.108c0.035-0.007,0.067-0.02,0.103-0.025
			c0.038-0.004,0.077-0.004,0.115,0c0.028,0.004,0.06,0.009,0.095,0.016c0.084,0.016,0.175,0.035,0.278,0.06
			c0.038,0.009,0.073,0.017,0.11,0.026c0.28,0.066,0.446,0.103,0.594,0.114c0.03,0.002,0.059,0.005,0.088,0.005
			c0.135,0,0.272-0.025,0.483-0.073c0.06-0.014,0.125-0.029,0.2-0.046l0.098-0.023c0.133-0.032,0.263-0.063,0.361-0.078
			c0.039-0.006,0.077-0.003,0.116,0c0.076,0.011,0.145,0.033,0.217,0.052c0.081,0.021,0.162,0.041,0.237,0.071
			c0.096,0.04,0.186,0.089,0.273,0.143c0.036,0.021,0.072,0.041,0.106,0.065c0.672,0.473,1.056,1.323,1.187,1.986
			c0.039,0.205,0.066,0.405,0.066,0.584C18.283,27.079,16.779,28,15,28z M19.349,17.349c-0.42,0.42-0.955,0.652-1.458,0.652
			c-0.173,0-0.342-0.027-0.501-0.083c-0.144-0.05-0.257-0.163-0.307-0.307c-0.219-0.626,0.004-1.396,0.568-1.96
			c0.565-0.564,1.335-0.787,1.96-0.568c0.144,0.05,0.257,0.163,0.307,0.307C20.137,16.015,19.914,16.785,19.349,17.349z"/>
	</g>
</g>
</svg>
