<?xml version="1.0" encoding="iso-8859-1"?>
<!-- Generator: Adobe Illustrator 19.0.0, SVG Export Plug-In . SVG Version: 6.00 Build 0)  -->
<svg version="1.1" id="Layer_1" xmlns="http://www.w3.org/2000/svg" xmlns:xlink="http://www.w3.org/1999/xlink" x="0px" y="0px"
	 viewBox="0 0 30 30" style="enable-background:new 0 0 30 30;" xml:space="preserve">
<g>
	<g>
		<path d="M25.368,6.97C24.97,6.591,24.57,6.21,24.18,5.82c-0.392-0.392-0.774-0.793-1.154-1.192C20.856,2.353,18.614,0,15,0
			C6.729,0,0,6.729,0,15s6.729,15,15,15s15-6.729,15-15C30,11.38,27.646,9.138,25.368,6.97z M15,28C8.075,28,2,21.925,2,15
			S8.075,2,15,2c0.847,0,1.311,0.12,1.828,0.277c0.16,0.048,0.285,0.173,0.334,0.333c0.106,0.35,0.208,0.79,0.341,1.47
			c0.34,1.735,0.761,3.89,2.644,5.773c1.917,1.917,4.144,2.218,5.77,2.438c0.663,0.089,1.093,0.156,1.468,0.251
			c0.182,0.046,0.323,0.191,0.364,0.374C27.922,13.681,28,14.323,28,15C28,21.925,21.925,28,15,28z M25.783,13.283
			c-1.769-0.239-4.188-0.566-6.344-2.722c-2.099-2.099-2.553-4.419-2.917-6.284c-0.095-0.487-0.172-0.839-0.245-1.119
			C15.92,3.061,15.575,3,15,3C8.607,3,3,8.607,3,15s5.607,12,12,12s12-5.607,12-12c0-0.515-0.049-0.994-0.161-1.554
			C26.528,13.385,26.161,13.334,25.783,13.283z M8.133,9.343l-1.411,1.414c-0.098,0.098-0.226,0.146-0.354,0.146
			s-0.256-0.049-0.354-0.146c-0.195-0.195-0.195-0.512,0-0.707l3.535-3.536c0.195-0.195,0.512-0.195,0.707,0l2.122,2.122
			c0.195,0.195,0.195,0.512,0,0.707s-0.512,0.195-0.707,0L9.902,7.575L8.841,8.636l1.061,1.061c0.195,0.195,0.195,0.512,0,0.707
			c-0.098,0.098-0.226,0.146-0.354,0.146s-0.256-0.049-0.354-0.146L8.133,9.343z M12.523,16.015
			c0.025,0.275-0.178,0.519-0.453,0.543c-0.015,0.001-0.03,0.002-0.046,0.002c-0.255,0-0.474-0.195-0.497-0.455l-0.257-2.827
			l-1.014,1.014c-0.195,0.195-0.512,0.195-0.707,0s-0.195-0.512,0-0.707l3.536-3.536c0.195-0.195,0.512-0.195,0.707,0l1.414,1.414
			c0.684,0.684,0.684,1.438,0,2.122c-1.17,1.169-1.918,0.909-2.342,0.487l-0.57-0.571L12.523,16.015z M15.914,19.243
			c0.195,0.195,0.195,0.512,0,0.707c-0.098,0.098-0.226,0.146-0.354,0.146s-0.256-0.049-0.354-0.146l-2.121-2.121
			c-0.195-0.195-0.195-0.512,0-0.707l1.767-1.767c0,0,0,0,0-0.001l1.767-1.767c0.195-0.195,0.512-0.195,0.707,0l2.122,2.121
			c0.195,0.195,0.195,0.512,0,0.707c-0.195,0.195-0.512,0.195-0.707,0l-1.769-1.768l-1.06,1.061l1.06,1.06
			c0.195,0.195,0.195,0.512,0,0.707c-0.098,0.098-0.226,0.146-0.354,0.146s-0.256-0.049-0.354-0.146l-1.06-1.06l-1.061,1.061
			L15.914,19.243z M22.985,19.95c-0.195,0.195-0.512,0.195-0.707,0l-1.768-1.768l-1.061,1.061l1.061,1.06
			c0.195,0.195,0.195,0.512,0,0.707c-0.098,0.098-0.226,0.146-0.354,0.146s-0.256-0.049-0.354-0.146l-1.061-1.06l-1.061,1.06
			l1.769,1.768c0.195,0.195,0.195,0.512,0,0.707c-0.098,0.098-0.226,0.146-0.354,0.146s-0.256-0.049-0.354-0.146l-2.122-2.122
			c-0.094-0.094-0.146-0.221-0.146-0.354c0-0.133,0.053-0.26,0.146-0.354l1.767-1.766l0.001-0.001l0.001-0.001l1.767-1.767
			c0.195-0.195,0.512-0.195,0.707,0l2.121,2.121C23.181,19.438,23.181,19.754,22.985,19.95z M14.5,12.879
			c0.297-0.297,0.297-0.41,0-0.708l-1.061-1.061l-1.061,1.061l1.193,1.194C13.763,13.558,14.236,13.142,14.5,12.879z"/>
	</g>
</g>
</svg>
