<?xml version="1.0" encoding="iso-8859-1"?>
<!-- Generator: Adobe Illustrator 19.0.0, SVG Export Plug-In . SVG Version: 6.00 Build 0)  -->
<svg version="1.1" id="Layer_1" xmlns="http://www.w3.org/2000/svg" xmlns:xlink="http://www.w3.org/1999/xlink" x="0px" y="0px"
	 viewBox="0 0 30 30" style="enable-background:new 0 0 30 30;" xml:space="preserve">
<g>
	<g>
		<path d="M21.5,0c-2.416,0-4.802,1.342-6.5,3.623C13.302,1.342,10.916,0,8.5,0C3.893,0,0,3.893,0,8.5
			c0,1.699,0.536,3.312,1.599,4.798l11.494,15.493C13.488,29.343,14.14,30,15.007,30c0.673,0,1.299-0.392,1.863-1.163
			c0.011-0.013,0.021-0.025,0.031-0.039l11.506-15.507C29.464,11.812,30,10.199,30,8.5C30,3.893,26.107,0,21.5,0z M16,26.5
			c0,0.276-0.224,0.5-0.5,0.5h-0.626c-0.096,0-0.188-0.027-0.27-0.079l-0.257-0.164c-0.051-0.032-0.096-0.074-0.132-0.123
			L3.598,12.298C3.22,11.769,2,9.95,2,8.5C2,5.28,5.28,2,8.5,2c2.087,0,4.395,1.642,5.42,3.229l1.996,2.994
			C15.971,8.305,16,8.402,16,8.5V26.5z"/>
	</g>
</g>
</svg>
