<?xml version="1.0" encoding="iso-8859-1"?>
<!-- Generator: Adobe Illustrator 19.0.0, SVG Export Plug-In . SVG Version: 6.00 Build 0)  -->
<svg version="1.1" id="Layer_1" xmlns="http://www.w3.org/2000/svg" xmlns:xlink="http://www.w3.org/1999/xlink" x="0px" y="0px"
	 viewBox="0 0 30 30" style="enable-background:new 0 0 30 30;" xml:space="preserve">
<g>
	<g>
		<path d="M16,23.5c0-4.136,3.364-7.5,7.5-7.5c0.76,0,1.51,0.113,2.23,0.337c0.202,0.064,0.423-0.009,0.55-0.18l2.127-2.866
			C29.464,11.813,30,10.2,30,8.5C30,3.893,26.107,0,21.5,0c-2.417,0-4.802,1.342-6.5,3.623C13.302,1.342,10.917,0,8.5,0
			C3.893,0,0,3.893,0,8.5c0,1.7,0.536,3.313,1.599,4.798l11.495,15.493C13.488,29.343,14.14,30,15.007,30
			c0.673,0,1.3-0.393,1.865-1.166c0.01-0.012,0.02-0.023,0.029-0.036l0.379-0.511c0.127-0.171,0.132-0.403,0.012-0.579
			C16.447,26.464,16,25.009,16,23.5z M23.5,17c-3.584,0-6.5,2.916-6.5,6.5c0,1.761,0.695,3.411,1.958,4.646
			C20.182,29.342,21.795,30,23.5,30s3.318-0.658,4.542-1.854C29.305,26.911,30,25.261,30,23.5C30,19.916,27.084,17,23.5,17z
			 M27.736,27.004c-0.008-0.01-0.018-0.018-0.026-0.028c-0.035-0.042-0.074-0.079-0.111-0.12c-0.108-0.122-0.219-0.242-0.337-0.353
			c-0.056-0.053-0.116-0.101-0.173-0.151c-0.105-0.091-0.211-0.18-0.321-0.263c-0.068-0.05-0.137-0.097-0.207-0.144
			c-0.109-0.073-0.219-0.144-0.332-0.209c-0.075-0.043-0.151-0.084-0.228-0.124c-0.115-0.059-0.231-0.113-0.35-0.164
			c-0.08-0.034-0.159-0.068-0.24-0.098c-0.056-0.021-0.111-0.043-0.168-0.062C25.709,24.832,26,24.2,26,23.5
			c0-1.379-1.122-2.5-2.5-2.5S21,22.121,21,23.5c0,0.7,0.291,1.332,0.757,1.786c-0.057,0.019-0.112,0.042-0.168,0.062
			c-0.081,0.03-0.161,0.064-0.24,0.098c-0.119,0.051-0.235,0.105-0.35,0.164c-0.077,0.04-0.153,0.081-0.228,0.124
			c-0.113,0.065-0.224,0.136-0.332,0.209c-0.07,0.047-0.139,0.094-0.207,0.144c-0.111,0.083-0.217,0.172-0.321,0.263
			c-0.058,0.05-0.117,0.098-0.173,0.151c-0.118,0.111-0.228,0.231-0.337,0.353c-0.036,0.041-0.075,0.078-0.111,0.12
			c-0.008,0.01-0.018,0.018-0.026,0.028C18.445,26.02,18,24.795,18,23.5c0-3.032,2.467-5.5,5.5-5.5s5.5,2.468,5.5,5.5
			C29,24.795,28.555,26.02,27.736,27.004z"/>
	</g>
</g>
</svg>
