<?xml version="1.0" encoding="iso-8859-1"?>
<!-- Generator: Adobe Illustrator 19.0.0, SVG Export Plug-In . SVG Version: 6.00 Build 0)  -->
<svg version="1.1" id="Layer_1" xmlns="http://www.w3.org/2000/svg" xmlns:xlink="http://www.w3.org/1999/xlink" x="0px" y="0px"
	 viewBox="0 0 30 30" style="enable-background:new 0 0 30 30;" xml:space="preserve">
<g>
	<g>
		<path d="M28.447,12.776C28.362,12.607,28.189,12.5,28,12.5h-5v2h6.309L28.447,12.776z M19.916,3.723
			C19.823,3.584,19.667,3.5,19.5,3.5h-9c-0.167,0-0.323,0.084-0.416,0.223L8.899,5.5h12.202L19.916,3.723z M7,13.5v-2H1.5
			c-0.205,0-0.388,0.124-0.464,0.314l-0.68,1.7C0.404,13.509,0.451,13.5,0.5,13.5H7z M29.5,15.5H22V7c0-0.276-0.224-0.5-0.5-0.5h-13
			C8.224,6.5,8,6.724,8,7v7.5H0.5c-0.133,0-0.26,0.053-0.354,0.146C0.052,14.739,0,14.867,0,15l0.007,11c0,0.276,0.224,0.5,0.5,0.5
			H29.5c0.276,0,0.5-0.224,0.5-0.5V16C30,15.724,29.776,15.5,29.5,15.5z M6.5,24.5h-3c-0.194,0-0.371-0.112-0.453-0.288
			c-0.083-0.176-0.056-0.383,0.068-0.532l2.587-3.104c0.189-0.227,0.297-0.546,0.297-0.876c0-0.664-0.408-1.199-0.91-1.199h-0.18
			c-0.502,0-0.91,0.535-0.91,1.192c0,0.276-0.224,0.5-0.5,0.5s-0.5-0.224-0.5-0.5c0-1.209,0.857-2.192,1.91-2.192h0.18
			c1.053,0,1.91,0.983,1.91,2.192c0,0.575-0.188,1.114-0.529,1.523L4.567,23.5H6.5v0C6.776,23.5,7,23.724,7,24S6.776,24.5,6.5,24.5z
			 M16.001,17L16.001,17C16,17.276,15.776,17.5,15.5,17.5S15,17.276,15,17v-5.793l-1.146,1.146c-0.195,0.195-0.512,0.195-0.707,0
			c-0.195-0.195-0.195-0.512,0-0.707l2-2c0.143-0.143,0.358-0.185,0.545-0.108c0.187,0.077,0.309,0.26,0.309,0.462V17z M27,22.5
			c0,1.103-0.897,2-2,2c-1.103,0-2-0.897-2-2c0-0.276,0.224-0.5,0.5-0.5s0.5,0.224,0.5,0.5c0,0.552,0.449,1,1,1s1-0.448,1-1
			s-0.449-1-1-1h-0.5c-0.276,0-0.5-0.224-0.5-0.5s0.224-0.5,0.5-0.5H25c0.551,0,1-0.448,1-1s-0.449-1-1-1s-1,0.448-1,1
			c0,0.276-0.224,0.5-0.5,0.5S23,19.776,23,19.5c0-1.103,0.897-2,2-2c1.103,0,2,0.897,2,2c0,0.6-0.271,1.133-0.691,1.5
			C26.729,21.367,27,21.9,27,22.5z"/>
	</g>
</g>
</svg>
