<?xml version="1.0" encoding="iso-8859-1"?>
<!-- Generator: Adobe Illustrator 19.0.0, SVG Export Plug-In . SVG Version: 6.00 Build 0)  -->
<svg version="1.1" id="Layer_1" xmlns="http://www.w3.org/2000/svg" xmlns:xlink="http://www.w3.org/1999/xlink" x="0px" y="0px"
	 viewBox="0 0 30 30" style="enable-background:new 0 0 30 30;" xml:space="preserve">
<g>
	<g>
		<path d="M27.635,3.518l-12.5-3.5c-0.088-0.024-0.182-0.024-0.27,0l-12.5,3.5C2.149,3.578,2,3.776,2,4v14
			c0,5.545,8.51,10.615,12.851,11.977C14.899,29.992,14.949,30,15,30c0.051,0,0.101-0.008,0.149-0.023C19.49,28.615,28,23.544,28,18
			V4C28,3.776,27.851,3.578,27.635,3.518z M23.874,10.831l-3.844,4.324l0.943,6.133c0.029,0.064,0.046,0.136,0.046,0.211
			c0,0.276-0.224,0.5-0.5,0.5c-0.005,0-0.013,0.001-0.02,0c-0.093,0-0.187-0.026-0.269-0.078L15,18.593l-5.231,3.329
			c-0.166,0.106-0.377,0.104-0.542-0.003c-0.164-0.107-0.251-0.3-0.221-0.495l0.964-6.268l-3.844-4.324
			c-0.125-0.141-0.16-0.34-0.091-0.516c0.069-0.175,0.231-0.297,0.42-0.314l5.233-0.476l2.873-5.266
			c0.174-0.321,0.703-0.321,0.877,0l2.873,5.266l5.233,0.476c0.188,0.017,0.351,0.139,0.42,0.314
			C24.034,10.492,23.999,10.69,23.874,10.831z"/>
	</g>
</g>
</svg>
