<?xml version="1.0" encoding="iso-8859-1"?>
<!-- Generator: Adobe Illustrator 19.0.0, SVG Export Plug-In . SVG Version: 6.00 Build 0)  -->
<svg version="1.1" id="Layer_1" xmlns="http://www.w3.org/2000/svg" xmlns:xlink="http://www.w3.org/1999/xlink" x="0px" y="0px"
	 viewBox="0 0 30 30" style="enable-background:new 0 0 30 30;" xml:space="preserve">
<g>
	<g>
		<path d="M26.137,1.02C25.991,0.977,22.519,0,19,0c-1.794,0-2.819,0.259-3.812,0.51C14.19,0.761,13.248,1,11.5,1
			C8.014,1,4.162,0.024,4.124,0.016C4.107,0.012,4.089,0.017,4.072,0.015C4.048,0.01,4.026,0,4,0C3.979,0,3.962,0.01,3.942,0.013
			C3.914,0.016,3.889,0.021,3.861,0.029C3.816,0.042,3.775,0.062,3.736,0.086c-0.014,0.009-0.03,0.01-0.043,0.02
			c-0.007,0.006-0.01,0.015-0.017,0.02C3.637,0.161,3.607,0.201,3.58,0.245c-0.01,0.017-0.024,0.03-0.032,0.048
			C3.519,0.357,3.5,0.425,3.5,0.5v29C3.5,29.776,3.724,30,4,30s0.5-0.224,0.5-0.5V16.132C5.752,16.414,8.692,17,11.5,17
			c1.872,0,2.92-0.265,3.934-0.521C16.41,16.232,17.33,16,19,16c3.311,0,6.719,1.915,6.753,1.935C25.829,17.979,25.915,18,26,18
			c0.087,0,0.174-0.022,0.251-0.068c0.154-0.089,0.249-0.254,0.249-0.432v-16C26.5,1.276,26.352,1.08,26.137,1.02z M19.854,6.854
			l-2.261,2.261l1.317,3.072c0.068,0.086,0.109,0.195,0.109,0.313c0,0.276-0.224,0.5-0.5,0.5h-0.02
			c-0.085,0-0.171-0.021-0.248-0.065l-3.252-1.858l-3.252,1.858c-0.186,0.105-0.421,0.082-0.581-0.062
			c-0.16-0.143-0.211-0.372-0.127-0.57l1.367-3.188l-2.261-2.261c-0.143-0.143-0.186-0.358-0.108-0.545
			C10.115,6.122,10.298,6,10.5,6h2.691l1.361-2.724c0.17-0.338,0.725-0.338,0.895,0L16.808,6H19.5c0.202,0,0.385,0.122,0.462,0.309
			C20.039,6.496,19.996,6.711,19.854,6.854z"/>
	</g>
</g>
</svg>
