<?xml version="1.0" encoding="iso-8859-1"?>
<!-- Generator: Adobe Illustrator 19.0.0, SVG Export Plug-In . SVG Version: 6.00 Build 0)  -->
<svg version="1.1" id="Layer_1" xmlns="http://www.w3.org/2000/svg" xmlns:xlink="http://www.w3.org/1999/xlink" x="0px" y="0px"
	 viewBox="0 0 30 30" style="enable-background:new 0 0 30 30;" xml:space="preserve">
<g>
	<g>
		<path d="M14.5,4.999H13v-4.5c0-0.194-0.112-0.371-0.288-0.452c-0.173-0.081-0.382-0.056-0.532,0.068l-12,10
			C0.069,10.208,0.003,10.343,0,10.488c-0.004,0.144,0.056,0.282,0.162,0.38l12,11c0.146,0.133,0.359,0.171,0.539,0.089
			c0.182-0.08,0.299-0.26,0.299-0.458v-5.5h0.5c5.986,0,10.5,3.224,10.5,7.5c0,1.624-1.492,4.079-2.878,5.672
			c-0.158,0.181-0.164,0.449-0.015,0.638c0.098,0.124,0.244,0.19,0.393,0.19c0.079,0,0.158-0.019,0.231-0.057
			C25.84,27.795,30,23.003,30,17.999C30,10.952,22.902,4.999,14.5,4.999z M23.495,27.619C24.303,26.313,25,24.787,25,23.499
			c0-4.846-4.944-8.5-11.5-8.5h-1c-0.276,0-0.5,0.224-0.5,0.5v4.863L1.259,10.517L12,1.566v3.933c0,0.276,0.224,0.5,0.5,0.5h2
			c7.86,0,14.5,5.495,14.5,12C29,21.706,26.481,25.307,23.495,27.619z"/>
	</g>
</g>
</svg>
