<?xml version="1.0" encoding="iso-8859-1"?>
<!-- Generator: Adobe Illustrator 19.0.0, SVG Export Plug-In . SVG Version: 6.00 Build 0)  -->
<svg version="1.1" id="Layer_1" xmlns="http://www.w3.org/2000/svg" xmlns:xlink="http://www.w3.org/1999/xlink" x="0px" y="0px"
	 viewBox="0 0 30 30" style="enable-background:new 0 0 30 30;" xml:space="preserve">
<g>
	<g>
		<path d="M27.5,0C27.224,0,27,0.224,27,0.5v3.57C24.238,1.45,20.659,0,16.852,0C12.884,0,9.153,1.561,6.348,4.396
			C3.544,7.227,2,10.995,2,15s1.544,7.772,4.348,10.604C9.154,28.44,12.884,30,16.851,30c3.968,0,7.699-1.561,10.504-4.396
			c0.194-0.196,0.192-0.513-0.004-0.707c-0.196-0.194-0.513-0.193-0.707,0.004C24.028,27.544,20.55,29,16.851,29
			c-3.698,0-7.176-1.456-9.792-4.099C4.441,22.256,3,18.74,3,15c0-3.741,1.441-7.257,4.059-9.902C9.675,2.456,13.153,1,16.852,1
			C20.503,1,23.933,2.423,26.537,5H22.5C22.224,5,22,5.224,22,5.5S22.224,6,22.5,6h5C27.776,6,28,5.776,28,5.5v-5
			C28,0.224,27.776,0,27.5,0z"/>
	</g>
</g>
</svg>
