<?xml version="1.0" encoding="iso-8859-1"?>
<!-- Generator: Adobe Illustrator 19.0.0, SVG Export Plug-In . SVG Version: 6.00 Build 0)  -->
<svg version="1.1" id="Layer_1" xmlns="http://www.w3.org/2000/svg" xmlns:xlink="http://www.w3.org/1999/xlink" x="0px" y="0px"
	 viewBox="0 0 30 30" style="enable-background:new 0 0 30 30;" xml:space="preserve">
<g>
	<g>
		<path d="M19.566,0.712c-0.267-0.087-0.545,0.061-0.629,0.324s0.061,0.544,0.324,0.628C25.086,3.524,29,8.883,29,14.999
			c0,5.959-3.742,11.06-9,13.077v-3.577c0-0.2-0.12-0.381-0.305-0.46c-0.187-0.077-0.399-0.038-0.543,0.101l-5.131,4.968
			c-0.143,0.139-0.19,0.35-0.119,0.537c0.07,0.187,0.246,0.314,0.446,0.322l0.228,0.014C14.717,29.991,14.857,30,15,30
			c8.271,0,15-6.729,15-15C30,8.447,25.807,2.706,19.566,0.712z M19,28.418c-1.09,0.325-2.234,0.522-3.416,0.57L19,25.68V28.418z
			 M10.739,28.336C4.914,26.476,1,21.117,1,15.001c0-5.959,3.742-11.06,9-13.077v3.577c0,0.2,0.12,0.381,0.305,0.46
			C10.492,6.039,10.704,6,10.848,5.86l5.131-4.968c0.143-0.139,0.19-0.35,0.119-0.537c-0.07-0.187-0.246-0.314-0.446-0.322
			l-0.228-0.014C15.283,0.009,15.143,0,15,0C6.729,0,0,6.729,0,15c0,6.553,4.193,12.294,10.435,14.287
			c0.05,0.017,0.102,0.024,0.152,0.024c0.212,0,0.408-0.135,0.476-0.347C11.147,28.701,11.002,28.42,10.739,28.336z M11,1.582
			c1.09-0.325,2.234-0.521,3.416-0.57L11,4.32V1.582z"/>
	</g>
</g>
</svg>
