<?xml version="1.0" encoding="iso-8859-1"?>
<!-- Generator: Adobe Illustrator 19.0.0, SVG Export Plug-In . SVG Version: 6.00 Build 0)  -->
<svg version="1.1" id="Layer_1" xmlns="http://www.w3.org/2000/svg" xmlns:xlink="http://www.w3.org/1999/xlink" x="0px" y="0px"
	 viewBox="0 0 30 30" style="enable-background:new 0 0 30 30;" xml:space="preserve">
<g>
	<g>
		<path d="M29.5,0.5C29.5,0.224,29.276,0,29,0h-6c-0.215,0-0.406,0.138-0.474,0.342l-1,3c-0.051,0.152-0.025,0.32,0.068,0.451
			C21.688,3.923,21.839,4,22,4h1.793l-3.979,3.979l0.676-3.38c0.029-0.147-0.009-0.299-0.104-0.415C20.292,4.067,20.15,4,20,4h-2
			l2.4-3.2c0.114-0.151,0.132-0.354,0.047-0.523C20.362,0.107,20.189,0,20,0H1C0.724,0,0.5,0.224,0.5,0.5
			c0,7.442,5.675,13.688,13,14.443V27H9c-1.519,0-2.5,0.981-2.5,2.5C6.5,29.776,6.724,30,7,30h16c0.276,0,0.5-0.224,0.5-0.5
			c0-1.519-0.981-2.5-2.5-2.5h-4.5V14.944C23.825,14.2,29.5,7.953,29.5,0.5z"/>
	</g>
</g>
</svg>
