<?xml version="1.0" encoding="iso-8859-1"?>
<!-- Generator: Adobe Illustrator 19.0.0, SVG Export Plug-In . SVG Version: 6.00 Build 0)  -->
<svg version="1.1" id="Layer_1" xmlns="http://www.w3.org/2000/svg" xmlns:xlink="http://www.w3.org/1999/xlink" x="0px" y="0px"
	 viewBox="0 0 30 30" style="enable-background:new 0 0 30 30;" xml:space="preserve">
<g>
	<g>
		<path d="M15,0.5C7.005,0.5,0.5,7.005,0.5,15S7.005,29.5,15,29.5S29.5,22.995,29.5,15S22.995,0.5,15,0.5z M15,28.5
			C7.556,28.5,1.5,22.444,1.5,15C1.5,7.556,7.556,1.5,15,1.5c7.444,0,13.5,6.056,13.5,13.5C28.5,22.444,22.444,28.5,15,28.5z
			 M21.499,5.967C21.481,5.704,21.263,5.5,21,5.5H11c-0.276,0-0.5,0.224-0.5,0.5s0.224,0.5,0.5,0.5h9.532l0.333,5h-7.866
			c-4.276,0-7.5,3.439-7.5,8V21c0,0.276,0.224,0.5,0.5,0.5h16.02c0.001,0,0.002-0.001,0.003-0.001h0.01
			c0.009-0.001,0.015-0.005,0.024-0.006c0.258-0.02,0.463-0.229,0.463-0.493c0-0.05-0.014-0.097-0.028-0.143L21.499,5.967z
			 M13.5,16.5c-0.551,0-1-0.449-1-1s0.449-1,1-1c0.551,0,1,0.449,1,1S14.051,16.5,13.5,16.5z M16.5,16.5c-0.551,0-1-0.449-1-1
			s0.449-1,1-1s1,0.449,1,1S17.051,16.5,16.5,16.5z"/>
	</g>
</g>
</svg>
