<?xml version="1.0" encoding="iso-8859-1"?>
<!-- Generator: Adobe Illustrator 19.0.0, SVG Export Plug-In . SVG Version: 6.00 Build 0)  -->
<svg version="1.1" id="Layer_1" xmlns="http://www.w3.org/2000/svg" xmlns:xlink="http://www.w3.org/1999/xlink" x="0px" y="0px"
	 viewBox="0 0 30 30" style="enable-background:new 0 0 30 30;" xml:space="preserve">
<g>
	<g>
		<path d="M17,13.75h-4c-0.276,0-0.5,0.224-0.5,0.5v0.5h5v-0.5C17.5,13.974,17.276,13.75,17,13.75z M27,9.75H3
			c-0.827,0-1.5,0.673-1.5,1.5v17c0,0.827,0.673,1.5,1.5,1.5h24c0.827,0,1.5-0.673,1.5-1.5v-17C28.5,10.423,27.827,9.75,27,9.75z
			 M8.5,26.7c-1.14-0.233-2-1.243-2-2.45v-7c0-1.207,0.86-2.217,2-2.449V26.7z M20.5,26.75h-11v-12h2v-0.5
			c0-0.827,0.673-1.5,1.5-1.5h4c0.827,0,1.5,0.673,1.5,1.5v0.5h2V26.75z M23.5,24.25c0,1.207-0.86,2.217-2,2.449V14.8
			c1.14,0.232,2,1.242,2,2.449V24.25z M9.647,6.603C9.74,6.697,9.867,6.75,10,6.75h2.057c0.141,0,0.275-0.059,0.37-0.163l0.2-0.22
			l0.2,0.22c0.095,0.104,0.229,0.163,0.37,0.163h1.708c0.141,0,0.275-0.059,0.37-0.163l0.305-0.334l0.794,0.436
			c0.074,0.04,0.156,0.062,0.24,0.062l0.775,0.001c0.757,0.94,1.898,1.499,3.112,1.499c2.206,0,4-1.794,4-4S22.706,0.25,20.5,0.25
			c-1.237,0-2.39,0.575-3.146,1.542L10.003,1.75C9.826,1.768,9.741,1.802,9.647,1.896l-2,2c-0.195,0.195-0.195,0.512,0,0.707
			L9.647,6.603z M21.5,3.25c0.551,0,1,0.449,1,1s-0.449,1-1,1s-1-0.449-1-1S20.949,3.25,21.5,3.25z M11,3.75h5.5
			c0.276,0,0.5,0.224,0.5,0.5s-0.224,0.5-0.5,0.5H11c-0.276,0-0.5-0.224-0.5-0.5S10.724,3.75,11,3.75z"/>
	</g>
</g>
</svg>
