<?xml version="1.0" encoding="iso-8859-1"?>
<!-- Generator: Adobe Illustrator 19.0.0, SVG Export Plug-In . SVG Version: 6.00 Build 0)  -->
<svg version="1.1" id="Layer_1" xmlns="http://www.w3.org/2000/svg" xmlns:xlink="http://www.w3.org/1999/xlink" x="0px" y="0px"
	 viewBox="0 0 30 30" style="enable-background:new 0 0 30 30;" xml:space="preserve">
<g>
	<g>
		<path d="M23.48,14.588C23.266,11.746,20.893,9.5,18,9.5h-5.172c-0.202,0-0.385,0.122-0.462,0.309
			c-0.078,0.187-0.035,0.402,0.108,0.545l5,4.999c0.046,0.046,0.101,0.083,0.162,0.108c0.06,0.025,0.126,0.039,0.192,0.039H23
			c0.276,0,0.5,0.224,0.5,0.5s-0.224,0.5-0.5,0.5h-3.172c-0.092,0-0.174,0.032-0.248,0.075c-0.018,0.011-0.033,0.021-0.05,0.034
			c-0.069,0.053-0.129,0.117-0.163,0.199c0,0-0.001,0-0.001,0.001c-0.001,0.002,0,0.003,0,0.005
			c-0.023,0.058-0.038,0.12-0.038,0.187c0,0.023,0.01,0.042,0.013,0.064c0.003,0.023,0.007,0.042,0.013,0.064
			c0.023,0.086,0.06,0.165,0.121,0.226l2.374,2.374c0.094,0.094,0.221,0.146,0.354,0.146c0.012,0,0.024,0,0.037-0.001
			c0.145-0.01,0.278-0.083,0.365-0.2c0.5-0.673,0.785-1.446,0.862-2.254c0.598-0.197,1.034-0.755,1.034-1.418
			C24.501,15.343,24.071,14.789,23.48,14.588z M15,0.5C7.005,0.5,0.5,7.005,0.5,15S7.005,29.5,15,29.5S29.5,22.995,29.5,15
			S22.995,0.5,15,0.5z M15,28.5C7.556,28.5,1.5,22.444,1.5,15c0-3.542,1.382-6.76,3.622-9.171l4.327,4.327
			c-1.664,0.875-2.769,2.55-2.915,4.426C5.935,14.779,5.5,15.337,5.5,16c0,0.667,0.44,1.226,1.043,1.421
			C6.759,19.703,8.663,21.5,11,21.5h8c0.513,0,1.014-0.113,1.503-0.29l3.668,3.668C21.76,27.118,18.542,28.5,15,28.5z M7,16.5
			c-0.276,0-0.5-0.224-0.5-0.5s0.224-0.5,0.5-0.5h7.793l1,1H7z M14.216,17.5l-1.727,1.842c-0.096,0.104-0.23,0.158-0.364,0.158
			c-0.093,0-0.187-0.026-0.27-0.079L8.854,17.5H14.216z M24.878,24.171l-3.884-3.884l-5.641-5.641l-4.688-4.688L5.828,5.121
			c2.411-2.24,5.629-3.622,9.171-3.622C22.444,1.5,28.5,7.556,28.5,15C28.5,18.542,27.118,21.76,24.878,24.171z"/>
	</g>
</g>
</svg>
