<?xml version="1.0" encoding="iso-8859-1"?>
<!-- Generator: Adobe Illustrator 19.0.0, SVG Export Plug-In . SVG Version: 6.00 Build 0)  -->
<svg version="1.1" id="Layer_1" xmlns="http://www.w3.org/2000/svg" xmlns:xlink="http://www.w3.org/1999/xlink" x="0px" y="0px"
	 viewBox="0 0 30 30" style="enable-background:new 0 0 30 30;" xml:space="preserve">
<g>
	<g>
		<path d="M7.554,23.497c0.002,0.026,0.006,0.052,0.013,0.078c0.267,1.134,1.268,1.926,2.434,1.926c1.379,0,2.5-1.122,2.5-2.5
			c0-0.588,0.024-1.078,0.064-1.5h-5.37C7.339,22.245,7.473,22.931,7.554,23.497z M20.479,18.357
			c0.098,0.097,0.226,0.146,0.354,0.146c0.117,0,0.234-0.041,0.329-0.123c0.012-0.01,0.018-0.025,0.03-0.036
			c0.105-0.029,0.204-0.079,0.274-0.174c0.316-0.431,0.455-0.949,0.489-1.097c0.002-0.01-0.001-0.019,0.001-0.028
			c0.002-0.006,0.005-0.011,0.007-0.017c0.081-0.571,0.217-1.27,0.364-2.029h-5.206L20.479,18.357z M15,0.5
			C7.005,0.5,0.5,7.005,0.5,15S7.005,29.5,15,29.5c3.866,0,7.374-1.53,9.976-4.005c0.008,0,0.016,0.005,0.024,0.005
			c0.128,0,0.256-0.049,0.354-0.146c0.104-0.104,0.148-0.241,0.142-0.377C27.97,22.374,29.5,18.866,29.5,15
			C29.5,7.005,22.995,0.5,15,0.5z M15,28.5C7.556,28.5,1.5,22.444,1.5,15c0-3.542,1.382-6.76,3.622-9.171l4.945,4.945
			c-0.091,0.02-0.18,0.027-0.273,0.057c-1.32,0.423-2.828,1.849-3.224,4.082c-0.268,1.516,0.069,3.666,0.432,5.587h5.715
			c0.151-0.691,0.36-1.135,0.567-1.563c0.362-0.746,0.737-1.518,0.737-3.368c0-0.331-0.02-0.62-0.051-0.892l10.201,10.201
			C21.76,27.118,18.542,28.5,15,28.5z M24.878,24.171L5.829,5.122C8.24,2.882,11.458,1.5,15,1.5c7.444,0,13.5,6.056,13.5,13.5
			C28.5,18.542,27.118,21.76,24.878,24.171z M18.344,4.286c-0.408,0.014-0.772,0.106-1.083,0.275
			c-1.454,0.792-2.063,2.18-1.913,4.37c0.05,0.735,0.152,1.363,0.301,1.883c0.143,0.705,0.368,1.172,0.587,1.624
			c0.215,0.445,0.419,0.879,0.567,1.562h5.716c0.363-1.921,0.701-4.071,0.432-5.587C22.447,5.57,19.918,3.797,18.344,4.286z"/>
	</g>
</g>
</svg>
