<?xml version="1.0" encoding="iso-8859-1"?>
<!-- Generator: Adobe Illustrator 19.0.0, SVG Export Plug-In . SVG Version: 6.00 Build 0)  -->
<svg version="1.1" id="Layer_1" xmlns="http://www.w3.org/2000/svg" xmlns:xlink="http://www.w3.org/1999/xlink" x="0px" y="0px"
	 viewBox="0 0 24 24" style="enable-background:new 0 0 24 24;" xml:space="preserve">
<g>
	<g>
		<path d="M9.685,13.66c-0.593,0.249-2.562,1.095-2.988,1.522c-0.585,0.585-0.585,1.536,0,2.121c0.283,0.283,0.66,0.439,1.061,0.439
			s0.777-0.156,1.061-0.439c0.427-0.427,1.273-2.396,1.522-2.988c0.079-0.188,0.036-0.404-0.107-0.547
			C10.088,13.623,9.873,13.581,9.685,13.66z M8.818,6.697c-0.566-0.566-1.555-0.566-2.121,0c-0.585,0.585-0.585,1.536,0,2.121
			c0.427,0.427,2.396,1.273,2.988,1.522c0.063,0.026,0.128,0.039,0.194,0.039h0.02c0.276,0,0.5-0.224,0.5-0.5
			c0-0.118-0.041-0.226-0.109-0.311C9.993,8.867,9.22,7.099,8.818,6.697z M11.537,14.811C11.294,15.406,10.5,17.396,10.5,18
			c0,0.827,0.673,1.5,1.5,1.5c0.827,0,1.5-0.673,1.5-1.5c0-0.604-0.794-2.594-1.037-3.189C12.31,14.435,11.69,14.435,11.537,14.811z
			 M9.5,12c0-0.203-0.123-0.386-0.311-0.463C8.594,11.294,6.604,10.5,6,10.5c-0.827,0-1.5,0.673-1.5,1.5s0.673,1.5,1.5,1.5
			c0.604,0,2.594-0.794,3.189-1.037C9.377,12.386,9.5,12.203,9.5,12z M18,10.5c-0.604,0-2.594,0.794-3.189,1.037
			C14.623,11.614,14.5,11.797,14.5,12s0.123,0.386,0.311,0.463C15.406,12.706,17.396,13.5,18,13.5c0.827,0,1.5-0.673,1.5-1.5
			S18.827,10.5,18,10.5z M14.315,13.66c-0.188-0.078-0.403-0.036-0.547,0.107c-0.144,0.144-0.186,0.36-0.107,0.547
			c0.249,0.593,1.095,2.562,1.522,2.988c0.283,0.283,0.66,0.439,1.061,0.439s0.777-0.156,1.061-0.439
			c0.585-0.585,0.585-1.536,0-2.121C16.876,14.755,14.908,13.909,14.315,13.66z M12,4.5c-0.827,0-1.5,0.673-1.5,1.5
			c0,0.604,0.794,2.594,1.037,3.189C11.614,9.377,11.797,9.5,12,9.5s0.386-0.123,0.463-0.311C12.706,8.594,13.5,6.604,13.5,6
			C13.5,5.173,12.827,4.5,12,4.5z M12,0.5C5.659,0.5,0.5,5.659,0.5,12S5.659,23.5,12,23.5S23.5,18.341,23.5,12S18.341,0.5,12,0.5z
			 M12,20.5c-4.687,0-8.5-3.813-8.5-8.5S7.313,3.5,12,3.5s8.5,3.813,8.5,8.5S16.687,20.5,12,20.5z M14.121,10.379
			c0.065,0,0.131-0.013,0.194-0.039c0.593-0.249,2.562-1.095,2.988-1.522c0.585-0.585,0.585-1.536,0-2.121
			c-0.566-0.566-1.555-0.566-2.121,0c-0.427,0.427-1.273,2.396-1.522,2.988c-0.079,0.188-0.036,0.404,0.107,0.547
			C13.863,10.328,13.991,10.379,14.121,10.379z"/>
	</g>
</g>
</svg>
