<?xml version="1.0" encoding="iso-8859-1"?>
<!-- Generator: Adobe Illustrator 19.0.0, SVG Export Plug-In . SVG Version: 6.00 Build 0)  -->
<svg version="1.1" id="Layer_1" xmlns="http://www.w3.org/2000/svg" xmlns:xlink="http://www.w3.org/1999/xlink" x="0px" y="0px"
	 viewBox="0 0 24 24" style="enable-background:new 0 0 24 24;" xml:space="preserve">
<g>
	<g>
		<path d="M12,17.617c0-3.092,1.545-5.339,3.844-5.592c0.169-0.019,0.318-0.122,0.394-0.275c0.076-0.152,0.068-0.333-0.02-0.479
			c-0.423-0.704-0.213-1.599,0.521-2.057c0.161-0.087,0.262-0.256,0.262-0.439V0.5c0-0.276-0.224-0.5-0.5-0.5h-12
			C4.437,0,4.372,0.013,4.31,0.038C4.248,0.063,4.193,0.1,4.148,0.147L0.148,4.146C0.103,4.192,0.065,4.248,0.039,4.309
			C0.013,4.37,0,4.435,0,4.5v19C0,23.776,0.224,24,0.5,24h13.105c0.193,0,0.37-0.111,0.452-0.287
			c0.083-0.175,0.057-0.382-0.066-0.531C12.781,21.714,12,19.53,12,17.617z M12.5,10h-8C4.224,10,4,9.776,4,9.5S4.224,9,4.5,9h8
			C12.776,9,13,9.224,13,9.5S12.776,10,12.5,10z M4.5,6h8C12.776,6,13,6.224,13,6.5S12.776,7,12.5,7h-8C4.224,7,4,6.776,4,6.5
			S4.224,6,4.5,6z M4,1.707V4H1.708L4,1.707z M10.5,19h-6C4.224,19,4,18.776,4,18.5S4.224,18,4.5,18h6c0.276,0,0.5,0.224,0.5,0.5
			S10.776,19,10.5,19z M10.5,16h-6C4.224,16,4,15.776,4,15.5S4.224,15,4.5,15h6c0.276,0,0.5,0.224,0.5,0.5S10.776,16,10.5,16z
			 M11.5,13h-7C4.224,13,4,12.776,4,12.5S4.224,12,4.5,12h7c0.276,0,0.5,0.224,0.5,0.5S11.776,13,11.5,13z M20.976,13.032
			C21.59,12.446,22,11.603,22,10.5c0-0.276-0.224-0.5-0.5-0.5c-1.146,0-2.29,0.532-2.945,1.545
			c-0.238-0.651-0.507-1.113-0.633-1.312c-0.148-0.232-0.455-0.303-0.69-0.154c-0.233,0.147-0.303,0.456-0.155,0.689
			c0.381,0.601,0.766,1.585,0.875,2.674c-0.052-0.019-0.097-0.029-0.154-0.054C17.401,13.215,16.906,13,16.291,13
			C14.323,13,13,14.855,13,17.617C13,20.158,14.755,24,17.398,24c0.464,0,0.697-0.106,0.915-0.225
			c0.084-0.045,0.115-0.063,0.186-0.068c0.07,0.006,0.102,0.023,0.186,0.068C18.904,23.893,19.137,24,19.601,24
			C22.246,24,24,20.158,24,17.617C24,14.985,22.792,13.196,20.976,13.032z"/>
	</g>
</g>
</svg>
