<?xml version="1.0" encoding="iso-8859-1"?>
<!-- Generator: Adobe Illustrator 19.0.0, SVG Export Plug-In . SVG Version: 6.00 Build 0)  -->
<svg version="1.1" id="Layer_1" xmlns="http://www.w3.org/2000/svg" xmlns:xlink="http://www.w3.org/1999/xlink" x="0px" y="0px"
	 viewBox="0 0 24 24" style="enable-background:new 0 0 24 24;" xml:space="preserve">
<g>
	<g>
		<path d="M20.976,10.637C20.725,4.451,14.254,2.128,8,2.012V1.5C8,1.224,7.776,1,7.5,1h-1C6.224,1,6,1.224,6,1.5S6.224,2,6.5,2H7v1
			H6.5C6.224,3,6,3.224,6,3.5c0,1.162-0.767,2.034-1.655,3.043C3.246,7.793,2,9.209,2,11.5c0,2.537,1.522,5.585,2.746,8.034
			C5.362,20.768,6,22.044,6,22.5C6,22.776,6.224,23,6.5,23h2C8.776,23,9,22.776,9,22.5c0-0.456,0.638-1.732,1.254-2.966
			C11.478,17.085,13,14.037,13,11.5c0-2.291-1.246-3.707-2.345-4.957C9.767,5.534,9,4.662,9,3.5c0-0.233-0.162-0.419-0.377-0.475
			c5.573,0.244,11.122,2.359,11.354,7.639C19.337,11.059,19,12.154,19,13.25c0,1.367,0.515,2.75,1.5,2.75s1.5-1.383,1.5-2.75
			C22,12.127,21.647,11.005,20.976,10.637z M11,12.5c0,1.402-1.538,2.5-3.5,2.5C5.538,15,4,13.902,4,12.5S5.538,10,7.5,10
			C9.462,10,11,11.098,11,12.5z"/>
	</g>
</g>
</svg>
