<?xml version="1.0" encoding="iso-8859-1"?>
<!-- Generator: Adobe Illustrator 19.0.0, SVG Export Plug-In . SVG Version: 6.00 Build 0)  -->
<svg version="1.1" id="Layer_1" xmlns="http://www.w3.org/2000/svg" xmlns:xlink="http://www.w3.org/1999/xlink" x="0px" y="0px"
	 viewBox="0 0 24 24" style="enable-background:new 0 0 24 24;" xml:space="preserve">
<g>
	<g>
		<path d="M18.146,10.647l-2.403,2.403c-0.08-0.021-0.157-0.049-0.244-0.049c-0.551,0-1,0.449-1,1c0,0.086,0.029,0.164,0.049,0.244
			l-2.403,2.403c-0.195,0.195-0.195,0.512,0,0.707c0.098,0.098,0.226,0.146,0.354,0.146c0.128,0,0.256-0.049,0.354-0.146
			l2.403-2.403c0.08,0.021,0.157,0.049,0.244,0.049c0.551,0,1-0.449,1-1c0-0.086-0.029-0.164-0.049-0.244l2.403-2.403
			c0.195-0.195,0.195-0.512,0-0.707S18.342,10.452,18.146,10.647z M21.301,5.602c-0.053-0.04-0.114-0.07-0.182-0.087l-20.5-5
			c-0.27-0.066-0.54,0.099-0.604,0.367C-0.05,1.151,0.114,1.421,0.382,1.486L16.84,5.5H3.5C1.57,5.5,0,7.07,0,9v10
			c0,1.758,1.308,3.204,3,3.449V23c0,0.276,0.224,0.5,0.5,0.5h1C4.776,23.5,5,23.276,5,23v-0.5h14V23c0,0.276,0.224,0.5,0.5,0.5h1
			c0.276,0,0.5-0.224,0.5-0.5v-0.551c1.692-0.245,3-1.691,3-3.449V9C24,7.348,22.844,5.967,21.301,5.602z M2.5,9.501h4
			c0.276,0,0.5,0.224,0.5,0.5s-0.224,0.5-0.5,0.5h-4c-0.276,0-0.5-0.224-0.5-0.5S2.224,9.501,2.5,9.501z M2.5,12.501h4
			c0.276,0,0.5,0.224,0.5,0.5s-0.224,0.5-0.5,0.5h-4c-0.276,0-0.5-0.224-0.5-0.5S2.224,12.501,2.5,12.501z M2.5,15.501h4
			c0.276,0,0.5,0.224,0.5,0.5s-0.224,0.5-0.5,0.5h-4c-0.276,0-0.5-0.224-0.5-0.5S2.224,15.501,2.5,15.501z M3.5,20.501
			c-0.827,0-1.5-0.673-1.5-1.5c0-0.827,0.673-1.5,1.5-1.5c0.827,0,1.5,0.673,1.5,1.5C5,19.828,4.327,20.501,3.5,20.501z M7,20.501
			c-0.551,0-1-0.449-1-1c0-0.551,0.449-1,1-1c0.551,0,1,0.449,1,1C8,20.052,7.551,20.501,7,20.501z M15.5,20.501
			c-3.584,0-6.5-2.916-6.5-6.5s2.916-6.5,6.5-6.5s6.5,2.916,6.5,6.5S19.084,20.501,15.5,20.501z"/>
	</g>
</g>
</svg>
