<?xml version="1.0" encoding="iso-8859-1"?>
<!-- Generator: Adobe Illustrator 19.0.0, SVG Export Plug-In . SVG Version: 6.00 Build 0)  -->
<svg version="1.1" id="Layer_1" xmlns="http://www.w3.org/2000/svg" xmlns:xlink="http://www.w3.org/1999/xlink" x="0px" y="0px"
	 viewBox="0 0 24 24" style="enable-background:new 0 0 24 24;" xml:space="preserve">
<g>
	<g>
		<path d="M3.5,22.5C3.5,23.327,4.173,24,5,24h14c0.827,0,1.5-0.673,1.5-1.5V21h-17V22.5z M19,5h-0.5V2.5C18.5,2.224,18.276,2,18,2
			s-0.5,0.224-0.5,0.5V3h-4V2.908c0.581-0.207,1-0.757,1-1.408C14.5,0.673,13.827,0,13,0h-3C9.173,0,8.5,0.673,8.5,1.5
			c0,0.651,0.419,1.201,1,1.408V5H5C4.173,5,3.5,5.673,3.5,6.5V8h17V6.5C20.5,5.673,19.827,5,19,5z M17.5,5h-4V4h4V5z M3.5,20h17V9
			h-17V20z"/>
	</g>
</g>
</svg>
