<?xml version="1.0" encoding="utf-8"?>
<!-- Generator: Adobe Illustrator 19.0.0, SVG Export Plug-In . SVG Version: 6.00 Build 0)  -->
<svg version="1.1" id="Layer_1" xmlns="http://www.w3.org/2000/svg" xmlns:xlink="http://www.w3.org/1999/xlink" x="0px" y="0px"
	 viewBox="0 0 30 30" style="enable-background:new 0 0 30 30;" xml:space="preserve">
<g>
	<g>
		<path d="M21.5,13c-4.7,0-8.5,3.8-8.5,8.5s3.8,8.5,8.5,8.5s8.5-3.8,8.5-8.5S26.2,13,21.5,13z M24.5,24h-6c-0.3,0-0.5-0.2-0.5-0.5
			s0.2-0.5,0.5-0.5h6c0.3,0,0.5,0.2,0.5,0.5S24.8,24,24.5,24z M24.5,20h-6c-0.3,0-0.5-0.2-0.5-0.5s0.2-0.5,0.5-0.5h6
			c0.3,0,0.5,0.2,0.5,0.5S24.8,20,24.5,20z"/>
	</g>
	<g>
		<path d="M12,21.5c0-5.2,4.3-9.5,9.5-9.5c3,0,5.8,1.4,7.5,3.7V4.5C29,2.1,26.9,0,24.5,0H4.3C1.9,0,0,1.9,0,4.3v20.2
			C0,26.9,2.1,29,4.5,29h11.2C13.4,27.3,12,24.5,12,21.5z M18.5,7h6C24.8,7,25,7.2,25,7.5S24.8,8,24.5,8h-6C18.2,8,18,7.8,18,7.5
			S18.2,7,18.5,7z M10.9,24.1c0.2,0.2,0.2,0.5,0,0.7C10.8,25,10.6,25,10.5,25s-0.3,0-0.4-0.1l-2.6-2.6l-2.6,2.6
			C4.8,25,4.6,25,4.5,25s-0.3,0-0.4-0.1c-0.2-0.2-0.2-0.5,0-0.7l2.6-2.6l-2.6-2.6c-0.2-0.2-0.2-0.5,0-0.7s0.5-0.2,0.7,0l2.6,2.6
			l2.6-2.6c0.2-0.2,0.5-0.2,0.7,0s0.2,0.5,0,0.7l-2.6,2.6L10.9,24.1z M10.5,8H8v2.5C8,10.8,7.8,11,7.5,11S7,10.8,7,10.5V8H4.5
			C4.2,8,4,7.8,4,7.5S4.2,7,4.5,7H7V4.5C7,4.2,7.2,4,7.5,4S8,4.2,8,4.5V7h2.5C10.8,7,11,7.2,11,7.5S10.8,8,10.5,8z"/>
	</g>
</g>
</svg>
