<?xml version="1.0" encoding="utf-8"?>
<!-- Generator: Adobe Illustrator 19.0.0, SVG Export Plug-In . SVG Version: 6.00 Build 0)  -->
<svg version="1.1" id="Layer_1" xmlns="http://www.w3.org/2000/svg" xmlns:xlink="http://www.w3.org/1999/xlink" x="0px" y="0px"
	 viewBox="0 0 30 30" style="enable-background:new 0 0 30 30;" xml:space="preserve">
<g>
	<g>
		<path d="M19,18.8c-0.6-1.6-2.1-2.7-4-2.7s-3.5,1-4,2.7c0,0,0,0,0,0c1,1.1,2.4,1.8,4.1,1.8C16.6,20.6,18,19.9,19,18.8
			C19,18.8,19,18.8,19,18.8z"/>
	</g>
	<g>
		<circle cx="15" cy="13.1" r="1.5"/>
	</g>
	<g>
		<path d="M29.4,13.2c-0.2-1.4-1.7-2.4-3-1.8c-0.6,0.2-1.3-0.1-1.6-0.7c-0.3-0.7-0.7-1.3-1.1-1.9c-0.4-0.6-0.3-1.3,0.2-1.8
			c0.5-0.4,0.8-1.1,0.8-1.8c0-0.7-0.3-1.4-0.9-1.8c-1-0.7-2-1.3-3.1-1.8c-0.3-0.1-0.6-0.2-0.9-0.2c-1.1,0-2.1,0.8-2.2,1.9
			c-0.1,0.7-0.7,1.1-1.4,1c-0.7-0.1-1.4-0.1-2.1,0c-0.7,0.1-1.3-0.4-1.4-1c-0.2-1.1-1.1-1.9-2.2-1.9c-0.3,0-0.6,0.1-0.9,0.2
			C8.3,2.1,7.2,2.7,6.2,3.4C5.7,3.8,5.4,4.5,5.3,5.2c0,0.7,0.3,1.3,0.8,1.8c0.5,0.4,0.6,1.2,0.2,1.8c-0.4,0.6-0.8,1.2-1.1,1.9
			c-0.3,0.6-0.9,1-1.6,0.7c-0.3-0.1-0.5-0.1-0.8-0.1c-1.1,0-2.1,0.9-2.2,2c-0.1,0.6-0.1,1.2-0.1,1.8c0,0.6,0,1.2,0.1,1.8
			c0.2,1.4,1.6,2.4,3,1.9c0.6-0.2,1.3,0.1,1.6,0.7c0.3,0.7,0.7,1.3,1.1,1.9c0.4,0.6,0.3,1.3-0.2,1.8c0,0,0,0,0,0
			c-0.5,0.4-0.8,1.1-0.8,1.8c0,0.7,0.3,1.4,0.9,1.8c1,0.7,2,1.3,3.1,1.8c0.3,0.1,0.6,0.2,0.9,0.2c1.1,0,2.1-0.8,2.2-1.9
			c0.1-0.7,0.7-1.1,1.4-1c0.7,0.1,1.4,0.1,2.1,0c0.7-0.1,1.3,0.4,1.4,1c0.2,1.1,1.1,1.9,2.2,1.9c0.3,0,0.6-0.1,0.9-0.2
			c1.1-0.5,2.2-1.1,3.1-1.8c0.6-0.4,0.9-1.1,0.9-1.8c0-0.7-0.3-1.3-0.8-1.8c0,0,0,0,0,0c-0.5-0.4-0.6-1.2-0.2-1.8
			c0.4-0.6,0.8-1.2,1.1-1.9c0.3-0.6,1-1,1.6-0.7c0.3,0.1,0.5,0.1,0.8,0.1c1.1,0,2.1-0.9,2.2-2c0.1-0.6,0.1-1.2,0.1-1.8
			C29.5,14.4,29.5,13.8,29.4,13.2z M15,21.6c-3.6,0-6.5-2.9-6.5-6.5s2.9-6.5,6.5-6.5s6.5,2.9,6.5,6.5S18.6,21.6,15,21.6z"/>
	</g>
	<g>
		<path d="M15,9.6c-3,0-5.5,2.5-5.5,5.5c0,1,0.3,2,0.8,2.8c0.7-1.4,1.9-2.3,3.5-2.6c-0.7-0.4-1.2-1.2-1.2-2.1c0-1.4,1.1-2.5,2.5-2.5
			s2.5,1.1,2.5,2.5c0,0.9-0.5,1.7-1.2,2.1c1.6,0.3,2.8,1.3,3.5,2.6c0.5-0.8,0.8-1.8,0.8-2.8C20.5,12.1,18,9.6,15,9.6z"/>
	</g>
</g>
</svg>
