<?xml version="1.0" encoding="utf-8"?>
<!-- Generator: Adobe Illustrator 19.0.0, SVG Export Plug-In . SVG Version: 6.00 Build 0)  -->
<svg version="1.1" id="Layer_1" xmlns="http://www.w3.org/2000/svg" xmlns:xlink="http://www.w3.org/1999/xlink" x="0px" y="0px"
	 viewBox="0 0 30 30" style="enable-background:new 0 0 30 30;" xml:space="preserve">
<g>
	<g>
		<circle cx="15" cy="10.5" r="3"/>
	</g>
	<g>
		<path d="M9,19c0,0.3,0.2,0.5,0.5,0.5h11c0.3,0,0.5-0.2,0.5-0.5c0-2-1.1-4.1-2.9-5.4c-0.2-0.1-0.4-0.1-0.6,0c-1.5,1.2-3.5,1.2-5,0
			c-0.2-0.1-0.4-0.1-0.6,0C10.1,14.9,9,17,9,19z"/>
	</g>
	<g>
		<path d="M10.6,20.1l-1,1c0,0,0,0,0,0.1c-0.6-0.4-1.3-0.7-2.1-0.7C5.6,20.5,4,22.1,4,24s1.6,3.5,3.5,3.5S11,25.9,11,24
			c0-0.8-0.3-1.5-0.7-2.1c0,0,0.1,0,0.1,0l1-1c0.2-0.2,0.2-0.5,0-0.7S10.8,20,10.6,20.1z M7.5,26.5C6.1,26.5,5,25.4,5,24
			s1.1-2.5,2.5-2.5S10,22.6,10,24S8.9,26.5,7.5,26.5z"/>
	</g>
	<g>
		<path d="M7.5,9.5c0.8,0,1.5-0.3,2.1-0.7c0,0,0,0.1,0,0.1l1,1C10.7,10,10.9,10,11,10s0.3,0,0.4-0.1c0.2-0.2,0.2-0.5,0-0.7l-1-1
			c0,0,0,0-0.1,0C10.7,7.5,11,6.8,11,6c0-1.9-1.6-3.5-3.5-3.5S4,4.1,4,6S5.6,9.5,7.5,9.5z M7.5,3.5C8.9,3.5,10,4.6,10,6
			S8.9,8.5,7.5,8.5S5,7.4,5,6S6.1,3.5,7.5,3.5z"/>
	</g>
	<g>
		<path d="M6.9,15.5h1.6C8.8,15.5,9,15.3,9,15s-0.2-0.5-0.5-0.5H6.9c-0.2-1.7-1.7-3-3.4-3C1.6,11.5,0,13.1,0,15s1.6,3.5,3.5,3.5
			C5.3,18.5,6.7,17.2,6.9,15.5z M3.5,17.5C2.1,17.5,1,16.4,1,15s1.1-2.5,2.5-2.5S6,13.6,6,15S4.9,17.5,3.5,17.5z"/>
	</g>
	<g>
		<path d="M19,10c0.1,0,0.3,0,0.4-0.1l1-1c0,0,0,0,0-0.1c0.6,0.4,1.3,0.7,2.1,0.7C24.4,9.5,26,7.9,26,6s-1.6-3.5-3.5-3.5
			S19,4.1,19,6c0,0.8,0.3,1.5,0.7,2.1c0,0-0.1,0-0.1,0l-1,1c-0.2,0.2-0.2,0.5,0,0.7C18.7,10,18.9,10,19,10z M22.5,3.5
			C23.9,3.5,25,4.6,25,6s-1.1,2.5-2.5,2.5S20,7.4,20,6S21.1,3.5,22.5,3.5z"/>
	</g>
	<g>
		<path d="M22.5,20.5c-0.8,0-1.5,0.3-2.1,0.7c0,0,0-0.1,0-0.1l-1-1c-0.2-0.2-0.5-0.2-0.7,0s-0.2,0.5,0,0.7l1,1c0,0,0,0,0.1,0
			C19.3,22.5,19,23.2,19,24c0,1.9,1.6,3.5,3.5,3.5S26,25.9,26,24S24.4,20.5,22.5,20.5z M22.5,26.5c-1.4,0-2.5-1.1-2.5-2.5
			s1.1-2.5,2.5-2.5S25,22.6,25,24S23.9,26.5,22.5,26.5z"/>
	</g>
	<g>
		<path d="M26.5,11.5c-1.8,0-3.2,1.3-3.4,3h-1.6c-0.3,0-0.5,0.2-0.5,0.5s0.2,0.5,0.5,0.5h1.6c0.2,1.7,1.7,3,3.4,3
			c1.9,0,3.5-1.6,3.5-3.5S28.4,11.5,26.5,11.5z M26.5,17.5c-1.4,0-2.5-1.1-2.5-2.5s1.1-2.5,2.5-2.5S29,13.6,29,15
			S27.9,17.5,26.5,17.5z"/>
	</g>
</g>
</svg>
