<?xml version="1.0" encoding="utf-8"?>
<!-- Generator: Adobe Illustrator 19.0.0, SVG Export Plug-In . SVG Version: 6.00 Build 0)  -->
<svg version="1.1" id="Layer_1" xmlns="http://www.w3.org/2000/svg" xmlns:xlink="http://www.w3.org/1999/xlink" x="0px" y="0px"
	 viewBox="0 0 30 30" style="enable-background:new 0 0 30 30;" xml:space="preserve">
<g>
	<g>
		<path d="M23.3,19l-7.1,7.1c-0.1,0.1-0.1,0.2-0.1,0.4v3c0,0.3,0.2,0.5,0.5,0.5h3c0.1,0,0.3-0.1,0.4-0.1l7.1-7.1L23.3,19z"/>
	</g>
	<g>
		<path d="M29.9,19.1l-3-3c-0.2-0.2-0.5-0.2-0.7,0L24,18.3l3.7,3.7l2.1-2.1C30,19.7,30,19.3,29.9,19.1z"/>
	</g>
	<g>
		<path d="M21.5,0h-14C7.4,0,7.4,0,7.3,0c-0.1,0-0.1,0.1-0.2,0.1l-7,7c0,0-0.1,0.1-0.1,0.2c0,0.1,0,0.1,0,0.2v19
			C0,26.8,0.2,27,0.5,27h14c0.3,0,0.5-0.2,0.5-0.5c0-0.4,0.2-0.8,0.4-1.1l6.4-6.4c0.1-0.1,0.1-0.2,0.1-0.4V0.5C22,0.2,21.8,0,21.5,0
			z M8.5,13C8.8,13,9,13.2,9,13.5S8.8,14,8.5,14h-6C2.2,14,2,13.8,2,13.5S2.2,13,2.5,13H8.5z M7,1.7V7H1.7L7,1.7z M7.5,24h-5
			C2.2,24,2,23.8,2,23.5S2.2,23,2.5,23h5C7.8,23,8,23.2,8,23.5S7.8,24,7.5,24z M16.5,19h-14C2.2,19,2,18.8,2,18.5S2.2,18,2.5,18h14
			c0.3,0,0.5,0.2,0.5,0.5S16.8,19,16.5,19z M16,11v0.5c0,0.3-0.2,0.5-0.5,0.5S15,11.8,15,11.5V11c-1.1-0.1-1.9-0.8-2-1.6
			c0-0.3,0.2-0.5,0.4-0.5C13.7,8.8,14,9,14,9.3c0,0.3,0.4,0.6,1,0.7V8.4c-0.8-0.2-2-0.5-2-1.7c0-0.9,0.8-1.6,2-1.7V4.5
			C15,4.2,15.2,4,15.5,4S16,4.2,16,4.5V5c1.1,0.1,1.9,0.8,2,1.6c0,0.3-0.2,0.5-0.4,0.5C17.3,7.2,17,7,17,6.7c0-0.3-0.4-0.6-1-0.7
			v1.5c0.8,0.2,2,0.5,2,1.7C18,10.1,17.2,10.8,16,11z"/>
	</g>
	<g>
		<path d="M14,6.7c0,0.2,0.2,0.5,1,0.6V6.1C14.4,6.2,14,6.5,14,6.7z"/>
	</g>
	<g>
		<path d="M16,8.6v1.3c0.6-0.1,1-0.4,1-0.7C17,9.1,16.8,8.8,16,8.6z"/>
	</g>
</g>
</svg>
