<?xml version="1.0" encoding="iso-8859-1"?>
<!-- Generator: Adobe Illustrator 19.0.0, SVG Export Plug-In . SVG Version: 6.00 Build 0)  -->
<svg version="1.1" id="Layer_1" xmlns="http://www.w3.org/2000/svg" xmlns:xlink="http://www.w3.org/1999/xlink" x="0px" y="0px"
	 viewBox="0 0 24 24" style="enable-background:new 0 0 24 24;" xml:space="preserve">
<g>
	<path d="M15.5,24c-0.869,0-1.5-0.421-1.5-1s0.631-1,1.5-1s1.5,0.421,1.5,1S16.369,24,15.5,24z"/>
	<path d="M19.5,23c-0.869,0-1.5-0.421-1.5-1s0.631-1,1.5-1s1.5,0.421,1.5,1S20.369,23,19.5,23z"/>
	<path d="M16.5,23.5c-0.276,0-0.5-0.224-0.5-0.5v-5.5c0-0.229,0.156-0.43,0.379-0.485l4-1c0.149-0.037,0.307-0.005,0.429,0.091
		C20.929,16.2,21,16.346,21,16.5V22c0,0.276-0.224,0.5-0.5,0.5S20,22.276,20,22v-4.859l-3,0.75V23C17,23.276,16.776,23.5,16.5,23.5z
		"/>
	<g>
		<path d="M11.5,10c-0.827,0-1.5,0.673-1.5,1.5s0.673,1.5,1.5,1.5s1.5-0.673,1.5-1.5S12.327,10,11.5,10z M11.5,12
			c-0.276,0-0.5-0.224-0.5-0.5c0-0.276,0.224-0.5,0.5-0.5s0.5,0.224,0.5,0.5C12,11.776,11.776,12,11.5,12z"/>
		<path d="M19.5,0h-10C9.435,0,9.37,0.013,9.309,0.038C9.248,0.064,9.192,0.101,9.146,0.147L3.147,6.146
			C3.101,6.192,3.064,6.248,3.038,6.309C3.013,6.37,3,6.435,3,6.5v15C3,21.776,3.224,22,3.5,22h9.58
			c0.144,0,0.281-0.063,0.376-0.171c0.286-0.326,0.693-0.569,1.178-0.704C14.85,21.065,15,20.868,15,20.644V16.72
			c0-0.23,0.156-0.43,0.378-0.485l4.243-1.061C19.844,15.118,20,14.918,20,14.688V0.5C20,0.224,19.776,0,19.5,0z M9,1.707V5.5
			C9,5.776,8.776,6,8.5,6H4.707L9,1.707z M11.5,17C8.467,17,6,14.532,6,11.5S8.467,6,11.5,6S17,8.468,17,11.5S14.533,17,11.5,17z"/>
		<path d="M11.5,7C9.019,7,7,9.019,7,11.5S9.019,16,11.5,16s4.5-2.019,4.5-4.5S13.981,7,11.5,7z M11.5,14C10.122,14,9,12.879,9,11.5
			S10.122,9,11.5,9s2.5,1.121,2.5,2.5S12.878,14,11.5,14z"/>
	</g>
</g>
<g>
</g>
<g>
</g>
<g>
</g>
<g>
</g>
<g>
</g>
<g>
</g>
<g>
</g>
<g>
</g>
<g>
</g>
<g>
</g>
<g>
</g>
<g>
</g>
<g>
</g>
<g>
</g>
<g>
</g>
</svg>
