<?xml version="1.0" encoding="iso-8859-1"?>
<!-- Generator: Adobe Illustrator 19.0.0, SVG Export Plug-In . SVG Version: 6.00 Build 0)  -->
<svg version="1.1" id="Layer_1" xmlns="http://www.w3.org/2000/svg" xmlns:xlink="http://www.w3.org/1999/xlink" x="0px" y="0px"
	 viewBox="0 0 24 24" style="enable-background:new 0 0 24 24;" xml:space="preserve">
<g id="drum_set">
	<path d="M9,1H2C1.724,1,1.5,1.224,1.5,1.5v5C1.5,6.776,1.724,7,2,7h7c0.276,0,0.5-0.224,0.5-0.5v-5C9.5,1.224,9.276,1,9,1z"/>
	<path d="M12,6c-4.687,0-8.5,3.813-8.5,8.5S7.313,23,12,23s8.5-3.813,8.5-8.5S16.687,6,12,6z M12,21c-3.584,0-6.5-2.916-6.5-6.5
		S8.416,8,12,8s6.5,2.916,6.5,6.5S15.584,21,12,21z"/>
	<g>
		<path d="M11,7c-0.276,0-0.5-0.224-0.5-0.5V4.86L7.842,3.974C7.58,3.887,7.438,3.604,7.525,3.342
			C7.613,3.08,7.898,2.939,8.158,3.026l3,1C11.362,4.094,11.5,4.285,11.5,4.5v2C11.5,6.776,11.276,7,11,7z"/>
	</g>
	<path d="M22,1h-7c-0.276,0-0.5,0.224-0.5,0.5v5C14.5,6.776,14.724,7,15,7h7c0.276,0,0.5-0.224,0.5-0.5v-5C22.5,1.224,22.276,1,22,1
		z"/>
	<g>
		<path d="M13,7c-0.276,0-0.5-0.224-0.5-0.5v-2c0-0.215,0.138-0.406,0.342-0.474l3-1c0.262-0.087,0.545,0.054,0.633,0.316
			c0.087,0.262-0.055,0.545-0.316,0.632L13.5,4.86V6.5C13.5,6.776,13.276,7,13,7z"/>
	</g>
	<path d="M12,9c-3.032,0-5.5,2.467-5.5,5.5S8.968,20,12,20s5.5-2.467,5.5-5.5S15.032,9,12,9z M12,19c-0.827,0-1.5-0.673-1.5-1.5
		S11.173,16,12,16s1.5,0.673,1.5,1.5S12.827,19,12,19z"/>
	<g>
		<path d="M6,23c-0.128,0-0.256-0.049-0.354-0.146c-0.195-0.195-0.195-0.512,0-0.707l1-1c0.195-0.195,0.512-0.195,0.707,0
			s0.195,0.512,0,0.707l-1,1C6.256,22.951,6.128,23,6,23z"/>
	</g>
	<g>
		<path d="M18,23c-0.128,0-0.256-0.049-0.354-0.146l-1-1c-0.195-0.195-0.195-0.512,0-0.707s0.512-0.195,0.707,0l1,1
			c0.195,0.195,0.195,0.512,0,0.707C18.256,22.951,18.128,23,18,23z"/>
	</g>
</g>
<g>
</g>
<g>
</g>
<g>
</g>
<g>
</g>
<g>
</g>
<g>
</g>
<g>
</g>
<g>
</g>
<g>
</g>
<g>
</g>
<g>
</g>
<g>
</g>
<g>
</g>
<g>
</g>
<g>
</g>
</svg>
