<?xml version="1.0" encoding="iso-8859-1"?>
<!-- Generator: Adobe Illustrator 19.0.0, SVG Export Plug-In . SVG Version: 6.00 Build 0)  -->
<svg version="1.1" id="Layer_1" xmlns="http://www.w3.org/2000/svg" xmlns:xlink="http://www.w3.org/1999/xlink" x="0px" y="0px"
	 viewBox="0 0 24 24" style="enable-background:new 0 0 24 24;" xml:space="preserve">
<path d="M23.912,1.28c-0.087-0.166-0.263-0.243-0.446-0.268l-1.281,0.009l-0.862-0.862c-0.176-0.176-0.455-0.197-0.653-0.046l-4,3
	c-0.126,0.094-0.2,0.243-0.2,0.4v0.793l-4.204,4.204l-0.348-1.622c-0.152-0.709-0.741-1.186-1.467-1.186
	c-0.72,0-1.308,0.472-1.464,1.175l-0.953,4.289L0.886,14.57c-0.609,0.291-0.945,0.933-0.835,1.599
	c0.11,0.666,0.634,1.167,1.304,1.246l4.708,0.554l1.135,4.826c0.168,0.715,0.776,1.195,1.512,1.195c0.657,0,1.21-0.383,1.445-0.999
	l2.705-7.102l3.751-1.608c0.623-0.267,0.976-0.874,0.9-1.547c-0.076-0.673-0.556-1.186-1.222-1.307l-1.292-0.235l4.178-4.169h0.793
	c0.164,0,0.316-0.08,0.41-0.214l3.5-5.01C23.987,1.645,24,1.445,23.912,1.28z M8.819,18.862c-0.09,0.1-0.22,0.15-0.35,0.15
	c-0.13,0-0.26-0.05-0.35-0.14c-0.1-0.1-0.15-0.23-0.15-0.36c0-0.13,0.05-0.26,0.15-0.35c0.18-0.19,0.51-0.19,0.7,0
	c0.1,0.09,0.15,0.22,0.15,0.35C8.97,18.642,8.92,18.772,8.819,18.862z M10.323,14.865c-0.098,0.098-0.226,0.146-0.354,0.146
	s-0.256-0.049-0.354-0.146l-1-1c-0.195-0.195-0.195-0.512,0-0.707s0.512-0.195,0.707,0l1,1
	C10.519,14.354,10.519,14.67,10.323,14.865z"/>
<g>
</g>
<g>
</g>
<g>
</g>
<g>
</g>
<g>
</g>
<g>
</g>
<g>
</g>
<g>
</g>
<g>
</g>
<g>
</g>
<g>
</g>
<g>
</g>
<g>
</g>
<g>
</g>
<g>
</g>
</svg>
