<?xml version="1.0" encoding="iso-8859-1"?>
<!-- Generator: Adobe Illustrator 19.0.0, SVG Export Plug-In . SVG Version: 6.00 Build 0)  -->
<svg version="1.1" id="Layer_1" xmlns="http://www.w3.org/2000/svg" xmlns:xlink="http://www.w3.org/1999/xlink" x="0px" y="0px"
	 viewBox="0 0 24 24" style="enable-background:new 0 0 24 24;" xml:space="preserve">
<g>
	<path d="M21.808,16.105c-0.122-0.095-0.28-0.128-0.429-0.091l-4,1C17.156,17.07,17,17.271,17,17.5v4.555
		C16.845,22.022,16.679,22,16.5,22c-0.869,0-1.5,0.421-1.5,1s0.631,1,1.5,1s1.5-0.421,1.5-1v-5.109l3-0.75v3.915
		C20.845,21.022,20.679,21,20.5,21c-0.869,0-1.5,0.421-1.5,1s0.631,1,1.5,1s1.5-0.421,1.5-1v-5.5
		C22,16.346,21.929,16.2,21.808,16.105z"/>
	<g>
		<path d="M12,8.5h-1v2h1c0.552,0,1-0.448,1-1S12.552,8.5,12,8.5z"/>
		<path d="M20.5,0h-12C8.477,0,8.458,0.01,8.436,0.013C8.414,0.016,8.394,0.02,8.373,0.026c-0.086,0.023-0.166,0.06-0.227,0.121
			L2.147,6.146C2.086,6.207,2.049,6.286,2.026,6.372C2.02,6.394,2.016,6.414,2.013,6.436C2.01,6.458,2,6.477,2,6.5v15
			C2,21.776,2.224,22,2.5,22h11.58c0.144,0,0.281-0.063,0.376-0.171c0.286-0.326,0.693-0.569,1.178-0.704
			C15.85,21.065,16,20.868,16,20.644v-4.314l4.621-1.155C20.844,15.118,21,14.918,21,14.688V0.5C21,0.224,20.776,0,20.5,0z M8,1.707
			V5.5C8,5.776,7.776,6,7.5,6H3.707L8,1.707z M9,14c0,0.276-0.224,0.5-0.5,0.5S8,14.276,8,14V9.651l-1.084,1.626
			c-0.186,0.277-0.646,0.277-0.832,0L5,9.651V14c0,0.276-0.224,0.5-0.5,0.5S4,14.276,4,14V8c0-0.221,0.145-0.415,0.355-0.479
			C4.568,7.456,4.794,7.54,4.916,7.723L6.5,10.099l1.584-2.376c0.122-0.184,0.348-0.268,0.561-0.201C8.855,7.585,9,7.779,9,8V14z
			 M12,11.5h-1V14c0,0.276-0.224,0.5-0.5,0.5S10,14.276,10,14V8c0-0.276,0.224-0.5,0.5-0.5H12c1.103,0,2,0.897,2,2
			S13.103,11.5,12,11.5z M19,12.5c0,1.103-0.897,2-2,2s-2-0.897-2-2V8c0-0.276,0.224-0.5,0.5-0.5S16,7.724,16,8v4.5
			c0,0.552,0.448,1,1,1s1-0.448,1-1V8c0-0.276,0.224-0.5,0.5-0.5S19,7.724,19,8V12.5z"/>
	</g>
</g>
<g>
</g>
<g>
</g>
<g>
</g>
<g>
</g>
<g>
</g>
<g>
</g>
<g>
</g>
<g>
</g>
<g>
</g>
<g>
</g>
<g>
</g>
<g>
</g>
<g>
</g>
<g>
</g>
<g>
</g>
</svg>
