<?xml version="1.0" encoding="iso-8859-1"?>
<!-- Generator: Adobe Illustrator 19.0.0, SVG Export Plug-In . SVG Version: 6.00 Build 0)  -->
<svg version="1.1" id="Layer_1" xmlns="http://www.w3.org/2000/svg" xmlns:xlink="http://www.w3.org/1999/xlink" x="0px" y="0px"
	 viewBox="0 0 24 24" style="enable-background:new 0 0 24 24;" xml:space="preserve">
<g>
	<g>
		<path d="M17.5,24c-2.481,0-4.5-2.019-4.5-4.5s2.019-4.5,4.5-4.5c2.397,0,4.5,2.182,4.5,3.5c0,0.276-0.224,0.5-0.5,0.5
			S21,18.776,21,18.5c0-0.685-1.59-2.5-3.5-2.5c-1.93,0-3.5,1.57-3.5,3.5s1.57,3.5,3.5,3.5c0.276,0,0.5,0.224,0.5,0.5
			S17.776,24,17.5,24z"/>
	</g>
	<g>
		<path d="M21.5,19h-3c-0.276,0-0.5-0.224-0.5-0.5s0.224-0.5,0.5-0.5H21v-2.5c0-0.276,0.224-0.5,0.5-0.5s0.5,0.224,0.5,0.5v3
			C22,18.776,21.776,19,21.5,19z"/>
	</g>
	<g>
		<path d="M19.5,0h-11C8.435,0,8.37,0.013,8.309,0.038C8.248,0.064,8.192,0.101,8.146,0.147L2.147,6.146
			C2.101,6.192,2.064,6.248,2.038,6.309C2.013,6.37,2,6.435,2,6.5v15C2,21.776,2.224,22,2.5,22h9.35c0.007,0,0.013-0.001,0.02,0
			c0.276,0,0.5-0.224,0.5-0.5c0-0.106-0.033-0.204-0.089-0.285C12.094,20.651,12,20.075,12,19.5c0-3.032,2.467-5.5,5.5-5.5
			c0.596,0,1.211,0.114,1.829,0.34c0.154,0.057,0.324,0.033,0.458-0.06C19.92,14.187,20,14.033,20,13.87V0.5
			C20,0.224,19.776,0,19.5,0z M8,1.707V5.5C8,5.776,7.776,6,7.5,6H3.707L8,1.707z M13.5,8H12v5.5c0,0.841-0.878,1.5-2,1.5
			s-2-0.659-2-1.5S8.878,12,10,12c0.369,0,0.706,0.077,1,0.202V7.5C11,7.224,11.224,7,11.5,7h2C13.776,7,14,7.224,14,7.5
			S13.776,8,13.5,8z"/>
		<path d="M10,13c-0.61,0-1,0.296-1,0.5S9.39,14,10,14s1-0.296,1-0.5S10.61,13,10,13z"/>
	</g>
</g>
<g>
</g>
<g>
</g>
<g>
</g>
<g>
</g>
<g>
</g>
<g>
</g>
<g>
</g>
<g>
</g>
<g>
</g>
<g>
</g>
<g>
</g>
<g>
</g>
<g>
</g>
<g>
</g>
<g>
</g>
</svg>
