<?xml version="1.0" encoding="iso-8859-1"?>
<!-- Generator: Adobe Illustrator 19.0.0, SVG Export Plug-In . SVG Version: 6.00 Build 0)  -->
<svg version="1.1" id="Layer_1" xmlns="http://www.w3.org/2000/svg" xmlns:xlink="http://www.w3.org/1999/xlink" x="0px" y="0px"
	 viewBox="0 0 24 24" style="enable-background:new 0 0 24 24;" xml:space="preserve">
<g>
	<path d="M20.854,19.896c-0.195-0.195-0.512-0.195-0.707,0s-0.195,0.512,0,0.707l0.621,0.621c-1.336-0.118-2.313-1.212-3.289-2.474
		c0.975-1.263,1.952-2.356,3.289-2.474l-0.621,0.621c-0.195,0.195-0.195,0.512,0,0.707c0.098,0.098,0.226,0.146,0.354,0.146
		s0.256-0.049,0.354-0.146l1.5-1.5c0.195-0.195,0.195-0.512,0-0.707l-1.5-1.5c-0.195-0.195-0.512-0.195-0.707,0
		s-0.195,0.512,0,0.707l0.666,0.666c-1.719,0.089-2.927,1.347-3.963,2.662c-1.06-1.376-2.194-2.681-3.85-2.681
		c-0.276,0-0.5,0.224-0.5,0.5s0.224,0.5,0.5,0.5c1.259,0,2.22,1.193,3.219,2.5c-0.998,1.307-1.959,2.5-3.219,2.5
		c-0.276,0-0.5,0.224-0.5,0.5s0.224,0.5,0.5,0.5c1.656,0,2.79-1.306,3.85-2.681c1.035,1.315,2.243,2.572,3.963,2.662l-0.666,0.666
		c-0.195,0.195-0.195,0.512,0,0.707c0.098,0.098,0.226,0.146,0.354,0.146s0.256-0.049,0.354-0.146l1.5-1.5
		c0.195-0.195,0.195-0.512,0-0.707L20.854,19.896z"/>
	<path d="M19,0.25H8c-0.065,0-0.13,0.013-0.191,0.038C7.748,0.314,7.692,0.351,7.646,0.397L1.647,6.396
		C1.601,6.442,1.564,6.498,1.538,6.559C1.513,6.62,1.5,6.685,1.5,6.75v15c0,0.276,0.224,0.5,0.5,0.5h9c0.276,0,0.5-0.224,0.5-0.5
		c0-0.827,0.673-1.5,1.5-1.5c0.479,0,0.983-0.352,1.685-1.176c0.159-0.187,0.159-0.462,0-0.648C13.983,17.602,13.479,17.25,13,17.25
		c-0.827,0-1.5-0.673-1.5-1.5s0.673-1.5,1.5-1.5c1.258,0,2.373,0.55,3.508,1.73c0.093,0.097,0.221,0.151,0.354,0.153
		c0.152,0.037,0.264-0.05,0.358-0.146c0.478-0.475,0.993-0.862,1.531-1.153c0.173-0.093,0.275-0.279,0.261-0.476
		c-0.029-0.397,0.101-0.783,0.365-1.089c0.079-0.091,0.122-0.207,0.122-0.327V0.75C19.5,0.474,19.276,0.25,19,0.25z M7.5,1.957V5.75
		c0,0.276-0.224,0.5-0.5,0.5H3.207L7.5,1.957z M13,8.25h-1.5v5.5c0,0.841-0.878,1.5-2,1.5s-2-0.659-2-1.5s0.878-1.5,2-1.5
		c0.369,0,0.706,0.077,1,0.202V7.25H13c0.276,0,0.5,0.224,0.5,0.5S13.276,8.25,13,8.25z"/>
</g>
<g>
</g>
<g>
</g>
<g>
</g>
<g>
</g>
<g>
</g>
<g>
</g>
<g>
</g>
<g>
</g>
<g>
</g>
<g>
</g>
<g>
</g>
<g>
</g>
<g>
</g>
<g>
</g>
<g>
</g>
</svg>
