<?xml version="1.0" encoding="iso-8859-1"?>
<!-- Generator: Adobe Illustrator 19.0.0, SVG Export Plug-In . SVG Version: 6.00 Build 0)  -->
<svg version="1.1" id="Layer_1" xmlns="http://www.w3.org/2000/svg" xmlns:xlink="http://www.w3.org/1999/xlink" x="0px" y="0px"
	 viewBox="0 0 24 24" style="enable-background:new 0 0 24 24;" xml:space="preserve">
<g>
	<g id="horn_trompet2_1_">
		<path d="M22.768,8.35c-1.257-1.257-3.45-1.257-4.707,0l-9.5,9.5c-0.88,0.88-2.413,0.88-3.293,0
			c-0.44-0.44-0.682-1.024-0.682-1.646s0.242-1.207,0.682-1.646l4.354-4.354h4.793c0.003,0,0.007,0,0.01,0
			c0.281-0.009,0.51-0.221,0.51-0.5c0-0.181-0.096-0.339-0.24-0.427l-0.033-0.033c-0.054,0.004-0.094,0.023-0.151,0.023
			c-1.126,0-2.561-0.734-3.743-1.917c-0.195-0.195-0.195-0.512,0-0.707s0.512-0.195,0.707,0c0.602,0.602,1.3,1.081,1.944,1.358
			L8.768,3.35C8.64,3.222,8.454,3.172,8.281,3.221C8.107,3.27,7.973,3.407,7.929,3.582L6.962,7.448L2.061,12.35
			c-1.163,1.163-1.803,2.709-1.803,4.354s0.641,3.191,1.803,4.354S4.77,22.86,6.414,22.86s3.191-0.641,4.354-1.803l2.146-2.146
			v0.793c0,0.276,0.224,0.5,0.5,0.5h2c0.133,0,0.26-0.053,0.354-0.146l7-7c0.628-0.628,0.975-1.464,0.975-2.354
			S23.396,8.978,22.768,8.35z M20.768,11.057l-6.003,6.003c-0.098,0.098-0.226,0.146-0.354,0.146s-0.256-0.049-0.354-0.146
			c-0.195-0.195-0.195-0.512,0-0.707l6.003-6.003c0.195-0.195,0.512-0.195,0.707,0S20.963,10.861,20.768,11.057z"/>
		<path d="M16.81,6.655c-0.313-1.127-1.038-2.301-2.042-3.306c-1.383-1.383-3.047-2.209-4.45-2.209
			c-0.732,0-1.353,0.233-1.793,0.674c-0.667,0.667-0.847,1.71-0.507,2.937c0.313,1.127,1.038,2.301,2.042,3.306
			c1.383,1.383,3.047,2.209,4.45,2.209c0.732,0,1.353-0.233,1.793-0.674C16.97,8.925,17.15,7.882,16.81,6.655z M15.596,8.885
			c-0.252,0.253-0.618,0.381-1.086,0.381c-1.126,0-2.561-0.734-3.743-1.917c-0.195-0.195-0.195-0.512,0-0.707s0.512-0.195,0.707,0
			c0.971,0.971,2.191,1.624,3.036,1.624c0.27,0,0.358-0.067,0.379-0.088c0.195-0.195,0.512-0.195,0.707,0S15.792,8.69,15.596,8.885z
			"/>
		<g>
			<path d="M11.414,16.203c-0.128,0-0.256-0.049-0.354-0.146l-4-4c-0.195-0.195-0.195-0.512,0-0.707s0.512-0.195,0.707,0l4,4
				c0.195,0.195,0.195,0.512,0,0.707C11.67,16.154,11.542,16.203,11.414,16.203z"/>
		</g>
		<g>
			<path d="M8.914,18.703c-0.128,0-0.256-0.049-0.354-0.146l-4-4c-0.195-0.195-0.195-0.512,0-0.707s0.512-0.195,0.707,0l4,4
				c0.195,0.195,0.195,0.512,0,0.707C9.17,18.654,9.042,18.703,8.914,18.703z"/>
		</g>
	</g>
</g>
<g>
</g>
<g>
</g>
<g>
</g>
<g>
</g>
<g>
</g>
<g>
</g>
<g>
</g>
<g>
</g>
<g>
</g>
<g>
</g>
<g>
</g>
<g>
</g>
<g>
</g>
<g>
</g>
<g>
</g>
</svg>
