<?xml version="1.0" encoding="iso-8859-1"?>
<!-- Generator: Adobe Illustrator 19.0.0, SVG Export Plug-In . SVG Version: 6.00 Build 0)  -->
<svg version="1.1" id="Layer_1" xmlns="http://www.w3.org/2000/svg" xmlns:xlink="http://www.w3.org/1999/xlink" x="0px" y="0px"
	 viewBox="0 0 24 24" style="enable-background:new 0 0 24 24;" xml:space="preserve">
<g>
	<path d="M14.192,0.038c-0.188-0.077-0.402-0.035-0.545,0.108L5.793,8H2C1.724,8,1.5,8.224,1.5,8.5v7C1.5,15.776,1.724,16,2,16
		h3.793l7.854,7.854C13.742,23.949,13.87,24,14,24c0.064,0,0.129-0.013,0.191-0.038c0.187-0.077,0.309-0.26,0.309-0.462v-23
		C14.5,0.298,14.379,0.115,14.192,0.038z"/>
	<path d="M20.16,6.343c-0.195-0.195-0.512-0.195-0.707,0s-0.195,0.512,0,0.707c2.729,2.729,2.729,7.171,0,9.9
		c-0.195,0.195-0.195,0.512,0,0.707c0.098,0.098,0.226,0.146,0.354,0.146s0.256-0.049,0.354-0.146
		C23.28,14.538,23.28,9.462,20.16,6.343z"/>
	<path d="M18.746,7.758c-0.195-0.195-0.512-0.195-0.707,0s-0.195,0.512,0,0.707c1.949,1.949,1.949,5.121,0,7.07
		c-0.195,0.195-0.195,0.512,0,0.707c0.098,0.098,0.226,0.146,0.354,0.146s0.256-0.049,0.354-0.146
		C21.086,13.903,21.086,10.097,18.746,7.758z"/>
	<path d="M17.332,9.172c-0.195-0.195-0.512-0.195-0.707,0s-0.195,0.512,0,0.707c1.169,1.17,1.169,3.072,0,4.242
		c-0.195,0.195-0.195,0.512,0,0.707c0.098,0.098,0.226,0.146,0.354,0.146s0.256-0.049,0.354-0.146
		C18.892,13.269,18.892,10.731,17.332,9.172z"/>
</g>
<g>
</g>
<g>
</g>
<g>
</g>
<g>
</g>
<g>
</g>
<g>
</g>
<g>
</g>
<g>
</g>
<g>
</g>
<g>
</g>
<g>
</g>
<g>
</g>
<g>
</g>
<g>
</g>
<g>
</g>
</svg>
