<?xml version="1.0" encoding="iso-8859-1"?>
<!-- Generator: Adobe Illustrator 19.0.0, SVG Export Plug-In . SVG Version: 6.00 Build 0)  -->
<svg version="1.1" id="Layer_1" xmlns="http://www.w3.org/2000/svg" xmlns:xlink="http://www.w3.org/1999/xlink" x="0px" y="0px"
	 viewBox="0 0 30 30" style="enable-background:new 0 0 30 30;" xml:space="preserve">
<g>
	<g>
		<path d="M29.752,25.433c-0.065-0.66-0.328-1.236-0.76-1.668c-0.462-0.462-1.063-0.732-1.694-0.761
			c-0.64-0.025-1.248,0.198-1.689,0.64c-0.22,0.22-0.38,0.485-0.488,0.77L8,7.294V3.501c0-0.133-0.053-0.26-0.146-0.354l-3-3
			C4.71,0.004,4.496-0.04,4.309,0.039C4.122,0.116,4,0.299,4,0.501v3.5H0.5c-0.202,0-0.385,0.122-0.462,0.309
			c-0.077,0.187-0.034,0.402,0.108,0.545l3,3C3.24,7.948,3.367,8.001,3.5,8.001h3.793l17.12,17.119
			c-0.286,0.108-0.55,0.268-0.77,0.488c-0.442,0.441-0.669,1.042-0.64,1.689c0.028,0.63,0.299,1.232,0.761,1.695
			c0.431,0.431,1.008,0.693,1.668,0.759c1.007,0.101,3.921,0.242,4.044,0.248H29.5c0.132,0,0.26-0.052,0.354-0.146
			c0.1-0.1,0.152-0.237,0.146-0.377C29.993,29.354,29.853,26.44,29.752,25.433z"/>
	</g>
</g>
</svg>
