<?xml version="1.0" encoding="iso-8859-1"?>
<!-- Generator: Adobe Illustrator 19.0.0, SVG Export Plug-In . SVG Version: 6.00 Build 0)  -->
<svg version="1.1" id="Layer_1" xmlns="http://www.w3.org/2000/svg" xmlns:xlink="http://www.w3.org/1999/xlink" x="0px" y="0px"
	 viewBox="0 0 30 30" style="enable-background:new 0 0 30 30;" xml:space="preserve">
<g>
	<g>
		<path d="M26.979,4.5H26.5C26.224,4.5,26,4.724,26,5v1.5c0,1.654-1.346,3-3,3s-3-1.346-3-3V5c0-0.276-0.224-0.5-0.5-0.5h-9
			C10.224,4.5,10,4.724,10,5v1.5c0,1.654-1.346,3-3,3s-3-1.346-3-3V5c0-0.276-0.224-0.5-0.5-0.5H3.021C1.356,4.5,0,5.87,0,7.555
			v17.889C0,27.13,1.356,28.5,3.021,28.5h23.957C28.644,28.5,30,27.13,30,25.445V7.555C30,5.87,28.646,4.5,26.979,4.5z
			 M29.002,25.443C29,26.578,28.094,27.5,26.979,27.5H3.023c-1.114,0-2.021-0.922-2.021-2.056V11.5h28V25.443z M7,8.5
			c1.103,0,2-0.897,2-2v-3c0-1.103-0.897-2-2-2c-1.103,0-2,0.897-2,2v3C5,7.602,5.898,8.5,7,8.5z M23,8.5c1.103,0,2-0.897,2-2v-3
			c0-1.103-0.897-2-2-2c-1.103,0-2,0.897-2,2v3C21,7.602,21.898,8.5,23,8.5z M14.63,24.336C14.724,24.44,14.859,24.5,15,24.5
			s0.275-0.06,0.37-0.164c0.117-0.128,2.873-3.165,3.771-4.264c0.562-0.686,0.858-1.477,0.858-2.287
			C20,15.974,18.635,14.5,16.956,14.5c-0.724,0-1.412,0.275-1.956,0.769c-0.544-0.494-1.232-0.769-1.956-0.769
			C11.366,14.5,10,15.974,10,17.786c0,0.81,0.297,1.601,0.858,2.286C11.757,21.17,14.513,24.208,14.63,24.336z"/>
	</g>
</g>
</svg>
