<?xml version="1.0" encoding="iso-8859-1"?>
<!-- Generator: Adobe Illustrator 19.0.0, SVG Export Plug-In . SVG Version: 6.00 Build 0)  -->
<svg version="1.1" id="Layer_1" xmlns="http://www.w3.org/2000/svg" xmlns:xlink="http://www.w3.org/1999/xlink" x="0px" y="0px"
	 viewBox="0 0 30 30" style="enable-background:new 0 0 30 30;" xml:space="preserve">
<g>
	<g>
		<path d="M22,4.5C22,4.224,21.776,4,21.5,4S21,4.224,21,4.5v3.793l-4.854,4.854c-0.195,0.195-0.195,0.512,0,0.707
			C16.244,13.951,16.372,14,16.5,14s0.256-0.049,0.354-0.146L21.707,9H25.5C25.776,9,26,8.776,26,8.5S25.776,8,25.5,8h-2.793l2-2
			H28.5C28.776,6,29,5.776,29,5.5S28.776,5,28.5,5h-2.793l2.146-2.146c0.195-0.195,0.195-0.512,0-0.707
			c-0.195-0.195-0.512-0.195-0.707,0L25,4.293V1.5C25,1.224,24.776,1,24.5,1S24,1.224,24,1.5v3.793l-2,2V4.5z M7.146,22.146
			L3,26.293V23.5C3,23.224,2.776,23,2.5,23S2,23.224,2,23.5v4c0,0.065,0.013,0.13,0.038,0.191c0.051,0.122,0.148,0.22,0.271,0.271
			C2.37,27.987,2.435,28,2.5,28h4C6.776,28,7,27.776,7,27.5S6.776,27,6.5,27H3.707l4.146-4.146c0.195-0.195,0.195-0.512,0-0.707
			S7.342,21.951,7.146,22.146z M29.699,7.581l-0.102-0.334c-0.039-0.128-0.128-0.236-0.248-0.298s-0.26-0.073-0.387-0.031
			C28.793,6.973,28.642,7,28.5,7h-1.277c-0.179,0-0.344,0.096-0.434,0.25C26.7,7.405,26.701,7.596,26.79,7.751
			C26.93,7.99,27,8.242,27,8.5c0,0.827-0.673,1.5-1.5,1.5h-3.172c-0.133,0-0.26,0.053-0.354,0.146l-4.415,4.414
			c-0.565,0.567-1.554,0.567-2.121,0C15.156,14.277,15,13.901,15,13.5s0.156-0.777,0.439-1.061l4.414-4.414
			C19.947,7.932,20,7.805,20,7.672V4.5C20,3.673,20.673,3,21.5,3c0.258,0,0.51,0.07,0.749,0.209C22.404,3.3,22.594,3.3,22.75,3.21
			C22.905,3.121,23,2.955,23,2.776V1.617c0-0.247-0.18-0.457-0.424-0.494l-0.603-0.091C21.752,1.017,21.53,1,21.304,1
			C18.906,1,16.639,1.999,15,3.758C13.36,1.998,11.094,1,8.696,1C3.901,1,0,4.973,0,9.857c0,2.203,0.873,4.36,2.525,6.24
			c2.881,3.276,12.025,12.658,12.117,12.752C14.736,28.946,14.865,29,15,29s0.264-0.054,0.358-0.151
			c0.092-0.094,9.236-9.476,12.117-12.752C29.127,14.217,30,12.06,30,9.857C30,9.117,29.901,8.358,29.699,7.581z M8.5,4
			C5.467,4,3,6.467,3,9.5C3,9.776,2.776,10,2.5,10S2,9.776,2,9.5C2,5.916,4.916,3,8.5,3C8.776,3,9,3.224,9,3.5S8.776,4,8.5,4z"/>
	</g>
</g>
</svg>
