<?xml version="1.0" encoding="iso-8859-1"?>
<!-- Generator: Adobe Illustrator 19.0.0, SVG Export Plug-In . SVG Version: 6.00 Build 0)  -->
<svg version="1.1" id="Layer_1" xmlns="http://www.w3.org/2000/svg" xmlns:xlink="http://www.w3.org/1999/xlink" x="0px" y="0px"
	 viewBox="0 0 30 30" style="enable-background:new 0 0 30 30;" xml:space="preserve">
<g>
	<g>
		<path d="M22.564,15.128c-0.425,0-0.853,0.037-1.274,0.111L7.309,1.254C6.5,0.445,5.425,0,4.281,0C3.137,0,2.062,0.445,1.253,1.254
			c-1.67,1.67-1.67,4.388,0,6.057l13.986,13.99c-0.072,0.418-0.108,0.842-0.108,1.263c0,4.1,3.334,7.436,7.434,7.436
			c4.1,0,7.434-3.335,7.434-7.436S26.663,15.128,22.564,15.128z M25.852,25.853c-0.094,0.094-0.221,0.146-0.354,0.146h-0.024
			c-0.144-0.007-3.541-0.172-4.714-0.289c-0.751-0.075-1.406-0.373-1.895-0.862c-1.095-1.095-1.159-2.813-0.142-3.831
			c0.28-0.28,0.622-0.475,0.993-0.594L4.145,4.852c-0.195-0.195-0.195-0.512,0-0.707s0.512-0.195,0.707,0l15.571,15.571
			c0.119-0.371,0.314-0.713,0.594-0.993c1.017-1.017,2.736-0.952,3.831,0.142c0.489,0.489,0.787,1.144,0.862,1.896
			c0.117,1.173,0.282,4.57,0.289,4.714C26.004,25.616,25.951,25.753,25.852,25.853z"/>
	</g>
</g>
</svg>
