<?xml version="1.0" encoding="iso-8859-1"?>
<!-- Generator: Adobe Illustrator 19.0.0, SVG Export Plug-In . SVG Version: 6.00 Build 0)  -->
<svg version="1.1" id="Layer_1" xmlns="http://www.w3.org/2000/svg" xmlns:xlink="http://www.w3.org/1999/xlink" x="0px" y="0px"
	 viewBox="0 0 30 30" style="enable-background:new 0 0 30 30;" xml:space="preserve">
<g>
	<g>
		<path d="M17.174,9.5C16.366,9.5,15.6,9.813,15,10.374C14.4,9.813,13.634,9.5,12.826,9.5c-1.834,0-3.326,1.613-3.326,3.595
			c0,0.888,0.325,1.754,0.941,2.505c0.999,1.22,4.059,4.592,4.189,4.735C14.725,20.44,14.859,20.5,15,20.5s0.275-0.06,0.37-0.164
			c0.13-0.143,3.19-3.516,4.189-4.735c0.616-0.751,0.941-1.618,0.941-2.506C20.5,11.113,19.008,9.5,17.174,9.5z M29,14.5h-0.525
			C28.215,7.456,22.544,1.785,15.5,1.525V1c0-0.276-0.224-0.5-0.5-0.5S14.5,0.724,14.5,1v0.525C7.456,1.785,1.785,7.456,1.525,14.5
			H1c-0.276,0-0.5,0.224-0.5,0.5s0.224,0.5,0.5,0.5h0.525c0.26,7.044,5.931,12.715,12.975,12.975V29c0,0.276,0.224,0.5,0.5,0.5
			s0.5-0.224,0.5-0.5v-0.525c7.044-0.26,12.715-5.931,12.975-12.975H29c0.276,0,0.5-0.224,0.5-0.5S29.276,14.5,29,14.5z M25,15.5
			h2.475c-0.259,6.493-5.482,11.716-11.975,11.975V25c0-0.276-0.224-0.5-0.5-0.5s-0.5,0.224-0.5,0.5v2.475
			C8.007,27.216,2.784,21.993,2.525,15.5H5c0.276,0,0.5-0.224,0.5-0.5S5.276,14.5,5,14.5H2.525C2.784,8.007,8.007,2.784,14.5,2.525
			V5c0,0.276,0.224,0.5,0.5,0.5s0.5-0.224,0.5-0.5V2.525C21.993,2.784,27.216,8.007,27.475,14.5H25c-0.276,0-0.5,0.224-0.5,0.5
			S24.724,15.5,25,15.5z"/>
	</g>
</g>
</svg>
