<?xml version="1.0" encoding="utf-8"?>
<!-- Generator: Adobe Illustrator 19.0.0, SVG Export Plug-In . SVG Version: 6.00 Build 0)  -->
<svg version="1.1" id="Layer_1" xmlns="http://www.w3.org/2000/svg" xmlns:xlink="http://www.w3.org/1999/xlink" x="0px" y="0px"
	 viewBox="0 0 30 30" style="enable-background:new 0 0 30 30;" xml:space="preserve">
<g>
	<path d="M15,0C6.7,0,0,6.7,0,15s6.7,15,15,15s15-6.7,15-15S23.3,0,15,0z M24.8,11.9l-5.6,4.4l1.8,6.6c0.1,0.2,0,0.4-0.2,0.5
		c-0.1,0.1-0.2,0.1-0.3,0.1c-0.1,0-0.2,0-0.3-0.1L15,20.1l-5.2,3.3c-0.2,0.1-0.4,0.1-0.6,0S9,23.1,9,22.9l1.6-6.6l-5.4-4.4
		C5,11.8,5,11.5,5,11.3S5.3,11,5.5,11h6.7l2.4-5.7c0.2-0.4,0.8-0.4,0.9,0l2.4,5.7h6.7c0.2,0,0.4,0.1,0.5,0.3
		C25,11.5,25,11.8,24.8,11.9z"/>
</g>
</svg>
