<?xml version="1.0" encoding="utf-8"?>
<!-- Generator: Adobe Illustrator 19.0.0, SVG Export Plug-In . SVG Version: 6.00 Build 0)  -->
<svg version="1.1" id="Layer_1" xmlns="http://www.w3.org/2000/svg" xmlns:xlink="http://www.w3.org/1999/xlink" x="0px" y="0px"
	 viewBox="0 0 30 30" style="enable-background:new 0 0 30 30;" xml:space="preserve">
<g>
	<path d="M19.5,21c-4.1,0-7.5-3.4-7.5-7.5S15.4,6,19.5,6C19.8,6,20,5.8,20,5.5V5V3.7V3c0-0.1,0-0.3,0-0.4c0,0,0-0.1,0-0.1
		c0-0.1,0-0.2,0.1-0.2c0-0.1,0-0.1,0.1-0.2c0-0.1,0.1-0.1,0.1-0.2c0-0.1,0.1-0.1,0.1-0.2c0,0,0.1-0.1,0.1-0.1c0-0.1,0.1-0.1,0.2-0.2
		c0,0,0.1-0.1,0.1-0.1c0.1-0.1,0.1-0.1,0.2-0.1c0,0,0.1,0,0.1,0c0.1,0,0.2-0.1,0.2-0.1c0,0,0,0,0.1,0C21.6,1,21.8,1,22,1
		c0.3,0,0.5,0.2,0.5,0.5S22.3,2,22,2c-0.6,0-1,0.4-1,1v2h3.5C24.8,5,25,4.8,25,4.5V3c0-1.7-1.3-3-3-3h-0.3H8.3C5.9,0,4,1.9,4,4.3
		v25.3c0,0.1,0,0.2,0.1,0.3c0,0,0.1,0,0.1,0.1c0,0,0.1,0.1,0.1,0.1c0,0,0,0,0,0c0,0,0,0,0,0c0.1,0,0.1,0,0.2,0c0.1,0,0.1,0,0.2,0
		c0,0,0,0,0.1,0c0,0,0.1,0,0.1-0.1l7.2-6.7c2.8,2.6,6.7,6.2,7.1,6.6c0,0,0,0,0.1,0.1c0,0,0,0,0.1,0.1c0,0,0.1,0,0.1,0.1
		c0,0,0,0,0.1,0c0,0,0,0,0,0c0,0,0,0,0,0c0,0,0,0,0,0c0,0,0.1,0,0.1,0c0,0,0,0,0.1,0c0,0,0.1,0,0.1,0c0,0,0,0,0.1,0c0,0,0,0,0.1-0.1
		c0,0,0,0,0.1-0.1c0,0,0,0,0,0c0,0,0,0,0,0c0,0,0,0,0-0.1c0-0.1,0-0.1,0-0.2v0c0,0,0,0,0,0v-8C20,21.2,19.8,21,19.5,21z"/>
	<path d="M19.5,7C15.9,7,13,9.9,13,13.5s2.9,6.5,6.5,6.5s6.5-2.9,6.5-6.5S23.1,7,19.5,7z M19.5,18c-0.3,0-0.5-0.2-0.5-0.5
		s0.2-0.5,0.5-0.5h0c0.3,0,0.5,0.2,0.5,0.5S19.8,18,19.5,18z M20,14.9v0.6c0,0.3-0.2,0.5-0.5,0.5S19,15.8,19,15.5v-1
		c0-0.2,0.2-0.4,0.4-0.5c0.7-0.2,1.6-0.5,1.6-1.5c0-0.7-0.9-1.5-2-1.5c-1.1,0-1.9,0.8-2,1.5c0,0.3-0.3,0.5-0.5,0.5
		c-0.3,0-0.5-0.3-0.5-0.5c0.1-1.2,1.3-2.5,3-2.5c1.6,0,3,1.1,3,2.5C22,13.7,21.3,14.5,20,14.9z"/>
</g>
</svg>
