<?xml version="1.0" encoding="iso-8859-1"?>
<!-- Generator: Adobe Illustrator 19.0.0, SVG Export Plug-In . SVG Version: 6.00 Build 0)  -->
<svg version="1.1" id="Layer_1" xmlns="http://www.w3.org/2000/svg" xmlns:xlink="http://www.w3.org/1999/xlink" x="0px" y="0px"
	 viewBox="0 0 24 24" style="enable-background:new 0 0 24 24;" xml:space="preserve">
<g>
	<g>
		<path d="M1.5,20C0.673,20,0,20.673,0,21.5S0.673,23,1.5,23C2.327,23,3,22.327,3,21.5S2.327,20,1.5,20z M1.5,22
			C1.224,22,1,21.776,1,21.5S1.224,21,1.5,21S2,21.224,2,21.5S1.776,22,1.5,22z M12,22c1.654,0,3-1.346,3-3
			c0-0.821-0.345-1.608-0.952-2.179C11.034,8.986,14.91,0.799,14.95,0.717c0.113-0.234,0.029-0.515-0.195-0.648
			c-0.223-0.13-0.511-0.071-0.662,0.14C13.885,0.5,9,7.472,9,19C9,20.654,10.346,22,12,22z M12.244,6.23
			c-0.545,3.118-0.642,7.103,0.915,11.068c0.03,0.075,0.077,0.142,0.139,0.195C13.744,17.877,14,18.427,14,19c0,1.103-0.897,2-2,2
			c-1.103,0-2-0.897-2-2C10,13.699,11.091,9.348,12.244,6.23z M5.5,21C4.673,21,4,21.673,4,22.5S4.673,24,5.5,24
			C6.327,24,7,23.327,7,22.5S6.327,21,5.5,21z M5.5,23C5.224,23,5,22.776,5,22.5S5.224,22,5.5,22S6,22.224,6,22.5S5.776,23,5.5,23z
			 M22.5,21c-0.827,0-1.5,0.673-1.5,1.5s0.673,1.5,1.5,1.5c0.827,0,1.5-0.673,1.5-1.5S23.327,21,22.5,21z M22.5,23
			c-0.276,0-0.5-0.224-0.5-0.5s0.224-0.5,0.5-0.5s0.5,0.224,0.5,0.5S22.776,23,22.5,23z M18.5,20c-0.827,0-1.5,0.673-1.5,1.5
			s0.673,1.5,1.5,1.5c0.827,0,1.5-0.673,1.5-1.5S19.327,20,18.5,20z M18.5,22c-0.276,0-0.5-0.224-0.5-0.5s0.224-0.5,0.5-0.5
			s0.5,0.224,0.5,0.5S18.776,22,18.5,22z M22.5,19c0.276,0,0.5-0.224,0.5-0.5S22.776,18,22.5,18h-6.05
			c-0.142,0-0.278,0.06-0.373,0.166c-0.095,0.106-0.141,0.248-0.125,0.389l0.021,0.159C15.986,18.808,16,18.902,16,19
			c0,2.206-1.794,4-4,4s-4-1.794-4-4c0-0.095,0.014-0.186,0.026-0.277l0.02-0.157c0.005-0.039,0.002-0.089-0.003-0.128
			C8.012,18.188,7.799,18,7.547,18H0.5C0.224,18,0,18.224,0,18.5S0.224,19,0.5,19H7c0,2.757,2.243,5,5,5s5-2.243,5-5H22.5z"/>
	</g>
</g>
</svg>
