<?xml version="1.0" encoding="iso-8859-1"?>
<!-- Generator: Adobe Illustrator 19.0.0, SVG Export Plug-In . SVG Version: 6.00 Build 0)  -->
<svg version="1.1" id="Layer_1" xmlns="http://www.w3.org/2000/svg" xmlns:xlink="http://www.w3.org/1999/xlink" x="0px" y="0px"
	 viewBox="0 0 24 24" style="enable-background:new 0 0 24 24;" xml:space="preserve">
<g>
	<g>
		<path d="M11.646,12.354C11.744,12.451,11.872,12.5,12,12.5s0.256-0.049,0.353-0.146l4-4c0.195-0.195,0.195-0.512,0-0.707
			s-0.512-0.195-0.707,0l-4,4C11.451,11.842,11.451,12.159,11.646,12.354z M8.646,11.354C8.744,11.451,8.872,11.5,9,11.5
			s0.256-0.049,0.353-0.146l6-6c0.195-0.195,0.195-0.512,0-0.707s-0.512-0.195-0.707,0l-6,6C8.451,10.842,8.451,11.159,8.646,11.354
			z M8,8.5c0.128,0,0.256-0.049,0.353-0.146l4-4c0.195-0.195,0.195-0.512,0-0.707s-0.512-0.195-0.707,0l-4,4
			c-0.195,0.195-0.195,0.512,0,0.707C7.744,8.451,7.872,8.5,8,8.5z M22,6.5c-0.651,0-1.201,0.419-1.408,1h-1.117
			c-0.259-3.903-3.507-7-7.475-7s-7.216,3.097-7.475,7H3.408C3.201,6.919,2.651,6.5,2,6.5C1.173,6.5,0.5,7.173,0.5,8
			c0,0.658,0.428,1.212,1.019,1.414c0.196,5.082,3.956,9.265,8.981,9.979V20.5H10c-1.378,0-2.5,1.122-2.5,2.5
			c0,0.276,0.224,0.5,0.5,0.5h8c0.276,0,0.5-0.224,0.501-0.5c0-1.378-1.122-2.5-2.5-2.5h-0.5v-1.107
			c5.025-0.715,8.785-4.897,8.981-9.98C23.072,9.211,23.5,8.657,23.5,8C23.5,7.173,22.827,6.5,22,6.5z M12,1.5
			c3.584,0,6.5,2.916,6.5,6.5s-2.916,6.5-6.5,6.5c-3.584,0-6.5-2.916-6.5-6.5S8.416,1.5,12,1.5z M2,8.5C1.724,8.5,1.5,8.276,1.5,8
			S1.724,7.5,2,7.5S2.5,7.724,2.5,8S2.276,8.5,2,8.5z M12.951,18.452c-0.256,0.026-0.451,0.241-0.451,0.498V21
			c0,0.276,0.224,0.5,0.5,0.5h1c0.652,0,1.208,0.418,1.415,1H8.586c0.207-0.582,0.763-1,1.415-1h1c0.276,0,0.5-0.224,0.5-0.5v-2.05
			c0-0.257-0.195-0.473-0.451-0.498c-4.737-0.471-8.342-4.322-8.541-9.041c0.012-0.004,0.022-0.012,0.033-0.016
			c0.065-0.026,0.127-0.058,0.187-0.092C2.76,9.285,2.793,9.271,2.823,9.252c0.082-0.054,0.159-0.116,0.229-0.185
			c0.019-0.019,0.035-0.041,0.053-0.061c0.054-0.059,0.105-0.12,0.149-0.187c0.023-0.034,0.039-0.072,0.059-0.108
			c0.03-0.055,0.059-0.11,0.082-0.17C3.401,8.527,3.41,8.515,3.415,8.5h1.11c0.259,3.903,3.507,7,7.475,7s7.216-3.097,7.475-7h1.111
			c0.004,0.013,0.013,0.023,0.017,0.036c0.026,0.068,0.059,0.131,0.094,0.193c0.016,0.029,0.029,0.059,0.047,0.086
			c0.056,0.086,0.119,0.166,0.19,0.238c0.001,0.001,0.002,0.003,0.003,0.004c0.074,0.074,0.156,0.139,0.244,0.197
			c0.024,0.016,0.051,0.027,0.076,0.041c0.065,0.038,0.132,0.073,0.203,0.1c0.011,0.004,0.02,0.011,0.031,0.015
			C21.293,14.13,17.688,17.981,12.951,18.452z M22,8.5c-0.276,0-0.5-0.224-0.5-0.5c0-0.001,0-0.002,0-0.002
			C21.502,7.723,21.725,7.5,22,7.5c0.276,0,0.5,0.224,0.5,0.5C22.5,8.276,22.276,8.5,22,8.5z"/>
	</g>
</g>
</svg>
