<?xml version="1.0" encoding="iso-8859-1"?>
<!-- Generator: Adobe Illustrator 19.0.0, SVG Export Plug-In . SVG Version: 6.00 Build 0)  -->
<svg version="1.1" id="Layer_1" xmlns="http://www.w3.org/2000/svg" xmlns:xlink="http://www.w3.org/1999/xlink" x="0px" y="0px"
	 viewBox="0 0 24 24" style="enable-background:new 0 0 24 24;" xml:space="preserve">
<g>
	<g>
		<path d="M23.943,6.269C22.014,2.578,18.131,0,14.5,0C8.809,0,4,5.724,4,12.5V14H0.5c-0.197,0-0.375,0.115-0.456,0.295
			c-0.08,0.18-0.048,0.39,0.083,0.537l8,9C8.222,23.939,8.358,24,8.501,24s0.279-0.061,0.374-0.168l8-9
			c0.131-0.147,0.164-0.358,0.083-0.537C16.877,14.116,16.699,14,16.502,14H12.99c0.001-0.049,0.003-0.097,0.004-0.146
			c0.004-0.117,0.007-0.235,0.007-0.354c0-4.178,2.244-8.5,6-8.5c1.383,0,3.132,0.973,4.171,1.878
			c0.181,0.158,0.45,0.164,0.638,0.015S24.054,6.482,23.943,6.269z M19.001,4c-4.382,0-7,4.83-7,9.5
			c0,0.109-0.004,0.216-0.007,0.323c-0.008,0.244-0.014,0.486,0.009,0.725C12.028,14.804,12.244,15,12.501,15h2.887l-6.887,7.748
			L1.614,15h2.887c0.276,0,0.5-0.224,0.5-0.5v-2c0-6.233,4.351-11.5,9.5-11.5c2.578,0,5.308,1.461,7.213,3.73
			C20.826,4.296,19.87,4,19.001,4z"/>
	</g>
</g>
</svg>
