<?xml version="1.0" encoding="iso-8859-1"?>
<!-- Generator: Adobe Illustrator 19.0.0, SVG Export Plug-In . SVG Version: 6.00 Build 0)  -->
<svg version="1.1" id="Layer_1" xmlns="http://www.w3.org/2000/svg" xmlns:xlink="http://www.w3.org/1999/xlink" x="0px" y="0px"
	 viewBox="0 0 24 24" style="enable-background:new 0 0 24 24;" xml:space="preserve">
<g>
	<g>
		<path d="M21.5,9.999c-0.276,0-0.5,0.224-0.5,0.5v9c0,0.827-0.673,1.5-1.5,1.5h-17c-0.827,0-1.5-0.673-1.5-1.5v-13
			c0-0.827,0.673-1.5,1.5-1.5h13c0.276,0,0.5-0.224,0.5-0.5s-0.224-0.5-0.5-0.5h-13c-1.378,0-2.5,1.122-2.5,2.5v13
			c0,1.378,1.122,2.5,2.5,2.5h17c1.378,0,2.5-1.122,2.5-2.5v-9C22,10.223,21.776,9.999,21.5,9.999z M23.973,5.367
			c-0.005-0.018-0.004-0.038-0.011-0.056c-0.026-0.065-0.065-0.122-0.115-0.17l-2.994-2.994c-0.195-0.195-0.512-0.195-0.707,0
			s-0.195,0.512,0,0.707l2.145,2.145H21.5c-6.341,0-11.5,5.159-11.5,11.5c0,0.276,0.224,0.5,0.5,0.5s0.5-0.224,0.5-0.5
			c0-5.79,4.71-10.5,10.5-10.5h0.793l-2.147,2.147c-0.195,0.195-0.195,0.512,0,0.707c0.098,0.097,0.226,0.146,0.354,0.146
			s0.256-0.049,0.353-0.145l3-3c0.014-0.014,0.019-0.032,0.031-0.046c0.029-0.036,0.059-0.073,0.077-0.117
			c0.018-0.043,0.022-0.089,0.027-0.134C23.991,5.537,24,5.52,24,5.499C24,5.452,23.985,5.41,23.973,5.367z"/>
	</g>
</g>
</svg>
