<?xml version="1.0" encoding="iso-8859-1"?>
<!-- Generator: Adobe Illustrator 19.0.0, SVG Export Plug-In . SVG Version: 6.00 Build 0)  -->
<svg version="1.1" id="Layer_1" xmlns="http://www.w3.org/2000/svg" xmlns:xlink="http://www.w3.org/1999/xlink" x="0px" y="0px"
	 viewBox="0 0 24 24" style="enable-background:new 0 0 24 24;" xml:space="preserve">
<g>
	<g>
		<path d="M11.357,1H12.5c0.145,0,0.282,0.063,0.377,0.172c0.099,0.114,0.238,0.173,0.378,0.173c0.117,0,0.233-0.04,0.327-0.122
			c0.209-0.181,0.232-0.497,0.051-0.705C13.348,0.189,12.935,0,12.5,0h-1.143c-0.276,0-0.5,0.224-0.5,0.5S11.081,1,11.357,1z
			 M10.5,14h2c0.144,0,0.286-0.021,0.423-0.061c0.265-0.078,0.416-0.356,0.338-0.621s-0.352-0.417-0.621-0.338
			C12.595,12.993,12.548,13,12.5,13h-2c-0.276,0-0.5,0.224-0.5,0.5S10.224,14,10.5,14z M6.357,1h2c0.276,0,0.5-0.224,0.5-0.5
			S8.633,0,8.357,0h-2c-0.276,0-0.5,0.224-0.5,0.5S6.081,1,6.357,1z M14,18.5c0,0.276,0.224,0.5,0.5,0.5s0.5-0.224,0.5-0.5v-2.792
			l5.146,5.146C20.244,20.951,20.372,21,20.5,21s0.256-0.049,0.353-0.146c0.195-0.195,0.195-0.512,0-0.707L15.706,15H18.5
			c0.276,0,0.5-0.224,0.5-0.5S18.776,14,18.5,14h-4c-0.029,0-0.055,0.012-0.083,0.017c-0.036,0.006-0.073,0.008-0.108,0.022
			c-0.061,0.025-0.117,0.062-0.163,0.108c0,0,0,0,0,0c-0.004,0.004-0.005,0.01-0.01,0.014c-0.04,0.043-0.075,0.092-0.098,0.147
			C14.013,14.371,14,14.437,14,14.502V18.5z M14,8.786c0-0.276-0.224-0.5-0.5-0.5S13,8.51,13,8.786v2c0,0.276,0.224,0.5,0.5,0.5
			s0.5-0.224,0.5-0.5V8.786z M13,3.786v2c0,0.276,0.224,0.5,0.5,0.5s0.5-0.224,0.5-0.5v-2c0-0.276-0.224-0.5-0.5-0.5
			S13,3.51,13,3.786z M1.499,13c-0.171,0-0.328-0.086-0.421-0.23c-0.149-0.23-0.457-0.297-0.691-0.149
			c-0.232,0.149-0.298,0.459-0.149,0.691C0.516,13.743,0.988,14,1.5,14h1c0.276,0,0.499-0.224,0.499-0.5S2.775,13,2.499,13H1.499z
			 M0.5,10.571c0.276,0,0.5-0.223,0.5-0.5v-2c0-0.276-0.224-0.5-0.5-0.5S0,7.795,0,8.071v2C0,10.347,0.224,10.571,0.5,10.571z
			 M5.5,14h2C7.776,14,8,13.776,8,13.5S7.776,13,7.5,13h-2C5.224,13,5,13.224,5,13.5S5.224,14,5.5,14z M22.5,0h-7
			C15.224,0,15,0.224,15,0.5S15.224,1,15.5,1h7C22.776,1,23,1.224,23,1.5v21c0,0.276-0.224,0.5-0.5,0.5h-21
			C1.224,23,1,22.776,1,22.5v-7C1,15.224,0.776,15,0.5,15S0,15.224,0,15.5v7C0,23.327,0.673,24,1.5,24h21c0.827,0,1.5-0.673,1.5-1.5
			v-21C24,0.673,23.327,0,22.5,0z M1.425,1.005c0.025,0,0.05-0.001,0.075-0.006h1.857c0.276,0,0.5-0.224,0.5-0.5s-0.224-0.5-0.5-0.5
			H1.5c-0.073,0-0.145,0.006-0.215,0.016c-0.273,0.04-0.428,0.292-0.387,0.565C0.935,0.829,1.176,1.005,1.425,1.005z M0.5,5.571
			c0.276,0,0.5-0.223,0.5-0.5v-2c0-0.276-0.224-0.5-0.5-0.5S0,2.795,0,3.071v2C0,5.347,0.224,5.571,0.5,5.571z"/>
	</g>
</g>
</svg>
