<?xml version="1.0" encoding="iso-8859-1"?>
<!-- Generator: Adobe Illustrator 19.0.0, SVG Export Plug-In . SVG Version: 6.00 Build 0)  -->
<svg version="1.1" id="Layer_1" xmlns="http://www.w3.org/2000/svg" xmlns:xlink="http://www.w3.org/1999/xlink" x="0px" y="0px"
	 viewBox="0 0 24 24" style="enable-background:new 0 0 24 24;" xml:space="preserve">
<g>
	<g>
		<path d="M21.2,7.999h1.093l-2.147,2.147c-0.195,0.195-0.195,0.512,0,0.707c0.098,0.097,0.226,0.146,0.354,0.146
			s0.256-0.049,0.353-0.145l3-3c0.04-0.04,0.067-0.088,0.091-0.137c0.004-0.009,0.012-0.015,0.016-0.024
			c0.026-0.062,0.039-0.128,0.039-0.194c0,0,0,0,0,0c0-0.002-0.001-0.003-0.001-0.005c-0.001-0.063-0.013-0.126-0.037-0.185
			c-0.026-0.063-0.064-0.119-0.111-0.166l-2.996-2.996c-0.195-0.195-0.512-0.195-0.707,0s-0.195,0.512,0,0.707l2.145,2.145H21.2
			c-3.576,0-6.888,1.548-9.2,4.241C9.687,8.546,6.375,6.999,2.799,6.999H0.5c-0.276,0-0.5,0.224-0.5,0.5s0.224,0.5,0.5,0.5h2.299
			c3.33,0,6.412,1.46,8.538,4c-2.126,2.54-5.208,4-8.538,4H0.5c-0.276,0-0.5,0.224-0.5,0.5s0.224,0.5,0.5,0.5h2.299
			c3.779,0,7.276-1.71,9.595-4.693C14.523,9.569,17.733,7.999,21.2,7.999z M23.972,16.359c-0.005-0.016-0.003-0.033-0.01-0.048
			c-0.026-0.065-0.065-0.122-0.115-0.17l-2.994-2.994c-0.195-0.195-0.512-0.195-0.707,0s-0.195,0.512,0,0.707l2.145,2.145h-1.09
			c-2.718,0-5.347-1.006-7.402-2.834c-0.207-0.185-0.523-0.165-0.706,0.041c-0.184,0.206-0.165,0.522,0.041,0.706
			c2.238,1.99,5.103,3.087,8.067,3.087h1.092l-2.147,2.147c-0.195,0.195-0.195,0.512,0,0.707c0.098,0.097,0.226,0.146,0.354,0.146
			s0.256-0.049,0.353-0.145l3-3c0.013-0.013,0.018-0.031,0.03-0.045c0.03-0.037,0.06-0.074,0.078-0.118
			c0.017-0.04,0.02-0.084,0.026-0.126C23.99,16.542,24,16.522,24,16.499C24,16.45,23.985,16.405,23.972,16.359z"/>
	</g>
</g>
</svg>
