<?xml version="1.0" encoding="utf-8"?>
<!-- Generator: Adobe Illustrator 19.0.0, SVG Export Plug-In . SVG Version: 6.00 Build 0)  -->
<svg version="1.1" id="Layer_1" xmlns="http://www.w3.org/2000/svg" xmlns:xlink="http://www.w3.org/1999/xlink" x="0px" y="0px"
	 viewBox="0 0 30 30" style="enable-background:new 0 0 30 30;" xml:space="preserve">
<g>
	<g>
		<polygon points="19.3,6.5 16.6,9.5 25.3,9.5 29.3,6.5 		"/>
		<path d="M25,10.5h-9v13h9V10.5z M23.5,19.5c-0.3,0-0.5,0.2-0.5,0.5s-0.2,0.5-0.5,0.5h-5c-0.3,0-0.5-0.2-0.5-0.5s0.2-0.5,0.5-0.5
			h4.6c0.2-0.4,0.5-0.8,0.9-0.9v-5.2c-0.4-0.2-0.8-0.5-0.9-0.9h-4.6c-0.3,0-0.5-0.2-0.5-0.5s0.2-0.5,0.5-0.5h5
			c0.3,0,0.5,0.2,0.5,0.5s0.2,0.5,0.5,0.5S24,12.7,24,13v6C24,19.3,23.8,19.5,23.5,19.5z"/>
		<rect x="11" y="10.5" width="4" height="13"/>
		<path d="M10,10.5H0V23c0,0.3,0.2,0.5,0.5,0.5H10V10.5z M8.5,20.5h-5C3.2,20.5,3,20.3,3,20s-0.2-0.5-0.5-0.5S2,19.3,2,19v-6
			c0-0.3,0.2-0.5,0.5-0.5S3,12.3,3,12s0.2-0.5,0.5-0.5h5C8.8,11.5,9,11.7,9,12s-0.2,0.5-0.5,0.5H3.9c-0.2,0.4-0.5,0.8-0.9,0.9v5.2
			c0.4,0.2,0.8,0.5,0.9,0.9h4.6C8.8,19.5,9,19.7,9,20S8.8,20.5,8.5,20.5z"/>
		<path d="M26,10.3v13l3.8-2.8c0.1-0.1,0.2-0.2,0.2-0.4V7.3L26,10.3z"/>
		<polygon points="15.3,9.5 17.9,6.5 14.3,6.5 11.6,9.5 		"/>
		<path d="M10.3,9.5l2.7-3H4.5c-0.1,0-0.2,0-0.3,0.1L0.3,9.5H10.3z"/>
	</g>
</g>
</svg>
