<?xml version="1.0" encoding="utf-8"?>
<!-- Generator: Adobe Illustrator 19.0.0, SVG Export Plug-In . SVG Version: 6.00 Build 0)  -->
<svg version="1.1" id="Layer_1" xmlns="http://www.w3.org/2000/svg" xmlns:xlink="http://www.w3.org/1999/xlink" x="0px" y="0px"
	 viewBox="0 0 30 30" style="enable-background:new 0 0 30 30;" xml:space="preserve">
<g>
	<path d="M26.5,24.6L20,20.1c-0.2-0.1-0.4-0.1-0.5,0c-0.2,0.1-0.3,0.3-0.3,0.4v9c0,0.2,0.1,0.4,0.3,0.4c0.1,0,0.2,0.1,0.2,0.1
		c0.1,0,0.2,0,0.3-0.1l6.5-4.5c0.1-0.1,0.2-0.2,0.2-0.4S26.7,24.7,26.5,24.6z"/>
	<g>
		<path d="M24.8,0h-14c-0.1,0-0.1,0-0.2,0c-0.1,0-0.1,0.1-0.2,0.1l-7,7c0,0-0.1,0.1-0.1,0.2c0,0.1,0,0.1,0,0.2v19
			c0,0.3,0.2,0.5,0.5,0.5h14c0.3,0,0.5-0.2,0.5-0.5v-6c0-0.6,0.3-1.1,0.8-1.3c0.5-0.3,1.1-0.2,1.5,0.1l3.9,2.7
			c0.2,0.1,0.4,0.1,0.5,0c0.2-0.1,0.3-0.3,0.3-0.4v-21C25.3,0.2,25,0,24.8,0z M10.3,1.7V7H5L10.3,1.7z M12.9,18c-0.1,0-0.1,0-0.2,0
			c-0.2,0-0.4-0.1-0.5-0.3l-1-2.7c0,0,0,0,0,0h-3c0,0,0,0,0,0l-1,2.7c-0.1,0.3-0.4,0.4-0.6,0.3c-0.3-0.1-0.4-0.4-0.3-0.6l3-8
			c0.1-0.4,0.8-0.4,0.9,0l3,8C13.3,17.6,13.2,17.9,12.9,18z M19.2,9.7l-3,8C16.1,17.9,16,18,15.8,18s-0.4-0.1-0.5-0.3l-3-8
			c-0.1-0.3,0-0.5,0.3-0.6c0.3-0.1,0.5,0,0.6,0.3l2.5,6.8l2.5-6.8c0.1-0.3,0.4-0.4,0.6-0.3C19.2,9.1,19.3,9.4,19.2,9.7z M21.3,17.5
			c0,0.3-0.2,0.5-0.5,0.5s-0.5-0.2-0.5-0.5v-8c0-0.3,0.2-0.5,0.5-0.5s0.5,0.2,0.5,0.5V17.5z"/>
		<polygon points="8.6,14 10.9,14 9.8,10.9 		"/>
	</g>
</g>
</svg>
