<?xml version="1.0" encoding="utf-8"?>
<!-- Generator: Adobe Illustrator 19.0.0, SVG Export Plug-In . SVG Version: 6.00 Build 0)  -->
<svg version="1.1" id="Layer_1" xmlns="http://www.w3.org/2000/svg" xmlns:xlink="http://www.w3.org/1999/xlink" x="0px" y="0px"
	 viewBox="0 0 30 30" style="enable-background:new 0 0 30 30;" xml:space="preserve">
<g>
	<path d="M5.1,11.4l-4.6-3v6h4C4.6,13.4,4.8,12.4,5.1,11.4z"/>
	<path d="M24.5,15c0-5.2-4.3-9.5-9.5-9.5c-3.5,0-6.5,1.9-8.1,4.6L6,9.6c1.8-2.9,4.9-4.9,8.5-5.1c0,0,0,0,0,0v-3H1
		C0.7,1.5,0.5,1.7,0.5,2v5.3l0.2,0.1l0,0l6.4,4l0.1,0.1l0,0l4.5,2.9c0.2,0.1,0.3,0.5,0.2,0.7c-0.1,0.1-0.3,0.2-0.4,0.2
		c-0.1,0-0.2,0-0.3-0.1l-3.4-2.2c-0.1,0.5-0.2,0.9-0.2,1.4H9c0.3,0,0.5,0.2,0.5,0.5S9.3,15.5,9,15.5H7.5c0.2,3.7,3.2,6.7,7,7V21
		c0-0.3,0.2-0.5,0.5-0.5s0.5,0.2,0.5,0.5v1.5c3.7-0.2,6.7-3.2,7-7H21c-0.3,0-0.5-0.2-0.5-0.5s0.2-0.5,0.5-0.5h1.5
		c-0.2-3.7-3.2-6.7-7-7V9c0,0.3-0.2,0.5-0.5,0.5S14.5,9.3,14.5,9V7.5c-2.5,0.2-4.7,1.6-6,3.7l-0.8-0.5c1.5-2.5,4.2-4.2,7.3-4.2
		c4.7,0,8.5,3.8,8.5,8.5s-3.8,8.5-8.5,8.5S6.5,19.7,6.5,15c0-0.9,0.1-1.7,0.4-2.5L6,12c-0.3,1-0.5,2-0.5,3c0,5.2,4.3,9.5,9.5,9.5
		S24.5,20.2,24.5,15z M13.9,13.9c-0.2,0.2-0.5,0.2-0.7,0s-0.2-0.5,0-0.7l1.5-1.5c0.1-0.1,0.4-0.2,0.5-0.1c0.2,0.1,0.3,0.3,0.3,0.5
		v5.5h1c0.3,0,0.5,0.2,0.5,0.5s-0.2,0.5-0.5,0.5h-3c-0.3,0-0.5-0.2-0.5-0.5s0.2-0.5,0.5-0.5h1v-4.3L13.9,13.9z"/>
	<path d="M29,1.5H15.5v3c0,0,0,0,0,0c5.4,0.3,9.7,4.6,10,10h4V2C29.5,1.7,29.3,1.5,29,1.5z"/>
	<path d="M4.5,15.5h-4V28c0,0.3,0.2,0.5,0.5,0.5h13.5v-3c0,0,0,0,0,0C9.1,25.2,4.8,20.9,4.5,15.5z"/>
	<path d="M15.5,25.5C15.5,25.5,15.5,25.5,15.5,25.5l0,3H29c0.3,0,0.5-0.2,0.5-0.5V15.5h-4C25.2,20.9,20.9,25.2,15.5,25.5z"/>
</g>
</svg>
