<?xml version="1.0" encoding="utf-8"?>
<!-- Generator: Adobe Illustrator 19.0.0, SVG Export Plug-In . SVG Version: 6.00 Build 0)  -->
<svg version="1.1" id="Layer_1" xmlns="http://www.w3.org/2000/svg" xmlns:xlink="http://www.w3.org/1999/xlink" x="0px" y="0px"
	 viewBox="0 0 30 30" style="enable-background:new 0 0 30 30;" xml:space="preserve">
<g>
	<path d="M26.5,24.6L20,20.1c-0.2-0.1-0.4-0.1-0.5,0c-0.2,0.1-0.3,0.3-0.3,0.4v9c0,0.2,0.1,0.4,0.3,0.4c0.1,0,0.2,0.1,0.2,0.1
		c0.1,0,0.2,0,0.3-0.1l6.5-4.5c0.1-0.1,0.2-0.2,0.2-0.4S26.7,24.7,26.5,24.6z"/>
	<path d="M24.8,0h-14c-0.1,0-0.1,0-0.2,0c-0.1,0-0.1,0.1-0.2,0.1l-7,7c0,0-0.1,0.1-0.1,0.2c0,0.1,0,0.1,0,0.2v19
		c0,0.3,0.2,0.5,0.5,0.5h14c0.3,0,0.5-0.2,0.5-0.5v-6c0-0.6,0.3-1.1,0.8-1.3c0.5-0.3,1.1-0.2,1.5,0.1l3.9,2.7c0.2,0.1,0.4,0.1,0.5,0
		c0.2-0.1,0.3-0.3,0.3-0.4v-21C25.3,0.2,25,0,24.8,0z M9.8,10H6.3v3h2.5c0.3,0,0.5,0.2,0.5,0.5S9,14,8.8,14H6.3v3.5
		C6.3,17.8,6,18,5.8,18s-0.5-0.2-0.5-0.5v-8C5.3,9.2,5.5,9,5.8,9h4c0.3,0,0.5,0.2,0.5,0.5S10,10,9.8,10z M10.3,7H5l5.3-5.3V7z
		 M15.8,18h-4c-0.3,0-0.5-0.2-0.5-0.5v-8c0-0.3,0.2-0.5,0.5-0.5s0.5,0.2,0.5,0.5V17h3.5c0.3,0,0.5,0.2,0.5,0.5S16,18,15.8,18z
		 M23.2,9.7l-3,8C20.1,17.9,20,18,19.8,18s-0.4-0.1-0.5-0.3l-3-8c-0.1-0.3,0-0.5,0.3-0.6c0.3-0.1,0.5,0,0.6,0.3l2.5,6.8l2.5-6.8
		c0.1-0.3,0.4-0.4,0.6-0.3C23.2,9.1,23.3,9.4,23.2,9.7z"/>
</g>
</svg>
