<?xml version="1.0" encoding="utf-8"?>
<!-- Generator: Adobe Illustrator 19.0.0, SVG Export Plug-In . SVG Version: 6.00 Build 0)  -->
<svg version="1.1" id="Layer_1" xmlns="http://www.w3.org/2000/svg" xmlns:xlink="http://www.w3.org/1999/xlink" x="0px" y="0px"
	 viewBox="0 0 30 30" style="enable-background:new 0 0 30 30;" xml:space="preserve">
<g>
	<g>
		<path d="M3.5,11C3.2,11,3,10.8,3,10.5v-6C3,4.2,3.2,4,3.5,4h3C6.8,4,7,4.2,7,4.5S6.8,5,6.5,5H4v5.5C4,10.8,3.8,11,3.5,11z"/>
	</g>
	<g>
		<path d="M5.5,8h-2C3.2,8,3,7.8,3,7.5S3.2,7,3.5,7h2C5.8,7,6,7.2,6,7.5S5.8,8,5.5,8z"/>
	</g>
	<g>
		<path d="M9,11c-0.9,0-2-0.7-2-1.8V7.5C7,7.2,7.2,7,7.5,7S8,7.2,8,7.5v1.8C8,9.6,8.5,10,9,10s1-0.4,1-0.8V7.5C10,7.2,10.2,7,10.5,7
			S11,7.2,11,7.5v1.8C11,10.3,9.9,11,9,11z"/>
	</g>
	<g>
		<path d="M12.5,11c-0.3,0-0.5-0.2-0.5-0.5v-6C12,4.2,12.2,4,12.5,4S13,4.2,13,4.5v6C13,10.8,12.8,11,12.5,11z"/>
	</g>
	<g>
		<path d="M14.5,11c-0.3,0-0.5-0.2-0.5-0.5v-6C14,4.2,14.2,4,14.5,4S15,4.2,15,4.5v6C15,10.8,14.8,11,14.5,11z"/>
	</g>
	<g>
		<path d="M18.5,11c-0.3,0-0.5-0.2-0.5-0.5v-6C18,4.2,18.2,4,18.5,4S19,4.2,19,4.5v6C19,10.8,18.8,11,18.5,11z"/>
	</g>
	<g>
		<path d="M21.5,11c-0.3,0-0.5-0.2-0.5-0.5v-6C21,4.2,21.2,4,21.5,4S22,4.2,22,4.5v6C22,10.8,21.8,11,21.5,11z"/>
	</g>
	<g>
		<path d="M21.5,8h-3C18.2,8,18,7.8,18,7.5S18.2,7,18.5,7h3C21.8,7,22,7.2,22,7.5S21.8,8,21.5,8z"/>
	</g>
	<g>
		<path d="M25.3,11h-1.8c-0.3,0-0.5-0.2-0.5-0.5v-6C23,4.2,23.2,4,23.5,4h1.8c1,0,1.8,0.8,1.8,1.8v3.5C27,10.2,26.2,11,25.3,11z
			 M24,10h1.3c0.4,0,0.8-0.3,0.8-0.8V5.8C26,5.3,25.7,5,25.3,5H24V10z"/>
	</g>
	<g>
		<circle cx="17.5" cy="17.5" r="1.5"/>
		<circle cx="17.5" cy="21.5" r="1.5"/>
		<path d="M10.5,16C9.7,16,9,16.7,9,17.5v4c0,0.8,0.7,1.5,1.5,1.5s1.5-0.7,1.5-1.5v-4C12,16.7,11.3,16,10.5,16z"/>
		<path d="M24.5,16c-0.8,0-1.5,0.7-1.5,1.5v4c0,0.8,0.7,1.5,1.5,1.5s1.5-0.7,1.5-1.5v-4C26,16.7,25.3,16,24.5,16z"/>
		<path d="M26.5,13H3.8c-2,0-3.8,1.6-3.8,3.5v6C0,24.4,1.6,26,3.5,26h23c1.9,0,3.5-1.6,3.5-3.5v-6C30,14.6,28.4,13,26.5,13z M6,23.5
			C6,23.8,5.8,24,5.5,24S5,23.8,5,23.5v-6.8l-1.1,1.1c-0.2,0.2-0.5,0.2-0.7,0s-0.2-0.5,0-0.7l2-2C5.3,15,5.5,15,5.7,15
			C5.9,15.1,6,15.3,6,15.5L6,23.5L6,23.5z M13,21.5c0,1.4-1.1,2.5-2.5,2.5S8,22.9,8,21.5v-4c0-1.4,1.1-2.5,2.5-2.5s2.5,1.1,2.5,2.5
			V21.5z M20,21.5c0,1.4-1.1,2.5-2.5,2.5S15,22.9,15,21.5c0-0.8,0.4-1.5,1-2c-0.6-0.5-1-1.2-1-2c0-1.4,1.1-2.5,2.5-2.5
			s2.5,1.1,2.5,2.5c0,0.8-0.4,1.5-1,2C19.6,20,20,20.7,20,21.5z M27,21.5c0,1.4-1.1,2.5-2.5,2.5S22,22.9,22,21.5v-4
			c0-1.4,1.1-2.5,2.5-2.5s2.5,1.1,2.5,2.5V21.5z"/>
	</g>
</g>
</svg>
