<?xml version="1.0" encoding="utf-8"?>
<!-- Generator: Adobe Illustrator 19.0.0, SVG Export Plug-In . SVG Version: 6.00 Build 0)  -->
<svg version="1.1" id="Layer_1" xmlns="http://www.w3.org/2000/svg" xmlns:xlink="http://www.w3.org/1999/xlink" x="0px" y="0px"
	 viewBox="0 0 30 30" style="enable-background:new 0 0 30 30;" xml:space="preserve">
<g>
	<path d="M24.1,21.1C24.1,21.1,24.1,21.1,24.1,21.1C24.1,21.1,24.1,21.1,24.1,21.1c-0.3-0.1-0.5-0.2-0.7-0.2c0,0-0.1,0-0.1,0
		c-0.2-0.1-0.4-0.1-0.6-0.2c-0.1,0-0.1,0-0.2,0c-0.2,0-0.4-0.1-0.5-0.1c-0.1,0-0.1,0-0.2,0c-0.2,0-0.3-0.1-0.5-0.1
		c-0.1,0-0.1,0-0.2,0c-0.1,0-0.3,0-0.4,0c-0.1,0-0.1,0-0.2,0c-0.1,0-0.3,0-0.4,0c-0.1,0-0.1,0-0.2,0c-0.1,0-0.3,0-0.4,0
		c-0.1,0-0.1,0-0.2,0c-0.2,0-0.3,0.1-0.4,0.1c0,0,0,0,0,0c-0.3,0.1-0.5,0-0.7-0.3c-0.1-0.3,0-0.5,0.3-0.7c1.4-0.6,3.8-0.2,6.1,0.6
		c0.6-1.2,0.9-2.3,0.9-3.2c0-1.5-0.3-2.8-0.8-4.1c0,0,0.1,0,0.1-0.1c4.4-2.8,4.7-11.5,4.7-11.9c0-0.2-0.1-0.4-0.3-0.5
		s-0.4-0.1-0.5,0.1l-7,6.4c0,0,0,0,0,0c0,0-0.1-0.1-0.1-0.1c0.1,0.1,0.2,0.3,0.3,0.4c0.2,0.2,0.3,0.4,0.5,0.5c0.2,0.2,0.2,0.5,0,0.7
		c-0.1,0.1-0.2,0.1-0.4,0.1s-0.3,0-0.4-0.1c-0.2-0.2-0.4-0.4-0.5-0.6c-0.9-1.1-2-2.4-6.1-2.4S9.8,6.8,8.9,7.9
		C8.7,8.1,8.5,8.4,8.4,8.5c-0.2,0.2-0.5,0.2-0.7,0S7.5,8,7.6,7.8C7.8,7.7,8,7.5,8.1,7.3C8.2,7.2,8.3,7,8.4,6.9c0,0-0.1,0.1-0.1,0.1
		c0,0,0,0,0,0l-7-6.4C1.2,0.5,1,0.5,0.8,0.5C0.6,0.6,0.5,0.8,0.5,1c0,0.4,0.3,10,4.4,13c-0.3,0.9-0.4,1.9-0.4,3c0,0.9,0.4,2,0.9,3.2
		c2.3-0.9,4.7-1.2,6.1-0.6c0.3,0.1,0.4,0.4,0.3,0.7c-0.1,0.3-0.4,0.4-0.7,0.3c0,0,0,0,0,0c-0.1-0.1-0.3-0.1-0.4-0.1c0,0-0.1,0-0.1,0
		c-0.1,0-0.3,0-0.4-0.1c0,0-0.1,0-0.1,0c-0.1,0-0.3,0-0.5,0c0,0-0.1,0-0.1,0c-0.2,0-0.4,0-0.5,0c0,0-0.1,0-0.1,0
		c-0.2,0-0.4,0.1-0.6,0.1c0,0,0,0-0.1,0c-2.3,0.4-5,1.7-6.5,3.2c-0.2,0.2-0.2,0.5,0,0.7c0.1,0.1,0.2,0.1,0.4,0.1s0.3,0,0.4-0.1
		c1-1,2.5-1.8,4.1-2.4c0.2,0.3,0.4,0.6,0.6,0.9c1.7-0.6,3.4-0.7,4.5-0.3c0.3,0.1,0.4,0.4,0.3,0.7c-0.1,0.3-0.4,0.4-0.7,0.3
		c0,0,0,0,0,0c-0.2-0.1-0.5-0.1-0.7-0.2c0,0,0,0,0,0c-2.3-0.3-6.2,1.3-7.9,4.4c-0.1,0.2,0,0.5,0.2,0.7c0.1,0,0.2,0.1,0.2,0.1
		c0.2,0,0.4-0.1,0.4-0.3c1.1-2,3.1-3.2,4.8-3.7c2.2,2.7,4.9,4.9,6.7,4.9s4.5-2.2,6.7-4.9c1.7,0.5,3.8,1.7,4.8,3.7
		c0.1,0.2,0.3,0.3,0.4,0.3c0.1,0,0.2,0,0.2-0.1c0.2-0.1,0.3-0.4,0.2-0.7c-1.7-3.1-5.6-4.7-7.9-4.4c0,0,0,0,0,0
		c-0.3,0-0.5,0.1-0.7,0.2c0,0,0,0,0,0c-0.3,0.1-0.5,0-0.6-0.3c-0.1-0.3,0-0.5,0.3-0.6c1.1-0.4,2.8-0.3,4.5,0.3
		c0.2-0.3,0.4-0.6,0.6-0.9c1.5,0.5,3.1,1.4,4.1,2.4c0.1,0.1,0.2,0.1,0.4,0.1s0.3,0,0.4-0.1c0.2-0.2,0.2-0.5,0-0.7
		C27.3,22.6,25.7,21.7,24.1,21.1z M8.5,14c0-0.3,0.2-0.5,0.5-0.5c2.5,0,4.5,2,4.5,4.5c0,0.3-0.2,0.5-0.5,0.5
		C10.5,18.5,8.5,16.5,8.5,14z M16.5,25.5c-0.7,0-1.2-0.3-1.5-0.7c-0.3,0.3-0.8,0.7-1.5,0.7c-0.3,0-0.5-0.2-0.5-0.5s0.2-0.5,0.5-0.5
		c0.6,0,0.9-0.5,1-0.7v-1l-1.4-1.5c-0.2-0.2-0.2-0.4-0.1-0.6c0.1-0.1,0.8-1.2,1.9-1.2s1.8,1.1,1.9,1.2c0.1,0.2,0.1,0.4-0.1,0.6
		l-1.4,1.5v1c0.1,0.2,0.4,0.7,1,0.7c0.3,0,0.5,0.2,0.5,0.5S16.8,25.5,16.5,25.5z M16.5,18c0-2.5,2-4.5,4.5-4.5
		c0.3,0,0.5,0.2,0.5,0.5c0,2.5-2,4.5-4.5,4.5C16.7,18.5,16.5,18.3,16.5,18z"/>
	<path d="M17.5,17.5c1.5-0.2,2.7-1.4,2.9-2.9C19,14.8,17.8,16,17.5,17.5z"/>
	<path d="M9.5,14.5c0.2,1.5,1.4,2.7,2.9,2.9C12.2,16,11,14.8,9.5,14.5z"/>
</g>
</svg>
