<?xml version="1.0" encoding="utf-8"?>
<!-- Generator: Adobe Illustrator 19.0.0, SVG Export Plug-In . SVG Version: 6.00 Build 0)  -->
<svg version="1.1" id="Layer_1" xmlns="http://www.w3.org/2000/svg" xmlns:xlink="http://www.w3.org/1999/xlink" x="0px" y="0px"
	 viewBox="0 0 30 30" style="enable-background:new 0 0 30 30;" xml:space="preserve">
<g>
	<path d="M10.5,3.5c0,0.3,0.1,0.6,0.2,0.9c0,0.1,0.1,0.2,0.2,0.3c0.1,0.1,0.3,0.1,0.4,0c0.5-0.2,1.1-0.1,1.6,0.4
		c0,0,0.1,0.1,0.1,0.1c0.1,0.1,0.2,0.2,0.4,0.2c0.1,0,0.2,0,0.2-0.1C14.3,5,15,5,15,5c0,0,0.7,0,1.4,0.4c0.2,0.1,0.4,0.1,0.6-0.1
		c0,0,0.1-0.1,0.1-0.1c0.4-0.4,1-0.6,1.5-0.3c0.1,0,0.3,0,0.4,0c0.1-0.1,0.2-0.2,0.3-0.3c0.1-0.3,0.1-0.7,0.2-0.9
		C20,3.4,20.3,3.2,20.4,3c0.2-0.2,0.2-0.5,0.1-0.8C20.4,1.6,19.8,1,19,0.5C18.3,0.2,17.7,0,17.1,0c-0.7,0-1,0.3-1.2,0.5
		c-0.1,0.2-0.2,0.4-0.2,0.6C15.5,1.1,15.3,1,15,1c-0.3,0-0.6,0-0.8,0.1c0-0.2,0-0.4-0.1-0.6C13.9,0.3,13.6,0,12.9,0
		c-0.6,0-1.2,0.2-1.8,0.5C10.2,1,9.6,1.6,9.4,2.2C9.4,2.5,9.4,2.8,9.6,3C9.7,3.2,10,3.4,10.5,3.5z M17.1,1c0.4,0,0.9,0.1,1.4,0.4
		c0.8,0.4,1.1,0.9,1.1,1.1c0,0-0.1,0.1-0.4,0.1c0,0-0.1,0-0.1,0l-1.7-0.7c-0.5-0.4-0.6-0.7-0.6-0.7C16.8,1.1,16.9,1,17.1,1z
		 M11.5,1.4C12,1.1,12.5,1,12.9,1c0.2,0,0.3,0.1,0.4,0.1c0,0,0,0,0,0c0,0,0,0.2-0.4,0.5l-2,0.9c-0.3,0-0.4-0.1-0.4-0.1
		C10.4,2.3,10.7,1.8,11.5,1.4z"/>
	<path d="M18,23.3l-0.9-0.9c-0.7-0.7-1.2-1.5-1.6-2.5c-0.1-0.2-0.3-0.3-0.5-0.3c-0.2,0-0.4,0.1-0.5,0.3c-0.4,1-1,1.9-1.7,2.6
		c-0.4,0.4-0.9,0.9-1.4,1.3L11,24.2c-0.1,0.1-0.2,0.4-0.1,0.6c0.8,1.9,2.2,4.2,4.1,4.2c1.9,0,3.3-2.3,4.1-4.2c0.1-0.2,0-0.4-0.1-0.6
		C18.7,24,18.3,23.6,18,23.3z"/>
	<path d="M29.5,22.4c-0.2-3.4-2.2-8.2-6.9-12.9l1.3-1.2l2.2,3.5c0.1,0.1,0.1,0.2,0.2,0.2l2.5,1c0.1,0,0.1,0,0.2,0
		c0.2,0,0.4-0.1,0.5-0.3c0.1-0.3,0-0.5-0.3-0.7l-2.3-0.9l-2.4-3.9C24.3,7.1,24.2,7,24.1,7c-0.1,0-0.3,0-0.4,0.1l-1.7,1.6
		c-0.7-0.7-1.4-1.3-2.2-2L24.2,5c0.2-0.1,0.3-0.3,0.3-0.5V1.7l0.9-0.9c0.2-0.2,0.2-0.5,0-0.7s-0.5-0.2-0.7,0l-1,1
		c-0.1,0.1-0.1,0.2-0.1,0.4v2.7L18.8,6c0,0,0,0,0,0c-0.1-0.1-0.2-0.2-0.3-0.3c-0.2-0.2-0.5-0.1-0.7,0c-2.4,2.3-3.8,12,0,15.8
		l0.8,0.8c0.9,0.9,1.9,1.9,2.8,2.8l-0.5,1.6c0,0.1,0,0.3,0,0.4l1.3,2.5c0.1,0.2,0.3,0.3,0.4,0.3c0.1,0,0.2,0,0.2-0.1
		c0.2-0.1,0.3-0.4,0.2-0.7l-1.2-2.3l0.3-1c1.5,1.2,2.9,2.1,4.1,2.1h0c0.7,0,1.3-0.3,1.7-0.7C29.2,26.2,29.6,24.5,29.5,22.4z"/>
	<path d="M12.2,21.7c1.5-1.4,2.3-4,2.3-7.1c0-3.6-1-7.4-2.3-8.7c-0.2-0.2-0.5-0.2-0.7,0C11.4,5.9,11.3,6,11.2,6c0,0,0,0,0,0L6.5,4.2
		V1.5c0-0.1-0.1-0.3-0.1-0.4l-1-1C5.2,0,4.8,0,4.6,0.1s-0.2,0.5,0,0.7l0.9,0.9v2.8c0,0.2,0.1,0.4,0.3,0.5l4.5,1.8
		C9.6,7.3,9,7.8,8.4,8.4L6.3,7.1C6,6.9,5.7,7,5.6,7.2l-2.4,3.9L0.8,12c-0.3,0.1-0.4,0.4-0.3,0.7C0.6,12.9,0.8,13,1,13
		c0.1,0,0.1,0,0.2,0l2.5-1c0.1,0,0.2-0.1,0.2-0.2l2.2-3.6l1.5,0.9c-4.8,4.8-6.8,9.8-7.1,13.3c-0.2,2.1,0.3,3.9,1.3,4.9
		c0.5,0.5,1.1,0.7,1.7,0.7c1.3,0,2.7-0.9,4.2-2.2l0.6,1.1l-1.8,2.2c-0.2,0.2-0.1,0.5,0.1,0.7C6.8,30,6.9,30,7,30
		c0.1,0,0.3-0.1,0.4-0.2l2-2.5c0.1-0.2,0.1-0.4,0.1-0.5l-0.8-1.6c0.7-0.7,1.5-1.4,2.2-2.1C11.3,22.5,11.7,22.1,12.2,21.7z"/>
</g>
</svg>
