<?xml version="1.0" encoding="utf-8"?>
<!-- Generator: Adobe Illustrator 19.0.0, SVG Export Plug-In . SVG Version: 6.00 Build 0)  -->
<svg version="1.1" id="Layer_1" xmlns="http://www.w3.org/2000/svg" xmlns:xlink="http://www.w3.org/1999/xlink" x="0px" y="0px"
	 viewBox="0 0 30 30" style="enable-background:new 0 0 30 30;" xml:space="preserve">
<g>
	<path d="M29.5,20.5h-10c-0.1,0-0.3,0.1-0.4,0.1l-1.9,1.9h-4.6l-1.9-1.9c-0.1-0.1-0.2-0.1-0.4-0.1h-10C0.2,20.5,0,20.7,0,21
		s0.2,0.5,0.5,0.5h9.8l1.9,1.9c0.1,0.1,0.2,0.1,0.4,0.1h5c0.1,0,0.3-0.1,0.4-0.1l1.9-1.9h9.8c0.3,0,0.5-0.2,0.5-0.5
		S29.8,20.5,29.5,20.5z"/>
	<path d="M24.5,5.5H18v-2h1.5C19.8,3.5,20,3.3,20,3s-0.2-0.5-0.5-0.5h-9C10.2,2.5,10,2.7,10,3s0.2,0.5,0.5,0.5H12v2H5.5
		C2.5,5.5,0,8,0,11v3c0,3,2.5,5.5,5.5,5.5h19c3,0,5.5-2.5,5.5-5.5v-3C30,8,27.5,5.5,24.5,5.5z M13,3.5h4v2h-4V3.5z"/>
	<circle cx="27.5" cy="25" r="2.5"/>
	<circle cx="21.5" cy="25" r="2.5"/>
	<circle cx="8.5" cy="25" r="2.5"/>
	<circle cx="2.5" cy="25" r="2.5"/>
</g>
</svg>
