<?xml version="1.0" encoding="utf-8"?>
<!-- Generator: Adobe Illustrator 19.0.0, SVG Export Plug-In . SVG Version: 6.00 Build 0)  -->
<svg version="1.1" id="Layer_1" xmlns="http://www.w3.org/2000/svg" xmlns:xlink="http://www.w3.org/1999/xlink" x="0px" y="0px"
	 viewBox="0 0 30 30" style="enable-background:new 0 0 30 30;" xml:space="preserve">
<g>
	<path d="M9.9,2.1l-2-2C7.8,0.1,7.7,0,7.5,0C7.4,0,7.4,0,7.2,0.2l0,0c0,0-0.1,0.1-0.1,0.1C6.6,0.7,5.6,1.7,3.1,4.1
		C3,4.3,3,4.7,3.1,4.9l2,2C5.2,7,5.4,7,5.5,7s0.3,0,0.4-0.1l4-4C10,2.7,10,2.3,9.9,2.1z"/>
	<g>
		<path d="M24,0L13.5,0c-1.7,0-3,1.3-3,3c0,2.5-2,4.5-4.5,4.5c-1.7,0-3,1.3-3,3V27c0,1.7,1.3,3,3,3h18c1.7,0,3-1.3,3-3V3
			C27,1.3,25.7,0,24,0z M22.9,26.1c0.2,0.2,0.2,0.5,0,0.7C22.8,27,22.6,27,22.5,27s-0.3,0-0.4-0.1L19.3,24H9.7l-2.9,2.9
			C6.8,27,6.6,27,6.5,27s-0.3,0-0.4-0.1c-0.2-0.2-0.2-0.5,0-0.7L9,23.3v-8.6l-2.9-2.9c-0.2-0.2-0.2-0.5,0-0.7s0.5-0.2,0.7,0L9.7,14
			h9.6l2.9-2.9c0.2-0.2,0.5-0.2,0.7,0s0.2,0.5,0,0.7L20,14.7v8.6L22.9,26.1z M24,5.5C24,6.3,23.3,7,22.5,7h-8C13.7,7,13,6.3,13,5.5
			v-1C13,3.7,13.7,3,14.5,3h8C23.3,3,24,3.7,24,4.5V5.5z"/>
		<rect x="10" y="15" width="9" height="8"/>
	</g>
</g>
</svg>
