<?xml version="1.0" encoding="utf-8"?>
<!-- Generator: Adobe Illustrator 19.0.0, SVG Export Plug-In . SVG Version: 6.00 Build 0)  -->
<svg version="1.1" id="Layer_1" xmlns="http://www.w3.org/2000/svg" xmlns:xlink="http://www.w3.org/1999/xlink" x="0px" y="0px"
	 viewBox="0 0 30 30" style="enable-background:new 0 0 30 30;" xml:space="preserve">
<g>
	<path d="M28.8,17h-2c-0.2-4.2-2.6-8-6.5-9.8c-0.1-0.1-0.3-0.1-0.4,0c-0.1,0.1-0.2,0.2-0.3,0.3l-1.8,8.3C17.6,16.5,17,17,16.3,17h-2
		c-0.7,0-1.3-0.5-1.5-1.2l-1.8-8.3c0-0.1-0.1-0.3-0.3-0.3c-0.1-0.1-0.3-0.1-0.4,0C6.4,9,3.9,12.8,3.8,17H1.3c-0.3,0-0.5,0.2-0.5,0.5
		S1,18,1.3,18h3h10h2h10h2.5c0.3,0,0.5-0.2,0.5-0.5S29,17,28.8,17z"/>
	<path d="M26.3,21h-2h-0.5h-8.5h-9H3.8c-0.3,0-0.5,0.2-0.5,0.5S3.5,22,3.8,22h2c0,0.9,0.2,2.6,1.4,3.8C7.8,26.6,8.8,27,10,27
		c3,0,4.5-2.4,5.2-4c0.7,1.6,2.3,4,5.2,4c1.2,0,2.2-0.4,2.9-1.2c1.1-1.2,1.3-3,1.4-3.8h1.5c0.3,0,0.5-0.2,0.5-0.5S26.5,21,26.3,21z"
		/>
	<path d="M13.8,15.6c0.1,0.2,0.3,0.4,0.5,0.4h2c0.2,0,0.4-0.2,0.5-0.4l2-9c0,0,0-0.1,0-0.1c0-1.9-1.6-3.5-3.5-3.5s-3.5,1.6-3.5,3.5
		c0,0,0,0.1,0,0.1L13.8,15.6z"/>
</g>
</svg>
