<?xml version="1.0" encoding="iso-8859-1"?>
<!-- Generator: Adobe Illustrator 19.0.0, SVG Export Plug-In . SVG Version: 6.00 Build 0)  -->
<svg version="1.1" id="Layer_1" xmlns="http://www.w3.org/2000/svg" xmlns:xlink="http://www.w3.org/1999/xlink" x="0px" y="0px"
	 viewBox="0 0 24 24" style="enable-background:new 0 0 24 24;" xml:space="preserve">
<path d="M23.961,16.171c0.037-0.099,0.05-0.208,0.016-0.318L22,9.428V3.5C22,2.122,20.879,1,19.5,1h-15C3.121,1,2,2.122,2,3.5v5.928
	l-1.977,6.425c-0.034,0.109-0.021,0.218,0.016,0.318C0.015,16.277,0,16.386,0,16.5v4v2C0,22.776,0.224,23,0.5,23h2
	C2.776,23,3,22.776,3,22.5V21h18v1.5c0,0.276,0.224,0.5,0.5,0.5h2c0.276,0,0.5-0.224,0.5-0.5v-2v-4
	C24,16.386,23.985,16.277,23.961,16.171z M1,20v-3.5C1,16.224,1.225,16,1.5,16h21c0.275,0,0.5,0.224,0.5,0.5V20H1z M2.869,10h1.505
	c0.053,0.15,0.122,0.294,0.223,0.424C4.885,10.79,5.316,11,5.781,11H9.5c0.651,0,1.201-0.42,1.408-1h2.184
	c0.207,0.581,0.757,1,1.408,1h3.719c0.465,0,0.895-0.21,1.183-0.576c0.101-0.129,0.17-0.274,0.223-0.424h1.506l1.544,5.018
	C22.617,15.011,22.56,15,22.5,15h-21c-0.06,0-0.117,0.011-0.174,0.018L2.869,10z M10.001,9.495C10.001,9.497,10,9.498,10,9.5
	c0,0.001,0,0.002,0,0.002C9.999,9.777,9.775,10,9.501,10H5.782c-0.156,0-0.299-0.07-0.395-0.192c-0.096-0.123-0.129-0.28-0.091-0.43
	l0.5-2C5.852,7.156,6.051,7,6.282,7h3.219c0.275,0,0.5,0.224,0.5,0.5V9.495z M14,9.5v-2C14,7.224,14.225,7,14.5,7h3.22
	c0.23,0,0.429,0.155,0.485,0.378l0.5,2c0.038,0.151,0.005,0.307-0.091,0.43C18.518,9.93,18.374,10,18.219,10H14.5
	C14.225,10,14,9.776,14,9.5z M3,3.5C3,2.673,3.673,2,4.5,2h15C20.327,2,21,2.673,21,3.5V9h-1.359l-0.466-1.864
	C19.007,6.467,18.408,6,17.719,6H14.5C13.673,6,13,6.673,13,7.5V9h-2V7.501c0-0.827-0.673-1.5-1.5-1.5H6.281
	c-0.689,0-1.288,0.468-1.456,1.136L4.359,9H3V3.5z M2,22H1v-1h1V22z M22,22v-1h1v1H22z"/>
</svg>
