<?xml version="1.0" encoding="iso-8859-1"?>
<!-- Generator: Adobe Illustrator 19.0.0, SVG Export Plug-In . SVG Version: 6.00 Build 0)  -->
<svg version="1.1" id="Layer_1" xmlns="http://www.w3.org/2000/svg" xmlns:xlink="http://www.w3.org/1999/xlink" x="0px" y="0px"
	 viewBox="0 0 24 24" style="enable-background:new 0 0 24 24;" xml:space="preserve">
<g>
	<path d="M21,0H3C1.621,0,0.5,1.122,0.5,2.5v20C0.5,22.776,0.724,23,1,23h0.5v0.5C1.5,23.776,1.724,24,2,24s0.5-0.224,0.5-0.5V23h19
		v0.5c0,0.276,0.224,0.5,0.5,0.5s0.5-0.224,0.5-0.5V23H23c0.276,0,0.5-0.224,0.5-0.5v-20C23.5,1.122,22.379,0,21,0z M1.5,22v-4h10v4
		H1.5z M11.5,17h-10v-4h10V17z M1.5,12V7h21v5H1.5z M3,1h18c0.827,0,1.5,0.673,1.5,1.5V6h-21V2.5C1.5,1.673,2.173,1,3,1z M12.5,22
		v-9h10v9H12.5z"/>
	<path d="M6,15h1c0.276,0,0.5-0.224,0.5-0.5S7.276,14,7,14H6c-0.276,0-0.5,0.224-0.5,0.5S5.724,15,6,15z"/>
	<path d="M7,19H6c-0.276,0-0.5,0.224-0.5,0.5S5.724,20,6,20h1c0.276,0,0.5-0.224,0.5-0.5S7.276,19,7,19z"/>
	<path d="M14,15c-0.276,0-0.5,0.224-0.5,0.5v1c0,0.276,0.224,0.5,0.5,0.5s0.5-0.224,0.5-0.5v-1C14.5,15.224,14.276,15,14,15z"/>
</g>
</svg>
