<?xml version="1.0" encoding="iso-8859-1"?>
<!-- Generator: Adobe Illustrator 19.0.0, SVG Export Plug-In . SVG Version: 6.00 Build 0)  -->
<svg version="1.1" id="Layer_1" xmlns="http://www.w3.org/2000/svg" xmlns:xlink="http://www.w3.org/1999/xlink" x="0px" y="0px"
	 viewBox="0 0 24 24" style="enable-background:new 0 0 24 24;" xml:space="preserve">
<g>
	<path d="M21,0h-1H4H3C2.724,0,2.5,0.224,2.5,0.5S2.724,1,3,1h0.5v2.5v19v1C3.5,23.776,3.724,24,4,24s0.5-0.224,0.5-0.5V23h15v0.5
		c0,0.276,0.224,0.5,0.5,0.5s0.5-0.224,0.5-0.5v-1v-19V1H21c0.276,0,0.5-0.224,0.5-0.5S21.276,0,21,0z M4.5,11h15v5h-15V11z
		 M19.5,10h-15V4h15V10z M4.5,17h15v5h-15V17z M19.5,3h-15V1h15V3z"/>
	<path d="M13,12h-1c-0.276,0-0.5,0.224-0.5,0.5S11.724,13,12,13h1c0.276,0,0.5-0.224,0.5-0.5S13.276,12,13,12z"/>
	<path d="M13,18h-1c-0.276,0-0.5,0.224-0.5,0.5S11.724,19,12,19h1c0.276,0,0.5-0.224,0.5-0.5S13.276,18,13,18z"/>
</g>
</svg>
