<?xml version="1.0" encoding="iso-8859-1"?>
<!-- Generator: Adobe Illustrator 19.0.0, SVG Export Plug-In . SVG Version: 6.00 Build 0)  -->
<svg version="1.1" id="Layer_1" xmlns="http://www.w3.org/2000/svg" xmlns:xlink="http://www.w3.org/1999/xlink" x="0px" y="0px"
	 viewBox="0 0 24 24" style="enable-background:new 0 0 24 24;" xml:space="preserve">
<g>
	<path d="M22.094,12.509c0.001-0.003,0.002-0.009,0.003-0.011C23.154,12.447,24,11.571,24,10.5c0-1.103-0.897-2-2-2V8
		c0-1.93-1.57-3.5-3.5-3.5h-13C3.57,4.5,2,6.07,2,8v0.5c-1.103,0-2,0.897-2,2c0,1.071,0.845,1.948,1.903,1.998
		c0.001,0.003,0.002,0.009,0.003,0.011C0.848,12.56,0,13.429,0,14.5c0,1.103,0.897,2,2,2V18c0,0.827,0.673,1.5,1.5,1.5h1
		C5.327,19.5,6,18.827,6,18v-1.5h12V18c0,0.827,0.673,1.5,1.5,1.5h1c0.827,0,1.5-0.673,1.5-1.5v-1.5c1.103,0,2-0.897,2-2
		C24,13.429,23.152,12.56,22.094,12.509z M22.999,10.5c0,0.551-0.448,1-1,1c-0.548,0-0.835,0.471-0.945,1h-1.983
		c0.305-1.207,1.556-3,2.928-3C22.551,9.5,22.999,9.949,22.999,10.5z M3,8c0-1.378,1.121-2.5,2.5-2.5h13C19.879,5.5,21,6.622,21,8
		v0.694c-1.572,0.596-2.703,2.472-2.947,3.806H5.947C5.703,11.166,4.572,9.29,3,8.694V8z M0.999,10.5c0-0.551,0.448-1,1-1
		c1.373,0,2.624,1.793,2.929,3H2.945c-0.11-0.529-0.397-1-0.946-1C1.447,11.5,0.999,11.051,0.999,10.5z M5,18
		c0,0.276-0.225,0.5-0.5,0.5h-1C3.225,18.5,3,18.276,3,18v-1.5h2V18z M21,18c0,0.276-0.225,0.5-0.5,0.5h-1
		c-0.275,0-0.5-0.224-0.5-0.5v-1.5h2V18z M22,15.5h-0.5h-3h-13h-3H2c-0.552,0-1-0.449-1-1s0.448-1,1-1h0.5h3h13h3H22
		c0.552,0,1,0.449,1,1S22.552,15.5,22,15.5z"/>
	<path d="M7,10c0,0.276,0.224,0.5,0.5,0.5c0.288,0,0.646-0.185,1-0.449c0.354,0.263,0.712,0.449,1,0.449
		c0.276,0,0.504-0.224,0.504-0.5S9.783,9.5,9.507,9.5C9.439,9.492,9.343,9.439,9.239,9.37C9.673,8.882,10,8.347,10,8
		c0-0.276-0.223-0.513-0.499-0.513s-0.499,0.21-0.499,0.486c-0.031,0.15-0.244,0.441-0.504,0.729C8.24,8.419,8.03,8.138,8,8
		c0-0.276-0.224-0.5-0.5-0.5S7,7.724,7,8c0,0.347,0.327,0.882,0.761,1.37C7.658,9.438,7.563,9.491,7.495,9.5
		C7.222,9.502,7,9.726,7,10z"/>
	<path d="M14,10c0,0.276,0.224,0.5,0.5,0.5c0.288,0,0.646-0.185,1-0.449c0.354,0.263,0.712,0.449,1,0.449
		c0.276,0,0.504-0.224,0.504-0.5s-0.221-0.5-0.497-0.5c-0.068-0.008-0.164-0.061-0.268-0.13C16.673,8.882,17,8.347,17,8
		c0-0.276-0.223-0.513-0.499-0.513c-0.276,0-0.499,0.21-0.499,0.486c-0.031,0.15-0.244,0.441-0.504,0.729
		C15.24,8.419,15.03,8.138,15,8c0-0.276-0.224-0.5-0.5-0.5S14,7.724,14,8c0,0.347,0.327,0.882,0.761,1.37
		c-0.103,0.069-0.198,0.122-0.266,0.13C14.222,9.502,14,9.726,14,10z"/>
</g>
</svg>
