<?xml version="1.0" encoding="iso-8859-1"?>
<!-- Generator: Adobe Illustrator 19.0.0, SVG Export Plug-In . SVG Version: 6.00 Build 0)  -->
<svg version="1.1" id="Layer_1" xmlns="http://www.w3.org/2000/svg" xmlns:xlink="http://www.w3.org/1999/xlink" x="0px" y="0px"
	 viewBox="0 0 24 24" style="enable-background:new 0 0 24 24;" xml:space="preserve">
<path d="M17.99,0.402C17.943,0.168,17.738,0,17.5,0h-11C6.262,0,6.057,0.169,6.01,0.402l-3,15c-0.029,0.147,0.009,0.299,0.104,0.415
	C3.209,15.933,3.352,16,3.501,16h6.424c-0.363,2.52-1.005,4.778-1.445,5c-0.005,0-0.01,0.003-0.015,0.004
	c-1.362,0.02-2.464,1.131-2.464,2.496c0,0.276,0.224,0.5,0.5,0.5h12c0.276,0,0.5-0.224,0.5-0.5c0-1.368-1.105-2.48-2.47-2.497
	c-0.44-0.2-1.087-2.469-1.453-5.003h2.923v2.092c-0.581,0.207-1,0.757-1,1.408c0,0.827,0.673,1.5,1.5,1.5s1.5-0.673,1.5-1.5
	c0-0.651-0.419-1.201-1-1.408V16h1.5c0.149,0,0.29-0.067,0.385-0.183c0.095-0.116,0.133-0.268,0.104-0.415L17.99,0.402z M18.501,20
	c-0.275,0-0.5-0.224-0.5-0.5s0.225-0.5,0.5-0.5s0.5,0.224,0.5,0.5S18.776,20,18.501,20z M17.915,23H7.087
	c0.206-0.582,0.762-1,1.414-1h8C17.153,22,17.709,22.418,17.915,23z M15.327,21H9.675c0.616-1.159,1.014-3.147,1.265-5h3.122
	C14.313,17.853,14.711,19.841,15.327,21z M4.111,15l2.8-14h10.18l2.8,14H4.111z"/>
</svg>
