<?xml version="1.0" encoding="iso-8859-1"?>
<!-- Generator: Adobe Illustrator 19.0.0, SVG Export Plug-In . SVG Version: 6.00 Build 0)  -->
<svg version="1.1" id="Layer_1" xmlns="http://www.w3.org/2000/svg" xmlns:xlink="http://www.w3.org/1999/xlink" x="0px" y="0px"
	 viewBox="0 0 24 24" style="enable-background:new 0 0 24 24;" xml:space="preserve">
<g>
	<path d="M18.5,0h-13C4.122,0,3,1.122,3,2.5v19C3,22.878,4.122,24,5.5,24h13c1.378,0,2.5-1.122,2.5-2.5v-19
		C21,1.122,19.878,0,18.5,0z M20,21.5c0,0.827-0.673,1.5-1.5,1.5h-13C4.673,23,4,22.327,4,21.5v-19C4,1.673,4.673,1,5.5,1h13
		C19.327,1,20,1.673,20,2.5V21.5z"/>
	<path d="M18.5,2h-13C5.224,2,5,2.224,5,2.5v19C5,21.776,5.224,22,5.5,22h13c0.276,0,0.5-0.224,0.5-0.5v-19
		C19,2.224,18.776,2,18.5,2z M18,21H6V3h12V21z"/>
	<path d="M16.146,17.147l-2,2c-0.195,0.195-0.195,0.512,0,0.707C14.244,19.951,14.372,20,14.5,20s0.256-0.049,0.353-0.146l2-2
		c0.195-0.195,0.195-0.512,0-0.707S16.341,16.952,16.146,17.147z"/>
	<path d="M12.5,19c0.128,0,0.256-0.049,0.353-0.146l4-4c0.195-0.195,0.195-0.512,0-0.707s-0.512-0.195-0.707,0l-4,4
		c-0.195,0.195-0.195,0.512,0,0.707C12.244,18.951,12.372,19,12.5,19z"/>
	<path d="M7.5,7c0.128,0,0.256-0.049,0.353-0.146l2-2c0.195-0.195,0.195-0.512,0-0.707s-0.512-0.195-0.707,0l-2,2
		c-0.195,0.195-0.195,0.512,0,0.707C7.244,6.951,7.372,7,7.5,7z"/>
	<path d="M7.5,10c0.128,0,0.256-0.049,0.353-0.146l4-4c0.195-0.195,0.195-0.512,0-0.707s-0.512-0.195-0.707,0l-4,4
		c-0.195,0.195-0.195,0.512,0,0.707C7.244,9.951,7.372,10,7.5,10z"/>
</g>
</svg>
