<?xml version="1.0" encoding="iso-8859-1"?>
<!-- Generator: Adobe Illustrator 19.0.0, SVG Export Plug-In . SVG Version: 6.00 Build 0)  -->
<svg version="1.1" id="Layer_1" xmlns="http://www.w3.org/2000/svg" xmlns:xlink="http://www.w3.org/1999/xlink" x="0px" y="0px"
	 viewBox="0 0 24 24" style="enable-background:new 0 0 24 24;" xml:space="preserve">
<g>
	<g>
		<path d="M9.313,19.151c-0.58,0.579-0.317,1.719,0.593,2.7l-0.835,1.392c-0.142,0.237-0.065,0.544,0.172,0.686
			C9.323,23.977,9.412,24,9.5,24c0.169,0,0.335-0.086,0.429-0.242l0.75-1.25c0.469,0.311,0.945,0.487,1.356,0.487
			c0.322,0,0.606-0.1,0.814-0.31c0.604-0.604,0.3-1.82-0.707-2.828C11.133,18.849,9.917,18.547,9.313,19.151z M12.143,21.979
			c-0.067,0.068-0.462,0.013-0.952-0.324l0.238-0.397c0.142-0.237,0.065-0.544-0.172-0.686c-0.234-0.142-0.542-0.066-0.686,0.171
			l-0.118,0.197c-0.419-0.547-0.505-1.008-0.432-1.082c0.007-0.006,0.042-0.021,0.112-0.021c0.065,0,0.16,0.013,0.291,0.056
			c0.324,0.108,0.693,0.353,1.012,0.672C12.12,21.25,12.231,21.891,12.143,21.979z M23.929,23.242l-0.835-1.391
			c0.91-0.981,1.172-2.121,0.593-2.7c-0.601-0.604-1.819-0.3-2.829,0.707c-1.007,1.008-1.311,2.224-0.707,2.828
			c0.209,0.209,0.492,0.31,0.814,0.31c0.411,0,0.887-0.177,1.357-0.488l0.749,1.249C23.165,23.914,23.331,24,23.5,24
			c0.088,0,0.177-0.023,0.257-0.072C23.994,23.786,24.072,23.479,23.929,23.242z M22.547,20.939l-0.118-0.197
			c-0.142-0.237-0.451-0.312-0.686-0.171c-0.237,0.142-0.315,0.449-0.172,0.686l0.239,0.398c-0.489,0.337-0.884,0.392-0.953,0.324
			c-0.088-0.088,0.023-0.729,0.707-1.414c0.32-0.319,0.689-0.565,1.012-0.672c0.131-0.043,0.226-0.056,0.291-0.056
			c0.071,0,0.106,0.015,0.112,0.021C23.052,19.931,22.966,20.393,22.547,20.939z M5.5,0C4.673,0,4,0.673,4,1.5v21
			C4,23.327,4.673,24,5.5,24C6.327,24,7,23.327,7,22.5v-21C7,0.673,6.327,0,5.5,0z M6,22.5C6,22.776,5.775,23,5.5,23
			C5.225,23,5,22.776,5,22.5V19h1V22.5z M6,18H5v-1h1V18z M6,16H5V1.5C5,1.224,5.225,1,5.5,1C5.775,1,6,1.224,6,1.5V16z M1.5,0
			C0.673,0,0,0.673,0,1.5v21C0,23.327,0.673,24,1.5,24C2.327,24,3,23.327,3,22.5v-21C3,0.673,2.327,0,1.5,0z M2,22.5
			C2,22.776,1.775,23,1.5,23C1.225,23,1,22.776,1,22.5V19h1V22.5z M2,18H1v-1h1V18z M2,16H1V1.5C1,1.224,1.225,1,1.5,1
			C1.775,1,2,1.224,2,1.5V16z M20.5,19c0.083,0,0.166-0.02,0.243-0.063c0.241-0.135,0.328-0.439,0.194-0.68l-3.865-6.956l4.472-8.05
			l0.603,0.603c0.114,0.113,0.277,0.166,0.434,0.14c0.158-0.026,0.295-0.126,0.367-0.27l1-2c0.096-0.192,0.058-0.425-0.094-0.577
			l-1-1c-0.111-0.111-0.268-0.165-0.423-0.142c-0.155,0.021-0.292,0.115-0.368,0.252L16.5,10.271L10.937,0.257
			c-0.076-0.137-0.213-0.231-0.368-0.252c-0.155-0.022-0.311,0.032-0.423,0.142l-1,1C8.993,1.299,8.955,1.532,9.052,1.724l1,2
			c0.072,0.144,0.209,0.244,0.367,0.27c0.158,0.025,0.321-0.027,0.434-0.14l0.603-0.603l4.472,8.05l-3.865,6.956
			c-0.134,0.242-0.047,0.546,0.194,0.68C12.334,18.98,12.417,19,12.5,19c0.175,0,0.346-0.093,0.438-0.257l3.562-6.412l3.562,6.412
			C20.154,18.907,20.325,19,20.5,19z M22.615,1.323l0.276,0.276l-0.528,1.057l-0.314-0.314L22.615,1.323z M10.636,2.656
			l-0.528-1.057l0.276-0.277l0.566,1.02L10.636,2.656z"/>
	</g>
</g>
</svg>
