<?xml version="1.0" encoding="iso-8859-1"?>
<!-- Generator: Adobe Illustrator 18.0.0, SVG Export Plug-In . SVG Version: 6.00 Build 0)  -->
<!DOCTYPE svg PUBLIC "-//W3C//DTD SVG 1.1//EN" "http://www.w3.org/Graphics/SVG/1.1/DTD/svg11.dtd">
<svg version="1.1" id="Layer_1" xmlns="http://www.w3.org/2000/svg" xmlns:xlink="http://www.w3.org/1999/xlink" x="0px" y="0px"
	 viewBox="0 0 24 24" style="enable-background:new 0 0 24 24;" xml:space="preserve">
<g>
	<path d="M16.5,24h-9C7.224,24,7,23.776,7,23.5C7,23.131,6.869,23,6.5,23C5.575,23,5,22.425,5,21.5v-19C5,1.575,5.575,1,6.5,1
		C6.869,1,7,0.869,7,0.5C7,0.224,7.224,0,7.5,0h9C16.776,0,17,0.224,17,0.5C17,0.869,17.131,1,17.5,1C18.425,1,19,1.575,19,2.5v19
		c0,0.925-0.575,1.5-1.5,1.5c-0.369,0-0.5,0.131-0.5,0.5C17,23.776,16.776,24,16.5,24z M7.936,23h8.129c0.173-0.627,0.69-1,1.436-1
		c0.369,0,0.5-0.131,0.5-0.5v-19C18,2.131,17.869,2,17.5,2c-0.745,0-1.263-0.373-1.436-1H7.936C7.763,1.627,7.245,2,6.5,2
		C6.131,2,6,2.131,6,2.5v19C6,21.869,6.131,22,6.5,22C7.245,22,7.763,22.373,7.936,23z"/>
	<path d="M18.5,4h-13C5.224,4,5,3.776,5,3.5S5.224,3,5.5,3h13C18.776,3,19,3.224,19,3.5S18.776,4,18.5,4z"/>
	<path d="M18.5,21h-13C5.224,21,5,20.776,5,20.5S5.224,20,5.5,20h13c0.276,0,0.5,0.224,0.5,0.5S18.776,21,18.5,21z"/>
	<path d="M8.5,19C7.673,19,7,18.327,7,17.5S7.673,16,8.5,16s1.5,0.673,1.5,1.5S9.327,19,8.5,19z M8.5,17C8.225,17,8,17.224,8,17.5
		S8.225,18,8.5,18S9,17.776,9,17.5S8.775,17,8.5,17z"/>
	<path d="M12.5,15c-1.379,0-2.5-1.122-2.5-2.5s1.121-2.5,2.5-2.5s2.5,1.122,2.5,2.5S13.879,15,12.5,15z M12.5,11
		c-0.827,0-1.5,0.673-1.5,1.5s0.673,1.5,1.5,1.5s1.5-0.673,1.5-1.5S13.327,11,12.5,11z"/>
	<circle cx="16" cy="8" r="1"/>
	<path d="M10.5,8C9.673,8,9,7.327,9,6.5S9.673,5,10.5,5S12,5.673,12,6.5S11.327,8,10.5,8z M10.5,6C10.225,6,10,6.224,10,6.5
		S10.225,7,10.5,7S11,6.776,11,6.5S10.775,6,10.5,6z"/>
</g>
<g>
</g>
<g>
</g>
<g>
</g>
<g>
</g>
<g>
</g>
<g>
</g>
<g>
</g>
<g>
</g>
<g>
</g>
<g>
</g>
<g>
</g>
<g>
</g>
<g>
</g>
<g>
</g>
<g>
</g>
</svg>
