<?xml version="1.0" encoding="iso-8859-1"?>
<!-- Generator: Adobe Illustrator 18.0.0, SVG Export Plug-In . SVG Version: 6.00 Build 0)  -->
<!DOCTYPE svg PUBLIC "-//W3C//DTD SVG 1.1//EN" "http://www.w3.org/Graphics/SVG/1.1/DTD/svg11.dtd">
<svg version="1.1" id="Layer_1" xmlns="http://www.w3.org/2000/svg" xmlns:xlink="http://www.w3.org/1999/xlink" x="0px" y="0px"
	 viewBox="0 0 24 24" style="enable-background:new 0 0 24 24;" xml:space="preserve">
<g>
	<path d="M14.5,24h-5C8.673,24,8,23.327,8,22.5V14c0-2.896,0.802-4.93,1.509-6.725C10.041,5.926,10.5,4.761,10.5,3.5
		c0-0.425-0.18-0.531-0.2-0.542C10.105,2.885,10,2.708,10,2.5v-1C10,0.673,10.673,0,11.5,0h1C13.327,0,14,0.673,14,1.5v1
		c0,0.208-0.129,0.395-0.324,0.468c0.004,0-0.176,0.107-0.176,0.532c0,1.261,0.459,2.426,0.991,3.775C15.198,9.07,16,11.104,16,14
		v8.5C16,23.327,15.327,24,14.5,24z M11,2.237c0.254,0.228,0.5,0.632,0.5,1.263c0,1.451-0.515,2.758-1.061,4.142
		C9.765,9.354,9,11.294,9,14v8.5C9,22.776,9.225,23,9.5,23h5c0.275,0,0.5-0.224,0.5-0.5V14c0-2.706-0.765-4.646-1.439-6.358
		C13.015,6.258,12.5,4.951,12.5,3.5c0-0.631,0.246-1.036,0.5-1.263V1.5C13,1.224,12.775,1,12.5,1h-1C11.225,1,11,1.224,11,1.5V2.237
		z"/>
	<path d="M15.5,14h-7C8.224,14,8,13.776,8,13.5S8.224,13,8.5,13h7c0.276,0,0.5,0.224,0.5,0.5S15.776,14,15.5,14z"/>
	<path d="M15.5,21h-7C8.224,21,8,20.776,8,20.5S8.224,20,8.5,20h7c0.276,0,0.5,0.224,0.5,0.5S15.776,21,15.5,21z"/>
</g>
<g>
</g>
<g>
</g>
<g>
</g>
<g>
</g>
<g>
</g>
<g>
</g>
<g>
</g>
<g>
</g>
<g>
</g>
<g>
</g>
<g>
</g>
<g>
</g>
<g>
</g>
<g>
</g>
<g>
</g>
</svg>
