<?xml version="1.0" encoding="utf-8"?>
<!-- Generator: Adobe Illustrator 19.0.0, SVG Export Plug-In . SVG Version: 6.00 Build 0)  -->
<svg version="1.1" id="Layer_1" xmlns="http://www.w3.org/2000/svg" xmlns:xlink="http://www.w3.org/1999/xlink" x="0px" y="0px"
	 viewBox="0 0 30 30" style="enable-background:new 0 0 30 30;" xml:space="preserve">
<g>
	<path d="M16,8.5h-3.5v6H16c1.4,0,2.5-1.1,2.5-2.5v-1C18.5,9.6,17.4,8.5,16,8.5z"/>
	<path d="M12.5,21.5H16c1.4,0,2.5-1.1,2.5-2.5v-1c0-1.4-1.1-2.5-2.5-2.5h-3.5V21.5z"/>
	<path d="M15,0.5C7,0.5,0.5,7,0.5,15S7,29.5,15,29.5S29.5,23,29.5,15S23,0.5,15,0.5z M19.5,12c0,1.3-0.7,2.4-1.7,3
		c1,0.6,1.7,1.7,1.7,3v1c0,1.8-1.3,3.2-3,3.4V23c0,0.3-0.2,0.5-0.5,0.5s-0.5-0.2-0.5-0.5v-0.5h-1V23c0,0.3-0.2,0.5-0.5,0.5
		s-0.5-0.2-0.5-0.5v-0.5H12c-0.3,0-0.5-0.2-0.5-0.5v-7V8c0-0.3,0.2-0.5,0.5-0.5h1.5V7c0-0.3,0.2-0.5,0.5-0.5s0.5,0.2,0.5,0.5v0.5h1
		V7c0-0.3,0.2-0.5,0.5-0.5s0.5,0.2,0.5,0.5v0.6c1.7,0.2,3,1.7,3,3.4V12z"/>
</g>
</svg>
