<?xml version="1.0" encoding="iso-8859-1"?>
<!-- Generator: Adobe Illustrator 19.0.0, SVG Export Plug-In . SVG Version: 6.00 Build 0)  -->
<svg version="1.1" id="Layer_1" xmlns="http://www.w3.org/2000/svg" xmlns:xlink="http://www.w3.org/1999/xlink" x="0px" y="0px"
	 viewBox="0 0 24 24" style="enable-background:new 0 0 24 24;" xml:space="preserve">
<g>
	<g>
		<path d="M17.25,2c-1.616,0-3.107,0.815-3.99,2.181L12,6.13l-1.26-1.949C9.857,2.815,8.366,2,6.75,2C4.131,2,2,4.131,2,6.75
			c0,0.991,0.303,1.938,0.878,2.743l8.513,11.671c0.021,0.028,0.045,0.054,0.07,0.077l0.134,0.187
			c0.093,0.131,0.244,0.209,0.406,0.209c0.161,0,0.312-0.077,0.405-0.209l0.14-0.194c0.023-0.021,0.043-0.045,0.063-0.07
			l8.505-11.659C21.693,8.693,22,7.741,22,6.75C22,4.131,19.869,2,17.25,2z M20.303,8.919L12,20.302L3.688,8.907
			C3.238,8.277,3,7.531,3,6.75C3,4.683,4.683,3,6.75,3C8.025,3,9.203,3.645,9.9,4.724l1.68,2.599c0.184,0.285,0.656,0.285,0.84,0
			l1.68-2.599C14.797,3.645,15.975,3,17.25,3C19.317,3,21,4.683,21,6.75C21,7.531,20.758,8.282,20.303,8.919z M17.25,0
			C15.192,0,13.277,0.928,12,2.514C10.723,0.928,8.808,0,6.75,0C3.028,0,0,3.028,0,6.75c0,1.41,0.436,2.765,1.262,3.922
			l9.112,12.492c0.011,0.014,0.02,0.026,0.032,0.039C10.784,23.703,11.376,24,12,24s1.215-0.297,1.594-0.797
			c0.011-0.013,0.021-0.025,0.032-0.039l9.112-12.492c0.001-0.002,0.002-0.003,0.003-0.004C23.564,9.515,24,8.16,24,6.75
			C24,3.028,20.972,0,17.25,0z M21.928,10.084l-9.083,12.452c-0.012,0.014-0.023,0.027-0.033,0.042c-0.385,0.537-1.24,0.537-1.625,0
			c-0.01-0.015-0.02-0.028-0.032-0.041L2.073,10.086C1.371,9.104,1,7.95,1,6.75C1,3.579,3.579,1,6.75,1
			c1.957,0,3.763,0.986,4.83,2.638c0.184,0.285,0.656,0.285,0.84,0C13.487,1.986,15.293,1,17.25,1C20.421,1,23,3.579,23,6.75
			C23,7.949,22.63,9.103,21.928,10.084z"/>
	</g>
</g>
</svg>
