<?xml version="1.0" encoding="iso-8859-1"?>
<!-- Generator: Adobe Illustrator 19.0.0, SVG Export Plug-In . SVG Version: 6.00 Build 0)  -->
<svg version="1.1" id="Layer_1" xmlns="http://www.w3.org/2000/svg" xmlns:xlink="http://www.w3.org/1999/xlink" x="0px" y="0px"
	 viewBox="0 0 24 24" style="enable-background:new 0 0 24 24;" xml:space="preserve">
<g>
	<g>
		<path d="M9,8.489c-0.202,0-0.385,0.122-0.462,0.309C8.459,8.985,8.503,9.2,8.646,9.343l1.311,1.311L9.51,12.891
			c-0.04,0.203,0.049,0.411,0.224,0.521c0.175,0.112,0.4,0.102,0.566-0.023l1.7-1.275l1.7,1.275c0.089,0.066,0.194,0.1,0.3,0.1
			c0.092,0,0.185-0.025,0.267-0.077c0.176-0.11,0.265-0.318,0.224-0.521l-0.447-2.237l1.311-1.311
			c0.143-0.143,0.186-0.358,0.108-0.545C15.385,8.611,15.203,8.489,15,8.489H13.31l-0.862-1.724c-0.17-0.339-0.725-0.339-0.895,0
			L10.69,8.489H9z M11.446,9.213L12,8.108l0.553,1.105C12.638,9.382,12.81,9.489,13,9.489h0.793l-0.646,0.646
			c-0.118,0.119-0.17,0.288-0.137,0.452l0.243,1.217l-0.953-0.715c-0.089-0.067-0.195-0.1-0.3-0.1c-0.105,0-0.211,0.033-0.3,0.1
			l-0.953,0.715l0.243-1.217c0.032-0.164-0.019-0.334-0.137-0.452l-0.646-0.646H11C11.188,9.489,11.362,9.382,11.446,9.213z
			 M17,8.489c-0.202,0-0.385,0.122-0.462,0.309c-0.078,0.187-0.035,0.402,0.108,0.545l1.311,1.311l-0.447,2.237
			c-0.04,0.203,0.049,0.411,0.224,0.521c0.175,0.112,0.401,0.102,0.566-0.023l1.7-1.275l1.7,1.275c0.089,0.066,0.194,0.1,0.3,0.1
			c0.092,0,0.185-0.025,0.267-0.077c0.176-0.11,0.265-0.318,0.224-0.521l-0.447-2.237l1.311-1.311
			c0.143-0.143,0.186-0.358,0.108-0.545C23.385,8.611,23.203,8.489,23,8.489H21.31l-0.862-1.724c-0.17-0.339-0.725-0.339-0.895,0
			L18.69,8.489H17z M19.446,9.213L20,8.108l0.553,1.105C20.638,9.382,20.81,9.489,21,9.489h0.793l-0.646,0.646
			c-0.118,0.119-0.17,0.288-0.137,0.452l0.243,1.217l-0.953-0.715c-0.089-0.067-0.195-0.1-0.3-0.1c-0.105,0-0.211,0.033-0.3,0.1
			l-0.953,0.715l0.243-1.217c0.032-0.164-0.019-0.334-0.137-0.452l-0.646-0.646H19C19.188,9.489,19.362,9.382,19.446,9.213z
			 M13.956,4.654L13.51,6.891c-0.04,0.203,0.049,0.411,0.224,0.521c0.175,0.111,0.401,0.102,0.566-0.023L16,6.114l1.7,1.275
			c0.089,0.066,0.194,0.1,0.3,0.1c0.092,0,0.185-0.025,0.267-0.077c0.176-0.11,0.265-0.318,0.224-0.521l-0.447-2.237l1.311-1.311
			c0.143-0.143,0.186-0.358,0.108-0.545C19.385,2.611,19.203,2.489,19,2.489H17.31l-0.862-1.724c-0.17-0.339-0.725-0.339-0.895,0
			L14.69,2.489H13c-0.202,0-0.385,0.122-0.462,0.309c-0.078,0.187-0.035,0.402,0.108,0.545L13.956,4.654z M15,3.489
			c0.189,0,0.362-0.107,0.447-0.276L16,2.108l0.553,1.105C16.638,3.382,16.81,3.489,17,3.489h0.793l-0.646,0.646
			c-0.118,0.119-0.17,0.288-0.137,0.452l0.243,1.217l-0.953-0.715c-0.089-0.067-0.195-0.1-0.3-0.1c-0.105,0-0.211,0.033-0.3,0.1
			l-0.953,0.715l0.243-1.217c0.032-0.164-0.019-0.334-0.137-0.452l-0.646-0.646H15z M19,17.489c0.276,0,0.5-0.224,0.5-0.5
			s-0.224-0.5-0.5-0.5h-2c-0.276,0-0.5,0.224-0.5,0.5v4c0,0.276,0.224,0.5,0.5,0.5h2c0.276,0,0.5-0.224,0.5-0.5s-0.224-0.5-0.5-0.5
			h-1.5v-1H18c0.276,0,0.5-0.224,0.5-0.5s-0.224-0.5-0.5-0.5h-0.5v-1H19z M15.5,16.489h-3c-0.276,0-0.5,0.224-0.5,0.5
			s0.224,0.5,0.5,0.5h1v3.5c0,0.276,0.224,0.5,0.5,0.5s0.5-0.224,0.5-0.5v-3.5h1c0.276,0,0.5-0.224,0.5-0.5
			S15.776,16.489,15.5,16.489z M21,14.489H3c-1.378,0-2.5,1.122-2.5,2.5v4c0,1.378,1.122,2.5,2.5,2.5h18c1.378,0,2.5-1.122,2.5-2.5
			v-4C23.5,15.611,22.378,14.489,21,14.489z M22.5,20.989c0,0.827-0.673,1.5-1.5,1.5H3c-0.827,0-1.5-0.673-1.5-1.5v-4
			c0-0.827,0.673-1.5,1.5-1.5h18c0.827,0,1.5,0.673,1.5,1.5V20.989z M5.956,4.654L5.51,6.891c-0.04,0.203,0.049,0.411,0.224,0.521
			c0.175,0.111,0.4,0.102,0.566-0.023L8,6.114l1.7,1.275c0.089,0.066,0.194,0.1,0.3,0.1c0.092,0,0.185-0.025,0.267-0.077
			c0.176-0.11,0.265-0.318,0.224-0.521l-0.447-2.237l1.311-1.311c0.143-0.143,0.186-0.358,0.108-0.545
			C11.385,2.611,11.203,2.489,11,2.489H9.31L8.448,0.765c-0.17-0.339-0.725-0.339-0.895,0L6.69,2.489H5
			c-0.202,0-0.385,0.122-0.462,0.309C4.459,2.985,4.503,3.2,4.646,3.343L5.956,4.654z M7,3.489c0.189,0,0.362-0.107,0.447-0.276
			L8,2.108l0.553,1.105C8.638,3.382,8.81,3.489,9,3.489h0.793L9.146,4.135C9.029,4.254,8.977,4.423,9.01,4.587l0.243,1.217
			L8.299,5.089c-0.089-0.067-0.195-0.1-0.3-0.1c-0.105,0-0.211,0.033-0.3,0.1L6.746,5.804L6.99,4.587
			C7.021,4.423,6.97,4.253,6.852,4.135L6.206,3.489H7z M10,16.489c-0.827,0-1.5,0.673-1.5,1.5v2c0,0.827,0.673,1.5,1.5,1.5
			c0.827,0,1.5-0.673,1.5-1.5v-2C11.5,17.162,10.826,16.489,10,16.489z M10.5,19.989c0,0.276-0.224,0.5-0.5,0.5s-0.5-0.224-0.5-0.5
			v-2c0-0.276,0.224-0.5,0.5-0.5s0.5,0.224,0.5,0.5V19.989z M1.956,10.654L1.51,12.891c-0.04,0.203,0.049,0.411,0.224,0.521
			c0.175,0.112,0.4,0.102,0.566-0.023L4,12.114l1.7,1.275c0.089,0.066,0.194,0.1,0.3,0.1c0.092,0,0.185-0.025,0.267-0.077
			c0.176-0.11,0.265-0.318,0.224-0.521l-0.447-2.237l1.311-1.311C7.497,9.2,7.541,8.985,7.463,8.798
			C7.385,8.611,7.203,8.489,7,8.489H5.31L4.448,6.765c-0.17-0.339-0.725-0.339-0.895,0L2.69,8.489H1
			c-0.202,0-0.385,0.122-0.462,0.309C0.459,8.985,0.503,9.2,0.646,9.343L1.956,10.654z M3,9.489c0.189,0,0.362-0.107,0.447-0.276
			L4,8.108l0.553,1.105C4.638,9.382,4.81,9.489,5,9.489h0.793l-0.646,0.646c-0.118,0.119-0.17,0.288-0.137,0.452l0.243,1.217
			l-0.953-0.715c-0.089-0.067-0.195-0.1-0.3-0.1c-0.105,0-0.211,0.033-0.3,0.1l-0.953,0.715l0.243-1.217
			c0.032-0.164-0.019-0.334-0.137-0.452L2.206,9.489H3z M7.675,16.521c-0.259-0.096-0.547,0.033-0.644,0.292L6,19.565l-1.032-2.752
			c-0.097-0.258-0.384-0.387-0.644-0.292c-0.258,0.097-0.389,0.385-0.292,0.644l1.5,4C5.604,21.36,5.792,21.489,6,21.489
			c0.208,0,0.395-0.129,0.468-0.324l1.5-4C8.065,16.906,7.933,16.618,7.675,16.521z"/>
	</g>
</g>
</svg>
