<?xml version="1.0" encoding="iso-8859-1"?>
<!-- Generator: Adobe Illustrator 19.0.0, SVG Export Plug-In . SVG Version: 6.00 Build 0)  -->
<svg version="1.1" id="Layer_1" xmlns="http://www.w3.org/2000/svg" xmlns:xlink="http://www.w3.org/1999/xlink" x="0px" y="0px"
	 viewBox="0 0 24 24" style="enable-background:new 0 0 24 24;" xml:space="preserve">
<g>
	<g>
		<path d="M23.382,7.677C23.286,7.564,23.147,7.5,23,7.5h-7.5c-0.092,0-0.173,0.032-0.248,0.075C14.34,6.903,13.217,6.5,12,6.5
			S9.66,6.903,8.747,7.575C8.673,7.532,8.592,7.5,8.5,7.5H1c-0.147,0-0.286,0.064-0.382,0.177c-0.094,0.112-0.135,0.26-0.111,0.405
			l0.5,3C1.047,11.323,1.256,11.5,1.5,11.5h5.025C6.51,11.665,6.5,11.831,6.5,12s0.01,0.335,0.025,0.5H2
			c-0.147,0-0.286,0.064-0.382,0.177c-0.094,0.112-0.135,0.26-0.111,0.405l0.5,3C2.047,16.323,2.256,16.5,2.5,16.5h6.348
			c0.894,0.628,1.98,1,3.152,1s2.258-0.372,3.152-1H21.5c0.244,0,0.453-0.177,0.493-0.418l0.5-3
			c0.025-0.145-0.016-0.293-0.111-0.405C22.286,12.564,22.147,12.5,22,12.5h-4.525c0.015-0.165,0.025-0.331,0.025-0.5
			s-0.01-0.335-0.025-0.5H22.5c0.244,0,0.453-0.177,0.493-0.418l0.5-3C23.518,7.937,23.477,7.789,23.382,7.677z M1.924,10.5
			l-0.334-2h6.171c-0.479,0.579-0.837,1.259-1.048,2H1.924z M2.924,15.5l-0.334-2h4.123c0.211,0.741,0.569,1.421,1.048,2H2.924z
			 M12,16.5c-2.481,0-4.5-2.019-4.5-4.5S9.519,7.5,12,7.5s4.5,2.019,4.5,4.5S14.481,16.5,12,16.5z M21.41,13.5l-0.334,2h-4.837
			c0.479-0.579,0.837-1.259,1.048-2H21.41z M22.076,10.5h-4.789c-0.211-0.741-0.569-1.421-1.048-2h6.171L22.076,10.5z
			 M15.462,10.809C15.385,10.622,15.202,10.5,15,10.5h-1.691l-0.862-1.724c-0.17-0.339-0.725-0.339-0.895,0L10.691,10.5H9
			c-0.202,0-0.383,0.121-0.461,0.308s-0.035,0.402,0.108,0.545l1.3,1.3l-0.432,1.726c-0.047,0.189,0.021,0.389,0.173,0.511
			c0.151,0.123,0.36,0.143,0.536,0.057L12,14.059l1.776,0.888C13.848,14.982,13.924,15,14,15c0.111,0,0.223-0.038,0.313-0.109
			c0.152-0.122,0.22-0.322,0.173-0.511l-0.432-1.726l1.3-1.3C15.496,11.211,15.539,10.996,15.462,10.809z M13.147,12.147
			c-0.124,0.124-0.174,0.305-0.132,0.475l0.236,0.945l-1.027-0.514C12.153,13.018,12.076,13,12,13s-0.153,0.018-0.224,0.052
			l-1.027,0.514l0.236-0.945c0.042-0.171-0.008-0.351-0.132-0.475L10.207,11.5H11c0.189,0,0.362-0.107,0.447-0.276L12,10.119
			l0.553,1.105C12.638,11.393,12.811,11.5,13,11.5h0.793L13.147,12.147z"/>
	</g>
</g>
</svg>
