<?xml version="1.0" encoding="iso-8859-1"?>
<!-- Generator: Adobe Illustrator 19.0.0, SVG Export Plug-In . SVG Version: 6.00 Build 0)  -->
<svg version="1.1" id="Layer_1" xmlns="http://www.w3.org/2000/svg" xmlns:xlink="http://www.w3.org/1999/xlink" x="0px" y="0px"
	 viewBox="0 0 24 24" style="enable-background:new 0 0 24 24;" xml:space="preserve">
<g>
	<g>
		<path d="M0.5,10c-0.215,0-0.413-0.139-0.479-0.354c-0.08-0.264,0.068-0.543,0.333-0.624l23-7c0.267-0.081,0.544,0.069,0.624,0.333
			c0.08,0.264-0.068,0.543-0.333,0.624l-23,7C0.597,9.993,0.548,10,0.5,10z"/>
	</g>
	<g>
		<path d="M20.547,12.424C20.506,11.626,19.848,11,19.049,11H5.951c-0.799,0-1.457,0.626-1.498,1.425l-0.399,8
			c-0.021,0.415,0.125,0.809,0.411,1.109S5.137,22,5.551,22H10v-4H6.5c-0.144,0-0.28-0.062-0.375-0.169s-0.139-0.251-0.121-0.393
			l0.5-4C6.535,13.188,6.748,13,7,13h3.5h4H18c0.252,0,0.465,0.188,0.496,0.438l0.5,4c0.018,0.142-0.026,0.286-0.121,0.393
			S18.644,18,18.5,18H15v4h4.449c0.414,0,0.8-0.166,1.086-0.466s0.432-0.694,0.411-1.109L20.547,12.424z"/>
		<rect x="11" y="14" width="3" height="8"/>
	</g>
	<g>
		<path d="M8.5,12C8.224,12,8,11.777,8,11.5v-4C8,7.224,8.224,7,8.5,7S9,7.224,9,7.5v4C9,11.777,8.776,12,8.5,12z"/>
	</g>
	<g>
		<path d="M16.5,12c-0.276,0-0.5-0.224-0.5-0.5V5c0-0.276,0.224-0.5,0.5-0.5S17,4.724,17,5v6.5C17,11.777,16.776,12,16.5,12z"/>
	</g>
	
		<circle style="fill:none;stroke:#000000;stroke-linecap:round;stroke-linejoin:round;stroke-miterlimit:10;" cx="16.5" cy="5" r="0.5"/>
	<g>
		<circle cx="8.5" cy="7.5" r="1"/>
	</g>
</g>
<g>
</g>
<g>
</g>
<g>
</g>
<g>
</g>
<g>
</g>
<g>
</g>
<g>
</g>
<g>
</g>
<g>
</g>
<g>
</g>
<g>
</g>
<g>
</g>
<g>
</g>
<g>
</g>
<g>
</g>
</svg>
