<?xml version="1.0" encoding="iso-8859-1"?>
<!-- Generator: Adobe Illustrator 19.0.0, SVG Export Plug-In . SVG Version: 6.00 Build 0)  -->
<svg version="1.1" id="Layer_1" xmlns="http://www.w3.org/2000/svg" xmlns:xlink="http://www.w3.org/1999/xlink" x="0px" y="0px"
	 viewBox="0 0 24 24" style="enable-background:new 0 0 24 24;" xml:space="preserve">
<g>
	<path d="M5,18.5c-1.654,0-3-1.346-3-3s1.346-3,3-3s3,1.346,3,3S6.654,18.5,5,18.5z M5,13.5c-1.103,0-2,0.897-2,2s0.897,2,2,2
		s2-0.897,2-2S6.103,13.5,5,13.5z"/>
	<path d="M21.5,9.5h-1.757c-0.668,0-1.296-0.26-1.768-0.732l-2.242-2.242C15.071,5.864,14.192,5.5,13.257,5.5H7.5
		C6.673,5.5,6,6.173,6,7v2.5H0.5C0.224,9.5,0,9.724,0,10v5c0,0.055,0.009,0.11,0.027,0.163C0.046,15.217,0.51,16.5,2.5,16.5h0.211
		c-0.134-0.307-0.211-0.644-0.211-1C2.5,14.119,3.619,13,5,13s2.5,1.119,2.5,2.5c0,0.356-0.077,0.693-0.211,1h9.422
		c-0.134-0.307-0.211-0.644-0.211-1c0-1.381,1.119-2.5,2.5-2.5s2.5,1.119,2.5,2.5c0,0.356-0.077,0.693-0.211,1H21.5
		c1.472,0,2.5-1.028,2.5-2.5v-2C24,10.622,22.878,9.5,21.5,9.5z M12.5,12.5h-1c-0.276,0-0.5-0.224-0.5-0.5s0.224-0.5,0.5-0.5h1
		c0.276,0,0.5,0.224,0.5,0.5S12.776,12.5,12.5,12.5z M15.5,10.5h-4c-0.276,0-0.5-0.224-0.5-0.5V8c0-0.276,0.224-0.5,0.5-0.5
		S12,7.724,12,8v1.5h3.5c0.276,0,0.5,0.224,0.5,0.5S15.776,10.5,15.5,10.5z"/>
	<path d="M19,18.5c-1.654,0-3-1.346-3-3s1.346-3,3-3s3,1.346,3,3S20.654,18.5,19,18.5z M19,13.5c-1.103,0-2,0.897-2,2s0.897,2,2,2
		s2-0.897,2-2S20.103,13.5,19,13.5z"/>
</g>
<g>
</g>
<g>
</g>
<g>
</g>
<g>
</g>
<g>
</g>
<g>
</g>
<g>
</g>
<g>
</g>
<g>
</g>
<g>
</g>
<g>
</g>
<g>
</g>
<g>
</g>
<g>
</g>
<g>
</g>
</svg>
