<?xml version="1.0" encoding="iso-8859-1"?>
<!-- Generator: Adobe Illustrator 19.0.0, SVG Export Plug-In . SVG Version: 6.00 Build 0)  -->
<svg version="1.1" id="Layer_1" xmlns="http://www.w3.org/2000/svg" xmlns:xlink="http://www.w3.org/1999/xlink" x="0px" y="0px"
	 viewBox="0 0 24 24" style="enable-background:new 0 0 24 24;" xml:space="preserve">
<g>
	<g>
		<path d="M4,24c-0.115,0-0.231-0.04-0.325-0.121c-0.21-0.18-0.234-0.495-0.054-0.705l3-3.5c0.18-0.21,0.496-0.234,0.705-0.054
			c0.21,0.18,0.234,0.495,0.054,0.705l-3,3.5C4.281,23.941,4.141,24,4,24z"/>
	</g>
	<g>
		<path d="M20,24c-0.141,0-0.281-0.059-0.379-0.175l-3-3.5c-0.18-0.209-0.156-0.525,0.054-0.705s0.525-0.156,0.705,0.054l3,3.5
			c0.18,0.209,0.156,0.525-0.054,0.705C20.231,23.96,20.115,24,20,24z"/>
	</g>
	<g>
		<path d="M19,23H5c-0.276,0-0.5-0.224-0.5-0.5S4.724,22,5,22h14c0.276,0,0.5,0.224,0.5,0.5S19.276,23,19,23z"/>
	</g>
	<g>
		<circle cx="12" cy="10.5" r="1.5"/>
		<circle cx="17" cy="12.5" r="0.5"/>
		<circle cx="7" cy="12.5" r="0.5"/>
		<path d="M19.5,14.086V8.809c0-0.703-0.499-1.32-1.186-1.467l-6.209-1.331c-0.069-0.015-0.141-0.015-0.21,0L5.686,7.342
			C4.999,7.489,4.5,8.105,4.5,8.809v5.277c0,0.4,0.156,0.777,0.439,1.061l0.489,0.489l-0.902,2.707
			c-0.043,0.129-0.032,0.271,0.032,0.392c0.064,0.121,0.174,0.21,0.305,0.248l7,2C11.908,20.994,11.954,21,12,21
			s0.092-0.006,0.137-0.019l7-2c0.131-0.038,0.241-0.127,0.305-0.248c0.063-0.121,0.075-0.262,0.032-0.392l-0.902-2.707l0.489-0.489
			C19.344,14.863,19.5,14.486,19.5,14.086z M12,8c1.378,0,2.5,1.122,2.5,2.5S13.378,13,12,13s-2.5-1.122-2.5-2.5S10.622,8,12,8z
			 M5.5,12.5C5.5,11.673,6.173,11,7,11s1.5,0.673,1.5,1.5S7.827,14,7,14S5.5,13.327,5.5,12.5z M17.098,16.49l-5,1
			C12.066,17.497,12.033,17.5,12,17.5s-0.066-0.003-0.098-0.01l-5-1c-0.271-0.054-0.446-0.317-0.392-0.588
			c0.054-0.271,0.315-0.449,0.588-0.392L12,16.49l4.902-0.98c0.275-0.056,0.534,0.122,0.588,0.392
			C17.544,16.173,17.369,16.436,17.098,16.49z M17,14c-0.827,0-1.5-0.673-1.5-1.5S16.173,11,17,11s1.5,0.673,1.5,1.5
			S17.827,14,17,14z"/>
	</g>
	<g>
		<path d="M18,8c-0.276,0-0.5-0.224-0.5-0.5V4.281c0-0.23-0.156-0.429-0.379-0.485L12,2.516l-5.122,1.28
			C6.656,3.852,6.5,4.051,6.5,4.281V7.5C6.5,7.776,6.276,8,6,8S5.5,7.776,5.5,7.5V4.281c0-0.689,0.467-1.288,1.136-1.455
			l5.243-1.311c0.079-0.021,0.163-0.021,0.242,0l5.243,1.311C18.033,2.993,18.5,3.591,18.5,4.281V7.5C18.5,7.776,18.276,8,18,8z"/>
	</g>
	<g>
		<path d="M12,7c-0.276,0-0.5-0.224-0.5-0.5V2c0-0.276,0.224-0.5,0.5-0.5s0.5,0.224,0.5,0.5v4.5C12.5,6.776,12.276,7,12,7z"/>
	</g>
	<path d="M13,0h-2c-0.827,0-1.5,0.673-1.5,1.5v1C9.5,2.776,9.724,3,10,3s0.5-0.224,0.5-0.5h3C13.5,2.776,13.724,3,14,3
		s0.5-0.224,0.5-0.5v-1C14.5,0.673,13.827,0,13,0z"/>
	<g>
		<path d="M17,21H7c-0.276,0-0.5-0.224-0.5-0.5S6.724,20,7,20h10c0.276,0,0.5,0.224,0.5,0.5S17.276,21,17,21z"/>
	</g>
</g>
<g>
</g>
<g>
</g>
<g>
</g>
<g>
</g>
<g>
</g>
<g>
</g>
<g>
</g>
<g>
</g>
<g>
</g>
<g>
</g>
<g>
</g>
<g>
</g>
<g>
</g>
<g>
</g>
<g>
</g>
</svg>
