<?xml version="1.0" encoding="iso-8859-1"?>
<!-- Generator: Adobe Illustrator 19.0.0, SVG Export Plug-In . SVG Version: 6.00 Build 0)  -->
<svg version="1.1" id="Layer_1" xmlns="http://www.w3.org/2000/svg" xmlns:xlink="http://www.w3.org/1999/xlink" x="0px" y="0px"
	 viewBox="0 0 24 24" style="enable-background:new 0 0 24 24;" xml:space="preserve">
<path d="M21,9c-0.52,0-1-0.167-1-1.375V6.5C20,2.977,16.896,0,13.221,0h-7C2.732,0,0,2.855,0,6.5v11C0,21.145,2.732,24,6.221,24
	h10.438C20.844,24,24,21.071,24,17.188V12C24,9.757,23.243,9,21,9z M12.5,8h-5C7.225,8,7,7.776,7,7.5S7.225,7,7.5,7h5
	C12.775,7,13,7.224,13,7.5S12.775,8,12.5,8z M7.5,16h9c0.275,0,0.5,0.224,0.5,0.5S16.775,17,16.5,17h-9C7.225,17,7,16.776,7,16.5
	S7.225,16,7.5,16z"/>
<g>
</g>
<g>
</g>
<g>
</g>
<g>
</g>
<g>
</g>
<g>
</g>
<g>
</g>
<g>
</g>
<g>
</g>
<g>
</g>
<g>
</g>
<g>
</g>
<g>
</g>
<g>
</g>
<g>
</g>
</svg>
