<?xml version="1.0" encoding="iso-8859-1"?>
<!-- Generator: Adobe Illustrator 19.0.0, SVG Export Plug-In . SVG Version: 6.00 Build 0)  -->
<svg version="1.1" id="Layer_1" xmlns="http://www.w3.org/2000/svg" xmlns:xlink="http://www.w3.org/1999/xlink" x="0px" y="0px"
	 viewBox="0 0 24 24" style="enable-background:new 0 0 24 24;" xml:space="preserve">
<path d="M20.09,1.064l-0.142-0.286C19.772,0.423,19.379,0,18.5,0C14.963,0,6.812,5.466,6.057,14.192
	c-0.66-1.24-1.051-3.429-1.077-6.197C4.976,7.576,4.719,7.218,4.324,7.081c-0.4-0.136-0.829-0.012-1.095,0.318
	C2.56,8.236,1,10.554,1,14c0,4.816,3.442,10,11,10c8.119,0,11-6.464,11-12C23,6.92,21.318,3.536,20.09,1.064z"/>
<g>
</g>
<g>
</g>
<g>
</g>
<g>
</g>
<g>
</g>
<g>
</g>
<g>
</g>
<g>
</g>
<g>
</g>
<g>
</g>
<g>
</g>
<g>
</g>
<g>
</g>
<g>
</g>
<g>
</g>
</svg>
