<?xml version="1.0" encoding="iso-8859-1"?>
<!-- Generator: Adobe Illustrator 19.0.0, SVG Export Plug-In . SVG Version: 6.00 Build 0)  -->
<svg version="1.1" id="Layer_1" xmlns="http://www.w3.org/2000/svg" xmlns:xlink="http://www.w3.org/1999/xlink" x="0px" y="0px"
	 viewBox="0 0 24 24" style="enable-background:new 0 0 24 24;" xml:space="preserve">
<path d="M21.5,0h-19C1.122,0,0,1.122,0,2.5v19C0,22.878,1.122,24,2.5,24h11c0.276,0,0.5-0.224,0.5-0.5v-9c0-0.276-0.224-0.5-0.5-0.5
	H11v-2h2.5c0.276,0,0.5-0.224,0.5-0.5v-3C14,6.019,16.019,4,18.5,4H20v2h-1.5C17.122,6,16,7.122,16,8.5v3c0,0.276,0.224,0.5,0.5,0.5
	h3.306l-0.667,2H16.5c-0.276,0-0.5,0.224-0.5,0.5v9c0,0.276,0.224,0.5,0.5,0.5h5c1.378,0,2.5-1.122,2.5-2.5v-19
	C24,1.122,22.878,0,21.5,0z"/>
<g>
</g>
<g>
</g>
<g>
</g>
<g>
</g>
<g>
</g>
<g>
</g>
<g>
</g>
<g>
</g>
<g>
</g>
<g>
</g>
<g>
</g>
<g>
</g>
<g>
</g>
<g>
</g>
<g>
</g>
</svg>
