<?xml version="1.0" encoding="iso-8859-1"?>
<!-- Generator: Adobe Illustrator 19.0.0, SVG Export Plug-In . SVG Version: 6.00 Build 0)  -->
<svg version="1.1" id="Layer_1" xmlns="http://www.w3.org/2000/svg" xmlns:xlink="http://www.w3.org/1999/xlink" x="0px" y="0px"
	 viewBox="0 0 24 24" style="enable-background:new 0 0 24 24;" xml:space="preserve">
<path d="M22.604,3.011c-0.229-0.044-0.464,0.07-0.561,0.286L19,10.144V1.5c0-0.133-0.053-0.26-0.146-0.354l-1-1
	C17.76,0.053,17.633,0,17.5,0h-15C2.367,0,2.24,0.053,2.146,0.146l-1,1C1.053,1.24,1,1.367,1,1.5v14c0,0.133,0.053,0.26,0.146,0.354
	l1,1C2.24,16.947,2.367,17,2.5,17H15v3H2.5C2.224,20,2,20.224,2,20.5v2c0,0.133,0.053,0.26,0.146,0.354l1,1
	C3.24,23.947,3.367,24,3.5,24h14c0.133,0,0.26-0.053,0.354-0.146l1-1C18.947,22.76,19,22.633,19,22.5v-5.867l3.935-6.885
	C22.978,9.673,23,9.587,23,9.5v-6C23,3.264,22.835,3.06,22.604,3.011z M5,13V4h10v9H5z"/>
<g>
</g>
<g>
</g>
<g>
</g>
<g>
</g>
<g>
</g>
<g>
</g>
<g>
</g>
<g>
</g>
<g>
</g>
<g>
</g>
<g>
</g>
<g>
</g>
<g>
</g>
<g>
</g>
<g>
</g>
</svg>
