<?xml version="1.0" encoding="iso-8859-1"?>
<!-- Generator: Adobe Illustrator 19.0.0, SVG Export Plug-In . SVG Version: 6.00 Build 0)  -->
<svg version="1.1" id="Layer_1" xmlns="http://www.w3.org/2000/svg" xmlns:xlink="http://www.w3.org/1999/xlink" x="0px" y="0px"
	 viewBox="0 0 24 24" style="enable-background:new 0 0 24 24;" xml:space="preserve">
<g>
	<path d="M17.5,6h3C20.776,6,21,5.776,21,5.5v-3C21,2.224,20.776,2,20.5,2h-3C17.224,2,17,2.224,17,2.5v3C17,5.776,17.224,6,17.5,6z
		"/>
	<path d="M12,18c3.309,0,6-2.691,6-6s-2.691-6-6-6s-6,2.691-6,6S8.691,18,12,18z M12,10c1.103,0,2,0.897,2,2s-0.897,2-2,2
		s-2-0.897-2-2S10.897,10,12,10z"/>
	<path d="M20.5,0h-17C1.57,0,0,1.57,0,3.5v5v12C0,22.43,1.57,24,3.5,24h17c1.93,0,3.5-1.57,3.5-3.5v-12v-5C24,1.57,22.43,0,20.5,0z
		 M2,1.513V4.5C2,4.776,2.224,5,2.5,5S3,4.776,3,4.5V1.051C3.162,1.018,3.329,1,3.5,1H4v3.5C4,4.776,4.224,5,4.5,5S5,4.776,5,4.5V1
		h1v3.5C6,4.776,6.224,5,6.5,5S7,4.776,7,4.5V1h13.5C21.879,1,23,2.122,23,3.5V8h-4.372c-0.176,0-0.338,0.092-0.429,0.242
		c-0.09,0.15-0.095,0.337-0.013,0.492C18.727,9.752,19,10.851,19,12c0,3.86-3.141,7-7,7s-7-3.14-7-7
		c0-1.149,0.273-2.248,0.813-3.266c0.082-0.155,0.077-0.342-0.013-0.492C5.71,8.092,5.548,8,5.372,8H1V3.5
		C1,2.686,1.396,1.969,2,1.513z"/>
</g>
<g>
</g>
<g>
</g>
<g>
</g>
<g>
</g>
<g>
</g>
<g>
</g>
<g>
</g>
<g>
</g>
<g>
</g>
<g>
</g>
<g>
</g>
<g>
</g>
<g>
</g>
<g>
</g>
<g>
</g>
</svg>
