<?xml version="1.0" encoding="iso-8859-1"?>
<!-- Generator: Adobe Illustrator 19.0.0, SVG Export Plug-In . SVG Version: 6.00 Build 0)  -->
<svg version="1.1" id="Layer_1" xmlns="http://www.w3.org/2000/svg" xmlns:xlink="http://www.w3.org/1999/xlink" x="0px" y="0px"
	 viewBox="0 0 24 24" style="enable-background:new 0 0 24 24;" xml:space="preserve">
<g>
	<path d="M18.5,9C20.981,9,23,6.981,23,4.5S20.981,0,18.5,0S14,2.019,14,4.5S16.019,9,18.5,9z"/>
	<circle cx="10" cy="4" r="3"/>
	<circle cx="3.5" cy="4.5" r="2.5"/>
	<path d="M18.5,10c-1.86,0-3.504,0.93-4.5,2.348V12c0-2.206-1.794-4-4-4C8.561,8,7.307,8.771,6.603,9.915C6.022,8.784,4.856,8,3.5,8
		C1.57,8,0,9.57,0,11.5v5C0,16.776,0.224,17,0.5,17H6v2.5C6,19.776,6.224,20,6.5,20H13v3.5c0,0.276,0.224,0.5,0.5,0.5h10
		c0.276,0,0.5-0.224,0.5-0.5v-8C24,12.467,21.533,10,18.5,10z"/>
</g>
<g>
</g>
<g>
</g>
<g>
</g>
<g>
</g>
<g>
</g>
<g>
</g>
<g>
</g>
<g>
</g>
<g>
</g>
<g>
</g>
<g>
</g>
<g>
</g>
<g>
</g>
<g>
</g>
<g>
</g>
</svg>
