<?xml version="1.0" encoding="iso-8859-1"?>
<!-- Generator: Adobe Illustrator 19.0.0, SVG Export Plug-In . SVG Version: 6.00 Build 0)  -->
<svg version="1.1" id="Layer_1" xmlns="http://www.w3.org/2000/svg" xmlns:xlink="http://www.w3.org/1999/xlink" x="0px" y="0px"
	 viewBox="0 0 24 24" style="enable-background:new 0 0 24 24;" xml:space="preserve">
<path d="M23.369,4.855c-0.152-0.167-0.397-0.209-0.598-0.106c-0.125,0.064-0.36,0.148-0.639,0.231
	c0.352-0.468,0.635-0.992,0.76-1.463c0.054-0.203-0.025-0.417-0.197-0.538c-0.172-0.12-0.401-0.12-0.573,0
	c-0.271,0.189-1.579,0.757-2.406,0.941c-1.869-1.637-4.044-1.807-6.305-0.487c-1.838,1.073-2.238,3.255-2.16,4.585
	C7.044,7.613,4.429,5.391,2.957,3.552C2.854,3.423,2.688,3.355,2.532,3.365C2.368,3.377,2.22,3.468,2.136,3.609
	C1.44,4.784,1.247,6.083,1.58,7.366c0.182,0.7,0.5,1.317,0.869,1.817C2.272,9.096,2.101,8.987,1.94,8.857
	C1.792,8.735,1.585,8.712,1.41,8.793C1.236,8.876,1.125,9.052,1.125,9.245c0,2.203,1.378,3.673,2.665,4.441
	c-0.208-0.025-0.425-0.071-0.644-0.138c-0.188-0.057-0.392,0-0.522,0.148c-0.13,0.147-0.161,0.357-0.08,0.536
	c0.723,1.599,2.093,2.699,3.788,3.098c-1.48,0.869-3.461,1.295-5.275,1.086c-0.235-0.033-0.459,0.116-0.533,0.342
	s0.023,0.474,0.23,0.59c2.752,1.545,5.24,2.097,7.39,2.097c3.129,0,5.544-1.168,7.014-2.145c3.963-2.63,6.433-7.352,6.089-11.577
	c0.635-0.469,1.585-1.335,2.174-2.266C23.543,5.269,23.521,5.021,23.369,4.855z"/>
<g>
</g>
<g>
</g>
<g>
</g>
<g>
</g>
<g>
</g>
<g>
</g>
<g>
</g>
<g>
</g>
<g>
</g>
<g>
</g>
<g>
</g>
<g>
</g>
<g>
</g>
<g>
</g>
<g>
</g>
</svg>
