<?xml version="1.0" encoding="iso-8859-1"?>
<!-- Generator: Adobe Illustrator 19.0.0, SVG Export Plug-In . SVG Version: 6.00 Build 0)  -->
<svg version="1.1" id="Layer_1" xmlns="http://www.w3.org/2000/svg" xmlns:xlink="http://www.w3.org/1999/xlink" x="0px" y="0px"
	 viewBox="0 0 24 24" style="enable-background:new 0 0 24 24;" xml:space="preserve">
<g>
	<path d="M12,0C5.383,0,0,5.383,0,12s5.383,12,12,12s12-5.383,12-12S18.617,0,12,0z M15,6c0.579,0,1,0.631,1,1.5S15.579,9,15,9
		s-1-0.631-1-1.5S14.421,6,15,6z M9,6c0.579,0,1,0.631,1,1.5S9.579,9,9,9S8,8.369,8,7.5S8.421,6,9,6z M19.835,13.581
		C19.835,13.581,19.835,13.581,19.835,13.581C19.112,18.019,15.964,21,12,21s-7.112-2.981-7.835-7.418c0,0,0,0,0,0
		C4.056,12.914,4,12.213,4,11.5C4,11.224,4.224,11,4.5,11h15c0.276,0,0.5,0.224,0.5,0.5C20,12.213,19.944,12.914,19.835,13.581z"/>
	<path d="M12,20c3.337,0,5.931-2.334,6.737-6H5.263C6.069,17.666,8.663,20,12,20z"/>
</g>
<g>
</g>
<g>
</g>
<g>
</g>
<g>
</g>
<g>
</g>
<g>
</g>
<g>
</g>
<g>
</g>
<g>
</g>
<g>
</g>
<g>
</g>
<g>
</g>
<g>
</g>
<g>
</g>
<g>
</g>
</svg>
