<?xml version="1.0" encoding="iso-8859-1"?>
<!-- Generator: Adobe Illustrator 19.0.0, SVG Export Plug-In . SVG Version: 6.00 Build 0)  -->
<svg version="1.1" id="Layer_1" xmlns="http://www.w3.org/2000/svg" xmlns:xlink="http://www.w3.org/1999/xlink" x="0px" y="0px"
	 viewBox="0 0 24 24" style="enable-background:new 0 0 24 24;" xml:space="preserve">
<path d="M21.449,3.288c-0.005-0.011-0.014-0.019-0.02-0.03c-0.037-0.066-0.088-0.119-0.149-0.162
	c-0.01-0.007-0.013-0.019-0.023-0.025l-5-3C16.18,0.025,16.091,0,16,0H8C7.91,0,7.821,0.025,7.743,0.072l-5,3
	C2.733,3.078,2.73,3.09,2.72,3.096c-0.061,0.043-0.111,0.095-0.148,0.16C2.566,3.268,2.556,3.276,2.55,3.289
	C2.52,3.353,2.5,3.424,2.5,3.5v17c0,0.215,0.138,0.406,0.342,0.474l9,3C11.893,23.99,11.947,24,12,24s0.107-0.009,0.158-0.026l9-3
	c0.204-0.068,0.342-0.259,0.342-0.474v-17C21.5,3.423,21.48,3.353,21.449,3.288z M8.139,1h7.723l3.949,2.37L12,5.974L4.189,3.37
	L8.139,1z M3.5,4.193l8,2.667v15.946l-8-2.666V4.193z M12.5,22.806V6.859l8-2.667V20.14L12.5,22.806z"/>
</svg>
