<?xml version="1.0" encoding="iso-8859-1"?>
<!-- Generator: Adobe Illustrator 19.0.0, SVG Export Plug-In . SVG Version: 6.00 Build 0)  -->
<svg version="1.1" id="Layer_1" xmlns="http://www.w3.org/2000/svg" xmlns:xlink="http://www.w3.org/1999/xlink" x="0px" y="0px"
	 viewBox="0 0 24 24" style="enable-background:new 0 0 24 24;" xml:space="preserve">
<path d="M12,0C5.383,0,0,5.383,0,12s5.383,12,12,12s12-5.383,12-12S18.617,0,12,0z M12,23c-0.578,0-1.617-2.82-1.915-8.041
	C10.772,14.986,11.424,15,12,15s1.228-0.014,1.915-0.041C13.617,20.18,12.578,23,12,23z M12,14c-0.687,0-1.335-0.016-1.961-0.039
	C10.016,13.335,10,12.687,10,12s0.016-1.335,0.039-1.961C10.665,10.016,11.313,10,12,10s1.335,0.016,1.961,0.039
	C13.984,10.665,14,11.313,14,12s-0.016,1.335-0.039,1.961C13.335,13.984,12.687,14,12,14z M9.041,13.915C3.82,13.617,1,12.578,1,12
	s2.82-1.617,8.041-1.915C9.014,10.772,9,11.424,9,12S9.014,13.228,9.041,13.915z M12,1c0.578,0,1.617,2.82,1.915,8.041
	C13.228,9.014,12.576,9,12,9s-1.228,0.014-1.915,0.041C10.383,3.82,11.422,1,12,1z M14.959,10.085C20.18,10.383,23,11.422,23,12
	s-2.82,1.617-8.041,1.915C14.986,13.228,15,12.576,15,12S14.986,10.772,14.959,10.085z M22.908,10.645
	C21.22,9.713,17.857,9.262,14.91,9.09c-0.172-2.946-0.623-6.309-1.555-7.998C18.337,1.708,22.292,5.663,22.908,10.645z
	 M10.645,1.092C9.713,2.781,9.262,6.144,9.09,9.09c-2.946,0.172-6.309,0.623-7.998,1.555C1.708,5.663,5.663,1.708,10.645,1.092z
	 M1.092,13.355c1.688,0.932,5.051,1.383,7.998,1.555c0.172,2.946,0.623,6.309,1.555,7.998C5.663,22.292,1.708,18.337,1.092,13.355z
	 M13.355,22.908c0.932-1.688,1.383-5.051,1.555-7.998c2.946-0.172,6.309-0.623,7.998-1.555
	C22.292,18.337,18.337,22.292,13.355,22.908z"/>
</svg>
