<?xml version="1.0" encoding="iso-8859-1"?>
<!-- Generator: Adobe Illustrator 19.0.0, SVG Export Plug-In . SVG Version: 6.00 Build 0)  -->
<svg version="1.1" id="Layer_1" xmlns="http://www.w3.org/2000/svg" xmlns:xlink="http://www.w3.org/1999/xlink" x="0px" y="0px"
	 viewBox="0 0 30 30" style="enable-background:new 0 0 30 30;" xml:space="preserve">
<g>
	<g>
		<path d="M24,0H13.714C9.185,0,5.5,3.618,5.5,8.065C5.5,12.44,9.282,16,13.929,16H15.5v13H14c-0.276,0-0.5,0.224-0.5,0.5
			S13.724,30,14,30h8c0.276,0,0.5-0.224,0.5-0.5S22.276,29,22,29h-1.5V1H24c0.276,0,0.5-0.224,0.5-0.5S24.276,0,24,0z M15.5,15
			h-1.571C9.832,15,6.5,11.889,6.5,8.065C6.5,4.169,9.736,1,13.714,1H15.5V15z M19.5,29h-3V1h3V29z"/>
	</g>
</g>
</svg>
