<?xml version="1.0" encoding="iso-8859-1"?>
<!-- Generator: Adobe Illustrator 19.0.0, SVG Export Plug-In . SVG Version: 6.00 Build 0)  -->
<svg version="1.1" id="Layer_1" xmlns="http://www.w3.org/2000/svg" xmlns:xlink="http://www.w3.org/1999/xlink" x="0px" y="0px"
	 viewBox="0 0 30 30" style="enable-background:new 0 0 30 30;" xml:space="preserve">
<g>
	<g>
		<path d="M25,29H5c-0.276,0-0.5,0.224-0.5,0.5S4.724,30,5,30h20c0.276,0,0.5-0.224,0.5-0.5S25.276,29,25,29z M5,1h1.5v18.786
			C6.5,24.315,10.313,28,15,28s8.5-3.685,8.5-8.214V1H25c0.276,0,0.5-0.224,0.5-0.5S25.276,0,25,0h-4c-0.276,0-0.5,0.224-0.5,0.5
			S20.724,1,21,1h1.5v18.786C22.5,23.764,19.136,27,15,27s-7.5-3.236-7.5-7.214V1H9c0.276,0,0.5-0.224,0.5-0.5S9.276,0,9,0H5
			C4.724,0,4.5,0.224,4.5,0.5S4.724,1,5,1z"/>
	</g>
</g>
</svg>
