<?xml version="1.0" encoding="iso-8859-1"?>
<!-- Generator: Adobe Illustrator 19.0.0, SVG Export Plug-In . SVG Version: 6.00 Build 0)  -->
<svg version="1.1" id="Layer_1" xmlns="http://www.w3.org/2000/svg" xmlns:xlink="http://www.w3.org/1999/xlink" x="0px" y="0px"
	 viewBox="0 0 24 24" style="enable-background:new 0 0 24 24;" xml:space="preserve">
<g>
	<g>
		<path d="M23.5,24h-23C0.224,24,0,23.776,0,23.5v-0.734c0-2.764,1.754-5.231,4.365-6.139l2.572-0.895
			c0.188-0.065,0.397-0.013,0.533,0.134C8.731,17.242,10.34,18,12,18s3.269-0.758,4.53-2.134c0.136-0.147,0.344-0.199,0.533-0.134
			l2.572,0.895l0,0C22.246,17.534,24,20.001,24,22.766V23.5C24,23.776,23.776,24,23.5,24z M1,23h22v-0.234
			c0-2.339-1.484-4.427-3.693-5.195l-2.268-0.789C15.621,18.215,13.843,19,12,19s-3.621-0.785-5.039-2.218l-2.268,0.789
			C2.484,18.339,1,20.427,1,22.766V23z"/>
	</g>
	<g>
		<path d="M10.5,10h-1C9.224,10,9,9.776,9,9.5S9.224,9,9.5,9h1C10.776,9,11,9.224,11,9.5S10.776,10,10.5,10z"/>
	</g>
	<g>
		<path d="M14.5,10h-1C13.224,10,13,9.776,13,9.5S13.224,9,13.5,9h1C14.776,9,15,9.224,15,9.5S14.776,10,14.5,10z"/>
	</g>
	<g>
		<path d="M12,17c-2.464,0-4.653-1.99-5.562-5.002C5.614,11.948,5,10.891,5,9.5c0-1.133,0.407-2.044,1.003-2.37
			C6.001,7.087,6,7.043,6,7c0-2.792,1.898-5.19,4.615-5.833c0.266-0.064,0.538,0.103,0.602,0.371
			c0.064,0.269-0.103,0.538-0.371,0.602C8.582,2.676,7,4.674,7,7c0,0.113,0.014,0.222,0.026,0.332L7.04,7.457
			c0.016,0.149-0.037,0.298-0.143,0.405C6.791,7.967,6.64,8.017,6.493,8.006c-0.004,0-0.01-0.001-0.015-0.002
			C6.337,8.058,6,8.583,6,9.5C6,10.468,6.375,11,6.5,11c0.137-0.085,0.32-0.11,0.467-0.049c0.148,0.061,0.273,0.176,0.312,0.331
			C7.979,14.104,9.876,16,12,16s4.021-1.896,4.721-4.718c0.039-0.155,0.149-0.282,0.296-0.342c0.149-0.061,0.315-0.046,0.452,0.038
			C17.633,11,18,10.468,18,9.5c0-0.917-0.337-1.442-0.478-1.496c-0.005,0.001-0.011,0.001-0.015,0.002
			c-0.148,0.012-0.297-0.038-0.404-0.145c-0.106-0.106-0.158-0.255-0.143-0.405l0.014-0.125C16.986,7.222,17,7.113,17,7
			c0-2.326-1.582-4.324-3.846-4.86c-0.269-0.063-0.435-0.333-0.371-0.602c0.063-0.269,0.333-0.436,0.602-0.371
			C16.102,1.81,18,4.208,18,7c0,0.053-0.002,0.106-0.005,0.159C18.612,7.499,19,8.394,19,9.5c0,1.391-0.614,2.448-1.438,2.498
			C16.653,15.01,14.464,17,12,17z"/>
	</g>
	<g>
		<path d="M12.5,6h-1c-0.238,0-0.443-0.168-0.49-0.402l-1-5c-0.029-0.147,0.009-0.299,0.104-0.415C10.208,0.067,10.35,0,10.5,0h3
			c0.15,0,0.292,0.067,0.387,0.183c0.095,0.116,0.133,0.268,0.104,0.415l-1,5C12.943,5.832,12.738,6,12.5,6z M11.91,5h0.181l0.8-4
			h-1.78L11.91,5z"/>
	</g>
</g>
<g>
</g>
<g>
</g>
<g>
</g>
<g>
</g>
<g>
</g>
<g>
</g>
<g>
</g>
<g>
</g>
<g>
</g>
<g>
</g>
<g>
</g>
<g>
</g>
<g>
</g>
<g>
</g>
<g>
</g>
</svg>
