<?xml version="1.0" encoding="iso-8859-1"?>
<!-- Generator: Adobe Illustrator 19.0.0, SVG Export Plug-In . SVG Version: 6.00 Build 0)  -->
<svg version="1.1" id="Layer_1" xmlns="http://www.w3.org/2000/svg" xmlns:xlink="http://www.w3.org/1999/xlink" x="0px" y="0px"
	 viewBox="0 0 24 24" style="enable-background:new 0 0 24 24;" xml:space="preserve">
<g>
	<g>
		<g>
			<path d="M16.848,9.15c-0.082,0-0.165-0.02-0.241-0.062c-0.242-0.133-0.33-0.437-0.197-0.679C16.814,7.673,17.028,6.84,17.028,6
				c0-2.757-2.243-5-5-5s-5,2.243-5,5c0,0.84,0.214,1.673,0.619,2.409C7.78,8.651,7.692,8.955,7.45,9.088
				c-0.24,0.131-0.545,0.046-0.68-0.197C6.285,8.008,6.028,7.008,6.028,6c0-3.309,2.691-6,6-6s6,2.691,6,6
				c0,1.008-0.257,2.008-0.742,2.891C17.194,9.057,17.023,9.15,16.848,9.15z"/>
		</g>
		<g>
			<path d="M12.028,14c-3.013,0-3.294-1.795-3.414-2.562C8.599,11.34,8.59,11.257,8.57,11.199c-0.043-0.027-0.361-0.172-0.572-0.268
				c-0.655-0.297-1.47-0.667-1.47-1.432c0-0.487,0.161-0.911,0.303-1.286C6.933,7.947,7.028,7.694,7.028,7.5
				c0-0.276,0.224-0.5,0.5-0.5s0.5,0.224,0.5,0.5c0,0.377-0.133,0.729-0.263,1.069C7.644,8.892,7.528,9.196,7.528,9.5
				c0.054,0.145,0.614,0.399,0.883,0.521c0.488,0.222,0.909,0.413,1.072,0.772c0.064,0.141,0.09,0.303,0.119,0.49
				C9.716,12.008,9.871,13,12.028,13s2.313-0.992,2.426-1.717c0.029-0.187,0.055-0.349,0.119-0.49
				c0.163-0.359,0.584-0.551,1.072-0.772c0.269-0.122,0.829-0.376,0.885-0.531c-0.002-0.293-0.117-0.598-0.239-0.921
				c-0.13-0.34-0.263-0.691-0.263-1.069c0-0.276,0.224-0.5,0.5-0.5s0.5,0.224,0.5,0.5c0,0.194,0.096,0.447,0.197,0.714
				c0.142,0.375,0.303,0.799,0.303,1.286c0,0.764-0.814,1.134-1.47,1.432c-0.211,0.096-0.529,0.24-0.601,0.317
				c0.009,0.008,0,0.091-0.016,0.189C15.322,12.205,15.041,14,12.028,14z"/>
		</g>
		<g>
			<path d="M11.529,12c-0.026,0-0.052-0.002-0.078-0.006c-0.272-0.043-0.46-0.298-0.417-0.571C11.312,9.648,11.678,9.5,12.028,9.5
				s0.717,0.148,0.994,1.923c0.043,0.273-0.145,0.528-0.417,0.571c-0.269,0.04-0.528-0.144-0.571-0.417
				c-0.002-0.012-0.004-0.025-0.006-0.038c-0.002,0.013-0.004,0.025-0.006,0.038C11.983,11.824,11.771,12,11.529,12z"/>
		</g>
		<g>
			<path d="M10.028,10c-0.925,0-1.5-0.575-1.5-1.5c0-0.61,0.255-1.234,0.666-1.629C9.452,6.624,9.762,6.498,10.036,6.5
				c0.379,0,1.492,0.01,1.492,1.5C11.528,9.065,10.827,10,10.028,10z M10.019,7.5c-0.127,0.034-0.49,0.427-0.49,1
				c0,0.378,0.121,0.5,0.5,0.5c0.129-0.004,0.5-0.402,0.5-1c0-0.486-0.071-0.5-0.5-0.5C10.025,7.5,10.021,7.5,10.019,7.5z"/>
		</g>
		<g>
			<path d="M14.028,10c-0.799,0-1.5-0.935-1.5-2c0-1.521,1.143-1.495,1.516-1.5c0.279,0,0.568,0.131,0.818,0.372
				c0.411,0.395,0.666,1.019,0.666,1.629C15.528,9.425,14.953,10,14.028,10z M14.034,7.499C13.627,7.515,13.528,7.506,13.528,8
				c0,0.598,0.371,0.996,0.5,1c0.379,0,0.5-0.122,0.5-0.5C14.528,7.921,14.157,7.525,14.034,7.499z"/>
		</g>
		<g>
			<path d="M12.028,16c-2.817,0-4.5-2.056-4.5-5.5c0-0.276,0.224-0.5,0.5-0.5s0.5,0.224,0.5,0.5c0,1.681,0.455,4.5,3.5,4.5
				c0.276,0,0.5,0.224,0.5,0.5S12.305,16,12.028,16z"/>
		</g>
		<g>
			<path d="M12.028,16c-0.276,0-0.5-0.224-0.5-0.5s0.224-0.5,0.5-0.5c3.045,0,3.5-2.819,3.5-4.5c0-0.276,0.224-0.5,0.5-0.5
				s0.5,0.224,0.5,0.5C16.528,13.944,14.846,16,12.028,16z"/>
		</g>
		<g>
			<path d="M6.015,20.5c-1.007,0-2.363-1.901-2.904-2.726c-0.088-0.134-0.106-0.301-0.05-0.45c0.056-0.149,0.18-0.263,0.334-0.306
				c0.613-0.17,2.331-0.676,2.91-0.965c0.261-0.13,0.549-0.096,0.758,0.088c0.635,0.559,0.281,2.534,0.026,3.264
				c-0.246,0.704-0.595,1.072-1.036,1.094C6.04,20.5,6.027,20.5,6.015,20.5z M4.336,17.788c0.632,0.863,1.313,1.584,1.619,1.698
				c0.298-0.342,0.521-1.747,0.461-2.39C5.829,17.333,4.944,17.607,4.336,17.788z"/>
		</g>
		<g>
			<path d="M2.528,24h-1c-0.26,0-0.477-0.199-0.498-0.458c-0.063-0.752-0.214-5.037,0.645-5.896
				c0.131-0.131,0.324-0.179,0.502-0.124c0.177,0.055,0.31,0.204,0.343,0.386c0.073,0.39,0.897,1.48,1.179,1.622
				c0.139,0.042,0.266,0.154,0.337,0.306c0.168,0.359-0.006,0.819-0.416,1.824C3.37,22.272,3.028,23.109,3.028,23.5
				C3.028,23.776,2.805,24,2.528,24z M1.995,23H2.09c0.113-0.514,0.361-1.123,0.604-1.717c0.131-0.322,0.3-0.736,0.371-0.979
				c-0.301-0.223-0.643-0.61-0.928-1.018C2,20.228,1.926,21.699,1.995,23z"/>
		</g>
		<g>
			<path d="M8.47,22.542c-1.015,0-2.338-0.299-2.792-0.899c-0.199-0.262-0.235-0.575-0.101-0.857
				c0.118-0.25,0.418-0.353,0.666-0.237c0.208,0.099,0.315,0.322,0.277,0.538c0.298,0.248,1.535,0.575,2.423,0.421
				c1.599-0.276,2.229-0.859,2.236-0.866c0.197-0.187,0.515-0.184,0.704,0.012c0.191,0.196,0.191,0.507-0.002,0.7
				c-0.082,0.082-0.854,0.809-2.769,1.139C8.926,22.525,8.706,22.542,8.47,22.542z"/>
		</g>
		<g>
			<path d="M8.528,24c-1.467,0-3.156-0.283-3.5-1.077c-0.115-0.267-0.064-0.553,0.136-0.766c0.19-0.201,0.507-0.21,0.707-0.021
				c0.121,0.114,0.173,0.275,0.153,0.429C6.282,22.717,7.036,23,8.528,23c2.023,0,2.721-0.415,2.728-0.419
				c0.23-0.143,0.538-0.079,0.687,0.149c0.148,0.228,0.093,0.528-0.132,0.682C11.724,23.473,10.886,24,8.528,24z"/>
		</g>
		<g>
			<path d="M7.851,20.546c-0.894,0-1.349-0.152-1.745-0.779c-0.147-0.233-0.077-0.542,0.156-0.69
				c0.229-0.147,0.54-0.078,0.689,0.156c0.205,0.325,0.302,0.363,2.051,0.268c1.072-0.058,2.359-0.472,2.372-0.476
				c0.262-0.085,0.546,0.06,0.63,0.321c0.085,0.263-0.059,0.545-0.321,0.63c-0.057,0.019-1.422,0.459-2.628,0.524
				C8.579,20.525,8.185,20.546,7.851,20.546z"/>
		</g>
		<g>
			<path d="M17.985,20.5c-0.013,0-0.025,0-0.038-0.001c-0.441-0.022-0.79-0.39-1.036-1.094c-0.255-0.73-0.608-2.706,0.026-3.264
				c0.209-0.183,0.498-0.218,0.758-0.088c0.58,0.29,2.297,0.795,2.91,0.965c0.154,0.043,0.278,0.157,0.334,0.306
				c0.057,0.149,0.038,0.316-0.05,0.45C20.349,18.6,18.992,20.5,17.985,20.5z M17.584,17.096c-0.061,0.643,0.163,2.047,0.461,2.39
				c0.307-0.114,0.987-0.835,1.619-1.698C19.056,17.607,18.171,17.333,17.584,17.096z"/>
		</g>
		<g>
			<path d="M22.472,24h-1c-0.276,0-0.5-0.224-0.5-0.5c0-0.391-0.342-1.228-0.591-1.839c-0.41-1.005-0.584-1.465-0.416-1.824
				c0.06-0.126,0.223-0.271,0.356-0.313c0.262-0.134,1.086-1.225,1.159-1.615c0.033-0.183,0.166-0.331,0.343-0.386
				c0.177-0.056,0.37-0.008,0.502,0.124c0.858,0.859,0.708,5.143,0.645,5.896C22.948,23.801,22.731,24,22.472,24z M21.91,23h0.095
				c0.069-1.3-0.005-2.769-0.143-3.712c-0.285,0.407-0.627,0.793-0.927,1.016c0.071,0.244,0.24,0.658,0.371,0.979
				C21.549,21.877,21.797,22.486,21.91,23z"/>
		</g>
		<g>
			<path d="M15.53,22.542c-0.236,0-0.456-0.017-0.644-0.049c-1.914-0.33-2.687-1.057-2.769-1.139c-0.195-0.195-0.195-0.512,0-0.707
				s0.512-0.195,0.707,0c0.002,0.001,0.633,0.585,2.231,0.861c0.89,0.154,2.125-0.173,2.423-0.421
				c-0.038-0.216,0.069-0.439,0.277-0.538c0.248-0.117,0.548-0.013,0.666,0.237c0.135,0.283,0.099,0.595-0.101,0.857
				C17.868,22.243,16.545,22.542,15.53,22.542z"/>
		</g>
		<g>
			<path d="M15.472,24c-2.357,0-3.195-0.527-3.282-0.587c-0.229-0.156-0.286-0.467-0.13-0.695c0.156-0.228,0.469-0.285,0.694-0.13
				l0,0c0.001,0,0.7,0.413,2.718,0.413c1.492,0,2.246-0.283,2.504-0.435c-0.02-0.154,0.032-0.315,0.153-0.429
				c0.201-0.189,0.517-0.18,0.707,0.021c0.2,0.213,0.251,0.5,0.136,0.766C18.628,23.717,16.938,24,15.472,24z"/>
		</g>
		<g>
			<path d="M16.149,20.546c-0.334,0-0.729-0.021-1.204-0.046c-1.206-0.065-2.571-0.505-2.628-0.524
				c-0.263-0.085-0.406-0.368-0.321-0.63c0.085-0.261,0.369-0.406,0.63-0.321c0.013,0.004,1.3,0.418,2.372,0.476
				c1.749,0.095,1.846,0.058,2.051-0.268c0.149-0.233,0.461-0.302,0.689-0.156c0.233,0.147,0.304,0.457,0.156,0.69
				C17.498,20.394,17.043,20.546,16.149,20.546z"/>
		</g>
		<g>
			<path d="M7.028,18c-0.128,0-0.256-0.049-0.354-0.146c-0.195-0.195-0.195-0.512,0-0.707c0.801-0.8,1.651-1.105,1.688-1.118
				C8.624,15.937,8.908,16.074,9,16.334c0.092,0.261-0.045,0.546-0.306,0.638c-0.005,0.002-0.68,0.25-1.313,0.882
				C7.284,17.951,7.156,18,7.028,18z"/>
		</g>
		<g>
			<path d="M17.028,18c-0.128,0-0.256-0.049-0.354-0.146c-0.633-0.632-1.308-0.88-1.314-0.882c-0.259-0.094-0.395-0.379-0.302-0.639
				c0.092-0.26,0.38-0.394,0.636-0.304c0.036,0.013,0.887,0.318,1.688,1.118c0.195,0.195,0.195,0.512,0,0.707
				C17.284,17.951,17.156,18,17.028,18z"/>
		</g>
	</g>
	<g>
		<path d="M12.028,24c-0.241,0-0.448-0.173-0.492-0.411l-1-5.5c-0.023-0.13,0.005-0.264,0.08-0.373C10.8,17.451,11.303,17,12.028,17
			s1.229,0.451,1.412,0.717c0.075,0.109,0.104,0.243,0.08,0.373l-1,5.5C12.477,23.827,12.27,24,12.028,24z M11.565,18.161
			l0.463,2.544l0.463-2.543C12.392,18.084,12.235,18,12.028,18S11.665,18.084,11.565,18.161z"/>
	</g>
</g>
<g>
</g>
<g>
</g>
<g>
</g>
<g>
</g>
<g>
</g>
<g>
</g>
<g>
</g>
<g>
</g>
<g>
</g>
<g>
</g>
<g>
</g>
<g>
</g>
<g>
</g>
<g>
</g>
<g>
</g>
</svg>
