<?xml version="1.0" encoding="utf-8"?>
<!-- Generator: Adobe Illustrator 19.0.0, SVG Export Plug-In . SVG Version: 6.00 Build 0)  -->
<svg version="1.1" id="Layer_1" xmlns="http://www.w3.org/2000/svg" xmlns:xlink="http://www.w3.org/1999/xlink" x="0px" y="0px"
	 viewBox="0 0 30 30" style="enable-background:new 0 0 30 30;" xml:space="preserve">
<g id="XMLID_117_">
	<g id="XMLID_118_">
		<path id="XMLID_303_" d="M4.5,11c0,0.3,0.2,0.5,0.5,0.5s0.5-0.2,0.5-0.5V7.5h1C6.8,7.5,7,7.3,7,7S6.8,6.5,6.5,6.5h-1V1
			c0-0.2-0.1-0.4-0.4-0.5c-0.2-0.1-0.4,0-0.6,0.2l-4,6c-0.1,0.2-0.1,0.4,0,0.5S0.8,7.5,1,7.5h3.5V11z M1.9,6.5l2.6-3.8v3.8H1.9z"/>
	</g>
	<g id="XMLID_121_">
		<path id="XMLID_258_" d="M14.5,8.5V7c0-0.3-0.2-0.5-0.5-0.5h-2.5C11.2,6.5,11,6.7,11,7s0.2,0.5,0.5,0.5h2v1c0,1.1-0.9,2-2,2
			s-2-0.9-2-2v-5c0-1.1,0.9-2,2-2s2,0.9,2,2C13.5,3.8,13.7,4,14,4s0.5-0.2,0.5-0.5c0-1.7-1.3-3-3-3s-3,1.3-3,3v5c0,1.7,1.3,3,3,3
			S14.5,10.2,14.5,8.5z"/>
	</g>
	<g id="XMLID_122_">
		<path id="XMLID_257_" d="M14,15.5c-0.4,0-0.8,0.2-1.1,0.5l-2.4,2.9c-0.7,0.7-1,1.5-1,2.5V28c0,0.8,0.7,1.5,1.5,1.5h3
			c0.8,0,1.5-0.7,1.5-1.5V17C15.5,16.2,14.8,15.5,14,15.5z"/>
	</g>
	<g id="XMLID_123_">
		<path id="XMLID_256_" d="M6,23.5c-0.4,0-0.8,0.2-1,0.4l-3,3c-0.4,0.4-0.6,1.1-0.3,1.6s0.8,0.9,1.4,0.9h3c0.8,0,1.5-0.7,1.5-1.5v-3
			C7.5,24.2,6.8,23.5,6,23.5z"/>
	</g>
	<g id="XMLID_124_">
		<path id="XMLID_255_" d="M28,0.5c-0.4,0-0.8,0.2-1.1,0.5l-2.3,2.7c-0.7,0.7-1.1,1.7-1.1,2.6V28c0,0.8,0.7,1.5,1.5,1.5h3
			c0.8,0,1.5-0.7,1.5-1.5V2C29.5,1.2,28.8,0.5,28,0.5z"/>
	</g>
	<g id="XMLID_125_">
		<path id="XMLID_254_" d="M21,8.5c-0.4,0-0.8,0.2-1,0.4l-2.4,2.4c-0.7,0.7-1,1.5-1,2.5V28c0,0.8,0.7,1.5,1.5,1.5h3
			c0.8,0,1.5-0.7,1.5-1.5V10C22.5,9.2,21.8,8.5,21,8.5z"/>
	</g>
</g>
</svg>
