<?xml version="1.0" encoding="utf-8"?>
<!-- Generator: Adobe Illustrator 19.0.0, SVG Export Plug-In . SVG Version: 6.00 Build 0)  -->
<svg version="1.1" id="Layer_1" xmlns="http://www.w3.org/2000/svg" xmlns:xlink="http://www.w3.org/1999/xlink" x="0px" y="0px"
	 viewBox="0 0 30 30" style="enable-background:new 0 0 30 30;" xml:space="preserve">
<g id="XMLID_20_">
	<g id="XMLID_21_">
		<rect id="XMLID_288_" x="7" y="18" width="5" height="3"/>
	</g>
	<g id="XMLID_22_">
		<rect id="XMLID_287_" x="18" y="18" width="5" height="3"/>
	</g>
	<g id="XMLID_23_">
		<rect id="XMLID_286_" x="18" y="14" width="5" height="3"/>
	</g>
	<g id="XMLID_24_">
		<rect id="XMLID_285_" x="13" y="18" width="4" height="3"/>
	</g>
	<g id="XMLID_25_">
		<rect id="XMLID_284_" x="13" y="26" width="4" height="4"/>
	</g>
	<g id="XMLID_26_">
		<rect id="XMLID_283_" x="13" y="22" width="4" height="3"/>
	</g>
	<g id="XMLID_27_">
		<rect id="XMLID_282_" x="13" y="14" width="4" height="3"/>
	</g>
	<g id="XMLID_28_">
		<rect id="XMLID_281_" x="7" y="14" width="5" height="3"/>
	</g>
	<g id="XMLID_29_">
		<path id="XMLID_280_" d="M12,26H7v1.5C7,28.9,8.1,30,9.5,30H12V26z"/>
	</g>
	<g id="XMLID_30_">
		<path id="XMLID_279_" d="M18,26v4h2.5c1.4,0,2.5-1.1,2.5-2.5V26H18z"/>
	</g>
	<g id="XMLID_31_">
		<path id="XMLID_297_" d="M20.5,0h-11C8.1,0,7,1.1,7,2.5V13h16V2.5C23,1.1,21.9,0,20.5,0z M21,10.5c0,0.3-0.2,0.5-0.5,0.5h-11
			C9.2,11,9,10.8,9,10.5v-8C9,2.2,9.2,2,9.5,2h11C20.8,2,21,2.2,21,2.5V10.5z"/>
	</g>
	<g id="XMLID_34_">
		<rect id="XMLID_278_" x="7" y="22" width="5" height="3"/>
	</g>
	<g id="XMLID_35_">
		<rect id="XMLID_277_" x="18" y="22" width="5" height="3"/>
	</g>
</g>
</svg>
