<?xml version="1.0" encoding="iso-8859-1"?>
<!-- Generator: Adobe Illustrator 19.0.0, SVG Export Plug-In . SVG Version: 6.00 Build 0)  -->
<svg version="1.1" id="Layer_1" xmlns="http://www.w3.org/2000/svg" xmlns:xlink="http://www.w3.org/1999/xlink" x="0px" y="0px"
	 viewBox="0 0 24 24" style="enable-background:new 0 0 24 24;" xml:space="preserve">
<g>
	<g>
		<path d="M12,23.494c-2.945,0-5.89-1.121-8.132-3.363c-4.484-4.484-4.484-11.78,0-16.264c4.484-4.483,11.779-4.483,16.264,0
			c4.484,4.484,4.484,11.78,0,16.264l0,0C17.89,22.373,14.945,23.494,12,23.494z M12,1.505c-2.689,0-5.378,1.023-7.425,3.07
			c-4.094,4.094-4.094,10.755,0,14.85c4.094,4.094,10.756,4.093,14.85,0c4.094-4.094,4.094-10.755,0-14.85
			C17.378,2.528,14.688,1.505,12,1.505z"/>
	</g>
	<g>
		<path d="M6.343,18.156c-0.128,0-0.256-0.049-0.354-0.146c-2.396-2.395-3.276-5.119-2.418-7.472
			c0.866-2.375,3.416-4.024,6.653-4.304c1.164-0.101,2.61-0.989,3.438-2.112c0.439-0.596,0.913-1.535,0.677-2.623
			c-0.059-0.27,0.112-0.536,0.382-0.595c0.273-0.057,0.536,0.113,0.595,0.382c0.251,1.15-0.043,2.336-0.849,3.429
			c-0.999,1.356-2.709,2.39-4.157,2.515c-2.846,0.246-5.068,1.644-5.8,3.65c-0.72,1.973,0.077,4.314,2.186,6.422
			c0.195,0.195,0.195,0.512,0,0.707C6.599,18.108,6.471,18.156,6.343,18.156z"/>
	</g>
	<g>
		<path d="M11.627,20.744c-1.87,0-3.849-0.945-5.644-2.74c-0.195-0.195-0.195-0.512,0-0.707s0.512-0.195,0.707,0
			c2.11,2.109,4.452,2.904,6.423,2.186c2.006-0.731,3.404-2.954,3.65-5.8c0.124-1.447,1.158-3.156,2.514-4.156
			c1.093-0.807,2.278-1.1,3.43-0.851c0.27,0.059,0.44,0.325,0.382,0.595c-0.059,0.271-0.32,0.442-0.595,0.383
			c-1.089-0.235-2.027,0.238-2.624,0.678c-1.122,0.828-2.01,2.273-2.11,3.437c-0.279,3.238-1.929,5.788-4.304,6.654
			C12.866,20.638,12.252,20.744,11.627,20.744z"/>
	</g>
</g>
<g>
</g>
<g>
</g>
<g>
</g>
<g>
</g>
<g>
</g>
<g>
</g>
<g>
</g>
<g>
</g>
<g>
</g>
<g>
</g>
<g>
</g>
<g>
</g>
<g>
</g>
<g>
</g>
<g>
</g>
</svg>
