<?xml version="1.0" encoding="iso-8859-1"?>
<!-- Generator: Adobe Illustrator 19.0.0, SVG Export Plug-In . SVG Version: 6.00 Build 0)  -->
<svg version="1.1" id="Layer_1" xmlns="http://www.w3.org/2000/svg" xmlns:xlink="http://www.w3.org/1999/xlink" x="0px" y="0px"
	 viewBox="0 0 24 24" style="enable-background:new 0 0 24 24;" xml:space="preserve">
<g>
	<g>
		<path d="M6,17.5c-1.686,0-3.5-1.408-3.5-4.5c0-2.902,2.663-4.5,7.5-4.5c0.276,0,0.5,0.224,0.5,0.5S10.276,9.5,10,9.5
			c-2.965,0-6.5,0.607-6.5,3.5c0,2.418,1.256,3.5,2.5,3.5c0.792,0,2.596-1.654,3.624-2.829c0.183-0.209,0.498-0.229,0.705-0.047
			c0.208,0.182,0.229,0.498,0.047,0.706C9.913,14.859,7.524,17.5,6,17.5z"/>
	</g>
	<g>
		<path d="M14,17.5c-1.524,0-3.913-2.641-4.376-3.171c-0.183-0.208-0.161-0.523,0.047-0.705c0.207-0.181,0.523-0.163,0.705,0.047
			C11.405,14.846,13.209,16.5,14,16.5c1.244,0,2.5-1.082,2.5-3.5c0-2.893-3.535-3.5-6.5-3.5C9.724,9.5,9.5,9.276,9.5,9
			S9.724,8.5,10,8.5c4.837,0,7.5,1.598,7.5,4.5C17.5,16.092,15.686,17.5,14,17.5z"/>
	</g>
	<g>
		<path d="M11,23.5H9c-1.379,0-2.5-1.122-2.5-2.5s1.121-2.5,2.5-2.5h2c1.379,0,2.5,1.122,2.5,2.5S12.379,23.5,11,23.5z M9,19.5
			c-0.827,0-1.5,0.673-1.5,1.5s0.673,1.5,1.5,1.5h2c0.827,0,1.5-0.673,1.5-1.5s-0.673-1.5-1.5-1.5H9z"/>
	</g>
	<g>
		<path d="M17,22.5h-4c-0.276,0-0.5-0.224-0.5-0.5v-2c0-0.276,0.224-0.5,0.5-0.5h4c0.827,0,1.5-0.673,1.5-1.5V1
			c0-0.276,0.224-0.5,0.5-0.5h2c0.276,0,0.5,0.224,0.5,0.5v17C21.5,20.481,19.481,22.5,17,22.5z M13.5,21.5H17
			c1.93,0,3.5-1.57,3.5-3.5V1.5h-1V18c0,1.378-1.121,2.5-2.5,2.5h-3.5V21.5z"/>
	</g>
	<g>
		<path d="M21,5.5h-2c-0.276,0-0.5-0.224-0.5-0.5s0.224-0.5,0.5-0.5h2c0.276,0,0.5,0.224,0.5,0.5S21.276,5.5,21,5.5z"/>
	</g>
</g>
<g>
</g>
<g>
</g>
<g>
</g>
<g>
</g>
<g>
</g>
<g>
</g>
<g>
</g>
<g>
</g>
<g>
</g>
<g>
</g>
<g>
</g>
<g>
</g>
<g>
</g>
<g>
</g>
<g>
</g>
</svg>
