<?xml version="1.0" encoding="iso-8859-1"?>
<!-- Generator: Adobe Illustrator 19.0.0, SVG Export Plug-In . SVG Version: 6.00 Build 0)  -->
<svg version="1.1" id="Layer_1" xmlns="http://www.w3.org/2000/svg" xmlns:xlink="http://www.w3.org/1999/xlink" x="0px" y="0px"
	 viewBox="0 0 24 24" style="enable-background:new 0 0 24 24;" xml:space="preserve">
<g>
	<g>
		<path d="M4,5C2.621,5,1.5,3.878,1.5,2.5S2.621,0,4,0s2.5,1.122,2.5,2.5S5.379,5,4,5z M4,1C3.173,1,2.5,1.673,2.5,2.5S3.173,4,4,4
			s1.5-0.673,1.5-1.5S4.827,1,4,1z"/>
	</g>
	<g>
		<path d="M8,5C6.621,5,5.5,3.878,5.5,2.5S6.621,0,8,0s2.5,1.122,2.5,2.5S9.379,5,8,5z M8,1C7.173,1,6.5,1.673,6.5,2.5S7.173,4,8,4
			s1.5-0.673,1.5-1.5S8.827,1,8,1z"/>
	</g>
	<g>
		<path d="M12,5c-1.379,0-2.5-1.122-2.5-2.5S10.621,0,12,0s2.5,1.122,2.5,2.5S13.379,5,12,5z M12,1c-0.827,0-1.5,0.673-1.5,1.5
			S11.173,4,12,4s1.5-0.673,1.5-1.5S12.827,1,12,1z"/>
	</g>
	<g>
		<path d="M6,9C4.621,9,3.5,7.878,3.5,6.5S4.621,4,6,4s2.5,1.122,2.5,2.5S7.379,9,6,9z M6,5C5.173,5,4.5,5.673,4.5,6.5S5.173,8,6,8
			s1.5-0.673,1.5-1.5S6.827,5,6,5z"/>
	</g>
	<g>
		<path d="M10,9C8.621,9,7.5,7.878,7.5,6.5S8.621,4,10,4s2.5,1.122,2.5,2.5S11.379,9,10,9z M10,5C9.173,5,8.5,5.673,8.5,6.5
			S9.173,8,10,8s1.5-0.673,1.5-1.5S10.827,5,10,5z"/>
	</g>
	<g>
		<path d="M8,13c-1.379,0-2.5-1.122-2.5-2.5S6.621,8,8,8s2.5,1.122,2.5,2.5S9.379,13,8,13z M8,9c-0.827,0-1.5,0.673-1.5,1.5
			S7.173,12,8,12s1.5-0.673,1.5-1.5S8.827,9,8,9z"/>
	</g>
	<g>
		<path d="M10,17c-1.379,0-2.5-1.122-2.5-2.5S8.621,12,10,12s2.5,1.122,2.5,2.5S11.379,17,10,17z M10,13c-0.827,0-1.5,0.673-1.5,1.5
			S9.173,16,10,16s1.5-0.673,1.5-1.5S10.827,13,10,13z"/>
	</g>
	<g>
		<path d="M12,13c-1.379,0-2.5-1.122-2.5-2.5S10.621,8,12,8s2.5,1.122,2.5,2.5S13.379,13,12,13z M12,9c-0.827,0-1.5,0.673-1.5,1.5
			S11.173,12,12,12s1.5-0.673,1.5-1.5S12.827,9,12,9z"/>
	</g>
	<g>
		<path d="M14,9c-1.379,0-2.5-1.122-2.5-2.5S12.621,4,14,4s2.5,1.122,2.5,2.5S15.379,9,14,9z M14,5c-0.827,0-1.5,0.673-1.5,1.5
			S13.173,8,14,8s1.5-0.673,1.5-1.5S14.827,5,14,5z"/>
	</g>
	<g>
		<path d="M16,5c-1.379,0-2.5-1.122-2.5-2.5S14.621,0,16,0s2.5,1.122,2.5,2.5S17.379,5,16,5z M16,1c-0.827,0-1.5,0.673-1.5,1.5
			S15.173,4,16,4c0.827,0,1.5-0.673,1.5-1.5S16.827,1,16,1z"/>
	</g>
	<g>
		<path d="M13,24c-0.075,0-0.151-0.017-0.224-0.053c-0.247-0.124-0.347-0.424-0.224-0.671l8.776-17.553l-1.114-0.558l-9.772,18.567
			c-0.129,0.244-0.432,0.336-0.675,0.209c-0.245-0.128-0.339-0.431-0.21-0.675l10-19c0.126-0.241,0.424-0.335,0.666-0.214l2,1
			c0.247,0.124,0.347,0.424,0.224,0.671l-9,18C13.359,23.899,13.183,24,13,24z"/>
	</g>
	<g>
		<path d="M20.5,9c-0.075,0-0.151-0.017-0.224-0.053l-2-1c-0.247-0.124-0.347-0.424-0.224-0.671
			c0.124-0.247,0.424-0.346,0.671-0.224l2,1c0.247,0.124,0.347,0.424,0.224,0.671C20.859,8.899,20.683,9,20.5,9z"/>
	</g>
</g>
<g>
</g>
<g>
</g>
<g>
</g>
<g>
</g>
<g>
</g>
<g>
</g>
<g>
</g>
<g>
</g>
<g>
</g>
<g>
</g>
<g>
</g>
<g>
</g>
<g>
</g>
<g>
</g>
<g>
</g>
</svg>
