<?xml version="1.0" encoding="iso-8859-1"?>
<!-- Generator: Adobe Illustrator 19.0.0, SVG Export Plug-In . SVG Version: 6.00 Build 0)  -->
<svg version="1.1" id="Layer_1" xmlns="http://www.w3.org/2000/svg" xmlns:xlink="http://www.w3.org/1999/xlink" x="0px" y="0px"
	 viewBox="0 0 24 24" style="enable-background:new 0 0 24 24;" xml:space="preserve">
<g>
	<g>
		<g>
			<path d="M14,24h-4c-1.93,0-3.5-1.57-3.5-3.5v-5c0-0.133,0.053-0.26,0.146-0.354l0.258-0.258c0.766-0.766,0.766-2.012,0-2.777
				l-0.258-0.258C6.553,11.76,6.5,11.633,6.5,11.5v-3C6.5,6.57,8.07,5,10,5h4c1.93,0,3.5,1.57,3.5,3.5v3
				c0,0.133-0.053,0.26-0.146,0.354l-0.258,0.258c-0.766,0.766-0.766,2.012,0,2.777l0.258,0.258C17.447,15.24,17.5,15.367,17.5,15.5
				v5C17.5,22.43,15.93,24,14,24z M7.5,15.707V20.5c0,1.378,1.122,2.5,2.5,2.5h4c1.378,0,2.5-1.122,2.5-2.5v-4.793l-0.111-0.111
				c-1.156-1.156-1.156-3.036,0-4.191l0.111-0.111V8.5C16.5,7.121,15.378,6,14,6h-4C8.622,6,7.5,7.121,7.5,8.5v2.793l0.111,0.111
				c1.156,1.156,1.156,3.036,0,4.191L7.5,15.707z"/>
		</g>
		<g>
			<path d="M10,22c-0.827,0-1.5-0.673-1.5-1.5V16.29c0-0.114,0.039-0.224,0.11-0.313c1.152-1.436,1.152-3.52,0-4.955
				c-0.071-0.089-0.11-0.199-0.11-0.313V8.5C8.5,7.673,9.173,7,10,7c0.276,0,0.5,0.224,0.5,0.5S10.276,8,10,8
				C9.724,8,9.5,8.224,9.5,8.5v2.039c1.296,1.743,1.296,4.179,0,5.922V20.5c0,0.276,0.224,0.5,0.5,0.5c0.276,0,0.5,0.224,0.5,0.5
				S10.276,22,10,22z"/>
		</g>
		<g>
			<path d="M14,6c-0.276,0-0.5-0.224-0.5-0.5V3h-3v2.5C10.5,5.776,10.276,6,10,6S9.5,5.776,9.5,5.5v-3C9.5,2.224,9.724,2,10,2h4
				c0.276,0,0.5,0.224,0.5,0.5v3C14.5,5.776,14.276,6,14,6z"/>
		</g>
		<g>
			<path d="M13,3c-0.276,0-0.5-0.224-0.5-0.5v-1C12.5,1.224,12.276,1,12,1s-0.5,0.224-0.5,0.5v1C11.5,2.776,11.276,3,11,3
				s-0.5-0.224-0.5-0.5v-1C10.5,0.673,11.173,0,12,0s1.5,0.673,1.5,1.5v1C13.5,2.776,13.276,3,13,3z"/>
		</g>
	</g>
	<g>
		<path d="M15.5,5H14c-0.276,0-0.5-0.224-0.5-0.5S13.724,4,14,4h1.5c0.551,0,1-0.449,1-1s-0.449-1-1-1H13
			c-0.276,0-0.5-0.224-0.5-0.5S12.724,1,13,1h2.5c1.103,0,2,0.897,2,2S16.603,5,15.5,5z"/>
	</g>
</g>
<g>
</g>
<g>
</g>
<g>
</g>
<g>
</g>
<g>
</g>
<g>
</g>
<g>
</g>
<g>
</g>
<g>
</g>
<g>
</g>
<g>
</g>
<g>
</g>
<g>
</g>
<g>
</g>
<g>
</g>
</svg>
