<?xml version="1.0" encoding="iso-8859-1"?>
<!-- Generator: Adobe Illustrator 18.0.0, SVG Export Plug-In . SVG Version: 6.00 Build 0)  -->
<!DOCTYPE svg PUBLIC "-//W3C//DTD SVG 1.1//EN" "http://www.w3.org/Graphics/SVG/1.1/DTD/svg11.dtd">
<svg version="1.1" id="Layer_1" xmlns="http://www.w3.org/2000/svg" xmlns:xlink="http://www.w3.org/1999/xlink" x="0px" y="0px"
	 viewBox="0 0 24 24" style="enable-background:new 0 0 24 24;" xml:space="preserve">
<g id="Electric_Guitar_1_1_">
	<g>
		<path d="M6.47,18.013c-0.02,0-0.039-0.001-0.059-0.003l-5.056-0.595c-0.67-0.079-1.194-0.58-1.304-1.246
			c-0.11-0.666,0.226-1.308,0.835-1.599l7.149-3.404l0.953-4.289c0.156-0.703,0.744-1.175,1.464-1.175c0.002,0,0.004,0,0.006,0
			c0.723,0.002,1.31,0.479,1.461,1.185l0.348,1.622l4.204-4.204V3.513c0-0.157,0.074-0.306,0.2-0.4l4-3
			c0.199-0.15,0.478-0.13,0.653,0.046l1,1c0.195,0.195,0.195,0.512,0,0.707s-0.512,0.195-0.707,0l-0.693-0.693l-3.453,2.59v0.75
			c0,0.133-0.053,0.26-0.146,0.354l-5,5c-0.13,0.129-0.32,0.176-0.495,0.126c-0.176-0.052-0.309-0.196-0.347-0.375l-0.54-2.52
			c-0.079-0.365-0.393-0.395-0.487-0.396c-0.085,0.011-0.409,0.028-0.49,0.392l-1.006,4.527c-0.034,0.15-0.134,0.277-0.273,0.343
			l-7.369,3.509c-0.315,0.15-0.292,0.445-0.278,0.533c0.015,0.087,0.088,0.375,0.435,0.415l5.056,0.595
			c0.274,0.032,0.47,0.281,0.438,0.555C6.937,17.826,6.72,18.013,6.47,18.013z"/>
		<path d="M8.715,23.989c-0.037,0-0.074-0.001-0.111-0.004c-0.694-0.046-1.246-0.514-1.405-1.191l-1.216-5.167
			c-0.063-0.269,0.104-0.538,0.372-0.602c0.266-0.063,0.538,0.104,0.602,0.372l1.216,5.167c0.086,0.367,0.403,0.417,0.499,0.423
			c0.096,0.008,0.417,0,0.551-0.353l2.781-7.3c0.048-0.126,0.146-0.228,0.271-0.281l3.946-1.691c0.317-0.136,0.31-0.429,0.3-0.516
			s-0.068-0.374-0.407-0.436l-2.231-0.406c-0.183-0.033-0.333-0.165-0.388-0.343c-0.055-0.178-0.007-0.372,0.125-0.503l5-4.99
			c0.094-0.093,0.221-0.146,0.353-0.146h0.739l2.797-4.003l-0.533,0.003c-0.001,0-0.002,0-0.003,0c-0.274,0-0.498-0.222-0.5-0.497
			c-0.002-0.276,0.22-0.501,0.497-0.503l1.5-0.01c0.001,0,0.002,0,0.003,0c0.186,0,0.356,0.103,0.442,0.268
			C24,1.445,23.987,1.646,23.88,1.799l-3.5,5.01c-0.093,0.134-0.247,0.214-0.41,0.214h-0.793l-4.178,4.169l1.292,0.235
			c0.667,0.121,1.146,0.634,1.222,1.307c0.076,0.673-0.277,1.28-0.9,1.547l-3.751,1.608l-2.705,7.102
			C9.921,23.607,9.363,23.989,8.715,23.989z"/>
		<path d="M9.97,15.013c-0.128,0-0.256-0.049-0.354-0.146l-1-1c-0.195-0.195-0.195-0.512,0-0.707s0.512-0.195,0.707,0l1,1
			c0.195,0.195,0.195,0.512,0,0.707C10.226,14.964,10.098,15.013,9.97,15.013z"/>
	</g>
	<path d="M8.47,19.013c-0.13,0-0.26-0.05-0.35-0.15c-0.1-0.09-0.15-0.22-0.15-0.35c0-0.13,0.05-0.26,0.15-0.35
		c0.19-0.19,0.51-0.19,0.7-0.01c0.1,0.1,0.15,0.23,0.15,0.36c0,0.13-0.05,0.26-0.14,0.35C8.73,18.963,8.6,19.013,8.47,19.013z"/>
</g>
<g>
</g>
<g>
</g>
<g>
</g>
<g>
</g>
<g>
</g>
<g>
</g>
<g>
</g>
<g>
</g>
<g>
</g>
<g>
</g>
<g>
</g>
<g>
</g>
<g>
</g>
<g>
</g>
<g>
</g>
</svg>
