<?xml version="1.0" encoding="iso-8859-1"?>
<!-- Generator: Adobe Illustrator 18.0.0, SVG Export Plug-In . SVG Version: 6.00 Build 0)  -->
<!DOCTYPE svg PUBLIC "-//W3C//DTD SVG 1.1//EN" "http://www.w3.org/Graphics/SVG/1.1/DTD/svg11.dtd">
<svg version="1.1" id="Layer_1" xmlns="http://www.w3.org/2000/svg" xmlns:xlink="http://www.w3.org/1999/xlink" x="0px" y="0px"
	 viewBox="0 0 24 24" style="enable-background:new 0 0 24 24;" xml:space="preserve">
<g>
	<g>
		<g>
			<g>
				<g>
					<g>
						<path d="M12.5,22h-11C1.224,22,1,21.776,1,21.5v-15c0-0.133,0.053-0.26,0.146-0.354l6-6C7.24,0.052,7.367,0,7.5,0h11
							C18.776,0,19,0.223,19,0.5v11c0,0.276-0.224,0.5-0.5,0.5S18,11.776,18,11.5V1H7.707L2,6.707V21h10.5
							c0.276,0,0.5,0.224,0.5,0.5S12.776,22,12.5,22z"/>
						<path d="M7.5,7h-6C1.224,7,1,6.776,1,6.5S1.224,6,1.5,6H7V0.5C7,0.223,7.224,0,7.5,0S8,0.223,8,0.5v6C8,6.776,7.776,7,7.5,7z"
							/>
					</g>
				</g>
			</g>
		</g>
	</g>
	<path d="M17,22c-2.206,0-4-1.794-4-4s1.794-4,4-4s4,1.794,4,4S19.206,22,17,22z M17,15c-1.654,0-3,1.346-3,3s1.346,3,3,3
		s3-1.346,3-3S18.654,15,17,15z"/>
	<path d="M22.5,24c-0.128,0-0.256-0.049-0.354-0.146l-3-3c-0.195-0.195-0.195-0.512,0-0.707s0.512-0.195,0.707,0l3,3
		c0.195,0.195,0.195,0.512,0,0.707C22.756,23.951,22.628,24,22.5,24z"/>
	<g>
		<path d="M10.5,14c-0.276,0-0.5-0.224-0.5-0.5v-6C10,7.223,10.224,7,10.5,7h2C12.776,7,13,7.223,13,7.5S12.776,8,12.5,8H11v5.5
			C11,13.776,10.776,14,10.5,14z"/>
		<path d="M9,15c-1.122,0-2-0.659-2-1.5S7.878,12,9,12s2,0.659,2,1.5S10.122,15,9,15z M9,13c-0.61,0-1,0.296-1,0.5S8.39,14,9,14
			s1-0.296,1-0.5S9.61,13,9,13z"/>
	</g>
</g>
<g>
</g>
<g>
</g>
<g>
</g>
<g>
</g>
<g>
</g>
<g>
</g>
<g>
</g>
<g>
</g>
<g>
</g>
<g>
</g>
<g>
</g>
<g>
</g>
<g>
</g>
<g>
</g>
<g>
</g>
</svg>
