<?xml version="1.0" encoding="iso-8859-1"?>
<!-- Generator: Adobe Illustrator 18.0.0, SVG Export Plug-In . SVG Version: 6.00 Build 0)  -->
<!DOCTYPE svg PUBLIC "-//W3C//DTD SVG 1.1//EN" "http://www.w3.org/Graphics/SVG/1.1/DTD/svg11.dtd">
<svg version="1.1" id="Layer_1" xmlns="http://www.w3.org/2000/svg" xmlns:xlink="http://www.w3.org/1999/xlink" x="0px" y="0px"
	 viewBox="0 0 24 24" style="enable-background:new 0 0 24 24;" xml:space="preserve">
<g id="speaker_2_2_">
	<g>
		<g>
			<path d="M19.5,24.001c-0.119,0-0.236-0.042-0.329-0.124l-7.859-6.876H8c-2.757,0-5-2.243-5-5s2.243-5,5-5h3.312l7.859-6.876
				c0.146-0.131,0.357-0.162,0.536-0.079C19.885,0.127,20,0.304,20,0.501v9.774c0.61,0.354,1,1.009,1,1.726s-0.39,1.372-1,1.726
				v9.774c0,0.196-0.115,0.374-0.293,0.455C19.641,23.986,19.57,24.001,19.5,24.001z M8,8.001c-2.206,0-4,1.794-4,4s1.794,4,4,4h3.5
				c0.121,0,0.238,0.044,0.329,0.124L19,22.399v-8.99c0-0.212,0.133-0.4,0.332-0.471C19.731,12.796,20,12.419,20,12.001
				s-0.269-0.795-0.668-0.938C19.133,10.993,19,10.804,19,10.593v-8.99l-7.171,6.274c-0.091,0.08-0.208,0.124-0.329,0.124H8z"/>
		</g>
		<path d="M11.5,17.001c-0.276,0-0.5-0.224-0.5-0.5v-9c0-0.276,0.224-0.5,0.5-0.5s0.5,0.224,0.5,0.5v9
			C12,16.777,11.776,17.001,11.5,17.001z"/>
	</g>
	<path d="M7.5,12.001c-0.276,0-0.5-0.224-0.5-0.5v-2c0-0.276,0.224-0.5,0.5-0.5S8,9.224,8,9.501v2C8,11.777,7.776,12.001,7.5,12.001
		z"/>
</g>
<g>
</g>
<g>
</g>
<g>
</g>
<g>
</g>
<g>
</g>
<g>
</g>
<g>
</g>
<g>
</g>
<g>
</g>
<g>
</g>
<g>
</g>
<g>
</g>
<g>
</g>
<g>
</g>
<g>
</g>
</svg>
