<?xml version="1.0" encoding="iso-8859-1"?>
<!-- Generator: Adobe Illustrator 18.0.0, SVG Export Plug-In . SVG Version: 6.00 Build 0)  -->
<!DOCTYPE svg PUBLIC "-//W3C//DTD SVG 1.1//EN" "http://www.w3.org/Graphics/SVG/1.1/DTD/svg11.dtd">
<svg version="1.1" id="Layer_1" xmlns="http://www.w3.org/2000/svg" xmlns:xlink="http://www.w3.org/1999/xlink" x="0px" y="0px"
	 viewBox="0 0 24 24" style="enable-background:new 0 0 24 24;" xml:space="preserve">
<g>
	<g>
		<g>
			<g>
				<path d="M13,22H3c-0.276,0-0.5-0.224-0.5-0.5v-15c0-0.133,0.053-0.26,0.146-0.354l6-6C8.74,0.053,8.867,0,9,0h11
					c0.276,0,0.5,0.224,0.5,0.5v6C20.5,6.776,20.276,7,20,7s-0.5-0.224-0.5-0.5V1H9.207L3.5,6.707V21H13c0.276,0,0.5,0.224,0.5,0.5
					S13.276,22,13,22z"/>
				<path d="M9,7H3C2.724,7,2.5,6.776,2.5,6.5S2.724,6,3,6h5.5V0.5C8.5,0.223,8.724,0,9,0s0.5,0.224,0.5,0.5v6
					C9.5,6.776,9.276,7,9,7z"/>
			</g>
		</g>
		<path d="M10,15c-0.229,0-0.43-0.155-0.485-0.379L9,12.561l-0.515,2.06C8.428,14.851,8.174,15.004,7.98,15
			c-0.237-0.01-0.435-0.185-0.474-0.418l-1-6c-0.046-0.272,0.139-0.53,0.411-0.575c0.266-0.048,0.529,0.138,0.575,0.411l0.604,3.629
			l0.417-1.668c0.111-0.445,0.859-0.445,0.971,0l0.417,1.668l0.604-3.629c0.046-0.273,0.309-0.459,0.575-0.411
			c0.272,0.045,0.457,0.303,0.411,0.575l-1,6c-0.039,0.233-0.236,0.408-0.474,0.418C10.014,15,10.007,15,10,15z"/>
		<path d="M16,15c-0.209,0-0.404-0.133-0.475-0.342L14,10.081l-1.525,4.577c-0.088,0.262-0.37,0.404-0.633,0.316
			c-0.262-0.088-0.403-0.371-0.316-0.633l2-6c0.137-0.408,0.813-0.408,0.949,0l2,6c0.087,0.262-0.055,0.545-0.316,0.633
			C16.105,14.992,16.053,15,16,15z"/>
		<path d="M15,13h-2c-0.276,0-0.5-0.224-0.5-0.5S12.724,12,13,12h2c0.276,0,0.5,0.224,0.5,0.5S15.276,13,15,13z"/>
		<path d="M19,15c-0.215,0-0.406-0.138-0.475-0.342l-2-6c-0.087-0.262,0.055-0.545,0.316-0.633c0.262-0.085,0.545,0.055,0.633,0.316
			L19,12.919l1.525-4.577c0.088-0.261,0.373-0.401,0.633-0.316c0.262,0.088,0.403,0.371,0.316,0.633l-2,6
			C19.406,14.862,19.215,15,19,15z"/>
	</g>
	<path d="M16,24c-0.869,0-1.5-0.421-1.5-1s0.631-1,1.5-1c0.869,0,1.5,0.421,1.5,1S16.869,24,16,24z"/>
	<path d="M20,23c-0.869,0-1.5-0.421-1.5-1s0.631-1,1.5-1s1.5,0.421,1.5,1S20.869,23,20,23z"/>
	<path d="M17,23.5c-0.276,0-0.5-0.224-0.5-0.5v-5.5c0-0.229,0.156-0.43,0.379-0.485l4-1c0.15-0.038,0.308-0.004,0.429,0.091
		S21.5,16.346,21.5,16.5V22c0,0.276-0.224,0.5-0.5,0.5s-0.5-0.224-0.5-0.5V17.14l-3,0.75V23C17.5,23.276,17.276,23.5,17,23.5z"/>
</g>
<g>
</g>
<g>
</g>
<g>
</g>
<g>
</g>
<g>
</g>
<g>
</g>
<g>
</g>
<g>
</g>
<g>
</g>
<g>
</g>
<g>
</g>
<g>
</g>
<g>
</g>
<g>
</g>
<g>
</g>
</svg>
