<?xml version="1.0" encoding="iso-8859-1"?>
<!-- Generator: Adobe Illustrator 19.0.0, SVG Export Plug-In . SVG Version: 6.00 Build 0)  -->
<svg version="1.1" id="Layer_1" xmlns="http://www.w3.org/2000/svg" xmlns:xlink="http://www.w3.org/1999/xlink" x="0px" y="0px"
	 viewBox="0 0 24 24" style="enable-background:new 0 0 24 24;" xml:space="preserve">
<g>
	<g id="forward2">
		<g>
			<path d="M11.5,17c-0.083,0-0.165-0.021-0.24-0.061C11.1,16.851,11,16.683,11,16.5v-2.298L6.771,16.92
				c-0.154,0.099-0.35,0.105-0.51,0.019C6.1,16.851,6,16.683,6,16.5v-9c0-0.183,0.1-0.351,0.26-0.439
				c0.161-0.087,0.356-0.082,0.51,0.019L11,9.798V7.5c0-0.183,0.1-0.351,0.26-0.439c0.16-0.087,0.356-0.082,0.51,0.019l7,4.5
				C18.914,11.671,19,11.83,19,12s-0.086,0.329-0.229,0.42l-7,4.5C11.688,16.974,11.594,17,11.5,17z M11.5,12.786
				c0.083,0,0.165,0.021,0.24,0.061C11.9,12.935,12,13.103,12,13.286v2.298L17.575,12L12,8.416v2.298c0,0.183-0.1,0.351-0.26,0.439
				c-0.161,0.086-0.357,0.082-0.51-0.019L7,8.416v7.168l4.229-2.719C11.312,12.813,11.406,12.786,11.5,12.786z"/>
		</g>
	</g>
	<g>
		<path d="M18.5,22h-13C2.467,22,0,19.533,0,16.5v-9C0,4.467,2.467,2,5.5,2h13C21.533,2,24,4.467,24,7.5v9
			C24,19.533,21.533,22,18.5,22z M5.5,3C3.019,3,1,5.019,1,7.5v9C1,18.981,3.019,21,5.5,21h13c2.481,0,4.5-2.019,4.5-4.5v-9
			C23,5.019,20.981,3,18.5,3H5.5z"/>
	</g>
</g>
<g>
</g>
<g>
</g>
<g>
</g>
<g>
</g>
<g>
</g>
<g>
</g>
<g>
</g>
<g>
</g>
<g>
</g>
<g>
</g>
<g>
</g>
<g>
</g>
<g>
</g>
<g>
</g>
<g>
</g>
</svg>
