<?xml version="1.0" encoding="iso-8859-1"?>
<!-- Generator: Adobe Illustrator 19.0.0, SVG Export Plug-In . SVG Version: 6.00 Build 0)  -->
<svg version="1.1" id="Layer_1" xmlns="http://www.w3.org/2000/svg" xmlns:xlink="http://www.w3.org/1999/xlink" x="0px" y="0px"
	 viewBox="0 0 24 24" style="enable-background:new 0 0 24 24;" xml:space="preserve">
<g>
	<g>
		<g>
			<g>
				<g>
					<path d="M13.5,22h-11C2.224,22,2,21.776,2,21.5v-15c0-0.133,0.053-0.26,0.146-0.354l6-6C8.24,0.053,8.367,0,8.5,0h11
						C19.776,0,20,0.224,20,0.5v6C20,6.776,19.776,7,19.5,7S19,6.776,19,6.5V1H8.707L3,6.707V21h10.5c0.276,0,0.5,0.224,0.5,0.5
						S13.776,22,13.5,22z"/>
				</g>
				<g>
					<path d="M8.5,7h-6C2.224,7,2,6.776,2,6.5S2.224,6,2.5,6H8V0.5C8,0.224,8.224,0,8.5,0S9,0.224,9,0.5v6C9,6.776,8.776,7,8.5,7z"
						/>
				</g>
			</g>
		</g>
		<g>
			<path d="M15.5,24c-0.079,0-0.158-0.019-0.231-0.057C15.104,23.857,15,23.687,15,23.5v-7c0-0.187,0.104-0.357,0.269-0.443
				c0.165-0.086,0.365-0.073,0.518,0.034l5,3.5C20.92,19.684,21,19.837,21,20s-0.08,0.316-0.213,0.41l-5,3.5
				C15.701,23.97,15.601,24,15.5,24z M16,17.46v5.079L19.628,20L16,17.46z"/>
		</g>
	</g>
	<g>
		<path d="M10.5,15c-0.276,0-0.5-0.224-0.5-0.5v-4.349l-1.084,1.626c-0.186,0.278-0.646,0.278-0.832,0L7,10.151V14.5
			C7,14.776,6.776,15,6.5,15S6,14.776,6,14.5v-6c0-0.22,0.144-0.415,0.355-0.479C6.566,7.957,6.794,8.04,6.916,8.223L8.5,10.599
			l1.584-2.376c0.122-0.183,0.35-0.266,0.561-0.201C10.856,8.085,11,8.28,11,8.5v6C11,14.776,10.776,15,10.5,15z"/>
	</g>
	<g>
		<path d="M14.5,15c-1.378,0-2.5-1.122-2.5-2.5v-2C12,9.122,13.122,8,14.5,8S17,9.122,17,10.5v2C17,13.878,15.878,15,14.5,15z
			 M14.5,9C13.673,9,13,9.673,13,10.5v2c0,0.827,0.673,1.5,1.5,1.5s1.5-0.673,1.5-1.5v-2C16,9.673,15.327,9,14.5,9z"/>
	</g>
	<g>
		<path d="M19.5,15c-0.215,0-0.406-0.138-0.474-0.342l-2-6c-0.087-0.262,0.054-0.545,0.316-0.632
			c0.266-0.088,0.545,0.054,0.632,0.316l1.526,4.577l1.526-4.577c0.087-0.262,0.368-0.404,0.632-0.316
			c0.262,0.087,0.403,0.37,0.316,0.632l-2,6C19.906,14.862,19.715,15,19.5,15z"/>
	</g>
</g>
<g>
</g>
<g>
</g>
<g>
</g>
<g>
</g>
<g>
</g>
<g>
</g>
<g>
</g>
<g>
</g>
<g>
</g>
<g>
</g>
<g>
</g>
<g>
</g>
<g>
</g>
<g>
</g>
<g>
</g>
</svg>
