<?xml version="1.0" encoding="utf-8"?>
<!-- Generator: Adobe Illustrator 19.0.0, SVG Export Plug-In . SVG Version: 6.00 Build 0)  -->
<svg version="1.1" id="Layer_1" xmlns="http://www.w3.org/2000/svg" xmlns:xlink="http://www.w3.org/1999/xlink" x="0px" y="0px"
	 viewBox="-408 286.3 24 24" style="enable-background:new -408 286.3 24 24;" xml:space="preserve">
<g>
	<g>
		<path d="M-386.5,295.3c-0.8,0-1.2,0.3-1.6,0.6c-0.2,0.1-0.5,0.1-0.6-0.1c-0.1-0.1-0.1-0.2-0.1-0.4l0.4-4.6c0-0.1,0-0.3-0.1-0.4
			c-0.1-0.1-0.2-0.2-0.4-0.2h-4.5c-0.4,0-0.7,0.2-0.9,0.5c-0.2,0.3-0.2,0.7,0,1c0.2,0.3,0.3,0.5,0.3,1c0,0.8-0.9,1.5-2,1.5
			s-2-0.7-2-1.5c0-0.4,0.1-0.7,0.3-1c0.2-0.3,0.2-0.7,0-1c-0.2-0.3-0.5-0.5-0.9-0.5h-4.5c-0.1,0-0.3,0.1-0.4,0.2
			c-0.1,0.1-0.1,0.2-0.1,0.4l0.4,4.6c0,0.2-0.1,0.3-0.1,0.4c-0.2,0.2-0.4,0.3-0.7,0.1c-0.4-0.3-0.8-0.5-1.6-0.5
			c-1.4,0-2.5,1.3-2.5,3s1.1,3,2.5,3c0.8,0,1.2-0.3,1.6-0.6c0.2-0.1,0.5-0.1,0.6,0.1c0.1,0.1,0.1,0.2,0.1,0.4l-0.4,4.6
			c0,0.1,0,0.3,0.1,0.4c0.1,0.1,0.2,0.2,0.4,0.2h4.5c0.4,0,0.7-0.2,0.9-0.5c0.2-0.3,0.2-0.7,0-1c-0.2-0.3-0.3-0.5-0.3-1
			c0-0.8,0.9-1.5,2-1.5c1.1,0,2,0.7,2,1.5c0,0.4-0.1,0.7-0.3,1c-0.2,0.3-0.2,0.7,0,1c0.2,0.3,0.5,0.5,0.9,0.5h4.5
			c0.1,0,0.3-0.1,0.4-0.2c0.1-0.1,0.1-0.2,0.1-0.4l-0.4-4.6c0-0.2,0.1-0.3,0.1-0.4c0.2-0.2,0.4-0.3,0.7-0.1c0.4,0.3,0.8,0.5,1.6,0.5
			c1.4,0,2.5-1.3,2.5-3S-385.1,295.3-386.5,295.3z"/>
	</g>
</g>
</svg>
