<?xml version="1.0" encoding="utf-8"?>
<!-- Generator: Adobe Illustrator 19.0.0, SVG Export Plug-In . SVG Version: 6.00 Build 0)  -->
<svg version="1.1" id="Layer_1" xmlns="http://www.w3.org/2000/svg" xmlns:xlink="http://www.w3.org/1999/xlink" x="0px" y="0px"
	 viewBox="-408 286.3 24 24" style="enable-background:new -408 286.3 24 24;" xml:space="preserve">
<g>
	<g>
		<path d="M-386.5,286.3h-19c-1.4,0-2.5,1.1-2.5,2.5v19c0,1.4,1.1,2.5,2.5,2.5h19c1.4,0,2.5-1.1,2.5-2.5v-19
			C-384,287.4-385.1,286.3-386.5,286.3z M-401.5,288.3c0.3,0,0.5,0.2,0.5,0.5s-0.2,0.5-0.5,0.5s-0.5-0.2-0.5-0.5
			S-401.8,288.3-401.5,288.3z M-403.5,288.3c0.3,0,0.5,0.2,0.5,0.5s-0.2,0.5-0.5,0.5s-0.5-0.2-0.5-0.5S-403.8,288.3-403.5,288.3z
			 M-405.5,288.3c0.3,0,0.5,0.2,0.5,0.5s-0.2,0.5-0.5,0.5s-0.5-0.2-0.5-0.5S-405.8,288.3-405.5,288.3z M-385,307.8
			c0,0.8-0.7,1.5-1.5,1.5h-19c-0.8,0-1.5-0.7-1.5-1.5v-16.5h22V307.8z M-403.9,303.1c0.1,0.1,0.2,0.1,0.4,0.1s0.3,0,0.4-0.1l3-3
			c0.2-0.2,0.2-0.5,0-0.7l-3-3c-0.2-0.2-0.5-0.2-0.7,0c-0.2,0.2-0.2,0.5,0,0.7l2.6,2.6l-2.6,2.6C-404,302.6-404,302.9-403.9,303.1z
			 M-398.5,302.3h5c0.3,0,0.5-0.2,0.5-0.5s-0.2-0.5-0.5-0.5h-5c-0.3,0-0.5,0.2-0.5,0.5S-398.8,302.3-398.5,302.3z"/>
	</g>
</g>
</svg>
