<?xml version="1.0" encoding="utf-8"?>
<!-- Generator: Adobe Illustrator 19.0.0, SVG Export Plug-In . SVG Version: 6.00 Build 0)  -->
<svg version="1.1" id="Layer_1" xmlns="http://www.w3.org/2000/svg" xmlns:xlink="http://www.w3.org/1999/xlink" x="0px" y="0px"
	 viewBox="-408 286.3 24 24" style="enable-background:new -408 286.3 24 24;" xml:space="preserve">
<g>
	<g>
		<path d="M-387.5,286.3h-11c0,0,0,0-0.1,0c0,0,0,0-0.1,0c-0.1,0-0.2,0.1-0.2,0.1l-6,6c-0.1,0.1-0.1,0.1-0.1,0.2c0,0,0,0,0,0.1
			c0,0,0,0,0,0.1v17c0,0.3,0.2,0.5,0.5,0.5h17c0.3,0,0.5-0.2,0.5-0.5v-23C-387,286.5-387.2,286.3-387.5,286.3z M-399,288v4.3h-4.3
			L-399,288z M-400,305.8L-400,305.8c0,0.3-0.2,0.5-0.5,0.5s-0.5-0.2-0.5-0.5V304l-0.1,0.1c-0.2,0.2-0.5,0.2-0.7,0s-0.2-0.5,0-0.7
			l1-1c0.1-0.1,0.4-0.2,0.5-0.1c0.2,0.1,0.3,0.3,0.3,0.5V305.8z M-399.5,300.3h-2c-0.3,0-0.5-0.2-0.5-0.5v-3c0-0.3,0.2-0.5,0.5-0.5
			h2c0.3,0,0.5,0.2,0.5,0.5v3C-399,300.1-399.2,300.3-399.5,300.3z M-396,305.8c0,0.3-0.2,0.5-0.5,0.5h-2c-0.3,0-0.5-0.2-0.5-0.5v-3
			c0-0.3,0.2-0.5,0.5-0.5h2c0.3,0,0.5,0.2,0.5,0.5V305.8z M-396,299.8L-396,299.8c0,0.3-0.2,0.5-0.5,0.5s-0.5-0.2-0.5-0.5V298
			l-0.1,0.1c-0.2,0.2-0.5,0.2-0.7,0s-0.2-0.5,0-0.7l1-1c0.1-0.1,0.4-0.2,0.5-0.1c0.2,0.1,0.3,0.3,0.3,0.5V299.8z M-393,305.8
			L-393,305.8c0,0.3-0.2,0.5-0.5,0.5s-0.5-0.2-0.5-0.5V304l-0.1,0.1c-0.2,0.2-0.5,0.2-0.7,0s-0.2-0.5,0-0.7l1-1
			c0.1-0.1,0.4-0.2,0.5-0.1c0.2,0.1,0.3,0.3,0.3,0.5V305.8z M-393,299.8L-393,299.8c0,0.3-0.2,0.5-0.5,0.5s-0.5-0.2-0.5-0.5V298
			l-0.1,0.1c-0.2,0.2-0.5,0.2-0.7,0s-0.2-0.5,0-0.7l1-1c0.1-0.1,0.4-0.2,0.5-0.1c0.2,0.1,0.3,0.3,0.3,0.5V299.8z M-390,305.8
			L-390,305.8c0,0.3-0.2,0.5-0.5,0.5s-0.5-0.2-0.5-0.5V304l-0.1,0.1c-0.2,0.2-0.5,0.2-0.7,0s-0.2-0.5,0-0.7l1-1
			c0.1-0.1,0.4-0.2,0.5-0.1c0.2,0.1,0.3,0.3,0.3,0.5V305.8z M-390,299.8L-390,299.8c0,0.3-0.2,0.5-0.5,0.5s-0.5-0.2-0.5-0.5V298
			l-0.1,0.1c-0.2,0.2-0.5,0.2-0.7,0s-0.2-0.5,0-0.7l1-1c0.1-0.1,0.4-0.2,0.5-0.1c0.2,0.1,0.3,0.3,0.3,0.5V299.8z M-401,299.3h1v-2
			h-1V299.3z M-398,305.3h1v-2h-1V305.3z"/>
	</g>
</g>
</svg>
