<?xml version="1.0" encoding="utf-8"?>
<!-- Generator: Adobe Illustrator 19.0.0, SVG Export Plug-In . SVG Version: 6.00 Build 0)  -->
<svg version="1.1" id="Layer_1" xmlns="http://www.w3.org/2000/svg" xmlns:xlink="http://www.w3.org/1999/xlink" x="0px" y="0px"
	 viewBox="-408 286.3 24 24" style="enable-background:new -408 286.3 24 24;" xml:space="preserve">
<g>
	<g>
		<path d="M-387.5,286.3h-11c0,0,0,0-0.1,0c0,0,0,0-0.1,0c-0.1,0-0.2,0.1-0.2,0.1l-6,6c-0.1,0.1-0.1,0.1-0.1,0.2c0,0,0,0,0,0.1
			c0,0,0,0,0,0.1v17c0,0.3,0.2,0.5,0.5,0.5h17c0.3,0,0.5-0.2,0.5-0.5v-23C-387,286.5-387.2,286.3-387.5,286.3z M-399.2,304.2
			c-0.1,0.1-0.2,0.1-0.3,0.1c-0.2,0-0.3-0.1-0.4-0.2l-2-3c-0.1-0.2-0.1-0.4,0-0.6l2-3c0.2-0.2,0.5-0.3,0.7-0.1
			c0.2,0.2,0.3,0.5,0.1,0.7l-1.8,2.7l1.8,2.7C-398.9,303.7-399,304-399.2,304.2z M-399,292.3h-4.3l4.3-4.3V292.3z M-394,297l-3,8
			c-0.1,0.2-0.3,0.3-0.5,0.3c-0.1,0-0.1,0-0.2,0c-0.3-0.1-0.4-0.4-0.3-0.6l3-8c0.1-0.3,0.4-0.4,0.6-0.3
			C-394.1,296.4-393.9,296.7-394,297z M-390.1,301.1l-2,3c-0.1,0.1-0.3,0.2-0.4,0.2c-0.1,0-0.2,0-0.3-0.1c-0.2-0.2-0.3-0.5-0.1-0.7
			l1.8-2.7l-1.8-2.7c-0.2-0.2-0.1-0.5,0.1-0.7c0.2-0.2,0.5-0.1,0.7,0.1l2,3C-390,300.7-390,300.9-390.1,301.1z"/>
	</g>
</g>
</svg>
