<?xml version="1.0" encoding="utf-8"?>
<!-- Generator: Adobe Illustrator 19.0.0, SVG Export Plug-In . SVG Version: 6.00 Build 0)  -->
<svg version="1.1" id="Layer_1" xmlns="http://www.w3.org/2000/svg" xmlns:xlink="http://www.w3.org/1999/xlink" x="0px" y="0px"
	 viewBox="-408 286.3 24 24" style="enable-background:new -408 286.3 24 24;" xml:space="preserve">
<g>
	<g>
		<path d="M-390.3,306.1c-0.2-0.1-0.3-0.1-0.5,0c-0.6,0.4-1.4,0.2-1.9-0.3c-0.2-0.2-0.6-0.2-0.8,0c-0.6,0.7-1.7,0.7-2.2,0
			c-0.2-0.2-0.6-0.2-0.8,0c-0.6,0.7-1.7,0.7-2.2,0c-0.2-0.2-0.6-0.2-0.8,0c-0.3,0.3-0.7,0.5-1.1,0.5c-0.8,0-1.5-0.7-1.5-1.5v-4
			c0-0.8,0.7-1.5,1.5-1.5c0.4,0,0.8,0.2,1.1,0.5c0.2,0.2,0.6,0.2,0.8,0c0.5-0.5,1.2-0.7,1.9-0.3c0.2,0.1,0.3,0.1,0.5,0
			c0.2-0.1,0.5-0.2,0.7-0.2h2c0.3,0,0.5,0.1,0.8,0.2c0.2,0.1,0.3,0.1,0.5,0c0,0,0.2-0.1,0.2-0.1c0.4-0.2,0.9-0.1,1.3,0.1
			c0.2,0.1,0.3,0.1,0.5,0c0.2-0.1,0.3-0.3,0.3-0.4v-12.3c0-0.3-0.2-0.5-0.5-0.5h-11c0,0,0,0-0.1,0c0,0,0,0-0.1,0
			c-0.1,0-0.2,0.1-0.2,0.1l-6,6c-0.1,0.1-0.1,0.1-0.1,0.2c0,0,0,0,0,0.1c0,0,0,0,0,0.1v17c0,0.3,0.2,0.5,0.5,0.5h17
			c0.3,0,0.5-0.2,0.5-0.5v-3.3C-390,306.3-390.1,306.2-390.3,306.1z M-402,288v4.3h-4.3L-402,288z M-394.5,305.3
			c0.3,0,0.5-0.2,0.5-0.5v-3.5h0.5c0.3,0,0.5-0.2,0.5-0.5s-0.2-0.5-0.5-0.5h-2c-0.3,0-0.5,0.2-0.5,0.5s0.2,0.5,0.5,0.5h0.5v3.5
			C-395,305.1-394.8,305.3-394.5,305.3z M-384.5,304.3h-1.5v-3.5c0-0.3-0.2-0.5-0.5-0.5s-0.5,0.2-0.5,0.5v4c0,0.3,0.2,0.5,0.5,0.5h2
			c0.3,0,0.5-0.2,0.5-0.5S-384.2,304.3-384.5,304.3z M-397.5,305.3c0.3,0,0.5-0.2,0.5-0.5v-4c0-0.3-0.2-0.5-0.5-0.5
			s-0.5,0.2-0.5,0.5v1.5h-2v-1.5c0-0.3-0.2-0.5-0.5-0.5s-0.5,0.2-0.5,0.5v4c0,0.3,0.2,0.5,0.5,0.5s0.5-0.2,0.5-0.5v-1.5h2v1.5
			C-398,305.1-397.8,305.3-397.5,305.3z M-388.3,300.3c-0.2-0.1-0.4,0-0.5,0.1l-1.1,1.1l-1.1-1.1c-0.1-0.1-0.4-0.2-0.5-0.1
			c-0.2,0.1-0.3,0.3-0.3,0.5v4c0,0.3,0.2,0.5,0.5,0.5s0.5-0.2,0.5-0.5V302l0.6,0.6c0.2,0.2,0.5,0.2,0.7,0l0.6-0.6v2.8
			c0,0.3,0.2,0.5,0.5,0.5s0.5-0.2,0.5-0.5v-4C-388,300.6-388.1,300.4-388.3,300.3z"/>
	</g>
</g>
</svg>
