<?xml version="1.0" encoding="utf-8"?>
<!-- Generator: Adobe Illustrator 19.0.0, SVG Export Plug-In . SVG Version: 6.00 Build 0)  -->
<svg version="1.1" id="Layer_1" xmlns="http://www.w3.org/2000/svg" xmlns:xlink="http://www.w3.org/1999/xlink" x="0px" y="0px"
	 viewBox="-408 286.3 24 24" style="enable-background:new -408 286.3 24 24;" xml:space="preserve">
<g>
	<g>
		<path d="M-387.5,303.3c-0.3,0-0.5,0.2-0.5,0.5v3c0,0.8-0.7,1.5-1.5,1.5h-16c-0.8,0-1.5-0.7-1.5-1.5v-14.5h19v3.5
			c0,0.3,0.2,0.5,0.5,0.5s0.5-0.2,0.5-0.5v-6c0-1.4-1.1-2.5-2.5-2.5h-16c-1.4,0-2.5,1.1-2.5,2.5v17c0,1.4,1.1,2.5,2.5,2.5h16
			c1.4,0,2.5-1.1,2.5-2.5v-3C-387,303.5-387.2,303.3-387.5,303.3z M-401.5,289.3c0.3,0,0.5,0.2,0.5,0.5s-0.2,0.5-0.5,0.5
			s-0.5-0.2-0.5-0.5S-401.8,289.3-401.5,289.3z M-403.5,289.3c0.3,0,0.5,0.2,0.5,0.5s-0.2,0.5-0.5,0.5s-0.5-0.2-0.5-0.5
			S-403.8,289.3-403.5,289.3z M-405.5,289.3c0.3,0,0.5,0.2,0.5,0.5s-0.2,0.5-0.5,0.5s-0.5-0.2-0.5-0.5S-405.8,289.3-405.5,289.3z
			 M-386.4,297.3c-0.3-0.1-0.5,0.1-0.6,0.4l-1,4c-0.1,0.3,0.1,0.5,0.4,0.6c0,0,0.1,0,0.1,0c0.2,0,0.4-0.2,0.5-0.4l1-4
			C-385.9,297.6-386.1,297.4-386.4,297.3z M-402.5,302.3c0.3,0,0.5-0.2,0.5-0.5v-4c0-0.3-0.2-0.5-0.5-0.5s-0.5,0.2-0.5,0.5v1.5h-2
			v-1.5c0-0.3-0.2-0.5-0.5-0.5s-0.5,0.2-0.5,0.5v4c0,0.3,0.2,0.5,0.5,0.5s0.5-0.2,0.5-0.5v-1.5h2v1.5
			C-403,302.1-402.8,302.3-402.5,302.3z M-384.4,297.3c-0.3-0.1-0.5,0.1-0.6,0.4l-1,4c-0.1,0.3,0.1,0.5,0.4,0.6c0,0,0.1,0,0.1,0
			c0.2,0,0.4-0.2,0.5-0.4l1-4C-383.9,297.6-384.1,297.4-384.4,297.3z M-388.5,300.3c-0.3,0-0.5,0.2-0.5,0.5s0.2,0.5,0.5,0.5
			s0.5-0.2,0.5-0.5S-388.2,300.3-388.5,300.3z M-399.5,302.3c0.3,0,0.5-0.2,0.5-0.5v-3.5h0.5c0.3,0,0.5-0.2,0.5-0.5
			s-0.2-0.5-0.5-0.5h-2c-0.3,0-0.5,0.2-0.5,0.5s0.2,0.5,0.5,0.5h0.5v3.5C-400,302.1-399.8,302.3-399.5,302.3z M-392.5,297.3
			c-0.3,0-0.5,0.2-0.5,0.5v4c0,0.3,0.2,0.5,0.5,0.5s0.5-0.2,0.5-0.5v-1.5h0.5c0.8,0,1.5-0.7,1.5-1.5c0-0.8-0.7-1.5-1.5-1.5H-392.5z
			 M-391,298.8c0,0.3-0.2,0.5-0.5,0.5h-0.5v-1h0.5C-391.2,298.3-391,298.5-391,298.8z M-388.5,298.3c-0.3,0-0.5,0.2-0.5,0.5
			s0.2,0.5,0.5,0.5s0.5-0.2,0.5-0.5S-388.2,298.3-388.5,298.3z M-395.5,302.3c0.3,0,0.5-0.2,0.5-0.5v-3.5h0.5c0.3,0,0.5-0.2,0.5-0.5
			s-0.2-0.5-0.5-0.5h-2c-0.3,0-0.5,0.2-0.5,0.5s0.2,0.5,0.5,0.5h0.5v3.5C-396,302.1-395.8,302.3-395.5,302.3z"/>
	</g>
</g>
</svg>
