<?xml version="1.0" encoding="utf-8"?>
<!-- Generator: Adobe Illustrator 19.0.0, SVG Export Plug-In . SVG Version: 6.00 Build 0)  -->
<svg version="1.1" id="Layer_1" xmlns="http://www.w3.org/2000/svg" xmlns:xlink="http://www.w3.org/1999/xlink" x="0px" y="0px"
	 viewBox="-408 286.3 24 24" style="enable-background:new -408 286.3 24 24;" xml:space="preserve">
<g>
	<g>
		<path d="M-398.4,290.3c-0.3-0.1-0.5,0.1-0.6,0.4l-2,8c-0.1,0.3,0.1,0.5,0.4,0.6c0,0,0.1,0,0.1,0c0.2,0,0.4-0.2,0.5-0.4l2-8
			C-397.9,290.6-398.1,290.4-398.4,290.3z M-402.2,291.4c-0.2-0.2-0.5-0.1-0.7,0.1l-2,3c-0.1,0.2-0.1,0.4,0,0.6l2,3
			c0.1,0.1,0.3,0.2,0.4,0.2c0.1,0,0.2,0,0.3-0.1c0.2-0.2,0.3-0.5,0.1-0.7l-1.8-2.7l1.8-2.7C-401.9,291.8-402,291.5-402.2,291.4z
			 M-384.6,307l-7.7-7.7c0.8-1.3,1.3-2.8,1.3-4.5c0-4.7-3.8-8.5-8.5-8.5s-8.5,3.8-8.5,8.5s3.8,8.5,8.5,8.5c1.7,0,3.2-0.5,4.5-1.3
			l7.7,7.7c0.4,0.4,0.8,0.6,1.4,0.6c1.1,0,1.9-0.9,1.9-1.9C-384,307.9-384.2,307.4-384.6,307z M-399.5,302.3c-4.1,0-7.5-3.4-7.5-7.5
			s3.4-7.5,7.5-7.5s7.5,3.4,7.5,7.5S-395.4,302.3-399.5,302.3z M-394.1,294.5l-2-3c-0.2-0.2-0.5-0.3-0.7-0.1
			c-0.2,0.2-0.3,0.5-0.1,0.7l1.8,2.7l-1.8,2.7c-0.2,0.2-0.1,0.5,0.1,0.7c0.1,0.1,0.2,0.1,0.3,0.1c0.2,0,0.3-0.1,0.4-0.2l2-3
			C-394,294.9-394,294.7-394.1,294.5z"/>
	</g>
</g>
</svg>
