<?xml version="1.0" encoding="utf-8"?>
<!-- Generator: Adobe Illustrator 19.0.0, SVG Export Plug-In . SVG Version: 6.00 Build 0)  -->
<svg version="1.1" id="Layer_1" xmlns="http://www.w3.org/2000/svg" xmlns:xlink="http://www.w3.org/1999/xlink" x="0px" y="0px"
	 viewBox="-408 286.3 24 24" style="enable-background:new -408 286.3 24 24;" xml:space="preserve">
<g>
	<g>
		<path d="M-388.4,300.9c-0.2-0.1-0.5,0.1-0.6,0.3l-1.1,2.4c0,0.1-0.1,0.2,0,0.3c0.3,1.5-0.5,3.1-1.3,4c-0.8,0.8-2.2,1.3-3.7,1.3
			c-1.4,0-2.6-0.5-3.4-1.3c-0.1-0.1-0.4-0.4-0.5-0.8c-0.1,0.1-0.2,0.3-0.4,0.3h-5c-0.3,0-0.5-0.2-0.5-0.5v-7c0-0.3,0.2-0.5,0.5-0.5
			h5c0.3,0,0.5,0.2,0.5,0.5v6.4c0.2-0.4,0.5-0.7,0.9-0.8c0.1,0,0.1,0,0.2-0.1c0.1-0.1,0.3-0.2,0.5-0.4c0.1-0.1,0.1-0.2,0.1-0.3
			c0-0.1,0-0.1,0.1-0.2c0.1-0.2,0.1-0.4,0.2-0.7v-0.1c0-0.1,0-0.2,0-0.3v-3.4c0-0.3,0.2-0.5,0.5-0.5h3.1l0.4-1h-11.6
			c-0.3,0-0.5-0.2-0.5-0.5v-4c0-0.3,0.2-0.5,0.5-0.5h13.4c0.1,0,0.2,0,0.2,0.1l1-2.3c0.1-0.1,0-0.3,0-0.5c-0.1-0.1-0.2-0.2-0.4-0.2
			c0,0-0.2,0-0.2,0h-15c-1.4,0-2.5,1.1-2.5,2.5v15c0,1.4,1.1,2.5,2.5,2.5h15c1.4,0,2.5-1.1,2.5-2.5v-6.4
			C-388,301.2-388.2,301-388.4,300.9z M-390.7,302.1c0.2,0,0.3-0.1,0.3-0.3l0.9-1.9l-2.6-1.3l-0.8,1.9c-0.1,0.1-0.1,0.3,0,0.4
			c0.1,0.1,0.2,0.2,0.3,0.3c0.5,0.2,0.9,0.4,1.3,0.8c0.1,0.1,0.2,0.1,0.3,0.1C-390.8,302.2-390.8,302.2-390.7,302.1z M-385.7,286.3
			c-0.7,0-1.3,0.4-1.6,1l-4.4,10.4l2.6,1.3l4.9-10.3c0.1-0.2,0.2-0.5,0.2-0.8C-384,287-384.8,286.3-385.7,286.3z M-395.4,302.9
			c-0.6,0.6-0.8,1.2-0.9,1.7c-0.1,0.4-0.2,0.7-0.5,1c-0.6,0.6-0.9,0.7-0.9,0.7c-0.2,0.1-0.3,0.2-0.3,0.4c0,0.2,0,0.3,0.1,0.5
			c0.7,0.7,1.6,1,2.7,1c1.2,0,2.4-0.4,3-1c1-1,1.6-3.1,0.5-4.2C-392.7,301.9-394.3,301.9-395.4,302.9z"/>
	</g>
</g>
</svg>
