<?xml version="1.0" encoding="utf-8"?>
<!-- Generator: Adobe Illustrator 19.0.0, SVG Export Plug-In . SVG Version: 6.00 Build 0)  -->
<svg version="1.1" id="Layer_1" xmlns="http://www.w3.org/2000/svg" xmlns:xlink="http://www.w3.org/1999/xlink" x="0px" y="0px"
	 viewBox="0 0 30 30" style="enable-background:new 0 0 30 30;" xml:space="preserve">
<g>
	<g>
		<path d="M20.5,30h-4c-0.3,0-0.5-0.2-0.5-0.5l-1-15l0,0l-1,15c0,0.3-0.2,0.5-0.5,0.5h-4C9.2,30,9,29.8,9,29.5l-1-23
			c0,0,0-0.1,0-0.1l1-5l0-0.9c0-0.1,0.1-0.3,0.1-0.4S9.4,0,9.5,0l0,0l11,0C20.8,0,21,0.2,21,0.5v1l1,4.9c0,0,0,0.1,0,0.1l-1,23
			C21,29.8,20.8,30,20.5,30z M17,29H20l1-22.5l-1-4.9L20,1L10,1v0.5l-1,5L10,29H13l1-14.5l0.5-6C14.5,8.2,14.7,8,15,8
			s0.5,0.2,0.5,0.5l0.5,6L17,29z"/>
	</g>
	<g>
		<path d="M12.5,2C12.2,2,12,1.8,12,1.5v-1C12,0.2,12.2,0,12.5,0S13,0.2,13,0.5v1C13,1.8,12.8,2,12.5,2z"/>
	</g>
	<g>
		<path d="M17.5,2C17.2,2,17,1.8,17,1.5v-1C17,0.2,17.2,0,17.5,0S18,0.2,18,0.5v1C18,1.8,17.8,2,17.5,2z"/>
	</g>
</g>
</svg>
