<?xml version="1.0" encoding="utf-8"?>
<!-- Generator: Adobe Illustrator 19.0.0, SVG Export Plug-In . SVG Version: 6.00 Build 0)  -->
<svg version="1.1" id="Layer_1" xmlns="http://www.w3.org/2000/svg" xmlns:xlink="http://www.w3.org/1999/xlink" x="0px" y="0px"
	 viewBox="0 0 30 30" style="enable-background:new 0 0 30 30;" xml:space="preserve">
<g>
	<g>
		<path d="M15.5,6.5h-1.3c-0.5,0-1.1-0.3-1.4-0.7l-1.3-2c-0.1-0.1-0.1-0.3-0.1-0.4c0-0.1,1-3.4,3.5-3.4s3.4,3.2,3.5,3.4
			c0,0.2,0,0.3-0.1,0.4l-1.5,2C16.6,6.2,16,6.5,15.5,6.5z M12.5,3.4l1.1,1.8c0.1,0.2,0.3,0.3,0.6,0.3h1.3c0.2,0,0.5-0.1,0.6-0.3
			l1.3-1.8C17.2,2.8,16.4,1,15,1C13.6,1,12.8,2.8,12.5,3.4z"/>
	</g>
	<g>
		<path d="M15,30c-0.1,0-0.2,0-0.3-0.1l-5-4c-0.1-0.1-0.2-0.3-0.2-0.5l4-19.5c0.1-0.3,0.3-0.4,0.6-0.4c0.3,0.1,0.4,0.3,0.4,0.6
			l-3.9,19.2l4.4,3.6l4.4-3.6L15,6.1c-0.1-0.3,0.1-0.5,0.4-0.6c0.3-0.1,0.5,0.1,0.6,0.4l4.5,19.5c0,0.2,0,0.4-0.2,0.5l-5,4
			C15.2,30,15.1,30,15,30z"/>
	</g>
	<g>
		<path d="M12,3c-0.1,0-0.2,0-0.3-0.1l-2.5-2C9,0.7,8.9,0.4,9.1,0.2C9.3,0,9.6-0.1,9.8,0.1l2.5,2c0.2,0.2,0.3,0.5,0.1,0.7
			C12.3,2.9,12.1,3,12,3z"/>
	</g>
	<g>
		<path d="M18,3.1c-0.1,0-0.3-0.1-0.4-0.2c-0.2-0.2-0.2-0.5,0.1-0.7l2.5-2.1c0.2-0.2,0.5-0.2,0.7,0.1c0.2,0.2,0.2,0.5-0.1,0.7
			L18.3,3C18.2,3.1,18.1,3.1,18,3.1z"/>
	</g>
</g>
</svg>
