<?xml version="1.0" encoding="iso-8859-1"?>
<!-- Generator: Adobe Illustrator 19.0.0, SVG Export Plug-In . SVG Version: 6.00 Build 0)  -->
<svg version="1.1" id="Layer_1" xmlns="http://www.w3.org/2000/svg" xmlns:xlink="http://www.w3.org/1999/xlink" x="0px" y="0px"
	 viewBox="0 0 24 24" style="enable-background:new 0 0 24 24;" xml:space="preserve">
<path d="M5.629,15.83v0.793c0,1.93,1.57,3.5,3.5,3.5h4.929c1.202,0,2.332-0.468,3.182-1.318l1.768-1.768
	c1.045-1.045,1.621-2.436,1.621-3.914s-0.576-2.869-1.621-3.914l-4.974-4.974c-0.479-0.479-1.313-0.479-1.793,0
	c-0.494,0.494-0.494,1.299,0,1.793l0.241,0.241c0.098,0.098,0.146,0.226,0.146,0.354s-0.049,0.256-0.146,0.354
	c-0.195,0.195-0.512,0.195-0.707,0l-1.491-1.491c-0.494-0.494-1.299-0.494-1.793,0c-0.239,0.24-0.371,0.558-0.371,0.896
	s0.132,0.657,0.371,0.896L9.983,8.77c0.098,0.098,0.146,0.226,0.146,0.354s-0.049,0.256-0.146,0.354
	c-0.195,0.195-0.512,0.195-0.707,0L7.035,7.236c-0.494-0.494-1.299-0.494-1.793,0s-0.494,1.299,0,1.793l2.241,2.241
	c0.098,0.098,0.146,0.226,0.146,0.354s-0.049,0.256-0.146,0.354c-0.195,0.195-0.512,0.195-0.707,0l-1.241-1.241
	c-0.479-0.479-1.313-0.479-1.793,0c-0.239,0.24-0.371,0.558-0.371,0.896s0.132,0.657,0.371,0.896l3.741,3.741
	c0.098,0.098,0.146,0.226,0.146,0.354s-0.049,0.256-0.146,0.354c-0.195,0.195-0.512,0.195-0.707,0L5.629,15.83z"/>
<g>
</g>
<g>
</g>
<g>
</g>
<g>
</g>
<g>
</g>
<g>
</g>
<g>
</g>
<g>
</g>
<g>
</g>
<g>
</g>
<g>
</g>
<g>
</g>
<g>
</g>
<g>
</g>
<g>
</g>
</svg>
