<?xml version="1.0" encoding="iso-8859-1"?>
<!-- Generator: Adobe Illustrator 19.0.0, SVG Export Plug-In . SVG Version: 6.00 Build 0)  -->
<svg version="1.1" id="Layer_1" xmlns="http://www.w3.org/2000/svg" xmlns:xlink="http://www.w3.org/1999/xlink" x="0px" y="0px"
	 viewBox="0 0 24 24" style="enable-background:new 0 0 24 24;" xml:space="preserve">
<g>
	<g>
		<path d="M5.644,12.851c-0.745-0.745-0.745-1.957,0-2.701c0.751-0.751,1.963-0.75,2.707-0.006l1.772,1.772
			c0.087-0.295,0.247-0.574,0.48-0.807c0.688-0.69,1.767-0.746,2.515-0.174c0.086-0.303,0.248-0.588,0.485-0.826
			c0.257-0.257,0.569-0.426,0.897-0.507V5h-14v13h10.293L5.644,12.851z"/>
		<path d="M14.5,3.5C14.5,1.57,12.93,0,11,0H4C2.07,0,0.5,1.57,0.5,3.5V4h14V3.5z M9,3H6C5.724,3,5.5,2.776,5.5,2.5S5.724,2,6,2h3
			c0.276,0,0.5,0.224,0.5,0.5S9.276,3,9,3z M11.02,3c-0.276,0-0.505-0.224-0.505-0.5S10.734,2,11.01,2h0.01
			c0.276,0,0.5,0.224,0.5,0.5S11.296,3,11.02,3z"/>
		<path d="M6.5,22.5c0-1.103,0.823-2.051,1.914-2.207l4.038-0.634L11.793,19H0.5v1.5C0.5,22.43,2.07,24,4,24h4
			C7.173,24,6.5,23.327,6.5,22.5z"/>
	</g>
	<path d="M7,10.584c-0.233,0-0.466,0.089-0.644,0.266c-0.361,0.361-0.361,0.938-0.006,1.293l7.503,7.503
		c0.133,0.133,0.18,0.33,0.122,0.508c-0.059,0.179-0.212,0.31-0.398,0.339l-5.015,0.788C7.954,21.369,7.5,21.892,7.5,22.5
		C7.5,22.776,7.724,23,8,23h9.429c1.202,0,2.332-0.468,3.182-1.318l1.573-1.573c0.849-0.849,1.316-1.977,1.316-3.177
		c0-1.121-0.416-2.195-1.169-3.024l-3.744-4.115c-0.339-0.336-0.916-0.337-1.271,0.017c-0.178,0.178-0.272,0.406-0.272,0.649
		s0.095,0.472,0.267,0.644l0.043,0.043c0.195,0.195,0.195,0.512,0,0.707c-0.192,0.192-0.501,0.195-0.697,0.01l0,0
		c0,0,0-0.001-0.001-0.001v0l-0.001,0l0,0c0,0,0,0,0,0l0,0c0,0,0,0,0,0s0,0-0.001-0.001l0,0l0,0l0,0c0,0,0,0,0,0l0,0
		c0,0-0.001-0.001-0.001-0.001s0,0-0.001-0.001l-1.043-1.043c-0.354-0.354-0.933-0.354-1.287,0
		c-0.361,0.361-0.361,0.938-0.006,1.293l1.043,1.043c0.098,0.098,0.146,0.226,0.146,0.354s-0.049,0.256-0.146,0.354
		c-0.195,0.195-0.512,0.195-0.707,0l-2.043-2.043c-0.354-0.354-0.933-0.354-1.287,0c-0.361,0.361-0.361,0.938-0.006,1.293
		l2.043,2.043c0.098,0.098,0.146,0.226,0.146,0.354s-0.049,0.256-0.146,0.354c-0.195,0.195-0.512,0.195-0.707,0l-5.003-5.003
		C7.466,10.673,7.233,10.584,7,10.584z"/>
</g>
<g>
</g>
<g>
</g>
<g>
</g>
<g>
</g>
<g>
</g>
<g>
</g>
<g>
</g>
<g>
</g>
<g>
</g>
<g>
</g>
<g>
</g>
<g>
</g>
<g>
</g>
<g>
</g>
<g>
</g>
</svg>
