<?xml version="1.0" encoding="iso-8859-1"?>
<!-- Generator: Adobe Illustrator 19.0.0, SVG Export Plug-In . SVG Version: 6.00 Build 0)  -->
<svg version="1.1" id="Layer_1" xmlns="http://www.w3.org/2000/svg" xmlns:xlink="http://www.w3.org/1999/xlink" x="0px" y="0px"
	 viewBox="0 0 24 24" style="enable-background:new 0 0 24 24;" xml:space="preserve">
<g>
	<g>
		<path d="M12,3c-0.276,0-0.5-0.224-0.5-0.5v-2C11.5,0.224,11.724,0,12,0s0.5,0.224,0.5,0.5v2C12.5,2.776,12.276,3,12,3z"/>
	</g>
	<g>
		<path d="M20,9h-2c-0.276,0-0.5-0.224-0.5-0.5S17.724,8,18,8h2c0.276,0,0.5,0.224,0.5,0.5S20.276,9,20,9z"/>
	</g>
	<g>
		<path d="M6,9H4C3.724,9,3.5,8.776,3.5,8.5S3.724,8,4,8h2c0.276,0,0.5,0.224,0.5,0.5S6.276,9,6,9z"/>
	</g>
	<g>
		<path d="M16.243,4.757c-0.128,0-0.256-0.049-0.354-0.146c-0.195-0.195-0.195-0.512,0-0.707l1.414-1.414
			c0.195-0.195,0.512-0.195,0.707,0s0.195,0.512,0,0.707l-1.414,1.414C16.499,4.708,16.371,4.757,16.243,4.757z"/>
	</g>
	<g>
		<path d="M7.757,4.757c-0.128,0-0.256-0.049-0.354-0.146L5.99,3.197c-0.195-0.195-0.195-0.512,0-0.707s0.512-0.195,0.707,0
			l1.414,1.414c0.195,0.195,0.195,0.512,0,0.707C8.013,4.708,7.885,4.757,7.757,4.757z"/>
	</g>
	<g>
		<path d="M15,9c-0.276,0-0.5-0.224-0.5-0.5C14.5,7.122,13.378,6,12,6S9.5,7.122,9.5,8.5C9.5,8.776,9.276,9,9,9S8.5,8.776,8.5,8.5
			C8.5,6.57,10.07,5,12,5s3.5,1.57,3.5,3.5C15.5,8.776,15.276,9,15,9z"/>
	</g>
	<path d="M16.602,15.136c-0.402-0.537-1.155-0.665-1.714-0.294l-1.61,1.074c-0.154,0.102-0.352,0.112-0.513,0.025
		C12.602,15.854,12.5,15.685,12.5,15.5v-7C12.5,8.224,12.276,8,12,8s-0.5,0.224-0.5,0.5V14c0,0.276-0.224,0.5-0.5,0.5
		s-0.5-0.224-0.5-0.5v-2.5c0-0.276-0.224-0.5-0.5-0.5s-0.5,0.224-0.5,0.5V14c0,0.276-0.224,0.5-0.5,0.5S8.5,14.276,8.5,14v-1.5
		C8.5,12.224,8.276,12,8,12s-0.5,0.224-0.5,0.5V14c0,0.276-0.224,0.5-0.5,0.5S6.5,14.276,6.5,14v-0.5C6.5,13.224,6.276,13,6,13
		s-0.5,0.224-0.5,0.5v4c0,0.98,0.407,1.864,1.058,2.5H6c-0.276,0-0.5,0.224-0.5,0.5v3C5.5,23.776,5.724,24,6,24h7
		c0.276,0,0.5-0.224,0.5-0.5v-3c0-0.276-0.224-0.5-0.5-0.5h-0.303l3.874-4.226C16.733,15.597,16.746,15.328,16.602,15.136z"/>
</g>
<g>
</g>
<g>
</g>
<g>
</g>
<g>
</g>
<g>
</g>
<g>
</g>
<g>
</g>
<g>
</g>
<g>
</g>
<g>
</g>
<g>
</g>
<g>
</g>
<g>
</g>
<g>
</g>
<g>
</g>
</svg>
