<?xml version="1.0" encoding="iso-8859-1"?>
<!-- Generator: Adobe Illustrator 19.0.0, SVG Export Plug-In . SVG Version: 6.00 Build 0)  -->
<svg version="1.1" id="Layer_1" xmlns="http://www.w3.org/2000/svg" xmlns:xlink="http://www.w3.org/1999/xlink" x="0px" y="0px"
	 viewBox="0 0 24 24" style="enable-background:new 0 0 24 24;" xml:space="preserve">
<g>
	<g>
		<path d="M8.76,5.516C8.494,5.442,8.22,5.607,8.151,5.874c-0.747,2.885-0.987,8.015-0.003,12.239
			C8.201,18.344,8.407,18.5,8.634,18.5c0.038,0,0.076-0.004,0.113-0.014c0.27-0.062,0.437-0.331,0.374-0.6
			C8.183,13.862,8.42,8.823,9.118,6.125C9.188,5.858,9.027,5.585,8.76,5.516z M15.239,5.517c-0.267,0.068-0.427,0.341-0.358,0.609
			c0.698,2.698,0.935,7.737-0.003,11.761c-0.063,0.268,0.105,0.537,0.374,0.6c0.038,0.009,0.076,0.013,0.114,0.013
			c0.227,0,0.432-0.156,0.485-0.386c0.984-4.224,0.744-9.354-0.003-12.239C15.78,5.608,15.507,5.444,15.239,5.517z M16.5,0
			c-1.291,0-2.37,0.756-3.082,1.662c-0.08-0.54-0.236-1.001-0.538-1.305c-0.464-0.464-1.286-0.47-1.753-0.002
			c-0.303,0.305-0.46,0.769-0.542,1.313C9.875,0.759,8.793,0,7.5,0c-2.61,0-4,6.098-4,10.5c0,3.46,1.231,13.5,5,13.5
			c2.035,0,2.589-0.919,2.956-1.528C11.694,22.077,11.761,22,12,22s0.306,0.077,0.544,0.472C12.911,23.081,13.465,24,15.5,24
			c3.769,0,5-10.04,5-13.5C20.5,6.098,19.11,0,16.5,0z M15.5,23c-1.47,0-1.775-0.507-2.099-1.044C13.158,21.552,12.825,21,12,21
			s-1.158,0.552-1.402,0.955c-0.324,0.537-0.629,1.044-2.099,1.044c-2.282,0-4-7.583-4-12.5c0-4.617,1.542-9.5,3-9.5
			c1.701,0,2.997,1.905,3,2.861v0.003c0,0.002,0.001,0.003,0.001,0.004c-0.031,0.741-0.521,12.865,0.009,15.724
			C10.554,19.832,10.764,20,11,20c0.03,0,0.061-0.002,0.093-0.009c0.271-0.05,0.45-0.312,0.4-0.583
			c-0.515-2.776,0.003-15.397,0.008-15.524c0-0.006-0.003-0.011-0.003-0.017c0-0.001,0.001-0.003,0.001-0.004V3.619
			c-0.002-0.935-0.004-2.217,0.336-2.558c0.079-0.079,0.262-0.072,0.337,0.002c0.335,0.336,0.331,1.59,0.328,2.506v0.294
			c0,0.003,0.002,0.006,0.002,0.01c0,0.004-0.002,0.008-0.002,0.012c0.006,0.127,0.523,12.748,0.008,15.524
			c-0.051,0.271,0.129,0.533,0.4,0.583C12.939,19.998,12.97,20,13,20c0.237,0,0.447-0.168,0.492-0.408
			c0.532-2.873,0.035-15.104,0.009-15.736C13.507,2.899,14.802,1,16.5,1c1.486,0,3,4.794,3,9.5C19.5,15.417,17.782,23,15.5,23z"/>
	</g>
</g>
</svg>
