<?xml version="1.0" encoding="iso-8859-1"?>
<!-- Generator: Adobe Illustrator 19.0.0, SVG Export Plug-In . SVG Version: 6.00 Build 0)  -->
<svg version="1.1" id="Layer_1" xmlns="http://www.w3.org/2000/svg" xmlns:xlink="http://www.w3.org/1999/xlink" x="0px" y="0px"
	 viewBox="0 0 24 24" style="enable-background:new 0 0 24 24;" xml:space="preserve">
<g>
	<g>
		<path d="M23.995,3.005c0-1.654-1.346-3-3-3c-0.9,0-1.736,0.4-2.304,1.086c-1.568-0.392-3.123,0.575-3.564,2.046
			c-1.253,0.377-2.132,1.535-2.132,2.868c0,0.778,0.22,1.497,0.616,2.048L12.461,9.06c-3.04-1.779-5.84,0.56-8.268,2.988
			c-1.062,1.062-2.87,3.306-3.375,4.744c-0.136,0.372-0.238,0.737-0.313,1.116c-0.094,0.472-0.457,5.029-0.498,5.547
			c-0.012,0.146,0.041,0.289,0.145,0.393c0.095,0.094,0.222,0.146,0.354,0.146c0.013,0,0.026,0,0.039-0.001
			c0.518-0.041,5.07-0.403,5.546-0.497c1.701-0.336,4.377-2.166,5.88-3.669c2.671-2.671,4.779-5.539,2.795-8.553l1.122-0.93
			c0.557,0.424,1.301,0.661,2.108,0.661c1.333,0,2.491-0.879,2.868-2.132c1.253-0.377,2.132-1.535,2.132-2.868
			c0-0.231-0.029-0.464-0.086-0.696C23.595,4.742,23.995,3.906,23.995,3.005z M1.379,19.097l3.525,3.525
			c-1.009,0.094-2.578,0.226-3.854,0.328C1.153,21.674,1.285,20.106,1.379,19.097z M11.263,19.12
			c-1.334,1.334-3.634,2.917-5.122,3.325l-4.587-4.587c0.058-0.242,0.115-0.482,0.204-0.728c0.4-1.137,1.947-3.18,3.141-4.374
			c2.065-2.065,3.735-3.336,5.352-3.336c0.661,0,1.313,0.23,1.98,0.687c0.33,0.224,0.628,0.469,0.909,0.75
			c0,0,0.001,0.001,0.001,0.001c0,0,0.001,0.001,0.001,0.001c0.207,0.207,0.38,0.412,0.539,0.617
			C15.561,13.906,14.149,16.235,11.263,19.12z M22.056,4.695c-0.201,0.127-0.285,0.379-0.2,0.601
			c0.092,0.238,0.138,0.478,0.138,0.711c0,0.962-0.688,1.788-1.636,1.962c-0.204,0.037-0.363,0.197-0.401,0.401
			c-0.174,0.948-0.999,1.636-1.962,1.636c-0.703,0-1.348-0.246-1.724-0.658c-0.181-0.197-0.484-0.217-0.688-0.048l-1.426,1.181
			c-0.097-0.11-0.199-0.219-0.309-0.329c-0.177-0.177-0.359-0.342-0.55-0.497l1.348-1.178c0.108-0.094,0.17-0.228,0.171-0.371
			c0.001-0.143-0.058-0.279-0.163-0.375c-0.413-0.377-0.659-1.022-0.659-1.725c0-0.962,0.688-1.788,1.636-1.962
			c0.204-0.038,0.364-0.198,0.401-0.401c0.216-1.178,1.448-1.968,2.674-1.499c0.222,0.084,0.475,0.002,0.601-0.2
			c0.371-0.587,1.002-0.938,1.688-0.938c1.103,0,2,0.897,2,2C22.995,3.692,22.644,4.323,22.056,4.695z"/>
	</g>
</g>
</svg>
