<?xml version="1.0" encoding="iso-8859-1"?>
<!-- Generator: Adobe Illustrator 19.0.0, SVG Export Plug-In . SVG Version: 6.00 Build 0)  -->
<svg version="1.1" id="Layer_1" xmlns="http://www.w3.org/2000/svg" xmlns:xlink="http://www.w3.org/1999/xlink" x="0px" y="0px"
	 viewBox="0 0 24 24" style="enable-background:new 0 0 24 24;" xml:space="preserve">
<g>
	<g>
		<path d="M9,10.5c-0.828,0-1.5,0.672-1.5,1.5s0.672,1.5,1.5,1.5s1.5-0.672,1.5-1.5S9.828,10.5,9,10.5z M12,0.5
			C5.659,0.5,0.5,5.659,0.5,12S5.659,23.5,12,23.5S23.5,18.341,23.5,12S18.341,0.5,12,0.5z M12,17.5c-3.033,0-5.5-2.467-5.5-5.5
			S8.967,6.5,12,6.5s5.5,2.467,5.5,5.5S15.033,17.5,12,17.5z M12,10.5c0.828,0,1.5-0.672,1.5-1.5S12.828,7.5,12,7.5
			S10.5,8.172,10.5,9S11.172,10.5,12,10.5z M12,13.5c-0.828,0-1.5,0.672-1.5,1.5s0.672,1.5,1.5,1.5s1.5-0.672,1.5-1.5
			S12.828,13.5,12,13.5z M13.5,12c0,0.828,0.672,1.5,1.5,1.5s1.5-0.672,1.5-1.5s-0.672-1.5-1.5-1.5S13.5,11.172,13.5,12z"/>
	</g>
</g>
</svg>
