<?xml version="1.0" encoding="iso-8859-1"?>
<!-- Generator: Adobe Illustrator 19.0.0, SVG Export Plug-In . SVG Version: 6.00 Build 0)  -->
<svg version="1.1" id="Layer_1" xmlns="http://www.w3.org/2000/svg" xmlns:xlink="http://www.w3.org/1999/xlink" x="0px" y="0px"
	 viewBox="0 0 24 24" style="enable-background:new 0 0 24 24;" xml:space="preserve">
<g>
	<g>
		<path d="M23.601,5.906l-0.464-1.393c-0.204-0.61-0.783-1.021-1.443-1.022c-3.043-0.006-5.28-0.935-7.254-1.753
			C12.905,1.102,11.456,0.5,9.938,0.5c-2.996,0-6.729,1.247-8.867,2.479C0.708,3.188,0.458,3.526,0.362,3.932
			C0.268,4.335,0.346,4.765,0.578,5.111l1.127,1.691c0.31,0.466,0.858,0.721,1.441,0.66c1.125-0.126,1.901-0.544,2.651-0.948
			C6.765,5.993,7.679,5.5,9.438,5.5c1.996,0,2.716,0.674,3.282,1.363c0.786,0.96,1.218,2.188,1.218,3.456V23
			c0,0.276,0.224,0.5,0.5,0.5h5c0.276,0,0.5-0.224,0.5-0.5V9.76c0-0.672,0.431-1.249,1.072-1.437
			c0.506-0.147,1.052-0.319,1.642-0.519C23.435,7.538,23.859,6.687,23.601,5.906z M18.938,17.5h-4v-4h4V17.5z"/>
	</g>
</g>
</svg>
