<?xml version="1.0" encoding="utf-8"?>
<!-- Generator: Adobe Illustrator 19.0.0, SVG Export Plug-In . SVG Version: 6.00 Build 0)  -->
<svg version="1.1" id="Layer_1" xmlns="http://www.w3.org/2000/svg" xmlns:xlink="http://www.w3.org/1999/xlink" x="0px" y="0px"
	 viewBox="0 0 30 30" style="enable-background:new 0 0 30 30;" xml:space="preserve">
<g>
	<path d="M23,12c-0.5,0-1.1,0.1-1.6,0.2C19.8,9,16.6,7,13.1,7c-4.6,0-8.5,3.4-9.2,8C1.6,15.7,0,17.9,0,20.4C0,23.5,2.5,26,5.5,26
		h17.7c0.1,0,0.1,0,0.2,0c3.7-0.2,6.6-3.3,6.6-7C30,15.1,26.9,12,23,12z"/>
	<path d="M12.9,6c0,0,0.2,0,0.2,0c3.5,0,6.7,1.8,8.7,4.8c0.1,0.2,0.3,0.3,0.5,0.2c2.6-0.2,5.2,0.8,6.9,2.8c0.1,0.1,0.2,0.2,0.4,0.2
		c0.1,0,0.1,0,0.2,0c0.2-0.1,0.3-0.2,0.3-0.4l-0.5-0.1l0.5,0c0-3.1-2.5-5.6-5.7-5.6c-0.4,0-0.8,0-1.2,0.1c-1.3-2.5-3.9-4-6.6-4
		c-1.4,0-2.7,0.4-3.9,1.1c-0.2,0.1-0.3,0.3-0.2,0.6C12.5,5.9,12.7,6,12.9,6z"/>
</g>
</svg>
