<?xml version="1.0" encoding="utf-8"?>
<!-- Generator: Adobe Illustrator 19.0.0, SVG Export Plug-In . SVG Version: 6.00 Build 0)  -->
<svg version="1.1" id="Layer_1" xmlns="http://www.w3.org/2000/svg" xmlns:xlink="http://www.w3.org/1999/xlink" x="0px" y="0px"
	 viewBox="0 0 30 30" style="enable-background:new 0 0 30 30;" xml:space="preserve">
<g>
	<path d="M16.9,2.3c3.3,1,5.7,3.8,6.1,7.2c0,0.2,0.2,0.4,0.5,0.4c1.7,0.1,3.4,0.7,4.7,1.8c0.1,0.1,0.2,0.1,0.3,0.1
		c0.1,0,0.1,0,0.2,0c0.2-0.1,0.3-0.2,0.3-0.4c0-0.3,0.1-0.7,0.1-1C29,5.3,24.7,1,19.5,1c-0.9,0-1.8,0.1-2.6,0.4
		c-0.2,0.1-0.4,0.3-0.4,0.5S16.6,2.3,16.9,2.3z"/>
	<path d="M8.9,26.3c-0.1-0.2-0.4-0.3-0.7-0.2L8,26.2V26c0-0.3-0.2-0.5-0.5-0.5S7,25.7,7,26v0.2l-0.3-0.1c-0.2-0.1-0.5,0-0.7,0.2
		c-0.1,0.2,0,0.5,0.2,0.7L6.4,27l-0.1,0.1c-0.2,0.1-0.3,0.4-0.2,0.7C6.1,27.9,6.3,28,6.5,28c0.1,0,0.2,0,0.2-0.1L7,27.8V28
		c0,0.3,0.2,0.5,0.5,0.5S8,28.3,8,28v-0.2l0.3,0.1C8.3,28,8.4,28,8.5,28c0.2,0,0.4-0.1,0.4-0.3c0.1-0.2,0-0.5-0.2-0.7L8.6,27
		l0.1-0.1C9,26.8,9.1,26.5,8.9,26.3z"/>
	<path d="M8.9,23.8l2-3c0.2-0.2,0.1-0.5-0.1-0.7c-0.2-0.2-0.5-0.1-0.7,0.1l-2,3c-0.2,0.2-0.1,0.5,0.1,0.7C8.3,24,8.4,24,8.5,24
		C8.7,24,8.8,23.9,8.9,23.8z"/>
	<path d="M13.1,25.2l-2,3c-0.2,0.2-0.1,0.5,0.1,0.7c0.1,0.1,0.2,0.1,0.3,0.1c0.2,0,0.3-0.1,0.4-0.2l2-3c0.2-0.2,0.1-0.5-0.1-0.7
		C13.6,24.9,13.2,25,13.1,25.2z"/>
	<path d="M21.8,20.1c-0.2-0.2-0.5-0.1-0.7,0.1l-2,3c-0.2,0.2-0.1,0.5,0.1,0.7c0.1,0.1,0.2,0.1,0.3,0.1c0.2,0,0.3-0.1,0.4-0.2l2-3
		C22.1,20.5,22,20.2,21.8,20.1z"/>
	<path d="M18.9,26.3c-0.1-0.2-0.4-0.3-0.7-0.2L18,26.2V26c0-0.3-0.2-0.5-0.5-0.5S17,25.7,17,26v0.2l-0.3-0.1c-0.2-0.1-0.5,0-0.7,0.2
		c-0.1,0.2,0,0.5,0.2,0.7l0.1,0.1l-0.1,0.1c-0.2,0.1-0.3,0.4-0.2,0.7c0.1,0.2,0.3,0.3,0.4,0.3c0.1,0,0.2,0,0.2-0.1l0.3-0.1V28
		c0,0.3,0.2,0.5,0.5,0.5S18,28.3,18,28v-0.2l0.3,0.1c0.1,0,0.1,0.1,0.2,0.1c0.2,0,0.4-0.1,0.4-0.3c0.1-0.2,0-0.5-0.2-0.7L18.6,27
		l0.1-0.1C19,26.8,19.1,26.5,18.9,26.3z"/>
	<path d="M16.3,23.9c0.1,0,0.1,0.1,0.2,0.1c0.2,0,0.4-0.1,0.4-0.3c0.1-0.2,0-0.5-0.2-0.7L16.6,23l0.1-0.1c0.2-0.1,0.3-0.4,0.2-0.7
		c-0.1-0.2-0.4-0.3-0.7-0.2L16,22.2V22c0-0.3-0.2-0.5-0.5-0.5S15,21.7,15,22v0.2l-0.3-0.1c-0.2-0.1-0.5,0-0.7,0.2
		c-0.1,0.2,0,0.5,0.2,0.7l0.1,0.1l-0.1,0.1c-0.2,0.1-0.3,0.4-0.2,0.7c0.1,0.2,0.3,0.3,0.4,0.3c0.1,0,0.2,0,0.2-0.1l0.3-0.1V24
		c0,0.3,0.2,0.5,0.5,0.5S16,24.3,16,24v-0.2L16.3,23.9z"/>
	<path d="M23,11c-0.5,0-1.1,0.1-1.6,0.2C19.8,8,16.6,6,13.1,6c-4.6,0-8.5,3.4-9.2,8C1.6,14.7,0,16.9,0,19.4C0,22.5,2.5,25,5.5,25
		h0.7c0.1,0,0.2,0,0.3-0.1c0.1-0.1,0.2-0.2,0.3-0.2c0.2-0.1,0.3-0.4,0.3-0.6c-0.2-0.5-0.1-1,0.2-1.4l2-3c0.4-0.7,1.4-0.9,2.1-0.4
		c0.7,0.5,0.9,1.4,0.4,2.1l-1.9,2.9c-0.1,0.2-0.1,0.4,0,0.5c0.1,0.2,0.3,0.3,0.4,0.3h1.5c0.2,0,0.3-0.1,0.4-0.2l0.1-0.1
		c0.1-0.2,0.3-0.3,0.5-0.5c0.2-0.1,0.3-0.3,0.3-0.5c0-0.2,0-0.4,0-0.6c0-0.1,0-0.2,0-0.3c-0.1-0.3-0.1-0.6,0.1-1
		c0.2-0.4,0.6-0.7,1.1-0.8c0.1,0,0.2-0.1,0.2-0.1c0.6-0.5,1.5-0.5,2,0c0.1,0.1,0.2,0.1,0.3,0.1c0.5,0.1,0.9,0.4,1.1,0.8
		c0.1,0.2,0.2,0.3,0.4,0.3c0.2,0,0.4-0.1,0.5-0.2l1.5-2.3c0.4-0.7,1.4-0.9,2.1-0.4c0.7,0.5,0.9,1.4,0.4,2.1l-1.9,2.9
		c-0.1,0.2-0.1,0.4,0,0.5c0.1,0.2,0.3,0.3,0.4,0.3h2c0.1,0,0.1,0,0.2,0c3.7-0.2,6.6-3.3,6.6-7C30,14.1,26.9,11,23,11z"/>
</g>
</svg>
