<?xml version="1.0" encoding="utf-8"?>
<!-- Generator: Adobe Illustrator 19.0.0, SVG Export Plug-In . SVG Version: 6.00 Build 0)  -->
<svg version="1.1" id="Layer_1" xmlns="http://www.w3.org/2000/svg" xmlns:xlink="http://www.w3.org/1999/xlink" x="0px" y="0px"
	 viewBox="0 0 30 30" style="enable-background:new 0 0 30 30;" xml:space="preserve">
<g>
	<path d="M6,12.5C6,12.8,6.2,13,6.5,13S7,12.8,7,12.5c0-2.4,0.3-3.7,1.1-4.4s2-1.1,4.4-1.1C12.8,7,13,6.8,13,6.5S12.8,6,12.5,6
		c-2.4,0-3.7-0.3-4.4-1.1S7,2.9,7,0.5C7,0.2,6.8,0,6.5,0S6,0.2,6,0.5c0,2.4-0.3,3.7-1.1,4.4S2.9,6,0.5,6C0.2,6,0,6.2,0,6.5
		S0.2,7,0.5,7c2.4,0,3.7,0.3,4.4,1.1S6,10.1,6,12.5z"/>
	<path d="M12,3.5c0.9,0,1.4,0.1,1.6,0.4C13.9,4.1,14,4.6,14,5.5C14,5.8,14.2,6,14.5,6S15,5.8,15,5.5c0-0.9,0.1-1.4,0.4-1.6
		c0.3-0.3,0.7-0.4,1.6-0.4c0.3,0,0.5-0.2,0.5-0.5S17.3,2.5,17,2.5c-0.9,0-1.4-0.1-1.6-0.4C15.1,1.9,15,1.4,15,0.5
		C15,0.2,14.8,0,14.5,0S14,0.2,14,0.5c0,0.9-0.1,1.4-0.4,1.6c-0.3,0.3-0.7,0.4-1.6,0.4c-0.3,0-0.5,0.2-0.5,0.5S11.7,3.5,12,3.5z"/>
	<path d="M12.7,14.3c-0.5-0.5-0.7-1.3-0.7-2.8c0-0.3-0.2-0.5-0.5-0.5S11,11.2,11,11.5c0,1.6-0.2,2.4-0.7,2.8C9.9,14.8,9.1,15,7.5,15
		C7.2,15,7,15.2,7,15.5S7.2,16,7.5,16c1.6,0,2.4,0.2,2.8,0.7c0.5,0.5,0.7,1.3,0.7,2.8c0,0.3,0.2,0.5,0.5,0.5s0.5-0.2,0.5-0.5
		c0-1.6,0.2-2.4,0.7-2.8c0.5-0.5,1.3-0.7,2.8-0.7c0.3,0,0.5-0.2,0.5-0.5S15.8,15,15.5,15C13.9,15,13.1,14.8,12.7,14.3z"/>
	<path d="M21.6,3.2c-0.2-0.1-0.4,0-0.6,0.1c-0.1,0.1-0.2,0.4-0.1,0.6C21.6,5.5,22,7.2,22,9c0,7.2-5.8,13-13,13
		c-1.8,0-3.5-0.4-5.2-1.1c-0.2-0.1-0.4,0-0.6,0.1s-0.2,0.4-0.1,0.6C5.4,26.7,10.4,30,16,30c7.7,0,14-6.3,14-14
		C30,10.4,26.7,5.4,21.6,3.2z"/>
</g>
</svg>
