<?xml version="1.0" encoding="utf-8"?>
<!-- Generator: Adobe Illustrator 19.0.0, SVG Export Plug-In . SVG Version: 6.00 Build 0)  -->
<svg version="1.1" id="Layer_1" xmlns="http://www.w3.org/2000/svg" xmlns:xlink="http://www.w3.org/1999/xlink" x="0px" y="0px"
	 viewBox="0 0 30 30" style="enable-background:new 0 0 30 30;" xml:space="preserve">
<g>
	<path d="M27.5,12.5h2c0.3,0,0.5-0.2,0.5-0.5s-0.2-0.5-0.5-0.5h-2c-0.3,0-0.5,0.2-0.5,0.5S27.2,12.5,27.5,12.5z"/>
	<path d="M24.9,6.1c0.1,0,0.3,0,0.4-0.1l1.4-1.4c0.2-0.2,0.2-0.5,0-0.7s-0.5-0.2-0.7,0l-1.4,1.4c-0.2,0.2-0.2,0.5,0,0.7
		C24.6,6.1,24.7,6.1,24.9,6.1z"/>
	<path d="M18.5,3.5C18.8,3.5,19,3.3,19,3V1c0-0.3-0.2-0.5-0.5-0.5S18,0.7,18,1v2C18,3.3,18.2,3.5,18.5,3.5z"/>
	<path d="M11.8,6c0.1,0.1,0.2,0.1,0.4,0.1s0.3,0,0.4-0.1c0.2-0.2,0.2-0.5,0-0.7l-1.4-1.4c-0.2-0.2-0.5-0.2-0.7,0s-0.2,0.5,0,0.7
		L11.8,6z"/>
	<path d="M15.9,5.9c2.4,0.7,4.5,2.3,5.8,4.4c0.1,0.2,0.3,0.2,0.5,0.2c1-0.1,1.9,0,2.9,0.3c0,0,0.1,0,0.1,0c0,0,0,0,0,0
		c0.3,0,0.5-0.2,0.5-0.5c0-0.1,0-0.2-0.1-0.3c-0.9-3.3-3.8-5.6-7.2-5.6c-0.9,0-1.8,0.2-2.6,0.5c-0.2,0.1-0.3,0.3-0.3,0.5
		C15.6,5.7,15.7,5.9,15.9,5.9z"/>
	<path d="M10.7,21.6c-0.2-0.1-0.5-0.1-0.7,0.2l-4,7C5.9,29,6,29.3,6.3,29.4c0.1,0,0.2,0.1,0.2,0.1c0.2,0,0.3-0.1,0.4-0.3l4-7
		C11.1,22,11,21.7,10.7,21.6z"/>
	<path d="M14.7,21.6c-0.2-0.1-0.5-0.1-0.7,0.2l-4,7c-0.1,0.2-0.1,0.5,0.2,0.7c0.1,0,0.2,0.1,0.2,0.1c0.2,0,0.3-0.1,0.4-0.3l4-7
		C15.1,22,15,21.7,14.7,21.6z"/>
	<path d="M18.7,21.6c-0.2-0.1-0.5-0.1-0.7,0.2l-4,7c-0.1,0.2-0.1,0.5,0.2,0.7c0.1,0,0.2,0.1,0.2,0.1c0.2,0,0.3-0.1,0.4-0.3l4-7
		C19.1,22,19,21.7,18.7,21.6z"/>
	<path d="M23,11.5c-0.5,0-1.1,0.1-1.6,0.2c-1.6-3.2-4.8-5.2-8.3-5.2c-4.6,0-8.5,3.4-9.2,8C1.6,15.2,0,17.4,0,19.9
		c0,3.1,2.5,5.6,5.5,5.6h0.9c0.2,0,0.3-0.1,0.4-0.3l2.3-4c0.4-0.7,1.3-1,2-0.6c0.4,0.2,0.6,0.6,0.7,1c0,0.2,0.2,0.4,0.4,0.4
		c0.2,0,0.4-0.1,0.5-0.2l0.3-0.6c0.4-0.7,1.3-1,2-0.6c0.4,0.2,0.6,0.6,0.7,1c0,0.2,0.2,0.4,0.4,0.4c0.2,0,0.4-0.1,0.5-0.2l0.3-0.6
		c0.4-0.7,1.3-1,2-0.6c0.4,0.2,0.6,0.6,0.7,1c0,0.2,0.2,0.4,0.4,0.4c0.2,0,0.4-0.1,0.5-0.2l0.3-0.6c0.4-0.7,1.3-1,2-0.6
		c0.3,0.2,0.6,0.5,0.7,0.9c0.1,0.4,0.1,0.8-0.1,1.1l-1.1,2c-0.1,0.2-0.1,0.3,0,0.5c0.1,0.2,0.3,0.2,0.4,0.2h0.1c0.1,0,0.1,0,0.2,0
		c3.7-0.2,6.6-3.3,6.6-7C30,14.6,26.9,11.5,23,11.5z"/>
	<path d="M22.7,21.6c-0.2-0.1-0.5-0.1-0.7,0.2l-4,7c-0.1,0.2-0.1,0.5,0.2,0.7c0.1,0,0.2,0.1,0.2,0.1c0.2,0,0.3-0.1,0.4-0.3l4-7
		C23.1,22,23,21.7,22.7,21.6z"/>
</g>
</svg>
