<?xml version="1.0" encoding="iso-8859-1"?>
<!-- Generator: Adobe Illustrator 19.0.0, SVG Export Plug-In . SVG Version: 6.00 Build 0)  -->
<svg version="1.1" id="Layer_1" xmlns="http://www.w3.org/2000/svg" xmlns:xlink="http://www.w3.org/1999/xlink" x="0px" y="0px"
	 viewBox="0 0 30 30" style="enable-background:new 0 0 30 30;" xml:space="preserve">
<g>
	<g>
		<path d="M19.086,15l-4.088-7.008l-4.107,7.041c0.042,0.036,0.082,0.074,0.111,0.125l0.464,0.795
			c0.14,0.239,0.059,0.545-0.18,0.684c-0.079,0.046-0.166,0.068-0.252,0.068c-0.172,0-0.339-0.089-0.432-0.248l-0.271-0.465
			L8.87,18.5h2.926l-0.264-0.453c-0.14-0.239-0.059-0.545,0.18-0.684c0.236-0.139,0.544-0.059,0.684,0.18l0.464,0.795
			c0.03,0.051,0.045,0.106,0.055,0.161h4.235c-0.005-0.094,0.007-0.19,0.058-0.277l0.48-0.823c0.139-0.239,0.445-0.32,0.684-0.18
			c0.238,0.139,0.319,0.445,0.18,0.684L18.203,18.5h2.926l-1.463-2.508l-0.155,0.265c-0.093,0.159-0.26,0.248-0.432,0.248
			c-0.086,0-0.173-0.022-0.252-0.068c-0.238-0.139-0.319-0.445-0.18-0.684L19.086,15z M15.502,11.5h-1.004
			c-0.276,0-0.5-0.224-0.5-0.5s0.224-0.5,0.5-0.5h1.004c0.276,0,0.5,0.224,0.5,0.5S15.778,11.5,15.502,11.5z M8.418,1.742L15,6.388
			l6.582-4.646c0.07-0.112,0.179-0.191,0.312-0.221l0.03-0.021H8.075l0.031,0.021C8.239,1.551,8.349,1.629,8.418,1.742z M7.5,28.126
			v-8.832l-6.785-3.769L7.5,28.126z M28.13,14.504c0.138-0.242,0.444-0.323,0.683-0.186l0.288,0.165l0.144-0.08L22.672,2.196
			L22.5,2.318V2.5C22.5,2.776,22.276,3,22,3c-0.117,0-0.22-0.046-0.305-0.114l-6.032,4.258L17.62,10.5h0.894
			c0.276,0,0.5,0.224,0.5,0.5s-0.224,0.5-0.5,0.5h-0.311l3.981,6.825l5.962-3.312C28.052,14.862,28.036,14.669,28.13,14.504z
			 M21.433,12.964l-0.48,0.823c-0.093,0.159-0.26,0.248-0.432,0.248c-0.086,0-0.173-0.022-0.252-0.068
			c-0.238-0.139-0.319-0.445-0.18-0.684l0.48-0.823c0.139-0.239,0.446-0.319,0.684-0.18C21.491,12.42,21.572,12.726,21.433,12.964z
			 M22.5,11c0,0.088-0.023,0.174-0.067,0.25c-0.097,0.168-0.287,0.275-0.475,0.275c-0.078,0-0.156-0.019-0.228-0.06
			c-0.003-0.002-0.005-0.004-0.007-0.006c-0.06,0.026-0.126,0.04-0.196,0.04h-1.004c-0.276,0-0.5-0.224-0.5-0.5s0.224-0.5,0.5-0.5
			H21.5v-0.376c0-0.276,0.224-0.5,0.5-0.5s0.5,0.224,0.5,0.5V11z M22.5,8.218c0,0.276-0.224,0.5-0.5,0.5s-0.5-0.224-0.5-0.5V7.265
			c0-0.276,0.224-0.5,0.5-0.5s0.5,0.224,0.5,0.5V8.218z M22.5,5.359c0,0.276-0.224,0.5-0.5,0.5s-0.5-0.224-0.5-0.5V4.406
			c0-0.276,0.224-0.5,0.5-0.5s0.5,0.224,0.5,0.5V5.359z M24.641,12.508c-0.093,0.162-0.262,0.252-0.435,0.252
			c-0.085,0-0.17-0.021-0.248-0.066l-0.872-0.498c-0.239-0.137-0.323-0.442-0.187-0.682c0.138-0.241,0.445-0.323,0.683-0.186
			l0.872,0.498C24.693,11.963,24.777,12.268,24.641,12.508z M27.256,14.004c-0.092,0.161-0.261,0.251-0.434,0.251
			c-0.085,0-0.17-0.021-0.248-0.066l-0.871-0.499c-0.241-0.136-0.324-0.442-0.186-0.682c0.137-0.241,0.443-0.322,0.682-0.186
			l0.871,0.499C27.31,13.458,27.393,13.764,27.256,14.004z M22.5,19.294v8.832l6.785-12.601L22.5,19.294z M8.5,27.22
			c0.122,0.023,0.237,0.089,0.314,0.199c0.16,0.225,0.108,0.537-0.117,0.698L8.5,28.257V28.5h13v-0.243l-0.197-0.141
			c-0.226-0.161-0.277-0.473-0.117-0.698c0.078-0.109,0.193-0.175,0.314-0.198V19.5h-13V27.22z M18.867,25.762
			c0.16-0.226,0.472-0.276,0.698-0.116l0.773,0.552c0.225,0.16,0.276,0.472,0.116,0.697c-0.098,0.137-0.252,0.209-0.407,0.209
			c-0.101,0-0.202-0.03-0.291-0.093l-0.773-0.552C18.758,26.299,18.707,25.986,18.867,25.762z M18.018,24.541
			c0.224,0.16,0.276,0.473,0.116,0.697c-0.098,0.137-0.252,0.209-0.407,0.209c-0.101,0-0.202-0.03-0.291-0.093l-0.773-0.552
			c-0.225-0.16-0.276-0.473-0.116-0.697c0.161-0.226,0.472-0.277,0.698-0.116L18.018,24.541z M15.767,20.691l0.48-0.823
			c0.139-0.239,0.446-0.319,0.684-0.18c0.238,0.139,0.319,0.445,0.18,0.684l-0.48,0.823c-0.093,0.159-0.26,0.248-0.432,0.248
			c-0.086,0.001-0.173-0.021-0.252-0.068C15.709,21.236,15.628,20.93,15.767,20.691z M14.496,22.136
			c0.167-0.098,0.366-0.083,0.52,0.016c0.146-0.074,0.323-0.083,0.475,0.006c0.238,0.139,0.319,0.445,0.18,0.684l-0.009,0.016
			l0.036,0.025c0.225,0.161,0.277,0.473,0.116,0.698c-0.098,0.137-0.252,0.209-0.407,0.209c-0.101,0-0.202-0.03-0.29-0.093
			L15,23.614l-0.099,0.071c-0.089,0.063-0.19,0.093-0.291,0.093c-0.155,0-0.31-0.073-0.407-0.209
			c-0.16-0.225-0.108-0.537,0.116-0.697l0.019-0.014l-0.022-0.038C14.176,22.582,14.257,22.276,14.496,22.136z M13.104,19.75
			c0.236-0.139,0.544-0.059,0.684,0.18l0.464,0.795c0.14,0.239,0.059,0.545-0.18,0.684c-0.079,0.046-0.166,0.068-0.252,0.068
			c-0.172,0-0.339-0.089-0.432-0.248l-0.464-0.795C12.784,20.195,12.865,19.889,13.104,19.75z M11.994,24.533l0.775-0.554
			c0.224-0.161,0.537-0.109,0.698,0.116c0.16,0.225,0.108,0.537-0.116,0.697l-0.775,0.554c-0.088,0.063-0.19,0.093-0.291,0.093
			c-0.155,0-0.31-0.073-0.407-0.209C11.718,25.005,11.77,24.693,11.994,24.533z M9.667,26.196l0.775-0.554
			c0.226-0.16,0.537-0.109,0.698,0.116c0.161,0.224,0.109,0.536-0.116,0.697l-0.775,0.554c-0.089,0.063-0.19,0.093-0.291,0.093
			c-0.155,0-0.31-0.073-0.407-0.209C9.391,26.668,9.443,26.356,9.667,26.196z M11.484,11.499c-0.276,0-0.5-0.224-0.5-0.5
			s0.224-0.5,0.5-0.5h0.895l1.958-3.356L8.305,2.885C8.22,2.952,8.117,2.999,8,2.999c-0.276,0-0.5-0.224-0.5-0.5V2.317L7.327,2.195
			L0.754,14.402l0.144,0.08l0.288-0.165c0.235-0.137,0.544-0.056,0.683,0.186c0.094,0.165,0.077,0.358-0.016,0.509l5.962,3.312
			l3.981-6.825H11.484z M4.298,13.691l-0.872,0.498c-0.078,0.045-0.163,0.066-0.248,0.066c-0.173,0-0.342-0.09-0.435-0.252
			c-0.137-0.239-0.053-0.545,0.187-0.682l0.872-0.498c0.235-0.137,0.544-0.055,0.683,0.186C4.622,13.249,4.538,13.554,4.298,13.691z
			 M6.914,12.196l-0.872,0.499c-0.078,0.045-0.163,0.066-0.248,0.066c-0.173,0-0.342-0.09-0.434-0.252
			c-0.137-0.24-0.054-0.545,0.186-0.682l0.872-0.499c0.236-0.137,0.545-0.055,0.682,0.186C7.238,11.754,7.155,12.059,6.914,12.196z
			 M7.5,4.5C7.5,4.224,7.724,4,8,4s0.5,0.224,0.5,0.5v1C8.5,5.776,8.276,6,8,6S7.5,5.776,7.5,5.5V4.5z M7.5,7.5
			C7.5,7.224,7.724,7,8,7s0.5,0.224,0.5,0.5v1C8.5,8.776,8.276,9,8,9S7.5,8.776,7.5,8.5V7.5z M8.505,11.863
			c-0.079,0.046-0.166,0.068-0.252,0.068c-0.172,0-0.339-0.089-0.432-0.248l-0.252-0.432c-0.005-0.009-0.005-0.019-0.01-0.029
			c-0.015-0.03-0.024-0.063-0.033-0.096c-0.009-0.033-0.017-0.064-0.019-0.097c-0.001-0.011-0.006-0.02-0.006-0.031V10.5H7.5
			C7.5,10.224,7.724,10,8,10s0.5,0.224,0.5,0.5h0.977c0.276,0,0.5,0.224,0.5,0.5s-0.224,0.5-0.5,0.5H8.74
			C8.719,11.646,8.642,11.783,8.505,11.863z M9.896,14.25c-0.079,0.046-0.166,0.068-0.252,0.068c-0.172,0-0.339-0.089-0.432-0.248
			l-0.464-0.795c-0.14-0.239-0.059-0.545,0.18-0.684c0.237-0.139,0.544-0.059,0.684,0.18l0.464,0.795
			C10.215,13.805,10.134,14.111,9.896,14.25z"/>
	</g>
</g>
</svg>
