<?xml version="1.0" encoding="iso-8859-1"?>
<!-- Generator: Adobe Illustrator 19.0.0, SVG Export Plug-In . SVG Version: 6.00 Build 0)  -->
<svg version="1.1" id="Layer_1" xmlns="http://www.w3.org/2000/svg" xmlns:xlink="http://www.w3.org/1999/xlink" x="0px" y="0px"
	 viewBox="0 0 30 30" style="enable-background:new 0 0 30 30;" xml:space="preserve">
<g>
	<g>
		<path d="M12.003,20.884l1.37-11.505l-2.673,11.939L12.003,20.884z M19.099,20.758L15.133,3.046l-2.108,17.712H19.099z
			 M22.934,20.838c0.015,0.041,0.015,0.083,0.019,0.125l6.923,4.008L15.532,0.242l0.068,0.309L22.934,20.838z M21.841,20.758
			l-4.508-12.47l2.792,12.47H21.841z M20.349,21.758l1.735,7.749l7.313-3.657l-7.069-4.092H20.349z M14.393,0.242L0.125,24.844
			l9.468-3.156L14.393,0.242z M12.544,21.758l-2.098,0.699l-1.634,7.301h12.302l-1.791-8H12.544z M0.424,25.798l7.418,3.709
			l1.496-6.68L0.424,25.798z"/>
	</g>
</g>
</svg>
