<?xml version="1.0" encoding="iso-8859-1"?>
<!-- Generator: Adobe Illustrator 19.0.0, SVG Export Plug-In . SVG Version: 6.00 Build 0)  -->
<svg version="1.1" id="Layer_1" xmlns="http://www.w3.org/2000/svg" xmlns:xlink="http://www.w3.org/1999/xlink" x="0px" y="0px"
	 viewBox="0 0 24 24" style="enable-background:new 0 0 24 24;" xml:space="preserve">
<g>
	<g>
		<path d="M2.171,8.327c-0.128,0-0.256-0.049-0.354-0.146c-1.754-1.755-1.754-4.609,0-6.364c1.755-1.754,4.609-1.754,6.364,0
			c0.195,0.195,0.195,0.512,0,0.707s-0.512,0.195-0.707,0c-1.364-1.364-3.586-1.364-4.95,0c-1.364,1.365-1.364,3.585,0,4.95
			c0.195,0.195,0.195,0.512,0,0.707C2.427,8.279,2.299,8.327,2.171,8.327z"/>
	</g>
	<g>
		<path d="M21.829,8.327c-0.128,0-0.256-0.049-0.354-0.146c-0.195-0.195-0.195-0.512,0-0.707c1.364-1.365,1.364-3.585,0-4.95
			c-1.364-1.364-3.585-1.364-4.95,0c-0.195,0.195-0.512,0.195-0.707,0s-0.195-0.512,0-0.707c1.755-1.754,4.609-1.754,6.364,0
			c1.754,1.755,1.754,4.609,0,6.364C22.084,8.279,21.957,8.327,21.829,8.327z"/>
	</g>
	<g>
		<path d="M12,22.499c-5.238,0-9.5-4.262-9.5-9.5s4.262-9.5,9.5-9.5s9.5,4.262,9.5,9.5S17.238,22.499,12,22.499z M12,4.499
			c-4.687,0-8.5,3.813-8.5,8.5s3.813,8.5,8.5,8.5s8.5-3.813,8.5-8.5S16.687,4.499,12,4.499z"/>
	</g>
	<g>
		<path d="M16,16.499c-0.104,0-0.209-0.033-0.299-0.1l-4-3c-0.126-0.094-0.2-0.243-0.2-0.4v-7c0-0.276,0.224-0.5,0.5-0.5
			s0.5,0.224,0.5,0.5v6.75l3.8,2.85c0.221,0.166,0.266,0.479,0.1,0.7C16.302,16.43,16.152,16.499,16,16.499z"/>
	</g>
	<g>
		<path d="M5,23.499c-0.128,0-0.256-0.049-0.354-0.146c-0.195-0.195-0.195-0.512,0-0.707l2-2c0.195-0.195,0.512-0.195,0.707,0
			s0.195,0.512,0,0.707l-2,2C5.256,23.45,5.128,23.499,5,23.499z"/>
	</g>
	<g>
		<path d="M19,23.499c-0.128,0-0.256-0.049-0.354-0.146l-2-2c-0.195-0.195-0.195-0.512,0-0.707s0.512-0.195,0.707,0l2,2
			c0.195,0.195,0.195,0.512,0,0.707C19.256,23.45,19.128,23.499,19,23.499z"/>
	</g>
</g>
<g>
</g>
<g>
</g>
<g>
</g>
<g>
</g>
<g>
</g>
<g>
</g>
<g>
</g>
<g>
</g>
<g>
</g>
<g>
</g>
<g>
</g>
<g>
</g>
<g>
</g>
<g>
</g>
<g>
</g>
</svg>
