<?xml version="1.0" encoding="iso-8859-1"?>
<!-- Generator: Adobe Illustrator 19.0.0, SVG Export Plug-In . SVG Version: 6.00 Build 0)  -->
<svg version="1.1" id="Layer_1" xmlns="http://www.w3.org/2000/svg" xmlns:xlink="http://www.w3.org/1999/xlink" x="0px" y="0px"
	 viewBox="0 0 24 24" style="enable-background:new 0 0 24 24;" xml:space="preserve">
<g>
	<g>
		<path d="M12,16c-2.481,0-4.5-2.019-4.5-4.5S9.519,7,12,7s4.5,2.019,4.5,4.5S14.481,16,12,16z M12,8c-1.93,0-3.5,1.57-3.5,3.5
			S10.07,15,12,15s3.5-1.57,3.5-3.5S13.93,8,12,8z"/>
	</g>
	<g>
		<path d="M23,18H1c-0.276,0-0.5-0.224-0.5-0.5v-3C0.5,12.57,2.07,11,4,11h0.26c0.679,0,1.274-0.465,1.446-1.13
			C6.447,7.002,9.035,5,12,5s5.553,2.002,6.293,4.87C18.466,10.535,19.061,11,19.74,11H20c1.93,0,3.5,1.57,3.5,3.5v3
			C23.5,17.776,23.276,18,23,18z M1.5,17h21v-2.5c0-1.378-1.122-2.5-2.5-2.5h-0.26c-1.135,0-2.128-0.773-2.414-1.88
			C16.699,7.694,14.509,6,12,6s-4.699,1.694-5.326,4.12C6.388,11.227,5.396,12,4.26,12H4c-1.378,0-2.5,1.122-2.5,2.5V17z"/>
	</g>
	<g>
		<path d="M13,13c-0.128,0-0.256-0.049-0.354-0.146l-1-1C11.553,11.76,11.5,11.633,11.5,11.5v-2C11.5,9.224,11.724,9,12,9
			s0.5,0.224,0.5,0.5v1.793l0.854,0.854c0.195,0.195,0.195,0.512,0,0.707C13.256,12.951,13.128,13,13,13z"/>
	</g>
	<g>
		<path d="M6,19H4c-0.276,0-0.5-0.224-0.5-0.5S3.724,18,4,18h2c0.276,0,0.5,0.224,0.5,0.5S6.276,19,6,19z"/>
	</g>
	<g>
		<path d="M20,19h-2c-0.276,0-0.5-0.224-0.5-0.5S17.724,18,18,18h2c0.276,0,0.5,0.224,0.5,0.5S20.276,19,20,19z"/>
	</g>
</g>
<g>
</g>
<g>
</g>
<g>
</g>
<g>
</g>
<g>
</g>
<g>
</g>
<g>
</g>
<g>
</g>
<g>
</g>
<g>
</g>
<g>
</g>
<g>
</g>
<g>
</g>
<g>
</g>
<g>
</g>
</svg>
