<?xml version="1.0" encoding="iso-8859-1"?>
<!-- Generator: Adobe Illustrator 19.0.0, SVG Export Plug-In . SVG Version: 6.00 Build 0)  -->
<svg version="1.1" id="Layer_1" xmlns="http://www.w3.org/2000/svg" xmlns:xlink="http://www.w3.org/1999/xlink" x="0px" y="0px"
	 viewBox="0 0 24 24" style="enable-background:new 0 0 24 24;" xml:space="preserve">
<g>
	<g>
		<path d="M12,0C8.705,0,5.716,1.336,3.546,3.494c-0.01,0.008-0.022,0.012-0.032,0.021C3.5,3.529,3.493,3.547,3.48,3.561
			C1.331,5.731,0,8.712,0,12c0,6.617,5.383,12,12,12c3.277,0,6.249-1.323,8.416-3.46c0.022-0.02,0.048-0.033,0.069-0.054
			c0.009-0.009,0.013-0.022,0.021-0.032C22.664,18.283,24,15.295,24,12C24,5.383,18.617,0,12,0z M12,23C5.935,23,1,18.065,1,12
			c0-2.388,0.773-4.594,2.071-6.399c0.434,2.477,3.064,6.191,6.1,9.228c3.038,3.037,6.752,5.667,9.229,6.1
			C16.594,22.227,14.388,23,12,23z M19.745,19.801c-0.939,0.825-5.095-0.907-9.867-5.679C5.107,9.351,3.374,5.196,4.2,4.254
			C6.194,2.246,8.954,1,12,1c6.065,0,11,4.935,11,11C23,15.047,21.754,17.807,19.745,19.801z"/>
	</g>
</g>
</svg>
