<?xml version="1.0" encoding="iso-8859-1"?>
<!-- Generator: Adobe Illustrator 19.0.0, SVG Export Plug-In . SVG Version: 6.00 Build 0)  -->
<svg version="1.1" id="Layer_1" xmlns="http://www.w3.org/2000/svg" xmlns:xlink="http://www.w3.org/1999/xlink" x="0px" y="0px"
	 viewBox="0 0 30 30" style="enable-background:new 0 0 30 30;" xml:space="preserve">
<g>
	<g>
		<path d="M15,8c-1.105,0-2,0.895-2,2s0.895,2,2,2s2-0.895,2-2S16.105,8,15,8z M27.491,24.481C27.058,23.75,27,22.816,27,22V12
			c0-6.304-4.928-11.563-11.218-11.975C12.526-0.19,9.273,1,6.839,3.281C4.399,5.566,3,8.744,3,12v10c0,0.816-0.058,1.75-0.491,2.48
			c-0.515,0.871-0.645,1.904-0.365,2.911c0.335,1.208,1.339,2.187,2.556,2.492c1.307,0.33,2.632-0.05,3.544-1.012
			c0.16-0.168,0.342-0.205,0.467-0.206c0.193,0.002,0.431,0.094,0.599,0.263c1.373,1.384,3.766,1.382,5.135-0.006
			c0.313-0.316,0.797-0.316,1.109,0c1.367,1.387,3.762,1.39,5.135,0.006c0.168-0.169,0.39-0.264,0.599-0.263
			c0.125,0.001,0.307,0.038,0.466,0.206c0.697,0.734,1.633,1.128,2.619,1.128c0.306,0,0.617-0.038,0.926-0.116
			c1.217-0.306,2.22-1.284,2.556-2.493C28.135,26.385,28.006,25.352,27.491,24.481z M15,15c-3.309,0-6-2.243-6-5s2.691-5,6-5
			s6,2.243,6,5S18.309,15,15,15z"/>
	</g>
</g>
</svg>
