<?xml version="1.0" encoding="iso-8859-1"?>
<!-- Generator: Adobe Illustrator 19.0.0, SVG Export Plug-In . SVG Version: 6.00 Build 0)  -->
<svg version="1.1" id="Layer_1" xmlns="http://www.w3.org/2000/svg" xmlns:xlink="http://www.w3.org/1999/xlink" x="0px" y="0px"
	 viewBox="0 0 30 30" style="enable-background:new 0 0 30 30;" xml:space="preserve">
<g>
	<g>
		<path d="M25,15.5c0-0.276,0.224-0.5,0.5-0.5H30c0-8.271-6.729-15-15-15C11.077,0,7.513,1.526,4.837,4H9.5C9.776,4,10,4.224,10,4.5
			S9.776,5,9.5,5H3.852C3.563,5.321,3.289,5.655,3.029,6H10.5C10.776,6,11,6.224,11,6.5S10.776,7,10.5,7H2.334
			c-0.207,0.327-0.408,0.657-0.59,1H4.5C4.776,8,5,8.224,5,8.5S4.776,9,4.5,9H1.261C0.454,10.839,0,12.867,0,15
			c0,8.271,6.729,15,15,15c3.923,0,7.488-1.526,10.164-4H14.5c-0.276,0-0.5-0.224-0.5-0.5s0.224-0.5,0.5-0.5h11.649
			c0.289-0.321,0.563-0.655,0.823-1H18.5c-0.276,0-0.5-0.224-0.5-0.5s0.224-0.5,0.5-0.5h9.167c0.207-0.327,0.408-0.657,0.59-1H11.5
			c-0.276,0-0.5-0.224-0.5-0.5s0.224-0.5,0.5-0.5h17.239c0.143-0.326,0.266-0.662,0.386-1H20.5c-0.276,0-0.5-0.224-0.5-0.5
			s0.224-0.5,0.5-0.5h8.942c0.092-0.331,0.186-0.66,0.256-1H18.5c-0.276,0-0.5-0.224-0.5-0.5s0.224-0.5,0.5-0.5h11.351
			c0.044-0.33,0.076-0.663,0.099-1H25.5C25.224,16,25,15.776,25,15.5z"/>
	</g>
</g>
</svg>
