<?xml version="1.0" encoding="iso-8859-1"?>
<!-- Generator: Adobe Illustrator 19.0.0, SVG Export Plug-In . SVG Version: 6.00 Build 0)  -->
<svg version="1.1" id="Layer_1" xmlns="http://www.w3.org/2000/svg" xmlns:xlink="http://www.w3.org/1999/xlink" x="0px" y="0px"
	 viewBox="0 0 30 30" style="enable-background:new 0 0 30 30;" xml:space="preserve">
<g>
	<g>
		<path d="M0.5,5.308c0.116,0,0.233-0.04,0.328-0.123c0.245-0.213,0.495-0.419,0.751-0.618c0.218-0.17,0.257-0.484,0.087-0.702
			C1.495,3.646,1.183,3.608,0.964,3.778c-0.27,0.21-0.533,0.428-0.792,0.652c-0.208,0.181-0.23,0.497-0.05,0.705
			C0.222,5.25,0.36,5.308,0.5,5.308z M2.846,3.583c0.09,0,0.181-0.024,0.262-0.074C3.63,3.188,4.179,2.89,4.739,2.625
			c0.25-0.118,0.356-0.416,0.238-0.666c-0.12-0.251-0.419-0.356-0.666-0.238C3.718,2.002,3.137,2.317,2.584,2.657
			C2.349,2.802,2.275,3.11,2.42,3.345C2.515,3.498,2.679,3.583,2.846,3.583z M10.011,1.111c0.02,0,0.038-0.001,0.058-0.003
			C10.678,1.039,11.301,1.003,11.921,1c0.276-0.001,0.499-0.226,0.498-0.502C12.418,0.223,12.194,0,11.919,0
			c-0.001,0-0.002,0-0.002,0c-0.655,0.003-1.315,0.042-1.961,0.114c-0.274,0.031-0.472,0.279-0.44,0.553
			C9.544,0.923,9.76,1.111,10.011,1.111z M13.774,1.092c0.615,0.063,1.231,0.162,1.831,0.292c0.035,0.008,0.071,0.011,0.106,0.011
			c0.229,0,0.438-0.16,0.487-0.394c0.059-0.27-0.112-0.536-0.383-0.595c-0.635-0.137-1.287-0.241-1.938-0.309
			c-0.27-0.022-0.521,0.171-0.549,0.446C13.301,0.817,13.5,1.063,13.774,1.092z M17.395,1.874c0.309,0.103,0.611,0.214,0.911,0.334
			c0.062,0.024,0.124,0.036,0.186,0.036c0.198,0,0.387-0.119,0.465-0.315c0.102-0.256-0.023-0.547-0.279-0.649
			c-0.317-0.126-0.64-0.245-0.966-0.354c-0.261-0.087-0.545,0.054-0.633,0.316C16.991,1.503,17.133,1.786,17.395,1.874z
			 M6.293,1.952c0.054,0,0.109-0.009,0.163-0.027C7.037,1.724,7.638,1.553,8.24,1.418C8.509,1.357,8.678,1.09,8.617,0.82
			c-0.06-0.269-0.323-0.437-0.598-0.378C7.381,0.586,6.745,0.767,6.129,0.98C5.868,1.07,5.73,1.355,5.819,1.616
			C5.892,1.822,6.086,1.952,6.293,1.952z M28.478,23.935c-0.258-0.101-0.548,0.023-0.648,0.281c-0.239,0.606-0.514,1.2-0.814,1.763
			c-0.13,0.244-0.037,0.546,0.206,0.677c0.075,0.04,0.155,0.059,0.235,0.059c0.179,0,0.352-0.096,0.441-0.265
			c0.318-0.597,0.608-1.225,0.861-1.867C28.86,24.326,28.734,24.036,28.478,23.935z M29.39,20.049
			c-0.268-0.041-0.526,0.149-0.567,0.422c-0.095,0.646-0.226,1.285-0.39,1.901c-0.07,0.267,0.088,0.541,0.354,0.612
			c0.043,0.011,0.087,0.017,0.129,0.017c0.222,0,0.424-0.147,0.483-0.372c0.174-0.653,0.313-1.33,0.413-2.013
			C29.853,20.343,29.663,20.089,29.39,20.049z M29.939,16.513c-0.022-0.275-0.269-0.478-0.539-0.458
			c-0.275,0.023-0.479,0.264-0.457,0.54C28.981,17.058,29,17.527,29,18c0,0.179-0.003,0.358-0.009,0.536
			c-0.009,0.276,0.208,0.507,0.484,0.516h0.016c0.269,0,0.491-0.213,0.5-0.484C29.997,18.379,30,18.19,30,18
			C30,17.5,29.979,17.003,29.939,16.513z M12,6C5.383,6,0,11.383,0,18s5.383,12,12,12s12-5.383,12-12S18.617,6,12,6z M13,14
			c-0.552,0-1-0.449-1-1s0.448-1,1-1s1,0.449,1,1S13.552,14,13,14z M17,20c-1.654,0-3-1.346-3-3s1.346-3,3-3s3,1.346,3,3
			S18.654,20,17,20z M25.854,8.854c0.026-0.026,0.04-0.058,0.059-0.088l0.158,0.079l0.444,1.777
			c0.044,0.175,0.179,0.313,0.352,0.361C26.91,10.994,26.955,11,27,11c0.131,0,0.259-0.051,0.354-0.146l2.5-2.5
			c0.127-0.127,0.177-0.313,0.128-0.487c-0.048-0.174-0.186-0.308-0.36-0.352L27.843,7.07c-0.024-0.047-0.047-0.094-0.079-0.157
			c0.03-0.019,0.063-0.033,0.09-0.06l1-1c0.143-0.143,0.186-0.358,0.108-0.545C28.884,5.121,28.702,5,28.5,5h-1.71
			c-0.956-1.721-2.835-3.511-5.091-3.834L20.57,1.005c-0.153-0.022-0.313,0.031-0.424,0.142c-0.111,0.111-0.164,0.269-0.142,0.424
			l0.162,1.133c0.322,2.252,2.112,4.129,3.833,5.086V9.5c0,0.202,0.122,0.385,0.309,0.462C24.37,9.988,24.435,10,24.499,10
			c0.13,0,0.258-0.051,0.354-0.146L25.854,8.854z M26.005,27.638c-0.366,0.532-0.767,1.048-1.19,1.533
			c-0.182,0.208-0.16,0.524,0.048,0.706C24.958,29.96,25.075,30,25.192,30c0.14,0,0.278-0.058,0.377-0.171
			c0.448-0.514,0.872-1.06,1.261-1.623c0.156-0.228,0.099-0.539-0.128-0.695C26.474,27.354,26.163,27.41,26.005,27.638z
			 M28.51,12.163c-0.263,0.085-0.407,0.367-0.322,0.63c0.197,0.611,0.361,1.243,0.487,1.878c0.047,0.238,0.256,0.403,0.489,0.403
			c0.033,0,0.065-0.003,0.099-0.01c0.271-0.054,0.446-0.317,0.393-0.587c-0.134-0.673-0.308-1.343-0.517-1.991
			C29.054,12.223,28.771,12.082,28.51,12.163z"/>
	</g>
</g>
</svg>
