<?xml version="1.0" encoding="utf-8"?>
<!-- Generated by IcoMoon.io -->
<!DOCTYPE svg PUBLIC "-//W3C//DTD SVG 1.1//EN" "http://www.w3.org/Graphics/SVG/1.1/DTD/svg11.dtd">
<svg version="1.1" xmlns="http://www.w3.org/2000/svg" xmlns:xlink="http://www.w3.org/1999/xlink" width="30" height="30" viewBox="0 0 30 30">
<path d="M29.79 10.159l-11.25-10c-0.184-0.164-0.448-0.206-0.671-0.104-0.225 0.101-0.369 0.324-0.369 0.57v4.375h-1.875c-8.47 0-15.625 6.011-15.625 13.125 0 4.539 3.223 9.392 7.836 11.804 0.091 0.049 0.19 0.073 0.289 0.073h0.014c0.349-0.023 0.636-0.276 0.636-0.625 0-0.21-0.104-0.398-0.264-0.51-1.106-1.31-2.261-3.43-2.261-5.115 0-4.695 5.402-7.5 10.625-7.5 0.149 0 0.296-0.004 0.443-0.009l0.182-0.004v4.387c0 0.246 0.145 0.469 0.369 0.57s0.486 0.061 0.671-0.104l11.25-10c0.134-0.119 0.21-0.289 0.21-0.467s-0.076-0.347-0.21-0.466z"></path>
</svg>
