<?xml version="1.0" encoding="utf-8"?>
<!-- Generated by IcoMoon.io -->
<!DOCTYPE svg PUBLIC "-//W3C//DTD SVG 1.1//EN" "http://www.w3.org/Graphics/SVG/1.1/DTD/svg11.dtd">
<svg version="1.1" xmlns="http://www.w3.org/2000/svg" xmlns:xlink="http://www.w3.org/1999/xlink" width="30" height="30" viewBox="0 0 30 30">
<path d="M29.966 9.209c-0.006-0.022-0.005-0.047-0.014-0.070-0.032-0.081-0.081-0.152-0.144-0.212l-8.743-8.743c-0.244-0.244-0.64-0.244-0.884 0s-0.244 0.64 0 0.884l7.681 7.681h-7.239c-11.372 0-20.625 9.253-20.625 20.625 0 0.345 0.28 0.625 0.625 0.625s0.625-0.28 0.625-0.625c0-10.684 8.691-19.375 19.375-19.375h7.241l-7.684 7.684c-0.244 0.244-0.244 0.64 0 0.884 0.122 0.121 0.283 0.182 0.443 0.182s0.32-0.061 0.441-0.181l8.75-8.75c0.017-0.017 0.024-0.040 0.039-0.058 0.036-0.045 0.074-0.091 0.096-0.146 0.023-0.054 0.028-0.111 0.034-0.167 0.004-0.025 0.015-0.046 0.015-0.073 0-0.059-0.019-0.111-0.034-0.165z"></path>
</svg>
