<?xml version="1.0" encoding="utf-8"?>
<!-- Generated by IcoMoon.io -->
<!DOCTYPE svg PUBLIC "-//W3C//DTD SVG 1.1//EN" "http://www.w3.org/Graphics/SVG/1.1/DTD/svg11.dtd">
<svg version="1.1" xmlns="http://www.w3.org/2000/svg" xmlns:xlink="http://www.w3.org/1999/xlink" width="30" height="30" viewBox="0 0 30 30">
<path d="M10.814 28.097c-5.72-1.828-9.564-7.091-9.564-13.097 0-5.819 3.632-10.805 8.75-12.81v3.435c0 0.253 0.152 0.48 0.385 0.576 0.232 0.099 0.5 0.046 0.68-0.134l5-4.969c0.176-0.175 0.233-0.437 0.143-0.669s-0.307-0.388-0.555-0.399l-0.217-0.014c-0.144-0.010-0.289-0.019-0.435-0.019-8.271 0-15 6.729-15 15 0 6.553 4.194 12.294 10.435 14.287 0.064 0.021 0.127 0.030 0.19 0.030 0.265 0 0.511-0.169 0.595-0.435 0.106-0.328-0.077-0.679-0.406-0.784zM19.564 0.713c-0.329-0.105-0.68 0.076-0.785 0.406-0.104 0.329 0.077 0.68 0.406 0.785 5.721 1.826 9.565 7.089 9.565 13.096 0 5.819-3.634 10.805-8.75 12.81v-3.435c0-0.253-0.152-0.48-0.385-0.576-0.23-0.096-0.501-0.045-0.68 0.134l-5 4.969c-0.176 0.175-0.232 0.437-0.143 0.669s0.308 0.388 0.555 0.399l0.217 0.014c0.144 0.010 0.289 0.019 0.435 0.019 8.271 0 15-6.729 15-15 0-6.555-4.194-12.296-10.436-14.289zM18.749 28.23l0.009-0.025c0.001 0.008 0 0.015 0.001 0.023-0.004 0.001-0.008 0.002-0.010 0.002z"></path>
</svg>
