<?xml version="1.0" encoding="utf-8"?>
<!-- Generated by IcoMoon.io -->
<!DOCTYPE svg PUBLIC "-//W3C//DTD SVG 1.1//EN" "http://www.w3.org/Graphics/SVG/1.1/DTD/svg11.dtd">
<svg version="1.1" xmlns="http://www.w3.org/2000/svg" xmlns:xlink="http://www.w3.org/1999/xlink" width="30" height="30" viewBox="0 0 30 30">
<path d="M29.375 10c0.345 0 0.625-0.28 0.625-0.625v-8.75c0-0.081-0.016-0.163-0.047-0.239-0.064-0.152-0.185-0.275-0.339-0.339-0.076-0.031-0.157-0.047-0.239-0.047h-8.75c-0.345 0-0.625 0.28-0.625 0.625s0.28 0.625 0.625 0.625h7.241l-12.866 12.866-12.866-12.866h7.241c0.345 0 0.625-0.28 0.625-0.625s-0.28-0.625-0.625-0.625h-8.75c-0.081 0-0.163 0.016-0.239 0.047-0.152 0.064-0.275 0.185-0.339 0.339-0.031 0.076-0.047 0.158-0.047 0.239v8.75c0 0.345 0.28 0.625 0.625 0.625s0.625-0.28 0.625-0.625v-7.241l12.866 12.866-12.866 12.866v-7.241c0-0.345-0.28-0.625-0.625-0.625s-0.625 0.28-0.625 0.625v8.75c0 0.081 0.016 0.163 0.047 0.239 0.064 0.152 0.185 0.275 0.339 0.339 0.076 0.031 0.158 0.047 0.239 0.047h8.75c0.345 0 0.625-0.28 0.625-0.625s-0.28-0.625-0.625-0.625h-7.241l12.866-12.866 12.866 12.866h-7.241c-0.345 0-0.625 0.28-0.625 0.625s0.28 0.625 0.625 0.625h8.75c0.081 0 0.163-0.016 0.239-0.047 0.152-0.064 0.275-0.185 0.339-0.339 0.031-0.076 0.047-0.157 0.047-0.239v-8.75c0-0.345-0.28-0.625-0.625-0.625s-0.625 0.28-0.625 0.625v7.241l-12.866-12.866 12.866-12.866v7.241c0 0.345 0.28 0.625 0.625 0.625z"></path>
</svg>
