<?xml version="1.0" encoding="utf-8"?>
<!-- Generated by IcoMoon.io -->
<!DOCTYPE svg PUBLIC "-//W3C//DTD SVG 1.1//EN" "http://www.w3.org/Graphics/SVG/1.1/DTD/svg11.dtd">
<svg version="1.1" xmlns="http://www.w3.org/2000/svg" xmlns:xlink="http://www.w3.org/1999/xlink" width="30" height="30" viewBox="0 0 30 30">
<path d="M26.5 9.999h1.366l-2.684 2.684c-0.244 0.244-0.244 0.64 0 0.884 0.122 0.121 0.283 0.182 0.443 0.182s0.32-0.061 0.441-0.181l3.75-3.75c0.050-0.050 0.084-0.11 0.114-0.171 0.005-0.011 0.015-0.019 0.020-0.030 0.032-0.077 0.049-0.16 0.049-0.242 0 0 0 0 0 0 0-0.002-0.001-0.004-0.001-0.006-0.001-0.079-0.016-0.158-0.046-0.231-0.032-0.079-0.080-0.149-0.139-0.208l-3.745-3.745c-0.244-0.244-0.64-0.244-0.884 0s-0.244 0.64 0 0.884l2.681 2.681h-1.365c-4.47 0-8.61 1.935-11.5 5.301-2.891-3.367-7.031-5.301-11.501-5.301h-2.874c-0.345 0-0.625 0.28-0.625 0.625s0.28 0.625 0.625 0.625h2.874c4.163 0 8.015 1.825 10.673 5-2.657 3.175-6.51 5-10.673 5h-2.874c-0.345 0-0.625 0.28-0.625 0.625s0.28 0.625 0.625 0.625h2.874c4.724 0 9.095-2.137 11.994-5.866 2.661-3.421 6.674-5.384 11.008-5.384zM29.965 20.449c-0.006-0.020-0.004-0.041-0.013-0.060-0.032-0.081-0.081-0.152-0.144-0.212l-3.742-3.742c-0.244-0.244-0.64-0.244-0.884 0s-0.244 0.64 0 0.884l2.681 2.681h-1.363c-3.397 0-6.684-1.258-9.253-3.542-0.259-0.231-0.654-0.206-0.883 0.051-0.23 0.257-0.206 0.653 0.051 0.883 2.798 2.488 6.379 3.859 10.084 3.859h1.365l-2.684 2.684c-0.244 0.244-0.244 0.64 0 0.884 0.122 0.121 0.283 0.182 0.443 0.182s0.32-0.061 0.441-0.181l3.75-3.75c0.016-0.016 0.023-0.039 0.038-0.056 0.037-0.046 0.075-0.092 0.098-0.148 0.021-0.050 0.025-0.105 0.032-0.158 0.004-0.029 0.016-0.054 0.016-0.082 0-0.061-0.019-0.118-0.035-0.175z"></path>
</svg>
