<?xml version="1.0" encoding="utf-8"?>
<!-- Generated by IcoMoon.io -->
<!DOCTYPE svg PUBLIC "-//W3C//DTD SVG 1.1//EN" "http://www.w3.org/Graphics/SVG/1.1/DTD/svg11.dtd">
<svg version="1.1" xmlns="http://www.w3.org/2000/svg" xmlns:xlink="http://www.w3.org/1999/xlink" width="30" height="30" viewBox="0 0 30 30">
<path d="M17.5 3.125c-5.17 0-9.375 4.205-9.375 9.375 0 4.48 3.645 8.125 8.125 8.125 3.791 0 6.875-3.085 6.875-6.875 0-3.101-2.524-5.625-5.625-5.625-2.413 0-4.375 1.963-4.375 4.375 0 1.724 1.402 3.125 3.125 3.125h0.991l-1.434 1.434c-0.244 0.244-0.244 0.64 0 0.884 0.122 0.121 0.283 0.182 0.443 0.182s0.32-0.061 0.441-0.181l2.5-2.5c0.016-0.016 0.024-0.039 0.037-0.056 0.038-0.046 0.075-0.091 0.098-0.148 0.023-0.054 0.028-0.11 0.034-0.167 0.004-0.025 0.015-0.046 0.015-0.073 0-0.059-0.019-0.111-0.034-0.165-0.006-0.022-0.005-0.047-0.014-0.070-0.032-0.081-0.081-0.152-0.144-0.212l-2.492-2.492c-0.244-0.244-0.64-0.244-0.884 0s-0.244 0.64 0 0.884l1.431 1.431h-0.989c-1.034 0-1.875-0.841-1.875-1.875 0-1.724 1.402-3.125 3.125-3.125 2.413 0 4.375 1.963 4.375 4.375 0 3.101-2.524 5.625-5.625 5.625-3.791 0-6.875-3.085-6.875-6.875 0-4.48 3.645-8.125 8.125-8.125 5.859 0 10.625 4.766 10.625 10.625s-4.766 10.625-10.625 10.625c-8.616 0-15.625-7.009-15.625-15.625 0-0.345-0.28-0.625-0.625-0.625s-0.625 0.28-0.625 0.625c0 9.305 7.57 16.875 16.875 16.875 6.547 0 11.875-5.327 11.875-11.875s-5.327-11.875-11.875-11.875z"></path>
</svg>
