<?xml version="1.0" encoding="utf-8"?>
<!-- Generated by IcoMoon.io -->
<!DOCTYPE svg PUBLIC "-//W3C//DTD SVG 1.1//EN" "http://www.w3.org/Graphics/SVG/1.1/DTD/svg11.dtd">
<svg version="1.1" xmlns="http://www.w3.org/2000/svg" xmlns:xlink="http://www.w3.org/1999/xlink" width="30" height="30" viewBox="0 0 30 30">
<path d="M29.762 21.379c-0.236-0.185-0.57-0.178-0.797 0.019-1.3 1.131-3.486 2.348-5.215 2.348-4.695 0-7.5-5.402-7.5-10.625 0-0.149-0.004-0.296-0.009-0.443-0.001-0.061-0.004-0.121-0.005-0.182h4.39c0.246 0 0.469-0.145 0.57-0.369s0.060-0.488-0.104-0.671l-10-11.25c-0.236-0.268-0.697-0.268-0.934 0l-10 11.25c-0.164 0.184-0.204 0.446-0.104 0.671 0.101 0.225 0.324 0.369 0.57 0.369h4.375v1.875c0 8.47 6.011 15.625 13.125 15.625 4.539 0 9.392-3.223 11.804-7.836 0.14-0.265 0.070-0.594-0.166-0.78z"></path>
</svg>
