<?xml version="1.0" encoding="utf-8"?>
<!-- Generator: Adobe Illustrator 19.0.0, SVG Export Plug-In . SVG Version: 6.00 Build 0)  -->
<svg version="1.1" id="Layer_1" xmlns="http://www.w3.org/2000/svg" xmlns:xlink="http://www.w3.org/1999/xlink" x="0px" y="0px"
	 viewBox="0 0 30 30" style="enable-background:new 0 0 30 30;" xml:space="preserve">
<g>
	<g>
		<g>
			<path d="M15.5,19c-1.9,0-3.5-1.6-3.5-3.5s1.6-3.5,3.5-3.5s3.5,1.6,3.5,3.5S17.4,19,15.5,19z M15.5,13c-1.4,0-2.5,1.1-2.5,2.5
				s1.1,2.5,2.5,2.5s2.5-1.1,2.5-2.5S16.9,13,15.5,13z"/>
		</g>
		<g>
			<path d="M15.5,29C8.1,29,2,22.9,2,15.5c0-2.9,0.9-5.6,2.6-8c0.2-0.2,0.5-0.3,0.7-0.1c0.2,0.2,0.3,0.5,0.1,0.7
				C3.8,10.3,3,12.8,3,15.5C3,22.4,8.6,28,15.5,28S28,22.4,28,15.5S22.4,3,15.5,3c-2.7,0-5.2,0.8-7.4,2.4C7.9,5.6,7.6,5.5,7.4,5.3
				C7.3,5.1,7.3,4.8,7.5,4.6c2.3-1.7,5.1-2.6,8-2.6C22.9,2,29,8.1,29,15.5S22.9,29,15.5,29z"/>
		</g>
		<g>
			<path d="M15.5,24C10.8,24,7,20.2,7,15.5c0-1.5,0.4-3,1.2-4.3C8.3,11,8.6,10.9,8.9,11c0.2,0.1,0.3,0.4,0.2,0.7
				c-0.7,1.2-1,2.5-1,3.8c0,4.1,3.4,7.5,7.5,7.5s7.5-3.4,7.5-7.5S19.6,8,15.5,8c-1.3,0-2.6,0.4-3.8,1c-0.2,0.1-0.5,0.1-0.7-0.2
				c-0.1-0.2-0.1-0.5,0.2-0.7C12.5,7.4,14,7,15.5,7c4.7,0,8.5,3.8,8.5,8.5S20.2,24,15.5,24z"/>
		</g>
		<g>
			<path d="M15.5,16c-0.1,0-0.3,0-0.4-0.1L5.3,6H3.5C3.4,6,3.2,5.9,3.1,5.9l-3-3C0,2.7,0,2.5,0,2.3C0.1,2.1,0.3,2,0.5,2H2V0.5
				C2,0.3,2.1,0.1,2.3,0C2.5,0,2.7,0,2.9,0.1l3,3C5.9,3.2,6,3.4,6,3.5v1.8l9.9,9.9c0.2,0.2,0.2,0.5,0,0.7C15.8,16,15.6,16,15.5,16z
				 M3.7,5H5V3.7l-2-2v0.8C3,2.8,2.8,3,2.5,3H1.7L3.7,5z"/>
		</g>
	</g>
	<g>
		<path d="M29.5,30c-0.2,0-0.3-0.1-0.4-0.2l-4-5.5c-0.2-0.2-0.1-0.5,0.1-0.7c0.2-0.2,0.5-0.1,0.7,0.1l4,5.5c0.2,0.2,0.1,0.5-0.1,0.7
			C29.7,30,29.6,30,29.5,30z"/>
	</g>
	<g>
		<path d="M1.5,30c-0.1,0-0.2,0-0.3-0.1c-0.2-0.2-0.3-0.5-0.1-0.7l4-5.5c0.2-0.2,0.5-0.3,0.7-0.1c0.2,0.2,0.3,0.5,0.1,0.7l-4,5.5
			C1.8,29.9,1.7,30,1.5,30z"/>
	</g>
</g>
</svg>
