<?xml version="1.0" encoding="utf-8"?>
<!-- Generator: Adobe Illustrator 19.0.0, SVG Export Plug-In . SVG Version: 6.00 Build 0)  -->
<svg version="1.1" id="Layer_1" xmlns="http://www.w3.org/2000/svg" xmlns:xlink="http://www.w3.org/1999/xlink" x="0px" y="0px"
	 viewBox="0 0 30 30" style="enable-background:new 0 0 30 30;" xml:space="preserve">
<g>
	<g>
		<path d="M15,29C7.3,29,1,22.7,1,15S7.3,1,15,1s14,6.3,14,14S22.7,29,15,29z M15,2C7.8,2,2,7.8,2,15s5.8,13,13,13s13-5.8,13-13
			S22.2,2,15,2z"/>
	</g>
	<g>
		<path d="M17,15c-1.1,0-2-0.9-2-2s0.9-2,2-2s2,0.9,2,2S18.1,15,17,15z M17,12c-0.6,0-1,0.4-1,1s0.4,1,1,1s1-0.4,1-1S17.6,12,17,12z
			"/>
	</g>
	<g>
		<path d="M18,9c-1.1,0-2-0.9-2-2s0.9-2,2-2s2,0.9,2,2S19.1,9,18,9z M18,6c-0.6,0-1,0.4-1,1s0.4,1,1,1s1-0.4,1-1S18.6,6,18,6z"/>
	</g>
	<g>
		<path d="M23,14c-1.1,0-2-0.9-2-2s0.9-2,2-2s2,0.9,2,2S24.1,14,23,14z M23,11c-0.6,0-1,0.4-1,1s0.4,1,1,1s1-0.4,1-1S23.6,11,23,11z
			"/>
	</g>
</g>
</svg>
