<?xml version="1.0" encoding="utf-8"?>
<!-- Generator: Adobe Illustrator 19.0.0, SVG Export Plug-In . SVG Version: 6.00 Build 0)  -->
<svg version="1.1" id="Layer_1" xmlns="http://www.w3.org/2000/svg" xmlns:xlink="http://www.w3.org/1999/xlink" x="0px" y="0px"
	 viewBox="0 0 30 30" style="enable-background:new 0 0 30 30;" xml:space="preserve">
<g>
	<g>
		<path d="M5.8,30c-0.6,0-1.2,0-1.8-0.1c-2.1-0.2-3.8-1.8-4-4c-0.1-1.7-0.1-3.3,0.1-5l0,0C1.6,10.2,10.2,1.6,21,0.2
			c1.7-0.2,3.3-0.3,5-0.1c2.1,0.2,3.8,1.8,4,4c0.1,1.7,0.1,3.3-0.1,5C28.4,19.8,19.8,28.4,9,29.8C7.9,29.9,6.9,30,5.8,30z M1.2,21.1
			c-0.2,1.6-0.3,3.2-0.1,4.8c0.1,1.6,1.4,2.9,3,3c1.6,0.1,3.2,0.1,4.8-0.1c10.2-1.3,18.6-9.7,19.9-19.9c0.2-1.6,0.3-3.2,0.1-4.8
			c-0.1-1.6-1.4-2.9-3-3c-1.6-0.1-3.2-0.1-4.8,0.1C10.9,2.5,2.5,10.9,1.2,21.1L1.2,21.1z"/>
	</g>
	<g>
		<path d="M2,29C2,29,2,29,2,29c-0.3,0-0.5-0.3-0.5-0.6C2.8,17.1,17.2,2.8,28.4,1.5c0.3,0,0.5,0.2,0.6,0.4c0,0.3-0.2,0.5-0.4,0.6
			C17.7,3.7,3.8,17.6,2.5,28.6C2.5,28.8,2.2,29,2,29z"/>
	</g>
	<g>
		<path d="M11.5,14c-0.1,0-0.3,0-0.4-0.1l-2-2c-0.2-0.2-0.2-0.5,0-0.7s0.5-0.2,0.7,0l2,2c0.2,0.2,0.2,0.5,0,0.7
			C11.8,14,11.6,14,11.5,14z"/>
	</g>
	<g>
		<path d="M9,16.5c-0.1,0-0.3,0-0.4-0.1l-2-2c-0.2-0.2-0.2-0.5,0-0.7s0.5-0.2,0.7,0l2,2c0.2,0.2,0.2,0.5,0,0.7
			C9.3,16.5,9.1,16.5,9,16.5z"/>
	</g>
	<g>
		<path d="M14,11.5c-0.1,0-0.3,0-0.4-0.1l-2-2c-0.2-0.2-0.2-0.5,0-0.7s0.5-0.2,0.7,0l2,2c0.2,0.2,0.2,0.5,0,0.7
			C14.3,11.5,14.1,11.5,14,11.5z"/>
	</g>
	<g>
		<path d="M17,9c-0.1,0-0.3,0-0.4-0.1l-2-2c-0.2-0.2-0.2-0.5,0-0.7s0.5-0.2,0.7,0l2,2c0.2,0.2,0.2,0.5,0,0.7C17.3,9,17.1,9,17,9z"/>
	</g>
</g>
</svg>
