<?xml version="1.0" encoding="utf-8"?>
<!-- Generator: Adobe Illustrator 19.0.0, SVG Export Plug-In . SVG Version: 6.00 Build 0)  -->
<svg version="1.1" id="Layer_1" xmlns="http://www.w3.org/2000/svg" xmlns:xlink="http://www.w3.org/1999/xlink" x="0px" y="0px"
	 viewBox="0 0 30 30" style="enable-background:new 0 0 30 30;" xml:space="preserve">
<g>
	<g>
		<path d="M8.5,12c-0.2,0-0.4-0.1-0.4-0.3l-2-4C5.9,7.5,6,7.3,6.2,7.1l5-4C11.3,3,11.6,3,11.7,3.1l5,2.5c0.1,0.1,0.2,0.2,0.3,0.3
			s0,0.3-0.1,0.4l-3,5c-0.1,0.1-0.2,0.2-0.4,0.2L8.5,12C8.5,12,8.5,12,8.5,12z M7.1,7.6L8.8,11l4.4-0.4l2.6-4.3l-4.2-2.1L7.1,7.6z"
			/>
	</g>
	<g>
		<path d="M19.5,25c-0.1,0-0.2,0-0.3-0.1l-4-3C15,21.8,15,21.5,15,21.3l2-5.5c0.1-0.2,0.2-0.3,0.4-0.3l6-0.5c0.3,0,0.5,0.2,0.5,0.4
			l1,6c0,0.2-0.1,0.4-0.2,0.5l-5,3C19.7,25,19.6,25,19.5,25z M16.1,21.3l3.4,2.6l4.4-2.7L23.1,16l-5.2,0.4L16.1,21.3z"/>
	</g>
	<g>
		<path d="M6.5,27c-0.1,0-0.2,0-0.2-0.1c-0.2-0.1-0.3-0.4-0.2-0.7l1.9-3.8l-2.7-5L1.1,18c-0.3,0-0.5-0.2-0.6-0.4
			c0-0.3,0.2-0.5,0.4-0.6l4.5-0.5c0.2,0,0.4,0.1,0.5,0.3l3,5.5c0.1,0.1,0.1,0.3,0,0.5l-2,4C6.9,26.9,6.7,27,6.5,27z"/>
	</g>
	<g>
		<path d="M29,12c0,0-0.1,0-0.1,0l-3.5-1c-0.1,0-0.2-0.1-0.3-0.2l-3-5C22,5.7,22,5.6,22,5.5V3c0-0.3,0.2-0.5,0.5-0.5S23,2.7,23,3
			v2.4l2.8,4.7l3.3,0.9c0.3,0.1,0.4,0.4,0.3,0.6C29.4,11.9,29.2,12,29,12z"/>
	</g>
	<g>
		<path d="M17.5,16.6c-0.1,0-0.3-0.1-0.4-0.2l-4-5.1c-0.2-0.2-0.1-0.5,0.1-0.7c0.2-0.2,0.5-0.1,0.7,0.1l4,5.1
			c0.2,0.2,0.1,0.5-0.1,0.7C17.7,16.5,17.6,16.6,17.5,16.6z"/>
	</g>
	<g>
		<path d="M8.5,23C8.3,23,8,22.8,8,22.6C8,22.3,8.2,22,8.4,22l7-1c0.3,0,0.5,0.2,0.6,0.4c0,0.3-0.2,0.5-0.4,0.6L8.5,23
			C8.5,23,8.5,23,8.5,23z"/>
	</g>
	<g>
		<path d="M18.5,29.5c0,0-0.1,0-0.1,0c-0.3-0.1-0.4-0.3-0.4-0.6l1-4.5c0.1-0.3,0.3-0.4,0.6-0.4c0.3,0.1,0.4,0.3,0.4,0.6l-1,4.5
			C18.9,29.3,18.7,29.5,18.5,29.5z"/>
	</g>
	<g>
		<path d="M27.5,22h-3c-0.3,0-0.5-0.2-0.5-0.5s0.2-0.5,0.5-0.5h3c0.3,0,0.5,0.2,0.5,0.5S27.8,22,27.5,22z"/>
	</g>
	<g>
		<path d="M23.5,16c-0.1,0-0.1,0-0.2,0c-0.3-0.1-0.4-0.4-0.3-0.7l2-5c0.1-0.3,0.4-0.4,0.7-0.3c0.3,0.1,0.4,0.4,0.3,0.7l-2,5
			C23.9,15.9,23.7,16,23.5,16z"/>
	</g>
	<g>
		<path d="M16.5,6.5C16.2,6.5,16,6.3,16,6c0-0.3,0.2-0.5,0.5-0.5l6-0.5C22.7,5,23,5.2,23,5.5S22.8,6,22.5,6L16.5,6.5
			C16.5,6.5,16.5,6.5,16.5,6.5z"/>
	</g>
	<g>
		<path d="M5.5,17.5c-0.1,0-0.2,0-0.2-0.1C5,17.3,4.9,17,5.1,16.8l3-5.5c0.1-0.2,0.4-0.3,0.7-0.2c0.2,0.1,0.3,0.4,0.2,0.7l-3,5.5
			C5.8,17.4,5.7,17.5,5.5,17.5z"/>
	</g>
	<g>
		<path d="M6.5,8C6.5,8,6.5,8,6.5,8L2.9,7.5c-0.3,0-0.5-0.3-0.4-0.6c0-0.3,0.3-0.5,0.6-0.4L6.6,7C6.8,7,7,7.3,7,7.6
			C7,7.8,6.7,8,6.5,8z"/>
	</g>
	<g>
		<path d="M11.5,4C11.2,4,11,3.8,11,3.5V1c0-0.3,0.2-0.5,0.5-0.5S12,0.7,12,1v2.5C12,3.8,11.8,4,11.5,4z"/>
	</g>
	<g>
		<path d="M15,30C6.7,30,0,23.3,0,15S6.7,0,15,0s15,6.7,15,15S23.3,30,15,30z M15,1C7.3,1,1,7.3,1,15s6.3,14,14,14s14-6.3,14-14
			S22.7,1,15,1z"/>
	</g>
</g>
</svg>
