<svg xmlns="http://www.w3.org/2000/svg" viewBox="0 0 64.08 80.57"><title>Asset 1</title><g id="Layer_2" data-name="Layer 2"><g id="Layer_1-2" data-name="Layer 1"><path d="M53.48,28.42c.07-.72.11-1.45.11-2.19V21.36A21.39,21.39,0,0,0,32.23,0h-.38A21.38,21.38,0,0,0,10.49,21.36v4.87c0,.74,0,1.47.11,2.19A13.51,13.51,0,0,0,0,41.6V67.08A13.5,13.5,0,0,0,13.49,80.57h37.1A13.5,13.5,0,0,0,64.08,67.08V41.6A13.51,13.51,0,0,0,53.48,28.42ZM17.24,21.36A14.62,14.62,0,0,1,31.85,6.75h.38A14.62,14.62,0,0,1,46.84,21.36v4.87a14.33,14.33,0,0,1-.12,1.87H17.36a14.33,14.33,0,0,1-.12-1.87ZM57.33,67.08a6.74,6.74,0,0,1-6.74,6.74H13.49a6.74,6.74,0,0,1-6.74-6.74V41.6A6.75,6.75,0,0,1,12.36,35a7,7,0,0,1,1.13-.1h37.1a7.08,7.08,0,0,1,1.13.1,6.75,6.75,0,0,1,5.61,6.65Z"/><circle cx="32.23" cy="54.34" r="5.25"/></g></g></svg>