<?xml version="1.0" encoding="iso-8859-1"?>
<!-- Generator: Adobe Illustrator 19.0.0, SVG Export Plug-In . SVG Version: 6.00 Build 0)  -->
<svg version="1.1" id="Layer_1" xmlns="http://www.w3.org/2000/svg" xmlns:xlink="http://www.w3.org/1999/xlink" x="0px" y="0px"
	 viewBox="0 0 30 30" style="enable-background:new 0 0 30 30;" xml:space="preserve">
<g>
	<g>
		<path d="M29.5,0.5C29.5,0.224,29.276,0,29,0h-6c-0.215,0-0.406,0.138-0.474,0.341l-1,3c-0.052,0.153-0.026,0.321,0.068,0.451
			C21.688,3.923,21.839,4,22,4h1.793l-3.978,3.977l0.676-3.38c0.029-0.147-0.009-0.299-0.104-0.415
			C20.292,4.066,20.15,3.999,20,3.999h-2l2.4-3.2c0.113-0.151,0.131-0.354,0.047-0.523C20.362,0.107,20.189,0,20,0H1
			C0.724,0,0.5,0.224,0.5,0.5c0,7.443,5.676,13.689,13,14.445V27H9c-1.519,0-2.5,0.981-2.5,2.5C6.5,29.776,6.724,30,7,30h16
			c0.276,0,0.5-0.224,0.5-0.5c0-1.519-0.981-2.5-2.5-2.5h-4.5V14.944C23.825,14.2,29.5,7.953,29.5,0.5z M21,28
			c0.96,0,1.319,0.508,1.442,1H7.558C7.681,28.508,8.04,28,9,28h5c0.276,0,0.5-0.224,0.5-0.5v-13c0-0.032-0.012-0.06-0.018-0.09
			c-0.005-0.029-0.007-0.058-0.017-0.085c-0.013-0.035-0.035-0.065-0.055-0.096c-0.015-0.022-0.026-0.046-0.044-0.065
			c-0.026-0.028-0.058-0.048-0.089-0.07c-0.021-0.015-0.04-0.032-0.064-0.043c-0.035-0.016-0.073-0.023-0.111-0.031
			c-0.023-0.005-0.043-0.017-0.066-0.018C7.172,13.521,1.76,7.856,1.509,1.001H19l-2.4,3.2c-0.113,0.151-0.131,0.354-0.047,0.523
			C16.638,4.893,16.811,5,17,5h2.39l-0.879,4.402c-0.044,0.216,0.06,0.435,0.254,0.539c0.193,0.103,0.433,0.069,0.589-0.087l6-6
			c0.143-0.143,0.186-0.358,0.108-0.545C25.385,3.122,25.202,3,25,3h-2.306l0.667-2h5.13c-0.252,6.866-5.663,12.53-12.525,13.001
			c-0.029,0.002-0.054,0.016-0.081,0.022c-0.032,0.008-0.064,0.012-0.094,0.026c-0.03,0.014-0.055,0.035-0.081,0.055
			c-0.025,0.018-0.051,0.034-0.073,0.057c-0.023,0.024-0.038,0.053-0.055,0.082c-0.016,0.026-0.035,0.05-0.046,0.079
			c-0.012,0.032-0.015,0.066-0.02,0.101c-0.004,0.026-0.016,0.05-0.016,0.078v13c0,0.276,0.224,0.5,0.5,0.5H21z"/>
	</g>
</g>
</svg>
