<?xml version="1.0" encoding="iso-8859-1"?>
<!-- Generator: Adobe Illustrator 19.0.0, SVG Export Plug-In . SVG Version: 6.00 Build 0)  -->
<svg version="1.1" id="Layer_1" xmlns="http://www.w3.org/2000/svg" xmlns:xlink="http://www.w3.org/1999/xlink" x="0px" y="0px"
	 viewBox="0 0 30 30" style="enable-background:new 0 0 30 30;" xml:space="preserve">
<g>
	<g>
		<path d="M20.184,4.706c-1.06-0.51-2.151-0.564-2.922-0.146c-1.454,0.792-2.062,2.181-1.913,4.37
			c0.12,1.753,0.495,2.544,0.858,3.308c0.253,0.535,0.493,1.039,0.647,1.91c0.049,0.272,0.314,0.454,0.579,0.405
			c0.272-0.048,0.453-0.308,0.405-0.58c-0.178-1.004-0.458-1.594-0.729-2.164c-0.338-0.712-0.658-1.384-0.764-2.948
			c-0.154-2.264,0.618-3,1.394-3.422c0.472-0.258,1.262-0.191,2.01,0.168c0.556,0.267,1.884,1.093,2.218,2.98
			c0.247,1.397-0.105,3.529-0.465,5.413H20c-0.276,0-0.5,0.224-0.5,0.5S19.724,15,20,15h1.31c-0.134,0.693-0.257,1.337-0.333,1.868
			c-0.042,0.167-0.148,0.483-0.316,0.711c-0.164,0.223-0.116,0.536,0.107,0.699c0.089,0.065,0.192,0.097,0.296,0.097
			c0.153,0,0.304-0.071,0.404-0.203c0.316-0.431,0.455-0.949,0.489-1.097c0.002-0.007-0.001-0.015,0.001-0.022
			c0.002-0.009,0.007-0.015,0.008-0.024c0.082-0.581,0.221-1.292,0.371-2.065c0.415-2.127,0.931-4.775,0.617-6.551
			C22.665,6.788,21.63,5.402,20.184,4.706z M15,0.5c-3.98,0-7.589,1.614-10.212,4.219C4.774,4.73,4.758,4.735,4.746,4.747
			C4.734,4.759,4.729,4.776,4.718,4.789C2.113,7.412,0.5,11.021,0.5,15c0,7.995,6.505,14.5,14.5,14.5
			c3.983,0,7.594-1.616,10.217-4.224c0.011-0.009,0.024-0.013,0.035-0.023c0.01-0.01,0.014-0.023,0.023-0.034
			C27.884,22.596,29.5,18.983,29.5,15C29.5,7.005,22.995,0.5,15,0.5z M15,28.5C7.556,28.5,1.5,22.444,1.5,15
			c0-3.542,1.382-6.76,3.621-9.171l4.944,4.944c-0.091,0.02-0.179,0.027-0.271,0.057c-1.321,0.423-2.828,1.85-3.224,4.082
			c-0.315,1.776,0.202,4.424,0.617,6.551c0.147,0.76,0.284,1.458,0.366,2.033c0.002,0.026,0.006,0.052,0.013,0.078
			C7.833,24.708,8.834,25.5,10,25.5c1.379,0,2.5-1.122,2.501-2.501c0-2.448,0.398-3.269,0.784-4.063
			c0.362-0.746,0.737-1.517,0.737-3.368c0-0.33-0.02-0.617-0.05-0.888l10.199,10.199C21.76,27.118,18.542,28.5,15,28.5z M8.02,20.5
			c-0.36-1.884-0.712-4.016-0.465-5.413c0.321-1.813,1.544-2.983,2.544-3.304c0.451-0.145,0.834-0.107,1.05,0.103
			c1.542,1.512,1.873,1.995,1.873,3.683c0,1.621-0.295,2.228-0.637,2.932c-0.248,0.51-0.513,1.069-0.688,1.999H8.02z M11.564,21.5
			C11.525,21.935,11.5,22.421,11.5,23c0,0.827-0.673,1.5-1.5,1.5c-0.689,0-1.282-0.46-1.453-1.125
			c-0.075-0.533-0.199-1.18-0.334-1.875H11.564z M24.878,24.172L5.828,5.122C8.239,2.882,11.457,1.5,15,1.5
			c7.444,0,13.5,6.056,13.5,13.5C28.5,18.543,27.118,21.761,24.878,24.172z"/>
	</g>
</g>
</svg>
