<?xml version="1.0" encoding="iso-8859-1"?>
<!-- Generator: Adobe Illustrator 19.0.0, SVG Export Plug-In . SVG Version: 6.00 Build 0)  -->
<svg version="1.1" id="Layer_1" xmlns="http://www.w3.org/2000/svg" xmlns:xlink="http://www.w3.org/1999/xlink" x="0px" y="0px"
	 viewBox="0 0 30 30" style="enable-background:new 0 0 30 30;" xml:space="preserve">
<g>
	<g>
		<path d="M21,11.5h-2.5V11c0-0.276-0.224-0.5-0.5-0.5h-2.5v-3h1.143c0.33,0.593,1.229,1,2.357,1c1.425,0,2.5-0.645,2.5-1.5
			S20.425,5.5,19,5.5c-1.128,0-2.027,0.407-2.357,1h-3.286c-0.33-0.593-1.229-1-2.357-1c-0.276,0-0.5,0.224-0.5,0.5
			s0.224,0.5,0.5,0.5c0.968,0,1.5,0.375,1.5,0.5c0,0.052-0.215,0.303-0.825,0.432c-0.27,0.057-0.443,0.323-0.386,0.593
			c0.05,0.235,0.258,0.396,0.489,0.396c0.034,0,0.069-0.003,0.104-0.01c0.73-0.155,1.255-0.487,1.485-0.911H14.5v3
			c-0.276,0-0.5,0.224-0.5,0.5s0.224,0.5,0.5,0.5h3V14c0,0.276,0.224,0.5,0.5,0.5s0.5-0.223,0.5-0.5v-1.5H21
			c1.93,0,3.5,1.57,3.5,3.5v3.5h-2v-2c0-1.103-0.897-2-2-2H20c-0.276,0-0.5,0.224-0.5,0.5s0.224,0.5,0.5,0.5h0.5
			c0.551,0,1,0.449,1,1V20c0,0.276,0.224,0.5,0.5,0.5h3c0.276,0,0.5-0.224,0.5-0.5v-4C25.5,13.519,23.481,11.5,21,11.5z M19,6.5
			c0.968,0,1.5,0.375,1.5,0.5S19.968,7.5,19,7.5S17.5,7.125,17.5,7S18.032,6.5,19,6.5z M15,0.5c-3.98,0-7.59,1.614-10.212,4.219
			C4.774,4.73,4.758,4.735,4.746,4.747C4.734,4.759,4.729,4.776,4.718,4.789C2.113,7.412,0.5,11.021,0.5,15
			c0,7.995,6.505,14.5,14.5,14.5c3.983,0,7.594-1.616,10.217-4.224c0.011-0.009,0.024-0.013,0.035-0.023
			c0.01-0.01,0.014-0.023,0.023-0.034C27.884,22.596,29.5,18.983,29.5,15C29.5,7.005,22.995,0.5,15,0.5z M15,28.5
			C7.556,28.5,1.5,22.444,1.5,15c0-3.542,1.382-6.76,3.621-9.171l5.671,5.671H6c-0.276,0-0.5,0.224-0.5,0.5v4
			c0,0.276,0.224,0.5,0.5,0.5h5.5V18c0,0.276,0.224,0.5,0.5,0.5h5.792l6.379,6.379C21.76,27.118,18.542,28.5,15,28.5z M11.5,12.5v3
			h-5v-3H11.5z M12.5,17.5v-4.292l4.292,4.292H12.5z M24.878,24.172l-6.522-6.522c-0.002-0.002-0.003-0.004-0.005-0.005
			l-5.995-5.995c-0.002-0.002-0.003-0.004-0.005-0.005L5.828,5.122C8.239,2.882,11.457,1.5,15,1.5c7.444,0,13.5,6.056,13.5,13.5
			C28.5,18.543,27.118,21.761,24.878,24.172z"/>
	</g>
</g>
</svg>
