<?xml version="1.0" encoding="iso-8859-1"?>
<!-- Generator: Adobe Illustrator 19.0.0, SVG Export Plug-In . SVG Version: 6.00 Build 0)  -->
<svg version="1.1" id="Layer_1" xmlns="http://www.w3.org/2000/svg" xmlns:xlink="http://www.w3.org/1999/xlink" x="0px" y="0px"
	 viewBox="0 0 30 30" style="enable-background:new 0 0 30 30;" xml:space="preserve">
<g>
	<g>
		<path d="M20.75,6c1.654,0,3-1.346,3-3s-1.346-3-3-3c-1.654,0-3,1.346-3,3S19.096,6,20.75,6z M20.75,1c1.103,0,2,0.897,2,2
			c0,1.103-0.897,2-2,2c-1.103,0-2-0.897-2-2C18.75,1.897,19.647,1,20.75,1z M9.339,23.786c0.084,0.12,0.215,0.197,0.361,0.212
			C9.717,23.999,9.733,24,9.75,24c0.128,0,0.253-0.049,0.346-0.139l2.5-2.4c0.177-0.17,0.204-0.444,0.064-0.646l-2.5-3.6
			c-0.084-0.12-0.215-0.197-0.361-0.212c-0.144-0.014-0.291,0.035-0.396,0.137l-2.5,2.4c-0.177,0.17-0.204,0.444-0.064,0.646
			L9.339,23.786z M9.674,18.266l1.923,2.768l-1.77,1.699l-1.923-2.768L9.674,18.266z M22.75,8h-4.185
			c-1.298,0-2.532,0.56-3.387,1.537L13.023,12H10.75c-0.827,0-1.5,0.673-1.5,1.5s0.673,1.5,1.5,1.5h3.5
			c0.104,0,0.207-0.032,0.291-0.093l2.709-1.935V28c0,1.103,0.897,2,2,2c0.597,0,1.133-0.263,1.5-0.679
			C21.117,29.737,21.653,30,22.25,30c1.103,0,2-0.897,2-2v-8.085C24.406,19.97,24.575,20,24.75,20c0.827,0,1.5-0.673,1.5-1.5v-7
			C26.25,9.57,24.68,8,22.75,8z M25.25,18.5c0,0.276-0.224,0.5-0.5,0.5s-0.5-0.224-0.5-0.5V12c0-0.276-0.224-0.5-0.5-0.5
			s-0.5,0.224-0.5,0.5v16c0,0.551-0.449,1-1,1c-0.551,0-1-0.449-1-1v-7.5c0-0.276-0.223-0.501-0.499-0.501s-0.5,0.224-0.5,0.5v7.5
			c0,0.551-0.449,1-1,1c-0.551,0-1-0.449-1-1v-16c0-0.187-0.104-0.359-0.271-0.444c-0.168-0.087-0.368-0.072-0.52,0.038L14.09,14
			h-3.34c-0.276,0-0.5-0.224-0.5-0.5s0.224-0.5,0.5-0.5h2.5c0.144,0,0.281-0.062,0.376-0.171l2.305-2.634
			C16.596,9.436,17.556,9,18.565,9h4.185c1.378,0,2.5,1.122,2.5,2.5V18.5z M14.372,19.015c-0.27-0.069-0.54,0.096-0.606,0.364
			L11.36,29H7.141l-2.406-9.621c-0.067-0.268-0.339-0.433-0.606-0.364c-0.268,0.067-0.431,0.338-0.364,0.606l2.5,10
			C6.321,29.844,6.521,30,6.75,30h5c0.229,0,0.429-0.156,0.486-0.379l2.5-10C14.803,19.353,14.64,19.082,14.372,19.015z"/>
	</g>
</g>
</svg>
