<?xml version="1.0" encoding="iso-8859-1"?>
<!-- Generator: Adobe Illustrator 19.0.0, SVG Export Plug-In . SVG Version: 6.00 Build 0)  -->
<svg version="1.1" id="Layer_1" xmlns="http://www.w3.org/2000/svg" xmlns:xlink="http://www.w3.org/1999/xlink" x="0px" y="0px"
	 viewBox="0 0 30 30" style="enable-background:new 0 0 30 30;" xml:space="preserve">
<g>
	<g>
		<path d="M12,19.5c-0.276,0-0.5,0.224-0.5,0.5v2c0,0.276,0.224,0.5,0.5,0.5s0.5-0.224,0.5-0.5v-2C12.5,19.724,12.276,19.5,12,19.5z
			 M16,19.5c-0.276,0-0.5,0.224-0.5,0.5v2c0,0.276,0.224,0.5,0.5,0.5s0.5-0.224,0.5-0.5v-2C16.5,19.724,16.276,19.5,16,19.5z
			 M9.224,19.552c-0.248-0.123-0.547-0.023-0.671,0.224l-1,2c-0.123,0.247-0.023,0.547,0.224,0.671C7.849,22.483,7.925,22.5,8,22.5
			c0.183,0,0.359-0.101,0.448-0.277l1-2C9.571,19.976,9.471,19.676,9.224,19.552z M10.12,22.515c-0.27-0.07-0.539,0.095-0.606,0.364
			l-0.5,2c-0.067,0.268,0.096,0.539,0.364,0.606C9.419,25.495,9.46,25.5,9.5,25.5c0.225,0,0.428-0.151,0.484-0.379l0.5-2
			C10.551,22.853,10.388,22.582,10.12,22.515z M14,23.5c-0.276,0-0.5,0.224-0.5,0.5v2c0,0.276,0.224,0.5,0.5,0.5s0.5-0.224,0.5-0.5
			v-2C14.5,23.724,14.276,23.5,14,23.5z M21,4.5H11c-0.276,0-0.5,0.224-0.5,0.5s0.224,0.5,0.5,0.5h9.536L20.795,9H13
			c-4.276,0-7.5,3.439-7.5,8v1.5C5.5,18.776,5.724,19,6,19h16c0.139,0,0.272-0.058,0.367-0.16c0.094-0.102,0.142-0.238,0.132-0.377
			l-1-13.5C21.479,4.702,21.262,4.5,21,4.5z M6.5,18v-1c0-3.991,2.794-7,6.5-7h7.869l0.592,8H6.5z M18.486,22.879
			c-0.066-0.268-0.34-0.434-0.606-0.364c-0.268,0.067-0.431,0.338-0.364,0.606l0.5,2c0.056,0.228,0.26,0.379,0.484,0.379
			c0.04,0,0.081-0.005,0.122-0.015c0.268-0.067,0.431-0.338,0.364-0.606L18.486,22.879z M15,0.5C7.005,0.5,0.5,7.005,0.5,15
			S7.005,29.5,15,29.5S29.5,22.995,29.5,15S22.995,0.5,15,0.5z M15,28.5C7.556,28.5,1.5,22.444,1.5,15C1.5,7.556,7.556,1.5,15,1.5
			S28.5,7.556,28.5,15C28.5,22.444,22.444,28.5,15,28.5z M19.447,19.777c-0.124-0.247-0.424-0.347-0.671-0.224
			c-0.247,0.124-0.348,0.424-0.224,0.671l1,2C19.64,22.399,19.816,22.5,20,22.5c0.076,0,0.152-0.017,0.223-0.052
			c0.247-0.124,0.348-0.424,0.224-0.671L19.447,19.777z"/>
	</g>
</g>
</svg>
