<?xml version="1.0" encoding="utf-8"?>
<!-- Generated by IcoMoon.io -->
<!DOCTYPE svg PUBLIC "-//W3C//DTD SVG 1.1//EN" "http://www.w3.org/Graphics/SVG/1.1/DTD/svg11.dtd">
<svg version="1.1" xmlns="http://www.w3.org/2000/svg" xmlns:xlink="http://www.w3.org/1999/xlink" width="30" height="30" viewBox="0 0 30 30">
<path d="M22.5 17.090v-8.965c0-0.345-0.28-0.625-0.625-0.625h-17.5c-0.755 0-1.49-0.205-2.185-0.61-0.193-0.114-0.433-0.112-0.626-0.002-0.194 0.111-0.314 0.319-0.314 0.542v16.945c0 1.724 1.403 3.125 3.125 3.125h8.75c0.345 0 0.625-0.28 0.625-0.625 0-0.494 0.2-0.976 0.549-1.326l8.018-8.017c0.118-0.116 0.184-0.275 0.184-0.441zM4.375 6.25h17.525c0.345 0 0.625-0.28 0.625-0.625 0-0.189-0.085-0.36-0.218-0.475-0.099-0.166-0.31-0.623-0.392-1.4h-17.54c-0.345 0-0.625-0.28-0.625-0.625s0.28-0.625 0.625-0.625h17.535c0.106-1.018 0.44-1.469 0.44-1.469 0.159-0.184 0.195-0.445 0.094-0.667s-0.325-0.364-0.569-0.364h-17.5c-1.723 0-3.125 1.401-3.125 3.125s1.403 3.125 3.125 3.125zM28.568 18.932l-2.5-2.5c-0.244-0.244-0.64-0.244-0.884 0l-2.057 2.057 3.384 3.384 2.057-2.057c0.244-0.244 0.244-0.639 0-0.884zM15.182 26.432c-0.118 0.118-0.182 0.276-0.182 0.442v2.5c0 0.345 0.28 0.625 0.625 0.625h2.5c0.166 0 0.325-0.066 0.442-0.182l7.058-7.057-3.384-3.384-7.059 7.056z"></path>
</svg>
