<?xml version="1.0" encoding="utf-8"?>
<!-- Generated by IcoMoon.io -->
<!DOCTYPE svg PUBLIC "-//W3C//DTD SVG 1.1//EN" "http://www.w3.org/Graphics/SVG/1.1/DTD/svg11.dtd">
<svg version="1.1" xmlns="http://www.w3.org/2000/svg" xmlns:xlink="http://www.w3.org/1999/xlink" width="30" height="30" viewBox="0 0 30 30">
<path d="M6.863 6.25h18.75c0.009-0.001 0.016 0 0.025 0 0.345 0 0.625-0.28 0.625-0.625 0-0.19-0.084-0.36-0.218-0.474-0.099-0.167-0.31-0.624-0.392-1.401h-18.79c-0.345 0-0.625-0.28-0.625-0.625s0.28-0.625 0.625-0.625h18.785c0.106-1.018 0.441-1.469 0.441-1.469 0.159-0.185 0.194-0.446 0.092-0.667s-0.325-0.364-0.569-0.364h-18.75c-1.723 0-3.125 1.403-3.125 3.125s1.402 3.125 3.125 3.125zM25.613 7.5h-18.75c-0.755 0-1.49-0.206-2.185-0.611-0.193-0.111-0.431-0.114-0.626-0.001-0.194 0.111-0.314 0.316-0.314 0.541v19.446c0 1.723 1.402 3.125 3.125 3.125h18.75c0.345 0 0.625-0.28 0.625-0.625v-21.25c0-0.345-0.28-0.625-0.625-0.625z"></path>
</svg>
