<?xml version="1.0" encoding="utf-8"?>
<!-- Generated by IcoMoon.io -->
<!DOCTYPE svg PUBLIC "-//W3C//DTD SVG 1.1//EN" "http://www.w3.org/Graphics/SVG/1.1/DTD/svg11.dtd">
<svg version="1.1" xmlns="http://www.w3.org/2000/svg" xmlns:xlink="http://www.w3.org/1999/xlink" width="30" height="30" viewBox="0 0 30 30">
<path d="M13.75 23.125c0-4.48 3.645-8.125 8.125-8.125 0.345 0 0.625-0.28 0.625-0.625v-6.25c0-0.345-0.28-0.625-0.625-0.625h-17.5c-0.755 0-1.49-0.205-2.185-0.61-0.193-0.114-0.431-0.113-0.626-0.002-0.194 0.111-0.314 0.319-0.314 0.542v16.945c0 1.724 1.403 3.125 3.125 3.125h9.606c0.215 0 0.414-0.11 0.529-0.291s0.129-0.409 0.035-0.601c-0.527-1.109-0.795-2.279-0.795-3.482zM4.375 6.25h17.525c0.345 0 0.625-0.28 0.625-0.625 0-0.189-0.085-0.36-0.218-0.475-0.099-0.166-0.31-0.623-0.392-1.4h-17.54c-0.345 0-0.625-0.28-0.625-0.625s0.28-0.625 0.625-0.625h17.535c0.106-1.018 0.44-1.469 0.44-1.469 0.159-0.184 0.195-0.445 0.094-0.667s-0.325-0.364-0.569-0.364h-17.5c-1.723 0-3.125 1.401-3.125 3.125s1.403 3.125 3.125 3.125zM21.875 16.25c-3.791 0-6.875 3.085-6.875 6.875s3.084 6.875 6.875 6.875 6.875-3.085 6.875-6.875-3.084-6.875-6.875-6.875zM24.818 26.066c-0.122 0.122-0.283 0.184-0.443 0.184s-0.32-0.061-0.443-0.182l-2.057-2.057-2.057 2.057c-0.122 0.121-0.283 0.182-0.442 0.182s-0.32-0.061-0.443-0.182c-0.244-0.244-0.244-0.64 0-0.884l2.057-2.057-2.057-2.057c-0.244-0.244-0.244-0.64 0-0.884s0.64-0.244 0.884 0l2.057 2.057 2.057-2.057c0.244-0.244 0.64-0.244 0.884 0s0.244 0.64 0 0.884l-2.057 2.057 2.060 2.056c0.244 0.244 0.244 0.64 0 0.884z"></path>
</svg>
