<?xml version="1.0" encoding="utf-8"?>
<!-- Generated by IcoMoon.io -->
<!DOCTYPE svg PUBLIC "-//W3C//DTD SVG 1.1//EN" "http://www.w3.org/Graphics/SVG/1.1/DTD/svg11.dtd">
<svg version="1.1" xmlns="http://www.w3.org/2000/svg" xmlns:xlink="http://www.w3.org/1999/xlink" width="30" height="30" viewBox="0 0 30 30">
<path d="M24.375 0h-18.75c-1.723 0-3.125 1.401-3.125 3.125v23.75c0 1.724 1.402 3.125 3.125 3.125h18.75c1.723 0 3.125-1.401 3.125-3.125v-23.75c0-1.724-1.402-3.125-3.125-3.125zM6.25 28.75h-0.625c-1.034 0-1.875-0.841-1.875-1.875v-23.75c0-1.034 0.841-1.875 1.875-1.875h0.625v27.5zM23.567 9.817c-0.527 0.527-0.83 1.181-1.056 1.913 0 0.001 0 0.002-0.001 0.002-0.166 0.539-0.296 1.115-0.425 1.738 0 0.002-0.001 0.004-0.001 0.005-0.344 1.667-0.733 3.557-2.266 5.091-0.861 0.861-2.534 1.44-4.161 1.44-0.844 0-1.991-0.179-2.829-0.914-0.204 0.5-0.328 1.016-0.328 1.532 0 0.026-0.011 0.047-0.015 0.073-0.037 0.309-0.291 0.553-0.61 0.553-0.345 0-0.625-0.28-0.625-0.625 0-0.429 0.069-0.863 0.191-1.292 0.020-0.069 0.046-0.137 0.070-0.206 0.045-0.137 0.089-0.276 0.144-0.413 1.082-2.668 4.046-4.964 5.22-4.964 0.345 0 0.625-0.28 0.625-0.625s-0.28-0.625-0.625-0.625c-1.546 0-3.965 1.806-5.482 4.114-0.112-0.49-0.141-0.994-0.103-1.492 0.010-0.121 0.016-0.244 0.035-0.364 0.021-0.135 0.051-0.269 0.084-0.403 0.041-0.166 0.090-0.329 0.148-0.489 0.037-0.105 0.074-0.209 0.119-0.313 0.096-0.216 0.208-0.425 0.335-0.626 0.043-0.067 0.086-0.133 0.133-0.199 0.161-0.23 0.335-0.452 0.539-0.655 0.223-0.223 0.482-0.434 0.761-0.64 0.090-0.066 0.19-0.13 0.286-0.195 0.197-0.134 0.406-0.264 0.625-0.389 0.13-0.074 0.261-0.148 0.399-0.219 0.202-0.105 0.416-0.204 0.634-0.301 0.163-0.073 0.32-0.15 0.49-0.219 0.169-0.069 0.351-0.129 0.527-0.193 0.446-0.163 0.909-0.311 1.391-0.442 0.107-0.029 0.212-0.060 0.321-0.088 0.309-0.079 0.625-0.149 0.944-0.214 0.092-0.019 0.186-0.036 0.279-0.054 0.343-0.065 0.688-0.124 1.039-0.172 0.905-0.124 1.828-0.2 2.749-0.2 0.253 0 0.481 0.152 0.578 0.386s0.043 0.504-0.136 0.682z"></path>
</svg>
