<?xml version="1.0" encoding="utf-8"?>
<!-- Generated by IcoMoon.io -->
<!DOCTYPE svg PUBLIC "-//W3C//DTD SVG 1.1//EN" "http://www.w3.org/Graphics/SVG/1.1/DTD/svg11.dtd">
<svg version="1.1" xmlns="http://www.w3.org/2000/svg" xmlns:xlink="http://www.w3.org/1999/xlink" width="30" height="30" viewBox="0 0 30 30">
<path d="M6.772 10.93l15 2.5c0.035 0.006 0.069 0.009 0.104 0.009 0.3 0 0.565-0.216 0.616-0.523 0.056-0.34-0.175-0.662-0.515-0.719l-15-2.5c-0.343-0.059-0.662 0.174-0.719 0.514s0.174 0.662 0.514 0.719zM12.602 21.26l-7.5-1.25c-0.344-0.062-0.662 0.172-0.719 0.514-0.056 0.34 0.174 0.662 0.514 0.719l7.5 1.25c0.035 0.006 0.069 0.009 0.103 0.009 0.3 0 0.565-0.216 0.616-0.523 0.058-0.34-0.174-0.662-0.514-0.719zM11.147 8.117l7.5 1.25c0.035 0.006 0.069 0.009 0.103 0.009 0.3 0 0.565-0.216 0.616-0.523 0.056-0.34-0.174-0.662-0.514-0.719l-7.5-1.25c-0.34-0.059-0.662 0.174-0.719 0.514s0.174 0.662 0.514 0.719zM28.749 2.466c-0.009-0.169-0.086-0.326-0.214-0.436-0.127-0.111-0.296-0.167-0.463-0.151l-15.754 1.313-7.841-1.307c-0.338-0.059-0.659 0.17-0.718 0.508l-3.75 21.25c-0.029 0.164 0.009 0.334 0.105 0.469s0.242 0.229 0.407 0.256l5.608 0.935 0.12 2.234c0.010 0.171 0.089 0.332 0.22 0.443 0.115 0.096 0.257 0.149 0.405 0.149 0.024 0 0.046-0.001 0.069-0.004l9.665-1.074 6.414 1.069c0.035 0.006 0.069 0.009 0.103 0.009 0.298 0 0.561-0.214 0.615-0.516l0.244-1.38 5.46-0.606c0.33-0.036 0.574-0.325 0.555-0.656l-1.25-22.501zM22.835 25.55l-0.218 1.231-15.787-2.63c0 0 0 0-0.001 0l-5.479-0.914 3.532-20.019 21.268 3.544-3.315 18.787zM6.148 14.368l15 2.5c0.035 0.006 0.069 0.009 0.103 0.009 0.3 0 0.565-0.216 0.616-0.523 0.058-0.34-0.174-0.662-0.514-0.719l-15-2.5c-0.339-0.061-0.662 0.174-0.719 0.514s0.174 0.662 0.514 0.719zM5.522 17.805l15 2.5c0.035 0.006 0.069 0.009 0.104 0.009 0.3 0 0.565-0.216 0.616-0.523 0.056-0.34-0.175-0.662-0.515-0.719l-15-2.5c-0.341-0.059-0.662 0.174-0.719 0.514s0.174 0.662 0.514 0.719z"></path>
</svg>
