<?xml version="1.0" encoding="utf-8"?>
<!-- Generated by IcoMoon.io -->
<!DOCTYPE svg PUBLIC "-//W3C//DTD SVG 1.1//EN" "http://www.w3.org/Graphics/SVG/1.1/DTD/svg11.dtd">
<svg version="1.1" xmlns="http://www.w3.org/2000/svg" xmlns:xlink="http://www.w3.org/1999/xlink" width="30" height="30" viewBox="0 0 30 30">
<path d="M27.115 14.833c-0.235-0.097-0.501-0.044-0.681 0.135l-8.233 8.233c-0.24 0.24-0.542 0.411-0.871 0.494l-5 1.25c-0.637 0.156-1.319-0.030-1.78-0.494-0.464-0.464-0.652-1.145-0.494-1.78l1.25-4.999c0.081-0.329 0.253-0.63 0.494-0.871l11.724-11.724c0.854-0.854 1.989-1.325 3.185-1.325h0.004c0.025 0.004 0.122 0.014 0.149 0.014 0.167 0.002 0.331-0.060 0.451-0.178 0.121-0.118 0.188-0.279 0.188-0.448v-1.265c0-1.034-0.84-1.875-1.875-1.875h-22.5c-1.033 0-1.875 0.841-1.875 1.875v3.125h-0.625c-0.345 0-0.625 0.28-0.625 0.625s0.28 0.625 0.625 0.625h3.24c-0.070-0.196-0.115-0.405-0.115-0.625 0-1.034 0.842-1.875 1.875-1.875 1.035 0 1.875 0.841 1.875 1.875s-0.84 1.875-1.875 1.875h-4.375v3.75h-0.625c-0.345 0-0.625 0.28-0.625 0.625s0.28 0.625 0.625 0.625h3.24c-0.070-0.196-0.115-0.405-0.115-0.625 0-1.034 0.842-1.875 1.875-1.875 1.035 0 1.875 0.841 1.875 1.875s-0.84 1.875-1.875 1.875h-4.375v3.75h-0.625c-0.345 0-0.625 0.28-0.625 0.625s0.28 0.625 0.625 0.625h3.24c-0.070-0.196-0.115-0.405-0.115-0.625 0-1.034 0.842-1.875 1.875-1.875 1.035 0 1.875 0.841 1.875 1.875s-0.84 1.875-1.875 1.875h-4.375v3.75h-0.625c-0.345 0-0.625 0.28-0.625 0.625s0.28 0.625 0.625 0.625h3.24c-0.070-0.196-0.115-0.405-0.115-0.625 0-1.034 0.842-1.875 1.875-1.875 1.035 0 1.875 0.841 1.875 1.875s-0.84 1.875-1.875 1.875h-4.375v1.875c0 1.034 0.842 1.875 1.875 1.875h22.5c1.034 0 1.875-0.841 1.875-1.875v-12.715c0-0.253-0.151-0.481-0.385-0.577zM26.875 12.76l-4.634-4.634-9.18 9.18c0.823 0.316 1.821 0.859 2.797 1.836s1.52 1.976 1.836 2.797l9.18-9.18zM26.723 5.001c-0.875 0-1.696 0.34-2.316 0.96l-1.281 1.281 4.634 4.634 1.281-1.281c0.619-0.619 0.96-1.441 0.96-2.318 0-1.807-1.47-3.276-3.277-3.276zM12.414 18.395l-1.145 4.58c-0.054 0.212 0.009 0.439 0.164 0.594 0.119 0.119 0.279 0.182 0.443 0.182 0.051 0 0.101-0.006 0.151-0.019l4.58-1.145c-0.248-0.711-0.721-1.651-1.631-2.561-0.91-0.909-1.85-1.382-2.561-1.631z"></path>
</svg>
