<?xml version="1.0" encoding="iso-8859-1"?>
<!-- Generator: Adobe Illustrator 18.0.0, SVG Export Plug-In . SVG Version: 6.00 Build 0)  -->
<!DOCTYPE svg PUBLIC "-//W3C//DTD SVG 1.1//EN" "http://www.w3.org/Graphics/SVG/1.1/DTD/svg11.dtd">
<svg version="1.1" id="Layer_1" xmlns="http://www.w3.org/2000/svg" xmlns:xlink="http://www.w3.org/1999/xlink" x="0px" y="0px"
	 viewBox="0 0 24 24" style="enable-background:new 0 0 24 24;" xml:space="preserve">
<g>
	<path d="M20.5,20h-17C3.224,20,3,19.776,3,19.5S3.224,19,3.5,19h17c0.276,0,0.5,0.224,0.5,0.5S20.776,20,20.5,20z"/>
	<path d="M18.5,10C18.224,10,18,9.776,18,9.5v-6C18,2.122,16.879,1,15.5,1h-7C7.121,1,6,2.122,6,3.5v6C6,9.776,5.776,10,5.5,10
		S5,9.776,5,9.5v-6C5,1.57,6.57,0,8.5,0h7C17.43,0,19,1.57,19,3.5v6C19,9.776,18.776,10,18.5,10z"/>
	<path d="M16.5,7h-9C7.224,7,7,6.776,7,6.5S7.224,6,7.5,6h9C16.776,6,17,6.224,17,6.5S16.776,7,16.5,7z"/>
	<path d="M23.5,24h-23c-0.147,0-0.288-0.065-0.383-0.179c-0.096-0.113-0.136-0.263-0.109-0.408l3-17
		C3.056,6.14,3.318,5.957,3.587,6.008C3.858,6.056,4.04,6.315,3.992,6.587L1.096,23h21.809L20.008,6.587
		c-0.048-0.272,0.134-0.531,0.405-0.579c0.265-0.051,0.53,0.132,0.579,0.405l3,17c0.026,0.146-0.014,0.295-0.109,0.408
		C23.788,23.935,23.647,24,23.5,24z"/>
</g>
<g>
</g>
<g>
</g>
<g>
</g>
<g>
</g>
<g>
</g>
<g>
</g>
<g>
</g>
<g>
</g>
<g>
</g>
<g>
</g>
<g>
</g>
<g>
</g>
<g>
</g>
<g>
</g>
<g>
</g>
</svg>
