<?xml version="1.0" encoding="iso-8859-1"?>
<!-- Generator: Adobe Illustrator 18.0.0, SVG Export Plug-In . SVG Version: 6.00 Build 0)  -->
<!DOCTYPE svg PUBLIC "-//W3C//DTD SVG 1.1//EN" "http://www.w3.org/Graphics/SVG/1.1/DTD/svg11.dtd">
<svg version="1.1" id="Layer_1" xmlns="http://www.w3.org/2000/svg" xmlns:xlink="http://www.w3.org/1999/xlink" x="0px" y="0px"
	 viewBox="0 0 24 24" style="enable-background:new 0 0 24 24;" xml:space="preserve">
<g>
	<g>
		<path d="M22.5,7h-22C0.224,7,0,6.777,0,6.5S0.224,6,0.5,6h22C22.776,6,23,6.224,23,6.5S22.776,7,22.5,7z"/>
		<path d="M20.136,12.003c-0.043,0-0.088-0.005-0.132-0.018c-0.267-0.073-0.423-0.348-0.351-0.614l1.364-5.003
			c0.073-0.266,0.348-0.425,0.614-0.351c0.267,0.073,0.423,0.348,0.351,0.614l-1.364,5.003
			C20.558,11.857,20.355,12.003,20.136,12.003z"/>
		<path d="M11.5,18H6.027c-1.124,0-2.116-0.757-2.412-1.842L1.018,6.632C0.945,6.365,1.102,6.091,1.368,6.018
			C1.64,5.944,1.91,6.103,1.982,6.369l2.598,9.526C4.758,16.546,5.353,17,6.027,17H11.5c0.276,0,0.5,0.224,0.5,0.5
			S11.776,18,11.5,18z"/>
		<path d="M6.5,7C6.404,7,6.308,6.973,6.223,6.916C5.993,6.763,5.931,6.453,6.084,6.223l4-6c0.154-0.23,0.465-0.291,0.693-0.139
			c0.229,0.153,0.292,0.463,0.139,0.693l-4,6C6.819,6.922,6.661,7,6.5,7z"/>
		<path d="M16.5,7c-0.161,0-0.319-0.078-0.416-0.223l-4-6c-0.153-0.23-0.091-0.54,0.139-0.693c0.228-0.153,0.539-0.092,0.693,0.139
			l4,6c0.153,0.23,0.091,0.54-0.139,0.693C16.692,6.973,16.596,7,16.5,7z"/>
	</g>
	<g>
		<g>
			<path d="M18.5,24c-3.032,0-5.5-2.467-5.5-5.5s2.468-5.5,5.5-5.5s5.5,2.467,5.5,5.5S21.532,24,18.5,24z M18.5,14
				c-2.481,0-4.5,2.019-4.5,4.5s2.019,4.5,4.5,4.5s4.5-2.019,4.5-4.5S20.981,14,18.5,14z"/>
		</g>
		<path d="M20.5,22h-4c-0.161,0-0.312-0.077-0.405-0.208c-0.095-0.13-0.12-0.298-0.069-0.451l0.923-2.768l-0.864-1.296
			C16.029,17.196,16,17.099,16,17c0-1.103,1.122-2,2.502-2c1.574,0,2.414,0.49,2.496,1.458c0.023,0.275-0.181,0.518-0.456,0.541
			c-0.258,0.02-0.518-0.18-0.54-0.456c-0.03-0.36-0.535-0.542-1.5-0.542c-0.747,0-1.389,0.386-1.488,0.869l0.902,1.354
			c0.086,0.128,0.107,0.289,0.059,0.436L17.193,21H20.5c0.276,0,0.5,0.224,0.5,0.5S20.776,22,20.5,22z"/>
		<path d="M18.5,19h-3c-0.276,0-0.5-0.224-0.5-0.5s0.224-0.5,0.5-0.5h3c0.276,0,0.5,0.224,0.5,0.5S18.776,19,18.5,19z"/>
	</g>
</g>
<g>
</g>
<g>
</g>
<g>
</g>
<g>
</g>
<g>
</g>
<g>
</g>
<g>
</g>
<g>
</g>
<g>
</g>
<g>
</g>
<g>
</g>
<g>
</g>
<g>
</g>
<g>
</g>
<g>
</g>
</svg>
