<?xml version="1.0" encoding="iso-8859-1"?>
<!-- Generator: Adobe Illustrator 18.0.0, SVG Export Plug-In . SVG Version: 6.00 Build 0)  -->
<!DOCTYPE svg PUBLIC "-//W3C//DTD SVG 1.1//EN" "http://www.w3.org/Graphics/SVG/1.1/DTD/svg11.dtd">
<svg version="1.1" id="Layer_1" xmlns="http://www.w3.org/2000/svg" xmlns:xlink="http://www.w3.org/1999/xlink" x="0px" y="0px"
	 viewBox="0 0 24 24" style="enable-background:new 0 0 24 24;" xml:space="preserve">
<g>
	<g>
		<path d="M18.5,24c-1.378,0-2.5-1.122-2.5-2.5s1.122-2.5,2.5-2.5s2.5,1.122,2.5,2.5S19.878,24,18.5,24z M18.5,20
			c-0.827,0-1.5,0.673-1.5,1.5s0.673,1.5,1.5,1.5s1.5-0.673,1.5-1.5S19.327,20,18.5,20z"/>
		<path d="M8.5,24C7.122,24,6,22.878,6,21.5S7.122,19,8.5,19s2.5,1.122,2.5,2.5S9.878,24,8.5,24z M8.5,20C7.673,20,7,20.673,7,21.5
			S7.673,23,8.5,23s1.5-0.673,1.5-1.5S9.327,20,8.5,20z"/>
		<path d="M20.5,18H8.959c-1.662,0-3.106-1.183-3.432-2.813L3.09,3H0.5C0.224,3,0,2.776,0,2.5S0.224,2,0.5,2h3
			c0.238,0,0.443,0.168,0.49,0.402L6.508,14.99C6.741,16.155,7.772,17,8.959,17H20.5c0.276,0,0.5,0.224,0.5,0.5S20.776,18,20.5,18z"
			/>
		<path d="M19.734,14H6c-0.276,0-0.5-0.224-0.5-0.5S5.724,13,6,13h13.734c0.755,0,1.395-0.565,1.489-1.314
			c0.035-0.274,0.281-0.466,0.558-0.434c0.274,0.034,0.468,0.284,0.434,0.558C22.059,13.059,20.992,14,19.734,14z"/>
		<path d="M11.5,6h-7C4.224,6,4,5.776,4,5.5S4.224,5,4.5,5h7C11.776,5,12,5.224,12,5.5S11.776,6,11.5,6z"/>
	</g>
	<g>
		<g>
			<path d="M18.5,11C15.467,11,13,8.533,13,5.5S15.467,0,18.5,0S24,2.467,24,5.5S21.533,11,18.5,11z M18.5,1
				C16.019,1,14,3.019,14,5.5s2.019,4.5,4.5,4.5S23,7.981,23,5.5S20.981,1,18.5,1z"/>
		</g>
		<path d="M20.5,9h-4c-0.161,0-0.312-0.077-0.406-0.208c-0.094-0.13-0.12-0.298-0.068-0.451l0.922-2.768l-0.864-1.296
			C16.029,4.195,16,4.099,16,4c0-1.103,1.122-2,2.501-2c1.575,0,2.416,0.491,2.497,1.458c0.023,0.275-0.181,0.517-0.456,0.54
			c-0.272,0.032-0.517-0.181-0.54-0.456C19.972,3.182,19.467,3,18.501,3c-0.747,0-1.388,0.386-1.488,0.869l0.902,1.354
			c0.085,0.128,0.107,0.289,0.058,0.436L17.194,8H20.5C20.776,8,21,8.224,21,8.5S20.776,9,20.5,9z"/>
		<path d="M18.5,6h-3C15.224,6,15,5.776,15,5.5S15.224,5,15.5,5h3C18.776,5,19,5.224,19,5.5S18.776,6,18.5,6z"/>
	</g>
</g>
<g>
</g>
<g>
</g>
<g>
</g>
<g>
</g>
<g>
</g>
<g>
</g>
<g>
</g>
<g>
</g>
<g>
</g>
<g>
</g>
<g>
</g>
<g>
</g>
<g>
</g>
<g>
</g>
<g>
</g>
</svg>
