<?xml version="1.0" encoding="iso-8859-1"?>
<!-- Generator: Adobe Illustrator 18.0.0, SVG Export Plug-In . SVG Version: 6.00 Build 0)  -->
<!DOCTYPE svg PUBLIC "-//W3C//DTD SVG 1.1//EN" "http://www.w3.org/Graphics/SVG/1.1/DTD/svg11.dtd">
<svg version="1.1" id="Layer_1" xmlns="http://www.w3.org/2000/svg" xmlns:xlink="http://www.w3.org/1999/xlink" x="0px" y="0px"
	 viewBox="0 0 24 24" style="enable-background:new 0 0 24 24;" xml:space="preserve">
<g>
	<path d="M21.5,20h-19C1.121,20,0,18.878,0,17.5v-11C0,5.122,1.121,4,2.5,4h19C22.879,4,24,5.122,24,6.5v11
		C24,18.878,22.879,20,21.5,20z M2.5,5C1.673,5,1,5.673,1,6.5v11C1,18.327,1.673,19,2.5,19h19c0.827,0,1.5-0.673,1.5-1.5v-11
		C23,5.673,22.327,5,21.5,5H2.5z"/>
	<path d="M7.5,15h-4C3.224,15,3,14.776,3,14.5S3.224,14,3.5,14h4C7.776,14,8,14.224,8,14.5S7.776,15,7.5,15z"/>
	<path d="M10.5,17h-7C3.224,17,3,16.776,3,16.5S3.224,16,3.5,16h7c0.276,0,0.5,0.224,0.5,0.5S10.776,17,10.5,17z"/>
	<path d="M14.5,12c-2.416,0-4.584-1.616-5.272-3.93C9.096,7.626,9.182,7.155,9.464,6.777c0.369-0.497,1.021-0.724,1.606-0.549
		C13.384,6.916,15,9.084,15,11.5C15,11.776,14.776,12,14.5,12z M10.657,7.167c-0.148,0-0.295,0.078-0.392,0.208
		c-0.054,0.072-0.136,0.221-0.079,0.41c0.512,1.721,2.024,2.97,3.781,3.183c-0.212-1.756-1.461-3.27-3.183-3.782
		C10.742,7.174,10.699,7.167,10.657,7.167z"/>
	<path d="M14.5,12c-0.276,0-0.5-0.224-0.5-0.5c0-2.416,1.616-4.584,3.93-5.272c0.585-0.175,1.236,0.053,1.606,0.549
		c0.282,0.378,0.368,0.85,0.236,1.293C19.084,10.384,16.916,12,14.5,12z M18.343,7.167c-0.042,0-0.085,0.007-0.128,0.019
		c-1.721,0.512-2.971,2.025-3.183,3.782c1.757-0.212,3.27-1.461,3.781-3.183c0.057-0.189-0.025-0.338-0.079-0.41
		C18.638,7.245,18.491,7.167,18.343,7.167z"/>
	<path d="M14.5,20c-0.276,0-0.5-0.224-0.5-0.5v-15C14,4.224,14.224,4,14.5,4S15,4.224,15,4.5v15C15,19.776,14.776,20,14.5,20z"/>
	<path d="M11.5,15c-0.128,0-0.256-0.049-0.354-0.146c-0.195-0.195-0.195-0.512,0-0.707l3-3c0.195-0.195,0.512-0.195,0.707,0
		s0.195,0.512,0,0.707l-3,3C11.756,14.951,11.628,15,11.5,15z"/>
	<path d="M17.5,15c-0.128,0-0.256-0.049-0.354-0.146l-3-3c-0.195-0.195-0.195-0.512,0-0.707s0.512-0.195,0.707,0l3,3
		c0.195,0.195,0.195,0.512,0,0.707C17.756,14.951,17.628,15,17.5,15z"/>
	<path d="M23.5,12h-23C0.224,12,0,11.776,0,11.5S0.224,11,0.5,11h23c0.276,0,0.5,0.224,0.5,0.5S23.776,12,23.5,12z"/>
</g>
<g>
</g>
<g>
</g>
<g>
</g>
<g>
</g>
<g>
</g>
<g>
</g>
<g>
</g>
<g>
</g>
<g>
</g>
<g>
</g>
<g>
</g>
<g>
</g>
<g>
</g>
<g>
</g>
<g>
</g>
</svg>
