<?xml version="1.0" encoding="iso-8859-1"?>
<!-- Generator: Adobe Illustrator 18.0.0, SVG Export Plug-In . SVG Version: 6.00 Build 0)  -->
<!DOCTYPE svg PUBLIC "-//W3C//DTD SVG 1.1//EN" "http://www.w3.org/Graphics/SVG/1.1/DTD/svg11.dtd">
<svg version="1.1" id="Layer_1" xmlns="http://www.w3.org/2000/svg" xmlns:xlink="http://www.w3.org/1999/xlink" x="0px" y="0px"
	 viewBox="0 0 24 24" style="enable-background:new 0 0 24 24;" xml:space="preserve">
<g>
	<path d="M8.5,14.5c-0.154,0-0.304-0.072-0.4-0.2L6,11.5V14c0,0.276-0.224,0.5-0.5,0.5S5,14.276,5,14v-4
		c0-0.215,0.138-0.406,0.342-0.474C5.546,9.457,5.771,9.528,5.9,9.7L8,12.5V10c0-0.276,0.224-0.5,0.5-0.5S9,9.724,9,10v4
		c0,0.215-0.138,0.406-0.342,0.474C8.606,14.492,8.553,14.5,8.5,14.5z"/>
	<path d="M12.5,14.5h-2c-0.276,0-0.5-0.224-0.5-0.5v-4c0-0.276,0.224-0.5,0.5-0.5h2c0.276,0,0.5,0.224,0.5,0.5s-0.224,0.5-0.5,0.5
		H11v3h1.5c0.276,0,0.5,0.224,0.5,0.5S12.776,14.5,12.5,14.5z"/>
	<path d="M12.5,12.5h-2c-0.276,0-0.5-0.224-0.5-0.5s0.224-0.5,0.5-0.5h2c0.276,0,0.5,0.224,0.5,0.5S12.776,12.5,12.5,12.5z"/>
	<path d="M17.5,14.5c-0.215,0-0.406-0.137-0.475-0.342L16.5,12.581l-0.525,1.577c-0.07,0.21-0.24,0.351-0.494,0.341
		c-0.222-0.008-0.412-0.163-0.466-0.378l-1-4c-0.066-0.268,0.096-0.539,0.364-0.606c0.264-0.068,0.539,0.095,0.606,0.364
		l0.583,2.334l0.457-1.371c0.137-0.408,0.813-0.408,0.949,0l0.457,1.371l0.583-2.334c0.067-0.269,0.334-0.431,0.606-0.364
		c0.269,0.067,0.431,0.338,0.364,0.606l-1,4c-0.054,0.216-0.244,0.37-0.466,0.378C17.513,14.5,17.506,14.5,17.5,14.5z"/>
	<path d="M20.5,20.5h-17C1.57,20.5,0,18.93,0,17V7c0-1.93,1.57-3.5,3.5-3.5h17C22.43,3.5,24,5.07,24,7v10
		C24,18.93,22.43,20.5,20.5,20.5z M3.5,4.5C2.121,4.5,1,5.622,1,7v10c0,1.378,1.121,2.5,2.5,2.5h17c1.379,0,2.5-1.122,2.5-2.5V7
		c0-1.378-1.121-2.5-2.5-2.5H3.5z"/>
</g>
<g>
</g>
<g>
</g>
<g>
</g>
<g>
</g>
<g>
</g>
<g>
</g>
<g>
</g>
<g>
</g>
<g>
</g>
<g>
</g>
<g>
</g>
<g>
</g>
<g>
</g>
<g>
</g>
<g>
</g>
</svg>
