<?xml version="1.0" encoding="iso-8859-1"?>
<!-- Generator: Adobe Illustrator 18.0.0, SVG Export Plug-In . SVG Version: 6.00 Build 0)  -->
<!DOCTYPE svg PUBLIC "-//W3C//DTD SVG 1.1//EN" "http://www.w3.org/Graphics/SVG/1.1/DTD/svg11.dtd">
<svg version="1.1" id="Layer_1" xmlns="http://www.w3.org/2000/svg" xmlns:xlink="http://www.w3.org/1999/xlink" x="0px" y="0px"
	 viewBox="0 0 24 24" style="enable-background:new 0 0 24 24;" xml:space="preserve">
<g>
	<path d="M23,24H1c-0.276,0-0.5-0.224-0.5-0.5C0.5,22.122,1.621,21,3,21h18c1.379,0,2.5,1.122,2.5,2.5C23.5,23.776,23.276,24,23,24z
		 M1.586,23h20.828c-0.206-0.582-0.762-1-1.414-1H3C2.348,22,1.792,22.418,1.586,23z"/>
	<path d="M19,5H5C4.724,5,4.5,4.776,4.5,4.5v-2C4.5,1.122,5.621,0,7,0h10c1.379,0,2.5,1.122,2.5,2.5v2C19.5,4.776,19.276,5,19,5z
		 M5.5,4h13V2.5C18.5,1.673,17.827,1,17,1H7C6.173,1,5.5,1.673,5.5,2.5V4z"/>
	<path d="M4,12c-1.379,0-2.5-1.122-2.5-2.5c0-0.091,0.024-0.18,0.071-0.257l3-5C4.661,4.092,4.824,4,5,4h2
		c0.149,0,0.292,0.067,0.387,0.183S7.52,4.451,7.49,4.598l-1,5C6.5,10.878,5.379,12,4,12z M2.506,9.629C2.571,10.396,3.217,11,4,11
		c0.827,0,1.5-0.673,1.5-1.5L6.392,5H5.283L2.506,9.629z"/>
	<path d="M12,12c-1.379,0-2.5-1.122-2.5-2.5v-5C9.5,4.224,9.724,4,10,4h4c0.276,0,0.5,0.224,0.5,0.5v5C14.5,10.878,13.379,12,12,12z
		 M10.5,5v4.5c0,0.827,0.673,1.5,1.5,1.5s1.5-0.673,1.5-1.5V5H10.5z"/>
	<path d="M8,12c-1.379,0-2.5-1.122-2.5-2.5l1.01-5.098C6.557,4.168,6.762,4,7,4h3c0.276,0,0.5,0.224,0.5,0.5v5
		C10.5,10.878,9.379,12,8,12z M7.41,5L6.49,9.598C6.5,10.327,7.173,11,8,11s1.5-0.673,1.5-1.5V5H7.41z"/>
	<path d="M20,12c-1.379,0-2.5-1.122-2.5-2.5l-0.99-4.902c-0.029-0.147,0.009-0.299,0.104-0.415S16.851,4,17,4h2
		c0.176,0,0.339,0.092,0.429,0.243l3,5C22.476,9.32,22.5,9.409,22.5,9.5C22.5,10.878,21.379,12,20,12z M17.61,5l0.88,4.402
		C18.5,10.327,19.173,11,20,11c0.783,0,1.429-0.604,1.494-1.371L18.717,5H17.61z"/>
	<path d="M16,12c-1.379,0-2.5-1.122-2.5-2.5v-5C13.5,4.224,13.724,4,14,4h3c0.238,0,0.443,0.168,0.49,0.402l1,5
		C18.5,10.878,17.379,12,16,12z M14.5,5v4.5c0,0.827,0.673,1.5,1.5,1.5s1.5-0.673,1.5-1.5L16.591,5H14.5z"/>
	<g>
		<path d="M8,20c-0.276,0-0.5-0.224-0.5-0.5v-6C7.5,13.224,7.724,13,8,13h1.5c1.103,0,2,0.897,2,2s-0.897,2-2,2h-1v2.5
			C8.5,19.776,8.276,20,8,20z M8.5,16h1c0.552,0,1-0.449,1-1s-0.448-1-1-1h-1V16z"/>
		<path d="M4.5,20c-1.103,0-2-0.897-2-2v-3c0-1.103,0.897-2,2-2s2,0.897,2,2v3C6.5,19.103,5.603,20,4.5,20z M4.5,14
			c-0.552,0-1,0.449-1,1v3c0,0.551,0.448,1,1,1s1-0.449,1-1v-3C5.5,14.449,5.052,14,4.5,14z"/>
		<path d="M16,20h-3c-0.276,0-0.5-0.224-0.5-0.5v-6c0-0.276,0.224-0.5,0.5-0.5h3c0.276,0,0.5,0.224,0.5,0.5S16.276,14,16,14h-2.5v5
			H16c0.276,0,0.5,0.224,0.5,0.5S16.276,20,16,20z"/>
		<path d="M15,17h-2c-0.276,0-0.5-0.224-0.5-0.5S12.724,16,13,16h2c0.276,0,0.5,0.224,0.5,0.5S15.276,17,15,17z"/>
		<path d="M21,20c-0.187,0-0.361-0.104-0.447-0.276L18.5,15.618V19.5c0,0.276-0.224,0.5-0.5,0.5s-0.5-0.224-0.5-0.5v-6
			c0-0.232,0.159-0.434,0.385-0.487c0.229-0.054,0.459,0.056,0.563,0.263l2.053,4.105V13.5c0-0.276,0.224-0.5,0.5-0.5
			s0.5,0.224,0.5,0.5v6c0,0.232-0.159,0.434-0.385,0.487C21.076,19.996,21.038,20,21,20z"/>
	</g>
</g>
<g>
</g>
<g>
</g>
<g>
</g>
<g>
</g>
<g>
</g>
<g>
</g>
<g>
</g>
<g>
</g>
<g>
</g>
<g>
</g>
<g>
</g>
<g>
</g>
<g>
</g>
<g>
</g>
<g>
</g>
</svg>
