<?xml version="1.0" encoding="iso-8859-1"?>
<!-- Generator: Adobe Illustrator 18.0.0, SVG Export Plug-In . SVG Version: 6.00 Build 0)  -->
<!DOCTYPE svg PUBLIC "-//W3C//DTD SVG 1.1//EN" "http://www.w3.org/Graphics/SVG/1.1/DTD/svg11.dtd">
<svg version="1.1" id="Layer_1" xmlns="http://www.w3.org/2000/svg" xmlns:xlink="http://www.w3.org/1999/xlink" x="0px" y="0px"
	 viewBox="0 0 24 24" style="enable-background:new 0 0 24 24;" xml:space="preserve">
<g>
	<g>
		<path d="M18,10c-0.276,0-0.5-0.224-0.5-0.5v-6C17.5,2.122,16.379,1,15,1H9C7.621,1,6.5,2.122,6.5,3.5v6C6.5,9.776,6.276,10,6,10
			S5.5,9.776,5.5,9.5v-6C5.5,1.57,7.07,0,9,0h6c1.93,0,3.5,1.57,3.5,3.5v6C18.5,9.776,18.276,10,18,10z"/>
		<path d="M16,7H8C7.724,7,7.5,6.776,7.5,6.5S7.724,6,8,6h8c0.276,0,0.5,0.224,0.5,0.5S16.276,7,16,7z"/>
		<path d="M23,24H1c-0.276,0-0.5-0.224-0.5-0.5v-17C0.5,6.224,0.724,6,1,6h3c0.276,0,0.5,0.224,0.5,0.5S4.276,7,4,7H1.5v16h21V7H20
			c-0.276,0-0.5-0.224-0.5-0.5S19.724,6,20,6h3c0.276,0,0.5,0.224,0.5,0.5v17C23.5,23.776,23.276,24,23,24z"/>
	</g>
	<path d="M9,20c-0.087,0-0.174-0.022-0.251-0.067C8.595,19.843,8.5,19.678,8.5,19.5v-8c0-0.178,0.095-0.343,0.249-0.433
		c0.153-0.089,0.344-0.09,0.499-0.001l7,4c0.156,0.089,0.252,0.255,0.252,0.434s-0.096,0.345-0.252,0.434l-7,4
		C9.171,19.978,9.086,20,9,20z M9.5,12.362v6.276l5.492-3.138L9.5,12.362z"/>
</g>
<g>
</g>
<g>
</g>
<g>
</g>
<g>
</g>
<g>
</g>
<g>
</g>
<g>
</g>
<g>
</g>
<g>
</g>
<g>
</g>
<g>
</g>
<g>
</g>
<g>
</g>
<g>
</g>
<g>
</g>
</svg>
