<?xml version="1.0" encoding="iso-8859-1"?>
<!-- Generator: Adobe Illustrator 18.0.0, SVG Export Plug-In . SVG Version: 6.00 Build 0)  -->
<!DOCTYPE svg PUBLIC "-//W3C//DTD SVG 1.1//EN" "http://www.w3.org/Graphics/SVG/1.1/DTD/svg11.dtd">
<svg version="1.1" id="Layer_1" xmlns="http://www.w3.org/2000/svg" xmlns:xlink="http://www.w3.org/1999/xlink" x="0px" y="0px"
	 viewBox="0 0 24 24" style="enable-background:new 0 0 24 24;" xml:space="preserve">
<g>
	<path d="M23.5,23h-23C0.224,23,0,22.776,0,22.5v-4C0,18.224,0.224,18,0.5,18h23c0.276,0,0.5,0.224,0.5,0.5v4
		C24,22.776,23.776,23,23.5,23z M1,22h22v-3H1V22z"/>
	<path d="M22.5,19h-21c-0.166,0-0.321-0.083-0.414-0.22s-0.111-0.312-0.05-0.466l2-5C3.111,13.125,3.296,13,3.5,13h17
		c0.204,0,0.389,0.125,0.464,0.314l2,5c0.062,0.154,0.043,0.329-0.05,0.466S22.666,19,22.5,19z M2.238,18h19.523l-1.601-4H3.839
		L2.238,18z"/>
	<path d="M20.5,14h-17C3.224,14,3,13.776,3,13.5v-5C3,8.224,3.224,8,3.5,8h17C20.776,8,21,8.224,21,8.5v5
		C21,13.776,20.776,14,20.5,14z M4,13h16V9H4V13z"/>
	<path d="M13.5,6h-10C3.224,6,3,5.776,3,5.5v-4C3,1.224,3.224,1,3.5,1h10C13.776,1,14,1.224,14,1.5v4C14,5.776,13.776,6,13.5,6z
		 M4,5h9V2H4V5z"/>
	<path d="M8.5,9C8.224,9,8,8.776,8,8.5v-3C8,5.224,8.224,5,8.5,5S9,5.224,9,5.5v3C9,8.776,8.776,9,8.5,9z"/>
	<path d="M5.5,17h-1C4.224,17,4,16.776,4,16.5S4.224,16,4.5,16h1C5.776,16,6,16.224,6,16.5S5.776,17,5.5,17z"/>
	<path d="M7.5,16h-1C6.224,16,6,15.776,6,15.5S6.224,15,6.5,15h1C7.776,15,8,15.224,8,15.5S7.776,16,7.5,16z"/>
	<path d="M9.5,17h-1C8.224,17,8,16.776,8,16.5S8.224,16,8.5,16h1c0.276,0,0.5,0.224,0.5,0.5S9.776,17,9.5,17z"/>
	<path d="M11.5,16h-1c-0.276,0-0.5-0.224-0.5-0.5s0.224-0.5,0.5-0.5h1c0.276,0,0.5,0.224,0.5,0.5S11.776,16,11.5,16z"/>
	<path d="M13.5,17h-1c-0.276,0-0.5-0.224-0.5-0.5s0.224-0.5,0.5-0.5h1c0.276,0,0.5,0.224,0.5,0.5S13.776,17,13.5,17z"/>
	<path d="M15.5,16h-1c-0.276,0-0.5-0.224-0.5-0.5s0.224-0.5,0.5-0.5h1c0.276,0,0.5,0.224,0.5,0.5S15.776,16,15.5,16z"/>
	<path d="M17.5,17h-1c-0.276,0-0.5-0.224-0.5-0.5s0.224-0.5,0.5-0.5h1c0.276,0,0.5,0.224,0.5,0.5S17.776,17,17.5,17z"/>
	<path d="M19.5,17c-0.183,0-0.359-0.101-0.447-0.276l-0.5-1c-0.123-0.247-0.023-0.547,0.224-0.671
		c0.247-0.123,0.547-0.024,0.671,0.224l0.5,1c0.123,0.247,0.023,0.547-0.224,0.671C19.651,16.983,19.575,17,19.5,17z"/>
	<path d="M13.5,21h-3c-0.276,0-0.5-0.224-0.5-0.5s0.224-0.5,0.5-0.5h3c0.276,0,0.5,0.224,0.5,0.5S13.776,21,13.5,21z"/>
</g>
<g>
</g>
<g>
</g>
<g>
</g>
<g>
</g>
<g>
</g>
<g>
</g>
<g>
</g>
<g>
</g>
<g>
</g>
<g>
</g>
<g>
</g>
<g>
</g>
<g>
</g>
<g>
</g>
<g>
</g>
</svg>
