<?xml version="1.0" encoding="utf-8"?>
<!-- Generator: Adobe Illustrator 19.0.0, SVG Export Plug-In . SVG Version: 6.00 Build 0)  -->
<svg version="1.1" id="Layer_1" xmlns="http://www.w3.org/2000/svg" xmlns:xlink="http://www.w3.org/1999/xlink" x="0px" y="0px"
	 viewBox="0 0 30 30" style="enable-background:new 0 0 30 30;" xml:space="preserve">
<g>
	<path d="M16.9,18.6l-1.6-2.8c-0.2-0.4-0.7-0.5-1.1-0.4l-1.8,0.7c-0.3-0.2-0.7-0.4-1-0.6L11,13.7C11,13.3,10.6,13,10.1,13H6.9
		c-0.4,0-0.8,0.3-0.9,0.8l-0.3,1.8c-0.4,0.2-0.7,0.4-1,0.6l-1.8-0.7c-0.4-0.1-0.9,0-1.1,0.4l-1.6,2.8C-0.1,19,0,19.5,0.3,19.8
		l1.5,1.2c0,0.2,0,0.4,0,0.6c0,0.2,0,0.4,0,0.6l-1.5,1.2C0,23.5-0.1,24,0.1,24.4l1.6,2.8c0.2,0.4,0.7,0.5,1.1,0.4l1.8-0.7
		c0.3,0.2,0.7,0.4,1,0.6L6,29.3C6,29.7,6.4,30,6.9,30h3.3c0.4,0,0.8-0.3,0.9-0.8l0.3-1.8c0.4-0.2,0.7-0.4,1-0.6l1.8,0.7
		c0.1,0,0.2,0.1,0.3,0.1c0.3,0,0.6-0.2,0.8-0.4l1.6-2.8c0.2-0.4,0.1-0.9-0.2-1.2l-1.5-1.2c0-0.2,0-0.4,0-0.6c0-0.2,0-0.4,0-0.6
		l1.5-1.2C17,19.5,17.1,19,16.9,18.6z M10,21.5c0,0.8-0.7,1.5-1.5,1.5S7,22.3,7,21.5S7.7,20,8.5,20S10,20.7,10,21.5z"/>
	<path d="M28.1,9.1c0-0.2,0-0.4,0-0.6c0-0.2,0-0.4,0-0.6l1.5-1.2C30,6.5,30.1,6,29.9,5.6l-1.6-2.8c-0.2-0.4-0.7-0.5-1.1-0.4
		l-1.8,0.7c-0.3-0.2-0.7-0.4-1-0.6L24,0.7C24,0.3,23.6,0,23.1,0h-3.3c-0.4,0-0.8,0.3-0.9,0.8l-0.3,1.8c-0.4,0.2-0.7,0.4-1,0.6
		l-1.8-0.7c-0.4-0.1-0.9,0-1.1,0.4l-1.6,2.8C12.9,6,13,6.5,13.3,6.8l1.5,1.2c0,0.2,0,0.4,0,0.6c0,0.2,0,0.4,0,0.6l-1.5,1.2
		c-0.3,0.3-0.4,0.8-0.2,1.2l1.6,2.8c0.2,0.4,0.7,0.5,1.1,0.4l1.8-0.7c0.3,0.2,0.7,0.4,1,0.6l0.3,1.9c0.1,0.4,0.5,0.7,0.9,0.7h3.3
		c0.4,0,0.8-0.3,0.9-0.8l0.3-1.8c0.4-0.2,0.7-0.4,1-0.6l1.8,0.7c0.1,0,0.2,0.1,0.3,0.1c0.3,0,0.6-0.2,0.8-0.4l1.6-2.8
		c0.2-0.4,0.1-0.9-0.2-1.2L28.1,9.1z M23,8.5c0,0.8-0.7,1.5-1.5,1.5S20,9.3,20,8.5S20.7,7,21.5,7S23,7.7,23,8.5z"/>
</g>
</svg>
