<?xml version="1.0" encoding="utf-8"?>
<!-- Generator: Adobe Illustrator 19.0.0, SVG Export Plug-In . SVG Version: 6.00 Build 0)  -->
<svg version="1.1" id="Layer_1" xmlns="http://www.w3.org/2000/svg" xmlns:xlink="http://www.w3.org/1999/xlink" x="0px" y="0px"
	 viewBox="0 0 30 30" style="enable-background:new 0 0 30 30;" xml:space="preserve">
<g>
	<path d="M29.5,18c-0.3,0-0.5,0.2-0.5,0.5v0.9c-1.2-2.1-3.5-3.4-6-3.4c-3.9,0-7,3.1-7,7s3.1,7,7,7c0.3,0,0.5-0.2,0.5-0.5
		S23.3,29,23,29c-3.3,0-6-2.7-6-6s2.7-6,6-6c2.9,0,5.4,2.1,5.9,5h-3.4c-0.3,0-0.5,0.2-0.5,0.5s0.2,0.5,0.5,0.5h4
		c0.3,0,0.5-0.2,0.5-0.5v-4C30,18.2,29.8,18,29.5,18z"/>
	<path d="M15,23c0-1.2,0.3-2.4,0.8-3.5c0.1-0.2,0.1-0.4-0.1-0.5s-0.3-0.2-0.5-0.2C11.9,19.7,9,17.2,9,14c0-2.8,2.2-5,5-5s5,2.2,5,5
		c0,0.4-0.1,0.8-0.2,1.2c0,0.2,0,0.4,0.2,0.5c0.2,0.1,0.4,0.1,0.5,0.1c1.8-0.8,3.7-1,5.6-0.5c0.1,0,0.3,0,0.4-0.1
		c0.1-0.1,0.2-0.2,0.2-0.4l0-0.1c0-0.1,0-0.2,0-0.2c0-0.4,0-0.8-0.1-1.1l2.8-2.1c0.5-0.4,0.6-1,0.3-1.5L26,4.8
		c-0.3-0.5-0.9-0.7-1.5-0.5l-3.3,1.3c-0.7-0.5-1.3-0.9-2.1-1.2L18.6,1c-0.1-0.6-0.6-1-1.2-1h-5.8c-0.6,0-1.1,0.4-1.2,1L9.9,4.4
		c-0.7,0.3-1.4,0.7-2,1.2L4.5,4.3C4,4.1,3.3,4.3,3,4.8L0.2,9.7c-0.3,0.5-0.2,1.2,0.3,1.6l2.8,2.1c0,0.4-0.1,0.8-0.1,1.1
		s0,0.7,0.1,1.1l-2.8,2.1c-0.5,0.4-0.6,1-0.3,1.5L3,24.2c0.3,0.5,0.9,0.7,1.5,0.5l3.3-1.3c0.7,0.5,1.3,0.9,2.1,1.2l0.5,3.4
		c0.1,0.6,0.6,1,1.2,1h4.9c0,0,0,0,0,0c0.3,0,0.5-0.2,0.5-0.5c0-0.2-0.1-0.3-0.2-0.4C15.7,26.7,15,24.9,15,23z"/>
</g>
</svg>
