<?xml version="1.0" encoding="utf-8"?>
<!-- Generator: Adobe Illustrator 19.0.0, SVG Export Plug-In . SVG Version: 6.00 Build 0)  -->
<svg version="1.1" id="Layer_1" xmlns="http://www.w3.org/2000/svg" xmlns:xlink="http://www.w3.org/1999/xlink" x="0px" y="0px"
	 viewBox="0 0 30 30" style="enable-background:new 0 0 30 30;" xml:space="preserve">
<g>
	<path d="M29.3,10.2l-2.9-4.8c-0.3-0.5-0.9-0.7-1.5-0.5l-3.3,1.3c-0.7-0.5-1.3-0.9-2.1-1.2l-0.5-3.4c-0.1-0.6-0.6-1-1.2-1h-5.8
		c-0.6,0-1.1,0.4-1.2,1l-0.5,3.4c-0.7,0.3-1.4,0.7-2,1.2L5,4.8c-0.6-0.2-1.2,0-1.5,0.5l-2.9,4.8c-0.3,0.5-0.2,1.2,0.3,1.6l2.8,2.1
		c0,0.4-0.1,0.8-0.1,1.1s0,0.7,0.1,1.1L1,18.3c-0.5,0.4-0.6,1-0.3,1.5l2.9,4.8c0.3,0.5,0.9,0.7,1.5,0.5l3.3-1.3
		c0.7,0.5,1.3,0.9,2.1,1.2l0.5,3.4c0.1,0.6,0.6,1,1.2,1H17c0,0,0,0,0,0c0.3,0,0.5-0.2,0.5-0.5c0-0.2-0.1-0.3-0.2-0.4
		c-1.2-1.4-1.8-3.2-1.8-5.1c0-1.2,0.3-2.4,0.8-3.5c0.1-0.2,0.1-0.4-0.1-0.5c-0.1-0.2-0.3-0.2-0.5-0.2c-3.3,0.8-6.2-1.7-6.2-4.8
		c0-2.8,2.2-5,5-5s5,2.2,5,5c0,0.4-0.1,0.8-0.2,1.2c0,0.2,0,0.4,0.2,0.5c0.1,0.1,0.4,0.1,0.5,0.1c1.8-0.8,3.7-1,5.6-0.5
		c0.1,0,0.3,0,0.4-0.1c0.1-0.1,0.2-0.3,0.2-0.4c0-0.1,0-0.2,0-0.3c0-0.4,0-0.8-0.1-1.1l2.8-2.1C29.5,11.4,29.6,10.7,29.3,10.2z"/>
	<path d="M23,16.5c-3.6,0-6.5,2.9-6.5,6.5s2.9,6.5,6.5,6.5s6.5-2.9,6.5-6.5S26.6,16.5,23,16.5z M22.5,20c0-0.3,0.2-0.5,0.5-0.5
		s0.5,0.2,0.5,0.5v5c0,0.3-0.2,0.5-0.5,0.5s-0.5-0.2-0.5-0.5V20z M23,27.5c-0.3,0-0.5-0.2-0.5-0.5s0.2-0.5,0.5-0.5h0
		c0.3,0,0.5,0.2,0.5,0.5S23.3,27.5,23,27.5z"/>
</g>
</svg>
