<?xml version="1.0" encoding="iso-8859-1"?>
<!-- Generator: Adobe Illustrator 19.0.0, SVG Export Plug-In . SVG Version: 6.00 Build 0)  -->
<svg version="1.1" id="Layer_1" xmlns="http://www.w3.org/2000/svg" xmlns:xlink="http://www.w3.org/1999/xlink" x="0px" y="0px"
	 viewBox="0 0 30 30" style="enable-background:new 0 0 30 30;" xml:space="preserve">
<g>
	<g>
		<path d="M24.999,18.789C24.985,15.38,24.595,8,21.5,8c-0.824,0-1.726,0.507-2.68,1.044c-0.412,0.232-0.831,0.467-1.225,0.647
			c0.795,0.528,1.337,1.092,1.793,1.569c0.19,0.2,0.184,0.516-0.016,0.707c-0.097,0.093-0.222,0.139-0.346,0.139
			c-0.132,0-0.263-0.052-0.361-0.154c-0.562-0.587-1.261-1.318-2.446-1.9c-0.07-0.034-0.124-0.085-0.169-0.142
			c-0.507-0.168-1.205-0.544-1.934-0.939C12.495,8.094,10.476,7,8.5,7C7.929,7,7.417,7.224,6.979,7.662
			C5.213,9.432,4.994,14.494,5,18.705v0.085c-1.738,0.37-3,0.912-3,1.71C2,22.93,13.669,23,15,23s13-0.07,13-2.5
			C28,19.701,26.738,19.159,24.999,18.789z M8.29,9.182c0.102-0.12,0.256-0.179,0.41-0.177c1.428,0.079,3.111,0.991,4.465,1.723
			c0.242,0.131,0.333,0.435,0.201,0.678c-0.131,0.243-0.434,0.334-0.678,0.202c-1.169-0.633-2.603-1.408-3.764-1.575
			c-0.195,0.379-0.52,1.313-0.729,3.515c-0.024,0.259-0.242,0.453-0.497,0.453c-0.017,0-0.032,0-0.048-0.002
			c-0.275-0.026-0.477-0.27-0.451-0.545C7.412,11.227,7.778,9.791,8.29,9.182z M15,22c-6.901,0-11.335-0.865-11.963-1.5
			c0.32-0.324,1.633-0.707,3.754-1.005h0.03c1.694-0.239,3.745-0.397,5.932-0.462c0.053-0.002,0.108-0.002,0.161-0.004
			c0.305-0.008,0.612-0.016,0.922-0.02C14.215,19.003,14.603,19,15,19c0.745,0,1.483,0.011,2.208,0.032c0.011,0,0.022,0,0.033,0.001
			c2.181,0.064,4.236,0.223,5.978,0.464c2.115,0.298,3.424,0.68,3.744,1.003C26.335,21.135,21.901,22,15,22z"/>
	</g>
</g>
</svg>
