<?xml version="1.0" encoding="iso-8859-1"?>
<!-- Generator: Adobe Illustrator 19.0.0, SVG Export Plug-In . SVG Version: 6.00 Build 0)  -->
<svg version="1.1" id="Layer_1" xmlns="http://www.w3.org/2000/svg" xmlns:xlink="http://www.w3.org/1999/xlink" x="0px" y="0px"
	 viewBox="0 0 30 30" style="enable-background:new 0 0 30 30;" xml:space="preserve">
<g>
	<g>
		<path d="M22.498,13.375H7.503c-0.181,0-0.347,0.097-0.436,0.254c-0.088,0.156-0.086,0.35,0.007,0.504
			c1.603,2.667,4.355,4.297,7.426,4.46v10.782c0,0.276,0.224,0.5,0.5,0.5s0.5-0.224,0.5-0.5V18.593
			c3.072-0.163,5.824-1.793,7.427-4.46c0.093-0.154,0.095-0.348,0.007-0.504C22.845,13.472,22.679,13.375,22.498,13.375z
			 M7.503,5.375h14.994c0.181,0,0.347-0.097,0.436-0.254c0.088-0.157,0.086-0.349-0.007-0.503C21.236,1.805,18.273,0.125,15,0.125
			c-3.273,0-6.235,1.679-7.926,4.493C6.981,4.772,6.979,4.965,7.067,5.121C7.156,5.278,7.322,5.375,7.503,5.375z M25,6.375H5
			c-0.276,0-0.5,0.224-0.5,0.5v5c0,0.276,0.224,0.5,0.5,0.5h20c0.276,0,0.5-0.224,0.5-0.5v-5C25.5,6.599,25.276,6.375,25,6.375z"/>
	</g>
</g>
</svg>
