<?xml version="1.0" encoding="iso-8859-1"?>
<!-- Generator: Adobe Illustrator 19.0.0, SVG Export Plug-In . SVG Version: 6.00 Build 0)  -->
<svg version="1.1" id="Layer_1" xmlns="http://www.w3.org/2000/svg" xmlns:xlink="http://www.w3.org/1999/xlink" x="0px" y="0px"
	 viewBox="0 0 30 30" style="enable-background:new 0 0 30 30;" xml:space="preserve">
<g>
	<g>
		<path d="M2,19.5V20c0,3.859,3.14,7,7,7s7-3.141,7-7v-0.5c0-0.276-0.224-0.5-0.5-0.5h-13C2.224,19,2,19.224,2,19.5z M25.983,15.036
			C25.811,6.42,20.903,2.155,11,2.014V1.5C11,1.224,10.776,1,10.5,1h-4C6.224,1,6,1.224,6,1.5v2C6,3.776,6.224,4,6.5,4H8v1H6.5
			C6.224,5,6,5.224,6,5.5v6.013C2.396,12.782,0,16.146,0,20c0,3.484,1.993,6.505,4.896,8H3.5C3.224,28,3,28.224,3,28.5
			S3.224,29,3.5,29h11c0.276,0,0.5-0.224,0.5-0.5S14.776,28,14.5,28h-1.396C16.007,26.505,18,23.484,18,20
			c0-3.854-2.396-7.218-6-8.487V5.5C12,5.224,11.776,5,11.5,5H11V3.013c9.36,0.134,13.819,3.97,13.984,12.03
			C22.745,15.385,21,17.924,21,21c0,3.309,2.019,6,4.5,6s4.5-2.691,4.5-6C30,17.909,28.238,15.359,25.983,15.036z M11.353,12.353
			C14.73,13.391,17,16.464,17,20c0,4.411-3.589,8-8,8s-8-3.589-8-8c0-3.536,2.27-6.609,5.647-7.647C6.857,12.289,7,12.095,7,11.875
			V6h4v5.875C11,12.095,11.143,12.289,11.353,12.353z M25.5,25c-1.332,0-2.5-1.869-2.5-4c0-0.276,0.224-0.5,0.5-0.5S24,20.724,24,21
			c0,1.74,0.896,3,1.5,3c0.276,0,0.5,0.224,0.5,0.5S25.776,25,25.5,25z"/>
	</g>
</g>
</svg>
