<?xml version="1.0" encoding="iso-8859-1"?>
<!-- Generator: Adobe Illustrator 18.0.0, SVG Export Plug-In . SVG Version: 6.00 Build 0)  -->
<!DOCTYPE svg PUBLIC "-//W3C//DTD SVG 1.1//EN" "http://www.w3.org/Graphics/SVG/1.1/DTD/svg11.dtd">
<svg version="1.1" id="Layer_1" xmlns="http://www.w3.org/2000/svg" xmlns:xlink="http://www.w3.org/1999/xlink" x="0px" y="0px"
	 viewBox="0 0 24 24" style="enable-background:new 0 0 24 24;" xml:space="preserve">
<g>
	<path d="M0.5,6C0.327,6,0.158,5.909,0.066,5.748c-0.137-0.239-0.054-0.545,0.187-0.683l3.5-2c0.235-0.134,0.544-0.054,0.683,0.187
		c0.137,0.239,0.054,0.545-0.187,0.683l-3.5,2C0.67,5.979,0.585,6,0.5,6z"/>
	<path d="M4.5,8C4.327,8,4.158,7.909,4.066,7.748C3.929,7.509,4.012,7.203,4.252,7.066l3.5-2c0.236-0.135,0.543-0.055,0.683,0.187
		c0.137,0.239,0.054,0.545-0.187,0.683l-3.5,2C4.67,7.979,4.585,8,4.5,8z"/>
	<path d="M12.5,12c-0.183,0-0.359-0.102-0.447-0.276c-0.123-0.247-0.023-0.547,0.224-0.671l4-2c0.248-0.124,0.547-0.023,0.671,0.224
		c0.123,0.247,0.023,0.547-0.224,0.671l-4,2C12.652,11.984,12.575,12,12.5,12z"/>
	<path d="M16.5,14c-0.183,0-0.359-0.102-0.447-0.276c-0.123-0.247-0.023-0.547,0.224-0.671l4-2c0.247-0.124,0.547-0.023,0.671,0.224
		c0.123,0.247,0.023,0.547-0.224,0.671l-4,2C16.652,13.984,16.575,14,16.5,14z"/>
	<path d="M11.5,24h-2C9.224,24,9,23.777,9,23.5V6.102l-8.715-4.15C0.112,1.869,0.002,1.696,0,1.505s0.105-0.366,0.276-0.452l2-1
		c0.138-0.068,0.299-0.069,0.438-0.004l21,10c0.173,0.082,0.283,0.255,0.285,0.446s-0.105,0.366-0.276,0.452l-2,1
		c-0.137,0.069-0.298,0.07-0.438,0.004L12,7.53V23.5C12,23.777,11.777,24,11.5,24z M10,23h1V6.738c0-0.172,0.088-0.331,0.233-0.423
		c0.146-0.091,0.326-0.104,0.481-0.028l9.78,4.656l0.865-0.433L2.505,1.057L1.64,1.489l8.075,3.846C9.889,5.418,10,5.594,10,5.786
		V23z"/>
	<path d="M6.5,2.5c-0.183,0-0.359-0.102-0.447-0.276C5.93,1.977,6.029,1.677,6.277,1.553l3-1.5c0.248-0.124,0.547-0.023,0.671,0.224
		c0.123,0.247,0.023,0.547-0.224,0.671l-3,1.5C6.652,2.484,6.575,2.5,6.5,2.5z"/>
	<path d="M10.5,4.5c-0.183,0-0.359-0.102-0.447-0.276c-0.123-0.247-0.023-0.547,0.224-0.671l3-1.5
		c0.248-0.124,0.547-0.023,0.671,0.224c0.123,0.247,0.023,0.547-0.224,0.671l-3,1.5C10.652,4.484,10.575,4.5,10.5,4.5z"/>
	<path d="M14.5,6.5c-0.183,0-0.359-0.102-0.447-0.276c-0.123-0.247-0.023-0.547,0.224-0.671l3-1.5
		c0.247-0.123,0.547-0.023,0.671,0.224c0.123,0.247,0.023,0.547-0.224,0.671l-3,1.5C14.652,6.484,14.575,6.5,14.5,6.5z"/>
	<path d="M18.5,8.5c-0.183,0-0.359-0.102-0.447-0.276c-0.123-0.247-0.023-0.547,0.224-0.671l3-1.5
		c0.248-0.124,0.547-0.023,0.671,0.224c0.123,0.247,0.023,0.547-0.224,0.671l-3,1.5C18.652,8.484,18.575,8.5,18.5,8.5z"/>
</g>
<g>
</g>
<g>
</g>
<g>
</g>
<g>
</g>
<g>
</g>
<g>
</g>
<g>
</g>
<g>
</g>
<g>
</g>
<g>
</g>
<g>
</g>
<g>
</g>
<g>
</g>
<g>
</g>
<g>
</g>
</svg>
