<?xml version="1.0" encoding="iso-8859-1"?>
<!-- Generator: Adobe Illustrator 18.0.0, SVG Export Plug-In . SVG Version: 6.00 Build 0)  -->
<!DOCTYPE svg PUBLIC "-//W3C//DTD SVG 1.1//EN" "http://www.w3.org/Graphics/SVG/1.1/DTD/svg11.dtd">
<svg version="1.1" id="Layer_1" xmlns="http://www.w3.org/2000/svg" xmlns:xlink="http://www.w3.org/1999/xlink" x="0px" y="0px"
	 viewBox="0 0 24 24" style="enable-background:new 0 0 24 24;" xml:space="preserve">
<g>
	<path d="M23.5,24h-23c-0.202,0-0.385-0.122-0.462-0.309s-0.034-0.402,0.108-0.545l23-23c0.143-0.143,0.36-0.185,0.545-0.108
		C23.878,0.115,24,0.298,24,0.5v23C24,23.776,23.776,24,23.5,24z M1.707,23H23V1.707L1.707,23z"/>
	<path d="M11,13.5c-0.128,0-0.256-0.049-0.354-0.146l-3.5-3.5c-0.195-0.195-0.195-0.512,0-0.707l4-4
		c0.195-0.195,0.512-0.195,0.707,0l3.5,3.5c0.195,0.195,0.195,0.512,0,0.707l-4,4C11.256,13.451,11.128,13.5,11,13.5z M8.207,9.5
		L11,12.293L14.293,9L11.5,6.207L8.207,9.5z"/>
	<path d="M4.5,16c-0.064,0-0.13-0.013-0.191-0.038C4.122,15.884,4,15.702,4,15.5v-2C4,13.223,4.224,13,4.5,13S5,13.223,5,13.5v0.793
		l2.146-2.146c0.195-0.195,0.512-0.195,0.707,0c0.195,0.195,0.195,0.512,0,0.707l-3,3C4.758,15.949,4.63,16,4.5,16z"/>
	<path d="M6.5,16h-2C4.224,16,4,15.776,4,15.5S4.224,15,4.5,15h2C6.776,15,7,15.223,7,15.5S6.776,16,6.5,16z"/>
	<path d="M13.5,18c-0.064,0-0.13-0.013-0.191-0.038C13.122,17.884,13,17.702,13,17.5v-4c0-0.276,0.224-0.5,0.5-0.5
		s0.5,0.224,0.5,0.5v2.793l0.646-0.646c0.195-0.195,0.512-0.195,0.707,0s0.195,0.512,0,0.707l-1.5,1.5
		C13.758,17.949,13.63,18,13.5,18z"/>
	<path d="M13.5,18c-0.128,0-0.256-0.049-0.354-0.146l-1.5-1.5c-0.195-0.195-0.195-0.512,0-0.707s0.512-0.195,0.707,0l1.5,1.5
		c0.195,0.195,0.195,0.512,0,0.707C13.756,17.951,13.628,18,13.5,18z"/>
</g>
<g>
</g>
<g>
</g>
<g>
</g>
<g>
</g>
<g>
</g>
<g>
</g>
<g>
</g>
<g>
</g>
<g>
</g>
<g>
</g>
<g>
</g>
<g>
</g>
<g>
</g>
<g>
</g>
<g>
</g>
</svg>
