<?xml version="1.0" encoding="iso-8859-1"?>
<!-- Generator: Adobe Illustrator 18.0.0, SVG Export Plug-In . SVG Version: 6.00 Build 0)  -->
<!DOCTYPE svg PUBLIC "-//W3C//DTD SVG 1.1//EN" "http://www.w3.org/Graphics/SVG/1.1/DTD/svg11.dtd">
<svg version="1.1" id="Layer_1" xmlns="http://www.w3.org/2000/svg" xmlns:xlink="http://www.w3.org/1999/xlink" x="0px" y="0px"
	 viewBox="0 0 24 24" style="enable-background:new 0 0 24 24;" xml:space="preserve">
<g>
	<path d="M6.733,23.499L6.733,23.499c-2.004,0-3.695-0.605-4.893-1.751C0.637,20.596,0,18.966,0,17.033
		c0-3.575,2.116-7.735,5.661-11.126C9.2,2.521,13.537,0.501,17.262,0.501c2.006,0,3.699,0.605,4.897,1.752
		C23.362,3.403,23.998,5.031,24,6.96c0.002,3.567-2.105,7.721-5.639,11.109c-0.099,0.096-0.235,0.16-0.37,0.139
		c-0.138-0.007-0.267-0.069-0.355-0.174c-0.29-0.34-0.704-0.534-1.136-0.534c-0.827,0-1.5,0.673-1.5,1.5
		c0,0.32,0.105,0.631,0.305,0.896c0.083,0.11,0.117,0.25,0.093,0.386c-0.023,0.137-0.102,0.257-0.217,0.332
		C12.359,22.475,9.359,23.499,6.733,23.499z M17.262,1.501c-3.422,0-7.602,1.965-10.909,5.129C3.051,9.788,1,13.774,1,17.034
		c0,1.652,0.529,3.032,1.532,3.991c1.008,0.964,2.46,1.474,4.201,1.474l0,0c2.311,0,4.957-0.872,7.496-2.463
		C14.078,19.712,14,19.36,14,19c0-1.379,1.121-2.5,2.5-2.5c0.547,0,1.075,0.184,1.508,0.516c3.091-3.1,4.994-6.917,4.992-10.056
		c-0.001-1.649-0.531-3.027-1.532-3.984C20.459,2.011,19.005,1.501,17.262,1.501z"/>
	<path d="M5.738,21.5c-0.85,0-2.028-0.159-2.823-0.92C2.308,20,2,19.143,2,18.033c0-2.142,1.244-5.62,4.735-8.959
		C9.686,6.253,13.336,4.5,16.262,4.5c0.508,0,0.982,0.058,1.41,0.17c0.262,0.069,0.421,0.334,0.358,0.598
		C18.01,5.355,18,5.432,18,5.5c0,0.552,0.448,1,1,1c0.074,0,0.153-0.012,0.248-0.035c0.27-0.071,0.539,0.094,0.607,0.361
		C19.953,7.207,20,7.58,20,7.967c0,2.142-1.244,5.62-4.735,8.959C12.315,19.747,8.665,21.5,5.738,21.5z M16.262,5.5
		c-2.678,0-6.063,1.646-8.835,4.297C4.163,12.918,3,16.098,3,18.033c0,0.826,0.204,1.439,0.606,1.824
		C4.161,20.389,5.072,20.5,5.738,20.5c2.679,0,6.064-1.646,8.835-4.297C17.837,13.082,19,9.902,19,7.967
		c0-0.157-0.01-0.313-0.03-0.467c-1.071-0.017-1.941-0.879-1.969-1.947C16.768,5.518,16.518,5.5,16.262,5.5z"/>
	<path d="M19,7.5c-1.103,0-2-0.897-2-2s0.897-2,2-2s2,0.897,2,2S20.103,7.5,19,7.5z M19,4.5c-0.552,0-1,0.448-1,1s0.448,1,1,1
		s1-0.448,1-1S19.552,4.5,19,4.5z"/>
	<path d="M6.595,19.5c-0.58,0-1.388-0.107-1.942-0.621C4.22,18.479,4,17.896,4,17.146c0-1.379,0.82-3.611,3.124-5.741
		c1.288-1.189,2.812-2.1,4.291-2.563c0.261-0.081,0.535,0.06,0.623,0.316C12.108,9.366,12.29,9.5,12.5,9.5
		c0.273,0,0.498-0.224,0.499-0.498C13,8.868,13.055,8.74,13.15,8.646c0.097-0.094,0.273-0.133,0.359-0.142
		c0.795,0.018,1.413,0.225,1.837,0.616C15.78,9.523,16,10.106,16,10.854c0,1.379-0.82,3.611-3.124,5.741
		C10.936,18.387,8.529,19.5,6.595,19.5z M11.332,9.927c-1.22,0.45-2.46,1.226-3.529,2.213C5.736,14.051,5,15.979,5,17.146
		c0,0.459,0.111,0.795,0.332,0.998C5.579,18.374,6.027,18.5,6.595,18.5c1.693,0,3.84-1.011,5.603-2.639
		C14.264,13.95,15,12.022,15,10.854c0-0.459-0.111-0.795-0.332-1c-0.171-0.157-0.434-0.264-0.77-0.315
		C13.682,10.101,13.136,10.5,12.5,10.5C12.036,10.5,11.609,10.282,11.332,9.927z"/>
	<path d="M16.5,21.5c-1.379,0-2.5-1.121-2.5-2.5s1.121-2.5,2.5-2.5S19,17.621,19,19S17.879,21.5,16.5,21.5z M16.5,17.5
		c-0.827,0-1.5,0.673-1.5,1.5s0.673,1.5,1.5,1.5c0.827,0,1.5-0.673,1.5-1.5S17.327,17.5,16.5,17.5z"/>
	<path d="M12.5,10.5C11.673,10.5,11,9.827,11,9s0.673-1.5,1.5-1.5S14,8.173,14,9S13.327,10.5,12.5,10.5z M12.5,8.5
		C12.225,8.5,12,8.725,12,9s0.225,0.5,0.5,0.5S13,9.275,13,9S12.775,8.5,12.5,8.5z"/>
	<path d="M7.5,17.5C6.673,17.5,6,16.827,6,16s0.673-1.5,1.5-1.5S9,15.173,9,16S8.327,17.5,7.5,17.5z M7.5,15.5
		C7.225,15.5,7,15.725,7,16s0.225,0.5,0.5,0.5S8,16.275,8,16S7.775,15.5,7.5,15.5z"/>
</g>
<g>
</g>
<g>
</g>
<g>
</g>
<g>
</g>
<g>
</g>
<g>
</g>
<g>
</g>
<g>
</g>
<g>
</g>
<g>
</g>
<g>
</g>
<g>
</g>
<g>
</g>
<g>
</g>
<g>
</g>
</svg>
