<?xml version="1.0" encoding="iso-8859-1"?>
<!-- Generator: Adobe Illustrator 18.0.0, SVG Export Plug-In . SVG Version: 6.00 Build 0)  -->
<!DOCTYPE svg PUBLIC "-//W3C//DTD SVG 1.1//EN" "http://www.w3.org/Graphics/SVG/1.1/DTD/svg11.dtd">
<svg version="1.1" id="Layer_1" xmlns="http://www.w3.org/2000/svg" xmlns:xlink="http://www.w3.org/1999/xlink" x="0px" y="0px"
	 viewBox="0 0 24 24" style="enable-background:new 0 0 24 24;" xml:space="preserve">
<g>
	<path d="M23,16H1c-0.276,0-0.5-0.224-0.5-0.5S0.724,15,1,15h22c0.276,0,0.5,0.224,0.5,0.5S23.276,16,23,16z"/>
	<path d="M13,24c-0.276,0-0.5-0.224-0.5-0.5v-4c0-0.276,0.224-0.5,0.5-0.5s0.5,0.224,0.5,0.5v4C13.5,23.776,13.276,24,13,24z"/>
	<path d="M18,24c-0.276,0-0.5-0.224-0.5-0.5v-4c0-0.276,0.224-0.5,0.5-0.5s0.5,0.224,0.5,0.5v4C18.5,23.776,18.276,24,18,24z"/>
	<path d="M23,24H8c-0.229,0-0.43-0.156-0.485-0.379L7,21.562l-0.515,2.06C6.43,23.844,6.229,24,6,24H1c-0.276,0-0.5-0.224-0.5-0.5
		v-10C0.5,11.019,2.519,9,5,9h4.41L8.507,3.582C8.5,1.57,10.07,0,12,0s3.5,1.57,3.5,3.5L14.59,9H19c2.481,0,4.5,2.019,4.5,4.5v10
		C23.5,23.776,23.276,24,23,24z M8.391,23H22.5v-9.5c0-1.93-1.57-3.5-3.5-3.5h-5c-0.147,0-0.286-0.064-0.382-0.177
		c-0.095-0.112-0.136-0.26-0.111-0.405l1-6C14.5,2.122,13.379,1,12,1S9.5,2.122,9.5,3.5l0.993,5.918
		c0.024,0.145-0.017,0.293-0.111,0.405C10.286,9.936,10.147,10,10,10H5c-1.93,0-3.5,1.57-3.5,3.5V23h4.109l0.905-3.621
		c0.111-0.445,0.859-0.445,0.971,0L8.391,23z"/>
</g>
<g>
</g>
<g>
</g>
<g>
</g>
<g>
</g>
<g>
</g>
<g>
</g>
<g>
</g>
<g>
</g>
<g>
</g>
<g>
</g>
<g>
</g>
<g>
</g>
<g>
</g>
<g>
</g>
<g>
</g>
</svg>
