<?xml version="1.0" encoding="iso-8859-1"?>
<!-- Generator: Adobe Illustrator 18.0.0, SVG Export Plug-In . SVG Version: 6.00 Build 0)  -->
<!DOCTYPE svg PUBLIC "-//W3C//DTD SVG 1.1//EN" "http://www.w3.org/Graphics/SVG/1.1/DTD/svg11.dtd">
<svg version="1.1" id="Layer_1" xmlns="http://www.w3.org/2000/svg" xmlns:xlink="http://www.w3.org/1999/xlink" x="0px" y="0px"
	 viewBox="0 0 24 24" style="enable-background:new 0 0 24 24;" xml:space="preserve">
<g>
	<path d="M9.002,17.49c-0.13,0-0.26-0.05-0.358-0.151c-0.192-0.198-0.188-0.515,0.01-0.708L22.167,3.468
		c0.447-0.448,0.447-1.185-0.005-1.638c-0.44-0.438-1.203-0.438-1.643,0L7.36,15.339c-0.194,0.198-0.51,0.202-0.707,0.009
		c-0.198-0.192-0.202-0.509-0.01-0.707L19.808,1.128c0.826-0.825,2.245-0.821,3.062-0.004c0.843,0.842,0.843,2.213,0,3.057
		L9.351,17.348C9.254,17.443,9.128,17.49,9.002,17.49z"/>
	<path d="M1.729,23.49c-0.368,0-0.887-0.049-1.125-0.47c-0.286-0.507,0.051-1.067,0.517-1.842c0.511-0.848,1.146-1.903,1.146-3.076
		c0-1.992,1.623-3.612,3.617-3.612c1.995,0,3.618,1.62,3.618,3.612c0,2.025-2.311,4.377-4.847,4.934
		C3.222,23.35,2.319,23.49,1.729,23.49z M1.541,22.482c0.047,0.005,0.109,0.008,0.188,0.008c0.501,0,1.388-0.141,2.711-0.431
		c2.25-0.494,4.062-2.568,4.062-3.957c0-1.44-1.175-2.612-2.618-2.612s-2.617,1.172-2.617,2.612c0,1.451-0.745,2.688-1.288,3.591
		C1.824,21.95,1.625,22.281,1.541,22.482z"/>
	<path d="M7.502,21.49c-1.918,0-2.496-1.037-2.961-1.869C4.161,18.94,3.91,18.49,3.002,18.49c-0.276,0-0.5-0.224-0.5-0.5
		s0.224-0.5,0.5-0.5c1.496,0,2.004,0.912,2.413,1.644c0.422,0.758,0.756,1.356,2.087,1.356c0.276,0,0.5,0.224,0.5,0.5
		S7.778,21.49,7.502,21.49z"/>
	<path d="M13.502,12.99c-0.128,0-0.256-0.049-0.354-0.146l-2-2c-0.195-0.195-0.195-0.512,0-0.707s0.512-0.195,0.707,0l2,2
		c0.195,0.195,0.195,0.512,0,0.707C13.758,12.941,13.63,12.99,13.502,12.99z"/>
</g>
<g>
</g>
<g>
</g>
<g>
</g>
<g>
</g>
<g>
</g>
<g>
</g>
<g>
</g>
<g>
</g>
<g>
</g>
<g>
</g>
<g>
</g>
<g>
</g>
<g>
</g>
<g>
</g>
<g>
</g>
</svg>
