<?xml version="1.0" encoding="iso-8859-1"?>
<!-- Generator: Adobe Illustrator 18.0.0, SVG Export Plug-In . SVG Version: 6.00 Build 0)  -->
<!DOCTYPE svg PUBLIC "-//W3C//DTD SVG 1.1//EN" "http://www.w3.org/Graphics/SVG/1.1/DTD/svg11.dtd">
<svg version="1.1" id="Layer_1" xmlns="http://www.w3.org/2000/svg" xmlns:xlink="http://www.w3.org/1999/xlink" x="0px" y="0px"
	 viewBox="0 0 24 24" style="enable-background:new 0 0 24 24;" xml:space="preserve">
<g>
	<path d="M4.5,24c-0.128,0-0.256-0.049-0.354-0.146l-4-4c-0.195-0.195-0.195-0.512,0-0.707l19-19c0.195-0.195,0.512-0.195,0.707,0
		l4,4c0.195,0.195,0.195,0.512,0,0.707l-19,19C4.756,23.951,4.628,24,4.5,24z M1.207,19.5L4.5,22.793L22.793,4.5L19.5,1.207
		L1.207,19.5z"/>
	<path d="M2.5,19c-0.128,0-0.256-0.049-0.354-0.146l-0.5-0.5c-0.195-0.195-0.195-0.512,0-0.707s0.512-0.195,0.707,0l0.5,0.5
		c0.195,0.195,0.195,0.512,0,0.707C2.756,18.951,2.628,19,2.5,19z"/>
	<path d="M5.5,18c-0.128,0-0.256-0.049-0.354-0.146l-1.5-1.5c-0.195-0.195-0.195-0.512,0-0.707s0.512-0.195,0.707,0l1.5,1.5
		c0.195,0.195,0.195,0.512,0,0.707C5.756,17.951,5.628,18,5.5,18z"/>
	<path d="M6.5,15c-0.128,0-0.256-0.049-0.354-0.146l-0.5-0.5c-0.195-0.195-0.195-0.512,0-0.707s0.512-0.195,0.707,0l0.5,0.5
		c0.195,0.195,0.195,0.512,0,0.707C6.756,14.951,6.628,15,6.5,15z"/>
	<path d="M9.5,14c-0.128,0-0.256-0.049-0.354-0.146l-1.5-1.5c-0.195-0.195-0.195-0.512,0-0.707s0.512-0.195,0.707,0l1.5,1.5
		c0.195,0.195,0.195,0.512,0,0.707C9.756,13.951,9.628,14,9.5,14z"/>
	<path d="M10.5,11c-0.128,0-0.256-0.049-0.354-0.146l-0.5-0.5c-0.195-0.195-0.195-0.512,0-0.707s0.512-0.195,0.707,0l0.5,0.5
		c0.195,0.195,0.195,0.512,0,0.707C10.756,10.951,10.628,11,10.5,11z"/>
	<path d="M13.5,10c-0.128,0-0.256-0.049-0.354-0.146l-1.5-1.5c-0.195-0.195-0.195-0.512,0-0.707s0.512-0.195,0.707,0l1.5,1.5
		c0.195,0.195,0.195,0.512,0,0.707C13.756,9.951,13.628,10,13.5,10z"/>
	<path d="M14.5,7c-0.128,0-0.256-0.049-0.354-0.146l-0.5-0.5c-0.195-0.195-0.195-0.512,0-0.707s0.512-0.195,0.707,0l0.5,0.5
		c0.195,0.195,0.195,0.512,0,0.707C14.756,6.951,14.628,7,14.5,7z"/>
	<path d="M17.5,6c-0.128,0-0.256-0.049-0.354-0.146l-1.5-1.5c-0.195-0.195-0.195-0.512,0-0.707s0.512-0.195,0.707,0l1.5,1.5
		c0.195,0.195,0.195,0.512,0,0.707C17.756,5.951,17.628,6,17.5,6z"/>
	<path d="M18.5,3c-0.128,0-0.256-0.049-0.354-0.146l-0.5-0.5c-0.195-0.195-0.195-0.512,0-0.707s0.512-0.195,0.707,0l0.5,0.5
		c0.195,0.195,0.195,0.512,0,0.707C18.756,2.951,18.628,3,18.5,3z"/>
</g>
<g>
</g>
<g>
</g>
<g>
</g>
<g>
</g>
<g>
</g>
<g>
</g>
<g>
</g>
<g>
</g>
<g>
</g>
<g>
</g>
<g>
</g>
<g>
</g>
<g>
</g>
<g>
</g>
<g>
</g>
</svg>
