<?xml version="1.0" encoding="utf-8"?>
<!-- Generator: Adobe Illustrator 19.0.0, SVG Export Plug-In . SVG Version: 6.00 Build 0)  -->
<svg version="1.1" id="Layer_1" xmlns="http://www.w3.org/2000/svg" xmlns:xlink="http://www.w3.org/1999/xlink" x="0px" y="0px"
	 viewBox="0 0 30 30" style="enable-background:new 0 0 30 30;" xml:space="preserve">
<path d="M28.6,8.6c-1-1-4.8-1.4-5.4-1.4h0C23.2,7.2,23,7,23,6.8C22.8,6.5,22.5,6,22,6H8C7.5,6,7.2,6.5,7,6.8C7,7,6.8,7.2,6.8,7.3
	c-0.5,0-4.4,0.4-5.4,1.4C0.5,9.5,0,17.1,0,17.5c-0.1,2,1.2,3.8,3,4.4L9.3,24c0.1,0,0.1,0,0.2,0h11c0.1,0,0.1,0,0.2,0l6.3-2.1
	c1.9-0.5,3.2-2.4,3.1-4.4C30,17.1,29.5,9.5,28.6,8.6z M5.5,15H5v0.5C5,15.8,4.8,16,4.5,16S4,15.8,4,15.5V15H3.5
	C3.2,15,3,14.8,3,14.5S3.2,14,3.5,14H4v-0.5C4,13.2,4.2,13,4.5,13S5,13.2,5,13.5V14h0.5C5.8,14,6,14.2,6,14.5S5.8,15,5.5,15z
	 M22,19.5c0,0.3-0.2,0.5-0.5,0.5h-13C8.2,20,8,19.8,8,19.5v-9C8,10.2,8.2,10,8.5,10h13c0.3,0,0.5,0.2,0.5,0.5V19.5z M24.5,15
	c-0.3,0-0.5-0.2-0.5-0.5s0.2-0.5,0.5-0.5s0.5,0.2,0.5,0.5S24.8,15,24.5,15z M26.5,13c-0.3,0-0.5-0.2-0.5-0.5s0.2-0.5,0.5-0.5
	s0.5,0.2,0.5,0.5S26.8,13,26.5,13z"/>
</svg>
