<?xml version="1.0" encoding="utf-8"?>
<!-- Generator: Adobe Illustrator 19.0.0, SVG Export Plug-In . SVG Version: 6.00 Build 0)  -->
<svg version="1.1" id="Layer_1" xmlns="http://www.w3.org/2000/svg" xmlns:xlink="http://www.w3.org/1999/xlink" x="0px" y="0px"
	 viewBox="0 0 30 30" style="enable-background:new 0 0 30 30;" xml:space="preserve">
<path d="M28.5,4.5l-5.7-3.9C22.2,0.2,21.5,0,20.9,0c-1.2,0-2.3,0.6-2.9,1.6L5.6,20.7C5.2,21.3,5,22,5,22.7c0,1.2,0.6,2.2,1.5,2.9
	l2.3,1.6c-0.2,0-0.3,0-0.5,0l0,0c-3,0-4.3-3.4-4.3-4.7c0-1.5,0-2.8,1.9-4.7c2-2,5.1-7.3,5.1-9.1c0-0.2,0-0.4,0-0.6
	c0-1,0.1-2.3-0.8-3.2C9.7,4.3,8.8,4,7.5,4C3.6,4,0,10.8,0,18c0,2.8,0.8,5.5,2.2,7.7C3.6,27.8,5.4,29,7.2,29l0,0c1,0,1.9-0.4,2.7-1.1
	c0,0,0,0,0,0l2.3,1.6c0.6,0.4,1.2,0.6,1.9,0.6c1.2,0,2.3-0.6,2.9-1.6L29.4,9.3C29.8,8.7,30,8.1,30,7.3C30,6.2,29.4,5.1,28.5,4.5z
	 M3,25.1c-1.3-2-2-4.5-2-7.1C1,11,4.6,5,7.5,5c1,0,1.6,0.2,2,0.6C10.1,6.2,10,7.2,10,8c0,0.2,0,0.4,0,0.6c0,1.3-2.8,6.3-4.9,8.4
	C3,19.2,3,20.8,3,22.5c0,1.4,1.2,4.7,4,5.5C5.7,27.9,4.2,26.8,3,25.1z M14,22c-0.6,0-1-0.4-1-1s0.4-1,1-1s1,0.4,1,1S14.6,22,14,22z
	 M18.5,16c-0.8,0-1.5-0.7-1.5-1.5s0.7-1.5,1.5-1.5s1.5,0.7,1.5,1.5S19.3,16,18.5,16z M25.9,9.4l-1.1,1.7c-0.1,0.1-0.2,0.2-0.3,0.2
	c-0.1,0-0.3,0-0.4-0.1l-1.7-1.1l-1.1,1.7C21.2,11.9,21,12,20.9,12c-0.1,0-0.2,0-0.3-0.1l-1.7-1.1c-0.1-0.1-0.2-0.2-0.2-0.3
	c0-0.1,0-0.3,0.1-0.4l1.1-1.7l-1.7-1.1C18,7.1,18,6.8,18.1,6.6l1.1-1.7c0.1-0.1,0.2-0.2,0.3-0.2c0.1,0,0.3,0,0.4,0.1l1.7,1.1
	l1.1-1.7C22.9,4,23.2,4,23.4,4.1l1.7,1.1c0.1,0.1,0.2,0.2,0.2,0.3c0,0.1,0,0.3-0.1,0.4l-1.1,1.7l1.7,1.1C26,8.9,26,9.2,25.9,9.4z"/>
</svg>
