<?xml version="1.0" encoding="iso-8859-1"?>
<!-- Generator: Adobe Illustrator 19.0.0, SVG Export Plug-In . SVG Version: 6.00 Build 0)  -->
<svg version="1.1" id="Layer_1" xmlns="http://www.w3.org/2000/svg" xmlns:xlink="http://www.w3.org/1999/xlink" x="0px" y="0px"
	 viewBox="0 0 30 30" style="enable-background:new 0 0 30 30;" xml:space="preserve">
<g>
	<g>
		<path d="M25.887,4.712c-0.009-0.012-0.013-0.026-0.024-0.037c-0.035-0.037-0.073-0.072-0.109-0.109
			c-0.105-0.108-0.212-0.215-0.32-0.32c-0.036-0.035-0.071-0.073-0.108-0.108c-0.011-0.01-0.025-0.015-0.037-0.024
			C22.6,1.572,18.984,0,15,0C11.015,0,7.398,1.572,4.709,4.116C4.698,4.125,4.685,4.128,4.675,4.138
			C4.641,4.17,4.61,4.204,4.577,4.236C4.461,4.348,4.348,4.461,4.236,4.577C4.204,4.61,4.17,4.641,4.138,4.675
			c-0.009,0.01-0.013,0.023-0.022,0.034C1.572,7.398,0,11.015,0,15c0,3.984,1.572,7.6,4.114,10.289
			c0.009,0.012,0.013,0.026,0.024,0.037c0.036,0.037,0.074,0.073,0.11,0.11c0.102,0.105,0.204,0.208,0.309,0.31
			c0.039,0.038,0.076,0.078,0.116,0.116c0.012,0.011,0.027,0.016,0.04,0.026C7.401,28.429,11.017,30,15,30
			c3.982,0,7.596-1.57,10.285-4.11c0.013-0.01,0.03-0.015,0.042-0.027c0.043-0.041,0.084-0.085,0.126-0.127
			c0.098-0.095,0.193-0.191,0.288-0.289c0.04-0.041,0.081-0.079,0.12-0.121c0.011-0.012,0.016-0.028,0.026-0.041
			C28.429,22.598,30,18.983,30,15S28.429,7.401,25.887,4.712z M4,23.632C2.127,21.251,1,18.257,1,15s1.127-6.251,3-8.632V23.632z
			 M15,1c3.257,0,6.251,1.127,8.632,3H6.368C8.749,2.127,11.743,1,15,1z M5,5.221c0.002-0.002,0.004-0.004,0.006-0.006
			c0.069-0.07,0.139-0.139,0.209-0.209C5.216,5.004,5.219,5.002,5.221,5h8.98L5,23.861V5.221z M15,29c-3.257,0-6.251-1.127-8.632-3
			h17.264C21.251,27.873,18.257,29,15,29z M5.556,25L15,5.641L24.443,25H5.556z M25,23.861L15.8,5h8.98
			c0.002,0.002,0.004,0.003,0.005,0.005c0.071,0.07,0.14,0.139,0.21,0.21C24.997,5.217,24.998,5.219,25,5.22V23.861z M26,6.368
			c1.873,2.381,3,5.375,3,8.632s-1.127,6.251-3,8.632V6.368z"/>
	</g>
</g>
</svg>
