<?xml version="1.0" encoding="iso-8859-1"?>
<!-- Generator: Adobe Illustrator 19.0.0, SVG Export Plug-In . SVG Version: 6.00 Build 0)  -->
<svg version="1.1" id="Layer_1" xmlns="http://www.w3.org/2000/svg" xmlns:xlink="http://www.w3.org/1999/xlink" x="0px" y="0px"
	 viewBox="0 0 30 30" style="enable-background:new 0 0 30 30;" xml:space="preserve">
<g>
	<g>
		<path d="M24.984,27.422c-0.005-0.029-0.002-0.059-0.012-0.088l-0.013-0.037c-0.018-0.078-0.042-0.155-0.08-0.228L15.472,0.334
			c-0.003-0.009-0.011-0.015-0.015-0.024c-0.013-0.031-0.032-0.057-0.051-0.085c-0.018-0.027-0.034-0.054-0.057-0.076
			c-0.021-0.021-0.046-0.036-0.071-0.053c-0.029-0.02-0.057-0.04-0.09-0.054c-0.009-0.004-0.014-0.011-0.023-0.014
			c-0.021-0.007-0.043-0.005-0.065-0.009C15.067,0.012,15.035,0.005,15,0.005c-0.035,0-0.068,0.007-0.102,0.014
			c-0.021,0.004-0.043,0.001-0.064,0.009c-0.009,0.003-0.015,0.01-0.023,0.014c-0.033,0.014-0.061,0.033-0.09,0.054
			c-0.025,0.017-0.051,0.032-0.072,0.053c-0.021,0.021-0.036,0.047-0.054,0.072c-0.02,0.029-0.04,0.057-0.054,0.091
			c-0.003,0.008-0.01,0.014-0.013,0.022L5.121,27.069c-0.038,0.073-0.062,0.15-0.08,0.228l-0.013,0.037
			c-0.01,0.029-0.007,0.057-0.012,0.086C5.011,27.447,5,27.472,5,27.5c0,0.005,0.003,0.01,0.003,0.015
			c0.001,0.035,0.012,0.068,0.02,0.102c0.006,0.026,0.006,0.055,0.016,0.08C5.452,29.506,11.415,30,15,30
			c3.586,0,9.553-0.495,9.961-2.305c0.008-0.019,0.007-0.042,0.013-0.063c0.011-0.039,0.023-0.077,0.024-0.119
			c0-0.005,0.003-0.009,0.003-0.014C25,27.473,24.988,27.448,24.984,27.422z M15,2.008l8.463,24.053C21.364,25.253,17.568,25,15,25
			s-6.364,0.252-8.463,1.06L15,2.008z M15,29c-5.463,0-8.692-0.951-8.98-1.471l0.034-0.096C6.516,26.891,9.712,26,15,26
			c5.256,0,8.447,0.881,8.938,1.411l0.039,0.11C23.663,28.058,20.439,29,15,29z"/>
	</g>
</g>
</svg>
