<?xml version="1.0" encoding="iso-8859-1"?>
<!-- Generator: Adobe Illustrator 19.0.0, SVG Export Plug-In . SVG Version: 6.00 Build 0)  -->
<svg version="1.1" id="Layer_1" xmlns="http://www.w3.org/2000/svg" xmlns:xlink="http://www.w3.org/1999/xlink" x="0px" y="0px"
	 viewBox="0 0 30 30" style="enable-background:new 0 0 30 30;" xml:space="preserve">
<g>
	<g>
		<path d="M29.984,25.418c-0.008-0.048-0.02-0.094-0.042-0.137c-0.005-0.01-0.004-0.022-0.01-0.032l-14.5-25
			c-0.005-0.009-0.015-0.015-0.021-0.024c-0.02-0.03-0.044-0.054-0.07-0.079c-0.02-0.019-0.038-0.038-0.06-0.053
			c-0.033-0.023-0.07-0.038-0.108-0.053c-0.017-0.006-0.029-0.018-0.047-0.023c-0.008-0.002-0.015,0-0.022-0.001
			c-0.038-0.008-0.076-0.007-0.116-0.006c-0.029,0.001-0.057-0.001-0.086,0.005c-0.01,0.002-0.02-0.001-0.03,0.002
			c-0.023,0.006-0.04,0.021-0.062,0.03C14.78,0.059,14.75,0.071,14.723,0.09c-0.026,0.018-0.047,0.039-0.069,0.061
			c-0.023,0.023-0.045,0.045-0.064,0.073c-0.006,0.009-0.015,0.014-0.021,0.023c0,0.001-0.002,0.001-0.002,0.002l-14.5,25
			c-0.007,0.012-0.006,0.026-0.012,0.038c-0.018,0.037-0.027,0.075-0.035,0.115c-0.006,0.03-0.015,0.057-0.015,0.087
			c-0.001,0.045,0.01,0.089,0.022,0.134c0.006,0.022,0.002,0.044,0.011,0.065c0.001,0.003,0.004,0.005,0.006,0.008
			c0.001,0.002,0,0.004,0.001,0.006c0.029,0.066,0.071,0.121,0.121,0.166c0.012,0.01,0.027,0.015,0.039,0.024
			c0.044,0.033,0.091,0.061,0.144,0.078c0.007,0.002,0.012,0.009,0.02,0.011l14.5,4C14.91,29.994,14.955,30,15,30
			c0.045,0,0.09-0.006,0.132-0.018l14.5-4c0.03-0.008,0.053-0.03,0.081-0.044c0.028-0.013,0.053-0.024,0.078-0.042
			c0.057-0.042,0.102-0.096,0.137-0.16c0.007-0.013,0.022-0.019,0.028-0.033c0.001-0.003,0.001-0.007,0.002-0.01
			c0.001-0.002,0.002-0.002,0.003-0.004c0.004-0.01,0.002-0.022,0.005-0.032c0.019-0.057,0.03-0.115,0.028-0.173
			C29.995,25.461,29.988,25.441,29.984,25.418z M15,2.471L19.853,21h-9.706L15,2.471z M13.583,3.94L9.078,21.141l-7.372,3.276
			L13.583,3.94z M15,28.981L1.981,25.39L9.607,22h10.787l7.626,3.389L15,28.981z M20.922,21.141l-4.505-17.2l11.876,20.476
			L20.922,21.141z"/>
	</g>
</g>
</svg>
