<?xml version="1.0" encoding="iso-8859-1"?>
<!-- Generator: Adobe Illustrator 19.0.0, SVG Export Plug-In . SVG Version: 6.00 Build 0)  -->
<svg version="1.1" id="Layer_1" xmlns="http://www.w3.org/2000/svg" xmlns:xlink="http://www.w3.org/1999/xlink" x="0px" y="0px"
	 viewBox="0 0 30 30" style="enable-background:new 0 0 30 30;" xml:space="preserve">
<g>
	<g>
		<path d="M15,20c-0.276,0-0.5,0.224-0.5,0.5S14.724,21,15,21s0.5-0.224,0.5-0.5S15.276,20,15,20z M15,27.5c0.552,0,1-0.448,1-1
			s-0.448-1-1-1s-1,0.448-1,1S14.448,27.5,15,27.5z M21.429,0H8.572C6.879,0,5.501,1.355,5.501,3.022v1.473
			C5.501,4.497,5.5,4.498,5.5,4.5s0.001,0.003,0.001,0.005v18.99c0,0.002-0.001,0.003-0.001,0.005s0.001,0.003,0.001,0.005v3.473
			C5.501,28.645,6.879,30,8.572,30h12.857c1.693,0,3.071-1.355,3.071-3.022V3.022C24.5,1.355,23.122,0,21.429,0z M23.499,26.978
			c0,1.115-0.928,2.022-2.071,2.022H8.571C7.429,29,6.5,28.093,6.5,26.978V24h16.999V26.978z M23.499,23H6.5V5h16.999V23z M23.499,4
			H6.5V3.022C6.5,1.907,7.428,1,8.571,1h12.857c1.142,0,2.071,0.907,2.071,2.022V4z M10.96,10.924
			c0.271,0.025,0.517-0.182,0.538-0.458C11.61,9.083,13.146,8,14.997,8c1.932,0,3.503,1.178,3.503,2.625
			c0,1.016-0.639,1.744-1.953,2.223c-1.241,0.452-2.044,1.55-2.045,2.799L14.5,17.5c0,0.275,0.224,0.5,0.5,0.5s0.5-0.224,0.5-0.5
			l0.002-1.853c0.001-0.824,0.545-1.554,1.387-1.861c2.158-0.787,2.611-2.154,2.611-3.162c0-1.999-2.02-3.625-4.503-3.625
			c-2.367,0-4.342,1.487-4.495,3.386C10.48,10.66,10.685,10.902,10.96,10.924z M16,2h-2c-0.276,0-0.5,0.224-0.5,0.5S13.724,3,14,3h2
			c0.276,0,0.5-0.224,0.5-0.5S16.276,2,16,2z"/>
	</g>
</g>
</svg>
