<?xml version="1.0" encoding="iso-8859-1"?>
<!-- Generator: Adobe Illustrator 19.0.0, SVG Export Plug-In . SVG Version: 6.00 Build 0)  -->
<svg version="1.1" id="Layer_1" xmlns="http://www.w3.org/2000/svg" xmlns:xlink="http://www.w3.org/1999/xlink" x="0px" y="0px"
	 viewBox="0 0 30 30" style="enable-background:new 0 0 30 30;" xml:space="preserve">
<g>
	<g>
		<path d="M19,20.52c0-0.276-0.224-0.5-0.5-0.5h-7c-0.276,0-0.5,0.224-0.5,0.5s0.224,0.5,0.5,0.5h7C18.776,21.02,19,20.796,19,20.52
			z M15.5,24.02h-4c-0.276,0-0.5,0.224-0.5,0.5s0.224,0.5,0.5,0.5h4c0.276,0,0.5-0.224,0.5-0.5S15.776,24.02,15.5,24.02z
			 M18.5,23.52c-0.552,0-1,0.448-1,1s0.448,1,1,1s1-0.448,1-1S19.052,23.52,18.5,23.52z M22.5,25.52c0.552,0,1-0.448,1-1
			s-0.448-1-1-1s-1,0.448-1,1S21.948,25.52,22.5,25.52z M6.5,11.02c0.06,0,0.121-0.011,0.179-0.033l13-5
			c0.257-0.099,0.386-0.388,0.287-0.646s-0.389-0.385-0.646-0.287l-13,5c-0.257,0.099-0.386,0.388-0.287,0.646
			C6.11,10.898,6.299,11.02,6.5,11.02z M26.5,0.02h-23C3.224,0.02,3,0.244,3,0.52v28c0,0.014,0.007,0.026,0.008,0.04
			c0.001,0.164,0.073,0.325,0.221,0.42l1.435,0.92c0.165,0.105,0.376,0.105,0.54,0l1.167-0.747L7.536,29.9
			c0.165,0.105,0.376,0.105,0.54,0l1.167-0.747L10.41,29.9c0.164,0.105,0.375,0.104,0.539,0l1.167-0.748l1.164,0.747
			c0.164,0.105,0.376,0.105,0.54,0l1.164-0.747l1.168,0.748c0.164,0.105,0.375,0.105,0.539,0l1.167-0.747l1.168,0.748
			c0.164,0.104,0.375,0.104,0.539,0l1.17-0.748l1.168,0.748c0.082,0.053,0.176,0.079,0.27,0.079s0.187-0.026,0.27-0.081l1.172-0.748
			l1.174,0.749c0.164,0.105,0.374,0.104,0.538,0l1.443-0.92c0.147-0.094,0.219-0.253,0.221-0.416C26.992,28.549,27,28.536,27,28.52
			v-28C27,0.244,26.776,0.02,26.5,0.02z M26,28.286l-0.942,0.601l-1.175-0.749c-0.164-0.104-0.374-0.104-0.538,0l-1.171,0.748
			l-1.168-0.748c-0.164-0.104-0.375-0.104-0.539,0l-1.17,0.748l-1.168-0.748c-0.164-0.105-0.375-0.105-0.539,0l-1.167,0.747
			l-1.168-0.748c-0.165-0.105-0.376-0.105-0.54,0l-1.164,0.747l-1.164-0.747c-0.165-0.105-0.376-0.104-0.54,0l-1.168,0.748
			l-1.167-0.747c-0.164-0.105-0.375-0.105-0.539,0l-1.167,0.747l-1.165-0.747c-0.165-0.105-0.376-0.105-0.54,0l-1.167,0.747
			L4,28.286V1.02h22V28.286z M8.039,15.712c0.08,0.192,0.265,0.308,0.461,0.308c0.064,0,0.129-0.012,0.193-0.039l12-5
			c0.255-0.106,0.375-0.399,0.269-0.654c-0.107-0.255-0.399-0.375-0.654-0.269l-12,5C8.053,15.164,7.933,15.457,8.039,15.712z
			 M19.5,24.52c0,0.552,0.448,1,1,1s1-0.448,1-1s-0.448-1-1-1S19.5,23.968,19.5,24.52z"/>
	</g>
</g>
</svg>
