<?xml version="1.0" encoding="iso-8859-1"?>
<!-- Generator: Adobe Illustrator 19.0.0, SVG Export Plug-In . SVG Version: 6.00 Build 0)  -->
<svg version="1.1" id="Layer_1" xmlns="http://www.w3.org/2000/svg" xmlns:xlink="http://www.w3.org/1999/xlink" x="0px" y="0px"
	 viewBox="0 0 30 30" style="enable-background:new 0 0 30 30;" xml:space="preserve">
<g>
	<g>
		<path d="M24.966,14.176c0.14-0.238,0.062-0.545-0.175-0.686c-0.238-0.14-0.544-0.062-0.686,0.175
			c-1.032,1.739-2.362,3.249-3.894,4.494L17.46,9.905C17.772,9.336,17.965,8.693,17.965,8c0-1.942-1.392-3.562-3.23-3.922
			l1.677-3.355c0.078-0.154,0.069-0.339-0.022-0.486C16.299,0.09,16.138,0,15.965,0h-4c-0.173,0-0.334,0.091-0.425,0.238
			c-0.091,0.147-0.1,0.331-0.022,0.486l1.677,3.354c-1.838,0.36-3.23,1.98-3.23,3.922c0,0.693,0.193,1.336,0.505,1.905L4.991,26.342
			c-0.008,0.025-0.005,0.05-0.009,0.075C4.977,26.445,4.965,26.47,4.965,26.5v3c0,0.276,0.224,0.5,0.5,0.5s0.5-0.224,0.5-0.5v-2.92
			l1.244-3.732C7.959,22.942,8.719,23,9.477,23c3.696,0,7.256-1.163,10.224-3.21l2.263,6.79v2.92c0,0.276,0.224,0.5,0.5,0.5
			s0.5-0.224,0.5-0.5v-3c0-0.03-0.012-0.055-0.017-0.083c-0.004-0.025-0.001-0.05-0.009-0.075l-2.391-7.172
			C22.296,17.809,23.807,16.128,24.966,14.176z M12.774,1h2.382l-1.191,2.382L12.774,1z M13.965,5c1.654,0,3,1.346,3,3s-1.346,3-3,3
			s-3-1.346-3-3S12.311,5,13.965,5z M9.477,22c-0.65,0-1.3-0.048-1.945-0.122l3.667-11.001C11.918,11.569,12.89,12,13.965,12
			s2.047-0.431,2.766-1.122l2.641,7.922C16.521,20.838,13.067,22,9.477,22z"/>
	</g>
</g>
</svg>
