<?xml version="1.0" encoding="iso-8859-1"?>
<!-- Generator: Adobe Illustrator 19.0.0, SVG Export Plug-In . SVG Version: 6.00 Build 0)  -->
<svg version="1.1" id="Layer_1" xmlns="http://www.w3.org/2000/svg" xmlns:xlink="http://www.w3.org/1999/xlink" x="0px" y="0px"
	 viewBox="0 0 30 30" style="enable-background:new 0 0 30 30;" xml:space="preserve">
<g>
	<g>
		<path d="M11.655,11.651C12.525,10.678,13,9.418,13,8c0-0.276-0.224-0.5-0.5-0.5c-1.827,0-3.692,0.942-4.713,2.613
			C7.617,9.156,7.339,8.395,6.922,7.734C6.776,7.501,6.467,7.432,6.233,7.578C6,7.725,5.93,8.034,6.077,8.267
			c0.593,0.941,0.866,2.161,0.913,4.105c-0.161-0.067-0.333-0.153-0.517-0.247C5.925,11.846,5.242,11.5,4.406,11.5
			C1.771,11.5,0,13.852,0,17.353C0,20.634,2.502,25.5,5.959,25.5c0.645,0,0.949-0.154,1.172-0.267
			c0.137-0.069,0.209-0.105,0.369-0.115c0.161,0.01,0.233,0.047,0.369,0.115C8.092,25.346,8.396,25.5,9.041,25.5
			c3.457,0,5.959-4.866,5.957-8.147C14.998,14.349,13.69,12.203,11.655,11.651z M11.973,8.531c-0.127,1.225-0.707,2.268-1.654,2.996
			c-0.71,0.065-1.308,0.352-1.794,0.598c-0.165,0.084-0.318,0.159-0.465,0.223C8.354,10.069,10.133,8.743,11.973,8.531z M9.041,24.5
			c-0.406,0-0.545-0.07-0.721-0.159c-0.184-0.093-0.412-0.208-0.811-0.223c-0.027,0-0.057,0.001-0.085,0.004
			c-0.359,0.025-0.571,0.132-0.744,0.219C6.504,24.43,6.365,24.5,5.959,24.5C3.335,24.5,1,20.503,1,17.353
			C1,14.45,2.368,12.5,4.406,12.5c0.597,0,1.115,0.263,1.615,0.516C6.489,13.254,6.974,13.5,7.5,13.5s1.011-0.246,1.479-0.484
			C9.48,12.763,9.997,12.5,10.594,12.5c2.037,0,3.406,1.95,3.406,4.853C14,20.503,11.666,24.5,9.041,24.5z M16.126,19.5
			c-0.276,0-0.5,0.224-0.5,0.5s0.224,0.5,0.5,0.5H20.5c0.276,0,0.5-0.224,0.5-0.5v-3c0-0.276-0.224-0.5-0.5-0.5h-4
			c-0.276,0-0.5,0.224-0.5,0.5s0.224,0.5,0.5,0.5H20v2H16.126z M30,14c0-0.03-0.012-0.055-0.017-0.084
			C29.807,10.35,26.859,7.5,23.25,7.5H21v-1c0-1.103-0.785-2-1.75-2h-2.5c-0.965,0-1.75,0.897-1.75,2v1h-0.5
			C14.224,7.5,14,7.724,14,8s0.224,0.5,0.5,0.5h8.75c2.915,0,5.326,2.184,5.695,5H15.937c-0.276,0-0.5,0.224-0.5,0.5
			s0.224,0.5,0.5,0.5H29v8H14.885c-0.276,0-0.5,0.224-0.5,0.5s0.224,0.5,0.5,0.5H29.5c0.276,0,0.5-0.224,0.5-0.5v-8.75
			c0-0.067-0.008-0.133-0.01-0.2C29.992,14.033,30,14.018,30,14z M20,7.5h-4v-1c0-0.542,0.343-1,0.75-1h2.5
			c0.407,0,0.75,0.458,0.75,1V7.5z"/>
	</g>
</g>
</svg>
