<?xml version="1.0" encoding="utf-8"?>
<!-- Generator: Adobe Illustrator 19.0.0, SVG Export Plug-In . SVG Version: 6.00 Build 0)  -->
<svg version="1.1" id="Layer_1" xmlns="http://www.w3.org/2000/svg" xmlns:xlink="http://www.w3.org/1999/xlink" x="0px" y="0px"
	 viewBox="0 0 30 30" style="enable-background:new 0 0 30 30;" xml:space="preserve">
<g>
	<g>
		<g>
			<path d="M24.4,6.2c-0.1,0-0.3,0-0.4-0.1c-5.4-5.4-12.8-5.4-18.2,0c-0.2,0.2-0.5,0.2-0.7,0S5,5.6,5.1,5.4c5.8-5.8,13.8-5.8,19.6,0
				c0.2,0.2,0.2,0.5,0,0.7C24.7,6.2,24.5,6.2,24.4,6.2z"/>
		</g>
		<g>
			<path d="M25,7h-5c-0.3,0-0.5-0.2-0.5-0.5S19.7,6,20,6h4.5V1.5C24.5,1.2,24.7,1,25,1s0.5,0.2,0.5,0.5v5C25.5,6.8,25.3,7,25,7z"/>
		</g>
	</g>
	<g>
		<path d="M1,29c-0.1,0-0.1,0-0.2,0c-0.2-0.1-0.3-0.3-0.3-0.5v-22c0-0.2,0.1-0.4,0.3-0.5C1,6,1.2,6,1.4,6.1l11,11
			c0.2,0.2,0.2,0.5,0,0.7l-11,11C1.3,28.9,1.1,29,1,29z M1.5,7.7v19.6l9.8-9.8L1.5,7.7z"/>
	</g>
	<g>
		<path d="M29,29c-0.1,0-0.3-0.1-0.4-0.1l-11-11c-0.2-0.2-0.2-0.5,0-0.7l11-11C28.8,6,29,6,29.2,6c0.2,0.1,0.3,0.3,0.3,0.5v22
			c0,0.2-0.1,0.4-0.3,0.5C29.1,29,29.1,29,29,29z M18.7,17.5l9.8,9.8V7.7L18.7,17.5z"/>
	</g>
	<g>
		<path d="M15,28c-0.3,0-0.5-0.2-0.5-0.5v-3c0-0.3,0.2-0.5,0.5-0.5s0.5,0.2,0.5,0.5v3C15.5,27.8,15.3,28,15,28z"/>
	</g>
	<g>
		<path d="M15,22c-0.3,0-0.5-0.2-0.5-0.5v-3c0-0.3,0.2-0.5,0.5-0.5s0.5,0.2,0.5,0.5v3C15.5,21.8,15.3,22,15,22z"/>
	</g>
	<g>
		<path d="M15,16c-0.3,0-0.5-0.2-0.5-0.5v-3c0-0.3,0.2-0.5,0.5-0.5s0.5,0.2,0.5,0.5v3C15.5,15.8,15.3,16,15,16z"/>
	</g>
	<g>
		<path d="M15,10c-0.3,0-0.5-0.2-0.5-0.5v-3C14.5,6.2,14.7,6,15,6s0.5,0.2,0.5,0.5v3C15.5,9.8,15.3,10,15,10z"/>
	</g>
</g>
</svg>
