<?xml version="1.0" encoding="utf-8"?>
<!-- Generator: Adobe Illustrator 19.0.0, SVG Export Plug-In . SVG Version: 6.00 Build 0)  -->
<svg version="1.1" id="Layer_1" xmlns="http://www.w3.org/2000/svg" xmlns:xlink="http://www.w3.org/1999/xlink" x="0px" y="0px"
	 viewBox="0 0 30 30" style="enable-background:new 0 0 30 30;" xml:space="preserve">
<g>
	<g>
		<path d="M29.5,21h-20C9.2,21,9,20.8,9,20.5v-20C9,0.2,9.2,0,9.5,0h20C29.8,0,30,0.2,30,0.5v20C30,20.8,29.8,21,29.5,21z M10,20h19
			V1H10V20z"/>
	</g>
	<g>
		<path d="M15.5,30h-15C0.2,30,0,29.8,0,29.5v-15C0,14.2,0.2,14,0.5,14H9c0.3,0,0.5,0.2,0.5,0.5S9.3,15,9,15H1v14h14v-8.5
			c0-0.3,0.2-0.5,0.5-0.5s0.5,0.2,0.5,0.5v9C16,29.8,15.8,30,15.5,30z"/>
	</g>
	<g>
		<path d="M12.5,18c-0.1,0-0.3,0-0.4-0.1c-0.2-0.2-0.2-0.5,0-0.7l13-13C25.3,4,25.5,4,25.7,4C25.9,4.1,26,4.3,26,4.5v5
			c0,0.3-0.2,0.5-0.5,0.5S25,9.8,25,9.5V5.7L12.9,17.9C12.8,18,12.6,18,12.5,18z"/>
	</g>
	<g>
		<path d="M25.5,5h-5C20.2,5,20,4.8,20,4.5S20.2,4,20.5,4h5C25.8,4,26,4.2,26,4.5S25.8,5,25.5,5z"/>
	</g>
	<g>
		<path d="M13.5,15h-2c-0.3,0-0.5-0.2-0.5-0.5s0.2-0.5,0.5-0.5h2c0.3,0,0.5,0.2,0.5,0.5S13.8,15,13.5,15z"/>
	</g>
	<g>
		<path d="M15.5,19c-0.3,0-0.5-0.2-0.5-0.5v-2c0-0.3,0.2-0.5,0.5-0.5s0.5,0.2,0.5,0.5v2C16,18.8,15.8,19,15.5,19z"/>
	</g>
</g>
</svg>
