<?xml version="1.0" encoding="utf-8"?>
<!-- Generator: Adobe Illustrator 19.0.0, SVG Export Plug-In . SVG Version: 6.00 Build 0)  -->
<svg version="1.1" id="Layer_1" xmlns="http://www.w3.org/2000/svg" xmlns:xlink="http://www.w3.org/1999/xlink" x="0px" y="0px"
	 viewBox="0 0 30 30" style="enable-background:new 0 0 30 30;" xml:space="preserve">
<g>
	<g>
		<g>
			<path d="M9.5,2h-3C6.2,2,6,1.8,6,1.5S6.2,1,6.5,1h3C9.8,1,10,1.2,10,1.5S9.8,2,9.5,2z"/>
		</g>
		<g>
			<path d="M17.5,2h-3C14.2,2,14,1.8,14,1.5S14.2,1,14.5,1h3C17.8,1,18,1.2,18,1.5S17.8,2,17.5,2z"/>
		</g>
		<g>
			<path d="M9.5,22h-3C6.2,22,6,21.8,6,21.5S6.2,21,6.5,21h3c0.3,0,0.5,0.2,0.5,0.5S9.8,22,9.5,22z"/>
		</g>
		<g>
			<path d="M16.5,22h-2c-0.3,0-0.5-0.2-0.5-0.5s0.2-0.5,0.5-0.5h2c0.3,0,0.5,0.2,0.5,0.5S16.8,22,16.5,22z"/>
		</g>
		<g>
			<path d="M1.5,18C1.2,18,1,17.8,1,17.5v-3C1,14.2,1.2,14,1.5,14S2,14.2,2,14.5v3C2,17.8,1.8,18,1.5,18z"/>
		</g>
		<g>
			<path d="M1.5,10C1.2,10,1,9.8,1,9.5v-3C1,6.2,1.2,6,1.5,6S2,6.2,2,6.5v3C2,9.8,1.8,10,1.5,10z"/>
		</g>
		<g>
			<path d="M22.5,17c-0.3,0-0.5-0.2-0.5-0.5v-2c0-0.3,0.2-0.5,0.5-0.5s0.5,0.2,0.5,0.5v2C23,16.8,22.8,17,22.5,17z"/>
		</g>
		<g>
			<path d="M22.5,10C22.2,10,22,9.8,22,9.5v-3C22,6.2,22.2,6,22.5,6S23,6.2,23,6.5v3C23,9.8,22.8,10,22.5,10z"/>
		</g>
		<g>
			<path d="M23.5,3h-2C21.2,3,21,2.8,21,2.5v-2C21,0.2,21.2,0,21.5,0h2C23.8,0,24,0.2,24,0.5v2C24,2.8,23.8,3,23.5,3z M22,2h1V1h-1
				V2z"/>
		</g>
		<g>
			<path d="M2.5,3h-2C0.2,3,0,2.8,0,2.5v-2C0,0.2,0.2,0,0.5,0h2C2.8,0,3,0.2,3,0.5v2C3,2.8,2.8,3,2.5,3z M1,2h1V1H1V2z"/>
		</g>
		<g>
			<path d="M2.5,23h-2C0.2,23,0,22.8,0,22.5v-2C0,20.2,0.2,20,0.5,20h2C2.8,20,3,20.2,3,20.5v2C3,22.8,2.8,23,2.5,23z M1,22h1v-1H1
				V22z"/>
		</g>
	</g>
	<g>
		<path d="M23.5,30C23.5,30,23.5,30,23.5,30c-0.2,0-0.4-0.1-0.5-0.3l-5-12c-0.1-0.2,0-0.4,0.1-0.6c0.2-0.1,0.4-0.2,0.6-0.1l11,6
			c0.2,0.1,0.3,0.3,0.3,0.4c0,0.2-0.1,0.4-0.3,0.4l-3.9,1.9l-1.9,3.9C23.9,29.9,23.7,30,23.5,30z M19.5,18.6l4,9.7l1.5-3
			c0-0.1,0.1-0.2,0.2-0.2l3.1-1.6L19.5,18.6z"/>
	</g>
</g>
</svg>
