<?xml version="1.0" encoding="utf-8"?>
<!-- Generator: Adobe Illustrator 19.0.0, SVG Export Plug-In . SVG Version: 6.00 Build 0)  -->
<svg version="1.1" id="Layer_1" xmlns="http://www.w3.org/2000/svg" xmlns:xlink="http://www.w3.org/1999/xlink" x="0px" y="0px"
	 viewBox="0 0 30 30" style="enable-background:new 0 0 30 30;" xml:space="preserve">
<g>
	<g>
		<path d="M16.5,27.9c-0.1,0-0.2,0-0.3-0.1c-0.1-0.1-0.2-0.2-0.2-0.4V26h-3v1.2c0,0.2-0.1,0.3-0.2,0.4c-0.1,0.1-0.3,0.1-0.4,0.1
			c-5.1-1-9.1-5-10.1-10.1c0-0.1,0-0.3,0.1-0.4C2.5,17.1,2.6,17,2.8,17H4v-3H2.6c-0.1,0-0.3-0.1-0.4-0.2s-0.1-0.3-0.1-0.4
			C2.8,7.9,6.9,3.4,12.4,2.3c0.1,0,0.3,0,0.4,0.1C12.9,2.5,13,2.6,13,2.8V4h3V2.6c0-0.1,0.1-0.3,0.2-0.4c0.1-0.1,0.2-0.1,0.4-0.1
			c6,0.7,10.6,5.4,11.3,11.3c0,0.1,0,0.3-0.1,0.4S27.5,14,27.4,14H26v3h1.2c0.2,0,0.3,0.1,0.4,0.2c0.1,0.1,0.1,0.3,0.1,0.4
			C26.6,23.1,22.1,27.2,16.5,27.9C16.5,27.9,16.5,27.9,16.5,27.9z M12.5,25h4c0.3,0,0.5,0.2,0.5,0.5v1.3c4.7-0.8,8.4-4.2,9.6-8.8
			h-1.1c-0.3,0-0.5-0.2-0.5-0.5v-4c0-0.3,0.2-0.5,0.5-0.5h1.3C26,8,22,4,17,3.2v1.3C17,4.8,16.8,5,16.5,5h-4C12.2,5,12,4.8,12,4.5
			V3.4C7.4,4.6,4,8.3,3.2,13h1.3C4.8,13,5,13.2,5,13.5v4C5,17.8,4.8,18,4.5,18H3.4c1.1,4.2,4.4,7.5,8.6,8.6v-1.1
			C12,25.2,12.2,25,12.5,25z"/>
	</g>
	<g>
		<path d="M16.5,5h-4C12.2,5,12,4.8,12,4.5v-4C12,0.2,12.2,0,12.5,0h4C16.8,0,17,0.2,17,0.5v4C17,4.8,16.8,5,16.5,5z M13,4h3V1h-3V4
			z"/>
	</g>
	<g>
		<path d="M16.5,30h-4c-0.3,0-0.5-0.2-0.5-0.5v-4c0-0.3,0.2-0.5,0.5-0.5h4c0.3,0,0.5,0.2,0.5,0.5v4C17,29.8,16.8,30,16.5,30z M13,29
			h3v-3h-3V29z"/>
	</g>
	<g>
		<path d="M4.5,18h-4C0.2,18,0,17.8,0,17.5v-4C0,13.2,0.2,13,0.5,13h4C4.8,13,5,13.2,5,13.5v4C5,17.8,4.8,18,4.5,18z M1,17h3v-3H1
			V17z"/>
	</g>
	<g>
		<path d="M29.5,18h-4c-0.3,0-0.5-0.2-0.5-0.5v-4c0-0.3,0.2-0.5,0.5-0.5h4c0.3,0,0.5,0.2,0.5,0.5v4C30,17.8,29.8,18,29.5,18z M26,17
			h3v-3h-3V17z"/>
	</g>
</g>
</svg>
