<?xml version="1.0" encoding="iso-8859-1"?>
<!-- Generator: Adobe Illustrator 19.0.0, SVG Export Plug-In . SVG Version: 6.00 Build 0)  -->
<svg version="1.1" id="Layer_1" xmlns="http://www.w3.org/2000/svg" xmlns:xlink="http://www.w3.org/1999/xlink" x="0px" y="0px"
	 viewBox="0 0 24 24" style="enable-background:new 0 0 24 24;" xml:space="preserve">
<g>
	<g>
		<path d="M12,23.5c-2.923,0-4.5-5.925-4.5-11.5S9.077,0.5,12,0.5s4.5,5.925,4.5,11.5S14.923,23.5,12,23.5z M12,1.5
			c-1.655,0-3.5,4.312-3.5,10.5s1.845,10.5,3.5,10.5s3.5-4.312,3.5-10.5S13.655,1.5,12,1.5z"/>
	</g>
	<g>
		<path d="M19.002,19.001c-2.427,0-5.886-1.161-9.252-3.104c-2.594-1.497-4.825-3.278-6.283-5.015C1.9,9.016,1.394,7.371,2.041,6.25
			c0.33-0.571,1.11-1.251,2.957-1.251c2.427,0,5.886,1.161,9.252,3.104c2.594,1.497,4.825,3.278,6.283,5.015
			c1.567,1.866,2.073,3.511,1.426,4.632C21.63,18.321,20.85,19.001,19.002,19.001z M4.998,5.999c-1.069,0-1.812,0.267-2.091,0.751
			c-0.409,0.708,0.086,2.013,1.326,3.489c1.385,1.65,3.522,3.352,6.018,4.792c3.221,1.86,6.493,2.97,8.752,2.97
			c1.069,0,1.812-0.267,2.091-0.751c0.409-0.708-0.086-2.013-1.326-3.489c-1.385-1.65-3.522-3.352-6.018-4.792
			C10.529,7.109,7.257,5.999,4.998,5.999z"/>
	</g>
	<g>
		<path d="M4.998,19.001c-1.847,0-2.627-0.68-2.957-1.251c-0.647-1.121-0.141-2.766,1.426-4.632C4.925,11.381,7.156,9.6,9.75,8.103
			c3.366-1.943,6.825-3.104,9.252-3.104c1.847,0,2.627,0.68,2.957,1.251c0.647,1.121,0.141,2.766-1.426,4.632
			c-1.458,1.737-3.689,3.518-6.283,5.015C10.884,17.84,7.425,19.001,4.998,19.001z M19.002,5.999c-2.226,0-5.58,1.138-8.752,2.97
			c-2.495,1.44-4.632,3.142-6.018,4.792c-1.239,1.476-1.735,2.78-1.326,3.489c0.279,0.484,1.022,0.751,2.091,0.751
			c2.226,0,5.58-1.138,8.752-2.97c2.495-1.44,4.632-3.142,6.018-4.792c1.239-1.476,1.735-2.78,1.326-3.489
			C20.814,6.266,20.071,5.999,19.002,5.999z"/>
	</g>
	<circle cx="12" cy="12" r="2.5"/>
	<g>
		<circle cx="14.5" cy="3.5" r="1"/>
	</g>
	<g>
		<circle cx="3" cy="9.5" r="1"/>
	</g>
	<g>
		<circle cx="19" cy="18.5" r="1"/>
	</g>
</g>
<g>
</g>
<g>
</g>
<g>
</g>
<g>
</g>
<g>
</g>
<g>
</g>
<g>
</g>
<g>
</g>
<g>
</g>
<g>
</g>
<g>
</g>
<g>
</g>
<g>
</g>
<g>
</g>
<g>
</g>
</svg>
