<?xml version="1.0" encoding="iso-8859-1"?>
<!-- Generator: Adobe Illustrator 19.0.0, SVG Export Plug-In . SVG Version: 6.00 Build 0)  -->
<svg version="1.1" id="Layer_1" xmlns="http://www.w3.org/2000/svg" xmlns:xlink="http://www.w3.org/1999/xlink" x="0px" y="0px"
	 viewBox="0 0 24 24" style="enable-background:new 0 0 24 24;" xml:space="preserve">
<g>
	<g>
		<path d="M21.854,2.146l-2-2c-0.195-0.195-0.512-0.195-0.707,0L17.5,1.793l-0.646-0.646c-0.195-0.195-0.512-0.195-0.707,0l-8,8
			c-0.195,0.195-0.195,0.512,0,0.707L8.793,10.5l-1.646,1.646c-0.195,0.195-0.195,0.512,0,0.707l2,2C9.244,14.951,9.372,15,9.5,15
			s0.256-0.049,0.354-0.146l1.646-1.646l0.646,0.646C12.244,13.951,12.372,14,12.5,14s0.256-0.049,0.354-0.146l1.318-1.318
			c0.195-0.195,0.195-0.512,0-0.707C13.416,11.073,13,10.068,13,9c0-2.206,1.794-4,4-4c1.068,0,2.073,0.416,2.829,1.171
			c0.195,0.195,0.512,0.195,0.707,0l0.318-0.318c0.195-0.195,0.195-0.512,0-0.707L20.207,4.5l1.646-1.646
			C22.049,2.658,22.049,2.342,21.854,2.146z"/>
	</g>
	<circle cx="17" cy="9" r="3"/>
	<path d="M20.5,20h-0.265C21.379,18.396,22,16.479,22,14.5c0-1.175-0.221-2.331-0.656-3.438c-0.07-0.178-0.236-0.301-0.428-0.315
		c-0.195-0.013-0.375,0.082-0.47,0.248c-0.498,0.858-1.293,1.497-2.241,1.798c-0.245,0.078-0.391,0.329-0.337,0.581
		C17.958,13.797,18,14.155,18,14.5c0,3.033-2.467,5.5-5.5,5.5c-1.493,0-2.775-0.349-3.726-1H11.5c0.276,0,0.5-0.224,0.5-0.5v-2
		c0-0.276-0.224-0.5-0.5-0.5h-9C2.224,16,2,16.224,2,16.5v2C2,18.776,2.224,19,2.5,19h1.24c0.511,1.126,1.269,2.096,2.26,2.887V23.5
		C6,23.776,6.224,24,6.5,24h14c0.276,0,0.5-0.224,0.5-0.5v-3C21,20.224,20.776,20,20.5,20z"/>
</g>
<g>
</g>
<g>
</g>
<g>
</g>
<g>
</g>
<g>
</g>
<g>
</g>
<g>
</g>
<g>
</g>
<g>
</g>
<g>
</g>
<g>
</g>
<g>
</g>
<g>
</g>
<g>
</g>
<g>
</g>
</svg>
