<?xml version="1.0" encoding="iso-8859-1"?>
<!-- Generator: Adobe Illustrator 19.2.1, SVG Export Plug-In . SVG Version: 6.00 Build 0)  -->
<svg version="1.1" id="Layer_1" xmlns="http://www.w3.org/2000/svg" xmlns:xlink="http://www.w3.org/1999/xlink" x="0px" y="0px"
	 viewBox="0 0 30 30" style="enable-background:new 0 0 30 30;" xml:space="preserve">
<g>
	<g>
		<path d="M14.5,26H1V9h7.5C8.776,9,9,8.776,9,8.5V1h12v13.5c0,0.276,0.224,0.5,0.5,0.5s0.5-0.224,0.5-0.5v-14
			C22,0.224,21.776,0,21.5,0h-13C8.433,0,8.368,0.014,8.307,0.039C8.278,0.051,8.256,0.073,8.23,0.09
			C8.202,0.108,8.17,0.122,8.146,0.146l-8,8C0.123,8.169,0.11,8.2,0.092,8.227c-0.018,0.027-0.041,0.05-0.053,0.08
			C0.014,8.368,0,8.433,0,8.5v18C0,26.776,0.224,27,0.5,27h14c0.276,0,0.5-0.224,0.5-0.5S14.776,26,14.5,26z M8,1.707V8H1.707
			L8,1.707z M23,21c0.542,0,1,0.343,1,0.75c0,0.276,0.224,0.5,0.5,0.5s0.5-0.224,0.5-0.5c0-0.965-0.897-1.75-2-1.75s-2,0.785-2,1.75
			v2.5c0,0.965,0.897,1.75,2,1.75s2-0.785,2-1.75c0-0.276-0.224-0.5-0.5-0.5s-0.5,0.224-0.5,0.5c0,0.407-0.458,0.75-1,0.75
			s-1-0.343-1-0.75v-2.5C22,21.343,22.458,21,23,21z M23,16c-3.859,0-7,3.14-7,7s3.141,7,7,7s7-3.14,7-7S26.859,16,23,16z M23,29
			c-3.309,0-6-2.691-6-6s2.691-6,6-6s6,2.691,6,6S26.309,29,23,29z"/>
	</g>
</g>
</svg>
