<?xml version="1.0" encoding="iso-8859-1"?>
<!-- Generator: Adobe Illustrator 19.2.1, SVG Export Plug-In . SVG Version: 6.00 Build 0)  -->
<svg version="1.1" id="Layer_1" xmlns="http://www.w3.org/2000/svg" xmlns:xlink="http://www.w3.org/1999/xlink" x="0px" y="0px"
	 viewBox="0 0 30 30" style="enable-background:new 0 0 30 30;" xml:space="preserve">
<g>
	<g>
		<path d="M15,0.5C7.005,0.5,0.5,7.005,0.5,15S7.005,29.5,15,29.5S29.5,22.995,29.5,15S22.995,0.5,15,0.5z M15,28.5
			C7.556,28.5,1.5,22.444,1.5,15c0-3.542,1.382-6.76,3.621-9.171l5.383,5.383c0,0.013-0.005,0.025-0.005,0.037
			c0,1.847,1.614,3.377,3.727,3.685l0.273,0.273v5.252c-1.692-0.193-3-1.328-3-2.71c0-0.276-0.224-0.5-0.5-0.5s-0.5,0.224-0.5,0.5
			c0,1.925,1.756,3.497,4,3.708V22c0,0.276,0.224,0.5,0.5,0.5s0.5-0.224,0.5-0.5v-0.542c1.456-0.137,2.694-0.845,3.391-1.859
			l5.28,5.28C21.76,27.118,18.542,28.5,15,28.5z M11.552,10.846c0.227-1.195,1.425-2.133,2.948-2.306v5.254L11.552,10.846z
			 M18.178,18.886c-0.485,0.834-1.484,1.438-2.678,1.574v-4.252L18.178,18.886z M15.781,15.075c1.554,0.28,2.719,1.37,2.719,2.675
			c0,0.013-0.005,0.026-0.005,0.039L15.781,15.075z M24.878,24.172l-5.523-5.523c0.086-0.289,0.145-0.587,0.145-0.899
			c0-1.925-1.756-3.497-4-3.708V8.54c1.692,0.193,3,1.328,3,2.71c0,0.276,0.224,0.5,0.5,0.5s0.5-0.224,0.5-0.5
			c0-1.925-1.756-3.497-4-3.708V7c0-0.276-0.224-0.5-0.5-0.5S14.5,6.724,14.5,7v0.542c-1.752,0.164-3.191,1.159-3.743,2.509
			L5.828,5.122C8.239,2.882,11.457,1.5,15,1.5c7.444,0,13.5,6.056,13.5,13.5C28.5,18.543,27.118,21.761,24.878,24.172z"/>
	</g>
</g>
</svg>
