<?xml version="1.0" encoding="utf-8"?>
<!-- Generator: Adobe Illustrator 19.0.0, SVG Export Plug-In . SVG Version: 6.00 Build 0)  -->
<svg version="1.1" id="Layer_1" xmlns="http://www.w3.org/2000/svg" xmlns:xlink="http://www.w3.org/1999/xlink" x="0px" y="0px"
	 viewBox="0 0 30 30" style="enable-background:new 0 0 30 30;" xml:space="preserve">
<g>
	<g>
		<path d="M18.5,27.5c-0.1,0-0.2,0-0.3-0.1l-13-12C5.1,15.3,5,15.1,5,15s0.1-0.3,0.2-0.4l13-12c0.1-0.1,0.4-0.2,0.5-0.1
			C18.9,2.6,19,2.8,19,3v7.5c1.2,0.1,4.2,0.5,6.7,2.9C28.6,16.1,30,20.3,30,26c0,0.2-0.2,0.5-0.4,0.5c-0.3,0-0.5-0.1-0.6-0.4
			c-1.7-6-8.2-6.6-10-6.6V27c0,0.2-0.1,0.4-0.3,0.5C18.6,27.5,18.6,27.5,18.5,27.5z M6.2,15L18,25.9V19c0-0.3,0.2-0.5,0.5-0.5
			c0.1,0,7.2-0.2,10.4,4.9c-0.4-4.1-1.7-7.2-3.8-9.3c-2.9-2.8-6.5-2.6-6.5-2.6c-0.1,0-0.3,0-0.4-0.1C18.1,11.3,18,11.1,18,11V4.1
			L6.2,15z"/>
	</g>
	<g>
		<path d="M13.5,28.5c-0.1,0-0.3,0-0.4-0.1l-13-13c-0.2-0.2-0.2-0.5,0-0.7l13-13c0.2-0.2,0.5-0.2,0.7,0s0.2,0.5,0,0.7L1.2,15
			l12.6,12.6c0.2,0.2,0.2,0.5,0,0.7C13.8,28.5,13.6,28.5,13.5,28.5z"/>
	</g>
</g>
</svg>
