<?xml version="1.0" encoding="iso-8859-1"?>
<!-- Generator: Adobe Illustrator 19.0.0, SVG Export Plug-In . SVG Version: 6.00 Build 0)  -->
<svg version="1.1" id="Layer_1" xmlns="http://www.w3.org/2000/svg" xmlns:xlink="http://www.w3.org/1999/xlink" x="0px" y="0px"
	 viewBox="0 0 24 24" style="enable-background:new 0 0 24 24;" xml:space="preserve">
<g>
	<path d="M7.724,21.053c-0.247-0.122-0.547-0.024-0.671,0.224l-1,2c-0.123,0.247-0.023,0.547,0.224,0.671
		C6.349,23.983,6.425,24,6.5,24c0.183,0,0.359-0.101,0.447-0.276l1-2C8.07,21.477,7.971,21.176,7.724,21.053z"/>
	<path d="M17.724,21.053c-0.246-0.122-0.547-0.024-0.671,0.224l-1,2c-0.123,0.247-0.023,0.547,0.224,0.671
		C16.349,23.983,16.425,24,16.5,24c0.183,0,0.359-0.101,0.447-0.276l1-2C18.07,21.477,17.971,21.176,17.724,21.053z"/>
	<path d="M14.5,2C14.776,2,15,1.776,15,1.5v-1C15,0.224,14.776,0,14.5,0S14,0.224,14,0.5v1C14,1.776,14.224,2,14.5,2z"/>
	<path d="M8.489,4.197c0.098,0.098,0.226,0.146,0.354,0.146s0.256-0.049,0.354-0.146c0.195-0.195,0.195-0.512,0-0.707L8.489,2.783
		c-0.195-0.195-0.512-0.195-0.707,0s-0.195,0.512,0,0.707L8.489,4.197z"/>
	<path d="M22.5,10h1c0.276,0,0.5-0.224,0.5-0.5S23.776,9,23.5,9h-1C22.224,9,22,9.224,22,9.5S22.224,10,22.5,10z"/>
	<path d="M20.157,4.343c0.128,0,0.256-0.049,0.354-0.146l0.707-0.707c0.195-0.195,0.195-0.512,0-0.707s-0.512-0.195-0.707,0
		L19.804,3.49c-0.195,0.195-0.195,0.512,0,0.707C19.901,4.294,20.029,4.343,20.157,4.343z"/>
	<path d="M12.662,4.282c2.021,0.529,3.769,1.778,4.921,3.515c0.102,0.151,0.274,0.232,0.458,0.222
		c0.678-0.056,1.364,0.011,2.067,0.191c0.041,0.011,0.083,0.016,0.124,0.016c0.008,0,0.016,0,0.02,0c0.276,0,0.5-0.224,0.5-0.5
		c0-0.103-0.03-0.198-0.083-0.277C19.785,4.782,17.323,3,14.5,3c-0.565,0-1.229,0.115-1.866,0.322
		c-0.211,0.069-0.351,0.269-0.345,0.49C12.296,4.034,12.447,4.225,12.662,4.282z"/>
	<path d="M7.724,17.053c-0.247-0.121-0.547-0.023-0.671,0.224l-1,2c-0.123,0.247-0.023,0.547,0.224,0.671
		C6.349,19.983,6.425,20,6.5,20c0.183,0,0.359-0.101,0.447-0.276l1-2C8.07,17.477,7.971,17.176,7.724,17.053z"/>
	<path d="M17.724,17.053c-0.246-0.121-0.547-0.023-0.671,0.224l-1,2c-0.123,0.247-0.023,0.547,0.224,0.671
		C16.349,19.983,16.425,20,16.5,20c0.183,0,0.359-0.101,0.447-0.276l1-2C18.07,17.477,17.971,17.176,17.724,17.053z"/>
	<path d="M15.658,13.026l-3-1c-0.146-0.049-0.302-0.028-0.428,0.053c-0.127,0.082-0.211,0.216-0.228,0.366l-0.421,3.787
		l-1.358-0.679c-0.141-0.07-0.305-0.07-0.443-0.002c-0.14,0.068-0.24,0.198-0.271,0.351l-1.5,7.5
		c-0.047,0.234,0.078,0.469,0.299,0.56C8.371,23.988,8.436,24,8.5,24c0.163,0,0.321-0.08,0.416-0.223l2.755-4.133l1.605,0.803
		c0.131,0.065,0.285,0.071,0.42,0.012c0.136-0.058,0.238-0.172,0.281-0.313l2-6.5C16.058,13.387,15.916,13.111,15.658,13.026z"/>
	<path d="M18.5,9c-0.412,0-0.834,0.056-1.278,0.169C15.96,6.623,13.369,5,10.5,5c-3.658,0-6.776,2.655-7.387,6.229
		C1.264,11.826,0,13.536,0,15.5C0,17.981,2.019,20,4.5,20h0.009c0.008,0,0.015,0,0.02,0c0.276,0,0.5-0.224,0.5-0.5
		c0-0.043-0.005-0.085-0.016-0.125c0.014-0.197,0.063-0.38,0.146-0.545l1-2c0.317-0.634,1.064-0.966,1.752-0.77
		c0.134,0.041,0.276,0.021,0.395-0.052c0.119-0.071,0.203-0.188,0.232-0.323c0.098-0.454,0.391-0.83,0.804-1.032
		c0.275-0.136,0.592-0.185,0.897-0.134c0.135,0.022,0.273-0.013,0.383-0.096c0.108-0.083,0.179-0.207,0.194-0.343l0.194-1.746
		c0.05-0.453,0.299-0.853,0.682-1.098c0.378-0.242,0.855-0.302,1.283-0.16l3,1c0.767,0.256,1.197,1.092,0.959,1.865l-0.46,1.495
		c-0.055,0.175-0.008,0.366,0.12,0.497c0.128,0.13,0.314,0.18,0.495,0.13c0.365-0.104,0.75-0.071,1.082,0.095
		c0.358,0.179,0.626,0.487,0.753,0.867c0.126,0.38,0.098,0.787-0.082,1.146l-0.54,1.081c-0.079,0.159-0.068,0.348,0.028,0.497
		c0.097,0.148,0.243,0.237,0.444,0.226C21.704,19.828,24,17.423,24,14.5C24,11.467,21.532,9,18.5,9z"/>
	<path d="M12.724,21.053c-0.247-0.122-0.546-0.024-0.671,0.224l-1,2c-0.123,0.247-0.023,0.547,0.224,0.671
		C11.349,23.983,11.425,24,11.5,24c0.183,0,0.359-0.101,0.447-0.276l1-2C13.07,21.477,12.971,21.176,12.724,21.053z"/>
</g>
<g>
</g>
<g>
</g>
<g>
</g>
<g>
</g>
<g>
</g>
<g>
</g>
<g>
</g>
<g>
</g>
<g>
</g>
<g>
</g>
<g>
</g>
<g>
</g>
<g>
</g>
<g>
</g>
<g>
</g>
</svg>
