<?xml version="1.0" encoding="iso-8859-1"?>
<!-- Generator: Adobe Illustrator 19.0.0, SVG Export Plug-In . SVG Version: 6.00 Build 0)  -->
<svg version="1.1" id="Layer_1" xmlns="http://www.w3.org/2000/svg" xmlns:xlink="http://www.w3.org/1999/xlink" x="0px" y="0px"
	 viewBox="0 0 24 24" style="enable-background:new 0 0 24 24;" xml:space="preserve">
<g>
	<path d="M7.757,15.571c-0.233-0.14-0.543-0.066-0.686,0.171l-3,5c-0.143,0.237-0.065,0.544,0.172,0.686
		C4.323,21.477,4.412,21.5,4.5,21.5c0.169,0,0.335-0.086,0.429-0.243l3-5C8.071,16.021,7.994,15.713,7.757,15.571z"/>
	<path d="M10.757,15.571c-0.234-0.14-0.542-0.066-0.686,0.171l-3,5c-0.143,0.237-0.065,0.544,0.172,0.686
		C7.323,21.477,7.412,21.5,7.5,21.5c0.169,0,0.335-0.086,0.429-0.243l3-5C11.071,16.021,10.994,15.713,10.757,15.571z"/>
	<path d="M13.757,15.571c-0.233-0.14-0.543-0.066-0.686,0.171l-3,5c-0.143,0.237-0.065,0.544,0.172,0.686
		c0.08,0.048,0.169,0.071,0.257,0.071c0.169,0,0.335-0.086,0.429-0.243l3-5C14.071,16.021,13.994,15.713,13.757,15.571z"/>
	<path d="M18.5,6.5c-0.412,0-0.834,0.056-1.278,0.169C15.96,4.123,13.369,2.5,10.5,2.5c-3.658,0-6.776,2.655-7.387,6.229
		C1.264,9.326,0,11.036,0,13c0,2.481,2.019,4.5,4.568,4.5c0.176,0,0.339-0.092,0.429-0.243l1.217-2.029
		c0.411-0.688,1.362-0.933,2.058-0.515c0.12,0.072,0.231,0.169,0.351,0.304c0.095,0.108,0.231,0.169,0.375,0.169h0.001
		c0.145,0,0.281-0.063,0.376-0.171c0.461-0.53,1.289-0.667,1.897-0.302c0.12,0.072,0.231,0.169,0.351,0.304
		c0.095,0.108,0.231,0.169,0.375,0.169c0,0,0.001,0,0.002,0c0.144,0,0.28-0.063,0.375-0.172c0.462-0.529,1.29-0.666,1.897-0.302
		c0.12,0.072,0.231,0.169,0.351,0.304c0.095,0.108,0.231,0.169,0.375,0.169c0,0,0.001,0,0.002,0c0.144,0,0.28-0.063,0.375-0.172
		c0.462-0.529,1.287-0.666,1.898-0.301c0.696,0.418,0.932,1.331,0.523,2.036c-0.09,0.155-0.09,0.345-0.001,0.5
		c0.09,0.155,0.255,0.25,0.434,0.25H18.5c3.032,0,5.5-2.467,5.5-5.5S21.532,6.5,18.5,6.5z"/>
	<path d="M16.757,15.571c-0.234-0.14-0.543-0.066-0.686,0.171l-3,5c-0.143,0.237-0.065,0.544,0.172,0.686
		c0.08,0.048,0.169,0.071,0.257,0.071c0.169,0,0.335-0.086,0.429-0.243l3-5C17.071,16.021,16.994,15.713,16.757,15.571z"/>
</g>
<g>
</g>
<g>
</g>
<g>
</g>
<g>
</g>
<g>
</g>
<g>
</g>
<g>
</g>
<g>
</g>
<g>
</g>
<g>
</g>
<g>
</g>
<g>
</g>
<g>
</g>
<g>
</g>
<g>
</g>
</svg>
