<?xml version="1.0" encoding="iso-8859-1"?>
<!-- Generator: Adobe Illustrator 19.0.0, SVG Export Plug-In . SVG Version: 6.00 Build 0)  -->
<svg version="1.1" id="Layer_1" xmlns="http://www.w3.org/2000/svg" xmlns:xlink="http://www.w3.org/1999/xlink" x="0px" y="0px"
	 viewBox="0 0 24 24" style="enable-background:new 0 0 24 24;" xml:space="preserve">
<g>
	<path d="M6.799,21.25c-0.139-0.239-0.446-0.321-0.683-0.183L6,21.134V21c0-0.276-0.224-0.5-0.5-0.5S5,20.724,5,21v0.134
		l-0.116-0.067c-0.24-0.138-0.545-0.056-0.683,0.183c-0.138,0.239-0.056,0.545,0.183,0.683L4.5,22l-0.116,0.067
		c-0.239,0.138-0.321,0.444-0.183,0.683C4.293,22.91,4.461,23,4.634,23c0.085,0,0.171-0.021,0.25-0.067L5,22.866V23
		c0,0.276,0.224,0.5,0.5,0.5S6,23.276,6,23v-0.134l0.116,0.067C6.195,22.979,6.281,23,6.366,23c0.173,0,0.341-0.09,0.434-0.25
		c0.138-0.239,0.056-0.545-0.183-0.683L6.5,22l0.116-0.067C6.855,21.795,6.937,21.489,6.799,21.25z"/>
	<path d="M10.799,21.25c-0.139-0.239-0.445-0.321-0.683-0.183L10,21.134V21c0-0.276-0.224-0.5-0.5-0.5S9,20.724,9,21v0.134
		l-0.116-0.067c-0.239-0.138-0.545-0.056-0.683,0.183c-0.138,0.239-0.056,0.545,0.183,0.683L8.5,22l-0.116,0.067
		c-0.239,0.138-0.321,0.444-0.183,0.683C8.293,22.91,8.461,23,8.634,23c0.085,0,0.171-0.021,0.25-0.067L9,22.866V23
		c0,0.276,0.224,0.5,0.5,0.5S10,23.276,10,23v-0.134l0.116,0.067C10.195,22.979,10.281,23,10.366,23c0.173,0,0.341-0.09,0.434-0.25
		c0.138-0.239,0.056-0.545-0.183-0.683L10.5,22l0.116-0.067C10.855,21.795,10.937,21.489,10.799,21.25z"/>
	<path d="M14.577,1.877c2.189,0.81,3.715,2.844,3.887,5.183c0.018,0.249,0.217,0.446,0.466,0.462
		c1.552,0.102,3.017,0.758,4.124,1.848c0.095,0.093,0.222,0.144,0.351,0.144c0.054,0,0.107-0.009,0.16-0.026
		c0.179-0.061,0.308-0.216,0.335-0.403C23.967,8.609,24,8.091,24,7.5c0-3.86-3.14-7-7-7c-0.819,0-1.634,0.148-2.423,0.439
		c-0.196,0.073-0.327,0.26-0.327,0.469S14.38,1.805,14.577,1.877z"/>
	<path d="M14.799,21.25c-0.139-0.239-0.445-0.321-0.683-0.183L14,21.134V21c0-0.276-0.224-0.5-0.5-0.5S13,20.724,13,21v0.134
		l-0.116-0.067c-0.239-0.138-0.545-0.056-0.683,0.183c-0.138,0.239-0.056,0.545,0.183,0.683L12.5,22l-0.116,0.067
		c-0.239,0.138-0.321,0.444-0.183,0.683c0.093,0.16,0.261,0.25,0.434,0.25c0.085,0,0.171-0.021,0.25-0.067L13,22.866V23
		c0,0.276,0.224,0.5,0.5,0.5S14,23.276,14,23v-0.134l0.116,0.067C14.195,22.979,14.281,23,14.366,23c0.173,0,0.341-0.09,0.434-0.25
		c0.138-0.239,0.056-0.545-0.183-0.683L14.5,22l0.116-0.067C14.855,21.795,14.937,21.489,14.799,21.25z"/>
	<path d="M8.366,20c0.173,0,0.341-0.09,0.434-0.25c0.138-0.239,0.056-0.545-0.183-0.683L8.5,19l0.116-0.067
		c0.239-0.138,0.321-0.444,0.183-0.683c-0.139-0.239-0.445-0.322-0.683-0.183L8,18.134V18c0-0.276-0.224-0.5-0.5-0.5S7,17.724,7,18
		v0.134l-0.116-0.067c-0.24-0.139-0.545-0.056-0.683,0.183c-0.138,0.239-0.056,0.545,0.183,0.683L6.5,19l-0.116,0.067
		c-0.239,0.138-0.321,0.444-0.183,0.683C6.293,19.91,6.461,20,6.634,20c0.085,0,0.171-0.021,0.25-0.067L7,19.866V20
		c0,0.276,0.224,0.5,0.5,0.5S8,20.276,8,20v-0.134l0.116,0.067C8.195,19.979,8.281,20,8.366,20z"/>
	<path d="M12.366,20c0.173,0,0.341-0.09,0.434-0.25c0.138-0.239,0.056-0.545-0.183-0.683L12.5,19l0.116-0.067
		c0.239-0.138,0.321-0.444,0.183-0.683c-0.139-0.239-0.445-0.322-0.683-0.183L12,18.134V18c0-0.276-0.224-0.5-0.5-0.5
		S11,17.724,11,18v0.134l-0.116-0.067c-0.239-0.139-0.545-0.056-0.683,0.183c-0.138,0.239-0.056,0.545,0.183,0.683L10.5,19
		l-0.116,0.067c-0.239,0.138-0.321,0.444-0.183,0.683c0.093,0.16,0.261,0.25,0.434,0.25c0.085,0,0.171-0.021,0.25-0.067L11,19.866
		V20c0,0.276,0.224,0.5,0.5,0.5S12,20.276,12,20v-0.134l0.116,0.067C12.195,19.979,12.281,20,12.366,20z"/>
	<path d="M18.5,8.5c-0.413,0-0.834,0.056-1.278,0.169C15.96,6.123,13.369,4.5,10.5,4.5c-3.658,0-6.776,2.655-7.387,6.229
		C1.264,11.326,0,13.036,0,15c0,2.481,2.019,4.5,4.5,4.5h0.199c0.003,0,0.007,0,0.01,0c0.3,0.015,0.51-0.22,0.51-0.5
		c0-0.086-0.022-0.168-0.061-0.239c-0.062-0.349-0.001-0.703,0.177-1.011c0.197-0.342,0.517-0.589,0.899-0.695
		c0.082-0.022,0.156-0.065,0.217-0.125c0.566-0.555,1.531-0.555,2.098,0c0.061,0.06,0.135,0.102,0.216,0.125
		c0.153,0.042,0.305,0.115,0.451,0.216c0.171,0.118,0.396,0.118,0.567,0c0.146-0.101,0.298-0.173,0.45-0.215
		c0.082-0.022,0.156-0.065,0.217-0.125c0.566-0.555,1.531-0.556,2.098,0c0.061,0.06,0.135,0.102,0.216,0.125
		c0.154,0.042,0.305,0.115,0.451,0.215c0.171,0.118,0.397,0.118,0.568,0c0.146-0.1,0.297-0.173,0.451-0.215
		c0.082-0.023,0.156-0.065,0.216-0.125c0.567-0.555,1.532-0.555,2.098,0c0.061,0.059,0.135,0.102,0.216,0.125
		c0.383,0.106,0.702,0.353,0.899,0.694c0.197,0.341,0.251,0.741,0.152,1.125c-0.039,0.15-0.006,0.309,0.088,0.431
		s0.241,0.194,0.396,0.194H18.5c3.033,0,5.5-2.467,5.5-5.5S21.533,8.5,18.5,8.5z"/>
	<path d="M16.799,18.25c-0.139-0.239-0.446-0.322-0.683-0.183L16,18.134V18c0-0.276-0.224-0.5-0.5-0.5S15,17.724,15,18v0.134
		l-0.116-0.067c-0.239-0.139-0.545-0.056-0.683,0.183c-0.138,0.239-0.056,0.545,0.183,0.683L14.5,19l-0.116,0.067
		c-0.239,0.138-0.321,0.444-0.183,0.683c0.093,0.16,0.261,0.25,0.434,0.25c0.085,0,0.171-0.021,0.25-0.067L15,19.866V20
		c0,0.276,0.224,0.5,0.5,0.5S16,20.276,16,20v-0.134l0.116,0.067C16.195,19.979,16.281,20,16.366,20c0.173,0,0.341-0.09,0.434-0.25
		c0.138-0.239,0.056-0.545-0.183-0.683L16.5,19l0.116-0.067C16.855,18.795,16.937,18.489,16.799,18.25z"/>
</g>
<g>
</g>
<g>
</g>
<g>
</g>
<g>
</g>
<g>
</g>
<g>
</g>
<g>
</g>
<g>
</g>
<g>
</g>
<g>
</g>
<g>
</g>
<g>
</g>
<g>
</g>
<g>
</g>
<g>
</g>
</svg>
