<?xml version="1.0" encoding="iso-8859-1"?>
<!-- Generator: Adobe Illustrator 19.2.1, SVG Export Plug-In . SVG Version: 6.00 Build 0)  -->
<svg version="1.1" id="Layer_1" xmlns="http://www.w3.org/2000/svg" xmlns:xlink="http://www.w3.org/1999/xlink" x="0px" y="0px"
	 viewBox="0 0 30 30" style="enable-background:new 0 0 30 30;" xml:space="preserve">
<g>
	<g>
		<path d="M26.978,1.5H3.022C1.355,1.5,0,2.835,0,4.476v21.048C0,27.165,1.355,28.5,3.022,28.5h23.956
			c1.667,0,3.022-1.335,3.022-2.976V4.476C30,2.835,28.645,1.5,26.978,1.5z M29,25.524c0,1.09-0.907,1.976-2.022,1.976H3.022
			C1.907,27.5,1,26.614,1,25.524V6.5h28V25.524z M29,5.5H1V4.476C1,3.386,1.907,2.5,3.022,2.5h23.956C28.093,2.5,29,3.386,29,4.476
			V5.5z M18.066,18.248c0.089,0.156,0.255,0.252,0.434,0.252h4c0.178,0,0.343-0.095,0.433-0.249
			c0.089-0.154,0.089-0.344,0.001-0.499l-4-7C18.845,10.596,18.679,10.5,18.5,10.5h-4c-0.179,0-0.343,0.095-0.433,0.249
			c-0.089,0.154-0.089,0.344-0.001,0.499L18.066,18.248z M18.21,11.5l3.428,6H18.79l-3.428-6H18.21z M22.5,19.501h-8
			c-0.189,0-0.362,0.107-0.447,0.276l-2,4c-0.078,0.154-0.069,0.339,0.022,0.486C12.166,24.41,12.327,24.5,12.5,24.5h8
			c0.189,0,0.362-0.107,0.447-0.276l2-4c0.078-0.154,0.069-0.339-0.022-0.486C22.834,19.591,22.673,19.501,22.5,19.501z
			 M20.191,23.5h-6.882l1.5-3h6.882L20.191,23.5z M9.608,24.244c0.089,0.158,0.256,0.256,0.437,0.256h0.006
			c0.183-0.003,0.351-0.105,0.436-0.267l4.455-8.45c0.079-0.15,0.077-0.33-0.006-0.478l-2.545-4.55
			c-0.09-0.16-0.214-0.276-0.443-0.256c-0.183,0.003-0.351,0.105-0.436,0.267l-4.455,8.45c-0.079,0.15-0.077,0.33,0.006,0.478
			L9.608,24.244z M11.968,12.047l1.963,3.51l-3.899,7.396l-1.963-3.51L11.968,12.047z M6.5,3.5C6.224,3.5,6,3.724,6,4
			s0.224,0.5,0.5,0.5C6.776,4.5,7,4.276,7,4S6.776,3.5,6.5,3.5z M9.5,3.5C9.224,3.5,9,3.724,9,4s0.224,0.5,0.5,0.5
			C9.776,4.5,10,4.276,10,4S9.776,3.5,9.5,3.5z M3.5,3.5C3.224,3.5,3,3.724,3,4s0.224,0.5,0.5,0.5C3.776,4.5,4,4.276,4,4
			S3.776,3.5,3.5,3.5z"/>
	</g>
</g>
</svg>
