<?xml version="1.0" encoding="iso-8859-1"?>
<!-- Generator: Adobe Illustrator 19.2.1, SVG Export Plug-In . SVG Version: 6.00 Build 0)  -->
<svg version="1.1" id="Layer_1" xmlns="http://www.w3.org/2000/svg" xmlns:xlink="http://www.w3.org/1999/xlink" x="0px" y="0px"
	 viewBox="0 0 30 30" style="enable-background:new 0 0 30 30;" xml:space="preserve">
<g>
	<g>
		<path d="M9.5,2C9.224,2,9,2.224,9,2.5S9.224,3,9.5,3C9.777,3,10,2.777,10,2.5S9.777,2,9.5,2z M3.5,2C3.224,2,3,2.224,3,2.5
			S3.224,3,3.5,3C3.777,3,4,2.777,4,2.5S3.777,2,3.5,2z M6.5,2C6.224,2,6,2.224,6,2.5S6.224,3,6.5,3C6.777,3,7,2.777,7,2.5
			S6.777,2,6.5,2z M13.5,26.001H2.977C1.887,26.001,1,25.115,1,24.024V5h25.001v8.5c0,0.276,0.224,0.5,0.5,0.5s0.5-0.224,0.5-0.5
			V2.977C27.001,1.334,25.666,0,24.024,0H2.977C1.335,0,0,1.334,0,2.977v21.047C0,25.665,1.335,27,2.977,27H13.5
			c0.276,0,0.5-0.223,0.5-0.499S13.776,26.001,13.5,26.001z M1,2.977C1,1.887,1.887,1,2.977,1h21.047
			c1.09,0,1.977,0.887,1.977,1.977V4H1V2.977z M29.853,18.146l-3-3c-0.195-0.195-0.512-0.195-0.707,0l-11,11
			C15.053,26.24,15,26.367,15,26.5v3c0,0.276,0.224,0.5,0.5,0.5h3c0.133,0,0.26-0.053,0.353-0.147l7.997-7.997
			c0.001-0.001,0.002-0.001,0.003-0.002s0.001-0.002,0.002-0.003l2.998-2.998C30.048,18.658,30.048,18.341,29.853,18.146z
			 M18.293,29H16v-2.293l7.5-7.5l2.293,2.293L18.293,29z M26.5,20.794l-2.293-2.293l2.293-2.293l2.293,2.293L26.5,20.794z"/>
	</g>
</g>
</svg>
