<?xml version="1.0" encoding="iso-8859-1"?>
<!-- Generator: Adobe Illustrator 19.2.1, SVG Export Plug-In . SVG Version: 6.00 Build 0)  -->
<svg version="1.1" id="Layer_1" xmlns="http://www.w3.org/2000/svg" xmlns:xlink="http://www.w3.org/1999/xlink" x="0px" y="0px"
	 viewBox="0 0 30 30" style="enable-background:new 0 0 30 30;" xml:space="preserve">
<g>
	<g>
		<path d="M12.54,19.752l-0.537,5.197c-0.015,0.14,0.031,0.281,0.126,0.386C12.224,25.44,12.358,25.5,12.5,25.5h5.071
			c0.143,0,0.279-0.061,0.375-0.167c0.095-0.106,0.14-0.248,0.123-0.39l-0.603-5.193c1.573-0.881,2.535-2.496,2.535-4.295
			c0-2.732-2.243-4.955-5-4.955c-2.757,0-5,2.223-5,4.955C10.001,17.255,10.965,18.871,12.54,19.752z M15,11.5
			c2.206,0,4,1.774,4,3.955c0,1.528-0.875,2.891-2.285,3.556c-0.194,0.092-0.308,0.297-0.283,0.51L17.01,24.5h-3.956l0.515-4.985
			c0.022-0.211-0.092-0.412-0.284-0.503C11.875,18.346,11,16.983,11,15.455C11,13.274,12.794,11.5,15,11.5z M26.978,1.5H3.022
			C1.355,1.5,0,2.835,0,4.476v21.048C0,27.165,1.355,28.5,3.022,28.5h23.956c1.667,0,3.022-1.335,3.022-2.976V4.476
			C30,2.835,28.645,1.5,26.978,1.5z M29,25.524c0,1.09-0.907,1.976-2.022,1.976H3.022C1.907,27.5,1,26.614,1,25.524V6.5h28V25.524z
			 M29,5.5H1V4.476C1,3.386,1.907,2.5,3.022,2.5h23.956C28.093,2.5,29,3.386,29,4.476V5.5z M3.5,3.5C3.224,3.5,3,3.724,3,4
			s0.224,0.5,0.5,0.5C3.776,4.5,4,4.276,4,4S3.776,3.5,3.5,3.5z M6.5,3.5C6.224,3.5,6,3.724,6,4s0.224,0.5,0.5,0.5
			C6.776,4.5,7,4.276,7,4S6.776,3.5,6.5,3.5z M9.5,3.5C9.224,3.5,9,3.724,9,4s0.224,0.5,0.5,0.5C9.776,4.5,10,4.276,10,4
			S9.776,3.5,9.5,3.5z"/>
	</g>
</g>
</svg>
