<?xml version="1.0" encoding="iso-8859-1"?>
<!-- Generator: Adobe Illustrator 19.2.1, SVG Export Plug-In . SVG Version: 6.00 Build 0)  -->
<svg version="1.1" id="Layer_1" xmlns="http://www.w3.org/2000/svg" xmlns:xlink="http://www.w3.org/1999/xlink" x="0px" y="0px"
	 viewBox="0 0 30 30" style="enable-background:new 0 0 30 30;" xml:space="preserve">
<g>
	<g>
		<path d="M6.5,2C6.224,2,6,2.224,6,2.5S6.224,3,6.5,3C6.776,3,7,2.777,7,2.5S6.776,2,6.5,2z M3.5,2C3.224,2,3,2.224,3,2.5
			S3.224,3,3.5,3C3.776,3,4,2.777,4,2.5S3.776,2,3.5,2z M9.5,2C9.224,2,9,2.224,9,2.5S9.224,3,9.5,3C9.776,3,10,2.777,10,2.5
			S9.776,2,9.5,2z M30,23.5c0-2.481-1.839-4.5-4.1-4.5c-0.276,0-0.5,0.224-0.5,0.5s0.224,0.5,0.5,0.5c1.709,0,3.1,1.57,3.1,3.5
			S27.609,27,25.9,27h-1.193l1.146-1.146c0.195-0.195,0.195-0.512,0-0.707c-0.195-0.195-0.512-0.195-0.707,0l-2,2
			c-0.004,0.004-0.005,0.01-0.01,0.014c-0.04,0.043-0.075,0.092-0.098,0.147c-0.051,0.123-0.051,0.261,0,0.384
			c0.014,0.033,0.038,0.058,0.058,0.087c0.017,0.025,0.027,0.052,0.049,0.074l2,2C25.244,29.951,25.372,30,25.5,30
			s0.256-0.049,0.353-0.147c0.195-0.195,0.195-0.512,0-0.707L24.707,28H25.9C28.161,28,30,25.981,30,23.5z M14.5,26.001H2.976
			C1.886,26.001,1,25.115,1,24.024V5h25v10.5c0,0.276,0.224,0.5,0.5,0.5s0.5-0.224,0.5-0.5V2.977C27,1.336,25.665,0,24.024,0H2.976
			C1.335,0,0,1.334,0,2.977v21.047C0,25.665,1.335,27,2.976,27H14.5c0.276,0,0.5-0.223,0.5-0.499S14.776,26.001,14.5,26.001z
			 M1,2.977C1,1.887,1.886,1,2.976,1h21.048C25.114,1,26,1.887,26,2.977V4H1V2.977z M22.962,19.313
			c-0.026-0.065-0.065-0.122-0.115-0.17l-1.994-1.994c-0.195-0.195-0.512-0.195-0.707,0s-0.195,0.512,0,0.707L21.291,19H20.1
			c-2.261,0-4.1,2.019-4.1,4.5c0,2.481,1.839,4.5,4.1,4.5c0.276,0,0.5-0.224,0.5-0.5S20.376,27,20.1,27c-1.709,0-3.1-1.57-3.1-3.5
			s1.391-3.5,3.1-3.5h1.193l-1.147,1.147c-0.195,0.195-0.195,0.512,0,0.707C20.244,21.951,20.372,22,20.5,22
			s0.256-0.049,0.353-0.145l2-2c0.014-0.014,0.019-0.032,0.031-0.046c0.029-0.036,0.059-0.073,0.077-0.117
			c0.018-0.043,0.022-0.089,0.027-0.134C22.991,19.538,23,19.521,23,19.5c0-0.047-0.015-0.089-0.027-0.132
			C22.968,19.35,22.969,19.331,22.962,19.313z"/>
	</g>
</g>
</svg>
