<?xml version="1.0" encoding="iso-8859-1"?>
<!-- Generator: Adobe Illustrator 19.2.1, SVG Export Plug-In . SVG Version: 6.00 Build 0)  -->
<svg version="1.1" id="Layer_1" xmlns="http://www.w3.org/2000/svg" xmlns:xlink="http://www.w3.org/1999/xlink" x="0px" y="0px"
	 viewBox="0 0 30 30" style="enable-background:new 0 0 30 30;" xml:space="preserve">
<g>
	<g>
		<path d="M25.346,22.024l-4.378,1.423c-0.148-1.562-1.039-2.481-2.859-2.936L7.365,18.069c0.057-0.368,0.105-0.719,0.132-1.026
			c0.013-0.152-0.043-0.302-0.154-0.407c-1.06-1.004-5.845-1.537-6.793-1.634c-0.141-0.015-0.281,0.031-0.386,0.126
			C0.06,15.223,0,15.357,0,15.499v12c0,0.276,0.224,0.5,0.5,0.5h4c0.22,0,0.414-0.144,0.478-0.354
			c0.019-0.064,0.137-0.452,0.306-1.033l8.915,2.775c1.03,0.389,1.743,0.614,2.545,0.614c1.253,0,2.723-0.549,5.963-1.876l7-3.17
			c0.124-0.056,0.22-0.16,0.265-0.288c0.045-0.128,0.037-0.269-0.024-0.391C29.085,22.551,27.119,21.582,25.346,22.024z
			 M4.128,26.999H1V16.056c2.01,0.237,4.631,0.699,5.474,1.177C6.154,20.06,4.557,25.555,4.128,26.999z M22.311,27.207
			c-5.181,2.123-5.476,2.109-7.787,1.235L5.561,25.65c0.507-1.787,1.219-4.44,1.633-6.595l10.684,2.428
			c1.473,0.368,2.065,0.986,2.117,2.25l-1.299,0.325c-0.466,0.116-0.96,0.126-1.426,0.034l-5.423-1.085
			c-0.272-0.055-0.534,0.122-0.588,0.393s0.121,0.534,0.392,0.588l5.424,1.085c0.273,0.055,0.552,0.081,0.831,0.081
			c0.348,0,0.696-0.042,1.033-0.126l1.682-0.421c0.005-0.001,0.008-0.004,0.013-0.006c0.007-0.002,0.014,0,0.021-0.002l4.967-1.615
			c1.141-0.292,2.422,0.259,3.161,1.291L22.311,27.207z M14.5,1.999c-0.276,0-0.5,0.224-0.5,0.5c0,0.276,0.224,0.5,0.5,0.5
			s0.5-0.224,0.5-0.5C15,2.223,14.776,1.999,14.5,1.999z M27-0.001H12c-1.654,0-3,1.329-3,2.962v11.076c0,1.633,1.346,2.962,3,2.962
			h15c1.654,0,3-1.329,3-2.962V2.961C30,1.328,28.654-0.001,27-0.001z M29,14.037c0,1.082-0.897,1.962-2,1.962H12
			c-1.103,0-2-0.88-2-1.962V4.999h19V14.037z M29,3.999H10V2.961c0-1.082,0.897-1.962,2-1.962h15c1.103,0,2,0.88,2,1.962V3.999z
			 M12.5,1.999c-0.276,0-0.5,0.224-0.5,0.5c0,0.276,0.224,0.5,0.5,0.5s0.5-0.224,0.5-0.5C13,2.223,12.776,1.999,12.5,1.999z
			 M16.5,1.999c-0.276,0-0.5,0.224-0.5,0.5c0,0.276,0.224,0.5,0.5,0.5s0.5-0.224,0.5-0.5C17,2.223,16.776,1.999,16.5,1.999z"/>
	</g>
</g>
</svg>
