<?xml version="1.0" encoding="iso-8859-1"?>
<!-- Generator: Adobe Illustrator 19.2.1, SVG Export Plug-In . SVG Version: 6.00 Build 0)  -->
<svg version="1.1" id="Layer_1" xmlns="http://www.w3.org/2000/svg" xmlns:xlink="http://www.w3.org/1999/xlink" x="0px" y="0px"
	 viewBox="0 0 30 30" style="enable-background:new 0 0 30 30;" xml:space="preserve">
<g>
	<g>
		<path d="M7,3C6.724,3,6.5,3.223,6.5,3.5S6.724,4,7,4s0.5-0.224,0.5-0.5S7.277,3,7,3z M23.5,22.5v-11c0-0.276-0.224-0.5-0.5-0.5H7
			c-0.276,0-0.5,0.224-0.5,0.5v11C6.5,22.776,6.724,23,7,23h16C23.276,23,23.5,22.776,23.5,22.5z M22.5,22h-15V12h15V22z M16.716,25
			h-3.429c-0.276,0-0.5,0.224-0.5,0.5s0.224,0.5,0.5,0.5h3.429c0.276,0,0.5-0.224,0.5-0.5S16.992,25,16.716,25z M26.565,1H3.435
			C1.815,1,0.5,2.379,0.5,4.072v21.857C0.5,27.622,1.817,29,3.435,29h23.131c1.619,0,2.935-1.378,2.935-3.071V4.072
			C29.5,2.379,28.183,1,26.565,1z M1.5,12h2v10h-2V12z M28.501,8H27c-0.276,0-0.5,0.224-0.5,0.5S26.724,9,27,9h1.501v2H26
			c-0.276,0-0.5,0.224-0.5,0.5v11c0,0.276,0.224,0.5,0.5,0.5h2.501v2H27c-0.276,0-0.5,0.224-0.5,0.5S26.724,26,27,26h1.494
			c-0.036,1.108-0.885,1.999-1.928,1.999H3.435c-1.044,0-1.892-0.891-1.928-1.999H3c0.276,0,0.5-0.224,0.5-0.5S3.276,25,3,25H1.5v-2
			H4c0.276,0,0.5-0.224,0.5-0.5v-11C4.5,11.224,4.276,11,4,11H1.5V9H3c0.276,0,0.5-0.224,0.5-0.5S3.276,8,3,8H1.5V6h27.001V8z
			 M28.5,12v10h-2V12H28.5z M28.501,5H1.5V4.07C1.5,2.929,2.37,2,3.435,2h23.131c1.067,0,1.935,0.929,1.935,2.071V5z M20.143,9
			h3.429c0.277,0,0.5-0.224,0.5-0.5S23.847,8,23.571,8h-3.429c-0.276,0-0.5,0.224-0.5,0.5S19.867,9,20.143,9z M23.571,25h-3.429
			c-0.276,0-0.5,0.224-0.5,0.5s0.224,0.5,0.5,0.5h3.429c0.277,0,0.5-0.224,0.5-0.5S23.847,25,23.571,25z M4,3
			C3.724,3,3.5,3.223,3.5,3.5S3.724,4,4,4s0.5-0.224,0.5-0.5S4.277,3,4,3z M10,3C9.724,3,9.5,3.223,9.5,3.5S9.724,4,10,4
			s0.5-0.224,0.5-0.5S10.277,3,10,3z M13.286,9h3.429c0.276,0,0.5-0.224,0.5-0.5S16.992,8,16.716,8h-3.429
			c-0.276,0-0.5,0.224-0.5,0.5S13.01,9,13.286,9z M6.428,9h3.429c0.277,0,0.5-0.224,0.5-0.5S10.133,8,9.857,8H6.428
			c-0.276,0-0.5,0.224-0.5,0.5S6.152,9,6.428,9z M6.428,26h3.429c0.277,0,0.5-0.224,0.5-0.5s-0.224-0.5-0.5-0.5H6.428
			c-0.276,0-0.5,0.224-0.5,0.5S6.152,26,6.428,26z"/>
	</g>
</g>
</svg>
