<?xml version="1.0" encoding="utf-8"?>
<!-- Generator: Adobe Illustrator 19.0.0, SVG Export Plug-In . SVG Version: 6.00 Build 0)  -->
<svg version="1.1" id="Layer_1" xmlns="http://www.w3.org/2000/svg" xmlns:xlink="http://www.w3.org/1999/xlink" x="0px" y="0px"
	 viewBox="0 0 30 30" style="enable-background:new 0 0 30 30;" xml:space="preserve">
<g id="XMLID_47_">
	<g id="XMLID_52_">
		<path d="M22,8H8C7.7,8,7.5,7.8,7.5,7.5C7.5,3.7,10.7,1,15,1s7.5,2.7,7.5,6.5C22.5,7.8,22.3,8,22,8z M8.5,7h13C21.2,3.6,18,2,15,2
			C11.9,2,8.8,3.7,8.5,7z"/>
	</g>
	<g id="XMLID_51_">
		<path d="M12,5c-0.3,0-0.5-0.2-0.5-0.5S11.7,4,12,4h0c0.3,0,0.5,0.2,0.5,0.5S12.3,5,12,5z"/>
	</g>
	<g id="XMLID_50_">
		<path d="M18,5c-0.3,0-0.5-0.2-0.5-0.5S17.7,4,18,4h0c0.3,0,0.5,0.2,0.5,0.5S18.3,5,18,5z"/>
	</g>
	<g id="XMLID_49_">
		<path d="M11,3c-0.1,0-0.3,0-0.4-0.1l-2-2c-0.2-0.2-0.2-0.5,0-0.7s0.5-0.2,0.7,0l2,2c0.2,0.2,0.2,0.5,0,0.7C11.3,3,11.1,3,11,3z"/>
	</g>
	<g id="XMLID_48_">
		<path d="M19,3c-0.1,0-0.3,0-0.4-0.1c-0.2-0.2-0.2-0.5,0-0.7l2-2c0.2-0.2,0.5-0.2,0.7,0s0.2,0.5,0,0.7l-2,2C19.3,3,19.1,3,19,3z"/>
	</g>
	<g>
		<path d="M18.5,30c-1.1,0-2-0.9-2-2v-5h-3v5c0,1.1-0.9,2-2,2s-2-0.9-2-2v-5.1c-1.1-0.2-2-1.2-2-2.4v-10C7.5,10.2,7.7,10,8,10h14
			c0.3,0,0.5,0.2,0.5,0.5v10c0,1.2-0.9,2.2-2,2.4V28C20.5,29.1,19.6,30,18.5,30z M13,22h4c0.3,0,0.5,0.2,0.5,0.5V28c0,0.6,0.4,1,1,1
			s1-0.4,1-1v-5.5c0-0.3,0.2-0.5,0.5-0.5c0.8,0,1.5-0.7,1.5-1.5V11h-13v9.5c0,0.8,0.7,1.5,1.5,1.5c0.3,0,0.5,0.2,0.5,0.5V28
			c0,0.6,0.4,1,1,1s1-0.4,1-1v-5.5C12.5,22.2,12.7,22,13,22z"/>
	</g>
	<g>
		<path d="M4,22c-0.8,0-1.5-0.7-1.5-1.5v-9C2.5,10.7,3.2,10,4,10s1.5,0.7,1.5,1.5v9C5.5,21.3,4.8,22,4,22z M4,11
			c-0.3,0-0.5,0.2-0.5,0.5v9C3.5,20.8,3.7,21,4,21s0.5-0.2,0.5-0.5v-9C4.5,11.2,4.3,11,4,11z"/>
	</g>
	<g>
		<path d="M26,22c-0.8,0-1.5-0.7-1.5-1.5v-9c0-0.8,0.7-1.5,1.5-1.5s1.5,0.7,1.5,1.5v9C27.5,21.3,26.8,22,26,22z M26,11
			c-0.3,0-0.5,0.2-0.5,0.5v9c0,0.3,0.2,0.5,0.5,0.5s0.5-0.2,0.5-0.5v-9C26.5,11.2,26.3,11,26,11z"/>
	</g>
</g>
</svg>
