<?xml version="1.0" encoding="utf-8"?>
<!-- Generator: Adobe Illustrator 19.0.0, SVG Export Plug-In . SVG Version: 6.00 Build 0)  -->
<svg version="1.1" id="Layer_1" xmlns="http://www.w3.org/2000/svg" xmlns:xlink="http://www.w3.org/1999/xlink" x="0px" y="0px"
	 viewBox="0 0 30 30" style="enable-background:new 0 0 30 30;" xml:space="preserve">
<g>
	<g>
		<path d="M7.3,23c-0.2,0-0.4-0.1-0.6-0.2l-1.7-1c-0.5-0.3-0.7-1-0.4-1.6l6-11.7c0.2-0.3,0.4-0.5,0.7-0.6C11.7,8,12,8,12.3,8.2
			l1.7,1c0.5,0.3,0.7,1,0.4,1.6l-6,11.7c-0.2,0.3-0.4,0.5-0.7,0.6C7.5,23,7.4,23,7.3,23z M11.7,9C11.7,9,11.7,9,11.7,9
			c-0.1,0-0.1,0-0.1,0.1l-6,11.7c-0.1,0.1,0,0.2,0,0.2l1.7,1c0,0,0.1,0,0.1,0c0,0,0.1,0,0.1-0.1l6-11.7c0,0,0,0,0,0
			c0-0.1,0-0.2-0.1-0.2L11.7,9C11.7,9,11.7,9,11.7,9z"/>
	</g>
	<g>
		<path d="M3.3,27c-0.2,0-0.3-0.1-0.4-0.1c-0.1-0.1-0.4-0.3-0.3-0.8L3,23.8c0-0.3,0.2-0.6,0.5-0.7C3.7,23,4,23,4.3,23.1l1.7,1l0,0
			c0.3,0.2,0.5,0.4,0.5,0.8c0,0.3-0.1,0.6-0.4,0.8l-2.3,1.2C3.6,27,3.4,27,3.3,27z M3.9,24.1l-0.3,1.7l1.8-0.9L3.9,24.1z"/>
	</g>
	<g>
		<path d="M23.3,24c-0.2,0-0.5-0.1-0.9-0.2c-1.1-0.6-9-19.9-9-22c0-0.4,0.2-0.6,0.4-0.7C13.9,1,14.1,1,14.2,1
			C15,1.3,17,4.5,24.4,19.6c0.5,1,0.8,1.7,0.9,1.9l0,0c0.2,0.4,0.2,0.7,0.1,1.1c-0.2,0.6-0.8,1-1.2,1.2l-0.1,0.1
			C23.9,23.9,23.6,24,23.3,24z M23,22.9c0.3,0.2,0.4,0.1,0.8,0l0.1-0.1c0.2-0.1,0.5-0.3,0.6-0.6c0-0.1,0-0.2,0-0.3
			c-0.1-0.2-0.4-0.9-0.9-1.9C19,10.9,16.1,5.2,14.7,3C16,7.5,22,21.7,23,22.9z"/>
	</g>
	<g>
		<path d="M28,29c-0.2,0-0.4-0.1-0.5-0.4c0-0.1-0.5-0.3-0.8-0.5c-0.6-0.3-1.3-0.6-1.8-1.3c-0.6-0.9-0.6-1.7,0.2-2.4
			c0,0,0.1-0.1,0.1-0.1c0.8-0.5,1.5-0.5,2.1-0.2c1.4,0.9,1.2,3.9,1.2,4.3C28.5,28.8,28.3,29,28,29C28,29,28,29,28,29z M25.8,25.2
			c-0.2,0.2-0.5,0.5,0,1.1c0.3,0.4,0.9,0.7,1.4,0.9c0.1,0.1,0.2,0.1,0.4,0.2c0-1-0.3-2.1-0.7-2.4C26.6,24.9,26.2,25,25.8,25.2z"/>
	</g>
	<g>
		<path d="M18,19h-6c-0.2,0-0.3-0.1-0.4-0.2s-0.1-0.3,0-0.5l3-6c0.2-0.3,0.7-0.3,0.9,0l3,6c0.1,0.2,0.1,0.3,0,0.5S18.2,19,18,19z
			 M12.8,18h4.4L15,13.6L12.8,18z"/>
	</g>
	<g>
		<path d="M3,19H1c-0.3,0-0.5-0.2-0.5-0.5v-6C0.5,12.2,0.7,12,1,12h5c0.2,0,0.3,0.1,0.4,0.2s0.1,0.3,0,0.5l-3,6
			C3.4,18.9,3.2,19,3,19z M1.5,18h1.2l2.5-5H1.5V18z"/>
	</g>
	<g>
		<path d="M29,19h-2c-0.2,0-0.4-0.1-0.4-0.3l-3-6c-0.1-0.2-0.1-0.3,0-0.5S23.8,12,24,12h5c0.3,0,0.5,0.2,0.5,0.5v6
			C29.5,18.8,29.3,19,29,19z M27.3,18h1.2v-5h-3.7L27.3,18z"/>
	</g>
</g>
</svg>
