<?xml version="1.0" encoding="utf-8"?>
<!-- Generator: Adobe Illustrator 19.0.0, SVG Export Plug-In . SVG Version: 6.00 Build 0)  -->
<svg version="1.1" id="Layer_1" xmlns="http://www.w3.org/2000/svg" xmlns:xlink="http://www.w3.org/1999/xlink" x="0px" y="0px"
	 viewBox="0 0 30 30" style="enable-background:new 0 0 30 30;" xml:space="preserve">
<g>
	<g>
		<path d="M3.5,26c-0.1,0-0.1,0-0.2,0C3.1,25.9,3,25.7,3,25.5v-25c0-0.2,0.1-0.3,0.2-0.4C3.3,0,3.5,0,3.7,0l7,2.5
			C10.9,2.6,11,2.8,11,3v16.5c0,0.1-0.1,0.3-0.2,0.4l-7,6C3.7,26,3.6,26,3.5,26z M4,1.2v23.2l6-5.1V3.4L4,1.2z"/>
	</g>
	<g>
		<path d="M10.5,30c-0.1,0-0.2,0-0.2-0.1l-7-4C3.1,25.8,3,25.7,3,25.5s0.1-0.3,0.3-0.4l23-12.5c0.2-0.1,0.3-0.1,0.5,0
			c0.2,0.1,0.2,0.3,0.2,0.4v6.5c0,0.2-0.1,0.3-0.2,0.4l-16,10C10.7,30,10.6,30,10.5,30z M4.5,25.5l6,3.4L26,19.2v-5.4L4.5,25.5z"/>
	</g>
	<g>
		<path d="M21,16.5c0,0-0.1,0-0.1,0L15.4,15c-0.1,0-0.3-0.1-0.3-0.3l-3-7c-0.1-0.2,0-0.4,0.1-0.5C12.3,7,12.5,7,12.7,7l14,5.5
			c0.2,0.1,0.3,0.2,0.3,0.4s-0.1,0.4-0.3,0.5l-5.5,3C21.2,16.5,21.1,16.5,21,16.5z M15.9,14.1l5.1,1.4l4.4-2.4L13.4,8.4L15.9,14.1z"
			/>
	</g>
</g>
</svg>
