<?xml version="1.0" encoding="utf-8"?>
<!-- Generator: Adobe Illustrator 19.0.0, SVG Export Plug-In . SVG Version: 6.00 Build 0)  -->
<svg version="1.1" id="Layer_1" xmlns="http://www.w3.org/2000/svg" xmlns:xlink="http://www.w3.org/1999/xlink" x="0px" y="0px"
	 viewBox="0 0 30 30" style="enable-background:new 0 0 30 30;" xml:space="preserve">
<g>
	<g>
		<path d="M28.5,25.5h-27C1.2,25.5,1,25.3,1,25V3c0-0.3,0.2-0.5,0.5-0.5h27C28.8,2.5,29,2.7,29,3v22C29,25.3,28.8,25.5,28.5,25.5z
			 M2,24.5h26v-21H2V24.5z"/>
	</g>
	<g>
		<path d="M18,29.5c-0.1,0-0.3,0-0.4-0.1c-1.4-1.4-2.4-9.3-1-12.9h-4.2c-0.3,0-0.5-0.2-0.5-0.5c0-5.4,2.9-13.1,5.1-15.4
			c0.2-0.2,0.5-0.2,0.7,0s0.2,0.5,0,0.7c-2.1,2.1-4.7,9.1-4.8,14.1h4.5c0.2,0,0.4,0.1,0.4,0.3c0.1,0.2,0.1,0.4,0,0.5
			c-1.8,2.7-0.7,11.3,0.4,12.4c0.2,0.2,0.2,0.5,0,0.7C18.3,29.5,18.1,29.5,18,29.5z"/>
	</g>
	<g>
		<path d="M14.9,21.5c-2,0-5.9-0.7-9.5-2c-0.3-0.1-0.4-0.4-0.3-0.6c0.1-0.3,0.4-0.4,0.6-0.3c3.5,1.3,7.3,2,9.2,2
			c1.9,0,5.1-0.7,8.5-2c0.3-0.1,0.5,0,0.6,0.3c0.1,0.3,0,0.5-0.3,0.6C20.2,20.7,16.9,21.5,14.9,21.5z"/>
	</g>
	<g>
		<path d="M8.5,9.5C8.2,9.5,8,9.3,8,9V7c0-0.3,0.2-0.5,0.5-0.5S9,6.7,9,7v2C9,9.3,8.8,9.5,8.5,9.5z"/>
	</g>
	<g>
		<path d="M19.5,9.5C19.2,9.5,19,9.3,19,9V7c0-0.3,0.2-0.5,0.5-0.5S20,6.7,20,7v2C20,9.3,19.8,9.5,19.5,9.5z"/>
	</g>
</g>
</svg>
