<?xml version="1.0" encoding="utf-8"?>
<!-- Generator: Adobe Illustrator 19.0.0, SVG Export Plug-In . SVG Version: 6.00 Build 0)  -->
<svg version="1.1" id="Layer_1" xmlns="http://www.w3.org/2000/svg" xmlns:xlink="http://www.w3.org/1999/xlink" x="0px" y="0px"
	 viewBox="0 0 30 30" style="enable-background:new 0 0 30 30;" xml:space="preserve">
<g>
	<g>
		<path d="M5.5,17C5.2,17,5,16.8,5,16.5v-4C5,12.2,5.2,12,5.5,12S6,12.2,6,12.5v4C6,16.8,5.8,17,5.5,17z"/>
	</g>
	<g>
		<path d="M11.5,17c-0.3,0-0.5-0.2-0.5-0.5v-2.8c0-0.4-0.3-0.8-0.8-0.8H8v3.5C8,16.8,7.8,17,7.5,17S7,16.8,7,16.5v-4
			C7,12.2,7.2,12,7.5,12h2.8c1,0,1.8,0.8,1.8,1.8v2.8C12,16.8,11.8,17,11.5,17z"/>
	</g>
	<g>
		<path d="M15.5,17c-1,0-1.5-0.5-1.5-1.5v-5c0-0.3,0.2-0.5,0.5-0.5s0.5,0.2,0.5,0.5v5c0,0.4,0.1,0.5,0.5,0.5c0.3,0,0.5,0.2,0.5,0.5
			S15.8,17,15.5,17z"/>
	</g>
	<g>
		<path d="M15.5,13h-1c-0.3,0-0.5-0.2-0.5-0.5s0.2-0.5,0.5-0.5h1c0.3,0,0.5,0.2,0.5,0.5S15.8,13,15.5,13z"/>
	</g>
	<g>
		<path d="M21.5,17H19c-1.2,0-2-1-2-2.5c0-1.3,1.2-2.5,2.5-2.5s2.5,1.2,2.5,2.5c0,0.3-0.2,0.5-0.5,0.5H18c0.1,0.4,0.3,1,1,1h2.5
			c0.3,0,0.5,0.2,0.5,0.5S21.8,17,21.5,17z M18.1,14h2.8c-0.2-0.6-0.8-1-1.4-1S18.3,13.5,18.1,14z"/>
	</g>
	<g>
		<path d="M24.5,17c-0.3,0-0.5-0.2-0.5-0.5v-6c0-0.3,0.2-0.5,0.5-0.5s0.5,0.2,0.5,0.5v6C25,16.8,24.8,17,24.5,17z"/>
	</g>
	<g>
		<path d="M26,17.5c-0.2,0-0.3-0.1-0.4-0.2c-0.2-0.2-0.1-0.5,0.1-0.7c2.9-2.2,3.8-4.1,3.1-6.4C27.4,6.1,20,4.7,12.3,7.2
			c-1.7,0.5-3.3,1.2-4.7,2.1C7.3,9.4,7,9.3,6.9,9.1C6.8,8.9,6.8,8.6,7.1,8.4c1.5-0.9,3.2-1.6,4.9-2.2c8.2-2.6,16.2-1,17.7,3.7
			c1.1,3.5-1.2,5.8-3.4,7.5C26.2,17.5,26.1,17.5,26,17.5z"/>
	</g>
	<g>
		<path d="M9.9,25c-2.2,0-4.1-0.4-5.8-1.2c-2-1-3.3-2.4-3.9-4.3c-0.8-2.5,0.2-5.4,2.8-8.1c0.2-0.2,0.5-0.2,0.7,0
			c0.2,0.2,0.2,0.5,0,0.7c-2.3,2.4-3.2,4.9-2.5,7.1c0.5,1.6,1.7,2.8,3.4,3.7c3.2,1.6,7.9,1.4,12.8-0.3l0.1,0c2.8-1,3.8-1.4,5.7-2.5
			c0.2-0.1,0.5-0.1,0.7,0.2s0.1,0.5-0.2,0.7c-2,1.2-3.2,1.6-5.9,2.6l-0.1,0C15,24.5,12.3,25,9.9,25z"/>
	</g>
	<g>
		<path d="M26.5,11c-0.3,0-0.5-0.2-0.5-0.5s0.2-0.5,0.5-0.5h0c0.3,0,0.5,0.2,0.5,0.5S26.8,11,26.5,11z"/>
	</g>
	<g>
		<circle cx="5.5" cy="10.5" r="0.5"/>
	</g>
</g>
</svg>
