<?xml version="1.0" encoding="utf-8"?>
<!-- Generator: Adobe Illustrator 19.0.0, SVG Export Plug-In . SVG Version: 6.00 Build 0)  -->
<svg version="1.1" id="Layer_1" xmlns="http://www.w3.org/2000/svg" xmlns:xlink="http://www.w3.org/1999/xlink" x="0px" y="0px"
	 viewBox="0 0 30 30" style="enable-background:new 0 0 30 30;" xml:space="preserve">
<g>
	<g>
		<g>
			<path d="M15.5,5c-0.8,0-2.3,0-3.1-0.2c-0.1,0-0.3-0.1-0.4-0.2C12,4.5,12,4.4,12,4.2l0.8-3C13.1,0.5,13.8,0,14.5,0h2
				c0.8,0,1.5,0.5,1.7,1.2l0.8,3c0,0.1,0,0.3-0.1,0.4c-0.1,0.1-0.2,0.2-0.4,0.2C17.8,5,16.3,5,15.5,5z M13.1,3.9
				C13.9,4,14.9,4,15.5,4c0.6,0,1.6,0,2.4-0.1l-0.6-2.4C17.1,1.2,16.8,1,16.5,1h-2c-0.3,0-0.6,0.2-0.7,0.5L13.1,3.9z"/>
		</g>
		<g>
			<path d="M15.5,16c-2.4,0-4.9-0.4-6.2-1c-0.2-0.1-0.3-0.4-0.3-0.6l1.4-4.5c0.1-0.3,0.3-0.4,0.6-0.3c1.1,0.3,3,0.5,4.5,0.5
				S19,9.8,20,9.5c0.3-0.1,0.5,0.1,0.6,0.3l1.4,4.5c0.1,0.2,0,0.5-0.3,0.6C20.4,15.6,17.9,16,15.5,16z M10.1,14.2
				c1.3,0.5,3.4,0.8,5.4,0.8s4.1-0.3,5.4-0.8l-1.1-3.6c-1.2,0.3-2.9,0.4-4.3,0.4s-3.1-0.2-4.3-0.4L10.1,14.2z"/>
		</g>
	</g>
	<g>
		<path d="M26.2,30H3.8c-0.5,0-1-0.2-1.4-0.7s-0.4-1-0.3-1.5l2.5-7.5C4.7,19.5,5.4,19,6.2,19h2.1c0.3,0,0.5,0.2,0.5,0.5
			c0,0.6,2.1,1.5,6.6,1.5c4.2,0,6.1-0.8,6.1-1.5c0-0.3,0.2-0.5,0.5-0.5h2.1c0.8,0,1.5,0.5,1.7,1.3l2,7.5c0,0,0,0,0,0
			c0.1,0.5,0,1.1-0.3,1.5S26.8,30,26.2,30z M6.2,20c-0.3,0-0.6,0.2-0.7,0.6L3,28.1c0,0.2,0,0.4,0.1,0.6C3.3,28.9,3.5,29,3.7,29h22.5
			c0.2,0,0.4-0.1,0.6-0.3c0.1-0.2,0.2-0.4,0.1-0.6l-2-7.5c-0.1-0.3-0.4-0.6-0.7-0.6h-1.7c-0.6,1.6-4.1,2-7.1,2c-2.6,0-6.9-0.3-7.5-2
			H6.2z"/>
	</g>
</g>
</svg>
