<?xml version="1.0" encoding="utf-8"?>
<!-- Generator: Adobe Illustrator 19.0.0, SVG Export Plug-In . SVG Version: 6.00 Build 0)  -->
<svg version="1.1" id="Layer_1" xmlns="http://www.w3.org/2000/svg" xmlns:xlink="http://www.w3.org/1999/xlink" x="0px" y="0px"
	 viewBox="0 0 30 30" style="enable-background:new 0 0 30 30;" xml:space="preserve">
<g>
	<g>
		<path d="M12,20.5c-0.1,0-0.2,0-0.2-0.1c-0.2-0.1-0.3-0.3-0.3-0.4V10c0-0.2,0.1-0.3,0.3-0.4c0.2-0.1,0.4-0.1,0.5,0l8,5
			c0.1,0.1,0.2,0.3,0.2,0.4s-0.1,0.3-0.2,0.4l-8,5C12.2,20.5,12.1,20.5,12,20.5z M12.5,10.9v8.2l6.6-4.1L12.5,10.9z"/>
	</g>
	<g>
		<path d="M15,5.5c-0.3,0-0.5-0.2-0.5-0.5V1c0-0.3,0.2-0.5,0.5-0.5s0.5,0.2,0.5,0.5v4C15.5,5.3,15.3,5.5,15,5.5z"/>
	</g>
	<g>
		<path d="M29,15.5h-4c-0.3,0-0.5-0.2-0.5-0.5s0.2-0.5,0.5-0.5h4c0.3,0,0.5,0.2,0.5,0.5S29.3,15.5,29,15.5z"/>
	</g>
	<g>
		<path d="M15,29.5c-0.3,0-0.5-0.2-0.5-0.5v-4c0-0.3,0.2-0.5,0.5-0.5s0.5,0.2,0.5,0.5v4C15.5,29.3,15.3,29.5,15,29.5z"/>
	</g>
	<g>
		<path d="M5,15.5H1c-0.3,0-0.5-0.2-0.5-0.5s0.2-0.5,0.5-0.5h4c0.3,0,0.5,0.2,0.5,0.5S5.3,15.5,5,15.5z"/>
	</g>
	<g>
		<path d="M15,25.5C9.2,25.5,4.5,20.8,4.5,15S9.2,4.5,15,4.5S25.5,9.2,25.5,15S20.8,25.5,15,25.5z M15,5.5c-5.2,0-9.5,4.3-9.5,9.5
			s4.3,9.5,9.5,9.5s9.5-4.3,9.5-9.5S20.2,5.5,15,5.5z"/>
	</g>
	<g>
		<path d="M15,29.5C7,29.5,0.5,23,0.5,15S7,0.5,15,0.5S29.5,7,29.5,15S23,29.5,15,29.5z M15,1.5C7.6,1.5,1.5,7.6,1.5,15
			S7.6,28.5,15,28.5S28.5,22.4,28.5,15S22.4,1.5,15,1.5z"/>
	</g>
</g>
</svg>
