<?xml version="1.0" encoding="utf-8"?>
<!-- Generator: Adobe Illustrator 19.0.0, SVG Export Plug-In . SVG Version: 6.00 Build 0)  -->
<svg version="1.1" id="Layer_1" xmlns="http://www.w3.org/2000/svg" xmlns:xlink="http://www.w3.org/1999/xlink" x="0px" y="0px"
	 viewBox="0 0 30 30" style="enable-background:new 0 0 30 30;" xml:space="preserve">
<g>
	<g>
		<path d="M16.5,29.5C16.5,29.5,16.4,29.5,16.5,29.5l-16.1-3C0.2,26.4,0,26.2,0,26V5c0-0.2,0.2-0.4,0.4-0.5l16-4
			c0.1,0,0.3,0,0.4,0.1S17,0.8,17,1v28c0,0.1-0.1,0.3-0.2,0.4C16.7,29.5,16.6,29.5,16.5,29.5z M1,25.6l15,2.8V1.6L1,5.4V25.6z"/>
	</g>
	<g>
		<path d="M29.5,27.5h-13c-0.3,0-0.5-0.2-0.5-0.5s0.2-0.5,0.5-0.5H29v-23H16.5C16.2,3.5,16,3.3,16,3s0.2-0.5,0.5-0.5h13
			C29.8,2.5,30,2.7,30,3v24C30,27.3,29.8,27.5,29.5,27.5z"/>
	</g>
	<g>
		<path d="M10.5,20.5C10.5,20.5,10.5,20.5,10.5,20.5c-0.2,0-0.4-0.2-0.5-0.4l-2-7.3l-2,7.3c-0.1,0.2-0.2,0.4-0.5,0.4
			c-0.2,0-0.4-0.1-0.5-0.3l-3-9c-0.1-0.3,0.1-0.5,0.3-0.6c0.3-0.1,0.5,0.1,0.6,0.3l2.5,7.4l2.1-7.4c0.1-0.4,0.8-0.4,1,0l2.1,7.4
			l2.5-7.4c0.1-0.3,0.4-0.4,0.6-0.3c0.3,0.1,0.4,0.4,0.3,0.6l-3,9C10.9,20.4,10.7,20.5,10.5,20.5z"/>
	</g>
	<g>
		<path d="M26.5,7.5h-10C16.2,7.5,16,7.3,16,7s0.2-0.5,0.5-0.5h10C26.8,6.5,27,6.7,27,7S26.8,7.5,26.5,7.5z"/>
	</g>
	<g>
		<path d="M26.5,11.5h-9.8c-0.3,0-0.5-0.2-0.5-0.5s0.2-0.5,0.5-0.5h9.8c0.3,0,0.5,0.2,0.5,0.5S26.8,11.5,26.5,11.5z"/>
	</g>
	<g>
		<path d="M26.5,15.5h-10c-0.3,0-0.5-0.2-0.5-0.5s0.2-0.5,0.5-0.5h10c0.3,0,0.5,0.2,0.5,0.5S26.8,15.5,26.5,15.5z"/>
	</g>
	<g>
		<path d="M26.5,19.5h-10c-0.3,0-0.5-0.2-0.5-0.5s0.2-0.5,0.5-0.5h10c0.3,0,0.5,0.2,0.5,0.5S26.8,19.5,26.5,19.5z"/>
	</g>
	<g>
		<path d="M26.5,23.5H17c-0.3,0-0.5-0.2-0.5-0.5s0.2-0.5,0.5-0.5h9.5c0.3,0,0.5,0.2,0.5,0.5S26.8,23.5,26.5,23.5z"/>
	</g>
</g>
</svg>
