<?xml version="1.0" encoding="iso-8859-1"?>
<!-- Generator: Adobe Illustrator 19.2.1, SVG Export Plug-In . SVG Version: 6.00 Build 0)  -->
<svg version="1.1" id="Layer_1" xmlns="http://www.w3.org/2000/svg" xmlns:xlink="http://www.w3.org/1999/xlink" x="0px" y="0px"
	 viewBox="0 0 30 30" style="enable-background:new 0 0 30 30;" xml:space="preserve">
<g>
	<g>
		<path d="M15,4C6.729,4,0,8.935,0,15c0,2.711,1.336,5.282,3.777,7.296l-3.586,2.81c-0.168,0.132-0.234,0.355-0.164,0.557
			C0.097,25.865,0.287,26,0.5,26H15c8.271,0,15-4.935,15-11S23.271,4,15,4z M15,25H1.948l2.948-2.31
			c0.122-0.096,0.193-0.244,0.191-0.399c-0.002-0.156-0.076-0.302-0.2-0.395C2.38,20.021,1,17.572,1,15C1,9.486,7.28,5,15,5
			c7.72,0,14,4.486,14,10C29,20.514,22.72,25,15,25z"/>
	</g>
</g>
</svg>
