<?xml version="1.0" encoding="iso-8859-1"?>
<!-- Generator: Adobe Illustrator 19.2.1, SVG Export Plug-In . SVG Version: 6.00 Build 0)  -->
<svg version="1.1" id="Layer_1" xmlns="http://www.w3.org/2000/svg" xmlns:xlink="http://www.w3.org/1999/xlink" x="0px" y="0px"
	 viewBox="0 0 30 30" style="enable-background:new 0 0 30 30;" xml:space="preserve">
<g>
	<g>
		<path d="M3,26c-1.103,0-2,0.897-2,2c0,1.103,0.897,2,2,2c1.103,0,2-0.897,2-2C5,26.897,4.103,26,3,26z M3,29c-0.552,0-1-0.449-1-1
			c0-0.551,0.448-1,1-1s1,0.449,1,1C4,28.551,3.552,29,3,29z M8.5,23C7.121,23,6,24.122,6,25.5S7.121,28,8.5,28
			c1.379,0,2.5-1.122,2.5-2.5S9.879,23,8.5,23z M8.5,27C7.673,27,7,26.327,7,25.5C7,24.673,7.673,24,8.5,24
			c0.827,0,1.5,0.673,1.5,1.5C10,26.327,9.327,27,8.5,27z M20,0c-2.669,0-5.155,1.032-7.043,2.915C11.732,2.315,10.372,2,9,2
			c-4.963,0-9,4.038-9,9c0,4.962,4.037,9,9,9c0.18,0,0.358-0.006,0.536-0.017C10.243,21.219,11.567,22,13,22
			c1.676,0,3.136-1.025,3.724-2.554C17.779,19.814,18.879,20,20,20c5.514,0,10-4.486,10-10C30,4.486,25.514,0,20,0z M20,18.999
			c-1.173,0-2.319-0.226-3.408-0.673c-0.136-0.056-0.29-0.049-0.419,0.019c-0.13,0.068-0.225,0.189-0.258,0.332
			C15.599,20.045,14.399,21,13,21c-1.162,0-2.229-0.688-2.719-1.751c-0.082-0.179-0.261-0.291-0.454-0.291
			c-0.015,0-0.032,0.001-0.048,0.002C9.522,18.985,9.263,19,9,19c-4.411,0-8-3.589-8-8s3.589-8,8-8c1.334,0,2.654,0.335,3.819,0.968
			c0.199,0.11,0.449,0.071,0.604-0.098C15.149,2.019,17.485,0.999,20,0.999c4.963,0,9,4.038,9,9C29,14.961,24.963,18.999,20,18.999z
			"/>
	</g>
</g>
</svg>
