<?xml version="1.0" encoding="iso-8859-1"?>
<!-- Generator: Adobe Illustrator 19.0.0, SVG Export Plug-In . SVG Version: 6.00 Build 0)  -->
<svg version="1.1" id="Layer_1" xmlns="http://www.w3.org/2000/svg" xmlns:xlink="http://www.w3.org/1999/xlink" x="0px" y="0px"
	 viewBox="0 0 24 24" style="enable-background:new 0 0 24 24;" xml:space="preserve">
<g>
	<g>
		<path d="M12,24C5.383,24,0,18.617,0,12c0-3.953,1.95-7.652,5.217-9.896C5.37,2,5.571,1.989,5.732,2.074
			C5.897,2.161,6,2.331,6,2.517V12c0,3.309,2.691,6,6,6s6-2.691,6-6s-2.691-6-6-6c-1.145,0-2.262,0.328-3.23,0.949
			C8.615,7.048,8.421,7.054,8.26,6.967C8.1,6.879,8,6.711,8,6.528V1.046c0-0.218,0.141-0.41,0.348-0.477C9.533,0.192,10.762,0,12,0
			c6.617,0,12,5.383,12,12S18.617,24,12,24z M5,3.519C2.479,5.601,1,8.705,1,12c0,6.065,4.935,11,11,11s11-4.935,11-11
			S18.065,1,12,1c-1.015,0-2.021,0.141-3,0.418v4.261C9.936,5.233,10.958,5,12,5c3.859,0,7,3.14,7,7s-3.141,7-7,7s-7-3.14-7-7V3.519
			z"/>
	</g>
	<g>
		<path d="M12,16c-2.206,0-4-1.794-4-4s1.794-4,4-4s4,1.794,4,4S14.206,16,12,16z M12,9c-1.654,0-3,1.346-3,3s1.346,3,3,3
			s3-1.346,3-3S13.654,9,12,9z"/>
	</g>
</g>
<g>
</g>
<g>
</g>
<g>
</g>
<g>
</g>
<g>
</g>
<g>
</g>
<g>
</g>
<g>
</g>
<g>
</g>
<g>
</g>
<g>
</g>
<g>
</g>
<g>
</g>
<g>
</g>
<g>
</g>
</svg>
