<?xml version="1.0" encoding="iso-8859-1"?>
<!-- Generator: Adobe Illustrator 19.0.0, SVG Export Plug-In . SVG Version: 6.00 Build 0)  -->
<svg version="1.1" id="Layer_1" xmlns="http://www.w3.org/2000/svg" xmlns:xlink="http://www.w3.org/1999/xlink" x="0px" y="0px"
	 viewBox="0 0 24 24" style="enable-background:new 0 0 24 24;" xml:space="preserve">
<g id="XMLID_45_">
	<g id="XMLID_49_">
		<path d="M9.5,11.5h-9C0.224,11.5,0,11.277,0,11V4c0-0.251,0.187-0.463,0.436-0.496l9-1.174c0.143-0.02,0.286,0.025,0.395,0.12
			C9.938,2.546,10,2.683,10,2.827V11C10,11.277,9.776,11.5,9.5,11.5z M1,10.5h8V3.396L1,4.439V10.5z"/>
	</g>
	<g id="XMLID_48_">
		<path d="M23.5,11.5h-12c-0.276,0-0.5-0.224-0.5-0.5V2.566c0-0.251,0.187-0.463,0.436-0.496l12-1.565
			c0.142-0.021,0.287,0.024,0.395,0.12C23.938,0.72,24,0.856,24,1v10C24,11.277,23.776,11.5,23.5,11.5z M12,10.5h11V1.57L12,3.005
			V10.5z"/>
	</g>
	<g id="XMLID_47_">
		<path d="M9.5,21.674c-0.021,0-0.043-0.001-0.064-0.004l-9-1.174C0.187,20.464,0,20.251,0,20v-7c0-0.276,0.224-0.5,0.5-0.5h9
			c0.276,0,0.5,0.224,0.5,0.5v8.174c0,0.144-0.062,0.281-0.17,0.375C9.738,21.63,9.621,21.674,9.5,21.674z M1,19.561l8,1.043V13.5H1
			V19.561z"/>
	</g>
	<g id="XMLID_46_">
		<path d="M23.5,23.5c-0.021,0-0.043-0.001-0.064-0.004l-12-1.565C11.187,21.898,11,21.686,11,21.435V13c0-0.276,0.224-0.5,0.5-0.5
			h12c0.276,0,0.5,0.224,0.5,0.5v10c0,0.144-0.062,0.281-0.17,0.375C23.738,23.456,23.621,23.5,23.5,23.5z M12,20.996l11,1.435V13.5
			H12V20.996z"/>
	</g>
</g>
<g>
</g>
<g>
</g>
<g>
</g>
<g>
</g>
<g>
</g>
<g>
</g>
<g>
</g>
<g>
</g>
<g>
</g>
<g>
</g>
<g>
</g>
<g>
</g>
<g>
</g>
<g>
</g>
<g>
</g>
</svg>
