<?xml version="1.0" encoding="iso-8859-1"?>
<!-- Generator: Adobe Illustrator 19.0.0, SVG Export Plug-In . SVG Version: 6.00 Build 0)  -->
<svg version="1.1" id="Layer_1" xmlns="http://www.w3.org/2000/svg" xmlns:xlink="http://www.w3.org/1999/xlink" x="0px" y="0px"
	 viewBox="0 0 24 24" style="enable-background:new 0 0 24 24;" xml:space="preserve">
<g>
	<g>
		<path d="M23.854,4.146l-2-2C21.76,2.053,21.633,2,21.5,2H15V1.5C15,0.673,14.327,0,13.5,0h-3C9.673,0,9,0.673,9,1.5V2H4.5
			C3.673,2,3,2.673,3,3.5v2C3,6.327,3.673,7,4.5,7H9v2.001H2.5c-0.133,0-0.26,0.052-0.354,0.146l-2,2
			c-0.195,0.195-0.195,0.512,0,0.707l2,2C2.24,13.947,2.367,14,2.5,14H9v9.5C9,23.776,9.224,24,9.5,24h5c0.276,0,0.5-0.224,0.5-0.5
			V14h4.5c0.827,0,1.5-0.673,1.5-1.499v-2c0-0.827-0.673-1.5-1.5-1.5H15V7h6.5c0.133,0,0.26-0.053,0.354-0.147l2-2
			C24.049,4.658,24.049,4.341,23.854,4.146z M10,1.5C10,1.224,10.224,1,10.5,1h3C13.776,1,14,1.224,14,1.5V2h-4V1.5z M14,23h-4v-9h4
			V23z M19.5,10c0.276,0,0.5,0.224,0.5,0.5v2c0,0.276-0.224,0.5-0.5,0.5H2.707l-1.5-1.5l1.5-1.5H19.5z M10,9V7h4v2H10z M21.293,6
			H4.5C4.224,6,4,5.776,4,5.5v-2C4,3.224,4.224,3,4.5,3h16.793l1.5,1.5L21.293,6z"/>
	</g>
</g>
</svg>
