<?xml version="1.0" encoding="iso-8859-1"?>
<!-- Generator: Adobe Illustrator 19.2.1, SVG Export Plug-In . SVG Version: 6.00 Build 0)  -->
<svg version="1.1" id="Layer_1" xmlns="http://www.w3.org/2000/svg" xmlns:xlink="http://www.w3.org/1999/xlink" x="0px" y="0px"
	 viewBox="0 0 30 30" style="enable-background:new 0 0 30 30;" xml:space="preserve">
<g>
	<g>
		<path d="M9.5,10.501c-5.238,0-9.5,3.36-9.5,7.49c0,2.243,1.299,4.382,3.498,5.798L2.05,26.783C1.954,26.982,2,27.222,2.165,27.371
			C2.26,27.456,2.38,27.5,2.5,27.5c0.09,0,0.18-0.024,0.261-0.073l3.795-2.321C7.519,25.354,8.508,25.48,9.5,25.48
			c5.238,0,9.5-3.36,9.5-7.489C19,13.861,14.738,10.501,9.5,10.501z M9.502,24.48c-0.975,0-1.947-0.133-2.889-0.395
			c-0.134-0.036-0.276-0.017-0.395,0.056l-2.526,1.545l0.904-1.87c0.114-0.236,0.027-0.52-0.2-0.651C2.237,21.92,1,20.034,1,17.99
			c0-3.579,3.813-6.49,8.5-6.49s8.5,2.911,8.501,6.491C18.002,21.569,14.188,24.48,9.502,24.48z M26.009,19.02
			C28.552,17.234,30,14.652,30,11.867C30,6.702,24.965,2.5,18.776,2.5c-4.8,0-9.065,2.551-10.613,6.347
			C8.059,9.103,8.182,9.395,8.437,9.499c0.256,0.104,0.548-0.018,0.652-0.274C10.486,5.801,14.38,3.5,18.776,3.5
			C24.414,3.5,29,7.254,29,11.867c0,2.592-1.445,4.997-3.964,6.601c-0.115,0.074-0.195,0.191-0.222,0.325
			c-0.026,0.135,0.003,0.274,0.082,0.385l1.088,1.541l-2.57-1.231c-0.124-0.06-0.265-0.065-0.392-0.018
			c-0.904,0.34-1.878,0.569-2.895,0.681c-0.275,0.031-0.472,0.278-0.442,0.552c0.031,0.274,0.276,0.472,0.552,0.442
			c1.024-0.114,2.011-0.337,2.935-0.665l4.112,1.971c0.069,0.033,0.143,0.049,0.216,0.049c0.144,0,0.285-0.062,0.381-0.177
			c0.147-0.174,0.158-0.425,0.027-0.611L26.009,19.02z"/>
	</g>
</g>
</svg>
