<?xml version="1.0" encoding="iso-8859-1"?>
<!-- Generator: Adobe Illustrator 19.0.0, SVG Export Plug-In . SVG Version: 6.00 Build 0)  -->
<svg version="1.1" id="Layer_1" xmlns="http://www.w3.org/2000/svg" xmlns:xlink="http://www.w3.org/1999/xlink" x="0px" y="0px"
	 viewBox="0 0 24 24" style="enable-background:new 0 0 24 24;" xml:space="preserve">
<g>
	<g>
		<path d="M17.5,5c-0.785,0-1.5,0.271-2.082,0.711l-0.565-0.565c-0.195-0.195-0.512-0.195-0.707,0s-0.195,0.512,0,0.707l0.565,0.565
			c-0.338,0.457-0.576,0.993-0.661,1.581h6.899c-0.085-0.588-0.323-1.125-0.661-1.581l0.565-0.565c0.195-0.195,0.195-0.512,0-0.707
			s-0.512-0.195-0.707,0l-0.565,0.565C19,5.271,18.285,5,17.5,5z M21.5,9C21.224,9,21,9.224,21,9.5V9h-7v0.5
			C14,9.224,13.776,9,13.5,9S13,9.224,13,9.5v4c0,0.276,0.224,0.5,0.5,0.5s0.5-0.224,0.5-0.5c0,0.651,0.419,1.201,1,1.408V16.5
			c0,0.276,0.224,0.5,0.5,0.5s0.5-0.224,0.5-0.5V15h3v1.5c0,0.276,0.224,0.5,0.5,0.5s0.5-0.224,0.5-0.5v-1.592
			c0.581-0.207,1-0.757,1-1.408c0,0.276,0.224,0.5,0.5,0.5s0.5-0.224,0.5-0.5v-4C22,9.224,21.776,9,21.5,9z M19.478,18
			c-0.45-0.006-0.853-0.212-1.124-0.533C18.231,17.322,18,17.396,18,17.587v1.914c0,0.276-0.224,0.5-0.5,0.5h-13
			c-0.276,0-0.5-0.224-0.5-0.5v-17c0-0.276,0.224-0.5,0.5-0.5h13c0.276,0,0.5,0.224,0.5,0.5v1.55
			c0.394,0.046,0.786,0.126,1.168,0.279c0.156,0.063,0.334,0.041,0.472-0.053l0.113-0.063C19.906,4.124,20,3.96,20,3.782V2
			c0-1.467-2.093-2-3.5-2h-11C4.093,0,2,0.533,2,2v20c0,1.467,2.093,2,3.5,2h11c1.407,0,3.5-0.533,3.5-2v-3.5
			C20,18.215,19.763,18.004,19.478,18z M12.5,22h-3C9.224,22,9,21.776,9,21.5S9.224,21,9.5,21h3c0.276,0,0.5,0.224,0.5,0.5
			S12.776,22,12.5,22z"/>
	</g>
</g>
</svg>
