<?xml version="1.0" encoding="iso-8859-1"?>
<!-- Generator: Adobe Illustrator 19.0.0, SVG Export Plug-In . SVG Version: 6.00 Build 0)  -->
<svg version="1.1" id="Layer_1" xmlns="http://www.w3.org/2000/svg" xmlns:xlink="http://www.w3.org/1999/xlink" x="0px" y="0px"
	 viewBox="0 0 24 24" style="enable-background:new 0 0 24 24;" xml:space="preserve">
<g>
	<g>
		<path d="M14,11.999c-0.411,0-0.794,0.125-1.112,0.338c-0.274-0.778-1.017-1.338-1.888-1.338c-0.411,0-0.794,0.125-1.112,0.338
			C9.614,10.559,8.871,9.999,8,9.999c-0.364,0-0.706,0.098-1,0.269V6.999c0-1.103-0.897-2-2-2c-1.103,0-2,0.897-2,2v6.293
			l-0.916,0.916C1.066,15.226,0.009,17.107,0,18.496c-0.009,1.414,1.053,3.325,2.095,4.367c0.259,0.243,0.469,0.531,0.624,0.854
			c0.086,0.18,0.265,0.284,0.451,0.284c0.072,0,0.146-0.016,0.215-0.049c0.034-0.016,0.059-0.043,0.088-0.066
			c0.023-0.018,0.051-0.031,0.07-0.053c0.037-0.042,0.063-0.092,0.084-0.143c0.003-0.008,0.01-0.014,0.013-0.022
			c0.043-0.121,0.04-0.258-0.02-0.383c-0.061-0.128-0.141-0.241-0.215-0.36c-0.052-0.084-0.094-0.175-0.152-0.255
			c-0.139-0.191-0.295-0.367-0.464-0.526c-0.867-0.867-1.798-2.506-1.791-3.644c0.007-1.081,0.932-2.728,1.791-3.587l0.209-0.209
			v2.793c0,0.276,0.224,0.5,0.5,0.5s0.5-0.224,0.5-0.5v-10.5c0-0.551,0.448-1,1-1s1,0.449,1,1v6.5c0,0.276,0.224,0.5,0.5,0.5
			s0.5-0.224,0.5-0.5v-1.5c0-0.551,0.448-1,1-1s1,0.449,1,1v1.5c0,0.276,0.224,0.5,0.5,0.5s0.5-0.224,0.5-0.5v-0.5
			c0-0.551,0.448-1,1-1s1,0.449,1,1v1c0,0.276,0.224,0.5,0.5,0.5s0.5-0.224,0.5-0.5c0-0.551,0.448-1,1-1s1,0.449,1,1v5.136
			c0,1.166-0.317,2.268-0.919,3.188c-0.053,0.081-0.081,0.176-0.081,0.273v0.903c0,0.276,0.224,0.5,0.5,0.5s0.5-0.224,0.5-0.5V22.74
			c0.654-1.055,1-2.299,1-3.606v-5.135C16,12.896,15.103,11.999,14,11.999z M24,7.999c0-0.871-0.56-1.614-1.339-1.888
			C22.875,5.793,23,5.41,23,4.999c0-0.871-0.56-1.614-1.339-1.888C21.875,2.793,22,2.41,22,1.999c0-1.103-0.897-2-2-2h-6.136
			c-1.308,0-2.552,0.345-3.607,1H0.5c-0.276,0-0.5,0.224-0.5,0.5s0.224,0.5,0.5,0.5H2v1.092C1.419,3.298,1,3.848,1,4.499v2.5
			c0,0.276,0.224,0.5,0.5,0.5S2,7.275,2,6.999c0-1.654,1.346-3,3-3s3,1.346,3,3c0,0.276,0.224,0.5,0.5,0.5S9,7.275,9,6.999v0.5
			c0,0.276,0.224,0.5,0.5,0.5s0.5-0.224,0.5-0.5v-1c0-0.276-0.224-0.5-0.5-0.5S9,6.223,9,6.499v-2c0-0.651-0.419-1.201-1-1.408
			V1.999h2.402c0.097,0,0.192-0.028,0.273-0.082c0.92-0.601,2.022-0.918,3.188-0.918H20c0.552,0,1,0.449,1,1c0,0.551-0.448,1-1,1
			c-0.276,0-0.5,0.224-0.5,0.5s0.224,0.5,0.5,0.5h1c0.552,0,1,0.449,1,1c0,0.551-0.448,1-1,1h-0.5c-0.276,0-0.5,0.224-0.5,0.5
			s0.224,0.5,0.5,0.5H22c0.552,0,1,0.449,1,1c0,0.551-0.448,1-1,1h-2.5c-0.276,0-0.5,0.224-0.5,0.5s0.224,0.5,0.5,0.5H21
			c0.552,0,1,0.449,1,1c0,0.551-0.448,1-1,1h-3.84c-0.276,0-0.5,0.224-0.5,0.5s0.224,0.5,0.5,0.5h1.133l-0.209,0.209
			c-0.237,0.237-0.537,0.483-0.867,0.711c-0.228,0.157-0.284,0.468-0.127,0.695c0.097,0.141,0.253,0.216,0.411,0.216
			c0.099,0,0.197-0.029,0.284-0.089c0.379-0.262,0.727-0.547,1.006-0.827l0.916-0.916H21c1.103,0,2-0.897,2-2
			c0-0.412-0.125-0.794-0.339-1.112C23.44,9.613,24,8.87,24,7.999z M7,2.999H3v-1h4V2.999z"/>
	</g>
</g>
</svg>
