<?xml version="1.0" encoding="iso-8859-1"?>
<!-- Generator: Adobe Illustrator 19.0.0, SVG Export Plug-In . SVG Version: 6.00 Build 0)  -->
<svg version="1.1" id="Layer_1" xmlns="http://www.w3.org/2000/svg" xmlns:xlink="http://www.w3.org/1999/xlink" x="0px" y="0px"
	 viewBox="0 0 24 24" style="enable-background:new 0 0 24 24;" xml:space="preserve">
<g>
	<g>
		<path d="M7.7,4.5h7.6c0.141,0,0.276-0.06,0.371-0.165c0.095-0.104,0.141-0.245,0.127-0.385l-0.3-3C15.473,0.695,15.257,0.5,15,0.5
			H8c-0.257,0-0.472,0.195-0.498,0.45l-0.3,3C7.188,4.091,7.234,4.231,7.329,4.335C7.424,4.44,7.559,4.5,7.7,4.5z M15.3,19.5H7.7
			c-0.141,0-0.276,0.06-0.371,0.165c-0.095,0.104-0.141,0.245-0.127,0.385l0.3,3C7.527,23.305,7.743,23.5,8,23.5h7
			c0.257,0,0.472-0.195,0.498-0.45l0.3-3c0.014-0.141-0.032-0.281-0.127-0.385C15.576,19.56,15.441,19.5,15.3,19.5z M18.5,10.5
			c0.276,0,0.5-0.224,0.5-0.5V9c0-0.276-0.224-0.5-0.5-0.5S18,8.724,18,9V8c0-1.378-1.122-2.5-2.5-2.5h-8C6.122,5.5,5,6.622,5,8v8
			c0,1.378,1.122,2.5,2.5,2.5h8c1.378,0,2.5-1.122,2.5-2.5v-1c0,0.276,0.224,0.5,0.5,0.5S19,15.276,19,15v-1
			c0-0.276-0.224-0.5-0.5-0.5S18,13.724,18,14v-4C18,10.276,18.224,10.5,18.5,10.5z M15.947,12.224l-1,2
			c-0.096,0.193-0.306,0.302-0.521,0.271c-0.214-0.032-0.383-0.199-0.419-0.413l-0.605-3.628l-1.417,5.667
			C11.929,16.344,11.73,16.5,11.5,16.5s-0.429-0.156-0.485-0.379l-1.111-4.442l-0.936,2.497c-0.07,0.186-0.244,0.313-0.442,0.324
			c-0.197,0.016-0.385-0.098-0.474-0.276l-1-2c-0.124-0.247-0.023-0.547,0.224-0.671c0.247-0.123,0.547-0.023,0.671,0.224
			l0.487,0.975l1.097-2.927c0.077-0.205,0.276-0.331,0.497-0.323c0.219,0.012,0.404,0.166,0.457,0.378l1.015,4.06l1.515-6.06
			c0.057-0.23,0.253-0.401,0.505-0.378c0.237,0.009,0.434,0.184,0.473,0.417l0.747,4.483l0.313-0.625
			c0.124-0.247,0.424-0.346,0.671-0.224C15.971,11.676,16.071,11.977,15.947,12.224z"/>
	</g>
</g>
</svg>
