<?xml version="1.0" encoding="iso-8859-1"?>
<!-- Generator: Adobe Illustrator 19.0.0, SVG Export Plug-In . SVG Version: 6.00 Build 0)  -->
<svg version="1.1" id="Layer_1" xmlns="http://www.w3.org/2000/svg" xmlns:xlink="http://www.w3.org/1999/xlink" x="0px" y="0px"
	 viewBox="0 0 24 24" style="enable-background:new 0 0 24 24;" xml:space="preserve">
<g>
	<g>
		<path d="M7.7,4.5h7.6c0.141,0,0.276-0.06,0.371-0.165c0.095-0.104,0.141-0.245,0.127-0.385l-0.3-3C15.472,0.695,15.257,0.5,15,0.5
			H8c-0.257,0-0.472,0.195-0.498,0.45l-0.3,3C7.188,4.091,7.234,4.231,7.329,4.335C7.424,4.44,7.559,4.5,7.7,4.5z M15.3,19.5H7.7
			c-0.141,0-0.276,0.06-0.371,0.165c-0.095,0.104-0.141,0.245-0.127,0.385l0.3,3C7.527,23.305,7.743,23.5,8,23.5h7
			c0.257,0,0.472-0.195,0.498-0.45l0.3-3c0.014-0.141-0.032-0.281-0.127-0.385C15.576,19.56,15.441,19.5,15.3,19.5z M18.5,10.5
			c0.276,0,0.5-0.224,0.5-0.5V9c0-0.276-0.224-0.5-0.5-0.5S18,8.724,18,9V8c0-1.378-1.122-2.5-2.5-2.5h-8C6.122,5.5,5,6.622,5,8v8
			c0,1.378,1.122,2.5,2.5,2.5h8c1.378,0,2.5-1.122,2.5-2.5v-1c0,0.276,0.224,0.5,0.5,0.5S19,15.276,19,15v-1
			c0-0.276-0.224-0.5-0.5-0.5S18,13.724,18,14v-4C18,10.276,18.224,10.5,18.5,10.5z M9,14.5H7.5C7.224,14.5,7,14.276,7,14v-3.172
			c0-0.202,0.122-0.385,0.309-0.462c0.188-0.077,0.402-0.034,0.545,0.108L9,11.62V14.5z M12.25,15.464
			c-0.097,0.134-0.25,0.208-0.406,0.208c-0.075,0-0.152-0.017-0.223-0.053l-1.62-0.81v-2.188l2.197,2.197
			C12.371,14.992,12.393,15.265,12.25,15.464z M15.854,16.354C15.756,16.451,15.628,16.5,15.5,16.5s-0.256-0.049-0.354-0.146
			l-1.999-1.999l-0.001-0.001L7.147,8.355c-0.195-0.195-0.195-0.512,0-0.707s0.512-0.195,0.707,0l1.745,1.745l3.678-1.839
			c0.154-0.077,0.339-0.07,0.486,0.022C13.91,7.666,14,7.827,14,8v5.793l1.854,1.854C16.049,15.842,16.049,16.158,15.854,16.354z"/>
	</g>
</g>
</svg>
