<?xml version="1.0" encoding="iso-8859-1"?>
<!-- Generator: Adobe Illustrator 19.0.0, SVG Export Plug-In . SVG Version: 6.00 Build 0)  -->
<svg version="1.1" id="Layer_1" xmlns="http://www.w3.org/2000/svg" xmlns:xlink="http://www.w3.org/1999/xlink" x="0px" y="0px"
	 viewBox="0 0 24 24" style="enable-background:new 0 0 24 24;" xml:space="preserve">
<g>
	<g>
		<path d="M7.966,4.28c2.25-1.035,4.818-1.035,7.068,0c0.066,0.031,0.138,0.046,0.209,0.046h0.01c0.292,0.025,0.511-0.22,0.51-0.5
			c0-0.064-0.012-0.125-0.034-0.181l-0.231-2.688C15.476,0.699,15.26,0.5,15,0.5H8c-0.26,0-0.476,0.199-0.498,0.457L7.259,3.783
			c-0.015,0.178,0.065,0.35,0.21,0.452C7.616,4.337,7.805,4.354,7.966,4.28z M15.034,19.72c-2.25,1.035-4.818,1.035-7.068,0
			c-0.161-0.075-0.35-0.058-0.497,0.045c-0.146,0.103-0.226,0.274-0.21,0.452l0.243,2.826C7.524,23.301,7.74,23.5,8,23.5h7
			c0.26,0,0.476-0.199,0.498-0.457l0.243-2.826c0.015-0.178-0.065-0.35-0.21-0.452C15.384,19.662,15.194,19.645,15.034,19.72z
			 M11.5,4.5C7.364,4.5,4,7.864,4,12s3.364,7.5,7.5,7.5S19,16.136,19,12S15.636,4.5,11.5,4.5z M14,14.5h-1
			c0,0.827-0.673,1.5-1.5,1.5c-0.827,0-1.5-0.673-1.5-1.5H9c-0.276,0-0.5-0.224-0.5-0.5s0.224-0.5,0.5-0.5V12
			c0-1.207,0.86-2.217,2-2.449V9c0-0.276,0.224-0.5,0.5-0.5S12,8.724,12,9v0.551c1.14,0.232,2,1.242,2,2.449v1.5
			c0.276,0,0.5,0.224,0.5,0.5S14.276,14.5,14,14.5z M19.5,11c-0.276,0-0.5,0.224-0.5,0.5V12v0.5c0,0.276,0.224,0.5,0.5,0.5
			s0.5-0.224,0.5-0.5v-1C20,11.224,19.776,11,19.5,11z"/>
	</g>
</g>
</svg>
