<?xml version="1.0" encoding="utf-8"?>
<!-- Generator: Adobe Illustrator 19.0.0, SVG Export Plug-In . SVG Version: 6.00 Build 0)  -->
<svg version="1.1" id="Layer_1" xmlns="http://www.w3.org/2000/svg" xmlns:xlink="http://www.w3.org/1999/xlink" x="0px" y="0px"
	 viewBox="0 0 30 30" style="enable-background:new 0 0 30 30;" xml:space="preserve">
<g>
	<g>
		<path d="M16.8,30h-6c-0.3,0-0.5-0.2-0.5-0.5V13c0-0.1,0.1-0.3,0.2-0.4L20,3.5l-2.6-2.6c-0.1-0.1-0.2-0.4-0.1-0.5
			C17.4,0.1,17.5,0,17.8,0h10c0.3,0,0.5,0.2,0.5,0.5v10c0,0.2-0.1,0.4-0.3,0.5c-0.2,0.1-0.4,0-0.5-0.1l-2.6-2.6l-7.5,7.5v13.8
			C17.3,29.8,17,30,16.8,30z M11.3,29h5V15.5c0-0.1,0.1-0.3,0.1-0.4l8-8c0.2-0.2,0.5-0.2,0.7,0l2.1,2.1V1H19l2.1,2.1
			c0.1,0.1,0.1,0.2,0.1,0.4s-0.1,0.3-0.2,0.4l-9.8,9.4L11.3,29L11.3,29z"/>
	</g>
	<g>
		<path d="M10.8,13.5c-0.1,0-0.3,0-0.4-0.1L1.9,4.9c-0.2-0.2-0.2-0.5,0-0.7l4-4C6.1,0,6.4,0,6.6,0.1l8.5,8.5c0.2,0.2,0.2,0.5,0,0.7
			s-0.5,0.2-0.7,0L6.3,1.2L3,4.5l8.1,8.1c0.2,0.2,0.2,0.5,0,0.7C11,13.5,10.9,13.5,10.8,13.5z"/>
	</g>
</g>
</svg>
