<?xml version="1.0" encoding="utf-8"?>
<!-- Generator: Adobe Illustrator 19.0.0, SVG Export Plug-In . SVG Version: 6.00 Build 0)  -->
<svg version="1.1" id="Layer_1" xmlns="http://www.w3.org/2000/svg" xmlns:xlink="http://www.w3.org/1999/xlink" x="0px" y="0px"
	 viewBox="0 0 30 30" style="enable-background:new 0 0 30 30;" xml:space="preserve">
<g>
	<g>
		<path d="M15,30c-0.3,0-0.5-0.2-0.5-0.5c0-6.3-2.4-9.8-4.5-12.9C8.3,14.2,6.8,12,6.6,8.9c0-0.3-0.1-0.6-0.1-0.9c0-4.3,4-8,8.5-8
			s8.5,3.7,8.5,8c0,0.3,0,0.6-0.1,0.9c-0.2,3-1.8,5.3-3.4,7.7c-2.1,3.1-4.5,6.7-4.5,12.9C15.5,29.8,15.3,30,15,30z M15,1
			c-4,0-7.5,3.3-7.5,7c0,0.3,0,0.5,0.1,0.8c0.2,2.8,1.6,4.8,3.2,7.2c1.6,2.4,3.4,4.9,4.2,8.7c0.8-3.8,2.6-6.4,4.2-8.7
			c1.6-2.4,3-4.4,3.2-7.2c0,0,0,0,0,0c0-0.3,0.1-0.5,0.1-0.8C22.5,4.3,19,1,15,1z"/>
	</g>
	<g>
		<path d="M15,12c-2.5,0-4.5-2-4.5-4.5S12.5,3,15,3s4.5,2,4.5,4.5S17.5,12,15,12z M15,4c-1.9,0-3.5,1.6-3.5,3.5S13.1,11,15,11
			s3.5-1.6,3.5-3.5S16.9,4,15,4z"/>
	</g>
</g>
</svg>
