<?xml version="1.0" encoding="iso-8859-1"?>
<!-- Generator: Adobe Illustrator 19.0.0, SVG Export Plug-In . SVG Version: 6.00 Build 0)  -->
<svg version="1.1" id="Layer_1" xmlns="http://www.w3.org/2000/svg" xmlns:xlink="http://www.w3.org/1999/xlink" x="0px" y="0px"
	 viewBox="0 0 24 24" style="enable-background:new 0 0 24 24;" xml:space="preserve">
<g>
	<g>
		<path d="M15.127,18.169C15.119,18.177,14.339,19,12.002,19c-2.304,0-3.095-0.799-3.124-0.829c-0.179-0.204-0.49-0.229-0.699-0.053
			c-0.211,0.178-0.238,0.494-0.06,0.705C8.221,18.944,9.194,20,12.001,20c2.807,0,3.78-1.057,3.882-1.178
			c0.175-0.208,0.149-0.514-0.056-0.694C15.624,17.948,15.31,17.969,15.127,18.169z M9.055,14.724C9.143,14.898,9.319,15,9.503,15
			c0.075,0,0.151-0.017,0.223-0.053c0.247-0.124,0.347-0.424,0.224-0.671C9.924,14.224,9.297,13,8.003,13
			c-1.294,0-1.921,1.224-1.947,1.276c-0.123,0.246-0.023,0.543,0.222,0.668c0.243,0.123,0.545,0.027,0.671-0.218
			c0.004-0.007,0.383-0.727,1.054-0.727C8.674,13.998,9.052,14.719,9.055,14.724z M16.002,13c-1.294,0-1.921,1.224-1.947,1.276
			c-0.123,0.246-0.023,0.543,0.222,0.668c0.244,0.123,0.545,0.027,0.671-0.218c0.004-0.007,0.383-0.727,1.054-0.727
			c0.671,0,1.05,0.719,1.053,0.724c0.088,0.175,0.264,0.276,0.448,0.276c0.075,0,0.151-0.017,0.223-0.053
			c0.247-0.124,0.347-0.424,0.224-0.671C17.923,14.224,17.296,13,16.002,13z M21.532,11c-0.378-1.198-1.003-2.325-1.809-3.312
			c0.182-0.372,0.279-0.784,0.279-1.188c0-0.652-0.205-1.171-0.355-1.55c-0.068-0.172-0.145-0.368-0.145-0.45
			c0-0.082,0.077-0.278,0.145-0.45c0.15-0.379,0.355-0.897,0.355-1.55c0-1.204-0.782-2.5-2.5-2.5c-1.143,0-2.135,0.483-2.894,1.114
			c0.847,0.826,1.394,2.03,1.394,3.386c0,0.276-0.224,0.5-0.5,0.5s-0.5-0.224-0.5-0.5c0-0.261-0.029-0.514-0.076-0.759
			c-0.01-0.051-0.027-0.097-0.039-0.147c-0.046-0.199-0.103-0.391-0.177-0.575c-0.013-0.031-0.029-0.06-0.043-0.091
			c-0.088-0.201-0.19-0.39-0.308-0.566c-0.006-0.009-0.013-0.018-0.019-0.026c-0.132-0.193-0.279-0.367-0.442-0.524
			C13.379,1.313,12.724,1,12.001,1c-0.723,0-1.378,0.312-1.897,0.811c-0.163,0.157-0.31,0.331-0.442,0.524
			C9.656,2.344,9.649,2.352,9.643,2.362c-0.118,0.177-0.22,0.365-0.308,0.566c-0.014,0.031-0.03,0.06-0.043,0.092
			C9.218,3.203,9.161,3.394,9.115,3.594C9.103,3.643,9.086,3.69,9.076,3.742C9.029,3.987,9,4.24,9,4.5C9,4.776,8.776,5,8.5,5
			S8,4.776,8,4.5C8,3.143,8.548,1.94,9.394,1.115C8.634,0.484,7.642,0,6.5,0C4.782,0,4,1.297,4,2.5c0,0.652,0.205,1.171,0.355,1.55
			C4.423,4.222,4.5,4.419,4.5,4.5c0,0.082-0.077,0.278-0.145,0.45C4.205,5.329,4,5.847,4,6.5c0,0.404,0.097,0.815,0.279,1.188
			C3.473,8.675,2.849,9.802,2.47,11C1.105,11.016,0,12.131,0,13.5c0,1.28,0.967,2.338,2.209,2.483C3.144,20.654,7.196,24,12,24
			c4.804,0,8.856-3.347,9.791-8.017C23.033,15.839,24,14.781,24,13.5C24.002,12.13,22.897,11.016,21.532,11z M21.516,15
			c-0.007,0-0.107-0.012-0.114-0.012c-0.243-0.014-0.482,0.167-0.522,0.421c-0.693,4.398-4.427,7.59-8.878,7.59
			s-8.185-3.192-8.878-7.59c-0.039-0.244-0.34-0.411-0.591-0.411c-0.857-0.011-1.531-0.662-1.531-1.499c0-0.827,0.673-1.5,1.5-1.5
			c0.086,0,0.169,0.013,0.251,0.027c0.253,0.039,0.499-0.114,0.566-0.364c0.306-1.141,0.863-2.221,1.601-3.17
			c0.394,0.309,0.915,0.507,1.581,0.507c1.542,0,2.815-0.875,3.603-1.811c0.519,0.499,1.174,0.811,1.897,0.811
			c0.723,0,1.378-0.312,1.897-0.811c0.788,0.936,2.061,1.811,3.603,1.811c0.666,0,1.188-0.198,1.581-0.507
			c0.737,0.949,1.295,2.029,1.601,3.17c0.067,0.25,0.318,0.403,0.566,0.364c0.082-0.014,0.166-0.027,0.251-0.027
			c0.827,0,1.5,0.673,1.5,1.5C23,14.326,22.329,15,21.516,15z"/>
	</g>
</g>
</svg>
