<?xml version="1.0" encoding="iso-8859-1"?>
<!-- Generator: Adobe Illustrator 19.0.0, SVG Export Plug-In . SVG Version: 6.00 Build 0)  -->
<svg version="1.1" id="Layer_1" xmlns="http://www.w3.org/2000/svg" xmlns:xlink="http://www.w3.org/1999/xlink" x="0px" y="0px"
	 viewBox="0 0 24 24" style="enable-background:new 0 0 24 24;" xml:space="preserve">
<g>
	<g>
		<g>
			<path d="M21.5,19c-0.019,0-0.038-0.001-0.057-0.003C21.4,18.992,17.084,18.5,16,18.5c-0.822,0-1.101,0.303-1.112,0.315
				c-0.174,0.195-0.478,0.231-0.685,0.073c-0.208-0.159-0.265-0.443-0.121-0.663C14.627,17.395,15.667,16,16.5,16
				c0.72,0,3.884,1.431,5.21,2.046c0.223,0.103,0.337,0.353,0.271,0.589C21.92,18.853,21.722,19,21.5,19z M16,17.5
				c0.452,0,1.391,0.076,2.371,0.169c-0.933-0.386-1.666-0.657-1.875-0.669c-0.111,0.024-0.331,0.216-0.593,0.501
				C15.935,17.5,15.967,17.5,16,17.5z"/>
		</g>
		<g>
			<path d="M17,21c-0.732,0-2.109-1.352-2.865-2.158c-0.189-0.201-0.179-0.518,0.023-0.707c0.202-0.188,0.518-0.178,0.707,0.023
				c0.868,0.925,1.877,1.787,2.159,1.843c0.295-0.053,1.625-1.017,2.654-1.884c0.211-0.179,0.527-0.151,0.705,0.06
				c0.178,0.211,0.151,0.527-0.06,0.705C19.383,19.673,17.703,21,17,21z"/>
		</g>
		<g>
			<path d="M12.246,18.026c-0.588,0-1.319-0.08-1.793-0.511c-0.277-0.252-0.434-0.595-0.452-0.993
				c-0.037-0.803,0.169-1.399,0.646-1.876c0.195-0.195,0.512-0.195,0.707,0s0.195,0.512,0,0.707
				c-0.191,0.192-0.383,0.475-0.354,1.124c0.008,0.17,0.07,0.249,0.125,0.297c0.333,0.302,1.234,0.255,1.619,0.235
				C12.849,17.004,12.937,17,13,17c0.015,0,1.5-0.088,1.5-1.5c0-0.276,0.224-0.5,0.5-0.5s0.5,0.224,0.5,0.5
				c0,1.889-1.684,2.5-2.5,2.5c-0.05,0-0.121,0.004-0.205,0.008C12.641,18.017,12.452,18.026,12.246,18.026z"/>
		</g>
		<g>
			<path d="M19.5,18c-1.503,0-2.5-1.779-2.5-2.5c0-0.276,0.224-0.5,0.5-0.5c0.275,0,0.499,0.223,0.5,0.498
				C18.014,15.758,18.648,17,19.5,17c0.584,0,0.999-0.117,1.136-0.321c0.122-0.182,0.087-0.534-0.099-0.99
				c-0.104-0.256,0.019-0.548,0.274-0.652c0.255-0.105,0.547,0.018,0.652,0.274c0.325,0.797,0.326,1.445,0.003,1.925
				C21.125,17.743,20.464,18,19.5,18z"/>
		</g>
		<g>
			<path d="M12.5,23c-4.446,0-9.869-0.662-10.854-1.646c-0.31-0.31-0.249-0.815,0.242-2.001C3.096,16.437,9.979,4,12,4
				c2.674,0,6.608,6.047,8.714,9.651c0.139,0.239,0.059,0.545-0.179,0.684c-0.239,0.141-0.544,0.06-0.684-0.179
				C16.55,8.508,13.542,5,12,5c-1.346,0.395-9.3,13.518-9.539,15.728C3.338,21.269,7.648,22,12.5,22
				c5.988,0,10.221-0.906,10.505-1.529c-0.032-0.324-0.896-2.301-2.446-5.077c-0.135-0.241-0.048-0.545,0.193-0.68
				c0.241-0.135,0.546-0.048,0.68,0.193C22.386,16.615,24,19.715,24,20.5C24,22.972,12.97,23,12.5,23z"/>
		</g>
		<g>
			<path d="M15,16c-0.037,0-0.075-0.004-0.112-0.013l-6.5-1.5c-0.177-0.041-0.318-0.175-0.368-0.35
				c-0.05-0.175-0.001-0.363,0.127-0.491l1-1c0.124-0.124,0.306-0.174,0.475-0.131l6,1.5c0.147,0.037,0.27,0.138,0.333,0.276
				c0.063,0.138,0.061,0.297-0.007,0.433l-0.5,1C15.361,15.896,15.186,16,15,16z M9.491,13.716l5.238,1.208l0.045-0.09l-5.121-1.28
				L9.491,13.716z"/>
		</g>
		<g>
			<circle cx="13.5" cy="16.5" r="0.5"/>
		</g>
		<g>
			<circle cx="20.5" cy="16.5" r="0.5"/>
		</g>
		<g>
			<path d="M3.646,15.354L4,15l-0.37,0.338c-0.203-0.203-0.625-0.625-0.862-1.159c-0.328-0.739-0.194-1.461,0.378-2.033
				c0.195-0.195,0.512-0.195,0.707,0s0.195,0.512,0,0.707c-0.281,0.281-0.332,0.556-0.171,0.92s0.482,0.685,0.655,0.857
				L3.646,15.354z"/>
		</g>
		<g>
			<path d="M3.5,16.5c-0.042,0-0.084-0.005-0.126-0.016C3.34,16.475,0,15.558,0,11.5C0,11.224,0.224,11,0.5,11S1,11.224,1,11.5
				c0,3.268,2.521,3.988,2.628,4.017c0.266,0.072,0.424,0.345,0.354,0.611C3.923,16.352,3.721,16.5,3.5,16.5z"/>
		</g>
		<g>
			<path d="M1.618,17.304c-0.574,0-1.13-0.109-1.472-0.451c-0.195-0.195-0.195-0.512,0-0.707s0.512-0.195,0.707,0
				c0.282,0.28,1.546,0.159,2.504-0.126c0.267-0.077,0.543,0.073,0.622,0.337c0.079,0.265-0.072,0.543-0.337,0.622
				C3.382,17.057,2.481,17.304,1.618,17.304z"/>
		</g>
		<g>
			<path d="M12.5,5c-0.128,0-0.256-0.049-0.354-0.146c-0.194-0.194-0.195-0.509-0.002-0.705c0.269-0.331,0.271-2.002,0.002-2.296
				c-0.184-0.201-0.181-0.519,0.016-0.707c0.196-0.188,0.5-0.192,0.692,0c0.658,0.658,0.658,3.049,0,3.707
				C12.756,4.951,12.628,5,12.5,5z"/>
		</g>
		<g>
			<path d="M12,5c-0.276,0-0.5-0.224-0.5-0.5c0-2.432-3.96-2.5-4-2.5C7.224,2,7,1.776,7,1.5S7.224,1,7.5,1c1.391,0,5,0.629,5,3.5
				C12.5,4.776,12.276,5,12,5z"/>
		</g>
		<g>
			<path d="M11.5,5C11.224,5,11,4.776,11,4.5c0-0.121-0.203-0.334-0.647-0.519c-0.99-0.409-2.256-0.37-2.499-0.128
				c-0.195,0.195-0.512,0.195-0.707,0s-0.195-0.512,0-0.707c0.718-0.717,2.578-0.508,3.589-0.089C11.835,3.513,12,4.157,12,4.5
				C12,4.776,11.776,5,11.5,5z"/>
		</g>
		<g>
			<path d="M9.478,5.034c-0.128,0-0.257-0.055-0.36-0.158C8.922,4.681,8.951,4.342,9.146,4.146c0.376-0.377,1.854-0.492,2.4-0.267
				C11.831,3.997,12,4.229,12,4.5C12,4.776,11.776,5,11.5,5c-0.172,0-0.324-0.087-0.414-0.219c-0.312-0.06-1.093,0.017-1.29,0.118
				C9.704,4.991,9.592,5.034,9.478,5.034z"/>
		</g>
		<g>
			<path d="M17.5,16c-0.188,0-0.362-0.106-0.447-0.276l-0.5-1c-0.07-0.141-0.07-0.307,0-0.447s0.203-0.24,0.358-0.268l5.5-1
				c0.145-0.03,0.295,0.012,0.41,0.108C22.934,13.211,23,13.352,23,13.5V15c0,0.257-0.195,0.472-0.45,0.498l-5,0.5
				C17.533,15.999,17.517,16,17.5,16z M17.745,14.873l0.048,0.096L22,14.547v-0.448L17.745,14.873z"/>
		</g>
	</g>
	<g>
		<path d="M11.5,23c-0.276,0-0.5-0.224-0.5-0.5c0-2.379,6.248-2.5,7.5-2.5c1.942,0,4.488,0.488,4.595,0.509
			c0.271,0.052,0.448,0.314,0.396,0.585c-0.052,0.271-0.315,0.451-0.585,0.396C22.88,21.486,20.345,21,18.5,21
			c-3.462,0-6.5,0.701-6.5,1.5C12,22.776,11.776,23,11.5,23z"/>
	</g>
</g>
<g>
</g>
<g>
</g>
<g>
</g>
<g>
</g>
<g>
</g>
<g>
</g>
<g>
</g>
<g>
</g>
<g>
</g>
<g>
</g>
<g>
</g>
<g>
</g>
<g>
</g>
<g>
</g>
<g>
</g>
</svg>
