<?xml version="1.0" encoding="iso-8859-1"?>
<!-- Generator: Adobe Illustrator 19.0.0, SVG Export Plug-In . SVG Version: 6.00 Build 0)  -->
<svg version="1.1" id="Layer_1" xmlns="http://www.w3.org/2000/svg" xmlns:xlink="http://www.w3.org/1999/xlink" x="0px" y="0px"
	 viewBox="0 0 24 24" style="enable-background:new 0 0 24 24;" xml:space="preserve">
<g>
	<g>
		<path d="M21,23.5H3c-1.378,0-2.5-1.122-2.5-2.5V3c0-1.378,1.122-2.5,2.5-2.5h18c1.378,0,2.5,1.122,2.5,2.5v18
			C23.5,22.378,22.378,23.5,21,23.5z M3,1.5C2.173,1.5,1.5,2.173,1.5,3v18c0,0.827,0.673,1.5,1.5,1.5h18c0.827,0,1.5-0.673,1.5-1.5
			V3c0-0.827-0.673-1.5-1.5-1.5H3z"/>
	</g>
	<g>
		<path d="M12,23.5c-0.276,0-0.5-0.224-0.5-0.5v-1c0-0.276,0.224-0.5,0.5-0.5s0.5,0.224,0.5,0.5v1C12.5,23.276,12.276,23.5,12,23.5z
			 M12,20.5c-0.276,0-0.5-0.224-0.5-0.5v-1c0-0.276,0.224-0.5,0.5-0.5s0.5,0.224,0.5,0.5v1C12.5,20.276,12.276,20.5,12,20.5z
			 M12,17.5c-0.276,0-0.5-0.224-0.5-0.5v-1c0-0.276,0.224-0.5,0.5-0.5s0.5,0.224,0.5,0.5v1C12.5,17.276,12.276,17.5,12,17.5z
			 M12,14.5c-0.276,0-0.5-0.224-0.5-0.5v-1c0-0.276,0.224-0.5,0.5-0.5s0.5,0.224,0.5,0.5v1C12.5,14.276,12.276,14.5,12,14.5z
			 M12,11.5c-0.276,0-0.5-0.224-0.5-0.5v-1c0-0.276,0.224-0.5,0.5-0.5s0.5,0.224,0.5,0.5v1C12.5,11.276,12.276,11.5,12,11.5z
			 M12,8.5c-0.276,0-0.5-0.224-0.5-0.5V7c0-0.276,0.224-0.5,0.5-0.5s0.5,0.224,0.5,0.5v1C12.5,8.276,12.276,8.5,12,8.5z M12,5.5
			c-0.276,0-0.5-0.224-0.5-0.5V4c0-0.276,0.224-0.5,0.5-0.5s0.5,0.224,0.5,0.5v1C12.5,5.276,12.276,5.5,12,5.5z M12,2.5
			c-0.276,0-0.5-0.224-0.5-0.5V1c0-0.276,0.224-0.5,0.5-0.5s0.5,0.224,0.5,0.5v1C12.5,2.276,12.276,2.5,12,2.5z"/>
	</g>
	<g>
		<path d="M3,18.5c-0.276,0-0.5-0.224-0.5-0.5v-4c0-0.276,0.224-0.5,0.5-0.5s0.5,0.224,0.5,0.5v4C3.5,18.276,3.276,18.5,3,18.5z"/>
	</g>
	<g>
		<path d="M21,13.5c-0.276,0-0.5-0.224-0.5-0.5V9c0-0.276,0.224-0.5,0.5-0.5s0.5,0.224,0.5,0.5v4C21.5,13.276,21.276,13.5,21,13.5z"
			/>
	</g>
	<g>
		<path d="M16,14.5c-0.827,0-1.5-0.673-1.5-1.5s0.673-1.5,1.5-1.5s1.5,0.673,1.5,1.5S16.827,14.5,16,14.5z M16,12.5
			c-0.276,0-0.5,0.224-0.5,0.5s0.224,0.5,0.5,0.5s0.5-0.224,0.5-0.5S16.276,12.5,16,12.5z"/>
	</g>
	<g>
		<path d="M7,5.5C6.724,5.5,6.5,5.276,6.5,5S6.724,4.5,7,4.5c0.276,0,0.5-0.224,0.5-0.5S7.276,3.5,7,3.5S6.5,3.724,6.5,4
			c0,0.276-0.224,0.5-0.5,0.5S5.5,4.276,5.5,4c0-0.827,0.673-1.5,1.5-1.5S8.5,3.173,8.5,4S7.827,5.5,7,5.5z"/>
	</g>
	<g>
		<path d="M7,7.5C6.173,7.5,5.5,6.827,5.5,6c0-0.276,0.224-0.5,0.5-0.5S6.5,5.724,6.5,6c0,0.276,0.224,0.5,0.5,0.5S7.5,6.276,7.5,6
			S7.276,5.5,7,5.5C6.724,5.5,6.5,5.276,6.5,5S6.724,4.5,7,4.5c0.827,0,1.5,0.673,1.5,1.5S7.827,7.5,7,7.5z"/>
	</g>
	<g>
		<path d="M18,7.5h-2c-0.276,0-0.5-0.224-0.5-0.5s0.224-0.5,0.5-0.5h2c0.276,0,0.5,0.224,0.5,0.5S18.276,7.5,18,7.5z"/>
	</g>
	<g>
		<path d="M17,7.5c-0.276,0-0.5-0.224-0.5-0.5V4.207l-0.146,0.146c-0.195,0.195-0.512,0.195-0.707,0s-0.195-0.512,0-0.707l1-1
			c0.144-0.143,0.358-0.187,0.545-0.108C17.378,2.615,17.5,2.798,17.5,3v4C17.5,7.276,17.276,7.5,17,7.5z"/>
	</g>
</g>
<g>
</g>
<g>
</g>
<g>
</g>
<g>
</g>
<g>
</g>
<g>
</g>
<g>
</g>
<g>
</g>
<g>
</g>
<g>
</g>
<g>
</g>
<g>
</g>
<g>
</g>
<g>
</g>
<g>
</g>
</svg>
