<?xml version="1.0" encoding="iso-8859-1"?>
<!-- Generator: Adobe Illustrator 19.0.0, SVG Export Plug-In . SVG Version: 6.00 Build 0)  -->
<svg version="1.1" id="Layer_1" xmlns="http://www.w3.org/2000/svg" xmlns:xlink="http://www.w3.org/1999/xlink" x="0px" y="0px"
	 viewBox="0 0 24 24" style="enable-background:new 0 0 24 24;" xml:space="preserve">
<g>
	<g>
		<path d="M8.5,22c-2.648,0-4.357-1.648-5.212-2.504C1.931,19.439,1,18.84,1,18c0-0.281,0.107-0.525,0.311-0.704
			c0.074-0.065,0.157-0.118,0.243-0.159c-1.563-2.303-0.802-5.377-0.579-6.131C0.751,10.335,0,8.005,0,7
			c0-0.271,0.12-0.513,0.339-0.681c0.753-0.582,2.89-0.154,4.019,0.128C5.334,5.551,9.52,2,14.5,2c5.604,0,8.27,3.045,8.38,3.175
			c0.128,0.149,0.156,0.359,0.073,0.537C22.87,5.888,22.693,6,22.5,6c-0.007,0-0.018,0-0.028,0c-1.069,0-2.567,0.994-3.834,2.116
			c3.657,0.759,5.259,5.014,5.332,5.212c0.053,0.145,0.036,0.307-0.047,0.438c-0.082,0.131-0.222,0.216-0.376,0.231
			c-0.025,0.003-2.213,0.223-3.829,1.194c2.293,0.765,3.152,3.642,3.28,5.269c0.014,0.165-0.056,0.326-0.185,0.429
			c-0.129,0.104-0.3,0.137-0.459,0.089C22.322,20.969,19.1,20,16.5,20c-1.278,0-2.616,0.5-3.911,0.984
			C11.254,21.484,9.873,22,8.5,22z M2.31,17.989c-0.145,0-0.293,0.023-0.338,0.057C2,18.17,2.529,18.5,3.5,18.5
			c0.133,0,0.26,0.053,0.354,0.146l0.078,0.078C4.724,19.52,6.198,21,8.5,21c1.192,0,2.43-0.462,3.739-0.952
			C13.616,19.533,15.041,19,16.5,19c1.992,0,4.249,0.514,5.396,0.813C21.647,18.527,20.859,16,18.5,16
			c-0.202,0-0.385-0.122-0.462-0.309s-0.034-0.402,0.108-0.545c1.329-1.33,3.523-1.858,4.629-2.049C22.166,11.848,20.452,9,17.5,9
			c-0.202,0-0.385-0.122-0.462-0.309s-0.035-0.402,0.108-0.545c0.782-0.783,2.559-2.414,4.261-2.962C20.337,4.35,18.056,3,14.5,3
			C9.327,3,4.896,7.313,4.852,7.356C4.725,7.48,4.541,7.529,4.372,7.483c-1.456-0.386-2.97-0.562-3.37-0.4
			c0.043,0.865,0.71,2.986,0.972,3.756c0.035,0.104,0.035,0.217,0,0.321c-0.013,0.038-1.259,3.848,0.88,5.987
			c0.151,0.151,0.189,0.381,0.096,0.573s-0.29,0.305-0.512,0.276C2.397,17.992,2.354,17.989,2.31,17.989z"/>
	</g>
	<g>
		<path d="M9,19c-1.187,0-1.874-0.29-2.48-0.545C5.939,18.211,5.438,18,4.5,18H2.499c-0.275,0-0.5-0.224-0.5-0.5s0.225-0.5,0.5-0.5
			H4.5c1.141,0,1.784,0.271,2.407,0.534C7.477,17.773,8.015,18,9,18c1.645,0,2-3.607,2-4.5v-0.122
			c0.004-0.705,0.013-2.577-0.839-3.433C9.862,9.646,9.482,9.5,9,9.5c-1.263,0-2.085,1.832-2.745,3.303
			C5.683,14.079,5.269,15,4.5,15c-0.822,0-1.101-0.859-1.347-1.617C2.785,12.246,2.471,11.5,1.5,11.5C1.224,11.5,1,11.276,1,11
			s0.224-0.5,0.5-0.5c1.771,0,2.272,1.55,2.605,2.575c0.104,0.32,0.277,0.856,0.403,0.928c0.158-0.104,0.564-1.01,0.834-1.61
			C6.08,10.75,7.09,8.5,9,8.5c0.752,0,1.381,0.249,1.869,0.74c1.146,1.151,1.135,3.325,1.131,4.144V13.5C12,15.03,11.461,19,9,19z"
			/>
	</g>
	<g>
		<path style="fill:none;stroke:#000000;stroke-linecap:round;stroke-linejoin:round;stroke-miterlimit:10;" d="M9.5,13"/>
	</g>
	<g>
		<path d="M10,17c-0.928,0-1-1.722-1-2.25s0.072-2.25,1-2.25s1,1.722,1,2.25S10.928,17,10,17z"/>
	</g>
	<g>
		<path d="M3.5,17c-0.598,0-1-0.703-1-1.75s0.402-1.75,1-1.75s1,0.703,1,1.75S4.098,17,3.5,17z"/>
	</g>
</g>
<g>
</g>
<g>
</g>
<g>
</g>
<g>
</g>
<g>
</g>
<g>
</g>
<g>
</g>
<g>
</g>
<g>
</g>
<g>
</g>
<g>
</g>
<g>
</g>
<g>
</g>
<g>
</g>
<g>
</g>
</svg>
