<?xml version="1.0" encoding="iso-8859-1"?>
<!-- Generator: Adobe Illustrator 19.0.0, SVG Export Plug-In . SVG Version: 6.00 Build 0)  -->
<svg version="1.1" id="Layer_1" xmlns="http://www.w3.org/2000/svg" xmlns:xlink="http://www.w3.org/1999/xlink" x="0px" y="0px"
	 viewBox="0 0 24 24" style="enable-background:new 0 0 24 24;" xml:space="preserve">
<g>
	<g>
		<path d="M18,21.959V22.5c0,0.276-0.224,0.5-0.5,0.5S17,22.776,17,22.5v-0.539c-1.094-0.171-1.92-0.898-1.998-1.823
			c-0.023-0.275,0.181-0.517,0.456-0.54c0.271-0.015,0.517,0.182,0.54,0.456c0.034,0.406,0.451,0.75,1.002,0.884v-2.039
			c-1.344-0.329-2-0.96-2-1.899c0-0.089,0.019-0.174,0.033-0.26l-1.757-1.757C12.48,15.937,12,17.163,12,18.5
			c0,3.032,2.467,5.5,5.5,5.5c1.337,0,2.563-0.48,3.517-1.276l-1.527-1.527C19.129,21.58,18.608,21.86,18,21.959z M3.5,5h14.02
			c0.276,0,0.5-0.224,0.5-0.5c0-0.151-0.068-0.288-0.174-0.38C17.767,3.987,17.598,3.622,17.532,3H3.5C3.224,3,3,2.776,3,2.5
			S3.224,2,3.5,2h14.028c0.085-0.814,0.352-1.175,0.352-1.175c0.127-0.147,0.156-0.356,0.075-0.534C17.874,0.113,17.695,0,17.5,0
			h-14C2.122,0,1,1.121,1,2.5C1,3.879,2.122,5,3.5,5z M11,18.501c0-3.584,2.916-6.5,6.5-6.5c0.276,0,0.5-0.224,0.5-0.5v-5
			C18,6.224,17.776,6,17.5,6h-14C2.896,6,2.308,5.836,1.752,5.512C1.598,5.421,1.407,5.422,1.251,5.51C1.096,5.599,1,5.765,1,5.944
			V19.5C1,20.879,2.122,22,3.5,22h7.685c0.172,0,0.331-0.088,0.423-0.233c0.092-0.145,0.103-0.327,0.028-0.481
			C11.214,20.4,11,19.464,11,18.501z M17,16.064c-0.332,0.081-0.61,0.239-0.788,0.441L17,17.293V16.064z M18,20.936
			c0.332-0.081,0.61-0.239,0.788-0.441L18,19.707V20.936z M17.5,13c-1.337,0-2.563,0.48-3.517,1.276l1.527,1.527
			c0.361-0.383,0.882-0.663,1.49-0.762V14.5c0-0.276,0.224-0.5,0.5-0.5s0.5,0.224,0.5,0.5v0.539c1.094,0.171,1.92,0.898,1.998,1.823
			c0.023,0.275-0.181,0.517-0.456,0.54c-0.265,0.019-0.517-0.181-0.54-0.456c-0.034-0.406-0.451-0.75-1.002-0.884V18.1
			c1.345,0.331,2,0.962,2,1.9c0,0.089-0.019,0.174-0.033,0.26l1.757,1.757C22.52,21.063,23,19.837,23,18.5
			C23,15.468,20.533,13,17.5,13z"/>
	</g>
</g>
</svg>
