<?xml version="1.0" encoding="iso-8859-1"?>
<!-- Generator: Adobe Illustrator 19.0.0, SVG Export Plug-In . SVG Version: 6.00 Build 0)  -->
<svg version="1.1" id="Layer_1" xmlns="http://www.w3.org/2000/svg" xmlns:xlink="http://www.w3.org/1999/xlink" x="0px" y="0px"
	 viewBox="0 0 24 24" style="enable-background:new 0 0 24 24;" xml:space="preserve">
<g>
	<g>
		<path d="M23.962,10.309c-0.025-0.062-0.062-0.117-0.109-0.163L22,8.293V7.5C22,6.122,20.878,5,19.5,5h-8
			c-0.646,0-1.218-0.412-1.423-1.026L9.989,3.71C9.648,2.687,8.696,2,7.617,2H4.5C3.122,2,2,3.122,2,4.5v3.793l-1.853,1.853
			c-0.046,0.046-0.083,0.102-0.109,0.163C0.013,10.37,0,10.435,0,10.5v11C0,22.327,0.673,23,1.5,23h21c0.827,0,1.5-0.673,1.5-1.5
			v-11C24,10.435,23.987,10.37,23.962,10.309z M15,16H9c-1.103,0-2-0.897-2-2s0.897-2,2-2h6c1.103,0,2,0.897,2,2S16.103,16,15,16z
			 M1.707,10l1-1h18.586l1,1H1.707z M10.937,3.394l0.088,0.263c0.068,0.204,0.259,0.342,0.474,0.342H19.5
			c0.604,0,1.192,0.165,1.748,0.488c0.078,0.045,0.165,0.068,0.252,0.068c0.086,0,0.172-0.022,0.249-0.066
			C21.904,4.4,22,4.235,22,4.055V3.5C22,2.122,20.878,1,19.5,1h-9.253c-0.208,0-0.395,0.129-0.468,0.324
			C9.705,1.519,9.76,1.739,9.917,1.876C10.393,2.292,10.745,2.817,10.937,3.394z M14.288,2.001L14.288,2.001
			c0.079,0.079,0.152,0.162,0.219,0.25c0.041,0.054,0.089,0.104,0.126,0.16c0.111,0.172,0.204,0.354,0.268,0.547L14.915,3H11.86
			c-0.125-0.352-0.296-0.688-0.507-0.999H14.288z"/>
	</g>
</g>
</svg>
