<?xml version="1.0" encoding="iso-8859-1"?>
<!-- Generator: Adobe Illustrator 19.0.0, SVG Export Plug-In . SVG Version: 6.00 Build 0)  -->
<svg version="1.1" id="Layer_1" xmlns="http://www.w3.org/2000/svg" xmlns:xlink="http://www.w3.org/1999/xlink" x="0px" y="0px"
	 viewBox="0 0 24 24" style="enable-background:new 0 0 24 24;" xml:space="preserve">
<g>
	<g>
		<path d="M21.5,0h-18C2.673,0,2,0.673,2,1.5V4H1.5C1.224,4,1,4.224,1,4.5S1.224,5,1.5,5h2.592C4.036,4.843,4,4.676,4,4.5
			C4,3.673,4.673,3,5.5,3C6.327,3,7,3.673,7,4.5C7,5.327,6.327,6,5.5,6H2v3H1.5C1.224,9,1,9.224,1,9.5S1.224,10,1.5,10h2.592
			C4.036,9.843,4,9.676,4,9.5C4,8.673,4.673,8,5.5,8C6.327,8,7,8.673,7,9.5C7,10.327,6.327,11,5.5,11H2v3H1.5
			C1.224,14,1,14.224,1,14.5S1.224,15,1.5,15h2.592C4.036,14.843,4,14.676,4,14.5C4,13.673,4.673,13,5.5,13
			C6.327,13,7,13.673,7,14.5C7,15.327,6.327,16,5.5,16H2v3H1.5C1.224,19,1,19.224,1,19.5S1.224,20,1.5,20h2.592
			C4.036,19.843,4,19.676,4,19.5C4,18.673,4.673,18,5.5,18C6.327,18,7,18.673,7,19.5C7,20.327,6.327,21,5.5,21H2v1.5
			C2,23.327,2.673,24,3.5,24h18c0.827,0,1.5-0.673,1.5-1.5v-21C23,0.673,22.327,0,21.5,0z M19.5,17h-10C9.224,17,9,16.776,9,16.5
			c0-1.254,0.849-2.342,2.064-2.646l1.501-0.374l0.073-0.294c-0.365-0.419-0.626-0.947-0.739-1.493
			c-0.305-0.133-0.512-0.402-0.553-0.729l-0.109-0.869c-0.033-0.267,0.05-0.534,0.227-0.735c0.059-0.066,0.126-0.124,0.201-0.171
			c-0.028-0.258-0.058-0.567-0.058-0.732c0-0.837,0.242-1.946,2.3-2.018C14.607,6,15.326,6,15.644,6
			c1.082,0,1.621,0.478,1.884,0.879c0.552,0.843,0.203,1.429-0.054,1.702l-0.092,0.093l-0.026,0.53
			c0.067,0.045,0.129,0.099,0.183,0.161c0.174,0.2,0.256,0.466,0.223,0.729l-0.109,0.87c-0.04,0.314-0.234,0.577-0.5,0.715
			c-0.115,0.57-0.391,1.119-0.781,1.549l0.063,0.252l1.501,0.374c1.216,0.305,2.065,1.393,2.065,2.646C20,16.775,19.776,17,19.5,17z
			"/>
	</g>
</g>
</svg>
