<?xml version="1.0" encoding="iso-8859-1"?>
<!-- Generator: Adobe Illustrator 19.0.0, SVG Export Plug-In . SVG Version: 6.00 Build 0)  -->
<svg version="1.1" id="Layer_1" xmlns="http://www.w3.org/2000/svg" xmlns:xlink="http://www.w3.org/1999/xlink" x="0px" y="0px"
	 viewBox="0 0 24 24" style="enable-background:new 0 0 24 24;" xml:space="preserve">
<g>
	<g>
		<path d="M20,1h-0.5v3.5C19.5,5.327,18.827,6,18,6c-0.827,0-1.5-0.673-1.5-1.5S17.173,3,18,3c0.176,0,0.343,0.036,0.5,0.092V0.5
			C18.5,0.224,18.276,0,18,0s-0.5,0.224-0.5,0.5V1h-2v3.5C15.5,5.327,14.827,6,14,6c-0.827,0-1.5-0.673-1.5-1.5S13.173,3,14,3
			c0.176,0,0.343,0.036,0.5,0.092V0.5C14.5,0.224,14.276,0,14,0s-0.5,0.224-0.5,0.5V1h-2v3.5C11.5,5.327,10.827,6,10,6
			C9.173,6,8.5,5.327,8.5,4.5S9.173,3,10,3c0.176,0,0.343,0.036,0.5,0.092V0.5C10.5,0.224,10.276,0,10,0S9.5,0.224,9.5,0.5V1h-2v3.5
			C7.5,5.327,6.827,6,6,6C5.173,6,4.5,5.327,4.5,4.5S5.173,3,6,3c0.176,0,0.343,0.036,0.5,0.092V0.5C6.5,0.224,6.276,0,6,0
			S5.5,0.224,5.5,0.5V1H4C3.173,1,2.5,1.673,2.5,2.5v20C2.5,23.327,3.173,24,4,24h16c0.827,0,1.5-0.673,1.5-1.5v-20
			C21.5,1.673,20.827,1,20,1z M15,19H6c-0.276,0-0.5-0.224-0.5-0.5S5.724,18,6,18h9c0.276,0,0.5,0.224,0.5,0.5S15.276,19,15,19z
			 M18,15H6c-0.276,0-0.5-0.224-0.5-0.5S5.724,14,6,14h12c0.276,0,0.5,0.224,0.5,0.5S18.276,15,18,15z M18,11H6
			c-0.276,0-0.5-0.224-0.5-0.5S5.724,10,6,10h12c0.276,0,0.5,0.224,0.5,0.5S18.276,11,18,11z"/>
	</g>
</g>
</svg>
