<?xml version="1.0" encoding="iso-8859-1"?>
<!-- Generator: Adobe Illustrator 19.0.0, SVG Export Plug-In . SVG Version: 6.00 Build 0)  -->
<svg version="1.1" id="Layer_1" xmlns="http://www.w3.org/2000/svg" xmlns:xlink="http://www.w3.org/1999/xlink" x="0px" y="0px"
	 viewBox="0 0 24 24" style="enable-background:new 0 0 24 24;" xml:space="preserve">
<g>
	<g>
		<path d="M19.5,0h-15C3.122,0,2,1.121,2,2.5v19C2,22.879,3.122,24,4.5,24h15c1.378,0,2.5-1.121,2.5-2.5v-19
			C22,1.121,20.878,0,19.5,0z M5,23H4.5C3.673,23,3,22.327,3,21.5v-19C3,1.673,3.673,1,4.5,1H5V23z M10,6c1.103,0,2,0.897,2,2
			c0,1.103-0.897,2-2,2c-1.103,0-2-0.897-2-2C8,6.897,8.897,6,10,6z M19.52,18c-0.006-0.001-0.013,0-0.02,0h-12
			c-0.18,0-0.346-0.097-0.435-0.254c-0.089-0.156-0.086-0.349,0.006-0.503l3-5c0.093-0.157,0.258-0.248,0.448-0.243
			c0.183,0.008,0.347,0.113,0.428,0.276l1.115,2.229l2.522-3.783c0.092-0.138,0.246-0.221,0.412-0.223
			c0.162-0.006,0.321,0.079,0.416,0.216l4.434,6.404c0.107,0.092,0.175,0.228,0.175,0.38C20.02,17.776,19.796,18,19.52,18z"/>
	</g>
</g>
</svg>
