<?xml version="1.0" encoding="iso-8859-1"?>
<!-- Generator: Adobe Illustrator 19.0.0, SVG Export Plug-In . SVG Version: 6.00 Build 0)  -->
<svg version="1.1" id="Layer_1" xmlns="http://www.w3.org/2000/svg" xmlns:xlink="http://www.w3.org/1999/xlink" x="0px" y="0px"
	 viewBox="0 0 24 24" style="enable-background:new 0 0 24 24;" xml:space="preserve">
<g>
	<g>
		<path d="M23.5,19h-18C5.224,19,5,18.776,5,18.5v-18C5,0.224,5.224,0,5.5,0S6,0.224,6,0.5V18h17.5c0.276,0,0.5,0.224,0.5,0.5
			S23.776,19,23.5,19z"/>
	</g>
	<g>
		<path d="M18.5,24c-0.276,0-0.5-0.224-0.5-0.5V6H0.5C0.224,6,0,5.776,0,5.5S0.224,5,0.5,5h18C18.776,5,19,5.224,19,5.5v18
			C19,23.776,18.776,24,18.5,24z"/>
	</g>
</g>
<g>
</g>
<g>
</g>
<g>
</g>
<g>
</g>
<g>
</g>
<g>
</g>
<g>
</g>
<g>
</g>
<g>
</g>
<g>
</g>
<g>
</g>
<g>
</g>
<g>
</g>
<g>
</g>
<g>
</g>
</svg>
