<?xml version="1.0" encoding="iso-8859-1"?>
<!-- Generator: Adobe Illustrator 19.0.0, SVG Export Plug-In . SVG Version: 6.00 Build 0)  -->
<svg version="1.1" id="Layer_1" xmlns="http://www.w3.org/2000/svg" xmlns:xlink="http://www.w3.org/1999/xlink" x="0px" y="0px"
	 viewBox="0 0 24 24" style="enable-background:new 0 0 24 24;" xml:space="preserve">
<g>
	<g>
		<path d="M23,9H3C2.724,9,2.5,8.776,2.5,8.5S2.724,8,3,8h20c0.276,0,0.5,0.224,0.5,0.5S23.276,9,23,9z"/>
	</g>
	<g>
		<path d="M21,16H1c-0.276,0-0.5-0.224-0.5-0.5S0.724,15,1,15h20c0.276,0,0.5,0.224,0.5,0.5S21.276,16,21,16z"/>
	</g>
	<g>
		<path d="M12,22c-0.058,0-0.116-0.01-0.173-0.031c-0.259-0.096-0.392-0.383-0.296-0.642l7-19c0.096-0.259,0.385-0.391,0.642-0.296
			c0.259,0.096,0.392,0.383,0.296,0.642l-7,19C12.395,21.875,12.204,22,12,22z"/>
	</g>
	<g>
		<path d="M5,22c-0.058,0-0.116-0.01-0.173-0.031c-0.259-0.096-0.392-0.383-0.296-0.642l7-19c0.096-0.259,0.385-0.391,0.642-0.296
			c0.259,0.096,0.392,0.383,0.296,0.642l-7,19C5.395,21.875,5.204,22,5,22z"/>
	</g>
</g>
<g>
</g>
<g>
</g>
<g>
</g>
<g>
</g>
<g>
</g>
<g>
</g>
<g>
</g>
<g>
</g>
<g>
</g>
<g>
</g>
<g>
</g>
<g>
</g>
<g>
</g>
<g>
</g>
<g>
</g>
</svg>
