<?xml version="1.0" encoding="iso-8859-1"?>
<!-- Generator: Adobe Illustrator 19.0.0, SVG Export Plug-In . SVG Version: 6.00 Build 0)  -->
<svg version="1.1" id="Layer_1" xmlns="http://www.w3.org/2000/svg" xmlns:xlink="http://www.w3.org/1999/xlink" x="0px" y="0px"
	 viewBox="0 0 24 24" style="enable-background:new 0 0 24 24;" xml:space="preserve">
<g>
	<g>
		<g>
			<path d="M23.5,2h-13C10.224,2,10,1.776,10,1.5S10.224,1,10.5,1h13C23.776,1,24,1.224,24,1.5S23.776,2,23.5,2z"/>
		</g>
		<g>
			<path d="M23.5,5h-13C10.224,5,10,4.776,10,4.5S10.224,4,10.5,4h13C23.776,4,24,4.224,24,4.5S23.776,5,23.5,5z"/>
		</g>
		<g>
			<path d="M23.5,8h-13C10.224,8,10,7.776,10,7.5S10.224,7,10.5,7h13C23.776,7,24,7.224,24,7.5S23.776,8,23.5,8z"/>
		</g>
		<g>
			<path d="M23.5,11h-13c-0.276,0-0.5-0.224-0.5-0.5s0.224-0.5,0.5-0.5h13c0.276,0,0.5,0.224,0.5,0.5S23.776,11,23.5,11z"/>
		</g>
		<g>
			<path d="M23.5,14h-13c-0.276,0-0.5-0.224-0.5-0.5s0.224-0.5,0.5-0.5h13c0.276,0,0.5,0.224,0.5,0.5S23.776,14,23.5,14z"/>
		</g>
		<g>
			<path d="M23.5,17h-23C0.224,17,0,16.776,0,16.5S0.224,16,0.5,16h23c0.276,0,0.5,0.224,0.5,0.5S23.776,17,23.5,17z"/>
		</g>
		<g>
			<path d="M23.5,20h-23C0.224,20,0,19.776,0,19.5S0.224,19,0.5,19h23c0.276,0,0.5,0.224,0.5,0.5S23.776,20,23.5,20z"/>
		</g>
		<g>
			<path d="M23.5,23h-23C0.224,23,0,22.776,0,22.5S0.224,22,0.5,22h23c0.276,0,0.5,0.224,0.5,0.5S23.776,23,23.5,23z"/>
		</g>
	</g>
	<g>
		<path d="M8.5,14c-0.209,0-0.404-0.132-0.475-0.342L4.5,3.081L0.975,13.658c-0.088,0.263-0.369,0.404-0.633,0.316
			c-0.262-0.087-0.403-0.37-0.316-0.632l4-12c0.137-0.408,0.813-0.408,0.949,0l4,12c0.087,0.262-0.055,0.545-0.316,0.632
			C8.606,13.992,8.553,14,8.5,14z"/>
	</g>
	<g>
		<path d="M7,10H2c-0.276,0-0.5-0.224-0.5-0.5S1.724,9,2,9h5c0.276,0,0.5,0.224,0.5,0.5S7.276,10,7,10z"/>
	</g>
</g>
<g>
</g>
<g>
</g>
<g>
</g>
<g>
</g>
<g>
</g>
<g>
</g>
<g>
</g>
<g>
</g>
<g>
</g>
<g>
</g>
<g>
</g>
<g>
</g>
<g>
</g>
<g>
</g>
<g>
</g>
</svg>
