<?xml version="1.0" encoding="iso-8859-1"?>
<!-- Generator: Adobe Illustrator 19.0.0, SVG Export Plug-In . SVG Version: 6.00 Build 0)  -->
<svg version="1.1" id="Layer_1" xmlns="http://www.w3.org/2000/svg" xmlns:xlink="http://www.w3.org/1999/xlink" x="0px" y="0px"
	 viewBox="0 0 24 24" style="enable-background:new 0 0 24 24;" xml:space="preserve">
<g>
	<g>
		<path d="M9.631,13.315c-0.752,0.947-1.583,2.069-2.379,3.155c1.191,0.033,2.095,0.514,2.532,1.35
			c0.758-0.91,1.315-1.874,1.253-2.723c-0.048-0.649-0.465-1.194-1.273-1.665C9.711,13.401,9.668,13.359,9.631,13.315z
			 M14.204,5.046c-0.066,0.009-0.129,0.034-0.195,0.047c-0.085,0.902,0.363,2.096,1.09,2.397c0.638-0.444,1.264-0.906,1.843-1.386
			C16.35,5.462,15.31,4.902,14.204,5.046z M23.932,3.035c-0.372-1.428-1.735-2.641-3.172-2.821L19.002,0
			c-0.232,0-5.73,0.036-8.842,3.146C8.409,4.897,7.487,6.787,7.022,8.063C6.703,8.94,6.099,9.699,5.323,10.198
			c-2.17,1.394-5.31,4.796-5.31,7.302c0,2.965,1.128,6.5,6.5,6.5c5.944,0,7.964-4.627,8.639-7.386
			c0.251-1.026,0.9-1.873,1.782-2.321c1.341-0.682,2.664-1.671,3.933-2.94c2.515-2.515,2.858-4.596,2.89-5.374
			c0.022-0.569,0.064-1.316,0.19-2.055C24.006,3.59,24.001,3.299,23.932,3.035z M14.292,9.249c-0.438,0.294-0.858,0.581-1.266,0.864
			c0.034,0.454,0.158,0.752,0.375,0.869c0.475,0.256,1.452-0.165,1.851-0.409c0.236-0.142,0.544-0.07,0.688,0.165
			c0.144,0.235,0.07,0.543-0.165,0.688c-0.134,0.082-1.071,0.635-1.998,0.635c-0.293,0-0.584-0.055-0.85-0.198
			c-0.399-0.215-0.66-0.589-0.799-1.098c-0.483,0.366-0.92,0.726-1.251,1.078c-0.195,0.206-0.41,0.454-0.632,0.719
			c0.006,0.003,0.013,0.003,0.019,0.007c1.101,0.64,1.696,1.466,1.769,2.456c0.188,2.555-3.227,5.283-4.868,6.594L6.83,21.888
			C6.738,21.963,6.625,22,6.514,22c-0.145,0-0.288-0.063-0.388-0.184c-0.174-0.214-0.143-0.529,0.071-0.704l0.344-0.276
			c0.575-0.46,1.581-1.266,2.497-2.197c-0.003-0.009-0.008-0.016-0.011-0.025c-0.305-1.286-1.954-1.179-2.451-1.119
			c-0.025,0.002-0.048-0.006-0.072-0.007c-0.2,0.273-0.396,0.541-0.585,0.795c-0.009,0.013-0.017,0.025-0.028,0.037
			c-0.857,1.159-1.576,2.094-2.029,2.536C3.766,20.953,3.64,21,3.514,21c-0.13,0-0.26-0.05-0.358-0.151
			c-0.192-0.198-0.188-0.514,0.01-0.707c0.33-0.322,0.867-1.004,1.498-1.845c-0.069-0.04-0.143-0.066-0.207-0.118
			c-0.392-0.325-0.658-0.875-0.812-1.655c-0.282,0.374-0.512,0.758-0.664,1.154C2.906,17.877,2.715,18,2.514,18
			c-0.06,0-0.119-0.01-0.178-0.033c-0.259-0.098-0.388-0.387-0.289-0.646c0.728-1.912,2.783-3.443,4.597-4.795L7.213,12.1
			c0.22-0.166,0.532-0.123,0.7,0.098c0.166,0.221,0.122,0.534-0.099,0.701l-0.573,0.429c-0.924,0.689-1.907,1.429-2.72,2.222
			c0.103,1.327,0.433,1.743,0.573,1.859c0.051,0.042,0.106,0.07,0.165,0.086c0.258-0.35,0.523-0.712,0.794-1.082
			c1.396-1.908,2.979-4.07,4.097-5.256c0.854-0.905,2.181-1.795,3.586-2.738c0.155-0.104,0.313-0.211,0.471-0.318
			c-0.728-0.586-1.164-1.635-1.206-2.62c-1.136,0.68-2.166,2.104-3.024,4.207C9.898,9.883,9.711,10,9.514,10
			c-0.063,0-0.127-0.012-0.188-0.037C9.07,9.859,8.947,9.567,9.052,9.311c1.638-4.013,3.635-5.073,5.022-5.256
			c1.47-0.196,2.824,0.521,3.615,1.384c0.568-0.541,1.056-1.102,1.391-1.687c0.138-0.241,0.444-0.323,0.683-0.186
			c0.24,0.137,0.323,0.442,0.187,0.682C18.83,6.203,16.42,7.821,14.292,9.249z M19.02,9.702l-0.152,0.151
			C18.77,9.951,18.642,10,18.514,10s-0.256-0.049-0.354-0.146c-0.195-0.195-0.195-0.512,0-0.707l0.154-0.154
			c0.915-0.908,1.778-1.766,1.7-3.47c-0.013-0.276,0.2-0.51,0.476-0.522c0.278-0.02,0.511,0.201,0.522,0.477
			C21.113,7.623,19.952,8.776,19.02,9.702z"/>
	</g>
</g>
</svg>
