<?xml version="1.0" encoding="utf-8"?>
<!-- Generator: Adobe Illustrator 19.0.0, SVG Export Plug-In . SVG Version: 6.00 Build 0)  -->
<svg version="1.1" id="Layer_1" xmlns="http://www.w3.org/2000/svg" xmlns:xlink="http://www.w3.org/1999/xlink" x="0px" y="0px"
	 viewBox="0 0 30 30" style="enable-background:new 0 0 30 30;" xml:space="preserve">
<g>
	<g>
		<g>
			<path d="M19.3,27h-3c-0.3,0-0.5-0.2-0.5-0.5v-3c0-0.1,0.1-0.3,0.1-0.4l10-10c0.2-0.2,0.5-0.2,0.7,0l3,3c0.2,0.2,0.2,0.5,0,0.7
				l-10,10C19.5,26.9,19.4,27,19.3,27z M16.8,26H19l9.5-9.5l-2.3-2.3l-9.5,9.5V26z"/>
		</g>
		<g>
			<path d="M26.8,19.5c-0.1,0-0.3,0-0.4-0.1l-3-3c-0.2-0.2-0.2-0.5,0-0.7s0.5-0.2,0.7,0l3,3c0.2,0.2,0.2,0.5,0,0.7
				C27,19.4,26.9,19.5,26.8,19.5z"/>
		</g>
	</g>
	<g>
		<g>
			<path d="M13.8,24c-1.7,0-3-1.3-3-3s1.3-3,3-3s3,1.3,3,3S15.5,24,13.8,24z M13.8,19c-1.1,0-2,0.9-2,2s0.9,2,2,2s2-0.9,2-2
				S14.9,19,13.8,19z"/>
		</g>
		<g>
			<path d="M19.1,16.2c-0.1,0-0.3,0-0.4-0.1c-1.3-1.3-3.1-2.1-4.9-2.1c-1.9,0-3.6,0.7-4.9,2.1c-0.2,0.2-0.5,0.2-0.7,0
				s-0.2-0.5,0-0.7c1.5-1.5,3.5-2.3,5.7-2.3c2.1,0,4.1,0.8,5.7,2.3c0.2,0.2,0.2,0.5,0,0.7C19.4,16.1,19.3,16.2,19.1,16.2z"/>
		</g>
		<g>
			<path d="M23.4,13c-0.1,0-0.3,0-0.4-0.1C20.6,10.4,17.3,9,13.8,9s-6.7,1.4-9.2,3.8c-0.2,0.2-0.5,0.2-0.7,0s-0.2-0.5,0-0.7
				C6.6,9.5,10.1,8,13.8,8c3.7,0,7.3,1.5,9.9,4.1c0.2,0.2,0.2,0.5,0,0.7C23.6,12.9,23.5,13,23.4,13z"/>
		</g>
		<g>
			<path d="M26.9,9.4c-0.1,0-0.3,0-0.4-0.1c-7-7-18.4-7-25.5,0c-0.2,0.2-0.5,0.2-0.7,0s-0.2-0.5,0-0.7c7.4-7.4,19.5-7.4,26.9,0
				c0.2,0.2,0.2,0.5,0,0.7C27.2,9.4,27,9.4,26.9,9.4z"/>
		</g>
	</g>
</g>
</svg>
