<?xml version="1.0" encoding="utf-8"?>
<!-- Generator: Adobe Illustrator 19.0.0, SVG Export Plug-In . SVG Version: 6.00 Build 0)  -->
<svg version="1.1" id="Layer_1" xmlns="http://www.w3.org/2000/svg" xmlns:xlink="http://www.w3.org/1999/xlink" x="0px" y="0px"
	 viewBox="0 0 30 30" style="enable-background:new 0 0 30 30;" xml:space="preserve">
<g>
	<g>
		<path d="M26.3,27c-0.3,0-0.5-0.2-0.5-0.5v-5c0-0.3,0.2-0.5,0.5-0.5s0.5,0.2,0.5,0.5v5C26.8,26.7,26.6,27,26.3,27z"/>
	</g>
	<g>
		<path d="M24.3,27c-0.3,0-0.5-0.2-0.5-0.5v-1.8c0-0.4-0.3-0.8-0.8-0.8h-2.5c-0.4,0-0.8,0.3-0.8,0.8v1.8c0,0.3-0.2,0.5-0.5,0.5
			s-0.5-0.2-0.5-0.5v-1.8c0-1,0.8-1.8,1.8-1.8H23c1,0,1.8,0.8,1.8,1.8v1.8C24.8,26.7,24.6,27,24.3,27z"/>
	</g>
	<g>
		<path d="M24.3,26h-5c-0.3,0-0.5-0.2-0.5-0.5S19,25,19.3,25h5c0.3,0,0.5,0.2,0.5,0.5S24.6,26,24.3,26z"/>
	</g>
	<g>
		<g>
			<path d="M13.8,24c-1.7,0-3-1.3-3-3s1.3-3,3-3s3,1.3,3,3S15.4,24,13.8,24z M13.8,19c-1.1,0-2,0.9-2,2s0.9,2,2,2s2-0.9,2-2
				S14.9,19,13.8,19z"/>
		</g>
		<g>
			<path d="M19.1,16.2c-0.1,0-0.3,0-0.4-0.1c-2.7-2.7-7.2-2.7-9.9,0c-0.2,0.2-0.5,0.2-0.7,0c-0.2-0.2-0.2-0.5,0-0.7
				c3.1-3.1,8.2-3.1,11.3,0c0.2,0.2,0.2,0.5,0,0.7C19.3,16.1,19.2,16.2,19.1,16.2z"/>
		</g>
		<g>
			<path d="M23.3,13c-0.1,0-0.3,0-0.4-0.1c-5.1-5.1-13.3-5.1-18.4,0c-0.2,0.2-0.5,0.2-0.7,0s-0.2-0.5,0-0.7c5.5-5.5,14.3-5.5,19.8,0
				c0.2,0.2,0.2,0.5,0,0.7C23.6,12.9,23.5,13,23.3,13z"/>
		</g>
		<g>
			<path d="M26.9,9.4c-0.1,0-0.3,0-0.4-0.1c-7-7-18.4-7-25.5,0c-0.2,0.2-0.5,0.2-0.7,0s-0.2-0.5,0-0.7c7.4-7.4,19.5-7.4,26.9,0
				c0.2,0.2,0.2,0.5,0,0.7C27.1,9.4,27,9.4,26.9,9.4z"/>
		</g>
	</g>
	<g>
		<path d="M26.3,22c-1.9,0-3.5-1.6-3.5-3.5s1.6-3.5,3.5-3.5s3.5,1.6,3.5,3.5S28.2,22,26.3,22z M26.3,16c-1.4,0-2.5,1.1-2.5,2.5
			s1.1,2.5,2.5,2.5s2.5-1.1,2.5-2.5S27.7,16,26.3,16z"/>
	</g>
</g>
</svg>
