<?xml version="1.0" encoding="utf-8"?>
<!-- Generator: Adobe Illustrator 19.0.0, SVG Export Plug-In . SVG Version: 6.00 Build 0)  -->
<svg version="1.1" id="Layer_1" xmlns="http://www.w3.org/2000/svg" xmlns:xlink="http://www.w3.org/1999/xlink" x="0px" y="0px"
	 viewBox="0 0 30 30" style="enable-background:new 0 0 30 30;" xml:space="preserve">
<g>
	<g>
		<path d="M22.5,16c-0.3,0-0.5-0.2-0.5-0.5v-1c0-0.3,0.2-0.5,0.5-0.5s0.5,0.2,0.5,0.5v1C23,15.8,22.8,16,22.5,16z"/>
	</g>
	<g>
		<g>
			<path d="M14.5,29c-0.3,0-0.5-0.2-0.5-0.5v-28C14,0.2,14.2,0,14.5,0S15,0.2,15,0.5v28C15,28.8,14.8,29,14.5,29z"/>
		</g>
		<g>
			<path d="M28.5,15h-28C0.2,15,0,14.8,0,14.5S0.2,14,0.5,14h28c0.3,0,0.5,0.2,0.5,0.5S28.8,15,28.5,15z"/>
		</g>
		<g>
			<path d="M25.5,7h-22C3.2,7,3,6.8,3,6.5S3.2,6,3.5,6h22C25.8,6,26,6.2,26,6.5S25.8,7,25.5,7z"/>
		</g>
		<g>
			<path d="M14.5,22h-12C2.2,22,2,21.8,2,21.5S2.2,21,2.5,21h12c0.3,0,0.5,0.2,0.5,0.5S14.8,22,14.5,22z"/>
		</g>
		<g>
			<path d="M14.5,29C9.8,29,6,22.5,6,14.5S9.8,0,14.5,0S23,6.5,23,14.5c0,0.3-0.2,0.5-0.5,0.5S22,14.8,22,14.5C22,7.1,18.6,1,14.5,1
				S7,7.1,7,14.5S10.4,28,14.5,28c0.3,0,0.5,0.2,0.5,0.5S14.8,29,14.5,29z"/>
		</g>
		<g>
			<path d="M14.5,29C6.5,29,0,22.5,0,14.5S6.5,0,14.5,0S29,6.5,29,14.5c0,0.5,0,1-0.1,1.6c0,0.3-0.3,0.5-0.6,0.4
				c-0.3,0-0.5-0.3-0.4-0.6c0.1-0.5,0.1-1,0.1-1.4C28,7.1,21.9,1,14.5,1S1,7.1,1,14.5S7.1,28,14.5,28c0.6,0,1.2,0,1.9-0.2
				c0.3,0,0.5,0.2,0.6,0.4c0,0.3-0.2,0.5-0.4,0.6C15.8,28.9,15.1,29,14.5,29z"/>
		</g>
	</g>
	<g>
		<g>
			<path d="M25.5,30c-0.1,0-0.3,0-0.4-0.1l-2-2c-0.2-0.2-0.2-0.5,0-0.7l2-2c0.2-0.2,0.5-0.2,0.7,0s0.2,0.5,0,0.7l-1.6,1.6l1.6,1.6
				c0.2,0.2,0.2,0.5,0,0.7C25.8,30,25.6,30,25.5,30z"/>
		</g>
		<g>
			<path d="M25.5,28h-2c-0.3,0-0.5-0.2-0.5-0.5s0.2-0.5,0.5-0.5h2c1.9,0,3.5-1.6,3.5-3.5S27.4,20,25.5,20c-0.3,0-0.5-0.2-0.5-0.5
				s0.2-0.5,0.5-0.5c2.5,0,4.5,2,4.5,4.5S28,28,25.5,28z"/>
		</g>
	</g>
	<g>
		<g>
			<path d="M21.5,22c-0.1,0-0.3,0-0.4-0.1c-0.2-0.2-0.2-0.5,0-0.7l1.6-1.6l-1.6-1.6c-0.2-0.2-0.2-0.5,0-0.7s0.5-0.2,0.7,0l2,2
				c0.2,0.2,0.2,0.5,0,0.7l-2,2C21.8,22,21.6,22,21.5,22z"/>
		</g>
		<g>
			<path d="M21.5,28C19,28,17,26,17,23.5s2-4.5,4.5-4.5h2c0.3,0,0.5,0.2,0.5,0.5S23.8,20,23.5,20h-2c-1.9,0-3.5,1.6-3.5,3.5
				s1.6,3.5,3.5,3.5c0.3,0,0.5,0.2,0.5,0.5S21.8,28,21.5,28z"/>
		</g>
	</g>
</g>
</svg>
