<?xml version="1.0" encoding="utf-8"?>
<!-- Generator: Adobe Illustrator 19.0.0, SVG Export Plug-In . SVG Version: 6.00 Build 0)  -->
<svg version="1.1" id="Layer_1" xmlns="http://www.w3.org/2000/svg" xmlns:xlink="http://www.w3.org/1999/xlink" x="0px" y="0px"
	 viewBox="0 0 30 30" style="enable-background:new 0 0 30 30;" xml:space="preserve">
<g>
	<g>
		<path d="M23.5,15c-0.1,0-0.3,0-0.4-0.1l-8-8c-0.2-0.2-0.2-0.5,0-0.7l6-6c0.2-0.2,0.5-0.2,0.7,0l8,8c0.2,0.2,0.2,0.5,0,0.7l-6,6
			C23.8,15,23.6,15,23.5,15z M16.2,6.5l7.3,7.3l5.3-5.3l-7.3-7.3L16.2,6.5z"/>
	</g>
	<g>
		<path d="M8.3,30c-1.7,0-3.4-0.7-4.6-1.9l-1.7-1.7c-2.6-2.6-2.6-6.7,0-9.2l12.2-12c0.2-0.2,0.5-0.2,0.7,0l1,1
			c0.2,0.2,0.2,0.5,0,0.7s-0.5,0.2-0.7,0l-0.7-0.7L2.6,17.8c-2.2,2.2-2.2,5.7,0,7.8l1.7,1.7c1,1,2.4,1.6,3.9,1.6s2.9-0.6,3.9-1.6
			l11.6-11.9l-0.7-0.7c-0.2-0.2-0.2-0.5,0-0.7s0.5-0.2,0.7,0l1,1c0.2,0.2,0.2,0.5,0,0.7l-12,12.2C11.7,29.3,10,30,8.3,30z"/>
	</g>
	<g>
		<path d="M13.6,21.9c-3,0-5.5-2.5-5.5-5.5c0-0.3,0.2-0.5,0.5-0.5s0.5,0.2,0.5,0.5c0,2.5,2,4.5,4.5,4.5c0.3,0,0.5,0.2,0.5,0.5
			S13.9,21.9,13.6,21.9z"/>
	</g>
	<g>
		<path d="M14,24c-4.4,0-8-3.6-8-8c0-0.3,0.2-0.5,0.5-0.5S7,15.7,7,16c0,3.9,3.1,7,7,7c0.3,0,0.5,0.2,0.5,0.5S14.3,24,14,24z"/>
	</g>
	<g>
		<path d="M13.6,19.9c-1.9,0-3.5-1.6-3.5-3.5c0-0.3,0.2-0.5,0.5-0.5s0.5,0.2,0.5,0.5c0,1.4,1.1,2.5,2.5,2.5c0.3,0,0.5,0.2,0.5,0.5
			S13.9,19.9,13.6,19.9z"/>
	</g>
	<g>
		<path d="M24.5,9c-0.1,0-0.3,0-0.4-0.1l-1-1c-0.2-0.2-0.2-0.5,0-0.7l1-1c0.2-0.2,0.5-0.2,0.7,0l1,1c0.2,0.2,0.2,0.5,0,0.7l-1,1
			C24.8,9,24.6,9,24.5,9z M24.2,7.5l0.3,0.3l0.3-0.3l-0.3-0.3L24.2,7.5z"/>
	</g>
	<g>
		<path d="M22.5,7c-0.1,0-0.3,0-0.4-0.1l-1-1c-0.2-0.2-0.2-0.5,0-0.7l1-1c0.2-0.2,0.5-0.2,0.7,0l1,1c0.2,0.2,0.2,0.5,0,0.7l-1,1
			C22.8,7,22.6,7,22.5,7z M22.2,5.5l0.3,0.3l0.3-0.3l-0.3-0.3L22.2,5.5z"/>
	</g>
</g>
</svg>
