<?xml version="1.0" encoding="iso-8859-1"?>
<!-- Generator: Adobe Illustrator 19.0.0, SVG Export Plug-In . SVG Version: 6.00 Build 0)  -->
<svg version="1.1" id="Layer_1" xmlns="http://www.w3.org/2000/svg" xmlns:xlink="http://www.w3.org/1999/xlink" x="0px" y="0px"
	 viewBox="0 0 24 24" style="enable-background:new 0 0 24 24;" xml:space="preserve">
<path d="M15.5,0h-7C6.57,0,5,1.57,5,3.5v17C5,22.43,6.57,24,8.5,24h7c1.93,0,3.5-1.57,3.5-3.5v-17C19,1.57,17.43,0,15.5,0z M12,3
	c1.103,0,2,0.897,2,2s-0.897,2-2,2s-2-0.897-2-2S10.897,3,12,3z M15.5,21h-7C8.224,21,8,20.776,8,20.5S8.224,20,8.5,20h7
	c0.276,0,0.5,0.224,0.5,0.5S15.776,21,15.5,21z M15.5,4C15.224,4,15,3.776,15,3.5C15,3.224,15.224,3,15.5,3S16,3.224,16,3.5
	C16,3.776,15.776,4,15.5,4z"/>
<g>
</g>
<g>
</g>
<g>
</g>
<g>
</g>
<g>
</g>
<g>
</g>
<g>
</g>
<g>
</g>
<g>
</g>
<g>
</g>
<g>
</g>
<g>
</g>
<g>
</g>
<g>
</g>
<g>
</g>
</svg>
