<?xml version="1.0" encoding="iso-8859-1"?>
<!-- Generator: Adobe Illustrator 19.0.0, SVG Export Plug-In . SVG Version: 6.00 Build 0)  -->
<svg version="1.1" id="Layer_1" xmlns="http://www.w3.org/2000/svg" xmlns:xlink="http://www.w3.org/1999/xlink" x="0px" y="0px"
	 viewBox="0 0 24 24" style="enable-background:new 0 0 24 24;" xml:space="preserve">
<g>
	<path d="M23.777,9.584l-4-2.667c-0.155-0.102-0.351-0.112-0.514-0.025C19.102,6.979,19,7.149,19,7.333v9.523
		c0,0.226,0.151,0.424,0.369,0.483c0.044,0.012,0.088,0.017,0.131,0.017c0.175,0,0.341-0.092,0.432-0.248l4-6.857
		C24.065,10.023,23.997,9.73,23.777,9.584z"/>
	<path d="M18.152,18.343C17.938,18.447,17.719,18.5,17.5,18.5h-6.4c-0.228,0-0.427,0.154-0.484,0.375
		c-0.057,0.221,0.042,0.452,0.241,0.563l5.4,3c0.077,0.043,0.16,0.063,0.243,0.063c0.172,0,0.339-0.089,0.432-0.248l1.871-3.208
		c0.111-0.19,0.085-0.431-0.065-0.592C18.588,18.292,18.349,18.247,18.152,18.343z"/>
	<path d="M5.262,10.816C5.443,10.671,5.501,10.42,5.4,10.21C5.135,9.652,5,9.077,5,8.5c0-2.206,1.794-4,4-4s4,1.794,4,4
		c0,0.577-0.135,1.152-0.4,1.71c-0.101,0.21-0.043,0.461,0.139,0.606C14.176,11.965,15,13.672,15,15.5V17c0,0.276,0.224,0.5,0.5,0.5
		h2c0.276,0,0.5-0.224,0.5-0.5V2c0-0.276-0.224-0.5-0.5-0.5h-17C0.224,1.5,0,1.724,0,2v15c0,0.276,0.224,0.5,0.5,0.5h2
		C2.776,17.5,3,17.276,3,17v-1.5C3,13.672,3.824,11.965,5.262,10.816z"/>
	<path d="M14,17v-1.5c0-2.109-1.317-3.908-3.168-4.641C11.537,10.309,12,9.461,12,8.5c0-1.654-1.346-3-3-3s-3,1.346-3,3
		c0,0.961,0.463,1.809,1.168,2.359C5.317,11.592,4,13.391,4,15.5V17c0,0.276,0.224,0.5,0.5,0.5h9C13.776,17.5,14,17.276,14,17z"/>
</g>
<g>
</g>
<g>
</g>
<g>
</g>
<g>
</g>
<g>
</g>
<g>
</g>
<g>
</g>
<g>
</g>
<g>
</g>
<g>
</g>
<g>
</g>
<g>
</g>
<g>
</g>
<g>
</g>
<g>
</g>
</svg>
