<?xml version="1.0" encoding="iso-8859-1"?>
<!-- Generator: Adobe Illustrator 19.0.0, SVG Export Plug-In . SVG Version: 6.00 Build 0)  -->
<svg version="1.1" id="Layer_1" xmlns="http://www.w3.org/2000/svg" xmlns:xlink="http://www.w3.org/1999/xlink" x="0px" y="0px"
	 viewBox="0 0 24 24" style="enable-background:new 0 0 24 24;" xml:space="preserve">
<g>
	<path d="M19.5,20c-0.276,0-0.5,0.224-0.5,0.5V23H3V7h5.5C8.776,7,9,6.776,9,6.5V1h10v9.5c0,0.276,0.224,0.5,0.5,0.5
		s0.5-0.224,0.5-0.5v-10C20,0.224,19.776,0,19.5,0h-11C8.433,0,8.367,0.014,8.306,0.039c-0.019,0.008-0.033,0.023-0.05,0.034
		c-0.038,0.022-0.078,0.042-0.11,0.073l-6,6C2.123,6.169,2.11,6.2,2.092,6.227c-0.018,0.027-0.041,0.05-0.053,0.08
		C2.014,6.368,2,6.433,2,6.5v17C2,23.776,2.224,24,2.5,24h17c0.276,0,0.5-0.224,0.5-0.5v-3C20,20.224,19.776,20,19.5,20z M3.707,6
		L8,1.707V6H3.707z"/>
	<path d="M19.5,12h-1c-0.276,0-0.5,0.224-0.5,0.5v6c0,0.276,0.224,0.5,0.5,0.5h1c1.378,0,2.5-1.122,2.5-2.5v-2
		C22,13.122,20.878,12,19.5,12z M21,16.5c0,0.827-0.673,1.5-1.5,1.5H19v-5h0.5c0.827,0,1.5,0.673,1.5,1.5V16.5z"/>
	<path d="M16.777,12.084c-0.231-0.153-0.54-0.09-0.693,0.139L14.5,14.6l-1.584-2.377c-0.153-0.23-0.463-0.292-0.693-0.139
		s-0.292,0.463-0.139,0.693l1.816,2.724l-1.815,2.722c-0.153,0.23-0.091,0.54,0.139,0.693C12.309,18.973,12.405,19,12.5,19
		c0.161,0,0.32-0.078,0.416-0.223l1.583-2.375l1.583,2.375C16.18,18.922,16.338,19,16.5,19c0.096,0,0.192-0.027,0.276-0.084
		c0.23-0.153,0.292-0.463,0.139-0.693L15.1,15.501l1.816-2.724C17.069,12.547,17.007,12.237,16.777,12.084z"/>
	<path d="M11,14c0-1.103-0.897-2-2-2s-2,0.897-2,2v3c0,1.103,0.897,2,2,2c0.37,0,0.712-0.108,1.009-0.283l0.137,0.137
		C10.244,18.951,10.372,19,10.5,19s0.256-0.049,0.353-0.146c0.195-0.195,0.195-0.512,0-0.707l-0.137-0.137
		C10.892,17.713,11,17.37,11,17V14z M9.853,17.147c-0.195-0.195-0.512-0.195-0.707,0s-0.195,0.512,0,0.707l0.097,0.097
		C9.163,17.971,9.086,18,9,18c-0.551,0-1-0.449-1-1v-3c0-0.551,0.449-1,1-1s1,0.449,1,1v3c0,0.087-0.029,0.164-0.049,0.244
		L9.853,17.147z"/>
</g>
</svg>
