<?xml version="1.0" encoding="utf-8"?>
<!-- Generator: Adobe Illustrator 19.0.0, SVG Export Plug-In . SVG Version: 6.00 Build 0)  -->
<svg version="1.1" id="Layer_1" xmlns="http://www.w3.org/2000/svg" xmlns:xlink="http://www.w3.org/1999/xlink" x="0px" y="0px"
	 viewBox="0 0 30 30" style="enable-background:new 0 0 30 30;" xml:space="preserve">
<g>
	<path d="M25.5,28.5c-0.3,0-0.5,0.2-0.5,0.5c-0.3,0-0.5,0.2-0.5,0.5S24.7,30,25,30h0.5c0.3,0,0.5-0.2,0.5-0.5V29
		C26,28.7,25.8,28.5,25.5,28.5z"/>
	<path d="M11,29h-1c-0.3,0-0.5,0.2-0.5,0.5S9.7,30,10,30h1c0.3,0,0.5-0.2,0.5-0.5S11.3,29,11,29z"/>
	<path d="M14,29h-1c-0.3,0-0.5,0.2-0.5,0.5S12.7,30,13,30h1c0.3,0,0.5-0.2,0.5-0.5S14.3,29,14,29z"/>
	<path d="M17,29h-1c-0.3,0-0.5,0.2-0.5,0.5S15.7,30,16,30h1c0.3,0,0.5-0.2,0.5-0.5S17.3,29,17,29z"/>
	<path d="M23,29h-1c-0.3,0-0.5,0.2-0.5,0.5S21.7,30,22,30h1c0.3,0,0.5-0.2,0.5-0.5S23.3,29,23,29z"/>
	<path d="M20,29h-1c-0.3,0-0.5,0.2-0.5,0.5S18.7,30,19,30h1c0.3,0,0.5-0.2,0.5-0.5S20.3,29,20,29z"/>
	<path d="M8,29H7c-0.3,0-0.5,0.2-0.5,0.5S6.7,30,7,30h1c0.3,0,0.5-0.2,0.5-0.5S8.3,29,8,29z"/>
	<path d="M5,29c0-0.3-0.2-0.5-0.5-0.5S4,28.7,4,29v0.5C4,29.8,4.2,30,4.5,30H5c0.3,0,0.5-0.2,0.5-0.5S5.3,29,5,29z"/>
	<path d="M4.5,14.8c0.3,0,0.5-0.2,0.5-0.5v-1.1c0-0.3-0.2-0.5-0.5-0.5S4,13,4,13.3v1.1C4,14.6,4.2,14.8,4.5,14.8z"/>
	<path d="M4.5,11.7c0.3,0,0.5-0.2,0.5-0.5v-1.1c0-0.3-0.2-0.5-0.5-0.5S4,9.8,4,10.1v1.1C4,11.4,4.2,11.7,4.5,11.7z"/>
	<path d="M4.5,17.9c0.3,0,0.5-0.2,0.5-0.5v-1.1c0-0.3-0.2-0.5-0.5-0.5S4,16.1,4,16.4v1.1C4,17.7,4.2,17.9,4.5,17.9z"/>
	<path d="M4.5,27.4c0.3,0,0.5-0.2,0.5-0.5v-1.1c0-0.3-0.2-0.5-0.5-0.5S4,25.6,4,25.8v1.1C4,27.2,4.2,27.4,4.5,27.4z"/>
	<path d="M4.5,21.1c0.3,0,0.5-0.2,0.5-0.5v-1.1C5,19.3,4.8,19,4.5,19S4,19.3,4,19.5v1.1C4,20.9,4.2,21.1,4.5,21.1z"/>
	<path d="M4.5,24.3C4.8,24.3,5,24,5,23.8v-1.1c0-0.3-0.2-0.5-0.5-0.5S4,22.4,4,22.7v1.1C4,24,4.2,24.3,4.5,24.3z"/>
	<path d="M5.3,6.8c-0.2-0.2-0.5-0.2-0.7,0L4.2,7.1c0,0,0,0,0,0c0,0-0.1,0.1-0.1,0.1c0,0,0,0,0,0c0,0.1,0,0.1,0,0.2V8
		c0,0.3,0.2,0.5,0.5,0.5S5,8.3,5,8c0.3,0,0.5-0.2,0.5-0.5c0-0.1-0.1-0.2-0.1-0.3C5.4,7.1,5.3,6.9,5.3,6.8z"/>
	<path d="M9.6,3.7c0.2-0.2,0.2-0.5,0-0.7C9.5,2.7,9.2,2.7,9,2.9L8.3,3.6C8,3.7,8,4.1,8.2,4.3c0.1,0.1,0.2,0.2,0.4,0.2
		c0.1,0,0.2,0,0.3-0.1L9.6,3.7z"/>
	<path d="M14.2,0h-1c-0.1,0-0.3,0.1-0.3,0.1C12.8,0.1,12.6,0,12.5,0C12.2,0,12,0.2,12,0.5V1c0,0.3,0.2,0.5,0.5,0.5S13,1.3,13,1v0
		c0.1,0,0.1,0,0.2,0h1c0.3,0,0.5-0.2,0.5-0.5S14.5,0,14.2,0z"/>
	<path d="M6.7,6.3l0.7-0.6c0.2-0.2,0.2-0.5,0-0.7C7.3,4.7,7,4.7,6.8,4.8L6,5.5C5.8,5.7,5.8,6,6,6.2c0.1,0.1,0.2,0.2,0.4,0.2
		C6.5,6.4,6.6,6.3,6.7,6.3z"/>
	<path d="M23,0h-1c-0.3,0-0.5,0.2-0.5,0.5S21.8,1,22,1h1c0.3,0,0.5-0.2,0.5-0.5S23.3,0,23,0z"/>
	<path d="M10.8,2.5c0.1,0,0.2,0,0.3-0.1l0.7-0.6c0.2-0.2,0.2-0.5,0-0.7c-0.2-0.2-0.5-0.2-0.7,0l-0.7,0.6c-0.2,0.2-0.2,0.5,0,0.7
		C10.5,2.4,10.7,2.5,10.8,2.5z"/>
	<path d="M20.1,0h-1c-0.3,0-0.5,0.2-0.5,0.5S18.8,1,19.1,1h1c0.3,0,0.5-0.2,0.5-0.5S20.4,0,20.1,0z"/>
	<path d="M17.1,0h-1c-0.3,0-0.5,0.2-0.5,0.5S15.9,1,16.1,1h1c0.3,0,0.5-0.2,0.5-0.5S17.4,0,17.1,0z"/>
	<path d="M25.5,0H25c-0.3,0-0.5,0.2-0.5,0.5S24.7,1,25,1c0,0.3,0.2,0.5,0.5,0.5S26,1.3,26,1V0.5C26,0.2,25.8,0,25.5,0z"/>
	<path d="M25.5,25.6c-0.3,0-0.5,0.2-0.5,0.5v1c0,0.3,0.2,0.5,0.5,0.5s0.5-0.2,0.5-0.5v-1C26,25.8,25.8,25.6,25.5,25.6z"/>
	<path d="M25.5,8.2c-0.3,0-0.5,0.2-0.5,0.5v1c0,0.3,0.2,0.5,0.5,0.5S26,10,26,9.7v-1C26,8.4,25.8,8.2,25.5,8.2z"/>
	<path d="M25.5,11.1c-0.3,0-0.5,0.2-0.5,0.5v1c0,0.3,0.2,0.5,0.5,0.5s0.5-0.2,0.5-0.5v-1C26,11.3,25.8,11.1,25.5,11.1z"/>
	<path d="M25.5,14c-0.3,0-0.5,0.2-0.5,0.5v1c0,0.3,0.2,0.5,0.5,0.5s0.5-0.2,0.5-0.5v-1C26,14.2,25.8,14,25.5,14z"/>
	<path d="M25.5,5.3c-0.3,0-0.5,0.2-0.5,0.5v1c0,0.3,0.2,0.5,0.5,0.5S26,7.1,26,6.8v-1C26,5.6,25.8,5.3,25.5,5.3z"/>
	<path d="M25.5,2.4c-0.3,0-0.5,0.2-0.5,0.5v1c0,0.3,0.2,0.5,0.5,0.5S26,4.2,26,3.9v-1C26,2.7,25.8,2.4,25.5,2.4z"/>
	<path d="M25.5,22.7c-0.3,0-0.5,0.2-0.5,0.5v1c0,0.3,0.2,0.5,0.5,0.5s0.5-0.2,0.5-0.5v-1C26,22.9,25.8,22.7,25.5,22.7z"/>
	<path d="M25.5,16.9c-0.3,0-0.5,0.2-0.5,0.5v1c0,0.3,0.2,0.5,0.5,0.5s0.5-0.2,0.5-0.5v-1C26,17.1,25.8,16.9,25.5,16.9z"/>
	<path d="M25.5,19.8c-0.3,0-0.5,0.2-0.5,0.5v1c0,0.3,0.2,0.5,0.5,0.5s0.5-0.2,0.5-0.5v-1C26,20,25.8,19.8,25.5,19.8z"/>
	<path d="M7.6,8c0.3,0,0.5-0.2,0.5-0.5S7.9,7,7.6,7H6.8C6.5,7,6.3,7.2,6.3,7.5S6.5,8,6.8,8H7.6z"/>
	<path d="M10.8,7.5c0-0.3-0.2-0.5-0.5-0.5H9.4C9.1,7,8.9,7.2,8.9,7.5S9.1,8,9.4,8h0.9C10.5,8,10.8,7.8,10.8,7.5z"/>
	<path d="M13,7.5V7c0-0.3-0.2-0.5-0.5-0.5S12,6.7,12,7c-0.3,0-0.5,0.2-0.5,0.5S11.7,8,12,8h0.5C12.8,8,13,7.8,13,7.5z"/>
	<path d="M12.5,5.1c0.3,0,0.5-0.2,0.5-0.5V3.4c0-0.3-0.2-0.5-0.5-0.5S12,3.1,12,3.4v1.2C12,4.9,12.2,5.1,12.5,5.1z"/>
</g>
</svg>
