<?xml version="1.0" encoding="iso-8859-1"?>
<!-- Generator: Adobe Illustrator 19.2.1, SVG Export Plug-In . SVG Version: 6.00 Build 0)  -->
<svg version="1.1" id="Layer_1" xmlns="http://www.w3.org/2000/svg" xmlns:xlink="http://www.w3.org/1999/xlink" x="0px" y="0px"
	 viewBox="0 0 24 24" style="enable-background:new 0 0 24 24;" xml:space="preserve">
<g>
	<g>
		<path d="M18.5,13c-3.032,0-5.5,2.468-5.5,5.5s2.468,5.5,5.5,5.5s5.5-2.468,5.5-5.5S21.532,13,18.5,13z M18.5,17
			c0.276,0,0.5,0.224,0.5,0.5S18.776,18,18.5,18H17v1h1.5c0.276,0,0.5,0.224,0.5,0.5S18.776,20,18.5,20H17c0,0.542,0.687,1,1.502,1
			c0.965,0,1.47-0.183,1.5-0.542c0.023-0.275,0.295-0.473,0.54-0.456c0.275,0.023,0.479,0.266,0.456,0.54
			C20.916,21.51,20.076,22,18.502,22C17.122,22,16,21.103,16,20h-0.5c-0.276,0-0.5-0.224-0.5-0.5s0.224-0.5,0.5-0.5H16v-1h-0.5
			c-0.276,0-0.5-0.224-0.5-0.5s0.224-0.5,0.5-0.5H16c0-1.103,1.122-2,2.502-2c1.574,0,2.414,0.49,2.496,1.458
			c0.023,0.274-0.181,0.517-0.456,0.54c-0.253,0.012-0.518-0.181-0.54-0.456c-0.03-0.359-0.535-0.542-1.5-0.542
			C17.688,16,17,16.458,17,17H18.5z M11.5,21h-9C1.673,21,1,20.327,1,19.5V5h20v7c0,0.276,0.224,0.5,0.5,0.5S22,12.276,22,12V2.5
			C22,1.121,20.878,0,19.5,0h-17C1.122,0,0,1.121,0,2.5v17C0,20.879,1.122,22,2.5,22h9c0.276,0,0.5-0.224,0.5-0.5S11.776,21,11.5,21
			z M6.5,2C6.776,2,7,2.224,7,2.5S6.776,3,6.5,3S6,2.776,6,2.5S6.224,2,6.5,2z M4.5,2C4.776,2,5,2.224,5,2.5S4.776,3,4.5,3
			S4,2.776,4,2.5S4.224,2,4.5,2z M2.5,2C2.776,2,3,2.224,3,2.5S2.776,3,2.5,3S2,2.776,2,2.5S2.224,2,2.5,2z"/>
	</g>
</g>
</svg>
