<?xml version="1.0" encoding="iso-8859-1"?>
<!-- Generator: Adobe Illustrator 19.2.1, SVG Export Plug-In . SVG Version: 6.00 Build 0)  -->
<svg version="1.1" id="Layer_1" xmlns="http://www.w3.org/2000/svg" xmlns:xlink="http://www.w3.org/1999/xlink" x="0px" y="0px"
	 viewBox="0 0 24 24" style="enable-background:new 0 0 24 24;" xml:space="preserve">
<g>
	<g>
		<path d="M9.5,13.5h4c0.276,0,0.5-0.224,0.5-0.5V9c0-0.276-0.224-0.5-0.5-0.5h-4C9.224,8.5,9,8.724,9,9v4
			C9,13.276,9.224,13.5,9.5,13.5z M2.5,10.5h2C4.776,10.5,5,10.276,5,10V8c0-0.276-0.224-0.5-0.5-0.5h-2C2.224,7.5,2,7.724,2,8v2
			C2,10.276,2.224,10.5,2.5,10.5z M21.5,1.5h-19C1.122,1.5,0,2.622,0,4v16c0,1.378,1.122,2.5,2.5,2.5h19c1.378,0,2.5-1.122,2.5-2.5
			V4C24,2.622,22.878,1.5,21.5,1.5z M4.5,3.5C4.776,3.5,5,3.724,5,4S4.776,4.5,4.5,4.5S4,4.276,4,4S4.224,3.5,4.5,3.5z M2.5,3.5
			C2.776,3.5,3,3.724,3,4S2.776,4.5,2.5,4.5S2,4.276,2,4S2.224,3.5,2.5,3.5z M6,21.5H2.5C1.673,21.5,1,20.827,1,20V6.5h5V21.5z
			 M6.5,4.5C6.224,4.5,6,4.276,6,4s0.224-0.5,0.5-0.5S7,3.724,7,4S6.776,4.5,6.5,4.5z M23,20c0,0.827-0.673,1.5-1.5,1.5H7v-15h16V20
			z M2.5,15.5h2C4.776,15.5,5,15.276,5,15v-2c0-0.276-0.224-0.5-0.5-0.5h-2C2.224,12.5,2,12.724,2,13v2
			C2,15.276,2.224,15.5,2.5,15.5z M16.5,19.5h4c0.276,0,0.5-0.224,0.5-0.5v-4c0-0.276-0.224-0.5-0.5-0.5h-4
			c-0.276,0-0.5,0.224-0.5,0.5v4C16,19.276,16.224,19.5,16.5,19.5z M2.5,20.5h2C4.776,20.5,5,20.276,5,20v-2
			c0-0.276-0.224-0.5-0.5-0.5h-2C2.224,17.5,2,17.724,2,18v2C2,20.276,2.224,20.5,2.5,20.5z M16.5,13.5h4c0.276,0,0.5-0.224,0.5-0.5
			V9c0-0.276-0.224-0.5-0.5-0.5h-4C16.224,8.5,16,8.724,16,9v4C16,13.276,16.224,13.5,16.5,13.5z M9.5,19.5h4
			c0.276,0,0.5-0.224,0.5-0.5v-4c0-0.276-0.224-0.5-0.5-0.5h-4C9.224,14.5,9,14.724,9,15v4C9,19.276,9.224,19.5,9.5,19.5z"/>
	</g>
</g>
</svg>
