<?xml version="1.0" encoding="iso-8859-1"?>
<!-- Generator: Adobe Illustrator 19.0.0, SVG Export Plug-In . SVG Version: 6.00 Build 0)  -->
<svg version="1.1" id="Layer_1" xmlns="http://www.w3.org/2000/svg" xmlns:xlink="http://www.w3.org/1999/xlink" x="0px" y="0px"
	 viewBox="0 0 24 24" style="enable-background:new 0 0 24 24;" xml:space="preserve">
<g>
	<g>
		<path d="M5,13.5c-1.105,0-2,0.895-2,2s0.895,2,2,2s2-0.895,2-2S6.105,13.5,5,13.5z M9.95,11.5h2.55c3.032,0,5.5-2.467,5.5-5.5
			s-2.468-5.5-5.5-5.5c-2.141,0-4.077,1.275-4.967,3.188C6.71,2.925,5.642,2.5,4.5,2.5C2.019,2.5,0,4.519,0,7
			c0,2.481,2.019,4.5,4.5,4.5h0.55c0.232,1.14,1.243,2,2.45,2C8.707,13.5,9.718,12.64,9.95,11.5z M1.5,16.5
			C0.672,16.5,0,17.172,0,18s0.672,1.5,1.5,1.5S3,18.828,3,18S2.328,16.5,1.5,16.5z M19,17.5c-1.105,0-2,0.895-2,2s0.895,2,2,2
			s2-0.895,2-2S20.105,17.5,19,17.5z M22.5,20.5c-0.828,0-1.5,0.672-1.5,1.5s0.672,1.5,1.5,1.5S24,22.828,24,22
			S23.328,20.5,22.5,20.5z M18.95,15.5h0.55c2.481,0,4.5-2.019,4.5-4.5c0-2.479-2.014-4.495-4.58-4.495h-0.01
			c-0.245,0.004-0.451,0.186-0.486,0.428C18.465,10.107,15.703,12.5,12.5,12.5h-1.085c-0.108,0-0.213,0.035-0.3,0.1l-1.111,0.84
			c-0.241,0.248-0.528,0.463-0.854,0.638c-0.166,0.09-0.267,0.266-0.262,0.455c0.006,0.188,0.117,0.358,0.288,0.438
			c0.751,0.352,1.532,0.53,2.323,0.53h2.55c0.232,1.14,1.243,2,2.45,2C17.706,17.501,18.718,16.64,18.95,15.5z"/>
	</g>
</g>
</svg>
