<?xml version="1.0" encoding="iso-8859-1"?>
<!-- Generator: Adobe Illustrator 19.0.0, SVG Export Plug-In . SVG Version: 6.00 Build 0)  -->
<svg version="1.1" id="Layer_1" xmlns="http://www.w3.org/2000/svg" xmlns:xlink="http://www.w3.org/1999/xlink" x="0px" y="0px"
	 viewBox="0 0 24 24" style="enable-background:new 0 0 24 24;" xml:space="preserve">
<g>
	<g>
		<path d="M19,10.5c0-3.86-4.262-7-9.5-7c-5.238,0-9.5,3.14-9.5,7c0,1.669,0.788,3.25,2.232,4.511l-2.04,1.595
			c-0.168,0.131-0.234,0.355-0.165,0.557C0.096,17.365,0.287,17.5,0.5,17.5h9C14.738,17.5,19,14.36,19,10.5z M21.767,18.011
			C23.212,16.751,24,15.169,24,13.5c0-2.136-1.298-4.125-3.562-5.459c-0.178-0.104-0.402-0.089-0.563,0.038
			c-0.162,0.128-0.229,0.342-0.168,0.539C19.901,9.253,20,9.886,20,10.5c0,4.396-4.518,7.907-10.285,7.992
			c-0.233,0.003-0.434,0.168-0.481,0.397c-0.048,0.229,0.069,0.46,0.281,0.557c1.51,0.689,3.233,1.054,4.985,1.054h9
			c0.214,0,0.403-0.135,0.473-0.337c0.069-0.202,0.003-0.425-0.165-0.557L21.767,18.011z"/>
	</g>
</g>
</svg>
