<?xml version="1.0" encoding="iso-8859-1"?>
<!-- Generator: Adobe Illustrator 19.0.0, SVG Export Plug-In . SVG Version: 6.00 Build 0)  -->
<svg version="1.1" id="Layer_1" xmlns="http://www.w3.org/2000/svg" xmlns:xlink="http://www.w3.org/1999/xlink" x="0px" y="0px"
	 viewBox="0 0 24 24" style="enable-background:new 0 0 24 24;" xml:space="preserve">
<g>
	<g>
		<path d="M17,9.5c0-4.411-3.589-8-8-8c-4.411,0-8,3.589-8,8c0,1.276,0.309,2.54,0.894,3.67l-1.857,4.645
			c-0.074,0.186-0.031,0.397,0.11,0.539C0.241,18.45,0.37,18.5,0.5,18.5c0.063,0,0.126-0.012,0.186-0.036l4.644-1.858
			C6.461,17.192,7.725,17.5,9,17.5C13.41,17.5,17,13.911,17,9.5z M23.964,21.815l-1.857-4.645C22.691,16.037,23,14.773,23,13.5
			c0-3.137-1.855-5.998-4.727-7.288c-0.179-0.082-0.389-0.048-0.537,0.082c-0.147,0.131-0.204,0.335-0.146,0.523
			C17.862,7.682,18,8.586,18,9.5c0,4.599-3.586,8.533-8.163,8.957c-0.196,0.019-0.363,0.149-0.427,0.335
			c-0.064,0.186-0.013,0.392,0.13,0.527C11.034,20.724,12.974,21.5,15,21.5c1.275,0,2.538-0.308,3.67-0.894l4.645,1.858
			c0.061,0.024,0.123,0.036,0.186,0.036c0.13,0,0.258-0.051,0.354-0.146C23.995,22.213,24.037,22,23.964,21.815z"/>
	</g>
</g>
</svg>
