<?xml version="1.0" encoding="iso-8859-1"?>
<!-- Generator: Adobe Illustrator 19.0.0, SVG Export Plug-In . SVG Version: 6.00 Build 0)  -->
<svg version="1.1" id="Layer_1" xmlns="http://www.w3.org/2000/svg" xmlns:xlink="http://www.w3.org/1999/xlink" x="0px" y="0px"
	 viewBox="0 0 24 24" style="enable-background:new 0 0 24 24;" xml:space="preserve">
<g>
	<path d="M20.104,10.646c-1.297-1.297-3.41-1.297-4.707,0l-7.5,7.5c-0.879,0.879-2.414,0.879-3.293,0
		c-0.908-0.908-0.908-2.385,0-3.293l1.5-1.5l1.652-1.652c0.275,0.245,0.623,0.385,0.994,0.385c0.4,0,0.777-0.156,1.061-0.439
		l0.621-0.621c0.261,0.09,0.534,0.147,0.818,0.147c0.668,0,1.295-0.26,1.768-0.732l3.586-3.586c0.195-0.195,0.195-0.512,0-0.707
		L16.457,6l1.146-1.146c0.195-0.195,0.195-0.512,0-0.707L16.457,3l1.146-1.146c0.195-0.195,0.195-0.512,0-0.707
		s-0.512-0.195-0.707,0L15.75,2.293l-1.146-1.146c-0.195-0.195-0.512-0.195-0.707,0L12.75,2.293l-0.146-0.146
		c-0.195-0.195-0.512-0.195-0.707,0L8.311,5.732C7.612,6.431,7.423,7.441,7.726,8.317L7.104,8.939C6.82,9.223,6.664,9.6,6.664,10
		c0,0.371,0.139,0.719,0.385,0.994l-1.652,1.652l-1.5,1.5c-1.298,1.298-1.298,3.409,0,4.707c1.297,1.297,3.41,1.297,4.707,0l7.5-7.5
		c0.908-0.908,2.385-0.908,3.293,0s0.908,2.385,0,3.293l-7.5,7.5c-0.195,0.195-0.195,0.512,0,0.707
		C11.994,22.951,12.122,23,12.25,23s0.256-0.049,0.354-0.146l7.5-7.5C21.401,14.056,21.401,11.944,20.104,10.646z M14.25,2.207
		L16.543,4.5L15.75,5.293L13.457,3L14.25,2.207z"/>
</g>
<g>
</g>
<g>
</g>
<g>
</g>
<g>
</g>
<g>
</g>
<g>
</g>
<g>
</g>
<g>
</g>
<g>
</g>
<g>
</g>
<g>
</g>
<g>
</g>
<g>
</g>
<g>
</g>
<g>
</g>
</svg>
