<?xml version="1.0" encoding="iso-8859-1"?>
<!-- Generator: Adobe Illustrator 19.0.0, SVG Export Plug-In . SVG Version: 6.00 Build 0)  -->
<svg version="1.1" id="Layer_1" xmlns="http://www.w3.org/2000/svg" xmlns:xlink="http://www.w3.org/1999/xlink" x="0px" y="0px"
	 viewBox="0 0 24 24" style="enable-background:new 0 0 24 24;" xml:space="preserve">
<g>
	<path d="M5.5,8C4.122,8,3,9.122,3,10.5S4.122,13,5.5,13S8,11.878,8,10.5S6.878,8,5.5,8z M5.85,10.85C5.75,10.95,5.63,11,5.5,11
		c-0.13,0-0.26-0.05-0.35-0.14C5.05,10.76,5,10.63,5,10.5c0-0.13,0.05-0.25,0.14-0.35c0.2-0.19,0.53-0.19,0.71,0
		C5.95,10.24,6,10.37,6,10.5C6,10.63,5.95,10.76,5.85,10.85z"/>
	<path d="M18.5,8C17.122,8,16,9.122,16,10.5s1.122,2.5,2.5,2.5s2.5-1.122,2.5-2.5S19.878,8,18.5,8z M18.85,10.85
		C18.76,10.95,18.63,11,18.5,11c-0.13,0-0.26-0.05-0.35-0.15C18.05,10.76,18,10.63,18,10.5c0-0.13,0.05-0.25,0.14-0.35
		c0.19-0.19,0.53-0.19,0.71,0c0.1,0.09,0.15,0.22,0.15,0.35C19,10.63,18.95,10.76,18.85,10.85z"/>
	<path d="M19.5,5h-15C2.019,5,0,7.019,0,9.5v5C0,16.981,2.019,19,4.5,19h15c2.481,0,4.5-2.019,4.5-4.5v-5C24,7.019,21.981,5,19.5,5z
		 M12.5,8H13V7.5C13,7.224,13.224,7,13.5,7S14,7.224,14,7.5V8h0.5C14.776,8,15,8.224,15,8.5S14.776,9,14.5,9H14v4.5
		c0,0.276-0.224,0.5-0.5,0.5S13,13.776,13,13.5V9h-0.5C12.224,9,12,8.776,12,8.5S12.224,8,12.5,8z M9.5,12H10V7.5
		C10,7.224,10.224,7,10.5,7S11,7.224,11,7.5V12h0.5c0.276,0,0.5,0.224,0.5,0.5S11.776,13,11.5,13H11v0.5c0,0.276-0.224,0.5-0.5,0.5
		S10,13.776,10,13.5V13H9.5C9.224,13,9,12.776,9,12.5S9.224,12,9.5,12z M4.85,15.85C4.76,15.95,4.63,16,4.5,16
		c-0.13,0-0.26-0.05-0.35-0.15C4.05,15.76,4,15.63,4,15.5c0-0.13,0.05-0.25,0.14-0.35c0.2-0.19,0.53-0.19,0.71,0
		C4.95,15.24,5,15.37,5,15.5C5,15.63,4.95,15.76,4.85,15.85z M6.85,15.85C6.75,15.95,6.63,16,6.5,16c-0.13,0-0.25-0.05-0.35-0.14
		C6.05,15.76,6,15.63,6,15.5c0-0.13,0.05-0.26,0.15-0.35c0.18-0.19,0.51-0.19,0.7,0C6.95,15.24,7,15.37,7,15.5
		C7,15.63,6.95,15.76,6.85,15.85z M5.5,14C3.57,14,2,12.43,2,10.5S3.57,7,5.5,7S9,8.57,9,10.5S7.43,14,5.5,14z M14.5,16H13v0.5
		c0,0.276-0.224,0.5-0.5,0.5S12,16.776,12,16.5V16H9.5C9.224,16,9,15.776,9,15.5S9.224,15,9.5,15H12v-0.5c0-0.276,0.224-0.5,0.5-0.5
		s0.5,0.224,0.5,0.5V15h1.5c0.276,0,0.5,0.224,0.5,0.5S14.776,16,14.5,16z M17.85,15.85C17.76,15.95,17.63,16,17.5,16
		c-0.13,0-0.26-0.05-0.35-0.15C17.05,15.76,17,15.63,17,15.5c0-0.13,0.05-0.26,0.15-0.35c0.18-0.19,0.51-0.19,0.7,0
		c0.1,0.09,0.15,0.22,0.15,0.35C18,15.63,17.95,15.76,17.85,15.85z M19.86,15.85c-0.1,0.1-0.23,0.15-0.36,0.15
		c-0.13,0-0.26-0.05-0.35-0.15C19.05,15.76,19,15.63,19,15.5c0-0.13,0.05-0.26,0.15-0.35c0.18-0.19,0.52-0.19,0.7,0
		c0.1,0.1,0.15,0.22,0.15,0.35C20,15.63,19.95,15.75,19.86,15.85z M18.5,14c-1.93,0-3.5-1.57-3.5-3.5S16.57,7,18.5,7
		S22,8.57,22,10.5S20.43,14,18.5,14z"/>
</g>
<g>
</g>
<g>
</g>
<g>
</g>
<g>
</g>
<g>
</g>
<g>
</g>
<g>
</g>
<g>
</g>
<g>
</g>
<g>
</g>
<g>
</g>
<g>
</g>
<g>
</g>
<g>
</g>
<g>
</g>
</svg>
