<?xml version="1.0" encoding="iso-8859-1"?>
<!-- Generator: Adobe Illustrator 19.0.0, SVG Export Plug-In . SVG Version: 6.00 Build 0)  -->
<svg version="1.1" id="Layer_1" xmlns="http://www.w3.org/2000/svg" xmlns:xlink="http://www.w3.org/1999/xlink" x="0px" y="0px"
	 viewBox="0 0 24 24" style="enable-background:new 0 0 24 24;" xml:space="preserve">
<g id="drum_sticks">
	<path d="M21.348,18.281l-7.498-6.753c-0.098-0.089-0.231-0.138-0.361-0.128c-0.132,0.007-0.257,0.066-0.346,0.166l-1.516,1.687
		c-0.17,0.19-0.17,0.478,0,0.668l6.682,7.436c0.408,0.408,0.951,0.633,1.528,0.633c0.578,0,1.121-0.225,1.528-0.633
		C21.775,20.948,22,20.405,22,19.828C22,19.251,21.775,18.708,21.348,18.281z"/>
	<g>
		<path d="M2.978,6.024c0.62,0.62,1.405,0.975,2.156,0.975c0.089,0,0.176-0.005,0.262-0.015l3.716,4.136l2.142-1.93L6.999,5.358
			c0.083-0.795-0.276-1.702-0.965-2.391C4.968,1.901,3.352,1.69,2.527,2.516C2.103,2.94,1.922,3.574,2.032,4.256
			C2.134,4.888,2.469,5.516,2.978,6.024z"/>
	</g>
	<path d="M21.473,2.516c-0.825-0.826-2.442-0.615-3.507,0.451c-0.689,0.689-1.047,1.595-0.965,2.391L2.633,18.3
		C2.225,18.708,2,19.251,2,19.828c0,0.578,0.225,1.121,0.633,1.528c0.408,0.408,0.951,0.633,1.528,0.633
		c0.577,0,1.12-0.225,1.547-0.653L18.605,6.984c0.81,0.093,1.724-0.267,2.417-0.96c0.508-0.508,0.844-1.136,0.945-1.768
		C22.078,3.574,21.897,2.94,21.473,2.516z"/>
</g>
<g>
</g>
<g>
</g>
<g>
</g>
<g>
</g>
<g>
</g>
<g>
</g>
<g>
</g>
<g>
</g>
<g>
</g>
<g>
</g>
<g>
</g>
<g>
</g>
<g>
</g>
<g>
</g>
<g>
</g>
</svg>
