<?xml version="1.0" encoding="iso-8859-1"?>
<!-- Generator: Adobe Illustrator 19.0.0, SVG Export Plug-In . SVG Version: 6.00 Build 0)  -->
<svg version="1.1" id="Layer_1" xmlns="http://www.w3.org/2000/svg" xmlns:xlink="http://www.w3.org/1999/xlink" x="0px" y="0px"
	 viewBox="0 0 24 24" style="enable-background:new 0 0 24 24;" xml:space="preserve">
<g id="guitar_head_1_1_">
	<g>
		<circle cx="5.42" cy="7.25" r="1"/>
	</g>
	<g>
		<circle cx="9.42" cy="5.25" r="1"/>
	</g>
	<g>
		<circle cx="13.42" cy="3.25" r="1"/>
	</g>
	<path d="M19.58,2.75c-0.08,0-0.16,0.02-0.231,0.057l-19.16,10C0.023,12.893-0.08,13.064-0.08,13.25v8
		c0,0.179,0.096,0.344,0.251,0.434c0.077,0.044,0.163,0.066,0.249,0.066c0.087,0,0.174-0.022,0.251-0.068l5.044-2.932h5.705
		c0.896,0,1.728-0.483,2.171-1.26l3.279-5.74h2.71c2.481,0,4.5-2.019,4.5-4.5S22.062,2.75,19.58,2.75z M7.77,12.6
		c-0.09,0.1-0.22,0.15-0.35,0.15s-0.26-0.05-0.351-0.14c-0.1-0.1-0.149-0.23-0.149-0.36c0-0.13,0.05-0.26,0.14-0.35
		c0.21-0.2,0.53-0.19,0.71,0c0.101,0.1,0.15,0.22,0.15,0.35C7.92,12.38,7.87,12.51,7.77,12.6z M11.779,10.6
		c-0.1,0.1-0.229,0.15-0.359,0.15s-0.26-0.05-0.351-0.15c-0.1-0.09-0.149-0.22-0.149-0.35c0-0.13,0.05-0.25,0.14-0.35
		c0.19-0.19,0.521-0.19,0.71-0.01c0.101,0.11,0.15,0.23,0.15,0.36C11.92,10.38,11.87,10.51,11.779,10.6z M15.77,8.6
		c-0.09,0.1-0.22,0.15-0.35,0.15S15.16,8.7,15.069,8.6c-0.1-0.09-0.149-0.22-0.149-0.35c0-0.13,0.05-0.26,0.14-0.35
		c0.19-0.19,0.521-0.19,0.71-0.01c0.101,0.1,0.15,0.23,0.15,0.36C15.92,8.38,15.87,8.51,15.77,8.6z"/>
	<g>
		<path d="M6.42,10.25c-0.198,0-0.386-0.119-0.464-0.314l-1-2.5c-0.103-0.256,0.021-0.547,0.278-0.65
			c0.254-0.104,0.547,0.022,0.649,0.279l1,2.5c0.103,0.256-0.021,0.547-0.278,0.65C6.545,10.239,6.481,10.25,6.42,10.25z"/>
	</g>
	<g>
		<path d="M10.42,8.25c-0.198,0-0.386-0.119-0.464-0.314l-1-2.5c-0.103-0.256,0.021-0.547,0.278-0.65
			C9.49,4.682,9.781,4.808,9.884,5.064l1,2.5c0.103,0.256-0.021,0.547-0.278,0.65C10.545,8.239,10.481,8.25,10.42,8.25z"/>
	</g>
	<g>
		<path d="M14.42,6.25c-0.198,0-0.386-0.119-0.464-0.314l-1-2.5c-0.103-0.256,0.021-0.547,0.278-0.65
			c0.256-0.104,0.547,0.021,0.649,0.279l1,2.5c0.103,0.256-0.021,0.547-0.278,0.65C14.545,6.239,14.481,6.25,14.42,6.25z"/>
	</g>
</g>
<g>
</g>
<g>
</g>
<g>
</g>
<g>
</g>
<g>
</g>
<g>
</g>
<g>
</g>
<g>
</g>
<g>
</g>
<g>
</g>
<g>
</g>
<g>
</g>
<g>
</g>
<g>
</g>
<g>
</g>
</svg>
