<?xml version="1.0" encoding="iso-8859-1"?>
<!-- Generator: Adobe Illustrator 19.0.0, SVG Export Plug-In . SVG Version: 6.00 Build 0)  -->
<svg version="1.1" id="Layer_1" xmlns="http://www.w3.org/2000/svg" xmlns:xlink="http://www.w3.org/1999/xlink" x="0px" y="0px"
	 viewBox="0 0 24 24" style="enable-background:new 0 0 24 24;" xml:space="preserve">
<g id="microphone_1">
	<path d="M16.493,23.344c-0.081-1.306-1.169-2.344-2.495-2.344h-4c-1.379,0-2.5,1.122-2.5,2.5c0,0.276,0.224,0.5,0.5,0.5h8
		c0.007,0,0.015,0.001,0.02,0c0.276,0,0.5-0.224,0.5-0.5C16.518,23.445,16.51,23.393,16.493,23.344z"/>
	<g>
		<path d="M7.356,4.563c0.976-1.538,2.69-2.563,4.642-2.563c1.953,0,3.668,1.027,4.644,2.566l0.829-0.829
			c0.163-0.163,0.193-0.417,0.073-0.614C16.349,1.167,14.276,0,12,0S7.651,1.167,6.456,3.122c-0.12,0.197-0.09,0.451,0.073,0.614
			L7.356,4.563z"/>
	</g>
	<g>
		<path d="M11.998,22.999c-0.276,0-0.5-0.224-0.5-0.5v-4c0-0.276,0.224-0.5,0.5-0.5s0.5,0.224,0.5,0.5v4
			C12.498,22.776,12.274,22.999,11.998,22.999z"/>
	</g>
	<g>
		<path style="fill:none;stroke:#FFFFFF;stroke-linecap:round;stroke-linejoin:round;stroke-miterlimit:10;" d="M7.998,9.499"/>
	</g>
	<g>
		<path d="M9.998,6.999c0.276,0,0.5,0.224,0.5,0.5s-0.224,0.5-0.5,0.5h-2.5v2h2.5c0.276,0,0.5,0.224,0.5,0.5s-0.224,0.5-0.5,0.5
			h-2.5v2h9v-2h-2.5c-0.276,0-0.5-0.224-0.5-0.5s0.224-0.5,0.5-0.5h2.5v-2h-2.5c-0.276,0-0.5-0.224-0.5-0.5s0.224-0.5,0.5-0.5h2.449
			c-0.252-2.244-2.139-4-4.449-4s-4.197,1.756-4.449,4H9.998z"/>
		<path d="M7.498,13.999v0.5c0,2.481,2.019,4.5,4.5,4.5s4.5-2.019,4.5-4.5v-0.5H7.498z"/>
	</g>
	<g>
		<path style="fill:none;stroke:#FFFFFF;stroke-linecap:round;stroke-linejoin:round;stroke-miterlimit:10;" d="M13.998,13.499"/>
	</g>
</g>
<g>
</g>
<g>
</g>
<g>
</g>
<g>
</g>
<g>
</g>
<g>
</g>
<g>
</g>
<g>
</g>
<g>
</g>
<g>
</g>
<g>
</g>
<g>
</g>
<g>
</g>
<g>
</g>
<g>
</g>
</svg>
