<?xml version="1.0" encoding="iso-8859-1"?>
<!-- Generator: Adobe Illustrator 19.0.0, SVG Export Plug-In . SVG Version: 6.00 Build 0)  -->
<svg version="1.1" id="Layer_1" xmlns="http://www.w3.org/2000/svg" xmlns:xlink="http://www.w3.org/1999/xlink" x="0px" y="0px"
	 viewBox="0 0 24 24" style="enable-background:new 0 0 24 24;" xml:space="preserve">
<g>
	<g>
		<g>
			<path d="M15.713,16.002c-0.14,0-0.281-0.029-0.416-0.091c-0.502-0.23-0.723-0.824-0.493-1.326l0.688-1.5
				c0.001-0.014,0.045-0.131,0.097-0.265c0.939-2.439,1.444-5.237-1.93-7.486c-1.536-1.023-1.945-2.576-1.945-3.332
				c0-0.553,0.448-1,1-1s1,0.447,1,1c0.001,0.025,0.044,0.994,1.055,1.668c5.161,3.44,3.299,8.279,2.688,9.869l-0.112,0.296
				l-0.721,1.584C16.454,15.787,16.092,16.002,15.713,16.002z"/>
		</g>
	</g>
	<g>
		<path d="M13.641,18.955c-0.323-1.277-1.639-2.102-3.352-2.102c-0.432,0-0.872,0.054-1.306,0.16
			c-1.253,0.308-2.327,1.032-2.872,1.939c-0.377,0.628-0.491,1.3-0.327,1.943c0.323,1.276,1.639,2.102,3.353,2.102
			c0.432,0,0.871-0.054,1.305-0.16c1.253-0.308,2.327-1.032,2.872-1.939C13.692,20.27,13.805,19.598,13.641,18.955z"/>
		<g>
			<g>
				<path d="M12.713,20.502c-0.552,0-1-0.447-1-1v-17.5c0-0.553,0.448-1,1-1s1,0.447,1,1v17.5
					C13.713,20.055,13.265,20.502,12.713,20.502z"/>
			</g>
		</g>
	</g>
</g>
<g>
</g>
<g>
</g>
<g>
</g>
<g>
</g>
<g>
</g>
<g>
</g>
<g>
</g>
<g>
</g>
<g>
</g>
<g>
</g>
<g>
</g>
<g>
</g>
<g>
</g>
<g>
</g>
<g>
</g>
</svg>
