<?xml version="1.0" encoding="iso-8859-1"?>
<!-- Generator: Adobe Illustrator 19.0.0, SVG Export Plug-In . SVG Version: 6.00 Build 0)  -->
<svg version="1.1" id="Layer_1" xmlns="http://www.w3.org/2000/svg" xmlns:xlink="http://www.w3.org/1999/xlink" x="0px" y="0px"
	 viewBox="0 0 24 24" style="enable-background:new 0 0 24 24;" xml:space="preserve">
<g id="rattles">
	<g>
		<path d="M16.62,21.512c-0.019-0.027-1.88-2.767-3.257-5.212c-0.086-0.152-0.244-0.249-0.419-0.254
			c-0.172-0.018-0.34,0.079-0.436,0.226c-0.313,0.478-0.629,0.993-0.938,1.517c-0.094,0.157-0.094,0.353,0,0.51
			c1.199,2.023,2.302,4.185,2.491,4.557c0.066,0.284,0.193,0.521,0.378,0.706C14.723,23.844,15.1,24,15.5,24
			s0.777-0.156,1.061-0.439S17,22.9,17,22.5S16.844,21.723,16.62,21.512z"/>
		<path d="M2.949,9.646C3.395,9.875,3.902,10.134,4.147,10c0.132-0.072,0.105-0.321-0.003-0.853C4.023,8.553,3.84,7.655,4.643,7.217
			c0.71-0.388,1.467-0.001,2.134,0.341c0.47,0.241,0.953,0.488,1.2,0.354c0.134-0.073,0.108-0.323,0-0.855
			c-0.12-0.595-0.302-1.493,0.502-1.932c0.71-0.388,1.468-0.001,2.136,0.34c0.353,0.181,0.715,0.364,0.978,0.387
			c-0.218-0.748-0.54-1.479-0.968-2.161C9.195,1.415,6.922,0,4.691,0C3.793,0,2.97,0.231,2.245,0.686
			C0.979,1.48,0.192,2.854,0.03,4.554c-0.146,1.53,0.239,3.16,1.076,4.635C1.731,9.022,2.372,9.351,2.949,9.646z"/>
		<g>
			<path d="M9.836,15.646c0.865-1.486,1.639-2.908,2.002-3.783c-0.033-1.24,0.036-2.779,0.084-3.486
				c0.003-0.045-0.001-0.09-0.011-0.134c0.015-0.462-0.031-0.931-0.105-1.398c-0.561,0.061-1.131-0.226-1.647-0.489
				c-0.469-0.24-0.953-0.486-1.201-0.353c-0.134,0.073-0.108,0.323,0,0.855c0.12,0.595,0.302,1.493-0.502,1.932
				c-0.71,0.388-1.468,0-2.135-0.341c-0.446-0.229-0.954-0.49-1.199-0.353C4.989,8.167,5.016,8.416,5.124,8.948
				c0.121,0.594,0.305,1.493-0.498,1.93C4.415,10.993,4.2,11.04,3.985,11.04c-0.511,0-1.023-0.263-1.492-0.503
				c-0.239-0.122-0.491-0.248-0.715-0.323c0.997,1.31,2.29,2.266,3.685,2.713c0.825,0.35,3.098,1.379,3.695,1.939
				C9.352,15.047,9.579,15.309,9.836,15.646z"/>
		</g>
	</g>
	<g>
		<path d="M13.395,5.552c0.664-0.325,1.416-0.691,2.119-0.326c0.816,0.426,0.631,1.301,0.509,1.88
			c-0.118,0.559-0.12,0.728-0.007,0.786c0.255,0.131,0.743-0.106,1.216-0.338c0.663-0.324,1.416-0.691,2.118-0.326
			c0.814,0.425,0.629,1.299,0.505,1.878c-0.117,0.551-0.119,0.727-0.01,0.784c0.26,0.135,0.743-0.106,1.215-0.338
			c0.586-0.287,1.242-0.606,1.87-0.424c0.813-1.459,1.184-3.065,1.04-4.573c-0.162-1.7-0.949-3.074-2.215-3.868
			C21.03,0.231,20.207,0,19.309,0c-2.23,0-4.504,1.415-5.934,3.691c-0.441,0.703-0.774,1.458-0.992,2.23
			C12.653,5.911,13.027,5.731,13.395,5.552z"/>
		<path d="M21.499,10.449c-0.467,0.229-0.978,0.479-1.484,0.479c-0.213,0-0.425-0.044-0.633-0.152
			c-0.814-0.425-0.629-1.3-0.505-1.878c0.117-0.551,0.119-0.726,0.01-0.783c-0.257-0.133-0.743,0.106-1.215,0.337
			c-0.662,0.325-1.415,0.694-2.119,0.327c-0.816-0.426-0.631-1.301-0.509-1.88c0.118-0.559,0.12-0.728,0.007-0.786
			c-0.255-0.137-0.745,0.105-1.217,0.337c-0.518,0.254-1.09,0.531-1.654,0.464c-0.066,0.443-0.104,0.886-0.09,1.323
			c-0.01,0.045-0.014,0.092-0.011,0.14c0.071,1.065,0.198,4.038-0.062,4.992c-0.597,2.191-4.589,8.071-4.578,8.071
			C7.156,21.723,7,22.1,7,22.5s0.156,0.777,0.439,1.061S8.1,24,8.5,24s0.777-0.156,1.062-0.44c0.184-0.185,0.311-0.421,0.377-0.705
			c0.323-0.638,3.318-6.504,4.903-7.99c0.597-0.56,2.87-1.59,3.653-1.924c1.465-0.471,2.793-1.463,3.8-2.821
			C22.057,10.184,21.778,10.313,21.499,10.449z"/>
	</g>
</g>
<g>
</g>
<g>
</g>
<g>
</g>
<g>
</g>
<g>
</g>
<g>
</g>
<g>
</g>
<g>
</g>
<g>
</g>
<g>
</g>
<g>
</g>
<g>
</g>
<g>
</g>
<g>
</g>
<g>
</g>
</svg>
