<?xml version="1.0" encoding="iso-8859-1"?>
<!-- Generator: Adobe Illustrator 19.0.0, SVG Export Plug-In . SVG Version: 6.00 Build 0)  -->
<svg version="1.1" id="Layer_1" xmlns="http://www.w3.org/2000/svg" xmlns:xlink="http://www.w3.org/1999/xlink" x="0px" y="0px"
	 viewBox="0 0 24 24" style="enable-background:new 0 0 24 24;" xml:space="preserve">
<g>
	<path d="M18.5,13c-3.033,0-5.5,2.468-5.5,5.5s2.467,5.5,5.5,5.5s5.5-2.468,5.5-5.5S21.533,13,18.5,13z M20.854,20.854
		C20.756,20.951,20.628,21,20.5,21s-0.256-0.049-0.354-0.146l-2-2C18.053,18.76,18,18.633,18,18.5v-3c0-0.276,0.224-0.5,0.5-0.5
		s0.5,0.224,0.5,0.5v2.793l1.854,1.854C21.049,20.342,21.049,20.658,20.854,20.854z"/>
	<path d="M17.5,0h-11C6.435,0,6.37,0.013,6.309,0.038C6.248,0.064,6.192,0.101,6.146,0.147L0.147,6.146
		C0.101,6.192,0.064,6.248,0.038,6.309C0.013,6.37,0,6.435,0,6.5v15C0,21.776,0.224,22,0.5,22h11.686
		c0.172,0,0.331-0.088,0.423-0.233c0.092-0.145,0.103-0.327,0.028-0.481C12.214,20.398,12,19.462,12,18.5
		c0-3.206,2.396-5.968,5.571-6.425C17.817,12.04,18,11.829,18,11.58V0.5C18,0.224,17.776,0,17.5,0z M6,1.707V5.5
		C6,5.776,5.776,6,5.5,6H1.707L6,1.707z M11.5,8H10v5.5c0,0.841-0.879,1.5-2,1.5s-2-0.659-2-1.5S6.879,12,8,12
		c0.369,0,0.706,0.077,1,0.202V7h2.5C11.776,7,12,7.224,12,7.5S11.776,8,11.5,8z"/>
</g>
<g>
</g>
<g>
</g>
<g>
</g>
<g>
</g>
<g>
</g>
<g>
</g>
<g>
</g>
<g>
</g>
<g>
</g>
<g>
</g>
<g>
</g>
<g>
</g>
<g>
</g>
<g>
</g>
<g>
</g>
</svg>
