<?xml version="1.0" encoding="iso-8859-1"?>
<!-- Generator: Adobe Illustrator 19.0.0, SVG Export Plug-In . SVG Version: 6.00 Build 0)  -->
<svg version="1.1" id="Layer_1" xmlns="http://www.w3.org/2000/svg" xmlns:xlink="http://www.w3.org/1999/xlink" x="0px" y="0px"
	 viewBox="0 0 24 24" style="enable-background:new 0 0 24 24;" xml:space="preserve">
<g>
	<g>
		<path d="M20.892,16.389c-0.128,0-0.256-0.049-0.354-0.146c-0.195-0.195-0.195-0.512,0-0.707c1.949-1.95,1.949-5.122,0-7.071
			c-0.195-0.195-0.195-0.512,0-0.707s0.512-0.195,0.707,0c2.34,2.339,2.34,6.146,0,8.485C21.148,16.34,21.02,16.389,20.892,16.389z"
			/>
	</g>
	<g>
		<path d="M19.478,14.975c-0.128,0-0.256-0.049-0.354-0.146c-0.195-0.195-0.195-0.512,0-0.707c1.169-1.17,1.169-3.073,0-4.243
			c-0.195-0.195-0.195-0.512,0-0.707s0.512-0.195,0.707,0c1.56,1.56,1.56,4.098,0,5.657C19.734,14.926,19.606,14.975,19.478,14.975z
			"/>
	</g>
	<path d="M18,10.274V0.5c0-0.196-0.114-0.374-0.293-0.455c-0.179-0.082-0.389-0.05-0.536,0.079L9.312,7H6c-2.757,0-5,2.243-5,5
		s2.243,5,5,5h3.312l7.858,6.876C17.263,23.958,17.38,24,17.5,24c0.07,0,0.141-0.015,0.207-0.045C17.885,23.874,18,23.696,18,23.5
		v-9.774c0.61-0.353,1-1.008,1-1.726S18.61,10.627,18,10.274z M9.5,9H6c-1.654,0-3,1.346-3,3c0,0.276-0.224,0.5-0.5,0.5
		S2,12.276,2,12c0-2.206,1.794-4,4-4h3.5C9.776,8,10,8.224,10,8.5S9.776,9,9.5,9z"/>
</g>
<g>
</g>
<g>
</g>
<g>
</g>
<g>
</g>
<g>
</g>
<g>
</g>
<g>
</g>
<g>
</g>
<g>
</g>
<g>
</g>
<g>
</g>
<g>
</g>
<g>
</g>
<g>
</g>
<g>
</g>
</svg>
