<?xml version="1.0" encoding="utf-8"?>
<!-- Generator: Adobe Illustrator 19.0.0, SVG Export Plug-In . SVG Version: 6.00 Build 0)  -->
<svg version="1.1" id="Layer_1" xmlns="http://www.w3.org/2000/svg" xmlns:xlink="http://www.w3.org/1999/xlink" x="0px" y="0px"
	 viewBox="0 0 30 30" style="enable-background:new 0 0 30 30;" xml:space="preserve">
<g>
	<circle cx="23" cy="23.1" r="2"/>
	<path d="M29.8,21.3c0-0.1-0.1-0.2-0.2-0.3s-0.3-0.1-0.4,0c-0.4,0.1-0.9-0.1-1.1-0.5c-0.2-0.4-0.1-1,0.2-1.3
		c0.1-0.1,0.2-0.2,0.2-0.3s0-0.3-0.1-0.4c-1-1.1-2.2-1.9-3.7-2.2c-0.1,0-0.3,0-0.4,0.1c-0.1,0.1-0.2,0.2-0.2,0.3
		c-0.1,0.5-0.5,0.9-1,0.9s-0.9-0.4-1-0.9c0-0.1-0.1-0.3-0.2-0.3c-0.1-0.1-0.3-0.1-0.4-0.1c-1.4,0.3-2.7,1.1-3.7,2.2
		c-0.1,0.1-0.1,0.2-0.1,0.4s0.1,0.3,0.2,0.3c0.4,0.3,0.5,0.8,0.2,1.3c-0.2,0.4-0.7,0.6-1.1,0.5c-0.1,0-0.3,0-0.4,0
		c-0.1,0.1-0.2,0.2-0.2,0.3c-0.2,0.6-0.2,1.2-0.2,1.8c0,0.8,0.1,1.6,0.4,2.3c0.1,0.2,0.3,0.4,0.6,0.3c0.4-0.1,0.8,0.1,1.1,0.5
		c0.2,0.3,0.2,0.8-0.1,1.1c-0.2,0.2-0.1,0.5,0,0.7c1,1,2.2,1.7,3.6,2c0,0,0.1,0,0.1,0c0.2,0,0.4-0.1,0.5-0.3c0.3-0.7,1.5-0.7,1.8,0
		c0.1,0.2,0.3,0.3,0.6,0.3c1.4-0.3,2.6-1,3.6-2c0.2-0.2,0.2-0.5,0-0.7c-0.2-0.3-0.3-0.8-0.1-1.1c0.2-0.4,0.6-0.6,1.1-0.5
		c0.2,0,0.5-0.1,0.6-0.3c0.3-0.8,0.4-1.5,0.4-2.3C30,22.5,29.9,21.9,29.8,21.3z M23,26.1c-1.7,0-3-1.3-3-3s1.3-3,3-3s3,1.3,3,3
		S24.7,26.1,23,26.1z"/>
	<path d="M16.7,19.8c0.1-0.1,0.1-0.3,0-0.4c0-0.1-0.1-0.2-0.1-0.4c0-0.4,0.1-0.8,0.4-1.1c1.1-1.3,2.6-2.1,4.2-2.5
		c0.4-0.1,0.9,0,1.2,0.2c0.1,0.1,0.2,0.1,0.3,0.2c0.2,0.2,0.6,0.2,0.7,0c0.1-0.1,0.2-0.2,0.3-0.2c0.3-0.2,0.8-0.3,1.2-0.2
		c1.2,0.3,2.4,0.9,3.4,1.7c0.1,0.1,0.4,0.2,0.5,0.1c0.2-0.1,0.3-0.3,0.3-0.5V4.2C29,1.9,27.1,0,24.7,0H4.2C1.9,0,0,1.9,0,4.2v12.5
		C0,19.1,1.9,21,4.2,21h2.5L4,28.3c-0.1,0.2,0,0.4,0.2,0.6C4.3,29,4.4,29,4.5,29c0.1,0,0.2,0,0.3-0.1l9.9-7.9H15
		c0.2,0,0.4-0.1,0.4-0.3c0.1-0.3,0.3-0.5,0.6-0.6c0.1-0.1,0.2-0.1,0.3-0.1C16.5,20,16.6,19.9,16.7,19.8z M16,10c0,1.1-0.9,2-2,2
		s-2-0.9-2-2s0.9-2,2-2S16,8.9,16,10z M6,10c0-1.1,0.9-2,2-2s2,0.9,2,2s-0.9,2-2,2S6,11.1,6,10z M18,10c0-1.1,0.9-2,2-2s2,0.9,2,2
		s-0.9,2-2,2S18,11.1,18,10z"/>
</g>
</svg>
