<?xml version="1.0" encoding="utf-8"?>
<!-- Generator: Adobe Illustrator 19.0.0, SVG Export Plug-In . SVG Version: 6.00 Build 0)  -->
<svg version="1.1" id="Layer_1" xmlns="http://www.w3.org/2000/svg" xmlns:xlink="http://www.w3.org/1999/xlink" x="0px" y="0px"
	 viewBox="0 0 30 30" style="enable-background:new 0 0 30 30;" xml:space="preserve">
<path d="M15,0C7,0,0.5,6.5,0.5,14.5c0,4.2,1.8,8.2,5,10.9v4.1c0,0.2,0.1,0.4,0.3,0.4C5.8,30,5.9,30,6,30c0.1,0,0.2,0,0.3-0.1l3-2.1
	C11.1,28.6,13,29,15,29c8,0,14.5-6.5,14.5-14.5S23,0,15,0z M7.5,16c-0.6,0-1-0.4-1-1s0.4-1,1-1s1,0.4,1,1S8.1,16,7.5,16z M15.5,16
	c-0.6,0-1-0.4-1-1s0.4-1,1-1s1,0.4,1,1S16.1,16,15.5,16z M23.5,16c-0.6,0-1-0.4-1-1s0.4-1,1-1s1,0.4,1,1S24.1,16,23.5,16z"/>
</svg>
