<?xml version="1.0" encoding="iso-8859-1"?>
<!-- Generator: Adobe Illustrator 19.0.0, SVG Export Plug-In . SVG Version: 6.00 Build 0)  -->
<svg version="1.1" id="Layer_1" xmlns="http://www.w3.org/2000/svg" xmlns:xlink="http://www.w3.org/1999/xlink" x="0px" y="0px"
	 viewBox="0 0 30 30" style="enable-background:new 0 0 30 30;" xml:space="preserve">
<g>
	<g>
		<path d="M29.5,26.5v-1c0-0.167-0.084-0.323-0.223-0.416l-0.992-0.661l1.069-1.069c0.195-0.195,0.195-0.512,0-0.707l-0.877-0.877
			l-0.432-3.671c0-0.003-0.002-0.005-0.003-0.009c-0.014-0.365-0.138-0.7-0.342-0.976l-0.339-3.584
			c0.003-0.01,0.007-0.02,0.01-0.031H28.5c0.215,0,0.406-0.138,0.475-0.34l1-3c0.049-0.147,0.027-0.308-0.058-0.436l-0.918-1.377
			V5.5c0-0.23-0.156-0.429-0.379-0.485l-5.863-1.466L21.872,2.65c-0.094-0.095-0.222-0.149-0.356-0.149h-1.011
			c-0.002,0-0.003-0.001-0.005-0.001s-0.003,0.001-0.005,0.001h-2.99c-0.002,0-0.003-0.001-0.005-0.001s-0.003,0.001-0.005,0.001
			h-1.99c-0.002,0-0.003-0.001-0.005-0.001c-0.067,0-0.13,0.014-0.188,0.038c-0.001,0-0.003,0-0.004,0.001
			c-0.061,0.025-0.116,0.062-0.162,0.108l-0.943,0.942l-2.927,1.464C11.107,5.138,11,5.311,11,5.5v2H9.999V6.999
			c0-0.276-0.224-0.5-0.5-0.5h-2c-0.071,0-0.142,0.015-0.207,0.045L4.955,7.606C4.92,7.62,4.887,7.636,4.854,7.652L1.792,9.044
			c-0.14,0.064-0.243,0.189-0.279,0.339c-0.035,0.15,0,0.308,0.096,0.429l1.35,1.688H0.5C0.224,11.5,0,11.724,0,12
			s0.224,0.5,0.5,0.5H4c0.002,0,0.003,0,0.003-0.001h5.496c0.276,0,0.5-0.224,0.5-0.5V11.5h1.298l1.27,1.237l-2.103,4.316
			c-0.242,0.298-0.393,0.672-0.398,1.084c0,0.004-0.003,0.008-0.003,0.013l-0.061,3.64l-0.857,0.857
			c-0.195,0.195-0.195,0.512,0,0.707l1.069,1.069l-0.992,0.661C9.083,25.177,9,25.333,9,25.5v1c-0.276,0-0.5,0.224-0.5,0.5
			s0.224,0.5,0.5,0.5h5c0.276,0,0.5-0.224,0.5-0.5s-0.224-0.5-0.5-0.5v-1c0-0.167-0.083-0.323-0.223-0.416l-0.992-0.661l1.069-1.069
			c0.195-0.195,0.195-0.512,0-0.707l-0.822-0.822l0.484-3.203l0.884-1.747l0.712,1.43c0.017,0.2,0.061,0.391,0.139,0.567
			l0.698,2.971l-0.803,0.803c-0.195,0.195-0.195,0.512,0,0.707l1.069,1.069l-0.992,0.661C15.083,25.177,15,25.333,15,25.5v1
			c-0.276,0-0.5,0.224-0.5,0.5s0.224,0.5,0.5,0.5h14.5c0.276,0,0.5-0.224,0.5-0.5S29.776,26.5,29.5,26.5z M5.272,8.562l0.062-0.028
			C5.386,8.515,5.441,8.5,5.5,8.5C5.776,8.5,6,8.724,6,9S5.776,9.5,5.5,9.5S5,9.276,5,9C5,8.807,5.112,8.645,5.272,8.562z M9,11.5
			H4.24L2.792,9.689l1.222-0.555C4.082,9.897,4.719,10.5,5.5,10.5c0.651,0,1.201-0.419,1.408-1H9V11.5z M9,8.5H6.907
			C6.836,8.299,6.726,8.117,6.582,7.966L7.608,7.5H9V8.5z M11,10.5H9.999V9.005C9.999,9.003,10,9.002,10,9S9.999,8.997,9.999,8.995
			V8.5H11V10.5z M27.793,22.5l0.5,0.5l-1,1h-0.586l-1-1l0.5-0.5H27.793z M16.91,14.056l1.67-0.556h1.801l2.172,1.086l-0.785,2.491
			c-0.223,0.284-0.361,0.635-0.374,1.021c0,0.004-0.003,0.007-0.003,0.01l-0.369,3.665l-0.875,0.875
			C20.048,22.744,20,22.872,20,22.999c0-0.128-0.049-0.255-0.146-0.352l-0.875-0.875l-0.369-3.666c0-0.004-0.003-0.007-0.003-0.011
			c-0.014-0.392-0.158-0.749-0.388-1.035L16.91,14.056z M17.947,21.499h-1.051l-0.379-1.612c0.11,0.021,0.222,0.034,0.338,0.034
			c0.333,0,0.641-0.099,0.907-0.26L17.947,21.499z M22.238,19.661c0.266,0.162,0.574,0.26,0.907,0.26
			c0.116,0,0.229-0.013,0.338-0.034L23.104,21.5h-1.051L22.238,19.661z M21.707,22.5h1.586l0.5,0.5l-1,1h-0.586l-1-1L21.707,22.5z
			 M23.145,18.921c-0.418,0-0.758-0.342-0.758-0.763c0-0.421,0.34-0.763,0.758-0.763c0.407,0,0.735,0.327,0.752,0.733l-0.089,0.38
			C23.68,18.75,23.435,18.921,23.145,18.921z M23.145,16.395c-0.04,0-0.078,0.009-0.118,0.012l0.431-1.369l0.755,0.377l0.172,1.494
			C24.067,16.592,23.628,16.395,23.145,16.395z M24.724,18.982l0.722,2.865l-0.696,0.696l-0.699-0.699L24.724,18.982z
			 M24.903,13.105c0-0.421,0.34-0.763,0.758-0.763c0.261,0,0.481,0.142,0.617,0.345l0.069,0.733
			c-0.12,0.263-0.381,0.448-0.686,0.448C25.243,13.868,24.903,13.526,24.903,13.105z M25.363,16.667l-0.193-1.676l0.137-0.158
			c0.114,0.023,0.233,0.036,0.354,0.036c0.291,0,0.562-0.078,0.804-0.204l0.167,1.765c-0.11-0.022-0.224-0.035-0.341-0.035
			C25.949,16.395,25.633,16.497,25.363,16.667z M26.291,17.395c0.417,0,0.758,0.342,0.758,0.763c0,0.421-0.34,0.763-0.758,0.763
			c-0.283,0-0.52-0.163-0.65-0.395l-0.101-0.401C25.557,17.72,25.884,17.395,26.291,17.395z M27.438,21.5H26.39l-0.406-1.61
			c0.1,0.018,0.202,0.031,0.307,0.031c0.342,0,0.659-0.103,0.929-0.273L27.438,21.5z M28.14,12.5h-0.835
			c-0.027-0.073-0.06-0.142-0.096-0.21c-0.008-0.016-0.016-0.031-0.025-0.046C27,11.918,26.721,11.655,26.378,11.5h2.095L28.14,12.5
			z M23,4.64l5,1.251V10.5h-5V4.64z M21,3.5h0.307L22,4.205V6.5h-1V3.5z M18,3.5h2v3h-2V3.5z M16,3.5h1v3h-1V3.5z M16,7.5h6v3h-6
			V7.5z M24.944,11.5c-0.612,0.276-1.041,0.891-1.041,1.606c0,0.215,0.044,0.419,0.115,0.61l0.059,0.514l-3.354-1.678
			c-0.07-0.035-0.146-0.053-0.224-0.053h-2c-0.054,0-0.107,0.009-0.158,0.026l-2.159,0.72c-0.034,0.003-0.068,0.011-0.102,0.022
			c0.005-0.054,0.016-0.106,0.016-0.161c0-0.715-0.429-1.33-1.041-1.606H24.944z M11.999,10.5V8.005C11.999,8.003,12,8.002,12,8
			s-0.001-0.003-0.001-0.005V5.81l2.724-1.362c0.048-0.024,0.092-0.056,0.13-0.094L15,4.207V10.5H11.999z M13.622,11.5
			c-0.195,0.088-0.373,0.208-0.523,0.358L12.732,11.5H13.622z M11.823,17.395c0.412,0,0.744,0.333,0.754,0.745l-0.022,0.145
			c-0.062,0.358-0.359,0.636-0.733,0.636c-0.418,0-0.758-0.342-0.758-0.763C11.065,17.737,11.405,17.395,11.823,17.395z
			 M11.037,19.727c0.237,0.12,0.502,0.194,0.785,0.194c0.174,0,0.339-0.033,0.498-0.081l-0.25,1.66h-1.062L11.037,19.727z
			 M13,25.768V26.5h-3v-0.732L11.151,25h0.698L13,25.768z M11.793,24h-0.586l-1-1l0.5-0.5h1.586l0.5,0.5L11.793,24z M13.186,17.059
			c-0.308-0.384-0.769-0.635-1.293-0.656l1.075-2.206c0.314,0.396,0.789,0.655,1.328,0.668L13.186,17.059z M14.339,13.868
			c-0.418,0-0.758-0.342-0.758-0.763c0-0.1,0.022-0.195,0.057-0.283l0.001-0.003c0.001-0.003,0.003-0.006,0.004-0.009l0.012-0.024
			c0.121-0.261,0.38-0.445,0.684-0.445c0.418,0,0.758,0.342,0.758,0.763c0,0.104-0.021,0.204-0.059,0.294l-0.004,0.008
			C14.917,13.678,14.65,13.868,14.339,13.868z M15.564,16.971l-0.601-1.208l0.649-1.283c0.015-0.004,0.03-0.001,0.045-0.006l0.3-0.1
			l0.882,2.023C16.333,16.401,15.882,16.623,15.564,16.971z M16.103,18.128c0.017-0.406,0.345-0.732,0.752-0.732
			c0.418,0,0.758,0.342,0.758,0.763s-0.34,0.763-0.758,0.763c-0.29,0-0.535-0.171-0.662-0.412L16.103,18.128z M16.207,23l0.5-0.5
			h1.586l0.5,0.5l-1,1h-0.586L16.207,23z M19,26.5h-3v-0.732L17.151,25h0.698L19,25.768V26.5z M20,25.5
			c0-0.167-0.083-0.323-0.223-0.416l-0.992-0.661l1.069-1.069C19.951,23.257,20,23.129,20,23.002c0,0.128,0.049,0.255,0.146,0.352
			l1.069,1.069l-0.992,0.661C20.083,25.177,20,25.333,20,25.5z M24,26.5h-3v-0.732L22.151,25h0.698L24,25.768V26.5z M23.785,24.423
			l0.965-0.965l0.965,0.965l-0.965,0.643L23.785,24.423z M28.5,26.5h-3v-0.732L26.651,25h0.698l1.151,0.768V26.5z"/>
	</g>
</g>
</svg>
