<?xml version="1.0" encoding="iso-8859-1"?>
<!-- Generator: Adobe Illustrator 19.0.0, SVG Export Plug-In . SVG Version: 6.00 Build 0)  -->
<svg version="1.1" id="Layer_1" xmlns="http://www.w3.org/2000/svg" xmlns:xlink="http://www.w3.org/1999/xlink" x="0px" y="0px"
	 viewBox="0 0 30 30" style="enable-background:new 0 0 30 30;" xml:space="preserve">
<g>
	<g>
		<path d="M27.5,15H21c0-2.28-1.814-4-4.218-4c-0.051,0-0.104,0.008-0.154,0.024C15.364,11.433,12.5,13.712,12.5,15H8.557
			c0-0.106-0.024-0.212-0.093-0.303L7.18,13H7.5C8.327,13,9,12.327,9,11.5C9,10.673,8.327,10,7.5,10h-6C0.673,10,0,10.673,0,11.5
			c0,0.816,0.657,1.48,1.469,1.497l1.662,2.895C3.049,16.078,3,16.283,3,16.5C3,17.327,3.673,18,4.5,18h0.017l1.054,1.757
			C5.662,19.908,5.824,20,6,20h21.5c1.379,0,2.5-1.122,2.5-2.5S28.879,15,27.5,15z M16.863,12.001C18.686,12.037,20,13.287,20,15
			h-6.5C13.5,14.439,15.633,12.449,16.863,12.001z M10,16h0.5c0.275,0,0.5,0.224,0.5,0.5S10.775,17,10.5,17H10V16z M7,11h0.5
			C7.775,11,8,11.224,8,11.5S7.775,12,7.5,12H7V11z M1.757,12H1.5C1.225,12,1,11.776,1,11.5S1.225,11,1.5,11H6v0.999H1.761
			C1.76,11.999,1.759,12,1.757,12z M2.625,13h3.3l1.514,2H4.5c-0.23,0-0.445,0.056-0.64,0.149L2.625,13z M4.5,17
			C4.225,17,4,16.776,4,16.5S4.225,16,4.5,16H9v1H4.5z M13.5,18h15.408c-0.207,0.58-0.755,0.998-1.405,1
			c-0.001,0-0.002-0.001-0.003-0.001H6.284L5.684,18H10.5c0.827,0,1.5-0.673,1.5-1.5c0-0.176-0.036-0.343-0.092-0.5H27.5
			c0.651,0,1.201,0.419,1.408,1H13.5c-0.276,0-0.5,0.224-0.5,0.5S13.224,18,13.5,18z"/>
	</g>
</g>
</svg>
