<?xml version="1.0" encoding="iso-8859-1"?>
<!-- Generator: Adobe Illustrator 19.0.0, SVG Export Plug-In . SVG Version: 6.00 Build 0)  -->
<svg version="1.1" id="Layer_1" xmlns="http://www.w3.org/2000/svg" xmlns:xlink="http://www.w3.org/1999/xlink" x="0px" y="0px"
	 viewBox="0 0 24 24" style="enable-background:new 0 0 24 24;" xml:space="preserve">
<g>
	<g>
		<path d="M12,24C5.383,24,0,18.617,0,12S5.383,0,12,0s12,5.383,12,12S18.617,24,12,24z M12,1C5.935,1,1,5.935,1,12s4.935,11,11,11
			s11-4.935,11-11S18.065,1,12,1z"/>
	</g>
	<g>
		<path d="M13.532,23.898c-0.113,0-0.228-0.038-0.321-0.117c-0.212-0.178-0.239-0.493-0.062-0.705
			c0.635-0.757,1.704-2.166,1.872-2.722c0.123-0.407,0.152-1.336,0.017-1.664c-0.126-0.304-0.752-0.743-1.256-1.095
			C12.906,16.981,12,16.346,12,15.5c0-0.449,0.404-0.71,0.729-0.92c0.078-0.05,0.197-0.127,0.266-0.183
			c-0.111-1.038-1.864-2.317-3.282-3.352c-1.078-0.787-2.097-1.53-2.617-2.253C6.742,8.305,6.16,7.24,6.014,6.614
			C5.92,6.217,5.991,5.707,6.066,5.167c0.062-0.443,0.165-1.184,0.028-1.374C6.092,3.824,5.84,3.798,5.688,3.783
			C5.243,3.739,4.5,3.665,4.5,3c0-0.276,0.224-0.5,0.5-0.5c0.183,0,0.342,0.097,0.429,0.243c0.101,0.019,0.256,0.035,0.358,0.045
			C6.22,2.832,6.666,2.876,6.905,3.207c0.372,0.517,0.26,1.32,0.151,2.098C7,5.71,6.936,6.17,6.986,6.385
			C7.09,6.824,7.578,7.754,7.905,8.208c0.429,0.594,1.385,1.292,2.396,2.03C12.12,11.564,14,12.937,14,14.5
			c0,0.449-0.404,0.71-0.729,0.92c-0.073,0.047-0.183,0.118-0.253,0.173c0.125,0.333,0.846,0.839,1.338,1.185
			c0.703,0.493,1.368,0.958,1.605,1.531c0.255,0.615,0.181,1.794,0.017,2.336c-0.282,0.934-1.882,2.859-2.063,3.075
			C13.816,23.837,13.675,23.898,13.532,23.898z"/>
	</g>
	<g>
		<path d="M21.501,19c-0.03,0-0.061-0.002-0.091-0.008c-0.271-0.05-0.452-0.31-0.402-0.582c0.264-1.439,0.361-3.236,0.087-3.617
			c-0.151-0.209-0.902-0.349-1.399-0.44c-0.563-0.104-1.096-0.203-1.458-0.427c-0.208-0.128-0.384-0.343-0.568-0.571
			c-0.107-0.132-0.287-0.353-0.366-0.396c-0.221-0.09-0.784-0.019-1.241,0.037c-0.661,0.083-1.283,0.16-1.753-0.034
			c-0.9-0.374-3.889-2.163-3.271-3.653c0.265-0.636,1.03-0.469,1.591-0.348c0.202,0.044,0.542,0.121,0.649,0.095
			c0.38-0.241,0.745-1.267,1.038-2.091c0.244-0.687,0.475-1.336,0.778-1.756c0.127-0.176,0.328-0.318,0.541-0.469
			c0.08-0.056,0.191-0.135,0.277-0.204c-0.175-0.069-0.533-0.177-0.745-0.241c-0.371-0.111-0.722-0.217-0.961-0.389
			c-0.174-0.125-0.316-0.321-0.468-0.529c-0.058-0.078-0.137-0.188-0.208-0.272c-0.04,0.057-0.08,0.12-0.111,0.167
			C13.21,3.596,12.949,4,12.5,4c-0.691,0-1.322-0.973-1.462-1.308c-0.181-0.436-0.123-1.088-0.073-1.664
			C10.982,0.825,11,0.64,11,0.5C11,0.224,11.224,0,11.5,0S12,0.224,12,0.5c0,0.163-0.018,0.379-0.039,0.615
			c-0.032,0.368-0.086,0.985,0.001,1.194c0.08,0.193,0.313,0.491,0.479,0.629c0.048-0.067,0.102-0.149,0.14-0.209
			C12.79,2.404,13.051,2,13.5,2c0.473,0,0.777,0.418,1.047,0.787c0.078,0.107,0.196,0.269,0.246,0.308
			c0.102,0.073,0.413,0.167,0.662,0.242c0.672,0.202,1.433,0.43,1.538,1.083c0.086,0.527-0.395,0.865-0.781,1.138
			c-0.106,0.075-0.269,0.189-0.309,0.238c-0.218,0.303-0.435,0.914-0.646,1.505c-0.381,1.072-0.775,2.181-1.495,2.625
			c-0.364,0.226-0.842,0.123-1.347,0.013c-0.127-0.028-0.311-0.068-0.449-0.086c0.171,0.537,1.615,1.727,2.725,2.187
			c0.225,0.093,0.79,0.021,1.247-0.034c0.66-0.083,1.284-0.16,1.753,0.034c0.295,0.123,0.527,0.409,0.753,0.685
			c0.101,0.124,0.253,0.311,0.318,0.352c0.203,0.125,0.688,0.215,1.114,0.294c0.809,0.149,1.644,0.304,2.029,0.839
			c0.658,0.913,0.231,3.585,0.086,4.382C21.947,18.832,21.737,19,21.501,19z"/>
	</g>
</g>
<g>
</g>
<g>
</g>
<g>
</g>
<g>
</g>
<g>
</g>
<g>
</g>
<g>
</g>
<g>
</g>
<g>
</g>
<g>
</g>
<g>
</g>
<g>
</g>
<g>
</g>
<g>
</g>
<g>
</g>
</svg>
