<?xml version="1.0" encoding="iso-8859-1"?>
<!-- Generator: Adobe Illustrator 19.0.0, SVG Export Plug-In . SVG Version: 6.00 Build 0)  -->
<svg version="1.1" id="Layer_1" xmlns="http://www.w3.org/2000/svg" xmlns:xlink="http://www.w3.org/1999/xlink" x="0px" y="0px"
	 viewBox="0 0 24 24" style="enable-background:new 0 0 24 24;" xml:space="preserve">
<g>
	<g>
		<path d="M12,24c-0.117,0-0.233-0.041-0.327-0.122C11.339,23.59,3.5,16.718,3.5,8.5C3.5,3.813,7.313,0,12,0s8.5,3.813,8.5,8.5
			c0,8.218-7.839,15.09-8.173,15.378C12.233,23.959,12.117,24,12,24z M12,1C7.864,1,4.5,4.364,4.5,8.5
			c0,6.842,6.016,12.926,7.5,14.322c1.483-1.397,7.5-7.488,7.5-14.322C19.5,4.364,16.136,1,12,1z"/>
	</g>
	<g>
		<path d="M14,14c-0.04,0-0.081-0.005-0.121-0.015L12,13.516l-1.879,0.469c-0.218,0.057-0.445-0.043-0.556-0.238
			c-0.111-0.196-0.078-0.441,0.082-0.6l1.318-1.318l-0.375-2.253L8.082,9.993c-0.143,0.023-0.293-0.017-0.405-0.112
			C7.564,9.787,7.5,9.647,7.5,9.5V9.118c0-0.572,0.318-1.086,0.829-1.342l2.182-1.091c0.071-0.991,0.475-1.879,1.134-2.538
			c0.196-0.196,0.514-0.195,0.708-0.001l0.001,0.001c0.675,0.674,1.083,1.59,1.138,2.54l2.178,1.089
			c0.511,0.256,0.829,0.77,0.829,1.342V9.5c0,0.147-0.064,0.287-0.177,0.381c-0.112,0.095-0.261,0.135-0.405,0.112l-2.507-0.418
			l-0.375,2.253l1.318,1.318c0.159,0.159,0.192,0.404,0.082,0.6C14.345,13.906,14.177,14,14,14z M12,12.5
			c0.041,0,0.082,0.005,0.121,0.015l0.249,0.062l-0.224-0.224C12.052,12.26,12,12.133,12,12.002c0,0.13-0.052,0.257-0.146,0.351
			l-0.224,0.224l0.249-0.062C11.918,12.505,11.959,12.5,12,12.5z M11,8.5c0.24,0,0.452,0.173,0.493,0.418l0.5,3
			C11.998,11.944,12,11.971,12,11.998c0-0.026,0.002-0.053,0.007-0.08l0.5-3c0.045-0.273,0.301-0.462,0.575-0.411l2.369,0.395
			c-0.047-0.099-0.125-0.18-0.228-0.231l-2.447-1.224C12.607,7.362,12.5,7.189,12.5,7c0-0.647-0.178-1.234-0.5-1.716
			c-0.321,0.478-0.5,1.049-0.5,1.629c0,0.189-0.107,0.45-0.276,0.535L8.776,8.671C8.674,8.722,8.596,8.803,8.549,8.902l2.369-0.395
			C10.946,8.502,10.973,8.5,11,8.5z"/>
	</g>
</g>
<g>
</g>
<g>
</g>
<g>
</g>
<g>
</g>
<g>
</g>
<g>
</g>
<g>
</g>
<g>
</g>
<g>
</g>
<g>
</g>
<g>
</g>
<g>
</g>
<g>
</g>
<g>
</g>
<g>
</g>
</svg>
