<?xml version="1.0" encoding="iso-8859-1"?>
<!-- Generator: Adobe Illustrator 19.0.0, SVG Export Plug-In . SVG Version: 6.00 Build 0)  -->
<svg version="1.1" id="Layer_1" xmlns="http://www.w3.org/2000/svg" xmlns:xlink="http://www.w3.org/1999/xlink" x="0px" y="0px"
	 viewBox="0 0 24 24" style="enable-background:new 0 0 24 24;" xml:space="preserve">
<g>
	<g>
		<path d="M14,13H9c-0.276,0-0.5-0.224-0.5-0.5v-8C8.5,4.224,8.724,4,9,4h5c0.276,0,0.5,0.224,0.5,0.5v8
			C14.5,12.776,14.276,13,14,13z M9.5,12h4V5h-4V12z"/>
	</g>
	<g>
		<path d="M14,9H9C8.724,9,8.5,8.776,8.5,8.5S8.724,8,9,8h5c0.276,0,0.5,0.224,0.5,0.5S14.276,9,14,9z"/>
	</g>
	<g>
		<path d="M14,12c-0.276,0-0.5-0.224-0.5-0.5S13.724,11,14,11c0.827,0,1.5-0.673,1.5-1.5v-4c0-0.133,0.053-0.26,0.146-0.354l1-1
			c0.195-0.195,0.512-0.195,0.707,0s0.195,0.512,0,0.707L16.5,5.707V9.5C16.5,10.878,15.378,12,14,12z"/>
	</g>
	<g>
		<path d="M12,7h-1c-0.276,0-0.5-0.224-0.5-0.5S10.724,6,11,6h1c0.276,0,0.5,0.224,0.5,0.5S12.276,7,12,7z"/>
	</g>
	<g>
		<path d="M12,24c-0.117,0-0.233-0.041-0.327-0.122C11.339,23.59,3.5,16.718,3.5,8.5C3.5,3.813,7.313,0,12,0s8.5,3.813,8.5,8.5
			c0,8.218-7.839,15.09-8.173,15.378C12.233,23.959,12.117,24,12,24z M12,1C7.864,1,4.5,4.364,4.5,8.5
			c0,6.842,6.016,12.926,7.5,14.322c1.483-1.397,7.5-7.488,7.5-14.322C19.5,4.364,16.136,1,12,1z"/>
	</g>
</g>
<g>
</g>
<g>
</g>
<g>
</g>
<g>
</g>
<g>
</g>
<g>
</g>
<g>
</g>
<g>
</g>
<g>
</g>
<g>
</g>
<g>
</g>
<g>
</g>
<g>
</g>
<g>
</g>
<g>
</g>
</svg>
