<?xml version="1.0" encoding="iso-8859-1"?>
<!-- Generator: Adobe Illustrator 19.0.0, SVG Export Plug-In . SVG Version: 6.00 Build 0)  -->
<svg version="1.1" id="Layer_1" xmlns="http://www.w3.org/2000/svg" xmlns:xlink="http://www.w3.org/1999/xlink" x="0px" y="0px"
	 viewBox="0 0 24 24" style="enable-background:new 0 0 24 24;" xml:space="preserve">
<g>
	<g>
		<path d="M17.5,13c-0.276,0-0.5,0.224-0.5,0.5v5c0,0.827-0.673,1.5-1.5,1.5H11V4.594c0-0.865-0.514-1.644-1.309-1.984L5.935,1H15.5
			C16.327,1,17,1.673,17,2.5v5C17,7.776,17.224,8,17.5,8S18,7.776,18,7.5v-5C18,1.122,16.878,0,15.5,0h-12
			C3.46,0,3.424,0.014,3.386,0.023C3.311,0.015,3.236,0,3.159,0C1.969,0,1,0.969,1,2.159v17.247c0,0.865,0.514,1.644,1.309,1.984
			l5.68,2.435C8.259,23.941,8.546,24,8.841,24C10.031,24,11,23.031,11,21.841V21h4.5c1.378,0,2.5-1.122,2.5-2.5v-5
			C18,13.224,17.776,13,17.5,13z M10,21.841C10,22.48,9.48,23,8.841,23c-0.158,0-0.312-0.031-0.457-0.093l-5.681-2.435
			C2.276,20.289,2,19.87,2,19.406V2.159C2,1.52,2.52,1,3.159,1c0.158,0,0.312,0.031,0.457,0.094l5.681,2.434
			C9.724,3.711,10,4.13,10,4.594V21.841z M8.5,11C8.224,11,8,11.224,8,11.5v2C8,13.776,8.224,14,8.5,14S9,13.776,9,13.5v-2
			C9,11.224,8.776,11,8.5,11z M22.973,10.368c-0.005-0.018-0.004-0.038-0.011-0.056c-0.026-0.065-0.065-0.122-0.115-0.17
			l-2.994-2.994c-0.195-0.195-0.512-0.195-0.707,0s-0.195,0.512,0,0.707L21.291,10H12.5c-0.276,0-0.5,0.224-0.5,0.5
			s0.224,0.5,0.5,0.5h8.793l-2.147,2.147c-0.195,0.195-0.195,0.512,0,0.707C19.244,13.951,19.372,14,19.5,14
			s0.256-0.049,0.353-0.145l3-3c0.014-0.014,0.019-0.032,0.031-0.046c0.029-0.036,0.059-0.073,0.077-0.117
			c0.018-0.043,0.022-0.089,0.027-0.134C22.991,10.538,23,10.52,23,10.5C23,10.453,22.985,10.411,22.973,10.368z"/>
	</g>
</g>
</svg>
