<?xml version="1.0" encoding="iso-8859-1"?>
<!-- Generator: Adobe Illustrator 19.0.0, SVG Export Plug-In . SVG Version: 6.00 Build 0)  -->
<svg version="1.1" id="Layer_1" xmlns="http://www.w3.org/2000/svg" xmlns:xlink="http://www.w3.org/1999/xlink" x="0px" y="0px"
	 viewBox="0 0 24 24" style="enable-background:new 0 0 24 24;" xml:space="preserve">
<g>
	<g>
		<path d="M14.5,11.5h5c0.276,0,0.5-0.224,0.5-0.5s-0.224-0.5-0.5-0.5h-5c-0.276,0-0.5,0.224-0.5,0.5S14.224,11.5,14.5,11.5z M20,14
			c0-0.276-0.224-0.5-0.5-0.5h-5c-0.276,0-0.5,0.224-0.5,0.5s0.224,0.5,0.5,0.5h5C19.776,14.5,20,14.276,20,14z M14.5,8.5h5
			C19.776,8.5,20,8.276,20,8s-0.224-0.5-0.5-0.5h-5C14.224,7.5,14,7.724,14,8S14.224,8.5,14.5,8.5z M21.954,5.546
			C21.739,4.384,20.723,3.5,19.5,3.5h-17C1.122,3.5,0,4.622,0,6v10c0,1.223,0.884,2.239,2.046,2.454
			C2.261,19.616,3.277,20.5,4.5,20.5h17c1.378,0,2.5-1.122,2.5-2.5V8C24,6.777,23.116,5.761,21.954,5.546z M2.5,17.5
			C1.673,17.5,1,16.827,1,16V6c0-0.827,0.673-1.5,1.5-1.5h17C20.327,4.5,21,5.173,21,6v10c0,0.827-0.673,1.5-1.5,1.5H2.5z M23,18
			c0,0.827-0.673,1.5-1.5,1.5h-17c-0.651,0-1.201-0.419-1.408-1H19.5c1.378,0,2.5-1.122,2.5-2.5V6.592C22.581,6.799,23,7.349,23,8
			V18z M7.5,5.5C4.467,5.5,2,7.967,2,11c0,1.515,0.616,2.888,1.61,3.884c0.002,0.002,0.002,0.006,0.004,0.008
			c0.012,0.012,0.026,0.02,0.038,0.031c0.239,0.234,0.497,0.448,0.775,0.636c0.032,0.022,0.067,0.039,0.1,0.061
			c0.266,0.172,0.545,0.324,0.84,0.449c0.035,0.015,0.071,0.025,0.106,0.039c0.299,0.119,0.609,0.216,0.931,0.282
			c0.02,0.004,0.04,0.005,0.059,0.009C6.799,16.463,7.145,16.5,7.5,16.5s0.701-0.037,1.037-0.101c0.02-0.004,0.04-0.005,0.059-0.009
			c0.322-0.065,0.632-0.163,0.931-0.282c0.035-0.014,0.071-0.024,0.106-0.039c0.295-0.124,0.574-0.277,0.84-0.449
			c0.033-0.021,0.068-0.039,0.1-0.061c0.278-0.188,0.536-0.402,0.775-0.636c0.012-0.012,0.026-0.02,0.038-0.031
			c0.002-0.002,0.002-0.006,0.004-0.008C12.384,13.888,13,12.515,13,11C13,7.967,10.533,5.5,7.5,5.5z M10.202,14.575
			c-0.105,0.079-0.209,0.159-0.32,0.227c-0.09,0.056-0.186,0.102-0.28,0.152c-1.3,0.667-2.904,0.667-4.204,0
			c-0.094-0.05-0.19-0.096-0.28-0.152c-0.111-0.068-0.215-0.148-0.32-0.227c-0.079-0.06-0.154-0.124-0.229-0.189
			C5.098,13.246,6.235,12.5,7.5,12.5s2.402,0.746,2.932,1.886C10.357,14.451,10.281,14.515,10.202,14.575z M6,10
			c0-0.827,0.673-1.5,1.5-1.5S9,9.173,9,10s-0.673,1.5-1.5,1.5S6,10.827,6,10z M11.148,13.614c-0.464-0.789-1.163-1.402-1.989-1.758
			C9.671,11.397,10,10.739,10,10c0-1.378-1.122-2.5-2.5-2.5S5,8.622,5,10c0,0.739,0.329,1.397,0.841,1.855
			c-0.826,0.356-1.525,0.969-1.989,1.758C3.321,12.875,3,11.977,3,11c0-2.481,2.019-4.5,4.5-4.5S12,8.519,12,11
			C12,11.977,11.679,12.875,11.148,13.614z"/>
	</g>
</g>
</svg>
