<?xml version="1.0" encoding="iso-8859-1"?>
<!-- Generator: Adobe Illustrator 19.2.1, SVG Export Plug-In . SVG Version: 6.00 Build 0)  -->
<svg version="1.1" id="Layer_1" xmlns="http://www.w3.org/2000/svg" xmlns:xlink="http://www.w3.org/1999/xlink" x="0px" y="0px"
	 viewBox="0 0 30 30" style="enable-background:new 0 0 30 30;" xml:space="preserve">
<g>
	<g>
		<path d="M27,15h-4c-0.276,0-0.5,0.224-0.5,0.5v8c0,0.276,0.224,0.5,0.5,0.5s0.5-0.224,0.5-0.5V20h2.167c0.276,0,0.5-0.224,0.5-0.5
			s-0.224-0.5-0.5-0.5H23.5v-3H27c0.276,0,0.5-0.224,0.5-0.5S27.276,15,27,15z M25,25c-0.276,0-0.5,0.224-0.5,0.5V29h-21V9H11
			c0.276,0,0.5-0.224,0.5-0.5V1h13v12.5c0,0.276,0.224,0.5,0.5,0.5s0.5-0.224,0.5-0.5v-13C25.5,0.224,25.276,0,25,0H11
			c-0.067,0-0.132,0.014-0.193,0.039c-0.029,0.012-0.051,0.034-0.077,0.051c-0.028,0.019-0.06,0.032-0.084,0.056l-8,8
			C2.623,8.169,2.61,8.2,2.592,8.227c-0.018,0.027-0.041,0.05-0.053,0.08C2.514,8.368,2.5,8.433,2.5,8.5v21
			C2.5,29.776,2.724,30,3,30h22c0.276,0,0.5-0.224,0.5-0.5v-4C25.5,25.224,25.276,25,25,25z M10.5,1.707V8H4.207L10.5,1.707z M21,24
			c0.276,0,0.5-0.224,0.5-0.5v-8c0-0.215-0.138-0.406-0.342-0.474c-0.205-0.069-0.429,0.002-0.558,0.174L18,18.666L15.4,15.2
			c-0.129-0.172-0.354-0.244-0.558-0.174C14.638,15.094,14.5,15.285,14.5,15.5v8c0,0.276,0.224,0.5,0.5,0.5s0.5-0.224,0.5-0.5V17
			l2.1,2.8c0.189,0.252,0.612,0.252,0.8,0l2.1-2.8v6.5C20.5,23.776,20.724,24,21,24z M13,16c0.276,0,0.5-0.224,0.5-0.5
			S13.276,15,13,15H9c-0.276,0-0.5,0.224-0.5,0.5v8C8.5,23.776,8.724,24,9,24h4c0.276,0,0.5-0.224,0.5-0.5S13.276,23,13,23H9.5v-3
			h2.167c0.276,0,0.5-0.224,0.5-0.5s-0.224-0.5-0.5-0.5H9.5v-3H13z"/>
	</g>
</g>
</svg>
