<?xml version="1.0" encoding="iso-8859-1"?>
<!-- Generator: Adobe Illustrator 19.0.0, SVG Export Plug-In . SVG Version: 6.00 Build 0)  -->
<svg version="1.1" id="Layer_1" xmlns="http://www.w3.org/2000/svg" xmlns:xlink="http://www.w3.org/1999/xlink" x="0px" y="0px"
	 viewBox="0 0 24 24" style="enable-background:new 0 0 24 24;" xml:space="preserve">
<g>
	<path d="M11.5,21h-9C1.673,21,1,20.327,1,19.5V5h20v7c0,0.276,0.224,0.5,0.5,0.5S22,12.276,22,12V2.5C22,1.121,20.878,0,19.5,0h-17
		C1.122,0,0,1.121,0,2.5v17C0,20.879,1.122,22,2.5,22h9c0.276,0,0.5-0.224,0.5-0.5S11.776,21,11.5,21z M2.5,1h17
		C20.327,1,21,1.673,21,2.5V4H1V2.5C1,1.673,1.673,1,2.5,1z"/>
	<circle cx="2.5" cy="2.5" r="0.5"/>
	<circle cx="4.5" cy="2.5" r="0.5"/>
	<circle cx="6.5" cy="2.5" r="0.5"/>
	<path d="M20.526,23.609c0.036-0.014,0.073-0.025,0.108-0.04c0.293-0.124,0.57-0.276,0.835-0.446
		c0.036-0.023,0.073-0.043,0.108-0.066c0.275-0.186,0.53-0.398,0.766-0.629c0.013-0.013,0.029-0.022,0.042-0.035
		c0.003-0.003,0.003-0.006,0.005-0.009C23.385,21.387,24,20.014,24,18.5c0-3.032-2.467-5.5-5.5-5.5S13,15.468,13,18.5
		c0,1.514,0.615,2.887,1.609,3.883c0.003,0.003,0.003,0.007,0.005,0.009c0.013,0.013,0.03,0.022,0.043,0.035
		c0.236,0.231,0.491,0.443,0.766,0.629c0.035,0.024,0.073,0.043,0.108,0.067c0.265,0.171,0.542,0.322,0.835,0.446
		c0.035,0.015,0.072,0.025,0.108,0.04c0.299,0.119,0.608,0.216,0.929,0.281c0.02,0.004,0.04,0.005,0.06,0.009
		C17.8,23.963,18.146,24,18.5,24s0.7-0.037,1.036-0.101c0.02-0.004,0.041-0.005,0.061-0.009
		C19.918,23.824,20.227,23.727,20.526,23.609z M20.882,22.302c-0.089,0.056-0.186,0.102-0.279,0.152c-1.3,0.667-2.905,0.667-4.205,0
		c-0.094-0.05-0.19-0.095-0.279-0.152c-0.112-0.068-0.216-0.149-0.321-0.228c-0.079-0.06-0.154-0.124-0.229-0.189
		C16.098,20.746,17.235,20,18.5,20s2.403,0.746,2.932,1.886c-0.075,0.065-0.15,0.129-0.229,0.189
		C21.097,22.154,20.993,22.234,20.882,22.302z M17,17.5c0-0.827,0.673-1.5,1.5-1.5s1.5,0.673,1.5,1.5S19.327,19,18.5,19
		S17,18.327,17,17.5z M18.5,14c2.481,0,4.5,2.019,4.5,4.5c0,0.978-0.322,1.877-0.853,2.615c-0.462-0.793-1.161-1.404-1.986-1.76
		C20.672,18.897,21,18.239,21,17.5c0-1.379-1.122-2.5-2.5-2.5S16,16.121,16,17.5c0,0.739,0.328,1.397,0.84,1.855
		c-0.826,0.356-1.524,0.967-1.986,1.76C14.322,20.377,14,19.478,14,18.5C14,16.019,16.019,14,18.5,14z"/>
</g>
</svg>
