<?xml version="1.0" encoding="iso-8859-1"?>
<!-- Generator: Adobe Illustrator 19.0.0, SVG Export Plug-In . SVG Version: 6.00 Build 0)  -->
<svg version="1.1" id="Layer_1" xmlns="http://www.w3.org/2000/svg" xmlns:xlink="http://www.w3.org/1999/xlink" x="0px" y="0px"
	 viewBox="0 0 24 24" style="enable-background:new 0 0 24 24;" xml:space="preserve">
<g>
	<g>
		<path d="M21,0H4C3.173,0,2.5,0.673,2.5,1.5V3H6c0.827,0,1.5,0.673,1.5,1.5S6.827,6,6,6C5.349,6,4.799,5.581,4.592,5
			C4.536,4.843,4.5,4.676,4.5,4.5S4.536,4.157,4.592,4H2C1.724,4,1.5,4.224,1.5,4.5S1.724,5,2,5h0.5v3H6c0.827,0,1.5,0.673,1.5,1.5
			S6.827,11,6,11c-0.651,0-1.201-0.419-1.408-1C4.536,9.843,4.5,9.676,4.5,9.5S4.536,9.157,4.592,9H2C1.724,9,1.5,9.224,1.5,9.5
			S1.724,10,2,10h0.5v3H6c0.827,0,1.5,0.673,1.5,1.5S6.827,16,6,16c-0.651,0-1.201-0.419-1.408-1C4.536,14.843,4.5,14.676,4.5,14.5
			s0.036-0.343,0.092-0.5H2c-0.276,0-0.5,0.224-0.5,0.5S1.724,15,2,15h0.5v3H6c0.827,0,1.5,0.673,1.5,1.5S6.827,21,6,21
			c-0.651,0-1.201-0.419-1.408-1C4.536,19.843,4.5,19.676,4.5,19.5s0.036-0.343,0.092-0.5H2c-0.276,0-0.5,0.224-0.5,0.5
			S1.724,20,2,20h0.5v2.5C2.5,23.327,3.173,24,4,24h17c0.827,0,1.5-0.673,1.5-1.5v-21C22.5,0.673,21.827,0,21,0z M18,21h-8
			c-0.276,0-0.5-0.224-0.5-0.5S9.724,20,10,20h8c0.276,0,0.5,0.224,0.5,0.5S18.276,21,18,21z M11.5,18.5c0-0.276,0.224-0.5,0.5-0.5
			h4c0.276,0,0.5,0.224,0.5,0.5S16.276,19,16,19h-4C11.724,19,11.5,18.776,11.5,18.5z M18,17h-8c-0.276,0-0.5-0.224-0.5-0.5
			S9.724,16,10,16h8c0.276,0,0.5,0.224,0.5,0.5S18.276,17,18,17z M19,14H9c-0.276,0-0.5-0.224-0.5-0.5
			c0-1.254,0.85-2.342,2.065-2.646l1.338-0.335c-0.92-0.207-1.397-0.49-1.422-0.504c-0.143-0.085-0.233-0.236-0.241-0.403
			c-0.009-0.166,0.065-0.325,0.199-0.425c-0.002,0,0.669-0.605,0.669-2.644C11.108,3.892,13.093,3,14,3
			c0.645,0,0.948,0.13,1.287,0.435h0.018c1.053,0,1.587,1.046,1.587,3.109c0,2.045,0.675,2.647,0.682,2.653
			c0.122,0.105,0.193,0.268,0.179,0.429c-0.014,0.161-0.098,0.31-0.236,0.392c-0.024,0.015-0.508,0.295-1.422,0.501l1.341,0.336
			c1.216,0.304,2.065,1.391,2.065,2.645C19.5,13.775,19.276,14,19,14z"/>
	</g>
</g>
</svg>
