<?xml version="1.0" encoding="iso-8859-1"?>
<!-- Generator: Adobe Illustrator 19.0.0, SVG Export Plug-In . SVG Version: 6.00 Build 0)  -->
<svg version="1.1" id="Layer_1" xmlns="http://www.w3.org/2000/svg" xmlns:xlink="http://www.w3.org/1999/xlink" x="0px" y="0px"
	 viewBox="0 0 24 24" style="enable-background:new 0 0 24 24;" xml:space="preserve">
<g>
	<g>
		<path d="M6.666,14.804l0.877-0.219c0.148-0.037,0.271-0.139,0.334-0.278c0.063-0.138,0.06-0.298-0.009-0.434
			c-0.151-0.296-0.276-0.604-0.372-0.917c-0.029-0.097-0.088-0.183-0.167-0.246c-0.447-0.354-0.731-0.858-0.801-1.422L6.365,9.985
			C6.292,9.404,6.463,8.811,6.833,8.358C6.915,8.257,6.955,8.129,6.944,8c-0.018-0.215-0.03-0.415-0.03-0.563
			c0-0.641,0.105-1.217,0.314-1.711c0.068-0.163,0.046-0.351-0.06-0.493C7.062,5.091,6.885,5.011,6.713,5.034
			c-0.516,0.055-0.959,0.203-1.349,0.45c-2.232,0.073-2.495,1.269-2.495,2.17c0,0.186,0.035,0.543,0.066,0.831
			C2.848,8.537,2.768,8.602,2.699,8.68C2.513,8.89,2.427,9.17,2.462,9.449l0.12,0.956c0.043,0.35,0.269,0.637,0.603,0.773
			c0.121,0.608,0.413,1.199,0.824,1.664L3.915,13.22l-1.68,0.42C0.918,13.968,0,15.145,0,16.501c0,0.276,0.224,0.5,0.5,0.5h2.94
			c0.166,0,0.32-0.082,0.413-0.219C4.528,15.792,5.527,15.089,6.666,14.804z M17.092,15.775l-2.397-0.599l-0.164-0.655
			c0.632-0.655,1.071-1.526,1.225-2.425c0.383-0.15,0.671-0.501,0.724-0.93l0.163-1.304c0.041-0.325-0.06-0.652-0.274-0.899
			c-0.097-0.111-0.214-0.202-0.343-0.268l0.051-1.042l0.2-0.201c0.336-0.357,0.789-1.125,0.054-2.247
			c-0.523-0.799-1.403-1.204-2.616-1.204c-0.463,0-1.522,0-2.526,0.655C8.29,4.733,7.913,6.177,7.913,7.435
			c0,0.273,0.058,0.833,0.104,1.237C7.873,8.738,7.743,8.834,7.636,8.955C7.417,9.203,7.316,9.533,7.357,9.86l0.163,1.304
			c0.057,0.459,0.38,0.828,0.804,0.958c0.153,0.86,0.568,1.697,1.161,2.337l-0.179,0.715l-2.397,0.599
			c-1.712,0.428-2.908,1.96-2.908,3.726c0,0.276,0.224,0.5,0.5,0.5h15c0.276,0,0.5-0.225,0.5-0.501
			C20,17.734,18.804,16.203,17.092,15.775z M21.766,13.639l-1.68-0.42l-0.083-0.332c0.438-0.476,0.747-1.088,0.87-1.724
			c0.29-0.141,0.503-0.421,0.545-0.759l0.12-0.956c0.035-0.276-0.05-0.554-0.232-0.763c-0.063-0.072-0.136-0.134-0.215-0.184
			l0.031-0.631l0.113-0.113c0.273-0.291,0.644-0.913,0.054-1.813c-0.282-0.43-0.863-0.943-2.03-0.943
			c-0.474,0-0.892,0.064-1.278,0.197c-0.242,0.083-0.382,0.335-0.325,0.585c0.173,0.751,0.029,1.468-0.416,2.075
			c-0.129,0.176-0.129,0.415-0.001,0.591c0.325,0.445,0.466,0.991,0.398,1.536l-0.163,1.305c-0.065,0.525-0.322,1.007-0.724,1.356
			c-0.072,0.063-0.125,0.145-0.152,0.236c-0.102,0.344-0.237,0.682-0.403,1.005c-0.07,0.136-0.074,0.296-0.011,0.435
			c0.063,0.139,0.187,0.242,0.334,0.278l0.817,0.204c1.139,0.285,2.138,0.987,2.813,1.978c0.093,0.137,0.248,0.219,0.413,0.219H23.5
			c0.276,0,0.5-0.225,0.5-0.501C24,15.144,23.082,13.968,21.766,13.639z"/>
	</g>
</g>
</svg>
