<?xml version="1.0" encoding="iso-8859-1"?>
<!-- Generator: Adobe Illustrator 19.0.0, SVG Export Plug-In . SVG Version: 6.00 Build 0)  -->
<svg version="1.1" id="Layer_1" xmlns="http://www.w3.org/2000/svg" xmlns:xlink="http://www.w3.org/1999/xlink" x="0px" y="0px"
	 viewBox="0 0 24 24" style="enable-background:new 0 0 24 24;" xml:space="preserve">
<g>
	<g>
		<path d="M4.555,5c1.381,0,2.5-1.119,2.5-2.5c0-1.381-1.119-2.5-2.5-2.5c-1.381,0-2.5,1.119-2.5,2.5C2.055,3.881,3.174,5,4.555,5z
			 M11.641,6c1.381,0,2.5-1.119,2.5-2.5c0-1.381-1.119-2.5-2.5-2.5c-1.381,0-2.5,1.119-2.5,2.5C9.141,4.881,10.26,6,11.641,6z
			 M9.044,14.236L8.381,8.428C8.223,7.043,7.127,5.999,5.832,5.999H3.279c-1.295,0-2.392,1.044-2.549,2.429l-0.663,5.808
			c-0.056,0.486,0.094,0.968,0.411,1.323c0.273,0.306,0.635,0.483,1.027,0.505l0.552,7.472c0.019,0.261,0.237,0.463,0.499,0.463h4
			c0.262,0,0.479-0.202,0.499-0.463l0.552-7.472c0.393-0.022,0.754-0.2,1.027-0.505C8.95,15.205,9.099,14.722,9.044,14.236z
			 M23.92,16.563c-0.067-0.206-0.259-0.346-0.476-0.346h-4.071l-1.258-3.872c-0.134-0.412-0.817-0.412-0.951,0l-1.258,3.872h-4.071
			c-0.217,0-0.409,0.14-0.476,0.346c-0.067,0.206,0.006,0.432,0.182,0.559l3.299,2.397l-1.178,3.834
			c-0.063,0.206,0.013,0.43,0.188,0.554c0.175,0.126,0.411,0.124,0.585-0.004l3.205-2.349l3.205,2.349
			C20.933,23.967,21.036,24,21.14,24c0.102,0,0.203-0.031,0.29-0.092c0.176-0.125,0.251-0.349,0.188-0.555l-1.178-3.834l3.298-2.397
			C23.913,16.995,23.987,16.769,23.92,16.563z M10.953,17.931c-0.445-0.323-0.658-0.87-0.572-1.434l0.446-0.8
			c0.013-0.023,0.014-0.048,0.023-0.073c0.284-0.26,0.628-0.407,0.984-0.407h2.981c0.217,0,0.409-0.14,0.476-0.346l0.622-1.915
			c0.023-0.07,0.03-0.145,0.021-0.218L15.467,9.12c-0.162-1.248-1.257-2.188-2.549-2.188h-2.554c-0.258,0-0.517,0.042-0.79,0.128
			C9.316,7.142,9.169,7.414,9.243,7.674c0.059,0.207,0.106,0.42,0.132,0.64l0.662,5.807c0.04,0.354,0.007,0.716-0.097,1.074
			c-0.005,0.016-0.003,0.032-0.006,0.048L9.501,16.02c-0.009,0.016-0.009,0.034-0.016,0.05c-0.017,0.024-0.1,0.143-0.105,0.152
			c-0.125,0.14-0.28,0.272-0.471,0.402c-0.149,0.102-0.232,0.275-0.217,0.455l0.451,5.393c0.021,0.259,0.238,0.458,0.498,0.458
			h2.734c0.22,0,0.414-0.143,0.478-0.353l0.716-2.331c0.063-0.205-0.011-0.426-0.184-0.551L10.953,17.931z"/>
	</g>
</g>
</svg>
