<?xml version="1.0" encoding="iso-8859-1"?>
<!-- Generator: Adobe Illustrator 19.0.0, SVG Export Plug-In . SVG Version: 6.00 Build 0)  -->
<svg version="1.1" id="Layer_1" xmlns="http://www.w3.org/2000/svg" xmlns:xlink="http://www.w3.org/1999/xlink" x="0px" y="0px"
	 viewBox="0 0 24 24" style="enable-background:new 0 0 24 24;" xml:space="preserve">
<g>
	<g>
		<path d="M19.5,17h2c0.276,0,0.5-0.224,0.5-0.5v-2c0-0.276-0.224-0.5-0.5-0.5S21,14.224,21,14.5V16h-1.5
			c-0.276,0-0.5,0.224-0.5,0.5S19.224,17,19.5,17z M19.5,1H21v1.5C21,2.776,21.224,3,21.5,3S22,2.776,22,2.5v-2
			C22,0.224,21.776,0,21.5,0h-2C19.224,0,19,0.224,19,0.5S19.224,1,19.5,1z M2.5,3C2.776,3,3,2.776,3,2.5V1h1.5
			C4.776,1,5,0.776,5,0.5S4.776,0,4.5,0h-2C2.224,0,2,0.224,2,0.5v2C2,2.776,2.224,3,2.5,3z M19.743,18.045l-3.831-0.957
			l-0.326-1.304c1.025-1.015,1.728-2.409,1.936-3.84c0.568-0.159,1.008-0.647,1.084-1.258l0.25-2
			c0.053-0.422-0.077-0.848-0.356-1.169c-0.164-0.188-0.371-0.331-0.601-0.418l0.092-1.883l0.374-0.374
			c0.563-0.6,1.03-1.627,0.054-3.116C17.668,0.581,16.394,0,14.631,0c-0.695,0-2.298,0-3.791,1.002C6.579,1.091,6,3.069,6,5
			c0,0.449,0.109,1.46,0.181,2.07C5.924,7.151,5.691,7.3,5.509,7.507c-0.284,0.322-0.417,0.752-0.364,1.18l0.25,2
			c0.081,0.651,0.577,1.164,1.202,1.286c0.208,1.374,0.873,2.724,1.839,3.722l-0.348,1.394l-3.831,0.957
			C1.75,18.672,0,20.915,0,23.5C0,23.776,0.224,24,0.5,24h23c0.276,0,0.5-0.226,0.5-0.502C24,20.915,22.25,18.672,19.743,18.045z
			 M2.5,17h2C4.776,17,5,16.776,5,16.5S4.776,16,4.5,16H3v-1.5C3,14.224,2.776,14,2.5,14S2,14.224,2,14.5v2
			C2,16.776,2.224,17,2.5,17z"/>
	</g>
</g>
</svg>
