<?xml version="1.0" encoding="iso-8859-1"?>
<!-- Generator: Adobe Illustrator 19.0.0, SVG Export Plug-In . SVG Version: 6.00 Build 0)  -->
<svg version="1.1" id="Layer_1" xmlns="http://www.w3.org/2000/svg" xmlns:xlink="http://www.w3.org/1999/xlink" x="0px" y="0px"
	 viewBox="0 0 24 24" style="enable-background:new 0 0 24 24;" xml:space="preserve">
<g>
	<g>
		<path d="M14.5,10h7c0.276,0,0.5-0.224,0.5-0.5S21.776,9,21.5,9h-7C14.224,9,14,9.224,14,9.5S14.224,10,14.5,10z M14.5,16h7
			c0.276,0,0.5-0.224,0.5-0.5S21.776,15,21.5,15h-7c-0.276,0-0.5,0.224-0.5,0.5S14.224,16,14.5,16z M2.5,19h10
			c0.276,0,0.5-0.225,0.5-0.501c0-1.253-0.85-2.341-2.065-2.645l-1.501-0.375l-0.063-0.251c0.39-0.43,0.666-0.979,0.781-1.549
			c0.267-0.138,0.46-0.4,0.5-0.715l0.108-0.87c0.033-0.264-0.048-0.53-0.223-0.73c-0.054-0.062-0.115-0.115-0.182-0.161l0.025-0.531
			l0.091-0.091c0.258-0.274,0.606-0.859,0.055-1.703C10.266,8.478,9.726,8,8.644,8C8.326,8,7.607,8,6.909,8.438
			c-2.058,0.072-2.3,1.181-2.3,2.019c0,0.165,0.029,0.474,0.058,0.732c-0.074,0.047-0.143,0.105-0.201,0.172
			c-0.178,0.202-0.26,0.469-0.226,0.734l0.108,0.87c0.041,0.326,0.248,0.596,0.553,0.729c0.112,0.545,0.374,1.073,0.739,1.492
			L5.567,15.48l-1.501,0.375C2.85,16.158,2,17.246,2,18.5C2,18.776,2.224,19,2.5,19z M21.5,1h-19C1.121,1,0,2.122,0,3.5v17
			C0,21.878,1.121,23,2.5,23h19c1.379,0,2.5-1.122,2.5-2.5v-17C24,2.122,22.879,1,21.5,1z M6.5,3C6.776,3,7,3.224,7,3.5
			S6.776,4,6.5,4S6,3.776,6,3.5S6.224,3,6.5,3z M4.5,3C4.776,3,5,3.224,5,3.5S4.776,4,4.5,4S4,3.776,4,3.5S4.224,3,4.5,3z M2.5,3
			C2.776,3,3,3.224,3,3.5S2.776,4,2.5,4S2,3.776,2,3.5S2.224,3,2.5,3z M23,20.5c0,0.827-0.673,1.5-1.5,1.5h-19
			C1.673,22,1,21.327,1,20.5V6h22V20.5z M14.5,19h4c0.276,0,0.5-0.224,0.5-0.5S18.776,18,18.5,18h-4c-0.276,0-0.5,0.224-0.5,0.5
			S14.224,19,14.5,19z M14.5,13h7c0.276,0,0.5-0.224,0.5-0.5S21.776,12,21.5,12h-7c-0.276,0-0.5,0.224-0.5,0.5S14.224,13,14.5,13z"
			/>
	</g>
</g>
</svg>
