<?xml version="1.0" encoding="iso-8859-1"?>
<!-- Generator: Adobe Illustrator 19.0.0, SVG Export Plug-In . SVG Version: 6.00 Build 0)  -->
<svg version="1.1" id="Layer_1" xmlns="http://www.w3.org/2000/svg" xmlns:xlink="http://www.w3.org/1999/xlink" x="0px" y="0px"
	 viewBox="0 0 24 24" style="enable-background:new 0 0 24 24;" xml:space="preserve">
<g>
	<g>
		<path d="M8.327,8.429C8.17,7.045,7.073,6,5.777,6H3.224c-1.296,0-2.393,1.044-2.55,2.429l-0.663,5.808
			c-0.055,0.486,0.095,0.968,0.411,1.323c0.272,0.306,0.635,0.483,1.027,0.505l0.552,7.472C2.021,23.798,2.238,24,2.5,24h4
			c0.262,0,0.479-0.202,0.499-0.463l0.552-7.472c0.393-0.022,0.755-0.2,1.027-0.505c0.316-0.354,0.466-0.837,0.411-1.323
			L8.327,8.429z M4.501,5c1.381,0,2.5-1.119,2.5-2.5c0-1.381-1.119-2.5-2.5-2.5c-1.381,0-2.5,1.119-2.5,2.5
			C2.001,3.881,3.12,5,4.501,5z M15.501,4h2c0.276,0,0.5-0.224,0.5-0.5S17.777,3,17.501,3h-2c-1.379,0-2.5,1.122-2.5,2.5V12h-2.5
			c-0.276,0-0.5,0.224-0.5,0.5s0.224,0.5,0.5,0.5h2.5v6.5c0,1.378,1.121,2.5,2.5,2.5h2c0.276,0,0.5-0.224,0.5-0.5
			s-0.224-0.5-0.5-0.5h-2c-0.827,0-1.5-0.673-1.5-1.5V13h3.5c0.276,0,0.5-0.224,0.5-0.5s-0.224-0.5-0.5-0.5h-3.5V5.5
			C14.001,4.673,14.674,4,15.501,4z M22.501,1h-2c-0.827,0-1.5,0.673-1.5,1.5v2c0,0.827,0.673,1.5,1.5,1.5h2
			c0.827,0,1.5-0.673,1.5-1.5v-2C24.001,1.673,23.328,1,22.501,1z M22.501,19h-2c-0.827,0-1.5,0.673-1.5,1.5v2
			c0,0.827,0.673,1.5,1.5,1.5h2c0.827,0,1.5-0.673,1.5-1.5v-2C24.001,19.673,23.328,19,22.501,19z M22.501,10h-2
			c-0.827,0-1.5,0.673-1.5,1.5v2c0,0.827,0.673,1.5,1.5,1.5h2c0.827,0,1.5-0.673,1.5-1.5v-2C24.001,10.673,23.328,10,22.501,10z"/>
	</g>
</g>
</svg>
