<?xml version="1.0" encoding="iso-8859-1"?>
<!-- Generator: Adobe Illustrator 19.0.0, SVG Export Plug-In . SVG Version: 6.00 Build 0)  -->
<svg version="1.1" id="Layer_1" xmlns="http://www.w3.org/2000/svg" xmlns:xlink="http://www.w3.org/1999/xlink" x="0px" y="0px"
	 viewBox="0 0 30 30" style="enable-background:new 0 0 30 30;" xml:space="preserve">
<g>
	<g>
		<path d="M20,12H10c-0.276,0-0.5,0.224-0.5,0.5v8c0,0.276,0.224,0.5,0.5,0.5h10c0.276,0,0.5-0.224,0.5-0.5v-8
			C20.5,12.224,20.276,12,20,12z M19.5,20h-1v-1.5c0-0.276-0.224-0.5-0.5-0.5s-0.5,0.224-0.5,0.5V20h-2v-4.5
			c0-0.276-0.224-0.5-0.5-0.5s-0.5,0.224-0.5,0.5V20h-2v-2.5c0-0.276-0.224-0.5-0.5-0.5s-0.5,0.224-0.5,0.5V20h-1v-7h9V20z M12,24
			c-0.276,0-0.5,0.224-0.5,0.5S11.724,25,12,25s0.5-0.224,0.5-0.5S12.276,24,12,24z M15,24c-0.276,0-0.5,0.224-0.5,0.5
			S14.724,25,15,25s0.5-0.224,0.5-0.5S15.276,24,15,24z M18,24c-0.276,0-0.5,0.224-0.5,0.5S17.724,25,18,25s0.5-0.224,0.5-0.5
			S18.276,24,18,24z M20.333,7.001H15.5V2.908c0.581-0.207,1-0.757,1-1.408C16.5,0.673,15.827,0,15,0s-1.5,0.673-1.5,1.5
			c0,0.651,0.419,1.201,1,1.408v4.093H9.667c-1.746,0-3.167,1.385-3.167,3.088v16.823C6.5,28.615,7.921,30,9.667,30h10.666
			c1.746,0,3.167-1.385,3.167-3.088V10.089C23.5,8.386,22.079,7.001,20.333,7.001z M15,1c0.275,0,0.5,0.224,0.5,0.5S15.275,2,15,2
			s-0.5-0.224-0.5-0.5S14.725,1,15,1z M22.5,26.911c0,1.151-0.972,2.088-2.167,2.088H9.667c-1.195,0-2.167-0.937-2.167-2.088V10.088
			C7.5,8.937,8.472,8,9.667,8h10.666c1.195,0,2.167,0.937,2.167,2.088V26.911z"/>
	</g>
</g>
</svg>
