<?xml version="1.0" encoding="iso-8859-1"?>
<!-- Generator: Adobe Illustrator 19.0.0, SVG Export Plug-In . SVG Version: 6.00 Build 0)  -->
<svg version="1.1" id="Layer_1" xmlns="http://www.w3.org/2000/svg" xmlns:xlink="http://www.w3.org/1999/xlink" x="0px" y="0px"
	 viewBox="0 0 30 30" style="enable-background:new 0 0 30 30;" xml:space="preserve">
<g>
	<g>
		<path d="M21.5,2.5H22V3c0,0.276,0.224,0.5,0.5,0.5S23,3.276,23,3V2.5h0.5C23.776,2.5,24,2.276,24,2s-0.224-0.5-0.5-0.5H23V1
			c0-0.276-0.224-0.5-0.5-0.5S22,0.724,22,1v0.5h-0.5C21.224,1.5,21,1.724,21,2S21.224,2.5,21.5,2.5z M7.5,25.5
			C6.122,25.5,5,24.378,5,23c0-0.276-0.224-0.5-0.5-0.5S4,22.724,4,23c0,1.378-1.122,2.5-2.5,2.5C1.224,25.5,1,25.724,1,26
			s0.224,0.5,0.5,0.5C2.878,26.5,4,27.622,4,29c0,0.276,0.224,0.5,0.5,0.5S5,29.276,5,29c0-1.378,1.122-2.5,2.5-2.5
			C7.776,26.5,8,26.276,8,26S7.776,25.5,7.5,25.5z M4.5,27.226C4.2,26.72,3.78,26.3,3.274,26C3.78,25.7,4.2,25.28,4.5,24.774
			C4.8,25.28,5.22,25.7,5.726,26C5.22,26.3,4.8,26.72,4.5,27.226z M29.5,11.5c-1.378,0-2.5-1.122-2.5-2.5c0-0.276-0.224-0.5-0.5-0.5
			S26,8.724,26,9c0,1.378-1.122,2.5-2.5,2.5c-0.276,0-0.5,0.224-0.5,0.5s0.224,0.5,0.5,0.5c1.378,0,2.5,1.122,2.5,2.5
			c0,0.276,0.224,0.5,0.5,0.5S27,15.276,27,15c0-1.378,1.122-2.5,2.5-2.5c0.276,0,0.5-0.224,0.5-0.5S29.776,11.5,29.5,11.5z
			 M26.5,13.226C26.2,12.72,25.78,12.3,25.274,12c0.506-0.3,0.925-0.72,1.226-1.226C26.8,11.28,27.22,11.7,27.726,12
			C27.22,12.3,26.8,12.72,26.5,13.226z M21,11c0-5.79-4.71-10.5-10.5-10.5C4.71,0.5,0,5.21,0,11s4.71,10.5,10.5,10.5
			C16.29,21.5,21,16.79,21,11z M10.5,20.5C5.262,20.5,1,16.238,1,11s4.262-9.5,9.5-9.5c5.238,0,9.5,4.262,9.5,9.5
			S15.738,20.5,10.5,20.5z M25.5,23.5c-2.481,0-4.5-2.019-4.5-4.5c0-0.276-0.224-0.5-0.5-0.5S20,18.724,20,19
			c0,2.481-2.019,4.5-4.5,4.5c-0.276,0-0.5,0.224-0.5,0.5s0.224,0.5,0.5,0.5c2.481,0,4.5,2.019,4.5,4.5c0,0.276,0.224,0.5,0.5,0.5
			S21,29.276,21,29c0-2.481,2.019-4.5,4.5-4.5c0.276,0,0.5-0.224,0.5-0.5S25.776,23.5,25.5,23.5z M20.5,26.722
			c-0.55-1.203-1.519-2.172-2.722-2.722c1.203-0.55,2.172-1.519,2.722-2.722c0.55,1.203,1.519,2.172,2.722,2.722
			C22.019,24.55,21.05,25.519,20.5,26.722z"/>
	</g>
</g>
</svg>
