<?xml version="1.0" encoding="iso-8859-1"?>
<!-- Generator: Adobe Illustrator 19.0.0, SVG Export Plug-In . SVG Version: 6.00 Build 0)  -->
<svg version="1.1" id="Layer_1" xmlns="http://www.w3.org/2000/svg" xmlns:xlink="http://www.w3.org/1999/xlink" x="0px" y="0px"
	 viewBox="0 0 30 30" style="enable-background:new 0 0 30 30;" xml:space="preserve">
<g>
	<g>
		<path d="M10.5,3.5C10.5,3.224,10.276,3,10,3H4.5V0.5C4.5,0.224,4.276,0,4,0H1C0.724,0,0.5,0.224,0.5,0.5v29
			C0.5,29.776,0.724,30,1,30h3c0.276,0,0.5-0.223,0.5-0.5V4H10C10.276,4,10.5,3.776,10.5,3.5z M3.5,29h-2V1h2V29z M19.945,17.763
			c0.323-1.908,0.555-3.983,0.555-6.013c0-6.698-4.947-11.417-5.158-11.615c-0.192-0.181-0.493-0.181-0.684,0
			C14.447,0.333,9.5,5.052,9.5,11.75c0,2.03,0.232,4.105,0.555,6.014l-4.466,6.451C5.531,24.299,5.5,24.398,5.5,24.5v5
			c0,0.199,0.117,0.378,0.299,0.458C5.863,29.986,5.932,30,6,30c0.123,0,0.244-0.045,0.338-0.131l5.435-4.982
			c0.085,0.269,0.152,0.474,0.196,0.606l-1.437,3.832c-0.057,0.153-0.036,0.325,0.057,0.46C10.683,29.919,10.836,30,11,30h8
			c0.164,0,0.317-0.081,0.411-0.215c0.093-0.134,0.115-0.306,0.057-0.46l-1.437-3.832c0.044-0.132,0.111-0.337,0.196-0.606
			l5.435,4.982C23.756,29.955,23.877,30,24,30c0.068,0,0.137-0.014,0.201-0.043c0.182-0.08,0.299-0.26,0.299-0.458v-5
			c0-0.102-0.031-0.202-0.089-0.285L19.945,17.763z M6.5,28.363v-3.707l3.812-5.505c0.372,1.875,0.802,3.507,1.141,4.672L6.5,28.363
			z M18.279,29h-6.557l1.125-3h4.307L18.279,29z M17.138,25h-4.277c-0.482-1.486-2.361-7.643-2.362-13.25
			c0-5.265,3.396-9.346,4.5-10.534c1.105,1.185,4.5,5.258,4.5,10.534C19.499,17.353,17.62,23.513,17.138,25z M23.5,28.363
			l-4.953-4.54c0.338-1.166,0.768-2.797,1.141-4.673l3.812,5.506V28.363z M15,9c-0.827,0-1.5,0.673-1.5,1.5
			c0,0.827,0.673,1.5,1.5,1.5c0.827,0,1.5-0.673,1.5-1.5C16.5,9.673,15.827,9,15,9z M15,11c-0.275,0-0.5-0.224-0.5-0.5
			S14.725,10,15,10c0.275,0,0.5,0.224,0.5,0.5S15.275,11,15,11z M29,0h-3c-0.276,0-0.5,0.224-0.5,0.5V3H20
			c-0.276,0-0.5,0.224-0.5,0.5S19.724,4,20,4h5.5v25.5c0,0.276,0.224,0.5,0.5,0.5h3c0.276,0,0.5-0.223,0.5-0.5v-29
			C29.5,0.224,29.276,0,29,0z M28.5,29h-2V1h2V29z"/>
	</g>
</g>
</svg>
