<?xml version="1.0" encoding="iso-8859-1"?>
<!-- Generator: Adobe Illustrator 19.0.0, SVG Export Plug-In . SVG Version: 6.00 Build 0)  -->
<svg version="1.1" id="Layer_1" xmlns="http://www.w3.org/2000/svg" xmlns:xlink="http://www.w3.org/1999/xlink" x="0px" y="0px"
	 viewBox="0 0 30 30" style="enable-background:new 0 0 30 30;" xml:space="preserve">
<g>
	<g>
		<path d="M21.877,6.999c-3.585,0-6.727,2.316-7.764,5.667L10,13.013V10h2.5c0.827,0,1.5-0.673,1.5-1.5C14,7.673,13.327,7,12.5,7
			h-12C0.224,7,0,7.224,0,7.5v2C0,9.776,0.224,10,0.5,10H9v3.097l-0.656,0.055c-0.824,0.07-1.64,0.239-2.423,0.503l-2.582,0.871
			c-0.203,0.069-0.34,0.259-0.34,0.474c0,0.215,0.137,0.406,0.34,0.474l2.582,0.871c0.783,0.264,1.599,0.433,2.423,0.503L9,16.904
			V20H0.5C0.224,20,0,20.224,0,20.5v2C0,22.776,0.224,23,0.5,23h12c0.827,0,1.5-0.673,1.5-1.5c0-0.827-0.673-1.5-1.5-1.5H10v-3.013
			l4.114,0.346C15.149,20.685,18.292,23,21.877,23C26.356,23,30,19.41,30,14.999C30,10.589,26.356,6.999,21.877,6.999z M1,9V8h11.5
			C12.775,8,13,8.224,13,8.5S12.775,9,12.5,9H1z M12.5,21c0.275,0,0.5,0.224,0.5,0.5S12.775,22,12.5,22H1v-1H12.5z M8.429,15.852
			c-0.745-0.063-1.48-0.216-2.187-0.454L5.064,15l1.177-0.398c0.708-0.238,1.443-0.391,2.187-0.454L22.029,13
			C23.116,13,24,13.897,24,15c0,1.103-0.884,2-1.928,2.001L8.429,15.852z M21.877,21.999c-3.003,0-5.634-1.855-6.658-4.572
			L22.029,18C23.667,18,25,16.654,25,15c0-1.653-1.331-2.998-3.01-2.998h-0.003l-6.768,0.57c1.025-2.718,3.656-4.574,6.658-4.574
			c3.928,0,7.123,3.14,7.123,7C29,18.859,25.805,21.999,21.877,21.999z"/>
	</g>
</g>
</svg>
