<?xml version="1.0" encoding="iso-8859-1"?>
<!-- Generator: Adobe Illustrator 19.0.0, SVG Export Plug-In . SVG Version: 6.00 Build 0)  -->
<svg version="1.1" id="Layer_1" xmlns="http://www.w3.org/2000/svg" xmlns:xlink="http://www.w3.org/1999/xlink" x="0px" y="0px"
	 viewBox="0 0 24 24" style="enable-background:new 0 0 24 24;" xml:space="preserve">
<g>
	<g>
		<path d="M22,0c-0.276,0-0.5,0.224-0.5,0.5v2.575C19.296,1.095,16.485,0,13.5,0c-3.205,0-6.218,1.247-8.485,3.514
			C2.748,5.781,1.5,8.794,1.5,12c0,3.205,1.248,6.218,3.515,8.485C7.282,22.752,10.295,24,13.5,24c3.205,0,6.219-1.248,8.486-3.515
			c0.195-0.195,0.195-0.512,0-0.707s-0.512-0.195-0.707,0C19.201,21.856,16.438,23,13.5,23s-5.7-1.144-7.778-3.222
			C3.644,17.7,2.5,14.938,2.5,12s1.143-5.7,3.221-7.778S10.562,1,13.5,1c2.827,0,5.485,1.068,7.533,3H18c-0.276,0-0.5,0.224-0.5,0.5
			S17.724,5,18,5h4c0.276,0,0.5-0.224,0.5-0.5v-4C22.5,0.224,22.276,0,22,0z"/>
	</g>
</g>
</svg>
