<?xml version="1.0" encoding="iso-8859-1"?>
<!-- Generator: Adobe Illustrator 19.0.0, SVG Export Plug-In . SVG Version: 6.00 Build 0)  -->
<svg version="1.1" id="Layer_1" xmlns="http://www.w3.org/2000/svg" xmlns:xlink="http://www.w3.org/1999/xlink" x="0px" y="0px"
	 viewBox="0 0 24 24" style="enable-background:new 0 0 24 24;" xml:space="preserve">
<g>
	<g>
		<path d="M23.5,3C17.159,3,12,8.159,12,14.5v0.793l-2.146-2.146c-0.195-0.195-0.512-0.195-0.707,0s-0.195,0.512,0,0.707
			l2.999,2.999c0.046,0.046,0.102,0.083,0.163,0.109C12.37,16.987,12.435,17,12.5,17s0.13-0.013,0.191-0.038
			c0.062-0.025,0.117-0.062,0.163-0.109l2.999-2.999c0.195-0.195,0.195-0.512,0-0.707s-0.512-0.195-0.707,0L13,15.293V14.5
			C13,8.71,17.709,4,23.5,4C23.776,4,24,3.776,24,3.5S23.776,3,23.5,3z M21.389,5.242c-3.168,0.724-5.798,3.087-6.862,6.167
			c-0.06,0.174-0.02,0.367,0.105,0.502c0.124,0.134,0.313,0.19,0.492,0.145c0.512-0.132,1.066,0.013,1.437,0.384
			C16.844,12.723,17,13.1,17,13.501s-0.156,0.777-0.439,1.061l-2.999,2.999c-0.07,0.07-0.147,0.133-0.23,0.188l-0.119,0.062
			c-0.002,0.001-0.14,0.076-0.142,0.077l0.193,0.461l-0.342-0.417c-0.005,0.001-0.124,0.038-0.129,0.04
			c-0.193,0.039-0.394,0.039-0.587,0l-0.127-0.04c-0.003-0.001-0.15-0.044-0.153-0.045l-0.191,0.462l0.052-0.537
			c-0.005-0.003-0.113-0.06-0.119-0.063c-0.083-0.055-0.16-0.118-0.23-0.188l-2.999-2.999C8.156,14.279,8,13.902,8,13.501
			s0.156-0.777,0.44-1.061c0.522-0.525,1.423-0.565,1.999-0.097c0.137,0.11,0.319,0.142,0.485,0.082
			c0.165-0.059,0.287-0.201,0.321-0.373c0.663-3.324,2.704-6.281,5.601-8.114c0.172-0.109,0.261-0.312,0.224-0.513
			c-0.037-0.201-0.192-0.359-0.393-0.4C16.644,3.019,16.534,3,16.501,3h-14c-1.378,0-2.5,1.122-2.5,2.5v13
			c0,1.378,1.122,2.5,2.5,2.5h17c1.378,0,2.5-1.122,2.5-2.5V5.729c0-0.152-0.069-0.296-0.188-0.391
			C21.692,5.243,21.535,5.206,21.389,5.242z"/>
	</g>
</g>
</svg>
