<?xml version="1.0" encoding="iso-8859-1"?>
<!-- Generator: Adobe Illustrator 19.0.0, SVG Export Plug-In . SVG Version: 6.00 Build 0)  -->
<svg version="1.1" id="Layer_1" xmlns="http://www.w3.org/2000/svg" xmlns:xlink="http://www.w3.org/1999/xlink" x="0px" y="0px"
	 viewBox="0 0 24 24" style="enable-background:new 0 0 24 24;" xml:space="preserve">
<g>
	<g>
		<path d="M9.5,21C8.673,21,8,20.327,8,19.5c0-0.604,0.794-2.594,1.037-3.189c0.154-0.376,0.771-0.376,0.926,0
			C10.206,16.906,11,18.896,11,19.5C11,20.327,10.327,21,9.5,21z M9.5,17.88C9.221,18.638,9.003,19.309,9,19.5
			C9,19.776,9.225,20,9.5,20s0.5-0.224,0.5-0.5C9.997,19.309,9.779,18.638,9.5,17.88z"/>
	</g>
	<g>
		<g>
			<path d="M12,24C5.383,24,0,18.617,0,12S5.383,0,12,0s12,5.383,12,12S18.617,24,12,24z M12,1C5.935,1,1,5.935,1,12s4.935,11,11,11
				s11-4.935,11-11S18.065,1,12,1z"/>
		</g>
		<g>
			<path d="M7.5,11C6.121,11,5,9.878,5,8.5S6.121,6,7.5,6S10,7.122,10,8.5S8.879,11,7.5,11z M7.5,7C6.673,7,6,7.673,6,8.5
				S6.673,10,7.5,10S9,9.327,9,8.5S8.327,7,7.5,7z"/>
		</g>
		<g>
			<path d="M16.5,11C15.121,11,14,9.878,14,8.5S15.121,6,16.5,6S19,7.122,19,8.5S17.879,11,16.5,11z M16.5,7
				C15.673,7,15,7.673,15,8.5s0.673,1.5,1.5,1.5S18,9.327,18,8.5S17.327,7,16.5,7z"/>
		</g>
		<g>
			<path d="M14.5,17h-5c-0.167,0-0.323-0.083-0.416-0.223s-0.109-0.315-0.046-0.47C9.078,16.213,10.022,14,12,14
				s2.922,2.213,2.962,2.308c0.063,0.154,0.047,0.331-0.046,0.47S14.667,17,14.5,17z M10.369,16h3.262c-0.342-0.468-0.894-1-1.631-1
				S10.711,15.532,10.369,16z"/>
		</g>
	</g>
</g>
<g>
</g>
<g>
</g>
<g>
</g>
<g>
</g>
<g>
</g>
<g>
</g>
<g>
</g>
<g>
</g>
<g>
</g>
<g>
</g>
<g>
</g>
<g>
</g>
<g>
</g>
<g>
</g>
<g>
</g>
</svg>
