<?xml version="1.0" encoding="iso-8859-1"?>
<!-- Generator: Adobe Illustrator 19.0.0, SVG Export Plug-In . SVG Version: 6.00 Build 0)  -->
<svg version="1.1" id="Layer_1" xmlns="http://www.w3.org/2000/svg" xmlns:xlink="http://www.w3.org/1999/xlink" x="0px" y="0px"
	 viewBox="0 0 24 24" style="enable-background:new 0 0 24 24;" xml:space="preserve">
<g>
	<g>
		<path d="M12,24C5.383,24,0,18.617,0,12S5.383,0,12,0s12,5.383,12,12S18.617,24,12,24z M12,1C5.935,1,1,5.935,1,12s4.935,11,11,11
			s11-4.935,11-11S18.065,1,12,1z"/>
	</g>
	<g>
		<path d="M12,21c-3.979,0-7.436-2.553-8.603-6.353c-0.047-0.152-0.019-0.316,0.075-0.444C3.567,14.075,3.717,14,3.875,14h16.25
			c0.158,0,0.308,0.075,0.402,0.203c0.094,0.128,0.122,0.292,0.075,0.444C19.436,18.447,15.979,21,12,21z M4.582,15
			c1.212,3.018,4.112,5,7.418,5s6.206-1.982,7.418-5H4.582z"/>
	</g>
	<g>
		<path d="M8.5,9h-3C5.224,9,5,8.776,5,8.5S5.224,8,5.5,8h3C8.776,8,9,8.224,9,8.5S8.776,9,8.5,9z"/>
	</g>
	<g>
		<path d="M18.5,9h-3C15.224,9,15,8.776,15,8.5S15.224,8,15.5,8h3C18.776,8,19,8.224,19,8.5S18.776,9,18.5,9z"/>
	</g>
</g>
<g>
</g>
<g>
</g>
<g>
</g>
<g>
</g>
<g>
</g>
<g>
</g>
<g>
</g>
<g>
</g>
<g>
</g>
<g>
</g>
<g>
</g>
<g>
</g>
<g>
</g>
<g>
</g>
<g>
</g>
</svg>
