<?xml version="1.0" encoding="iso-8859-1"?>
<!-- Generator: Adobe Illustrator 19.0.0, SVG Export Plug-In . SVG Version: 6.00 Build 0)  -->
<svg version="1.1" id="Layer_1" xmlns="http://www.w3.org/2000/svg" xmlns:xlink="http://www.w3.org/1999/xlink" x="0px" y="0px"
	 viewBox="0 0 24 24" style="enable-background:new 0 0 24 24;" xml:space="preserve">
<g>
	<g>
		<path d="M12,24C5.383,24,0,18.617,0,12S5.383,0,12,0s12,5.383,12,12S18.617,24,12,24z M12,1C5.935,1,1,5.935,1,12s4.935,11,11,11
			s11-4.935,11-11S18.065,1,12,1z"/>
	</g>
	<g>
		<path d="M12,19c-2.393,0-4.596-1.208-5.893-3.23c-0.149-0.232-0.082-0.542,0.151-0.691c0.232-0.151,0.541-0.082,0.691,0.151
			C8.062,16.964,9.95,18,12,18s3.938-1.036,5.051-2.77c0.148-0.233,0.458-0.302,0.691-0.151c0.232,0.149,0.3,0.458,0.151,0.691
			C16.596,17.792,14.393,19,12,19z"/>
	</g>
	<g>
		<path d="M6.5,14c-0.128,0-0.256-0.049-0.354-0.146l-3.414-3.414C2.26,9.967,2,9.339,2,8.671c0-1.338,0.896-2.444,2.083-2.638
			c0.735-0.116,1.476,0.085,2.036,0.562C6.262,6.717,6.39,6.853,6.5,7c0.11-0.147,0.238-0.283,0.381-0.405
			C7.441,6.12,8.184,5.918,8.916,6.034C10.104,6.228,11,7.333,11,8.607c0,0.732-0.26,1.36-0.732,1.833l-3.414,3.414
			C6.756,13.951,6.628,14,6.5,14z M4.502,7C4.417,7,4.331,7.007,4.244,7.021C3.535,7.136,3,7.818,3,8.607
			c0,0.465,0.156,0.842,0.439,1.125L6.5,12.793l3.061-3.061C9.844,9.449,10,9.072,10,8.671c0-0.853-0.535-1.535-1.245-1.65
			C8.306,6.948,7.87,7.067,7.529,7.357C7.193,7.643,7,8.06,7,8.5C7,8.776,6.776,9,6.5,9S6,8.776,6,8.5
			c0-0.44-0.193-0.857-0.529-1.143C5.196,7.123,4.859,7,4.502,7z"/>
	</g>
	<g>
		<path d="M17.5,14c-0.128,0-0.256-0.049-0.354-0.146l-3.414-3.414C13.26,9.967,13,9.339,13,8.671c0-1.338,0.896-2.444,2.083-2.638
			c0.733-0.116,1.476,0.085,2.036,0.562C17.262,6.717,17.39,6.853,17.5,7c0.11-0.147,0.238-0.283,0.381-0.405
			c0.56-0.476,1.302-0.677,2.035-0.562C21.104,6.228,22,7.333,22,8.607c0,0.732-0.26,1.36-0.732,1.833l-3.414,3.414
			C17.756,13.951,17.628,14,17.5,14z M15.502,7c-0.085,0-0.171,0.007-0.258,0.021C14.535,7.136,14,7.818,14,8.607
			c0,0.465,0.156,0.842,0.439,1.125l3.061,3.061l3.061-3.061C20.844,9.449,21,9.072,21,8.671c0-0.853-0.535-1.535-1.245-1.65
			c-0.448-0.073-0.885,0.046-1.227,0.336C18.193,7.643,18,8.06,18,8.5C18,8.776,17.776,9,17.5,9S17,8.776,17,8.5
			c0-0.44-0.193-0.857-0.529-1.143C16.196,7.123,15.859,7,15.502,7z"/>
	</g>
</g>
<g>
</g>
<g>
</g>
<g>
</g>
<g>
</g>
<g>
</g>
<g>
</g>
<g>
</g>
<g>
</g>
<g>
</g>
<g>
</g>
<g>
</g>
<g>
</g>
<g>
</g>
<g>
</g>
<g>
</g>
</svg>
