<?xml version="1.0" encoding="iso-8859-1"?>
<!-- Generator: Adobe Illustrator 19.0.0, SVG Export Plug-In . SVG Version: 6.00 Build 0)  -->
<svg version="1.1" id="Layer_1" xmlns="http://www.w3.org/2000/svg" xmlns:xlink="http://www.w3.org/1999/xlink" x="0px" y="0px"
	 viewBox="0 0 24 24" style="enable-background:new 0 0 24 24;" xml:space="preserve">
<g>
	<g>
		<path d="M14,10.5c0.276,0,0.5-0.224,0.5-0.5S14.276,9.5,14,9.5h-2c-0.276,0-0.5,0.224-0.5,0.5v4c0,0.276,0.224,0.5,0.5,0.5h2
			c0.276,0,0.5-0.224,0.5-0.5s-0.224-0.5-0.5-0.5h-1.5v-1h1c0.276,0,0.5-0.224,0.5-0.5s-0.224-0.5-0.5-0.5h-1v-1H14z M9,9.5H7
			c-0.276,0-0.5,0.224-0.5,0.5v4c0,0.276,0.224,0.5,0.5,0.5h2c0.827,0,1.5-0.673,1.5-1.5v-2C10.5,10.173,9.827,9.5,9,9.5z M9.5,13
			c0,0.276-0.225,0.5-0.5,0.5H7.5v-3H9c0.275,0,0.5,0.224,0.5,0.5V13z M20,0.5H4C2.07,0.5,0.5,2.07,0.5,4v16
			c0,1.93,1.57,3.5,3.5,3.5h16c1.93,0,3.5-1.57,3.5-3.5V4C23.5,2.07,21.93,0.5,20,0.5z M22.5,20c0,1.378-1.121,2.5-2.5,2.5H4
			c-1.379,0-2.5-1.122-2.5-2.5V4c0-1.378,1.121-2.5,2.5-2.5h16c1.379,0,2.5,1.122,2.5,2.5V20z M18,13.5h-1.5V10
			c0-0.276-0.224-0.5-0.5-0.5s-0.5,0.224-0.5,0.5v4c0,0.276,0.224,0.5,0.5,0.5h2c0.276,0,0.5-0.224,0.5-0.5S18.276,13.5,18,13.5z"/>
	</g>
</g>
</svg>
