<?xml version="1.0" encoding="iso-8859-1"?>
<!-- Generator: Adobe Illustrator 19.0.0, SVG Export Plug-In . SVG Version: 6.00 Build 0)  -->
<svg version="1.1" id="Layer_1" xmlns="http://www.w3.org/2000/svg" xmlns:xlink="http://www.w3.org/1999/xlink" x="0px" y="0px"
	 viewBox="0 0 24 24" style="enable-background:new 0 0 24 24;" xml:space="preserve">
<g>
	<g>
		<path d="M4.5,9.5h-1C3.224,9.5,3,9.724,3,10v4c0,0.276,0.224,0.5,0.5,0.5S4,14.276,4,14v-1.5h0.5C5.327,12.5,6,11.827,6,11
			C6,10.173,5.327,9.5,4.5,9.5z M4.5,11.5H4v-1h0.5C4.776,10.5,5,10.724,5,11S4.776,11.5,4.5,11.5z M8.5,10.5h1
			c0.276,0,0.5,0.224,0.5,0.5s0.224,0.5,0.5,0.5S11,11.276,11,11c0-0.827-0.673-1.5-1.5-1.5h-1C7.673,9.5,7,10.173,7,11v2
			c0,0.827,0.673,1.5,1.5,1.5h1c0.827,0,1.5-0.673,1.5-1.5c0-0.276-0.224-0.5-0.5-0.5h-1C9.224,12.5,9,12.724,9,13
			s0.224,0.5,0.5,0.5h-1C8.224,13.5,8,13.276,8,13v-2C8,10.724,8.224,10.5,8.5,10.5z M20.5,0.5h-17C1.57,0.5,0,2.07,0,4v16
			c0,1.93,1.57,3.5,3.5,3.5h17c1.93,0,3.5-1.57,3.5-3.5V4C24,2.07,22.43,0.5,20.5,0.5z M23,20c0,1.378-1.122,2.5-2.5,2.5h-17
			C2.122,22.5,1,21.378,1,20V4c0-1.378,1.122-2.5,2.5-2.5h17C21.878,1.5,23,2.622,23,4V20z M14.5,9.5h-2C12.224,9.5,12,9.724,12,10
			v4c0,0.276,0.224,0.5,0.5,0.5h2c0.827,0,1.5-0.673,1.5-1.5v-2C16,10.173,15.327,9.5,14.5,9.5z M15,13c0,0.276-0.224,0.5-0.5,0.5
			H13v-3h1.5c0.276,0,0.5,0.224,0.5,0.5V13z M20.5,9.5C20.224,9.5,20,9.724,20,10v2.5l-2.1-2.8
			c-0.129-0.172-0.353-0.243-0.558-0.174C17.138,9.594,17,9.785,17,10v4c0,0.276,0.224,0.5,0.5,0.5S18,14.276,18,14v-2.5l2.1,2.8
			c0.096,0.128,0.246,0.2,0.4,0.2c0.053,0,0.106-0.008,0.158-0.026C20.862,14.406,21,14.215,21,14v-4C21,9.724,20.776,9.5,20.5,9.5z
			"/>
	</g>
</g>
</svg>
