<?xml version="1.0" encoding="iso-8859-1"?>
<!-- Generator: Adobe Illustrator 19.0.0, SVG Export Plug-In . SVG Version: 6.00 Build 0)  -->
<svg version="1.1" id="Layer_1" xmlns="http://www.w3.org/2000/svg" xmlns:xlink="http://www.w3.org/1999/xlink" x="0px" y="0px"
	 viewBox="0 0 24 24" style="enable-background:new 0 0 24 24;" xml:space="preserve">
<g>
	<g>
		<path d="M19.5,0h-16C1.57,0,0,1.57,0,3.5v10C0,15.43,1.57,17,3.5,17h2.191l-2.638,5.276c-0.104,0.208-0.051,0.459,0.127,0.607
			C3.272,22.961,3.386,23,3.5,23c0.105,0,0.211-0.033,0.3-0.1l7.867-5.9h0.128c0.221,0,0.416-0.145,0.479-0.357
			C13.091,13.909,15.651,12,18.5,12c1.332,0,2.616,0.406,3.713,1.173c0.152,0.107,0.353,0.121,0.518,0.034
			C22.896,13.121,23,12.95,23,12.764V3.5C23,1.57,21.43,0,19.5,0z M6.5,10C5.673,10,5,9.327,5,8.5S5.673,7,6.5,7S8,7.673,8,8.5
			S7.327,10,6.5,10z M11.5,10C10.673,10,10,9.327,10,8.5S10.673,7,11.5,7S13,7.673,13,8.5S12.327,10,11.5,10z M16.5,10
			C15.673,10,15,9.327,15,8.5S15.673,7,16.5,7S18,7.673,18,8.5S17.327,10,16.5,10z"/>
	</g>
	<path d="M18.5,13c-3.033,0-5.5,2.467-5.5,5.5s2.467,5.5,5.5,5.5s5.5-2.467,5.5-5.5S21.533,13,18.5,13z M20.5,19h-4
		c-0.276,0-0.5-0.224-0.5-0.5s0.224-0.5,0.5-0.5h4c0.276,0,0.5,0.224,0.5,0.5S20.776,19,20.5,19z"/>
</g>
<g>
</g>
<g>
</g>
<g>
</g>
<g>
</g>
<g>
</g>
<g>
</g>
<g>
</g>
<g>
</g>
<g>
</g>
<g>
</g>
<g>
</g>
<g>
</g>
<g>
</g>
<g>
</g>
<g>
</g>
</svg>
