<?xml version="1.0" encoding="iso-8859-1"?>
<!-- Generator: Adobe Illustrator 19.0.0, SVG Export Plug-In . SVG Version: 6.00 Build 0)  -->
<svg version="1.1" id="Layer_1" xmlns="http://www.w3.org/2000/svg" xmlns:xlink="http://www.w3.org/1999/xlink" x="0px" y="0px"
	 viewBox="0 0 24 24" style="enable-background:new 0 0 24 24;" xml:space="preserve">
<g>
	<path d="M12,1C5.659,1,0.5,5.262,0.5,10.5c0,2.548,1.26,5.004,3.469,6.789l-1.45,5.074c-0.06,0.211,0.024,0.437,0.208,0.556
		C2.811,22.973,2.905,23,3,23c0.114,0,0.228-0.039,0.32-0.116l4.317-3.598C9.032,19.76,10.498,20,12,20c6.341,0,11.5-4.262,11.5-9.5
		S18.341,1,12,1z M12,17c-3.584,0-6.5-2.916-6.5-6.5S8.416,4,12,4s6.5,2.916,6.5,6.5S15.584,17,12,17z"/>
	<path d="M12,5c-3.033,0-5.5,2.467-5.5,5.5S8.967,16,12,16s5.5-2.467,5.5-5.5S15.033,5,12,5z M14,11h-4c-0.276,0-0.5-0.224-0.5-0.5
		S9.724,10,10,10h4c0.276,0,0.5,0.224,0.5,0.5S14.276,11,14,11z"/>
</g>
<g>
</g>
<g>
</g>
<g>
</g>
<g>
</g>
<g>
</g>
<g>
</g>
<g>
</g>
<g>
</g>
<g>
</g>
<g>
</g>
<g>
</g>
<g>
</g>
<g>
</g>
<g>
</g>
<g>
</g>
</svg>
