<?xml version="1.0" encoding="iso-8859-1"?>
<!-- Generator: Adobe Illustrator 19.0.0, SVG Export Plug-In . SVG Version: 6.00 Build 0)  -->
<svg version="1.1" id="Layer_1" xmlns="http://www.w3.org/2000/svg" xmlns:xlink="http://www.w3.org/1999/xlink" x="0px" y="0px"
	 viewBox="0 0 24 24" style="enable-background:new 0 0 24 24;" xml:space="preserve">
<g>
	<g>
		<circle cx="7" cy="20" r="2"/>
		<circle cx="2.5" cy="22.5" r="1.5"/>
	</g>
	<g>
		<path d="M16,0c-2.356,0-4.545,1.016-6.071,2.802C8.949,2.276,7.859,2,6.75,2C3.028,2,0,5.028,0,8.75s3.028,6.75,6.75,6.75
			c0.019,0,0.038,0,0.058,0C7.414,17.01,8.852,18,10.5,18c1.524,0,2.907-0.881,3.575-2.234C14.703,15.921,15.349,16,16,16
			c4.411,0,8-3.589,8-8S20.411,0,16,0z M6.5,10C5.673,10,5,9.327,5,8.5S5.673,7,6.5,7S8,7.673,8,8.5S7.327,10,6.5,10z M11.5,10
			C10.673,10,10,9.327,10,8.5S10.673,7,11.5,7S13,7.673,13,8.5S12.327,10,11.5,10z M16.5,10C15.673,10,15,9.327,15,8.5
			S15.673,7,16.5,7S18,7.673,18,8.5S17.327,10,16.5,10z"/>
	</g>
</g>
<g>
</g>
<g>
</g>
<g>
</g>
<g>
</g>
<g>
</g>
<g>
</g>
<g>
</g>
<g>
</g>
<g>
</g>
<g>
</g>
<g>
</g>
<g>
</g>
<g>
</g>
<g>
</g>
<g>
</g>
</svg>
