<?xml version="1.0" encoding="iso-8859-1"?>
<!-- Generator: Adobe Illustrator 19.0.0, SVG Export Plug-In . SVG Version: 6.00 Build 0)  -->
<svg version="1.1" id="Layer_1" xmlns="http://www.w3.org/2000/svg" xmlns:xlink="http://www.w3.org/1999/xlink" x="0px" y="0px"
	 viewBox="0 0 24 24" style="enable-background:new 0 0 24 24;" xml:space="preserve">
<g>
	<g>
		<path d="M18.5,6.5C19.327,6.5,20,5.827,20,5V3c0-0.827-0.673-1.5-1.5-1.5C17.673,1.5,17,2.173,17,3v2
			C17,5.827,17.673,6.5,18.5,6.5z M5.5,6.5C6.327,6.5,7,5.827,7,5V3c0-0.827-0.673-1.5-1.5-1.5C4.673,1.5,4,2.173,4,3v2
			C4,5.827,4.673,6.5,5.5,6.5z M11.63,19.336C11.725,19.44,11.859,19.5,12,19.5s0.275-0.06,0.37-0.164
			c0.091-0.1,2.236-2.463,2.938-3.321C15.761,15.461,16,14.822,16,14.166c0-1.47-1.112-2.667-2.478-2.667
			c-0.559,0-1.091,0.2-1.522,0.561c-0.431-0.36-0.963-0.56-1.522-0.56C9.112,11.5,8,12.696,8,14.167
			c0,0.656,0.239,1.295,0.692,1.849C9.394,16.873,11.539,19.236,11.63,19.336z M21.5,3.5C21.224,3.5,21,3.724,21,4v1
			c0,1.378-1.122,2.5-2.5,2.5S16,6.378,16,5V4c0-0.276-0.224-0.5-0.5-0.5h-7C8.224,3.5,8,3.724,8,4v1c0,1.378-1.122,2.5-2.5,2.5
			S3,6.378,3,5V4c0-0.276-0.224-0.5-0.5-0.5C1.122,3.5,0,4.622,0,6v14c0,1.378,1.122,2.5,2.5,2.5h19c1.378,0,2.5-1.122,2.5-2.5V6
			C24,4.622,22.878,3.5,21.5,3.5z M23,20c0,0.827-0.673,1.5-1.5,1.5h-19C1.673,21.5,1,20.827,1,20V9.5h22V20z"/>
	</g>
</g>
</svg>
