<?xml version="1.0" encoding="iso-8859-1"?>
<!-- Generator: Adobe Illustrator 19.2.1, SVG Export Plug-In . SVG Version: 6.00 Build 0)  -->
<svg version="1.1" id="Layer_1" xmlns="http://www.w3.org/2000/svg" xmlns:xlink="http://www.w3.org/1999/xlink" x="0px" y="0px"
	 viewBox="0 0 24 24" style="enable-background:new 0 0 24 24;" xml:space="preserve">
<g>
	<g>
		<path d="M3.5,20.5c0,0.133,0.053,0.26,0.146,0.354L6.5,23.708V6.706l-3-3V20.5z M5.251,19.065l0.434-0.248
			c0.239-0.139,0.545-0.054,0.682,0.186c0.137,0.24,0.055,0.545-0.185,0.682l-0.434,0.248C5.67,19.979,5.584,20,5.5,20
			c-0.174,0-0.342-0.09-0.435-0.252C4.928,19.508,5.011,19.203,5.251,19.065z M17.353,0.146C17.259,0.052,17.132,0,16.999,0h-8
			c-0.091,0-0.18,0.024-0.257,0.071L4.077,2.87L7.207,6H8.5v-0.2c0-0.276,0.224-0.5,0.5-0.5s0.5,0.224,0.5,0.5V6h5.358l5.168-3.18
			L17.353,0.146z M9.5,3c0,0.276-0.224,0.5-0.5,0.5S8.5,3.276,8.5,3V2.5C8.5,2.224,8.724,2,9,2s0.5,0.224,0.5,0.5V3z M17,3.5
			c-0.276,0-0.5-0.224-0.5-0.5V2.5C16.5,2.224,16.724,2,17,2s0.5,0.224,0.5,0.5V3C17.5,3.276,17.276,3.5,17,3.5z M17.445,5.581
			C17.478,5.648,17.5,5.721,17.5,5.799v0.933c0,0.276-0.224,0.5-0.5,0.5s-0.5-0.224-0.5-0.5V6.164l-1,0.615V17h0.491
			c0.276,0,0.5,0.224,0.5,0.5s-0.224,0.5-0.5,0.5H15.5v5.783l4.757-2.854c0.15-0.09,0.243-0.253,0.243-0.429V3.703L17.445,5.581z
			 M17.5,17.5c0,0.276-0.224,0.5-0.5,0.5s-0.5-0.224-0.5-0.5V17c0-0.276,0.224-0.5,0.5-0.5s0.5,0.224,0.5,0.5V17.5z M17.5,14.2
			c0,0.276-0.224,0.5-0.5,0.5s-0.5-0.224-0.5-0.5v-0.933c0-0.276,0.224-0.5,0.5-0.5s0.5,0.224,0.5,0.5V14.2z M17.5,10.466
			c0,0.276-0.224,0.5-0.5,0.5s-0.5-0.224-0.5-0.5V9.533c0-0.276,0.224-0.5,0.5-0.5s0.5,0.224,0.5,0.5V10.466z M18.854,19.354
			C18.756,19.452,18.628,19.5,18.5,19.5s-0.256-0.049-0.354-0.146L17.792,19c-0.195-0.195-0.195-0.512,0-0.707s0.512-0.195,0.707,0
			l0.354,0.354C19.049,18.841,19.049,19.158,18.854,19.354z M9,7.232C8.824,7.232,8.677,7.137,8.588,7H7.5v17h7V7H9.412
			C9.323,7.136,9.176,7.232,9,7.232z M9.263,17.914c-0.013,0.009-0.021,0.023-0.036,0.031L8.466,18.38
			c-0.078,0.045-0.164,0.066-0.248,0.066c-0.174,0-0.342-0.09-0.435-0.252c-0.137-0.24-0.054-0.545,0.186-0.682l0.53-0.303V17
			c0-0.276,0.224-0.5,0.5-0.5s0.5,0.224,0.5,0.5v0.5H9.5C9.5,17.677,9.403,17.826,9.263,17.914z M9.5,14.2
			c0,0.276-0.224,0.5-0.5,0.5s-0.5-0.224-0.5-0.5v-0.933c0-0.276,0.224-0.5,0.5-0.5s0.5,0.224,0.5,0.5V14.2z M11.607,17h0.877
			c0.276,0,0.5,0.224,0.5,0.5s-0.224,0.5-0.5,0.5h-0.877c-0.276,0-0.5-0.224-0.5-0.5S11.331,17,11.607,17z M9.5,10.466
			c0,0.276-0.224,0.5-0.5,0.5s-0.5-0.224-0.5-0.5V9.534c0-0.276,0.224-0.5,0.5-0.5s0.5,0.224,0.5,0.5V10.466z"/>
	</g>
</g>
</svg>
