<?xml version="1.0" encoding="iso-8859-1"?>
<!-- Generator: Adobe Illustrator 19.2.1, SVG Export Plug-In . SVG Version: 6.00 Build 0)  -->
<svg version="1.1" id="Layer_1" xmlns="http://www.w3.org/2000/svg" xmlns:xlink="http://www.w3.org/1999/xlink" x="0px" y="0px"
	 viewBox="0 0 24 24" style="enable-background:new 0 0 24 24;" xml:space="preserve">
<g>
	<g>
		<path d="M23.93,20.036L12.032,0.206L12.02,0.26l0.119,0.338c0.039,0.11,0.029,0.222-0.005,0.324l0.242,1.235
			c0.191,0.016,0.363,0.138,0.43,0.33l0.333,0.944c0.092,0.26-0.045,0.546-0.305,0.638c-0.027,0.009-0.055,0.009-0.082,0.014
			l0.211,1.079c0.055-0.063,0.12-0.118,0.204-0.148c0.262-0.09,0.546,0.045,0.638,0.305l0.333,0.945
			c0.092,0.26-0.045,0.546-0.305,0.638c-0.055,0.019-0.111,0.028-0.167,0.028c-0.17,0-0.315-0.102-0.407-0.248l3.31,16.92
			l7.115-2.846c0.136-0.055,0.242-0.166,0.288-0.305C24.022,20.315,24.005,20.161,23.93,20.036z M14.668,9.766
			c-0.206,0-0.399-0.128-0.472-0.333l-0.333-0.945c-0.092-0.26,0.045-0.546,0.305-0.638c0.263-0.089,0.546,0.045,0.638,0.305
			l0.333,0.945c0.092,0.26-0.045,0.546-0.305,0.638C14.779,9.757,14.723,9.766,14.668,9.766z M15.668,12.599
			c-0.206,0-0.399-0.128-0.472-0.333l-0.333-0.944c-0.092-0.26,0.045-0.546,0.305-0.638c0.261-0.089,0.546,0.045,0.638,0.305
			l0.333,0.944c0.092,0.26-0.045,0.546-0.305,0.638C15.779,12.59,15.723,12.599,15.668,12.599z M16.168,13.517
			c0.262-0.09,0.546,0.045,0.638,0.305l0.333,0.944c0.092,0.26-0.045,0.546-0.305,0.638c-0.055,0.019-0.111,0.028-0.167,0.028
			c-0.206,0-0.399-0.128-0.472-0.333l-0.333-0.944C15.771,13.895,15.907,13.609,16.168,13.517z M17.668,17.766
			c-0.056,0.019-0.112,0.028-0.167,0.028c-0.005,0-0.008-0.004-0.013-0.004c-0.007,0-0.013,0.004-0.021,0.004h-1.025
			c-0.276,0-0.5-0.224-0.5-0.5s0.224-0.5,0.5-0.5h0.393c0.011-0.195,0.137-0.374,0.333-0.443c0.263-0.09,0.546,0.045,0.638,0.305
			l0.167,0.472C18.064,17.388,17.928,17.672,17.668,17.766z M20.668,18.877c-0.088,0.175-0.264,0.276-0.448,0.276
			c-0.075,0-0.151-0.017-0.223-0.053l-0.917-0.458c-0.247-0.124-0.347-0.424-0.224-0.671c0.124-0.247,0.423-0.346,0.671-0.224
			l0.917,0.458C20.691,18.33,20.792,18.63,20.668,18.877z M22.948,20.018c-0.088,0.175-0.264,0.276-0.448,0.276
			c-0.075,0-0.151-0.017-0.223-0.053l-0.447-0.224c-0.247-0.124-0.347-0.424-0.224-0.671c0.124-0.247,0.423-0.346,0.671-0.224
			l0.447,0.224C22.972,19.469,23.072,19.771,22.948,20.018z M14.393,17.794h-1.025c-0.276,0-0.5-0.224-0.5-0.5s0.224-0.5,0.5-0.5
			h0.852L11.624,3.528l-0.017,0.146c-0.027,0.228-0.206,0.394-0.422,0.428l-0.199,0.913c0.252,0.051,0.429,0.282,0.399,0.542
			l-0.111,0.941c-0.03,0.254-0.246,0.441-0.496,0.441c-0.02,0-0.039-0.001-0.059-0.003c-0.051-0.006-0.096-0.026-0.14-0.046
			L10.366,7.87c0.078-0.034,0.161-0.055,0.249-0.045c0.274,0.032,0.471,0.281,0.438,0.555l-0.11,0.941
			c-0.03,0.254-0.246,0.442-0.496,0.442c-0.02,0-0.039-0.001-0.059-0.003c-0.169-0.02-0.301-0.126-0.375-0.266l-1.674,7.699
			c0.198,0.012,0.377,0.14,0.444,0.339c0.087,0.262-0.054,0.545-0.316,0.632l-0.365,0.122l-1.198,5.507h8.685l-1.175-6.004
			C14.406,17.789,14.4,17.794,14.393,17.794z M9.728,11.089c0.032-0.274,0.276-0.471,0.555-0.438
			c0.274,0.032,0.47,0.281,0.438,0.555l-0.111,0.941c-0.03,0.254-0.246,0.441-0.496,0.441c-0.02,0-0.039-0.001-0.059-0.003
			c-0.274-0.032-0.47-0.281-0.438-0.555L9.728,11.089z M9.395,13.914c0.032-0.274,0.279-0.472,0.555-0.438
			c0.274,0.032,0.47,0.281,0.438,0.555l-0.111,0.941c-0.03,0.254-0.246,0.441-0.496,0.441c-0.02,0-0.039-0.001-0.059-0.003
			c-0.274-0.032-0.47-0.281-0.438-0.555L9.395,13.914z M11.318,17.794h-1.024c-0.165,0-0.305-0.085-0.396-0.209
			c-0.092,0.125-0.234,0.209-0.397,0.209c-0.02,0-0.039-0.001-0.059-0.003c-0.274-0.032-0.47-0.281-0.438-0.555l0.059-0.497
			c0.033-0.274,0.281-0.474,0.555-0.438c0.274,0.032,0.47,0.281,0.438,0.555l-0.001,0.007c0.072-0.04,0.15-0.069,0.239-0.069h1.024
			c0.276,0,0.5,0.224,0.5,0.5S11.595,17.794,11.318,17.794z M6.862,18.174c-0.087-0.262,0.054-0.545,0.316-0.632l0.066-0.022
			L10.99,0.288l-0.015-0.075L0.062,20.054c-0.065,0.119-0.08,0.26-0.04,0.39c0.041,0.13,0.132,0.237,0.254,0.298l5.652,2.826
			l1.12-5.144C6.964,18.365,6.897,18.279,6.862,18.174z M2.633,20.109l-0.474,0.158c-0.052,0.018-0.106,0.026-0.158,0.026
			c-0.209,0-0.404-0.132-0.474-0.342C1.44,19.69,1.581,19.406,1.843,19.32l0.474-0.158c0.262-0.088,0.545,0.054,0.632,0.316
			C3.037,19.739,2.896,20.023,2.633,20.109z M5.55,19.138l-0.972,0.324c-0.053,0.018-0.106,0.026-0.158,0.026
			c-0.209,0-0.404-0.132-0.474-0.342C3.859,18.884,4,18.601,4.262,18.513l0.972-0.324c0.263-0.089,0.545,0.054,0.632,0.316
			C5.954,18.768,5.812,19.049,5.55,19.138z"/>
	</g>
</g>
</svg>
