<?xml version="1.0" encoding="iso-8859-1"?>
<!-- Generator: Adobe Illustrator 19.2.1, SVG Export Plug-In . SVG Version: 6.00 Build 0)  -->
<svg version="1.1" id="Layer_1" xmlns="http://www.w3.org/2000/svg" xmlns:xlink="http://www.w3.org/1999/xlink" x="0px" y="0px"
	 viewBox="0 0 24 24" style="enable-background:new 0 0 24 24;" xml:space="preserve">
<g>
	<g>
		<path d="M15.453,16.772l-3.368-14.22l-3.368,14.22H15.453z M23.755,19.565L12.636,0.227l-0.037,0.156l3.91,16.512L23.755,19.565z
			 M11.571,0.384l-0.037-0.156L0.151,20.024c-0.01,0.017-0.01,0.037-0.018,0.054l7.524-3.168L11.571,0.384z M15.996,17.772h-7.81
			l-7.432,3.129l6.121,2.825c0.066,0.03,0.138,0.046,0.21,0.046h10c0.072,0,0.144-0.016,0.209-0.046l6.5-3
			c0.028-0.013,0.048-0.036,0.073-0.054L15.996,17.772z"/>
	</g>
</g>
</svg>
