<?xml version="1.0" encoding="iso-8859-1"?>
<!-- Generator: Adobe Illustrator 19.0.0, SVG Export Plug-In . SVG Version: 6.00 Build 0)  -->
<svg version="1.1" id="Layer_1" xmlns="http://www.w3.org/2000/svg" xmlns:xlink="http://www.w3.org/1999/xlink" x="0px" y="0px"
	 viewBox="0 0 24 24" style="enable-background:new 0 0 24 24;" xml:space="preserve">
<g>
	<path d="M18,0H7C6.867,0,6.74,0.053,6.646,0.146l-6,6C0.553,6.24,0.5,6.367,0.5,6.5v15C0.5,21.776,0.724,22,1,22h12.09
		c0.148,0,0.29-0.066,0.385-0.181s0.134-0.265,0.106-0.412l-0.773-4.128c-0.032-0.173-0.153-0.317-0.319-0.377
		c-0.591-0.216-0.988-0.78-0.988-1.402v-1c0-1.378,1.121-2.5,2.5-2.5h2.277c0.178,0,0.343-0.095,0.432-0.249
		C16.983,11.281,17.466,11,18,11c0.276,0,0.5-0.224,0.5-0.5v-10C18.5,0.224,18.276,0,18,0z M6,6H2.207L6.5,1.707V5.5
		C6.5,5.776,6.276,6,6,6z"/>
	<path d="M22,13h-8c-0.827,0-1.5,0.673-1.5,1.5v1c0,0.276,0.224,0.5,0.5,0.5h10c0.276,0,0.5-0.224,0.5-0.5v-1
		C23.5,13.673,22.827,13,22,13z"/>
	<path d="M22.092,15.009c-0.269-0.049-0.532,0.126-0.583,0.399L21.491,15.5h-6.983l-0.017-0.092
		c-0.051-0.272-0.315-0.448-0.583-0.399c-0.271,0.051-0.45,0.312-0.399,0.583l1.5,8C15.053,23.829,15.26,24,15.5,24h5
		c0.24,0,0.447-0.171,0.491-0.408l1.5-8C22.542,15.321,22.363,15.06,22.092,15.009z M17.062,21.996
		C17.041,21.999,17.021,22,16.999,22c-0.248,0-0.464-0.185-0.495-0.438l-0.5-4c-0.034-0.274,0.16-0.524,0.434-0.558
		c0.27-0.035,0.524,0.159,0.559,0.434l0.5,4C17.53,21.712,17.336,21.962,17.062,21.996z M19.496,21.562
		C19.465,21.815,19.249,22,19.001,22c-0.021,0-0.042-0.001-0.063-0.004c-0.273-0.034-0.468-0.284-0.434-0.558l0.5-4
		c0.034-0.275,0.288-0.469,0.559-0.434c0.273,0.034,0.468,0.284,0.434,0.558L19.496,21.562z"/>
	<g>
		<path d="M18,14c-0.276,0-0.5-0.224-0.5-0.5v-1c0-0.276,0.224-0.5,0.5-0.5s0.5,0.224,0.5,0.5v1C18.5,13.776,18.276,14,18,14z"/>
	</g>
</g>
<g>
</g>
<g>
</g>
<g>
</g>
<g>
</g>
<g>
</g>
<g>
</g>
<g>
</g>
<g>
</g>
<g>
</g>
<g>
</g>
<g>
</g>
<g>
</g>
<g>
</g>
<g>
</g>
<g>
</g>
</svg>
