<?xml version="1.0" encoding="iso-8859-1"?>
<!-- Generator: Adobe Illustrator 19.0.0, SVG Export Plug-In . SVG Version: 6.00 Build 0)  -->
<svg version="1.1" id="Layer_1" xmlns="http://www.w3.org/2000/svg" xmlns:xlink="http://www.w3.org/1999/xlink" x="0px" y="0px"
	 viewBox="0 0 24 24" style="enable-background:new 0 0 24 24;" xml:space="preserve">
<g>
	<path d="M12,1C5.659,1,0.5,5.038,0.5,10c0,2.5,1.332,4.882,3.67,6.585l-1.65,5.778c-0.061,0.211,0.023,0.437,0.208,0.556
		C2.811,22.973,2.905,23,3,23c0.114,0,0.228-0.039,0.32-0.116l5.181-4.317C9.646,18.854,10.822,19,12,19c6.341,0,11.5-4.038,11.5-9
		S18.341,1,12,1z M7,12c-0.827,0-1.5-0.673-1.5-1.5S6.173,9,7,9s1.5,0.673,1.5,1.5S7.827,12,7,12z M12,12
		c-0.827,0-1.5-0.673-1.5-1.5S11.173,9,12,9s1.5,0.673,1.5,1.5S12.827,12,12,12z M17,12c-0.827,0-1.5-0.673-1.5-1.5S16.173,9,17,9
		s1.5,0.673,1.5,1.5S17.827,12,17,12z"/>
</g>
<g>
</g>
<g>
</g>
<g>
</g>
<g>
</g>
<g>
</g>
<g>
</g>
<g>
</g>
<g>
</g>
<g>
</g>
<g>
</g>
<g>
</g>
<g>
</g>
<g>
</g>
<g>
</g>
<g>
</g>
</svg>
