<?xml version="1.0" encoding="iso-8859-1"?>
<!-- Generator: Adobe Illustrator 19.0.0, SVG Export Plug-In . SVG Version: 6.00 Build 0)  -->
<svg version="1.1" id="Layer_1" xmlns="http://www.w3.org/2000/svg" xmlns:xlink="http://www.w3.org/1999/xlink" x="0px" y="0px"
	 viewBox="0 0 24 24" style="enable-background:new 0 0 24 24;" xml:space="preserve">
<g>
	<g>
		<path d="M12,9C9.519,9,7.5,6.981,7.5,4.5S9.519,0,12,0s4.5,2.019,4.5,4.5S14.481,9,12,9z M12,1c-1.93,0-3.5,1.57-3.5,3.5
			S10.07,8,12,8s3.5-1.57,3.5-3.5S13.93,1,12,1z"/>
	</g>
	<g>
		<path d="M10,5C9.724,5,9.5,4.776,9.5,4.5C9.5,3.122,10.621,2,12,2c0.276,0,0.5,0.224,0.5,0.5S12.276,3,12,3
			c-0.827,0-1.5,0.673-1.5,1.5C10.5,4.776,10.276,5,10,5z"/>
	</g>
	<g>
		<path d="M12,11c-3.164,0-4.248-1.036-4.361-1.154C7.55,9.753,7.5,9.629,7.5,9.5v-1c0-0.074,0.017-0.146,0.048-0.213
			c0.08-0.17,0.46-0.75,1.979-1.069c0.267-0.056,0.534,0.116,0.592,0.387c0.057,0.27-0.116,0.535-0.387,0.592
			C8.967,8.356,8.629,8.575,8.5,8.683v0.574C8.844,9.483,9.863,10,12,10c2.13,0,3.15-0.514,3.5-0.744V8.675
			c-0.114-0.091-0.45-0.314-1.232-0.479c-0.271-0.057-0.443-0.322-0.387-0.592c0.058-0.271,0.326-0.442,0.592-0.387
			c1.52,0.319,1.899,0.899,1.979,1.069C16.483,8.354,16.5,8.426,16.5,8.5v1c0,0.129-0.05,0.253-0.139,0.346
			C16.248,9.964,15.164,11,12,11z"/>
	</g>
	<g>
		<path d="M12,21c-3.86,0-5.181-1.001-5.318-1.115c-0.197-0.163-0.239-0.448-0.099-0.661C6.612,19.18,9.5,14.751,9.5,10.5
			c0-0.276,0.224-0.5,0.5-0.5s0.5,0.224,0.5,0.5c0,3.779-2.034,7.54-2.8,8.821C8.283,19.583,9.592,20,12,20
			c2.405,0,3.713-0.417,4.3-0.68c-0.766-1.282-2.8-5.042-2.8-8.82c0-0.276,0.224-0.5,0.5-0.5s0.5,0.224,0.5,0.5
			c0,4.259,2.888,8.68,2.917,8.725c0.141,0.213,0.099,0.498-0.099,0.661C17.181,19.999,15.86,21,12,21z"/>
	</g>
	<g>
		<path d="M12,24c-5.787,0-7.346-2.122-7.409-2.212C4.532,21.704,4.5,21.603,4.5,21.5v-2c0-1.142,2.013-1.769,2.879-1.985
			c0.263-0.071,0.538,0.095,0.606,0.363c0.066,0.268-0.096,0.54-0.364,0.606c-1.11,0.279-2.068,0.787-2.122,1.021L5.5,21.311
			C5.88,21.685,7.534,23,12,23c4.454,0,6.111-1.309,6.5-1.69V19.5c-0.053-0.229-1.011-0.736-2.121-1.015
			c-0.269-0.067-0.431-0.338-0.364-0.606c0.067-0.268,0.335-0.434,0.606-0.363c0.866,0.216,2.879,0.843,2.879,1.985v2
			c0,0.103-0.032,0.204-0.091,0.288C19.346,21.878,17.787,24,12,24z"/>
	</g>
</g>
</svg>
