<?xml version="1.0" encoding="utf-8"?>
<!-- Generator: Adobe Illustrator 19.0.0, SVG Export Plug-In . SVG Version: 6.00 Build 0)  -->
<svg version="1.1" id="Layer_1" xmlns="http://www.w3.org/2000/svg" xmlns:xlink="http://www.w3.org/1999/xlink" x="0px" y="0px"
	 viewBox="0 0 30 30" style="enable-background:new 0 0 30 30;" xml:space="preserve">
<g>
	<path d="M15,0C9.2,0,4.5,4.7,4.5,10.5c0,10.2,9.8,19,10.2,19.4C14.8,30,14.9,30,15,30s0.2,0,0.3-0.1c0.4-0.4,10.2-9.2,10.2-19.4
		C25.5,4.7,20.8,0,15,0z M11.8,7.6l1.7-0.9V4.5C13.5,3.7,14.2,3,15,3s1.5,0.7,1.5,1.5v2.2l1.7,0.9c0.2,0.1,0.3,0.3,0.3,0.4v1
		l-3.1-0.9C15.3,8,15.1,8,15,8l0,0c0,0,0,0,0,0c-0.1,0-0.3,0-0.4,0.1L11.5,9V8C11.5,7.8,11.6,7.6,11.8,7.6z M12.5,17
		C12.5,17,12.5,17,12.5,17C12.5,17,12.5,17,12.5,17c-2.2,0-2.9-1.5-3-1.5c-0.1-0.2,0-0.5,0.2-0.7c0.2-0.1,0.5,0,0.7,0.2
		c0,0,0.3,0.6,1.2,0.9l-2.1-4.7c-0.1-0.1-0.1-0.3,0-0.4s0.2-0.2,0.3-0.3l1.6-0.5l0,0l3-0.9v7.4h-0.1C14,16.8,13.4,17,12.5,17z
		 M19.6,15c0.1-0.2,0.4-0.3,0.7-0.2c0.2,0.1,0.3,0.4,0.2,0.7c0,0.1-0.8,1.5-3,1.5l0,0l0,0l0,0c-0.9,0-1.5-0.2-1.9-0.5h-0.1V9.1
		l3,0.9l0,0l1.6,0.5c0.1,0,0.3,0.1,0.3,0.3c0.1,0.1,0.1,0.3,0,0.4l-2.1,4.7C19.2,15.6,19.5,15.1,19.6,15z"/>
</g>
</svg>
