<?xml version="1.0" encoding="utf-8"?>
<!-- Generator: Adobe Illustrator 19.0.0, SVG Export Plug-In . SVG Version: 6.00 Build 0)  -->
<svg version="1.1" id="Layer_1" xmlns="http://www.w3.org/2000/svg" xmlns:xlink="http://www.w3.org/1999/xlink" x="0px" y="0px"
	 viewBox="0 0 30 30" style="enable-background:new 0 0 30 30;" xml:space="preserve">
<g>
	<path d="M15,0C9.2,0,4.5,4.7,4.5,10.5c0,10.2,9.8,19,10.2,19.4C14.8,30,14.9,30,15,30s0.2,0,0.3-0.1c0.4-0.4,10.2-9.2,10.2-19.4
		C25.5,4.7,20.8,0,15,0z M13.5,16c-0.6,0-1-0.4-1-1s0.4-1,1-1s1,0.4,1,1S14.1,16,13.5,16z M17.5,16c-0.6,0-1-0.4-1-1s0.4-1,1-1
		s1,0.4,1,1S18.1,16,17.5,16z M20,9.5c-0.1,0.9-0.9,1.5-1.7,1.5h-5.6l0.1,0.4c0.1,0.3,0.4,0.6,0.7,0.6H19c0.3,0,0.5,0.2,0.5,0.5
		S19.3,13,19,13h-5.5c-0.8,0-1.5-0.5-1.7-1.3L10.6,6H10C9.7,6,9.5,5.8,9.5,5.5S9.7,5,10,5h1c0.2,0,0.4,0.2,0.5,0.4L11.6,6H20
		c0.1,0,0.3,0.1,0.4,0.2c0.1,0.1,0.1,0.3,0.1,0.4L20,9.5z"/>
</g>
<g>
	<path d="M13.5,17c-0.1,0-0.3,0-0.4-0.1c-0.2-0.2-0.2-0.5,0-0.7l3-3c0.2-0.2,0.5-0.2,0.7,0s0.2,0.5,0,0.7l-3,3
		C13.8,17,13.6,17,13.5,17z"/>
</g>
</svg>
