<?xml version="1.0" encoding="utf-8"?>
<!-- Generator: Adobe Illustrator 19.0.0, SVG Export Plug-In . SVG Version: 6.00 Build 0)  -->
<svg version="1.1" id="Layer_1" xmlns="http://www.w3.org/2000/svg" xmlns:xlink="http://www.w3.org/1999/xlink" x="0px" y="0px"
	 viewBox="3 -3 30 30" style="enable-background:new 3 -3 30 30;" xml:space="preserve">
<g>
	<path d="M10,11H4c-0.3,0-0.5,0.2-0.5,0.5v15C3.5,26.8,3.7,27,4,27h6c0.3,0,0.5-0.2,0.5-0.5v-15C10.5,11.2,10.3,11,10,11z"/>
	<path d="M21-3h-6c-0.3,0-0.5,0.2-0.5,0.5v29c0,0.3,0.2,0.5,0.5,0.5h6c0.3,0,0.5-0.2,0.5-0.5v-29C21.5-2.8,21.3-3,21-3z"/>
	<path d="M32,3h-6c-0.3,0-0.5,0.2-0.5,0.5v23c0,0.3,0.2,0.5,0.5,0.5h6c0.3,0,0.5-0.2,0.5-0.5v-23C32.5,3.2,32.3,3,32,3z"/>
</g>
</svg>
