<?xml version="1.0" encoding="utf-8"?>
<!-- Generator: Adobe Illustrator 19.0.0, SVG Export Plug-In . SVG Version: 6.00 Build 0)  -->
<svg version="1.1" id="Layer_1" xmlns="http://www.w3.org/2000/svg" xmlns:xlink="http://www.w3.org/1999/xlink" x="0px" y="0px"
	 viewBox="3 -3 30 30" style="enable-background:new 3 -3 30 30;" xml:space="preserve">
<g>
	<path d="M30.5,14h-4c-0.3,0-0.5,0.2-0.5,0.5v12c0,0.3,0.2,0.5,0.5,0.5h4c0.3,0,0.5-0.2,0.5-0.5v-12C31,14.2,30.8,14,30.5,14z"/>
	<path d="M7.9,1.1C7.7,1,7.3,1,7.1,1.1l-2,2C5.1,3.2,5,3.4,5,3.5v23C5,26.8,5.2,27,5.5,27h4c0.3,0,0.5-0.2,0.5-0.5v-23
		c0-0.1-0.1-0.3-0.1-0.4L7.9,1.1z"/>
	<path d="M16.7,5.6c-0.2-0.1-0.4-0.1-0.5,0l-1.7,1.3l-1.7-1.3c-0.2-0.1-0.4-0.1-0.5,0C12.1,5.6,12,5.8,12,6v20.5
		c0,0.3,0.2,0.5,0.5,0.5h4c0.3,0,0.5-0.2,0.5-0.5V6C17,5.8,16.9,5.6,16.7,5.6z"/>
	<path d="M23.7,8c-0.2-0.1-0.4,0-0.5,0.1l-1.6,1.6L20,8.1C19.7,8,19.5,8,19.3,8C19.1,8.1,19,8.3,19,8.5v18c0,0.3,0.2,0.5,0.5,0.5h4
		c0.3,0,0.5-0.2,0.5-0.5v-18C24,8.3,23.9,8.1,23.7,8z"/>
	<path d="M31.7,8c-0.2-0.1-0.4,0-0.5,0.1L29.3,10l-4.4-5.8C24.8,4.1,24.7,4,24.5,4c-0.1,0-0.3,0-0.4,0.1l-2.6,2.6l-3.7-4.6
		c0,0-0.1-0.1-0.2-0.1c-0.1,0-0.3,0-0.4,0.1l-2.6,2.2L7.9-2.8C7.7-3,7.4-3.1,7.2-2.9l-3,2C4-0.8,3.9-0.5,4.1-0.2
		C4.2,0,4.5,0.1,4.8-0.1l2.6-1.8l6.7,7.2c0.2,0.2,0.5,0.2,0.7,0l2.6-2.2l3.7,4.6C21.2,7.9,21.3,8,21.5,8c0.1,0,0.3,0,0.4-0.1
		l2.6-2.6l4.1,5.5l-1.4,1.4C27,12.3,27,12.5,27,12.7c0.1,0.2,0.3,0.3,0.5,0.3h4c0.3,0,0.5-0.2,0.5-0.5v-4C32,8.3,31.9,8.1,31.7,8z"
		/>
</g>
</svg>
