<?xml version="1.0" encoding="utf-8"?>
<!-- Generator: Adobe Illustrator 19.0.0, SVG Export Plug-In . SVG Version: 6.00 Build 0)  -->
<svg version="1.1" id="Layer_1" xmlns="http://www.w3.org/2000/svg" xmlns:xlink="http://www.w3.org/1999/xlink" x="0px" y="0px"
	 viewBox="3 -3 30 30" style="enable-background:new 3 -3 30 30;" xml:space="preserve">
<path d="M32,16h-4.5v-1c0-1.7-1.3-3-3-3h-6V8H23c0.3,0,0.5-0.2,0.5-0.5v-10C23.5-2.8,23.3-3,23-3H13c-0.3,0-0.5,0.2-0.5,0.5v10
	C12.5,7.8,12.7,8,13,8h4.5v4h-6c-1.7,0-3,1.3-3,3v1H4c-0.3,0-0.5,0.2-0.5,0.5v10C3.5,26.8,3.7,27,4,27h10c0.3,0,0.5-0.2,0.5-0.5v-10
	c0-0.3-0.2-0.5-0.5-0.5H9.5v-1c0-1.1,0.9-2,2-2h13c1.1,0,2,0.9,2,2v1H22c-0.3,0-0.5,0.2-0.5,0.5v10c0,0.3,0.2,0.5,0.5,0.5h10
	c0.3,0,0.5-0.2,0.5-0.5v-10C32.5,16.2,32.3,16,32,16z"/>
</svg>
