<?xml version="1.0" encoding="iso-8859-1"?>
<!-- Generator: Adobe Illustrator 19.0.0, SVG Export Plug-In . SVG Version: 6.00 Build 0)  -->
<svg version="1.1" id="Layer_1" xmlns="http://www.w3.org/2000/svg" xmlns:xlink="http://www.w3.org/1999/xlink" x="0px" y="0px"
	 viewBox="0 0 24 24" style="enable-background:new 0 0 24 24;" xml:space="preserve">
<g>
	<g>
		<circle cx="6.5" cy="17.5" r="0.5"/>
		<path d="M21.135,3.333C21.046,1.464,19.511,0,17.64,0H6.36C4.489,0,2.954,1.464,2.865,3.333L2.101,19.381
			c-0.033,0.689,0.212,1.345,0.688,1.844C3.266,21.725,3.907,22,4.598,22h14.805c0.69,0,1.332-0.275,1.809-0.774
			c0.477-0.5,0.722-1.155,0.688-1.845L21.135,3.333z M6.5,19C5.673,19,5,18.327,5,17.5S5.673,16,6.5,16S8,16.673,8,17.5
			S7.327,19,6.5,19z M14.5,20h-5C9.224,20,9,19.776,9,19.5S9.224,19,9.5,19h5c0.276,0,0.5,0.224,0.5,0.5S14.776,20,14.5,20z
			 M14.5,18h-5C9.224,18,9,17.776,9,17.5S9.224,17,9.5,17h5c0.276,0,0.5,0.224,0.5,0.5S14.776,18,14.5,18z M14.5,16h-5
			C9.224,16,9,15.776,9,15.5S9.224,15,9.5,15h5c0.276,0,0.5,0.224,0.5,0.5S14.776,16,14.5,16z M17.5,19c-0.827,0-1.5-0.673-1.5-1.5
			s0.673-1.5,1.5-1.5s1.5,0.673,1.5,1.5S18.327,19,17.5,19z M12,14c-3.612,0-7.5-0.782-7.5-2.5l0.363-8.07
			C4.901,2.627,5.559,2,6.36,2H17.64c0.802,0,1.459,0.627,1.497,1.429l0.362,8.049C19.5,13.218,15.612,14,12,14z"/>
		<circle cx="17.5" cy="17.5" r="0.5"/>
	</g>
	<g>
		<path d="M3.5,4.5C3.5,4.224,3.276,4,3,4H2.5C1.121,4,0,5.122,0,6.5v1C0,8.327,0.673,9,1.5,9H3c0.276,0,0.5-0.224,0.5-0.5
			S3.276,8,3,8V5C3.276,5,3.5,4.776,3.5,4.5z"/>
		<path d="M21.5,4H21c-0.276,0-0.5,0.224-0.5,0.5S20.724,5,21,5v3c-0.276,0-0.5,0.224-0.5,0.5S20.724,9,21,9h1.5
			C23.327,9,24,8.327,24,7.5v-1C24,5.122,22.879,4,21.5,4z"/>
		<path d="M8.5,21C8.224,21,8,21.224,8,21.5H5C5,21.224,4.776,21,4.5,21S4,21.224,4,21.5v1C4,23.327,4.673,24,5.5,24h2
			C8.327,24,9,23.327,9,22.5v-1C9,21.224,8.776,21,8.5,21z"/>
		<path d="M19.5,21c-0.276,0-0.5,0.224-0.5,0.5h-3c0-0.276-0.224-0.5-0.5-0.5S15,21.224,15,21.5v1c0,0.827,0.673,1.5,1.5,1.5h2
			c0.827,0,1.5-0.673,1.5-1.5v-1C20,21.224,19.776,21,19.5,21z"/>
	</g>
</g>
<g>
</g>
<g>
</g>
<g>
</g>
<g>
</g>
<g>
</g>
<g>
</g>
<g>
</g>
<g>
</g>
<g>
</g>
<g>
</g>
<g>
</g>
<g>
</g>
<g>
</g>
<g>
</g>
<g>
</g>
</svg>
