<?xml version="1.0" encoding="iso-8859-1"?>
<!-- Generator: Adobe Illustrator 19.0.0, SVG Export Plug-In . SVG Version: 6.00 Build 0)  -->
<svg version="1.1" id="Layer_1" xmlns="http://www.w3.org/2000/svg" xmlns:xlink="http://www.w3.org/1999/xlink" x="0px" y="0px"
	 viewBox="0 0 24 24" style="enable-background:new 0 0 24 24;" xml:space="preserve">
<g>
	<g>
		<path d="M19.329,23.5c-1.138,0-1.729-0.645-2.204-1.162c-0.43-0.468-0.77-0.838-1.467-0.838c-0.696,0-1.035,0.37-1.464,0.838
			c-0.475,0.518-1.065,1.162-2.201,1.162s-1.727-0.645-2.201-1.162C9.363,21.87,9.024,21.5,8.329,21.5s-1.035,0.37-1.463,0.838
			C6.391,22.855,5.801,23.5,4.665,23.5s-1.727-0.645-2.201-1.162C2.035,21.87,1.696,21.5,1,21.5c-0.276,0-0.5-0.224-0.5-0.5
			s0.224-0.5,0.5-0.5c1.136,0,1.727,0.645,2.201,1.162C3.63,22.13,3.969,22.5,4.665,22.5s1.035-0.37,1.463-0.838
			C6.602,21.145,7.192,20.5,8.329,20.5s1.727,0.645,2.201,1.162c0.429,0.468,0.768,0.838,1.463,0.838
			c0.696,0,1.035-0.37,1.464-0.838c0.475-0.518,1.065-1.162,2.201-1.162c1.137,0,1.729,0.644,2.204,1.162
			c0.43,0.468,0.77,0.838,1.468,0.838c0.698,0,1.038-0.37,1.467-0.838C21.271,21.144,21.862,20.5,23,20.5c0.276,0,0.5,0.224,0.5,0.5
			s-0.224,0.5-0.5,0.5c-0.698,0-1.038,0.37-1.467,0.838C21.058,22.856,20.467,23.5,19.329,23.5z"/>
	</g>
	<g>
		<path d="M19.329,21.5c-1.138,0-1.729-0.645-2.204-1.162c-0.43-0.468-0.77-0.838-1.467-0.838c-0.696,0-1.035,0.37-1.464,0.838
			c-0.475,0.518-1.065,1.162-2.201,1.162s-1.727-0.645-2.201-1.162C9.363,19.87,9.024,19.5,8.329,19.5s-1.035,0.37-1.463,0.838
			C6.391,20.855,5.801,21.5,4.665,21.5s-1.727-0.645-2.201-1.162C2.035,19.87,1.696,19.5,1,19.5c-0.276,0-0.5-0.224-0.5-0.5
			s0.224-0.5,0.5-0.5c1.136,0,1.727,0.645,2.201,1.162C3.63,20.13,3.969,20.5,4.665,20.5s1.035-0.37,1.463-0.838
			C6.602,19.145,7.192,18.5,8.329,18.5s1.727,0.645,2.201,1.162c0.429,0.468,0.768,0.838,1.463,0.838
			c0.696,0,1.035-0.37,1.464-0.838c0.475-0.518,1.065-1.162,2.201-1.162c1.137,0,1.729,0.644,2.204,1.162
			c0.43,0.468,0.77,0.838,1.468,0.838c0.698,0,1.038-0.37,1.467-0.838C21.271,19.144,21.862,18.5,23,18.5c0.276,0,0.5,0.224,0.5,0.5
			s-0.224,0.5-0.5,0.5c-0.698,0-1.038,0.37-1.467,0.838C21.058,20.856,20.467,21.5,19.329,21.5z"/>
	</g>
	<path d="M21.442,12.767c-0.069-0.13-0.191-0.223-0.334-0.255l-9-2c-0.071-0.016-0.146-0.016-0.217,0l-9,2
		c-0.143,0.032-0.265,0.125-0.334,0.255c-0.068,0.13-0.076,0.283-0.022,0.419l2.996,7.489c0.06,0.15,0.188,0.262,0.345,0.3
		c0.156,0.035,0.322-0.001,0.445-0.106c0.189-0.163,0.36-0.346,0.53-0.53C7.285,19.87,7.627,19.5,8.329,19.5
		c0.702,0,1.044,0.371,1.478,0.839c0.174,0.188,0.35,0.376,0.544,0.542C10.441,20.958,10.556,21,10.674,21H11.5v-8
		c0-0.276,0.224-0.5,0.5-0.5s0.5,0.224,0.5,0.5v8h0.812c0.119,0,0.233-0.042,0.324-0.119c0.195-0.166,0.37-0.353,0.544-0.542
		c0.434-0.469,0.776-0.839,1.478-0.839c0.704,0,1.047,0.371,1.481,0.84c0.172,0.186,0.346,0.372,0.539,0.536
		c0.123,0.104,0.286,0.143,0.444,0.105c0.156-0.039,0.284-0.15,0.344-0.3l2.998-7.495C21.519,13.049,21.511,12.896,21.442,12.767z"
		/>
	<g>
		<path d="M10.5,2.5v-2H7C6.724,0.5,6.5,0.724,6.5,1v1.5H10.5z"/>
		<path d="M17.5,2.5V1c0-0.276-0.224-0.5-0.5-0.5h-5.5v2H17.5z"/>
	</g>
	<g>
		<rect x="8.5" y="3.5" width="3" height="3"/>
		<path d="M15.5,6.5h4V4c0-0.276-0.224-0.5-0.5-0.5h-3.5V6.5z"/>
		<polygon points="14.5,7.5 12.5,7.5 12.5,9.575 14.5,10.019 		"/>
		<polygon points="11.5,9.575 11.5,7.5 8.5,7.5 8.5,10.241 		"/>
		<path d="M7.5,6.5v-3H5C4.724,3.5,4.5,3.724,4.5,4v2.5H7.5z"/>
		<path d="M15.5,7.5v2.741l3.392,0.754c0.036,0.008,0.072,0.012,0.108,0.012c0.113,0,0.223-0.038,0.313-0.11
			c0.118-0.095,0.187-0.238,0.187-0.39V7.5H15.5z"/>
		<path d="M7.5,7.5h-3v3.007c0,0.152,0.069,0.295,0.187,0.39c0.119,0.095,0.276,0.13,0.421,0.098L7.5,10.464V7.5z"/>
		<rect x="12.5" y="3.5" width="2" height="3"/>
	</g>
</g>
<g>
</g>
<g>
</g>
<g>
</g>
<g>
</g>
<g>
</g>
<g>
</g>
<g>
</g>
<g>
</g>
<g>
</g>
<g>
</g>
<g>
</g>
<g>
</g>
<g>
</g>
<g>
</g>
<g>
</g>
</svg>
