<?xml version="1.0" encoding="utf-8"?>
<!-- Generated by IcoMoon.io -->
<!DOCTYPE svg PUBLIC "-//W3C//DTD SVG 1.1//EN" "http://www.w3.org/Graphics/SVG/1.1/DTD/svg11.dtd">
<svg version="1.1" xmlns="http://www.w3.org/2000/svg" xmlns:xlink="http://www.w3.org/1999/xlink" width="30" height="30" viewBox="0 0 30 30">
<path d="M29.327 14.761c-0.031-0.077-0.077-0.146-0.136-0.204l-3.749-3.749c-0.244-0.244-0.64-0.244-0.884 0s-0.244 0.64 0 0.884l2.683 2.683h-6.68c-0.293-2.597-2.34-4.645-4.936-4.936v-6.68l2.683 2.683c0.122 0.122 0.283 0.184 0.443 0.184s0.32-0.061 0.443-0.182c0.244-0.244 0.244-0.64 0-0.884l-3.749-3.749c-0.058-0.058-0.127-0.104-0.204-0.136-0.152-0.064-0.325-0.064-0.478 0-0.077 0.031-0.146 0.077-0.204 0.136l-3.749 3.749c-0.244 0.244-0.244 0.64 0 0.884s0.64 0.244 0.884 0l2.681-2.684v6.68c-2.597 0.292-4.645 2.34-4.936 4.936h-6.68l2.683-2.683c0.244-0.244 0.244-0.64 0-0.884s-0.64-0.244-0.884 0l-3.749 3.749c-0.058 0.058-0.104 0.127-0.136 0.204-0.064 0.152-0.064 0.325 0 0.478 0.031 0.077 0.077 0.146 0.136 0.204l3.749 3.749c0.122 0.122 0.283 0.184 0.443 0.184s0.32-0.061 0.442-0.182c0.244-0.244 0.244-0.64 0-0.884l-2.684-2.684h6.68c0.293 2.597 2.34 4.645 4.936 4.936v6.68l-2.683-2.683c-0.244-0.244-0.64-0.244-0.884 0s-0.244 0.64 0 0.884l3.749 3.749c0.058 0.058 0.127 0.104 0.204 0.136 0.076 0.031 0.158 0.047 0.239 0.047s0.163-0.016 0.239-0.047c0.077-0.031 0.146-0.077 0.204-0.136l3.749-3.749c0.244-0.244 0.244-0.64 0-0.884s-0.64-0.244-0.884 0l-2.683 2.683v-6.68c2.597-0.293 4.645-2.34 4.936-4.936h6.68l-2.683 2.683c-0.244 0.244-0.244 0.64 0 0.884 0.121 0.122 0.281 0.184 0.441 0.184s0.32-0.061 0.443-0.182l3.749-3.749c0.058-0.059 0.104-0.129 0.136-0.205 0.064-0.152 0.064-0.325 0-0.478z"></path>
</svg>
