<?xml version="1.0" encoding="iso-8859-1"?>
<!-- Generator: Adobe Illustrator 19.0.0, SVG Export Plug-In . SVG Version: 6.00 Build 0)  -->
<svg version="1.1" id="Layer_1" xmlns="http://www.w3.org/2000/svg" xmlns:xlink="http://www.w3.org/1999/xlink" x="0px" y="0px"
	 viewBox="0 0 30 30" style="enable-background:new 0 0 30 30;" xml:space="preserve">
<g>
	<g>
		<path d="M27.423,25.233l-7.348-11.647c0.282-0.677,0.425-1.378,0.425-2.086c0-2.582-1.791-4.748-4.194-5.337l0.456-0.718
			l0.592-0.591C17.447,4.76,17.5,4.633,17.5,4.5V2c0-0.157-0.074-0.306-0.2-0.4l-2-1.5c-0.178-0.134-0.422-0.134-0.6,0l-2,1.5
			c-0.126,0.094-0.2,0.243-0.2,0.4v2.37c0,0.133,0.053,0.26,0.146,0.354l0.585,0.584l0.491,0.848C11.305,6.734,9.5,8.908,9.5,11.5
			c0,0.718,0.148,1.428,0.44,2.116l-4.406,7.387C5.522,21.003,5.511,21,5.5,21c-1.654,0-3,1.346-3,3
			c0,0.421,0.089,0.822,0.247,1.186l-0.168,0.261c-0.107,0.167-0.105,0.38,0.004,0.546l2.5,3.783C5.176,29.916,5.333,30,5.5,30h0.01
			c0.171-0.003,0.33-0.095,0.418-0.242l7.795-12.929c0.895,0.229,1.658,0.229,2.553,0l7.795,12.929
			c0.09,0.149,0.25,0.24,0.424,0.242c0.158-0.033,0.335-0.088,0.428-0.235l2.5-4C27.526,25.602,27.525,25.396,27.423,25.233z
			 M5.5,26c-0.166,0-0.329-0.026-0.486-0.067c-0.032-0.008-0.062-0.019-0.093-0.029c-0.139-0.044-0.274-0.099-0.401-0.172
			c-0.012-0.007-0.024-0.012-0.036-0.019c-0.295-0.178-0.547-0.432-0.723-0.747c-0.001-0.002-0.003-0.002-0.004-0.004
			C3.599,24.676,3.5,24.351,3.5,24c0-1.103,0.897-2,2-2c0.08,0,0.157,0.014,0.235,0.024c0.002,0,0.004,0.002,0.007,0.003
			c0.372,0.045,0.709,0.192,0.988,0.408c0.008,0.006,0.016,0.013,0.024,0.019c0.082,0.066,0.159,0.138,0.229,0.215
			c0.016,0.018,0.03,0.037,0.045,0.055c0.06,0.071,0.116,0.145,0.166,0.223c0.021,0.034,0.038,0.07,0.057,0.105
			c0.038,0.069,0.076,0.139,0.106,0.213c0.023,0.058,0.038,0.119,0.056,0.179c0.017,0.058,0.038,0.114,0.05,0.174
			C7.485,23.741,7.5,23.869,7.5,24C7.5,25.103,6.603,26,5.5,26z M15,13c-0.827,0-1.5-0.673-1.5-1.5c0-0.827,0.673-1.5,1.5-1.5
			s1.5,0.673,1.5,1.5C16.5,12.327,15.827,13,15,13z"/>
	</g>
</g>
</svg>
