<?xml version="1.0" encoding="iso-8859-1"?>
<!-- Generator: Adobe Illustrator 19.0.0, SVG Export Plug-In . SVG Version: 6.00 Build 0)  -->
<svg version="1.1" id="Layer_1" xmlns="http://www.w3.org/2000/svg" xmlns:xlink="http://www.w3.org/1999/xlink" x="0px" y="0px"
	 viewBox="0 0 30 30" style="enable-background:new 0 0 30 30;" xml:space="preserve">
<g>
	<g>
		<path d="M29.963,14.81c-0.063-0.153-0.198-0.266-0.36-0.3c-4.688-0.981-8.977-1.479-12.748-1.479
			c-13.904,0-16.707,6.613-16.819,6.895c-0.077,0.192-0.027,0.412,0.125,0.552l1.5,1.389C1.753,21.953,1.875,22,2,22
			c0.031,0,0.062-0.003,0.093-0.009l0.575-0.109l1.361,3.786c0.048,0.135,0.152,0.242,0.285,0.295l2.5,1C6.875,26.989,6.938,27,7,27
			c0.184,0,0.36-0.103,0.447-0.276l1.888-3.776l5.254-0.956c0.169-0.031,0.311-0.146,0.375-0.306l0.919-2.296l12.71-2.398
			c0.132-0.025,0.249-0.102,0.323-0.214l1-1.5C30.008,15.138,30.025,14.964,29.963,14.81z M14.139,21.057l-5.228,0.951
			c-0.155,0.028-0.288,0.127-0.358,0.268l-1.794,3.588l-1.864-0.746l-1.231-3.424l11.054-2.086L14.139,21.057z M1.286,16.326
			c0.068,0.033,0.141,0.048,0.214,0.048c0.113,0,0.226-0.039,0.317-0.113c2.356-1.93,6.878-4.23,15.038-4.23
			c2.181,0,4.671,0.187,7.403,0.556c0.026,0.003,0.051,0.004,0.077,0.004c0.255-0.012,0.51-0.22,0.51-0.5
			c0-0.076-0.017-0.147-0.047-0.211C23.939,6.563,19.261,3,13.109,3C6.545,3,1,8.495,1,15v0.875C1,16.068,1.111,16.244,1.286,16.326
			z M3.54,11.833C4.946,7.81,8.881,5,13.109,5c0.276,0,0.5,0.224,0.5,0.5S13.385,6,13.109,6c-3.811,0-7.357,2.535-8.625,6.165
			C4.412,12.37,4.218,12.5,4.012,12.5c-0.055,0-0.11-0.009-0.165-0.028C3.586,12.38,3.449,12.094,3.54,11.833z"/>
	</g>
</g>
</svg>
