<?xml version="1.0" encoding="iso-8859-1"?>
<!-- Generator: Adobe Illustrator 19.0.0, SVG Export Plug-In . SVG Version: 6.00 Build 0)  -->
<svg version="1.1" id="Layer_1" xmlns="http://www.w3.org/2000/svg" xmlns:xlink="http://www.w3.org/1999/xlink" x="0px" y="0px"
	 viewBox="0 0 30 30" style="enable-background:new 0 0 30 30;" xml:space="preserve">
<g>
	<g>
		<path d="M14,8c0.276,0,0.5-0.224,0.5-0.5S14.276,7,14,7s-0.5,0.224-0.5,0.5S13.724,8,14,8z M26,10.5c0-1.103-0.897-2-2-2
			s-2,0.897-2,2s0.897,2,2,2S26,11.603,26,10.5z M24,11.5c-0.552,0-1-0.449-1-1s0.448-1,1-1s1,0.449,1,1S24.552,11.5,24,11.5z
			 M16.089,19.502H3.5c-1.379,0-2.5-1.122-2.5-2.5v-13c0-1.378,1.121-2.5,2.5-2.5h14.459c0.87,0,1.704,0.321,2.349,0.904
			l7.718,6.983c0.318,0.288,0.493,0.683,0.493,1.112c0,0.429-0.175,0.824-0.493,1.112l-3.477,3.146
			c-0.204,0.185-0.22,0.501-0.035,0.706c0.185,0.203,0.502,0.221,0.707,0.035l3.477-3.146c0.522-0.474,0.821-1.148,0.821-1.854
			s-0.299-1.381-0.821-1.854l-7.719-6.983c-0.83-0.75-1.902-1.163-3.02-1.163H3.5C1.57,0.5,0,2.07,0,4v13c0,1.93,1.57,3.5,3.5,3.5
			h12.589c0.276,0,0.5-0.222,0.5-0.498S16.365,19.502,16.089,19.502z M23.5,16.5c-3.584,0-6.5,2.916-6.5,6.5s2.916,6.5,6.5,6.5
			S30,26.584,30,23S27.084,16.5,23.5,16.5z M23.5,28.5c-3.032,0-5.5-2.467-5.5-5.5s2.468-5.5,5.5-5.5S29,19.967,29,23
			S26.532,28.5,23.5,28.5z M26.5,22.5H24V20c0-0.276-0.224-0.5-0.5-0.5S23,19.724,23,20v2.5h-2.5c-0.276,0-0.5,0.224-0.5,0.5
			s0.224,0.5,0.5,0.5H23V26c0,0.276,0.224,0.5,0.5,0.5S24,26.276,24,26v-2.5h2.5c0.276,0,0.5-0.224,0.5-0.5S26.776,22.5,26.5,22.5z
			 M5,13v3c0,0.276,0.224,0.5,0.5,0.5h3c0.133,0,0.26-0.053,0.354-0.147l3.863-3.863c0.094,0.007,0.187,0.01,0.283,0.01
			c2.206,0,4-1.794,4-4s-1.794-4-4-4s-4,1.794-4,4c0,0.095,0.003,0.189,0.009,0.282l-3.863,3.864C5.053,12.74,5,12.867,5,13z
			 M6,13.207l3.884-3.885c0.111-0.11,0.163-0.265,0.142-0.42C10.009,8.771,10,8.637,10,8.5c0-1.654,1.346-3,3-3s3,1.346,3,3
			s-1.346,3-3,3c-0.137,0-0.271-0.009-0.402-0.027c-0.155-0.021-0.309,0.032-0.42,0.142L8.293,15.5H6V13.207z"/>
	</g>
</g>
</svg>
