<?xml version="1.0" encoding="iso-8859-1"?>
<!-- Generator: Adobe Illustrator 19.0.0, SVG Export Plug-In . SVG Version: 6.00 Build 0)  -->
<svg version="1.1" id="Layer_1" xmlns="http://www.w3.org/2000/svg" xmlns:xlink="http://www.w3.org/1999/xlink" x="0px" y="0px"
	 viewBox="0 0 30 30" style="enable-background:new 0 0 30 30;" xml:space="preserve">
<g>
	<g>
		<path d="M12,5C9.794,5,8,6.794,8,9c0,1.357,0.685,2.611,1.819,3.347C9.931,12.423,10,12.568,10,12.725V15.5
			c0,0.827,0.673,1.5,1.5,1.5v0.5c0,0.276,0.224,0.5,0.5,0.5s0.5-0.224,0.5-0.5V17c0.827,0,1.5-0.673,1.5-1.5v-2.775
			c0-0.156,0.07-0.302,0.171-0.372C15.316,11.61,16,10.357,16,9C16,6.794,14.206,5,12,5z M13,15.5c0,0.276-0.224,0.5-0.5,0.5h-1
			c-0.276,0-0.5-0.224-0.5-0.5V14h2V15.5z M13.615,11.522C13.23,11.788,13,12.238,13,12.725V13h-2v-0.275
			c0-0.489-0.229-0.938-0.625-1.21C9.514,10.958,9,10.017,9,9c0-1.654,1.346-3,3-3s3,1.346,3,3
			C15,10.017,14.487,10.956,13.615,11.522z M29.853,29.147l-9-9c-0.012-0.012-0.029-0.017-0.042-0.028C22.784,17.98,24,15.133,24,12
			c0-6.617-5.383-12-12-12S0,5.383,0,12s5.383,12,12,12c3.132,0,5.979-1.216,8.118-3.188c0.011,0.013,0.016,0.03,0.028,0.042l9,9
			C29.244,29.951,29.372,30,29.5,30s0.256-0.049,0.353-0.146C30.048,29.659,30.048,29.342,29.853,29.147z M12,23
			C5.935,23,1,18.065,1,12S5.935,1,12,1s11,4.935,11,11S18.065,23,12,23z"/>
	</g>
</g>
</svg>
