<?xml version="1.0" encoding="iso-8859-1"?>
<!-- Generator: Adobe Illustrator 19.0.0, SVG Export Plug-In . SVG Version: 6.00 Build 0)  -->
<svg version="1.1" id="Layer_1" xmlns="http://www.w3.org/2000/svg" xmlns:xlink="http://www.w3.org/1999/xlink" x="0px" y="0px"
	 viewBox="0 0 30 30" style="enable-background:new 0 0 30 30;" xml:space="preserve">
<g>
	<g>
		<path d="M21,24c1.378,0,2.5-1.122,2.5-2.5v-2c0-1.378-1.122-2.5-2.5-2.5s-2.5,1.122-2.5,2.5v2C18.5,22.878,19.622,24,21,24z
			 M19.5,19.5c0-0.827,0.673-1.5,1.5-1.5c0.827,0,1.5,0.673,1.5,1.5v2c0,0.827-0.673,1.5-1.5,1.5c-0.827,0-1.5-0.673-1.5-1.5V19.5z
			 M26,26h-0.5V14.968c1.528-0.16,2.727-1.431,2.728-2.99c0-0.088-0.023-0.174-0.066-0.25L24.5,5.363V3c0-1.654-1.346-3-3-3h-13
			c-1.654,0-3,1.346-3,3v2.365l-3.661,6.363c-0.043,0.077-0.066,0.163-0.066,0.25c0,1.559,1.199,2.83,2.727,2.99V26H4
			c-1.93,0-3.5,1.57-3.5,3.5C0.5,29.776,0.724,30,1,30h28c0.276,0,0.5-0.224,0.5-0.5C29.5,27.57,27.93,26,26,26z M23.712,6
			l3.512,6.104C27.157,13.161,26.267,14,25.182,14c-1.128,0-2.045-0.907-2.054-2.115L22.013,6H23.712z M9.909,15
			c1.076,0,2.023-0.538,2.577-1.349C13.016,14.468,13.933,15,15,15c1.067,0,1.985-0.533,2.515-1.348
			C18.069,14.463,19.016,15,20.091,15c1.061,0,1.995-0.543,2.538-1.386c0.424,0.649,1.089,1.124,1.871,1.303V26h-19V14.917
			c0.777-0.178,1.438-0.648,1.863-1.29C7.907,14.452,8.843,15,9.909,15z M7.865,12.029L9.091,6H12v6c0,1.084-0.958,2-2.091,2
			C8.798,14,7.892,13.12,7.865,12.029z M13,12V6h4v6c0,1.122-0.878,2-2,2S13,13.122,13,12z M18,12.001L18.084,6h2.911l1.141,5.978
			c0,1.115-0.917,2.022-2.045,2.022C18.958,14,18.001,13.085,18,12.001z M6.5,3c0-1.103,0.897-2,2-2h13c1.103,0,2,0.897,2,2v2h-17V3
			z M2.777,12.104L6.289,6H8.07l-1.196,5.878c-0.007,0.033-0.01,0.066-0.01,0.1C6.864,13.093,5.947,14,4.819,14
			C3.734,14,2.843,13.16,2.777,12.104z M1.55,29c0.233-1.14,1.242-2,2.449-2h22c1.208,0,2.218,0.86,2.45,2H1.55z M6.5,19
			c0,1.032,0.933,1.796,2.443,1.997C9.696,21.083,10.5,21.392,10.5,22c0,0.542-0.687,1-1.5,1c-0.916,0-1.5-0.414-1.5-0.7
			c0-0.276-0.224-0.5-0.5-0.5s-0.5,0.224-0.5,0.5C6.5,23.253,7.598,24,9,24c1.378,0,2.5-0.897,2.5-2
			c0-1.059-0.936-1.824-2.434-1.996C8.287,19.9,7.5,19.55,7.5,19c0-0.542,0.687-1,1.5-1c0.916,0,1.5,0.414,1.5,0.7
			c0,0.276,0.224,0.5,0.5,0.5s0.5-0.224,0.5-0.5c0-0.953-1.098-1.7-2.5-1.7C7.622,17,6.5,17.897,6.5,19z M13,24h4
			c0.276,0,0.5-0.224,0.5-0.5S17.276,23,17,23h-3.5v-2h3c0.276,0,0.5-0.224,0.5-0.5S16.776,20,16.5,20h-3v-2H17
			c0.276,0,0.5-0.224,0.5-0.5S17.276,17,17,17h-4c-0.276,0-0.5,0.224-0.5,0.5v6C12.5,23.776,12.724,24,13,24z"/>
	</g>
</g>
</svg>
