<?xml version="1.0" encoding="iso-8859-1"?>
<!-- Generator: Adobe Illustrator 19.0.0, SVG Export Plug-In . SVG Version: 6.00 Build 0)  -->
<svg version="1.1" id="Layer_1" xmlns="http://www.w3.org/2000/svg" xmlns:xlink="http://www.w3.org/1999/xlink" x="0px" y="0px"
	 viewBox="0 0 30 30" style="enable-background:new 0 0 30 30;" xml:space="preserve">
<g>
	<g>
		<path d="M18.721,10.355c-0.95-0.95-2.496-0.95-3.447,0.001l-0.088,0.089c-0.461,0.46-0.714,1.073-0.714,1.723
			c0,0.651,0.254,1.263,0.714,1.723l0.797,0.797c0.46,0.461,1.072,0.714,1.723,0.714c0.65,0,1.263-0.253,1.721-0.714l0.09-0.089
			c0.001-0.001,0.001-0.001,0.001-0.001c0.95-0.95,0.95-2.496,0-3.446L18.721,10.355z M18.812,13.893l-0.09,0.09
			c-0.543,0.543-1.489,0.542-2.031,0l-0.797-0.797c-0.272-0.272-0.421-0.632-0.421-1.016c0-0.384,0.15-0.745,0.422-1.017
			l0.088-0.089c0.281-0.28,0.648-0.42,1.016-0.42c0.368,0,0.735,0.139,1.016,0.421l0.797,0.797
			C19.372,12.422,19.372,13.333,18.812,13.893z M9.111,20.072c-0.003,0.001-0.086,0.062-0.088,0.063
			c-0.997,0.731-1.404,0.687-1.569,0.522c-0.108-0.109-0.136-0.318-0.077-0.574c0.078-0.34,0.3-0.711,0.608-1.019
			c0.594-0.595,1.305-0.77,1.571-0.552c0.214,0.174,0.528,0.141,0.704-0.072c0.174-0.214,0.142-0.529-0.072-0.704
			c-0.719-0.585-1.97-0.319-2.91,0.62c-0.443,0.443-0.754,0.976-0.875,1.5c-0.139,0.6-0.013,1.149,0.344,1.506
			c0.968,0.971,2.399-0.08,2.941-0.477c0.002-0.001,0.085-0.061,0.087-0.063c0.994-0.731,1.4-0.688,1.567-0.521
			c0.108,0.108,0.136,0.317,0.076,0.573c-0.078,0.34-0.3,0.711-0.608,1.019c-0.594,0.595-1.303,0.768-1.571,0.552
			c-0.215-0.177-0.529-0.143-0.703,0.071c-0.175,0.214-0.143,0.529,0.071,0.703c0.257,0.21,0.583,0.311,0.937,0.311
			c0.637,0,1.37-0.326,1.975-0.927c0.443-0.443,0.753-0.976,0.875-1.5c0.138-0.6,0.013-1.149-0.344-1.506
			C11.079,18.627,9.653,19.675,9.111,20.072z M30,11.02V3.022C30,1.355,28.645,0,26.978,0H18.98c-1.481,0-2.873,0.577-3.92,1.624
			L1.036,15.648c-0.669,0.668-1.037,1.557-1.037,2.506c0,0.945,0.369,1.834,1.037,2.502l8.307,8.307C10.012,29.632,10.9,30,11.85,30
			c0.945,0,1.834-0.368,2.502-1.036l7.406-7.406C22.494,24.698,23.755,27,25.5,27c2.227,0,4.077-4.029,4.499-9.797
			c0.02-0.275-0.187-0.515-0.462-0.535c-0.284-0.019-0.515,0.187-0.535,0.462C28.596,22.682,26.903,26,25.501,26
			c-1.077,0-2.232-2.01-2.909-5.276l5.784-5.784C29.423,13.893,30,12.501,30,11.02z M21,7c0-1.103,0.897-2,2-2c1.103,0,2,0.897,2,2
			c0,1.103-0.897,2-2,2c-0.102,0-0.201-0.015-0.299-0.03c0.195-0.839,0.408-1.626,0.613-2.33c0.077-0.266-0.075-0.543-0.34-0.62
			c-0.268-0.078-0.543,0.075-0.62,0.34c-0.195,0.669-0.397,1.413-0.585,2.204C21.305,8.198,21,7.636,21,7z M22.375,19.527
			c-0.233-1.489-0.374-3.178-0.374-5.027c0-1.595,0.206-3.136,0.489-4.552C22.657,9.977,22.826,10,23,10c1.654,0,3-1.346,3-3
			s-1.346-3-3-3s-3,1.346-3,3c0,1.121,0.626,2.089,1.539,2.604C21.23,11.114,21,12.772,21,14.5c0,2.005,0.176,4.047,0.513,5.889
			l-7.868,7.868c-0.956,0.956-2.633,0.962-3.595,0L1.743,19.95c-0.48-0.48-0.744-1.117-0.744-1.8c0-0.678,0.265-1.316,0.744-1.795
			L15.767,2.331C16.625,1.473,17.766,1,18.98,1h7.998C28.093,1,29,1.907,29,3.022v7.998c0,1.214-0.473,2.355-1.331,3.213
			L22.375,19.527z M16.07,16.633l-1.768,1.768l-1.06-1.061l1.446-1.446c0.195-0.195,0.195-0.512,0-0.707s-0.512-0.195-0.707,0
			l-1.447,1.447l-1.061-1.062l1.768-1.768c0.195-0.195,0.195-0.512,0-0.707s-0.512-0.195-0.707,0l-2.121,2.121
			c-0.195,0.195-0.195,0.512,0,0.707l3.536,3.536c0.098,0.097,0.226,0.146,0.354,0.146c0.128,0,0.256-0.048,0.353-0.146l2.121-2.121
			c0.195-0.195,0.195-0.512,0-0.707S16.265,16.438,16.07,16.633z"/>
	</g>
</g>
</svg>
