<?xml version="1.0" encoding="iso-8859-1"?>
<!-- Generator: Adobe Illustrator 19.0.0, SVG Export Plug-In . SVG Version: 6.00 Build 0)  -->
<svg version="1.1" id="Layer_1" xmlns="http://www.w3.org/2000/svg" xmlns:xlink="http://www.w3.org/1999/xlink" x="0px" y="0px"
	 viewBox="0 0 30 30" style="enable-background:new 0 0 30 30;" xml:space="preserve">
<g>
	<g>
		<path d="M29.853,29.147l-5.129-5.129C25.52,23.063,26,21.837,26,20.5c0-3.033-2.467-5.5-5.5-5.5S15,17.467,15,20.5
			s2.467,5.5,5.5,5.5c1.337,0,2.563-0.48,3.517-1.275l5.129,5.129C29.244,29.951,29.372,30,29.5,30s0.256-0.049,0.353-0.146
			C30.048,29.659,30.048,29.342,29.853,29.147z M20.5,25c-2.481,0-4.5-2.019-4.5-4.5s2.019-4.5,4.5-4.5s4.5,2.019,4.5,4.5
			S22.981,25,20.5,25z M23.127,26.461c-0.205,0.186-0.222,0.502-0.037,0.707c0.472,0.523,0.772,1.16,0.873,1.832H1.036
			c0.243-1.694,1.704-3,3.464-3h11.11c0.277,0,0.501-0.224,0.501-0.5s-0.224-0.5-0.5-0.5H4.036c0.243-1.694,1.704-3,3.464-3h6.08
			c0.276,0,0.5-0.224,0.5-0.5s-0.224-0.5-0.5-0.5H7.5c-0.004,0-0.007,0.001-0.011,0.001C8.262,19.634,8.472,17.553,8.505,16h7.105
			c0.277,0,0.5-0.224,0.5-0.5s-0.224-0.5-0.5-0.5H7.5c-0.652,0-1.208-0.418-1.415-1H19.5c1.93,0,3.5-1.57,3.5-3.5v-10
			C23,0.224,22.776,0,22.5,0h-4C18.224,0,18,0.224,18,0.5V5h-3V0.5C15,0.224,14.776,0,14.5,0h-4C10.224,0,10,0.224,10,0.5V5H7V0.5
			C7,0.224,6.776,0,6.5,0h-4C2.224,0,2,0.224,2,0.5v10c0,1.775,1.332,3.229,3.046,3.454C5.261,15.115,6.278,16,7.5,16
			c-0.057,2.358-0.52,4.863-1.696,5.331c-0.008,0.003-0.013,0.01-0.02,0.013c-1.562,0.648-2.668,2.154-2.76,3.925
			C1.27,25.884,0,27.539,0,29.5C0,29.776,0.224,30,0.5,30h24c0.276,0,0.5-0.224,0.501-0.501c0-1.1-0.415-2.166-1.167-3.001
			C23.647,26.292,23.332,26.276,23.127,26.461z M5.5,13C4.122,13,3,11.878,3,10.5V1h3v4.5C6,5.776,6.224,6,6.5,6h4
			C10.776,6,11,5.776,11,5.5V1h3v4.5C14,5.776,14.224,6,14.5,6h4C18.776,6,19,5.776,19,5.5V1h3v9.5c0,1.378-1.122,2.5-2.5,2.5H5.5z"
			/>
	</g>
</g>
</svg>
