<?xml version="1.0" encoding="iso-8859-1"?>
<!-- Generator: Adobe Illustrator 19.0.0, SVG Export Plug-In . SVG Version: 6.00 Build 0)  -->
<svg version="1.1" id="Layer_1" xmlns="http://www.w3.org/2000/svg" xmlns:xlink="http://www.w3.org/1999/xlink" x="0px" y="0px"
	 viewBox="0 0 30 30" style="enable-background:new 0 0 30 30;" xml:space="preserve">
<g>
	<g>
		<path d="M26.454,0.499H3.546C1.866,0.499,0.5,1.87,0.5,3.555v17.889c0,1.685,1.366,3.056,3.046,3.056H13.5v1H9
			c-1.93,0-3.5,1.57-3.5,3.5c0,0.276,0.224,0.5,0.5,0.5h18c0.276,0,0.5-0.224,0.5-0.5c0-1.93-1.57-3.5-3.5-3.5h-4.5v-1h9.954
			c1.68,0,3.046-1.371,3.046-3.056V3.555C29.5,1.87,28.134,0.499,26.454,0.499z M21,26.5c1.207,0,2.218,0.86,2.45,2H6.55
			c0.232-1.14,1.243-2,2.45-2H21z M14.5,25.5v-1h1v1H14.5z M28.5,21.445c0,1.134-0.918,2.056-2.046,2.056H16.005
			c-0.002,0-0.003-0.001-0.005-0.001s-0.003,0.001-0.005,0.001h-1.99c-0.002,0-0.003-0.001-0.005-0.001s-0.003,0.001-0.005,0.001
			H3.546c-1.128,0-2.046-0.923-2.046-2.056V20.5h27V21.445z M28.5,19.5h-27V3.556C1.5,2.422,2.418,1.5,3.546,1.5h22.908
			c1.128,0,2.046,0.923,2.046,2.056V19.5z M14,8.5h-4C9.724,8.5,9.5,8.724,9.5,9v9c0,0.276,0.224,0.5,0.5,0.5h4
			c0.276,0,0.5-0.224,0.5-0.5V9C14.5,8.724,14.276,8.5,14,8.5z M13.5,17.5h-3v-8h3V17.5z M20,17.5h-3.5v-11h3v3.262
			c0,0.276,0.224,0.5,0.5,0.5s0.5-0.224,0.5-0.5V6c0-0.276-0.224-0.5-0.5-0.5h-4c-0.276,0-0.5,0.224-0.5,0.5v12
			c0,0.276,0.224,0.5,0.5,0.5h4c0.276,0,0.5-0.224,0.5-0.5S20.276,17.5,20,17.5z M26,3.5h-4c-0.276,0-0.5,0.224-0.5,0.5v5.051
			c0,0.276,0.224,0.5,0.5,0.5s0.5-0.224,0.5-0.5V4.5h3v6.207c0,0.276,0.224,0.5,0.5,0.5s0.5-0.224,0.5-0.5V4
			C26.5,3.724,26.276,3.5,26,3.5z M8,12.5H4c-0.276,0-0.5,0.224-0.5,0.5v5c0,0.276,0.224,0.5,0.5,0.5h4c0.276,0,0.5-0.224,0.5-0.5
			v-5C8.5,12.724,8.276,12.5,8,12.5z M7.5,17.5h-3v-4h3V17.5z M24.94,15.234c0.35-0.491,0.56-1.086,0.56-1.733c0-1.654-1.346-3-3-3
			s-3,1.346-3,3s1.346,3,3,3c0.646,0,1.242-0.21,1.732-0.56l1.414,1.414C25.744,17.451,25.872,17.5,26,17.5s0.256-0.049,0.353-0.146
			c0.195-0.195,0.195-0.512,0-0.707L24.94,15.234z M22.5,15.5c-1.103,0-2-0.897-2-2c0-1.103,0.897-2,2-2c1.103,0,2,0.897,2,2
			C24.5,14.603,23.603,15.5,22.5,15.5z"/>
	</g>
</g>
</svg>
