<?xml version="1.0" encoding="iso-8859-1"?>
<!-- Generator: Adobe Illustrator 19.0.0, SVG Export Plug-In . SVG Version: 6.00 Build 0)  -->
<svg version="1.1" id="Layer_1" xmlns="http://www.w3.org/2000/svg" xmlns:xlink="http://www.w3.org/1999/xlink" x="0px" y="0px"
	 viewBox="0 0 30 30" style="enable-background:new 0 0 30 30;" xml:space="preserve">
<g>
	<g>
		<path d="M29.853,29.147l-9-9c-0.012-0.012-0.029-0.017-0.042-0.028C22.784,17.98,24,15.133,24,12c0-6.617-5.383-12-12-12
			S0,5.383,0,12s5.383,12,12,12c3.132,0,5.979-1.216,8.118-3.188c0.011,0.013,0.016,0.03,0.028,0.042l9,9
			C29.244,29.951,29.372,30,29.5,30s0.256-0.049,0.353-0.146C30.048,29.659,30.048,29.342,29.853,29.147z M12,23
			C5.935,23,1,18.065,1,12S5.935,1,12,1s11,4.935,11,11S18.065,23,12,23z M16.622,5.014l-4-1c-0.148-0.036-0.307-0.003-0.429,0.091
			c-0.121,0.095-0.192,0.24-0.192,0.394v5.306l-2.342-0.78C9.525,8.979,9.378,8.994,9.254,9.064
			c-0.123,0.07-0.211,0.189-0.242,0.327l-2,9c-0.051,0.227,0.062,0.459,0.272,0.56C7.353,18.984,7.427,19,7.5,19
			c0.148,0,0.293-0.066,0.391-0.189l3.782-4.728l2.669,0.89c0.135,0.046,0.281,0.031,0.405-0.039
			c0.123-0.07,0.211-0.189,0.242-0.327l2-9C17.048,5.343,16.885,5.079,16.622,5.014z M14.133,13.85l-2.474-0.825
			c-0.2-0.067-0.418-0.002-0.549,0.162l-2.654,3.318l1.412-6.356l2.473,0.825c0.152,0.051,0.32,0.025,0.451-0.068
			C12.923,10.812,13,10.661,13,10.5V5.141l2.907,0.726L14.133,13.85z"/>
	</g>
</g>
</svg>
