<?xml version="1.0" encoding="iso-8859-1"?>
<!-- Generator: Adobe Illustrator 19.0.0, SVG Export Plug-In . SVG Version: 6.00 Build 0)  -->
<svg version="1.1" id="Layer_1" xmlns="http://www.w3.org/2000/svg" xmlns:xlink="http://www.w3.org/1999/xlink" x="0px" y="0px"
	 viewBox="0 0 30 30" style="enable-background:new 0 0 30 30;" xml:space="preserve">
<g>
	<g>
		<path d="M8,13.5c-1.379,0-2.5,1.122-2.5,2.5s1.121,2.5,2.5,2.5c1.379,0,2.5-1.122,2.5-2.5S9.379,13.5,8,13.5z M8,17.5
			c-0.827,0-1.5-0.673-1.5-1.5c0-0.827,0.673-1.5,1.5-1.5s1.5,0.673,1.5,1.5C9.5,16.827,8.827,17.5,8,17.5z M26.454,0.499H3.546
			C1.866,0.499,0.5,1.87,0.5,3.555v17.889c0,1.685,1.366,3.056,3.046,3.056H13.5v1H9c-1.93,0-3.5,1.57-3.5,3.5
			c0,0.276,0.224,0.5,0.5,0.5h18c0.276,0,0.5-0.224,0.5-0.5c0-1.93-1.57-3.5-3.5-3.5h-4.5v-1h9.954c1.68,0,3.046-1.371,3.046-3.056
			V3.555C29.5,1.87,28.134,0.499,26.454,0.499z M21,26.5c1.207,0,2.218,0.86,2.45,2H6.55c0.232-1.14,1.243-2,2.45-2H21z M14.5,25.5
			v-1h1v1H14.5z M28.5,21.445c0,1.134-0.918,2.056-2.046,2.056H16.005c-0.002,0-0.003-0.001-0.005-0.001s-0.003,0.001-0.005,0.001
			h-1.99c-0.002,0-0.003-0.001-0.005-0.001s-0.003,0.001-0.005,0.001H3.546c-1.128,0-2.046-0.923-2.046-2.056V20.5h27V21.445z
			 M28.5,19.5h-27V3.556C1.5,2.422,2.418,1.5,3.546,1.5h22.908c1.128,0,2.046,0.923,2.046,2.056V19.5z M26.199,10.553l-0.98-0.741
			c0.01-0.103,0.016-0.206,0.016-0.313c0-0.109-0.004-0.213-0.012-0.317l0.99-0.757c0.287-0.249,0.359-0.65,0.17-0.985l-1.122-1.891
			c-0.183-0.327-0.567-0.476-0.969-0.343l-1.148,0.452c-0.19-0.128-0.381-0.236-0.575-0.326L22.4,4.187
			C22.365,3.802,22.027,3.5,21.63,3.5h-2.257c-0.379,0-0.712,0.279-0.776,0.658l-0.176,1.182c-0.204,0.098-0.394,0.205-0.57,0.319
			l-1.167-0.458c-0.349-0.123-0.732,0.007-0.946,0.337l-1.136,1.915c-0.189,0.338-0.106,0.753,0.201,0.993l0.976,0.745
			c-0.007,0.101-0.01,0.204-0.01,0.31c0,0.106,0.003,0.209,0.01,0.31l-1,0.764c-0.286,0.247-0.358,0.648-0.17,0.985l1.122,1.891
			c0.019,0.033,0.047,0.056,0.07,0.086c-0.022-0.006-0.04-0.019-0.063-0.024l-1.785-0.267c-0.163-0.362-0.35-0.703-0.559-1.017
			l0.69-1.829c0.146-0.415-0.005-0.866-0.376-1.103l-2.689-1.657c-0.378-0.244-0.878-0.154-1.175,0.219L8.726,9.38
			c-0.351-0.037-0.712-0.035-1.067,0L6.527,7.842C6.241,7.484,5.741,7.397,5.385,7.626L3.748,8.568
			C3.507,8.706,3.425,9.012,3.563,9.251c0.139,0.24,0.446,0.321,0.683,0.184L5.799,8.54l1.226,1.667
			c0.11,0.148,0.29,0.228,0.472,0.199c0.465-0.064,0.94-0.065,1.387,0c0.191,0.031,0.367-0.05,0.476-0.198l1.224-1.667l2.563,1.514
			l-0.779,2.065c-0.06,0.158-0.036,0.335,0.063,0.471c0.278,0.381,0.517,0.817,0.709,1.293c0.067,0.165,0.215,0.282,0.39,0.308
			l1.97,0.294v3.23c-0.137,0.225-0.084,0.531,0.133,0.682c0.091,0.063,0.193,0.094,0.295,0.094c0.146,0,0.288-0.065,0.382-0.192
			c0.123-0.166,0.188-0.357,0.188-0.554v-3.324c0-0.23-0.086-0.441-0.229-0.605c0.136,0.024,0.281,0.025,0.431-0.024l1.149-0.451
			c0.189,0.127,0.38,0.235,0.574,0.326l0.175,1.185c0.064,0.375,0.389,0.647,0.775,0.647h2.257c0.379,0,0.712-0.278,0.776-0.658
			l0.176-1.182c0.204-0.098,0.392-0.205,0.564-0.318l1.173,0.457c0.347,0.123,0.731-0.007,0.946-0.337l1.136-1.915
			c0.181-0.326,0.109-0.726-0.177-0.973C26.217,10.567,26.208,10.56,26.199,10.553z M24.5,12.797l-1.242-0.484
			c-0.163-0.064-0.35-0.038-0.489,0.072c-0.223,0.174-0.503,0.333-0.835,0.473c-0.161,0.068-0.275,0.214-0.3,0.387L21.447,14.5
			h-1.89l-0.188-1.257c-0.026-0.18-0.147-0.331-0.317-0.395c-0.282-0.106-0.555-0.26-0.835-0.471
			c-0.139-0.103-0.323-0.129-0.483-0.065l-1.229,0.484l-0.933-1.571l1.033-0.789c0.142-0.107,0.215-0.283,0.193-0.46
			c-0.019-0.156-0.03-0.311-0.03-0.476c0-0.165,0.01-0.32,0.03-0.476c0.023-0.176-0.05-0.352-0.193-0.46l-1.033-0.789l0.932-1.571
			l1.23,0.483c0.16,0.064,0.343,0.039,0.483-0.065c0.238-0.179,0.525-0.34,0.853-0.479c0.161-0.068,0.275-0.214,0.3-0.387
			L19.557,4.5h1.879l0.186,1.255c0.027,0.18,0.149,0.331,0.319,0.395c0.279,0.106,0.553,0.26,0.836,0.472
			c0.138,0.104,0.322,0.129,0.482,0.065l1.229-0.484l0.933,1.571l-1.033,0.789c-0.15,0.115-0.223,0.304-0.188,0.49
			c0.027,0.146,0.036,0.291,0.036,0.446c0,0.165-0.02,0.32-0.041,0.475c-0.023,0.177,0.051,0.355,0.194,0.463l1.042,0.788
			L24.5,12.797z M20.5,7.5c-1.103,0-2,0.897-2,2c0,1.103,0.897,2,2,2c1.103,0,2-0.897,2-2C22.5,8.397,21.603,7.5,20.5,7.5z
			 M20.5,10.5c-0.552,0-1-0.449-1-1c0-0.551,0.448-1,1-1s1,0.449,1,1C21.5,10.051,21.052,10.5,20.5,10.5z"/>
	</g>
</g>
</svg>
