<?xml version="1.0" encoding="iso-8859-1"?>
<!-- Generator: Adobe Illustrator 19.0.0, SVG Export Plug-In . SVG Version: 6.00 Build 0)  -->
<svg version="1.1" id="Layer_1" xmlns="http://www.w3.org/2000/svg" xmlns:xlink="http://www.w3.org/1999/xlink" x="0px" y="0px"
	 viewBox="0 0 30 30" style="enable-background:new 0 0 30 30;" xml:space="preserve">
<g>
	<g>
		<path d="M21.317,10.613c-0.127-0.103-0.297-0.137-0.456-0.093c-0.158,0.046-0.283,0.166-0.335,0.322l-1.5,4.5
			c-0.052,0.152-0.026,0.32,0.068,0.45C19.188,15.923,19.339,16,19.5,16h7c0.211,0,0.4-0.133,0.471-0.332
			c0.072-0.2,0.01-0.421-0.154-0.555L21.317,10.613z M20.194,15l1.051-3.154L25.099,15H20.194z M6.5,12C6.776,12,7,11.776,7,11.5v-6
			C7,5.224,6.776,5,6.5,5S6,5.224,6,5.5v6C6,11.776,6.224,12,6.5,12z M6.5,14C6.776,14,7,13.776,7,13.5S6.776,13,6.5,13
			C6.224,13,6,13.224,6,13.5S6.224,14,6.5,14z M28.537,13.306l-5.289-4.37C22.517,8.333,21.592,8,20.645,8h-7.827
			C12.138,5.138,9.567,3,6.5,3C2.916,3,0,5.916,0,9.5c0,2.089,0.995,3.946,2.532,5.136l-2.155,4.248C0.13,19.371,0,19.919,0,20.466
			C0,22.415,1.597,24,3.56,24h0.582C4.589,25.721,6.141,27,8,27s3.411-1.279,3.858-3h6.284c0.447,1.721,1.999,3,3.858,3
			s3.411-1.279,3.858-3h0.341c0.671,0,1.275-0.372,1.576-0.97l1.226-2.43c0.651-1.292,0.997-2.739,0.999-4.183
			C30.002,15.21,29.469,14.076,28.537,13.306z M1,9.5C1,6.467,3.467,4,6.5,4C9.533,4,12,6.467,12,9.5S9.533,15,6.5,15
			C3.467,15,1,12.533,1,9.5z M10.95,23.496c0,0.001-0.001,0.002-0.001,0.004c0,0,0,0.001,0,0.001C10.709,24.916,9.482,26,8,26
			c-1.654,0-3-1.346-3-3s1.346-3,3-3s3,1.346,3,3C11,23.17,10.977,23.334,10.95,23.496z M24.95,23.496
			c0,0.001-0.001,0.002-0.001,0.004c0,0,0,0.001,0,0.001C24.709,24.916,23.482,26,22,26c-1.654,0-3-1.346-3-3s1.346-3,3-3
			s3,1.346,3,3C25,23.17,24.977,23.334,24.95,23.496z M28.108,20.149l-1.226,2.43C26.752,22.839,26.49,23,26.199,23H26
			c0-2.206-1.794-4-4-4s-4,1.794-4,4h-6c0-2.206-1.794-4-4-4s-4,1.794-4,4H3.56C2.148,23,1,21.863,0.999,20.467
			c0-0.392,0.094-0.782,0.27-1.131l2.091-4.148C4.292,15.704,5.362,16,6.5,16c3.584,0,6.5-2.916,6.5-6.5
			c0-0.169-0.013-0.334-0.025-0.5h7.67c0.715,0,1.414,0.251,1.966,0.706l5.289,4.371c0.7,0.578,1.101,1.431,1.1,2.338
			C28.998,17.704,28.69,18.996,28.108,20.149z"/>
	</g>
</g>
</svg>
