<?xml version="1.0" encoding="iso-8859-1"?>
<!-- Generator: Adobe Illustrator 19.0.0, SVG Export Plug-In . SVG Version: 6.00 Build 0)  -->
<svg version="1.1" id="Layer_1" xmlns="http://www.w3.org/2000/svg" xmlns:xlink="http://www.w3.org/1999/xlink" x="0px" y="0px"
	 viewBox="0 0 30 30" style="enable-background:new 0 0 30 30;" xml:space="preserve">
<g>
	<g>
		<path d="M9.854,19.147c-0.046-0.046-0.102-0.083-0.163-0.108c-0.035-0.014-0.073-0.016-0.109-0.022C9.554,19.012,9.529,19,9.5,19
			c-0.038,0-0.072,0.014-0.108,0.022c-0.027,0.006-0.055,0.006-0.081,0.016c-0.063,0.026-0.12,0.064-0.167,0.111l-1.997,1.997
			c-0.195,0.195-0.195,0.512,0,0.707s0.512,0.195,0.707,0L9,20.708V24.5C9,24.776,9.224,25,9.5,25s0.5-0.224,0.5-0.5v-3.792
			l1.146,1.146C11.244,21.951,11.372,22,11.5,22s0.256-0.049,0.354-0.146c0.195-0.195,0.195-0.512,0-0.707L9.854,19.147
			C9.854,19.147,9.854,19.147,9.854,19.147z M23.5,17c-1.787,0-3.408,0.726-4.584,1.897c-0.004,0.003-0.008,0.004-0.012,0.008
			c-0.004,0.004-0.005,0.008-0.008,0.012C17.725,20.093,17,21.713,17,23.5c0,3.584,2.916,6.5,6.5,6.5
			c1.785,0,3.403-0.724,4.579-1.892c0.005-0.004,0.011-0.006,0.016-0.011c0.005-0.005,0.006-0.011,0.01-0.015
			C29.275,26.906,30,25.286,30,23.5C30,19.916,27.084,17,23.5,17z M23.5,29c-3.032,0-5.5-2.467-5.5-5.5
			c0-1.336,0.48-2.562,1.276-3.516l7.74,7.741C26.062,28.52,24.836,29,23.5,29z M27.723,27.018l-7.74-7.741
			C20.937,18.48,22.163,18,23.5,18c3.032,0,5.5,2.467,5.5,5.5C29,24.837,28.519,26.064,27.723,27.018z M16.834,28.313L15,28.837
			V1.163l12.999,3.714V16.5c0,0.276,0.224,0.5,0.5,0.5s0.5-0.224,0.5-0.5v-12c0-0.223-0.148-0.419-0.362-0.481l-14-4
			c-0.014-0.004-0.029,0.003-0.043,0C14.563,0.013,14.533,0,14.5,0s-0.063,0.013-0.094,0.019c-0.015,0.003-0.03-0.004-0.044,0l-14,4
			C0.148,4.081,0,4.277,0,4.5v21c0,0.223,0.148,0.419,0.362,0.481l14,4C14.407,29.994,14.454,30,14.5,30
			c0.046,0,0.093-0.006,0.136-0.018l2.473-0.707c0.266-0.076,0.419-0.353,0.343-0.618C17.377,28.392,17.103,28.238,16.834,28.313z
			 M5.001,3.734L9,2.591v11.701l-0.5,0.5l-1.146-1.146c-0.195-0.195-0.512-0.195-0.707,0l-1.146,1.146l-0.5-0.5V3.734z M14,28.837
			L0.999,25.123V4.877l3.002-0.858v10.48c0,0.133,0.052,0.26,0.146,0.354l1,1c0.195,0.195,0.512,0.195,0.707,0L7,14.707l1.146,1.147
			C8.244,15.951,8.372,16,8.5,16s0.256-0.049,0.354-0.146l1-1C9.947,14.76,10,14.633,10,14.5V2.305l4-1.143V28.837z"/>
	</g>
</g>
</svg>
