<?xml version="1.0" encoding="iso-8859-1"?>
<!-- Generator: Adobe Illustrator 19.0.0, SVG Export Plug-In . SVG Version: 6.00 Build 0)  -->
<svg version="1.1" id="Layer_1" xmlns="http://www.w3.org/2000/svg" xmlns:xlink="http://www.w3.org/1999/xlink" x="0px" y="0px"
	 viewBox="0 0 30 30" style="enable-background:new 0 0 30 30;" xml:space="preserve">
<g>
	<g>
		<path d="M21.317,10.613c-0.127-0.103-0.296-0.137-0.456-0.093c-0.158,0.046-0.283,0.166-0.335,0.322l-1.5,4.5
			c-0.052,0.152-0.026,0.32,0.068,0.45C19.188,15.923,19.339,16,19.5,16h7c0.211,0,0.4-0.133,0.471-0.332
			c0.072-0.2,0.01-0.421-0.154-0.555L21.317,10.613z M20.194,15l1.051-3.154L25.099,15H20.194z M28.537,13.306l-5.289-4.37
			C22.517,8.333,21.592,8,20.645,8h-7.827C12.138,5.138,9.567,3,6.5,3C2.916,3,0,5.916,0,9.5c0,2.089,0.995,3.946,2.532,5.136
			l-2.155,4.248C0.13,19.371,0,19.919,0,20.466C0,22.415,1.597,24,3.56,24h0.582C4.589,25.721,6.141,27,8,27s3.411-1.279,3.858-3
			h6.284c0.447,1.721,1.999,3,3.858,3s3.411-1.279,3.858-3h0.341c0.67,0,1.274-0.372,1.576-0.97l1.226-2.43
			c0.651-1.292,0.997-2.739,0.999-4.183C30.001,15.21,29.468,14.075,28.537,13.306z M12,9.5c0,0.376-1.064,1.012-3.05,1.32
			C8.982,10.385,9,9.943,9,9.5S8.982,8.615,8.95,8.18C10.936,8.488,12,9.124,12,9.5z M11.785,7.993
			c-0.75-0.385-1.786-0.653-2.937-0.805c-0.157-1.161-0.434-2.212-0.83-2.97C9.835,4.741,11.266,6.175,11.785,7.993z M8.844,11.844
			c1.148-0.158,2.186-0.434,2.938-0.826c-0.522,1.813-1.951,3.242-3.764,3.764C8.41,14.031,8.687,12.993,8.844,11.844z M6.5,4
			c0.378,0,1.021,1.076,1.327,3.086c-0.874-0.062-1.78-0.062-2.655,0C5.479,5.076,6.122,4,6.5,4z M5.063,8.063
			C5.511,8.026,5.983,8,6.5,8c0.517,0,0.989,0.026,1.437,0.063C7.974,8.511,8,8.983,8,9.5s-0.026,0.989-0.063,1.437
			C7.489,10.974,7.017,11,6.5,11c-0.517,0-0.989-0.026-1.437-0.063C5.026,10.489,5,10.017,5,9.5S5.026,8.511,5.063,8.063z
			 M7.82,11.95C7.512,13.936,6.876,15,6.5,15c-0.376,0-1.012-1.064-1.32-3.05C5.615,11.982,6.057,12,6.5,12S7.385,11.982,7.82,11.95
			z M4.982,4.218c-0.395,0.758-0.673,1.809-0.83,2.97c-1.15,0.152-2.187,0.42-2.937,0.805C1.734,6.175,3.165,4.741,4.982,4.218z
			 M1,9.5c0-0.376,1.064-1.012,3.05-1.32C4.018,8.615,4,9.057,4,9.5s0.018,0.885,0.05,1.32C2.064,10.512,1,9.876,1,9.5z
			 M1.218,11.018c0.751,0.392,1.79,0.668,2.938,0.826c0.158,1.148,0.434,2.186,0.826,2.938C3.169,14.26,1.74,12.831,1.218,11.018z
			 M8,26c-1.654,0-3-1.346-3-3s1.346-3,3-3s3,1.346,3,3S9.654,26,8,26z M22,26c-1.482,0-2.709-1.084-2.949-2.499
			c0,0,0-0.001,0-0.001c0-0.002-0.001-0.003-0.001-0.004C19.023,23.334,19,23.17,19,23c0-1.654,1.346-3,3-3s3,1.346,3,3
			S23.654,26,22,26z M28.109,20.149l-1.226,2.429C26.752,22.839,26.49,23,26.199,23H26c0-2.206-1.794-4-4-4s-4,1.794-4,4h-6
			c0-2.206-1.794-4-4-4s-4,1.794-4,4H3.56C2.148,23,1,21.863,0.999,20.467c0-0.392,0.094-0.782,0.27-1.131l2.091-4.148
			C4.292,15.704,5.362,16,6.5,16c3.584,0,6.5-2.916,6.5-6.5c0-0.169-0.013-0.334-0.025-0.5h7.67c0.715,0,1.414,0.251,1.966,0.706
			l5.289,4.371c0.7,0.578,1.101,1.431,1.1,2.338C28.998,17.704,28.69,18.996,28.109,20.149z"/>
	</g>
</g>
</svg>
