<?xml version="1.0" encoding="iso-8859-1"?>
<!-- Generator: Adobe Illustrator 19.0.0, SVG Export Plug-In . SVG Version: 6.00 Build 0)  -->
<svg version="1.1" id="Layer_1" xmlns="http://www.w3.org/2000/svg" xmlns:xlink="http://www.w3.org/1999/xlink" x="0px" y="0px"
	 viewBox="0 0 30 30" style="enable-background:new 0 0 30 30;" xml:space="preserve">
<g>
	<g>
		<path d="M9.78,19.097c-0.029-0.02-0.054-0.044-0.087-0.058c-0.123-0.051-0.261-0.051-0.384,0
			c-0.055,0.023-0.104,0.057-0.147,0.098c-0.004,0.004-0.01,0.005-0.014,0.01l-2,2c-0.195,0.195-0.195,0.512,0,0.707
			c0.195,0.195,0.512,0.195,0.707,0L9,20.707V24.5C9,24.776,9.224,25,9.5,25s0.5-0.224,0.5-0.5v-3.793l1.146,1.147
			C11.244,21.951,11.372,22,11.5,22s0.256-0.049,0.354-0.147c0.195-0.195,0.195-0.512,0-0.707l-2-2
			C9.832,19.124,9.805,19.114,9.78,19.097z M19.021,27.605L15,28.826V1.163l13,3.714V25.5c0,0.276,0.224,0.5,0.5,0.5
			s0.5-0.224,0.5-0.5v-21c0-0.223-0.148-0.419-0.363-0.481l-14-4c-0.014-0.004-0.029,0.003-0.043,0C14.563,0.013,14.534,0,14.5,0
			s-0.063,0.013-0.094,0.019c-0.015,0.003-0.03-0.004-0.044,0l-14,4C0.148,4.081,0,4.277,0,4.5v21c0,0.223,0.148,0.419,0.362,0.481
			l14,4C14.407,29.994,14.454,30,14.5,30c0.049,0,0.098-0.007,0.145-0.021l4.667-1.417c0.264-0.081,0.413-0.36,0.333-0.624
			C19.565,27.675,19.289,27.525,19.021,27.605z M5,3.734l3.999-1.143v11.701l-0.5,0.5l-1.146-1.146
			c-0.195-0.195-0.512-0.195-0.707,0L5.5,14.793l-0.5-0.5V3.734z M14,28.837L1,25.123V4.877L4,4.02V14.5
			c0,0.133,0.053,0.26,0.147,0.353l1,1c0.195,0.195,0.512,0.195,0.707,0L7,14.707l1.146,1.147C8.244,15.951,8.372,16,8.5,16
			s0.256-0.049,0.353-0.146l1-1c0.093-0.094,0.146-0.221,0.146-0.354V2.306L14,1.163V28.837z M29.853,29.147l-4-4
			C26.559,24.285,27,23.198,27,22c0-2.757-2.243-5-5-5s-5,2.243-5,5s2.243,5,5,5c1.198,0,2.284-0.441,3.146-1.146l4,4
			C29.244,29.951,29.372,30,29.5,30s0.256-0.049,0.353-0.146C30.048,29.659,30.048,29.342,29.853,29.147z M22,26
			c-2.206,0-4-1.794-4-4s1.794-4,4-4s4,1.794,4,4S24.206,26,22,26z"/>
	</g>
</g>
</svg>
