<?xml version="1.0" encoding="iso-8859-1"?>
<!-- Generator: Adobe Illustrator 19.0.0, SVG Export Plug-In . SVG Version: 6.00 Build 0)  -->
<svg version="1.1" id="Layer_1" xmlns="http://www.w3.org/2000/svg" xmlns:xlink="http://www.w3.org/1999/xlink" x="0px" y="0px"
	 viewBox="0 0 24 24" style="enable-background:new 0 0 24 24;" xml:space="preserve">
<g id="XMLID_586_">
	<g id="XMLID_587_">
		<g id="XMLID_592_">
			<path id="XMLID_593_" d="M16,22.5H8c-1.378,0-2.5-1.122-2.5-2.5V6c0-1.378,1.122-2.5,2.5-2.5h1.5V2c0-0.276,0.224-0.5,0.5-0.5h4
				c0.276,0,0.5,0.224,0.5,0.5v1.5H16c1.378,0,2.5,1.122,2.5,2.5v14C18.5,21.378,17.378,22.5,16,22.5z M8,4.5
				C7.173,4.5,6.5,5.173,6.5,6v14c0,0.827,0.673,1.5,1.5,1.5h8c0.827,0,1.5-0.673,1.5-1.5V6c0-0.827-0.673-1.5-1.5-1.5h-2
				c-0.276,0-0.5-0.224-0.5-0.5V2.5h-3V4c0,0.276-0.224,0.5-0.5,0.5H8z"/>
		</g>
		<g id="XMLID_590_">
			<path id="XMLID_591_" d="M15,19.5H9c-0.276,0-0.5-0.224-0.5-0.5s0.224-0.5,0.5-0.5h6c0.276,0,0.5,0.224,0.5,0.5
				S15.276,19.5,15,19.5z"/>
		</g>
		<g id="XMLID_588_">
			<path id="XMLID_589_" d="M15,16.5H9c-0.276,0-0.5-0.224-0.5-0.5s0.224-0.5,0.5-0.5h6c0.276,0,0.5,0.224,0.5,0.5
				S15.276,16.5,15,16.5z"/>
		</g>
	</g>
</g>
<g>
</g>
<g>
</g>
<g>
</g>
<g>
</g>
<g>
</g>
<g>
</g>
<g>
</g>
<g>
</g>
<g>
</g>
<g>
</g>
<g>
</g>
<g>
</g>
<g>
</g>
<g>
</g>
<g>
</g>
</svg>
