<?xml version="1.0" encoding="iso-8859-1"?>
<!-- Generator: Adobe Illustrator 19.0.0, SVG Export Plug-In . SVG Version: 6.00 Build 0)  -->
<svg version="1.1" id="Layer_1" xmlns="http://www.w3.org/2000/svg" xmlns:xlink="http://www.w3.org/1999/xlink" x="0px" y="0px"
	 viewBox="0 0 24 24" style="enable-background:new 0 0 24 24;" xml:space="preserve">
<g id="XMLID_943_">
	<g id="XMLID_1002_">
		<path id="XMLID_1003_" d="M16,24H8c-2.481,0-4.5-2.019-4.5-4.5v-17C3.5,1.122,4.622,0,6,0h12c1.378,0,2.5,1.122,2.5,2.5v17
			C20.5,21.981,18.481,24,16,24z M6,1C5.173,1,4.5,1.673,4.5,2.5v17C4.5,21.43,6.07,23,8,23h8c1.93,0,3.5-1.57,3.5-3.5v-17
			C19.5,1.673,18.827,1,18,1H6z"/>
	</g>
	<g id="XMLID_1000_">
		<path id="XMLID_1001_" d="M6.02,16c-0.276,0-0.505-0.224-0.505-0.5S5.734,15,6.01,15h0.01c0.276,0,0.5,0.224,0.5,0.5
			S6.296,16,6.02,16z"/>
	</g>
	<g id="XMLID_998_">
		<path id="XMLID_999_" d="M8.02,16c-0.276,0-0.505-0.224-0.505-0.5S7.734,15,8.01,15h0.01c0.276,0,0.5,0.224,0.5,0.5
			S8.296,16,8.02,16z"/>
	</g>
	<g id="XMLID_996_">
		<path id="XMLID_997_" d="M10.02,16c-0.276,0-0.505-0.224-0.505-0.5S9.734,15,10.01,15h0.01c0.276,0,0.5,0.224,0.5,0.5
			S10.296,16,10.02,16z"/>
	</g>
	<g id="XMLID_994_">
		<path id="XMLID_995_" d="M12.02,16c-0.276,0-0.505-0.224-0.505-0.5S11.734,15,12.01,15h0.01c0.276,0,0.5,0.224,0.5,0.5
			S12.296,16,12.02,16z"/>
	</g>
	<g id="XMLID_992_">
		<path id="XMLID_993_" d="M14.02,16c-0.276,0-0.505-0.224-0.505-0.5S13.734,15,14.01,15h0.01c0.276,0,0.5,0.224,0.5,0.5
			S14.296,16,14.02,16z"/>
	</g>
	<g id="XMLID_990_">
		<path id="XMLID_991_" d="M16.02,16c-0.276,0-0.505-0.224-0.505-0.5S15.734,15,16.01,15h0.01c0.276,0,0.5,0.224,0.5,0.5
			S16.296,16,16.02,16z"/>
	</g>
	<g id="XMLID_988_">
		<path id="XMLID_989_" d="M18.02,16c-0.276,0-0.505-0.224-0.505-0.5S17.734,15,18.01,15h0.01c0.276,0,0.5,0.224,0.5,0.5
			S18.296,16,18.02,16z"/>
	</g>
	<g id="XMLID_986_">
		<path id="XMLID_987_" d="M7.02,18c-0.276,0-0.505-0.224-0.505-0.5S6.734,17,7.01,17h0.01c0.276,0,0.5,0.224,0.5,0.5
			S7.296,18,7.02,18z"/>
	</g>
	<g id="XMLID_984_">
		<path id="XMLID_985_" d="M9.02,18c-0.276,0-0.505-0.224-0.505-0.5S8.734,17,9.01,17h0.01c0.276,0,0.5,0.224,0.5,0.5
			S9.296,18,9.02,18z"/>
	</g>
	<g id="XMLID_982_">
		<path id="XMLID_983_" d="M11.02,18c-0.276,0-0.505-0.224-0.505-0.5S10.734,17,11.01,17h0.01c0.276,0,0.5,0.224,0.5,0.5
			S11.296,18,11.02,18z"/>
	</g>
	<g id="XMLID_980_">
		<path id="XMLID_981_" d="M13.02,18c-0.276,0-0.505-0.224-0.505-0.5S12.734,17,13.01,17h0.01c0.276,0,0.5,0.224,0.5,0.5
			S13.296,18,13.02,18z"/>
	</g>
	<g id="XMLID_978_">
		<path id="XMLID_979_" d="M15.02,18c-0.276,0-0.505-0.224-0.505-0.5S14.734,17,15.01,17h0.01c0.276,0,0.5,0.224,0.5,0.5
			S15.296,18,15.02,18z"/>
	</g>
	<g id="XMLID_976_">
		<path id="XMLID_977_" d="M17.02,18c-0.276,0-0.505-0.224-0.505-0.5S16.734,17,17.01,17h0.01c0.276,0,0.5,0.224,0.5,0.5
			S17.296,18,17.02,18z"/>
	</g>
	<g id="XMLID_974_">
		<path id="XMLID_975_" d="M6.02,20c-0.276,0-0.505-0.224-0.505-0.5S5.734,19,6.01,19h0.01c0.276,0,0.5,0.224,0.5,0.5
			S6.296,20,6.02,20z"/>
	</g>
	<g id="XMLID_972_">
		<path id="XMLID_973_" d="M8.02,20c-0.276,0-0.505-0.224-0.505-0.5S7.734,19,8.01,19h0.01c0.276,0,0.5,0.224,0.5,0.5
			S8.296,20,8.02,20z"/>
	</g>
	<g id="XMLID_970_">
		<path id="XMLID_971_" d="M10.02,20c-0.276,0-0.505-0.224-0.505-0.5S9.734,19,10.01,19h0.01c0.276,0,0.5,0.224,0.5,0.5
			S10.296,20,10.02,20z"/>
	</g>
	<g id="XMLID_968_">
		<path id="XMLID_969_" d="M12.02,20c-0.276,0-0.505-0.224-0.505-0.5S11.734,19,12.01,19h0.01c0.276,0,0.5,0.224,0.5,0.5
			S12.296,20,12.02,20z"/>
	</g>
	<g id="XMLID_966_">
		<path id="XMLID_967_" d="M14.02,20c-0.276,0-0.505-0.224-0.505-0.5S13.734,19,14.01,19h0.01c0.276,0,0.5,0.224,0.5,0.5
			S14.296,20,14.02,20z"/>
	</g>
	<g id="XMLID_964_">
		<path id="XMLID_965_" d="M16.02,20c-0.276,0-0.505-0.224-0.505-0.5S15.734,19,16.01,19h0.01c0.276,0,0.5,0.224,0.5,0.5
			S16.296,20,16.02,20z"/>
	</g>
	<g id="XMLID_962_">
		<path id="XMLID_963_" d="M18.02,20c-0.276,0-0.505-0.224-0.505-0.5S17.734,19,18.01,19h0.01c0.276,0,0.5,0.224,0.5,0.5
			S18.296,20,18.02,20z"/>
	</g>
	<g id="XMLID_960_">
		<path id="XMLID_961_" d="M7.02,22c-0.276,0-0.505-0.224-0.505-0.5S6.734,21,7.01,21h0.01c0.276,0,0.5,0.224,0.5,0.5
			S7.296,22,7.02,22z"/>
	</g>
	<g id="XMLID_958_">
		<path id="XMLID_959_" d="M9.02,22c-0.276,0-0.505-0.224-0.505-0.5S8.734,21,9.01,21h0.01c0.276,0,0.5,0.224,0.5,0.5
			S9.296,22,9.02,22z"/>
	</g>
	<g id="XMLID_956_">
		<path id="XMLID_957_" d="M15.02,22c-0.276,0-0.505-0.224-0.505-0.5S14.734,21,15.01,21h0.01c0.276,0,0.5,0.224,0.5,0.5
			S15.296,22,15.02,22z"/>
	</g>
	<g id="XMLID_954_">
		<path id="XMLID_955_" d="M17.02,22c-0.276,0-0.505-0.224-0.505-0.5S16.734,21,17.01,21h0.01c0.276,0,0.5,0.224,0.5,0.5
			S17.296,22,17.02,22z"/>
	</g>
	<g id="XMLID_952_">
		<path id="XMLID_953_" d="M13,22h-2c-0.276,0-0.5-0.224-0.5-0.5S10.724,21,11,21h2c0.276,0,0.5,0.224,0.5,0.5S13.276,22,13,22z"/>
	</g>
	<g id="XMLID_948_">
		<path id="XMLID_949_" d="M18,14H6c-0.276,0-0.5-0.224-0.5-0.5v-9C5.5,4.224,5.724,4,6,4h12c0.276,0,0.5,0.224,0.5,0.5v9
			C18.5,13.776,18.276,14,18,14z M6.5,13h11V5h-11V13z"/>
	</g>
	<g id="XMLID_946_">
		<path id="XMLID_947_" d="M13,3H8C7.724,3,7.5,2.776,7.5,2.5S7.724,2,8,2h5c0.276,0,0.5,0.224,0.5,0.5S13.276,3,13,3z"/>
	</g>
	<g id="XMLID_944_">
		<path id="XMLID_945_" d="M16.02,3c-0.276,0-0.505-0.224-0.505-0.5S15.734,2,16.01,2h0.01c0.276,0,0.5,0.224,0.5,0.5
			S16.296,3,16.02,3z"/>
	</g>
</g>
<g>
</g>
<g>
</g>
<g>
</g>
<g>
</g>
<g>
</g>
<g>
</g>
<g>
</g>
<g>
</g>
<g>
</g>
<g>
</g>
<g>
</g>
<g>
</g>
<g>
</g>
<g>
</g>
<g>
</g>
</svg>
