<?xml version="1.0" encoding="iso-8859-1"?>
<!-- Generator: Adobe Illustrator 19.0.0, SVG Export Plug-In . SVG Version: 6.00 Build 0)  -->
<svg version="1.1" id="Layer_1" xmlns="http://www.w3.org/2000/svg" xmlns:xlink="http://www.w3.org/1999/xlink" x="0px" y="0px"
	 viewBox="0 0 24 24" style="enable-background:new 0 0 24 24;" xml:space="preserve">
<g id="XMLID_787_">
	<g id="XMLID_790_">
		<g id="XMLID_807_">
			<path id="XMLID_808_" d="M17.75,24h-12c-1.378,0-2.5-1.122-2.5-2.5v-16c0-0.276,0.224-0.5,0.5-0.5s0.5,0.224,0.5,0.5v16
				c0,0.827,0.673,1.5,1.5,1.5h12c0.999,0,1.5-0.32,1.5-0.5c0-0.276,0.224-0.5,0.5-0.5s0.5,0.224,0.5,0.5
				C20.25,23.397,19.245,24,17.75,24z"/>
		</g>
		<g id="XMLID_805_">
			<path id="XMLID_806_" d="M19.75,18c-0.276,0-0.5-0.224-0.5-0.5v-15c0-0.827-0.673-1.5-1.5-1.5H8.957L6.604,3.354
				c-0.195,0.195-0.512,0.195-0.707,0s-0.195-0.512,0-0.707l2.5-2.5C8.49,0.053,8.617,0,8.75,0h9c1.378,0,2.5,1.122,2.5,2.5v15
				C20.25,17.776,20.026,18,19.75,18z"/>
		</g>
		<g id="XMLID_803_">
			<path id="XMLID_804_" d="M16.75,15c-0.276,0-0.5-0.224-0.5-0.5v-5c0-0.276-0.224-0.5-0.5-0.5h-5c-0.276,0-0.5-0.224-0.5-0.5
				S10.474,8,10.75,8h5c0.827,0,1.5,0.673,1.5,1.5v5C17.25,14.776,17.026,15,16.75,15z"/>
		</g>
		<g id="XMLID_801_">
			<path id="XMLID_802_" d="M15.75,21h-8c-0.827,0-1.5-0.673-1.5-1.5v-10c0-0.276,0.224-0.5,0.5-0.5s0.5,0.224,0.5,0.5v10
				c0,0.276,0.224,0.5,0.5,0.5h8c0.276,0,0.5-0.224,0.5-0.5c0-0.276,0.224-0.5,0.5-0.5s0.5,0.224,0.5,0.5
				C17.25,20.327,16.577,21,15.75,21z"/>
		</g>
		<g id="XMLID_799_">
			<path id="XMLID_800_" d="M11.75,15h-5c-0.276,0-0.5-0.224-0.5-0.5S6.474,14,6.75,14h5c0.276,0,0.5,0.224,0.5,0.5
				S12.026,15,11.75,15z"/>
		</g>
		<g id="XMLID_797_">
			<path id="XMLID_798_" d="M13.75,11c-0.276,0-0.5-0.224-0.5-0.5v-2c0-0.276,0.224-0.5,0.5-0.5s0.5,0.224,0.5,0.5v2
				C14.25,10.776,14.026,11,13.75,11z"/>
		</g>
		<g id="XMLID_795_">
			<path id="XMLID_796_" d="M11.75,21c-0.276,0-0.5-0.224-0.5-0.5v-3c0-0.276,0.224-0.5,0.5-0.5s0.5,0.224,0.5,0.5v3
				C12.25,20.776,12.026,21,11.75,21z"/>
		</g>
		<g id="XMLID_793_">
			<path id="XMLID_794_" d="M9.75,18c-0.276,0-0.5-0.224-0.5-0.5v-5c0-0.276,0.224-0.5,0.5-0.5s0.5,0.224,0.5,0.5v5
				C10.25,17.776,10.026,18,9.75,18z"/>
		</g>
		<g id="XMLID_791_">
			<path id="XMLID_792_" d="M13.75,18c-0.276,0-0.5-0.224-0.5-0.5v-1c0-0.276,0.224-0.5,0.5-0.5s0.5,0.224,0.5,0.5v1
				C14.25,17.776,14.026,18,13.75,18z"/>
		</g>
	</g>
	<g id="XMLID_788_">
		<path id="XMLID_789_" d="M22.75,24c-0.133,0-0.267-0.053-0.365-0.159l-21.5-23C0.696,0.64,0.707,0.323,0.909,0.135
			C1.11-0.053,1.426-0.043,1.615,0.159l21.5,23c0.188,0.202,0.178,0.518-0.024,0.707C22.995,23.956,22.873,24,22.75,24z"/>
	</g>
</g>
<g>
</g>
<g>
</g>
<g>
</g>
<g>
</g>
<g>
</g>
<g>
</g>
<g>
</g>
<g>
</g>
<g>
</g>
<g>
</g>
<g>
</g>
<g>
</g>
<g>
</g>
<g>
</g>
<g>
</g>
</svg>
