<?xml version="1.0" encoding="iso-8859-1"?>
<!-- Generator: Adobe Illustrator 19.0.0, SVG Export Plug-In . SVG Version: 6.00 Build 0)  -->
<svg version="1.1" id="Layer_1" xmlns="http://www.w3.org/2000/svg" xmlns:xlink="http://www.w3.org/1999/xlink" x="0px" y="0px"
	 viewBox="0 0 30 30" style="enable-background:new 0 0 30 30;" xml:space="preserve">
<g>
	<g>
		<path d="M30,15c0-8.271-6.729-15-15-15C9.21,0,4.185,3.304,1.686,8.12C1.575,8.212,1.5,8.345,1.5,8.5
			c0,0.001,0.001,0.002,0.001,0.004C0.549,10.472,0,12.671,0,15c0,8.271,6.729,15,15,15c5.79,0,10.815-3.304,13.314-8.12
			c0.111-0.092,0.186-0.225,0.186-0.38c0-0.001-0.001-0.002-0.001-0.004c0.859-1.779,1.375-3.747,1.467-5.829
			C29.985,15.615,30,15.559,30,15.5c0-0.036-0.013-0.067-0.02-0.1C29.983,15.266,30,15.135,30,15z M25.5,16h3.449
			c-0.024,0.337-0.061,0.67-0.109,1H18.5c-0.276,0-0.5,0.224-0.5,0.5s0.224,0.5,0.5,0.5h10.168c-0.074,0.338-0.16,0.672-0.258,1
			H20.5c-0.276,0-0.5,0.224-0.5,0.5s0.224,0.5,0.5,0.5h7.561c-0.131,0.34-0.275,0.673-0.431,1H11.5c-0.276,0-0.5,0.224-0.5,0.5
			s0.224,0.5,0.5,0.5h15.606c-0.199,0.342-0.407,0.677-0.633,1H18.5c-0.276,0-0.5,0.224-0.5,0.5s0.224,0.5,0.5,0.5h7.209
			c-0.311,0.37-0.643,0.72-0.99,1.055C24.652,25.022,24.579,25,24.5,25h-10c-0.276,0-0.5,0.224-0.5,0.5s0.224,0.5,0.5,0.5h9.132
			c-2.381,1.873-5.375,3-8.632,3C7.28,29,1,22.72,1,15c0-2.149,0.501-4.179,1.37-6H4.5C4.776,9,5,8.776,5,8.5S4.776,8,4.5,8H2.894
			c0.199-0.342,0.407-0.677,0.633-1H10.5C10.776,7,11,6.776,11,6.5S10.776,6,10.5,6H4.291c0.311-0.37,0.643-0.72,0.99-1.055
			C5.348,4.978,5.421,5,5.5,5h4C9.776,5,10,4.776,10,4.5S9.776,4,9.5,4H6.368C8.749,2.127,11.743,1,15,1c7.72,0,14,6.28,14,14h-3.5
			c-0.276,0-0.5,0.224-0.5,0.5S25.224,16,25.5,16z"/>
	</g>
</g>
</svg>
