<?xml version="1.0" encoding="iso-8859-1"?>
<!-- Generator: Adobe Illustrator 19.0.0, SVG Export Plug-In . SVG Version: 6.00 Build 0)  -->
<svg version="1.1" id="Layer_1" xmlns="http://www.w3.org/2000/svg" xmlns:xlink="http://www.w3.org/1999/xlink" x="0px" y="0px"
	 viewBox="0 0 30 30" style="enable-background:new 0 0 30 30;" xml:space="preserve">
<g>
	<g>
		<path d="M3.999,20.487c-0.276,0-0.5,0.224-0.5,0.5s0.224,0.5,0.5,0.5c0.276,0,0.5-0.224,0.5-0.5S4.276,20.487,3.999,20.487z
			 M29.912,14.172l-5.501-7.968c-0.105-0.151-0.291-0.205-0.477-0.188c-0.183,0.02-0.35,0.164-0.419,0.334
			c-0.148,0.364-0.203,0.5-0.289,0.906c-0.378,1.789-0.277,3.304,0.28,4.517l-1.361,1.361c-0.093,0.094-0.146,0.221-0.146,0.354v2.5
			h-3.5c-0.276,0-0.5,0.224-0.5,0.5v4.5h-3v-2h0.5c0.238,0,0.443-0.168,0.489-0.403l1-5c0.054-0.271-0.121-0.534-0.392-0.588
			c-0.272-0.057-0.534,0.121-0.588,0.392l-0.919,4.599h-3.59c-0.276,0-0.5,0.224-0.5,0.5s0.224,0.5,0.5,0.5h2.5v2H9.71l1.28-6.401
			c0.032-0.164-0.018-0.334-0.137-0.452s-0.287-0.167-0.452-0.137l-5.875,1.175c-0.884,0.176-1.527,0.96-1.527,1.863v1.136
			c-1.161,0.414-2,1.514-2,2.816h-0.5c-0.276,0-0.5,0.224-0.5,0.5s0.224,0.5,0.5,0.5h0.684c0.414,1.161,1.514,2,2.816,2
			s2.401-0.839,2.816-2h14.369c0.414,1.161,1.514,2,2.816,2s2.401-0.839,2.816-2h0.684c0.276,0,0.5-0.224,0.5-0.5
			s-0.224-0.5-0.5-0.5h-0.5c0-0.912-0.418-1.72-1.063-2.271c0.037-0.069,0.063-0.145,0.063-0.229v-2c0-0.276-0.224-0.5-0.5-0.5h-2.5
			v-2.293l1.034-1.034c0.608,0.804,1.481,1.426,2.614,1.849c0.86,0.322,1.615,0.478,2.327,0.478c0.198,0,0.393-0.012,0.587-0.035
			c0.174-0.022,0.324-0.132,0.395-0.292C30.028,14.5,30.011,14.315,29.912,14.172z M3.999,22.987c-1.103,0-2-0.897-2-2
			c0-1.103,0.897-2,2-2c1.103,0,2,0.897,2,2C5.999,22.09,5.102,22.987,3.999,22.987z M6.999,20.987c0-1.654-1.346-3-3-3v-0.952
			c0-0.428,0.305-0.799,0.724-0.883l5.139-1.028L8.69,20.987H6.999z M25.999,20.987c0,1.103-0.897,2-2,2s-2-0.897-2-2
			c0-1.103,0.897-2,2-2S25.999,19.884,25.999,20.987z M24.999,16.987v1.184c-0.314-0.112-0.648-0.184-1-0.184c-1.654,0-3,1.346-3,3
			h-2v-4H24.999z M26.996,13.573c-2.47-0.923-3.419-2.926-2.825-5.954l4.383,6.348C28.082,13.919,27.577,13.79,26.996,13.573z
			 M23.499,20.987c0,0.276,0.224,0.5,0.5,0.5s0.5-0.224,0.5-0.5s-0.224-0.5-0.5-0.5S23.499,20.711,23.499,20.987z"/>
	</g>
</g>
</svg>
