<?xml version="1.0" encoding="iso-8859-1"?>
<!-- Generator: Adobe Illustrator 19.0.0, SVG Export Plug-In . SVG Version: 6.00 Build 0)  -->
<svg version="1.1" id="Layer_1" xmlns="http://www.w3.org/2000/svg" xmlns:xlink="http://www.w3.org/1999/xlink" x="0px" y="0px"
	 viewBox="0 0 30 30" style="enable-background:new 0 0 30 30;" xml:space="preserve">
<g>
	<g>
		<path d="M15,0c-3.609,0-7.103,1.312-9.838,3.694C5.033,3.807,4.97,3.977,4.996,4.146c0.023,0.148,0.047,0.297,0.047,0.451
			c0,1.562-1.228,2.857-2.796,2.948c-0.172,0.01-0.326,0.108-0.409,0.259C0.636,9.998,0,12.487,0,15c0,8.271,6.729,15,15,15
			c3.456,0,6.634-1.187,9.174-3.158c0.019-0.014,0.039-0.026,0.057-0.042c2.401-1.882,4.219-4.471,5.124-7.46
			c0.003-0.008,0.004-0.016,0.006-0.025C29.773,17.946,30,16.5,30,15C30,6.729,23.271,0,15,0z M23.761,25.904
			c-2.168-0.35-3.785-2.203-3.785-4.404c0-2.481,2.019-4.5,4.5-4.5c1.594,0,3.051,0.861,3.861,2.25
			C27.491,21.896,25.878,24.199,23.761,25.904z M28.67,17.992C27.638,16.747,26.118,16,24.476,16c-3.033,0-5.5,2.467-5.5,5.5
			c0,2.382,1.545,4.434,3.735,5.175C20.497,28.141,17.848,29,15,29c-7.72,0-14-6.28-14-14c0-2.257,0.549-4.493,1.591-6.483
			c1.957-0.255,3.452-1.925,3.452-3.919c0-0.11-0.008-0.218-0.02-0.324C8.545,2.161,11.722,1,15,1c7.72,0,14,6.28,14,14
			C29,16.028,28.881,17.027,28.67,17.992z M14,22c-1.103,0-2,0.897-2,2c0,1.103,0.897,2,2,2c1.103,0,2-0.897,2-2
			C16,22.896,15.103,22,14,22z M14,25c-0.551,0-1-0.449-1-1c0-0.551,0.449-1,1-1c0.551,0,1,0.449,1,1C15,24.55,14.551,25,14,25z
			 M16.476,14.5c-0.552,0-1,0.448-1,1c0,0.552,0.448,1,1,1c0.552,0,1-0.448,1-1C17.476,14.947,17.028,14.5,16.476,14.5z"/>
	</g>
</g>
</svg>
