<?xml version="1.0" encoding="iso-8859-1"?>
<!-- Generator: Adobe Illustrator 19.0.0, SVG Export Plug-In . SVG Version: 6.00 Build 0)  -->
<svg version="1.1" id="Layer_1" xmlns="http://www.w3.org/2000/svg" xmlns:xlink="http://www.w3.org/1999/xlink" x="0px" y="0px"
	 viewBox="0 0 24 24" style="enable-background:new 0 0 24 24;" xml:space="preserve">
<g>
	<path d="M6.799,19.25c-0.139-0.24-0.446-0.322-0.683-0.183L6,19.134V19c0-0.276-0.224-0.5-0.5-0.5S5,18.724,5,19v0.134
		l-0.116-0.067c-0.239-0.139-0.545-0.057-0.683,0.183c-0.138,0.239-0.056,0.545,0.183,0.683L4.5,20l-0.116,0.067
		c-0.239,0.138-0.321,0.444-0.183,0.683C4.293,20.91,4.461,21,4.634,21c0.085,0,0.171-0.021,0.25-0.067L5,20.866V21
		c0,0.276,0.224,0.5,0.5,0.5S6,21.276,6,21v-0.134l0.116,0.067C6.195,20.979,6.281,21,6.366,21c0.173,0,0.341-0.09,0.434-0.25
		c0.138-0.239,0.056-0.545-0.183-0.683L6.5,20l0.116-0.067C6.855,19.795,6.937,19.489,6.799,19.25z"/>
	<path d="M10.799,19.25c-0.138-0.24-0.445-0.322-0.683-0.183L10,19.134V19c0-0.276-0.224-0.5-0.5-0.5S9,18.724,9,19v0.134
		l-0.116-0.067c-0.24-0.139-0.544-0.057-0.683,0.183c-0.138,0.239-0.056,0.545,0.183,0.683L8.5,20l-0.116,0.067
		c-0.239,0.138-0.321,0.444-0.183,0.683C8.293,20.91,8.461,21,8.634,21c0.085,0,0.171-0.021,0.25-0.067L9,20.866V21
		c0,0.276,0.224,0.5,0.5,0.5S10,21.276,10,21v-0.134l0.116,0.067C10.195,20.979,10.281,21,10.366,21c0.173,0,0.341-0.09,0.434-0.25
		c0.138-0.239,0.056-0.545-0.183-0.683L10.5,20l0.116-0.067C10.855,19.795,10.937,19.489,10.799,19.25z"/>
	<path d="M14.799,19.25c-0.139-0.24-0.445-0.322-0.683-0.183L14,19.134V19c0-0.276-0.224-0.5-0.5-0.5S13,18.724,13,19v0.134
		l-0.116-0.067c-0.239-0.139-0.545-0.057-0.683,0.183c-0.138,0.239-0.056,0.545,0.183,0.683L12.5,20l-0.116,0.067
		c-0.239,0.138-0.321,0.444-0.183,0.683c0.093,0.16,0.261,0.25,0.434,0.25c0.085,0,0.171-0.021,0.25-0.067L13,20.866V21
		c0,0.276,0.224,0.5,0.5,0.5S14,21.276,14,21v-0.134l0.116,0.067C14.195,20.979,14.281,21,14.366,21c0.173,0,0.341-0.09,0.434-0.25
		c0.138-0.239,0.056-0.545-0.183-0.683L14.5,20l0.116-0.067C14.855,19.795,14.937,19.489,14.799,19.25z"/>
	<path d="M8.366,18c0.173,0,0.341-0.09,0.434-0.25c0.138-0.239,0.056-0.545-0.183-0.683L8.5,17l0.116-0.067
		c0.239-0.138,0.321-0.444,0.183-0.683c-0.138-0.239-0.445-0.321-0.683-0.183L8,16.134V16c0-0.276-0.224-0.5-0.5-0.5S7,15.724,7,16
		v0.134l-0.116-0.067c-0.24-0.138-0.545-0.056-0.683,0.183c-0.138,0.239-0.056,0.545,0.183,0.683L6.5,17l-0.116,0.067
		c-0.239,0.138-0.321,0.444-0.183,0.683C6.293,17.91,6.461,18,6.634,18c0.085,0,0.171-0.021,0.25-0.067L7,17.866V18
		c0,0.276,0.224,0.5,0.5,0.5S8,18.276,8,18v-0.134l0.116,0.067C8.195,17.979,8.281,18,8.366,18z"/>
	<path d="M12.366,18c0.173,0,0.341-0.09,0.434-0.25c0.138-0.239,0.056-0.545-0.183-0.683L12.5,17l0.116-0.067
		c0.239-0.138,0.321-0.444,0.183-0.683c-0.139-0.239-0.445-0.321-0.683-0.183L12,16.134V16c0-0.276-0.224-0.5-0.5-0.5
		S11,15.724,11,16v0.134l-0.116-0.067c-0.239-0.138-0.545-0.056-0.683,0.183c-0.138,0.239-0.056,0.545,0.183,0.683L10.5,17
		l-0.116,0.067c-0.239,0.138-0.321,0.444-0.183,0.683c0.093,0.16,0.261,0.25,0.434,0.25c0.085,0,0.171-0.021,0.25-0.067L11,17.866
		V18c0,0.276,0.224,0.5,0.5,0.5S12,18.276,12,18v-0.134l0.116,0.067C12.195,17.979,12.281,18,12.366,18z"/>
	<path d="M18.5,6.5c-0.413,0-0.834,0.056-1.278,0.169C15.96,4.123,13.369,2.5,10.5,2.5c-3.658,0-6.776,2.655-7.387,6.229
		C1.264,9.326,0,11.036,0,13c0,2.481,2.019,4.5,4.5,4.5h0.199c0.003,0,0.007,0,0.01,0c0.302,0.021,0.51-0.22,0.51-0.5
		c0-0.086-0.022-0.168-0.061-0.239c-0.062-0.349-0.001-0.703,0.177-1.011c0.197-0.342,0.516-0.588,0.899-0.694
		c0.082-0.023,0.156-0.066,0.216-0.125c0.566-0.556,1.534-0.556,2.099,0c0.061,0.06,0.136,0.103,0.217,0.125
		c0.152,0.042,0.304,0.114,0.45,0.215c0.171,0.118,0.397,0.118,0.568,0c0.146-0.101,0.297-0.173,0.449-0.215
		c0.082-0.022,0.157-0.065,0.217-0.125c0.567-0.556,1.534-0.555,2.099,0c0.061,0.06,0.136,0.103,0.217,0.125
		c0.153,0.042,0.304,0.114,0.449,0.215c0.171,0.118,0.397,0.118,0.568,0c0.146-0.101,0.297-0.173,0.45-0.215
		c0.082-0.022,0.157-0.066,0.217-0.125c0.565-0.556,1.533-0.556,2.099,0c0.061,0.06,0.136,0.103,0.217,0.125
		c0.382,0.105,0.701,0.352,0.898,0.694c0.197,0.341,0.251,0.741,0.152,1.125c-0.039,0.15-0.006,0.309,0.088,0.431
		s0.241,0.194,0.396,0.194H18.5c3.033,0,5.5-2.467,5.5-5.5S21.533,6.5,18.5,6.5z"/>
	<path d="M16.799,16.25c-0.139-0.239-0.446-0.321-0.683-0.183L16,16.134V16c0-0.276-0.224-0.5-0.5-0.5S15,15.724,15,16v0.134
		l-0.116-0.067c-0.239-0.138-0.545-0.056-0.683,0.183c-0.138,0.239-0.056,0.545,0.183,0.683L14.5,17l-0.116,0.067
		c-0.239,0.138-0.321,0.444-0.183,0.683c0.093,0.16,0.261,0.25,0.434,0.25c0.085,0,0.171-0.021,0.25-0.067L15,17.866V18
		c0,0.276,0.224,0.5,0.5,0.5S16,18.276,16,18v-0.134l0.116,0.067C16.195,17.979,16.281,18,16.366,18c0.173,0,0.341-0.09,0.434-0.25
		c0.138-0.239,0.056-0.545-0.183-0.683L16.5,17l0.116-0.067C16.855,16.795,16.937,16.489,16.799,16.25z"/>
</g>
<g>
</g>
<g>
</g>
<g>
</g>
<g>
</g>
<g>
</g>
<g>
</g>
<g>
</g>
<g>
</g>
<g>
</g>
<g>
</g>
<g>
</g>
<g>
</g>
<g>
</g>
<g>
</g>
<g>
</g>
</svg>
