<?xml version="1.0" encoding="iso-8859-1"?>
<!-- Generator: Adobe Illustrator 19.0.0, SVG Export Plug-In . SVG Version: 6.00 Build 0)  -->
<svg version="1.1" id="Layer_1" xmlns="http://www.w3.org/2000/svg" xmlns:xlink="http://www.w3.org/1999/xlink" x="0px" y="0px"
	 viewBox="0 0 24 24" style="enable-background:new 0 0 24 24;" xml:space="preserve">
<g>
	<path d="M18.5,6.5c-0.413,0-0.834,0.056-1.278,0.169C15.96,4.123,13.369,2.5,10.5,2.5c-3.658,0-6.776,2.655-7.387,6.229
		C1.264,9.326,0,11.036,0,13c0,2.481,2.019,4.5,4.5,4.5h2.761c0.238,0,0.443-0.168,0.49-0.402l0.778-3.892
		c0.091-0.456,0.395-0.85,0.812-1.053c0.275-0.135,0.593-0.183,0.897-0.134c0.134,0.02,0.273-0.013,0.383-0.096
		c0.109-0.083,0.179-0.207,0.194-0.343l0.194-1.746c0.05-0.453,0.299-0.853,0.682-1.098c0.378-0.241,0.86-0.301,1.283-0.16l3,1
		c0.78,0.26,1.201,1.079,0.959,1.865l-1.665,5.412c-0.046,0.151-0.019,0.316,0.076,0.444c0.094,0.128,0.244,0.203,0.402,0.203H18.5
		c3.033,0,5.5-2.467,5.5-5.5S21.533,6.5,18.5,6.5z"/>
	<path d="M15.658,10.526l-3-1c-0.143-0.048-0.3-0.028-0.428,0.053c-0.127,0.082-0.211,0.216-0.228,0.366l-0.421,3.787l-1.358-0.679
		c-0.14-0.07-0.304-0.07-0.443-0.002c-0.14,0.068-0.24,0.198-0.271,0.351l-1.5,7.5c-0.047,0.234,0.078,0.469,0.299,0.56
		C8.371,21.488,8.436,21.5,8.5,21.5c0.163,0,0.321-0.08,0.416-0.223l2.755-4.133l1.605,0.803c0.132,0.066,0.286,0.071,0.42,0.012
		c0.135-0.058,0.238-0.172,0.281-0.313l2-6.5C16.058,10.887,15.916,10.611,15.658,10.526z"/>
</g>
<g>
</g>
<g>
</g>
<g>
</g>
<g>
</g>
<g>
</g>
<g>
</g>
<g>
</g>
<g>
</g>
<g>
</g>
<g>
</g>
<g>
</g>
<g>
</g>
<g>
</g>
<g>
</g>
<g>
</g>
</svg>
