<?xml version="1.0" encoding="iso-8859-1"?>
<!-- Generator: Adobe Illustrator 19.2.1, SVG Export Plug-In . SVG Version: 6.00 Build 0)  -->
<svg version="1.1" id="Layer_1" xmlns="http://www.w3.org/2000/svg" xmlns:xlink="http://www.w3.org/1999/xlink" x="0px" y="0px"
	 viewBox="0 0 30 30" style="enable-background:new 0 0 30 30;" xml:space="preserve">
<g>
	<g>
		<path d="M26.981,12.086C26.777,5.386,21.713,0,15.5,0C9.314,0,4.267,5.34,4.023,12H3.5C2.673,12,2,12.673,2,13.5
			C2,14.327,2.673,15,3.5,15h1.102l3.172,13.598C7.943,29.411,8.67,30,9.5,30h11.764c0.83,0,1.556-0.589,1.721-1.383L26.39,15h0.11
			c0.827,0,1.5-0.673,1.5-1.5C28,12.842,27.571,12.288,26.981,12.086z M15.5,1c5.636,0,10.235,4.892,10.477,11H5.023
			C5.265,5.892,9.864,1,15.5,1z M22.011,28.394C21.938,28.745,21.623,29,21.264,29H9.5c-0.359,0-0.674-0.255-0.749-0.618L5.63,15
			h19.73L22.011,28.394z M26.5,14h-23C3.225,14,3,13.776,3,13.5S3.225,13,3.5,13h23c0.275,0,0.5,0.224,0.5,0.5S26.775,14,26.5,14z"
			/>
	</g>
</g>
</svg>
