<?xml version="1.0" encoding="iso-8859-1"?>
<!-- Generator: Adobe Illustrator 19.2.1, SVG Export Plug-In . SVG Version: 6.00 Build 0)  -->
<svg version="1.1" id="Layer_1" xmlns="http://www.w3.org/2000/svg" xmlns:xlink="http://www.w3.org/1999/xlink" x="0px" y="0px"
	 viewBox="0 0 30 30" style="enable-background:new 0 0 30 30;" xml:space="preserve">
<g>
	<g>
		<path d="M29.5,14.5H28c0-0.49-0.389-0.821-0.732-1.113c-0.128-0.109-0.343-0.292-0.37-0.339c0.008-0.089,0.168-0.331,0.264-0.475
			c0.246-0.371,0.525-0.792,0.392-1.255c-0.134-0.467-0.596-0.678-1.004-0.865c-0.155-0.071-0.414-0.189-0.453-0.227
			c-0.017-0.087,0.07-0.361,0.123-0.525c0.135-0.425,0.289-0.907,0.035-1.318c-0.254-0.411-0.755-0.49-1.196-0.559
			c-0.169-0.027-0.452-0.071-0.501-0.097c-0.039-0.079-0.027-0.365-0.02-0.536c0.019-0.447,0.04-0.953-0.313-1.283
			c-0.352-0.329-0.855-0.275-1.296-0.228c-0.17,0.018-0.455,0.051-0.511,0.036C22.361,5.648,22.3,5.37,22.263,5.204
			c-0.096-0.436-0.205-0.931-0.631-1.162c-0.42-0.227-0.891-0.051-1.308,0.106c-0.161,0.061-0.431,0.163-0.487,0.164
			c-0.071-0.051-0.199-0.304-0.276-0.455c-0.202-0.4-0.43-0.852-0.901-0.97c-0.457-0.113-0.873,0.172-1.236,0.426
			c-0.143,0.099-0.381,0.266-0.434,0.281c-0.081-0.032-0.267-0.245-0.377-0.372C16.319,2.883,15.986,2.5,15.5,2.5
			s-0.819,0.383-1.115,0.721c-0.111,0.127-0.296,0.34-0.341,0.367c-0.089-0.01-0.327-0.176-0.47-0.276
			c-0.362-0.254-0.775-0.538-1.236-0.425c-0.47,0.117-0.699,0.57-0.901,0.969c-0.077,0.151-0.205,0.404-0.243,0.442
			c-0.079,0.008-0.358-0.089-0.521-0.151c-0.415-0.155-0.887-0.334-1.307-0.106c-0.427,0.23-0.535,0.725-0.632,1.162
			c-0.036,0.166-0.097,0.444-0.125,0.49C8.525,5.729,8.241,5.697,8.068,5.678C7.627,5.633,7.124,5.579,6.773,5.906
			C6.421,6.236,6.441,6.743,6.46,7.189c0.007,0.17,0.019,0.456,0.003,0.508C6.392,7.751,6.109,7.796,5.94,7.822
			C5.499,7.891,4.998,7.97,4.745,8.381C4.491,8.792,4.643,9.274,4.779,9.699c0.052,0.163,0.139,0.437,0.137,0.493
			c-0.054,0.07-0.313,0.188-0.468,0.259c-0.408,0.187-0.87,0.398-1.004,0.866c-0.132,0.462,0.147,0.883,0.392,1.254
			c0.096,0.144,0.256,0.386,0.269,0.441c-0.032,0.082-0.247,0.265-0.375,0.374C3.389,13.679,3,14.011,3,14.5H0.5
			C0.224,14.5,0,14.724,0,15s0.224,0.5,0.5,0.5h1.527c0.287,6.66,6.211,12,13.473,12c7.262,0,13.186-5.34,13.473-12H29.5
			c0.276,0,0.5-0.224,0.5-0.5S29.776,14.5,29.5,14.5z M4.382,14.146c0.306-0.262,0.653-0.559,0.711-0.977
			c0.059-0.425-0.195-0.81-0.421-1.15c-0.093-0.142-0.25-0.378-0.278-0.396c0.054-0.072,0.316-0.192,0.473-0.263
			c0.368-0.168,0.785-0.359,0.957-0.747c0.174-0.391,0.034-0.83-0.089-1.218C5.683,9.233,5.596,8.96,5.575,8.934
			C5.646,8.88,5.928,8.836,6.097,8.809c0.402-0.063,0.859-0.134,1.13-0.465c0.27-0.33,0.252-0.79,0.235-1.196
			C7.455,6.976,7.443,6.689,7.43,6.657c0.082-0.032,0.366-0.002,0.536,0.016c0.405,0.043,0.867,0.092,1.216-0.159
			c0.346-0.25,0.445-0.699,0.533-1.096C9.751,5.25,9.814,4.969,9.81,4.934c0.109-0.007,0.355,0.089,0.513,0.149
			c0.384,0.144,0.818,0.307,1.22,0.152c0.398-0.155,0.605-0.565,0.789-0.927c0.078-0.154,0.209-0.412,0.215-0.447
			c0.087,0.012,0.319,0.174,0.458,0.271c0.336,0.237,0.721,0.504,1.148,0.45c0.423-0.052,0.723-0.398,0.99-0.704
			c0.113-0.132,0.305-0.351,0.327-0.382c0.085,0.031,0.277,0.251,0.39,0.382c0.266,0.306,0.567,0.652,0.99,0.704
			c0.437,0.059,0.812-0.214,1.148-0.45c0.139-0.097,0.371-0.259,0.39-0.287c0.074,0.051,0.205,0.309,0.283,0.463
			c0.184,0.362,0.391,0.772,0.789,0.927c0.403,0.156,0.835-0.008,1.22-0.152c0.159-0.06,0.426-0.161,0.451-0.183
			c0.058,0.068,0.12,0.35,0.157,0.518c0.087,0.397,0.186,0.847,0.533,1.097c0.348,0.25,0.809,0.201,1.215,0.159
			c0.17-0.018,0.454-0.048,0.485-0.063c0.039,0.081,0.027,0.368,0.02,0.539c-0.017,0.406-0.036,0.866,0.235,1.197
			c0.272,0.33,0.728,0.402,1.129,0.465c0.169,0.026,0.45,0.078,0.486,0.063c0.016,0.087-0.071,0.359-0.123,0.522
			c-0.123,0.387-0.263,0.826-0.09,1.218c0.173,0.388,0.589,0.578,0.957,0.746c0.156,0.071,0.419,0.192,0.453,0.193
			c-0.009,0.087-0.165,0.323-0.259,0.465c-0.226,0.339-0.481,0.724-0.421,1.149c0.058,0.419,0.405,0.716,0.711,0.978
			c0.133,0.113,0.354,0.302,0.381,0.354h-3.025c-0.261-4.454-3.956-8-8.475-8s-8.214,3.546-8.475,8H4.018
			C4.078,14.407,4.262,14.248,4.382,14.146z M15.5,11.5c-1.759,0-3.204,1.308-3.449,3H8.025c0.259-3.903,3.507-7,7.475-7
			s7.216,3.097,7.475,7h-4.025C18.704,12.808,17.259,11.5,15.5,11.5z M17.949,14.5h-4.899c0.232-1.139,1.242-2,2.449-2
			S17.717,13.361,17.949,14.5z M15.5,26.5c-6.71,0-12.185-4.892-12.472-11h1c0.289,5.557,5.316,10,11.472,10
			c0.276,0,0.5-0.224,0.5-0.5s-0.224-0.5-0.5-0.5c-5.603,0-10.182-3.995-10.472-9h22.944C27.685,21.608,22.21,26.5,15.5,26.5z"/>
	</g>
</g>
</svg>
