<?xml version="1.0" encoding="iso-8859-1"?>
<!-- Generator: Adobe Illustrator 19.2.1, SVG Export Plug-In . SVG Version: 6.00 Build 0)  -->
<svg version="1.1" id="Layer_1" xmlns="http://www.w3.org/2000/svg" xmlns:xlink="http://www.w3.org/1999/xlink" x="0px" y="0px"
	 viewBox="0 0 30 30" style="enable-background:new 0 0 30 30;" xml:space="preserve">
<g>
	<g>
		<path d="M26,2c-1.103,0-2,0.897-2,2c0,1.103,0.897,2,2,2c1.103,0,2-0.897,2-2C28,2.897,27.103,2,26,2z M26,5c-0.552,0-1-0.449-1-1
			c0-0.551,0.448-1,1-1s1,0.449,1,1C27,4.551,26.552,5,26,5z M26,0c-2.206,0-4,1.794-4,4c0,0.12,0.009,0.237,0.022,0.354
			C22.008,4.401,22,4.45,22,4.501c0,0.636-0.91,1.544-1.764,2.075l-0.172,0.107c-1.872,1.167-3.99,2.49-9.313-0.615
			c-0.008-0.004-0.017-0.001-0.024-0.005c-0.085-0.044-0.177-0.062-0.27-0.054c-0.016,0.001-0.03,0.006-0.046,0.009
			c-0.096,0.018-0.19,0.055-0.264,0.129l-4,4c-0.195,0.195-0.195,0.512,0,0.707l0.647,0.647l-6.646,6.646
			c-0.153,0.152-0.191,0.385-0.094,0.577l0.5,1C0.638,19.893,0.811,20,1,20h2v1.5c0,0.109,0.036,0.214,0.1,0.3l1.5,2
			C4.694,23.926,4.843,24,5,24h3v2.5c0,0.133,0.052,0.26,0.146,0.354l3,3C11.244,29.951,11.372,30,11.5,30s0.256-0.049,0.353-0.146
			l6.646-6.646l0.646,0.646C19.244,23.951,19.372,24,19.5,24s0.256-0.049,0.354-0.147l4-4c0.001-0.001,0-0.001,0.001-0.002
			c0.072-0.073,0.108-0.163,0.126-0.256c0.004-0.019,0.009-0.035,0.011-0.054c0.008-0.092-0.011-0.183-0.054-0.267
			c-0.004-0.008-0.001-0.018-0.005-0.026c-3.106-5.325-1.782-7.444-0.614-9.313l0.107-0.171C23.956,8.909,24.864,8,25.5,8
			c0.048,0,0.093-0.008,0.135-0.023C25.755,7.991,25.876,8,26,8c2.206,0,4-1.794,4-4S28.206,0,26,0z M11.5,28.793l-2.5-2.5V23.5
			C9,23.224,8.776,23,8.5,23H5.25L4,21.333V19.5C4,19.224,3.776,19,3.5,19H1.309l-0.2-0.401L7.5,12.208L17.793,22.5L11.5,28.793z
			 M22.793,19.5L19.5,22.793L7.207,10.5l3.293-3.292L22.793,19.5z M26.001,7c-0.163,0-0.321-0.025-0.476-0.05
			c-0.117-0.016-0.222,0.012-0.311,0.074c-1.368,0.228-2.505,1.998-2.639,2.212L22.47,9.405c-1.038,1.661-2.275,3.665-0.735,7.624
			l-8.762-8.762c3.958,1.54,5.963,0.304,7.623-0.734l0.17-0.106c0.212-0.132,1.936-1.241,2.202-2.583
			c0.072-0.104,0.105-0.235,0.084-0.366c-0.026-0.156-0.05-0.314-0.05-0.477c0-1.654,1.346-3,3-3s3,1.346,3,3
			C29.001,5.654,27.655,7,26.001,7z"/>
	</g>
</g>
</svg>
