<?xml version="1.0" encoding="iso-8859-1"?>
<!-- Generator: Adobe Illustrator 19.2.1, SVG Export Plug-In . SVG Version: 6.00 Build 0)  -->
<svg version="1.1" id="Layer_1" xmlns="http://www.w3.org/2000/svg" xmlns:xlink="http://www.w3.org/1999/xlink" x="0px" y="0px"
	 viewBox="0 0 30 30" style="enable-background:new 0 0 30 30;" xml:space="preserve">
<g>
	<g>
		<path d="M3,25.5c-0.551,0-1,0.449-1,1c0,0.551,0.449,1,1,1c0.551,0,1-0.449,1-1C4,25.949,3.551,25.5,3,25.5z M15,6.5h4.5
			C19.776,6.5,20,6.276,20,6V1c0-0.163-0.078-0.315-0.211-0.409s-0.303-0.116-0.457-0.062c-2.225,0.795-3.977,2.733-4.808,5.318
			c-0.049,0.152-0.022,0.318,0.072,0.447C14.69,6.424,14.84,6.5,15,6.5z M19,1.758V5.5h-3.286C16.409,3.8,17.567,2.482,19,1.758z
			 M19.724,10.552c-0.247-0.123-0.546-0.024-0.671,0.224l-1.5,3c-0.123,0.247-0.023,0.547,0.224,0.671
			C17.849,14.483,17.925,14.5,18,14.5c0.183,0,0.359-0.101,0.448-0.277l1.5-3C20.071,10.976,19.971,10.676,19.724,10.552z
			 M22.224,10.552c-0.247-0.123-0.547-0.024-0.671,0.224l-1.5,3c-0.123,0.247-0.023,0.547,0.224,0.671
			c0.072,0.036,0.148,0.053,0.223,0.053c0.183,0,0.359-0.101,0.448-0.277l1.5-3C22.571,10.976,22.471,10.676,22.224,10.552z
			 M25.752,1.068c-0.155-0.091-0.346-0.092-0.501-0.002C25.096,1.155,25,1.321,25,1.5V6c0,1.132-0.892,2.5-2,2.5h-8.5
			C14.224,8.5,14,8.724,14,9c0,0.732,0.012,1.255,0.16,1.866L0.928,24.039C0.33,24.643,0,25.446,0,26.3c0,1.764,1.425,3.2,3.175,3.2
			c0.848,0,1.646-0.333,2.25-0.943l10.04-10.341c1.097-1.107,2.554-1.716,4.103-1.716H22c4.486,0,8-3.454,8-7.864
			C30,5.69,28.213,2.507,25.752,1.068z M22,15.5h-2.431c-1.818,0-3.527,0.715-4.817,2.016L4.711,27.857
			C4.3,28.271,3.755,28.5,3.175,28.5C1.976,28.5,1,27.513,1,26.3c0-0.589,0.227-1.142,0.636-1.555L15.072,11.37
			c0.13-0.13,0.179-0.322,0.126-0.498c-0.143-0.477-0.183-0.877-0.194-1.372V9.499H23c1.717,0,3-1.848,3-3.5V2.454
			c1.754,1.422,3,3.922,3,6.182C29,12.549,25.991,15.5,22,15.5z M24.724,10.552c-0.248-0.123-0.547-0.024-0.671,0.224l-1.5,3
			c-0.123,0.247-0.023,0.547,0.224,0.671C22.849,14.483,22.925,14.5,23,14.5c0.183,0,0.359-0.101,0.448-0.277l1.5-3
			C25.071,10.976,24.971,10.676,24.724,10.552z"/>
	</g>
</g>
</svg>
