<?xml version="1.0" encoding="iso-8859-1"?>
<!-- Generator: Adobe Illustrator 19.0.0, SVG Export Plug-In . SVG Version: 6.00 Build 0)  -->
<svg version="1.1" id="Layer_1" xmlns="http://www.w3.org/2000/svg" xmlns:xlink="http://www.w3.org/1999/xlink" x="0px" y="0px"
	 viewBox="0 0 24 24" style="enable-background:new 0 0 24 24;" xml:space="preserve">
<g>
	<g>
		<path d="M12,22c0.552,0,1-0.448,1-1c0-0.552-0.448-1-1-1c-0.552,0-1,0.448-1,1C11,21.552,11.448,22,12,22z M13,2h-2
			c-0.276,0-0.5,0.224-0.5,0.5S10.724,3,11,3h2c0.276,0,0.5-0.224,0.5-0.5S13.276,2,13,2z M16,0H8C6.07,0,4.5,1.57,4.5,3.5v17
			C4.5,22.43,6.07,24,8,24h8c1.93,0,3.5-1.57,3.5-3.5v-17C19.5,1.57,17.93,0,16,0z M18.5,20.5c0,1.378-1.122,2.5-2.5,2.5H8
			c-1.378,0-2.5-1.122-2.5-2.5V19h13V20.5z M10.771,13.98c-0.485-0.455-0.806-1.121-0.858-1.782c-0.021-0.259-0.238-0.46-0.499-0.46
			l-0.106-0.019l-0.055-1.068c0.144,0,0.28-0.061,0.375-0.169c0.095-0.107,0.139-0.25,0.121-0.393
			C9.703,9.723,9.63,9.063,9.63,8.847c0-0.643,0-1.308,1.853-1.326c0.102-0.001,0.203-0.033,0.286-0.093
			c0.599-0.429,1.278-0.429,1.604-0.429c0.656,0,1.094,0.182,1.34,0.557C15,7.996,14.86,8.145,14.777,8.233l-0.261,0.261
			c-0.088,0.088-0.14,0.205-0.146,0.329l-0.063,1.306c-0.007,0.136,0.053,0.28,0.146,0.379s0.233,0.168,0.369,0.169l-0.177,1.063
			c-0.261,0-0.478,0.2-0.499,0.46c-0.053,0.671-0.398,1.368-0.899,1.817c-0.138,0.123-0.196,0.313-0.151,0.493l0.245,0.98
			c0.045,0.179,0.185,0.32,0.364,0.364l2.15,0.538c0.802,0.201,1.404,0.83,1.587,1.608L6.558,17.999
			c0.183-0.777,0.785-1.406,1.586-1.608l2.15-0.538c0.179-0.045,0.32-0.185,0.364-0.364l0.256-1.023
			C10.958,14.29,10.903,14.104,10.771,13.98z M18.5,18h-0.044c-0.196-1.239-1.11-2.264-2.36-2.577l-1.859-0.465l-0.103-0.413
			c0.486-0.52,0.827-1.197,0.958-1.898c0.314-0.144,0.545-0.442,0.59-0.803l0.13-1.043c0.036-0.288-0.053-0.579-0.243-0.797
			c-0.072-0.082-0.156-0.151-0.247-0.206l0.036-0.733l0.135-0.135c0.289-0.307,0.68-0.965,0.054-1.921
			C15.246,6.549,14.624,6,13.371,6c-0.376,0-1.232,0-2.052,0.525c-2.38,0.073-2.69,1.275-2.69,2.323c0,0.207,0.04,0.614,0.076,0.932
			C8.604,9.835,8.512,9.909,8.433,9.998c-0.194,0.22-0.285,0.512-0.248,0.803l0.13,1.043c0.047,0.372,0.291,0.677,0.652,0.815
			c0.129,0.673,0.452,1.326,0.909,1.836l-0.115,0.462l-1.859,0.465C6.653,15.735,5.739,16.76,5.542,18H5.5V5h13V18z M18.5,4h-13V3.5
			C5.5,2.122,6.622,1,8,1h8c1.378,0,2.5,1.122,2.5,2.5V4z M16.02,2h-0.01c-0.276,0-0.495,0.224-0.495,0.5S15.744,3,16.02,3
			s0.5-0.224,0.5-0.5S16.296,2,16.02,2z"/>
	</g>
</g>
</svg>
