<?xml version="1.0" encoding="iso-8859-1"?>
<!-- Generator: Adobe Illustrator 18.0.0, SVG Export Plug-In . SVG Version: 6.00 Build 0)  -->
<!DOCTYPE svg PUBLIC "-//W3C//DTD SVG 1.1//EN" "http://www.w3.org/Graphics/SVG/1.1/DTD/svg11.dtd">
<svg version="1.1" id="Layer_1" xmlns="http://www.w3.org/2000/svg" xmlns:xlink="http://www.w3.org/1999/xlink" x="0px" y="0px"
	 viewBox="0 0 24 24" style="enable-background:new 0 0 24 24;" xml:space="preserve">
<g>
	<g>
		<path d="M21,24H5.221C3.644,24,2.5,22.738,2.5,21V3c0-1.598,1.505-3,3.221-3H21c0.202,0,0.385,0.122,0.462,0.309
			c0.078,0.187,0.035,0.402-0.108,0.545c-0.515,0.515-0.833,1.531-0.83,2.653c0.002,1.118,0.32,2.128,0.829,2.639
			c0.004,0.003,0.007,0.007,0.011,0.011l0,0c0,0.001-0.001,0.001,0.001,0.001l0,0c0.042,0.045,0.075,0.097,0.097,0.151
			c0.022,0.054,0.036,0.113,0.038,0.175l0,0c0,0,0,0.001,0,0.001c0,0,0,0.001,0,0.001v0c0,0.005,0,0.009,0,0.014V23.5
			C21.5,23.776,21.276,24,21,24z M3.5,6.13V21c0,0.996,0.532,2,1.721,2H20.5V7H5.721C4.879,7,4.087,6.663,3.5,6.13z M5.721,1
			C4.559,1,3.5,1.953,3.5,3v1c0,1.047,1.059,2,2.221,2h14.329c-0.708-1.431-0.708-3.569,0-5H5.721z"/>
		<path d="M20,4H5.5C5.224,4,5,3.776,5,3.5S5.224,3,5.5,3H20c0.276,0,0.5,0.224,0.5,0.5S20.276,4,20,4z"/>
	</g>
	<g>
		<path d="M12,15c-1.378,0-2.5-1.122-2.5-2.5S10.622,10,12,10s2.5,1.122,2.5,2.5S13.378,15,12,15z M12,11
			c-0.827,0-1.5,0.673-1.5,1.5S11.173,14,12,14s1.5-0.673,1.5-1.5S12.827,11,12,11z"/>
		<path d="M16,20H8c-0.276,0-0.5-0.224-0.5-0.5c0-2.738,1.392-5.5,4.5-5.5s4.5,2.762,4.5,5.5C16.5,19.776,16.276,20,16,20z
			 M8.523,19h6.953c-0.103-1.205-0.647-4-3.477-4S8.626,17.795,8.523,19z"/>
	</g>
</g>
<g>
</g>
<g>
</g>
<g>
</g>
<g>
</g>
<g>
</g>
<g>
</g>
<g>
</g>
<g>
</g>
<g>
</g>
<g>
</g>
<g>
</g>
<g>
</g>
<g>
</g>
<g>
</g>
<g>
</g>
</svg>
