<?xml version="1.0" encoding="iso-8859-1"?>
<!-- Generator: Adobe Illustrator 18.0.0, SVG Export Plug-In . SVG Version: 6.00 Build 0)  -->
<!DOCTYPE svg PUBLIC "-//W3C//DTD SVG 1.1//EN" "http://www.w3.org/Graphics/SVG/1.1/DTD/svg11.dtd">
<svg version="1.1" id="Layer_1" xmlns="http://www.w3.org/2000/svg" xmlns:xlink="http://www.w3.org/1999/xlink" x="0px" y="0px"
	 viewBox="0 0 24 24" style="enable-background:new 0 0 24 24;" xml:space="preserve">
<g>
	<g>
		<path d="M7.528,19.5C3.377,19.5,0,16.136,0,12s3.377-7.5,7.528-7.5c1.746,0,3.447,0.609,4.79,1.714
			C12.433,6.309,12.5,6.451,12.5,6.6s-0.067,0.291-0.182,0.386C10.81,8.228,9.944,10.055,9.944,12c0,1.946,0.865,3.773,2.374,5.014
			C12.433,17.109,12.5,17.25,12.5,17.4s-0.067,0.291-0.182,0.386C10.975,18.891,9.274,19.5,7.528,19.5z M7.528,5.5
			C3.928,5.5,1,8.416,1,12s2.928,6.5,6.528,6.5c1.318,0,2.605-0.399,3.685-1.134C9.764,15.958,8.944,14.035,8.944,12
			c0-2.035,0.819-3.958,2.268-5.366C10.133,5.899,8.845,5.5,7.528,5.5z"/>
		<path d="M16.472,19.5c-1.747,0-3.448-0.609-4.79-1.714C11.567,17.691,11.5,17.549,11.5,17.4s0.067-0.291,0.182-0.386
			c1.508-1.241,2.374-3.068,2.374-5.014c0-1.945-0.865-3.772-2.374-5.014C11.567,6.891,11.5,6.75,11.5,6.6s0.067-0.291,0.182-0.386
			c1.343-1.105,3.044-1.714,4.79-1.714C20.623,4.5,24,7.864,24,12S20.623,19.5,16.472,19.5z M12.787,17.366
			c1.079,0.735,2.367,1.134,3.685,1.134c3.6,0,6.528-2.916,6.528-6.5s-2.928-6.5-6.528-6.5c-1.318,0-2.605,0.399-3.685,1.134
			c1.449,1.408,2.268,3.331,2.268,5.366C15.056,14.035,14.236,15.958,12.787,17.366z"/>
	</g>
	<path d="M13.5,9.5h-12C1.224,9.5,1,9.276,1,9s0.224-0.5,0.5-0.5h12C13.776,8.5,14,8.724,14,9S13.776,9.5,13.5,9.5z"/>
	<path d="M14,11.5H1c-0.276,0-0.5-0.224-0.5-0.5s0.224-0.5,0.5-0.5h13c0.276,0,0.5,0.224,0.5,0.5S14.276,11.5,14,11.5z"/>
	<path d="M14,13.5H1c-0.276,0-0.5-0.224-0.5-0.5s0.224-0.5,0.5-0.5h13c0.276,0,0.5,0.224,0.5,0.5S14.276,13.5,14,13.5z"/>
	<path d="M13.5,15.5h-12C1.224,15.5,1,15.276,1,15s0.224-0.5,0.5-0.5h12c0.276,0,0.5,0.224,0.5,0.5S13.776,15.5,13.5,15.5z"/>
	<path d="M11,7.5H3C2.724,7.5,2.5,7.276,2.5,7S2.724,6.5,3,6.5h8c0.276,0,0.5,0.224,0.5,0.5S11.276,7.5,11,7.5z"/>
	<path d="M11.5,17.5H3c-0.276,0-0.5-0.224-0.5-0.5s0.224-0.5,0.5-0.5h8.5c0.276,0,0.5,0.224,0.5,0.5S11.776,17.5,11.5,17.5z"/>
</g>
<g>
</g>
<g>
</g>
<g>
</g>
<g>
</g>
<g>
</g>
<g>
</g>
<g>
</g>
<g>
</g>
<g>
</g>
<g>
</g>
<g>
</g>
<g>
</g>
<g>
</g>
<g>
</g>
<g>
</g>
</svg>
