<?xml version="1.0" encoding="iso-8859-1"?>
<!-- Generator: Adobe Illustrator 18.0.0, SVG Export Plug-In . SVG Version: 6.00 Build 0)  -->
<!DOCTYPE svg PUBLIC "-//W3C//DTD SVG 1.1//EN" "http://www.w3.org/Graphics/SVG/1.1/DTD/svg11.dtd">
<svg version="1.1" id="Layer_1" xmlns="http://www.w3.org/2000/svg" xmlns:xlink="http://www.w3.org/1999/xlink" x="0px" y="0px"
	 viewBox="0 0 24 24" style="enable-background:new 0 0 24 24;" xml:space="preserve">
<g>
	<g>
		<g>
			<path d="M19.5,23h-15C2.019,23,0,20.981,0,18.5v-14C0,2.019,2.019,0,4.5,0h15C21.981,0,24,2.019,24,4.5v14
				C24,20.981,21.981,23,19.5,23z M4.5,1C2.57,1,1,2.57,1,4.5v14C1,20.43,2.57,22,4.5,22h15c1.93,0,3.5-1.57,3.5-3.5v-14
				C23,2.57,21.43,1,19.5,1H4.5z"/>
			<path d="M19.5,21h-15C3.122,21,2,19.878,2,18.5v-14C2,3.122,3.122,2,4.5,2h15C20.878,2,22,3.122,22,4.5v14
				C22,19.878,20.878,21,19.5,21z M4.5,3C3.673,3,3,3.673,3,4.5v14C3,19.327,3.673,20,4.5,20h15c0.827,0,1.5-0.673,1.5-1.5v-14
				C21,3.673,20.327,3,19.5,3H4.5z"/>
		</g>
		<path d="M4.5,5C4.37,5,4.24,4.95,4.15,4.85C4.05,4.76,4,4.63,4,4.5c0-0.13,0.05-0.26,0.15-0.35c0.18-0.19,0.52-0.19,0.7,0
			C4.95,4.24,5,4.37,5,4.5c0,0.13-0.05,0.26-0.14,0.35C4.76,4.95,4.63,5,4.5,5z"/>
		<path d="M19.5,5c-0.13,0-0.26-0.05-0.35-0.14C19.05,4.76,19,4.63,19,4.5c0-0.13,0.05-0.26,0.15-0.35c0.19-0.19,0.52-0.19,0.7,0
			C19.95,4.24,20,4.37,20,4.5c0,0.13-0.05,0.26-0.15,0.35C19.76,4.95,19.63,5,19.5,5z"/>
		<path d="M19.5,19c-0.13,0-0.26-0.05-0.35-0.14c-0.1-0.1-0.15-0.23-0.15-0.36c0-0.13,0.05-0.26,0.15-0.35
			c0.18-0.19,0.52-0.19,0.7,0c0.1,0.09,0.15,0.22,0.15,0.35c0,0.13-0.05,0.26-0.15,0.35C19.76,18.95,19.63,19,19.5,19z"/>
		<path d="M4.5,19c-0.13,0-0.26-0.05-0.35-0.15C4.05,18.76,4,18.63,4,18.5c0-0.13,0.05-0.26,0.15-0.35c0.18-0.19,0.52-0.19,0.7,0
			C4.95,18.24,5,18.37,5,18.5c0,0.13-0.05,0.26-0.15,0.35C4.76,18.95,4.63,19,4.5,19z"/>
		<path d="M5.5,24C5.224,24,5,23.776,5,23.5v-1C5,22.224,5.224,22,5.5,22S6,22.224,6,22.5v1C6,23.776,5.776,24,5.5,24z"/>
		<path d="M18.5,24c-0.276,0-0.5-0.224-0.5-0.5v-1c0-0.276,0.224-0.5,0.5-0.5s0.5,0.224,0.5,0.5v1C19,23.776,18.776,24,18.5,24z"/>
	</g>
	<g>
		<path d="M5.5,13C4.673,13,4,12.327,4,11.5S4.673,10,5.5,10S7,10.673,7,11.5S6.327,13,5.5,13z M5.5,11C5.224,11,5,11.224,5,11.5
			S5.224,12,5.5,12S6,11.776,6,11.5S5.776,11,5.5,11z"/>
		<path d="M9.5,12h-3C6.224,12,6,11.776,6,11.5S6.224,11,6.5,11h3c0.276,0,0.5,0.224,0.5,0.5S9.776,12,9.5,12z"/>
	</g>
	<path d="M19.5,15h-8c-0.276,0-0.5-0.224-0.5-0.5v-6C11,8.224,11.224,8,11.5,8h8C19.776,8,20,8.224,20,8.5v6
		C20,14.776,19.776,15,19.5,15z M12,14h7V9h-7V14z"/>
	<path d="M17.5,13c-0.13,0-0.25-0.05-0.35-0.14C17.05,12.75,17,12.63,17,12.5c0-0.13,0.05-0.26,0.14-0.35c0.21-0.2,0.53-0.19,0.71,0
		c0.1,0.09,0.15,0.22,0.15,0.35c0,0.13-0.05,0.26-0.15,0.35C17.76,12.95,17.63,13,17.5,13z"/>
	<path d="M15.5,13c-0.13,0-0.26-0.05-0.35-0.15C15.05,12.76,15,12.63,15,12.5c0-0.13,0.05-0.26,0.15-0.35c0.18-0.19,0.52-0.19,0.7,0
		c0.1,0.09,0.15,0.22,0.15,0.35c0,0.13-0.05,0.26-0.15,0.35C15.76,12.95,15.63,13,15.5,13z"/>
	<path d="M13.5,13c-0.13,0-0.25-0.05-0.35-0.14c-0.1-0.1-0.15-0.23-0.15-0.36c0-0.13,0.05-0.26,0.14-0.35c0.21-0.2,0.53-0.19,0.71,0
		c0.1,0.09,0.15,0.22,0.15,0.35c0,0.13-0.05,0.26-0.15,0.35C13.76,12.95,13.63,13,13.5,13z"/>
	<path d="M17.5,11c-0.13,0-0.25-0.05-0.35-0.14c-0.1-0.1-0.15-0.23-0.15-0.36c0-0.13,0.05-0.26,0.14-0.35c0.21-0.2,0.53-0.19,0.71,0
		c0.1,0.09,0.15,0.22,0.15,0.35c0,0.13-0.05,0.26-0.15,0.35C17.76,10.95,17.63,11,17.5,11z"/>
	<path d="M15.5,11c-0.13,0-0.26-0.05-0.35-0.15C15.05,10.76,15,10.63,15,10.5c0-0.13,0.05-0.26,0.15-0.35c0.18-0.19,0.52-0.19,0.7,0
		c0.1,0.09,0.15,0.22,0.15,0.35c0,0.13-0.05,0.26-0.15,0.35C15.76,10.95,15.63,11,15.5,11z"/>
	<path d="M13.5,11c-0.13,0-0.25-0.05-0.35-0.14c-0.1-0.1-0.15-0.23-0.15-0.36c0-0.13,0.05-0.26,0.14-0.35
		c0.22-0.2,0.52-0.19,0.71-0.01c0.1,0.1,0.15,0.23,0.15,0.36c0,0.13-0.05,0.26-0.15,0.35C13.76,10.95,13.63,11,13.5,11z"/>
</g>
<g>
</g>
<g>
</g>
<g>
</g>
<g>
</g>
<g>
</g>
<g>
</g>
<g>
</g>
<g>
</g>
<g>
</g>
<g>
</g>
<g>
</g>
<g>
</g>
<g>
</g>
<g>
</g>
<g>
</g>
</svg>
