<?xml version="1.0" encoding="iso-8859-1"?>
<!-- Generator: Adobe Illustrator 19.2.1, SVG Export Plug-In . SVG Version: 6.00 Build 0)  -->
<svg version="1.1" id="Layer_1" xmlns="http://www.w3.org/2000/svg" xmlns:xlink="http://www.w3.org/1999/xlink" x="0px" y="0px"
	 viewBox="0 0 24 24" style="enable-background:new 0 0 24 24;" xml:space="preserve">
<g>
	<g>
		<path d="M6,8.5V14h12V8.5C18,7.122,19.122,6,20.5,6H22V4.5C22,3.122,20.878,2,19.5,2h-15C3.122,2,2,3.122,2,4.5V6h1.5
			C4.878,6,6,7.122,6,8.5z M22.5,7h-2C19.673,7,19,7.673,19,8.5v6c0,0.276-0.224,0.5-0.5,0.5h-13C5.224,15,5,14.776,5,14.5v-6
			C5,7.673,4.327,7,3.5,7h-2C0.673,7,0,7.673,0,8.5v10C0,19.327,0.673,20,1.5,20H2v1.5C2,21.776,2.224,22,2.5,22h4
			C6.776,22,7,21.776,7,21.5V20h10v1.5c0,0.276,0.224,0.5,0.5,0.5h4c0.276,0,0.5-0.224,0.5-0.5V20h0.5c0.827,0,1.5-0.673,1.5-1.5
			v-10C24,7.673,23.327,7,22.5,7z"/>
	</g>
</g>
</svg>
