<?xml version="1.0" encoding="utf-8"?>
<!-- Generator: Adobe Illustrator 19.0.0, SVG Export Plug-In . SVG Version: 6.00 Build 0)  -->
<svg version="1.1" id="Layer_1" xmlns="http://www.w3.org/2000/svg" xmlns:xlink="http://www.w3.org/1999/xlink" x="0px" y="0px"
	 viewBox="0 0 30 30" style="enable-background:new 0 0 30 30;" xml:space="preserve">
<g>
	<g>
		<path d="M23,0H7C5.3,0,4,1.3,4,3v3c0,1.7,1.3,3,3,3h16c1.7,0,3-1.3,3-3V3C26,1.3,24.7,0,23,0z"/>
	</g>
	<g>
		<path d="M15.5,16c-1.9,0-3.5,1.4-3.5,3.1v7.8c0,1.7,1.6,3.1,3.5,3.1s3.5-1.4,3.5-3.1v-7.8C19,17.4,17.4,16,15.5,16z"/>
	</g>
	<g>
		<path d="M13.6,13l-11-1.5c-0.9-0.2-1.6-1-1.6-2V7c0-1.1,0.9-2,2-2V4C1.3,4,0,5.3,0,7v2.5c0,1.5,1,2.8,2.4,3l11,1.5
			c0.5,0.1,1,0.5,1.3,1.1c0.3,0,0.5-0.1,0.8-0.1c0.1,0,0.2,0,0.2,0C15.4,14,14.6,13.2,13.6,13z"/>
	</g>
	<g>
		<path d="M29.5,4H27v1h2.5C29.8,5,30,4.8,30,4.5S29.8,4,29.5,4z"/>
	</g>
</g>
</svg>
