<?xml version="1.0" encoding="utf-8"?>
<!-- Generator: Adobe Illustrator 19.0.0, SVG Export Plug-In . SVG Version: 6.00 Build 0)  -->
<svg version="1.1" id="Layer_1" xmlns="http://www.w3.org/2000/svg" xmlns:xlink="http://www.w3.org/1999/xlink" x="0px" y="0px"
	 viewBox="0 0 30 30" style="enable-background:new 0 0 30 30;" xml:space="preserve">
<g>
	<g>
		<path d="M2.3,23l-0.1,0.1c-0.1,0.1-0.1,0.1-0.1,0.2l-2,6c-0.1,0.2,0,0.4,0.1,0.5C0.3,29.9,0.4,30,0.5,30c0.1,0,0.1,0,0.2,0
			l6.2-2.4L2.3,23z"/>
	</g>
	<g>
		<path d="M28.9,1.1c-1.4-1.4-3.3-1.4-4.5-0.2l-2.9,2.9l4.7,4.7c1-1,2.1-2,3.2-3.1c0.4-0.4,0.6-1,0.6-1.6C30,2.7,29.4,1.7,28.9,1.1z
			"/>
	</g>
	<g>
		<path d="M20.8,4.5L3,22.3l4.7,4.7c1-1.1,5.2-5.3,17.8-17.8L20.8,4.5z"/>
	</g>
</g>
</svg>
