<?xml version="1.0" encoding="utf-8"?>
<!-- Generator: Adobe Illustrator 19.0.0, SVG Export Plug-In . SVG Version: 6.00 Build 0)  -->
<svg version="1.1" id="Layer_1" xmlns="http://www.w3.org/2000/svg" xmlns:xlink="http://www.w3.org/1999/xlink" x="0px" y="0px"
	 viewBox="0 0 30 30" style="enable-background:new 0 0 30 30;" xml:space="preserve">
<g>
	<g>
		<path d="M17,3L17,3c-0.3,0-0.5,0.2-0.5,0.5S16.7,4,17,4c0.3,0,0.5-0.2,0.5-0.5S17.3,3,17,3z"/>
	</g>
	<g>
		<path d="M17,5L17,5c-0.3,0-0.5,0.2-0.5,0.5S16.7,6,17,6c0.3,0,0.5-0.2,0.5-0.5S17.3,5,17,5z"/>
	</g>
	<g>
		<path d="M19,1L19,1c-0.3,0-0.5,0.2-0.5,0.5S18.7,2,19,2c0.3,0,0.5-0.2,0.5-0.5S19.3,1,19,1z"/>
	</g>
	<g>
		<path d="M19,4L19,4c-0.3,0-0.5,0.2-0.5,0.5S18.7,5,19,5c0.3,0,0.5-0.2,0.5-0.5S19.3,4,19,4z"/>
	</g>
	<g>
		<path d="M16,5c0.3,0,0.5-0.2,0.5-0.5S16.3,4,16,4h0c-0.3,0-0.5,0.2-0.5,0.5S15.7,5,16,5z"/>
	</g>
	<g>
		<path d="M19,7L19,7c-0.3,0-0.5,0.2-0.5,0.5S18.7,8,19,8c0.3,0,0.5-0.2,0.5-0.5S19.3,7,19,7z"/>
	</g>
	<g>
		<path d="M21,2L21,2c-0.3,0-0.5,0.2-0.5,0.5S20.7,3,21,3c0.3,0,0.5-0.2,0.5-0.5S21.3,2,21,2z"/>
	</g>
	<g>
		<path d="M22,0L22,0c-0.3,0-0.5,0.2-0.5,0.5S21.7,1,22,1c0.3,0,0.5-0.2,0.5-0.5S22.3,0,22,0z"/>
	</g>
	<g>
		<path d="M21,6L21,6c-0.3,0-0.5,0.2-0.5,0.5S20.7,7,21,7c0.3,0,0.5-0.2,0.5-0.5S21.3,6,21,6z"/>
	</g>
	<g>
		<path d="M21,9L21,9c-0.3,0-0.5,0.2-0.5,0.5S20.7,10,21,10c0.3,0,0.5-0.2,0.5-0.5S21.3,9,21,9z"/>
	</g>
	<g>
		<path d="M23,4L23,4c-0.3,0-0.5,0.2-0.5,0.5S22.7,5,23,5c0.3,0,0.5-0.2,0.5-0.5S23.3,4,23,4z"/>
	</g>
	<g>
		<path d="M23,11L23,11c-0.3,0-0.5,0.2-0.5,0.5S22.7,12,23,12c0.3,0,0.5-0.2,0.5-0.5S23.3,11,23,11z"/>
	</g>
	<g>
		<path d="M27,4L27,4c-0.3,0-0.5,0.2-0.5,0.5S26.7,5,27,5c0.3,0,0.5-0.2,0.5-0.5S27.3,4,27,4z"/>
	</g>
	<g>
		<path d="M27,1c0.3,0,0.5-0.2,0.5-0.5S27.3,0,27,0h0c-0.3,0-0.5,0.2-0.5,0.5S26.7,1,27,1z"/>
	</g>
	<g>
		<path d="M27,8L27,8c-0.3,0-0.5,0.2-0.5,0.5S26.7,9,27,9c0.3,0,0.5-0.2,0.5-0.5S27.3,8,27,8z"/>
	</g>
	<g>
		<path d="M27,12L27,12c-0.3,0-0.5,0.2-0.5,0.5S26.7,13,27,13c0.3,0,0.5-0.2,0.5-0.5S27.3,12,27,12z"/>
	</g>
	<g>
		<path d="M25,1L25,1c-0.3,0-0.5,0.2-0.5,0.5S24.7,2,25,2c0.3,0,0.5-0.2,0.5-0.5S25.3,1,25,1z"/>
	</g>
	<g>
		<path d="M25,5L25,5c-0.3,0-0.5,0.2-0.5,0.5S24.7,6,25,6c0.3,0,0.5-0.2,0.5-0.5S25.3,5,25,5z"/>
	</g>
	<g>
		<path d="M23,8L23,8c-0.3,0-0.5,0.2-0.5,0.5S22.7,9,23,9c0.3,0,0.5-0.2,0.5-0.5S23.3,8,23,8z"/>
	</g>
	<g>
		<rect x="2.5" y="16" width="14" height="7"/>
	</g>
	<g>
		<path d="M2.5,27c0,1.7,1.3,3,3,3h8c1.7,0,3-1.3,3-3v-3h-14V27z"/>
	</g>
	<g>
		<path d="M13.5,9h-2V7H12c0.3,0,0.5-0.2,0.5-0.5v-5C12.5,1.2,12.3,1,12,1H9.5c-1.7,0-3,1.3-3,3v2.5C6.5,6.8,6.7,7,7,7h0.5v2h-2
			c-1.7,0-3,1.3-3,3v3h14v-3C16.5,10.3,15.1,9,13.5,9z M10.5,9h-2V7h2V9z"/>
	</g>
</g>
</svg>
