<?xml version="1.0" encoding="utf-8"?>
<!-- Generator: Adobe Illustrator 19.0.0, SVG Export Plug-In . SVG Version: 6.00 Build 0)  -->
<svg version="1.1" id="Layer_1" xmlns="http://www.w3.org/2000/svg" xmlns:xlink="http://www.w3.org/1999/xlink" x="0px" y="0px"
	 viewBox="0 0 30 30" style="enable-background:new 0 0 30 30;" xml:space="preserve">
<g>
	<g>
		<path d="M16,19c0.8,0,1.4,0.3,2,0.8c-0.1-1-1-1.8-2-1.8s-1.9,0.8-2,1.8C14.6,19.3,15.2,19,16,19z"/>
	</g>
	<g>
		<path d="M4,13h22c1.2,0,2.3,0.6,3,1.4V8.5c0-3-2.5-5.5-5.5-5.5h-17C3.5,3,1,5.5,1,8.5v5.9C1.7,13.6,2.8,13,4,13z"/>
	</g>
	<g>
		<path d="M8,19c0.8,0,1.4,0.3,2,0.8c-0.1-1-1-1.8-2-1.8s-1.9,0.8-2,1.8C6.6,19.3,7.2,19,8,19z"/>
	</g>
	<g>
		<circle cx="23.5" cy="20.5" r="0.5"/>
	</g>
	<g>
		<path d="M26,14H4c-1.6,0-3,1.4-3,3v7c0,1.6,1.4,3,3,3h22c1.6,0,3-1.4,3-3v-7C29,15.4,27.6,14,26,14z M11,22c0,1.7-1.3,3-3,3
			c-1.6,0-2.9-1.3-3-2.9c0,0,0,0,0,0v-2c0-1.6,1.4-3,3-3s3,1.4,3,3V22z M19,22c0,1.7-1.3,3-3,3c-1.6,0-2.9-1.3-3-2.9c0,0,0,0,0,0v-2
			c0-1.6,1.4-3,3-3s3,1.4,3,3V22z M23.5,22c-0.8,0-1.5-0.7-1.5-1.5s0.7-1.5,1.5-1.5s1.5,0.7,1.5,1.5S24.3,22,23.5,22z"/>
	</g>
</g>
</svg>
