<?xml version="1.0" encoding="utf-8"?>
<!-- Generator: Adobe Illustrator 19.0.0, SVG Export Plug-In . SVG Version: 6.00 Build 0)  -->
<svg version="1.1" id="Layer_1" xmlns="http://www.w3.org/2000/svg" xmlns:xlink="http://www.w3.org/1999/xlink" x="0px" y="0px"
	 viewBox="0 0 30 30" style="enable-background:new 0 0 30 30;" xml:space="preserve">
<g>
	<g>
		<polygon points="9.8,20 6.9,25 23.1,25 20.2,20 		"/>
	</g>
	<g>
		<rect x="12" y="12" width="6" height="3"/>
	</g>
	<g>
		<path d="M27,5H3C1.4,5,0,6.3,0,8l0,14c0,1.7,1.4,3,3,3h2.7L9,19.2C9.1,19.1,9.3,19,9.5,19h11c0.2,0,0.3,0.1,0.4,0.3l3.3,5.8H27
			c1.7,0,3-1.4,3-3l0-14C30,6.3,28.7,5,27,5z M2.1,7.1c0.2-0.2,0.5-0.2,0.7,0C2.9,7.2,3,7.4,3,7.5s0,0.3-0.2,0.3
			C2.7,7.9,2.6,8,2.5,8S2.2,7.9,2.1,7.8C2,7.7,2,7.6,2,7.5S2,7.2,2.1,7.1z M2.8,22.8C2.7,22.9,2.6,23,2.5,23s-0.3-0.1-0.4-0.2
			C2,22.7,2,22.6,2,22.5s0-0.3,0.1-0.3c0.2-0.2,0.5-0.2,0.7,0C2.9,22.2,3,22.4,3,22.5C3,22.6,2.9,22.7,2.8,22.8z M6.5,17
			C4.6,17,3,15.4,3,13.5S4.6,10,6.5,10s3.5,1.6,3.5,3.5S8.4,17,6.5,17z M19,15.5c0,0.3-0.2,0.5-0.5,0.5h-7c-0.3,0-0.5-0.2-0.5-0.5
			v-4c0-0.3,0.2-0.5,0.5-0.5h7c0.3,0,0.5,0.2,0.5,0.5V15.5z M23.5,17c-1.9,0-3.5-1.6-3.5-3.5s1.6-3.5,3.5-3.5s3.5,1.6,3.5,3.5
			S25.4,17,23.5,17z M27.8,22.8c-0.1,0.1-0.2,0.2-0.4,0.2s-0.3-0.1-0.4-0.1C27,22.7,27,22.6,27,22.5s0-0.3,0.1-0.3
			c0.2-0.2,0.5-0.2,0.7,0c0.1,0.1,0.1,0.2,0.1,0.3C28,22.6,27.9,22.7,27.8,22.8z M27.8,7.8C27.7,7.9,27.6,8,27.5,8s-0.3-0.1-0.4-0.2
			C27,7.7,27,7.6,27,7.5s0-0.3,0.1-0.3c0.2-0.2,0.5-0.2,0.7,0C27.9,7.2,28,7.4,28,7.5C28,7.6,27.9,7.7,27.8,7.8z"/>
	</g>
</g>
</svg>
