<?xml version="1.0" encoding="utf-8"?>
<!-- Generator: Adobe Illustrator 19.0.0, SVG Export Plug-In . SVG Version: 6.00 Build 0)  -->
<svg version="1.1" id="Layer_1" xmlns="http://www.w3.org/2000/svg" xmlns:xlink="http://www.w3.org/1999/xlink" x="0px" y="0px"
	 viewBox="0 0 30 30" style="enable-background:new 0 0 30 30;" xml:space="preserve">
<g>
	<g>
		<path d="M21.5,2.5c0-3.3-13-3.3-13,0S21.5,5.8,21.5,2.5z"/>
	</g>
	<g>
		<path d="M8.5,4.4c0,0.3,0,0.6,0,1C9,7.1,12.1,8,15,8s6-0.9,6.5-2.6c0-0.3,0-0.6,0-1C20.1,5.5,17.4,6,15,6S9.9,5.5,8.5,4.4z"/>
	</g>
	<g>
		<path d="M15,9c-2.4,0-5-0.6-6.4-1.8C8.8,11.1,9.3,14.9,10,18c0.8,0.5,2.5,1,5,1s4.3-0.5,5-1c0.7-3.1,1.2-6.9,1.3-10.8
			C20,8.4,17.4,9,15,9z"/>
	</g>
	<g>
		<path d="M20.1,19.1c-0.9,0.4-2.2,0.7-3.6,0.8v5.5c1.2-0.8,2.1-2.6,2.9-5.1l1.1,5.2c0,0.2,0.3,0.4,0.5,0.4c0,0,0.1,0,0.1,0
			c0.3-0.1,0.4-0.3,0.4-0.6L20.1,19.1z"/>
	</g>
	<g>
		<path d="M15.5,20c-0.2,0-0.3,0-0.5,0c-1.9,0-3.9-0.3-5.1-0.9l-1.4,6.3c-0.1,0.3,0.1,0.5,0.4,0.6c0.3,0.1,0.5-0.1,0.6-0.4l1.1-5.2
			c1,3.1,2.2,5.2,3.9,5.5v3.6c0,0.3,0.2,0.5,0.5,0.5s0.5-0.2,0.5-0.5v-3.6C15.5,25.9,15.5,20,15.5,20z"/>
	</g>
</g>
</svg>
