<?xml version="1.0" encoding="utf-8"?>
<!-- Generator: Adobe Illustrator 19.0.0, SVG Export Plug-In . SVG Version: 6.00 Build 0)  -->
<svg version="1.1" id="Layer_1" xmlns="http://www.w3.org/2000/svg" xmlns:xlink="http://www.w3.org/1999/xlink" x="0px" y="0px"
	 viewBox="-282 405.9 30 30" style="enable-background:new -282 405.9 30 30;" xml:space="preserve">
<g>
	<g>
		<path d="M-252.1,408.2c-0.1-0.2-0.3-0.3-0.4-0.3h-1.7l-0.9-1.7c-0.1-0.1-0.2-0.2-0.3-0.3c-0.1,0-0.3,0-0.4,0.1l-5,4
			c-0.1,0.1-0.2,0.2-0.2,0.4v1.8l-5.3,5.3l-0.9-3c-0.2-0.9-0.9-1.5-1.7-1.5c-0.8,0-1.5,0.6-1.8,1.5l-1.3,5.6l-9.1,4.2
			c-0.7,0.3-1,1-1,1.7c0,0.9,0.7,1.6,1.6,1.7l6.5,0.3l1,6.6c0.2,0.9,0.9,1.4,1.9,1.4c1,0,1.4-0.7,1.5-1.2l3.3-8.9l4.9-2.1
			c0.8-0.4,1.2-1,1.2-1.8c-0.1-0.8-0.7-1.4-1.6-1.6l-1.8-0.2l5.1-5.1l1.8,0c0.2,0,0.3-0.1,0.4-0.2l4-6
			C-252,408.5-252,408.3-252.1,408.2z M-271.2,429.7c-0.1,0.1-0.2,0.2-0.3,0.2c-0.1,0-0.3-0.1-0.4-0.1c-0.1-0.1-0.1-0.2-0.1-0.4
			c0-0.1,0-0.3,0.1-0.4c0.2-0.2,0.5-0.2,0.7,0c0.1,0.1,0.2,0.2,0.2,0.4C-271,429.5-271.1,429.7-271.2,429.7z M-269.1,424.2
			c-0.1,0.1-0.2,0.1-0.4,0.1s-0.3,0-0.4-0.1l-1-1c-0.2-0.2-0.2-0.5,0-0.7s0.5-0.2,0.7,0l1,1C-269,423.7-269,424.1-269.1,424.2z"/>
	</g>
</g>
</svg>
