<?xml version="1.0" encoding="utf-8"?>
<!-- Generator: Adobe Illustrator 19.0.0, SVG Export Plug-In . SVG Version: 6.00 Build 0)  -->
<svg version="1.1" id="Layer_1" xmlns="http://www.w3.org/2000/svg" xmlns:xlink="http://www.w3.org/1999/xlink" x="0px" y="0px"
	 viewBox="0 0 30 30" style="enable-background:new 0 0 30 30;" xml:space="preserve">
<g>
	<path d="M29,2h-3.4l-0.1-1.5C25.5,0.2,25.3,0,25,0h-2.6c-0.1,0-0.3,0.1-0.4,0.2c-0.1,0.1-0.1,0.2-0.1,0.4L22.1,2H7.8L8,0.6
		c0-0.1,0-0.3-0.1-0.4S7.6,0,7.5,0H5C4.7,0,4.5,0.2,4.5,0.4L4.3,2H1C0.7,2,0.5,2.2,0.5,2.5v3C0.5,5.8,0.7,6,1,6h2.9L1.5,29.4
		c0,0.1,0,0.3,0.1,0.4S1.9,30,2,30h2.5C4.8,30,5,29.8,5,29.6L7.4,6h1.1c0,0.1,0,0.2,0.1,0.3l2.9,4.8c-1.8,1.2-3,3.2-3,5.4
		c0,3.6,2.9,6.5,6.5,6.5c0.4,0,0.8,0,1.3-0.1l2.7,2.7c0.1,0.1,0.2,0.1,0.4,0.1s0.3,0,0.4-0.1c0.2-0.2,0.2-0.5,0-0.7l-2.3-2.3
		l-1.1-1.1c-0.1,0.1-0.3,0.2-0.5,0.3c0,0,0,0,0,0c-0.2,0.1-0.3,0.1-0.5,0.2l0,0C15,22,14.8,22,14.5,22c-1.7,0-3-1.3-3-3s1.3-3,3-3
		s3,1.3,3,3c0,0.6-0.2,1.2-0.6,1.7l1.4,1.4c1.9-1.1,3.2-3.2,3.2-5.6c0-2.3-1.2-4.3-3-5.4l2.4-4.8c0-0.1,0-0.1,0-0.2h1.4l2.1,23.5
		c0,0.3,0.2,0.5,0.5,0.5h2.5c0.1,0,0.3-0.1,0.4-0.2c0.1-0.1,0.1-0.2,0.1-0.4L26,6h3c0.3,0,0.5-0.2,0.5-0.5v-3C29.5,2.2,29.3,2,29,2z
		 M18,17c-0.3,0-0.5-0.2-0.5-0.5c0-1.4-1.1-2.5-2.5-2.5c-0.3,0-0.5-0.2-0.5-0.5S14.7,13,15,13c1.9,0,3.5,1.6,3.5,3.5
		C18.5,16.8,18.3,17,18,17z M17.7,10.6C16.8,10.2,15.9,10,15,10c-1,0-1.9,0.2-2.7,0.6L9.6,6h10.4L17.7,10.6z"/>
</g>
</svg>
