<?xml version="1.0" encoding="utf-8"?>
<!-- Generator: Adobe Illustrator 19.0.0, SVG Export Plug-In . SVG Version: 6.00 Build 0)  -->
<svg version="1.1" id="Layer_1" xmlns="http://www.w3.org/2000/svg" xmlns:xlink="http://www.w3.org/1999/xlink" x="0px" y="0px"
	 viewBox="0 0 30 30" style="enable-background:new 0 0 30 30;" xml:space="preserve">
<g>
	<path d="M23.6,10.5C23.1,10,22.1,10,21,10c-0.5,0-0.9,0-1.4,0C17.9,9.9,17,9.3,17,8l0-0.3c0-1.3,0-3.5-1.7-4.7
		C13.9,2.1,12.2,2,11,2V1.5v-1C11,0.2,10.8,0,10.5,0h-4C6.2,0,6,0.2,6,0.5v2C6,2.8,6.2,3,6.5,3H7v24H6.5C6.2,27,6,27.2,6,27.5v2
		C6,29.8,6.2,30,6.5,30h8c0.3,0,0.5-0.2,0.5-0.5v-2c0-0.3-0.2-0.5-0.5-0.5h-2.9l12.2-13.2c0.1-0.1,0.1-0.2,0.1-0.3v-2
		C24,11.1,23.9,10.7,23.6,10.5z M14,9.2c0.1,0.8,0.4,1.9,1.5,3c0.2,0.2,0.3,0.3,0.5,0.4v4.9c0,0,0,0.1,0,0.1l-2,2.2V9.2z M17,13.2
		c0.9,0.4,1.8,0.6,2.4,0.7L17,16.5V13.2z M12,6c0.4,0,0.7,0.2,1,0.4c0,0,0,0.1,0,0.1v14.3L11,23V6H12z"/>
</g>
</svg>
