<?xml version="1.0" encoding="utf-8"?>
<!-- Generator: Adobe Illustrator 19.0.0, SVG Export Plug-In . SVG Version: 6.00 Build 0)  -->
<svg version="1.1" id="Layer_1" xmlns="http://www.w3.org/2000/svg" xmlns:xlink="http://www.w3.org/1999/xlink" x="0px" y="0px"
	 viewBox="0 0 30 30" style="enable-background:new 0 0 30 30;" xml:space="preserve">
<g>
	<path d="M25,13.6c-1.5-1.5-4.2-1.5-5.7,0l-9,9c-1.2,1.2-3.6,1.2-4.8,0S4.8,19.5,6,18.4l2-2l2.6-2.6l0.6,0.6
		c0.1,0.1,0.2,0.1,0.4,0.1h3c0.1,0,0.3-0.1,0.4-0.1l6-6c0.2-0.2,0.2-0.5,0-0.7l-0.4-0.4L22,5.9c0.2-0.2,0.2-0.5,0-0.7l-0.2-0.2
		l0.3-0.7C22.2,4,22.2,3.8,22,3.6l-2-2c-0.2-0.2-0.4-0.2-0.6-0.1l-0.7,0.3l-0.2-0.2c-0.2-0.2-0.5-0.2-0.7,0L16.4,3L16,2.6
		c-0.2-0.2-0.5-0.2-0.7,0l-6,6C9.2,8.7,9.1,8.9,9.1,9v3c0,0.1,0.1,0.3,0.1,0.4L9.9,13l-2.6,2.6l-2,2c-1.5,1.5-2.1,4.1-0.5,5.7
		c1.6,1.6,4.6,1.6,6.2,0l9-9c1.1-1.1,3.1-1.1,4.3,0c1.2,1.2,1.2,3.1,0,4.3l-9,9c-0.2,0.2-0.2,0.5,0,0.7c0.1,0.1,0.2,0.1,0.4,0.1
		s0.3,0,0.4-0.1l9-9C26.6,17.8,26.6,15.2,25,13.6z M18.1,2.7l0.1,0.1C18.4,3,18.7,3,18.9,2.9l0.7-0.3L21,4.1l-0.3,0.7
		c-0.1,0.2-0.1,0.4,0.1,0.6l0.1,0.1l-1,1l-2.8-2.8L18.1,2.7z"/>
</g>
</svg>
