<?xml version="1.0" encoding="utf-8"?>
<!-- Generator: Adobe Illustrator 19.0.0, SVG Export Plug-In . SVG Version: 6.00 Build 0)  -->
<svg version="1.1" id="Layer_1" xmlns="http://www.w3.org/2000/svg" xmlns:xlink="http://www.w3.org/1999/xlink" x="0px" y="0px"
	 viewBox="0 0 30 30" style="enable-background:new 0 0 30 30;" xml:space="preserve">
<g>
	<g>
		<path d="M21.3,5.5c0.1,0.1,0.3,0.2,0.4,0.4c0.1,0.1,0.2,0.2,0.2,0.3c0.2,0.4,0.4,0.8,0.4,1.2c0,1.2-0.9,2.3-2.1,2.5l0,0
			c-0.1,0-0.3,0-0.4,0c-0.2,0-0.4,0-0.6-0.1L15,18h1.1h0.1v-0.1l1-2V18h7.1L22.2,5.9l1.9-3.7c0.1-0.2,0-0.5-0.2-0.7
			c-0.2-0.1-0.5,0-0.7,0.2l-1.3,2.5l0,0L21.3,5.5z"/>
	</g>
	<g>
		<circle cx="19.7" cy="7.5" r="1.5"/>
	</g>
	<g>
		<polygon points="13.2,4 13.2,18 13.9,18 16.2,13.4 16.2,4 		"/>
	</g>
	<g>
		<path d="M26.2,28.3L24.6,19h-7.8h-4H5.6l-1.8,9.4c0,0.1,0,0.3,0.1,0.4C3.9,28.9,4.1,29,4.2,29h1v0.5c0,0.3,0.2,0.5,0.5,0.5
			s0.5-0.2,0.5-0.5V29h18v0.5c0,0.3,0.2,0.5,0.5,0.5s0.5-0.2,0.5-0.5V29h0.5c0,0,0,0,0,0c0.3,0,0.5-0.2,0.5-0.5
			C26.3,28.4,26.2,28.3,26.2,28.3z M16.7,24h-3c-0.3,0-0.5-0.2-0.5-0.5s0.2-0.5,0.5-0.5h3c0.3,0,0.5,0.2,0.5,0.5S17,24,16.7,24z"/>
	</g>
	<g>
		<path d="M12.2,3.5c0-0.3,0.2-0.5,0.5-0.5h4c0.3,0,0.5,0.2,0.5,0.5v4c0-1.4,1.1-2.5,2.5-2.5c0.2,0,0.4,0,0.6,0.1l1.2-2.5l-0.4-2.2
			C21.2,0.2,21,0,20.7,0h-11C9.5,0,9.3,0.2,9.2,0.4L5.8,18h6.4L12.2,3.5L12.2,3.5z"/>
	</g>
	<g>
		<path d="M18.2,9.5c-0.6-0.5-1-1.2-1-2v3.9L18.2,9.5z"/>
	</g>
</g>
</svg>
