<?xml version="1.0" encoding="utf-8"?>
<!-- Generator: Adobe Illustrator 19.0.0, SVG Export Plug-In . SVG Version: 6.00 Build 0)  -->
<svg version="1.1" id="Layer_1" xmlns="http://www.w3.org/2000/svg" xmlns:xlink="http://www.w3.org/1999/xlink" x="0px" y="0px"
	 viewBox="0 0 30 30" style="enable-background:new 0 0 30 30;" xml:space="preserve">
<g>
	<g>
		<path d="M25.6,1.9C24.3,0.7,22.7,0,21,0c-1.6,0-3,0.6-4.2,1.6l9.2,9.2c1-1.2,1.6-2.7,1.6-4.2C27.5,4.8,26.8,3.1,25.6,1.9z"/>
	</g>
	<g>
		<path d="M18.6,19.2l-9,9c-1.1,1.1-4.2,1.1-5.3,0c-1.1-1.2-1.1-3.2,0-4.3L6,22.2l1.6,1.6C7.7,24,7.8,24,8,24s0.3-0.1,0.4-0.1
			c2.8-2.8,8.9-7.6,12-9.9c-1.8-0.1-3.4-0.9-4.7-2.2c-0.2-0.2-0.2-0.5,0-0.7s0.5-0.2,0.7,0c1.2,1.2,2.9,1.9,4.6,1.9
			c0.2,0,0.5,0,0.7,0c0,0,0,0,0,0c1.3-0.2,2.5-0.7,3.5-1.5L16,2.3c-1,1.1-1.5,2.5-1.6,4C13,8.3,7,15.8,3.6,19.2
			c-0.2,0.2-0.2,0.5,0,0.7l1.6,1.6l-1.6,1.6c-1.5,1.5-1.5,4.1,0,5.7c0.7,0.8,2,1.1,3.3,1.1c1.3,0,2.6-0.4,3.4-1.1l9-9
			c1-1,3-1.2,4.3,0c1,1.1,1.3,3.1,0,4.3l-4,4c-0.2,0.2-0.2,0.5,0,0.7s0.5,0.2,0.7,0l4-4c1.7-1.7,1.4-4.2,0-5.7
			C22.6,17.5,19.9,17.8,18.6,19.2z M12.6,14.2l1-1c0.2-0.2,0.5-0.2,0.7,0s0.2,0.5,0,0.7l-1,1C13.2,15,13.1,15,13,15s-0.3,0-0.4-0.1
			C12.4,14.7,12.4,14.4,12.6,14.2z"/>
	</g>
</g>
</svg>
