<?xml version="1.0" encoding="utf-8"?>
<!-- Generator: Adobe Illustrator 19.0.0, SVG Export Plug-In . SVG Version: 6.00 Build 0)  -->
<svg version="1.1" id="Layer_1" xmlns="http://www.w3.org/2000/svg" xmlns:xlink="http://www.w3.org/1999/xlink" x="0px" y="0px"
	 viewBox="0 0 30 30" style="enable-background:new 0 0 30 30;" xml:space="preserve">
<g>
	<g>
		<path d="M15,10c-2.8,0-5,2.2-5,5s2.2,5,5,5s5-2.2,5-5S17.8,10,15,10z M17.8,15.4l-4,2.5C13.7,18,13.6,18,13.5,18
			c-0.1,0-0.2,0-0.2-0.1c-0.2-0.1-0.3-0.3-0.3-0.4v-5c0-0.2,0.1-0.3,0.3-0.4c0.2-0.1,0.4-0.1,0.5,0l4,2.5c0.1,0.1,0.2,0.3,0.2,0.4
			S17.9,15.3,17.8,15.4z"/>
	</g>
	<g>
		<path d="M11.1,10.4C12.2,9.5,13.5,9,15,9s2.8,0.5,3.9,1.4l4.2-4.2C21,4.2,18.1,3,15,3c-3.1,0-6,1.2-8.1,3.2L11.1,10.4z"/>
	</g>
	<g>
		<path d="M10.4,18.9C9.5,17.8,9,16.5,9,15s0.5-2.8,1.4-3.9L6.2,6.9C4.2,9,3,11.9,3,15c0,3.1,1.2,6,3.2,8.1L10.4,18.9z"/>
	</g>
	<g>
		<polygon points="14,16.6 16.6,15 14,13.4 		"/>
	</g>
	<g>
		<path d="M23.2,0H6.8C3.1,0,0,3.1,0,6.8v16.4C0,26.9,3.1,30,6.8,30h16.4c3.8,0,6.8-3.1,6.8-6.8V6.8C30,3.1,26.9,0,23.2,0z M15,28
			C7.8,28,2,22.2,2,15S7.8,2,15,2s13,5.8,13,13S22.2,28,15,28z"/>
	</g>
	<g>
		<path d="M19.6,11.1c0.9,1,1.4,2.4,1.4,3.9s-0.5,2.8-1.4,3.9l4.2,4.2c2-2.1,3.2-5,3.2-8.1s-1.2-6-3.2-8.1L19.6,11.1z"/>
	</g>
	<g>
		<path d="M18.9,19.6c-1,0.9-2.4,1.4-3.9,1.4s-2.8-0.5-3.9-1.4l-4.2,4.2c2.1,2,5,3.2,8.1,3.2s6-1.2,8.1-3.2L18.9,19.6z"/>
	</g>
</g>
</svg>
