<?xml version="1.0" encoding="utf-8"?>
<!-- Generator: Adobe Illustrator 19.0.0, SVG Export Plug-In . SVG Version: 6.00 Build 0)  -->
<svg version="1.1" id="Layer_1" xmlns="http://www.w3.org/2000/svg" xmlns:xlink="http://www.w3.org/1999/xlink" x="0px" y="0px"
	 viewBox="0 0 30 30" style="enable-background:new 0 0 30 30;" xml:space="preserve">
<g>
	<g>
		<path d="M26.3,21.1C26.2,21,26,21,25.9,21l-5,1c-0.2,0-0.4,0.3-0.4,0.5v5.6C20.3,28,20.2,28,20,28c-0.9,0-1.5,0.4-1.5,1
			s0.6,1,1.5,1s1.5-0.4,1.5-1v-6.1l4-0.8v4.9C25.3,27,25.2,27,25,27c-0.9,0-1.5,0.4-1.5,1s0.6,1,1.5,1s1.5-0.4,1.5-1v-6.5
			C26.5,21.4,26.4,21.2,26.3,21.1z"/>
	</g>
	<g>
		<g>
			<path d="M15,11h-1.5v3H15c0.8,0,1.5-0.7,1.5-1.5S15.8,11,15,11z"/>
		</g>
		<g>
			<path d="M25,0H11c-0.1,0-0.1,0-0.2,0c-0.1,0-0.1,0.1-0.2,0.1l-7,7c0,0-0.1,0.1-0.1,0.2c0,0.1,0,0.1,0,0.2v19
				C3.5,26.8,3.7,27,4,27h15.5v-4.5c0-0.7,0.5-1.3,1.2-1.5l4.8-1V0.5C25.5,0.2,25.3,0,25,0z M10.5,1.7v4.8C10.5,6.8,10.3,7,10,7H5.2
				L10.5,1.7z M11.5,18.5c0,0.3-0.2,0.5-0.5,0.5s-0.5-0.2-0.5-0.5v-6.3l-1.6,2.5c-0.2,0.3-0.7,0.3-0.8,0l-1.6-2.5v6.3
				C6.5,18.8,6.3,19,6,19s-0.5-0.2-0.5-0.5v-8c0-0.2,0.1-0.4,0.4-0.5c0.2-0.1,0.4,0,0.6,0.2l2.1,3.3l2.1-3.3
				c0.1-0.2,0.3-0.3,0.6-0.2c0.2,0.1,0.4,0.3,0.4,0.5V18.5z M15,15h-1.5v3.5c0,0.3-0.2,0.5-0.5,0.5s-0.5-0.2-0.5-0.5v-8
				c0-0.3,0.2-0.5,0.5-0.5h2c1.3,0,2.5,1.2,2.5,2.5S16.3,15,15,15z M23.5,16.5c0,1.3-1.2,2.5-2.5,2.5s-2.5-1.2-2.5-2.5v-6
				c0-0.3,0.2-0.5,0.5-0.5s0.5,0.2,0.5,0.5v6c0,0.8,0.7,1.5,1.5,1.5s1.5-0.7,1.5-1.5v-6c0-0.3,0.2-0.5,0.5-0.5s0.5,0.2,0.5,0.5V16.5
				z"/>
		</g>
	</g>
</g>
</svg>
