<?xml version="1.0" encoding="utf-8"?>
<!-- Generator: Adobe Illustrator 19.0.0, SVG Export Plug-In . SVG Version: 6.00 Build 0)  -->
<svg version="1.1" id="Layer_1" xmlns="http://www.w3.org/2000/svg" xmlns:xlink="http://www.w3.org/1999/xlink" x="0px" y="0px"
	 viewBox="0 0 30 30" style="enable-background:new 0 0 30 30;" xml:space="preserve">
<g>
	<path d="M21.7,5.6L17,7.1V5.2l5.3-1.8c0.5-0.2,0.8-0.7,0.6-1.3c-0.2-0.5-0.7-0.8-1.3-0.6l-6,2C15.3,3.7,15,4.1,15,4.5V21
		c-0.6-0.3-1.4-0.5-2.2-0.5c-0.6,0-1.1,0.1-1.7,0.2c-2.7,0.7-4.5,2.9-4,5.1c0.4,1.6,2,2.7,4.2,2.7l0,0c0.6,0,1.1-0.1,1.7-0.2
		c2.5-0.7,4.2-2.6,4.1-4.6c0-0.1,0-0.1,0-0.2V9.2l5.3-1.7c0.5-0.2,0.8-0.7,0.6-1.3C22.8,5.7,22.2,5.4,21.7,5.6z"/>
</g>
</svg>
