<?xml version="1.0" encoding="utf-8"?>
<!-- Generator: Adobe Illustrator 19.0.0, SVG Export Plug-In . SVG Version: 6.00 Build 0)  -->
<svg version="1.1" id="Layer_1" xmlns="http://www.w3.org/2000/svg" xmlns:xlink="http://www.w3.org/1999/xlink" x="0px" y="0px"
	 viewBox="0 0 30 30" style="enable-background:new 0 0 30 30;" xml:space="preserve">
<g>
	<path d="M26,0H11c-0.1,0-0.1,0-0.2,0c-0.1,0-0.1,0.1-0.2,0.1l-7,7c0,0-0.1,0.1-0.1,0.2c0,0.1,0,0.1,0,0.2v22C3.5,29.8,3.7,30,4,30
		h22c0.3,0,0.5-0.2,0.5-0.5v-29C26.5,0.2,26.3,0,26,0z M10.5,1.7v4.8C10.5,6.8,10.3,7,10,7H5.2L10.5,1.7z M21.5,18.5
		c0,0.8-0.9,1.5-2,1.5s-2-0.7-2-1.5s0.9-1.5,2-1.5c0.4,0,0.7,0.1,1,0.2v-6l-7,2.6v6.7c0,0.8-0.9,1.5-2,1.5s-2-0.7-2-1.5
		s0.9-1.5,2-1.5c0.4,0,0.7,0.1,1,0.2v-5.7c0-0.2,0.1-0.4,0.3-0.5l8-3c0.2-0.1,0.3,0,0.5,0.1c0.1,0.1,0.2,0.2,0.2,0.4L21.5,18.5
		L21.5,18.5z"/>
</g>
</svg>
