<?xml version="1.0" encoding="utf-8"?>
<!-- Generator: Adobe Illustrator 19.0.0, SVG Export Plug-In . SVG Version: 6.00 Build 0)  -->
<svg version="1.1" id="Layer_1" xmlns="http://www.w3.org/2000/svg" xmlns:xlink="http://www.w3.org/1999/xlink" x="0px" y="0px"
	 viewBox="0 0 30 30" style="enable-background:new 0 0 30 30;" xml:space="preserve">
<g>
	<g>
		<path d="M20,15c0-2.8-2.2-5-5-5s-5,2.2-5,5s2.2,5,5,5S20,17.8,20,15z M14,15c0-0.6,0.4-1,1-1s1,0.4,1,1s-0.4,1-1,1S14,15.6,14,15z
			"/>
	</g>
	<g>
		<rect x="23.5" y="15.4" transform="matrix(0.7071 0.7071 -0.7071 0.7071 19.8006 -12.3013)" width="2.5" height="4.7"/>
	</g>
	<g>
		<path d="M29.8,13.9l-2.3,1.9l0.9,0.9c0.2,0.2,0.2,0.5,0,0.7l-4,4c-0.1,0.1-0.2,0.1-0.4,0.1s-0.3,0-0.4-0.1l-2.5-2.5
			c-0.2-0.2-0.2-0.5,0-0.7l4-4c0.2-0.2,0.5-0.2,0.7,0l0.9,0.9l2.2-1.8V9.7V0.5C29,0.2,28.8,0,28.5,0S28,0.2,28,0.5v7
			C25.4,3,20.6,0,15,0C6.7,0,0,6.7,0,15s6.7,15,15,15s15-6.7,15-15c0-0.4,0-0.8-0.1-1.3C29.9,13.8,29.9,13.8,29.8,13.9z M21.6,20.1
			c0.2-0.2,0.5-0.2,0.7,0s0.2,0.5,0,0.7l-1.5,1.5c-0.1,0.1-0.2,0.1-0.4,0.1s-0.3,0-0.4-0.1c-0.2-0.2-0.2-0.5,0-0.7L21.6,20.1z
			 M6.5,23.5c0.2,0.2,0.2,0.5,0,0.7c-0.1,0.1-0.2,0.1-0.4,0.1s-0.3,0-0.4-0.1C3.4,21.7,2,18.5,2,15s1.4-6.7,3.8-9.2
			c0.2-0.2,0.5-0.2,0.7,0s0.2,0.5,0,0.7C4.3,8.8,3,11.8,3,15S4.3,21.2,6.5,23.5z M9,15c0-3.3,2.7-6,6-6s6,2.7,6,6s-2.7,6-6,6
			S9,18.3,9,15z M24.2,24.2C21.8,26.6,18.4,28,15,28c-0.2,0-0.3,0-0.5,0c-0.3,0-0.5-0.2-0.5-0.5s0.3-0.5,0.5-0.5
			c3.3,0.1,6.6-1.1,9-3.5c0.2-0.2,0.5-0.2,0.7,0S24.4,24,24.2,24.2z"/>
	</g>
</g>
</svg>
