<?xml version="1.0" encoding="utf-8"?>
<!-- Generator: Adobe Illustrator 19.0.0, SVG Export Plug-In . SVG Version: 6.00 Build 0)  -->
<svg version="1.1" id="Layer_1" xmlns="http://www.w3.org/2000/svg" xmlns:xlink="http://www.w3.org/1999/xlink" x="0px" y="0px"
	 viewBox="0 0 30 30" style="enable-background:new 0 0 30 30;" xml:space="preserve">
<g id="Violine_1_">
	<g>
		<g>
			<g>
				<path d="M15.5,29c-0.1,0-0.3,0-0.4-0.1c-0.2-0.2-0.2-0.5,0-0.7l1.9-1.9v-1.8c0-0.1,0.1-0.3,0.1-0.4l12-12
					c0.1-0.1,0.4-0.2,0.5-0.1c0.2,0.1,0.3,0.3,0.3,0.5v2c0,0.1-0.1,0.3-0.1,0.4l-12,12c0,0,0,0,0,0l-2,2C15.8,29,15.6,29,15.5,29z
					 M18,24.7v0.6l11-11v-0.6L18,24.7z"/>
			</g>
		</g>
	</g>
	<g>
		<g>
			<path d="M4,22c0-1.6-1.1-2.9-2.6-3.4l-0.6-0.1C0.3,19.6,0,20.8,0,22c0,1.3,0.3,2.5,0.8,3.5l0.6-0.2C2.9,24.9,4,23.6,4,22z"/>
		</g>
		<g>
			<path d="M29.9,1.1l-1-1C28.7,0,28.5,0,28.3,0C28.1,0.1,28,0.3,28,0.5c0,0.2-0.3,0.3-0.9,0.4c-0.8,0.2-2,0.5-2.1,1.8l-0.8,0.8
				l-0.4-0.4c-0.2-0.2-0.5-0.2-0.7,0c-0.2,0.2-0.2,0.5,0,0.7l0.4,0.4l-0.3,0.3l-0.4-0.4c-0.2-0.2-0.5-0.2-0.7,0
				c-0.2,0.2-0.2,0.5,0,0.7l0.3,0.3l-4.8,4.6c-1-0.5-2-0.8-3.1-0.8c-2.1,0-4.1,1-5.3,2.8C9,12,9.1,12.3,9.3,12.5
				C9.7,12.8,10,13.4,10,14c0,0.2,0,0.5-0.1,0.7c-0.2,0.6-0.8,1.1-1.4,1.2C8.3,16,8.1,16,8,16c-0.8,0-1.6-0.5-1.9-1.3
				c-0.1-0.3-0.4-0.4-0.6-0.3c-1.8,0.6-3.2,1.7-4.2,3.2l0.3,0.1C3.6,18.2,5,20,5,22c0,2-1.4,3.8-3.3,4.3l-0.3,0.1
				C2.8,28.6,5.2,30,8,30c3.5,0,6.5-2.2,7.6-5.5c0.1-0.3,0-0.5-0.3-0.6c-0.8-0.3-1.3-1-1.3-1.9c0-0.1,0-0.3,0.1-0.5
				c0.2-0.6,0.6-1.2,1.2-1.4c0.9-0.3,1.7,0,2.2,0.6c0.2,0.2,0.5,0.2,0.7,0.1c1.7-1.2,2.8-3.2,2.8-5.3c0-1.1-0.3-2.2-0.8-3.1l4.6-4.8
				l0.3,0.3C25.2,8,25.4,8,25.5,8s0.3,0,0.4-0.1c0.2-0.2,0.2-0.5,0-0.7l-0.4-0.4l0.3-0.3l0.4,0.4C26.2,7,26.4,7,26.5,7
				s0.3,0,0.4-0.1c0.2-0.2,0.2-0.5,0-0.7l-0.4-0.4L27.2,5c1.3-0.1,1.7-1.3,1.9-2.1C29.2,2.4,29.3,2,29.5,2c0.2,0,0.4-0.1,0.5-0.3
				C30,1.5,30,1.3,29.9,1.1z M9.5,20H8c-0.3,0-0.5-0.2-0.5-0.5S7.7,19,8,19h1.3l2.4-2.4c0.2-0.2,0.5-0.2,0.7,0s0.2,0.5,0,0.7
				l-2.5,2.5C9.8,19.9,9.6,20,9.5,20z M13.4,18.4L11,20.7V22c0,0.3-0.2,0.5-0.5,0.5S10,22.3,10,22v-1.5c0-0.1,0.1-0.3,0.1-0.4
				l2.5-2.5c0.2-0.2,0.5-0.2,0.7,0S13.5,18.2,13.4,18.4z"/>
		</g>
	</g>
</g>
</svg>
