<?xml version="1.0" encoding="utf-8"?>
<!-- Generator: Adobe Illustrator 19.0.0, SVG Export Plug-In . SVG Version: 6.00 Build 0)  -->
<svg version="1.1" id="Layer_1" xmlns="http://www.w3.org/2000/svg" xmlns:xlink="http://www.w3.org/1999/xlink" x="0px" y="0px"
	 viewBox="0 0 30 30" style="enable-background:new 0 0 30 30;" xml:space="preserve">
<g>
	<g>
		<path d="M15,6.5C9.2,6.5,4.5,11.2,4.5,17S9.2,27.5,15,27.5c5.8,0,10.5-4.7,10.5-10.5C25.5,11.2,20.8,6.5,15,6.5z M19.5,15.5
			c-1.1,0-2-0.9-2-2s0.9-2,2-2s2,0.9,2,2S20.6,15.5,19.5,15.5z"/>
	</g>
	<g>
		<path d="M15,4.5c0.3,0,0.5-0.2,0.5-0.5V3c0-0.3-0.2-0.5-0.5-0.5S14.5,2.7,14.5,3v1C14.5,4.3,14.7,4.5,15,4.5z"/>
	</g>
	<g>
		<path d="M11.2,4.6c0.1,0.2,0.3,0.4,0.5,0.4c0,0,0.1,0,0.1,0c0.3-0.1,0.4-0.3,0.4-0.6l-0.3-1c-0.1-0.3-0.3-0.4-0.6-0.4
			c-0.3,0.1-0.4,0.3-0.4,0.6L11.2,4.6z"/>
	</g>
	<g>
		<path d="M8.1,6c0.1,0.2,0.3,0.3,0.4,0.3c0.1,0,0.2,0,0.2-0.1C9,6,9.1,5.7,8.9,5.5L8.4,4.6C8.3,4.4,8,4.3,7.8,4.4
			C7.5,4.6,7.4,4.9,7.6,5.1L8.1,6z"/>
	</g>
	<g>
		<path d="M5.5,8.2c0.1,0.1,0.2,0.1,0.4,0.1s0.3,0,0.4-0.1c0.2-0.2,0.2-0.5,0-0.7L5.5,6.7c-0.2-0.2-0.5-0.2-0.7,0s-0.2,0.5,0,0.7
			L5.5,8.2z"/>
	</g>
	<g>
		<path d="M4,10.1L3.1,9.6C2.9,9.4,2.6,9.5,2.4,9.8c-0.1,0.2-0.1,0.5,0.2,0.7l0.9,0.5C3.6,11,3.7,11,3.7,11c0.2,0,0.3-0.1,0.4-0.3
			C4.3,10.5,4.2,10.2,4,10.1z"/>
	</g>
	<g>
		<path d="M27.4,23.6l-0.9-0.5c-0.2-0.1-0.5-0.1-0.7,0.2c-0.1,0.2-0.1,0.5,0.2,0.7l0.9,0.5c0.1,0,0.2,0.1,0.3,0.1
			c0.2,0,0.3-0.1,0.4-0.3C27.7,24,27.6,23.7,27.4,23.6z"/>
	</g>
	<g>
		<path d="M1.3,13.9l1,0.3c0,0,0.1,0,0.1,0c0.2,0,0.4-0.1,0.5-0.4c0.1-0.3-0.1-0.5-0.4-0.6l-1-0.3C1.3,12.8,1.1,13,1,13.2
			C0.9,13.5,1.1,13.8,1.3,13.9z"/>
	</g>
	<g>
		<path d="M28.7,20.1l-1-0.3c-0.3-0.1-0.5,0.1-0.6,0.4c-0.1,0.3,0.1,0.5,0.4,0.6l1,0.3c0,0,0.1,0,0.1,0c0.2,0,0.4-0.1,0.5-0.4
			C29.1,20.5,28.9,20.2,28.7,20.1z"/>
	</g>
	<g>
		<path d="M2,17.5c0.3,0,0.5-0.2,0.5-0.5S2.3,16.5,2,16.5H1c-0.3,0-0.5,0.2-0.5,0.5s0.2,0.5,0.5,0.5H2z"/>
	</g>
	<g>
		<path d="M29,16.5l-1,0l0,0c-0.3,0-0.5,0.2-0.5,0.5c0,0.3,0.2,0.5,0.5,0.5l1,0l0,0c0.3,0,0.5-0.2,0.5-0.5
			C29.5,16.7,29.3,16.5,29,16.5z"/>
	</g>
	<g>
		<path d="M2.9,20.2c-0.1-0.3-0.3-0.4-0.6-0.4l-1,0.3c-0.3,0.1-0.4,0.3-0.4,0.6c0.1,0.2,0.3,0.4,0.5,0.4c0,0,0.1,0,0.1,0l1-0.3
			C2.8,20.8,3,20.5,2.9,20.2z"/>
	</g>
	<g>
		<path d="M27.1,13.8c0.1,0.2,0.3,0.4,0.5,0.4c0,0,0.1,0,0.1,0l1-0.3c0.3-0.1,0.4-0.3,0.4-0.6c-0.1-0.3-0.3-0.4-0.6-0.4l-1,0.3
			C27.2,13.2,27,13.5,27.1,13.8z"/>
	</g>
	<g>
		<path d="M3.5,23.1l-0.9,0.5c-0.2,0.1-0.3,0.4-0.2,0.7c0.1,0.2,0.3,0.3,0.4,0.3c0.1,0,0.2,0,0.3-0.1L4,23.9
			c0.2-0.1,0.3-0.4,0.2-0.7C4,23,3.7,22.9,3.5,23.1z"/>
	</g>
	<g>
		<path d="M26.3,11c0.1,0,0.2,0,0.2-0.1l0.9-0.5c0.2-0.1,0.3-0.4,0.2-0.7c-0.1-0.2-0.4-0.3-0.7-0.2L26,10.1
			c-0.2,0.1-0.3,0.4-0.2,0.7C25.9,10.9,26.1,11,26.3,11z"/>
	</g>
	<g>
		<path d="M24.2,8.3c0.1,0,0.3,0,0.4-0.1l0.7-0.7c0.2-0.2,0.2-0.5,0-0.7c-0.2-0.2-0.5-0.2-0.7,0l-0.7,0.7c-0.2,0.2-0.2,0.5,0,0.7
			C23.9,8.3,24.1,8.3,24.2,8.3z"/>
	</g>
	<g>
		<path d="M21.2,6.2c0.1,0,0.2,0.1,0.3,0.1c0.2,0,0.3-0.1,0.4-0.2l0.5-0.9c0.1-0.2,0.1-0.5-0.2-0.7c-0.2-0.1-0.5-0.1-0.7,0.2
			l-0.5,0.9C20.9,5.7,21,6,21.2,6.2z"/>
	</g>
	<g>
		<path d="M18.2,4.9c0,0,0.1,0,0.1,0c0.2,0,0.4-0.1,0.5-0.4l0.3-1C19.2,3.3,19,3.1,18.8,3c-0.3-0.1-0.5,0.1-0.6,0.4l-0.3,1
			C17.8,4.6,18,4.9,18.2,4.9z"/>
	</g>
</g>
</svg>
