<?xml version="1.0" encoding="iso-8859-1"?>
<!-- Generator: Adobe Illustrator 19.2.1, SVG Export Plug-In . SVG Version: 6.00 Build 0)  -->
<svg version="1.1" id="Layer_1" xmlns="http://www.w3.org/2000/svg" xmlns:xlink="http://www.w3.org/1999/xlink" x="0px" y="0px"
	 viewBox="0 0 30 30" style="enable-background:new 0 0 30 30;" xml:space="preserve">
<g>
	<g>
		<path d="M6.5,18h2C8.776,18,9,17.776,9,17.5S8.776,17,8.5,17h-2C6.224,17,6,17.224,6,17.5S6.224,18,6.5,18z M16.5,12
			c-0.276,0-0.5,0.224-0.5,0.5v1c0,0.276,0.224,0.5,0.5,0.5s0.5-0.224,0.5-0.5v-1C17,12.224,16.776,12,16.5,12z M6.5,12h2
			C8.776,12,9,11.776,9,11.5S8.776,11,8.5,11h-2C6.224,11,6,11.224,6,11.5S6.224,12,6.5,12z M27.5,8h-25C1.121,8,0,9.122,0,10.5v10
			C0,20.776,0.224,21,0.5,21H1v0.5C1,21.776,1.224,22,1.5,22S2,21.776,2,21.5V21h26v0.5c0,0.276,0.224,0.5,0.5,0.5
			s0.5-0.224,0.5-0.5V21h0.5c0.276,0,0.5-0.224,0.5-0.5v-10C30,9.122,28.879,8,27.5,8z M14,20H1v-5h13V20z M14,14H1v-3.5
			C1,9.673,1.673,9,2.5,9H14V14z M29,20H15V9h12.5c0.827,0,1.5,0.673,1.5,1.5V20z"/>
	</g>
</g>
</svg>
