<?xml version="1.0" encoding="iso-8859-1"?>
<!-- Generator: Adobe Illustrator 19.2.1, SVG Export Plug-In . SVG Version: 6.00 Build 0)  -->
<svg version="1.1" id="Layer_1" xmlns="http://www.w3.org/2000/svg" xmlns:xlink="http://www.w3.org/1999/xlink" x="0px" y="0px"
	 viewBox="0 0 30 30" style="enable-background:new 0 0 30 30;" xml:space="preserve">
<g>
	<g>
		<path d="M30,12.545c0-1.679-1.346-3.045-3-3.045V8.667C27,6.92,25.615,5.5,23.912,5.5H6.089c-1.703,0-3.088,1.421-3.088,3.167
			v0.834c0,0-0.001,0-0.001,0c-1.654,0-3,1.366-3,3.045c0,0.913,0.398,1.733,1.027,2.292C1.009,14.889,1,14.943,1,15v9
			c0,0.276,0.224,0.5,0.5,0.5h4c0.276,0,0.5-0.224,0.5-0.499V23.5h18V24c0,0.276,0.224,0.5,0.5,0.5h4c0.276,0,0.5-0.224,0.5-0.501
			v-9c0-0.057-0.009-0.111-0.027-0.162C29.602,14.278,30,13.458,30,12.545z M5,23.5H2v-8.084c0.313,0.112,0.649,0.174,1,0.174
			c0.276,0,0.5-0.224,0.5-0.5s-0.224-0.5-0.5-0.5c-1.103,0-2-0.917-2-2.045S1.897,10.5,3,10.5c1.103,0,2,0.917,2,2.045V23.5z
			 M24,22.5H6v-3h18V22.5z M24,18.5H6v-2h18V18.5z M24,12.545V15.5H6v-2.954c0-1.321-0.838-2.437-1.999-2.858V8.667
			c0-1.195,0.937-2.167,2.088-2.167h17.823C25.063,6.5,26,7.472,26,8.667v1.02C24.839,10.107,24,11.224,24,12.545z M27,14.591
			c-0.276,0-0.5,0.224-0.5,0.5s0.224,0.5,0.5,0.5c0.351,0,0.687-0.062,1-0.174V23.5h-3V12.546c0-1.128,0.897-2.045,2-2.045
			c1.103,0,2,0.917,2,2.045S28.103,14.591,27,14.591z"/>
	</g>
</g>
</svg>
