<?xml version="1.0" encoding="iso-8859-1"?>
<!-- Generator: Adobe Illustrator 19.2.1, SVG Export Plug-In . SVG Version: 6.00 Build 0)  -->
<svg version="1.1" id="Layer_1" xmlns="http://www.w3.org/2000/svg" xmlns:xlink="http://www.w3.org/1999/xlink" x="0px" y="0px"
	 viewBox="0 0 30 30" style="enable-background:new 0 0 30 30;" xml:space="preserve">
<g>
	<g>
		<path d="M21.486,10.383l-2.4-10C19.033,0.159,18.831,0,18.6,0H11.4c-0.231,0-0.432,0.158-0.486,0.383l-2.4,10
			c-0.035,0.149-0.001,0.306,0.094,0.426C8.703,10.93,8.848,11,9.001,11h5.5V26.01c-1.847,0.072-4,0.616-4,3.489
			c0,0.276,0.224,0.5,0.5,0.5h8c0.276,0,0.5-0.224,0.5-0.5c0-2.873-2.153-3.418-4-3.489V11h3v5.092c-0.581,0.207-1,0.757-1,1.408
			c0,0.827,0.673,1.5,1.5,1.5s1.5-0.673,1.5-1.5c0-0.651-0.419-1.201-1-1.408V11h1.5c0.153,0,0.295-0.07,0.39-0.19
			C21.487,10.69,21.521,10.533,21.486,10.383z M18.472,29H11.53c0.179-1.43,1.199-2,3.47-2C17.272,27,18.293,27.57,18.472,29z
			 M19.002,18c-0.275,0-0.5-0.224-0.5-0.5s0.225-0.5,0.5-0.5s0.5,0.224,0.5,0.5S19.277,18,19.002,18z M9.635,10l2.161-9h6.41
			l2.161,9H9.635z"/>
	</g>
</g>
</svg>
