<?xml version="1.0" encoding="iso-8859-1"?>
<!-- Generator: Adobe Illustrator 19.2.1, SVG Export Plug-In . SVG Version: 6.00 Build 0)  -->
<svg version="1.1" id="Layer_1" xmlns="http://www.w3.org/2000/svg" xmlns:xlink="http://www.w3.org/1999/xlink" x="0px" y="0px"
	 viewBox="0 0 30 30" style="enable-background:new 0 0 30 30;" xml:space="preserve">
<g>
	<g>
		<path d="M24.295,15c-0.231,0-0.447,0.057-0.643,0.15l-7.267-7.267l0.068-0.068c0.865-0.864,1.341-2.014,1.341-3.237
			c0-1.223-0.476-2.373-1.341-3.237C15.588,0.476,14.438,0,13.216,0S10.844,0.476,9.98,1.341L7.941,3.38
			C7.908,3.414,7.888,3.454,7.866,3.494C6.894,3.276,5.837,3.537,5.083,4.29L4.351,5.022c-0.195,0.195-0.195,0.512,0,0.707
			l1.904,1.904C5.543,8.739,5.67,10.21,6.628,11.167c0.552,0.553,1.275,0.831,2.001,0.831c0.534,0,1.066-0.155,1.534-0.457
			l2.313,2.313C12.574,13.951,12.702,14,12.83,14c0.128,0,0.256-0.049,0.353-0.146l0.732-0.732c0.566-0.566,0.879-1.32,0.879-2.121
			c0-0.439-0.102-0.86-0.28-1.247l1.164-1.164l7.267,7.267c-0.094,0.196-0.15,0.412-0.15,0.643c0,0.342,0.12,0.654,0.313,0.907
			l-8.131,6.707c-0.116,0.095-0.182,0.237-0.182,0.386V26h-2.5c-1.379,0-2.5,1.122-2.5,2.5v1c0,0.276,0.224,0.5,0.5,0.5h10
			c0.276,0,0.5-0.224,0.5-0.5v-1c0-1.378-1.121-2.5-2.5-2.5h-2.5v-1.264l8.203-6.766c0.096,0.019,0.195,0.03,0.297,0.03
			c0.827,0,1.5-0.673,1.5-1.5S25.122,15,24.295,15z M7.335,10.46C6.768,9.894,6.648,9.049,6.983,8.361l2.452,2.452
			C8.747,11.147,7.899,11.026,7.335,10.46z M13.209,12.414l-0.379,0.379l-2.263-2.263c-0.001-0.001-0.001-0.002-0.002-0.003
			L7.316,7.279L5.412,5.375l0.379-0.379c0.778-0.779,2.049-0.78,2.829,0l4.589,4.59c0.378,0.378,0.586,0.88,0.586,1.414
			S13.587,12.036,13.209,12.414z M15.419,7.436c-0.039,0.022-0.08,0.042-0.113,0.075s-0.053,0.074-0.075,0.113l-1.289,1.289
			c-0.01-0.01-0.017-0.023-0.027-0.033L9.326,4.29C9.175,4.139,9.011,4.009,8.838,3.897l1.849-1.849c1.354-1.352,3.71-1.351,5.06,0
			c0.676,0.676,1.048,1.574,1.048,2.53s-0.372,1.854-1.048,2.53L15.419,7.436z M18.295,27c0.827,0,1.5,0.673,1.5,1.5V29h-9v-0.5
			c0-0.827,0.673-1.5,1.5-1.5H18.295z M24.295,17c-0.275,0-0.5-0.224-0.5-0.5c0-0.113,0.044-0.212,0.107-0.295
			c0.019-0.014,0.041-0.021,0.059-0.039c0.017-0.017,0.025-0.04,0.039-0.059C24.084,16.044,24.183,16,24.295,16
			c0.275,0,0.5,0.224,0.5,0.5S24.57,17,24.295,17z"/>
	</g>
</g>
</svg>
