<?xml version="1.0" encoding="iso-8859-1"?>
<!-- Generator: Adobe Illustrator 19.2.1, SVG Export Plug-In . SVG Version: 6.00 Build 0)  -->
<svg version="1.1" id="Layer_1" xmlns="http://www.w3.org/2000/svg" xmlns:xlink="http://www.w3.org/1999/xlink" x="0px" y="0px"
	 viewBox="0 0 30 30" style="enable-background:new 0 0 30 30;" xml:space="preserve">
<g>
	<g>
		<path d="M28.24,8.5H28V5.4c0-1.599-1.404-2.9-3.131-2.9H5.132c-1.726,0-3.131,1.301-3.131,2.9v3.101H1.76
			c-0.971,0-1.761,0.822-1.761,1.833v13.333c0,1.011,0.79,1.833,1.761,1.833H2V27c0,0.276,0.224,0.5,0.5,0.5h5
			C7.776,27.5,8,27.276,8,27v-1.5h13.5V27c0,0.276,0.224,0.5,0.5,0.5h5c0.276,0,0.5-0.224,0.5-0.5v-1.5h0.739
			c0.971,0,1.761-0.822,1.762-1.834V10.333C30.001,9.322,29.211,8.5,28.24,8.5z M3.001,5.4c0-1.048,0.956-1.9,2.131-1.9h19.737
			C26.044,3.5,27,4.352,27,5.4v3.1h-1.239C24.79,8.5,24,9.322,24,10.333V15.5H6v-5.166c0-1.011-0.79-1.833-1.761-1.833H3.001V5.4z
			 M24,16.5v3H6v-3H24z M7,26.5H3v-1h4V26.5z M26.5,26.5h-4v-1h4V26.5z M29.001,23.666c0,0.459-0.342,0.833-0.761,0.833H1.761
			C1.341,24.499,1,24.125,1,23.666V10.333C1,9.874,1.342,9.5,1.761,9.5h2.478C4.659,9.5,5,9.874,5,10.333V20
			c0,0.276,0.224,0.5,0.5,0.5h19c0.276,0,0.5-0.224,0.5-0.5v-9.667C25,9.874,25.342,9.5,25.761,9.5h2.479
			c0.42,0,0.761,0.374,0.761,0.833V23.666z"/>
	</g>
</g>
</svg>
