<?xml version="1.0" encoding="iso-8859-1"?>
<!-- Generator: Adobe Illustrator 19.0.0, SVG Export Plug-In . SVG Version: 6.00 Build 0)  -->
<svg version="1.1" id="Layer_1" xmlns="http://www.w3.org/2000/svg" xmlns:xlink="http://www.w3.org/1999/xlink" x="0px" y="0px"
	 viewBox="0 0 24 24" style="enable-background:new 0 0 24 24;" xml:space="preserve">
<g>
	<path d="M23.757,19.071l-4.775-2.865L17.999,0.469c-0.012-0.196-0.138-0.367-0.322-0.437c-0.184-0.069-0.392-0.025-0.53,0.114
		l-1.721,1.721C14.849,1.545,13.629,1,12,1S9.151,1.545,8.574,1.867L6.854,0.146c-0.14-0.14-0.347-0.183-0.53-0.114
		c-0.184,0.07-0.31,0.24-0.322,0.437L5.018,16.206l-4.775,2.865C0.092,19.162,0,19.324,0,19.5v4C0,23.776,0.224,24,0.5,24h23
		c0.276,0,0.5-0.224,0.5-0.5v-4C24,19.324,23.908,19.162,23.757,19.071z M8.053,7.276C8.177,7.029,8.477,6.93,8.724,7.053
		l0.99,0.495C9.72,7.551,9.727,7.554,9.732,7.557l0.991,0.496c0.208,0.104,0.316,0.336,0.263,0.562S10.732,9,10.5,9h-1
		C9.224,9,9,8.776,9,8.5V8.309L8.276,7.947C8.029,7.824,7.929,7.523,8.053,7.276z M13.349,16h-2.697L8.07,14.279l0.79-3.157
		l3.003,0.858c0.09,0.025,0.185,0.025,0.274,0l3.003-0.858l0.79,3.157L13.349,16z M15.724,7.947l-0.755,0.377
		C14.989,8.379,15,8.438,15,8.5C15,8.776,14.776,9,14.5,9h-1c-0.232,0-0.434-0.16-0.487-0.385s0.056-0.458,0.263-0.562l2-1
		c0.248-0.123,0.547-0.023,0.671,0.224C16.071,7.523,15.971,7.824,15.724,7.947z"/>
	<g>
		<path d="M13,14h-2c-0.276,0-0.5-0.224-0.5-0.5S10.724,13,11,13h2c0.276,0,0.5,0.224,0.5,0.5S13.276,14,13,14z"/>
	</g>
</g>
<g>
</g>
<g>
</g>
<g>
</g>
<g>
</g>
<g>
</g>
<g>
</g>
<g>
</g>
<g>
</g>
<g>
</g>
<g>
</g>
<g>
</g>
<g>
</g>
<g>
</g>
<g>
</g>
<g>
</g>
</svg>
