<?xml version="1.0" encoding="iso-8859-1"?>
<!-- Generator: Adobe Illustrator 19.0.0, SVG Export Plug-In . SVG Version: 6.00 Build 0)  -->
<svg version="1.1" id="Layer_1" xmlns="http://www.w3.org/2000/svg" xmlns:xlink="http://www.w3.org/1999/xlink" x="0px" y="0px"
	 viewBox="0 0 24 24" style="enable-background:new 0 0 24 24;" xml:space="preserve">
<g>
	<g>
		<path d="M12,16.5c-3.309,0-6-3.477-6-7.75V6.5c0-3.309,2.691-6,6-6s6,2.691,6,6v2.25C18,13.023,15.309,16.5,12,16.5z M12,1.5
			c-2.757,0-5,2.243-5,5v2.25c0,3.722,2.243,6.75,5,6.75s5-3.028,5-6.75V6.5C17,3.743,14.757,1.5,12,1.5z"/>
	</g>
	<g>
		<circle cx="12" cy="10.5" r="0.5"/>
	</g>
	<g>
		<circle cx="10.5" cy="12" r="0.5"/>
	</g>
	<g>
		<circle cx="8.5" cy="11" r="0.5"/>
	</g>
	<g>
		<circle cx="10.5" cy="14" r="0.5"/>
	</g>
	<g>
		<path d="M19.636,16.126l-0.185-0.064c-0.179-0.062-0.38-0.018-0.516,0.116c-0.137,0.134-0.184,0.333-0.124,0.514l1.111,3.333
			c0.132,0.396,0.093,0.832-0.108,1.197c-0.2,0.365-0.546,0.632-0.95,0.733l-1.914,0.485l-0.229,0.102
			c-0.216,0.096-0.335,0.33-0.286,0.561s0.253,0.396,0.489,0.396H23.5c0.276,0,0.5-0.224,0.5-0.5v-0.734
			C24,19.501,22.246,17.034,19.636,16.126z"/>
		<path d="M11.593,19.849c0.095,0.131,0.246,0.209,0.407,0.209s0.312-0.078,0.407-0.209l1.205-1.687
			c0.119-0.167,0.124-0.39,0.013-0.563c-0.112-0.173-0.318-0.258-0.52-0.218c-0.783,0.159-1.428,0.159-2.211,0
			c-0.198-0.04-0.407,0.045-0.52,0.218c-0.111,0.172-0.106,0.396,0.013,0.563L11.593,19.849z"/>
		<path d="M7.279,22.543l-0.312-0.13l-1.832-0.458c-0.404-0.102-0.75-0.369-0.95-0.734c-0.201-0.365-0.24-0.8-0.108-1.196
			l1.111-3.333c0.06-0.181,0.013-0.38-0.124-0.514C4.929,16.044,4.727,16,4.549,16.062l-0.184,0.064C1.754,17.034,0,19.501,0,22.266
			V23c0,0.276,0.224,0.5,0.5,0.5h6.576c0.236,0,0.44-0.165,0.489-0.396S7.495,22.639,7.279,22.543z"/>
		<path d="M18.621,20.985c0.136-0.034,0.25-0.122,0.317-0.244c0.066-0.122,0.08-0.267,0.036-0.399l-1.5-4.5
			c-0.004-0.012-0.016-0.019-0.021-0.031c-0.025-0.06-0.061-0.113-0.109-0.16c-0.013-0.013-0.022-0.028-0.037-0.04
			c-0.006-0.005-0.01-0.013-0.016-0.017c-0.063-0.044-0.132-0.069-0.203-0.082c-0.005-0.001-0.009-0.005-0.014-0.006
			c-0.013-0.002-0.024,0.006-0.037,0.005c-0.068-0.005-0.135,0.004-0.199,0.026c-0.018,0.006-0.035,0.011-0.052,0.019
			c-0.074,0.035-0.142,0.082-0.194,0.154L12,22.139l-4.593-6.43c-0.051-0.071-0.119-0.118-0.192-0.153
			c-0.02-0.01-0.038-0.015-0.058-0.022c-0.063-0.021-0.127-0.029-0.193-0.024c-0.013,0.001-0.025-0.007-0.038-0.005
			c-0.005,0.001-0.009,0.005-0.014,0.006c-0.071,0.013-0.14,0.037-0.203,0.082c-0.007,0.005-0.01,0.012-0.016,0.017
			c-0.015,0.012-0.024,0.027-0.037,0.04c-0.048,0.047-0.084,0.1-0.109,0.16c-0.005,0.012-0.017,0.019-0.021,0.031l-1.5,4.5
			c-0.044,0.132-0.03,0.277,0.036,0.399c0.067,0.122,0.182,0.21,0.317,0.244l1.918,0.472l4.5,2C11.862,23.486,11.932,23.5,12,23.5
			s0.138-0.014,0.203-0.043l4.418-1.972L18.621,20.985z"/>
	</g>
	<g>
		<circle cx="13.5" cy="12" r="0.5"/>
	</g>
	<g>
		<circle cx="15.5" cy="11" r="0.5"/>
	</g>
	<g>
		<circle cx="13.5" cy="14" r="0.5"/>
	</g>
	<g>
		<circle cx="10.5" cy="3" r="0.5"/>
	</g>
	<g>
		<circle cx="9.5" cy="5" r="0.5"/>
	</g>
	<g>
		<circle cx="13.5" cy="3" r="0.5"/>
	</g>
	<g>
		<circle cx="14.5" cy="5" r="0.5"/>
	</g>
	<g>
		<path d="M9.5,9.5C8.673,9.5,8,8.827,8,8c0-1.001,0.937-1.001,1.245-1.001L9.5,7l0.255-0.001C10.062,6.999,11,6.999,11,8
			C11,8.827,10.327,9.5,9.5,9.5z M9.007,8.008C9.029,8.304,9.242,8.5,9.5,8.5c0.272,0,0.495-0.22,0.5-0.491
			c-0.048-0.006-0.124-0.01-0.245-0.01L9.5,8L9.245,7.999C9.129,7.999,9.055,8.002,9.007,8.008z"/>
	</g>
	<g>
		<path d="M14.5,9.5C13.673,9.5,13,8.827,13,8c0-1.001,0.937-1.001,1.245-1.001L14.5,7l0.255-0.001C15.062,6.999,16,6.999,16,8
			C16,8.827,15.327,9.5,14.5,9.5z M14.007,8.008C14.029,8.304,14.242,8.5,14.5,8.5c0.272,0,0.495-0.22,0.5-0.491
			c-0.048-0.006-0.124-0.01-0.245-0.01L14.5,8l-0.255-0.001C14.129,7.999,14.055,8.002,14.007,8.008z"/>
	</g>
	<g>
		<path d="M12,7c-0.076,0-0.153-0.018-0.224-0.053l-1-0.5c-0.247-0.124-0.347-0.424-0.224-0.671
			c0.125-0.248,0.424-0.345,0.671-0.224L12,5.941l0.776-0.388c0.247-0.123,0.547-0.024,0.671,0.224
			c0.123,0.247,0.023,0.547-0.224,0.671l-1,0.5C12.153,6.982,12.076,7,12,7z"/>
	</g>
</g>
<g>
</g>
<g>
</g>
<g>
</g>
<g>
</g>
<g>
</g>
<g>
</g>
<g>
</g>
<g>
</g>
<g>
</g>
<g>
</g>
<g>
</g>
<g>
</g>
<g>
</g>
<g>
</g>
<g>
</g>
</svg>
