<svg enable-background="new 0 0 19.2 19.2" viewBox="0 0 19.2 19.2" xmlns="http://www.w3.org/2000/svg"><path d="m9.7.1c-5.3 0-9.6 4.2-9.7 9.5 0 4.5 3 8.4 7.4 9.4.1 0 .2 0 .3-.1s.1-.2.1-.3v-2.3c0-.1-.1-.2-.1-.3 0 0-.1 0-.3 0h-.6c-1 0-1.7-1-2.2-1.8-.1-.1-.2-.3-.3-.4.4.2.7.5 1 .8.4.5 1 .8 1.7.9.3 0 1-.3 1-1.3v-.3c0-.2-.1-.3-.3-.3-2.3-.7-3.7-2.4-3.7-4.4 0-1.1.5-2.1 1.2-2.8v-.4c-.2-.7-.1-1.5.4-2 .5.3.9.7 1.3 1.1.1.1.3.1.4 0l.2-.1c.7-.2 1.5-.4 2.3-.5.8.1 1.6.3 2.3.6l.2.1c.1 0 .3 0 .4-.1.3-.5.7-.8 1.2-1.1.5.5.7 1.3.4 2-.3.1-.3.3-.2.4.7.7 1.2 1.7 1.2 2.7-.1 2.2-1.7 4.1-3.9 4.5-.1 0-.2.1-.2.2 0 .1-.1.2 0 .3.2.6.3 1.2.3 1.8v2.9c0 .1 0 .2.1.3.1 0 .1.1.2.1h.1c4.3-1.1 7.2-5 7.3-9.4 0-5.4-4.3-9.7-9.5-9.7z"/></svg>