<svg enable-background="new 0 0 1505.1 1012.6" viewBox="0 0 1505.1 1012.6" xmlns="http://www.w3.org/2000/svg"><path d="m1505.1 324.1-207.8-120.5-1.2-.7-163.5.8v-95.2l-187.9-108.5-940.4 340.7-3.3 1.2-1 337.5 187.8 108.4 190.2-68.6-.5 178.2 196.8 113.6 2.9 1.7 468.4-346.7 459.4-2.9v-339zm-927.8 345.4-1.4-.8h2.4zm5.5 8.6 12.6-9.3 87.7.1-100.5 73.3zm110.8-19.4-84.5-.1 84.8-62.8zm-101.5-.1h-34.5l-35.6-19.7v-144.2l172.8-62.6-.8 151.1zm-80.2 1.4-123.7 44.7.4-128.2 123.3 68.4zm-327.7 114-167.1-96.4 167.1-60.6zm-174-104.7.9-315 173.1 99.9v152.1zm940.5-654.1 164.8 95.1-164.8 59.4zm-10.1 158.2-92.1 33.2v159.1l-143.3 51.9.5-91.1-188.7 1.2-327.2 118-171.8-99.2 922.6-334.2zm181.8 260-72.6-41.9.2-56.5 72.5-.5v98.9zm-6.9 7.7-65.9 23.8.2-61.7zm-75.9-55.5-34.6-20 34.7-25.7zm5.2-60.8h-1.7l-47.7 35.3-44.8-25.9v-119.5l171.7-.9v110.4zm-104.2 7.5-82 29.7v-146.8l81.9-.4v117.5zm-57.6-127.4 57.5-20.8v20.5zm-360.9 132.9 163.1-1-163.1 121.5zm173.3 4-.5 79.5-172.9 62.6v-12.9zm-501.1 113 317.6-114.8v125.8l-56.7 42.2-260.9 94.5zm317.6 23.7v9l-23.6 8.5zm0 19.9v134.9l-119-66 67.2-50.1zm10.2 152.1 14.6 8.1h-14.6zm183-222.1 143.4-51.9v92.4l-144.3 106.7zm153.5-55.6 85.1-30.8 42.8 24.7-128 94.7v-88.6zm137.6-.6 43.4 25.1-.2 71.2-180.8 65.2v-59.7zm43.2 107.1-.2 55.6-156.2.8zm10.1-3.6 83-29.9v-111.4l156.3-1v200.3l-239.5 1.2zm243.8 68.1 188 109.2-432.3 2.8.3-110.8zm5.7-8.4v-202l195.9-1.2v317.1zm0-319.1 182.3 105.7-182.3 1.2zm-10.1-3.3v110.2l-156.3 1v-110.4zm-338.2-8.4v-24.1l171.7-61.9v85.1zm-756.4 570.1v-161.3l232.7-84.3-48.6 36.2-.4 143.1zm323.6-106h37.1l17.7 9.8-.2 71.1-184.8 134.8.5-169zm53.9 329.1-179.9-103.8 180.5-131.7zm10.1-1.3.7-241.7 121.1-88.4.4-78.1 144.3-106.8v64.6l190.7-1-.3 113.3z"/></svg>