<?xml version="1.0" encoding="utf-8"?>
<!-- Generator: Adobe Illustrator 22.0.1, SVG Export Plug-In . SVG Version: 6.00 Build 0)  -->
<svg version="1.1" id="Layer_1" xmlns="http://www.w3.org/2000/svg" xmlns:xlink="http://www.w3.org/1999/xlink" x="0px" y="0px"
	 viewBox="0 0 1960 1223.3" style="enable-background:new 0 0 1960 1223.3;" xml:space="preserve">
<style type="text/css">
	.st0{fill:none;stroke:#000000;stroke-width:0.75;stroke-miterlimit:10;}
</style>
<g>
	<g>
		<g>
			<g>
				<path d="M1490.9,1223.3c-98.9,0-190.3-23.2-254.2-60c-50.7-29.3-77.5-63.2-77.6-98.1c-0.1-39.5,32.4-78.4,96.4-115.6
					c70.5-41,153-65.1,236.2-75.3v-14.2l124.9-45.3l120.5,69.5c51.2,11,97,27.6,133.7,48.7c60.9,35.2,94,81.3,88.7,123.3l-0.4,2.7
					l-2.8,0.1l-157.5,7.4v72.4l-14.6,8.5C1692,1201,1587.9,1223.3,1490.9,1223.3z M1491.8,880.7c-82.1,10.1-163.4,34-232.9,74.4
					c-61,35.5-93.2,73.5-93.2,109.9c0,32.4,25.7,64.4,74.3,92.4c124.9,72.1,357,91.1,540.9-15.8l11.3-6.6v-68.3l-15.4,0.7l0.8-4.1
					c3.7-20-16.2-45.8-50.8-65.7c-42.1-24.3-95.4-33.7-148.9-32.1V1126l-2.4,0.7c-67,18.9-137,12.8-187.1-16.1
					c-25-14.4-37.7-30.2-37.7-47c0-19.2,16.6-38.6,49.5-57.7c25.7-14.9,57.4-27.1,91.7-35.3V880.7z M1491.8,977.3
					c-33,8.1-63.5,19.9-88.3,34.3c-30.7,17.8-46.2,35.3-46.2,52c0,14.2,11.6,28.1,34.4,41.2c46.7,27,111.4,33.4,174.4,17.5
					l-74.2-42.8V977.3z M1498.4,1075.7l72.9,42.1V965.8c-24.7,1.1-49.4,4.6-72.9,9.9V1075.7z M1589.3,958.9
					c50.8,0,100.7,9.9,140.8,33c28,16.2,56.2,42.3,54.5,68.6l7.6-0.4V923.6l-57.7-33.3c-63.3-13.5-134.8-18.5-206.9-13.1l50.3,29
					v52.9C1581.7,959,1585.5,958.9,1589.3,958.9z M1756.6,895.4l42.2,24.3v140.1l154.4-7.3c3.2-38.6-28.6-81-85.7-114
					C1836.4,920.7,1798.7,906.1,1756.6,895.4z M1498.4,880v89.1c23.5-5.2,48.2-8.6,72.9-9.7v-49.3l-55.3-31.9
					C1510.1,878.7,1504.2,879.3,1498.4,880z M1585,868.6c45.7,0,90.3,4,131.9,11.6L1616,821.9l-113.2,41.1l14.8,8.5
					C1540.2,869.5,1562.7,868.6,1585,868.6z M1498.4,868v5.4c2.6-0.3,5.3-0.6,7.9-0.9L1498.4,868z"/>
			</g>
			<g>
				<path class="st0" d="M1616.3,1033.6"/>
			</g>
		</g>
		<g>
			<g>
				<path d="M1490.9,1008c-98.9,0-190.3-23.2-254.2-60c-50.7-29.3-77.5-63.2-77.6-98.1c-0.1-39.5,32.4-78.4,96.4-115.6
					c192-111.6,473.1-98.6,615.2-16.6c60.9,35.2,94,81.3,88.7,123.3l-0.4,2.7l-2.8,0.1l-179.5,8.4l0.8-4.1
					c3.7-20-16.2-45.8-50.8-65.7c-92.8-53.6-240.1-34.5-323.4,13.9c-30.7,17.8-46.2,35.3-46.2,52c0,14.2,11.6,28.1,34.4,41.2
					c48.6,28.1,116.7,33.9,182,15.5l1.8,6.4c-67,18.9-137,12.8-187.1-16.1c-25-14.4-37.7-30.2-37.7-47c0-19.2,16.6-38.6,49.5-57.7
					c84.9-49.3,235.2-68.7,330-13.9c28,16.2,56.2,42.3,54.5,68.6l168.6-7.9c3.2-38.6-28.6-81-85.7-114
					c-140.5-81.1-418.6-93.8-608.6,16.6c-61,35.5-93.2,73.5-93.2,109.9c0,32.4,25.7,64.4,74.3,92.4c124.9,72.1,357,91.1,540.9-15.8
					l13-7.5l3.3,5.7l-13,7.5C1692,985.6,1587.9,1008,1490.9,1008z"/>
			</g>
		</g>
		<g>
			<path class="st0" d="M542.2,751"/>
		</g>
		<g>
			<path d="M1046.5,753c-24.9,0-50.1-2.4-74.9-7.8l1.4-6.5c97.2,21.1,200.8-4.5,260.5-39.2c34.7-20.2,53-41.7,53-62.3
				c0-17.7-13.7-34.6-40.7-50.2l-211.1-121.9L425.4,686l-2.3-6.2L1035.3,458l1.3,0.8l212.4,122.6c29.1,16.8,43.9,35.6,44,55.9
				c0,23.1-19.4,46.6-56.3,68C1191.2,731.8,1120.6,753,1046.5,753z"/>
		</g>
		<g>
			<path class="st0" d="M663.5,821"/>
		</g>
		<g>
			<path d="M790.3,898.5l-130.7-75.5V712.1l-117.6,42.5l-121-69.8V465.2l2.2-0.8l612.1-221.7l1.3,0.8l212.4,122.6
				c29.1,16.8,43.9,35.6,44,55.9c0,23.1-19.4,46.6-56.3,68c-59.9,34.8-163.5,60.6-261.2,40.7v61.7l40.9-14.8l68.5,39.5
				c6.7,3.9,10.1,8.4,10.1,13.6c0,6.5-5.4,12.8-16.5,19.2c-25.6,14.9-75.4,26.8-103,14.9v78.6l-1.2,1L790.3,898.5z M668.8,820.7
				l120.8,69.8l179.3-150v-79l-66.3-38.3v-33.7L844,638.5v44.8L668.8,820.7z M666.2,709.7v104.6l171.2-134.2v-36.1l-46.5,39
				l-19.7-11.3L666.2,709.7z M427.6,681l115,66.4l117-42.3v-101l175.2-137.2l-35.5-20.5L539,537.6l-111.4-64.3V681z M666.2,611.4
				v91.3l97.6-35.3L666.2,611.4z M779.4,668.8l10.8,6.2l47.2-39.6V473.2l-168.6,132l103.1,59.3l26-9.4l2.2,6.2L779.4,668.8z
				 M975.5,657.6c24.4,13.1,75.1,1,99.7-13.3c11.5-6.7,13.2-11.3,13.2-13.5c0-3.2-3.7-6.1-6.8-7.8l-65.8-38l-40.3,14.6V657.6z
				 M913.7,621.9l55.2,31.9v-51.9L913.7,621.9z M799.9,439.1l44,25.4v165.4l58.6-49.2V403.6l113.9-41.2l68.5,39.5
				c6.7,3.9,10.1,8.4,10.1,13.6c0,6.5-5.4,12.8-16.5,19.2c-26.9,15.6-80.7,28.1-107.2,12.8l-62.2-35.9v163.6l62.2-52.1l1.6,0.3
				c97.2,21.1,200.8-4.5,260.5-39.2c34.7-20.2,53-41.7,53-62.3c0-17.7-13.7-34.6-40.7-50.2L1034.7,250L432.1,468.2l107.6,62.1
				L799.9,439.1z M909.2,583.9v32.6l59.7-21.6v-61.1L909.2,583.9z M913.7,406.6l61,35.2c24.1,13.9,75.6,1.7,100.6-12.8
				c11.5-6.7,13.2-11.3,13.2-13.5c0-3.2-3.7-6.1-6.8-7.8l-65.8-38L913.7,406.6z"/>
		</g>
		<g>
			<polygon points="375.7,659.1 373.8,658.1 245.7,584.1 246.4,368 454,213.2 458,218.5 252.9,371.3 252.4,580.3 375.2,651.3 
				678.4,426.9 679.5,426.9 973.1,425 973.1,214.7 841.9,138.7 555.6,140.1 555.6,133.5 843.6,132 979.7,210.9 979.7,431.6 
				680.6,433.5 			"/>
		</g>
		<g>
			<polygon points="376.3,443.6 248.1,372.5 251.3,366.7 375.8,435.8 679,211.4 680.1,211.4 976.3,209.5 976.4,216.1 681.2,218 			
				"/>
		</g>
		<g>
			<polygon points="974.7,431.2 841.9,354 552.3,355.5 552.3,134.5 732.8,69.4 735,75.6 558.9,139.1 558.9,348.8 843.6,347.4 
				844.4,347.8 978,425.5 			"/>
		</g>
		<g>
			<polygon points="122.3,512.8 0,442.2 0.6,222.5 2.8,221.8 614.9,0 737.2,70.6 737.2,290.1 556.7,355.2 554.5,349 730.6,285.5 
				730.6,74.4 614.3,7.3 7.2,227.2 6.6,438.4 122.9,505.6 335.4,428.8 337.6,435 			"/>
		</g>
		<g>
			<rect x="119.9" y="293.7" width="6.6" height="212.2"/>
		</g>
		<g>
			<polygon points="4.4,443.5 2.2,437.2 614.9,215.3 735.5,285 732.2,290.7 614.3,222.6 			"/>
		</g>
		<g>
			<rect x="572.1" y="319.2" transform="matrix(2.604158e-03 -1 1 2.604158e-03 355.5851 1001.4445)" width="215.5" height="6.6"/>
		</g>
		<g>
			<polygon points="251,584.9 247.1,579.6 451.5,430.4 452.7,219.2 337.1,219.9 122.9,297.3 2.3,227.7 5.6,222 123.5,290.1 
				336.5,213.3 459.3,212.5 458.1,433.8 456.7,434.8 			"/>
		</g>
		<g>
			<polygon points="454.8,435.4 333.2,435.2 333.2,216.6 339.8,216.6 339.8,428.6 454.8,428.8 			"/>
		</g>
		<g>
			<rect x="268" y="544.2" transform="matrix(2.604158e-03 -1 1 2.604158e-03 -172.6732 921.7898)" width="215.5" height="6.6"/>
		</g>
		<g>
			<rect x="538.9" y="534" width="6.6" height="217"/>
		</g>
		<g>
			<polygon points="839,684.6 796.3,660.1 796.3,442.7 802.9,442.7 802.9,656.3 842.3,678.9 			"/>
		</g>
		<g>
			<rect x="682.5" y="783.5" transform="matrix(2.604158e-03 -1 1 2.604158e-03 1.434 1574.9861)" width="215.5" height="6.6"/>
		</g>
		<g>
			<rect x="1012.5" y="366" width="6.6" height="212.8"/>
		</g>
		<g>
			<rect x="1088.4" y="415.6" width="6.6" height="215.5"/>
		</g>
		<g>
			<rect x="1286.4" y="418.6" width="6.6" height="220.2"/>
		</g>
		<g>
			<path d="M955.8,994.1l-121.6-70.6V703.8l2.2-0.8l612.2-221.7l121.6,70.6v219.7l-2.2,0.8L955.8,994.1z M840.7,919.7l115.7,67.1
				l607.1-219.9V555.6l-115.7-67.1L840.7,708.4V919.7z"/>
		</g>
		<g>
			<polygon points="956.4,778.6 835.8,709 839.1,703.2 957,771.3 1565.7,550.6 1567.9,556.8 			"/>
		</g>
		<g>
			<rect x="953.4" y="775" width="6.6" height="215.5"/>
		</g>
		<g>
			<polygon points="838.6,924.7 836.3,918.5 1448.5,696.6 1568.4,766.3 1565.1,772.1 1447.8,703.8 			"/>
		</g>
		<g>
			<rect x="1777.4" y="851.3" width="6.6" height="215.3"/>
		</g>
		<g>
			<polygon points="1793.8,1139.9 1616,1037.2 1496.2,1080.7 1493.9,1074.5 1616.6,1029.9 1618,1030.7 1797.2,1134.2 			"/>
		</g>
		<g>
			<rect x="1953.4" y="836.3" width="6.6" height="215.3"/>
		</g>
		<g>
			<rect x="1159.1" y="848.1" width="6.6" height="221.4"/>
		</g>
		<g>
			<polygon points="1357.1,1060.7 1350.4,1060.7 1350.7,845.6 1357.4,845.6 			"/>
		</g>
	</g>
	<g>
		<rect x="609.7" y="3.6" width="6.6" height="217.8"/>
	</g>
	<g>
		<rect x="839.4" y="135.3" width="6.6" height="215.3"/>
	</g>
	<g>
		<rect x="1031.7" y="246.3" width="6.6" height="215.3"/>
	</g>
	<g>
		<rect x="1444.8" y="484.9" width="6.6" height="215.3"/>
	</g>
	<g>
		<rect x="1613" y="818.2" width="6.6" height="215.3"/>
	</g>
</g>
</svg>
