<?xml version="1.0" encoding="UTF-8"?>
<svg data-name="Twitter w/ circle" viewBox="0 0 19.2 19.2" xmlns="http://www.w3.org/2000/svg">
<path transform="translate(-.4 -.4)" d="M10,.4A9.6,9.6,0,1,0,19.6,10,9.6,9.6,0,0,0,10,.4Zm3.9,7.86a2.18,2.18,0,0,1,0,.25A5.38,5.38,0,0,1,5.63,13a3.39,3.39,0,0,0,.45,0,3.76,3.76,0,0,0,2.35-.81,1.88,1.88,0,0,1-1.76-1.31A2,2,0,0,0,7,11a2.08,2.08,0,0,0,.5-.07A1.89,1.89,0,0,1,6,9.06V9a1.94,1.94,0,0,0,.86.24A1.88,1.88,0,0,1,6,7.7a1.93,1.93,0,0,1,.25-1,5.38,5.38,0,0,0,3.9,2,2,2,0,0,1-.05-.43A1.89,1.89,0,0,1,12,6.4a1.86,1.86,0,0,1,1.38.6,4,4,0,0,0,1.2-.46,1.87,1.87,0,0,1-.83,1,3.58,3.58,0,0,0,1.09-.29A3.81,3.81,0,0,1,13.9,8.26Z"/>
</svg>
