<?xml version="1.0" encoding="utf-8"?>
<!-- Generator: Adobe Illustrator 19.0.0, SVG Export Plug-In . SVG Version: 6.00 Build 0)  -->
<svg version="1.1" id="Layer_1" xmlns="http://www.w3.org/2000/svg" xmlns:xlink="http://www.w3.org/1999/xlink" x="0px" y="0px"
	 viewBox="0 0 30 30" style="enable-background:new 0 0 30 30;" xml:space="preserve">
<g id="XMLID_67_">
	<g id="XMLID_69_">
		<path d="M16.4,18c-0.2,0-0.4-0.2-0.5-0.4l-0.7-3.7l-2.3,3.9c-0.1,0.2-0.3,0.3-0.5,0.2c-3.5-0.6-5.4-2-5.4-4c0-2.8,2.5-4.9,4.6-6.8
			c1.7-1.5,3.4-2.9,3.4-4.2V0.5c0-0.2,0.1-0.4,0.3-0.4c0.2-0.1,0.4-0.1,0.5,0C16,0.3,23.9,5.6,23.9,12C23.9,15,21.1,17.3,16.4,18
			C16.4,18,16.4,18,16.4,18z M15.9,1.5V3c0,1.8-1.8,3.4-3.7,5c-2.1,1.8-4.3,3.7-4.3,6c0,1.9,2.5,2.6,4.2,2.9l2.8-4.7
			c0.1-0.2,0.3-0.3,0.5-0.2c0.2,0,0.4,0.2,0.4,0.4l0.9,4.5c3-0.6,6.1-2.1,6.1-4.9C22.9,7.3,17.8,3,15.9,1.5z"/>
	</g>
	<g>
		<g>
			<path d="M8.7,30c-0.2,0-0.4-0.1-0.4-0.3l-1.8-3.5c-0.1-0.1-0.1-0.3,0-0.4s0.1-0.2,0.3-0.3l3-1.4c0.1-0.1,0.3-0.1,0.4,0l5.3,1.9
				c0.2,0.1,0.3,0.2,0.3,0.4c0,0.2-0.1,0.4-0.3,0.5l-6.4,3C8.8,30,8.7,30,8.7,30z M7.6,26.2l1.3,2.6l4.9-2.3l-3.9-1.4L7.6,26.2z"/>
		</g>
		<g>
			<path d="M20.2,24.6c-0.1,0-0.1,0-0.2,0l-5.3-1.9c-0.2-0.1-0.3-0.2-0.3-0.4c0-0.2,0.1-0.4,0.3-0.5l7.9-3.7c0.2-0.1,0.5,0,0.7,0.2
				l1.8,3.5c0.1,0.1,0.1,0.3,0,0.4c0,0.1-0.1,0.2-0.3,0.3l-4.4,2.1C20.3,24.6,20.2,24.6,20.2,24.6z M16.2,22.2l3.9,1.4l3.7-1.8
				l-1.3-2.6L16.2,22.2z"/>
		</g>
	</g>
	<g id="XMLID_68_">
		<path d="M23.4,30c-0.1,0-0.1,0-0.2,0l-18-6.5c-0.3-0.1-0.4-0.4-0.3-0.6l1.3-3.8c0-0.1,0.1-0.2,0.3-0.3c0.1-0.1,0.3-0.1,0.4,0
			l18,6.5c0.3,0.1,0.4,0.4,0.3,0.6l-1.3,3.8c0,0.1-0.1,0.2-0.3,0.3C23.5,30,23.4,30,23.4,30z M6,22.7l17.1,6.2L24,26L6.9,19.9
			L6,22.7z"/>
	</g>
</g>
</svg>
