<?xml version="1.0" encoding="utf-8"?>
<!-- Generator: Adobe Illustrator 19.0.0, SVG Export Plug-In . SVG Version: 6.00 Build 0)  -->
<svg version="1.1" id="Layer_1" xmlns="http://www.w3.org/2000/svg" xmlns:xlink="http://www.w3.org/1999/xlink" x="0px" y="0px"
	 viewBox="0 0 30 30" style="enable-background:new 0 0 30 30;" xml:space="preserve">
<g>
	<g>
		<path d="M23.8,30c-0.4,0-0.8-0.1-1.1-0.4l-2.5-1.7c-0.7-0.6-0.8-1.4-0.5-2.2c0.1-0.2,0.3-0.5,0.4-0.8c1.2-2.3,3.4-6.4,3.4-9.5
			c0-4.6-2.2-9.5-8.5-9.5s-8.5,4.9-8.5,9.5c0,3.1,2.3,7.5,3.4,9.6l0.3,0.6c0.4,0.7,0.2,1.6-0.4,2.1c0,0-0.1,0-0.1,0.1l-3.1,1.7
			c-0.4,0.3-0.9,0.4-1.4,0.4c-0.5-0.1-0.9-0.4-1.2-0.8l-2.3-2.6c-0.4-0.6-0.4-1.2-0.1-1.8l0.7-1.5c0.1-0.2,0.1-0.5,0-0.7
			c-0.9-1.6-1.9-4.7-1.9-8.3C0.5,5,8,0,15,0c7.1,0,14.5,5.4,14.5,14.5c0,3.6-1,6.6-1.9,8.2c-0.1,0.2-0.1,0.5,0,0.7l0.7,1.1
			c0.3,0.6,0.3,1.2-0.1,1.8c0,0,0,0.1-0.1,0.1l-2.9,2.9c-0.3,0.4-0.7,0.7-1.2,0.7C24,30,23.9,30,23.8,30z M15,1
			C8.5,1,1.5,5.6,1.5,14.3c0,3.5,1,6.4,1.8,7.8c0.3,0.5,0.3,1.1,0,1.6l-0.7,1.5c-0.1,0.2-0.1,0.5,0,0.7l2.3,2.6
			C5,28.8,5.2,29,5.4,29c0.2,0,0.4,0,0.6-0.2c0,0,0.1,0,0.1-0.1l3.1-1.7c0.2-0.2,0.3-0.6,0.1-0.9L9,25.6c-1.2-2.4-3.5-6.7-3.5-10.1
			C5.5,10.4,8,5,15,5s9.5,5.4,9.5,10.5c0,3.3-2.3,7.6-3.5,10c-0.2,0.3-0.3,0.5-0.4,0.8c-0.2,0.3-0.1,0.7,0.2,0.9l2.5,1.7
			c0.2,0.2,0.4,0.2,0.6,0.2c0.2,0,0.4-0.2,0.5-0.3c0,0,0-0.1,0.1-0.1l2.9-2.9c0.1-0.2,0.1-0.5,0-0.7l-0.7-1.1
			c-0.3-0.6-0.3-1.2,0-1.7c0.3-0.5,1.8-3.4,1.8-7.8C28.5,6.1,21.6,1,15,1z"/>
	</g>
	<g>
		<path d="M5,8.1C4.9,8.1,4.8,8,4.7,8C4.5,7.8,4.4,7.5,4.6,7.3C5.9,5.4,7.7,4,9.8,3.1c0.3-0.1,0.5,0,0.7,0.3c0.1,0.3,0,0.5-0.3,0.7
			c-2,0.8-3.7,2.2-4.8,3.9C5.3,8,5.1,8.1,5,8.1z"/>
	</g>
	<g>
		<path d="M4.6,21.9c-0.2,0-0.3-0.1-0.4-0.3c-0.6-1-1.6-3.7-1.6-7c0-0.3,0.2-0.5,0.5-0.5c0.3,0,0.5,0.2,0.5,0.5
			c0.1,3.2,1,5.6,1.5,6.5c0.1,0.2,0.1,0.5-0.2,0.7C4.8,21.8,4.7,21.9,4.6,21.9z"/>
	</g>
	<g>
		<circle cx="4" cy="11.5" r="0.5"/>
	</g>
	<g>
		<circle cx="15" cy="2.5" r="0.5"/>
	</g>
	<g>
		<path d="M25.1,8.1c-0.2,0-0.3-0.1-0.4-0.2c-1.2-1.7-2.8-3-4.8-3.9c-0.3-0.1-0.4-0.4-0.3-0.7c0.1-0.3,0.4-0.4,0.7-0.3
			c2.2,0.9,4,2.4,5.3,4.2c0.2,0.2,0.1,0.5-0.1,0.7C25.3,8,25.2,8.1,25.1,8.1z"/>
	</g>
	<g>
		<path d="M25.5,21.9c-0.1,0-0.2,0-0.2-0.1c-0.2-0.1-0.3-0.4-0.2-0.7c0.5-0.9,1.5-3.4,1.5-6.5c0-0.3,0.2-0.5,0.5-0.5c0,0,0,0,0,0
			c0.3,0,0.5,0.2,0.5,0.5c-0.1,3.3-1.1,6-1.6,7C25.8,21.8,25.6,21.9,25.5,21.9z"/>
	</g>
	<g>
		<circle cx="26" cy="11.5" r="0.5"/>
	</g>
</g>
</svg>
