<?xml version="1.0" encoding="utf-8"?>
<!-- Generator: Adobe Illustrator 19.0.0, SVG Export Plug-In . SVG Version: 6.00 Build 0)  -->
<svg version="1.1" id="Layer_1" xmlns="http://www.w3.org/2000/svg" xmlns:xlink="http://www.w3.org/1999/xlink" x="0px" y="0px"
	 viewBox="0 0 30 30" style="enable-background:new 0 0 30 30;" xml:space="preserve">
<g>
	<g>
		<path d="M26.5,27c-0.1,0-0.3,0-0.4-0.1l-9-9c-0.2-0.2-0.2-0.5,0-0.7s0.5-0.2,0.7,0l9,9c0.2,0.2,0.2,0.5,0,0.7
			C26.8,27,26.6,27,26.5,27z"/>
	</g>
	<g>
		<path d="M29.5,30h-5c-0.1,0-0.3-0.1-0.4-0.1L23.3,29h-1.8c-0.3,0-0.5-0.2-0.5-0.5v-2.3L18.3,24h-1.8c-0.3,0-0.5-0.2-0.5-0.5v-2.3
			l-1.1-1.1l-1.2,0.8c-0.2,0.1-0.5,0.1-0.6-0.1l-1-1.1C5.7,21.2,0,16.2,0,10V9.9C0,4.4,4.4,0,9.9,0H10c5.5,0,10,4.5,10,10
			c0,0.7-0.1,1.4-0.2,2.2l1.1,1c0.1,0.1,0.2,0.2,0.2,0.4c0,0.1-0.1,0.3-0.1,0.4l-0.6,0.6l9.6,9.6c0.1,0.1,0.1,0.2,0.1,0.4v5
			C30,29.8,29.8,30,29.5,30z M24.7,29H29v-4.3l-9.9-9.9c-0.2-0.2-0.2-0.5,0-0.7l0.6-0.6l-0.9-0.8c-0.1-0.1-0.2-0.3-0.1-0.5
			c0.2-0.7,0.3-1.5,0.3-2.2c0-5-4-9-9-9c0,0-0.1,0-0.1,0C5,1,1,5,1,9.9c0,0,0,0.1,0,0.1c0,5,4,9,9,9c0.7,0,1.5-0.1,2.2-0.3
			c0.2,0,0.4,0,0.5,0.1l0.9,1l1.1-0.8c0.2-0.1,0.5-0.1,0.6,0.1l1.5,1.5c0.1,0.1,0.1,0.2,0.1,0.4v2h1.5c0.1,0,0.2,0,0.3,0.1l3,2.5
			c0.1,0.1,0.2,0.2,0.2,0.4v2h1.5c0.1,0,0.3,0.1,0.4,0.1L24.7,29z"/>
	</g>
	<g>
		<path d="M6.5,9C5.1,9,4,7.9,4,6.5S5.1,4,6.5,4S9,5.1,9,6.5S7.9,9,6.5,9z M6.5,5C5.7,5,5,5.7,5,6.5S5.7,8,6.5,8S8,7.3,8,6.5
			S7.3,5,6.5,5z"/>
	</g>
</g>
</svg>
