<?xml version="1.0" encoding="utf-8"?>
<!-- Generator: Adobe Illustrator 19.0.0, SVG Export Plug-In . SVG Version: 6.00 Build 0)  -->
<svg version="1.1" id="Layer_1" xmlns="http://www.w3.org/2000/svg" xmlns:xlink="http://www.w3.org/1999/xlink" x="0px" y="0px"
	 viewBox="0 0 30 30" style="enable-background:new 0 0 30 30;" xml:space="preserve">
<g>
	<g>
		<path d="M0.5,30c-0.1,0-0.3,0-0.4-0.1c-0.2-0.2-0.2-0.5,0-0.7L25.9,0.7c0.9-0.9,2.5-0.9,3.4,0l0,0c0.9,0.9,0.9,2.4,0,3.4L0.8,29.9
			C0.7,30,0.6,30,0.5,30z M27.6,1c-0.4,0-0.7,0.1-1,0.4L7.7,22.3l20.9-19c0.5-0.5,0.5-1.4,0-1.9C28.3,1.1,28,1,27.6,1z"/>
	</g>
	<g>
		<path d="M25.7,4.8c-0.1,0-0.3,0-0.4-0.1c-0.2-0.2-0.2-0.5,0-0.7l1.3-1.3c0.2-0.2,0.5-0.2,0.7,0s0.2,0.5,0,0.7l-1.3,1.3
			C26,4.7,25.8,4.8,25.7,4.8z"/>
	</g>
	<g>
		<path d="M13.7,14.2c-0.1,0-0.2,0-0.3-0.1c-0.2-0.1-4.6-3.5-4.6-8c0-4,2.4-6.2,6.8-6.2c2.9,0,6,0.2,9.1,2c0.2,0.1,0.3,0.4,0.2,0.7
			c-0.1,0.2-0.4,0.3-0.7,0.2C21.3,1.2,18.4,1,15.6,1C13,1,9.8,1.9,9.8,6.2c0,4,4.2,7.1,4.2,7.2c0.2,0.2,0.3,0.5,0.1,0.7
			C14,14.2,13.9,14.2,13.7,14.2z"/>
	</g>
	<g>
		<path d="M25.7,14.9c-0.3,0-0.5-0.2-0.5-0.4c0-0.3,0.2-0.5,0.4-0.6c2.2-0.3,3.3-1.8,3.3-4.5c0-1.5-1.1-3.4-3-5.3
			c-0.2-0.2-0.2-0.5,0-0.7s0.5-0.2,0.7,0c2.2,2.2,3.3,4.2,3.3,6C30,12.6,28.5,14.6,25.7,14.9C25.8,14.9,25.7,14.9,25.7,14.9z"/>
	</g>
	<g>
		<path d="M14.4,30c-0.3,0-0.5-0.2-0.5-0.5s0.2-0.5,0.5-0.5c7.1,0,9.6-3,9.6-5.8c0-2.1-3.5-4.3-6-5.9c-0.7-0.5-1.4-0.9-2-1.3
			c-0.2-0.2-0.3-0.5-0.1-0.7c0.2-0.2,0.5-0.3,0.7-0.1c0.5,0.4,1.2,0.8,1.9,1.3c2.9,1.8,6.5,4.1,6.5,6.7C25,26.3,22.2,30,14.4,30z"/>
	</g>
</g>
</svg>
