<?xml version="1.0" encoding="iso-8859-1"?>
<!-- Generator: Adobe Illustrator 19.0.0, SVG Export Plug-In . SVG Version: 6.00 Build 0)  -->
<svg version="1.1" id="Layer_1" xmlns="http://www.w3.org/2000/svg" xmlns:xlink="http://www.w3.org/1999/xlink" x="0px" y="0px"
	 viewBox="0 0 30 30" style="enable-background:new 0 0 30 30;" xml:space="preserve">
<g>
	<g>
		<path d="M11.862,16.061c-0.195-0.195-0.512-0.195-0.707,0L5.2,22.016c-1.033,0.149-2.123,0.737-3.018,1.633
			c-1.751,1.751-2.208,4.039-1.039,5.208c0.437,0.437,1.03,0.647,1.693,0.647c1.111,0,2.418-0.589,3.515-1.686
			c0.896-0.896,1.483-1.985,1.633-3.018l5.955-5.955c0.195-0.195,0.195-0.512,0-0.707L11.862,16.061z M18.138,13.939
			c0.098,0.098,0.226,0.146,0.354,0.146s0.256-0.049,0.354-0.146l5.955-5.955c1.033-0.149,2.123-0.737,3.018-1.633
			c1.751-1.751,2.208-4.039,1.039-5.208c-1.168-1.168-3.457-0.712-5.208,1.039c-0.896,0.896-1.483,1.985-1.633,3.018l-5.955,5.955
			c-0.195,0.195-0.195,0.512,0,0.707L18.138,13.939z M24.8,22.016L7.984,5.2C7.835,4.167,7.247,3.077,6.351,2.182
			C4.6,0.431,2.312-0.026,1.143,1.143S0.43,4.6,2.182,6.351C3.078,7.247,4.167,7.834,5.2,7.984L22.016,24.8
			c0.149,1.033,0.737,2.123,1.633,3.018c1.097,1.097,2.403,1.686,3.515,1.686c0.663,0,1.256-0.21,1.693-0.647
			c1.169-1.169,0.713-3.457-1.039-5.208C26.922,22.753,25.833,22.165,24.8,22.016z"/>
	</g>
</g>
</svg>
