<?xml version="1.0" encoding="iso-8859-1"?>
<!-- Generator: Adobe Illustrator 19.0.0, SVG Export Plug-In . SVG Version: 6.00 Build 0)  -->
<svg version="1.1" id="Layer_1" xmlns="http://www.w3.org/2000/svg" xmlns:xlink="http://www.w3.org/1999/xlink" x="0px" y="0px"
	 viewBox="0 0 30 30" style="enable-background:new 0 0 30 30;" xml:space="preserve">
<g>
	<g>
		<path d="M19.481,14.29L18.185,2.974C18.062,1.306,16.665,0,14.997,0c-1.66,0-3.057,1.306-3.178,2.954L10.521,14.29
			C8.112,15.792,6.5,18.458,6.5,21.5c0,3.076,1.489,5.778,4,7.289V29.5c0,0.276,0.224,0.5,0.5,0.5h8c0.276,0,0.5-0.224,0.5-0.5
			v-0.711c2.511-1.511,4-4.213,4-7.289C23.502,18.458,21.89,15.792,19.481,14.29z M12.409,26.993
			c-0.092,0.165-0.262,0.258-0.438,0.258c-0.082,0-0.166-0.02-0.242-0.063c-2.021-1.12-3.228-3.246-3.228-5.688
			c0-0.276,0.224-0.5,0.5-0.5s0.5,0.224,0.5,0.5c0,2.073,1.014,3.872,2.712,4.813C12.455,26.447,12.543,26.751,12.409,26.993z"/>
	</g>
</g>
</svg>
