<?xml version="1.0" encoding="iso-8859-1"?>
<!-- Generator: Adobe Illustrator 19.0.0, SVG Export Plug-In . SVG Version: 6.00 Build 0)  -->
<svg version="1.1" id="Layer_1" xmlns="http://www.w3.org/2000/svg" xmlns:xlink="http://www.w3.org/1999/xlink" x="0px" y="0px"
	 viewBox="0 0 30 30" style="enable-background:new 0 0 30 30;" xml:space="preserve">
<g>
	<g>
		<path d="M28.965,1.036C27.6-0.33,25.39-0.344,24.087,0.963L11.088,10.998c-0.018,0.014-0.027,0.034-0.042,0.05
			c-0.015,0.015-0.035,0.023-0.048,0.04L0.981,24.063c-1.326,1.352-1.305,3.543,0.054,4.902c0.694,0.694,1.606,1.039,2.506,1.039
			c0.872,0,1.732-0.324,2.374-0.967l12.95-10.084c0.017-0.013,0.025-0.033,0.04-0.048c0.014-0.015,0.034-0.023,0.047-0.039
			L28.995,5.963C30.345,4.612,30.331,2.402,28.965,1.036z M28.247,5.3l-9.736,12.503l-6.361-6.361l12.597-9.73
			c0.96-0.958,2.534-0.946,3.512,0.031C29.234,2.719,29.247,4.294,28.247,5.3z"/>
	</g>
</g>
</svg>
