<?xml version="1.0" encoding="iso-8859-1"?>
<!-- Generator: Adobe Illustrator 19.0.0, SVG Export Plug-In . SVG Version: 6.00 Build 0)  -->
<svg version="1.1" id="Layer_1" xmlns="http://www.w3.org/2000/svg" xmlns:xlink="http://www.w3.org/1999/xlink" x="0px" y="0px"
	 viewBox="0 0 30 30" style="enable-background:new 0 0 30 30;" xml:space="preserve">
<g>
	<g>
		<path d="M20,13c0,0.276,0.224,0.5,0.5,0.5S21,13.276,21,13c0-0.948-0.244-1.651-0.48-2.331C20.264,9.934,20,9.174,20,8
			c0-0.955,0.166-1.292,0.377-1.719C20.669,5.69,21,5.019,21,3c0-0.276-0.224-0.5-0.5-0.5S20,2.724,20,3
			c0,1.786-0.265,2.321-0.52,2.839C19.244,6.318,19,6.812,19,8c0,1.343,0.306,2.222,0.574,2.997C19.803,11.654,20,12.221,20,13z
			 M25,13c0,0.276,0.224,0.5,0.5,0.5S26,13.276,26,13c0-0.948-0.244-1.651-0.48-2.331C25.264,9.934,25,9.174,25,8
			c0-0.955,0.166-1.292,0.377-1.719C25.669,5.69,26,5.019,26,3c0-0.276-0.224-0.5-0.5-0.5S25,2.724,25,3
			c0,1.786-0.265,2.321-0.52,2.839C24.244,6.318,24,6.812,24,8c0,1.343,0.306,2.222,0.574,2.997C24.803,11.654,25,12.221,25,13z
			 M29.5,14.5h-29C0.224,14.5,0,14.724,0,15v1c0,6.341,5.159,11.5,11.5,11.5h7C24.841,27.5,30,22.341,30,16v-1
			C30,14.724,29.776,14.5,29.5,14.5z M11.5,25.5c-4.848,0-8.906-3.63-9.441-8.445c-0.03-0.274,0.167-0.521,0.441-0.552
			c0.284-0.026,0.522,0.167,0.553,0.442C3.531,21.252,7.162,24.5,11.5,24.5c0.276,0,0.5,0.224,0.5,0.5S11.776,25.5,11.5,25.5z
			 M15,13c0,0.276,0.224,0.5,0.5,0.5S16,13.276,16,13c0-0.948-0.244-1.651-0.48-2.331C15.264,9.934,15,9.174,15,8
			c0-0.955,0.166-1.292,0.377-1.719C15.669,5.69,16,5.019,16,3c0-0.276-0.224-0.5-0.5-0.5S15,2.724,15,3
			c0,1.786-0.265,2.321-0.52,2.839C14.244,6.318,14,6.812,14,8c0,1.343,0.306,2.222,0.574,2.997C14.803,11.654,15,12.221,15,13z
			 M10,13c0,0.276,0.224,0.5,0.5,0.5S11,13.276,11,13c0-0.948-0.244-1.651-0.48-2.331C10.264,9.934,10,9.174,10,8
			c0-0.955,0.166-1.292,0.377-1.719C10.669,5.69,11,5.019,11,3c0-0.276-0.224-0.5-0.5-0.5S10,2.724,10,3
			c0,1.786-0.265,2.321-0.52,2.839C9.244,6.318,9,6.812,9,8c0,1.343,0.306,2.222,0.574,2.997C9.803,11.654,10,12.221,10,13z M5,13
			c0,0.276,0.224,0.5,0.5,0.5S6,13.276,6,13c0-0.948-0.244-1.651-0.48-2.331C5.264,9.934,5,9.174,5,8
			c0-0.95,0.173-1.286,0.392-1.711C5.698,5.696,6.044,5.024,6.044,3c0-0.276-0.224-0.5-0.5-0.5s-0.5,0.224-0.5,0.5
			c0,1.781-0.275,2.315-0.541,2.831C4.256,6.311,4,6.808,4,8c0,1.343,0.306,2.222,0.574,2.997C4.803,11.654,5,12.221,5,13z"/>
	</g>
</g>
</svg>
