<?xml version="1.0" encoding="iso-8859-1"?>
<!-- Generator: Adobe Illustrator 19.0.0, SVG Export Plug-In . SVG Version: 6.00 Build 0)  -->
<svg version="1.1" id="Layer_1" xmlns="http://www.w3.org/2000/svg" xmlns:xlink="http://www.w3.org/1999/xlink" x="0px" y="0px"
	 viewBox="0 0 24 24" style="enable-background:new 0 0 24 24;" xml:space="preserve">
<g>
	<g>
		<path d="M14.25,11h7c0.276,0,0.5-0.224,0.5-0.5s-0.224-0.5-0.5-0.5h-7c-0.276,0-0.5,0.224-0.5,0.5S13.974,11,14.25,11z M14.25,8h3
			c0.276,0,0.5-0.224,0.5-0.5S17.526,7,17.25,7h-3c-0.276,0-0.5,0.224-0.5,0.5S13.974,8,14.25,8z M10.148,17H2.25
			c-0.827,0-1.5-0.673-1.5-1.5V4h22v9.813c0,0.276,0.224,0.5,0.5,0.5s0.5-0.224,0.5-0.5V2.5c0-1.379-1.121-2.5-2.5-2.5h-19
			c-1.379,0-2.5,1.121-2.5,2.5v13c0,1.379,1.121,2.5,2.5,2.5h7.898c0.277,0,0.5-0.224,0.5-0.5S10.424,17,10.148,17z M0.75,2.5
			c0-0.827,0.673-1.5,1.5-1.5h19c0.827,0,1.5,0.673,1.5,1.5V3h-22V2.5z M18.75,19h-2c-0.276,0-0.5,0.224-0.5,0.5s0.224,0.5,0.5,0.5
			h2c0.276,0,0.5-0.224,0.5-0.5S19.026,19,18.75,19z M21.25,6.913h-2c-0.276,0-0.5,0.224-0.5,0.5s0.224,0.5,0.5,0.5h2
			c0.276,0,0.5-0.224,0.5-0.5S21.526,6.913,21.25,6.913z M23.575,17.38c0.07-0.059,0.675-0.6,0.675-1.38
			c0-0.418-0.311-0.71-0.756-0.71c-0.251,0-0.681,0.129-1.051,0.342c-0.489-1.032-1.289-1.947-1.862-2.232
			c-0.379-0.189-1.67-0.4-2.831-0.4s-2.452,0.211-2.832,0.4c-0.571,0.285-1.371,1.2-1.861,2.232
			c-0.371-0.213-0.801-0.342-1.052-0.342c-0.19,0-0.353,0.049-0.484,0.148C11.347,15.569,11.25,15.769,11.25,16
			c0,0.78,0.606,1.321,0.675,1.38c0.054,0.046,0.116,0.075,0.18,0.095c-0.239,0.664-0.355,1.399-0.355,2.025
			c0,0.747,0.069,2.021,0.5,2.672V23c0,0.561,0.439,1,1,1h1c0.561,0,1-0.439,1-1v-0.339C15.854,22.812,16.796,23,17.75,23
			s1.896-0.188,2.5-0.339V23c0,0.561,0.439,1,1,1h1c0.561,0,1-0.439,1-1v-0.828c0.431-0.651,0.5-1.925,0.5-2.672
			c0-0.626-0.116-1.362-0.355-2.025C23.459,17.455,23.521,17.426,23.575,17.38z M15.363,14.296C15.55,14.21,16.617,14,17.75,14
			s2.2,0.21,2.384,0.294c0.379,0.19,1.259,1.187,1.609,2.274C20.803,16.7,18.581,17,17.75,17c-0.831,0-3.054-0.3-3.994-0.432
			C14.106,15.481,14.986,14.484,15.363,14.296z M12.539,16.585c-0.032-0.032-0.081-0.084-0.139-0.169
			c0.066,0.031,0.129,0.066,0.188,0.101C12.572,16.54,12.555,16.562,12.539,16.585z M14.249,23.001h-1V22.5h1V23.001z M22.25,23h-1
			v-0.5h1V23z M22.48,21.5h-1.73c-0.053,0-0.106,0.009-0.158,0.025C20.578,21.53,19.146,22,17.75,22s-2.828-0.47-2.843-0.473
			c-0.013-0.004-0.027,0-0.041-0.003c-0.038-0.009-0.075-0.023-0.116-0.023h-1.732c-0.131-0.299-0.269-0.988-0.269-1.999
			c0-0.159,0.012-0.328,0.03-0.499c0.672,0.019,1.471,0.246,1.471,0.498c0,0.276,0.224,0.5,0.5,0.5s0.5-0.224,0.5-0.5
			c0-1.222-1.65-1.447-2.275-1.489c0.056-0.183,0.123-0.355,0.199-0.517c0.001,0,0.002,0.001,0.003,0.001
			C13.317,17.516,16.618,18,17.75,18s4.433-0.484,4.573-0.505c0.001,0,0.001-0.001,0.002-0.001c0.076,0.162,0.143,0.334,0.199,0.517
			c-0.625,0.042-2.274,0.268-2.274,1.489c0,0.276,0.224,0.5,0.5,0.5s0.5-0.224,0.5-0.5c0-0.257,0.794-0.477,1.47-0.498
			c0.018,0.171,0.03,0.34,0.03,0.498C22.75,20.512,22.611,21.201,22.48,21.5z M22.96,16.584c-0.016-0.023-0.032-0.045-0.049-0.067
			c0.059-0.035,0.123-0.071,0.188-0.102C23.05,16.489,23,16.544,22.96,16.584z M11.886,14.18c0.185-0.206,0.167-0.521-0.038-0.706
			c-0.333-0.299-0.735-0.513-1.162-0.62l-1.342-0.335c0.915-0.206,1.399-0.486,1.423-0.501c0.138-0.082,0.222-0.232,0.236-0.393
			c0.014-0.16-0.057-0.324-0.179-0.429c-0.007-0.005-0.682-0.607-0.682-2.653c0-2.062-0.534-3.108-1.587-3.108H8.537
			C8.197,5.13,7.894,5,7.25,5C6.343,5,4.358,5.893,4.358,8.543c0,2.04-0.671,2.645-0.669,2.645c-0.134,0.1-0.208,0.259-0.199,0.425
			c0.008,0.166,0.098,0.317,0.241,0.403c0.025,0.015,0.503,0.297,1.423,0.504l-1.339,0.334C2.6,13.158,1.75,14.246,1.75,15.5
			c0,0.276,0.224,0.5,0.5,0.5h7.557c0.276,0,0.5-0.224,0.5-0.5s-0.224-0.5-0.5-0.5l-6.983-0.001
			c0.171-0.571,0.632-1.025,1.234-1.175l1.792-0.447c0.179-0.045,0.319-0.184,0.364-0.364L6.4,12.271
			c0.034-0.137,0.009-0.283-0.071-0.4c-0.079-0.118-0.205-0.196-0.346-0.216c-0.52-0.072-0.924-0.18-1.211-0.277
			c0.285-0.512,0.587-1.394,0.587-2.834c0-2.101,1.58-2.543,1.892-2.543c0.444,0,0.494,0.05,0.734,0.289
			c0.093,0.093,0.22,0.146,0.353,0.146h0.218c0.292,0,0.587,0.652,0.587,2.108c0,1.438,0.302,2.321,0.586,2.833
			c-0.289,0.096-0.693,0.205-1.211,0.277c-0.141,0.02-0.266,0.098-0.345,0.216c-0.08,0.117-0.105,0.262-0.071,0.4l0.186,0.743
			c0.045,0.179,0.184,0.319,0.364,0.364l1.792,0.447c0.273,0.069,0.521,0.201,0.736,0.394C11.386,14.403,11.702,14.387,11.886,14.18
			z"/>
	</g>
</g>
</svg>
