<?xml version="1.0" encoding="iso-8859-1"?>
<!-- Generator: Adobe Illustrator 19.0.0, SVG Export Plug-In . SVG Version: 6.00 Build 0)  -->
<svg version="1.1" id="Layer_1" xmlns="http://www.w3.org/2000/svg" xmlns:xlink="http://www.w3.org/1999/xlink" x="0px" y="0px"
	 viewBox="0 0 24 24" style="enable-background:new 0 0 24 24;" xml:space="preserve">
<g>
	<g>
		<path d="M21.765,13.638l-1.68-0.42v-0.002c1.132-0.227,1.728-0.573,1.756-0.59c0.139-0.082,0.225-0.231,0.238-0.393
			c0.014-0.161-0.057-0.324-0.181-0.428c-0.008-0.007-0.768-0.676-0.768-2.957c0-2.236-0.571-3.369-1.696-3.369h-0.038
			C19.027,5.143,18.701,5,18,5c-0.98,0-3.13,0.969-3.129,3.848c0,0.576-0.05,1.104-0.149,1.567c-0.057,0.27,0.115,0.535,0.385,0.593
			c0.269,0.054,0.535-0.114,0.593-0.385c0.112-0.531,0.17-1.129,0.17-1.775C15.87,6.507,17.577,6,18,6
			c0.51,0,0.574,0.064,0.841,0.332c0.094,0.093,0.221,0.146,0.354,0.146h0.239c0.429,0,0.696,0.908,0.696,2.369
			c0,1.626,0.35,2.598,0.667,3.144c-0.323,0.113-0.791,0.242-1.397,0.327c-0.14,0.019-0.266,0.098-0.345,0.215
			c-0.079,0.118-0.105,0.263-0.07,0.401l0.204,0.817c0.045,0.179,0.185,0.32,0.364,0.364l1.971,0.493
			c0.703,0.176,1.234,0.717,1.412,1.392h-5.054v1l5.618-0.001c0.276,0,0.5-0.224,0.5-0.5C24,15.143,23.082,13.967,21.765,13.638z
			 M14.755,16.341L12,15.653l-0.111-0.443c1.886-0.338,2.865-0.907,2.909-0.933c0.141-0.083,0.229-0.233,0.241-0.396
			c0.012-0.163-0.061-0.325-0.188-0.428c-0.013-0.01-1.285-1.082-1.285-4.779c0-3.275-0.79-4.935-2.348-4.935h-0.166
			C10.524,3.237,10.085,3,9,3C7.57,3,4.435,4.429,4.435,8.674c0,3.697-1.273,4.769-1.278,4.774c-0.134,0.099-0.208,0.259-0.2,0.425
			c0.009,0.166,0.099,0.317,0.242,0.403c0.044,0.027,1.014,0.6,2.912,0.937l-0.11,0.44l-2.755,0.689C1.334,16.819,0,18.529,0,20.5
			c0,0.133,0.052,0.261,0.146,0.354S0.368,21,0.5,21l17-0.002c0.276,0,0.5-0.224,0.5-0.5C18,18.529,16.666,16.819,14.755,16.341z
			 M1.038,19.998c0.197-1.292,1.149-2.361,2.45-2.687l3.046-0.761c0.179-0.045,0.32-0.185,0.364-0.364l0.315-1.261
			c0.035-0.138,0.009-0.283-0.07-0.401c-0.08-0.117-0.205-0.195-0.346-0.215c-1.179-0.163-2.023-0.434-2.527-0.634
			c0.498-0.721,1.165-2.209,1.165-5.001C5.435,4.832,8.292,4,9,4c0.863,0,1.034,0.133,1.493,0.593
			c0.094,0.093,0.221,0.146,0.354,0.146h0.37c0.857,0,1.348,1.435,1.348,3.935c0,2.79,0.666,4.278,1.163,4.999
			c-0.506,0.2-1.353,0.47-2.526,0.635c-0.14,0.019-0.266,0.098-0.345,0.215c-0.079,0.118-0.105,0.263-0.07,0.401l0.315,1.263
			c0.045,0.179,0.185,0.32,0.364,0.364l3.046,0.761c1.3,0.325,2.252,1.395,2.45,2.688L1.038,19.998z"/>
	</g>
</g>
</svg>
