<?xml version="1.0" encoding="iso-8859-1"?>
<!-- Generator: Adobe Illustrator 19.0.0, SVG Export Plug-In . SVG Version: 6.00 Build 0)  -->
<svg version="1.1" id="Layer_1" xmlns="http://www.w3.org/2000/svg" xmlns:xlink="http://www.w3.org/1999/xlink" x="0px" y="0px"
	 viewBox="0 0 24 24" style="enable-background:new 0 0 24 24;" xml:space="preserve">
<g>
	<g>
		<path d="M22.5,5H17V4.5C17,3.122,15.879,2,14.5,2H13V1.5C13,0.674,12.327,0,11.5,0c-1.375,0-2.742,0.201-4.06,0.596
			C7.433,0.599,7.425,0.602,7.418,0.604l-5.636,1.99C0.716,2.914,0,3.875,0,4.989v14.125c0,1.036,0.652,1.977,1.591,2.329
			l4.798,2.175C7.066,23.872,7.776,24,8.5,24c0.827,0,1.5-0.673,1.5-1.5V22h4.5c1.208,0,2.217-0.861,2.449-2H22.5
			c0.827,0,1.5-0.673,1.5-1.5v-12C24,5.672,23.327,5,22.5,5z M13,3h1.5C15.327,3,16,3.672,16,4.5V5h-3V3z M9.001,9.219v10.275
			C9.001,19.496,9,19.498,9,19.5s0.001,0.003,0.001,0.005v1.99C9.001,21.496,9,21.498,9,21.5s0.001,0.003,0.001,0.005v0.994
			c0,0.276-0.225,0.5-0.501,0.5c-0.603,0-1.195-0.107-1.728-0.306l-4.798-2.175C1.392,20.299,1,19.734,1,19.112V4.987
			C1,4.32,1.43,3.742,2.092,3.544l5.647-1.994C8.961,1.185,10.227,1,11.501,1c0.275,0,0.5,0.224,0.5,0.5v0.995
			C12.001,2.496,12,2.498,12,2.5s0.001,0.003,0.001,0.005v2.99C12.001,5.496,12,5.498,12,5.5s0.001,0.003,0.001,0.005v1.274
			c0,0.215-0.138,0.406-0.342,0.474l-1.633,0.544C9.413,8.002,9.001,8.573,9.001,9.219z M14.5,21H10v-1h5.908
			C15.701,20.58,15.151,21,14.5,21z M23,18.5c0,0.276-0.225,0.5-0.5,0.5H10V9.221c0-0.215,0.138-0.406,0.342-0.474l1.633-0.544
			C12.588,7.997,13,7.425,13,6.779V6h9.5C22.775,6,23,6.224,23,6.5V18.5z M19.936,14.854l-1.341-0.336
			c0.914-0.206,1.398-0.486,1.422-0.501c0.138-0.082,0.222-0.231,0.236-0.392c0.014-0.161-0.057-0.324-0.179-0.429
			c-0.007-0.006-0.682-0.608-0.682-2.653c0-2.063-0.534-3.109-1.587-3.109h-0.018C17.448,7.13,17.145,7,16.5,7
			c-0.907,0-2.892,0.892-2.892,3.543c0,2.039-0.671,2.644-0.669,2.644c-0.134,0.1-0.208,0.259-0.199,0.425
			c0.008,0.167,0.098,0.318,0.241,0.403c0.025,0.014,0.502,0.297,1.422,0.504l-1.338,0.335C11.85,15.157,11,16.245,11,17.5
			c0,0.133,0.052,0.261,0.146,0.354C11.24,17.946,11.367,18,11.5,18h10.001c0.276,0,0.5-0.224,0.5-0.5
			C22.001,16.245,21.152,15.159,19.936,14.854z M12.073,16.998c0.172-0.57,0.633-1.024,1.234-1.177l1.792-0.448
			c0.179-0.044,0.319-0.184,0.364-0.363l0.186-0.742c0.034-0.137,0.009-0.283-0.071-0.401c-0.079-0.117-0.205-0.195-0.346-0.215
			c-0.52-0.072-0.924-0.18-1.211-0.277c0.285-0.512,0.587-1.394,0.587-2.834c0-2.101,1.58-2.543,1.892-2.543
			c0.444,0,0.494,0.05,0.733,0.289c0.094,0.093,0.221,0.146,0.354,0.146h0.218c0.292,0,0.587,0.652,0.587,2.109
			c0,1.438,0.302,2.32,0.586,2.832c-0.289,0.097-0.693,0.206-1.211,0.278c-0.141,0.019-0.266,0.098-0.345,0.215
			c-0.08,0.118-0.105,0.263-0.071,0.401l0.186,0.743c0.045,0.179,0.184,0.32,0.364,0.364l1.792,0.448
			c0.602,0.151,1.062,0.605,1.234,1.176L12.073,16.998z"/>
	</g>
</g>
</svg>
