<?xml version="1.0" encoding="iso-8859-1"?>
<!-- Generator: Adobe Illustrator 19.0.0, SVG Export Plug-In . SVG Version: 6.00 Build 0)  -->
<svg version="1.1" id="Layer_1" xmlns="http://www.w3.org/2000/svg" xmlns:xlink="http://www.w3.org/1999/xlink" x="0px" y="0px"
	 viewBox="0 0 24 24" style="enable-background:new 0 0 24 24;" xml:space="preserve">
<g>
	<g>
		<path d="M10.001,12.953c0.292-0.229,0.622-0.39,0.981-0.48l2.509-0.627c0.179-0.045,0.32-0.185,0.364-0.364l0.298-1.193
			c0.044-0.176-0.011-0.362-0.143-0.486c-0.581-0.544-0.964-1.341-1.027-2.133c-0.021-0.259-0.337-0.46-0.598-0.46
			c-0.055,0-0.101-0.041-0.108-0.095l-0.126-1.303l0.145-0.037c0.144,0,0.28-0.061,0.375-0.169c0.095-0.107,0.139-0.25,0.121-0.393
			c-0.039-0.308-0.14-1.171-0.14-1.459c0-0.754,0-1.608,2.244-1.63c0.103-0.001,0.203-0.033,0.286-0.093
			c0.72-0.516,1.53-0.516,1.919-0.516c0.797,0,1.331,0.225,1.633,0.687c0.343,0.523,0.208,0.742,0.065,0.894l-0.305,0.305
			c-0.088,0.088-0.14,0.205-0.146,0.329l-0.074,1.523c-0.006,0.135,0.096,0.328,0.189,0.427c0.094,0.099,0.276,0.217,0.412,0.218
			l-0.152,1.218c-0.007,0.054-0.054,0.095-0.138,0.095c-0.261,0-0.478,0.2-0.499,0.46c-0.064,0.804-0.476,1.637-1.076,2.176
			c-0.138,0.123-0.196,0.313-0.151,0.493l0.286,1.144c0.045,0.179,0.185,0.32,0.364,0.364l2.509,0.627
			C21.185,12.768,22,13.812,22,15.016c0,0.277,0.224,0.5,0.5,0.5s0.5-0.225,0.501-0.502c0-1.662-1.127-3.105-2.74-3.508
			l-2.217-0.555L17.9,10.377c0.584-0.611,0.99-1.416,1.136-2.249c0.361-0.148,0.629-0.481,0.68-0.888l0.152-1.218
			c0.039-0.312-0.057-0.627-0.264-0.864c-0.089-0.102-0.195-0.185-0.311-0.248l0.045-0.938l0.179-0.179
			c0.32-0.341,0.752-1.071,0.054-2.138c-0.341-0.519-1.045-1.139-2.47-1.139c-0.434,0-1.425,0-2.368,0.61
			c-2.727,0.076-3.081,1.439-3.081,2.627c0,0.251,0.052,0.759,0.094,1.134c-0.129,0.064-0.247,0.153-0.344,0.263
			c-0.21,0.238-0.309,0.556-0.269,0.871l0.152,1.218c0.052,0.417,0.334,0.757,0.751,0.899c0.144,0.801,0.529,1.581,1.079,2.181
			l-0.157,0.63l-2.218,0.554c-0.496,0.124-0.953,0.348-1.356,0.664c-0.217,0.17-0.255,0.485-0.085,0.702
			C9.469,13.086,9.784,13.123,10.001,12.953z M23.948,18.792c-0.695-1.389-2.232-2.096-3.738-1.719l-3.24,0.81
			c-0.143-1.25-0.882-1.987-2.362-2.356L5.934,13.6c0.027-0.19,0.048-0.372,0.063-0.542c0.013-0.152-0.043-0.302-0.154-0.406
			c-0.857-0.812-4.284-1.075-5.314-1.136c-0.141-0.004-0.273,0.041-0.373,0.135S0,11.878,0,12.016v9c0,0.276,0.224,0.5,0.5,0.5h3
			c0.216,0,0.408-0.139,0.475-0.345c0.013-0.04,0.081-0.25,0.184-0.575l7.164,2.388c0.841,0.317,1.421,0.501,2.073,0.501
			c1.014-0.001,2.202-0.444,4.812-1.513l5.5-2.5c0.123-0.056,0.219-0.16,0.264-0.288C24.017,19.055,24.009,18.914,23.948,18.792z
			 M3.135,20.516H0.999v-7.964c1.607,0.127,3.342,0.403,3.972,0.709C4.706,15.451,3.507,19.341,3.135,20.516z M17.81,21.054
			c-4.204,1.723-4.35,1.668-6.152,0.988L4.453,19.64c0.411-1.361,0.984-3.38,1.312-5.052l8.613,1.914
			c1.108,0.277,1.553,0.713,1.614,1.626l-0.96,0.24c-0.355,0.09-0.734,0.098-1.096,0.026l-4.338-0.868
			c-0.275-0.059-0.534,0.121-0.588,0.392c-0.054,0.271,0.121,0.534,0.392,0.588l4.339,0.868c0.225,0.045,0.456,0.067,0.686,0.067
			c0.286,0,0.573-0.034,0.848-0.104l1.341-0.335c0.002,0,0.003,0,0.005,0l3.831-0.958c0.874-0.217,1.763,0.087,2.315,0.756
			L17.81,21.054z"/>
	</g>
</g>
</svg>
