<?xml version="1.0" encoding="iso-8859-1"?>
<!-- Generator: Adobe Illustrator 19.0.0, SVG Export Plug-In . SVG Version: 6.00 Build 0)  -->
<svg version="1.1" id="Layer_1" xmlns="http://www.w3.org/2000/svg" xmlns:xlink="http://www.w3.org/1999/xlink" x="0px" y="0px"
	 viewBox="0 0 24 24" style="enable-background:new 0 0 24 24;" xml:space="preserve">
<g>
	<g>
		<path d="M19.5,1H21v1.5C21,2.776,21.224,3,21.5,3S22,2.776,22,2.5v-2C22,0.224,21.776,0,21.5,0h-2C19.224,0,19,0.224,19,0.5
			S19.224,1,19.5,1z M2.5,3C2.776,3,3,2.776,3,2.5V1h1.5C4.776,1,5,0.776,5,0.5S4.776,0,4.5,0h-2C2.224,0,2,0.224,2,0.5v2
			C2,2.776,2.224,3,2.5,3z M19.5,17h2c0.276,0,0.5-0.224,0.5-0.5v-2c0-0.276-0.224-0.5-0.5-0.5S21,14.224,21,14.5V16h-1.5
			c-0.276,0-0.5,0.224-0.5,0.5S19.224,17,19.5,17z M2.5,17h2C4.776,17,5,16.776,5,16.5S4.776,16,4.5,16H3v-1.5
			C3,14.224,2.776,14,2.5,14S2,14.224,2,14.5v2C2,16.776,2.224,17,2.5,17z M19.742,18.046l-3.831-0.957l-0.326-1.304
			c1.026-1.015,1.728-2.409,1.936-3.84c0.568-0.159,1.008-0.648,1.084-1.258l0.25-2c0.053-0.422-0.077-0.848-0.356-1.169
			c-0.164-0.189-0.372-0.331-0.601-0.418l0.092-1.883l0.374-0.374c0.564-0.599,1.031-1.627,0.054-3.116
			C17.668,0.581,16.394,0,14.631,0c-0.695,0-2.298,0-3.791,1.002C6.579,1.091,6,3.069,6,5c0,0.449,0.109,1.46,0.181,2.069
			C5.924,7.151,5.691,7.3,5.509,7.506c-0.284,0.323-0.417,0.752-0.364,1.18l0.25,2c0.081,0.651,0.577,1.164,1.202,1.286
			c0.208,1.374,0.873,2.724,1.839,3.722l-0.348,1.394l-3.831,0.957C1.75,18.672,0,20.915,0,23.5c0,0.133,0.052,0.261,0.146,0.354
			S0.367,24,0.5,24l23-0.002c0.276,0,0.5-0.224,0.5-0.5C24,20.915,22.25,18.672,19.742,18.046z M1.026,22.998
			C1.232,21.09,2.603,19.49,4.5,19.015l4.122-1.03c0.179-0.045,0.319-0.184,0.364-0.364l0.49-1.961
			c0.044-0.175-0.011-0.361-0.144-0.485c-1.01-0.948-1.679-2.337-1.789-3.715C7.523,11.2,7.306,11,7.045,11H6.883
			c-0.252,0-0.465-0.188-0.497-0.438l-0.25-1.999C6.118,8.418,6.161,8.278,6.258,8.169C6.354,8.06,6.486,8,6.632,8h0.104
			C6.88,8,7.017,7.938,7.111,7.832C7.206,7.723,7.25,7.581,7.232,7.438C7.168,6.926,7,5.489,7,5c0-1.56,0.307-2.963,4.005-3
			c0.102-0.001,0.202-0.033,0.286-0.093C12.408,1.107,13.607,1,14.631,1c1.404,0,2.397,0.429,2.952,1.275
			c0.664,1.014,0.377,1.539,0.064,1.872l-0.5,0.5c-0.088,0.088-0.14,0.205-0.146,0.329l-0.122,2.502
			c-0.007,0.136,0.042,0.267,0.135,0.367C17.106,7.943,17.235,8,17.371,8.002c0.145,0.002,0.278,0.064,0.374,0.173
			c0.094,0.108,0.136,0.245,0.118,0.387l-0.25,2C17.582,10.812,17.369,11,17.068,11c-0.26,0-0.477,0.2-0.498,0.462
			c-0.113,1.421-0.813,2.837-1.874,3.788c-0.137,0.123-0.196,0.313-0.151,0.493l0.47,1.879c0.045,0.179,0.184,0.319,0.364,0.364
			l4.122,1.03c1.897,0.474,3.267,2.075,3.473,3.984L1.026,22.998z"/>
	</g>
</g>
</svg>
