<?xml version="1.0" encoding="iso-8859-1"?>
<!-- Generator: Adobe Illustrator 19.0.0, SVG Export Plug-In . SVG Version: 6.00 Build 0)  -->
<svg version="1.1" id="Layer_1" xmlns="http://www.w3.org/2000/svg" xmlns:xlink="http://www.w3.org/1999/xlink" x="0px" y="0px"
	 viewBox="0 0 30 30" style="enable-background:new 0 0 30 30;" xml:space="preserve">
<g>
	<g>
		<path d="M29.889,20.185L13.891,0.188c-0.006-0.007-0.012-0.014-0.018-0.021c-0.074-0.084-0.171-0.138-0.274-0.159
			c-0.001,0-0.002,0-0.002,0s0,0-0.001,0c-0.008-0.002-0.017-0.003-0.025-0.004H13.57c-0.001,0-0.001,0-0.002,0h-0.001
			C13.443-0.011,13.31,0.018,13.201,0.1c-0.013,0.009-0.025,0.019-0.037,0.03c-0.054,0.05-0.096,0.11-0.123,0.174L0.045,29.295
			c-0.069,0.155-0.056,0.334,0.036,0.477C0.173,29.914,0.332,30,0.501,30H20.49c0.004,0,0.008,0,0.011,0
			c0.034,0,0.07-0.003,0.104-0.014c0.001,0,0.001,0,0.001,0c0.007-0.002,0.014-0.004,0.02-0.005h0.001
			c0.091-0.024,0.169-0.073,0.231-0.136l8.994-8.994C30.032,20.671,30.048,20.384,29.889,20.185z M1.273,29L13.359,2.041L19.866,29
			H1.273z M20.778,28.516L14.514,2.567l14.317,17.896L20.778,28.516z"/>
	</g>
</g>
</svg>
