<?xml version="1.0" encoding="iso-8859-1"?>
<!-- Generator: Adobe Illustrator 19.0.0, SVG Export Plug-In . SVG Version: 6.00 Build 0)  -->
<svg version="1.1" id="Layer_1" xmlns="http://www.w3.org/2000/svg" xmlns:xlink="http://www.w3.org/1999/xlink" x="0px" y="0px"
	 viewBox="0 0 30 30" style="enable-background:new 0 0 30 30;" xml:space="preserve">
<g>
	<g>
		<path d="M15.667,0.034C15.615,0.015,15.559,0,15.5,0c-0.052,0-0.103,0.015-0.155,0.017C15.229,0.015,15.117,0,15,0
			C6.729,0,0,6.729,0,15s6.729,15,15,15c0.117,0,0.229-0.015,0.345-0.017C15.397,29.985,15.448,30,15.5,30
			c0.059,0,0.115-0.015,0.167-0.034C23.628,29.613,30,23.046,30,15S23.628,0.387,15.667,0.034z M15.363,1.018
			C22.914,1.213,29,7.402,29,15c0,2.981-6.411,5.5-14,5.5c-1.601,0-3.144-0.118-4.591-0.323C10.148,18.566,10,16.819,10,15
			C10,7.529,12.443,1.213,15.363,1.018z M12.939,1.169C10.603,3.421,9,8.699,9,15c0,1.769,0.133,3.449,0.366,5.013
			C4.492,19.142,1,17.198,1,15C1,7.982,6.196,2.171,12.939,1.169z M1.258,17.642c1.581,1.578,4.551,2.807,8.28,3.422
			c0.656,3.512,1.87,6.291,3.401,7.767C7.064,27.958,2.37,23.437,1.258,17.642z M15.363,28.982
			c-2.052-0.137-3.863-3.295-4.762-7.757C11.988,21.403,13.462,21.5,15,21.5c6.227,0,11.446-1.567,13.742-3.858
			C27.525,23.986,22.016,28.81,15.363,28.982z"/>
	</g>
</g>
</svg>
