<?xml version="1.0" encoding="iso-8859-1"?>
<!-- Generator: Adobe Illustrator 19.2.1, SVG Export Plug-In . SVG Version: 6.00 Build 0)  -->
<svg version="1.1" id="Layer_1" xmlns="http://www.w3.org/2000/svg" xmlns:xlink="http://www.w3.org/1999/xlink" x="0px" y="0px"
	 viewBox="0 0 24 24" style="enable-background:new 0 0 24 24;" xml:space="preserve">
<g>
	<g>
		<path d="M8.997,10.102c0.201,0.131,0.411,0.247,0.629,0.351c0.03,0.014,0.059,0.029,0.089,0.043
			c0.223,0.103,0.452,0.194,0.69,0.266c0.004,0.001,0.009,0.002,0.014,0.003c0.22,0.066,0.447,0.115,0.678,0.154
			c0.057,0.01,0.114,0.019,0.172,0.026C11.509,10.977,11.752,11,12.001,11c0.249,0,0.492-0.022,0.732-0.055
			c0.058-0.008,0.115-0.017,0.172-0.026c0.231-0.038,0.458-0.087,0.678-0.154c0.004-0.001,0.009-0.002,0.014-0.003
			c0.238-0.072,0.467-0.163,0.69-0.266c0.03-0.014,0.059-0.028,0.089-0.043c0.217-0.105,0.428-0.22,0.628-0.351
			c1.501-0.983,2.497-2.677,2.497-4.602c0-3.033-2.467-5.5-5.5-5.5c-3.033,0-5.5,2.467-5.5,5.5C6.5,7.425,7.496,9.119,8.997,10.102z
			 M17,19H7c-1.378,0-2.5,1.122-2.5,2.5v1C4.5,23.327,5.173,24,6,24h12c0.827,0,1.5-0.673,1.5-1.5v-1C19.5,20.122,18.378,19,17,19z
			 M12,12c-1.106,0-2.148-0.279-3.061-0.769C8.726,13.696,7.965,16.425,7.472,18h9.056c-0.494-1.574-1.255-4.303-1.467-6.769
			C14.148,11.721,13.106,12,12,12z"/>
	</g>
</g>
</svg>
