<?xml version="1.0" encoding="utf-8"?>
<!-- Generator: Adobe Illustrator 19.0.0, SVG Export Plug-In . SVG Version: 6.00 Build 0)  -->
<svg version="1.1" id="Layer_1" xmlns="http://www.w3.org/2000/svg" xmlns:xlink="http://www.w3.org/1999/xlink" x="0px" y="0px"
	 viewBox="0 0 30 30" style="enable-background:new 0 0 30 30;" xml:space="preserve">
<g>
	<g>
		<g>
			<path d="M28.5,8h-28C0.2,8,0,7.8,0,7.5S0.2,7,0.5,7h28C28.8,7,29,7.2,29,7.5S28.8,8,28.5,8z"/>
		</g>
		<g>
			<path d="M25.5,14c0,0-0.1,0-0.1,0c-0.3-0.1-0.4-0.3-0.4-0.6l1.5-6c0.1-0.3,0.3-0.4,0.6-0.4c0.3,0.1,0.4,0.3,0.4,0.6l-1.5,6
				C25.9,13.8,25.7,14,25.5,14z"/>
		</g>
		<g>
			<path d="M13.5,22h-6c-1.5,0-2.7-0.7-3-1.9L1,7.6C0.9,7.4,1.1,7.1,1.4,7C1.6,6.9,1.9,7.1,2,7.4l3.5,12.5c0.3,1,1.4,1.1,2,1.1h6
				c0.3,0,0.5,0.2,0.5,0.5S13.8,22,13.5,22z"/>
		</g>
		<g>
			<path d="M8.5,8C8.4,8,8.3,8,8.2,7.9C8,7.7,7.9,7.4,8.1,7.2l5-7c0.2-0.2,0.5-0.3,0.7-0.1c0.2,0.2,0.3,0.5,0.1,0.7l-5,7
				C8.8,7.9,8.7,8,8.5,8z"/>
		</g>
		<g>
			<path d="M20.5,8c-0.2,0-0.3-0.1-0.4-0.2l-5-7c-0.2-0.2-0.1-0.5,0.1-0.7c0.2-0.2,0.5-0.1,0.7,0.1l5,7c0.2,0.2,0.1,0.5-0.1,0.7
				C20.7,8,20.6,8,20.5,8z"/>
		</g>
	</g>
	<g>
		<path d="M24.5,23h-4c-0.3,0-0.5-0.2-0.5-0.5s0.2-0.5,0.5-0.5h4c0.3,0,0.5,0.2,0.5,0.5S24.8,23,24.5,23z"/>
	</g>
	<g>
		<path d="M22.5,25c-0.3,0-0.5-0.2-0.5-0.5v-4c0-0.3,0.2-0.5,0.5-0.5s0.5,0.2,0.5,0.5v4C23,24.8,22.8,25,22.5,25z"/>
	</g>
	<g>
		<path d="M22.5,30c-4.1,0-7.5-3.4-7.5-7.5s3.4-7.5,7.5-7.5s7.5,3.4,7.5,7.5S26.6,30,22.5,30z M22.5,16c-3.6,0-6.5,2.9-6.5,6.5
			s2.9,6.5,6.5,6.5s6.5-2.9,6.5-6.5S26.1,16,22.5,16z"/>
	</g>
</g>
</svg>
