<?xml version="1.0" encoding="utf-8"?>
<!-- Generator: Adobe Illustrator 19.0.0, SVG Export Plug-In . SVG Version: 6.00 Build 0)  -->
<svg version="1.1" id="Layer_1" xmlns="http://www.w3.org/2000/svg" xmlns:xlink="http://www.w3.org/1999/xlink" x="0px" y="0px"
	 viewBox="0 0 30 30" style="enable-background:new 0 0 30 30;" xml:space="preserve">
<g>
	<g>
		<path d="M25.5,25h-21C4.2,25,4,24.8,4,24.5S4.2,24,4.5,24h21c0.3,0,0.5,0.2,0.5,0.5S25.8,25,25.5,25z"/>
	</g>
	<g>
		<path d="M23.5,12c-0.3,0-0.5-0.2-0.5-0.5V4c0-1.9-1.8-3-3.5-3H10C8.1,1,7,2.8,7,4.5v7C7,11.8,6.8,12,6.5,12S6,11.8,6,11.5v-7
			C6,2,7.8,0,10,0h9.5C22,0,24,1.8,24,4v7.5C24,11.8,23.8,12,23.5,12z"/>
	</g>
	<g>
		<path d="M20.5,8h-11C9.2,8,9,7.8,9,7.5S9.2,7,9.5,7h11C20.8,7,21,7.2,21,7.5S20.8,8,20.5,8z"/>
	</g>
	<g>
		<path d="M29.5,30h-29c-0.1,0-0.3-0.1-0.4-0.2C0,29.7,0,29.6,0,29.4l4-22C4.1,7.1,4.3,7,4.6,7C4.9,7.1,5,7.3,5,7.6L1.1,29h27.8
			L25,7.6c0-0.3,0.1-0.5,0.4-0.6C25.7,7,25.9,7.1,26,7.4l4,22c0,0.1,0,0.3-0.1,0.4C29.8,29.9,29.6,30,29.5,30z"/>
	</g>
</g>
</svg>
