<?xml version="1.0" encoding="utf-8"?>
<!-- Generator: Adobe Illustrator 19.0.0, SVG Export Plug-In . SVG Version: 6.00 Build 0)  -->
<svg version="1.1" id="Layer_1" xmlns="http://www.w3.org/2000/svg" xmlns:xlink="http://www.w3.org/1999/xlink" x="0px" y="0px"
	 viewBox="0 0 30 30" style="enable-background:new 0 0 30 30;" xml:space="preserve">
<g>
	<g>
		<g>
			<path d="M2.5,25C1.2,25,0,23.7,0,22.4v-3.8C0,17.3,1.2,16,2.5,16C3.8,16,5,17.2,5,18.5C5,18.8,4.8,19,4.5,19S4,18.8,4,18.5
				C4,17.7,3.3,17,2.5,17C1.8,17,1,17.8,1,18.6v3.8C1,23.2,1.8,24,2.5,24C3.3,24,4,23.3,4,22.5C4,22.2,4.2,22,4.5,22S5,22.2,5,22.5
				C5,23.8,3.8,25,2.5,25z"/>
		</g>
		<g>
			<path d="M28.5,25h-4c-0.3,0-0.5-0.2-0.5-0.5v-8c0-0.3,0.2-0.5,0.5-0.5h4c0.3,0,0.5,0.2,0.5,0.5S28.8,17,28.5,17H25v7h3.5
				c0.3,0,0.5,0.2,0.5,0.5S28.8,25,28.5,25z"/>
		</g>
		<g>
			<path d="M27.5,21h-3c-0.3,0-0.5-0.2-0.5-0.5s0.2-0.5,0.5-0.5h3c0.3,0,0.5,0.2,0.5,0.5S27.8,21,27.5,21z"/>
		</g>
		<g>
			<path d="M10.5,25h-4C6.2,25,6,24.8,6,24.5v-8C6,16.2,6.2,16,6.5,16S7,16.2,7,16.5V24h3.5c0.3,0,0.5,0.2,0.5,0.5S10.8,25,10.5,25z
				"/>
		</g>
		<g>
			<path d="M13.5,25c-1.4,0-2.5-1.1-2.5-2.5v-4c0-1.4,1.1-2.5,2.5-2.5s2.5,1.1,2.5,2.5v4C16,23.9,14.9,25,13.5,25z M13.5,17
				c-0.9,0-1.5,0.6-1.5,1.5v4c0,0.9,0.6,1.5,1.5,1.5s1.5-0.6,1.5-1.5v-4C15,17.6,14.4,17,13.5,17z"/>
		</g>
		<g>
			<g>
				<path d="M19.4,25c-1.3,0-2.3-1.1-2.4-2.5c0-0.3,0.2-0.5,0.5-0.5c0.3,0,0.5,0.2,0.5,0.5c0,0.7,0.5,1.5,1.4,1.5
					c0.9,0,1.6-0.7,1.6-1.5c0-1-0.9-1.3-1.6-1.5l-0.1,0c-1.5-0.4-2.2-1.2-2.2-2.5c0-1.4,1-2.5,2.4-2.5c1.3,0,2.5,1.2,2.6,2.5
					c0,0.3-0.2,0.5-0.5,0.5c-0.3,0-0.5-0.2-0.5-0.5C21,17.7,20.2,17,19.4,17c-0.8,0-1.4,0.6-1.4,1.5c0,1,0.7,1.3,1.4,1.5l0.2,0
					c1.6,0.4,2.4,1.2,2.4,2.5C22,23.9,20.8,25,19.4,25z"/>
			</g>
		</g>
	</g>
	<g>
		<path d="M29.5,30h-29C0.2,30,0,29.8,0,29.5C0,27.8,1.9,26,3.7,26h22.6c1.8,0,3.7,1.8,3.7,3.5C30,29.8,29.8,30,29.5,30z M1.1,29
			h27.8c-0.3-1-1.6-2-2.6-2H3.7C2.7,27,1.4,28,1.1,29z"/>
	</g>
	<g>
		<path d="M24.5,6h-19C5.2,6,5,5.8,5,5.5V3c0-1.7,1.3-3,3-3h14c1.7,0,3,1.3,3,3v2.5C25,5.8,24.8,6,24.5,6z M6,5h18V3
			c0-1.1-0.9-2-2-2H8C6.9,1,6,1.9,6,3V5z"/>
	</g>
	<g>
		<g>
			<path d="M15,15c-1.7,0-3-1.3-3-3V5.5C12,5.2,12.2,5,12.5,5h5C17.8,5,18,5.2,18,5.5V12C18,13.7,16.7,15,15,15z M13,6v6
				c0,1.1,0.9,2,2,2s2-0.9,2-2V6H13z"/>
		</g>
		<g>
			<path d="M20,15c-1.7,0-3-1.3-3-3V5.5C17,5.2,17.2,5,17.5,5h4C21.7,5,22,5.2,22,5.4l1,6.5C23,13.7,21.7,15,20,15z M18,6v6
				c0,1.1,0.9,2,2,2s2-0.9,2-2l-0.9-6H18z"/>
		</g>
		<g>
			<path d="M25,15c-1.7,0-3-1.3-3-3l-1-6.4c0-0.1,0-0.3,0.1-0.4C21.2,5.1,21.4,5,21.5,5h3c0.2,0,0.4,0.1,0.5,0.3l3,6.5
				c0,0.1,0,0.1,0,0.2C28,13.7,26.7,15,25,15z M22.1,6l0.9,5.9c0,1.2,0.9,2.1,2,2.1c1.1,0,1.9-0.8,2-1.9L24.2,6H22.1z"/>
		</g>
		<g>
			<path d="M10,15c-1.7,0-3-1.3-3-3l1-6.6C8,5.2,8.3,5,8.5,5h4C12.8,5,13,5.2,13,5.5V12C13,13.7,11.7,15,10,15z M8.9,6L8,12.1
				c0,1,0.9,1.9,2,1.9s2-0.9,2-2V6H8.9z"/>
		</g>
		<g>
			<path d="M5,15c-1.7,0-3-1.3-3-3c0-0.1,0-0.1,0-0.2l3-6.5C5.1,5.1,5.3,5,5.5,5h3c0.1,0,0.3,0.1,0.4,0.2C9,5.3,9,5.4,9,5.6l-1,6.5
				C8,13.7,6.7,15,5,15z M3,12.1C3.1,13.2,3.9,14,5,14c1.1,0,2-0.9,2-2l0.9-6H5.8L3,12.1z"/>
		</g>
	</g>
</g>
</svg>
