<?xml version="1.0" encoding="utf-8"?>
<!-- Generator: Adobe Illustrator 19.0.0, SVG Export Plug-In . SVG Version: 6.00 Build 0)  -->
<svg version="1.1" id="Layer_1" xmlns="http://www.w3.org/2000/svg" xmlns:xlink="http://www.w3.org/1999/xlink" x="0px" y="0px"
	 viewBox="0 0 30 30" style="enable-background:new 0 0 30 30;" xml:space="preserve">
<g>
	<g>
		<path d="M27.5,25h-25C1.1,25,0,23.9,0,22.5v-15C0,6.1,1.1,5,2.5,5h25C28.9,5,30,6.1,30,7.5v15C30,23.9,28.9,25,27.5,25z M2.5,6
			C1.7,6,1,6.7,1,7.5v15C1,23.3,1.7,24,2.5,24h25c0.8,0,1.5-0.7,1.5-1.5v-15C29,6.7,28.3,6,27.5,6H2.5z"/>
	</g>
	<g>
		<path d="M9.5,19h-5C4.2,19,4,18.8,4,18.5S4.2,18,4.5,18h5c0.3,0,0.5,0.2,0.5,0.5S9.8,19,9.5,19z"/>
	</g>
	<g>
		<path d="M13.5,21h-9C4.2,21,4,20.8,4,20.5S4.2,20,4.5,20h9c0.3,0,0.5,0.2,0.5,0.5S13.8,21,13.5,21z"/>
	</g>
	<g>
		<path d="M18.5,15c-3,0-5.6-1.9-6.4-4.8l0,0c-0.2-0.6,0-1.3,0.4-1.7c0.5-0.5,1.1-0.6,1.7-0.4c2.9,0.8,4.8,3.4,4.8,6.4
			C19,14.8,18.8,15,18.5,15z M13,9.9c0.7,2.3,2.6,3.8,4.9,4c-0.2-2.4-1.7-4.3-4-4.9c-0.3-0.1-0.5,0-0.7,0.2C13,9.4,13,9.7,13,9.9
			L13,9.9z"/>
	</g>
	<g>
		<path d="M18.5,15c-0.3,0-0.5-0.2-0.5-0.5c0-3,1.9-5.6,4.8-6.4c0.6-0.2,1.3,0,1.7,0.4c0.5,0.5,0.6,1.1,0.4,1.7l0,0
			C24.1,13.1,21.5,15,18.5,15z M23.3,9c-0.1,0-0.1,0-0.2,0c-2.3,0.7-3.8,2.6-4,4.9c2.4-0.2,4.3-1.7,4.9-4c0.1-0.3,0-0.5-0.2-0.7
			C23.6,9.1,23.4,9,23.3,9z"/>
	</g>
	<g>
		<path d="M18.5,25c-0.3,0-0.5-0.2-0.5-0.5v-19C18,5.2,18.2,5,18.5,5S19,5.2,19,5.5v19C19,24.8,18.8,25,18.5,25z"/>
	</g>
	<g>
		<path d="M14.5,19c-0.1,0-0.3,0-0.4-0.1c-0.2-0.2-0.2-0.5,0-0.7l4-4c0.2-0.2,0.5-0.2,0.7,0s0.2,0.5,0,0.7l-4,4
			C14.8,19,14.6,19,14.5,19z"/>
	</g>
	<g>
		<path d="M22.5,19c-0.1,0-0.3,0-0.4-0.1l-4-4c-0.2-0.2-0.2-0.5,0-0.7s0.5-0.2,0.7,0l4,4c0.2,0.2,0.2,0.5,0,0.7
			C22.8,19,22.6,19,22.5,19z"/>
	</g>
	<g>
		<path d="M29.5,15H1c-0.3,0-0.5-0.2-0.5-0.5S0.7,14,1,14h28.5c0.3,0,0.5,0.2,0.5,0.5S29.8,15,29.5,15z"/>
	</g>
</g>
</svg>
