<?xml version="1.0" encoding="iso-8859-1"?>
<!-- Generator: Adobe Illustrator 19.0.0, SVG Export Plug-In . SVG Version: 6.00 Build 0)  -->
<svg version="1.1" id="Layer_1" xmlns="http://www.w3.org/2000/svg" xmlns:xlink="http://www.w3.org/1999/xlink" x="0px" y="0px"
	 viewBox="0 0 24 24" style="enable-background:new 0 0 24 24;" xml:space="preserve">
<g>
	<g>
		<path d="M16.5,1.5C16.5,0.673,15.826,0,15,0H9C8.172,0,7.5,0.673,7.5,1.5V3h9V1.5z M7.5,4v1.028c0,0.386,0.091,0.772,0.238,1.057
			l0.604,1.744C8.445,8.037,8.5,8.269,8.5,8.5v14c0,0.827,0.673,1.5,1.5,1.5h4c0.827,0,1.5-0.673,1.5-1.5v-14
			c0-0.231,0.055-0.464,0.184-0.732l0.553-1.623C16.409,5.8,16.5,5.413,16.5,5.027V4H7.5z M12.5,17.5c0,0.276-0.224,0.5-0.5,0.5
			s-0.5-0.224-0.5-0.5v-3c0-0.276,0.224-0.5,0.5-0.5s0.5,0.224,0.5,0.5V17.5z M12,13c-0.551,0-1-0.449-1-1s0.449-1,1-1
			c0.551,0,1,0.449,1,1S12.55,13,12,13z"/>
	</g>
</g>
</svg>
