<?xml version="1.0" encoding="iso-8859-1"?>
<!-- Generator: Adobe Illustrator 19.0.0, SVG Export Plug-In . SVG Version: 6.00 Build 0)  -->
<svg version="1.1" id="Layer_1" xmlns="http://www.w3.org/2000/svg" xmlns:xlink="http://www.w3.org/1999/xlink" x="0px" y="0px"
	 viewBox="0 0 24 24" style="enable-background:new 0 0 24 24;" xml:space="preserve">
<g>
	<g>
		<path d="M11.5,13.905V11.5H9.642C10.065,12.731,10.734,13.627,11.5,13.905z M7.396,11.5c0.51,0.781,1.212,1.424,2.041,1.862
			C9.09,12.839,8.802,12.211,8.588,11.5H7.396z M9.437,3.638C8.438,4.167,7.624,4.994,7.107,6h1.345
			C8.671,5.083,9.011,4.281,9.437,3.638z M9.167,8.5c0,0.702,0.074,1.376,0.204,2H11.5V7H9.281C9.208,7.479,9.167,7.982,9.167,8.5z
			 M8.167,8.5c0-0.519,0.038-1.019,0.102-1.5H6.713C6.577,7.478,6.5,7.979,6.5,8.5c0,0.706,0.139,1.379,0.382,2h1.464
			C8.23,9.872,8.167,9.201,8.167,8.5z M14.563,13.362c0.828-0.438,1.53-1.082,2.041-1.862h-1.192
			C15.198,12.211,14.91,12.839,14.563,13.362z M15.833,8.5c0,0.701-0.063,1.372-0.179,2h1.464c0.243-0.621,0.382-1.294,0.382-2
			c0-0.521-0.077-1.022-0.213-1.5h-1.556C15.796,7.481,15.833,7.981,15.833,8.5z M14.563,3.638C14.989,4.281,15.329,5.083,15.548,6
			h1.345C16.377,4.994,15.562,4.166,14.563,3.638z M19,0H5C3.622,0,2.5,1.122,2.5,2.5v19C2.5,22.878,3.622,24,5,24h14
			c1.378,0,2.5-1.122,2.5-2.5v-19C21.5,1.122,20.378,0,19,0z M18,21H6c-0.276,0-0.5-0.224-0.5-0.5S5.724,20,6,20h12
			c0.276,0,0.5,0.224,0.5,0.5S18.276,21,18,21z M18,18H6c-0.276,0-0.5-0.224-0.5-0.5S5.724,17,6,17h12c0.276,0,0.5,0.224,0.5,0.5
			S18.276,18,18,18z M17.999,10.997C17.999,10.998,18,10.999,18,11c0,0.153-0.072,0.284-0.18,0.376C16.756,13.519,14.55,15,12,15
			c-2.55,0-4.756-1.48-5.82-3.624C6.072,11.284,6,11.153,6,11c0-0.001,0.001-0.002,0.001-0.003C5.68,10.228,5.5,9.384,5.5,8.5
			C5.5,4.916,8.416,2,12,2c3.584,0,6.5,2.916,6.5,6.5C18.5,9.385,18.321,10.228,17.999,10.997z M12.5,13.905
			c0.766-0.278,1.435-1.174,1.858-2.405H12.5V13.905z M12.5,3.095V6h2.01C14.108,4.516,13.366,3.409,12.5,3.095z M9.49,6h2.01V3.095
			C10.634,3.409,9.892,4.516,9.49,6z M14.833,8.5c0-0.518-0.041-1.021-0.114-1.5H12.5v3.5h2.129
			C14.759,9.876,14.833,9.202,14.833,8.5z"/>
	</g>
</g>
</svg>
