<?xml version="1.0" encoding="iso-8859-1"?>
<!-- Generator: Adobe Illustrator 19.0.0, SVG Export Plug-In . SVG Version: 6.00 Build 0)  -->
<svg version="1.1" id="Layer_1" xmlns="http://www.w3.org/2000/svg" xmlns:xlink="http://www.w3.org/1999/xlink" x="0px" y="0px"
	 viewBox="0 0 24 24" style="enable-background:new 0 0 24 24;" xml:space="preserve">
<g>
	<path d="M18.5,3C17.121,3,16,4.121,16,5.5C16,6.879,17.121,8,18.5,8S21,6.879,21,5.5C21,4.121,19.879,3,18.5,3z M18.5,7
		C17.673,7,17,6.327,17,5.5S17.673,4,18.5,4S20,4.673,20,5.5S19.327,7,18.5,7z"/>
	<path d="M23.5,0h-9c-0.133,0-0.26,0.053-0.354,0.146l-14,14c-0.195,0.195-0.195,0.512,0,0.707l9,9C9.244,23.951,9.372,24,9.5,24
		s0.256-0.049,0.354-0.146l14-14C23.947,9.76,24,9.633,24,9.5v-9C24,0.224,23.776,0,23.5,0z M18.5,8C17.121,8,16,6.878,16,5.5
		S17.121,3,18.5,3S21,4.122,21,5.5S19.879,8,18.5,8z"/>
</g>
<g>
</g>
<g>
</g>
<g>
</g>
<g>
</g>
<g>
</g>
<g>
</g>
<g>
</g>
<g>
</g>
<g>
</g>
<g>
</g>
<g>
</g>
<g>
</g>
<g>
</g>
<g>
</g>
<g>
</g>
</svg>
