<?xml version="1.0" encoding="iso-8859-1"?>
<!-- Generator: Adobe Illustrator 19.0.0, SVG Export Plug-In . SVG Version: 6.00 Build 0)  -->
<svg version="1.1" id="Layer_1" xmlns="http://www.w3.org/2000/svg" xmlns:xlink="http://www.w3.org/1999/xlink" x="0px" y="0px"
	 viewBox="0 0 24 24" style="enable-background:new 0 0 24 24;" xml:space="preserve">
<g>
	<path d="M15.5,7C12.467,7,10,9.467,10,12.5s2.467,5.5,5.5,5.5s5.5-2.467,5.5-5.5S18.533,7,15.5,7z M17.854,11.854
		C17.756,11.951,17.628,12,17.5,12s-0.256-0.049-0.354-0.146L16,10.707V15.5c0,0.276-0.224,0.5-0.5,0.5S15,15.776,15,15.5v-4.793
		l-1.146,1.146c-0.195,0.195-0.512,0.195-0.707,0s-0.195-0.512,0-0.707l1.999-1.999c0.046-0.046,0.102-0.083,0.163-0.109
		c0.122-0.051,0.26-0.051,0.382,0c0.062,0.025,0.117,0.062,0.163,0.109l1.999,1.999C18.049,11.342,18.049,11.658,17.854,11.854z"/>
	<path d="M17.5,0h-11C4.57,0,3,1.57,3,3.5v20c0,0.202,0.122,0.385,0.309,0.462C3.37,23.988,3.436,24,3.5,24
		c0.13,0,0.258-0.051,0.354-0.146l5.648-5.649c2.242,2.213,5.34,5.287,5.55,5.516c0.062,0.125,0.173,0.221,0.313,0.26
		c0.214,0.061,0.445-0.03,0.563-0.221c0.052-0.084,0.076-0.182,0.072-0.279V19.5c0-0.276-0.224-0.5-0.5-0.5
		C11.916,19,9,16.084,9,12.5S11.916,6,15.5,6C15.776,6,16,5.776,16,5.5v-3C16,1.673,16.673,1,17.5,1C17.776,1,18,0.776,18,0.5
		S17.776,0,17.5,0z"/>
	<path d="M17.5,0H15c-0.276,0-0.5,0.224-0.5,0.5v3C14.5,3.776,14.724,4,15,4h1V2.5C16,1.673,16.673,1,17.5,1
		C17.776,1,18,1.224,18,1.5S17.776,2,17.5,2C17.225,2,17,2.224,17,2.5V4h2.5C19.776,4,20,3.776,20,3.5v-1C20,1.122,18.879,0,17.5,0z
		"/>
</g>
<g>
</g>
<g>
</g>
<g>
</g>
<g>
</g>
<g>
</g>
<g>
</g>
<g>
</g>
<g>
</g>
<g>
</g>
<g>
</g>
<g>
</g>
<g>
</g>
<g>
</g>
<g>
</g>
<g>
</g>
</svg>
