<?xml version="1.0" encoding="iso-8859-1"?>
<!-- Generator: Adobe Illustrator 19.2.1, SVG Export Plug-In . SVG Version: 6.00 Build 0)  -->
<svg version="1.1" id="Layer_1" xmlns="http://www.w3.org/2000/svg" xmlns:xlink="http://www.w3.org/1999/xlink" x="0px" y="0px"
	 viewBox="0 0 24 24" style="enable-background:new 0 0 24 24;" xml:space="preserve">
<g>
	<g>
		<path d="M8,17h8c0.827,0,1.5-0.673,1.5-1.5S16.827,14,16,14h-0.849c-0.045-0.319-0.076-0.626-0.101-0.927
			C14.176,13.657,13.128,14,12,14s-2.177-0.342-3.05-0.927C8.925,13.373,8.894,13.68,8.849,14H8c-0.827,0-1.5,0.673-1.5,1.5
			S7.173,17,8,17z M9.665,12.328c0.005,0.003,0.011,0.006,0.017,0.009c0.218,0.132,0.443,0.25,0.683,0.344
			c0.069,0.028,0.144,0.042,0.215,0.067c0.185,0.062,0.368,0.127,0.562,0.165C11.419,12.968,11.705,13,11.999,13
			s0.58-0.031,0.857-0.087c0.194-0.038,0.378-0.103,0.562-0.165c0.071-0.024,0.146-0.039,0.215-0.067
			c0.24-0.094,0.465-0.212,0.683-0.344c0.006-0.003,0.012-0.006,0.017-0.009c1.293-0.791,2.165-2.204,2.165-3.828
			c0-2.181-3.278-6.698-3.998-7.664V0.5C12.5,0.224,12.276,0,12,0s-0.5,0.224-0.5,0.5v0.33C10.79,1.782,7.498,6.314,7.498,8.5
			C7.5,10.124,8.373,11.537,9.665,12.328z M7.556,19h8.889c-0.108-0.296-0.224-0.629-0.345-1H7.901
			C7.78,18.371,7.663,18.704,7.556,19z M17,20H7c-1.378,0-2.5,1.122-2.5,2.5C4.5,23.327,5.173,24,6,24h12c0.827,0,1.5-0.673,1.5-1.5
			C19.5,21.122,18.378,20,17,20z"/>
	</g>
</g>
</svg>
