<?xml version="1.0" encoding="utf-8"?>
<!-- Generator: Adobe Illustrator 19.0.0, SVG Export Plug-In . SVG Version: 6.00 Build 0)  -->
<svg version="1.1" id="Layer_1" xmlns="http://www.w3.org/2000/svg" xmlns:xlink="http://www.w3.org/1999/xlink" x="0px" y="0px"
	 viewBox="0 0 30 30" style="enable-background:new 0 0 30 30;" xml:space="preserve">
<g>
	<g>
		<path d="M22,2.5H7C6.7,2.5,6.5,2.3,6.5,2S6.7,1.5,7,1.5h15c0.3,0,0.5,0.2,0.5,0.5S22.3,2.5,22,2.5z"/>
	</g>
	<g>
		<path d="M8,21.5c-0.1,0-0.1,0-0.2,0c-0.3-0.1-0.4-0.4-0.3-0.6l7-19c0.1-0.3,0.4-0.4,0.6-0.3c0.3,0.1,0.4,0.4,0.3,0.6l-7,19
			C8.4,21.4,8.2,21.5,8,21.5z"/>
	</g>
	<g>
		<path d="M18,25.5H3c-0.3,0-0.5-0.2-0.5-0.5s0.2-0.5,0.5-0.5h15c0.3,0,0.5,0.2,0.5,0.5S18.3,25.5,18,25.5z"/>
	</g>
	<g>
		<path d="M27,28.5c-0.1,0-0.3,0-0.4-0.1l-7-7c-0.2-0.2-0.2-0.5,0-0.7s0.5-0.2,0.7,0l7,7c0.2,0.2,0.2,0.5,0,0.7
			C27.3,28.5,27.1,28.5,27,28.5z"/>
	</g>
	<g>
		<path d="M20,28.5c-0.1,0-0.3,0-0.4-0.1c-0.2-0.2-0.2-0.5,0-0.7l7-7c0.2-0.2,0.5-0.2,0.7,0s0.2,0.5,0,0.7l-7,7
			C20.3,28.5,20.1,28.5,20,28.5z"/>
	</g>
</g>
</svg>
