<?xml version="1.0" encoding="utf-8"?>
<!-- Generator: Adobe Illustrator 19.0.0, SVG Export Plug-In . SVG Version: 6.00 Build 0)  -->
<svg version="1.1" id="Layer_1" xmlns="http://www.w3.org/2000/svg" xmlns:xlink="http://www.w3.org/1999/xlink" x="0px" y="0px"
	 viewBox="0 0 30 30" style="enable-background:new 0 0 30 30;" xml:space="preserve">
<path d="M29.7,6.1c-0.6-2.2-2.1-4-3.9-5.1c-1.2-0.7-2.7-1-4.2-1c-3.2,0-6.1,1.6-7.5,4.2c-2,3.7-1.1,10.5,1.4,13L13.3,18
	c-0.2,0.1-0.3,0.2-0.3,0.5c0,0.2,0.1,0.4,0.3,0.5l1.7,0.7l-1.6,7.9l-1.8-5.4l1-0.2c0.2,0,0.3-0.2,0.4-0.3c0.1-0.2,0-0.4-0.1-0.5
	l-1.4-1.4c0.1-0.1,0.3-0.1,0.4-0.2c0.2-0.1,0.3-0.4,0.3-0.6C12,18.7,12,18.6,12,18.4c0-0.6,0.4-1.2,1-1.4l0.2-0.1
	c0.1,0,0.3-0.2,0.3-0.3s0-0.3,0-0.4c-1.9-3.6-2.1-9.3-0.4-12.5c0.1-0.1,0.1-0.2,0.2-0.3l0.1-0.2c0.1-0.2,0.1-0.5-0.1-0.7
	C11.4,1.3,9.1,0.7,6.9,1c-2,0.2-3.8,1.4-5.1,3.1C0.3,6.2-0.3,9,0.2,11.5c0.8,4.4,6,8.5,9.6,8.6L9,21.8C9,22,9,22.2,9.1,22.3
	c0.1,0.1,0.2,0.2,0.4,0.2c0,0,0.1,0,0.1,0l1-0.2l2.4,7.3c0.1,0.2,0.3,0.3,0.5,0.3c0,0,0,0,0,0c0.2,0,0.4-0.2,0.5-0.4l1.9-9.5
	l0.9,0.4c0.1,0,0.1,0,0.2,0c0.1,0,0.2,0,0.3-0.1c0.1-0.1,0.2-0.3,0.2-0.5l-0.3-1.6c0.4,0.1,0.9,0.2,1.4,0.2c3.4,0,8.4-2.3,10.3-5.7
	C30,10.7,30.3,8.4,29.7,6.1z M7.3,4C5.8,4.2,4.8,5.1,4.2,5.9c-1,1.4-1.5,3.3-1.1,5c0.1,0.3-0.1,0.5-0.4,0.6c0,0-0.1,0-0.1,0
	c-0.2,0-0.4-0.2-0.5-0.4c-0.4-2,0.1-4.2,1.3-5.8C4.1,4.4,5.3,3.2,7.2,3c0.3,0,0.5,0.2,0.6,0.4C7.8,3.7,7.6,3.9,7.3,4z M25,3.5
	c-0.1,0.2-0.4,0.3-0.7,0.2C23.5,3.2,22.5,3,21.5,3c-1.7,0-3.8,0.7-4.9,2.7c-0.1,0.2-0.3,0.3-0.4,0.3c-0.1,0-0.2,0-0.2-0.1
	c-0.2-0.1-0.3-0.4-0.2-0.7C17.1,2.8,19.6,2,21.5,2c1.2,0,2.3,0.3,3.2,0.8C25,2.9,25.1,3.2,25,3.5z"/>
</svg>
