<?xml version="1.0" encoding="utf-8"?>
<!-- Generator: Adobe Illustrator 19.0.0, SVG Export Plug-In . SVG Version: 6.00 Build 0)  -->
<svg version="1.1" id="Layer_1" xmlns="http://www.w3.org/2000/svg" xmlns:xlink="http://www.w3.org/1999/xlink" x="0px" y="0px"
	 viewBox="0 0 30 30" style="enable-background:new 0 0 30 30;" xml:space="preserve">
<path d="M30,5C30,5,30,5,30,5c0-0.1,0-0.2-0.1-0.2c0,0,0,0,0,0c0,0,0,0,0,0c0,0-0.1-0.1-0.1-0.1c0,0,0,0-0.1,0
	c-0.1,0-0.1-0.1-0.2-0.1H23c-3.3,0-6.3,2.5-8,4.3c-2.1-2.1-5.2-4.3-8.2-4.3H0.5c-0.2,0-0.3,0.1-0.4,0.2C0,4.9,0,5.1,0.1,5.2
	c3.5,6.6,6.4,9.3,9.9,9.3c1.8,0,3.7-1.1,4.9-1.9l0.1,0l0.1,0c1.2,0.7,3.1,1.9,4.9,1.9c3.3,0,5.9-2.2,9-7.6V25c0,0.3,0.2,0.5,0.5,0.5
	S30,25.3,30,25L30,5C30,5,30,5,30,5z M20,11.5c-0.8,0-1.8-0.5-2.6-0.9c1.2-1.2,3.4-3.1,5.6-3.1h2.1C22.8,11,21.2,11.5,20,11.5z
	 M6.8,7.5c2,0,4.3,1.6,5.8,3.1c-0.7,0.4-1.8,0.9-2.5,0.9c-1.2,0-2.7-0.5-5.1-4H6.8z"/>
</svg>
