<?xml version="1.0" encoding="utf-8"?>
<!-- Generator: Adobe Illustrator 19.0.0, SVG Export Plug-In . SVG Version: 6.00 Build 0)  -->
<svg version="1.1" id="Layer_1" xmlns="http://www.w3.org/2000/svg" xmlns:xlink="http://www.w3.org/1999/xlink" x="0px" y="0px"
	 viewBox="0 0 30 30" style="enable-background:new 0 0 30 30;" xml:space="preserve">
<path d="M18,10h-2.2L15,7.9c0.1-2,2.9-6.9,6.5-6.9C21.8,1,22,0.8,22,0.5S21.8,0,21.5,0c-4.3,0-7.4,5.4-7.5,7.9L13.2,10h-1.4
	C5.6,10,0,16.1,0,22.9C0,29.7,3.3,30,3.4,30c0,0,0.2,0,0.5,0c1.1,0,4.9-0.4,7-5.2c0.6-0.5,1.8-0.8,3.3-0.8c0.4,0,0.7,0,0.8,0
	c0,0,0.3,0,0.7,0c1.5,0,2.8,0.3,3.3,0.8c2.1,4.7,5.5,5.2,6.8,5.2c0.4,0,0.6,0,0.6,0c0.3,0,3.5-0.3,3.5-7C30,16.2,24.3,10,18,10z
	 M21,14c0.6,0,1,0.4,1,1s-0.4,1-1,1s-1-0.4-1-1S20.4,14,21,14z M16.5,13h1c0.3,0,0.5,0.2,0.5,0.5S17.8,14,17.5,14h-1
	c-0.3,0-0.5-0.2-0.5-0.5S16.2,13,16.5,13z M7,18.5c0,0.2-0.1,0.4-0.3,0.5c-0.1,0-0.1,0-0.2,0c-0.1,0-0.3-0.1-0.4-0.1l-1-1
	c-0.2-0.2-0.2-0.5,0-0.7l1-1C6.3,16,6.5,15.9,6.7,16C6.9,16.1,7,16.3,7,16.5V18.5z M9.9,19.8l-1,1C8.8,20.9,8.6,21,8.5,21
	s-0.3,0-0.4-0.1l-1-1C7,19.7,7,19.5,7,19.3S7.3,19,7.5,19h2c0.2,0,0.4,0.1,0.5,0.3S10,19.7,9.9,19.8z M10,15.7
	C9.9,15.9,9.7,16,9.5,16h-2c-0.2,0-0.4-0.1-0.5-0.3s0-0.4,0.1-0.5l1-1c0.2-0.2,0.5-0.2,0.7,0l1,1C10,15.3,10,15.5,10,15.7z
	 M10.9,18.8c-0.1,0.1-0.2,0.1-0.4,0.1c-0.1,0-0.1,0-0.2,0c-0.2-0.1-0.3-0.3-0.3-0.5v-2c0-0.2,0.1-0.4,0.3-0.5c0.2-0.1,0.4,0,0.5,0.1
	l1,1c0.2,0.2,0.2,0.5,0,0.7L10.9,18.8z M12.5,21h-1c-0.3,0-0.5-0.2-0.5-0.5s0.2-0.5,0.5-0.5h1c0.3,0,0.5,0.2,0.5,0.5
	S12.8,21,12.5,21z M12.5,14h-1c-0.3,0-0.5-0.2-0.5-0.5s0.2-0.5,0.5-0.5h1c0.3,0,0.5,0.2,0.5,0.5S12.8,14,12.5,14z M17.5,21h-1
	c-0.3,0-0.5-0.2-0.5-0.5s0.2-0.5,0.5-0.5h1c0.3,0,0.5,0.2,0.5,0.5S17.8,21,17.5,21z M19,18c-0.6,0-1-0.4-1-1s0.4-1,1-1s1,0.4,1,1
	S19.6,18,19,18z M21,20c-0.6,0-1-0.4-1-1s0.4-1,1-1s1,0.4,1,1S21.6,20,21,20z M23,18c-0.6,0-1-0.4-1-1s0.4-1,1-1s1,0.4,1,1
	S23.6,18,23,18z"/>
</svg>
