<?xml version="1.0" encoding="iso-8859-1"?>
<!-- Generator: Adobe Illustrator 19.0.0, SVG Export Plug-In . SVG Version: 6.00 Build 0)  -->
<svg version="1.1" id="Layer_1" xmlns="http://www.w3.org/2000/svg" xmlns:xlink="http://www.w3.org/1999/xlink" x="0px" y="0px"
	 viewBox="0 0 24 24" style="enable-background:new 0 0 24 24;" xml:space="preserve">
<g>
	<path d="M21.5,1h-19C1.121,1,0,2.122,0,3.5v17C0,21.878,1.121,23,2.5,23h19c1.379,0,2.5-1.122,2.5-2.5v-17
		C24,2.122,22.879,1,21.5,1z M2.5,2h19C22.327,2,23,2.673,23,3.5V5H1V3.5C1,2.673,1.673,2,2.5,2z M21.5,22h-19
		C1.673,22,1,21.327,1,20.5V6h22v14.5C23,21.327,22.327,22,21.5,22z"/>
	<circle cx="2.5" cy="3.5" r="0.5"/>
	<circle cx="4.5" cy="3.5" r="0.5"/>
	<circle cx="6.5" cy="3.5" r="0.5"/>
	<path d="M12,8.018c-3.85,0-6.981,2.684-6.981,5.982S8.15,19.982,12,19.982c0.714,0,1.427-0.097,2.12-0.287l2.141,1.224
		c0.074,0.042,0.157,0.063,0.239,0.063c0.106,0,0.213-0.036,0.3-0.105c0.154-0.123,0.218-0.329,0.16-0.517l-0.529-1.745
		c1.604-1.132,2.55-2.833,2.55-4.615C18.981,10.702,15.85,8.018,12,8.018z M15.611,18.005c-0.183,0.115-0.267,0.339-0.204,0.547
		l0.281,0.928l-1.266-0.724c-0.073-0.042-0.156-0.063-0.239-0.063c-0.047,0-0.094,0.007-0.14,0.021
		c-0.667,0.202-1.355,0.304-2.043,0.304c-3.319,0-6.019-2.251-6.019-5.018S8.681,8.982,12,8.982s6.019,2.251,6.019,5.018
		C18.019,15.583,17.141,17.043,15.611,18.005z"/>
	<circle cx="9" cy="14" r="1"/>
	<circle cx="12" cy="14" r="1"/>
	<circle cx="15" cy="14" r="1"/>
</g>
</svg>
