<?xml version="1.0" encoding="iso-8859-1"?>
<!-- Generator: Adobe Illustrator 19.0.0, SVG Export Plug-In . SVG Version: 6.00 Build 0)  -->
<svg version="1.1" id="Layer_1" xmlns="http://www.w3.org/2000/svg" xmlns:xlink="http://www.w3.org/1999/xlink" x="0px" y="0px"
	 viewBox="0 0 24 24" style="enable-background:new 0 0 24 24;" xml:space="preserve">
<g>
	<path d="M18.5,13c-3.033,0-5.5,2.468-5.5,5.5s2.467,5.5,5.5,5.5s5.5-2.468,5.5-5.5S21.533,13,18.5,13z M18.5,23
		c-2.481,0-4.5-2.019-4.5-4.5s2.019-4.5,4.5-4.5s4.5,2.019,4.5,4.5S20.981,23,18.5,23z"/>
	<path d="M19,18.1v-2.038c0.551,0.134,0.968,0.479,1.002,0.884c0.023,0.275,0.272,0.481,0.54,0.456
		c0.275-0.023,0.479-0.265,0.456-0.54C20.908,15.801,19.835,15,18.501,15c0,0,0,0-0.001,0l0,0c0,0,0,0-0.001,0
		C17.121,15.001,16,15.897,16,17c0,0.938,0.656,1.57,2,1.9v2.038c-0.551-0.134-0.968-0.479-1.002-0.884
		c-0.023-0.274-0.262-0.473-0.54-0.456c-0.275,0.023-0.479,0.265-0.456,0.54C16.092,21.199,17.165,22,18.499,22c0,0,0,0,0.001,0l0,0
		c0,0,0,0,0.001,0C19.879,21.999,21,21.103,21,20C21,19.063,20.345,18.432,19,18.1z M17,17c0-0.425,0.425-0.795,1-0.936v1.803
		C17.333,17.676,17,17.398,17,17z M19,20.936v-1.803c0.666,0.192,1,0.47,1,0.867C20,20.425,19.575,20.795,19,20.936z"/>
	<path d="M11.5,21h-9C1.673,21,1,20.327,1,19.5V5h20v7c0,0.276,0.224,0.5,0.5,0.5S22,12.276,22,12V2.5C22,1.121,20.878,0,19.5,0h-17
		C1.122,0,0,1.121,0,2.5v17C0,20.879,1.122,22,2.5,22h9c0.276,0,0.5-0.224,0.5-0.5S11.776,21,11.5,21z M2.5,1h17
		C20.327,1,21,1.673,21,2.5V4H1V2.5C1,1.673,1.673,1,2.5,1z"/>
	<circle cx="2.5" cy="2.5" r="0.5"/>
	<circle cx="4.5" cy="2.5" r="0.5"/>
	<circle cx="6.5" cy="2.5" r="0.5"/>
</g>
</svg>
