<?xml version="1.0" encoding="iso-8859-1"?>
<!-- Generator: Adobe Illustrator 19.0.0, SVG Export Plug-In . SVG Version: 6.00 Build 0)  -->
<svg version="1.1" id="Layer_1" xmlns="http://www.w3.org/2000/svg" xmlns:xlink="http://www.w3.org/1999/xlink" x="0px" y="0px"
	 viewBox="0 0 24 24" style="enable-background:new 0 0 24 24;" xml:space="preserve">
<g>
	<path d="M21.5,1h-19C1.122,1,0,2.122,0,3.5v17C0,21.878,1.122,23,2.5,23h19c1.378,0,2.5-1.122,2.5-2.5v-17
		C24,2.122,22.878,1,21.5,1z M2.5,2h19C22.327,2,23,2.673,23,3.5V5H1V3.5C1,2.673,1.673,2,2.5,2z M21.5,22h-19
		C1.673,22,1,21.327,1,20.5V6h22v14.5C23,21.327,22.327,22,21.5,22z"/>
	<circle cx="2.5" cy="3.5" r="0.5"/>
	<circle cx="4.5" cy="3.5" r="0.5"/>
	<circle cx="6.5" cy="3.5" r="0.5"/>
	<path d="M16.782,12.001l2.539-2.116c0.129-0.109,0.196-0.274,0.176-0.442c-0.02-0.168-0.122-0.314-0.273-0.39l-4-2
		c-0.161-0.08-0.352-0.068-0.501,0.031l-2.722,1.815L9.278,7.083c-0.149-0.099-0.34-0.111-0.501-0.031l-4,2
		c-0.151,0.076-0.253,0.222-0.273,0.39C4.484,9.61,4.551,9.776,4.68,9.884L7.219,12L4.68,14.116
		c-0.123,0.103-0.19,0.258-0.179,0.418s0.098,0.305,0.234,0.39L7.5,16.652V18.5c0,0.189,0.107,0.362,0.276,0.447l4,2
		C11.847,20.982,11.923,21,12,21s0.153-0.018,0.224-0.053l4-2c0.169-0.085,0.276-0.258,0.276-0.447v-1.848l2.765-1.728
		c0.136-0.085,0.223-0.23,0.234-0.39c0.01-0.16-0.056-0.315-0.179-0.418L16.782,12.001z M12,13.91L8.943,12L12,10.089L15.057,12
		L12,13.91z M15.036,8.077l3.057,1.528l-2.135,1.779l-3.036-1.898L15.036,8.077z M8.964,8.077l2.114,1.409l-3.036,1.898L5.907,9.605
		L8.964,8.077z M8.042,12.616l3.107,1.942l-2.191,1.826l-3.107-1.942L8.042,12.616z M15.5,18.191l-3.5,1.75l-3.5-1.75v-0.914
		l0.235,0.147C8.816,17.475,8.908,17.5,9,17.5c0.114,0,0.228-0.039,0.32-0.116L12,15.151l2.68,2.233
		C14.772,17.461,14.886,17.5,15,17.5c0.092,0,0.184-0.025,0.265-0.076l0.235-0.147V18.191z M15.042,16.384l-2.191-1.826l3.107-1.942
		l2.191,1.826L15.042,16.384z"/>
</g>
</svg>
