<?xml version="1.0" encoding="iso-8859-1"?>
<!-- Generator: Adobe Illustrator 19.0.0, SVG Export Plug-In . SVG Version: 6.00 Build 0)  -->
<svg version="1.1" id="Layer_1" xmlns="http://www.w3.org/2000/svg" xmlns:xlink="http://www.w3.org/1999/xlink" x="0px" y="0px"
	 viewBox="0 0 24 24" style="enable-background:new 0 0 24 24;" xml:space="preserve">
<g>
	<path d="M21,1H3C1.621,1,0.5,2.122,0.5,3.5v17C0.5,21.878,1.621,23,3,23h18c1.379,0,2.5-1.122,2.5-2.5v-17
		C23.5,2.122,22.379,1,21,1z M3,2h18c0.827,0,1.5,0.673,1.5,1.5V5h-21V3.5C1.5,2.673,2.173,2,3,2z M21,22H3
		c-0.827,0-1.5-0.673-1.5-1.5V18H3c0.276,0,0.5-0.224,0.5-0.5S3.276,17,3,17H1.5V6h21v11H21c-0.276,0-0.5,0.224-0.5,0.5
		S20.724,18,21,18h1.5v2.5C22.5,21.327,21.827,22,21,22z"/>
	<circle cx="3" cy="3.5" r="0.5"/>
	<circle cx="5" cy="3.5" r="0.5"/>
	<circle cx="7" cy="3.5" r="0.5"/>
	<path d="M8,17H6c-0.276,0-0.5,0.224-0.5,0.5S5.724,18,6,18h2c0.276,0,0.5-0.224,0.5-0.5S8.276,17,8,17z"/>
	<path d="M13,17h-2c-0.276,0-0.5,0.224-0.5,0.5S10.724,18,11,18h2c0.276,0,0.5-0.224,0.5-0.5S13.276,17,13,17z"/>
	<path d="M18,17h-2c-0.276,0-0.5,0.224-0.5,0.5S15.724,18,16,18h2c0.276,0,0.5-0.224,0.5-0.5S18.276,17,18,17z"/>
	<path d="M12.353,10.147c-0.043-0.043-0.094-0.073-0.147-0.097c-0.006-0.003-0.008-0.009-0.014-0.012c-0.001-0.001-0.003,0-0.004,0
		c-0.08-0.032-0.165-0.035-0.25-0.025c-0.023,0.003-0.043,0.007-0.065,0.013c-0.082,0.021-0.16,0.056-0.224,0.12
		c-0.001,0.001-0.002,0.001-0.002,0.001l-0.001,0.001l0,0l0,0l-1.999,1.999c-0.195,0.195-0.195,0.512,0,0.707s0.512,0.195,0.707,0
		l1.146-1.146V15.5c0,0.276,0.224,0.5,0.5,0.5s0.5-0.224,0.501-0.5v-3.791l1.145,1.145C13.744,12.951,13.872,13,14,13
		s0.256-0.049,0.353-0.146c0.195-0.195,0.195-0.512,0-0.707L12.353,10.147z"/>
</g>
</svg>
