<?xml version="1.0" encoding="iso-8859-1"?>
<!-- Generator: Adobe Illustrator 19.0.0, SVG Export Plug-In . SVG Version: 6.00 Build 0)  -->
<svg version="1.1" id="Layer_1" xmlns="http://www.w3.org/2000/svg" xmlns:xlink="http://www.w3.org/1999/xlink" x="0px" y="0px"
	 viewBox="0 0 24 24" style="enable-background:new 0 0 24 24;" xml:space="preserve">
<g>
	<path d="M18.5,13c-3.033,0-5.5,2.468-5.5,5.5s2.467,5.5,5.5,5.5s5.5-2.468,5.5-5.5S21.533,13,18.5,13z M18.5,23
		c-2.481,0-4.5-2.019-4.5-4.5s2.019-4.5,4.5-4.5s4.5,2.019,4.5,4.5S20.981,23,18.5,23z"/>
	<path d="M18.14,21.149C18.05,21.24,18,21.37,18,21.5s0.05,0.26,0.15,0.359C18.25,21.95,18.38,22,18.5,22
		c0.13,0,0.25-0.05,0.35-0.15c0.1-0.09,0.15-0.22,0.15-0.35s-0.05-0.26-0.15-0.361C18.66,20.96,18.34,20.96,18.14,21.149z"/>
	<path d="M18.499,15c-1.334,0-2.408,0.801-2.496,1.862c-0.023,0.275,0.181,0.517,0.456,0.54c0.278,0.02,0.517-0.181,0.54-0.456
		c0.043-0.521,0.717-0.946,1.5-0.946C19.312,16,20,16.458,20,17c0,0.488-0.474,0.803-1.491,0.99L18.4,18.011
		c-0.232,0.048-0.399,0.252-0.399,0.488l-0.001,1C18,19.775,18.223,20,18.5,20c0.276,0,0.5-0.224,0.5-0.499l0.001-0.593
		C20.328,18.597,21,17.955,21,17C21,15.897,19.878,15,18.499,15z"/>
	<path d="M11.5,21h-9C1.673,21,1,20.327,1,19.5V5h20v7c0,0.276,0.224,0.5,0.5,0.5S22,12.276,22,12V2.5C22,1.121,20.878,0,19.5,0h-17
		C1.122,0,0,1.121,0,2.5v17C0,20.879,1.122,22,2.5,22h9c0.276,0,0.5-0.224,0.5-0.5S11.776,21,11.5,21z M2.5,1h17
		C20.327,1,21,1.673,21,2.5V4H1V2.5C1,1.673,1.673,1,2.5,1z"/>
	<circle cx="2.5" cy="2.5" r="0.5"/>
	<circle cx="4.5" cy="2.5" r="0.5"/>
	<circle cx="6.5" cy="2.5" r="0.5"/>
</g>
</svg>
