<?xml version="1.0" encoding="iso-8859-1"?>
<!-- Generator: Adobe Illustrator 19.0.0, SVG Export Plug-In . SVG Version: 6.00 Build 0)  -->
<svg version="1.1" id="Layer_1" xmlns="http://www.w3.org/2000/svg" xmlns:xlink="http://www.w3.org/1999/xlink" x="0px" y="0px"
	 viewBox="0 0 24 24" style="enable-background:new 0 0 24 24;" xml:space="preserve">
<g>
	<path d="M21.5,0h-19C1.122,0,0,1.122,0,2.5v13C0,16.878,1.122,18,2.5,18h2C4.776,18,5,17.776,5,17.5S4.776,17,4.5,17h-2
		C1.673,17,1,16.327,1,15.5V5h22v10.5c0,0.827-0.673,1.5-1.5,1.5h-11c-0.276,0-0.5,0.224-0.5,0.5s0.224,0.5,0.5,0.5h11
		c1.378,0,2.5-1.122,2.5-2.5v-13C24,1.122,22.878,0,21.5,0z M1,4V2.5C1,1.673,1.673,1,2.5,1h19C22.327,1,23,1.673,23,2.5V4H1z"/>
	<circle cx="2.5" cy="2.5" r="0.5"/>
	<circle cx="4.5" cy="2.5" r="0.5"/>
	<circle cx="6.5" cy="2.5" r="0.5"/>
	<path d="M8.5,21h-8C0.224,21,0,21.224,0,21.5v2C0,23.776,0.224,24,0.5,24h8C8.776,24,9,23.776,9,23.5v-2C9,21.224,8.776,21,8.5,21z
		 M8,23H1v-1h7V23z"/>
	<path d="M5.146,19.854C5.244,19.951,5.372,20,5.5,20s0.256-0.049,0.353-0.146L13,12.707V15.5c0,0.276,0.224,0.5,0.5,0.5
		s0.5-0.224,0.5-0.5v-4c0-0.038-0.014-0.072-0.022-0.107c-0.006-0.027-0.006-0.056-0.017-0.082
		c-0.051-0.124-0.149-0.222-0.273-0.273c-0.026-0.011-0.054-0.01-0.082-0.017C13.572,11.014,13.538,11,13.5,11h-4
		C9.224,11,9,11.224,9,11.5S9.224,12,9.5,12h2.793l-7.147,7.147C4.951,19.342,4.951,19.659,5.146,19.854z"/>
</g>
</svg>
