<?xml version="1.0" encoding="iso-8859-1"?>
<!-- Generator: Adobe Illustrator 19.0.0, SVG Export Plug-In . SVG Version: 6.00 Build 0)  -->
<svg version="1.1" id="Layer_1" xmlns="http://www.w3.org/2000/svg" xmlns:xlink="http://www.w3.org/1999/xlink" x="0px" y="0px"
	 viewBox="0 0 24 24" style="enable-background:new 0 0 24 24;" xml:space="preserve">
<g>
	<path d="M21.5,0.5h-19C1.121,0.5,0,1.622,0,3v18c0,1.378,1.121,2.5,2.5,2.5h19c1.379,0,2.5-1.122,2.5-2.5V3
		C24,1.622,22.879,0.5,21.5,0.5z M2.5,1.5h19C22.327,1.5,23,2.173,23,3v1.5H1V3C1,2.173,1.673,1.5,2.5,1.5z M21.5,22.5h-19
		C1.673,22.5,1,21.827,1,21V5.5h22V21C23,21.827,22.327,22.5,21.5,22.5z"/>
	<circle cx="2.5" cy="3" r="0.5"/>
	<circle cx="4.5" cy="3" r="0.5"/>
	<circle cx="6.5" cy="3" r="0.5"/>
	<path d="M19.146,16.94C19.673,16.263,20,15.423,20,14.5c0-2.206-1.794-4-4-4s-4,1.794-4,4s1.794,4,4,4
		c0.922,0,1.762-0.326,2.439-0.853l2.707,2.707c0.098,0.097,0.226,0.146,0.354,0.146s0.256-0.049,0.353-0.146
		c0.195-0.195,0.195-0.512,0-0.707L19.146,16.94z M13,14.5c0-1.654,1.346-3,3-3s3,1.346,3,3s-1.346,3-3,3S13,16.154,13,14.5z"/>
	<path d="M2.5,8.5h5C7.776,8.5,8,8.276,8,8S7.776,7.5,7.5,7.5h-5C2.224,7.5,2,7.724,2,8S2.224,8.5,2.5,8.5z"/>
	<path d="M10.5,8.5h3C13.776,8.5,14,8.276,14,8s-0.224-0.5-0.5-0.5h-3C10.224,7.5,10,7.724,10,8S10.224,8.5,10.5,8.5z"/>
	<path d="M21.5,7.5h-5C16.224,7.5,16,7.724,16,8s0.224,0.5,0.5,0.5h5C21.776,8.5,22,8.276,22,8S21.776,7.5,21.5,7.5z"/>
	<path d="M2.5,11.5h3C5.776,11.5,6,11.276,6,11s-0.224-0.5-0.5-0.5h-3C2.224,10.5,2,10.724,2,11S2.224,11.5,2.5,11.5z"/>
	<path d="M8.5,11.5h4c0.276,0,0.5-0.224,0.5-0.5s-0.224-0.5-0.5-0.5h-4C8.224,10.5,8,10.724,8,11S8.224,11.5,8.5,11.5z"/>
	<path d="M10.5,13.5h-3C7.224,13.5,7,13.724,7,14s0.224,0.5,0.5,0.5h3c0.276,0,0.5-0.224,0.5-0.5S10.776,13.5,10.5,13.5z"/>
	<path d="M2.5,14.5h2C4.776,14.5,5,14.276,5,14s-0.224-0.5-0.5-0.5h-2C2.224,13.5,2,13.724,2,14S2.224,14.5,2.5,14.5z"/>
	<path d="M2.5,17.5h6C8.776,17.5,9,17.276,9,17s-0.224-0.5-0.5-0.5h-6C2.224,16.5,2,16.724,2,17S2.224,17.5,2.5,17.5z"/>
	<path d="M10.5,19.5h-8C2.224,19.5,2,19.724,2,20s0.224,0.5,0.5,0.5h8c0.276,0,0.5-0.224,0.5-0.5S10.776,19.5,10.5,19.5z"/>
</g>
</svg>
