<?xml version="1.0" encoding="iso-8859-1"?>
<!-- Generator: Adobe Illustrator 19.0.0, SVG Export Plug-In . SVG Version: 6.00 Build 0)  -->
<svg version="1.1" id="Layer_1" xmlns="http://www.w3.org/2000/svg" xmlns:xlink="http://www.w3.org/1999/xlink" x="0px" y="0px"
	 viewBox="0 0 24 24" style="enable-background:new 0 0 24 24;" xml:space="preserve">
<g>
	<path d="M21.5,1.5h-19C1.121,1.5,0,2.622,0,4v16c0,1.378,1.121,2.5,2.5,2.5h19c1.379,0,2.5-1.122,2.5-2.5V4
		C24,2.622,22.879,1.5,21.5,1.5z M2.5,2.5h19C22.327,2.5,23,3.173,23,4v1.5H1V4C1,3.173,1.673,2.5,2.5,2.5z M1,20V6.5h8v15H2.5
		C1.673,21.5,1,20.827,1,20z M21.5,21.5H10v-15h13V20C23,20.827,22.327,21.5,21.5,21.5z"/>
	<circle cx="2.5" cy="4" r="0.5"/>
	<circle cx="4.5" cy="4" r="0.5"/>
	<circle cx="6.5" cy="4" r="0.5"/>
	<path d="M2.5,8.5h3C5.776,8.5,6,8.276,6,8S5.776,7.5,5.5,7.5h-3C2.224,7.5,2,7.724,2,8S2.224,8.5,2.5,8.5z"/>
	<path d="M4,10c0,0.276,0.224,0.5,0.5,0.5h3C7.776,10.5,8,10.276,8,10S7.776,9.5,7.5,9.5h-3C4.224,9.5,4,9.724,4,10z"/>
	<path d="M7.5,11.5h-3C4.224,11.5,4,11.724,4,12s0.224,0.5,0.5,0.5h3C7.776,12.5,8,12.276,8,12S7.776,11.5,7.5,11.5z"/>
	<path d="M7.5,13.5h-3C4.224,13.5,4,13.724,4,14s0.224,0.5,0.5,0.5h3C7.776,14.5,8,14.276,8,14S7.776,13.5,7.5,13.5z"/>
	<path d="M6,16c0-0.276-0.224-0.5-0.5-0.5h-3C2.224,15.5,2,15.724,2,16c0,0.276,0.224,0.5,0.5,0.5h3C5.776,16.5,6,16.276,6,16z"/>
	<path d="M7.5,17.5h-3C4.224,17.5,4,17.724,4,18s0.224,0.5,0.5,0.5h3C7.776,18.5,8,18.276,8,18S7.776,17.5,7.5,17.5z"/>
	<path d="M7.5,19.5h-3C4.224,19.5,4,19.724,4,20s0.224,0.5,0.5,0.5h3C7.776,20.5,8,20.276,8,20S7.776,19.5,7.5,19.5z"/>
	<path d="M21.5,8.5h-10C11.224,8.5,11,8.724,11,9v4c0,0.276,0.224,0.5,0.5,0.5h10c0.276,0,0.5-0.224,0.5-0.5V9
		C22,8.724,21.776,8.5,21.5,8.5z M21,12.5h-9v-3h9V12.5z"/>
	<path d="M21.5,14.5h-10c-0.276,0-0.5,0.224-0.5,0.5v4c0,0.276,0.224,0.5,0.5,0.5h10c0.276,0,0.5-0.224,0.5-0.5v-4
		C22,14.724,21.776,14.5,21.5,14.5z M21,18.5h-9v-3h9V18.5z"/>
</g>
</svg>
