<?xml version="1.0" encoding="utf-8"?>
<!-- Generator: Adobe Illustrator 19.0.0, SVG Export Plug-In . SVG Version: 6.00 Build 0)  -->
<svg version="1.1" id="Layer_1" xmlns="http://www.w3.org/2000/svg" xmlns:xlink="http://www.w3.org/1999/xlink" x="0px" y="0px"
	 viewBox="0 0 30 30" style="enable-background:new 0 0 30 30;" xml:space="preserve">
<g>
	<path d="M29.5,7.5h-29C0.2,7.5,0,7.7,0,8v14c0,0.3,0.2,0.5,0.5,0.5h29c0.3,0,0.5-0.2,0.5-0.5V8C30,7.7,29.8,7.5,29.5,7.5z M11,18
		c0,0.2-0.1,0.4-0.4,0.5c0,0-0.1,0-0.1,0c-0.2,0-0.3-0.1-0.4-0.2L7,13.7V18c0,0.3-0.2,0.5-0.5,0.5S6,18.3,6,18v-6
		c0-0.2,0.1-0.4,0.4-0.5c0.2-0.1,0.4,0,0.6,0.2l3.1,4.6V12c0-0.3,0.2-0.5,0.5-0.5S11,11.7,11,12V18z M15.5,14.5
		c0.3,0,0.5,0.2,0.5,0.5s-0.2,0.5-0.5,0.5H13v2h2.5c0.3,0,0.5,0.2,0.5,0.5s-0.2,0.5-0.5,0.5h-3c-0.3,0-0.5-0.2-0.5-0.5v-6
		c0-0.3,0.2-0.5,0.5-0.5h3c0.3,0,0.5,0.2,0.5,0.5s-0.2,0.5-0.5,0.5H13v2H15.5z M23,18.1c0,0.2-0.2,0.4-0.4,0.4c0,0-0.1,0-0.1,0
		c-0.2,0-0.4-0.1-0.4-0.3l-1.6-3.1l-1.6,3.1c-0.1,0.2-0.3,0.3-0.5,0.3c-0.2,0-0.4-0.2-0.4-0.4l-1-6c0-0.3,0.1-0.5,0.4-0.6
		c0.3,0,0.5,0.1,0.6,0.4l0.7,4.5l1.3-2.6c0.2-0.3,0.7-0.3,0.9,0l1.3,2.6l0.7-4.5c0-0.3,0.3-0.5,0.6-0.4c0.3,0,0.5,0.3,0.4,0.6
		L23,18.1z"/>
</g>
</svg>
