<?xml version="1.0" encoding="utf-8"?>
<!-- Generator: Adobe Illustrator 19.0.0, SVG Export Plug-In . SVG Version: 6.00 Build 0)  -->
<svg version="1.1" id="Layer_1" xmlns="http://www.w3.org/2000/svg" xmlns:xlink="http://www.w3.org/1999/xlink" x="0px" y="0px"
	 viewBox="0 0 30 30" style="enable-background:new 0 0 30 30;" xml:space="preserve">
<g>
	<path d="M28.7,0.1c-0.1-0.1-0.3-0.1-0.5,0l-6,3c-0.1,0.1-0.2,0.2-0.3,0.4L21,10c-1.1,0-2.2,0.2-3.2,0.4c0-0.1,0-0.1,0-0.2l-0.3-1v0
		L18,9.1c0.3-0.1,0.4-0.3,0.4-0.6c-0.1-0.3-0.3-0.4-0.6-0.4l-1.9,0.5c-0.3,0.1-0.4,0.3-0.4,0.6c0.1,0.2,0.3,0.4,0.5,0.4
		c0,0,0.1,0,0.1,0l0.5-0.1l0,0l0.3,1c0,0,0,0.1,0.1,0.1c-1.3,0.3-2.6,0.8-3.8,1.4c0-0.1,0-0.2-0.1-0.4l-0.5-0.9l0,0l0.4-0.3
		c0.2-0.1,0.3-0.4,0.2-0.7c-0.1-0.2-0.4-0.3-0.7-0.2l-1.7,1c-0.2,0.1-0.3,0.4-0.2,0.7c0.1,0.2,0.3,0.3,0.4,0.3c0.1,0,0.2,0,0.3-0.1
		l0.4-0.3v0l0.5,0.9c0.1,0.1,0.2,0.2,0.3,0.2c-1.2,0.7-2.4,1.5-3.5,2.5c0,0,0-0.1-0.1-0.1L8.1,14l0,0l0.4-0.4c0.2-0.2,0.2-0.5,0-0.7
		s-0.5-0.2-0.7,0l-1.4,1.4c-0.2,0.2-0.2,0.5,0,0.7c0.1,0.1,0.2,0.1,0.4,0.1s0.3,0,0.4-0.1l0.4-0.4l0,0l0.7,0.7c0,0,0.1,0.1,0.1,0.1
		c-0.9,0.9-1.8,2-2.5,3.1c0,0,0-0.1-0.1-0.1L4.8,18h0L5,17.6c0.1-0.2,0.1-0.5-0.2-0.7c-0.2-0.1-0.5-0.1-0.7,0.2l-1,1.7
		c-0.1,0.2-0.1,0.5,0.2,0.7c0.1,0,0.2,0.1,0.3,0.1c0.2,0,0.3-0.1,0.4-0.3l0.3-0.4l0,0l0.9,0.5c0,0,0.1,0,0.1,0
		C4.5,20.5,4,21.7,3.5,23c0,0-0.1-0.1-0.1-0.1l-1-0.3l0,0l0.1-0.5c0.1-0.3-0.1-0.5-0.4-0.6c-0.3-0.1-0.5,0.1-0.6,0.4l-0.5,1.9
		c-0.1,0.3,0.1,0.5,0.4,0.6c0,0,0.1,0,0.1,0c0.2,0,0.4-0.1,0.5-0.4l0.1-0.5l1,0.3c0,0,0.1,0,0.1,0c-0.5,1.8-0.8,3.7-0.8,5.6
		c0,0.3,0.2,0.5,0.5,0.5h25.5c0.3,0,0.5-0.2,0.5-0.5v-29C28.9,0.3,28.8,0.2,28.7,0.1z M24.6,21l-18,5c0,0-0.1,0-0.1,0
		c-0.2,0-0.4-0.1-0.5-0.4C5.9,25.4,6,25.1,6.3,25l18-5c0.3-0.1,0.5,0.1,0.6,0.3C25,20.6,24.8,20.9,24.6,21z"/>
</g>
</svg>
