<?xml version="1.0" encoding="utf-8"?>
<!-- Generator: Adobe Illustrator 19.0.0, SVG Export Plug-In . SVG Version: 6.00 Build 0)  -->
<svg version="1.1" id="Layer_1" xmlns="http://www.w3.org/2000/svg" xmlns:xlink="http://www.w3.org/1999/xlink" x="0px" y="0px"
	 viewBox="0 0 30 30" style="enable-background:new 0 0 30 30;" xml:space="preserve">
<g>
	<g>
		<g>
			<path d="M24.5,24H21v-3h2.5c0.3,0,0.5-0.2,0.5-0.5S23.8,20,23.5,20H21v-3h3.5c0.3,0,0.5-0.2,0.5-0.5S24.8,16,24.5,16h-4
				c-0.3,0-0.5,0.2-0.5,0.5v8c0,0.3,0.2,0.5,0.5,0.5h4c0.3,0,0.5-0.2,0.5-0.5S24.8,24,24.5,24z"/>
		</g>
		<g>
			<path d="M18.5,24H16v-7.5c0-0.3-0.2-0.5-0.5-0.5S15,16.2,15,16.5v8c0,0.3,0.2,0.5,0.5,0.5h3c0.3,0,0.5-0.2,0.5-0.5
				S18.8,24,18.5,24z"/>
		</g>
		<g>
			<path d="M12,16.4c-0.1-0.2-0.2-0.4-0.5-0.4c-0.2,0-0.4,0.1-0.5,0.4l-2.5,8c-0.1,0.3,0.1,0.5,0.3,0.6c0,0,0.1,0,0.1,0
				c0.2,0,0.4-0.1,0.5-0.4l0.8-2.7c0.1,0,0.1,0,0.2,0h1.9l0.7,2.6c0.1,0.3,0.3,0.4,0.6,0.4c0.3-0.1,0.4-0.3,0.4-0.6L12,16.4z
				 M10.6,21l0.8-2.7l0.7,2.7H10.6z"/>
		</g>
		<g>
			<path d="M5.6,20l-0.2,0C4.7,19.8,4,19.5,4,18.5C4,17.6,4.6,17,5.4,17C6.2,17,7,17.7,7,18.5C7,18.8,7.2,19,7.5,19
				C7.8,19,8,18.7,8,18.5C7.9,17.2,6.7,16,5.4,16C4,16,3,17.1,3,18.5c0,1.3,0.7,2.1,2.2,2.5l0.1,0C6.1,21.2,7,21.5,7,22.5
				C7,23.3,6.2,24,5.4,24C4.5,24,4,23.2,4,22.5C4,22.2,3.7,22,3.5,22C3.2,22,3,22.3,3,22.5C3.1,23.9,4.1,25,5.4,25
				C6.8,25,8,23.9,8,22.5C8,21.2,7.2,20.4,5.6,20z"/>
		</g>
	</g>
	<g>
		<path d="M26.3,26H3.7C1.9,26,0,27.8,0,29.5C0,29.8,0.2,30,0.5,30h29c0.3,0,0.5-0.2,0.5-0.5C30,27.8,28.1,26,26.3,26z"/>
	</g>
	<g>
		<path d="M5,15c1,0,2-0.5,2.5-1.3C8,14.5,9,15,10,15c1,0,2-0.5,2.5-1.3C13,14.5,14,15,15,15s2-0.5,2.5-1.3C18,14.5,19,15,20,15
			c1,0,2-0.5,2.5-1.4C23,14.5,24,15,25,15c1.7,0,3-1.3,3-3c0-0.1,0-0.1,0-0.2l-3-6.4l0,0l0-0.1C24.9,5.1,24.7,5,24.5,5h-3h-4h-5h-4
			h-3C5.3,5,5.1,5.1,5,5.3l-3,6.5c0,0.1,0,0.1,0,0.2C2,13.7,3.3,15,5,15z"/>
	</g>
	<g>
		<path d="M24.5,4c0.2,0,0.3,0,0.5,0.1V3c0-1.7-1.3-3-3-3H8C6.3,0,5,1.3,5,3v1.1C5.2,4,5.3,4,5.5,4H24.5z"/>
	</g>
</g>
</svg>
