<?xml version="1.0" encoding="utf-8"?>
<!-- Generator: Adobe Illustrator 19.0.0, SVG Export Plug-In . SVG Version: 6.00 Build 0)  -->
<svg version="1.1" id="Layer_1" xmlns="http://www.w3.org/2000/svg" xmlns:xlink="http://www.w3.org/1999/xlink" x="0px" y="0px"
	 viewBox="0 0 30 30" style="enable-background:new 0 0 30 30;" xml:space="preserve">
<path d="M24,17.5V10c0-0.8-0.7-1.5-1.5-1.5S21,9.2,21,10v1c0,0.3-0.2,0.5-0.5,0.5S20,11.3,20,11v-1V8c0-0.8-0.7-1.5-1.5-1.5
	S17,7.2,17,8v2c0,0.3-0.2,0.5-0.5,0.5S16,10.3,16,10V8V7c0-0.8-0.7-1.5-1.5-1.5S13,6.2,13,7v1v2c0,0.3-0.2,0.5-0.5,0.5
	S12,10.3,12,10V8c0-0.8-0.7-1.5-1.5-1.5S9,7.2,9,8v6c0,0.3-0.2,0.5-0.5,0.5S8,14.3,8,14v-1.9L7,13c-0.7,0.6-1,1.4-1,2.3v1.9
	c0,0.9,0.4,1.7,1,2.3L9.7,22c1.7,1.6,4.1,2.5,6.6,2.5C20.6,24.5,24,21.4,24,17.5z"/>
</svg>
