<?xml version="1.0" encoding="utf-8"?>
<!-- Generator: Adobe Illustrator 19.0.0, SVG Export Plug-In . SVG Version: 6.00 Build 0)  -->
<svg version="1.1" id="Layer_1" xmlns="http://www.w3.org/2000/svg" xmlns:xlink="http://www.w3.org/1999/xlink" x="0px" y="0px"
	 viewBox="0 0 30 30" style="enable-background:new 0 0 30 30;" xml:space="preserve">
<g>
	<path d="M2.9,0.1C2.7,0,2.5,0,2.3,0C2.1,0.1,2,0.3,2,0.5v29c0,0.2,0.1,0.4,0.3,0.5c0.1,0,0.1,0,0.2,0c0.1,0,0.3-0.1,0.4-0.2
		l7.9-8.8h11.8c0.2,0,0.4-0.1,0.5-0.3s0-0.4-0.1-0.5L2.9,0.1z"/>
	<path d="M21,0c-3.9,0-7,3.1-7,7s3.1,7,7,7s7-3.1,7-7S24.9,0,21,0z M27,7c0,1.5-0.5,2.8-1.4,3.9l-8.4-8.4C18.2,1.5,19.5,1,21,1
		C24.3,1,27,3.7,27,7z M15,7c0-1.5,0.5-2.8,1.4-3.9l8.4,8.4c-1,0.9-2.4,1.4-3.9,1.4C17.7,13,15,10.3,15,7z"/>
</g>
</svg>
