<?xml version="1.0" encoding="iso-8859-1"?>
<!-- Generator: Adobe Illustrator 19.0.0, SVG Export Plug-In . SVG Version: 6.00 Build 0)  -->
<svg version="1.1" id="Layer_1" xmlns="http://www.w3.org/2000/svg" xmlns:xlink="http://www.w3.org/1999/xlink" x="0px" y="0px"
	 viewBox="0 0 30 30" style="enable-background:new 0 0 30 30;" xml:space="preserve">
<g>
	<g>
		<path d="M15.001,0c-14.355,0-15,24.836-15,25.087C0.001,27.462,1.292,30,4.914,30c2.79,0,4.163-1.499,4.813-2.676l0.203,0.915
			c0.23,1.037,1.133,1.76,2.194,1.76c0.412,0,0.81-0.171,1.091-0.47l0.501-0.53h2.565l0.478,0.517
			c0.282,0.307,0.685,0.483,1.117,0.483c1.061,0,1.964-0.724,2.194-1.76l0.203-0.915C20.923,28.501,22.296,30,25.086,30
			c3.622,0,4.913-2.538,4.913-4.913C30.001,24.836,29.356,0,15.001,0z M15.001,7c1.475,0,2.92,0.541,4.209,1.399
			c-1.136,0.064-2.103,0.243-2.9,0.399C15.783,8.902,15.284,9,15.001,9c-0.283,0-0.782-0.098-1.31-0.201
			c-0.801-0.157-1.773-0.337-2.917-0.4C12.066,7.54,13.517,7,15.001,7z M9.471,9.415c0.291-0.035,0.536-0.045,0.53-0.045
			c1.398,0,2.563,0.228,3.498,0.411c0.602,0.118,1.121,0.22,1.502,0.22c0.381,0,0.9-0.102,1.501-0.22
			c0.936-0.183,2.101-0.411,3.483-0.411c0.007,0,0.242,0.01,0.522,0.043c0.717,0.655,1.35,1.407,1.879,2.202
			c-0.695-0.379-1.476-0.614-2.319-0.614c-1.266,0-2.321,0.207-3.263,0.392c-0.684,0.135-1.273,0.251-1.804,0.251
			c-0.531,0-1.12-0.116-1.813-0.253c-0.933-0.183-1.988-0.39-3.254-0.39c-0.854,0-1.646,0.241-2.348,0.63
			C8.115,10.83,8.75,10.073,9.471,9.415z M9.337,25.611c-0.435,0.8-3.067,1.13-5.036,0.632c-0.954-0.242-1.3-0.577-1.3-0.744
			c0-0.518,0.396-1.313,0.853-2.232c0.263-0.528,0.554-1.125,0.837-1.781c1.167,1.18,2.673,1.925,4.316,2.136
			c0.007,0.324,0.041,0.647,0.111,0.962l0.226,1.018C9.342,25.606,9.339,25.608,9.337,25.611z M9.09,22.627
			c-1.547-0.21-2.956-0.966-3.992-2.162c0.222-0.611,0.422-1.271,0.579-1.987c0.813,1.424,2.295,2.4,4.041,2.493
			C9.409,21.484,9.197,22.042,9.09,22.627z M20.127,20.004l-0.422-0.049l-0.875-1.52c0.296,0.037,0.595,0.065,0.899,0.065
			c1.253,0,2.272-1.122,2.272-2.5s-1.02-2.5-2.272-2.5c-0.967,0-1.803,0.183-2.612,0.359c-0.722,0.158-1.404,0.307-2.115,0.307
			s-1.394-0.149-2.115-0.307c-0.81-0.177-1.646-0.359-2.612-0.359c-1.253,0-2.272,1.122-2.272,2.5s1.02,2.5,2.272,2.5
			c0.304,0,0.603-0.028,0.9-0.065l-0.877,1.526L9.935,20c-2.165,0-3.927-1.789-3.932-3.989c0.014-0.32,0.063-0.648,0.129-0.978
			C6.56,13.296,8.097,12,9.936,12c1.168,0,2.174,0.197,3.069,0.373c0.704,0.139,1.369,0.27,1.997,0.27
			c0.628,0,1.293-0.131,2.005-0.272C17.895,12.197,18.901,12,20.069,12c1.816,0,3.333,1.264,3.784,2.968
			c0.075,0.352,0.131,0.701,0.149,1.041C23.997,18.211,22.235,20.001,20.127,20.004z M24.333,18.464
			c0.159,0.717,0.359,1.378,0.581,1.989c-1.037,1.203-2.45,1.962-4.002,2.173c-0.106-0.588-0.318-1.146-0.623-1.649
			C22.026,20.897,23.518,19.908,24.333,18.464z M25.701,26.243c-1.967,0.499-4.601,0.169-5.036-0.632
			c-0.002-0.004-0.005-0.006-0.007-0.009l0.226-1.018c0.07-0.315,0.104-0.638,0.111-0.962c1.647-0.211,3.157-0.961,4.325-2.145
			c0.281,0.653,0.569,1.248,0.828,1.774c0.477,0.965,0.853,1.727,0.853,2.248C27.001,25.666,26.655,26.001,25.701,26.243z"/>
	</g>
</g>
</svg>
