<?xml version="1.0" encoding="iso-8859-1"?>
<!-- Generator: Adobe Illustrator 19.0.0, SVG Export Plug-In . SVG Version: 6.00 Build 0)  -->
<svg version="1.1" id="Layer_1" xmlns="http://www.w3.org/2000/svg" xmlns:xlink="http://www.w3.org/1999/xlink" x="0px" y="0px"
	 viewBox="0 0 30 30" style="enable-background:new 0 0 30 30;" xml:space="preserve">
<g>
	<g>
		<path d="M14.581,22.5L13,23.026v4.852C13,29.047,13.898,30,15,30c1.103,0,2-0.952,2-2.121v-4.852L15.419,22.5H14.581z M9.615,25
			H5.385C4.07,25,3,26.07,3,27.385v0.229C3,28.93,4.07,30,5.385,30H11.5c0.276,0,0.5-0.224,0.5-0.5v-2.114
			C12,26.07,10.93,25,9.615,25z M15,7c-2.757,0-5,2.243-5,5s2.243,5,5,5c2.757,0,5-2.243,5-5S17.758,7,15,7z M15,10
			c-1.103,0-2,0.897-2,2c0,0.276-0.224,0.5-0.5,0.5S12,12.276,12,12c0-1.654,1.346-3,3-3c0.276,0,0.5,0.224,0.5,0.5S15.276,10,15,10
			z M29.99,13.06c-0.001-0.012,0.005-0.024,0.002-0.037l-0.231-1.333c-0.012-0.069-0.038-0.134-0.077-0.192
			c-0.317-0.476-0.842-0.768-1.404-0.781c-0.522-0.012-1.627-0.49-2.331-1.505C25.98,9.146,26,9.076,26,9V0.5
			C26,0.224,25.776,0,25.5,0S25,0.224,25,0.5v6.367C23.274,2.698,19.445,0,15,0C9.976,0,5.727,3.445,4.448,8.513
			c-0.592,1.508-2.093,2.189-2.729,2.204c-0.562,0.014-1.086,0.306-1.404,0.781C0.276,11.555,0.25,11.62,0.239,11.69l-0.231,1.333
			c-0.002,0.013,0.004,0.024,0.002,0.037C0.008,13.076,0,13.091,0,13.109c0,0.032,0.016,0.06,0.019,0.091
			c0.005,0.027,0.007,0.053,0.016,0.079c0.357,1.796,6.195,2.471,9.096,2.694l1.882,5.61c0.175,0.523,0.741,0.805,1.264,0.631
			l2.065-0.688c0.051-0.017,0.105-0.026,0.159-0.026h0.997c0.054,0,0.108,0.009,0.159,0.026l2.065,0.688
			c0.523,0.174,1.089-0.108,1.264-0.631l1.882-5.61c2.901-0.223,8.739-0.898,9.096-2.694c0.009-0.026,0.011-0.052,0.016-0.079
			C29.984,13.169,30,13.141,30,13.109C30,13.091,29.992,13.076,29.99,13.06z M1.443,13.466l6.58-1.038
			c0.054,0.889,0.273,1.732,0.63,2.502C4.505,14.573,2.305,13.927,1.443,13.466z M15,18c-3.309,0-6-2.691-6-6s2.691-6,6-6
			c3.309,0,6,2.691,6,6S18.31,18,15,18z M21.349,14.93c0.357-0.769,0.575-1.612,0.63-2.501l6.58,1.037
			C27.695,13.927,25.495,14.573,21.349,14.93z M24.555,25h-4.11C19.097,25,18,26.096,18,27.445V29.5c0,0.276,0.224,0.5,0.5,0.5
			h6.055C25.904,30,27,28.903,27,27.555v-0.11C27,26.096,25.904,25,24.555,25z"/>
	</g>
</g>
</svg>
