<?xml version="1.0" encoding="utf-8"?>
<!-- Generator: Adobe Illustrator 19.0.0, SVG Export Plug-In . SVG Version: 6.00 Build 0)  -->
<svg version="1.1" id="Layer_1" xmlns="http://www.w3.org/2000/svg" xmlns:xlink="http://www.w3.org/1999/xlink" x="0px" y="0px"
	 viewBox="0 0 30 30" style="enable-background:new 0 0 30 30;" xml:space="preserve">
<g>
	<rect x="9.5" y="3" width="1" height="3"/>
	<rect x="3.5" y="17" width="2" height="3"/>
	<rect x="11.5" y="3" width="1" height="3"/>
	<rect x="9.5" y="10" width="1" height="3"/>
	<rect x="19.5" y="3" width="1" height="3"/>
	<rect x="11.5" y="10" width="1" height="3"/>
	<rect x="17.5" y="3" width="1" height="3"/>
	<rect x="17.5" y="10" width="1" height="3"/>
	<rect x="24.5" y="17" width="2" height="3"/>
	<path d="M29,13h-4.5V1H25c0.3,0,0.5-0.2,0.5-0.5S25.3,0,25,0H5C4.7,0,4.5,0.2,4.5,0.5S4.7,1,5,1h0.5v12H1c-0.3,0-0.5,0.2-0.5,0.5
		v10C0.5,23.8,0.7,24,1,24h8.9l-1.3,5.4c0,0.1,0,0.3,0.1,0.4C8.7,29.9,8.8,30,9,30h12c0.2,0,0.3-0.1,0.4-0.2
		c0.1-0.1,0.1-0.3,0.1-0.4L20.1,24H29c0.3,0,0.5-0.2,0.5-0.5v-10C29.5,13.2,29.3,13,29,13z M9,9h4c0.3,0,0.5,0.2,0.5,0.5v4
		c0,0.3-0.2,0.5-0.5,0.5H9c-0.3,0-0.5-0.2-0.5-0.5v-4C8.5,9.2,8.7,9,9,9z M8.5,6.5v-4C8.5,2.2,8.7,2,9,2h4c0.3,0,0.5,0.2,0.5,0.5v4
		C13.5,6.8,13.3,7,13,7H9C8.7,7,8.5,6.8,8.5,6.5z M18.5,23v-6h-3v6h-1v-6h-3v6h-1v-6.5c0-0.3,0.2-0.5,0.5-0.5h8
		c0.3,0,0.5,0.2,0.5,0.5V23H18.5z M17,14c-0.3,0-0.5-0.2-0.5-0.5v-4C16.5,9.2,16.7,9,17,9h4c0.3,0,0.5,0.2,0.5,0.5v4
		c0,0.3-0.2,0.5-0.5,0.5H17z M21,7h-4c-0.3,0-0.5-0.2-0.5-0.5v-4C16.5,2.2,16.7,2,17,2h4c0.3,0,0.5,0.2,0.5,0.5v4
		C21.5,6.8,21.3,7,21,7z M9.5,20.5C9.5,20.8,9.3,21,9,21H3c-0.3,0-0.5-0.2-0.5-0.5v-4C2.5,16.2,2.7,16,3,16h6c0.3,0,0.5,0.2,0.5,0.5
		V20.5z M27.5,20.5c0,0.3-0.2,0.5-0.5,0.5h-6c-0.3,0-0.5-0.2-0.5-0.5v-4c0-0.3,0.2-0.5,0.5-0.5h6c0.3,0,0.5,0.2,0.5,0.5V20.5z"/>
	<rect x="6.5" y="17" width="2" height="3"/>
	<rect x="21.5" y="17" width="2" height="3"/>
	<rect x="19.5" y="10" width="1" height="3"/>
</g>
</svg>
