<?xml version="1.0" encoding="utf-8"?>
<!-- Generator: Adobe Illustrator 19.0.0, SVG Export Plug-In . SVG Version: 6.00 Build 0)  -->
<svg version="1.1" id="Layer_1" xmlns="http://www.w3.org/2000/svg" xmlns:xlink="http://www.w3.org/1999/xlink" x="0px" y="0px"
	 viewBox="0 0 30 30" style="enable-background:new 0 0 30 30;" xml:space="preserve">
<g>
	<rect x="21.5" y="8" width="4" height="3"/>
	<rect x="5.5" y="20" width="15" height="2"/>
	<path d="M5.5,25.5C5.5,25.8,5.7,26,6,26h14c0.3,0,0.5-0.2,0.5-0.5V23h-15V25.5z"/>
	<path d="M21.5,16H25c0.3,0,0.5-0.2,0.5-0.5V12h-4V16z"/>
	<path d="M28,5c-0.7,0-1.2,0.4-1.4,1h-1.3c-0.3-0.9-1.1-1.6-2-1.9C23.2,4.1,23.1,4,23,4h-0.5H19H9.8C8.2,4,6.9,4.8,6.1,6
		c0,0-0.1,0-0.1,0H3.4C3.2,5.4,2.7,5,2,5C1.2,5,0.5,5.7,0.5,6.5S1.2,8,2,8c0.7,0,1.2-0.4,1.4-1h2.3C5.6,7.4,5.5,7.8,5.5,8.3V19h15
		v-3V7c0-0.2,0-0.3,0.1-0.5c0,0,0,0,0-0.1c0-0.2,0.1-0.3,0.2-0.4c0.3-0.6,1-1,1.7-1C22.8,5,23,5.2,23,5.5S22.8,6,22.5,6
		c-0.6,0-1,0.4-1,1h4h1.1c0.2,0.6,0.8,1,1.4,1c0.8,0,1.5-0.7,1.5-1.5S28.8,5,28,5z"/>
</g>
</svg>
