<?xml version="1.0" encoding="iso-8859-1"?>
<!-- Generator: Adobe Illustrator 19.0.0, SVG Export Plug-In . SVG Version: 6.00 Build 0)  -->
<svg version="1.1" id="Layer_1" xmlns="http://www.w3.org/2000/svg" xmlns:xlink="http://www.w3.org/1999/xlink" x="0px" y="0px"
	 viewBox="0 0 24 24" style="enable-background:new 0 0 24 24;" xml:space="preserve">
<g>
	<path d="M11.495,18.995l-5.589,0.931L3.08,3.911l17.013-2.835l2.103,11.913c0.048,0.272,0.31,0.453,0.579,0.405
		c0.271-0.048,0.453-0.307,0.405-0.579L20.992,0.414c-0.048-0.27-0.308-0.457-0.574-0.406l-6.269,1.045L1.542,0.002
		C1.399-0.01,1.273,0.035,1.172,0.123C1.07,0.212,1.008,0.338,1.001,0.473l-1,18c-0.015,0.265,0.179,0.496,0.443,0.525l4.369,0.486
		l0.195,1.104c0.043,0.242,0.253,0.413,0.491,0.413c0.027,0,0.056-0.002,0.083-0.007l6.077-1.013
		c0.272-0.045,0.457-0.303,0.411-0.575C12.024,19.134,11.761,18.949,11.495,18.995z M1.026,18.056L1.971,1.042l8.162,0.68
		L2.418,3.008C2.286,3.03,2.169,3.105,2.092,3.213S1.985,3.457,2.008,3.588l2.624,14.869L1.026,18.056z"/>
	<path d="M18.5,13.001c-3.032,0-5.5,2.467-5.5,5.5s2.468,5.5,5.5,5.5s5.5-2.467,5.5-5.5S21.532,13.001,18.5,13.001z M18.5,23.001
		c-2.481,0-4.5-2.019-4.5-4.5s2.019-4.5,4.5-4.5s4.5,2.019,4.5,4.5S20.981,23.001,18.5,23.001z"/>
	<path d="M20.5,18.001H19v-1.5c0-0.276-0.224-0.5-0.5-0.5s-0.5,0.224-0.5,0.5v1.5h-1.5c-0.276,0-0.5,0.224-0.5,0.5
		s0.224,0.5,0.5,0.5H18v1.5c0,0.276,0.224,0.5,0.5,0.5s0.5-0.224,0.5-0.5v-1.5h1.5c0.276,0,0.5-0.224,0.5-0.5
		S20.776,18.001,20.5,18.001z"/>
</g>
</svg>
