<?xml version="1.0" encoding="iso-8859-1"?>
<!-- Generator: Adobe Illustrator 19.0.0, SVG Export Plug-In . SVG Version: 6.00 Build 0)  -->
<svg version="1.1" id="Layer_1" xmlns="http://www.w3.org/2000/svg" xmlns:xlink="http://www.w3.org/1999/xlink" x="0px" y="0px"
	 viewBox="0 0 24 24" style="enable-background:new 0 0 24 24;" xml:space="preserve">
<g>
	<path d="M19.509,23.59c0.036-0.014,0.073-0.025,0.109-0.04c0.293-0.124,0.571-0.276,0.836-0.447
		c0.034-0.022,0.07-0.041,0.104-0.064c0.276-0.187,0.532-0.399,0.769-0.632c0.013-0.013,0.029-0.021,0.042-0.034
		c0.003-0.003,0.003-0.006,0.005-0.009c0.994-0.996,1.609-2.369,1.609-3.883c0-3.033-2.468-5.5-5.5-5.5s-5.5,2.467-5.5,5.5
		c0,1.514,0.615,2.887,1.609,3.883c0.003,0.003,0.003,0.007,0.005,0.009c0.013,0.013,0.029,0.022,0.043,0.035
		c0.236,0.231,0.49,0.442,0.764,0.627c0.036,0.025,0.075,0.045,0.112,0.069c0.264,0.17,0.54,0.321,0.832,0.445
		c0.037,0.016,0.075,0.026,0.112,0.041c0.297,0.118,0.606,0.215,0.926,0.28c0.021,0.004,0.042,0.006,0.062,0.009
		c0.336,0.064,0.681,0.101,1.035,0.101s0.7-0.037,1.036-0.101c0.02-0.004,0.041-0.005,0.061-0.009
		C18.902,23.805,19.211,23.708,19.509,23.59z M19.863,22.285c-0.088,0.055-0.183,0.1-0.275,0.15
		c-1.298,0.667-2.903,0.668-4.203,0.003c-0.096-0.051-0.194-0.098-0.285-0.155c-0.11-0.067-0.213-0.147-0.317-0.225
		c-0.08-0.06-0.155-0.125-0.231-0.19c0.528-1.14,1.667-1.886,2.932-1.886s2.404,0.746,2.931,1.886
		c-0.073,0.063-0.146,0.126-0.224,0.185C20.084,22.133,19.977,22.215,19.863,22.285z M17.484,18.981c-0.827,0-1.5-0.673-1.5-1.5
		s0.673-1.5,1.5-1.5s1.5,0.673,1.5,1.5S18.311,18.981,17.484,18.981z M17.484,13.981c2.481,0,4.5,2.019,4.5,4.5
		c0,0.978-0.322,1.877-0.854,2.616c-0.462-0.793-1.161-1.404-1.987-1.76c0.512-0.458,0.841-1.117,0.841-1.856
		c0-1.378-1.121-2.5-2.5-2.5s-2.5,1.122-2.5,2.5c0,0.739,0.329,1.397,0.84,1.856c-0.826,0.356-1.525,0.967-1.987,1.76
		c-0.532-0.739-0.853-1.638-0.853-2.616C12.984,16,15.003,13.981,17.484,13.981z"/>
	<path d="M14.016,3.519c0-0.651-0.419-1.201-1-1.408V1.019h3v1.092c-0.581,0.207-1,0.757-1,1.408c0,0.827,0.673,1.5,1.5,1.5
		s1.5-0.673,1.5-1.5c0-0.651-0.419-1.201-1-1.408V1.019h1.5c0.275,0,0.5,0.224,0.5,0.5v10c0,0.276,0.224,0.5,0.5,0.5
		s0.5-0.224,0.5-0.5v-10c0-0.827-0.673-1.5-1.5-1.5h-16c-0.827,0-1.5,0.673-1.5,1.5v19c0,0.827,0.673,1.5,1.5,1.5h8
		c0.276,0,0.5-0.224,0.5-0.5s-0.224-0.5-0.5-0.5h-8c-0.275,0-0.5-0.224-0.5-0.5v-19c0-0.276,0.225-0.5,0.5-0.5h1.5v1.092
		c-0.581,0.207-1,0.757-1,1.408c0,0.827,0.673,1.5,1.5,1.5s1.5-0.673,1.5-1.5c0-0.651-0.419-1.201-1-1.408V1.019h3v1.092
		c-0.581,0.207-1,0.757-1,1.408c0,0.827,0.673,1.5,1.5,1.5s1.5-0.673,1.5-1.5c0-0.651-0.419-1.201-1-1.408V1.019h3v1.092
		c-0.581,0.207-1,0.757-1,1.408c0,0.827,0.673,1.5,1.5,1.5C13.343,5.019,14.016,4.346,14.016,3.519z M16.516,4.019
		c-0.275,0-0.5-0.224-0.5-0.5s0.225-0.5,0.5-0.5s0.5,0.224,0.5,0.5S16.791,4.019,16.516,4.019z M4.516,4.019
		c-0.275,0-0.5-0.224-0.5-0.5s0.225-0.5,0.5-0.5s0.5,0.224,0.5,0.5S4.791,4.019,4.516,4.019z M8.516,4.019
		c-0.275,0-0.5-0.224-0.5-0.5s0.225-0.5,0.5-0.5s0.5,0.224,0.5,0.5S8.791,4.019,8.516,4.019z M12.016,3.519
		c0-0.276,0.225-0.5,0.5-0.5s0.5,0.224,0.5,0.5s-0.225,0.5-0.5,0.5S12.016,3.795,12.016,3.519z"/>
</g>
</svg>
