<?xml version="1.0" encoding="iso-8859-1"?>
<!-- Generator: Adobe Illustrator 19.0.0, SVG Export Plug-In . SVG Version: 6.00 Build 0)  -->
<svg version="1.1" id="Layer_1" xmlns="http://www.w3.org/2000/svg" xmlns:xlink="http://www.w3.org/1999/xlink" x="0px" y="0px"
	 viewBox="0 0 24 24" style="enable-background:new 0 0 24 24;" xml:space="preserve">
<g>
	<path d="M18.5,13.001c-3.033,0-5.5,2.467-5.5,5.5s2.467,5.5,5.5,5.5s5.5-2.467,5.5-5.5S21.533,13.001,18.5,13.001z M18.5,23.001
		c-2.481,0-4.5-2.019-4.5-4.5s2.019-4.5,4.5-4.5s4.5,2.019,4.5,4.5S20.981,23.001,18.5,23.001z"/>
	<path d="M18.15,21.151c-0.1,0.09-0.15,0.22-0.15,0.35c0,0.14,0.05,0.26,0.15,0.36c0.1,0.09,0.22,0.14,0.35,0.14
		s0.26-0.05,0.36-0.15c0.09-0.1,0.14-0.22,0.14-0.35s-0.05-0.26-0.15-0.36C18.66,20.961,18.34,20.961,18.15,21.151z"/>
	<path d="M18.499,15.001c-1.334,0-2.408,0.801-2.496,1.862c-0.023,0.275,0.181,0.517,0.456,0.54c0.278,0.031,0.517-0.181,0.54-0.456
		c0.043-0.522,0.717-0.946,1.5-0.946c0.813,0,1.501,0.458,1.501,1c0,0.487-0.474,0.802-1.491,0.99L18.4,18.012
		c-0.232,0.048-0.399,0.252-0.399,0.489l-0.001,1c0,0.275,0.223,0.5,0.5,0.5c0.276,0,0.5-0.223,0.5-0.5l0.001-0.592
		C20.328,18.597,21,17.956,21,17.001C21,15.898,19.878,15.001,18.499,15.001z"/>
	<path d="M11.494,18.995l-5.589,0.931L3.079,3.911l17.014-2.835l2.103,11.913c0.047,0.272,0.307,0.456,0.579,0.405
		c0.272-0.048,0.453-0.307,0.405-0.579L20.992,0.414c-0.047-0.27-0.306-0.454-0.574-0.406l-6.27,1.045L1.541,0.002
		c-0.135-0.016-0.268,0.033-0.37,0.121C1.069,0.212,1.007,0.338,1,0.473l-1,18c-0.015,0.265,0.18,0.496,0.444,0.525l4.369,0.486
		l0.195,1.104c0.043,0.242,0.254,0.413,0.492,0.413c0.027,0,0.054-0.002,0.08-0.007l6.078-1.013
		c0.272-0.045,0.456-0.303,0.411-0.575C12.024,19.134,11.765,18.947,11.494,18.995z M1.026,18.056L1.971,1.042l8.162,0.68
		L2.418,3.008C2.286,3.03,2.169,3.105,2.092,3.213S1.985,3.457,2.008,3.588l2.624,14.869L1.026,18.056z"/>
</g>
</svg>
