<?xml version="1.0" encoding="iso-8859-1"?>
<!-- Generator: Adobe Illustrator 19.0.0, SVG Export Plug-In . SVG Version: 6.00 Build 0)  -->
<svg version="1.1" id="Layer_1" xmlns="http://www.w3.org/2000/svg" xmlns:xlink="http://www.w3.org/1999/xlink" x="0px" y="0px"
	 viewBox="0 0 24 24" style="enable-background:new 0 0 24 24;" xml:space="preserve">
<g id="XMLID_12_">
	<g id="XMLID_13_">
		<path d="M15.5,24h-7C6.57,24,5,22.43,5,20.5v-17C5,1.57,6.57,0,8.5,0h7C17.43,0,19,1.57,19,3.5v17C19,22.43,17.43,24,15.5,24z
			 M8.5,1C7.121,1,6,2.122,6,3.5v17C6,21.878,7.121,23,8.5,23h7c1.379,0,2.5-1.122,2.5-2.5v-17C18,2.122,16.879,1,15.5,1H8.5z"/>
	</g>
	<g>
		<path d="M15.5,21h-7C8.224,21,8,20.776,8,20.5S8.224,20,8.5,20h7c0.276,0,0.5,0.224,0.5,0.5S15.776,21,15.5,21z"/>
	</g>
	<g>
		<path d="M12,7c-1.103,0-2-0.897-2-2s0.897-2,2-2s2,0.897,2,2S13.103,7,12,7z M12,4c-0.552,0-1,0.449-1,1s0.448,1,1,1s1-0.449,1-1
			S12.552,4,12,4z"/>
	</g>
	<g>
		<circle cx="15.5" cy="3.5" r="0.5"/>
	</g>
</g>
<g>
</g>
<g>
</g>
<g>
</g>
<g>
</g>
<g>
</g>
<g>
</g>
<g>
</g>
<g>
</g>
<g>
</g>
<g>
</g>
<g>
</g>
<g>
</g>
<g>
</g>
<g>
</g>
<g>
</g>
</svg>
