<?xml version="1.0" encoding="iso-8859-1"?>
<!-- Generator: Adobe Illustrator 19.0.0, SVG Export Plug-In . SVG Version: 6.00 Build 0)  -->
<svg version="1.1" id="Layer_1" xmlns="http://www.w3.org/2000/svg" xmlns:xlink="http://www.w3.org/1999/xlink" x="0px" y="0px"
	 viewBox="0 0 24 24" style="enable-background:new 0 0 24 24;" xml:space="preserve">
<g>
	<g>
		<g>
			<path d="M15.274,12.86c-0.066,0-0.133-0.013-0.197-0.041c-0.254-0.108-0.371-0.402-0.263-0.656L15.742,10H12.5
				c-0.169,0-0.327-0.085-0.419-0.228c-0.093-0.142-0.106-0.321-0.038-0.476L15.73,1H7.04l0.215,2.805
				C7.276,4.08,7.07,4.321,6.795,4.342c-0.262,0.017-0.516-0.184-0.537-0.46L6.002,0.538C5.991,0.399,6.038,0.262,6.133,0.16
				S6.36,0,6.5,0h10c0.169,0,0.327,0.085,0.419,0.228c0.093,0.142,0.106,0.321,0.038,0.476L13.27,9h3.23
				c0.168,0,0.325,0.084,0.417,0.225c0.093,0.141,0.108,0.318,0.043,0.472l-1.226,2.86C15.652,12.747,15.468,12.86,15.274,12.86z"/>
		</g>
		<g>
			<path style="fill:none;stroke:#000000;stroke-linecap:round;stroke-linejoin:round;stroke-miterlimit:10;" d="M6.993,6.907"/>
		</g>
		<g>
			<path style="fill:none;stroke:#000000;stroke-linecap:round;stroke-linejoin:round;stroke-miterlimit:10;" d="M14.426,14.34"/>
		</g>
		<g>
			<path d="M10.5,24c-0.026,0-0.053-0.002-0.079-0.006c-0.225-0.036-0.396-0.218-0.418-0.444L9.048,14H7.5
				c-0.261,0-0.479-0.201-0.498-0.461l-0.507-6.5C6.474,6.764,6.679,6.523,6.954,6.501c0.275-0.014,0.517,0.184,0.537,0.459
				L7.963,13H9.5c0.257,0,0.472,0.195,0.497,0.45l0.813,8.122l3.233-7.275c0.112-0.253,0.408-0.365,0.66-0.254
				c0.252,0.112,0.366,0.408,0.254,0.66l-4,9C10.876,23.886,10.695,24,10.5,24z"/>
		</g>
	</g>
	<g>
		<path d="M23.5,24c-0.128,0-0.256-0.049-0.354-0.146l-23-23c-0.195-0.195-0.195-0.512,0-0.707s0.512-0.195,0.707,0l23,23
			c0.195,0.195,0.195,0.512,0,0.707C23.756,23.951,23.628,24,23.5,24z"/>
	</g>
</g>
<g>
</g>
<g>
</g>
<g>
</g>
<g>
</g>
<g>
</g>
<g>
</g>
<g>
</g>
<g>
</g>
<g>
</g>
<g>
</g>
<g>
</g>
<g>
</g>
<g>
</g>
<g>
</g>
<g>
</g>
</svg>
