<?xml version="1.0" encoding="iso-8859-1"?>
<!-- Generator: Adobe Illustrator 19.0.0, SVG Export Plug-In . SVG Version: 6.00 Build 0)  -->
<svg version="1.1" id="Layer_1" xmlns="http://www.w3.org/2000/svg" xmlns:xlink="http://www.w3.org/1999/xlink" x="0px" y="0px"
	 viewBox="0 0 24 24" style="enable-background:new 0 0 24 24;" xml:space="preserve">
<g>
	<g>
		<path d="M22.5,22h-21C0.673,22,0,21.327,0,20.5v-15C0,4.673,0.673,4,1.5,4h21C23.327,4,24,4.673,24,5.5v15
			C24,21.327,23.327,22,22.5,22z M1.5,5C1.225,5,1,5.224,1,5.5v15C1,20.776,1.225,21,1.5,21h21c0.275,0,0.5-0.224,0.5-0.5v-15
			C23,5.224,22.775,5,22.5,5H1.5z"/>
	</g>
	<g>
		<path d="M5.5,5C5.224,5,5,4.776,5,4.5v-1C5,3.224,4.775,3,4.5,3h-2C2.225,3,2,3.224,2,3.5v1C2,4.776,1.776,5,1.5,5S1,4.776,1,4.5
			v-1C1,2.673,1.673,2,2.5,2h2C5.327,2,6,2.673,6,3.5v1C6,4.776,5.776,5,5.5,5z"/>
	</g>
	<g>
		<circle cx="21" cy="7" r="1"/>
	</g>
	<g>
		<path d="M12,16c-1.654,0-3-1.346-3-3s1.346-3,3-3s3,1.346,3,3S13.654,16,12,16z M12,11c-1.103,0-2,0.897-2,2s0.897,2,2,2
			s2-0.897,2-2S13.103,11,12,11z"/>
	</g>
	<g>
		<path d="M12,20c-3.859,0-7-3.14-7-7s3.141-7,7-7s7,3.14,7,7S15.859,20,12,20z M12,7c-3.309,0-6,2.691-6,6s2.691,6,6,6s6-2.691,6-6
			S15.309,7,12,7z"/>
	</g>
	<g>
		<path d="M18,11h-6c-0.276,0-0.5-0.224-0.5-0.5S11.724,10,12,10h6c0.276,0,0.5,0.224,0.5,0.5S18.276,11,18,11z"/>
	</g>
	<g>
		<path d="M12,16H6c-0.276,0-0.5-0.224-0.5-0.5S5.724,15,6,15h6c0.276,0,0.5,0.224,0.5,0.5S12.276,16,12,16z"/>
	</g>
	<g>
		<path d="M9.835,12.25c-0.085,0-0.171-0.021-0.25-0.067c-0.239-0.138-0.321-0.444-0.183-0.683l3-5.196
			c0.137-0.239,0.444-0.319,0.683-0.183c0.239,0.138,0.321,0.444,0.183,0.683l-3,5.196C10.176,12.16,10.007,12.25,9.835,12.25z"/>
	</g>
	<g>
		<path d="M11.165,19.946c-0.085,0-0.171-0.021-0.25-0.067c-0.239-0.138-0.321-0.444-0.183-0.683l3-5.196
			c0.138-0.239,0.443-0.319,0.683-0.183c0.239,0.138,0.321,0.444,0.183,0.683l-3,5.196C11.506,19.856,11.337,19.946,11.165,19.946z"
			/>
	</g>
	<g>
		<path d="M9.835,14.75c-0.172,0-0.341-0.089-0.433-0.25l-3-5.196C6.264,9.064,6.346,8.759,6.585,8.621
			c0.239-0.139,0.546-0.058,0.683,0.183l3,5.196c0.139,0.239,0.057,0.545-0.183,0.683C10.006,14.729,9.92,14.75,9.835,14.75z"/>
	</g>
	<g>
		<path d="M17.165,17.446c-0.172,0-0.341-0.089-0.433-0.25l-3-5.196c-0.139-0.239-0.057-0.545,0.183-0.683s0.546-0.057,0.683,0.183
			l3,5.196c0.139,0.239,0.057,0.545-0.183,0.683C17.336,17.425,17.25,17.446,17.165,17.446z"/>
	</g>
</g>
<g>
</g>
<g>
</g>
<g>
</g>
<g>
</g>
<g>
</g>
<g>
</g>
<g>
</g>
<g>
</g>
<g>
</g>
<g>
</g>
<g>
</g>
<g>
</g>
<g>
</g>
<g>
</g>
<g>
</g>
</svg>
