<?xml version="1.0" encoding="iso-8859-1"?>
<!-- Generator: Adobe Illustrator 19.0.0, SVG Export Plug-In . SVG Version: 6.00 Build 0)  -->
<svg version="1.1" id="Layer_1" xmlns="http://www.w3.org/2000/svg" xmlns:xlink="http://www.w3.org/1999/xlink" x="0px" y="0px"
	 viewBox="0 0 24 24" style="enable-background:new 0 0 24 24;" xml:space="preserve">
<g>
	<g>
		<g id="XMLID_144_">
			<path d="M11.998,19c-1.763,0-3.408-0.667-4.645-1.883C6.158,15.939,5.5,14.383,5.5,12.735c0-1.829,0.83-3.563,2.277-4.756
				c0.063-0.052,0.102-0.11,0.113-0.17C8.092,6.766,8.625,4,10.286,4h3.428c1.662,0,2.194,2.767,2.396,3.808
				c0.012,0.063,0.05,0.12,0.113,0.172c1.376,1.134,2.205,2.78,2.273,4.515c0.063,1.626-0.547,3.203-1.718,4.439
				c-1.218,1.286-2.921,2.038-4.673,2.065C12.069,19,12.034,19,11.998,19z M10.286,5c-0.313,0-0.91,0.389-1.413,2.997
				C8.817,8.289,8.658,8.549,8.414,8.751C7.197,9.753,6.5,11.206,6.5,12.735c0,1.378,0.553,2.681,1.556,3.668
				c1.068,1.052,2.49,1.622,4.034,1.595c1.485-0.022,2.929-0.661,3.963-1.752c0.983-1.039,1.497-2.357,1.443-3.712
				c-0.057-1.451-0.753-2.829-1.91-3.783c-0.244-0.202-0.402-0.462-0.459-0.755C14.625,5.389,14.026,5,13.714,5H10.286z"/>
		</g>
	</g>
	<g>
		<path d="M14,5c-0.276,0-0.5-0.224-0.5-0.5V1.914c0-0.131-0.054-0.26-0.146-0.354l-0.414-0.414C12.847,1.053,12.718,1,12.586,1
			h-1.172c-0.132,0-0.261,0.053-0.354,0.146l-0.414,0.414C10.554,1.654,10.5,1.783,10.5,1.914V4.5C10.5,4.776,10.276,5,10,5
			S9.5,4.776,9.5,4.5V1.914c0-0.4,0.156-0.777,0.439-1.061l0.414-0.414C10.633,0.16,11.02,0,11.414,0h1.172
			c0.395,0,0.781,0.16,1.061,0.439l0.414,0.414c0.283,0.283,0.439,0.66,0.439,1.061V4.5C14.5,4.776,14.276,5,14,5z"/>
	</g>
	<g>
		<path d="M12,24c-0.276,0-0.5-0.224-0.5-0.5v-3c0-0.276,0.224-0.5,0.5-0.5s0.5,0.224,0.5,0.5v3C12.5,23.776,12.276,24,12,24z"/>
	</g>
	<g>
		<path d="M6.5,22.526c-0.085,0-0.171-0.021-0.25-0.067c-0.239-0.138-0.321-0.444-0.183-0.683l1.5-2.598
			c0.138-0.239,0.444-0.319,0.683-0.183c0.239,0.138,0.321,0.444,0.183,0.683l-1.5,2.598C6.841,22.437,6.672,22.526,6.5,22.526z"/>
	</g>
	<g>
		<path d="M2.474,18.5c-0.172,0-0.341-0.09-0.433-0.25c-0.139-0.239-0.057-0.545,0.183-0.683l2.599-1.5
			c0.238-0.138,0.545-0.056,0.683,0.183c0.139,0.239,0.057,0.545-0.183,0.683l-2.599,1.5C2.645,18.479,2.559,18.5,2.474,18.5z"/>
	</g>
	<g>
		<path d="M17.5,22.526c-0.172,0-0.341-0.089-0.433-0.25l-1.5-2.598c-0.139-0.239-0.057-0.545,0.183-0.683
			c0.238-0.138,0.545-0.057,0.683,0.183l1.5,2.598c0.139,0.239,0.057,0.545-0.183,0.683C17.671,22.505,17.585,22.526,17.5,22.526z"
			/>
	</g>
	<g>
		<path d="M21.526,18.5c-0.085,0-0.171-0.021-0.25-0.067l-2.599-1.5c-0.239-0.138-0.321-0.444-0.183-0.683
			c0.138-0.238,0.443-0.32,0.683-0.183l2.599,1.5c0.239,0.138,0.321,0.444,0.183,0.683C21.867,18.41,21.698,18.5,21.526,18.5z"/>
	</g>
</g>
<g>
</g>
<g>
</g>
<g>
</g>
<g>
</g>
<g>
</g>
<g>
</g>
<g>
</g>
<g>
</g>
<g>
</g>
<g>
</g>
<g>
</g>
<g>
</g>
<g>
</g>
<g>
</g>
<g>
</g>
</svg>
