<?xml version="1.0" encoding="utf-8"?>
<!-- Generator: Adobe Illustrator 19.0.0, SVG Export Plug-In . SVG Version: 6.00 Build 0)  -->
<svg version="1.1" id="Layer_1" xmlns="http://www.w3.org/2000/svg" xmlns:xlink="http://www.w3.org/1999/xlink" x="0px" y="0px"
	 viewBox="0 0 30 30" style="enable-background:new 0 0 30 30;" xml:space="preserve">
<path d="M29.2,11.4c-0.1-0.6-0.3-1.1-0.5-1.6C26.8,3.9,21.3,0,15,0C7.7,0,1.5,5.3,0.5,12.4c0,0.2,0.1,0.5,0.3,0.5
	C1,13,1.3,13,1.4,12.8C5,7.2,10.8,6,15,6s6.2,2.5,6.5,5H9.6c0,0,0,0,0-0.1c0.2-0.8,0.4-1.5,0.8-2.2c0.1-0.2,0.1-0.4-0.1-0.6
	C10.2,8,10,8,9.8,8.1c-1.3,0.7-1.9,1.5-2.6,2.4C7,10.7,6.8,11,6.6,11.2c-1.3,1.7-2.1,4.1-2.1,6.8c0,5.4,4,10.2,9.8,11.6
	c1.1,0.3,2.3,0.4,3.8,0.4h0.1c0.7,0,1.3,0,1.9-0.1c2.3-0.3,4.5-1,6.2-2c0.2-0.1,0.2-0.3,0.2-0.4v-5c0-0.2-0.1-0.3-0.3-0.4
	s-0.3-0.1-0.5,0c-1.3,0.8-2.9,1.6-4.6,1.8C20.5,24,19.8,24,18.5,24c-5.2,0-7.8-2.3-8-7H29c0.3,0,0.5-0.2,0.5-0.5v-1.9
	C29.5,13.6,29.4,12.5,29.2,11.4z"/>
</svg>
