<?xml version="1.0" encoding="utf-8"?>
<!-- Generator: Adobe Illustrator 19.0.0, SVG Export Plug-In . SVG Version: 6.00 Build 0)  -->
<svg version="1.1" id="Layer_1" xmlns="http://www.w3.org/2000/svg" xmlns:xlink="http://www.w3.org/1999/xlink" x="0px" y="0px"
	 viewBox="0 0 30 30" style="enable-background:new 0 0 30 30;" xml:space="preserve">
<g>
	<path d="M22.5,0c-3.7,0-7,3.3-7,7c0,0.3,0,0.7,0.1,1.1c0.2,1,0.5,1.9,1,2.7c0.4,0.6,0.8,1.3,1.3,1.9c1.4,1.9,3.1,4.4,4.1,8.9
		c0,0.2,0.3,0.4,0.5,0.4s0.4-0.2,0.5-0.4c0.9-4.6,2.7-7,4.1-8.9c0.5-0.7,0.9-1.3,1.3-1.9c0.5-0.8,0.9-1.7,1.1-2.7
		c0.1-0.4,0.1-0.8,0.1-1.1C29.5,3.3,26.2,0,22.5,0z M22.5,5c1.1,0,2,0.9,2,2s-0.9,2-2,2c-1.1,0-2-0.9-2-2S21.3,5,22.5,5z"/>
	<path d="M28.2,13.5c-0.2-0.1-0.4,0-0.6,0.2c-1.4,1.9-2.8,4.2-3.6,8.1c-0.1,0.5-0.5,1-1,1.1c-0.2,0.1-0.3,0.2-0.3,0.4
		c0,0.2,0,0.3,0.1,0.5l4.7,4.5c0.1,0.1,0.2,0.1,0.3,0.1h0.1c0.2,0,0.3-0.2,0.4-0.3c0.1-0.4,0.2-0.7,0.2-1.1V13.9
		C28.5,13.7,28.3,13.5,28.2,13.5z"/>
	<path d="M15.1,16.2c0,0.1,0.1,0.3,0.2,0.4L20,21c0.1,0.1,0.2,0.1,0.3,0.1s0.2,0,0.3-0.1c0.2-0.1,0.3-0.3,0.2-0.6
		c-0.8-2.9-1.9-4.8-2.9-6.3c-0.1-0.1-0.2-0.2-0.4-0.2c-0.1,0-0.3,0-0.4,0.1l-1.7,1.7C15.1,16,15.1,16.1,15.1,16.2z"/>
	<path d="M14.6,17.3c-0.2-0.2-0.5-0.2-0.7,0L2.1,29C2,29.1,1.9,29.3,2,29.5s0.1,0.3,0.3,0.4C2.7,29.9,3,30,3.4,30h22
		c0.4,0,0.7-0.1,1.1-0.2c0.2-0.1,0.3-0.2,0.3-0.4c0-0.2,0-0.3-0.1-0.5L14.6,17.3z"/>
	<circle cx="5.9" cy="8.5" r="1.5"/>
	<path d="M16.5,12.6c-0.3-0.4-0.6-0.8-0.8-1.3c-0.6-0.9-1-1.9-1.2-3c-0.1-0.4-0.1-0.9-0.1-1.3c0-0.8,0.1-1.6,0.4-2.3
		c0.1-0.2,0-0.3-0.1-0.4S14.6,4,14.3,4H3.4c-1.7,0-3,1.3-3,3v20c0,0.4,0.1,0.7,0.2,1.1c0.1,0.2,0.2,0.3,0.4,0.3h0.1
		c0.1,0,0.3-0.1,0.4-0.1l15.1-15.1C16.8,13,16.8,12.8,16.5,12.6z M8.4,8.5c0,0.8-0.4,1.5-1,2l0,0c0,0.3,0.3,0.6,0.8,1
		c0.6,0.5,1.2,1,1.2,2c0,0.9-0.5,2.5-3.5,2.5c-1.6,0-2.5-0.9-2.5-2.5c0-1.2,1-2,3.1-2.4c0-0.1,0-0.1-0.1-0.2C6.3,11,6.1,11,5.9,11
		c-1.4,0-2.5-1.1-2.5-2.5S4.5,6,5.9,6h3c0.3,0,0.5,0.2,0.5,0.5S9.3,7,8.9,7h-1C8.3,7.4,8.4,7.9,8.4,8.5z"/>
	<path d="M4.4,13.5c0,1,0.5,1.5,1.5,1.5c2.5,0,2.5-1.1,2.5-1.5c0-0.5-0.3-0.8-0.9-1.3c-0.1-0.1-0.2-0.1-0.3-0.2
		C5.9,12.2,4.4,12.6,4.4,13.5z"/>
</g>
</svg>
