<?xml version="1.0" encoding="iso-8859-1"?>
<!-- Generator: Adobe Illustrator 19.0.0, SVG Export Plug-In . SVG Version: 6.00 Build 0)  -->
<svg version="1.1" id="Layer_1" xmlns="http://www.w3.org/2000/svg" xmlns:xlink="http://www.w3.org/1999/xlink" x="0px" y="0px"
	 viewBox="0 0 24 24" style="enable-background:new 0 0 24 24;" xml:space="preserve">
<g>
	<g>
		<path d="M16.5,17c-0.276,0-0.5,0.224-0.5,0.5V18H3V5h13v1.5C16,6.776,16.224,7,16.5,7S17,6.776,17,6.5v-3C17,1.57,15.43,0,13.5,0
			h-8C3.57,0,2,1.57,2,3.5v17C2,22.43,3.57,24,5.5,24h8c1.93,0,3.5-1.57,3.5-3.5v-3C17,17.224,16.776,17,16.5,17z M13.51,2h0.01
			c0.276,0,0.5,0.224,0.5,0.5S13.796,3,13.52,3s-0.505-0.224-0.505-0.5S13.234,2,13.51,2z M8.5,2h2C10.776,2,11,2.224,11,2.5
			S10.776,3,10.5,3h-2C8.224,3,8,2.776,8,2.5S8.224,2,8.5,2z M9.5,22c-0.552,0-1-0.449-1-1c0-0.551,0.448-1,1-1s1,0.449,1,1
			C10.5,21.551,10.052,22,9.5,22z M21.736,8.059c-0.163-0.087-0.36-0.077-0.514,0.025L19,9.566V8.5C19,8.224,18.776,8,18.5,8h-7
			c-1.458,0-1.5,3.591-1.5,4s0.042,4,1.5,4h7c0.276,0,0.5-0.224,0.5-0.5v-1.066l2.223,1.482C21.307,15.972,21.403,16,21.5,16
			c0.081,0,0.162-0.02,0.236-0.059C21.898,15.854,22,15.685,22,15.5v-7C22,8.315,21.898,8.146,21.736,8.059z"/>
	</g>
</g>
</svg>
