<?xml version="1.0" encoding="iso-8859-1"?>
<!-- Generator: Adobe Illustrator 19.0.0, SVG Export Plug-In . SVG Version: 6.00 Build 0)  -->
<svg version="1.1" id="Layer_1" xmlns="http://www.w3.org/2000/svg" xmlns:xlink="http://www.w3.org/1999/xlink" x="0px" y="0px"
	 viewBox="0 0 24 24" style="enable-background:new 0 0 24 24;" xml:space="preserve">
<g>
	<g>
		<path d="M18,0H6C4.622,0,3.5,1.122,3.5,2.5v19C3.5,22.878,4.622,24,6,24h12c1.378,0,2.5-1.122,2.5-2.5v-19
			C20.5,1.122,19.378,0,18,0z M13,22h-2c-0.276,0-0.5-0.224-0.5-0.5S10.724,21,11,21h2c0.276,0,0.5,0.224,0.5,0.5S13.276,22,13,22z
			 M19.5,19h-0.042c-0.2-1.445-1.249-2.648-2.698-3.01l-2.217-0.555l-0.144-0.574c0.583-0.611,0.989-1.416,1.136-2.249
			c0.36-0.148,0.629-0.481,0.68-0.888l0.152-1.218c0.039-0.313-0.057-0.627-0.264-0.865c-0.089-0.102-0.194-0.185-0.311-0.248
			l0.045-0.938l0.179-0.179c0.32-0.34,0.752-1.071,0.054-2.138c-0.34-0.52-1.045-1.139-2.47-1.139c-0.435,0-1.425,0-2.368,0.612
			c-2.726,0.076-3.081,1.44-3.081,2.627c0,0.25,0.052,0.758,0.094,1.134C8.116,9.435,7.998,9.524,7.901,9.635
			c-0.21,0.238-0.309,0.556-0.269,0.871l0.152,1.218c0.052,0.417,0.334,0.758,0.751,0.899c0.144,0.801,0.529,1.582,1.079,2.181
			l-0.157,0.63l-2.218,0.555c-1.448,0.362-2.497,1.564-2.698,3.01H4.5V2.5C4.5,1.673,5.173,1,6,1h12c0.827,0,1.5,0.673,1.5,1.5V19z
			 M6,2C5.724,2,5.5,2.224,5.5,2.5C5.5,2.776,5.724,3,6,3c0.276,0,0.5-0.224,0.5-0.5C6.5,2.224,6.276,2,6,2z"/>
	</g>
</g>
</svg>
