<?xml version="1.0" encoding="iso-8859-1"?>
<!-- Generator: Adobe Illustrator 19.0.0, SVG Export Plug-In . SVG Version: 6.00 Build 0)  -->
<svg version="1.1" id="Layer_1" xmlns="http://www.w3.org/2000/svg" xmlns:xlink="http://www.w3.org/1999/xlink" x="0px" y="0px"
	 viewBox="0 0 24 24" style="enable-background:new 0 0 24 24;" xml:space="preserve">
<g>
	<g>
		<path d="M21.5,21.5h-19C1.122,21.5,0,20.379,0,19V7c0-1.378,1.122-2.5,2.5-2.5h3.559c1.078,0,2.031,0.687,2.372,1.709l0.088,0.265
			C8.723,7.088,9.295,7.5,9.941,7.5H21.5c1.379,0,2.5,1.122,2.5,2.5v9C24,20.379,22.879,21.5,21.5,21.5z M2.5,5.5
			C1.673,5.5,1,6.173,1,7v12c0,0.827,0.673,1.5,1.5,1.5h19c0.827,0,1.5-0.673,1.5-1.5v-9c0-0.827-0.673-1.5-1.5-1.5H9.941
			c-1.078,0-2.031-0.687-2.372-1.709L7.481,6.525C7.277,5.912,6.705,5.5,6.059,5.5H2.5z"/>
	</g>
	<g>
		<path d="M22.5,8.5C22.224,8.5,22,8.276,22,8V5c0-0.827-0.673-1.5-1.5-1.5h-17C2.673,3.5,2,4.173,2,5c0,0.276-0.224,0.5-0.5,0.5
			S1,5.276,1,5c0-1.378,1.122-2.5,2.5-2.5h17C21.879,2.5,23,3.622,23,5v3C23,8.276,22.776,8.5,22.5,8.5z"/>
	</g>
</g>
<g>
</g>
<g>
</g>
<g>
</g>
<g>
</g>
<g>
</g>
<g>
</g>
<g>
</g>
<g>
</g>
<g>
</g>
<g>
</g>
<g>
</g>
<g>
</g>
<g>
</g>
<g>
</g>
<g>
</g>
</svg>
