<?xml version="1.0" encoding="iso-8859-1"?>
<!-- Generator: Adobe Illustrator 19.0.0, SVG Export Plug-In . SVG Version: 6.00 Build 0)  -->
<svg version="1.1" id="Layer_1" xmlns="http://www.w3.org/2000/svg" xmlns:xlink="http://www.w3.org/1999/xlink" x="0px" y="0px"
	 viewBox="0 0 24 24" style="enable-background:new 0 0 24 24;" xml:space="preserve">
<g>
	<g>
		<g>
			<path d="M22,19c-2.074,0-3.095-1.946-3.385-2.615C18.271,16.257,17.459,16,16.5,16s-1.771,0.257-2.115,0.385
				C14.095,17.054,13.074,19,11,19h-0.5c-0.276,0-0.5-0.224-0.5-0.5s0.224-0.5,0.5-0.5H11c1.739,0,2.521-2.145,2.528-2.166
				c0.046-0.128,0.141-0.232,0.264-0.289C13.841,15.523,15.002,15,16.5,15s2.659,0.523,2.708,0.545
				c0.123,0.057,0.218,0.161,0.264,0.289C19.479,15.855,20.262,18,22,18c0.247,0,1,0,1-2.5c0-0.854-0.83-5.5-4.5-5.5h-4
				c-1.515,0-2.713,0.777-3.563,2.309c-0.134,0.241-0.438,0.328-0.68,0.195c-0.241-0.134-0.329-0.438-0.195-0.68
				C11.087,9.977,12.622,9,14.5,9h4c4.196,0,5.5,4.765,5.5,6.5C24,17.822,23.327,19,22,19z"/>
		</g>
		<g>
			<circle cx="18.5" cy="12.5" r="0.5"/>
		</g>
		<g>
			<circle cx="19.5" cy="13.5" r="0.5"/>
		</g>
		<g>
			<circle cx="19.5" cy="11.5" r="0.5"/>
		</g>
		<g>
			<circle cx="20.5" cy="12.5" r="0.5"/>
		</g>
		<g>
			<g>
				<path d="M9.5,24c-0.723,0-1.433-0.129-2.111-0.382l-5.767-2.164C0.652,21.092,0,20.151,0,19.114V4.988
					c0-1.113,0.716-2.075,1.782-2.395l6.659-1.998l0,0C9.759,0.201,11.125,0,12.5,0C13.327,0,14,0.673,14,1.5v5.279
					c0,0.646-0.412,1.218-1.025,1.423l-1.633,0.544C11.137,8.814,11,9.005,11,9.221V22.5C11,23.327,10.327,24,9.5,24z M8.728,1.554
					L2.069,3.551C1.43,3.743,1,4.321,1,4.988v14.126c0,0.622,0.391,1.187,0.973,1.403l5.767,2.164C8.305,22.893,8.897,23,9.499,23
					C9.775,23,10,22.775,10,22.5V9.221c0-0.646,0.412-1.218,1.025-1.423l1.633-0.544C12.863,7.186,13,6.995,13,6.779V1.5
					C13,1.224,12.776,1,12.5,1C11.222,1,9.953,1.186,8.728,1.554L8.728,1.554z"/>
			</g>
			<g>
				<path d="M16.5,10C16.224,10,16,9.776,16,9.5v-5C16,3.673,15.327,3,14.5,3h-1C13.224,3,13,2.776,13,2.5S13.224,2,13.5,2h1
					C15.879,2,17,3.122,17,4.5v5C17,9.776,16.776,10,16.5,10z"/>
			</g>
			<g>
				<path d="M14.5,22h-4c-0.276,0-0.5-0.224-0.5-0.5s0.224-0.5,0.5-0.5h4c0.827,0,1.5-0.673,1.5-1.5v-4c0-0.276,0.224-0.5,0.5-0.5
					s0.5,0.224,0.5,0.5v4C17,20.879,15.879,22,14.5,22z"/>
			</g>
		</g>
	</g>
	<g>
		<path d="M13.5,14c-0.276,0-0.5-0.224-0.5-0.5v-2c0-0.276,0.224-0.5,0.5-0.5s0.5,0.224,0.5,0.5v2C14,13.776,13.776,14,13.5,14z"/>
	</g>
	<g>
		<path d="M14.5,13h-2c-0.276,0-0.5-0.224-0.5-0.5s0.224-0.5,0.5-0.5h2c0.276,0,0.5,0.224,0.5,0.5S14.776,13,14.5,13z"/>
	</g>
</g>
<g>
</g>
<g>
</g>
<g>
</g>
<g>
</g>
<g>
</g>
<g>
</g>
<g>
</g>
<g>
</g>
<g>
</g>
<g>
</g>
<g>
</g>
<g>
</g>
<g>
</g>
<g>
</g>
<g>
</g>
</svg>
