<?xml version="1.0" encoding="iso-8859-1"?>
<!-- Generator: Adobe Illustrator 19.0.0, SVG Export Plug-In . SVG Version: 6.00 Build 0)  -->
<svg version="1.1" id="Layer_1" xmlns="http://www.w3.org/2000/svg" xmlns:xlink="http://www.w3.org/1999/xlink" x="0px" y="0px"
	 viewBox="0 0 24 24" style="enable-background:new 0 0 24 24;" xml:space="preserve">
<g>
	<g>
		<path d="M15.5,17c-0.276,0-0.5-0.224-0.5-0.5v-6c0-0.189,0.107-0.362,0.276-0.447l6-3c0.155-0.078,0.339-0.069,0.486,0.022
			S22,7.327,22,7.5v7c0,0.276-0.224,0.5-0.5,0.5S21,14.776,21,14.5V8.309l-5,2.5V16.5C16,16.776,15.776,17,15.5,17z"/>
	</g>
	<g>
		<path d="M14,18c-1.122,0-2-0.659-2-1.5s0.878-1.5,2-1.5c1.121,0,2,0.659,2,1.5S15.121,18,14,18z M14,16c-0.61,0-1,0.296-1,0.5
			s0.39,0.5,1,0.5s1-0.296,1-0.5S14.61,16,14,16z"/>
	</g>
	<g>
		<path d="M20,16c-1.121,0-2-0.659-2-1.5s0.879-1.5,2-1.5s2,0.659,2,1.5S21.121,16,20,16z M20,14c-0.61,0-1,0.296-1,0.5
			s0.39,0.5,1,0.5s1-0.296,1-0.5S20.61,14,20,14z"/>
	</g>
	<g>
		<path d="M23.5,20h-13c-0.276,0-0.5-0.224-0.5-0.5s0.224-0.5,0.5-0.5H23V6h-9.5C13.224,6,13,5.776,13,5.5S13.224,5,13.5,5h10
			C23.776,5,24,5.224,24,5.5v14C24,19.776,23.776,20,23.5,20z"/>
	</g>
	<g>
		<g>
			<path d="M9.5,24c-0.723,0-1.433-0.129-2.111-0.382l-5.767-2.164C0.652,21.092,0,20.151,0,19.114V4.988
				c0-1.113,0.716-2.075,1.782-2.395l6.659-1.998l0,0C9.759,0.201,11.125,0,12.5,0C13.327,0,14,0.673,14,1.5v5.279
				c0,0.646-0.412,1.218-1.025,1.423l-1.633,0.544C11.137,8.814,11,9.005,11,9.221V22.5C11,23.327,10.327,24,9.5,24z M8.728,1.554
				L2.069,3.551C1.43,3.743,1,4.321,1,4.988v14.126c0,0.622,0.391,1.187,0.973,1.403l5.767,2.164C8.305,22.893,8.897,23,9.499,23
				C9.775,23,10,22.775,10,22.5V9.221c0-0.646,0.412-1.218,1.025-1.423l1.633-0.544C12.863,7.186,13,6.995,13,6.779V1.5
				C13,1.224,12.776,1,12.5,1C11.222,1,9.953,1.186,8.728,1.554L8.728,1.554z"/>
		</g>
		<g>
			<path d="M16.5,6C16.224,6,16,5.776,16,5.5v-1C16,3.673,15.327,3,14.5,3h-1C13.224,3,13,2.776,13,2.5S13.224,2,13.5,2h1
				C15.879,2,17,3.122,17,4.5v1C17,5.776,16.776,6,16.5,6z"/>
		</g>
		<g>
			<path d="M14.5,22h-4c-0.276,0-0.5-0.224-0.5-0.5s0.224-0.5,0.5-0.5h4c0.827,0,1.5-0.673,1.5-1.5c0-0.276,0.224-0.5,0.5-0.5
				s0.5,0.224,0.5,0.5C17,20.879,15.879,22,14.5,22z"/>
		</g>
	</g>
</g>
<g>
</g>
<g>
</g>
<g>
</g>
<g>
</g>
<g>
</g>
<g>
</g>
<g>
</g>
<g>
</g>
<g>
</g>
<g>
</g>
<g>
</g>
<g>
</g>
<g>
</g>
<g>
</g>
<g>
</g>
</svg>
