<?xml version="1.0" encoding="iso-8859-1"?>
<!-- Generator: Adobe Illustrator 19.0.0, SVG Export Plug-In . SVG Version: 6.00 Build 0)  -->
<svg version="1.1" id="Layer_1" xmlns="http://www.w3.org/2000/svg" xmlns:xlink="http://www.w3.org/1999/xlink" x="0px" y="0px"
	 viewBox="0 0 24 24" style="enable-background:new 0 0 24 24;" xml:space="preserve">
<g>
	<g>
		<g>
			<path d="M22.5,14h-6c-0.276,0-0.5-0.224-0.5-0.5s0.224-0.5,0.5-0.5h6c0.275,0,0.5-0.224,0.5-0.5v-6C23,6.224,22.775,6,22.5,6
				h-7.279c-0.646,0-1.219-0.412-1.423-1.026l-0.545-1.632C13.186,3.137,12.995,3,12.779,3H7.5C7.224,3,7,3.224,7,3.5V10
				c0,0.276-0.224,0.5-0.5,0.5S6,10.276,6,10V3.5C6,2.673,6.673,2,7.5,2h5.279c0.646,0,1.219,0.412,1.423,1.026l0.545,1.632
				C14.814,4.863,15.005,5,15.221,5H22.5C23.327,5,24,5.673,24,6.5v6C24,13.327,23.327,14,22.5,14z"/>
		</g>
		<g>
			<path d="M22.5,6C22.224,6,22,5.776,22,5.5v-4C22,1.224,21.775,1,21.5,1h-13C8.224,1,8,1.224,8,1.5v1C8,2.776,7.776,3,7.5,3
				S7,2.776,7,2.5v-1C7,0.673,7.673,0,8.5,0h13C22.327,0,23,0.673,23,1.5v4C23,5.776,22.776,6,22.5,6z"/>
		</g>
	</g>
	<g>
		<g>
			<path d="M16.5,24h-15C0.673,24,0,23.327,0,22.5v-9C0,12.673,0.673,12,1.5,12h5.279c0.646,0,1.218,0.412,1.423,1.025l0.544,1.633
				C8.814,14.862,9.005,15,9.221,15H16.5c0.827,0,1.5,0.673,1.5,1.5v6C18,23.327,17.327,24,16.5,24z M1.5,13
				C1.224,13,1,13.225,1,13.5v9C1,22.775,1.224,23,1.5,23h15c0.275,0,0.5-0.225,0.5-0.5v-6c0-0.275-0.225-0.5-0.5-0.5H9.221
				c-0.646,0-1.218-0.412-1.423-1.025l-0.544-1.633C7.186,13.138,6.995,13,6.779,13H1.5z"/>
		</g>
		<g>
			<path d="M16.5,16c-0.276,0-0.5-0.224-0.5-0.5v-4c0-0.276-0.225-0.5-0.5-0.5h-13C2.224,11,2,11.224,2,11.5v1
				C2,12.776,1.776,13,1.5,13S1,12.776,1,12.5v-1C1,10.673,1.673,10,2.5,10h13c0.827,0,1.5,0.673,1.5,1.5v4
				C17,15.776,16.776,16,16.5,16z"/>
		</g>
	</g>
	<g>
		<path d="M2.5,5C2.372,5,2.244,4.951,2.146,4.854c-0.195-0.195-0.195-0.512,0-0.707L3.793,2.5L2.146,0.854
			c-0.195-0.195-0.195-0.512,0-0.707s0.512-0.195,0.707,0l2,2c0.195,0.195,0.195,0.512,0,0.707l-2,2C2.756,4.951,2.628,5,2.5,5z"/>
	</g>
	<g>
		<path d="M0.5,9C0.224,9,0,8.776,0,8.5v-4C0,3.122,1.122,2,2.5,2h2C4.776,2,5,2.224,5,2.5S4.776,3,4.5,3h-2C1.673,3,1,3.673,1,4.5
			v4C1,8.776,0.776,9,0.5,9z"/>
	</g>
	<g>
		<path d="M21.5,24c-0.128,0-0.256-0.049-0.354-0.146l-2-2c-0.195-0.195-0.195-0.512,0-0.707l2-2c0.195-0.195,0.512-0.195,0.707,0
			s0.195,0.512,0,0.707L20.207,21.5l1.646,1.646c0.195,0.195,0.195,0.512,0,0.707C21.756,23.951,21.628,24,21.5,24z"/>
	</g>
	<g>
		<path d="M21.5,22h-2c-0.276,0-0.5-0.224-0.5-0.5s0.224-0.5,0.5-0.5h2c0.827,0,1.5-0.673,1.5-1.5v-4c0-0.276,0.224-0.5,0.5-0.5
			s0.5,0.224,0.5,0.5v4C24,20.879,22.879,22,21.5,22z"/>
	</g>
</g>
<g>
</g>
<g>
</g>
<g>
</g>
<g>
</g>
<g>
</g>
<g>
</g>
<g>
</g>
<g>
</g>
<g>
</g>
<g>
</g>
<g>
</g>
<g>
</g>
<g>
</g>
<g>
</g>
<g>
</g>
</svg>
