<?xml version="1.0" encoding="utf-8"?>
<!-- Generator: Adobe Illustrator 19.0.0, SVG Export Plug-In . SVG Version: 6.00 Build 0)  -->
<svg version="1.1" id="Layer_1" xmlns="http://www.w3.org/2000/svg" xmlns:xlink="http://www.w3.org/1999/xlink" x="0px" y="0px"
	 viewBox="0 0 30 30" style="enable-background:new 0 0 30 30;" xml:space="preserve">
<g>
	<g>
		<g>
			<path d="M10.5,24c-0.1,0-0.3,0-0.4-0.1l-8-8c-0.2-0.2-0.2-0.5,0-0.7s0.5-0.2,0.7,0l8,8c0.2,0.2,0.2,0.5,0,0.7
				C10.8,24,10.6,24,10.5,24z"/>
		</g>
	</g>
	<g>
		<g>
			<path d="M6.5,26C2.9,26,0,23.1,0,19.5S2.9,13,6.5,13s6.5,2.9,6.5,6.5S10.1,26,6.5,26z M6.5,14c-3,0-5.5,2.5-5.5,5.5
				S3.5,25,6.5,25s5.5-2.5,5.5-5.5S9.5,14,6.5,14z"/>
		</g>
	</g>
	<g>
		<path d="M21.3,14.7c0,0-0.1-0.1-0.1-0.1c0-0.1-0.1-0.2-0.1-0.2c0-0.1,0-0.1-0.1-0.2c0-0.1,0-0.1,0-0.2c0-0.1,0-0.3,0-0.5
			s0-0.3,0-0.5c0-0.1,0-0.1,0-0.2c0-0.1,0-0.2,0.1-0.2c0-0.1,0.1-0.2,0.1-0.2c0,0,0.1-0.1,0.1-0.1c0-0.1,0.1-0.2,0.2-0.2
			c0,0,0,0,0,0c0,0,0,0,0,0c-0.8,0-1.5,0.7-1.5,1.5s0.7,1.5,1.5,1.5c0,0,0,0,0,0c0,0,0,0,0,0C21.4,14.9,21.4,14.8,21.3,14.7z"/>
	</g>
	<g>
		<path d="M23.5,12c-0.3,0-0.5,0.1-0.7,0.2c0,0,0,0,0,0c-0.2,0.1-0.4,0.3-0.5,0.5c0,0,0,0,0,0.1c0,0.1-0.1,0.2-0.1,0.3
			c0,0,0,0.1,0,0.1c0,0.1,0,0.2,0,0.4s0,0.2,0,0.4c0,0,0,0.1,0,0.1c0,0.1,0.1,0.2,0.1,0.3c0,0,0,0,0,0.1c0.1,0.2,0.3,0.4,0.5,0.5
			c0,0,0,0,0,0c0.2,0.1,0.5,0.2,0.7,0.2c0.8,0,1.5-0.7,1.5-1.5S24.3,12,23.5,12z"/>
	</g>
	<g>
		<path d="M26.5,4h-17C7.6,4,6,5.6,6,7.5V12c0.2,0,0.3,0,0.5,0c4.1,0,7.5,3.4,7.5,7.5c0,0.2,0,0.3,0,0.5h12.5c1.9,0,3.5-1.6,3.5-3.5
			v-9C30,5.6,28.4,4,26.5,4z M22.5,7h1C23.8,7,24,7.2,24,7.5S23.8,8,23.5,8h-1C22.2,8,22,7.8,22,7.5S22.2,7,22.5,7z M14.5,7h1
			C15.8,7,16,7.2,16,7.5S15.8,8,15.5,8h-1C14.2,8,14,7.8,14,7.5S14.2,7,14.5,7z M10,7.5C10,7.2,10.2,7,10.5,7h1
			C11.8,7,12,7.2,12,7.5S11.8,8,11.5,8h-1C10.2,8,10,7.8,10,7.5z M16.5,16h-1c-0.3,0-0.5-0.2-0.5-0.5s0.2-0.5,0.5-0.5h1
			c0.3,0,0.5,0.2,0.5,0.5S16.8,16,16.5,16z M16.5,12h-5c-0.3,0-0.5-0.2-0.5-0.5s0.2-0.5,0.5-0.5h5c0.3,0,0.5,0.2,0.5,0.5
			S16.8,12,16.5,12z M18,7.5C18,7.2,18.2,7,18.5,7h1C19.8,7,20,7.2,20,7.5S19.8,8,19.5,8h-1C18.2,8,18,7.8,18,7.5z M23.5,16
			c-0.4,0-0.7-0.1-1-0.2c-0.3,0.1-0.6,0.2-1,0.2c-1.4,0-2.5-1.1-2.5-2.5s1.1-2.5,2.5-2.5c0.3,0,0.7,0.1,1,0.2c0.3-0.1,0.7-0.2,1-0.2
			c1.4,0,2.5,1.1,2.5,2.5S24.9,16,23.5,16z"/>
	</g>
</g>
</svg>
