<?xml version="1.0" encoding="utf-8"?>
<!-- Generator: Adobe Illustrator 19.0.0, SVG Export Plug-In . SVG Version: 6.00 Build 0)  -->
<svg version="1.1" id="Layer_1" xmlns="http://www.w3.org/2000/svg" xmlns:xlink="http://www.w3.org/1999/xlink" x="0px" y="0px"
	 viewBox="0 0 30 30" style="enable-background:new 0 0 30 30;" xml:space="preserve">
<g>
	<g>
		<path d="M14.1,18c0.4,0.1,0.8,0,1-0.3c0.5-0.5,0.2-1.3-0.2-1.9l-1.8,1.8C13.4,17.8,13.8,17.9,14.1,18z"/>
	</g>
	<g>
		<path d="M14.9,12.3c-0.5,0.5-0.2,1.3,0.2,1.9l1.8-1.8C16.2,11.9,15.4,11.9,14.9,12.3z"/>
	</g>
	<g>
		<path d="M29.9,11.1L28,9.3c1-2.1,0.5-4.5-1.1-6.2c-1-1-2.4-1.6-3.9-1.6c-0.8,0-1.6,0.2-2.3,0.5l-1.9-1.9c-0.2-0.2-0.5-0.2-0.7,0
			l-18,18c-0.2,0.2-0.2,0.5,0,0.7L2,20.7c-1,2.1-0.5,4.5,1.1,6.2c1,1,2.4,1.6,3.9,1.6c0.8,0,1.6-0.2,2.3-0.5l1.9,1.9
			c0.1,0.1,0.2,0.1,0.4,0.1s0.3,0,0.4-0.1l18-18C30,11.7,30,11.3,29.9,11.1z M18.5,15.7c-0.2,0.2-0.5,0.2-0.7,0.1s-0.2-0.5-0.1-0.7
			c0.4-0.4,0.3-1.2-0.2-1.9l-1.9,1.9c0.9,1.4,1,2.5,0.2,3.3c-0.4,0.4-0.9,0.6-1.5,0.6c-0.1,0-0.3,0-0.4,0c-0.5-0.1-1.1-0.3-1.5-0.7
			l-0.6,0.6c-0.1,0.1-0.2,0.1-0.4,0.1s-0.3,0-0.4-0.1c-0.2-0.2-0.2-0.5,0-0.7l0.6-0.6c-0.8-1.1-0.9-2.4-0.2-3.3
			c0.2-0.2,0.5-0.2,0.7-0.1c0.2,0.2,0.2,0.5,0.1,0.7c-0.4,0.4-0.3,1.2,0.2,1.9l1.9-1.9c-0.9-1.4-1-2.5-0.2-3.3
			c0.8-0.8,2.3-0.7,3.4,0.1l0.6-0.6c0.2-0.2,0.5-0.2,0.7,0s0.2,0.5,0,0.7l-0.6,0.6C19.1,13.5,19.2,14.8,18.5,15.7z"/>
	</g>
</g>
</svg>
