<?xml version="1.0" encoding="utf-8"?>
<!-- Generator: Adobe Illustrator 19.0.0, SVG Export Plug-In . SVG Version: 6.00 Build 0)  -->
<svg version="1.1" id="Layer_1" xmlns="http://www.w3.org/2000/svg" xmlns:xlink="http://www.w3.org/1999/xlink" x="0px" y="0px"
	 viewBox="0 0 30 30" style="enable-background:new 0 0 30 30;" xml:space="preserve">
<g>
	<g>
		<path d="M8.6,28.2C8.1,27.5,6.9,27,5.5,27s-2.6,0.5-3.1,1.2l-0.4,0.6C3,29.5,4.2,30,5.5,30C6.8,30,8,29.5,9,28.8l-0.3-0.4
			C8.6,28.3,8.6,28.3,8.6,28.2z"/>
	</g>
	<g>
		<circle cx="5.5" cy="23.5" r="0.5"/>
	</g>
	<g>
		<path d="M0.1,9.9C0.2,10,0.4,10,0.5,10s0.3,0,0.4-0.1L5,5.7l4.1,4.1C9.2,10,9.4,10,9.5,10s0.3,0,0.4-0.1c0.2-0.2,0.2-0.5,0-0.7
			L5.7,5l4.1-4.1c0.2-0.2,0.2-0.5,0-0.7S9.3,0,9.1,0.1L5,4.3L0.9,0.1C0.7,0,0.3,0,0.1,0.1S0,0.7,0.1,0.9L4.3,5L0.1,9.1
			C0,9.3,0,9.7,0.1,9.9z"/>
	</g>
	<g>
		<path d="M16,11.5c0,0,0-0.1,0-0.1c0,0,0,0,0-0.1c0,0,0,0,0,0c0,0,0-0.1-0.1-0.1c0,0,0,0-0.1-0.1c0,0-0.1,0-0.1-0.1s-0.1,0-0.1,0
			c0,0,0,0,0,0l-3-1c-0.3-0.1-0.5,0.1-0.6,0.3c-0.1,0.3,0.1,0.5,0.3,0.6l1.8,0.6c-3.5,1.6-5.8,4.2-7,7.7C6.6,19.1,6,19,5.5,19
			c-3,0-5.5,2.5-5.5,5.5c0,1.4,0.5,2.6,1.3,3.6l0.2-0.4C2.2,26.7,3.7,26,5.5,26c1.8,0,3.3,0.6,3.9,1.7L9.7,28c0.8-1,1.3-2.2,1.3-3.5
			c0-2.1-1.2-4-3-4.9c1.1-3.4,3.3-5.7,6.7-7.2L14,14.3c-0.1,0.3,0.1,0.5,0.3,0.6c0.1,0,0.1,0,0.2,0c0.2,0,0.4-0.1,0.5-0.3l1-3
			C16,11.6,16,11.6,16,11.5C16,11.6,16,11.5,16,11.5z M5.5,25C4.7,25,4,24.3,4,23.5S4.7,22,5.5,22S7,22.7,7,23.5S6.3,25,5.5,25z"/>
	</g>
	<g>
		<path d="M27.9,19.1c-0.2-0.2-0.5-0.2-0.7,0l-3.6,3.6l-3.6-3.6c-0.2-0.2-0.5-0.2-0.7,0s-0.2,0.5,0,0.7l3.6,3.6l-3.6,3.6
			c-0.2,0.2-0.2,0.5,0,0.7c0.1,0.1,0.2,0.1,0.4,0.1s0.3,0,0.4-0.1l3.6-3.6l3.6,3.6c0.1,0.1,0.2,0.1,0.4,0.1s0.3,0,0.4-0.1
			c0.2-0.2,0.2-0.5,0-0.7l-3.6-3.6l3.6-3.6C28,19.7,28,19.3,27.9,19.1z"/>
	</g>
	<g>
		<path d="M24,6.6V8c0.9-0.1,1.5-0.5,1.5-0.7C25.5,7.1,25.4,6.8,24,6.6z"/>
	</g>
	<g>
		<path d="M21.5,4.8c0,0.1,0.1,0.4,1.5,0.7V4C22.1,4.1,21.5,4.5,21.5,4.8z"/>
	</g>
	<g>
		<path d="M23.5,0C19.9,0,17,2.9,17,6.5s2.9,6.5,6.5,6.5S30,10.1,30,6.5S27.1,0,23.5,0z M24,9v0.5c0,0.3-0.2,0.5-0.5,0.5
			S23,9.8,23,9.5V9c-1.4-0.1-2.4-0.7-2.5-1.6c0-0.3,0.2-0.5,0.4-0.6c0.3,0,0.5,0.2,0.6,0.4c0,0.2,0.6,0.6,1.5,0.7V6.4
			c-0.9-0.1-2.5-0.5-2.5-1.7c0-0.9,1-1.6,2.5-1.7V2.5C23,2.2,23.2,2,23.5,2S24,2.2,24,2.5V3c1.4,0.1,2.4,0.7,2.5,1.6
			c0,0.3-0.2,0.5-0.4,0.6c-0.3,0-0.5-0.2-0.6-0.4c0-0.2-0.6-0.6-1.5-0.7v1.5c0.9,0.1,2.5,0.5,2.5,1.7C26.5,8.1,25.5,8.8,24,9z"/>
	</g>
</g>
</svg>
