<?xml version="1.0" encoding="iso-8859-1"?>
<!-- Generator: Adobe Illustrator 19.0.0, SVG Export Plug-In . SVG Version: 6.00 Build 0)  -->
<svg version="1.1" id="Layer_1" xmlns="http://www.w3.org/2000/svg" xmlns:xlink="http://www.w3.org/1999/xlink" x="0px" y="0px"
	 viewBox="0 0 24 24" style="enable-background:new 0 0 24 24;" xml:space="preserve">
<g id="XMLID_65_">
	<g id="XMLID_52_">
		<path id="XMLID_161_" d="M18.501,10.585c-0.234,0-0.469,0.089-0.646,0.267l-1,1c-0.173,0.173-0.268,0.402-0.268,0.646
			s0.095,0.474,0.268,0.646c0.355,0.355,0.938,0.355,1.293,0l1-1c0.173-0.173,0.268-0.402,0.268-0.646s-0.095-0.474-0.268-0.646
			C18.97,10.675,18.735,10.585,18.501,10.585z"/>
		<path id="XMLID_208_" d="M19.505-0.001H1.902c-0.782,0-1.455,0.449-1.754,1.172c-0.3,0.723-0.143,1.516,0.411,2.069l20.2,20.2
			c0.368,0.368,0.842,0.561,1.33,0.561c0.247,0,0.497-0.049,0.739-0.149c0.723-0.3,1.172-0.972,1.172-1.754V4.495
			C24.001,2.016,21.985-0.001,19.505-0.001z M12.5,9.56c-0.416,0-0.808-0.162-1.103-0.457l-1.25-1.25
			c-0.195-0.195-0.195-0.512,0-0.707l1.498-1.498c0.002-0.002,0.002-0.003,0.004-0.004l1.498-1.498
			c0.094-0.094,0.221-0.146,0.354-0.146s0.26,0.053,0.354,0.146l1.25,1.25c0.295,0.294,0.457,0.687,0.457,1.103
			S15.4,7.308,15.105,7.602c-0.28,0.281-0.649,0.442-1.044,0.457c-0.015,0.395-0.176,0.763-0.456,1.043
			C13.311,9.397,12.919,9.56,12.5,9.56C12.501,9.56,12.501,9.56,12.5,9.56z M14.001,11.499c-0.128,0-0.256-0.049-0.354-0.146
			c-0.195-0.195-0.195-0.512,0-0.707l3-3c0.195-0.195,0.512-0.195,0.707,0s0.195,0.512,0,0.707l-3,3
			C14.257,11.45,14.129,11.499,14.001,11.499z M19.855,12.853l-1,1c-0.373,0.373-0.863,0.56-1.354,0.56s-0.98-0.187-1.354-0.56
			c-0.361-0.361-0.561-0.842-0.561-1.354s0.199-0.992,0.561-1.354l1-1c0.746-0.746,1.961-0.746,2.707,0
			c0.361,0.361,0.561,0.842,0.561,1.354S20.216,12.491,19.855,12.853z"/>
		<path id="XMLID_211_" d="M14.398,6.896c0.218-0.219,0.219-0.575,0-0.793l-0.896-0.897l-0.793,0.793l0.896,0.897
			C13.816,7.108,14.187,7.108,14.398,6.896z"/>
		<path id="XMLID_212_" d="M12.001,6.706l-0.793,0.793l0.896,0.897c0.219,0.219,0.574,0.219,0.793,0
			c0.218-0.219,0.219-0.575,0-0.793L12.001,6.706z"/>
	</g>
</g>
<g>
</g>
<g>
</g>
<g>
</g>
<g>
</g>
<g>
</g>
<g>
</g>
<g>
</g>
<g>
</g>
<g>
</g>
<g>
</g>
<g>
</g>
<g>
</g>
<g>
</g>
<g>
</g>
<g>
</g>
</svg>
