<?xml version="1.0" encoding="utf-8"?>
<!-- Generator: Adobe Illustrator 19.0.0, SVG Export Plug-In . SVG Version: 6.00 Build 0)  -->
<svg version="1.1" id="Layer_1" xmlns="http://www.w3.org/2000/svg" xmlns:xlink="http://www.w3.org/1999/xlink" x="0px" y="0px"
	 viewBox="0 0 30 30" style="enable-background:new 0 0 30 30;" xml:space="preserve">
<g>
	<g>
		<path d="M29.5,14.5h-29C0.2,14.5,0,14.3,0,14v-4c0-0.3,0.2-0.5,0.5-0.5h29c0.3,0,0.5,0.2,0.5,0.5v4C30,14.3,29.8,14.5,29.5,14.5z
			 M1,13.5h28v-3H1V13.5z"/>
	</g>
	<g>
		<path d="M29.5,8.5h-10c-0.2,0-0.3-0.1-0.4-0.2s-0.1-0.3,0-0.5c1.3-2.5,5.4-3.9,7.9-4.3c0.7-0.1,1.5,0.2,2.2,0.7
			C29.7,4.7,30,5.4,30,6v2C30,8.3,29.8,8.5,29.5,8.5z M20.5,7.5H29V6c0-0.3-0.2-0.7-0.6-1c-0.4-0.4-0.9-0.5-1.4-0.5
			C24.7,4.9,21.8,6,20.5,7.5z"/>
	</g>
	<g>
		<path d="M24.5,24.5c-0.1,0-0.1,0-0.2,0l-19-8c-0.3-0.1-0.4-0.4-0.3-0.7s0.4-0.4,0.7-0.3l19,8c0.3,0.1,0.4,0.4,0.3,0.7
			C24.9,24.4,24.7,24.5,24.5,24.5z"/>
	</g>
	<g>
		<path d="M5.5,24.5c-0.2,0-0.4-0.1-0.5-0.3c-0.1-0.3,0-0.5,0.3-0.7l19-8c0.3-0.1,0.5,0,0.7,0.3s0,0.5-0.3,0.7l-19,8
			C5.6,24.5,5.6,24.5,5.5,24.5z"/>
	</g>
	<g>
		<path d="M26,26.5c-1.1,0-2-0.9-2-2s0.9-2,2-2s2,0.9,2,2S27.1,26.5,26,26.5z M26,23.5c-0.6,0-1,0.4-1,1s0.4,1,1,1s1-0.4,1-1
			S26.6,23.5,26,23.5z"/>
	</g>
	<g>
		<path d="M4,26.5c-1.1,0-2-0.9-2-2s0.9-2,2-2s2,0.9,2,2S5.1,26.5,4,26.5z M4,23.5c-0.6,0-1,0.4-1,1s0.4,1,1,1s1-0.4,1-1
			S4.6,23.5,4,23.5z"/>
	</g>
</g>
</svg>
