<?xml version="1.0" encoding="utf-8"?>
<!-- Generator: Adobe Illustrator 19.0.0, SVG Export Plug-In . SVG Version: 6.00 Build 0)  -->
<svg version="1.1" id="Layer_1" xmlns="http://www.w3.org/2000/svg" xmlns:xlink="http://www.w3.org/1999/xlink" x="0px" y="0px"
	 viewBox="0 0 30 30" style="enable-background:new 0 0 30 30;" xml:space="preserve">
<g>
	<g>
		<path d="M24.5,11c-0.1,0-0.3,0-0.4-0.1l-1-1C22.2,8.9,20.6,8,19.5,8H8C7.7,8,7.5,7.8,7.5,7.6L7,3.6C6.7,2,5,1,3.5,1H2
			C1.7,1,1.5,0.8,1.5,0.5S1.7,0,2,0h1.5C5.7,0,7.7,1.5,8,3.4L8.4,7h11.1c1.4,0,3.3,1.1,4.4,2.1l1,1c0.2,0.2,0.2,0.5,0,0.7
			C24.8,11,24.6,11,24.5,11z"/>
	</g>
	<g>
		<path d="M28.5,27.5c-0.3,0-0.5-0.2-0.5-0.5v-6.5c0-1.8-1.7-3.5-3.5-3.5h-2c-0.3,0-0.5-0.2-0.5-0.5s0.2-0.5,0.5-0.5h2
			c2.4,0,4.5,2.1,4.5,4.5V27C29,27.3,28.8,27.5,28.5,27.5z"/>
	</g>
	<g>
		<path d="M9.5,17c-0.2,0-0.4-0.2-0.5-0.4l-1-4c-0.1-0.3,0.1-0.5,0.4-0.6c0.3-0.1,0.5,0.1,0.6,0.4l1,4c0.1,0.3-0.1,0.5-0.4,0.6
			C9.6,17,9.5,17,9.5,17z"/>
	</g>
	<g>
		<path d="M17.5,17h-4c-0.3,0-0.5-0.2-0.5-0.5s0.2-0.5,0.5-0.5h4c0.3,0,0.5,0.2,0.5,0.5S17.8,17,17.5,17z"/>
	</g>
	<g>
		<circle cx="2" cy="1" r="1"/>
	</g>
	<g>
		<path d="M26,30c-1.7,0-3-1.3-3-3s1.3-3,3-3s3,1.3,3,3S27.7,30,26,30z M26,25c-1.1,0-2,0.9-2,2s0.9,2,2,2s2-0.9,2-2S27.1,25,26,25z
			"/>
	</g>
	<g>
		<path d="M11,30C5.5,30,1,25.5,1,20s4.5-10,10-10s10,4.5,10,10S16.5,30,11,30z M11,11c-5,0-9,4-9,9s4,9,9,9s9-4,9-9S16,11,11,11z"
			/>
	</g>
	<g>
		<path d="M11,23c-1.7,0-3-1.3-3-3s1.3-3,3-3s3,1.3,3,3S12.7,23,11,23z M11,18c-1.1,0-2,0.9-2,2s0.9,2,2,2s2-0.9,2-2S12.1,18,11,18z
			"/>
	</g>
</g>
</svg>
