<?xml version="1.0" encoding="iso-8859-1"?>
<!-- Generator: Adobe Illustrator 19.0.0, SVG Export Plug-In . SVG Version: 6.00 Build 0)  -->
<svg version="1.1" id="Layer_1" xmlns="http://www.w3.org/2000/svg" xmlns:xlink="http://www.w3.org/1999/xlink" x="0px" y="0px"
	 viewBox="0 0 24 24" style="enable-background:new 0 0 24 24;" xml:space="preserve">
<g>
	<g>
		<path d="M10.78,15c0.489,0,0.735-0.102,0.965-0.215c0.099-0.049,0.144-0.071,0.246-0.078c0.102,0.007,0.146,0.029,0.246,0.078
			C12.466,14.898,12.713,15,13.202,15c2.778,0,4.79-3.813,4.79-6.382c0-2.475-1.157-4.21-2.932-4.547
			c0.561-0.66,0.932-1.52,0.932-2.571c0-0.276-0.224-0.5-0.5-0.5c-1.264,0-2.548,0.625-3.309,1.731
			c-0.198-0.59-0.472-1.029-0.768-1.498c-0.147-0.234-0.457-0.303-0.689-0.156c-0.234,0.147-0.304,0.456-0.156,0.689
			c0.478,0.758,0.836,1.335,0.908,2.707c-0.094-0.027-0.185-0.051-0.291-0.092C10.757,4.211,10.221,4,9.563,4
			C7.428,4,5.994,5.855,5.994,8.618C5.99,11.187,8.001,15,10.78,15z M23.579,22.005c-0.12-0.133-0.271-0.522-0.39-1.005H2.49
			c-0.276,0-0.5-0.224-0.5-0.5S2.214,20,2.49,20h20.528c-0.016-0.169-0.028-0.337-0.028-0.5c0-0.163,0.012-0.331,0.028-0.5H2.49
			c-0.276,0-0.5-0.224-0.5-0.5S2.214,18,2.49,18h20.699c0.121-0.488,0.274-0.88,0.394-1.009c0.231-0.043,0.407-0.247,0.407-0.491
			c0-0.276-0.224-0.5-0.5-0.5h-21c-1.378,0-2.5,1.122-2.5,2.5v2c0,1.378,1.122,2.5,2.5,2.5h21.02c0.276,0,0.5-0.224,0.5-0.5
			C24.01,22.248,23.823,22.039,23.579,22.005z"/>
	</g>
</g>
</svg>
