<?xml version="1.0" encoding="iso-8859-1"?>
<!-- Generator: Adobe Illustrator 19.0.0, SVG Export Plug-In . SVG Version: 6.00 Build 0)  -->
<svg version="1.1" id="Layer_1" xmlns="http://www.w3.org/2000/svg" xmlns:xlink="http://www.w3.org/1999/xlink" x="0px" y="0px"
	 viewBox="0 0 24 24" style="enable-background:new 0 0 24 24;" xml:space="preserve">
<g>
	<g>
		<path d="M17,12c0-1.103-0.897-2-2-2c-1.103,0-2,0.897-2,2c0,0.276,0.224,0.5,0.5,0.5S14,12.276,14,12c0-0.551,0.449-1,1-1
			c0.551,0,1,0.449,1,1c0,0.487-0.214,0.944-0.588,1.256l-2.232,1.86c-0.162,0.135-0.222,0.356-0.15,0.555
			c0.072,0.198,0.26,0.33,0.47,0.33h3c0.276,0,0.5-0.224,0.5-0.5s-0.224-0.5-0.5-0.5h-1.619l1.171-0.976
			C16.654,13.522,17,12.784,17,12z M23.5,2h-23C0.224,2,0,2.224,0,2.5v19C0,21.776,0.224,22,0.5,22h23c0.276,0,0.5-0.224,0.5-0.5
			v-19C24,2.224,23.776,2,23.5,2z M21,19H3V5h18V19z M5.501,11h1.662l1.874,4.686C9.112,15.874,9.293,15.998,9.495,16h0.006
			c0.2,0,0.381-0.119,0.459-0.303L12.83,9h5.67C18.776,9,19,8.776,19,8.5S18.776,8,18.5,8h-6c-0.2,0-0.381,0.119-0.459,0.303
			l-2.524,5.89l-1.552-3.879C7.889,10.124,7.705,10,7.501,10h-2c-0.276,0-0.5,0.224-0.5,0.5S5.225,11,5.501,11z"/>
	</g>
</g>
</svg>
