<?xml version="1.0" encoding="iso-8859-1"?>
<!-- Generator: Adobe Illustrator 19.0.0, SVG Export Plug-In . SVG Version: 6.00 Build 0)  -->
<svg version="1.1" id="Layer_1" xmlns="http://www.w3.org/2000/svg" xmlns:xlink="http://www.w3.org/1999/xlink" x="0px" y="0px"
	 viewBox="0 0 24 24" style="enable-background:new 0 0 24 24;" xml:space="preserve">
<g>
	<g>
		<path d="M20.37,10.379c0.671-1.62,0.75-3.426,0.239-5.091l-1.751,1.751C19.614,8.197,20.127,9.341,20.37,10.379z M9.963,8.864
			c0.312,0.37,0.641,0.742,1.01,1.111c0.611,0.611,1.255,1.154,1.904,1.631l1.985-1.985l-2.828-2.828L9.963,8.864z M17.548,6.935
			c-0.466-0.633-0.99-1.272-1.626-1.909c-0.361-0.361-0.735-0.692-1.113-1.008L12.74,6.087l2.828,2.828L17.548,6.935z M6.686,10.727
			L8.623,8.79C7.547,7.356,6.826,5.907,6.525,4.622C5.714,6.578,5.772,8.806,6.686,10.727z M10.219,14.265l1.938-1.938
			c-0.644-0.484-1.281-1.034-1.891-1.645c-0.363-0.363-0.698-0.734-1.014-1.107l-2.061,2.061c0.273,0.413,0.59,0.804,0.954,1.168
			C8.756,13.417,9.46,13.902,10.219,14.265z M16.348,14.42c-1.056-0.244-2.205-0.758-3.358-1.512l-1.759,1.759
			C11.94,14.886,12.685,15,13.449,15C14.46,15.001,15.441,14.8,16.348,14.42z M9.346,8.066l1.98-1.98L7.808,2.568
			C7.656,2.741,7.515,2.92,7.382,3.103C7.284,4.342,7.935,6.152,9.346,8.066z M14.018,3.395c-1.683-1.237-3.409-1.984-4.735-1.984
			c-0.079,0-0.15,0.01-0.225,0.016c-0.187,0.136-0.369,0.28-0.545,0.434l3.519,3.519L14.018,3.395z M13.447,18.001
			c2.805,0,5.442-1.092,7.425-3.076c0.094-0.094,0.146-0.221,0.146-0.354s-0.053-0.26-0.146-0.354l-0.571-0.571
			c-0.195-0.195-0.512-0.195-0.707,0s-0.195,0.512,0,0.707l0.208,0.208c-1.747,1.576-3.985,2.438-6.355,2.438
			c-2.537,0-4.923-0.988-6.717-2.783c-1.789-1.789-2.765-4.161-2.747-6.678c0.016-2.346,0.891-4.573,2.473-6.323l0.138,0.138
			c0.195,0.195,0.512,0.195,0.707,0s0.195-0.512,0-0.707l-0.5-0.5c-0.195-0.195-0.512-0.195-0.707,0
			C4.107,2.133,3.002,4.755,2.983,7.531c-0.02,2.788,1.06,5.413,3.04,7.393c1.379,1.379,3.077,2.315,4.924,2.765v2.312h-1.5
			c-1.93,0-3.5,1.57-3.5,3.5c0,0.276,0.224,0.5,0.5,0.5h10c0.276,0,0.5-0.224,0.5-0.5c0-1.93-1.57-3.5-3.5-3.5h-1.5v-2.118
			C12.441,17.953,12.94,18.001,13.447,18.001z M16.676,0.737c-0.997-0.476-2.091-0.736-3.229-0.736c-1.012,0-1.994,0.201-2.9,0.58
			c1.31,0.302,2.768,1.024,4.191,2.093L16.676,0.737z M17.836,13.574c0.187-0.136,0.368-0.28,0.544-0.434l-2.812-2.812l-1.852,1.852
			c1.405,0.888,2.79,1.409,3.895,1.409C17.691,13.59,17.761,13.58,17.836,13.574z M19.513,11.897
			c0.084-1.056-0.373-2.529-1.384-4.129l-1.854,1.854l2.811,2.811C19.238,12.26,19.38,12.081,19.513,11.897z M16.629,4.319
			c0.617,0.617,1.163,1.253,1.643,1.892l1.937-1.937c-0.357-0.751-0.838-1.457-1.458-2.077c-0.36-0.36-0.752-0.679-1.167-0.954
			l-2.063,2.063C15.896,3.625,16.268,3.958,16.629,4.319z"/>
	</g>
</g>
</svg>
