<?xml version="1.0" encoding="utf-8"?>
<!-- Generator: Adobe Illustrator 19.0.0, SVG Export Plug-In . SVG Version: 6.00 Build 0)  -->
<svg version="1.1" id="Layer_1" xmlns="http://www.w3.org/2000/svg" xmlns:xlink="http://www.w3.org/1999/xlink" x="0px" y="0px"
	 viewBox="0 0 30 30" style="enable-background:new 0 0 30 30;" xml:space="preserve">
<g>
	<g>
		<path d="M19,30c-2.7,0-5.3-1-7.2-2.8L3.2,19c-0.4-0.4-0.7-1-0.7-1.6c0-1.3,1.1-2.3,2.4-2.3c0.6,0,1.2,0.1,1.7,0.4l3.9,2.1V2.4
			C10.5,1.1,11.6,0,13,0s2.5,1.1,2.5,2.4v4.4c0.4-0.3,0.9-0.5,1.5-0.5c1.2,0,2.1,0.8,2.4,1.8c0.4-0.3,1-0.5,1.6-0.5
			c1.2,0,2.1,0.8,2.4,1.8c0.4-0.3,1-0.5,1.6-0.5c1.4,0,2.5,1.1,2.5,2.4v10.7C27.5,26.4,23.7,30,19,30z M4.9,16.1
			c-0.8,0-1.4,0.6-1.4,1.3c0,0.3,0.1,0.7,0.4,0.9l8.6,8.2c1.7,1.6,4,2.5,6.5,2.5c4.1,0,7.5-3.2,7.5-7.1V11.2c0-0.8-0.7-1.4-1.5-1.4
			s-1.5,0.6-1.5,1.4v3.3c0,0.3-0.2,0.5-0.5,0.5s-0.5-0.2-0.5-0.5V10c0-0.8-0.7-1.4-1.5-1.4s-1.5,0.6-1.5,1.4v4.5
			c0,0.3-0.2,0.5-0.5,0.5s-0.5-0.2-0.5-0.5V8.7c0-0.8-0.7-1.4-1.5-1.4s-1.5,0.6-1.5,1.4v5.8c0,0.3-0.2,0.5-0.5,0.5s-0.5-0.2-0.5-0.5
			V2.4C14.5,1.6,13.8,1,13,1s-1.5,0.6-1.5,1.4v16.1c0,0.2-0.1,0.3-0.2,0.4s-0.3,0.1-0.5,0l-4.6-2.5C5.8,16.2,5.3,16.1,4.9,16.1z"/>
	</g>
</g>
</svg>
