<?xml version="1.0" encoding="iso-8859-1"?>
<!-- Generator: Adobe Illustrator 19.0.0, SVG Export Plug-In . SVG Version: 6.00 Build 0)  -->
<svg version="1.1" id="Layer_1" xmlns="http://www.w3.org/2000/svg" xmlns:xlink="http://www.w3.org/1999/xlink" x="0px" y="0px"
	 viewBox="0 0 24 24" style="enable-background:new 0 0 24 24;" xml:space="preserve">
<g>
	<path d="M23.853,23.146l-2.707-2.707C21.674,19.762,22,18.922,22,18c0-2.206-1.794-4-4-4s-4,1.794-4,4s1.794,4,4,4
		c0.922,0,1.762-0.326,2.439-0.853l2.707,2.707C23.244,23.951,23.372,24,23.5,24s0.256-0.049,0.353-0.146
		C24.048,23.659,24.048,23.341,23.853,23.146z M15,18c0-1.654,1.346-3,3-3s3,1.346,3,3s-1.346,3-3,3S15,19.654,15,18z"/>
	<path d="M5,8.5C5,9.326,5.673,10,6.5,10C7.327,10,8,9.326,8,8.5C8,7.672,7.327,7,6.5,7C5.673,7,5,7.672,5,8.5z M7,8.5
		C7,8.776,6.776,9,6.5,9S6,8.776,6,8.5S6.224,8,6.5,8S7,8.224,7,8.5z"/>
	<path d="M11.5,7C10.673,7,10,7.672,10,8.5c0,0.827,0.673,1.5,1.5,1.5c0.827,0,1.5-0.673,1.5-1.5C13,7.672,12.327,7,11.5,7z M11.5,9
		C11.224,9,11,8.776,11,8.5S11.224,8,11.5,8S12,8.224,12,8.5S11.776,9,11.5,9z"/>
	<path d="M15,8.5c0,0.827,0.673,1.5,1.5,1.5c0.827,0,1.5-0.673,1.5-1.5C18,7.672,17.327,7,16.5,7C15.673,7,15,7.672,15,8.5z M17,8.5
		C17,8.776,16.776,9,16.5,9S16,8.776,16,8.5S16.224,8,16.5,8S17,8.224,17,8.5z"/>
	<path d="M12.5,16h-1c-0.109,0-0.214,0.035-0.3,0.1l-6.306,4.729l2.053-4.105c0.078-0.154,0.069-0.339-0.022-0.486
		C6.834,16.091,6.673,16,6.5,16h-3C2.122,16,1,14.879,1,13.5v-10C1,2.122,2.122,1,3.5,1h16C20.878,1,22,2.122,22,3.5v11
		c0,0.276,0.224,0.5,0.5,0.5s0.5-0.224,0.5-0.5v-11C23,1.57,21.43,0,19.5,0h-16C1.57,0,0,1.57,0,3.5v10C0,15.43,1.57,17,3.5,17
		h2.191l-2.638,5.276c-0.103,0.207-0.051,0.459,0.127,0.607C3.272,22.961,3.386,23,3.5,23c0.105,0,0.211-0.033,0.3-0.1l7.867-5.9
		H12.5c0.276,0,0.5-0.224,0.5-0.5S12.776,16,12.5,16z"/>
</g>
</svg>
