<?xml version="1.0" encoding="iso-8859-1"?>
<!-- Generator: Adobe Illustrator 19.0.0, SVG Export Plug-In . SVG Version: 6.00 Build 0)  -->
<svg version="1.1" id="Layer_1" xmlns="http://www.w3.org/2000/svg" xmlns:xlink="http://www.w3.org/1999/xlink" x="0px" y="0px"
	 viewBox="0 0 24 24" style="enable-background:new 0 0 24 24;" xml:space="preserve">
<g>
	<path d="M16.5-0.001c-3.152,0-5.984,1.321-7.047,3.286C9.322,3.528,9.412,3.832,9.655,3.963c0.243,0.132,0.547,0.041,0.678-0.202
		c0.893-1.652,3.372-2.762,6.167-2.762c3.584,0,6.5,1.794,6.5,4c0,1.678-1.741,3.19-4.331,3.764
		c-0.103,0.023-0.196,0.077-0.266,0.156l-2.732,3.073l0.277-2.494c0.015-0.133-0.025-0.267-0.109-0.371
		c-0.084-0.103-0.207-0.169-0.34-0.182c-0.134-0.013-0.266-0.031-0.397-0.05L15.07,8.891c-0.27-0.041-0.51,0.155-0.549,0.428
		c-0.036,0.252,0.137,0.489,0.379,0.554l-0.397,3.571c-0.024,0.216,0.095,0.423,0.294,0.512c0.065,0.029,0.134,0.043,0.203,0.043
		c0.14,0,0.277-0.059,0.373-0.168l3.67-4.128C22.016,8.995,24,7.12,24,4.999C24,2.242,20.636-0.001,16.5-0.001z"/>
	<path d="M18.515,21.498c-0.237-0.949-0.933-1.701-1.862-2.011l-3.439-1.145c-0.773-0.322-1.14-1.551-1.233-2.074
		c0.568-0.535,1.149-1.356,1.149-2.16c0-0.217,0.048-0.317,0.013-0.297c0.155-0.039,0.283-0.151,0.343-0.3
		c0.044-0.109,0.427-1.087,0.427-1.751c0-0.041-0.005-0.081-0.015-0.121c-0.056-0.224-0.185-0.45-0.376-0.598v-2.02
		c0-1.28-0.407-1.833-0.799-2.138c-0.11-0.657-0.812-1.884-3.223-1.884c-2.492,0-4.022,2.343-4.022,4.022v2.02
		c-0.191,0.148-0.32,0.374-0.376,0.598c-0.01,0.039-0.015,0.08-0.015,0.121c0,0.664,0.384,1.642,0.427,1.751
		c0.059,0.15,0.126,0.238,0.282,0.277c0.021,0.016,0.074,0.105,0.074,0.32c0,0.804,0.58,1.625,1.149,2.16
		c-0.093,0.523-0.455,1.75-1.199,2.061l-3.473,1.158c-0.929,0.309-1.625,1.061-1.862,2.011l-0.47,1.88
		c-0.067,0.268,0.096,0.539,0.364,0.606c0.267,0.07,0.54-0.095,0.606-0.364l0.471-1.88c0.153-0.616,0.605-1.104,1.208-1.305
		l3.506-1.17c1.525-0.634,1.874-2.883,1.874-3.2c0-0.149-0.067-0.29-0.182-0.385c-0.481-0.398-0.992-1.083-0.992-1.571
		c0-0.603-0.245-0.953-0.489-1.131c-0.11-0.305-0.279-0.835-0.28-1.124c0.217-0.055,0.377-0.251,0.377-0.485V9.021
		c0-1.055,1.038-3.022,3.022-3.022c1.69,0,2.165,0.72,2.232,1.001c-0.015,0.058-0.02,0.116-0.015,0.168
		c0.029,0.268,0.231,0.395,0.328,0.457c0.143,0.091,0.478,0.304,0.478,1.396v2.348c0,0.237,0.165,0.435,0.387,0.487
		c-0.027,0.315-0.169,0.791-0.289,1.121c-0.244,0.177-0.489,0.527-0.489,1.131c0,0.488-0.511,1.173-0.992,1.571
		c-0.116,0.094-0.182,0.236-0.182,0.385c0,0.317,0.349,2.566,1.907,3.213l3.473,1.158c0.603,0.201,1.054,0.689,1.208,1.305
		l0.47,1.88c0.056,0.228,0.26,0.379,0.484,0.379c0.04,0,0.081-0.005,0.121-0.015c0.268-0.067,0.431-0.338,0.364-0.606L18.515,21.498
		z"/>
</g>
</svg>
