<?xml version="1.0" encoding="iso-8859-1"?>
<!-- Generator: Adobe Illustrator 19.0.0, SVG Export Plug-In . SVG Version: 6.00 Build 0)  -->
<svg version="1.1" id="Layer_1" xmlns="http://www.w3.org/2000/svg" xmlns:xlink="http://www.w3.org/1999/xlink" x="0px" y="0px"
	 viewBox="0 0 24 24" style="enable-background:new 0 0 24 24;" xml:space="preserve">
<g>
	<path d="M21.499-0.001h-10c-1.378,0-2.5,1.122-2.5,2.5v1c0,0.276,0.224,0.5,0.5,0.5s0.5-0.224,0.5-0.5v-1
		c0-0.827,0.673-1.5,1.5-1.5h10c0.827,0,1.5,0.673,1.5,1.5v5c0,0.827-0.673,1.5-1.5,1.5h-3c-0.144,0-0.281,0.062-0.376,0.171
		l-2.425,2.771l0.297-2.38c0.018-0.142-0.026-0.286-0.121-0.393c-0.095-0.107-0.231-0.169-0.375-0.169h-0.5
		c-0.276,0-0.5,0.224-0.5,0.5c0,0.254,0.189,0.464,0.434,0.496l-0.43,3.442c-0.027,0.218,0.091,0.428,0.292,0.518
		c0.066,0.03,0.136,0.044,0.205,0.044c0.141,0,0.279-0.06,0.375-0.171l3.351-3.829h2.773c1.378,0,2.5-1.122,2.5-2.5v-5
		C23.999,1.121,22.877-0.001,21.499-0.001z"/>
	<path d="M18.516,21.498c-0.237-0.949-0.933-1.701-1.862-2.011l-3.439-1.145c-0.773-0.322-1.14-1.551-1.233-2.074
		c0.568-0.535,1.149-1.356,1.149-2.16c0-0.217,0.045-0.317,0.013-0.297c0.155-0.039,0.283-0.151,0.343-0.3
		c0.044-0.109,0.427-1.087,0.427-1.751c0-0.041-0.005-0.081-0.015-0.121c-0.056-0.224-0.185-0.45-0.376-0.598v-2.02
		c0-1.28-0.407-1.833-0.799-2.138c-0.11-0.657-0.812-1.884-3.223-1.884c-2.492,0-4.022,2.343-4.022,4.022v2.02
		c-0.191,0.148-0.32,0.374-0.376,0.598c-0.01,0.039-0.015,0.08-0.015,0.121c0,0.664,0.384,1.642,0.427,1.751
		c0.059,0.15,0.126,0.238,0.282,0.277c0.021,0.016,0.074,0.105,0.074,0.32c0,0.804,0.58,1.625,1.149,2.16
		c-0.093,0.523-0.455,1.75-1.199,2.061l-3.473,1.158c-0.929,0.309-1.625,1.061-1.862,2.011l-0.47,1.88
		c-0.067,0.268,0.096,0.539,0.364,0.606c0.266,0.07,0.54-0.095,0.606-0.364l0.471-1.88c0.153-0.616,0.605-1.104,1.208-1.305
		l3.506-1.17c1.525-0.634,1.874-2.883,1.874-3.2c0-0.149-0.067-0.29-0.182-0.385c-0.481-0.398-0.992-1.083-0.992-1.571
		c0-0.603-0.245-0.953-0.489-1.131c-0.11-0.305-0.279-0.835-0.28-1.124c0.217-0.055,0.377-0.251,0.377-0.485V9.021
		c0-1.055,1.038-3.022,3.022-3.022c1.69,0,2.165,0.72,2.231,1.001c-0.015,0.058-0.02,0.116-0.015,0.168
		c0.029,0.268,0.231,0.395,0.328,0.457c0.143,0.091,0.478,0.304,0.478,1.396v2.348c0,0.237,0.165,0.435,0.387,0.487
		c-0.027,0.315-0.169,0.791-0.289,1.121c-0.244,0.177-0.489,0.527-0.489,1.131c0,0.488-0.511,1.173-0.992,1.571
		c-0.116,0.094-0.182,0.236-0.182,0.385c0,0.317,0.349,2.566,1.907,3.213l3.473,1.158c0.603,0.201,1.054,0.689,1.208,1.305
		l0.47,1.88c0.056,0.228,0.26,0.379,0.484,0.379c0.04,0,0.081-0.005,0.122-0.015c0.268-0.067,0.431-0.338,0.364-0.606L18.516,21.498
		z"/>
</g>
</svg>
