<?xml version="1.0" encoding="iso-8859-1"?>
<!-- Generator: Adobe Illustrator 19.0.0, SVG Export Plug-In . SVG Version: 6.00 Build 0)  -->
<svg version="1.1" id="Layer_1" xmlns="http://www.w3.org/2000/svg" xmlns:xlink="http://www.w3.org/1999/xlink" x="0px" y="0px"
	 viewBox="0 0 24 24" style="enable-background:new 0 0 24 24;" xml:space="preserve">
<g>
	<path d="M14.729,3.957c3.304,1.117,5.552,4.077,5.751,7.543h3.02V2c0-0.276-0.224-0.5-0.5-0.5h-7.616L14.729,3.957z"/>
	<path d="M4.5,12c0,4.136,3.364,7.5,7.5,7.5s7.5-3.364,7.5-7.5c0-3.222-2.015-6.012-5.033-7.063l-0.259,0.97
		C16.784,6.837,18.5,9.232,18.5,12c0,3.584-2.916,6.5-6.5,6.5S5.5,15.584,5.5,12c0-3.475,2.721-6.324,6.195-6.485l0.28-0.014
		c0.137-0.008,0.271,0.043,0.37,0.137S12.5,5.863,12.5,6v1c0,0.276-0.224,0.5-0.5,0.5S11.5,7.276,11.5,7V6.53
		C8.845,6.769,6.787,8.875,6.547,11.5H7c0.276,0,0.5,0.224,0.5,0.5S7.276,12.5,7,12.5H6.525c0.239,2.634,2.341,4.736,4.975,4.975V17
		c0-0.276,0.224-0.5,0.5-0.5s0.5,0.224,0.5,0.5v0.475c2.634-0.239,4.736-2.341,4.975-4.975H17c-0.276,0-0.5-0.224-0.5-0.5
		s0.224-0.5,0.5-0.5h0.459c-0.194-2.07-1.562-3.878-3.509-4.623l-0.467,1.752C13.423,8.853,13.221,9,13,9
		c-0.043,0-0.086-0.005-0.129-0.017c-0.267-0.071-0.425-0.345-0.354-0.612L14.349,1.5H12.5v2.053
		c0.201,0.072,0.343,0.261,0.333,0.486c-0.012,0.276-0.238,0.501-0.521,0.478l-0.137-0.008C12.117,4.504,12.059,4.5,12,4.5
		C7.864,4.5,4.5,7.864,4.5,12z M13,9.5c0.276,0,0.5,0.224,0.5,0.5s-0.224,0.5-0.5,0.5h-1.5v1H12c0.827,0,1.5,0.673,1.5,1.5
		s-0.673,1.5-1.5,1.5h-1c-0.276,0-0.5-0.224-0.5-0.5s0.224-0.5,0.5-0.5h1c0.276,0,0.5-0.224,0.5-0.5s-0.224-0.5-0.5-0.5h-1
		c-0.276,0-0.5-0.224-0.5-0.5v-2c0-0.276,0.224-0.5,0.5-0.5H13z"/>
	<path d="M20.475,12.5c-0.251,4.287-3.687,7.723-7.975,7.975V22.5H23c0.276,0,0.5-0.224,0.5-0.5v-9.5H20.475z"/>
	<path d="M3.525,11.5C3.777,7.213,7.213,3.777,11.5,3.525V1.5H1C0.724,1.5,0.5,1.724,0.5,2v9.5H3.525z"/>
	<path d="M11.5,20.475c-4.287-0.251-7.723-3.687-7.975-7.975H0.5V22c0,0.276,0.224,0.5,0.5,0.5h10.5V20.475z"/>
</g>
<g>
</g>
<g>
</g>
<g>
</g>
<g>
</g>
<g>
</g>
<g>
</g>
<g>
</g>
<g>
</g>
<g>
</g>
<g>
</g>
<g>
</g>
<g>
</g>
<g>
</g>
<g>
</g>
<g>
</g>
</svg>
