<?xml version="1.0" encoding="iso-8859-1"?>
<!-- Generator: Adobe Illustrator 19.0.0, SVG Export Plug-In . SVG Version: 6.00 Build 0)  -->
<svg version="1.1" id="Layer_1" xmlns="http://www.w3.org/2000/svg" xmlns:xlink="http://www.w3.org/1999/xlink" x="0px" y="0px"
	 viewBox="0 0 24 24" style="enable-background:new 0 0 24 24;" xml:space="preserve">
<g>
	<g>
		<path d="M3.521,11.5H0.5V8.226l3.385,1.292C3.684,10.17,3.562,10.833,3.521,11.5z"/>
		<path d="M3.525,12.5c0.251,4.287,3.687,7.723,7.975,7.975V22.5H1c-0.276,0-0.5-0.224-0.5-0.5v-9.5H3.525z"/>
		<path d="M12.5,20.475c4.287-0.251,7.723-3.687,7.975-7.975H23.5V22c0,0.276-0.224,0.5-0.5,0.5H12.5V20.475z"/>
		<path d="M12,4.5c-2.509,0-4.842,1.249-6.239,3.34C5.607,8.069,5.297,8.133,5.067,7.978C4.838,7.824,4.776,7.514,4.93,7.284
			c1.489-2.229,3.92-3.597,6.57-3.753V1.5H1C0.724,1.5,0.5,1.724,0.5,2v5.156l8.678,3.312c0.258,0.099,0.387,0.388,0.289,0.646
			c-0.099,0.258-0.388,0.387-0.646,0.289l-2.117-0.808c-0.08,0.3-0.134,0.602-0.163,0.906H7c0.276,0,0.5,0.224,0.5,0.5
			S7.276,12.5,7,12.5H6.525c0.239,2.634,2.341,4.736,4.975,4.975V17c0-0.276,0.224-0.5,0.5-0.5s0.5,0.224,0.5,0.5v0.475
			c2.634-0.239,4.736-2.341,4.975-4.975H17c-0.276,0-0.5-0.224-0.5-0.5s0.224-0.5,0.5-0.5h0.475
			c-0.239-2.634-2.341-4.736-4.975-4.975V7c0,0.276-0.224,0.5-0.5,0.5S11.5,7.276,11.5,7V6.528c-1.498,0.136-2.87,0.87-3.818,2.072
			C7.512,8.817,7.197,8.854,6.98,8.684C6.763,8.513,6.726,8.198,6.897,7.981C8.141,6.404,10,5.5,12,5.5c3.584,0,6.5,2.916,6.5,6.5
			s-2.916,6.5-6.5,6.5S5.5,15.584,5.5,12c0-0.593,0.102-1.183,0.268-1.764L4.834,9.88C4.627,10.579,4.5,11.288,4.5,12
			c0,4.136,3.364,7.5,7.5,7.5s7.5-3.364,7.5-7.5S16.136,4.5,12,4.5z M11.354,11.354c-0.195,0.195-0.512,0.195-0.707,0
			s-0.195-0.512,0-0.707l1-1c0.143-0.143,0.359-0.187,0.545-0.108C12.378,9.615,12.5,9.798,12.5,10v3.5H13
			c0.276,0,0.5,0.224,0.5,0.5s-0.224,0.5-0.5,0.5h-2c-0.276,0-0.5-0.224-0.5-0.5s0.224-0.5,0.5-0.5h0.5v-2.293L11.354,11.354z"/>
		<path d="M20.475,11.5c-0.251-4.287-3.687-7.723-7.975-7.975V1.5H23c0.276,0,0.5,0.224,0.5,0.5v9.5H20.475z"/>
	</g>
</g>
<g>
</g>
<g>
</g>
<g>
</g>
<g>
</g>
<g>
</g>
<g>
</g>
<g>
</g>
<g>
</g>
<g>
</g>
<g>
</g>
<g>
</g>
<g>
</g>
<g>
</g>
<g>
</g>
<g>
</g>
</svg>
