<?xml version="1.0" encoding="iso-8859-1"?>
<!-- Generator: Adobe Illustrator 19.0.0, SVG Export Plug-In . SVG Version: 6.00 Build 0)  -->
<svg version="1.1" id="Layer_1" xmlns="http://www.w3.org/2000/svg" xmlns:xlink="http://www.w3.org/1999/xlink" x="0px" y="0px"
	 viewBox="0 0 24 24" style="enable-background:new 0 0 24 24;" xml:space="preserve">
<g>
	<g>
		<g>
			<path d="M1.584,20.094c-0.075,0-0.151-0.017-0.224-0.053c-0.247-0.124-0.347-0.424-0.224-0.671l1-2
				c0.124-0.247,0.425-0.345,0.671-0.224l2,1c0.247,0.124,0.347,0.424,0.224,0.671c-0.123,0.248-0.423,0.346-0.671,0.224
				l-1.553-0.776l-0.776,1.553C1.944,19.993,1.767,20.094,1.584,20.094z"/>
		</g>
		<g>
			<path d="M7.584,23.094c-0.001,0-0.001,0-0.002,0c-3.141-0.01-5.142-2.742-5.494-5.435c-0.035-0.274,0.157-0.525,0.432-0.561
				c0.256-0.04,0.524,0.156,0.561,0.431c0.296,2.262,1.938,4.557,4.506,4.565c0.275,0.001,0.499,0.226,0.498,0.501
				S7.86,23.094,7.584,23.094z"/>
		</g>
	</g>
	<g>
		<g>
			<path d="M21.584,7.092c-0.075,0-0.151-0.017-0.224-0.053l-2-1c-0.247-0.124-0.347-0.424-0.224-0.671
				c0.124-0.247,0.424-0.345,0.671-0.224l1.553,0.776l0.776-1.553c0.124-0.247,0.424-0.344,0.671-0.224
				c0.247,0.124,0.347,0.424,0.224,0.671l-1,2C21.944,6.991,21.767,7.092,21.584,7.092z"/>
		</g>
		<g>
			<path d="M21.583,7.092c-0.247,0-0.462-0.183-0.495-0.435c-0.296-2.262-1.938-4.557-4.506-4.565
				c-0.275-0.001-0.499-0.226-0.498-0.501s0.225-0.499,0.5-0.499c0.001,0,0.001,0,0.002,0c3.141,0.01,5.142,2.742,5.494,5.435
				c0.035,0.274-0.157,0.525-0.432,0.561C21.627,7.091,21.606,7.092,21.583,7.092z"/>
		</g>
	</g>
	<g>
		<path d="M13.084,13.594c0,0.711,0.875,1.325,2,1.468v-2.936C13.959,12.269,13.084,12.883,13.084,13.594z"/>
		<path d="M18.084,17.594c0-0.711-0.875-1.325-2-1.468v2.936C17.21,18.919,18.084,18.304,18.084,17.594z"/>
		<path d="M15.584,7.094c-4.687,0-8.5,3.813-8.5,8.5s3.813,8.5,8.5,8.5s8.5-3.813,8.5-8.5S20.271,7.094,15.584,7.094z
			 M19.084,17.594c0,1.279-1.285,2.295-3,2.465v0.535c0,0.276-0.224,0.5-0.5,0.5s-0.5-0.224-0.5-0.5v-0.535
			c-1.715-0.17-3-1.186-3-2.465c0-0.276,0.224-0.5,0.5-0.5s0.5,0.224,0.5,0.5c0,0.711,0.875,1.325,2,1.468v-3.003
			c-1.715-0.17-3-1.186-3-2.465s1.285-2.295,3-2.465v-0.535c0-0.276,0.224-0.5,0.5-0.5s0.5,0.224,0.5,0.5v0.535
			c1.715,0.17,3,1.186,3,2.465c0,0.276-0.224,0.5-0.5,0.5s-0.5-0.224-0.5-0.5c0-0.711-0.875-1.325-2-1.468v3.003
			C17.8,15.299,19.084,16.315,19.084,17.594z"/>
	</g>
	<g>
		<path d="M6.786,12.025c-1.564-0.252-2.702-1.227-2.702-2.432v-0.5h-0.5c-0.276,0-0.5-0.224-0.5-0.5s0.224-0.5,0.5-0.5h0.5v-1h-0.5
			c-0.276,0-0.5-0.224-0.5-0.5s0.224-0.5,0.5-0.5h0.5v-0.5c0-1.402,1.537-2.5,3.5-2.5s3.5,1.098,3.5,2.5c0,0.276-0.224,0.5-0.5,0.5
			s-0.5-0.224-0.5-0.5c0-0.813-1.145-1.5-2.5-1.5s-2.5,0.687-2.5,1.5v0.5h3.5c0.276,0,0.5,0.224,0.5,0.5s-0.224,0.5-0.5,0.5h-3.5v1
			h3.5c0.276,0,0.5,0.224,0.5,0.5c0,0.045-0.014,0.084-0.025,0.126c1.556-1.477,3.605-2.439,5.879-2.593
			c-0.684-3.435-3.72-6.033-7.354-6.033c-4.136,0-7.5,3.364-7.5,7.5c0,3.634,2.597,6.67,6.033,7.354
			c0.077-1.129,0.356-2.202,0.793-3.189C6.871,11.849,6.823,11.934,6.786,12.025z"/>
		<path d="M7.232,11.072c-0.069,0.126-0.121,0.262-0.183,0.392c0.429-0.884,0.992-1.69,1.661-2.395
			C8.669,9.079,8.629,9.094,8.584,9.094h-3.5v0.5C5.084,10.335,6.037,10.964,7.232,11.072z"/>
	</g>
</g>
<g>
</g>
<g>
</g>
<g>
</g>
<g>
</g>
<g>
</g>
<g>
</g>
<g>
</g>
<g>
</g>
<g>
</g>
<g>
</g>
<g>
</g>
<g>
</g>
<g>
</g>
<g>
</g>
<g>
</g>
</svg>
