<?xml version="1.0" encoding="iso-8859-1"?>
<!-- Generator: Adobe Illustrator 19.0.0, SVG Export Plug-In . SVG Version: 6.00 Build 0)  -->
<svg version="1.1" id="Layer_1" xmlns="http://www.w3.org/2000/svg" xmlns:xlink="http://www.w3.org/1999/xlink" x="0px" y="0px"
	 viewBox="0 0 24 24" style="enable-background:new 0 0 24 24;" xml:space="preserve">
<g>
	<path d="M23.584,9.594h-5c-0.202,0-0.385,0.122-0.462,0.309c-0.078,0.187-0.035,0.402,0.108,0.545l2.146,2.146l-6.793,6.793
		L9.938,15.74c-0.195-0.195-0.512-0.195-0.707,0l-6,6c-0.195,0.195-0.195,0.512,0,0.707c0.098,0.098,0.226,0.146,0.354,0.146
		s0.256-0.049,0.354-0.146l5.646-5.646l3.646,3.646c0.195,0.195,0.512,0.195,0.707,0l7.146-7.146l2.146,2.146
		c0.096,0.096,0.224,0.146,0.354,0.146c0.064,0,0.129-0.012,0.191-0.038c0.187-0.077,0.309-0.26,0.309-0.462v-5
		C24.084,9.817,23.861,9.594,23.584,9.594z"/>
	<g>
		<path d="M9.084,10.727v1.803c0.575-0.141,1-0.511,1-0.936C10.084,11.197,9.751,10.919,9.084,10.727z"/>
		<path d="M7.084,8.594c0,0.397,0.334,0.674,1,0.867V7.658C7.509,7.799,7.084,8.169,7.084,8.594z"/>
		<path d="M8.584,1.594c-4.694,0-8.5,3.806-8.5,8.5c0,3.619,2.265,6.701,5.452,7.927l2.988-2.988
			c0.283-0.283,0.66-0.439,1.061-0.439s0.777,0.156,1.061,0.439l2.329,2.329c2.46-1.489,4.11-4.183,4.11-7.269
			C17.084,5.399,13.279,1.594,8.584,1.594z M9.084,13.553v0.541c0,0.276-0.224,0.5-0.5,0.5s-0.5-0.224-0.5-0.5v-0.539
			c-1.094-0.171-1.921-0.898-1.998-1.823c-0.023-0.275,0.181-0.517,0.456-0.54c0.277-0.021,0.517,0.181,0.54,0.456
			c0.034,0.406,0.451,0.75,1.002,0.884v-2.039c-1.345-0.331-2-0.963-2-1.899c0-0.966,0.86-1.773,2-1.959V6.094
			c0-0.276,0.224-0.5,0.5-0.5s0.5,0.224,0.5,0.5v0.539c1.094,0.171,1.92,0.897,1.998,1.823c0.023,0.275-0.181,0.517-0.456,0.54
			c-0.268,0.03-0.517-0.181-0.54-0.456C10.052,8.134,9.636,7.79,9.084,7.656v2.039c1.345,0.331,2,0.962,2,1.9
			C11.084,12.56,10.224,13.367,9.084,13.553z"/>
	</g>
</g>
<g>
</g>
<g>
</g>
<g>
</g>
<g>
</g>
<g>
</g>
<g>
</g>
<g>
</g>
<g>
</g>
<g>
</g>
<g>
</g>
<g>
</g>
<g>
</g>
<g>
</g>
<g>
</g>
<g>
</g>
</svg>
