<?xml version="1.0" encoding="iso-8859-1"?>
<!-- Generator: Adobe Illustrator 19.0.0, SVG Export Plug-In . SVG Version: 6.00 Build 0)  -->
<svg version="1.1" id="Layer_1" xmlns="http://www.w3.org/2000/svg" xmlns:xlink="http://www.w3.org/1999/xlink" x="0px" y="0px"
	 viewBox="0 0 24 24" style="enable-background:new 0 0 24 24;" xml:space="preserve">
<g>
	<path d="M14.584,14.594c0-0.966-0.86-1.774-2-1.96v3.919C13.724,16.367,14.584,15.56,14.584,14.594z"/>
	<path d="M9.584,9.594c0,0.966,0.86,1.774,2,1.96V7.634C10.445,7.82,9.584,8.628,9.584,9.594z"/>
	<path d="M12.084,0.594c-6.341,0-11.5,5.159-11.5,11.5s5.159,11.5,11.5,11.5s11.5-5.159,11.5-11.5S18.426,0.594,12.084,0.594z
		 M15.584,14.594c0,1.508-1.308,2.747-3,2.957v0.543c0,0.276-0.224,0.5-0.5,0.5s-0.5-0.224-0.5-0.5V17.55
		c-1.692-0.21-3-1.449-3-2.957c0-0.276,0.224-0.5,0.5-0.5s0.5,0.224,0.5,0.5c0,0.966,0.86,1.774,2,1.96V12.55
		c-1.692-0.21-3-1.449-3-2.957s1.308-2.747,3-2.957V6.094c0-0.276,0.224-0.5,0.5-0.5s0.5,0.224,0.5,0.5v0.543
		c1.692,0.21,3,1.449,3,2.957c0,0.276-0.224,0.5-0.5,0.5s-0.5-0.224-0.5-0.5c0-0.966-0.86-1.774-2-1.96v4.003
		C14.276,11.847,15.584,13.086,15.584,14.594z"/>
</g>
<g>
</g>
<g>
</g>
<g>
</g>
<g>
</g>
<g>
</g>
<g>
</g>
<g>
</g>
<g>
</g>
<g>
</g>
<g>
</g>
<g>
</g>
<g>
</g>
<g>
</g>
<g>
</g>
<g>
</g>
</svg>
