<?xml version="1.0" encoding="iso-8859-1"?>
<!-- Generator: Adobe Illustrator 19.0.0, SVG Export Plug-In . SVG Version: 6.00 Build 0)  -->
<svg version="1.1" id="Layer_1" xmlns="http://www.w3.org/2000/svg" xmlns:xlink="http://www.w3.org/1999/xlink" x="0px" y="0px"
	 viewBox="0 0 24 24" style="enable-background:new 0 0 24 24;" xml:space="preserve">
<g>
	<g>
		<path d="M13.084,22.094c-4.293,0-7.5-3.167-7.5-6v-8c0-2.833,3.207-6,7.5-6c4.275,0,7.5,2.149,7.5,5c0,0.276-0.224,0.5-0.5,0.5
			s-0.5-0.224-0.5-0.5c0-2.243-2.855-4-6.5-4c-3.661,0-6.5,2.688-6.5,5v8c0,2.312,2.839,5,6.5,5c3.645,0,6.5-1.757,6.5-4
			c0-0.276,0.224-0.5,0.5-0.5s0.5,0.224,0.5,0.5C20.584,19.944,17.36,22.094,13.084,22.094z"/>
	</g>
	<g>
		<path d="M16.084,11.094h-12c-0.276,0-0.5-0.224-0.5-0.5s0.224-0.5,0.5-0.5h12c0.276,0,0.5,0.224,0.5,0.5
			S16.361,11.094,16.084,11.094z"/>
	</g>
	<g>
		<path d="M18.084,14.094h-14c-0.276,0-0.5-0.224-0.5-0.5s0.224-0.5,0.5-0.5h14c0.276,0,0.5,0.224,0.5,0.5
			S18.361,14.094,18.084,14.094z"/>
	</g>
</g>
<g>
</g>
<g>
</g>
<g>
</g>
<g>
</g>
<g>
</g>
<g>
</g>
<g>
</g>
<g>
</g>
<g>
</g>
<g>
</g>
<g>
</g>
<g>
</g>
<g>
</g>
<g>
</g>
<g>
</g>
</svg>
