<?xml version="1.0" encoding="iso-8859-1"?>
<!-- Generator: Adobe Illustrator 19.0.0, SVG Export Plug-In . SVG Version: 6.00 Build 0)  -->
<svg version="1.1" id="Layer_1" xmlns="http://www.w3.org/2000/svg" xmlns:xlink="http://www.w3.org/1999/xlink" x="0px" y="0px"
	 viewBox="0 0 24 24" style="enable-background:new 0 0 24 24;" xml:space="preserve">
<g>
	<path d="M23.584,9.594h-5c-0.202,0-0.385,0.122-0.462,0.309c-0.078,0.187-0.035,0.402,0.108,0.545l2.146,2.146l-6.793,6.793
		L9.938,15.74c-0.195-0.195-0.512-0.195-0.707,0l-6,6c-0.195,0.195-0.195,0.512,0,0.707c0.098,0.098,0.226,0.146,0.354,0.146
		s0.256-0.049,0.354-0.146l5.646-5.646l3.646,3.646c0.195,0.195,0.512,0.195,0.707,0l7.146-7.146l2.146,2.146
		c0.096,0.096,0.224,0.146,0.354,0.146c0.064,0,0.129-0.012,0.191-0.038c0.187-0.077,0.309-0.26,0.309-0.462v-5
		C24.084,9.817,23.861,9.594,23.584,9.594z"/>
	<path d="M8.584,1.594c-4.694,0-8.5,3.806-8.5,8.5c0,3.619,2.265,6.701,5.452,7.927l2.988-2.988c0.283-0.283,0.66-0.439,1.061-0.439
		s0.777,0.156,1.061,0.439l2.329,2.329c2.46-1.489,4.11-4.183,4.11-7.269C17.084,5.399,13.279,1.594,8.584,1.594z M10.584,13.594h-4
		c-0.161,0-0.312-0.077-0.405-0.208c-0.095-0.13-0.12-0.298-0.069-0.451l0.781-2.342H5.584c-0.276,0-0.5-0.224-0.5-0.5
		s0.224-0.5,0.5-0.5H6.65L6.168,8.871C6.114,8.789,6.084,8.692,6.084,8.594c0-1.103,1.122-2,2.502-2c1.574,0,2.414,0.49,2.496,1.458
		c0.023,0.275-0.181,0.518-0.456,0.541c-0.254,0.025-0.518-0.18-0.54-0.456c-0.03-0.36-0.535-0.542-1.5-0.542
		c-0.747,0-1.389,0.386-1.488,0.869l0.754,1.131h0.732c0.276,0,0.5,0.224,0.5,0.5s-0.224,0.5-0.5,0.5H7.945l-0.667,2h3.307
		c0.276,0,0.5,0.224,0.5,0.5S10.861,13.594,10.584,13.594z"/>
</g>
<g>
</g>
<g>
</g>
<g>
</g>
<g>
</g>
<g>
</g>
<g>
</g>
<g>
</g>
<g>
</g>
<g>
</g>
<g>
</g>
<g>
</g>
<g>
</g>
<g>
</g>
<g>
</g>
<g>
</g>
</svg>
