<?xml version="1.0" encoding="iso-8859-1"?>
<!-- Generator: Adobe Illustrator 19.0.0, SVG Export Plug-In . SVG Version: 6.00 Build 0)  -->
<svg version="1.1" id="Layer_1" xmlns="http://www.w3.org/2000/svg" xmlns:xlink="http://www.w3.org/1999/xlink" x="0px" y="0px"
	 viewBox="0 0 24 24" style="enable-background:new 0 0 24 24;" xml:space="preserve">
<g>
	<g>
		<circle cx="19.584" cy="12.094" r="0.5"/>
		<path d="M19.584,15.594c-1.93,0-3.5-1.57-3.5-3.5s1.57-3.5,3.5-3.5h4.5v-2.5c0-1.93-1.57-3.5-3.5-3.5h-17
			c-1.93,0-3.5,1.57-3.5,3.5v12c0,1.93,1.57,3.5,3.5,3.5h17c1.93,0,3.5-1.57,3.5-3.5v-2.5H19.584z"/>
		<path d="M17.084,12.094c0,1.378,1.121,2.5,2.5,2.5h4.5v-5h-4.5C18.205,9.594,17.084,10.715,17.084,12.094z M21.084,12.094
			c0,0.827-0.673,1.5-1.5,1.5s-1.5-0.673-1.5-1.5s0.673-1.5,1.5-1.5S21.084,11.267,21.084,12.094z"/>
	</g>
</g>
<g>
</g>
<g>
</g>
<g>
</g>
<g>
</g>
<g>
</g>
<g>
</g>
<g>
</g>
<g>
</g>
<g>
</g>
<g>
</g>
<g>
</g>
<g>
</g>
<g>
</g>
<g>
</g>
<g>
</g>
</svg>
