<?xml version="1.0" encoding="iso-8859-1"?>
<!-- Generator: Adobe Illustrator 18.0.0, SVG Export Plug-In . SVG Version: 6.00 Build 0)  -->
<!DOCTYPE svg PUBLIC "-//W3C//DTD SVG 1.1//EN" "http://www.w3.org/Graphics/SVG/1.1/DTD/svg11.dtd">
<svg version="1.1" id="Layer_1" xmlns="http://www.w3.org/2000/svg" xmlns:xlink="http://www.w3.org/1999/xlink" x="0px" y="0px"
	 viewBox="0 0 24 24" style="enable-background:new 0 0 24 24;" xml:space="preserve">
<g>
	<path d="M5.624,15.328c-0.276,0-0.5-0.224-0.5-0.5s0.224-0.5,0.5-0.5c2.476,0,8.5-4.458,8.5-5.5c0-0.276,0.224-0.5,0.5-0.5
		s0.5,0.224,0.5,0.5C15.124,10.874,8.127,15.328,5.624,15.328z"/>
	<path d="M18.624,11.828c-0.036,0-0.071-0.004-0.107-0.012c-0.733-0.16-4.393-1.059-4.393-2.988c0-0.276,0.224-0.5,0.5-0.5
		s0.5,0.224,0.5,0.5c0,0.832,2.152,1.692,3.607,2.012c0.27,0.059,0.44,0.326,0.381,0.595C19.061,11.669,18.854,11.828,18.624,11.828
		z"/>
	<path d="M12.624,23.328c-2.602,0-8.5-6.406-8.5-12.5c0-2.596,0.774-4.493,2.303-5.646L5.538,2.959
		C5.23,2.189,5.57,1.296,6.311,0.925c0.869-0.434,1.884-0.012,2.224,0.833L9.427,3.99c0.626-0.104,1.314-0.157,2.087-0.161
		l0.374-1.869c0.184-0.918,1.188-1.506,2.084-1.209l0.884,0.294c0.767,0.256,1.226,1.047,1.067,1.84l-0.264,1.319
		c0.437,0.108,0.841,0.243,1.208,0.403c0.397-0.716,1.364-1.035,2.122-0.655c0.71,0.355,1.057,1.191,0.805,1.945L19.364,7.19
		c0.175,0.513,0.26,1.05,0.26,1.638C19.624,12.915,16.52,23.328,12.624,23.328z M7.042,1.749c-0.094,0-0.185,0.021-0.271,0.064
		C6.478,1.96,6.35,2.297,6.467,2.587l1.036,2.592C7.592,5.402,7.51,5.657,7.307,5.786c-1.469,0.939-2.184,2.588-2.184,5.042
		c0,5.652,5.569,11.5,7.5,11.5c2.7,0,6-9.038,6-13.5c0-0.529-0.084-1.004-0.256-1.452c-0.042-0.108-0.044-0.228-0.007-0.338
		l0.486-1.458c0.095-0.285-0.036-0.601-0.304-0.734c-0.323-0.162-0.734,0.014-0.847,0.351l-0.085,0.256
		c-0.047,0.141-0.154,0.254-0.293,0.308c-0.139,0.054-0.294,0.043-0.424-0.029c-0.52-0.29-1.165-0.51-1.915-0.655
		c-0.131-0.025-0.246-0.102-0.32-0.212c-0.074-0.111-0.102-0.246-0.075-0.377l0.36-1.8c0.06-0.299-0.114-0.598-0.403-0.695
		l-0.884-0.294c-0.343-0.115-0.718,0.11-0.787,0.457l-0.454,2.272c-0.047,0.234-0.252,0.402-0.49,0.402c-0.001,0-0.003,0-0.005,0
		l-0.295-0.002c-0.924,0-1.71,0.071-2.405,0.218C8.986,5.098,8.742,4.969,8.651,4.742L7.606,2.13
		C7.514,1.899,7.292,1.749,7.042,1.749z"/>
</g>
<g>
</g>
<g>
</g>
<g>
</g>
<g>
</g>
<g>
</g>
<g>
</g>
<g>
</g>
<g>
</g>
<g>
</g>
<g>
</g>
<g>
</g>
<g>
</g>
<g>
</g>
<g>
</g>
<g>
</g>
</svg>
