<?xml version="1.0" encoding="iso-8859-1"?>
<!-- Generator: Adobe Illustrator 18.0.0, SVG Export Plug-In . SVG Version: 6.00 Build 0)  -->
<!DOCTYPE svg PUBLIC "-//W3C//DTD SVG 1.1//EN" "http://www.w3.org/Graphics/SVG/1.1/DTD/svg11.dtd">
<svg version="1.1" id="Layer_1" xmlns="http://www.w3.org/2000/svg" xmlns:xlink="http://www.w3.org/1999/xlink" x="0px" y="0px"
	 viewBox="0 0 24 24" style="enable-background:new 0 0 24 24;" xml:space="preserve">
<g>
	<path d="M9,24c-0.006,0-0.011,0-0.017,0c-0.276-0.01-0.492-0.24-0.483-0.517c0.047-1.405,0.701-2.088,1.242-2.412
		c0.237-0.145,0.544-0.064,0.686,0.172c0.142,0.236,0.065,0.544-0.171,0.686c-0.477,0.286-0.732,0.82-0.758,1.588
		C9.491,23.787,9.269,24,9,24z"/>
	<g>
		<path d="M12,8C5.895,8,0.949,7,0.899,6.99C0.648,6.938,0.477,6.705,0.502,6.449C0.528,6.194,0.744,6,1,6
			c0.866,0,1.888-0.747,2.876-1.469C4.954,3.744,5.972,3,7,3c1.902,0,5.127,1.99,5.264,2.075c0.235,0.146,0.307,0.454,0.161,0.688
			C12.28,5.998,11.97,6.07,11.736,5.925C10.874,5.39,8.342,4,7,4C6.298,4,5.367,4.681,4.466,5.339
			C3.989,5.688,3.505,6.041,3.015,6.331C4.979,6.62,8.268,7,12,7c0.276,0,0.5,0.224,0.5,0.5S12.276,8,12,8z"/>
		<path d="M12,8c-0.276,0-0.5-0.224-0.5-0.5S11.724,7,12,7c3.736,0,7.023-0.379,8.986-0.668c-0.491-0.291-0.975-0.645-1.452-0.993
			C18.633,4.681,17.702,4,17,4c-1.344,0-3.875,1.39-4.736,1.925c-0.235,0.146-0.543,0.073-0.688-0.161s-0.074-0.543,0.161-0.688
			C11.873,4.99,15.098,3,17,3c1.028,0,2.046,0.744,3.124,1.531C21.112,5.253,22.134,6,23,6c0.256,0,0.472,0.194,0.498,0.449
			c0.026,0.256-0.146,0.489-0.397,0.541C23.051,7,18.105,8,12,8z"/>
		<path d="M12,5c-1.378,0-2.5-1.121-2.5-2.5S10.622,0,12,0s2.5,1.121,2.5,2.5S13.378,5,12,5z M12,1c-0.827,0-1.5,0.673-1.5,1.5
			S11.173,4,12,4s1.5-0.673,1.5-1.5S12.827,1,12,1z"/>
		<path d="M12,24c-0.276,0-0.5-0.224-0.5-0.5v-16C11.5,7.224,11.724,7,12,7s0.5,0.224,0.5,0.5v16C12.5,23.776,12.276,24,12,24z"/>
	</g>
	<path d="M14,20c-0.16,0-0.318-0.077-0.415-0.22c-0.155-0.229-0.095-0.539,0.134-0.694c1.179-0.799,1.791-1.526,1.722-2.048
		c-0.111-0.841-1.921-1.467-2.893-1.804c-0.292-0.101-0.544-0.188-0.724-0.266c-0.597-0.191-4.817-1.612-5.275-3.639
		c-0.096-0.424-0.068-1.062,0.609-1.695c0.848-0.791,2.257-0.749,2.817-0.158c0.312,0.329,0.392,0.885-0.129,1.385
		c-0.337,0.323-0.334,0.598-0.302,0.776c0.146,0.828,1.49,1.891,2.652,2.402c0.003,0.002,0.007,0.003,0.01,0.005
		c0.163,0.07,0.396,0.15,0.669,0.245c1.34,0.464,3.366,1.164,3.558,2.617c0.126,0.957-0.578,1.94-2.153,3.007
		C14.194,19.972,14.097,20,14,20z M8.738,10.037c-0.344,0-0.675,0.12-0.897,0.328c-0.359,0.336-0.353,0.586-0.316,0.744
		c0.095,0.42,0.576,0.895,1.26,1.352c-0.108-0.209-0.186-0.426-0.226-0.648c-0.076-0.43-0.035-1.069,0.595-1.674
		c0.008-0.007,0.015-0.014,0.021-0.021c-0.074-0.034-0.198-0.071-0.368-0.079C8.785,10.038,8.761,10.037,8.738,10.037z"/>
	<path d="M14,14c-0.171,0-0.334-0.088-0.427-0.24c-0.12-0.197-0.089-0.45,0.074-0.613c1.06-1.061,1.184-1.617,0.509-2.293
		c-0.481-0.48-0.368-0.932-0.296-1.104c0.184-0.444,0.741-0.731,1.42-0.731c0.607,0,1.185,0.229,1.583,0.628
		c0.719,0.719,0.743,1.391,0.637,1.827c-0.344,1.409-2.456,2.22-3.348,2.503C14.101,13.992,14.05,14,14,14z M14.829,10.111
		c0.009,0.01,0.021,0.021,0.034,0.035c0.781,0.781,0.815,1.546,0.579,2.191c0.605-0.354,0.999-0.742,1.086-1.102
		c0.025-0.102,0.1-0.41-0.372-0.883c-0.213-0.213-0.532-0.335-0.876-0.335C15.059,10.019,14.906,10.07,14.829,10.111z"/>
	<path d="M15,24c-0.03,0-0.062-0.003-0.093-0.009c-0.271-0.051-0.45-0.312-0.399-0.583c0.008-0.057,0.205-1.583-2.651-2.429
		c-2.818-0.835-4.253-1.83-4.389-3.043c-0.111-0.996,0.659-1.962,2.287-2.873c0.241-0.135,0.545-0.049,0.681,0.192
		c0.135,0.241,0.048,0.546-0.192,0.681c-1.191,0.666-1.84,1.354-1.781,1.89c0.038,0.343,0.473,1.244,3.679,2.194
		c3.764,1.115,3.368,3.472,3.349,3.571C15.446,23.832,15.236,24,15,24z"/>
</g>
<g>
</g>
<g>
</g>
<g>
</g>
<g>
</g>
<g>
</g>
<g>
</g>
<g>
</g>
<g>
</g>
<g>
</g>
<g>
</g>
<g>
</g>
<g>
</g>
<g>
</g>
<g>
</g>
<g>
</g>
</svg>
