<?xml version="1.0" encoding="iso-8859-1"?>
<!-- Generator: Adobe Illustrator 18.0.0, SVG Export Plug-In . SVG Version: 6.00 Build 0)  -->
<!DOCTYPE svg PUBLIC "-//W3C//DTD SVG 1.1//EN" "http://www.w3.org/Graphics/SVG/1.1/DTD/svg11.dtd">
<svg version="1.1" id="Layer_1" xmlns="http://www.w3.org/2000/svg" xmlns:xlink="http://www.w3.org/1999/xlink" x="0px" y="0px"
	 viewBox="0 0 24 24" style="enable-background:new 0 0 24 24;" xml:space="preserve">
<g>
	<path d="M18,13H6c-0.276,0-0.5-0.224-0.5-0.5S5.724,12,6,12h12c0.276,0,0.5,0.224,0.5,0.5S18.276,13,18,13z"/>
	<path d="M18,21H6c-0.276,0-0.5-0.224-0.5-0.5S5.724,20,6,20h12c0.276,0,0.5,0.224,0.5,0.5S18.276,21,18,21z"/>
	<path d="M12,19c-0.276,0-0.5-0.224-0.5-0.5v-4c0-0.276,0.224-0.5,0.5-0.5s0.5,0.224,0.5,0.5v4C12.5,18.776,12.276,19,12,19z"/>
	<path d="M14,17h-4c-0.276,0-0.5-0.224-0.5-0.5S9.724,16,10,16h4c0.276,0,0.5,0.224,0.5,0.5S14.276,17,14,17z"/>
	<path d="M16,5H8C7.173,5,6.5,4.327,6.5,3.5v-2C6.5,0.673,7.173,0,8,0h8c0.827,0,1.5,0.673,1.5,1.5v2C17.5,4.327,16.827,5,16,5z
		 M8,1C7.724,1,7.5,1.225,7.5,1.5v2C7.5,3.775,7.724,4,8,4h8c0.276,0,0.5-0.225,0.5-0.5v-2C16.5,1.225,16.276,1,16,1H8z"/>
	<path d="M16,24H8c-1.378,0-2.5-1.121-2.5-2.5v-11c0-1.76,1.306-3.221,3-3.465V4.5C8.5,4.224,8.724,4,9,4h6
		c0.276,0,0.5,0.224,0.5,0.5v2.535c1.694,0.244,3,1.705,3,3.465v11C18.5,22.879,17.378,24,16,24z M9.5,5v2.5C9.5,7.776,9.276,8,9,8
		c-1.378,0-2.5,1.121-2.5,2.5v11C6.5,22.327,7.173,23,8,23h8c0.827,0,1.5-0.673,1.5-1.5v-11C17.5,9.121,16.378,8,15,8
		c-0.276,0-0.5-0.224-0.5-0.5V5H9.5z"/>
	<path d="M11,4.5c-0.276,0-0.5-0.224-0.5-0.5V0.5C10.5,0.224,10.724,0,11,0s0.5,0.224,0.5,0.5V4C11.5,4.276,11.276,4.5,11,4.5z"/>
	<path d="M9,5C8.724,5,8.5,4.776,8.5,4.5v-4C8.5,0.224,8.724,0,9,0s0.5,0.224,0.5,0.5v4C9.5,4.776,9.276,5,9,5z"/>
	<path d="M13,5c-0.276,0-0.5-0.224-0.5-0.5v-4C12.5,0.224,12.724,0,13,0s0.5,0.224,0.5,0.5v4C13.5,4.776,13.276,5,13,5z"/>
	<path d="M15,4.5c-0.276,0-0.5-0.224-0.5-0.5V0.5C14.5,0.224,14.724,0,15,0s0.5,0.224,0.5,0.5V4C15.5,4.276,15.276,4.5,15,4.5z"/>
</g>
<g>
</g>
<g>
</g>
<g>
</g>
<g>
</g>
<g>
</g>
<g>
</g>
<g>
</g>
<g>
</g>
<g>
</g>
<g>
</g>
<g>
</g>
<g>
</g>
<g>
</g>
<g>
</g>
<g>
</g>
</svg>
