<?xml version="1.0" encoding="iso-8859-1"?>
<!-- Generator: Adobe Illustrator 18.0.0, SVG Export Plug-In . SVG Version: 6.00 Build 0)  -->
<!DOCTYPE svg PUBLIC "-//W3C//DTD SVG 1.1//EN" "http://www.w3.org/Graphics/SVG/1.1/DTD/svg11.dtd">
<svg version="1.1" id="Layer_1" xmlns="http://www.w3.org/2000/svg" xmlns:xlink="http://www.w3.org/1999/xlink" x="0px" y="0px"
	 viewBox="0 0 24 24" style="enable-background:new 0 0 24 24;" xml:space="preserve">
<path d="M4.75,24h-3c-0.145,0-0.282-0.063-0.377-0.172c-0.095-0.109-0.138-0.254-0.118-0.398c0.53-3.767,1.926-6.18,4.268-7.375
	c2.644-1.35,2.728-1.735,2.728-3.555V5.736c0-3.664,3.109-5.584,3.241-5.664C11.569,0.025,11.659,0,11.75,0h3
	c0.209,0,0.396,0.13,0.469,0.326c0.073,0.196,0.016,0.417-0.142,0.553c-1.307,1.128-3.094,3.191-2.78,4.034
	C12.435,5.286,13.147,5.5,14.25,5.5c2.94,0,8.5,1.463,8.5,7c0,5.488-5.261,9.5-8,9.5c-1.371,0-2.699-0.56-3.983-1.102
	C9.671,20.436,8.637,20,7.75,20c-1.356,0-2.292,2.677-2.513,3.614C5.184,23.84,4.982,24,4.75,24z M2.333,23h2.031
	c0.316-1.11,1.338-4,3.385-4c1.089,0,2.214,0.475,3.405,0.977C12.348,20.48,13.582,21,14.75,21c2.088,0,7-3.589,7-8.5
	c0-4.746-4.906-6-7.5-6c-1.635,0-2.581-0.405-2.891-1.239C10.873,3.952,12.384,2.113,13.486,1H11.9
	c-0.512,0.355-2.65,2.003-2.65,4.736V12.5c0,2.249-0.302,2.928-3.272,4.445C4.034,17.938,2.868,19.869,2.333,23z"/>
<g>
</g>
<g>
</g>
<g>
</g>
<g>
</g>
<g>
</g>
<g>
</g>
<g>
</g>
<g>
</g>
<g>
</g>
<g>
</g>
<g>
</g>
<g>
</g>
<g>
</g>
<g>
</g>
<g>
</g>
</svg>
