<?xml version="1.0" encoding="iso-8859-1"?>
<!-- Generator: Adobe Illustrator 19.0.0, SVG Export Plug-In . SVG Version: 6.00 Build 0)  -->
<svg version="1.1" id="Layer_1" xmlns="http://www.w3.org/2000/svg" xmlns:xlink="http://www.w3.org/1999/xlink" x="0px" y="0px"
	 viewBox="0 0 24 24" style="enable-background:new 0 0 24 24;" xml:space="preserve">
<g>
	<g>
		<path d="M9.859,21.12c-0.195-0.195-0.512-0.195-0.707,0c-0.195,0.195-0.195,0.512,0,0.707l1,1
			c0.098,0.097,0.226,0.146,0.354,0.146s0.256-0.049,0.353-0.146c0.195-0.195,0.195-0.512,0-0.707L9.859,21.12z M2.859,19.12
			c-0.195-0.195-0.512-0.195-0.707,0c-0.195,0.195-0.195,0.512,0,0.707l4,4c0.098,0.097,0.226,0.146,0.354,0.146
			s0.256-0.049,0.353-0.146c0.195-0.195,0.195-0.512,0-0.707L2.859,19.12z M8.859,5.12c-0.195-0.195-0.512-0.195-0.707,0l-3,3
			c-0.195,0.195-0.195,0.512,0,0.707C5.25,8.924,5.378,8.973,5.506,8.973s0.256-0.049,0.353-0.146l3-3
			C9.054,5.632,9.054,5.315,8.859,5.12z M21.152,4.827c0.098,0.097,0.226,0.146,0.354,0.146s0.256-0.049,0.353-0.146
			c0.195-0.195,0.195-0.512,0-0.707l-2-2c-0.195-0.195-0.512-0.195-0.707,0c-0.195,0.195-0.195,0.512,0,0.707L21.152,4.827z
			 M2.789,14.435c0.128,0,0.256-0.049,0.353-0.146c0.195-0.195,0.195-0.512,0-0.707c-2.879-2.879-2.879-7.565,0-10.444
			c1.376-1.377,3.231-2.135,5.222-2.135c0.276,0,0.5-0.224,0.5-0.5s-0.224-0.5-0.5-0.5C6.106,0.003,4,0.865,2.435,2.431
			c-3.269,3.269-3.269,8.588,0,11.858C2.533,14.386,2.661,14.435,2.789,14.435z M20.152,8.827c0.098,0.097,0.226,0.146,0.354,0.146
			s0.256-0.049,0.353-0.146c0.195-0.195,0.195-0.512,0-0.707l-4-4c-0.195-0.195-0.512-0.195-0.707,0
			c-0.195,0.195-0.195,0.512,0,0.707L20.152,8.827z M11.859,6.12c-0.195-0.195-0.512-0.195-0.707,0l-5,5
			c-0.195,0.195-0.195,0.512,0,0.707c0.098,0.097,0.226,0.146,0.354,0.146s0.256-0.049,0.353-0.146l5-5
			C12.054,6.632,12.054,6.315,11.859,6.12z M19.762,19.905c1.141-0.705,1.86-1.891,2.027-3.339c0.219-1.91-0.546-4.044-1.948-5.438
			c-1.358-1.35-2.709-2.705-4.06-4.06l-2.444-2.45C10.935,2.216,5.96,2.311,4.139,4.132C2.862,5.41,2.16,7.24,2.262,9.027
			c0.088,1.552,0.77,2.909,1.919,3.823c0.518,0.412,1.278,0.895,2.159,1.455c1.55,0.985,3.479,2.211,4.79,3.521
			c1.498,1.498,3.379,3.012,5.609,3.012C17.684,20.838,18.693,20.566,19.762,19.905z M11.835,17.119
			c-1.388-1.388-3.368-2.647-4.96-3.658c-0.856-0.544-1.596-1.015-2.073-1.394c-0.923-0.734-1.471-1.834-1.543-3.097
			C3.173,7.464,3.766,5.919,4.845,4.84c0.649-0.648,2.002-1.045,3.463-1.045c1.559,0,3.242,0.452,4.32,1.532l2.443,2.448
			c1.352,1.356,2.704,2.712,4.063,4.063c1.194,1.187,1.845,2.998,1.659,4.615c-0.092,0.804-0.438,1.909-1.559,2.602
			C16.266,20.889,13.925,19.209,11.835,17.119z M23.516,15.088c-0.277,0-0.5,0.224-0.5,0.5c0.002,1.98-0.767,3.842-2.167,5.241
			c-1.397,1.397-3.254,2.167-5.229,2.167c-0.276,0-0.5,0.224-0.5,0.5s0.224,0.5,0.5,0.5c2.242,0,4.35-0.874,5.937-2.459
			c1.589-1.589,2.462-3.701,2.459-5.949C24.016,15.312,23.792,15.088,23.516,15.088z M18.152,15.12l-2.012,2.011
			c-0.195,0.195-0.195,0.512,0,0.707c0.098,0.097,0.226,0.146,0.354,0.146c0.128,0,0.256-0.049,0.353-0.146l2.012-2.011
			c0.195-0.195,0.195-0.512,0-0.707C18.664,14.925,18.347,14.925,18.152,15.12z M17.859,12.12c-0.195-0.195-0.512-0.195-0.707,0
			l-4.012,4.011c-0.195,0.195-0.195,0.512,0,0.707c0.098,0.097,0.226,0.146,0.354,0.146c0.128,0,0.256-0.049,0.353-0.146
			l4.012-4.011C18.054,12.632,18.054,12.315,17.859,12.12z M15.859,10.12c-0.195-0.195-0.512-0.195-0.707,0l-4.262,4.261
			c-0.195,0.195-0.195,0.512,0,0.707c0.098,0.097,0.226,0.146,0.354,0.146c0.128,0,0.256-0.049,0.353-0.146l4.262-4.261
			C16.054,10.632,16.054,10.315,15.859,10.12z M13.859,8.12c-0.195-0.195-0.512-0.195-0.707,0L8.64,12.631
			c-0.195,0.195-0.195,0.512,0,0.707c0.098,0.097,0.226,0.146,0.354,0.146c0.128,0,0.256-0.049,0.353-0.146l4.512-4.511
			C14.054,8.632,14.054,8.315,13.859,8.12z"/>
	</g>
</g>
</svg>
