<?xml version="1.0" encoding="iso-8859-1"?>
<!-- Generator: Adobe Illustrator 19.0.0, SVG Export Plug-In . SVG Version: 6.00 Build 0)  -->
<svg version="1.1" id="Layer_1" xmlns="http://www.w3.org/2000/svg" xmlns:xlink="http://www.w3.org/1999/xlink" x="0px" y="0px"
	 viewBox="0 0 24 24" style="enable-background:new 0 0 24 24;" xml:space="preserve">
<g>
	<g>
		<path d="M11.971,4.102c-0.225,0.16-0.278,0.472-0.118,0.697C12.276,5.394,12.5,6.096,12.5,6.828v11.667c0,0.276,0.224,0.5,0.5,0.5
			s0.5-0.224,0.501-0.5V6.828c0-0.941-0.288-1.842-0.833-2.608C12.508,3.995,12.197,3.94,11.971,4.102z M17.448,22.271l-0.638-1.277
			H17c0.276,0,0.5-0.224,0.499-0.5V7.323c0-0.668-0.26-1.296-0.732-1.768l-0.414-0.414c-0.195-0.195-0.512-0.195-0.707,0
			l-0.337,0.337c-0.251-1.231-0.754-2.41-1.509-3.417l-1.4-1.867c-0.189-0.252-0.612-0.252-0.8,0l-1.4,1.867
			C9.444,3.07,8.941,4.248,8.69,5.479L8.353,5.141c-0.195-0.195-0.512-0.195-0.707,0L7.232,5.555C6.76,6.028,6.5,6.656,6.5,7.323
			v13.171c0,0.276,0.224,0.5,0.5,0.5h0.191l-0.638,1.277c-0.078,0.154-0.069,0.339,0.022,0.486C6.666,22.904,6.827,22.995,7,22.995
			h1.64l-0.114,0.341c-0.052,0.153-0.026,0.321,0.068,0.451C8.688,23.917,8.839,23.995,9,23.995h6c0.161,0,0.312-0.077,0.406-0.208
			c0.093-0.131,0.119-0.299,0.068-0.451l-0.114-0.341H17c0.173,0,0.335-0.09,0.426-0.237C17.517,22.61,17.526,22.427,17.448,22.271z
			 M7.5,7.323c0-0.401,0.156-0.777,0.439-1.061L8,6.201l0.061,0.061C8.344,6.547,8.5,6.922,8.5,7.323v12.671h-1V7.323z
			 M8.973,21.995H7.81l0.5-1h0.996L8.973,21.995z M9.694,22.995l0.666-2h3.279l0.667,2H9.694z M14.5,19.995h-0.497
			c-0.001,0-0.002-0.001-0.003-0.001h-4c-0.001,0-0.002,0.001-0.003,0.001H9.5V7.161c0-1.612,0.533-3.21,1.5-4.5l1-1.333l1,1.333
			c0.967,1.29,1.5,2.888,1.5,4.5V19.995z M15.026,21.995l-0.333-1h0.997l0.5,1H15.026z M16.5,19.995h-1V7.323
			c0-0.401,0.156-0.777,0.439-1.061L16,6.201l0.061,0.061c0.283,0.284,0.439,0.66,0.439,1.061V19.995z"/>
	</g>
</g>
</svg>
