<?xml version="1.0" encoding="iso-8859-1"?>
<!-- Generator: Adobe Illustrator 19.0.0, SVG Export Plug-In . SVG Version: 6.00 Build 0)  -->
<svg version="1.1" id="Layer_1" xmlns="http://www.w3.org/2000/svg" xmlns:xlink="http://www.w3.org/1999/xlink" x="0px" y="0px"
	 viewBox="0 0 24 24" style="enable-background:new 0 0 24 24;" xml:space="preserve">
<g>
	<g>
		<path d="M22.9,10.561C22.188,4.898,17.353,0.5,11.5,0.5C5.159,0.5,0,5.659,0,12s5.159,11.5,11.5,11.5
			c5.853,0,10.688-4.398,11.4-10.061C23.532,13.263,24,12.688,24,12C24,11.312,23.532,10.737,22.9,10.561z M21.9,13.373
			c-0.676,5.142-5.076,9.127-10.4,9.127C5.71,22.5,1,17.79,1,12S5.71,1.5,11.5,1.5c5.324,0,9.724,3.985,10.4,9.127
			C21.371,10.86,21,11.387,21,12C21,12.613,21.371,13.14,21.9,13.373z M15.828,12.539C15.163,9.657,12.581,7.5,9.5,7.5
			C5.916,7.5,3,10.416,3,14s2.916,6.5,6.5,6.5c3.081,0,5.663-2.157,6.328-5.039C16.497,15.311,17,14.714,17,14
			C17,13.286,16.497,12.689,15.828,12.539z M14.829,15.334C14.231,17.723,12.072,19.5,9.5,19.5C6.467,19.5,4,17.033,4,14
			s2.467-5.5,5.5-5.5c2.572,0,4.731,1.777,5.329,4.166C14.34,12.913,14,13.415,14,14S14.34,15.087,14.829,15.334z M8,13.5
			c-1.103,0-2,0.897-2,2c0,1.103,0.897,2,2,2c1.103,0,2-0.897,2-2C10,14.397,9.103,13.5,8,13.5z M8,16.5c-0.551,0-1-0.449-1-1
			c0-0.551,0.449-1,1-1c0.551,0,1,0.449,1,1C9,16.051,8.551,16.5,8,16.5z"/>
	</g>
</g>
</svg>
