<?xml version="1.0" encoding="iso-8859-1"?>
<!-- Generator: Adobe Illustrator 19.0.0, SVG Export Plug-In . SVG Version: 6.00 Build 0)  -->
<svg version="1.1" id="Layer_1" xmlns="http://www.w3.org/2000/svg" xmlns:xlink="http://www.w3.org/1999/xlink" x="0px" y="0px"
	 viewBox="0 0 24 24" style="enable-background:new 0 0 24 24;" xml:space="preserve">
<g>
	<path d="M23.948,19.293c-0.694-1.389-2.232-2.096-3.737-1.719l-3.241,0.81c-0.144-1.249-0.883-1.986-2.362-2.357L5.933,14.1
		c0.027-0.19,0.048-0.371,0.063-0.54c0.014-0.152-0.044-0.302-0.154-0.407c-0.857-0.812-4.284-1.075-5.314-1.136
		c-0.131-0.007-0.272,0.04-0.372,0.135c-0.1,0.094-0.157,0.226-0.157,0.364v9c0,0.276,0.224,0.5,0.5,0.5h3
		c0.216,0,0.408-0.139,0.475-0.344c0.013-0.041,0.082-0.251,0.184-0.577l7.165,2.389c0.84,0.317,1.421,0.501,2.072,0.501
		c1.014-0.001,2.202-0.444,4.812-1.513l5.5-2.5c0.123-0.056,0.219-0.16,0.265-0.288C24.017,19.556,24.009,19.415,23.948,19.293z
		 M3.134,21.016H0.999v-7.964c1.607,0.127,3.341,0.403,3.972,0.709C4.705,15.951,3.506,19.842,3.134,21.016z M17.811,21.554
		c-4.204,1.724-4.351,1.668-6.152,0.988L4.452,20.14c0.411-1.361,0.983-3.38,1.311-5.052l8.615,1.914
		c1.107,0.276,1.553,0.713,1.614,1.626l-0.96,0.24c-0.356,0.089-0.735,0.098-1.097,0.026l-4.339-0.868
		c-0.258-0.056-0.533,0.121-0.588,0.392c-0.054,0.271,0.122,0.534,0.393,0.588l4.339,0.868c0.226,0.045,0.456,0.067,0.686,0.067
		c0.286,0,0.572-0.034,0.849-0.104l1.341-0.335c0.002,0,0.004,0,0.006,0l3.831-0.958c0.873-0.216,1.764,0.088,2.315,0.756
		L17.811,21.554z"/>
	<path d="M10.499,14.016h3c0.133,0,0.26-0.053,0.354-0.148l1-1c0.093-0.094,0.146-0.221,0.146-0.354v-0.5h0.5
		c0.133,0,0.26-0.052,0.354-0.146l1-1c0.093-0.094,0.146-0.221,0.146-0.354v-0.5h0.499c0.133,0,0.26-0.052,0.354-0.146L18.77,8.95
		c0.252,0.044,0.493,0.065,0.729,0.065c2.481,0,4.5-2.019,4.5-4.5s-2.019-4.5-4.5-4.5s-4.5,2.019-4.5,4.5
		c0,0.236,0.021,0.477,0.064,0.728l-4.918,4.919c-0.093,0.094-0.146,0.221-0.146,0.354v3C9.999,13.792,10.223,14.016,10.499,14.016z
		 M10.999,10.723l4.961-4.962c0.121-0.121,0.172-0.297,0.134-0.464c-0.064-0.281-0.095-0.536-0.095-0.781c0-1.93,1.57-3.5,3.5-3.5
		s3.5,1.57,3.5,3.5s-1.57,3.5-3.5,3.5c-0.245,0-0.501-0.031-0.781-0.095c-0.168-0.04-0.344,0.012-0.465,0.134l-0.961,0.961h-0.793
		c-0.276,0-0.5,0.224-0.5,0.5v0.793l-0.707,0.707h-0.793c-0.276,0-0.5,0.224-0.5,0.5v0.793l-0.707,0.707h-2.293
		C10.999,13.016,10.999,10.723,10.999,10.723z"/>
	<path d="M20.499,5.016c0.827,0,1.5-0.673,1.5-1.5s-0.673-1.5-1.5-1.5s-1.5,0.673-1.5,1.5S19.672,5.016,20.499,5.016z M20.499,3.016
		c0.275,0,0.5,0.224,0.5,0.5s-0.225,0.5-0.5,0.5s-0.5-0.224-0.5-0.5S20.224,3.016,20.499,3.016z"/>
	<path d="M16.852,7.163c-0.195-0.195-0.512-0.195-0.707,0l-4,4c-0.195,0.195-0.195,0.512,0,0.707
		c0.098,0.097,0.226,0.146,0.354,0.146s0.256-0.049,0.353-0.146l4-4C17.047,7.675,17.047,7.358,16.852,7.163z"/>
</g>
</svg>
