<?xml version="1.0" encoding="iso-8859-1"?>
<!-- Generator: Adobe Illustrator 19.0.0, SVG Export Plug-In . SVG Version: 6.00 Build 0)  -->
<svg version="1.1" id="Layer_1" xmlns="http://www.w3.org/2000/svg" xmlns:xlink="http://www.w3.org/1999/xlink" x="0px" y="0px"
	 viewBox="0 0 24 24" style="enable-background:new 0 0 24 24;" xml:space="preserve">
<g>
	<path d="M10.5,6C10.776,6,11,5.776,11,5.5S10.776,5,10.5,5h-3C7.224,5,7,5.224,7,5.5v6C7,11.776,7.224,12,7.5,12h3
		c0.276,0,0.5-0.224,0.5-0.5S10.776,11,10.5,11H8V9h1.5C9.776,9,10,8.776,10,8.5S9.776,8,9.5,8H8V6H10.5z"/>
	<path d="M6,7c0-1.103-0.897-2-2-2H2.5C2.224,5,2,5.224,2,5.5v6C2,11.776,2.224,12,2.5,12S3,11.776,3,11.5V9.281l2.116,2.539
		C5.215,11.939,5.357,12,5.5,12c0.113,0,0.227-0.038,0.32-0.115c0.211-0.177,0.24-0.493,0.063-0.705L4.066,8.999
		C5.139,8.964,6,8.081,6,7z M4,8H3V6h1c0.552,0,1,0.449,1,1S4.552,8,4,8z"/>
	<path d="M15.5,5C15.224,5,15,5.224,15,5.5v3.882l-2.052-4.106c-0.104-0.207-0.333-0.317-0.563-0.263C12.159,5.066,12,5.268,12,5.5
		v6c0,0.276,0.224,0.5,0.5,0.5s0.5-0.224,0.5-0.5V7.618l2.053,4.106C15.139,11.896,15.313,12,15.5,12
		c0.038,0,0.076-0.004,0.115-0.013C15.841,11.934,16,11.732,16,11.5v-6C16,5.224,15.776,5,15.5,5z"/>
	<path d="M21.5,5h-4C17.224,5,17,5.224,17,5.5S17.224,6,17.5,6H19v5.5c0,0.276,0.224,0.5,0.5,0.5s0.5-0.224,0.5-0.5V6h1.5
		C21.776,6,22,5.776,22,5.5S21.776,5,21.5,5z"/>
	<path d="M22.5,3H15V0.5C15,0.224,14.776,0,14.5,0h-5C9.224,0,9,0.224,9,0.5V3H1.5C0.673,3,0,3.673,0,4.5v8
		C0,13.327,0.673,14,1.5,14H9v9.5C9,23.776,9.224,24,9.5,24h5c0.276,0,0.5-0.224,0.5-0.5V14h7.5c0.827,0,1.5-0.673,1.5-1.5v-8
		C24,3.673,23.327,3,22.5,3z M10,1h4v2h-4V1z M14,23h-4v-9h4V23z M23,12.5c0,0.276-0.225,0.5-0.5,0.5h-21C1.225,13,1,12.776,1,12.5
		v-8C1,4.224,1.225,4,1.5,4h21C22.775,4,23,4.224,23,4.5V12.5z"/>
</g>
</svg>
