<?xml version="1.0" encoding="iso-8859-1"?>
<!-- Generator: Adobe Illustrator 19.0.0, SVG Export Plug-In . SVG Version: 6.00 Build 0)  -->
<svg version="1.1" id="Layer_1" xmlns="http://www.w3.org/2000/svg" xmlns:xlink="http://www.w3.org/1999/xlink" x="0px" y="0px"
	 viewBox="0 0 24 24" style="enable-background:new 0 0 24 24;" xml:space="preserve">
<g>
	<path d="M12.5,19H9v-6h6c0,0.276,0.224,0.5,0.5,0.5S16,13.276,16,13v-0.5c0-0.276-0.224-0.5-0.5-0.5h-7C8.224,12,8,12.224,8,12.5v7
		C8,19.776,8.224,20,8.5,20h4c0.276,0,0.5-0.224,0.5-0.5S12.776,19,12.5,19z"/>
	<path d="M23.853,11.146l-2.854-2.854V0.5c0-0.276-0.224-0.5-0.5-0.5h-4c-0.276,0-0.5,0.224-0.5,0.5v2.793L13.205,0.5
		c-0.638-0.639-1.774-0.641-2.412,0L0.146,11.146c-0.142,0.143-0.185,0.358-0.108,0.545S0.298,12,0.5,12H3v11.5
		C3,23.776,3.224,24,3.5,24H12c0.276,0,0.5-0.224,0.5-0.5S12.276,23,12,23H4V11.5C4,11.224,3.776,11,3.5,11H1.707l9.795-9.793
		c0.264-0.263,0.733-0.265,0.998,0l3.647,3.647c0.144,0.143,0.36,0.187,0.545,0.108c0.187-0.077,0.309-0.26,0.309-0.462V1h3v7.5
		c0,0.133,0.052,0.26,0.146,0.354L22.293,11H20.5c-0.276,0-0.5,0.224-0.5,0.5v3c0,0.276,0.224,0.5,0.5,0.5s0.5-0.224,0.5-0.5V12h2.5
		c0.202,0,0.383-0.122,0.461-0.309S23.996,11.289,23.853,11.146z"/>
	<path d="M23.304,16.217h-4.071l-1.258-3.872c-0.135-0.412-0.816-0.412-0.951,0l-1.258,3.872h-4.071
		c-0.217,0-0.409,0.14-0.476,0.346c-0.066,0.206,0.007,0.432,0.182,0.559l3.299,2.397l-1.178,3.834
		c-0.063,0.206,0.012,0.429,0.188,0.554c0.175,0.125,0.411,0.123,0.586-0.004l3.204-2.349l3.204,2.349
		C20.792,23.969,20.896,24,21,24c0.102,0,0.203-0.031,0.289-0.093c0.176-0.124,0.251-0.348,0.188-0.554l-1.178-3.834l3.299-2.397
		c0.175-0.127,0.248-0.353,0.182-0.559C23.712,16.357,23.521,16.217,23.304,16.217z M19.423,18.922
		c-0.173,0.125-0.247,0.346-0.184,0.551l0.84,2.734l-2.283-1.674c-0.088-0.065-0.192-0.097-0.296-0.097s-0.208,0.032-0.298,0.097
		l-2.283,1.674l0.84-2.734c0.063-0.204-0.011-0.426-0.184-0.551l-2.343-1.702h2.896c0.217,0,0.409-0.14,0.476-0.346l0.895-2.753
		l0.895,2.753c0.068,0.206,0.259,0.346,0.476,0.346h2.896L19.423,18.922z"/>
</g>
</svg>
