<?xml version="1.0" encoding="utf-8"?>
<!-- Generator: Adobe Illustrator 19.0.0, SVG Export Plug-In . SVG Version: 6.00 Build 0)  -->
<svg version="1.1" id="Layer_1" xmlns="http://www.w3.org/2000/svg" xmlns:xlink="http://www.w3.org/1999/xlink" x="0px" y="0px"
	 viewBox="0 0 30 30" style="enable-background:new 0 0 30 30;" xml:space="preserve">
<g>
	<path d="M9.7,25c0.2-0.1,0.3-0.3,0.3-0.6c0-0.2-0.3-0.4-0.5-0.4H1c-0.3,0-0.5,0.2-0.5,0.5v1C0.5,28,2.5,30,5,30h2.2
		c0.2,0,0.3-0.1,0.4-0.2s0.1-0.3,0.1-0.5c-0.1-0.3-0.2-0.7-0.2-1C7.5,26.9,8.4,25.5,9.7,25z"/>
	<path d="M1,23h10.4c0,0,0,0,0,0c0.3,0,0.5-0.2,0.5-0.5c0-0.2-0.1-0.3-0.2-0.4l-5.2-5.2c-1.3-1.3-1.3-3.3,0-4.6
		c1.2-1.2,3.4-1.2,4.6,0l1,1c0.2,0.2,0.5,0.2,0.7,0c0.8-0.7,1.9-1,2.9-0.7c0.2,0,0.4,0,0.5-0.2c0.1-0.1,0.1-0.1,0.2-0.2
		c0.2-0.2,0.5-0.4,0.8-0.6c0.2-0.1,0.3-0.3,0.3-0.4V5.5C17.5,5.2,17.3,5,17,5H1C0.7,5,0.5,5.2,0.5,5.5v17C0.5,22.8,0.7,23,1,23z"/>
	<path d="M28,17.5l-4.7-5.1c-0.4-0.4-1.3-0.5-1.8,0c-0.2,0.2-0.4,0.6-0.4,0.9s0.1,0.7,0.4,0.9l0,0l0.1,0.1l-0.7,0.7l-1.3-1.3
		c-0.5-0.5-1.3-0.5-1.8,0c-0.2,0.2-0.4,0.6-0.4,0.9s0.1,0.7,0.4,0.9l1.3,1.3c0.2,0.2,0.2,0.5,0,0.7s-0.5,0.2-0.7,0l-2.6-2.6
		c-0.5-0.5-1.3-0.5-1.8,0c-0.2,0.2-0.4,0.6-0.4,0.9s0.1,0.7,0.4,0.9l2.6,2.6c0.2,0.2,0.2,0.5,0,0.7s-0.5,0.2-0.7,0l-6.3-6.3
		c-0.2-0.2-0.6-0.4-0.9-0.4s-0.7,0.1-0.9,0.4c-0.5,0.5-0.5,1.3,0,1.8l9.4,9.4c0.1,0.1,0.2,0.3,0.1,0.5c-0.1,0.2-0.2,0.3-0.4,0.3
		l-6,1c-0.8,0.1-1.4,0.8-1.4,1.6c0,0.4,0.3,0.8,0.8,0.8h11.6c1.5,0,3-0.6,4.1-1.7l2-2c1.1-1.1,1.7-2.5,1.7-4.1
		C29.5,19.9,29,18.6,28,17.5z"/>
	<path d="M1.1,4h15.7c0.2,0,0.3-0.1,0.4-0.2c0.1-0.1,0.1-0.3,0.1-0.4C16.8,1.4,15,0,13,0H5C3,0,1.2,1.4,0.7,3.4c0,0.2,0,0.3,0.1,0.4
		C0.8,3.9,1,4,1.1,4z M13,2c0.3,0,0.5,0.2,0.5,0.5S13.3,3,13,3s-0.5-0.2-0.5-0.5S12.7,2,13,2z M7,2h4c0.3,0,0.5,0.2,0.5,0.5
		S11.3,3,11,3H7C6.7,3,6.5,2.8,6.5,2.5S6.7,2,7,2z"/>
</g>
</svg>
