<?xml version="1.0" encoding="utf-8"?>
<!-- Generator: Adobe Illustrator 19.0.0, SVG Export Plug-In . SVG Version: 6.00 Build 0)  -->
<svg version="1.1" id="Layer_1" xmlns="http://www.w3.org/2000/svg" xmlns:xlink="http://www.w3.org/1999/xlink" x="0px" y="0px"
	 viewBox="0 0 30 30" style="enable-background:new 0 0 30 30;" xml:space="preserve">
<g>
	<g>
		<path d="M18.8,9c-0.8,0-1.5,0.7-1.5,1.5v4.9c0.2,0.6,0.3,1.3,0.2,1.9c0.3,0.4,0.7,0.7,1.3,0.7c0.8,0,1.5-0.7,1.5-1.5v-4v-2
			C20.3,9.7,19.6,9,18.8,9z"/>
	</g>
	<g>
		<path d="M5.3,5.8l3.1,10.6l7.8-1.3v-4.6c0-0.2,0-0.3,0-0.4c0-0.1,0-0.1,0-0.2V2.5c0-0.8-0.7-1.5-1.5-1.5c-0.7,0-1.5,0.8-1.5,1.6
			l0,10.6c0,0.4-0.3,0.8-0.7,0.8c-0.4,0.1-0.8-0.1-0.9-0.5L7.9,4.9C7.8,4.5,7.5,4.2,7.1,4.1C6.7,4,6.3,4,6,4.2
			C5.4,4.6,5.2,5.2,5.3,5.8z"/>
	</g>
	<g>
		<path d="M16.5,9.6C16.5,9.6,16.5,9.6,16.5,9.6C16.5,9.6,16.5,9.6,16.5,9.6z"/>
	</g>
	<g>
		<path d="M24.7,19.1C24.7,19.1,24.7,19.1,24.7,19.1C24.7,19.1,24.7,19.1,24.7,19.1z"/>
	</g>
	<g>
		<path d="M22.8,11c-0.8,0-1.5,0.7-1.5,1.5v4v1c0,0.8,0.7,1.5,1.5,1.5s1.5-0.7,1.5-1.5v-5C24.3,11.7,23.6,11,22.8,11z"/>
	</g>
	<g>
		<path d="M16.7,9.2C16.7,9.2,16.7,9.2,16.7,9.2C16.7,9.2,16.7,9.2,16.7,9.2z"/>
	</g>
	<g>
		<path d="M6.8,23.1c0.4,2.1,2,4.1,4.1,5.2c1,0.5,2.1,0.7,3.2,0.7h2.8c4.1,0,7.4-3.3,7.4-7.4v-2.1l0,0c-0.4,0.3-0.9,0.5-1.5,0.5
			c-1.1,0-2-0.7-2.3-1.6c-0.4,0.4-1,0.6-1.7,0.6c-0.6,0-1.2-0.2-1.6-0.6c-0.4,0.8-1.1,1.4-1.9,1.7l-2.7,1c-0.1,0-0.2,0.1-0.3,0.3
			c-0.1,0.1,0,0.3,0,0.4l0.8,1.5c0.1,0.2,0,0.5-0.2,0.7c-0.1,0-0.1,0.1-0.2,0.1c-0.2,0-0.4-0.1-0.4-0.3l-0.8-1.5
			c-0.2-0.4-0.2-0.8-0.1-1.2s0.5-0.7,0.9-0.8l2.7-1c0.6-0.2,1.1-0.7,1.4-1.3c0.1-0.1,0.1-0.3,0.1-0.4c-0.1-0.3-0.2-0.6-0.2-1v-0.4
			l-8.2,1.4c-1,0.2-1.8,1.2-1.8,2.3c0,0.1,0,0.3,0,0.4L6.8,23.1z"/>
	</g>
</g>
</svg>
