<?xml version="1.0" encoding="utf-8"?>
<!-- Generator: Adobe Illustrator 19.0.0, SVG Export Plug-In . SVG Version: 6.00 Build 0)  -->
<svg version="1.1" id="Layer_1" xmlns="http://www.w3.org/2000/svg" xmlns:xlink="http://www.w3.org/1999/xlink" x="0px" y="0px"
	 viewBox="0 0 30 30" style="enable-background:new 0 0 30 30;" xml:space="preserve">
<g>
	<circle cx="14.5" cy="4" r="3"/>
	<circle cx="24.5" cy="4" r="3"/>
	<path d="M12.8,16.4c0.4,0.3,0.9,0.5,1.4,0.5c-0.3-0.3-0.4-0.7-0.4-1.1c0-0.5,0.2-0.9,0.5-1.3c0.7-0.7,1.9-0.7,2.6,0l0.4,0.4
		c0.1-0.3,0.2-0.6,0.2-0.9c0-1.7-1.3-3-3-3s-3,1.3-3,3c0,0.6,0.2,1.2,0.6,1.7l-5.8,5.8C5.7,21.2,5.1,21,4.5,21v-4c1.7,0,3-1.3,3-3
		s-1.3-3-3-3V7c1.7,0,3-1.3,3-3s-1.3-3-3-3s-3,1.3-3,3c0,1.3,0.8,2.4,2,2.8v4.4c-1.2,0.4-2,1.5-2,2.8s0.8,2.4,2,2.8v4.4
		c-1.2,0.4-2,1.5-2,2.8c0,1.7,1.3,3,3,3s3-1.3,3-3c0-0.6-0.2-1.2-0.6-1.7L12.8,16.4z"/>
	<path d="M24.5,17v-0.9c-0.2,0.1-0.4,0.1-0.6,0.3c0,0,0,0,0,0c-0.2,0.1-0.3,0.3-0.5,0.4l0,0l0,0C23.1,17.1,23,17.6,23,18v2.7
		c0,0.2-0.1,0.4-0.3,0.5c-0.2,0.1-0.4,0-0.5-0.1l-5.9-5.9c-0.3-0.3-0.9-0.3-1.2,0c-0.2,0.2-0.2,0.4-0.2,0.6c0,0.1,0,0.2,0,0.2
		c0,0.1,0.1,0.2,0.2,0.3l4,4c0.2,0.2,0.2,0.5,0,0.7c-0.2,0.2-0.5,0.2-0.7,0l-1.6-1.6c-0.3-0.3-0.9-0.3-1.2,0
		c-0.2,0.2-0.2,0.4-0.2,0.6s0.1,0.4,0.2,0.6l0.9,0.9c0.2,0.2,0.2,0.5,0,0.7c-0.2,0.2-0.5,0.2-0.7,0l-0.6-0.6c-0.3-0.3-0.9-0.3-1.2,0
		c-0.2,0.2-0.2,0.4-0.2,0.6s0.1,0.4,0.2,0.6l0.6,0.6c0.2,0.2,0.2,0.5,0,0.7c-0.2,0.2-0.5,0.2-0.7,0l0,0c-0.2-0.2-0.4-0.2-0.6-0.2
		s-0.4,0.1-0.6,0.2c-0.2,0.2-0.2,0.4-0.2,0.6s0.1,0.4,0.2,0.6l2,1.9c1.1,1.1,2.5,1.7,4.1,1.7c3.2,0,5.7-2.6,5.7-5.7L24.5,17L24.5,17
		z"/>
	<path d="M25,15c0.3,0,0.5,0.2,0.5,0.5v1.3c1.2-0.4,2-1.5,2-2.8c0-1.7-1.3-3-3-3s-3,1.3-3,3c0,0.9,0.4,1.7,1.1,2.3
		C23.1,15.5,24,15,25,15z"/>
	<path d="M25.5,21v2.3c0,1.3-0.4,2.5-1,3.5c0.3,0.1,0.7,0.2,1,0.2c1.7,0,3-1.3,3-3S27.2,21,25.5,21z"/>
</g>
</svg>
