<?xml version="1.0" encoding="utf-8"?>
<!-- Generator: Adobe Illustrator 19.0.0, SVG Export Plug-In . SVG Version: 6.00 Build 0)  -->
<svg version="1.1" id="Layer_1" xmlns="http://www.w3.org/2000/svg" xmlns:xlink="http://www.w3.org/1999/xlink" x="0px" y="0px"
	 viewBox="0 0 30 30" style="enable-background:new 0 0 30 30;" xml:space="preserve">
<g>
	<g>
		<g>
			<g>
				<g>
					<g>
						<path d="M29.5,27H13c-0.3,0-0.5-0.2-0.5-0.5S12.7,26,13,26h16V10.7L21.3,3h-4.8C16.2,3,16,2.8,16,2.5S16.2,2,16.5,2h5
							c0.1,0,0.3,0.1,0.4,0.1l8,8c0.1,0.1,0.1,0.2,0.1,0.4v16C30,26.8,29.8,27,29.5,27z"/>
					</g>
					<g>
						<path d="M29.3,11h-7.8c-0.3,0-0.5-0.2-0.5-0.5v-8C21,2.2,21.2,2,21.5,2S22,2.2,22,2.5V10h7.3c0.3,0,0.5,0.2,0.5,0.5
							S29.5,11,29.3,11z"/>
					</g>
				</g>
			</g>
		</g>
	</g>
	<g>
		<path d="M25.5,16h-10c-0.3,0-0.5-0.2-0.5-0.5s0.2-0.5,0.5-0.5h10c0.3,0,0.5,0.2,0.5,0.5S25.8,16,25.5,16z"/>
	</g>
	<g>
		<path d="M25.5,19h-10c-0.3,0-0.5-0.2-0.5-0.5s0.2-0.5,0.5-0.5h10c0.3,0,0.5,0.2,0.5,0.5S25.8,19,25.5,19z"/>
	</g>
	<g>
		<path d="M25.5,22h-10c-0.3,0-0.5-0.2-0.5-0.5s0.2-0.5,0.5-0.5h10c0.3,0,0.5,0.2,0.5,0.5S25.8,22,25.5,22z"/>
	</g>
	<g>
		<g>
			<path d="M11.3,30c-0.9,0-1.8-0.2-2.6-0.5l-6.7-3C0.8,26.1,0,25,0,23.8V6.1c0-1.3,0.9-2.5,2.1-2.9l8.1-2.5c0,0,0,0,0,0
				c1.6-0.5,3.3-0.7,5-0.7c1,0,1.8,0.8,1.8,1.8v6.8c0,0.8-0.5,1.4-1.2,1.7l-2.3,0.6c-0.3,0.1-0.5,0.4-0.5,0.7v16.8
				C13,29.2,12.2,30,11.3,30z M10.5,1.7L2.4,4.2C1.6,4.4,1,5.2,1,6.1v17.7c0,0.8,0.5,1.6,1.3,1.9l6.7,3c0.7,0.3,1.4,0.4,2.2,0.4
				c0.4,0,0.8-0.3,0.8-0.8V11.5c0-0.8,0.5-1.4,1.2-1.7l2.3-0.6C15.8,9.1,16,8.8,16,8.5V1.7C16,1.3,15.7,1,15.2,1
				C13.6,1,12,1.2,10.5,1.7z"/>
		</g>
	</g>
</g>
</svg>
