<?xml version="1.0" encoding="utf-8"?>
<!-- Generator: Adobe Illustrator 19.0.0, SVG Export Plug-In . SVG Version: 6.00 Build 0)  -->
<svg version="1.1" id="Layer_1" xmlns="http://www.w3.org/2000/svg" xmlns:xlink="http://www.w3.org/1999/xlink" x="0px" y="0px"
	 viewBox="0 0 30 30" style="enable-background:new 0 0 30 30;" xml:space="preserve">
<g>
	<g>
		<path d="M11,30c-0.1,0-0.2,0-0.3-0.1c-0.2-0.1-0.3-0.4-0.2-0.6l1.7-5.1l-4.1-3.3C8,20.8,8,20.5,8,20.3S8.3,20,8.5,20h4.7l2.4-4.7
			c0.1-0.2,0.3-0.3,0.5-0.3c0.2,0,0.4,0.1,0.4,0.3l1.9,4.7H23c0.2,0,0.4,0.1,0.5,0.3c0.1,0.2,0,0.4-0.2,0.6L19,24.2l1.5,5.1
			c0.1,0.2,0,0.4-0.2,0.6c-0.2,0.1-0.4,0.1-0.6,0l-4.1-3.2l-4.3,3.2C11.2,30,11.1,30,11,30z M9.9,21l3.3,2.6
			c0.2,0.1,0.2,0.4,0.2,0.5L12,28.1l3.3-2.5c0.2-0.1,0.4-0.1,0.6,0l3.1,2.5l-1.2-4c-0.1-0.2,0-0.4,0.2-0.5l3.4-2.6H18
			c-0.2,0-0.4-0.1-0.5-0.3l-1.6-4l-2,4c-0.1,0.2-0.3,0.3-0.4,0.3H9.9z"/>
	</g>
	<g>
		<g>
			<path d="M26.5,24H22c-0.3,0-0.5-0.2-0.5-0.5S21.7,23,22,23h4.5c1.1,0,2-0.9,2-2V10c0-1.1-0.9-2-2-2H11.9C10.6,8,9.4,7.2,9,5.9
				L8.9,5.3C8.6,4.6,7.9,4,7,4H3.5c-1.1,0-2,0.9-2,2v15c0,1.1,0.9,2,2,2H8c0.3,0,0.5,0.2,0.5,0.5S8.3,24,8,24H3.5c-1.7,0-3-1.3-3-3
				V6c0-1.7,1.3-3,3-3H7c1.3,0,2.4,0.8,2.8,2.1L10,5.7C10.2,6.4,11,7,11.9,7h14.6c1.7,0,3,1.3,3,3v11C29.5,22.7,28.2,24,26.5,24z"/>
		</g>
		<g>
			<path d="M28,8.5c-0.3,0-0.5-0.2-0.5-0.5V3c0-1.1-0.9-2-2-2h-21c-1.1,0-2,0.9-2,2v0.5C2.5,3.8,2.3,4,2,4S1.5,3.8,1.5,3.5V3
				c0-1.7,1.3-3,3-3h21c1.7,0,3,1.3,3,3v5C28.5,8.3,28.3,8.5,28,8.5z"/>
		</g>
	</g>
</g>
</svg>
