<?xml version="1.0" encoding="iso-8859-1"?>
<!-- Generator: Adobe Illustrator 19.0.0, SVG Export Plug-In . SVG Version: 6.00 Build 0)  -->
<svg version="1.1" id="Layer_1" xmlns="http://www.w3.org/2000/svg" xmlns:xlink="http://www.w3.org/1999/xlink" x="0px" y="0px"
	 viewBox="0 0 24 24" style="enable-background:new 0 0 24 24;" xml:space="preserve">
<g>
	<g>
		<path d="M18.535,16.54c-1.172,0-2.32-0.183-3.408-0.542c-0.522-0.181-1.164-0.016-1.483,0.314l-2.157,1.629
			c-2.476-1.321-4.06-2.904-5.362-5.361l1.584-2.105c0.4-0.4,0.544-0.984,0.371-1.531C7.718,7.85,7.535,6.702,7.535,5.53
			c0-0.827-0.673-1.5-1.5-1.5h-3.5c-0.827,0-1.5,0.673-1.5,1.5c0,9.649,7.851,17.5,17.5,17.5c0.827,0,1.5-0.673,1.5-1.5v-3.49
			C20.035,17.213,19.362,16.54,18.535,16.54z M17.465,0.97c-3.032,0-5.5,2.467-5.5,5.5s2.468,5.5,5.5,5.5s5.5-2.467,5.5-5.5
			S20.497,0.97,17.465,0.97z M19.818,8.823c-0.098,0.098-0.226,0.146-0.354,0.146S19.208,8.92,19.11,8.823l-2-2
			c-0.094-0.094-0.146-0.221-0.146-0.354v-3c0-0.276,0.224-0.5,0.5-0.5s0.5,0.224,0.5,0.5v2.793l1.854,1.854
			C20.014,8.312,20.014,8.628,19.818,8.823z"/>
	</g>
</g>
</svg>
