<?xml version="1.0" encoding="iso-8859-1"?>
<!-- Generator: Adobe Illustrator 19.0.0, SVG Export Plug-In . SVG Version: 6.00 Build 0)  -->
<svg version="1.1" id="Layer_1" xmlns="http://www.w3.org/2000/svg" xmlns:xlink="http://www.w3.org/1999/xlink" x="0px" y="0px"
	 viewBox="0 0 24 24" style="enable-background:new 0 0 24 24;" xml:space="preserve">
<g>
	<g>
		<path d="M17.739,1.61c-0.282-0.415-0.75-0.662-1.251-0.662c-0.455,0-0.871,0.202-1.148,0.536C14.335,0.513,13.193,0,12,0
			c-1.19,0-2.331,0.512-3.335,1.48c-0.277-0.347-0.7-0.559-1.164-0.559c-0.5,0-0.967,0.247-1.249,0.659
			C4.503,4.14,3.5,7.756,3.5,11.5C3.5,17.281,7.213,24,12,24s8.5-6.719,8.5-12.5C20.5,7.795,19.494,4.19,17.739,1.61z M11.216,9.571
			c-0.048-0.201-0.095-0.401-0.145-0.603c-0.071-0.291-0.146-0.58-0.22-0.871c-0.045-0.178-0.09-0.355-0.136-0.532
			c-0.08-0.303-0.162-0.603-0.245-0.904c-0.045-0.163-0.089-0.326-0.135-0.489C10.249,5.868,10.16,5.57,10.07,5.271
			c-0.047-0.155-0.093-0.31-0.141-0.463C9.837,4.511,9.742,4.222,9.646,3.934C9.597,3.787,9.548,3.64,9.498,3.496
			C9.4,3.214,9.301,2.94,9.199,2.669c-0.028-0.075-0.055-0.156-0.083-0.23c1.752-1.886,4.018-1.886,5.767,0.003
			c-0.03,0.078-0.058,0.163-0.087,0.241c-0.101,0.27-0.2,0.543-0.298,0.824c-0.05,0.144-0.098,0.29-0.147,0.436
			c-0.096,0.288-0.191,0.578-0.283,0.875c-0.047,0.152-0.093,0.306-0.139,0.459c-0.09,0.299-0.179,0.598-0.266,0.903
			c-0.046,0.161-0.09,0.324-0.135,0.486c-0.083,0.301-0.166,0.601-0.245,0.904c-0.047,0.177-0.091,0.354-0.136,0.532
			c-0.074,0.291-0.149,0.58-0.22,0.87c-0.05,0.205-0.097,0.407-0.146,0.611c-0.062,0.261-0.125,0.521-0.185,0.779
			c-0.058,0.251-0.112,0.495-0.168,0.742c-0.048,0.211-0.097,0.424-0.143,0.632c-0.067,0.302-0.129,0.595-0.193,0.888
			c-0.03,0.141-0.063,0.288-0.093,0.427c-0.028-0.131-0.059-0.27-0.087-0.403c-0.065-0.302-0.13-0.603-0.198-0.914
			c-0.047-0.213-0.097-0.431-0.146-0.647c-0.054-0.241-0.107-0.48-0.164-0.724C11.343,10.101,11.279,9.836,11.216,9.571z M12,22
			c-0.276,0-0.5-0.224-0.5-0.5S11.724,21,12,21c2.622,0,5.5-4.972,5.5-9.5c0-0.276,0.224-0.5,0.5-0.5s0.5,0.224,0.5,0.5
			C18.5,16.701,15.22,22,12,22z"/>
	</g>
</g>
</svg>
