<?xml version="1.0" encoding="iso-8859-1"?>
<!-- Generator: Adobe Illustrator 19.0.0, SVG Export Plug-In . SVG Version: 6.00 Build 0)  -->
<svg version="1.1" id="Layer_1" xmlns="http://www.w3.org/2000/svg" xmlns:xlink="http://www.w3.org/1999/xlink" x="0px" y="0px"
	 viewBox="0 0 24 24" style="enable-background:new 0 0 24 24;" xml:space="preserve">
<g>
	<path d="M12,0C7.313,0,3.5,3.813,3.5,8.5c0,8.218,7.839,15.09,8.173,15.378C11.767,23.959,11.884,24,12,24s0.233-0.041,0.327-0.122
		C12.661,23.589,20.5,16.717,20.5,8.5C20.5,3.813,16.687,0,12,0z M12,14c-3.032,0-5.5-2.467-5.5-5.5S8.968,3,12,3s5.5,2.467,5.5,5.5
		S15.032,14,12,14z"/>
	<g>
		<g>
			<path d="M11,11c-0.128,0-0.256-0.049-0.354-0.146l-2-2c-0.195-0.195-0.195-0.512,0-0.707s0.512-0.195,0.707,0l1.646,1.646
				l3.646-3.646c0.195-0.195,0.512-0.195,0.707,0s0.195,0.512,0,0.707l-4,4C11.256,10.951,11.128,11,11,11z"/>
		</g>
	</g>
</g>
</svg>
