<?xml version="1.0" encoding="iso-8859-1"?>
<!-- Generator: Adobe Illustrator 19.0.0, SVG Export Plug-In . SVG Version: 6.00 Build 0)  -->
<svg version="1.1" id="Layer_1" xmlns="http://www.w3.org/2000/svg" xmlns:xlink="http://www.w3.org/1999/xlink" x="0px" y="0px"
	 viewBox="0 0 24 24" style="enable-background:new 0 0 24 24;" xml:space="preserve">
<g>
	<path d="M12,7.5c-2.481,0-4.5,2.019-4.5,4.5s2.019,4.5,4.5,4.5s4.5-2.019,4.5-4.5S14.481,7.5,12,7.5z"/>
	<path d="M23,11.5h-1.525c-0.254-4.839-4.136-8.721-8.975-8.975V1c0-0.276-0.224-0.5-0.5-0.5S11.5,0.724,11.5,1v1.525
		C6.661,2.779,2.779,6.661,2.525,11.5H1c-0.276,0-0.5,0.224-0.5,0.5s0.224,0.5,0.5,0.5h1.525c0.254,4.839,4.136,8.721,8.975,8.975
		V23c0,0.276,0.224,0.5,0.5,0.5s0.5-0.224,0.5-0.5v-1.525c4.839-0.254,8.721-4.136,8.975-8.975H23c0.276,0,0.5-0.224,0.5-0.5
		S23.276,11.5,23,11.5z M12,20.5c-4.687,0-8.5-3.813-8.5-8.5S7.313,3.5,12,3.5s8.5,3.813,8.5,8.5S16.687,20.5,12,20.5z"/>
</g>
</svg>
