<?xml version="1.0" encoding="iso-8859-1"?>
<!-- Generator: Adobe Illustrator 19.0.0, SVG Export Plug-In . SVG Version: 6.00 Build 0)  -->
<svg version="1.1" id="Layer_1" xmlns="http://www.w3.org/2000/svg" xmlns:xlink="http://www.w3.org/1999/xlink" x="0px" y="0px"
	 viewBox="0 0 30 30" style="enable-background:new 0 0 30 30;" xml:space="preserve">
<g>
	<g>
		<path d="M16.773,16.691c0.09,0.153,0.254,0.247,0.432,0.247H28.5c0.276,0,0.5-0.224,0.5-0.5v-12c0-0.223-0.148-0.419-0.362-0.481
			L15,0.061v15.877h0.5C16.021,15.938,16.497,16.219,16.773,16.691z M12,17.438c0-0.827,0.673-1.5,1.5-1.5H14V0.061l-4,1.143v13.235
			c0,0.133-0.053,0.26-0.146,0.354l-1,1c-0.098,0.098-0.226,0.146-0.354,0.146s-0.256-0.049-0.354-0.146L7,14.645l-1.146,1.146
			c-0.195,0.195-0.512,0.195-0.707,0l-1-1c-0.094-0.094-0.146-0.221-0.146-0.354V2.917L0.363,3.956
			C0.148,4.018,0.001,4.214,0.001,4.438v21c0,0.223,0.148,0.419,0.362,0.481L14,29.815V18.938h-0.5
			C12.673,18.938,12,18.266,12,17.438z M11.854,21.792c-0.098,0.097-0.226,0.146-0.354,0.146s-0.256-0.049-0.354-0.146L10,20.645
			v3.793c0,0.276-0.224,0.5-0.5,0.5S9,24.714,9,24.438v-3.793l-1.146,1.146c-0.195,0.195-0.512,0.195-0.707,0
			c-0.195-0.195-0.195-0.512,0-0.707l1.999-1.999c0.046-0.046,0.102-0.083,0.163-0.109c0.122-0.051,0.26-0.051,0.382,0
			c0.062,0.025,0.117,0.062,0.163,0.109l1.999,1.999C12.049,21.28,12.049,21.596,11.854,21.792z M25.5,26.938
			c-0.828,0-1.5,0.672-1.5,1.5s0.672,1.5,1.5,1.5s1.5-0.672,1.5-1.5S26.328,26.938,25.5,26.938z M20.5,26.938
			c-0.828,0-1.5,0.672-1.5,1.5s0.672,1.5,1.5,1.5s1.5-0.672,1.5-1.5S21.328,26.938,20.5,26.938z M29.887,18.121
			c-0.095-0.116-0.238-0.183-0.387-0.183H16.194l-0.219-0.658c-0.068-0.204-0.26-0.342-0.475-0.342h-2c-0.276,0-0.5,0.224-0.5,0.5
			s0.224,0.5,0.5,0.5h1.64l2.886,8.658c0.07,0.209,0.266,0.342,0.475,0.342c0.053,0,0.105-0.008,0.158-0.026
			c0.262-0.087,0.403-0.37,0.316-0.632l-0.463-1.388l10.036-0.956c0.219-0.021,0.399-0.183,0.442-0.399l1-5
			C30.02,18.389,29.981,18.237,29.887,18.121z"/>
	</g>
</g>
</svg>
