<?xml version="1.0" encoding="iso-8859-1"?>
<!-- Generator: Adobe Illustrator 19.0.0, SVG Export Plug-In . SVG Version: 6.00 Build 0)  -->
<svg version="1.1" id="Layer_1" xmlns="http://www.w3.org/2000/svg" xmlns:xlink="http://www.w3.org/1999/xlink" x="0px" y="0px"
	 viewBox="0 0 30 30" style="enable-background:new 0 0 30 30;" xml:space="preserve">
<g>
	<g>
		<path d="M10,14.438c0,0.133-0.053,0.26-0.146,0.354l-1,1c-0.098,0.097-0.226,0.146-0.354,0.146s-0.256-0.049-0.354-0.146L7,14.645
			l-1.146,1.146c-0.195,0.195-0.512,0.195-0.707,0l-1-1C4.053,14.698,4,14.571,4,14.438V2.918L0.363,3.957
			C0.148,4.019,0,4.215,0,4.438v21c0,0.223,0.148,0.419,0.363,0.481L14,29.815V0.061l-4,1.143V14.438z M11.853,21.792
			c-0.097,0.098-0.225,0.147-0.353,0.147s-0.256-0.049-0.354-0.146L10,20.645v3.793c0,0.276-0.224,0.5-0.5,0.5S9,24.714,9,24.438
			v-3.793l-1.146,1.146c-0.195,0.195-0.512,0.195-0.707,0c-0.195-0.195-0.195-0.512,0-0.707l1.999-1.999
			c0.046-0.046,0.102-0.083,0.163-0.109c0.122-0.051,0.26-0.051,0.382,0c0.062,0.025,0.117,0.062,0.163,0.109l1.999,1.999
			C12.048,21.279,12.048,21.596,11.853,21.792z M29.854,24.084l-4-4c-0.094-0.093-0.221-0.146-0.354-0.146h-8
			c-0.276,0-0.5,0.224-0.5,0.5v8c0,0.276,0.224,0.5,0.5,0.5h1.592c0.207,0.581,0.757,1,1.408,1s1.201-0.419,1.408-1h3.184
			c0.207,0.581,0.757,1,1.408,1s1.201-0.419,1.408-1H29.5c0.276,0,0.5-0.224,0.5-0.5v-4C30,24.305,29.947,24.178,29.854,24.084z
			 M20.5,28.938c-0.276,0-0.5-0.224-0.5-0.5s0.224-0.5,0.5-0.5s0.5,0.224,0.5,0.5S20.776,28.938,20.5,28.938z M26.5,28.938
			c-0.276,0-0.5-0.224-0.5-0.5s0.224-0.5,0.5-0.5s0.5,0.224,0.5,0.5S26.776,28.938,26.5,28.938z M26.5,24.938h-2
			c-0.276,0-0.5-0.224-0.5-0.5v-2c0-0.276,0.224-0.5,0.5-0.5s0.5,0.224,0.5,0.5v1.5h1.5c0.276,0,0.5,0.224,0.5,0.5
			S26.776,24.938,26.5,24.938z M17.5,18.938h8c0.395,0,0.781,0.16,1.061,0.439l1.586,1.586c0.144,0.143,0.359,0.188,0.545,0.108
			c0.187-0.077,0.309-0.26,0.309-0.462V4.438C29,4.215,28.852,4.019,28.637,3.957L15,0.061v29.755l0.763-0.218
			c0.133-0.038,0.245-0.13,0.308-0.253c0.063-0.123,0.072-0.268,0.024-0.398C16.031,28.768,16,28.602,16,28.438v-8
			C16,19.611,16.673,18.938,17.5,18.938z"/>
	</g>
</g>
</svg>
