<?xml version="1.0" encoding="iso-8859-1"?>
<!-- Generator: Adobe Illustrator 19.0.0, SVG Export Plug-In . SVG Version: 6.00 Build 0)  -->
<svg version="1.1" id="Layer_1" xmlns="http://www.w3.org/2000/svg" xmlns:xlink="http://www.w3.org/1999/xlink" x="0px" y="0px"
	 viewBox="0 0 30 30" style="enable-background:new 0 0 30 30;" xml:space="preserve">
<g>
	<g>
		<path d="M10,14.438c0,0.133-0.053,0.26-0.146,0.354l-1,1c-0.098,0.097-0.226,0.146-0.354,0.146s-0.256-0.049-0.354-0.146L7,14.645
			l-1.146,1.146c-0.195,0.195-0.512,0.195-0.707,0l-1-1C4.053,14.698,4,14.571,4,14.438V2.918L0.363,3.957
			C0.148,4.019,0,4.215,0,4.438v21c0,0.223,0.148,0.419,0.363,0.481L14,29.815V0.061l-4,1.143V14.438z M11.853,21.792
			c-0.097,0.098-0.225,0.147-0.353,0.147s-0.256-0.049-0.354-0.146L10,20.645v3.793c0,0.276-0.224,0.5-0.5,0.5S9,24.714,9,24.438
			v-3.793l-1.146,1.146c-0.195,0.195-0.512,0.195-0.707,0c-0.195-0.195-0.195-0.512,0-0.707l1.999-1.999
			c0.046-0.046,0.102-0.083,0.163-0.109c0.122-0.051,0.26-0.051,0.382,0c0.062,0.025,0.117,0.062,0.163,0.109l1.999,1.999
			C12.048,21.279,12.048,21.596,11.853,21.792z M24,26.867v-0.466c0-0.259-0.198-0.476-0.457-0.498
			C21.523,25.728,20,24.078,20,22.064c0-0.315,0.039-0.631,0.115-0.938l1.263-5.053c0.167-0.668,0.766-1.135,1.455-1.135h5.333
			c0.085,0,0.168,0.007,0.25,0.021c0.145,0.024,0.293-0.016,0.406-0.11C28.935,14.753,29,14.615,29,14.466V4.438
			c0-0.223-0.148-0.419-0.363-0.481L15,0.061v29.755l8.637-2.468C23.852,27.286,24,27.09,24,26.867z M27.126,24.938
			c1.585,0,2.874-1.29,2.874-2.875c0-0.234-0.029-0.468-0.086-0.697l-1.263-5.05c-0.055-0.222-0.255-0.378-0.484-0.378h-1.108l-1,2
			l0.513,1.026c0.07,0.141,0.07,0.307,0,0.447l-0.625,1.25c-0.088,0.176-0.264,0.277-0.447,0.277c-0.075,0-0.151-0.017-0.223-0.053
			c-0.247-0.124-0.347-0.424-0.224-0.671l0.513-1.026l-0.513-1.026c-0.07-0.141-0.07-0.307,0-0.447l0.888-1.777h-3.108
			c-0.229,0-0.429,0.156-0.485,0.379l-1.263,5.05C21.029,21.595,21,21.83,21,22.064c0,1.585,1.289,2.874,2.874,2.874H25v4h-2.5
			c-0.276,0-0.5,0.224-0.5,0.5s0.224,0.5,0.5,0.5h6c0.276,0,0.5-0.224,0.5-0.5s-0.224-0.5-0.5-0.5H26v-4H27.126z"/>
	</g>
</g>
</svg>
