<?xml version="1.0" encoding="iso-8859-1"?>
<!-- Generator: Adobe Illustrator 19.0.0, SVG Export Plug-In . SVG Version: 6.00 Build 0)  -->
<svg version="1.1" id="Layer_1" xmlns="http://www.w3.org/2000/svg" xmlns:xlink="http://www.w3.org/1999/xlink" x="0px" y="0px"
	 viewBox="0 0 30 30" style="enable-background:new 0 0 30 30;" xml:space="preserve">
<g>
	<g>
		<path d="M28.97,20.326c-0.097-0.259-0.384-0.39-0.644-0.294L17.482,24.07c-0.433-0.778-1.103-1.406-1.929-1.755L8.97,4.329
			C8.929,4.218,8.851,4.125,8.748,4.067l-7-4C1.511-0.071,1.203,0.012,1.065,0.253c-0.137,0.24-0.054,0.545,0.187,0.682l6.842,3.909
			l1.976,5.4l-1.986,2.979c-0.087,0.13-0.107,0.292-0.057,0.44l3.241,9.431C10.492,23.824,10,24.853,10,26c0,2.206,1.794,4,4,4
			s4-1.794,4-4c0-0.348-0.059-0.681-0.143-1.003l10.818-4.028C28.935,20.872,29.065,20.584,28.97,20.326z M9.055,13.572l1.442-2.164
			l1.934,5.284l-2.022,0.82L9.055,13.572z M14.001,22c-0.684,0-1.318,0.188-1.881,0.492l-1.386-4.034l2.041-0.827l1.613,4.408
			C14.258,22.026,14.133,22,14.001,22z M17.034,21.68C17.11,21.878,17.3,22,17.501,22c0.059,0,0.118-0.01,0.176-0.032l8-3
			c0.125-0.047,0.226-0.142,0.28-0.263c0.054-0.121,0.059-0.26,0.011-0.385l-2.5-6.5c-0.099-0.256-0.388-0.384-0.643-0.289l-8,3
			c-0.125,0.047-0.226,0.142-0.28,0.263c-0.054,0.121-0.059,0.26-0.011,0.385L17.034,21.68z"/>
	</g>
</g>
</svg>
