<?xml version="1.0" encoding="iso-8859-1"?>
<!-- Generator: Adobe Illustrator 19.0.0, SVG Export Plug-In . SVG Version: 6.00 Build 0)  -->
<svg version="1.1" id="Layer_1" xmlns="http://www.w3.org/2000/svg" xmlns:xlink="http://www.w3.org/1999/xlink" x="0px" y="0px"
	 viewBox="0 0 30 30" style="enable-background:new 0 0 30 30;" xml:space="preserve">
<g>
	<g>
		<path d="M17.499,22h8c0.276,0,0.5-0.224,0.5-0.5v-10c0-0.276-0.224-0.5-0.5-0.5h-2.5v2.5c0,0.276-0.224,0.5-0.5,0.5h-2
			c-0.276,0-0.5-0.224-0.5-0.5V11h-2.5c-0.276,0-0.5,0.224-0.5,0.5v10C16.999,21.776,17.223,22,17.499,22z M5.499,22h10
			c0.276,0,0.5-0.224,0.5-0.5v-14c0-0.276-0.224-0.5-0.5-0.5h-3.5v4.5c0,0.276-0.224,0.5-0.5,0.5h-2c-0.276,0-0.5-0.224-0.5-0.5V7
			h-3.5c-0.276,0-0.5,0.224-0.5,0.5v14C4.999,21.776,5.223,22,5.499,22z M27.999,23c-0.114,0-0.224,0.015-0.333,0.034
			C27.613,23.015,27.558,23,27.499,23h-23.5V3.5c0-0.161-0.077-0.312-0.208-0.406C3.661,3,3.493,2.973,3.341,3.026l-3,1
			c-0.262,0.087-0.403,0.37-0.316,0.632C0.113,4.92,0.398,5.062,0.658,4.974L3,4.194V23c-1.103,0-2,0.897-2,2c0,1.103,0.897,2,2,2
			c1.103,0,2-0.897,2-2c0-0.366-0.106-0.705-0.278-1h21.556C26.106,24.295,26,24.634,26,25c0,1.103,0.897,2,2,2c1.103,0,2-0.897,2-2
			C30,23.897,29.102,23,27.999,23z"/>
	</g>
</g>
</svg>
