<?xml version="1.0" encoding="iso-8859-1"?>
<!-- Generator: Adobe Illustrator 18.0.0, SVG Export Plug-In . SVG Version: 6.00 Build 0)  -->
<!DOCTYPE svg PUBLIC "-//W3C//DTD SVG 1.1//EN" "http://www.w3.org/Graphics/SVG/1.1/DTD/svg11.dtd">
<svg version="1.1" id="Layer_1" xmlns="http://www.w3.org/2000/svg" xmlns:xlink="http://www.w3.org/1999/xlink" x="0px" y="0px"
	 viewBox="0 0 24 24" style="enable-background:new 0 0 24 24;" xml:space="preserve">
<g>
	<g>
		<path d="M21,17h-3c-0.276,0-0.5-0.224-0.5-0.5S17.724,16,18,16h3c0.827,0,1.5-0.673,1.5-1.5v-11C22.5,2.673,21.827,2,21,2H3
			C2.173,2,1.5,2.673,1.5,3.5v11C1.5,15.327,2.173,16,3,16h3c0.276,0,0.5,0.224,0.5,0.5S6.276,17,6,17H3c-1.378,0-2.5-1.122-2.5-2.5
			v-11C0.5,2.122,1.622,1,3,1h18c1.378,0,2.5,1.122,2.5,2.5v11C23.5,15.878,22.378,17,21,17z"/>
		<path d="M12,10.01c-0.534,0-1.068-0.165-1.523-0.494l-7.77-5.611C2.483,3.744,2.433,3.431,2.595,3.207
			c0.161-0.224,0.473-0.274,0.698-0.112l7.77,5.611c0.569,0.411,1.306,0.411,1.875,0l7.77-5.611
			c0.224-0.162,0.536-0.112,0.698,0.112c0.162,0.224,0.111,0.537-0.112,0.698l-7.77,5.611C13.068,9.846,12.534,10.01,12,10.01z"/>
		<path d="M3,15c-0.128,0-0.256-0.049-0.354-0.146c-0.195-0.195-0.195-0.512,0-0.707l5-5c0.195-0.195,0.512-0.195,0.707,0
			s0.195,0.512,0,0.707l-5,5C3.256,14.951,3.128,15,3,15z"/>
		<path d="M21,15c-0.128,0-0.256-0.049-0.354-0.146l-5-5c-0.195-0.195-0.195-0.512,0-0.707s0.512-0.195,0.707,0l5,5
			c0.195,0.195,0.195,0.512,0,0.707C21.256,14.951,21.128,15,21,15z"/>
	</g>
	<path d="M16,23H8c-0.276,0-0.5-0.224-0.5-0.5v-6C7.5,16.224,7.724,16,8,16h8c0.276,0,0.5,0.224,0.5,0.5v6
		C16.5,22.776,16.276,23,16,23z M8.5,22h7v-5h-7V22z"/>
	<path d="M12,21c-0.276,0-0.5-0.224-0.5-0.5V19c0-0.276,0.224-0.5,0.5-0.5s0.5,0.224,0.5,0.5v1.5C12.5,20.776,12.276,21,12,21z"/>
	<circle cx="12" cy="19" r="1"/>
	<path d="M15,17c-0.276,0-0.5-0.224-0.5-0.5v-1c0-1.378-1.122-2.5-2.5-2.5s-2.5,1.122-2.5,2.5v1C9.5,16.776,9.276,17,9,17
		s-0.5-0.224-0.5-0.5v-1c0-1.93,1.57-3.5,3.5-3.5s3.5,1.57,3.5,3.5v1C15.5,16.776,15.276,17,15,17z"/>
</g>
<g>
</g>
<g>
</g>
<g>
</g>
<g>
</g>
<g>
</g>
<g>
</g>
<g>
</g>
<g>
</g>
<g>
</g>
<g>
</g>
<g>
</g>
<g>
</g>
<g>
</g>
<g>
</g>
<g>
</g>
</svg>
