<?xml version="1.0" encoding="iso-8859-1"?>
<!-- Generator: Adobe Illustrator 18.0.0, SVG Export Plug-In . SVG Version: 6.00 Build 0)  -->
<!DOCTYPE svg PUBLIC "-//W3C//DTD SVG 1.1//EN" "http://www.w3.org/Graphics/SVG/1.1/DTD/svg11.dtd">
<svg version="1.1" id="Layer_1" xmlns="http://www.w3.org/2000/svg" xmlns:xlink="http://www.w3.org/1999/xlink" x="0px" y="0px"
	 viewBox="0 0 24 24" style="enable-background:new 0 0 24 24;" xml:space="preserve">
<g>
	<path d="M14.5,22.5c-0.13,0-0.258-0.051-0.354-0.146l-10-10c-0.195-0.195-0.195-0.512,0-0.707l10-10
		c0.143-0.143,0.357-0.187,0.545-0.108C14.878,1.615,15,1.798,15,2v6.511C16.908,8.635,24,9.847,24,21
		c0,0.249-0.183,0.459-0.429,0.495c-0.244,0.038-0.481-0.116-0.551-0.354c-1.345-4.588-6.394-5.447-8.02-5.605V22
		c0,0.202-0.122,0.385-0.309,0.462C14.629,22.488,14.564,22.5,14.5,22.5z M5.207,12L14,20.793V15c0-0.134,0.054-0.262,0.149-0.356
		c0.096-0.094,0.204-0.167,0.358-0.144c0.065,0.001,5.62,0.133,8.361,4.033c-0.966-8.566-6.962-9.035-8.248-9.035
		c-0.141-0.005-0.319-0.043-0.417-0.137C14.105,9.267,14,9.137,14,9V3.207L5.207,12z"/>
	<path d="M10.5,22.5c-0.128,0-0.256-0.049-0.354-0.146l-10-10c-0.195-0.195-0.195-0.512,0-0.707l10-10
		c0.195-0.195,0.512-0.195,0.707,0s0.195,0.512,0,0.707L1.207,12l9.646,9.646c0.195,0.195,0.195,0.512,0,0.707
		C10.756,22.451,10.628,22.5,10.5,22.5z"/>
</g>
<g>
</g>
<g>
</g>
<g>
</g>
<g>
</g>
<g>
</g>
<g>
</g>
<g>
</g>
<g>
</g>
<g>
</g>
<g>
</g>
<g>
</g>
<g>
</g>
<g>
</g>
<g>
</g>
<g>
</g>
</svg>
