<?xml version="1.0" encoding="iso-8859-1"?>
<!-- Generator: Adobe Illustrator 18.0.0, SVG Export Plug-In . SVG Version: 6.00 Build 0)  -->
<!DOCTYPE svg PUBLIC "-//W3C//DTD SVG 1.1//EN" "http://www.w3.org/Graphics/SVG/1.1/DTD/svg11.dtd">
<svg version="1.1" id="Layer_1" xmlns="http://www.w3.org/2000/svg" xmlns:xlink="http://www.w3.org/1999/xlink" x="0px" y="0px"
	 viewBox="0 0 24 24" style="enable-background:new 0 0 24 24;" xml:space="preserve">
<g>
	<g>
		<path d="M23.5,24h-1.092c-0.212,0-0.4-0.133-0.471-0.332C21.795,23.269,21.418,23,21,23s-0.795,0.269-0.938,0.668
			C19.992,23.867,19.804,24,19.592,24h-1.184c-0.212,0-0.4-0.133-0.471-0.332C17.795,23.269,17.418,23,17,23
			s-0.795,0.269-0.938,0.668C15.992,23.867,15.804,24,15.592,24h-1.184c-0.212,0-0.4-0.133-0.471-0.332
			C13.795,23.269,13.418,23,13,23s-0.795,0.269-0.938,0.668C11.992,23.867,11.804,24,11.592,24h-1.184
			c-0.212,0-0.4-0.133-0.471-0.332C9.795,23.269,9.418,23,9,23s-0.795,0.269-0.938,0.668C7.992,23.867,7.804,24,7.592,24H6.5
			C6.224,24,6,23.776,6,23.5c0-0.211,0.133-0.492,0.333-0.563C6.731,22.795,7,22.418,7,22s-0.269-0.795-0.667-0.937
			C6.133,20.992,6,20.803,6,20.592v-1.184c0-0.276,0.224-0.5,0.5-0.5s0.5,0.224,0.5,0.5v0.866C7.61,20.627,8,21.282,8,22
			c0,0.096-0.007,0.191-0.021,0.284C8.282,22.102,8.633,22,9,22c0.717,0,1.372,0.39,1.726,1h0.549c0.354-0.61,1.009-1,1.726-1
			s1.372,0.39,1.726,1h0.549c0.354-0.61,1.009-1,1.726-1s1.372,0.39,1.726,1h0.549c0.354-0.61,1.009-1,1.726-1
			c0.367,0,0.718,0.102,1.021,0.284C22.007,22.191,22,22.096,22,22c0-0.718,0.39-1.373,1-1.726v-0.549c-0.61-0.353-1-1.008-1-1.726
			s0.39-1.373,1-1.726v-0.549c-0.61-0.353-1-1.008-1-1.726s0.39-1.373,1-1.726v-0.549c-0.61-0.353-1-1.008-1-1.726
			s0.39-1.373,1-1.726V7.726C22.39,7.373,22,6.718,22,6s0.39-1.373,1-1.726V3.726C22.39,3.373,22,2.718,22,2
			c0-0.096,0.007-0.191,0.021-0.284C21.718,1.898,21.367,2,21,2c-0.717,0-1.372-0.39-1.726-1h-0.549C18.372,1.61,17.717,2,17,2
			s-1.372-0.39-1.726-1h-0.549C14.372,1.61,13.717,2,13,2s-1.372-0.39-1.726-1h-0.549C10.372,1.61,9.717,2,9,2
			C8.633,2,8.282,1.898,7.979,1.716C7.993,1.809,8,1.904,8,2c0,0.718-0.39,1.373-1,1.726v0.549C7.61,4.627,8,5.282,8,6
			c0,0.276-0.224,0.5-0.5,0.5S7,6.276,7,6c0-0.418-0.269-0.795-0.667-0.937C6.133,4.992,6,4.803,6,4.592V3.408
			c0-0.211,0.133-0.4,0.333-0.471C6.731,2.795,7,2.418,7,2S6.731,1.205,6.333,1.063C6.133,0.992,6,0.803,6,0.592
			C6,0.315,6.224,0,6.5,0h1.092c0.212,0,0.4,0.133,0.471,0.332C8.205,0.731,8.582,1,9,1s0.795-0.269,0.938-0.668
			C10.008,0.133,10.196,0,10.408,0h1.184c0.212,0,0.4,0.133,0.471,0.332C12.205,0.731,12.582,1,13,1s0.795-0.269,0.938-0.668
			C14.008,0.133,14.196,0,14.408,0h1.184c0.212,0,0.4,0.133,0.471,0.332C16.205,0.731,16.582,1,17,1s0.795-0.269,0.938-0.668
			C18.008,0.133,18.196,0,18.408,0h1.184c0.212,0,0.4,0.133,0.471,0.332C20.205,0.731,20.582,1,21,1s0.795-0.269,0.938-0.668
			C22.008,0.133,22.196,0,22.408,0H23.5C23.776,0,24,0.224,24,0.5c0,0.211-0.133,0.492-0.333,0.563C23.269,1.205,23,1.582,23,2
			s0.269,0.795,0.667,0.937C23.867,3.008,24,3.197,24,3.408v1.184c0,0.211-0.133,0.4-0.333,0.471C23.269,5.205,23,5.582,23,6
			s0.269,0.795,0.667,0.937C23.867,7.008,24,7.197,24,7.408v1.184c0,0.211-0.133,0.4-0.333,0.471C23.269,9.205,23,9.582,23,10
			s0.269,0.795,0.667,0.937c0.2,0.071,0.333,0.26,0.333,0.471v1.184c0,0.211-0.133,0.4-0.333,0.471C23.269,13.205,23,13.582,23,14
			s0.269,0.795,0.667,0.937c0.2,0.071,0.333,0.26,0.333,0.471v1.184c0,0.211-0.133,0.4-0.333,0.471C23.269,17.205,23,17.582,23,18
			s0.269,0.795,0.667,0.937c0.2,0.071,0.333,0.26,0.333,0.471v1.184c0,0.211-0.133,0.4-0.333,0.471C23.269,21.205,23,21.582,23,22
			s0.269,0.795,0.667,0.937c0.2,0.071,0.333,0.26,0.333,0.471C24,23.685,23.776,24,23.5,24z"/>
		<path d="M20.5,21h-11C9.224,21,9,20.776,9,20.5v-3C9,17.224,9.224,17,9.5,17s0.5,0.224,0.5,0.5V20h10V4H10v1.5
			C10,5.776,9.776,6,9.5,6S9,5.776,9,5.5v-2C9,3.224,9.224,3,9.5,3h11C20.776,3,21,3.224,21,3.5v17C21,20.776,20.776,21,20.5,21z"/>
	</g>
	<path d="M14.5,10c-1.352,0-2.047-0.595-2.659-1.12C11.29,8.408,10.814,8,9.832,8S8.374,8.408,7.823,8.88
		C7.211,9.405,6.516,10,5.164,10c-1.351,0-2.045-0.595-2.657-1.121C1.956,8.408,1.481,8,0.5,8C0.224,8,0,7.776,0,7.5S0.224,7,0.5,7
		c1.351,0,2.045,0.595,2.657,1.121C3.708,8.592,4.183,9,5.164,9c0.982,0,1.458-0.408,2.009-0.88C7.785,7.595,8.48,7,9.832,7
		s2.047,0.595,2.659,1.12C13.042,8.592,13.518,9,14.5,9C14.776,9,15,9.224,15,9.5S14.776,10,14.5,10z"/>
	<path d="M14.5,14c-1.352,0-2.047-0.595-2.659-1.12C11.29,12.408,10.814,12,9.832,12s-1.458,0.408-2.009,0.88
		C7.211,13.405,6.516,14,5.164,14c-1.351,0-2.045-0.595-2.657-1.121C1.956,12.408,1.481,12,0.5,12C0.224,12,0,11.776,0,11.5
		S0.224,11,0.5,11c1.351,0,2.045,0.595,2.657,1.121C3.708,12.592,4.183,13,5.164,13c0.982,0,1.458-0.408,2.009-0.88
		C7.785,11.595,8.48,11,9.832,11s2.047,0.595,2.659,1.12C13.042,12.592,13.518,13,14.5,13c0.276,0,0.5,0.224,0.5,0.5
		S14.776,14,14.5,14z"/>
	<path d="M14.5,18c-1.352,0-2.047-0.595-2.659-1.12C11.29,16.408,10.814,16,9.832,16s-1.458,0.408-2.009,0.88
		C7.211,17.405,6.516,18,5.164,18c-1.351,0-2.045-0.595-2.657-1.121C1.956,16.408,1.481,16,0.5,16C0.224,16,0,15.776,0,15.5
		S0.224,15,0.5,15c1.351,0,2.045,0.595,2.657,1.121C3.708,16.592,4.183,17,5.164,17c0.982,0,1.458-0.408,2.009-0.88
		C7.785,15.595,8.48,15,9.832,15s2.047,0.595,2.659,1.12C13.042,16.592,13.518,17,14.5,17c0.276,0,0.5,0.224,0.5,0.5
		S14.776,18,14.5,18z"/>
</g>
<g>
</g>
<g>
</g>
<g>
</g>
<g>
</g>
<g>
</g>
<g>
</g>
<g>
</g>
<g>
</g>
<g>
</g>
<g>
</g>
<g>
</g>
<g>
</g>
<g>
</g>
<g>
</g>
<g>
</g>
</svg>
