<?xml version="1.0" encoding="iso-8859-1"?>
<!-- Generator: Adobe Illustrator 19.0.0, SVG Export Plug-In . SVG Version: 6.00 Build 0)  -->
<svg version="1.1" id="Layer_1" xmlns="http://www.w3.org/2000/svg" xmlns:xlink="http://www.w3.org/1999/xlink" x="0px" y="0px"
	 viewBox="0 0 30 30" style="enable-background:new 0 0 30 30;" xml:space="preserve">
<g>
	<g>
		<path d="M20.5,24c0.276,0,0.5-0.224,0.5-0.5S20.776,23,20.5,23h-6c-0.276,0-0.5,0.224-0.5,0.5s0.224,0.5,0.5,0.5H20.5z M22.5,26
			h-10c-0.276,0-0.5,0.224-0.5,0.5s0.224,0.5,0.5,0.5h10c0.276,0,0.5-0.224,0.5-0.5S22.776,26,22.5,26z M22.5,20h-10
			c-0.276,0-0.5,0.224-0.5,0.5s0.224,0.5,0.5,0.5h10c0.276,0,0.5-0.224,0.5-0.5S22.776,20,22.5,20z M21.597,13.423l-1.859-0.465
			l-0.103-0.413c0.486-0.521,0.827-1.197,0.958-1.898c0.315-0.144,0.545-0.442,0.59-0.803L21.314,8.8
			c0.035-0.288-0.054-0.578-0.244-0.796c-0.071-0.082-0.155-0.152-0.247-0.206l0.036-0.733l0.136-0.136
			c0.288-0.307,0.679-0.964,0.054-1.92C20.747,4.548,20.125,4,18.872,4c-0.376,0-1.231,0-2.053,0.523
			C14.44,4.596,14.13,5.798,14.13,6.846c0,0.207,0.04,0.614,0.075,0.932c-0.1,0.056-0.193,0.13-0.271,0.218
			c-0.194,0.22-0.285,0.512-0.249,0.804l0.131,1.043c0.046,0.372,0.29,0.678,0.652,0.816c0.129,0.673,0.451,1.326,0.908,1.836
			l-0.115,0.462l-1.859,0.465C11.988,13.776,11,15.042,11,16.5c0,0.133,0.052,0.261,0.146,0.354S11.367,17,11.5,17l11.999-0.001
			c0.276,0,0.5-0.224,0.5-0.5C23.999,15.042,23.011,13.777,21.597,13.423z M12.058,15.999c0.183-0.777,0.785-1.406,1.586-1.606
			l2.15-0.538c0.179-0.045,0.319-0.185,0.364-0.364l0.256-1.023c0.044-0.176-0.011-0.362-0.144-0.486
			c-0.484-0.455-0.805-1.121-0.858-1.783c-0.02-0.26-0.237-0.46-0.498-0.46L14.808,9.72l-0.055-1.068
			c0.144,0,0.28-0.061,0.375-0.169c0.095-0.107,0.139-0.25,0.121-0.393c-0.046-0.366-0.119-1.026-0.119-1.242
			c0-0.643,0-1.308,1.853-1.326c0.102-0.001,0.203-0.034,0.286-0.094C17.867,5,18.546,5,18.872,5c0.656,0,1.095,0.182,1.34,0.556
			c0.288,0.44,0.147,0.59,0.066,0.677l-0.262,0.261c-0.088,0.088-0.14,0.206-0.146,0.33L19.807,8.13
			C19.8,8.265,19.86,8.409,19.953,8.508c0.093,0.099,0.233,0.167,0.369,0.169L20.144,9.74c-0.261,0-0.477,0.2-0.498,0.46
			c-0.053,0.671-0.397,1.367-0.899,1.817c-0.137,0.123-0.196,0.313-0.151,0.493l0.245,0.98c0.045,0.179,0.184,0.32,0.364,0.364
			l2.15,0.538c0.802,0.201,1.403,0.83,1.587,1.608L12.058,15.999z M26.5,0h-21C4.673,0,4,0.673,4,1.5V5H2.5C2.224,5,2,5.224,2,5.5
			S2.224,6,2.5,6H4v5H2.5C2.224,11,2,11.224,2,11.5S2.224,12,2.5,12H4v6H2.5C2.224,18,2,18.224,2,18.5S2.224,19,2.5,19H4v5H2.5
			C2.224,24,2,24.224,2,24.5S2.224,25,2.5,25H4v3.5C4,29.327,4.673,30,5.5,30h21c0.827,0,1.5-0.673,1.5-1.5v-27
			C28,0.673,27.327,0,26.5,0z M27,28.5c0,0.276-0.225,0.5-0.5,0.5h-21C5.225,29,5,28.776,5,28.5V25h1.092
			c0.207,0.581,0.757,1,1.408,1C8.327,26,9,25.327,9,24.5S8.327,23,7.5,23c-0.651,0-1.201,0.419-1.408,1H5v-5h1.092
			c0.207,0.581,0.757,1,1.408,1C8.327,20,9,19.327,9,18.5S8.327,17,7.5,17c-0.651,0-1.201,0.419-1.408,1H5v-6h1.092
			c0.207,0.581,0.757,1,1.408,1C8.327,13,9,12.327,9,11.5S8.327,10,7.5,10c-0.651,0-1.201,0.419-1.408,1H5V6h1.092
			C6.299,6.581,6.849,7,7.5,7C8.327,7,9,6.327,9,5.5S8.327,4,7.5,4C6.849,4,6.299,4.419,6.092,5H5V1.5C5,1.224,5.225,1,5.5,1h21
			C26.775,1,27,1.224,27,1.5V28.5z M7,24.5C7,24.224,7.225,24,7.5,24C7.775,24,8,24.224,8,24.5S7.775,25,7.5,25
			C7.225,25,7,24.776,7,24.5z M7,18.5C7,18.224,7.225,18,7.5,18C7.775,18,8,18.224,8,18.5S7.775,19,7.5,19C7.225,19,7,18.776,7,18.5
			z M7,11.5C7,11.224,7.225,11,7.5,11C7.775,11,8,11.224,8,11.5S7.775,12,7.5,12C7.225,12,7,11.776,7,11.5z M7,5.5
			C7,5.224,7.225,5,7.5,5C7.775,5,8,5.224,8,5.5S7.775,6,7.5,6C7.225,6,7,5.776,7,5.5z"/>
	</g>
</g>
</svg>
