<?xml version="1.0" encoding="iso-8859-1"?>
<!-- Generator: Adobe Illustrator 19.0.0, SVG Export Plug-In . SVG Version: 6.00 Build 0)  -->
<svg version="1.1" id="Layer_1" xmlns="http://www.w3.org/2000/svg" xmlns:xlink="http://www.w3.org/1999/xlink" x="0px" y="0px"
	 viewBox="0 0 30 30" style="enable-background:new 0 0 30 30;" xml:space="preserve">
<g>
	<g>
		<path d="M13,28.999H3.224c-0.399,0-0.723-0.331-0.723-0.738V5.738C2.5,5.331,2.826,5,3.224,5H6.5v0.5C6.5,5.776,6.724,6,7,6h11
			c0.276,0,0.5-0.224,0.5-0.5V5h3.25c0.413,0,0.75,0.325,0.75,0.723V14.5c0,0.276,0.224,0.5,0.5,0.5s0.5-0.224,0.5-0.5V5.723
			C23.5,4.772,22.716,4,21.75,4H18.5V3.5C18.5,2.673,17.828,2,17,2h-2.5c0-1.103-0.897-2-2-2c-1.103,0-2,0.897-2,2H8
			C7.174,2,6.5,2.673,6.5,3.5V4H3.224C2.273,4,1.5,4.78,1.5,5.738v22.524C1.5,29.22,2.273,30,3.224,30H13
			c0.276,0,0.5-0.225,0.5-0.501S13.276,28.999,13,28.999z M7.5,3.5C7.5,3.225,7.726,3,8,3h3c0.276,0,0.5-0.224,0.5-0.5V2
			c0-0.552,0.448-1,1-1s1,0.448,1,1v0.5c0,0.13,0.05,0.26,0.14,0.35C13.729,2.95,13.859,3,14,3h3c0.275,0,0.5,0.225,0.5,0.5V5h-10
			V3.5z M26.098,26.422l-1.859-0.465l-0.103-0.412c0.486-0.521,0.827-1.197,0.958-1.897c0.315-0.145,0.545-0.443,0.59-0.803
			l0.131-1.045c0.035-0.288-0.054-0.578-0.244-0.796c-0.071-0.082-0.155-0.151-0.247-0.206l0.036-0.732l0.137-0.137
			c0.287-0.307,0.678-0.965,0.053-1.921C25.247,17.548,24.625,17,23.372,17c-0.376,0-1.23,0-2.052,0.524
			c-2.379,0.073-2.69,1.275-2.69,2.323c0,0.207,0.04,0.615,0.075,0.932c-0.101,0.056-0.193,0.129-0.271,0.218
			c-0.194,0.219-0.285,0.511-0.249,0.804l0.131,1.043c0.046,0.372,0.29,0.677,0.652,0.816c0.129,0.673,0.451,1.326,0.908,1.836
			l-0.115,0.461l-1.859,0.465C16.489,26.775,15.5,28.041,15.5,29.5c0,0.133,0.052,0.261,0.146,0.354S15.867,30,16,30L28,29.999
			c0.276,0,0.5-0.224,0.5-0.5C28.5,28.04,27.513,26.776,26.098,26.422z M16.558,28.999c0.182-0.777,0.785-1.406,1.586-1.606
			l2.15-0.538c0.179-0.045,0.319-0.184,0.364-0.364l0.256-1.022c0.044-0.175-0.011-0.361-0.144-0.485
			c-0.484-0.455-0.805-1.122-0.858-1.783c-0.02-0.26-0.237-0.46-0.498-0.46l-0.106-0.02l-0.055-1.067
			c0.144,0,0.28-0.062,0.375-0.169c0.095-0.109,0.139-0.251,0.121-0.394c-0.046-0.365-0.119-1.026-0.119-1.242
			c0-0.642,0-1.307,1.853-1.326c0.102-0.001,0.202-0.033,0.286-0.094c0.599-0.428,1.277-0.428,1.603-0.428
			c0.656,0,1.095,0.182,1.34,0.556c0.288,0.441,0.147,0.59,0.066,0.677l-0.262,0.261c-0.088,0.088-0.14,0.206-0.146,0.33
			l-0.063,1.306c-0.007,0.136,0.053,0.279,0.146,0.378c0.093,0.1,0.233,0.168,0.369,0.169l-0.178,1.063
			c-0.261,0-0.477,0.2-0.498,0.461c-0.053,0.67-0.397,1.366-0.899,1.817c-0.137,0.124-0.196,0.313-0.151,0.493l0.245,0.979
			c0.045,0.179,0.184,0.319,0.364,0.364l2.15,0.538c0.802,0.2,1.404,0.829,1.587,1.607L16.558,28.999z"/>
	</g>
</g>
</svg>
