<?xml version="1.0" encoding="iso-8859-1"?>
<!-- Generator: Adobe Illustrator 19.0.0, SVG Export Plug-In . SVG Version: 6.00 Build 0)  -->
<svg version="1.1" id="Layer_1" xmlns="http://www.w3.org/2000/svg" xmlns:xlink="http://www.w3.org/1999/xlink" x="0px" y="0px"
	 viewBox="0 0 30 30" style="enable-background:new 0 0 30 30;" xml:space="preserve">
<g>
	<g>
		<path d="M24.771,21.25c0-0.276-0.224-0.5-0.5-0.5h-0.01c-0.276,0-0.495,0.224-0.495,0.5s0.23,0.5,0.505,0.5
			C24.547,21.75,24.771,21.526,24.771,21.25z M17,24.5h1.5c0.276,0,0.5-0.223,0.5-0.499s-0.224-0.5-0.5-0.5h-1.995
			c-0.002,0-0.003-0.001-0.005-0.001s-0.003,0.001-0.005,0.001h-3.99c-0.002,0-0.003-0.001-0.005-0.001s-0.003,0.001-0.005,0.001
			H3.047C1.919,23.501,1,22.579,1,21.445V20.5h16.5c0.276,0,0.5-0.224,0.5-0.5s-0.224-0.5-0.5-0.5H1V3.556
			C1,2.422,1.919,1.5,3.047,1.5h22.908C27.082,1.5,28,2.422,28,3.556V15c0,0.276,0.224,0.5,0.5,0.5S29,15.276,29,15V3.556
			C29,1.871,27.634,0.5,25.954,0.5H3.047C1.367,0.5,0,1.871,0,3.556v17.888C0,23.129,1.367,24.5,3.047,24.5H12v1H8
			c-1.944,0-4,1.799-4,3.5c0,0.276,0.224,0.5,0.5,0.5h10c0.276,0,0.5-0.224,0.5-0.5s-0.224-0.5-0.5-0.5H5.096
			c0.35-0.966,1.615-2,2.904-2h7.5c0.276,0,0.5-0.224,0.5-0.5s-0.224-0.5-0.5-0.5H13v-1h3V25c0,0.276,0.224,0.5,0.5,0.5
			S17,25.276,17,25V24.5z M27.597,25.922l-1.859-0.465l-0.103-0.412c0.486-0.521,0.827-1.197,0.958-1.897
			c0.315-0.145,0.545-0.443,0.59-0.803l0.131-1.045c0.035-0.288-0.054-0.578-0.244-0.796c-0.071-0.082-0.155-0.151-0.247-0.206
			l0.036-0.732l0.137-0.137c0.287-0.307,0.678-0.965,0.053-1.921c-0.302-0.46-0.925-1.008-2.177-1.008c-0.376,0-1.23,0-2.052,0.524
			c-2.379,0.073-2.69,1.275-2.69,2.323c0,0.207,0.04,0.615,0.075,0.932c-0.101,0.056-0.193,0.129-0.271,0.218
			c-0.194,0.219-0.285,0.511-0.249,0.804l0.131,1.043c0.046,0.372,0.29,0.677,0.652,0.816c0.129,0.673,0.451,1.326,0.908,1.836
			l-0.115,0.461l-1.859,0.465C17.989,26.275,17,27.541,17,29c0,0.133,0.052,0.261,0.146,0.354S17.367,29.5,17.5,29.5L29.5,29.499
			c0.276,0,0.5-0.224,0.5-0.5C30,27.54,29.013,26.276,27.597,25.922z M18.059,28.499c0.182-0.777,0.785-1.406,1.586-1.606
			l2.15-0.538c0.179-0.045,0.319-0.184,0.364-0.364l0.256-1.022c0.044-0.175-0.011-0.361-0.144-0.485
			c-0.484-0.455-0.805-1.122-0.858-1.783c-0.02-0.26-0.237-0.46-0.498-0.46l-0.106-0.02l-0.055-1.067
			c0.144,0,0.28-0.062,0.375-0.169c0.095-0.109,0.139-0.251,0.121-0.394c-0.046-0.365-0.119-1.026-0.119-1.242
			c0-0.642,0-1.307,1.853-1.326c0.102-0.001,0.202-0.033,0.286-0.094c0.599-0.428,1.277-0.428,1.603-0.428
			c0.656,0,1.095,0.182,1.34,0.556c0.288,0.441,0.147,0.59,0.066,0.677l-0.262,0.261c-0.088,0.088-0.14,0.206-0.146,0.33
			l-0.063,1.306c-0.007,0.136,0.053,0.279,0.146,0.378c0.093,0.1,0.233,0.168,0.369,0.169l-0.178,1.063
			c-0.261,0-0.477,0.2-0.498,0.461c-0.053,0.67-0.397,1.366-0.899,1.817c-0.137,0.124-0.196,0.313-0.151,0.493l0.245,0.979
			c0.045,0.179,0.184,0.319,0.364,0.364l2.15,0.538c0.802,0.2,1.404,0.829,1.587,1.607L18.059,28.499z"/>
	</g>
</g>
</svg>
