<?xml version="1.0" encoding="iso-8859-1"?>
<!-- Generator: Adobe Illustrator 19.0.0, SVG Export Plug-In . SVG Version: 6.00 Build 0)  -->
<svg version="1.1" id="Layer_1" xmlns="http://www.w3.org/2000/svg" xmlns:xlink="http://www.w3.org/1999/xlink" x="0px" y="0px"
	 viewBox="0 0 30 30" style="enable-background:new 0 0 30 30;" xml:space="preserve">
<g>
	<g>
		<path d="M10.612,14.201c-0.079,0.117-0.105,0.262-0.071,0.399l0.221,0.891c0.044,0.179,0.183,0.319,0.362,0.364l2.129,0.539
			c0.341,0.085,0.647,0.251,0.912,0.492c0.204,0.188,0.52,0.173,0.706-0.032c0.187-0.204,0.172-0.52-0.032-0.706
			c-0.383-0.35-0.847-0.6-1.341-0.724l-1.838-0.465l-0.019-0.076c1.244-0.246,1.897-0.629,1.928-0.647
			c0.137-0.083,0.222-0.233,0.236-0.393c0.012-0.161-0.058-0.324-0.181-0.428c-0.009-0.007-0.845-0.744-0.845-3.262
			c0-2.409-0.603-3.631-1.791-3.631h-0.056c-0.395-0.365-0.742-0.521-1.494-0.521c-1.046,0-3.34,1.046-3.34,4.152
			c0,2.516-0.835,3.254-0.834,3.254c-0.132,0.101-0.206,0.259-0.197,0.424c0.008,0.166,0.097,0.316,0.239,0.402
			c0.031,0.018,0.678,0.404,1.931,0.65l-0.019,0.075L5.38,15.424C3.979,15.776,3,17.042,3,18.5C3,18.776,3.224,19,3.5,19h8.975
			c0.276,0,0.501-0.223,0.501-0.499s-0.224-0.5-0.5-0.5L4.057,18c0.18-0.778,0.775-1.407,1.569-1.607l2.128-0.538
			c0.178-0.045,0.318-0.185,0.362-0.364l0.22-0.89c0.034-0.137,0.008-0.283-0.071-0.4c-0.079-0.117-0.204-0.195-0.345-0.215
			c-0.692-0.097-1.214-0.248-1.565-0.375c0.346-0.578,0.743-1.639,0.743-3.457c0-2.591,1.876-3.152,2.34-3.152
			c0.567,0,0.645,0.079,0.936,0.373c0.093,0.094,0.221,0.148,0.355,0.148h0.259c0.488,0,0.791,1.008,0.791,2.631
			c0,1.816,0.396,2.876,0.742,3.455c-0.352,0.127-0.876,0.278-1.566,0.376C10.816,14.005,10.691,14.085,10.612,14.201z M26.979,0
			H3.021C1.356,0,0,1.332,0,2.97v16.059C0,20.667,1.356,22,3.021,22h9.329c0.276,0,0.5-0.224,0.5-0.5s-0.224-0.5-0.5-0.5H3.021
			C1.908,21,1,20.117,1,19.029V5H29v11.941c0,0.276,0.224,0.5,0.5,0.5s0.5-0.224,0.5-0.5V2.97C30,1.332,28.645,0,26.979,0z M29,4H1
			V2.97C1,1.883,1.908,1,3.021,1h23.957C28.093,1,29,1.883,29,2.97V4z M17.5,10h4c0.276,0,0.5-0.224,0.5-0.5S21.776,9,21.5,9h-4
			C17.224,9,17,9.224,17,9.5S17.224,10,17.5,10z M30,20.5c0-0.249-0.106-0.462-0.297-0.6c-0.14-0.101-0.316-0.152-0.523-0.152
			c-0.317,0-0.899,0.184-1.365,0.471c-0.593-1.268-1.617-2.406-2.337-2.753C25.018,17.245,23.434,17,22,17
			c-1.433,0-3.018,0.246-3.478,0.467c-0.72,0.345-1.744,1.484-2.337,2.753c-0.466-0.287-1.048-0.471-1.366-0.471
			c-0.563,0-0.82,0.39-0.82,0.752c0,0.899,0.726,1.519,0.808,1.587c0.086,0.07,0.188,0.103,0.291,0.109
			c-0.321,0.811-0.474,1.728-0.474,2.503c0,0.725,0.064,2.396,0.625,3.181v1.02c0,0.627,0.483,1.1,1.125,1.1h1.25
			c0.642,0,1.125-0.473,1.125-1.1v-0.542c0.732,0.183,1.982,0.441,3.25,0.441s2.518-0.257,3.25-0.441v0.542
			c0,0.627,0.483,1.1,1.125,1.1h1.25c0.642,0,1.125-0.473,1.127-1.1v-1.02c0.561-0.785,0.625-2.456,0.625-3.181
			c0-0.775-0.153-1.693-0.474-2.504c0.103-0.006,0.204-0.039,0.289-0.109C29.273,22.019,30,21.398,30,20.5z M16.841,21.265
			c0.004-0.005,0.008-0.01,0.01-0.016c0.442-1.422,1.622-2.649,2.103-2.88C19.153,18.273,20.508,18,22,18
			c1.491,0,2.847,0.273,3.043,0.367c0.483,0.233,1.663,1.459,2.104,2.881c0.002,0.007,0.007,0.013,0.012,0.019
			c0.001,0.003,0.001,0.007,0.002,0.01C26.11,21.469,23.091,22,22,22c-1.091,0-4.111-0.531-5.161-0.723
			C16.84,21.274,16.84,21.269,16.841,21.265z M15.507,21.393c-0.021-0.026-0.037-0.056-0.064-0.079
			c-0.004-0.002-0.261-0.224-0.381-0.522c0.207,0.063,0.468,0.186,0.652,0.304C15.641,21.191,15.572,21.29,15.507,21.393z
			 M17.749,28.901c0,0.025,0,0.1-0.125,0.1h-1.25c-0.125,0-0.125-0.076-0.125-0.1v-0.7h1.5V28.901z M27.75,28.901
			c0,0.025,0,0.1-0.125,0.1h-1.25c-0.125,0-0.125-0.076-0.125-0.1v-0.7h1.5V28.901z M27.998,27.201H25.75
			c-0.051,0-0.103,0.008-0.153,0.024c-0.018,0.006-1.822,0.576-3.598,0.576c-1.771,0-3.58-0.57-3.598-0.576
			c-0.017-0.005-0.034,0-0.051-0.004c-0.033-0.007-0.064-0.02-0.1-0.02H16c-0.196-0.37-0.376-1.277-0.376-2.5
			c0-0.226,0.02-0.468,0.051-0.715C15.697,23.989,15.718,24,15.742,24c0.838,0.013,2.008,0.287,2.008,0.7c0,0.276,0.224,0.5,0.5,0.5
			s0.5-0.223,0.5-0.5c0-1.481-2.271-1.671-2.872-1.696c0.088-0.299,0.199-0.585,0.333-0.841c0.024,0.009,0.044,0.024,0.07,0.029
			C16.456,22.226,20.583,23,22,23s5.543-0.775,5.718-0.809c0.026-0.005,0.046-0.02,0.07-0.028c0.134,0.256,0.245,0.542,0.333,0.841
			c-0.602,0.025-2.871,0.216-2.871,1.696c0,0.276,0.224,0.5,0.5,0.5s0.5-0.223,0.5-0.5c0-0.413,1.17-0.686,2.008-0.7
			c0.024,0,0.044-0.011,0.066-0.015c0.031,0.246,0.051,0.489,0.051,0.715C28.375,25.923,28.194,26.83,27.998,27.201z M28.557,21.313
			c-0.027,0.022-0.042,0.052-0.063,0.078c-0.065-0.103-0.134-0.202-0.207-0.296c0.184-0.118,0.445-0.24,0.652-0.304
			C28.838,21.036,28.645,21.24,28.557,21.313z M17.5,14h9c0.276,0,0.5-0.224,0.5-0.5S26.776,13,26.5,13h-9
			c-0.276,0-0.5,0.224-0.5,0.5S17.224,14,17.5,14z M26.5,10c0.276,0,0.5-0.224,0.5-0.5S26.776,9,26.5,9h-3C23.224,9,23,9.224,23,9.5
			s0.224,0.5,0.5,0.5H26.5z M23.5,24h-3c-0.276,0-0.5,0.224-0.5,0.5s0.224,0.5,0.5,0.5h3c0.276,0,0.5-0.224,0.5-0.5
			S23.776,24,23.5,24z"/>
	</g>
</g>
</svg>
