<?xml version="1.0" encoding="iso-8859-1"?>
<!-- Generator: Adobe Illustrator 19.0.0, SVG Export Plug-In . SVG Version: 6.00 Build 0)  -->
<svg version="1.1" id="Layer_1" xmlns="http://www.w3.org/2000/svg" xmlns:xlink="http://www.w3.org/1999/xlink" x="0px" y="0px"
	 viewBox="0 0 30 30" style="enable-background:new 0 0 30 30;" xml:space="preserve">
<g>
	<g>
		<path d="M29.5,21H29v-0.75c0-2.343-2.019-4.25-4.5-4.25S20,17.907,20,20.25V21h-0.5c-0.276,0-0.5,0.224-0.5,0.5v8
			c0,0.276,0.224,0.5,0.5,0.5h10c0.276,0,0.5-0.224,0.5-0.5v-8C30,21.224,29.776,21,29.5,21z M21,20.25c0-1.792,1.57-3.25,3.5-3.25
			s3.5,1.458,3.5,3.25V21h-7V20.25z M29,29h-9v-7h9V29z M14.5,7c1.654,0,3-1.346,3-3s-1.346-3-3-3s-3,1.346-3,3S12.846,7,14.5,7z
			 M14.5,2c1.103,0,2,0.897,2,2c0,1.103-0.897,2-2,2c-1.103,0-2-0.897-2-2C12.5,2.897,13.397,2,14.5,2z M10.159,10.896
			C9.968,9.245,8.652,8,7.096,8H3.905c-1.556,0-2.873,1.245-3.063,2.896l-0.828,7.173c-0.066,0.563,0.108,1.123,0.476,1.536
			C0.832,19.989,1.294,20.2,1.793,20.2l0.708,9.337C2.521,29.798,2.738,30,3,30h5c0.262,0,0.479-0.202,0.5-0.462l0.697-9.337h0.011
			c0.498,0,0.961-0.211,1.303-0.595c0.368-0.413,0.541-0.973,0.476-1.536L10.159,10.896z M9.764,18.94
			c-0.15,0.168-0.348,0.26-0.557,0.26H8.732c-0.262,0-0.479,0.202-0.499,0.463L7.536,29H3.464l-0.696-9.337
			C2.748,19.402,2.531,19.2,2.269,19.2H1.794c-0.21,0-0.408-0.092-0.557-0.26c-0.178-0.2-0.261-0.475-0.229-0.756l0.828-7.174
			C1.968,9.864,2.858,9,3.905,9h3.191c1.047,0,1.937,0.864,2.069,2.01l0.828,7.174C10.026,18.464,9.942,18.74,9.764,18.94z
			 M19.68,17.79l-0.683-6.162C18.81,10.13,17.53,9,16.02,9h-3.086c-0.333,0-0.669,0.06-1,0.177c-0.26,0.092-0.396,0.378-0.304,0.638
			c0.092,0.26,0.377,0.394,0.638,0.304C12.492,10.04,12.716,10,12.934,10h3.086c1.007,0,1.86,0.753,1.984,1.745l0.683,6.162
			c0.027,0.216-0.037,0.425-0.182,0.589c-0.145,0.164-0.345,0.254-0.563,0.254h-0.459c-0.267,0-0.486,0.208-0.5,0.474L16.526,28
			h-4.058l-0.469-7.033c-0.018-0.276-0.255-0.482-0.532-0.466c-0.276,0.018-0.484,0.257-0.466,0.532l0.5,7.5
			C11.519,28.796,11.737,29,12,29h5c0.266,0,0.485-0.208,0.501-0.473l0.457-8.776c0.496-0.005,0.967-0.22,1.296-0.592
			C19.587,18.782,19.742,18.281,19.68,17.79z M5.5,6c1.654,0,3-1.346,3-3s-1.346-3-3-3s-3,1.346-3,3S3.846,6,5.5,6z M5.5,1
			c1.103,0,2,0.897,2,2c0,1.103-0.897,2-2,2c-1.103,0-2-0.897-2-2C3.5,1.897,4.397,1,5.5,1z M24,25.347V26.5
			c0,0.276,0.224,0.5,0.5,0.5s0.5-0.224,0.5-0.5v-1.153c0.293-0.174,0.5-0.481,0.5-0.847c0-0.552-0.448-1-1-1c-0.552,0-1,0.448-1,1
			C23.5,24.866,23.706,25.173,24,25.347z"/>
	</g>
</g>
</svg>
