<?xml version="1.0" encoding="iso-8859-1"?>
<!-- Generator: Adobe Illustrator 19.0.0, SVG Export Plug-In . SVG Version: 6.00 Build 0)  -->
<svg version="1.1" id="Layer_1" xmlns="http://www.w3.org/2000/svg" xmlns:xlink="http://www.w3.org/1999/xlink" x="0px" y="0px"
	 viewBox="0 0 30 30" style="enable-background:new 0 0 30 30;" xml:space="preserve">
<g>
	<g>
		<path d="M5.998,7.022c1.646,0,2.984-1.355,2.984-3.022S7.643,0.978,5.998,0.978C4.353,0.978,3.014,2.333,3.014,4
			S4.352,7.022,5.998,7.022z M5.998,1.978c1.094,0,1.984,0.907,1.984,2.022s-0.89,2.022-1.984,2.022S4.014,5.115,4.014,4
			S4.904,1.978,5.998,1.978z M14.998,6c1.654,0,3-1.346,3-3s-1.346-3-3-3s-3,1.346-3,3S13.344,6,14.998,6z M14.998,1
			c1.103,0,2,0.897,2,2c0,1.103-0.897,2-2,2c-1.103,0-2-0.897-2-2C12.998,1.897,13.895,1,14.998,1z M8.531,25.501
			c-0.269-0.018-0.514,0.191-0.532,0.466L7.864,28H3.971l-0.474-8.528C3.482,19.208,3.263,19,2.998,19H2.572
			c-0.129,0-0.307-0.029-0.431-0.168c-0.115-0.128-0.163-0.329-0.136-0.565l0.746-6.49c0.116-1.012,0.896-1.776,1.814-1.776h2.934
			c0.133,0,0.216,0.023,0.392,0.073c0.264,0.074,0.542-0.077,0.618-0.343c0.076-0.266-0.078-0.543-0.343-0.619
			c-0.2-0.057-0.389-0.111-0.667-0.111H4.565c-1.427,0-2.634,1.144-2.808,2.662l-0.746,6.49c-0.061,0.523,0.075,1.001,0.382,1.345
			c0.28,0.314,0.68,0.491,1.132,0.502l0.474,8.528C3.014,28.792,3.233,29,3.498,29h4.833c0.264,0,0.482-0.204,0.499-0.467l0.167-2.5
			C9.015,25.758,8.806,25.52,8.531,25.501z M28.987,18.153l-0.746-6.49c-0.174-1.517-1.381-2.662-2.808-2.662h-2.934
			c-0.319,0-0.641,0.062-0.956,0.184c-0.257,0.099-0.386,0.388-0.286,0.646c0.1,0.258,0.391,0.385,0.646,0.286
			c0.2-0.077,0.401-0.116,0.596-0.116h2.934c0.918,0,1.698,0.763,1.814,1.776l0.746,6.49c0.029,0.258-0.016,0.475-0.125,0.597
			C27.787,18.954,27.663,19,27.498,19H27.07c-0.264,0-0.482,0.205-0.499,0.468L26.029,28h-3.896l-0.136-2.066
			c-0.018-0.276-0.265-0.474-0.532-0.466c-0.275,0.018-0.484,0.257-0.466,0.532l0.167,2.533C21.184,28.795,21.402,29,21.665,29
			h4.833c0.264,0,0.482-0.205,0.501-0.468L27.541,20c0.438-0.01,0.809-0.172,1.075-0.47C28.919,19.191,29.05,18.702,28.987,18.153z
			 M23.998,7c1.654,0,3-1.346,3-3s-1.346-3-3-3s-3,1.346-3,3S22.344,7,23.998,7z M23.998,2c1.103,0,2,0.897,2,2c0,1.103-0.897,2-2,2
			c-1.103,0-2-0.897-2-2C21.998,2.897,22.895,2,23.998,2z M20.735,16.739l-0.827-5.843C19.717,9.245,18.401,8,16.845,8H13.15
			c-1.556,0-2.872,1.244-3.058,2.862l-1.083,5.889c-0.094,0.806,0.479,1.523,1.167,1.875l-0.922,4.779
			c-0.028,0.146,0.01,0.298,0.105,0.413C9.454,23.934,9.596,24,9.745,24h2.232l1.026,5.59c0.044,0.238,0.251,0.41,0.492,0.41h3.003
			c0.241,0,0.448-0.172,0.494-0.41L18.018,24h2.232c0.15,0,0.291-0.067,0.386-0.182c0.095-0.115,0.133-0.267,0.105-0.413
			l-0.924-4.79C20.446,18.252,20.825,17.519,20.735,16.739z M18.756,18.408L19.642,23h-2.043c-0.242,0-0.449,0.173-0.492,0.41
			L16.081,29h-2.17l-1.026-5.589c-0.044-0.238-0.251-0.41-0.492-0.41H10.35l0.886-4.592c0.05-0.259-0.11-0.513-0.365-0.579
			c-0.398-0.103-0.921-0.52-0.875-0.93l1.083-5.889c0.132-1.146,1.022-2.01,2.069-2.01h3.695c1.048,0,1.937,0.864,2.071,2.022
			l0.827,5.843c0.051,0.451-0.209,0.856-0.62,0.963C18.865,17.896,18.706,18.149,18.756,18.408z"/>
	</g>
</g>
</svg>
