<?xml version="1.0" encoding="iso-8859-1"?>
<!-- Generator: Adobe Illustrator 19.0.0, SVG Export Plug-In . SVG Version: 6.00 Build 0)  -->
<svg version="1.1" id="Layer_1" xmlns="http://www.w3.org/2000/svg" xmlns:xlink="http://www.w3.org/1999/xlink" x="0px" y="0px"
	 viewBox="0 0 30 30" style="enable-background:new 0 0 30 30;" xml:space="preserve">
<g>
	<g>
		<path d="M24.499,21h3c0.276,0,0.5-0.224,0.5-0.5v-3c0-0.276-0.224-0.5-0.5-0.5s-0.5,0.224-0.5,0.5V20h-2.5
			c-0.276,0-0.5,0.224-0.5,0.5S24.223,21,24.499,21z M24.499,1h2.5v2.5c0,0.276,0.224,0.5,0.5,0.5s0.5-0.224,0.5-0.5v-3
			c0-0.276-0.224-0.5-0.5-0.5h-3c-0.276,0-0.5,0.224-0.5,0.5S24.223,1,24.499,1z M24.732,22.748l-4.906-1.227l-0.448-1.793
			c1.322-1.283,2.222-3.073,2.468-4.904c0.707-0.162,1.26-0.753,1.354-1.498l0.315-2.521c0.062-0.496-0.091-0.996-0.419-1.372
			c-0.214-0.245-0.489-0.423-0.794-0.521l0.123-2.521l0.505-0.504c0.678-0.722,1.238-1.961,0.054-3.769
			C22.064,0.713,20.494,0,18.317,0c-0.87,0-2.881,0-4.737,1.263C8.285,1.362,7.566,3.798,7.566,6.174
			c0,0.589,0.151,1.956,0.24,2.705C7.463,8.965,7.15,9.152,6.913,9.422C6.579,9.8,6.422,10.305,6.485,10.806L6.8,13.327
			c0.1,0.796,0.726,1.416,1.502,1.524c0.244,1.764,1.098,3.501,2.348,4.768l-0.476,1.903l-4.906,1.227
			c-3.103,0.775-5.269,3.55-5.269,6.751c0,0.276,0.224,0.5,0.5,0.5h29c0.276,0,0.5-0.227,0.502-0.504
			C30.001,26.298,27.835,23.523,24.732,22.748z M1.02,29c0.208-2.525,1.996-4.658,4.491-5.276l5.197-1.3
			c0.179-0.045,0.319-0.184,0.364-0.364l0.618-2.473c0.044-0.175-0.011-0.361-0.144-0.485c-1.297-1.217-2.155-2.999-2.296-4.769
			c-0.02-0.26-0.237-0.46-0.498-0.46H8.547c-0.383,0-0.707-0.286-0.755-0.667l-0.315-2.521c-0.027-0.22,0.039-0.433,0.185-0.599
			c0.146-0.165,0.349-0.257,0.57-0.257h0.131c0.144,0,0.28-0.062,0.375-0.169c0.095-0.109,0.139-0.251,0.121-0.394
			c-0.003-0.024-0.294-2.338-0.294-3.09c0-2.035,0.397-3.865,5.179-3.913c0.102-0.001,0.203-0.033,0.286-0.094
			c1.437-1.028,2.973-1.167,4.286-1.167c1.818,0,3.107,0.561,3.831,1.665c0.885,1.355,0.494,2.067,0.064,2.525l-0.631,0.63
			c-0.088,0.088-0.14,0.205-0.146,0.329l-0.153,3.155c-0.007,0.136,0.042,0.268,0.135,0.367c0.093,0.098,0.222,0.155,0.358,0.157
			c0.22,0.003,0.421,0.096,0.566,0.262c0.144,0.164,0.208,0.374,0.181,0.59l-0.315,2.521c-0.047,0.381-0.372,0.667-0.816,0.667
			c-0.261,0-0.477,0.2-0.498,0.461c-0.145,1.825-1.045,3.642-2.406,4.863c-0.137,0.123-0.196,0.313-0.151,0.493l0.593,2.369
			c0.045,0.179,0.184,0.319,0.364,0.364l5.197,1.3c2.493,0.622,4.28,2.754,4.49,5.28H1.02z M2.499,4c0.276,0,0.5-0.224,0.5-0.5V1
			h2.5c0.276,0,0.5-0.224,0.5-0.5S5.775,0,5.499,0h-3c-0.276,0-0.5,0.224-0.5,0.5v3C1.999,3.776,2.223,4,2.499,4z M2.499,21h3
			c0.276,0,0.5-0.224,0.5-0.5S5.775,20,5.499,20h-2.5v-2.5c0-0.276-0.224-0.5-0.5-0.5s-0.5,0.224-0.5,0.5v3
			C1.999,20.776,2.223,21,2.499,21z"/>
	</g>
</g>
</svg>
