<?xml version="1.0" encoding="iso-8859-1"?>
<!-- Generator: Adobe Illustrator 19.0.0, SVG Export Plug-In . SVG Version: 6.00 Build 0)  -->
<svg version="1.1" id="Layer_1" xmlns="http://www.w3.org/2000/svg" xmlns:xlink="http://www.w3.org/1999/xlink" x="0px" y="0px"
	 viewBox="0 0 30 30" style="enable-background:new 0 0 30 30;" xml:space="preserve">
<g>
	<g>
		<path d="M18.483,18.624l-2.715-0.679l-0.239-0.958c0.816-0.825,1.377-1.94,1.558-3.087c0.471-0.155,0.829-0.57,0.893-1.085
			l0.204-1.63c0.047-0.371-0.067-0.745-0.313-1.026c-0.129-0.148-0.287-0.263-0.463-0.34l0.069-1.434l0.282-0.283
			c0.482-0.512,0.882-1.389,0.054-2.654c-0.629-0.962-1.694-1.449-3.165-1.449c-0.572,0-1.887,0-3.119,0.818
			C8.001,4.899,7.52,6.553,7.52,8.168c0,0.357,0.081,1.12,0.139,1.625C7.462,9.868,7.285,9.99,7.142,10.151
			c-0.25,0.283-0.366,0.659-0.319,1.034l0.204,1.63c0.068,0.55,0.472,0.986,0.99,1.114c0.18,1.101,0.712,2.177,1.479,2.985
			l-0.258,1.032l-2.715,0.679c-0.268,0.066-0.43,0.338-0.364,0.606c0.066,0.267,0.341,0.429,0.606,0.363l3.006-0.752
			c0.179-0.045,0.319-0.185,0.364-0.364l0.399-1.598c0.044-0.176-0.011-0.361-0.144-0.486c-0.807-0.758-1.341-1.867-1.429-2.968
			c-0.02-0.26-0.237-0.46-0.498-0.46H8.33c-0.159,0-0.293-0.119-0.313-0.276l-0.204-1.63c-0.016-0.124,0.042-0.209,0.077-0.249
			c0.035-0.04,0.112-0.106,0.32-0.106c0.144,0,0.28-0.061,0.375-0.169c0.095-0.107,0.139-0.25,0.121-0.393
			C8.654,9.727,8.518,8.561,8.518,8.167c0-1.27,0.238-2.324,3.173-2.353c0.102-0.001,0.202-0.033,0.286-0.093
			c0.889-0.636,1.848-0.722,2.669-0.722c1.112,0,1.895,0.336,2.329,0.997c0.502,0.768,0.309,1.15,0.064,1.41l-0.408,0.408
			c-0.088,0.088-0.14,0.205-0.146,0.33l-0.099,2.04c-0.007,0.136,0.042,0.268,0.135,0.367s0.222,0.156,0.358,0.157
			c0.123,0.002,0.2,0.068,0.235,0.108c0.034,0.04,0.089,0.124,0.074,0.245l-0.204,1.63c-0.02,0.157-0.155,0.276-0.353,0.276
			c-0.261,0-0.477,0.2-0.498,0.46c-0.09,1.135-0.649,2.267-1.497,3.027c-0.137,0.123-0.196,0.313-0.151,0.493l0.383,1.532
			c0.045,0.179,0.184,0.32,0.364,0.364l3.006,0.752c0.04,0.01,0.081,0.015,0.121,0.015c0.225,0,0.429-0.151,0.488-0.38
			C18.914,18.962,18.752,18.691,18.483,18.624z M29.853,29.147l-8.182-8.182C23.731,18.736,25,15.767,25,12.5
			C25,5.607,19.393,0,12.5,0S0,5.607,0,12.5S5.607,25,12.5,25c3.267,0,6.235-1.269,8.464-3.328l8.182,8.182
			C29.244,29.951,29.372,30,29.5,30s0.256-0.049,0.353-0.146C30.048,29.659,30.048,29.342,29.853,29.147z M12.5,24
			C6.159,24,1,18.841,1,12.5S6.159,1,12.5,1S24,6.159,24,12.5S18.841,24,12.5,24z"/>
	</g>
</g>
</svg>
