<?xml version="1.0" encoding="iso-8859-1"?>
<!-- Generator: Adobe Illustrator 19.0.0, SVG Export Plug-In . SVG Version: 6.00 Build 0)  -->
<svg version="1.1" id="Layer_1" xmlns="http://www.w3.org/2000/svg" xmlns:xlink="http://www.w3.org/1999/xlink" x="0px" y="0px"
	 viewBox="0 0 24 24" style="enable-background:new 0 0 24 24;" xml:space="preserve">
<g>
	<g>
		<path d="M18.5,24h-13C2.467,24,0,21.533,0,18.5v-13C0,2.467,2.467,0,5.5,0h13C21.533,0,24,2.467,24,5.5v13
			C24,21.533,21.533,24,18.5,24z M5.5,1C3.019,1,1,3.019,1,5.5v13C1,20.981,3.019,23,5.5,23h13c2.481,0,4.5-2.019,4.5-4.5v-13
			C23,3.019,20.981,1,18.5,1H5.5z"/>
	</g>
	<g>
		<g>
			<path d="M17.5,22c-0.827,0-1.5-0.673-1.5-1.5V19H8v1.5C8,21.327,7.327,22,6.5,22S5,21.327,5,20.5V19H4.5
				C4.224,19,4,18.776,4,18.5v-5C4,13.224,4.224,13,4.5,13h0.662l1.623-4.057C7.014,8.37,7.56,8,8.177,8h7.646
				c0.617,0,1.164,0.37,1.393,0.942L18.838,13H19.5c0.276,0,0.5,0.224,0.5,0.5v5c0,0.276-0.224,0.5-0.5,0.5H19v1.5
				C19,21.327,18.327,22,17.5,22z M7.5,18h9c0.276,0,0.5,0.224,0.5,0.5v2c0,0.276,0.224,0.5,0.5,0.5s0.5-0.224,0.5-0.5v-2
				c0-0.276,0.224-0.5,0.5-0.5H19v-4h-0.5c-0.205,0-0.388-0.125-0.464-0.314l-1.749-4.372C16.211,9.124,16.028,9,15.823,9H8.177
				C7.972,9,7.789,9.124,7.713,9.314l-1.749,4.371C5.888,13.875,5.705,14,5.5,14H5v4h0.5C5.776,18,6,18.224,6,18.5v2
				C6,20.776,6.224,21,6.5,21S7,20.776,7,20.5v-2C7,18.224,7.224,18,7.5,18z"/>
		</g>
		<g>
			<path d="M7.5,17C6.673,17,6,16.327,6,15.5S6.673,14,7.5,14S9,14.673,9,15.5S8.327,17,7.5,17z M7.5,15C7.224,15,7,15.224,7,15.5
				S7.224,16,7.5,16S8,15.776,8,15.5S7.776,15,7.5,15z"/>
		</g>
		<g>
			<path d="M16.5,17c-0.827,0-1.5-0.673-1.5-1.5s0.673-1.5,1.5-1.5s1.5,0.673,1.5,1.5S17.327,17,16.5,17z M16.5,15
				c-0.276,0-0.5,0.224-0.5,0.5s0.224,0.5,0.5,0.5s0.5-0.224,0.5-0.5S16.776,15,16.5,15z"/>
		</g>
	</g>
	<g>
		<path d="M7.5,7C6.122,7,5,5.878,5,4.5S6.122,2,7.5,2S10,3.122,10,4.5S8.878,7,7.5,7z M7.5,3C6.673,3,6,3.673,6,4.5S6.673,6,7.5,6
			S9,5.327,9,4.5S8.327,3,7.5,3z"/>
	</g>
	<g>
		<path d="M18.5,5h-9C9.224,5,9,4.776,9,4.5S9.224,4,9.5,4h9C18.776,4,19,4.224,19,4.5S18.776,5,18.5,5z"/>
	</g>
	<g>
		<path d="M17.5,7C17.224,7,17,6.776,17,6.5v-2C17,4.224,17.224,4,17.5,4S18,4.224,18,4.5v2C18,6.776,17.776,7,17.5,7z"/>
	</g>
	<g>
		<path d="M15.5,7C15.224,7,15,6.776,15,6.5v-2C15,4.224,15.224,4,15.5,4S16,4.224,16,4.5v2C16,6.776,15.776,7,15.5,7z"/>
	</g>
</g>
<g>
</g>
<g>
</g>
<g>
</g>
<g>
</g>
<g>
</g>
<g>
</g>
<g>
</g>
<g>
</g>
<g>
</g>
<g>
</g>
<g>
</g>
<g>
</g>
<g>
</g>
<g>
</g>
<g>
</g>
</svg>
