<?xml version="1.0" encoding="iso-8859-1"?>
<!-- Generator: Adobe Illustrator 19.0.0, SVG Export Plug-In . SVG Version: 6.00 Build 0)  -->
<svg version="1.1" id="Layer_1" xmlns="http://www.w3.org/2000/svg" xmlns:xlink="http://www.w3.org/1999/xlink" x="0px" y="0px"
	 viewBox="0 0 24 24" style="enable-background:new 0 0 24 24;" xml:space="preserve">
<g>
	<g>
		<path d="M22.5,22h-18c-0.141,0-0.274-0.059-0.369-0.163c-0.095-0.104-0.142-0.243-0.129-0.383l1-11C5.025,10.197,5.241,10,5.5,10
			h16c0.259,0,0.475,0.197,0.498,0.455l1,11c0.013,0.14-0.034,0.279-0.129,0.383C22.774,21.941,22.641,22,22.5,22z M5.048,21h16.904
			l-0.909-10H5.957L5.048,21z"/>
	</g>
	<g>
		<path d="M7.001,22c-0.013,0-0.024,0-0.036-0.001c-0.276-0.02-0.483-0.259-0.464-0.534l0.5-7c0.021-0.276,0.286-0.488,0.534-0.463
			c0.276,0.02,0.483,0.259,0.464,0.534l-0.5,7C7.479,21.799,7.261,22,7.001,22z"/>
	</g>
	<g>
		<path d="M10.001,22c-0.013,0-0.024,0-0.036-0.001c-0.276-0.02-0.483-0.259-0.464-0.534l0.5-7c0.021-0.276,0.283-0.488,0.534-0.463
			c0.276,0.02,0.483,0.259,0.464,0.534l-0.5,7C10.479,21.799,10.261,22,10.001,22z"/>
	</g>
	<g>
		<path d="M19.999,21.5c-0.259,0-0.478-0.199-0.497-0.461l-0.5-6.5c-0.021-0.275,0.185-0.516,0.46-0.537
			c0.246-0.027,0.516,0.184,0.536,0.46l0.5,6.5c0.021,0.275-0.185,0.516-0.46,0.537C20.025,21.5,20.013,21.5,19.999,21.5z"/>
	</g>
	<g>
		<path d="M16.999,22c-0.26,0-0.479-0.201-0.498-0.464l-0.5-7c-0.02-0.275,0.188-0.515,0.464-0.534
			c0.252-0.026,0.514,0.187,0.534,0.463l0.5,7c0.02,0.275-0.188,0.515-0.464,0.534C17.023,22,17.012,22,16.999,22z"/>
	</g>
	<g>
		<path d="M13.5,22c-0.276,0-0.5-0.224-0.5-0.5v-7c0-0.276,0.224-0.5,0.5-0.5s0.5,0.224,0.5,0.5v7C14,21.776,13.776,22,13.5,22z"/>
	</g>
	<g>
		<path d="M19.5,11h-12c-0.189,0-0.362-0.107-0.447-0.276l-1-2C5.976,8.569,5.983,8.385,6.074,8.237C6.166,8.09,6.327,8,6.5,8h14
			c0.173,0,0.334,0.09,0.426,0.237c0.091,0.147,0.099,0.332,0.021,0.486l-1,2C19.862,10.893,19.689,11,19.5,11z M7.809,10h11.383
			l0.5-1H7.309L7.809,10z"/>
	</g>
	<g>
		<path d="M19.5,9C19.224,9,19,8.776,19,8.5C19,5.467,16.532,3,13.5,3S8,5.467,8,8.5C8,8.776,7.776,9,7.5,9S7,8.776,7,8.5
			C7,4.916,9.916,2,13.5,2S20,4.916,20,8.5C20,8.776,19.776,9,19.5,9z"/>
	</g>
	<g>
		<path d="M14.5,3C14.224,3,14,2.776,14,2.5v-1C14,1.224,13.775,1,13.5,1S13,1.224,13,1.5v1C13,2.776,12.776,3,12.5,3
			S12,2.776,12,2.5v-1C12,0.673,12.673,0,13.5,0S15,0.673,15,1.5v1C15,2.776,14.776,3,14.5,3z"/>
	</g>
	<g>
		<path d="M6.5,24C5.673,24,5,23.327,5,22.5S5.673,21,6.5,21S8,21.673,8,22.5S7.327,24,6.5,24z M6.5,22C6.225,22,6,22.224,6,22.5
			S6.225,23,6.5,23S7,22.776,7,22.5S6.775,22,6.5,22z"/>
	</g>
	<g>
		<path d="M20.5,24c-0.827,0-1.5-0.673-1.5-1.5s0.673-1.5,1.5-1.5s1.5,0.673,1.5,1.5S21.327,24,20.5,24z M20.5,22
			c-0.275,0-0.5,0.224-0.5,0.5s0.225,0.5,0.5,0.5s0.5-0.224,0.5-0.5S20.775,22,20.5,22z"/>
	</g>
	<g>
		<path d="M4.5,14h-1C3.224,14,3,13.776,3,13.5v-3C3,9.673,2.327,9,1.5,9C1.224,9,1,8.776,1,8.5S1.224,8,1.5,8
			C2.879,8,4,9.122,4,10.5V13h0.5C4.776,13,5,13.224,5,13.5S4.776,14,4.5,14z"/>
	</g>
</g>
<g>
</g>
<g>
</g>
<g>
</g>
<g>
</g>
<g>
</g>
<g>
</g>
<g>
</g>
<g>
</g>
<g>
</g>
<g>
</g>
<g>
</g>
<g>
</g>
<g>
</g>
<g>
</g>
<g>
</g>
</svg>
