<?xml version="1.0" encoding="iso-8859-1"?>
<!-- Generator: Adobe Illustrator 19.0.0, SVG Export Plug-In . SVG Version: 6.00 Build 0)  -->
<svg version="1.1" id="Layer_1" xmlns="http://www.w3.org/2000/svg" xmlns:xlink="http://www.w3.org/1999/xlink" x="0px" y="0px"
	 viewBox="0 0 24 24" style="enable-background:new 0 0 24 24;" xml:space="preserve">
<g>
	<g>
		<path d="M3.024,18.5c0-0.276-0.224-0.5-0.5-0.5s-0.5,0.224-0.5,0.5c0,1.93,1.57,3.5,3.5,3.5c0.276,0,0.5-0.224,0.5-0.5
			S5.8,21,5.524,21C4.146,21,3.024,19.878,3.024,18.5z M20.074,13.261c-0.254-0.08-0.523,0.055-0.615,0.304
			c-0.052,0.142-0.249,0.281-0.52,0.362c-0.188-3.06-1.76-5.504-3.173-7.668c-1.077-1.65-2.023-3.105-2.21-4.555l0.81,0.27
			C14.419,1.992,14.472,2,14.524,2c0.209,0,0.404-0.132,0.474-0.342c0.087-0.262-0.054-0.545-0.316-0.632l-3-1
			c-0.263-0.088-0.545,0.054-0.632,0.316c-0.087,0.262,0.054,0.545,0.316,0.632l0.604,0.201C9.775,3.15,5.398,9.146,5.063,13.928
			c-0.272-0.082-0.47-0.221-0.522-0.363c-0.092-0.248-0.364-0.384-0.615-0.304c-2.334,0.713-3.902,2.818-3.902,5.239
			c0,3.033,2.467,5.5,5.5,5.5c3.033,0,5.5-2.467,5.499-5.5c0-2.421-1.568-4.527-3.902-5.239c-0.255-0.08-0.523,0.056-0.615,0.305
			c-0.046,0.127-0.213,0.251-0.441,0.335c0.369-4.618,4.82-10.264,6.526-11.946c0.253,1.639,1.266,3.207,2.338,4.851
			c1.329,2.036,2.806,4.332,3.007,7.095c-0.229-0.084-0.396-0.208-0.443-0.336c-0.092-0.248-0.362-0.384-0.615-0.304
			c-2.334,0.713-3.902,2.818-3.902,5.239c0,3.033,2.467,5.5,5.5,5.5c3.032,0,5.5-2.467,5.5-5.5
			C23.976,16.079,22.408,13.973,20.074,13.261z M7.185,14.342c1.713,0.678,2.839,2.305,2.839,4.158c0,2.481-2.019,4.5-4.5,4.5
			c-2.481,0-4.5-2.019-4.5-4.5c0-1.853,1.126-3.48,2.839-4.158C4.223,14.748,4.834,15,5.524,15S6.826,14.748,7.185,14.342z
			 M18.476,23c-2.481,0-4.5-2.019-4.5-4.5c0-1.853,1.127-3.48,2.84-4.158c0.359,0.406,0.97,0.658,1.66,0.658
			s1.302-0.252,1.661-0.658c1.713,0.678,2.839,2.305,2.839,4.158C22.976,20.981,20.957,23,18.476,23z M18.476,21
			c-1.378,0-2.5-1.122-2.5-2.5c0-0.276-0.224-0.5-0.5-0.5s-0.5,0.224-0.5,0.5c0,1.93,1.57,3.5,3.5,3.5c0.276,0,0.5-0.224,0.5-0.5
			S18.752,21,18.476,21z"/>
	</g>
</g>
</svg>
