<?xml version="1.0" encoding="iso-8859-1"?>
<!-- Generator: Adobe Illustrator 19.0.0, SVG Export Plug-In . SVG Version: 6.00 Build 0)  -->
<svg version="1.1" id="Layer_1" xmlns="http://www.w3.org/2000/svg" xmlns:xlink="http://www.w3.org/1999/xlink" x="0px" y="0px"
	 viewBox="0 0 24 24" style="enable-background:new 0 0 24 24;" xml:space="preserve">
<g>
	<g>
		<path d="M17.918,11.52c-0.601-0.751-1.168-1.46-1.45-2.198c-0.188-0.493-0.322-1.021-0.45-1.532
			c-0.314-1.244-0.659-2.602-1.888-3.305c1.344-0.673,2.369-2.004,2.369-3.985c0-0.276-0.224-0.5-0.5-0.5
			c-1.559,0-3.114,0.768-3.923,2.225c-0.434-1.021-1.137-1.749-1.822-2.155C10.016-0.071,9.71,0.008,9.569,0.245
			C9.428,0.483,9.506,0.789,9.744,0.93c0.761,0.451,1.618,1.518,1.734,3.092C8.877,4.241,8.402,6.119,7.982,7.79
			C7.853,8.301,7.72,8.829,7.532,9.322c-0.282,0.739-0.849,1.448-1.45,2.198c-1.197,1.496-2.554,3.191-2.583,5.98
			c0,3.584,2.916,6.5,6.5,6.5c0.673,0,1.345-0.108,2-0.321c0.655,0.213,1.327,0.321,2,0.321c3.584,0,6.5-2.916,6.502-6.5v-0.005
			C20.472,14.712,19.115,13.016,17.918,11.52z M15.467,1.036c-0.22,1.801-1.553,2.738-2.937,2.928
			C12.751,2.162,14.084,1.226,15.467,1.036z M13.999,23c-0.616,0-1.233-0.108-1.833-0.32c-0.054-0.019-0.11-0.029-0.167-0.029
			s-0.113,0.01-0.169,0.029C11.23,22.893,10.613,23,9.997,23c-3.033,0-5.5-2.468-5.5-5.495c0.025-2.438,1.214-3.924,2.364-5.361
			c0.651-0.813,1.266-1.582,1.604-2.466C8.674,9.131,8.814,8.573,8.95,8.034C9.394,6.272,9.714,5,11.998,5s2.604,1.272,3.048,3.034
			c0.136,0.539,0.276,1.097,0.485,1.644c0.338,0.884,0.953,1.653,1.604,2.466c1.15,1.436,2.338,2.921,2.364,5.358
			C19.498,20.534,17.031,23,13.999,23z M9.999,21c-1.93,0-3.5-1.57-3.5-3.5c0-0.276-0.224-0.5-0.5-0.5s-0.5,0.224-0.5,0.5
			c0,2.481,2.019,4.5,4.5,4.5c0.276,0,0.5-0.224,0.5-0.5S10.275,21,9.999,21z"/>
	</g>
</g>
</svg>
