<?xml version="1.0" encoding="iso-8859-1"?>
<!-- Generator: Adobe Illustrator 19.0.0, SVG Export Plug-In . SVG Version: 6.00 Build 0)  -->
<svg version="1.1" id="Layer_1" xmlns="http://www.w3.org/2000/svg" xmlns:xlink="http://www.w3.org/1999/xlink" x="0px" y="0px"
	 viewBox="0 0 24 24" style="enable-background:new 0 0 24 24;" xml:space="preserve">
<g>
	<g>
		<path d="M17.429,4.47c-0.169-0.067-0.361-0.038-0.503,0.079C16.654,4.773,15.954,4.999,15.007,5
			c-0.001-0.076-0.001-0.151-0.003-0.228c-0.03-1.708,0.025-2.81,0.868-3.192l0.774,0.774C16.744,2.452,16.872,2.501,17,2.501
			s0.256-0.049,0.353-0.146c0.195-0.195,0.195-0.512,0-0.707l-1.5-1.5c-0.195-0.195-0.512-0.195-0.707,0
			c-0.193,0.193-0.193,0.503-0.006,0.698c-0.188,0.125-0.345,0.274-0.477,0.443c-1.92-1.448-5.349-1.708-8.449-0.603
			C3.383,1.696,1.486,3.622,1.01,5.97C0.973,6.153,1.042,6.343,1.189,6.46c1.297,1.034,3.228,1.583,5.229,1.583
			c0.787,0,1.582-0.094,2.357-0.267C7.64,9.54,7,11.727,7,14.001c0,5.514,3.589,10,8,10s8-4.486,8-10
			C23,9.622,20.761,5.792,17.429,4.47z M14.005,4.792c0.001,0.036,0.001,0.07,0.001,0.106c-0.13-0.027-0.246-0.056-0.352-0.09
			c0.121-0.16,0.238-0.322,0.345-0.492C14.001,4.477,14.002,4.637,14.005,4.792z M2.063,5.863c0.504-1.86,2.122-3.392,4.488-4.237
			C9.23,0.671,12.267,0.829,13.94,1.98c-0.26,1.01-0.751,1.899-1.432,2.644c-0.009,0.009-0.021,0.013-0.03,0.023
			c-0.682,0.735-1.542,1.315-2.556,1.725C9.919,6.373,9.917,6.376,9.914,6.378c-0.096,0.039-0.186,0.084-0.286,0.12
			C7.041,7.431,3.923,7.157,2.063,5.863z M15,23.001c-3.859,0-7-4.038-7-9c0-2.571,0.874-5.022,2.403-6.745
			c0.987-0.413,1.837-0.966,2.536-1.644c0.377,0.173,0.855,0.291,1.377,0.348c0.06,0.026,0.127,0.041,0.197,0.041
			c0.032,0,0.059-0.012,0.089-0.018C14.734,5.991,14.865,6.001,15,6.001c0.096,0,0.187-0.01,0.281-0.014
			C17.154,7.62,18,11.409,18,14.501c0,0.276,0.224,0.5,0.5,0.5s0.5-0.224,0.5-0.5c0-2.802-0.67-6.561-2.488-8.694
			c0.297-0.081,0.57-0.179,0.788-0.306c2.822,1.26,4.7,4.636,4.7,8.5C22,18.963,18.859,23.001,15,23.001z"/>
	</g>
</g>
</svg>
