<?xml version="1.0" encoding="iso-8859-1"?>
<!-- Generator: Adobe Illustrator 19.0.0, SVG Export Plug-In . SVG Version: 6.00 Build 0)  -->
<svg version="1.1" id="Layer_1" xmlns="http://www.w3.org/2000/svg" xmlns:xlink="http://www.w3.org/1999/xlink" x="0px" y="0px"
	 viewBox="0 0 24 24" style="enable-background:new 0 0 24 24;" xml:space="preserve">
<g>
	<path d="M17.5,13c-3.033,0-5.5,2.467-5.5,5.5s2.467,5.5,5.5,5.5s5.5-2.467,5.5-5.5S20.533,13,17.5,13z M17.5,23
		c-2.481,0-4.5-2.019-4.5-4.5s2.019-4.5,4.5-4.5s4.5,2.019,4.5,4.5S19.981,23,17.5,23z"/>
	<path d="M20.852,16.147c-0.195-0.195-0.512-0.195-0.707,0l-3.646,3.646l-1.646-1.646c-0.195-0.195-0.512-0.195-0.707,0
		s-0.195,0.512,0,0.707l2,2C16.244,20.951,16.372,21,16.5,21s0.256-0.049,0.352-0.146l4-4
		C21.047,16.659,21.047,16.342,20.852,16.147z"/>
	<path d="M14,3.5c0-0.651-0.419-1.201-1-1.408V1h3v1.092c-0.581,0.207-1,0.757-1,1.408C15,4.327,15.673,5,16.5,5S18,4.327,18,3.5
		c0-0.651-0.419-1.201-1-1.408V1h1.5C18.776,1,19,1.224,19,1.5v10c0,0.276,0.224,0.5,0.5,0.5s0.5-0.224,0.5-0.5v-10
		C20,0.673,19.327,0,18.5,0h-16C1.673,0,1,0.673,1,1.5v19C1,21.327,1.673,22,2.5,22h8c0.276,0,0.5-0.224,0.5-0.5S10.776,21,10.5,21
		h-8C2.224,21,2,20.776,2,20.5v-19C2,1.224,2.224,1,2.5,1H4v1.092C3.419,2.299,3,2.849,3,3.5C3,4.327,3.673,5,4.5,5S6,4.327,6,3.5
		c0-0.651-0.419-1.201-1-1.408V1h3v1.092C7.419,2.299,7,2.849,7,3.5C7,4.327,7.673,5,8.5,5S10,4.327,10,3.5
		c0-0.651-0.419-1.201-1-1.408V1h3v1.092c-0.581,0.207-1,0.757-1,1.408C11,4.327,11.673,5,12.5,5S14,4.327,14,3.5z M16.5,4
		C16.224,4,16,3.776,16,3.5S16.224,3,16.5,3S17,3.224,17,3.5S16.776,4,16.5,4z M4.5,4C4.224,4,4,3.776,4,3.5S4.224,3,4.5,3
		S5,3.224,5,3.5S4.776,4,4.5,4z M8.5,4C8.224,4,8,3.776,8,3.5S8.224,3,8.5,3S9,3.224,9,3.5S8.776,4,8.5,4z M12,3.5
		C12,3.224,12.224,3,12.5,3S13,3.224,13,3.5S12.776,4,12.5,4S12,3.776,12,3.5z"/>
</g>
</svg>
