<?xml version="1.0" encoding="iso-8859-1"?>
<!-- Generator: Adobe Illustrator 19.0.0, SVG Export Plug-In . SVG Version: 6.00 Build 0)  -->
<svg version="1.1" id="Layer_1" xmlns="http://www.w3.org/2000/svg" xmlns:xlink="http://www.w3.org/1999/xlink" x="0px" y="0px"
	 viewBox="0 0 24 24" style="enable-background:new 0 0 24 24;" xml:space="preserve">
<g>
	<path d="M17,13c-3.032,0-5.5,2.467-5.5,5.5S13.968,24,17,24s5.5-2.467,5.5-5.5S20.032,13,17,13z M17,23c-2.481,0-4.5-2.019-4.5-4.5
		S14.519,14,17,14s4.5,2.019,4.5,4.5S19.481,23,17,23z"/>
	<path d="M18.645,19.147L17.5,20.292V15.5c0-0.276-0.224-0.5-0.5-0.5s-0.5,0.224-0.5,0.5v4.794l-1.147-1.147
		c-0.195-0.195-0.512-0.195-0.707,0s-0.195,0.512,0,0.707l2,2c0.017,0.016,0.038,0.023,0.056,0.037
		c0.034,0.026,0.067,0.054,0.107,0.07C16.87,21.987,16.935,22,17,22s0.13-0.013,0.191-0.039c0.062-0.026,0.118-0.064,0.165-0.111
		l1.996-1.996c0.195-0.195,0.195-0.512,0-0.707C19.157,18.952,18.84,18.952,18.645,19.147z"/>
	<path d="M12.5,23H3c-0.275,0-0.5-0.224-0.5-0.5v-19C2.5,3.224,2.725,3,3,3h2.5v0.5C5.5,3.776,5.724,4,6,4h9
		c0.276,0,0.5-0.224,0.5-0.5V3H18c0.275,0,0.5,0.224,0.5,0.5v8c0,0.276,0.224,0.5,0.5,0.5s0.5-0.224,0.5-0.5v-8
		C19.5,2.673,18.827,2,18,2h-2.592C15.201,1.419,14.651,1,14,1h-1.774c-0.354-0.61-1.009-1-1.726-1S9.128,0.39,8.774,1H7
		C6.349,1,5.799,1.419,5.592,2H3C2.173,2,1.5,2.673,1.5,3.5v19C1.5,23.327,2.173,24,3,24h9.5c0.276,0,0.5-0.224,0.5-0.5
		S12.776,23,12.5,23z M7,2h2.091c0.212,0,0.401-0.133,0.471-0.332C9.705,1.269,10.082,1,10.5,1s0.795,0.269,0.937,0.668
		C11.508,1.867,11.696,2,11.908,2H14c0.275,0,0.5,0.224,0.5,0.5V3h-8V2.5C6.5,2.224,6.725,2,7,2z"/>
</g>
</svg>
