<?xml version="1.0" encoding="iso-8859-1"?>
<!-- Generator: Adobe Illustrator 19.0.0, SVG Export Plug-In . SVG Version: 6.00 Build 0)  -->
<svg version="1.1" id="Layer_1" xmlns="http://www.w3.org/2000/svg" xmlns:xlink="http://www.w3.org/1999/xlink" x="0px" y="0px"
	 viewBox="0 0 24 24" style="enable-background:new 0 0 24 24;" xml:space="preserve">
<path d="M21.5,1H20V0.5C20,0.224,19.776,0,19.5,0S19,0.224,19,0.5V1h-4V0.5C15,0.224,14.776,0,14.5,0S14,0.224,14,0.5V1h-4V0.5
	C10,0.224,9.776,0,9.5,0S9,0.224,9,0.5V1H5V0.5C5,0.224,4.776,0,4.5,0S4,0.224,4,0.5V1H2.5C1.122,1,0,2.122,0,3.5v18
	C0,22.878,1.122,24,2.5,24h19c1.378,0,2.5-1.122,2.5-2.5v-18C24,2.122,22.878,1,21.5,1z M2.5,2H4v1.092C3.419,3.299,3,3.849,3,4.5
	C3,5.327,3.673,6,4.5,6S6,5.327,6,4.5c0-0.651-0.419-1.201-1-1.408V2h4v1.092C8.419,3.299,8,3.849,8,4.5C8,5.327,8.673,6,9.5,6
	S11,5.327,11,4.5c0-0.651-0.419-1.201-1-1.408V2h4v1.092c-0.581,0.207-1,0.757-1,1.408C13,5.327,13.673,6,14.5,6S16,5.327,16,4.5
	c0-0.651-0.419-1.201-1-1.408V2h4v1.092c-0.581,0.207-1,0.757-1,1.408C18,5.327,18.673,6,19.5,6S21,5.327,21,4.5
	c0-0.651-0.419-1.201-1-1.408V2h1.5C22.327,2,23,2.673,23,3.5V7H1V3.5C1,2.673,1.673,2,2.5,2z M4.5,4C4.776,4,5,4.224,5,4.5
	S4.776,5,4.5,5S4,4.776,4,4.5S4.224,4,4.5,4z M9.5,4C9.776,4,10,4.224,10,4.5S9.776,5,9.5,5S9,4.776,9,4.5S9.224,4,9.5,4z M14.5,4
	C14.776,4,15,4.224,15,4.5S14.776,5,14.5,5S14,4.776,14,4.5S14.224,4,14.5,4z M19.5,4C19.776,4,20,4.224,20,4.5S19.776,5,19.5,5
	S19,4.776,19,4.5S19.224,4,19.5,4z M21.5,23h-19C1.673,23,1,22.327,1,21.5V8h22v13.5C23,22.327,22.327,23,21.5,23z"/>
</svg>
