<?xml version="1.0" encoding="iso-8859-1"?>
<!-- Generator: Adobe Illustrator 19.0.0, SVG Export Plug-In . SVG Version: 6.00 Build 0)  -->
<svg version="1.1" id="Layer_1" xmlns="http://www.w3.org/2000/svg" xmlns:xlink="http://www.w3.org/1999/xlink" x="0px" y="0px"
	 viewBox="0 0 24 24" style="enable-background:new 0 0 24 24;" xml:space="preserve">
<path d="M23.232,4.974C23.728,4.479,24,3.821,24,3.12c0-1.445-1.176-2.62-2.622-2.62c-0.7,0-1.358,0.273-1.853,0.768l-1.379,1.379
	l0,0l0,0l-0.234,0.234L9.855,3.553L3.581,2.507C3.312,2.456,3.054,2.643,3.007,2.913l-3,17c-0.023,0.131,0.007,0.266,0.084,0.375
	s0.194,0.183,0.326,0.205l4.488,0.748l0.096,1.786c0.008,0.137,0.071,0.265,0.176,0.354C5.268,23.458,5.382,23.5,5.5,23.5
	c0.019,0,0.037-0.001,0.055-0.003l7.73-0.859l5.132,0.855c0.028,0.005,0.056,0.007,0.083,0.007c0.239,0,0.45-0.171,0.491-0.414
	l0.195-1.104l4.369-0.486c0.264-0.029,0.459-0.26,0.444-0.525L23.117,5.09L23.232,4.974z M20.233,1.974
	c0.306-0.307,0.713-0.475,1.147-0.475c0.893,0,1.62,0.727,1.62,1.622c0,0.433-0.169,0.84-0.475,1.146l-1.026,1.026l-2.292-2.292
	L20.233,1.974z M13.765,13.027c-0.163-0.412-0.434-0.903-0.913-1.381c-0.477-0.477-0.967-0.749-1.379-0.911L18.5,3.708L20.792,6
	L13.765,13.027z M10.872,11.577c0.323,0.094,0.801,0.302,1.274,0.776c0.474,0.474,0.683,0.953,0.777,1.275l-2.736,0.685
	L10.872,11.577z M16.817,3.976l-0.631,0.631L13.87,4.222L16.817,3.976z M5.971,22.445l-0.056-1.036l3.749,0.625L5.971,22.445z
	 M1.079,19.589L3.905,3.574l11.412,1.902l-5.171,5.171c-0.006,0.006-0.007,0.016-0.012,0.022c-0.046,0.051-0.079,0.11-0.1,0.178
	c-0.004,0.012-0.015,0.02-0.018,0.032l-1,4c-0.043,0.171,0.007,0.351,0.131,0.475C9.241,15.448,9.369,15.5,9.5,15.5
	c0.041,0,0.081-0.005,0.121-0.016l4-1c0.012-0.003,0.02-0.014,0.031-0.018c0.063-0.021,0.12-0.053,0.169-0.095
	c0.009-0.008,0.023-0.009,0.032-0.018l6.878-6.878l-2.638,14.949L1.079,19.589z M22.974,20.555l-3.607,0.401l2.596-14.714
	l0.205-0.205L22.974,20.555z"/>
</svg>
