<?xml version="1.0" encoding="iso-8859-1"?>
<!-- Generator: Adobe Illustrator 19.0.0, SVG Export Plug-In . SVG Version: 6.00 Build 0)  -->
<svg version="1.1" id="Layer_1" xmlns="http://www.w3.org/2000/svg" xmlns:xlink="http://www.w3.org/1999/xlink" x="0px" y="0px"
	 viewBox="0 0 24 24" style="enable-background:new 0 0 24 24;" xml:space="preserve">
<g>
	<path d="M20.484,19.981c-0.682,0-1.285,0.345-1.646,0.868l-4.467-2.234c0.068-0.2,0.113-0.411,0.113-0.634
		c0-0.223-0.045-0.433-0.113-0.634l4.467-2.234c0.361,0.523,0.963,0.867,1.646,0.867c1.102,0,2-0.897,2-2s-0.897-2-2-2s-2,0.897-2,2
		c0,0.062,0.013,0.121,0.018,0.182l-4.682,2.341c-0.355-0.322-0.821-0.523-1.337-0.523c-1.103,0-2,0.897-2,2c0,1.103,0.897,2,2,2
		c0.515,0,0.981-0.201,1.336-0.523l4.682,2.341c-0.006,0.061-0.018,0.12-0.018,0.182c0,1.103,0.897,2,2,2c1.102,0,2-0.897,2-2
		C22.484,20.878,21.587,19.981,20.484,19.981z M20.484,12.981c0.552,0,1,0.449,1,1s-0.448,1-1,1s-1-0.449-1-1
		S19.932,12.981,20.484,12.981z M12.484,18.981c-0.552,0-1-0.449-1-1s0.448-1,1-1s1,0.449,1,1
		C13.484,18.532,13.036,18.981,12.484,18.981z M20.484,22.981c-0.552,0-1-0.449-1-1s0.448-1,1-1s1,0.449,1,1
		C21.484,22.532,21.036,22.981,20.484,22.981z"/>
	<path d="M14.516,21.019h-11.5c-0.275,0-0.5-0.224-0.5-0.5v-19c0-0.276,0.225-0.5,0.5-0.5h1.5v1.092c-0.581,0.207-1,0.757-1,1.408
		c0,0.827,0.673,1.5,1.5,1.5s1.5-0.673,1.5-1.5c0-0.651-0.419-1.201-1-1.408V1.019h3v1.092c-0.581,0.207-1,0.757-1,1.408
		c0,0.827,0.673,1.5,1.5,1.5s1.5-0.673,1.5-1.5c0-0.651-0.419-1.201-1-1.408V1.019h3v1.092c-0.581,0.207-1,0.757-1,1.408
		c0,0.827,0.673,1.5,1.5,1.5s1.5-0.673,1.5-1.5c0-0.651-0.419-1.201-1-1.408V1.019h3v1.092c-0.581,0.207-1,0.757-1,1.408
		c0,0.827,0.673,1.5,1.5,1.5s1.5-0.673,1.5-1.5c0-0.651-0.419-1.201-1-1.408V1.019h1.5c0.275,0,0.5,0.224,0.5,0.5v9
		c0,0.276,0.224,0.5,0.5,0.5s0.5-0.224,0.5-0.5v-9c0-0.827-0.673-1.5-1.5-1.5h-16c-0.827,0-1.5,0.673-1.5,1.5v19
		c0,0.827,0.673,1.5,1.5,1.5h11.5c0.276,0,0.5-0.224,0.5-0.5S14.792,21.019,14.516,21.019z M5.016,4.019c-0.275,0-0.5-0.224-0.5-0.5
		s0.225-0.5,0.5-0.5s0.5,0.224,0.5,0.5S5.291,4.019,5.016,4.019z M9.016,4.019c-0.275,0-0.5-0.224-0.5-0.5s0.225-0.5,0.5-0.5
		s0.5,0.224,0.5,0.5S9.291,4.019,9.016,4.019z M13.016,4.019c-0.275,0-0.5-0.224-0.5-0.5s0.225-0.5,0.5-0.5s0.5,0.224,0.5,0.5
		S13.291,4.019,13.016,4.019z M17.016,4.019c-0.275,0-0.5-0.224-0.5-0.5s0.225-0.5,0.5-0.5s0.5,0.224,0.5,0.5
		S17.291,4.019,17.016,4.019z"/>
</g>
</svg>
