<?xml version="1.0" encoding="iso-8859-1"?>
<!-- Generator: Adobe Illustrator 19.0.0, SVG Export Plug-In . SVG Version: 6.00 Build 0)  -->
<svg version="1.1" id="Layer_1" xmlns="http://www.w3.org/2000/svg" xmlns:xlink="http://www.w3.org/1999/xlink" x="0px" y="0px"
	 viewBox="0 0 24 24" style="enable-background:new 0 0 24 24;" xml:space="preserve">
<g>
	<g>
		<g>
			<path d="M21.5,24c-1.674,0-2.421-0.928-3.142-1.825c-0.221-0.274-0.447-0.557-0.712-0.822C16.786,20.493,14.728,20,12,20
				s-4.786,0.493-5.646,1.354c-0.265,0.265-0.491,0.547-0.712,0.822C4.921,23.072,4.174,24,2.5,24C0,24,0,20.87,0,19
				C0,12.933,3.436,7,6,7c1.193,0,1.889,0.47,2.562,0.924C9.345,8.453,10.155,9,12,9s2.655-0.547,3.438-1.076
				C16.111,7.47,16.807,7,18,7c2.564,0,6,5.933,6,12C24,20.87,24,24,21.5,24z M12,19c1.758,0,4.92,0.214,6.354,1.646
				c0.291,0.291,0.541,0.601,0.783,0.902C19.815,22.391,20.305,23,21.5,23c1.255,0,1.5-1.467,1.5-4c0-6.02-3.311-11-5-11
				c-0.887,0-1.379,0.332-2.002,0.752C15.175,9.308,14.15,10,12,10S8.825,9.308,8.002,8.752C7.379,8.332,6.887,8,6,8
				c-1.689,0-5,4.98-5,11c0,2.533,0.245,4,1.5,4c1.195,0,1.685-0.609,2.363-1.452c0.242-0.301,0.492-0.611,0.783-0.902
				C7.08,19.214,10.242,19,12,19z"/>
		</g>
		<g>
			<path d="M8.5,18c-0.274,0-0.497-0.221-0.5-0.495c-0.01-0.962-0.015-1.547,0.01-1.907c0,0,0-0.001,0-0.001l0,0
				c0.039-0.557,0.151-0.568,0.438-0.598c0.265-0.033,0.494,0.15,0.543,0.404c0.013,0.061,0.013,0.121,0.003,0.178
				c-0.006,0.227,0,1.228,0.007,1.914C9.003,17.771,8.781,17.997,8.505,18C8.503,18,8.502,18,8.5,18z"/>
		</g>
		<g>
			<path d="M9.5,17h-2C7.224,17,7,16.776,7,16.5S7.224,16,7.5,16h2c0.276,0,0.5,0.224,0.5,0.5S9.776,17,9.5,17z"/>
		</g>
		<g>
			<path d="M15.5,18c-0.827,0-1.5-0.673-1.5-1.5s0.673-1.5,1.5-1.5s1.5,0.673,1.5,1.5S16.327,18,15.5,18z M15.5,16
				c-0.275,0-0.5,0.224-0.5,0.5s0.225,0.5,0.5,0.5s0.5-0.224,0.5-0.5S15.775,16,15.5,16z"/>
		</g>
		<g>
			<path d="M6,14c-1.103,0-2-0.897-2-2s0.897-2,2-2s2,0.897,2,2S7.103,14,6,14z M6,11c-0.552,0-1,0.449-1,1s0.448,1,1,1s1-0.449,1-1
				S6.552,11,6,11z"/>
		</g>
		<g>
			<circle cx="16.5" cy="11.5" r="0.5"/>
		</g>
		<g>
			<circle cx="17.5" cy="9.5" r="0.5"/>
		</g>
		<g>
			<circle cx="18.5" cy="13.5" r="0.5"/>
		</g>
		<g>
			<circle cx="19.5" cy="11.5" r="0.5"/>
		</g>
	</g>
	<g>
		<path d="M13.5,9.5c-0.161,0-0.319-0.078-0.416-0.223L12.232,8h-0.465l-0.852,1.277c-0.154,0.23-0.465,0.29-0.693,0.139
			c-0.229-0.153-0.292-0.463-0.139-0.693l1-1.5C11.177,7.083,11.333,7,11.5,7h1c0.167,0,0.323,0.083,0.416,0.223l1,1.5
			c0.153,0.23,0.091,0.54-0.139,0.693C13.692,9.473,13.596,9.5,13.5,9.5z"/>
	</g>
	<g>
		<path d="M12,8c-0.276,0-0.5-0.224-0.5-0.5c0-4.767,2.187-7.5,6-7.5C17.776,0,18,0.224,18,0.5S17.776,1,17.5,1
			c-4.133,0-5,3.535-5,6.5C12.5,7.776,12.276,8,12,8z"/>
	</g>
</g>
<g>
</g>
<g>
</g>
<g>
</g>
<g>
</g>
<g>
</g>
<g>
</g>
<g>
</g>
<g>
</g>
<g>
</g>
<g>
</g>
<g>
</g>
<g>
</g>
<g>
</g>
<g>
</g>
<g>
</g>
</svg>
