<?xml version="1.0" encoding="iso-8859-1"?>
<!-- Generator: Adobe Illustrator 19.0.0, SVG Export Plug-In . SVG Version: 6.00 Build 0)  -->
<svg version="1.1" id="Layer_1" xmlns="http://www.w3.org/2000/svg" xmlns:xlink="http://www.w3.org/1999/xlink" x="0px" y="0px"
	 viewBox="0 0 24 24" style="enable-background:new 0 0 24 24;" xml:space="preserve">
<g>
	<g>
		<g>
			<g>
				<path d="M22.463,21c-0.043,0-0.085-0.005-0.127-0.017l-4.194-1.105c-0.034-0.009-0.066-0.021-0.097-0.036
					c-1.21-0.605-1.984-1.791-2.059-3.129l-2.535-2.535c-0.314-0.314-0.488-0.732-0.488-1.178s0.174-0.864,0.488-1.178
					c0.558-0.56,1.442-0.647,2.102-0.208l2.161,1.573c0.635,0.462,1.581,0.385,2.094-0.205c0.285-0.329,0.413-0.764,0.352-1.194
					l-0.177-2.249L19.981,6.5c0-0.223,0.148-0.419,0.363-0.481c0.211-0.06,0.444,0.028,0.562,0.217l2.458,3.96
					c0.679,0.781,0.785,3.224,0.58,3.941l-0.986,6.439c-0.021,0.14-0.102,0.264-0.22,0.342C22.655,20.972,22.56,21,22.463,21z
					 M18.449,18.925l3.604,0.95l0.916-5.951c0.199-0.713-0.055-2.766-0.359-3.07c-0.027-0.027-0.051-0.057-0.071-0.09l-1.558-2.51
					V9.5l0.172,2.178c0.1,0.686-0.114,1.412-0.59,1.959c-0.844,0.971-2.397,1.115-3.437,0.358l-2.145-1.562
					c-0.245-0.164-0.598-0.129-0.823,0.095c-0.126,0.126-0.195,0.293-0.195,0.471s0.069,0.345,0.195,0.47l2.676,2.676
					c0.094,0.094,0.146,0.221,0.146,0.354C16.981,17.526,17.542,18.451,18.449,18.925z"/>
			</g>
			<g>
				<path d="M23.481,24h-7c-0.14,0-0.272-0.058-0.367-0.161c-0.095-0.102-0.143-0.239-0.131-0.378
					c0.044-0.565,0.306-3.429,1.135-4.305c0.104-0.111,0.256-0.172,0.407-0.154c2.598,0.227,5.007,0.989,5.108,1.022
					c0.119,0.038,0.22,0.119,0.282,0.228c0.043,0.076,1.065,1.881,1.065,3.248C23.981,23.776,23.757,24,23.481,24z M17.031,23h5.897
					c-0.144-0.75-0.545-1.622-0.788-2.081c-0.584-0.172-2.444-0.69-4.423-0.894C17.402,20.591,17.153,21.919,17.031,23z"/>
			</g>
		</g>
	</g>
	<g>
		<g>
			<g>
				<path d="M1.542,21c-0.097,0-0.191-0.028-0.274-0.082c-0.118-0.078-0.198-0.202-0.22-0.342l-1-6.5
					c-0.191-0.657-0.085-3.099,0.594-3.88L3.1,6.236c0.118-0.189,0.351-0.277,0.562-0.217C3.876,6.081,4.025,6.277,4.025,6.5v3
					l-0.176,2.256c-0.064,0.462,0.063,0.898,0.349,1.227c0.514,0.592,1.461,0.665,2.094,0.205l2.145-1.562
					c0.673-0.451,1.557-0.363,2.118,0.196c0.649,0.65,0.649,1.707,0,2.356l-2.535,2.535c-0.074,1.338-0.85,2.524-2.06,3.129
					c-0.03,0.015-0.063,0.027-0.097,0.036l-4.194,1.105C1.627,20.995,1.584,21,1.542,21z M3.026,8.252l-1.56,2.512
					c-0.021,0.033-0.044,0.063-0.071,0.09c-0.305,0.305-0.559,2.357-0.373,3.009l0.929,6.012l3.605-0.95
					c0.907-0.474,1.469-1.398,1.469-2.425c0-0.133,0.053-0.26,0.146-0.354l2.676-2.676c0.126-0.125,0.195-0.293,0.195-0.471
					s-0.069-0.345-0.195-0.471c-0.226-0.225-0.578-0.259-0.84-0.083l-2.128,1.55c-1.04,0.756-2.596,0.613-3.437-0.358
					c-0.476-0.548-0.689-1.274-0.587-1.992l0.171-2.186L3.026,8.252z"/>
			</g>
			<g>
				<path d="M7.525,24h-7c-0.276,0-0.5-0.224-0.5-0.5c0-1.367,1.022-3.172,1.065-3.248c0.063-0.109,0.163-0.19,0.282-0.228
					c0.102-0.033,2.511-0.795,5.108-1.022c0.154-0.014,0.303,0.044,0.407,0.154c0.829,0.875,1.091,3.74,1.135,4.305
					c0.012,0.139-0.036,0.276-0.131,0.378C7.797,23.942,7.665,24,7.525,24z M1.078,23h5.896c-0.121-1.082-0.37-2.409-0.686-2.975
					c-1.98,0.205-3.839,0.721-4.423,0.894C1.623,21.379,1.222,22.25,1.078,23z"/>
			</g>
		</g>
	</g>
	<g>
		<path d="M18.463,12c-0.276,0-0.5-0.224-0.5-0.5v-9c0-0.827-0.673-1.5-1.5-1.5h-9c-0.827,0-1.5,0.673-1.5,1.5v9
			c0,0.276-0.224,0.5-0.5,0.5s-0.5-0.224-0.5-0.5v-9c0-1.378,1.121-2.5,2.5-2.5h9c1.379,0,2.5,1.122,2.5,2.5v9
			C18.963,11.776,18.74,12,18.463,12z"/>
	</g>
	<g>
		<path d="M15.463,19h-7c-0.276,0-0.5-0.224-0.5-0.5s0.224-0.5,0.5-0.5h7c0.276,0,0.5,0.224,0.5,0.5S15.74,19,15.463,19z"/>
	</g>
	<g>
		<path d="M16.463,10h-9c-0.276,0-0.5-0.224-0.5-0.5v-7c0-0.276,0.224-0.5,0.5-0.5h9c0.276,0,0.5,0.224,0.5,0.5v7
			C16.963,9.776,16.74,10,16.463,10z M7.963,9h8V3h-8V9z"/>
	</g>
	<g>
		<path d="M10.963,17h-1c-0.276,0-0.5-0.224-0.5-0.5s0.224-0.5,0.5-0.5h1c0.276,0,0.5,0.224,0.5,0.5S11.24,17,10.963,17z"/>
	</g>
	<g>
		<path d="M13.963,17h-1c-0.276,0-0.5-0.224-0.5-0.5s0.224-0.5,0.5-0.5h1c0.276,0,0.5,0.224,0.5,0.5S14.24,17,13.963,17z"/>
	</g>
</g>
<g>
</g>
<g>
</g>
<g>
</g>
<g>
</g>
<g>
</g>
<g>
</g>
<g>
</g>
<g>
</g>
<g>
</g>
<g>
</g>
<g>
</g>
<g>
</g>
<g>
</g>
<g>
</g>
<g>
</g>
</svg>
