<?xml version="1.0" encoding="iso-8859-1"?>
<!-- Generator: Adobe Illustrator 19.0.0, SVG Export Plug-In . SVG Version: 6.00 Build 0)  -->
<svg version="1.1" id="Layer_1" xmlns="http://www.w3.org/2000/svg" xmlns:xlink="http://www.w3.org/1999/xlink" x="0px" y="0px"
	 viewBox="0 0 24 24" style="enable-background:new 0 0 24 24;" xml:space="preserve">
<g>
	<g>
		<path d="M17.5,21h-4c-0.276,0-0.5-0.224-0.5-0.5v-2c0-0.276,0.224-0.5,0.5-0.5H17v-1H7v1h3.5c0.276,0,0.5,0.224,0.5,0.5v2
			c0,0.276-0.224,0.5-0.5,0.5h-4C6.224,21,6,20.776,6,20.5V19H4.5C4.224,19,4,18.776,4,18.5V15H3v3.5C3,18.776,2.776,19,2.5,19h-2
			C0.224,19,0,18.776,0,18.5v-6C0,12.224,0.224,12,0.5,12H2v-1.5C2,10.224,2.224,10,2.5,10H4V8.5C4,8.224,4.224,8,4.5,8H6V6H4.5
			C4.224,6,4,5.776,4,5.5v-2C4,3.224,4.224,3,4.5,3h2C6.776,3,7,3.224,7,3.5V5h1.5C8.776,5,9,5.224,9,5.5V8h6V5.5
			C15,5.224,15.224,5,15.5,5H17V3.5C17,3.224,17.224,3,17.5,3h2C19.776,3,20,3.224,20,3.5v2C20,5.776,19.776,6,19.5,6H18v2h1.5
			C19.776,8,20,8.224,20,8.5V10h1.5c0.276,0,0.5,0.224,0.5,0.5V12h1.5c0.276,0,0.5,0.224,0.5,0.5v6c0,0.276-0.224,0.5-0.5,0.5h-2
			c-0.276,0-0.5-0.224-0.5-0.5V15h-1v3.5c0,0.276-0.224,0.5-0.5,0.5H18v1.5C18,20.776,17.776,21,17.5,21z M14,20h3v-1h-3V20z M7,20
			h3v-1H7V20z M22,18h1v-5h-1.5c-0.276,0-0.5-0.224-0.5-0.5V11h-1.5c-0.276,0-0.5-0.224-0.5-0.5V9h-1.5C17.224,9,17,8.776,17,8.5V6
			h-1v2.5C16,8.776,15.776,9,15.5,9h-7C8.224,9,8,8.776,8,8.5V6H7v2.5C7,8.776,6.776,9,6.5,9H5v1.5C5,10.776,4.776,11,4.5,11H3v1.5
			C3,12.776,2.776,13,2.5,13H1v5h1v-3.5C2,14.224,2.224,14,2.5,14h2C4.776,14,5,14.224,5,14.5V18h1v-1.5C6,16.224,6.224,16,6.5,16
			h11c0.276,0,0.5,0.224,0.5,0.5V18h1v-3.5c0-0.276,0.224-0.5,0.5-0.5h2c0.276,0,0.5,0.224,0.5,0.5V18z M18,5h1V4h-1V5z M5,5h1V4H5
			V5z"/>
	</g>
	<g>
		<path d="M8.5,13h-2C6.224,13,6,12.776,6,12.5v-2C6,10.224,6.224,10,6.5,10h2C8.776,10,9,10.224,9,10.5v2C9,12.776,8.776,13,8.5,13
			z M7,12h1v-1H7V12z"/>
	</g>
	<g>
		<path d="M17.5,13h-2c-0.276,0-0.5-0.224-0.5-0.5v-2c0-0.276,0.224-0.5,0.5-0.5h2c0.276,0,0.5,0.224,0.5,0.5v2
			C18,12.776,17.776,13,17.5,13z M16,12h1v-1h-1V12z"/>
	</g>
</g>
<g>
</g>
<g>
</g>
<g>
</g>
<g>
</g>
<g>
</g>
<g>
</g>
<g>
</g>
<g>
</g>
<g>
</g>
<g>
</g>
<g>
</g>
<g>
</g>
<g>
</g>
<g>
</g>
<g>
</g>
</svg>
