<?xml version="1.0" encoding="utf-8"?>
<!-- Generator: Adobe Illustrator 19.0.0, SVG Export Plug-In . SVG Version: 6.00 Build 0)  -->
<svg version="1.1" id="Layer_1" xmlns="http://www.w3.org/2000/svg" xmlns:xlink="http://www.w3.org/1999/xlink" x="0px" y="0px"
	 viewBox="0 0 30 30" style="enable-background:new 0 0 30 30;" xml:space="preserve">
<g>
	<g>
		<path d="M15,30c0,0-0.1,0-0.1,0c-4.7-1.4-13.4-6.3-13.4-11.8V4.3c0-0.2,0.1-0.4,0.4-0.5l13-3.8C15,0,15,0,15.1,0l13,3.8
			c0.2,0.1,0.4,0.3,0.4,0.5v13.9c0,5.5-8.7,10.4-13.4,11.8C15.1,30,15,30,15,30z M2.5,4.7v13.5c0,4.5,7.3,9.2,12.5,10.8
			c5.2-1.6,12.5-6.3,12.5-10.8V4.7L15,1L2.5,4.7z"/>
	</g>
	<g>
		<g>
			<path d="M15,15H5c-0.3,0-0.5-0.2-0.5-0.5v-8c0-0.2,0.1-0.4,0.4-0.5l10-3c0.1,0,0.3,0,0.4,0.1s0.2,0.2,0.2,0.4v11
				C15.5,14.8,15.3,15,15,15z M5.5,14h9V4.2l-9,2.7V14z"/>
		</g>
		<g>
			<path d="M15,27c-0.1,0-0.2,0-0.3-0.1c-0.1-0.1-0.2-0.2-0.2-0.4v-12c0-0.3,0.2-0.5,0.5-0.5h10c0.3,0,0.5,0.2,0.5,0.5v4
				c0,3.2-5.2,6.7-10.3,8.5C15.1,27,15.1,27,15,27z M15.5,15v10.8c4.5-1.7,9-4.8,9-7.3V15H15.5z"/>
		</g>
	</g>
</g>
</svg>
