<?xml version="1.0" encoding="utf-8"?>
<!-- Generator: Adobe Illustrator 19.0.0, SVG Export Plug-In . SVG Version: 6.00 Build 0)  -->
<svg version="1.1" id="Layer_1" xmlns="http://www.w3.org/2000/svg" xmlns:xlink="http://www.w3.org/1999/xlink" x="0px" y="0px"
	 viewBox="0 0 30 30" style="enable-background:new 0 0 30 30;" xml:space="preserve">
<g>
	<g>
		<path d="M10.5,21.2c-1.9,0-3.5-1.6-3.5-3.5c0-1.4,0.8-2.6,2.1-3.2c0.1-0.1,0.3-0.1,0.4,0l4.1,2c0.1,0.1,0.2,0.2,0.3,0.3
			c0.1,0.3,0.1,0.6,0.1,0.9C14,19.7,12.4,21.2,10.5,21.2z M9.3,15.6C8.5,16,8,16.8,8,17.7c0,1.4,1.1,2.5,2.5,2.5s2.5-1.1,2.5-2.5
			c0-0.1,0-0.3,0-0.4L9.3,15.6z"/>
	</g>
	<g>
		<path d="M19.4,20.3c-0.3,0-0.5-0.1-0.8-0.2L3.9,13c-0.9-0.4-1.2-1.5-0.8-2.3l2.7-5.9C6,4.3,6.4,4,6.8,3.9c0.4-0.2,0.9-0.1,1.4,0.1
			l0,0L22.9,11c0.9,0.4,1.2,1.5,0.8,2.3L21,19.3c-0.2,0.4-0.6,0.8-1,0.9C19.8,20.2,19.6,20.3,19.4,20.3z M7.4,4.7
			c-0.1,0-0.2,0-0.3,0C7,4.9,6.8,5,6.7,5.2L4,11.1c-0.2,0.4,0,0.8,0.4,1l14.7,7.1c0.2,0.1,0.4,0.1,0.6,0c0.2-0.1,0.3-0.2,0.4-0.4
			l2.7-5.9c0.2-0.4,0-0.8-0.4-1L7.7,4.8C7.6,4.8,7.5,4.7,7.4,4.7z"/>
	</g>
	<g>
		<path d="M10.5,26.2h-10C0.2,26.2,0,26,0,25.7s0.2-0.5,0.5-0.5H10v-4.5c0-0.3,0.2-0.5,0.5-0.5s0.5,0.2,0.5,0.5v5
			C11,26,10.8,26.2,10.5,26.2z"/>
	</g>
	<g>
		<path d="M26.5,22.7c-0.1,0-0.2,0-0.2-0.1l-1-0.5c-0.1,0-0.2-0.1-0.2-0.2l-0.9-1.9l-2.9-1.4c-0.2-0.1-0.3-0.4-0.2-0.7
			c0.1-0.2,0.4-0.3,0.7-0.2l3,1.5c0.1,0,0.2,0.1,0.2,0.2l0.9,1.9l0.4,0.2l2.6-6.1l-0.4-0.2l-1.8,0.5c-0.1,0-0.2,0-0.3,0l-3-1.5
			c-0.2-0.1-0.3-0.4-0.2-0.7c0.1-0.2,0.4-0.3,0.7-0.2l2.8,1.4l1.8-0.5c0.1,0,0.2,0,0.3,0l1,0.5c0.2,0.1,0.3,0.4,0.2,0.6l-3,7
			c-0.1,0.1-0.2,0.2-0.3,0.3C26.6,22.7,26.6,22.7,26.5,22.7z"/>
	</g>
	<g>
		<circle cx="10.5" cy="17.7" r="0.5"/>
	</g>
</g>
</svg>
