<?xml version="1.0" encoding="iso-8859-1"?>
<!-- Generator: Adobe Illustrator 19.0.0, SVG Export Plug-In . SVG Version: 6.00 Build 0)  -->
<svg version="1.1" id="Layer_1" xmlns="http://www.w3.org/2000/svg" xmlns:xlink="http://www.w3.org/1999/xlink" x="0px" y="0px"
	 viewBox="0 0 24 24" style="enable-background:new 0 0 24 24;" xml:space="preserve">
<g>
	<g>
		<path d="M23,12.502H12c-0.276,0-0.5-0.224-0.5-0.5v-11c0-0.276,0.224-0.5,0.5-0.5h9c1.379,0,2.5,1.122,2.5,2.5v9
			C23.5,12.278,23.276,12.502,23,12.502z M12.5,11.502h10v-8.5c0-0.827-0.673-1.5-1.5-1.5h-8.5V11.502z"/>
	</g>
	<g>
		<path d="M12,23.502H3c-1.379,0-2.5-1.122-2.5-2.5v-9c0-0.276,0.224-0.5,0.5-0.5h11c0.276,0,0.5,0.224,0.5,0.5v11
			C12.5,23.278,12.276,23.502,12,23.502z M1.5,12.502v8.5c0,0.827,0.673,1.5,1.5,1.5h8.5v-10H1.5z"/>
	</g>
</g>
<g>
</g>
<g>
</g>
<g>
</g>
<g>
</g>
<g>
</g>
<g>
</g>
<g>
</g>
<g>
</g>
<g>
</g>
<g>
</g>
<g>
</g>
<g>
</g>
<g>
</g>
<g>
</g>
<g>
</g>
</svg>
