<?xml version="1.0" encoding="iso-8859-1"?>
<!-- Generator: Adobe Illustrator 19.0.0, SVG Export Plug-In . SVG Version: 6.00 Build 0)  -->
<svg version="1.1" id="Layer_1" xmlns="http://www.w3.org/2000/svg" xmlns:xlink="http://www.w3.org/1999/xlink" x="0px" y="0px"
	 viewBox="0 0 24 24" style="enable-background:new 0 0 24 24;" xml:space="preserve">
<g>
	<g>
		<path d="M12,24.002c-7.558,0-11-5.184-11-10c0-3.446,1.56-5.764,2.229-6.601c0.266-0.331,0.694-0.454,1.095-0.318
			C4.719,7.22,4.976,7.578,4.979,7.997l0,0c0.026,2.768,0.417,4.957,1.077,6.197C6.812,5.468,14.963,0.002,18.5,0.002
			c0.879,0,1.272,0.423,1.448,0.778l0.142,0.286C21.318,3.537,23,6.922,23,12.002C23,17.537,20.119,24.002,12,24.002z M4.479,8.002
			l-0.5,0.001C3.406,8.781,2,10.872,2,14.002c0,3.343,2.106,9,10,9c7.381,0,10-5.926,10-11c0-4.845-1.556-7.976-2.806-10.491
			l-0.143-0.287c-0.035-0.072-0.109-0.222-0.552-0.222c-2.772,0-11.5,5.302-11.5,14.5c0,0.187-0.104,0.357-0.27,0.444
			c-0.164,0.085-0.364,0.072-0.518-0.035c-1.891-1.326-2.211-5.521-2.233-7.904c0,0,0,0,0,0L4.479,8.002z"/>
	</g>
</g>
<g>
</g>
<g>
</g>
<g>
</g>
<g>
</g>
<g>
</g>
<g>
</g>
<g>
</g>
<g>
</g>
<g>
</g>
<g>
</g>
<g>
</g>
<g>
</g>
<g>
</g>
<g>
</g>
<g>
</g>
</svg>
