<?xml version="1.0" encoding="iso-8859-1"?>
<!-- Generator: Adobe Illustrator 19.0.0, SVG Export Plug-In . SVG Version: 6.00 Build 0)  -->
<svg version="1.1" id="Layer_1" xmlns="http://www.w3.org/2000/svg" xmlns:xlink="http://www.w3.org/1999/xlink" x="0px" y="0px"
	 viewBox="0 0 24 24" style="enable-background:new 0 0 24 24;" xml:space="preserve">
<g>
	<g>
		<path d="M8.145,21.449c-2.15,0-4.638-0.552-7.39-2.097c-0.208-0.117-0.304-0.364-0.23-0.59s0.297-0.375,0.533-0.342
			c1.814,0.208,3.795-0.217,5.275-1.086c-1.695-0.398-3.065-1.499-3.788-3.098c-0.081-0.179-0.05-0.389,0.08-0.536
			c0.13-0.148,0.334-0.205,0.522-0.148c0.218,0.067,0.435,0.113,0.644,0.138c-1.287-0.768-2.665-2.238-2.665-4.441
			c0-0.193,0.111-0.369,0.285-0.452C1.585,8.715,1.792,8.738,1.94,8.86c0.16,0.13,0.331,0.239,0.508,0.325
			c-0.368-0.5-0.687-1.117-0.869-1.817C1.247,6.086,1.44,4.786,2.136,3.612C2.22,3.47,2.368,3.38,2.532,3.368
			c0.156-0.01,0.322,0.058,0.425,0.187c1.472,1.839,4.088,4.061,8.294,4.466c-0.078-1.331,0.322-3.512,2.16-4.585
			c2.261-1.32,4.436-1.15,6.305,0.487c0.828-0.184,2.135-0.752,2.406-0.941c0.172-0.12,0.401-0.121,0.573,0
			c0.172,0.121,0.251,0.335,0.197,0.538c-0.125,0.471-0.408,0.995-0.76,1.463c0.279-0.083,0.514-0.167,0.639-0.231
			c0.2-0.103,0.445-0.06,0.598,0.106s0.174,0.415,0.054,0.605c-0.588,0.93-1.539,1.796-2.174,2.266
			c0.343,4.225-2.126,8.946-6.089,11.577C13.69,20.281,11.274,21.449,8.145,21.449z M3.15,19.406
			c5.351,2.195,9.403,0.428,11.456-0.935c3.756-2.494,6.067-6.988,5.62-10.929c-0.021-0.188,0.064-0.371,0.222-0.474
			c0.269-0.177,0.68-0.502,1.094-0.905c-0.407,0.088-0.802,0.147-1.089,0.148c-0.276-0.033-0.447-0.169-0.492-0.405
			c-0.046-0.236,0.083-0.471,0.306-0.559c0.283-0.113,0.665-0.454,0.995-0.872c-0.566,0.219-1.178,0.413-1.628,0.478
			c-0.149,0.023-0.302-0.027-0.413-0.131c-1.578-1.482-3.362-1.658-5.306-0.524c-1.745,1.02-1.784,3.397-1.6,4.148
			c0.038,0.154,0,0.316-0.101,0.438c-0.101,0.122-0.255,0.187-0.412,0.181C7.331,8.829,4.427,6.719,2.68,4.773
			C2.322,5.704,2.398,6.539,2.548,7.117C2.842,8.25,3.582,9.119,4.144,9.447c0.18,0.104,0.276,0.31,0.242,0.514
			c-0.034,0.205-0.191,0.368-0.395,0.408c-0.569,0.113-1.182,0.044-1.752-0.185c0.521,2.085,2.689,3.067,3.299,3.135
			c0.199,0.022,0.365,0.16,0.424,0.351c0.058,0.191-0.003,0.399-0.156,0.528c-0.437,0.369-1.091,0.547-1.828,0.51
			c0.836,1.114,2.132,1.754,3.681,1.788c0.205,0.005,0.387,0.134,0.458,0.327c0.071,0.192,0.018,0.409-0.135,0.545
			C6.754,18.468,4.992,19.191,3.15,19.406z"/>
	</g>
</g>
<g>
</g>
<g>
</g>
<g>
</g>
<g>
</g>
<g>
</g>
<g>
</g>
<g>
</g>
<g>
</g>
<g>
</g>
<g>
</g>
<g>
</g>
<g>
</g>
<g>
</g>
<g>
</g>
<g>
</g>
</svg>
