<?xml version="1.0" encoding="iso-8859-1"?>
<!-- Generator: Adobe Illustrator 19.0.0, SVG Export Plug-In . SVG Version: 6.00 Build 0)  -->
<svg version="1.1" id="Layer_1" xmlns="http://www.w3.org/2000/svg" xmlns:xlink="http://www.w3.org/1999/xlink" x="0px" y="0px"
	 viewBox="0 0 24 24" style="enable-background:new 0 0 24 24;" xml:space="preserve">
<g>
	<path d="M11,23.003c-4.46,0-6.356-10.814-6.865-14.428L2.853,9.856C2.7,10.008,2.469,10.046,2.276,9.95l-2-1
		c-0.129-0.064-0.224-0.182-0.26-0.321c-0.036-0.14-0.011-0.288,0.07-0.407C3.705,2.893,6.611,1.003,8,1.003
		c2.049,0,2.685,3.659,3.358,7.532c0.355,2.045,0.95,5.468,1.642,5.468c0.61-0.187,3.232-3.72,2.996-5.368
		C15.966,8.429,15.905,8.003,15,8.003h-1.5c-0.276,0-0.5-0.224-0.5-0.5c0-5.413,2.296-6.5,6-6.5c3.084,0,5,2.107,5,5.5
		C24,12.041,16.1,23.003,11,23.003z M4.5,7.003c0.055,0,0.11,0.009,0.164,0.028c0.181,0.063,0.311,0.224,0.333,0.414
		C5.47,11.494,7.47,22.003,11,22.003c4.587,0,12-10.432,12-15.5c0-1.353-0.39-4.5-4-4.5c-2.737,0-4.853,0.378-4.993,5H15
		c0.658,0,1.168,0.174,1.517,0.516c0.327,0.321,0.493,0.766,0.493,1.322c0,2.183-2.811,6.162-4.009,6.162
		c-1.533,0-2.016-2.778-2.627-6.296C9.881,5.877,9.208,2.003,8,2.003c-0.965,0-3.536,1.691-6.762,6.31l1.164,0.582l1.745-1.745
		C4.242,7.054,4.37,7.003,4.5,7.003z"/>
</g>
<g>
</g>
<g>
</g>
<g>
</g>
<g>
</g>
<g>
</g>
<g>
</g>
<g>
</g>
<g>
</g>
<g>
</g>
<g>
</g>
<g>
</g>
<g>
</g>
<g>
</g>
<g>
</g>
<g>
</g>
</svg>
