<?xml version="1.0" encoding="iso-8859-1"?>
<!-- Generator: Adobe Illustrator 19.0.0, SVG Export Plug-In . SVG Version: 6.00 Build 0)  -->
<svg version="1.1" id="Layer_1" xmlns="http://www.w3.org/2000/svg" xmlns:xlink="http://www.w3.org/1999/xlink" x="0px" y="0px"
	 viewBox="0 0 24 24" style="enable-background:new 0 0 24 24;" xml:space="preserve">
<g>
	<path d="M22.789,19.001h-3.568c-0.599,0-1.161-0.233-1.584-0.656l-2.076-2.076c-0.17-0.17-0.406-0.268-0.646-0.268
		c-0.504,0-0.914,0.41-0.914,0.914v0.857c0,0.678-0.551,1.229-1.229,1.229H9.5c-2.29,0-5.968-5.144-8.651-9.459
		C0.293,8.647,0,7.613,0,6.553V6.298c0-0.715,0.582-1.297,1.297-1.297H4.5c0.188,0,0.361,0.106,0.446,0.274
		c0.703,1.388,2.685,5.149,3.407,5.872c0.184,0.183,0.361,0.291,0.473,0.269C8.892,11.41,8.954,11.368,9,11.325V7.528
		c0-0.529-0.206-1.025-0.58-1.399L8.146,5.855C8.003,5.712,7.96,5.497,8.038,5.31C8.115,5.123,8.298,5.001,8.5,5.001h4.406
		C13.509,5.001,14,5.492,14,6.095v5.115c0.277,0.128,0.773,0.274,1.165-0.079c0.419-0.38,1.464-2.463,2.66-5.308
		c0.21-0.499,0.697-0.822,1.241-0.822h3.508C23.36,5.001,24,5.641,24,6.428c0,0.805-0.277,1.595-0.78,2.224L20,12.677v0.618
		l3.644,3.644c0.347,0.347,0.45,0.864,0.262,1.317C23.718,18.708,23.28,19.001,22.789,19.001z M14.914,15.001
		c0.511,0,0.992,0.199,1.354,0.561l2.076,2.076c0.231,0.231,0.551,0.363,0.877,0.363h3.568c0.122,0,0.173-0.081,0.193-0.129
		c0.02-0.048,0.041-0.142-0.045-0.228l-3.79-3.79C19.053,13.761,19,13.634,19,13.501v-1c0-0.114,0.039-0.224,0.109-0.313l3.33-4.162
		C22.801,7.575,23,7.007,23,6.428c0-0.235-0.191-0.427-0.427-0.427h-3.508c-0.14,0-0.266,0.082-0.319,0.209
		c-0.938,2.229-2.204,5.021-2.911,5.661c-0.927,0.839-2.122,0.391-2.623,0.038C13.079,11.817,13,11.664,13,11.501V6.095
		c0-0.052-0.042-0.094-0.094-0.094H9.581C9.854,6.458,10,6.982,10,7.528v3.973c0,0.091-0.024,0.18-0.071,0.257
		c-0.035,0.059-0.361,0.575-0.977,0.65c-0.44,0.056-0.883-0.131-1.306-0.554c-0.869-0.869-2.867-4.709-3.453-5.854H1.297
		C1.133,6.001,1,6.135,1,6.298v0.255c0,0.874,0.242,1.725,0.699,2.461c3.446,5.543,6.435,8.987,7.801,8.987h3.271
		c0.126,0,0.229-0.103,0.229-0.229v-0.857C13,15.86,13.859,15.001,14.914,15.001z"/>
</g>
<g>
</g>
<g>
</g>
<g>
</g>
<g>
</g>
<g>
</g>
<g>
</g>
<g>
</g>
<g>
</g>
<g>
</g>
<g>
</g>
<g>
</g>
<g>
</g>
<g>
</g>
<g>
</g>
<g>
</g>
</svg>
