<?xml version="1.0" encoding="iso-8859-1"?>
<!-- Generator: Adobe Illustrator 18.0.0, SVG Export Plug-In . SVG Version: 6.00 Build 0)  -->
<!DOCTYPE svg PUBLIC "-//W3C//DTD SVG 1.1//EN" "http://www.w3.org/Graphics/SVG/1.1/DTD/svg11.dtd">
<svg version="1.1" id="Layer_1" xmlns="http://www.w3.org/2000/svg" xmlns:xlink="http://www.w3.org/1999/xlink" x="0px" y="0px"
	 viewBox="0 0 24 24" style="enable-background:new 0 0 24 24;" xml:space="preserve">
<g>
	<path d="M23,19.5H1c-0.276,0-0.5-0.224-0.5-0.5V5c0-0.276,0.224-0.5,0.5-0.5h22c0.276,0,0.5,0.224,0.5,0.5v14
		C23.5,19.276,23.276,19.5,23,19.5z M1.5,18.5h21v-13h-21V18.5z"/>
	<g>
		<path d="M11.999,15.5c-1.334,0-2.408-0.801-2.497-1.862c-0.023-0.275,0.181-0.517,0.456-0.54c0.271-0.028,0.517,0.181,0.54,0.456
			c0.044,0.522,0.717,0.946,1.5,0.946c0.814,0,1.501-0.458,1.501-1c0-0.488-0.474-0.802-1.491-0.99L11.9,12.49
			c-1.623-0.299-2.4-0.963-2.4-1.99c0-1.103,1.122-2,2.501-2c1.334,0,2.407,0.8,2.497,1.862c0.023,0.275-0.181,0.517-0.456,0.54
			c-0.266,0.034-0.517-0.181-0.54-0.456c-0.044-0.521-0.717-0.946-1.5-0.946c-0.814,0-1.501,0.458-1.501,1
			c0,0.488,0.475,0.802,1.493,0.99l0.11,0.021c1.62,0.299,2.397,0.962,2.397,1.99C14.5,14.603,13.378,15.5,11.999,15.5z"/>
		<path d="M12,16.5c-0.276,0-0.5-0.224-0.5-0.5V8c0-0.276,0.224-0.5,0.5-0.5s0.5,0.224,0.5,0.5v8C12.5,16.276,12.276,16.5,12,16.5z"
			/>
	</g>
	<path d="M21,7.5h-2c-0.276,0-0.5-0.224-0.5-0.5s0.224-0.5,0.5-0.5h2c0.276,0,0.5,0.224,0.5,0.5S21.276,7.5,21,7.5z"/>
	<path d="M5,17.5H3c-0.276,0-0.5-0.224-0.5-0.5s0.224-0.5,0.5-0.5h2c0.276,0,0.5,0.224,0.5,0.5S5.276,17.5,5,17.5z"/>
</g>
<g>
</g>
<g>
</g>
<g>
</g>
<g>
</g>
<g>
</g>
<g>
</g>
<g>
</g>
<g>
</g>
<g>
</g>
<g>
</g>
<g>
</g>
<g>
</g>
<g>
</g>
<g>
</g>
<g>
</g>
</svg>
