<?xml version="1.0" encoding="iso-8859-1"?>
<!-- Generator: Adobe Illustrator 18.0.0, SVG Export Plug-In . SVG Version: 6.00 Build 0)  -->
<!DOCTYPE svg PUBLIC "-//W3C//DTD SVG 1.1//EN" "http://www.w3.org/Graphics/SVG/1.1/DTD/svg11.dtd">
<svg version="1.1" id="Layer_1" xmlns="http://www.w3.org/2000/svg" xmlns:xlink="http://www.w3.org/1999/xlink" x="0px" y="0px"
	 viewBox="0 0 24 24" style="enable-background:new 0 0 24 24;" xml:space="preserve">
<g>
	<path d="M20.5,23.982h-17c-1.93,0-3.5-1.57-3.5-3.5v-10c0-1.93,1.57-3.5,3.5-3.5h17c1.93,0,3.5,1.57,3.5,3.5v10
		C24,22.411,22.43,23.982,20.5,23.982z M3.5,7.982c-1.379,0-2.5,1.122-2.5,2.5v10c0,1.378,1.121,2.5,2.5,2.5h17
		c1.379,0,2.5-1.122,2.5-2.5v-10c0-1.378-1.121-2.5-2.5-2.5H3.5z"/>
	<path d="M19.5,16.982c-0.827,0-1.5-0.673-1.5-1.5s0.673-1.5,1.5-1.5s1.5,0.673,1.5,1.5S20.327,16.982,19.5,16.982z M19.5,14.982
		c-0.275,0-0.5,0.224-0.5,0.5s0.225,0.5,0.5,0.5s0.5-0.224,0.5-0.5S19.775,14.982,19.5,14.982z"/>
	<path d="M23.5,18.982h-4c-1.93,0-3.5-1.57-3.5-3.5s1.57-3.5,3.5-3.5h4c0.276,0,0.5,0.224,0.5,0.5v6
		C24,18.758,23.776,18.982,23.5,18.982z M19.5,12.982c-1.379,0-2.5,1.122-2.5,2.5s1.121,2.5,2.5,2.5H23v-5H19.5z"/>
	<path d="M0.5,10.981c-0.276,0-0.5-0.223-0.5-0.5c0-2.024,1.206-3.838,3.072-4.621l12.734-5.34c1.162-0.65,2.473-0.674,3.545-0.042
		C20.384,1.086,21,2.202,21,3.464v4.017c0,0.276-0.224,0.5-0.5,0.5S20,7.758,20,7.482V3.464c0-0.905-0.432-1.699-1.155-2.125
		c-0.761-0.447-1.71-0.418-2.602,0.079L3.459,6.783C1.965,7.409,1,8.86,1,10.481C1,10.757,0.776,10.981,0.5,10.981z"/>
	<path d="M9.5,7.982c-0.202,0-0.393-0.124-0.468-0.324C8.935,7.399,9.065,7.11,9.324,7.013l8-3c0.257-0.097,0.547,0.034,0.644,0.292
		c0.098,0.259-0.033,0.547-0.292,0.644l-8,3C9.618,7.971,9.559,7.982,9.5,7.982z"/>
</g>
<g>
</g>
<g>
</g>
<g>
</g>
<g>
</g>
<g>
</g>
<g>
</g>
<g>
</g>
<g>
</g>
<g>
</g>
<g>
</g>
<g>
</g>
<g>
</g>
<g>
</g>
<g>
</g>
<g>
</g>
</svg>
