<?xml version="1.0" encoding="utf-8"?>
<!-- Generator: Adobe Illustrator 19.0.0, SVG Export Plug-In . SVG Version: 6.00 Build 0)  -->
<svg version="1.1" id="Layer_1" xmlns="http://www.w3.org/2000/svg" xmlns:xlink="http://www.w3.org/1999/xlink" x="0px" y="0px"
	 viewBox="0 0 30 30" style="enable-background:new 0 0 30 30;" xml:space="preserve">
<g>
	<g>
		<path d="M15,30c-0.1,0-0.2,0-0.3-0.1c-0.1-0.1-0.2-0.2-0.2-0.4V27c-7.2-0.3-13-6.2-13-13.5C1.5,6.1,7.6,0,15,0s13.5,6.1,13.5,13.5
			C28.5,20.4,21.6,28.9,15,30C15.1,30,15,30,15,30z M15,1C8.1,1,2.5,6.6,2.5,13.5S8.1,26,15,26c0.3,0,0.5,0.2,0.5,0.5v2.4
			c5.8-1.4,12-9.2,12-15.4C27.5,6.6,21.9,1,15,1z"/>
	</g>
	<g>
		<path d="M8.5,15c-1.1,0-2-0.9-2-2s0.9-2,2-2s2,0.9,2,2S9.6,15,8.5,15z M8.5,12c-0.6,0-1,0.4-1,1s0.4,1,1,1s1-0.4,1-1
			S9.1,12,8.5,12z"/>
	</g>
	<g>
		<path d="M14.5,15c-1.1,0-2-0.9-2-2s0.9-2,2-2s2,0.9,2,2S15.6,15,14.5,15z M14.5,12c-0.6,0-1,0.4-1,1s0.4,1,1,1s1-0.4,1-1
			S15.1,12,14.5,12z"/>
	</g>
	<g>
		<path d="M20.5,15c-1.1,0-2-0.9-2-2s0.9-2,2-2s2,0.9,2,2S21.6,15,20.5,15z M20.5,12c-0.6,0-1,0.4-1,1s0.4,1,1,1s1-0.4,1-1
			S21.1,12,20.5,12z"/>
	</g>
</g>
</svg>
