<?xml version="1.0" encoding="utf-8"?>
<!-- Generator: Adobe Illustrator 19.0.0, SVG Export Plug-In . SVG Version: 6.00 Build 0)  -->
<svg version="1.1" id="Layer_1" xmlns="http://www.w3.org/2000/svg" xmlns:xlink="http://www.w3.org/1999/xlink" x="0px" y="0px"
	 viewBox="0 0 30 30" style="enable-background:new 0 0 30 30;" xml:space="preserve">
<g>
	<g>
		<g>
			<path d="M4.5,29c-0.1,0-0.2,0-0.3-0.1C4,28.8,4,28.5,4,28.3L6.8,21H4.3C1.9,21,0,19.1,0,16.8V4.3C0,1.9,1.9,0,4.3,0h20.5
				C27.1,0,29,1.9,29,4.3v12.3c0,0.3-0.2,0.5-0.5,0.5S28,16.8,28,16.5V4.3C28,2.5,26.5,1,24.8,1H4.3C2.5,1,1,2.5,1,4.3v12.5
				C1,18.5,2.5,20,4.3,20h3.3c0.2,0,0.3,0.1,0.4,0.2C8,20.3,8,20.5,8,20.7L5.6,27l8.6-6.9c0.1-0.1,0.2-0.1,0.3-0.1h1
				c0.3,0,0.5,0.2,0.5,0.5S15.8,21,15.5,21h-0.8l-9.9,7.9C4.7,29,4.6,29,4.5,29z"/>
		</g>
		<g>
			<path d="M8,12c-1.1,0-2-0.9-2-2s0.9-2,2-2s2,0.9,2,2S9.1,12,8,12z M8,9c-0.6,0-1,0.4-1,1s0.4,1,1,1s1-0.4,1-1S8.6,9,8,9z"/>
		</g>
		<g>
			<path d="M14,12c-1.1,0-2-0.9-2-2s0.9-2,2-2s2,0.9,2,2S15.1,12,14,12z M14,9c-0.6,0-1,0.4-1,1s0.4,1,1,1s1-0.4,1-1S14.6,9,14,9z"
				/>
		</g>
		<g>
			<path d="M20,12c-1.1,0-2-0.9-2-2s0.9-2,2-2s2,0.9,2,2S21.1,12,20,12z M20,9c-0.6,0-1,0.4-1,1s0.4,1,1,1s1-0.4,1-1S20.6,9,20,9z"
				/>
		</g>
	</g>
	<g>
		<path d="M23.5,26c-0.3,0-0.5-0.2-0.5-0.5v-5c0-0.3,0.2-0.5,0.5-0.5s0.5,0.2,0.5,0.5v5C24,25.8,23.8,26,23.5,26z"/>
	</g>
	<g>
		<path d="M23.5,30c-3.6,0-6.5-2.9-6.5-6.5s2.9-6.5,6.5-6.5s6.5,2.9,6.5,6.5S27.1,30,23.5,30z M23.5,18c-3,0-5.5,2.5-5.5,5.5
			s2.5,5.5,5.5,5.5s5.5-2.5,5.5-5.5S26.5,18,23.5,18z"/>
	</g>
	<g>
		<path d="M23.5,28c-0.3,0-0.5-0.2-0.5-0.5s0.2-0.5,0.5-0.5h0c0.3,0,0.5,0.2,0.5,0.5S23.8,28,23.5,28z"/>
	</g>
</g>
</svg>
