<?xml version="1.0" encoding="utf-8"?>
<!-- Generator: Adobe Illustrator 19.0.0, SVG Export Plug-In . SVG Version: 6.00 Build 0)  -->
<svg version="1.1" id="Layer_1" xmlns="http://www.w3.org/2000/svg" xmlns:xlink="http://www.w3.org/1999/xlink" x="0px" y="0px"
	 viewBox="0 0 30 30" style="enable-background:new 0 0 30 30;" xml:space="preserve">
<g>
	<g>
		<g>
			<path d="M0.6,30c-0.1,0-0.1,0-0.2,0c-0.2-0.1-0.3-0.3-0.3-0.5v-24c0-3,2.5-5.5,5.5-5.5h18c3,0,5.5,2.5,5.5,5.5v12
				c0,0.3-0.2,0.5-0.5,0.5s-0.5-0.2-0.5-0.5v-12C28.1,3,26,1,23.6,1h-18C3.1,1,1.1,3,1.1,5.5V28l5.1-6.8C6.3,21.1,6.4,21,6.6,21h6
				c0.3,0,0.5,0.2,0.5,0.5S12.8,22,12.6,22H6.8L1,29.8C0.9,29.9,0.7,30,0.6,30z"/>
		</g>
		<g>
			<path d="M8.1,14c-1.1,0-2-0.9-2-2s0.9-2,2-2s2,0.9,2,2S9.2,14,8.1,14z M8.1,11c-0.6,0-1,0.4-1,1s0.4,1,1,1s1-0.4,1-1
				S8.6,11,8.1,11z"/>
		</g>
		<g>
			<path d="M14.1,14c-1.1,0-2-0.9-2-2s0.9-2,2-2s2,0.9,2,2S15.2,14,14.1,14z M14.1,11c-0.6,0-1,0.4-1,1s0.4,1,1,1s1-0.4,1-1
				S14.6,11,14.1,11z"/>
		</g>
		<g>
			<path d="M20.1,14c-1.1,0-2-0.9-2-2s0.9-2,2-2s2,0.9,2,2S21.2,14,20.1,14z M20.1,11c-0.6,0-1,0.4-1,1s0.4,1,1,1s1-0.4,1-1
				S20.6,11,20.1,11z"/>
		</g>
	</g>
	<g>
		<path d="M26.5,30c-0.1,0-0.2,0-0.3-0.1l-4.5-3.2l-4.5,3.2c-0.2,0.1-0.4,0.1-0.6,0c-0.2-0.1-0.2-0.4-0.2-0.6l1.7-5.2l-4.5-3.2
			c-0.2-0.1-0.2-0.4-0.2-0.6s0.3-0.3,0.5-0.3h5.5l1.7-5.2c0.1-0.2,0.3-0.3,0.5-0.3l0,0c0.2,0,0.4,0.1,0.5,0.3l1.7,5.2h5.5
			c0.2,0,0.4,0.1,0.5,0.3s0,0.4-0.2,0.6l-4.5,3.2l1.7,5.2c0.1,0.2,0,0.4-0.2,0.6C26.7,30,26.6,30,26.5,30z M15.6,21l3.5,2.5
			c0.2,0.1,0.2,0.4,0.2,0.6L18,28.2l3.5-2.5c0.2-0.1,0.4-0.1,0.6,0l3.5,2.5l-1.3-4.1c-0.1-0.2,0-0.4,0.2-0.6l3.5-2.5h-4.3
			c-0.2,0-0.4-0.1-0.5-0.3l-1.3-4.1l-1.3,4.1c-0.1,0.2-0.3,0.3-0.5,0.3H15.6z"/>
	</g>
</g>
</svg>
