<?xml version="1.0" encoding="iso-8859-1"?>
<!-- Generator: Adobe Illustrator 19.0.0, SVG Export Plug-In . SVG Version: 6.00 Build 0)  -->
<svg version="1.1" id="Layer_1" xmlns="http://www.w3.org/2000/svg" xmlns:xlink="http://www.w3.org/1999/xlink" x="0px" y="0px"
	 viewBox="0 0 30 30" style="enable-background:new 0 0 30 30;" xml:space="preserve">
<g>
	<g>
		<path d="M25,15h-3.055l0.514-6H23c0.827,0,1.5-0.673,1.5-1.5v-6C24.5,0.673,23.827,0,23,0H7C6.173,0,5.5,0.673,5.5,1.5v6
			C5.5,8.327,6.173,9,7,9h0.541l0.514,6H5c-0.276,0-0.5,0.224-0.5,0.5v2C4.5,17.776,4.724,18,5,18h0.5v11.5
			C5.5,29.776,5.724,30,6,30h2c0.276,0,0.5-0.224,0.5-0.5V23h13v6.5c0,0.276,0.224,0.5,0.5,0.5h2c0.276,0,0.5-0.224,0.5-0.5V18H25
			c0.276,0,0.5-0.224,0.5-0.5v-2C25.5,15.224,25.276,15,25,15z M20.059,9h1.396l-0.514,6h-1.396L20.059,9z M16.5,9h2.555l-0.514,6
			H16.5V9z M14.5,9h1v6h-1V9z M13.5,9v6h-2.041l-0.514-6H13.5z M9.941,9l0.514,6H9.059L8.545,9H9.941z M21.5,22h-13v-4h13V22z"/>
	</g>
</g>
</svg>
