<?xml version="1.0" encoding="iso-8859-1"?>
<!-- Generator: Adobe Illustrator 19.0.0, SVG Export Plug-In . SVG Version: 6.00 Build 0)  -->
<svg version="1.1" id="Layer_1" xmlns="http://www.w3.org/2000/svg" xmlns:xlink="http://www.w3.org/1999/xlink" x="0px" y="0px"
	 viewBox="0 0 30 30" style="enable-background:new 0 0 30 30;" xml:space="preserve">
<g>
	<g>
		<path d="M11.721,16.003c-0.072-0.135-0.163-0.348-0.174-0.426c-0.005-0.271-0.228-0.49-0.5-0.49c-0.276,0-0.5,0.224-0.5,0.5
			c0,0.31,0.205,0.725,0.293,0.889c0.09,0.168,0.263,0.264,0.44,0.264c0.08,0,0.161-0.019,0.236-0.06
			C11.76,16.549,11.852,16.246,11.721,16.003z M16.469,18.475c-0.312-0.455-0.782-1.142-1.492-1.142
			c-0.938,0-1.276,1.459-1.377,2.087c-0.045,0.272,0.141,0.529,0.413,0.573C14.04,19.997,14.067,20,14.094,20
			c0.24,0,0.452-0.174,0.492-0.42c0.091-0.551,0.313-1.165,0.391-1.247c0.183,0,0.534,0.514,0.667,0.707
			c0.119,0.173,0.213,0.311,0.319,0.409c0.197,0.185,0.501,0.169,0.691-0.024c0.189-0.195,0.182-0.512-0.009-0.706
			C16.597,18.669,16.539,18.579,16.469,18.475z M12.643,10.396c0.111-0.046,0.206-0.091,0.296-0.134
			C13.27,10.104,13.489,10,14.556,10c1.224,0,1.669,0.154,2.142,0.317l0.279,0.094c0.051,0.017,0.103,0.024,0.152,0.024
			c0.212,0,0.408-0.135,0.477-0.348c0.084-0.263-0.062-0.544-0.324-0.628l-0.258-0.087C16.495,9.189,15.947,9,14.556,9
			c-1.206,0-1.578,0.136-2.048,0.359c-0.075,0.036-0.155,0.074-0.25,0.114c-0.255,0.106-0.375,0.398-0.27,0.653
			C12.095,10.382,12.388,10.503,12.643,10.396z M11,15c0.276,0,0.5-0.224,0.5-0.5c0-1.668,1.248-2.833,3.035-2.833
			c1.785,0,2.477,0.937,3.087,1.764c0.361,0.491,0.704,0.954,1.233,1.114c0.27,0.081,0.543-0.07,0.623-0.334
			c0.08-0.265-0.069-0.543-0.334-0.623c-0.212-0.064-0.458-0.397-0.718-0.75c-0.638-0.864-1.602-2.17-3.892-2.17
			c-2.338,0-4.035,1.612-4.035,3.833C10.5,14.776,10.724,15,11,15z M15.454,14.769c-0.081-0.263-0.362-0.411-0.625-0.33
			c-0.264,0.082-0.412,0.361-0.33,0.625c0.372,1.202,1.372,2.037,2.398,2.761c0.088,0.062,0.188,0.091,0.288,0.091
			c0.156,0,0.312-0.074,0.408-0.212c0.159-0.226,0.105-0.538-0.12-0.697C16.593,16.386,15.737,15.685,15.454,14.769z M20,0H10
			C7.519,0,5.5,2.019,5.5,4.5v21c0,2.481,2.019,4.5,4.5,4.5h10c2.481,0,4.5-2.019,4.5-4.5v-21C24.5,2.019,22.481,0,20,0z M14,2h2
			c0.276,0,0.5,0.224,0.5,0.5S16.276,3,16,3h-2c-0.276,0-0.5-0.224-0.5-0.5S13.724,2,14,2z M15,27.5c-0.552,0-1-0.448-1-1
			s0.448-1,1-1s1,0.448,1,1S15.552,27.5,15,27.5z M23.5,23h-17V5h17V23z M17.065,14.089c-0.364-1.173-1.677-1.858-2.922-1.526
			c-1.228,0.328-1.932,1.51-1.639,2.75c0.466,1.973,0.072,2.189-0.662,2.403c-0.265,0.077-0.418,0.354-0.341,0.62
			c0.063,0.218,0.264,0.36,0.48,0.36c0.046,0,0.093-0.006,0.14-0.02c1.718-0.499,1.792-1.745,1.355-3.592
			c-0.168-0.713,0.221-1.366,0.924-1.554c0.735-0.195,1.503,0.188,1.709,0.854c0.086,0.282,0.317,0.604,1.198,1.334
			c0.214,0.177,0.528,0.147,0.704-0.065c0.177-0.213,0.147-0.528-0.065-0.704C17.204,14.333,17.083,14.131,17.065,14.089z"/>
	</g>
</g>
</svg>
