<?xml version="1.0" encoding="iso-8859-1"?>
<!-- Generator: Adobe Illustrator 19.0.0, SVG Export Plug-In . SVG Version: 6.00 Build 0)  -->
<svg version="1.1" id="Layer_1" xmlns="http://www.w3.org/2000/svg" xmlns:xlink="http://www.w3.org/1999/xlink" x="0px" y="0px"
	 viewBox="0 0 30 30" style="enable-background:new 0 0 30 30;" xml:space="preserve">
<g>
	<g>
		<path d="M9,5.5h11c0.144,0,0.28-0.062,0.375-0.169c0.095-0.107,0.139-0.251,0.121-0.393l-0.5-4C19.965,0.688,19.752,0.5,19.5,0.5
			h-10c-0.252,0-0.465,0.188-0.496,0.438l-0.5,4C8.486,5.08,8.53,5.224,8.625,5.331C8.72,5.438,8.856,5.5,9,5.5z M23.5,12.5
			c0.276,0,0.5-0.224,0.5-0.5v-1c0-0.276-0.224-0.5-0.5-0.5S23,10.724,23,11V9c0-1.378-1.122-2.5-2.5-2.5h-12C7.122,6.5,6,7.622,6,9
			v12c0,1.378,1.122,2.5,2.5,2.5h12c1.378,0,2.5-1.122,2.5-2.5v-2c0,0.276,0.224,0.5,0.5,0.5S24,19.276,24,19v-1
			c0-0.276-0.224-0.5-0.5-0.5S23,17.724,23,18v-6C23,12.276,23.224,12.5,23.5,12.5z M12,14v4.5h-1.5c-0.276,0-0.5-0.224-0.5-0.5v-5
			c0-0.202,0.122-0.385,0.309-0.462c0.188-0.077,0.402-0.035,0.545,0.108l1.181,1.181C12.015,13.882,12,13.939,12,14z
			 M17.917,20.275C17.823,20.419,17.664,20.5,17.5,20.5c-0.063,0-0.125-0.012-0.186-0.036L13,18.738v-3.945l4.854,4.854
			C18.021,19.814,18.048,20.077,17.917,20.275z M19.854,19.354C19.756,19.451,19.628,19.5,19.5,19.5s-0.256-0.049-0.354-0.146l-9-9
			c-0.195-0.195-0.195-0.512,0-0.707s0.512-0.195,0.707,0l2.233,2.233l4.17-2.317c0.154-0.087,0.343-0.083,0.496,0.006
			C17.906,9.659,18,9.823,18,10v6.793l1.854,1.854C20.049,18.842,20.049,19.158,19.854,19.354z M19.833,24.5H9
			c-0.144,0-0.28,0.062-0.375,0.169c-0.095,0.107-0.139,0.251-0.121,0.393l0.5,4C9.035,29.312,9.248,29.5,9.5,29.5H19
			c0.237,0,0.441-0.166,0.489-0.398l0.833-4c0.031-0.147-0.006-0.301-0.101-0.417C20.126,24.568,19.984,24.5,19.833,24.5z"/>
	</g>
</g>
</svg>
