<?xml version="1.0" encoding="iso-8859-1"?>
<!-- Generator: Adobe Illustrator 19.0.0, SVG Export Plug-In . SVG Version: 6.00 Build 0)  -->
<svg version="1.1" id="Layer_1" xmlns="http://www.w3.org/2000/svg" xmlns:xlink="http://www.w3.org/1999/xlink" x="0px" y="0px"
	 viewBox="0 0 30 30" style="enable-background:new 0 0 30 30;" xml:space="preserve">
<g>
	<g>
		<path d="M10.208,5.427c2.734-1.23,5.849-1.23,8.583,0c0.065,0.029,0.135,0.044,0.205,0.044c0.105,0,0.209-0.033,0.297-0.098
			c0.146-0.107,0.222-0.285,0.199-0.464l-0.497-3.971C18.964,0.688,18.751,0.5,18.499,0.5h-8c-0.252,0-0.465,0.188-0.496,0.438
			L9.506,4.909C9.484,5.088,9.56,5.266,9.705,5.373C9.853,5.48,10.045,5.501,10.208,5.427z M18.792,24.573
			c-2.734,1.23-5.849,1.23-8.583,0c-0.165-0.074-0.356-0.055-0.502,0.054c-0.146,0.107-0.222,0.285-0.199,0.464l0.497,3.971
			c0.031,0.25,0.244,0.438,0.496,0.438h8c0.252,0,0.465-0.188,0.496-0.438l0.497-3.971c0.022-0.179-0.054-0.357-0.199-0.464
			C19.148,24.519,18.956,24.5,18.792,24.573z M24.5,13.5c-0.276,0-0.5,0.224-0.5,0.5v1v1c0,0.276,0.224,0.5,0.5,0.5S25,16.276,25,16
			v-2C25,13.724,24.776,13.5,24.5,13.5z M14.5,5.5C9.262,5.5,5,9.762,5,15s4.262,9.5,9.5,9.5c5.238,0,9.5-4.262,9.5-9.5
			S19.738,5.5,14.5,5.5z M22,15c0,0.276-0.224,0.5-0.5,0.5h-1.699l-0.824,2.648c-0.067,0.214-0.252,0.34-0.492,0.352
			c-0.224-0.006-0.417-0.161-0.471-0.379l-1.461-5.843l-1.564,7.82c-0.046,0.229-0.245,0.396-0.479,0.402h-0.012
			c-0.229,0-0.429-0.156-0.485-0.379l-1.584-6.334l-1.457,4.371c-0.066,0.199-0.25,0.335-0.459,0.342
			c-0.202-0.002-0.401-0.12-0.479-0.314L8.961,15.5H7.5C7.224,15.5,7,15.276,7,15s0.224-0.5,0.5-0.5h1.8
			c0.205,0,0.388,0.125,0.464,0.314l0.693,1.732l1.569-4.705c0.07-0.21,0.286-0.35,0.493-0.341c0.222,0.008,0.412,0.163,0.466,0.378
			l1.461,5.843l1.564-7.82c0.046-0.229,0.245-0.396,0.479-0.402c0.245,0.001,0.44,0.152,0.497,0.379l1.567,6.269l0.403-1.296
			c0.065-0.209,0.259-0.352,0.478-0.352h2.067C21.776,14.5,22,14.724,22,15z"/>
	</g>
</g>
</svg>
