<?xml version="1.0" encoding="iso-8859-1"?>
<!-- Generator: Adobe Illustrator 19.0.0, SVG Export Plug-In . SVG Version: 6.00 Build 0)  -->
<svg version="1.1" id="Layer_1" xmlns="http://www.w3.org/2000/svg" xmlns:xlink="http://www.w3.org/1999/xlink" x="0px" y="0px"
	 viewBox="0 0 30 30" style="enable-background:new 0 0 30 30;" xml:space="preserve">
<g>
	<g>
		<path d="M18.791,24.573c-2.732,1.23-5.85,1.23-8.582,0c-0.165-0.074-0.358-0.053-0.502,0.054
			c-0.146,0.107-0.222,0.285-0.199,0.464l0.496,3.971c0.031,0.25,0.244,0.438,0.496,0.438h8c0.252,0,0.465-0.188,0.496-0.438
			l0.496-3.971c0.022-0.179-0.054-0.357-0.199-0.464C19.149,24.52,18.956,24.499,18.791,24.573z M10.209,5.427
			c2.732-1.23,5.85-1.23,8.582,0c0.065,0.029,0.136,0.044,0.205,0.044c0.105,0,0.21-0.033,0.297-0.098
			c0.146-0.107,0.222-0.285,0.199-0.464l-0.496-3.971C18.965,0.688,18.752,0.5,18.5,0.5h-8c-0.252,0-0.465,0.188-0.496,0.438
			L9.508,4.909C9.486,5.088,9.562,5.266,9.707,5.373C9.851,5.48,10.044,5.5,10.209,5.427z M14.5,5.5C9.262,5.5,5,9.762,5,15
			s4.262,9.5,9.5,9.5c5.238,0,9.5-4.262,9.5-9.5S19.738,5.5,14.5,5.5z M14.45,19c-0.552,0-1-0.448-1-1s0.448-1,1-1s1,0.448,1,1
			S15.002,19,14.45,19z M16.925,16.232c-0.098,0.098-0.226,0.146-0.354,0.146c-0.128,0-0.256-0.049-0.354-0.146
			c-0.974-0.975-2.561-0.976-3.536,0c-0.195,0.195-0.512,0.195-0.707,0s-0.195-0.512,0-0.707c1.321-1.321,3.627-1.322,4.95,0
			C17.12,15.721,17.12,16.037,16.925,16.232z M18.339,14.818c-0.098,0.098-0.226,0.146-0.354,0.146
			c-0.128,0-0.256-0.049-0.354-0.146c-1.755-1.755-4.611-1.753-6.364,0c-0.195,0.195-0.512,0.195-0.707,0s-0.195-0.512,0-0.707
			c2.144-2.143,5.633-2.145,7.778,0C18.534,14.306,18.534,14.623,18.339,14.818z M19.753,13.404
			c-0.098,0.098-0.226,0.146-0.354,0.146c-0.128,0-0.256-0.049-0.354-0.146c-1.228-1.228-2.86-1.904-4.596-1.904
			c-1.736,0-3.369,0.676-4.597,1.904c-0.195,0.195-0.512,0.195-0.707,0s-0.195-0.512,0-0.707c1.416-1.417,3.3-2.197,5.304-2.197
			c2.003,0,3.887,0.78,5.303,2.197C19.948,12.892,19.948,13.208,19.753,13.404z M24.5,13.5c-0.276,0-0.5,0.224-0.5,0.5v1v1
			c0,0.276,0.224,0.5,0.5,0.5S25,16.276,25,16v-2C25,13.724,24.776,13.5,24.5,13.5z"/>
	</g>
</g>
</svg>
