<?xml version="1.0" encoding="iso-8859-1"?>
<!-- Generator: Adobe Illustrator 19.0.0, SVG Export Plug-In . SVG Version: 6.00 Build 0)  -->
<svg version="1.1" id="Layer_1" xmlns="http://www.w3.org/2000/svg" xmlns:xlink="http://www.w3.org/1999/xlink" x="0px" y="0px"
	 viewBox="0 0 30 30" style="enable-background:new 0 0 30 30;" xml:space="preserve">
<g>
	<g>
		<path d="M2.753,10.354c0.195-0.195,0.195-0.512,0-0.707c-0.195-0.195-0.512-0.195-0.707,0c-2.729,2.729-2.729,7.17,0,9.899
			c0.098,0.098,0.226,0.146,0.354,0.146s0.256-0.049,0.354-0.146c0.195-0.195,0.195-0.512,0-0.707
			C0.415,16.5,0.415,12.693,2.753,10.354z M2.997,14.611c0-1.336,0.521-2.591,1.465-3.536c0.195-0.195,0.195-0.512-0.001-0.707
			c-0.195-0.195-0.512-0.195-0.707,0c-1.134,1.133-1.758,2.64-1.758,4.243c0,1.603,0.624,3.109,1.758,4.243
			C3.852,18.952,3.98,19,4.108,19c0.128,0,0.256-0.049,0.354-0.146c0.195-0.195,0.195-0.512,0-0.707
			C3.518,17.203,2.997,15.947,2.997,14.611z M17.5,0c-2.785,0-5.423,1.083-7.629,3.134c-0.15,0.14-0.2,0.358-0.125,0.549
			C9.821,3.874,10.007,4,10.212,4H11.5c0.471,0,0.928,0.092,1.358,0.275c0.149,0.063,0.322,0.051,0.46-0.037
			C14.634,3.417,16.04,3,17.5,3C22.738,3,27,8.383,27,15s-4.262,12-9.5,12c-1.459,0-2.865-0.417-4.182-1.238
			c-0.138-0.088-0.311-0.103-0.46-0.036C12.428,25.907,11.971,26,11.5,26h-1.288c-0.205,0-0.391,0.126-0.466,0.317
			c-0.075,0.191-0.025,0.409,0.125,0.549C12.077,28.916,14.715,30,17.5,30C24.393,30,30,23.271,30,15S24.393,0,17.5,0z M14,22.5v-15
			C14,6.122,12.879,5,11.5,5h-3C7.121,5,6,6.122,6,7.5v15C6,23.879,7.121,25,8.5,25h3C12.879,25,14,23.879,14,22.5z M10,16
			c-0.552,0-1-0.448-1-1s0.448-1,1-1s1,0.448,1,1S10.552,16,10,16z M10,15h0.5H10L10,15z"/>
	</g>
</g>
</svg>
