<?xml version="1.0" encoding="iso-8859-1"?>
<!-- Generator: Adobe Illustrator 19.0.0, SVG Export Plug-In . SVG Version: 6.00 Build 0)  -->
<svg version="1.1" id="Layer_1" xmlns="http://www.w3.org/2000/svg" xmlns:xlink="http://www.w3.org/1999/xlink" x="0px" y="0px"
	 viewBox="0 0 30 30" style="enable-background:new 0 0 30 30;" xml:space="preserve">
<g>
	<g>
		<path d="M21.794,0H8.206C6.516,0,4,0.637,4,2.391v25.218C4,29.363,6.516,30,8.206,30h13.588C23.484,30,26,29.363,26,27.609V2.391
			C26,0.637,23.484,0,21.794,0z M16.5,28h-3c-0.276,0-0.5-0.224-0.5-0.5s0.224-0.5,0.5-0.5h3c0.276,0,0.5,0.224,0.5,0.5
			S16.776,28,16.5,28z M24,25.5c0,0.276-0.224,0.5-0.5,0.5h-17C6.224,26,6,25.776,6,25.5v-23C6,2.224,6.224,2,6.5,2h17
			C23.776,2,24,2.224,24,2.5V25.5z"/>
	</g>
</g>
</svg>
