<?xml version="1.0" encoding="utf-8"?>
<!-- Generator: Adobe Illustrator 19.0.0, SVG Export Plug-In . SVG Version: 6.00 Build 0)  -->
<svg version="1.1" id="Layer_1" xmlns="http://www.w3.org/2000/svg" xmlns:xlink="http://www.w3.org/1999/xlink" x="0px" y="0px"
	 viewBox="0 0 30 30" style="enable-background:new 0 0 30 30;" xml:space="preserve">
<g>
	<g>
		<g>
			<path d="M25.7,29.5H4.3c-2.4,0-4.3-1.9-4.3-4.3V5c0-2.5,1.8-4.5,4-4.5h22c2.4,0,4,1.6,4,4v20.7C30,27.6,28.1,29.5,25.7,29.5z
				 M4,1.5C2.1,1.5,1,3.3,1,5v20.2c0,1.8,1.5,3.3,3.3,3.3h21.4c1.8,0,3.3-1.5,3.3-3.3V4.5c0-1.8-1.2-3-3-3H4z"/>
		</g>
		<g>
			<path d="M3.5,7.5h-3C0.2,7.5,0,7.3,0,7s0.2-0.5,0.5-0.5h3C3.8,6.5,4,6.7,4,7S3.8,7.5,3.5,7.5z"/>
		</g>
		<g>
			<path d="M10.5,7.5h-3C7.2,7.5,7,7.3,7,7s0.2-0.5,0.5-0.5h3C10.8,6.5,11,6.7,11,7S10.8,7.5,10.5,7.5z"/>
		</g>
		<g>
			<path d="M21.5,7.5h-7C14.2,7.5,14,7.3,14,7s0.2-0.5,0.5-0.5h7C21.8,6.5,22,6.7,22,7S21.8,7.5,21.5,7.5z"/>
		</g>
		<g>
			<path d="M29.5,7.5H26c-0.3,0-0.5-0.2-0.5-0.5s0.2-0.5,0.5-0.5h3.5C29.8,6.5,30,6.7,30,7S29.8,7.5,29.5,7.5z"/>
		</g>
		<g>
			<path d="M3.5,15.5H1c-0.3,0-0.5-0.2-0.5-0.5s0.2-0.5,0.5-0.5h2.5C3.8,14.5,4,14.7,4,15S3.8,15.5,3.5,15.5z"/>
		</g>
		<g>
			<path d="M29.5,15.5H26c-0.3,0-0.5-0.2-0.5-0.5s0.2-0.5,0.5-0.5h3.5c0.3,0,0.5,0.2,0.5,0.5S29.8,15.5,29.5,15.5z"/>
		</g>
		<g>
			<path d="M29.5,23.5h-9c-0.3,0-0.5-0.2-0.5-0.5s0.2-0.5,0.5-0.5h9c0.3,0,0.5,0.2,0.5,0.5S29.8,23.5,29.5,23.5z"/>
		</g>
		<g>
			<path d="M3.5,23.5H1c-0.3,0-0.5-0.2-0.5-0.5s0.2-0.5,0.5-0.5h2.5C3.8,22.5,4,22.7,4,23S3.8,23.5,3.5,23.5z"/>
		</g>
		<g>
			<path d="M23.5,9.5C22.1,9.5,21,8.4,21,7s1.1-2.5,2.5-2.5S26,5.6,26,7S24.9,9.5,23.5,9.5z M23.5,5.5C22.7,5.5,22,6.2,22,7
				s0.7,1.5,1.5,1.5S25,7.8,25,7S24.3,5.5,23.5,5.5z"/>
		</g>
		<g>
			<path d="M12.5,9.5C11.1,9.5,10,8.4,10,7s1.1-2.5,2.5-2.5S15,5.6,15,7S13.9,9.5,12.5,9.5z M12.5,5.5C11.7,5.5,11,6.2,11,7
				s0.7,1.5,1.5,1.5S14,7.8,14,7S13.3,5.5,12.5,5.5z"/>
		</g>
		<g>
			<path d="M5.5,9.5C4.1,9.5,3,8.4,3,7s1.1-2.5,2.5-2.5S8,5.6,8,7S6.9,9.5,5.5,9.5z M5.5,5.5C4.7,5.5,4,6.2,4,7s0.7,1.5,1.5,1.5
				S7,7.8,7,7S6.3,5.5,5.5,5.5z"/>
		</g>
		<g>
			<path d="M5.5,17.5C4.1,17.5,3,16.4,3,15s1.1-2.5,2.5-2.5S8,13.6,8,15S6.9,17.5,5.5,17.5z M5.5,13.5C4.7,13.5,4,14.2,4,15
				s0.7,1.5,1.5,1.5S7,15.8,7,15S6.3,13.5,5.5,13.5z"/>
		</g>
		<g>
			<path d="M17.5,17.5c-1.4,0-2.5-1.1-2.5-2.5s1.1-2.5,2.5-2.5S20,13.6,20,15S18.9,17.5,17.5,17.5z M17.5,13.5
				c-0.8,0-1.5,0.7-1.5,1.5s0.7,1.5,1.5,1.5S19,15.8,19,15S18.3,13.5,17.5,13.5z"/>
		</g>
		<g>
			<path d="M23.5,17.5c-1.4,0-2.5-1.1-2.5-2.5s1.1-2.5,2.5-2.5S26,13.6,26,15S24.9,17.5,23.5,17.5z M23.5,13.5
				c-0.8,0-1.5,0.7-1.5,1.5s0.7,1.5,1.5,1.5S25,15.8,25,15S24.3,13.5,23.5,13.5z"/>
		</g>
		<g>
			<path d="M18.5,25.5c-1.4,0-2.5-1.1-2.5-2.5s1.1-2.5,2.5-2.5S21,21.6,21,23S19.9,25.5,18.5,25.5z M18.5,21.5
				c-0.8,0-1.5,0.7-1.5,1.5s0.7,1.5,1.5,1.5S20,23.8,20,23S19.3,21.5,18.5,21.5z"/>
		</g>
		<g>
			<path d="M12.5,25.5c-1.4,0-2.5-1.1-2.5-2.5s1.1-2.5,2.5-2.5S15,21.6,15,23S13.9,25.5,12.5,25.5z M12.5,21.5
				c-0.8,0-1.5,0.7-1.5,1.5s0.7,1.5,1.5,1.5S14,23.8,14,23S13.3,21.5,12.5,21.5z"/>
		</g>
		<g>
			<path d="M5.5,25.5C4.1,25.5,3,24.4,3,23s1.1-2.5,2.5-2.5S8,21.6,8,23S6.9,25.5,5.5,25.5z M5.5,21.5C4.7,21.5,4,22.2,4,23
				s0.7,1.5,1.5,1.5S7,23.8,7,23S6.3,21.5,5.5,21.5z"/>
		</g>
		<g>
			<path d="M15.5,15.5h-8C7.2,15.5,7,15.3,7,15s0.2-0.5,0.5-0.5h8c0.3,0,0.5,0.2,0.5,0.5S15.8,15.5,15.5,15.5z"/>
		</g>
		<g>
			<path d="M21.5,15.5h-2c-0.3,0-0.5-0.2-0.5-0.5s0.2-0.5,0.5-0.5h2c0.3,0,0.5,0.2,0.5,0.5S21.8,15.5,21.5,15.5z"/>
		</g>
		<g>
			<path d="M10,23.5H7.5C7.2,23.5,7,23.3,7,23s0.2-0.5,0.5-0.5H10c0.3,0,0.5,0.2,0.5,0.5S10.3,23.5,10,23.5z"/>
		</g>
		<g>
			<path d="M16.5,23.5h-2c-0.3,0-0.5-0.2-0.5-0.5s0.2-0.5,0.5-0.5h2c0.3,0,0.5,0.2,0.5,0.5S16.8,23.5,16.5,23.5z"/>
		</g>
	</g>
</g>
</svg>
