<?xml version="1.0" encoding="iso-8859-1"?>
<!-- Generator: Adobe Illustrator 19.0.0, SVG Export Plug-In . SVG Version: 6.00 Build 0)  -->
<svg version="1.1" id="Layer_1" xmlns="http://www.w3.org/2000/svg" xmlns:xlink="http://www.w3.org/1999/xlink" x="0px" y="0px"
	 viewBox="0 0 24 24" style="enable-background:new 0 0 24 24;" xml:space="preserve">
<g>
	<g>
		<g>
			<path d="M12,19c-5.238,0-9.5-4.262-9.5-9.5S6.762,0,12,0s9.5,4.262,9.5,9.5S17.238,19,12,19z M12,1C7.313,1,3.5,4.813,3.5,9.5
				S7.313,18,12,18s8.5-3.813,8.5-8.5S16.687,1,12,1z"/>
		</g>
		<g>
			<path d="M13.199,18.92c-0.114,0-0.228-0.039-0.321-0.117c-0.211-0.178-0.239-0.493-0.062-0.705
				c0.528-0.629,1.325-1.694,1.445-2.091c0.095-0.316,0.104-1.017,0.017-1.23c-0.086-0.208-0.583-0.556-0.945-0.81
				c-0.708-0.497-1.441-1.01-1.441-1.729c0-0.411,0.358-0.642,0.62-0.812c0.045-0.029,0.104-0.067,0.15-0.1
				c-0.141-0.753-1.452-1.71-2.517-2.487C9.294,8.22,8.491,7.633,8.072,7.053c-0.274-0.381-0.74-1.221-0.863-1.743
				C7.131,4.979,7.188,4.57,7.249,4.136C7.285,3.874,7.35,3.414,7.312,3.209C7.234,3.196,7.125,3.185,7.05,3.178
				C6.69,3.142,6.022,3.075,6.022,2.457c0-0.276,0.224-0.5,0.5-0.5c0.164,0,0.309,0.079,0.4,0.2c0.069,0.011,0.159,0.02,0.227,0.026
				c0.345,0.035,0.736,0.074,0.952,0.372c0.316,0.439,0.226,1.09,0.138,1.72C8.198,4.567,8.147,4.932,8.183,5.081
				c0.077,0.327,0.456,1.048,0.701,1.387c0.325,0.451,1.101,1.017,1.851,1.564c1.445,1.055,2.939,2.145,2.939,3.424
				c0,0.411-0.358,0.642-0.62,0.812c-0.035,0.023-0.08,0.051-0.119,0.079c0.155,0.23,0.692,0.606,0.972,0.803
				c0.564,0.395,1.097,0.769,1.295,1.246c0.208,0.503,0.149,1.462,0.017,1.901c-0.223,0.736-1.402,2.166-1.636,2.445
				C13.483,18.859,13.342,18.92,13.199,18.92z"/>
		</g>
		<g>
			<path d="M19.435,15.087c-0.03,0-0.06-0.002-0.091-0.008c-0.271-0.05-0.451-0.31-0.401-0.582c0.219-1.197,0.26-2.506,0.086-2.748
				c-0.104-0.131-0.704-0.242-1.026-0.301c-0.452-0.083-0.878-0.163-1.179-0.349c-0.179-0.11-0.321-0.285-0.472-0.471
				c-0.076-0.093-0.203-0.25-0.258-0.285c-0.13-0.054-0.594,0.005-0.901,0.043c-0.532,0.066-1.034,0.128-1.428-0.034
				c-0.409-0.169-1.12-0.582-1.713-1.086c-0.833-0.709-1.138-1.353-0.905-1.915c0.241-0.582,0.918-0.436,1.369-0.337
				c0.145,0.032,0.381,0.087,0.465,0.074c0.227-0.154,0.518-0.971,0.729-1.566c0.194-0.545,0.377-1.06,0.623-1.401
				c0.11-0.153,0.275-0.269,0.449-0.392c0.014-0.01,0.03-0.021,0.046-0.033c-0.129-0.047-0.278-0.092-0.38-0.122
				c-0.3-0.09-0.583-0.175-0.785-0.321c-0.15-0.108-0.267-0.268-0.391-0.438c-0.02-0.027-0.043-0.059-0.067-0.092
				c-0.001,0.001-0.002,0.003-0.003,0.004c-0.169,0.261-0.401,0.62-0.812,0.62c-0.604,0-1.123-0.799-1.244-1.09
				c-0.151-0.366-0.105-0.891-0.065-1.354c0.014-0.155,0.027-0.296,0.027-0.403c0-0.276,0.224-0.5,0.5-0.5s0.5,0.224,0.5,0.5
				c0,0.13-0.014,0.302-0.031,0.49c-0.021,0.242-0.065,0.745-0.007,0.884c0.042,0.102,0.155,0.256,0.256,0.366
				c0.013-0.02,0.025-0.038,0.036-0.055c0.169-0.261,0.401-0.619,0.811-0.619c0.425,0,0.692,0.366,0.907,0.661
				c0.055,0.076,0.139,0.19,0.174,0.221c0.062,0.043,0.314,0.119,0.481,0.169c0.556,0.167,1.185,0.356,1.279,0.934
				c0.077,0.479-0.347,0.779-0.657,0.997c-0.076,0.054-0.19,0.135-0.222,0.169c-0.155,0.216-0.323,0.687-0.484,1.142
				c-0.305,0.857-0.62,1.743-1.216,2.111c-0.324,0.2-0.736,0.11-1.134,0.023c-0.04-0.008-0.087-0.019-0.136-0.029
				c0.302,0.432,1.258,1.166,1.981,1.466c0.149,0.061,0.613,0.004,0.921-0.034c0.53-0.067,1.031-0.129,1.426,0.034
				c0.256,0.107,0.447,0.341,0.632,0.568c0.071,0.088,0.18,0.221,0.226,0.253c0.138,0.085,0.523,0.157,0.832,0.214
				c0.653,0.121,1.329,0.246,1.655,0.7c0.541,0.75,0.203,2.878,0.086,3.513C19.882,14.918,19.672,15.087,19.435,15.087z"/>
		</g>
	</g>
	<g>
		<g>
			<g>
				<path d="M14,24h-4c-0.276,0-0.5-0.224-0.5-0.5v-2c0-0.276,0.224-0.5,0.5-0.5h0.5v-0.5c0-0.276,0.224-0.5,0.5-0.5h2
					c0.276,0,0.5,0.224,0.5,0.5V21H14c0.276,0,0.5,0.224,0.5,0.5v2C14.5,23.776,14.276,24,14,24z M10.5,23h3v-1H13
					c-0.276,0-0.5-0.224-0.5-0.5V21h-1v0.5c0,0.276-0.224,0.5-0.5,0.5h-0.5V23z"/>
			</g>
			<g>
				<path d="M12,21c-0.276,0-0.5-0.224-0.5-0.5v-2c0-0.276,0.224-0.5,0.5-0.5s0.5,0.224,0.5,0.5v2C12.5,20.776,12.276,21,12,21z"/>
			</g>
			<g>
				<path d="M19,23h-5c-0.276,0-0.5-0.224-0.5-0.5S13.724,22,14,22h5c0.276,0,0.5,0.224,0.5,0.5S19.276,23,19,23z"/>
			</g>
			<g>
				<path d="M10,23H5c-0.276,0-0.5-0.224-0.5-0.5S4.724,22,5,22h5c0.276,0,0.5,0.224,0.5,0.5S10.276,23,10,23z"/>
			</g>
		</g>
	</g>
</g>
<g>
</g>
<g>
</g>
<g>
</g>
<g>
</g>
<g>
</g>
<g>
</g>
<g>
</g>
<g>
</g>
<g>
</g>
<g>
</g>
<g>
</g>
<g>
</g>
<g>
</g>
<g>
</g>
<g>
</g>
</svg>
