<?xml version="1.0" encoding="iso-8859-1"?>
<!-- Generator: Adobe Illustrator 19.0.0, SVG Export Plug-In . SVG Version: 6.00 Build 0)  -->
<svg version="1.1" id="Layer_1" xmlns="http://www.w3.org/2000/svg" xmlns:xlink="http://www.w3.org/1999/xlink" x="0px" y="0px"
	 viewBox="0 0 24 24" style="enable-background:new 0 0 24 24;" xml:space="preserve">
<g>
	<g>
		<path d="M21,16.5H3c-1.379,0-2.5-1.122-2.5-2.5v-4c0-1.378,1.121-2.5,2.5-2.5h18c1.379,0,2.5,1.122,2.5,2.5v4
			C23.5,15.378,22.379,16.5,21,16.5z M3,8.5c-0.827,0-1.5,0.673-1.5,1.5v4c0,0.827,0.673,1.5,1.5,1.5h18c0.827,0,1.5-0.673,1.5-1.5
			v-4c0-0.827-0.673-1.5-1.5-1.5H3z"/>
	</g>
	<g>
		<g>
			<path d="M12,8.5c-0.276,0-0.5-0.224-0.5-0.5V3c0-0.276,0.224-0.5,0.5-0.5s0.5,0.224,0.5,0.5v5C12.5,8.276,12.276,8.5,12,8.5z"/>
		</g>
		<g>
			<path d="M12,21.5c-0.276,0-0.5-0.224-0.5-0.5v-5c0-0.276,0.224-0.5,0.5-0.5s0.5,0.224,0.5,0.5v5C12.5,21.276,12.276,21.5,12,21.5
				z"/>
		</g>
		<g>
			<g>
				<path d="M16.475,8.5c-0.22,0-0.421-0.145-0.481-0.367C15.214,5.319,13.646,3.5,12,3.5S8.786,5.319,8.007,8.133
					C7.935,8.399,7.661,8.555,7.392,8.482C7.126,8.408,6.97,8.133,7.044,7.867C7.96,4.556,9.858,2.5,12,2.5s4.04,2.056,4.956,5.367
					c0.074,0.266-0.082,0.542-0.348,0.615C16.563,8.494,16.519,8.5,16.475,8.5z"/>
			</g>
			<g>
				<path d="M12,21.5c-2.142,0-4.04-2.056-4.956-5.367c-0.074-0.266,0.082-0.542,0.348-0.615c0.271-0.072,0.543,0.083,0.615,0.349
					C8.786,18.681,10.354,20.5,12,20.5s3.214-1.819,3.993-4.633c0.072-0.266,0.346-0.421,0.615-0.349
					c0.266,0.074,0.422,0.349,0.348,0.615C16.04,19.444,14.142,21.5,12,21.5z"/>
			</g>
		</g>
		<g>
			<g>
				<path d="M20.054,8.5c-0.184,0-0.36-0.102-0.447-0.277C18.156,5.31,15.242,3.5,12,3.5S5.844,5.31,4.394,8.223
					C4.271,8.47,3.969,8.571,3.724,8.448c-0.247-0.123-0.348-0.423-0.225-0.67C5.119,4.522,8.376,2.5,12,2.5
					s6.881,2.022,8.501,5.277c0.123,0.247,0.022,0.547-0.225,0.67C20.205,8.483,20.129,8.5,20.054,8.5z"/>
			</g>
			<g>
				<path d="M12,21.5c-3.624,0-6.881-2.022-8.501-5.277c-0.123-0.247-0.022-0.547,0.225-0.67c0.245-0.122,0.547-0.023,0.67,0.225
					C5.844,18.69,8.758,20.5,12,20.5s6.156-1.81,7.606-4.723c0.123-0.248,0.424-0.347,0.67-0.225
					c0.247,0.123,0.348,0.423,0.225,0.67C18.881,19.478,15.624,21.5,12,21.5z"/>
			</g>
		</g>
	</g>
	<g>
		<path d="M13,14.5c-0.215,0-0.406-0.137-0.475-0.342L12,12.581l-0.525,1.577c-0.07,0.21-0.233,0.352-0.494,0.341
			c-0.222-0.008-0.412-0.163-0.466-0.378l-1-4C9.448,9.854,9.61,9.582,9.879,9.515c0.264-0.068,0.54,0.095,0.606,0.364l0.583,2.334
			l0.457-1.371c0.137-0.408,0.813-0.408,0.949,0l0.457,1.371l0.583-2.334c0.066-0.269,0.334-0.431,0.606-0.364
			c0.269,0.067,0.431,0.338,0.364,0.606l-1,4c-0.054,0.216-0.244,0.37-0.466,0.378C13.013,14.5,13.006,14.5,13,14.5z"/>
	</g>
	<g>
		<path d="M7,14.5c-0.215,0-0.406-0.137-0.475-0.342L6,12.581l-0.525,1.577c-0.07,0.21-0.229,0.352-0.494,0.341
			c-0.222-0.008-0.412-0.163-0.466-0.378l-1-4C3.448,9.854,3.61,9.582,3.879,9.515C4.143,9.447,4.418,9.61,4.485,9.879l0.583,2.334
			l0.457-1.371c0.137-0.408,0.813-0.408,0.949,0l0.457,1.371l0.583-2.334C7.582,9.61,7.849,9.448,8.121,9.515
			c0.269,0.067,0.431,0.338,0.364,0.606l-1,4c-0.054,0.216-0.244,0.37-0.466,0.378C7.013,14.5,7.006,14.5,7,14.5z"/>
	</g>
	<g>
		<path d="M19,14.5c-0.215,0-0.406-0.137-0.475-0.342L18,12.581l-0.525,1.577c-0.07,0.21-0.238,0.352-0.494,0.341
			c-0.222-0.008-0.412-0.163-0.466-0.378l-1-4c-0.066-0.268,0.096-0.539,0.364-0.606c0.264-0.068,0.54,0.095,0.606,0.364
			l0.583,2.334l0.457-1.371c0.137-0.408,0.813-0.408,0.949,0l0.457,1.371l0.583-2.334c0.066-0.269,0.333-0.431,0.606-0.364
			c0.269,0.067,0.431,0.338,0.364,0.606l-1,4c-0.054,0.216-0.244,0.37-0.466,0.378C19.013,14.5,19.006,14.5,19,14.5z"/>
	</g>
</g>
<g>
</g>
<g>
</g>
<g>
</g>
<g>
</g>
<g>
</g>
<g>
</g>
<g>
</g>
<g>
</g>
<g>
</g>
<g>
</g>
<g>
</g>
<g>
</g>
<g>
</g>
<g>
</g>
<g>
</g>
</svg>
