<?xml version="1.0" encoding="iso-8859-1"?>
<!-- Generator: Adobe Illustrator 19.0.0, SVG Export Plug-In . SVG Version: 6.00 Build 0)  -->
<svg version="1.1" id="Layer_1" xmlns="http://www.w3.org/2000/svg" xmlns:xlink="http://www.w3.org/1999/xlink" x="0px" y="0px"
	 viewBox="0 0 24 24" style="enable-background:new 0 0 24 24;" xml:space="preserve">
<g>
	<g>
		<path d="M2,15.985H0.5c-0.276,0-0.5-0.224-0.5-0.5v-6c0-0.276,0.224-0.5,0.5-0.5H2c1.103,0,2,0.897,2,2
			c0,0.597-0.263,1.133-0.679,1.5C3.737,12.852,4,13.388,4,13.985C4,15.088,3.103,15.985,2,15.985z M1,14.985h1c0.552,0,1-0.449,1-1
			s-0.448-1-1-1H1V14.985z M1,11.985h1c0.552,0,1-0.449,1-1s-0.448-1-1-1H1V11.985z"/>
	</g>
	<g>
		<path d="M8,15.985H5.5c-0.276,0-0.5-0.224-0.5-0.5v-6c0-0.276,0.224-0.5,0.5-0.5S6,9.208,6,9.485v5.5h2c0.276,0,0.5,0.224,0.5,0.5
			S8.276,15.985,8,15.985z"/>
	</g>
	<g>
		<path d="M13.5,15.985c-0.209,0-0.404-0.132-0.475-0.342L11.5,11.066l-1.525,4.577c-0.088,0.262-0.37,0.403-0.633,0.316
			c-0.262-0.087-0.403-0.37-0.316-0.632l2-6c0.137-0.408,0.813-0.408,0.949,0l2,6c0.087,0.262-0.055,0.545-0.316,0.632
			C13.605,15.977,13.553,15.985,13.5,15.985z"/>
	</g>
	<g>
		<path d="M12.5,13.985h-2c-0.276,0-0.5-0.224-0.5-0.5s0.224-0.5,0.5-0.5h2c0.276,0,0.5,0.224,0.5,0.5S12.776,13.985,12.5,13.985z"
			/>
	</g>
	<g>
		<path d="M16,15.985c-1.103,0-2-0.897-2-2v-3c0-1.103,0.897-2,2-2s2,0.897,2,2c0,0.276-0.224,0.5-0.5,0.5s-0.5-0.224-0.5-0.5
			c0-0.551-0.448-1-1-1s-1,0.449-1,1v3c0,0.551,0.448,1,1,1s1-0.449,1-1c0-0.276,0.224-0.5,0.5-0.5s0.5,0.224,0.5,0.5
			C18,15.088,17.103,15.985,16,15.985z"/>
	</g>
	<g>
		<path d="M19.5,15.985c-0.276,0-0.5-0.224-0.5-0.5v-6c0-0.276,0.224-0.5,0.5-0.5s0.5,0.224,0.5,0.5v6
			C20,15.761,19.776,15.985,19.5,15.985z"/>
	</g>
	<g>
		<path d="M19.5,13.985c-0.104,0-0.21-0.033-0.3-0.1c-0.221-0.166-0.266-0.479-0.101-0.7l3-4c0.167-0.221,0.48-0.265,0.7-0.1
			c0.221,0.166,0.266,0.479,0.101,0.7l-3,4C19.802,13.916,19.651,13.985,19.5,13.985z"/>
	</g>
	<g>
		<path d="M22.5,15.985c-0.161,0-0.319-0.078-0.416-0.223l-2-3c-0.153-0.23-0.091-0.54,0.139-0.693
			c0.228-0.153,0.539-0.092,0.693,0.139l2,3c0.153,0.23,0.091,0.54-0.139,0.693C22.692,15.957,22.596,15.985,22.5,15.985z"/>
	</g>
	<g>
		<path d="M7.5,23.985c-0.128,0-0.256-0.049-0.354-0.146L5,21.692v1.793c0,0.276-0.224,0.5-0.5,0.5S4,23.761,4,23.485v-2.997
			c0-0.002,0-0.005,0-0.007v-2.996c0-0.276,0.224-0.5,0.5-0.5H6c1.103,0,2,0.897,2,2s-0.897,2-2,2H5.707l2.146,2.146
			c0.195,0.195,0.195,0.512,0,0.707C7.756,23.936,7.628,23.985,7.5,23.985z M5,19.985h1c0.552,0,1-0.449,1-1s-0.448-1-1-1H5V19.985z
			"/>
	</g>
	<g>
		<path d="M0.5,23.985c-0.276,0-0.5-0.224-0.5-0.5v-6c0-0.276,0.224-0.5,0.5-0.5H3c0.276,0,0.5,0.224,0.5,0.5s-0.224,0.5-0.5,0.5H1
			v5.5C1,23.761,0.776,23.985,0.5,23.985z"/>
	</g>
	<g>
		<path d="M2.5,20.985h-2c-0.276,0-0.5-0.224-0.5-0.5s0.224-0.5,0.5-0.5h2c0.276,0,0.5,0.224,0.5,0.5S2.776,20.985,2.5,20.985z"/>
	</g>
	<g>
		<path d="M9.5,23.985c-0.276,0-0.5-0.224-0.5-0.5v-6c0-0.276,0.224-0.5,0.5-0.5s0.5,0.224,0.5,0.5v6
			C10,23.761,9.776,23.985,9.5,23.985z"/>
	</g>
	<g>
		<path d="M13,23.985h-1.5c-0.276,0-0.5-0.224-0.5-0.5v-6c0-0.276,0.224-0.5,0.5-0.5H13c1.103,0,2,0.897,2,2v3
			C15,23.088,14.103,23.985,13,23.985z M12,22.985h1c0.552,0,1-0.449,1-1v-3c0-0.551-0.448-1-1-1h-1V22.985z"/>
	</g>
	<g>
		<path d="M19.5,23.985c-0.209,0-0.404-0.132-0.475-0.342L17.5,19.066l-1.525,4.577c-0.088,0.263-0.37,0.405-0.633,0.316
			c-0.262-0.087-0.403-0.37-0.316-0.632l2-6c0.137-0.408,0.813-0.408,0.949,0l2,6c0.087,0.262-0.055,0.545-0.316,0.632
			C19.605,23.977,19.553,23.985,19.5,23.985z"/>
	</g>
	<g>
		<path d="M18.5,21.985h-2c-0.276,0-0.5-0.224-0.5-0.5s0.224-0.5,0.5-0.5h2c0.276,0,0.5,0.224,0.5,0.5S18.776,21.985,18.5,21.985z"
			/>
	</g>
	<g>
		<path d="M21.5,20.985c-0.167,0-0.323-0.083-0.416-0.223l-2-3c-0.153-0.23-0.091-0.54,0.139-0.693
			c0.228-0.152,0.538-0.092,0.693,0.139l1.584,2.376l1.584-2.376c0.154-0.23,0.466-0.291,0.693-0.139
			c0.229,0.153,0.292,0.463,0.139,0.693l-2,3C21.823,20.901,21.667,20.985,21.5,20.985z"/>
	</g>
	<g>
		<path d="M21.5,23.985c-0.276,0-0.5-0.224-0.5-0.5v-3c0-0.276,0.224-0.5,0.5-0.5s0.5,0.224,0.5,0.5v3
			C22,23.761,21.776,23.985,21.5,23.985z"/>
	</g>
	<path d="M15.978,3.337c-0.056-0.181-0.209-0.314-0.396-0.345l-2.723-0.454l-0.896-2.239c-0.15-0.38-0.777-0.38-0.928,0
		l-0.896,2.239L7.418,2.992c-0.185,0.031-0.337,0.162-0.395,0.34c-0.057,0.179-0.01,0.374,0.123,0.506l1.818,1.818L8.507,8.403
		C8.475,8.595,8.558,8.789,8.719,8.898C8.804,8.956,8.901,8.985,9,8.985c0.089,0,0.178-0.023,0.257-0.071L11.5,7.568l2.243,1.346
		C13.822,8.961,13.911,8.985,14,8.985c0.008,0.001,0.015,0,0.02,0c0.276,0,0.5-0.224,0.5-0.5c0-0.081-0.019-0.157-0.053-0.225
		l-0.487-2.62l1.867-1.795C15.982,3.714,16.033,3.518,15.978,3.337z"/>
	<path d="M22.962,3.293c-0.077-0.187-0.26-0.309-0.462-0.309h-1.691l-0.861-1.724c-0.17-0.339-0.725-0.339-0.895,0l-0.861,1.724
		H16.5c-0.202,0-0.385,0.122-0.462,0.309s-0.034,0.402,0.108,0.545l1.311,1.311L17.01,7.387c-0.041,0.203,0.048,0.411,0.224,0.521
		C17.41,8.019,17.633,8.01,17.8,7.885l1.7-1.275l1.7,1.275c0.089,0.066,0.194,0.1,0.3,0.1c0.008,0,0.016,0.001,0.02,0
		c0.276,0,0.5-0.224,0.5-0.5c0-0.083-0.02-0.162-0.056-0.23l-0.421-2.105l1.311-1.311C22.996,3.695,23.039,3.48,22.962,3.293z"/>
	<path d="M6.962,3.293C6.885,3.106,6.702,2.985,6.5,2.985H4.809L3.947,1.261c-0.17-0.339-0.725-0.339-0.895,0L2.191,2.985H0.5
		c-0.202,0-0.385,0.122-0.462,0.309S0.004,3.695,0.146,3.838l1.311,1.311L1.01,7.387C0.969,7.59,1.058,7.797,1.233,7.908
		C1.409,8.019,1.634,8.01,1.8,7.885L3.5,6.61l1.7,1.275c0.089,0.066,0.194,0.1,0.3,0.1c0.007,0,0.015,0.001,0.02,0
		c0.276,0,0.5-0.224,0.5-0.5c0-0.083-0.02-0.162-0.056-0.23L5.543,5.149l1.311-1.311C6.996,3.695,7.039,3.48,6.962,3.293z"/>
</g>
<g>
</g>
<g>
</g>
<g>
</g>
<g>
</g>
<g>
</g>
<g>
</g>
<g>
</g>
<g>
</g>
<g>
</g>
<g>
</g>
<g>
</g>
<g>
</g>
<g>
</g>
<g>
</g>
<g>
</g>
</svg>
