<?xml version="1.0" encoding="iso-8859-1"?>
<!-- Generator: Adobe Illustrator 19.0.0, SVG Export Plug-In . SVG Version: 6.00 Build 0)  -->
<svg version="1.1" id="Layer_1" xmlns="http://www.w3.org/2000/svg" xmlns:xlink="http://www.w3.org/1999/xlink" x="0px" y="0px"
	 viewBox="0 0 24 24" style="enable-background:new 0 0 24 24;" xml:space="preserve">
<g>
	<path d="M13.5,15c0,0.397,0.333,0.674,1,0.867v-1.803C13.925,14.205,13.5,14.575,13.5,15z"/>
	<path d="M15.5,17.133v1.803c0.575-0.141,1-0.511,1-0.936C16.5,17.603,16.166,17.326,15.5,17.133z"/>
	<path d="M19,0h-1c-0.276,0-0.5,0.224-0.5,0.5C17.5,0.776,17.275,1,17,1s-0.5-0.224-0.5-0.5C16.5,0.224,16.276,0,16,0
		s-0.5,0.224-0.5,0.5C15.5,0.776,15.275,1,15,1s-0.5-0.224-0.5-0.5C14.5,0.224,14.276,0,14,0s-0.5,0.224-0.5,0.5
		C13.5,0.776,13.275,1,13,1s-0.5-0.224-0.5-0.5C12.5,0.224,12.276,0,12,0s-0.5,0.224-0.5,0.5C11.5,0.776,11.275,1,11,1
		s-0.5-0.224-0.5-0.5C10.5,0.224,10.276,0,10,0S9.5,0.224,9.5,0.5C9.5,0.776,9.275,1,9,1S8.5,0.776,8.5,0.5C8.5,0.224,8.276,0,8,0
		S7.5,0.224,7.5,0.5C7.5,0.776,7.275,1,7,1S6.5,0.776,6.5,0.5C6.5,0.224,6.276,0,6,0H5C4.724,0,4.5,0.224,4.5,0.5v23
		C4.5,23.776,4.724,24,5,24h1c0.276,0,0.5-0.224,0.5-0.5C6.5,23.224,6.725,23,7,23s0.5,0.224,0.5,0.5C7.5,23.776,7.724,24,8,24
		s0.5-0.224,0.5-0.5C8.5,23.224,8.725,23,9,23s0.5,0.224,0.5,0.5c0,0.276,0.224,0.5,0.5,0.5s0.5-0.224,0.5-0.5
		c0-0.276,0.225-0.5,0.5-0.5s0.5,0.224,0.5,0.5c0,0.276,0.224,0.5,0.5,0.5s0.5-0.224,0.5-0.5c0-0.276,0.225-0.5,0.5-0.5
		s0.5,0.224,0.5,0.5c0,0.276,0.224,0.5,0.5,0.5s0.5-0.224,0.5-0.5c0-0.276,0.225-0.5,0.5-0.5s0.5,0.224,0.5,0.5
		c0,0.276,0.224,0.5,0.5,0.5s0.5-0.224,0.5-0.5c0-0.276,0.225-0.5,0.5-0.5s0.5,0.224,0.5,0.5c0,0.276,0.224,0.5,0.5,0.5h1
		c0.276,0,0.5-0.224,0.5-0.5v-23C19.5,0.224,19.276,0,19,0z M7,3h4c0.276,0,0.5,0.224,0.5,0.5S11.276,4,11,4H7
		C6.724,4,6.5,3.776,6.5,3.5S6.724,3,7,3z M11,19H7c-0.276,0-0.5-0.224-0.5-0.5S6.724,18,7,18h4c0.276,0,0.5,0.224,0.5,0.5
		S11.276,19,11,19z M11,16H7c-0.276,0-0.5-0.224-0.5-0.5S6.724,15,7,15h4c0.276,0,0.5,0.224,0.5,0.5S11.276,16,11,16z M12,13H7
		c-0.276,0-0.5-0.224-0.5-0.5S6.724,12,7,12h5c0.276,0,0.5,0.224,0.5,0.5S12.276,13,12,13z M15.5,19.959V20.5
		c0,0.276-0.224,0.5-0.5,0.5s-0.5-0.224-0.5-0.5v-0.539c-1.094-0.171-1.92-0.897-1.998-1.823c-0.023-0.275,0.181-0.517,0.456-0.54
		c0.25-0.032,0.518,0.18,0.54,0.456c0.034,0.406,0.451,0.75,1.002,0.884v-2.039c-1.344-0.331-2-0.962-2-1.899
		c0-0.966,0.86-1.773,2-1.959V12.5c0-0.276,0.224-0.5,0.5-0.5s0.5,0.224,0.5,0.5v0.539c1.094,0.171,1.92,0.897,1.998,1.822
		c0.023,0.275-0.181,0.518-0.456,0.541c-0.259,0.019-0.518-0.18-0.54-0.456c-0.034-0.406-0.451-0.75-1.002-0.884v2.039
		c1.345,0.331,2,0.962,2,1.899C17.5,18.966,16.64,19.773,15.5,19.959z M17,10H7c-0.276,0-0.5-0.224-0.5-0.5S6.724,9,7,9h10
		c0.276,0,0.5,0.224,0.5,0.5S17.276,10,17,10z M17,7H7C6.724,7,6.5,6.776,6.5,6.5S6.724,6,7,6h10c0.276,0,0.5,0.224,0.5,0.5
		S17.276,7,17,7z"/>
</g>
<g>
</g>
<g>
</g>
<g>
</g>
<g>
</g>
<g>
</g>
<g>
</g>
<g>
</g>
<g>
</g>
<g>
</g>
<g>
</g>
<g>
</g>
<g>
</g>
<g>
</g>
<g>
</g>
<g>
</g>
</svg>
