<?xml version="1.0" encoding="iso-8859-1"?>
<!-- Generator: Adobe Illustrator 19.0.0, SVG Export Plug-In . SVG Version: 6.00 Build 0)  -->
<svg version="1.1" id="Layer_1" xmlns="http://www.w3.org/2000/svg" xmlns:xlink="http://www.w3.org/1999/xlink" x="0px" y="0px"
	 viewBox="0 0 30 30" style="enable-background:new 0 0 30 30;" xml:space="preserve">
<g>
	<g>
		<path d="M7,3H2C1.173,3,0.5,3.673,0.5,4.5v1C0.5,6.327,1.173,7,2,7h5c0.276,0,0.5-0.224,0.5-0.5v-3C7.5,3.224,7.276,3,7,3z
			 M18.5,14h-7c-0.189,0-0.362,0.107-0.447,0.276c-0.084,0.169-0.066,0.372,0.047,0.524l0.4,0.533v3.833
			c0,1.011,0.822,1.833,1.833,1.833H14.5v4.232l-1.277,0.852c-0.188,0.125-0.268,0.36-0.197,0.574l1,3
			C14.094,29.862,14.285,30,14.5,30h1c0.215,0,0.406-0.138,0.474-0.342l1-3c0.071-0.214-0.009-0.449-0.197-0.574L15.5,25.232V21
			h1.167c1.011,0,1.833-0.822,1.833-1.833v-3.833l0.4-0.533c0.114-0.152,0.132-0.354,0.047-0.524C18.862,14.107,18.689,14,18.5,14z
			 M28,3h-5c-0.276,0-0.5,0.224-0.5,0.5v3C22.5,6.776,22.724,7,23,7h5c0.827,0,1.5-0.673,1.5-1.5v-1C29.5,3.673,28.827,3,28,3z
			 M19,0h-0.5v5.5C18.5,5.776,18.276,6,18,6s-0.5-0.224-0.5-0.5V0h-2v5.5C15.5,5.776,15.276,6,15,6s-0.5-0.224-0.5-0.5V0h-2v5.5
			C12.5,5.776,12.276,6,12,6s-0.5-0.224-0.5-0.5V0H11C9.622,0,8.5,1.122,8.5,2.5v8c0,1.378,1.122,2.5,2.5,2.5h8
			c1.378,0,2.5-1.122,2.5-2.5v-8C21.5,1.122,20.378,0,19,0z"/>
	</g>
</g>
</svg>
