<?xml version="1.0" encoding="iso-8859-1"?>
<!-- Generator: Adobe Illustrator 19.0.0, SVG Export Plug-In . SVG Version: 6.00 Build 0)  -->
<svg version="1.1" id="Layer_1" xmlns="http://www.w3.org/2000/svg" xmlns:xlink="http://www.w3.org/1999/xlink" x="0px" y="0px"
	 viewBox="0 0 30 30" style="enable-background:new 0 0 30 30;" xml:space="preserve">
<g>
	<g>
		<path d="M15,6.5h4.5C19.776,6.5,20,6.276,20,6V1c0-0.163-0.079-0.315-0.212-0.409c-0.133-0.094-0.303-0.116-0.457-0.062
			c-2.224,0.794-3.977,2.733-4.808,5.318c-0.049,0.152-0.022,0.318,0.072,0.447C14.69,6.424,14.84,6.5,15,6.5z M25.752,1.068
			c-0.155-0.091-0.346-0.092-0.501-0.002C25.096,1.155,25,1.32,25,1.5V6c0,1.132-0.892,2.5-2,2.5h-8.5C14.224,8.5,14,8.724,14,9
			c0,0.732,0.012,1.255,0.16,1.866L0.928,24.039C0.33,24.643,0,25.446,0,26.3c0,1.764,1.424,3.2,3.175,3.2
			c0.849,0,1.646-0.333,2.25-0.943l10.04-10.341c1.097-1.106,2.554-1.716,4.103-1.716H22c4.486,0,8-3.454,8-7.864
			C30,5.69,28.213,2.507,25.752,1.068z M3,27.5c-0.551,0-1-0.449-1-1c0-0.551,0.449-1,1-1c0.551,0,1,0.449,1,1
			C4,27.051,3.551,27.5,3,27.5z M19.947,11.224l-1.5,3c-0.088,0.175-0.264,0.276-0.448,0.276c-0.075,0-0.151-0.017-0.223-0.053
			c-0.247-0.124-0.347-0.424-0.224-0.671l1.5-3c0.125-0.248,0.424-0.347,0.671-0.224C19.971,10.676,20.071,10.977,19.947,11.224z
			 M22.447,11.224l-1.5,3c-0.088,0.175-0.264,0.276-0.448,0.276c-0.075,0-0.151-0.017-0.223-0.053
			c-0.247-0.124-0.347-0.424-0.224-0.671l1.5-3c0.124-0.248,0.424-0.347,0.671-0.224C22.471,10.676,22.571,10.977,22.447,11.224z
			 M24.947,11.224l-1.5,3c-0.088,0.175-0.264,0.276-0.448,0.276c-0.075,0-0.151-0.017-0.223-0.053
			c-0.247-0.124-0.347-0.424-0.224-0.671l1.5-3c0.124-0.248,0.423-0.347,0.671-0.224C24.971,10.676,25.071,10.977,24.947,11.224z"/>
	</g>
</g>
</svg>
