<?xml version="1.0" encoding="iso-8859-1"?>
<!-- Generator: Adobe Illustrator 19.0.0, SVG Export Plug-In . SVG Version: 6.00 Build 0)  -->
<svg version="1.1" id="Layer_1" xmlns="http://www.w3.org/2000/svg" xmlns:xlink="http://www.w3.org/1999/xlink" x="0px" y="0px"
	 viewBox="0 0 30 30" style="enable-background:new 0 0 30 30;" xml:space="preserve">
<g>
	<g>
		<path d="M26,4.5H4C2.07,4.5,0.5,6.07,0.5,8v14c0,1.93,1.57,3.5,3.5,3.5h22c1.93,0,3.5-1.57,3.5-3.5V8C29.5,6.07,27.93,4.5,26,4.5z
			 M13.5,18.5H11c-0.276,0-0.5-0.224-0.5-0.5v-5c0-0.196,0.115-0.374,0.293-0.455c0.178-0.082,0.389-0.05,0.536,0.079l1.375,1.203
			c0.008,0.007,0.017,0.015,0.024,0.023l0.772,0.772V18.5z M18.037,19.723c-0.095,0.144-0.253,0.225-0.417,0.225
			c-0.063,0-0.125-0.012-0.186-0.036L14.5,18.738v-3.116l3.473,3.473C18.141,19.262,18.168,19.525,18.037,19.723z M21.354,20.354
			C21.256,20.451,21.128,20.5,21,20.5s-0.256-0.049-0.354-0.146l-1.999-1.999l-0.001-0.001l-5.485-5.485l-0.001-0.001l-2.514-2.514
			c-0.195-0.195-0.195-0.512,0-0.707s0.512-0.195,0.707,0l2.255,2.255l5.184-2.357c0.155-0.07,0.335-0.056,0.478,0.035
			c0.143,0.092,0.229,0.25,0.229,0.42v7.793l1.854,1.854C21.549,19.842,21.549,20.158,21.354,20.354z"/>
	</g>
</g>
</svg>
