<?xml version="1.0" encoding="iso-8859-1"?>
<!-- Generator: Adobe Illustrator 19.0.0, SVG Export Plug-In . SVG Version: 6.00 Build 0)  -->
<svg version="1.1" id="Layer_1" xmlns="http://www.w3.org/2000/svg" xmlns:xlink="http://www.w3.org/1999/xlink" x="0px" y="0px"
	 viewBox="0 0 30 30" style="enable-background:new 0 0 30 30;" xml:space="preserve">
<g>
	<g>
		<path d="M26.5,0.5h-23C1.57,0.5,0,2.07,0,4v22c0,1.93,1.57,3.5,3.5,3.5h23c1.93,0,3.5-1.57,3.5-3.5V4C30,2.07,28.43,0.5,26.5,0.5z
			 M6,15.5H5V18c0,0.276-0.224,0.5-0.5,0.5S4,18.276,4,18v-6c0-0.276,0.224-0.5,0.5-0.5H6c1.103,0,2,0.897,2,2
			C8,14.603,7.103,15.5,6,15.5z M10.833,17.5h1.334c0.308,0,0.577-0.201,0.722-0.5h-0.722c-0.276,0-0.5-0.224-0.5-0.5
			s0.224-0.5,0.5-0.5H13.5c0.276,0,0.5,0.224,0.5,0.5c0,1.103-0.822,2-1.833,2h-1.334C9.822,18.5,9,17.603,9,16.5v-3
			c0-1.103,0.822-2,1.833-2h1.334c1.011,0,1.833,0.897,1.833,2c0,0.276-0.224,0.5-0.5,0.5S13,13.776,13,13.5
			c0-0.551-0.374-1-0.833-1h-1.334c-0.459,0-0.833,0.449-0.833,1v3C10,17.051,10.374,17.5,10.833,17.5z M20,16.5
			c0,1.103-0.822,2-1.833,2H15.5c-0.276,0-0.5-0.224-0.5-0.5v-6c0-0.276,0.224-0.5,0.5-0.5h2.667c1.011,0,1.833,0.897,1.833,2V16.5z
			 M26,18c0,0.22-0.145,0.415-0.355,0.479C25.597,18.493,25.548,18.5,25.5,18.5c-0.164,0-0.321-0.081-0.416-0.223L22,13.651V18
			c0,0.276-0.224,0.5-0.5,0.5S21,18.276,21,18v-6c0-0.22,0.145-0.415,0.355-0.479c0.212-0.064,0.438,0.019,0.561,0.201L25,16.349V12
			c0-0.276,0.224-0.5,0.5-0.5S26,11.724,26,12V18z M6,12.5H5v2h1c0.552,0,1-0.449,1-1C7,12.949,6.552,12.5,6,12.5z M18.167,12.5H16
			v5h2.167c0.459,0,0.833-0.449,0.833-1v-3C19,12.949,18.626,12.5,18.167,12.5z"/>
	</g>
</g>
</svg>
