<?xml version="1.0" encoding="iso-8859-1"?>
<!-- Generator: Adobe Illustrator 19.0.0, SVG Export Plug-In . SVG Version: 6.00 Build 0)  -->
<svg version="1.1" id="Layer_1" xmlns="http://www.w3.org/2000/svg" xmlns:xlink="http://www.w3.org/1999/xlink" x="0px" y="0px"
	 viewBox="0 0 30 30" style="enable-background:new 0 0 30 30;" xml:space="preserve">
<g>
	<g>
		<path d="M9.5,9.5c0-0.551-0.448-1-1-1h-1v2h1C9.052,10.5,9.5,10.051,9.5,9.5z M14.5,9.5c0-0.551-0.448-1-1-1h-1v2h1
			C14.052,10.5,14.5,10.051,14.5,9.5z M21.5,17.5c0-0.551-0.448-1-1-1h-1v2h1C21.052,18.5,21.5,18.051,21.5,17.5z M26,0.5H4
			C2.07,0.5,0.5,2.07,0.5,4v22c0,1.93,1.57,3.5,3.5,3.5h22c1.93,0,3.5-1.57,3.5-3.5V4C29.5,2.07,27.93,0.5,26,0.5z M17,7.5h4
			c0.276,0,0.5,0.224,0.5,0.5S21.276,8.5,21,8.5h-1.5V14c0,0.276-0.224,0.5-0.5,0.5s-0.5-0.224-0.5-0.5V8.5H17
			c-0.276,0-0.5-0.224-0.5-0.5S16.724,7.5,17,7.5z M6.5,8c0-0.276,0.224-0.5,0.5-0.5h1.5c1.103,0,2,0.897,2,2c0,1.103-0.897,2-2,2
			h-1V14c0,0.276-0.224,0.5-0.5,0.5S6.5,14.276,6.5,14V8z M8.998,22.5c-1.333,0-2.406-0.8-2.496-1.862
			c-0.023-0.275,0.181-0.517,0.456-0.54c0.247-0.028,0.518,0.18,0.54,0.456c0.044,0.521,0.717,0.946,1.5,0.946
			c0.814,0,1.502-0.458,1.502-1c0-0.488-0.474-0.802-1.49-0.989L8.901,19.49c-1.622-0.299-2.4-0.963-2.4-1.99
			c0-1.103,1.122-2,2.502-2c1.333,0,2.406,0.8,2.496,1.861c0.023,0.275-0.181,0.518-0.456,0.541c-0.254,0.022-0.518-0.18-0.54-0.456
			c-0.044-0.522-0.717-0.946-1.5-0.946c-0.814,0-1.502,0.458-1.502,1c0,0.488,0.475,0.802,1.494,0.99l0.109,0.021
			c1.62,0.299,2.396,0.963,2.396,1.99C11.5,21.603,10.378,22.5,8.998,22.5z M12,14.5c-0.276,0-0.5-0.224-0.5-0.5V8
			c0-0.276,0.224-0.5,0.5-0.5h1.5c1.103,0,2,0.897,2,2c0,1.103-0.897,2-2,2h-0.293l2.146,2.146c0.195,0.195,0.195,0.512,0,0.707
			c-0.098,0.098-0.226,0.146-0.354,0.146s-0.256-0.049-0.354-0.146L12.5,12.207V14C12.5,14.276,12.276,14.5,12,14.5z M14.333,21.5
			h1.334c0.459,0,0.833-0.449,0.833-1c0-0.276,0.224-0.5,0.5-0.5s0.5,0.224,0.5,0.5c0,1.103-0.822,2-1.833,2h-1.334
			c-1.011,0-1.833-0.897-1.833-2v-3c0-1.103,0.822-2,1.833-2h1.334c1.011,0,1.833,0.897,1.833,2c0,0.276-0.224,0.5-0.5,0.5
			s-0.5-0.224-0.5-0.5c0-0.551-0.374-1-0.833-1h-1.334c-0.459,0-0.833,0.449-0.833,1v3C13.5,21.051,13.874,21.5,14.333,21.5z
			 M22.354,22.353c-0.098,0.098-0.226,0.146-0.354,0.146s-0.256-0.049-0.354-0.146L19.5,20.207V22c0,0.276-0.224,0.5-0.5,0.5
			s-0.5-0.224-0.5-0.5v-6c0-0.276,0.224-0.5,0.5-0.5h1.5c1.103,0,2,0.897,2,2c0,1.103-0.897,2-2,2h-0.293l2.147,2.146
			C22.549,21.841,22.549,22.158,22.354,22.353z"/>
	</g>
</g>
</svg>
