<?xml version="1.0" encoding="iso-8859-1"?>
<!-- Generator: Adobe Illustrator 19.0.0, SVG Export Plug-In . SVG Version: 6.00 Build 0)  -->
<svg version="1.1" id="Layer_1" xmlns="http://www.w3.org/2000/svg" xmlns:xlink="http://www.w3.org/1999/xlink" x="0px" y="0px"
	 viewBox="0 0 30 30" style="enable-background:new 0 0 30 30;" xml:space="preserve">
<g>
	<g>
		<path d="M26,4.5H4C2.07,4.5,0.5,6.07,0.5,8v14c0,1.93,1.57,3.5,3.5,3.5h22c1.93,0,3.5-1.57,3.5-3.5V8C29.5,6.07,27.93,4.5,26,4.5z
			 M14.5,14c0,0.276-0.224,0.5-0.5,0.5s-0.5-0.224-0.5-0.5v-3.374c-1.138,0.473-3,2.27-3,4.374c0,1.823,0.507,2.856,1.748,3.566
			c0.24,0.137,0.323,0.442,0.187,0.682C12.342,19.41,12.173,19.5,12,19.5c-0.085,0-0.17-0.021-0.248-0.066
			C10.194,18.544,9.5,17.176,9.5,15c0-1.85,1.126-3.5,2.346-4.5H10c-0.276,0-0.5-0.224-0.5-0.5S9.724,9.5,10,9.5h4
			c0.276,0,0.5,0.224,0.5,0.5V14z M20,19.5c0.276,0,0.5,0.224,0.5,0.5s-0.224,0.5-0.5,0.5h-4c-0.276,0-0.5-0.224-0.5-0.5v-4
			c0-0.276,0.224-0.5,0.5-0.5s0.5,0.224,0.5,0.5v3.374c1.138-0.473,3-2.27,3-4.374c0-1.823-0.507-2.856-1.748-3.566
			c-0.24-0.137-0.323-0.442-0.187-0.682c0.138-0.241,0.444-0.323,0.683-0.186C19.806,11.456,20.5,12.824,20.5,15
			c0,1.85-1.126,3.5-2.346,4.5H20z"/>
	</g>
</g>
</svg>
