<?xml version="1.0" encoding="iso-8859-1"?>
<!-- Generator: Adobe Illustrator 19.0.0, SVG Export Plug-In . SVG Version: 6.00 Build 0)  -->
<svg version="1.1" id="Layer_1" xmlns="http://www.w3.org/2000/svg" xmlns:xlink="http://www.w3.org/1999/xlink" x="0px" y="0px"
	 viewBox="0 0 24 24" style="enable-background:new 0 0 24 24;" xml:space="preserve">
<g>
	<g>
		<path d="M23.412,10.967l-1.496-2.244c-0.021-0.031-0.05-0.051-0.076-0.076c-0.167-0.456-0.461-0.848-0.842-1.136
			C20.998,7.507,21,7.504,21,7.5v-3C21,3.122,19.878,2,18.5,2h-13C4.122,2,3,3.122,3,4.5c0,0.004,0.002,0.007,0.002,0.011
			c-0.605,0.457-1.003,1.175-1.003,1.99v2.354l-1.322,2.059C0.234,11.518,0,12.233,0,12.982V19.5C0,20.878,1.122,22,2.5,22h19
			c1.378,0,2.5-1.122,2.5-2.5v-6.592C24,12.215,23.797,11.544,23.412,10.967z M22,10.651l0.58,0.87
			c0.099,0.149,0.162,0.315,0.227,0.479H22V10.651z M5.5,3h13C19.327,3,20,3.673,20,4.5v2.551C19.838,7.018,19.671,7,19.5,7h-7.559
			c-0.647,0-1.218-0.412-1.423-1.025L10.43,5.71c-0.341-1.022-1.294-1.709-2.372-1.709H4.499c-0.144,0-0.283,0.019-0.42,0.043
			C4.273,3.44,4.833,3,5.5,3z M2.999,6.501c0-0.827,0.673-1.5,1.5-1.5h3.559c0.647,0,1.218,0.412,1.423,1.025l0.088,0.265
			C9.91,7.313,10.863,8,11.941,8H19.5C20.327,8,21,8.673,21,9.5V12h-0.5c-1.378,0-2.5,1.122-2.5,2.5c0,0.827-0.673,1.5-1.5,1.5h-9
			C6.673,16,6,15.327,6,14.5C6,13.122,4.878,12,3.5,12H2.999V6.501z M1.501,11.479l0.498-0.775V12H1.211
			C1.288,11.821,1.38,11.645,1.501,11.479z M23,19.5c0,0.827-0.673,1.5-1.5,1.5h-19C1.673,21,1,20.327,1,19.5V13h1.494
			c0.002,0,0.003,0.001,0.005,0.001S2.502,13,2.504,13H3.5C4.327,13,5,13.673,5,14.5C5,15.878,6.122,17,7.5,17h9
			c1.378,0,2.5-1.122,2.5-2.5c0-0.827,0.673-1.5,1.5-1.5H23V19.5z"/>
	</g>
</g>
</svg>
