<?xml version="1.0" encoding="iso-8859-1"?>
<!-- Generator: Adobe Illustrator 19.0.0, SVG Export Plug-In . SVG Version: 6.00 Build 0)  -->
<svg version="1.1" id="Layer_1" xmlns="http://www.w3.org/2000/svg" xmlns:xlink="http://www.w3.org/1999/xlink" x="0px" y="0px"
	 viewBox="0 0 24 24" style="enable-background:new 0 0 24 24;" xml:space="preserve">
<g>
	<g>
		<path d="M11.183,21H3.5C2.673,21,2,20.327,2,19.5V4.487C2.419,4.805,2.935,5,3.5,5H17v6.5c0,0.276,0.224,0.5,0.5,0.5
			s0.5-0.224,0.5-0.5v-7c0-0.018-0.008-0.032-0.01-0.049c-0.001-0.01-0.004-0.019-0.006-0.029c-0.013-0.078-0.042-0.148-0.086-0.209
			c-0.006-0.009-0.005-0.021-0.012-0.03C17.882,4.178,17.5,3.678,17.5,2.5c0-1.175,0.379-1.675,0.379-1.675
			c0.128-0.147,0.156-0.356,0.075-0.534C17.873,0.113,17.695,0,17.5,0h-14C2.122,0,1,1.121,1,2.5v17C1,20.879,2.122,22,3.5,22h7.683
			c0.276,0,0.5-0.224,0.5-0.5S11.459,21,11.183,21z M3.5,1h13.209c-0.082,0.26-0.139,0.611-0.174,1.007
			C16.523,2.006,16.513,2,16.5,2h-13C3.224,2,3,2.224,3,2.5S3.224,3,3.5,3h13c0.013,0,0.023-0.006,0.035-0.007
			C16.57,3.389,16.627,3.74,16.709,4H3.5C2.673,4,2,3.327,2,2.5C2,1.673,2.673,1,3.5,1z M14.5,19h6c0.202,0,0.385-0.122,0.461-0.309
			c0.078-0.187,0.035-0.402-0.108-0.545l-3-3c-0.195-0.195-0.512-0.195-0.707,0l-3,3c-0.143,0.143-0.186,0.358-0.108,0.545
			C14.115,18.878,14.298,19,14.5,19z M17.5,16.207L19.293,18h-3.586L17.5,16.207z M20.5,20h-6c-0.276,0-0.5,0.224-0.5,0.5
			s0.224,0.5,0.5,0.5h6c0.276,0,0.5-0.224,0.5-0.5S20.776,20,20.5,20z M17.5,13c-3.033,0-5.5,2.468-5.5,5.5s2.467,5.5,5.5,5.5
			c3.033,0,5.5-2.468,5.5-5.5S20.533,13,17.5,13z M17.5,23c-2.481,0-4.5-2.019-4.5-4.5s2.019-4.5,4.5-4.5c2.481,0,4.5,2.019,4.5,4.5
			S19.981,23,17.5,23z"/>
	</g>
</g>
</svg>
