<?xml version="1.0" encoding="iso-8859-1"?>
<!-- Generator: Adobe Illustrator 19.0.0, SVG Export Plug-In . SVG Version: 6.00 Build 0)  -->
<svg version="1.1" id="Layer_1" xmlns="http://www.w3.org/2000/svg" xmlns:xlink="http://www.w3.org/1999/xlink" x="0px" y="0px"
	 viewBox="0 0 24 24" style="enable-background:new 0 0 24 24;" xml:space="preserve">
<g>
	<g>
		<path d="M23.978,11.393c-0.006-0.027-0.006-0.056-0.017-0.082c-0.026-0.063-0.064-0.119-0.111-0.167L22,9.294V0.5
			C22,0.224,21.776,0,21.5,0h-19C2.224,0,2,0.224,2,0.5v8.793l-1.854,1.854c-0.004,0.004-0.005,0.01-0.01,0.014
			c-0.04,0.043-0.075,0.092-0.098,0.147C0.013,11.371,0,11.436,0,11.502V22.5C0,23.327,0.673,24,1.5,24h21
			c0.827,0,1.5-0.673,1.5-1.5v-11C24,11.462,23.986,11.428,23.978,11.393z M22,10.708L22.292,11H22V10.708z M3,3h0.5
			C3.776,3,4,2.776,4,2.5S3.776,2,3.5,2H3V1h18v1h-0.5C20.224,2,20,2.224,20,2.5S20.224,3,20.5,3H21v6.499c0,0.001,0,0.002,0,0.003
			V11h-5.131l0.902-0.58C16.914,10.329,17,10.17,17,10s-0.086-0.329-0.23-0.42l-7-4.5C9.616,4.979,9.421,4.973,9.26,5.061
			C9.1,5.149,9,5.317,9,5.5V11H3V3z M15.576,10l-1.556,1H10V6.416L15.576,10z M2,10.707V11H1.707L2,10.707z M23,22.5
			c0,0.276-0.224,0.5-0.5,0.5h-21C1.224,23,1,22.776,1,22.5V12h22V22.5z M9,17h6c1.103,0,2-0.897,2-2s-0.897-2-2-2H9
			c-1.103,0-2,0.897-2,2S7.897,17,9,17z M9,14h6c0.551,0,1,0.449,1,1s-0.449,1-1,1H9c-0.551,0-1-0.449-1-1S8.449,14,9,14z M15.778,3
			h1.889c0.276,0,0.5-0.224,0.5-0.5S17.943,2,17.667,2h-1.889c-0.276,0-0.5,0.224-0.5,0.5S15.502,3,15.778,3z M8.222,2H6.333
			c-0.276,0-0.5,0.224-0.5,0.5S6.057,3,6.333,3h1.889c0.277,0,0.5-0.224,0.5-0.5S8.498,2,8.222,2z M11.056,3h1.889
			c0.276,0,0.5-0.224,0.5-0.5S13.221,2,12.945,2h-1.889c-0.276,0-0.5,0.224-0.5,0.5S10.78,3,11.056,3z"/>
	</g>
</g>
</svg>
