<?xml version="1.0" encoding="iso-8859-1"?>
<!-- Generator: Adobe Illustrator 19.0.0, SVG Export Plug-In . SVG Version: 6.00 Build 0)  -->
<svg version="1.1" id="Layer_1" xmlns="http://www.w3.org/2000/svg" xmlns:xlink="http://www.w3.org/1999/xlink" x="0px" y="0px"
	 viewBox="0 0 24 24" style="enable-background:new 0 0 24 24;" xml:space="preserve">
<g>
	<g>
		<path d="M21.378,5c-0.7,0-1.358,0.273-1.853,0.768l-1.379,1.379c0,0,0,0,0,0s0,0,0,0L18,7.293V3.5C18,2.673,17.327,2,16.5,2
			h-2.592c-0.207-0.581-0.757-1-1.408-1h-1.774C10.373,0.39,9.718,0,9,0C8.282,0,7.627,0.39,7.274,1H5.5
			C4.849,1,4.299,1.419,4.092,2H1.5C0.673,2,0,2.673,0,3.5v19C0,23.327,0.673,24,1.5,24h15c0.827,0,1.5-0.673,1.5-1.5v-7.794
			l3.85-3.85c0.001-0.001,0.002-0.001,0.003-0.002s0.001-0.002,0.002-0.003l1.377-1.377C23.728,8.979,24,8.321,24,7.62
			C24,6.175,22.824,5,21.378,5z M5,2.5C5,2.224,5.224,2,5.5,2h2.092c0.211,0,0.4-0.134,0.471-0.333C8.205,1.268,8.582,1,9,1
			c0.418,0,0.795,0.268,0.937,0.667C10.008,1.867,10.197,2,10.408,2H12.5C12.776,2,13,2.224,13,2.5V3H5V2.5z M17,22.5
			c0,0.276-0.224,0.5-0.5,0.5h-15C1.224,23,1,22.776,1,22.5v-19C1,3.224,1.224,3,1.5,3H4v0.5C4,3.776,4.224,4,4.5,4h9
			C13.776,4,14,3.776,14,3.5V3h2.5C16.776,3,17,3.224,17,3.5v4.793l-6.841,6.841c-0.004,0.003-0.007,0.007-0.01,0.01l-0.003,0.003
			c-0.001,0.001-0.002,0.004-0.003,0.005c-0.053,0.054-0.088,0.122-0.111,0.197c-0.004,0.011-0.014,0.019-0.017,0.03l-1,4
			c-0.043,0.171,0.007,0.351,0.131,0.475C9.241,19.948,9.369,20,9.5,20c0.041,0,0.081-0.005,0.121-0.016l4-1
			c0.012-0.003,0.02-0.014,0.031-0.018c0.063-0.021,0.12-0.053,0.169-0.095c0.009-0.008,0.023-0.009,0.032-0.018L17,15.706V22.5z
			 M10.872,16.077c0.323,0.094,0.801,0.302,1.274,0.776c0.474,0.474,0.683,0.953,0.777,1.275l-2.736,0.685L10.872,16.077z
			 M13.765,17.527c-0.163-0.412-0.434-0.903-0.913-1.381c-0.477-0.477-0.967-0.749-1.379-0.911L18.5,8.208l2.292,2.292
			L13.765,17.527z M22.525,8.767l-1.026,1.026l-2.292-2.292l1.026-1.027c0.306-0.307,0.713-0.475,1.147-0.475
			c0.893,0,1.62,0.727,1.62,1.622C23,8.054,22.831,8.461,22.525,8.767z"/>
	</g>
</g>
</svg>
