<?xml version="1.0" encoding="iso-8859-1"?>
<!-- Generator: Adobe Illustrator 19.0.0, SVG Export Plug-In . SVG Version: 6.00 Build 0)  -->
<svg version="1.1" id="Layer_1" xmlns="http://www.w3.org/2000/svg" xmlns:xlink="http://www.w3.org/1999/xlink" x="0px" y="0px"
	 viewBox="0 0 24 24" style="enable-background:new 0 0 24 24;" xml:space="preserve">
<g>
	<g>
		<path d="M19.5,20h-10C9.224,20,9,20.224,9,20.5S9.224,21,9.5,21h10c0.276,0,0.5-0.224,0.5-0.5S19.776,20,19.5,20z M19.5,12h-10
			C9.224,12,9,12.224,9,12.5S9.224,13,9.5,13h10c0.276,0,0.5-0.224,0.5-0.5S19.776,12,19.5,12z M19.5,16h-10
			C9.224,16,9,16.224,9,16.5S9.224,17,9.5,17h10c0.276,0,0.5-0.224,0.5-0.5S19.776,16,19.5,16z M21.5,0h-18C2.673,0,2,0.673,2,1.5V4
			H1.5C1.224,4,1,4.224,1,4.5S1.224,5,1.5,5H2v4H1.5C1.224,9,1,9.224,1,9.5S1.224,10,1.5,10H2v4H1.5C1.224,14,1,14.224,1,14.5
			S1.224,15,1.5,15H2v4H1.5C1.224,19,1,19.224,1,19.5S1.224,20,1.5,20H2v2.5C2,23.327,2.673,24,3.5,24h18c0.827,0,1.5-0.673,1.5-1.5
			v-21C23,0.673,22.327,0,21.5,0z M22,22.5c0,0.276-0.224,0.5-0.5,0.5h-18C3.224,23,3,22.776,3,22.5V20h1.092
			c0.207,0.581,0.757,1,1.408,1C6.327,21,7,20.327,7,19.5S6.327,18,5.5,18c-0.651,0-1.201,0.419-1.408,1H3v-4h1.092
			c0.207,0.581,0.757,1,1.408,1C6.327,16,7,15.327,7,14.5S6.327,13,5.5,13c-0.651,0-1.201,0.419-1.408,1H3v-4h1.092
			c0.207,0.581,0.757,1,1.408,1C6.327,11,7,10.327,7,9.5S6.327,8,5.5,8C4.849,8,4.299,8.419,4.092,9H3V5h1.092
			C4.299,5.581,4.849,6,5.5,6C6.327,6,7,5.327,7,4.5S6.327,3,5.5,3C4.849,3,4.299,3.419,4.092,4H3V1.5C3,1.224,3.224,1,3.5,1h18
			C21.776,1,22,1.224,22,1.5V22.5z M5,19.5C5,19.224,5.224,19,5.5,19S6,19.224,6,19.5S5.776,20,5.5,20S5,19.776,5,19.5z M5,14.5
			C5,14.224,5.224,14,5.5,14S6,14.224,6,14.5S5.776,15,5.5,15S5,14.776,5,14.5z M5,9.5C5,9.224,5.224,9,5.5,9S6,9.224,6,9.5
			S5.776,10,5.5,10S5,9.776,5,9.5z M5,4.5C5,4.224,5.224,4,5.5,4S6,4.224,6,4.5S5.776,5,5.5,5S5,4.776,5,4.5z M19.5,8h-10
			C9.224,8,9,8.224,9,8.5S9.224,9,9.5,9h10C19.776,9,20,8.776,20,8.5S19.776,8,19.5,8z M19.5,4h-10C9.224,4,9,4.224,9,4.5
			S9.224,5,9.5,5h10C19.776,5,20,4.776,20,4.5S19.776,4,19.5,4z"/>
	</g>
</g>
</svg>
