<?xml version="1.0" encoding="iso-8859-1"?>
<!-- Generator: Adobe Illustrator 19.0.0, SVG Export Plug-In . SVG Version: 6.00 Build 0)  -->
<svg version="1.1" id="Layer_1" xmlns="http://www.w3.org/2000/svg" xmlns:xlink="http://www.w3.org/1999/xlink" x="0px" y="0px"
	 viewBox="0 0 24 24" style="enable-background:new 0 0 24 24;" xml:space="preserve">
<g>
	<g>
		<path d="M13.5,10c0.276,0,0.5-0.224,0.5-0.5S13.776,9,13.5,9C13.224,9,13,9.224,13,9.5S13.224,10,13.5,10z M17,11
			c0.361,0,0.701-0.096,0.993-0.265C17.928,11.871,17.379,13,16,13c-0.276,0-0.5,0.224-0.5,0.5S15.724,14,16,14
			c1.794,0,3-1.407,3-3.5V9c0-1.103-0.897-2-2-2c-1.103,0-2,0.897-2,2C15,10.103,15.897,11,17,11z M17,8c0.551,0,1,0.449,1,1
			s-0.449,1-1,1c-0.551,0-1-0.449-1-1S16.449,8,17,8z M13.5,12c0.276,0,0.5-0.224,0.5-0.5S13.776,11,13.5,11
			c-0.276,0-0.5,0.224-0.5,0.5S13.224,12,13.5,12z M10,14c1.103,0,2-0.897,2-2s-0.897-2-2-2c-0.361,0-0.701,0.096-0.993,0.265
			C9.072,9.129,9.621,8,11,8c0.276,0,0.5-0.224,0.5-0.5S11.276,7,11,7c-1.794,0-3,1.407-3,3.5V12C8,13.103,8.897,14,10,14z M10,11
			c0.551,0,1,0.449,1,1s-0.449,1-1,1c-0.551,0-1-0.449-1-1S9.449,11,10,11z M22.5,2h-21C0.673,2,0,2.673,0,3.5v14
			C0,18.327,0.673,19,1.5,19H10v1.076l-5.582,0.93c-0.272,0.045-0.457,0.303-0.411,0.575C4.047,21.827,4.259,22,4.5,22
			c0.027,0,0.055-0.002,0.083-0.007L10.541,21h2.918l5.959,0.993C19.446,21.998,19.473,22,19.5,22c0.24,0,0.452-0.173,0.493-0.418
			c0.045-0.272-0.139-0.53-0.411-0.575L14,20.076V19h8.5c0.827,0,1.5-0.673,1.5-1.5v-14C24,2.673,23.327,2,22.5,2z M22,17H2V4h20V17
			z M5.276,9.947c0.247,0.123,0.547,0.024,0.671-0.224L6,9.618V13.5C6,13.776,6.224,14,6.5,14S7,13.776,7,13.5v-6
			c0-0.232-0.16-0.434-0.385-0.487C6.389,6.961,6.156,7.068,6.053,7.276l-1,2C4.929,9.523,5.029,9.824,5.276,9.947z"/>
	</g>
</g>
</svg>
