<?xml version="1.0" encoding="iso-8859-1"?>
<!-- Generator: Adobe Illustrator 19.0.0, SVG Export Plug-In . SVG Version: 6.00 Build 0)  -->
<svg version="1.1" id="Layer_1" xmlns="http://www.w3.org/2000/svg" xmlns:xlink="http://www.w3.org/1999/xlink" x="0px" y="0px"
	 viewBox="0 0 24 24" style="enable-background:new 0 0 24 24;" xml:space="preserve">
<g>
	<g>
		<path d="M15.5,17c-0.276,0-0.5,0.224-0.5,0.5V18H2V5h13v0.5C15,5.776,15.224,6,15.5,6S16,5.776,16,5.5v-2C16,1.57,14.43,0,12.5,0
			h-8C2.57,0,1,1.57,1,3.5v17C1,22.43,2.57,24,4.5,24h8c1.93,0,3.5-1.57,3.5-3.5v-3C16,17.224,15.776,17,15.5,17z M12.51,2h0.01
			c0.276,0,0.5,0.224,0.5,0.5S12.796,3,12.52,3s-0.505-0.224-0.505-0.5S12.234,2,12.51,2z M7.5,2h2C9.776,2,10,2.224,10,2.5
			S9.776,3,9.5,3h-2C7.224,3,7,2.776,7,2.5S7.224,2,7.5,2z M8.5,22c-0.551,0-1-0.449-1-1c0-0.551,0.449-1,1-1c0.551,0,1,0.449,1,1
			C9.5,21.551,9.051,22,8.5,22z M19.5,9c-0.091,0-0.182,0.005-0.271,0.013C18.396,7.763,16.997,7,15.5,7
			c-2.328,0-4.249,1.777-4.477,4.046C9.872,11.269,9,12.285,9,13.5c0,1.378,1.122,2.5,2.5,2.5h8c1.93,0,3.5-1.57,3.5-3.5
			S21.43,9,19.5,9z"/>
	</g>
</g>
</svg>
