<?xml version="1.0" encoding="iso-8859-1"?>
<!-- Generator: Adobe Illustrator 19.0.0, SVG Export Plug-In . SVG Version: 6.00 Build 0)  -->
<svg version="1.1" id="Layer_1" xmlns="http://www.w3.org/2000/svg" xmlns:xlink="http://www.w3.org/1999/xlink" x="0px" y="0px"
	 viewBox="0 0 24 24" style="enable-background:new 0 0 24 24;" xml:space="preserve">
<g>
	<g>
		<path d="M8.851,16.977C8.901,16.993,8.951,17,9,17c0.186,0,0.36-0.104,0.447-0.276l1.776-3.553l1.553,0.776
			c0.13,0.064,0.28,0.07,0.415,0.015c0.134-0.056,0.237-0.167,0.283-0.304l2-6c0.087-0.262-0.055-0.545-0.316-0.632l-3-1
			c-0.145-0.048-0.298-0.028-0.425,0.051c-0.127,0.079-0.211,0.212-0.229,0.361l-0.399,3.197l-0.827-0.551
			c-0.142-0.095-0.323-0.111-0.481-0.041C9.64,9.113,9.53,9.259,9.506,9.429l-1,7C8.471,16.672,8.617,16.904,8.851,16.977z M16,0H8
			C6.07,0,4.5,1.57,4.5,3.5v17C4.5,22.43,6.07,24,8,24h8c1.93,0,3.5-1.57,3.5-3.5v-17C19.5,1.57,17.93,0,16,0z M16.01,2h0.01
			c0.276,0,0.5,0.224,0.5,0.5S16.296,3,16.02,3s-0.505-0.224-0.505-0.5S15.734,2,16.01,2z M11,2h2c0.276,0,0.5,0.224,0.5,0.5
			S13.276,3,13,3h-2c-0.276,0-0.5-0.224-0.5-0.5S10.724,2,11,2z M12,22c-0.552,0-1-0.449-1-1c0-0.551,0.448-1,1-1s1,0.449,1,1
			C13,21.551,12.552,22,12,22z M18.5,18h-13V5h13V18z"/>
	</g>
</g>
</svg>
