<?xml version="1.0" encoding="iso-8859-1"?>
<!-- Generator: Adobe Illustrator 19.2.1, SVG Export Plug-In . SVG Version: 6.00 Build 0)  -->
<svg version="1.1" id="Layer_1" xmlns="http://www.w3.org/2000/svg" xmlns:xlink="http://www.w3.org/1999/xlink" x="0px" y="0px"
	 viewBox="0 0 24 24" style="enable-background:new 0 0 24 24;" xml:space="preserve">
<g>
	<g>
		<path d="M0,16.567c0,0.179,0.096,0.345,0.252,0.434L7,20.857v-8.004L0,8.736V16.567z M8,12.934v8l15.649-4.89
			C23.857,15.979,24,15.786,24,15.567V7.906L8,12.934z M16.748,3.133c-0.121-0.069-0.266-0.086-0.397-0.043L0.694,7.983l6.868,4.04
			l15.964-5.017L16.748,3.133z M9.429,10.324C9.335,10.48,9.169,10.567,9,10.567c-0.088,0-0.177-0.023-0.257-0.071l-2.5-1.5
			C6.006,8.854,5.929,8.547,6.071,8.31c0.142-0.237,0.452-0.312,0.686-0.172l2.5,1.5C9.494,9.78,9.571,10.087,9.429,10.324z
			 M12.429,9.325C12.335,9.481,12.169,9.568,12,9.568c-0.088,0-0.177-0.023-0.257-0.071l-2.5-1.5
			C9.006,7.854,8.929,7.546,9.071,7.31c0.143-0.237,0.452-0.313,0.686-0.171l2.5,1.5C12.494,8.781,12.571,9.088,12.429,9.325z
			 M15.429,8.325C15.335,8.481,15.169,8.568,15,8.568c-0.088,0-0.177-0.023-0.257-0.071l-2.5-1.5
			c-0.237-0.143-0.314-0.451-0.172-0.687c0.144-0.237,0.452-0.313,0.686-0.171l2.5,1.5C15.494,7.781,15.571,8.088,15.429,8.325z
			 M18,7.568c-0.088,0-0.177-0.023-0.257-0.071l-2.5-1.5c-0.237-0.143-0.314-0.451-0.172-0.687c0.143-0.237,0.452-0.312,0.686-0.171
			l2.5,1.5c0.237,0.142,0.314,0.449,0.172,0.686C18.335,7.481,18.169,7.568,18,7.568z"/>
	</g>
</g>
</svg>
