<?xml version="1.0" encoding="iso-8859-1"?>
<!-- Generator: Adobe Illustrator 19.2.1, SVG Export Plug-In . SVG Version: 6.00 Build 0)  -->
<svg version="1.1" id="Layer_1" xmlns="http://www.w3.org/2000/svg" xmlns:xlink="http://www.w3.org/1999/xlink" x="0px" y="0px"
	 viewBox="0 0 24 24" style="enable-background:new 0 0 24 24;" xml:space="preserve">
<g>
	<g>
		<path d="M19.583,13H4.417c-0.15,0-0.293,0.068-0.388,0.185c-0.095,0.117-0.133,0.27-0.102,0.417l1.917,9.204
			C5.989,23.498,6.606,24,7.313,24h9.373c0.707,0,1.324-0.502,1.469-1.194l1.917-9.204c0.031-0.147-0.007-0.301-0.102-0.417
			C19.875,13.069,19.733,13,19.583,13z M20.98,9.086C20.773,4.04,16.83,0,12,0S3.227,4.04,3.02,9.086C2.429,9.287,2,9.842,2,10.5
			C2,11.327,2.673,12,3.5,12h17c0.827,0,1.5-0.673,1.5-1.5C22,9.842,21.571,9.287,20.98,9.086z M4.024,9C4.27,4.546,7.748,1,12,1
			s7.73,3.546,7.976,8H4.024z"/>
	</g>
</g>
</svg>
