<?xml version="1.0" encoding="iso-8859-1"?>
<!-- Generator: Adobe Illustrator 19.2.1, SVG Export Plug-In . SVG Version: 6.00 Build 0)  -->
<svg version="1.1" id="Layer_1" xmlns="http://www.w3.org/2000/svg" xmlns:xlink="http://www.w3.org/1999/xlink" x="0px" y="0px"
	 viewBox="0 0 24 24" style="enable-background:new 0 0 24 24;" xml:space="preserve">
<g>
	<g>
		<path d="M18.001,0.001c-0.276,0-0.5,0.224-0.5,0.5v6.116c-0.072-0.062-0.148-0.122-0.227-0.181
			c-0.23-0.172-0.488-0.332-0.772-0.478V0.501c0-0.276-0.224-0.5-0.5-0.5s-0.5,0.224-0.5,0.5V5.54
			c-0.004-0.001-0.008-0.003-0.012-0.004c-0.005-0.002-0.01-0.003-0.016-0.005c-0.672-0.225-1.427-0.386-2.242-0.468h-0.001
			c-0.398-0.04-0.808-0.062-1.23-0.062c-0.645,0-1.263,0.05-1.848,0.141c-0.327,0.05-0.64,0.115-0.942,0.191
			C9.185,5.339,9.16,5.346,9.135,5.352C8.916,5.409,8.704,5.471,8.5,5.54V0.501c0-0.276-0.224-0.5-0.5-0.5s-0.5,0.224-0.5,0.5v5.456
			c-0.01,0.005-0.019,0.01-0.028,0.015C7.247,6.089,7.04,6.215,6.848,6.348C6.82,6.367,6.794,6.387,6.767,6.407
			C6.674,6.475,6.584,6.545,6.5,6.616V0.5C6.5,0.224,6.276,0,6,0S5.5,0.224,5.5,0.5v8c0,0.133,0.021,0.295,0.052,0.47
			c0.003,0.017,0.007,0.034,0.011,0.051c0.084,0.444,0.261,0.997,0.521,1.603v0.001c0.148,0.346,0.318,0.703,0.516,1.068
			c0.161,0.295,0.341,0.59,0.532,0.882c0,0,0,0,0,0.001c0.158,0.241,0.324,0.478,0.501,0.71c0.016,0.021,0.031,0.042,0.047,0.063
			c0.183,0.237,0.373,0.467,0.575,0.686l0.001,0.001c0.229,0.248,0.471,0.478,0.723,0.691c0.203,0.173,0.414,0.33,0.63,0.474
			c0.286,0.19,0.583,0.353,0.89,0.479v0.551l-1.035,0.69c-1.23,0.82-1.965,2.193-1.965,3.672c0,1.918,2.15,3.406,4,3.406
			c1.85,0,4-1.488,4-3.406V19.5c0-0.189-0.106-0.361-0.275-0.446c-0.168-0.085-0.37-0.067-0.522,0.044l-2.12,1.575
			c-0.375,0.375-0.967,0.433-1.406,0.14c-0.305-0.204-0.486-0.53-0.496-0.896c-0.01-0.366,0.152-0.703,0.445-0.923l1.004-0.753
			c0.806-0.605,1.29-1.548,1.348-2.549c2.96-1.204,5.023-5.676,5.023-7.191v-8C18.501,0.225,18.277,0.001,18.001,0.001z
			 M6.842,9.867c-0.163-0.422-0.273-0.8-0.316-1.098L8.8,6.495c0.531-0.182,1.145-0.317,1.815-0.401L6.842,9.867z M7.857,11.852
			c-0.19-0.3-0.362-0.6-0.517-0.897l4.94-4.94c0.459,0.011,0.892,0.05,1.304,0.11L7.857,11.852z M8.972,13.323l6.654-6.654
			c0.351,0.148,0.669,0.308,0.928,0.486l-6.857,6.857C9.447,13.802,9.203,13.575,8.972,13.323z M17.48,8.729l-6.169,6.17
			c-0.336-0.089-0.666-0.234-0.985-0.43l6.806-6.806c0.234,0.274,0.369,0.56,0.369,0.838C17.501,8.568,17.49,8.649,17.48,8.729z"/>
	</g>
</g>
</svg>
