<?xml version="1.0" encoding="iso-8859-1"?>
<!-- Generator: Adobe Illustrator 19.2.1, SVG Export Plug-In . SVG Version: 6.00 Build 0)  -->
<svg version="1.1" id="Layer_1" xmlns="http://www.w3.org/2000/svg" xmlns:xlink="http://www.w3.org/1999/xlink" x="0px" y="0px"
	 viewBox="0 0 24 24" style="enable-background:new 0 0 24 24;" xml:space="preserve">
<g>
	<g>
		<path d="M23.882,23.166l-0.945-1.89C22.852,21.107,22.679,21,22.49,21h-2.5V8h3.5c0.276,0,0.5-0.224,0.5-0.5v-3
			c0-0.276-0.224-0.5-0.5-0.5h-3.5V0.5c0-0.276-0.224-0.5-0.5-0.5h-3c-0.276,0-0.5,0.224-0.5,0.5V4H4.49
			C4.357,4,4.23,4.053,4.136,4.146l-3,3C0.993,7.289,0.95,7.504,1.028,7.691C1.105,7.878,1.288,8,1.49,8h0.5v3.051
			c-1.14,0.232-2,1.242-2,2.449c0,1.378,1.122,2.5,2.5,2.5s2.5-1.122,2.5-2.5c0-1.207-0.86-2.217-2-2.449V8h13v13h-2.5
			c-0.189,0-0.362,0.107-0.447,0.276l-1,2c-0.078,0.155-0.069,0.339,0.022,0.486C12.156,23.909,12.317,24,12.49,24h11.02
			c0.276,0,0.5-0.224,0.5-0.5C24.01,23.372,23.962,23.254,23.882,23.166z M22.99,5v1.793L21.197,5H22.99z M19.99,5.207L21.783,7
			H19.99V5.207z M2.697,7L3.74,5.957L4.783,7H2.697z M6.197,7l-1.75-1.75L4.697,5h1.586l2,2H6.197z M9.697,7l-2-2h2.086l2,2H9.697z
			 M13.197,7l-2-2h2.086l2,2H13.197z M15.99,6.293L14.697,5h1.293V6.293z M16.99,8h1.793L16.99,9.793V8z M18.99,21h-1.293
			l1.293-1.293V21z M18.99,18.293l-2,2v-2.086l2-2V18.293z M18.99,14.793l-2,2v-2.086l2-2V14.793z M18.99,11.293l-2,2v-2.086l2-2
			V11.293z M18.99,7h-2V1h2V7z"/>
	</g>
</g>
</svg>
