<?xml version="1.0" encoding="iso-8859-1"?>
<!-- Generator: Adobe Illustrator 19.2.1, SVG Export Plug-In . SVG Version: 6.00 Build 0)  -->
<svg version="1.1" id="Layer_1" xmlns="http://www.w3.org/2000/svg" xmlns:xlink="http://www.w3.org/1999/xlink" x="0px" y="0px"
	 viewBox="0 0 24 24" style="enable-background:new 0 0 24 24;" xml:space="preserve">
<g>
	<g>
		<path d="M23.758,12.571l-5.919-3.552h-0.001l-0.923-0.554l0.854-0.544C17.913,7.829,18,7.67,18,7.499
			c0-0.171-0.087-0.33-0.231-0.422l-5.5-3.5c-0.164-0.104-0.373-0.104-0.537,0l-5.5,3.5C6.088,7.17,6.001,7.329,6.001,7.5
			s0.087,0.33,0.231,0.422l0.854,0.544L6.163,9.02H6.162l-5.919,3.552c-0.15,0.09-0.242,0.252-0.243,0.427
			c0,0.175,0.09,0.337,0.24,0.429l11.5,7c0.08,0.048,0.17,0.073,0.26,0.073s0.18-0.024,0.26-0.073l11.5-7
			c0.15-0.091,0.241-0.254,0.24-0.429C24.001,12.823,23.908,12.661,23.758,12.571z M6.372,15.989l-4.905-2.986l4.945-2.967
			L11.069,13L6.372,15.989z M12.002,12.407l-4.63-2.946l0.659-0.395l3.701,2.356c0.082,0.052,0.175,0.078,0.269,0.078
			s0.187-0.026,0.269-0.078l3.703-2.356l0.659,0.395L12.002,12.407z M17.629,15.989L12.932,13l4.657-2.964l4.945,2.967
			L17.629,15.989z"/>
	</g>
</g>
</svg>
