<?xml version="1.0" encoding="utf-8"?>
<!-- Generator: Adobe Illustrator 19.0.0, SVG Export Plug-In . SVG Version: 6.00 Build 0)  -->
<svg version="1.1" id="Layer_1" xmlns="http://www.w3.org/2000/svg" xmlns:xlink="http://www.w3.org/1999/xlink" x="0px" y="0px"
	 viewBox="0 0 30 30" style="enable-background:new 0 0 30 30;" xml:space="preserve">
<g>
	<path d="M29.7,9.9C29.9,9.8,30,9.7,30,9.5V7.4c0-0.1-0.1-0.3-0.1-0.4c-0.5-0.5-1.2-0.8-1.9-0.9l-2.4-2.4c-0.4-0.6-2-0.8-2.3-0.8
		h-7.7C15.2,3,15,3.2,15,3.5v13l-4.6-9C9.9,6.5,8.9,6,7.9,6H5.5C5.4,6,5.4,6,5.3,6.1c0,0,0,0-0.1,0c0,0-0.1,0.1-0.1,0.1c0,0,0,0,0,0
		c0,0,0,0,0,0c0,0,0,0.1-0.1,0.1c0,0,0,0.1,0,0.1c0,0,0,0,0,0v7C5,13.7,4.6,14,4,14s-1-0.3-1-0.5C3,13.2,2.8,13,2.5,13
		S2,13.2,2,13.5C2,14.4,2.9,15,4,15s2-0.7,2-1.5V9.6L8.8,18H6.5C6.8,18,7,17.8,7,17.5S6.8,17,6.5,17h-2C4.2,17,4,17.2,4,17.5
		S4.2,18,4.5,18h-2c-0.2,0-0.4,0.1-0.5,0.3l-2,6c-0.1,0.2,0,0.3,0.1,0.5C0.2,24.9,0.3,25,0.5,25h2.7c0.4,1.2,1.5,2,2.8,2
		s2.4-0.8,2.8-2h12.3c0.4,1.2,1.5,2,2.8,2c1.3,0,2.4-0.9,2.8-2H27c1.7,0,3-1.4,3-3.1v-6.3c0-0.2-0.1-0.3-0.2-0.4L29,14.7v-4.4
		L29.7,9.9z M20,17.5c0-0.3,0.2-0.5,0.5-0.5h1c0.3,0,0.5,0.2,0.5,0.5S21.8,18,21.5,18h-1C20.2,18,20,17.8,20,17.5z M25.5,15
		c0.3,0,0.5,0.2,0.5,0.5S25.8,16,25.5,16h-5c-0.3,0-0.5-0.2-0.5-0.5v-6C20,9.2,20.2,9,20.5,9S21,9.2,21,9.5V15H25.5z M18.5,7h6
		C24.8,7,25,7.2,25,7.5S24.8,8,24.5,8h-6C18.2,8,18,7.8,18,7.5S18.2,7,18.5,7z M6,26C5,26,4.3,25.4,4,24.5c0,0,0,0,0,0
		c0-0.1,0-0.1,0-0.2c0-0.1,0-0.2,0-0.3c0-1.1,0.9-2,2-2s2,0.9,2,2c0,0,0,0,0,0c0,0.1,0,0.2,0,0.4c0,0,0,0,0,0C7.8,25.3,6.9,26,6,26z
		 M24,26c-0.9,0-1.7-0.7-2-1.5c0,0,0,0,0,0c0-0.1,0-0.1,0-0.2c0-0.1,0-0.2,0-0.3c0,0,0,0,0,0c0-1.1,0.9-2,2-2c0.1,0,0.3,0,0.4,0
		c0.9,0.2,1.6,1,1.6,2c0,0.1,0,0.1,0,0.2c0,0.1,0,0.1,0,0.2l0,0C25.8,25.3,25,26,24,26z"/>
</g>
</svg>
