<?xml version="1.0" encoding="utf-8"?>
<!-- Generator: Adobe Illustrator 19.0.0, SVG Export Plug-In . SVG Version: 6.00 Build 0)  -->
<svg version="1.1" id="Layer_1" xmlns="http://www.w3.org/2000/svg" xmlns:xlink="http://www.w3.org/1999/xlink" x="0px" y="0px"
	 viewBox="0 0 30 30" style="enable-background:new 0 0 30 30;" xml:space="preserve">
<g>
	<g>
		<path d="M30,19.1C30,19.1,30,19.1,30,19.1c0-0.1,0-0.2,0-0.2c0-1.7-4.2-7.2-9.7-7.3c0,0,0,0,0,0l-1.4-1.8
			c-0.1-0.1-0.2-0.2-0.4-0.2H17c-0.1,0-0.2,0-0.3,0.1l-2.4,1.9H4.5c0,0,0,0,0,0C4.3,11.3,4.2,11.1,4,11c0-0.1,0-0.2-0.1-0.3L2.4,8.2
			C2.4,8.1,2.2,8,2.1,8C2,8,1.8,8,1.7,8.1l-1.5,1C0,9.2-0.1,9.5,0,9.7l0.6,1.6C0.3,11.8,0,12.4,0,13c0,0.8,0.4,1.5,1,2c0,0,0,0,0,0
			v1c0,0.2,0.1,0.4,0.3,0.4l1,0.5C2.3,17,2.4,17,2.5,17c0.1,0,0.2,0,0.3-0.1C2.9,16.8,3,16.7,3,16.5v-1.1c0.6-0.1,1.1-0.5,1.5-0.9
			c2.3,0.4,6.2,1.3,7.1,2.3l0.3,0.6c1.1,2.3,2.5,5.1,5.1,5.1h3v1h-5.5c-0.3,0-0.5,0.2-0.5,0.5s0.2,0.5,0.5,0.5h12c0,0,0,0,0,0
			c0.5,0,2.8-0.1,3.4-1.3c0.1-0.2,0-0.5-0.2-0.7c-0.2-0.1-0.5,0-0.7,0.2c-0.3,0.5-1.7,0.7-2.6,0.7c0,0,0,0,0,0H26v-1
			C28,22.2,29.8,20.7,30,19.1z M28.9,18.5h-5c-0.2,0-0.4,0-0.6-0.1c-0.6-0.2-1.1-0.7-1.3-1.3l-1.1-4.5C25.1,13.1,28.4,17,28.9,18.5z
			 M21,23.5v-1h4v1H21z"/>
	</g>
	<g>
		<path d="M6.5,7.5h11h12C29.8,7.5,30,7.3,30,7s-0.2-0.5-0.5-0.5H18V6c0-0.3-0.2-0.5-0.5-0.5S17,5.7,17,6v0.5H6.5C6.2,6.5,6,6.7,6,7
			S6.2,7.5,6.5,7.5z"/>
	</g>
</g>
</svg>
