<?xml version="1.0" encoding="utf-8"?>
<!-- Generator: Adobe Illustrator 19.0.0, SVG Export Plug-In . SVG Version: 6.00 Build 0)  -->
<svg version="1.1" id="Layer_1" xmlns="http://www.w3.org/2000/svg" xmlns:xlink="http://www.w3.org/1999/xlink" x="0px" y="0px"
	 viewBox="0 0 30 30" style="enable-background:new 0 0 30 30;" xml:space="preserve">
<g>
	<g>
		<path d="M29.5,11V8c0-0.3-0.2-0.5-0.5-0.5h-2.4c-0.8-4.9-1.5-5.2-1.8-5.3c-1.2-0.4-8.8-0.6-9.7-0.7c-0.9,0-8.5,0.2-9.7,0.7
			C4.9,2.3,4.2,2.6,3.4,7.5L1,7.5c-0.1,0-0.3,0.1-0.4,0.1C0.6,7.7,0.5,7.9,0.5,8v3c0,0.3,0.2,0.5,0.5,0.5h2v0.6l-2.1,0.4
			c-0.2,0-0.4,0.3-0.4,0.5l0.1,3.5H1h28h0.5V13c0-0.2-0.2-0.4-0.4-0.5L27,12.1v-0.6h2C29.3,11.5,29.5,11.3,29.5,11z M5.6,3.1
			c0.8-0.3,6.2-0.5,9.4-0.6c3.2,0.1,8.6,0.3,9.4,0.6c0.3,0.2,0.8,1.6,1.4,5.7c-0.9-0.1-2.3-0.3-3.7-0.5c-0.1,0-0.1,0-0.2,0
			c-0.2,0-0.3,0-0.5-0.1c-0.1,0-0.2,0-0.3,0c-0.1,0-0.3,0-0.4-0.1c-0.1,0-0.3,0-0.4-0.1c-0.1,0-0.3,0-0.4,0c-0.1,0-0.3,0-0.4-0.1
			c-0.1,0-0.3,0-0.4,0c-0.1,0-0.3,0-0.4,0c-0.1,0-0.2,0-0.4,0c-0.1,0-0.3,0-0.4,0c-0.1,0-0.2,0-0.3,0c-0.1,0-0.3,0-0.4,0
			c-0.1,0-0.2,0-0.3,0c-0.1,0-0.3,0-0.4,0c-0.1,0-0.2,0-0.3,0c-0.1,0-0.3,0-0.4,0c-0.1,0-0.1,0-0.2,0c-0.2,0-0.4,0-0.5,0
			s-0.3,0-0.5,0c-0.1,0-0.1,0-0.2,0c-0.1,0-0.3,0-0.4,0c-0.1,0-0.2,0-0.3,0c-0.1,0-0.2,0-0.4,0c-0.1,0-0.2,0-0.3,0
			c-0.1,0-0.3,0-0.4,0c-0.1,0-0.2,0-0.3,0c-0.1,0-0.3,0-0.4,0c-0.1,0-0.2,0-0.4,0c-0.1,0-0.3,0-0.4,0c-0.1,0-0.3,0-0.4,0
			c-0.1,0-0.3,0-0.4,0.1c-0.1,0-0.3,0-0.4,0C9.7,8,9.6,8,9.4,8C9.3,8,9.1,8.1,9,8.1c-0.1,0-0.2,0-0.3,0c-0.2,0-0.3,0-0.5,0.1
			c-0.1,0-0.1,0-0.2,0C6.5,8.4,5.2,8.6,4.3,8.8C4.8,4.7,5.4,3.3,5.6,3.1z M8.5,14.5c-1.1,0-2-0.9-2-2s0.9-2,2-2s2,0.9,2,2
			S9.6,14.5,8.5,14.5z M12.5,15c0,0.3-0.2,0.5-0.5,0.5s-0.5-0.2-0.5-0.5v-2c0-0.3,0.2-0.5,0.5-0.5s0.5,0.2,0.5,0.5V15z M15.5,15
			c0,0.3-0.2,0.5-0.5,0.5s-0.5-0.2-0.5-0.5v-2c0-0.3,0.2-0.5,0.5-0.5s0.5,0.2,0.5,0.5V15z M18.5,15c0,0.3-0.2,0.5-0.5,0.5
			s-0.5-0.2-0.5-0.5v-2c0-0.3,0.2-0.5,0.5-0.5s0.5,0.2,0.5,0.5V15z M21.5,14.5c-1.1,0-2-0.9-2-2s0.9-2,2-2s2,0.9,2,2
			S22.6,14.5,21.5,14.5z"/>
	</g>
	<g>
		<path d="M28.8,21.8l-1.1,0.6c-0.2,0.1-0.4,0.2-0.7,0.2h-2.8c-0.2,0-0.4,0.1-0.4,0.3l-0.2,0.5c0,0.1-0.1,0.1-0.1,0.2v3.3
			c0,1,0.8,1.7,1.8,1.7h2.5c1,0,1.8-0.8,1.8-1.7v-4.5c0-0.2-0.1-0.3-0.2-0.4C29.1,21.7,28.9,21.7,28.8,21.8z"/>
	</g>
	<g>
		<path d="M6.2,22.8c-0.1-0.2-0.3-0.3-0.4-0.3H3c-0.2,0-0.5-0.1-0.7-0.2l-1.1-0.6c-0.2-0.1-0.3-0.1-0.5,0c-0.1,0.1-0.2,0.3-0.2,0.4
			v4.5c0,1,0.8,1.7,1.8,1.7h2.5c1,0,1.8-0.8,1.8-1.7v-3.3c0-0.1,0-0.2-0.1-0.2L6.2,22.8z"/>
	</g>
	<g>
		<circle cx="8.5" cy="12.5" r="1"/>
	</g>
	<g>
		<circle cx="21.5" cy="12.5" r="1"/>
	</g>
	<g>
		<path d="M1,17.5H0.5V20c0,0.2,0.1,0.4,0.3,0.4l2,1c0.1,0,0.1,0.1,0.2,0.1h3.7l0.9,1.7c0.1,0.2,0.3,0.3,0.4,0.3h14
			c0.2,0,0.4-0.1,0.4-0.3l0.9-1.7H27c0.1,0,0.2,0,0.2-0.1l2-1c0.2-0.1,0.3-0.3,0.3-0.4v-2.5H29H1z M9.5,20.5c-0.6,0-1-0.4-1-1
			s0.4-1,1-1s1,0.4,1,1S10.1,20.5,9.5,20.5z M20.5,20.5c-0.6,0-1-0.4-1-1s0.4-1,1-1s1,0.4,1,1S21.1,20.5,20.5,20.5z"/>
	</g>
</g>
</svg>
