<?xml version="1.0" encoding="utf-8"?>
<!-- Generator: Adobe Illustrator 19.0.0, SVG Export Plug-In . SVG Version: 6.00 Build 0)  -->
<svg version="1.1" id="Layer_1" xmlns="http://www.w3.org/2000/svg" xmlns:xlink="http://www.w3.org/1999/xlink" x="0px" y="0px"
	 viewBox="0 0 30 30" style="enable-background:new 0 0 30 30;" xml:space="preserve">
<g>
	<g>
		<path d="M17.9,13.1L14,9.3l0.4-0.4C14.8,8.6,15,8.1,15,7.7s-0.2-0.9-0.5-1.2l-1.9-1.9c-0.6-0.6-1.7-0.6-2.4,0L5.9,0.1
			C5.7,0,5.3,0,5.1,0.1S5,0.7,5.1,0.9L9.3,5L5,9.3L0.9,5.1C0.7,5,0.3,5,0.1,5.1S0,5.7,0.1,5.9l4.3,4.3C4.2,10.5,4,10.9,4,11.3
			c0,0.5,0.2,0.9,0.5,1.2c0.6,0.6,1.3,1.4,1.9,1.9C6.7,14.8,7.2,15,7.7,15c0.5,0,0.9-0.2,1.2-0.5L9.3,14l3.8,3.8
			c0.1,0.1,0.2,0.1,0.4,0.1s0.3,0,0.4-0.1l4-4C18,13.7,18,13.3,17.9,13.1z M7.9,11.9C7.8,12,7.6,12,7.5,12s-0.3,0-0.4-0.1
			c-0.2-0.2-0.2-0.5,0-0.7l4-4c0.2-0.2,0.5-0.2,0.7,0s0.2,0.5,0,0.7L7.9,11.9z"/>
	</g>
	<g>
		<path d="M29.9,24.1l-4-4c0,0-0.1,0-0.1-0.1c-0.2-0.3-1-1.5-3.3-5.3c-0.6-0.9-1.9-1.1-2.7-0.3l-5.2,5.2c-0.4,0.4-0.6,0.9-0.5,1.4
			c0.1,0.5,0.3,1,0.8,1.3l5.3,3.4c0,0,0,0,0,0l4,4c0.1,0.1,0.2,0.1,0.4,0.1s0.3,0,0.4-0.1c0.2-0.2,0.2-0.5,0-0.7l-3.6-3.6l4.3-4.3
			l3.6,3.6c0.2,0.2,0.5,0.2,0.7,0S30,24.3,29.9,24.1z M18.5,22c-0.1,0-0.3,0-0.4-0.1c-0.2-0.2-0.2-0.5,0-0.7l3-3
			c0.2-0.2,0.5-0.2,0.7,0s0.2,0.5,0,0.7l-3,3C18.8,22,18.6,22,18.5,22z"/>
	</g>
	<g>
		<path d="M11.5,21c-0.3,0-0.5,0.2-0.5,0.5v2c0,0.3,0.2,0.5,0.5,0.5s0.5-0.2,0.5-0.5v-2C12,21.2,11.8,21,11.5,21z"/>
	</g>
	<g>
		<path d="M8,17.5C8,17.2,7.8,17,7.5,17h-2C5.2,17,5,17.2,5,17.5S5.2,18,5.5,18h2C7.8,18,8,17.8,8,17.5z"/>
	</g>
	<g>
		<path d="M8.1,20.1l-1.4,1.4c-0.2,0.2-0.2,0.5,0,0.7c0.1,0.1,0.2,0.1,0.4,0.1s0.3,0,0.4-0.1l1.4-1.4c0.2-0.2,0.2-0.5,0-0.7
			S8.3,20,8.1,20.1z"/>
	</g>
	<g>
		<path d="M17.5,8C17.8,8,18,7.8,18,7.5v-2C18,5.2,17.8,5,17.5,5S17,5.2,17,5.5v2C17,7.8,17.2,8,17.5,8z"/>
	</g>
	<g>
		<path d="M21,11.5c0,0.3,0.2,0.5,0.5,0.5h2c0.3,0,0.5-0.2,0.5-0.5S23.8,11,23.5,11h-2C21.2,11,21,11.2,21,11.5z"/>
	</g>
	<g>
		<path d="M20.5,9c0.1,0,0.3,0,0.4-0.1l1.4-1.4c0.2-0.2,0.2-0.5,0-0.7s-0.5-0.2-0.7,0l-1.4,1.4c-0.2,0.2-0.2,0.5,0,0.7
			C20.2,9,20.4,9,20.5,9z"/>
	</g>
</g>
</svg>
