<?xml version="1.0" encoding="utf-8"?>
<!-- Generator: Adobe Illustrator 19.0.0, SVG Export Plug-In . SVG Version: 6.00 Build 0)  -->
<svg version="1.1" id="Layer_1" xmlns="http://www.w3.org/2000/svg" xmlns:xlink="http://www.w3.org/1999/xlink" x="0px" y="0px"
	 viewBox="0 0 30 30" style="enable-background:new 0 0 30 30;" xml:space="preserve">
<g>
	<g>
		<path d="M25.4,29.2L21.1,24h1.4c0.8,0,1.6-0.3,2.2-0.9c0.6-0.6,0.9-1.4,0.8-2.3L25,12.1c-3.8,0.9-9.6,6.6-9.7,6.7
			C15.3,18.9,15.1,19,15,19s-0.3-0.1-0.4-0.1c-0.1-0.1-5.8-5.8-9.7-6.7l-0.5,8.6c0,0.9,0.2,1.7,0.8,2.3C5.9,23.7,6.7,24,7.5,24h1.4
			l-4.3,5.2c-0.2,0.2-0.1,0.5,0.1,0.7C4.8,30,4.9,30,5,30c0.1,0,0.3-0.1,0.4-0.2L6.1,29h17.9l0.7,0.8c0.1,0.1,0.2,0.2,0.4,0.2
			c0.1,0,0.2,0,0.3-0.1C25.5,29.7,25.6,29.4,25.4,29.2z M21,18c0.8,0,1.5,0.7,1.5,1.5S21.8,21,21,21s-1.5-0.7-1.5-1.5S20.2,18,21,18
			z M7.5,19.5C7.5,18.7,8.2,18,9,18s1.5,0.7,1.5,1.5S9.8,21,9,21S7.5,20.3,7.5,19.5z M19.8,24l0.8,1H9.4l0.8-1H19.8z M6.9,28l1.7-2
			h12.9l1.7,2H6.9z"/>
	</g>
	<g>
		<circle cx="15" cy="3.5" r="0.5"/>
	</g>
	<g>
		<path d="M25,11.1l-0.4-7c-0.1-2.3-2-4.1-4.3-4.1H9.7C7.4,0,5.6,1.8,5.4,4.1l-0.4,7c3.7,0.8,8.6,5.3,10,6.7
			C16.4,16.5,21.3,11.9,25,11.1z M22.1,6c0.2,0,0.4,0.2,0.4,0.5v4c0,0.1-0.1,0.3-0.2,0.4C22.2,11,22.1,11,22,11c0,0-0.1,0-0.1,0
			l-6-1c-0.2,0-0.4-0.2-0.4-0.5v-4c0-0.1,0.1-0.3,0.2-0.4S15.9,5,16.1,5L22.1,6z M15,2c0.8,0,1.5,0.7,1.5,1.5S15.8,5,15,5
			s-1.5-0.7-1.5-1.5S14.2,2,15,2z M14.5,9.5c0,0.2-0.2,0.5-0.4,0.5l-6,1c0,0-0.1,0-0.1,0c-0.1,0-0.2,0-0.3-0.1
			c-0.1-0.1-0.2-0.2-0.2-0.4v-4C7.5,6.3,7.7,6,7.9,6l6-1c0.1,0,0.3,0,0.4,0.1c0.1,0.1,0.2,0.2,0.2,0.4V9.5z"/>
	</g>
	<g>
		<circle cx="9" cy="19.5" r="0.5"/>
	</g>
	<g>
		<circle cx="21" cy="19.5" r="0.5"/>
	</g>
</g>
</svg>
