<?xml version="1.0" encoding="iso-8859-1"?>
<!-- Generator: Adobe Illustrator 19.0.0, SVG Export Plug-In . SVG Version: 6.00 Build 0)  -->
<svg version="1.1" id="Layer_1" xmlns="http://www.w3.org/2000/svg" xmlns:xlink="http://www.w3.org/1999/xlink" x="0px" y="0px"
	 viewBox="0 0 24 24" style="enable-background:new 0 0 24 24;" xml:space="preserve">
<g>
	<g>
		<path style="fill:none;stroke:#000000;stroke-linecap:round;stroke-linejoin:round;stroke-miterlimit:10;" d="M15,9"/>
	</g>
	<g>
		<path style="fill:none;stroke:#000000;stroke-linecap:round;stroke-linejoin:round;stroke-miterlimit:10;" d="M5,9"/>
	</g>
	<g>
		<path d="M10,23.5c-0.276,0-0.5-0.224-0.5-0.5v-9c0-0.276,0.224-0.5,0.5-0.5s0.5,0.224,0.5,0.5v9C10.5,23.276,10.276,23.5,10,23.5z
			"/>
	</g>
	<g>
		<path d="M14.5,23.5H6c-0.276,0-0.5-0.224-0.5-0.5s0.224-0.5,0.5-0.5h8.5c0.276,0,0.5,0.224,0.5,0.5S14.776,23.5,14.5,23.5z"/>
	</g>
	<g>
		<path d="M18,0.5c-1.953,0-3.602,1.258-4.224,3H19c0.276,0,0.5,0.224,0.5,0.5v2c0,1.204-0.234,2.352-0.645,3.414
			C20.928,9.012,22.5,7.189,22.5,5C22.5,2.519,20.481,0.5,18,0.5z"/>
	</g>
	<g>
		<path d="M10,14.5c-4.687,0-8.5-3.813-8.5-8.5V5c0-0.276,0.224-0.5,0.5-0.5h16c0.276,0,0.5,0.224,0.5,0.5v1
			C18.5,10.687,14.687,14.5,10,14.5z M2.5,5.5V6c0,4.136,3.364,7.5,7.5,7.5s7.5-3.364,7.5-7.5V5.5H2.5z"/>
	</g>
	<path d="M17.5,6.5h-15c-0.276,0-0.337,1.111-0.337,1.111C2.923,11.313,6.219,14,10,14s7.077-2.687,7.837-6.389
		C17.837,7.611,17.776,6.5,17.5,6.5z"/>
</g>
<g>
</g>
<g>
</g>
<g>
</g>
<g>
</g>
<g>
</g>
<g>
</g>
<g>
</g>
<g>
</g>
<g>
</g>
<g>
</g>
<g>
</g>
<g>
</g>
<g>
</g>
<g>
</g>
<g>
</g>
</svg>
