<?xml version="1.0" encoding="iso-8859-1"?>
<!-- Generator: Adobe Illustrator 19.0.0, SVG Export Plug-In . SVG Version: 6.00 Build 0)  -->
<svg version="1.1" id="Layer_1" xmlns="http://www.w3.org/2000/svg" xmlns:xlink="http://www.w3.org/1999/xlink" x="0px" y="0px"
	 viewBox="0 0 24 24" style="enable-background:new 0 0 24 24;" xml:space="preserve">
<g>
	<rect x="8" y="14" width="8" height="6"/>
	<path d="M8,21v1.5C8,23.327,8.673,24,9.5,24h5c0.827,0,1.5-0.673,1.5-1.5V21H8z"/>
	<path d="M8.034,13h7.932c-0.157-2.376-0.852-4.144-1.475-5.725C13.959,5.926,13.5,4.761,13.5,3.5c0-0.425,0.18-0.531,0.176-0.532
		C13.871,2.895,14,2.708,14,2.5v-1C14,0.673,13.327,0,12.5,0h-1C10.673,0,10,0.673,10,1.5v1c0,0.208,0.105,0.385,0.3,0.458
		c0.021,0.011,0.2,0.117,0.2,0.542c0,1.261-0.459,2.426-0.991,3.775C8.886,8.856,8.192,10.624,8.034,13z"/>
</g>
<g>
</g>
<g>
</g>
<g>
</g>
<g>
</g>
<g>
</g>
<g>
</g>
<g>
</g>
<g>
</g>
<g>
</g>
<g>
</g>
<g>
</g>
<g>
</g>
<g>
</g>
<g>
</g>
<g>
</g>
</svg>
