<?xml version="1.0" encoding="iso-8859-1"?>
<!-- Generator: Adobe Illustrator 19.0.0, SVG Export Plug-In . SVG Version: 6.00 Build 0)  -->
<svg version="1.1" id="Layer_1" xmlns="http://www.w3.org/2000/svg" xmlns:xlink="http://www.w3.org/1999/xlink" x="0px" y="0px"
	 viewBox="0 0 24 24" style="enable-background:new 0 0 24 24;" xml:space="preserve">
<g>
	<g>
		<path d="M4,7C3.872,7,3.744,6.951,3.646,6.854c-0.61-0.61-1.109-1.715-1.336-2.957c-0.111-0.614-0.303-2.111,0.336-2.75
			c0.998-1,3.668,0.461,4.207,1c0.195,0.195,0.195,0.512,0,0.707s-0.512,0.195-0.707,0c-0.552-0.552-2.483-1.306-2.793-1
			c-0.394,0.394-0.071,3.222,1,4.293c0.195,0.195,0.195,0.512,0,0.707C4.256,6.951,4.128,7,4,7z"/>
	</g>
	<g>
		<path d="M4.499,4C4.408,4,4.316,3.975,4.233,3.923C4.046,3.806,3.457,3.5,3,3.5C2.724,3.5,2.5,3.276,2.5,3S2.724,2.5,3,2.5
			c0.829,0,1.674,0.518,1.767,0.577C5,3.225,5.069,3.532,4.923,3.766C4.828,3.917,4.665,4,4.499,4z"/>
	</g>
	<g>
		<path d="M9.499,21.5c-0.096,0-0.193-0.028-0.278-0.085c-0.229-0.154-1.846-1.273-2.709-2.63c-0.028,0.263-0.027,0.516-0.014,0.672
			c0.021,0.234-0.124,0.45-0.348,0.521c-0.226,0.069-0.466-0.024-0.584-0.228c-0.228-0.395-1.054-1.853-1.59-3.117
			c-0.04,0.134-0.134,0.25-0.264,0.312C3.514,17.04,3.279,17,3.132,16.838C3.024,16.722,0.5,13.948,0.5,11.5
			c0-1.548,1.484-3.108,2.677-4.362C3.728,6.56,4.481,5.767,4.5,5.498c0.019-0.27,0.279-0.487,0.517-0.481
			C5.286,5.026,5.5,5.23,5.5,5.5c0,0.647-0.671,1.352-1.599,2.328C2.832,8.952,1.5,10.352,1.5,11.5c0,1.354,1.016,2.935,1.717,3.864
			c0.089-0.202,0.21-0.422,0.376-0.654c0.127-0.176,0.356-0.252,0.56-0.186C4.359,14.59,4.5,14.783,4.5,15
			c0,0.439,0.569,1.695,1.188,2.885c0.102-0.286,0.254-0.555,0.478-0.757C6.3,17.007,6.49,16.97,6.661,17.026
			c0.171,0.059,0.298,0.205,0.33,0.383c0.225,1.212,2.089,2.704,2.788,3.176c0.229,0.155,0.289,0.465,0.135,0.694
			C9.817,21.423,9.66,21.5,9.499,21.5z"/>
	</g>
	<g>
		<path d="M8,12c-0.827,0-1.5-0.673-1.5-1.5S7.173,9,8,9s1.5,0.673,1.5,1.5S8.827,12,8,12z M8,10c-0.275,0-0.5,0.224-0.5,0.5
			S7.725,11,8,11s0.5-0.224,0.5-0.5S8.275,10,8,10z"/>
	</g>
	<g>
		<path d="M18,4c-0.169,0-0.335-0.086-0.429-0.243C16.913,2.66,14.354,1,12,1S7.087,2.66,6.429,3.757
			C6.286,3.995,5.978,4.071,5.743,3.929C5.506,3.787,5.429,3.479,5.571,3.243C6.364,1.92,9.264,0,12,0s5.636,1.92,6.429,3.243
			c0.143,0.237,0.065,0.544-0.172,0.686C18.177,3.977,18.088,4,18,4z"/>
	</g>
	<g>
		<path d="M20,7c-0.128,0-0.256-0.049-0.354-0.146c-0.195-0.195-0.195-0.512,0-0.707c1.071-1.071,1.394-3.899,1-4.293
			c-0.311-0.308-2.242,0.449-2.793,1c-0.195,0.195-0.512,0.195-0.707,0s-0.195-0.512,0-0.707c0.538-0.539,3.209-2,4.207-1
			c0.639,0.639,0.447,2.136,0.336,2.75c-0.227,1.242-0.726,2.347-1.336,2.957C20.256,6.951,20.128,7,20,7z"/>
	</g>
	<g>
		<path d="M19.501,4c-0.166,0-0.329-0.083-0.424-0.234C18.931,3.532,19,3.225,19.233,3.077C19.326,3.018,20.171,2.5,21,2.5
			c0.276,0,0.5,0.224,0.5,0.5S21.276,3.5,21,3.5c-0.457,0-1.046,0.306-1.233,0.423C19.684,3.975,19.592,4,19.501,4z"/>
	</g>
	<g>
		<path d="M14.501,21.5c-0.161,0-0.318-0.077-0.415-0.22c-0.154-0.229-0.095-0.54,0.135-0.694c0.699-0.473,2.563-1.964,2.788-3.176
			c0.032-0.178,0.159-0.324,0.33-0.383c0.173-0.058,0.36-0.02,0.496,0.102c0.224,0.202,0.376,0.471,0.478,0.757
			C18.931,16.695,19.5,15.439,19.5,15c0-0.217,0.141-0.41,0.348-0.476c0.205-0.066,0.433,0.009,0.56,0.186
			c0.166,0.232,0.287,0.452,0.376,0.654c0.701-0.929,1.717-2.509,1.717-3.864c0-1.148-1.332-2.548-2.401-3.672
			C19.171,6.852,18.5,6.147,18.5,5.5C18.5,5.224,18.724,5,19,5c0.275,0,0.499,0.223,0.5,0.499c0.02,0.27,0.772,1.062,1.323,1.64
			C22.016,8.392,23.5,9.952,23.5,11.5c0,2.448-2.524,5.222-2.632,5.338c-0.153,0.165-0.395,0.209-0.595,0.107
			c-0.126-0.064-0.216-0.176-0.253-0.306c-0.537,1.263-1.36,2.716-1.587,3.109c-0.118,0.203-0.359,0.297-0.583,0.227
			s-0.368-0.286-0.349-0.519c0.014-0.163,0.015-0.415-0.013-0.674c-0.863,1.358-2.481,2.478-2.71,2.631
			C14.694,21.472,14.597,21.5,14.501,21.5z"/>
	</g>
	<g>
		<path d="M12,24c-1.822,0-2.28-1.144-3.284-3.648c-0.196-0.488-0.417-1.039-0.677-1.658c-1.179-2.805,0.066-3.834,0.89-4.516
			C9.283,13.885,9.5,13.696,9.5,13.5C9.5,10.585,8.926,10,8,10c-0.276,0-0.5-0.224-0.5-0.5S7.724,9,8,9c2.5,0,2.5,3.04,2.5,4.5
			c0,0.676-0.496,1.086-0.934,1.449c-0.77,0.636-1.496,1.238-0.605,3.357c0.263,0.625,0.485,1.18,0.683,1.673
			C10.644,22.472,10.894,23,12,23s1.356-0.528,2.356-3.021c0.197-0.493,0.42-1.049,0.683-1.673c0.891-2.12,0.164-2.721-0.605-3.357
			C13.996,14.586,13.5,14.176,13.5,13.5c0-1.46,0-4.5,2.5-4.5c0.276,0,0.5,0.224,0.5,0.5S16.276,10,16,10
			c-0.926,0-1.5,0.585-1.5,3.5c0,0.196,0.217,0.385,0.571,0.678c0.823,0.681,2.068,1.711,0.89,4.516
			c-0.26,0.619-0.48,1.169-0.677,1.658C14.28,22.856,13.822,24,12,24z"/>
	</g>
	<g>
		<path d="M16,12c-0.827,0-1.5-0.673-1.5-1.5S15.173,9,16,9s1.5,0.673,1.5,1.5S16.827,12,16,12z M16,10c-0.275,0-0.5,0.224-0.5,0.5
			S15.725,11,16,11s0.5-0.224,0.5-0.5S16.275,10,16,10z"/>
	</g>
	<g>
		<path d="M15,5.5c-0.121,0-0.242-0.044-0.339-0.132C14.638,5.347,14.233,5,13.5,5c-0.74,0-1.146,0.354-1.162,0.369
			c-0.193,0.172-0.492,0.173-0.681-0.004C11.646,5.354,11.24,5,10.5,5S9.354,5.354,9.338,5.369c-0.203,0.182-0.52,0.169-0.704-0.033
			c-0.185-0.202-0.176-0.512,0.023-0.7C8.727,4.571,9.365,4,10.5,4c0.688,0,1.193,0.209,1.5,0.389C12.307,4.209,12.813,4,13.5,4
			c1.135,0,1.773,0.571,1.843,0.636c0.201,0.189,0.211,0.506,0.021,0.707C15.266,5.447,15.133,5.5,15,5.5z"/>
	</g>
	<g>
		<path d="M12,19c-0.146,0-0.283-0.063-0.378-0.173C10.5,17.53,10.5,17.131,10.5,17c0-0.664,0.505-1,1.5-1s1.5,0.336,1.5,1
			c0,0.131,0,0.53-1.122,1.827C12.283,18.937,12.146,19,12,19z M11.536,17.04c0.08,0.149,0.254,0.4,0.464,0.671
			c0.21-0.271,0.384-0.521,0.464-0.671C12.387,17.021,12.245,17,12,17S11.613,17.021,11.536,17.04z"/>
	</g>
	<g>
		<path d="M11,21.5c-0.183,0-0.359-0.101-0.447-0.276c-0.123-0.247-0.023-0.547,0.224-0.671l0.724-0.362V18.5
			c0-0.276,0.224-0.5,0.5-0.5s0.5,0.224,0.5,0.5v2c0,0.189-0.107,0.362-0.276,0.447l-1,0.5C11.151,21.483,11.075,21.5,11,21.5z"/>
	</g>
	<g>
		<path d="M13,21.5c-0.075,0-0.151-0.017-0.224-0.053l-1-0.5c-0.247-0.124-0.347-0.424-0.224-0.671
			c0.124-0.247,0.425-0.345,0.671-0.224l1,0.5c0.247,0.124,0.347,0.424,0.224,0.671C13.359,21.399,13.183,21.5,13,21.5z"/>
	</g>
</g>
<g>
</g>
<g>
</g>
<g>
</g>
<g>
</g>
<g>
</g>
<g>
</g>
<g>
</g>
<g>
</g>
<g>
</g>
<g>
</g>
<g>
</g>
<g>
</g>
<g>
</g>
<g>
</g>
<g>
</g>
</svg>
