<?xml version="1.0" encoding="iso-8859-1"?>
<!-- Generator: Adobe Illustrator 19.0.0, SVG Export Plug-In . SVG Version: 6.00 Build 0)  -->
<svg version="1.1" id="Layer_1" xmlns="http://www.w3.org/2000/svg" xmlns:xlink="http://www.w3.org/1999/xlink" x="0px" y="0px"
	 viewBox="0 0 24 24" style="enable-background:new 0 0 24 24;" xml:space="preserve">
<g>
	<g>
		<path d="M4,17.5c-1.221,0-3.5-5.582-3.5-7c0-1.567,3.833-8,5.5-8c1.552,0,2.349,1.624,2.492,2.411
			c0.05,0.271-0.13,0.532-0.402,0.581c-0.271,0.05-0.532-0.13-0.581-0.402C7.411,4.553,6.851,3.5,6,3.5
			c-0.839,0.157-4.5,5.524-4.5,7c0,1.284,1.769,5.034,2.488,5.885C4.607,15.548,6,12.05,6,11c0-1.043-0.417-1.724-0.421-1.73
			C5.43,9.037,5.498,8.728,5.73,8.579C5.963,8.43,6.272,8.498,6.421,8.73C6.445,8.768,7,9.65,7,11C7,11.978,5.257,17.5,4,17.5z"/>
	</g>
	<g>
		<path d="M12,18c-0.104,0-0.207-0.032-0.294-0.096C10.242,16.837,9.5,16.028,9.5,15.5c0-0.451,0.244-1.5,2.5-1.5s2.5,1.049,2.5,1.5
			c0,0.528-0.742,1.337-2.206,2.404C12.207,17.968,12.104,18,12,18z M12,15c-0.897,0-1.5,0.201-1.5,0.5
			c0.07,0.165,0.74,0.792,1.5,1.375c0.76-0.585,1.431-1.217,1.507-1.434C13.5,15.201,12.897,15,12,15z"/>
	</g>
	<g>
		<path d="M8.5,21.5c-2.061,0-3-1.555-3-3c0-1.232,1.725-4.179,2.071-4.757c0.143-0.236,0.449-0.313,0.686-0.172
			c0.237,0.142,0.314,0.449,0.172,0.686C7.683,15.504,6.5,17.759,6.5,18.5c0,0.334,0.096,2,2,2c1.488,0,3-1.746,3-3
			c0-0.276,0.224-0.5,0.5-0.5s0.5,0.224,0.5,0.5C12.5,19.247,10.56,21.5,8.5,21.5z"/>
	</g>
	<g>
		<path d="M6,17.5c-0.128,0-0.256-0.049-0.354-0.146l-1-1c-0.195-0.195-0.195-0.512,0-0.707s0.512-0.195,0.707,0l1,1
			c0.195,0.195,0.195,0.512,0,0.707C6.256,17.451,6.128,17.5,6,17.5z"/>
	</g>
	<g>
		<path d="M9,11.5c-0.827,0-1.5-0.673-1.5-1.5S8.173,8.5,9,8.5s1.5,0.673,1.5,1.5S9.827,11.5,9,11.5z M9,9.5
			c-0.276,0-0.5,0.224-0.5,0.5s0.224,0.5,0.5,0.5s0.5-0.224,0.5-0.5S9.276,9.5,9,9.5z"/>
	</g>
	<g>
		<path d="M20,17.5c-1.257,0-3-5.522-3-6.5c0-1.35,0.555-2.232,0.579-2.27c0.148-0.232,0.458-0.302,0.69-0.151
			c0.232,0.148,0.3,0.458,0.151,0.69C18.418,9.274,18,9.958,18,11c0,1.05,1.393,4.548,2.012,5.385
			c0.719-0.851,2.488-4.601,2.488-5.885c0-1.476-3.661-6.843-4.515-7.001c-0.836,0.001-1.396,1.054-1.494,1.59
			c-0.049,0.272-0.31,0.454-0.581,0.402c-0.272-0.049-0.452-0.31-0.402-0.581C15.651,4.124,16.448,2.5,18,2.5
			c1.667,0,5.5,6.433,5.5,8C23.5,11.918,21.221,17.5,20,17.5z"/>
	</g>
	<g>
		<path d="M12,18c-0.104,0-0.207-0.032-0.294-0.096C10.242,16.837,9.5,16.028,9.5,15.5c0-0.451,0.244-1.5,2.5-1.5s2.5,1.049,2.5,1.5
			c0,0.528-0.742,1.337-2.206,2.404C12.207,17.968,12.104,18,12,18z M12,15c-0.897,0-1.5,0.201-1.5,0.5
			c0.07,0.165,0.74,0.792,1.5,1.375c0.76-0.585,1.431-1.217,1.507-1.434C13.5,15.201,12.897,15,12,15z"/>
	</g>
	<g>
		<path d="M18,17.5c-0.128,0-0.256-0.049-0.354-0.146c-0.195-0.195-0.195-0.512,0-0.707l1-1c0.195-0.195,0.512-0.195,0.707,0
			s0.195,0.512,0,0.707l-1,1C18.256,17.451,18.128,17.5,18,17.5z"/>
	</g>
	<g>
		<path d="M15,11.5c-0.827,0-1.5-0.673-1.5-1.5s0.673-1.5,1.5-1.5s1.5,0.673,1.5,1.5S15.827,11.5,15,11.5z M15,9.5
			c-0.276,0-0.5,0.224-0.5,0.5s0.224,0.5,0.5,0.5s0.5-0.224,0.5-0.5S15.276,9.5,15,9.5z"/>
	</g>
	<g>
		<path d="M16,4.5c-0.128,0-0.256-0.049-0.354-0.146C15.089,3.796,13.618,2.5,12,2.5S8.911,3.796,8.354,4.354
			c-0.195,0.195-0.512,0.195-0.707,0s-0.195-0.512,0-0.707C8.292,3.001,10.008,1.5,12,1.5s3.708,1.501,4.354,2.146
			c0.195,0.195,0.195,0.512,0,0.707C16.256,4.451,16.128,4.5,16,4.5z"/>
	</g>
	<g>
		<path d="M12,22.5c-1.249,0-1.841-0.615-2.232-1.022l-0.121-0.125c-0.195-0.195-0.195-0.512,0-0.707s0.512-0.195,0.707,0
			l0.135,0.138C10.842,21.153,11.176,21.5,12,21.5s1.158-0.347,1.512-0.715l0.135-0.138c0.195-0.195,0.512-0.195,0.707,0
			s0.195,0.512,0,0.707l-0.121,0.125C13.841,21.885,13.249,22.5,12,22.5z"/>
	</g>
	<g>
		<path d="M15.5,21.5c-2.06,0-4-2.253-4-4c0-0.276,0.224-0.5,0.5-0.5s0.5,0.224,0.5,0.5c0,1.254,1.512,3,3,3c1.904,0,2-1.666,2-2
			c0-0.742-1.183-2.997-1.929-4.243c-0.142-0.237-0.064-0.544,0.172-0.686c0.236-0.141,0.544-0.064,0.686,0.172
			c0.346,0.578,2.071,3.525,2.071,4.757C18.5,19.945,17.561,21.5,15.5,21.5z"/>
	</g>
</g>
<g>
</g>
<g>
</g>
<g>
</g>
<g>
</g>
<g>
</g>
<g>
</g>
<g>
</g>
<g>
</g>
<g>
</g>
<g>
</g>
<g>
</g>
<g>
</g>
<g>
</g>
<g>
</g>
<g>
</g>
</svg>
