<?xml version="1.0" encoding="iso-8859-1"?>
<!-- Generator: Adobe Illustrator 19.0.0, SVG Export Plug-In . SVG Version: 6.00 Build 0)  -->
<svg version="1.1" id="Layer_1" xmlns="http://www.w3.org/2000/svg" xmlns:xlink="http://www.w3.org/1999/xlink" x="0px" y="0px"
	 viewBox="0 0 24 24" style="enable-background:new 0 0 24 24;" xml:space="preserve">
<g>
	<g>
		<path d="M22.981,18c-0.128,0-0.256-0.049-0.354-0.146c-0.195-0.195-0.195-0.512,0-0.707c0.28-0.28,0.407-0.566,0.39-0.874
			c-0.042-0.725-0.839-1.375-0.847-1.381c-0.128-0.102-0.198-0.26-0.188-0.423c0-0.003,0.027-0.657-0.373-1.078
			c-0.508-0.532-1.698-0.381-2.728-0.128c-0.495,0.122-0.964,0.237-1.4,0.237l-0.259,0.001c-0.971,0.01-2.426,0.021-3.095-0.648
			c-0.195-0.195-0.195-0.512,0-0.707s0.512-0.195,0.707,0c0.372,0.373,1.73,0.363,2.379,0.355l0.268-0.001
			c0.315,0,0.727-0.101,1.162-0.208C19.201,12.155,19.834,12,20.481,12c0.792,0,1.418,0.239,1.861,0.711
			c0.493,0.525,0.609,1.196,0.634,1.56c0.33,0.313,0.987,1.045,1.039,1.944c0.035,0.601-0.194,1.152-0.681,1.638
			C23.237,17.951,23.109,18,22.981,18z"/>
	</g>
	<g>
		<path d="M17.481,19.5c-0.212,0-0.409-0.136-0.477-0.349c-0.084-0.263,0.063-0.544,0.325-0.627
			c0.998-0.316,3.499-1.871,4.379-2.442c0.099-0.064,0.214-0.09,0.335-0.077c0.254,0.032,0.624,0.15,0.925,0.396
			c0-0.009,0-0.019-0.001-0.028c-0.019-0.753-0.814-1.495-0.822-1.502c-0.204-0.186-0.22-0.501-0.034-0.707
			c0.187-0.205,0.502-0.218,0.706-0.035c0.046,0.042,1.121,1.029,1.15,2.218c0.014,0.557-0.205,1.078-0.633,1.506
			c-0.143,0.143-0.36,0.187-0.545,0.108c-0.187-0.077-0.309-0.26-0.309-0.462c0-0.285-0.238-0.413-0.404-0.467
			c-0.705,0.452-3.277,2.073-4.444,2.443C17.582,19.493,17.531,19.5,17.481,19.5z"/>
	</g>
	<g>
		<path d="M17.282,20.077c-0.46,0-1.022-0.319-1.607-0.651c-0.291-0.165-0.76-0.431-0.965-0.48
			c-0.187,0.096-0.425,0.066-0.582-0.091c-0.195-0.195-0.195-0.512,0-0.707c0.478-0.477,1.201-0.068,2.04,0.409
			c0.17,0.096,0.397,0.225,0.605,0.331c-0.078-0.648,0.022-1.408,0.354-1.74c0.195-0.195,0.512-0.195,0.707,0
			c0.192,0.193,0.195,0.503,0.008,0.699c-0.134,0.203-0.125,1.101,0.014,1.326c0.195,0.195,0.174,0.486-0.021,0.682
			C17.677,20.012,17.49,20.077,17.282,20.077z"/>
	</g>
	<g>
		<path d="M21.481,24c-0.128,0-0.256-0.049-0.354-0.146c-0.195-0.195-0.195-0.512,0-0.707c0.292-0.292,0.284-0.499,0.253-0.629
			c-0.215-0.903-2.501-2.03-4.056-2.542c-0.263-0.086-0.405-0.369-0.318-0.631c0.086-0.262,0.369-0.406,0.631-0.319
			c0.438,0.144,4.287,1.457,4.717,3.26c0.092,0.387,0.076,0.973-0.52,1.569C21.737,23.951,21.609,24,21.481,24z"/>
	</g>
	<g>
		<path d="M19.481,24c-0.128,0-0.256-0.049-0.354-0.146c-0.291-0.291-0.409-0.658-0.331-1.032c0.223-1.073,1.929-1.758,2.001-1.787
			c0.256-0.1,0.548,0.024,0.648,0.282c0.102,0.257-0.024,0.547-0.281,0.649c-0.654,0.258-1.33,0.773-1.389,1.059
			c-0.005,0.023-0.012,0.052,0.059,0.122c0.195,0.195,0.195,0.512,0,0.707C19.737,23.951,19.609,24,19.481,24z"/>
	</g>
	<g>
		<path d="M6.481,24c-1.403,0-2.733-2.029-3.257-2.934c-0.131,0.066-0.243,0.193-0.243,0.434c0,0.276-0.224,0.5-0.5,0.5
			c-0.884,0-1.255-1.225-1.408-2.385l-0.238,0.239c-0.143,0.143-0.356,0.185-0.541,0.11c-0.186-0.075-0.309-0.254-0.313-0.455
			c-0.023-1.387,0.648-4.214,3.362-4.99c3.07-0.876,4.142-0.557,4.323-0.483c0.257,0.103,0.381,0.394,0.278,0.65
			s-0.394,0.382-0.649,0.279l0,0c-0.005,0-0.935-0.268-3.677,0.517c-1.515,0.433-2.16,1.639-2.435,2.617
			c0.135-0.101,0.316-0.127,0.479-0.064c0.185,0.072,0.31,0.247,0.318,0.445c0.032,0.781,0.163,1.583,0.319,2.075
			C2.613,20.176,3.096,20.012,3.466,20c0.178-0.002,0.367,0.097,0.457,0.265c0.302,0.568,0.752,1.251,1.221,1.793
			c-0.035-0.215-0.044-0.435-0.028-0.659c0.134-1.839,1.988-3.242,2.067-3.3c0.179-0.133,0.425-0.132,0.602,0.003
			C7.81,18.121,10.299,20,11.981,20c1.576,0,2.89-0.463,3.944-0.835l0.394-0.138c0.26-0.089,0.545,0.05,0.635,0.311
			s-0.049,0.545-0.311,0.635l-0.386,0.135C15.19,20.484,13.729,21,11.981,21c-1.632,0-3.687-1.315-4.477-1.866
			c-0.455,0.412-1.32,1.322-1.393,2.341c-0.042,0.596,0.194,1.143,0.723,1.671c0.143,0.143,0.186,0.358,0.108,0.545
			S6.684,24,6.481,24z"/>
	</g>
	<g>
		<path d="M17.481,15c-0.05,0-0.102-0.007-0.151-0.023c-2.774-0.884-4.999-3.748-5.951-7.661c-0.502-2.065-0.534-4.037-0.142-5.476
			c-1.195,1.136-1.256,2.655-1.256,2.674C9.975,4.73,9.83,4.918,9.623,4.979C9.415,5.04,9.191,4.961,9.069,4.783
			C9.038,4.738,8.521,3.974,8.211,2.948C7.843,4.093,7.977,5.429,7.979,5.447c0.025,0.241-0.125,0.465-0.356,0.533
			C7.386,6.048,7.143,5.939,7.034,5.724L6.418,4.491C5.98,5.467,5.945,6.893,5.98,7.469c0.015,0.237-0.14,0.452-0.369,0.514
			C5.383,8.041,5.141,7.936,5.034,7.724L4.603,6.859C4.534,7.274,4.481,7.815,4.481,8.5c0,1.965,1.373,3.667,1.387,3.684
			c0.123,0.149,0.147,0.356,0.065,0.531c-0.019,0.039-0.042,0.075-0.069,0.107l1.895,1.263c0.229,0.153,0.292,0.463,0.139,0.693
			c-0.154,0.23-0.465,0.291-0.693,0.139l-3-2c-0.184-0.122-0.265-0.35-0.201-0.561C4.066,12.144,4.261,12,4.481,12h0.058
			c-0.467-0.788-1.058-2.067-1.058-3.5c0-2.24,0.513-3.16,0.571-3.257C4.146,5.086,4.286,4.978,4.501,5
			c0.182,0.007,0.346,0.113,0.428,0.276L5.086,5.59c0.136-0.868,0.429-1.83,1.042-2.444c0.113-0.114,0.276-0.166,0.434-0.14
			c0.158,0.026,0.295,0.126,0.367,0.27l0.125,0.251c0.135-0.83,0.436-1.742,1.074-2.381C8.271,1.003,8.486,0.96,8.673,1.038
			S8.981,1.298,8.981,1.5c0,0.539,0.142,1.075,0.313,1.527c0.375-1.023,1.2-2.322,3.013-2.996c0.218-0.082,0.468,0.001,0.595,0.199
			s0.099,0.458-0.067,0.624c-0.932,0.932-1.135,3.55-0.484,6.226c0.868,3.571,2.844,6.167,5.282,6.944
			c0.264,0.084,0.409,0.365,0.325,0.628C17.891,14.864,17.693,15,17.481,15z"/>
	</g>
	<g>
		<path d="M17.481,24c-0.276,0-0.5-0.224-0.5-0.5c0-1.11-2-2.235-2.7-2.542c-0.253-0.111-0.368-0.405-0.258-0.658
			c0.111-0.253,0.407-0.367,0.658-0.258c0.338,0.147,3.3,1.5,3.3,3.458C17.981,23.776,17.758,24,17.481,24z"/>
	</g>
	<g>
		<path d="M15.481,24c-0.128,0-0.256-0.049-0.354-0.146c-0.256-0.255-0.376-0.568-0.349-0.905c0.059-0.713,0.77-1.254,0.911-1.355
			c0.223-0.161,0.535-0.108,0.696,0.115s0.109,0.536-0.113,0.697c-0.199,0.145-0.482,0.442-0.497,0.625
			c-0.002,0.02-0.005,0.052,0.059,0.115c0.195,0.195,0.195,0.512,0,0.707C15.737,23.951,15.609,24,15.481,24z"/>
	</g>
	<g>
		<path d="M18.128,12.854l0.354-0.354l-0.398,0.31c-0.58-0.576-1.102-1.263-1.102-3.31c0-2.034,2.807-5.407,5.339-6.286
			C22.061,3.09,21.766,3,21.481,3c-0.773,0-2.018,1.119-2.62,1.825c-0.135,0.159-0.355,0.216-0.553,0.145
			c-0.196-0.073-0.327-0.26-0.327-0.469V3.436c-1.161,0.93-2.069,2.318-2.08,2.335c-0.098,0.15-0.248,0.236-0.448,0.227
			c-0.179-0.01-0.339-0.115-0.419-0.275l-0.718-1.437c-0.426,0.402-1.123,1.171-1.906,2.471c-0.144,0.237-0.451,0.313-0.687,0.17
			c-0.236-0.143-0.313-0.45-0.171-0.687c1.42-2.354,2.609-3.131,2.659-3.163c0.119-0.077,0.266-0.099,0.402-0.061
			c0.137,0.038,0.251,0.131,0.314,0.258l0.63,1.26c0.566-0.735,1.559-1.87,2.686-2.477c0.155-0.083,0.343-0.08,0.494,0.011
			c0.15,0.09,0.243,0.253,0.243,0.429v0.782C19.655,2.679,20.608,2,21.481,2c0.971,0,2.034,0.635,2.419,1.228
			c0.101,0.154,0.108,0.35,0.021,0.511S23.665,4,23.481,4c-2.157,0-5.5,3.654-5.5,5.5c0,1.8,0.447,2.243,0.807,2.6l-0.307,0.4
			L18.128,12.854z"/>
	</g>
	<g>
		<circle cx="20.481" cy="14.5" r="0.5"/>
	</g>
</g>
<g>
</g>
<g>
</g>
<g>
</g>
<g>
</g>
<g>
</g>
<g>
</g>
<g>
</g>
<g>
</g>
<g>
</g>
<g>
</g>
<g>
</g>
<g>
</g>
<g>
</g>
<g>
</g>
<g>
</g>
</svg>
