<?xml version="1.0" encoding="iso-8859-1"?>
<!-- Generator: Adobe Illustrator 19.0.0, SVG Export Plug-In . SVG Version: 6.00 Build 0)  -->
<svg version="1.1" id="Layer_1" xmlns="http://www.w3.org/2000/svg" xmlns:xlink="http://www.w3.org/1999/xlink" x="0px" y="0px"
	 viewBox="0 0 24 24" style="enable-background:new 0 0 24 24;" xml:space="preserve">
<g>
	<g>
		<path d="M12,18.5c-0.869,0-1.5-0.42-1.5-1s0.631-1,1.5-1s1.5,0.42,1.5,1S12.869,18.5,12,18.5z"/>
	</g>
	<g>
		<path d="M11,20c-0.183,0-0.359-0.101-0.447-0.276c-0.123-0.247-0.023-0.547,0.224-0.671l0.724-0.362V18c0-0.276,0.224-0.5,0.5-0.5
			s0.5,0.224,0.5,0.5v1c0,0.189-0.107,0.362-0.276,0.447l-1,0.5C11.152,19.983,11.075,20,11,20z"/>
	</g>
	<g>
		<path d="M8.501,17.5c-0.025,0-0.05-0.002-0.075-0.005C8.307,17.477,5.5,17.032,5.5,15c0-1.885,3.124-4.5,4.5-4.5
			c1.217,0,1.688,0.476,2.234,1.026l0.119,0.12c0.195,0.195,0.195,0.512,0,0.707s-0.512,0.195-0.707,0l-0.122-0.123
			C11.012,11.714,10.8,11.5,10,11.5c-0.797,0-3.5,2.17-3.5,3.5c0,1.162,2.054,1.502,2.074,1.505c0.273,0.041,0.461,0.296,0.42,0.569
			C8.957,17.322,8.744,17.5,8.501,17.5z"/>
	</g>
	<g>
		<circle cx="10" cy="13" r="0.5"/>
	</g>
	<g>
		<path d="M6,9C3.253,9,0.72,5.947,0.613,5.817C0.491,5.667,0.466,5.461,0.548,5.286C0.631,5.111,0.807,5,1,5
			c0.198,0,0.294-0.043,0.485-0.129C1.834,4.714,2.311,4.5,3.5,4.5c1.899,0,4.627,1.499,4.742,1.563
			C8.484,6.196,8.571,6.5,8.438,6.742c-0.134,0.24-0.434,0.33-0.68,0.195C7.732,6.923,5.141,5.5,3.5,5.5
			c-0.939,0-1.284,0.14-1.572,0.268C2.75,6.594,4.387,8,6,8c0.276,0,0.5,0.224,0.5,0.5S6.277,9,6,9z"/>
	</g>
	<g>
		<path d="M12,21.5c-2.083,0-3.158-0.903-4.107-1.699C7.062,19.103,6.344,18.5,5,18.5c-2.813,0-3.617,0.823-3.625,0.831
			c-0.155,0.165-0.404,0.211-0.606,0.104c-0.199-0.107-0.308-0.33-0.255-0.55c0.025-0.109,0.525-2.148,2.037-3.008
			C2.026,15.673,1.446,15.5,1,15.5c-0.276,0-0.5-0.224-0.5-0.5s0.224-0.5,0.5-0.5c0.568,0,1.439-0.326,2.085-0.613
			c-0.501-0.165-1.329-0.322-2.127-0.389c-0.267-0.022-0.469-0.251-0.458-0.519C0.512,12.711,0.733,12.5,1,12.5
			c1.785,0,3.302-2.013,4.769-3.959C6.925,7.007,8.027,5.545,9.28,5.122c-0.138-0.241-0.334-0.52-0.598-0.736
			C8.496,4.232,8.446,3.969,8.563,3.758s0.364-0.31,0.596-0.232l2.479,0.826c0.055-0.355,0.056-0.698-0.038-0.825
			C11.592,3.518,11.579,3.5,11.504,3.5c-0.001,0-0.001,0-0.001,0c-0.001,0-0.001,0-0.001,0c-0.001,0-0.001,0-0.002,0
			C11.224,3.5,11,3.276,11,3s0.224-0.5,0.5-0.5c0.001,0,0.002,0,0.003,0l0,0c0.001,0,0.002,0,0.003,0l0,0c0.001,0,0.002,0,0.003,0
			l0,0c1.342,0.007,2.431,1.809,2.811,2.524c1.422,0.213,2.634,1.821,3.912,3.517C19.698,10.487,21.215,12.5,23,12.5
			c0.268,0,0.488,0.211,0.499,0.479c0.012,0.268-0.19,0.497-0.457,0.519c-0.798,0.067-1.625,0.225-2.126,0.389
			C21.563,14.174,22.434,14.5,23,14.5c0.276,0,0.5,0.224,0.5,0.5s-0.224,0.5-0.5,0.5c-0.445,0-1.025,0.173-1.551,0.377
			c1.512,0.86,2.012,2.899,2.037,3.008c0.054,0.226-0.056,0.458-0.263,0.562c-0.206,0.104-0.459,0.051-0.607-0.127l0,0
			c-0.001,0-0.808-0.82-3.616-0.82c-1.344,0-2.062,0.603-2.893,1.301C15.158,20.597,14.083,21.5,12,21.5z M5,17.5
			c1.708,0,2.637,0.78,3.536,1.535C9.434,19.788,10.281,20.5,12,20.5s2.566-0.712,3.464-1.465C16.363,18.28,17.292,17.5,19,17.5
			c1.372,0,2.343,0.182,3.016,0.404C21.627,17.22,20.984,16.5,20,16.5c-0.228,0-0.427-0.154-0.484-0.374
			c-0.057-0.22,0.042-0.452,0.241-0.563c0.039-0.022,0.544-0.302,1.205-0.569c-0.612-0.246-1.098-0.5-1.197-0.553
			C19.602,14.354,19.5,14.185,19.5,14c0-0.51,0.47-0.9,1.401-1.165C19.586,12,18.463,10.51,17.433,9.143C16.269,7.598,15.065,6,14,6
			c-0.192,0-0.368-0.111-0.451-0.285c-0.176-0.369-0.511-0.939-0.896-1.408c-0.043,0.395-0.14,0.728-0.175,0.842
			c-0.04,0.128-0.13,0.235-0.25,0.296c-0.12,0.061-0.259,0.072-0.386,0.029l-1.519-0.506c0.1,0.215,0.148,0.364,0.153,0.38
			c0.048,0.152,0.021,0.318-0.073,0.447C10.31,5.924,10.159,6,10,6C8.936,6,7.732,7.598,6.568,9.143
			C5.537,10.51,4.414,12,3.099,12.835C4.03,13.1,4.5,13.49,4.5,14c0,0.185-0.102,0.354-0.265,0.441
			c-0.1,0.053-0.585,0.307-1.197,0.553c0.661,0.267,1.166,0.546,1.205,0.569c0.199,0.111,0.298,0.342,0.241,0.563
			C4.427,16.346,4.228,16.5,4,16.5c-0.983,0-1.627,0.72-2.016,1.404C2.657,17.682,3.628,17.5,5,17.5z"/>
	</g>
	<g>
		<path d="M13,20c-0.075,0-0.151-0.017-0.224-0.053l-1-0.5C11.608,19.362,11.5,19.189,11.5,19v-1c0-0.276,0.224-0.5,0.5-0.5
			s0.5,0.224,0.5,0.5v0.691l0.724,0.362c0.247,0.124,0.347,0.424,0.224,0.671C13.36,19.899,13.183,20,13,20z"/>
	</g>
	<g>
		<path d="M15.999,19.5c-0.254,0-0.472-0.193-0.497-0.452C15.488,18.903,15.118,15.5,12,15.5s-3.488,3.403-3.502,3.548
			c-0.027,0.275-0.275,0.475-0.546,0.449c-0.274-0.026-0.476-0.269-0.45-0.544C7.647,17.413,8.773,14.5,12,14.5
			s4.354,2.913,4.498,4.453c0.025,0.275-0.176,0.518-0.45,0.544C16.031,19.499,16.016,19.5,15.999,19.5z"/>
	</g>
	<g>
		<path d="M15.499,17.5c-0.242,0-0.455-0.177-0.493-0.425c-0.041-0.273,0.146-0.528,0.419-0.569C15.446,16.502,17.5,16.155,17.5,15
			c0-1.33-2.703-3.5-3.5-3.5c-0.8,0-1.012,0.214-1.524,0.73l-0.122,0.123c-0.195,0.195-0.512,0.195-0.707,0s-0.195-0.512,0-0.707
			l0.119-0.12C12.312,10.976,12.783,10.5,14,10.5c1.376,0,4.5,2.615,4.5,4.5c0,2.032-2.807,2.477-2.926,2.495
			C15.549,17.498,15.525,17.5,15.499,17.5z"/>
	</g>
	<g>
		<circle cx="14" cy="13" r="0.5"/>
	</g>
	<g>
		<path d="M18,9c-0.276,0-0.5-0.224-0.5-0.5S17.724,8,18,8c1.613,0,3.25-1.406,4.072-2.232C21.784,5.64,21.44,5.5,20.5,5.5
			c-1.644,0-4.231,1.423-4.258,1.438c-0.243,0.133-0.545,0.047-0.68-0.195c-0.134-0.242-0.046-0.546,0.195-0.68
			C15.873,5.999,18.601,4.5,20.5,4.5c1.189,0,1.666,0.214,2.015,0.371C22.706,4.957,22.802,5,23,5c0.193,0,0.369,0.111,0.452,0.286
			c0.082,0.175,0.057,0.381-0.065,0.531C23.28,5.947,20.747,9,18,9z"/>
	</g>
</g>
<g>
</g>
<g>
</g>
<g>
</g>
<g>
</g>
<g>
</g>
<g>
</g>
<g>
</g>
<g>
</g>
<g>
</g>
<g>
</g>
<g>
</g>
<g>
</g>
<g>
</g>
<g>
</g>
<g>
</g>
</svg>
