<?xml version="1.0" encoding="iso-8859-1"?>
<!-- Generator: Adobe Illustrator 19.0.0, SVG Export Plug-In . SVG Version: 6.00 Build 0)  -->
<svg version="1.1" id="Layer_1" xmlns="http://www.w3.org/2000/svg" xmlns:xlink="http://www.w3.org/1999/xlink" x="0px" y="0px"
	 viewBox="0 0 24 24" style="enable-background:new 0 0 24 24;" xml:space="preserve">
<g>
	<g>
		<path d="M15.5,22c-0.843,0-1.264-0.345-1.602-0.623C13.621,21.15,13.438,21,13,21c-0.444,0-0.633,0.153-0.918,0.384
			C11.743,21.658,11.321,22,10.5,22c-0.899,0-1.227-0.428-1.443-0.71C8.895,21.079,8.835,21,8.5,21c-0.584,0-1.1-0.197-1.646-0.406
			C6.125,20.316,5.299,20,4,20c-2.128,0-3.16,0.868-3.171,0.876c-0.147,0.129-0.358,0.16-0.539,0.075
			C0.112,20.869-0.003,20.69,0,20.494c0.002-0.113,0.056-2.785,1.821-3.46c1.356-0.52,2.333-1.395,2.343-1.404
			c0.204-0.184,0.521-0.169,0.706,0.035c0.186,0.204,0.17,0.52-0.034,0.706c-0.045,0.041-1.118,1.007-2.657,1.597
			c-0.592,0.227-0.902,0.945-1.053,1.591C1.76,19.278,2.714,19,4,19c1.483,0,2.441,0.366,3.212,0.66C7.708,19.85,8.101,20,8.5,20
			c0.829,0,1.144,0.411,1.352,0.682C10.018,20.9,10.095,21,10.5,21c0.468,0,0.671-0.165,0.953-0.393C11.786,20.336,12.202,20,13,20
			c0.796,0,1.204,0.335,1.532,0.604C14.812,20.834,15.015,21,15.5,21c0.387,0,0.419-0.069,0.551-0.612
			c0.092-0.38,0.207-0.853,0.596-1.242c0.601-0.601,1.308-0.301,1.775-0.1c0.506,0.218,0.61,0.217,0.725,0.1
			c0.279-0.28,0.32-0.484,0.377-0.766c0.068-0.34,0.152-0.764,0.623-1.234c0.656-0.656,1.6-0.518,2.245-0.254
			C22.638,16.605,23,16.083,23,15.5c0-0.56-0.13-1.5-1-1.5c-0.834,0-1.596,0.303-2.146,0.854c-0.195,0.195-0.512,0.195-0.707,0
			s-0.195-0.512,0-0.707C19.886,13.407,20.899,13,22,13c1.233,0,2,0.958,2,2.5c0,1.336-1.123,2.334-1.171,2.376
			c-0.16,0.141-0.396,0.162-0.578,0.057c-0.009-0.006-0.953-0.521-1.397-0.08c-0.256,0.256-0.293,0.442-0.35,0.723
			c-0.069,0.349-0.156,0.783-0.65,1.277c-0.627,0.627-1.349,0.316-1.826,0.112c-0.476-0.203-0.578-0.209-0.674-0.112
			c-0.19,0.19-0.259,0.472-0.331,0.771C16.89,21.172,16.688,22,15.5,22z"/>
	</g>
	<g>
		<path d="M14.699,17c-1.696,0-2.937-0.03-4.053-1.146c-0.195-0.195-0.195-0.512,0-0.707s0.512-0.195,0.707,0
			c0.854,0.854,1.776,0.86,3.491,0.854H15c1.308,0,4.189-1.333,4.453-2.229c0.02-0.064,0.051-0.173-0.225-0.351
			c-0.231-0.149-0.299-0.459-0.148-0.691c0.15-0.233,0.46-0.297,0.691-0.149c0.574,0.37,0.808,0.908,0.641,1.474
			C19.955,15.606,16.458,17,15,17h-0.155C14.796,17,14.747,17,14.699,17z"/>
	</g>
	<g>
		<path d="M21.499,14c-0.253,0-0.471-0.192-0.496-0.45l-0.5-5c-0.028-0.275,0.173-0.52,0.447-0.547
			c0.266-0.028,0.52,0.173,0.547,0.448l0.5,5c0.028,0.275-0.173,0.52-0.447,0.547C21.533,13.999,21.516,14,21.499,14z"/>
	</g>
	<g>
		<path d="M22.501,14c-0.027,0-0.056-0.002-0.083-0.007c-0.272-0.045-0.457-0.303-0.411-0.575l1-6
			c0.046-0.272,0.309-0.461,0.575-0.411c0.272,0.045,0.457,0.303,0.411,0.575l-1,6C22.952,13.827,22.74,14,22.501,14z"/>
	</g>
	<g>
		<path d="M8,17c-4.448,0-7-2.369-7-6.5C1,6.406,3.973,2,10.5,2c7.124,0,9.5,6.306,9.5,8c0,1.757,0,3.417-1.308,3.961
			c-0.252,0.107-0.548-0.014-0.654-0.269c-0.105-0.255,0.015-0.548,0.27-0.654C19,12.75,19,11.476,19,10c0-1.482-2.126-7-8.5-7
			C3.79,3,2,7.714,2,10.5C2,14.047,4.131,16,8,16c4.942,0,5-5.94,5-6c0-1.661-1.241-4-4-4C6.051,6,5,7.808,5,9.5
			C5,11.218,6.296,12,7.5,12c1.24,0,2.5-1.164,2.5-2c0-0.869-0.631-1.5-1.5-1.5c-0.804,0-1,0.196-1,1C7.5,9.776,7.276,10,7,10
			S6.5,9.776,6.5,9.5c0-1.346,0.654-2,2-2C9.925,7.5,11,8.575,11,10c0,1.458-1.799,3-3.5,3C5.761,13,4,11.798,4,9.5
			C4,7.424,5.31,5,9,5c3.449,0,5,2.924,5,5C14,12.421,12.746,17,8,17z"/>
	</g>
</g>
<g>
</g>
<g>
</g>
<g>
</g>
<g>
</g>
<g>
</g>
<g>
</g>
<g>
</g>
<g>
</g>
<g>
</g>
<g>
</g>
<g>
</g>
<g>
</g>
<g>
</g>
<g>
</g>
<g>
</g>
</svg>
