<?xml version="1.0" encoding="iso-8859-1"?>
<!-- Generator: Adobe Illustrator 19.0.0, SVG Export Plug-In . SVG Version: 6.00 Build 0)  -->
<svg version="1.1" id="Layer_1" xmlns="http://www.w3.org/2000/svg" xmlns:xlink="http://www.w3.org/1999/xlink" x="0px" y="0px"
	 viewBox="0 0 24 24" style="enable-background:new 0 0 24 24;" xml:space="preserve">
<g>
	<g>
		<path d="M18.5,14h-4C10.304,14,9,18.765,9,20.5c0,2.322,0.673,3.5,2,3.5c2.074,0,3.095-1.946,3.385-2.616
			C14.729,21.256,15.541,21,16.5,21s1.771,0.256,2.115,0.384C18.905,22.054,19.926,24,22,24c1.327,0,2-1.178,2-3.5
			C24,18.765,22.696,14,18.5,14z M14.5,18H14v0.5c0,0.276-0.224,0.5-0.5,0.5S13,18.776,13,18.5V18h-0.5c-0.276,0-0.5-0.224-0.5-0.5
			s0.224-0.5,0.5-0.5H13v-0.5c0-0.276,0.224-0.5,0.5-0.5s0.5,0.224,0.5,0.5V17h0.5c0.276,0,0.5,0.224,0.5,0.5S14.776,18,14.5,18z
			 M19.5,16c0.276,0,0.5,0.224,0.5,0.5S19.776,17,19.5,17S19,16.776,19,16.5S19.224,16,19.5,16z M18.5,18
			c-0.276,0-0.5-0.224-0.5-0.5s0.224-0.5,0.5-0.5s0.5,0.224,0.5,0.5S18.776,18,18.5,18z M19.5,19c-0.276,0-0.5-0.224-0.5-0.5
			s0.224-0.5,0.5-0.5s0.5,0.224,0.5,0.5S19.776,19,19.5,19z M20.5,18c-0.276,0-0.5-0.224-0.5-0.5s0.224-0.5,0.5-0.5
			s0.5,0.224,0.5,0.5S20.776,18,20.5,18z M8.125,17H7.5C7.224,17,7,17.224,7,17.5V18H2.5C2.224,18,2,18.224,2,18.5S2.224,19,2.5,19
			H7v0.5C7,19.776,7.224,20,7.5,20h0.09c0.246,0,0.455-0.179,0.494-0.422c0.096-0.609,0.272-1.267,0.51-1.903
			c0.057-0.154,0.035-0.326-0.058-0.46C8.442,17.08,8.289,17,8.125,17z M21.5,7C22.879,7,24,5.878,24,4.5v-2
			C24,1.122,22.879,0,21.5,0h-19C1.121,0,0,1.122,0,2.5v2C0,5.878,1.121,7,2.5,7H9v1H2.5C1.121,8,0,9.122,0,10.5v2
			C0,13.878,1.121,15,2.5,15h7.411c0.139,0,0.271-0.058,0.366-0.16c1.018-1.097,2.27-1.704,3.723-1.817V10.5
			c0-0.276,0.224-0.5,0.5-0.5s0.5,0.224,0.5,0.5V13h1v-2.5c0-0.276,0.224-0.5,0.5-0.5s0.5,0.224,0.5,0.5V13h1v-2.5
			c0-0.276,0.224-0.5,0.5-0.5s0.5,0.224,0.5,0.5v2.543c0.345,0.028,0.678,0.083,1,0.168V10.5c0-0.276,0.224-0.5,0.5-0.5
			s0.5,0.224,0.5,0.5v3c0,0.027-0.011,0.049-0.015,0.075c0.482,0.234,0.943,0.52,1.36,0.901c0.176,0.161,0.44,0.175,0.634,0.033
			C23.628,14.03,24,13.298,24,12.5v-2C24,9.122,22.879,8,21.5,8H10V7H21.5z M20,2.5C20,2.224,20.224,2,20.5,2S21,2.224,21,2.5v2
			C21,4.776,20.776,5,20.5,5S20,4.776,20,4.5V2.5z M18,2.5C18,2.224,18.224,2,18.5,2S19,2.224,19,2.5v2C19,4.776,18.776,5,18.5,5
			S18,4.776,18,4.5V2.5z M16,2.5C16,2.224,16.224,2,16.5,2S17,2.224,17,2.5v2C17,4.776,16.776,5,16.5,5S16,4.776,16,4.5V2.5z
			 M14,2.5C14,2.224,14.224,2,14.5,2S15,2.224,15,2.5v2C15,4.776,14.776,5,14.5,5S14,4.776,14,4.5V2.5z M3.5,5
			C2.673,5,2,4.327,2,3.5S2.673,2,3.5,2S5,2.673,5,3.5S4.327,5,3.5,5z M3.5,13C2.673,13,2,12.327,2,11.5S2.673,10,3.5,10
			S5,10.673,5,11.5S4.327,13,3.5,13z"/>
	</g>
</g>
</svg>
