<?xml version="1.0" encoding="iso-8859-1"?>
<!-- Generator: Adobe Illustrator 19.0.0, SVG Export Plug-In . SVG Version: 6.00 Build 0)  -->
<svg version="1.1" id="Layer_1" xmlns="http://www.w3.org/2000/svg" xmlns:xlink="http://www.w3.org/1999/xlink" x="0px" y="0px"
	 viewBox="0 0 24 24" style="enable-background:new 0 0 24 24;" xml:space="preserve">
<g>
	<g>
		<path d="M21.935,20.854l-1.501-0.375l-0.063-0.251c0.39-0.43,0.666-0.979,0.781-1.548c0.267-0.138,0.461-0.4,0.5-0.715l0.109-0.87
			c0.033-0.264-0.048-0.53-0.223-0.729c-0.054-0.062-0.116-0.116-0.183-0.161l0.026-0.53l0.092-0.092
			c0.257-0.274,0.606-0.859,0.054-1.703C21.265,13.478,20.725,13,19.644,13c-0.318,0-1.037,0-1.735,0.438
			c-2.058,0.072-2.3,1.181-2.3,2.019c0,0.165,0.029,0.474,0.058,0.732c-0.074,0.047-0.142,0.104-0.201,0.171
			c-0.177,0.201-0.26,0.468-0.227,0.735l0.109,0.87c0.041,0.326,0.248,0.596,0.553,0.729c0.113,0.545,0.374,1.073,0.739,1.492
			l-0.073,0.294l-1.501,0.375C13.849,21.158,13,22.246,13,23.5c0,0.276,0.224,0.5,0.5,0.5h10c0.276,0,0.5-0.225,0.5-0.501
			C24,22.246,23.151,21.158,21.935,20.854z M21.5,7C22.878,7,24,5.878,24,4.5v-2C24,1.122,22.878,0,21.5,0h-19
			C1.122,0,0,1.122,0,2.5v2C0,5.878,1.122,7,2.5,7H9v1H2.5C1.122,8,0,9.122,0,10.5v2C0,13.878,1.122,15,2.5,15H9v1H8.5
			C8.224,16,8,16.224,8,16.5V17H7.5C7.224,17,7,17.224,7,17.5V18H2.5C2.224,18,2,18.224,2,18.5S2.224,19,2.5,19H7v0.5
			C7,19.776,7.224,20,7.5,20h4c0.276,0,0.5-0.224,0.5-0.5V19h2.5c0.276,0,0.5-0.224,0.5-0.5S14.776,18,14.5,18H12v-0.5
			c0-0.276-0.224-0.5-0.5-0.5H11v-0.5c0-0.276-0.224-0.5-0.5-0.5H10v-1h4.218c0.232,0,0.434-0.16,0.487-0.386
			c0.197-0.841,0.676-1.437,1.42-1.792C16.05,12.734,16,12.624,16,12.5v-2c0-0.276,0.224-0.5,0.5-0.5s0.5,0.224,0.5,0.5v2
			c0,0.013-0.007,0.024-0.008,0.037c0.169-0.033,0.346-0.06,0.533-0.077c0.061-0.006,0.12-0.022,0.175-0.049
			c0.102-0.05,0.199-0.077,0.299-0.116V10.5c0-0.276,0.224-0.5,0.5-0.5s0.5,0.224,0.5,0.5v1.539C19.278,12.006,19.513,12,19.644,12
			c0.127,0,0.24,0.013,0.356,0.023V10.5c0-0.276,0.224-0.5,0.5-0.5s0.5,0.224,0.5,0.5v1.745c0.724,0.284,1.148,0.756,1.363,1.084
			c0.099,0.151,0.185,0.324,0.271,0.543c0.066,0.169,0.219,0.289,0.399,0.313c0.181,0.023,0.358-0.052,0.467-0.197
			C23.827,13.55,24,13.035,24,12.5v-2C24,9.122,22.878,8,21.5,8H10V7H21.5z M20,2.5C20,2.224,20.224,2,20.5,2S21,2.224,21,2.5v2
			C21,4.776,20.776,5,20.5,5S20,4.776,20,4.5V2.5z M18,2.5C18,2.224,18.224,2,18.5,2S19,2.224,19,2.5v2C19,4.776,18.776,5,18.5,5
			S18,4.776,18,4.5V2.5z M16,2.5C16,2.224,16.224,2,16.5,2S17,2.224,17,2.5v2C17,4.776,16.776,5,16.5,5S16,4.776,16,4.5V2.5z
			 M14,2.5C14,2.224,14.224,2,14.5,2S15,2.224,15,2.5v2C15,4.776,14.776,5,14.5,5S14,4.776,14,4.5V2.5z M3.5,5
			C2.673,5,2,4.327,2,3.5S2.673,2,3.5,2C4.327,2,5,2.673,5,3.5S4.327,5,3.5,5z M3.5,13C2.673,13,2,12.327,2,11.5S2.673,10,3.5,10
			C4.327,10,5,10.673,5,11.5S4.327,13,3.5,13z M14,10.5c0-0.276,0.224-0.5,0.5-0.5s0.5,0.224,0.5,0.5v2c0,0.276-0.224,0.5-0.5,0.5
			S14,12.776,14,12.5V10.5z"/>
	</g>
</g>
</svg>
