<?xml version="1.0" encoding="iso-8859-1"?>
<!-- Generator: Adobe Illustrator 19.0.0, SVG Export Plug-In . SVG Version: 6.00 Build 0)  -->
<svg version="1.1" id="Layer_1" xmlns="http://www.w3.org/2000/svg" xmlns:xlink="http://www.w3.org/1999/xlink" x="0px" y="0px"
	 viewBox="0 0 30 30" style="enable-background:new 0 0 30 30;" xml:space="preserve">
<g>
	<g>
		<path d="M9.854,19.147c-0.046-0.046-0.102-0.083-0.163-0.108c-0.035-0.014-0.073-0.016-0.109-0.022C9.554,19.012,9.529,19,9.5,19
			c-0.038,0-0.072,0.014-0.108,0.022c-0.027,0.006-0.055,0.006-0.081,0.016c-0.063,0.026-0.12,0.064-0.167,0.111l-1.997,1.997
			c-0.195,0.195-0.195,0.512,0,0.707s0.512,0.195,0.707,0L9,20.708V24.5C9,24.776,9.224,25,9.5,25s0.5-0.224,0.5-0.5v-3.792
			l1.146,1.146C11.244,21.951,11.372,22,11.5,22s0.256-0.049,0.354-0.146c0.195-0.195,0.195-0.512,0-0.707L9.854,19.147
			C9.854,19.147,9.854,19.147,9.854,19.147z M15.4,28.739L15,28.847V1.163l13,3.714V20.5c0,0.276,0.224,0.5,0.5,0.5
			s0.5-0.224,0.5-0.5v-16c0-0.223-0.148-0.419-0.363-0.481l-14-4c-0.014-0.004-0.029,0.003-0.043,0C14.563,0.013,14.533,0,14.5,0
			s-0.063,0.013-0.094,0.019c-0.014,0.003-0.029-0.004-0.043,0l-14,4C0.148,4.081,0,4.277,0,4.5v21c0,0.223,0.148,0.419,0.363,0.481
			l14,4C14.408,29.994,14.454,30,14.5,30c0.044,0,0.088-0.006,0.13-0.017l1.03-0.278c0.267-0.072,0.425-0.346,0.353-0.613
			C15.941,28.824,15.665,28.669,15.4,28.739z M5,3.734l3.999-1.143v11.701l-0.5,0.5l-1.146-1.146c-0.195-0.195-0.512-0.195-0.707,0
			L5.5,14.793l-0.5-0.5V3.734z M14,28.837L1,25.123V4.877L4,4.02V14.5c0,0.133,0.053,0.26,0.147,0.353l1,1
			c0.195,0.195,0.512,0.195,0.707,0L7,14.707l1.146,1.147C8.244,15.951,8.372,16,8.5,16s0.256-0.049,0.353-0.146l1-1
			c0.093-0.094,0.146-0.221,0.146-0.354V2.306L14,1.163V28.837z M25,22.5c0-0.276-0.224-0.5-0.5-0.5S24,22.224,24,22.5v2
			c0,0.276,0.224,0.5,0.5,0.5h2c0.276,0,0.5-0.224,0.5-0.5S26.776,24,26.5,24H25V22.5z M29.854,24.146l-4-4
			C25.76,20.053,25.633,20,25.5,20h-8c-0.276,0-0.5,0.224-0.5,0.5v8c0,0.276,0.224,0.5,0.5,0.5h1.592c0.207,0.581,0.757,1,1.408,1
			c0.651,0,1.201-0.419,1.408-1h3.184c0.207,0.581,0.757,1,1.408,1c0.651,0,1.201-0.419,1.408-1H29.5c0.276,0,0.5-0.224,0.5-0.5v-4
			C30,24.367,29.947,24.24,29.854,24.146z M20.5,29c-0.276,0-0.5-0.224-0.5-0.5s0.224-0.5,0.5-0.5s0.5,0.224,0.5,0.5
			S20.776,29,20.5,29z M26.5,29c-0.276,0-0.5-0.224-0.5-0.5s0.224-0.5,0.5-0.5s0.5,0.224,0.5,0.5S26.776,29,26.5,29z M29,28h-1.092
			c-0.207-0.581-0.757-1-1.408-1c-0.651,0-1.201,0.419-1.408,1h-3.184c-0.207-0.581-0.757-1-1.408-1c-0.651,0-1.201,0.419-1.408,1
			H18v-7h7.293L29,24.707V28z"/>
	</g>
</g>
</svg>
