<?xml version="1.0" encoding="iso-8859-1"?>
<!-- Generator: Adobe Illustrator 19.0.0, SVG Export Plug-In . SVG Version: 6.00 Build 0)  -->
<svg version="1.1" id="Layer_1" xmlns="http://www.w3.org/2000/svg" xmlns:xlink="http://www.w3.org/1999/xlink" x="0px" y="0px"
	 viewBox="0 0 30 30" style="enable-background:new 0 0 30 30;" xml:space="preserve">
<g>
	<g>
		<path d="M9.854,19.147C9.807,19.1,9.752,19.064,9.69,19.038c-0.035-0.014-0.071-0.016-0.108-0.022C9.555,19.012,9.529,19,9.5,19
			c-0.038,0-0.072,0.014-0.107,0.022c-0.027,0.006-0.056,0.006-0.082,0.017c-0.063,0.026-0.119,0.064-0.167,0.111l-1.997,1.997
			c-0.195,0.195-0.195,0.512,0,0.707c0.195,0.195,0.512,0.195,0.707,0L9,20.708V24.5C9,24.776,9.224,25,9.5,25s0.5-0.224,0.5-0.5
			v-3.792l1.146,1.146C11.244,21.951,11.372,22,11.5,22s0.256-0.049,0.354-0.146c0.195-0.195,0.195-0.512,0-0.707L9.854,19.147
			C9.854,19.147,9.854,19.147,9.854,19.147z M17.362,28.179L15,28.84V1.163l12.999,3.714V16.5c0,0.276,0.224,0.5,0.5,0.5
			s0.5-0.224,0.5-0.5v-12c0-0.223-0.148-0.419-0.362-0.481l-14-4c-0.014-0.004-0.029,0.003-0.043,0C14.563,0.013,14.533,0,14.5,0
			s-0.063,0.013-0.094,0.019c-0.015,0.003-0.03-0.004-0.044,0l-14,4C0.148,4.081,0,4.277,0,4.5v21c0,0.223,0.148,0.419,0.362,0.481
			l14,4C14.407,29.994,14.454,30,14.5,30c0.045,0,0.091-0.006,0.133-0.019l2.998-0.839c0.266-0.074,0.421-0.35,0.347-0.616
			C17.904,28.26,17.63,28.101,17.362,28.179z M5.001,3.734L9,2.591v11.701l-0.5,0.5l-1.146-1.146c-0.195-0.195-0.512-0.195-0.707,0
			l-1.146,1.146l-0.5-0.5V3.734z M14,28.837L0.999,25.123V4.877l3.002-0.858v10.48c0,0.133,0.052,0.26,0.146,0.354l1,1
			c0.195,0.195,0.512,0.195,0.707,0L7,14.707l1.146,1.147C8.244,15.951,8.372,16,8.5,16s0.256-0.049,0.354-0.146l1-1
			C9.947,14.76,10,14.633,10,14.5V2.305l4-1.143V28.837z M29.5,22H29v-0.5c0-2.481-2.019-4.5-4.5-4.5S20,19.019,20,21.5V22h-0.5
			c-0.276,0-0.5,0.224-0.5,0.5v7c0,0.276,0.224,0.5,0.5,0.5h10c0.276,0,0.5-0.224,0.5-0.5v-7C30,22.224,29.776,22,29.5,22z M21,21.5
			c0-1.93,1.57-3.5,3.5-3.5s3.5,1.57,3.5,3.5V22h-7V21.5z M29,29h-9v-6h9V29z M24,25.847V26.5c0,0.276,0.224,0.5,0.5,0.5
			s0.5-0.224,0.5-0.5v-0.653c0.294-0.174,0.5-0.481,0.5-0.847c0-0.552-0.448-1-1-1s-1,0.448-1,1
			C23.5,25.366,23.706,25.673,24,25.847z"/>
	</g>
</g>
</svg>
