<?xml version="1.0" encoding="iso-8859-1"?>
<!-- Generator: Adobe Illustrator 19.0.0, SVG Export Plug-In . SVG Version: 6.00 Build 0)  -->
<svg version="1.1" id="Layer_1" xmlns="http://www.w3.org/2000/svg" xmlns:xlink="http://www.w3.org/1999/xlink" x="0px" y="0px"
	 viewBox="0 0 24 24" style="enable-background:new 0 0 24 24;" xml:space="preserve">
<g>
	<path d="M23.854,23.146l-23-23c-0.195-0.195-0.512-0.195-0.707,0s-0.195,0.512,0,0.707l23,23C23.244,23.951,23.372,24,23.5,24
		s0.256-0.049,0.354-0.146C24.049,23.658,24.049,23.342,23.854,23.146z"/>
	<path d="M6.411,4.29l8.483,8.484c0.095,0.095,0.223,0.146,0.354,0.146c0.031,0,0.063-0.003,0.095-0.009
		c0.163-0.032,0.3-0.142,0.365-0.294l1.252-2.92c0.065-0.154,0.05-0.332-0.043-0.472C16.825,9.084,16.668,9,16.5,9h-3.23
		l3.688-8.297c0.068-0.155,0.055-0.333-0.038-0.476C16.827,0.085,16.669,0,16.5,0h-10C6.36,0,6.228,0.058,6.133,0.16
		C6.038,0.263,5.991,0.399,6.002,0.539l0.265,3.436C6.275,4.093,6.327,4.205,6.411,4.29z"/>
	<path d="M7.589,9.71C7.441,9.563,7.219,9.523,7.026,9.61c-0.19,0.087-0.306,0.284-0.289,0.493l0.265,3.436
		C7.021,13.799,7.238,14,7.5,14h1.548l0.955,9.55c0.022,0.227,0.195,0.41,0.421,0.444C10.449,23.998,10.475,24,10.5,24
		c0.197,0,0.38-0.117,0.46-0.303l3.052-7.12c0.08-0.188,0.038-0.406-0.106-0.55L7.589,9.71z"/>
</g>
<g>
</g>
<g>
</g>
<g>
</g>
<g>
</g>
<g>
</g>
<g>
</g>
<g>
</g>
<g>
</g>
<g>
</g>
<g>
</g>
<g>
</g>
<g>
</g>
<g>
</g>
<g>
</g>
<g>
</g>
</svg>
