<?xml version="1.0" encoding="iso-8859-1"?>
<!-- Generator: Adobe Illustrator 19.0.0, SVG Export Plug-In . SVG Version: 6.00 Build 0)  -->
<svg version="1.1" id="Layer_1" xmlns="http://www.w3.org/2000/svg" xmlns:xlink="http://www.w3.org/1999/xlink" x="0px" y="0px"
	 viewBox="0 0 24 24" style="enable-background:new 0 0 24 24;" xml:space="preserve">
<g>
	<path d="M22.698,11.041c-0.185-0.08-0.396-0.042-0.542,0.096L14,18.84v-5.366c3.252-0.342,5-4.012,5-7.474
		c0-3.494-1.526-5.696-1.592-5.789C17.312,0.075,17.127-0.001,16.986,0c-0.168,0.005-0.321,0.093-0.41,0.235L14.5,3.557
		l-2.076-3.322c-0.182-0.292-0.666-0.292-0.848,0L9.5,3.557L7.424,0.235C7.335,0.093,7.182,0.005,7.014,0
		C6.872-0.002,6.688,0.075,6.592,0.211C6.526,0.304,5,2.506,5,6c0,3.462,1.748,7.132,5,7.474V23.5c0,0.276,0.224,0.5,0.5,0.5h5
		c3.145,0,7.5-2.433,7.5-7v-5.5C23,11.3,22.881,11.12,22.698,11.041z"/>
	<path d="M1.854,11.147c-0.143-0.143-0.358-0.185-0.545-0.108C1.122,11.115,1,11.298,1,11.5V17c0,4.567,4.355,7,7.5,7
		C8.776,24,9,23.776,9,23.5v-5c0-0.133-0.053-0.26-0.146-0.354L1.854,11.147z"/>
</g>
<g>
</g>
<g>
</g>
<g>
</g>
<g>
</g>
<g>
</g>
<g>
</g>
<g>
</g>
<g>
</g>
<g>
</g>
<g>
</g>
<g>
</g>
<g>
</g>
<g>
</g>
<g>
</g>
<g>
</g>
</svg>
