<?xml version="1.0" encoding="iso-8859-1"?>
<!-- Generator: Adobe Illustrator 19.0.0, SVG Export Plug-In . SVG Version: 6.00 Build 0)  -->
<svg version="1.1" id="Layer_1" xmlns="http://www.w3.org/2000/svg" xmlns:xlink="http://www.w3.org/1999/xlink" x="0px" y="0px"
	 viewBox="0 0 24 24" style="enable-background:new 0 0 24 24;" xml:space="preserve">
<g>
	<g>
		<path d="M10.987,22.918v-4.945H6.985C7.898,20.693,9.351,22.592,10.987,22.918z"/>
		<path d="M5,11.973H0.013c0.078,1.804,0.56,3.504,1.379,5h4.245C5.259,15.46,5.035,13.772,5,11.973z"/>
		<path d="M6,11.973c0.039,1.792,0.28,3.495,0.683,5h4.304v-5H6z"/>
		<path d="M5,10.973c0.035-1.8,0.259-3.487,0.636-5H1.391c-0.818,1.496-1.301,3.196-1.379,5H5z"/>
		<path d="M13.337,22.27c-0.02-0.082-0.057-0.161-0.117-0.226c-0.795-0.844-1.232-1.936-1.232-3.072v3.947
			C12.487,22.822,12.936,22.582,13.337,22.27z"/>
		<path d="M11.987,17.973v1c0-0.344,0.052-0.676,0.127-1H11.987z"/>
		<path d="M6.683,5.973C6.28,7.478,6.039,9.18,6,10.973h4.987v-5H6.683z"/>
		<path d="M21.583,5.973h-4.245c0.377,1.513,0.601,3.2,0.636,5h4.987C22.884,9.169,22.402,7.469,21.583,5.973z"/>
		<path d="M16.969,11.973h-4.982v5h0.478c0.535-1.063,1.487-1.898,2.695-2.274c0.188-0.059,0.323-0.221,0.348-0.415
			c0.043-0.338,0.188-0.64,0.419-0.871c0.269-0.269,0.636-0.401,1.005-0.414C16.955,12.656,16.962,12.314,16.969,11.973z"/>
		<path d="M5.916,17.973H2.01c1.516,2.204,3.781,3.846,6.424,4.575C7.386,21.498,6.52,19.913,5.916,17.973z"/>
		<path d="M5.916,4.973c0.604-1.94,1.471-3.525,2.518-4.575C5.791,1.127,3.526,2.769,2.01,4.973H5.916z"/>
		<path d="M17.969,11.973c-0.01,0.45-0.023,0.9-0.058,1.351c0.043,0.034,0.097,0.049,0.137,0.089l1.154,1.154
			c0.154,0.155,0.394,0.191,0.588,0.088c0.228-0.121,0.462-0.182,0.697-0.182c0.47,0,0.949,0.088,1.467,0.269
			c0.133,0.045,0.276,0.036,0.399-0.031c0.123-0.065,0.214-0.179,0.249-0.313c0.211-0.801,0.315-1.614,0.352-2.424H17.969z"/>
		<path d="M16.291,5.973h-4.304v5h4.987C16.936,9.18,16.695,7.478,16.291,5.973z"/>
		<path d="M17.059,4.973h3.906c-1.516-2.204-3.781-3.846-6.424-4.575C15.588,1.447,16.455,3.033,17.059,4.973z"/>
		<path d="M10.987,4.973V0.027C9.351,0.353,7.898,2.252,6.985,4.973H10.987z"/>
		<path d="M11.987,0.027v4.945h4.002C15.077,2.252,13.624,0.353,11.987,0.027z"/>
	</g>
	<g>
		<path d="M16.487,22.473c-1.93,0-3.5-1.57-3.5-3.5s1.57-3.5,3.5-3.5h2c0.276,0,0.5,0.224,0.5,0.5s-0.224,0.5-0.5,0.5h-2
			c-1.379,0-2.5,1.122-2.5,2.5s1.121,2.5,2.5,2.5c0.276,0,0.5,0.224,0.5,0.5S16.764,22.473,16.487,22.473z"/>
	</g>
	<g>
		<path d="M20.487,22.473h-2c-0.276,0-0.5-0.224-0.5-0.5s0.224-0.5,0.5-0.5h2c1.379,0,2.5-1.122,2.5-2.5s-1.121-2.5-2.5-2.5
			c-0.276,0-0.5-0.224-0.5-0.5s0.224-0.5,0.5-0.5c1.93,0,3.5,1.57,3.5,3.5S22.417,22.473,20.487,22.473z"/>
	</g>
	<g>
		<path d="M16.987,17.973c-0.128,0-0.256-0.049-0.354-0.146c-0.195-0.195-0.195-0.512,0-0.707l1.146-1.146l-1.146-1.146
			c-0.195-0.195-0.195-0.512,0-0.707s0.512-0.195,0.707,0l1.5,1.5c0.195,0.195,0.195,0.512,0,0.707l-1.5,1.5
			C17.243,17.924,17.115,17.973,16.987,17.973z"/>
	</g>
	<g>
		<path d="M19.987,23.973c-0.128,0-0.256-0.049-0.354-0.146l-1.5-1.5c-0.195-0.195-0.195-0.512,0-0.707l1.5-1.5
			c0.195-0.195,0.512-0.195,0.707,0s0.195,0.512,0,0.707l-1.146,1.146l1.146,1.146c0.195,0.195,0.195,0.512,0,0.707
			C20.243,23.924,20.115,23.973,19.987,23.973z"/>
	</g>
</g>
<g>
</g>
<g>
</g>
<g>
</g>
<g>
</g>
<g>
</g>
<g>
</g>
<g>
</g>
<g>
</g>
<g>
</g>
<g>
</g>
<g>
</g>
<g>
</g>
<g>
</g>
<g>
</g>
<g>
</g>
</svg>
