<?xml version="1.0" encoding="iso-8859-1"?>
<!-- Generator: Adobe Illustrator 19.0.0, SVG Export Plug-In . SVG Version: 6.00 Build 0)  -->
<svg version="1.1" id="Layer_1" xmlns="http://www.w3.org/2000/svg" xmlns:xlink="http://www.w3.org/1999/xlink" x="0px" y="0px"
	 viewBox="0 0 24 24" style="enable-background:new 0 0 24 24;" xml:space="preserve">
<g>
	<g>
		<rect x="17.287" y="4.299" transform="matrix(-0.7071 -0.7071 0.7071 -0.7071 26.6774 20.0624)" width="0.414" height="0.414"/>
		<rect x="19.291" y="6.294" transform="matrix(-0.7071 -0.7071 0.7071 -0.7071 28.6892 24.8859)" width="0.414" height="0.414"/>
		<path d="M23.852,6.148l-6-6c-0.195-0.195-0.512-0.195-0.707,0l-5,5c-0.195,0.195-0.195,0.512,0,0.707l6,6
			c0.098,0.098,0.226,0.146,0.354,0.146s0.256-0.049,0.354-0.146l5-5C24.047,6.659,24.047,6.343,23.852,6.148z M17.494,6.006
			c-0.128,0-0.256-0.049-0.354-0.146l-1-1c-0.195-0.195-0.195-0.512,0-0.707c0.477-0.477,0.757-0.757,0.936-0.921
			c0.019-0.028,0.04-0.054,0.064-0.079l0.012,0.011c0.191-0.167,0.243-0.167,0.352-0.167c0.176,0,0.336,0.092,0.426,0.238
			l0.918,0.918c0.195,0.195,0.195,0.512,0,0.707l-1,1C17.75,5.957,17.622,6.006,17.494,6.006z M20.852,6.855l-1,1
			c-0.098,0.098-0.226,0.146-0.354,0.146s-0.256-0.049-0.354-0.146l-1-1c-0.195-0.195-0.195-0.512,0-0.707l1-1
			c0.195-0.195,0.512-0.195,0.707,0l1,1C21.047,6.343,21.047,6.659,20.852,6.855z"/>
	</g>
	<path d="M19.852,12.148l-1-1c-0.195-0.195-0.512-0.195-0.707,0l-5.293-5.293c0.195-0.195,0.195-0.512,0-0.707l-1-1
		c-0.195-0.195-0.512-0.195-0.707,0l-9.586,9.586c-2.077,2.078-2.077,5.458,0,7.535l1.172,1.172
		c1.039,1.039,2.403,1.558,3.768,1.558s2.729-0.52,3.768-1.558l9.586-9.586C20.047,12.659,20.047,12.343,19.852,12.148z
		 M10.499,20.001c-3.584,0-6.5-2.916-6.5-6.5c0-0.276,0.224-0.5,0.5-0.5s0.5,0.224,0.5,0.5c0,3.033,2.468,5.5,5.5,5.5
		c0.276,0,0.5,0.224,0.5,0.5S10.775,20.001,10.499,20.001z M10.499,18.001c-2.481,0-4.5-2.019-4.5-4.5c0-0.276,0.224-0.5,0.5-0.5
		s0.5,0.224,0.5,0.5c0,1.93,1.57,3.5,3.5,3.5c0.276,0,0.5,0.224,0.5,0.5S10.775,18.001,10.499,18.001z M10.499,16.001
		c-1.379,0-2.5-1.122-2.5-2.5c0-0.276,0.224-0.5,0.5-0.5s0.5,0.224,0.5,0.5c0,0.827,0.673,1.5,1.5,1.5c0.276,0,0.5,0.224,0.5,0.5
		S10.775,16.001,10.499,16.001z"/>
</g>
<g>
</g>
<g>
</g>
<g>
</g>
<g>
</g>
<g>
</g>
<g>
</g>
<g>
</g>
<g>
</g>
<g>
</g>
<g>
</g>
<g>
</g>
<g>
</g>
<g>
</g>
<g>
</g>
<g>
</g>
</svg>
