<?xml version="1.0" encoding="iso-8859-1"?>
<!-- Generator: Adobe Illustrator 19.0.0, SVG Export Plug-In . SVG Version: 6.00 Build 0)  -->
<svg version="1.1" id="Layer_1" xmlns="http://www.w3.org/2000/svg" xmlns:xlink="http://www.w3.org/1999/xlink" x="0px" y="0px"
	 viewBox="0 0 24 24" style="enable-background:new 0 0 24 24;" xml:space="preserve">
<g>
	<g>
		<path d="M11.5,13h-11C0.224,13,0,12.776,0,12.5v-12C0,0.224,0.224,0,0.5,0h12C12.776,0,13,0.224,13,0.5v11
			c0,0.276-0.224,0.5-0.5,0.5H12v0.5C12,12.776,11.776,13,11.5,13z M1,12h10v-0.5c0-0.276,0.224-0.5,0.5-0.5H12V1H1V12z"/>
	</g>
	<g>
		<path d="M23.5,24h-12c-0.276,0-0.5-0.224-0.5-0.5v-12c0-0.276,0.224-0.5,0.5-0.5h12c0.276,0,0.5,0.224,0.5,0.5v12
			C24,23.776,23.776,24,23.5,24z M12,23h11V12H12V23z"/>
	</g>
	<g>
		<path d="M9.5,5h-6C3.224,5,3,4.776,3,4.5S3.224,4,3.5,4h6C9.776,4,10,4.224,10,4.5S9.776,5,9.5,5z"/>
	</g>
	<g>
		<path d="M6.5,5C6.224,5,6,4.776,6,4.5v-2C6,2.224,6.224,2,6.5,2S7,2.224,7,2.5v2C7,4.776,6.776,5,6.5,5z"/>
	</g>
	<g>
		<path d="M8.5,11c-0.12,0-0.241-0.043-0.337-0.13C7.737,10.481,4,7.002,4,4.5C4,4.224,4.224,4,4.5,4S5,4.224,5,4.5
			c0,1.748,2.77,4.657,3.837,5.63c0.204,0.186,0.219,0.502,0.032,0.707C8.771,10.945,8.636,11,8.5,11z"/>
	</g>
	<g>
		<path d="M4.5,11c-0.136,0-0.271-0.055-0.369-0.163c-0.187-0.204-0.172-0.521,0.032-0.707C5.23,9.157,8,6.248,8,4.5
			C8,4.224,8.224,4,8.5,4S9,4.224,9,4.5c0,2.502-3.737,5.981-4.163,6.37C4.741,10.957,4.62,11,4.5,11z"/>
	</g>
	<g>
		<path d="M20.5,22c-0.202,0-0.393-0.124-0.468-0.324L17.5,14.924l-2.532,6.752c-0.097,0.259-0.388,0.388-0.644,0.292
			c-0.259-0.097-0.39-0.385-0.292-0.644l3-8c0.146-0.39,0.789-0.39,0.936,0l3,8c0.098,0.259-0.033,0.547-0.292,0.644
			C20.618,21.99,20.559,22,20.5,22z"/>
	</g>
	<g>
		<path d="M19.5,20h-4c-0.276,0-0.5-0.224-0.5-0.5s0.224-0.5,0.5-0.5h4c0.276,0,0.5,0.224,0.5,0.5S19.776,20,19.5,20z"/>
	</g>
	<g>
		<path d="M21.5,10C21.224,10,21,9.776,21,9.5C21,5.916,18.084,3,14.5,3C14.224,3,14,2.776,14,2.5S14.224,2,14.5,2
			C18.636,2,22,5.364,22,9.5C22,9.776,21.776,10,21.5,10z"/>
	</g>
	<g>
		<path d="M21.5,10c-0.132,0-0.26-0.052-0.354-0.146l-2-2c-0.195-0.195-0.195-0.512,0-0.707s0.512-0.195,0.707,0l1.593,1.592
			L22.6,7.2c0.167-0.222,0.48-0.264,0.7-0.1c0.221,0.166,0.266,0.479,0.101,0.7l-1.5,2c-0.087,0.116-0.221,0.188-0.365,0.199
			C21.523,10,21.512,10,21.5,10z"/>
	</g>
	<g>
		<path d="M9.5,22C5.364,22,2,18.636,2,14.5C2,14.224,2.224,14,2.5,14S3,14.224,3,14.5C3,18.084,5.916,21,9.5,21
			c0.276,0,0.5,0.224,0.5,0.5S9.776,22,9.5,22z"/>
	</g>
	<g>
		<path d="M1,17c-0.104,0-0.21-0.033-0.3-0.1c-0.221-0.166-0.266-0.479-0.101-0.7l1.5-2c0.087-0.116,0.221-0.188,0.365-0.199
			c0.146-0.008,0.287,0.042,0.389,0.145l2,2c0.195,0.195,0.195,0.512,0,0.707s-0.512,0.195-0.707,0l-1.593-1.592L1.4,16.8
			C1.302,16.931,1.151,17,1,17z"/>
	</g>
</g>
<g>
</g>
<g>
</g>
<g>
</g>
<g>
</g>
<g>
</g>
<g>
</g>
<g>
</g>
<g>
</g>
<g>
</g>
<g>
</g>
<g>
</g>
<g>
</g>
<g>
</g>
<g>
</g>
<g>
</g>
</svg>
