<?xml version="1.0" encoding="utf-8"?>
<!-- Generator: Adobe Illustrator 19.0.0, SVG Export Plug-In . SVG Version: 6.00 Build 0)  -->
<svg version="1.1" id="Layer_1" xmlns="http://www.w3.org/2000/svg" xmlns:xlink="http://www.w3.org/1999/xlink" x="0px" y="0px"
	 viewBox="0 0 30 30" style="enable-background:new 0 0 30 30;" xml:space="preserve">
<g>
	<path d="M23.8,19c-1.5,0-3.5-0.5-4.8-0.9c-0.6-0.2-1.4,0-1.7,0.4l-2.8,2c-3.2-1.7-5.2-3.7-6.8-6.8l2.4-2.5c0.5-0.5,0.6-1.1,0.4-1.8
		C9.8,7.5,9.5,6,9.5,4.8c0-1-0.8-1.8-1.8-1.8H3.2c-1,0-1.8,0.8-1.8,1.8C1.5,16.8,11.7,27,23.7,27c1,0,1.8-0.8,1.8-1.8v-4.5
		C25.5,19.8,24.7,19,23.8,19z"/>
	<path d="M28.5,6c0-1.7-1.3-3-3-3s-3,1.3-3,3c0,0.8,0.3,1.5,0.8,2h-2.6c0.5-0.5,0.8-1.2,0.8-2c0-1.7-1.3-3-3-3s-3,1.3-3,3
		c0,1.4,0.9,2.5,2.2,2.9C17.8,8.9,17.9,9,18,9h8c0.1,0,0.2-0.1,0.3-0.1C27.6,8.5,28.5,7.4,28.5,6z"/>
</g>
</svg>
