<?xml version="1.0" encoding="iso-8859-1"?>
<!-- Generator: Adobe Illustrator 19.0.0, SVG Export Plug-In . SVG Version: 6.00 Build 0)  -->
<svg version="1.1" id="Layer_1" xmlns="http://www.w3.org/2000/svg" xmlns:xlink="http://www.w3.org/1999/xlink" x="0px" y="0px"
	 viewBox="0 0 30 30" style="enable-background:new 0 0 30 30;" xml:space="preserve">
<g>
	<g>
		<path d="M13.5,19h-8C5.224,19,5,19.224,5,19.5S5.224,20,5.5,20h8c0.276,0,0.5-0.224,0.5-0.5S13.776,19,13.5,19z M17.63,29H1V6h4.5
			c0.133,0,0.261-0.052,0.354-0.146S6,5.633,6,5.5V1h14v10.775c0,0.276,0.224,0.5,0.5,0.5s0.5-0.224,0.5-0.5V0.5
			C21,0.224,20.776,0,20.5,0h-15C5.471,0,5.445,0.012,5.417,0.017C5.381,0.023,5.344,0.024,5.31,0.038
			C5.248,0.064,5.193,0.1,5.146,0.147c0,0,0,0,0,0L0.149,5.144C0.148,5.145,0.147,5.145,0.146,5.146
			C0.099,5.193,0.063,5.249,0.038,5.31C0.013,5.371,0,5.436,0,5.502V29.5C0,29.776,0.224,30,0.5,30h17.13c0.277,0,0.5-0.224,0.5-0.5
			S17.906,29,17.63,29z M5,1.707V5H1.707L5,1.707z M13.5,16h-8C5.224,16,5,16.224,5,16.5S5.224,17,5.5,17h8
			c0.276,0,0.5-0.224,0.5-0.5S13.776,16,13.5,16z M13.5,22h-8C5.224,22,5,22.224,5,22.5S5.224,23,5.5,23h8
			c0.276,0,0.5-0.224,0.5-0.5S13.776,22,13.5,22z M15.5,7h-10C5.224,7,5,7.224,5,7.5S5.224,8,5.5,8h10C15.776,8,16,7.776,16,7.5
			S15.776,7,15.5,7z M26.5,16c-0.057,0-0.109,0.013-0.164,0.017C27.309,15.103,28,13.85,28,12.5c0-0.276-0.224-0.5-0.5-0.5
			c-1.681,0-3.64,1.288-4.524,3.063c-0.271-0.616-0.602-1.133-0.886-1.57l-0.168-0.261c-0.147-0.233-0.456-0.302-0.69-0.155
			c-0.234,0.148-0.303,0.457-0.155,0.69l0.174,0.271c0.473,0.728,1.039,1.611,1.2,2.8c-0.142-0.063-0.292-0.136-0.447-0.214
			C21.423,16.332,20.764,16,20,16c-2.318,0-4,2.523-4,6c0,3.159,2.602,8,5.808,8c0.6,0,0.884-0.154,1.092-0.267
			c0.115-0.062,0.172-0.094,0.296-0.102c0.124,0.008,0.181,0.039,0.296,0.102C23.699,29.846,23.983,30,24.583,30
			C27.726,30,30,25.222,30,22C30,18.187,28.724,16,26.5,16z M26.949,13.057c-0.304,1.669-1.916,3.089-3.398,3.386
			C23.855,14.774,25.467,13.354,26.949,13.057z M24.583,29c-0.346,0-0.458-0.061-0.614-0.145c-0.162-0.089-0.385-0.209-0.761-0.225
			c-0.032-0.003-0.06,0-0.089,0.003c-0.338,0.026-0.544,0.138-0.697,0.221C22.266,28.939,22.154,29,21.808,29
			C19.423,29,17,24.927,17,22c0-2.897,1.262-5,3-5c0.527,0,1.05,0.263,1.555,0.517C22.049,17.766,22.515,18,23,18h0.5
			c0.485,0,0.951-0.234,1.445-0.483C25.45,17.263,25.973,17,26.5,17c2.256,0,2.5,3.497,2.5,5C29,25.057,26.858,29,24.583,29z
			 M15,13.5c0-0.276-0.224-0.5-0.5-0.5h-9C5.224,13,5,13.224,5,13.5S5.224,14,5.5,14h9C14.776,14,15,13.776,15,13.5z M16,10.5
			c0-0.276-0.224-0.5-0.5-0.5h-10C5.224,10,5,10.224,5,10.5S5.224,11,5.5,11h10C15.776,11,16,10.776,16,10.5z"/>
	</g>
</g>
</svg>
