<?xml version="1.0" encoding="iso-8859-1"?>
<!-- Generator: Adobe Illustrator 19.0.0, SVG Export Plug-In . SVG Version: 6.00 Build 0)  -->
<svg version="1.1" id="Layer_1" xmlns="http://www.w3.org/2000/svg" xmlns:xlink="http://www.w3.org/1999/xlink" x="0px" y="0px"
	 viewBox="0 0 30 30" style="enable-background:new 0 0 30 30;" xml:space="preserve">
<g>
	<g>
		<path d="M11.999,18.5c0-0.276-0.224-0.5-0.5-0.5s-0.5,0.224-0.5,0.5c0,3.249,1.488,7.681,2.167,9.204
			C13.249,27.89,13.432,28,13.623,28c0.068,0,0.138-0.014,0.203-0.044c0.253-0.112,0.366-0.408,0.254-0.66
			C13.354,25.669,11.999,21.418,11.999,18.5z M19.79,11.797c-0.13-0.36-0.241-0.66-0.304-0.917c-0.117-0.47-0.432-0.819-0.766-1.188
			C17.994,8.89,17,7.791,17,4.5c0-0.002-0.001-0.003-0.001-0.005V2c0-1.103-0.897-2-2-2c-1.103,0-2,0.897-2,2v2.5
			C12.999,4.501,13,4.503,13,4.504c-0.001,3.288-0.994,4.386-1.72,5.188c-0.334,0.369-0.65,0.718-0.766,1.188
			c-0.064,0.257-0.174,0.557-0.304,0.917c-0.482,1.331-1.211,3.344-1.211,6.703c0,4.298,2.294,10.777,3.232,11.414
			C12.314,29.97,12.411,30,12.512,30h4.973c0.101,0,0.199-0.03,0.284-0.086c0.937-0.638,3.232-7.117,3.232-11.414
			C21.001,15.141,20.272,13.129,19.79,11.797z M13.999,2c0-0.551,0.448-1,1-1s1,0.449,1,1v2h-2V2z M17.282,29h-4.56
			C12.017,28.057,9.999,22.408,10,18.5c0-3.184,0.692-5.097,1.151-6.363c0.144-0.398,0.264-0.732,0.334-1.017
			c0.056-0.226,0.267-0.46,0.536-0.757c0.751-0.83,1.868-2.066,1.971-5.363h2.016c0.103,3.298,1.22,4.533,1.971,5.363
			c0.268,0.297,0.48,0.531,0.536,0.757c0.07,0.285,0.19,0.619,0.334,1.017C19.308,13.403,20,15.316,20,18.5
			C20,22.419,17.97,28.091,17.282,29z"/>
	</g>
</g>
</svg>
