<?xml version="1.0" encoding="utf-8"?>
<!-- Generated by IcoMoon.io -->
<!DOCTYPE svg PUBLIC "-//W3C//DTD SVG 1.1//EN" "http://www.w3.org/Graphics/SVG/1.1/DTD/svg11.dtd">
<svg version="1.1" xmlns="http://www.w3.org/2000/svg" xmlns:xlink="http://www.w3.org/1999/xlink" width="30" height="30" viewBox="0 0 30 30">
<path d="M13.75 8.75c0.345 0 0.625-0.28 0.625-0.625v-7.5c0-0.345-0.28-0.625-0.625-0.625s-0.625 0.28-0.625 0.625v7.5c0 0.345 0.28 0.625 0.625 0.625zM26.25 8.75c0.345 0 0.625-0.28 0.625-0.625v-7.5c0-0.345-0.28-0.625-0.625-0.625s-0.625 0.28-0.625 0.625v7.5c0 0.345 0.28 0.625 0.625 0.625zM23.75 8.75c0.345 0 0.625-0.28 0.625-0.625v-7.5c0-0.345-0.28-0.625-0.625-0.625s-0.625 0.28-0.625 0.625v7.5c0 0.345 0.28 0.625 0.625 0.625zM16.25 8.75c0.345 0 0.625-0.28 0.625-0.625v-7.5c0-0.345-0.28-0.625-0.625-0.625s-0.625 0.28-0.625 0.625v7.5c0 0.345 0.28 0.625 0.625 0.625zM6.25 8.75c0.345 0 0.625-0.28 0.625-0.625v-7.5c0-0.345-0.28-0.625-0.625-0.625s-0.625 0.28-0.625 0.625v7.5c0 0.345 0.28 0.625 0.625 0.625zM28.75 0c-0.345 0-0.625 0.28-0.625 0.625v6.875c0 1.034-0.841 1.875-1.875 1.875h-2.5c-1.034 0-1.875-0.841-1.875-1.875v-6.875c0-0.345-0.28-0.625-0.625-0.625s-0.625 0.28-0.625 0.625v26.875c0 0.182 0.080 0.343 0.205 0.456 0.442 1.19 1.579 2.044 2.92 2.044h2.5c1.723 0 3.125-1.402 3.125-3.125v-26.25c0-0.345-0.28-0.625-0.625-0.625zM28.125 23.405c-0.445 0.209-0.932 0.345-1.459 0.345h-3.334c-0.525 0-1.014-0.135-1.459-0.345v-1.139c0.463 0.148 0.953 0.233 1.459 0.233h3.334c0.506 0 0.995-0.085 1.459-0.233v1.139zM18.75 0c-0.345 0-0.625 0.28-0.625 0.625v6.875c0 1.034-0.841 1.875-1.875 1.875h-2.5c-1.034 0-1.875-0.841-1.875-1.875v-6.875c0-0.345-0.28-0.625-0.625-0.625s-0.625 0.28-0.625 0.625v26.875c0 0.182 0.080 0.343 0.205 0.456 0.442 1.19 1.579 2.044 2.92 2.044h2.5c1.723 0 3.125-1.402 3.125-3.125v-26.25c0-0.345-0.28-0.625-0.625-0.625zM18.125 23.405c-0.445 0.209-0.932 0.345-1.459 0.345h-3.334c-0.525 0-1.014-0.135-1.459-0.345v-1.139c0.463 0.148 0.953 0.233 1.459 0.233h3.334c0.506 0 0.995-0.085 1.459-0.233v1.139zM8.75 0c-0.345 0-0.625 0.28-0.625 0.625v6.875c0 1.034-0.841 1.875-1.875 1.875h-2.5c-1.034 0-1.875-0.841-1.875-1.875v-6.875c0-0.345-0.28-0.625-0.625-0.625s-0.625 0.28-0.625 0.625v26.875c0 0.182 0.080 0.343 0.205 0.456 0.443 1.19 1.579 2.044 2.92 2.044h2.5c1.723 0 3.125-1.402 3.125-3.125v-26.25c0-0.345-0.28-0.625-0.625-0.625zM8.125 23.405c-0.445 0.209-0.932 0.345-1.459 0.345h-3.334c-0.525 0-1.014-0.135-1.459-0.345v-1.139c0.463 0.148 0.952 0.233 1.459 0.233h3.334c0.506 0 0.995-0.085 1.459-0.233v1.139zM3.75 8.75c0.345 0 0.625-0.28 0.625-0.625v-7.5c0-0.345-0.28-0.625-0.625-0.625s-0.625 0.28-0.625 0.625v7.5c0 0.345 0.28 0.625 0.625 0.625z"></path>
</svg>
