<?xml version="1.0" encoding="utf-8"?>
<!-- Generated by IcoMoon.io -->
<!DOCTYPE svg PUBLIC "-//W3C//DTD SVG 1.1//EN" "http://www.w3.org/Graphics/SVG/1.1/DTD/svg11.dtd">
<svg version="1.1" xmlns="http://www.w3.org/2000/svg" xmlns:xlink="http://www.w3.org/1999/xlink" width="30" height="30" viewBox="0 0 30 30">
<path d="M4.375 6.25h17.525c0.345 0 0.625-0.28 0.625-0.625 0-0.189-0.085-0.36-0.218-0.475-0.099-0.166-0.31-0.623-0.392-1.4h-17.54c-0.345 0-0.625-0.28-0.625-0.625s0.28-0.625 0.625-0.625h17.535c0.106-1.018 0.44-1.469 0.44-1.469 0.159-0.184 0.195-0.445 0.094-0.667s-0.325-0.364-0.569-0.364h-17.5c-1.723 0-3.125 1.401-3.125 3.125s1.403 3.125 3.125 3.125zM21.875 16.25c-3.791 0-6.875 3.085-6.875 6.875 0 1.892 0.769 3.609 2.011 4.854 0.004 0.004 0.004 0.009 0.006 0.011 0.016 0.016 0.037 0.028 0.054 0.044 0.295 0.289 0.614 0.554 0.958 0.786 0.044 0.030 0.091 0.054 0.135 0.084 0.331 0.214 0.677 0.403 1.044 0.557 0.044 0.019 0.090 0.031 0.135 0.050 0.374 0.149 0.76 0.27 1.161 0.351 0.025 0.005 0.050 0.006 0.075 0.011 0.421 0.080 0.854 0.126 1.296 0.126s0.875-0.046 1.295-0.126c0.025-0.005 0.051-0.006 0.076-0.011 0.401-0.081 0.788-0.203 1.161-0.351 0.045-0.017 0.091-0.031 0.135-0.050 0.366-0.155 0.712-0.345 1.044-0.557 0.045-0.029 0.091-0.054 0.135-0.082 0.344-0.233 0.662-0.497 0.958-0.786 0.016-0.016 0.036-0.028 0.052-0.044 0.004-0.004 0.004-0.008 0.006-0.011 1.244-1.246 2.012-2.963 2.012-4.855 0-3.79-3.084-6.875-6.875-6.875zM26.434 26.394c-0.577-0.991-1.451-1.755-2.482-2.2 0.639-0.572 1.049-1.395 1.049-2.319 0-1.724-1.402-3.125-3.125-3.125s-3.125 1.401-3.125 3.125c0 0.924 0.41 1.746 1.050 2.319-1.033 0.445-1.905 1.209-2.482 2.2-0.665-0.922-1.067-2.046-1.067-3.269 0-3.101 2.524-5.625 5.625-5.625s5.625 2.524 5.625 5.625c0 1.223-0.403 2.346-1.066 3.269zM13.75 23.125c0-4.48 3.645-8.125 8.125-8.125 0.345 0 0.625-0.28 0.625-0.625v-6.25c0-0.345-0.28-0.625-0.625-0.625h-17.5c-0.755 0-1.49-0.205-2.185-0.61-0.193-0.114-0.431-0.113-0.626-0.002-0.194 0.111-0.314 0.319-0.314 0.541v16.946c0 1.724 1.403 3.125 3.125 3.125h9.606c0.215 0 0.414-0.11 0.529-0.291s0.129-0.409 0.035-0.601c-0.527-1.109-0.795-2.279-0.795-3.482z"></path>
</svg>
