<?xml version="1.0" encoding="utf-8"?>
<!-- Generated by IcoMoon.io -->
<!DOCTYPE svg PUBLIC "-//W3C//DTD SVG 1.1//EN" "http://www.w3.org/Graphics/SVG/1.1/DTD/svg11.dtd">
<svg version="1.1" xmlns="http://www.w3.org/2000/svg" xmlns:xlink="http://www.w3.org/1999/xlink" width="30" height="30" viewBox="0 0 30 30">
<path d="M12.223 13.066c0.219 0.104 0.479 0.071 0.665-0.085l3.35-2.791 3.35 2.791c0.115 0.095 0.257 0.145 0.4 0.145 0.090 0 0.181-0.020 0.265-0.059 0.22-0.103 0.36-0.324 0.36-0.566v-10.939c0-1.206-1.121-2.188-2.5-2.188h-3.75c-1.379 0-2.5 0.981-2.5 2.188v10.937c0 0.241 0.14 0.463 0.36 0.566zM26.599 29.473c-0.534-0.594-0.834-1.566-0.924-2.599h-18.812c-0.345 0-0.625-0.28-0.625-0.625s0.28-0.625 0.625-0.625h18.816c0.094-1.082 0.418-2.1 1.001-2.683 0.179-0.179 0.233-0.448 0.135-0.681-0.096-0.234-0.325-0.386-0.578-0.386h-19.375c-2.068 0-3.75 1.682-3.75 3.75v0.974c0 2.22 1.806 4.026 4.026 4.026h19.099c0.008 0 0.016-0.001 0.025 0 0.345 0 0.625-0.28 0.625-0.625 0-0.22-0.115-0.415-0.289-0.526zM3.444 21.504c0.092 0.050 0.194 0.074 0.294 0.074 0.122 0 0.242-0.035 0.347-0.106 0.826-0.554 1.786-0.846 2.777-0.846h19.375c0.345 0 0.625-0.28 0.625-0.625v-18.75c0-0.345-0.28-0.625-0.625-0.625h-3.784c-0.175 0-0.343 0.074-0.461 0.203s-0.178 0.302-0.161 0.476c0.001 0.013 0.030 0.246 0.031 0.259v10.937c0 0.725-0.424 1.391-1.080 1.697-0.647 0.302-1.446 0.2-1.995-0.257l-2.15-1.791c-0.233-0.193-0.569-0.193-0.801 0l-2.15 1.791c-0.547 0.457-1.346 0.561-1.995 0.257-0.656-0.307-1.080-0.975-1.080-1.697l0.013-11.038c0.001-0.014 0.019-0.148 0.020-0.16 0.015-0.175-0.044-0.347-0.161-0.476-0.118-0.127-0.286-0.201-0.461-0.201h-2.534c-2.413 0-4.375 1.963-4.375 4.375v15.952c0 0.229 0.128 0.441 0.331 0.551z"></path>
</svg>
