<?xml version="1.0" encoding="utf-8"?>
<!-- Generated by IcoMoon.io -->
<!DOCTYPE svg PUBLIC "-//W3C//DTD SVG 1.1//EN" "http://www.w3.org/Graphics/SVG/1.1/DTD/svg11.dtd">
<svg version="1.1" xmlns="http://www.w3.org/2000/svg" xmlns:xlink="http://www.w3.org/1999/xlink" width="30" height="30" viewBox="0 0 30 30">
<path d="M29.953 14.136c-0.031-0.077-0.077-0.146-0.136-0.204l-2.316-2.316v-10.991c0-0.345-0.28-0.625-0.625-0.625h-23.75c-0.345 0-0.625 0.28-0.625 0.625v10.991l-2.316 2.316c-0.058 0.058-0.104 0.127-0.136 0.204-0.031 0.076-0.047 0.157-0.047 0.239v13.75c0 1.034 0.841 1.875 1.875 1.875h26.25c1.034 0 1.875-0.841 1.875-1.875v-13.75c0-0.081-0.016-0.163-0.047-0.239zM9.375 2.5c1.723 0 3.125 1.402 3.125 3.125s-1.402 3.125-3.125 3.125-3.125-1.402-3.125-3.125 1.402-3.125 3.125-3.125zM18.75 21.25h-7.5c-1.379 0-2.5-1.121-2.5-2.5s1.121-2.5 2.5-2.5h7.5c1.379 0 2.5 1.121 2.5 2.5s-1.121 2.5-2.5 2.5zM2.134 13.75l1.25-1.25h5.801l2.16-3.456c0.113-0.18 0.309-0.29 0.521-0.294 0.217 0.030 0.412 0.103 0.529 0.279l1.903 2.854 3.269-6.538c0.103-0.205 0.31-0.338 0.539-0.345 0.235-0.017 0.445 0.111 0.56 0.31l4.194 7.19h3.757l1.25 1.25h-25.733z"></path>
</svg>
