<?xml version="1.0" encoding="utf-8"?>
<!-- Generated by IcoMoon.io -->
<!DOCTYPE svg PUBLIC "-//W3C//DTD SVG 1.1//EN" "http://www.w3.org/Graphics/SVG/1.1/DTD/svg11.dtd">
<svg version="1.1" xmlns="http://www.w3.org/2000/svg" xmlns:xlink="http://www.w3.org/1999/xlink" width="30" height="30" viewBox="0 0 30 30">
<path d="M3.125 26.875c0.345 0 0.625-0.28 0.625-0.625v-6.25c0-0.345-0.28-0.625-0.625-0.625s-0.625 0.28-0.625 0.625v6.25c0 0.345 0.28 0.625 0.625 0.625zM3.125 18.125c0.345 0 0.625-0.28 0.625-0.625v-1.25c0-0.345-0.28-0.625-0.625-0.625s-0.625 0.28-0.625 0.625v1.25c0 0.345 0.28 0.625 0.625 0.625zM29.965 26.666l-7.5-21.25c-0.056-0.157-0.174-0.287-0.326-0.359-0.151-0.071-0.328-0.077-0.484-0.019l-4.155 1.559v-1.597c0-0.345-0.28-0.625-0.625-0.625h-4.375v-3.125c0-0.345-0.28-0.625-0.625-0.625h-6.25c-0.345 0-0.625 0.28-0.625 0.625v5.625h-4.375c-0.345 0-0.625 0.28-0.625 0.625v21.25c0 0.345 0.28 0.625 0.625 0.625h16.25c0.345 0 0.625-0.28 0.625-0.625v-17.6l6.285 17.809c0.056 0.157 0.174 0.287 0.326 0.359 0.082 0.037 0.174 0.058 0.264 0.058 0.075 0 0.149-0.014 0.22-0.040l5-1.875c0.319-0.119 0.482-0.473 0.37-0.794zM5 28.125h-3.75v-20h3.75v20zM8.75 5c0-0.345 0.28-0.625 0.625-0.625s0.625 0.28 0.625 0.625v15c0 0.345-0.28 0.625-0.625 0.625s-0.625-0.28-0.625-0.625v-15zM10 26.875h-2.5c-0.345 0-0.625-0.28-0.625-0.625s0.28-0.625 0.625-0.625h2.5c0.345 0 0.625 0.28 0.625 0.625s-0.28 0.625-0.625 0.625zM10 24.375h-2.5c-0.345 0-0.625-0.28-0.625-0.625s0.28-0.625 0.625-0.625h2.5c0.345 0 0.625 0.28 0.625 0.625s-0.28 0.625-0.625 0.625zM16.25 28.125h-3.75v-22.5h3.75v22.5zM25.223 22.459c-0.074 0.029-0.148 0.041-0.223 0.041-0.251 0-0.49-0.154-0.584-0.403l-5-13.125c-0.124-0.322 0.037-0.684 0.361-0.808 0.32-0.122 0.684 0.039 0.806 0.361l5 13.125c0.122 0.324-0.037 0.685-0.361 0.808zM13.75 26.875h1.25c0.345 0 0.625-0.28 0.625-0.625s-0.28-0.625-0.625-0.625h-1.25c-0.345 0-0.625 0.28-0.625 0.625s0.28 0.625 0.625 0.625zM14.375 24.375c0.345 0 0.625-0.28 0.625-0.625v-8.75c0-0.345-0.28-0.625-0.625-0.625s-0.625 0.28-0.625 0.625v8.75c0 0.345 0.28 0.625 0.625 0.625z"></path>
</svg>
