<?xml version="1.0" encoding="utf-8"?>
<!-- Generator: Adobe Illustrator 19.0.0, SVG Export Plug-In . SVG Version: 6.00 Build 0)  -->
<svg version="1.1" id="Layer_1" xmlns="http://www.w3.org/2000/svg" xmlns:xlink="http://www.w3.org/1999/xlink" x="0px" y="0px"
	 viewBox="0 0 30 30" style="enable-background:new 0 0 30 30;" xml:space="preserve">
<path d="M21.5,0C19,0,18,0.9,17.1,1.7c-0.5,0.5-0.9,0.8-1.6,0.8h-1c-0.7,0-1.3-0.4-2.1-0.9C11.3,0.9,9.9,0,7.5,0C3,0,3,3.3,3,5.5
	c0,1.1,0.7,2.6,1.6,4.6C5.6,12.5,7,15.5,7,18v0.2c0,2.3,0,5.1,0.3,7.4C7.5,27.5,7.9,30,9.5,30c1.3,0,1.7-2.2,2.5-6.5
	c0.5-3,1.3-7.5,2.5-7.5h1c1.1,0,1.9,4.5,2.5,7.5c0.8,4.3,1.2,6.5,2.5,6.5c1.6,0,2-2.5,2.2-4.4c0.3-2.3,0.3-5.1,0.3-7.4V18
	c0-2.5,1.4-5.5,2.4-7.9c0.9-2,1.6-3.5,1.6-4.6C27,2.1,24.9,0,21.5,0z M20.5,4C19.8,4,19,4.6,19,5.5C19,5.8,18.8,6,18.5,6
	S18,5.8,18,5.5C18,4,19.3,3,20.5,3C20.8,3,21,3.2,21,3.5S20.8,4,20.5,4z"/>
</svg>
