<?xml version="1.0" encoding="utf-8"?>
<!-- Generator: Adobe Illustrator 19.0.0, SVG Export Plug-In . SVG Version: 6.00 Build 0)  -->
<svg version="1.1" id="Layer_1" xmlns="http://www.w3.org/2000/svg" xmlns:xlink="http://www.w3.org/1999/xlink" x="0px" y="0px"
	 viewBox="0 0 30 30" style="enable-background:new 0 0 30 30;" xml:space="preserve">
<g>
	<path d="M21.5,26c-1.2,0-3.1,0.6-3.9,0.9c-0.4-0.5-0.5-0.9-0.6-1.8c0-0.2,0-0.4-0.1-0.7c0-0.3-0.2-0.4-0.5-0.4h-4
		c-0.3,0-0.5,0.2-0.5,0.4c0,0.3-0.1,0.5-0.1,0.7c-0.1,0.9-0.1,1.3-0.6,1.8C10.6,26.6,8.7,26,7.5,26C5.8,26,4,27.3,4,29.5
		C4,29.8,4.2,30,4.5,30h20c0.3,0,0.5-0.2,0.5-0.5C25,27.3,23.2,26,21.5,26z"/>
	<g>
		<path d="M8.7,16.9c0,0-0.1,0-0.1,0c-0.7-0.2-1.3-0.6-1.8-1.1c-0.2-0.2-0.2-0.5,0.1-0.7c0.2-0.2,0.5-0.2,0.7,0.1
			c0.3,0.4,0.8,0.7,1.3,0.8c0.3,0.1,0.4,0.3,0.4,0.6C9.2,16.7,9,16.9,8.7,16.9z"/>
	</g>
	<path d="M27.9,7.3C28,7,28,6.8,28,6.5c0-1.3-1-2.4-2.3-2.5c-0.6-1.2-1.8-2-3.2-2c-0.6,0-1.2,0.1-1.7,0.4c-1.7-1.6-4-2.4-6.3-2.4
		c-2.7,0-5.2,1.1-7,3.1C7.2,3,6.8,3,6.5,3C2.9,3,0,5.9,0,9.5c0,0.4,0,0.8,0.1,1.2C0,11,0,11.2,0,11.5c0,1.1,0.8,2.1,1.8,2.4
		c0.9,0.2,1.6,0,2.2-0.4c0.6,0.6,1.3,0.9,2.1,1C6.7,16.3,8.4,17,9.5,17c0.1,0,0.1,0,0.2,0c-0.4-1.4-0.9-2.1-1.2-2.4
		c-0.2-0.2-0.2-0.5,0-0.7s0.5-0.2,0.7,0c0.6,0.6,1.1,1.6,1.5,2.9c0,0,0,0,0,0c0,0,0,0.1,0,0.2c0.1,0.2,0.1,0.4,0.2,0.5
		c0,0.1,0.1,0.3,0.1,0.4c0,0,0,0.1,0,0.1h0c0.1,0.2,0.1,0.5,0.2,0.7c-0.5,0-1.2,0.1-1.6,0.5C9.2,19.6,9,20,9,20.5
		c0,2.3,4.2,2.5,5.5,2.5s5.5-0.2,5.5-2.5c0-0.4-0.2-0.8-0.5-1.1c-0.6-0.5-1.5-0.6-2.1-0.6c0.3-1.1,0.6-2,1-2.7h0
		c0.1-0.1,0.1-0.3,0.2-0.4c0.1-0.3,0.3-0.5,0.5-0.8c0,0,0,0,0,0c0.3-0.4,0.5-0.7,0.8-1c0.2-0.2,0.5-0.2,0.7,0s0.2,0.5,0,0.7
		c-0.1,0.1-0.4,0.4-0.7,0.8l0,0c0,0,0,0,0,0c-0.1,0.1-0.1,0.2-0.2,0.3c0,0.1-0.1,0.1-0.1,0.2c0,0.1-0.1,0.1-0.1,0.2h0
		c-0.1,0.1-0.1,0.2-0.2,0.3c0.4,0.1,0.7,0.2,1.1,0.2c0.1,0,0.2,0,0.3,0c0,0,0,0,0,0c0.8-0.1,1.6-0.5,2.1-1.1c0.4,0.4,1,0.6,1.7,0.6
		c1.2,0,2.2-0.9,2.5-2c1.7-0.2,3-1.7,3-3.5C30,9.1,29.2,7.8,27.9,7.3z M25,10c-0.7,0.7-1.5,1-2.5,1c-1.3,0-2.4-0.7-3-1.8
		c-0.9,1.6-2.8,2.8-5,2.8s-4.1-1.1-5-2.8c-0.6,1-1.7,1.8-3,1.8c-0.7,0-1.3-0.2-1.8-0.5C4.4,10.3,4.4,10,4.5,9.8
		C4.6,9.6,5,9.5,5.2,9.6C5.6,9.9,6,10,6.5,10C7.9,10,9,8.9,9,7.5c0,0,0,0,0-0.1c0-0.1,0-0.1,0-0.2C9,7,9.2,6.8,9.5,6.8S10,7,10,7.3
		c0,2.1,2,3.8,4.5,3.8S19,9.3,19,7.3c0-0.3,0.2-0.5,0.5-0.5S20,7,20,7.3c0,0.1,0,0.1,0,0.2c0,0,0,0,0,0.1c0,1.4,1.1,2.5,2.5,2.5
		c0.7,0,1.3-0.3,1.8-0.7c0.2-0.2,0.5-0.2,0.7,0C25.2,9.5,25.2,9.8,25,10z"/>
</g>
</svg>
