<?xml version="1.0" encoding="utf-8"?>
<!-- Generator: Adobe Illustrator 19.0.0, SVG Export Plug-In . SVG Version: 6.00 Build 0)  -->
<svg version="1.1" id="Layer_1" xmlns="http://www.w3.org/2000/svg" xmlns:xlink="http://www.w3.org/1999/xlink" x="0px" y="0px"
	 viewBox="0 0 30 30" style="enable-background:new 0 0 30 30;" xml:space="preserve">
<path d="M23.6,6.9l2.7-2.7c0.3,0.2,0.7,0.3,1,0.3c1.1,0,2-0.9,2-2s-0.9-2-2-2s-2,0.9-2,2c0,0.4,0.1,0.7,0.3,1L13.8,15.1
	c0,0-0.1,0.1-0.1,0.2c-0.1,0-0.1,0-0.2,0c-0.1,0-0.3,0-0.4-0.1c-0.2-0.2-0.2-0.5,0-0.7l9-9C18.6,2.1,14.3,0,10.7,0
	C8.9,0,7.3,0.6,6.2,1.7C5.4,2.5,4.8,3.6,4.6,4.8c-1.4,4.5-1.1,8.9,0.7,12.5c0,0,0,0,0,0l-4.5,12c-0.1,0.2,0,0.3,0.1,0.5
	C0.9,29.9,1.1,30,1.3,30h11c0.1,0,0.2,0,0.2-0.1c0,0,0,0,0.1,0c0,0,0.1,0,0.1-0.1c0,0,0,0,0-0.1c0,0,0,0,0,0c0,0,0,0,0-0.1
	c0,0,0-0.1,0-0.1c0,0,0-0.1,0-0.1c0,0,0,0,0,0L11,23.2c2.1,1.2,4.6,1.8,7.2,1.8c1.8,0,3.7-0.3,5.6-0.8c1.3-0.2,2.4-0.7,3.2-1.6
	c1.7-1.7,2.1-4.3,1.3-7.5C27.6,12.3,25.9,9.4,23.6,6.9z M9.9,23.2l1.6,5.5l-7.4-3.1L9.9,23.2z M5.9,18.5c0.5,0.8,1.1,1.6,1.8,2.3
	c0.5,0.6,1.1,1,1.8,1.5l-5.9,2.3L5.9,18.5z M3,26.2L9.8,29H2L3,26.2z M25.7,21.1c-0.7,0.7-1.8,1.1-3.1,1.1c-3.2,0-7.3-2.1-10.6-5.4
	c-0.2-0.2-0.2-0.5,0-0.7s0.5-0.2,0.7,0c3.2,3.2,6.9,5.1,9.9,5.1c1.1,0,1.9-0.3,2.4-0.8c0.2-0.2,0.5-0.2,0.7,0S25.8,20.9,25.7,21.1z"
	/>
</svg>
