<?xml version="1.0" encoding="utf-8"?>
<!-- Generator: Adobe Illustrator 19.0.0, SVG Export Plug-In . SVG Version: 6.00 Build 0)  -->
<svg version="1.1" id="Layer_1" xmlns="http://www.w3.org/2000/svg" xmlns:xlink="http://www.w3.org/1999/xlink" x="0px" y="0px"
	 viewBox="0 0 30 30" style="enable-background:new 0 0 30 30;" xml:space="preserve">
<g>
	<g>
		<path d="M20.3,26H8.7c-1,0-1.8-0.8-1.8-1.8c0-1.3,1-2.4,2.3-2.6l5.1-0.8l-8.7-8.7c-0.9-0.9-0.9-2.3,0-3.2C6.5,8,8,8,8.9,8.9
			l2.4,2.4c0.1-0.4,0.3-0.8,0.6-1.2c0.8-0.8,2.3-0.9,3.1-0.1c0.1-0.4,0.3-0.8,0.6-1.2C16.4,8,17.9,8,18.7,8.8
			c0.1-0.4,0.3-0.8,0.6-1.2c0.9-0.9,2.4-0.9,3.2,0l4.7,5.2c1.1,1.2,1.8,2.9,1.8,4.5c0,1.8-0.7,3.5-2,4.8l-2,2
			C23.8,25.3,22.1,26,20.3,26z M7.3,9.2c-0.3,0-0.6,0.1-0.9,0.4c-0.5,0.5-0.5,1.3,0,1.8l9.4,9.4c0.1,0.1,0.2,0.3,0.1,0.5
			c-0.1,0.2-0.2,0.3-0.4,0.3l-6,1C8.6,22.7,8,23.4,8,24.2C8,24.7,8.3,25,8.7,25h11.6c1.5,0,3-0.6,4.1-1.7l2-2
			c1.1-1.1,1.7-2.5,1.7-4.1c0-1.4-0.5-2.8-1.5-3.9l-4.7-5.1c-0.4-0.4-1.3-0.5-1.8,0c-0.5,0.5-0.5,1.3,0,1.8l0.1,0.1
			c0.2,0.2,0.2,0.5,0,0.7c-0.2,0.2-0.5,0.2-0.7,0l0,0l0,0c0,0,0,0,0,0l-1.3-1.3c-0.5-0.5-1.3-0.5-1.8,0c-0.5,0.5-0.5,1.3,0,1.8
			l1.3,1.3c0.2,0.2,0.2,0.5,0,0.7s-0.5,0.2-0.7,0L15.6,12c0,0,0,0,0,0l-1.2-1.2c-0.5-0.5-1.3-0.5-1.8,0c-0.5,0.5-0.5,1.3,0,1.8
			l2.6,2.6c0.2,0.2,0.2,0.5,0,0.7s-0.5,0.2-0.7,0l-2.6-2.6c0,0,0,0,0,0L8.2,9.6C7.9,9.4,7.6,9.2,7.3,9.2z"/>
	</g>
	<g>
		<path d="M4.4,14.6c-0.1,0-0.1,0-0.2,0c-2-0.9-3.2-2.9-3.2-5C1,6.5,3.5,4,6.5,4c2.2,0,4.1,1.3,5,3.2c0.1,0.3,0,0.5-0.3,0.7
			c-0.3,0.1-0.5,0-0.7-0.3C9.9,6,8.2,5,6.5,5C4,5,2,7,2,9.5c0,1.8,1,3.4,2.7,4.1C4.9,13.7,5,14,4.9,14.3C4.8,14.4,4.6,14.6,4.4,14.6
			z"/>
	</g>
</g>
</svg>
