<?xml version="1.0" encoding="utf-8"?>
<!-- Generator: Adobe Illustrator 19.0.0, SVG Export Plug-In . SVG Version: 6.00 Build 0)  -->
<svg version="1.1" id="Layer_1" xmlns="http://www.w3.org/2000/svg" xmlns:xlink="http://www.w3.org/1999/xlink" x="0px" y="0px"
	 viewBox="0 0 30 30" style="enable-background:new 0 0 30 30;" xml:space="preserve">
<g>
	<g>
		<path d="M5,11c-0.3,0-0.5-0.2-0.5-0.5v-10C4.5,0.2,4.7,0,5,0s0.5,0.2,0.5,0.5v10C5.5,10.8,5.3,11,5,11z"/>
	</g>
	<g>
		<path d="M7,3C6.9,3,6.7,3,6.6,2.9L5,1.2L3.3,2.9C3.2,3,2.8,3,2.6,2.9s-0.2-0.5,0-0.7l2-2C4.8,0,5.2,0,5.3,0.1l2,2
			c0.2,0.2,0.2,0.5,0,0.7C7.2,3,7.1,3,7,3z"/>
	</g>
	<g>
		<path d="M20.5,30h-3.1c-1.5,0-3-0.6-4-1.6L4,19.5c-0.3-0.3-0.5-0.8-0.5-1.2S3.7,17.3,4,17c1.1-1.1,3-1.2,4.2-0.3l2.2,1.8v-11
			C10.5,6.2,11.7,5,13,5c0.7,0,1.2,0.3,1.7,0.7C15.1,4.7,15.9,4,17,4c1.3,0,2.5,1.2,2.5,2.5V13c0.4-0.3,0.9-0.5,1.5-0.5
			c1.2,0,2.2,0.9,2.4,2c0.4-0.3,1-0.5,1.6-0.5c1.4,0,2.5,1.1,2.5,2.4v6.9C27.5,27,24.4,30,20.5,30z M6.4,17.1
			c-0.6,0-1.2,0.2-1.6,0.6c-0.1,0.1-0.2,0.3-0.2,0.5s0.1,0.4,0.2,0.5l9.3,8.9c0.9,0.8,2.1,1.3,3.4,1.3h3.1c3.3,0,6-2.6,6-5.8v-6.9
			c0-0.8-0.7-1.4-1.5-1.4c-0.8,0-1.6,0.5-1.6,1.3v0.3c0,0.3-0.2,0.5-0.5,0.5s-0.5-0.2-0.5-0.5V15c0-0.8-0.7-1.5-1.5-1.5
			s-1.5,0.7-1.5,1.5v1.5c0,0.3-0.2,0.5-0.5,0.5s-0.5-0.2-0.5-0.5v-10C18.5,5.7,17.8,5,17,5c-1,0-1.4,1-1.5,1.4v10.1
			c0,0.3-0.2,0.5-0.5,0.5s-0.5-0.2-0.5-0.5V7.6C14.5,6.9,13.8,6,13,6c-0.8,0-1.5,0.7-1.5,1.5v12c0,0.2-0.1,0.4-0.3,0.4
			s-0.4,0.1-0.5-0.1l-3-2.4C7.3,17.2,6.8,17.1,6.4,17.1z"/>
	</g>
</g>
</svg>
