<?xml version="1.0" encoding="utf-8"?>
<!-- Generator: Adobe Illustrator 19.0.0, SVG Export Plug-In . SVG Version: 6.00 Build 0)  -->
<svg version="1.1" id="Layer_1" xmlns="http://www.w3.org/2000/svg" xmlns:xlink="http://www.w3.org/1999/xlink" x="0px" y="0px"
	 viewBox="0 0 30 30" style="enable-background:new 0 0 30 30;" xml:space="preserve">
<g>
	<g>
		<path d="M6.5,13h-2C4.2,13,4,12.8,4,12.5v-2C4,10.2,4.2,10,4.5,10S5,10.2,5,10.5V12h1.5C6.8,12,7,12.2,7,12.5S6.8,13,6.5,13z"/>
	</g>
	<g>
		<path d="M12.5,7C12.2,7,12,6.8,12,6.5V5h-1.5C10.2,5,10,4.8,10,4.5S10.2,4,10.5,4h2C12.8,4,13,4.2,13,4.5v2C13,6.8,12.8,7,12.5,7z
			"/>
	</g>
	<g>
		<path d="M4.5,13c-0.1,0-0.3,0-0.4-0.1c-0.2-0.2-0.2-0.5,0-0.7l2.5-2.5c0.2-0.2,0.5-0.2,0.7,0s0.2,0.5,0,0.7l-2.5,2.5
			C4.8,13,4.6,13,4.5,13z"/>
	</g>
	<g>
		<path d="M10,7.5c-0.1,0-0.3,0-0.4-0.1c-0.2-0.2-0.2-0.5,0-0.7l2.5-2.5c0.2-0.2,0.5-0.2,0.7,0s0.2,0.5,0,0.7l-2.5,2.5
			C10.3,7.5,10.1,7.5,10,7.5z"/>
	</g>
	<g>
		<path d="M6.7,30C3,30,0,27,0,23.3v-7.8C0,15.2,0.2,15,0.5,15c1.7,0,3,1.3,3,3v1.5l5-5c0.7-0.7,1.9-0.7,2.6,0
			c0.3,0.3,0.5,0.8,0.5,1.3c0,0.5-0.2,0.9-0.5,1.3l-1.3,1.3c0.3,0.1,0.5,0.2,0.7,0.4c0.3,0.3,0.5,0.8,0.5,1.3c0,0.1,0,0.3,0,0.4
			c0.4,0,0.8,0.2,1.1,0.5c0.3,0.3,0.5,0.8,0.5,1.3c0,0.3-0.1,0.5-0.2,0.7c0.3,0.1,0.6,0.2,0.9,0.5c0.3,0.3,0.5,0.8,0.5,1.3
			s-0.2,0.9-0.5,1.3l-2,1.9C10.3,29.3,8.5,30,6.7,30z M1,16.1v7.2C1,26.4,3.6,29,6.7,29c1.5,0,3-0.6,4.1-1.7l2-1.9
			c0.2-0.2,0.2-0.4,0.2-0.6s-0.1-0.4-0.2-0.6c-0.3-0.3-0.9-0.3-1.2,0l0,0c-0.2,0.2-0.5,0.2-0.7,0c-0.2-0.2-0.2-0.5,0-0.7l0.6-0.6
			c0.2-0.2,0.2-0.4,0.2-0.6s-0.1-0.4-0.2-0.6c-0.3-0.3-0.8-0.3-1.2,0l-0.6,0.6c-0.2,0.2-0.5,0.2-0.7,0c-0.2-0.2-0.2-0.5,0-0.7l0,0
			L9.6,21c0,0,0,0,0,0l0.3-0.3c0.2-0.2,0.2-0.4,0.2-0.6s-0.1-0.4-0.2-0.6c-0.3-0.3-0.8-0.3-1.2,0l-1.6,1.6c-0.2,0.2-0.5,0.2-0.7,0
			c-0.2-0.2-0.2-0.5,0-0.7L8,18.8c0,0,0,0,0,0l2.4-2.4c0.2-0.2,0.2-0.4,0.2-0.6c0-0.2-0.1-0.4-0.2-0.6c-0.3-0.3-0.9-0.3-1.2,0
			l-5.9,5.9c-0.1,0.1-0.4,0.2-0.5,0.1c-0.2-0.1-0.3-0.3-0.3-0.5V18C2.5,17.1,1.9,16.3,1,16.1z"/>
	</g>
	<g>
		<path d="M24.8,14c-0.5,0-0.9-0.2-1.3-0.5c-0.2-0.2-0.4-0.6-0.5-0.9c-0.7,0.3-1.5,0.1-2-0.4c-0.3-0.3-0.5-0.7-0.5-1.1
			c-0.1,0-0.2,0-0.4,0c0,0,0,0,0,0c-0.5,0-0.9-0.2-1.3-0.5c-0.2-0.2-0.4-0.5-0.4-0.7l-1.3,1.3c-0.7,0.7-1.9,0.7-2.6,0
			c-0.7-0.7-0.7-1.9,0-2.6l5-5H18c-1.7,0-3-1.4-3-3C15,0.2,15.2,0,15.5,0h7.8C27,0,30,3,30,6.7c0,1.8-0.7,3.5-2,4.8l-1.9,2
			C25.8,13.8,25.3,14,24.8,14z M24.2,11.6c-0.3,0.3-0.3,0.9,0,1.2c0.3,0.3,0.9,0.3,1.2,0l1.9-2C28.4,9.7,29,8.3,29,6.7
			C29,3.6,26.4,1,23.3,1h-7.2c0.2,0.9,1,1.5,1.9,1.5h2.7c0.2,0,0.4,0.1,0.5,0.3c0.1,0.2,0,0.4-0.1,0.5l-5.9,5.9
			c-0.3,0.3-0.3,0.9,0,1.2c0.3,0.3,0.9,0.3,1.2,0l4-4c0.2-0.2,0.5-0.2,0.7,0c0.2,0.2,0.2,0.5,0,0.7l-1.6,1.6c-0.3,0.3-0.3,0.9,0,1.2
			c0.2,0.2,0.4,0.2,0.6,0.2h0c0.2,0,0.4-0.1,0.6-0.2L21,9.6c0,0,0,0,0,0L21.6,9c0.2-0.2,0.5-0.2,0.7,0c0.2,0.2,0.2,0.5,0,0.7
			l-0.6,0.6c-0.3,0.3-0.3,0.8,0,1.2c0.3,0.3,0.9,0.3,1.2,0l0.6-0.6l0,0c0.2-0.2,0.5-0.2,0.7,0C24.4,11.1,24.4,11.4,24.2,11.6
			L24.2,11.6z"/>
	</g>
	<g>
		<path d="M8.5,11C7.1,11,6,9.9,6,8.5S7.1,6,8.5,6S11,7.1,11,8.5S9.9,11,8.5,11z M8.5,7C7.7,7,7,7.7,7,8.5S7.7,10,8.5,10
			S10,9.3,10,8.5S9.3,7,8.5,7z"/>
	</g>
</g>
</svg>
