<?xml version="1.0" encoding="iso-8859-1"?>
<!-- Generator: Adobe Illustrator 19.0.0, SVG Export Plug-In . SVG Version: 6.00 Build 0)  -->
<svg version="1.1" id="Layer_1" xmlns="http://www.w3.org/2000/svg" xmlns:xlink="http://www.w3.org/1999/xlink" x="0px" y="0px"
	 viewBox="0 0 30 30" style="enable-background:new 0 0 30 30;" xml:space="preserve">
<g>
	<g>
		<path d="M22.21,13.046c-0.227-0.104-0.495-0.026-0.63,0.184c-0.208,0.324-0.911,1.223-1.651,1.488
			c-0.61,0.219-1.305,0.389-1.977,0.553c-1.185,0.29-2.121,0.518-2.583,0.977c-0.139,0.138-0.261,0.286-0.368,0.445
			c-0.107-0.159-0.23-0.307-0.368-0.445c-0.462-0.458-1.398-0.687-2.583-0.977c-0.672-0.164-1.366-0.333-1.977-0.553
			c-0.74-0.265-1.443-1.164-1.651-1.488c-0.135-0.21-0.406-0.288-0.63-0.184c-0.227,0.104-0.342,0.359-0.271,0.597
			c0.178,0.594,1.768,5.836,2.818,6.88c1.146,1.14,3.145,1.142,4.293,0c0.138-0.138,0.261-0.286,0.368-0.445
			c0.107,0.159,0.229,0.307,0.368,0.444c0.574,0.57,1.336,0.884,2.146,0.884c0.812,0,1.573-0.314,2.146-0.884
			c1.051-1.044,2.641-6.286,2.818-6.88C22.552,13.405,22.437,13.15,22.21,13.046z M10.34,13.985c1.146,1.14,3.145,1.142,4.293,0
			c0.139-0.138,0.261-0.286,0.368-0.445c0.107,0.159,0.229,0.307,0.368,0.444c0.574,0.57,1.336,0.884,2.146,0.884
			c0.812,0,1.573-0.314,2.146-0.884c1.046-1.039,2.636-5.79,2.813-6.329c0.071-0.216-0.012-0.453-0.203-0.577
			c-0.192-0.124-0.441-0.102-0.61,0.052c-0.007,0.007-0.771,0.703-1.733,1.048c-0.61,0.219-1.305,0.389-1.977,0.553
			c-1.185,0.29-2.121,0.518-2.583,0.977C15.229,9.846,15.106,9.994,15,10.152c-0.107-0.158-0.23-0.307-0.368-0.445
			C14.17,9.249,13.234,9.02,12.049,8.73c-0.672-0.164-1.366-0.333-1.977-0.553C9.117,7.834,8.345,7.135,8.338,7.128
			C8.17,6.975,7.92,6.953,7.729,7.077c-0.191,0.124-0.274,0.36-0.203,0.576C7.704,8.195,9.294,12.946,10.34,13.985z M14.971,9
			c1.671,0,3.03-1.42,3.03-3.167c0-1.577-2.345-5.2-2.612-5.607C15.298,0.086,15.143,0.001,14.976,0
			c-0.138,0.011-0.323,0.08-0.418,0.218c-0.265,0.387-2.586,3.831-2.617,5.607c-0.016,0.858,0.304,1.664,0.899,2.27
			C13.413,8.679,14.17,9,14.971,9z M15.001,28c-0.276,0-0.5,0.224-0.5,0.5v1c0,0.276,0.224,0.5,0.5,0.5s0.5-0.224,0.5-0.5v-1
			C15.501,28.224,15.277,28,15.001,28z M22.262,20.074c-0.197-0.121-0.451-0.09-0.615,0.074c-0.008,0.007-0.774,0.77-1.718,1.108
			c-0.609,0.219-1.304,0.388-1.975,0.552c-1.186,0.29-2.122,0.519-2.585,0.978c-0.139,0.138-0.261,0.286-0.368,0.445
			c-0.107-0.159-0.229-0.307-0.368-0.444c-0.463-0.459-1.399-0.688-2.585-0.978c-0.671-0.164-1.365-0.333-1.975-0.552
			c-0.943-0.338-1.71-1.101-1.718-1.108c-0.163-0.164-0.417-0.195-0.615-0.074c-0.197,0.121-0.286,0.361-0.215,0.581
			c0.178,0.546,1.768,5.367,2.814,6.407c1.146,1.14,3.145,1.142,4.293,0c0.138-0.138,0.261-0.286,0.368-0.445
			c0.107,0.159,0.229,0.307,0.368,0.444c0.574,0.57,1.336,0.884,2.146,0.884c0.812,0,1.573-0.314,2.146-0.884
			c1.047-1.04,2.637-5.86,2.814-6.407C22.548,20.435,22.459,20.194,22.262,20.074z"/>
	</g>
</g>
</svg>
