<?xml version="1.0" encoding="iso-8859-1"?>
<!-- Generator: Adobe Illustrator 19.0.0, SVG Export Plug-In . SVG Version: 6.00 Build 0)  -->
<svg version="1.1" id="Layer_1" xmlns="http://www.w3.org/2000/svg" xmlns:xlink="http://www.w3.org/1999/xlink" x="0px" y="0px"
	 viewBox="0 0 30 30" style="enable-background:new 0 0 30 30;" xml:space="preserve">
<g>
	<g>
		<path d="M29.979,3.391c-0.002-0.932-0.367-1.81-1.028-2.47c-1.322-1.322-3.622-1.328-4.938-0.011
			c-0.079,0.079-0.155,0.164-0.228,0.253c-1.255-0.456-2.708-0.146-3.648,0.794c-0.58,0.58-0.929,1.351-0.994,2.171
			c-0.826,0.064-1.589,0.412-2.172,0.995c-1.337,1.338-1.353,3.506-0.052,4.873l-2.387,2.387l-0.211-0.211
			c-4.099-2.927-8.723-2.766-12.459,0.579c-1.736,2.003-2.283,4.773-1.428,7.229c0.257,0.737,0.464,1.881,0.554,3.061
			c0,0.002,0.001,0.003,0.001,0.005c0.111,1.459,0.14,4.213-0.915,6.302c-0.096,0.189-0.062,0.419,0.086,0.572
			c0.096,0.101,0.228,0.154,0.36,0.154c0.07,0,0.141-0.015,0.207-0.045c1.324-0.602,3.167-0.933,5.191-0.933
			c0.398,0,0.79,0.013,1.167,0.037c1.217,0.077,2.317,0.269,3.021,0.525c0.653,0.239,1.35,0.359,2.068,0.36
			c1.772,0,3.658-0.753,5.205-2.097c1.73-1.791,2.712-4.374,2.626-6.91c-0.078-2.272-1.019-4.335-2.632-5.791l-0.011-0.011
			l0.612-0.611c0.037-0.029,0.07-0.063,0.1-0.101l1.673-1.673c0.021,0.022,0.042,0.044,0.063,0.065
			c1.321,1.322,3.621,1.326,4.938,0.011c0.58-0.58,0.929-1.351,0.994-2.171c0.826-0.064,1.588-0.412,2.171-0.994
			c0.963-0.962,1.259-2.383,0.796-3.649c0.09-0.073,0.174-0.148,0.252-0.227C29.621,5.201,29.982,4.324,29.979,3.391z M1.421,28.699
			c0.506-1.509,0.628-3.146,0.618-4.436l1.916,1.916l1.916,1.916C4.64,28.098,2.982,28.216,1.421,28.699z"/>
	</g>
</g>
</svg>
