<?xml version="1.0" encoding="iso-8859-1"?>
<!-- Generator: Adobe Illustrator 19.0.0, SVG Export Plug-In . SVG Version: 6.00 Build 0)  -->
<svg version="1.1" id="Layer_1" xmlns="http://www.w3.org/2000/svg" xmlns:xlink="http://www.w3.org/1999/xlink" x="0px" y="0px"
	 viewBox="0 0 30 30" style="enable-background:new 0 0 30 30;" xml:space="preserve">
<g>
	<g>
		<path d="M10.288,8.305c-0.609,0.25-1.665,0.536-2.396,0.697C7.693,9.046,7.541,9.206,7.507,9.407s0.057,0.402,0.23,0.509
			c0.062,0.039,1.518,0.914,4.938,1.063c0.199,0.45,0.335,0.852,0.458,1.212c0.271,0.798,0.484,1.428,1.149,1.75
			c0.069,0.033,0.144,0.05,0.218,0.05c0.1,0,0.199-0.03,0.284-0.088c0.976-0.674,1.329-1.469,1.625-2.898
			c1.338-0.03,3.431-0.298,4.834-1.076c0.169-0.094,0.269-0.277,0.256-0.47s-0.136-0.361-0.315-0.433
			c-0.478-0.188-1.04-0.336-1.536-0.467c-0.044-0.012-0.091-0.024-0.138-0.037c1.187-0.549,2.464-1.534,2.958-2.856
			c0.051-0.135,0.04-0.286-0.028-0.413c-0.069-0.127-0.189-0.218-0.33-0.25c-2.566-0.579-4.381-0.051-5.42,0.46
			c0.198-0.836,0.585-1.565,1.336-2.342c0.688-0.712,0.688-1.873-0.001-2.585c-0.678-0.702-1.867-0.702-2.545,0l-0.608,0.63
			c-0.913,0.945-1.652,2.439-2.05,3.992c-0.002-0.002-0.004-0.003-0.006-0.005c-0.015,0.057-0.02,0.115-0.034,0.173
			c-0.066,0.277-0.121,0.553-0.164,0.831c-0.014,0.092-0.03,0.183-0.041,0.275c-0.045,0.359-0.076,0.715-0.076,1.06
			c0,0.276-0.224,0.5-0.5,0.5s-0.5-0.224-0.5-0.5c0-0.908,0.146-1.864,0.401-2.791c-1.045-0.4-2.298-0.623-2.826-0.703
			C8.895,3.971,8.723,4.04,8.611,4.179C8.499,4.318,8.47,4.506,8.534,4.672C8.569,4.762,9.336,6.741,10.288,8.305z M23.229,7.288
			c-0.213-0.121-0.482-0.069-0.635,0.122c-0.128,0.16-0.263,0.314-0.407,0.46c-0.178,0.182-0.191,0.47-0.029,0.667
			c0.201,0.245,0.318,0.541,0.338,0.855c0.038,0.576-0.264,1.13-0.769,1.41c-1.422,0.789-3.232,1.055-4.184,1.144
			c-0.2,0.019-0.369,0.155-0.43,0.346c-0.346,1.081-0.889,1.831-1.761,2.433c-0.44,0.303-1.025,0.348-1.505,0.116
			c-1.043-0.504-1.372-1.473-1.688-2.405l-0.063-0.187c-0.064-0.186-0.232-0.317-0.428-0.334c-2.888-0.256-4.219-1.001-4.457-1.148
			c-0.522-0.322-0.793-0.922-0.69-1.527c0.103-0.605,0.556-1.082,1.155-1.214c0.179-0.04,0.364-0.083,0.549-0.13
			c0.146-0.037,0.267-0.138,0.331-0.274c0.064-0.136,0.063-0.294-0.003-0.43L8.411,6.894C8.293,6.646,7.997,6.537,7.749,6.653
			C3.209,8.751,0.5,12.81,0.5,17.512c0,6.881,6.505,12.479,14.5,12.479s14.5-5.598,14.5-12.479
			C29.5,13.257,27.214,9.53,23.229,7.288z M7.484,24.709c-0.099,0.128-0.247,0.195-0.397,0.195c-0.106,0-0.213-0.034-0.304-0.104
			c-2.446-1.879-3.849-4.535-3.849-7.288c0-0.276,0.224-0.5,0.5-0.5s0.5,0.224,0.5,0.5c0,2.475,1.228,4.782,3.458,6.495
			C7.611,24.176,7.653,24.49,7.484,24.709z"/>
	</g>
</g>
</svg>
