<?xml version="1.0" encoding="iso-8859-1"?>
<!-- Generator: Adobe Illustrator 19.0.0, SVG Export Plug-In . SVG Version: 6.00 Build 0)  -->
<svg version="1.1" id="Layer_1" xmlns="http://www.w3.org/2000/svg" xmlns:xlink="http://www.w3.org/1999/xlink" x="0px" y="0px"
	 viewBox="0 0 30 30" style="enable-background:new 0 0 30 30;" xml:space="preserve">
<g>
	<g>
		<path d="M8.294,17.37c2.745-2.006,6.161-4.503,8.677-7.101c0.989-1.022,1.98-2.163,2.854-3.169
			c0.686-0.79,1.305-1.495,1.855-2.076c-0.072-0.23-0.128-0.463-0.161-0.7c-0.023-0.169-0.132-0.315-0.287-0.386
			c-0.155-0.071-0.336-0.058-0.48,0.035c-1.633,1.059-3.559,2.719-5.283,4.554c-2.431,2.587-5.93,4.922-8.74,6.798
			c-1.98,1.322-3.691,2.463-4.607,3.401c-2.349,2.403-2.543,5.302-1.549,7.518c0.161-1.373,1.088-3.184,3.135-5.256
			C4.646,20.036,6.337,18.801,8.294,17.37z M7.793,25.579c0.895-0.886,2.188-2.54,3.687-4.454c2.176-2.782,4.885-6.244,7.543-8.826
			c1.064-1.033,2.226-2.042,3.25-2.932c0.634-0.55,1.214-1.057,1.71-1.513c-0.37-0.22-0.725-0.481-1.05-0.807
			C22.61,6.724,22.351,6.369,22.132,6c-0.467,0.509-0.986,1.103-1.552,1.754c-0.883,1.016-1.883,2.167-2.891,3.208
			c-2.575,2.66-6.03,5.185-8.806,7.213C6.961,19.58,5.3,20.794,4.417,21.688c-2.737,2.772-3.358,5.126-2.554,5.934
			c0.291,0.291,0.756,0.451,1.311,0.451C3.959,28.074,5.6,27.75,7.793,25.579z M25.629,8.462c-0.226-0.033-0.448-0.088-0.667-0.157
			c-0.57,0.54-1.261,1.146-2.035,1.818c-1.015,0.881-2.164,1.88-3.208,2.895c-2.609,2.534-5.295,5.966-7.453,8.724
			c-1.519,1.941-2.831,3.618-3.771,4.548c-1.813,1.796-3.702,2.785-5.32,2.785c-0.001,0,0,0-0.001,0
			c-0.033,0-0.063-0.007-0.095-0.008c0.987,0.591,2.128,0.922,3.291,0.922c0.001,0,0.001,0,0.001,0c1.768,0,3.454-0.736,4.876-2.129
			c0.938-0.917,2.078-2.629,3.398-4.612c1.875-2.814,4.208-6.316,6.793-8.749c1.826-1.72,3.48-3.641,4.538-5.27
			c0.093-0.143,0.106-0.324,0.036-0.479C25.942,8.595,25.798,8.487,25.629,8.462z M29.957,2.181c-0.096-0.49-0.37-0.98-0.772-1.382
			c-0.857-0.857-2.145-1.05-2.788-0.408c-0.046,0.046-0.078,0.102-0.117,0.154c-0.012,0.005-0.024,0-0.036,0.005l-1.893,0.951
			c-0.544,0.066-0.87,0.294-1.211,0.634c-1.073,1.073-0.862,2.843,0.5,4.207c0.762,0.763,1.661,1.183,2.531,1.183
			c0.649,0,1.229-0.236,1.676-0.683c0.288-0.289,0.519-0.728,0.622-1.188l0.947-1.906c0.008-0.017,0.002-0.036,0.008-0.054
			c0.054-0.039,0.119-0.061,0.167-0.109C29.931,3.247,30.065,2.735,29.957,2.181z M28.884,2.881c-0.09,0.09-0.226,0.109-0.323,0.109
			c-0.329,0-0.732-0.198-1.051-0.517c-0.259-0.259-0.44-0.575-0.498-0.868c-0.02-0.105-0.052-0.364,0.091-0.507
			c0.09-0.09,0.226-0.109,0.323-0.109c0.329,0,0.732,0.198,1.051,0.517c0.259,0.259,0.44,0.575,0.498,0.868
			C28.996,2.478,29.028,2.738,28.884,2.881z"/>
	</g>
</g>
</svg>
