<?xml version="1.0" encoding="utf-8"?>
<!-- Generator: Adobe Illustrator 19.0.0, SVG Export Plug-In . SVG Version: 6.00 Build 0)  -->
<svg version="1.1" id="Layer_1" xmlns="http://www.w3.org/2000/svg" xmlns:xlink="http://www.w3.org/1999/xlink" x="0px" y="0px"
	 viewBox="0 0 30 30" style="enable-background:new 0 0 30 30;" xml:space="preserve">
<g>
	<g>
		<path d="M0.5,7C0.3,7,0.2,6.9,0.1,6.7c-0.1-0.2,0-0.5,0.2-0.7l4.5-2.5c0.2-0.1,0.5,0,0.7,0.2c0.1,0.2,0,0.5-0.2,0.7L0.7,6.9
			C0.7,7,0.6,7,0.5,7z"/>
	</g>
	<g>
		<path d="M5.5,10c-0.2,0-0.3-0.1-0.4-0.2C4.9,9.5,5,9.2,5.2,9.1l5-3c0.2-0.1,0.5-0.1,0.7,0.2s0.1,0.5-0.2,0.7l-5,3
			C5.7,10,5.6,10,5.5,10z"/>
	</g>
	<g>
		<path d="M15.5,15c-0.2,0-0.3-0.1-0.4-0.3c-0.1-0.2,0-0.5,0.2-0.7l5-2.8c0.2-0.1,0.5,0,0.7,0.2c0.1,0.2,0,0.5-0.2,0.7l-5,2.8
			C15.7,15,15.6,15,15.5,15z"/>
	</g>
	<g>
		<path d="M21,17.5c-0.2,0-0.3-0.1-0.4-0.3c-0.1-0.2,0-0.5,0.2-0.7l4.5-2.5c0.2-0.1,0.5,0,0.7,0.2c0.1,0.2,0,0.5-0.2,0.7l-4.5,2.5
			C21.2,17.5,21.1,17.5,21,17.5z"/>
	</g>
	<g>
		<path d="M14.5,30h-3c-0.3,0-0.5-0.2-0.5-0.5V7.3L0.3,1.9C0.1,1.9,0,1.7,0,1.5C0,1.3,0.2,1.1,0.3,1l3-1c0.1,0,0.3,0,0.4,0l26,13
			c0.2,0.1,0.3,0.3,0.3,0.5c0,0.2-0.1,0.4-0.3,0.4l-3,1c-0.1,0-0.3,0-0.4,0L15,9.3v20.2C15,29.8,14.8,30,14.5,30z M12,29h2V8.5
			c0-0.2,0.1-0.3,0.2-0.4c0.1-0.1,0.3-0.1,0.5,0L26.5,14l1.7-0.6L3.5,1L1.8,1.6l9.9,5C11.9,6.6,12,6.8,12,7V29z"/>
	</g>
	<g>
		<path d="M8,2.9c-0.2,0-0.4-0.1-0.4-0.3c-0.1-0.2,0-0.5,0.2-0.7l3.5-1.9c0.2-0.1,0.5,0,0.7,0.2c0.1,0.2,0,0.5-0.2,0.7L8.2,2.8
			C8.2,2.9,8.1,2.9,8,2.9z"/>
	</g>
	<g>
		<path d="M13,5.5c-0.2,0-0.3-0.1-0.4-0.3c-0.1-0.2,0-0.5,0.2-0.7l4.5-2.5c0.2-0.1,0.5,0,0.7,0.2c0.1,0.2,0,0.5-0.2,0.7l-4.5,2.5
			C13.2,5.5,13.1,5.5,13,5.5z"/>
	</g>
	<g>
		<path d="M18,8c-0.2,0-0.3-0.1-0.4-0.2c-0.1-0.2-0.1-0.5,0.2-0.7l4-2.5c0.2-0.1,0.5-0.1,0.7,0.2s0.1,0.5-0.2,0.7l-4,2.5
			C18.2,8,18.1,8,18,8z"/>
	</g>
	<g>
		<path d="M23,10.5c-0.2,0-0.4-0.1-0.4-0.3c-0.1-0.2,0-0.5,0.2-0.7l4-2c0.2-0.1,0.5,0,0.7,0.2c0.1,0.2,0,0.5-0.2,0.7l-4,2
			C23.2,10.5,23.1,10.5,23,10.5z"/>
	</g>
</g>
</svg>
