<?xml version="1.0" encoding="utf-8"?>
<!-- Generator: Adobe Illustrator 19.0.0, SVG Export Plug-In . SVG Version: 6.00 Build 0)  -->
<svg version="1.1" id="Layer_1" xmlns="http://www.w3.org/2000/svg" xmlns:xlink="http://www.w3.org/1999/xlink" x="0px" y="0px"
	 viewBox="0 0 30 30" style="enable-background:new 0 0 30 30;" xml:space="preserve">
<g>
	<g>
		<path d="M29.5,4.5h-28C1.2,4.5,1,4.3,1,4s0.2-0.5,0.5-0.5h28C29.8,3.5,30,3.7,30,4S29.8,4.5,29.5,4.5z"/>
	</g>
	<g>
		<path d="M26.5,24c-0.3,0-0.5-0.2-0.5-0.5V4c0-0.3,0.2-0.5,0.5-0.5S27,3.7,27,4v19.5C27,23.8,26.8,24,26.5,24z"/>
	</g>
	<g>
		<path d="M11.5,24c-0.3,0-0.5-0.2-0.5-0.5V4c0-0.3,0.2-0.5,0.5-0.5S12,3.7,12,4v19.5C12,23.8,11.8,24,11.5,24z"/>
	</g>
	<g>
		<path d="M21.5,24c-0.3,0-0.5-0.2-0.5-0.5V4c0-0.3,0.2-0.5,0.5-0.5S22,3.7,22,4v19.5C22,23.8,21.8,24,21.5,24z"/>
	</g>
	<g>
		<path d="M16.5,24c-0.3,0-0.5-0.2-0.5-0.5V4c0-0.3,0.2-0.5,0.5-0.5S17,3.7,17,4v19.5C17,23.8,16.8,24,16.5,24z"/>
	</g>
	<g>
		<path d="M2,22.5c0,0-0.1,0-0.1,0c-0.3-0.1-0.4-0.3-0.4-0.6L6,3.9c0.1-0.3,0.3-0.4,0.6-0.4C6.9,3.6,7.1,3.9,7,4.1l-4.5,18
			C2.4,22.3,2.2,22.5,2,22.5z"/>
	</g>
	<g>
		<path d="M26.5,26.5c-0.8,0-1.5-0.7-1.5-1.5s0.7-1.5,1.5-1.5S28,24.2,28,25S27.3,26.5,26.5,26.5z M26.5,24.5
			c-0.3,0-0.5,0.2-0.5,0.5s0.2,0.5,0.5,0.5S27,25.3,27,25S26.8,24.5,26.5,24.5z"/>
	</g>
	<g>
		<path d="M21.5,26.5c-0.8,0-1.5-0.7-1.5-1.5s0.7-1.5,1.5-1.5S23,24.2,23,25S22.3,26.5,21.5,26.5z M21.5,24.5
			c-0.3,0-0.5,0.2-0.5,0.5s0.2,0.5,0.5,0.5S22,25.3,22,25S21.8,24.5,21.5,24.5z"/>
	</g>
	<g>
		<path d="M16.5,26.5c-0.8,0-1.5-0.7-1.5-1.5s0.7-1.5,1.5-1.5S18,24.2,18,25S17.3,26.5,16.5,26.5z M16.5,24.5
			c-0.3,0-0.5,0.2-0.5,0.5s0.2,0.5,0.5,0.5S17,25.3,17,25S16.8,24.5,16.5,24.5z"/>
	</g>
	<g>
		<path d="M11.5,26.5c-0.8,0-1.5-0.7-1.5-1.5s0.7-1.5,1.5-1.5S13,24.2,13,25S12.3,26.5,11.5,26.5z M11.5,24.5
			c-0.3,0-0.5,0.2-0.5,0.5s0.2,0.5,0.5,0.5S12,25.3,12,25S11.8,24.5,11.5,24.5z"/>
	</g>
	<g>
		<path d="M1.5,24.5C0.7,24.5,0,23.8,0,23s0.7-1.5,1.5-1.5S3,22.2,3,23S2.3,24.5,1.5,24.5z M1.5,22.5C1.2,22.5,1,22.7,1,23
			s0.2,0.5,0.5,0.5S2,23.3,2,23S1.8,22.5,1.5,22.5z"/>
	</g>
</g>
</svg>
