<?xml version="1.0" encoding="iso-8859-1"?>
<!-- Generator: Adobe Illustrator 19.0.0, SVG Export Plug-In . SVG Version: 6.00 Build 0)  -->
<svg version="1.1" id="Layer_1" xmlns="http://www.w3.org/2000/svg" xmlns:xlink="http://www.w3.org/1999/xlink" x="0px" y="0px"
	 viewBox="0 0 24 24" style="enable-background:new 0 0 24 24;" xml:space="preserve">
<g>
	<g>
		<g>
			<path d="M6.5,17H4c-0.276,0-0.5-0.224-0.5-0.5c0-2.851,1.22-9.815,1.743-12.677C5.438,2.767,6.284,1.955,7.35,1.802l2.08-0.297
				c0.27-0.039,0.525,0.151,0.565,0.424c0.039,0.273-0.151,0.527-0.425,0.566L7.49,2.792C6.852,2.884,6.344,3.37,6.228,4.003
				C5.736,6.68,4.633,12.976,4.511,16H6.05l0.953-9.052c0.029-0.275,0.265-0.478,0.55-0.445c0.274,0.029,0.474,0.275,0.444,0.549
				l-1,9.5C6.971,16.807,6.756,17,6.5,17z"/>
		</g>
		<g>
			<path d="M12,24c-2.289,0-5.973-0.976-6.129-1.017c-0.233-0.062-0.39-0.283-0.369-0.524l0.5-6c0.022-0.276,0.274-0.478,0.54-0.457
				c0.274,0.023,0.479,0.264,0.456,0.54L6.533,22.12C7.553,22.372,10.267,23,12,23c1.734,0,4.447-0.628,5.467-0.88l-0.465-5.578
				c-0.023-0.275,0.182-0.517,0.456-0.54c0.268-0.029,0.518,0.18,0.54,0.457l0.5,6c0.021,0.241-0.136,0.462-0.369,0.524
				C17.973,23.024,14.289,24,12,24z"/>
		</g>
		<g>
			<path d="M20,17h-2.5c-0.256,0-0.471-0.193-0.497-0.448l-1-9.5c-0.029-0.274,0.17-0.521,0.444-0.549
				c0.284-0.032,0.521,0.17,0.55,0.445L17.95,16h1.539c-0.122-3.024-1.226-9.32-1.717-11.997c-0.116-0.633-0.624-1.119-1.263-1.21
				l-2.08-0.297c-0.273-0.039-0.464-0.292-0.425-0.566s0.298-0.463,0.565-0.424l2.08,0.297c1.065,0.152,1.912,0.964,2.106,2.021
				C19.28,6.685,20.5,13.649,20.5,16.5C20.5,16.776,20.276,17,20,17z"/>
		</g>
		<g>
			<path d="M14,18c-0.225,0-0.429-0.151-0.485-0.379c-0.066-0.268,0.096-0.539,0.364-0.606l2-0.5
				c0.264-0.07,0.539,0.096,0.606,0.364c0.066,0.268-0.096,0.539-0.364,0.606l-2,0.5C14.081,17.995,14.04,18,14,18z"/>
		</g>
		<g>
			<path d="M11,9c-0.092,0-0.185-0.025-0.267-0.077c-0.206-0.13-0.289-0.39-0.195-0.615c0.154-0.371,0.309-0.748,0.461-1.125
				L8.12,3.825C7.971,3.651,7.959,3.396,8.094,3.209C10.389,0,10.742,0,11,0h2c0.258,0,0.611,0,2.906,3.209
				c0.137,0.191,0.122,0.451-0.034,0.625l-4.5,5C11.273,8.943,11.138,9,11,9z M13.866,2.149c-0.195,0.779-0.593,1.991-1.339,3.906
				l2.331-2.59C14.529,3.014,14.182,2.552,13.866,2.149z M10.923,1.267c-0.079,0.444,0.275,2.334,0.728,4.258
				c0.787-2.053,1.393-3.843,1.396-4.315c-0.011-0.023-0.02-0.047-0.026-0.072C12.964,1.08,12.916,1.033,12.877,1h-1.754
				c-0.039,0.033-0.087,0.08-0.143,0.137C10.968,1.182,10.949,1.226,10.923,1.267z M9.136,3.474l1.38,1.61
				c-0.284-1.241-0.441-2.125-0.52-2.757C9.717,2.687,9.419,3.084,9.136,3.474z"/>
		</g>
		<g>
			<path d="M11,23.5c-0.276,0-0.5-0.224-0.5-0.5V8.5C10.5,8.224,10.724,8,11,8s0.5,0.224,0.5,0.5V23
				C11.5,23.276,11.276,23.5,11,23.5z"/>
		</g>
		<g>
			<path d="M9,18c-0.075,0-0.151-0.017-0.224-0.053l-1-0.5c-0.247-0.124-0.347-0.424-0.224-0.671
				c0.125-0.248,0.424-0.345,0.671-0.224l1,0.5c0.247,0.124,0.347,0.424,0.224,0.671C9.359,17.899,9.183,18,9,18z"/>
		</g>
	</g>
	<g>
		<circle cx="13" cy="10.5" r="0.5"/>
	</g>
	<g>
		<circle cx="13" cy="13.5" r="0.5"/>
	</g>
</g>
<g>
</g>
<g>
</g>
<g>
</g>
<g>
</g>
<g>
</g>
<g>
</g>
<g>
</g>
<g>
</g>
<g>
</g>
<g>
</g>
<g>
</g>
<g>
</g>
<g>
</g>
<g>
</g>
<g>
</g>
</svg>
