<?xml version="1.0" encoding="iso-8859-1"?>
<!-- Generator: Adobe Illustrator 19.0.0, SVG Export Plug-In . SVG Version: 6.00 Build 0)  -->
<svg version="1.1" id="Layer_1" xmlns="http://www.w3.org/2000/svg" xmlns:xlink="http://www.w3.org/1999/xlink" x="0px" y="0px"
	 viewBox="0 0 24 24" style="enable-background:new 0 0 24 24;" xml:space="preserve">
<g>
	<g>
		<path d="M10.5,19.5c-9.252,0-10.5-1.517-10.5-3c0-0.965,1.305-2.766,3.14-2.979l2.389-6.689C5.578,6.713,6.534,4.5,9.5,4.5
			c1.343,0,1.881,0.127,2.401,0.25C12.422,4.873,12.96,5,14.5,5C14.776,5,15,5.224,15,5.5S14.776,6,14.5,6
			c-1.656,0-2.252-0.141-2.829-0.277C11.186,5.608,10.727,5.5,9.5,5.5c-2.307,0-3.031,1.675-3.039,1.692l-2.491,6.976
			C3.9,14.367,3.711,14.5,3.5,14.5c-1.532,0-2.5,1.6-2.5,2c0,1.74,5.952,2,9.5,2c8.703,0,11.623-2.36,12.063-2.77
			C22.671,15.397,23,14.271,23,13c0-1.5-0.066-1.5-0.5-1.5c-0.708,0-1.525,0.324-1.78,0.449c-0.249,0.121-0.547,0.019-0.669-0.229
			c-0.121-0.248-0.019-0.547,0.229-0.669c0.046-0.022,1.137-0.551,2.22-0.551c1.5,0,1.5,1.103,1.5,2.5
			c0,1.694-0.508,3.111-0.53,3.171c-0.021,0.057-0.051,0.109-0.091,0.155C23.267,16.456,20.53,19.5,10.5,19.5z"/>
	</g>
	<g>
		<path d="M10.5,19.5c-0.276,0-0.5-0.224-0.5-0.5s0.224-0.5,0.5-0.5c5.449,0,12.335-5.02,12.501-6.013
			c0-0.276,0.223-0.494,0.5-0.494c0.276,0,0.5,0.23,0.5,0.506C24,14.325,16.192,19.5,10.5,19.5z"/>
	</g>
	<g>
		<path d="M11,14c-5.156,0-6.828-2.106-6.897-2.196c-0.168-0.22-0.126-0.533,0.093-0.701c0.221-0.167,0.533-0.126,0.701,0.093
			C4.908,11.21,6.393,13,11,13c4.825,0,9.298-1.46,9.343-1.475c0.262-0.085,0.545,0.055,0.632,0.317
			c0.087,0.262-0.055,0.545-0.317,0.632C20.469,12.537,15.992,14,11,14z"/>
	</g>
	<g>
		<path d="M12.5,16.5c-8.007,0-9.318-2.034-9.441-2.266c-0.13-0.244-0.037-0.546,0.207-0.676c0.238-0.127,0.531-0.042,0.666,0.189
			C3.98,13.815,5.272,15.5,12.5,15.5c5.852,0,7.844-0.833,8.414-1.173c-0.441-1.302-2.011-5.948-2.391-7.18
			C18.09,5.749,17.748,5.5,17,5.5c-1.498,0-2.636,0.563-3.736,1.108C12.338,7.067,11.463,7.5,10.5,7.5
			c-1.903,0-2.404-0.488-2.49-0.898C7.954,6.332,8.128,6.067,8.398,6.01C8.623,5.969,8.839,6.074,8.94,6.263
			C9.017,6.314,9.375,6.5,10.5,6.5c0.729,0,1.467-0.365,2.32-0.788C13.968,5.144,15.269,4.5,17,4.5c1.465,0,2.018,0.863,2.478,2.353
			c0.431,1.394,2.476,7.426,2.496,7.487c0.051,0.152,0.027,0.319-0.065,0.45C21.706,15.075,20.301,16.5,12.5,16.5z"/>
	</g>
	<g>
		<path d="M15.5,16c-0.276,0-0.5-0.224-0.5-0.5v-2c0-0.276,0.224-0.5,0.5-0.5s0.5,0.224,0.5,0.5v2C16,15.776,15.776,16,15.5,16z"/>
	</g>
	<g>
		<path d="M18.5,16c-0.276,0-0.5-0.224-0.5-0.5V13c0-0.276,0.224-0.5,0.5-0.5S19,12.724,19,13v2.5C19,15.776,18.776,16,18.5,16z"/>
	</g>
</g>
<g>
</g>
<g>
</g>
<g>
</g>
<g>
</g>
<g>
</g>
<g>
</g>
<g>
</g>
<g>
</g>
<g>
</g>
<g>
</g>
<g>
</g>
<g>
</g>
<g>
</g>
<g>
</g>
<g>
</g>
</svg>
