<?xml version="1.0" encoding="iso-8859-1"?>
<!-- Generator: Adobe Illustrator 19.0.0, SVG Export Plug-In . SVG Version: 6.00 Build 0)  -->
<svg version="1.1" id="Layer_1" xmlns="http://www.w3.org/2000/svg" xmlns:xlink="http://www.w3.org/1999/xlink" x="0px" y="0px"
	 viewBox="0 0 24 24" style="enable-background:new 0 0 24 24;" xml:space="preserve">
<g>
	<g>
		<g>
			<g>
				<path d="M12,5c-0.036,0-0.073-0.004-0.108-0.012l-4.5-1C7.163,3.938,7,3.734,7,3.5v-1C7,1.122,8.122,0,9.5,0h5
					C15.878,0,17,1.122,17,2.5v1c0,0.234-0.163,0.438-0.392,0.488l-4.5,1C12.073,4.996,12.036,5,12,5z M8,3.099l4,0.889l4-0.889V2.5
					C16,1.673,15.327,1,14.5,1h-5C8.673,1,8,1.673,8,2.5V3.099z"/>
			</g>
		</g>
		<g>
			<path d="M12,7c-0.157,0-0.306-0.074-0.4-0.2l-1.5-2C10.035,4.713,10,4.608,10,4.5v-1C10,3.224,10.224,3,10.5,3S11,3.224,11,3.5
				v0.833l1,1.333l1-1.333V3.5C13,3.224,13.224,3,13.5,3S14,3.224,14,3.5v1c0,0.108-0.035,0.213-0.1,0.3l-1.5,2
				C12.306,6.926,12.157,7,12,7z"/>
		</g>
		<g>
			<path d="M12,17c-0.157,0-0.306-0.074-0.4-0.2l-1.5-2c-0.084-0.112-0.117-0.254-0.091-0.392l1.5-8C11.553,6.171,11.759,6,12,6
				s0.447,0.171,0.491,0.408l1.5,8c0.026,0.138-0.007,0.28-0.091,0.392l-1.5,2C12.306,16.926,12.157,17,12,17z M11.032,14.376
				L12,15.667l0.968-1.291L12,9.213L11.032,14.376z"/>
		</g>
	</g>
	<g>
		<path d="M5.5,10c-0.214,0-0.412-0.138-0.478-0.353l-2-6.5C2.941,2.883,3.089,2.604,3.353,2.522
			c0.264-0.083,0.543,0.067,0.625,0.331l2,6.5c0.081,0.264-0.067,0.543-0.331,0.625C5.598,9.993,5.548,10,5.5,10z"/>
	</g>
	<g>
		<path d="M23.5,24h-3c-0.249,0-0.46-0.183-0.495-0.429L19,16.536V22.5c0,0.189-0.107,0.362-0.276,0.447
			C18.638,22.99,16.565,24,12,24s-6.638-1.01-6.724-1.053C5.107,22.862,5,22.689,5,22.5v-5.964l-1.005,7.035
			C3.96,23.817,3.749,24,3.5,24h-3c-0.137,0-0.268-0.056-0.362-0.155S-0.006,23.612,0,23.475L0.835,6.79
			c0.11-2.215,1.529-4.136,3.613-4.894L5.42,1.542C6.41,1.183,7.446,1,8.499,1c0.119,0,0.235,0.042,0.325,0.12L12,3.841l3.175-2.721
			C15.265,1.042,15.381,1,15.5,1c1.054,0,2.09,0.183,3.08,0.542l0.972,0.354c2.084,0.758,3.503,2.679,3.613,4.894L24,23.475
			c0.007,0.137-0.043,0.271-0.137,0.37S23.637,24,23.5,24z M20.934,23h2.041L22.166,6.84c-0.09-1.812-1.25-3.384-2.956-4.004
			l-0.972-0.354c-0.823-0.299-1.681-0.46-2.555-0.48L12.325,4.88c-0.187,0.16-0.464,0.161-0.65,0L8.317,2.002
			c-0.874,0.02-1.733,0.181-2.556,0.48L4.79,2.835C3.084,3.456,1.924,5.028,1.834,6.84L1.026,23h2.041L5.005,9.429
			C5.042,9.17,5.266,8.977,5.536,9.001C5.797,9.02,6,9.238,6,9.5v12.666C6.679,22.417,8.615,23,12,23s5.321-0.583,6-0.834V9.5
			c0-0.262,0.203-0.48,0.464-0.499c0.269-0.022,0.494,0.168,0.531,0.428L20.934,23z"/>
	</g>
	<g>
		<path d="M18.5,10c-0.048,0-0.098-0.007-0.147-0.022c-0.264-0.082-0.412-0.361-0.331-0.625l2-6.5
			c0.082-0.264,0.363-0.412,0.625-0.331c0.264,0.082,0.412,0.361,0.331,0.625l-2,6.5C18.912,9.862,18.714,10,18.5,10z"/>
	</g>
</g>
<g>
</g>
<g>
</g>
<g>
</g>
<g>
</g>
<g>
</g>
<g>
</g>
<g>
</g>
<g>
</g>
<g>
</g>
<g>
</g>
<g>
</g>
<g>
</g>
<g>
</g>
<g>
</g>
<g>
</g>
</svg>
