<?xml version="1.0" encoding="iso-8859-1"?>
<!-- Generator: Adobe Illustrator 19.0.0, SVG Export Plug-In . SVG Version: 6.00 Build 0)  -->
<svg version="1.1" id="Layer_1" xmlns="http://www.w3.org/2000/svg" xmlns:xlink="http://www.w3.org/1999/xlink" x="0px" y="0px"
	 viewBox="0 0 24 24" style="enable-background:new 0 0 24 24;" xml:space="preserve">
<g>
	<g>
		<path d="M22,24h-9c-0.26,0-0.477-0.199-0.498-0.458L12,17.521l-0.502,6.021C11.477,23.801,11.26,24,11,24H2
			c-0.253,0-0.467-0.189-0.497-0.441C1.462,23.213,0.5,15.058,0.5,12c0-2.935,0.879-7.011,1-7.555V2.5C1.5,1.122,2.622,0,4,0h16
			c1.378,0,2.5,1.122,2.5,2.5v1.945c0.121,0.544,1,4.62,1,7.555c0,3.058-0.962,11.213-1.003,11.559C22.467,23.811,22.253,24,22,24z
			 M13.46,23h8.095c0.204-1.773,0.945-8.4,0.945-11c0-2.971-0.978-7.346-0.988-7.39C21.504,4.574,21.5,4.537,21.5,4.5v-2
			C21.5,1.673,20.827,1,20,1H4C3.173,1,2.5,1.673,2.5,2.5v2c0,0.037-0.004,0.074-0.012,0.11C2.478,4.654,1.5,9.029,1.5,12
			c0,2.6,0.741,9.227,0.945,11h8.095l0.962-11.542C11.523,11.199,11.74,11,12,11s0.477,0.199,0.498,0.458L13.46,23z"/>
	</g>
	<g>
		<path d="M22,5H2C1.724,5,1.5,4.776,1.5,4.5S1.724,4,2,4h20c0.276,0,0.5,0.224,0.5,0.5S22.276,5,22,5z"/>
	</g>
	<g>
		<path d="M9,11c-0.27,0-0.493-0.215-0.5-0.486C8.474,9.528,8.223,8.361,7.98,7.232C7.565,5.294,7.206,3.621,7.853,2.665
			c0.243-0.358,0.601-0.58,1.063-0.658c0.271-0.046,0.53,0.137,0.577,0.41c0.046,0.272-0.137,0.53-0.41,0.577
			C8.839,3.035,8.74,3.14,8.681,3.226C8.273,3.828,8.637,5.525,8.958,7.022C9.21,8.195,9.471,9.409,9.5,10.486
			C9.507,10.763,9.29,10.992,9.014,11C9.009,11,9.004,11,9,11z"/>
	</g>
	<g>
		<path d="M15,11c-0.005,0-0.009,0-0.014,0c-0.276-0.008-0.494-0.237-0.486-0.514c0.029-1.078,0.29-2.291,0.542-3.464
			c0.321-1.497,0.686-3.194,0.277-3.796c-0.059-0.086-0.158-0.191-0.402-0.233c-0.272-0.046-0.456-0.305-0.41-0.577
			c0.046-0.272,0.305-0.451,0.577-0.41c0.463,0.079,0.821,0.3,1.063,0.658c0.647,0.956,0.288,2.629-0.127,4.567
			c-0.243,1.129-0.493,2.296-0.52,3.282C15.492,10.785,15.27,11,15,11z"/>
	</g>
</g>
<g>
</g>
<g>
</g>
<g>
</g>
<g>
</g>
<g>
</g>
<g>
</g>
<g>
</g>
<g>
</g>
<g>
</g>
<g>
</g>
<g>
</g>
<g>
</g>
<g>
</g>
<g>
</g>
<g>
</g>
</svg>
