<?xml version="1.0" encoding="iso-8859-1"?>
<!-- Generator: Adobe Illustrator 19.0.0, SVG Export Plug-In . SVG Version: 6.00 Build 0)  -->
<svg version="1.1" id="Layer_1" xmlns="http://www.w3.org/2000/svg" xmlns:xlink="http://www.w3.org/1999/xlink" x="0px" y="0px"
	 viewBox="0 0 30 30" style="enable-background:new 0 0 30 30;" xml:space="preserve">
<g>
	<g>
		<path d="M26,0H12c-0.065,0-0.13,0.013-0.191,0.038c-0.062,0.025-0.117,0.062-0.163,0.109L3.647,8.146
			C3.601,8.192,3.564,8.248,3.538,8.309C3.513,8.37,3.5,8.435,3.5,8.5v21C3.5,29.776,3.724,30,4,30h22c0.276,0,0.5-0.224,0.5-0.5
			v-29C26.5,0.224,26.276,0,26,0z M11.5,1.707V8H5.207L11.5,1.707z M16.176,23.968C16.118,23.989,16.059,24,16,24
			c-0.202,0-0.393-0.124-0.468-0.324L14.529,21h-3.057l-1.004,2.676c-0.098,0.259-0.389,0.387-0.644,0.292
			c-0.259-0.097-0.39-0.385-0.292-0.644l1.132-3.018v-0.001l1.868-4.981c0.146-0.39,0.789-0.39,0.936,0l3,8
			C16.565,23.583,16.435,23.871,16.176,23.968z M18.5,23.5c0,0.276-0.224,0.5-0.5,0.5s-0.5-0.224-0.5-0.5v-8
			c0-0.276,0.224-0.5,0.5-0.5s0.5,0.224,0.5,0.5V23.5z M11.846,20h2.308L13,16.924L11.846,20z"/>
	</g>
</g>
</svg>
