<?xml version="1.0" encoding="iso-8859-1"?>
<!-- Generator: Adobe Illustrator 19.0.0, SVG Export Plug-In . SVG Version: 6.00 Build 0)  -->
<svg version="1.1" id="Layer_1" xmlns="http://www.w3.org/2000/svg" xmlns:xlink="http://www.w3.org/1999/xlink" x="0px" y="0px"
	 viewBox="0 0 30 30" style="enable-background:new 0 0 30 30;" xml:space="preserve">
<g>
	<g>
		<path d="M23.749,24.786c-0.154-0.089-0.346-0.089-0.5,0c-0.461,0.268-0.946,0.299-1.482-0.006
			c-0.156-0.088-0.347-0.087-0.502,0.004c-0.076,0.045-0.154,0.087-0.24,0.12c-0.754,0.283-1.649-0.127-1.93-0.878l-0.638-1.702
			c-0.073-0.195-0.26-0.325-0.468-0.325H17.01c-0.208,0-0.395,0.129-0.468,0.325l-0.638,1.702c-0.281,0.75-1.169,1.164-1.931,0.878
			c-0.081-0.03-0.154-0.072-0.227-0.113c-0.155-0.09-0.346-0.089-0.5,0c-0.238,0.138-0.489,0.208-0.746,0.208
			c-0.827,0-1.5-0.673-1.5-1.5v-2.268c0-0.179-0.095-0.344-0.25-0.433c-0.154-0.089-0.346-0.089-0.5,0
			c-0.438,0.253-1.063,0.253-1.5,0c-0.154-0.089-0.346-0.089-0.5,0C8.095,20.887,8,21.052,8,21.231v2.268c0,0.827-0.673,1.5-1.5,1.5
			c-0.827,0-1.5-0.673-1.5-1.5v-8c0-0.646,0.412-1.218,1.024-1.423c0.605-0.198,1.298,0.02,1.676,0.522l1.4,1.867
			c0.188,0.252,0.611,0.252,0.8,0l1.4-1.866c0.379-0.505,1.072-0.722,1.674-0.523C13.588,14.281,14,14.853,14,15.499v2.304
			c0,0.242,0.173,0.449,0.411,0.492c0.238,0.043,0.473-0.09,0.558-0.316l1.127-3.007c0.218-0.582,0.782-0.973,1.404-0.973
			s1.186,0.391,1.404,0.974l2.385,6.359c0.064,0.171,0.216,0.293,0.397,0.319c0.179,0.026,0.361-0.05,0.471-0.195l1.243-1.657
			c0.133-0.178,0.133-0.422,0-0.6l-2.1-2.8c-0.496-0.662-0.361-1.604,0.299-2.1c0.475-0.354,1.141-0.392,1.651-0.099
			c0.155,0.089,0.346,0.089,0.5,0c0.155-0.089,0.25-0.254,0.25-0.433V0.5C24,0.224,23.776,0,23.5,0h-14
			C9.435,0,9.37,0.013,9.309,0.038C9.247,0.063,9.192,0.1,9.146,0.147L1.147,8.146C1.101,8.192,1.064,8.248,1.038,8.309
			C1.013,8.37,1,8.435,1,8.5v21C1,29.776,1.224,30,1.5,30h22c0.276,0,0.5-0.224,0.5-0.5v-4.281
			C23.999,25.041,23.904,24.875,23.749,24.786z M8.999,1.707V8H2.706L8.999,1.707z M26.124,19.5l2.775-3.7
			c0.166-0.221,0.121-0.534-0.1-0.7c-0.221-0.165-0.534-0.12-0.7,0.1l-2.6,3.467l-2.6-3.467c-0.166-0.221-0.479-0.266-0.7-0.1
			c-0.221,0.166-0.266,0.479-0.1,0.7l2.775,3.7l-2.775,3.7c-0.166,0.221-0.121,0.534,0.1,0.7c0.09,0.067,0.195,0.1,0.299,0.1
			c0.152,0,0.302-0.069,0.4-0.2l2.6-3.467l2.6,3.467c0.098,0.131,0.248,0.2,0.4,0.2c0.104,0,0.209-0.033,0.299-0.1
			c0.221-0.166,0.266-0.479,0.1-0.7L26.124,19.5z M12.499,24c0.276,0,0.5-0.224,0.5-0.5v-8c0-0.215-0.138-0.406-0.342-0.474
			s-0.429,0.002-0.558,0.174l-2.6,3.466l-2.6-3.466c-0.129-0.172-0.353-0.243-0.558-0.174c-0.204,0.068-0.342,0.259-0.342,0.474v8
			c0,0.276,0.224,0.5,0.5,0.5s0.5-0.224,0.5-0.5V17l2.1,2.8c0.188,0.252,0.611,0.252,0.8,0l2.1-2.8v6.5
			C11.999,23.776,12.223,24,12.499,24z M17.031,15.324l-3,8c-0.097,0.259,0.034,0.547,0.292,0.644
			c0.259,0.094,0.547-0.034,0.644-0.292L15.97,21h3.057l1.003,2.676C20.105,23.877,20.296,24,20.498,24
			c0.059,0,0.118-0.01,0.176-0.032c0.258-0.097,0.389-0.385,0.292-0.644l-3-8C17.821,14.935,17.177,14.935,17.031,15.324z
			 M16.346,20l1.153-3.076L18.652,20H16.346z"/>
	</g>
</g>
</svg>
