<?xml version="1.0" encoding="iso-8859-1"?>
<!-- Generator: Adobe Illustrator 19.0.0, SVG Export Plug-In . SVG Version: 6.00 Build 0)  -->
<svg version="1.1" id="Layer_1" xmlns="http://www.w3.org/2000/svg" xmlns:xlink="http://www.w3.org/1999/xlink" x="0px" y="0px"
	 viewBox="0 0 30 30" style="enable-background:new 0 0 30 30;" xml:space="preserve">
<g>
	<g>
		<path d="M24.749,24.789c-0.154-0.089-0.346-0.089-0.501,0.001c-0.74,0.431-1.665,0.138-2.057-0.576
			c-0.088-0.16-0.256-0.26-0.438-0.26c0,0,0,0-0.001,0c-0.183,0-0.351,0.1-0.438,0.261c-0.25,0.46-0.729,0.76-1.314,0.784
			c-0.43,0-0.839-0.185-1.124-0.508c-0.096-0.107-0.231-0.169-0.375-0.169c-0.144,0-0.279,0.062-0.375,0.169
			c-0.284,0.321-0.69,0.506-1.185,0.506h-0.007c-0.7-0.031-1.279-0.534-1.408-1.222l-0.091-0.482
			c-0.038-0.204-0.198-0.362-0.401-0.399c-0.208-0.04-0.41,0.055-0.518,0.232C13.813,24.282,12.467,25,11,25c-2.206,0-4-1.57-4-3.5
			c0-0.493,0.242-0.954,0.647-1.235c0.115-0.08,0.191-0.204,0.211-0.342c0.02-0.139-0.021-0.279-0.108-0.387
			C7.259,18.939,7,18.235,7,17.499c0-1.93,1.794-3.5,4-3.5c0.919,0,1.795,0.283,2.533,0.818c0.111,0.081,0.249,0.11,0.384,0.087
			c0.135-0.025,0.254-0.104,0.328-0.219c0.228-0.35,0.575-0.584,0.98-0.66c0.828-0.159,1.598,0.398,1.749,1.198l0.226,1.206
			c0.028,0.15,0.123,0.279,0.258,0.351c0.136,0.07,0.295,0.076,0.436,0.015c0.361-0.16,0.852-0.16,1.213,0
			c0.14,0.061,0.3,0.055,0.436-0.015c0.135-0.071,0.229-0.2,0.258-0.351l0.226-1.205c0.151-0.799,0.913-1.355,1.75-1.198
			c0.157,0.03,0.312,0.09,0.473,0.184c0.156,0.091,0.349,0.091,0.503,0C22.99,14.07,23.242,14,23.5,14h1c0.276,0,0.5-0.224,0.5-0.5
			v-13C25,0.224,24.776,0,24.5,0h-14c-0.065,0-0.13,0.013-0.191,0.038c-0.062,0.025-0.117,0.062-0.163,0.109L2.147,8.146
			C2.101,8.192,2.064,8.248,2.038,8.309C2.013,8.37,2,8.435,2,8.5v21C2,29.776,2.224,30,2.5,30h22c0.276,0,0.5-0.224,0.5-0.5v-4.277
			C25,25.043,24.904,24.878,24.749,24.789z M10,1.707V8H3.707L10,1.707z M11,16c1.103,0,2,0.673,2,1.5c0,0.276,0.224,0.5,0.5,0.5
			s0.5-0.224,0.5-0.5c0-1.378-1.346-2.5-3-2.5s-3,1.122-3,2.5S9.346,20,11,20c1.103,0,2,0.673,2,1.5c0,0.827-0.897,1.5-2,1.5
			s-2-0.673-2-1.5C9,21.224,8.776,21,8.5,21S8,21.224,8,21.5c0,1.378,1.346,2.5,3,2.5s3-1.122,3-2.5S12.654,19,11,19
			c-1.103,0-2-0.673-2-1.5C9,16.673,9.897,16,11,16z M21.009,15.408l-1.106,5.899l-0.921-3.275c-0.121-0.432-0.842-0.432-0.963,0
			l-0.921,3.275l-1.106-5.899c-0.051-0.272-0.317-0.45-0.583-0.399c-0.271,0.051-0.45,0.312-0.399,0.583l1.5,8
			c0.043,0.228,0.237,0.397,0.469,0.407c0.267,0.012,0.441-0.141,0.504-0.364l1.019-3.622l1.019,3.622
			C19.579,23.852,19.776,24,20,24h0.022c0.231-0.01,0.426-0.179,0.469-0.407l1.5-8c0.051-0.271-0.128-0.533-0.399-0.583
			C21.326,14.957,21.06,15.136,21.009,15.408z M27.5,15h-4c-0.276,0-0.5,0.224-0.5,0.5v8c0,0.276,0.224,0.5,0.5,0.5
			s0.5-0.224,0.5-0.5V20h2.167c0.276,0,0.5-0.224,0.5-0.5s-0.224-0.5-0.5-0.5H24v-3h3.5c0.276,0,0.5-0.224,0.5-0.5
			S27.776,15,27.5,15z"/>
	</g>
</g>
</svg>
