<?xml version="1.0" encoding="iso-8859-1"?>
<!-- Generator: Adobe Illustrator 19.0.0, SVG Export Plug-In . SVG Version: 6.00 Build 0)  -->
<svg version="1.1" id="Layer_1" xmlns="http://www.w3.org/2000/svg" xmlns:xlink="http://www.w3.org/1999/xlink" x="0px" y="0px"
	 viewBox="0 0 24 24" style="enable-background:new 0 0 24 24;" xml:space="preserve">
<g>
	<g>
		<path d="M12,5c1.381,0,2.5-1.119,2.5-2.5C14.5,1.119,13.381,0,12,0c-1.381,0-2.5,1.119-2.5,2.5C9.5,3.881,10.619,5,12,5z M14,6h-4
			C8.622,6,7.5,7.122,7.5,8.5v6C7.5,15.327,8.173,16,9,16c0.175,0,0.344-0.03,0.5-0.085V22.5c0,0.827,0.673,1.5,1.5,1.5
			c0.384,0,0.734-0.145,1-0.383C12.266,23.855,12.616,24,13,24c0.827,0,1.5-0.673,1.5-1.5v-6.585C14.656,15.97,14.825,16,15,16
			c0.827,0,1.5-0.673,1.5-1.5v-6C16.5,7.122,15.378,6,14,6z"/>
	</g>
</g>
</svg>
