<?xml version="1.0" encoding="iso-8859-1"?>
<!-- Generator: Adobe Illustrator 19.0.0, SVG Export Plug-In . SVG Version: 6.00 Build 0)  -->
<svg version="1.1" id="Layer_1" xmlns="http://www.w3.org/2000/svg" xmlns:xlink="http://www.w3.org/1999/xlink" x="0px" y="0px"
	 viewBox="0 0 24 24" style="enable-background:new 0 0 24 24;" xml:space="preserve">
<g>
	<g>
		<path d="M3,4.996h1.5v12.5c0,0.827,0.673,1.5,1.5,1.5h1c0.827,0,1.5-0.673,1.5-1.5v-12.5H10c0.196,0,0.374-0.114,0.455-0.293
			c0.082-0.179,0.05-0.389-0.079-0.536l-3.5-4c-0.19-0.217-0.563-0.217-0.753,0l-3.5,4c-0.129,0.147-0.16,0.357-0.079,0.536
			C2.626,4.882,2.804,4.996,3,4.996z M14,4.996h1.5v12.5c0,0.827,0.673,1.5,1.5,1.5h1c0.827,0,1.5-0.673,1.5-1.5v-12.5H21
			c0.196,0,0.374-0.114,0.455-0.293c0.082-0.179,0.05-0.389-0.079-0.536l-3.5-4c-0.19-0.217-0.563-0.217-0.753,0l-3.5,4
			c-0.129,0.147-0.16,0.357-0.079,0.536C13.626,4.882,13.804,4.996,14,4.996z M22,19.996H2c-0.827,0-1.5,0.673-1.5,1.5v1
			c0,0.827,0.673,1.5,1.5,1.5h20c0.827,0,1.5-0.673,1.5-1.5v-1C23.5,20.669,22.827,19.996,22,19.996z"/>
	</g>
</g>
</svg>
