<?xml version="1.0" encoding="iso-8859-1"?>
<!-- Generator: Adobe Illustrator 19.0.0, SVG Export Plug-In . SVG Version: 6.00 Build 0)  -->
<svg version="1.1" id="Layer_1" xmlns="http://www.w3.org/2000/svg" xmlns:xlink="http://www.w3.org/1999/xlink" x="0px" y="0px"
	 viewBox="0 0 30 30" style="enable-background:new 0 0 30 30;" xml:space="preserve">
<g>
	<g>
		<path d="M13,23c-0.276,0-0.5,0.224-0.5,0.5S12.724,24,13,24c0.276,0,0.5-0.224,0.5-0.5S13.276,23,13,23z M23.5,2.3
			c0-2.066-1.37-2.287-1.429-2.295c-0.047-0.007-0.095-0.007-0.142,0C21.871,0.013,20.5,0.234,20.5,2.3
			c0,1.65,0.899,4.031,1.021,4.347C21.513,6.681,21.5,6.713,21.5,6.75V9h-8V8.5C13.5,8.224,13.276,8,13,8s-0.5,0.224-0.5,0.5V9H12
			c-0.276,0-0.5,0.224-0.5,0.5S11.724,10,12,10h0.5v1H7c-0.276,0-0.5,0.224-0.5,0.5c0,2.317,1.222,4.349,3.052,5.5H7
			c-0.276,0-0.5,0.224-0.5,0.5v12C6.5,29.776,6.724,30,7,30h12c0.276,0,0.5-0.224,0.5-0.5v-12c0-0.276-0.224-0.5-0.5-0.5h-2.552
			c1.83-1.151,3.052-3.183,3.052-5.5c0-0.276-0.224-0.5-0.5-0.5h-5.5v-1H22c0.276,0,0.5-0.224,0.5-0.5V6.75
			c0-0.037-0.013-0.069-0.021-0.103C22.601,6.331,23.5,3.95,23.5,2.3z M18.5,18v11h-11V18H18.5z M18.478,12
			c-0.254,2.799-2.613,5-5.478,5s-5.225-2.201-5.478-5H18.478z M22,4.947c-0.247-0.82-0.5-1.854-0.5-2.647
			c0-0.91,0.343-1.193,0.498-1.275C22.16,1.11,22.5,1.395,22.5,2.3C22.5,3.093,22.247,4.127,22,4.947z M9,28h8
			c0.276,0,0.5-0.224,0.5-0.5v-6c0-0.276-0.224-0.5-0.5-0.5H9c-0.276,0-0.5,0.224-0.5,0.5v6C8.5,27.776,8.724,28,9,28z M9.5,22h7v5
			h-7V22z"/>
	</g>
</g>
</svg>
