<?xml version="1.0" encoding="iso-8859-1"?>
<!-- Generator: Adobe Illustrator 19.0.0, SVG Export Plug-In . SVG Version: 6.00 Build 0)  -->
<svg version="1.1" id="Layer_1" xmlns="http://www.w3.org/2000/svg" xmlns:xlink="http://www.w3.org/1999/xlink" x="0px" y="0px"
	 viewBox="0 0 30 30" style="enable-background:new 0 0 30 30;" xml:space="preserve">
<g>
	<g>
		<path d="M20.714,27c0.87,0,1.698-0.376,2.272-1.031c0.579-0.66,0.844-1.539,0.727-2.417l-2.21-14.913
			C21.305,7.134,20.015,6,18.503,6h-1.078V3h0.5c0.276,0,0.5-0.224,0.5-0.5S18.201,2,17.924,2h-1.592
			c0.056-0.157,0.092-0.324,0.092-0.5c0-0.827-0.673-1.5-1.5-1.5s-1.5,0.673-1.5,1.5c0,0.176,0.036,0.343,0.092,0.5h-1.592
			c-0.276,0-0.5,0.224-0.5,0.5s0.224,0.5,0.5,0.5h0.5v3h-1.04C9.904,6,8.638,7.134,8.445,8.632L6.286,23.56
			c-0.115,0.885,0.154,1.772,0.736,2.435C7.583,26.634,8.386,27,9.226,27h0.199v2h-0.5c-0.276,0-0.5,0.224-0.5,0.5
			s0.224,0.5,0.5,0.5h12c0.276,0,0.5-0.224,0.5-0.5s-0.224-0.5-0.5-0.5h-0.5v-2H20.714z M14.924,1c0.275,0,0.5,0.224,0.5,0.5
			S15.2,2,14.924,2s-0.5-0.224-0.5-0.5S14.649,1,14.924,1z M13.424,3h3v7.004l-1.499,0.011l-1.501-0.007V3z M13.264,11.027
			l1.661-0.012l1.667,0.008c1.917,4.824,2.33,6.625,2.33,7.277c0,1.881-1.531,3.422-3.499,3.653V20.5c0-0.276-0.224-0.5-0.5-0.5
			s-0.5,0.224-0.5,0.5v1.453c-1.969-0.23-3.501-1.77-3.501-3.653C10.924,17.374,11.715,14.921,13.264,11.027z M16.424,23v2h-3v-2
			H16.424z M9.424,25.5V26H9.226c-0.559,0-1.075-0.237-1.452-0.666C7.38,24.887,7.2,24.287,7.276,23.696l2.16-14.928
			C9.567,7.76,10.404,7,11.385,7h1.04v3.003L11.927,10h-0.003c-0.275,0-0.499,0.223-0.5,0.498c-0.001,0.275,0.222,0.501,0.497,0.502
			l0.28,0.001c-1.544,3.908-2.277,6.249-2.277,7.299c0,1.743,1.026,3.249,2.528,4.061c-0.013,0.045-0.028,0.09-0.028,0.139V25h-2.5
			C9.648,25,9.424,25.224,9.424,25.5z M19.424,29h-9v-3h9V29z M19.924,25h-2.5v-2.5c0-0.049-0.015-0.094-0.028-0.139
			c1.502-0.812,2.527-2.318,2.526-4.061c0-1.048-0.745-3.442-2.255-7.271l0.254,0.001h0.003c0.275,0,0.499-0.222,0.5-0.498
			c0.001-0.275-0.222-0.501-0.497-0.502l-0.503-0.003V7h1.078c1.012,0,1.876,0.761,2.011,1.777l2.21,14.913
			c0.078,0.586-0.099,1.176-0.488,1.619C21.851,25.748,21.297,26,20.714,26h-0.29v-0.5C20.424,25.224,20.201,25,19.924,25z"/>
	</g>
</g>
</svg>
