<?xml version="1.0" encoding="iso-8859-1"?>
<!-- Generator: Adobe Illustrator 19.0.0, SVG Export Plug-In . SVG Version: 6.00 Build 0)  -->
<svg version="1.1" id="Layer_1" xmlns="http://www.w3.org/2000/svg" xmlns:xlink="http://www.w3.org/1999/xlink" x="0px" y="0px"
	 viewBox="0 0 30 30" style="enable-background:new 0 0 30 30;" xml:space="preserve">
<g>
	<g>
		<path d="M20.352,5.883c-0.961-0.408-1.791-0.761-2.223-1.136l-0.158-0.137c-1.488-1.29-2.47-2.142-2.47-3.985
			c0-0.207-0.126-0.385-0.306-0.461c-0.06-0.026-0.126-0.04-0.196-0.04c-0.276,0-0.5,0.224-0.5,0.5c0,0.021-0.002,0.037-0.002,0.058
			c-0.021,1.802-0.995,2.652-2.466,3.928l-0.158,0.137c-0.432,0.375-1.262,0.727-2.223,1.136C6.231,7.336,0.51,9.767,0.502,18.607
			c0,0.006-0.003,0.011-0.003,0.017c0,0.276,0.213,0.545,0.489,0.545c0.233,0,0.413-0.132,0.466-0.339
			c0.017-0.038,0.023-0.08,0.03-0.122c0.158-0.201,1.218-0.584,3.015-0.584c1.813,0,2.879,0.391,3,0.5
			c0,0.276,0.213,0.545,0.489,0.545c0.235,0,0.415-0.134,0.466-0.343c0.016-0.036,0.02-0.076,0.027-0.116
			c0.153-0.2,1.215-0.586,3.017-0.586c1.813,0,2.879,0.391,3,0.5v2.191l-1.277-0.638c-0.155-0.078-0.34-0.069-0.486,0.022
			c-0.147,0.091-0.237,0.252-0.237,0.425v4c0,0.173,0.09,0.334,0.238,0.425c0.145,0.09,0.331,0.099,0.486,0.022l1.276-0.638V27.5
			c0,0.368-0.142,0.713-0.402,0.973c-0.259,0.26-0.605,0.403-0.972,0.403c-0.758,0-1.374-0.616-1.374-1.374
			c0-0.276-0.224-0.5-0.5-0.5s-0.5,0.224-0.5,0.5c0,1.309,1.065,2.374,2.374,2.374c0.635,0,1.231-0.247,1.68-0.696
			c0.448-0.449,0.695-1.046,0.694-1.68v-3.066l1.276,0.638c0.071,0.035,0.148,0.053,0.224,0.053c0.092,0,0.183-0.025,0.263-0.075
			c0.147-0.091,0.237-0.252,0.237-0.425v-4c0-0.173-0.09-0.334-0.239-0.425c-0.146-0.092-0.332-0.1-0.486-0.022l-1.275,0.638v-2.119
			c0.19-0.203,1.239-0.571,3-0.571c1.813,0,2.879,0.391,3,0.5c0,0.276,0.213,0.545,0.489,0.545c0.235,0,0.415-0.134,0.466-0.343
			c0.016-0.036,0.02-0.076,0.027-0.116c0.153-0.2,1.215-0.586,3.017-0.586c1.813,0,2.879,0.391,3,0.5c0,0.276,0.224,0.5,0.5,0.5
			c0.069,0,0.135-0.014,0.195-0.039c0.18-0.076,0.306-0.254,0.307-0.461C29.501,9.77,23.774,7.338,20.352,5.883z M14.499,23.315
			l-1,0.5v-2.382l1,0.5V23.315z M7.521,17.579c-1.095-0.433-2.751-0.454-3.022-0.454c-0.265,0-1.861,0.02-2.955,0.429
			c0.434-7.307,5.252-9.371,8.497-10.75c1.082-0.46,1.937-0.823,2.488-1.302l0.157-0.137c0.121-0.105,0.235-0.207,0.353-0.311
			c-0.217,0.286-0.541,0.568-0.941,0.909C10.449,7.363,7.744,9.683,7.521,17.579z M14.499,17.57c-1.095-0.425-2.731-0.446-3-0.446
			c-0.267,0-1.884,0.021-2.979,0.438c0.212-7.409,2.61-9.465,4.225-10.838c0.535-0.455,0.998-0.848,1.287-1.35l0.076-0.133
			c0.138-0.239,0.266-0.467,0.391-0.696V17.57z M16.499,21.434v2.382l-1-0.5v-1.382L16.499,21.434z M18.499,17.125
			c-0.269,0-1.905,0.021-3,0.446V4.545c0.125,0.229,0.253,0.457,0.391,0.696l0.076,0.133c0.289,0.502,0.752,0.895,1.287,1.35
			c1.615,1.372,4.013,3.428,4.225,10.838C20.383,17.145,18.766,17.125,18.499,17.125z M25.499,17.125
			c-0.27,0-1.927,0.021-3.022,0.454C22.254,9.683,19.549,7.363,17.9,5.963c-0.403-0.343-0.728-0.625-0.945-0.914
			c0.12,0.105,0.236,0.209,0.359,0.316l0.157,0.137c0.55,0.479,1.406,0.842,2.488,1.302c3.245,1.379,8.063,3.444,8.497,10.75
			C27.362,17.145,25.764,17.125,25.499,17.125z"/>
	</g>
</g>
</svg>
