<?xml version="1.0" encoding="iso-8859-1"?>
<!-- Generator: Adobe Illustrator 19.0.0, SVG Export Plug-In . SVG Version: 6.00 Build 0)  -->
<svg version="1.1" id="Layer_1" xmlns="http://www.w3.org/2000/svg" xmlns:xlink="http://www.w3.org/1999/xlink" x="0px" y="0px"
	 viewBox="0 0 30 30" style="enable-background:new 0 0 30 30;" xml:space="preserve">
<g>
	<g>
		<path d="M6,3.001c-1.379,0-2.5,1.122-2.5,2.5s1.121,2.5,2.5,2.5c1.379,0,2.5-1.122,2.5-2.5S7.379,3.001,6,3.001z M6,7.001
			c-0.827,0-1.5-0.673-1.5-1.5s0.673-1.5,1.5-1.5c0.827,0,1.5,0.673,1.5,1.5S6.827,7.001,6,7.001z M25.979,0.329
			c-0.908-0.36-1.959-0.426-3.121-0.194l-4.299,0.854C17.853,1.129,17.131,1.2,16.411,1.2h-2.822c-0.719,0-1.442-0.071-2.148-0.211
			L7.142,0.135C5.98-0.096,4.93-0.03,4.021,0.329C1.692,1.252,0.288,3.545,0.526,6.035c0.268,2.785,2.828,4.966,5.827,4.966H8.5
			c1.81,0,3.337,0.665,4.085,1.779c0.581,0.867,0.915,2.04,0.915,3.221v13.5c0,0.276,0.224,0.5,0.5,0.5h2c0.276,0,0.5-0.224,0.5-0.5
			v-0.5c0-0.143-0.061-0.278-0.167-0.373C16.118,28.437,16,28.036,16,27.501s0.118-0.936,0.333-1.127
			c0.106-0.095,0.167-0.23,0.167-0.373v-10c0-1.181,0.334-2.354,0.915-3.221c0.759-1.131,2.195-1.779,3.938-1.779H23.5
			c3.082,0,5.706-2.181,5.974-4.966C29.712,3.545,28.308,1.252,25.979,0.329z M28.479,5.939c-0.215,2.24-2.449,4.062-4.979,4.062
			h-2.147c-2.082,0-3.82,0.809-4.768,2.221c-0.689,1.027-1.085,2.405-1.085,3.779v9.8c-0.332,0.396-0.5,0.967-0.5,1.7
			c0,0.617,0.119,1.12,0.355,1.5H14.5v-13c0-1.374-0.396-2.752-1.085-3.779c-0.934-1.39-2.771-2.221-4.915-2.221H6.352
			c-2.49,0-4.612-1.785-4.831-4.062C1.325,3.896,2.477,2.015,4.389,1.258c0.716-0.284,1.6-0.332,2.557-0.144l4.299,0.854
			c0.771,0.153,1.559,0.231,2.344,0.231h2.822c0.785,0,1.573-0.078,2.344-0.231l4.299-0.854c0.957-0.189,1.841-0.141,2.557,0.144
			C27.523,2.016,28.675,3.897,28.479,5.939z M24,3.001c-1.379,0-2.5,1.122-2.5,2.5s1.121,2.5,2.5,2.5c1.379,0,2.5-1.122,2.5-2.5
			S25.379,3.001,24,3.001z M24,7.001c-0.827,0-1.5-0.673-1.5-1.5s0.673-1.5,1.5-1.5c0.827,0,1.5,0.673,1.5,1.5
			S24.827,7.001,24,7.001z"/>
	</g>
</g>
</svg>
