<?xml version="1.0" encoding="iso-8859-1"?>
<!-- Generator: Adobe Illustrator 19.0.0, SVG Export Plug-In . SVG Version: 6.00 Build 0)  -->
<svg version="1.1" id="Layer_1" xmlns="http://www.w3.org/2000/svg" xmlns:xlink="http://www.w3.org/1999/xlink" x="0px" y="0px"
	 viewBox="0 0 30 30" style="enable-background:new 0 0 30 30;" xml:space="preserve">
<g>
	<g>
		<path d="M30,3c0-1.654-1.346-3-3-3s-3,1.346-3,3c0,1.511,1.128,2.753,2.583,2.958c0.063,0.29,0.144,0.621,0.252,1.035
			c0.492,1.88,1.314,5.027,0.286,6.359C26.784,13.788,26.254,14,25.5,14c-1.954,0-2.777-2.596-3.73-5.603
			C20.521,4.461,19.106,0,14.5,0c-2.78,0-4.346,2.138-4.475,6H7.5C7.224,6,7,6.224,7,6.5S7.224,7,7.5,7H9v2.12
			C3.92,9.852,0,14.221,0,19.5C0,25.29,4.71,30,10.5,30S21,25.29,21,19.5c0-5.279-3.92-9.648-9-10.38V7h1.5
			C13.776,7,14,6.776,14,6.5S13.776,6,13.5,6h-2.491c0.081-2.389,0.788-5,3.491-5c3.874,0,5.115,3.914,6.316,7.7
			c1.028,3.239,1.998,6.3,4.684,6.3c1.069,0,1.881-0.349,2.413-1.036c1.329-1.721,0.463-5.033-0.109-7.224
			c-0.078-0.296-0.148-0.567-0.204-0.801C28.968,5.66,30,4.448,30,3z M10,7h1v2h-1V7z M20,19.5c0,5.238-4.262,9.5-9.5,9.5
			C5.262,29,1,24.738,1,19.5c0-5.238,4.262-9.5,9.5-9.5C15.738,10,20,14.262,20,19.5z M27,5c-1.103,0-2-0.897-2-2
			c0-1.103,0.897-2,2-2c1.103,0,2,0.897,2,2C29,4.103,28.103,5,27,5z M10,12.501c0,0.946-0.311,1.744-0.585,2.448
			C9.192,15.52,9,16.014,9,16.501c0,0.718,0.422,1.304,0.738,1.714C9.298,18.477,9,18.952,9,19.5c0,0.143,0.027,0.279,0.064,0.41
			c-0.517,0.066-1.269,0.172-1.797,0.7c-0.345,0.345-0.558,0.829-0.805,1.391c-0.303,0.692-0.648,1.477-1.316,2.145
			C5.049,24.244,5,24.372,5,24.5s0.048,0.257,0.146,0.354S5.372,25,5.5,25s0.256-0.049,0.352-0.147
			c0.669-0.669,1.454-1.013,2.145-1.317c0.562-0.246,1.047-0.459,1.391-0.804c0.528-0.528,0.635-1.28,0.7-1.797
			C10.22,20.973,10.356,21,10.5,21c0.827,0,1.5-0.673,1.5-1.5c0-0.548-0.298-1.023-0.738-1.285C11.579,17.805,12,17.219,12,16.501
			c0-0.487-0.192-0.981-0.415-1.552C11.311,14.245,11,13.447,11,12.501c0-0.276-0.224-0.5-0.5-0.5S10,12.225,10,12.501z
			 M8.682,22.026c-0.212,0.211-0.616,0.389-1.085,0.595c-0.126,0.055-0.257,0.112-0.392,0.174c0.061-0.135,0.118-0.266,0.174-0.391
			c0.206-0.469,0.384-0.874,0.596-1.086c0.265-0.265,0.713-0.348,1.109-0.402C9.03,21.312,8.947,21.76,8.682,22.026z M10.5,20
			c-0.275,0-0.5-0.224-0.5-0.5s0.225-0.5,0.5-0.5c0.275,0,0.5,0.224,0.5,0.5S10.775,20,10.5,20z M11,16.5
			c0,0.375-0.258,0.751-0.5,1.068C10.258,17.251,10,16.875,10,16.5c0-0.299,0.16-0.712,0.347-1.189
			c0.049-0.128,0.101-0.261,0.153-0.4c0.052,0.139,0.104,0.272,0.153,0.4C10.84,15.788,11,16.201,11,16.5z"/>
	</g>
</g>
</svg>
