<?xml version="1.0" encoding="iso-8859-1"?>
<!-- Generator: Adobe Illustrator 19.0.0, SVG Export Plug-In . SVG Version: 6.00 Build 0)  -->
<svg version="1.1" id="Layer_1" xmlns="http://www.w3.org/2000/svg" xmlns:xlink="http://www.w3.org/1999/xlink" x="0px" y="0px"
	 viewBox="0 0 30 30" style="enable-background:new 0 0 30 30;" xml:space="preserve">
<g>
	<g>
		<path d="M18.61,12.371c-0.571-1.122-1.11-2.182-1.11-2.879c0-0.919,0.855-2.084,1.611-3.111c0.745-1.014,1.389-1.89,1.389-2.674
			c0-0.981-1.06-1.48-2.084-1.962c-0.568-0.267-1.154-0.544-1.465-0.857c-1.1-1.112-2.679-1.234-3.902,0
			c-0.311,0.314-0.898,0.59-1.465,0.857C10.56,2.227,9.5,2.726,9.5,3.707c0,0.783,0.644,1.659,1.389,2.674
			C11.645,7.408,12.5,8.573,12.5,9.492c0,0.697-0.539,1.757-1.11,2.879c-0.699,1.372-1.49,2.926-1.763,4.583
			c-0.083,0.505,0.061,1.02,0.396,1.414c0.337,0.397,0.825,0.625,1.339,0.625H14.5v7H12c-0.276,0-0.5,0.224-0.5,0.5v0.5H11
			c-0.276,0-0.5,0.224-0.5,0.5v2c0,0.276,0.224,0.5,0.5,0.5h8c0.276,0,0.5-0.224,0.5-0.5v-2c0-0.276-0.224-0.5-0.5-0.5h-0.5v-0.5
			c0-0.276-0.224-0.5-0.5-0.5h-2.5v-7h3.139c0.513,0,1.002-0.228,1.338-0.625c0.335-0.393,0.479-0.909,0.396-1.414
			C20.099,15.297,19.308,13.743,18.61,12.371z M17.5,26.993v0.5c0,0.276,0.224,0.5,0.5,0.5h0.5v1h-7v-1H12
			c0.276,0,0.5-0.224,0.5-0.5v-0.5H17.5z M19.215,17.723c-0.147,0.173-0.357,0.272-0.577,0.272H15.01
			c-0.004,0-0.006-0.002-0.01-0.002s-0.006,0.002-0.01,0.002h-3.629c-0.22,0-0.43-0.099-0.577-0.272
			c-0.146-0.172-0.206-0.387-0.171-0.604c0.249-1.504,1.002-2.985,1.667-4.292c0.655-1.286,1.22-2.396,1.22-3.333
			c0-1.247-0.959-2.553-1.805-3.704C11.135,5.028,10.5,4.164,10.5,3.708c0-0.347,0.873-0.758,1.51-1.058
			c0.646-0.305,1.314-0.619,1.75-1.059c0.392-0.397,0.797-0.598,1.277-0.598c0.406,0,0.811,0.201,1.202,0.599
			c0.436,0.439,1.104,0.754,1.75,1.058c0.637,0.3,1.51,0.711,1.51,1.058c0,0.456-0.634,1.32-1.195,2.082
			c-0.846,1.152-1.805,2.457-1.805,3.704c0,0.937,0.566,2.047,1.22,3.333c0.665,1.307,1.418,2.788,1.667,4.292
			C19.421,17.337,19.361,17.551,19.215,17.723z"/>
	</g>
</g>
</svg>
