<?xml version="1.0" encoding="iso-8859-1"?>
<!-- Generator: Adobe Illustrator 19.0.0, SVG Export Plug-In . SVG Version: 6.00 Build 0)  -->
<svg version="1.1" id="Layer_1" xmlns="http://www.w3.org/2000/svg" xmlns:xlink="http://www.w3.org/1999/xlink" x="0px" y="0px"
	 viewBox="0 0 30 30" style="enable-background:new 0 0 30 30;" xml:space="preserve">
<g>
	<g>
		<path d="M22.5,19h-15C7.224,19,7,19.224,7,19.5S7.224,20,7.5,20h15c0.276,0,0.5-0.224,0.5-0.5S22.776,19,22.5,19z M29.947,29.277
			L26,21.383V18.5c0,0.276,0.224,0.5,0.5,0.5s0.5-0.224,0.5-0.5v-1c0-0.276-0.224-0.5-0.5-0.5H24V4.5
			c0-0.067-0.014-0.133-0.039-0.194c-0.008-0.019-0.023-0.033-0.034-0.05c-0.022-0.038-0.042-0.078-0.073-0.11l-4-4
			C19.83,0.122,19.798,0.108,19.77,0.09c-0.026-0.017-0.048-0.039-0.077-0.051C19.633,0.014,19.567,0,19.5,0h-13
			C6.224,0,6,0.224,6,0.5V17H1.505c-0.002,0-0.003-0.001-0.005-0.001S1.497,17,1.495,17H0.5C0.224,17,0,17.224,0,17.5
			S0.224,18,0.5,18H1v1.381l-0.947,1.895c-0.123,0.247-0.023,0.547,0.224,0.671C0.349,21.983,0.425,22,0.5,22
			c0.183,0,0.359-0.101,0.447-0.277l1-2C1.982,19.653,2,19.577,2,19.499V18h2v3.383l-3.947,7.894
			c-0.078,0.154-0.069,0.339,0.022,0.486C0.166,29.91,0.327,30,0.5,30h29c0.173,0,0.334-0.09,0.425-0.237
			S30.025,29.432,29.947,29.277z M20,1.707L22.293,4H20V1.707z M7,1h12v3.5C19,4.776,19.224,5,19.5,5H23v12H7V1z M5,18h20v3H5V18z
			 M1.309,29l3.5-7h20.382l3.5,7H1.309z M23,26.5c0,0.276,0.224,0.5,0.5,0.5h2c0.276,0,0.5-0.224,0.5-0.5S25.776,26,25.5,26h-2
			C23.224,26,23,26.224,23,26.5z M21.5,25h2c0.276,0,0.5-0.224,0.5-0.5S23.776,24,23.5,24h-2c-0.276,0-0.5,0.224-0.5,0.5
			S21.224,25,21.5,25z M20.5,12h-11C9.224,12,9,12.224,9,12.5S9.224,13,9.5,13h11c0.276,0,0.5-0.224,0.5-0.5S20.776,12,20.5,12z
			 M20.5,8h-11C9.224,8,9,8.224,9,8.5S9.224,9,9.5,9h11C20.776,9,21,8.776,21,8.5S20.776,8,20.5,8z M14,24.5
			c0-0.276-0.224-0.5-0.5-0.5h-2c-0.276,0-0.5,0.224-0.5,0.5s0.224,0.5,0.5,0.5h2C13.776,25,14,24.776,14,24.5z M17.5,26h-5
			c-0.276,0-0.5,0.224-0.5,0.5s0.224,0.5,0.5,0.5h5c0.276,0,0.5-0.224,0.5-0.5S17.776,26,17.5,26z M21.5,26h-2
			c-0.276,0-0.5,0.224-0.5,0.5s0.224,0.5,0.5,0.5h2c0.276,0,0.5-0.224,0.5-0.5S21.776,26,21.5,26z M18.5,24h-2
			c-0.276,0-0.5,0.224-0.5,0.5s0.224,0.5,0.5,0.5h2c0.276,0,0.5-0.224,0.5-0.5S18.776,24,18.5,24z M6.5,26h-2
			C4.224,26,4,26.224,4,26.5S4.224,27,4.5,27h2C6.776,27,7,26.776,7,26.5S6.776,26,6.5,26z M6.5,25h2C8.776,25,9,24.776,9,24.5
			S8.776,24,8.5,24h-2C6.224,24,6,24.224,6,24.5S6.224,25,6.5,25z M10.5,26h-2C8.224,26,8,26.224,8,26.5S8.224,27,8.5,27h2
			c0.276,0,0.5-0.224,0.5-0.5S10.776,26,10.5,26z"/>
	</g>
</g>
</svg>
