<?xml version="1.0" encoding="iso-8859-1"?>
<!-- Generator: Adobe Illustrator 19.0.0, SVG Export Plug-In . SVG Version: 6.00 Build 0)  -->
<svg version="1.1" id="Layer_1" xmlns="http://www.w3.org/2000/svg" xmlns:xlink="http://www.w3.org/1999/xlink" x="0px" y="0px"
	 viewBox="0 0 30 30" style="enable-background:new 0 0 30 30;" xml:space="preserve">
<g>
	<g>
		<path d="M11.114,0.385C7.305,1.298,4.083,3.713,2.102,6.973h5.355C8.268,4.067,9.55,1.763,11.114,0.385z M19.041,20.474
			c0.067-0.094,0.1-0.209,0.092-0.324c-0.009-0.124-0.014-0.237-0.014-0.329c0-1.189,0.431-2.602,2.274-3.119
			c0.044-0.568,0.073-1.143,0.083-1.728h-6.488v5.948h3.821C18.869,20.765,18.942,20.613,19.041,20.474z M20.711,7.973h-5.723v6
			h6.487C21.438,11.835,21.167,9.799,20.711,7.973z M7.208,7.973H1.544c-0.916,1.817-1.458,3.848-1.532,6H6.5
			C6.534,11.823,6.781,9.8,7.208,7.973z M22.474,13.973h6.487c-0.074-2.152-0.615-4.183-1.532-6h-5.663
			C22.193,9.8,22.44,11.823,22.474,13.973z M21.518,6.973h5.355c-1.981-3.259-5.203-5.675-9.012-6.588
			C19.424,1.763,20.706,4.067,21.518,6.973z M14.987,0.027v6.946h5.446C19.273,3.099,17.263,0.38,14.987,0.027z M22.414,16.517
			c0.065-0.005,0.128-0.023,0.186-0.053c0.953-0.491,1.869-0.491,2.261-0.491c1.651,0,2.524,0.758,2.964,1.395
			c0.115,0.165,0.318,0.242,0.515,0.204c0.197-0.042,0.35-0.198,0.387-0.396c0.141-0.745,0.21-1.48,0.236-2.202h-6.488
			C22.466,15.496,22.446,16.01,22.414,16.517z M8.542,6.973h5.446V0.027C11.711,0.38,9.703,3.099,8.542,6.973z M18.982,25.479
			c0.205-0.362,0.398-0.751,0.582-1.158c-0.026-0.043-0.045-0.092-0.084-0.126c-0.371-0.322-0.608-0.768-0.668-1.253l-0.114-0.918
			h-3.71v6.894c0.377-0.058,0.747-0.182,1.107-0.365c0.003-0.01,0.013-0.015,0.015-0.025C16.453,27.052,17.547,25.902,18.982,25.479
			z M7.5,13.973h6.487v-6H8.265C7.808,9.799,7.537,11.835,7.5,13.973z M27.586,26.395l-1.86-0.465l-0.103-0.412
			c0.486-0.521,0.827-1.197,0.958-1.898c0.313-0.144,0.544-0.441,0.59-0.803l0.13-1.043c0.036-0.288-0.053-0.578-0.243-0.797
			c-0.072-0.082-0.155-0.151-0.247-0.206l0.036-0.733l0.135-0.135c0.289-0.308,0.68-0.966,0.054-1.922
			c-0.301-0.46-0.923-1.008-2.175-1.008c-0.376,0-1.231,0-2.052,0.524c-2.38,0.073-2.69,1.275-2.69,2.323
			c0,0.207,0.04,0.614,0.076,0.932c-0.102,0.057-0.194,0.13-0.272,0.219c-0.194,0.22-0.284,0.512-0.248,0.802l0.13,1.045
			c0.047,0.372,0.291,0.677,0.652,0.814c0.129,0.673,0.452,1.326,0.909,1.837L21.25,25.93l-1.859,0.465
			c-1.416,0.353-2.404,1.619-2.404,3.078c0,0.276,0.224,0.5,0.5,0.5h12c0.276,0,0.5-0.225,0.5-0.501
			C29.987,28.013,29,26.748,27.586,26.395z M8.253,20.921h5.735v-5.948H7.5C7.537,17.091,7.805,19.108,8.253,20.921z M7.472,22.025
			H2.133c1.984,3.233,5.192,5.628,8.981,6.536C9.56,27.192,8.286,24.906,7.472,22.025z M6.5,14.973H0.013
			c0.073,2.132,0.606,4.144,1.506,5.948h5.675C6.776,19.108,6.534,17.102,6.5,14.973z M13.987,28.919v-6.894H8.557
			C9.721,25.872,11.722,28.568,13.987,28.919z"/>
	</g>
</g>
</svg>
