<?xml version="1.0" encoding="iso-8859-1"?>
<!-- Generator: Adobe Illustrator 19.0.0, SVG Export Plug-In . SVG Version: 6.00 Build 0)  -->
<svg version="1.1" id="Layer_1" xmlns="http://www.w3.org/2000/svg" xmlns:xlink="http://www.w3.org/1999/xlink" x="0px" y="0px"
	 viewBox="0 0 30 30" style="enable-background:new 0 0 30 30;" xml:space="preserve">
<g>
	<g>
		<path d="M15,0C6.729,0,0,6.729,0,15s6.729,15,15,15s15-6.729,15-15S23.271,0,15,0z M24.189,25.537l-3.712-1.611
			c-1.266-0.517-1.827-2.472-1.936-3.211c0.866-0.771,1.68-1.942,1.68-2.992c0-0.547,0.211-0.634,0.186-0.625
			c0.156-0.038,0.284-0.148,0.344-0.297c0.062-0.152,0.604-1.506,0.604-2.412c0-0.042-0.005-0.083-0.016-0.124
			c-0.061-0.241-0.235-0.597-0.551-0.792V10.5c0-1.786-0.557-2.504-1.142-2.922C19.551,6.743,18.638,5,15.188,5
			c-3.47,0-5.6,3.204-5.6,5.5v2.973c-0.316,0.195-0.49,0.551-0.551,0.792c-0.01,0.041-0.016,0.082-0.016,0.124
			c0,0.905,0.542,2.26,0.604,2.412c0.061,0.148,0.157,0.25,0.313,0.288c0.009,0.003,0.217,0.099,0.217,0.634
			c0,1.05,0.813,2.221,1.68,2.992c-0.108,0.739-0.669,2.694-1.93,3.209l-4.087,1.611c-0.002,0.001-0.002,0.003-0.004,0.003
			C2.87,22.969,1,19.203,1,15C1,7.28,7.28,1,15,1c7.72,0,14,6.28,14,14C29,19.202,27.13,22.969,24.189,25.537z"/>
	</g>
</g>
</svg>
