<?xml version="1.0" encoding="iso-8859-1"?>
<!-- Generator: Adobe Illustrator 19.0.0, SVG Export Plug-In . SVG Version: 6.00 Build 0)  -->
<svg version="1.1" id="Layer_1" xmlns="http://www.w3.org/2000/svg" xmlns:xlink="http://www.w3.org/1999/xlink" x="0px" y="0px"
	 viewBox="0 0 30 30" style="enable-background:new 0 0 30 30;" xml:space="preserve">
<g>
	<g>
		<path d="M18.44,20.478l-3.55-0.869l-0.291-1.137c0.946-0.925,1.594-2.188,1.793-3.485c0.532-0.156,0.942-0.611,1.016-1.178
			l0.233-1.827c0.05-0.394-0.072-0.793-0.335-1.094c-0.152-0.175-0.344-0.308-0.556-0.392l0.082-1.665L17.169,8.5
			c0.538-0.56,0.983-1.519,0.056-2.906c-0.705-1.057-1.901-1.592-3.556-1.592c-0.649,0-2.145,0-3.541,0.916
			C6.135,5.001,5.592,6.829,5.592,8.611c0,0.403,0.098,1.296,0.164,1.857c-0.238,0.08-0.454,0.221-0.622,0.413
			c-0.267,0.303-0.39,0.705-0.339,1.102l0.232,1.827c0.078,0.606,0.54,1.084,1.126,1.206c0.198,1.246,0.813,2.467,1.703,3.375
			L7.545,19.61l-3.551,0.869C1.641,21.056,0,23.12,0,25.5C0,25.776,0.224,26,0.5,26l21.437,0.001c0.133,0,0.26-0.054,0.354-0.147
			s0.146-0.222,0.146-0.355C22.436,23.119,20.793,21.054,18.44,20.478z M26.006,20.478l-3.55-0.87l-0.291-1.137
			c0.945-0.925,1.594-2.188,1.793-3.485c0.532-0.156,0.942-0.611,1.016-1.179l0.232-1.826c0.051-0.394-0.071-0.793-0.333-1.095
			c-0.152-0.175-0.344-0.309-0.557-0.392l0.082-1.666l0.337-0.33c0.538-0.56,0.984-1.519,0.056-2.907
			c-0.706-1.056-1.902-1.592-3.556-1.592c-0.614,0-1.432,0.037-2.308,0.328c-0.171,0.057-0.299,0.201-0.333,0.378l-0.16,0.812
			c-0.02,0.098-0.009,0.199,0.029,0.292c0.518,1.225,0.33,2.41-0.527,3.335c-0.08,0.086-0.127,0.198-0.133,0.315l-0.013,0.259
			c-0.008,0.142,0.046,0.28,0.147,0.38c0.041,0.041,0.082,0.084,0.122,0.13c0.45,0.517,0.659,1.201,0.573,1.876l-0.234,1.83
			c-0.083,0.653-0.44,1.252-0.979,1.644c-0.093,0.067-0.159,0.165-0.189,0.275c-0.219,0.822-0.594,1.627-1.086,2.331
			c-0.094,0.135-0.116,0.309-0.058,0.463c0.058,0.154,0.188,0.27,0.349,0.31l2.242,0.549c2.802,0.686,4.758,3.15,4.758,5.994
			c0,0.276,0.224,0.5,0.5,0.5H29.5c0.276,0,0.5-0.226,0.5-0.502C30.001,23.119,28.358,21.054,26.006,20.478z"/>
	</g>
</g>
</svg>
