<?xml version="1.0" encoding="iso-8859-1"?>
<!-- Generator: Adobe Illustrator 19.0.0, SVG Export Plug-In . SVG Version: 6.00 Build 0)  -->
<svg version="1.1" id="Layer_1" xmlns="http://www.w3.org/2000/svg" xmlns:xlink="http://www.w3.org/1999/xlink" x="0px" y="0px"
	 viewBox="0 0 30 30" style="enable-background:new 0 0 30 30;" xml:space="preserve">
<g>
	<g>
		<path d="M3.5,5h-3C0.224,5,0,5.224,0,5.5v24C0,29.776,0.224,30,0.5,30h3C3.776,30,4,29.776,4,29.5V28H2.5
			C2.224,28,2,27.776,2,27.5S2.224,27,2.5,27H4v-3H2.5C2.224,24,2,23.776,2,23.5S2.224,23,2.5,23H4v-3H2.5C2.224,20,2,19.776,2,19.5
			S2.224,19,2.5,19H4v-3H2.5C2.224,16,2,15.776,2,15.5S2.224,15,2.5,15H4v-3H2.5C2.224,12,2,11.776,2,11.5S2.224,11,2.5,11H4V8H2.5
			C2.224,8,2,7.776,2,7.5S2.224,7,2.5,7H4V5.5C4,5.224,3.776,5,3.5,5z M29.504,5.043l-3-0.026c-0.108,0.019-0.262,0.051-0.355,0.145
			c-0.095,0.094-0.148,0.222-0.148,0.355V7h1.5c0.276,0,0.5,0.224,0.5,0.5S27.777,8,27.501,8H26v3h1.5c0.276,0,0.5,0.224,0.5,0.5
			S27.776,12,27.5,12H26v3h1.5c0.276,0,0.5,0.224,0.5,0.5S27.776,16,27.5,16H26v3h1.5c0.276,0,0.5,0.224,0.5,0.5S27.776,20,27.5,20
			H26v3h1.5c0.276,0,0.5,0.224,0.5,0.5S27.776,24,27.5,24H26v3h1.5c0.276,0,0.5,0.224,0.5,0.5S27.776,28,27.5,28H26v1.5
			c0,0.276,0.224,0.5,0.5,0.5h3c0.276,0,0.5-0.224,0.5-0.5V5.543C30,5.269,29.778,5.046,29.504,5.043z M24.603,2.011l-9.5-2
			c-0.066-0.015-0.139-0.015-0.205,0l-9.5,2C5.167,2.06,5.001,2.264,5.001,2.5v27c0,0.276,0.224,0.5,0.5,0.5h4.5v-4.5
			c0-0.276,0.224-0.5,0.5-0.5h9c0.276,0,0.5,0.224,0.5,0.5V30h4.5c0.276,0,0.5-0.224,0.5-0.5v-27C25,2.264,24.834,2.06,24.603,2.011
			z M12,23.5c0,0.276-0.224,0.5-0.5,0.5h-3C8.224,24,8,23.776,8,23.5v-3C8,20.224,8.224,20,8.5,20h3c0.276,0,0.5,0.224,0.5,0.5V23.5
			z M12,18.5c0,0.276-0.224,0.5-0.5,0.5h-3C8.224,19,8,18.776,8,18.5v-3C8,15.224,8.224,15,8.5,15h3c0.276,0,0.5,0.224,0.5,0.5V18.5
			z M12,13.5c0,0.276-0.224,0.5-0.5,0.5h-3C8.224,14,8,13.776,8,13.5v-3C8,10.224,8.224,10,8.5,10h3c0.276,0,0.5,0.224,0.5,0.5V13.5
			z M12,8.5C12,8.776,11.776,9,11.5,9h-3C8.224,9,8,8.776,8,8.5v-3C8,5.224,8.224,5,8.5,5h3C11.776,5,12,5.224,12,5.5V8.5z M17,23.5
			c0,0.276-0.224,0.5-0.5,0.5h-3c-0.276,0-0.5-0.224-0.5-0.5v-3c0-0.276,0.224-0.5,0.5-0.5h3c0.276,0,0.5,0.224,0.5,0.5V23.5z
			 M17,18.5c0,0.276-0.224,0.5-0.5,0.5h-3c-0.276,0-0.5-0.224-0.5-0.5v-3c0-0.276,0.224-0.5,0.5-0.5h3c0.276,0,0.5,0.224,0.5,0.5
			V18.5z M17,13.5c0,0.276-0.224,0.5-0.5,0.5h-3c-0.276,0-0.5-0.224-0.5-0.5v-3c0-0.276,0.224-0.5,0.5-0.5h3
			c0.276,0,0.5,0.224,0.5,0.5V13.5z M17,8.5C17,8.776,16.776,9,16.5,9h-3C13.224,9,13,8.776,13,8.5v-3C13,5.224,13.224,5,13.5,5h3
			C16.776,5,17,5.224,17,5.5V8.5z M22,23.5c0,0.276-0.224,0.5-0.5,0.5h-3c-0.276,0-0.5-0.224-0.5-0.5v-3c0-0.276,0.224-0.5,0.5-0.5
			h3c0.276,0,0.5,0.224,0.5,0.5V23.5z M22,18.5c0,0.276-0.224,0.5-0.5,0.5h-3c-0.276,0-0.5-0.224-0.5-0.5v-3
			c0-0.276,0.224-0.5,0.5-0.5h3c0.276,0,0.5,0.224,0.5,0.5V18.5z M22,13.5c0,0.276-0.224,0.5-0.5,0.5h-3c-0.276,0-0.5-0.224-0.5-0.5
			v-3c0-0.276,0.224-0.5,0.5-0.5h3c0.276,0,0.5,0.224,0.5,0.5V13.5z M22,8.5C22,8.776,21.776,9,21.5,9h-3C18.224,9,18,8.776,18,8.5
			v-3C18,5.224,18.224,5,18.5,5h3C21.776,5,22,5.224,22,5.5V8.5z"/>
	</g>
</g>
</svg>
