<?xml version="1.0" encoding="iso-8859-1"?>
<!-- Generator: Adobe Illustrator 19.0.0, SVG Export Plug-In . SVG Version: 6.00 Build 0)  -->
<svg version="1.1" id="Layer_1" xmlns="http://www.w3.org/2000/svg" xmlns:xlink="http://www.w3.org/1999/xlink" x="0px" y="0px"
	 viewBox="0 0 30 30" style="enable-background:new 0 0 30 30;" xml:space="preserve">
<g>
	<g>
		<path d="M22.752,22H7.228c-0.254,0.343-0.498,0.678-0.73,1h16.985C23.251,22.677,23.006,22.343,22.752,22z M21.889,20.841
			c-0.198-0.265-0.412-0.552-0.627-0.841H8.718c-0.215,0.289-0.429,0.576-0.627,0.841C8.051,20.893,8.012,20.947,7.972,21h14.036
			C21.968,20.947,21.929,20.893,21.889,20.841z M19.476,17.385c-0.196-0.829-1.362-3.975-2.135-4.74
			c-0.918-0.909-0.873-4.359-0.856-5.659L16.49,6.5c0-0.61-0.189-1.197-0.408-1.877C15.805,3.763,15.49,2.787,15.49,1.5v-1
			c0-0.276-0.224-0.5-0.5-0.5s-0.5,0.224-0.5,0.5v1c0,1.288-0.314,2.263-0.592,3.123C13.679,5.302,13.49,5.89,13.49,6.5l0.004,0.485
			c0.017,1.3,0.062,4.75-0.856,5.659c-0.772,0.766-1.938,3.911-2.134,4.737C10.445,17.588,10,18.24,9.451,18.998h11.077
			C19.98,18.242,19.535,17.589,19.476,17.385z M29.328,29.114c-0.297-0.393-0.732-0.755-1.219-1.114H1.871
			c-0.529,0.391-0.997,0.784-1.293,1.217c-0.105,0.153-0.117,0.352-0.03,0.517C0.634,29.898,0.805,30,0.99,30h28.02
			c0.276,0,0.5-0.224,0.5-0.5C29.51,29.344,29.439,29.206,29.328,29.114z M24.183,24H5.797c-0.259,0.385-0.468,0.722-0.617,1h19.619
			C24.651,24.721,24.442,24.385,24.183,24z M25.452,26H4.528c-0.331,0.338-0.768,0.672-1.235,1h23.393
			C26.221,26.672,25.783,26.338,25.452,26z"/>
	</g>
</g>
</svg>
