<?xml version="1.0" encoding="iso-8859-1"?>
<!-- Generator: Adobe Illustrator 19.0.0, SVG Export Plug-In . SVG Version: 6.00 Build 0)  -->
<svg version="1.1" id="Layer_1" xmlns="http://www.w3.org/2000/svg" xmlns:xlink="http://www.w3.org/1999/xlink" x="0px" y="0px"
	 viewBox="0 0 30 30" style="enable-background:new 0 0 30 30;" xml:space="preserve">
<g>
	<g>
		<path d="M29.406,0.509C25.99,1.165,20.963,1.494,15.732,1.5H15.42C10.18,1.493,4.764,1.162,0.577,0.506
			C0.309,0.467,0.049,0.649,0.006,0.923C-0.037,1.195,0.15,1.451,0.423,1.494C0.931,1.574,1.459,1.648,2,1.718V5
			c0,0.276,0.224,0.5,0.5,0.5h2.478L4.001,28.979c-0.005,0.136,0.045,0.269,0.139,0.366c0.095,0.099,0.226,0.154,0.361,0.154h5
			c0.008,0.001,0.015,0.001,0.02,0c0.276,0,0.5-0.224,0.5-0.5c0-0.056-0.009-0.11-0.025-0.16L9.231,10.5h3.77V13
			c0,0.276,0.224,0.5,0.5,0.5h3c0.276,0,0.5-0.224,0.5-0.5v-2.5h3.77l-0.77,18.479c-0.005,0.136,0.045,0.269,0.139,0.366
			c0.095,0.099,0.226,0.154,0.361,0.154h5c0.008,0.001,0.016,0.001,0.02,0c0.276,0,0.5-0.224,0.5-0.5c0-0.056-0.009-0.11-0.025-0.16
			L25.023,5.5h2.478c0.276,0,0.5-0.224,0.5-0.5V1.755c0.56-0.082,1.098-0.169,1.595-0.264c0.271-0.052,0.448-0.314,0.396-0.586
			C29.94,0.633,29.68,0.459,29.406,0.509z M20.812,9.5H9.189l-0.167-4h11.957L20.812,9.5z"/>
	</g>
</g>
</svg>
