<?xml version="1.0" encoding="iso-8859-1"?>
<!-- Generator: Adobe Illustrator 19.0.0, SVG Export Plug-In . SVG Version: 6.00 Build 0)  -->
<svg version="1.1" id="Layer_1" xmlns="http://www.w3.org/2000/svg" xmlns:xlink="http://www.w3.org/1999/xlink" x="0px" y="0px"
	 viewBox="0 0 30 30" style="enable-background:new 0 0 30 30;" xml:space="preserve">
<g>
	<g>
		<path d="M0,17.427V26.5C0,26.776,0.224,27,0.5,27h6.025c0.265,0,0.483-0.206,0.499-0.471C7.271,22.308,10.773,19,15,19
			s7.729,3.308,7.976,7.529C22.992,26.794,23.21,27,23.475,27H29.5c0.276,0,0.5-0.224,0.5-0.5v-9.075l-15-2.418L0,17.427z
			 M29.632,10.018L19,7.118V5.5c0-0.18-0.096-0.345-0.252-0.435l-3.5-2c-0.154-0.088-0.342-0.088-0.496,0l-3.5,2
			C11.096,5.156,11,5.32,11,5.5v1.618L0.368,10.018C0.151,10.078,0,10.274,0,10.5v5.913l3-0.484V13c0-1.103,0.897-2,2-2
			c1.103,0,2,0.897,2,2v2.284l1-0.161V12c0-1.103,0.897-2,2-2c1.103,0,2,0.897,2,2v2.478l1-0.161V11c0-1.103,0.897-2,2-2
			c1.103,0,2,0.897,2,2v3.317l1,0.161V12c0-1.103,0.897-2,2-2c1.103,0,2,0.897,2,2v3.123l1,0.161V13c0-1.103,0.897-2,2-2
			c1.103,0,2,0.897,2,2v2.929l3,0.484V10.5C30,10.274,29.849,10.078,29.632,10.018z"/>
	</g>
</g>
</svg>
