<?xml version="1.0" encoding="iso-8859-1"?>
<!-- Generator: Adobe Illustrator 19.0.0, SVG Export Plug-In . SVG Version: 6.00 Build 0)  -->
<svg version="1.1" id="Layer_1" xmlns="http://www.w3.org/2000/svg" xmlns:xlink="http://www.w3.org/1999/xlink" x="0px" y="0px"
	 viewBox="0 0 30 30" style="enable-background:new 0 0 30 30;" xml:space="preserve">
<g>
	<g>
		<path d="M28,11c0-0.003-0.002-0.006-0.002-0.009c-0.001-0.069-0.014-0.138-0.045-0.204L24,2.388V1.5C24,0.533,23.467,0,22.5,0h-15
			C6.533,0,6,0.533,6,1.5v0.888l-3.953,8.399c-0.031,0.066-0.044,0.135-0.045,0.204C2.002,10.994,2,10.997,2,11
			c0,0.912,0.418,1.72,1.062,2.271C3.026,13.341,3,13.416,3,13.5v16C3,29.776,3.224,30,3.5,30h23c0.276,0,0.5-0.224,0.5-0.5V13.389
			c0-0.052-0.015-0.099-0.029-0.145C27.596,12.694,28,11.897,28,11z M11,21H4v-7.184C4.314,13.928,4.648,14,5,14
			c1.044,0,1.962-0.537,2.5-1.348C8.038,13.463,8.956,14,10,14c0.352,0,0.686-0.072,1-0.184V21z M18,29h-6V13.22
			c0.188-0.17,0.36-0.356,0.5-0.567c0.538,0.811,1.456,1.348,2.5,1.348s1.962-0.537,2.5-1.348c0.14,0.212,0.312,0.398,0.5,0.567V29z
			 M7,2V1.5C7,1.084,7.084,1,7.5,1h15C22.916,1,23,1.084,23,1.5V2H7z M26,21h-7v-7.184C19.314,13.928,19.648,14,20,14
			c1.044,0,1.962-0.537,2.5-1.348C23.038,13.463,23.956,14,25,14c0.352,0,0.686-0.072,1-0.184V21z"/>
	</g>
</g>
</svg>
