<?xml version="1.0" encoding="iso-8859-1"?>
<!-- Generator: Adobe Illustrator 19.0.0, SVG Export Plug-In . SVG Version: 6.00 Build 0)  -->
<svg version="1.1" id="Layer_1" xmlns="http://www.w3.org/2000/svg" xmlns:xlink="http://www.w3.org/1999/xlink" x="0px" y="0px"
	 viewBox="0 0 24 24" style="enable-background:new 0 0 24 24;" xml:space="preserve">
<g>
	<g>
		<path d="M21,0.5H10C8.622,0.5,7.5,1.622,7.5,3v7c0,0.276,0.224,0.5,0.5,0.5h1.172c0.202,0,0.385-0.122,0.462-0.309
			c0.078-0.187,0.035-0.402-0.108-0.545L8.939,9.061C8.656,8.777,8.5,8.4,8.5,8s0.156-0.777,0.44-1.061
			c0.565-0.567,1.554-0.567,2.121,0l4,4C15.344,11.223,15.5,11.599,15.5,12s-0.156,0.777-0.439,1.061l-4,4
			c-0.565,0.567-1.554,0.567-2.121,0C8.656,16.777,8.5,16.4,8.5,16s0.156-0.777,0.439-1.061l0.586-0.586
			c0.143-0.143,0.186-0.358,0.108-0.545C9.557,13.622,9.374,13.5,9.172,13.5H8c-0.276,0-0.5,0.224-0.5,0.5v7
			c0,1.378,1.122,2.5,2.5,2.5h11c1.378,0,2.5-1.122,2.5-2.5V3C23.5,1.622,22.378,0.5,21,0.5z M9.646,15.646
			c-0.195,0.195-0.195,0.512,0,0.707C9.744,16.451,9.872,16.5,10,16.5s0.256-0.049,0.354-0.146l4-4c0.195-0.195,0.195-0.512,0-0.707
			l-4-4c-0.195-0.195-0.512-0.195-0.707,0c-0.195,0.195-0.195,0.512,0,0.707l3.146,3.146H1c-0.276,0-0.5,0.224-0.5,0.5
			s0.224,0.5,0.5,0.5h11.793L9.646,15.646z"/>
	</g>
</g>
</svg>
