<?xml version="1.0" encoding="iso-8859-1"?>
<!-- Generator: Adobe Illustrator 19.0.0, SVG Export Plug-In . SVG Version: 6.00 Build 0)  -->
<svg version="1.1" id="Layer_1" xmlns="http://www.w3.org/2000/svg" xmlns:xlink="http://www.w3.org/1999/xlink" x="0px" y="0px"
	 viewBox="0 0 24 24" style="enable-background:new 0 0 24 24;" xml:space="preserve">
<g>
	<g>
		<path d="M12.88,4.047c0.04-0.01,0.078-0.024,0.12-0.024c0.299,0,0.455-0.146,0.903-0.606l0.243-0.247
			c0.679-0.679,1.509-0.059,2.057,0.44C16.344,3.155,16.5,2.642,16.5,2.023c0-1.196-0.804-2-2-2c-1.145,0-2,1.056-2,2
			c0,0.377,0.109,0.837,0.226,1.325C12.779,3.571,12.832,3.81,12.88,4.047z M7.837,3.746c0.034-0.033,0.072-0.068,0.102-0.097
			c0.422-0.414,1.208-1.187,1.915-0.48l0.243,0.247C10.545,3.877,10.701,4.023,11,4.023c0.043,0,0.081,0.014,0.12,0.024
			c0.048-0.237,0.101-0.476,0.154-0.7C11.391,2.86,11.5,2.4,11.5,2.023c0-0.944-0.855-2-2-2c-1.196,0-2,0.804-2,2
			c0,0.629,0.161,1.15,0.304,1.609C7.816,3.673,7.825,3.707,7.837,3.746z M23.898,6.22c-0.095-0.124-0.242-0.197-0.398-0.197h-1.838
			c-1.279,0-2.455,0.699-3.068,1.825c-0.113,0.207-0.066,0.465,0.112,0.619c0.325,0.279,0.636,0.59,0.873,0.979
			c0.08-0.116,0.163-0.23,0.208-0.367c0.196-0.587,0.546-1.045,1.007-1.353l1.507-0.662c0.256-0.109,0.548,0.007,0.658,0.26
			c0.109,0.253-0.007,0.548-0.26,0.658L21.27,8.601c-0.198,0.142-0.408,0.417-0.513,0.731c-0.165,0.493-0.441,0.889-0.796,1.187
			C19.985,10.677,20,10.843,20,11.023c0,0.469-0.057,0.929-0.168,1.368c-0.037,0.144,0.024,0.298,0.111,0.418
			s0.255,0.197,0.402,0.208c0.051,0.003,0.101,0.006,0.154,0.006c1.49,0,2.821-3.989,3.481-6.366
			C24.023,6.506,23.992,6.345,23.898,6.22z M5.406,7.848C4.793,6.722,3.617,6.023,2.338,6.023H0.5c-0.156,0-0.304,0.073-0.398,0.197
			C0.008,6.345-0.023,6.506,0.019,6.657c0.66,2.377,1.991,6.366,3.481,6.366c0.054,0,0.104-0.003,0.207-0.01
			c0.15-0.007,0.289-0.082,0.379-0.202c0.089-0.121,0.119-0.275,0.082-0.42C4.057,11.951,4,11.491,4,11.023
			c0-0.179,0.015-0.345,0.038-0.503c-0.354-0.294-0.625-0.677-0.775-1.125C3.138,9.017,2.928,8.742,2.651,8.558l-1.35-0.576
			c-0.253-0.11-0.369-0.404-0.26-0.658s0.4-0.37,0.658-0.26l1.429,0.619c0.539,0.351,0.889,0.809,1.063,1.333
			c0.056,0.167,0.144,0.297,0.233,0.426c0.237-0.387,0.547-0.697,0.87-0.975C5.473,8.313,5.52,8.055,5.406,7.848z M17.796,9.009
			c-0.27-0.222-0.587-0.483-0.942-0.839c-0.928-0.928-0.884-2.494-0.859-3.335l0.001-0.058c-0.08-0.068-0.159-0.138-0.262-0.236
			C15.562,4.376,15.04,3.88,14.843,3.88h-0.006L14.62,4.114C14.146,4.601,13.735,5.023,13,5.023c0,0.972-0.897,1-1,1s-1-0.028-1-1
			c-0.735,0-1.146-0.421-1.62-0.909L9.146,3.876c-0.05,0.038-0.349,0.33-0.509,0.487c-0.202,0.198-0.409,0.39-0.631,0.518
			c0.024,0.851,0.051,2.376-0.86,3.287C6.791,8.525,6.474,8.786,6.204,9.009C5.531,9.564,5,10.003,5,11.023
			c0,1.669,0.737,2.74,2,2.958v3.542c0,0.647,0.305,1.532,1.077,2.4c0.088-0.808,0.24-1.757,0.405-2.758
			C8.738,15.596,9,14.001,9,13.023c0-1.552-0.718-2.624-0.725-2.634C8.12,10.161,8.178,9.85,8.404,9.694
			c0.228-0.155,0.536-0.1,0.693,0.125C9.135,9.873,10,11.138,10,13.023c0,1.06-0.269,2.696-0.527,4.277
			C9.228,18.79,9,20.172,9,21.023c0,0.246,0.024,0.477,0.068,0.693c0.616,3.015,5.249,3.015,5.865,0
			C14.976,21.5,15,21.269,15,21.023c0-0.851-0.228-2.233-0.468-3.696C14.269,15.719,14,14.083,14,13.023
			c0-1.815,0.81-3.066,0.902-3.203c0.156-0.229,0.467-0.288,0.694-0.134c0.229,0.154,0.289,0.465,0.134,0.694
			C15.701,10.425,15,11.479,15,13.023c0,0.979,0.262,2.573,0.515,4.116c0.168,1.019,0.321,1.974,0.409,2.784
			C16.695,19.055,17,18.17,17,17.523v-3.542c1.263-0.218,2-1.29,2-2.958C19,10.003,18.469,9.564,17.796,9.009z M7,12.023
			c-0.552,0-1-0.449-1-1s0.448-1,1-1s1,0.449,1,1C8,11.574,7.552,12.023,7,12.023z M13.854,19.876l-0.5,0.5
			c-0.098,0.098-0.226,0.146-0.354,0.146s-0.256-0.049-0.354-0.146c-0.195-0.195-0.195-0.512,0-0.707l0.5-0.5
			c0.195-0.195,0.512-0.195,0.707,0C14.048,19.364,14.049,19.681,13.854,19.876z M10.535,9.339c0.087-0.22,0.566-1.316,1.465-1.316
			s1.378,1.096,1.465,1.316c0.102,0.256-0.023,0.546-0.28,0.648c-0.061,0.024-0.123,0.036-0.185,0.036
			c-0.198,0-0.386-0.119-0.465-0.314C12.399,9.368,12.129,9.023,12,9.023s-0.399,0.346-0.535,0.685
			c-0.104,0.256-0.394,0.379-0.649,0.279C10.559,9.885,10.434,9.595,10.535,9.339z M10.146,19.169c0.195-0.195,0.512-0.195,0.707,0
			l0.5,0.5c0.195,0.195,0.195,0.512,0,0.707c-0.098,0.098-0.226,0.146-0.354,0.146s-0.256-0.049-0.354-0.146l-0.5-0.5
			C9.951,19.681,9.951,19.365,10.146,19.169z M14.466,20.841c0.101,0.257-0.026,0.547-0.284,0.647
			c-0.14,0.055-1.392,0.534-2.182,0.534s-2.042-0.479-2.182-0.534c-0.258-0.101-0.385-0.39-0.284-0.647s0.392-0.386,0.647-0.284
			c0.333,0.129,1.308,0.466,1.818,0.466c0.513,0,1.486-0.336,1.818-0.466C14.075,20.456,14.365,20.584,14.466,20.841z M17,12.023
			c-0.552,0-1-0.449-1-1s0.448-1,1-1s1,0.449,1,1C18,11.574,17.552,12.023,17,12.023z"/>
	</g>
</g>
</svg>
