<?xml version="1.0" encoding="utf-8"?>
<!-- Generator: Adobe Illustrator 19.0.0, SVG Export Plug-In . SVG Version: 6.00 Build 0)  -->
<svg version="1.1" id="Layer_1" xmlns="http://www.w3.org/2000/svg" xmlns:xlink="http://www.w3.org/1999/xlink" x="0px" y="0px"
	 viewBox="0 0 30 30" style="enable-background:new 0 0 30 30;" xml:space="preserve">
<path d="M17.9,13.6c2.2-1.2,3.6-3.5,3.6-6.1c0-3.9-3.1-7-7-7H6C5.7,0.5,5.5,0.7,5.5,1S5.7,1.5,6,1.5h2.5v27H6
	c-0.3,0-0.5,0.2-0.5,0.5s0.2,0.5,0.5,0.5h10.5c4.4,0,8-3.6,8-8C24.5,17.6,21.6,14.3,17.9,13.6z M14.5,1.5c3.3,0,6,2.7,6,6
	s-2.7,6-6,6h-5v-12H14.5z M16.5,28.5h-7v-14h5h2c3.9,0,7,3.1,7,7S20.4,28.5,16.5,28.5z"/>
</svg>
