<?xml version="1.0" encoding="utf-8"?>
<!-- Generator: Adobe Illustrator 19.0.0, SVG Export Plug-In . SVG Version: 6.00 Build 0)  -->
<svg version="1.1" id="Layer_1" xmlns="http://www.w3.org/2000/svg" xmlns:xlink="http://www.w3.org/1999/xlink" x="0px" y="0px"
	 viewBox="0 0 30 30" style="enable-background:new 0 0 30 30;" xml:space="preserve">
<g>
	<path d="M29.5,0h-29C0.2,0,0,0.2,0,0.5v29C0,29.8,0.2,30,0.5,30h29c0.3,0,0.5-0.2,0.5-0.5v-29C30,0.2,29.8,0,29.5,0z M29,29H1V1h28
		V29z"/>
	<path d="M4.3,26c0.1,0,0.1,0,0.2,0h4C8.8,26,9,25.8,9,25.5S8.8,25,8.5,25H5.7L25,5.7v2.8C25,8.8,25.2,9,25.5,9S26,8.8,26,8.5v-4
		c0-0.1,0-0.1,0-0.2c-0.1-0.1-0.1-0.2-0.3-0.3c-0.1,0-0.1,0-0.2,0h-4C21.2,4,21,4.2,21,4.5S21.2,5,21.5,5h2.8L5,24.3v-2.8
		C5,21.2,4.8,21,4.5,21S4,21.2,4,21.5v4c0,0.1,0,0.1,0,0.2C4.1,25.8,4.2,25.9,4.3,26z"/>
</g>
</svg>
