<?xml version="1.0" encoding="utf-8"?>
<!-- Generator: Adobe Illustrator 19.0.0, SVG Export Plug-In . SVG Version: 6.00 Build 0)  -->
<svg version="1.1" id="Layer_1" xmlns="http://www.w3.org/2000/svg" xmlns:xlink="http://www.w3.org/1999/xlink" x="0px" y="0px"
	 viewBox="0 0 30 30" style="enable-background:new 0 0 30 30;" xml:space="preserve">
<g>
	<path d="M24.5,25h-19C5.2,25,5,25.2,5,25.5v4C5,29.8,5.2,30,5.5,30h19c0.3,0,0.5-0.2,0.5-0.5v-4C25,25.2,24.8,25,24.5,25z"/>
	<path d="M24.5,0h-14c-0.2,0-0.4,0.1-0.5,0.3c-0.1,0-0.1,0.1-0.1,0.1L5.1,5.1c0,0-0.1,0.1-0.1,0.2c0,0.1,0,0.1,0,0.2v8
		C5,13.8,5.2,14,5.5,14h19c0.3,0,0.5-0.2,0.5-0.5v-13C25,0.2,24.8,0,24.5,0z M10,1.7V5H6.7L10,1.7z"/>
	<path d="M27,9h-0.5C26.2,9,26,9.2,26,9.5v4c0,0.8-0.7,1.5-1.5,1.5h-19C4.7,15,4,14.3,4,13.5v-4C4,9.2,3.8,9,3.5,9H3
		c-1.7,0-3,1.4-3,3v9c0,1.7,1.4,3,3,3h24c1.7,0,3-1.4,3-3v-9C30,10.4,28.7,9,27,9z M27.5,13c-0.3,0-0.5-0.2-0.5-0.5s0.2-0.5,0.5-0.5
		s0.5,0.2,0.5,0.5S27.8,13,27.5,13z"/>
</g>
</svg>
