<?xml version="1.0" encoding="iso-8859-1"?>
<!-- Generator: Adobe Illustrator 19.0.0, SVG Export Plug-In . SVG Version: 6.00 Build 0)  -->
<svg version="1.1" id="Layer_1" xmlns="http://www.w3.org/2000/svg" xmlns:xlink="http://www.w3.org/1999/xlink" x="0px" y="0px"
	 viewBox="0 0 24 24" style="enable-background:new 0 0 24 24;" xml:space="preserve">
<g>
	<g>
		<g>
			<path d="M3.5,24c-0.064,0-0.13-0.012-0.191-0.038C3.122,23.885,3,23.702,3,23.5v-20C3,1.57,4.57,0,6.5,0h11
				C17.776,0,18,0.224,18,0.5S17.776,1,17.5,1C16.673,1,16,1.673,16,2.5v2C16,4.776,15.776,5,15.5,5S15,4.776,15,4.5v-2
				c0-0.563,0.187-1.082,0.501-1.5H6.5C5.121,1,4,2.122,4,3.5v18.793l5.146-5.146c0.195-0.194,0.51-0.195,0.705-0.002
				c2.754,2.717,4.297,4.239,5.148,5.123V18.5c0-0.276,0.224-0.5,0.5-0.5s0.5,0.224,0.5,0.5l-0.003,5
				c0.014,0.074-0.008,0.126-0.034,0.189c-0.09,0.221-0.322,0.347-0.56,0.301c-0.135-0.026-0.248-0.105-0.319-0.213
				c-0.327-0.37-3.372-3.391-5.582-5.572l-5.648,5.649C3.758,23.949,3.63,24,3.5,24z"/>
		</g>
		<g>
			<path d="M19.5,4h-4C15.224,4,15,3.776,15,3.5S15.224,3,15.5,3H19V2.5C19,1.673,18.327,1,17.5,1C17.224,1,17,0.776,17,0.5
				S17.224,0,17.5,0C18.879,0,20,1.122,20,2.5v1C20,3.776,19.776,4,19.5,4z"/>
		</g>
	</g>
	<g>
		<g>
			<g>
				<g>
					<g>
						<path d="M15.5,17c-3.032,0-5.5-2.467-5.5-5.5S12.468,6,15.5,6S21,8.467,21,11.5S18.532,17,15.5,17z M15.5,7
							C13.019,7,11,9.019,11,11.5s2.019,4.5,4.5,4.5s4.5-2.019,4.5-4.5S17.981,7,15.5,7z"/>
					</g>
				</g>
				<g>
					<path d="M15.5,15c-0.276,0-0.5-0.224-0.5-0.5v-6C15,8.224,15.224,8,15.5,8S16,8.224,16,8.5v6C16,14.776,15.776,15,15.5,15z"/>
				</g>
				<g>
					<path d="M15.5,15c-0.128,0-0.256-0.049-0.354-0.146l-2-2c-0.195-0.195-0.195-0.512,0-0.707s0.512-0.195,0.707,0l1.646,1.646
						l1.646-1.646c0.195-0.195,0.512-0.195,0.707,0s0.195,0.512,0,0.707l-2,2C15.756,14.951,15.628,15,15.5,15z"/>
				</g>
			</g>
		</g>
	</g>
</g>
<g>
</g>
<g>
</g>
<g>
</g>
<g>
</g>
<g>
</g>
<g>
</g>
<g>
</g>
<g>
</g>
<g>
</g>
<g>
</g>
<g>
</g>
<g>
</g>
<g>
</g>
<g>
</g>
<g>
</g>
</svg>
