<?xml version="1.0" encoding="iso-8859-1"?>
<!-- Generator: Adobe Illustrator 19.0.0, SVG Export Plug-In . SVG Version: 6.00 Build 0)  -->
<svg version="1.1" id="Layer_1" xmlns="http://www.w3.org/2000/svg" xmlns:xlink="http://www.w3.org/1999/xlink" x="0px" y="0px"
	 viewBox="0 0 24 24" style="enable-background:new 0 0 24 24;" xml:space="preserve">
<g>
	<g>
		<path d="M11.5,24h1V12.791l-0.036-0.09c-0.15-0.38-0.777-0.38-0.928,0l-0.036,0.09V24z"/>
		<path d="M10.5,13.908c-0.111,0.039-0.225,0.072-0.346,0.085c-0.566,0.056-1.096-0.2-1.402-0.66l-0.218-0.327
			c-0.116-0.176-0.331-0.26-0.537-0.208l-0.633,0.158c-0.602,0.153-1.25-0.098-1.6-0.605c-0.354-0.513-0.351-1.2,0.007-1.71
			l0.097-0.138c0.088-0.126,0.113-0.286,0.067-0.434c-0.045-0.147-0.155-0.266-0.3-0.32C4.904,9.469,4.32,8.956,3.948,8.263
			C3.861,8.101,3.691,8,3.508,8H3C2.724,8,2.5,8.224,2.5,8.5v15C2.5,23.776,2.724,24,3,24h7.5V13.908z"/>
		<path d="M21,8h-0.508c-0.184,0-0.354,0.101-0.44,0.263c-0.372,0.692-0.956,1.206-1.688,1.484c-0.145,0.055-0.255,0.173-0.3,0.32
			c-0.046,0.147-0.021,0.307,0.067,0.434l0.098,0.138c0.356,0.51,0.359,1.197,0.006,1.71c-0.349,0.507-0.999,0.753-1.6,0.605
			l-0.633-0.158c-0.204-0.052-0.421,0.032-0.537,0.208l-0.218,0.327c-0.307,0.46-0.83,0.718-1.403,0.66
			c-0.12-0.013-0.234-0.045-0.345-0.085V24H21c0.276,0,0.5-0.224,0.5-0.5v-15C21.5,8.224,21.276,8,21,8z"/>
	</g>
	<g>
		<path d="M3.5,6.5c0-0.83,0.261-1.498,0.386-1.818c0.06-0.154,0.04-0.327-0.053-0.464C3.739,4.082,3.585,4,3.42,4H1
			C0.724,4,0.5,4.224,0.5,4.5v4C0.5,8.776,0.724,9,1,9h2.508c0.176,0,0.339-0.092,0.43-0.244c0.09-0.151,0.094-0.338,0.011-0.493
			C3.655,7.718,3.5,7.109,3.5,6.5z"/>
		<path d="M9.285,8.115C9.474,7.949,9.509,7.668,9.368,7.46C8.8,6.622,8.5,5.598,8.5,4.5s0.3-2.122,0.868-2.96
			c0.141-0.208,0.105-0.489-0.083-0.655C8.611,0.29,7.863,0,7,0C5.282,0,4.5,1.296,4.5,2.5c0,0.652,0.205,1.171,0.354,1.55
			C4.923,4.222,5,4.417,5,4.5S4.923,4.778,4.854,4.95C4.705,5.329,4.5,5.848,4.5,6.5C4.5,7.704,5.282,9,7,9
			C7.863,9,8.611,8.71,9.285,8.115z"/>
		<path d="M14.5,4.5C14.5,2.538,13.402,1,12,1S9.5,2.538,9.5,4.5S10.598,8,12,8S14.5,6.462,14.5,4.5z"/>
		<path d="M23,4h-2.42c-0.165,0-0.319,0.082-0.413,0.218c-0.093,0.137-0.112,0.31-0.053,0.464C20.239,5.002,20.5,5.67,20.5,6.5
			c0,0.609-0.155,1.218-0.448,1.763c-0.083,0.155-0.079,0.342,0.011,0.493C20.153,8.908,20.316,9,20.492,9H23
			c0.276,0,0.5-0.224,0.5-0.5v-4C23.5,4.224,23.276,4,23,4z"/>
		<path d="M19.5,2.5C19.5,1.296,18.718,0,17,0c-0.863,0-1.611,0.29-2.285,0.885c-0.188,0.166-0.224,0.447-0.083,0.655
			C15.2,2.378,15.5,3.402,15.5,4.5s-0.3,2.122-0.868,2.96c-0.141,0.208-0.105,0.489,0.083,0.655C15.389,8.71,16.137,9,17,9
			c1.718,0,2.5-1.296,2.5-2.5c0-0.652-0.205-1.171-0.354-1.55C19.077,4.778,19,4.583,19,4.5s0.077-0.278,0.146-0.45
			C19.295,3.671,19.5,3.152,19.5,2.5z"/>
		<path d="M16.663,10.147c-0.078-0.112-0.199-0.188-0.335-0.208c-0.846-0.127-1.611-0.488-2.275-1.075c0,0-0.105-0.116-0.105-0.116
			c-0.155-0.168-0.402-0.211-0.604-0.104c-0.259,0.137-0.479,0.225-0.694,0.275c-0.143,0.033-0.263,0.126-0.33,0.256
			c-0.067,0.129-0.075,0.281-0.021,0.417l1.237,3.093c0.068,0.172,0.228,0.292,0.412,0.312C13.966,12.999,13.982,13,14,13
			c0.166,0,0.322-0.083,0.416-0.223l0.805-1.207l1.658,0.415c0.203,0.053,0.415-0.029,0.533-0.202
			c0.118-0.172,0.117-0.399-0.003-0.57L16.663,10.147z"/>
		<path d="M11.351,8.92c-0.215-0.05-0.436-0.138-0.694-0.275c-0.199-0.106-0.448-0.064-0.604,0.104
			c-0.002,0.002-0.104,0.113-0.105,0.116c-0.664,0.586-1.43,0.948-2.275,1.075c-0.136,0.021-0.257,0.096-0.335,0.208l-0.746,1.066
			c-0.12,0.171-0.121,0.398-0.003,0.57c0.118,0.171,0.33,0.253,0.533,0.202l1.658-0.415l0.805,1.207C9.678,12.917,9.834,13,10,13
			c0.018,0,0.034-0.001,0.052-0.003c0.185-0.019,0.344-0.139,0.412-0.312l1.237-3.093c0.055-0.135,0.047-0.288-0.021-0.417
			C11.613,9.046,11.493,8.953,11.351,8.92z"/>
	</g>
</g>
<g>
</g>
<g>
</g>
<g>
</g>
<g>
</g>
<g>
</g>
<g>
</g>
<g>
</g>
<g>
</g>
<g>
</g>
<g>
</g>
<g>
</g>
<g>
</g>
<g>
</g>
<g>
</g>
<g>
</g>
</svg>
