<?xml version="1.0" encoding="utf-8"?>
<!-- Generator: Adobe Illustrator 19.0.0, SVG Export Plug-In . SVG Version: 6.00 Build 0)  -->
<svg version="1.1" id="Layer_1" xmlns="http://www.w3.org/2000/svg" xmlns:xlink="http://www.w3.org/1999/xlink" x="0px" y="0px"
	 viewBox="0 0 30 30" style="enable-background:new 0 0 30 30;" xml:space="preserve">
<style type="text/css">
	.st0{fill:none;stroke:#000000;stroke-linecap:round;stroke-linejoin:round;stroke-miterlimit:10;}
</style>
<g>
	<g>
		<g>
			<path class="st0" d="M0.5,29.3"/>
		</g>
	</g>
	<g>
		<path d="M29.9,0.2C29.8,0.1,29.7,0,29.5,0c-3.8,0.2-9.9,2.4-10.1,2.5c-0.1,0-0.2,0.2-0.3,0.3l-0.7,1.8l-1-1
			c-0.2-0.2-0.4-0.2-0.6-0.1c-0.5,0.3-4.6,2.6-5.4,3.5c-0.5,0.6-0.9,2-1.1,3.1L9.4,8.7C9.3,8.6,9.2,8.5,9.1,8.5
			c-0.2,0-0.3,0-0.4,0.1c-0.2,0.2-4.7,5-3.4,10.2C9,13.5,13.6,8.7,20.8,5.2c0.2-0.1,0.5,0,0.7,0.2c0.1,0.2,0,0.5-0.2,0.7
			c-0.6,0.3-1.2,0.6-1.8,0.9c-0.1,0.1-0.3,0.2-0.4,0.2c-0.6,0.3-1.1,0.6-1.6,1c-0.1,0-0.2,0.1-0.2,0.2c-0.5,0.3-0.9,0.6-1.3,0.9
			c-0.1,0.1-0.3,0.2-0.4,0.3c-0.5,0.3-0.9,0.7-1.3,1c-0.1,0.1-0.3,0.2-0.4,0.3c-0.3,0.3-0.6,0.5-0.9,0.8c-0.2,0.1-0.3,0.3-0.5,0.4
			c-0.4,0.3-0.7,0.7-1.1,1c-0.2,0.2-0.4,0.4-0.5,0.5c-0.2,0.2-0.4,0.4-0.6,0.6c-0.2,0.2-0.4,0.4-0.6,0.6c-0.3,0.3-0.6,0.6-0.8,1
			c-0.2,0.3-0.4,0.5-0.6,0.8c-0.1,0.1-0.2,0.3-0.3,0.4C4.8,20.9,2.4,25,0.1,29.3c-0.1,0.2-0.1,0.5,0.2,0.7C0.3,30,0.4,30,0.5,30
			c0.2,0,0.3-0.1,0.4-0.3c1.8-3.1,3.4-6.1,5.3-8.8C6.8,21.6,7.7,22,8.8,22c4.8,0,12.9-6.7,13.7-8.8c0-0.1,0-0.3,0-0.4
			s-0.2-0.2-0.3-0.3l-2.5-0.8l4.9-0.7c0.2,0,0.3-0.1,0.4-0.3l5-10C30,0.6,30,0.4,29.9,0.2z"/>
	</g>
</g>
</svg>
