<?xml version="1.0" encoding="utf-8"?>
<!-- Generator: Adobe Illustrator 19.0.0, SVG Export Plug-In . SVG Version: 6.00 Build 0)  -->
<svg version="1.1" id="Layer_1" xmlns="http://www.w3.org/2000/svg" xmlns:xlink="http://www.w3.org/1999/xlink" x="0px" y="0px"
	 viewBox="0 0 30 30" style="enable-background:new 0 0 30 30;" xml:space="preserve">
<g>
	<path d="M27.6,23.4c-0.1-0.2-0.1-0.5,0-0.7c0.9-1.6,1.9-4.7,1.9-8.2C29.5,5.4,22.1,0,15,0C8,0,0.5,5,0.5,14.2c0,3.7,1,6.8,1.9,8.3
		c0.1,0.2,0.1,0.5,0,0.7l-0.7,1.5c-0.3,0.5-0.2,1.2,0.1,1.8l2.3,2.6c0.5,0.8,1.8,1.1,2.6,0.4l3.1-1.7c0,0,0.1,0,0.1-0.1
		c0.6-0.5,0.8-1.4,0.4-2.1l-0.3-0.6c-1.1-2.1-3.4-6.5-3.4-9.6C6.5,10.9,8.7,6,15,6s8.5,4.9,8.5,9.5c0,3.1-2.2,7.2-3.4,9.5
		c-0.2,0.3-0.3,0.6-0.4,0.8c-0.4,0.7-0.2,1.6,0.5,2.2l2.5,1.7c0.3,0.3,0.7,0.4,1.1,0.4c0.6,0,1.1-0.3,1.4-0.8l2.9-2.9
		c0,0,0.1-0.1,0.1-0.1c0.3-0.5,0.4-1.2,0.1-1.8L27.6,23.4z M26,11c0.3,0,0.5,0.2,0.5,0.5S26.3,12,26,12s-0.5-0.2-0.5-0.5
		S25.8,11,26,11z M4,11c0.3,0,0.5,0.2,0.5,0.5S4.2,12,4,12s-0.5-0.2-0.5-0.5S3.7,11,4,11z M4.8,21.8c-0.1,0-0.2,0.1-0.2,0.1
		c-0.2,0-0.3-0.1-0.4-0.3c-0.6-1-1.6-3.7-1.6-7c0-0.3,0.2-0.5,0.5-0.5c0.3,0,0.5,0.2,0.5,0.5c0.1,3.2,1,5.6,1.5,6.5
		C5.2,21.4,5.1,21.7,4.8,21.8z M10.2,4c-2,0.8-3.7,2.2-4.8,3.9C5.3,8,5.1,8.1,5,8.1C4.9,8.1,4.8,8,4.7,8C4.5,7.8,4.4,7.5,4.6,7.3
		C5.9,5.4,7.7,4,9.8,3.1c0.3-0.1,0.5,0,0.7,0.3C10.6,3.6,10.5,3.9,10.2,4z M15,3c-0.3,0-0.5-0.2-0.5-0.5S14.7,2,15,2
		s0.5,0.2,0.5,0.5S15.3,3,15,3z M19.8,4c-0.3-0.1-0.4-0.4-0.3-0.7c0.1-0.3,0.4-0.4,0.7-0.3c2.2,0.9,4,2.4,5.3,4.2
		c0.2,0.2,0.1,0.5-0.1,0.7c-0.1,0.1-0.2,0.1-0.3,0.1c-0.2,0-0.3-0.1-0.4-0.2C23.5,6.2,21.8,4.8,19.8,4z M25.5,21.9
		c-0.1,0-0.2,0-0.2-0.1c-0.2-0.1-0.3-0.4-0.2-0.7c0.5-0.9,1.5-3.4,1.5-6.5c0-0.3,0.2-0.5,0.5-0.5c0,0,0,0,0,0c0.3,0,0.5,0.2,0.5,0.5
		c-0.1,3.3-1.1,6-1.6,7C25.8,21.8,25.6,21.9,25.5,21.9z"/>
</g>
</svg>
