<?xml version="1.0" encoding="utf-8"?>
<!-- Generator: Adobe Illustrator 19.0.0, SVG Export Plug-In . SVG Version: 6.00 Build 0)  -->
<svg version="1.1" id="Layer_1" xmlns="http://www.w3.org/2000/svg" xmlns:xlink="http://www.w3.org/1999/xlink" x="0px" y="0px"
	 viewBox="0 0 30 30" style="enable-background:new 0 0 30 30;" xml:space="preserve">
<g>
	<path d="M29.9,24.1l-9.6-9.6l0.6-0.6c0.2-0.2,0.2-0.5,0-0.7L19.7,12l0.3-0.3c0.7-0.7,1-1.5,1-2.5s-0.4-1.8-1-2.5l-5.3-5.3
		c-1-0.9-2.2-1.5-3.6-1.5S8.5,0.5,7.6,1.5L1.5,7.6C0.5,8.5,0,9.8,0,11.1s0.5,2.6,1.5,3.6L6.8,20c0.7,0.7,1.5,1,2.5,1s1.8-0.4,2.5-1
		l0.3-0.3l1.1,1.1c0.2,0.2,0.5,0.2,0.7,0l0.6-0.6l1.5,1.5v1.8c0,0.3,0.2,0.5,0.5,0.5h1.8l2.7,2.4v2.1c0,0.3,0.2,0.5,0.5,0.5h1.8
		l1.4,0.9C24.8,30,24.9,30,25,30h4.5c0.3,0,0.5-0.2,0.5-0.5v-5C30,24.4,29.9,24.2,29.9,24.1z M10.8,6.3l-4.5,4.5
		c-0.3,0.3-0.8,0.3-1.1,0c-0.3-0.3-0.3-0.8,0-1.1l4.5-4.5C9.9,5.1,10,5,10.2,5s0.4,0.1,0.5,0.2C11.1,5.5,11.1,6,10.8,6.3z
		 M26.9,26.9C26.8,27,26.6,27,26.5,27s-0.3,0-0.4-0.1l-9-9c-0.2-0.2-0.2-0.5,0-0.7s0.5-0.2,0.7,0l9,9C27,26.3,27,26.7,26.9,26.9z"/>
</g>
</svg>
