<?xml version="1.0" encoding="utf-8"?>
<!-- Generator: Adobe Illustrator 19.0.0, SVG Export Plug-In . SVG Version: 6.00 Build 0)  -->
<svg version="1.1" id="Layer_1" xmlns="http://www.w3.org/2000/svg" xmlns:xlink="http://www.w3.org/1999/xlink" x="0px" y="0px"
	 viewBox="0 0 30 30" style="enable-background:new 0 0 30 30;" xml:space="preserve">
<g>
	<path d="M30,16.3l-5-16C24.9,0.1,24.7,0,24.5,0H5.5C5.3,0,5.1,0.1,5.1,0.3l-5,16c0,0.2,0,0.3,0.1,0.4C0.2,16.9,0.3,17,0.5,17h8.2
		C7.9,18.6,7,20.6,7,22.5c0,3,0.7,5.6,2.1,7.3C9.2,29.9,9.3,30,9.5,30h11c0.2,0,0.3-0.1,0.4-0.2c1.4-1.7,2.1-4.3,2.1-7.3
		c0-1.9-0.9-3.9-1.7-5.5H26v6c0,0,0,0.1,0,0.1c-0.6,0.2-1,0.8-1,1.4c0,0.8,0.7,1.5,1.5,1.5s1.5-0.7,1.5-1.5c0-0.7-0.4-1.2-1-1.4
		c0,0,0-0.1,0-0.1v-6h2.5c0.2,0,0.3-0.1,0.4-0.2C30,16.7,30,16.5,30,16.3z M8.5,2.9L4.8,14.3c-0.1,0.2-0.3,0.3-0.5,0.3
		c-0.1,0-0.1,0-0.2,0c-0.3-0.1-0.4-0.4-0.3-0.6L7.6,2.6C7.7,2.4,8,2.2,8.2,2.3C8.5,2.4,8.6,2.7,8.5,2.9z"/>
</g>
</svg>
