<?xml version="1.0" encoding="utf-8"?>
<!-- Generator: Adobe Illustrator 19.0.0, SVG Export Plug-In . SVG Version: 6.00 Build 0)  -->
<svg version="1.1" id="Layer_1" xmlns="http://www.w3.org/2000/svg" xmlns:xlink="http://www.w3.org/1999/xlink" x="0px" y="0px"
	 viewBox="0 0 30 30" style="enable-background:new 0 0 30 30;" xml:space="preserve">
<g>
	<g>
		<circle cx="20.5" cy="9.5" r="2.5"/>
	</g>
	<g>
		<path d="M29.5,0C23.1,0,17.2,1.3,5.1,17.7c-0.1,0.2-0.1,0.4,0,0.6c0,0,0.2,0.3,0.6,0.8l-1.8,2.4c-0.1,0.1-0.1,0.3-0.1,0.5
			c0,0,0.1,0.4,0.4,0.8C0.3,24.6,0,27.1,0,29.5C0,29.8,0.2,30,0.5,30c2.2,0,4.6-0.4,6.5-4.5C7.5,25.8,7.8,26,7.8,26
			c0.1,0,0.1,0,0.2,0c0.1,0,0.2,0,0.3-0.1l2.4-1.8c0.4,0.3,0.8,0.5,0.8,0.6c0.1,0.1,0.2,0.1,0.3,0.1c0.1,0,0.2,0,0.3-0.1
			c16.6-12.3,18-18,18-24.2C30,0.2,29.8,0,29.5,0z M20.5,13c-1.9,0-3.5-1.6-3.5-3.5S18.6,6,20.5,6S24,7.6,24,9.5S22.4,13,20.5,13z"
			/>
	</g>
	<g>
		<path d="M18.7,21.1c-0.2-0.1-0.4-0.1-0.5,0.1c-1.5,1.2-3.2,2.5-5,3.9c-0.1,0.1-0.2,0.2-0.2,0.4v2.1c0,0.2,0.1,0.3,0.3,0.4
			c0.1,0,0.2,0.1,0.2,0.1c0.1,0,0.2,0,0.3-0.1l5-3c0.2-0.1,0.2-0.3,0.2-0.4v-2.9C19,21.4,18.9,21.2,18.7,21.1z"/>
	</g>
	<g>
		<path d="M1.5,17h2.6c0.2,0,0.3-0.1,0.4-0.2c1.3-1.8,2.6-3.5,3.9-5c0.1-0.1,0.1-0.4,0.1-0.5C8.4,11.1,8.2,11,8,11H5.5
			c-0.2,0-0.3,0.1-0.4,0.2l-4,5C1,16.3,1,16.5,1,16.7C1.1,16.9,1.3,17,1.5,17z"/>
	</g>
</g>
</svg>
