<?xml version="1.0" encoding="utf-8"?>
<!-- Generator: Adobe Illustrator 19.0.0, SVG Export Plug-In . SVG Version: 6.00 Build 0)  -->
<svg version="1.1" id="Layer_1" xmlns="http://www.w3.org/2000/svg" xmlns:xlink="http://www.w3.org/1999/xlink" x="0px" y="0px"
	 viewBox="0 0 30 30" style="enable-background:new 0 0 30 30;" xml:space="preserve">
<g>
	<path d="M28.4,1.6c-1-1-2.4-1.6-3.9-1.6c-1.5,0-2.9,0.6-3.9,1.6l-5.3,4.8c-0.1,0.1-0.2,0.2-0.2,0.4s0.1,0.3,0.1,0.4L17.2,9
		c0.1,0.1,0.3,0.2,0.5,0.1L21,8.1c0.3-0.1,0.4-0.4,0.3-0.6c-0.1-0.2-0.1-0.4-0.1-0.6c0-1.1,0.9-2,2-2c1.1,0,2,0.9,2,2s-0.9,2-2,2
		c-0.2,0-0.4,0-0.6-0.1c-0.1,0-0.3,0-0.4,0C22.1,8.8,22,8.9,21.9,9l-1.1,3.3c-0.1,0.2,0,0.4,0.1,0.5l1.2,1.2L11,25.4
		c0.1-0.3,0.1-0.6,0.1-0.9c0-3.1-2.5-5.5-5.5-5.5c-0.9,0-1.8,0.2-2.6,0.6l10-18.8c0.1-0.2,0-0.5-0.2-0.7c-0.2-0.1-0.5,0-0.7,0.2
		L0.7,21.7c0,0.1-0.1,0.1-0.1,0.2C0.2,22.7,0,23.5,0,24.5C0,27.5,2.5,30,5.5,30c1.5,0,2.9-0.6,3.9-1.6c0,0,0,0,0,0l13.4-13.6
		c0.1,0.1,0.2,0.1,0.3,0.1c0,0,0,0,0,0c0.1,0,0.3-0.1,0.4-0.2l4.8-5.2C30.5,7.3,30.5,3.8,28.4,1.6z M1,24.5c0-2.5,2-4.5,4.5-4.5
		c2.5,0,4.5,2,4.5,4.5c0,2.5-2,4.5-4.5,4.5C3,29,1,27,1,24.5z"/>
</g>
</svg>
