<?xml version="1.0" encoding="iso-8859-1"?>
<!-- Generator: Adobe Illustrator 19.0.0, SVG Export Plug-In . SVG Version: 6.00 Build 0)  -->
<svg version="1.1" id="Layer_1" xmlns="http://www.w3.org/2000/svg" xmlns:xlink="http://www.w3.org/1999/xlink" x="0px" y="0px"
	 viewBox="0 0 24 24" style="enable-background:new 0 0 24 24;" xml:space="preserve">
<g>
	<g>
		<path d="M11.5,5.5C11.224,5.5,11,5.724,11,6s0.224,0.5,0.5,0.5C11.776,6.5,12,6.276,12,6S11.776,5.5,11.5,5.5z M18.5,12.5
			c-3.032,0-5.5,2.467-5.5,5.5s2.468,5.5,5.5,5.5S24,21.033,24,18S21.532,12.5,18.5,12.5z M18.85,21.35
			c-0.09,0.1-0.22,0.15-0.35,0.15c-0.141,0-0.26-0.05-0.36-0.15C18.05,21.26,18,21.13,18,21s0.05-0.26,0.14-0.35
			c0.19-0.19,0.521-0.19,0.71,0C18.94,20.74,19,20.87,19,21S18.95,21.26,18.85,21.35z M18.999,18.408l-0.001,0.593
			c-0.001,0.276-0.225,0.499-0.5,0.499h-0.001c-0.276,0-0.5-0.225-0.499-0.501l0.002-1c0-0.237,0.167-0.441,0.398-0.489l0.109-0.021
			c1.017-0.188,1.49-0.502,1.49-0.99c0-0.542-0.688-1-1.501-1c-0.783,0-1.457,0.425-1.501,0.946
			c-0.022,0.276-0.283,0.483-0.54,0.456c-0.275-0.023-0.479-0.265-0.456-0.54c0.09-1.062,1.163-1.862,2.497-1.862
			c1.379,0,2.501,0.897,2.501,2C20.998,17.456,20.326,18.096,18.999,18.408z M18.5,11.5c0.775,0,1.546,0.143,2.29,0.425
			c0.131,0.049,0.278,0.041,0.403-0.021c0.041-0.021,0.08-0.047,0.114-0.078l1.857-1.705C23.688,9.745,24,9.139,24,8.5
			c0-0.637-0.312-1.244-0.79-1.586l-6.014-5.497C16.55,0.826,15.712,0.5,14.835,0.5H2.5C1.121,0.5,0,1.622,0,3v11
			c0,1.378,1.121,2.5,2.5,2.5h9.294c0.221,0,0.417-0.146,0.48-0.357C13.09,13.41,15.651,11.5,18.5,11.5z M19,7.5
			c0.552,0,1,0.449,1,1s-0.448,1-1,1s-1-0.449-1-1S18.448,7.5,19,7.5z M10.73,10.039c-0.146,0-0.296-0.011-0.45-0.035l-3.35,3.35
			C6.836,13.448,6.709,13.5,6.576,13.5H4.499c-0.276,0-0.5-0.224-0.5-0.5v-2.077c0-0.133,0.053-0.26,0.146-0.354l3.35-3.35
			C7.472,7.066,7.461,6.917,7.461,6.768c0-1.803,1.466-3.269,3.269-3.269c1.803,0,3.27,1.466,3.27,3.269S12.533,10.039,10.73,10.039
			z"/>
	</g>
</g>
</svg>
