<?xml version="1.0" encoding="iso-8859-1"?>
<!-- Generator: Adobe Illustrator 19.0.0, SVG Export Plug-In . SVG Version: 6.00 Build 0)  -->
<svg version="1.1" id="Layer_1" xmlns="http://www.w3.org/2000/svg" xmlns:xlink="http://www.w3.org/1999/xlink" x="0px" y="0px"
	 viewBox="0 0 24 24" style="enable-background:new 0 0 24 24;" xml:space="preserve">
<g>
	<g>
		<path d="M11.5,5.5C11.224,5.5,11,5.724,11,6s0.224,0.5,0.5,0.5S12,6.276,12,6S11.776,5.5,11.5,5.5z M18.5,11.5
			c0.775,0,1.546,0.143,2.29,0.425c0.131,0.049,0.278,0.041,0.403-0.021c0.041-0.021,0.08-0.047,0.114-0.078l1.857-1.705
			C23.688,9.745,24,9.139,24,8.5c0-0.637-0.312-1.244-0.79-1.586l-6.014-5.497C16.55,0.826,15.712,0.5,14.835,0.5H2.5
			C1.121,0.5,0,1.622,0,3v11c0,1.378,1.121,2.5,2.5,2.5h9.294c0.221,0,0.417-0.146,0.48-0.357C13.091,13.409,15.651,11.5,18.5,11.5z
			 M19,7.5c0.552,0,1,0.449,1,1s-0.448,1-1,1s-1-0.449-1-1S18.448,7.5,19,7.5z M10.73,10.039c-0.146,0-0.296-0.011-0.45-0.035
			l-3.35,3.35C6.837,13.447,6.71,13.5,6.577,13.5H4.5C4.224,13.5,4,13.276,4,13v-2.077c0-0.133,0.053-0.26,0.146-0.354l3.35-3.35
			C7.473,7.066,7.462,6.917,7.462,6.768c0-1.803,1.466-3.269,3.269-3.269c1.803,0,3.269,1.467,3.269,3.27
			S12.533,10.039,10.73,10.039z M18.5,12.5c-3.032,0-5.5,2.467-5.5,5.5s2.468,5.5,5.5,5.5S24,21.033,24,18S21.532,12.5,18.5,12.5z
			 M20.855,19.353l-1.999,1.999c-0.046,0.046-0.102,0.083-0.163,0.109c-0.061,0.025-0.126,0.039-0.191,0.039
			s-0.13-0.013-0.191-0.038c-0.062-0.025-0.117-0.062-0.163-0.109l-1.999-1.999c-0.195-0.195-0.195-0.512,0-0.707
			c0.195-0.195,0.512-0.195,0.707,0l1.146,1.146V15c0-0.276,0.224-0.5,0.5-0.5s0.5,0.224,0.5,0.5v4.793l1.146-1.146
			c0.195-0.195,0.512-0.195,0.707,0C21.05,18.842,21.051,19.158,20.855,19.353z"/>
	</g>
</g>
</svg>
