<?xml version="1.0" encoding="iso-8859-1"?>
<!-- Generator: Adobe Illustrator 19.0.0, SVG Export Plug-In . SVG Version: 6.00 Build 0)  -->
<svg version="1.1" id="Layer_1" xmlns="http://www.w3.org/2000/svg" xmlns:xlink="http://www.w3.org/1999/xlink" x="0px" y="0px"
	 viewBox="0 0 24 24" style="enable-background:new 0 0 24 24;" xml:space="preserve">
<g>
	<g>
		<path d="M23,11.5h-1.525c-0.254-4.839-4.136-8.721-8.975-8.975V1c0-0.276-0.224-0.5-0.5-0.5S11.5,0.724,11.5,1v1.525
			C6.661,2.779,2.779,6.661,2.526,11.5H1c-0.276,0-0.5,0.224-0.5,0.5s0.224,0.5,0.5,0.5h1.525c0.254,4.839,4.136,8.721,8.975,8.975
			V23c0,0.276,0.224,0.5,0.5,0.5s0.5-0.224,0.5-0.5v-1.535c1.608-0.086,3.174-0.561,4.552-1.428c0.233-0.147,0.304-0.456,0.156-0.69
			c-0.146-0.234-0.455-0.302-0.689-0.157c-1.218,0.767-2.6,1.19-4.019,1.275V19c0-0.276-0.224-0.5-0.5-0.5s-0.5,0.224-0.5,0.5v1.475
			c-4.287-0.251-7.723-3.687-7.975-7.975H5c0.276,0,0.5-0.224,0.5-0.5S5.276,11.5,5,11.5H3.526C3.776,7.213,7.214,3.777,11.5,3.525
			V5c0,0.276,0.224,0.5,0.5,0.5s0.5-0.224,0.5-0.5V3.525c4.287,0.251,7.723,3.687,7.975,7.975H19c-0.276,0-0.5,0.224-0.5,0.5
			s0.224,0.5,0.5,0.5h1.465c-0.085,1.419-0.508,2.801-1.274,4.019c-0.147,0.233-0.077,0.542,0.156,0.689
			c0.233,0.146,0.542,0.078,0.689-0.157c0.868-1.378,1.343-2.944,1.428-4.551H23c0.276,0,0.5-0.224,0.5-0.5S23.276,11.5,23,11.5z
			 M15.5,14.793c0.616-0.77,1-1.733,1-2.793c0-2.481-2.019-4.5-4.5-4.5S7.5,9.519,7.5,12s2.019,4.5,4.5,4.5
			c1.06,0,2.023-0.384,2.793-1l3.853,3.853c0.098,0.098,0.226,0.146,0.354,0.146s0.256-0.049,0.354-0.146
			c0.195-0.195,0.195-0.512,0-0.707L15.5,14.793z M12,15.5c-1.93,0-3.5-1.57-3.5-3.5s1.57-3.5,3.5-3.5s3.5,1.57,3.5,3.5
			S13.93,15.5,12,15.5z"/>
	</g>
</g>
</svg>
