<?xml version="1.0" encoding="iso-8859-1"?>
<!-- Generator: Adobe Illustrator 19.0.0, SVG Export Plug-In . SVG Version: 6.00 Build 0)  -->
<svg version="1.1" id="Layer_1" xmlns="http://www.w3.org/2000/svg" xmlns:xlink="http://www.w3.org/1999/xlink" x="0px" y="0px"
	 viewBox="0 0 24 24" style="enable-background:new 0 0 24 24;" xml:space="preserve">
<g>
	<g>
		<path d="M17.997,11c1.415,0,2.772,0.611,3.725,1.677c0.115,0.129,0.294,0.186,0.458,0.16c0.047-0.008,0.092-0.022,0.135-0.042
			c1.039-0.5,1.683-1.84,1.683-2.794c0-1.194-0.997-3-2.5-3c-0.747,0-1.181,0.331-1.529,0.596c-0.28,0.213-0.489,0.373-0.856,0.4
			c-0.105-0.345-0.09-1.585,0.612-4.396c0.097-0.386,0.012-0.788-0.233-1.102C19.245,2.182,18.873,2,18.471,2h-4.479
			c-0.399,0-0.754,0.238-0.903,0.607c-0.15,0.374-0.059,0.797,0.233,1.079C13.771,4.12,14,4.562,14,5c0,0.827-1.088,1-2,1
			s-2-0.173-2-1c0-0.439,0.229-0.881,0.678-1.314c0.292-0.281,0.384-0.705,0.233-1.079C10.762,2.239,10.407,2,10.008,2H5.529
			C5.127,2,4.755,2.182,4.508,2.498C4.263,2.813,4.178,3.214,4.275,3.6c0.702,2.811,0.718,4.051,0.612,4.396
			c-0.367-0.027-0.576-0.187-0.856-0.4C3.682,7.331,3.249,7,2.502,7c-1.503,0-2.5,1.806-2.5,3c0,1.194,0.997,3,2.5,3
			c0.747,0,1.181-0.331,1.529-0.596c0.28-0.213,0.489-0.373,0.856-0.4c0.105,0.345,0.09,1.585-0.612,4.396
			c-0.097,0.386-0.012,0.788,0.233,1.102C4.755,17.818,5.127,18,5.529,18h4.479c0.399,0,0.754-0.238,0.903-0.607
			c0.15-0.374,0.059-0.797-0.233-1.079C10.226,15.88,9.997,15.438,9.997,15c0-0.827,1.088-1,2-1c0.363,0,0.687,0.028,0.96,0.084
			c0.059,0.012,0.124,0.014,0.185,0.003c0.159-0.027,0.296-0.128,0.367-0.273C14.357,12.078,16.077,11,17.997,11z M23.852,21.146
			l-2.708-2.707c0.527-0.677,0.853-1.517,0.853-2.44c0-2.206-1.794-4-4-4s-4,1.794-4,4s1.794,4,4,4c0.923,0,1.763-0.327,2.44-0.853
			l2.707,2.707C23.242,21.952,23.37,22,23.498,22c0.128,0,0.256-0.049,0.354-0.146C24.047,21.659,24.047,21.341,23.852,21.146z
			 M17.997,19c-1.654,0-3-1.346-3-3s1.346-3,3-3s3,1.346,3,3S19.651,19,17.997,19z"/>
	</g>
</g>
</svg>
