<?xml version="1.0" encoding="iso-8859-1"?>
<!-- Generator: Adobe Illustrator 19.0.0, SVG Export Plug-In . SVG Version: 6.00 Build 0)  -->
<svg version="1.1" id="Layer_1" xmlns="http://www.w3.org/2000/svg" xmlns:xlink="http://www.w3.org/1999/xlink" x="0px" y="0px"
	 viewBox="0 0 30 30" style="enable-background:new 0 0 30 30;" xml:space="preserve">
<g>
	<g>
		<path d="M29.855,14.148L26,10.254V0.5C26,0.224,25.776,0,25.5,0h-5C20.224,0,20,0.224,20,0.5v3.694l-3.572-3.608
			c-0.762-0.755-2.088-0.759-2.858,0.003L0.145,14.148c-0.142,0.143-0.184,0.358-0.106,0.544C0.117,14.879,0.299,15,0.5,15H4v14.5
			C4,29.776,4.224,30,4.5,30h21c0.276,0,0.5-0.224,0.5-0.5V15h3.5c0.202,0,0.384-0.121,0.461-0.308
			C30.039,14.506,29.997,14.292,29.855,14.148z M20,25H10V15h10V25z"/>
	</g>
</g>
</svg>
