<?xml version="1.0" encoding="utf-8"?>
<!-- Generator: Adobe Illustrator 19.0.0, SVG Export Plug-In . SVG Version: 6.00 Build 0)  -->
<svg version="1.1" id="Layer_1" xmlns="http://www.w3.org/2000/svg" xmlns:xlink="http://www.w3.org/1999/xlink" x="0px" y="0px"
	 viewBox="0 0 30 30" style="enable-background:new 0 0 30 30;" xml:space="preserve">
<g>
	<g>
		<g>
			<path d="M13,27.5c-8.5,0-13-4.2-13-6.5c0-5.4,7-6.8,7.8-7c0.7-0.3,3.3-1.5,4.2-1.5c0.8,0,2.3,0.4,3.5,1.3
				c0.5-0.5,1.6-1.3,2.5-1.3c1.2,0,2.8,1.2,3.9,2.3c0.5-0.1,1.7-0.3,2.6-0.3c1.3,0,5.5,2.7,5.5,6.5C30,25,21.2,27.5,13,27.5z
				 M12,13.5c-0.5,0-2.5,0.8-3.8,1.5c0,0-0.1,0-0.1,0C8,15,1,16.2,1,21c0,1.6,4.1,5.5,12,5.5c8.5,0,16-2.6,16-5.5
				c0-3.3-3.7-5.5-4.5-5.5c-1,0-2.6,0.4-2.6,0.4c-0.2,0-0.3,0-0.5-0.1c-1.4-1.4-2.7-2.2-3.4-2.2c-0.6,0-1.6,0.8-2.1,1.4
				c-0.1,0.1-0.2,0.1-0.4,0.1c0,0,0,0,0,0c-0.1,0-0.3-0.1-0.4-0.1C14.2,13.9,12.7,13.5,12,13.5z"/>
		</g>
		<g>
			<path d="M13.5,25.5c-4.4,0-7.6-0.9-8.4-1.7c-0.2-0.2-0.2-0.5,0-0.7c0.2-0.2,0.5-0.2,0.7,0c0.4,0.5,3.2,1.3,7.6,1.3
				c5.6,0,11.2-2.4,11.6-2.9c0.2-0.2,0.5-0.2,0.7,0c0.2,0.2,0.2,0.5,0,0.7C25.1,23.2,19.1,25.5,13.5,25.5z"/>
		</g>
		<g>
			<path d="M12.8,19.5c-0.3,0-0.5-0.1-0.8-0.3l-4.3-4.1c-0.2-0.2-0.2-0.5,0-0.7c0.2-0.2,0.5-0.2,0.7,0l4.3,4.1c0.1,0,0.2,0,0.2,0
				c0,0,0.1-0.1,0.1-0.2c0-1.1-0.4-3.3-1.6-4.4c-0.2-0.2-0.2-0.5,0-0.7c0.2-0.2,0.5-0.2,0.7,0c1.4,1.3,2,3.8,1.9,5.2
				c0,0.5-0.3,0.9-0.7,1.1C13.1,19.5,12.9,19.5,12.8,19.5z"/>
		</g>
		<g>
			<path d="M19.1,19.5c-0.4,0-0.8-0.2-1.2-0.7l-2.8-4c-0.2-0.2-0.1-0.5,0.1-0.7c0.2-0.2,0.5-0.1,0.7,0.1l2.8,3.9
				c0.1,0.2,0.3,0.2,0.3,0.3c0,0,0,0,0,0c0.1-1.7-0.5-4.8-1.1-4.9c-0.3-0.1-0.4-0.3-0.3-0.6c0.1-0.3,0.4-0.4,0.6-0.3
				C20,13,20,18.4,20,18.5c0,0.5-0.2,0.9-0.6,1C19.3,19.5,19.2,19.5,19.1,19.5z"/>
		</g>
		<g>
			<path d="M24,19.5c-0.8,0-1.3-1.1-1.8-2.2c-0.3-0.6-0.6-1.3-0.8-1.6c-0.2-0.2-0.2-0.5,0-0.7s0.5-0.2,0.7,0
				c0.4,0.4,0.7,1.2,1.1,1.9c0.2,0.5,0.5,1.3,0.8,1.5c0.2-0.5,0.2-1.9,0.1-3.4c0-0.3,0.2-0.5,0.4-0.5c0.3,0,0.5,0.2,0.5,0.4
				c0.1,1,0.3,3.5-0.4,4.3C24.4,19.4,24.2,19.5,24,19.5z"/>
		</g>
	</g>
	<g>
		<g>
			<path d="M10,11.5c-0.1,0-0.3,0-0.4-0.1c-0.2-0.2-0.2-0.5,0-0.7c0.8-0.8,0.5-1.9-0.1-3.5C9,5.6,8.4,3.9,9.6,2.6
				c0.2-0.2,0.5-0.2,0.7,0s0.2,0.5,0,0.7c-0.8,0.8-0.5,1.8,0.1,3.4c0.6,1.5,1.2,3.3-0.1,4.6C10.3,11.5,10.1,11.5,10,11.5z"/>
		</g>
		<g>
			<path d="M15,11.5c-0.1,0-0.3,0-0.4-0.1c-0.2-0.2-0.2-0.5,0-0.7c0.8-0.8,0.5-1.9-0.1-3.5c-0.5-1.5-1.2-3.2,0.1-4.5
				c0.2-0.2,0.5-0.2,0.7,0s0.2,0.5,0,0.7c-0.8,0.8-0.5,1.8,0.1,3.4c0.6,1.5,1.2,3.3-0.1,4.6C15.3,11.5,15.1,11.5,15,11.5z"/>
		</g>
		<g>
			<path d="M20,11.5c-0.1,0-0.3,0-0.4-0.1c-0.2-0.2-0.2-0.5,0-0.7c0.8-0.8,0.5-1.9-0.1-3.5c-0.5-1.5-1.2-3.2,0.1-4.5
				c0.2-0.2,0.5-0.2,0.7,0s0.2,0.5,0,0.7c-0.8,0.8-0.5,1.8,0.1,3.4c0.6,1.5,1.2,3.3-0.1,4.6C20.3,11.5,20.1,11.5,20,11.5z"/>
		</g>
	</g>
</g>
</svg>
