<?xml version="1.0" encoding="utf-8"?>
<!-- Generator: Adobe Illustrator 19.0.0, SVG Export Plug-In . SVG Version: 6.00 Build 0)  -->
<svg version="1.1" id="Layer_1" xmlns="http://www.w3.org/2000/svg" xmlns:xlink="http://www.w3.org/1999/xlink" x="0px" y="0px"
	 viewBox="0 0 30 30" style="enable-background:new 0 0 30 30;" xml:space="preserve">
<g>
	<path d="M27.5,14.5h2c0.3,0,0.5-0.2,0.5-0.5s-0.2-0.5-0.5-0.5h-2c-0.3,0-0.5,0.2-0.5,0.5S27.2,14.5,27.5,14.5z"/>
	<path d="M24.9,8.1c0.1,0,0.3,0,0.4-0.1l1.4-1.4c0.2-0.2,0.2-0.5,0-0.7s-0.5-0.2-0.7,0l-1.4,1.4c-0.2,0.2-0.2,0.5,0,0.7
		C24.6,8.1,24.7,8.1,24.9,8.1z"/>
	<path d="M18.5,5.5C18.8,5.5,19,5.3,19,5V3c0-0.3-0.2-0.5-0.5-0.5S18,2.7,18,3v2C18,5.3,18.2,5.5,18.5,5.5z"/>
	<path d="M11.8,8c0.1,0.1,0.2,0.1,0.4,0.1s0.3,0,0.4-0.1c0.2-0.2,0.2-0.5,0-0.7l-1.4-1.4c-0.2-0.2-0.5-0.2-0.7,0s-0.2,0.5,0,0.7
		L11.8,8z"/>
	<path d="M23,13.5c-0.5,0-1.1,0.1-1.6,0.2c-1.6-3.2-4.8-5.2-8.3-5.2c-4.6,0-8.5,3.4-9.2,8C1.6,17.2,0,19.4,0,21.9
		c0,3.1,2.5,5.6,5.5,5.6h17.7c0.1,0,0.1,0,0.2,0c3.7-0.2,6.6-3.3,6.6-7C30,16.6,26.9,13.5,23,13.5z"/>
	<path d="M15.9,7.9c2.4,0.7,4.5,2.3,5.8,4.4c0.1,0.2,0.3,0.3,0.5,0.2c1-0.1,1.9,0,2.9,0.3c0,0,0.1,0,0.1,0c0,0,0,0,0,0
		c0.3,0,0.5-0.2,0.5-0.5c0-0.1,0-0.2-0.1-0.3c-0.9-3.3-3.8-5.6-7.2-5.6c-0.9,0-1.8,0.2-2.6,0.5c-0.2,0.1-0.3,0.3-0.3,0.5
		C15.6,7.7,15.7,7.9,15.9,7.9z"/>
</g>
</svg>
