<?xml version="1.0" encoding="iso-8859-1"?>
<!-- Generator: Adobe Illustrator 19.0.0, SVG Export Plug-In . SVG Version: 6.00 Build 0)  -->
<svg version="1.1" id="Layer_1" xmlns="http://www.w3.org/2000/svg" xmlns:xlink="http://www.w3.org/1999/xlink" x="0px" y="0px"
	 viewBox="0 0 24 24" style="enable-background:new 0 0 24 24;" xml:space="preserve">
<g>
	<g>
		<path d="M20.145,18.647L19,19.792V15c0-0.276-0.224-0.5-0.5-0.5S18,14.724,18,15v4.794l-1.147-1.147
			c-0.195-0.195-0.512-0.195-0.707,0c-0.195,0.195-0.195,0.512,0,0.707l2,2c0.017,0.016,0.038,0.023,0.056,0.037
			c0.034,0.026,0.067,0.054,0.107,0.07C18.37,21.487,18.435,21.5,18.5,21.5c0.065,0,0.13-0.013,0.191-0.039
			c0.062-0.026,0.118-0.064,0.165-0.111l1.996-1.996c0.195-0.195,0.195-0.512,0-0.707C20.657,18.452,20.34,18.452,20.145,18.647z
			 M19,6.5c-1.103,0-2,0.897-2,2s0.897,2,2,2s2-0.897,2-2C21,7.397,20.103,6.5,19,6.5z M19,9.5c-0.552,0-1-0.449-1-1s0.448-1,1-1
			s1,0.449,1,1S19.552,9.5,19,9.5z M11.794,15.5H2.5C1.673,15.5,1,14.827,1,14V3c0-0.827,0.673-1.5,1.5-1.5h12.335
			c0.626,0,1.226,0.232,1.687,0.655l6.059,5.535C22.847,7.882,23,8.177,23,8.5s-0.153,0.619-0.464,0.849l-1.903,1.74l0.675,0.738
			l1.857-1.705C23.688,9.745,24,9.139,24,8.5c0-0.637-0.312-1.244-0.79-1.586l-6.014-5.497C16.55,0.826,15.712,0.5,14.835,0.5H2.5
			C1.121,0.5,0,1.622,0,3v11c0,1.378,1.121,2.5,2.5,2.5h9.294c0.276,0,0.5-0.224,0.5-0.5S12.07,15.5,11.794,15.5z M4,10.923V13
			c0,0.276,0.224,0.5,0.5,0.5h2.077c0.133,0,0.26-0.053,0.353-0.146l3.35-3.35c0.154,0.024,0.304,0.035,0.45,0.035
			c1.803,0,3.27-1.467,3.27-3.27s-1.466-3.27-3.269-3.27c-1.803,0-3.269,1.466-3.269,3.269c0,0.149,0.011,0.298,0.034,0.451
			l-3.35,3.35C4.053,10.663,4,10.79,4,10.923z M5,11.13l3.389-3.39c0.122-0.122,0.173-0.298,0.134-0.466
			C8.482,7.095,8.461,6.93,8.461,6.769c0-1.251,1.018-2.269,2.269-2.269c1.251,0,2.27,1.018,2.271,2.268
			c0,1.252-1.019,2.27-2.27,2.27c-0.157,0-0.322-0.02-0.506-0.062C10.055,8.935,9.881,8.988,9.76,9.11L6.37,12.5H5V11.13z
			 M18.5,12.5c-3.032,0-5.5,2.467-5.5,5.5s2.468,5.5,5.5,5.5S24,21.033,24,18S21.532,12.5,18.5,12.5z M18.5,22.5
			c-2.481,0-4.5-2.019-4.5-4.5s2.019-4.5,4.5-4.5S23,15.519,23,18S20.981,22.5,18.5,22.5z M11.5,6.5C11.776,6.5,12,6.276,12,6
			s-0.224-0.5-0.5-0.5S11,5.724,11,6S11.224,6.5,11.5,6.5z"/>
	</g>
</g>
</svg>
