<?xml version="1.0" encoding="iso-8859-1"?>
<!-- Generator: Adobe Illustrator 19.0.0, SVG Export Plug-In . SVG Version: 6.00 Build 0)  -->
<svg version="1.1" id="Layer_1" xmlns="http://www.w3.org/2000/svg" xmlns:xlink="http://www.w3.org/1999/xlink" x="0px" y="0px"
	 viewBox="0 0 24 24" style="enable-background:new 0 0 24 24;" xml:space="preserve">
<g>
	<g>
		<path d="M11.794,15.5H2.5C1.673,15.5,1,14.827,1,14V3c0-0.827,0.673-1.5,1.5-1.5h12.334c0.626,0,1.226,0.233,1.688,0.655
			l6.059,5.535C22.847,7.882,23,8.177,23,8.5s-0.153,0.619-0.464,0.849l-1.903,1.74l0.675,0.738l1.857-1.705
			C23.688,9.745,24,9.139,24,8.5c0-0.637-0.312-1.244-0.79-1.586l-6.014-5.497C16.55,0.826,15.712,0.5,14.835,0.5H2.5
			C1.121,0.5,0,1.622,0,3v11c0,1.378,1.121,2.5,2.5,2.5h9.294c0.276,0,0.5-0.224,0.5-0.5S12.07,15.5,11.794,15.5z M19,6.5
			c-1.103,0-2,0.897-2,2s0.897,2,2,2c1.103,0,2-0.897,2-2C21,7.397,20.103,6.5,19,6.5z M19,9.5c-0.552,0-1-0.449-1-1s0.448-1,1-1
			s1,0.449,1,1S19.552,9.5,19,9.5z M11.5,6.5C11.776,6.5,12,6.276,12,6s-0.224-0.5-0.5-0.5S11,5.724,11,6S11.224,6.5,11.5,6.5z
			 M19,17.793V15c0-0.276-0.224-0.5-0.5-0.5S18,14.724,18,15v3c0,0.133,0.053,0.26,0.146,0.354l2,2
			c0.098,0.097,0.226,0.146,0.354,0.146s0.256-0.049,0.354-0.146c0.195-0.195,0.195-0.512,0-0.707L19,17.793z M4,10.923V13
			c0,0.276,0.224,0.5,0.5,0.5h2.077c0.133,0,0.26-0.053,0.354-0.147l3.35-3.35c0.154,0.024,0.304,0.035,0.45,0.035
			c1.803,0,3.27-1.467,3.27-3.27s-1.467-3.269-3.27-3.269S7.462,4.965,7.462,6.768c0,0.149,0.011,0.298,0.034,0.451l-3.35,3.35
			C4.053,10.663,4,10.79,4,10.923z M5,11.13l3.39-3.391c0.122-0.122,0.173-0.298,0.134-0.466C8.483,7.094,8.462,6.929,8.462,6.768
			c0-1.251,1.018-2.269,2.269-2.269c1.251,0,2.27,1.018,2.27,2.269c0,1.252-1.019,2.27-2.27,2.27c-0.157,0-0.322-0.02-0.506-0.062
			C10.057,8.935,9.881,8.988,9.76,9.11L6.37,12.5H5V11.13z M18.5,12.5c-3.032,0-5.5,2.467-5.5,5.5s2.468,5.5,5.5,5.5
			S24,21.033,24,18S21.532,12.5,18.5,12.5z M18.5,22.5c-2.481,0-4.5-2.019-4.5-4.5s2.019-4.5,4.5-4.5S23,15.519,23,18
			S20.981,22.5,18.5,22.5z"/>
	</g>
</g>
</svg>
