<?xml version="1.0" encoding="iso-8859-1"?>
<!-- Generator: Adobe Illustrator 19.0.0, SVG Export Plug-In . SVG Version: 6.00 Build 0)  -->
<svg version="1.1" id="Layer_1" xmlns="http://www.w3.org/2000/svg" xmlns:xlink="http://www.w3.org/1999/xlink" x="0px" y="0px"
	 viewBox="0 0 24 24" style="enable-background:new 0 0 24 24;" xml:space="preserve">
<g>
	<g>
		<path d="M21,21h-0.5v-9.051c1.139-0.232,2-1.243,2.001-2.449c0-0.09-0.024-0.179-0.071-0.257L19.5,4.36V2.5
			C19.5,1.122,18.378,0,17,0H7C5.622,0,4.5,1.122,4.5,2.5v1.861L1.571,9.243C1.524,9.32,1.5,9.409,1.5,9.5
			c0,1.207,0.861,2.217,2,2.449V21H3c-1.378,0-2.5,1.122-2.5,2.5C0.5,23.776,0.724,24,1,24h22c0.276,0,0.5-0.224,0.5-0.5
			C23.5,22.122,22.378,21,21,21z M21.495,9.629C21.429,10.396,20.784,11,20,11c-0.827,0-1.5-0.673-1.51-1.598L17.61,5h1.107
			L21.495,9.629z M9.5,9.505C9.498,10.33,8.826,11,8.001,11c-0.827,0-1.5-0.673-1.51-1.402L6.51,9.504L7.411,5H9.5v4.5
			C9.5,9.502,9.5,9.503,9.5,9.505z M8,12c0.82,0,1.544-0.403,2-1.016C10.456,11.597,11.18,12,12,12s1.544-0.403,2-1.016
			C14.456,11.597,15.18,12,16,12c0.816,0,1.536-0.4,1.99-1.028c0.361,0.491,0.892,0.851,1.51,0.977V21h-15v-9.05
			c0.618-0.125,1.148-0.481,1.508-0.956C6.465,11.601,7.184,12,8,12z M10.5,9.5V5h3v4.5c0,0.827-0.673,1.5-1.5,1.5
			C11.173,11,10.5,10.327,10.5,9.5z M14.5,9.5V5h2.091L17.5,9.5c0,0.827-0.673,1.5-1.5,1.5C15.173,11,14.5,10.327,14.5,9.5z
			 M5.5,2.5C5.5,1.673,6.173,1,7,1h10c0.827,0,1.5,0.673,1.5,1.5V4h-1.499c0,0,0,0,0,0H7c0,0,0,0,0,0H5.5V2.5z M2.505,9.629L5.283,5
			h1.108L5.5,9.5C5.5,10.327,4.827,11,4,11C3.216,11,2.571,10.396,2.505,9.629z M1.585,23c0.207-0.582,0.763-1,1.414-1h18
			c0.652,0,1.208,0.418,1.415,1H1.585z M11,19h2.5c0.276,0,0.5-0.224,0.5-0.5S13.776,18,13.5,18h-2v-1H13c0.276,0,0.5-0.224,0.5-0.5
			S13.276,16,13,16h-1.5v-1h2c0.276,0,0.5-0.224,0.5-0.5S13.776,14,13.5,14H11c-0.276,0-0.5,0.224-0.5,0.5v4
			C10.5,18.776,10.724,19,11,19z M5.499,15.499c0,0.783,0.621,1.281,1.847,1.481l0.081-0.493l0.067,0.518
			c0.831,0.137,1.005,0.345,1.005,0.495c0,0.199-0.399,0.5-1.001,0.5c-0.591,0-0.981-0.282-1.001-0.484
			c-0.026-0.274-0.27-0.483-0.545-0.45c-0.275,0.026-0.476,0.27-0.45,0.545C5.578,18.403,6.436,19,7.499,19
			C8.621,19,9.5,18.341,9.5,17.5c0-0.782-0.62-1.28-1.844-1.481l-0.148-0.025C6.631,15.851,6.5,15.623,6.5,15.5
			c0-0.199,0.399-0.5,1.001-0.5c0.591,0,0.981,0.281,1.001,0.483c0.026,0.274,0.27,0.484,0.545,0.45
			c0.275-0.026,0.476-0.27,0.45-0.545c-0.076-0.792-0.934-1.389-1.997-1.389C6.378,13.999,5.499,14.658,5.499,15.499z M16.5,19
			c1.103,0,2-0.897,2-2v-1c0-1.103-0.897-2-2-2c-1.103,0-2,0.897-2,2v1C14.5,18.103,15.397,19,16.5,19z M15.5,16
			c0-0.551,0.449-1,1-1c0.551,0,1,0.449,1,1v1c0,0.551-0.449,1-1,1c-0.551,0-1-0.449-1-1V16z"/>
	</g>
</g>
</svg>
