<?xml version="1.0" encoding="iso-8859-1"?>
<!-- Generator: Adobe Illustrator 19.0.0, SVG Export Plug-In . SVG Version: 6.00 Build 0)  -->
<svg version="1.1" id="Layer_1" xmlns="http://www.w3.org/2000/svg" xmlns:xlink="http://www.w3.org/1999/xlink" x="0px" y="0px"
	 viewBox="0 0 24 24" style="enable-background:new 0 0 24 24;" xml:space="preserve">
<g>
	<g>
		<path d="M11.547,15.804c0.128,0,0.256-0.049,0.354-0.145l1.768-1.768c0.195-0.195,0.195-0.512,0-0.707s-0.512-0.195-0.707,0
			l-1.415,1.414l-0.708-0.708l1.06-1.06c0.195-0.195,0.195-0.512,0-0.707c-0.195-0.195-0.512-0.195-0.707,0l-1.06,1.06l-0.707-0.706
			l1.414-1.415c0.195-0.195,0.195-0.512,0-0.707c-0.195-0.195-0.512-0.195-0.707,0l-1.768,1.768c-0.195,0.195-0.195,0.512,0,0.707
			l2.828,2.828C11.291,15.755,11.419,15.804,11.547,15.804z M8.718,17.426c-0.418,0.418-0.895,0.495-1.05,0.366
			c-0.214-0.177-0.529-0.146-0.704,0.067c-0.176,0.213-0.146,0.528,0.067,0.704c0.233,0.192,0.526,0.285,0.84,0.285
			c0.514,0,1.088-0.248,1.554-0.714c0.352-0.352,0.594-0.782,0.68-1.212c0.099-0.496-0.02-0.957-0.326-1.263
			c-0.554-0.555-1.344-0.468-2.351,0.256l-0.121,0.086c-0.722,0.52-0.976,0.45-1.063,0.364c-0.145-0.144-0.078-0.63,0.354-1.062
			c0.418-0.418,0.893-0.493,1.05-0.366c0.213,0.176,0.529,0.146,0.704-0.067c0.176-0.213,0.146-0.528-0.067-0.704
			c-0.613-0.506-1.643-0.322-2.394,0.43c-0.793,0.793-0.949,1.881-0.354,2.476c0.553,0.553,1.346,0.466,2.354-0.26l-0.292-0.406
			l0.413,0.32c0.685-0.491,0.955-0.467,1.061-0.361c0.064,0.065,0.084,0.199,0.052,0.359C9.077,16.959,8.929,17.215,8.718,17.426z
			 M15.789,11.769c0.378-0.377,0.586-0.88,0.586-1.414s-0.208-1.036-0.586-1.414l-0.707-0.707c-0.78-0.78-2.048-0.781-2.829,0
			c-0.779,0.779-0.779,2.048,0,2.828l0.708,0.707c0.377,0.378,0.879,0.586,1.414,0.586C14.909,12.355,15.411,12.147,15.789,11.769z
			 M12.961,10.354c-0.39-0.39-0.39-1.024,0-1.414c0.195-0.194,0.451-0.292,0.707-0.292c0.256,0,0.513,0.098,0.708,0.292l0.707,0.707
			c0.189,0.189,0.293,0.44,0.293,0.707c0,0.267-0.104,0.518-0.293,0.707c-0.378,0.378-1.036,0.378-1.414,0L12.961,10.354z
			 M21.5-0.001h-6.343c-1.203,0-2.332,0.468-3.182,1.318L7.754,5.539C5.365,5.025,4,4.177,4,3.501C4,2.528,6.5,1.295,10.536,0.999
			c0.275-0.02,0.483-0.26,0.462-0.535c-0.02-0.275-0.245-0.479-0.535-0.462C6.75,0.274,3,1.461,3,3.501
			c0,1.318,1.65,2.281,3.93,2.861L0.852,12.44C0.302,12.99,0,13.721,0,14.502c0,0.778,0.303,1.508,0.853,2.058l6.588,6.588
			c0.55,0.55,1.281,0.853,2.062,0.853c0.777,0,1.508-0.303,2.057-0.854l2.372-2.372c0.195-0.195,0.195-0.512,0-0.707
			s-0.512-0.195-0.707,0l-2.372,2.372c-0.719,0.719-1.981,0.724-2.705,0L1.56,15.852C1.198,15.492,1,15.012,1,14.498
			c0-0.511,0.199-0.99,0.56-1.351l6.532-6.532c1.382,0.254,2.909,0.386,4.409,0.386c1.331,0,2.596-0.184,3.753-0.425
			c0.404,0.839,1.255,1.425,2.247,1.425c1.378,0,2.5-1.122,2.5-2.5s-1.122-2.5-2.5-2.5S16,4.123,16,5.501
			c0,0.036,0.009,0.07,0.011,0.106c-1.09,0.225-2.275,0.394-3.511,0.394c-1.317,0-2.507-0.091-3.551-0.244l3.733-3.733
			c0.662-0.661,1.54-1.025,2.475-1.025H21.5c0.827,0,1.5,0.673,1.5,1.5v6.343c0,0.935-0.364,1.814-1.025,2.475l-1.907,1.907
			c-0.195,0.195-0.195,0.512,0,0.707s0.512,0.195,0.707,0l1.907-1.907c0.85-0.85,1.318-1.98,1.318-3.182V2.499
			C24,1.121,22.878-0.001,21.5-0.001z M18.5,4.001c0.827,0,1.5,0.673,1.5,1.5s-0.673,1.5-1.5,1.5c-0.511,0-0.961-0.258-1.232-0.649
			c0.488-0.122,0.95-0.248,1.372-0.371c0.265-0.078,0.417-0.355,0.34-0.62c-0.077-0.265-0.356-0.419-0.62-0.34
			c-0.414,0.121-0.869,0.245-1.348,0.364C17.073,4.613,17.713,4.001,18.5,4.001z M23.5,15.001c-0.276,0-0.5,0.224-0.5,0.5v1.106
			c-0.84-0.871-2.113-1.606-3.5-1.606c-2.481,0-4.5,2.019-4.5,4.5s2.019,4.5,4.5,4.5c0.276,0,0.5-0.224,0.5-0.5s-0.224-0.5-0.5-0.5
			c-1.93,0-3.5-1.57-3.5-3.5s1.57-3.5,3.5-3.5c1.547,0,2.868,1.183,3.32,2H20.5c-0.276,0-0.5,0.224-0.5,0.5s0.224,0.5,0.5,0.5h3
			c0.276,0,0.5-0.224,0.5-0.5v-3C24,15.225,23.776,15.001,23.5,15.001z"/>
	</g>
</g>
</svg>
