<?xml version="1.0" encoding="utf-8"?>
<!-- Generator: Adobe Illustrator 19.0.0, SVG Export Plug-In . SVG Version: 6.00 Build 0)  -->
<svg version="1.1" id="Layer_1" xmlns="http://www.w3.org/2000/svg" xmlns:xlink="http://www.w3.org/1999/xlink" x="0px" y="0px"
	 viewBox="0 0 30 30" style="enable-background:new 0 0 30 30;" xml:space="preserve">
<g>
	<g>
		<path d="M25,11H1c-0.2,0-0.4-0.1-0.5-0.3c-0.1-0.2,0-0.4,0.1-0.5l3.6-3.6L0.6,2.9C0.5,2.7,0.5,2.5,0.5,2.3C0.6,2.1,0.8,2,1,2h24
			c0.1,0,0.3,0.1,0.4,0.1l4,4c0.2,0.2,0.2,0.5,0,0.7l-4,4C25.3,10.9,25.1,11,25,11z M2.2,10h22.6l3.5-3.5L24.8,3H2.2l3.1,3.1
			c0.2,0.2,0.2,0.5,0,0.7L2.2,10z"/>
	</g>
	<g>
		<path d="M29,21H5c-0.1,0-0.3-0.1-0.4-0.1l-4-4c-0.2-0.2-0.2-0.5,0-0.7l4-4C4.7,12.1,4.9,12,5,12h24c0.2,0,0.4,0.1,0.5,0.3
			c0.1,0.2,0,0.4-0.1,0.5l-3.6,3.6l3.6,3.6c0.1,0.1,0.2,0.4,0.1,0.5C29.4,20.9,29.2,21,29,21z M5.2,20h22.6l-3.1-3.1
			c-0.2-0.2-0.2-0.5,0-0.7l3.1-3.1H5.2l-3.5,3.5L5.2,20z"/>
	</g>
	<g>
		<path d="M17,30h-5c-0.3,0-0.5-0.2-0.5-0.5v-9c0-0.3,0.2-0.5,0.5-0.5h5c0.3,0,0.5,0.2,0.5,0.5v9C17.5,29.8,17.3,30,17,30z M12.5,29
			h4v-8h-4V29z"/>
	</g>
	<g>
		<path d="M17,13h-5c-0.3,0-0.5-0.2-0.5-0.5v-2c0-0.3,0.2-0.5,0.5-0.5h5c0.3,0,0.5,0.2,0.5,0.5v2C17.5,12.8,17.3,13,17,13z M12.5,12
			h4v-1h-4V12z"/>
	</g>
	<g>
		<path d="M17,3h-5c-0.3,0-0.5-0.2-0.5-0.5v-2C11.5,0.2,11.7,0,12,0h5c0.3,0,0.5,0.2,0.5,0.5v2C17.5,2.8,17.3,3,17,3z M12.5,2h4V1
			h-4V2z"/>
	</g>
</g>
</svg>
