<?xml version="1.0" encoding="utf-8"?>
<!-- Generator: Adobe Illustrator 19.0.0, SVG Export Plug-In . SVG Version: 6.00 Build 0)  -->
<svg version="1.1" id="Layer_1" xmlns="http://www.w3.org/2000/svg" xmlns:xlink="http://www.w3.org/1999/xlink" x="0px" y="0px"
	 viewBox="0 0 30 30" style="enable-background:new 0 0 30 30;" xml:space="preserve">
<g id="XMLID_68_">
	<g id="XMLID_233_">
		<path d="M23,25H7c-0.2,0-0.4-0.2-0.5-0.4l-2-9c0-0.2,0-0.3,0.1-0.5l10-10c0.2-0.2,0.5-0.2,0.7,0l10,10c0.1,0.1,0.2,0.3,0.1,0.5
			l-2,9C23.4,24.8,23.2,25,23,25z M7.4,24h15.2l1.9-8.3L15,6.2l-9.5,9.5L7.4,24z"/>
	</g>
	<g id="XMLID_71_">
		<path d="M1,20c-0.1,0-0.3,0-0.4-0.1c-0.2-0.2-0.2-0.5,0-0.7l4-4c0.2-0.2,0.5-0.2,0.7,0s0.2,0.5,0,0.7l-4,4C1.3,20,1.1,20,1,20z"/>
	</g>
	<g id="XMLID_70_">
		<path d="M15,25c-0.3,0-0.5-0.2-0.5-0.5V5.8c0-0.3,0.2-0.5,0.5-0.5s0.5,0.2,0.5,0.5c0,3.9,1.4,7.4,2.4,8.4c0.7,0.7,4.6,0.9,7.1,0.9
			c0.1,0,0.3,0.1,0.4,0.1l4,4c0.2,0.2,0.2,0.5,0,0.7s-0.5,0.2-0.7,0L24.8,16c-1.5,0-6.5,0-7.6-1.1c-0.6-0.6-1.2-1.7-1.6-3.1v12.7
			C15.5,24.8,15.3,25,15,25z"/>
	</g>
	<g id="XMLID_69_">
		<path d="M23,25c-0.1,0-0.2,0-0.3-0.1c-2-1.7-2.6-4.1-1.7-6.5c0.7-2,2.4-3.4,4.1-3.4c0.3,0,0.5,0.2,0.5,0.5S25.3,16,25,16
			c-1.2,0-2.5,1.2-3.1,2.8c-0.7,2-0.2,4,1.5,5.3c0.2,0.2,0.2,0.5,0.1,0.7C23.3,24.9,23.1,25,23,25z"/>
	</g>
</g>
</svg>
