<?xml version="1.0" encoding="utf-8"?>
<!-- Generator: Adobe Illustrator 19.0.0, SVG Export Plug-In . SVG Version: 6.00 Build 0)  -->
<svg version="1.1" id="Layer_1" xmlns="http://www.w3.org/2000/svg" xmlns:xlink="http://www.w3.org/1999/xlink" x="0px" y="0px"
	 viewBox="0 0 30 30" style="enable-background:new 0 0 30 30;" xml:space="preserve">
<g>
	<g>
		<path d="M24,27.5c-0.3,0-0.5-0.2-0.5-0.5c0-4.4-3.8-8-8.5-8s-8.5,3.6-8.5,8c0,0.3-0.2,0.5-0.5,0.5S5.5,27.3,5.5,27
			c0-5,4.3-9,9.5-9s9.5,4,9.5,9C24.5,27.3,24.3,27.5,24,27.5z"/>
	</g>
	<g>
		<path d="M15,30c-4.7,0-9.5-1-9.5-3s4.8-3,9.5-3s9.5,1,9.5,3S19.7,30,15,30z M15,25c-5.5,0-8.5,1.3-8.5,2s3,2,8.5,2s8.5-1.3,8.5-2
			S20.5,25,15,25z"/>
	</g>
	<g>
		<path d="M18,19c-0.3,0-0.5-0.2-0.5-0.5v-3.3c-1.6-0.3-3.4-0.3-5,0v3.3c0,0.3-0.2,0.5-0.5,0.5s-0.5-0.2-0.5-0.5v-3.7
			c0-0.2,0.2-0.4,0.4-0.5c2-0.4,4.2-0.4,6.2,0c0.2,0,0.4,0.3,0.4,0.5v3.7C18.5,18.8,18.3,19,18,19z"/>
	</g>
	<g>
		<path d="M17,15h-4c-0.3,0-0.5-0.2-0.5-0.5v-12C12.5,1.1,13.6,0,15,0s2.5,1.1,2.5,2.5v12C17.5,14.8,17.3,15,17,15z M13.5,14h3V2.5
			C16.5,1.7,15.8,1,15,1s-1.5,0.7-1.5,1.5V14z"/>
	</g>
</g>
</svg>
