<?xml version="1.0" encoding="iso-8859-1"?>
<!-- Generator: Adobe Illustrator 19.0.0, SVG Export Plug-In . SVG Version: 6.00 Build 0)  -->
<svg version="1.1" id="Layer_1" xmlns="http://www.w3.org/2000/svg" xmlns:xlink="http://www.w3.org/1999/xlink" x="0px" y="0px"
	 viewBox="0 0 30 30" style="enable-background:new 0 0 30 30;" xml:space="preserve">
<g>
	<g>
		<path d="M26.875,6.705c-0.021-0.027-0.025-0.064-0.053-0.087L26.789,6.59c-1.434-2.004-3.363-3.623-5.61-4.688
			c-0.01-0.004-0.019-0.011-0.03-0.014C19.279,1.007,17.2,0.5,15,0.5C7.005,0.5,0.5,7.005,0.5,15S7.005,29.5,15,29.5
			c1.341,0,2.635-0.198,3.868-0.54C18.913,28.973,18.954,29,19,29c0.089,0,0.178-0.023,0.257-0.071l0.271-0.163
			C25.311,26.858,29.5,21.413,29.5,15C29.5,11.915,28.524,9.058,26.875,6.705z M1.711,17.3C1.582,16.551,1.5,15.786,1.5,15
			c0-3.22,1.137-6.178,3.025-8.501c5.597-0.274,8.003,0.228,9.267,0.731C13.61,7.618,13.5,8.045,13.5,8.5
			c0,0.051,0.013,0.099,0.015,0.15C8.259,10.578,3.734,14.588,1.711,17.3z M18.56,28.007c-1.136,0.311-2.326,0.492-3.56,0.492
			c-2.56,0.001-4.947-0.728-6.989-1.971c1.025-4.313,4.251-10.117,7.311-15.271c0.362,0.155,0.76,0.242,1.178,0.242
			c0.057,0,0.11-0.014,0.166-0.017C18.175,14.89,19.511,21.106,18.56,28.007z M14.5,8.5c0-1.103,0.897-2,2-2c1.103,0,2,0.897,2,2
			c0,1.103-0.897,2-2,2C15.397,10.5,14.5,9.603,14.5,8.5z M17.184,5.586C16.964,5.534,16.736,5.5,16.5,5.5
			c-0.217,0-0.429,0.026-0.633,0.07c-0.625-1.616-1.499-2.837-2.825-3.911C13.683,1.565,14.333,1.5,15,1.5
			c1.8,0,3.515,0.361,5.087,1.003c-0.053,0.047-0.104,0.094-0.157,0.141C18.993,3.476,18.027,4.345,17.184,5.586z M19.168,9.843
			C19.373,9.437,19.5,8.985,19.5,8.5c0-0.203-0.021-0.402-0.06-0.594c1.744-0.438,4.031-0.833,6.757-0.44
			C27.651,9.619,28.5,12.212,28.5,15c0,1.655-0.314,3.234-0.861,4.7C26.494,16.785,22.992,12.369,19.168,9.843z"/>
	</g>
</g>
</svg>
