<?xml version="1.0" encoding="iso-8859-1"?>
<!-- Generator: Adobe Illustrator 19.0.0, SVG Export Plug-In . SVG Version: 6.00 Build 0)  -->
<svg version="1.1" id="Layer_1" xmlns="http://www.w3.org/2000/svg" xmlns:xlink="http://www.w3.org/1999/xlink" x="0px" y="0px"
	 viewBox="0 0 24 24" style="enable-background:new 0 0 24 24;" xml:space="preserve">
<g>
	<g>
		<path d="M8.584,16.727v1.803c0.575-0.141,1-0.511,1-0.936C9.584,17.197,9.251,16.919,8.584,16.727z"/>
		<path d="M6.584,14.594c0,0.397,0.333,0.674,1,0.867v-1.803C7.009,13.799,6.584,14.169,6.584,14.594z"/>
		<path d="M8.084,8.594c-4.136,0-7.5,3.364-7.5,7.5s3.364,7.5,7.5,7.5s7.5-3.364,7.5-7.5S12.22,8.594,8.084,8.594z M8.584,19.553
			v0.541c0,0.276-0.224,0.5-0.5,0.5s-0.5-0.224-0.5-0.5v-0.539c-1.094-0.171-1.92-0.897-1.998-1.823
			c-0.023-0.275,0.181-0.517,0.456-0.54c0.252-0.034,0.517,0.18,0.54,0.456c0.034,0.406,0.451,0.75,1.002,0.884v-2.039
			c-1.344-0.331-2-0.962-2-1.899c0-0.966,0.86-1.773,2-1.959v-0.541c0-0.276,0.224-0.5,0.5-0.5s0.5,0.224,0.5,0.5v0.539
			c1.094,0.171,1.92,0.897,1.998,1.822c0.023,0.275-0.181,0.518-0.456,0.541c-0.257,0.026-0.518-0.18-0.54-0.456
			c-0.034-0.406-0.451-0.75-1.002-0.884v2.039c1.345,0.331,2,0.962,2,1.899C10.584,18.559,9.724,19.367,8.584,19.553z"/>
	</g>
	<g>
		<path d="M17.584,9.594c0-0.397-0.334-0.675-1-0.867v1.803C17.16,10.389,17.584,10.019,17.584,9.594z"/>
		<path d="M16.084,0.594c-3.976,0-7.23,3.112-7.476,7.027c1.963,0.121,3.597,0.741,4.976,1.973c-0.046-0.041,0.06,0.083,0.013,0.043
			c0.026-0.233,0.203-0.425,0.445-0.445c0.252-0.033,0.517,0.18,0.54,0.456c0.034,0.406,0.451,0.75,1.002,0.884V8.493
			c-1.344-0.331-2-0.962-2-1.899c0-0.966,0.86-1.773,2-1.959V4.094c0-0.276,0.224-0.5,0.5-0.5c0.276,0,0.5,0.224,0.5,0.5v0.539
			c1.094,0.171,1.92,0.897,1.998,1.822c0.023,0.275-0.181,0.518-0.456,0.541c-0.257,0.027-0.518-0.18-0.54-0.456
			c-0.034-0.406-0.451-0.75-1.002-0.884v2.039c1.345,0.331,2,0.962,2,1.899c0,0.965-0.86,1.773-2,1.959v0.541
			c0,0.276-0.224,0.5-0.5,0.5c-0.125,0-0.236-0.05-0.324-0.126c-0.057-0.12,0.702,1.547,0.797,3.102
			c3.915-0.246,7.027-3.5,7.027-7.476C23.584,3.958,20.22,0.594,16.084,0.594z"/>
		<path d="M14.584,6.594c0,0.397,0.333,0.674,1,0.867V5.658C15.009,5.799,14.584,6.169,14.584,6.594z"/>
	</g>
</g>
<g>
</g>
<g>
</g>
<g>
</g>
<g>
</g>
<g>
</g>
<g>
</g>
<g>
</g>
<g>
</g>
<g>
</g>
<g>
</g>
<g>
</g>
<g>
</g>
<g>
</g>
<g>
</g>
<g>
</g>
</svg>
