<?xml version="1.0" encoding="iso-8859-1"?>
<!-- Generator: Adobe Illustrator 19.0.0, SVG Export Plug-In . SVG Version: 6.00 Build 0)  -->
<svg version="1.1" id="Layer_1" xmlns="http://www.w3.org/2000/svg" xmlns:xlink="http://www.w3.org/1999/xlink" x="0px" y="0px"
	 viewBox="0 0 24 24" style="enable-background:new 0 0 24 24;" xml:space="preserve">
<g>
	<path d="M12.584,12.727v1.803c0.575-0.141,1-0.511,1-0.936C13.584,13.197,13.251,12.919,12.584,12.727z"/>
	<path d="M10.584,10.594c0,0.397,0.334,0.674,1,0.867V9.658C11.009,9.799,10.584,10.169,10.584,10.594z"/>
	<path d="M23.084,4.594h-22c-0.276,0-0.5,0.224-0.5,0.5v14c0,0.276,0.224,0.5,0.5,0.5h22c0.276,0,0.5-0.224,0.5-0.5v-14
		C23.584,4.817,23.361,4.594,23.084,4.594z M5.084,17.594h-2c-0.276,0-0.5-0.224-0.5-0.5s0.224-0.5,0.5-0.5h2
		c0.276,0,0.5,0.224,0.5,0.5S5.361,17.594,5.084,17.594z M12.584,15.553v0.541c0,0.276-0.224,0.5-0.5,0.5s-0.5-0.224-0.5-0.5v-0.539
		c-1.094-0.171-1.921-0.898-1.998-1.823c-0.023-0.275,0.181-0.517,0.456-0.54c0.271-0.024,0.517,0.181,0.54,0.456
		c0.034,0.406,0.451,0.75,1.002,0.884v-2.039c-1.345-0.331-2-0.963-2-1.899c0-0.966,0.86-1.773,2-1.959V8.094
		c0-0.276,0.224-0.5,0.5-0.5s0.5,0.224,0.5,0.5v0.539c1.094,0.171,1.92,0.897,1.998,1.823c0.023,0.275-0.181,0.517-0.456,0.54
		c-0.266,0.028-0.517-0.181-0.54-0.456c-0.034-0.406-0.451-0.749-1.002-0.884v2.039c1.345,0.331,2,0.962,2,1.9
		C14.584,14.56,13.724,15.367,12.584,15.553z M21.084,7.594h-2c-0.276,0-0.5-0.224-0.5-0.5s0.224-0.5,0.5-0.5h2
		c0.276,0,0.5,0.224,0.5,0.5S21.361,7.594,21.084,7.594z"/>
</g>
<g>
</g>
<g>
</g>
<g>
</g>
<g>
</g>
<g>
</g>
<g>
</g>
<g>
</g>
<g>
</g>
<g>
</g>
<g>
</g>
<g>
</g>
<g>
</g>
<g>
</g>
<g>
</g>
<g>
</g>
</svg>
