<?xml version="1.0" encoding="iso-8859-1"?>
<!-- Generator: Adobe Illustrator 19.0.0, SVG Export Plug-In . SVG Version: 6.00 Build 0)  -->
<svg version="1.1" id="Layer_1" xmlns="http://www.w3.org/2000/svg" xmlns:xlink="http://www.w3.org/1999/xlink" x="0px" y="0px"
	 viewBox="0 0 24 24" style="enable-background:new 0 0 24 24;" xml:space="preserve">
<g>
	<g>
		<path d="M13.584,8.094c0,0.397,0.334,0.674,1,0.867V7.158C14.009,7.299,13.584,7.669,13.584,8.094z"/>
		<path d="M15.584,10.227v1.803c0.575-0.141,1-0.511,1-0.936C16.584,10.697,16.251,10.419,15.584,10.227z"/>
		<path d="M15.084,1.094c-4.687,0-8.5,3.813-8.5,8.5c0,3.612,2.269,6.697,5.453,7.926l1.986-1.986
			c0.283-0.283,0.66-0.439,1.061-0.439s0.777,0.156,1.061,0.439l1.986,1.986c3.184-1.229,5.453-4.314,5.453-7.926
			C23.584,4.907,19.771,1.094,15.084,1.094z M15.584,13.053v0.541c0,0.276-0.224,0.5-0.5,0.5s-0.5-0.224-0.5-0.5v-0.539
			c-1.094-0.171-1.921-0.898-1.998-1.823c-0.023-0.275,0.181-0.517,0.456-0.54c0.274-0.021,0.517,0.181,0.54,0.456
			c0.034,0.406,0.451,0.75,1.002,0.884V9.993c-1.345-0.331-2-0.963-2-1.899c0-0.966,0.86-1.773,2-1.959V5.594
			c0-0.276,0.224-0.5,0.5-0.5s0.5,0.224,0.5,0.5v0.539c1.094,0.171,1.92,0.897,1.998,1.823c0.023,0.275-0.181,0.517-0.456,0.54
			c-0.271,0.03-0.517-0.181-0.54-0.456c-0.034-0.406-0.451-0.749-1.002-0.884v2.039c1.345,0.331,2,0.962,2,1.9
			C17.584,12.06,16.724,12.867,15.584,13.053z"/>
	</g>
	<path d="M21.276,17.132c-0.185-0.078-0.402-0.035-0.545,0.108l-2.146,2.146l-3.146-3.146c-0.195-0.195-0.512-0.195-0.707,0
		l-3.646,3.646L1.438,10.24c-0.195-0.195-0.512-0.195-0.707,0s-0.195,0.512,0,0.707l10,10c0.098,0.098,0.226,0.146,0.354,0.146
		s0.256-0.049,0.354-0.146l3.646-3.646l2.793,2.793l-2.146,2.146c-0.143,0.143-0.186,0.358-0.108,0.545s0.26,0.309,0.462,0.309h5
		c0.276,0,0.5-0.224,0.5-0.5v-5C21.584,17.392,21.462,17.209,21.276,17.132z"/>
</g>
<g>
</g>
<g>
</g>
<g>
</g>
<g>
</g>
<g>
</g>
<g>
</g>
<g>
</g>
<g>
</g>
<g>
</g>
<g>
</g>
<g>
</g>
<g>
</g>
<g>
</g>
<g>
</g>
<g>
</g>
</svg>
