<?xml version="1.0" encoding="iso-8859-1"?>
<!-- Generator: Adobe Illustrator 19.0.0, SVG Export Plug-In . SVG Version: 6.00 Build 0)  -->
<svg version="1.1" id="Layer_1" xmlns="http://www.w3.org/2000/svg" xmlns:xlink="http://www.w3.org/1999/xlink" x="0px" y="0px"
	 viewBox="0 0 24 24" style="enable-background:new 0 0 24 24;" xml:space="preserve">
<g>
	<rect x="9.084" y="8.594" width="3" height="10"/>
	<path d="M20.084,8.594h-7v10h7V8.594z M18.584,15.594c-0.276,0-0.5,0.224-0.5,0.5c0,0.276-0.224,0.5-0.5,0.5h-3
		c-0.276,0-0.5-0.224-0.5-0.5c0-0.276,0.224-0.5,0.5-0.5h2.585c0.151-0.426,0.489-0.764,0.915-0.915v-3.171
		c-0.426-0.151-0.764-0.489-0.915-0.915h-2.585c-0.276,0-0.5-0.224-0.5-0.5s0.224-0.5,0.5-0.5h3c0.276,0,0.5,0.224,0.5,0.5
		c0,0.276,0.224,0.5,0.5,0.5c0.276,0,0.5,0.224,0.5,0.5v4C19.084,15.37,18.861,15.594,18.584,15.594z"/>
	<polygon points="12.418,7.594 15.085,5.594 12.751,5.594 10.084,7.594 	"/>
	<polygon points="16.751,5.594 14.084,7.594 20.433,7.594 23.433,5.594 	"/>
	<path d="M8.084,8.594h-8v9.5c0,0.276,0.224,0.5,0.5,0.5h7.5V8.594z M6.584,16.594h-3c-0.276,0-0.5-0.224-0.5-0.5
		c0-0.276-0.224-0.5-0.5-0.5c-0.276,0-0.5-0.224-0.5-0.5v-4c0-0.276,0.224-0.5,0.5-0.5c0.276,0,0.5-0.224,0.5-0.5
		c0-0.276,0.224-0.5,0.5-0.5h3c0.276,0,0.5,0.224,0.5,0.5s-0.224,0.5-0.5,0.5H3.999c-0.151,0.426-0.489,0.764-0.915,0.915v3.171
		c0.426,0.151,0.764,0.489,0.915,0.915h2.585c0.276,0,0.5,0.224,0.5,0.5C7.084,16.37,6.861,16.594,6.584,16.594z"/>
	<path d="M8.418,7.594l2.667-2h-7.5c-0.099,0-0.195,0.029-0.277,0.084L0.433,7.594H8.418z"/>
	<path d="M21.084,8.361v10l2.777-1.852c0.139-0.093,0.223-0.249,0.223-0.416V6.361L21.084,8.361z"/>
</g>
<g>
</g>
<g>
</g>
<g>
</g>
<g>
</g>
<g>
</g>
<g>
</g>
<g>
</g>
<g>
</g>
<g>
</g>
<g>
</g>
<g>
</g>
<g>
</g>
<g>
</g>
<g>
</g>
<g>
</g>
</svg>
