<?xml version="1.0" encoding="iso-8859-1"?>
<!-- Generator: Adobe Illustrator 19.0.0, SVG Export Plug-In . SVG Version: 6.00 Build 0)  -->
<svg version="1.1" id="Layer_1" xmlns="http://www.w3.org/2000/svg" xmlns:xlink="http://www.w3.org/1999/xlink" x="0px" y="0px"
	 viewBox="0 0 24 24" style="enable-background:new 0 0 24 24;" xml:space="preserve">
<g>
	<path d="M21,1H3C1.622,1,0.5,2.122,0.5,3.5v11C0.5,15.878,1.622,17,3,17h3c0.276,0,0.5-0.224,0.5-0.5c0-0.553,0.31-1.06,0.81-1.322
		c0.14-0.074,0.237-0.209,0.262-0.366C7.914,12.603,9.777,11,12,11s4.086,1.603,4.429,3.812c0.024,0.157,0.122,0.292,0.262,0.366
		c0.5,0.262,0.81,0.769,0.81,1.322c0,0.276,0.224,0.5,0.5,0.5h3c1.378,0,2.5-1.122,2.5-2.5v-11C23.5,2.122,22.378,1,21,1z
		 M8.354,9.854l-5,5C3.256,14.951,3.128,15,3,15s-0.256-0.049-0.354-0.146c-0.195-0.195-0.195-0.512,0-0.707l5-5
		c0.195-0.195,0.512-0.195,0.707,0S8.549,9.658,8.354,9.854z M13.523,9.517C13.068,9.846,12.534,10.01,12,10.01
		s-1.068-0.165-1.523-0.494l-7.77-5.611C2.483,3.744,2.433,3.431,2.595,3.207c0.161-0.224,0.473-0.274,0.698-0.112l7.77,5.611
		c0.569,0.411,1.306,0.411,1.875,0l7.77-5.611c0.224-0.162,0.536-0.112,0.698,0.112c0.162,0.224,0.111,0.537-0.112,0.698
		L13.523,9.517z M21.354,14.854C21.256,14.951,21.128,15,21,15s-0.256-0.049-0.354-0.146l-5-5c-0.195-0.195-0.195-0.512,0-0.707
		s0.512-0.195,0.707,0l5,5C21.549,14.342,21.549,14.658,21.354,14.854z"/>
	<path d="M16,16H8c-0.276,0-0.5,0.224-0.5,0.5v6C7.5,22.776,7.724,23,8,23h8c0.276,0,0.5-0.224,0.5-0.5v-6
		C16.5,16.224,16.276,16,16,16z M12.5,19.846V20.5c0,0.276-0.224,0.5-0.5,0.5s-0.5-0.224-0.5-0.5v-0.654
		C11.207,19.672,11,19.365,11,19c0-0.551,0.449-1,1-1s1,0.449,1,1C13,19.365,12.793,19.672,12.5,19.846z"/>
	<g>
		<path d="M15,17c-0.276,0-0.5-0.224-0.5-0.5v-1c0-1.378-1.122-2.5-2.5-2.5s-2.5,1.122-2.5,2.5v1C9.5,16.776,9.276,17,9,17
			s-0.5-0.224-0.5-0.5v-1c0-1.93,1.57-3.5,3.5-3.5s3.5,1.57,3.5,3.5v1C15.5,16.776,15.276,17,15,17z"/>
	</g>
</g>
<g>
</g>
<g>
</g>
<g>
</g>
<g>
</g>
<g>
</g>
<g>
</g>
<g>
</g>
<g>
</g>
<g>
</g>
<g>
</g>
<g>
</g>
<g>
</g>
<g>
</g>
<g>
</g>
<g>
</g>
</svg>
