<?xml version="1.0" encoding="iso-8859-1"?>
<!-- Generator: Adobe Illustrator 19.0.0, SVG Export Plug-In . SVG Version: 6.00 Build 0)  -->
<svg version="1.1" id="Layer_1" xmlns="http://www.w3.org/2000/svg" xmlns:xlink="http://www.w3.org/1999/xlink" x="0px" y="0px"
	 viewBox="0 0 24 24" style="enable-background:new 0 0 24 24;" xml:space="preserve">
<g>
	<g>
		<path d="M16,13.5c-0.276,0-0.5,0.224-0.5,0.5v1.106C14.66,14.235,13.387,13.5,12,13.5c-2.481,0-4.5,2.019-4.5,4.5
			s2.019,4.5,4.5,4.5c0.276,0,0.5-0.224,0.5-0.5s-0.224-0.5-0.5-0.5c-1.93,0-3.5-1.57-3.5-3.5s1.57-3.5,3.5-3.5
			c1.547,0,2.868,1.183,3.32,2H13c-0.276,0-0.5,0.224-0.5,0.5s0.224,0.5,0.5,0.5h3c0.276,0,0.5-0.224,0.5-0.5v-3
			C16.5,13.724,16.276,13.5,16,13.5z"/>
	</g>
	<g>
		<g>
			<path d="M12,22.5c-2.481,0-4.5-2.019-4.5-4.5s2.019-4.5,4.5-4.5c2.397,0,4.5,2.182,4.5,3.5c0,0.276-0.224,0.5-0.5,0.5
				s-0.5-0.224-0.5-0.5c0-0.685-1.59-2.5-3.5-2.5c-1.93,0-3.5,1.57-3.5,3.5s1.57,3.5,3.5,3.5c0.276,0,0.5,0.224,0.5,0.5
				S12.276,22.5,12,22.5z"/>
		</g>
		<g>
			<path d="M16,17.5h-3c-0.276,0-0.5-0.224-0.5-0.5s0.224-0.5,0.5-0.5h2.5V14c0-0.276,0.224-0.5,0.5-0.5s0.5,0.224,0.5,0.5v3
				C16.5,17.276,16.276,17.5,16,17.5z"/>
		</g>
	</g>
	<path d="M21,1.5H3C1.622,1.5,0.5,2.622,0.5,4v11c0,1.378,1.122,2.5,2.5,2.5h3.09c0.244,0,0.452-0.176,0.493-0.417
		C7.032,14.428,9.31,12.5,12,12.5c0.779,0,1.571,0.188,2.354,0.559c0.191,0.092,0.424,0.051,0.573-0.103
		C15.212,12.662,15.594,12.5,16,12.5c0.827,0,1.5,0.673,1.5,1.5v3c0,0.276,0.224,0.5,0.5,0.5h3c1.378,0,2.5-1.122,2.5-2.5V4
		C23.5,2.622,22.378,1.5,21,1.5z M8.354,10.354l-5,5C3.256,15.451,3.128,15.5,3,15.5s-0.256-0.049-0.354-0.146
		c-0.195-0.195-0.195-0.512,0-0.707l5-5c0.195-0.195,0.512-0.195,0.707,0S8.549,10.158,8.354,10.354z M13.523,10.017
		c-0.456,0.329-0.99,0.494-1.523,0.494s-1.068-0.165-1.523-0.494l-7.77-5.611C2.483,4.244,2.433,3.931,2.595,3.707
		c0.161-0.224,0.473-0.275,0.698-0.112l7.77,5.611c0.569,0.411,1.306,0.411,1.875,0l7.77-5.611c0.224-0.163,0.536-0.112,0.698,0.112
		c0.162,0.224,0.111,0.537-0.112,0.698L13.523,10.017z M21.354,15.354C21.256,15.451,21.128,15.5,21,15.5s-0.256-0.049-0.354-0.146
		l-5-5c-0.195-0.195-0.195-0.512,0-0.707s0.512-0.195,0.707,0l5,5C21.549,14.842,21.549,15.158,21.354,15.354z"/>
</g>
<g>
</g>
<g>
</g>
<g>
</g>
<g>
</g>
<g>
</g>
<g>
</g>
<g>
</g>
<g>
</g>
<g>
</g>
<g>
</g>
<g>
</g>
<g>
</g>
<g>
</g>
<g>
</g>
<g>
</g>
</svg>
