<?xml version="1.0" encoding="iso-8859-1"?>
<!-- Generator: Adobe Illustrator 18.0.0, SVG Export Plug-In . SVG Version: 6.00 Build 0)  -->
<!DOCTYPE svg PUBLIC "-//W3C//DTD SVG 1.1//EN" "http://www.w3.org/Graphics/SVG/1.1/DTD/svg11.dtd">
<svg version="1.1" id="Layer_1" xmlns="http://www.w3.org/2000/svg" xmlns:xlink="http://www.w3.org/1999/xlink" x="0px" y="0px"
	 viewBox="0 0 24 24" style="enable-background:new 0 0 24 24;" xml:space="preserve">
<g>
	<g>
		<path d="M7.5,2h-2C5.224,2,5,1.776,5,1.5S5.224,1,5.5,1h2C7.777,1,8,1.224,8,1.5S7.777,2,7.5,2z"/>
		<path d="M13.5,2h-2C11.224,2,11,1.776,11,1.5S11.224,1,11.5,1h2C13.777,1,14,1.224,14,1.5S13.777,2,13.5,2z"/>
		<path d="M7.5,17.5h-2C5.224,17.5,5,17.276,5,17s0.224-0.5,0.5-0.5h2C7.777,16.5,8,16.724,8,17S7.777,17.5,7.5,17.5z"/>
		<path d="M13.5,17.5h-2c-0.276,0-0.5-0.224-0.5-0.5s0.224-0.5,0.5-0.5h2c0.276,0,0.5,0.224,0.5,0.5S13.777,17.5,13.5,17.5z"/>
		<path d="M1.5,14C1.224,14,1,13.776,1,13.5v-2C1,11.224,1.224,11,1.5,11S2,11.224,2,11.5v2C2,13.776,1.777,14,1.5,14z"/>
		<path d="M1.5,8C1.224,8,1,7.776,1,7.5v-2C1,5.224,1.224,5,1.5,5S2,5.224,2,5.5v2C2,7.776,1.777,8,1.5,8z"/>
		<path d="M17.5,14c-0.276,0-0.5-0.224-0.5-0.5v-2c0-0.276,0.224-0.5,0.5-0.5s0.5,0.224,0.5,0.5v2C18,13.776,17.777,14,17.5,14z"/>
		<path d="M17.5,8C17.224,8,17,7.776,17,7.5v-2C17,5.224,17.224,5,17.5,5S18,5.224,18,5.5v2C18,7.776,17.777,8,17.5,8z"/>
		<path d="M18.5,3h-2C16.224,3,16,2.776,16,2.5v-2C16,0.224,16.224,0,16.5,0h2C18.777,0,19,0.224,19,0.5v2C19,2.776,18.777,3,18.5,3
			z M17,2h1V1h-1V2z"/>
		<path d="M2.5,3h-2C0.224,3,0,2.776,0,2.5v-2C0,0.224,0.224,0,0.5,0h2C2.777,0,3,0.224,3,0.5v2C3,2.776,2.777,3,2.5,3z M1,2h1V1H1
			V2z"/>
		<path d="M2.5,18.5h-2C0.224,18.5,0,18.276,0,18v-2c0-0.276,0.224-0.5,0.5-0.5h2C2.777,15.5,3,15.724,3,16v2
			C3,18.276,2.777,18.5,2.5,18.5z M1,17.5h1v-1H1V17.5z"/>
	</g>
	<path d="M18.5,24c-0.002,0-0.004,0-0.006,0c-0.202-0.002-0.383-0.126-0.458-0.314l-4-10c-0.079-0.196-0.025-0.421,0.134-0.561
		c0.157-0.14,0.388-0.165,0.573-0.062l9,5c0.166,0.093,0.266,0.272,0.256,0.462s-0.127,0.359-0.302,0.434l-3.316,1.421l-1.421,3.316
		C18.881,23.881,18.7,24,18.5,24z M15.486,14.62l3.029,7.573l1.024-2.39c0.051-0.118,0.145-0.212,0.263-0.263l2.563-1.099
		L15.486,14.62z"/>
</g>
<g>
</g>
<g>
</g>
<g>
</g>
<g>
</g>
<g>
</g>
<g>
</g>
<g>
</g>
<g>
</g>
<g>
</g>
<g>
</g>
<g>
</g>
<g>
</g>
<g>
</g>
<g>
</g>
<g>
</g>
</svg>
