<?xml version="1.0" encoding="utf-8"?>
<!-- Generator: Adobe Illustrator 19.0.0, SVG Export Plug-In . SVG Version: 6.00 Build 0)  -->
<svg version="1.1" id="Layer_1" xmlns="http://www.w3.org/2000/svg" xmlns:xlink="http://www.w3.org/1999/xlink" x="0px" y="0px"
	 viewBox="0 0 30 30" style="enable-background:new 0 0 30 30;" xml:space="preserve">
<style type="text/css">
	.st0{fill:none;stroke:#000000;stroke-linecap:round;stroke-linejoin:round;stroke-miterlimit:10;}
</style>
<g>
	<g>
		<path d="M19,19c-0.1,0-0.2,0-0.3-0.1l-4-3c-0.1-0.1-0.2-0.2-0.2-0.4v-9C14.5,6.2,14.7,6,15,6s0.5,0.2,0.5,0.5v8.8l3.8,2.8
			c0.2,0.2,0.3,0.5,0.1,0.7C19.3,18.9,19.2,19,19,19z"/>
	</g>
	<g>
		<g>
			<path d="M15,27c-5,0-9.5-3.2-11.2-7.9c-0.1-0.3,0-0.5,0.3-0.6c0.3-0.1,0.5,0,0.6,0.3C6.3,23.1,10.4,26,15,26c6,0,11-4.9,11-11
				c0-0.3,0.2-0.5,0.5-0.5S27,14.7,27,15C27,21.6,21.6,27,15,27z"/>
		</g>
		<g>
			<path d="M3.5,15.5C3.3,15.5,3,15.3,3,15C3,8.4,8.4,3,15,3c5,0,9.5,3.2,11.2,7.9c0.1,0.3,0,0.5-0.3,0.6c-0.3,0.1-0.5,0-0.6-0.3
				C23.7,6.9,19.6,4,15,4C9,4,4,8.9,4,15C4,15.3,3.8,15.5,3.5,15.5z"/>
		</g>
	</g>
	<g>
		<path class="st0" d="M26.5,16.3"/>
	</g>
	<g>
		<path d="M3.5,16.5c-0.1,0-0.3,0-0.4-0.1l-2.5-2.5c-0.2-0.2-0.2-0.5,0-0.7s0.5-0.2,0.7,0l2.1,2.1l2.1-2.1c0.2-0.2,0.5-0.2,0.7,0
			s0.2,0.5,0,0.7l-2.5,2.5C3.8,16.5,3.6,16.5,3.5,16.5z"/>
	</g>
	<g>
		<path d="M29,17c-0.1,0-0.3,0-0.4-0.1l-2.1-2.1l-2.1,2.1c-0.2,0.2-0.5,0.2-0.7,0s-0.2-0.5,0-0.7l2.5-2.5c0.2-0.2,0.5-0.2,0.7,0
			l2.5,2.5c0.2,0.2,0.2,0.5,0,0.7C29.3,17,29.1,17,29,17z"/>
	</g>
</g>
</svg>
