<?xml version="1.0" encoding="utf-8"?>
<!-- Generator: Adobe Illustrator 19.0.0, SVG Export Plug-In . SVG Version: 6.00 Build 0)  -->
<svg version="1.1" id="Layer_1" xmlns="http://www.w3.org/2000/svg" xmlns:xlink="http://www.w3.org/1999/xlink" x="0px" y="0px"
	 viewBox="0 0 30 30" style="enable-background:new 0 0 30 30;" xml:space="preserve">
<path d="M15,0.5C7,0.5,0.5,7,0.5,15S7,29.5,15,29.5c4.7,0,9.1-2.3,11.9-6.1c0,0,0.1-0.1,0.1-0.1c0.5-0.9,0.2-1.7-0.1-2.1
	c-0.8-1.1-2.7-1.6-4.4-1.6v-0.7c0-0.7-0.6-1.3-1.3-1.3c-0.5,0-1-0.2-1.5-0.5c-0.3-0.2-0.6-0.3-1-0.4c-0.5-0.2-1,0-1.4,0.3l-1.4,1.5
	c-2-1.1-3.2-2.3-4.3-4.3l1.5-1.4c0.4-0.4,0.5-0.9,0.3-1.4l-0.2-0.5c-0.3-0.9-0.8-2.2-0.8-3c0-0.7-0.6-1.3-1.3-1.3H7.8
	c-0.7,0-1.3,0.6-1.3,1.3c0,8.3,6.9,15.7,14.7,15.7c0.7,0,1.3-0.6,1.3-1.3v-1.7c1.6,0,3.1,0.5,3.5,1.2c0.2,0.3,0.2,0.6,0,1
	c0,0,0,0,0,0c-2.5,3.6-6.7,5.8-11.1,5.8C7.6,28.5,1.5,22.4,1.5,15S7.6,1.5,15,1.5S28.5,7.6,28.5,15c0,0.3,0.2,0.5,0.5,0.5
	s0.5-0.2,0.5-0.5C29.5,7,23,0.5,15,0.5z"/>
</svg>
