<?xml version="1.0" encoding="utf-8"?>
<!-- Generator: Adobe Illustrator 19.0.0, SVG Export Plug-In . SVG Version: 6.00 Build 0)  -->
<svg version="1.1" id="Layer_1" xmlns="http://www.w3.org/2000/svg" xmlns:xlink="http://www.w3.org/1999/xlink" x="0px" y="0px"
	 viewBox="0 0 30 30" style="enable-background:new 0 0 30 30;" xml:space="preserve">
<g>
	<path d="M5,21H1c-0.3,0-0.5,0.2-0.5,0.5v5C0.5,26.8,0.7,27,1,27h4c0.3,0,0.5-0.2,0.5-0.5v-5C5.5,21.2,5.3,21,5,21z"/>
	<path d="M29,26h-4c-0.3,0-0.5,0.2-0.5,0.5S24.7,27,25,27h4c0.3,0,0.5-0.2,0.5-0.5S29.3,26,29,26z"/>
	<path d="M11,16H7c-0.3,0-0.5,0.2-0.5,0.5v10C6.5,26.8,6.7,27,7,27h4c0.3,0,0.5-0.2,0.5-0.5v-10C11.5,16.2,11.3,16,11,16z"/>
	<path d="M17,9h-4c-0.3,0-0.5,0.2-0.5,0.5v17c0,0.3,0.2,0.5,0.5,0.5h4c0.3,0,0.5-0.2,0.5-0.5v-17C17.5,9.2,17.3,9,17,9z"/>
	<path d="M23,3h-4c-0.3,0-0.5,0.2-0.5,0.5v23c0,0.3,0.2,0.5,0.5,0.5h4c0.3,0,0.5-0.2,0.5-0.5v-23C23.5,3.2,23.3,3,23,3z"/>
</g>
</svg>
