<?xml version="1.0" encoding="utf-8"?>
<!-- Generator: Adobe Illustrator 19.0.0, SVG Export Plug-In . SVG Version: 6.00 Build 0)  -->
<svg version="1.1" id="Layer_1" xmlns="http://www.w3.org/2000/svg" xmlns:xlink="http://www.w3.org/1999/xlink" x="0px" y="0px"
	 viewBox="0 0 24 24" style="enable-background:new 0 0 24 24;" xml:space="preserve">
<g>
	<path d="M21.6,11.2c-0.9,0.5-2,0.8-3.1,0.8C14.9,12,12,9.1,12,5.5C12,5.2,11.8,5,11.5,5h-7L4,2.4C3.9,2.2,3.7,2,3.5,2h-3
		C0.2,2,0,2.2,0,2.5S0.2,3,0.5,3h2.6l2.4,12.2C5.9,16.8,7.3,18,9,18h11.5c0.3,0,0.5-0.2,0.5-0.5S20.8,17,20.5,17H9
		c-0.8,0-1.6-0.4-2-1.1l14.6-2c0.2,0,0.4-0.2,0.4-0.4l0.3-1.9c0-0.2,0-0.4-0.2-0.5C22,11.1,21.8,11.1,21.6,11.2z"/>
	<circle cx="18.5" cy="21.5" r="2.5"/>
	<path d="M18.5,0c-3,0-5.5,2.5-5.5,5.5s2.5,5.5,5.5,5.5S24,8.5,24,5.5S21.5,0,18.5,0z M21,6.5c0,0.7-0.4,1.2-1,1.4v0.6
		C20,8.8,19.8,9,19.5,9S19,8.8,19,8.5V8h-1v0.5C18,8.8,17.8,9,17.5,9S17,8.8,17,8.5V8h-0.5C16.2,8,16,7.8,16,7.5v-4
		C16,3.2,16.2,3,16.5,3H17V2.5C17,2.2,17.2,2,17.5,2S18,2.2,18,2.5V3h1V2.5C19,2.2,19.2,2,19.5,2S20,2.2,20,2.5v0.6
		c0.6,0.2,1,0.8,1,1.4c0,0.4-0.1,0.7-0.4,1C20.9,5.8,21,6.1,21,6.5z"/>
	<circle cx="8.5" cy="21.5" r="2.5"/>
	<path d="M19.5,4H17v1h2.5C19.8,5,20,4.8,20,4.5S19.8,4,19.5,4z"/>
	<path d="M19.5,6H17v1h2.5C19.8,7,20,6.8,20,6.5S19.8,6,19.5,6z"/>
</g>
</svg>
