<?xml version="1.0" encoding="utf-8"?>
<!-- Generator: Adobe Illustrator 19.0.0, SVG Export Plug-In . SVG Version: 6.00 Build 0)  -->
<svg version="1.1" id="Layer_1" xmlns="http://www.w3.org/2000/svg" xmlns:xlink="http://www.w3.org/1999/xlink" x="0px" y="0px"
	 viewBox="0 0 30 30" style="enable-background:new 0 0 30 30;" xml:space="preserve">
<g>
	<path d="M23.5,8.5C23.5,3.7,19.8,0,15,0S6.5,3.7,6.5,8.5c0,4.1,4,9.4,7.5,10.3l-1.3,1.3c-0.1,0.1-0.2,0.4-0.1,0.5
		c0.1,0.2,0.3,0.3,0.5,0.3h1c-0.1,0.1-0.1,0.1-0.2,0.1c-0.6,0.5-1.3,1-1.3,1.9c0,0.8,0.8,1.3,1.5,1.9c0.7,0.5,1.5,1.1,1.5,1.6
		c0,0.6-0.2,1-0.5,1.5c-0.2,0.4-0.5,0.9-0.5,1.5c0,0.3,0.2,0.5,0.5,0.5s0.5-0.2,0.5-0.5c0-0.4,0.2-0.7,0.4-1c0.3-0.5,0.6-1.1,0.6-2
		c0-1-1-1.8-1.9-2.4c-0.5-0.3-1.1-0.8-1.1-1.1c0-0.3,0.5-0.7,0.9-1.1c0.4-0.3,0.7-0.6,0.9-0.9H17c0.2,0,0.4-0.1,0.5-0.3
		c0.1-0.2,0-0.4-0.1-0.5L16,18.8C19.5,17.9,23.5,12.6,23.5,8.5z M9.5,8.5C9.5,8.8,9.3,9,9,9S8.5,8.8,8.5,8.5C8.5,4.9,11.4,2,15,2
		c0.3,0,0.5,0.2,0.5,0.5S15.3,3,15,3C11.9,3,9.5,5.4,9.5,8.5z"/>
</g>
</svg>
