<?xml version="1.0" encoding="iso-8859-1"?>
<!-- Generator: Adobe Illustrator 19.0.0, SVG Export Plug-In . SVG Version: 6.00 Build 0)  -->
<svg version="1.1" id="Layer_1" xmlns="http://www.w3.org/2000/svg" xmlns:xlink="http://www.w3.org/1999/xlink" x="0px" y="0px"
	 viewBox="0 0 24 24" style="enable-background:new 0 0 24 24;" xml:space="preserve">
<g>
	<g>
		<path d="M2.658,4.844C2.506,4.791,2.335,4.813,2.202,4.906C2.069,5,1.99,5.153,1.99,5.315V22.5c0,0.827,0.673,1.5,1.5,1.5h1.5V5
			h-1.5C3.223,5,2.951,4.948,2.658,4.844z M21.49,4c0.007-0.001,0.013,0,0.02,0c0.276,0,0.5-0.224,0.5-0.5
			c0-0.13-0.05-0.249-0.131-0.338C21.726,2.852,21.49,2.294,21.49,2c0-0.3,0.258-0.92,0.441-1.265
			c0.083-0.155,0.078-0.342-0.013-0.492C21.827,0.093,21.665,0,21.489,0H5.99c-0.276,0-0.5,0.224-0.5,0.5c0-0.276-0.224-0.5-0.5-0.5
			h-1.5c-0.827,0-1.5,0.673-1.5,1.5v1c0,0.827,0.673,1.5,1.5,1.5h1.5c0.276,0,0.5-0.224,0.5-0.5c0,0.276,0.224,0.5,0.5,0.5H21.49z
			 M21.49,5H5.99v19h15.5c0.276,0,0.5-0.224,0.5-0.5v-18C21.99,5.224,21.766,5,21.49,5z"/>
	</g>
</g>
</svg>
