<?xml version="1.0" encoding="iso-8859-1"?>
<!-- Generator: Adobe Illustrator 19.0.0, SVG Export Plug-In . SVG Version: 6.00 Build 0)  -->
<svg version="1.1" id="Layer_1" xmlns="http://www.w3.org/2000/svg" xmlns:xlink="http://www.w3.org/1999/xlink" x="0px" y="0px"
	 viewBox="0 0 24 24" style="enable-background:new 0 0 24 24;" xml:space="preserve">
<g>
	<g>
		<path d="M11,18.501c0-3.584,2.916-6.5,6.5-6.5c0.276,0,0.5-0.224,0.5-0.5v-5C18,6.224,17.776,6,17.5,6h-14
			C2.896,6,2.308,5.836,1.752,5.512C1.598,5.421,1.407,5.422,1.251,5.51C1.096,5.599,1,5.765,1,5.944V19.5C1,20.879,2.122,22,3.5,22
			h7.685c0.172,0,0.331-0.088,0.423-0.233c0.092-0.145,0.103-0.327,0.028-0.481C11.214,20.4,11,19.464,11,18.501z M16,17
			c0,0.398,0.333,0.676,1,0.867v-1.804C16.425,16.205,16,16.575,16,17z M3.5,5h14.02c0.276,0,0.5-0.224,0.5-0.5
			c0-0.151-0.068-0.288-0.174-0.38C17.767,3.987,17.598,3.622,17.532,3H3.5C3.224,3,3,2.776,3,2.5S3.224,2,3.5,2h14.028
			c0.085-0.814,0.352-1.175,0.352-1.175c0.127-0.147,0.156-0.356,0.075-0.534C17.874,0.113,17.695,0,17.5,0h-14
			C2.122,0,1,1.121,1,2.5C1,3.879,2.122,5,3.5,5z M17.5,13c-3.033,0-5.5,2.468-5.5,5.5s2.467,5.5,5.5,5.5c3.033,0,5.5-2.468,5.5-5.5
			S20.533,13,17.5,13z M18,21.959V22.5c0,0.276-0.224,0.5-0.5,0.5S17,22.776,17,22.5v-0.539c-1.094-0.171-1.92-0.898-1.998-1.823
			c-0.023-0.275,0.181-0.517,0.456-0.54c0.275-0.015,0.517,0.182,0.54,0.456c0.034,0.406,0.451,0.75,1.002,0.884v-2.039
			c-1.344-0.329-2-0.96-2-1.899c0-0.965,0.86-1.773,2-1.959V14.5c0-0.276,0.224-0.5,0.5-0.5s0.5,0.224,0.5,0.5v0.539
			c1.094,0.171,1.92,0.898,1.998,1.823c0.023,0.275-0.181,0.517-0.456,0.54c-0.271,0.019-0.517-0.181-0.54-0.456
			c-0.034-0.406-0.451-0.75-1.002-0.884V18.1c1.345,0.331,2,0.962,2,1.9C20,20.965,19.14,21.773,18,21.959z M18,19.133v1.803
			c0.575-0.141,1-0.511,1-0.936C19,19.602,18.667,19.325,18,19.133z"/>
	</g>
</g>
</svg>
