<?xml version="1.0" encoding="iso-8859-1"?>
<!-- Generator: Adobe Illustrator 19.0.0, SVG Export Plug-In . SVG Version: 6.00 Build 0)  -->
<svg version="1.1" id="Layer_1" xmlns="http://www.w3.org/2000/svg" xmlns:xlink="http://www.w3.org/1999/xlink" x="0px" y="0px"
	 viewBox="0 0 24 24" style="enable-background:new 0 0 24 24;" xml:space="preserve">
<g>
	<g>
		<path d="M17.692,16.866c-0.187-0.078-0.402-0.035-0.545,0.108L14.56,19.56c-0.192,0.192-0.434,0.329-0.697,0.395l-4,1
			c-0.511,0.126-1.055-0.024-1.424-0.395c-0.371-0.371-0.522-0.916-0.395-1.424l1-4c0.065-0.263,0.202-0.504,0.395-0.697
			l8.414-8.414C17.948,5.931,18,5.805,18,5.672V3.5C18,2.672,17.326,2,16.5,2h-1C15.224,2,15,2.224,15,2.5v1
			C15,4.326,14.326,5,13.5,5h-9C3.672,5,3,4.326,3,3.5v-1C3,2.224,2.776,2,2.5,2h-1C0.672,2,0,2.672,0,3.5v19
			C0,23.326,0.672,24,1.5,24h15c0.827,0,1.5-0.673,1.5-1.5v-5.172C18,17.126,17.878,16.943,17.692,16.866z M9.146,19.854
			C9.242,19.949,9.37,20,9.5,20c0.041,0,0.081-0.005,0.121-0.015l3.664-0.916c-0.198-0.569-0.577-1.321-1.305-2.049
			c-0.728-0.727-1.48-1.106-2.049-1.305l-0.916,3.664C8.972,19.549,9.023,19.729,9.146,19.854z M4.5,4h9C13.776,4,14,3.776,14,3.5
			v-1C14,1.673,13.328,1,12.5,1h-1.774C10.373,0.391,9.719,0,9,0c-0.718,0-1.373,0.39-1.726,1H5.5C4.674,1,4,1.673,4,2.5v1
			C4,3.776,4.224,4,4.5,4z M21.378,5c-0.7,0-1.357,0.272-1.853,0.768L18.5,6.793l3.707,3.707l1.025-1.025
			C23.727,8.98,24,8.323,24,7.621C24,6.175,22.825,5,21.378,5z M10.45,14.844c0.658,0.253,1.457,0.687,2.238,1.469
			s1.216,1.581,1.469,2.238l7.344-7.344L17.794,7.5L10.45,14.844z"/>
	</g>
</g>
</svg>
