<?xml version="1.0" encoding="iso-8859-1"?>
<!-- Generator: Adobe Illustrator 19.0.0, SVG Export Plug-In . SVG Version: 6.00 Build 0)  -->
<svg version="1.1" id="Layer_1" xmlns="http://www.w3.org/2000/svg" xmlns:xlink="http://www.w3.org/1999/xlink" x="0px" y="0px"
	 viewBox="0 0 24 24" style="enable-background:new 0 0 24 24;" xml:space="preserve">
<g>
	<g>
		<path d="M19.5,0h-15C3.122,0,2,1.122,2,2.5v19C2,22.878,3.122,24,4.5,24h15c1.378,0,2.5-1.122,2.5-2.5v-19
			C22,1.122,20.878,0,19.5,0z M5,23H4.5C3.673,23,3,22.327,3,21.5v-19C3,1.673,3.673,1,4.5,1H5V23z M19,16.944
			C19,17.526,18.526,18,17.944,18C12.461,18,8,13.539,8,8.056C8,7.474,8.474,7,9.056,7H11c0.582,0,1.056,0.474,1.056,1.056
			c0,0.627,0.098,1.242,0.291,1.827c0.122,0.386,0.021,0.796-0.26,1.077l-0.775,1.032c0.673,1.226,1.461,2.015,2.697,2.695
			l1.084-0.819c0.205-0.213,0.663-0.333,1.029-0.208c0.582,0.192,1.196,0.29,1.822,0.29c0.582,0,1.056,0.473,1.056,1.055V16.944z"/>
	</g>
</g>
</svg>
