<?xml version="1.0" encoding="iso-8859-1"?>
<!-- Generator: Adobe Illustrator 19.0.0, SVG Export Plug-In . SVG Version: 6.00 Build 0)  -->
<svg version="1.1" id="Layer_1" xmlns="http://www.w3.org/2000/svg" xmlns:xlink="http://www.w3.org/1999/xlink" x="0px" y="0px"
	 viewBox="0 0 24 24" style="enable-background:new 0 0 24 24;" xml:space="preserve">
<g>
	<g>
		<path d="M15.354,23.146l-2.357-2.357c0.883-0.386,1.503-1.266,1.503-2.29c0-0.814-0.397-1.531-1-1.987V9.487
			c0.603-0.457,1-1.174,1-1.987c0-0.914-0.498-1.707-1.232-2.143c-0.727-1.68-0.767-2.492-0.768-4.479V0.5C12.5,0.224,12.276,0,12,0
			s-0.5,0.224-0.5,0.5v0.378c-0.001,1.985-0.045,2.803-0.77,4.481C9.997,5.795,9.5,6.587,9.5,7.5c0,0.814,0.397,1.531,1,1.987v7.025
			c-0.603,0.457-1,1.174-1,1.987c0,1.024,0.62,1.904,1.503,2.29l-2.357,2.357c-0.195,0.195-0.195,0.512,0,0.707s0.512,0.195,0.707,0
			l2.146-2.146V23.5c0,0.276,0.224,0.5,0.5,0.5s0.5-0.224,0.5-0.5v-1.793l2.146,2.146c0.098,0.098,0.226,0.146,0.354,0.146
			c0.128,0,0.256-0.049,0.354-0.146C15.549,23.658,15.549,23.342,15.354,23.146z M12.5,16.051C12.338,16.018,12.171,16,12,16
			s-0.338,0.018-0.5,0.051V15h1V16.051z M12.5,14h-1v-2h1V14z M12.5,11h-1V9.949C11.662,9.982,11.829,10,12,10
			s0.338-0.018,0.5-0.051V11z"/>
	</g>
</g>
</svg>
