<?xml version="1.0" encoding="iso-8859-1"?>
<!-- Generator: Adobe Illustrator 19.0.0, SVG Export Plug-In . SVG Version: 6.00 Build 0)  -->
<svg version="1.1" id="Layer_1" xmlns="http://www.w3.org/2000/svg" xmlns:xlink="http://www.w3.org/1999/xlink" x="0px" y="0px"
	 viewBox="0 0 30 30" style="enable-background:new 0 0 30 30;" xml:space="preserve">
<g>
	<g>
		<path d="M26,20.5v-13C26,6.122,24.879,5,23.5,5H23v16h2.5C25.776,21,26,20.776,26,20.5z M22,5h-0.534
			c-0.187,1.235-1.213,3.289-2.973,3.882V10.5c0,0.133-0.053,0.26-0.146,0.354l-2,2C16.253,12.948,16.125,13,15.993,13
			c-0.009,0-0.019,0-0.027-0.001c-0.143-0.008-0.274-0.076-0.363-0.187l-2-2.5c-0.084-0.106-0.122-0.241-0.105-0.375
			c0.018-0.134,0.088-0.256,0.196-0.337l2-1.5c0.086-0.065,0.191-0.1,0.3-0.1h1.931c1.497-0.31,2.327-2.083,2.523-3H20V3.5
			C20,2.122,18.879,1,17.5,1h-5C11.121,1,10,2.122,10,3.5V5H8v16h14V5z M11,3.5C11,2.673,11.673,2,12.5,2h5
			C18.327,2,19,2.673,19,3.5V5h-8V3.5z M4.5,21H7V5H6.5C5.121,5,4,6.122,4,7.5v13C4,20.776,4.224,21,4.5,21z M27,22H3
			c-1.654,0-3,1.346-3,3v1c0,1.654,1.346,3,3,3h24c1.654,0,3-1.346,3-3v-1C30,23.346,28.654,22,27,22z M5.5,27
			C4.673,27,4,26.327,4,25.5C4,24.673,4.673,24,5.5,24C6.327,24,7,24.673,7,25.5C7,26.327,6.327,27,5.5,27z M10.5,27
			C9.673,27,9,26.327,9,25.5c0-0.827,0.673-1.5,1.5-1.5c0.827,0,1.5,0.673,1.5,1.5C12,26.327,11.327,27,10.5,27z M15.5,27
			c-0.827,0-1.5-0.673-1.5-1.5c0-0.827,0.673-1.5,1.5-1.5c0.827,0,1.5,0.673,1.5,1.5C17,26.327,16.327,27,15.5,27z M20.5,27
			c-0.827,0-1.5-0.673-1.5-1.5c0-0.827,0.673-1.5,1.5-1.5c0.827,0,1.5,0.673,1.5,1.5C22,26.327,21.327,27,20.5,27z M25.5,27
			c-0.827,0-1.5-0.673-1.5-1.5c0-0.827,0.673-1.5,1.5-1.5c0.827,0,1.5,0.673,1.5,1.5C27,26.327,26.327,27,25.5,27z"/>
	</g>
</g>
</svg>
