<?xml version="1.0" encoding="iso-8859-1"?>
<!-- Generator: Adobe Illustrator 19.0.0, SVG Export Plug-In . SVG Version: 6.00 Build 0)  -->
<svg version="1.1" id="Layer_1" xmlns="http://www.w3.org/2000/svg" xmlns:xlink="http://www.w3.org/1999/xlink" x="0px" y="0px"
	 viewBox="0 0 30 30" style="enable-background:new 0 0 30 30;" xml:space="preserve">
<g>
	<g>
		<path d="M29.431,3.339c-1.505-0.927-3.396-1.07-5.035-0.355L18.05,5.909l-3.883-2.105C12.74,2.951,11.113,2.5,9.463,2.5H6.501
			c-0.213,0-0.403,0.135-0.473,0.336C5.959,3.037,6.024,3.26,6.192,3.393l6.35,4.989l-6.504,2.917
			c-0.251,0.109-0.578,0.04-0.717-0.065l-2.003-2.12C3.242,9.052,2.555,8.5,2.001,8.5h-1.5c-0.177,0-0.34,0.093-0.431,0.245
			c-0.09,0.152-0.093,0.341-0.008,0.496l2.613,4.76c0.127,0.232,0.412,0.324,0.65,0.212c2.14-1.002,4.661-0.923,6.707,0.172
			c0.074,0.039,0.155,0.059,0.236,0.059c0.073,0,0.146-0.016,0.215-0.048l18.966-9.032c0.348-0.22,0.553-0.599,0.551-1.015
			C29.998,3.935,29.788,3.56,29.431,3.339z M6.501,14.5c-3.584,0-6.5,2.916-6.5,6.5c0,3.584,2.916,6.5,6.5,6.5
			c3.584,0,6.5-2.916,6.5-6.5C13.001,17.417,10.085,14.5,6.501,14.5z M10.085,19.047L5.47,23.661
			c-0.098,0.098-0.226,0.146-0.354,0.146s-0.256-0.049-0.354-0.146l-1.846-1.846c-0.195-0.195-0.195-0.512,0-0.707
			s0.512-0.195,0.707,0l1.492,1.493l4.262-4.262c0.195-0.195,0.512-0.195,0.707,0S10.28,18.852,10.085,19.047z"/>
	</g>
</g>
</svg>
