<?xml version="1.0" encoding="iso-8859-1"?>
<!-- Generator: Adobe Illustrator 19.0.0, SVG Export Plug-In . SVG Version: 6.00 Build 0)  -->
<svg version="1.1" id="Layer_1" xmlns="http://www.w3.org/2000/svg" xmlns:xlink="http://www.w3.org/1999/xlink" x="0px" y="0px"
	 viewBox="0 0 30 30" style="enable-background:new 0 0 30 30;" xml:space="preserve">
<g>
	<g>
		<path d="M25.464,7.519c-0.89-0.853-1.958-1.359-3.127-1.49c0.216-0.426,0.415-0.882,0.622-1.354
			c0.676-1.543,1.374-3.14,2.734-3.714c0.244-0.103,0.365-0.379,0.276-0.628c-0.089-0.249-0.354-0.388-0.612-0.312
			c-4.743,1.396-7.214,2.311-8.046,3.591C14.67,1.286,9.066-0.286,4.365,1.019C4.155,1.078,4.008,1.266,4,1.484
			C3.992,1.702,4.126,1.9,4.332,1.972C5.274,2.306,6.264,2.588,7.22,2.861c2.299,0.656,4.481,1.279,4.757,2.292
			c-0.413,0.136-0.854,0.262-1.314,0.395c-2.687,0.771-6.03,1.731-8.583,5.683c-0.114,0.178-0.105,0.408,0.022,0.575
			c0.129,0.167,0.351,0.237,0.55,0.172c5.636-1.802,9.642-2.267,11.781-2.117C10.997,13.599,6,23.356,6,27.499
			c0,0.276-0.224,0.5-0.5,0.5S5,27.775,5,27.499c0-1.133,0.343-2.638,0.903-4.309C4.06,23.007,2.677,22.999,2.5,22.999
			c-0.276,0-0.5,0.224-0.5,0.5v6c0,0.276,0.224,0.5,0.5,0.5h14c0.008,0.001,0.016,0,0.02,0c0.276,0,0.5-0.224,0.5-0.5
			c0-0.052-0.008-0.102-0.022-0.149c-0.08-2.357-2.06-3.839-4.533-4.772C12.174,25.721,12,26.736,12,27.498
			c0,0.276-0.224,0.5-0.5,0.5s-0.5-0.224-0.5-0.5c0-0.234,0.016-0.492,0.044-0.766c0.006-0.061,0.017-0.128,0.024-0.191
			c0.027-0.23,0.06-0.467,0.104-0.72c0.007-0.043,0.017-0.088,0.024-0.131c0.784-4.257,3.808-11.276,6.565-14.252
			c0.125,0.415,0.249,0.835,0.374,1.242c1.115,3.624,2.169,7.046,1.372,11.733c-0.041,0.24,0.098,0.475,0.327,0.556
			c0.055,0.019,0.11,0.028,0.166,0.028c0.178,0,0.347-0.095,0.437-0.257c1.634-2.94,3.447-8.956,1.919-13.463
			c2.626,0.836,3.344,1.536,4.735,3.509c0.125,0.178,0.353,0.253,0.56,0.188C27.859,14.908,28,14.715,28,14.497
			C28,11.607,27.076,9.063,25.464,7.519z"/>
	</g>
</g>
</svg>
