<?xml version="1.0" encoding="iso-8859-1"?>
<!-- Generator: Adobe Illustrator 19.0.0, SVG Export Plug-In . SVG Version: 6.00 Build 0)  -->
<svg version="1.1" id="Layer_1" xmlns="http://www.w3.org/2000/svg" xmlns:xlink="http://www.w3.org/1999/xlink" x="0px" y="0px"
	 viewBox="0 0 24 24" style="enable-background:new 0 0 24 24;" xml:space="preserve">
<g>
	<path d="M23.562,11.605l-5-4c-0.151-0.12-0.355-0.144-0.529-0.06C17.86,7.628,17.75,7.803,17.75,7.995v8
		c0,0.192,0.11,0.367,0.283,0.451c0.069,0.033,0.144,0.049,0.217,0.049c0.111,0,0.222-0.037,0.312-0.109l5-4
		c0.118-0.095,0.188-0.239,0.188-0.391S23.681,11.7,23.562,11.605z"/>
	<path d="M5.967,7.545c-0.175-0.084-0.379-0.06-0.529,0.06l-5,4C0.319,11.7,0.25,11.843,0.25,11.995s0.069,0.295,0.187,0.391l5,4
		c0.091,0.072,0.201,0.109,0.313,0.109c0.073,0,0.147-0.016,0.217-0.049c0.173-0.083,0.283-0.258,0.283-0.451v-8
		C6.25,7.803,6.14,7.628,5.967,7.545z"/>
	<path d="M15.75,17.495h-8c-0.192,0-0.367,0.11-0.45,0.283c-0.084,0.173-0.061,0.379,0.06,0.529l4,5
		c0.095,0.119,0.238,0.188,0.391,0.188s0.296-0.069,0.391-0.188l4-5c0.12-0.15,0.144-0.356,0.06-0.529
		C16.117,17.606,15.942,17.495,15.75,17.495z"/>
	<path d="M12.141,0.683c-0.189-0.237-0.592-0.237-0.781,0l-4,5c-0.12,0.15-0.144,0.356-0.06,0.529
		c0.083,0.173,0.258,0.283,0.45,0.283h8c0.007,0,0.015,0,0.02,0c0.276,0,0.5-0.224,0.5-0.5c0-0.163-0.078-0.308-0.199-0.399
		L12.141,0.683z"/>
	<path d="M15.25,11.995c0-1.93-1.57-3.5-3.5-3.5s-3.5,1.57-3.5,3.5s1.57,3.5,3.5,3.5S15.25,13.925,15.25,11.995z"/>
</g>
<g>
</g>
<g>
</g>
<g>
</g>
<g>
</g>
<g>
</g>
<g>
</g>
<g>
</g>
<g>
</g>
<g>
</g>
<g>
</g>
<g>
</g>
<g>
</g>
<g>
</g>
<g>
</g>
<g>
</g>
</svg>
