<?xml version="1.0" encoding="iso-8859-1"?>
<!-- Generator: Adobe Illustrator 19.2.1, SVG Export Plug-In . SVG Version: 6.00 Build 0)  -->
<svg version="1.1" id="Layer_1" xmlns="http://www.w3.org/2000/svg" xmlns:xlink="http://www.w3.org/1999/xlink" x="0px" y="0px"
	 viewBox="0 0 30 30" style="enable-background:new 0 0 30 30;" xml:space="preserve">
<g>
	<g>
		<path d="M26.5,8.5c-0.171,0-0.335,0.027-0.5,0.051V7.75c0-2.343-1.887-4.25-4.206-4.25H8.206C5.887,3.5,4,5.407,4,7.75v0.8
			C3.835,8.526,3.671,8.499,3.5,8.499c-1.93,0-3.5,1.586-3.5,3.536c0,0.964,0.378,1.825,1,2.447V26c0,0.276,0.224,0.5,0.5,0.5h5
			c0.276,0,0.5-0.224,0.5-0.501V25.5h16V26c0,0.276,0.224,0.5,0.5,0.5h5c0.276,0,0.5-0.224,0.5-0.499V14.483
			c0.622-0.622,1-1.483,1-2.447C30,10.086,28.43,8.5,26.5,8.5z M6,25.5H2V15.178c0.452,0.208,0.96,0.323,1.5,0.323
			c0.276,0,0.5-0.224,0.5-0.5s-0.224-0.5-0.5-0.5c-0.621,0-1.182-0.212-1.615-0.569c-0.034-0.041-0.074-0.076-0.118-0.104
			C1.292,13.382,1,12.749,1,12.036C1,10.638,2.122,9.5,3.5,9.5S6,10.638,6,12.036V25.5z M23,24.5H7v-4h16V24.5z M23,19.5H7v-2h16
			V19.5z M23,12.036V16.5H7v-4.465c0-1.406-0.822-2.612-2-3.181V7.75C5,5.958,6.438,4.5,8.206,4.5h13.588
			C23.562,4.5,25,5.958,25,7.75v1.105C23.822,9.424,23,10.63,23,12.036z M28.233,13.827c-0.045,0.029-0.085,0.064-0.118,0.104
			C27.682,14.288,27.121,14.5,26.5,14.5c-0.276,0-0.5,0.224-0.5,0.5s0.224,0.5,0.5,0.5c0.54,0,1.048-0.115,1.5-0.323V25.5h-4V12.036
			c0-1.398,1.122-2.536,2.5-2.536s2.5,1.138,2.5,2.536C29,12.749,28.708,13.381,28.233,13.827z"/>
	</g>
</g>
</svg>
