<?xml version="1.0" encoding="iso-8859-1"?>
<!-- Generator: Adobe Illustrator 19.2.1, SVG Export Plug-In . SVG Version: 6.00 Build 0)  -->
<svg version="1.1" id="Layer_1" xmlns="http://www.w3.org/2000/svg" xmlns:xlink="http://www.w3.org/1999/xlink" x="0px" y="0px"
	 viewBox="0 0 30 30" style="enable-background:new 0 0 30 30;" xml:space="preserve">
<g>
	<g>
		<path d="M28.987,5.829c-0.213-0.783-0.909-1.33-1.693-1.33H2.705c-0.783,0-1.48,0.547-1.693,1.33C0.34,8.298,0,9.813,0,10.333
			C0,11.146,0.434,13.5,1.761,13.5c0.085,0,0.159-0.011,0.241-0.015V25c0,0.276,0.224,0.5,0.5,0.5h3c0.276,0,0.5-0.224,0.5-0.5v-5.5
			h18V25c0,0.276,0.224,0.5,0.5,0.5h3c0.276,0,0.5-0.224,0.5-0.5V13.5h0.239c1.327,0,1.761-2.355,1.758-3.167
			C29.999,9.813,29.659,8.298,28.987,5.829z M5.002,24.5h-2V13.344c0.86-0.231,1.47-0.688,2-1.158V24.5z M24.002,18.5h-18v-7.202
			c0.58-0.463,1.225-0.798,2.263-0.798c1.431,0,2.118,0.634,2.913,1.367c0.829,0.766,1.77,1.633,3.591,1.633
			c1.82,0,2.76-0.867,3.589-1.632c0.795-0.734,1.481-1.368,2.911-1.368c1.322,0,2.008,0.545,2.733,1.208V18.5z M27.002,24.5h-2
			V12.575c0.524,0.398,1.151,0.735,2,0.864V24.5z M28.242,12.5h-0.479c-1.428,0-2.113-0.634-2.907-1.367
			C24.028,10.368,23.089,9.5,21.27,9.5c-1.821,0-2.761,0.867-3.59,1.633c-0.794,0.733-1.481,1.367-2.91,1.367
			c-1.431,0-2.118-0.634-2.913-1.368C11.028,10.367,10.088,9.5,8.267,9.5c-1.344,0-2.207,0.473-2.901,1.027
			c-0.142,0.041-0.259,0.136-0.319,0.269c-0.127,0.112-0.251,0.225-0.372,0.336C3.881,11.866,3.194,12.5,1.763,12.5
			c-0.252,0-0.761-1.192-0.761-2.167c0-0.406,0.365-1.992,0.977-4.241C2.076,5.738,2.369,5.5,2.708,5.5h24.589
			c0.34,0,0.632,0.238,0.729,0.592c0.612,2.249,0.977,3.835,0.977,4.241C29.003,11.31,28.493,12.5,28.242,12.5z"/>
	</g>
</g>
</svg>
