<?xml version="1.0" encoding="iso-8859-1"?>
<!-- Generator: Adobe Illustrator 19.2.1, SVG Export Plug-In . SVG Version: 6.00 Build 0)  -->
<svg version="1.1" id="Layer_1" xmlns="http://www.w3.org/2000/svg" xmlns:xlink="http://www.w3.org/1999/xlink" x="0px" y="0px"
	 viewBox="0 0 30 30" style="enable-background:new 0 0 30 30;" xml:space="preserve">
<g>
	<g>
		<path d="M27,15h-9.5v-2H25c0.276,0,0.5-0.224,0.5-0.5v-12C25.5,0.224,25.276,0,25,0H5C4.724,0,4.5,0.224,4.5,0.5v12
			C4.5,12.776,4.724,13,5,13h7.5v2H3c-1.378,0-2.5,1.122-2.5,2.5v6C0.5,24.878,1.622,26,3,26h1.359l-0.845,3.379
			c-0.067,0.268,0.096,0.539,0.364,0.606C3.919,29.995,3.96,30,4,30c0.225,0,0.428-0.151,0.484-0.379L5.389,26h19.221l0.905,3.621
			C25.572,29.849,25.776,30,26,30c0.04,0,0.081-0.005,0.122-0.015c0.268-0.067,0.431-0.338,0.364-0.606L25.641,26H27
			c1.378,0,2.5-1.122,2.5-2.5v-6C29.5,16.122,28.378,15,27,15z M5.5,12V1h19v11H5.5z M16.5,13v2h-3v-2H16.5z M28.5,23.5
			c0,0.827-0.673,1.5-1.5,1.5H3c-0.827,0-1.5-0.673-1.5-1.5V21h27V23.5z M28.5,20h-27v-2.5C1.5,16.673,2.173,16,3,16h24
			c0.827,0,1.5,0.673,1.5,1.5V20z"/>
	</g>
</g>
</svg>
