<?xml version="1.0" encoding="iso-8859-1"?>
<!-- Generator: Adobe Illustrator 19.0.0, SVG Export Plug-In . SVG Version: 6.00 Build 0)  -->
<svg version="1.1" id="Layer_1" xmlns="http://www.w3.org/2000/svg" xmlns:xlink="http://www.w3.org/1999/xlink" x="0px" y="0px"
	 viewBox="0 0 30 30" style="enable-background:new 0 0 30 30;" xml:space="preserve">
<g>
	<g>
		<path d="M22.678,17.221c-0.007-0.015-0.015-0.029-0.024-0.043c-0.257-0.71-0.906-1.177-1.656-1.177
			c-0.748,0-1.396,0.465-1.654,1.172c-0.009,0.014-0.018,0.03-0.026,0.046c-3.172,6.29-3.174,6.293-3.177,6.303
			c-0.013,0.028-0.024,0.058-0.032,0.088c-0.073,0.2-0.11,0.403-0.11,0.604C16,25.199,16.801,26,17.786,26h6.428
			c0.985,0,1.786-0.801,1.784-1.785c0-0.206-0.053-0.378-0.128-0.597L22.678,17.221z M24.213,25.001h-6.428
			c-0.433,0-0.786-0.353-0.786-0.786c0-0.093,0.02-0.187,0.061-0.289c0.002-0.006,0.004-0.012,0.006-0.018
			c0.247-0.49,2.703-5.36,3.094-6.136c0.047-0.054,0.084-0.12,0.105-0.193C20.362,17.233,20.658,17,21,17
			c0.342,0,0.638,0.233,0.734,0.58c0.021,0.071,0.056,0.135,0.102,0.189l3.112,6.225c0.028,0.089,0.051,0.166,0.051,0.221
			C24.999,24.648,24.647,25.001,24.213,25.001z M5.786,14h6.428C13.199,14,14,13.199,14,12.214V5.785
			c0-0.985-0.801-1.786-1.786-1.786H5.786C4.8,3.999,4,4.801,4,5.785v6.429C4,13.199,4.801,14,5.786,14z M5,5.786
			C5,5.353,5.352,5,5.786,5h6.428C12.647,5,13,5.353,13,5.786v6.429c0,0.433-0.352,0.786-0.786,0.786H5.786
			C5.353,13.001,5,12.648,5,12.215V5.786z M21,4c-2.757,0-5,2.243-5,5s2.243,5,5,5c2.757,0,5-2.243,5-5S23.757,4,21,4z M21,13
			c-2.206,0-4-1.794-4-4s1.794-4,4-4s4,1.794,4,4S23.206,13,21,13z M26.979,0H3.022C1.356,0,0.001,1.355,0.001,3.022v23.956
			C0.001,28.645,1.356,30,3.022,30h23.957C28.645,30,30,28.645,30,26.978V3.022C30,1.355,28.645,0,26.979,0z M28.999,26.978
			c0,1.115-0.907,2.022-2.021,2.022H3.021C1.907,29,1,28.093,1,26.978V3.022C1,1.907,1.906,1,3.021,1h23.957
			c1.114,0,2.021,0.907,2.021,2.022V26.978z M11.671,18.093c-0.356-1.166-1.104-3.092-2.171-3.092c-1.067,0-1.816,1.925-2.171,3.092
			c-1.022-0.064-2.949-0.035-3.281,1.028C3.729,20.145,5.145,21.598,6,22.361c-0.29,0.91-0.738,2.753,0.124,3.406
			c0.858,0.652,2.563-0.254,3.376-0.758c0.611,0.379,1.726,0.985,2.608,0.985c0.29,0,0.555-0.066,0.768-0.227
			c0.862-0.653,0.414-2.496,0.124-3.406c0.855-0.763,2.271-2.217,1.952-3.24C14.62,18.058,12.693,18.031,11.671,18.093z
			 M12.095,21.821c-0.159,0.135-0.217,0.354-0.147,0.55c0.403,1.13,0.564,2.417,0.324,2.599c-0.25,0.181-1.481-0.298-2.495-0.972
			c-0.084-0.056-0.18-0.084-0.277-0.084s-0.193,0.028-0.279,0.083c-1.014,0.675-2.247,1.155-2.495,0.972
			c-0.215-0.163-0.118-1.358,0.324-2.599c0.071-0.195,0.012-0.414-0.147-0.549c-1.077-0.915-2.002-2.082-1.901-2.403
			c0.075-0.243,1.332-0.431,2.643-0.297c0.239,0.018,0.469-0.131,0.533-0.366c0.361-1.324,0.999-2.65,1.321-2.754
			c0.321,0.105,0.959,1.43,1.321,2.754c0.064,0.236,0.278,0.385,0.534,0.366c1.304-0.136,2.566,0.054,2.642,0.297
			C14.097,19.739,13.172,20.906,12.095,21.821z"/>
	</g>
</g>
</svg>
