<?xml version="1.0" encoding="utf-8"?>
<!-- Generator: Adobe Illustrator 19.0.0, SVG Export Plug-In . SVG Version: 6.00 Build 0)  -->
<svg version="1.1" id="Layer_1" xmlns="http://www.w3.org/2000/svg" xmlns:xlink="http://www.w3.org/1999/xlink" x="0px" y="0px"
	 viewBox="0 0 30 30" style="enable-background:new 0 0 30 30;" xml:space="preserve">
<g>
	<g>
		<path d="M23.5,25.5c-2.9,0-5.5-6-5.5-12.5s2.6-12.5,5.5-12.5S29,6.5,29,13S26.4,25.5,23.5,25.5z M23.5,1.5c-2,0-4.5,5.1-4.5,11.5
			s2.5,11.5,4.5,11.5S28,19.4,28,13S25.5,1.5,23.5,1.5z"/>
	</g>
	<g>
		<path d="M22.5,16.5c-0.3,0-0.5-0.2-0.5-0.5s0.2-0.5,0.5-0.5c1.2,0,2.5-1.1,2.5-2.5s-1.3-2.5-2.5-2.5c-0.3,0-0.5-0.2-0.5-0.5
			s0.2-0.5,0.5-0.5C24.2,9.5,26,11,26,13S24.2,16.5,22.5,16.5z"/>
	</g>
	<g>
		<path d="M21.5,24.5c-0.1,0-0.2,0-0.3-0.1l-8.9-5.9L5.5,18c0,0,0,0,0,0C2.9,18,1,15.8,1,13c0-2.7,1.8-4.5,4.5-4.5h6.8l8.4-5.9
			c0.2-0.1,0.5-0.1,0.6,0.1c0.2,0.2,0.2,0.4,0.1,0.6C19.9,5.6,19,9.2,19,13c0,4.1,1.5,8.6,2.9,10.7c0.1,0.2,0.1,0.5-0.1,0.6
			C21.8,24.5,21.6,24.5,21.5,24.5z M5.5,9.5C3.4,9.5,2,10.9,2,13c0,2.3,1.5,4,3.5,4l7,0.5c0.1,0,0.2,0,0.2,0.1l7.3,4.9
			C19.1,20.2,18,16.7,18,13c0-3.1,0.6-6.1,1.6-8.4l-6.8,4.8c-0.1,0.1-0.2,0.1-0.3,0.1H5.5z"/>
	</g>
	<g>
		<path d="M11.5,29.5c-0.1,0-0.2,0-0.3-0.1l-3-2C7.4,26.9,7,26,7,25v-4.8l-1.9-2.4c-0.2-0.2-0.1-0.5,0.1-0.7
			c0.2-0.2,0.5-0.1,0.7,0.1l2,2.5C8,19.8,8,19.9,8,20v5c0,0.7,0.3,1.2,0.8,1.6l2.7,1.8l0.2-0.2c0.4-0.4,0.9-1.2,0.9-1.6V26
			c0-0.5-0.4-1.2-0.9-1.6c-0.5-0.5-0.3-1.2-0.2-1.8l0-0.2l0.4-3.9C9.5,18.1,8,15.5,8,13c0-2.7,1.8-4.5,4.5-4.5C12.8,8.5,13,8.7,13,9
			s-0.2,0.5-0.5,0.5C10.4,9.5,9,10.9,9,13c0,2.2,1.4,4.5,3.5,4.5c0.1,0,0.3,0.1,0.4,0.2c0.1,0.1,0.1,0.2,0.1,0.4l-0.6,4.8
			c0,0.2-0.2,0.7-0.1,0.8c0.6,0.6,1.1,1.6,1.1,2.3v0.5c0,0.8-0.6,1.8-1.1,2.4l-0.5,0.5C11.8,29.4,11.6,29.5,11.5,29.5z"/>
	</g>
</g>
</svg>
