<?xml version="1.0" encoding="utf-8"?>
<!-- Generator: Adobe Illustrator 19.0.0, SVG Export Plug-In . SVG Version: 6.00 Build 0)  -->
<svg version="1.1" id="Layer_1" xmlns="http://www.w3.org/2000/svg" xmlns:xlink="http://www.w3.org/1999/xlink" x="0px" y="0px"
	 viewBox="0 0 30 30" style="enable-background:new 0 0 30 30;" xml:space="preserve">
<g>
	<g>
		<g>
			<path d="M13,18.5H3c-0.3,0-0.5-0.2-0.5-0.5c0-2.9,2.3-5,5.5-5s5.5,2.1,5.5,5C13.5,18.3,13.3,18.5,13,18.5z M3.5,17.5h8.9
				c-0.2-2.1-2-3.5-4.5-3.5S3.8,15.4,3.5,17.5z"/>
		</g>
		<g>
			<path d="M8,14c-1.7,0-3-1.3-3-3s1.3-3,3-3s3,1.3,3,3S9.7,14,8,14z M8,9c-1.1,0-2,0.9-2,2s0.9,2,2,2s2-0.9,2-2S9.1,9,8,9z"/>
		</g>
	</g>
	<g>
		<path d="M27,10.5H17c-0.3,0-0.5-0.2-0.5-0.5s0.2-0.5,0.5-0.5h10c0.3,0,0.5,0.2,0.5,0.5S27.3,10.5,27,10.5z"/>
	</g>
	<g>
		<path d="M23,14.5h-6c-0.3,0-0.5-0.2-0.5-0.5s0.2-0.5,0.5-0.5h6c0.3,0,0.5,0.2,0.5,0.5S23.3,14.5,23,14.5z"/>
	</g>
	<g>
		<path d="M27,18.5H17c-0.3,0-0.5-0.2-0.5-0.5s0.2-0.5,0.5-0.5h10c0.3,0,0.5,0.2,0.5,0.5S27.3,18.5,27,18.5z"/>
	</g>
	<g>
		<path d="M29,24.5h-4c-0.3,0-0.5-0.2-0.5-0.5c0-0.1,0-0.1-0.1-0.2c-0.1-0.2-0.1-0.4,0-0.5c0.1-0.1,0.1-0.2,0.1-0.2
			c0-0.3-0.2-0.5-0.5-0.5s-0.5,0.2-0.5,0.5c0,0.1,0,0.1,0.1,0.2c0.1,0.2,0.1,0.4,0,0.5c-0.1,0.1-0.1,0.2-0.1,0.2
			c0,0.3-0.2,0.5-0.5,0.5h-4c-0.3,0-0.5-0.2-0.5-0.5c0-0.1,0-0.1-0.1-0.2c-0.1-0.2-0.1-0.4,0-0.5c0.1-0.1,0.1-0.2,0.1-0.2
			c0-0.3-0.2-0.5-0.5-0.5s-0.5,0.2-0.5,0.5c0,0.1,0,0.1,0.1,0.2c0.1,0.2,0.1,0.4,0,0.5c-0.1,0.1-0.1,0.2-0.1,0.2
			c0,0.3-0.2,0.5-0.5,0.5h-4c-0.3,0-0.5-0.2-0.5-0.5c0-0.1,0-0.1-0.1-0.2c-0.1-0.2-0.1-0.4,0-0.5c0.1-0.1,0.1-0.2,0.1-0.2
			c0-0.3-0.2-0.5-0.5-0.5s-0.5,0.2-0.5,0.5c0,0.1,0,0.1,0.1,0.2c0.1,0.2,0.1,0.4,0,0.5c-0.1,0.1-0.1,0.2-0.1,0.2
			c0,0.3-0.2,0.5-0.5,0.5H7c-0.3,0-0.5-0.2-0.5-0.5c0-0.1,0-0.1-0.1-0.2c-0.1-0.2-0.1-0.4,0-0.5c0.1-0.1,0.1-0.2,0.1-0.2
			c0-0.3-0.2-0.5-0.5-0.5S5.5,22.7,5.5,23c0,0.1,0,0.1,0.1,0.2c0.1,0.2,0.1,0.4,0,0.5c-0.1,0.1-0.1,0.2-0.1,0.2
			c0,0.3-0.2,0.5-0.5,0.5H1c-0.3,0-0.5-0.2-0.5-0.5V6c0-0.3,0.2-0.5,0.5-0.5h28c0.3,0,0.5,0.2,0.5,0.5v18
			C29.5,24.3,29.3,24.5,29,24.5z M25.4,23.5h3.1v-17h-27v17h3.1c-0.1-0.2-0.1-0.3-0.1-0.5c0-0.8,0.7-1.5,1.5-1.5s1.5,0.7,1.5,1.5
			c0,0.2,0,0.3-0.1,0.5h3.2c-0.1-0.2-0.1-0.3-0.1-0.5c0-0.8,0.7-1.5,1.5-1.5s1.5,0.7,1.5,1.5c0,0.2,0,0.3-0.1,0.5h3.2
			c-0.1-0.2-0.1-0.3-0.1-0.5c0-0.8,0.7-1.5,1.5-1.5s1.5,0.7,1.5,1.5c0,0.2,0,0.3-0.1,0.5h3.2c-0.1-0.2-0.1-0.3-0.1-0.5
			c0-0.8,0.7-1.5,1.5-1.5s1.5,0.7,1.5,1.5C25.5,23.2,25.5,23.3,25.4,23.5L25.4,23.5z"/>
	</g>
</g>
</svg>
