<?xml version="1.0" encoding="utf-8"?>
<!-- Generator: Adobe Illustrator 19.0.0, SVG Export Plug-In . SVG Version: 6.00 Build 0)  -->
<svg version="1.1" id="Layer_1" xmlns="http://www.w3.org/2000/svg" xmlns:xlink="http://www.w3.org/1999/xlink" x="0px" y="0px"
	 viewBox="-467 269 24 24" style="enable-background:new -467 269 24 24;" xml:space="preserve">
<g>
	<g>
		<path d="M-449,279.5h3c0.3,0,0.5-0.2,0.5-0.5v-2.5c0-1.1-0.9-2-2-2s-2,0.9-2,2v2.5C-449.5,279.3-449.3,279.5-449,279.5z
			 M-448.5,276.5c0-0.6,0.4-1,1-1s1,0.4,1,1v2h-2V276.5z M-459,279.5h3c0.3,0,0.5-0.2,0.5-0.5v-2.5c0-1.1-0.9-2-2-2s-2,0.9-2,2v2.5
			C-459.5,279.3-459.3,279.5-459,279.5z M-458.5,276.5c0-0.6,0.4-1,1-1s1,0.4,1,1v2h-2V276.5z M-444,270.5h-22
			c-0.3,0-0.5,0.2-0.5,0.5v20c0,0.3,0.2,0.5,0.5,0.5h1c0.3,0,0.5-0.2,0.5-0.5c0-5.2,4.3-9.5,9.5-9.5s9.5,4.3,9.5,9.5
			c0,0.3,0.2,0.5,0.5,0.5h1c0.3,0,0.5-0.2,0.5-0.5v-20C-443.5,270.7-443.7,270.5-444,270.5z M-444.5,290.5L-444.5,290.5
			c-0.3-5.6-4.9-10-10.5-10s-10.2,4.4-10.5,10l0-17h21V290.5z M-444.5,272.5h-21l0-1h21V272.5z M-464,279.5h3c0.3,0,0.5-0.2,0.5-0.5
			v-2.5c0-1.1-0.9-2-2-2s-2,0.9-2,2v2.5C-464.5,279.3-464.3,279.5-464,279.5z M-463.5,276.5c0-0.6,0.4-1,1-1s1,0.4,1,1v2h-2V276.5z
			 M-454,279.5h3c0.3,0,0.5-0.2,0.5-0.5v-2.5c0-1.1-0.9-2-2-2s-2,0.9-2,2v2.5C-454.5,279.3-454.3,279.5-454,279.5z M-453.5,276.5
			c0-0.6,0.4-1,1-1s1,0.4,1,1v2h-2V276.5z"/>
	</g>
</g>
</svg>
