<?xml version="1.0" encoding="utf-8"?>
<!-- Generator: Adobe Illustrator 19.0.0, SVG Export Plug-In . SVG Version: 6.00 Build 0)  -->
<svg version="1.1" id="Layer_1" xmlns="http://www.w3.org/2000/svg" xmlns:xlink="http://www.w3.org/1999/xlink" x="0px" y="0px"
	 viewBox="-467 269 24 24" style="enable-background:new -467 269 24 24;" xml:space="preserve">
<g>
	<g>
		<path d="M-464.5,288h3c0.3,0,0.5-0.2,0.5-0.5V285c0-1.1-0.9-2-2-2c-1.1,0-2,0.9-2,2v2.5C-465,287.8-464.8,288-464.5,288z
			 M-464,285c0-0.6,0.4-1,1-1c0.6,0,1,0.4,1,1v2h-2V285z M-443.3,282.1l-6.7-3.5V278h1.5c0.2,0,0.4-0.1,0.5-0.4
			c0.1-0.2,0-0.4-0.2-0.6l-6.3-3.9V271h1c0.3,0,0.5-0.2,0.5-0.5s-0.2-0.5-0.5-0.5h-1v-0.5c0-0.3-0.2-0.5-0.5-0.5s-0.5,0.2-0.5,0.5
			v0.5h-1c-0.3,0-0.5,0.2-0.5,0.5s0.2,0.5,0.5,0.5h1v2.2l-6.3,3.9c-0.2,0.1-0.3,0.3-0.2,0.6c0.1,0.2,0.3,0.4,0.5,0.4h1.5v0.5
			l-6.7,3.5c-0.2,0.1-0.3,0.3-0.3,0.4v8c0,0.3,0.2,0.5,0.5,0.5h6.5v1.5c0,0.3,0.2,0.5,0.5,0.5h2c0.3,0,0.5-0.2,0.5-0.5V285
			c0-1.1,0.9-2,2-2c1.1,0,2,0.9,2,2v7.5c0,0.3,0.2,0.5,0.5,0.5h2c0.3,0,0.5-0.2,0.5-0.5V291h6.5c0.3,0,0.5-0.2,0.5-0.5v-8
			C-443,282.3-443.1,282.1-443.3,282.1z M-460,290h-6v-7.2l6-3.1V290z M-450.5,277c-0.3,0-0.5,0.2-0.5,0.5V292h-1v-7
			c0-1.7-1.3-3-3-3s-3,1.3-3,3v7h-1v-14.5c0-0.3-0.2-0.5-0.5-0.5h-0.2l4.7-2.9l4.7,2.9H-450.5z M-444,290h-6v-10.3l6,3.1V290z
			 M-448.5,288h3c0.3,0,0.5-0.2,0.5-0.5V285c0-1.1-0.9-2-2-2c-1.1,0-2,0.9-2,2v2.5C-449,287.8-448.8,288-448.5,288z M-448,285
			c0-0.6,0.4-1,1-1c0.6,0,1,0.4,1,1v2h-2V285z"/>
	</g>
</g>
</svg>
