<?xml version="1.0" encoding="utf-8"?>
<!-- Generator: Adobe Illustrator 19.0.0, SVG Export Plug-In . SVG Version: 6.00 Build 0)  -->
<svg version="1.1" id="Layer_1" xmlns="http://www.w3.org/2000/svg" xmlns:xlink="http://www.w3.org/1999/xlink" x="0px" y="0px"
	 viewBox="-467 269 24 24" style="enable-background:new -467 269 24 24;" xml:space="preserve">
<g>
	<g>
		<path d="M-459,281h-3c-0.3,0-0.5,0.2-0.5,0.5v3c0,0.3,0.2,0.5,0.5,0.5h3c0.3,0,0.5-0.2,0.5-0.5v-3C-458.5,281.2-458.7,281-459,281
			z M-459.5,284h-2v-2h2V284z M-459,276h-3c-0.3,0-0.5,0.2-0.5,0.5v3c0,0.3,0.2,0.5,0.5,0.5h3c0.3,0,0.5-0.2,0.5-0.5v-3
			C-458.5,276.2-458.7,276-459,276z M-459.5,279h-2v-2h2V279z M-459,271h-3c-0.3,0-0.5,0.2-0.5,0.5v3c0,0.3,0.2,0.5,0.5,0.5h3
			c0.3,0,0.5-0.2,0.5-0.5v-3C-458.5,271.2-458.7,271-459,271z M-459.5,274h-2v-2h2V274z M-446,270h-3c-0.3,0-0.5,0.2-0.5,0.5v1.5h-2
			v-0.5c0-1.4-1.1-2.5-2.5-2.5h-8c-1.4,0-2.5,1.1-2.5,2.5v21c0,0.3,0.2,0.5,0.5,0.5h4c0.3,0,0.5-0.2,0.5-0.5v-3.8
			c0-1,0.8-1.8,1.8-1.8s1.8,0.8,1.8,1.8v3.8c0,0.3,0.2,0.5,0.5,0.5h3.5c0.3,0,0.5-0.2,0.5-0.5V288h2v2.5c0,0.3,0.2,0.5,0.5,0.5h3
			c0.3,0,0.5-0.2,0.5-0.5v-20C-445.5,270.2-445.7,270-446,270z M-452.5,292h-2.5v-3.3c0-1.5-1.2-2.8-2.8-2.8s-2.8,1.2-2.8,2.8v3.3
			h-3v-20.5c0-0.8,0.7-1.5,1.5-1.5h8c0.8,0,1.5,0.7,1.5,1.5V292z M-449.5,287h-2v-14h2V287z M-446.5,290h-2v-19h2V290z M-454,271h-3
			c-0.3,0-0.5,0.2-0.5,0.5v3c0,0.3,0.2,0.5,0.5,0.5h3c0.3,0,0.5-0.2,0.5-0.5v-3C-453.5,271.2-453.7,271-454,271z M-454.5,274h-2v-2
			h2V274z M-454,281h-3c-0.3,0-0.5,0.2-0.5,0.5v3c0,0.3,0.2,0.5,0.5,0.5h3c0.3,0,0.5-0.2,0.5-0.5v-3C-453.5,281.2-453.7,281-454,281
			z M-454.5,284h-2v-2h2V284z M-454,276h-3c-0.3,0-0.5,0.2-0.5,0.5v3c0,0.3,0.2,0.5,0.5,0.5h3c0.3,0,0.5-0.2,0.5-0.5v-3
			C-453.5,276.2-453.7,276-454,276z M-454.5,279h-2v-2h2V279z"/>
	</g>
</g>
</svg>
