<?xml version="1.0" encoding="utf-8"?>
<!-- Generator: Adobe Illustrator 19.0.0, SVG Export Plug-In . SVG Version: 6.00 Build 0)  -->
<svg version="1.1" id="Layer_1" xmlns="http://www.w3.org/2000/svg" xmlns:xlink="http://www.w3.org/1999/xlink" x="0px" y="0px"
	 viewBox="-467 269 24 24" style="enable-background:new -467 269 24 24;" xml:space="preserve">
<g>
	<g>
		<path d="M-444.3,284.8l-3.4-1.7h0l0,0c0,0,0,0,0,0c0,0-0.1,0-0.1,0c0,0-0.2,0-0.6-0.1v-2.4c0-3.4-2.6-6.2-6-6.5v-2.1
			c0.6-0.2,1-0.8,1-1.4c0-0.8-0.7-1.5-1.5-1.5c-0.8,0-1.5,0.7-1.5,1.5c0,0.7,0.4,1.2,1,1.4v2.1c-3.4,0.3-6,3.1-6,6.5v2.4
			c-0.4,0-0.6,0.1-0.6,0.1c0,0-0.1,0-0.1,0c0,0,0,0,0,0l-3.4,1.7c-0.5,0.3-0.8,0.8-0.8,1.3v6.4c0,0.3,0.2,0.5,0.5,0.5h22
			c0.3,0,0.5-0.2,0.5-0.5v-6.4C-443.5,285.5-443.8,285-444.3,284.8z M-462.5,292h-3v-5.9c0-0.2,0.1-0.4,0.3-0.4l2.7-1.4V292z
			 M-455,270c0.3,0,0.5,0.2,0.5,0.5s-0.2,0.5-0.5,0.5s-0.5-0.2-0.5-0.5S-455.3,270-455,270z M-455,275c2.8,0,5.2,2.1,5.5,4.9
			c-1-0.2-2.9-0.4-5.5-0.4c-2.5,0-4.5,0.3-5.5,0.4C-460.2,277.1-457.8,275-455,275z M-460.5,280.9c0.8-0.1,2.9-0.4,5.5-0.4
			c2.6,0,4.7,0.3,5.5,0.4v1.9c-1.4-0.1-3.4-0.3-5.5-0.3c-2,0-4.1,0.2-5.5,0.3V280.9z M-453.5,292h-3v-2.5c0-0.8,0.7-1.5,1.5-1.5
			c0.8,0,1.5,0.7,1.5,1.5V292z M-448.5,292h-4v-2.5c0-1.4-1.1-2.5-2.5-2.5s-2.5,1.1-2.5,2.5v2.5h-4v-8.1c1-0.1,3.8-0.4,6.5-0.4
			c2.7,0,5.5,0.3,6.5,0.4V292z M-444.5,292h-3v-7.7l2.7,1.4c0.2,0.1,0.3,0.3,0.3,0.4V292z M-457,285c-0.3,0-0.5,0.2-0.5,0.5v0.5
			c0,0.3,0.2,0.5,0.5,0.5s0.5-0.2,0.5-0.5v-0.5C-456.5,285.2-456.7,285-457,285z M-464,288c0.3,0,0.5-0.2,0.5-0.5v-1
			c0-0.3-0.2-0.5-0.5-0.5s-0.5,0.2-0.5,0.5v1C-464.5,287.8-464.3,288-464,288z M-450,287c0.3,0,0.5-0.2,0.5-0.5v-1
			c0-0.3-0.2-0.5-0.5-0.5s-0.5,0.2-0.5,0.5v1C-450.5,286.8-450.3,287-450,287z M-453,286.5c0.3,0,0.5-0.2,0.5-0.5v-0.5
			c0-0.3-0.2-0.5-0.5-0.5s-0.5,0.2-0.5,0.5v0.5C-453.5,286.3-453.3,286.5-453,286.5z M-460,285c-0.3,0-0.5,0.2-0.5,0.5v1
			c0,0.3,0.2,0.5,0.5,0.5s0.5-0.2,0.5-0.5v-1C-459.5,285.2-459.7,285-460,285z M-446,286c-0.3,0-0.5,0.2-0.5,0.5v1
			c0,0.3,0.2,0.5,0.5,0.5s0.5-0.2,0.5-0.5v-1C-445.5,286.2-445.7,286-446,286z"/>
	</g>
</g>
</svg>
