<?xml version="1.0" encoding="utf-8"?>
<!-- Generator: Adobe Illustrator 19.0.0, SVG Export Plug-In . SVG Version: 6.00 Build 0)  -->
<svg version="1.1" id="Layer_1" xmlns="http://www.w3.org/2000/svg" xmlns:xlink="http://www.w3.org/1999/xlink" x="0px" y="0px"
	 viewBox="-467 269 24 24" style="enable-background:new -467 269 24 24;" xml:space="preserve">
<g>
	<g>
		<path d="M-461.5,272.5c0.3,0,0.5-0.2,0.5-0.5v-1c0-0.3-0.2-0.5-0.5-0.5s-0.5,0.2-0.5,0.5v1C-462,272.3-461.8,272.5-461.5,272.5z
			 M-458,276c0,0.3,0.2,0.5,0.5,0.5h1c0.3,0,0.5-0.2,0.5-0.5s-0.2-0.5-0.5-0.5h-1C-457.8,275.5-458,275.7-458,276z M-461.5,278.5
			c1.4,0,2.5-1.1,2.5-2.5s-1.1-2.5-2.5-2.5s-2.5,1.1-2.5,2.5S-462.9,278.5-461.5,278.5z M-461.5,274.5c0.8,0,1.5,0.7,1.5,1.5
			s-0.7,1.5-1.5,1.5c-0.8,0-1.5-0.7-1.5-1.5S-462.3,274.5-461.5,274.5z M-458.7,273.7c0.1,0,0.3,0,0.4-0.1l0.7-0.7
			c0.2-0.2,0.2-0.5,0-0.7s-0.5-0.2-0.7,0l-0.7,0.7c-0.2,0.2-0.2,0.5,0,0.7C-458.9,273.6-458.8,273.7-458.7,273.7z M-462,280v1
			c0,0.3,0.2,0.5,0.5,0.5s0.5-0.2,0.5-0.5v-1c0-0.3-0.2-0.5-0.5-0.5S-462,279.7-462,280z M-466.5,276.5h1c0.3,0,0.5-0.2,0.5-0.5
			s-0.2-0.5-0.5-0.5h-1c-0.3,0-0.5,0.2-0.5,0.5S-466.8,276.5-466.5,276.5z M-443.1,290.7c-1-1.2-2.1-2.1-3.3-3
			c-2.2-1.6-4.5-3.3-5.6-7.8c0-0.1-0.1-0.3-0.2-0.3c-0.1-0.1-0.3-0.1-0.4,0c0,0-1.4,0.4-2.4,0.5c-0.9,0.1-2.3-0.5-2.3-0.5
			c-0.1-0.1-0.3,0-0.4,0c-0.1,0.1-0.2,0.2-0.2,0.4c-0.6,4.3-3,6-5.4,7.7c-1.2,0.9-2.5,1.8-3.5,3c-0.1,0.2-0.1,0.4-0.1,0.5
			s0.3,0.3,0.4,0.3h23c0.2,0,0.4-0.1,0.4-0.3S-443,290.8-443.1,290.7z M-455,281c0.7,0,1.4-0.2,2-0.3v1.2l-0.1-0.1
			c-0.1-0.2-0.3-0.3-0.5-0.3c-0.2,0-0.4,0.2-0.4,0.3l-0.5,1.6l-0.5-1.6c-0.1-0.2-0.2-0.3-0.4-0.3c-0.2,0-0.3,0-0.5,0.1l-0.5,0.5
			l-0.6-1.4C-456.3,280.9-455.6,281-455,281z M-465.4,290.5c0.7-0.7,1.6-1.4,2.6-2c2.1-1.5,4.4-3.1,5.4-6.5l0.5,1.2
			c0.1,0.2,0.2,0.3,0.4,0.3c0.2,0,0.3,0,0.5-0.1l0.4-0.4l0.7,2.2c0.1,0.2,0.3,0.3,0.5,0.3c0.2,0,0.4-0.1,0.5-0.3l0.6-1.9l0.5,0.9
			c0.1,0.2,0.3,0.3,0.6,0.3c0.2-0.1,0.4-0.3,0.4-0.5v-1c1.3,2.8,3.3,4.3,5,5.5c0.9,0.6,1.7,1.2,2.4,2H-465.4z M-464.7,278.5
			l-0.7,0.7c-0.2,0.2-0.2,0.5,0,0.7c0.1,0.1,0.2,0.1,0.4,0.1s0.3,0,0.4-0.1l0.7-0.7c0.2-0.2,0.2-0.5,0-0.7
			C-464.2,278.3-464.5,278.3-464.7,278.5z M-464.7,273.5c0.1,0.1,0.2,0.1,0.4,0.1c0.1,0,0.3,0,0.4-0.1c0.2-0.2,0.2-0.5,0-0.7
			l-0.7-0.7c-0.2-0.2-0.5-0.2-0.7,0s-0.2,0.5,0,0.7L-464.7,273.5z"/>
	</g>
</g>
</svg>
