<?xml version="1.0" encoding="utf-8"?>
<!-- Generator: Adobe Illustrator 19.0.0, SVG Export Plug-In . SVG Version: 6.00 Build 0)  -->
<svg version="1.1" id="Layer_1" xmlns="http://www.w3.org/2000/svg" xmlns:xlink="http://www.w3.org/1999/xlink" x="0px" y="0px"
	 viewBox="-467 269 24 24" style="enable-background:new -467 269 24 24;" xml:space="preserve">
<g>
	<g>
		<path d="M-444.5,278c0,0,0-0.1,0-0.1c0,0,0-0.1,0-0.1c0,0,0,0,0,0l-3-6.4v-0.9c0-0.8-0.7-1.5-1.5-1.5h-12c-0.8,0-1.5,0.7-1.5,1.5
			v0.9l-3,6.4c0,0,0,0,0,0c0,0,0,0.1,0,0.1c0,0,0,0.1,0,0.1c0,0,0,0,0,0c0,0.8,0.4,1.5,1,2v12.5c0,0.3,0.2,0.5,0.5,0.5h18
			c0.3,0,0.5-0.2,0.5-0.5V280C-444.9,279.5-444.5,278.8-444.5,278C-444.5,278-444.5,278-444.5,278z M-461.5,270.5
			c0-0.3,0.2-0.5,0.5-0.5h12c0.3,0,0.5,0.2,0.5,0.5v0.5h-13V270.5z M-453.5,278c0,0.8-0.7,1.5-1.5,1.5s-1.5-0.7-1.5-1.5l0.5-6h2.1
			L-453.5,278z M-463.8,279.3c-0.4-0.2-0.7-0.7-0.7-1.2l2.8-6.1h1.5l-1.4,5.9c0,0,0,0,0,0.1c0,0,0,0,0,0.1c0,0.8-0.7,1.5-1.5,1.5
			c-0.1,0-0.2,0-0.4-0.1c0,0,0,0,0,0C-463.5,279.4-463.6,279.4-463.8,279.3C-463.8,279.3-463.8,279.3-463.8,279.3z M-458.5,292h-5
			v-5h5V292z M-458.5,286h-5v-5.6c0,0,0,0,0,0c0.1,0,0.3,0,0.4,0c0,0,0,0,0.1,0c0,0,0.1,0,0.1,0c0.1,0,0.2,0,0.3,0
			c0.3,0,0.6-0.1,0.8-0.3c0,0,0.1,0,0.1-0.1c0.1,0,0.1-0.1,0.2-0.1c0.1-0.1,0.2-0.1,0.2-0.2c0,0,0.1,0,0.1-0.1
			c0.1-0.1,0.2-0.2,0.2-0.3c0,0,0.1,0.1,0.1,0.1c0.1,0.1,0.1,0.2,0.2,0.2c0.1,0,0.1,0.1,0.2,0.1c0.1,0.1,0.2,0.1,0.3,0.2
			c0.1,0,0.1,0.1,0.2,0.1c0.1,0.1,0.2,0.1,0.3,0.1c0.1,0,0.1,0,0.2,0.1c0.2,0,0.4,0.1,0.6,0.1c0.2,0,0.3,0,0.5-0.1V286z M-459,279.5
			c-0.8,0-1.5-0.7-1.5-1.5l1.4-6h2.1l-0.5,6c0,0,0,0,0,0c0,0,0,0,0,0C-457.5,278.8-458.2,279.5-459,279.5z M-452.5,280v12h-5v-12
			c0,0,0,0,0,0c0,0,0,0,0,0c0.1,0,0.1-0.1,0.2-0.1c0.1-0.1,0.2-0.2,0.2-0.2c0,0,0.1-0.1,0.1-0.1c0,0,0.1,0.1,0.1,0.1
			c0.1,0.1,0.1,0.2,0.2,0.2c0.1,0,0.1,0.1,0.2,0.1c0.1,0.1,0.2,0.1,0.3,0.2c0.1,0,0.1,0.1,0.2,0.1c0.1,0.1,0.2,0.1,0.3,0.1
			c0.1,0,0.1,0,0.2,0.1c0.2,0,0.4,0.1,0.6,0.1s0.4,0,0.6-0.1c0.1,0,0.1,0,0.2-0.1c0.1,0,0.2-0.1,0.3-0.1c0.1,0,0.1-0.1,0.2-0.1
			c0.1-0.1,0.2-0.1,0.3-0.2c0.1,0,0.1-0.1,0.2-0.1c0.1-0.1,0.2-0.2,0.2-0.2c0,0,0.1-0.1,0.1-0.1c0,0,0.1,0.1,0.1,0.1
			c0.1,0.1,0.1,0.2,0.2,0.2C-452.6,279.9-452.6,279.9-452.5,280C-452.5,280-452.5,280-452.5,280C-452.5,280-452.5,280-452.5,280z
			 M-452.5,278C-452.5,278-452.5,278-452.5,278C-452.5,278-452.5,278-452.5,278l-0.5-6h2.1l1.4,6c0,0.8-0.7,1.5-1.5,1.5
			C-451.8,279.5-452.5,278.8-452.5,278z M-446.5,292h-5v-5h5V292z M-446.5,286h-5v-5.6c0.2,0,0.3,0.1,0.5,0.1c0.2,0,0.4,0,0.6-0.1
			c0.1,0,0.1,0,0.2-0.1c0.1,0,0.2-0.1,0.3-0.1c0.1,0,0.1-0.1,0.2-0.1c0.1-0.1,0.2-0.1,0.3-0.2c0.1,0,0.1-0.1,0.2-0.1
			c0.1-0.1,0.2-0.2,0.2-0.2c0,0,0.1-0.1,0.1-0.1c0.1,0.1,0.1,0.2,0.2,0.3c0,0,0.1,0,0.1,0.1c0.1,0.1,0.1,0.1,0.2,0.2
			c0.1,0,0.1,0.1,0.2,0.1c0,0,0.1,0,0.1,0.1c0.2,0.1,0.5,0.2,0.8,0.3c0.1,0,0.2,0,0.3,0c0,0,0.1,0,0.1,0c0,0,0,0,0.1,0
			c0.1,0,0.3,0,0.4,0c0,0,0,0,0,0V286z M-446.2,279.3C-446.2,279.3-446.2,279.3-446.2,279.3c-0.1,0.1-0.2,0.1-0.4,0.2c0,0,0,0,0,0
			c-0.1,0-0.2,0.1-0.4,0.1c-0.8,0-1.5-0.7-1.5-1.5c0,0,0,0,0-0.1c0,0,0,0,0-0.1l-1.4-5.9h1.5l2.8,6.1
			C-445.5,278.6-445.8,279-446.2,279.3z"/>
	</g>
</g>
</svg>
