<?xml version="1.0" encoding="utf-8"?>
<!-- Generator: Adobe Illustrator 19.0.0, SVG Export Plug-In . SVG Version: 6.00 Build 0)  -->
<svg version="1.1" id="Layer_1" xmlns="http://www.w3.org/2000/svg" xmlns:xlink="http://www.w3.org/1999/xlink" x="0px" y="0px"
	 viewBox="-467 269 24 24" style="enable-background:new -467 269 24 24;" xml:space="preserve">
<g>
	<g>
		<path d="M-443,272.3C-443,272.3-443.1,272.3-443,272.3c0-0.1-0.1-0.1-0.1-0.2c0,0,0,0,0,0c0,0-0.1,0-0.1-0.1c0,0,0,0-0.1,0
			c0,0,0,0,0,0l-11.5-3c-0.1,0-0.2,0-0.3,0l-11.5,3c0,0,0,0,0,0c0,0,0,0-0.1,0c0,0-0.1,0-0.1,0.1c0,0,0,0,0,0c0,0,0,0.1-0.1,0.1
			c0,0,0,0,0,0.1c0,0.1,0,0.1,0,0.2v20c0,0.3,0.2,0.5,0.5,0.5h23c0.3,0,0.5-0.2,0.5-0.5v-20C-443,272.4-443,272.4-443,272.3z
			 M-455,270l7.6,2h-15.2L-455,270z M-461,292h-3v-3h3V292z M-464,288v-2h2v2H-464z M-457,292h-3v-2h3V292z M-444,292h-7v-3h7V292z
			 M-444,288h-5v-2h5V288z M-444,285h-5.5c-0.3,0-0.5,0.2-0.5,0.5v2.5h-1.5c-0.3,0-0.5,0.2-0.5,0.5v3.5h-4v-2.5
			c0-0.3-0.2-0.5-0.5-0.5h-3.5v-0.5c0-0.3-0.2-0.5-0.5-0.5h-0.5v-2.5c0-0.3-0.2-0.5-0.5-0.5h-3c-0.3,0-0.5,0.2-0.5,0.5v6.5h-1v-10
			h22V285z M-444,281h-22v-2h22V281z M-444,278h-22v-2h22V278z M-444,275h-22v-2h22V275z"/>
	</g>
</g>
</svg>
