<?xml version="1.0" encoding="iso-8859-1"?>
<!-- Generator: Adobe Illustrator 19.0.0, SVG Export Plug-In . SVG Version: 6.00 Build 0)  -->
<svg version="1.1" id="Layer_1" xmlns="http://www.w3.org/2000/svg" xmlns:xlink="http://www.w3.org/1999/xlink" x="0px" y="0px"
	 viewBox="3 -3 30 30" style="enable-background:new 3 -3 30 30;" xml:space="preserve">
<path style="fill:#231F20;" d="M32.5,0.025c-0.3,0-0.5,0.2-0.5,0.5c0,8.3-5.8,14.5-13.5,14.5H4.7l7.15-7.15c0.2-0.2,0.2-0.5,0-0.7
	c-0.2-0.2-0.5-0.2-0.7,0l-7.942,7.942C3.081,15.203,3,15.342,3,15.525s0.081,0.322,0.208,0.408l7.942,7.942c0.1,0.1,0.3,0.1,0.4,0.1
	c0.1,0,0.3,0,0.3-0.2c0.2-0.2,0.2-0.5,0-0.7l-7.05-7.05h13.7c8.3,0,14.5-6.7,14.5-15.5C33,0.225,32.8,0.025,32.5,0.025z"/>
</svg>
