<?xml version="1.0" encoding="utf-8"?>
<!-- Generator: Adobe Illustrator 19.0.0, SVG Export Plug-In . SVG Version: 6.00 Build 0)  -->
<svg version="1.1" id="Layer_1" xmlns="http://www.w3.org/2000/svg" xmlns:xlink="http://www.w3.org/1999/xlink" x="0px" y="0px"
	 viewBox="0 0 30 30" style="enable-background:new 0 0 30 30;" xml:space="preserve">
<style type="text/css">
	.st0{fill:#231F20;}
</style>
<g>
	<g>
		<path class="st0" d="M13.5,29.5c-0.1,0-0.3,0-0.4-0.1c-0.2-0.2-0.2-0.5,0-0.7L26.8,15L13.1,1.4c-0.2-0.2-0.2-0.5,0-0.7
			s0.5-0.2,0.7,0l14,14c0.2,0.2,0.2,0.5,0,0.7l-14,14C13.8,29.5,13.6,29.5,13.5,29.5z"/>
	</g>
	<g>
		<path class="st0" d="M2.5,29.5c-0.1,0-0.3,0-0.4-0.1c-0.2-0.2-0.2-0.5,0-0.7L15.8,15L2.1,1.4C2,1.2,2,0.8,2.1,0.6s0.5-0.2,0.7,0
			l14,14c0.2,0.2,0.2,0.5,0,0.7l-14,14C2.8,29.5,2.6,29.5,2.5,29.5z"/>
	</g>
</g>
</svg>
