<?xml version="1.0" encoding="utf-8"?>
<!-- Generator: Adobe Illustrator 19.0.0, SVG Export Plug-In . SVG Version: 6.00 Build 0)  -->
<svg version="1.1" id="Layer_1" xmlns="http://www.w3.org/2000/svg" xmlns:xlink="http://www.w3.org/1999/xlink" x="0px" y="0px"
	 viewBox="0 0 30 30" style="enable-background:new 0 0 30 30;" xml:space="preserve">
<style type="text/css">
	.st0{fill:#231F20;}
</style>
<g>
	<path class="st0" d="M13.5,29.5h-11c-0.2,0-0.4-0.1-0.5-0.3s0-0.4,0.1-0.5L15.8,15L2.1,1.4C2,1.2,2,1,2,0.8s0.3-0.3,0.5-0.3h11
		c0.1,0,0.3,0.1,0.4,0.1l14,14c0.2,0.2,0.2,0.5,0,0.7l-14,14C13.8,29.4,13.6,29.5,13.5,29.5z M3.7,28.5h9.6L26.8,15L13.3,1.5H3.7
		l13.1,13.1c0.2,0.2,0.2,0.5,0,0.7L3.7,28.5z"/>
</g>
</svg>
