<?xml version="1.0" encoding="utf-8"?>
<!-- Generator: Adobe Illustrator 19.0.0, SVG Export Plug-In . SVG Version: 6.00 Build 0)  -->
<svg version="1.1" id="Layer_1" xmlns="http://www.w3.org/2000/svg" xmlns:xlink="http://www.w3.org/1999/xlink" x="0px" y="0px"
	 viewBox="0 0 30 30" style="enable-background:new 0 0 30 30;" xml:space="preserve">
<style type="text/css">
	.st0{fill:#231F20;}
</style>
<g>
	<path class="st0" d="M15,30c-1.9,0-3.5-1.6-3.5-3.5V11.7l-5.2,5c-1.2,1.1-3.1,1.1-4.2-0.1c-1.1-1.2-1.1-3.1,0.1-4.2L14.7,0.1
		c0.2-0.2,0.5-0.2,0.7,0l12.6,12.2l0,0c1.2,1.1,1.2,3.1,0.1,4.2c-1.2,1.2-3.1,1.2-4.2,0.1l-5.2-5v14.8C18.5,28.4,16.9,30,15,30z
		 M12,10c0.1,0,0.1,0,0.2,0c0.2,0.1,0.3,0.3,0.3,0.5v16c0,1.4,1.1,2.5,2.5,2.5s2.5-1.1,2.5-2.5v-16c0-0.2,0.1-0.4,0.3-0.5
		c0.2-0.1,0.4,0,0.5,0.1l6.1,5.8c0.8,0.8,2.1,0.7,2.8,0c0.8-0.8,0.7-2.1-0.1-2.8l0,0L15,1.2L2.8,13c-0.8,0.8-0.8,2-0.1,2.8
		c0.8,0.8,2,0.8,2.8,0l6.1-5.8C11.8,10,11.9,10,12,10z"/>
</g>
</svg>
