<?xml version="1.0" encoding="utf-8"?>
<!-- Generator: Adobe Illustrator 19.0.0, SVG Export Plug-In . SVG Version: 6.00 Build 0)  -->
<svg version="1.1" id="Layer_1" xmlns="http://www.w3.org/2000/svg" xmlns:xlink="http://www.w3.org/1999/xlink" x="0px" y="0px"
	 viewBox="0 0 30 30" style="enable-background:new 0 0 30 30;" xml:space="preserve">
<g>
	<g>
		<path d="M18.2,30H18c-1.5,0-2.7-0.1-3.8-0.4C8.5,28.2,4.5,23.4,4.5,18c0-2.7,0.8-5.2,2.1-6.8c0.2-0.2,0.4-0.5,0.6-0.7
			c0.7-0.9,1.3-1.7,2.6-2.4C10,8,10.2,8,10.4,8.2c0.2,0.2,0.2,0.4,0.1,0.6c-0.4,0.6-0.6,1.3-0.8,2.2c0,0,0,0,0,0.1h11.8
			c-0.2-2.5-2.3-5-6.5-5C10.8,6,5,7.2,1.4,12.8C1.3,13,1,13,0.8,13c-0.2-0.1-0.4-0.3-0.3-0.5C1.5,5.3,7.7,0,15,0
			c6.3,0,11.8,3.9,13.7,9.8c0.2,0.5,0.3,1.1,0.5,1.6c0.2,1.1,0.3,2.2,0.3,3.2v1.9c0,0.3-0.2,0.5-0.5,0.5H10.5c0.2,4.7,2.8,7,8,7
			c1.3,0,2,0,2.6-0.1c1.7-0.2,3.3-1,4.6-1.8c0.2-0.1,0.3-0.1,0.5,0c0.2,0.1,0.3,0.3,0.3,0.4v5c0,0.2-0.1,0.3-0.2,0.4
			c-1.7,1-3.9,1.7-6.2,2C19.5,30,18.9,30,18.2,30z M8.8,10c-0.3,0.3-0.6,0.7-0.9,1.1c-0.2,0.2-0.4,0.5-0.6,0.7
			c-1.2,1.5-1.9,3.7-1.9,6.2c0,5,3.7,9.4,9,10.6c1,0.2,2.1,0.4,3.5,0.4h0.1c0.7,0,1.3,0,1.8-0.1c2.1-0.2,4-0.8,5.6-1.7v-3.8
			c-1.2,0.7-2.7,1.3-4.3,1.5C20.6,25,19.8,25,18.5,25c-5.9,0-9-2.9-9-8.5c0-0.3,0.2-0.5,0.5-0.5h18.5v-1.4c0-1-0.1-2-0.3-3
			c-0.1-0.5-0.2-1-0.4-1.5C26,4.6,20.8,1,15,1C9,1,3.8,4.9,2,10.3C5.8,6,11.1,5,15,5c4.9,0,7.5,3.3,7.5,6.5c0,0.3-0.2,0.5-0.5,0.5H9
			c-0.2,0-0.3-0.1-0.4-0.2s-0.1-0.3-0.1-0.4c0.1-0.2,0.1-0.4,0.2-0.7C8.7,10.5,8.8,10.3,8.8,10z"/>
	</g>
</g>
</svg>
