<?xml version="1.0" encoding="utf-8"?>
<!-- Generator: Adobe Illustrator 19.0.0, SVG Export Plug-In . SVG Version: 6.00 Build 0)  -->
<svg version="1.1" id="Layer_1" xmlns="http://www.w3.org/2000/svg" xmlns:xlink="http://www.w3.org/1999/xlink" x="0px" y="0px"
	 viewBox="0 0 30 30" style="enable-background:new 0 0 30 30;" xml:space="preserve">
<g>
	<path d="M22.2,29.1c-0.2,0-0.3-0.1-0.4-0.2l-4.7-7.7C17,21,17,20.9,17,20.7c0-0.1,0.1-0.2,0.3-0.3c1.7-0.9,2.7-2.6,2.7-4.5
		c0-2.8-2.2-5-5-5s-5,2.2-5,5c0,1.8,0.9,3.4,2.4,4.3c0.2,0.1,0.3,0.5,0.2,0.7l-4.7,7.7c-0.1,0.1-0.2,0.2-0.3,0.2
		c-0.1,0-0.3,0-0.4-0.1C2.7,26,0,21.2,0,15.9c0-8.3,6.7-15,15-15s15,6.7,15,15c0,5.4-2.9,10.4-7.6,13C22.3,29,22.2,29.1,22.2,29.1z
		 M18.2,21l4.1,6.8c4.1-2.5,6.7-7.1,6.7-11.9c0-7.7-6.3-14-14-14S1,8.2,1,15.9c0,4.8,2.4,9.1,6.3,11.7l4.2-6.8
		C9.9,19.7,9,17.9,9,15.9c0-3.3,2.7-6,6-6s6,2.7,6,6C21,18,19.9,19.9,18.2,21z"/>
</g>
</svg>
