<?xml version="1.0" encoding="iso-8859-1"?>
<!-- Generator: Adobe Illustrator 19.0.0, SVG Export Plug-In . SVG Version: 6.00 Build 0)  -->
<svg version="1.1" id="Layer_1" xmlns="http://www.w3.org/2000/svg" xmlns:xlink="http://www.w3.org/1999/xlink" x="0px" y="0px"
	 viewBox="0 0 30 30" style="enable-background:new 0 0 30 30;" xml:space="preserve">
<g>
	<g>
		<path d="M28.239,8.5h-2.478C24.79,8.5,24,9.323,24,10.333V19c0,0.276-0.224,0.5-0.5,0.5h-17C6.224,19.5,6,19.276,6,19v-8.667
			C6,9.323,5.21,8.5,4.239,8.5H1.761C0.79,8.5,0,9.323,0,10.333v13.333C0,24.677,0.79,25.5,1.761,25.5H2V27
			c0,0.276,0.224,0.5,0.5,0.5h5C7.776,27.5,8,27.276,8,27v-1.5h13.5V27c0,0.276,0.224,0.5,0.5,0.5h5c0.276,0,0.5-0.224,0.5-0.5v-1.5
			h0.739C29.21,25.5,30,24.677,30,23.667V10.333C30,9.323,29.21,8.5,28.239,8.5z M7,10.333V18.5h16v-8.167
			C23,8.771,24.238,7.5,25.761,7.5H28v-2.1c0-1.599-1.405-2.9-3.131-2.9H5.132c-1.727,0-3.131,1.301-3.131,2.9v2.1H4.24
			C5.762,7.5,7,8.771,7,10.333z"/>
	</g>
</g>
</svg>
