<?xml version="1.0" encoding="iso-8859-1"?>
<!-- Generator: Adobe Illustrator 19.0.0, SVG Export Plug-In . SVG Version: 6.00 Build 0)  -->
<svg version="1.1" id="Layer_1" xmlns="http://www.w3.org/2000/svg" xmlns:xlink="http://www.w3.org/1999/xlink" x="0px" y="0px"
	 viewBox="0 0 30 30" style="enable-background:new 0 0 30 30;" xml:space="preserve">
<g>
	<g>
		<path d="M7.646,10.854C7.744,10.952,7.872,11,8,11s0.256-0.049,0.354-0.146l5-5c0.195-0.195,0.195-0.512,0-0.707
			s-0.512-0.195-0.707,0l-5,5C7.451,10.342,7.451,10.658,7.646,10.854z M12.646,20.146l-3,3c-0.195,0.195-0.195,0.512,0,0.707
			c0.098,0.098,0.226,0.146,0.354,0.146s0.256-0.049,0.354-0.146l3-3c0.195-0.195,0.195-0.512,0-0.707S12.842,19.951,12.646,20.146z
			 M12.354,17.147c-0.195-0.195-0.512-0.195-0.707,0l-5,5c-0.195,0.195-0.195,0.512,0,0.707C6.744,22.951,6.872,23,7,23
			s0.256-0.049,0.354-0.146l5-5C12.549,17.659,12.549,17.342,12.354,17.147z M6.647,7.854C6.744,7.951,6.872,8,7,8
			s0.256-0.049,0.354-0.146l3-3c0.195-0.195,0.195-0.512,0-0.707s-0.512-0.195-0.707,0l-3,3C6.452,7.342,6.452,7.659,6.647,7.854z
			 M23,0H7C5.621,0,4.5,1.122,4.5,2.5v26C4.5,28.776,4.724,29,5,29h0.5v0.5C5.5,29.776,5.724,30,6,30s0.5-0.224,0.5-0.5V29h17v0.5
			c0,0.276,0.224,0.5,0.5,0.5s0.5-0.224,0.5-0.5V29H25c0.276,0,0.5-0.224,0.5-0.5v-26C25.5,1.122,24.379,0,23,0z M14.5,28h-9V2.5
			C5.5,1.673,6.173,1,7,1h7.5V28z M17.5,14.5c0,0.276-0.224,0.5-0.5,0.5s-0.5-0.224-0.5-0.5v-2c0-0.276,0.224-0.5,0.5-0.5
			s0.5,0.224,0.5,0.5V14.5z"/>
	</g>
</g>
</svg>
