<?xml version="1.0" encoding="iso-8859-1"?>
<!-- Generator: Adobe Illustrator 19.0.0, SVG Export Plug-In . SVG Version: 6.00 Build 0)  -->
<svg version="1.1" id="Layer_1" xmlns="http://www.w3.org/2000/svg" xmlns:xlink="http://www.w3.org/1999/xlink" x="0px" y="0px"
	 viewBox="0 0 24 24" style="enable-background:new 0 0 24 24;" xml:space="preserve">
<g>
	<g>
		<path d="M11.5,12C8.467,12,6,14.467,6,17.5S8.467,23,11.5,23s5.5-2.467,5.5-5.5S14.533,12,11.5,12z M14,18.5
			c0,0.651-0.419,1.201-1,1.408V20.5c0,0.276-0.224,0.5-0.5,0.5S12,20.776,12,20.5V20h-1v0.5c0,0.276-0.224,0.5-0.5,0.5
			S10,20.776,10,20.5V20H9.5C9.224,20,9,19.776,9,19.5v-4C9,15.224,9.224,15,9.5,15H10v-0.5c0-0.276,0.224-0.5,0.5-0.5
			s0.5,0.224,0.5,0.5V15h1v-0.5c0-0.276,0.224-0.5,0.5-0.5s0.5,0.224,0.5,0.5v0.592c0.581,0.207,1,0.757,1,1.408
			c0,0.384-0.145,0.734-0.383,1C13.855,17.766,14,18.116,14,18.5z M12.5,18H10v1h2.5c0.275,0,0.5-0.224,0.5-0.5S12.775,18,12.5,18z
			 M12.5,16H10v1h2.5c0.275,0,0.5-0.224,0.5-0.5S12.775,16,12.5,16z M18.846,7.023C18.151,3.561,15.065,1,11.5,1
			C7.364,1,4,4.364,4,8.5c0,0.169,0.007,0.342,0.022,0.525C1.765,9.265,0,11.18,0,13.5C0,15.981,2.019,18,4.5,18
			C4.776,18,5,17.776,5,17.5c0-3.584,2.916-6.5,6.5-6.5s6.5,2.916,6.5,6.5c0,0.276,0.224,0.5,0.5,0.5c3.033,0,5.5-2.467,5.5-5.5
			C24,9.609,21.758,7.232,18.846,7.023z"/>
	</g>
</g>
</svg>
