<?xml version="1.0" encoding="iso-8859-1"?>
<!-- Generator: Adobe Illustrator 19.0.0, SVG Export Plug-In . SVG Version: 6.00 Build 0)  -->
<svg version="1.1" id="Layer_1" xmlns="http://www.w3.org/2000/svg" xmlns:xlink="http://www.w3.org/1999/xlink" x="0px" y="0px"
	 viewBox="0 0 24 24" style="enable-background:new 0 0 24 24;" xml:space="preserve">
<g>
	<g>
		<path d="M11.5,12C8.467,12,6,14.467,6,17.5S8.467,23,11.5,23s5.5-2.467,5.5-5.5S14.533,12,11.5,12z M13.854,18.854l-1.999,1.999
			c-0.046,0.046-0.102,0.083-0.163,0.109C11.63,20.987,11.565,21,11.5,21s-0.13-0.013-0.191-0.038
			c-0.062-0.025-0.117-0.062-0.163-0.109l-1.999-1.999c-0.195-0.195-0.195-0.512,0-0.707c0.195-0.195,0.512-0.195,0.707,0L11,19.293
			V14.5c0-0.276,0.224-0.5,0.5-0.5s0.5,0.224,0.5,0.5v4.793l1.146-1.146c0.195-0.195,0.512-0.195,0.707,0
			C14.048,18.342,14.049,18.658,13.854,18.854z M18.846,7.023C18.151,3.561,15.065,1,11.5,1C7.364,1,4,4.364,4,8.5
			c0,0.169,0.007,0.342,0.022,0.525C1.765,9.265,0,11.18,0,13.5C0,15.981,2.019,18,4.5,18C4.776,18,5,17.776,5,17.5
			c0-3.584,2.916-6.5,6.5-6.5s6.5,2.916,6.5,6.5c0,0.276,0.224,0.5,0.5,0.5c3.033,0,5.5-2.467,5.5-5.5
			C24,9.609,21.758,7.232,18.846,7.023z"/>
	</g>
</g>
</svg>
