<?xml version="1.0" encoding="iso-8859-1"?>
<!-- Generator: Adobe Illustrator 19.0.0, SVG Export Plug-In . SVG Version: 6.00 Build 0)  -->
<svg version="1.1" id="Layer_1" xmlns="http://www.w3.org/2000/svg" xmlns:xlink="http://www.w3.org/1999/xlink" x="0px" y="0px"
	 viewBox="0 0 24 24" style="enable-background:new 0 0 24 24;" xml:space="preserve">
<g>
	<g>
		<path d="M18.846,7.023c-0.801-3.996-4.79-6.792-9.022-5.834C6.637,1.91,4.306,4.743,4.022,7.997c-0.029,0.336-0.029,0.661,0,1.028
			c-2.456,0.26-4.329,2.505-3.98,5.096C0.346,16.38,2.395,18,4.674,18H9.5c0.276,0,0.5-0.224,0.5-0.5v-1.585
			C9.841,15.971,9.673,16,9.5,16c-0.465,0-0.899-0.211-1.191-0.587c-0.473-0.61-0.345-1.498,0.201-2.044l1.929-1.929
			c0.182-0.182,0.41-0.31,0.677-0.381l0.061-0.016l0.124-0.02c0.074-0.01,0.148-0.016,0.221-0.016c0.167,0,0.329,0.027,0.48,0.081
			l0.168,0.048l0.076,0.063c0.104,0.059,0.216,0.143,0.315,0.242l1.929,1.929c0.546,0.546,0.674,1.434,0.201,2.044
			C14.399,15.789,13.965,16,13.5,16c-0.173,0-0.341-0.029-0.5-0.085V17.5c0,0.276,0.224,0.5,0.5,0.5h4.783
			c2.808,0,5.326-2.01,5.673-4.796C24.355,10.003,21.992,7.249,18.846,7.023z M13.5,15c0.128,0,0.256-0.049,0.354-0.146
			c0.195-0.196,0.195-0.512,0-0.708l-2-2c-0.047-0.047-0.101-0.08-0.157-0.105c-0.002-0.001-0.003-0.003-0.005-0.004h-0.001
			c-0.081-0.033-0.168-0.037-0.254-0.025c-0.022,0.003-0.041,0.006-0.062,0.012c-0.083,0.022-0.162,0.057-0.227,0.122l-2,2
			c-0.195,0.195-0.195,0.512,0,0.707s0.512,0.195,0.707,0L11,13.707V22.5c0,0.276,0.224,0.5,0.5,0.5s0.5-0.224,0.5-0.5v-8.793
			l1.146,1.146C13.244,14.951,13.372,15,13.5,15z"/>
	</g>
</g>
</svg>
