<?xml version="1.0" encoding="utf-8"?>
<!-- Generator: Adobe Illustrator 19.0.0, SVG Export Plug-In . SVG Version: 6.00 Build 0)  -->
<svg version="1.1" id="Layer_1" xmlns="http://www.w3.org/2000/svg" xmlns:xlink="http://www.w3.org/1999/xlink" x="0px" y="0px"
	 viewBox="0 0 30 30" style="enable-background:new 0 0 30 30;" xml:space="preserve">
<path d="M28,10.5h-6.3l2.7-7.3c0.1-0.3,0-0.5-0.3-0.6c-0.3-0.1-0.5,0-0.6,0.3l-2.9,7.7h-7.9l2.7-7.3c0.1-0.3,0-0.5-0.3-0.6
	c-0.3-0.1-0.5,0-0.6,0.3l-2.9,7.7H5c-0.3,0-0.5,0.2-0.5,0.5s0.2,0.5,0.5,0.5h6.3l-3,8H2c-0.3,0-0.5,0.2-0.5,0.5s0.2,0.5,0.5,0.5h5.9
	l-2.4,6.3c-0.1,0.3,0,0.5,0.3,0.6c0.1,0,0.1,0,0.2,0c0.2,0,0.4-0.1,0.5-0.3L9,20.5h7.9l-2.4,6.3c-0.1,0.3,0,0.5,0.3,0.6
	c0.1,0,0.1,0,0.2,0c0.2,0,0.4-0.1,0.5-0.3l2.5-6.7h7c0.3,0,0.5-0.2,0.5-0.5s-0.2-0.5-0.5-0.5h-6.7l3-8H28c0.3,0,0.5-0.2,0.5-0.5
	S28.3,10.5,28,10.5z M17.3,19.5H9.3l3-8h7.9L17.3,19.5z"/>
</svg>
