<?xml version="1.0" encoding="utf-8"?>
<!-- Generator: Adobe Illustrator 19.0.0, SVG Export Plug-In . SVG Version: 6.00 Build 0)  -->
<svg version="1.1" id="Layer_1" xmlns="http://www.w3.org/2000/svg" xmlns:xlink="http://www.w3.org/1999/xlink" x="0px" y="0px"
	 viewBox="0 0 30 30" style="enable-background:new 0 0 30 30;" xml:space="preserve">
<g>
	<path d="M19,3.5H1C0.7,3.5,0.5,3.7,0.5,4v2c0,0.3,0.2,0.5,0.5,0.5S1.5,6.3,1.5,6V4.5h8v21H8c-0.3,0-0.5,0.2-0.5,0.5
		s0.2,0.5,0.5,0.5h4c0.3,0,0.5-0.2,0.5-0.5s-0.2-0.5-0.5-0.5h-1.5v-21h8V6c0,0.3,0.2,0.5,0.5,0.5s0.5-0.2,0.5-0.5V4
		C19.5,3.7,19.3,3.5,19,3.5z"/>
	<path d="M28.6,22.6l-2.1,2.1V6.2l2.1,2.1c0.1,0.1,0.2,0.1,0.4,0.1c0.1,0,0.3,0,0.4-0.1c0.2-0.2,0.2-0.5,0-0.7l-3-3c0,0,0,0,0,0
		c0,0-0.1-0.1-0.1-0.1c-0.1,0-0.1,0-0.2,0c0,0,0,0,0,0s0,0,0,0c-0.1,0-0.1,0-0.2,0c0,0-0.1,0-0.1,0.1c0,0,0,0,0,0l-3,3
		c-0.2,0.2-0.2,0.5,0,0.7c0.2,0.2,0.5,0.2,0.7,0l2.1-2.1v18.6l-2.1-2.1c-0.2-0.2-0.5-0.2-0.7,0s-0.2,0.5,0,0.7l3,3
		c0,0,0.1,0.1,0.2,0.1c0.1,0,0.1,0,0.2,0s0.1,0,0.2,0c0.1,0,0.1-0.1,0.2-0.1l3-3c0.2-0.2,0.2-0.5,0-0.7S28.8,22.5,28.6,22.6z"/>
</g>
</svg>
