<?xml version="1.0" encoding="utf-8"?>
<!-- Generator: Adobe Illustrator 19.0.0, SVG Export Plug-In . SVG Version: 6.00 Build 0)  -->
<svg version="1.1" id="Layer_1" xmlns="http://www.w3.org/2000/svg" xmlns:xlink="http://www.w3.org/1999/xlink" x="0px" y="0px"
	 viewBox="0 0 30 30" style="enable-background:new 0 0 30 30;" xml:space="preserve">
<path d="M29.5,5H27V1.5C27,0.7,26.3,0,25.5,0h-20C4.7,0,4,0.7,4,1.5V5H3C1.3,5,0,6.4,0,8.1v3c0,1.5,1.1,2.8,2.5,3.1l10.8,1.9
	c0.9,0.2,1.6,1,1.7,1.9h-1.5c-0.8,0-1.5,0.7-1.5,1.5v9c0,0.8,0.7,1.5,1.5,1.5h4c0.8,0,1.5-0.7,1.5-1.5v-9c0-0.8-0.7-1.5-1.5-1.5H16
	c-0.1-1.5-1.1-2.7-2.5-2.9L2.7,13.2c-1-0.2-1.7-1-1.7-2.1v-3C1,7,1.9,6,3,6h1v3.5C4,10.3,4.7,11,5.5,11h20c0.8,0,1.5-0.7,1.5-1.5V6
	h2.5C29.8,6,30,5.8,30,5.5S29.8,5,29.5,5z"/>
</svg>
