<?xml version="1.0" encoding="utf-8"?>
<!-- Generator: Adobe Illustrator 19.0.0, SVG Export Plug-In . SVG Version: 6.00 Build 0)  -->
<svg version="1.1" id="Layer_1" xmlns="http://www.w3.org/2000/svg" xmlns:xlink="http://www.w3.org/1999/xlink" x="0px" y="0px"
	 viewBox="0 0 30 30" style="enable-background:new 0 0 30 30;" xml:space="preserve">
<g>
	<path d="M29.9,11.6l-9-9c-0.2-0.2-0.5-0.2-0.7,0l-8.8,8.8c-0.1,0.1-0.1,0.2-0.1,0.4s0.1,0.3,0.1,0.4l9.1,9.1
		c0.1,0.1,0.2,0.1,0.4,0.1l0,0c0.1,0,0.3-0.1,0.4-0.1l8.8-8.8C30,12.2,30,11.8,29.9,11.6z"/>
	<path d="M9.6,24.6c0.6,0.6,1.3,0.9,2.1,0.9h3.7c0.8,0,1.6-0.3,2.1-0.9l2-2.1c0.2-0.2,0.2-0.5,0-0.7l-9.1-9.1
		c-0.2-0.2-0.5-0.2-0.7,0l-4,4C5.3,17.4,5,18.1,5,18.9s0.3,1.5,0.9,2.1L9.6,24.6z"/>
	<path d="M23.5,26.5h-23C0.2,26.5,0,26.7,0,27s0.2,0.5,0.5,0.5h23c0.3,0,0.5-0.2,0.5-0.5S23.8,26.5,23.5,26.5z"/>
</g>
</svg>
