<?xml version="1.0" encoding="utf-8"?>
<!-- Generator: Adobe Illustrator 19.0.0, SVG Export Plug-In . SVG Version: 6.00 Build 0)  -->
<svg version="1.1" id="Layer_1" xmlns="http://www.w3.org/2000/svg" xmlns:xlink="http://www.w3.org/1999/xlink" x="0px" y="0px"
	 viewBox="-236 286 30 30" style="enable-background:new -236 286 30 30;" xml:space="preserve">
<g>
	<circle cx="-221" cy="301" r="1"/>
	<path d="M-221,295c-3.3,0-6,2.7-6,6c0,3.3,2.7,6,6,6c3.3,0,6-2.7,6-6C-215,297.7-217.7,295-221,295z M-221,306c-2.8,0-5-2.2-5-5
		c0-2.8,2.2-5,5-5c2.8,0,5,2.2,5,5C-216,303.8-218.2,306-221,306z"/>
	<path d="M-221,286c-8.3,0-15,6.7-15,15s6.7,15,15,15s15-6.7,15-15S-212.7,286-221,286z M-221,315c-7.7,0-14-6.3-14-14
		c0-7.7,6.3-14,14-14c7.7,0,14,6.3,14,14C-207,308.7-213.3,315-221,315z"/>
	<path d="M-211.8,291.8c-0.2-0.2-0.5-0.2-0.7,0c-0.2,0.2-0.2,0.5,0,0.7c2.3,2.3,3.5,5.3,3.5,8.5s-1.2,6.2-3.5,8.5
		c-0.2,0.2-0.2,0.5,0,0.7c0.1,0.1,0.2,0.1,0.4,0.1c0.1,0,0.3,0,0.4-0.1c2.5-2.5,3.8-5.7,3.8-9.2S-209.4,294.3-211.8,291.8z"/>
	<path d="M-220.5,313c-3.3,0.1-6.6-1.1-9-3.5c-0.2-0.2-0.5-0.2-0.7,0s-0.2,0.5,0,0.7c2.4,2.4,5.8,3.8,9.2,3.8c0.2,0,0.3,0,0.5,0
		c0.3,0,0.5-0.2,0.5-0.5S-220.3,313-220.5,313z"/>
</g>
</svg>
