<?xml version="1.0" encoding="utf-8"?>
<!-- Generator: Adobe Illustrator 19.0.0, SVG Export Plug-In . SVG Version: 6.00 Build 0)  -->
<svg version="1.1" id="Layer_1" xmlns="http://www.w3.org/2000/svg" xmlns:xlink="http://www.w3.org/1999/xlink" x="0px" y="0px"
	 viewBox="-236 286 30 30" style="enable-background:new -236 286 30 30;" xml:space="preserve">
<g>
	<path d="M-210,314h-1.5v-1c0-0.3-0.2-0.5-0.5-0.5h-0.5v-2c0-0.3-0.2-0.5-0.5-0.5h-0.5v-5.5c0-1.3-1.2-2.5-2.5-2.5
		c-1.3,0-2.5,1.2-2.5,2.5v6.5h-4.5c-1.7,0-2.5-1-2.5-3v-3h1.5c0.3,0,0.5-0.2,0.5-0.5V301h1.5c0.4,0,0.8-0.2,1-0.5
		c0.2,0.3,0.6,0.5,1,0.5c1.7,0,3.5-0.8,3.5-2.5v-1c0-1.7-1.8-2.5-3.5-2.5c-0.4,0-0.8,0.1-1,0.3c-0.2-0.2-0.6-0.3-1-0.3h-1.5
		c-2.4,0-5,1.6-5,4v5.5c0,0.3,0.2,0.5,0.5,0.5h1.5v3c0,2.5,1.3,4,3.5,4h4.4c-0.3,1.6-1.8,3-3.4,3h-3c-3.2,0-5.5-2.3-5.5-5.5V296h1.5
		c0.3,0,0.5-0.2,0.5-0.5V292h1.5c0.4,0,0.8-0.2,1-0.5c0.2,0.3,0.6,0.5,1,0.5c1.7,0,3.5-0.8,3.5-2.5v-1c0-1.7-1.8-2.5-3.5-2.5
		c-0.4,0-0.8,0.1-1,0.3c-0.2-0.2-0.6-0.3-1-0.3h-1.5c-2.4,0-5,1.6-5,4v5.5c0,0.3,0.2,0.5,0.5,0.5h1.5v13.5c0,3.8,2.7,6.5,6.5,6.5h3
		c2.4,0,4.5-2.1,4.5-4.5v-7c0-0.8,0.7-1.5,1.5-1.5s1.5,0.7,1.5,1.5v5.5h-1.5c-0.3,0-0.5,0.2-0.5,0.5v2.5c0,1.7,1.3,3,3,3h1.5
		c0.3,0,0.5-0.2,0.5-0.5V315h1.5c0.3,0,0.5-0.2,0.5-0.5S-209.7,314-210,314z M-220,296c1,0,2.5,0.4,2.5,1.5v1c0,1.1-1.5,1.5-2.5,1.5
		c-0.3,0-0.5-0.6-0.5-1v-2.5C-220.5,296.1-220.4,296-220,296z M-227.5,304v-5c0-1.7,2.1-3,4-3h1.5c0.4,0,0.5,0.1,0.5,0.5v2.5
		c0,0.4-0.2,1-0.5,1h-2c-0.3,0-0.5,0.2-0.5,0.5v3.5H-227.5z M-225,287c1,0,2.5,0.4,2.5,1.5v1c0,1.1-1.5,1.5-2.5,1.5
		c-0.3,0-0.5-0.6-0.5-1v-2.5C-225.5,287.1-225.4,287-225,287z M-232.5,290c0-1.7,2.1-3,4-3h1.5c0.4,0,0.5,0.1,0.5,0.5v2.5
		c0,0.4-0.2,1-0.5,1h-2c-0.3,0-0.5,0.2-0.5,0.5v3.5h-3V290z M-212.5,315h-1c-1.1,0-2-0.9-2-2v-2h2v2c0,0.3,0.2,0.5,0.5,0.5h0.5V315z
		"/>
	<path d="M-208.6,314.1c-0.2-0.2-0.5-0.2-0.7,0c-0.1,0.1-0.1,0.2-0.1,0.4s0,0.3,0.2,0.4c0.1,0.1,0.2,0.1,0.3,0.1s0.3,0,0.4-0.2
		c0.1-0.1,0.1-0.2,0.1-0.3S-208.5,314.2-208.6,314.1z"/>
</g>
</svg>
