<?xml version="1.0" encoding="utf-8"?>
<!-- Generator: Adobe Illustrator 19.0.0, SVG Export Plug-In . SVG Version: 6.00 Build 0)  -->
<svg version="1.1" id="Layer_1" xmlns="http://www.w3.org/2000/svg" xmlns:xlink="http://www.w3.org/1999/xlink" x="0px" y="0px"
	 viewBox="-236 286 30 30" style="enable-background:new -236 286 30 30;" xml:space="preserve">
<g>
	<path d="M-206.1,288.3c-0.1-0.2-0.3-0.3-0.4-0.3h-1.7l-0.9-1.7c-0.1-0.1-0.2-0.2-0.3-0.3c-0.1,0-0.3,0-0.4,0.1l-5,4
		c-0.1,0.1-0.2,0.2-0.2,0.4v1.8l-5.3,5.3l-0.9-3c-0.2-0.9-0.9-1.5-1.7-1.5c-0.8,0-1.5,0.6-1.8,1.5l-1.3,5.6l-9.1,4.2
		c-0.7,0.3-1,1-1,1.7c0,0.9,0.7,1.6,1.6,1.7l6.5,0.3l1,6.6c0.2,0.9,0.9,1.4,1.9,1.4c1,0,1.4-0.7,1.5-1.2l3.3-8.9l4.9-2.1
		c0.8-0.4,1.2-1,1.2-1.8c-0.1-0.8-0.7-1.4-1.6-1.6l-1.8-0.2l5.1-5.1l1.8,0c0,0,0,0,0,0c0.2,0,0.3-0.1,0.4-0.2l4-6
		C-206,288.6-206,288.4-206.1,288.3z M-210.8,294l-1.7,0c0,0,0,0,0,0c-0.1,0-0.3,0.1-0.4,0.1l-6,6c-0.1,0.1-0.2,0.3-0.1,0.5
		c0.1,0.2,0.2,0.3,0.4,0.3l2.8,0.4c0.5,0.1,0.7,0.4,0.8,0.7c0,0.3-0.2,0.6-0.6,0.8l-5.1,2.2c-0.1,0.1-0.2,0.2-0.3,0.3l-3.4,9.1
		c-0.2,0.5-0.3,0.5-0.6,0.5c-0.5,0-0.9-0.2-1-0.6l-1-7c0-0.2-0.2-0.4-0.4-0.4c0,0-0.1,0-0.1,0l-6.8-0.3c-0.4-0.1-0.7-0.4-0.7-0.7
		c0-0.2,0-0.5,0.4-0.7l9.3-4.3c0.1-0.1,0.2-0.2,0.3-0.3l1.3-5.8c0.2-0.6,0.5-0.7,0.8-0.7c0.3,0,0.6,0.3,0.7,0.8l1.2,3.9
		c0.1,0.2,0.2,0.3,0.4,0.3c0.2,0,0.3,0,0.5-0.1l6-6c0.1-0.1,0.1-0.2,0.1-0.4v-1.8l4.3-3.5l0.7,1.4c0,0,0,0,0.1,0.1c0,0,0,0,0.1,0.1
		c0,0,0.1,0,0.1,0.1c0,0,0,0,0.1,0c0,0,0.1,0,0.1,0c0,0,0,0,0,0h0c0,0,0,0,0,0h1L-210.8,294z"/>
	<path d="M-224.1,302.7c-0.2-0.2-0.5-0.2-0.7,0s-0.2,0.5,0,0.7l1,1c0.1,0.1,0.2,0.1,0.4,0.1s0.3,0,0.4-0.1c0.2-0.2,0.2-0.5,0-0.7
		L-224.1,302.7z"/>
	<path d="M-225.9,309.2c-0.1,0.1-0.1,0.2-0.1,0.4c0,0.1,0,0.3,0.2,0.4c0.1,0.1,0.2,0.1,0.3,0.1s0.3-0.1,0.4-0.2
		c0.1-0.1,0.1-0.2,0.1-0.3c0-0.1,0-0.3-0.1-0.4C-225.3,309-225.7,309-225.9,309.2z"/>
</g>
</svg>
