<?xml version="1.0" encoding="utf-8"?>
<!-- Generator: Adobe Illustrator 19.0.0, SVG Export Plug-In . SVG Version: 6.00 Build 0)  -->
<svg version="1.1" id="Layer_1" xmlns="http://www.w3.org/2000/svg" xmlns:xlink="http://www.w3.org/1999/xlink" x="0px" y="0px"
	 viewBox="-236 286 30 30" style="enable-background:new -236 286 30 30;" xml:space="preserve">
<g>
	<path d="M-223.5,295c-0.3,0-0.5,0.2-0.5,0.5v6.4c-0.4-0.3-0.9-0.4-1.5-0.4c-1.4,0-2.5,0.9-2.5,2c0,1.1,1.1,2,2.5,2s2.5-0.9,2.5-2
		V296h1.5c0.3,0,0.5-0.2,0.5-0.5s-0.2-0.5-0.5-0.5H-223.5z M-225.5,304.5c-0.8,0-1.5-0.5-1.5-1s0.7-1,1.5-1s1.5,0.5,1.5,1
		S-224.7,304.5-225.5,304.5z"/>
	<path d="M-220.5,312H-234v-18h6.5c0.3,0,0.5-0.2,0.5-0.5V287h13v13.5c0,0.3,0.2,0.5,0.5,0.5s0.5-0.2,0.5-0.5v-14
		c0-0.3-0.2-0.5-0.5-0.5h-14c-0.1,0-0.1,0-0.2,0c0,0,0,0-0.1,0c0,0-0.1,0-0.1,0.1l-7,7c0,0,0,0.1-0.1,0.1c0,0,0,0-0.1,0.1
		c0,0.1,0,0.1,0,0.2v19c0,0.3,0.2,0.5,0.5,0.5h14c0.3,0,0.5-0.2,0.5-0.5S-220.2,312-220.5,312z M-233.3,293l5.3-5.3v5.3H-233.3z"/>
	<path d="M-207,307.3c-0.1-0.2-0.3-0.3-0.5-0.3h-4.1l-1.4-4.6c-0.1-0.4-0.8-0.4-1,0l-1.4,4.6h-4.1c-0.2,0-0.4,0.1-0.5,0.3
		c-0.1,0.2,0,0.4,0.1,0.6l3.3,2.8l-1.4,4.7c-0.1,0.2,0,0.4,0.2,0.6c0.2,0.1,0.4,0.1,0.6,0l3.7-2.8l3.7,2.8c0.1,0.1,0.2,0.1,0.3,0.1
		c0.1,0,0.2,0,0.3-0.1c0.2-0.1,0.3-0.3,0.2-0.6l-1.4-4.7l3.3-2.8C-207,307.7-207,307.5-207,307.3z M-211.3,310.1
		c-0.2,0.1-0.2,0.3-0.2,0.5l1.1,3.5l-2.8-2.1c-0.1-0.1-0.2-0.1-0.3-0.1c-0.1,0-0.2,0-0.3,0.1l-2.8,2.1l1.1-3.5
		c0.1-0.2,0-0.4-0.2-0.5l-2.5-2.1h3.1c0.2,0,0.4-0.1,0.5-0.4l1-3.4l1,3.4c0.1,0.2,0.3,0.4,0.5,0.4h3.2L-211.3,310.1z"/>
</g>
</svg>
