<?xml version="1.0" encoding="utf-8"?>
<!-- Generator: Adobe Illustrator 19.0.0, SVG Export Plug-In . SVG Version: 6.00 Build 0)  -->
<svg version="1.1" id="Layer_1" xmlns="http://www.w3.org/2000/svg" xmlns:xlink="http://www.w3.org/1999/xlink" x="0px" y="0px"
	 viewBox="-236 286 30 30" style="enable-background:new -236 286 30 30;" xml:space="preserve">
<path d="M-213,299h-2.5v-7.5c0-3.1-2.4-5.5-5.5-5.5c-3.1,0-5.5,2.4-5.5,5.5v7.5h-2.5c-0.3,0-0.5,0.2-0.5,0.5v1c0,4.3,3.2,7.3,8,7.5
	v4h-2c-1.7,0-3,1.8-3,3.5c0,0.3,0.2,0.5,0.5,0.5h10c0.3,0,0.5-0.2,0.5-0.5c0-1.7-1.3-3.5-3-3.5h-2v-4c4.8-0.2,8-3.1,8-7.5v-1
	C-212.5,299.2-212.7,299-213,299z M-225.5,295h1.5c0.3,0,0.5-0.2,0.5-0.5s-0.2-0.5-0.5-0.5h-1.5v-2h1.5c0.3,0,0.5-0.2,0.5-0.5
	s-0.2-0.5-0.5-0.5h-1.5c0.3-2.3,2.1-4,4.5-4c2.4,0,4.2,1.7,4.5,4h-1.5c-0.3,0-0.5,0.2-0.5,0.5s0.2,0.5,0.5,0.5h1.5v2h-1.5
	c-0.3,0-0.5,0.2-0.5,0.5s0.2,0.5,0.5,0.5h1.5v1h-9V295z M-225.5,297h9v3.5c0,2.5-2,4.5-4.5,4.5s-4.5-2-4.5-4.5V297z M-218.5,313
	c0.9,0,1.7,1,1.9,2h-8.9c0.2-1,1-2,1.9-2H-218.5z M-213.5,300.5c0,3.9-2.9,6.5-7.5,6.5c-4.6,0-7.5-2.6-7.5-6.5V300h2v0.5
	c0,3.1,2.4,5.5,5.5,5.5c3.1,0,5.5-2.4,5.5-5.5V300h2V300.5z"/>
</svg>
