<?xml version="1.0" encoding="utf-8"?>
<!-- Generator: Adobe Illustrator 19.0.0, SVG Export Plug-In . SVG Version: 6.00 Build 0)  -->
<svg version="1.1" id="Layer_1" xmlns="http://www.w3.org/2000/svg" xmlns:xlink="http://www.w3.org/1999/xlink" x="0px" y="0px"
	 viewBox="-236 286 30 30" style="enable-background:new -236 286 30 30;" xml:space="preserve">
<g>
	<path d="M-212.8,286h-16.4c-3.8,0-6.8,3.1-6.8,6.8v16.4c0,3.8,3.1,6.8,6.8,6.8h16.4c3.8,0,6.8-3.1,6.8-6.8v-16.4
		C-206,289.1-209.1,286-212.8,286z M-207,309.2c0,3.2-2.6,5.8-5.8,5.8h-16.4c-3.2,0-5.8-2.6-5.8-5.8v-16.4c0-3.2,2.6-5.8,5.8-5.8
		h16.4c3.2,0,5.8,2.6,5.8,5.8V309.2z"/>
	<path d="M-216.3,300.1l-8-4c-0.2-0.1-0.3-0.1-0.5,0c-0.1,0.1-0.2,0.3-0.2,0.4v9c0,0.2,0.1,0.3,0.3,0.4c0.1,0,0.2,0.1,0.2,0.1
		c0.1,0,0.2,0,0.3-0.1l8-5c0.2-0.1,0.2-0.3,0.2-0.4C-216,300.3-216.1,300.1-216.3,300.1z M-224,304.6v-7.3l6.5,3.2L-224,304.6z"/>
</g>
</svg>
