<?xml version="1.0" encoding="utf-8"?>
<!-- Generator: Adobe Illustrator 19.0.0, SVG Export Plug-In . SVG Version: 6.00 Build 0)  -->
<svg version="1.1" id="Layer_1" xmlns="http://www.w3.org/2000/svg" xmlns:xlink="http://www.w3.org/1999/xlink" x="0px" y="0px"
	 viewBox="-236 286 30 30" style="enable-background:new -236 286 30 30;" xml:space="preserve">
<g>
	<path d="M-210.4,313h-3.4l0.7-3h0.6c0.3,0,0.5-0.2,0.5-0.5s-0.2-0.5-0.5-0.5h-0.7l-0.5-1c-0.3-0.7-0.1-1.5,0.5-1.8
		c0.2-0.1,0.5-0.2,0.7-0.2s1.5,0.3,1.5,1.5c0,0.3,0.2,0.5,0.5,0.5s0.5-0.2,0.5-0.5c0-1.7-1.7-2.5-2.5-2.5c-0.4,0-0.8,0.1-1.2,0.3
		c-1.1,0.6-1.5,2-0.9,3.1l0.3,0.6h-2.2c-0.3,0-0.5,0.2-0.5,0.5s0.2,0.5,0.5,0.5h2.4l-0.8,3.4c0,0.2,0,0.3,0.1,0.4
		c0.1,0.1,0.2,0.2,0.4,0.2h4c0.3,0,0.5-0.2,0.5-0.5S-210.1,313-210.4,313z"/>
	<path d="M-224.4,295c-0.3,0-0.5,0.2-0.5,0.5v6.4c-0.4-0.3-0.9-0.4-1.5-0.4c-1.4,0-2.5,0.9-2.5,2s1.1,2,2.5,2c1.4,0,2.5-0.9,2.5-2
		V296h1.5c0.3,0,0.5-0.2,0.5-0.5s-0.2-0.5-0.5-0.5H-224.4z M-226.4,304.5c-0.8,0-1.5-0.5-1.5-1s0.7-1,1.5-1s1.5,0.5,1.5,1
		S-225.6,304.5-226.4,304.5z"/>
	<path d="M-221.4,312h-13.5v-18h6.5c0.3,0,0.5-0.2,0.5-0.5V287h13v13.5c0,0.3,0.2,0.5,0.5,0.5s0.5-0.2,0.5-0.5v-14
		c0-0.3-0.2-0.5-0.5-0.5h-14c-0.1,0-0.1,0-0.2,0c0,0,0,0-0.1,0c0,0-0.1,0-0.1,0.1l-7,7c0,0,0,0.1-0.1,0.1c0,0,0,0-0.1,0.1
		c0,0.1,0,0.1,0,0.2v19c0,0.3,0.2,0.5,0.5,0.5h14c0.3,0,0.5-0.2,0.5-0.5C-221,312.2-221.1,312-221.4,312z M-228.9,287.7v5.3h-5.3
		L-228.9,287.7z"/>
	<path d="M-212.4,303c-3.6,0-6.5,2.9-6.5,6.5s2.9,6.5,6.5,6.5c3.6,0,6.5-2.9,6.5-6.5S-208.8,303-212.4,303z M-212.4,315
		c-3,0-5.5-2.5-5.5-5.5s2.5-5.5,5.5-5.5s5.5,2.5,5.5,5.5S-209.4,315-212.4,315z"/>
</g>
</svg>
