<?xml version="1.0" encoding="utf-8"?>
<!-- Generator: Adobe Illustrator 19.0.0, SVG Export Plug-In . SVG Version: 6.00 Build 0)  -->
<svg version="1.1" id="Layer_1" xmlns="http://www.w3.org/2000/svg" xmlns:xlink="http://www.w3.org/1999/xlink" x="0px" y="0px"
	 viewBox="-236 286 30 30" style="enable-background:new -236 286 30 30;" xml:space="preserve">
<g>
	<path d="M-208.5,297C-208.5,297-208.5,296.9-208.5,297v-1.1c0-1.6-1.4-3-3-3h-12.4c-1.7,0-3.1,1.3-3.1,3v1h-4.7l10.6-10.1
		c0.2-0.2,0.2-0.5,0-0.7s-0.5-0.2-0.7,0l-11.4,10.9c-1.6,0.1-2.8,1.4-2.8,3v13c0,1.7,1.4,3,3,3h24c1.7,0,3-1.4,3-3v-13
		C-206,298.4-207.1,297.2-208.5,297z M-226,295.9c0-1.1,0.9-2,2.1-2h12.4c1.1,0,2,0.9,2,2v1H-226V295.9z M-207,312.9
		c0,1.1-0.9,2-2,2h-24c-1.1,0-2-0.9-2-2v-13c0-1.1,0.9-2,2-2h24c1.1,0,2,0.9,2,2V312.9z"/>
	<path d="M-209.5,303.9h-8c-0.3,0-0.5,0.2-0.5,0.5s0.2,0.5,0.5,0.5h8c0.3,0,0.5-0.2,0.5-0.5S-209.2,303.9-209.5,303.9z"/>
	<path d="M-209.5,305.9h-8c-0.3,0-0.5,0.2-0.5,0.5s0.2,0.5,0.5,0.5h8c0.3,0,0.5-0.2,0.5-0.5S-209.2,305.9-209.5,305.9z"/>
	<path d="M-209.5,307.9h-8c-0.3,0-0.5,0.2-0.5,0.5s0.2,0.5,0.5,0.5h8c0.3,0,0.5-0.2,0.5-0.5S-209.2,307.9-209.5,307.9z"/>
	<path d="M-209.5,309.9h-8c-0.3,0-0.5,0.2-0.5,0.5s0.2,0.5,0.5,0.5h8c0.3,0,0.5-0.2,0.5-0.5S-209.2,309.9-209.5,309.9z"/>
	<path d="M-226.5,303.9c-1.4,0-2.5,1.1-2.5,2.5s1.1,2.5,2.5,2.5c1.4,0,2.5-1.1,2.5-2.5S-225.1,303.9-226.5,303.9z M-226.5,307.9
		c-0.8,0-1.5-0.7-1.5-1.5s0.7-1.5,1.5-1.5s1.5,0.7,1.5,1.5S-225.7,307.9-226.5,307.9z"/>
	<path d="M-226.5,299.9c-3.6,0-6.5,2.9-6.5,6.5s2.9,6.5,6.5,6.5c3.6,0,6.5-2.9,6.5-6.5S-222.9,299.9-226.5,299.9z M-226.5,311.9
		c-3,0-5.5-2.5-5.5-5.5s2.5-5.5,5.5-5.5s5.5,2.5,5.5,5.5S-223.5,311.9-226.5,311.9z"/>
	<path d="M-215.8,301.7c0,0.2,0.2,0.2,0.3,0.2c0.1,0,0.3-0.1,0.4-0.2c0.1-0.1,0.1-0.2,0.1-0.3s0-0.3-0.1-0.4c-0.2-0.2-0.5-0.2-0.7,0
		c-0.1,0.1-0.1,0.2-0.1,0.4S-215.9,301.7-215.8,301.7z"/>
	<path d="M-217.5,301.9c0.1,0,0.3-0.1,0.3-0.2c0.1-0.1,0.2-0.2,0.2-0.3s0-0.3-0.2-0.4c-0.2-0.2-0.5-0.2-0.7,0
		c-0.1,0.1-0.1,0.2-0.1,0.4c0,0.1,0.1,0.3,0.1,0.3C-217.8,301.8-217.6,301.9-217.5,301.9z"/>
</g>
</svg>
