<?xml version="1.0" encoding="utf-8"?>
<!-- Generator: Adobe Illustrator 19.0.0, SVG Export Plug-In . SVG Version: 6.00 Build 0)  -->
<svg version="1.1" id="Layer_1" xmlns="http://www.w3.org/2000/svg" xmlns:xlink="http://www.w3.org/1999/xlink" x="0px" y="0px"
	 viewBox="-236 286 30 30" style="enable-background:new -236 286 30 30;" xml:space="preserve">
<g>
	<path d="M-206,301c0-2.5-1.2-5.6-2-7.7c-0.2-0.5-0.4-1-0.5-1.3c1.4-0.3,2.5-1.5,2.5-3c0-1.7-1.4-3-3-3c-1.5,0-2.7,1.1-3,2.5
		c-0.3-0.1-0.8-0.3-1.3-0.5c-2.1-0.8-5.2-2-7.7-2s-5.6,1.2-7.7,2c-0.5,0.2-1,0.4-1.3,0.5c-0.3-1.4-1.5-2.5-3-2.5c-1.7,0-3,1.4-3,3
		c0,1.5,1.1,2.7,2.5,3c-0.1,0.3-0.3,0.8-0.5,1.3c-0.8,2.1-2,5.2-2,7.7s1.2,5.6,2,7.7c0.2,0.5,0.4,1,0.5,1.3c-1.4,0.3-2.5,1.5-2.5,3
		c0,1.7,1.4,3,3,3c1.5,0,2.7-1.1,3-2.5c0.3,0.1,0.8,0.3,1.3,0.5c2.1,0.8,5.2,2,7.7,2s5.6-1.2,7.7-2c0.5-0.2,1-0.4,1.3-0.5
		c0.3,1.4,1.5,2.5,3,2.5c1.7,0,3-1.4,3-3c0-1.5-1.1-2.7-2.5-3c0.1-0.3,0.3-0.8,0.5-1.3C-207.2,306.6-206,303.5-206,301z
		 M-209.5,310.7c0.1,0.1,0.3,0.2,0.5,0.2c1.1,0,2,0.9,2,2s-0.9,2-2,2c-1.1,0-2-0.9-2-2c0-0.2-0.1-0.4-0.2-0.5
		c-0.1-0.1-0.2-0.1-0.3-0.1c-0.3,0-0.9,0.2-2,0.7c-2,0.8-5,1.9-7.3,1.9s-5.3-1.2-7.3-1.9c-1.7-0.6-2.1-0.8-2.4-0.5
		c-0.1,0.1-0.2,0.3-0.2,0.5c0,1.1-0.9,2-2,2c-1.1,0-2-0.9-2-2s0.9-2,2-2c0.2,0,0.4-0.1,0.5-0.2c0.2-0.3,0.1-0.7-0.5-2.4
		c-0.8-2-1.9-5-1.9-7.3s1.2-5.3,1.9-7.3c0.6-1.7,0.8-2,0.5-2.4c-0.1-0.1-0.3-0.2-0.5-0.2c-1.1,0-2-0.9-2-2s0.9-2,2-2
		c1.1,0,2,0.9,2,2c0,0.2,0.1,0.4,0.2,0.5c0.3,0.2,0.7,0.1,2.4-0.5c2-0.8,5-1.9,7.3-1.9s5.3,1.2,7.3,1.9c1.7,0.6,2.1,0.8,2.4,0.5
		c0.1-0.1,0.2-0.3,0.2-0.5c0-1.1,0.9-2,2-2c1.1,0,2,0.9,2,2s-0.9,2-2,2c-0.2,0-0.4,0.1-0.5,0.2c-0.2,0.3-0.1,0.7,0.5,2.4
		c0.8,2,1.9,5,1.9,7.3s-1.2,5.3-1.9,7.3C-209.6,310-209.7,310.4-209.5,310.7z"/>
	<circle cx="-209" cy="289" r="1"/>
	<circle cx="-209" cy="313" r="1"/>
	<circle cx="-233" cy="313" r="1"/>
	<path d="M-221,297c-2.2,0-4,1.8-4,4s1.8,4,4,4s4-1.8,4-4S-218.8,297-221,297z M-221,304c-1.7,0-3-1.3-3-3s1.3-3,3-3s3,1.3,3,3
		S-219.3,304-221,304z"/>
	<path d="M-221,289c-6.6,0-12,5.4-12,12s5.4,12,12,12c6.6,0,12-5.4,12-12S-214.4,289-221,289z M-221,312c-6.1,0-11-4.9-11-11
		s4.9-11,11-11c6.1,0,11,4.9,11,11S-214.9,312-221,312z"/>
	<circle cx="-233" cy="289" r="1"/>
</g>
</svg>
