<?xml version="1.0" encoding="iso-8859-1"?>
<!-- Generator: Adobe Illustrator 19.0.0, SVG Export Plug-In . SVG Version: 6.00 Build 0)  -->
<svg version="1.1" id="Layer_1" xmlns="http://www.w3.org/2000/svg" xmlns:xlink="http://www.w3.org/1999/xlink" x="0px" y="0px"
	 viewBox="0 0 24 24" style="enable-background:new 0 0 24 24;" xml:space="preserve">
<g>
	<g>
		<path d="M20.976,10.636C20.725,4.45,14.253,2.128,8,2.011V1.5C8,1.224,7.776,1,7.5,1h-1C6.224,1,6,1.224,6,1.5S6.224,2,6.5,2H7v1
			H6.5C6.224,3,6,3.224,6,3.5c0,1.162-0.767,2.034-1.655,3.043C3.246,7.793,2,9.209,2,11.5c0,2.537,1.522,5.585,2.746,8.034
			C5.362,20.769,6,22.044,6,22.5C6,22.776,6.224,23,6.5,23h2C8.776,23,9,22.776,9,22.5c0-0.456,0.638-1.731,1.254-2.966
			C11.478,17.085,13,14.037,13,11.5c0-2.291-1.246-3.707-2.345-4.957C9.767,5.534,9,4.662,9,3.5c0-0.233-0.162-0.419-0.378-0.475
			c5.573,0.244,11.122,2.359,11.354,7.639C19.337,11.059,19,12.153,19,13.25c0,1.367,0.515,2.75,1.5,2.75s1.5-1.383,1.5-2.75
			C22,12.126,21.647,11.005,20.976,10.636z M9.904,7.204C10.935,8.375,12,9.586,12,11.5c0,2.301-1.526,5.356-2.64,7.587
			C8.686,20.437,8.24,21.35,8.073,22H6.928c-0.167-0.65-0.614-1.563-1.287-2.913C4.526,16.856,3,13.801,3,11.5
			c0-1.914,1.065-3.125,2.095-4.296C5.927,6.259,6.784,5.285,6.965,4h1.069C8.216,5.285,9.072,6.259,9.904,7.204z M20.51,15.001
			C20.37,14.956,20,14.348,20,13.25s0.37-1.706,0.49-1.751C20.63,11.544,21,12.152,21,13.25S20.63,14.955,20.51,15.001z M4,12.5
			C4,13.902,5.538,15,7.5,15c1.962,0,3.5-1.098,3.5-2.5S9.462,10,7.5,10C5.538,10,4,11.098,4,12.5z M10,12.5
			c0,0.813-1.145,1.5-2.5,1.5C6.145,14,5,13.313,5,12.5S6.145,11,7.5,11C8.855,11,10,11.687,10,12.5z"/>
	</g>
</g>
</svg>
