<?xml version="1.0" encoding="iso-8859-1"?>
<!-- Generator: Adobe Illustrator 19.0.0, SVG Export Plug-In . SVG Version: 6.00 Build 0)  -->
<svg version="1.1" id="Layer_1" xmlns="http://www.w3.org/2000/svg" xmlns:xlink="http://www.w3.org/1999/xlink" x="0px" y="0px"
	 viewBox="0 0 24 24" style="enable-background:new 0 0 24 24;" xml:space="preserve">
<g>
	<g>
		<path d="M22.5,17h-1c0.276,0,0.5-0.224,0.5-0.5S21.776,16,21.5,16h-0.715C20.441,15.308,20,13.405,20,12.5
			c0-0.351,0.167-0.769,0.36-1.253C20.645,10.531,21,9.642,21,8.5c0-1.978-1.452-3.227-3-3.453V3.5C18,3.224,17.776,3,17.5,3
			S17,3.224,17,3.5v1.521c-0.949,0.06-2.571,0.254-4.283,0.459C10.582,5.735,8.373,6,7.5,6C5.997,6,5,4.933,5,4.5
			C5,3.673,4.327,3,3.5,3C2.673,3,2,3.673,2,4.5v7c0,0.651,0.419,1.201,1,1.408V15.5C3,15.776,3.224,16,3.5,16S4,15.776,4,15.5
			v-2.592c0.549-0.196,0.948-0.7,0.99-1.305c0.286-1.28,3.179-1.929,6.199-1.383c1.89,0.34,4.023,1.254,3.815,2.709
			c-0.089,0.625-0.437,2.142-1.68,3.071H12.5c-0.276,0-0.5,0.224-0.5,0.5s0.224,0.5,0.5,0.5h-11C0.673,17,0,17.673,0,18.5v1
			C0,20.327,0.673,21,1.5,21h21c0.827,0,1.5-0.673,1.5-1.5v-1C24,17.673,23.327,17,22.5,17z M4,11.5C4,11.776,3.776,12,3.5,12
			S3,11.776,3,11.5v-7C3,4.224,3.224,4,3.5,4S4,4.224,4,4.5V11.5z M15.994,13.071c0.258-1.805-1.516-3.274-4.628-3.835
			C8.983,8.806,6.396,9.041,5,10.02V6.154C5.635,6.648,6.518,7,7.5,7c0.933,0,3.171-0.268,5.335-0.527
			C14.776,6.24,16.783,6,17.499,6c1.212,0,2.5,0.876,2.5,2.5c0,0.949-0.302,1.708-0.569,2.376c-0.222,0.556-0.431,1.081-0.431,1.624
			c0,0.803,0.311,2.438,0.704,3.5h-4.935C15.596,14.986,15.89,13.796,15.994,13.071z M23,19.5c0,0.276-0.224,0.5-0.5,0.5h-21
			C1.224,20,1,19.776,1,19.5v-1C1,18.224,1.224,18,1.5,18h21c0.276,0,0.5,0.224,0.5,0.5V19.5z M21.5,11c0.276,0,0.5-0.224,0.5-0.5
			v-5C22,5.224,21.776,5,21.5,5S21,5.224,21,5.5v3v2C21,10.776,21.224,11,21.5,11z"/>
	</g>
</g>
</svg>
