<?xml version="1.0" encoding="iso-8859-1"?>
<!-- Generator: Adobe Illustrator 19.0.0, SVG Export Plug-In . SVG Version: 6.00 Build 0)  -->
<svg version="1.1" id="Layer_1" xmlns="http://www.w3.org/2000/svg" xmlns:xlink="http://www.w3.org/1999/xlink" x="0px" y="0px"
	 viewBox="0 0 24 24" style="enable-background:new 0 0 24 24;" xml:space="preserve">
<g>
	<g>
		<path d="M22.638,9.635C20.856,5.301,16.682,2.5,12,2.5S3.144,5.301,1.362,9.636c-0.077,0.186-0.034,0.4,0.109,0.543L11.293,20
			l-0.646,0.646c-0.195,0.195-0.195,0.512,0,0.707C10.744,21.451,10.872,21.5,11,21.5s0.256-0.049,0.353-0.146l0.182-0.182
			c0.071,0.19,0.25,0.328,0.465,0.328c0.215,0,0.394-0.137,0.465-0.327l0.181,0.181C12.744,21.451,12.872,21.5,13,21.5
			s0.256-0.049,0.353-0.146c0.195-0.195,0.195-0.512,0-0.707L12.707,20l9.646-9.646c0,0,0,0,0,0l0.176-0.176
			C22.671,10.036,22.714,9.822,22.638,9.635z M5.595,12.888L2.418,9.711C3.256,7.839,4.592,6.3,6.232,5.222l1.446,3.943
			C6.61,10.122,5.85,11.417,5.595,12.888z M6.51,13.804c0.05-1.405,0.625-2.676,1.54-3.622l2.989,8.151L6.51,13.804z M11.5,16.681
			L8.863,9.489c0.762-0.532,1.663-0.875,2.637-0.964V16.681z M11.5,7.545C10.406,7.63,9.39,7.974,8.513,8.535L7.11,4.708
			c1.333-0.701,2.825-1.116,4.39-1.19V7.545z M12.5,3.518c1.628,0.077,3.179,0.519,4.553,1.272
			c-0.006,0.013-0.017,0.023-0.023,0.037l-1.398,3.812c-0.909-0.618-1.975-1.004-3.132-1.094V3.518z M12.5,17.182V8.525
			c1.037,0.094,1.99,0.48,2.781,1.071L12.5,17.182z M13.251,18.042l2.829-7.717c0.838,0.929,1.362,2.142,1.41,3.478L13.251,18.042z
			 M18.405,12.888c-0.243-1.406-0.955-2.645-1.949-3.587l1.458-3.976c1.572,1.073,2.856,2.571,3.668,4.387L18.405,12.888z"/>
	</g>
</g>
</svg>
