<?xml version="1.0" encoding="iso-8859-1"?>
<!-- Generator: Adobe Illustrator 19.0.0, SVG Export Plug-In . SVG Version: 6.00 Build 0)  -->
<svg version="1.1" id="Layer_1" xmlns="http://www.w3.org/2000/svg" xmlns:xlink="http://www.w3.org/1999/xlink" x="0px" y="0px"
	 viewBox="0 0 24 24" style="enable-background:new 0 0 24 24;" xml:space="preserve">
<g>
	<path d="M16.5,23h-9C7.224,23,7,23.224,7,23.5S7.224,24,7.5,24h9c0.276,0,0.5-0.224,0.5-0.5S16.776,23,16.5,23z"/>
	<path d="M15.5,22c0.276,0,0.5-0.224,0.5-0.5S15.776,21,15.5,21h-7C8.224,21,8,21.224,8,21.5S8.224,22,8.5,22H15.5z"/>
	<path d="M21.485,3.38c-0.382-0.251-1.302-0.641-2.509,0.11c0.07-1.701,0.03-2.853,0.023-3.01C18.989,0.212,18.769,0,18.5,0h-13
		C5.231,0,5.011,0.212,5,0.48C4.994,0.637,4.954,1.789,5.024,3.49C3.817,2.738,2.896,3.127,2.515,3.38
		C1.01,4.374,0.562,7.262,1.536,9.687c1.392,3.465,5.989,6.596,6.184,6.728c0.019,0.013,0.041,0.009,0.061,0.019
		c0.636,1.291,1.411,2.466,2.365,3.42C10.24,19.947,10.367,20,10.5,20h3c0.133,0,0.26-0.053,0.354-0.146
		c0.954-0.954,1.729-2.129,2.365-3.42c0.02-0.01,0.042-0.006,0.061-0.019c0.195-0.132,4.792-3.263,6.184-6.728
		C23.438,7.262,22.99,4.374,21.485,3.38z M2.464,9.313C1.61,7.187,2.077,4.868,3.066,4.215c0.697-0.459,1.478,0.054,2.03,0.591
		c0.189,2.802,0.681,6.523,1.908,9.819C5.563,13.469,3.31,11.419,2.464,9.313z M11.816,17.887C11.724,17.963,11.612,18,11.5,18
		c-0.145,0-0.289-0.063-0.388-0.184C7.428,13.312,7.041,4.277,7,2.511C6.994,2.235,7.212,2.006,7.489,2C7.493,2,7.497,2,7.5,2
		C7.771,2,7.994,2.216,8,2.489c0.107,4.718,1.19,11.397,3.887,14.695C12.062,17.397,12.03,17.712,11.816,17.887z M21.536,9.313
		c-0.846,2.106-3.099,4.155-4.54,5.312c1.227-3.296,1.719-7.017,1.908-9.819c0.551-0.536,1.332-1.05,2.03-0.591
		C21.923,4.868,22.39,7.187,21.536,9.313z"/>
</g>
<g>
</g>
<g>
</g>
<g>
</g>
<g>
</g>
<g>
</g>
<g>
</g>
<g>
</g>
<g>
</g>
<g>
</g>
<g>
</g>
<g>
</g>
<g>
</g>
<g>
</g>
<g>
</g>
<g>
</g>
</svg>
