<?xml version="1.0" encoding="iso-8859-1"?>
<!-- Generator: Adobe Illustrator 19.0.0, SVG Export Plug-In . SVG Version: 6.00 Build 0)  -->
<svg version="1.1" id="Layer_1" xmlns="http://www.w3.org/2000/svg" xmlns:xlink="http://www.w3.org/1999/xlink" x="0px" y="0px"
	 viewBox="0 0 24 24" style="enable-background:new 0 0 24 24;" xml:space="preserve">
<g>
	<path d="M6.5,16c0.409,0,4-0.042,4-1.5S6.909,13,6.5,13s-4,0.042-4,1.5S6.091,16,6.5,16z"/>
	<path d="M10.5,16.5c0-0.075-0.018-0.148-0.046-0.216C9.477,16.769,7.957,17,6.5,17c-1.454,0-2.971-0.23-3.948-0.713
		C2.521,16.353,2.5,16.424,2.5,16.502C2.502,17.958,6.091,18,6.5,18S10.5,17.958,10.5,16.5z"/>
	<path d="M21.449,0.781c-0.059-0.121-0.164-0.212-0.291-0.255l-1.5-0.5c-0.257-0.087-0.532,0.047-0.626,0.298l-7.013,18.702
		C11.8,19.609,11.236,20,10.614,20H5.887c-0.488,0-0.932,0.227-1.217,0.623s-0.36,0.889-0.206,1.352l0.333,1c0,0,0,0,0,0
		C5.002,23.588,5.574,24,6.221,24h5.368c1.056,0,2.002-0.668,2.355-1.663l7.527-21.17C21.516,1.041,21.508,0.902,21.449,0.781z"/>
</g>
<g>
</g>
<g>
</g>
<g>
</g>
<g>
</g>
<g>
</g>
<g>
</g>
<g>
</g>
<g>
</g>
<g>
</g>
<g>
</g>
<g>
</g>
<g>
</g>
<g>
</g>
<g>
</g>
<g>
</g>
</svg>
