<?xml version="1.0" encoding="utf-8"?>
<!-- Generator: Adobe Illustrator 19.0.0, SVG Export Plug-In . SVG Version: 6.00 Build 0)  -->
<svg version="1.1" id="Layer_1" xmlns="http://www.w3.org/2000/svg" xmlns:xlink="http://www.w3.org/1999/xlink" x="0px" y="0px"
	 viewBox="0 0 30 30" style="enable-background:new 0 0 30 30;" xml:space="preserve">
<g>
	<path d="M16,24.5h-2c-0.3,0-0.5,0.2-0.5,0.5v4c0,0.3,0.2,0.5,0.5,0.5h2c0.3,0,0.5-0.2,0.5-0.5v-4C16.5,24.7,16.3,24.5,16,24.5z"/>
	<path d="M29,13.5h-4c-0.3,0-0.5,0.2-0.5,0.5v2c0,0.3,0.2,0.5,0.5,0.5h4c0.3,0,0.5-0.2,0.5-0.5v-2C29.5,13.7,29.3,13.5,29,13.5z"/>
	<path d="M5.5,16v-2c0-0.3-0.2-0.5-0.5-0.5H1c-0.3,0-0.5,0.2-0.5,0.5v2c0,0.3,0.2,0.5,0.5,0.5h4C5.3,16.5,5.5,16.3,5.5,16z"/>
	<path d="M8.9,3.5C8.8,3.3,8.5,3.2,8.3,3.3C8,3.4,7.9,3.8,8.1,4l1,1.7C9.2,5.9,9.3,6,9.5,6c0.1,0,0.2,0,0.3-0.1
		c0.2-0.1,0.3-0.4,0.2-0.7L8.9,3.5z"/>
	<path d="M5.7,9.1L4,8.1C3.8,7.9,3.4,8,3.3,8.3C3.2,8.5,3.3,8.8,3.5,8.9l1.7,1C5.3,10,5.4,10,5.5,10c0.2,0,0.3-0.1,0.4-0.3
		C6,9.5,6,9.2,5.7,9.1z"/>
	<path d="M5.2,20.1l-1.7,1c-0.2,0.1-0.3,0.4-0.2,0.7C3.4,21.9,3.6,22,3.7,22c0.1,0,0.2,0,0.3-0.1l1.7-1C6,20.8,6,20.5,5.9,20.3
		C5.8,20,5.5,19.9,5.2,20.1z"/>
	<path d="M9.8,24.1C9.5,24,9.2,24,9.1,24.3l-1,1.7c-0.1,0.2-0.1,0.5,0.2,0.7c0.1,0,0.2,0.1,0.3,0.1c0.2,0,0.3-0.1,0.4-0.3l1-1.7
		C10.1,24.5,10,24.2,9.8,24.1z"/>
	<path d="M20.9,24.3c-0.1-0.2-0.4-0.3-0.7-0.2c-0.2,0.1-0.3,0.4-0.2,0.7l1,1.7c0.1,0.2,0.3,0.3,0.4,0.3c0.1,0,0.2,0,0.3-0.1
		c0.2-0.1,0.3-0.4,0.2-0.7L20.9,24.3z"/>
	<path d="M26.5,21.1l-1.7-1c-0.2-0.1-0.5-0.1-0.7,0.2c-0.1,0.2-0.1,0.5,0.2,0.7l1.7,1c0.1,0,0.2,0.1,0.3,0.1c0.2,0,0.3-0.1,0.4-0.3
		C26.8,21.5,26.7,21.2,26.5,21.1z"/>
	<path d="M24.5,10c0.1,0,0.2,0,0.3-0.1l1.7-1c0.2-0.1,0.3-0.4,0.2-0.7C26.6,8,26.2,7.9,26,8.1l-1.7,1C24,9.2,24,9.5,24.1,9.8
		C24.2,9.9,24.4,10,24.5,10z"/>
	<path d="M21.8,3.3c-0.2-0.1-0.5-0.1-0.7,0.2l-1,1.7c-0.1,0.2-0.1,0.5,0.2,0.7C20.3,6,20.4,6,20.5,6c0.2,0,0.3-0.1,0.4-0.3l1-1.7
		C22.1,3.8,22,3.4,21.8,3.3z"/>
	<path d="M16.4,17.1l4.3,4.3c0.1,0.1,0.2,0.1,0.4,0.1s0.3,0,0.4-0.1c0.2-0.2,0.2-0.5,0-0.7l-4.3-4.3c0.3-0.4,0.4-0.9,0.4-1.4
		c0-1-1.4-7.4-1.9-9.5H16c0.3,0,0.5-0.2,0.5-0.5V1c0-0.3-0.2-0.5-0.5-0.5h-2c-0.3,0-0.5,0.2-0.5,0.5v4c0,0.3,0.2,0.5,0.5,0.5h0.4
		c-0.5,2.1-1.9,8.5-1.9,9.5c0,1.4,1.1,2.5,2.5,2.5C15.5,17.5,16,17.3,16.4,17.1z"/>
</g>
</svg>
