<?xml version="1.0" encoding="utf-8"?>
<!-- Generator: Adobe Illustrator 19.0.0, SVG Export Plug-In . SVG Version: 6.00 Build 0)  -->
<svg version="1.1" id="Layer_1" xmlns="http://www.w3.org/2000/svg" xmlns:xlink="http://www.w3.org/1999/xlink" x="0px" y="0px"
	 viewBox="0 0 30 30" style="enable-background:new 0 0 30 30;" xml:space="preserve">
<g>
	<path d="M6.1,8.9C6.2,8.9,6.2,8.9,6.1,8.9L5.3,10h19.4l-0.9-1.1c0,0,0,0,0,0l1-1c0.2-0.2,0.2-0.5,0-0.7s-0.5-0.2-0.7,0l-1,1
		l-2.3-2.9C20.8,5.1,20.7,5,20.5,5H17V4h0.5C17.8,4,18,3.8,18,3.5v-3C18,0.2,17.8,0,17.5,0h-5C12.2,0,12,0.2,12,0.5v3
		C12,3.8,12.2,4,12.5,4H13v1H9.5C9.3,5,9.2,5.1,9.1,5.2L6.8,8.1l-1-1C5.7,7,5.3,7,5.1,7.1S5,7.7,5.1,7.9L6.1,8.9z"/>
	<path d="M26.9,12.8L25.5,11H4.5l-1.4,1.8C3,12.9,3,13,3,13.1v5c0,0.3,0,0.6,0,0.8h3h18h3c0-0.3,0-0.6,0-0.8v-5
		C27,13,27,12.9,26.9,12.8z M20.5,13h1c0.3,0,0.5,0.2,0.5,0.5S21.8,14,21.5,14h-1c-0.3,0-0.5-0.2-0.5-0.5S20.2,13,20.5,13z M14.5,13
		h1c0.3,0,0.5,0.2,0.5,0.5S15.8,14,15.5,14h-1c-0.3,0-0.5-0.2-0.5-0.5S14.2,13,14.5,13z M8.5,13h1c0.3,0,0.5,0.2,0.5,0.5
		S9.8,14,9.5,14h-1C8.2,14,8,13.8,8,13.5S8.2,13,8.5,13z M7.5,17C7.2,17,7,16.8,7,16.5v-2C7,14.2,7.2,14,7.5,14S8,14.2,8,14.5v2
		C8,16.8,7.8,17,7.5,17z M9.5,18h-1C8.2,18,8,17.8,8,17.5S8.2,17,8.5,17h1c0.3,0,0.5,0.2,0.5,0.5S9.8,18,9.5,18z M11,16.5
		c0,0.3-0.2,0.5-0.5,0.5S10,16.8,10,16.5v-2c0-0.3,0.2-0.5,0.5-0.5s0.5,0.2,0.5,0.5V16.5z M13.5,17c-0.3,0-0.5-0.2-0.5-0.5v-2
		c0-0.3,0.2-0.5,0.5-0.5s0.5,0.2,0.5,0.5v2C14,16.8,13.8,17,13.5,17z M15.5,18h-1c-0.3,0-0.5-0.2-0.5-0.5s0.2-0.5,0.5-0.5h1
		c0.3,0,0.5,0.2,0.5,0.5S15.8,18,15.5,18z M17,16.5c0,0.3-0.2,0.5-0.5,0.5S16,16.8,16,16.5v-2c0-0.3,0.2-0.5,0.5-0.5
		s0.5,0.2,0.5,0.5V16.5z M19.5,17c-0.3,0-0.5-0.2-0.5-0.5v-2c0-0.3,0.2-0.5,0.5-0.5s0.5,0.2,0.5,0.5v2C20,16.8,19.8,17,19.5,17z
		 M21.5,18h-1c-0.3,0-0.5-0.2-0.5-0.5s0.2-0.5,0.5-0.5h1c0.3,0,0.5,0.2,0.5,0.5S21.8,18,21.5,18z M23,16.5c0,0.3-0.2,0.5-0.5,0.5
		S22,16.8,22,16.5v-2c0-0.3,0.2-0.5,0.5-0.5s0.5,0.2,0.5,0.5V16.5z"/>
	<path d="M15,28c-4.6,0-8.6-3.4-9.4-8H3.2c1,5,5.7,10,11.8,10s10.8-5,11.8-10h-2.4C23.6,24.6,19.6,28,15,28z"/>
	<path d="M15,27c4.1,0,7.6-3,8.4-7H6.6C7.4,24,10.9,27,15,27z"/>
</g>
</svg>
