<?xml version="1.0" encoding="iso-8859-1"?>
<!-- Generator: Adobe Illustrator 19.0.0, SVG Export Plug-In . SVG Version: 6.00 Build 0)  -->
<svg version="1.1" id="Layer_1" xmlns="http://www.w3.org/2000/svg" xmlns:xlink="http://www.w3.org/1999/xlink" x="0px" y="0px"
	 viewBox="0 0 30 30" style="enable-background:new 0 0 30 30;" xml:space="preserve">
<g>
	<path d="M26.4,22.2C26.3,22.1,26.2,22,26,22H4c-0.1,0-0.3,0.1-0.3,0.1c-0.1,0.2-0.2,0.3-0.1,0.5c1.2,3.3,3.4,5.8,6.2,7.3
		C9.8,30,9.9,30,10,30h10c0.1,0,0.1,0,0.3,0c2.8-1.5,5-4.1,6.2-7.3C26.5,22.5,26.5,22.3,26.4,22.2z M15,27c-0.8,0-1.5-0.7-1.5-1.5
		S14.2,24,15,24s1.5,0.7,1.5,1.5S15.8,27,15,27z"/>
	<path d="M15,0C8,0,2.5,9.1,2.5,16.9c0,1.2,0.1,2.5,0.4,3.7C3,20.8,3.2,21,3.4,21h23.2c0.2,0,0.4-0.2,0.5-0.4
		c0.3-1.2,0.4-2.5,0.4-3.7C27.5,9.1,22,0,15,0z M8.5,19.5C8.5,19.8,8.3,20,8,20s-0.5-0.2-0.5-0.5v-3C7.5,16.2,7.7,16,8,16
		s0.5,0.2,0.5,0.5V19.5z M15.5,19.5c0,0.3-0.2,0.5-0.5,0.5s-0.5-0.2-0.5-0.5v-3c0-0.3,0.2-0.5,0.5-0.5s0.5,0.2,0.5,0.5V19.5z
		 M22.5,19.5c0,0.3-0.2,0.5-0.5,0.5s-0.5-0.2-0.5-0.5v-3c0-0.3,0.2-0.5,0.5-0.5s0.5,0.2,0.5,0.5V19.5z"/>
</g>
</svg>
