<?xml version="1.0" encoding="utf-8"?>
<!-- Generator: Adobe Illustrator 19.0.0, SVG Export Plug-In . SVG Version: 6.00 Build 0)  -->
<svg version="1.1" id="Layer_1" xmlns="http://www.w3.org/2000/svg" xmlns:xlink="http://www.w3.org/1999/xlink" x="0px" y="0px"
	 viewBox="0 0 30 30" style="enable-background:new 0 0 30 30;" xml:space="preserve">
<path d="M15,0.5C7,0.5,0.5,7,0.5,15S7,29.5,15,29.5S29.5,23,29.5,15S23,0.5,15,0.5z M14.4,21.4c-0.1,0.1-0.2,0.1-0.4,0.1
	s-0.3,0-0.4-0.1l-6-6c-0.2-0.2-0.2-0.5,0-0.7l6-6c0.2-0.2,0.5-0.2,0.7,0s0.2,0.5,0,0.7L8.7,15l5.6,5.6
	C14.5,20.8,14.5,21.2,14.4,21.4z M21.4,20.6c0.2,0.2,0.2,0.5,0,0.7c-0.1,0.1-0.2,0.1-0.4,0.1s-0.3,0-0.4-0.1l-6-6
	c-0.2-0.2-0.2-0.5,0-0.7l6-6c0.2-0.2,0.5-0.2,0.7,0s0.2,0.5,0,0.7L15.7,15L21.4,20.6z"/>
</svg>
