<?xml version="1.0" encoding="utf-8"?>
<!-- Generator: Adobe Illustrator 19.0.0, SVG Export Plug-In . SVG Version: 6.00 Build 0)  -->
<svg version="1.1" id="Layer_1" xmlns="http://www.w3.org/2000/svg" xmlns:xlink="http://www.w3.org/1999/xlink" x="0px" y="0px"
	 viewBox="0 0 30 30" style="enable-background:new 0 0 30 30;" xml:space="preserve">
<g>
	<path d="M15,0.5C7,0.5,0.5,7,0.5,15S7,29.5,15,29.5S29.5,23,29.5,15S23,0.5,15,0.5z M24.4,11.4L17.7,18l3.6,3.6
		c0.1,0.1,0.2,0.4,0.1,0.5s-0.3,0.3-0.5,0.3H8c-0.3,0-0.5-0.2-0.5-0.5V9c0-0.2,0.1-0.4,0.3-0.5c0.2-0.1,0.4,0,0.5,0.1l3.6,3.6
		l6.6-6.6c0.2-0.2,0.5-0.2,0.7,0l5,5C24.5,10.8,24.5,11.2,24.4,11.4z"/>
</g>
</svg>
