<?xml version="1.0" encoding="iso-8859-1"?>
<!-- Generator: Adobe Illustrator 19.0.0, SVG Export Plug-In . SVG Version: 6.00 Build 0)  -->
<svg version="1.1" id="Layer_1" xmlns="http://www.w3.org/2000/svg" xmlns:xlink="http://www.w3.org/1999/xlink" x="0px" y="0px"
	 viewBox="0 0 30 30" style="enable-background:new 0 0 30 30;" xml:space="preserve">
<g>
	<g>
		<path d="M24.807,17.106c-0.151-0.118-0.355-0.139-0.527-0.056c-0.172,0.084-0.281,0.258-0.281,0.45v2
			c0,0.876-0.993,1.793-2.044,2.764c-1.386,1.28-2.956,2.73-2.956,4.709c0,1.569,1.247,2.669,3.42,3.02
			c0.19,0.031,0.387-0.053,0.496-0.216l1.433-2.149l0.677,2.03C25.094,29.865,25.287,30,25.499,30c0.025,0,0.051-0.002,0.077-0.006
			C28.346,29.567,30,27.931,30,25.615C29.999,21.22,25.019,17.272,24.807,17.106z M14.999,13c-1.105,0-2,0.895-2,2s0.895,2,2,2
			s2-0.895,2-2S16.104,13,14.999,13z M17.999,26.974c0-2.418,1.817-4.096,3.283-5.449c1.044-0.965,1.594-1.531,1.705-1.946
			c0.011-0.042,0.017-0.086,0.017-0.13L22.999,17.5c0-0.57,0.331-1.099,0.844-1.349c0.501-0.246,1.14-0.177,1.581,0.167
			c0.275,0.216,1.718,1.38,3.076,3.121c0.115,0.147,0.304,0.217,0.487,0.184c0.184-0.035,0.333-0.169,0.387-0.349
			C29.79,17.875,30,16.437,30,15c0-8.271-6.729-15-15-15S0,6.729,0,15s6.729,15,15,15c1.069,0,2.164-0.123,3.254-0.364
			c0.159-0.035,0.291-0.146,0.354-0.297c0.063-0.15,0.047-0.322-0.04-0.459C18.195,28.296,17.999,27.637,17.999,26.974z M3.999,15
			c0,0.276-0.224,0.5-0.5,0.5s-0.5-0.224-0.5-0.5c0-6.617,5.383-12,12-12c0.276,0,0.5,0.224,0.5,0.5S15.275,4,14.999,4
			C8.934,4,3.999,8.935,3.999,15z M14.999,20c-2.757,0-5-2.243-5-5s2.243-5,5-5s5,2.243,5,5S17.756,20,14.999,20z"/>
	</g>
</g>
</svg>
