<?xml version="1.0" encoding="iso-8859-1"?>
<!-- Generator: Adobe Illustrator 19.0.0, SVG Export Plug-In . SVG Version: 6.00 Build 0)  -->
<svg version="1.1" id="Layer_1" xmlns="http://www.w3.org/2000/svg" xmlns:xlink="http://www.w3.org/1999/xlink" x="0px" y="0px"
	 viewBox="0 0 30 30" style="enable-background:new 0 0 30 30;" xml:space="preserve">
<g>
	<g>
		<path d="M26.455,1H3.546C1.867,1,0.501,2.385,0.501,4.089v16.823C0.501,22.615,1.867,24,3.546,24H14.5v4H6
			c-0.276,0-0.5,0.224-0.5,0.5S5.724,29,6,29h18c0.276,0,0.5-0.224,0.5-0.5S24.276,28,24,28h-8.5v-4h10.955
			c1.679,0,3.045-1.385,3.045-3.088V4.089C29.5,2.385,28.134,1,26.455,1z M28.499,17H1.5V4.089C1.5,2.938,2.417,2,3.544,2h22.909
			c1.128,0,2.045,0.937,2.045,2.088V17z"/>
	</g>
</g>
</svg>
