<?xml version="1.0" encoding="iso-8859-1"?>
<!-- Generator: Adobe Illustrator 19.0.0, SVG Export Plug-In . SVG Version: 6.00 Build 0)  -->
<svg version="1.1" id="Layer_1" xmlns="http://www.w3.org/2000/svg" xmlns:xlink="http://www.w3.org/1999/xlink" x="0px" y="0px"
	 viewBox="0 0 30 30" style="enable-background:new 0 0 30 30;" xml:space="preserve">
<g>
	<g>
		<path d="M29.853,8.147l-8-8c-0.195-0.195-0.512-0.195-0.707,0L16.56,4.733c-0.195,0.195-0.195,0.512,0,0.707l8,8
			c0.098,0.098,0.226,0.146,0.354,0.146s0.256-0.049,0.354-0.146l4.586-4.586C30.048,8.659,30.048,8.343,29.853,8.147z
			 M22.852,5.854l-0.999,1.001c-0.098,0.098-0.226,0.146-0.354,0.146c-0.127,0-0.254-0.048-0.352-0.145l-1.006-0.994
			c-0.095-0.093-0.148-0.221-0.148-0.354c0-0.133,0.053-0.261,0.146-0.355l1.006-1.006c0.195-0.195,0.512-0.195,0.707,0l1,1
			C23.047,5.342,23.047,5.659,22.852,5.854z M25.853,8.855l-1,1c-0.098,0.098-0.226,0.146-0.354,0.146s-0.256-0.049-0.354-0.146
			l-1-1c-0.195-0.195-0.195-0.512,0-0.707l1-1c0.195-0.195,0.512-0.195,0.707,0l1,1C26.048,8.343,26.048,8.659,25.853,8.855z
			 M14.853,5.147c-0.195-0.195-0.512-0.195-0.707,0l-7.758,7.757c-2.534,2.534-2.534,6.658,0,9.192L6.792,22.5l-6.646,6.646
			c-0.195,0.195-0.195,0.512,0,0.707c0.098,0.098,0.226,0.146,0.354,0.146s0.256-0.049,0.354-0.146l6.647-6.647l0.404,0.404
			c1.228,1.228,2.859,1.904,4.596,1.904s3.368-0.676,4.596-1.904l7.758-7.757c0.094-0.094,0.146-0.221,0.146-0.354
			s-0.053-0.26-0.146-0.354L14.853,5.147z"/>
	</g>
</g>
</svg>
