<?xml version="1.0" encoding="iso-8859-1"?>
<!-- Generator: Adobe Illustrator 19.0.0, SVG Export Plug-In . SVG Version: 6.00 Build 0)  -->
<svg version="1.1" id="Layer_1" xmlns="http://www.w3.org/2000/svg" xmlns:xlink="http://www.w3.org/1999/xlink" x="0px" y="0px"
	 viewBox="0 0 30 30" style="enable-background:new 0 0 30 30;" xml:space="preserve">
<g>
	<g>
		<path d="M11.213,4.453C12.542,3.83,14.026,3.5,15.5,3.5c1.396,0,2.725,0.296,4.307,0.961C19.87,4.487,19.937,4.5,20,4.5
			c0.195,0,0.381-0.115,0.461-0.306c0.107-0.255-0.013-0.548-0.268-0.655C18.484,2.82,17.036,2.5,15.5,2.5
			c-1.621,0-3.25,0.362-4.712,1.047c-0.25,0.117-0.358,0.415-0.241,0.665S10.964,4.57,11.213,4.453z M15.5,5
			c-1.352,0-2.746,0.307-3.731,0.821c-0.245,0.128-0.34,0.43-0.212,0.675c0.129,0.245,0.431,0.338,0.675,0.212
			C13.068,6.271,14.321,6,15.501,6c1.138,0,2.216,0.236,3.295,0.721c0.066,0.03,0.137,0.044,0.205,0.044
			c0.19,0,0.373-0.11,0.456-0.295c0.113-0.252,0.001-0.548-0.251-0.661C17.995,5.265,16.782,5,15.5,5z M26.441,8.5H3.558
			C1.872,8.5,0.5,9.872,0.5,11.559v12.883c0,1.687,1.372,3.059,3.059,3.059h22.883c1.687,0,3.059-1.372,3.059-3.059V11.559
			C29.5,9.872,28.128,8.5,26.441,8.5z M18.5,12c0-0.276,0.224-0.5,0.5-0.5h3c0.276,0,0.5,0.224,0.5,0.5v3c0,0.276-0.224,0.5-0.5,0.5
			h-3c-0.276,0-0.5-0.224-0.5-0.5V12z M24,16.5c0.276,0,0.5,0.224,0.5,0.5v3c0,0.276-0.224,0.5-0.5,0.5h-3
			c-0.276,0-0.5-0.224-0.5-0.5v-3c0-0.276,0.224-0.5,0.5-0.5H24z M19.5,17v3c0,0.276-0.224,0.5-0.5,0.5h-3
			c-0.276,0-0.5-0.224-0.5-0.5v-3c0-0.276,0.224-0.5,0.5-0.5h3C19.276,16.5,19.5,16.724,19.5,17z M13.5,12
			c0-0.276,0.224-0.5,0.5-0.5h3c0.276,0,0.5,0.224,0.5,0.5v3c0,0.276-0.224,0.5-0.5,0.5h-3c-0.276,0-0.5-0.224-0.5-0.5V12z M14.5,17
			v3c0,0.276-0.224,0.5-0.5,0.5h-3c-0.276,0-0.5-0.224-0.5-0.5v-3c0-0.276,0.224-0.5,0.5-0.5h3C14.276,16.5,14.5,16.724,14.5,17z
			 M8.5,12c0-0.276,0.224-0.5,0.5-0.5h3c0.276,0,0.5,0.224,0.5,0.5v3c0,0.276-0.224,0.5-0.5,0.5H9c-0.276,0-0.5-0.224-0.5-0.5V12z
			 M9.5,17v3c0,0.276-0.224,0.5-0.5,0.5H6c-0.276,0-0.5-0.224-0.5-0.5v-3c0-0.276,0.224-0.5,0.5-0.5h3C9.276,16.5,9.5,16.724,9.5,17
			z M3.5,12c0-0.276,0.224-0.5,0.5-0.5h3c0.276,0,0.5,0.224,0.5,0.5v3c0,0.276-0.224,0.5-0.5,0.5H4c-0.276,0-0.5-0.224-0.5-0.5V12z
			 M7.5,25c0,0.276-0.224,0.5-0.5,0.5H4c-0.276,0-0.5-0.224-0.5-0.5v-3c0-0.276,0.224-0.5,0.5-0.5h3c0.276,0,0.5,0.224,0.5,0.5V25z
			 M21.5,25c0,0.276-0.224,0.5-0.5,0.5H9c-0.276,0-0.5-0.224-0.5-0.5v-3c0-0.276,0.224-0.5,0.5-0.5h12c0.276,0,0.5,0.224,0.5,0.5V25
			z M26.5,25c0,0.276-0.224,0.5-0.5,0.5h-3c-0.276,0-0.5-0.224-0.5-0.5v-3c0-0.276,0.224-0.5,0.5-0.5h3c0.276,0,0.5,0.224,0.5,0.5
			V25z M27.5,15c0,0.276-0.224,0.5-0.5,0.5h-3c-0.276,0-0.5-0.224-0.5-0.5v-3c0-0.276,0.224-0.5,0.5-0.5h3
			c0.276,0,0.5,0.224,0.5,0.5V15z"/>
	</g>
</g>
</svg>
