<?xml version="1.0" encoding="iso-8859-1"?>
<!-- Generator: Adobe Illustrator 19.0.0, SVG Export Plug-In . SVG Version: 6.00 Build 0)  -->
<svg version="1.1" id="Layer_1" xmlns="http://www.w3.org/2000/svg" xmlns:xlink="http://www.w3.org/1999/xlink" x="0px" y="0px"
	 viewBox="0 0 24 24" style="enable-background:new 0 0 24 24;" xml:space="preserve">
<path d="M12,0.5C5.659,0.5,0.5,5.659,0.5,12S5.659,23.5,12,23.5S23.5,18.341,23.5,12S18.341,0.5,12,0.5z M13.354,19.354
	C13.258,19.449,13.13,19.5,13,19.5c-0.064,0-0.13-0.013-0.191-0.038C12.622,19.384,12.5,19.202,12.5,19v-3.5H5.009
	c-0.276,0-0.5-0.224-0.5-0.5L4.508,9c0-0.132,0.053-0.26,0.146-0.354S4.875,8.5,5.008,8.5H12.5V5c0-0.202,0.122-0.384,0.309-0.462
	c0.187-0.075,0.402-0.035,0.545,0.108l7.008,7c0.094,0.094,0.146,0.221,0.146,0.354s-0.053,0.26-0.146,0.354L13.354,19.354z"/>
<g>
</g>
<g>
</g>
<g>
</g>
<g>
</g>
<g>
</g>
<g>
</g>
<g>
</g>
<g>
</g>
<g>
</g>
<g>
</g>
<g>
</g>
<g>
</g>
<g>
</g>
<g>
</g>
<g>
</g>
</svg>
