<?xml version="1.0" encoding="iso-8859-1"?>
<!-- Generator: Adobe Illustrator 19.0.0, SVG Export Plug-In . SVG Version: 6.00 Build 0)  -->
<svg version="1.1" id="Layer_1" xmlns="http://www.w3.org/2000/svg" xmlns:xlink="http://www.w3.org/1999/xlink" x="0px" y="0px"
	 viewBox="0 0 24 24" style="enable-background:new 0 0 24 24;" xml:space="preserve">
<path d="M12,0.5C5.659,0.5,0.5,5.659,0.5,12S5.659,23.5,12,23.5S23.5,18.341,23.5,12S18.341,0.5,12,0.5z M19.646,13.061
	l-5.543,5.543c-0.429,0.428-0.998,0.664-1.604,0.664s-1.175-0.236-1.604-0.664S10.232,17.605,10.232,17s0.235-1.175,0.664-1.604
	l0.896-0.896H6c-1.379,0-2.5-1.122-2.5-2.5S4.621,9.5,6,9.5h5.793l-0.896-0.896C10.468,8.175,10.232,7.605,10.232,7
	s0.235-1.175,0.664-1.604c0.857-0.856,2.35-0.856,3.207,0l5.543,5.543C20.231,11.524,20.231,12.476,19.646,13.061z"/>
<g>
</g>
<g>
</g>
<g>
</g>
<g>
</g>
<g>
</g>
<g>
</g>
<g>
</g>
<g>
</g>
<g>
</g>
<g>
</g>
<g>
</g>
<g>
</g>
<g>
</g>
<g>
</g>
<g>
</g>
</svg>
