<?xml version="1.0" encoding="iso-8859-1"?>
<!-- Generator: Adobe Illustrator 19.0.0, SVG Export Plug-In . SVG Version: 6.00 Build 0)  -->
<svg version="1.1" id="Layer_1" xmlns="http://www.w3.org/2000/svg" xmlns:xlink="http://www.w3.org/1999/xlink" x="0px" y="0px"
	 viewBox="0 0 24 24" style="enable-background:new 0 0 24 24;" xml:space="preserve">
<path d="M23.962,11.809c-0.025-0.062-0.062-0.117-0.109-0.163l-8.999-8.999c-0.195-0.195-0.512-0.195-0.707,0s-0.195,0.512,0,0.707
	l8.146,8.146H0.5C0.224,11.5,0,11.724,0,12s0.224,0.5,0.5,0.5h21.793l-8.146,8.146c-0.195,0.195-0.195,0.512,0,0.707
	c0.098,0.098,0.226,0.146,0.354,0.146s0.256-0.049,0.354-0.146l8.999-8.999c0.046-0.046,0.083-0.102,0.109-0.163
	C24.012,12.069,24.012,11.931,23.962,11.809z"/>
<g>
</g>
<g>
</g>
<g>
</g>
<g>
</g>
<g>
</g>
<g>
</g>
<g>
</g>
<g>
</g>
<g>
</g>
<g>
</g>
<g>
</g>
<g>
</g>
<g>
</g>
<g>
</g>
<g>
</g>
</svg>
