<?xml version="1.0" encoding="iso-8859-1"?>
<!-- Generator: Adobe Illustrator 19.0.0, SVG Export Plug-In . SVG Version: 6.00 Build 0)  -->
<svg version="1.1" id="Layer_1" xmlns="http://www.w3.org/2000/svg" xmlns:xlink="http://www.w3.org/1999/xlink" x="0px" y="0px"
	 viewBox="0 0 24 24" style="enable-background:new 0 0 24 24;" xml:space="preserve">
<g>
	<g>
		<path d="M23.973,7.367c-0.005-0.018-0.004-0.038-0.011-0.056c-0.026-0.065-0.065-0.122-0.115-0.17l-6.994-6.994
			c-0.195-0.195-0.512-0.195-0.707,0s-0.195,0.512,0,0.707l6.145,6.145H16.5c-9.098,0-16.5,7.402-16.5,16.5
			c0,0.276,0.224,0.5,0.5,0.5s0.5-0.224,0.5-0.5c0-8.547,6.953-15.5,15.5-15.5h5.793l-6.147,6.147c-0.195,0.195-0.195,0.512,0,0.707
			c0.098,0.097,0.226,0.146,0.354,0.146s0.256-0.049,0.353-0.145l7-7c0.014-0.014,0.019-0.032,0.031-0.046
			c0.029-0.036,0.059-0.073,0.077-0.117c0.018-0.043,0.022-0.089,0.027-0.134C23.991,7.537,24,7.52,24,7.499
			C24,7.452,23.985,7.41,23.973,7.367z"/>
	</g>
</g>
</svg>
