<?xml version="1.0" encoding="iso-8859-1"?>
<!-- Generator: Adobe Illustrator 19.2.1, SVG Export Plug-In . SVG Version: 6.00 Build 0)  -->
<svg version="1.1" id="Layer_1" xmlns="http://www.w3.org/2000/svg" xmlns:xlink="http://www.w3.org/1999/xlink" x="0px" y="0px"
	 viewBox="0 0 24 24" style="enable-background:new 0 0 24 24;" xml:space="preserve">
<g>
	<g>
		<path d="M23,0.5H1C0.724,0.5,0.5,0.724,0.5,1v22c0,0.276,0.224,0.5,0.5,0.5h22c0.276,0,0.5-0.224,0.5-0.5V1
			C23.5,0.724,23.276,0.5,23,0.5z M1.5,12c0-5.502,4.256-10.02,9.647-10.457L2.873,17.171C2.003,15.643,1.5,13.88,1.5,12z M12,22.5
			c-3.335,0-6.305-1.568-8.23-4h16.46C18.305,20.932,15.335,22.5,12,22.5z M21.127,17.171L12.853,1.543
			C18.244,1.98,22.5,6.498,22.5,12C22.5,13.881,21.997,15.643,21.127,17.171z"/>
	</g>
</g>
</svg>
