<?xml version="1.0" encoding="utf-8"?>
<!-- Generator: Adobe Illustrator 19.0.0, SVG Export Plug-In . SVG Version: 6.00 Build 0)  -->
<svg version="1.1" id="Layer_1" xmlns="http://www.w3.org/2000/svg" xmlns:xlink="http://www.w3.org/1999/xlink" x="0px" y="0px"
	 viewBox="0 0 30 30" style="enable-background:new 0 0 30 30;" xml:space="preserve">
<path d="M29.5,0H18c-0.1,0-0.3,0.1-0.4,0.1L0.1,17.6c-0.2,0.2-0.2,0.5,0,0.7l11.5,11.5c0.1,0.1,0.2,0.1,0.4,0.1
	c0.1,0,0.3-0.1,0.4-0.2l17.5-18c0.1-0.1,0.1-0.2,0.1-0.3v-11C30,0.2,29.8,0,29.5,0z M23,10c-1.7,0-3-1.3-3-3s1.3-3,3-3s3,1.3,3,3
	S24.7,10,23,10z"/>
</svg>
