<?xml version="1.0" encoding="iso-8859-1"?>
<!-- Generator: Adobe Illustrator 19.0.0, SVG Export Plug-In . SVG Version: 6.00 Build 0)  -->
<svg version="1.1" id="Layer_1" xmlns="http://www.w3.org/2000/svg" xmlns:xlink="http://www.w3.org/1999/xlink" x="0px" y="0px"
	 viewBox="0 0 24 24" style="enable-background:new 0 0 24 24;" xml:space="preserve">
<g>
	<g>
		<line x1="0.5" y1="5.5" x2="4" y2="3.5"/>
		<path d="M0.5,6C0.327,6,0.158,5.91,0.066,5.748c-0.137-0.24-0.054-0.545,0.187-0.682l3.5-2c0.235-0.137,0.544-0.055,0.683,0.186
			c0.137,0.24,0.054,0.545-0.187,0.682l-3.5,2C0.67,5.979,0.585,6,0.5,6z"/>
	</g>
	<g>
		<line x1="4.5" y1="7.5" x2="8" y2="5.5"/>
		<path d="M4.5,8C4.327,8,4.158,7.91,4.066,7.748c-0.137-0.24-0.054-0.545,0.187-0.682l3.5-2c0.236-0.138,0.543-0.055,0.683,0.186
			c0.137,0.24,0.054,0.545-0.187,0.682l-3.5,2C4.67,7.979,4.585,8,4.5,8z"/>
	</g>
	<g>
		<line x1="12.5" y1="11.5" x2="16.5" y2="9.5"/>
		<path d="M12.5,12c-0.183,0-0.359-0.101-0.447-0.276c-0.123-0.247-0.023-0.547,0.224-0.671l4-2
			c0.248-0.123,0.547-0.024,0.671,0.224c0.123,0.247,0.023,0.547-0.224,0.671l-4,2C12.652,11.983,12.575,12,12.5,12z"/>
	</g>
	<g>
		<line x1="16.5" y1="13.5" x2="20.5" y2="11.5"/>
		<path d="M16.5,14c-0.183,0-0.359-0.101-0.447-0.276c-0.123-0.247-0.023-0.547,0.224-0.671l4-2
			c0.247-0.122,0.547-0.023,0.671,0.224c0.123,0.247,0.023,0.547-0.224,0.671l-4,2C16.652,13.983,16.575,14,16.5,14z"/>
	</g>
	<path d="M23.715,10.048l-21-10c-0.139-0.065-0.3-0.064-0.438,0.004l-2,1C0.106,1.138-0.002,1.313,0,1.505
		c0.002,0.191,0.112,0.364,0.285,0.447L9,6.101V23.5C9,23.776,9.224,24,9.5,24h2c0.276,0,0.5-0.224,0.5-0.5V7.53l9.285,4.421
		c0.14,0.066,0.301,0.065,0.438-0.004l2-1c0.171-0.085,0.278-0.261,0.276-0.452C23.998,10.304,23.888,10.131,23.715,10.048z"/>
	<g>
		<line x1="6.5" y1="2" x2="9.5" y2="0.5"/>
		<path d="M6.5,2.5c-0.183,0-0.359-0.101-0.447-0.276C5.93,1.976,6.029,1.676,6.277,1.553l3-1.5C9.525-0.07,9.823,0.029,9.947,0.276
			c0.123,0.247,0.023,0.547-0.224,0.671l-3,1.5C6.652,2.483,6.575,2.5,6.5,2.5z"/>
	</g>
	<g>
		<line x1="13.5" y1="2.5" x2="10.5" y2="4"/>
		<path d="M10.5,4.5c-0.183,0-0.359-0.101-0.447-0.276c-0.123-0.247-0.023-0.547,0.224-0.671l3-1.5
			c0.248-0.122,0.547-0.023,0.671,0.224c0.123,0.247,0.023,0.547-0.224,0.671l-3,1.5C10.652,4.483,10.575,4.5,10.5,4.5z"/>
	</g>
	<g>
		<line x1="17.5" y1="4.5" x2="14.5" y2="6"/>
		<path d="M14.5,6.5c-0.183,0-0.359-0.101-0.447-0.276c-0.123-0.247-0.023-0.547,0.224-0.671l3-1.5
			c0.247-0.123,0.547-0.024,0.671,0.224c0.123,0.247,0.023,0.547-0.224,0.671l-3,1.5C14.652,6.483,14.575,6.5,14.5,6.5z"/>
	</g>
	<g>
		<line x1="21.5" y1="6.5" x2="18.5" y2="8"/>
		<path d="M18.5,8.5c-0.183,0-0.359-0.101-0.447-0.276c-0.123-0.247-0.023-0.547,0.224-0.671l3-1.5
			c0.248-0.123,0.547-0.024,0.671,0.224c0.123,0.247,0.023,0.547-0.224,0.671l-3,1.5C18.652,8.483,18.575,8.5,18.5,8.5z"/>
	</g>
</g>
<g>
</g>
<g>
</g>
<g>
</g>
<g>
</g>
<g>
</g>
<g>
</g>
<g>
</g>
<g>
</g>
<g>
</g>
<g>
</g>
<g>
</g>
<g>
</g>
<g>
</g>
<g>
</g>
<g>
</g>
</svg>
