<?xml version="1.0" encoding="iso-8859-1"?>
<!-- Generator: Adobe Illustrator 19.0.0, SVG Export Plug-In . SVG Version: 6.00 Build 0)  -->
<svg version="1.1" id="Layer_1" xmlns="http://www.w3.org/2000/svg" xmlns:xlink="http://www.w3.org/1999/xlink" x="0px" y="0px"
	 viewBox="0 0 24 24" style="enable-background:new 0 0 24 24;" xml:space="preserve">
<g>
	<path d="M18.5,17h-16C1.673,17,1,17.673,1,18.5v5C1,23.776,1.224,24,1.5,24h18c0.276,0,0.5-0.224,0.5-0.5v-5
		C20,17.673,19.327,17,18.5,17z"/>
	<path d="M22.854,3.146l-3-3c-0.195-0.195-0.512-0.195-0.707,0l-3,3c-0.195,0.195-0.195,0.512,0,0.707l3,3
		C19.244,6.951,19.372,7,19.5,7s0.256-0.049,0.354-0.146l3-3C23.049,3.658,23.049,3.342,22.854,3.146z"/>
	<g>
		<path d="M18.5,13c-0.276,0-0.5-0.224-0.5-0.5c0-0.812-0.136-1.622-0.403-2.41c-0.089-0.261,0.052-0.545,0.313-0.634
			c0.262-0.089,0.545,0.05,0.635,0.313C18.847,10.66,19,11.579,19,12.5C19,12.776,18.776,13,18.5,13z"/>
	</g>
	<path d="M19.354,5.646l-2-2c-0.195-0.195-0.512-0.195-0.707,0l-2.498,2.498c-0.001,0.001-0.002,0.002-0.003,0.002
		c-0.194,0.196-0.194,0.512,0.001,0.707c0.06,0.059,0.13,0.101,0.205,0.124c0.266,0.214,1.1,1.098,1.775,1.855
		C16.219,8.936,16.349,8.996,16.485,9c0.005,0,0.01,0,0.015,0c0.133,0,0.26-0.053,0.354-0.146l2.5-2.5
		C19.549,6.158,19.549,5.842,19.354,5.646z"/>
	<path d="M18.5,12h-2.522C15.739,9.365,13.635,7.261,11,7.022V5.09l1.988,0.332c0.027,0.005,0.055,0.007,0.082,0.007
		c0.226,0,0.428-0.153,0.485-0.378c0.063-0.252-0.078-0.512-0.324-0.596C12.34,4.153,11.421,4,10.5,4C5.813,4,2,7.813,2,12.5v3
		C2,15.776,2.224,16,2.5,16h16c0.276,0,0.5-0.224,0.5-0.5v-3C19,12.224,18.776,12,18.5,12z"/>
</g>
<g>
</g>
<g>
</g>
<g>
</g>
<g>
</g>
<g>
</g>
<g>
</g>
<g>
</g>
<g>
</g>
<g>
</g>
<g>
</g>
<g>
</g>
<g>
</g>
<g>
</g>
<g>
</g>
<g>
</g>
</svg>
