<?xml version="1.0" encoding="iso-8859-1"?>
<!-- Generator: Adobe Illustrator 19.0.0, SVG Export Plug-In . SVG Version: 6.00 Build 0)  -->
<svg version="1.1" id="Layer_1" xmlns="http://www.w3.org/2000/svg" xmlns:xlink="http://www.w3.org/1999/xlink" x="0px" y="0px"
	 viewBox="0 0 24 24" style="enable-background:new 0 0 24 24;" xml:space="preserve">
<g>
	<path d="M18.617,18.986c-2.822,0.14-6.524-1.662-9.483-4.621c-2.987-2.988-4.758-6.622-4.621-9.483
		C4.525,4.63,4.347,4.408,4.098,4.365C3.849,4.319,3.607,4.471,3.535,4.713C2.408,8.43,3.09,12.353,5.408,15.478
		c2.332,3.144,6.003,5.021,9.818,5.021c1.191,0,2.39-0.18,3.561-0.535c0.241-0.073,0.391-0.315,0.348-0.564
		C19.09,19.152,18.905,18.969,18.617,18.986z"/>
	<path d="M23.147,12.361c-0.688-2.531-2.313-5.17-4.576-7.433c-0.119-0.119-0.246-0.224-0.367-0.34l-8.059,8.059
		c-0.098,0.098-0.226,0.146-0.354,0.146s-0.256-0.049-0.354-0.146c-0.195-0.195-0.195-0.512,0-0.707l8.031-8.031
		C14.649,1.474,11.382,0,8.68,0C7.126,0,5.82,0.485,4.902,1.403C3.509,2.796,3.135,5.01,3.85,7.639
		c0.688,2.531,2.313,5.17,4.576,7.433C11.465,18.112,15.255,20,18.317,20c1.554,0,2.86-0.485,3.778-1.403
		C23.488,17.204,23.862,14.99,23.147,12.361z M21.388,17.89C20.652,18.626,19.618,19,18.317,19c-2.806,0-6.325-1.776-9.184-4.635
		c-0.195-0.195-0.195-0.512,0-0.707s0.512-0.195,0.707,0C12.518,16.336,15.766,18,18.317,18c1.026,0,1.822-0.275,2.364-0.817
		c0.195-0.195,0.512-0.195,0.707,0S21.583,17.694,21.388,17.89z"/>
	<g>
		<path d="M10.498,13.5c-0.128,0-0.256-0.049-0.354-0.146c-0.195-0.195-0.195-0.512,0-0.707l10.5-10.5
			c0.195-0.195,0.512-0.195,0.707,0s0.195,0.512,0,0.707l-10.5,10.5C10.754,13.451,10.626,13.5,10.498,13.5z"/>
	</g>
	<g>
		<circle cx="21.998" cy="1.5" r="1"/>
		<path d="M21.998,3c-0.827,0-1.5-0.673-1.5-1.5s0.673-1.5,1.5-1.5s1.5,0.673,1.5,1.5S22.826,3,21.998,3z M21.998,1
			c-0.275,0-0.5,0.224-0.5,0.5s0.225,0.5,0.5,0.5s0.5-0.224,0.5-0.5S22.274,1,21.998,1z"/>
	</g>
	<g>
		<path d="M9.998,24h-9c-0.168,0-0.324-0.084-0.417-0.224c-0.092-0.139-0.108-0.316-0.044-0.47l4-9.5
			c0.107-0.255,0.398-0.373,0.655-0.267c0.254,0.107,0.374,0.4,0.267,0.655L1.751,23h7.554l-1.781-5.342
			c-0.087-0.262,0.055-0.545,0.316-0.632c0.262-0.086,0.545,0.054,0.633,0.316l2,6c0.051,0.152,0.025,0.32-0.069,0.451
			C10.31,23.923,10.16,24,9.998,24z"/>
	</g>
	<g>
		<path d="M9.998,24c-0.062,0-0.125-0.011-0.186-0.036l-7.5-3c-0.195-0.078-0.32-0.27-0.314-0.479
			c0.007-0.21,0.143-0.394,0.342-0.459l6-2c0.263-0.086,0.545,0.054,0.633,0.316c0.087,0.262-0.055,0.545-0.316,0.632l-4.705,1.568
			l6.232,2.493c0.257,0.103,0.381,0.394,0.278,0.65C10.384,23.881,10.197,24,9.998,24z"/>
	</g>
</g>
<g>
</g>
<g>
</g>
<g>
</g>
<g>
</g>
<g>
</g>
<g>
</g>
<g>
</g>
<g>
</g>
<g>
</g>
<g>
</g>
<g>
</g>
<g>
</g>
<g>
</g>
<g>
</g>
<g>
</g>
</svg>
