<?xml version="1.0" encoding="iso-8859-1"?>
<!-- Generator: Adobe Illustrator 19.0.0, SVG Export Plug-In . SVG Version: 6.00 Build 0)  -->
<svg version="1.1" id="Layer_1" xmlns="http://www.w3.org/2000/svg" xmlns:xlink="http://www.w3.org/1999/xlink" x="0px" y="0px"
	 viewBox="0 0 24 24" style="enable-background:new 0 0 24 24;" xml:space="preserve">
<g>
	<g>
		<path d="M18.049,14.825C16.282,15.267,14.191,15.5,12,15.5s-4.282-0.233-6.049-0.675c-0.189-0.049-0.394,0.021-0.516,0.178
			c-0.122,0.156-0.14,0.369-0.046,0.543C6.697,17.985,9.23,19.5,12,19.5s5.303-1.515,6.61-3.954
			c0.094-0.174,0.076-0.388-0.046-0.543C18.443,14.846,18.24,14.777,18.049,14.825z"/>
		<path d="M19.371,10.615c-0.148-0.765-0.404-1.492-0.76-2.161C17.303,6.015,14.77,4.5,12,4.5S6.697,6.015,5.389,8.455
			C5.033,9.123,4.778,9.85,4.627,10.627C4.541,11.145,4.5,11.581,4.5,12s0.041,0.855,0.127,1.373
			c0.033,0.194,0.176,0.352,0.367,0.401C6.766,14.235,9.319,14.5,12,14.5s5.234-0.265,7.006-0.726
			c0.191-0.05,0.334-0.207,0.367-0.401C19.459,12.855,19.5,12.419,19.5,12S19.459,11.145,19.371,10.615z"/>
	</g>
	<g>
		<path d="M12,16.5c-2.271,0-4.447-0.244-6.291-0.705C2.399,14.976,0.5,13.593,0.5,12s1.899-2.976,5.21-3.795
			c0.193-0.045,0.394,0.022,0.515,0.178c0.121,0.156,0.14,0.368,0.047,0.542c-0.309,0.58-0.531,1.213-0.661,1.88
			c-0.037,0.188-0.177,0.339-0.363,0.388c-1.571,0.417-1.743,0.801-1.749,0.816l0,0c0.007,0,0.186,0.383,1.749,0.797
			C6.939,13.247,9.401,13.5,12,13.5s5.061-0.253,6.754-0.694c1.569-0.416,1.741-0.8,1.747-0.815l0,0
			c-0.007,0-0.186-0.383-1.749-0.797c-0.186-0.049-0.326-0.2-0.363-0.388c-0.13-0.667-0.352-1.3-0.661-1.88
			c-0.093-0.174-0.074-0.387,0.047-0.542s0.321-0.225,0.515-0.178C21.601,9.024,23.5,10.407,23.5,12s-1.899,2.976-5.21,3.795
			C16.447,16.256,14.271,16.5,12,16.5z M4.946,9.458C2.822,10.132,1.5,11.089,1.5,12c0,1.047,1.747,2.156,4.45,2.825
			C7.718,15.267,9.809,15.5,12,15.5s4.282-0.233,6.049-0.675C20.753,14.156,22.5,13.047,22.5,12c0-0.911-1.322-1.868-3.446-2.542
			c0.099,0.277,0.183,0.562,0.251,0.852C20.781,10.743,21.5,11.297,21.5,12c0,0.749-0.815,1.329-2.492,1.773
			C17.234,14.235,14.681,14.5,12,14.5s-5.234-0.265-7.006-0.726C3.315,13.329,2.5,12.749,2.5,12c0-0.703,0.719-1.257,2.195-1.69
			C4.763,10.019,4.847,9.734,4.946,9.458z"/>
	</g>
</g>
<g>
</g>
<g>
</g>
<g>
</g>
<g>
</g>
<g>
</g>
<g>
</g>
<g>
</g>
<g>
</g>
<g>
</g>
<g>
</g>
<g>
</g>
<g>
</g>
<g>
</g>
<g>
</g>
<g>
</g>
</svg>
