<?xml version="1.0" encoding="iso-8859-1"?>
<!-- Generator: Adobe Illustrator 19.0.0, SVG Export Plug-In . SVG Version: 6.00 Build 0)  -->
<svg version="1.1" id="Layer_1" xmlns="http://www.w3.org/2000/svg" xmlns:xlink="http://www.w3.org/1999/xlink" x="0px" y="0px"
	 viewBox="0 0 24 24" style="enable-background:new 0 0 24 24;" xml:space="preserve">
<g>
	<path d="M10.5,16.5c-0.276,0-0.5,0.224-0.5,0.5H7c0-0.276-0.224-0.5-0.5-0.5S6,16.724,6,17v2c0,0.17,0.086,0.328,0.229,0.42
		C6.312,19.473,6.405,19.5,6.5,19.5c0.07,0,0.141-0.015,0.206-0.044C6.986,19.329,7.854,19,8.5,19c0.774,0,1.784,0.451,1.794,0.456
		c0.153,0.07,0.335,0.057,0.478-0.036C10.914,19.328,11,19.17,11,19v-2C11,16.724,10.776,16.5,10.5,16.5z"/>
	<g>
		<path d="M23.5,18.5c-0.276,0-0.5-0.224-0.5-0.5v-1.5H12.5c-0.276,0-0.5-0.224-0.5-0.5s0.224-0.5,0.5-0.5h11
			c0.276,0,0.5,0.224,0.5,0.5v2C24,18.276,23.776,18.5,23.5,18.5z"/>
	</g>
	<g>
		<path d="M5,11c0,0.827,0.673,1.5,1.5,1.5H13V11c0-0.517-0.067-1.018-0.182-1.5H6.5C5.673,9.5,5,10.173,5,11z M11,11
			c0,0.276-0.224,0.5-0.5,0.5h-4C6.224,11.5,6,11.276,6,11s0.224-0.5,0.5-0.5h4C10.776,10.5,11,10.724,11,11z"/>
		<path d="M6.5,13.5C5.121,13.5,4,12.378,4,11s1.121-2.5,2.5-2.5h5.999c-0.982-2.346-3.3-4-5.999-4C2.916,4.5,0,7.416,0,11
			s2.916,6.5,6.5,6.5h6c0.276,0,0.5-0.224,0.5-0.5v-3.5H6.5z"/>
	</g>
</g>
<g>
</g>
<g>
</g>
<g>
</g>
<g>
</g>
<g>
</g>
<g>
</g>
<g>
</g>
<g>
</g>
<g>
</g>
<g>
</g>
<g>
</g>
<g>
</g>
<g>
</g>
<g>
</g>
<g>
</g>
</svg>
