<?xml version="1.0" encoding="iso-8859-1"?>
<!-- Generator: Adobe Illustrator 19.0.0, SVG Export Plug-In . SVG Version: 6.00 Build 0)  -->
<svg version="1.1" id="Layer_1" xmlns="http://www.w3.org/2000/svg" xmlns:xlink="http://www.w3.org/1999/xlink" x="0px" y="0px"
	 viewBox="0 0 24 24" style="enable-background:new 0 0 24 24;" xml:space="preserve">
<g>
	<g>
		<path d="M11.5,2.5C11.223,2.5,11,2.724,11,3c0,0.276,0.224,0.5,0.5,0.5C11.776,3.5,12,3.276,12,3C12,2.724,11.776,2.5,11.5,2.5z
			 M20.754,18.842l-2.755-0.688l-0.204-0.817c0.379-0.387,0.693-0.844,0.935-1.336h1.078c-0.122,0.312-0.245,0.585-0.382,0.822
			c-0.079,0.136-0.088,0.301-0.027,0.445c0.062,0.145,0.187,0.252,0.339,0.29l1.259,0.314c0.339,0.085,0.684,0.218,1.085,0.42
			c0.07,0.035,0.147,0.053,0.225,0.053c0.055,0,0.111-0.009,0.164-0.028c0.128-0.044,0.232-0.138,0.29-0.26
			c0.159-0.34,0.24-0.696,0.24-1.057V3c0-1.378-1.122-2.5-2.5-2.5h-18c-1.378,0-2.5,1.122-2.5,2.5v14c0,1.378,1.122,2.5,2.5,2.5
			h3.626c0.136,0,0.266-0.056,0.36-0.153c0.7-0.729,1.57-1.238,2.516-1.476l1.327-0.332c0.152-0.038,0.277-0.145,0.339-0.289
			s0.052-0.309-0.026-0.444c-0.133-0.232-0.254-0.503-0.372-0.806h1.082c0.228,0.465,0.521,0.898,0.869,1.269l-0.221,0.884
			l-2.755,0.688C7.333,19.319,6,21.029,6,23c0,0.276,0.224,0.5,0.5,0.5h17c0.276,0,0.5-0.226,0.5-0.502
			C24,21.029,22.666,19.319,20.754,18.842z M13.656,4.761c-0.94,0.06-1.699,0.246-2.314,0.517c-0.038-0.252-0.122-0.508-0.293-0.769
			C10.747,4.049,10.126,3.5,8.872,3.5c-0.376,0-1.231,0-2.052,0.524c-2.38,0.073-2.69,1.275-2.69,2.323
			c0,0.207,0.041,0.614,0.076,0.932c-0.102,0.056-0.194,0.13-0.272,0.219C3.741,7.718,3.651,8.01,3.687,8.301l0.13,1.043
			c0.047,0.372,0.291,0.677,0.652,0.815c0.129,0.673,0.452,1.326,0.909,1.836l-0.115,0.462l-1.859,0.465
			c-1.25,0.312-2.164,1.337-2.36,2.578H1V3c0-0.827,0.673-1.5,1.5-1.5h18C21.327,1.5,22,2.173,22,3v12.5h-1.474
			c0.522-0.432,0.884-1.054,0.974-1.769l0.185-1.479c0.095-0.761-0.134-1.528-0.63-2.111c0.965-1.172,0.99-2.698,0.054-4.127
			C20.508,5.096,19.297,4,16.945,4C16.393,4,15.034,4,13.656,4.761z"/>
	</g>
</g>
</svg>
