<?xml version="1.0" encoding="iso-8859-1"?>
<!-- Generator: Adobe Illustrator 19.0.0, SVG Export Plug-In . SVG Version: 6.00 Build 0)  -->
<svg version="1.1" id="Layer_1" xmlns="http://www.w3.org/2000/svg" xmlns:xlink="http://www.w3.org/1999/xlink" x="0px" y="0px"
	 viewBox="0 0 24 24" style="enable-background:new 0 0 24 24;" xml:space="preserve">
<g>
	<g>
		<path d="M12,19c-0.552,0-1,0.448-1,1s0.448,1,1,1s1-0.448,1-1S12.552,19,12,19z M20,19c-0.552,0-1,0.448-1,1s0.448,1,1,1
			s1-0.448,1-1S20.552,19,20,19z M21,17h-0.513C20.804,16.581,21,16.065,21,15.5v-9C21,5.122,19.878,4,18.5,4H16V3.5
			C16,2.122,14.878,1,13.5,1h-3C9.122,1,8,2.122,8,3.5V4H5.5C4.122,4,3,5.122,3,6.5v9c0,0.565,0.196,1.081,0.513,1.5H3
			c-1.654,0-3,1.346-3,3s1.346,3,3,3h18c1.654,0,3-1.346,3-3S22.654,17,21,17z M18,5h0.5C19.327,5,20,5.673,20,6.5v9
			c0,0.827-0.673,1.5-1.5,1.5H18V5z M9,3.5C9,2.673,9.673,2,10.5,2h3C14.327,2,15,2.673,15,3.5V4H9V3.5z M7,5h7.916
			c-0.232,0.675-0.936,1.786-1.985,2.001H11.5c-0.133,0-0.26,0.052-0.354,0.146l-1.5,1.5c-0.195,0.195-0.195,0.512,0,0.707l1.5,1.5
			C11.244,10.951,11.372,11,11.5,11s0.256-0.049,0.354-0.145l1.5-1.5C13.447,9.261,13.5,9.134,13.5,9.001V7.859
			C14.884,7.375,15.726,5.948,15.938,5H17v12H7V5z M12.5,8v0.793l-1,1L10.707,9l1-1H12.5z M4,6.5C4,5.673,4.673,5,5.5,5H6v12H5.5
			C4.673,17,4,16.327,4,15.5V6.5z M21,22H3c-1.103,0-2-0.897-2-2c0-1.103,0.897-2,2-2h18c1.103,0,2,0.897,2,2
			C23,21.103,22.103,22,21,22z M16,19c-0.552,0-1,0.448-1,1s0.448,1,1,1s1-0.448,1-1S16.552,19,16,19z M4,19c-0.552,0-1,0.448-1,1
			s0.448,1,1,1s1-0.448,1-1S4.552,19,4,19z M8,19c-0.552,0-1,0.448-1,1s0.448,1,1,1s1-0.448,1-1S8.552,19,8,19z"/>
	</g>
</g>
</svg>
