<?xml version="1.0" encoding="iso-8859-1"?>
<!-- Generator: Adobe Illustrator 19.0.0, SVG Export Plug-In . SVG Version: 6.00 Build 0)  -->
<svg version="1.1" id="Layer_1" xmlns="http://www.w3.org/2000/svg" xmlns:xlink="http://www.w3.org/1999/xlink" x="0px" y="0px"
	 viewBox="0 0 24 24" style="enable-background:new 0 0 24 24;" xml:space="preserve">
<g>
	<g>
		<path d="M8.5,5h-4C4.224,5,4,5.224,4,5.5v4C4,9.776,4.224,10,4.5,10h4C8.776,10,9,9.776,9,9.5v-4C9,5.224,8.776,5,8.5,5z M8,9H5V6
			h3V9z M23.5,16c-0.276,0-0.5,0.224-0.5,0.5V18h-2V7.5C21,4.467,18.533,2,15.5,2h-10C2.467,2,0,4.467,0,7.5v11
			C0,18.776,0.224,19,0.5,19H3c0,1.654,1.346,3,3,3c1.654,0,3-1.346,3-3h14.5c0.276,0,0.5-0.224,0.5-0.5v-2
			C24,16.224,23.776,16,23.5,16z M6,21c-1.103,0-2-0.897-2-2c0-0.138,0.014-0.272,0.041-0.402c0-0.001,0.001-0.003,0.001-0.004
			c0.025-0.122,0.063-0.239,0.109-0.352c0.015-0.037,0.036-0.07,0.053-0.105c0.036-0.074,0.073-0.148,0.118-0.217
			c0.026-0.041,0.057-0.078,0.086-0.117c0.043-0.057,0.088-0.113,0.136-0.165c0.036-0.039,0.075-0.075,0.115-0.111
			c0.049-0.045,0.1-0.087,0.154-0.127c0.045-0.033,0.09-0.065,0.138-0.094c0.056-0.035,0.115-0.065,0.174-0.095
			c0.049-0.024,0.098-0.049,0.149-0.069c0.07-0.027,0.142-0.048,0.215-0.067c0.045-0.012,0.089-0.027,0.135-0.036
			C5.747,17.015,5.871,17,6,17s0.254,0.015,0.375,0.038c0.046,0.009,0.09,0.024,0.135,0.036c0.073,0.02,0.146,0.04,0.216,0.067
			c0.051,0.02,0.099,0.044,0.148,0.068c0.06,0.03,0.12,0.06,0.176,0.096c0.046,0.029,0.091,0.06,0.135,0.093
			c0.055,0.041,0.107,0.084,0.158,0.13c0.038,0.034,0.075,0.069,0.11,0.106c0.051,0.054,0.098,0.113,0.142,0.173
			c0.027,0.036,0.056,0.071,0.081,0.11c0.047,0.072,0.086,0.149,0.124,0.227c0.015,0.032,0.034,0.062,0.048,0.096
			c0.047,0.113,0.085,0.231,0.11,0.354c0,0.001,0.001,0.002,0.001,0.003C7.986,18.728,8,18.862,8,19C8,20.103,7.103,21,6,21z M17,18
			h-5v-7.5h5V18z M20,18h-2v-8c0-0.276-0.224-0.5-0.5-0.5h-6C11.224,9.5,11,9.724,11,10v8H8.829c-0.012-0.035-0.031-0.066-0.044-0.1
			c-0.021-0.054-0.046-0.105-0.07-0.157c-0.053-0.114-0.112-0.223-0.178-0.328c-0.03-0.049-0.06-0.097-0.093-0.143
			c-0.08-0.112-0.167-0.217-0.261-0.316c-0.028-0.029-0.051-0.062-0.08-0.09c-0.122-0.12-0.255-0.229-0.396-0.326
			c-0.046-0.032-0.096-0.058-0.144-0.087c-0.102-0.063-0.206-0.121-0.315-0.171c-0.061-0.028-0.123-0.053-0.186-0.077
			c-0.111-0.042-0.224-0.077-0.34-0.106c-0.059-0.015-0.116-0.031-0.177-0.043C6.367,16.022,6.186,16,6,16s-0.367,0.022-0.545,0.055
			c-0.06,0.011-0.117,0.028-0.176,0.043c-0.116,0.029-0.23,0.064-0.341,0.106c-0.063,0.024-0.124,0.048-0.185,0.076
			c-0.11,0.051-0.215,0.11-0.318,0.173c-0.047,0.029-0.096,0.054-0.141,0.085c-0.142,0.098-0.275,0.208-0.398,0.329
			c-0.026,0.025-0.047,0.055-0.072,0.081c-0.097,0.102-0.187,0.211-0.269,0.326c-0.032,0.045-0.06,0.091-0.089,0.138
			c-0.067,0.107-0.127,0.217-0.181,0.333c-0.024,0.052-0.048,0.102-0.069,0.156c-0.013,0.034-0.032,0.065-0.044,0.1H1V7.5
			C1,5.019,3.019,3,5.5,3h10C17.981,3,20,5.019,20,7.5V18z"/>
	</g>
</g>
</svg>
