<?xml version="1.0" encoding="iso-8859-1"?>
<!-- Generator: Adobe Illustrator 19.0.0, SVG Export Plug-In . SVG Version: 6.00 Build 0)  -->
<svg version="1.1" id="Layer_1" xmlns="http://www.w3.org/2000/svg" xmlns:xlink="http://www.w3.org/1999/xlink" x="0px" y="0px"
	 viewBox="0 0 24 24" style="enable-background:new 0 0 24 24;" xml:space="preserve">
<g>
	<g>
		<path d="M1.5,18h6C7.776,18,8,17.776,8,17.5v-10c0-0.225-0.15-0.422-0.367-0.482C7.419,6.957,7.186,7.05,7.071,7.243l-6,10
			c-0.092,0.155-0.095,0.348-0.006,0.504C1.154,17.903,1.32,18,1.5,18z M7,9.305V17H2.383L7,9.305z M11.103,17.804
			C11.198,17.927,11.344,18,11.5,18h11c0.276,0,0.5-0.224,0.499-0.5c0-12.308-11.184-17.407-11.297-17.457
			c-0.172-0.076-0.372-0.051-0.518,0.069c-0.146,0.118-0.213,0.309-0.173,0.493C11.021,0.651,12,5.233,12,10
			c0,3.698-0.972,7.333-0.982,7.369C10.977,17.52,11.008,17.681,11.103,17.804z M12.185,1.422C14.708,2.855,21.748,7.681,21.993,17
			h-9.854c0.286-1.226,0.861-4.056,0.86-7C12.999,6.488,12.479,3.073,12.185,1.422z M23.925,19.237C23.834,19.09,23.673,19,23.5,19
			H10V0.5C10,0.224,9.776,0,9.5,0h-3C6.298,0,6.115,0.122,6.038,0.309C5.96,0.496,6.003,0.711,6.146,0.854L6.792,1.5L6.146,2.146
			C6.003,2.289,5.96,2.504,6.038,2.691C6.115,2.878,6.298,3,6.5,3H9v16H0.5C0.224,19,0,19.224,0,19.5v1C0,22.43,1.57,24,3.5,24
			h14.292c2.478,0,4.706-1.377,5.813-3.594l0.342-0.683C24.025,19.569,24.016,19.384,23.925,19.237z M7.707,2l0.146-0.147
			c0.195-0.195,0.195-0.512,0-0.707L7.707,1H9v1H7.707z M17.792,23H3.5C2.122,23,1,21.878,1,20.5V20h21.69
			C21.746,21.852,19.874,23,17.792,23z"/>
	</g>
</g>
</svg>
