<?xml version="1.0" encoding="utf-8"?>
<!-- Generator: Adobe Illustrator 19.0.0, SVG Export Plug-In . SVG Version: 6.00 Build 0)  -->
<svg version="1.1" id="Layer_1" xmlns="http://www.w3.org/2000/svg" xmlns:xlink="http://www.w3.org/1999/xlink" x="0px" y="0px"
	 viewBox="0 0 30 30" style="enable-background:new 0 0 30 30;" xml:space="preserve">
<g>
	<g>
		<path d="M7.8,27.1c-0.2,0-0.4-0.1-0.5-0.1C6.4,26.5,6,26,6.1,25.4c0.1-1.3,2.2-2.3,5.6-3.6c0.6-1,1.2-2,1.5-2.8
			c0.3-0.7,0.6-1.4,0.8-2c-1.6-2.1-2.4-4.5-1.8-5.9c0.3-0.7,0.9-1.1,1.8-1.1c0.9,0,1.4,0.4,1.6,0.8c0.8,1.2,0.3,3.8-0.5,6
			c0.2,0.3,0.5,0.6,0.7,0.8c0.8,0.8,1.5,1.4,2.3,2c2-0.3,4-0.3,5.1,0.4c0.5,0.3,0.8,0.8,0.8,1.4c0,0.9-0.5,1.3-0.8,1.4
			c-1.2,0.5-3.3-0.7-5.3-2.2c-1,0.2-2,0.5-2.8,0.8c-0.7,0.3-1.5,0.6-2.4,1c-0.1,0-0.2,0.1-0.4,0.1c-1.2,1.9-2.8,3.9-4,4.3
			C8.1,27,8,27.1,7.8,27.1z M10.6,23.3c-1.7,0.7-3.6,1.6-3.6,2.1c0,0.1,0.2,0.3,0.7,0.6c0.1,0,0.2,0,0.3,0
			C8.7,25.8,9.7,24.7,10.6,23.3z M19.3,20.5c1.6,1.1,3,1.6,3.5,1.4c0.1,0,0.2-0.1,0.2-0.5c0-0.2,0-0.4-0.4-0.6
			C22,20.5,20.8,20.4,19.3,20.5z M14.7,17.9c-0.2,0.6-0.4,1.1-0.6,1.5c-0.2,0.4-0.5,1.1-0.9,1.8c0.6-0.2,1.1-0.4,1.5-0.6
			c0.7-0.3,1.4-0.5,2.2-0.7c-0.6-0.5-1.2-1.1-1.7-1.6C15,18.2,14.9,18.1,14.7,17.9z M14,11c-0.6,0-0.8,0.3-0.9,0.5
			c-0.4,0.9,0.1,2.6,1.3,4.3c0.7-2.2,0.8-3.8,0.4-4.5C14.7,11.2,14.5,11,14,11z"/>
	</g>
	<g>
		<g>
			<g>
				<path d="M25.5,30h-21C4.2,30,4,29.8,4,29.5v-21c0-0.1,0.1-0.3,0.1-0.4l8-8C12.2,0.1,12.4,0,12.5,0h13C25.8,0,26,0.2,26,0.5v29
					C26,29.8,25.8,30,25.5,30z M5,29h20V1H12.7L5,8.7V29z"/>
			</g>
			<g>
				<path d="M12.5,9h-8C4.2,9,4,8.8,4,8.5S4.2,8,4.5,8H12V0.5C12,0.2,12.2,0,12.5,0S13,0.2,13,0.5v8C13,8.8,12.8,9,12.5,9z"/>
			</g>
		</g>
	</g>
</g>
</svg>
