<?xml version="1.0" encoding="utf-8"?>
<!-- Generator: Adobe Illustrator 19.0.0, SVG Export Plug-In . SVG Version: 6.00 Build 0)  -->
<svg version="1.1" id="Layer_1" xmlns="http://www.w3.org/2000/svg" xmlns:xlink="http://www.w3.org/1999/xlink" x="0px" y="0px"
	 viewBox="0 0 30 30" style="enable-background:new 0 0 30 30;" xml:space="preserve">
<g>
	<g>
		<g>
			<g>
				<path d="M25.5,16h-21C4.2,16,4,15.8,4,15.5v-7c0-0.1,0.1-0.3,0.1-0.4l8-8C12.2,0.1,12.4,0,12.5,0h13C25.8,0,26,0.2,26,0.5v15
					C26,15.8,25.8,16,25.5,16z M5,15h20V1H12.7L5,8.7V15z"/>
			</g>
			<g>
				<path d="M12.5,9h-8C4.2,9,4,8.8,4,8.5S4.2,8,4.5,8H12V0.5C12,0.2,12.2,0,12.5,0S13,0.2,13,0.5v8C13,8.8,12.8,9,12.5,9z"/>
			</g>
		</g>
	</g>
	<g>
		<path d="M25.5,30h-21C4.2,30,4,29.8,4,29.5v-12C4,17.2,4.2,17,4.5,17h21c0.3,0,0.5,0.2,0.5,0.5v12C26,29.8,25.8,30,25.5,30z M5,29
			h20V18H5V29z"/>
	</g>
	<g>
		<path d="M19.5,14h-8c-0.2,0-0.4-0.1-0.5-0.3s0-0.4,0.1-0.5l4-4c0.2-0.2,0.5-0.2,0.7,0l4,4c0.1,0.1,0.2,0.4,0.1,0.5
			S19.7,14,19.5,14z M12.7,13h5.6l-2.8-2.8L12.7,13z"/>
	</g>
	<g>
		<path d="M15.5,24c-0.1,0-0.3,0-0.4-0.1l-4-4C11,19.7,11,19.5,11,19.3s0.3-0.3,0.5-0.3h8c0.2,0,0.4,0.1,0.5,0.3s0,0.4-0.1,0.5l-4,4
			C15.8,24,15.6,24,15.5,24z M12.7,20l2.8,2.8l2.8-2.8H12.7z"/>
	</g>
</g>
</svg>
