<?xml version="1.0" encoding="utf-8"?>
<!-- Generator: Adobe Illustrator 19.0.0, SVG Export Plug-In . SVG Version: 6.00 Build 0)  -->
<svg version="1.1" id="Layer_1" xmlns="http://www.w3.org/2000/svg" xmlns:xlink="http://www.w3.org/1999/xlink" x="0px" y="0px"
	 viewBox="0 0 30 30" style="enable-background:new 0 0 30 30;" xml:space="preserve">
<g>
	<g>
		<g>
			<path d="M21.5,30h-5c-0.3,0-0.5-0.2-0.5-0.5l-1-15l0,0l-1,15c0,0.3-0.2,0.5-0.5,0.5h-5c-0.1,0-0.3-0.1-0.4-0.2S8,29.6,8,29.5
				l1-25L9,3c0-0.1,0.1-0.3,0.1-0.4s0.2-0.1,0.4-0.1l0,0l11,0C20.8,2.5,21,2.7,21,3v1.3l1,25.2c0,0.1,0,0.3-0.1,0.4
				C21.8,29.9,21.6,30,21.5,30z M17,29h4L20,3.5l-10,0v1L9,29h4l1-14.5L14.5,9c0-0.3,0.2-0.5,0.5-0.5s0.5,0.2,0.5,0.5l0.5,5.5L17,29
				z"/>
		</g>
		<g>
			<path d="M9.5,8C9.2,8,9,7.8,9,7.5S9.2,7,9.5,7C10.9,7,11,5.3,11,4.5v-4C11,0.2,11.2,0,11.5,0S12,0.2,12,0.5v4
				C12,6.7,11.1,8,9.5,8z"/>
		</g>
		<g>
			<path d="M20.5,8C18.9,8,18,6.7,18,4.5v-4C18,0.2,18.2,0,18.5,0S19,0.2,19,0.5v4C19,5.3,19.1,7,20.5,7C20.8,7,21,7.2,21,7.5
				S20.8,8,20.5,8z"/>
		</g>
	</g>
	<g>
		<path d="M20.5,3.5C20.2,3.5,20,3.3,20,3V1L10,1v2c0,0.3-0.2,0.5-0.5,0.5S9,3.3,9,3V0.5c0-0.1,0.1-0.3,0.1-0.4S9.4,0,9.5,0l0,0
			l11,0C20.8,0,21,0.2,21,0.5V3C21,3.3,20.8,3.5,20.5,3.5z"/>
	</g>
	<g>
		<path d="M15,9.5c-0.1,0-0.2,0-0.3-0.1c-0.2-0.2-0.3-0.5-0.1-0.7c0.7-0.9,0.6-3.9,0.4-5.6c0-0.3,0.2-0.5,0.4-0.6
			c0.3,0,0.5,0.2,0.6,0.4c0.1,0.5,0.6,4.9-0.6,6.4C15.3,9.4,15.1,9.5,15,9.5z"/>
	</g>
</g>
</svg>
