<?xml version="1.0" encoding="iso-8859-1"?>
<!-- Generator: Adobe Illustrator 19.0.0, SVG Export Plug-In . SVG Version: 6.00 Build 0)  -->
<svg version="1.1" id="Layer_1" xmlns="http://www.w3.org/2000/svg" xmlns:xlink="http://www.w3.org/1999/xlink" x="0px" y="0px"
	 viewBox="0 0 24 24" style="enable-background:new 0 0 24 24;" xml:space="preserve">
<g>
	<g>
		<path d="M5.354,8.646C5.211,8.504,4.997,8.462,4.809,8.538C4.622,8.615,4.5,8.798,4.5,9v0.5H3c-0.276,0-0.5,0.224-0.5,0.5v4
			c0,0.276,0.224,0.5,0.5,0.5h1.5V15c0,0.202,0.122,0.385,0.309,0.462C4.871,15.487,4.936,15.5,5,15.5
			c0.13,0,0.258-0.051,0.354-0.147l3-3c0.195-0.195,0.195-0.512,0-0.707L5.354,8.646z M5.468,13.824C5.397,13.635,5.214,13.5,5,13.5
			H3.5v-3H5c0.214,0,0.397-0.135,0.468-0.324L7.293,12L5.468,13.824z M21,9.5h-1.5V9.001c0-0.202-0.122-0.385-0.309-0.462
			c-0.188-0.078-0.401-0.036-0.545,0.108l-3,3c-0.195,0.195-0.195,0.512,0,0.707l3,3C18.742,15.449,18.87,15.5,19,15.5
			c0.064,0,0.129-0.013,0.191-0.038C19.378,15.385,19.5,15.202,19.5,15v-0.5H21c0.276,0,0.5-0.224,0.5-0.5v-4
			C21.5,9.724,21.276,9.5,21,9.5z M20.5,13.5H19c-0.214,0-0.397,0.135-0.468,0.324L16.707,12l1.825-1.824
			C18.603,10.365,18.786,10.5,19,10.5h1.5V13.5z M14,7.5h-3.172c-0.276,0-0.5,0.224-0.5,0.5s0.224,0.5,0.5,0.5H13.5v2.672
			c0,0.276,0.224,0.5,0.5,0.5s0.5-0.224,0.5-0.5V8C14.5,7.724,14.276,7.5,14,7.5z M12,0.5C5.659,0.5,0.5,5.659,0.5,12
			S5.659,23.5,12,23.5S23.5,18.341,23.5,12S18.341,0.5,12,0.5z M12,22.5C6.21,22.5,1.5,17.79,1.5,12c0-2.715,1.044-5.185,2.742-7.05
			L9.5,10.208V16c0,0.276,0.224,0.5,0.5,0.5h4c0.276,0,0.5-0.224,0.5-0.5v-0.792l4.55,4.55C17.185,21.456,14.715,22.5,12,22.5z
			 M10.5,15.5v-4.292l3,3V15.5H10.5z M19.757,19.051l-5.4-5.4c-0.002-0.002-0.002-0.004-0.004-0.006l-4-4
			c-0.001-0.001-0.003-0.001-0.004-0.002L4.949,4.243C6.815,2.545,9.284,1.5,12,1.5c5.79,0,10.5,4.71,10.5,10.5
			C22.5,14.716,21.455,17.185,19.757,19.051z"/>
	</g>
</g>
</svg>
