<?xml version="1.0" encoding="iso-8859-1"?>
<!-- Generator: Adobe Illustrator 19.0.0, SVG Export Plug-In . SVG Version: 6.00 Build 0)  -->
<svg version="1.1" id="Layer_1" xmlns="http://www.w3.org/2000/svg" xmlns:xlink="http://www.w3.org/1999/xlink" x="0px" y="0px"
	 viewBox="0 0 24 24" style="enable-background:new 0 0 24 24;" xml:space="preserve">
<g>
	<g>
		<path d="M15.2,3.5c-0.946,0-1.67,0.285-2.152,0.847c-0.634,0.74-0.817,1.911-0.558,3.58c0.157,1.016,0.463,1.578,0.759,2.121
			c0.249,0.456,0.483,0.887,0.655,1.629c0.063,0.269,0.33,0.438,0.601,0.375c0.269-0.062,0.437-0.331,0.374-0.6
			c-0.203-0.875-0.494-1.41-0.751-1.882c-0.278-0.511-0.518-0.952-0.649-1.796c-0.208-1.344-0.098-2.278,0.329-2.776
			C14.096,4.663,14.551,4.5,15.201,4.5c1.677,0,2.219,2.243,2.272,2.846c0.088,0.977-0.048,2.6-0.346,4.154H16
			c-0.276,0-0.5,0.224-0.5,0.5s0.224,0.5,0.5,0.5h0.998c-0.055,0.551-0.124,1.15-0.332,1.559c-0.126,0.246-0.027,0.547,0.219,0.672
			c0.073,0.036,0.151,0.054,0.227,0.054c0.182,0,0.358-0.1,0.445-0.274c0.308-0.607,0.386-1.4,0.449-2.038
			c0.025-0.263,0.048-0.506,0.086-0.7c0.331-1.69,0.476-3.421,0.377-4.518C18.34,5.804,17.338,3.5,15.2,3.5z M12,0.5
			C5.659,0.5,0.5,5.659,0.5,12S5.659,23.5,12,23.5S23.5,18.341,23.5,12S18.341,0.5,12,0.5z M12,22.5C6.21,22.5,1.5,17.79,1.5,12
			c0-2.715,1.044-5.185,2.742-7.05l3.691,3.691C6.374,9.15,5.616,11.01,5.505,12.254c-0.099,1.098,0.046,2.829,0.377,4.519
			c0.038,0.196,0.061,0.442,0.086,0.708C6.075,18.613,6.255,20.5,7.971,20.5c0.012,0,0.024,0,0.038-0.001
			c1.999-0.032,2.004-1.985,2.006-3.034c0.001-0.287,0.001-0.558,0.033-0.706c0.173-0.799,0.418-1.245,0.676-1.717
			c0.297-0.541,0.604-1.1,0.761-2.116c0.036-0.234,0.049-0.448,0.067-0.666l7.498,7.498C17.185,21.456,14.715,22.5,12,22.5z
			 M6.847,16.5c-0.297-1.555-0.435-3.178-0.346-4.156c0.053-0.594,0.584-2.793,2.3-2.835l0.889,0.889l0.888,0.89
			c0.029,0.433,0.001,0.932-0.085,1.486c-0.129,0.842-0.37,1.281-0.649,1.789c-0.262,0.481-0.559,1.029-0.762,1.937H6.847z
			 M9.012,17.5c-0.005,1.37-0.158,1.986-1.02,2c-0.69-0.017-0.881-0.642-1.017-2H9.012z M19.757,19.051l-8.339-8.339
			c-0.001-0.001-0.001-0.003-0.002-0.004l-2.04-2.041C9.375,8.666,9.372,8.666,9.37,8.664L4.949,4.243C6.815,2.545,9.284,1.5,12,1.5
			c5.79,0,10.5,4.71,10.5,10.5C22.5,14.716,21.455,17.185,19.757,19.051z"/>
	</g>
</g>
</svg>
