<?xml version="1.0" encoding="iso-8859-1"?>
<!-- Generator: Adobe Illustrator 19.0.0, SVG Export Plug-In . SVG Version: 6.00 Build 0)  -->
<svg version="1.1" id="Layer_1" xmlns="http://www.w3.org/2000/svg" xmlns:xlink="http://www.w3.org/1999/xlink" x="0px" y="0px"
	 viewBox="0 0 24 24" style="enable-background:new 0 0 24 24;" xml:space="preserve">
<g>
	<g>
		<path d="M8.101,18.51c-0.273-0.053-0.535,0.119-0.591,0.389l-0.303,1.469c-0.055,0.271,0.118,0.535,0.389,0.591
			c0.035,0.007,0.069,0.01,0.102,0.01c0.232,0,0.44-0.162,0.489-0.399l0.303-1.469C8.545,18.83,8.372,18.566,8.101,18.51z
			 M7.776,16.084c-0.23-0.153-0.541-0.091-0.693,0.139l-0.832,1.248c-0.153,0.23-0.091,0.54,0.139,0.693
			c0.086,0.057,0.182,0.084,0.277,0.084c0.162,0,0.321-0.078,0.416-0.223l0.832-1.248C8.068,16.547,8.006,16.237,7.776,16.084z
			 M11.5,19c-0.276,0-0.5,0.224-0.5,0.5V21c0,0.276,0.224,0.5,0.5,0.5S12,21.276,12,21v-1.5C12,19.224,11.776,19,11.5,19z M10,16
			c-0.276,0-0.5,0.224-0.5,0.5V18c0,0.276,0.224,0.5,0.5,0.5s0.5-0.224,0.5-0.5v-1.5C10.5,16.224,10.276,16,10,16z M12,0.5
			C5.659,0.5,0.5,5.659,0.5,12S5.659,23.5,12,23.5S23.5,18.341,23.5,12S18.341,0.5,12,0.5z M12,22.5C6.21,22.5,1.5,17.79,1.5,12
			c0-2.715,1.044-5.185,2.742-7.05l3.466,3.466C5.743,9.576,4.5,11.691,4.5,14v1c0,0.276,0.224,0.5,0.5,0.5h9.792l0.539,0.539
			c-0.037,0.013-0.075,0.022-0.108,0.045c-0.23,0.153-0.292,0.463-0.139,0.693l0.832,1.248c0.097,0.145,0.255,0.223,0.417,0.223
			c0.095,0,0.191-0.027,0.276-0.084c0.23-0.153,0.292-0.463,0.139-0.693l-0.03-0.045l2.332,2.332C17.185,21.456,14.715,22.5,12,22.5
			z M8.432,9.14l5.36,5.36H5.5V14C5.5,11.96,6.641,10.089,8.432,9.14z M19.757,19.051l-4.402-4.402
			c-0.001-0.001,0-0.001-0.001-0.002L8.888,8.181c-0.001-0.001-0.001,0-0.002-0.001L4.949,4.243C6.815,2.545,9.284,1.5,12,1.5
			c5.79,0,10.5,4.71,10.5,10.5C22.5,14.716,21.455,17.185,19.757,19.051z M17,3.5H9C8.724,3.5,8.5,3.724,8.5,4S8.724,4.5,9,4.5
			h7.543l0.273,3H11c-0.276,0-0.5,0.224-0.5,0.5s0.224,0.5,0.5,0.5h5.907l0.559,6.155c-0.085,0.09-0.138,0.211-0.138,0.345
			c0,0.276,0.224,0.5,0.5,0.5H18c0.141,0,0.274-0.059,0.369-0.162c0.095-0.104,0.142-0.243,0.129-0.383l-1-11
			C17.475,3.697,17.259,3.5,17,3.5z M13,16c-0.276,0-0.5,0.224-0.5,0.5V18c0,0.276,0.224,0.5,0.5,0.5s0.5-0.224,0.5-0.5v-1.5
			C13.5,16.224,13.276,16,13,16z M15.49,18.899c-0.056-0.27-0.318-0.442-0.591-0.389c-0.271,0.056-0.445,0.32-0.389,0.591
			l0.303,1.469c0.049,0.236,0.257,0.399,0.489,0.399c0.033,0,0.068-0.003,0.102-0.01c0.271-0.056,0.445-0.32,0.389-0.591
			L15.49,18.899z"/>
	</g>
</g>
</svg>
