<?xml version="1.0" encoding="iso-8859-1"?>
<!-- Generator: Adobe Illustrator 19.0.0, SVG Export Plug-In . SVG Version: 6.00 Build 0)  -->
<svg version="1.1" id="Layer_1" xmlns="http://www.w3.org/2000/svg" xmlns:xlink="http://www.w3.org/1999/xlink" x="0px" y="0px"
	 viewBox="0 0 24 24" style="enable-background:new 0 0 24 24;" xml:space="preserve">
<g>
	<g>
		<path d="M11.5,19c-0.276,0-0.5,0.224-0.5,0.5V21c0,0.276,0.224,0.5,0.5,0.5S12,21.276,12,21v-1.5C12,19.224,11.776,19,11.5,19z
			 M8.101,18.51c-0.273-0.053-0.535,0.119-0.591,0.389l-0.303,1.469c-0.055,0.271,0.118,0.535,0.389,0.591
			c0.035,0.007,0.069,0.01,0.102,0.01c0.232,0,0.44-0.162,0.489-0.399l0.303-1.469C8.545,18.83,8.372,18.566,8.101,18.51z M10,16
			c-0.276,0-0.5,0.224-0.5,0.5V18c0,0.276,0.224,0.5,0.5,0.5s0.5-0.224,0.5-0.5v-1.5C10.5,16.224,10.276,16,10,16z M7.776,16.084
			c-0.231-0.153-0.541-0.091-0.693,0.139l-0.832,1.248c-0.153,0.23-0.091,0.54,0.139,0.693c0.086,0.057,0.182,0.084,0.277,0.084
			c0.162,0,0.321-0.078,0.416-0.223l0.832-1.248C8.068,16.547,8.006,16.237,7.776,16.084z M15.916,16.223
			c-0.153-0.23-0.463-0.293-0.693-0.139c-0.23,0.153-0.292,0.463-0.139,0.693l0.832,1.248c0.097,0.145,0.255,0.223,0.417,0.223
			c0.095,0,0.191-0.027,0.276-0.084c0.23-0.153,0.292-0.463,0.139-0.693L15.916,16.223z M12,0.5C5.659,0.5,0.5,5.659,0.5,12
			S5.659,23.5,12,23.5S23.5,18.341,23.5,12S18.341,0.5,12,0.5z M12,22.5C6.21,22.5,1.5,17.79,1.5,12S6.21,1.5,12,1.5
			c5.79,0,10.5,4.71,10.5,10.5S17.79,22.5,12,22.5z M13,16c-0.276,0-0.5,0.224-0.5,0.5V18c0,0.276,0.224,0.5,0.5,0.5
			s0.5-0.224,0.5-0.5v-1.5C13.5,16.224,13.276,16,13,16z M17.001,3.5h-8c-0.276,0-0.5,0.224-0.5,0.5s0.224,0.5,0.5,0.5h7.543
			l0.272,3H11c-3.584,0-6.5,2.916-6.5,6.5v1c0,0.276,0.224,0.5,0.5,0.5h13c0.141,0,0.274-0.059,0.37-0.162
			c0.095-0.104,0.142-0.243,0.129-0.383l-1-11C17.476,3.697,17.26,3.5,17.001,3.5z M5.501,14.5V14c0-3.033,2.467-5.5,5.5-5.5h5.907
			l0.545,6H5.501z M15.49,18.899c-0.056-0.27-0.318-0.442-0.591-0.389c-0.271,0.056-0.445,0.32-0.389,0.591l0.303,1.469
			c0.049,0.236,0.257,0.399,0.489,0.399c0.033,0,0.068-0.003,0.102-0.01c0.271-0.056,0.445-0.32,0.389-0.591L15.49,18.899z"/>
	</g>
</g>
</svg>
