<?xml version="1.0" encoding="iso-8859-1"?>
<!-- Generator: Adobe Illustrator 19.0.0, SVG Export Plug-In . SVG Version: 6.00 Build 0)  -->
<svg version="1.1" id="Layer_1" xmlns="http://www.w3.org/2000/svg" xmlns:xlink="http://www.w3.org/1999/xlink" x="0px" y="0px"
	 viewBox="0 0 24 24" style="enable-background:new 0 0 24 24;" xml:space="preserve">
<g>
	<g>
		<path d="M24.75,4.49h-23c-0.276,0-0.5,0.224-0.5,0.5v1.969c0,0.276,0.224,0.5,0.5,0.5h23c0.276,0,0.5-0.224,0.5-0.5V4.99
			C25.25,4.713,25.026,4.49,24.75,4.49z"/>
		<path d="M24.75,8.5h-23c-0.276,0-0.5,0.224-0.5,0.5v1.938c0,0.276,0.224,0.5,0.5,0.5h23c0.276,0,0.5-0.224,0.5-0.5V9
			C25.25,8.724,25.026,8.5,24.75,8.5z"/>
	</g>
	<path d="M24.75,13.5h-23c-0.276,0-0.5,0.224-0.5,0.5v2c0,0.276,0.224,0.5,0.5,0.5h23c0.276,0,0.5-0.224,0.5-0.5v-2
		C25.25,13.724,25.026,13.5,24.75,13.5z"/>
	<g>
		<path d="M4.75,15.5h-2c-0.276,0-0.5,0.224-0.5,0.5v5c0,0.276,0.224,0.5,0.5,0.5h2c0.276,0,0.5-0.224,0.5-0.5v-5
			C5.25,15.724,5.026,15.5,4.75,15.5z"/>
		<path d="M23.75,15.5h-2c-0.276,0-0.5,0.224-0.5,0.5v5c0,0.276,0.224,0.5,0.5,0.5h2c0.276,0,0.5-0.224,0.5-0.5v-5
			C24.25,15.724,24.026,15.5,23.75,15.5z"/>
	</g>
	<g>
		<path d="M4.75,2.5h-2c-0.276,0-0.5,0.224-0.5,0.5v6.958c0,0.276,0.224,0.5,0.5,0.5h2c0.276,0,0.5-0.224,0.5-0.5V3
			C5.25,2.724,5.026,2.5,4.75,2.5z"/>
		<path d="M23.75,2.5h-2c-0.276,0-0.5,0.224-0.5,0.5v6.552c0,0.276,0.224,0.5,0.5,0.5h2c0.276,0,0.5-0.224,0.5-0.5V3
			C24.25,2.724,24.026,2.5,23.75,2.5z"/>
	</g>
	<g>
		<path style="fill:none;stroke:#FFFFFF;stroke-linecap:round;stroke-linejoin:round;stroke-miterlimit:10;" d="M-1.25,8"/>
	</g>
	<g>
		<path d="M5.25,12.5V11c0-0.276-0.224-0.5-0.5-0.5h-2c-0.276,0-0.5,0.224-0.5,0.5v1.5H5.25z"/>
		<path d="M2.25,13.5V14c0,0.276,0.224,0.5,0.5,0.5h2c0.276,0,0.5-0.224,0.5-0.5v-0.5H2.25z"/>
	</g>
	<g>
		<path d="M24.25,12.5V11c0-0.276-0.224-0.5-0.5-0.5h-2c-0.276,0-0.5,0.224-0.5,0.5v1.5H24.25z"/>
		<path d="M21.25,13.5V14c0,0.276,0.224,0.5,0.5,0.5h2c0.276,0,0.5-0.224,0.5-0.5v-0.5H21.25z"/>
	</g>
</g>
<g>
</g>
<g>
</g>
<g>
</g>
<g>
</g>
<g>
</g>
<g>
</g>
<g>
</g>
<g>
</g>
<g>
</g>
<g>
</g>
<g>
</g>
<g>
</g>
<g>
</g>
<g>
</g>
<g>
</g>
</svg>
