<?xml version="1.0" encoding="iso-8859-1"?>
<!-- Generator: Adobe Illustrator 19.0.0, SVG Export Plug-In . SVG Version: 6.00 Build 0)  -->
<svg version="1.1" id="Layer_1" xmlns="http://www.w3.org/2000/svg" xmlns:xlink="http://www.w3.org/1999/xlink" x="0px" y="0px"
	 viewBox="0 0 24 24" style="enable-background:new 0 0 24 24;" xml:space="preserve">
<g>
	<g>
		<path d="M2.5,8C2.425,8,2.349,7.983,2.276,7.948C2.029,7.824,1.93,7.524,2.053,7.277c0.497-0.994,1.946-2.43,2.77-2.744
			c0.256-0.098,0.547,0.031,0.645,0.289c0.099,0.258-0.03,0.547-0.289,0.646c-0.5,0.19-1.791,1.377-2.23,2.256
			C2.859,7.899,2.683,8,2.5,8z"/>
	</g>
	<g>
		<path d="M7,6C5.346,6,4,4.655,4,3s1.346-3,3-3s3,1.346,3,3S8.654,6,7,6z M7,1C5.897,1,5,1.897,5,3s0.897,2,2,2s2-0.897,2-2
			S8.103,1,7,1z"/>
	</g>
	<g>
		<path d="M13.5,4h-2C11.224,4,11,3.777,11,3.5S11.224,3,11.5,3h2C13.776,3,14,3.224,14,3.5S13.776,4,13.5,4z"/>
	</g>
	<g>
		<path d="M7,4C6.724,4,6.5,3.777,6.5,3.5v-1C6.5,2.224,6.724,2,7,2s0.5,0.224,0.5,0.5v1C7.5,3.777,7.276,4,7,4z"/>
	</g>
	<path d="M21.808,0.106c-0.122-0.095-0.28-0.13-0.429-0.091l-8,2C13.156,2.071,13,2.271,13,2.5v2c0,0.229,0.156,0.429,0.379,0.485
		l8,2C21.419,6.995,21.46,7,21.5,7c0.11,0,0.219-0.037,0.308-0.106C21.929,6.8,22,6.654,22,6.5v-6
		C22,0.346,21.929,0.201,21.808,0.106z"/>
	<g>
		<path d="M12,6.036V2.498C12,1.672,11.328,1,10.502,1H9.5C9.416,1,9.341,1.026,9.271,1.063C9.719,1.587,10,2.258,10,3
			c0,1.654-1.346,3-3,3v0.036C5.306,6.279,4,7.74,4,9.5v13.002C4,23.328,4.672,24,5.498,24h8.004C14.328,24,15,23.328,15,22.503V9.5
			C15,7.74,13.694,6.279,12,6.036z"/>
	</g>
</g>
<g>
</g>
<g>
</g>
<g>
</g>
<g>
</g>
<g>
</g>
<g>
</g>
<g>
</g>
<g>
</g>
<g>
</g>
<g>
</g>
<g>
</g>
<g>
</g>
<g>
</g>
<g>
</g>
<g>
</g>
</svg>
