<?xml version="1.0" encoding="iso-8859-1"?>
<!-- Generator: Adobe Illustrator 19.0.0, SVG Export Plug-In . SVG Version: 6.00 Build 0)  -->
<svg version="1.1" id="Layer_1" xmlns="http://www.w3.org/2000/svg" xmlns:xlink="http://www.w3.org/1999/xlink" x="0px" y="0px"
	 viewBox="0 0 24 24" style="enable-background:new 0 0 24 24;" xml:space="preserve">
<g>
	<path d="M5,14c-2.757,0-5,2.243-5,5s2.243,5,5,5s5-2.243,5-5S7.757,14,5,14z M5,16c-1.654,0-3,1.346-3,3c0,0.276-0.224,0.5-0.5,0.5
		S1,19.276,1,19c0-2.206,1.794-4,4-4c0.276,0,0.5,0.224,0.5,0.5S5.276,16,5,16z"/>
	<path d="M11.606,16.702c-0.696-2.001-2.307-3.612-4.308-4.308c-0.181-0.062-0.382-0.017-0.518,0.119l-1.634,1.634
		c-0.195,0.195-0.195,0.512,0,0.707s0.512,0.195,0.707,0l3.293,3.293c-0.195,0.195-0.195,0.512,0,0.707
		C9.244,18.951,9.372,19,9.5,19s0.256-0.049,0.354-0.146l1.634-1.634C11.623,17.084,11.669,16.883,11.606,16.702z"/>
	<path d="M23.853,8.146l-8-8c-0.143-0.143-0.357-0.186-0.545-0.108C15.122,0.115,15,0.298,15,0.5c0,5.403-2.589,8.382-6.854,12.646
		c-0.195,0.195-0.195,0.512,0,0.707c0.195,0.195,0.512,0.195,0.707,0l1.293,1.293c-0.195,0.195-0.195,0.512,0,0.707
		C10.244,15.951,10.372,16,10.5,16s0.256-0.049,0.354-0.146C15.118,11.589,18.097,9,23.5,9c0.202,0,0.385-0.122,0.462-0.309
		C24.039,8.504,23.997,8.29,23.853,8.146z"/>
</g>
<g>
</g>
<g>
</g>
<g>
</g>
<g>
</g>
<g>
</g>
<g>
</g>
<g>
</g>
<g>
</g>
<g>
</g>
<g>
</g>
<g>
</g>
<g>
</g>
<g>
</g>
<g>
</g>
<g>
</g>
</svg>
