<?xml version="1.0" encoding="iso-8859-1"?>
<!-- Generator: Adobe Illustrator 19.0.0, SVG Export Plug-In . SVG Version: 6.00 Build 0)  -->
<svg version="1.1" id="Layer_1" xmlns="http://www.w3.org/2000/svg" xmlns:xlink="http://www.w3.org/1999/xlink" x="0px" y="0px"
	 viewBox="0 0 24 24" style="enable-background:new 0 0 24 24;" xml:space="preserve">
<g>
	<path d="M23.489,10.355C23.396,5.183,18.272,1,11.99,1c-6.341,0-11.5,4.262-11.5,9.5c0,0.276,0.224,0.5,0.5,0.5h0.225
		c0.199,0,0.379-0.118,0.459-0.301C2.115,9.683,3.313,9,4.657,9C6,9,7.198,9.683,7.64,10.699C7.72,10.882,7.899,11,8.099,11h0.449
		c0.199,0,0.379-0.118,0.459-0.301C9.448,9.683,10.646,9,11.99,9s2.542,0.683,2.983,1.699c0.08,0.183,0.26,0.301,0.459,0.301h0.449
		c0.199,0,0.379-0.118,0.459-0.301C16.782,9.683,17.98,9,19.323,9c1.344,0,2.542,0.683,2.983,1.699
		c0.08,0.183,0.26,0.301,0.459,0.301h0.225c0.008,0.001,0.015,0,0.02,0c0.276,0,0.5-0.224,0.5-0.5
		C23.51,10.45,23.503,10.401,23.489,10.355z M15.99,9c-0.276,0-0.5-0.224-0.5-0.5c0-2.981-1.603-5.5-3.5-5.5s-3.5,2.519-3.5,5.5
		c0,0.276-0.224,0.5-0.5,0.5s-0.5-0.224-0.5-0.5c0-3.584,2.019-6.5,4.5-6.5s4.5,2.916,4.5,6.5C16.49,8.776,16.267,9,15.99,9z"/>
	<g>
		<path d="M11.99,2c-0.276,0-0.5-0.224-0.5-0.5v-1c0-0.276,0.224-0.5,0.5-0.5s0.5,0.224,0.5,0.5v1C12.49,1.776,12.267,2,11.99,2z"/>
	</g>
	<g>
		<path d="M9.99,24c-1.379,0-2.5-1.122-2.5-2.5c0-1.309,0.619-1.836,0.689-1.892c0.215-0.171,0.53-0.136,0.703,0.082
			c0.171,0.216,0.134,0.531-0.082,0.702c0,0.001-0.311,0.295-0.311,1.108c0,0.827,0.673,1.5,1.5,1.5s1.5-0.673,1.5-1.5v-13
			c0-0.276,0.224-0.5,0.5-0.5s0.5,0.224,0.5,0.5v13C12.49,22.878,11.369,24,9.99,24z"/>
	</g>
</g>
<g>
</g>
<g>
</g>
<g>
</g>
<g>
</g>
<g>
</g>
<g>
</g>
<g>
</g>
<g>
</g>
<g>
</g>
<g>
</g>
<g>
</g>
<g>
</g>
<g>
</g>
<g>
</g>
<g>
</g>
</svg>
