<?xml version="1.0" encoding="iso-8859-1"?>
<!-- Generator: Adobe Illustrator 19.0.0, SVG Export Plug-In . SVG Version: 6.00 Build 0)  -->
<svg version="1.1" id="Layer_1" xmlns="http://www.w3.org/2000/svg" xmlns:xlink="http://www.w3.org/1999/xlink" x="0px" y="0px"
	 viewBox="0 0 24 24" style="enable-background:new 0 0 24 24;" xml:space="preserve">
<g>
	<g>
		<path d="M22.945,10.67l1.051-2.897c0.066-0.182,0.02-0.387-0.117-0.524l-0.904-0.904V4.5c0-0.223-0.148-0.419-0.363-0.481
			l-3.375-0.964l-0.908-0.908c-0.094-0.093-0.221-0.146-0.354-0.146H16.48C16.478,2.001,16.476,2,16.475,2
			c-0.001,0-0.003,0.001-0.005,0.001h-1.99C14.478,2.001,14.476,2,14.475,2c-0.001,0-0.003,0.001-0.005,0.001h-1.99
			C12.478,2.001,12.476,2,12.475,2c-0.067,0-0.13,0.014-0.188,0.038c-0.001,0-0.003,0-0.004,0.001
			c-0.061,0.025-0.116,0.062-0.162,0.108l-0.943,0.942L9.251,4.053C9.082,4.138,8.975,4.311,8.975,4.5V6h-1V5.5
			c0-0.276-0.224-0.5-0.5-0.5h-1.5c-0.07,0-0.139,0.015-0.203,0.043l-4.5,2C1.133,7.105,1.029,7.227,0.991,7.374
			C0.952,7.522,0.984,7.678,1.075,7.8l0.9,1.2h-1.5c-0.276,0-0.5,0.224-0.5,0.5s0.224,0.5,0.5,0.5h7c0.276,0,0.5-0.224,0.5-0.5V9
			h1.216l0.782,1.163L8.307,13.57c-0.188,0.235-0.305,0.525-0.324,0.844c0,0.002-0.001,0.003-0.002,0.005l-0.487,2.923l-0.468,0.936
			C6.93,18.47,6.968,18.703,7.12,18.855L7.767,19.5l-0.646,0.646C7.028,20.24,6.975,20.367,6.975,20.5V21
			c-0.276,0-0.5,0.224-0.5,0.5s0.224,0.5,0.5,0.5h4c0.275,0,0.498-0.223,0.5-0.498c0.001,0.275,0.224,0.498,0.5,0.498h11.5
			c0.276,0,0.5-0.224,0.5-0.5s-0.224-0.5-0.5-0.5h-0.001v-0.5c0-0.133-0.052-0.26-0.146-0.354L22.682,19.5l0.646-0.646
			c0.153-0.152,0.19-0.385,0.094-0.577l-0.469-0.938l-0.487-2.921v-0.001c-0.016-0.291-0.112-0.559-0.271-0.783L21.946,11h0.529
			C22.685,11,22.873,10.868,22.945,10.67z M3.975,7c0.276,0,0.5,0.224,0.5,0.5S4.251,8,3.975,8s-0.5-0.224-0.5-0.5S3.699,7,3.975,7z
			 M6.975,9h-3.75L2.251,7.702l0.234-0.104C2.536,8.379,3.181,9,3.975,9c0.651,0,1.201-0.419,1.408-1h1.592V9z M6.975,7H5.382
			C5.31,6.796,5.198,6.611,5.05,6.458L6.081,6h0.894V7z M8.975,8h-1V7h1V8z M18.975,4.02l3,0.857V8h-3V4.02z M16.975,3h0.793
			l0.207,0.207V5h-1V3z M14.975,3h1v2h-1V3z M12.975,3h1v2h-1V3z M12.975,6h5v2h-5V6z M9.974,6.505c0-0.002,0.001-0.003,0.001-0.005
			S9.974,6.497,9.974,6.495V4.81l1.724-0.862c0.048-0.024,0.092-0.056,0.13-0.094l0.147-0.147V8H9.974V6.505z M10.407,11.551
			c0.229,0.233,0.535,0.385,0.875,0.429l-0.744,1.464c-0.224-0.226-0.521-0.375-0.85-0.423L10.407,11.551z M10.975,10.5
			c0-0.066,0.014-0.128,0.037-0.185l0.012-0.024C11.103,10.12,11.274,10,11.475,10c0.276,0,0.5,0.224,0.5,0.5
			c0,0.171-0.091,0.314-0.222,0.404c-0.028,0.018-0.058,0.033-0.082,0.055C11.611,10.985,11.544,11,11.475,11
			C11.199,11,10.975,10.776,10.975,10.5z M9.475,14c0.269,0,0.484,0.213,0.496,0.479l-0.036,0.217C9.858,14.875,9.681,15,9.475,15
			c-0.276,0-0.5-0.224-0.5-0.5S9.199,14,9.475,14z M8.763,15.812C8.975,15.928,9.216,16,9.475,16c0.084,0,0.166-0.011,0.247-0.025
			L9.551,17H8.565L8.763,15.812z M8.284,18h1.382l0.201,0.402l-0.599,0.599H8.682l-0.599-0.599L8.284,18z M9.975,21H7.974v-0.293
			L8.681,20h0.587l0.707,0.707V21z M12.12,20.145c-0.093,0.094-0.146,0.221-0.146,0.354V21c-0.275,0-0.498,0.223-0.5,0.498
			C11.473,21.223,11.25,21,10.975,21h-0.001v-0.5c0-0.133-0.052-0.26-0.146-0.354L10.182,19.5l0.646-0.646
			c0.153-0.152,0.19-0.385,0.094-0.577l-0.429-0.858l0.417-2.5l0.612-1.205l0.467,0.934c0.008,0.083,0.022,0.164,0.043,0.242
			l0.422,2.53l-0.428,0.856c-0.096,0.192-0.058,0.425,0.094,0.577l0.646,0.646L12.12,20.145z M13.399,17l-0.171-1.025
			C13.309,15.989,13.39,16,13.475,16c0.259,0,0.499-0.072,0.712-0.188L14.385,17H13.399z M14.666,18l0.201,0.402l-0.599,0.599
			h-0.586l-0.599-0.599L13.284,18H14.666z M13.475,15c-0.206,0-0.383-0.125-0.46-0.304l-0.036-0.217
			C12.99,14.213,13.206,14,13.475,14c0.276,0,0.5,0.224,0.5,0.5S13.751,15,13.475,15z M12.478,13.387l-0.392-0.783l0.479-0.942
			l0.135-0.045l0.612,1.399C12.993,13.051,12.705,13.184,12.478,13.387z M14.975,21h-2.001v-0.293L13.681,20h0.587l0.707,0.707V21z
			 M16.121,20.146c-0.093,0.094-0.146,0.221-0.146,0.354V21h-0.001v-0.5c0-0.133-0.052-0.26-0.146-0.354L15.182,19.5l0.646-0.646
			c0.153-0.152,0.19-0.385,0.094-0.577l-0.468-0.936l-0.487-2.923c0-0.002-0.001-0.003-0.002-0.005
			c-0.018-0.315-0.133-0.602-0.317-0.836L13.653,11.3l0.902-0.3h1.801l1.513,0.756l-0.581,1.837
			c-0.177,0.231-0.286,0.512-0.304,0.82c0,0.002-0.001,0.003-0.002,0.005l-0.487,2.923l-0.468,0.936
			c-0.096,0.192-0.058,0.425,0.094,0.577l0.646,0.646L16.121,20.146z M18.97,14.479l-0.036,0.217C18.858,14.875,18.681,15,18.475,15
			c-0.276,0-0.5-0.224-0.5-0.5s0.224-0.5,0.5-0.5C18.743,14,18.959,14.213,18.97,14.479z M18.522,13.005l0.252-0.796l0.459,0.229
			l0.096,0.832C19.098,13.109,18.821,13.014,18.522,13.005z M18.867,18.402l-0.599,0.599h-0.586l-0.599-0.599L17.284,18h1.382
			L18.867,18.402z M18.475,16c0.084,0,0.166-0.011,0.247-0.025L18.551,17h-0.986l0.198-1.188C17.975,15.928,18.216,16,18.475,16z
			 M18.975,21h-2.001v-0.293L17.681,20h0.587l0.707,0.707V21z M19.724,20.042L19.182,19.5l0.542-0.542l0.542,0.542L19.724,20.042z
			 M19.494,17.419l0.23-1.382l0.231,1.384l-0.23,0.46L19.494,17.419z M19.975,10.5c0-0.276,0.224-0.5,0.5-0.5
			c0.163,0,0.3,0.083,0.392,0.203l0.049,0.521C20.833,10.886,20.669,11,20.475,11C20.199,11,19.975,10.776,19.975,10.5z
			 M20.188,11.994l0.021-0.021C20.295,11.989,20.383,12,20.475,12c0.195,0,0.38-0.04,0.552-0.108l0.106,1.124
			C21.08,13.01,21.029,13,20.975,13c-0.235,0-0.455,0.059-0.653,0.156L20.188,11.994z M20.975,15c-0.21,0-0.388-0.13-0.462-0.313
			l-0.034-0.205C20.488,14.215,20.705,14,20.975,14c0.276,0,0.5,0.224,0.5,0.5S21.251,15,20.975,15z M21.686,15.812L21.884,17
			h-0.986l-0.171-1.025C20.808,15.989,20.89,16,20.975,16C21.233,16,21.473,15.928,21.686,15.812z M22.475,20.707V21h-2.001v-0.293
			L21.181,20h0.587L22.475,20.707z M22.166,18l0.201,0.402l-0.599,0.599h-0.586l-0.599-0.599L20.784,18H22.166z M21.882,10
			c-0.023-0.065-0.051-0.126-0.082-0.186c-0.009-0.021-0.02-0.04-0.032-0.059C21.509,9.306,21.029,9,20.475,9
			c-0.827,0-1.5,0.673-1.5,1.5c0,0.177,0.036,0.344,0.093,0.502l0.029,0.25l-2.399-1.199C16.628,10.018,16.552,10,16.474,10h-2
			c-0.054,0-0.107,0.009-0.158,0.026l-1.344,0.448C12.958,9.659,12.293,9,11.475,9c-0.331,0-0.634,0.111-0.882,0.293L10.396,9
			h12.079c0.004,0,0.008-0.002,0.013-0.003L22.124,10H21.882z"/>
	</g>
</g>
</svg>
