<?xml version="1.0" encoding="iso-8859-1"?>
<!-- Generator: Adobe Illustrator 19.0.0, SVG Export Plug-In . SVG Version: 6.00 Build 0)  -->
<svg version="1.1" id="Layer_1" xmlns="http://www.w3.org/2000/svg" xmlns:xlink="http://www.w3.org/1999/xlink" x="0px" y="0px"
	 viewBox="0 0 24 24" style="enable-background:new 0 0 24 24;" xml:space="preserve">
<g>
	<g>
		<path d="M17.973,2.181c-0.184-0.114-0.419-0.094-0.584,0.046c-0.165,0.14-0.221,0.37-0.139,0.57C17.903,4.395,19,7.456,19,9.995
			c0,2.053-0.521,4.5-3,4.5c-1.542,0-2.5-1.724-2.5-4.5c0-2.977,1.684-4.027,1.754-4.068c0.227-0.134,0.313-0.42,0.195-0.656l-0.5-1
			c-0.064-0.129-0.18-0.223-0.319-0.26c-0.139-0.036-0.286-0.013-0.406,0.067l-1.029,0.686L13.078,4.53l0.839-1.259
			c0.118-0.176,0.111-0.408-0.016-0.577l-1.5-2c-0.189-0.252-0.612-0.252-0.8,0l-1.5,2c-0.127,0.169-0.134,0.401-0.016,0.577
			l0.839,1.259l-0.117,0.234L9.778,4.078c-0.121-0.08-0.267-0.104-0.406-0.067s-0.255,0.132-0.319,0.26l-0.5,1
			C8.436,5.505,8.521,5.79,8.745,5.925C8.816,5.968,10.5,7.018,10.5,9.995c0,2.776-0.958,4.5-2.5,4.5c-2.479,0-3-2.447-3-4.5
			c0-2.539,1.096-5.6,1.75-7.198c0.081-0.2,0.026-0.43-0.139-0.57c-0.164-0.14-0.4-0.159-0.584-0.046
			C2.566,4.292,0.5,7.96,0.5,11.995c0,6.341,5.159,11.5,11.5,11.5s11.5-5.159,11.5-11.5C23.5,7.96,21.434,4.292,17.973,2.181z
			 M12,1.828l0.888,1.184l-0.804,1.206C12.028,4.301,12,4.397,12,4.494c0-0.096-0.028-0.193-0.084-0.276l-0.804-1.206L12,1.828z
			 M12,22.495c-5.79,0-10.5-4.71-10.5-10.5c0-3.138,1.37-6.034,3.73-8.014C4.583,5.819,4,8.022,3.998,9.995c0,4.786,2.506,5.5,4,5.5
			c1.692,0,3.5-1.445,3.5-5.5c0-2.696-1.223-4.098-1.866-4.649l0.06-0.121l1.029,0.686c0.119,0.079,0.266,0.104,0.406,0.067
			c0.139-0.037,0.255-0.132,0.319-0.26l0.5-1c0.035-0.071,0.053-0.147,0.053-0.223c0,0.076,0.018,0.152,0.053,0.223l0.5,1
			c0.064,0.129,0.18,0.223,0.319,0.26c0.14,0.038,0.286,0.013,0.406-0.067l1.029-0.686l0.06,0.121
			C13.723,5.896,12.5,7.299,12.5,9.995c0,4.055,1.808,5.5,3.5,5.5c1.494,0,4-0.714,4-5.5c0-1.972-0.583-4.176-1.23-6.014
			c2.36,1.98,3.73,4.876,3.73,8.014C22.5,17.785,17.79,22.495,12,22.495z"/>
	</g>
</g>
</svg>
