<?xml version="1.0" encoding="iso-8859-1"?>
<!-- Generator: Adobe Illustrator 19.0.0, SVG Export Plug-In . SVG Version: 6.00 Build 0)  -->
<svg version="1.1" id="Layer_1" xmlns="http://www.w3.org/2000/svg" xmlns:xlink="http://www.w3.org/1999/xlink" x="0px" y="0px"
	 viewBox="0 0 24 24" style="enable-background:new 0 0 24 24;" xml:space="preserve">
<g>
	<g>
		<path d="M23.433,10.776c-0.009-0.083-0.027-0.165-0.038-0.248c-0.042-0.329-0.093-0.654-0.163-0.974
			c-0.015-0.067-0.035-0.132-0.051-0.198c-0.081-0.344-0.176-0.681-0.287-1.012c-0.015-0.045-0.033-0.089-0.049-0.134
			c-0.123-0.352-0.263-0.695-0.418-1.03c-0.009-0.019-0.015-0.039-0.024-0.058c-0.003-0.006-0.009-0.01-0.012-0.016
			c-0.274-0.579-0.588-1.134-0.951-1.655c-0.004-0.006-0.004-0.014-0.008-0.02c-0.046-0.066-0.1-0.123-0.147-0.188
			c-0.176-0.241-0.357-0.477-0.551-0.704c-0.095-0.112-0.196-0.217-0.295-0.325c-0.168-0.182-0.339-0.359-0.518-0.53
			c-0.12-0.114-0.242-0.224-0.365-0.332c-0.175-0.153-0.354-0.299-0.538-0.442c-0.131-0.101-0.261-0.201-0.396-0.296
			c-0.2-0.141-0.406-0.273-0.615-0.401c-0.124-0.076-0.246-0.156-0.373-0.227c-0.263-0.148-0.534-0.282-0.808-0.409
			c-0.079-0.037-0.155-0.079-0.236-0.114c-1.121-0.49-2.334-0.803-3.606-0.911c-0.002,0-0.004-0.001-0.006-0.001
			c-0.001,0-0.002,0.001-0.003,0C12.651,0.521,12.329,0.5,12.001,0.5s-0.65,0.022-0.971,0.049c-0.001,0-0.002-0.001-0.003,0
			c-0.002,0-0.004,0.001-0.006,0.001C9.749,0.658,8.536,0.971,7.415,1.461c-0.08,0.035-0.156,0.077-0.236,0.114
			C6.904,1.703,6.633,1.836,6.371,1.984C6.244,2.055,6.122,2.135,5.998,2.211c-0.209,0.129-0.415,0.26-0.615,0.401
			C5.248,2.706,5.117,2.807,4.987,2.908C4.803,3.049,4.624,3.197,4.449,3.349C4.325,3.458,4.203,3.568,4.084,3.682
			c-0.179,0.171-0.35,0.348-0.518,0.53c-0.099,0.108-0.2,0.213-0.295,0.325C3.077,4.763,2.896,5,2.72,5.24
			C2.673,5.305,2.619,5.362,2.573,5.429c-0.004,0.006-0.004,0.014-0.008,0.02C2.202,5.969,1.888,6.524,1.614,7.104
			C1.611,7.109,1.605,7.114,1.602,7.12C1.593,7.138,1.587,7.159,1.578,7.177c-0.156,0.336-0.295,0.68-0.419,1.032
			C1.143,8.253,1.126,8.297,1.111,8.341c-0.112,0.331-0.206,0.67-0.288,1.013C0.807,9.421,0.787,9.485,0.772,9.552
			c-0.07,0.321-0.121,0.648-0.164,0.978c-0.011,0.082-0.029,0.162-0.037,0.244c-0.046,0.402-0.07,0.811-0.07,1.225
			s0.024,0.823,0.067,1.226c0.009,0.082,0.027,0.162,0.037,0.244c0.042,0.33,0.094,0.657,0.164,0.978
			c0.015,0.066,0.035,0.132,0.051,0.198c0.081,0.344,0.176,0.682,0.288,1.013c0.015,0.044,0.033,0.088,0.048,0.132
			c0.123,0.352,0.263,0.696,0.419,1.032c0.009,0.019,0.015,0.039,0.024,0.058c0.003,0.006,0.009,0.01,0.012,0.016
			c0.274,0.579,0.588,1.134,0.951,1.655c0.004,0.006,0.004,0.014,0.008,0.02c0.046,0.066,0.1,0.123,0.147,0.188
			C2.893,19,3.074,19.237,3.268,19.464c0.095,0.112,0.196,0.217,0.295,0.325c0.168,0.182,0.339,0.359,0.517,0.529
			c0.12,0.114,0.242,0.225,0.367,0.333c0.174,0.152,0.352,0.298,0.535,0.439c0.132,0.102,0.263,0.203,0.399,0.299
			c0.199,0.14,0.404,0.271,0.611,0.399c0.125,0.077,0.249,0.157,0.377,0.229c0.261,0.147,0.531,0.28,0.804,0.407
			c0.081,0.037,0.159,0.08,0.24,0.116c1.121,0.49,2.334,0.802,3.605,0.911c0.002,0,0.004,0.001,0.006,0.001
			c0.014,0.001,0.028,0.002,0.042,0.002c0.001,0,0.001,0,0.002,0c0.308,0.025,0.617,0.047,0.931,0.047
			c0.314,0,0.623-0.022,0.931-0.047c0.001,0,0.001,0,0.002,0c0.014,0,0.028,0,0.042-0.002c0.002,0,0.004-0.001,0.006-0.001
			c1.272-0.108,2.485-0.421,3.605-0.911c0.082-0.036,0.159-0.078,0.24-0.116c0.273-0.127,0.543-0.26,0.804-0.407
			c0.128-0.072,0.251-0.152,0.377-0.229c0.208-0.128,0.413-0.258,0.611-0.399c0.136-0.096,0.267-0.197,0.399-0.299
			c0.183-0.142,0.361-0.287,0.535-0.439c0.124-0.109,0.247-0.219,0.367-0.333c0.179-0.17,0.35-0.348,0.517-0.529
			c0.099-0.108,0.2-0.213,0.295-0.325c0.194-0.226,0.375-0.463,0.551-0.704c0.047-0.065,0.101-0.122,0.147-0.188
			c0.004-0.006,0.004-0.014,0.008-0.02c0.363-0.521,0.677-1.076,0.951-1.655c0.007-0.007,0.013-0.01,0.016-0.017
			c0.009-0.019,0.015-0.039,0.024-0.058c0.156-0.335,0.295-0.679,0.418-1.03c0.016-0.045,0.034-0.089,0.049-0.134
			c0.111-0.331,0.206-0.669,0.287-1.012c0.016-0.066,0.036-0.132,0.051-0.198c0.07-0.32,0.121-0.645,0.163-0.974
			c0.011-0.083,0.029-0.165,0.038-0.248C23.476,12.823,23.5,12.414,23.5,12S23.476,11.179,23.433,10.776z M2.247,15.862
			c0-0.001-0.001-0.003-0.001-0.004c-0.121-0.3-0.225-0.605-0.317-0.912c-0.016-0.054-0.027-0.11-0.042-0.165
			c-0.072-0.257-0.137-0.516-0.189-0.777C1.67,13.859,1.653,13.71,1.63,13.562c-0.027-0.18-0.06-0.358-0.078-0.539
			C1.52,12.687,1.501,12.346,1.501,12s0.019-0.687,0.052-1.024c0.018-0.181,0.05-0.36,0.078-0.539
			c0.022-0.147,0.039-0.297,0.068-0.442c0.052-0.261,0.117-0.519,0.189-0.777c0.015-0.055,0.027-0.11,0.042-0.165
			C2.021,8.745,2.126,8.44,2.246,8.14c0-0.001,0.001-0.003,0.001-0.004c0.766,0.806,1.254,2.267,1.254,3.863
			C3.501,13.594,3.013,15.055,2.247,15.862z M3.827,5.424c0.121-0.151,0.251-0.292,0.38-0.435C4.305,4.88,4.401,4.768,4.504,4.664
			C4.622,4.543,4.748,4.43,4.872,4.315c0.123-0.114,0.243-0.229,0.371-0.337c0.123-0.104,0.251-0.199,0.378-0.297
			c0.136-0.104,0.27-0.21,0.411-0.308C6.171,3.276,6.316,3.188,6.46,3.098c0.134-0.084,0.267-0.169,0.405-0.247
			C7.031,2.758,7.201,2.674,7.371,2.59c0.121-0.06,0.242-0.121,0.366-0.177c0.196-0.087,0.396-0.165,0.597-0.24
			c0.104-0.039,0.207-0.079,0.312-0.114c0.223-0.075,0.45-0.141,0.679-0.201C9.414,1.833,9.503,1.81,9.593,1.789
			c0.242-0.057,0.487-0.104,0.734-0.143c0.047-0.008,0.094-0.015,0.141-0.021C10.152,2.69,9.133,3.841,7.752,4.639
			C6.371,5.437,4.864,5.742,3.784,5.484C3.798,5.464,3.812,5.443,3.827,5.424z M10.326,22.353c-0.247-0.04-0.492-0.086-0.734-0.143
			c-0.091-0.021-0.18-0.046-0.27-0.07c-0.228-0.06-0.454-0.125-0.677-0.2c-0.106-0.036-0.211-0.076-0.316-0.116
			c-0.2-0.074-0.398-0.152-0.592-0.238c-0.127-0.057-0.25-0.119-0.374-0.18c-0.168-0.083-0.335-0.166-0.498-0.257
			c-0.142-0.08-0.278-0.167-0.416-0.253c-0.14-0.088-0.281-0.174-0.417-0.268c-0.145-0.101-0.284-0.209-0.423-0.317
			c-0.123-0.095-0.247-0.187-0.366-0.287c-0.133-0.112-0.258-0.232-0.385-0.35c-0.119-0.111-0.24-0.219-0.354-0.336
			c-0.108-0.11-0.209-0.228-0.312-0.343c-0.123-0.138-0.248-0.273-0.365-0.418c-0.016-0.02-0.031-0.042-0.047-0.063
			c1.082-0.259,2.588,0.047,3.968,0.845c1.381,0.797,2.4,1.949,2.716,3.014C10.42,22.367,10.373,22.361,10.326,22.353z
			 M12.877,15.375c-0.221,0.057-0.375,0.256-0.375,0.484v1.64h-1v-1.642c-0.001-0.228-0.155-0.426-0.376-0.483
			c-0.625-0.162-1.186-0.481-1.62-0.924c-0.16-0.163-0.41-0.196-0.607-0.083l-1.412,0.815l-0.5-0.866l1.424-0.822
			c0.197-0.114,0.292-0.347,0.232-0.566C8.546,12.578,8.501,12.281,8.501,12s0.045-0.578,0.143-0.929
			c0.061-0.22-0.035-0.453-0.232-0.566L6.988,9.682l0.5-0.866L8.9,9.632c0.197,0.114,0.447,0.08,0.607-0.083
			c0.434-0.442,0.994-0.762,1.62-0.924c0.221-0.057,0.375-0.256,0.375-0.484V6.5h1v1.642c0,0.228,0.154,0.427,0.375,0.484
			c0.625,0.162,1.186,0.481,1.62,0.924c0.16,0.163,0.41,0.197,0.607,0.083l1.412-0.815l0.5,0.866l-1.424,0.822
			c-0.197,0.114-0.292,0.347-0.232,0.566c0.097,0.351,0.143,0.646,0.143,0.929c0,0.283-0.045,0.578-0.143,0.929
			c-0.061,0.22,0.035,0.453,0.232,0.566l1.424,0.822l-0.5,0.866l-1.412-0.815c-0.197-0.113-0.447-0.08-0.607,0.083
			C14.063,14.893,13.503,15.214,12.877,15.375z M20.172,18.578c-0.117,0.145-0.241,0.281-0.365,0.418
			c-0.103,0.115-0.204,0.233-0.312,0.343c-0.114,0.116-0.234,0.224-0.353,0.335c-0.127,0.118-0.253,0.239-0.386,0.351
			c-0.119,0.1-0.243,0.192-0.365,0.286c-0.14,0.108-0.278,0.216-0.424,0.317c-0.136,0.094-0.277,0.18-0.417,0.268
			c-0.137,0.086-0.274,0.173-0.416,0.253c-0.163,0.091-0.33,0.174-0.498,0.257c-0.124,0.061-0.247,0.124-0.374,0.18
			c-0.194,0.086-0.392,0.163-0.591,0.238c-0.105,0.039-0.21,0.08-0.316,0.116c-0.222,0.075-0.448,0.14-0.676,0.2
			c-0.09,0.024-0.179,0.048-0.27,0.07c-0.242,0.057-0.487,0.104-0.734,0.143c-0.047,0.008-0.094,0.015-0.141,0.021
			c0.316-1.065,1.335-2.216,2.716-3.014c1.06-0.612,2.194-0.936,3.153-0.936c0.29,0,0.564,0.03,0.815,0.091
			C20.203,18.536,20.189,18.559,20.172,18.578z M16.252,4.64c-1.381-0.797-2.4-1.949-2.716-3.014
			c0.046,0.006,0.093,0.013,0.14,0.021c0.247,0.04,0.492,0.086,0.734,0.143c0.09,0.021,0.179,0.046,0.268,0.069
			c0.229,0.06,0.456,0.126,0.679,0.201c0.105,0.036,0.208,0.075,0.312,0.114c0.201,0.075,0.401,0.153,0.597,0.24
			c0.124,0.055,0.245,0.117,0.366,0.177c0.17,0.084,0.34,0.168,0.506,0.261c0.139,0.078,0.273,0.164,0.407,0.248
			c0.143,0.089,0.287,0.177,0.425,0.273c0.142,0.099,0.278,0.205,0.415,0.311c0.126,0.096,0.253,0.191,0.374,0.293
			c0.13,0.11,0.253,0.228,0.378,0.343c0.121,0.113,0.244,0.223,0.36,0.342C19.604,4.771,19.703,4.887,19.805,5
			c0.124,0.139,0.25,0.276,0.368,0.422c0.016,0.02,0.031,0.042,0.047,0.062C19.137,5.744,17.633,5.438,16.252,4.64z M22.449,13.023
			c-0.018,0.181-0.05,0.36-0.078,0.539c-0.022,0.147-0.039,0.297-0.068,0.442c-0.052,0.261-0.117,0.519-0.189,0.777
			c-0.015,0.055-0.027,0.11-0.042,0.165c-0.091,0.307-0.196,0.612-0.316,0.913c0,0.001-0.001,0.003-0.001,0.004
			c-0.766-0.807-1.254-2.268-1.254-3.864s0.488-3.057,1.254-3.863c0,0.001,0.001,0.003,0.001,0.004
			c0.12,0.301,0.225,0.606,0.316,0.913c0.016,0.054,0.027,0.11,0.042,0.165c0.072,0.257,0.137,0.516,0.189,0.777
			c0.028,0.145,0.045,0.294,0.068,0.442c0.027,0.18,0.06,0.358,0.078,0.539c0.033,0.337,0.052,0.678,0.052,1.024
			C22.501,12.346,22.482,12.687,22.449,13.023z"/>
	</g>
</g>
</svg>
