<?xml version="1.0" encoding="iso-8859-1"?>
<!-- Generator: Adobe Illustrator 19.0.0, SVG Export Plug-In . SVG Version: 6.00 Build 0)  -->
<svg version="1.1" id="Layer_1" xmlns="http://www.w3.org/2000/svg" xmlns:xlink="http://www.w3.org/1999/xlink" x="0px" y="0px"
	 viewBox="0 0 24 24" style="enable-background:new 0 0 24 24;" xml:space="preserve">
<g>
	<g>
		<path d="M2.093,13.999c0.047,0.131,0.108,0.257,0.189,0.368c0.002,0.003,0.005,0.006,0.008,0.009
			c0.087,0.118,0.19,0.223,0.307,0.311c0.002,0.002,0.004,0.004,0.006,0.005c0.12,0.09,0.254,0.163,0.399,0.214
			c0.157,0.056,0.324,0.092,0.5,0.092h0.5v-8h-0.5c-0.827,0-1.5,0.673-1.5,1.5v5c0,0.147,0.028,0.286,0.067,0.42
			C2.076,13.947,2.084,13.973,2.093,13.999z M4.001,19.5V18h-0.5c-0.176,0-0.343,0.036-0.5,0.092
			c-0.144,0.051-0.278,0.124-0.399,0.214C2.6,18.308,2.598,18.31,2.596,18.311c-0.117,0.088-0.22,0.194-0.307,0.311
			c-0.002,0.003-0.005,0.006-0.008,0.009c-0.08,0.111-0.141,0.237-0.189,0.368c-0.009,0.026-0.017,0.052-0.025,0.079
			C2.027,19.212,2,19.351,2,19.498v1.793l-1.854,1.854c-0.143,0.143-0.186,0.358-0.108,0.545c0.077,0.187,0.26,0.309,0.462,0.309h4
			c0.827,0,1.5-0.673,1.5-1.5v-0.551C4.861,21.717,4.001,20.707,4.001,19.5z M3.001,15.949v1.101C3.163,17.018,3.33,17,3.501,17h0.5
			v-1h-0.5C3.33,16,3.163,15.982,3.001,15.949z M20.501,15c0.176,0,0.343-0.036,0.5-0.092c0.144-0.051,0.278-0.124,0.399-0.214
			c0.002-0.002,0.004-0.004,0.006-0.005c0.117-0.088,0.22-0.194,0.307-0.311c0.002-0.003,0.005-0.006,0.008-0.009
			c0.08-0.111,0.141-0.237,0.189-0.368c0.009-0.026,0.017-0.052,0.025-0.079c0.04-0.134,0.067-0.273,0.067-0.42v-5
			c0-0.827-0.673-1.5-1.5-1.5h-0.5v8h0.499V15z M9.002,3.499v2c0,0.276-0.224,0.5-0.5,0.5h3.5c-1.103,0-2-0.897-2-2
			c0-1.103,0.897-2,2-2c1.103,0,2,0.897,2,2c0,1.103-0.897,2-2,2h3.5c-0.276,0-0.5-0.224-0.5-0.5s0.224-0.5,0.5-0.5
			s0.5,0.224,0.5,0.5s-0.224,0.5-0.5,0.5h3.42c-0.005-0.029-0.009-0.058-0.013-0.088c-0.041-0.247-0.091-0.492-0.156-0.731
			c-0.009-0.035-0.017-0.07-0.027-0.104C18.617,4.702,18.469,4.346,18.304,4h-2.802c-0.276,0-0.5-0.224-0.5-0.5s0.224-0.5,0.5-0.5
			h2.5V0.5c0-0.276-0.224-0.5-0.5-0.5s-0.5,0.224-0.5,0.5v1.61c-0.038-0.039-0.08-0.073-0.119-0.11h-3.381
			c-0.276,0-0.5-0.224-0.5-0.5s0.224-0.5,0.5-0.5h2.082c-0.253-0.152-0.513-0.294-0.785-0.413c-0.014-0.006-0.028-0.014-0.042-0.021
			c-0.185-0.08-0.375-0.148-0.567-0.212c-0.029-0.01-0.056-0.022-0.085-0.031c-0.18-0.057-0.366-0.102-0.552-0.145
			c-0.043-0.01-0.084-0.024-0.127-0.033c-0.181-0.038-0.366-0.063-0.552-0.086c-0.051-0.006-0.1-0.018-0.151-0.023
			c-0.237-0.024-0.478-0.037-0.721-0.037c-1.309,0-2.527,0.372-3.575,1h2.075c0.276,0,0.5,0.224,0.5,0.5s-0.224,0.5-0.5,0.5H7.13
			c-0.316,0.308-0.611,0.638-0.864,1h2.236C8.778,2.999,9.002,3.223,9.002,3.499z M20.501,17c0.171,0,0.338,0.018,0.5,0.051V15.95
			c-0.162,0.033-0.329,0.051-0.5,0.051h-0.5v1L20.501,17L20.501,17z M12.001,3c-0.552,0-1,0.448-1,1s0.448,1,1,1s1-0.448,1-1
			S12.553,3,12.001,3z M8.001,4H5.686c-0.153,0.322-0.287,0.654-0.39,1h2.705V4z M14.001,18h1v-1h-1V18z M19.001,19.5V7h-14v12.5
			c0,0.651,0.419,1.201,1,1.408C6.158,20.964,6.325,21,6.501,21h11c0.176,0,0.343-0.036,0.5-0.092
			C18.582,20.701,19.001,20.151,19.001,19.5z M16.001,18.5c0,0.276-0.224,0.5-0.5,0.5h-7c-0.276,0-0.5-0.224-0.5-0.5v-4
			c0-0.276,0.224-0.5,0.5-0.5h7c0.276,0,0.5,0.224,0.5,0.5V18.5z M15.501,12h-7c-0.276,0-0.5-0.224-0.5-0.5s0.224-0.5,0.5-0.5h7
			c0.276,0,0.5,0.224,0.5,0.5S15.777,12,15.501,12z M15.501,10h-7c-0.276,0-0.5-0.224-0.5-0.5S8.225,9,8.501,9h7
			c0.276,0,0.5,0.224,0.5,0.5S15.777,10,15.501,10z M15.001,22.293V22h-6v0.293l-0.854,0.854c-0.143,0.143-0.186,0.358-0.108,0.545
			c0.077,0.187,0.26,0.309,0.462,0.309h7c0.202,0,0.385-0.122,0.462-0.309c0.078-0.187,0.035-0.402-0.108-0.545L15.001,22.293z
			 M23.855,23.146l-1.854-1.854v-1.793c0-0.147-0.028-0.286-0.067-0.42c-0.008-0.026-0.015-0.053-0.025-0.079
			c-0.047-0.131-0.108-0.257-0.189-0.368c-0.002-0.003-0.005-0.006-0.008-0.009c-0.087-0.118-0.19-0.223-0.307-0.311
			c-0.002-0.002-0.004-0.004-0.006-0.005c-0.12-0.09-0.254-0.163-0.399-0.214c-0.157-0.056-0.324-0.092-0.5-0.092H20v1.5
			c0,1.207-0.86,2.217-2,2.449v0.551c0,0.827,0.673,1.5,1.5,1.5h4c0.202,0,0.385-0.122,0.462-0.309
			C24.041,23.504,23.998,23.29,23.855,23.146z M14.001,16h1v-1h-1V16z M9.001,18h1v-1h-1V18z M9.001,16h1v-1h-1V16z M11.001,18h2v-1
			h-2V18z M11.001,16h2v-1h-2V16z"/>
	</g>
</g>
</svg>
