<?xml version="1.0" encoding="utf-8"?>
<!-- Generator: Adobe Illustrator 19.0.0, SVG Export Plug-In . SVG Version: 6.00 Build 0)  -->
<svg version="1.1" id="Layer_1" xmlns="http://www.w3.org/2000/svg" xmlns:xlink="http://www.w3.org/1999/xlink" x="0px" y="0px"
	 viewBox="0 0 30 30" style="enable-background:new 0 0 30 30;" xml:space="preserve">
<path d="M26.6,14.3c1.2-0.7,2.4-1.9,2.4-3.8c0-0.9-0.4-1.6-1.2-2.2c-1.2-0.9-3.1-1.1-4.6-1C23.9,6.1,24,5,24,4c0-1.5-0.9-4-4.5-4
	c-2.6,0-4.4,1.6-5.1,3.5C13.7,2.2,12.4,1,10.5,1c-1,0-1.8,0.4-2.4,1.3C7.3,3.4,6.9,5.2,7,6.6C5.9,6.1,4.9,6,4,6c-1.5,0-4,0.9-4,4.5
	c0,2.6,1.6,4.4,3.5,5.1C2.3,16.3,1,17.6,1,19.5C1,21.8,3.3,23,5.6,23c0.4,0,0.7,0,1-0.1C6.1,23.7,6,24.5,6,25.5
	c0,1.8,1.2,4.5,4.5,4.5c2.7,0,4.6-1.7,5.2-3.8c0.2,0.3,0.4,0.6,0.7,0.8c0.7,0.6,1.6,1,2.6,1c0.2,0,0.4,0,0.5,0
	c2.3-0.3,3.3-2.4,3.5-4.5c0.8,0.4,1.5,0.6,2.5,0.6c1.6,0,4.5-1.5,4.5-5C30,16.4,28.5,14.9,26.6,14.3z M27.2,9.1
	c0.5,0.4,0.8,0.8,0.8,1.4c0,2.4-2.7,3.5-3.5,3.5c-2.2,0-3.5,0.1-5.6,0.4c-0.1-0.8-0.4-1.4-0.9-2c0.8-0.8,3.1-2.9,4.2-4
	C23.5,8.1,26,8.2,27.2,9.1z M15,18c-1.7,0-3-1.3-3-3s1.3-3,3-3s3,1.3,3,3S16.7,18,15,18z M19.5,1C22.8,1,23,3.5,23,4
	c0,1.2-0.1,2.4-1.4,3.6c-1.1,1.1-3.5,3.3-4.3,4.1c-0.5-0.4-1.2-0.6-1.9-0.7C15.1,9,15,7.7,15,5.5C15,3.3,16.7,1,19.5,1z M8.9,2.9
	C9.3,2.3,9.9,2,10.5,2C12.9,2,14,4.7,14,5.5c0,2.2,0.1,3.5,0.4,5.6c-0.7,0.1-1.3,0.4-1.9,0.8L8.4,7.6C8.3,7.6,8.2,7.5,8.1,7.5
	C7.8,6.4,8,4.2,8.9,2.9z M1,10.5C1,7.2,3.5,7,4,7c1.2,0,2.4,0.1,3.6,1.4l4.2,4.2c-0.4,0.6-0.7,1.3-0.8,2C8.9,14.9,7.7,15,5.5,15
	C3.3,15,1,13.3,1,10.5z M10.5,29C7.7,29,7,26.7,7,25.5c0-1.2,0.1-1.9,1.4-3.1l4-4l0.2-0.2c0.6,0.4,1.3,0.7,2,0.8
	c0.3,2.1,0.4,3.3,0.4,5.5C15,26.7,13.3,29,10.5,29z M19.4,27c-0.9,0.1-1.7-0.1-2.3-0.7c-0.8-0.7-1.1-1.6-1.1-2.1c0,0,0,0,0,0
	c0-2-0.1-3.3-0.4-5.3c0.7-0.1,1.3-0.4,1.9-0.8l4.2,4.2c0.1,0.1,0.2,0.2,0.4,0.3C22.1,24.2,21.7,26.7,19.4,27z M25.5,23
	c-1.2,0-1.9-0.1-3.1-1.4l-4.2-4.2c0.4-0.6,0.7-1.3,0.8-2c2.1-0.3,3.3-0.4,5.5-0.4c2.1,0,4.5,1,4.5,4C29,21.8,26.7,23,25.5,23z"/>
</svg>
