<?xml version="1.0" encoding="utf-8"?>
<!-- Generator: Adobe Illustrator 19.0.0, SVG Export Plug-In . SVG Version: 6.00 Build 0)  -->
<svg version="1.1" id="Layer_1" xmlns="http://www.w3.org/2000/svg" xmlns:xlink="http://www.w3.org/1999/xlink" x="0px" y="0px"
	 viewBox="0 0 30 30" style="enable-background:new 0 0 30 30;" xml:space="preserve">
<g>
	<path d="M26,11c-0.3,0-0.7,0.1-1.1,0.2c-0.2,0.1-0.3,0.2-0.4,0.4c0,0.2,0,0.4,0.2,0.5c1.5,1.2,2.6,2.7,3,4.2c0,0.2,0.2,0.3,0.3,0.3
		c0.1,0,0.1,0,0.2,0c0.1,0,0.2,0,0.3-0.1c0.9-0.7,1.4-1.7,1.4-2.5C30,12.3,28.3,11,26,11z"/>
	<path d="M5.1,12c0.1-0.1,0.2-0.3,0.2-0.5S5.1,11.2,5,11.1C4.6,11,4.3,11,4,11c-2.4,0-4,1.3-4,3.3c0,0.8,0.5,1.7,1.4,2.4
		c0.1,0.1,0.2,0.1,0.3,0.1c0.1,0,0.1,0,0.2,0c0.2-0.1,0.3-0.2,0.3-0.4C2.6,14.7,3.6,13.2,5.1,12z"/>
	<path d="M15,10c0-1.4,0.3-2.7,1.2-3.4c0.9-0.7,2.6-0.8,4.9-0.2C21,6.6,21,6.8,21,7c0,1.7,1.3,3,3,3s3-1.3,3-3s-1.3-3-3-3
		c-1.1,0-2,0.6-2.6,1.5c-2.7-0.7-4.6-0.6-5.8,0.4C14.3,6.8,14,8.5,14,10c-6.3,0.3-11,3.6-11,8c0,4.6,5.1,8,11.9,8
		c6.8,0,12.1-3.5,12.1-8C27,13.5,21.7,10.1,15,10z M19.5,15c0.8,0,1.5,0.7,1.5,1.5S20.3,18,19.5,18S18,17.3,18,16.5S18.7,15,19.5,15
		z M10.5,15c0.8,0,1.5,0.7,1.5,1.5S11.3,18,10.5,18S9,17.3,9,16.5S9.7,15,10.5,15z M20.7,22.5l-0.4,0.2C18.9,23.2,17.1,24,15,24
		c-2.1,0-3.9-0.8-5.3-1.4l-0.4-0.2c-0.3-0.1-0.4-0.4-0.3-0.7s0.4-0.4,0.7-0.3l0.4,0.2c1.4,0.6,3,1.3,4.9,1.3c1.9,0,3.5-0.7,4.9-1.3
		l0.4-0.2c0.3-0.1,0.5,0,0.7,0.3C21.1,22.1,20.9,22.4,20.7,22.5z"/>
</g>
</svg>
