<?xml version="1.0" encoding="utf-8"?>
<!-- Generator: Adobe Illustrator 19.0.0, SVG Export Plug-In . SVG Version: 6.00 Build 0)  -->
<svg version="1.1" id="Layer_1" xmlns="http://www.w3.org/2000/svg" xmlns:xlink="http://www.w3.org/1999/xlink" x="0px" y="0px"
	 viewBox="0 0 30 30" style="enable-background:new 0 0 30 30;" xml:space="preserve">
<g>
	<path d="M2.5,16C2.2,16,2,16.2,2,16.5v5C2,21.8,2.2,22,2.5,22S3,21.8,3,21.5v-5C3,16.2,2.8,16,2.5,16z"/>
	<path d="M5.5,12C5.2,12,5,12.2,5,12.5v10C5,22.8,5.2,23,5.5,23S6,22.8,6,22.5v-10C6,12.2,5.8,12,5.5,12z"/>
	<path d="M8.5,13C8.2,13,8,13.2,8,13.5v9C8,22.8,8.2,23,8.5,23S9,22.8,9,22.5v-9C9,13.2,8.8,13,8.5,13z"/>
	<path d="M11.5,8C11.2,8,11,8.2,11,8.5v14c0,0.3,0.2,0.5,0.5,0.5s0.5-0.2,0.5-0.5v-14C12,8.2,11.8,8,11.5,8z"/>
	<path d="M24,15c-0.5,0-1,0.1-1.5,0.3c0,0,0,0,0,0c0-4.5-3.7-8.3-8-8.3C14.2,7,14,7.2,14,7.5v15c0,0.3,0.2,0.5,0.5,0.5h10
		c0,0,0,0,0.1,0c2-0.3,3.4-2,3.4-4C28,16.8,26.2,15,24,15z"/>
</g>
</svg>
