<?xml version="1.0" encoding="utf-8"?>
<!-- Generator: Adobe Illustrator 19.0.0, SVG Export Plug-In . SVG Version: 6.00 Build 0)  -->
<svg version="1.1" id="Layer_1" xmlns="http://www.w3.org/2000/svg" xmlns:xlink="http://www.w3.org/1999/xlink" x="0px" y="0px"
	 viewBox="0 0 30 30" style="enable-background:new 0 0 30 30;" xml:space="preserve">
<path d="M20.3,0H9.5C4.3,0,0,4.3,0,9.5v10.8C0,25.5,4.4,30,9.5,30h18c1.4,0,2.5-1.1,2.5-2.5v-18C30,4.4,25.5,0,20.3,0z M12.8,17.5
	L10.3,24c-0.3,0.6-0.9,1-1.6,1c-0.3,0-0.5-0.1-0.8-0.2c-0.9-0.4-1.2-1.5-0.8-2.3L9.7,16c0.4-0.9,1.5-1.3,2.4-0.8
	C12.9,15.6,13.2,16.7,12.8,17.5z M11.5,13C10.1,13,9,11.9,9,10.5S10.1,8,11.5,8S14,9.1,14,10.5S12.9,13,11.5,13z M20.3,23.4
	c-0.4,0.6-1,0.9-1.6,0.9c-0.3,0-0.5-0.1-0.7-0.2c-0.5-0.2-0.8-0.7-0.9-1.1c-0.1-0.4-0.1-0.9,0.2-1.3C18,20.6,19,17.5,19,15
	c0-2.3-0.9-5.1-1.8-6.4c-0.2-0.4-0.3-0.8-0.2-1.3c0.1-0.5,0.5-0.9,0.9-1.1c0.8-0.4,1.7-0.1,2.3,0.7C21,7.9,23,11.7,23,15
	C23,18.2,21.1,22.3,20.3,23.4z"/>
</svg>
