<?xml version="1.0" encoding="utf-8"?>
<!-- Generator: Adobe Illustrator 19.0.0, SVG Export Plug-In . SVG Version: 6.00 Build 0)  -->
<svg version="1.1" id="Layer_1" xmlns="http://www.w3.org/2000/svg" xmlns:xlink="http://www.w3.org/1999/xlink" x="0px" y="0px"
	 viewBox="0 0 30 30" style="enable-background:new 0 0 30 30;" xml:space="preserve">
<path d="M27.3,14c-0.7,0.3-1.3,0.4-1.9,0.4c-1.9,0-3.1-1.3-4.6-3.2c-1-1.3-1.3-3.6-0.6-5.1C20.6,5.4,21.2,5,21.9,5
	c0.7,0,1.2,0.3,1.5,0.8c0.8,1.2,0.5,3.4,0,4.5c-0.1,0.2,0,0.4,0.1,0.5c0.7,0.8,2,1.7,3.4,1.7c0.2,0,0.4-0.2,0.5-0.4
	c1-4.9,0.8-8.4-0.8-10.3c-1-1.2-2.4-1.8-4.2-1.8c-1.8,0-7.5,0.6-7.5,8c0,6,3.6,8.9,4.8,9.7c-2,3.6-4.5,7.3-5.3,7.3
	c-2,0-7.5-14.4-7.5-19.5C6.9,5.2,6.7,5,6.4,5h-4C2.2,5,1.9,5.2,1.9,5.5C1.9,9.6,7.1,30,14.4,30c3.7,0,8.8-9.1,9.8-11
	c1.2-0.1,2.1-0.5,3-0.9l0.4-0.2c0.2-0.1,0.3-0.3,0.3-0.5v-3c0-0.2-0.1-0.3-0.2-0.4C27.6,14,27.4,14,27.3,14z"/>
</svg>
