<?xml version="1.0" encoding="utf-8"?>
<!-- Generator: Adobe Illustrator 19.0.0, SVG Export Plug-In . SVG Version: 6.00 Build 0)  -->
<svg version="1.1" id="Layer_1" xmlns="http://www.w3.org/2000/svg" xmlns:xlink="http://www.w3.org/1999/xlink" x="0px" y="0px"
	 viewBox="0 0 30 30" style="enable-background:new 0 0 30 30;" xml:space="preserve">
<g>
	<g>
		<path d="M6.5,6.7c-0.2,0-0.3-0.1-0.4-0.2l-4-5.2C1.9,1.1,2,0.8,2.2,0.6s0.5-0.1,0.7,0.1l3.6,4.7l3.6-4.7c0.2-0.2,0.5-0.3,0.7-0.1
			c0.2,0.2,0.3,0.5,0.1,0.7l-4,5.2C6.8,6.6,6.7,6.7,6.5,6.7z"/>
	</g>
	<g>
		<path d="M6.5,11.5C6.2,11.5,6,11.3,6,11V6.2c0-0.3,0.2-0.5,0.5-0.5S7,5.9,7,6.2V11C7,11.3,6.8,11.5,6.5,11.5z"/>
	</g>
	<g>
		<path d="M12.5,11.5C10.6,11.5,9,10,9,8.1V6.9c0-1.9,1.6-3.4,3.5-3.4S16,5,16,6.9v1.2C16,10,14.4,11.5,12.5,11.5z M12.5,4.5
			c-1.4,0-2.5,1.1-2.5,2.4v1.2c0,1.3,1.1,2.4,2.5,2.4S15,9.4,15,8.1V6.9C15,5.6,13.9,4.5,12.5,4.5z"/>
	</g>
	<g>
		<path d="M25.5,11.5c-0.8,0-1.4-0.2-1.8-0.6C23,10.2,23,9.1,23,7.7V7.5C23,7.2,23.2,7,23.5,7S24,7.2,24,7.5v0.2
			c0,1.2,0,2.1,0.4,2.5c0.2,0.2,0.6,0.3,1.1,0.3c0.3,0,0.5,0.2,0.5,0.5S25.8,11.5,25.5,11.5z"/>
	</g>
	<g>
		<path d="M24.5,20.5c-0.4,0-0.8,0.1-1.1,0.4c-0.3,0.2-0.4,0.6-0.4,1V22h2.9v-0.1C25.9,21.1,25.2,20.5,24.5,20.5z"/>
		<circle cx="18" cy="22.5" r="2"/>
		<path d="M26.1,13.3l-6.6-0.6c-2.7-0.2-5.9-0.2-9,0.1l-6.6,0.6c-2.2,0.2-3.9,2-3.9,4.2v6.9c0,2.2,1.7,4,3.9,4.2l6.6,0.6
			c1.5,0.1,3,0.2,4.5,0.2c1.5,0,3-0.1,4.5-0.2l6.6-0.6c2.2-0.2,3.9-2,3.9-4.2v-7C30,15.3,28.3,13.5,26.1,13.3z M6.5,25.4
			c-0.3,0-0.5-0.2-0.5-0.5v-7.4H3.5C3.2,17.5,3,17.3,3,17s0.2-0.5,0.5-0.5h6c0.3,0,0.5,0.2,0.5,0.5s-0.2,0.5-0.5,0.5H7v7.4
			C7,25.2,6.8,25.4,6.5,25.4z M14,23c0,1.4-1.1,2.5-2.5,2.5S9,24.4,9,23v-3c0-0.3,0.2-0.5,0.5-0.5S10,19.7,10,20v3
			c0,0.8,0.7,1.5,1.5,1.5S13,23.8,13,23v-3c0-0.3,0.2-0.5,0.5-0.5S14,19.7,14,20V23z M18,25.5c-0.8,0-1.5-0.3-2-0.8v0.2
			c0,0.3-0.2,0.5-0.5,0.5S15,25.2,15,24.9V17c0-0.3,0.2-0.5,0.5-0.5S16,16.7,16,17v3.3c0.5-0.5,1.2-0.8,2-0.8c1.7,0,3,1.3,3,3
			S19.7,25.5,18,25.5z M26.9,22.5c0,0.3-0.2,0.5-0.5,0.5H23v0.1c0,0.8,0.6,1.4,1.4,1.4h1.1c0.3,0,0.5,0.2,0.5,0.5s-0.2,0.5-0.5,0.5
			h-1.1c-1.3,0-2.4-1.1-2.4-2.4v-1.3c0-0.7,0.2-1.3,0.7-1.7c0.5-0.5,1.1-0.7,1.8-0.7c1.3,0,2.4,1.1,2.4,2.4V22.5z"/>
	</g>
	<g>
		<path d="M20.5,11.5C18.6,11.5,17,9.9,17,8V4c0-0.3,0.2-0.5,0.5-0.5S18,3.7,18,4v4c0,1.4,1.1,2.5,2.5,2.5S23,9.4,23,8V4
			c0-0.3,0.2-0.5,0.5-0.5S24,3.7,24,4v4C24,9.9,22.4,11.5,20.5,11.5z"/>
	</g>
</g>
</svg>
