<?xml version="1.0" encoding="utf-8"?>
<!-- Generator: Adobe Illustrator 19.0.0, SVG Export Plug-In . SVG Version: 6.00 Build 0)  -->
<svg version="1.1" id="Layer_1" xmlns="http://www.w3.org/2000/svg" xmlns:xlink="http://www.w3.org/1999/xlink" x="0px" y="0px"
	 viewBox="0 0 30 30" style="enable-background:new 0 0 30 30;" xml:space="preserve">
<path d="M24.4,21c-0.8,0-1.3,0.2-1.7,0.5c-0.5,0.3-1,0.5-2.1,0.5c-2.7,0-5.5-3.8-6.3-4.9c2.5-2.3,7.3-7.1,7.8-8.8
	c0.3-0.3,0.6-0.5,0.9-0.8c1.2-0.9,2.6-2,2.6-4C25.5,0.7,23.9,0,23,0c-1.2,0-1.9,1.4-2.3,2.3C19.4,1.6,15.6,0,10.5,0
	c-2.3,0-3,2.3-3,3.5c0,0.4-0.1,2.4,0.7,3.2C8.4,6.9,8.7,7,9,7c0.8,0,1.5-0.3,2.2-0.6C11.8,6.2,12.4,6,12.9,6c0.4,0,0.8,0.1,1.4,0.3
	C15,6.5,16,6.8,17.4,7c-1.5,1.6-4.5,4.8-5.4,5.9C11.4,12.5,10.4,12,9,12c-2.1,0-4.5,2.6-4.5,6c0,1,0,4,2.5,4c1.2,0,2.3-0.9,2.9-1.5
	c0.7,1.6,2.3,5.4,3.2,6.8c1.3,2,3.7,2.7,5.4,2.7c2,0,7-2.4,7-6C25.5,22.5,25.4,21,24.4,21z"/>
</svg>
