<?xml version="1.0" encoding="iso-8859-1"?>
<!-- Generator: Adobe Illustrator 19.0.0, SVG Export Plug-In . SVG Version: 6.00 Build 0)  -->
<svg version="1.1" id="Layer_1" xmlns="http://www.w3.org/2000/svg" xmlns:xlink="http://www.w3.org/1999/xlink" x="0px" y="0px"
	 viewBox="0 0 24 24" style="enable-background:new 0 0 24 24;" xml:space="preserve">
<g>
	<g>
		<path d="M5.842,12H17.21c2.365,0,4.29-1.869,4.29-4.167c0-2.294-1.92-4.162-4.281-4.166C16.258,1.458,14.019,0,11.526,0
			C8.278,0,5.607,2.442,5.361,5.534C3.745,5.761,2.5,7.117,2.5,8.75C2.5,10.542,4,12,5.842,12z M2.5,18h19
			c1.381,0,2.5-1.119,2.5-2.5S22.881,13,21.5,13h-19C1.119,13,0,14.119,0,15.5S1.119,18,2.5,18z M21,15c0.551,0,1,0.449,1,1
			c0,0.551-0.449,1-1,1s-1-0.449-1-1S20.449,15,21,15z M5.52,16h0.01c0.276,0,0.5,0.224,0.5,0.5S5.806,17,5.53,17
			s-0.505-0.224-0.505-0.5S5.244,16,5.52,16z M3.52,16h0.01c0.276,0,0.5,0.224,0.5,0.5S3.806,17,3.53,17s-0.505-0.224-0.505-0.5
			S3.244,16,3.52,16z M21.5,19h-19C1.119,19,0,20.119,0,21.5S1.119,24,2.5,24h19c1.381,0,2.5-1.119,2.5-2.5S22.881,19,21.5,19z
			 M3.53,23c-0.276,0-0.505-0.224-0.505-0.5S3.244,22,3.52,22h0.01c0.276,0,0.5,0.224,0.5,0.5S3.806,23,3.53,23z M5.53,23
			c-0.276,0-0.505-0.224-0.505-0.5S5.244,22,5.52,22h0.01c0.276,0,0.5,0.224,0.5,0.5S5.806,23,5.53,23z M21,23c-0.551,0-1-0.449-1-1
			s0.449-1,1-1s1,0.449,1,1S21.551,23,21,23z"/>
	</g>
</g>
</svg>
