<?xml version="1.0" encoding="iso-8859-1"?>
<!-- Generator: Adobe Illustrator 19.0.0, SVG Export Plug-In . SVG Version: 6.00 Build 0)  -->
<svg version="1.1" id="Layer_1" xmlns="http://www.w3.org/2000/svg" xmlns:xlink="http://www.w3.org/1999/xlink" x="0px" y="0px"
	 viewBox="0 0 24 24" style="enable-background:new 0 0 24 24;" xml:space="preserve">
<g>
	<g>
		<path d="M3,19.5C3,20.878,4.121,22,5.5,22H12v1H8.5C8.224,23,8,23.224,8,23.5S8.224,24,8.5,24h8c0.276,0,0.5-0.224,0.5-0.5
			S16.776,23,16.5,23H13v-1h6.5c1.379,0,2.5-1.122,2.5-2.5V19H3V19.5z M19.5,10h-5c-0.276,0-0.5,0.224-0.5,0.5v5
			c0,0.827-0.673,1.5-1.5,1.5S11,16.327,11,15.5v-5c0-0.276-0.224-0.5-0.5-0.5h-5C4.121,10,3,11.122,3,12.5V18h19v-5.5
			C22,11.122,20.879,10,19.5,10z M12.5,16c0.276,0,0.5-0.224,0.5-0.5V6.708l1.146,1.146C14.244,7.951,14.372,8,14.5,8
			s0.256-0.049,0.353-0.146c0.195-0.195,0.195-0.512,0-0.707l-2-2c-0.044-0.044-0.095-0.074-0.148-0.098
			C12.7,5.047,12.698,5.04,12.692,5.038c-0.001-0.001-0.003,0-0.004,0c-0.08-0.032-0.165-0.036-0.249-0.025
			c-0.024,0.003-0.044,0.007-0.067,0.013c-0.081,0.021-0.159,0.056-0.223,0.119c-0.001,0.001-0.002,0.001-0.003,0.001l-2,2
			c-0.195,0.195-0.195,0.512,0,0.707s0.512,0.195,0.707,0L12,6.707V15.5C12,15.776,12.224,16,12.5,16z M18.846,6.023
			C18.151,2.561,15.064,0,11.5,0C7.364,0,4,3.364,4,7.5c0,0.169,0.007,0.342,0.022,0.525C1.765,8.265,0,10.18,0,12.5
			c0,1.074,0.399,2.121,1.124,2.95c0.097,0.111,0.234,0.171,0.376,0.171c0.059,0,0.118-0.01,0.176-0.032
			C1.871,15.516,2,15.329,2,15.121V12.5C2,10.57,3.57,9,5.5,9h3.296c0.276,0,0.5-0.224,0.5-0.5c0-0.133-0.052-0.255-0.137-0.344
			C8.878,7.584,8.987,6.892,9.439,6.44l2.001-2c0.081-0.082,0.183-0.156,0.404-0.279c0.129-0.063,0.243-0.104,0.365-0.131
			c0.082-0.016,0.166-0.022,0.25-0.022l0.229,0.013c0.15,0.019,0.276,0.05,0.35,0.079c0.001,0,0.002,0.001,0.003,0.001
			c0.016,0.008,0.03,0.016,0.045,0.021c0.102,0.043,0.206,0.107,0.321,0.195L13.56,4.44l2,2c0.478,0.477,0.572,1.221,0.23,1.81
			c-0.09,0.155-0.09,0.345-0.001,0.5C15.88,8.904,16.045,9,16.224,9H19.5c1.771,0,3.257,1.336,3.458,3.107
			c0.029,0.251,0.24,0.441,0.493,0.443h0.004c0.251,0,0.464-0.187,0.496-0.436C23.978,11.914,24,11.71,24,11.5
			C24,8.609,21.758,6.232,18.846,6.023z"/>
	</g>
</g>
</svg>
