<?xml version="1.0" encoding="iso-8859-1"?>
<!-- Generator: Adobe Illustrator 19.0.0, SVG Export Plug-In . SVG Version: 6.00 Build 0)  -->
<svg version="1.1" id="Layer_1" xmlns="http://www.w3.org/2000/svg" xmlns:xlink="http://www.w3.org/1999/xlink" x="0px" y="0px"
	 viewBox="0 0 24 24" style="enable-background:new 0 0 24 24;" xml:space="preserve">
<g>
	<g>
		<path d="M16.958,20.805c-0.024-0.057-0.058-0.111-0.105-0.157l-2-2c-0.195-0.195-0.512-0.195-0.707,0s-0.195,0.512,0,0.707
			l1.146,1.146H14.5c-1.378,0-2.5-1.122-2.5-2.5v-7c0-0.276-0.224-0.5-0.5-0.5S11,10.724,11,11v7c0,1.93,1.57,3.5,3.5,3.5h0.793
			l-1.146,1.146c-0.195,0.195-0.195,0.512,0,0.707c0.098,0.098,0.226,0.146,0.354,0.146s0.256-0.049,0.354-0.146l2-2
			c0.065-0.065,0.1-0.145,0.122-0.228c0.005-0.021,0.009-0.039,0.012-0.06c0.01-0.086,0.007-0.173-0.027-0.255
			C16.961,20.807,16.959,20.807,16.958,20.805z M18.846,6.523C18.151,3.062,15.065,0.5,11.5,0.5C7.364,0.5,4,3.865,4,8
			c0,0.169,0.007,0.342,0.022,0.525C1.765,8.766,0,10.68,0,13c0,2.481,2.019,4.5,4.5,4.5h5c0.276,0,0.5-0.224,0.5-0.5v-6
			c0-0.827,0.673-1.5,1.5-1.5S13,10.174,13,11v6c0,0.276,0.224,0.5,0.5,0.5h5c3.033,0,5.5-2.467,5.5-5.5
			C24,9.109,21.758,6.732,18.846,6.523z"/>
	</g>
</g>
</svg>
