<?xml version="1.0" encoding="iso-8859-1"?>
<!-- Generator: Adobe Illustrator 19.0.0, SVG Export Plug-In . SVG Version: 6.00 Build 0)  -->
<svg version="1.1" id="Layer_1" xmlns="http://www.w3.org/2000/svg" xmlns:xlink="http://www.w3.org/1999/xlink" x="0px" y="0px"
	 viewBox="0 0 24 24" style="enable-background:new 0 0 24 24;" xml:space="preserve">
<g>
	<g>
		<path d="M13.147,19.44C13.673,18.762,14,17.922,14,17c0-2.206-1.794-4-4-4s-4,1.794-4,4s1.794,4,4,4
			c0.922,0,1.762-0.327,2.44-0.853l2.707,2.707C15.244,22.951,15.372,23,15.5,23s0.256-0.049,0.354-0.146
			c0.195-0.195,0.195-0.512,0-0.707L13.147,19.44z M10,20c-1.654,0-3-1.346-3-3s1.346-3,3-3s3,1.346,3,3S11.654,20,10,20z
			 M18.846,7.023C18.151,3.561,15.065,1,11.5,1C7.364,1,4,4.364,4,8.5c0,0.169,0.007,0.342,0.022,0.525C1.765,9.265,0,11.18,0,13.5
			C0,15.981,2.019,18,4.525,18h0.01c0.278,0.019,0.51-0.22,0.51-0.5c0-0.063-0.012-0.124-0.033-0.179C5.005,17.215,5,17.108,5,17
			c0-2.757,2.243-5,5-5s5,2.243,5,5c0,0.153-0.011,0.304-0.024,0.454c-0.013,0.14,0.047,0.279,0.142,0.383
			C15.212,17.941,15.359,18,15.5,18h3c3.033,0,5.5-2.467,5.5-5.5C24,9.609,21.758,7.232,18.846,7.023z"/>
	</g>
</g>
</svg>
