<?xml version="1.0" encoding="iso-8859-1"?>
<!-- Generator: Adobe Illustrator 19.0.0, SVG Export Plug-In . SVG Version: 6.00 Build 0)  -->
<svg version="1.1" id="Layer_1" xmlns="http://www.w3.org/2000/svg" xmlns:xlink="http://www.w3.org/1999/xlink" x="0px" y="0px"
	 viewBox="0 0 24 24" style="enable-background:new 0 0 24 24;" xml:space="preserve">
<g>
	<g>
		<path d="M23,23.5h-5c-0.202,0-0.385-0.122-0.462-0.309s-0.034-0.402,0.108-0.545l1.146-1.146L2.5,5.207L1.354,6.354
			C1.21,6.497,0.995,6.54,0.809,6.462C0.622,6.385,0.5,6.202,0.5,6V1c0-0.276,0.224-0.5,0.5-0.5h5c0.202,0,0.385,0.122,0.462,0.309
			S6.496,1.21,6.354,1.354L5.207,2.5L21.5,18.793l1.146-1.146c0.144-0.144,0.359-0.187,0.545-0.108
			C23.378,17.615,23.5,17.798,23.5,18v5C23.5,23.276,23.276,23.5,23,23.5z M19.207,22.5H22.5v-3.293l-0.646,0.646
			c-0.195,0.195-0.512,0.195-0.707,0l-17-17c-0.195-0.195-0.195-0.512,0-0.707L4.793,1.5H1.5v3.293l0.646-0.646
			c0.195-0.195,0.512-0.195,0.707,0l17,17c0.195,0.195,0.195,0.512,0,0.707L19.207,22.5z"/>
	</g>
</g>
<g>
</g>
<g>
</g>
<g>
</g>
<g>
</g>
<g>
</g>
<g>
</g>
<g>
</g>
<g>
</g>
<g>
</g>
<g>
</g>
<g>
</g>
<g>
</g>
<g>
</g>
<g>
</g>
<g>
</g>
</svg>
