<?xml version="1.0" encoding="iso-8859-1"?>
<!-- Generator: Adobe Illustrator 19.0.0, SVG Export Plug-In . SVG Version: 6.00 Build 0)  -->
<svg version="1.1" id="Layer_1" xmlns="http://www.w3.org/2000/svg" xmlns:xlink="http://www.w3.org/1999/xlink" x="0px" y="0px"
	 viewBox="0 0 24 24" style="enable-background:new 0 0 24 24;" xml:space="preserve">
<g>
	<g>
		<path d="M22.186,5.722c-0.177,0-0.349-0.095-0.439-0.261c-0.132-0.243-0.042-0.546,0.201-0.678C22.597,4.43,23,3.76,23,3.034
			c0-1.103-0.897-2-2-2c-0.9,0-1.691,0.613-1.924,1.49c-0.071,0.267-0.341,0.425-0.611,0.355c-0.267-0.071-0.426-0.344-0.355-0.611
			C18.458,0.953,19.646,0.034,21,0.034c1.654,0,3,1.346,3,3c0,1.093-0.604,2.099-1.576,2.627
			C22.349,5.703,22.267,5.722,22.186,5.722z"/>
	</g>
	<g>
		<path d="M19.5,10.034c-1.48,0-2.804-0.946-3.295-2.354c-0.091-0.261,0.048-0.546,0.309-0.637c0.258-0.091,0.546,0.047,0.637,0.308
			c0.35,1.006,1.295,1.683,2.35,1.683c1.379,0,2.5-1.122,2.5-2.5s-1.121-2.5-2.5-2.5c-0.012,0.001-0.133,0.016-0.145,0.017
			c-0.273,0.016-0.514-0.19-0.532-0.466c-0.018-0.275,0.19-0.514,0.466-0.532c0.096-0.013,0.152-0.019,0.211-0.019
			c1.93,0,3.5,1.57,3.5,3.5S21.43,10.034,19.5,10.034z"/>
	</g>
	<g>
		<g>
			<path d="M16.5,8.034c-1.93,0-3.5-1.57-3.5-3.5s1.57-3.5,3.5-3.5s3.5,1.57,3.5,3.5S18.43,8.034,16.5,8.034z M16.5,2.034
				c-1.379,0-2.5,1.122-2.5,2.5s1.121,2.5,2.5,2.5s2.5-1.122,2.5-2.5S17.879,2.034,16.5,2.034z"/>
		</g>
	</g>
	<g>
		<path d="M5.5,17.034c-0.064,0-0.13-0.012-0.191-0.038C5.122,16.919,5,16.737,5,16.534c0-0.113-0.027-0.282-0.261-0.455
			c-0.714-0.526-2.51-0.556-4.092-0.067c-0.244,0.077-0.51-0.047-0.608-0.284c-0.1-0.237-0.003-0.512,0.224-0.634
			c0.755-0.406,1.551-1.686,1.895-3.043c0.243-0.962,0.215-1.8-0.075-2.242C1.981,9.656,1.973,9.459,2.06,9.297
			C2.147,9.135,2.316,9.034,2.5,9.034c1.106,0,2.207-0.513,3.099-1.445C6.477,6.671,7.04,5.452,7.001,4.556
			C6.991,4.353,7.106,4.164,7.292,4.08c0.185-0.085,0.403-0.049,0.552,0.091c0.572,0.541,4.509,0.804,5.303,0.01
			c0.195-0.195,0.512-0.195,0.707,0s0.195,0.512,0,0.707C12.833,5.91,9.568,5.849,7.937,5.304C7.748,6.302,7.162,7.402,6.321,8.281
			C5.429,9.213,4.35,9.8,3.224,9.977c0.207,0.826,0.045,1.759-0.097,2.319c-0.2,0.791-0.573,1.678-1.075,2.409
			c1.349-0.142,2.581,0.053,3.281,0.569c0.139,0.103,0.256,0.216,0.353,0.34c0.633-0.633,1.654-1.444,3.37-1.564
			c0.38-1.656,2.621-3.135,4.665-3.453c-0.279-1.382,1.198-3.155,1.4-3.39c0.18-0.208,0.495-0.232,0.705-0.052
			c0.209,0.18,0.232,0.496,0.053,0.705c-0.58,0.675-1.594,2.252-1.025,2.82c0.144,0.143,0.186,0.358,0.108,0.545
			s-0.26,0.309-0.462,0.309c-2.173,0-4.5,1.761-4.5,3c0,0.276-0.224,0.5-0.5,0.5c-1.922,0-2.823,0.972-3.42,1.615
			c-0.083,0.089-0.158,0.17-0.227,0.238C5.758,16.984,5.63,17.034,5.5,17.034z"/>
	</g>
	<g>
		<path d="M6.5,12.034c-0.142,0-0.281-0.06-0.381-0.176c-0.179-0.21-0.153-0.526,0.057-0.705c0.198-0.169,4.878-4.146,7.133-5.082
			c0.254-0.105,0.547,0.015,0.653,0.27c0.105,0.255-0.016,0.548-0.271,0.654c-2.11,0.876-6.819,4.878-6.867,4.918
			C6.73,11.995,6.615,12.034,6.5,12.034z"/>
	</g>
	<g>
		<path d="M16.467,23.966c-0.067,0-0.136-0.014-0.2-0.042c-0.236-0.104-0.355-0.369-0.275-0.613
			c0.267-0.814-0.039-2.291-0.728-3.511c-0.486-0.864-1.085-1.451-1.601-1.571c-0.179-0.042-0.32-0.178-0.369-0.355
			c-0.048-0.177,0.005-0.367,0.138-0.494c0.969-0.922,1.526-2.24,1.529-3.615c0.002-0.996-0.3-1.882-0.808-2.37
			c-0.199-0.191-0.205-0.508-0.014-0.707c0.192-0.2,0.507-0.205,0.707-0.014c0.711,0.683,1.117,1.81,1.114,3.092
			c-0.003,1.397-0.486,2.748-1.346,3.802c0.715,0.457,1.237,1.239,1.52,1.74c0.401,0.71,0.743,1.61,0.884,2.487
			c0.879-1.035,1.905-1.742,2.769-1.851c0.17-0.022,0.333-0.021,0.489,0.002c0.021-0.896,0.203-2.188,1.363-3.459
			c-0.411-0.703-0.513-1.726-0.275-2.894c0.207-1.015,0.65-2.003,1.232-2.775c-0.867-0.486-1.107-1.625-1.097-2.293
			c0.004-0.273,0.228-0.491,0.5-0.491c0.002,0,0.004,0,0.006,0c0.275,0.003,0.497,0.23,0.494,0.505
			c-0.001,0.061-0.002,1.486,1.012,1.51c0.202,0.005,0.382,0.131,0.455,0.32c0.072,0.188,0.024,0.403-0.122,0.542
			c-0.71,0.677-1.271,1.754-1.5,2.881c-0.214,1.051-0.095,1.969,0.312,2.395c0.091,0.096,0.141,0.224,0.138,0.357
			c-0.003,0.132-0.06,0.258-0.155,0.35c-1.392,1.326-1.374,2.652-1.363,3.529c0.002,0.122,0.003,0.231,0.001,0.328
			c-0.005,0.202-0.132,0.381-0.32,0.454c-0.188,0.073-0.401,0.025-0.542-0.122c-0.077-0.082-0.214-0.188-0.502-0.149
			c-0.879,0.111-2.201,1.329-3.009,2.773C16.812,23.872,16.643,23.966,16.467,23.966z"/>
	</g>
	<g>
		<path d="M18.051,16.931c-0.251,0-0.468-0.189-0.496-0.445c-0.021-0.198-0.521-4.87,0.488-7.153
			c0.11-0.253,0.407-0.366,0.659-0.255c0.253,0.112,0.367,0.407,0.255,0.66c-0.901,2.041-0.413,6.594-0.408,6.64
			c0.03,0.274-0.168,0.521-0.442,0.552C18.088,16.93,18.069,16.931,18.051,16.931z"/>
	</g>
</g>
<g>
</g>
<g>
</g>
<g>
</g>
<g>
</g>
<g>
</g>
<g>
</g>
<g>
</g>
<g>
</g>
<g>
</g>
<g>
</g>
<g>
</g>
<g>
</g>
<g>
</g>
<g>
</g>
<g>
</g>
</svg>
