<?xml version="1.0" encoding="iso-8859-1"?>
<!-- Generator: Adobe Illustrator 19.0.0, SVG Export Plug-In . SVG Version: 6.00 Build 0)  -->
<svg version="1.1" id="Layer_1" xmlns="http://www.w3.org/2000/svg" xmlns:xlink="http://www.w3.org/1999/xlink" x="0px" y="0px"
	 viewBox="0 0 24 24" style="enable-background:new 0 0 24 24;" xml:space="preserve">
<g>
	<g>
		<path d="M12,24C6.21,24,1.5,19.29,1.5,13.5S6.21,3,12,3s10.5,4.71,10.5,10.5S17.79,24,12,24z M12,4c-5.238,0-9.5,4.262-9.5,9.5
			S6.762,23,12,23s9.5-4.262,9.5-9.5S17.238,4,12,4z"/>
	</g>
	<g>
		<path d="M21.5,16h-19C2.224,16,2,15.776,2,15.5S2.224,15,2.5,15h19c0.276,0,0.5,0.224,0.5,0.5S21.776,16,21.5,16z"/>
	</g>
	<g>
		<path d="M21.5,12h-19C2.224,12,2,11.776,2,11.5S2.224,11,2.5,11h19c0.276,0,0.5,0.224,0.5,0.5S21.776,12,21.5,12z"/>
	</g>
	<g>
		<path d="M16,4.5c-0.276,0-0.5-0.224-0.5-0.5V2.5C15.5,1.673,14.827,1,14,1h-4C9.173,1,8.5,1.673,8.5,2.5V4
			c0,0.276-0.224,0.5-0.5,0.5S7.5,4.276,7.5,4V2.5C7.5,1.122,8.621,0,10,0h4c1.379,0,2.5,1.122,2.5,2.5V4
			C16.5,4.276,16.276,4.5,16,4.5z"/>
	</g>
	<g>
		<path d="M19.5,20c-0.062,0-0.125-0.011-0.186-0.036L17,19.039l-2.314,0.926c-0.119,0.048-0.252,0.048-0.371,0L12,19.039
			l-2.314,0.926c-0.119,0.048-0.252,0.048-0.371,0L7,19.039l-2.314,0.926c-0.256,0.102-0.547-0.022-0.649-0.279
			s0.021-0.547,0.278-0.65l2.5-1c0.119-0.048,0.252-0.048,0.371,0L9.5,18.961l2.314-0.926c0.119-0.048,0.252-0.048,0.371,0
			l2.314,0.926l2.314-0.926c0.119-0.048,0.252-0.048,0.371,0l2.5,1c0.257,0.103,0.381,0.394,0.278,0.65
			C19.886,19.881,19.698,20,19.5,20z"/>
	</g>
</g>
<g>
</g>
<g>
</g>
<g>
</g>
<g>
</g>
<g>
</g>
<g>
</g>
<g>
</g>
<g>
</g>
<g>
</g>
<g>
</g>
<g>
</g>
<g>
</g>
<g>
</g>
<g>
</g>
<g>
</g>
</svg>
