<?xml version="1.0" encoding="iso-8859-1"?>
<!-- Generator: Adobe Illustrator 19.0.0, SVG Export Plug-In . SVG Version: 6.00 Build 0)  -->
<svg version="1.1" id="Layer_1" xmlns="http://www.w3.org/2000/svg" xmlns:xlink="http://www.w3.org/1999/xlink" x="0px" y="0px"
	 viewBox="0 0 24 24" style="enable-background:new 0 0 24 24;" xml:space="preserve">
<g>
	<g>
		<path d="M17,24H7c-2.733,0-4.5-1.767-4.5-4.5c0-5.787,2.563-10.728,7.218-13.913c0.227-0.155,0.539-0.098,0.695,0.13
			c0.155,0.228,0.097,0.539-0.131,0.695C5.908,9.405,3.5,14.053,3.5,19.5C3.5,21.691,4.809,23,7,23h10c2.322,0,3.5-1.514,3.5-4.5
			c0-5.646-1.878-9.427-5.742-11.563c-0.241-0.133-0.329-0.438-0.195-0.679c0.134-0.243,0.438-0.329,0.68-0.196
			C19.453,8.389,21.5,12.458,21.5,18.5C21.5,23.286,18.681,24,17,24z"/>
	</g>
	<g>
		<path d="M13.001,7.008c-1.229,0-2.364-0.195-3.196-0.548C9.58,6.365,9.457,6.122,9.514,5.885c0.09-0.38,0.054-0.824-0.816-1.487
			C7.717,3.65,7.483,2.217,7.5,1.489c0.01-0.919,0.544-1.253,0.862-1.37c0.755-0.279,1.897,0.101,2.805,0.623
			C11.266,0.454,11.568,0,12.5,0c0.979,0,1.734,0.415,2.353,0.808c0.007-0.096,0.03-0.191,0.073-0.284C15.088,0.176,15.449,0,16,0
			c1.234,0,2.142,0.695,2.425,1.858c0.359,1.472-0.377,3.644-2.192,4.585C15.51,6.818,14.423,7.008,13.001,7.008z M10.546,5.669
			c0.671,0.217,1.542,0.339,2.455,0.339c1.242,0,2.2-0.156,2.771-0.452c1.342-0.696,1.952-2.351,1.682-3.46
			C17.332,1.596,16.98,1,16,1c-0.042,0-0.077,0.001-0.106,0.004c0.053,0.108,0.17,0.291,0.42,0.59L16.4,1.7
			c0.128,0.171,0.133,0.404,0.013,0.581c-0.119,0.177-0.337,0.257-0.545,0.202c-0.47-0.128-0.879-0.395-1.313-0.677
			C13.946,1.41,13.316,1,12.5,1c-0.312,0-0.391,0.07-0.391,0.071c-0.03,0.082,0.084,0.369,0.19,0.516
			c0.027,0.029,0.054,0.058,0.078,0.085c0.165,0.191,0.162,0.475-0.007,0.663c-0.168,0.188-0.452,0.219-0.658,0.075
			c-0.037-0.026-0.084-0.071-0.134-0.13c-0.581-0.618-2.226-1.458-2.872-1.223C8.641,1.082,8.504,1.132,8.5,1.505
			C8.488,2.014,8.642,3.098,9.303,3.603C9.868,4.033,10.569,4.695,10.546,5.669z"/>
	</g>
	<g>
		<path d="M9,22c-0.02,0-0.039-0.001-0.06-0.003c-0.258-0.031-0.45-0.255-0.44-0.515c0.044-1.172-0.485-2.384-0.724-2.534
			c-0.13-0.063-0.224-0.178-0.262-0.318c-0.038-0.14-0.011-0.288,0.07-0.408c0.576-0.858,0.313-3.031,0.018-3.417
			c-0.138-0.18-0.137-0.43,0.001-0.609c0.139-0.18,0.379-0.244,0.589-0.156c0.38,0.154,1.119-0.565,1.362-0.803l0.101-0.098
			c0.199-0.19,0.516-0.184,0.707,0.018c0.19,0.2,0.183,0.516-0.018,0.707l-0.091,0.088C9.932,14.266,9.37,14.816,8.73,15
			c0.244,0.953,0.306,2.407-0.108,3.39c0.263,0.32,0.48,0.797,0.634,1.322c0.182-0.233,0.395-0.433,0.639-0.572
			c0.148-0.084,0.303-0.142,0.46-0.174c-0.111-0.79-0.045-1.861,0.438-2.477c0.16-0.205,0.356-0.349,0.579-0.431
			c-0.06-0.303-0.109-0.681-0.108-1.072c0.004-1.305,0.583-1.785,1.068-1.958c0.26-0.092,0.547,0.043,0.639,0.303
			c0.093,0.26-0.043,0.546-0.303,0.639c-0.332,0.118-0.403,0.619-0.404,1.019c-0.002,0.565,0.142,1.158,0.207,1.342
			c0.061,0.168,0.026,0.355-0.09,0.492c-0.115,0.136-0.289,0.203-0.471,0.168c-0.178-0.033-0.258,0.021-0.331,0.115
			c-0.369,0.471-0.309,1.774-0.123,2.189c0.082,0.183,0.047,0.396-0.089,0.543s-0.349,0.197-0.533,0.133
			c-0.165-0.058-0.299-0.044-0.446,0.039C9.961,20.252,9.613,20.993,9.49,21.6C9.442,21.835,9.235,22,9,22z"/>
	</g>
	<g>
		<path d="M11.922,10.984c-0.014,0-0.027,0-0.041-0.001C11.094,10.918,10.5,10.281,10.5,9.5C10.5,8.673,11.173,8,12,8
			s1.5,0.673,1.5,1.5c0,0.273-0.082,0.534-0.251,0.797c-0.081,0.126-0.214,0.209-0.362,0.227c-0.233,0.027-0.44,0.132-0.6,0.302
			C12.192,10.927,12.06,10.984,11.922,10.984z M12,9c-0.275,0-0.5,0.224-0.5,0.5c0,0.192,0.112,0.357,0.28,0.438
			c0.21-0.166,0.449-0.285,0.709-0.354C12.496,9.555,12.5,9.527,12.5,9.5C12.5,9.224,12.275,9,12,9z"/>
	</g>
	<g>
		<path d="M16.001,21c-0.013,0-0.024,0-0.037-0.001c-0.272-0.02-0.479-0.254-0.463-0.526c0.021-0.391-0.155-0.575-0.204-0.589
			c-0.19,0.155-0.453,0.152-0.636-0.008c-0.185-0.161-0.215-0.429-0.087-0.637c0.237-0.386,0.268-0.816,0.089-1.28
			c-0.225-0.582-0.671-0.939-0.802-0.978c-0.151-0.044-0.273-0.156-0.329-0.304c-0.056-0.147-0.039-0.312,0.046-0.445
			c0.285-0.449,0.385-0.848,0.296-1.185c-0.104-0.395-0.478-0.768-1.11-1.106c-0.243-0.13-0.335-0.434-0.204-0.677
			c0.13-0.243,0.435-0.334,0.677-0.205c0.9,0.482,1.425,1.05,1.604,1.734c0.127,0.481,0.068,0.99-0.171,1.52
			c0.377,0.302,0.73,0.778,0.926,1.284c0.18,0.465,0.225,0.938,0.137,1.385c0.008,0.003,0.015,0.007,0.022,0.011
			c0.095,0.048,0.183,0.109,0.262,0.182c0.296-0.401,0.688-0.731,1.093-0.938c-0.592-0.944-0.919-2.454-0.715-3.474
			c-0.053-0.019-0.109-0.037-0.168-0.057c-0.646-0.214-1.533-0.507-2.186-2.007c-0.109-0.253,0.007-0.548,0.26-0.658
			c0.25-0.11,0.548,0.006,0.658,0.259c0.474,1.09,1.012,1.268,1.582,1.457c0.251,0.083,0.511,0.169,0.746,0.333
			c0.201,0.141,0.27,0.407,0.163,0.628c-0.399,0.824,0.211,2.943,0.832,3.369c0.183,0.125,0.262,0.355,0.193,0.565
			c-0.067,0.211-0.251,0.354-0.486,0.347c-0.003,0-0.006,0-0.008,0c-0.438,0-1.411,0.721-1.483,1.544
			C16.476,20.804,16.257,21,16.001,21z"/>
	</g>
	<g>
		<path d="M13,13.5c-0.552,0-1.085-0.235-1.464-0.644c-0.128-0.138-0.167-0.336-0.102-0.513C11.479,12.224,11.5,12.111,11.5,12
			c0-0.249-0.096-0.489-0.27-0.677c-0.129-0.138-0.168-0.336-0.103-0.513C11.418,10.026,12.17,9.5,13,9.5c1.103,0,2,0.897,2,2
			S14.103,13.5,13,13.5z M12.468,12.344C12.626,12.445,12.809,12.5,13,12.5c0.552,0,1-0.449,1-1s-0.448-1-1-1
			c-0.333,0-0.633,0.162-0.815,0.428C12.39,11.248,12.5,11.618,12.5,12C12.5,12.114,12.489,12.229,12.468,12.344z"/>
	</g>
	<g>
		<path d="M10.5,14c-1.103,0-2-0.897-2-2s0.897-2,2-2s2,0.897,2,2S11.603,14,10.5,14z M10.5,11c-0.552,0-1,0.449-1,1s0.448,1,1,1
			s1-0.449,1-1S11.052,11,10.5,11z"/>
	</g>
</g>
<g>
</g>
<g>
</g>
<g>
</g>
<g>
</g>
<g>
</g>
<g>
</g>
<g>
</g>
<g>
</g>
<g>
</g>
<g>
</g>
<g>
</g>
<g>
</g>
<g>
</g>
<g>
</g>
<g>
</g>
</svg>
