<?xml version="1.0" encoding="iso-8859-1"?>
<!-- Generator: Adobe Illustrator 19.0.0, SVG Export Plug-In . SVG Version: 6.00 Build 0)  -->
<svg version="1.1" id="Layer_1" xmlns="http://www.w3.org/2000/svg" xmlns:xlink="http://www.w3.org/1999/xlink" x="0px" y="0px"
	 viewBox="0 0 24 24" style="enable-background:new 0 0 24 24;" xml:space="preserve">
<g>
	<g>
		<path d="M15.929,22.5H6.5C5.673,22.5,5,21.827,5,21c0-1.103,0.823-2.051,1.915-2.207l4.036-0.634l-6.808-6.808
			c-0.745-0.745-0.745-1.957,0-2.701c0.24-0.241,0.528-0.404,0.833-0.491c-0.569-0.748-0.513-1.823,0.17-2.506
			c0.61-0.609,1.522-0.724,2.244-0.347C7.47,4.974,7.639,4.66,7.896,4.402c0.752-0.751,1.963-0.749,2.707-0.006l4.021,4.021
			c0.086-0.297,0.246-0.576,0.479-0.808c0.734-0.734,1.986-0.729,2.707-0.006l3.761,4.131c0.922,1.014,1.43,2.327,1.43,3.697
			c0,1.467-0.571,2.847-1.609,3.884l-1.572,1.573C18.778,21.928,17.397,22.5,15.929,22.5z M5.5,9.084
			c-0.233,0-0.466,0.089-0.644,0.266c-0.36,0.361-0.36,0.938-0.006,1.293l7.503,7.503c0.133,0.133,0.18,0.33,0.122,0.508
			c-0.059,0.179-0.212,0.31-0.398,0.339l-5.015,0.788C6.454,19.869,6,20.392,6,21c0,0.276,0.225,0.5,0.5,0.5h9.429
			c1.201,0,2.332-0.468,3.183-1.318l1.572-1.573C21.532,17.76,22,16.631,22,15.432c0-1.121-0.415-2.194-1.17-3.024l-3.744-4.115
			c-0.311-0.31-0.926-0.325-1.27,0.017c-0.355,0.355-0.36,0.92-0.023,1.276l0.061,0.061c0.195,0.195,0.195,0.511,0.001,0.706
			c-0.191,0.192-0.499,0.197-0.696,0.013l0,0c0,0,0-0.001-0.001-0.001c0,0,0,0,0,0l-0.001,0v0c-0.001,0-0.001,0-0.001,0c0,0,0,0,0,0
			c-0.001,0-0.001,0-0.001-0.001h-0.001c0,0,0,0,0-0.001h-0.001c-0.001-0.001-0.003-0.003-0.004-0.004l0,0
			c-0.001,0-0.001-0.001-0.002-0.002l-5.25-5.25c-0.355-0.354-0.932-0.354-1.287,0c-0.36,0.361-0.36,0.938-0.006,1.293l5.25,5.25
			C13.951,11.744,14,11.872,14,12s-0.049,0.256-0.146,0.354c-0.195,0.195-0.512,0.195-0.707,0l-6-6
			c-0.355-0.354-0.932-0.354-1.287,0c-0.36,0.361-0.36,0.938-0.006,1.293l6,6C11.951,13.744,12,13.872,12,14
			s-0.049,0.256-0.146,0.354c-0.195,0.195-0.512,0.195-0.707,0L6.144,9.351C5.966,9.173,5.733,9.084,5.5,9.084z"/>
	</g>
	<g>
		<path d="M5.5,14.5C3.019,14.5,1,12.481,1,10c0-1.021,0.357-2.014,1.012-2.819C2.005,7.122,2,7.062,2,7c0-2.481,2.019-4.5,4.5-4.5
			c0.062,0,0.121,0.004,0.181,0.011C7.486,1.857,8.479,1.5,9.5,1.5C11.981,1.5,14,3.519,14,6c0,0.276-0.224,0.5-0.5,0.5
			S13,6.276,13,6c0-1.93-1.57-3.5-3.5-3.5c-0.85,0-1.677,0.322-2.328,0.906c-0.103,0.092-0.24,0.138-0.377,0.126L6.644,3.515
			C6.597,3.508,6.55,3.5,6.5,3.5C4.57,3.5,3,5.07,3,7c0,0.049,0.008,0.096,0.015,0.144l0.018,0.152
			C3.044,7.433,2.998,7.57,2.906,7.672C2.322,8.323,2,9.15,2,10c0,1.93,1.57,3.5,3.5,3.5C5.776,13.5,6,13.724,6,14
			S5.776,14.5,5.5,14.5z"/>
	</g>
</g>
<g>
</g>
<g>
</g>
<g>
</g>
<g>
</g>
<g>
</g>
<g>
</g>
<g>
</g>
<g>
</g>
<g>
</g>
<g>
</g>
<g>
</g>
<g>
</g>
<g>
</g>
<g>
</g>
<g>
</g>
</svg>
