<?xml version="1.0" encoding="iso-8859-1"?>
<!-- Generator: Adobe Illustrator 19.0.0, SVG Export Plug-In . SVG Version: 6.00 Build 0)  -->
<svg version="1.1" id="Layer_1" xmlns="http://www.w3.org/2000/svg" xmlns:xlink="http://www.w3.org/1999/xlink" x="0px" y="0px"
	 viewBox="0 0 24 24" style="enable-background:new 0 0 24 24;" xml:space="preserve">
<g>
	<g>
		<path d="M19.747,11.313c-0.399,0-0.799-0.152-1.104-0.456c-0.183-0.183-0.311-0.4-0.383-0.63c-0.547,0.188-1.18,0.066-1.617-0.37
			c-0.229-0.229-0.372-0.513-0.429-0.81c-0.466,0.065-0.961-0.082-1.321-0.44c-0.14-0.14-0.247-0.299-0.322-0.47l-0.896,0.896
			c-0.59,0.59-1.617,0.59-2.207,0c-0.608-0.609-0.608-1.599,0-2.207l3.822-3.823h-1.334c-1.08,0-1.959-0.878-1.959-1.958
			c0-0.575,0.468-1.042,1.042-1.042h5.509c3.005,0,5.449,2.445,5.449,5.45c0,1.456-0.566,2.824-1.596,3.854l-1.551,1.55
			C20.546,11.161,20.147,11.313,19.747,11.313z M19.497,9.003c0,0.128-0.049,0.256-0.146,0.354c-0.219,0.219-0.219,0.574,0,0.793
			c0.219,0.218,0.574,0.218,0.793,0l1.551-1.55c0.84-0.84,1.303-1.958,1.303-3.146c0-2.454-1.996-4.45-4.449-4.45h-5.509
			c-0.022,0-0.042,0.019-0.042,0.042c0,0.528,0.431,0.958,0.959,0.958h2.541c0.202,0,0.385,0.122,0.462,0.309
			s0.034,0.402-0.108,0.545l-4.676,4.677c-0.219,0.219-0.219,0.574,0,0.793c0.211,0.212,0.582,0.212,0.793,0l1.905-1.906
			c0.007-0.007,0.014-0.014,0.021-0.021l1.25-1.25c0.195-0.195,0.512-0.195,0.707,0s0.195,0.512,0,0.707l-1.263,1.263
			c-0.098,0.104-0.151,0.24-0.151,0.384c0,0.15,0.059,0.291,0.164,0.396c0.219,0.218,0.574,0.218,0.793,0l0.75-0.75
			c0.195-0.195,0.512-0.195,0.707,0c0.098,0.098,0.146,0.226,0.146,0.354s-0.049,0.256-0.146,0.354l-0.5,0.5
			c-0.105,0.106-0.164,0.247-0.164,0.396s0.059,0.291,0.164,0.396c0.219,0.218,0.574,0.218,0.793,0l0.5-0.5
			c0.195-0.195,0.512-0.195,0.707,0C19.448,8.747,19.497,8.875,19.497,9.003z"/>
	</g>
	<g>
		<path d="M5.454,23.997c-3.005,0-5.45-2.445-5.45-5.45v-5.509c0-0.574,0.468-1.042,1.042-1.042c1.08,0,1.958,0.878,1.958,1.958
			v1.334l3.823-3.823c0.59-0.59,1.617-0.59,2.207,0c0.608,0.608,0.608,1.598,0,2.207l-0.896,0.896
			c0.171,0.076,0.33,0.183,0.47,0.323c0.295,0.294,0.457,0.687,0.457,1.104c0,0.074-0.005,0.146-0.015,0.218
			c0.296,0.057,0.579,0.199,0.808,0.428c0.437,0.437,0.56,1.069,0.37,1.617c0.23,0.073,0.447,0.201,0.63,0.383
			c0.608,0.608,0.608,1.599,0,2.207l-1.55,1.55C8.277,23.43,6.909,23.997,5.454,23.997z M1.045,12.997l-0.042,0.042v5.509
			c0,2.454,1.996,4.45,4.45,4.45c1.188,0,2.306-0.463,3.146-1.303l1.55-1.55c0.219-0.219,0.219-0.574,0-0.793s-0.574-0.219-0.793,0
			c-0.195,0.195-0.512,0.195-0.707,0c-0.098-0.098-0.146-0.226-0.146-0.354s0.049-0.256,0.146-0.354l0.5-0.5
			c0.219-0.219,0.219-0.574,0-0.793c-0.211-0.212-0.582-0.212-0.793,0l-0.5,0.5c-0.195,0.195-0.512,0.195-0.707,0
			c-0.098-0.098-0.146-0.226-0.146-0.354s0.049-0.256,0.146-0.354l0.75-0.75c0.105-0.106,0.164-0.247,0.164-0.396
			S8.005,15.706,7.9,15.6c-0.209-0.209-0.57-0.211-0.784-0.009L5.857,16.85c-0.195,0.195-0.512,0.195-0.707,0s-0.195-0.512,0-0.707
			l1.25-1.25c0.005-0.005,0.01-0.01,0.015-0.014l1.912-1.912c0.219-0.219,0.219-0.574,0-0.793c-0.213-0.212-0.58-0.212-0.793,0
			L2.857,16.85c-0.144,0.143-0.359,0.187-0.545,0.108c-0.187-0.077-0.309-0.26-0.309-0.462v-2.542
			C2.003,13.427,1.574,12.997,1.045,12.997z"/>
	</g>
	<g>
		<path d="M7.01,9.003c-1.103,0-2-0.897-2-2s0.897-2,2-2s2,0.897,2,2S8.113,9.003,7.01,9.003z M7.01,6.003c-0.552,0-1,0.449-1,1
			s0.448,1,1,1s1-0.449,1-1S7.562,6.003,7.01,6.003z"/>
	</g>
	<g>
		<path d="M5.51,11.003h-2c-0.276,0-0.5-0.224-0.5-0.5v-2c0-0.276,0.224-0.5,0.5-0.5s0.5,0.224,0.5,0.5v1.5h1.5
			c0.276,0,0.5,0.224,0.5,0.5S5.787,11.003,5.51,11.003z"/>
	</g>
	<g>
		<path d="M10.51,6.003c-0.276,0-0.5-0.224-0.5-0.5v-1.5h-1.5c-0.276,0-0.5-0.224-0.5-0.5s0.224-0.5,0.5-0.5h2
			c0.276,0,0.5,0.224,0.5,0.5v2C11.01,5.78,10.787,6.003,10.51,6.003z"/>
	</g>
	<g>
		<path d="M3.51,11.003c-0.128,0-0.256-0.049-0.354-0.146c-0.195-0.195-0.195-0.512,0-0.707l2.44-2.44
			c0.195-0.195,0.512-0.195,0.707,0s0.195,0.512,0,0.707l-2.44,2.44C3.766,10.954,3.638,11.003,3.51,11.003z"/>
	</g>
	<g>
		<path d="M8.07,6.443c-0.128,0-0.256-0.049-0.354-0.146c-0.195-0.195-0.195-0.512,0-0.707l2.44-2.44
			c0.195-0.195,0.512-0.195,0.707,0s0.195,0.512,0,0.707l-2.44,2.44C8.326,6.394,8.198,6.443,8.07,6.443z"/>
	</g>
</g>
<g>
</g>
<g>
</g>
<g>
</g>
<g>
</g>
<g>
</g>
<g>
</g>
<g>
</g>
<g>
</g>
<g>
</g>
<g>
</g>
<g>
</g>
<g>
</g>
<g>
</g>
<g>
</g>
<g>
</g>
</svg>
