<?xml version="1.0" encoding="iso-8859-1"?>
<!-- Generator: Adobe Illustrator 19.0.0, SVG Export Plug-In . SVG Version: 6.00 Build 0)  -->
<svg version="1.1" id="Layer_1" xmlns="http://www.w3.org/2000/svg" xmlns:xlink="http://www.w3.org/1999/xlink" x="0px" y="0px"
	 viewBox="0 0 24 24" style="enable-background:new 0 0 24 24;" xml:space="preserve">
<g>
	<g>
		<path d="M18.55,24H12.5c-0.276,0-0.5-0.224-0.5-0.5c0-1.378,1.122-2.5,2.5-2.5h0.793l-3.823-3.823
			c-0.295-0.295-0.458-0.687-0.458-1.104c0-0.417,0.163-0.809,0.458-1.104c0.589-0.589,1.617-0.589,2.207,0l0.896,0.896
			c0.076-0.171,0.183-0.331,0.323-0.47c0.347-0.347,0.844-0.51,1.322-0.442c0.057-0.296,0.199-0.579,0.428-0.808
			c0.437-0.437,1.07-0.56,1.617-0.37c0.073-0.23,0.201-0.447,0.383-0.63c0.608-0.608,1.599-0.608,2.207,0l1.55,1.55
			C23.433,15.726,24,17.095,24,18.55C24,21.555,21.555,24,18.55,24z M13.085,23h5.465c2.454,0,4.45-1.996,4.45-4.45
			c0-1.188-0.463-2.306-1.303-3.146l-1.55-1.55c-0.219-0.219-0.574-0.219-0.793,0s-0.219,0.574,0,0.793
			C19.451,14.744,19.5,14.872,19.5,15s-0.049,0.256-0.146,0.354c-0.195,0.195-0.512,0.195-0.707,0l-0.5-0.5
			c-0.219-0.219-0.574-0.219-0.793,0c-0.106,0.106-0.164,0.247-0.164,0.396s0.058,0.291,0.164,0.396l0.5,0.5
			C17.951,16.244,18,16.372,18,16.5s-0.049,0.256-0.146,0.354c-0.195,0.195-0.512,0.195-0.707,0l-0.75-0.75
			c-0.212-0.212-0.581-0.212-0.793,0c-0.106,0.106-0.164,0.247-0.164,0.396s0.058,0.291,0.164,0.396l1.25,1.25
			C16.951,18.244,17,18.372,17,18.5s-0.049,0.256-0.146,0.354c-0.195,0.195-0.512,0.195-0.707,0l-3.176-3.176
			c-0.211-0.211-0.581-0.211-0.793,0c-0.106,0.106-0.165,0.247-0.165,0.396c0,0.149,0.059,0.291,0.165,0.396l4.676,4.676
			c0.143,0.143,0.186,0.358,0.108,0.545C16.885,21.878,16.702,22,16.5,22h-2C13.848,22,13.292,22.418,13.085,23z"/>
	</g>
	<g>
		<path d="M10.5,24h-8C1.122,24,0,22.878,0,21.5v-19C0,1.122,1.122,0,2.5,0h12C15.878,0,17,1.122,17,2.5v10
			c0,0.276-0.224,0.5-0.5,0.5S16,12.776,16,12.5v-10C16,1.673,15.327,1,14.5,1h-12C1.673,1,1,1.673,1,2.5v19
			C1,22.327,1.673,23,2.5,23h8c0.276,0,0.5,0.224,0.5,0.5S10.776,24,10.5,24z"/>
	</g>
	<g>
		<path d="M11.5,20h-11C0.224,20,0,19.776,0,19.5S0.224,19,0.5,19h11c0.276,0,0.5,0.224,0.5,0.5S11.776,20,11.5,20z"/>
	</g>
	<g>
		<path d="M9.5,22h-2C7.224,22,7,21.776,7,21.5S7.224,21,7.5,21h2c0.276,0,0.5,0.224,0.5,0.5S9.776,22,9.5,22z"/>
	</g>
	<g>
		<circle cx="2.5" cy="2.5" r="0.5"/>
	</g>
</g>
<g>
</g>
<g>
</g>
<g>
</g>
<g>
</g>
<g>
</g>
<g>
</g>
<g>
</g>
<g>
</g>
<g>
</g>
<g>
</g>
<g>
</g>
<g>
</g>
<g>
</g>
<g>
</g>
<g>
</g>
</svg>
