<?xml version="1.0" encoding="iso-8859-1"?>
<!-- Generator: Adobe Illustrator 19.0.0, SVG Export Plug-In . SVG Version: 6.00 Build 0)  -->
<svg version="1.1" id="Layer_1" xmlns="http://www.w3.org/2000/svg" xmlns:xlink="http://www.w3.org/1999/xlink" x="0px" y="0px"
	 viewBox="0 0 30 30" style="enable-background:new 0 0 30 30;" xml:space="preserve">
<g>
	<g>
		<path d="M11.87,6.476L9.285,0.875L2.651,5.614C2.556,5.682,2.488,5.781,2.458,5.893L0.057,15.02h6.117L11.87,6.476z M22.797,8.958
			l4.065-4.065l-8.167-4.804c-0.085-0.049-0.182-0.071-0.283-0.068l-8.197,0.482L12.8,6.102L22.797,8.958z M12.655,7.101
			l-5.597,8.397l6.537,8.405l9.331-4.199L22.46,9.902L12.655,7.101z M29.919,13.37l-2.41-7.711l-4.057,4.058l0.478,10.032
			l5.043,3.491l0.967-9.671C29.947,13.502,29.94,13.434,29.919,13.37z M13.835,24.892l-1.956,5.087l9.613-0.961
			c0.087-0.008,0.17-0.039,0.241-0.09l6.741-4.815l-5.084-3.521L13.835,24.892z M6.198,16.02H0.082l2.886,8.658
			c0.037,0.11,0.11,0.204,0.209,0.266l7.712,4.82l1.985-5.16L6.198,16.02z"/>
	</g>
</g>
</svg>
