<?xml version="1.0" encoding="iso-8859-1"?>
<!-- Generator: Adobe Illustrator 19.0.0, SVG Export Plug-In . SVG Version: 6.00 Build 0)  -->
<svg version="1.1" id="Layer_1" xmlns="http://www.w3.org/2000/svg" xmlns:xlink="http://www.w3.org/1999/xlink" x="0px" y="0px"
	 viewBox="0 0 30 30" style="enable-background:new 0 0 30 30;" xml:space="preserve">
<g>
	<g>
		<path d="M11.5,9.45c0,0.276-0.224,0.5-0.5,0.5s-0.5-0.224-0.5-0.5V9h-1v12.899l0.543-0.362c0.142-0.094,0.31-0.098,0.457-0.041V21
			c0-0.276,0.224-0.5,0.5-0.5s0.5,0.224,0.5,0.5v0.5c0,0.276-0.224,0.5-0.5,0.5c-0.067,0-0.13-0.014-0.189-0.038
			c-0.003,0.158-0.072,0.313-0.214,0.407l-0.832,0.555c-0.082,0.054-0.174,0.078-0.266,0.081V30h9v-8h-0.316
			c-0.276,0-0.5-0.224-0.5-0.5s0.224-0.5,0.5-0.5H18.5V9h-7V9.45z M11.5,18.899c0,0.276-0.224,0.5-0.5,0.5s-0.5-0.224-0.5-0.5v-1.05
			c0-0.276,0.224-0.5,0.5-0.5s0.5,0.224,0.5,0.5V18.899z M11.5,15.75c0,0.276-0.224,0.5-0.5,0.5s-0.5-0.224-0.5-0.5V14.7
			c0-0.276,0.224-0.5,0.5-0.5s0.5,0.224,0.5,0.5V15.75z M11.5,12.599c0,0.276-0.224,0.5-0.5,0.5s-0.5-0.224-0.5-0.5v-1.05
			c0-0.276,0.224-0.5,0.5-0.5s0.5,0.224,0.5,0.5V12.599z M15.183,21h1c0.276,0,0.5,0.224,0.5,0.5s-0.224,0.5-0.5,0.5h-1
			c-0.276,0-0.5-0.224-0.5-0.5S14.907,21,15.183,21z M12.183,21h1c0.276,0,0.5,0.224,0.5,0.5s-0.224,0.5-0.5,0.5h-1
			c-0.276,0-0.5-0.224-0.5-0.5S11.907,21,12.183,21z M4.5,25.232l0.551-0.367c0.229-0.153,0.54-0.092,0.693,0.139
			c0.153,0.23,0.091,0.54-0.139,0.693l-0.669,0.446L8.5,29.706v-21l-4-4V25.232z M6.716,23.755l0.832-0.555
			c0.23-0.154,0.541-0.091,0.693,0.139c0.153,0.23,0.091,0.54-0.139,0.693l-0.832,0.555c-0.085,0.057-0.182,0.084-0.277,0.084
			c-0.162,0-0.32-0.078-0.417-0.223C6.424,24.219,6.485,23.909,6.716,23.755z M21.001,6.479c0.036,0,0.067,0.013,0.1,0.02
			l3.963-2.642l-3.71-3.71C21.26,0.052,21.133,0,21,0h-9.5c0,0.276-0.224,0.5-0.5,0.5c-0.204,0-0.377-0.123-0.455-0.297L5.064,3.857
			L9.208,8h1.508c0.082-0.058,0.177-0.1,0.285-0.1c0.108,0,0.203,0.042,0.285,0.1h7.564l1.67-1.113
			C20.563,6.656,20.758,6.479,21.001,6.479z M11.5,6.299c0,0.276-0.224,0.5-0.5,0.5s-0.5-0.224-0.5-0.5V5.25
			c0-0.276,0.224-0.5,0.5-0.5s0.5,0.224,0.5,0.5V6.299z M11.5,3.149c0,0.276-0.224,0.5-0.5,0.5s-0.5-0.224-0.5-0.5v-1.05
			c0-0.276,0.224-0.5,0.5-0.5s0.5,0.224,0.5,0.5V3.149z M20.5,1.37c0-0.276,0.224-0.5,0.5-0.5s0.5,0.224,0.5,0.5v0.935
			c0,0.276-0.224,0.5-0.5,0.5s-0.5-0.224-0.5-0.5V1.37z M20.5,4.174c0-0.276,0.224-0.5,0.5-0.5s0.5,0.224,0.5,0.5v0.935
			c0,0.276-0.224,0.5-0.5,0.5s-0.5-0.224-0.5-0.5V4.174z M21.5,7.434v0.479H21.5c0,0.276-0.224,0.5-0.5,0.5
			c-0.218,0-0.398-0.141-0.467-0.334L19.5,8.768v12.354c0.109,0.092,0.183,0.224,0.183,0.378s-0.074,0.287-0.183,0.378v7.889
			l5.455-3.637c-0.119-0.193-0.104-0.445,0.063-0.612c0.131-0.131,0.315-0.166,0.481-0.122V4.766L21.5,7.434z M20.5,9.782
			c0-0.276,0.224-0.5,0.5-0.5s0.5,0.224,0.5,0.5v0.935c0,0.276-0.224,0.5-0.5,0.5s-0.5-0.224-0.5-0.5V9.782z M20.5,12.586
			c0-0.276,0.224-0.5,0.5-0.5s0.5,0.224,0.5,0.5v0.935c0,0.276-0.224,0.5-0.5,0.5s-0.5-0.224-0.5-0.5V12.586z M20.5,15.391
			c0-0.276,0.224-0.5,0.5-0.5s0.5,0.224,0.5,0.5v0.935c0,0.276-0.224,0.5-0.5,0.5s-0.5-0.224-0.5-0.5V15.391z M20.5,18.195
			c0-0.276,0.224-0.5,0.5-0.5s0.5,0.224,0.5,0.5v0.935c0,0.276-0.224,0.5-0.5,0.5s-0.5-0.224-0.5-0.5V18.195z M22.19,22.69
			c-0.098,0.098-0.226,0.146-0.354,0.146s-0.256-0.049-0.354-0.146l-0.707-0.707c-0.023-0.023-0.033-0.051-0.051-0.076
			c-0.133-0.09-0.226-0.234-0.226-0.407V21c0-0.276,0.224-0.5,0.5-0.5s0.5,0.224,0.5,0.5v0.293l0.69,0.69
			C22.386,22.179,22.386,22.495,22.19,22.69z M24.312,24.81c-0.098,0.098-0.226,0.146-0.354,0.146c-0.128,0-0.256-0.049-0.354-0.146
			l-0.707-0.707c-0.194-0.195-0.194-0.511,0.001-0.707c0.195-0.195,0.512-0.195,0.707,0l0.707,0.707
			C24.507,24.299,24.507,24.615,24.312,24.81z"/>
	</g>
</g>
</svg>
