<?xml version="1.0" encoding="iso-8859-1"?>
<!-- Generator: Adobe Illustrator 19.0.0, SVG Export Plug-In . SVG Version: 6.00 Build 0)  -->
<svg version="1.1" id="Layer_1" xmlns="http://www.w3.org/2000/svg" xmlns:xlink="http://www.w3.org/1999/xlink" x="0px" y="0px"
	 viewBox="0 0 30 30" style="enable-background:new 0 0 30 30;" xml:space="preserve">
<g>
	<g>
		<path d="M16.811,12.498L14.55,3.452l-1.508,9.046H16.811z M13.843,16.498h3.968l-0.75-3h-3.968L13.843,16.498z M22.801,13.498
			h-4.708l0.672,2.69L22.801,13.498z M14.939,0.883l2.904,11.616h6.458l0.247-0.165L14.91,0.766l0.028,0.115L14.939,0.883z
			 M5.232,17.498l10.627,11.593l0.041-0.238l-2.839-11.355H5.232z M14.093,17.498l2.228,8.914l1.537-8.914H14.093z M18.909,17.294
			l-1.987,11.522l0.015,0.061c0.031,0.126,0.008,0.25-0.048,0.356c0.003-0.004,0.008-0.007,0.01-0.011l7.941-15.881L18.909,17.294z
			 M11.998,12.682l1.944-11.663l-0.024-0.093L5.16,16.498h0.159L11.998,12.682z M12.811,16.498l-0.684-2.738l-4.792,2.738H12.811z"
			/>
	</g>
</g>
</svg>
