<?xml version="1.0" encoding="iso-8859-1"?>
<!-- Generator: Adobe Illustrator 19.0.0, SVG Export Plug-In . SVG Version: 6.00 Build 0)  -->
<svg version="1.1" id="Layer_1" xmlns="http://www.w3.org/2000/svg" xmlns:xlink="http://www.w3.org/1999/xlink" x="0px" y="0px"
	 viewBox="0 0 24 24" style="enable-background:new 0 0 24 24;" xml:space="preserve">
<g>
	<path d="M11.827,5.5h3.672c0.276,0,0.5-0.224,0.501-0.5V1c0-0.162-0.078-0.314-0.211-0.408c-0.133-0.093-0.303-0.118-0.456-0.063
		c-1.825,0.646-3.314,2.26-3.981,4.317c-0.05,0.152-0.023,0.319,0.071,0.448C11.517,5.423,11.668,5.5,11.827,5.5z M14.999,1.771V4.5
		h-2.444C13.09,3.316,13.967,2.338,14.999,1.771z"/>
	<path d="M20.751,1.066c-0.154-0.089-0.346-0.089-0.5,0c-0.155,0.089-0.25,0.254-0.25,0.433v3.5c0,0.827-0.673,1.5-1.5,1.5h-7
		c-0.276,0-0.5,0.224-0.5,0.5c0,0.537,0.067,1.072,0.199,1.594L0.767,19.025c-0.496,0.496-0.768,1.154-0.768,1.854
		c0,1.445,1.176,2.621,2.621,2.621c0.7,0,1.358-0.272,1.854-0.768l7.915-7.915c0.85-0.85,1.98-1.318,3.182-1.318H17.5
		c3.584,0,6.5-2.916,6.5-6.5C24.001,4.576,22.694,2.192,20.751,1.066z M17.498,12.499h-1.929c-1.469,0-2.85,0.572-3.889,1.611
		l-7.915,7.915C3.46,22.332,3.052,22.5,2.619,22.5c-0.894,0-1.621-0.727-1.621-1.621c0-0.433,0.169-0.84,0.475-1.146L12.111,9.095
		c0.13-0.131,0.179-0.322,0.125-0.499c-0.109-0.359-0.18-0.726-0.214-1.096V7.499h6.476c1.378,0,2.5-1.122,2.5-2.5V2.477
		c1.208,1.072,2,2.811,2,4.522C22.998,10.032,20.531,12.499,17.498,12.499z"/>
	<circle cx="2.999" cy="20.5" r="1"/>
	<path d="M15.723,8.552c-0.247-0.123-0.547-0.023-0.671,0.224l-1,2c-0.123,0.247-0.023,0.547,0.224,0.671
		c0.072,0.036,0.148,0.053,0.223,0.053c0.183,0,0.359-0.101,0.448-0.277l1-2C16.07,8.976,15.97,8.676,15.723,8.552z"/>
	<path d="M17.723,8.552c-0.247-0.123-0.547-0.023-0.671,0.224l-1,2c-0.123,0.247-0.023,0.547,0.224,0.671
		c0.072,0.036,0.148,0.053,0.223,0.053c0.183,0,0.359-0.101,0.448-0.277l1-2C18.07,8.976,17.97,8.676,17.723,8.552z"/>
	<path d="M19.723,8.552c-0.247-0.123-0.547-0.023-0.671,0.224l-1,2c-0.123,0.247-0.023,0.547,0.224,0.671
		c0.072,0.036,0.148,0.053,0.223,0.053c0.183,0,0.359-0.101,0.448-0.277l1-2C20.07,8.976,19.97,8.676,19.723,8.552z"/>
</g>
</svg>
