<?xml version="1.0" encoding="iso-8859-1"?>
<!-- Generator: Adobe Illustrator 19.0.0, SVG Export Plug-In . SVG Version: 6.00 Build 0)  -->
<svg version="1.1" id="Layer_1" xmlns="http://www.w3.org/2000/svg" xmlns:xlink="http://www.w3.org/1999/xlink" x="0px" y="0px"
	 viewBox="0 0 30 30" style="enable-background:new 0 0 30 30;" xml:space="preserve">
<g>
	<g>
		<path d="M29.998,23.401v-0.006c-0.023-3.564-2.928-6.457-6.498-6.457s-6.475,2.893-6.498,6.458c0,0,0,0.002,0,0.003
			c0,0.013-0.002,0.026-0.002,0.04c0,0.026,0.011,0.048,0.015,0.073c0.005,0.032,0.008,0.063,0.019,0.094
			c0.013,0.036,0.032,0.066,0.052,0.097c0.014,0.022,0.026,0.044,0.043,0.064c0.028,0.032,0.062,0.056,0.098,0.08
			c0.015,0.01,0.024,0.024,0.04,0.033c0.005,0.003,0.01,0.002,0.015,0.004c0.037,0.018,0.078,0.027,0.119,0.035
			c0.024,0.005,0.048,0.013,0.072,0.015c0.009,0,0.017,0.005,0.026,0.005c0.031,0,0.058-0.012,0.087-0.018
			c0.026-0.005,0.051-0.007,0.076-0.015c0.038-0.013,0.07-0.033,0.103-0.055c0.021-0.014,0.043-0.025,0.062-0.042
			c0.028-0.025,0.049-0.055,0.071-0.085c0.013-0.018,0.031-0.031,0.042-0.051c0.021-0.038,0.515-0.934,1.558-0.934
			c1.043,0,1.537,0.896,1.557,0.931c0.006,0.012,0.02,0.017,0.027,0.028c0.033,0.054,0.077,0.099,0.13,0.138
			c0.016,0.011,0.027,0.027,0.044,0.036c0.003,0.002,0.005,0.005,0.009,0.007c0.068,0.036,0.14,0.051,0.212,0.054
			c0.007,0,0.014,0.006,0.021,0.006c0.02,0,0.039-0.012,0.059-0.015c0.045-0.006,0.088-0.015,0.131-0.032
			c0.013-0.006,0.028-0.003,0.041-0.01c0.017-0.009,0.027-0.024,0.043-0.035c0.026-0.017,0.049-0.036,0.072-0.058
			c0.025-0.024,0.046-0.05,0.065-0.078c0.01-0.014,0.024-0.023,0.032-0.039c0.017-0.031,0.36-0.635,1.058-0.852v5.618
			c0,0.276-0.225,0.5-0.5,0.5c-0.275,0-0.499-0.224-0.499-0.5s-0.224-0.5-0.5-0.5s-0.5,0.224-0.5,0.5c0,0.827,0.673,1.5,1.5,1.5
			s1.5-0.673,1.5-1.5V22.82c0.698,0.217,1.041,0.82,1.057,0.849c0.006,0.012,0.02,0.017,0.027,0.028
			c0.033,0.054,0.077,0.099,0.13,0.138c0.016,0.011,0.027,0.027,0.044,0.036c0.003,0.002,0.005,0.005,0.009,0.007
			c0.068,0.036,0.14,0.051,0.212,0.054c0.008,0,0.014,0.006,0.021,0.006c0.02,0,0.039-0.012,0.06-0.015
			c0.045-0.006,0.087-0.014,0.129-0.032c0.014-0.006,0.029-0.003,0.042-0.01c0.017-0.009,0.028-0.025,0.044-0.035
			c0.026-0.017,0.048-0.035,0.071-0.057c0.025-0.025,0.047-0.05,0.066-0.079c0.01-0.014,0.024-0.023,0.032-0.038
			c0.021-0.038,0.515-0.934,1.558-0.934c1.043,0,1.537,0.896,1.557,0.931c0.006,0.011,0.018,0.015,0.025,0.026
			c0.036,0.058,0.081,0.106,0.137,0.145c0.017,0.012,0.032,0.024,0.051,0.034c0.067,0.038,0.143,0.064,0.228,0.064
			c0.078,0,0.149-0.021,0.215-0.053c0.005-0.002,0.011-0.001,0.016-0.004c0.02-0.01,0.033-0.028,0.051-0.041
			c0.031-0.022,0.061-0.042,0.086-0.07c0.021-0.022,0.035-0.049,0.051-0.075c0.017-0.028,0.035-0.055,0.047-0.086
			c0.012-0.033,0.016-0.067,0.021-0.102C29.99,23.483,30,23.464,30,23.438C30,23.426,29.998,23.414,29.998,23.401z M10,14.438
			c0,0.133-0.053,0.26-0.146,0.354l-1,1c-0.098,0.097-0.226,0.146-0.354,0.146s-0.256-0.049-0.354-0.146L7,14.645l-1.146,1.146
			c-0.195,0.195-0.512,0.195-0.707,0l-1-1C4.053,14.698,4,14.571,4,14.438V2.918L0.362,3.957C0.148,4.019,0,4.215,0,4.438v21
			c0,0.223,0.148,0.419,0.362,0.481L14,29.815V0.061l-4,1.143V14.438z M11.853,21.792c-0.097,0.098-0.225,0.147-0.353,0.147
			s-0.256-0.049-0.354-0.146L10,20.645v3.793c0,0.276-0.224,0.5-0.5,0.5S9,24.714,9,24.438v-3.793l-1.146,1.146
			c-0.195,0.195-0.512,0.195-0.707,0c-0.195-0.195-0.195-0.512,0-0.707l1.999-1.999c0.046-0.046,0.102-0.083,0.163-0.109
			c0.122-0.051,0.26-0.051,0.382,0c0.062,0.025,0.117,0.062,0.163,0.109l1.999,1.999C12.048,21.279,12.048,21.596,11.853,21.792z
			 M22,26.438v-1c0-0.276-0.224-0.5-0.5-0.5c-0.554,0-1.061-0.311-1.322-0.812c-0.04-0.076-0.098-0.138-0.165-0.182
			c-0.189-0.168-0.38-0.207-0.513-0.207c-0.291,0-0.494,0.179-0.604,0.31c-0.038,0.035-0.071,0.076-0.099,0.124
			c-0.266,0.473-0.764,0.767-1.297,0.767c-0.827,0-1.5-0.673-1.5-1.5c0-4.136,3.364-7.5,7.5-7.5c1.719,0,3.34,0.572,4.687,1.655
			c0.15,0.121,0.356,0.145,0.529,0.061C28.89,17.571,29,17.396,29,17.203V4.438c0-0.223-0.148-0.419-0.362-0.481L15,0.061v29.755
			l4.691-1.34c0.175-0.05,0.31-0.192,0.35-0.37c0.156-0.688,0.756-1.168,1.459-1.168C21.776,26.938,22,26.714,22,26.438z"/>
	</g>
</g>
</svg>
