<?xml version="1.0" encoding="iso-8859-1"?>
<!-- Generator: Adobe Illustrator 19.0.0, SVG Export Plug-In . SVG Version: 6.00 Build 0)  -->
<svg version="1.1" id="Layer_1" xmlns="http://www.w3.org/2000/svg" xmlns:xlink="http://www.w3.org/1999/xlink" x="0px" y="0px"
	 viewBox="0 0 30 30" style="enable-background:new 0 0 30 30;" xml:space="preserve">
<g>
	<g>
		<path d="M0.5,18h17c0.275,0,0.499-0.223,0.5-0.498l0.033-9.077c0-0.001,0-0.001,0-0.001V5.961C18.033,4.328,16.672,3,15,3H3.033
			C1.359,3,0,4.329,0,5.961V17.5C0,17.776,0.224,18,0.5,18z M29.968,16.323l-3-8C26.895,8.128,26.708,8,26.5,8h-7
			C19.224,8,19,8.224,19,8.5V19H0.5C0.224,19,0,19.224,0,19.5v3.75C0,24.214,0.785,25,1.75,25h2.434C4.598,26.161,5.698,27,7,27
			s2.402-0.839,2.816-2h11.369c0.414,1.161,1.514,2,2.816,2s2.402-0.839,2.816-2h1.434c0.965,0,1.75-0.785,1.75-1.75V16.5
			C30,16.44,29.989,16.38,29.968,16.323z M7,26c-1.103,0-2-0.897-2-2c0-1.103,0.897-2,2-2c1.103,0,2,0.897,2,2
			C9,25.102,8.103,26,7,26z M24,26c-1.103,0-2-0.897-2-2c0-1.103,0.897-2,2-2c1.103,0,2,0.897,2,2C26,25.102,25.103,26,24,26z
			 M26.5,16h-5c-0.276,0-0.5-0.224-0.5-0.5v-5c0-0.276,0.224-0.5,0.5-0.5s0.5,0.224,0.5,0.5V15h4.5c0.276,0,0.5,0.224,0.5,0.5
			S26.776,16,26.5,16z"/>
	</g>
</g>
</svg>
