<?xml version="1.0" encoding="utf-8"?>
<!-- Generator: Adobe Illustrator 19.0.0, SVG Export Plug-In . SVG Version: 6.00 Build 0)  -->
<svg version="1.1" id="Layer_1" xmlns="http://www.w3.org/2000/svg" xmlns:xlink="http://www.w3.org/1999/xlink" x="0px" y="0px"
	 viewBox="0 0 30 30" style="enable-background:new 0 0 30 30;" xml:space="preserve">
<g>
	<g>
		<path d="M18.4,25H4.5C2,25,0,22.9,0,20.5c0-2.3,1.7-4.2,4-4.4c0-0.1,0-0.2,0-0.3c0-4.2,3.4-7.7,7.6-7.7c3.5,0,6.5,2.3,7.4,5.6
			c2.9,0.3,5,2.7,5,5.6C24,22.4,21.5,25,18.4,25z M4.5,17C2.6,17,1,18.6,1,20.5C1,22.4,2.6,24,4.5,24h13.9c2.6,0,4.7-2.1,4.7-4.7
			c0-2.5-2-4.6-4.5-4.7c-0.2,0-0.4-0.2-0.5-0.4c-0.7-3.1-3.4-5.2-6.5-5.2C8,9.1,5,12,5,15.7c0,0.3,0,0.5,0,0.7c0,0.2,0,0.3-0.1,0.4
			C4.8,17,4.6,17,4.5,17C4.5,17,4.5,17,4.5,17z"/>
	</g>
	<g>
		<path d="M25.2,21.9c-0.2,0-0.4-0.2-0.5-0.4c0-0.3,0.1-0.5,0.4-0.6c2.2-0.4,3.9-2.3,3.9-4.6c0-2.5-2-4.6-4.5-4.7
			c-0.2,0-0.4-0.2-0.5-0.4c-0.7-3.1-3.4-5.2-6.5-5.2c-1.3,0-2.6,0.4-3.7,1.1c-0.2,0.2-0.5,0.1-0.7-0.1c-0.2-0.2-0.1-0.5,0.1-0.7
			C14.6,5.5,16,5,17.6,5c3.5,0,6.5,2.3,7.4,5.6c2.9,0.3,5,2.7,5,5.6C30,19,28,21.4,25.2,21.9C25.3,21.9,25.3,21.9,25.2,21.9z"/>
	</g>
</g>
</svg>
