<?xml version="1.0" encoding="utf-8"?>
<!-- Generator: Adobe Illustrator 19.0.0, SVG Export Plug-In . SVG Version: 6.00 Build 0)  -->
<svg version="1.1" id="Layer_1" xmlns="http://www.w3.org/2000/svg" xmlns:xlink="http://www.w3.org/1999/xlink" x="0px" y="0px"
	 viewBox="0 0 30 30" style="enable-background:new 0 0 30 30;" xml:space="preserve">
<g>
	<g>
		<path d="M1.8,19.3c-0.1,0-0.3-0.1-0.4-0.2c-0.9-1-1.4-2.3-1.4-3.6c0-2.9,2.2-5.2,5.1-5.5c0-0.3,0-0.5,0-0.8C5,4.1,9.2,0,14.4,0
			c4.5,0,8.3,3.2,9.1,7.5c3.6,0.2,6.5,3.1,6.5,6.7c0,0.6-0.1,1.1-0.3,1.8c-0.1,0.3-0.3,0.4-0.6,0.3c-0.3-0.1-0.4-0.3-0.3-0.6
			c0.2-0.6,0.2-1.1,0.2-1.5c0-3.2-2.6-5.8-5.8-5.8c-0.2,0-0.6-0.2-0.6-0.4C22,4,18.5,1,14.4,1C9.8,1,6,4.7,6,9.3
			c0,0.4,0,0.7,0.1,1.2c0,0.1,0,0.3-0.1,0.4C5.9,10.9,5.7,11,5.6,11c0,0-0.1,0-0.1,0C3,11,1,13,1,15.5c0,1.1,0.4,2.1,1.1,2.9
			c0.2,0.2,0.2,0.5,0,0.7C2,19.2,1.9,19.3,1.8,19.3z"/>
	</g>
	<g>
		<path d="M24.5,27H7c-1.7,0-3-1.3-3-3v-9c0-1.7,1.3-3,3-3h5.5c0.3,0,0.5,0.2,0.5,0.5S12.8,13,12.5,13H7c-1.1,0-2,0.9-2,2v9
			c0,1.1,0.9,2,2,2h17.5c1.4,0,1.5-1.4,1.5-2v-9c0-0.6-0.1-2-1.5-2h-6c-0.3,0-0.5-0.2-0.5-0.5s0.2-0.5,0.5-0.5h6
			c1.5,0,2.5,1.2,2.5,3v9C27,25.8,26,27,24.5,27z"/>
	</g>
	<g>
		<path d="M26,24H5c-0.3,0-0.5-0.2-0.5-0.5S4.7,23,5,23h21c0.3,0,0.5,0.2,0.5,0.5S26.3,24,26,24z"/>
	</g>
	<g>
		<path d="M15.5,29.8c-0.3,0-0.5-0.2-0.5-0.5v-2.5c0-0.3,0.2-0.5,0.5-0.5s0.5,0.2,0.5,0.5v2.5C16,29.5,15.8,29.8,15.5,29.8z"/>
	</g>
	<g>
		<path d="M20.5,30h-10c-0.3,0-0.5-0.2-0.5-0.5s0.2-0.5,0.5-0.5h10c0.3,0,0.5,0.2,0.5,0.5S20.8,30,20.5,30z"/>
	</g>
	<g>
		<g>
			<path d="M15.5,19c-0.3,0-0.5-0.2-0.5-0.5V7.7l-1.6,1.6c-0.2,0.2-0.5,0.2-0.7,0s-0.2-0.5,0-0.7l2.5-2.5C15.3,6,15.5,6,15.7,6
				C15.9,6.1,16,6.3,16,6.5v12C16,18.8,15.8,19,15.5,19z"/>
		</g>
		<g>
			<path d="M18,9.5c-0.1,0-0.3,0-0.4-0.1l-2.5-2.5c-0.2-0.2-0.2-0.5,0-0.7s0.5-0.2,0.7,0l2.5,2.5c0.2,0.2,0.2,0.5,0,0.7
				C18.3,9.5,18.1,9.5,18,9.5z"/>
		</g>
	</g>
</g>
</svg>
