<?xml version="1.0" encoding="iso-8859-1"?>
<!-- Generator: Adobe Illustrator 19.0.0, SVG Export Plug-In . SVG Version: 6.00 Build 0)  -->
<svg version="1.1" id="Layer_1" xmlns="http://www.w3.org/2000/svg" xmlns:xlink="http://www.w3.org/1999/xlink" x="0px" y="0px"
	 viewBox="0 0 24 24" style="enable-background:new 0 0 24 24;" xml:space="preserve">
<g>
	<g>
		<path d="M21.366,8.084C21.146,4.112,17.857,1,13.878,1h-2.756C7.813,1,4.987,3.156,4.001,6.166V1.809l1.724-0.862
			C5.932,0.843,6.041,0.61,5.988,0.385C5.935,0.16,5.733,0,5.501,0h-2c-0.276,0-0.5,0.224-0.5,0.5v6.592
			c-0.581,0.207-1,0.757-1,1.408v7c0,0.702,0.487,1.289,1.14,1.451l-0.14,2.521c-0.01,0.177,0.075,0.346,0.222,0.444l4.236,2.824
			C8.696,23.564,10.134,24,11.62,24h1.761c1.486,0,2.925-0.436,4.16-1.26l4.236-2.824c0.148-0.098,0.232-0.267,0.222-0.444
			L21.366,8.084z M3.634,8.084L3.2,15.889c-0.118-0.091-0.199-0.228-0.199-0.389v-7c0-0.276,0.224-0.5,0.5-0.5h0.142
			C3.64,8.028,3.635,8.056,3.634,8.084z M11.124,2h2.756c3.056,0,5.639,2.121,6.321,5H4.803C5.484,4.121,8.067,2,11.124,2z
			 M8.001,21.9l-3.985-2.657l0.288-5.172c2.128,0.411,3.697,2.255,3.697,4.457V21.9z M14.501,13.474l-0.499,9.482
			c-0.206,0.02-0.411,0.045-0.62,0.045h-1.761c-0.21,0-0.416-0.026-0.623-0.046l-0.499-9.481c-0.011-0.205-0.146-0.383-0.341-0.448
			l-3.816-1.272C6.137,11.685,6,11.494,6,11.279V10.5C6,10.224,6.224,10,6.5,10h12c0.276,0,0.5,0.224,0.5,0.5v0.779
			c0,0.216-0.137,0.407-0.342,0.475l-3.816,1.272C14.647,13.091,14.512,13.269,14.501,13.474z M16.001,22.44
			c-0.32,0.141-0.65,0.252-0.988,0.34l0.469-8.913l3.493-1.165C19.588,12.497,20,11.925,20,11.279V10.5C20,9.673,19.327,9,18.5,9
			h-12C5.673,9,5,9.673,5,10.5v0.779c0,0.647,0.412,1.218,1.025,1.423l3.493,1.165l0.469,8.912
			c-0.337-0.088-0.667-0.198-0.986-0.339v-3.911c0-2.732-1.978-5.016-4.641-5.462L4.634,8.14C4.636,8.093,4.645,8.047,4.648,8
			h15.707c0.004,0.047,0.012,0.093,0.015,0.14l0.274,4.925c-2.663,0.447-4.643,2.731-4.643,5.463V22.44z M17.001,21.9v-3.372
			c0-2.202,1.57-4.047,3.699-4.457l0.287,5.172L17.001,21.9z"/>
	</g>
</g>
</svg>
