<?xml version="1.0" encoding="iso-8859-1"?>
<!-- Generator: Adobe Illustrator 19.0.0, SVG Export Plug-In . SVG Version: 6.00 Build 0)  -->
<svg version="1.1" id="Layer_1" xmlns="http://www.w3.org/2000/svg" xmlns:xlink="http://www.w3.org/1999/xlink" x="0px" y="0px"
	 viewBox="0 0 24 24" style="enable-background:new 0 0 24 24;" xml:space="preserve">
<g>
	<g>
		<path d="M24.237,2.385c-0.04-0.169-0.164-0.304-0.329-0.359l-4.5-1.5c-0.18-0.061-0.378-0.013-0.512,0.121l-1.146,1.146
			l-0.146-0.146c-0.195-0.195-0.512-0.195-0.707,0l-2,2c-0.195,0.195-0.195,0.512,0,0.707l0.146,0.146l-3.293,3.293l-1.146-1.146
			c-0.195-0.195-0.512-0.195-0.707,0l-3,3c-0.195,0.195-0.195,0.512,0,0.707l1.146,1.146l-0.793,0.793l-0.146-0.146
			c-0.143-0.143-0.357-0.186-0.545-0.108c-0.1,0.041-0.182,0.113-0.236,0.202c-0.344,0.412-3.793,3.818-5.922,5.902
			c-0.095,0.094-0.15,0.221-0.15,0.355c-0.001,0.133,0.052,0.262,0.146,0.356l0.146,0.146l-0.115,0.115
			c-0.43,0.43-0.677,1.025-0.677,1.634s0.247,1.204,0.677,1.634l0.439,0.439C1.296,23.253,1.892,23.5,2.5,23.5
			c0.608,0,1.204-0.247,1.634-0.677l0.115-0.115l0.146,0.146C4.494,22.951,4.622,23,4.75,23s0.256-0.049,0.353-0.146l6-6
			c0.195-0.195,0.195-0.512,0-0.707l-0.146-0.147l5.293-5.293l0.646,0.646c0.098,0.097,0.226,0.146,0.354,0.146
			s0.256-0.049,0.353-0.146l1.5-1.5c0.195-0.195,0.195-0.512,0-0.707l-0.646-0.646l0.293-0.293l0.146,0.146
			C18.994,8.451,19.122,8.5,19.25,8.5s0.256-0.049,0.353-0.146l2-2c0.195-0.195,0.195-0.512,0-0.707L21.456,5.5l2.647-2.647
			C24.226,2.731,24.277,2.553,24.237,2.385z M7.957,10.001l2.293-2.293l0.792,0.792l-2.293,2.293L7.957,10.001z M7.749,14.208
			l0.293,0.293L2.75,19.793L2.457,19.5L7.749,14.208z M6.766,13.223l0.128,0.128c0.001,0.001,0.001,0.002,0.002,0.003l0.146,0.146
			L1.75,18.793l-0.144-0.144c-0.001-0.001-0.001-0.002-0.002-0.003s-0.002-0.001-0.003-0.002l-0.14-0.14
			C4.718,15.313,6.143,13.898,6.766,13.223z M3.427,22.116c-0.489,0.487-1.366,0.487-1.854,0l-0.439-0.439
			C0.89,21.433,0.75,21.095,0.75,20.75c0-0.345,0.14-0.683,0.384-0.927l0.115-0.115l2.293,2.293L3.427,22.116z M3.75,20.793
			L3.457,20.5l5.292-5.292l0.293,0.293L3.75,20.793z M4.75,21.793l-0.144-0.144c-0.001-0.001-0.001-0.002-0.002-0.003
			s-0.002-0.001-0.003-0.002L4.457,21.5l5.292-5.292l0.146,0.146c0.001,0.001,0.002,0.001,0.003,0.002l0.144,0.144L4.75,21.793z
			 M10.25,15.293L7.957,13l0.792-0.792l2.293,2.293L10.25,15.293z M11.749,13.794l-2.293-2.293l2.293-2.293l2.293,2.293
			L11.749,13.794z M17.249,10.293l-0.292-0.292l0.793-0.793L18.042,9.5L17.249,10.293z M17.396,8.147
			C17.396,8.147,17.396,8.147,17.396,8.147C17.396,8.147,17.396,8.147,17.396,8.147l-1.5,1.5c0,0,0,0,0,0s0,0,0,0l-1.146,1.146
			l-2.293-2.293l0.793-0.793l0.646,0.646C13.994,8.451,14.122,8.5,14.25,8.5s0.256-0.049,0.353-0.146
			c0.195-0.195,0.195-0.512,0-0.707l-0.646-0.646l0.793-0.793l0.646,0.646C15.494,6.951,15.622,7,15.75,7s0.256-0.049,0.353-0.146
			c0.195-0.195,0.195-0.512,0-0.707l-0.646-0.646l0.293-0.293l2.293,2.293L17.396,8.147z M19.25,7.293L15.957,4l1.293-1.293
			l0.144,0.144c0.001,0.001,0.001,0.002,0.002,0.003l3,3c0.001,0.001,0.002,0.001,0.003,0.002L20.543,6L19.25,7.293z M20.75,4.793
			L18.457,2.5l0.928-0.927l3.439,1.146L20.75,4.793z"/>
	</g>
</g>
</svg>
