<?xml version="1.0" encoding="iso-8859-1"?>
<!-- Generator: Adobe Illustrator 19.0.0, SVG Export Plug-In . SVG Version: 6.00 Build 0)  -->
<svg version="1.1" id="Layer_1" xmlns="http://www.w3.org/2000/svg" xmlns:xlink="http://www.w3.org/1999/xlink" x="0px" y="0px"
	 viewBox="0 0 24 24" style="enable-background:new 0 0 24 24;" xml:space="preserve">
<g>
	<g>
		<path d="M23.5,14H23v-2h0.5c0.276,0,0.5-0.224,0.5-0.5S23.776,11,23.5,11H23v-0.5C23,9.673,22.327,9,21.5,9h-1
			C20.224,9,20,9.224,20,9.5V10h-1.499c0,0,0,0-0.001,0s0,0,0,0c-0.014,0-0.026,0.007-0.039,0.008
			c-0.053,0.004-0.105,0.011-0.153,0.031c-0.055,0.023-0.102,0.057-0.145,0.097c-0.005,0.004-0.011,0.006-0.016,0.011l0,0
			c0,0,0,0,0,0L17.293,11H16v-0.5c0-1.207-0.859-2.217-1.999-2.449V6.499c0-0.276-0.224-0.5-0.5-0.5
			c-0.945,0-1.87,1.315-2.287,2.001H2.5C1.121,8,0,9.122,0,10.5v5C0,16.878,1.121,18,2.5,18h11c1.208,0,2.217-0.861,2.449-2H20v0.5
			c0,0.276,0.224,0.5,0.5,0.5h1c0.827,0,1.5-0.673,1.5-1.5V15h0.5c0.276,0,0.5-0.224,0.5-0.5S23.776,14,23.5,14z M13,7.318V8h-0.58
			C12.617,7.732,12.819,7.493,13,7.318z M15,15.5c0,0.827-0.673,1.5-1.5,1.5H7v-0.5C7,16.224,6.776,16,6.5,16S6,16.224,6,16.5V17H5
			v-0.5C5,16.224,4.776,16,4.5,16S4,16.224,4,16.5V17H3v-0.5C3,16.224,2.776,16,2.5,16S2,16.224,2,16.5v0.408
			c-0.581-0.207-1-0.757-1-1.408v-5C1,9.673,1.673,9,2.5,9h11c0.651,0,1.201,0.419,1.408,1H3.5C2.673,10,2,10.673,2,11.5v3
			C2,15.327,2.673,16,3.5,16H10c0.276,0,0.5-0.224,0.5-0.5V15H15V15.5z M4.5,14h5v1h-6C3.225,15,3,14.776,3,14.5v-3
			C3,11.224,3.225,11,3.5,11H4v2.5C4,13.776,4.224,14,4.5,14z M5,13v-2h4.5v2H5z M15,14h-4.5v-3H15V14z M18,15h-2v-3h1.5
			c0.133,0,0.26-0.053,0.354-0.146L18,11.708V15z M20,15h-1v-4h1V15z M22,15.5c0,0.276-0.225,0.5-0.5,0.5H21v-5.495
			c0-0.002,0.001-0.003,0.001-0.005S21,10.497,21,10.495V10h0.5c0.275,0,0.5,0.224,0.5,0.5V15.5z"/>
	</g>
</g>
</svg>
