<?xml version="1.0" encoding="utf-8"?>
<!-- Generator: Adobe Illustrator 19.0.0, SVG Export Plug-In . SVG Version: 6.00 Build 0)  -->
<svg version="1.1" id="Layer_1" xmlns="http://www.w3.org/2000/svg" xmlns:xlink="http://www.w3.org/1999/xlink" x="0px" y="0px"
	 viewBox="-239 289 24 24" style="enable-background:new -239 289 24 24;" xml:space="preserve">
<g>
	<path d="M-215.1,293.2c-0.1-0.1-0.2-0.2-0.4-0.2h-19l-0.5-2.6c0-0.2-0.3-0.4-0.5-0.4h-3c-0.3,0-0.5,0.2-0.5,0.5s0.2,0.5,0.5,0.5
		h2.6l2.4,12.2c0.3,1.6,1.8,2.8,3.4,2.8h11.5c0.3,0,0.5-0.2,0.5-0.5s-0.2-0.5-0.5-0.5H-230c-0.8,0-1.6-0.4-2-1.1l14.6-2
		c0.2,0,0.4-0.2,0.4-0.4l2-8C-215,293.5-215,293.3-215.1,293.2z M-217.9,301l-14.6,1.9l-1.8-9h18.1L-217.9,301z"/>
	<path d="M-230.5,307c-1.4,0-2.5,1.1-2.5,2.5s1.1,2.5,2.5,2.5c1.4,0,2.5-1.1,2.5-2.5S-229.1,307-230.5,307z M-230.5,311
		c-0.8,0-1.5-0.7-1.5-1.5s0.7-1.5,1.5-1.5s1.5,0.7,1.5,1.5S-229.7,311-230.5,311z"/>
	<path d="M-220.5,307c-1.4,0-2.5,1.1-2.5,2.5s1.1,2.5,2.5,2.5c1.4,0,2.5-1.1,2.5-2.5S-219.1,307-220.5,307z M-220.5,311
		c-0.8,0-1.5-0.7-1.5-1.5s0.7-1.5,1.5-1.5s1.5,0.7,1.5,1.5S-219.7,311-220.5,311z"/>
</g>
</svg>
