<?xml version="1.0" encoding="utf-8"?>
<!-- Generator: Adobe Illustrator 19.0.0, SVG Export Plug-In . SVG Version: 6.00 Build 0)  -->
<svg version="1.1" id="Layer_1" xmlns="http://www.w3.org/2000/svg" xmlns:xlink="http://www.w3.org/1999/xlink" x="0px" y="0px"
	 viewBox="-239 289 24 24" style="enable-background:new -239 289 24 24;" xml:space="preserve">
<g>
	<path d="M-215.5,295h-1c-0.3,0-0.5,0.2-0.5,0.5s0.2,0.5,0.5,0.5h0.5v13h-19v-0.5c0-0.3-0.2-0.5-0.5-0.5s-0.5,0.2-0.5,0.5v1
		c0,0.3,0.2,0.5,0.5,0.5h20c0.3,0,0.5-0.2,0.5-0.5v-14C-215,295.2-215.2,295-215.5,295z"/>
	<path d="M-222.5,295h2c0.3,0,0.5-0.2,0.5-0.5s-0.2-0.5-0.5-0.5h-2c-0.3,0-0.5,0.2-0.5,0.5S-222.8,295-222.5,295z"/>
	<path d="M-236.5,305h2c0.3,0,0.5-0.2,0.5-0.5s-0.2-0.5-0.5-0.5h-2c-0.3,0-0.5,0.2-0.5,0.5S-236.8,305-236.5,305z"/>
	<path d="M-218,306.5v-14c0-0.3-0.2-0.5-0.5-0.5h-20c-0.3,0-0.5,0.2-0.5,0.5v14c0,0.3,0.2,0.5,0.5,0.5h20
		C-218.2,307-218,306.8-218,306.5z M-219,306h-19v-13h19V306z"/>
	<path d="M-230,301c0-0.3-0.3-0.5-0.5-0.5c-0.3,0-0.5,0.3-0.5,0.5c0.1,0.9,0.9,1.7,2,1.8v0.5c0,0.3,0.2,0.5,0.5,0.5s0.5-0.2,0.5-0.5
		V303c1.1-0.2,2-1,2-2c0-0.9-0.7-1.6-2-1.9v-2c0.6,0.1,1,0.5,1,0.9c0,0.3,0.3,0.5,0.5,0.5c0.3,0,0.5-0.3,0.5-0.5
		c-0.1-0.9-0.9-1.7-2-1.8v-0.5c0-0.3-0.2-0.5-0.5-0.5s-0.5,0.2-0.5,0.5v0.5c-1.1,0.2-2,1-2,2c0,0.7,0.7,1.4,2,1.7v2
		C-229.6,301.8-230,301.4-230,301z M-228,300.1c0.7,0.2,1,0.5,1,0.9s-0.4,0.8-1,0.9V300.1z M-230,298c0-0.4,0.4-0.8,1-0.9v1.8
		C-229.7,298.7-230,298.4-230,298z"/>
</g>
</svg>
