<?xml version="1.0" encoding="utf-8"?>
<!-- Generator: Adobe Illustrator 19.0.0, SVG Export Plug-In . SVG Version: 6.00 Build 0)  -->
<svg version="1.1" id="Layer_1" xmlns="http://www.w3.org/2000/svg" xmlns:xlink="http://www.w3.org/1999/xlink" x="0px" y="0px"
	 viewBox="-239 289 24 24" style="enable-background:new -239 289 24 24;" xml:space="preserve">
<g>
	<circle cx="-228.7" cy="310" r="1"/>
	<path d="M-224.7,291c-0.3,0-0.5,0.2-0.5,0.5s0.2,0.5,0.5,0.5s0.5-0.2,0.5-0.5S-224.5,291-224.7,291z"/>
	<path d="M-227.7,291h-2c-0.3,0-0.5,0.2-0.5,0.5s0.2,0.5,0.5,0.5h2c0.3,0,0.5-0.2,0.5-0.5S-227.5,291-227.7,291z"/>
	<path d="M-217.9,296.2c-0.1-0.1-0.2-0.2-0.4-0.2h-10.4l-0.2-0.6c-0.1-0.2-0.3-0.4-0.5-0.4h-2c-0.3,0-0.5,0.2-0.5,0.5
		s0.2,0.5,0.5,0.5h1.6l1.9,7.6c0.1,0.2,0.3,0.4,0.5,0.4h0.1c0.3-0.1,0.4-0.3,0.4-0.6l-0.4-1.4l7.9-0.9c0.2,0,0.4-0.2,0.4-0.4l1-4
		C-217.7,296.5-217.8,296.3-217.9,296.2z M-219.7,300l-7.7,0.9l-1-4h9.5L-219.7,300z"/>
	<path d="M-221.2,303c-0.8,0-1.5,0.7-1.5,1.5s0.7,1.5,1.5,1.5s1.5-0.7,1.5-1.5S-220.4,303-221.2,303z M-221.2,305
		c-0.3,0-0.5-0.2-0.5-0.5s0.2-0.5,0.5-0.5s0.5,0.2,0.5,0.5S-221,305-221.2,305z"/>
	<path d="M-223.7,304.5c0-0.8-0.7-1.5-1.5-1.5s-1.5,0.7-1.5,1.5s0.7,1.5,1.5,1.5C-224.4,306-223.7,305.3-223.7,304.5z M-225.7,304.5
		c0-0.3,0.2-0.5,0.5-0.5s0.5,0.2,0.5,0.5s-0.2,0.5-0.5,0.5S-225.7,304.8-225.7,304.5z"/>
	<path d="M-221.7,307h-13.5v-13h13v0.5c0,0.3,0.2,0.5,0.5,0.5s0.5-0.2,0.5-0.5v-2c0-1.9-1.6-3.5-3.5-3.5h-8c-1.9,0-3.5,1.6-3.5,3.5
		v17c0,1.9,1.6,3.5,3.5,3.5h8c1.9,0,3.5-1.6,3.5-3.5v-2C-221.2,307.2-221.5,307-221.7,307z M-235.2,292.5c0-1.4,1.1-2.5,2.5-2.5h8
		c1.4,0,2.5,1.1,2.5,2.5v0.5h-13V292.5z M-222.2,309.5c0,1.4-1.1,2.5-2.5,2.5h-8c-1.4,0-2.5-1.1-2.5-2.5V308h13V309.5z"/>
</g>
</svg>
