<?xml version="1.0" encoding="iso-8859-1"?>
<!-- Generator: Adobe Illustrator 19.0.0, SVG Export Plug-In . SVG Version: 6.00 Build 0)  -->
<svg version="1.1" id="Layer_1" xmlns="http://www.w3.org/2000/svg" xmlns:xlink="http://www.w3.org/1999/xlink" x="0px" y="0px"
	 viewBox="0 0 24 24" style="enable-background:new 0 0 24 24;" xml:space="preserve">
<g>
	<g>
		<path d="M11.99,18c4.963,0,9-4.038,9-9c0-4.962-4.037-9-9-9s-9,4.038-9,9C2.99,13.962,7.027,18,11.99,18z M11.136,7.146l1-1
			c0.143-0.143,0.359-0.186,0.545-0.108c0.187,0.077,0.309,0.26,0.309,0.462v5c0,0.276-0.224,0.5-0.5,0.5s-0.5-0.224-0.5-0.5V7.707
			l-0.146,0.146c-0.195,0.195-0.512,0.195-0.707,0S10.941,7.342,11.136,7.146z M20.913,23.204l-2.228-5.94
			c-0.055-0.146-0.176-0.259-0.326-0.304c-0.147-0.044-0.313-0.016-0.438,0.078c-1.686,1.246-3.683,1.921-5.774,1.954
			c-0.033,0-0.062,0.017-0.093,0.024C12.031,19.013,12.012,19,11.99,19c-2.144,0-4.193-0.679-5.931-1.962
			c-0.126-0.094-0.291-0.122-0.438-0.078c-0.15,0.044-0.271,0.157-0.326,0.304l-2.272,6.06c-0.072,0.193-0.02,0.41,0.133,0.547
			C3.25,23.956,3.369,24,3.49,24c0.076,0,0.152-0.017,0.224-0.053l3.74-1.87l2.759,1.839c0.126,0.084,0.286,0.105,0.431,0.06
			c0.146-0.047,0.262-0.158,0.314-0.3l1.092-2.913l0.965,2.896c0.05,0.148,0.165,0.264,0.313,0.315
			c0.147,0.05,0.31,0.03,0.439-0.057l2.759-1.839l3.74,1.87C20.338,23.983,20.414,24,20.49,24c0.008,0.001,0.015,0,0.02,0
			c0.276,0,0.5-0.224,0.5-0.5C21.01,23.389,20.974,23.287,20.913,23.204z"/>
	</g>
</g>
</svg>
