<?xml version="1.0" encoding="iso-8859-1"?>
<!-- Generator: Adobe Illustrator 19.0.0, SVG Export Plug-In . SVG Version: 6.00 Build 0)  -->
<svg version="1.1" id="Layer_1" xmlns="http://www.w3.org/2000/svg" xmlns:xlink="http://www.w3.org/1999/xlink" x="0px" y="0px"
	 viewBox="0 0 24 24" style="enable-background:new 0 0 24 24;" xml:space="preserve">
<g>
	<g>
		<path d="M18.5,12.989c-3.032,0-5.5,2.467-5.5,5.5c0,3.033,2.468,5.5,5.5,5.5c3.032,0,5.5-2.467,5.5-5.5
			C24,15.456,21.532,12.989,18.5,12.989z M20.5,18.989H19v1.5c0,0.276-0.224,0.5-0.5,0.5s-0.5-0.224-0.5-0.5v-1.5h-1.5
			c-0.276,0-0.5-0.224-0.5-0.5s0.224-0.5,0.5-0.5H18v-1.5c0-0.276,0.224-0.5,0.5-0.5s0.5,0.224,0.5,0.5v1.5h1.5
			c0.276,0,0.5,0.224,0.5,0.5S20.776,18.989,20.5,18.989z M18.5,11.989c0.294,0,0.582,0.027,0.864,0.064
			c0.162,0.023,0.31-0.032,0.42-0.142l3.069-3.069c0.135-0.134,0.181-0.334,0.12-0.514c-0.062-0.18-0.22-0.31-0.408-0.335
			l-7.242-0.96l-3.376-6.768c-0.168-0.339-0.727-0.339-0.895,0L7.676,7.033l-7.242,0.96C0.246,8.018,0.087,8.148,0.026,8.328
			c-0.061,0.18-0.015,0.379,0.12,0.514l5.311,5.311L4.01,21.39c-0.037,0.188,0.035,0.379,0.187,0.496
			c0.088,0.068,0.196,0.103,0.303,0.103c0.076,0,0.153-0.018,0.224-0.053l6.884-3.442c0.058-0.01,0.113-0.029,0.165-0.059
			c0.146-0.083,0.239-0.233,0.251-0.399C12.258,14.645,15.104,11.989,18.5,11.989z"/>
	</g>
</g>
</svg>
