<?xml version="1.0" encoding="iso-8859-1"?>
<!-- Generator: Adobe Illustrator 19.0.0, SVG Export Plug-In . SVG Version: 6.00 Build 0)  -->
<svg version="1.1" id="Layer_1" xmlns="http://www.w3.org/2000/svg" xmlns:xlink="http://www.w3.org/1999/xlink" x="0px" y="0px"
	 viewBox="0 0 24 24" style="enable-background:new 0 0 24 24;" xml:space="preserve">
<g>
	<g>
		<path d="M23.474,9.328c-0.062-0.18-0.22-0.31-0.408-0.335l-7.242-0.96l-3.376-6.768c-0.168-0.339-0.727-0.339-0.895,0L8.177,8.033
			l-7.242,0.96C0.747,9.018,0.588,9.148,0.527,9.328c-0.061,0.18-0.015,0.379,0.12,0.514l5.311,5.311L4.511,22.39
			c-0.037,0.188,0.035,0.379,0.187,0.496c0.152,0.116,0.358,0.135,0.527,0.05l6.776-3.388l6.776,3.388
			c0.071,0.035,0.147,0.053,0.224,0.053c0.107,0,0.215-0.035,0.304-0.103c0.151-0.116,0.224-0.308,0.187-0.496l-1.447-7.237
			l5.311-5.311C23.488,9.708,23.534,9.509,23.474,9.328z"/>
	</g>
</g>
</svg>
