<?xml version="1.0" encoding="iso-8859-1"?>
<!-- Generator: Adobe Illustrator 19.0.0, SVG Export Plug-In . SVG Version: 6.00 Build 0)  -->
<svg version="1.1" id="Layer_1" xmlns="http://www.w3.org/2000/svg" xmlns:xlink="http://www.w3.org/1999/xlink" x="0px" y="0px"
	 viewBox="0 0 24 24" style="enable-background:new 0 0 24 24;" xml:space="preserve">
<g>
	<g>
		<path d="M13.213,17C13.077,17.478,13,17.979,13,18.5s0.077,1.022,0.213,1.5h2.843C16.02,19.506,16,19.003,16,18.5
			s0.02-1.006,0.056-1.5H13.213z M17.987,13.026c-0.315,0.568-0.64,1.578-0.828,2.974h2.682c-0.187-1.396-0.513-2.406-0.828-2.974
			C18.844,13.01,18.673,13,18.5,13S18.156,13.01,17.987,13.026z M12,18.5c0-3.584,2.916-6.5,6.5-6.5c0.84,0,1.664,0.162,2.448,0.48
			c0.213,0.088,0.458,0.018,0.592-0.168l1.2-1.645C23.564,9.515,24,8.16,24,6.75C24,3.028,20.972,0,17.25,0
			C15.192,0,13.277,0.928,12,2.514C10.723,0.928,8.808,0,6.75,0C3.028,0,0,3.028,0,6.75c0,1.41,0.436,2.765,1.263,3.922
			l9.112,12.492c0.009,0.012,0.019,0.024,0.028,0.035C10.782,23.701,11.375,24,12,24c0.568,0,1.114-0.253,1.498-0.694
			c0.161-0.185,0.164-0.46,0.007-0.648C12.534,21.493,12,20.017,12,18.5z M13.607,21c0.656,1.278,1.794,2.266,3.175,2.721
			c-0.29-0.756-0.5-1.698-0.629-2.721H13.607z M20.218,13.279c0.29,0.756,0.5,1.698,0.629,2.721h2.546
			C22.737,14.722,21.599,13.734,20.218,13.279z M20.944,17C20.98,17.494,21,17.997,21,18.5s-0.02,1.006-0.056,1.5h2.843
			C23.923,19.522,24,19.021,24,18.5s-0.077-1.022-0.213-1.5H20.944z M17.06,17C17.024,17.472,17,17.966,17,18.5
			s0.024,1.028,0.06,1.5h2.88c0.036-0.472,0.06-0.966,0.06-1.5s-0.024-1.028-0.06-1.5H17.06z M13.607,16h2.546
			c0.129-1.024,0.34-1.966,0.629-2.721C15.401,13.734,14.263,14.722,13.607,16z M20.218,23.721c1.381-0.456,2.52-1.444,3.175-2.721
			h-2.546C20.718,22.024,20.507,22.966,20.218,23.721z M17.987,23.974C18.156,23.99,18.327,24,18.5,24s0.344-0.01,0.513-0.026
			c0.315-0.568,0.64-1.578,0.828-2.974h-2.682C17.347,22.396,17.672,23.406,17.987,23.974z"/>
	</g>
</g>
</svg>
