<?xml version="1.0" encoding="iso-8859-1"?>
<!-- Generator: Adobe Illustrator 19.0.0, SVG Export Plug-In . SVG Version: 6.00 Build 0)  -->
<svg version="1.1" id="Layer_1" xmlns="http://www.w3.org/2000/svg" xmlns:xlink="http://www.w3.org/1999/xlink" x="0px" y="0px"
	 viewBox="0 0 24 24" style="enable-background:new 0 0 24 24;" xml:space="preserve">
<g>
	<g>
		<path d="M17.25,0C15.192,0,13.277,0.928,12,2.514C10.723,0.928,8.808,0,6.75,0C3.028,0,0,3.028,0,6.75
			c0,1.41,0.436,2.765,1.262,3.922l9.112,12.492c0.011,0.014,0.021,0.026,0.032,0.039C10.784,23.703,11.376,24,12,24
			c0.624,0,1.215-0.297,1.594-0.797c0.011-0.012,0.021-0.025,0.032-0.039l9.115-12.496C23.564,9.515,24,8.16,24,6.75
			C24,3.028,20.972,0,17.25,0z"/>
	</g>
</g>
</svg>
