<?xml version="1.0" encoding="iso-8859-1"?>
<!-- Generator: Adobe Illustrator 19.0.0, SVG Export Plug-In . SVG Version: 6.00 Build 0)  -->
<svg version="1.1" id="Layer_1" xmlns="http://www.w3.org/2000/svg" xmlns:xlink="http://www.w3.org/1999/xlink" x="0px" y="0px"
	 viewBox="0 0 24 24" style="enable-background:new 0 0 24 24;" xml:space="preserve">
<g>
	<g>
		<path d="M7.5,10.5h-5C1.122,10.5,0,11.622,0,13v8c0,1.378,1.122,2.5,2.5,2.5h3C6.878,23.5,8,22.378,8,21V11
			C8,10.724,7.776,10.5,7.5,10.5z M24,14.25c0-0.601-0.239-1.161-0.65-1.575c0.467-0.511,0.705-1.197,0.639-1.909
			C23.872,9.495,22.726,8.5,21.381,8.5h-6.176C15.51,7.571,16,5.868,16,4.5c0-2.169-1.843-4-3-4c-1.039,0-1.781,0.584-1.813,0.609
			C11.068,1.204,11,1.348,11,1.5v3.39L8.752,9.76c-0.069,0.151-0.06,0.326,0.026,0.468C8.925,10.471,9,10.731,9,10.999v10
			c0,0.241-0.028,0.486-0.086,0.751c-0.059,0.269,0.11,0.535,0.378,0.595c0.439,0.099,0.869,0.154,1.208,0.154h9.179
			c1.089,0,2.042-0.734,2.265-1.747c0.115-0.521,0.047-1.047-0.18-1.502C22.503,18.878,23,18.116,23,17.249
			c0-0.353-0.081-0.693-0.235-1C23.503,15.878,24,15.117,24,14.25z"/>
	</g>
</g>
</svg>
