<?xml version="1.0" encoding="iso-8859-1"?>
<!-- Generator: Adobe Illustrator 19.0.0, SVG Export Plug-In . SVG Version: 6.00 Build 0)  -->
<svg version="1.1" id="Layer_1" xmlns="http://www.w3.org/2000/svg" xmlns:xlink="http://www.w3.org/1999/xlink" x="0px" y="0px"
	 viewBox="0 0 24 24" style="enable-background:new 0 0 24 24;" xml:space="preserve">
<g>
	<g>
		<path d="M23.696,3.041l-7-3c-0.206-0.088-0.447-0.028-0.587,0.147l-2,2.5c-0.094,0.118-0.13,0.272-0.098,0.42
			c0.03,0.139,0.122,0.255,0.246,0.324L7.978,5.787C7.451,5.985,7.001,6.359,6.711,6.842l-2.076,3.46
			c-0.442,0.737-0.477,1.636-0.092,2.404L4.69,13H2.499c-0.276,0-0.5,0.224-0.5,0.5V23h-1.5c-0.276,0-0.5,0.224-0.5,0.5
			s0.224,0.5,0.5,0.5h17c0.276,0,0.5-0.224,0.5-0.5s-0.224-0.5-0.5-0.5h-1.5v-5.11c0-0.171-0.088-0.331-0.232-0.422
			c-0.144-0.091-0.326-0.103-0.481-0.03c-0.547,0.258-0.952,0.39-1.145,0.446c-0.042,0.012-0.081,0.029-0.118,0.052l-3.256,1.953
			c-0.519,0.312-1.111,0.477-1.712,0.477c-1.106,0-2.138-0.548-2.772-1.487c-0.501-0.752-0.674-1.653-0.487-2.536
			c0.187-0.883,0.708-1.636,1.47-2.121l0.473-0.299c0.34-0.214,0.649-0.407,0.926-0.578c0.193-0.12,0.282-0.354,0.215-0.572
			c-0.123-0.401-0.328-0.757-0.523-1.033c0.766-0.328,1.792-0.923,2.312-1.53c0.003,0.001,0.006,0.003,0.009,0.005
			c0.112,0.066,0.241,0.135,0.388,0.206c0.008,0.004,0.014,0.008,0.022,0.012c0.001,0,0.002,0,0.003,0.001
			c0.371,0.179,0.839,0.359,1.389,0.466c-0.584,0.723-1.179,1.618-1.395,2.214c-0.413,0.186-1.275,0.673-3.283,1.952
			c-0.533,0.339-0.897,0.865-1.028,1.483c-0.13,0.618-0.009,1.249,0.343,1.777c0.448,0.672,1.185,1.039,1.938,1.039
			c0.409,0,0.823-0.108,1.199-0.333l3.436-2.061c0.538-0.131,3.211-0.931,5.236-4.207c1.587-2.567,2.48-4.635,2.848-5.567
			l0.056,0.028c0.212,0.106,0.438,0.16,0.67,0.16c0.385,0,0.765-0.154,1.044-0.423c0.294-0.284,0.457-0.667,0.457-1.078V3.502
			C23.999,3.3,23.88,3.119,23.696,3.041z"/>
	</g>
</g>
</svg>
