<?xml version="1.0" encoding="utf-8"?>
<!-- Generator: Adobe Illustrator 19.0.0, SVG Export Plug-In . SVG Version: 6.00 Build 0)  -->
<svg version="1.1" id="Layer_1" xmlns="http://www.w3.org/2000/svg" xmlns:xlink="http://www.w3.org/1999/xlink" x="0px" y="0px"
	 viewBox="0 0 30 30" style="enable-background:new 0 0 30 30;" xml:space="preserve">
<path d="M27.5,9.4c-0.1-1-0.7-2-1.7-2.4l-2.6-1.3c-0.3-0.1-0.6-0.2-0.7-0.3c-0.1-0.1-0.3-0.1-0.4-0.2c0.1-1-0.2-2-0.9-2.9
	C19.8,0.9,17.3,0,14.5,0C12,0,10,0.7,8.9,2c-0.7,0.9-1,1.9-1,3.1C7.7,5.2,7.5,5.2,7.2,5.4C7,5.4,6.8,5.6,6.4,5.7L3.8,6.9
	C2.9,7.4,2.2,8.3,2.1,9.3L0,29.4c0,0.1,0,0.3,0.1,0.4C0.2,29.9,0.4,30,0.5,30h4C4.7,30,5,29.8,5,29.6l1-7v6c0,0.2,0.1,0.4,0.3,0.5
	c0.1,0,3,1,8.7,1c5.7,0,8.2-1.5,8.3-1.6c0.1-0.1,0.2-0.2,0.2-0.4l0.3-6.7l1.2,8.3c0,0.2,0.2,0.4,0.5,0.4h4c0.1,0,0.3-0.1,0.4-0.2
	s0.1-0.3,0.1-0.4L27.5,9.4z M20,10.8c-0.1,0.1-0.2,0.2-0.4,0.2c-0.1,0-0.2,0-0.3-0.1c-0.2-0.2-0.2-0.5-0.1-0.7
	c0.4-0.4,0.3-0.9,0-1.8c-0.1-0.3-0.2-0.7-0.2-1.1l-0.6,0.8c-0.9,1.2-2.2,1.9-3.5,1.9c0,0,0,0,0,0c-1.3,0-2.6-0.7-3.5-1.9l-1.3-1.6
	c-0.2,0.8,0,1.4,0.3,2.1c0.2,0.5,0.5,1.2,0.5,1.9c0,0.3-0.2,0.5-0.5,0.5s-0.5-0.2-0.5-0.5c0-0.6-0.2-1-0.4-1.5c-0.4-1-0.8-2,0-3.7
	C9.5,5.1,9.7,5,9.9,5c0.2,0,0.3,0.1,0.4,0.2l1.8,2.3C12.8,8.5,13.8,9,14.8,9c0,0,0,0,0,0c1,0,2-0.5,2.7-1.5l1.7-2.2
	c0.1-0.2,0.4-0.3,0.6-0.2c0.2,0.1,0.3,0.3,0.3,0.6l-0.1,0.4c-0.2,0.7,0,1.4,0.1,2.1C20.4,9,20.7,10,20,10.8z"/>
</svg>
