<?xml version="1.0" encoding="utf-8"?>
<!-- Generator: Adobe Illustrator 19.0.0, SVG Export Plug-In . SVG Version: 6.00 Build 0)  -->
<svg version="1.1" id="Layer_1" xmlns="http://www.w3.org/2000/svg" xmlns:xlink="http://www.w3.org/1999/xlink" x="0px" y="0px"
	 viewBox="0 0 30 30" style="enable-background:new 0 0 30 30;" xml:space="preserve">
<path d="M26.5,16c-0.7,0-5.7-0.1-8.9-1.9l-1.8,1.8C15.8,16,15.6,16,15.5,16s-0.3,0-0.4-0.1c-0.2-0.2-0.2-0.5,0-0.7l1.6-1.6
	c-0.3-0.3-0.6-0.5-0.9-0.8c-0.3-0.4-0.6-0.7-0.8-1l-1.7,1.7c-0.1,0.1-0.2,0.1-0.4,0.1s-0.3,0-0.4-0.1c-0.2-0.2-0.2-0.5,0-0.7
	l1.8-1.8c-0.7-1-1-1.6-1-1.6C13.3,9,13,8.9,12.8,9c0,0-2.3,1-5.3,1c-3.1,0-5.8-1-5.8-1C1.5,9,1.3,9,1.1,9.2S1,9.5,1,9.7
	c0.2,0.4-0.1,1.2-0.4,2C0.3,12.6,0,13.5,0,14.5c0,1.8,0.8,3.6,1,4.1v1.9C1,20.8,1.2,21,1.5,21h8c0.3,0,0.5-0.2,0.5-0.5v-1
	c1.1,0.6,3.2,1.5,7,1.5h7.5c2.4,0,5.1-1,5.2-1c0.2-0.1,0.4-0.3,0.3-0.5C29.8,18.2,28.8,16,26.5,16z"/>
</svg>
