<?xml version="1.0" encoding="utf-8"?>
<!-- Generator: Adobe Illustrator 19.0.0, SVG Export Plug-In . SVG Version: 6.00 Build 0)  -->
<svg version="1.1" id="Layer_1" xmlns="http://www.w3.org/2000/svg" xmlns:xlink="http://www.w3.org/1999/xlink" x="0px" y="0px"
	 viewBox="0 0 30 30" style="enable-background:new 0 0 30 30;" xml:space="preserve">
<g>
	<path d="M1.2,14.9C1.3,15,1.4,15,1.5,15c0.2,0,0.3-0.1,0.4-0.2l5.2-8C7.5,6.3,8,6,8.5,6C9.2,6,9.7,6.4,10,6.9l1.3,2.6
		c0.1,0.2,0.4,0.3,0.7,0.2c0.2-0.1,0.3-0.4,0.2-0.7l-1.3-2.6C10.5,5.6,9.6,5,8.5,5C7.6,5,6.8,5.5,6.3,6.2l-5.2,8
		C0.9,14.5,1,14.8,1.2,14.9z"/>
	<path d="M17.8,9.7c0.2,0.1,0.5,0,0.7-0.2l1.3-2.6C20,6.3,20.6,6,21.2,6c0.6,0,1.1,0.3,1.4,0.8l5.5,8c0.1,0.1,0.3,0.2,0.4,0.2
		c0.1,0,0.2,0,0.3-0.1c0.2-0.2,0.3-0.5,0.1-0.7l-5.5-8C22.9,5.5,22.1,5,21.2,5c-1,0-1.9,0.6-2.4,1.5L17.6,9
		C17.4,9.3,17.5,9.6,17.8,9.7z"/>
	<path d="M27.6,15.5L27.6,15.5l-12.6,1l-12.5-1C1.5,15.5,0,17,0,18v1.3C0,22.4,2.5,25,5.5,25c3.2,0,6.2-1.9,7.6-4.5
		c0.2,0,0.4-0.2,0.4-0.5c0-0.3,0.4-1,1.5-1s1.5,0.7,1.5,1c0,0.2,0.2,0.4,0.4,0.5c1.4,2.6,4.4,4.5,7.6,4.5c2.9,0,5.5-2.7,5.5-5.9
		v-1.3C30,16.9,28.6,15.5,27.6,15.5z M15,18c-0.4,0-0.8,0.1-1.1,0.2c0-0.3,0.1-0.5,0.1-0.8l1,0.1c0,0,0,0,0,0c0,0,0,0,0,0l1-0.1
		c0,0.3,0,0.5,0.1,0.8C15.8,18.1,15.4,18,15,18z"/>
</g>
</svg>
