<?xml version="1.0" encoding="iso-8859-1"?>
<!-- Generator: Adobe Illustrator 19.2.1, SVG Export Plug-In . SVG Version: 6.00 Build 0)  -->
<svg version="1.1" id="Layer_1" xmlns="http://www.w3.org/2000/svg" xmlns:xlink="http://www.w3.org/1999/xlink" x="0px" y="0px"
	 viewBox="0 0 24 24" style="enable-background:new 0 0 24 24;" xml:space="preserve">
<g>
	<g>
		<path d="M23,13.5h-1.513c-0.261-5.007-4.417-9-9.487-9s-9.226,3.993-9.487,9H1c-0.276,0-0.5,0.224-0.5,0.5v5
			c0,0.276,0.224,0.5,0.5,0.5h1.5V17c0-0.276,0.224-0.5,0.5-0.5s0.5,0.224,0.5,0.5v2.5h1V18c0-0.276,0.224-0.5,0.5-0.5
			s0.5,0.224,0.5,0.5v1.5h1V17c0-0.276,0.224-0.5,0.5-0.5s0.5,0.224,0.5,0.5v2.5h1V18c0-0.276,0.224-0.5,0.5-0.5s0.5,0.224,0.5,0.5
			v1.5h1V17c0-0.276,0.224-0.5,0.5-0.5s0.5,0.224,0.5,0.5v2.5h1V18c0-0.276,0.224-0.5,0.5-0.5s0.5,0.224,0.5,0.5v1.5h1V17
			c0-0.276,0.224-0.5,0.5-0.5s0.5,0.224,0.5,0.5v2.5h1V18c0-0.276,0.224-0.5,0.5-0.5s0.5,0.224,0.5,0.5v1.5h1V17
			c0-0.276,0.224-0.5,0.5-0.5s0.5,0.224,0.5,0.5v2.5h1V18c0-0.276,0.224-0.5,0.5-0.5s0.5,0.224,0.5,0.5v1.5H23
			c0.276,0,0.5-0.224,0.5-0.5v-5C23.5,13.724,23.276,13.5,23,13.5z M16,14.5H8c-0.276,0-0.5-0.224-0.5-0.5
			c0-2.481,2.019-4.5,4.5-4.5c2.481,0,4.5,2.019,4.5,4.5C16.5,14.276,16.276,14.5,16,14.5z"/>
	</g>
</g>
</svg>
