<?xml version="1.0" encoding="iso-8859-1"?>
<!-- Generator: Adobe Illustrator 19.2.1, SVG Export Plug-In . SVG Version: 6.00 Build 0)  -->
<svg version="1.1" id="Layer_1" xmlns="http://www.w3.org/2000/svg" xmlns:xlink="http://www.w3.org/1999/xlink" x="0px" y="0px"
	 viewBox="0 0 24 24" style="enable-background:new 0 0 24 24;" xml:space="preserve">
<g>
	<g>
		<path d="M23.147,2.439l-1.018-1.017C21.226,0.518,19.974,0,18.695,0h-0.618c-1.795,0-3.483,0.699-4.753,1.969L1.146,14.146
			C1.052,14.24,1,14.367,1,14.5s0.053,0.26,0.146,0.354L1.792,15.5l-1.646,1.646C0.052,17.24,0,17.367,0,17.5v6
			c0,0.202,0.122,0.385,0.309,0.462C0.371,23.988,0.436,24,0.5,24c0.13,0,0.258-0.051,0.354-0.146L5.5,19.208l0.646,0.646
			C6.244,19.952,6.372,20,6.5,20c0.128,0,0.256-0.049,0.354-0.146l7.939-7.939c0.589-0.589,1.373-0.914,2.207-0.914
			c1.102,0,2.137-0.429,2.914-1.207l3.232-3.232C23.697,6.012,24,5.28,24,4.501S23.698,2.989,23.147,2.439z M6.355,17.354
			C6.257,17.452,6.129,17.5,6.001,17.5s-0.256-0.049-0.354-0.146l-2-2c-0.195-0.195-0.195-0.512,0-0.707L5.794,12.5l2.707,2.707
			L6.355,17.354z M16.855,6.854L10.708,13l-2.707-2.707l6.146-6.146c0.725-0.724,1.982-0.724,2.707,0
			c0.361,0.361,0.561,0.842,0.562,1.354C17.416,6.011,17.216,6.492,16.855,6.854z M20.501,6c-0.827,0-1.5-0.673-1.5-1.5
			c0-0.827,0.673-1.5,1.5-1.5c0.827,0,1.5,0.673,1.5,1.5C22.001,5.327,21.328,6,20.501,6z"/>
	</g>
</g>
</svg>
