<?xml version="1.0" encoding="iso-8859-1"?>
<!-- Generator: Adobe Illustrator 19.2.1, SVG Export Plug-In . SVG Version: 6.00 Build 0)  -->
<svg version="1.1" id="Layer_1" xmlns="http://www.w3.org/2000/svg" xmlns:xlink="http://www.w3.org/1999/xlink" x="0px" y="0px"
	 viewBox="0 0 24 24" style="enable-background:new 0 0 24 24;" xml:space="preserve">
<g>
	<g>
		<path d="M1,20.5C1,21.327,1.674,22,2.5,22h8c0.827,0,1.5-0.673,1.5-1.5V17H1V20.5z M23.5,5H19.81l-0.585-1.171
			C18.969,3.318,18.454,3,17.883,3h-2.301l-1.691-0.563C13.023,2.147,12.119,2,11.203,2H1.5C0.674,2,0,2.673,0,3.5v4
			C0,8.327,0.674,9,1.5,9h2.417l-0.881,5.722L1.333,16h10.269l-3.049-1.307l0.339-2.206C8.929,12.495,8.965,12.5,9.001,12.5
			c0.224,0,0.428-0.151,0.484-0.379l0.5-2c0.067-0.268-0.096-0.539-0.364-0.606C9.526,9.491,9.432,9.504,9.346,9.533L9.429,9h1.773
			c0.916,0,1.82-0.147,2.688-0.437L15.581,8h2.301c0.572,0,1.086-0.318,1.342-0.829L19.809,6H23.5C23.776,6,24,5.776,24,5.5
			S23.776,5,23.5,5z M5.5,7h-3C2.224,7,2,6.776,2,6.5S2.224,6,2.5,6h3C5.776,6,6,6.224,6,6.5S5.776,7,5.5,7z M5.5,5h-3
			C2.224,5,2,4.776,2,4.5S2.224,4,2.5,4h3C5.776,4,6,4.224,6,4.5S5.776,5,5.5,5z M16,6.5C16,6.776,15.776,7,15.5,7S15,6.776,15,6.5
			v-2C15,4.224,15.224,4,15.5,4S16,4.224,16,4.5V6.5z"/>
	</g>
</g>
</svg>
