<?xml version="1.0" encoding="iso-8859-1"?>
<!-- Generator: Adobe Illustrator 19.2.1, SVG Export Plug-In . SVG Version: 6.00 Build 0)  -->
<svg version="1.1" id="Layer_1" xmlns="http://www.w3.org/2000/svg" xmlns:xlink="http://www.w3.org/1999/xlink" x="0px" y="0px"
	 viewBox="0 0 24 24" style="enable-background:new 0 0 24 24;" xml:space="preserve">
<g>
	<g>
		<path d="M0.756,19.037C0.269,19.524,0,20.172,0,20.92c0,1.423,1.157,2.58,2.58,2.58c0.725,0,1.421-0.308,1.909-0.844l9.028-9.931
			L10.293,9.5L0.756,19.037z M23.854,9.646l-2-2C21.76,7.552,21.633,7.5,21.5,7.5H21V7c0-0.133-0.053-0.26-0.146-0.354l-4-4
			C16.052,1.844,14.708,0.5,12,0.5c-2.706,0-3.947,1.241-4.854,2.146C7.003,2.789,6.96,3.004,7.038,3.191
			C7.115,3.378,7.298,3.5,7.5,3.5c4.033,0,4.5,1.712,4.5,3c0,1.07-0.606,1.885-0.993,2.3l3.267,3.267
			c0.884-0.598,2.14-1.304,2.726-1.252V11.5c0,0.133,0.053,0.26,0.146,0.354l2.5,2.5C19.74,14.447,19.867,14.5,20,14.5h0.017
			c0.139-0.004,0.269-0.066,0.359-0.17l3.5-4C24.05,10.131,24.04,9.833,23.854,9.646z"/>
	</g>
</g>
</svg>
