<?xml version="1.0" encoding="utf-8"?>
<!-- Generator: Adobe Illustrator 19.0.0, SVG Export Plug-In . SVG Version: 6.00 Build 0)  -->
<svg version="1.1" id="Layer_1" xmlns="http://www.w3.org/2000/svg" xmlns:xlink="http://www.w3.org/1999/xlink" x="0px" y="0px"
	 viewBox="0 0 30 30" style="enable-background:new 0 0 30 30;" xml:space="preserve">
<g>
	<g>
		<path d="M13.4,29c-1.3,0-2.4-1.1-2.4-2.4c0-0.2,0-0.4,0.1-0.6L13,15.4c0-0.3,0.3-0.5,0.6-0.4c0.3,0,0.5,0.3,0.4,0.6l-1.9,10.6
			c0,0.2-0.1,0.3-0.1,0.4c0,0.8,0.6,1.4,1.4,1.4c0.6,0,1.2-0.5,1.3-1.1c0-0.1,0-0.1,0.1-0.2l7.3-10c0.2-0.2,0.5-0.3,0.7-0.1
			c0.2,0.2,0.3,0.5,0.1,0.7l-7.2,9.9C15.4,28.3,14.4,29,13.4,29z"/>
	</g>
	<g>
		<path d="M25,9h-6c-0.3,0-0.5-0.2-0.5-0.5S18.7,8,19,8h6c0.3,0,0.5,0.2,0.5,0.5S25.3,9,25,9z"/>
	</g>
	<g>
		<path d="M25,12h-6c-0.3,0-0.5-0.2-0.5-0.5S18.7,11,19,11h6c0.3,0,0.5,0.2,0.5,0.5S25.3,12,25,12z"/>
	</g>
	<g>
		<path d="M21.7,17.5c-0.2,0-0.4,0-0.7,0c-0.2,0-0.3,0-0.5-0.1c-1.2-0.2-2.9-0.6-4.6-1C13.1,15.8,9.9,15,7.5,15
			C7.2,15,7,14.8,7,14.5v-10C7,4.2,7.2,4,7.5,4c1.3,0,3.3-0.6,5.6-1.3C15.8,1.9,19,1,21.5,1C25.9,1,30,5.1,30,9.5
			C30,13.8,26.2,17.5,21.7,17.5z M8,14c2.4,0.1,5.5,0.8,8.2,1.5c1.7,0.4,3.3,0.8,4.5,1c0.1,0,0.3,0,0.4,0c0.2,0,0.4,0,0.6,0
			c3.9,0,7.3-3.2,7.3-7C29,5.6,25.4,2,21.5,2c-2.4,0-5.4,0.9-8.2,1.7C11.2,4.3,9.4,4.9,8,5V14z"/>
	</g>
	<g>
		<path d="M1.7,10.6c-0.5,0-1-0.2-1.6-0.8C0,9.7,0,9.3,0.1,9.1s0.5-0.2,0.7,0c0.8,0.8,1.2,0.5,1.9,0c0.7-0.5,1.8-1.3,3.1,0
			C6,9.3,6,9.7,5.9,9.9s-0.5,0.2-0.7,0C4.4,9.1,4.1,9.4,3.3,9.9C2.9,10.2,2.4,10.6,1.7,10.6z"/>
	</g>
	<g>
		<path d="M1.7,13.6c-0.5,0-1-0.2-1.6-0.8c-0.2-0.2-0.2-0.5,0-0.7s0.5-0.2,0.7,0c0.8,0.8,1.2,0.5,1.9,0c0.7-0.5,1.8-1.3,3.1,0
			c0.2,0.2,0.2,0.5,0,0.7s-0.5,0.2-0.7,0c-0.7-0.7-1.1-0.5-1.8,0.1C2.9,13.2,2.4,13.6,1.7,13.6z"/>
	</g>
	<g>
		<path d="M1.7,7.6c-0.5,0-1-0.2-1.6-0.8C0,6.7,0,6.3,0.1,6.1s0.5-0.2,0.7,0c0.8,0.8,1.2,0.5,1.9,0c0.7-0.5,1.8-1.3,3.1,0
			C6,6.3,6,6.7,5.9,6.9S5.3,7,5.1,6.9C4.4,6.1,4.1,6.4,3.3,6.9C2.9,7.2,2.4,7.6,1.7,7.6z"/>
	</g>
	<g>
		<path d="M22,14c-2.2,0-4-1.8-4-4s1.8-4,4-4s4,1.8,4,4S24.2,14,22,14z M22,7c-1.7,0-3,1.3-3,3s1.3,3,3,3s3-1.3,3-3S23.7,7,22,7z"/>
	</g>
</g>
</svg>
