<?xml version="1.0" encoding="utf-8"?>
<!-- Generator: Adobe Illustrator 19.0.0, SVG Export Plug-In . SVG Version: 6.00 Build 0)  -->
<svg version="1.1" id="Layer_1" xmlns="http://www.w3.org/2000/svg" xmlns:xlink="http://www.w3.org/1999/xlink" x="0px" y="0px"
	 viewBox="0 0 30 30" style="enable-background:new 0 0 30 30;" xml:space="preserve">
<g>
	<g>
		<path d="M14,9c-0.3,0-0.5-0.2-0.5-0.5v-2C13.5,6.2,13.7,6,14,6s0.5,0.2,0.5,0.5v2C14.5,8.8,14.3,9,14,9z"/>
	</g>
	<g>
		<path d="M16,9c-0.3,0-0.5-0.2-0.5-0.5v-2C15.5,6.2,15.7,6,16,6s0.5,0.2,0.5,0.5v2C16.5,8.8,16.3,9,16,9z"/>
	</g>
	<g>
		<path d="M27.8,25H2.3c-0.3,0-0.5-0.2-0.5-0.5S2,24,2.3,24c2.5,0,4.3-2.6,4.3-5v-1.5C6.5,17.2,6.7,17,7,17h16
			c0.3,0,0.5,0.2,0.5,0.5V20c0,2.4,1.7,4,4.3,4c0.3,0,0.5,0.2,0.5,0.5S28,25,27.8,25z M5.1,24h19.3c-1.2-0.9-1.9-2.3-1.9-4v-2h-15v1
			C7.5,20.9,6.6,22.9,5.1,24z"/>
	</g>
	<g>
		<path d="M29,27H1c-0.3,0-0.5-0.2-0.5-0.5v-0.8c0-1,0.8-1.8,1.8-1.8c0.3,0,0.5,0.2,0.5,0.5S2.5,25,2.3,25c-0.4,0-0.8,0.3-0.8,0.8
			V26h27v-0.3c0-0.4-0.3-0.8-0.8-0.8c-0.3,0-0.5-0.2-0.5-0.5s0.2-0.5,0.5-0.5c1,0,1.8,0.8,1.8,1.8v0.8C29.5,26.8,29.3,27,29,27z"/>
	</g>
	<g>
		<path d="M24,18H6c-0.3,0-0.5-0.2-0.5-0.5C5.5,12.3,9.8,8,15,8s9.5,4.3,9.5,9.5C24.5,17.8,24.3,18,24,18z M6.5,17h17
			c-0.3-4.5-4-8-8.5-8S6.8,12.5,6.5,17z"/>
	</g>
	<g>
		<path d="M8.3,16c0,0-0.1,0-0.1,0c-0.3-0.1-0.4-0.4-0.3-0.6C8.8,12.2,11.7,10,15,10c0.3,0,0.5,0.2,0.5,0.5S15.3,11,15,11
			c-2.9,0-5.4,1.9-6.2,4.6C8.7,15.9,8.5,16,8.3,16z"/>
	</g>
	<g>
		<path d="M16.5,7h-3c-1.1,0-2-0.9-2-2s0.9-2,2-2h3c1.1,0,2,0.9,2,2S17.6,7,16.5,7z M13.5,4c-0.6,0-1,0.4-1,1s0.4,1,1,1h3
			c0.6,0,1-0.4,1-1s-0.4-1-1-1H13.5z"/>
	</g>
</g>
</svg>
