<?xml version="1.0" encoding="utf-8"?>
<!-- Generator: Adobe Illustrator 19.0.0, SVG Export Plug-In . SVG Version: 6.00 Build 0)  -->
<svg version="1.1" id="Layer_1" xmlns="http://www.w3.org/2000/svg" xmlns:xlink="http://www.w3.org/1999/xlink" x="0px" y="0px"
	 viewBox="0 0 30 30" style="enable-background:new 0 0 30 30;" xml:space="preserve">
<g>
	<g>
		<path d="M28,27H6c-0.1,0-0.3-0.1-0.4-0.2c-0.1-0.1-0.1-0.2-0.1-0.4l1-13C6.5,13.2,6.7,13,7,13h20c0.3,0,0.5,0.2,0.5,0.5l1,13
			c0,0.1,0,0.3-0.1,0.4C28.3,26.9,28.1,27,28,27z M6.5,26h20.9l-0.9-12H7.5L6.5,26z"/>
	</g>
	<g>
		<path d="M8.5,27C8.5,27,8.4,27,8.5,27C8.1,26.9,8,26.7,8,26.4l1.5-9c0-0.3,0.3-0.5,0.6-0.4c0.3,0,0.5,0.3,0.4,0.6l-1.5,9
			C9,26.8,8.7,27,8.5,27z"/>
	</g>
	<g>
		<path d="M12.5,27C12.5,27,12.5,27,12.5,27c-0.3,0-0.5-0.3-0.5-0.5l0.5-9c0-0.3,0.3-0.5,0.5-0.5c0.3,0,0.5,0.3,0.5,0.5l-0.5,9
			C13,26.8,12.8,27,12.5,27z"/>
	</g>
	<g>
		<path d="M17,27c-0.3,0-0.5-0.2-0.5-0.5v-9c0-0.3,0.2-0.5,0.5-0.5s0.5,0.2,0.5,0.5v9C17.5,26.8,17.3,27,17,27z"/>
	</g>
	<g>
		<path d="M24.5,14h-15c-0.2,0-0.4-0.1-0.4-0.3l-1.5-3c-0.1-0.2-0.1-0.3,0-0.5C7.7,10.1,7.8,10,8,10h18c0.2,0,0.3,0.1,0.4,0.2
			c0.1,0.1,0.1,0.3,0,0.5l-1.5,3C24.9,13.9,24.7,14,24.5,14z M9.8,13h14.4l1-2H8.8L9.8,13z"/>
	</g>
	<g>
		<path d="M6.5,17H5c-0.3,0-0.5-0.2-0.5-0.5V13c0-1.1-1.4-2-2.5-2c-0.3,0-0.5-0.2-0.5-0.5S1.7,10,2,10c1.6,0,3.5,1.3,3.5,3v3h1
			C6.8,16,7,16.2,7,16.5S6.8,17,6.5,17z"/>
	</g>
	<g>
		<path d="M25,11H9c-0.3,0-0.5-0.2-0.5-0.5C8.5,5.8,12.3,2,17,2s8.5,3.8,8.5,8.5C25.5,10.8,25.3,11,25,11z M9.5,10h15
			C24.2,6.1,21,3,17,3S9.8,6.1,9.5,10z"/>
	</g>
	<g>
		<path d="M19,3c-0.3,0-0.5-0.2-0.5-0.5C18.5,1.7,17.8,1,17,1s-1.5,0.7-1.5,1.5C15.5,2.8,15.3,3,15,3s-0.5-0.2-0.5-0.5
			C14.5,1.1,15.6,0,17,0s2.5,1.1,2.5,2.5C19.5,2.8,19.3,3,19,3z"/>
	</g>
	<g>
		<path d="M25.5,27c-0.2,0-0.5-0.2-0.5-0.4l-1.5-9c0-0.3,0.1-0.5,0.4-0.6c0.3-0.1,0.5,0.1,0.6,0.4l1.5,9C26,26.7,25.9,26.9,25.5,27
			C25.6,27,25.5,27,25.5,27z"/>
	</g>
	<g>
		<path d="M21.5,27c-0.3,0-0.5-0.2-0.5-0.5l-0.5-9c0-0.3,0.2-0.5,0.5-0.5c0.3,0,0.5,0.2,0.5,0.5l0.5,9C22,26.7,21.8,27,21.5,27
			C21.5,27,21.5,27,21.5,27z"/>
	</g>
	<g>
		<path d="M8.5,30c-1.1,0-2-0.9-2-2s0.9-2,2-2s2,0.9,2,2S9.6,30,8.5,30z M8.5,27c-0.6,0-1,0.4-1,1s0.4,1,1,1s1-0.4,1-1
			S9.1,27,8.5,27z"/>
	</g>
	<g>
		<path d="M25.5,30c-1.1,0-2-0.9-2-2s0.9-2,2-2s2,0.9,2,2S26.6,30,25.5,30z M25.5,27c-0.6,0-1,0.4-1,1s0.4,1,1,1s1-0.4,1-1
			S26.1,27,25.5,27z"/>
	</g>
</g>
</svg>
