<?xml version="1.0" encoding="iso-8859-1"?>
<!-- Generator: Adobe Illustrator 19.0.0, SVG Export Plug-In . SVG Version: 6.00 Build 0)  -->
<svg version="1.1" id="Layer_1" xmlns="http://www.w3.org/2000/svg" xmlns:xlink="http://www.w3.org/1999/xlink" x="0px" y="0px"
	 viewBox="0 0 24 24" style="enable-background:new 0 0 24 24;" xml:space="preserve">
<g>
	<g>
		<path d="M21.5,24h-19C1.121,24,0,22.878,0,21.5v-19C0,1.122,1.121,0,2.5,0h19C22.879,0,24,1.122,24,2.5v19
			C24,22.878,22.879,24,21.5,24z M2.5,1C1.673,1,1,1.673,1,2.5v19C1,22.327,1.673,23,2.5,23h19c0.827,0,1.5-0.673,1.5-1.5v-19
			C23,1.673,22.327,1,21.5,1H2.5z"/>
	</g>
	<g>
		<path d="M23.5,5h-23C0.224,5,0,4.776,0,4.5S0.224,4,0.5,4h23C23.776,4,24,4.224,24,4.5S23.776,5,23.5,5z"/>
	</g>
	<g>
		<path d="M16.5,21c-0.097,0-0.193-0.028-0.277-0.084L12,18.101l-4.223,2.815c-0.173,0.116-0.4,0.111-0.569-0.01
			c-0.17-0.122-0.245-0.336-0.19-0.537L8.43,15.19l-4.236-3.295c-0.169-0.131-0.235-0.355-0.166-0.557C4.097,11.136,4.286,11,4.5,11
			h5.161l1.875-4.686c0.15-0.38,0.777-0.38,0.928,0L14.339,11H19.5c0.214,0,0.403,0.136,0.473,0.338
			c0.069,0.202,0.003,0.426-0.166,0.557L15.57,15.19l1.412,5.179c0.055,0.201-0.021,0.415-0.19,0.537
			C16.705,20.968,16.603,21,16.5,21z M12,17c0.097,0,0.193,0.028,0.277,0.084l3.389,2.259l-1.148-4.212
			c-0.053-0.194,0.017-0.402,0.176-0.526L18.043,12H14c-0.204,0-0.389-0.125-0.464-0.314L12,7.846l-1.536,3.839
			C10.389,11.875,10.204,12,10,12H5.957l3.35,2.605c0.159,0.124,0.229,0.332,0.176,0.526l-1.148,4.212l3.389-2.259
			C11.807,17.028,11.903,17,12,17z"/>
	</g>
	<g>
		<circle cx="2.5" cy="2.5" r="0.5"/>
	</g>
	<g>
		<circle cx="4.5" cy="2.5" r="0.5"/>
	</g>
	<g>
		<circle cx="6.5" cy="2.5" r="0.5"/>
	</g>
</g>
<g>
</g>
<g>
</g>
<g>
</g>
<g>
</g>
<g>
</g>
<g>
</g>
<g>
</g>
<g>
</g>
<g>
</g>
<g>
</g>
<g>
</g>
<g>
</g>
<g>
</g>
<g>
</g>
<g>
</g>
</svg>
