<?xml version="1.0" encoding="utf-8"?>
<!-- Generator: Adobe Illustrator 19.0.0, SVG Export Plug-In . SVG Version: 6.00 Build 0)  -->
<svg version="1.1" id="Layer_1_2_" xmlns="http://www.w3.org/2000/svg" xmlns:xlink="http://www.w3.org/1999/xlink" x="0px" y="0px"
	 viewBox="0 0 23 25" style="enable-background:new 0 0 23 25;" xml:space="preserve">
<style type="text/css">
	.st0{fill-rule:evenodd;clip-rule:evenodd;}
</style>
<g>
	<g>
		<path class="st0" d="M8.5,12h6c0.5,0,1-0.2,1.3-0.6c0.3-0.4,0.5-0.9,0.4-1.3L16,6.5C15.9,5.6,15.1,5,14.3,5H9
			C8.1,5,7.4,5.7,7.3,6.5L6.8,10c-0.1,0.5,0.1,1,0.4,1.4C7.5,11.8,8,12,8.5,12z M22.5,15c-0.3,0-0.5,0.2-0.5,0.5v1.7l-3.9-8.5
			c0-0.1-0.1-0.1-0.1-0.2V3c0-1.7-1.3-3-3-3H8C6.3,0,5,1.3,5,3v5.4l-4,8.8v-1.7C1,15.2,0.8,15,0.5,15S0,15.2,0,15.5v9
			C0,24.8,0.2,25,0.5,25S1,24.8,1,24.5V24h21v0.5c0,0.3,0.2,0.5,0.5,0.5s0.5-0.2,0.5-0.5v-9C23,15.2,22.8,15,22.5,15z M5.6,9.9
			l0.2-1.2c0-0.1,0-0.1,0-0.2c0,0,0-0.1,0.1-0.2l0.3-2c0.2-1.4,1.3-2.4,2.7-2.4h5.3c1.4,0,2.6,1,2.7,2.4v2.1c0,0.1,0.1,0.3,0.2,0.4
			l0.1,1.2c0.1,0.8-0.2,1.5-0.7,2.1C16,12.7,15.2,13,14.4,13h-6c-0.8,0-1.5-0.3-2.1-0.9C5.8,11.5,5.5,10.7,5.6,9.9z M20.5,20h-18
			C2.2,20,2,19.8,2,19.5S2.2,19,2.5,19h18c0.3,0,0.5,0.2,0.5,0.5S20.8,20,20.5,20z"/>
	</g>
</g>
</svg>
