<?xml version="1.0" encoding="iso-8859-1"?>
<!-- Generator: Adobe Illustrator 19.0.0, SVG Export Plug-In . SVG Version: 6.00 Build 0)  -->
<svg version="1.1" id="Layer_1" xmlns="http://www.w3.org/2000/svg" xmlns:xlink="http://www.w3.org/1999/xlink" x="0px" y="0px"
	 viewBox="0 0 24 24" style="enable-background:new 0 0 24 24;" xml:space="preserve">
<g>
	<g>
		<path d="M21.5,7h-3C18.224,7,18,7.224,18,7.5S18.224,8,18.5,8h3C22.327,8,23,8.673,23,9.5v7c0,0.827-0.673,1.5-1.5,1.5H20
			c-0.189,0-0.362,0.107-0.447,0.277c-0.085,0.169-0.067,0.372,0.047,0.523l0.431,0.574l-3.345-1.338
			C16.626,18.012,16.563,18,16.5,18h-7C8.673,18,8,17.327,8,16.5C8,16.224,7.776,16,7.5,16S7,16.224,7,16.5
			C7,17.878,8.122,19,9.5,19h6.904l4.91,1.964C21.375,20.988,21.437,21,21.5,21c0.152,0,0.3-0.069,0.397-0.196
			c0.136-0.178,0.138-0.425,0.003-0.604L21,19h0.5c1.378,0,2.5-1.122,2.5-2.5v-7C24,8.122,22.878,7,21.5,7z M14.5,15
			c1.378,0,2.5-1.122,2.5-2.5v-7C17,4.122,15.878,3,14.5,3h-12C1.122,3,0,4.122,0,5.5v7C0,13.878,1.122,15,2.5,15H3l-0.9,1.2
			c-0.135,0.179-0.133,0.426,0.003,0.604C2.2,16.931,2.348,17,2.5,17c0.062,0,0.125-0.012,0.185-0.036L7.596,15H14.5z M7.315,14.035
			L3.97,15.373l0.43-0.574c0.113-0.151,0.131-0.354,0.047-0.523C4.362,14.107,4.189,14,4,14H2.5C1.673,14,1,13.327,1,12.5v-7
			C1,4.673,1.673,4,2.5,4V3.999h12.001c0.827,0,1.5,0.673,1.5,1.5v7c0,0.827-0.673,1.5-1.5,1.5h-7
			C7.437,13.999,7.374,14.012,7.315,14.035z"/>
	</g>
</g>
</svg>
