<?xml version="1.0" encoding="iso-8859-1"?>
<!-- Generator: Adobe Illustrator 19.0.0, SVG Export Plug-In . SVG Version: 6.00 Build 0)  -->
<svg version="1.1" id="Layer_1" xmlns="http://www.w3.org/2000/svg" xmlns:xlink="http://www.w3.org/1999/xlink" x="0px" y="0px"
	 viewBox="0 0 24 24" style="enable-background:new 0 0 24 24;" xml:space="preserve">
<g>
	<g>
		<path d="M12.5,6h-10C1.122,6,0,7.122,0,8.5v6C0,15.878,1.122,17,2.5,17h0.306l-0.78,2.342c-0.069,0.208,0.005,0.436,0.182,0.564
			C2.295,19.969,2.397,20,2.5,20c0.105,0,0.211-0.033,0.3-0.1L6.667,17H12.5c1.378,0,2.5-1.122,2.5-2.5v-6C15,7.122,13.878,6,12.5,6
			z M14,14.5c0,0.827-0.673,1.5-1.5,1.5h-6c-0.109,0-0.214,0.035-0.3,0.1l-2.72,2.04l0.494-1.481
			C4.026,16.506,4,16.338,3.906,16.208C3.812,16.077,3.661,16,3.5,16h-1C1.673,16,1,15.327,1,14.5v-6C1,7.673,1.673,7,2.5,7h10
			C13.327,7,14,7.673,14,8.5V14.5z M21.5,4h-10C11.224,4,11,4.224,11,4.5S11.224,5,11.5,5h10C22.327,5,23,5.673,23,6.5v6
			c0,0.827-0.673,1.5-1.5,1.5h-1c-0.161,0-0.312,0.078-0.406,0.208c-0.093,0.131-0.119,0.299-0.068,0.451l0.494,1.481L17.8,14.1
			c-0.087-0.065-0.192-0.1-0.3-0.1h-1c-0.276,0-0.5,0.224-0.5,0.5s0.224,0.5,0.5,0.5h0.833l3.867,2.9c0.089,0.067,0.195,0.1,0.3,0.1
			c0.103,0,0.205-0.031,0.292-0.094c0.178-0.128,0.251-0.356,0.182-0.564L21.194,15H21.5c1.378,0,2.5-1.122,2.5-2.5v-6
			C24,5.122,22.878,4,21.5,4z"/>
	</g>
</g>
</svg>
