<?xml version="1.0" encoding="iso-8859-1"?>
<!-- Generator: Adobe Illustrator 19.0.0, SVG Export Plug-In . SVG Version: 6.00 Build 0)  -->
<svg version="1.1" id="Layer_1" xmlns="http://www.w3.org/2000/svg" xmlns:xlink="http://www.w3.org/1999/xlink" x="0px" y="0px"
	 viewBox="0 0 24 24" style="enable-background:new 0 0 24 24;" xml:space="preserve">
<g>
	<g>
		<path d="M5,13.5c-1.103,0-2,0.897-2,2c0,1.103,0.897,2,2,2c1.103,0,2-0.897,2-2C7,14.397,6.103,13.5,5,13.5z M5,16.5
			c-0.552,0-1-0.449-1-1c0-0.551,0.448-1,1-1s1,0.449,1,1C6,16.051,5.552,16.5,5,16.5z M1.5,16.5C0.673,16.5,0,17.173,0,18
			c0,0.827,0.673,1.5,1.5,1.5C2.327,19.5,3,18.827,3,18C3,17.173,2.327,16.5,1.5,16.5z M1.5,18.5C1.225,18.5,1,18.276,1,18
			s0.225-0.5,0.5-0.5C1.775,17.5,2,17.724,2,18S1.775,18.5,1.5,18.5z M19,17.5c-1.103,0-2,0.897-2,2c0,1.103,0.897,2,2,2
			c1.103,0,2-0.897,2-2C21,18.397,20.103,17.5,19,17.5z M19,20.5c-0.552,0-1-0.449-1-1c0-0.551,0.448-1,1-1s1,0.449,1,1
			C20,20.051,19.552,20.5,19,20.5z M22.5,20.5c-0.827,0-1.5,0.673-1.5,1.5c0,0.827,0.673,1.5,1.5,1.5c0.827,0,1.5-0.673,1.5-1.5
			C24,21.173,23.327,20.5,22.5,20.5z M22.5,22.5c-0.275,0-0.5-0.224-0.5-0.5s0.225-0.5,0.5-0.5c0.275,0,0.5,0.224,0.5,0.5
			S22.775,22.5,22.5,22.5z M9.95,11.5h2.55c3.032,0,5.5-2.467,5.5-5.5c0-3.033-2.468-5.5-5.5-5.5c-2.141,0-4.077,1.275-4.967,3.188
			C6.71,2.925,5.643,2.5,4.5,2.5C2.019,2.5,0,4.519,0,7s2.019,4.5,4.5,4.5h0.55c0.232,1.14,1.243,2,2.45,2
			C8.707,13.5,9.718,12.64,9.95,11.5z M9,11c0,0.827-0.673,1.5-1.5,1.5C6.673,12.5,6,11.827,6,11c0-0.276-0.224-0.5-0.5-0.5h-1
			C2.57,10.5,1,8.93,1,7s1.57-3.5,3.5-3.5c1.114,0,2.138,0.522,2.809,1.434C7.421,5.087,7.612,5.165,7.8,5.129
			c0.188-0.034,0.34-0.172,0.392-0.355C8.742,2.846,10.513,1.5,12.5,1.5C14.981,1.5,17,3.519,17,6s-2.019,4.5-4.5,4.5h-3
			C9.224,10.5,9,10.724,9,11z M18.95,15.499h0.55c2.481,0,4.5-2.019,4.5-4.5c0-2.478-2.014-4.495-4.58-4.495h-0.01
			c-0.274,0.005-0.453,0.228-0.45,0.502c0.002,0.274,0.266,0.493,0.54,0.493c1.93,0,3.5,1.57,3.5,3.5s-1.57,3.5-3.5,3.5h-1
			c-0.276,0-0.5,0.224-0.5,0.5c0,0.827-0.673,1.5-1.5,1.5c-0.827,0-1.5-0.673-1.5-1.5c0-0.276-0.224-0.5-0.5-0.5h-3
			c-0.643,0-1.282-0.146-1.899-0.435c-0.248-0.117-0.548-0.01-0.665,0.241c-0.117,0.25-0.009,0.548,0.241,0.665
			c0.751,0.352,1.532,0.53,2.323,0.53h2.55c0.232,1.14,1.243,2,2.45,2C17.707,17.5,18.718,16.64,18.95,15.499z"/>
	</g>
</g>
</svg>
