<?xml version="1.0" encoding="iso-8859-1"?>
<!-- Generator: Adobe Illustrator 19.0.0, SVG Export Plug-In . SVG Version: 6.00 Build 0)  -->
<svg version="1.1" id="Layer_1" xmlns="http://www.w3.org/2000/svg" xmlns:xlink="http://www.w3.org/1999/xlink" x="0px" y="0px"
	 viewBox="0 0 24 24" style="enable-background:new 0 0 24 24;" xml:space="preserve">
<g>
	<g>
		<path d="M12,1.029C5.383,1.029,0,5.502,0,11c0,2.825,1.444,5.497,3.979,7.393l-1.927,3.854c-0.102,0.203-0.053,0.449,0.117,0.599
			c0.094,0.083,0.211,0.125,0.33,0.125c0.097,0,0.194-0.028,0.279-0.085l4.217-2.831c1.588,0.608,3.271,0.916,5.004,0.916
			C18.616,20.971,24,16.498,24,11C24,5.502,18.617,1.029,12,1.029z M11.999,19.971c-1.695,0-3.336-0.316-4.877-0.939
			c-0.153-0.062-0.328-0.045-0.466,0.048l-2.862,1.921l1.27-2.54c0.111-0.223,0.042-0.493-0.163-0.635
			c-2.48-1.717-3.902-4.205-3.902-6.825c0-4.947,4.935-8.971,11-8.971c6.065,0,11,4.023,11,8.97S18.064,19.971,11.999,19.971z"/>
	</g>
</g>
</svg>
