<?xml version="1.0" encoding="iso-8859-1"?>
<!-- Generator: Adobe Illustrator 19.0.0, SVG Export Plug-In . SVG Version: 6.00 Build 0)  -->
<svg version="1.1" id="Layer_1" xmlns="http://www.w3.org/2000/svg" xmlns:xlink="http://www.w3.org/1999/xlink" x="0px" y="0px"
	 viewBox="0 0 30 30" style="enable-background:new 0 0 30 30;" xml:space="preserve">
<g>
	<g>
		<path d="M27,19H16c-0.827,0-1.5,0.673-1.5,1.5v8c0,0.827,0.673,1.5,1.5,1.5h11c0.827,0,1.5-0.673,1.5-1.5v-8
			C28.5,19.673,27.827,19,27,19z M27.5,28.5c0,0.275-0.224,0.5-0.5,0.5H16c-0.276,0-0.5-0.225-0.5-0.5V22h12V28.5z M27.5,21h-12
			v-0.5c0-0.275,0.224-0.5,0.5-0.5h11c0.276,0,0.5,0.225,0.5,0.5V21z M22.5,27c0.385,0,0.734-0.15,1-0.39
			c0.266,0.24,0.615,0.39,1,0.39c0.827,0,1.5-0.673,1.5-1.5c0-0.827-0.673-1.5-1.5-1.5c-0.385,0-0.734,0.15-1,0.39
			c-0.266-0.24-0.615-0.39-1-0.39c-0.827,0-1.5,0.673-1.5,1.5C21,26.327,21.673,27,22.5,27z M24.5,25c0.276,0,0.5,0.225,0.5,0.5
			c0,0.275-0.224,0.5-0.5,0.5S24,25.775,24,25.5C24,25.225,24.224,25,24.5,25z M22.5,25c0.276,0,0.5,0.225,0.5,0.5
			c0,0.275-0.224,0.5-0.5,0.5S22,25.775,22,25.5C22,25.225,22.224,25,22.5,25z M13,27H4.471C3.384,27,2.5,26.028,2.5,24.833V6.099
			C3.026,6.653,3.712,7,4.471,7H21.5v10.5c0,0.276,0.224,0.5,0.5,0.5s0.5-0.224,0.5-0.5v-11c0-0.032-0.013-0.061-0.018-0.092
			c-0.003-0.015-0.004-0.027-0.008-0.041c-0.025-0.09-0.069-0.17-0.136-0.231c-0.002-0.002-0.002-0.006-0.005-0.008
			C22.3,6.097,21.5,5.34,21.5,3.5c0-1.84,0.8-2.597,0.829-2.624c0.157-0.137,0.212-0.357,0.139-0.552S22.208,0,22,0H4.471
			C2.833,0,1.5,1.57,1.5,3.5v21.333C1.5,26.579,2.833,28,4.471,28H13c0.276,0,0.5-0.224,0.5-0.5S13.276,27,13,27z M4.471,1h16.574
			c-0.234,0.462-0.449,1.129-0.515,2H5C4.724,3,4.5,3.224,4.5,3.5S4.724,4,5,4h15.53c0.065,0.871,0.281,1.538,0.515,2H4.471
			C3.384,6,2.5,4.879,2.5,3.5C2.5,2.121,3.385,1,4.471,1z"/>
	</g>
</g>
</svg>
