<?xml version="1.0" encoding="iso-8859-1"?>
<!-- Generator: Adobe Illustrator 19.0.0, SVG Export Plug-In . SVG Version: 6.00 Build 0)  -->
<svg version="1.1" id="Layer_1" xmlns="http://www.w3.org/2000/svg" xmlns:xlink="http://www.w3.org/1999/xlink" x="0px" y="0px"
	 viewBox="0 0 30 30" style="enable-background:new 0 0 30 30;" xml:space="preserve">
<g>
	<g>
		<path d="M27.96,0.305C27.882,0.12,27.7,0,27.499,0c-4.073,0-8.242,1.353-10.137,3.29c-1.234,1.261-1.607,3.056-1.161,4.661
			C17.669,5.703,20.127,4,21.5,4C21.776,4,22,4.224,22,4.5S21.776,5,21.5,5c-0.115,0-0.251,0.027-0.395,0.066
			c-0.79,0.193-1.868,0.907-2.838,1.899C17.17,8.065,16.219,9.51,16.038,11h-0.537c-0.276,0-0.5,0.224-0.5,0.5v1.793l-3.146-3.146
			c-0.195-0.195-0.512-0.195-0.707,0l-9,9c-0.143,0.143-0.186,0.358-0.108,0.545C2.117,19.878,2.3,20,2.502,20h0.5v9.5
			c0,0.276,0.224,0.5,0.5,0.5h16c0.276,0,0.5-0.224,0.5-0.5V20h0.5c0.202,0,0.385-0.122,0.462-0.309
			c0.078-0.187,0.035-0.402-0.108-0.545l-2.854-2.854V11.5c0-0.276-0.224-0.5-0.5-0.5h-0.459c0.054-0.338,0.161-0.676,0.305-1.008
			c0.006,0.006,0.01,0.013,0.016,0.019C17.988,10.648,18.994,11,20.198,11c1.565,0,3.171-0.565,3.994-1.407
			c1.474-1.506,1.851-3.375,2.182-5.023c0.288-1.427,0.559-2.775,1.484-3.721C27.997,0.706,28.038,0.492,27.96,0.305z M14.999,26.5
			c0,0.276-0.224,0.5-0.5,0.5h-6c-0.276,0-0.5-0.224-0.5-0.5v-6c0-0.276,0.224-0.5,0.5-0.5h6c0.276,0,0.5,0.224,0.5,0.5V26.5z"/>
	</g>
</g>
</svg>
