<?xml version="1.0" encoding="iso-8859-1"?>
<!-- Generator: Adobe Illustrator 19.0.0, SVG Export Plug-In . SVG Version: 6.00 Build 0)  -->
<svg version="1.1" id="Layer_1" xmlns="http://www.w3.org/2000/svg" xmlns:xlink="http://www.w3.org/1999/xlink" x="0px" y="0px"
	 viewBox="0 0 30 30" style="enable-background:new 0 0 30 30;" xml:space="preserve">
<g>
	<g>
		<path d="M21.333,16.206c-2.061,0.503-3.764,1.917-4.659,3.794h3.518C20.406,18.474,20.789,17.12,21.333,16.206z M22.989,16
			c-0.603,0-1.407,1.495-1.785,4h3.57C24.396,17.495,23.592,16,22.989,16z M16.283,21c-0.19,0.634-0.295,1.305-0.295,2
			s0.105,1.366,0.295,2h3.796c-0.058-0.655-0.09-1.328-0.09-2s0.032-1.345,0.09-2H16.283z M15.256,25h-4.767
			c-0.276,0-0.5-0.224-0.5-0.5v-9c0-0.276,0.224-0.5,0.5-0.5h9c0.276,0,0.5,0.224,0.5,0.5v0.089c0.927-0.377,1.939-0.589,3-0.589
			c0.8,0,1.591,0.119,2.353,0.354c0.152,0.048,0.316,0.019,0.444-0.075c0.094-0.069,0.159-0.168,0.188-0.279h3.516
			c0.008,0.001,0.015,0,0.02,0c0.276,0,0.5-0.224,0.5-0.5c-0.001-0.18-0.096-0.338-0.24-0.426l-3.781-3.82V0.5
			c0-0.276-0.224-0.5-0.5-0.5h-5c-0.276,0-0.5,0.224-0.5,0.5v3.694l-3.572-3.607c-0.754-0.751-2.097-0.755-2.858,0.003L0.134,14.148
			c-0.142,0.143-0.184,0.358-0.106,0.544C0.106,14.88,0.288,15,0.49,15h3.5v14.5c0,0.276,0.224,0.5,0.5,0.5h13.034
			c0.21,0,0.397-0.131,0.47-0.329s0.013-0.418-0.147-0.554C16.557,28.031,15.668,26.589,15.256,25z M24.895,25
			c0.059-0.621,0.094-1.287,0.094-2s-0.035-1.379-0.094-2h-3.812c-0.059,0.621-0.094,1.287-0.094,2s0.035,1.379,0.094,2H24.895z
			 M25.898,21c0.058,0.655,0.09,1.328,0.09,2s-0.032,1.345-0.09,2h3.796c0.19-0.634,0.295-1.305,0.295-2s-0.105-1.366-0.295-2
			H25.898z M24.645,29.794c2.061-0.503,3.764-1.917,4.659-3.794h-3.518C25.572,27.526,25.189,28.878,24.645,29.794z M21.204,26
			c0.378,2.505,1.182,4,1.785,4c0.603,0,1.407-1.495,1.785-4H21.204z M29.304,20c-0.895-1.877-2.598-3.291-4.659-3.794
			c0.544,0.915,0.927,2.268,1.141,3.794H29.304z M16.674,26c0.895,1.877,2.598,3.291,4.659,3.794
			c-0.544-0.915-0.927-2.268-1.141-3.794H16.674z"/>
	</g>
</g>
</svg>
