<?xml version="1.0" encoding="iso-8859-1"?>
<!-- Generator: Adobe Illustrator 19.0.0, SVG Export Plug-In . SVG Version: 6.00 Build 0)  -->
<svg version="1.1" id="Layer_1" xmlns="http://www.w3.org/2000/svg" xmlns:xlink="http://www.w3.org/1999/xlink" x="0px" y="0px"
	 viewBox="0 0 24 24" style="enable-background:new 0 0 24 24;" xml:space="preserve">
<g>
	<g>
		<path d="M18.5,2.882V1.5C18.5,0.673,17.827,0,17,0H7C6.173,0,5.5,0.673,5.5,1.5v1.382c-0.615,0.703-1,1.612-1,2.618v11
			C4.5,17.327,5.173,18,6,18h0.306l-0.78,2.341c-0.051,0.153-0.026,0.321,0.069,0.451C5.688,20.923,5.839,21,6,21h0.593
			c0.297,1.008,1.271,2.459,1.496,2.784C8.182,23.919,8.336,24,8.5,24s0.318-0.081,0.411-0.216c0.225-0.325,1.2-1.776,1.496-2.784
			H11c0.161,0,0.312-0.077,0.407-0.208c0.094-0.131,0.12-0.299,0.069-0.451L11.362,20h1.277l-0.114,0.341
			c-0.051,0.153-0.026,0.321,0.069,0.451C12.688,20.923,12.839,21,13,21h0.593c0.297,1.008,1.271,2.459,1.496,2.784
			C15.182,23.919,15.336,24,15.5,24s0.318-0.081,0.411-0.216c0.225-0.325,1.2-1.776,1.496-2.784H18c0.161,0,0.312-0.077,0.407-0.208
			c0.094-0.131,0.12-0.299,0.069-0.451L17.696,18H18c0.827,0,1.5-0.673,1.5-1.5v-11C19.5,4.494,19.115,3.586,18.5,2.882z M6.5,1.5
			C6.5,1.224,6.725,1,7,1h10c0.275,0,0.5,0.224,0.5,0.5v0.556c-0.591-0.344-1.268-0.556-2-0.556c-1.516,0-2.822,0.857-3.5,2.103
			C11.322,2.357,10.016,1.5,8.5,1.5c-0.732,0-1.409,0.212-2,0.556V1.5z M5.5,5.5c0-1.654,1.346-3,3-3s3,1.346,3,3V8h-6V5.5z M5.5,9
			h6v2h-6V9z M8.5,22.589C8.141,22.016,7.824,21.431,7.648,21h1.704C9.175,21.431,8.859,22.015,8.5,22.589z M6.693,20l0.667-2h2.279
			l0.667,2H6.693z M10.004,17c-0.001,0-0.002-0.001-0.003-0.001h-3C7,16.999,6.999,17,6.998,17H6c-0.275,0-0.5-0.224-0.5-0.5V12h6
			v4.5c0,0.276-0.225,0.5-0.5,0.5H10.004z M12.973,19h-1.944l-0.333-1H11c0.385,0,0.734-0.15,1-0.39c0.266,0.24,0.615,0.39,1,0.39
			h0.306L12.973,19z M15.5,22.589c-0.359-0.573-0.676-1.158-0.852-1.589h1.704C16.175,21.431,15.859,22.015,15.5,22.589z M13.693,20
			l0.667-2h2.279l0.667,2H13.693z M18.5,16.5c0,0.276-0.225,0.5-0.5,0.5h-0.996c-0.001,0-0.002-0.001-0.003-0.001h-3
			C14,16.999,13.999,17,13.998,17H13c-0.275,0-0.5-0.224-0.5-0.5V12h6V16.5z M18.5,11h-6V9h6V11z M18.5,8h-6V5.5
			c0-1.654,1.346-3,3-3s3,1.346,3,3V8z"/>
	</g>
</g>
</svg>
