<?xml version="1.0" encoding="iso-8859-1"?>
<!-- Generator: Adobe Illustrator 19.0.0, SVG Export Plug-In . SVG Version: 6.00 Build 0)  -->
<svg version="1.1" id="Layer_1" xmlns="http://www.w3.org/2000/svg" xmlns:xlink="http://www.w3.org/1999/xlink" x="0px" y="0px"
	 viewBox="0 0 24 24" style="enable-background:new 0 0 24 24;" xml:space="preserve">
<g>
	<g>
		<path d="M7.76,6.032c0.276,0,0.5-0.224,0.5-0.5c0-0.719,0.277-1.398,0.778-1.914C9.23,3.42,9.226,3.104,9.028,2.911
			C8.83,2.719,8.514,2.723,8.321,2.921C7.637,3.624,7.26,4.552,7.26,5.532C7.26,5.808,7.484,6.032,7.76,6.032z M23.817,15.703
			l-6.312-5.341c4.301-2.836,7.425-6.406,6.236-8.737c-0.989-1.942-4.592-2.162-9.423-0.594C13.24,0.44,11.871,0.099,10.78,0.099
			c-3.033,0-5.5,2.467-5.5,5.5v0.045c-4.076,2.971-6.003,5.988-5.026,7.906c0.554,1.088,1.962,1.616,3.896,1.616
			c1.902,0,4.315-0.521,6.919-1.514l1.429,9.924c0.037,0.249,0.25,0.429,0.495,0.429c0.023,0,0.047-0.002,0.071-0.005
			c0.274-0.039,0.463-0.293,0.424-0.566L12.025,13.27c0.762-0.319,1.534-0.668,2.314-1.065c0.782-0.398,1.549-0.832,2.291-1.288
			c0.015,0.016,0.023,0.037,0.041,0.052l6.5,5.5c0.093,0.079,0.208,0.118,0.322,0.118c0.142,0,0.283-0.06,0.383-0.177
			C24.054,16.197,24.028,15.882,23.817,15.703z M6.281,5.599c0-2.481,2.019-4.5,4.5-4.5c1.414,0,3.458,0.693,4.132,1.687
			c0.223,0.329,0.263,0.641,0.127,0.98C14.209,5.84,8.975,8.518,6.807,7.983C6.275,7.852,6.279,6.55,6.281,5.773V5.599z
			 M13.885,11.313c-6.386,3.254-11.839,3.551-12.74,1.783C0.478,11.789,2.176,9.29,5.314,6.868c0.076,0.929,0.337,1.86,1.253,2.086
			c0.259,0.065,0.548,0.095,0.858,0.095c2.878,0,7.621-2.608,8.543-4.911c0.259-0.648,0.18-1.309-0.228-1.912
			c-0.11-0.163-0.244-0.319-0.396-0.466c3.806-1.113,6.832-1.006,7.507,0.319C23.743,3.831,20.281,8.053,13.885,11.313z"/>
	</g>
</g>
</svg>
