<?xml version="1.0" encoding="iso-8859-1"?>
<!-- Generator: Adobe Illustrator 19.0.0, SVG Export Plug-In . SVG Version: 6.00 Build 0)  -->
<svg version="1.1" id="Layer_1" xmlns="http://www.w3.org/2000/svg" xmlns:xlink="http://www.w3.org/1999/xlink" x="0px" y="0px"
	 viewBox="0 0 24 24" style="enable-background:new 0 0 24 24;" xml:space="preserve">
<g>
	<g>
		<circle cx="6" cy="22" r="2"/>
		<circle cx="18" cy="22" r="2"/>
	</g>
	<g>
		<path d="M22.5,21c-0.276,0-0.5-0.224-0.5-0.5v-12c0-3.211-2.398-5.974-5.578-6.427c-0.273-0.039-0.464-0.292-0.425-0.565
			s0.299-0.463,0.565-0.425C20.232,1.606,23,4.794,23,8.5v12C23,20.776,22.776,21,22.5,21z"/>
	</g>
	<g>
		<path d="M1.5,21C1.224,21,1,20.776,1,20.5v-12c0-3.706,2.768-6.895,6.437-7.417c0.269-0.037,0.527,0.151,0.565,0.425
			c0.039,0.273-0.151,0.526-0.425,0.565C4.398,2.525,2,5.289,2,8.5v12C2,20.776,1.776,21,1.5,21z"/>
	</g>
	<path d="M13.5,0h-3C9.673,0,9,0.673,9,1.5S9.673,3,10.5,3h3C14.327,3,15,2.327,15,1.5S14.327,0,13.5,0z"/>
	<g>
		<path d="M23.5,21h-23C0.224,21,0,20.776,0,20.5S0.224,20,0.5,20h23c0.276,0,0.5,0.224,0.5,0.5S23.776,21,23.5,21z"/>
	</g>
	<g>
		<path d="M4.5,14C4.224,14,4,14.224,4,14.5v4C4,18.776,4.224,19,4.5,19H7v-5H4.5z"/>
		<rect x="8" y="14" width="8" height="5"/>
		<path d="M19.5,14H17v5h2.5c0.276,0,0.5-0.224,0.5-0.5v-4C20,14.224,19.776,14,19.5,14z"/>
	</g>
	<path d="M18,14v-3.5c0-0.276-0.224-0.5-0.5-0.5H16v4H18z"/>
	<path d="M15,14v-4H9v4H15z M10,12c0-0.276,0.224-0.5,0.5-0.5S11,11.724,11,12h2c0-0.276,0.224-0.5,0.5-0.5S14,11.724,14,12v0.5
		c0,0.276-0.224,0.5-0.5,0.5h-3c-0.276,0-0.5-0.224-0.5-0.5V12z"/>
	<path d="M8,14v-4H6.5C6.224,10,6,10.224,6,10.5V14H8z"/>
</g>
<g>
</g>
<g>
</g>
<g>
</g>
<g>
</g>
<g>
</g>
<g>
</g>
<g>
</g>
<g>
</g>
<g>
</g>
<g>
</g>
<g>
</g>
<g>
</g>
<g>
</g>
<g>
</g>
<g>
</g>
</svg>
