<?xml version="1.0" encoding="iso-8859-1"?>
<!-- Generator: Adobe Illustrator 19.0.0, SVG Export Plug-In . SVG Version: 6.00 Build 0)  -->
<svg version="1.1" id="Layer_1" xmlns="http://www.w3.org/2000/svg" xmlns:xlink="http://www.w3.org/1999/xlink" x="0px" y="0px"
	 viewBox="0 0 24 24" style="enable-background:new 0 0 24 24;" xml:space="preserve">
<g>
	<g>
		<path d="M20.5,10c-0.216,0-0.414-0.14-0.479-0.357c-0.714-2.396-2.46-4.804-3.244-5.196c-0.848-0.424-8.705-0.424-9.553,0
			c-0.784,0.392-2.53,2.799-3.244,5.196c-0.08,0.264-0.352,0.416-0.622,0.336C3.093,9.9,2.942,9.622,3.021,9.357
			c0.707-2.372,2.532-5.192,3.756-5.804c1.123-0.562,9.324-0.562,10.447,0c1.224,0.612,3.049,3.433,3.756,5.804
			c0.078,0.265-0.072,0.543-0.337,0.622C20.595,9.993,20.547,10,20.5,10z"/>
	</g>
	<g>
		<path d="M5.582,19.507l-3-0.5c-0.143-0.021-0.293,0.017-0.405,0.112C2.064,19.213,2,19.353,2,19.5v2C2,22.327,2.673,23,3.5,23h1
			C5.327,23,6,22.327,6,21.5V20C6,19.755,5.823,19.547,5.582,19.507z"/>
		<path d="M21.823,19.119c-0.112-0.095-0.26-0.134-0.405-0.112l-3,0.5C18.177,19.547,18,19.755,18,20v1.5c0,0.827,0.673,1.5,1.5,1.5
			h1c0.827,0,1.5-0.673,1.5-1.5v-2C22,19.353,21.936,19.213,21.823,19.119z"/>
	</g>
	<g>
		<path d="M12,10.5c-2.12,0-8.278-0.481-8.539-0.501C3.186,9.977,2.979,9.736,3.002,9.461c0.021-0.276,0.265-0.476,0.537-0.459
			C3.603,9.006,9.919,9.5,12,9.5s8.397-0.494,8.461-0.499c0.27-0.015,0.516,0.184,0.537,0.459c0.022,0.275-0.184,0.516-0.459,0.538
			C20.278,10.019,14.12,10.5,12,10.5z"/>
	</g>
	<g>
		<path d="M2.947,7.276C2.886,7.153,2.776,7.061,2.645,7.021C2.61,7.011,2.296,6.919,1.896,6.919C0.709,6.919,0,7.697,0,9
			c0,0.938,1.514,1.338,2.415,1.493C2.443,10.498,2.472,10.5,2.5,10.5c0.077,0,0.154-0.018,0.224-0.053l1-0.5
			C3.971,9.824,4.07,9.523,3.947,9.276L2.947,7.276z"/>
		<path d="M22.104,6.919c-0.4,0-0.715,0.091-0.749,0.102c-0.132,0.04-0.241,0.132-0.303,0.255l-1,2
			c-0.123,0.247-0.023,0.547,0.224,0.671l1,0.5c0.069,0.035,0.146,0.053,0.224,0.053c0.028,0,0.057-0.002,0.085-0.007
			C22.486,10.338,24,9.938,24,9C24,7.697,23.291,6.919,22.104,6.919z"/>
		<path d="M14.947,1.276C14.862,1.107,14.689,1,14.5,1h-5C9.311,1,9.138,1.107,9.053,1.276l-1,2C7.93,3.523,8.029,3.824,8.276,3.947
			c0.248,0.124,0.547,0.024,0.671-0.224L9.059,3.5h5.882l0.112,0.224C15.141,3.899,15.317,4,15.5,4c0.075,0,0.151-0.017,0.224-0.053
			c0.247-0.124,0.347-0.424,0.224-0.671L14.947,1.276z"/>
	</g>
	<g>
		<polygon points="9.424,16 14.576,16 14.91,14 9.09,14 		"/>
		<path d="M18.086,15H23c0-0.316-0.026-0.655-0.065-1H19.5C18.848,14,18.292,14.418,18.086,15z"/>
		<path d="M5.914,15c-0.206-0.582-0.762-1-1.414-1H1.065C1.026,14.345,1,14.684,1,15H5.914z"/>
		<path d="M17.5,16c-0.276,0-0.5-0.224-0.5-0.5c0-1.378,1.121-2.5,2.5-2.5h3.272c-0.304-1.427-0.925-2.891-1.924-3.859
			c-0.197-0.192-0.515-0.186-0.707,0.011c-0.094,0.097-0.139,0.223-0.139,0.348H3.998c0-0.125-0.045-0.251-0.139-0.348
			C3.667,8.955,3.351,8.949,3.152,9.141c-1,0.968-1.62,2.432-1.924,3.859H4.5C5.879,13,7,14.122,7,15.5C7,15.776,6.776,16,6.5,16
			H1.032c0.037,0.634,0.106,1.232,0.21,1.757c0.029,0.147,0.123,0.273,0.255,0.344c0.133,0.071,0.29,0.078,0.428,0.02
			c0.276-0.115,0.548-0.146,0.822-0.101l3,0.5C6.473,18.642,7,19.264,7,20v0.232c0,0.256,0.194,0.472,0.449,0.498
			C8.662,20.853,10.437,21,12,21s3.338-0.147,4.551-0.27C16.806,20.704,17,20.489,17,20.232V20c0-0.736,0.527-1.358,1.253-1.479
			l3.002-0.5c0.269-0.046,0.545-0.015,0.82,0.101c0.138,0.057,0.295,0.05,0.428-0.02c0.132-0.071,0.226-0.197,0.255-0.344
			c0.104-0.525,0.173-1.124,0.21-1.757H17.5z M15.493,16.582C15.453,16.823,15.244,17,15,17H9c-0.244,0-0.453-0.177-0.493-0.418
			l-0.5-3c-0.024-0.145,0.017-0.293,0.111-0.405C8.214,13.064,8.353,13,8.5,13h7c0.147,0,0.286,0.064,0.382,0.177
			c0.095,0.112,0.136,0.26,0.111,0.405L15.493,16.582z"/>
	</g>
</g>
<g>
</g>
<g>
</g>
<g>
</g>
<g>
</g>
<g>
</g>
<g>
</g>
<g>
</g>
<g>
</g>
<g>
</g>
<g>
</g>
<g>
</g>
<g>
</g>
<g>
</g>
<g>
</g>
<g>
</g>
</svg>
