<?xml version="1.0" encoding="iso-8859-1"?>
<!-- Generator: Adobe Illustrator 19.0.0, SVG Export Plug-In . SVG Version: 6.00 Build 0)  -->
<svg version="1.1" id="Layer_1" xmlns="http://www.w3.org/2000/svg" xmlns:xlink="http://www.w3.org/1999/xlink" x="0px" y="0px"
	 viewBox="0 0 24 24" style="enable-background:new 0 0 24 24;" xml:space="preserve">
<g>
	<path d="M22.5,11.955h-21c-0.827,0-1.5,0.673-1.5,1.5s0.673,1.5,1.5,1.5h21c0.827,0,1.5-0.673,1.5-1.5S23.327,11.955,22.5,11.955z"
		/>
	<path d="M22.638,13.974c-0.271-0.076-0.543,0.078-0.618,0.344l-0.039,0.137H2.02L1.98,14.318c-0.075-0.266-0.349-0.418-0.618-0.344
		c-0.266,0.076-0.419,0.353-0.343,0.618l1.378,4.824c0.427,1.495,1.811,2.539,3.365,2.539h12.475c1.555,0,2.938-1.044,3.365-2.539
		l1.378-4.824C23.057,14.327,22.903,14.05,22.638,13.974z M5.763,19.955c-0.666,0-1.26-0.447-1.442-1.088l-0.649-2.274
		c-0.076-0.266,0.078-0.542,0.343-0.618c0.268-0.076,0.543,0.079,0.618,0.344l0.649,2.274c0.062,0.213,0.259,0.363,0.481,0.363
		c0.276,0,0.5,0.224,0.5,0.5S6.039,19.955,5.763,19.955z"/>
	<g>
		<path d="M5.5,23.955c-0.075,0-0.151-0.017-0.224-0.053c-0.247-0.124-0.347-0.424-0.224-0.671l1-2
			c0.125-0.248,0.424-0.345,0.671-0.224c0.247,0.124,0.347,0.424,0.224,0.671l-1,2C5.859,23.854,5.683,23.955,5.5,23.955z"/>
	</g>
	<g>
		<path d="M18.5,23.955c-0.183,0-0.359-0.101-0.447-0.276l-1-2c-0.123-0.247-0.023-0.547,0.224-0.671
			c0.247-0.123,0.547-0.024,0.671,0.224l1,2c0.123,0.247,0.023,0.547-0.224,0.671C18.651,23.938,18.575,23.955,18.5,23.955z"/>
	</g>
	<g>
		<path d="M21.5,12.955c-0.276,0-0.5-0.224-0.5-0.5v-10.5c0-0.502-0.408-0.91-0.91-0.91c-0.249,0-0.478,0.095-0.649,0.267
			l-1.587,1.586c-0.195,0.195-0.512,0.195-0.707,0s-0.195-0.512,0-0.707l1.587-1.587c0.361-0.361,0.841-0.56,1.351-0.56
			c1.06,0,1.916,0.857,1.916,1.91v10.5C22,12.731,21.776,12.955,21.5,12.955z"/>
	</g>
	<path d="M18.354,2.691l-1-1c-0.114-0.114-0.273-0.167-0.435-0.14l-2.5,0.41c-0.184,0.03-0.335,0.16-0.394,0.336
		s-0.014,0.372,0.116,0.505l3,3.09c0.095,0.099,0.226,0.152,0.358,0.152c0.047,0,0.095-0.007,0.142-0.021
		c0.178-0.052,0.313-0.199,0.349-0.381l0.5-2.5C18.523,2.979,18.472,2.81,18.354,2.691z"/>
	<g>
		<path d="M10.5,7.955c-0.128,0-0.256-0.049-0.354-0.146c-0.195-0.195-0.195-0.512,0-0.707l1-1c0.195-0.195,0.512-0.195,0.707,0
			s0.195,0.512,0,0.707l-1,1C10.756,7.906,10.628,7.955,10.5,7.955z"/>
	</g>
	<g>
		<path d="M12.5,9.955c-0.128,0-0.256-0.049-0.354-0.146c-0.195-0.195-0.195-0.512,0-0.707l1-1c0.195-0.195,0.512-0.195,0.707,0
			s0.195,0.512,0,0.707l-1,1C12.756,9.906,12.628,9.955,12.5,9.955z"/>
	</g>
	<g>
		<path d="M13.5,6.955c-0.128,0-0.256-0.049-0.354-0.146c-0.195-0.195-0.195-0.512,0-0.707l1-1c0.195-0.195,0.512-0.195,0.707,0
			s0.195,0.512,0,0.707l-1,1C13.756,6.906,13.628,6.955,13.5,6.955z"/>
	</g>
</g>
<g>
</g>
<g>
</g>
<g>
</g>
<g>
</g>
<g>
</g>
<g>
</g>
<g>
</g>
<g>
</g>
<g>
</g>
<g>
</g>
<g>
</g>
<g>
</g>
<g>
</g>
<g>
</g>
<g>
</g>
</svg>
