<?xml version="1.0" encoding="iso-8859-1"?>
<!-- Generator: Adobe Illustrator 19.0.0, SVG Export Plug-In . SVG Version: 6.00 Build 0)  -->
<svg version="1.1" id="Layer_1" xmlns="http://www.w3.org/2000/svg" xmlns:xlink="http://www.w3.org/1999/xlink" x="0px" y="0px"
	 viewBox="0 0 24 24" style="enable-background:new 0 0 24 24;" xml:space="preserve">
<g>
	<g>
		<rect x="4" y="16" width="12" height="1"/>
		<path d="M4,18v2.5C4,20.776,4.224,21,4.5,21h11c0.276,0,0.5-0.224,0.5-0.5V18H4z"/>
		<path d="M17.5,3h-10C5.57,3,4,4.57,4,6.5V15h12V5.5C16,4.673,16.673,4,17.5,4C17.776,4,18,3.776,18,3.5S17.776,3,17.5,3z"/>
	</g>
	<g>
		<path d="M4.5,6h-2C2.224,6,2,5.776,2,5.5S2.224,5,2.5,5h2C4.776,5,5,5.224,5,5.5S4.776,6,4.5,6z"/>
	</g>
	<path d="M17.5,5c-0.15,0-0.28,0.07-0.372,0.174L17,5.75V6h3V5.5C20,4.122,18.879,3,17.5,3C17.224,3,17,3.224,17,3.5
		c0,0.239,0.17,0.429,0.394,0.479l-0.007,0.033C17.424,4.009,17.461,4,17.5,4C17.776,4,18,4.224,18,4.5S17.776,5,17.5,5z"/>
	<circle cx="1.5" cy="5.5" r="1.5"/>
	<circle cx="22.5" cy="5.5" r="1.5"/>
	<g>
		<rect x="17" y="7" width="3" height="2"/>
		<path d="M17,10v3h2.5c0.276,0,0.5-0.224,0.5-0.5V10H17z"/>
	</g>
	<path d="M21.5,5h-4C17.225,5,17,5.224,17,5.5V6h4.5C21.776,6,22,5.776,22,5.5S21.776,5,21.5,5z"/>
</g>
<g>
</g>
<g>
</g>
<g>
</g>
<g>
</g>
<g>
</g>
<g>
</g>
<g>
</g>
<g>
</g>
<g>
</g>
<g>
</g>
<g>
</g>
<g>
</g>
<g>
</g>
<g>
</g>
<g>
</g>
</svg>
