<?xml version="1.0" encoding="utf-8"?>
<!-- Generator: Adobe Illustrator 19.0.0, SVG Export Plug-In . SVG Version: 6.00 Build 0)  -->
<svg version="1.1" id="Layer_1" xmlns="http://www.w3.org/2000/svg" xmlns:xlink="http://www.w3.org/1999/xlink" x="0px" y="0px"
	 viewBox="0 0 30 30" style="enable-background:new 0 0 30 30;" xml:space="preserve">
<g>
	<g>
		<path d="M24.5,30h-23C0.7,30,0,29.3,0,28.5v-25C0,1.6,1.6,0,3.5,0h19C24.4,0,26,1.6,26,3.5v25C26,29.3,25.3,30,24.5,30z M3.5,1
			C2.1,1,1,2.1,1,3.5v25C1,28.8,1.2,29,1.5,29h23c0.3,0,0.5-0.2,0.5-0.5v-25C25,2.1,23.9,1,22.5,1H3.5z"/>
	</g>
	<g>
		<path d="M11.5,6h-7C4.2,6,4,5.8,4,5.5v-2C4,3.2,4.2,3,4.5,3h7C11.8,3,12,3.2,12,3.5v2C12,5.8,11.8,6,11.5,6z M5,5h6V4H5V5z"/>
	</g>
	<g>
		<path d="M25.5,9h-25C0.2,9,0,8.8,0,8.5S0.2,8,0.5,8h25C25.8,8,26,8.2,26,8.5S25.8,9,25.5,9z"/>
	</g>
	<g>
		<path d="M20.5,29.8c-0.3,0-0.5-0.2-0.5-0.5V17c0-1.1-0.9-2-2-2H8c-1.1,0-2,0.9-2,2v12.3c0,0.3-0.2,0.5-0.5,0.5S5,29.5,5,29.3V17
			c0-1.7,1.3-3,3-3h10c1.7,0,3,1.3,3,3v12.3C21,29.5,20.8,29.8,20.5,29.8z"/>
	</g>
	<g>
		<path d="M20.5,22h-15C5.2,22,5,21.8,5,21.5S5.2,21,5.5,21h15c0.3,0,0.5,0.2,0.5,0.5S20.8,22,20.5,22z"/>
	</g>
	<g>
		<path d="M20.5,26h-15C5.2,26,5,25.8,5,25.5S5.2,25,5.5,25h15c0.3,0,0.5,0.2,0.5,0.5S20.8,26,20.5,26z"/>
	</g>
	<g>
		<path d="M15.5,24h-5c-0.3,0-0.5-0.2-0.5-0.5s0.2-0.5,0.5-0.5h5c0.3,0,0.5,0.2,0.5,0.5S15.8,24,15.5,24z"/>
	</g>
	<g>
		<path d="M15.5,28h-5c-0.3,0-0.5-0.2-0.5-0.5s0.2-0.5,0.5-0.5h5c0.3,0,0.5,0.2,0.5,0.5S15.8,28,15.5,28z"/>
	</g>
	<g>
		<path d="M14.2,19h-2.5c-1,0-1.8-0.8-1.8-1.8V15c0-0.3,0.2-0.5,0.5-0.5S11,14.7,11,15v2.3c0,0.4,0.3,0.8,0.8,0.8h2.5
			c0.4,0,0.8-0.3,0.8-0.8V15c0-0.3,0.2-0.5,0.5-0.5S16,14.7,16,15v2.3C16,18.2,15.2,19,14.2,19z"/>
	</g>
	<g>
		<path d="M25.5,16c-0.2,0-0.4-0.2-0.5-0.4c-0.1-0.3,0.1-0.5,0.4-0.6l4-1c0.3-0.1,0.5,0.1,0.6,0.4c0.1,0.3-0.1,0.5-0.4,0.6l-4,1
			C25.6,16,25.5,16,25.5,16z"/>
	</g>
	<g>
		<path d="M15.5,6C14.7,6,14,5.3,14,4.5S14.7,3,15.5,3S17,3.7,17,4.5S16.3,6,15.5,6z M15.5,4C15.2,4,15,4.2,15,4.5S15.2,5,15.5,5
			S16,4.8,16,4.5S15.8,4,15.5,4z"/>
	</g>
	<g>
		<path d="M20.5,6C19.7,6,19,5.3,19,4.5S19.7,3,20.5,3S22,3.7,22,4.5S21.3,6,20.5,6z M20.5,4C20.2,4,20,4.2,20,4.5S20.2,5,20.5,5
			S21,4.8,21,4.5S20.8,4,20.5,4z"/>
	</g>
</g>
</svg>
