<?xml version="1.0" encoding="iso-8859-1"?>
<!-- Generator: Adobe Illustrator 19.0.0, SVG Export Plug-In . SVG Version: 6.00 Build 0)  -->
<svg version="1.1" id="Layer_1" xmlns="http://www.w3.org/2000/svg" xmlns:xlink="http://www.w3.org/1999/xlink" x="0px" y="0px"
	 viewBox="0 0 24 24" style="enable-background:new 0 0 24 24;" xml:space="preserve">
<g>
	<g>
		<path d="M8.114,11.891c0.008,0.008,0.018,0.014,0.027,0.022c0.242,0.239,0.506,0.457,0.789,0.648
			c0.03,0.02,0.062,0.036,0.092,0.056c0.268,0.173,0.549,0.327,0.846,0.452c0.034,0.014,0.069,0.024,0.103,0.038
			c0.3,0.119,0.61,0.217,0.933,0.282c0.02,0.004,0.04,0.005,0.059,0.009C11.299,13.463,11.645,13.5,12,13.5s0.701-0.037,1.037-0.101
			c0.02-0.004,0.04-0.005,0.059-0.009c0.322-0.065,0.632-0.163,0.931-0.282c0.035-0.014,0.071-0.024,0.106-0.039
			c0.295-0.124,0.574-0.277,0.84-0.449c0.033-0.021,0.068-0.039,0.1-0.061c0.278-0.188,0.536-0.402,0.775-0.636
			c0.012-0.012,0.026-0.02,0.038-0.031c0.002-0.002,0.002-0.006,0.004-0.008C16.884,10.888,17.5,9.515,17.5,8
			c0-3.033-2.467-5.5-5.5-5.5S6.5,4.967,6.5,8c0,1.516,0.616,2.89,1.611,3.886C8.113,11.887,8.113,11.89,8.114,11.891z M12,3.5
			c2.481,0,4.5,2.019,4.5,4.5c0,0.977-0.321,1.875-0.852,2.613c-0.463-0.789-1.163-1.402-1.988-1.758
			C14.172,8.397,14.5,7.739,14.5,7c0-1.378-1.122-2.5-2.5-2.5S9.5,5.622,9.5,7c0,0.739,0.328,1.397,0.84,1.855
			c-0.826,0.356-1.525,0.969-1.988,1.759C7.821,9.875,7.5,8.977,7.5,8C7.5,5.519,9.519,3.5,12,3.5z M21,0.5H3
			C1.622,0.5,0.5,1.622,0.5,3v18c0,1.378,1.122,2.5,2.5,2.5h18c1.378,0,2.5-1.122,2.5-2.5V3C23.5,1.622,22.378,0.5,21,0.5z M22.5,21
			c0,0.827-0.673,1.5-1.5,1.5H3c-0.827,0-1.5-0.673-1.5-1.5V3c0-0.827,0.673-1.5,1.5-1.5h18c0.827,0,1.5,0.673,1.5,1.5V21z M19,14.5
			H5c-1.378,0-2.5,1.122-2.5,2.5v2c0,1.378,1.122,2.5,2.5,2.5h14c1.378,0,2.5-1.122,2.5-2.5v-2C21.5,15.622,20.378,14.5,19,14.5z
			 M7.354,19.353C7.256,19.451,7.128,19.5,7,19.5s-0.256-0.049-0.354-0.146L6,18.707l-0.646,0.646C5.256,19.451,5.128,19.5,5,19.5
			s-0.256-0.049-0.354-0.146c-0.195-0.195-0.195-0.512,0-0.707L5.293,18l-0.646-0.646c-0.195-0.195-0.195-0.512,0-0.707
			c0.195-0.195,0.512-0.195,0.707,0L6,17.293l0.646-0.646c0.195-0.195,0.512-0.195,0.707,0c0.195,0.195,0.195,0.512,0,0.707
			L6.707,18l0.647,0.646C7.549,18.841,7.549,19.158,7.354,19.353z M11.354,19.353C11.256,19.451,11.128,19.5,11,19.5
			s-0.256-0.049-0.354-0.146L10,18.707l-0.646,0.646C9.256,19.451,9.128,19.5,9,19.5s-0.256-0.049-0.354-0.146
			c-0.195-0.195-0.195-0.512,0-0.707L9.293,18l-0.646-0.646c-0.195-0.195-0.195-0.512,0-0.707c0.195-0.195,0.512-0.195,0.707,0
			L10,17.293l0.646-0.646c0.195-0.195,0.512-0.195,0.707,0s0.195,0.512,0,0.707L10.707,18l0.647,0.646
			C11.549,18.841,11.549,19.158,11.354,19.353z M15.354,19.353C15.256,19.451,15.128,19.5,15,19.5s-0.256-0.049-0.354-0.146
			L14,18.707l-0.646,0.646C13.256,19.451,13.128,19.5,13,19.5s-0.256-0.049-0.354-0.146c-0.195-0.195-0.195-0.512,0-0.707L13.293,18
			l-0.646-0.646c-0.195-0.195-0.195-0.512,0-0.707c0.195-0.195,0.512-0.195,0.707,0L14,17.293l0.646-0.646
			c0.195-0.195,0.512-0.195,0.707,0s0.195,0.512,0,0.707L14.707,18l0.647,0.646C15.549,18.841,15.549,19.158,15.354,19.353z
			 M19.354,19.353C19.256,19.451,19.128,19.5,19,19.5s-0.256-0.049-0.354-0.146L18,18.707l-0.646,0.646
			C17.256,19.451,17.128,19.5,17,19.5s-0.256-0.049-0.354-0.146c-0.195-0.195-0.195-0.512,0-0.707L17.293,18l-0.646-0.646
			c-0.195-0.195-0.195-0.512,0-0.707c0.195-0.195,0.512-0.195,0.707,0L18,17.293l0.646-0.646c0.195-0.195,0.512-0.195,0.707,0
			c0.195,0.195,0.195,0.512,0,0.707L18.707,18l0.647,0.646C19.549,18.841,19.549,19.158,19.354,19.353z"/>
	</g>
</g>
</svg>
