<?xml version="1.0" encoding="iso-8859-1"?>
<!-- Generator: Adobe Illustrator 19.0.0, SVG Export Plug-In . SVG Version: 6.00 Build 0)  -->
<svg version="1.1" id="Layer_1" xmlns="http://www.w3.org/2000/svg" xmlns:xlink="http://www.w3.org/1999/xlink" x="0px" y="0px"
	 viewBox="0 0 24 24" style="enable-background:new 0 0 24 24;" xml:space="preserve">
<g>
	<g>
		<path d="M11.5,5.5C11.224,5.5,11,5.724,11,6s0.224,0.5,0.5,0.5S12,6.276,12,6S11.776,5.5,11.5,5.5z M18.5,12.5
			c-3.033,0-5.5,2.467-5.5,5.5s2.467,5.5,5.5,5.5S24,21.033,24,18S21.533,12.5,18.5,12.5z M21.854,16.354l-4,4
			C17.756,20.451,17.628,20.5,17.5,20.5s-0.256-0.049-0.354-0.146l-2-2c-0.195-0.195-0.195-0.512,0-0.707
			c0.195-0.195,0.512-0.195,0.707,0l1.646,1.646l3.646-3.646c0.195-0.195,0.512-0.195,0.707,0
			C22.047,15.842,22.049,16.158,21.854,16.354z M18.5,11.5c0.775,0,1.546,0.143,2.29,0.425c0.131,0.049,0.278,0.041,0.403-0.021
			c0.041-0.021,0.08-0.047,0.114-0.078l1.857-1.705C23.688,9.745,24,9.139,24,8.5c0-0.637-0.312-1.244-0.79-1.586l-6.014-5.497
			C16.55,0.826,15.712,0.5,14.835,0.5H2.5C1.121,0.5,0,1.622,0,3v11c0,1.378,1.121,2.5,2.5,2.5h9.294
			c0.221,0,0.417-0.146,0.48-0.357C13.09,13.41,15.651,11.5,18.5,11.5z M19,7.5c0.552,0,1,0.449,1,1s-0.448,1-1,1s-1-0.449-1-1
			S18.448,7.5,19,7.5z M10.73,10.039c-0.146,0-0.296-0.011-0.45-0.035l-3.35,3.35C6.836,13.448,6.709,13.5,6.576,13.5H4.499
			c-0.276,0-0.5-0.224-0.5-0.5v-2.077c0-0.133,0.053-0.26,0.146-0.354l3.35-3.35C7.472,7.066,7.461,6.917,7.461,6.768
			c0-1.803,1.466-3.269,3.269-3.269c1.803,0,3.27,1.466,3.27,3.269S12.533,10.039,10.73,10.039z"/>
	</g>
</g>
</svg>
