<?xml version="1.0" encoding="iso-8859-1"?>
<!-- Generator: Adobe Illustrator 19.0.0, SVG Export Plug-In . SVG Version: 6.00 Build 0)  -->
<svg version="1.1" id="Layer_1" xmlns="http://www.w3.org/2000/svg" xmlns:xlink="http://www.w3.org/1999/xlink" x="0px" y="0px"
	 viewBox="0 0 24 24" style="enable-background:new 0 0 24 24;" xml:space="preserve">
<g>
	<g>
		<path d="M23.854,23.148l-3.853-3.853c0.616-0.77,1-1.733,1-2.793c0-2.481-2.019-4.5-4.5-4.5c-2.481,0-4.5,2.019-4.5,4.5
			s2.019,4.5,4.5,4.5c1.06,0,2.023-0.384,2.793-1l3.853,3.853c0.098,0.098,0.226,0.146,0.354,0.146c0.128,0,0.256-0.049,0.354-0.146
			C24.049,23.66,24.049,23.344,23.854,23.148z M16.5,20.002c-1.93,0-3.5-1.57-3.5-3.5s1.57-3.5,3.5-3.5s3.5,1.57,3.5,3.5
			S18.43,20.002,16.5,20.002z M19.629,22.019l-1.145-0.305c-0.093-0.025-0.193-0.022-0.286,0.008
			c-2.098,0.693-4.346,0.04-5.774-1.542c-0.011-0.013-0.033-0.023-0.048-0.035c-0.014-0.022-0.026-0.045-0.043-0.065
			c-0.63-0.733-1.057-1.618-1.235-2.559c-0.003-0.019-0.012-0.036-0.018-0.054c-0.001-0.017,0.005-0.033,0.003-0.05
			C11.027,17.085,11,16.786,11,16.5c0-1.35,0.501-2.651,1.413-3.666c0.005-0.006,0.005-0.014,0.01-0.021
			c0.009-0.009,0.021-0.014,0.03-0.024c0.792-0.863,1.806-1.442,2.931-1.675c0.051-0.011,0.101-0.029,0.146-0.056l0.132-0.075
			c1.302-0.085,2.339-1.161,2.339-2.484v-8c0-0.276-0.224-0.5-0.5-0.5h-3c-0.276,0-0.5,0.224-0.5,0.5v3.5h-2v-3.5
			c0-0.276-0.224-0.5-0.5-0.5h-3c-0.276,0-0.5,0.224-0.5,0.5v3.5h-2v-3.5c0-0.276-0.224-0.5-0.5-0.5h-3c-0.276,0-0.5,0.224-0.5,0.5
			v8c0,1.223,0.884,2.239,2.046,2.454c0.183,0.992,0.95,1.78,1.933,1.989c-0.122,1.528-0.802,4.057-1.479,4.057
			c-0.077,0-0.148,0.021-0.214,0.052c-1.054,0.206-1.892,1.039-2.075,2.136L2.02,20.34C0.831,20.9,0,22.101,0,23.5
			C0,23.776,0.224,24,0.5,24h19c0.276,0,0.5-0.224,0.5-0.5v-1C20,22.275,19.848,22.077,19.629,22.019z M5.085,11.002h7.958
			c-0.441,0.28-0.851,0.614-1.221,1H6.5C5.848,12.002,5.292,11.584,5.085,11.002z M3.09,20.002l0.108-0.648
			C3.329,18.57,4,18.002,4.794,18.002h5.385c0.168,0.708,0.457,1.385,0.852,2H3.09z"/>
	</g>
</g>
</svg>
