<?xml version="1.0" encoding="iso-8859-1"?>
<!-- Generator: Adobe Illustrator 19.0.0, SVG Export Plug-In . SVG Version: 6.00 Build 0)  -->
<svg version="1.1" id="Layer_1" xmlns="http://www.w3.org/2000/svg" xmlns:xlink="http://www.w3.org/1999/xlink" x="0px" y="0px"
	 viewBox="0 0 24 24" style="enable-background:new 0 0 24 24;" xml:space="preserve">
<g>
	<g>
		<path d="M11.73,4C9.927,4,8.461,5.466,8.461,7.269c0,0.148,0.011,0.298,0.034,0.451l-3.35,3.35C5.053,11.163,5,11.29,5,11.423
			V13.5C5,13.776,5.224,14,5.5,14h2.077c0.133,0,0.26-0.053,0.354-0.146l3.35-3.35c0.154,0.023,0.304,0.035,0.45,0.035
			c1.803,0,3.27-1.467,3.27-3.27C15.001,5.466,13.533,4,11.73,4z M12.5,7C12.224,7,12,6.776,12,6.5S12.224,6,12.5,6S13,6.224,13,6.5
			S12.776,7,12.5,7z M23.707,22.293l-6.825-6.825C18.204,13.835,19,11.76,19,9.5C19,4.262,14.738,0,9.5,0S0,4.262,0,9.5
			C0,14.738,4.262,19,9.5,19c2.26,0,4.335-0.796,5.968-2.118l6.825,6.825C22.488,23.902,22.744,24,23,24s0.512-0.098,0.707-0.293
			C24.098,23.316,24.098,22.684,23.707,22.293z M9.5,17C5.364,17,2,13.636,2,9.5S5.364,2,9.5,2S17,5.364,17,9.5S13.636,17,9.5,17z"
			/>
	</g>
</g>
</svg>
