<?xml version="1.0" encoding="iso-8859-1"?>
<!-- Generator: Adobe Illustrator 19.0.0, SVG Export Plug-In . SVG Version: 6.00 Build 0)  -->
<svg version="1.1" id="Layer_1" xmlns="http://www.w3.org/2000/svg" xmlns:xlink="http://www.w3.org/1999/xlink" x="0px" y="0px"
	 viewBox="0 0 24 24" style="enable-background:new 0 0 24 24;" xml:space="preserve">
<g>
	<g>
		<path d="M23.707,22.293l-6.825-6.825C18.204,13.835,19,11.76,19,9.5C19,4.262,14.738,0,9.5,0S0,4.262,0,9.5
			C0,14.738,4.262,19,9.5,19c2.26,0,4.335-0.796,5.968-2.118l6.825,6.825C22.488,23.902,22.744,24,23,24s0.512-0.098,0.707-0.293
			C24.098,23.316,24.098,22.684,23.707,22.293z M9.5,17C5.364,17,2,13.636,2,9.5S5.364,2,9.5,2S17,5.364,17,9.5S13.636,17,9.5,17z
			 M9.5,4c-2.206,0-4,1.794-4,4c0,2.043,3.234,6.323,3.604,6.804C9.198,14.928,9.345,15,9.5,15c0.155,0,0.302-0.072,0.396-0.196
			C10.265,14.323,13.5,10.043,13.5,8C13.5,5.794,11.706,4,9.5,4z M9.5,9c-0.552,0-1-0.449-1-1c0-0.551,0.448-1,1-1s1,0.449,1,1
			C10.5,8.551,10.052,9,9.5,9z"/>
	</g>
</g>
</svg>
