<?xml version="1.0" encoding="iso-8859-1"?>
<!-- Generator: Adobe Illustrator 19.0.0, SVG Export Plug-In . SVG Version: 6.00 Build 0)  -->
<svg version="1.1" id="Layer_1" xmlns="http://www.w3.org/2000/svg" xmlns:xlink="http://www.w3.org/1999/xlink" x="0px" y="0px"
	 viewBox="0 0 24 24" style="enable-background:new 0 0 24 24;" xml:space="preserve">
<g>
	<g>
		<path d="M16.5,14c-0.552,0-1,0.449-1,1v1c0,0.551,0.448,1,1,1s1-0.449,1-1v-1C17.5,14.449,17.052,14,16.5,14z M23,6h-3.5v3.5
			c0,0.276-0.224,0.5-0.5,0.5s-0.5-0.224-0.5-0.5v-6C18.5,1.57,16.93,0,15,0H9C7.07,0,5.5,1.57,5.5,3.5v6C5.5,9.776,5.276,10,5,10
			S4.5,9.776,4.5,9.5V6H1C0.724,6,0.5,6.224,0.5,6.5v17C0.5,23.776,0.724,24,1,24h22c0.276,0,0.5-0.224,0.5-0.5v-17
			C23.5,6.224,23.276,6,23,6z M6.5,3.5C6.5,2.122,7.621,1,9,1h6c1.379,0,2.5,1.122,2.5,2.5V6h-11V3.5z M7.499,18
			c-1.063,0-1.921-0.597-1.997-1.389c-0.026-0.275,0.176-0.519,0.45-0.545c0.275-0.03,0.519,0.175,0.546,0.45
			C6.517,16.718,6.907,17,7.499,17C8.101,17,8.5,16.699,8.5,16.5c0-0.15-0.175-0.358-1.006-0.495L7.348,15.98
			C6.121,15.78,5.5,15.282,5.5,14.499c0-0.841,0.879-1.5,2.001-1.5c1.063,0,1.921,0.597,1.997,1.389
			c0.026,0.275-0.176,0.519-0.45,0.545c-0.27,0.036-0.519-0.174-0.546-0.45C8.483,14.281,8.093,14,7.501,14
			C6.899,14,6.5,14.301,6.5,14.5c0,0.123,0.131,0.351,1.008,0.494l0.148,0.025C8.88,15.22,9.5,15.718,9.5,16.5
			C9.5,17.341,8.621,18,7.499,18z M13,15c0.276,0,0.5,0.224,0.5,0.5S13.276,16,13,16h-1.5v1h2c0.276,0,0.5,0.224,0.5,0.5
			S13.776,18,13.5,18H11c-0.276,0-0.5-0.224-0.5-0.5v-4c0-0.276,0.224-0.5,0.5-0.5h2.5c0.276,0,0.5,0.224,0.5,0.5S13.776,14,13.5,14
			h-2v1H13z M18.5,16c0,1.103-0.897,2-2,2c-1.103,0-2-0.897-2-2v-1c0-1.103,0.897-2,2-2c1.103,0,2,0.897,2,2V16z"/>
	</g>
</g>
</svg>
