<?xml version="1.0" encoding="iso-8859-1"?>
<!-- Generator: Adobe Illustrator 19.0.0, SVG Export Plug-In . SVG Version: 6.00 Build 0)  -->
<svg version="1.1" id="Layer_1" xmlns="http://www.w3.org/2000/svg" xmlns:xlink="http://www.w3.org/1999/xlink" x="0px" y="0px"
	 viewBox="0 0 24 24" style="enable-background:new 0 0 24 24;" xml:space="preserve">
<g>
	<g>
		<path d="M16.5,10c-0.551,0-1,0.449-1,1v1c0,0.551,0.449,1,1,1c0.551,0,1-0.449,1-1v-1C17.5,10.449,17.051,10,16.5,10z
			 M22.143,3.021l-10-3c-0.094-0.028-0.193-0.028-0.287,0l-10,3C1.646,3.084,1.5,3.279,1.5,3.5v11c0,4.422,6.742,8.354,10.352,9.478
			C11.901,23.993,11.951,24,12,24c0.05,0,0.1-0.007,0.148-0.022C15.758,22.854,22.5,18.922,22.5,14.5v-11
			C22.5,3.279,22.355,3.084,22.143,3.021z M7.499,14c-1.063,0-1.921-0.597-1.997-1.389c-0.026-0.275,0.175-0.519,0.45-0.545
			c0.281-0.037,0.519,0.175,0.545,0.45C6.517,12.718,6.906,13,7.497,13c0.602,0,1.001-0.301,1.001-0.5
			c0-0.15-0.174-0.358-1.005-0.495L7.346,11.98C6.121,11.78,5.5,11.282,5.5,10.499c0-0.841,0.879-1.5,2.001-1.5
			c1.063,0,1.921,0.597,1.997,1.389c0.026,0.275-0.175,0.519-0.45,0.545c-0.277,0.03-0.519-0.175-0.545-0.45
			C8.483,10.281,8.093,10,7.502,10c-0.602,0-1.001,0.301-1.001,0.5c0,0.123,0.131,0.351,1.008,0.494l0.148,0.025
			c1.224,0.201,1.844,0.699,1.844,1.481C9.5,13.341,8.621,14,7.499,14z M13,11c0.276,0,0.5,0.224,0.5,0.5S13.276,12,13,12h-1.5v1h2
			c0.276,0,0.5,0.224,0.5,0.5S13.776,14,13.5,14H11c-0.276,0-0.5-0.224-0.5-0.5v-4C10.5,9.224,10.724,9,11,9h2.5
			C13.776,9,14,9.224,14,9.5S13.776,10,13.5,10h-2v1H13z M18.5,12c0,1.103-0.897,2-2,2c-1.103,0-2-0.897-2-2v-1c0-1.103,0.897-2,2-2
			c1.103,0,2,0.897,2,2V12z"/>
	</g>
</g>
</svg>
