<?xml version="1.0" encoding="iso-8859-1"?>
<!-- Generator: Adobe Illustrator 19.0.0, SVG Export Plug-In . SVG Version: 6.00 Build 0)  -->
<svg version="1.1" id="Layer_1" xmlns="http://www.w3.org/2000/svg" xmlns:xlink="http://www.w3.org/1999/xlink" x="0px" y="0px"
	 viewBox="0 0 24 24" style="enable-background:new 0 0 24 24;" xml:space="preserve">
<g>
	<g>
		<path d="M3.992,22c-0.128,0-0.256-0.049-0.354-0.146c-0.195-0.195-0.195-0.512,0-0.707c0.611-0.612,0.36-1.354-0.1-2.515
			c-0.428-1.08-0.961-2.424,0.1-3.485c0.195-0.195,0.512-0.195,0.707,0s0.195,0.512,0,0.707c-0.567,0.567-0.322,1.285,0.123,2.409
			c0.438,1.106,0.984,2.483-0.123,3.591C4.248,21.951,4.12,22,3.992,22z"/>
	</g>
	<g>
		<path d="M7.977,22c-0.128,0-0.256-0.049-0.354-0.146c-0.195-0.195-0.195-0.512,0-0.707c0.611-0.612,0.36-1.354-0.1-2.515
			c-0.428-1.08-0.961-2.424,0.1-3.485c0.195-0.195,0.512-0.195,0.707,0s0.195,0.512,0,0.707c-0.567,0.567-0.322,1.285,0.123,2.409
			c0.438,1.106,0.984,2.483-0.123,3.591C8.232,21.951,8.104,22,7.977,22z"/>
	</g>
	<g>
		<path d="M11.96,22c-0.128,0-0.256-0.049-0.354-0.146c-0.195-0.195-0.195-0.512,0-0.707c0.611-0.612,0.36-1.354-0.1-2.515
			c-0.428-1.08-0.961-2.424,0.1-3.485c0.195-0.195,0.512-0.195,0.707,0s0.195,0.512,0,0.707c-0.567,0.567-0.322,1.285,0.123,2.409
			c0.438,1.106,0.984,2.483-0.123,3.591C12.216,21.951,12.088,22,11.96,22z"/>
	</g>
	<g>
		<path d="M18.5,22c-0.276,0-0.5-0.224-0.5-0.5v-6c0-0.276,0.224-0.5,0.5-0.5s0.5,0.224,0.5,0.5v6C19,21.776,18.776,22,18.5,22z"/>
	</g>
	<g>
		<path d="M15.902,20.5c-0.172,0-0.341-0.089-0.433-0.25c-0.139-0.239-0.057-0.545,0.183-0.683l5.195-3
			c0.237-0.139,0.545-0.058,0.683,0.183c0.139,0.239,0.057,0.545-0.183,0.683l-5.195,3C16.073,20.479,15.987,20.5,15.902,20.5z"/>
	</g>
	<g>
		<path d="M21.098,20.5c-0.085,0-0.171-0.021-0.25-0.067l-5.195-3c-0.239-0.138-0.321-0.444-0.183-0.683
			c0.138-0.24,0.443-0.32,0.683-0.183l5.195,3c0.239,0.138,0.321,0.444,0.183,0.683C21.438,20.411,21.27,20.5,21.098,20.5z"/>
	</g>
	<g>
		<path d="M0,10v1.5C0,12.878,1.121,14,2.5,14h19c1.379,0,2.5-1.122,2.5-2.5V10H0z M15.5,12h-13C2.224,12,2,11.776,2,11.5
			S2.224,11,2.5,11h13c0.276,0,0.5,0.224,0.5,0.5S15.776,12,15.5,12z M18.5,12h-1c-0.276,0-0.5-0.224-0.5-0.5s0.224-0.5,0.5-0.5h1
			c0.276,0,0.5,0.224,0.5,0.5S18.776,12,18.5,12z M21.5,12h-1c-0.276,0-0.5-0.224-0.5-0.5s0.224-0.5,0.5-0.5h1
			c0.276,0,0.5,0.224,0.5,0.5S21.776,12,21.5,12z"/>
		<path d="M24,9V4.5C24,3.122,22.879,2,21.5,2h-19C1.121,2,0,3.122,0,4.5V9H24z"/>
	</g>
</g>
<g>
</g>
<g>
</g>
<g>
</g>
<g>
</g>
<g>
</g>
<g>
</g>
<g>
</g>
<g>
</g>
<g>
</g>
<g>
</g>
<g>
</g>
<g>
</g>
<g>
</g>
<g>
</g>
<g>
</g>
</svg>
