<?xml version="1.0" encoding="iso-8859-1"?>
<!-- Generator: Adobe Illustrator 19.0.0, SVG Export Plug-In . SVG Version: 6.00 Build 0)  -->
<svg version="1.1" id="Layer_1" xmlns="http://www.w3.org/2000/svg" xmlns:xlink="http://www.w3.org/1999/xlink" x="0px" y="0px"
	 viewBox="0 0 24 24" style="enable-background:new 0 0 24 24;" xml:space="preserve">
<g>
	<g>
		<path d="M13.446,12.965c-0.445,0.02-0.909,0.034-1.401,0.034C12.513,12.999,12.981,12.986,13.446,12.965z"/>
		<path d="M12,7c-4.721,0-9.5,1.03-9.5,3c0,1.736,3.715,2.742,7.829,2.956c-3.477-0.186-5.483-0.937-6.173-1.593
			c-0.2-0.19-0.208-0.506-0.018-0.707c0.19-0.201,0.507-0.209,0.707-0.018C5.243,11.017,7.307,12,12,12
			c4.693,0,6.756-0.984,7.155-1.363c0.201-0.191,0.517-0.182,0.707,0.018c0.19,0.2,0.182,0.517-0.018,0.707
			c-0.691,0.657-2.696,1.407-6.172,1.593C17.786,12.742,21.5,11.736,21.5,10C21.5,8.03,16.721,7,12,7z"/>
		<path d="M10.555,12.965c0.465,0.021,0.933,0.034,1.401,0.034C11.463,12.999,11,12.985,10.555,12.965z"/>
	</g>
	<path d="M21.126,9.516c-0.264-0.066-0.54,0.09-0.61,0.358L20.483,10H3.517L3.484,9.874c-0.07-0.268-0.346-0.424-0.61-0.358
		c-0.268,0.07-0.428,0.343-0.358,0.61l2.999,11.498c0.013,0.048,0.032,0.094,0.058,0.136C6.436,23.163,8.838,24,12,24
		c3.217,0,5.623-0.842,6.435-2.253c0.022-0.039,0.039-0.08,0.05-0.124l2.999-11.497C21.554,9.859,21.394,9.586,21.126,9.516z
		 M19.844,11.362C19.049,12.118,16.518,13,12,13c-4.518,0-7.05-0.882-7.845-1.638c-0.2-0.19-0.208-0.506-0.018-0.707
		c0.19-0.201,0.507-0.209,0.707-0.018C5.243,11.017,7.307,12,12,12c4.693,0,6.756-0.984,7.155-1.363
		c0.201-0.191,0.517-0.182,0.707,0.018C20.053,10.856,20.044,11.172,19.844,11.362z"/>
	<g>
		<path d="M21,10.5c-0.276,0-0.5-0.224-0.5-0.5c0-4.542-4.16-9-8.397-9C7.761,1,3.5,5.458,3.5,10c0,0.276-0.224,0.5-0.5,0.5
			S2.5,10.276,2.5,10c0-5.047,4.756-10,9.603-10C16.933,0,21.5,4.86,21.5,10C21.5,10.276,21.276,10.5,21,10.5z"/>
	</g>
</g>
<g>
</g>
<g>
</g>
<g>
</g>
<g>
</g>
<g>
</g>
<g>
</g>
<g>
</g>
<g>
</g>
<g>
</g>
<g>
</g>
<g>
</g>
<g>
</g>
<g>
</g>
<g>
</g>
<g>
</g>
</svg>
