<?xml version="1.0" encoding="iso-8859-1"?>
<!-- Generator: Adobe Illustrator 19.0.0, SVG Export Plug-In . SVG Version: 6.00 Build 0)  -->
<svg version="1.1" id="Layer_1" xmlns="http://www.w3.org/2000/svg" xmlns:xlink="http://www.w3.org/1999/xlink" x="0px" y="0px"
	 viewBox="0 0 24 24" style="enable-background:new 0 0 24 24;" xml:space="preserve">
<g>
	<g>
		<path d="M11,11.5c-0.104,0-0.208-0.032-0.297-0.098C10.552,11.291,7,8.627,7,5c0-3.178,2.005-5,5.5-5
			c2.292,0,4.757,0.189,7.242,1.563C19.983,1.696,20.071,2,19.938,2.242c-0.133,0.242-0.437,0.329-0.68,0.196
			C16.971,1.174,14.658,1,12.5,1C10.447,1,8,1.694,8,5c0,3.128,3.264,5.573,3.297,5.598c0.223,0.164,0.27,0.477,0.105,0.699
			C11.305,11.43,11.153,11.5,11,11.5z"/>
	</g>
	<g>
		<path d="M20.499,12c-0.25,0-0.466-0.188-0.496-0.442c-0.031-0.274,0.165-0.522,0.439-0.554C22.14,10.806,23,9.627,23,7.5
			c0-1.156-0.836-2.629-2.354-4.146c-0.195-0.195-0.195-0.512,0-0.707s0.512-0.195,0.707,0C23.085,4.378,24,6.056,24,7.5
			c0,2.642-1.223,4.239-3.442,4.497C20.538,11.999,20.519,12,20.499,12z"/>
	</g>
	<path d="M23.414,0.586c-0.756-0.756-2.056-0.773-2.845,0.018L0.13,23.164c-0.18,0.198-0.172,0.501,0.017,0.689
		C0.244,23.951,0.372,24,0.5,24c0.12,0,0.24-0.043,0.336-0.129L23.414,3.414C23.792,3.036,24,2.534,24,2
		C24,1.465,23.792,0.963,23.414,0.586z M21.854,2.854l-1.5,1.5C20.256,4.451,20.128,4.5,20,4.5s-0.256-0.049-0.354-0.146
		c-0.195-0.195-0.195-0.512,0-0.707l1.5-1.5c0.195-0.195,0.512-0.195,0.707,0S22.049,2.658,21.854,2.854z"/>
	<path style="fill:none;stroke:#000000;stroke-linecap:round;stroke-linejoin:round;stroke-miterlimit:10;" d="M13,12.5
		c2.042,1.458,6.5,3.625,6.5,6s-2.125,5-8,5"/>
</g>
<g>
</g>
<g>
</g>
<g>
</g>
<g>
</g>
<g>
</g>
<g>
</g>
<g>
</g>
<g>
</g>
<g>
</g>
<g>
</g>
<g>
</g>
<g>
</g>
<g>
</g>
<g>
</g>
<g>
</g>
</svg>
