<?xml version="1.0" encoding="iso-8859-1"?>
<!-- Generator: Adobe Illustrator 19.0.0, SVG Export Plug-In . SVG Version: 6.00 Build 0)  -->
<svg version="1.1" id="Layer_1" xmlns="http://www.w3.org/2000/svg" xmlns:xlink="http://www.w3.org/1999/xlink" x="0px" y="0px"
	 viewBox="0 0 24 24" style="enable-background:new 0 0 24 24;" xml:space="preserve">
<g id="XMLID_66_">
	<path d="M12.5,4.5c0-0.133-0.052-0.259-0.146-0.354c-0.048-0.048-0.104-0.084-0.164-0.109C12.13,4.013,12.066,4,12,4
		s-0.13,0.013-0.19,0.038c-0.06,0.024-0.116,0.06-0.164,0.109C11.552,4.241,11.5,4.367,11.5,4.5s0.052,0.259,0.146,0.354L12,5.207
		l0.354-0.354C12.448,4.759,12.5,4.633,12.5,4.5z"/>
	<path d="M10.939,5.561c-0.123-0.123-0.217-0.266-0.289-0.418l-7.004,7.004c-0.128,0.128-0.177,0.316-0.127,0.491l0.234,0.817
		l7.54-7.54L10.939,5.561z"/>
	<path d="M20.489,12.605c0.036-0.166-0.015-0.338-0.135-0.458L13.35,5.143c-0.073,0.152-0.167,0.295-0.289,0.418l-0.354,0.354
		l7.589,7.589L20.489,12.605z"/>
	<g id="XMLID_67_">
		<path d="M1,16c-0.128,0-0.256-0.049-0.354-0.146c-0.195-0.195-0.195-0.512,0-0.707l11-11c0.195-0.195,0.512-0.195,0.707,0
			s0.195,0.512,0,0.707l-11,11C1.256,15.951,1.128,16,1,16z"/>
	</g>
	<g>
		<path d="M17.252,11.873l-4.427-4.427c0.382,1.788,1.027,3.198,1.529,3.701C14.696,11.489,15.963,11.734,17.252,11.873z"/>
		<path d="M18.615,13.236c-0.168,0.178-0.342,0.45-0.484,0.83c-0.521,1.397-0.4,3.464,1.004,4.856l0.912-4.254L18.615,13.236z"/>
		<path d="M18.672,19.878c-1.961-1.7-2.141-4.386-1.479-6.162c0.114-0.304,0.251-0.569,0.404-0.8
			c-1.376-0.12-3.29-0.403-3.951-1.063c-0.393-0.393-0.796-1.087-1.146-1.971V20h6c0.092,0,0.176-0.031,0.251-0.076
			C18.725,19.909,18.696,19.899,18.672,19.878z"/>
		<path d="M11.5,7.121l-7.433,7.433l1.452,5.083C5.581,19.852,5.777,20,6,20h5.5V7.121z"/>
	</g>
	<g>
		<path d="M23,16c-0.128,0-0.256-0.049-0.354-0.146l-11-11c-0.195-0.195-0.195-0.512,0-0.707s0.512-0.195,0.707,0l11,11
			c0.195,0.195,0.195,0.512,0,0.707C23.256,15.951,23.128,16,23,16z"/>
	</g>
</g>
<g>
</g>
<g>
</g>
<g>
</g>
<g>
</g>
<g>
</g>
<g>
</g>
<g>
</g>
<g>
</g>
<g>
</g>
<g>
</g>
<g>
</g>
<g>
</g>
<g>
</g>
<g>
</g>
<g>
</g>
</svg>
