<?xml version="1.0" encoding="iso-8859-1"?>
<!-- Generator: Adobe Illustrator 19.0.0, SVG Export Plug-In . SVG Version: 6.00 Build 0)  -->
<svg version="1.1" id="Layer_1" xmlns="http://www.w3.org/2000/svg" xmlns:xlink="http://www.w3.org/1999/xlink" x="0px" y="0px"
	 viewBox="0 0 30 30" style="enable-background:new 0 0 30 30;" xml:space="preserve">
<g>
	<g>
		<path d="M29.873,19.676l-3.671-9.262c2.177-0.476,3.135-2.368,3.772-4.253c0.079-0.23-0.02-0.482-0.233-0.599
			c-0.213-0.115-0.479-0.064-0.631,0.126c-1.353,1.692-7.089-0.057-10.517-1.103c-0.25-0.076-0.494-0.15-0.727-0.221
			C17.955,4.082,18,3.792,18,3.5c0-1.654-1.346-3-3-3s-3,1.346-3,3c0,0.292,0.045,0.582,0.135,0.863
			c-0.234,0.071-0.477,0.144-0.727,0.221C7.98,5.63,2.244,7.38,0.891,5.687C0.739,5.497,0.472,5.446,0.26,5.561
			C0.048,5.678-0.051,5.93,0.027,6.16c0.638,1.884,1.6,3.775,3.772,4.252l-3.672,9.263C0.05,19.764,0,19.875,0,20
			c0,0.016,0.008,0.029,0.009,0.044C0.007,20.06,0,20.075,0,20.091C0,22.439,2.103,24.5,4.5,24.5C6.854,24.5,9,22.355,9,20
			c0-0.064-0.012-0.127-0.036-0.186L8.96,19.806c0,0,0,0,0-0.001l-3.717-9.293c0.102-0.005,0.199-0.005,0.305-0.016
			c1.348-0.128,2.746-0.704,3.978-1.213c0.938-0.388,2.107-0.864,2.443-0.712c0.014,0.006,0.036,0.016,0.058,0.084
			c0.608,1.841,1.64,13.737,0.521,16.132c-0.247,0.529-1.3,0.917-2.173,1.054c-0.873,0.138-1.374,0.742-1.374,1.664
			c0,0.967,0.578,1.994,1.65,1.994h8.699c1.072,0,1.65-1.03,1.65-2c0-0.916-0.501-1.52-1.374-1.657
			c-1.185-0.186-2.027-0.571-2.146-0.982c-1.01-3.484-0.144-14.272,0.494-16.204c0.023-0.068,0.044-0.078,0.058-0.084
			c0.342-0.154,1.505,0.324,2.443,0.712c1.233,0.509,2.63,1.086,3.978,1.213c0.105,0.01,0.202,0.01,0.303,0.015l-3.717,9.292
			c0,0,0,0.001,0,0.001l-0.003,0.008C21.012,19.874,21,19.937,21,20c0,2.355,2.145,4.5,4.5,4.5c2.397,0,4.5-2.061,4.5-4.409
			c0-0.016-0.007-0.031-0.009-0.047C29.992,20.029,30,20.016,30,20C30,19.875,29.949,19.764,29.873,19.676z M4.5,23.5
			c-1.69,0-3.222-1.385-3.452-3h6.895C7.673,22.123,6.162,23.5,4.5,23.5z M7.761,19.5H1.272l3.229-8.148L7.761,19.5z M24.546,9.502
			c-1.198-0.114-2.521-0.66-3.689-1.142c-1.399-0.579-2.506-1.038-3.242-0.697c-0.282,0.13-0.486,0.365-0.59,0.68
			c-0.679,2.053-1.582,13.082-0.506,16.796c0.308,1.064,1.775,1.507,2.952,1.692c0.335,0.052,0.528,0.179,0.528,0.669
			c0,0.415-0.202,1-0.65,1H10.65c-0.448,0-0.65-0.581-0.65-1c0-0.49,0.193-0.617,0.529-0.669c0.549-0.087,2.382-0.458,2.925-1.62
			c1.302-2.788,0.119-15.058-0.479-16.868c-0.104-0.316-0.308-0.551-0.59-0.68c-0.174-0.08-0.369-0.115-0.583-0.115
			c-0.693,0-1.59,0.371-2.661,0.812C7.972,8.842,6.649,9.388,5.451,9.502C5.108,9.534,4.801,9.527,4.51,9.503
			C4.506,9.503,4.503,9.5,4.5,9.5H4.499c-0.002,0-0.003,0.001-0.004,0.001C3.007,9.372,2.146,8.532,1.503,7.18
			c2.48,0.714,6.84-0.616,10.195-1.64c0.444-0.135,0.865-0.263,1.253-0.378c0.144-0.043,0.262-0.149,0.32-0.288
			c0.058-0.139,0.05-0.297-0.022-0.43c-0.166-0.307-0.25-0.625-0.25-0.945c0-1.103,0.897-2,2-2c1.103,0,2,0.897,2,2
			c0,0.32-0.084,0.638-0.25,0.945c-0.072,0.133-0.079,0.29-0.022,0.43c0.057,0.14,0.175,0.246,0.32,0.288
			c0.388,0.114,0.809,0.243,1.253,0.378c3.356,1.025,7.715,2.354,10.195,1.64c-0.642,1.35-1.511,2.19-2.99,2.321
			c-0.001,0-0.002-0.001-0.003-0.001H25.5c-0.003,0-0.005,0.003-0.008,0.003C25.198,9.528,24.89,9.535,24.546,9.502z M25.497,11.352
			l3.229,8.148h-6.489L25.497,11.352z M25.5,23.5c-1.662,0-3.173-1.377-3.442-3h6.894C28.722,22.115,27.19,23.5,25.5,23.5z"/>
	</g>
</g>
</svg>
