<?xml version="1.0" encoding="utf-8"?>
<!-- Generator: Adobe Illustrator 19.0.0, SVG Export Plug-In . SVG Version: 6.00 Build 0)  -->
<svg version="1.1" id="Layer_1" xmlns="http://www.w3.org/2000/svg" xmlns:xlink="http://www.w3.org/1999/xlink" x="0px" y="0px"
	 viewBox="0 0 30 30" style="enable-background:new 0 0 30 30;" xml:space="preserve">
<g>
	<path d="M2.5,2.1C2.9,2,3.2,2,3.5,2H7c1.7,0,3.2,1.1,3.8,2.7c0,0.1,0,0.1,0,0.2l0.1,0.4c0,0,0,0.1,0,0.1C11.1,5.8,11.5,6,11.9,6
		h14.6c0.4,0,0.9,0.1,1.3,0.2c0.1,0,0.1,0,0.2,0c0.1,0,0.2,0,0.3-0.1c0.1-0.1,0.2-0.2,0.2-0.4V3c0-1.7-1.3-3-3-3h-21
		c-1,0-2,0.5-2.5,1.4C1.9,1.6,1.9,1.8,2,1.9C2.1,2.1,2.3,2.2,2.5,2.1z"/>
	<path d="M26.5,7H11.9C11,7,10.2,6.5,10,5.7L9.8,5.1C9.4,3.8,8.3,3,7,3H3.5c-1.7,0-3,1.3-3,3v15c0,1.7,1.3,3,3,3H7
		c0.3,0,0.5-0.2,0.5-0.5c0-4.1,3.4-7.5,7.5-7.5s7.5,3.4,7.5,7.5c0,0.3,0.2,0.5,0.5,0.5h3.5c1.7,0,3-1.3,3-3V10
		C29.5,8.3,28.2,7,26.5,7z"/>
	<path d="M15,17c-3.6,0-6.5,2.9-6.5,6.5S11.4,30,15,30s6.5-2.9,6.5-6.5S18.6,17,15,17z M17.4,25.1c0.2,0.2,0.2,0.5,0,0.7
		C17.3,26,17.1,26,17,26s-0.3,0-0.4-0.1L15,24.2l-1.6,1.6C13.3,26,13.1,26,13,26s-0.3,0-0.4-0.1c-0.2-0.2-0.2-0.5,0-0.7l1.6-1.6
		l-1.6-1.6c-0.2-0.2-0.2-0.5,0-0.7s0.5-0.2,0.7,0l1.6,1.6l1.6-1.6c0.2-0.2,0.5-0.2,0.7,0s0.2,0.5,0,0.7l-1.6,1.6L17.4,25.1z"/>
</g>
</svg>
