<?xml version="1.0" encoding="utf-8"?>
<!-- Generator: Adobe Illustrator 19.0.0, SVG Export Plug-In . SVG Version: 6.00 Build 0)  -->
<svg version="1.1" id="Layer_1" xmlns="http://www.w3.org/2000/svg" xmlns:xlink="http://www.w3.org/1999/xlink" x="0px" y="0px"
	 viewBox="0 0 30 30" style="enable-background:new 0 0 30 30;" xml:space="preserve">
<g>
	<path d="M2.5,2.1C2.9,2,3.2,2,3.5,2H7c1.7,0,3.2,1.1,3.8,2.7c0,0,0,0.1,0,0.2l0.1,0.4c0,0,0,0.1,0,0.1C11.1,5.8,11.5,6,11.9,6h14.6
		c0.4,0,0.9,0.1,1.3,0.2c0.1,0,0.1,0,0.2,0c0.1,0,0.2,0,0.3-0.1c0.1-0.1,0.2-0.2,0.2-0.4V3c0-1.7-1.3-3-3-3h-21c-1,0-2,0.5-2.5,1.4
		C1.9,1.6,1.9,1.8,2,1.9C2.1,2.1,2.3,2.2,2.5,2.1z"/>
	<path d="M26.5,7H11.9C11,7,10.2,6.4,10,5.7L9.8,5.1C9.4,3.8,8.3,3,7,3H3.5c-1.7,0-3,1.3-3,3v15c0,1.7,1.3,3,3,3h4.6
		c0.2,0,0.5-0.2,0.5-0.4C9,20.4,11.8,18,15,18c1,0,2.1,0.3,3.1,0.8c0.2,0.1,0.5,0.1,0.7-0.2C19,18.3,19.5,18,20,18
		c0.8,0,1.5,0.7,1.5,1.5v4c0,0.3,0.2,0.5,0.5,0.5h4.5c1.7,0,3-1.3,3-3V10C29.5,8.3,28.2,7,26.5,7z"/>
	<path d="M20,19c-0.3,0-0.5,0.2-0.5,0.5v1.7C18.5,20,16.8,19,15,19c-3,0-5.5,2.5-5.5,5.5S12,30,15,30c0.3,0,0.5-0.2,0.5-0.5
		S15.3,29,15,29c-2.5,0-4.5-2-4.5-4.5s2-4.5,4.5-4.5c2.3,0,4.2,2,4.4,3H16c-0.3,0-0.5,0.2-0.5,0.5S15.7,24,16,24h4
		c0.3,0,0.5-0.2,0.5-0.5v-4C20.5,19.2,20.3,19,20,19z"/>
</g>
</svg>
