<?xml version="1.0" encoding="iso-8859-1"?>
<!-- Generator: Adobe Illustrator 19.0.0, SVG Export Plug-In . SVG Version: 6.00 Build 0)  -->
<svg version="1.1" id="Layer_1" xmlns="http://www.w3.org/2000/svg" xmlns:xlink="http://www.w3.org/1999/xlink" x="0px" y="0px"
	 viewBox="0 0 30 30" style="enable-background:new 0 0 30 30;" xml:space="preserve">
<g>
	<g>
		<path d="M20,24.011h-0.5V5.989H20c0.276,0,0.5-0.224,0.5-0.5c0-1.67-1.318-2.978-3-2.978h-0.003c0-0.007,0.003-0.015,0.003-0.022
			c0-1.378-1.122-2.5-2.5-2.5s-2.5,1.122-2.5,2.5c0,0.007,0.003,0.015,0.003,0.022H12.5c-1.682,0-3,1.308-3,2.978
			c0,0.276,0.224,0.5,0.5,0.5h0.5v18.022H10c-0.276,0-0.5,0.224-0.5,0.5c0,1.67,1.318,2.978,3,2.978h0.003
			c0,0.007-0.003,0.015-0.003,0.022c0,1.378,1.122,2.5,2.5,2.5s2.5-1.122,2.5-2.5c0-0.007-0.003-0.015-0.003-0.022H17.5
			c1.682,0,3-1.308,3-2.978C20.5,24.235,20.276,24.011,20,24.011z M13.5,2.489c0-0.827,0.673-1.5,1.5-1.5s1.5,0.673,1.5,1.5v0.022
			h-3V2.489z M16.5,27.511c0,0.827-0.673,1.5-1.5,1.5s-1.5-0.673-1.5-1.5v-0.022h3V27.511z M17.5,26.489h-5
			c-0.946,0-1.72-0.619-1.938-1.478h8.876C19.22,25.87,18.446,26.489,17.5,26.489z M18.5,6.5v2.741c-1.865,1.503-4.533,2.53-7,2.71
			V8.954C13.945,8.794,16.509,7.896,18.5,6.5z M11.5,7.952V5.989h5.941C15.695,7.081,13.532,7.804,11.5,7.952z M18.5,10.5v2.741
			c-1.865,1.503-4.533,2.53-7,2.71v-2.997C13.945,12.794,16.509,11.896,18.5,10.5z M18.5,14.5v2.741c-1.865,1.503-4.533,2.53-7,2.71
			v-2.997C13.945,16.794,16.509,15.896,18.5,14.5z M18.5,18.5v2.741c-1.865,1.503-4.533,2.53-7,2.71v-2.997
			C13.945,20.794,16.509,19.896,18.5,18.5z M18.5,22.5v1.489h-2.797C16.703,23.592,17.654,23.093,18.5,22.5z M10.562,4.989
			C10.78,4.13,11.554,3.511,12.5,3.511h5c0.946,0,1.72,0.619,1.938,1.478H10.562z"/>
	</g>
</g>
</svg>
