<?xml version="1.0" encoding="iso-8859-1"?>
<!-- Generator: Adobe Illustrator 19.0.0, SVG Export Plug-In . SVG Version: 6.00 Build 0)  -->
<svg version="1.1" id="Layer_1" xmlns="http://www.w3.org/2000/svg" xmlns:xlink="http://www.w3.org/1999/xlink" x="0px" y="0px"
	 viewBox="0 0 30 30" style="enable-background:new 0 0 30 30;" xml:space="preserve">
<g>
	<g>
		<path d="M27.874,29.143L20.8,22.069c-0.581-0.585-0.581-1.534,0.002-2.118l2.122-2.121c0.195-0.195,0.195-0.512,0-0.707
			s-0.512-0.195-0.707,0l-2.122,2.121c-0.399,0.399-0.626,0.902-0.698,1.422l-1.776-1.776l3.182-3.182
			c0.195-0.195,0.195-0.512,0-0.707s-0.512-0.195-0.707,0l-3.182,3.182L15.5,16.768l3.182-3.182c0.195-0.195,0.195-0.512,0-0.707
			s-0.512-0.195-0.707,0l-3.182,3.182l-1.414-1.414l3.183-3.182c0.195-0.195,0.195-0.512,0-0.707s-0.512-0.195-0.707,0l-3.183,3.182
			l-1.414-1.414l3.182-3.182c0.195-0.195,0.195-0.512,0-0.707c-0.195-0.195-0.512-0.195-0.707,0l-3.182,3.182l-1.414-1.414
			l3.182-3.182c0.195-0.195,0.195-0.512,0-0.707c-0.195-0.195-0.512-0.195-0.707,0L8.429,9.697L7.015,8.283l3.182-3.182
			c0.195-0.195,0.195-0.512,0-0.707C10.002,4.2,9.685,4.2,9.49,4.395L6.308,7.576L4.894,6.162L8.076,2.98
			c0.195-0.195,0.195-0.512,0-0.707s-0.512-0.195-0.707,0L4.187,5.455L3.125,4.394c-0.195-0.196-0.195-0.513,0-0.708l2.828-2.828
			c0.195-0.195,0.195-0.512,0-0.707s-0.512-0.195-0.707,0L2.418,2.979C2.135,3.263,1.979,3.64,1.979,4.04
			c0,0.401,0.156,0.778,0.439,1.061l14.143,14.143c0,0,0,0,0,0s0,0,0,0l3.53,3.53c0.002,0.002,0.003,0.004,0.004,0.005l2.829,2.829
			c0.001,0.001,0.002,0.001,0.003,0.002l4.24,4.24c0.098,0.097,0.226,0.146,0.354,0.146s0.256-0.049,0.353-0.146
			C28.069,29.655,28.069,29.338,27.874,29.143z"/>
	</g>
</g>
</svg>
