<?xml version="1.0" encoding="iso-8859-1"?>
<!-- Generator: Adobe Illustrator 19.0.0, SVG Export Plug-In . SVG Version: 6.00 Build 0)  -->
<svg version="1.1" id="Layer_1" xmlns="http://www.w3.org/2000/svg" xmlns:xlink="http://www.w3.org/1999/xlink" x="0px" y="0px"
	 viewBox="0 0 30 30" style="enable-background:new 0 0 30 30;" xml:space="preserve">
<g>
	<g>
		<path d="M23.584,28.508c-2.337-0.399-4.063-1.581-5.733-2.725C16.138,24.609,14.519,23.5,12.5,23.5
			c-2.019,0-3.638,1.109-5.351,2.282c-1.67,1.144-3.396,2.327-5.733,2.725c-0.256,0.044-0.436,0.276-0.414,0.535
			C1.023,29.301,1.24,29.5,1.5,29.5c2.961,0,4.948-0.925,6.701-1.74c1.454-0.676,2.71-1.26,4.299-1.26
			c1.533,0,2.66,0.554,3.965,1.196c1.719,0.846,3.666,1.804,7.035,1.804c0.26,0,0.477-0.199,0.498-0.457
			C24.021,28.784,23.84,28.551,23.584,28.508z M16.906,26.799C15.549,26.131,14.267,25.5,12.5,25.5
			c-1.811,0-3.224,0.658-4.721,1.353c-0.43,0.201-0.865,0.403-1.317,0.594c0.435-0.279,0.85-0.564,1.252-0.84
			c1.651-1.13,3.077-2.107,4.786-2.107c1.709,0,3.135,0.977,4.786,2.108c0.538,0.369,1.099,0.753,1.698,1.12
			C18.214,27.443,17.544,27.112,16.906,26.799z M16.5,2.5C12.364,2.5,9,5.864,9,10c0,0.276,0.224,0.5,0.5,0.5S10,10.276,10,10
			c0-3.584,2.916-6.5,6.5-6.5C16.776,3.5,17,3.276,17,3S16.776,2.5,16.5,2.5z M27,8c-0.429,0-0.824,0.138-1.15,0.369
			C25.073,3.907,21.181,0.5,16.5,0.5C11.262,0.5,7,4.762,7,10c0,5.238,4.262,9.5,9.5,9.5c4.681,0,8.573-3.407,9.35-7.869
			C26.176,11.862,26.571,12,27,12c0.366,0,0.705-0.106,1-0.278V24c0,0.276,0.224,0.5,0.5,0.5S29,24.276,29,24V10
			C29,8.897,28.103,8,27,8z M16.5,18.5C11.813,18.5,8,14.687,8,10s3.813-8.5,8.5-8.5c4.687,0,8.5,3.813,8.5,8.5
			S21.187,18.5,16.5,18.5z M27,11c-0.552,0-1-0.449-1-1c0-0.551,0.448-1,1-1s1,0.449,1,1C28,10.551,27.552,11,27,11z"/>
	</g>
</g>
</svg>
