<?xml version="1.0" encoding="iso-8859-1"?>
<!-- Generator: Adobe Illustrator 19.0.0, SVG Export Plug-In . SVG Version: 6.00 Build 0)  -->
<svg version="1.1" id="Layer_1" xmlns="http://www.w3.org/2000/svg" xmlns:xlink="http://www.w3.org/1999/xlink" x="0px" y="0px"
	 viewBox="0 0 30 30" style="enable-background:new 0 0 30 30;" xml:space="preserve">
<g>
	<g>
		<path d="M23.311,11.641c-1.355-3.258-4.569-5.557-8.312-5.557c-2.895,0-5.468,1.38-7.115,3.51
			c-5.012,0.411-7.885,2.648-7.885,6.149c0,3.167,1.991,6.092,5.072,7.451c1.1,0.485,2.245,0.723,3.39,0.723
			c2.198,0,4.391-0.879,6.246-2.572c2.447-2.235,5.86-2.236,8.871-2.237c3.303-0.001,6.423-0.002,6.423-3.523
			C30.001,13.309,27.238,12.498,23.311,11.641z M14.999,7.083c4.259,0,7.753,3.347,7.987,7.55c-1.251,0.124-4.84,0.45-7.987,0.45
			c-2.953,0-6.697-0.329-7.987-0.452C7.247,10.43,10.74,7.083,14.999,7.083z M23.576,18.107c-3.034,0.001-6.811,0.002-9.544,2.499
			c-2.556,2.334-5.674,2.943-8.557,1.672c-2.677-1.181-4.476-3.807-4.476-6.536c0-2.733,2.233-4.552,6.162-5.068
			c-0.737,1.305-1.162,2.807-1.162,4.409c0,0.256,0.193,0.471,0.448,0.498c0.049,0.004,4.891,0.502,8.552,0.502
			c3.923,0,8.509-0.498,8.555-0.503c0.253-0.028,0.445-0.242,0.445-0.497c0-0.807-0.117-1.586-0.317-2.331
			C27.194,13.551,29,14.257,29,15.584C29,17.994,27.14,18.107,23.576,18.107z"/>
	</g>
</g>
</svg>
