<?xml version="1.0" encoding="iso-8859-1"?>
<!-- Generator: Adobe Illustrator 19.0.0, SVG Export Plug-In . SVG Version: 6.00 Build 0)  -->
<svg version="1.1" id="Layer_1" xmlns="http://www.w3.org/2000/svg" xmlns:xlink="http://www.w3.org/1999/xlink" x="0px" y="0px"
	 viewBox="0 0 30 30" style="enable-background:new 0 0 30 30;" xml:space="preserve">
<g>
	<g>
		<path d="M20.495,23.022V12h0.5c0.276,0,0.5-0.224,0.5-0.5v-2c0-0.276-0.224-0.5-0.5-0.5h-0.5V7.452
			c0.024-0.014,0.044-0.031,0.067-0.045c0.102-0.062,0.201-0.127,0.296-0.197c0.12-0.088,0.233-0.183,0.341-0.282
			c0.056-0.052,0.114-0.101,0.168-0.156c0.144-0.148,0.273-0.307,0.391-0.474c0.032-0.045,0.062-0.091,0.092-0.137
			c0.253-0.39,0.436-0.821,0.539-1.282c0.012-0.052,0.022-0.103,0.031-0.155C22.465,4.487,22.495,4.247,22.495,4
			c0-2.206-1.794-4-4-4s-4,1.794-4,4c0,0.247,0.03,0.487,0.073,0.723c0.01,0.052,0.019,0.104,0.031,0.155
			c0.103,0.461,0.286,0.892,0.539,1.282c0.03,0.047,0.061,0.092,0.093,0.138c0.119,0.167,0.247,0.327,0.391,0.474
			c0.053,0.055,0.111,0.104,0.168,0.156c0.109,0.099,0.221,0.194,0.341,0.282c0.096,0.071,0.194,0.135,0.296,0.197
			c0.023,0.014,0.044,0.031,0.067,0.045V9h-0.5c-0.276,0-0.5,0.224-0.5,0.5V10h-1.53c0.139-0.415,0.297-0.846,0.491-1.305
			c0.064-0.155,0.049-0.331-0.044-0.471C14.319,8.084,14.163,8,13.995,8H12.43c-0.296-1.98-1.68-2.881-3.032-2.881H9.355
			c-1.817,0.025-3.788,1.565-3.86,4.369c-0.066,2.547,0.297,3.354,0.616,4.065c0.252,0.56,0.451,1.002,0.385,2.424
			c-0.054,1.154-0.488,1.768-0.947,2.416c-0.784,1.109-1.596,2.257-0.541,5.585c0.556,1.754,2.756,2.079,4.752,2.079
			c0.673,0,1.326-0.037,1.882-0.07c0.164-0.01,0.337-0.021,0.503-0.031c-0.402,0.764-0.65,1.622-0.65,2.544v1
			c0,0.276,0.224,0.5,0.5,0.5h13c0.276,0,0.5-0.224,0.5-0.5v-1C25.495,25.635,23.295,23.275,20.495,23.022z M16.46,6.191
			c-0.06-0.055-0.115-0.113-0.169-0.172c-0.074-0.081-0.145-0.165-0.21-0.254c-0.031-0.043-0.065-0.083-0.094-0.128
			c-0.093-0.142-0.175-0.291-0.244-0.448c-0.012-0.029-0.021-0.059-0.033-0.088c-0.054-0.136-0.098-0.278-0.132-0.423
			c-0.01-0.045-0.021-0.09-0.029-0.136C15.517,4.366,15.495,4.186,15.495,4c0-1.654,1.346-3,3-3s3,1.346,3,3
			c0,0.186-0.022,0.366-0.055,0.542c-0.008,0.046-0.019,0.091-0.029,0.136c-0.034,0.145-0.077,0.287-0.132,0.423
			c-0.012,0.029-0.02,0.059-0.033,0.088c-0.068,0.157-0.151,0.306-0.244,0.448c-0.029,0.044-0.063,0.085-0.094,0.127
			c-0.065,0.089-0.136,0.174-0.21,0.255C20.644,6.078,20.59,6.136,20.53,6.19c-0.049,0.045-0.102,0.085-0.153,0.127
			c-0.182,0.146-0.379,0.278-0.598,0.382c-0.001,0.001-0.002,0.002-0.003,0.003C19.386,6.887,18.955,7,18.495,7
			s-0.891-0.113-1.281-0.298c-0.001-0.001-0.002-0.002-0.003-0.003c-0.219-0.104-0.416-0.236-0.599-0.383
			C16.561,6.275,16.508,6.236,16.46,6.191z M11.356,11h1.282c-0.776,3.26,0.002,5.257,0.648,6.79C13.085,17.881,12.653,18,11.995,18
			c-0.658,0-1.09-0.119-1.291-0.21C11.434,16.061,12.173,14.276,11.356,11z M13.256,9c-0.132,0.346-0.242,0.677-0.343,1h-1.84
			c-0.102-0.321-0.213-0.651-0.344-1H13.256z M11.585,24.987c-1.789,0.102-5.115,0.292-5.624-1.314
			c-0.905-2.853-0.298-3.711,0.404-4.704c0.498-0.704,1.062-1.501,1.129-2.947c0.078-1.66-0.189-2.253-0.471-2.881
			c-0.289-0.643-0.588-1.309-0.528-3.629c0.056-2.18,1.522-3.375,2.874-3.394h0.03c0.854,0,1.774,0.51,2.03,1.882H9.995
			C9.828,8,9.673,8.083,9.58,8.22C9.487,8.358,9.469,8.534,9.532,8.688C9.723,9.154,9.879,9.585,10.019,10H8.995
			c-0.276,0-0.5,0.224-0.5,0.5s0.224,0.5,0.5,0.5h1.331c0.838,3.12,0.161,4.729-0.549,6.414l-0.025,0.06
			c-0.08,0.126-0.121,0.259-0.121,0.395c0,0.835,1.273,1.131,2.364,1.131s2.364-0.296,2.364-1.13c0-0.136-0.041-0.268-0.121-0.395
			c-0.639-1.515-1.385-3.342-0.575-6.475h1.832v0.5c0,0.276,0.224,0.5,0.5,0.5h0.5v11.022c-1.477,0.133-2.774,0.863-3.683,1.933
			C12.552,24.936,12.181,24.953,11.585,24.987z M24.495,29h-12v-0.5c0-2.481,2.019-4.5,4.5-4.5c0.276,0,0.5-0.224,0.5-0.5v-12
			c0-0.276-0.224-0.5-0.5-0.5h-0.5v-1h0.5c0.276,0,0.5-0.224,0.5-0.5V7.858C17.817,7.942,18.148,8,18.495,8s0.678-0.058,1-0.142V9.5
			c0,0.276,0.224,0.5,0.5,0.5h0.5v1h-0.5c-0.276,0-0.5,0.224-0.5,0.5v12c0,0.276,0.224,0.5,0.5,0.5c2.481,0,4.5,2.019,4.5,4.5V29z"
			/>
	</g>
</g>
</svg>
