<?xml version="1.0" encoding="iso-8859-1"?>
<!-- Generator: Adobe Illustrator 19.0.0, SVG Export Plug-In . SVG Version: 6.00 Build 0)  -->
<svg version="1.1" id="Layer_1" xmlns="http://www.w3.org/2000/svg" xmlns:xlink="http://www.w3.org/1999/xlink" x="0px" y="0px"
	 viewBox="0 0 30 30" style="enable-background:new 0 0 30 30;" xml:space="preserve">
<g>
	<g>
		<path d="M5.978,19c-0.99,0-1.661-0.39-2.174-1.264c-0.14-0.238-0.445-0.318-0.684-0.178c-0.238,0.14-0.318,0.446-0.178,0.684
			C3.636,19.425,4.629,20,5.978,20c0.276,0,0.5-0.224,0.5-0.5S6.254,19,5.978,19z M29.73,8.569c-0.155-0.09-0.344-0.091-0.499-0.003
			c-0.076,0.043-7.673,4.314-12.765,4.435c-0.134,0.003-0.26,0.059-0.352,0.156c-1.465,1.549-2.932,2.511-4.583,3.315
			c0.597-1.763,0.771-4.497-0.572-6.63C10.765,8.579,8.29,8,5.978,8C3.654,8,1.166,8.585,0.994,9.861
			c-1.226,2.3-1.434,6.569,0.222,9.393C2.271,21.05,3.917,22,5.978,22c1.287,0,2.438-0.551,3.2-1.034
			c1.164-0.288,2.401-0.775,3.709-1.29c1.893-0.746,3.851-1.517,5.636-1.678c0.121-0.011,0.235-0.066,0.318-0.154
			c1.701-1.799,4.124-3.004,10.804-5.373c0.2-0.071,0.333-0.259,0.333-0.471V9C29.978,8.822,29.883,8.658,29.73,8.569z M5.978,9
			c2.625,0,4,0.743,4,1s-1.375,1-4,1s-4-0.743-4-1S3.353,9,5.978,9z M28.978,11.647c-6.447,2.298-8.944,3.546-10.733,5.374
			c-1.871,0.207-3.829,0.978-5.724,1.725c-1.306,0.514-2.539,0.999-3.66,1.268c-0.055,0.013-0.108,0.036-0.155,0.067
			C8.06,20.5,7.061,21,5.978,21c-1.71,0-3.022-0.758-3.898-2.252c-1.314-2.239-1.302-5.614-0.512-7.741
			C2.469,11.682,4.267,12,5.978,12c1.734,0,3.559-0.327,4.447-1.022c1.012,2.251,0.427,5.193-0.347,6.22
			c-0.136,0.181-0.134,0.431,0.006,0.61c0.141,0.178,0.383,0.241,0.591,0.151c2.24-0.961,4.129-2.009,6.023-3.967
			c4.411-0.189,10.227-3.064,12.28-4.151V11.647z"/>
	</g>
</g>
</svg>
