<?xml version="1.0" encoding="iso-8859-1"?>
<!-- Generator: Adobe Illustrator 19.0.0, SVG Export Plug-In . SVG Version: 6.00 Build 0)  -->
<svg version="1.1" id="Layer_1" xmlns="http://www.w3.org/2000/svg" xmlns:xlink="http://www.w3.org/1999/xlink" x="0px" y="0px"
	 viewBox="0 0 30 30" style="enable-background:new 0 0 30 30;" xml:space="preserve">
<g>
	<g>
		<path d="M29.994,8.998c0-0.004,0.002-0.007,0.001-0.011c-0.003-0.026-0.02-0.053-0.026-0.079
			c-0.016-0.072-0.035-0.143-0.072-0.216c-0.002-0.003-0.004-0.006-0.006-0.009c-0.145-0.278-0.429-0.552-0.815-0.762
			c-0.922-0.504-2.975-0.994-6.882,0.731c-0.085,0.037-0.176,0.083-0.263,0.122c-0.192,0.088-0.383,0.174-0.584,0.272
			c-0.294,0.144-0.597,0.3-0.911,0.469c-1.119,0.603-2.233,1.167-3.403,1.724c-0.003,0.001-0.007,0.001-0.01,0.003l-0.68,0.331
			c-0.647,0.317-1.258,0.617-1.818,0.805c-0.968,0.324-1.979,0.241-2.85-0.237c-0.836-0.459-1.43-1.222-1.676-2.153V9.051
			c0-0.276-0.224-0.5-0.5-0.5h-8c-0.226,0-0.425,0.153-0.483,0.372C0.975,9.08,0,12.789,0,15.685c0,3.303,2.601,6.867,6.804,6.867
			c7.739,0,11.126-4.215,13.599-7.296l0.192-0.239c0.002-0.002,0.004-0.003,0.006-0.005c0.773-0.959,1.59-1.643,2.31-2.247
			c0.215-0.18,0.421-0.352,0.615-0.523c2.468-2.167,4.489-3.132,5.697-2.719c0.108,0.036,0.36,0.123,0.589-0.063
			c0.043-0.035,0.068-0.088,0.097-0.137c0.014-0.023,0.036-0.04,0.046-0.066c0.016-0.04,0.015-0.081,0.022-0.123
			c0.007-0.041,0.025-0.08,0.022-0.121C29.998,9.009,29.995,9.003,29.994,8.998z M6.804,21.552C2.845,21.552,1,18.051,1,15.685
			c0-2.25,0.645-5.122,0.89-6.133V9.551h7.109v0.5c0,0.04,0.005,0.081,0.015,0.12c0.305,1.231,1.079,2.242,2.181,2.847
			c1.118,0.615,2.415,0.723,3.649,0.309c0.623-0.209,1.263-0.523,1.94-0.855l0.223-0.108c0.07,0.131,0.158,0.25,0.237,0.375
			c0.057,0.09,0.109,0.182,0.17,0.269c0.204,0.291,0.424,0.569,0.675,0.822c0,0,0,0,0.001,0.001c0,0,0,0,0,0
			c0.001,0.001,0.002,0.001,0.003,0.002c0.247,0.25,0.519,0.469,0.802,0.672c0.08,0.057,0.163,0.109,0.245,0.163
			c0.099,0.064,0.193,0.138,0.295,0.196C16.989,17.905,13.882,21.552,6.804,21.552z M23.942,10.601
			c-0.35,0.273-0.707,0.564-1.076,0.889c-0.189,0.166-0.389,0.334-0.597,0.508c-0.673,0.565-1.427,1.197-2.174,2.062
			c-0.128-0.068-0.257-0.134-0.378-0.211c-0.073-0.047-0.149-0.088-0.219-0.138c-0.247-0.175-0.482-0.367-0.697-0.584
			c-0.21-0.212-0.394-0.444-0.565-0.687c-0.051-0.073-0.096-0.149-0.144-0.224c-0.06-0.095-0.108-0.197-0.162-0.296
			c1.016-0.493,1.996-0.992,2.982-1.523c0.851-0.458,1.613-0.809,2.304-1.085c0.04-0.016,0.086-0.039,0.126-0.054
			c0.249-0.097,0.474-0.171,0.702-0.247c0.106-0.036,0.223-0.082,0.324-0.114c0.18-0.056,0.34-0.093,0.508-0.137
			c0.131-0.034,0.273-0.078,0.396-0.106c0.122-0.027,0.227-0.041,0.342-0.062c0.151-0.028,0.309-0.061,0.447-0.079
			c0.066-0.009,0.121-0.01,0.184-0.016c0.172-0.018,0.343-0.036,0.495-0.041c0.013,0,0.024,0.001,0.037,0
			c0.379-0.009,0.695,0.018,0.958,0.065C26.655,8.772,25.385,9.471,23.942,10.601z M6.804,19.552C4.209,19.552,3,17.245,3,15.685
			c0-0.276-0.224-0.5-0.5-0.5S2,15.409,2,15.685c0,1.963,1.527,4.867,4.804,4.867c0.277,0,0.5-0.224,0.5-0.5
			S7.08,19.552,6.804,19.552z"/>
	</g>
</g>
</svg>
