<?xml version="1.0" encoding="iso-8859-1"?>
<!-- Generator: Adobe Illustrator 19.0.0, SVG Export Plug-In . SVG Version: 6.00 Build 0)  -->
<svg version="1.1" id="Layer_1" xmlns="http://www.w3.org/2000/svg" xmlns:xlink="http://www.w3.org/1999/xlink" x="0px" y="0px"
	 viewBox="0 0 30 30" style="enable-background:new 0 0 30 30;" xml:space="preserve">
<g>
	<g>
		<path d="M28.87,3.665c-1.48-1.467-3.791-1.559-5.157-0.204l-2.458,2.493l-0.701-0.71c-0.093-0.095-0.22-0.148-0.353-0.149
			c-0.103,0.03-0.26,0.051-0.355,0.145c-0.596,0.591-1.121,1.298-1.677,2.046c-0.569,0.767-1.158,1.559-1.84,2.235
			c-0.633,0.628-1.917,1.78-3.275,2.999c-1.565,1.405-3.183,2.858-4.112,3.779c-1.734,1.719-8.54,10.03-8.829,10.383
			c-0.159,0.194-0.149,0.475,0.021,0.658c0.098,0.105,0.232,0.159,0.366,0.159c0.101,0,0.202-0.03,0.288-0.092
			c0.376-0.266,9.223-6.528,10.968-8.258c0.934-0.926,2.36-2.58,3.738-4.179c1.192-1.383,2.318-2.69,2.946-3.313
			c0.687-0.682,1.465-1.289,2.216-1.877c0.728-0.568,1.415-1.105,2.005-1.69c0.196-0.194,0.197-0.51,0.004-0.706l-0.708-0.718
			l2.464-2.499c0.975-0.966,2.654-0.872,3.745,0.208C28.696,4.9,29,5.623,29,6.357c0,0.666-0.252,1.283-0.714,1.741l-0.704,0.714
			c-0.194,0.197-0.192,0.513,0.005,0.707c0.098,0.096,0.224,0.144,0.351,0.144c0.129,0,0.259-0.05,0.356-0.149l0.7-0.71
			C29.643,8.161,30,7.292,30,6.357C30,5.358,29.588,4.377,28.87,3.665z M20.043,8.993c-0.775,0.606-1.576,1.232-2.305,1.955
			c-0.656,0.651-1.794,1.972-3,3.37c-1.366,1.585-2.778,3.224-3.684,4.122c-1.044,1.034-4.91,3.883-7.729,5.921
			c2.209-2.663,5.274-6.313,6.322-7.352c0.911-0.904,2.52-2.348,4.076-3.745c1.368-1.228,2.66-2.387,3.311-3.033
			c0.735-0.729,1.347-1.553,1.939-2.349c0.419-0.563,0.819-1.101,1.234-1.567l0.694,0.702c0.001,0.001,0.002,0.003,0.003,0.005
			c0.001,0.001,0.003,0.002,0.004,0.003l0.689,0.697C21.128,8.145,20.598,8.559,20.043,8.993z"/>
	</g>
</g>
</svg>
