<?xml version="1.0" encoding="utf-8"?>
<!-- Generator: Adobe Illustrator 19.0.0, SVG Export Plug-In . SVG Version: 6.00 Build 0)  -->
<svg version="1.1" id="Layer_1" xmlns="http://www.w3.org/2000/svg" xmlns:xlink="http://www.w3.org/1999/xlink" x="0px" y="0px"
	 viewBox="0 0 30 30" style="enable-background:new 0 0 30 30;" xml:space="preserve">
<path d="M29,29h-3.5V5H29c0.3,0,0.5-0.2,0.5-0.5S29.3,4,29,4h-3.5V0.5C25.5,0.2,25.3,0,25,0s-0.5,0.2-0.5,0.5V4h-11V1.5
	C13.5,1.2,13.3,1,13,1H7C6.7,1,6.5,1.2,6.5,1.5V4H5C4.7,4,4.5,4.2,4.5,4.5S4.7,5,5,5h1.5v3.8c-3,1.4-5,4.4-5,7.7
	c0,0.4,0,0.7,0.1,1.1C2.1,21.8,5.7,25,10,25s7.9-3.2,8.4-7.4c0-0.3,0.1-0.7,0.1-1.1c0-3.3-2-6.3-5-7.7V5h11v24H1
	c-0.3,0-0.5,0.2-0.5,0.5S0.7,30,1,30h28c0.3,0,0.5-0.2,0.5-0.5S29.3,29,29,29z M7.5,2h5v2h-5V2z M12.8,9.6c2.8,1.2,4.7,3.9,4.7,6.9
	c0,0.2,0,0.3,0,0.5h-15c0-0.2,0-0.3,0-0.5c0-3,1.8-5.8,4.7-6.9c0.2-0.1,0.3-0.3,0.3-0.5V5h5v4.1C12.5,9.3,12.6,9.5,12.8,9.6z"/>
</svg>
