<?xml version="1.0" encoding="utf-8"?>
<!-- Generator: Adobe Illustrator 19.0.0, SVG Export Plug-In . SVG Version: 6.00 Build 0)  -->
<svg version="1.1" id="Layer_1" xmlns="http://www.w3.org/2000/svg" xmlns:xlink="http://www.w3.org/1999/xlink" x="0px" y="0px"
	 viewBox="0 0 30 30" style="enable-background:new 0 0 30 30;" xml:space="preserve">
<g>
	<path d="M27.6,2.6l-2.5-2.5c-0.2-0.2-0.5-0.2-0.7,0l-2.1,2.1l-1.1-1.1c-0.2-0.2-0.5-0.2-0.7,0l-10,10c-0.2,0.2-0.2,0.5,0,0.7
		l0.6,0.6l-2.1,2.1c-0.2,0.2-0.2,0.5,0,0.7l3,3c0.1,0.1,0.2,0.1,0.4,0.1s0.3,0,0.4-0.1l2.1-2.1l0.6,0.6c0.1,0.1,0.2,0.1,0.4,0.1
		c0.1,0,0.2,0,0.3-0.1l1.7-1.5c0.1-0.1,0.2-0.2,0.2-0.4c0-0.1-0.1-0.3-0.2-0.4c-1-1-1.6-2.2-1.6-3.6c0-2.8,2.2-5,5-5
		c1.6,0,3,0.7,4,2c0.1,0.1,0.2,0.2,0.4,0.2c0.1,0,0.3,0,0.4-0.1l0.6-0.6c0.2-0.2,0.2-0.5,0-0.7l-1.1-1.1l2.1-2.1
		C27.8,3.2,27.8,2.8,27.6,2.6z"/>
	<path d="M25.2,11c0-2.2-1.8-4-4-4s-4,1.8-4,4s1.8,4,4,4S25.2,13.2,25.2,11z"/>
	<path d="M26.5,13.5c-0.1-0.2-0.2-0.3-0.4-0.3c-0.2,0-0.4,0.1-0.5,0.3c-0.5,0.9-1.3,1.6-2.3,2.1c-0.2,0.1-0.3,0.3-0.3,0.6
		c0.1,0.6,0.2,1.2,0.2,1.9c0,3.7-3.5,7-7.5,7c-2,0-3.5-0.2-4.7-1h3.7c0.3,0,0.5-0.2,0.5-0.5v-3c0-0.3-0.2-0.5-0.5-0.5h-12
		c-0.3,0-0.5,0.2-0.5,0.5v3c0,0.3,0.2,0.5,0.5,0.5h1.7c0.6,1.2,1.3,1.7,2.2,2.3c0.2,0.1,0.4,0.3,0.6,0.4v2.7c0,0.3,0.2,0.5,0.5,0.5
		h18c0.3,0,0.5-0.2,0.5-0.5v-4c0-0.3-0.2-0.5-0.5-0.5h-0.9c1.6-2.1,2.4-4.5,2.4-7C27.2,16.4,27,14.9,26.5,13.5z"/>
</g>
</svg>
