<?xml version="1.0" encoding="utf-8"?>
<!-- Generator: Adobe Illustrator 19.0.0, SVG Export Plug-In . SVG Version: 6.00 Build 0)  -->
<svg version="1.1" id="Layer_1" xmlns="http://www.w3.org/2000/svg" xmlns:xlink="http://www.w3.org/1999/xlink" x="0px" y="0px"
	 viewBox="0 0 30 30" style="enable-background:new 0 0 30 30;" xml:space="preserve">
<g>
	<path d="M24.3,20.1c5.4-6.6,6.8-14,3.2-17.6c-1.3-1.3-3.2-2-5.4-2c-4.5,0-10,2.8-14.4,7.2C4.4,11,2,14.8,1,18.5c-1,3.8-0.5,7,1.5,9
		c1.3,1.3,3.2,2,5.4,2c3.8,0,8.2-1.9,12.2-5.2c0.6,0.7,1.4,1.2,2.4,1.2c1.7,0,3-1.4,3-3C25.5,21.5,25,20.7,24.3,20.1z M21.5,7
		c0,0.2,0,0.3,0,0.5c0,0.1,0,0.1,0.1,0.2c0,0.1,0,0.2,0.1,0.2c0,0.1,0.1,0.2,0.1,0.2c0,0.1,0.1,0.1,0.1,0.2c0,0.1,0.1,0.2,0.2,0.2
		c0,0,0.1,0.1,0.1,0.1c0.1,0.1,0.1,0.1,0.2,0.2c0,0,0.1,0.1,0.1,0.1c0.1,0.1,0.2,0.1,0.2,0.2c0,0,0.1,0.1,0.1,0.1
		c0.1,0,0.2,0.1,0.3,0.1c0.1,0,0.1,0,0.2,0.1c0.1,0,0.2,0.1,0.3,0.1c0,0,0,0,0,0c0.8,3.2-1.2,8-5,11.9c-3.2,3.2-7.2,5.2-10.3,5.2
		c-1.5,0-2.7-0.4-3.5-1.3c-1.3-1.3-1.6-3.4-0.9-6c0.7-2.7,2.4-5.5,4.8-7.9c3.2-3.2,7.2-5.2,10.3-5.2c1,0,1.8,0.2,2.5,0.6
		C21.5,6.9,21.5,6.9,21.5,7z M19.6,23.4c-3.8,3.2-8.2,5.1-11.7,5.1c-2,0-3.6-0.6-4.7-1.7c-1.7-1.7-2.2-4.6-1.2-8
		c1-3.5,3.2-7.2,6.4-10.4c4.2-4.2,9.5-6.9,13.7-6.9c2,0,3.6,0.6,4.7,1.7c3.2,3.2,1.8,10.2-3.4,16.4c0,0-0.1,0-0.1,0
		c-0.1,0-0.2,0-0.2-0.1c-0.2,0-0.4-0.1-0.5-0.1c-0.4,0-0.8,0.1-1.2,0.3c2.7-3.5,4-7.4,3.3-10.3c1.1-0.3,1.9-1.2,1.9-2.4
		c0-1.4-1.1-2.5-2.5-2.5c-1,0-1.8,0.5-2.2,1.3C21,5.4,20,5.2,19,5.2c-3.4,0-7.6,2.1-11,5.5c-2.5,2.5-4.3,5.5-5.1,8.3
		C2.1,22,2.5,24.4,4,26c1,1,2.5,1.6,4.2,1.6c3.4,0,7.6-2.1,11-5.5c0.1-0.1,0.2-0.2,0.3-0.3c-0.1,0.3-0.1,0.5-0.1,0.8
		c0,0.2,0,0.4,0.1,0.5c0,0.1,0,0.2,0.1,0.2C19.6,23.3,19.6,23.4,19.6,23.4z"/>
	<path d="M18.4,11c0-0.2,0.1-0.3,0.1-0.5c0-1.1-0.9-2-2-2c-1.1,0-1.9,0.8-2,1.9c-2,0.4-4.1,1.6-5.9,3.4c-1.7,1.7-2.9,3.6-3.4,5.5
		C4.7,21.3,5,22.9,6,24C6.7,24.7,7.7,25,8.9,25c0,0,0,0,0,0c2.3,0,5-1.4,7.3-3.6c1.7-1.7,2.9-3.6,3.4-5.5c0.5-2,0.2-3.6-0.8-4.7
		C18.6,11.2,18.5,11.1,18.4,11z M18.6,15.7c-0.5,1.7-1.6,3.5-3.1,5c-2,2-4.6,3.3-6.6,3.3c-0.9,0-1.6-0.3-2.1-0.8
		c-0.8-0.8-1-2.1-0.5-3.7c0.5-1.7,1.6-3.5,3.1-5c1.7-1.7,3.6-2.8,5.4-3.2c0,0,0,0,0,0.1c0.1,0.1,0.1,0.2,0.2,0.4c0,0,0,0.1,0.1,0.1
		c0.1,0.1,0.2,0.2,0.4,0.3c0,0,0,0,0.1,0c0.1,0.1,0.3,0.1,0.4,0.2c0,0,0.1,0,0.1,0c0.2,0,0.3,0.1,0.5,0.1c0.6,0,1.1-0.2,1.4-0.6
		c0,0,0.1,0.1,0.1,0.1C18.8,12.8,19,14.1,18.6,15.7z"/>
	<circle cx="10" cy="20" r="1.5"/>
</g>
</svg>
