<?xml version="1.0" encoding="iso-8859-1"?>
<!-- Generator: Adobe Illustrator 19.0.0, SVG Export Plug-In . SVG Version: 6.00 Build 0)  -->
<svg version="1.1" id="Layer_1" xmlns="http://www.w3.org/2000/svg" xmlns:xlink="http://www.w3.org/1999/xlink" x="0px" y="0px"
	 viewBox="0 0 24 24" style="enable-background:new 0 0 24 24;" xml:space="preserve">
<g id="XMLID_371_">
	<path id="XMLID_372_" d="M22.004,16h-6v-1.5c0-0.208-0.128-0.394-0.322-0.467c-0.195-0.073-0.413-0.021-0.551,0.135l-4,4.5
		c-0.168,0.189-0.168,0.475,0,0.664l4,4.5C15.228,23.941,15.364,24,15.504,24c0.06,0,0.12-0.011,0.178-0.033
		c0.194-0.074,0.322-0.26,0.322-0.467V22h0.928c1.148,0,2.224-0.564,2.875-1.505l2.605-3.708c0.107-0.153,0.121-0.353,0.035-0.518
		S22.191,16,22.004,16z"/>
	<path id="XMLID_373_" d="M6.952,14.724l0.776-1.553l1.553,0.776c0.186,0.094,0.413,0.061,0.565-0.082
		c0.152-0.143,0.201-0.365,0.12-0.558l-2.5-6C7.388,7.122,7.206,7,7.004,7h-6.5C0.302,7,0.12,7.122,0.042,7.309
		C-0.035,7.496,0.008,7.71,0.151,7.854l1.745,1.745l-1.659,3.317c-0.236,0.471-0.286,0.993-0.145,1.508
		c0.021,0.075,0.059,0.145,0.11,0.202C0.419,14.867,0.717,15,1.041,15h5.463C6.694,15,6.867,14.893,6.952,14.724z"/>
	<path id="XMLID_374_" d="M9.504,16H2.043c-0.186,0-0.356,0.103-0.443,0.268c-0.086,0.165-0.074,0.364,0.032,0.517l2.567,3.708
		C4.852,21.436,5.928,22,7.076,22h2.428c0.276,0,0.5-0.224,0.5-0.5v-5C10.004,16.224,9.781,16,9.504,16z"/>
	<path id="XMLID_375_" d="M23.982,13.733l-0.503-0.007l0.498-0.045c-0.002-0.022-0.01-0.063-0.015-0.085
		c-0.012-0.055-0.031-0.137-0.079-0.233c-0.029-0.059-0.045-0.126-0.048-0.208c-0.002-0.063,0.002-0.072-0.022-0.13
		c-0.011-0.039-0.032-0.095-0.052-0.13l-2.32-4.14c-0.135-0.241-0.438-0.328-0.679-0.192l-4.5,2.5
		c-0.12,0.066-0.207,0.179-0.242,0.312c-0.034,0.133-0.012,0.274,0.061,0.39l1.875,3C18.047,14.911,18.207,15,18.379,15h4.492
		c0.394,0,0.754-0.2,0.962-0.537c0.053-0.086,0.123-0.227,0.16-0.459C23.999,13.915,23.992,13.824,23.982,13.733z"/>
	<path id="XMLID_376_" d="M14.343,5.389l-2.151,1.721c-0.153,0.123-0.22,0.323-0.172,0.513s0.203,0.334,0.396,0.369l5.5,1
		C17.945,8.998,17.975,9,18.005,9c0.199,0,0.382-0.119,0.461-0.308l2.5-6c0.081-0.193,0.032-0.416-0.12-0.558
		c-0.153-0.143-0.378-0.176-0.565-0.082l-1.605,0.803l-1.162-1.742C17.049,0.416,16.272,0,15.434,0h-3.58
		c-0.182,0-0.35,0.099-0.438,0.258c-0.088,0.16-0.082,0.354,0.015,0.508L14.343,5.389z"/>
	<path id="XMLID_377_" d="M12.574,4.196l-2.192-3.189c-0.358-0.52-0.906-0.863-1.543-0.965C8.804,0.036,8.77,0.034,8.734,0.036
		c-0.995,0.051-1.902,0.528-2.488,1.31L4.104,4.2c-0.087,0.116-0.12,0.264-0.089,0.406c0.031,0.142,0.122,0.264,0.25,0.333l5.5,3
		C9.841,7.98,9.923,8,10.004,8c0.157,0,0.311-0.074,0.407-0.209l2.158-3.021C12.691,4.599,12.693,4.369,12.574,4.196z"/>
</g>
<g>
</g>
<g>
</g>
<g>
</g>
<g>
</g>
<g>
</g>
<g>
</g>
<g>
</g>
<g>
</g>
<g>
</g>
<g>
</g>
<g>
</g>
<g>
</g>
<g>
</g>
<g>
</g>
<g>
</g>
</svg>
