<?xml version="1.0" encoding="utf-8"?>
<!-- Generator: Adobe Illustrator 19.0.0, SVG Export Plug-In . SVG Version: 6.00 Build 0)  -->
<svg version="1.1" id="Layer_1" xmlns="http://www.w3.org/2000/svg" xmlns:xlink="http://www.w3.org/1999/xlink" x="0px" y="0px"
	 viewBox="0 0 30 30" style="enable-background:new 0 0 30 30;" xml:space="preserve">
<g>
	<g>
		<g>
			<g>
				<path d="M15.5,27h-13C2.2,27,2,26.8,2,26.5v-18c0-0.1,0.1-0.3,0.1-0.4l8-8C10.2,0.1,10.4,0,10.5,0h12C22.8,0,23,0.2,23,0.5v14
					c0,0.3-0.2,0.5-0.5,0.5S22,14.8,22,14.5V1H10.7L3,8.7V26h12.5c0.3,0,0.5,0.2,0.5,0.5S15.8,27,15.5,27z"/>
			</g>
			<g>
				<path d="M10.5,9h-8C2.2,9,2,8.8,2,8.5S2.2,8,2.5,8H10V0.5C10,0.2,10.2,0,10.5,0S11,0.2,11,0.5v8C11,8.8,10.8,9,10.5,9z"/>
			</g>
		</g>
	</g>
	<g>
		<g>
			<path d="M22.5,30c-0.1,0-0.1,0-0.2,0c-0.9-0.4-5.3-2.6-5.3-4.5v-7c0-0.2,0.1-0.4,0.3-0.5l5-2c0.1,0,0.3,0,0.4,0l5,2
				c0.2,0.1,0.3,0.3,0.3,0.5v7c0,1.9-4.4,4-5.3,4.5C22.6,30,22.6,30,22.5,30z M18,18.8v6.7c0,0.9,2.6,2.5,4.5,3.4
				c2.2-1.1,4.5-2.6,4.5-3.4v-6.7L22.5,17L18,18.8z"/>
		</g>
		<g>
			<g>
				<path d="M22.5,23h-2c-0.3,0-0.5-0.2-0.5-0.5V20c0-0.2,0.1-0.4,0.3-0.4l2-1c0.2-0.1,0.3-0.1,0.5,0c0.1,0.1,0.2,0.3,0.2,0.4v3.5
					C23,22.8,22.8,23,22.5,23z M21,22h1v-2.2l-1,0.5V22z"/>
			</g>
			<g>
				<path d="M22.5,26.5c-0.1,0-0.2,0-0.3-0.1C22.1,26.3,22,26.2,22,26v-3.5c0-0.3,0.2-0.5,0.5-0.5h2c0.3,0,0.5,0.2,0.5,0.5v2
					c0,0.1-0.1,0.3-0.2,0.4l-0.2,0.2c-0.4,0.4-0.9,0.9-1.9,1.4C22.7,26.5,22.6,26.5,22.5,26.5z M23,23v2.1c0.4-0.3,0.7-0.5,0.9-0.8
					l0.1-0.1V23H23z"/>
			</g>
		</g>
	</g>
</g>
</svg>
