<?xml version="1.0" encoding="utf-8"?>
<!-- Generator: Adobe Illustrator 19.0.0, SVG Export Plug-In . SVG Version: 6.00 Build 0)  -->
<svg version="1.1" id="Layer_1" xmlns="http://www.w3.org/2000/svg" xmlns:xlink="http://www.w3.org/1999/xlink" x="0px" y="0px"
	 viewBox="0 0 30 30" style="enable-background:new 0 0 30 30;" xml:space="preserve">
<g>
	<g>
		<path d="M15,30c0,0-0.1,0-0.1,0c-4.7-1.4-13.4-6.3-13.4-11.8V4.5c0-0.2,0.1-0.4,0.4-0.5l13-4c0.1,0,0.2,0,0.3,0l13,4
			c0.2,0.1,0.4,0.3,0.4,0.5v13.7c0,5.5-8.7,10.4-13.4,11.8C15.1,30,15,30,15,30z M2.5,4.9v13.3c0,4.5,7.3,9.2,12.5,10.8
			c5.2-1.6,12.5-6.3,12.5-10.8V4.9L15,1L2.5,4.9z"/>
	</g>
	<g>
		<g>
			<path d="M21,10.5H9c-0.3,0-0.5-0.2-0.5-0.5V8.2c0-1,0.8-1.8,1.8-1.8h9.5c1,0,1.8,0.8,1.8,1.8V10C21.5,10.3,21.3,10.5,21,10.5z
				 M9.5,9.5h11V8.2c0-0.4-0.3-0.8-0.8-0.8h-9.5c-0.4,0-0.8,0.3-0.8,0.8V9.5z"/>
		</g>
		<g>
			<path d="M18,20.5h-6c-0.2,0-0.4-0.2-0.5-0.4l-2-10C9.5,9.8,9.6,9.6,9.9,9.5c0.3-0.1,0.5,0.1,0.6,0.4l1.9,9.6h5.2l1.9-9.6
				c0.1-0.3,0.3-0.4,0.6-0.4c0.3,0.1,0.4,0.3,0.4,0.6l-2,10C18.4,20.3,18.2,20.5,18,20.5z"/>
		</g>
		<g>
			<path d="M14,17.5c-0.2,0-0.4-0.2-0.5-0.4l-1-5c-0.1-0.3,0.1-0.5,0.4-0.6c0.3-0.1,0.5,0.1,0.6,0.4l1,5
				C14.5,17.2,14.4,17.4,14,17.5C14.1,17.5,14,17.5,14,17.5z"/>
		</g>
		<g>
			<path d="M16,17.5C16,17.5,15.9,17.5,16,17.5c-0.4-0.1-0.5-0.3-0.5-0.6l1-5c0.1-0.3,0.3-0.4,0.6-0.4c0.3,0.1,0.4,0.3,0.4,0.6l-1,5
				C16.4,17.3,16.2,17.5,16,17.5z"/>
		</g>
		<g>
			<path d="M15,7.5c-0.3,0-0.5-0.2-0.5-0.5V6c0-0.3,0.2-0.5,0.5-0.5s0.5,0.2,0.5,0.5v1C15.5,7.3,15.3,7.5,15,7.5z"/>
		</g>
	</g>
</g>
</svg>
