<?xml version="1.0" encoding="utf-8"?>
<!-- Generator: Adobe Illustrator 19.0.0, SVG Export Plug-In . SVG Version: 6.00 Build 0)  -->
<svg version="1.1" id="Layer_1" xmlns="http://www.w3.org/2000/svg" xmlns:xlink="http://www.w3.org/1999/xlink" x="0px" y="0px"
	 viewBox="0 0 30 30" style="enable-background:new 0 0 30 30;" xml:space="preserve">
<g>
	<polygon points="20.1,24 21,26.2 21.9,24 	"/>
	<path d="M17.5,18c1.2,0,2-1.2,2-3c0-2.3-3.6-4.4-4.5-4.9c-0.9,0.5-4.5,2.6-4.5,4.9c0,1.8,0.8,3,2,3c0.4,0,0.6-0.2,0.9-0.6l0.2-0.2
		C13.8,17,14,17,14.2,17c0.2,0.1,0.3,0.3,0.3,0.5c-0.1,1-0.4,1.9-0.7,2.4h2.4c-0.3-0.6-0.6-1.4-0.7-2.4c0-0.2,0.1-0.4,0.3-0.5
		c0.2-0.1,0.4,0,0.6,0.1l0.2,0.2C16.9,17.8,17.1,18,17.5,18z"/>
	<polygon points="9.9,6 9,3.8 8.1,6 	"/>
	<path d="M23,0H7C5.6,0,4.5,1.1,4.5,2.5v25C4.5,28.9,5.6,30,7,30h16c1.4,0,2.5-1.1,2.5-2.5v-25C25.5,1.1,24.4,0,23,0z M6.8,8
		C6.6,7.9,6.4,7.6,6.5,7.3l2-5c0.2-0.4,0.8-0.4,0.9,0l2,5c0.1,0.3,0,0.5-0.3,0.7c-0.1,0-0.1,0-0.2,0c-0.2,0-0.4-0.1-0.5-0.3L10.3,7
		H7.7L7.5,7.7C7.4,7.9,7.1,8.1,6.8,8z M17,21C17,21,17,21,17,21h-4c-0.2,0-0.3-0.1-0.4-0.3s-0.1-0.4,0-0.5c0,0,0.3-0.5,0.6-1.4
		C13,18.9,12.8,19,12.5,19c-1.5,0-3-1.4-3-4c0-3.3,5.1-5.8,5.3-5.9c0.1-0.1,0.3-0.1,0.4,0c0.2,0.1,5.3,2.7,5.3,5.9c0,2.6-1.5,4-3,4
		c-0.3,0-0.5-0.1-0.7-0.1c0.2,0.6,0.5,1.1,0.6,1.3c0.1,0.1,0.2,0.2,0.2,0.4C17.5,20.8,17.3,21,17,21z M23.5,22.7l-2,5
		C21.4,27.9,21.2,28,21,28s-0.4-0.1-0.5-0.3l-2-5c-0.1-0.3,0-0.5,0.3-0.7c0.3-0.1,0.5,0,0.7,0.3l0.3,0.7h2.5l0.3-0.7
		c0.1-0.3,0.4-0.4,0.7-0.3C23.4,22.1,23.6,22.4,23.5,22.7z"/>
</g>
</svg>
