<?xml version="1.0" encoding="iso-8859-1"?>
<!-- Generator: Adobe Illustrator 19.0.0, SVG Export Plug-In . SVG Version: 6.00 Build 0)  -->
<svg version="1.1" id="Layer_1" xmlns="http://www.w3.org/2000/svg" xmlns:xlink="http://www.w3.org/1999/xlink" x="0px" y="0px"
	 viewBox="0 0 24 24" style="enable-background:new 0 0 24 24;" xml:space="preserve">
<g>
	<g>
		<path d="M13.507,22.709C12.385,22.902,11.205,23,10,23c-5.304,0-9-1.845-9-3.5v-3.018C2.602,17.984,5.985,19,10,19
			c0.584,0,1.152-0.025,1.709-0.066c0.275-0.02,0.482-0.261,0.462-0.536c-0.02-0.275-0.261-0.484-0.536-0.462
			C11.104,17.975,10.559,18,10,18c-5.304,0-9-1.845-9-3.5v-2.991c1.375,1.285,4.07,2.207,7.467,2.435
			c0.011,0.001,0.022,0.001,0.034,0.001c0.261,0,0.48-0.202,0.498-0.467c0.018-0.275-0.191-0.513-0.466-0.532
			C4.309,12.663,1,11.149,1,9.5V6.482C2.602,7.984,5.985,9,10,9s7.397-1.016,9-2.518V9.5c0,0.91-1.086,1.856-2.904,2.531
			c-0.259,0.096-0.391,0.384-0.295,0.643C15.876,12.876,16.067,13,16.27,13c0.057,0,0.116-0.01,0.173-0.031
			c1.101-0.408,1.957-0.906,2.557-1.465V12.5c0,0.276,0.224,0.5,0.5,0.5s0.5-0.224,0.5-0.5v-8C20,1.977,15.607,0,10,0S0,1.977,0,4.5
			v15C0,22.023,4.393,24,10,24c1.262,0,2.498-0.103,3.677-0.305c0.271-0.047,0.454-0.306,0.408-0.578
			C14.038,22.845,13.783,22.662,13.507,22.709z M10,1c5.304,0,9,1.845,9,3.5C19,6.155,15.304,8,10,8S1,6.155,1,4.5
			C1,2.845,4.696,1,10,1z M23.895,14.192C23.8,14.071,23.654,14,23.5,14H13.14l-0.155-0.621C12.93,13.156,12.729,13,12.5,13h-2
			c-0.276,0-0.5,0.224-0.5,0.5s0.224,0.5,0.5,0.5h1.609l1.906,7.621C14.071,21.849,14.275,22,14.5,22
			c0.04,0,0.081-0.005,0.121-0.015c0.268-0.067,0.43-0.338,0.364-0.606l-0.362-1.449l7.936-0.934
			c0.206-0.023,0.376-0.173,0.427-0.375l1-4C24.023,14.471,23.99,14.313,23.895,14.192z M22.099,18.044l-7.721,0.909L13.39,15h9.469
			L22.099,18.044z M16.5,21c-0.827,0-1.5,0.673-1.5,1.5c0,0.827,0.673,1.5,1.5,1.5c0.827,0,1.5-0.673,1.5-1.5
			C18,21.673,17.327,21,16.5,21z M16.5,23c-0.275,0-0.5-0.225-0.5-0.5c0-0.275,0.225-0.5,0.5-0.5c0.275,0,0.5,0.225,0.5,0.5
			C17,22.775,16.775,23,16.5,23z M20.5,21c-0.827,0-1.5,0.673-1.5,1.5c0,0.827,0.673,1.5,1.5,1.5c0.827,0,1.5-0.673,1.5-1.5
			C22,21.673,21.327,21,20.5,21z M20.5,23c-0.275,0-0.5-0.225-0.5-0.5c0-0.275,0.225-0.5,0.5-0.5c0.275,0,0.5,0.225,0.5,0.5
			C21,22.775,20.775,23,20.5,23z"/>
	</g>
</g>
</svg>
