<?xml version="1.0" encoding="iso-8859-1"?>
<!-- Generator: Adobe Illustrator 19.0.0, SVG Export Plug-In . SVG Version: 6.00 Build 0)  -->
<svg version="1.1" id="Layer_1" xmlns="http://www.w3.org/2000/svg" xmlns:xlink="http://www.w3.org/1999/xlink" x="0px" y="0px"
	 viewBox="0 0 24 24" style="enable-background:new 0 0 24 24;" xml:space="preserve">
<g>
	<g>
		<path d="M12.5,22h8c0.276,0,0.5-0.224,0.5-0.5S20.776,21,20.5,21h-8c-0.276,0-0.5,0.224-0.5,0.5S12.224,22,12.5,22z M16,9.5
			c0,0.133,0.052,0.26,0.146,0.354L17,10.708V12.5c0,0.006,0.003,0.01,0.003,0.016c0.001,0.033,0.012,0.064,0.02,0.097
			c0.008,0.033,0.012,0.066,0.026,0.096c0.002,0.005,0.002,0.01,0.004,0.015l1,2C18.138,14.893,18.311,15,18.5,15h1.084
			C19.721,15.776,20,17.591,20,19.5c0,0.276,0.224,0.5,0.5,0.5s0.5-0.224,0.499-0.499c0-1.877-0.25-3.62-0.4-4.501H21.5
			c0.189,0,0.362-0.107,0.449-0.276l1-2c0.003-0.007,0.003-0.014,0.005-0.02c0.009-0.02,0.011-0.043,0.017-0.064
			c0.013-0.043,0.025-0.085,0.026-0.129c0-0.004,0.002-0.007,0.002-0.011v-1.792l0.854-0.854C23.947,9.76,24,9.633,24,9.5v-6
			C24,3.224,23.776,3,23.5,3H23V0.5C23,0.224,22.776,0,22.5,0h-5C17.224,0,17,0.224,17,0.5V3h-0.5C16.224,3,16,3.224,16,3.5V9.5z
			 M21.192,14.001H18.81L18.309,13h3.383L21.192,14.001z M22,12h-4v-1h4V12z M18,1h0.5v0.5C18.5,1.776,18.724,2,19,2
			s0.5-0.224,0.5-0.5V1H22v2h-4V1z M21,4v2h-2V4H21z M17,4h1v2.5C18,6.776,18.224,7,18.5,7h1C19.224,7,19,7.224,19,7.5
			S19.224,8,19.5,8h1C20.776,8,21,7.776,21,7.5S20.776,7,20.5,7h1C21.776,7,22,6.776,22,6.5V4h1v5.293L22.293,10h-4.586L17,9.293V4z
			 M12.5,20h6c0.276,0,0.5-0.224,0.5-0.5S18.776,19,18.5,19h-6c-0.276,0-0.5,0.224-0.5,0.5S12.224,20,12.5,20z M2,8.5
			C2,9.327,2.673,10,3.5,10C4.327,10,5,9.327,5,8.5C5,7.673,4.327,7,3.5,7C2.673,7,2,7.673,2,8.5z M4,8.5C4,8.776,3.776,9,3.5,9
			S3,8.776,3,8.5S3.224,8,3.5,8S4,8.224,4,8.5z M12.5,16h4c0.276,0,0.5-0.224,0.5-0.5S16.776,15,16.5,15h-4
			c-0.276,0-0.5,0.224-0.5,0.5S12.224,16,12.5,16z M2,20.5C2,21.327,2.673,22,3.5,22C4.327,22,5,21.327,5,20.5
			C5,19.673,4.327,19,3.5,19C2.673,19,2,19.673,2,20.5z M4,20.5C4,20.776,3.776,21,3.5,21S3,20.776,3,20.5S3.224,20,3.5,20
			S4,20.224,4,20.5z M2,14.5C2,15.327,2.673,16,3.5,16C4.327,16,5,15.327,5,14.5C5,13.673,4.327,13,3.5,13C2.673,13,2,13.673,2,14.5
			z M4,14.5C4,14.776,3.776,15,3.5,15S3,14.776,3,14.5S3.224,14,3.5,14S4,14.224,4,14.5z M12.5,14h3c0.276,0,0.5-0.224,0.5-0.5
			S15.776,13,15.5,13h-3c-0.276,0-0.5,0.224-0.5,0.5S12.224,14,12.5,14z M22.955,17.506C23.598,17.039,24,16.316,24,15.511v-0.538
			c0-0.276-0.224-0.5-0.5-0.5s-0.5,0.224-0.5,0.5v0.538c0,0.562-0.317,1.072-0.827,1.331c-0.246,0.125-0.344,0.425-0.219,0.672
			c0.007,0.013,0.021,0.018,0.029,0.031c-0.103,0.237-0.015,0.516,0.217,0.639c0.493,0.263,0.8,0.767,0.8,1.316v2
			c0,0.827-0.673,1.5-1.5,1.5h-19C1.672,23,1,22.327,1,21.5v-2c0-0.819,0.642-1.465,1.466-1.503C2.477,17.997,2.488,18,2.5,18h15
			c0.001,0,0.002-0.001,0.003-0.001L18.401,18c0.276,0,0.5-0.224,0.5-0.5s-0.224-0.5-0.5-0.5L2.525,16.99
			c-0.021,0-0.039,0.006-0.06,0.006C1.654,16.977,1,16.315,1,15.5v-2C1,12.673,1.673,12,2.5,12h13c0.276,0,0.5-0.224,0.5-0.5
			S15.776,11,15.5,11h-13C1.673,11,1,10.327,1,9.5v-2C1,6.673,1.673,6,2.5,6h12C14.776,6,15,5.776,15,5.5S14.776,5,14.5,5h-12
			C2.423,5,2.35,5.016,2.275,5.023l2.062-3.314c0.275-0.443,0.751-0.708,1.273-0.708H15.5c0.276,0,0.5-0.224,0.5-0.5
			s-0.224-0.5-0.5-0.5H5.611c-0.871,0-1.664,0.441-2.123,1.179L0.396,6.15C0.388,6.162,0.388,6.175,0.381,6.188
			C0.143,6.57,0,7.017,0,7.5v2c0,0.82,0.403,1.544,1.016,2C0.403,11.956,0,12.68,0,13.5v2c0,0.823,0.405,1.548,1.021,2.004
			C0.405,17.964,0,18.685,0,19.5v2C0,22.878,1.122,24,2.5,24h19c1.378,0,2.5-1.122,2.501-2.5v-2
			C24,18.699,23.597,17.973,22.955,17.506z"/>
	</g>
</g>
</svg>
