<?xml version="1.0" encoding="iso-8859-1"?>
<!-- Generator: Adobe Illustrator 19.0.0, SVG Export Plug-In . SVG Version: 6.00 Build 0)  -->
<svg version="1.1" id="Layer_1" xmlns="http://www.w3.org/2000/svg" xmlns:xlink="http://www.w3.org/1999/xlink" x="0px" y="0px"
	 viewBox="0 0 24 24" style="enable-background:new 0 0 24 24;" xml:space="preserve">
<g>
	<g>
		<path d="M21,11.795V10.5c0-0.276-0.224-0.5-0.5-0.5S20,10.224,20,10.5v1.295c0,0.276,0.224,0.5,0.5,0.5S21,12.071,21,11.795z
			 M17,11.795V10.5c0-0.276-0.224-0.5-0.5-0.5S16,10.224,16,10.5v1.295c0,0.276,0.224,0.5,0.5,0.5S17,12.071,17,11.795z M19,11.5v-1
			c0-0.276-0.224-0.5-0.5-0.5S18,10.224,18,10.5v1c0,0.276,0.224,0.5,0.5,0.5S19,11.776,19,11.5z M21.145,16.147l-3.646,3.646
			l-1.646-1.646c-0.195-0.195-0.512-0.195-0.707,0s-0.195,0.512,0,0.707l2,2C17.244,20.951,17.372,21,17.5,21
			s0.256-0.049,0.352-0.146l4-4c0.195-0.195,0.195-0.512,0-0.707C21.657,15.952,21.34,15.952,21.145,16.147z M15,12.5v-2
			c0-0.276-0.224-0.5-0.5-0.5S14,10.224,14,10.5v2c0,0.276,0.224,0.5,0.5,0.5S15,12.776,15,12.5z M18.5,13
			c-3.032,0-5.5,2.467-5.5,5.5s2.468,5.5,5.5,5.5s5.5-2.467,5.5-5.5S21.532,13,18.5,13z M18.5,23c-2.481,0-4.5-2.019-4.5-4.5
			s2.019-4.5,4.5-4.5s4.5,2.019,4.5,4.5S20.981,23,18.5,23z M16.5,2C16.224,2,16,2.224,16,2.5v2C16,4.776,16.224,5,16.5,5
			S17,4.776,17,4.5v-2C17,2.224,16.776,2,16.5,2z M21.5,7C22.879,7,24,5.878,24,4.5v-2C24,1.122,22.879,0,21.5,0h-19
			C1.121,0,0,1.122,0,2.5v2C0,5.878,1.121,7,2.5,7H9v1H2.5C1.121,8,0,9.122,0,10.5v2C0,13.878,1.121,15,2.5,15H9v1H8.5
			C8.224,16,8,16.224,8,16.5V17H7.5C7.224,17,7,17.224,7,17.5V18H2.5C2.224,18,2,18.224,2,18.5S2.224,19,2.5,19H7v0.5
			C7,19.776,7.224,20,7.5,20h4c0.276,0,0.5-0.224,0.5-0.5v-2c0-0.276-0.224-0.5-0.5-0.5H11v-0.5c0-0.276-0.224-0.5-0.5-0.5H10v-1
			h2.764c0.276,0,0.5-0.223,0.5-0.499s-0.224-0.5-0.5-0.5H9.505C9.503,14.001,9.502,14,9.5,14s-0.003,0.001-0.005,0.001H2.5
			c-0.827,0-1.5-0.673-1.5-1.5v-2c0-0.827,0.673-1.5,1.5-1.5h19c0.827,0,1.5,0.673,1.5,1.5v2c0,0.225-0.057,0.451-0.169,0.672
			c-0.125,0.246-0.026,0.547,0.22,0.672c0.248,0.125,0.547,0.027,0.673-0.22C23.907,13.263,24,12.884,24,12.5v-2
			C24,9.122,22.879,8,21.5,8H10V7H21.5z M10,17v0.5c0,0.276,0.224,0.5,0.5,0.5H11v1H8v-1h0.5C8.776,18,9,17.776,9,17.5V17H10z
			 M2.5,6C1.673,6,1,5.327,1,4.5v-2C1,1.673,1.673,1,2.5,1h19C22.327,1,23,1.673,23,2.5v2C23,5.327,22.327,6,21.5,6H2.5z M2,11.5
			C2,12.327,2.673,13,3.5,13C4.327,13,5,12.327,5,11.5S4.327,10,3.5,10C2.673,10,2,10.673,2,11.5z M4,11.5C4,11.776,3.775,12,3.5,12
			C3.225,12,3,11.776,3,11.5S3.225,11,3.5,11C3.775,11,4,11.224,4,11.5z M20.5,2C20.224,2,20,2.224,20,2.5v2
			C20,4.776,20.224,5,20.5,5S21,4.776,21,4.5v-2C21,2.224,20.776,2,20.5,2z M18.5,2C18.224,2,18,2.224,18,2.5v2
			C18,4.776,18.224,5,18.5,5S19,4.776,19,4.5v-2C19,2.224,18.776,2,18.5,2z M14.5,2C14.224,2,14,2.224,14,2.5v2
			C14,4.776,14.224,5,14.5,5S15,4.776,15,4.5v-2C15,2.224,14.776,2,14.5,2z M3.5,2C2.673,2,2,2.673,2,3.5S2.673,5,3.5,5
			C4.327,5,5,4.327,5,3.5S4.327,2,3.5,2z M3.5,4C3.225,4,3,3.776,3,3.5S3.225,3,3.5,3C3.775,3,4,3.224,4,3.5S3.775,4,3.5,4z"/>
	</g>
</g>
</svg>
