<?xml version="1.0" encoding="iso-8859-1"?>
<!-- Generator: Adobe Illustrator 19.0.0, SVG Export Plug-In . SVG Version: 6.00 Build 0)  -->
<svg version="1.1" id="Layer_1" xmlns="http://www.w3.org/2000/svg" xmlns:xlink="http://www.w3.org/1999/xlink" x="0px" y="0px"
	 viewBox="0 0 24 24" style="enable-background:new 0 0 24 24;" xml:space="preserve">
<g>
	<g>
		<path d="M23.5,16c0-1.215-1.929-1.861-4-1.951V12.5c0-0.276-0.224-0.5-0.5-0.5h-6.5v-1.001l4.501-0.001c0.276,0,0.5-0.224,0.5-0.5
			c0-1.254-0.849-2.341-2.065-2.645l-1.501-0.375l-0.063-0.251c0.389-0.43,0.666-0.979,0.781-1.549c0.267-0.138,0.46-0.4,0.5-0.715
			l0.108-0.87c0.033-0.264-0.048-0.53-0.223-0.73c-0.054-0.061-0.116-0.115-0.182-0.16l0.025-0.531l0.091-0.091
			c0.258-0.274,0.607-0.859,0.055-1.703c-0.262-0.401-0.802-0.879-1.884-0.879c-0.318,0-1.037,0-1.735,0.438
			c-2.058,0.073-2.3,1.182-2.3,2.019c0,0.165,0.03,0.474,0.058,0.732C9.092,3.235,9.024,3.293,8.965,3.36
			c-0.178,0.202-0.26,0.469-0.226,0.734l0.108,0.87C8.888,5.29,9.095,5.56,9.4,5.693c0.112,0.545,0.374,1.073,0.739,1.492
			l-0.073,0.294L8.565,7.854C7.35,8.159,6.5,9.246,6.5,10.5c0,0.133,0.052,0.261,0.146,0.354S6.867,11,7,11L11.5,11V12H5
			c-0.276,0-0.5,0.224-0.5,0.5v1.549c-2.071,0.091-4,0.736-4,1.951c0,0.018,0.01,0.033,0.011,0.051
			C0.509,16.071,0.5,16.088,0.5,16.107v5.786C0.5,23.341,2.833,24,5,24s4.5-0.659,4.5-2.107v-5.786c0-0.02-0.009-0.037-0.011-0.056
			C9.49,16.034,9.5,16.019,9.5,16c0-1.215-1.929-1.861-4-1.951V13h13v1.049c-2.071,0.091-4,0.736-4,1.951
			c0,0.018,0.01,0.033,0.011,0.051c-0.002,0.019-0.011,0.036-0.011,0.056v5.786C14.5,23.341,16.833,24,19,24s4.5-0.659,4.5-2.107
			v-5.786c0-0.02-0.009-0.037-0.011-0.056C23.49,16.034,23.5,16.019,23.5,16z M8.5,21.893C8.5,22.344,7.137,23,5,23
			c-2.137,0-3.5-0.656-3.5-1.107v-0.64C2.368,21.743,3.683,22,5,22s2.632-0.258,3.5-0.747V21.893z M8.5,19.893
			C8.5,20.284,7.171,21,5,21s-3.5-0.717-3.5-1.107v-0.569c0.868,0.489,2.183,0.747,3.5,0.747s2.632-0.258,3.5-0.747V19.893z
			 M8.5,17.964c0,0.39-1.329,1.107-3.5,1.107s-3.5-0.717-3.5-1.107v-0.673C2.368,17.756,3.683,18,5,18s2.632-0.245,3.5-0.709V17.964
			z M8.5,16c0,0.29-1.227,1-3.5,1s-3.5-0.71-3.5-1s1.227-1,3.5-1S8.5,15.711,8.5,16z M7.573,9.999
			C7.745,9.43,8.206,8.975,8.81,8.823l1.792-0.448c0.179-0.045,0.319-0.185,0.364-0.364l0.213-0.853
			c0.044-0.176-0.011-0.362-0.144-0.486c-0.389-0.366-0.647-0.901-0.689-1.431c-0.021-0.259-0.243-0.403-0.504-0.403L9.713,4.042
			c0.144,0,0.28-0.061,0.375-0.169c0.095-0.107,0.139-0.25,0.121-0.393c-0.038-0.302-0.099-0.848-0.099-1.024
			c0-0.518,0-1.007,1.462-1.022c0.102-0.001,0.202-0.033,0.286-0.093C12.334,1,12.882,1,13.145,1c0.517,0,0.859,0.139,1.047,0.426
			c0.203,0.311,0.12,0.399,0.064,0.46l-0.217,0.217c-0.088,0.088-0.14,0.205-0.146,0.329L13.84,3.521
			c-0.006,0.136,0.01,0.231,0.103,0.33c0.094,0.099,0.19,0.119,0.326,0.12l-0.064,0.813c-0.261,0-0.477,0.2-0.498,0.46
			c-0.044,0.539-0.321,1.098-0.723,1.459c-0.137,0.123-0.196,0.313-0.151,0.493l0.204,0.817c0.045,0.179,0.184,0.32,0.364,0.364
			l1.792,0.448C15.795,8.975,16.255,9.43,16.427,10L7.573,9.999z M22.5,21.893C22.5,22.344,21.137,23,19,23
			c-2.137,0-3.5-0.656-3.5-1.107v-0.64C16.368,21.743,17.683,22,19,22s2.632-0.258,3.5-0.747V21.893z M22.5,19.893
			C22.5,20.284,21.171,21,19,21s-3.5-0.717-3.5-1.107v-0.569c0.868,0.489,2.183,0.747,3.5,0.747s2.632-0.258,3.5-0.747V19.893z
			 M22.5,17.964c0,0.39-1.329,1.107-3.5,1.107s-3.5-0.717-3.5-1.107v-0.673C16.368,17.756,17.683,18,19,18s2.632-0.245,3.5-0.709
			V17.964z M19,17c-2.273,0-3.5-0.71-3.5-1s1.227-1,3.5-1s3.5,0.71,3.5,1S21.273,17,19,17z"/>
	</g>
</g>
</svg>
