<?xml version="1.0" encoding="iso-8859-1"?>
<!-- Generator: Adobe Illustrator 19.0.0, SVG Export Plug-In . SVG Version: 6.00 Build 0)  -->
<svg version="1.1" id="Layer_1" xmlns="http://www.w3.org/2000/svg" xmlns:xlink="http://www.w3.org/1999/xlink" x="0px" y="0px"
	 viewBox="0 0 30 30" style="enable-background:new 0 0 30 30;" xml:space="preserve">
<g>
	<g>
		<path d="M14.5,7.5V0.541C12.269,0.887,10.219,3.525,9.005,7.5H14.5z M15.5,0.541V7.5h5.495C19.781,3.525,17.731,0.887,15.5,0.541z
			 M7.955,22.5H2.614c1.985,3.265,5.215,5.684,9.033,6.593C10.107,27.737,8.812,25.456,7.955,22.5z M22.045,7.5h5.341
			c-1.985-3.265-5.215-5.684-9.033-6.593C19.893,2.263,21.188,4.544,22.045,7.5z M11.647,0.907C7.829,1.816,4.599,4.235,2.614,7.5
			h5.341C8.812,4.544,10.107,2.263,11.647,0.907z M24.5,15c0-0.276,0.224-0.5,0.5-0.5h4.47c-0.076-2.15-0.611-4.184-1.527-6H22.31
			c0.105,0.428,0.203,0.864,0.289,1.315c0.052,0.271-0.126,0.533-0.397,0.585c-0.032,0.006-0.063,0.009-0.095,0.009
			c-0.235,0-0.445-0.167-0.491-0.406c-0.1-0.519-0.216-1.017-0.341-1.503H15.5v1.409c0,0.276-0.224,0.5-0.5,0.5s-0.5-0.224-0.5-0.5
			V8.5H8.724c-0.125,0.487-0.242,0.984-0.341,1.503C8.331,10.274,8.07,10.451,7.798,10.4c-0.271-0.052-0.449-0.314-0.397-0.585
			C7.488,9.364,7.586,8.928,7.69,8.5H2.057c-0.916,1.816-1.451,3.85-1.527,6H5c0.276,0,0.5,0.224,0.5,0.5S5.276,15.5,5,15.5H0.53
			c0.076,2.15,0.611,4.184,1.527,6H7.69c-0.105-0.428-0.203-0.864-0.289-1.315c-0.052-0.271,0.126-0.533,0.397-0.585
			s0.534,0.125,0.585,0.397c0.1,0.519,0.216,1.017,0.341,1.503H14.5v-1.409c0-0.276,0.224-0.5,0.5-0.5s0.5,0.224,0.5,0.5V21.5h5.776
			c0.125-0.487,0.242-0.984,0.341-1.503c0.052-0.271,0.317-0.443,0.585-0.397c0.271,0.052,0.449,0.314,0.397,0.585
			c-0.087,0.451-0.185,0.887-0.289,1.315h5.633c0.916-1.816,1.451-3.85,1.527-6H25C24.724,15.5,24.5,15.276,24.5,15z M9.066,14.504
			c1.498,0.172,2.434,0.937,2.434,1.996c0,1.103-1.122,2-2.5,2c-1.402,0-2.5-0.747-2.5-1.7c0-0.276,0.224-0.5,0.5-0.5
			s0.5,0.224,0.5,0.5c0,0.286,0.584,0.7,1.5,0.7c0.813,0,1.5-0.458,1.5-1c0-0.608-0.804-0.917-1.557-1.003
			C7.433,15.296,6.5,14.532,6.5,13.5c0-1.103,1.122-2,2.5-2c1.402,0,2.5,0.747,2.5,1.7c0,0.276-0.224,0.5-0.5,0.5
			s-0.5-0.224-0.5-0.5c0-0.286-0.584-0.7-1.5-0.7c-0.813,0-1.5,0.458-1.5,1C7.5,14.05,8.287,14.4,9.066,14.504z M16.5,14.5
			c0.276,0,0.5,0.224,0.5,0.5s-0.224,0.5-0.5,0.5h-3v2H17c0.276,0,0.5,0.224,0.5,0.5s-0.224,0.5-0.5,0.5h-4
			c-0.276,0-0.5-0.224-0.5-0.5v-6c0-0.276,0.224-0.5,0.5-0.5h4c0.276,0,0.5,0.224,0.5,0.5s-0.224,0.5-0.5,0.5h-3.5v2H16.5z M23.5,16
			c0,1.378-1.122,2.5-2.5,2.5s-2.5-1.122-2.5-2.5v-2c0-1.378,1.122-2.5,2.5-2.5s2.5,1.122,2.5,2.5V16z M21,12.5
			c-0.827,0-1.5,0.673-1.5,1.5v2c0,0.827,0.673,1.5,1.5,1.5c0.827,0,1.5-0.673,1.5-1.5v-2C22.5,13.173,21.827,12.5,21,12.5z
			 M18.353,29.093c3.818-0.909,7.048-3.328,9.033-6.593h-5.341C21.188,25.456,19.893,27.737,18.353,29.093z M14.5,29.459V22.5H9.005
			C10.219,26.475,12.269,29.113,14.5,29.459z M15.5,22.5v6.959c2.231-0.346,4.281-2.984,5.495-6.959H15.5z"/>
	</g>
</g>
</svg>
