<?xml version="1.0" encoding="iso-8859-1"?>
<!-- Generator: Adobe Illustrator 19.0.0, SVG Export Plug-In . SVG Version: 6.00 Build 0)  -->
<svg version="1.1" id="Layer_1" xmlns="http://www.w3.org/2000/svg" xmlns:xlink="http://www.w3.org/1999/xlink" x="0px" y="0px"
	 viewBox="0 0 30 30" style="enable-background:new 0 0 30 30;" xml:space="preserve">
<g>
	<g>
		<path d="M6.724,21.948l2.553-1.276l0.776,1.553c0.088,0.175,0.265,0.276,0.447,0.276c0.075,0,0.151-0.017,0.224-0.053l2-1
			c0.247-0.124,0.347-0.424,0.224-0.671l-0.776-1.553l2.553-1.276c0.155-0.078,0.259-0.23,0.274-0.402
			c0.016-0.173-0.06-0.341-0.198-0.445l-8.001-6c-0.151-0.114-0.354-0.132-0.523-0.047c-0.169,0.085-0.276,0.258-0.276,0.447v10
			c0,0.173,0.09,0.334,0.237,0.425C6.384,22.016,6.569,22.024,6.724,21.948z M26.978,1H3.022C1.355,1,0,2.378,0,4.071v21.857
			c0,1.693,1.355,3.071,3.022,3.071h23.956c1.667,0,3.022-1.378,3.022-3.071V4.071C30,2.378,28.645,1,26.978,1z M7.5,3
			C7.776,3,8,3.224,8,3.5S7.776,4,7.5,4S7,3.776,7,3.5S7.224,3,7.5,3z M5.5,3C5.776,3,6,3.224,6,3.5S5.776,4,5.5,4S5,3.776,5,3.5
			S5.224,3,5.5,3z M3.5,3C3.776,3,4,3.224,4,3.5S3.776,4,3.5,4S3,3.776,3,3.5S3.224,3,3.5,3z M29,25.93
			C29,27.071,28.093,28,26.978,28H3.022C1.907,28,1,27.071,1,25.93V6h28V25.93z M19,16.922v3.042
			c-1.132-0.165-1.941-0.87-2.002-1.511c-0.027-0.275-0.276-0.477-0.546-0.45c-0.274,0.026-0.477,0.27-0.45,0.545
			c0.117,1.225,1.418,2.234,2.998,2.415V21.5c0,0.276,0.224,0.5,0.5,0.5s0.5-0.224,0.5-0.5v-0.535c1.715-0.17,3-1.186,3-2.465
			c0-1.753-2.021-2.247-3-2.422v-3.042c1.132,0.165,1.941,0.87,2.002,1.511c0.027,0.276,0.281,0.484,0.546,0.45
			c0.274-0.026,0.477-0.27,0.45-0.545c-0.117-1.225-1.418-2.234-2.998-2.415V11.5c0-0.276-0.224-0.5-0.5-0.5S19,11.224,19,11.5
			v0.535c-1.715,0.17-3,1.186-3,2.465C16,16.25,18.017,16.745,19,16.922z M20,17.099c0.774,0.155,2,0.513,2,1.402
			c0,0.711-0.875,1.324-2,1.468V17.099z M19,13.032v2.87c-0.775-0.155-2-0.513-2-1.402C17,13.79,17.875,13.176,19,13.032z"/>
	</g>
</g>
</svg>
