<?xml version="1.0" encoding="iso-8859-1"?>
<!-- Generator: Adobe Illustrator 19.0.0, SVG Export Plug-In . SVG Version: 6.00 Build 0)  -->
<svg version="1.1" id="Layer_1" xmlns="http://www.w3.org/2000/svg" xmlns:xlink="http://www.w3.org/1999/xlink" x="0px" y="0px"
	 viewBox="0 0 30 30" style="enable-background:new 0 0 30 30;" xml:space="preserve">
<g>
	<g>
		<path d="M16.354,12.646C17.059,11.784,17.5,10.698,17.5,9.5c0-2.757-2.243-5-5-5s-5,2.243-5,5c0,2.757,2.243,5,5,5
			c1.198,0,2.284-0.441,3.146-1.146l4,4C19.744,17.451,19.872,17.5,20,17.5s0.256-0.049,0.354-0.146
			c0.195-0.195,0.195-0.512,0-0.707L16.354,12.646z M12.5,13.5c-2.206,0-4-1.794-4-4s1.794-4,4-4s4,1.794,4,4S14.706,13.5,12.5,13.5
			z M26.454,0.5H3.546C1.866,0.5,0.5,1.87,0.5,3.555v17.889c0,1.685,1.366,3.056,3.046,3.056H13.5v1H9c-1.93,0-3.5,1.57-3.5,3.5
			c0,0.276,0.224,0.5,0.5,0.5h18c0.276,0,0.5-0.224,0.5-0.5c0-1.93-1.57-3.5-3.5-3.5h-4.5v-1h9.954c1.68,0,3.046-1.371,3.046-3.056
			V3.555C29.5,1.87,28.134,0.5,26.454,0.5z M15.5,25.5h-1v-1h1V25.5z M28.5,19.5h-27V3.555C1.5,2.422,2.418,1.5,3.546,1.5h22.908
			c1.128,0,2.046,0.922,2.046,2.056V19.5z"/>
	</g>
</g>
</svg>
