<?xml version="1.0" encoding="iso-8859-1"?>
<!-- Generator: Adobe Illustrator 19.0.0, SVG Export Plug-In . SVG Version: 6.00 Build 0)  -->
<svg version="1.1" xmlns="http://www.w3.org/2000/svg" xmlns:xlink="http://www.w3.org/1999/xlink" x="0px" y="0px"
	 viewBox="3 -3 30 30" style="enable-background:new 3 -3 30 30;" xml:space="preserve">
<g id="Layer_1">
</g>
<g id="Search_Flash">
	<g>
		<g>
			<path d="M32.707,25.293l-8.552-8.552C25.926,14.649,27,11.949,27,9c0-6.617-5.383-12-12-12S3,2.383,3,9s5.383,12,12,12
				c2.949,0,5.649-1.074,7.741-2.845l8.552,8.552C31.488,26.902,31.744,27,32,27s0.512-0.098,0.707-0.293
				C33.098,26.316,33.098,25.684,32.707,25.293z M15,19C9.486,19,5,14.514,5,9S9.486-1,15-1S25,3.486,25,9S20.514,19,15,19z
				 M19.621,2.015l-4-1c-0.148-0.037-0.307-0.003-0.429,0.091C15.071,1.201,15,1.346,15,1.5v5.306l-2.342-0.78
				c-0.134-0.046-0.281-0.031-0.405,0.039c-0.123,0.07-0.211,0.188-0.242,0.327l-2,9c-0.05,0.227,0.063,0.459,0.272,0.56
				C10.353,15.984,10.427,16,10.5,16c0.148,0,0.293-0.066,0.391-0.188l3.782-4.728l2.669,0.89c0.135,0.046,0.281,0.031,0.405-0.039
				c0.123-0.07,0.211-0.188,0.242-0.327l2-9C20.047,2.344,19.884,2.081,19.621,2.015z"/>
		</g>
	</g>
</g>
</svg>
