<?xml version="1.0" encoding="iso-8859-1"?>
<!-- Generator: Adobe Illustrator 19.0.0, SVG Export Plug-In . SVG Version: 6.00 Build 0)  -->
<svg version="1.1" id="Layer_1" xmlns="http://www.w3.org/2000/svg" xmlns:xlink="http://www.w3.org/1999/xlink" x="0px" y="0px"
	 viewBox="0 0 30 30" style="enable-background:new 0 0 30 30;" xml:space="preserve">
<g>
	<g>
		<path d="M15,0C8.213,0,1,1.752,1,5c0,0.695,0.347,1.318,0.933,1.874L12,18.684V29.5c0,0.192,0.11,0.367,0.283,0.451
			C12.352,29.984,12.426,30,12.5,30c0.111,0,0.222-0.037,0.313-0.109l5-4c0.119-0.095,0.188-0.239,0.188-0.391v-6.816L28.059,6.882
			C28.65,6.324,29,5.699,29,5C29,1.752,21.787,0,15,0z M15,9C7.339,9,2,6.892,2,5c0-1.892,5.339-4,13-4s13,2.108,13,4
			C28,6.892,22.661,9,15,9z"/>
	</g>
</g>
</svg>
