<?xml version="1.0" encoding="iso-8859-1"?>
<!-- Generator: Adobe Illustrator 19.0.0, SVG Export Plug-In . SVG Version: 6.00 Build 0)  -->
<svg version="1.1" id="Layer_1" xmlns="http://www.w3.org/2000/svg" xmlns:xlink="http://www.w3.org/1999/xlink" x="0px" y="0px"
	 viewBox="0 0 24 24" style="enable-background:new 0 0 24 24;" xml:space="preserve">
<g>
	<g>
		<path d="M14.794,3h-10c-0.276,0-0.5-0.224-0.5-0.5S4.518,2,4.794,2h10c0.276,0,0.5,0.224,0.5,0.5S15.071,3,14.794,3z"/>
	</g>
	<g>
		<path d="M12.794,5c-0.128,0-0.256-0.049-0.354-0.146c-0.195-0.195-0.195-0.512,0-0.707L14.087,2.5l-1.646-1.646
			c-0.195-0.195-0.195-0.512,0-0.707s0.512-0.195,0.707,0l2,2c0.195,0.195,0.195,0.512,0,0.707l-2,2C13.05,4.951,12.922,5,12.794,5z
			"/>
	</g>
	<g>
		<path d="M10.363,24c-1.467,0-2.847-0.571-3.884-1.609l-1.573-1.573c-1.039-1.039-1.611-2.42-1.611-3.889V7.5
			c0-0.827,0.673-1.5,1.5-1.5c1.103,0,2.051,0.823,2.207,1.914l0.634,4.038l6.808-6.808c0.745-0.745,1.956-0.745,2.701,0
			c0.241,0.24,0.404,0.528,0.491,0.833c0.747-0.571,1.823-0.513,2.506,0.17c0.75,0.75,0.75,1.962,0.006,2.707l-3.769,3.77
			c0.295,0.087,0.574,0.247,0.807,0.48c0.689,0.689,0.746,1.768,0.173,2.516c0.304,0.084,0.589,0.246,0.827,0.484
			c0.75,0.75,0.75,1.962,0.006,2.707l-4.132,3.76C13.046,23.492,11.733,24,10.363,24z M4.794,7c-0.276,0-0.5,0.224-0.5,0.5v9.429
			c0,1.202,0.468,2.332,1.318,3.182l1.573,1.573C8.034,22.533,9.163,23,10.363,23c1.121,0,2.195-0.416,3.024-1.169l4.115-3.744
			c0.338-0.339,0.338-0.916-0.017-1.271c-0.355-0.355-0.949-0.35-1.293-0.006l-0.043,0.043c-0.195,0.195-0.512,0.195-0.707,0
			c-0.194-0.194-0.195-0.508-0.003-0.704c0.001-0.001,0.003-0.002,0.003-0.003l1.043-1.043c0.355-0.355,0.355-0.932,0-1.287
			c-0.361-0.361-0.938-0.36-1.293-0.006l-1.043,1.043c-0.195,0.195-0.512,0.195-0.707,0c-0.098-0.098-0.146-0.226-0.146-0.354
			s0.049-0.256,0.146-0.354l6-6c0.355-0.355,0.355-0.932,0-1.287c-0.361-0.361-0.938-0.361-1.293-0.006l-6,6
			c-0.195,0.195-0.512,0.195-0.707,0c-0.098-0.098-0.146-0.226-0.146-0.354s0.049-0.256,0.146-0.354l5.003-5.003
			c0.355-0.355,0.355-0.932,0-1.287c-0.361-0.361-0.938-0.36-1.293-0.006l-7.503,7.503c-0.133,0.132-0.33,0.18-0.508,0.122
			c-0.179-0.059-0.31-0.212-0.339-0.398L6.012,8.063C5.925,7.454,5.402,7,4.794,7z"/>
	</g>
</g>
<g>
</g>
<g>
</g>
<g>
</g>
<g>
</g>
<g>
</g>
<g>
</g>
<g>
</g>
<g>
</g>
<g>
</g>
<g>
</g>
<g>
</g>
<g>
</g>
<g>
</g>
<g>
</g>
<g>
</g>
</svg>
