<?xml version="1.0" encoding="utf-8"?>
<!-- Generator: Adobe Illustrator 19.0.0, SVG Export Plug-In . SVG Version: 6.00 Build 0)  -->
<svg version="1.1" id="Layer_1" xmlns="http://www.w3.org/2000/svg" xmlns:xlink="http://www.w3.org/1999/xlink" x="0px" y="0px"
	 viewBox="-236 286 30 30" style="enable-background:new -236 286 30 30;" xml:space="preserve">
<g>
	<path d="M-221.5,296.3c-0.1-0.4-0.8-0.4-0.9,0l-3,8c-0.1,0.3,0,0.5,0.3,0.6c0.3,0.1,0.5,0,0.6-0.3l0.6-1.7h3.8l0.6,1.7
		c0.1,0.2,0.3,0.3,0.5,0.3c0.1,0,0.1,0,0.2,0c0.3-0.1,0.4-0.4,0.3-0.6L-221.5,296.3z M-223.5,302l1.5-4.1l1.5,4.1H-223.5z"/>
	<path d="M-217.5,296.5v8c0,0.3,0.2,0.5,0.5,0.5s0.5-0.2,0.5-0.5v-8c0-0.3-0.2-0.5-0.5-0.5S-217.5,296.2-217.5,296.5z"/>
	<path d="M-214.5,296.5v8c0,0.3,0.2,0.5,0.5,0.5s0.5-0.2,0.5-0.5V301h2.5c0.3,0,0.5-0.2,0.5-0.5s-0.2-0.5-0.5-0.5h-2.5v-3h3.5
		c0.3,0,0.5-0.2,0.5-0.5s-0.2-0.5-0.5-0.5h-4C-214.3,296-214.5,296.2-214.5,296.5z"/>
	<path d="M-220,312h-11.5v-18h6.5c0.3,0,0.5-0.2,0.5-0.5V287h13v7.5c0,0.3,0.2,0.5,0.5,0.5s0.5-0.2,0.5-0.5v-8
		c0-0.3-0.2-0.5-0.5-0.5h-14c-0.1,0-0.1,0-0.2,0c0,0,0,0-0.1,0c0,0-0.1,0-0.1,0.1l-7,7c0,0,0,0.1-0.1,0.1c0,0,0,0-0.1,0.1
		c0,0.1,0,0.1,0,0.2v19c0,0.3,0.2,0.5,0.5,0.5h12c0.3,0,0.5-0.2,0.5-0.5S-219.7,312-220,312z M-230.8,293l5.3-5.3v5.3H-230.8z"/>
	<path d="M-210.1,307l-5,1c-0.2,0-0.4,0.3-0.4,0.5v5.7c-0.2,0-0.3-0.1-0.5-0.1c-0.9,0-1.5,0.4-1.5,0.9c0,0.5,0.6,0.9,1.5,0.9
		c0.8,0,1.3-0.3,1.4-0.7c0-0.1,0.1-0.2,0.1-0.2v-6.2l4-0.8v4.9c-0.2,0-0.3-0.1-0.5-0.1c-0.9,0-1.5,0.4-1.5,1c0,0.6,0.6,1,1.5,1
		c0.9,0,1.5-0.4,1.5-1c0,0,0,0,0,0v-6.5c0-0.2-0.1-0.3-0.2-0.4C-209.8,307-210,307-210.1,307z"/>
</g>
</svg>
