<?xml version="1.0" encoding="utf-8"?>
<!-- Generator: Adobe Illustrator 19.0.0, SVG Export Plug-In . SVG Version: 6.00 Build 0)  -->
<svg version="1.1" id="Layer_1" xmlns="http://www.w3.org/2000/svg" xmlns:xlink="http://www.w3.org/1999/xlink" x="0px" y="0px"
	 viewBox="-236 286 30 30" style="enable-background:new -236 286 30 30;" xml:space="preserve">
<path d="M-209.1,286h-2c-0.2,0-0.3,0.1-0.4,0.2l-2.2,3l-0.1-0.1c-0.2-0.2-0.5-0.2-0.7,0l-5.1,5.1l-1.1-1.1c-0.2-0.2-0.5-0.2-0.7,0
	l-5,5c-0.9,0.9-1.1,2.1-0.7,3.2l-0.8,0.8c-0.7,0.7-0.7,1.9-0.1,2.6l-2.4,2.4c0,0,0,0,0,0l-2,2c-1.7,1.7-1,4.2,0.5,5.7
	c0.8,0.8,1.7,1.1,2.5,1.1c1,0,2-0.5,2.7-1.1l10-10c1-1,3-1.2,4.3,0c1.2,1.4,1.2,3.1,0,4.3l-5,5c-0.2,0.2-0.2,0.5,0,0.7
	c0.2,0.2,0.5,0.2,0.7,0l5-5c1.6-1.6,1.6-3.9,0-5.7c-1.8-1.6-4.4-1.3-5.7,0l-10,10c-0.9,0.9-2.4,1.4-3.8,0c-1.2-1.2-1.7-3.1-0.5-4.3
	l2-2c0,0,0,0,0,0l2.4-2.4c0.3,0.3,0.8,0.4,1.2,0.4c0.5,0,1-0.2,1.4-0.5l0.8-0.8c0.3,0.1,0.7,0.2,1.1,0.2c0.8,0,1.5-0.3,2.1-0.9l5-5
	c0.2-0.2,0.2-0.5,0-0.7l-0.6-0.6l5.1-5.1c0.2-0.2,0.2-0.5,0-0.7l-0.1-0.1l2.6-2.6c0.1-0.1,0.1-0.2,0.1-0.4v-2
	C-208.6,286.2-208.8,286-209.1,286z M-224.8,304l-0.6,0.6c-0.3,0.3-1,0.3-1.3,0l-0.5-0.5c-0.1-0.1-0.2-0.4-0.2-0.6s0.1-0.5,0.2-0.6
	l0.6-0.6l0.1,0.1c0,0,0,0,0,0l1.5,1.5c0,0,0,0,0,0L-224.8,304z M-221.4,303.2c-0.8,0.8-2,0.8-2.8,0l-1.5-1.5c-0.8-0.8-0.8-2,0-2.8
	l4.6-4.6l1.1,1.1c0,0,0,0,0,0l2.5,2.5c0,0,0,0,0,0l0.6,0.6L-221.4,303.2z M-217.1,296.8l-1.8-1.8l4.8-4.8l0.1,0.1c0,0,0,0,0,0
	l1.5,1.5c0,0,0,0,0,0l0.1,0.1L-217.1,296.8z M-209.6,288.3l-2.5,2.5l-0.8-0.8l2.1-2.9h1.2V288.3z"/>
</svg>
