<?xml version="1.0" encoding="utf-8"?>
<!-- Generator: Adobe Illustrator 19.0.0, SVG Export Plug-In . SVG Version: 6.00 Build 0)  -->
<svg version="1.1" id="Layer_1" xmlns="http://www.w3.org/2000/svg" xmlns:xlink="http://www.w3.org/1999/xlink" x="0px" y="0px"
	 viewBox="-236 286 30 30" style="enable-background:new -236 286 30 30;" xml:space="preserve">
<g>
	<path d="M-223.4,303.6l-2.5,2.5c-0.1,0.1-0.1,0.2-0.1,0.4v1.5c0,0.3,0.2,0.5,0.5,0.5s0.5-0.2,0.5-0.5v-1.3l2.4-2.4
		c0.2-0.2,0.2-0.5,0-0.7S-223.2,303.5-223.4,303.6z"/>
	<path d="M-223.6,302.6c-0.2-0.2-0.5-0.2-0.7,0l-2.4,2.4h-1.3c-0.3,0-0.5,0.2-0.5,0.5s0.2,0.5,0.5,0.5h1.5c0.1,0,0.3-0.1,0.4-0.1
		l2.5-2.5C-223.5,303.2-223.5,302.8-223.6,302.6z"/>
	<path d="M-206.1,287.1l-1-1c-0.1-0.1-0.4-0.2-0.5-0.1c-0.2,0.1-0.3,0.3-0.3,0.5c0,0.2-0.3,0.3-0.9,0.4c-0.8,0.2-2,0.5-2.1,1.8
		l-0.8,0.8l-0.4-0.4c-0.2-0.2-0.5-0.2-0.7,0c-0.2,0.2-0.2,0.5,0,0.7l0.4,0.4l-0.3,0.3l-0.4-0.4c-0.2-0.2-0.5-0.2-0.7,0
		c-0.2,0.2-0.2,0.5,0,0.7l0.3,0.3l-4.8,4.6c-1-0.5-2-0.8-3.1-0.8c-2.1,0-4.1,1-5.3,2.8c-0.1,0.2-0.1,0.5,0.1,0.7
		c0.5,0.4,0.7,0.9,0.7,1.5c0,0.2,0,0.5-0.1,0.7c-0.2,0.6-0.8,1.1-1.4,1.2c-0.2,0-0.3,0.1-0.5,0.1c-0.8,0-1.6-0.5-1.9-1.3
		c-0.1-0.3-0.4-0.4-0.6-0.3c-3.3,1.1-5.5,4.1-5.5,7.6c0,1.8,0.6,3.5,1.6,4.8l-1.5,2.4c-0.1,0.2-0.1,0.5,0.1,0.6
		c0.1,0.1,0.2,0.1,0.4,0.1c0.1,0,0.2,0,0.3-0.1l2.4-1.5c1.3,1,3,1.6,4.8,1.6c3.5,0,6.5-2.2,7.6-5.5c0.1-0.3,0-0.5-0.3-0.6
		c-0.8-0.3-1.3-1-1.3-1.9c0-0.1,0-0.3,0.1-0.5c0.2-0.6,0.6-1.2,1.2-1.4c0.9-0.3,1.7,0,2.2,0.6c0.2,0.2,0.5,0.2,0.7,0.1
		c1.7-1.2,2.8-3.2,2.8-5.3c0-1.1-0.3-2.2-0.8-3.1l4.6-4.8l0.3,0.3c0.1,0.1,0.2,0.1,0.4,0.1s0.3,0,0.4-0.1c0.2-0.2,0.2-0.5,0-0.7
		l-0.4-0.4l0.3-0.3l0.4,0.4c0.1,0.1,0.2,0.1,0.4,0.1s0.3,0,0.4-0.1c0.2-0.2,0.2-0.5,0-0.7l-0.4-0.4l0.8-0.8c1.3-0.1,1.7-1.3,1.9-2.1
		c0.1-0.5,0.2-0.8,0.4-0.8c0.2,0,0.4-0.1,0.5-0.3C-206,287.5-206,287.3-206.1,287.1z M-233.9,313.9l0.2-0.3c0,0,0.1,0.1,0.1,0.1
		L-233.9,313.9z M-233.2,312.7l2.8-4.4l2.1,2.1l-4.4,2.8C-232.9,313-233,312.9-233.2,312.7z M-218,305.8c-0.8-0.7-1.9-1-3-0.6
		c-0.9,0.4-1.6,1.1-1.9,2.1c-0.1,0.2-0.1,0.5-0.1,0.7c0,1.1,0.6,2.1,1.5,2.6c-1.1,2.7-3.6,4.4-6.5,4.4c-1.4,0-2.8-0.4-3.9-1.2
		l4.6-2.9c0.1-0.1,0.2-0.2,0.2-0.4c0-0.2,0-0.3-0.1-0.4l-3-3c-0.1-0.1-0.3-0.2-0.4-0.1c-0.2,0-0.3,0.1-0.4,0.2l-2.9,4.6
		c-0.7-1.1-1.2-2.4-1.2-3.9c0-2.9,1.8-5.4,4.4-6.5c0.5,0.9,1.5,1.5,2.6,1.5c0.2,0,0.4,0,0.7-0.1c1-0.2,1.8-0.9,2.1-1.9
		c0.1-0.4,0.2-0.7,0.2-1.1c0-0.7-0.3-1.4-0.8-2c1-1.3,2.6-2,4.3-2c0.8,0,1.6,0.2,2.4,0.5l-2.7,2.6c-0.1,0.1-0.2,0.2-0.2,0.4
		c0,0.1,0.1,0.3,0.1,0.4l2,2c0.1,0.1,0.2,0.1,0.4,0.1c0,0,0,0,0,0c0.1,0,0.3-0.1,0.4-0.2l2.6-2.7c0.4,0.7,0.5,1.5,0.5,2.4
		C-216,303.2-216.7,304.7-218,305.8z M-219.5,300.8l-1.3-1.3l10.3-9.8l0.8,0.8L-219.5,300.8z M-207.8,288.6c-0.2,0.9-0.4,1.3-1,1.4
		l-1.1-1.1c0.1-0.5,0.5-0.7,1.3-0.9c0.4-0.1,0.9-0.3,1.3-0.6l0,0C-207.6,287.7-207.7,288.2-207.8,288.6z"/>
</g>
</svg>
