<?xml version="1.0" encoding="utf-8"?>
<!-- Generator: Adobe Illustrator 19.0.0, SVG Export Plug-In . SVG Version: 6.00 Build 0)  -->
<svg version="1.1" id="Layer_1" xmlns="http://www.w3.org/2000/svg" xmlns:xlink="http://www.w3.org/1999/xlink" x="0px" y="0px"
	 viewBox="-236 286 30 30" style="enable-background:new -236 286 30 30;" xml:space="preserve">
<g>
	<path d="M-222.5,315c-5.2,0-8.5-3.3-8.5-8.5V301h1.3c1,0,1.8-0.8,1.8-1.8v-5.2c0-0.4,0.6-1.1,1-1.1h2.5c0.6,0,1-0.2,1.2-0.6
		c0.8,0.6,2,0.6,2.8,0.6c2,0,3.5-1.5,3.5-3.5c0-2-1.5-3.5-3.5-3.5c-0.7,0-2,0-2.8,0.6c-0.2-0.4-0.6-0.6-1.2-0.6h-4
		c-3,0-6.5,2.4-6.5,5.5v7.7c0,1,0.8,1.8,1.8,1.8h1.2v5.5c0,5.8,3.7,9.5,9.5,9.5c0.3,0,0.5-0.2,0.5-0.5S-222.2,315-222.5,315z
		 M-220.5,287c1.5,0,2.5,1,2.5,2.5c0,1.5-1,2.5-2.5,2.5c-1.8,0-2.5-0.3-2.5-1v-3C-223,287.3-222.3,287-220.5,287z M-233.2,300
		c-0.4,0-0.8-0.3-0.8-0.8v-7.7c0-2.5,3-4.5,5.5-4.5h4c0.4,0,0.5,0.1,0.5,0.5v0.5v3v0.5c0,0.4-0.1,0.5-0.5,0.5h-2.5c-1,0-2,1.1-2,2.1
		v5.2c0,0.4-0.3,0.8-0.8,0.8H-233.2z"/>
	<path d="M-213.5,296h-4c-0.6,0-1,0.2-1.2,0.6c-0.8-0.6-2-0.6-2.8-0.6c-2,0-3.5,1.5-3.5,3.5c0,2,1.5,3.5,3.5,3.5c0.7,0,2,0,2.8-0.6
		c0.2,0.4,0.6,0.6,1.2,0.6h2.5c0.4,0,1,0.6,1,1.1v5.2c0,1,0.8,1.8,1.8,1.8h1.3v1c0,2.8-2.7,3-3.6,3c-0.3,0-0.5,0.2-0.5,0.5
		s0.2,0.5,0.5,0.5c2.8,0,4.6-1.6,4.6-4v-1h1.2c1,0,1.8-0.8,1.8-1.8v-7.7C-207,298.4-210.5,296-213.5,296z M-221.5,302
		c-1.5,0-2.5-1-2.5-2.5c0-1.5,1-2.5,2.5-2.5c1.8,0,2.5,0.3,2.5,1v3C-219,301.7-219.7,302-221.5,302z M-208,309.2
		c0,0.4-0.3,0.8-0.8,0.8h-3.5c-0.4,0-0.8-0.3-0.8-0.8v-5.2c0-1-1-2.1-2-2.1h-2.5c-0.4,0-0.5-0.1-0.5-0.5V301v-3v-0.5
		c0-0.4,0.1-0.5,0.5-0.5h4c2.5,0,5.5,2,5.5,4.5V309.2z"/>
</g>
</svg>
