<?xml version="1.0" encoding="utf-8"?>
<!-- Generator: Adobe Illustrator 19.0.0, SVG Export Plug-In . SVG Version: 6.00 Build 0)  -->
<svg version="1.1" id="Layer_1" xmlns="http://www.w3.org/2000/svg" xmlns:xlink="http://www.w3.org/1999/xlink" x="0px" y="0px"
	 viewBox="-236 286 30 30" style="enable-background:new -236 286 30 30;" xml:space="preserve">
<path d="M-217.7,290.6c-1.6-1.1-1.8-2.6-1.8-2.6c0,0,0-0.1,0-0.1c0,0,0-0.1,0-0.1c0,0,0-0.1-0.1-0.1c0,0,0,0,0,0
	c0,0-0.1-0.1-0.1-0.1c0,0,0,0,0,0c0,0-0.1,0-0.1,0c0,0,0,0-0.1,0c0,0,0,0,0,0c0,0,0,0,0,0c0,0,0,0-0.1,0c0,0-0.1,0-0.1,0
	c0,0,0,0-0.1,0c0,0-0.1,0-0.1,0.1c0,0,0,0,0,0.1c0,0,0,0.1-0.1,0.1c0,0,0,0.1,0,0.1c0,0,0,0.1,0,0.1v20.4c-0.1-0.1-0.3-0.2-0.4-0.3
	c-1-0.6-2.5-0.8-3.9-0.4c-2.4,0.6-4.1,2.6-3.6,4.5c0.2,0.7,0.6,1.3,1.3,1.7c0.7,0.4,1.5,0.6,2.3,0.6c0.5,0,1-0.1,1.5-0.2
	c2.3-0.6,3.9-2.4,3.7-4.1c0-0.1,0-0.1,0-0.2v-14.8c0.3,0.4,0.7,0.8,1.2,1.2c2.2,1.6,2.9,2.5,2.8,5l-1,2.4c-0.1,0.3,0,0.5,0.3,0.7
	c0.1,0,0.1,0,0.2,0c0.2,0,0.4-0.1,0.5-0.3l1-2.5C-212.4,297.3-213.6,293.4-217.7,290.6z M-223.5,313.3c-1.2,0.3-2.3,0.2-3.1-0.3
	c-0.3-0.2-0.7-0.5-0.9-1.1c-0.3-1.3,1-2.8,2.9-3.3c0.4-0.1,0.9-0.2,1.3-0.2c0.7,0,1.3,0.2,1.8,0.5c0.3,0.2,0.7,0.5,0.9,1.1
	C-220.2,311.3-221.6,312.8-223.5,313.3z M-217.7,295.6c-1.5-1.1-1.8-2.5-1.8-2.6v-2.7c0.3,0.4,0.7,0.8,1.2,1.1
	c2.2,1.5,4.4,4,3.6,7.8C-215.1,297.8-216,296.8-217.7,295.6z"/>
</svg>
