<?xml version="1.0" encoding="utf-8"?>
<!-- Generator: Adobe Illustrator 19.0.0, SVG Export Plug-In . SVG Version: 6.00 Build 0)  -->
<svg version="1.1" id="Layer_1" xmlns="http://www.w3.org/2000/svg" xmlns:xlink="http://www.w3.org/1999/xlink" x="0px" y="0px"
	 viewBox="-236 286 30 30" style="enable-background:new -236 286 30 30;" xml:space="preserve">
<g>
	<path d="M-206.5,287.5h-29c-0.3,0-0.5,0.2-0.5,0.5v26c0,0.3,0.2,0.5,0.5,0.5h29c0.3,0,0.5-0.2,0.5-0.5v-26
		C-206,287.7-206.2,287.5-206.5,287.5z M-207,313.5h-28v-25h28V313.5z"/>
	<path d="M-211,309.9c0,0,0,0.1,0,0.1v1c0,0.3,0.2,0.5,0.5,0.5s0.5-0.2,0.5-0.5v-1c0,0,0-0.1,0-0.1c0.6-0.2,1-0.8,1-1.4v-1
		c0-0.7-0.4-1.2-1-1.4c0,0,0,0,0-0.1l0-15c0-0.3-0.2-0.5-0.5-0.5c-0.3,0-0.5,0.2-0.5,0.5l0,15c0,0,0,0,0,0.1c-0.6,0.2-1,0.8-1,1.4v1
		C-212,309.1-211.6,309.7-211,309.9z M-211,307.5c0-0.3,0.2-0.5,0.5-0.5s0.5,0.2,0.5,0.5v1c0,0.3-0.2,0.5-0.5,0.5s-0.5-0.2-0.5-0.5
		V307.5z"/>
	<path d="M-223.5,301.5c0.1,0,0.3-0.1,0.4-0.2c0.1-0.1,0.1-0.2,0.1-0.3s0-0.3-0.1-0.4c-0.2-0.2-0.5-0.2-0.7,0
		c-0.1,0.1-0.2,0.2-0.2,0.4s0,0.3,0.2,0.3C-223.8,301.4-223.6,301.5-223.5,301.5z"/>
	<path d="M-232.5,312.5c0.8,0,1.5-0.7,1.5-1.5c0-0.8-0.7-1.5-1.5-1.5c-0.8,0-1.5,0.7-1.5,1.5C-234,311.8-233.3,312.5-232.5,312.5z
		 M-232.5,310.5c0.3,0,0.5,0.2,0.5,0.5s-0.2,0.5-0.5,0.5s-0.5-0.2-0.5-0.5S-232.8,310.5-232.5,310.5z"/>
	<path d="M-223.5,304c1.7,0,3-1.3,3-3s-1.3-3-3-3s-3,1.3-3,3S-225.2,304-223.5,304z M-223.5,299c1.1,0,2,0.9,2,2c0,1.1-0.9,2-2,2
		c-1.1,0-2-0.9-2-2C-225.5,299.9-224.6,299-223.5,299z"/>
	<path d="M-223.5,311.5c5.8,0,10.5-4.7,10.5-10.5c0-5.8-4.7-10.5-10.5-10.5c-5.8,0-10.5,4.7-10.5,10.5
		C-234,306.8-229.3,311.5-223.5,311.5z M-223.5,291.5c5.2,0,9.5,4.3,9.5,9.5c0,5.2-4.3,9.5-9.5,9.5c-5.2,0-9.5-4.3-9.5-9.5
		C-233,295.8-228.7,291.5-223.5,291.5z"/>
	<path d="M-224,308c0,0.3,0.2,0.5,0.5,0.5c4.1,0,7.5-3.4,7.5-7.5c0-0.3-0.2-0.5-0.5-0.5s-0.5,0.2-0.5,0.5c0,3.6-2.9,6.5-6.5,6.5
		C-223.8,307.5-224,307.7-224,308z"/>
</g>
</svg>
