<?xml version="1.0" encoding="utf-8"?>
<!-- Generator: Adobe Illustrator 19.0.0, SVG Export Plug-In . SVG Version: 6.00 Build 0)  -->
<svg version="1.1" id="Layer_1" xmlns="http://www.w3.org/2000/svg" xmlns:xlink="http://www.w3.org/1999/xlink" x="0px" y="0px"
	 viewBox="-236 286 30 30" style="enable-background:new -236 286 30 30;" xml:space="preserve">
<path d="M-206.5,301h-5c-0.1,0-0.3,0.1-0.4,0.1l-1.3,1.3l-1.8-11c0-0.2-0.2-0.4-0.5-0.4c-0.2,0-0.5,0.2-0.5,0.4l-2.7,16.9l-3.4-10.9
	c-0.1-0.2-0.2-0.3-0.4-0.4c-0.2,0-0.4,0.1-0.5,0.3l-3.6,7.3l-2.5-3.4c-0.1-0.1-0.2-0.2-0.4-0.2h-6c-0.3,0-0.5,0.2-0.5,0.5
	s0.2,0.5,0.5,0.5h5.8l2.9,3.8c0.1,0.1,0.3,0.2,0.4,0.2c0.2,0,0.3-0.1,0.4-0.3l3.4-6.9l3.6,11.8c0.1,0.2,0.3,0.4,0.5,0.4
	s0.4-0.2,0.5-0.4l2.5-16l1.5,9c0,0.2,0.2,0.3,0.3,0.4c0.2,0.1,0.4,0,0.5-0.1l1.9-1.9h4.8c0.3,0,0.5-0.2,0.5-0.5
	C-206,301.2-206.2,301-206.5,301z"/>
</svg>
