<?xml version="1.0" encoding="utf-8"?>
<!-- Generator: Adobe Illustrator 19.0.0, SVG Export Plug-In . SVG Version: 6.00 Build 0)  -->
<svg version="1.1" id="Layer_1" xmlns="http://www.w3.org/2000/svg" xmlns:xlink="http://www.w3.org/1999/xlink" x="0px" y="0px"
	 viewBox="-236 286 30 30" style="enable-background:new -236 286 30 30;" xml:space="preserve">
<g>
	<path d="M-209,302h-2.5v-2.5c0-0.3-0.2-0.5-0.5-0.5s-0.5,0.2-0.5,0.5v2.5h-2.5c-0.3,0-0.5,0.2-0.5,0.5s0.2,0.5,0.5,0.5h2.5v2.5
		c0,0.3,0.2,0.5,0.5,0.5s0.5-0.2,0.5-0.5V303h2.5c0.3,0,0.5-0.2,0.5-0.5S-208.7,302-209,302z"/>
	<path d="M-217.8,286c-0.2-0.1-0.4,0-0.5,0.1l-9.9,9.9h-4.8c-0.3,0-0.5,0.2-0.5,0.5v9c0,0.3,0.2,0.5,0.5,0.5h4.8l9.9,9.9
		c0.1,0.1,0.2,0.1,0.4,0.1c0.1,0,0.1,0,0.2,0c0.2-0.1,0.3-0.3,0.3-0.5v-29C-217.5,286.3-217.6,286.1-217.8,286z M-218.5,314.3
		l-9.2-9.1c-0.1-0.1-0.2-0.1-0.4-0.1h-4.5v-8h4.5c0.1,0,0.3-0.1,0.4-0.1l9.2-9.1V314.3z"/>
</g>
</svg>
