<?xml version="1.0" encoding="utf-8"?>
<!-- Generator: Adobe Illustrator 19.0.0, SVG Export Plug-In . SVG Version: 6.00 Build 0)  -->
<svg version="1.1" id="Layer_1" xmlns="http://www.w3.org/2000/svg" xmlns:xlink="http://www.w3.org/1999/xlink" x="0px" y="0px"
	 viewBox="-236 286 30 30" style="enable-background:new -236 286 30 30;" xml:space="preserve">
<g>
	<path d="M-221,292.5c-5.8,0-10.5,4.7-10.5,10.5s4.7,10.5,10.5,10.5s10.5-4.7,10.5-10.5S-215.2,292.5-221,292.5z M-221,312.5
		c-5.2,0-9.5-4.3-9.5-9.5s4.3-9.5,9.5-9.5s9.5,4.3,9.5,9.5S-215.8,312.5-221,312.5z"/>
	<path d="M-216.5,297.5c-1.1,0-2,0.9-2,2s0.9,2,2,2c1.1,0,2-0.9,2-2S-215.4,297.5-216.5,297.5z M-216.5,300.5c-0.6,0-1-0.4-1-1
		s0.4-1,1-1c0.6,0,1,0.4,1,1S-215.9,300.5-216.5,300.5z"/>
	<path d="M-221,290.5c0.3,0,0.5-0.2,0.5-0.5v-1c0-0.3-0.2-0.5-0.5-0.5s-0.5,0.2-0.5,0.5v1C-221.5,290.3-221.3,290.5-221,290.5z"/>
	<path d="M-224.3,291h0.1c0.3-0.1,0.4-0.3,0.4-0.6l-0.3-1c-0.1-0.3-0.3-0.4-0.6-0.4c-0.3,0.1-0.4,0.3-0.4,0.6l0.3,1
		C-224.7,290.8-224.5,291-224.3,291z"/>
	<path d="M-227.9,292c0.1,0.2,0.3,0.3,0.4,0.3c0.1,0,0.2,0,0.2-0.1c0.2-0.1,0.3-0.4,0.2-0.7l-0.5-0.9c-0.1-0.2-0.4-0.3-0.7-0.2
		c-0.2,0.1-0.3,0.4-0.2,0.7L-227.9,292z"/>
	<path d="M-230.5,294.2c0.1,0.1,0.2,0.1,0.4,0.1c0.1,0,0.3,0,0.4-0.1c0.2-0.2,0.2-0.5,0-0.7l-0.7-0.7c-0.2-0.2-0.5-0.2-0.7,0
		s-0.2,0.5,0,0.7L-230.5,294.2z"/>
	<path d="M-232,296.1l-0.9-0.5c-0.2-0.1-0.5-0.1-0.7,0.2c-0.1,0.2-0.1,0.5,0.2,0.7l0.9,0.5c0.1,0,0.2,0.1,0.3,0.1
		c0.2,0,0.3-0.1,0.4-0.3C-231.7,296.5-231.8,296.2-232,296.1z"/>
	<path d="M-208.6,309.6l-0.9-0.5c-0.2-0.1-0.5-0.1-0.7,0.2c-0.1,0.2-0.1,0.5,0.2,0.7l0.9,0.5c0.1,0,0.2,0.1,0.3,0.1
		c0.2,0,0.3-0.1,0.4-0.3C-208.3,310-208.4,309.7-208.6,309.6z"/>
	<path d="M-234.7,299.9l1,0.3h0.1c0.2,0,0.4-0.1,0.5-0.4c0.1-0.3-0.1-0.5-0.4-0.6l-1-0.3c-0.3-0.1-0.5,0.1-0.6,0.4
		C-235.1,299.5-234.9,299.8-234.7,299.9z"/>
	<path d="M-207.3,306.1l-1-0.3c-0.3-0.1-0.5,0.1-0.6,0.4c-0.1,0.3,0.1,0.5,0.4,0.6l1,0.3h0.1c0.2,0,0.4-0.1,0.5-0.4
		C-206.9,306.5-207.1,306.2-207.3,306.1z"/>
	<path d="M-234,303.5c0.3,0,0.5-0.2,0.5-0.5s-0.2-0.5-0.5-0.5h-1c-0.3,0-0.5,0.2-0.5,0.5s0.2,0.5,0.5,0.5H-234z"/>
	<path d="M-207,302.5h-1c-0.3,0-0.5,0.2-0.5,0.5s0.2,0.5,0.5,0.5h1c0.3,0,0.5-0.2,0.5-0.5S-206.7,302.5-207,302.5z"/>
	<path d="M-233.1,306.2c-0.1-0.3-0.3-0.4-0.6-0.4l-1,0.3c-0.3,0.1-0.4,0.3-0.4,0.6c0.1,0.2,0.3,0.4,0.5,0.4h0.1l1-0.3
		C-233.2,306.8-233,306.5-233.1,306.2z"/>
	<path d="M-208.9,299.8c0.1,0.2,0.3,0.4,0.5,0.4h0.1l1-0.3c0.3-0.1,0.4-0.3,0.4-0.6c-0.1-0.3-0.3-0.4-0.6-0.4l-1,0.3
		C-208.8,299.2-209,299.5-208.9,299.8z"/>
	<path d="M-232.5,309.1l-0.9,0.5c-0.2,0.1-0.3,0.4-0.2,0.7c0.1,0.2,0.3,0.3,0.4,0.3c0.1,0,0.2,0,0.3-0.1l0.9-0.5
		c0.2-0.1,0.3-0.4,0.2-0.7C-232,309-232.3,308.9-232.5,309.1z"/>
	<path d="M-209.7,297c0.1,0,0.2,0,0.2-0.1l0.9-0.5c0.2-0.1,0.3-0.4,0.2-0.7c-0.1-0.2-0.4-0.3-0.7-0.2l-0.9,0.5
		c-0.2,0.1-0.3,0.4-0.2,0.7C-210.1,296.9-209.9,297-209.7,297z"/>
	<path d="M-211.8,294.3c0.1,0,0.3,0,0.4-0.1l0.7-0.7c0.2-0.2,0.2-0.5,0-0.7s-0.5-0.2-0.7,0l-0.7,0.7c-0.2,0.2-0.2,0.5,0,0.7
		C-212.1,294.3-211.9,294.3-211.8,294.3z"/>
	<path d="M-214.5,292.3c0.2,0,0.3-0.1,0.4-0.2l0.5-0.9c0.1-0.2,0.1-0.5-0.2-0.7c-0.2-0.1-0.5-0.1-0.7,0.2l-0.5,0.9
		c-0.1,0.1,0,0.4,0.2,0.6C-214.7,292.2-214.6,292.3-214.5,292.3z"/>
	<path d="M-217.8,290.9c0.3,0,0.5-0.1,0.6-0.4l0.3-1c0.1-0.3-0.1-0.5-0.4-0.6s-0.5,0.1-0.6,0.4l-0.3,1
		C-218.2,290.6-218,290.9-217.8,290.9z"/>
</g>
</svg>
