<?xml version="1.0" encoding="iso-8859-1"?>
<!-- Generator: Adobe Illustrator 19.0.0, SVG Export Plug-In . SVG Version: 6.00 Build 0)  -->
<svg version="1.1" id="Layer_1" xmlns="http://www.w3.org/2000/svg" xmlns:xlink="http://www.w3.org/1999/xlink" x="0px" y="0px"
	 viewBox="0 0 24 24" style="enable-background:new 0 0 24 24;" xml:space="preserve">
<g>
	<g>
		<path d="M19.5,20h-15C4.224,20,4,19.776,4,19.5v-15C4,4.224,4.224,4,4.5,4h15C19.776,4,20,4.224,20,4.5v15
			C20,19.776,19.776,20,19.5,20z M5,19h14V5H5V19z"/>
	</g>
	<g>
		<path d="M4.5,3C4.224,3,4,2.776,4,2.5v-2C4,0.224,4.224,0,4.5,0S5,0.224,5,0.5v2C5,2.776,4.776,3,4.5,3z"/>
	</g>
	<g>
		<path d="M4.5,24C4.224,24,4,23.776,4,23.5v-2C4,21.224,4.224,21,4.5,21S5,21.224,5,21.5v2C5,23.776,4.776,24,4.5,24z"/>
	</g>
	<g>
		<path d="M2.5,20h-2C0.224,20,0,19.776,0,19.5S0.224,19,0.5,19h2C2.776,19,3,19.224,3,19.5S2.776,20,2.5,20z"/>
	</g>
	<g>
		<path d="M2.5,5h-2C0.224,5,0,4.776,0,4.5S0.224,4,0.5,4h2C2.776,4,3,4.224,3,4.5S2.776,5,2.5,5z"/>
	</g>
	<g>
		<path d="M23.5,5h-2C21.224,5,21,4.776,21,4.5S21.224,4,21.5,4h2C23.776,4,24,4.224,24,4.5S23.776,5,23.5,5z"/>
	</g>
	<g>
		<path d="M19.5,3C19.224,3,19,2.776,19,2.5v-2C19,0.224,19.224,0,19.5,0S20,0.224,20,0.5v2C20,2.776,19.776,3,19.5,3z"/>
	</g>
	<g>
		<path d="M19.5,24c-0.276,0-0.5-0.224-0.5-0.5v-2c0-0.276,0.224-0.5,0.5-0.5s0.5,0.224,0.5,0.5v2C20,23.776,19.776,24,19.5,24z"/>
	</g>
	<g>
		<path d="M23.5,20h-2c-0.276,0-0.5-0.224-0.5-0.5s0.224-0.5,0.5-0.5h2c0.276,0,0.5,0.224,0.5,0.5S23.776,20,23.5,20z"/>
	</g>
</g>
</svg>
