<?xml version="1.0" encoding="iso-8859-1"?>
<!-- Generator: Adobe Illustrator 19.0.0, SVG Export Plug-In . SVG Version: 6.00 Build 0)  -->
<svg version="1.1" id="Layer_1" xmlns="http://www.w3.org/2000/svg" xmlns:xlink="http://www.w3.org/1999/xlink" x="0px" y="0px"
	 viewBox="0 0 24 24" style="enable-background:new 0 0 24 24;" xml:space="preserve">
<g>
	<g>
		<path d="M20,9.488c-0.128,0-0.256-0.049-0.354-0.146l-5.5-5.5c-0.195-0.195-0.195-0.512,0-0.707s0.512-0.195,0.707,0l5.5,5.5
			c0.195,0.195,0.195,0.512,0,0.707C20.256,9.439,20.128,9.488,20,9.488z"/>
	</g>
	<g>
		<path d="M7.5,10.988c-0.128,0-0.256-0.049-0.354-0.146c-0.195-0.195-0.195-0.512,0-0.707l7-7c0.195-0.195,0.512-0.195,0.707,0
			s0.195,0.512,0,0.707l-7,7C7.756,10.939,7.628,10.988,7.5,10.988z"/>
	</g>
	<g>
		<path d="M16.003,4.284L3,17.281l3.67,3.67c1.313-1.354,4.711-4.771,13.012-12.988L16.003,4.284z"/>
		<path d="M2.293,17.988l-0.147,0.146c-0.048,0.048-0.086,0.105-0.11,0.168l-2,5c-0.074,0.186-0.031,0.397,0.11,0.539
			c0.096,0.096,0.224,0.146,0.354,0.146c0.062,0,0.126-0.012,0.186-0.036l5-2c0.108-0.043,0.197-0.123,0.252-0.223
			c0.011-0.014,0.027-0.032,0.045-0.052L2.293,17.988z"/>
		<path d="M23.227,0.752c-0.986-0.986-2.705-0.986-3.691,0L16.71,3.577l3.683,3.683c0.891-0.882,1.83-1.811,2.832-2.801
			C23.723,3.968,23.998,3.313,24,2.614C24.002,1.914,23.73,1.255,23.227,0.752z"/>
	</g>
</g>
</svg>
