<?xml version="1.0" encoding="iso-8859-1"?>
<!-- Generator: Adobe Illustrator 19.0.0, SVG Export Plug-In . SVG Version: 6.00 Build 0)  -->
<svg version="1.1" id="Layer_1" xmlns="http://www.w3.org/2000/svg" xmlns:xlink="http://www.w3.org/1999/xlink" x="0px" y="0px"
	 viewBox="0 0 24 24" style="enable-background:new 0 0 24 24;" xml:space="preserve">
<g>
	<g>
		<path d="M4,9.5C4,6.467,6.467,4,9.5,4H14V0.5C14,0.224,13.776,0,13.5,0h-13C0.224,0,0,0.224,0,0.5v13C0,13.776,0.224,14,0.5,14H4
			V9.5z"/>
	</g>
	<path d="M17,10c-3.86,0-7,3.14-7,7s3.14,7,7,7s7-3.14,7-7S20.86,10,17,10z"/>
	<g>
		<path d="M9,17c0-4.411,3.589-8,8-8c0.683,0,1.342,0.095,1.975,0.257C18.846,6.89,16.898,5,14.5,5h-5C7.019,5,5,7.019,5,9.5v5
			c0,2.398,1.89,4.346,4.257,4.475C9.095,18.342,9,17.683,9,17z"/>
	</g>
</g>
</svg>
