<?xml version="1.0" encoding="iso-8859-1"?>
<!-- Generator: Adobe Illustrator 19.0.0, SVG Export Plug-In . SVG Version: 6.00 Build 0)  -->
<svg version="1.1" id="Layer_1" xmlns="http://www.w3.org/2000/svg" xmlns:xlink="http://www.w3.org/1999/xlink" x="0px" y="0px"
	 viewBox="0 0 24 24" style="enable-background:new 0 0 24 24;" xml:space="preserve">
<g>
	<path d="M24,5V3.5C24,1.57,22.43,0,20.5,0h-17C1.57,0,0,1.57,0,3.5V5H24z M7.52,2h0.01c0.276,0,0.5,0.224,0.5,0.5S7.806,3,7.53,3
		S7.025,2.776,7.025,2.5S7.244,2,7.52,2z M5.52,2h0.01c0.276,0,0.5,0.224,0.5,0.5S5.806,3,5.53,3S5.025,2.776,5.025,2.5
		S5.244,2,5.52,2z M3.52,2h0.01c0.276,0,0.5,0.224,0.5,0.5S3.806,3,3.53,3S3.025,2.776,3.025,2.5S3.244,2,3.52,2z"/>
	<path d="M0,6v14.5C0,22.43,1.57,24,3.5,24h17c1.93,0,3.5-1.57,3.5-3.5V6H0z M20,10.5c0,0.276-0.224,0.5-0.5,0.5h-2
		c-0.149,0-0.279-0.068-0.371-0.171L7,17.275V18.5C7,18.776,6.776,19,6.5,19h-2C4.224,19,4,18.776,4,18.5v-2
		C4,16.224,4.224,16,4.5,16h2c0.149,0,0.279,0.068,0.371,0.171L17,9.725V8.5C17,8.224,17.224,8,17.5,8h2C19.776,8,20,8.224,20,8.5
		V10.5z"/>
	<rect x="5" y="17" width="1" height="1"/>
	<rect x="18" y="9" width="1" height="1"/>
</g>
</svg>
