<?xml version="1.0" encoding="iso-8859-1"?>
<!-- Generator: Adobe Illustrator 19.0.0, SVG Export Plug-In . SVG Version: 6.00 Build 0)  -->
<svg version="1.1" id="Layer_1" xmlns="http://www.w3.org/2000/svg" xmlns:xlink="http://www.w3.org/1999/xlink" x="0px" y="0px"
	 viewBox="0 0 24 24" style="enable-background:new 0 0 24 24;" xml:space="preserve">
<g>
	<path d="M2.293,17.988l-0.147,0.146c-0.048,0.048-0.086,0.105-0.11,0.168l-2,5c-0.074,0.186-0.031,0.397,0.11,0.539
		c0.096,0.096,0.224,0.146,0.354,0.146c0.062,0,0.126-0.012,0.186-0.036l5-2c0.108-0.043,0.197-0.123,0.252-0.223
		c0.011-0.014,0.027-0.032,0.045-0.052L2.293,17.988z"/>
	<path d="M23.227,0.752c-0.986-0.986-2.705-0.986-3.691,0l-2.533,2.532l3.684,3.684c0.802-0.794,1.648-1.63,2.538-2.509
		C23.723,3.968,23.998,3.313,24,2.614C24.002,1.914,23.73,1.255,23.227,0.752z"/>
	<path d="M16.296,3.991L3,17.281l3.67,3.67c1.328-1.369,4.794-4.854,13.307-13.279L16.296,3.991z"/>
</g>
</svg>
