<?xml version="1.0" encoding="utf-8"?>
<!-- Generator: Adobe Illustrator 19.0.0, SVG Export Plug-In . SVG Version: 6.00 Build 0)  -->
<svg version="1.1" id="Layer_1" xmlns="http://www.w3.org/2000/svg" xmlns:xlink="http://www.w3.org/1999/xlink" x="0px" y="0px"
	 viewBox="0 0 30 30" style="enable-background:new 0 0 30 30;" xml:space="preserve">
<g>
	<path d="M15,16.5c-3.6,0-6.5,2.9-6.5,6.5s2.9,6.5,6.5,6.5s6.5-2.9,6.5-6.5S18.6,16.5,15,16.5z M16,26.5h-2c-0.3,0-0.5-0.2-0.5-0.5
		s0.2-0.5,0.5-0.5h0.5v-4.4l-0.1,0.1c-0.1,0.2-0.4,0.3-0.7,0.2c-0.2-0.1-0.3-0.4-0.2-0.7l1-2c0.1-0.2,0.3-0.3,0.6-0.3
		c0.2,0.1,0.4,0.3,0.4,0.5v6.5H16c0.3,0,0.5,0.2,0.5,0.5S16.3,26.5,16,26.5z"/>
	<g>
		<path d="M29.4,0.7c-0.1-0.1-0.3-0.2-0.4-0.2h-6c-0.2,0-0.4,0.1-0.4,0.3l-7,14.1c-0.1,0.1-0.1,0.3,0,0.5s0.2,0.2,0.4,0.3
			c1.6,0.2,3,0.9,4.2,2c0.1,0.1,0.2,0.1,0.3,0.1c0,0,0.1,0,0.1,0c0.2,0,0.3-0.1,0.4-0.3l8.5-16.2C29.5,1.1,29.5,0.9,29.4,0.7z"/>
		<path d="M7.4,0.8C7.4,0.6,7.2,0.5,7,0.5H1c-0.2,0-0.3,0.1-0.4,0.2c-0.1,0.1-0.1,0.3,0,0.5l8.2,16.5C8.9,17.8,9,17.9,9.2,18
			c0,0,0.1,0,0.1,0c0.1,0,0.3-0.1,0.4-0.2c1.2-1.2,2.8-2,4.5-2.3c0.2,0,0.3-0.1,0.4-0.3c0.1-0.1,0.1-0.3,0-0.5L7.4,0.8z"/>
	</g>
</g>
</svg>
