<?xml version="1.0" encoding="utf-8"?>
<!-- Generator: Adobe Illustrator 19.0.0, SVG Export Plug-In . SVG Version: 6.00 Build 0)  -->
<svg version="1.1" id="Layer_1" xmlns="http://www.w3.org/2000/svg" xmlns:xlink="http://www.w3.org/1999/xlink" x="0px" y="0px"
	 viewBox="0 0 30 30" style="enable-background:new 0 0 30 30;" xml:space="preserve">
<g>
	<g>
		<path d="M10.1,30H6.9C6.4,30,6,29.7,6,29.3l-0.3-1.9c-0.4-0.2-0.7-0.4-1-0.6l-1.8,0.7c-0.4,0.2-0.9,0-1.1-0.4l-1.6-2.8
			C-0.1,24,0,23.5,0.3,23.2l1.5-1.2c0-0.2,0-0.4,0-0.6c0-0.2,0-0.4,0-0.6l-1.5-1.2C0,19.5-0.1,19,0.1,18.6l1.6-2.8
			c0.2-0.4,0.7-0.5,1.1-0.4l1.8,0.7c0.3-0.2,0.6-0.4,1-0.6l0.3-1.8C6,13.3,6.4,13,6.9,13h3.3c0.4,0,0.8,0.3,0.9,0.7l0.3,1.9
			c0.4,0.2,0.7,0.4,1,0.6l1.8-0.7c0.4-0.2,0.9,0,1.1,0.4l1.6,2.8c0.2,0.4,0.1,0.9-0.2,1.2l-1.5,1.2c0,0.2,0,0.4,0,0.6
			c0,0.2,0,0.4,0,0.6l1.5,1.2c0.4,0.3,0.4,0.8,0.2,1.2l-1.6,2.8c-0.2,0.4-0.7,0.5-1.1,0.4l-1.8-0.7c-0.3,0.2-0.6,0.4-1,0.6l-0.3,1.8
			C11,29.7,10.6,30,10.1,30z M6.9,29h3.1l0.3-2c0-0.2,0.1-0.3,0.3-0.4c0.5-0.2,0.9-0.4,1.3-0.7c0.1-0.1,0.3-0.1,0.5-0.1l2,0.8
			l1.6-2.6l-1.7-1.3c-0.1-0.1-0.2-0.3-0.2-0.5c0-0.2,0.1-0.5,0.1-0.7c0-0.2,0-0.5-0.1-0.7c0-0.2,0.1-0.4,0.2-0.5L16,19l-1.6-2.6
			l-2,0.8c-0.2,0.1-0.3,0-0.5-0.1c-0.4-0.3-0.8-0.5-1.3-0.7c-0.2-0.1-0.3-0.2-0.3-0.4l-0.3-2H6.9l-0.3,2c0,0.2-0.1,0.3-0.3,0.4
			c-0.5,0.2-0.9,0.4-1.3,0.7c-0.1,0.1-0.3,0.1-0.5,0.1l-2-0.8L1,19.1l1.7,1.3c0.1,0.1,0.2,0.3,0.2,0.5c0,0.2-0.1,0.5-0.1,0.7
			c0,0.2,0,0.5,0.1,0.7c0,0.2-0.1,0.4-0.2,0.5L1,24l1.6,2.6l2-0.8c0.2-0.1,0.3,0,0.5,0.1c0.4,0.3,0.8,0.5,1.3,0.7
			c0.2,0.1,0.3,0.2,0.3,0.4L6.9,29z M8.5,24C7.1,24,6,22.9,6,21.5S7.1,19,8.5,19s2.5,1.1,2.5,2.5S9.9,24,8.5,24z M8.5,20
			C7.7,20,7,20.7,7,21.5S7.7,23,8.5,23s1.5-0.7,1.5-1.5S9.3,20,8.5,20z"/>
	</g>
	<g>
		<path d="M23.1,17h-3.3c-0.4,0-0.8-0.3-0.9-0.7l-0.3-1.9c-0.4-0.2-0.7-0.4-1-0.6l-1.8,0.7c-0.4,0.2-0.9,0-1.1-0.4l-1.6-2.8
			c-0.2-0.4-0.1-0.9,0.2-1.2l1.5-1.2c0-0.2,0-0.4,0-0.6c0-0.2,0-0.4,0-0.6l-1.5-1.2C13,6.5,12.9,6,13.1,5.6l1.6-2.8
			c0.2-0.4,0.7-0.5,1.1-0.4l1.8,0.7c0.3-0.2,0.6-0.4,1-0.6l0.3-1.8C19,0.3,19.4,0,19.9,0h3.3C23.6,0,24,0.3,24,0.7l0.3,1.9
			c0.4,0.2,0.7,0.4,1,0.6l1.8-0.7c0.4-0.2,0.9,0,1.1,0.4l1.6,2.8C30.1,6,30,6.5,29.7,6.8l-1.5,1.2c0,0.2,0,0.4,0,0.6
			c0,0.2,0,0.4,0,0.6l1.5,1.2c0.4,0.3,0.4,0.8,0.2,1.2l-1.6,2.8c-0.2,0.4-0.7,0.5-1.1,0.4l-1.8-0.7c-0.3,0.2-0.6,0.4-1,0.6l-0.3,1.8
			C24,16.7,23.6,17,23.1,17z M19.9,16h3.1l0.3-2c0-0.2,0.1-0.3,0.3-0.4c0.5-0.2,0.9-0.4,1.3-0.7c0.1-0.1,0.3-0.1,0.5-0.1l2,0.8
			l1.6-2.6l-1.7-1.3c-0.1-0.1-0.2-0.3-0.2-0.5c0-0.2,0.1-0.5,0.1-0.7c0-0.2,0-0.5-0.1-0.7c0-0.2,0.1-0.4,0.2-0.5L29,6l-1.6-2.6
			l-2,0.8c-0.2,0.1-0.3,0-0.5-0.1c-0.4-0.3-0.8-0.5-1.3-0.7c-0.2-0.1-0.3-0.2-0.3-0.4l-0.3-2h-3.1l-0.3,2c0,0.2-0.1,0.3-0.3,0.4
			c-0.5,0.2-0.9,0.4-1.3,0.7c-0.1,0.1-0.3,0.1-0.5,0.1l-2-0.8L14,6.1l1.7,1.3c0.1,0.1,0.2,0.3,0.2,0.5c0,0.2-0.1,0.5-0.1,0.7
			c0,0.2,0,0.5,0.1,0.7c0,0.2-0.1,0.4-0.2,0.5L14,11l1.6,2.6l2-0.8c0.2-0.1,0.3,0,0.5,0.1c0.4,0.3,0.8,0.5,1.3,0.7
			c0.2,0.1,0.3,0.2,0.3,0.4L19.9,16z M21.5,11C20.1,11,19,9.9,19,8.5S20.1,6,21.5,6S24,7.1,24,8.5S22.9,11,21.5,11z M21.5,7
			C20.7,7,20,7.7,20,8.5s0.7,1.5,1.5,1.5S23,9.3,23,8.5S22.3,7,21.5,7z"/>
	</g>
</g>
</svg>
