<?xml version="1.0" encoding="utf-8"?>
<!-- Generator: Adobe Illustrator 19.0.0, SVG Export Plug-In . SVG Version: 6.00 Build 0)  -->
<svg version="1.1" id="Layer_1" xmlns="http://www.w3.org/2000/svg" xmlns:xlink="http://www.w3.org/1999/xlink" x="0px" y="0px"
	 viewBox="0 0 30 30" style="enable-background:new 0 0 30 30;" xml:space="preserve">
<g>
	<g>
		<g>
			<path d="M25.5,29.5c-0.1,0-0.2,0-0.3-0.1l-7.3-5.7c0,0-2.8-2.2-5.8-2.2c-3.9,0-6.2-0.6-7.9-2c-3.6-3.1-4.1-8-4.1-8.2
				c0-0.2,0.1-0.3,0.2-0.4s0.3-0.1,0.5-0.1c0,0,2.9,1.2,5.5,2.3c2.5,1.1,4.2-0.6,4.9-1.8c0.7-1.2,1.9-4.1-0.3-5.3
				C8.3,4.6,4.1,2.7,4.1,2.7C3.8,2.6,3.7,2.3,3.8,2.1C4,1.7,5,0.5,11.2,0.5c6.6,0,8.7,5.1,8.7,7.5c0,0.3,0,0.5,0,0.8
				c-0.1,1.9-0.1,4.6,2.3,6.4c3,2.3,7.5,5.3,7.5,5.3c0.2,0.2,0.3,0.5,0.1,0.7c-0.2,0.2-0.5,0.3-0.7,0.1c0,0-4.5-3.1-7.6-5.4
				c-2.9-2.2-2.8-5.2-2.7-7.3c0-0.3,0-0.5,0-0.8c0-1.4-1.3-6.5-7.7-6.5c-3.5,0-5.1,0.4-5.9,0.7c1.4,0.6,4.1,1.9,5.9,2.9
				c2.1,1.1,2.4,3.6,0.7,6.7c-1.1,1.9-3.4,3.4-6.1,2.2c-1.8-0.7-3.6-1.5-4.7-2c0.3,1.5,1.2,4.6,3.6,6.7c1.5,1.3,3.6,1.8,7.2,1.8
				c3.4,0,6.3,2.3,6.5,2.4l7.3,5.7c0.2,0.2,0.3,0.5,0.1,0.7C25.8,29.4,25.6,29.5,25.5,29.5z"/>
		</g>
	</g>
	<g>
		<path d="M5.8,13.5c-0.4,0-0.7-0.1-1.1-0.2l-3-1.4c-0.8-0.4-1.3-1.1-1.4-2L0,6.8C-0.1,6,0.4,5.2,1.1,4.7l2.8-1.8
			c0.7-0.5,1.7-0.5,2.5-0.2l3,1.4c0.8,0.4,1.3,1.1,1.4,2L11,9.2c0.1,0.8-0.3,1.7-1.1,2.1l-2.8,1.8C6.7,13.4,6.2,13.5,5.8,13.5z
			 M5.2,3.5c-0.3,0-0.6,0.1-0.9,0.2L1.6,5.5C1.2,5.8,1,6.3,1,6.7l0.3,3.1l0,0c0,0.5,0.4,0.9,0.8,1.1l3,1.4c0.5,0.2,1.1,0.2,1.5-0.1
			l2.8-1.8C9.8,10.2,10,9.7,10,9.3L9.7,6.1c0-0.5-0.4-0.9-0.8-1.1l-3-1.4C5.7,3.5,5.5,3.5,5.2,3.5z"/>
	</g>
	<g>
		<path d="M5.5,10.5C4.1,10.5,3,9.4,3,8s1.1-2.5,2.5-2.5S8,6.6,8,8S6.9,10.5,5.5,10.5z M5.5,6.5C4.7,6.5,4,7.2,4,8s0.7,1.5,1.5,1.5
			S7,8.8,7,8S6.3,6.5,5.5,6.5z"/>
	</g>
</g>
</svg>
