<?xml version="1.0" encoding="iso-8859-1"?>
<!-- Generator: Adobe Illustrator 19.0.0, SVG Export Plug-In . SVG Version: 6.00 Build 0)  -->
<svg version="1.1" id="Layer_1" xmlns="http://www.w3.org/2000/svg" xmlns:xlink="http://www.w3.org/1999/xlink" x="0px" y="0px"
	 viewBox="0 0 24 24" style="enable-background:new 0 0 24 24;" xml:space="preserve">
<g>
	<g>
		<g>
			<path d="M23.5,5h-23C0.224,5,0,4.776,0,4.5S0.224,4,0.5,4h23C23.776,4,24,4.224,24,4.5S23.776,5,23.5,5z"/>
		</g>
		<g>
			<path d="M16.5,8h-10C6.224,8,6,7.776,6,7.5S6.224,7,6.5,7h10C16.776,7,17,7.224,17,7.5S16.776,8,16.5,8z"/>
		</g>
		<g>
			<path d="M23.5,11h-17C6.224,11,6,10.776,6,10.5S6.224,10,6.5,10h17c0.276,0,0.5,0.224,0.5,0.5S23.776,11,23.5,11z"/>
		</g>
		<g>
			<path d="M16.5,14h-10C6.224,14,6,13.776,6,13.5S6.224,13,6.5,13h10c0.276,0,0.5,0.224,0.5,0.5S16.776,14,16.5,14z"/>
		</g>
		<g>
			<path d="M23.5,17h-17C6.224,17,6,16.776,6,16.5S6.224,16,6.5,16h17c0.276,0,0.5,0.224,0.5,0.5S23.776,17,23.5,17z"/>
		</g>
		<g>
			<path d="M16.5,20h-16C0.224,20,0,19.776,0,19.5S0.224,19,0.5,19h16c0.276,0,0.5,0.224,0.5,0.5S16.776,20,16.5,20z"/>
		</g>
	</g>
	<g>
		<path d="M4.5,16c-0.13,0-0.258-0.051-0.354-0.146l-4-4c-0.195-0.195-0.195-0.512,0-0.707l4-4C4.289,7.003,4.506,6.96,4.691,7.038
			C4.878,7.115,5,7.298,5,7.5v8c0,0.202-0.122,0.385-0.309,0.462C4.63,15.988,4.564,16,4.5,16z M1.207,11.5L4,14.293V8.707
			L1.207,11.5z"/>
	</g>
</g>
<g>
</g>
<g>
</g>
<g>
</g>
<g>
</g>
<g>
</g>
<g>
</g>
<g>
</g>
<g>
</g>
<g>
</g>
<g>
</g>
<g>
</g>
<g>
</g>
<g>
</g>
<g>
</g>
<g>
</g>
</svg>
