<?xml version="1.0" encoding="iso-8859-1"?>
<!-- Generator: Adobe Illustrator 19.0.0, SVG Export Plug-In . SVG Version: 6.00 Build 0)  -->
<svg version="1.1" id="Layer_1" xmlns="http://www.w3.org/2000/svg" xmlns:xlink="http://www.w3.org/1999/xlink" x="0px" y="0px"
	 viewBox="0 0 24 24" style="enable-background:new 0 0 24 24;" xml:space="preserve">
<g>
	<path d="M23.854,8.146l-6-6C17.76,2.053,17.633,2,17.5,2h-2C15.224,2,15,2.224,15,2.5v4.279c0,1.077-0.687,2.03-1.708,2.371
		l-0.95,0.316C12.138,9.535,12,9.726,12,9.941V21.5c0,0.276,0.224,0.5,0.5,0.5h11c0.276,0,0.5-0.224,0.5-0.5v-13
		C24,8.367,23.947,8.24,23.854,8.146z M21.5,19h-8c-0.276,0-0.5-0.224-0.5-0.5s0.224-0.5,0.5-0.5h8c0.276,0,0.5,0.224,0.5,0.5
		S21.776,19,21.5,19z M21.5,16h-8c-0.276,0-0.5-0.224-0.5-0.5s0.224-0.5,0.5-0.5h8c0.276,0,0.5,0.224,0.5,0.5S21.776,16,21.5,16z
		 M21.5,13h-8c-0.276,0-0.5-0.224-0.5-0.5s0.224-0.5,0.5-0.5h8c0.276,0,0.5,0.224,0.5,0.5S21.776,13,21.5,13z M18,7.5V3.707
		L22.293,8H18.5C18.224,8,18,7.776,18,7.5z"/>
	<path d="M12.5,0c-1.375,0-2.741,0.201-4.059,0.596L1.782,2.593C0.716,2.913,0,3.875,0,4.988v14.125
		c0,1.036,0.652,1.977,1.622,2.341l5.767,2.163C8.066,23.872,8.776,24,9.5,24c0.827,0,1.5-0.673,1.5-1.5V9.221
		c0-0.215,0.137-0.406,0.342-0.474l1.633-0.544C13.588,7.998,14,7.426,14,6.779V1.5C14,0.673,13.327,0,12.5,0z"/>
</g>
<g>
</g>
<g>
</g>
<g>
</g>
<g>
</g>
<g>
</g>
<g>
</g>
<g>
</g>
<g>
</g>
<g>
</g>
<g>
</g>
<g>
</g>
<g>
</g>
<g>
</g>
<g>
</g>
<g>
</g>
</svg>
