<?xml version="1.0" encoding="iso-8859-1"?>
<!-- Generator: Adobe Illustrator 19.0.0, SVG Export Plug-In . SVG Version: 6.00 Build 0)  -->
<svg version="1.1" id="Layer_1" xmlns="http://www.w3.org/2000/svg" xmlns:xlink="http://www.w3.org/1999/xlink" x="0px" y="0px"
	 viewBox="0 0 24 24" style="enable-background:new 0 0 24 24;" xml:space="preserve">
<g>
	<g>
		<path d="M14.5,24h-6C8.224,24,8,23.776,8,23.5S8.224,23,8.5,23h6c0.276,0,0.5,0.224,0.5,0.5S14.776,24,14.5,24z"/>
	</g>
	<g>
		<path d="M14.5,22h-6C8.224,22,8,21.776,8,21.5S8.224,21,8.5,21h6c0.276,0,0.5,0.224,0.5,0.5S14.776,22,14.5,22z"/>
	</g>
	<g>
		<path d="M14.5,20h-6C8.224,20,8,19.776,8,19.5S8.224,19,8.5,19h6c0.276,0,0.5,0.224,0.5,0.5S14.776,20,14.5,20z"/>
	</g>
	<g>
		<path d="M5.059,1c1.508,0,2.843,0.962,3.32,2.392l0.088,0.267c0.068,0.205,0.259,0.343,0.475,0.343L20.5,4
			c0.266,0,0.543,0.04,0.874,0.126c0.042,0.011,0.084,0.016,0.126,0.016c0.109,0,0.217-0.036,0.306-0.104
			C21.928,3.943,22,3.797,22,3.642V2.5C22,1.122,20.878,0,19.5,0H5.059c-0.276,0-0.5,0.224-0.5,0.5S4.782,1,5.059,1z"/>
		<path d="M20.5,5H8.941C8.295,5,7.723,4.588,7.519,3.975L7.43,3.709C7.089,2.687,6.136,2,5.059,2H2.5C1.122,2,0,3.122,0,4.5v12
			C0,17.878,1.122,19,2.5,19h4.277c0.003,0,0.007,0,0.01,0c0.296,0.017,0.511-0.22,0.51-0.5c0-0.134-0.053-0.256-0.139-0.346
			C7.053,17.944,7,17.724,7,17.5C7,16.673,7.673,16,8.5,16h6c0.827,0,1.5,0.673,1.5,1.5c0,0.258-0.07,0.51-0.209,0.749
			c-0.09,0.155-0.09,0.346-0.001,0.501c0.089,0.155,0.255,0.25,0.434,0.25H20.5c1.378,0,2.5-1.122,2.5-2.5v-9
			C23,6.122,21.878,5,20.5,5z"/>
	</g>
	<g>
		<path d="M14.5,18h-6C8.224,18,8,17.776,8,17.5S8.224,17,8.5,17h6c0.276,0,0.5,0.224,0.5,0.5S14.776,18,14.5,18z"/>
	</g>
</g>
<g>
</g>
<g>
</g>
<g>
</g>
<g>
</g>
<g>
</g>
<g>
</g>
<g>
</g>
<g>
</g>
<g>
</g>
<g>
</g>
<g>
</g>
<g>
</g>
<g>
</g>
<g>
</g>
<g>
</g>
</svg>
