<?xml version="1.0" encoding="iso-8859-1"?>
<!-- Generator: Adobe Illustrator 19.0.0, SVG Export Plug-In . SVG Version: 6.00 Build 0)  -->
<svg version="1.1" id="Layer_1" xmlns="http://www.w3.org/2000/svg" xmlns:xlink="http://www.w3.org/1999/xlink" x="0px" y="0px"
	 viewBox="0 0 24 24" style="enable-background:new 0 0 24 24;" xml:space="preserve">
<g>
	<g>
		<path d="M17,19h-0.169c-0.208-0.502-0.642-1.61-1.036-3H16c0.827,0,1.5-0.673,1.5-1.5c0-0.827-0.673-1.5-1.5-1.5h-0.837
			c-0.084-0.839-0.144-2.266-0.159-3.132C16.264,9.248,17.5,6.533,17.5,5c0-1.859-1.747-3-3-3c-0.444,0-1.31,0.116-2,0.408V2H13
			c0.276,0,0.5-0.224,0.5-0.5S13.276,1,13,1h-0.5V0.5C12.5,0.224,12.276,0,12,0s-0.5,0.224-0.5,0.5V1H11c-0.276,0-0.5,0.224-0.5,0.5
			S10.724,2,11,2h0.5v0.408C10.81,2.116,9.944,2,9.5,2c-1.253,0-3,1.141-3,3c0,1.533,1.236,4.248,2.496,4.868
			C8.981,10.734,8.921,12.161,8.837,13H8c-0.827,0-1.5,0.673-1.5,1.5C6.5,15.327,7.173,16,8,16h0.205
			c-0.393,1.387-0.828,2.497-1.036,3H7c-1.378,0-2.5,1.122-2.5,2.5v1C4.5,23.327,5.173,24,6,24h12c0.827,0,1.5-0.673,1.5-1.5v-1
			C19.5,20.122,18.378,19,17,19z M8,15c-0.276,0-0.5-0.224-0.5-0.5S7.724,14,8,14h1.278c0.245,0,0.454-0.177,0.494-0.419
			C9.914,12.712,10,10.32,10,9.5C10,9.224,9.776,9,9.5,9c-0.539,0-2-2.479-2-4c0-1.294,1.321-2,2-2c0.841,0,1.834,0.333,2.002,0.545
			c0.002,0.025,0.014,0.047,0.02,0.071c0.008,0.037,0.015,0.074,0.031,0.108c0,0,0,0,0,0.001c0.079,0.175,0.243,0.307,0.44,0.307
			c0.228,0,0.408-0.135,0.467-0.335c0.018-0.042,0.022-0.089,0.028-0.136C12.618,3.349,13.638,3,14.5,3c0.679,0,2,0.706,2,2
			c0,1.521-1.461,4-2,4C14.224,9,14,9.224,14,9.5c0,0.82,0.086,3.212,0.227,4.081C14.267,13.822,14.476,14,14.721,14H16
			c0.276,0,0.5,0.224,0.5,0.5S16.276,15,16,15H8z M15.752,19H8.248c0.257-0.655,0.643-1.729,0.99-3h5.525
			C15.109,17.27,15.494,18.345,15.752,19z M18.5,22.5c0,0.276-0.224,0.5-0.5,0.5H6c-0.276,0-0.5-0.224-0.5-0.5v-1
			C5.5,20.673,6.173,20,7,20h10c0.827,0,1.5,0.673,1.5,1.5V22.5z"/>
	</g>
</g>
</svg>
