<?xml version="1.0" encoding="iso-8859-1"?>
<!-- Generator: Adobe Illustrator 19.0.0, SVG Export Plug-In . SVG Version: 6.00 Build 0)  -->
<svg version="1.1" id="Layer_1" xmlns="http://www.w3.org/2000/svg" xmlns:xlink="http://www.w3.org/1999/xlink" x="0px" y="0px"
	 viewBox="0 0 24 24" style="enable-background:new 0 0 24 24;" xml:space="preserve">
<g>
	<g>
		<path d="M20.434,9.253L18.5,5.868V5.001c0-0.109-0.035-0.214-0.1-0.3L17.034,2.88l0.456-2.281
			c0.032-0.161-0.017-0.328-0.131-0.446c-0.114-0.119-0.279-0.174-0.441-0.146l-2.934,0.494c-0.156,0.005-3.83,0.138-5.338,1.646
			C8.001,2.793,6.5,4.558,6.5,7.001c0,1.998-0.391,3.149-2.814,5.111c-0.11,0.089-0.177,0.22-0.185,0.362
			c-0.007,0.142,0.046,0.28,0.146,0.38c0.528,0.527,2.499,0.887,3.737,1.067c-0.253,1.07-0.778,3.468-0.866,5.129
			C5.37,19.275,4.5,20.288,4.5,21.501v1c0,0.827,0.673,1.5,1.5,1.5h12c0.827,0,1.5-0.673,1.5-1.5v-1c0-1.214-0.871-2.227-2.02-2.451
			c-0.112-3.893-1.588-6.091-2.689-7.7c-0.472-0.688-0.878-1.282-1.103-1.88l2.564,1.465c0.076,0.043,0.161,0.066,0.248,0.066h0.849
			l1.374,0.916c0.082,0.055,0.178,0.084,0.277,0.084h1c0.276,0,0.5-0.224,0.5-0.5v-2C20.5,9.414,20.477,9.329,20.434,9.253z
			 M18.5,21.501v1c0,0.276-0.224,0.5-0.5,0.5H6c-0.276,0-0.5-0.224-0.5-0.5v-1c0-0.827,0.673-1.5,1.5-1.5h10
			C17.827,20.001,18.5,20.674,18.5,21.501z M19.5,11.001h-0.349l-1.374-0.916c-0.082-0.055-0.178-0.084-0.277-0.084h-0.867
			l-3.385-1.934c-0.155-0.089-0.345-0.088-0.499,0.001C12.595,8.158,12.5,8.323,12.5,8.501c0,1.273,0.679,2.265,1.465,3.414
			c1.078,1.575,2.393,3.538,2.512,7.086H7.519c0.131-2.048,0.957-5.342,0.966-5.378c0.035-0.138,0.008-0.286-0.072-0.404
			c-0.08-0.118-0.208-0.196-0.35-0.214c-1.132-0.144-2.422-0.39-3.155-0.616C7.095,10.465,7.5,9.069,7.5,7.001
			c0-2.069,1.296-3.589,1.853-4.147c1.02-1.019,3.712-1.322,4.729-1.36l2.286-0.381l-0.358,1.79c-0.028,0.14,0.005,0.284,0.09,0.398
			l1.4,1.867v0.833c0,0.087,0.023,0.172,0.066,0.248L19.5,9.634V11.001z"/>
	</g>
</g>
</svg>
