<?xml version="1.0" encoding="utf-8"?>
<!-- Generator: Adobe Illustrator 19.0.0, SVG Export Plug-In . SVG Version: 6.00 Build 0)  -->
<svg version="1.1" id="Layer_1" xmlns="http://www.w3.org/2000/svg" xmlns:xlink="http://www.w3.org/1999/xlink" x="0px" y="0px"
	 viewBox="0 0 30 30" style="enable-background:new 0 0 30 30;" xml:space="preserve">
<g>
	<g>
		<path d="M18,30c-6,0-14.5-3.1-14.5-10c0-6.4,4.6-14,8.5-14c0.3,0,0.5,0.2,0.5,0.5S12.3,7,12,7c-3.1,0-7.5,6.7-7.5,13
			c0,6.2,7.9,9,13.5,9c6.7,0,11-4.3,11-11c0-7.2-7.6-11-7.7-11.1C21.1,6.9,21,6.7,21,6.5C21,3.4,17.1,1,15.5,1C14,1,13,1.4,13,2
			c0.1,0.6,3.3,3,4.5,3C17.8,5,18,5.2,18,5.5S17.8,6,17.5,6C15.9,6,12,3.3,12,2c0-1.2,1.3-2,3.5-2c2.1,0,6.3,2.7,6.5,6.2
			c1.4,0.8,8,4.7,8,11.8C30,25.3,25.3,30,18,30z"/>
	</g>
	<g>
		<path d="M12.5,7C11.6,7,9,7,9,4.5c0-0.4,0.1-0.8,0.4-1.1C10,2.9,11.1,2.9,12.4,3c0.4,0,0.8,0,1.1,0C13.8,3,14,3.2,14,3.5
			S13.8,4,13.5,4c-0.4,0-0.8,0-1.2,0c-0.9,0-1.9-0.1-2.2,0.2c0,0-0.1,0.1-0.1,0.3C10,5.3,10.3,6,12.5,6C12.8,6,13,6.2,13,6.5
			S12.8,7,12.5,7z"/>
	</g>
	<g>
		<path d="M4.5,16c-0.2,0-0.3-0.1-0.4-0.2l-2-3c-0.2-0.2-0.1-0.5,0.1-0.7c0.2-0.2,0.5-0.1,0.7,0.1l2,3c0.2,0.2,0.1,0.5-0.1,0.7
			C4.7,16,4.6,16,4.5,16z"/>
	</g>
	<g>
		<path d="M4,17H0.5C0.2,17,0,16.8,0,16.5v-2c0-0.2,0.1-0.3,0.2-0.4c0.2-0.1,0.3-0.1,0.5,0l3.5,2c0.2,0.1,0.3,0.3,0.2,0.6
			S4.2,17,4,17z M1,16h1.1L1,15.4V16z"/>
	</g>
	<g>
		<path d="M1.5,19c-0.2,0-0.3-0.1-0.4-0.2c-0.1-0.2-0.1-0.5,0.2-0.7l2.5-1.5c0.2-0.1,0.5-0.1,0.7,0.2c0.1,0.2,0.1,0.5-0.2,0.7
			l-2.5,1.5C1.7,19,1.6,19,1.5,19z"/>
	</g>
	<g>
		<path d="M20.3,19.9c-0.1,0-0.3,0-0.4-0.1c-0.4-0.3-2.6-0.4-3,0c-0.2,0.2-0.5,0.2-0.7,0s-0.2-0.5,0-0.7c0.9-0.9,3.8-0.6,4.5,0
			c0.2,0.2,0.2,0.5,0,0.7C20.5,19.9,20.4,19.9,20.3,19.9z"/>
	</g>
	<g>
		<path d="M17.2,19.1c-0.1,0-0.3,0-0.4-0.1c-0.4-0.4-0.8-1.2-0.8-2c0-0.7,0.3-1.3,0.8-1.8c0.2-0.2,0.5-0.2,0.7,0
			c0.2,0.2,0.2,0.5,0,0.7C17.2,16.2,17,16.5,17,17c0,0.6,0.3,1.1,0.5,1.3c0.2,0.2,0.2,0.5,0,0.7C17.4,19.1,17.3,19.1,17.2,19.1z"/>
	</g>
	<g>
		<path d="M22.5,19c-0.1,0-0.2,0-0.2-0.1l-7-4c-0.2-0.1-0.3-0.4-0.2-0.7l1-2c0.1-0.1,0.2-0.2,0.3-0.3c0.1,0,0.3,0,0.4,0.1l5.7,3.8
			l5.2-3.3c0.2-0.1,0.5-0.1,0.7,0.2c0.1,0.2,0.1,0.5-0.2,0.7l-5.5,3.5c-0.2,0.1-0.4,0.1-0.5,0l-5.5-3.7l-0.5,1.1l6.3,3.6l5.9-3.5
			c0.2-0.1,0.5-0.1,0.7,0.2c0.1,0.2,0.1,0.5-0.2,0.7l-6.1,3.6C22.7,19,22.6,19,22.5,19z"/>
	</g>
	<g>
		<path d="M27.5,25c-0.1,0-0.2,0-0.3-0.1c0,0-1.9-1.4-4.2-1.4c-1,0-1.9-0.3-2.6-0.5c-1.2-0.4-1.8-0.5-2.5,0.3
			c-0.1,0.2-0.4,0.2-0.6,0.2C17.1,23.4,17,23.2,17,23c0-2.1,3.8-4.6,5.4-5c0.1,0,0.2,0,0.3,0c1.2,0.5,5.8,3.7,5.8,6
			c0,0.3-0.2,0.5-0.5,0.5l0,0c0,0.1,0,0.2-0.1,0.3C27.8,24.9,27.6,25,27.5,25z M19,21.7c0.6,0,1.1,0.2,1.7,0.4
			c0.7,0.2,1.4,0.5,2.3,0.5c2.1,0,3.8,0.9,4.5,1.4c-0.2-1.5-3.5-4.2-5-4.9c-1.1,0.3-2.9,1.5-3.8,2.7C18.8,21.7,18.9,21.7,19,21.7z"
			/>
	</g>
	<g>
		<path d="M22,27c-0.1,0-0.1,0-0.2,0c-0.5-0.2-4.8-1.7-4.8-4c0-0.3,0.2-0.5,0.5-0.5S18,22.7,18,23c0,1.1,2.3,2.4,4,3
			c0.5-0.3,2-1.3,3.2-2.6c0.2-0.2,0.5-0.2,0.7-0.1c0.2,0.2,0.2,0.5,0.1,0.7c-1.5,1.9-3.6,3-3.7,3C22.2,27,22.1,27,22,27z"/>
	</g>
	<g>
		<path d="M19.9,25.4c-0.1,0-0.3,0-0.4-0.1c-0.2-0.2-0.2-0.5,0-0.7c0.6-0.6,2.8-1.7,3.2-2c0.2-0.1,0.5,0,0.7,0.2
			c0.1,0.2,0,0.5-0.2,0.7c-1,0.5-2.7,1.4-3,1.8C20.1,25.3,20,25.4,19.9,25.4z"/>
	</g>
	<g>
		<path d="M24.5,20c-0.1,0-0.3,0-0.4-0.1c-0.2-0.2-0.2-0.5,0-0.7l0.1-0.1c0.4-0.4,1-1.1,2.2-1.2c0-0.5,0-0.7-0.3-0.9
			c-0.2-0.2-0.3-0.5-0.1-0.7c0.2-0.2,0.5-0.3,0.7-0.1c0.8,0.5,0.7,1.2,0.7,1.8c0,0.1,0,0.3,0,0.4c0,0.1,0,0.3-0.1,0.4
			s-0.2,0.2-0.4,0.2c-1.1,0-1.6,0.5-2,0.9l-0.1,0.2C24.8,20,24.6,20,24.5,20z"/>
	</g>
	<g>
		<path d="M8,26.6c-0.1,0-0.3,0-0.4-0.1c-0.2-0.2-0.2-0.5,0-0.7C10.8,22.6,14.3,21,18,21c0.3,0,0.5,0.2,0.5,0.5S18.3,22,18,22
			c-3.4,0-6.7,1.5-9.6,4.5C8.3,26.6,8.1,26.6,8,26.6z"/>
	</g>
	<g>
		<circle cx="25" cy="18" r="1"/>
	</g>
	<g>
		<circle cx="19" cy="18" r="1"/>
	</g>
</g>
</svg>
