<?xml version="1.0" encoding="utf-8"?>
<!-- Generator: Adobe Illustrator 19.0.0, SVG Export Plug-In . SVG Version: 6.00 Build 0)  -->
<svg version="1.1" id="Layer_1" xmlns="http://www.w3.org/2000/svg" xmlns:xlink="http://www.w3.org/1999/xlink" x="0px" y="0px"
	 viewBox="0 0 30 30" style="enable-background:new 0 0 30 30;" xml:space="preserve">
<g>
	<g>
		<path d="M28.3,30h-2.5c-1.1,0-1.9-0.6-2.4-1.7L20.1,22H9.8l-3.2,6.6C6.1,29.5,5.2,30,4.2,30H1.8c-1,0-1.7-0.8-1.8-1.7
			c0-0.9,0.1-1.8,0.4-2.6l0.5-1.7c0.5-1.6,0.3-4.3-0.4-6c-0.4-1.1-0.6-2.3-0.4-3.5c0.4-2.6,2.5-4.7,5.3-5.3C7.4,8.7,9.2,9,10.7,10
			h8.7c1.4-1,3.2-1.3,5.3-0.8c2.7,0.6,4.9,2.9,5.3,5.5c0.2,1.2,0.1,2.4-0.4,3.5l0,0c-0.7,1.7-0.8,4.1-0.4,5.7l0.5,1.7
			c0.2,0.8,0.4,1.7,0.4,2.6C30,29.2,29.2,30,28.3,30z M9.5,21h10.9c0.2,0,0.4,0.1,0.4,0.3l3.4,6.6c0.3,0.7,0.8,1.1,1.5,1.1h2.5
			c0.4,0,0.7-0.3,0.8-0.7c0-0.8-0.1-1.6-0.3-2.3l-0.5-1.7c-0.5-1.8-0.3-4.4,0.4-6.4l0,0c0.4-0.9,0.5-2,0.3-3
			c-0.3-2.3-2.2-4.2-4.5-4.7c-1.8-0.4-3.4-0.1-4.6,0.8C19.7,11,19.6,11,19.5,11h-9c-0.1,0-0.2,0-0.3-0.1C9,10,7.4,9.7,5.5,10.1
			c-2.4,0.5-4.1,2.3-4.5,4.5c-0.2,1,0,2.1,0.3,3c0.8,1.9,0.9,4.8,0.4,6.6l-0.5,1.7C1.1,26.7,1,27.5,1,28.3C1,28.7,1.3,29,1.8,29h2.5
			c0.6,0,1.2-0.3,1.5-0.9l3.4-6.9C9.1,21.1,9.3,21,9.5,21z"/>
	</g>
	<g>
		<path d="M7.5,20h-2C5.2,20,5,19.8,5,19.5V17H2.5C2.2,17,2,16.8,2,16.5v-2C2,14.2,2.2,14,2.5,14H5v-2.5C5,11.2,5.2,11,5.5,11h2
			C7.8,11,8,11.2,8,11.5V14h2.5c0.3,0,0.5,0.2,0.5,0.5v2c0,0.3-0.2,0.5-0.5,0.5H8v2.5C8,19.8,7.8,20,7.5,20z M6,19h1v-2.5
			C7,16.2,7.2,16,7.5,16H10v-1H7.5C7.2,15,7,14.8,7,14.5V12H6v2.5C6,14.8,5.8,15,5.5,15H3v1h2.5C5.8,16,6,16.2,6,16.5V19z"/>
	</g>
	<g>
		<path d="M12.5,20h-1c-0.3,0-0.5-0.2-0.5-0.5s0.2-0.5,0.5-0.5h1c0.3,0,0.5,0.2,0.5,0.5S12.8,20,12.5,20z"/>
	</g>
	<g>
		<path d="M17.5,20h-1c-0.3,0-0.5-0.2-0.5-0.5s0.2-0.5,0.5-0.5h1c0.3,0,0.5,0.2,0.5,0.5S17.8,20,17.5,20z"/>
	</g>
	<g>
		<path d="M17.5,11c-0.1,0-0.3,0-0.4-0.1L15.3,9h-0.6l-1.9,1.9c-0.2,0.2-0.5,0.2-0.7,0s-0.2-0.5,0-0.7l2-2C14.2,8.1,14.4,8,14.5,8h1
			c0.1,0,0.3,0.1,0.4,0.1l2,2c0.2,0.2,0.2,0.5,0,0.7C17.8,11,17.6,11,17.5,11z"/>
	</g>
	<g>
		<path d="M15,9c-0.3,0-0.5-0.2-0.5-0.5c0-5.5,2.8-8.5,8-8.5C22.8,0,23,0.2,23,0.5S22.8,1,22.5,1c-4.6,0-7,2.5-7,7.5
			C15.5,8.8,15.3,9,15,9z"/>
	</g>
	<g>
		<path d="M23.5,15c-0.8,0-1.5-0.7-1.5-1.5s0.7-1.5,1.5-1.5s1.5,0.7,1.5,1.5S24.3,15,23.5,15z M23.5,13c-0.3,0-0.5,0.2-0.5,0.5
			s0.2,0.5,0.5,0.5s0.5-0.2,0.5-0.5S23.8,13,23.5,13z"/>
	</g>
	<g>
		<path d="M23.5,19c-0.8,0-1.5-0.7-1.5-1.5s0.7-1.5,1.5-1.5s1.5,0.7,1.5,1.5S24.3,19,23.5,19z M23.5,17c-0.3,0-0.5,0.2-0.5,0.5
			s0.2,0.5,0.5,0.5s0.5-0.2,0.5-0.5S23.8,17,23.5,17z"/>
	</g>
	<g>
		<path d="M21.5,17c-0.8,0-1.5-0.7-1.5-1.5s0.7-1.5,1.5-1.5s1.5,0.7,1.5,1.5S22.3,17,21.5,17z M21.5,15c-0.3,0-0.5,0.2-0.5,0.5
			s0.2,0.5,0.5,0.5s0.5-0.2,0.5-0.5S21.8,15,21.5,15z"/>
	</g>
	<g>
		<path d="M25.5,17c-0.8,0-1.5-0.7-1.5-1.5s0.7-1.5,1.5-1.5s1.5,0.7,1.5,1.5S26.3,17,25.5,17z M25.5,15c-0.3,0-0.5,0.2-0.5,0.5
			s0.2,0.5,0.5,0.5s0.5-0.2,0.5-0.5S25.8,15,25.5,15z"/>
	</g>
</g>
</svg>
