<?xml version="1.0" encoding="utf-8"?>
<!-- Generator: Adobe Illustrator 19.0.0, SVG Export Plug-In . SVG Version: 6.00 Build 0)  -->
<svg version="1.1" id="Layer_1" xmlns="http://www.w3.org/2000/svg" xmlns:xlink="http://www.w3.org/1999/xlink" x="0px" y="0px"
	 viewBox="0 0 30 30" style="enable-background:new 0 0 30 30;" xml:space="preserve">
<g>
	<g>
		<path d="M27,30c-2,0-2.9-1.1-3.8-2.2c-0.3-0.3-0.6-0.7-0.9-1C21.2,25.6,18.5,25,15,25s-6.2,0.6-7.3,1.7c-0.3,0.3-0.6,0.7-0.9,1
			C5.9,28.9,5,30,3,30c-3,0-3-3.8-3-6.1C0,16.4,4.3,9,7.5,9c1.4,0,2.2,0.4,3.1,0.9c1,0.5,2,1.1,4.4,1.1s3.4-0.6,4.4-1.1
			C20.3,9.4,21.1,9,22.5,9c3.2,0,7.5,7.4,7.5,14.9C30,26.2,30,30,27,30z M15,24c2.2,0,6.2,0.3,8,2c0.4,0.4,0.7,0.7,1,1.1
			c0.8,1,1.5,1.9,3.1,1.9c1.7,0,2-1.9,2-5.1c0-7.6-4.3-13.9-6.5-13.9c-1.2,0-1.8,0.3-2.6,0.8C18.8,11.4,17.6,12,15,12
			s-3.8-0.6-4.9-1.2C9.3,10.3,8.7,10,7.5,10C5.3,10,1,16.3,1,23.9C1,27.1,1.3,29,3,29c1.6,0,2.2-0.8,3.1-1.9c0.3-0.4,0.6-0.8,1-1.1
			C8.8,24.3,12.8,24,15,24z"/>
	</g>
	<g>
		<path d="M10.5,22c-0.3,0-0.5-0.2-0.5-0.5v-2c0-0.3,0.2-0.5,0.5-0.5s0.5,0.2,0.5,0.5v2C11,21.8,10.8,22,10.5,22z"/>
	</g>
	<g>
		<path d="M11.5,21h-2C9.2,21,9,20.8,9,20.5S9.2,20,9.5,20h2c0.3,0,0.5,0.2,0.5,0.5S11.8,21,11.5,21z"/>
	</g>
	<g>
		<path d="M17,11.5c-0.2,0-0.3-0.1-0.4-0.2L15.7,10h-1.5l-0.9,1.3c-0.2,0.2-0.5,0.3-0.7,0.1c-0.2-0.2-0.3-0.5-0.1-0.7l1-1.5
			C13.7,9.1,13.8,9,14,9h2c0.2,0,0.3,0.1,0.4,0.2l1,1.5c0.2,0.2,0.1,0.5-0.1,0.7C17.2,11.5,17.1,11.5,17,11.5z"/>
	</g>
	<g>
		<path d="M15,10c-0.3,0-0.5-0.2-0.5-0.5c0-6.3,2.4-9.5,7-9.5C21.8,0,22,0.2,22,0.5S21.8,1,21.5,1c-4,0-6,2.8-6,8.5
			C15.5,9.8,15.3,10,15,10z"/>
	</g>
	<g>
		<path d="M7.5,17C6.1,17,5,15.9,5,14.5S6.1,12,7.5,12s2.5,1.1,2.5,2.5S8.9,17,7.5,17z M7.5,13C6.7,13,6,13.7,6,14.5S6.7,16,7.5,16
			S9,15.3,9,14.5S8.3,13,7.5,13z"/>
	</g>
	<g>
		<path d="M19.5,22c-0.8,0-1.5-0.7-1.5-1.5s0.7-1.5,1.5-1.5s1.5,0.7,1.5,1.5S20.3,22,19.5,22z M19.5,20c-0.3,0-0.5,0.2-0.5,0.5
			s0.2,0.5,0.5,0.5s0.5-0.2,0.5-0.5S19.8,20,19.5,20z"/>
	</g>
	<g>
		<circle cx="22.5" cy="16.5" r="0.5"/>
	</g>
	<g>
		<circle cx="21.5" cy="12.5" r="0.5"/>
	</g>
	<g>
		<circle cx="23.5" cy="14.5" r="0.5"/>
	</g>
	<g>
		<circle cx="20.5" cy="14.5" r="0.5"/>
	</g>
</g>
</svg>
