<?xml version="1.0" encoding="utf-8"?>
<!-- Generator: Adobe Illustrator 19.0.0, SVG Export Plug-In . SVG Version: 6.00 Build 0)  -->
<svg version="1.1" id="Layer_1" xmlns="http://www.w3.org/2000/svg" xmlns:xlink="http://www.w3.org/1999/xlink" x="0px" y="0px"
	 viewBox="0 0 30 30" style="enable-background:new 0 0 30 30;" xml:space="preserve">
<g>
	<g>
		<path d="M16.8,14.3c-0.2,0-0.3-0.1-0.4-0.2l-1.1-1.7h-0.7L13.4,14c-0.2,0.2-0.5,0.3-0.7,0.1c-0.2-0.2-0.3-0.5-0.1-0.7l1.3-1.9
			c0.1-0.1,0.2-0.2,0.4-0.2h1.3c0.2,0,0.3,0.1,0.4,0.2l1.3,1.9c0.2,0.2,0.1,0.5-0.1,0.7C16.9,14.2,16.8,14.3,16.8,14.3z"/>
	</g>
	<g>
		<path d="M14.9,12.4c-0.3,0-0.5-0.2-0.5-0.5c0-5.3,3.3-8.6,8.6-8.6c0.3,0,0.5,0.2,0.5,0.5S23.3,4.3,23,4.3c-4.8,0-7.6,2.9-7.6,7.6
			C15.4,12.2,15.2,12.4,14.9,12.4z"/>
	</g>
	<g>
		<path d="M7.5,24.8h-2c-0.3,0-0.5-0.2-0.5-0.5v-2.5H2.5c-0.3,0-0.5-0.2-0.5-0.5v-2c0-0.3,0.2-0.5,0.5-0.5H5v-2.5
			c0-0.3,0.2-0.5,0.5-0.5h2C7.8,15.8,8,16,8,16.3v2.5h2.5c0.3,0,0.5,0.2,0.5,0.5v2c0,0.3-0.2,0.5-0.5,0.5H8v2.5
			C8,24.5,7.8,24.8,7.5,24.8z M6,23.8h1v-2.5c0-0.3,0.2-0.5,0.5-0.5H10v-1H7.5c-0.3,0-0.5-0.2-0.5-0.5v-2.5H6v2.5
			c0,0.3-0.2,0.5-0.5,0.5H3v1h2.5C5.8,20.8,6,21,6,21.3V23.8z"/>
	</g>
	<g>
		<path d="M13.5,22.8h-1c-0.3,0-0.5-0.2-0.5-0.5s0.2-0.5,0.5-0.5h1c0.3,0,0.5,0.2,0.5,0.5S13.8,22.8,13.5,22.8z"/>
	</g>
	<g>
		<path d="M17.5,22.8h-1c-0.3,0-0.5-0.2-0.5-0.5s0.2-0.5,0.5-0.5h1c0.3,0,0.5,0.2,0.5,0.5S17.8,22.8,17.5,22.8z"/>
	</g>
	<g>
		<path d="M23.5,19.8c-0.8,0-1.5-0.7-1.5-1.5s0.7-1.5,1.5-1.5s1.5,0.7,1.5,1.5S24.3,19.8,23.5,19.8z M23.5,17.8
			c-0.3,0-0.5,0.2-0.5,0.5s0.2,0.5,0.5,0.5s0.5-0.2,0.5-0.5S23.8,17.8,23.5,17.8z"/>
	</g>
	<g>
		<path d="M23.5,23.8c-0.8,0-1.5-0.7-1.5-1.5s0.7-1.5,1.5-1.5s1.5,0.7,1.5,1.5S24.3,23.8,23.5,23.8z M23.5,21.8
			c-0.3,0-0.5,0.2-0.5,0.5s0.2,0.5,0.5,0.5s0.5-0.2,0.5-0.5S23.8,21.8,23.5,21.8z"/>
	</g>
	<g>
		<path d="M21.5,21.8c-0.8,0-1.5-0.7-1.5-1.5s0.7-1.5,1.5-1.5s1.5,0.7,1.5,1.5S22.3,21.8,21.5,21.8z M21.5,19.8
			c-0.3,0-0.5,0.2-0.5,0.5s0.2,0.5,0.5,0.5s0.5-0.2,0.5-0.5S21.8,19.8,21.5,19.8z"/>
	</g>
	<g>
		<path d="M25.5,21.8c-0.8,0-1.5-0.7-1.5-1.5s0.7-1.5,1.5-1.5s1.5,0.7,1.5,1.5S26.3,21.8,25.5,21.8z M25.5,19.8
			c-0.3,0-0.5,0.2-0.5,0.5s0.2,0.5,0.5,0.5s0.5-0.2,0.5-0.5S25.8,19.8,25.5,19.8z"/>
	</g>
	<g>
		<path d="M23.5,26.8c-1.8,0-3.5-0.7-4.7-2h-7.6c-1.2,1.3-2.9,2-4.7,2c-3.6,0-6.5-2.9-6.5-6.5s2.9-6.5,6.5-6.5h17
			c3.6,0,6.5,2.9,6.5,6.5S27.1,26.8,23.5,26.8z M11,23.8H19c0.1,0,0.3,0.1,0.4,0.2c1,1.2,2.5,1.8,4.1,1.8c3,0,5.5-2.5,5.5-5.5
			s-2.5-5.5-5.5-5.5h-17c-3,0-5.5,2.5-5.5,5.5s2.5,5.5,5.5,5.5c1.6,0,3-0.7,4.1-1.8C10.7,23.8,10.8,23.8,11,23.8z"/>
	</g>
</g>
</svg>
