<?xml version="1.0" encoding="utf-8"?>
<!-- Generator: Adobe Illustrator 19.0.0, SVG Export Plug-In . SVG Version: 6.00 Build 0)  -->
<svg version="1.1" id="Layer_1" xmlns="http://www.w3.org/2000/svg" xmlns:xlink="http://www.w3.org/1999/xlink" x="0px" y="0px"
	 viewBox="0 0 30 30" style="enable-background:new 0 0 30 30;" xml:space="preserve">
<g>
	<g>
		<path d="M16.7,30c-4,0-7.8-1.6-10.6-4.4S1.7,19,1.7,15S3.3,7.2,6.1,4.4c5.8-5.8,15.4-5.8,21.2,0c0.1,0.1,0.1,0.2,0.1,0.4
			S27.4,5,27.3,5.1l-10.2,9.5l11,9.3c0.1,0.1,0.2,0.2,0.2,0.3s0,0.3-0.1,0.4c-0.3,0.3-0.5,0.6-0.8,0.9C24.5,28.4,20.7,30,16.7,30z
			 M16.7,1c-3.6,0-7.2,1.4-9.9,4.1C4.2,7.7,2.7,11.3,2.7,15s1.5,7.3,4.1,9.9C9.5,27.5,13,29,16.7,29s7.3-1.5,9.9-4.1
			c0.2-0.2,0.3-0.3,0.5-0.5L16,15c-0.1-0.1-0.2-0.2-0.2-0.4c0-0.1,0.1-0.3,0.2-0.4l10.2-9.6C23.6,2.2,20.1,1,16.7,1z"/>
	</g>
	<g>
		<path d="M17.7,8c-1.1,0-2-0.9-2-2s0.9-2,2-2s2,0.9,2,2S18.8,8,17.7,8z M17.7,5c-0.6,0-1,0.4-1,1s0.4,1,1,1s1-0.4,1-1
			S18.3,5,17.7,5z"/>
	</g>
</g>
</svg>
