<?xml version="1.0" encoding="utf-8"?>
<!-- Generator: Adobe Illustrator 19.0.0, SVG Export Plug-In . SVG Version: 6.00 Build 0)  -->
<svg version="1.1" id="Layer_1" xmlns="http://www.w3.org/2000/svg" xmlns:xlink="http://www.w3.org/1999/xlink" x="0px" y="0px"
	 viewBox="0 0 30 30" style="enable-background:new 0 0 30 30;" xml:space="preserve">
<style type="text/css">
	.st0{fill:none;stroke:#000000;stroke-linecap:round;stroke-linejoin:round;stroke-miterlimit:10;}
</style>
<g>
	<g>
		<path d="M10.5,27.5c-3.3,0-5.2-1.9-6.2-3l0,0c-1.4-0.1-3.3-0.8-3.3-2c0-0.3,0.1-0.6,0.3-0.7c0.2-0.1,0.4-0.2,0.6-0.3
			C0,18.7,1.1,14.9,1.5,14C1.1,13.2,0,10.3,0,9c0-0.3,0.1-0.6,0.4-0.8c0.9-0.7,3.8-0.1,5,0.2C6.5,7.3,11.7,2.5,18,2.5
			c6.9,0,10.7,4,10.9,4.2C29,6.8,29,7,29,7.2c-0.1,0.2-0.3,0.3-0.5,0.3c-1.5,0-4.2,1.7-5.8,3.1c4.7,0.8,7.2,6,7.3,6.2
			c0.1,0.1,0.1,0.3,0,0.4c-0.1,0.1-0.2,0.2-0.3,0.3c0,0-2.9,0.7-4.9,2.2c3,0.8,4.1,4.3,4.3,6.3c0,0.2,0,0.3-0.2,0.4
			c-0.1,0.1-0.3,0.1-0.4,0.1c0,0-4.6-1-7.9-1c-1.6,0-3.3,0.5-5,1C13.9,27,12.2,27.5,10.5,27.5z M2.4,22.4c-0.2,0-0.4,0-0.5,0.1
			c0,0.3,1.2,1,2.5,1c0.1,0,0.3,0.1,0.4,0.1L5,23.8c1,1,2.6,2.7,5.5,2.7c1.5,0,3.1-0.5,4.7-1c1.7-0.5,3.5-1,5.3-1
			c2.7,0,6,0.6,7.4,0.9c-0.3-1.5-1.2-4.9-4.4-4.9c-0.2,0-0.4-0.1-0.5-0.3s0-0.4,0.1-0.5c1.7-1.7,4.4-2.6,5.6-3
			c-0.8-1.4-3.3-5.2-7.3-5.2c-0.2,0-0.4-0.1-0.5-0.3c-0.1-0.2,0-0.4,0.1-0.5c1.1-1.1,3.9-3.4,6.2-4C26,5.6,22.8,3.5,18,3.5
			c-6.5,0-12.1,5.8-12.1,5.8C5.7,9.5,5.5,9.5,5.4,9.5C3.4,9,1.3,8.7,1,9c0,1,1.1,3.8,1.5,4.8c0,0.1,0.1,0.3,0,0.4
			c0,0-1.8,4.7,0.9,7.5c0.2,0.2,0.2,0.4,0.1,0.6c-0.1,0.2-0.3,0.3-0.5,0.3C2.8,22.5,2.6,22.4,2.4,22.4z"/>
	</g>
	<g>
		<path d="M11,23.5c-1.4,0-2.2-0.3-3-0.5c-0.7-0.2-1.3-0.5-2.5-0.5H3c-0.3,0-0.5-0.2-0.5-0.5s0.2-0.5,0.5-0.5h2.5
			c1.4,0,2.1,0.3,2.9,0.5c0.7,0.2,1.4,0.5,2.6,0.5c2.2,0,3-4.4,3-5.5c0-0.9-0.1-5.5-3-5.5c-1.7,0-2.7,2.4-3.5,4.3
			c-0.7,1.6-1.2,2.7-2,2.7c-0.9,0-1.2-1-1.5-1.8c-0.4-1.3-0.7-2.2-2-2.2c-0.3,0-0.5-0.2-0.5-0.5s0.2-0.5,0.5-0.5
			c2.1,0,2.6,1.8,3,2.9c0.1,0.5,0.3,1.1,0.5,1.1c0.3-0.1,0.8-1.3,1.1-2.1c0.9-2.2,2.1-4.9,4.4-4.9c3.8,0,4,5.4,4,6.5
			C15,18,14.3,23.5,11,23.5z"/>
	</g>
	<g>
		<path class="st0" d="M11.8,16.4"/>
	</g>
	<g>
		<path d="M12.5,21.5c-0.7,0-1-1-1-3s0.3-3,1-3s1,1,1,3S13.2,21.5,12.5,21.5z"/>
	</g>
	<g>
		<path d="M4.5,21.5c-0.7,0-1-1-1-2s0.3-2,1-2s1,1,1,2S5.2,21.5,4.5,21.5z"/>
	</g>
</g>
</svg>
