<?xml version="1.0" encoding="utf-8"?>
<!-- Generator: Adobe Illustrator 19.0.0, SVG Export Plug-In . SVG Version: 6.00 Build 0)  -->
<svg version="1.1" id="Layer_1" xmlns="http://www.w3.org/2000/svg" xmlns:xlink="http://www.w3.org/1999/xlink" x="0px" y="0px"
	 viewBox="0 0 30 30" style="enable-background:new 0 0 30 30;" xml:space="preserve">
<g>
	<g>
		<path d="M4.5,13c-0.2,0-0.3-0.1-0.4-0.2C3.7,12.2,0,6.8,0,4.5C0,2,2,0,4.5,0S9,2,9,4.5c0,2.3-3.7,7.7-4.1,8.3
			C4.8,12.9,4.7,13,4.5,13z M4.5,1C2.6,1,1,2.6,1,4.5C1,6,3.2,9.7,4.5,11.6C5.8,9.7,8,6,8,4.5C8,2.6,6.4,1,4.5,1z"/>
	</g>
	<g>
		<path d="M24.5,30c-0.2,0-0.3-0.1-0.4-0.3c-0.2-0.4-5.1-9-5.1-12c0-3.2,2.5-5.7,5.5-5.7s5.5,2.6,5.5,5.7c0,3-4.9,11.6-5.1,12
			C24.8,29.9,24.7,30,24.5,30z M24.5,13C22,13,20,15.1,20,17.7c0,2.1,2.9,7.9,4.5,10.7c1.6-2.9,4.5-8.7,4.5-10.7
			C29,15.1,27,13,24.5,13z"/>
	</g>
	<g>
		<path d="M22.5,30c-0.7,0-1.4,0-2.1-0.1c-0.3,0-0.5-0.3-0.4-0.6s0.3-0.5,0.6-0.4c0.6,0.1,1.2,0.1,1.9,0.1c0.3,0,0.5,0.2,0.5,0.5
			S22.8,30,22.5,30z M18.6,29.3c-0.1,0-0.1,0-0.2,0c-0.7-0.3-1.3-0.7-1.8-1.1c-0.2-0.2-0.2-0.5,0-0.7c0.2-0.2,0.5-0.2,0.7,0
			c0.4,0.4,0.9,0.7,1.5,1c0.3,0.1,0.4,0.4,0.3,0.7C19,29.2,18.8,29.3,18.6,29.3z M15.7,26.7c-0.2,0-0.3-0.1-0.4-0.3
			c-0.3-0.6-0.6-1.2-0.8-2c-0.1-0.3,0.1-0.5,0.3-0.6c0.3-0.1,0.5,0.1,0.6,0.3c0.2,0.7,0.4,1.3,0.7,1.8c0.1,0.2,0,0.5-0.2,0.7
			C15.9,26.7,15.8,26.7,15.7,26.7z M14.6,22.9c-0.2,0-0.5-0.2-0.5-0.4c-0.1-0.7-0.2-1.3-0.3-2c0-0.3,0.2-0.5,0.4-0.6
			c0.3,0,0.5,0.2,0.6,0.4c0.1,0.7,0.2,1.3,0.3,2C15.1,22.6,14.9,22.9,14.6,22.9C14.6,22.9,14.6,22.9,14.6,22.9z M14.1,19
			c-0.2,0-0.5-0.2-0.5-0.4c-0.1-0.8-0.2-1.4-0.4-1.9c-0.1-0.3,0.1-0.5,0.4-0.6c0.3-0.1,0.5,0.1,0.6,0.4c0.2,0.6,0.3,1.2,0.4,2
			C14.6,18.7,14.4,18.9,14.1,19C14.1,18.9,14.1,19,14.1,19z M12.9,15.1c-0.2,0-0.4-0.1-0.4-0.3c-0.3-0.6-0.7-1-1.1-1.4
			c-0.2-0.2-0.2-0.5,0-0.7c0.2-0.2,0.5-0.2,0.7,0c0.5,0.5,1,1,1.3,1.7c0.1,0.2,0,0.5-0.2,0.7C13.1,15.1,13,15.1,12.9,15.1z M10,12.6
			c-0.1,0-0.1,0-0.2,0c-0.5-0.2-1.1-0.4-1.8-0.4c-0.3,0-0.5-0.3-0.4-0.6c0-0.3,0.3-0.5,0.6-0.4c0.7,0.1,1.4,0.3,2,0.5
			c0.3,0.1,0.4,0.4,0.3,0.6C10.4,12.4,10.2,12.6,10,12.6z"/>
	</g>
	<g>
		<path d="M4.5,6C3.7,6,3,5.3,3,4.5S3.7,3,4.5,3S6,3.7,6,4.5S5.3,6,4.5,6z M4.5,4C4.2,4,4,4.2,4,4.5S4.2,5,4.5,5S5,4.8,5,4.5
			S4.8,4,4.5,4z"/>
	</g>
	<g>
		<path d="M24.5,20c-1.4,0-2.5-1.1-2.5-2.5s1.1-2.5,2.5-2.5s2.5,1.1,2.5,2.5S25.9,20,24.5,20z M24.5,16c-0.8,0-1.5,0.7-1.5,1.5
			s0.7,1.5,1.5,1.5s1.5-0.7,1.5-1.5S25.3,16,24.5,16z"/>
	</g>
</g>
</svg>
