<?xml version="1.0" encoding="utf-8"?>
<!-- Generator: Adobe Illustrator 19.0.0, SVG Export Plug-In . SVG Version: 6.00 Build 0)  -->
<svg version="1.1" id="Layer_1" xmlns="http://www.w3.org/2000/svg" xmlns:xlink="http://www.w3.org/1999/xlink" x="0px" y="0px"
	 viewBox="0 0 30 30" style="enable-background:new 0 0 30 30;" xml:space="preserve">
<g>
	<g>
		<path d="M15,4c-0.3,0-0.5-0.2-0.5-0.5V1c0-0.3,0.2-0.5,0.5-0.5s0.5,0.2,0.5,0.5v2.5C15.5,3.8,15.3,4,15,4z"/>
	</g>
	<g>
		<path d="M29,15.5h-3c-0.3,0-0.5-0.2-0.5-0.5s0.2-0.5,0.5-0.5h3c0.3,0,0.5,0.2,0.5,0.5S29.3,15.5,29,15.5z"/>
	</g>
	<g>
		<path d="M4,15.5H1c-0.3,0-0.5-0.2-0.5-0.5s0.2-0.5,0.5-0.5h3c0.3,0,0.5,0.2,0.5,0.5S4.3,15.5,4,15.5z"/>
	</g>
	<g>
		<path d="M15,29.5c-0.3,0-0.5-0.2-0.5-0.5v-3c0-0.3,0.2-0.5,0.5-0.5s0.5,0.2,0.5,0.5v3C15.5,29.3,15.3,29.5,15,29.5z"/>
	</g>
	<g>
		<path d="M23.8,22.1c-0.1,0-0.2,0-0.3-0.1c-0.2-0.2-0.3-0.5-0.1-0.7c1.4-1.8,2.1-4,2.1-6.3c0-5.8-4.7-10.5-10.5-10.5
			c-2.3,0-4.5,0.7-6.3,2.1C8.5,6.7,8.2,6.7,8,6.5C7.9,6.3,7.9,5.9,8.1,5.8c2-1.5,4.4-2.3,6.9-2.3c6.3,0,11.5,5.2,11.5,11.5
			c0,2.5-0.8,4.9-2.3,6.9C24.1,22,24,22.1,23.8,22.1z"/>
	</g>
	<g>
		<path d="M26,26.5c-0.1,0-0.3,0-0.4-0.1l-23-23c-0.2-0.2-0.2-0.5,0-0.7s0.5-0.2,0.7,0l23,23c0.2,0.2,0.2,0.5,0,0.7
			C26.3,26.5,26.1,26.5,26,26.5z"/>
	</g>
	<g>
		<path d="M15,26.5C8.7,26.5,3.5,21.3,3.5,15c0-3.1,1.2-5.9,3.3-8.1c0.2-0.2,0.5-0.2,0.7,0c0.2,0.2,0.2,0.5,0,0.7c-2,2-3,4.6-3,7.4
			c0,5.8,4.7,10.5,10.5,10.5c2.8,0,5.4-1.1,7.4-3c0.2-0.2,0.5-0.2,0.7,0s0.2,0.5,0,0.7C20.9,25.3,18,26.5,15,26.5z"/>
	</g>
	<g>
		<path d="M15,20.5c-3,0-5.5-2.5-5.5-5.5c0-1.5,0.6-2.9,1.6-3.9c0.2-0.2,0.5-0.2,0.7,0c0.2,0.2,0.2,0.5,0,0.7
			c-0.9,0.9-1.3,2-1.3,3.2c0,2.5,2,4.5,4.5,4.5c1.2,0,2.3-0.5,3.2-1.3c0.2-0.2,0.5-0.2,0.7,0s0.2,0.5,0,0.7
			C17.8,19.9,16.5,20.5,15,20.5z"/>
	</g>
	<g>
		<path d="M19.5,17.7c-0.1,0-0.2,0-0.2-0.1C19,17.6,18.9,17.3,19,17c0.3-0.6,0.5-1.3,0.5-2c0-2.5-2-4.5-4.5-4.5
			c-0.7,0-1.4,0.2-2,0.5c-0.2,0.1-0.5,0-0.7-0.2c-0.1-0.2,0-0.5,0.2-0.7c0.8-0.4,1.6-0.6,2.5-0.6c3,0,5.5,2.5,5.5,5.5
			c0,0.9-0.2,1.7-0.6,2.5C19.8,17.6,19.7,17.7,19.5,17.7z"/>
	</g>
</g>
</svg>
