<?xml version="1.0" encoding="utf-8"?>
<!-- Generator: Adobe Illustrator 19.0.0, SVG Export Plug-In . SVG Version: 6.00 Build 0)  -->
<svg version="1.1" id="Layer_1" xmlns="http://www.w3.org/2000/svg" xmlns:xlink="http://www.w3.org/1999/xlink" x="0px" y="0px"
	 viewBox="0 0 30 30" style="enable-background:new 0 0 30 30;" xml:space="preserve">
<g>
	<g>
		<path d="M18.8,14h-7.5c-1,0-1.8-0.8-1.8-1.8V10c0-0.2,0.1-0.4,0.3-0.5l1.2-0.4l0.7-2.9C12,5.5,12.6,5,13.4,5H17
			c0.8,0,1.4,0.5,1.7,1.2l0.8,3l0.8,0.4c0.2,0.1,0.3,0.3,0.3,0.4v2.3C20.5,13.2,19.7,14,18.8,14z M10.5,10.4v1.9
			c0,0.4,0.3,0.8,0.8,0.8h7.5c0.4,0,0.8-0.3,0.8-0.8v-1.9l-0.7-0.4c-0.1-0.1-0.2-0.2-0.3-0.3l-0.8-3.1C17.6,6.2,17.3,6,17,6h-3.6
			c-0.3,0-0.6,0.2-0.7,0.5L12,9.6c0,0.2-0.2,0.3-0.3,0.4L10.5,10.4z"/>
	</g>
	<g>
		<path d="M19,10h-7.5C11.2,10,11,9.8,11,9.5S11.2,9,11.5,9H19c0.3,0,0.5,0.2,0.5,0.5S19.3,10,19,10z"/>
	</g>
	<g>
		<path d="M11,15c-0.3,0-0.5-0.2-0.5-0.5v-1c0-0.3,0.2-0.5,0.5-0.5s0.5,0.2,0.5,0.5v1C11.5,14.8,11.3,15,11,15z"/>
	</g>
	<g>
		<path d="M19,15c-0.3,0-0.5-0.2-0.5-0.5v-1c0-0.3,0.2-0.5,0.5-0.5s0.5,0.2,0.5,0.5v1C19.5,14.8,19.3,15,19,15z"/>
	</g>
	<g>
		<path d="M12,12h-2c-0.3,0-0.5-0.2-0.5-0.5S9.7,11,10,11h2c0.3,0,0.5,0.2,0.5,0.5S12.3,12,12,12z"/>
	</g>
	<g>
		<path d="M20,12h-2c-0.3,0-0.5-0.2-0.5-0.5S17.7,11,18,11h2c0.3,0,0.5,0.2,0.5,0.5S20.3,12,20,12z"/>
	</g>
	<g>
		<path d="M15,30c-0.1,0-0.2,0-0.3-0.1c-0.4-0.4-10.2-9.2-10.2-19.4C4.5,4.7,9.2,0,15,0s10.5,4.7,10.5,10.5c0,10.2-9.8,19-10.2,19.4
			C15.2,30,15.1,30,15,30z M15,1c-5.2,0-9.5,4.3-9.5,9.5c0,8.7,7.8,16.7,9.5,18.3c1.7-1.6,9.5-9.6,9.5-18.3C24.5,5.3,20.2,1,15,1z"
			/>
	</g>
</g>
</svg>
