<?xml version="1.0" encoding="utf-8"?>
<!-- Generator: Adobe Illustrator 19.0.0, SVG Export Plug-In . SVG Version: 6.00 Build 0)  -->
<svg version="1.1" id="Layer_1" xmlns="http://www.w3.org/2000/svg" xmlns:xlink="http://www.w3.org/1999/xlink" x="0px" y="0px"
	 viewBox="0 0 30 30" style="enable-background:new 0 0 30 30;" xml:space="preserve">
<g>
	<g>
		<g>
			<g>
				<path d="M26.5,24h-23c-1.7,0-3-1.3-3-3V3c0-1.7,1.3-3,3-3h23c1.7,0,3,1.3,3,3v18C29.5,22.7,28.2,24,26.5,24z M3.5,1
					c-1.1,0-2,0.9-2,2v18c0,1.1,0.9,2,2,2h23c1.1,0,2-0.9,2-2V3c0-1.1-0.9-2-2-2H3.5z"/>
			</g>
			<g>
				<path d="M23,30H6c-0.3,0-0.5-0.2-0.5-0.5V29c0-1.7,1.3-3,3-3h12c1.7,0,3,1.3,3,3v0.5C23.5,29.8,23.3,30,23,30z M6.5,29h16
					c0-1.1-0.9-2-2-2h-12C7.4,27,6.5,27.9,6.5,29z"/>
			</g>
			<g>
				<path d="M28.5,20H1c-0.3,0-0.5-0.2-0.5-0.5S0.7,19,1,19h27.5c0.3,0,0.5,0.2,0.5,0.5S28.8,20,28.5,20z"/>
			</g>
			<g>
				<path d="M25,22c-0.3,0-0.5-0.2-0.5-0.5S24.7,21,25,21h0c0.3,0,0.5,0.2,0.5,0.5S25.3,22,25,22z"/>
			</g>
			<g>
				<path d="M13,27c-0.3,0-0.5-0.2-0.5-0.5v-3c0-0.3,0.2-0.5,0.5-0.5s0.5,0.2,0.5,0.5v3C13.5,26.8,13.3,27,13,27z"/>
			</g>
			<g>
				<path d="M16,27c-0.3,0-0.5-0.2-0.5-0.5v-3c0-0.3,0.2-0.5,0.5-0.5s0.5,0.2,0.5,0.5v3C16.5,26.8,16.3,27,16,27z"/>
			</g>
			<g>
				<path d="M29,4H1.5C1.2,4,1,3.8,1,3.5S1.2,3,1.5,3H29c0.3,0,0.5,0.2,0.5,0.5S29.3,4,29,4z"/>
			</g>
		</g>
	</g>
	<g>
		<path d="M15,18c-0.2,0-0.3-0.1-0.4-0.2c-0.4-0.6-4.1-6-4.1-8.3C10.5,7,12.5,5,15,5s4.5,2,4.5,4.5c0,2.3-3.7,7.7-4.1,8.3
			C15.3,17.9,15.2,18,15,18z M15,6c-1.9,0-3.5,1.6-3.5,3.5c0,1.5,2.2,5.2,3.5,7.1c1.3-1.9,3.5-5.6,3.5-7.1C18.5,7.6,16.9,6,15,6z"/>
	</g>
	<g>
		<path d="M15,11c-0.8,0-1.5-0.7-1.5-1.5S14.2,8,15,8s1.5,0.7,1.5,1.5S15.8,11,15,11z M15,9c-0.3,0-0.5,0.2-0.5,0.5S14.7,10,15,10
			s0.5-0.2,0.5-0.5S15.3,9,15,9z"/>
	</g>
</g>
</svg>
