<?xml version="1.0" encoding="utf-8"?>
<!-- Generator: Adobe Illustrator 19.0.0, SVG Export Plug-In . SVG Version: 6.00 Build 0)  -->
<svg version="1.1" id="Layer_1" xmlns="http://www.w3.org/2000/svg" xmlns:xlink="http://www.w3.org/1999/xlink" x="0px" y="0px"
	 viewBox="0 0 30 30" style="enable-background:new 0 0 30 30;" xml:space="preserve">
<g>
	<g>
		<path d="M15,17c-3.6,0-6.5-2.9-6.5-6.5S11.4,4,15,4s6.5,2.9,6.5,6.5S18.6,17,15,17z M15,5c-3,0-5.5,2.5-5.5,5.5S12,16,15,16
			s5.5-2.5,5.5-5.5S18,5,15,5z"/>
	</g>
	<g>
		<path d="M15,30c-0.2,0-0.4-0.2-0.5-0.4l-2.1-9c-4.7-1.2-7.9-5.3-7.9-10.2C4.5,4.7,9.2,0,15,0s10.5,4.7,10.5,10.5
			c0,5-3.5,9.2-8.3,10.3l-1.7,8.8C15.4,29.8,15.2,30,15,30C15,30,15,30,15,30z M15,1c-5.2,0-9.5,4.3-9.5,9.5c0,4.5,3,8.3,7.4,9.3
			c0.2,0,0.3,0.2,0.4,0.4l1.7,7l1.3-6.9c0-0.2,0.2-0.4,0.4-0.4c4.5-0.8,7.8-4.7,7.8-9.3C24.5,5.3,20.2,1,15,1z"/>
	</g>
</g>
</svg>
