<?xml version="1.0" encoding="iso-8859-1"?>
<!-- Generator: Adobe Illustrator 19.0.0, SVG Export Plug-In . SVG Version: 6.00 Build 0)  -->
<svg version="1.1" id="Layer_1" xmlns="http://www.w3.org/2000/svg" xmlns:xlink="http://www.w3.org/1999/xlink" x="0px" y="0px"
	 viewBox="0 0 30 30" style="enable-background:new 0 0 30 30;" xml:space="preserve">
<g>
	<g>
		<path d="M20.5,7.5c-0.674,0-1.358,0.095-2.025,0.223C20.49,6.359,22,3.985,22,1c0-0.276-0.224-0.5-0.5-0.5
			c-2.72,0-5.585,1.814-6.842,4.744c-0.366-1.594-0.972-2.826-1.737-4.014c-0.148-0.232-0.459-0.298-0.691-0.15
			c-0.233,0.149-0.299,0.459-0.15,0.691c1.078,1.677,1.819,3.455,1.936,6.411c-0.003,0.092-0.013,0.18-0.014,0.273
			c-0.419-0.067-0.843-0.204-1.313-0.36C11.844,7.816,10.886,7.5,9.628,7.5C5.54,7.5,3,10.949,3,16.5c0,5.301,3.506,13,9,13
			c0.967,0,1.386-0.175,1.722-0.315c0.238-0.1,0.41-0.172,0.76-0.186c0.4,0.015,0.629,0.094,0.921,0.195
			c0.415,0.143,0.885,0.306,1.839,0.306c5.164,0,9.758-7.27,9.758-13C27,10.864,24.57,7.5,20.5,7.5z M20.981,1.527
			c-0.26,3.616-3.168,6.161-5.962,6.446C15.279,4.357,18.187,1.812,20.981,1.527z M17.243,28.5c-0.786,0-1.139-0.122-1.513-0.251
			c-0.327-0.113-0.664-0.229-1.248-0.249c-0.567,0.021-0.875,0.149-1.145,0.262c-0.293,0.122-0.57,0.238-1.336,0.238
			c-4.809,0-8-7.223-8-12c0-5.009,2.104-8,5.628-8c1.097,0,1.936,0.277,2.747,0.545C13.084,9.279,13.752,9.5,14.501,9.5h0.04
			c0.727,0,1.614-0.215,2.553-0.444C18.167,8.795,19.383,8.5,20.501,8.5c3.444,0,5.5,2.991,5.5,8
			C26.001,21.74,21.754,28.5,17.243,28.5z M9.5,9.5C6.577,9.5,5,13.364,5,17c0,0.276,0.224,0.5,0.5,0.5S6,17.276,6,17
			c0-3.126,1.338-6.5,3.5-6.5c0.276,0,0.5-0.224,0.5-0.5S9.776,9.5,9.5,9.5z"/>
	</g>
</g>
</svg>
