<?xml version="1.0" encoding="iso-8859-1"?>
<!-- Generator: Adobe Illustrator 19.0.0, SVG Export Plug-In . SVG Version: 6.00 Build 0)  -->
<svg version="1.1" id="Layer_1" xmlns="http://www.w3.org/2000/svg" xmlns:xlink="http://www.w3.org/1999/xlink" x="0px" y="0px"
	 viewBox="0 0 30 30" style="enable-background:new 0 0 30 30;" xml:space="preserve">
<g>
	<g>
		<path d="M14.5,9h0.006C14.782,8.997,15.003,8.77,15,8.494c-0.036-2.906,1.338-6.518,3.698-7.535
			c0.253-0.109,0.37-0.404,0.261-0.657c-0.109-0.254-0.404-0.37-0.657-0.261C15.455,1.267,13.961,5.318,14,8.506
			C14.004,8.78,14.227,9,14.5,9z M17,9c-1.007,0-1.62,0.162-2.438,0.432c-0.642-0.208-1.233-0.351-1.93-0.405
			C12.589,9.015,12.547,9,12.5,9c-0.059,0-0.116,0.011-0.174,0.014C12.217,9.01,12.115,9,12,9c-5.215,0-9,4.416-9,10.5
			C3,25.78,6.416,30,11.5,30c0.104,0,0.215-0.01,0.322-0.014C11.882,29.988,11.94,30,12,30c0.049,0,0.094-0.015,0.14-0.028
			c0.781-0.058,1.619-0.214,2.36-0.447c0.742,0.234,1.58,0.389,2.361,0.447C16.906,29.985,16.951,30,17,30
			c0.06,0,0.119-0.012,0.179-0.014C17.286,29.99,17.397,30,17.5,30c5.327,0,9.5-4.612,9.5-10.5C27,13.71,22.514,9,17,9z M4,19.5
			c0-4.215,1.976-7.538,4.982-8.867C7.178,12.48,6,15.724,6,19.5c0,3.942,1.063,7.174,2.754,8.968C5.495,27.102,4,23.291,4,19.5z
			 M17.178,28.985c-0.815-0.036-1.748-0.201-2.519-0.459C14.607,28.509,14.554,28.5,14.5,28.5s-0.107,0.009-0.159,0.026
			c-0.771,0.258-1.703,0.422-2.519,0.459C9.019,28.823,7,24.891,7,19.5c0-5.14,2.378-9.329,5.331-9.485
			c0.757,0.035,1.358,0.179,2.073,0.418c0.103,0.034,0.214,0.034,0.318,0C15.601,10.139,16.111,10,17,10c3.196,0,6,4.439,6,9.5
			C23,24.466,20.299,28.823,17.178,28.985z M20.749,28.301C22.686,26.41,24,23.139,24,19.5c0-3.429-1.168-6.529-2.923-8.459
			C23.994,12.615,26,15.811,26,19.5C26,23.533,23.858,26.901,20.749,28.301z M12.5,8C12.776,8,13,7.776,13,7.5
			C13,3.959,9.793,0,5.5,0C5.224,0,5,0.224,5,0.5C5,4.041,8.207,8,12.5,8z M11.973,6.977c-3.248-0.286-5.671-3.18-5.947-5.954
			C9.274,1.309,11.697,4.203,11.973,6.977z M14.629,14.017c-0.083-0.022-0.168-0.023-0.25-0.002C14.345,14.023,11,14.907,11,19
			s3.345,4.977,3.379,4.985C14.419,23.995,14.459,24,14.5,24c0.038,0,0.076-0.004,0.113-0.013C14.647,23.979,18,23.151,18,19
			C18,14.965,14.663,14.026,14.629,14.017z M14.504,22.979C13.985,22.8,12,21.926,12,19c0-2.914,1.969-3.792,2.496-3.976
			C15.027,15.217,17,16.127,17,19C17,21.967,15.019,22.81,14.504,22.979z"/>
	</g>
</g>
</svg>
