<?xml version="1.0" encoding="utf-8"?>
<!-- Generator: Adobe Illustrator 19.0.0, SVG Export Plug-In . SVG Version: 6.00 Build 0)  -->
<svg version="1.1" id="Layer_1" xmlns="http://www.w3.org/2000/svg" xmlns:xlink="http://www.w3.org/1999/xlink" x="0px" y="0px"
	 viewBox="0 0 30 30" style="enable-background:new 0 0 30 30;" xml:space="preserve">
<g>
	<path d="M29.5,29h-29C0.2,29,0,29.2,0,29.5S0.2,30,0.5,30h29c0.3,0,0.5-0.2,0.5-0.5S29.8,29,29.5,29z"/>
	<path d="M8.2,17h13.6c0.2,0,0.3-0.1,0.4-0.2s0.1-0.3,0.1-0.4l-1.6-6c-0.1-0.2-0.3-0.4-0.5-0.4H9.8c-0.2,0-0.4,0.2-0.5,0.4l-1.6,6
		c0,0.2,0,0.3,0.1,0.4S8,17,8.2,17z"/>
	<path d="M10.9,7h8.2c0.2,0,0.3-0.1,0.4-0.2s0.1-0.3,0.1-0.4l-1.6-6C17.9,0.2,17.7,0,17.5,0h-5c-0.2,0-0.4,0.2-0.5,0.4l-1.6,6
		c0,0.2,0,0.3,0.1,0.4S10.7,7,10.9,7z"/>
	<path d="M5.5,27h19c0.2,0,0.3-0.1,0.4-0.2s0.1-0.3,0.1-0.4l-1.6-6c-0.1-0.2-0.3-0.4-0.5-0.4H7.1c-0.2,0-0.4,0.2-0.5,0.4l-1.6,6
		c0,0.2,0,0.3,0.1,0.4S5.3,27,5.5,27z"/>
</g>
</svg>
