<?xml version="1.0" encoding="iso-8859-1"?>
<!-- Generator: Adobe Illustrator 19.0.0, SVG Export Plug-In . SVG Version: 6.00 Build 0)  -->
<svg version="1.1" id="Layer_1" xmlns="http://www.w3.org/2000/svg" xmlns:xlink="http://www.w3.org/1999/xlink" x="0px" y="0px"
	 viewBox="0 0 30 30" style="enable-background:new 0 0 30 30;" xml:space="preserve">
<g>
	<g>
		<path d="M19,12.5h-2c-0.276,0-0.5,0.224-0.5,0.5s0.224,0.5,0.5,0.5h1.5V15c0,0.276,0.224,0.5,0.5,0.5s0.5-0.224,0.5-0.5v-2
			C19.5,12.724,19.276,12.5,19,12.5z M25,12.5c-0.276,0-0.5,0.224-0.5,0.5v4c0,0.276,0.224,0.5,0.5,0.5s0.5-0.224,0.5-0.5v-4
			C25.5,12.724,25.276,12.5,25,12.5z M15,0.5c-3.98,0-7.589,1.614-10.212,4.219C4.774,4.73,4.758,4.735,4.746,4.747
			C4.734,4.759,4.729,4.776,4.718,4.789C2.113,7.412,0.5,11.021,0.5,15c0,7.995,6.505,14.5,14.5,14.5
			c3.983,0,7.594-1.616,10.217-4.224c0.011-0.009,0.024-0.013,0.035-0.023c0.01-0.01,0.014-0.023,0.023-0.034
			C27.884,22.596,29.5,18.983,29.5,15C29.5,7.005,22.995,0.5,15,0.5z M15,28.5C7.556,28.5,1.5,22.444,1.5,15
			c0-3.542,1.382-6.76,3.621-9.171l6.671,6.671H4c-0.276,0-0.5,0.224-0.5,0.5v4c0,0.276,0.224,0.5,0.5,0.5h12.792l7.379,7.379
			C21.76,27.118,18.542,28.5,15,28.5z M12.792,13.5l3,3H8.5v-3H12.792z M7.5,13.5v3h-3v-3H7.5z M24.878,24.172l-7.522-7.522
			c-0.002-0.002-0.003-0.004-0.005-0.005l-3.995-3.995c-0.002-0.002-0.003-0.004-0.005-0.005L5.828,5.122
			C8.239,2.882,11.457,1.5,15,1.5c7.444,0,13.5,6.056,13.5,13.5C28.5,18.543,27.118,21.761,24.878,24.172z M23,12.5
			c-0.276,0-0.5,0.224-0.5,0.5v4c0,0.276,0.224,0.5,0.5,0.5s0.5-0.224,0.5-0.5v-4C23.5,12.724,23.276,12.5,23,12.5z M19.875,9.035
			C19.657,8.706,19.5,8.469,19.5,8c0-0.419,0.14-0.626,0.352-0.939C20.14,6.633,20.5,6.102,20.5,5c0-0.276-0.224-0.5-0.5-0.5
			S19.5,4.724,19.5,5c0,0.795-0.221,1.122-0.477,1.501C18.778,6.863,18.5,7.274,18.5,8c0,0.77,0.287,1.204,0.541,1.587
			C19.287,9.959,19.5,10.281,19.5,11c0,0.276,0.224,0.5,0.5,0.5s0.5-0.224,0.5-0.5C20.5,9.98,20.153,9.456,19.875,9.035z M21,12.5
			c-0.276,0-0.5,0.224-0.5,0.5v4c0,0.276,0.224,0.5,0.5,0.5s0.5-0.224,0.5-0.5v-4C21.5,12.724,21.276,12.5,21,12.5z"/>
	</g>
</g>
</svg>
