<?xml version="1.0" encoding="iso-8859-1"?>
<!-- Generator: Adobe Illustrator 19.0.0, SVG Export Plug-In . SVG Version: 6.00 Build 0)  -->
<svg version="1.1" id="Layer_1" xmlns="http://www.w3.org/2000/svg" xmlns:xlink="http://www.w3.org/1999/xlink" x="0px" y="0px"
	 viewBox="0 0 30 30" style="enable-background:new 0 0 30 30;" xml:space="preserve">
<g>
	<g>
		<path d="M20,5.999c-0.388,0-0.761,0.111-1.113,0.316c-0.004,0.002-0.008,0.002-0.011,0.004L13.745,9.35
			c-0.238,0.141-0.316,0.447-0.176,0.685c0.093,0.158,0.26,0.246,0.431,0.246c0.087,0,0.174-0.022,0.254-0.07l2.867-1.693
			c-0.552,1.203-0.933,2.775-1.069,4.585c-0.021,0.276,0.186,0.515,0.461,0.536c0.269,0.013,0.515-0.186,0.536-0.461
			C17.338,9.311,18.777,7,20,7c1.419,0,3,3.08,3,7.5c0,1.685-0.231,3.284-0.668,4.624c-0.086,0.262,0.058,0.545,0.32,0.63
			c0.051,0.017,0.104,0.025,0.155,0.025c0.211,0,0.407-0.133,0.475-0.345C23.752,17.995,24,16.289,24,14.499
			C24,9.733,22.243,5.999,20,5.999z M15,0C6.729,0,0,6.729,0,15s6.729,15,15,15s15-6.729,15-15S23.271,0,15,0z M15,29
			C7.28,29,1,22.72,1,15c0-3.68,1.438-7.023,3.768-9.524l4.552,4.552H8c-2.565,0-4.5,1.923-4.5,4.472
			c0,2.142,1.127,3.459,2.536,4.076l1.473,1.314L7.5,22.5c0,0.654,0.294,1.266,0.93,1.899l1.758,1.483
			C10.281,25.961,10.396,26,10.51,26c0.123,0,0.246-0.045,0.341-0.135l0.625-0.583c0.379-0.353,0.784-0.942,0.784-1.532V23.5
			c0.022-0.635-0.563-1.233-0.726-1.38c-0.035-0.06-0.054-0.29-0.018-0.468L12.365,19h0.494l5.924,3.624
			c0.011,0.007,0.024,0.004,0.035,0.01C19.191,22.869,19.588,23,20,23c0.563,0,1.109-0.242,1.607-0.686l2.918,2.918
			C22.023,27.562,18.68,29,15,29z M10.835,22.832c0.302,0.282,0.428,0.556,0.425,0.651v0.267c0,0.212-0.195,0.549-0.466,0.801
			l-0.301,0.281l-1.387-1.169C8.698,23.256,8.5,22.876,8.5,22.502l0.01-2.833c0-0.143-0.061-0.28-0.167-0.375L8.013,19h3.302
			l-0.765,2.395C10.516,21.559,10.365,22.394,10.835,22.832z M8,18c-1.742,0-3.5-1.082-3.5-3.5c0-2.255,1.803-3.472,3.5-3.472h2.32
			l5.833,5.833c0.181,1.381,0.509,2.59,0.947,3.562l-3.839-2.349C13.183,18.025,13.092,18,13,18H8z M17.402,18.11l3.502,3.502
			C20.606,21.869,20.303,22,20,22C18.954,22,17.938,20.402,17.402,18.11z M25.231,24.525L10.982,10.276
			c-0.042-0.07-0.099-0.128-0.17-0.17L5.475,4.769C7.976,2.438,11.319,1,15,1c7.72,0,14,6.28,14,14
			C29,18.681,27.562,22.024,25.231,24.525z M19.5,13c-0.276,0-0.5,0.224-0.5,0.5s0.224,0.5,0.5,0.5s0.5,0.224,0.5,0.5
			S19.776,15,19.5,15S19,15.224,19,15.5s0.224,0.5,0.5,0.5c0.827,0,1.5-0.673,1.5-1.5S20.327,13,19.5,13z"/>
	</g>
</g>
</svg>
