<?xml version="1.0" encoding="iso-8859-1"?>
<!-- Generator: Adobe Illustrator 19.0.0, SVG Export Plug-In . SVG Version: 6.00 Build 0)  -->
<svg version="1.1" id="Layer_1" xmlns="http://www.w3.org/2000/svg" xmlns:xlink="http://www.w3.org/1999/xlink" x="0px" y="0px"
	 viewBox="0 0 24 24" style="enable-background:new 0 0 24 24;" xml:space="preserve">
<g>
	<g>
		<path d="M22.5,5H17V4.5C17,3.122,15.879,2,14.5,2H13V1.5C13,0.673,12.327,0,11.5,0c-1.375,0-2.741,0.201-4.082,0.603l-5.636,1.99
			C0.716,2.913,0,3.875,0,4.988v14.125c0,1.036,0.652,1.977,1.591,2.329l4.798,2.175C7.066,23.872,7.776,24,8.5,24
			c0.827,0,1.5-0.673,1.5-1.5V22h4.5c1.208,0,2.217-0.86,2.449-2H22.5c0.827,0,1.5-0.673,1.5-1.5v-12C24,5.673,23.327,5,22.5,5z
			 M23,18.5c0,0.276-0.225,0.5-0.5,0.5h-11c-0.276,0-0.5,0.224-0.5,0.5V21h-1V9.221c0-0.215,0.138-0.406,0.342-0.474l1.633-0.544
			C12.588,7.998,13,7.427,13,6.78V3h1v2.5C14,5.776,14.224,6,14.5,6h8C22.775,6,23,6.224,23,6.5V18.5z M19.935,14.854l-1.501-0.375
			l-0.063-0.251c0.39-0.43,0.666-0.979,0.781-1.549c0.267-0.138,0.46-0.4,0.5-0.715l0.108-0.87c0.033-0.264-0.048-0.53-0.223-0.73
			c-0.054-0.062-0.115-0.115-0.182-0.161l0.025-0.531l0.091-0.091c0.258-0.274,0.606-0.859,0.055-1.703
			c-0.262-0.401-0.802-0.879-1.884-0.879c-0.318,0-1.037,0-1.735,0.438c-2.058,0.072-2.3,1.181-2.3,2.019
			c0,0.165,0.029,0.474,0.058,0.732c-0.074,0.047-0.143,0.105-0.201,0.172c-0.178,0.202-0.26,0.469-0.226,0.734l0.108,0.87
			c0.041,0.326,0.248,0.596,0.553,0.729c0.112,0.545,0.374,1.073,0.739,1.492l-0.073,0.294l-1.501,0.375
			C11.85,15.158,11,16.246,11,17.5c0,0.276,0.224,0.5,0.5,0.5h10c0.276,0,0.5-0.225,0.5-0.501C22,16.246,21.15,15.158,19.935,14.854
			z"/>
	</g>
</g>
</svg>
