<?xml version="1.0" encoding="iso-8859-1"?>
<!-- Generator: Adobe Illustrator 19.0.0, SVG Export Plug-In . SVG Version: 6.00 Build 0)  -->
<svg version="1.1" id="Layer_1" xmlns="http://www.w3.org/2000/svg" xmlns:xlink="http://www.w3.org/1999/xlink" x="0px" y="0px"
	 viewBox="0 0 24 24" style="enable-background:new 0 0 24 24;" xml:space="preserve">
<g>
	<g>
		<path d="M8.326,8.429C8.168,7.044,7.072,6,5.777,6H3.223C1.928,6,0.831,7.044,0.674,8.429l-0.662,5.808
			c-0.056,0.486,0.094,0.968,0.411,1.323c0.272,0.306,0.635,0.483,1.027,0.505l0.552,7.472C2.021,23.798,2.239,24,2.501,24h4
			C6.763,24,6.98,23.798,7,23.537l0.552-7.472c0.392-0.022,0.754-0.2,1.027-0.505c0.316-0.354,0.466-0.837,0.411-1.323L8.326,8.429z
			 M4.5,5C5.88,5,7,3.881,7,2.5C7,1.119,5.88,0,4.5,0S2,1.119,2,2.5C2,3.881,3.119,5,4.5,5z M11.5,13c0.276,0,0.5-0.224,0.5-0.5v-4
			C12,8.224,11.776,8,11.5,8H9.844C9.701,8,9.566,8.061,9.471,8.167c-0.095,0.106-0.14,0.248-0.124,0.39l0.456,4
			C9.831,12.809,10.045,13,10.3,13H11.5z M23.5,0H8C7.724,0,7.5,0.224,7.5,0.5S7.724,1,8,1h15v13H10.5c-0.276,0-0.5,0.224-0.5,0.5
			s0.224,0.5,0.5,0.5h13c0.276,0,0.5-0.224,0.5-0.5v-14C24,0.224,23.776,0,23.5,0z M21.5,13c0.276,0,0.5-0.224,0.5-0.5v-9
			C22,3.224,21.776,3,21.5,3h-3C18.224,3,18,3.224,18,3.5v9c0,0.276,0.224,0.5,0.5,0.5H21.5z M16.5,13c0.276,0,0.5-0.224,0.5-0.5v-7
			C17,5.224,16.776,5,16.5,5h-3C13.224,5,13,5.224,13,5.5v7c0,0.276,0.224,0.5,0.5,0.5H16.5z"/>
	</g>
</g>
</svg>
