<?xml version="1.0" encoding="iso-8859-1"?>
<!-- Generator: Adobe Illustrator 19.0.0, SVG Export Plug-In . SVG Version: 6.00 Build 0)  -->
<svg version="1.1" id="Layer_1" xmlns="http://www.w3.org/2000/svg" xmlns:xlink="http://www.w3.org/1999/xlink" x="0px" y="0px"
	 viewBox="0 0 24 24" style="enable-background:new 0 0 24 24;" xml:space="preserve">
<g>
	<g>
		<path d="M12,0C7.313,0,3.5,3.813,3.5,8.5c0,8.217,7.839,15.09,8.173,15.378C11.767,23.959,11.883,24,12,24
			s0.233-0.041,0.327-0.122C12.661,23.59,20.5,16.717,20.5,8.5C20.5,3.813,16.687,0,12,0z M16.292,11.9
			C15.237,13.234,13.672,14,12,14s-3.237-0.766-4.292-2.1c-0.089-0.113-0.125-0.258-0.1-0.399c0.025-0.141,0.11-0.265,0.233-0.339
			c0.256-0.155,0.491-0.254,0.739-0.31l1.487-0.374l0.072-0.291c-0.364-0.42-0.624-0.948-0.735-1.496
			c-0.306-0.133-0.515-0.4-0.559-0.723L8.734,7.092C8.703,6.82,8.787,6.552,8.965,6.353C9.024,6.288,9.092,6.23,9.166,6.184
			C9.139,5.928,9.11,5.621,9.11,5.459c0-0.839,0.243-1.951,2.304-2.026c0.303-0.189,0.644-0.315,1.014-0.377
			c0.284-0.046,0.532-0.057,0.712-0.057c1.09,0,1.629,0.478,1.889,0.878c0.054,0.089,0.084,0.149,0.115,0.226
			c0.351,0.68,0.105,1.182-0.167,1.477L14.88,5.677l-0.024,0.524c0.071,0.047,0.136,0.104,0.191,0.169
			c0.169,0.197,0.249,0.458,0.219,0.717l-0.11,0.876c-0.043,0.315-0.239,0.576-0.506,0.713c-0.113,0.575-0.388,1.125-0.778,1.551
			l0.062,0.252l1.498,0.376c0.236,0.054,0.471,0.152,0.727,0.308c0.123,0.074,0.208,0.198,0.233,0.339
			C16.417,11.643,16.381,11.787,16.292,11.9z"/>
	</g>
</g>
</svg>
