<?xml version="1.0" encoding="iso-8859-1"?>
<!-- Generator: Adobe Illustrator 19.0.0, SVG Export Plug-In . SVG Version: 6.00 Build 0)  -->
<svg version="1.1" id="Layer_1" xmlns="http://www.w3.org/2000/svg" xmlns:xlink="http://www.w3.org/1999/xlink" x="0px" y="0px"
	 viewBox="0 0 24 24" style="enable-background:new 0 0 24 24;" xml:space="preserve">
<g>
	<g>
		<path d="M22.144,3.021l-10-3c-0.094-0.029-0.193-0.029-0.287,0l-10,3C1.645,3.085,1.5,3.279,1.5,3.5v11
			c0,4.421,6.742,8.354,10.352,9.478C11.9,23.992,11.95,24,12,24s0.1-0.008,0.148-0.022c2.084-0.648,5.207-2.237,7.479-4.312
			c0.013-0.012,0.027-0.023,0.038-0.036c1.643-1.512,2.835-3.276,2.835-5.13v-11C22.5,3.279,22.355,3.085,22.144,3.021z
			 M21.502,14.5H21.5c0,1.388-0.877,2.802-2.172,4.086c-0.563-0.604-1.277-1.044-2.074-1.244l-2.755-0.688l-0.204-0.816
			c0.73-0.746,1.234-1.747,1.402-2.777c0.43-0.154,0.755-0.539,0.814-1.014l0.185-1.479c0.043-0.349-0.064-0.701-0.295-0.967
			c-0.114-0.13-0.253-0.233-0.407-0.306l0.062-1.251L16.299,7.8c0.449-0.477,0.823-1.291,0.055-2.464
			c-0.58-0.886-1.558-1.335-2.909-1.335c-0.521,0-1.716,0-2.842,0.742C7.357,4.824,6.936,6.43,6.936,7.827
			c0,0.317,0.07,0.984,0.123,1.442C6.887,9.341,6.731,9.451,6.606,9.593c-0.235,0.267-0.345,0.622-0.301,0.975l0.185,1.478
			c0.063,0.508,0.43,0.913,0.903,1.042c0.167,0.988,0.645,1.953,1.33,2.683l-0.221,0.884l-2.755,0.688
			c-0.558,0.139-1.083,0.396-1.544,0.748c-1.03-1.148-1.701-2.379-1.701-3.59V3.873l9.5-2.85l9.5,2.85V14.5z"/>
	</g>
</g>
</svg>
