<?xml version="1.0" encoding="iso-8859-1"?>
<!-- Generator: Adobe Illustrator 19.2.1, SVG Export Plug-In . SVG Version: 6.00 Build 0)  -->
<svg version="1.1" id="Layer_1" xmlns="http://www.w3.org/2000/svg" xmlns:xlink="http://www.w3.org/1999/xlink" x="0px" y="0px"
	 viewBox="0 0 24 24" style="enable-background:new 0 0 24 24;" xml:space="preserve">
<g>
	<g>
		<path d="M12,18.5c0-3.208,2.395-5.97,5.571-6.425C17.817,12.039,18,11.828,18,11.58V0.5C18,0.224,17.776,0,17.5,0h-11
			C6.478,0,6.459,0.01,6.437,0.013C6.414,0.016,6.394,0.02,6.372,0.026c-0.086,0.023-0.165,0.06-0.226,0.121L0.147,6.146
			C0.086,6.207,0.049,6.287,0.025,6.373c-0.006,0.021-0.01,0.04-0.013,0.062C0.01,6.457,0,6.477,0,6.5v15C0,21.776,0.224,22,0.5,22
			h11.683c0.172,0,0.331-0.088,0.423-0.233c0.092-0.145,0.103-0.327,0.028-0.482C12.214,20.4,12,19.463,12,18.5z M6,6H1.707L6,1.707
			V6z M18.5,21c-0.827,0-1.5-0.673-1.5-1.5v-1.793l-2.724-2.724C13.48,15.937,13,17.163,13,18.5c0,3.033,2.468,5.5,5.5,5.5
			c1.337,0,2.563-0.48,3.517-1.276L19.693,20.4C19.419,20.762,18.988,21,18.5,21z M18.5,13c-1.337,0-2.563,0.48-3.517,1.276
			l2.324,2.324c0.274-0.362,0.704-0.6,1.193-0.6c0.827,0,1.5,0.673,1.5,1.5c0,0.276-0.224,0.5-0.5,0.5S19,17.776,19,17.5
			S18.775,17,18.5,17c-0.214,0-0.394,0.137-0.465,0.328l4.689,4.689C23.52,21.063,24,19.837,24,18.5C24,15.467,21.532,13,18.5,13z
			 M18.965,19.672L18,18.707V19.5c0,0.276,0.225,0.5,0.5,0.5C18.714,20,18.894,19.863,18.965,19.672z"/>
	</g>
</g>
</svg>
