<?xml version="1.0" encoding="iso-8859-1"?>
<!-- Generator: Adobe Illustrator 19.0.0, SVG Export Plug-In . SVG Version: 6.00 Build 0)  -->
<svg version="1.1" id="Layer_1" xmlns="http://www.w3.org/2000/svg" xmlns:xlink="http://www.w3.org/1999/xlink" x="0px" y="0px"
	 viewBox="0 0 30 30" style="enable-background:new 0 0 30 30;" xml:space="preserve">
<g>
	<g>
		<path d="M27.604,20.012l-0.109-0.021c-1.02-0.188-1.494-0.502-1.494-0.99c0-0.542,0.688-1,1.502-1c0.783,0,1.456,0.424,1.5,0.946
			c0.022,0.275,0.283,0.481,0.54,0.456c0.275-0.023,0.479-0.265,0.456-0.541c-0.09-1.061-1.163-1.861-2.496-1.861
			c-1.38,0-2.502,0.897-2.502,2c0,1.027,0.778,1.691,2.4,1.99l0.109,0.021c1.017,0.187,1.49,0.501,1.49,0.989
			c0,0.542-0.688,1-1.502,1c-0.783,0-1.456-0.425-1.5-0.946c-0.023-0.276-0.287-0.491-0.54-0.456
			c-0.275,0.023-0.479,0.265-0.456,0.54c0.09,1.062,1.163,1.862,2.496,1.862c1.38,0,2.502-0.897,2.502-2
			C30,20.975,29.224,20.311,27.604,20.012z M21.604,20.012l-0.109-0.021c-1.02-0.188-1.494-0.502-1.494-0.99
			c0-0.542,0.688-1,1.502-1c0.783,0,1.456,0.424,1.5,0.946c0.022,0.275,0.283,0.481,0.54,0.456c0.275-0.023,0.479-0.265,0.456-0.541
			c-0.09-1.061-1.163-1.861-2.496-1.861c-1.38,0-2.502,0.897-2.502,2c0,1.027,0.778,1.691,2.4,1.99l0.109,0.021
			c1.017,0.187,1.49,0.501,1.49,0.989c0,0.542-0.688,1-1.502,1c-0.783,0-1.456-0.425-1.5-0.946c-0.023-0.276-0.287-0.491-0.54-0.456
			c-0.275,0.023-0.479,0.265-0.456,0.54c0.09,1.062,1.163,1.862,2.496,1.862c1.38,0,2.502-0.897,2.502-2
			C24,20.975,23.224,20.311,21.604,20.012z M21.498,25.001c-0.987,0-1.901-0.344-2.573-0.97c-0.098-0.091-0.212-0.14-0.363-0.134
			c-0.134,0.006-0.26,0.065-0.35,0.165C17.668,24.667,16.941,25,16.167,25h-1.334C13.27,25,12,23.654,12,22v-3
			c0-1.654,1.271-3,2.833-3h1.334c0.772,0,1.498,0.332,2.042,0.935c0.09,0.099,0.216,0.158,0.35,0.164
			c0.152,0.007,0.265-0.043,0.362-0.134c0.666-0.622,1.582-0.964,2.579-0.965c0.276,0,0.5-0.224,0.5-0.5v-15
			C22,0.224,21.776,0,21.5,0h-13C8.435,0,8.37,0.013,8.309,0.038C8.247,0.063,8.192,0.1,8.146,0.147L0.147,8.146
			C0.101,8.192,0.064,8.248,0.038,8.309C0.013,8.37,0,8.435,0,8.5v21C0,29.776,0.224,30,0.5,30h21c0.133,0,0.26-0.053,0.354-0.146
			C21.948,29.761,22,29.633,22,29.501l-0.002-4C21.998,25.225,21.774,25.001,21.498,25.001z M8,8.001H1.707L8,1.708V8.001z
			 M14.833,18.001h1.334c0.459,0,0.833,0.449,0.833,1c0,0.276,0.224,0.5,0.5,0.5s0.5-0.224,0.5-0.5c0-1.103-0.822-2-1.833-2h-1.334
			c-1.011,0-1.833,0.897-1.833,2v3c0,1.103,0.822,2,1.833,2h1.334c1.011,0,1.833-0.897,1.833-2c0-0.276-0.224-0.5-0.5-0.5
			s-0.5,0.224-0.5,0.5c0,0.551-0.374,1-0.833,1h-1.334c-0.459,0-0.833-0.449-0.833-1v-3C14,18.45,14.374,18.001,14.833,18.001z"/>
	</g>
</g>
</svg>
