<?xml version="1.0" encoding="iso-8859-1"?>
<!-- Generator: Adobe Illustrator 19.0.0, SVG Export Plug-In . SVG Version: 6.00 Build 0)  -->
<svg version="1.1" id="Layer_1" xmlns="http://www.w3.org/2000/svg" xmlns:xlink="http://www.w3.org/1999/xlink" x="0px" y="0px"
	 viewBox="0 0 30 30" style="enable-background:new 0 0 30 30;" xml:space="preserve">
<g>
	<g>
		<path d="M28.874,0.168C28.779,0.061,28.643,0,28.5,0h-27C1.357,0,1.221,0.061,1.126,0.168c-0.095,0.106-0.14,0.249-0.123,0.391
			l3,25.5c0.023,0.195,0.159,0.359,0.347,0.418l11.143,3.5c0.049,0.015,0.1,0.023,0.15,0.023c0.057,0,0.113-0.01,0.167-0.029
			l9.857-3.5c0.179-0.063,0.307-0.224,0.329-0.413l3-25.5C29.013,0.417,28.969,0.274,28.874,0.168z M22.5,7H8.09l0.833,5H21.5
			c0.148,0,0.288,0.065,0.383,0.179c0.095,0.113,0.135,0.263,0.109,0.408l-1.429,8.087c-0.03,0.174-0.15,0.319-0.316,0.381
			l-5.071,1.913C15.12,22.989,15.06,23,15,23c-0.058,0-0.116-0.01-0.171-0.03l-5.5-2c-0.144-0.052-0.255-0.167-0.303-0.312l-1-3
			c-0.087-0.262,0.054-0.545,0.316-0.632c0.264-0.089,0.545,0.055,0.632,0.316l0.924,2.771l5.099,1.854l4.632-1.747L20.904,13H8.5
			c-0.245,0-0.453-0.177-0.493-0.418l-1-6C6.983,6.437,7.024,6.289,7.119,6.177C7.214,6.065,7.353,6,7.5,6h15
			C22.776,6,23,6.224,23,6.5S22.776,7,22.5,7z"/>
	</g>
</g>
</svg>
