<?xml version="1.0" encoding="iso-8859-1"?>
<!-- Generator: Adobe Illustrator 19.0.0, SVG Export Plug-In . SVG Version: 6.00 Build 0)  -->
<svg version="1.1" id="Layer_1" xmlns="http://www.w3.org/2000/svg" xmlns:xlink="http://www.w3.org/1999/xlink" x="0px" y="0px"
	 viewBox="0 0 30 30" style="enable-background:new 0 0 30 30;" xml:space="preserve">
<g>
	<g>
		<path d="M15.5,24c0.276,0,0.5-0.224,0.5-0.5V18h1.5c0.276,0,0.5-0.224,0.5-0.5S17.776,17,17.5,17h-4c-0.276,0-0.5,0.224-0.5,0.5
			s0.224,0.5,0.5,0.5H15v5.5C15,23.776,15.224,24,15.5,24z M9.5,24c0.276,0,0.5-0.224,0.5-0.5V18h1.5c0.276,0,0.5-0.224,0.5-0.5
			S11.776,17,11.5,17h-4C7.224,17,7,17.224,7,17.5S7.224,18,7.5,18H9v5.5C9,23.776,9.224,24,9.5,24z M5.5,24
			C5.776,24,6,23.776,6,23.5v-6C6,17.224,5.776,17,5.5,17S5,17.224,5,17.5V20H3v-2.5C3,17.224,2.776,17,2.5,17S2,17.224,2,17.5v6
			C2,23.776,2.224,24,2.5,24S3,23.776,3,23.5V21h2v2.5C5,23.776,5.224,24,5.5,24z M21.5,23c-0.276,0-0.5,0.224-0.5,0.5
			c0,0.827-0.673,1.5-1.5,1.5c-0.827,0-1.5-0.673-1.5-1.5c0-0.276-0.224-0.5-0.5-0.5S17,23.224,17,23.5c0,0.827-0.673,1.5-1.5,1.5
			c-0.827,0-1.5-0.673-1.5-1.5v-4c0-0.276-0.224-0.5-0.5-0.5c-0.258,0-0.51-0.07-0.748-0.209c-0.156-0.091-0.348-0.091-0.504,0
			C12.01,18.93,11.758,19,11.5,19c-0.276,0-0.5,0.224-0.5,0.5v4c0,0.827-0.673,1.5-1.5,1.5C8.673,25,8,24.327,8,23.5
			C8,23.224,7.776,23,7.5,23S7,23.224,7,23.5C7,24.327,6.327,25,5.5,25c-0.426,0-0.836-0.189-1.123-0.519
			c-0.191-0.218-0.563-0.218-0.754,0C3.336,24.811,2.926,25,2.5,25C1.673,25,1,24.327,1,23.5v-6C1,16.673,1.673,16,2.5,16
			c0.426,0,0.836,0.189,1.123,0.519c0.191,0.218,0.563,0.218,0.754,0c0.46-0.53,1.238-0.679,1.871-0.309
			c0.156,0.091,0.348,0.091,0.504,0c0.238-0.139,0.49-0.209,0.748-0.209h4c0.258,0,0.51,0.07,0.748,0.209
			c0.156,0.091,0.348,0.091,0.504,0c0.238-0.139,0.49-0.209,0.748-0.209h4c0.258,0,0.51,0.07,0.748,0.209
			c0.156,0.091,0.348,0.091,0.504,0c0.238-0.139,0.49-0.209,0.748-0.209H21c0.129,0,0.254,0.02,0.429,0.045
			c0.144,0.024,0.289-0.022,0.398-0.117C21.936,15.834,22,15.696,22,15.551V0.5C22,0.224,21.776,0,21.5,0h-13
			C8.435,0,8.37,0.013,8.309,0.038C8.247,0.063,8.192,0.1,8.146,0.147L0.147,8.146C0.101,8.192,0.064,8.248,0.038,8.309
			C0.013,8.37,0,8.435,0,8.5v21C0,29.776,0.224,30,0.5,30h21c0.276,0,0.5-0.224,0.5-0.5v-6C22,23.224,21.776,23,21.5,23z M8,1.707V8
			H1.707L8,1.707z M21,17h-1.5c-0.276,0-0.5,0.224-0.5,0.5v6c0,0.276,0.224,0.5,0.5,0.5s0.5-0.224,0.5-0.5V21h1c1.103,0,2-0.897,2-2
			C23,17.897,22.103,17,21,17z M21,20h-1v-2h1c0.552,0,1,0.449,1,1S21.552,20,21,20z M24.5,19c-0.276,0-0.5,0.224-0.5,0.5
			s0.224,0.5,0.5,0.5s0.5-0.224,0.5-0.5S24.776,19,24.5,19z M29.621,17.015c-0.271-0.067-0.54,0.095-0.606,0.364l-1.5,6
			c-0.066,0.268,0.096,0.539,0.364,0.606C27.92,23.995,27.96,24,28,24c0.225,0,0.429-0.151,0.485-0.379l1.5-6
			C30.052,17.354,29.89,17.082,29.621,17.015z M24.5,21c-0.276,0-0.5,0.224-0.5,0.5s0.224,0.5,0.5,0.5s0.5-0.224,0.5-0.5
			S24.776,21,24.5,21z M27.621,17.015c-0.272-0.067-0.54,0.095-0.606,0.364l-1.5,6c-0.066,0.268,0.096,0.539,0.364,0.606
			C25.92,23.995,25.96,24,26,24c0.225,0,0.429-0.151,0.485-0.379l1.5-6C28.052,17.354,27.89,17.082,27.621,17.015z"/>
	</g>
</g>
</svg>
