<?xml version="1.0" encoding="iso-8859-1"?>
<!-- Generator: Adobe Illustrator 19.0.0, SVG Export Plug-In . SVG Version: 6.00 Build 0)  -->
<svg version="1.1" id="Layer_1" xmlns="http://www.w3.org/2000/svg" xmlns:xlink="http://www.w3.org/1999/xlink" x="0px" y="0px"
	 viewBox="0 0 30 30" style="enable-background:new 0 0 30 30;" xml:space="preserve">
<g>
	<g>
		<path d="M24.51,21.5c0.276,0,0.5-0.224,0.5-0.5v-6c0-0.276-0.224-0.5-0.5-0.5s-0.5,0.224-0.5,0.5v2.5h-3V15
			c0-0.276-0.224-0.5-0.5-0.5s-0.5,0.224-0.5,0.5v6c0,0.276,0.224,0.5,0.5,0.5s0.5-0.224,0.5-0.5v-2.5h3V21
			C24.01,21.276,24.234,21.5,24.51,21.5z M28.01,14.5h-1.5c-0.276,0-0.5,0.224-0.5,0.5v6c0,0.276,0.224,0.5,0.5,0.5
			s0.5-0.224,0.5-0.5v-2.5h1c1.103,0,2-0.897,2-2C30.01,15.397,29.114,14.5,28.01,14.5z M28.01,17.5h-1v-2h1c0.552,0,1,0.449,1,1
			C29.01,17.051,28.563,17.5,28.01,17.5z M22.99,1.524L3.01,1.5C1.345,1.5-0.01,2.835-0.01,4.476v21.048
			c0,1.641,1.355,2.976,3.021,2.976h19.957c1.666,0,3.021-1.335,3.021-2.976V22c0-0.276-0.224-0.5-0.5-0.5s-0.5,0.224-0.5,0.5v3.524
			c0,1.09-0.907,1.976-2.021,1.976H3.01c-1.114,0-2.021-0.886-2.021-1.976V6.5h24.016l-0.016,5.499
			c-0.001,0.276,0.223,0.5,0.499,0.501h0.001c0.275,0,0.499-0.223,0.5-0.499l0.018-6L26.01,4.5
			C26.01,2.859,24.656,1.524,22.99,1.524z M3.49,4.5c-0.276,0-0.5-0.224-0.5-0.5s0.224-0.5,0.5-0.5s0.5,0.224,0.5,0.5
			S3.766,4.5,3.49,4.5z M5.49,4.5c-0.276,0-0.5-0.224-0.5-0.5s0.224-0.5,0.5-0.5s0.5,0.224,0.5,0.5S5.766,4.5,5.49,4.5z M7.49,4.5
			c-0.276,0-0.5-0.224-0.5-0.5s0.224-0.5,0.5-0.5s0.5,0.224,0.5,0.5S7.766,4.5,7.49,4.5z M15.51,14.5c-0.276,0-0.5,0.224-0.5,0.5v6
			c0,0.276,0.224,0.5,0.5,0.5s0.5-0.224,0.5-0.5v-2.5h1c1.103,0,2-0.897,2-2c0-1.103-0.897-2-2-2H15.51z M18.01,16.5
			c0,0.551-0.448,1-1,1h-1v-2h1C17.563,15.5,18.01,15.949,18.01,16.5z"/>
	</g>
</g>
</svg>
