<?xml version="1.0" encoding="utf-8"?>
<!-- Generator: Adobe Illustrator 19.0.0, SVG Export Plug-In . SVG Version: 6.00 Build 0)  -->
<svg version="1.1" id="Layer_1" xmlns="http://www.w3.org/2000/svg" xmlns:xlink="http://www.w3.org/1999/xlink" x="0px" y="0px"
	 viewBox="0 0 30 30" style="enable-background:new 0 0 30 30;" xml:space="preserve">
<g>
	<path d="M15,23c0.3,0,0.5-0.2,0.5-0.5V10.7l1.6,1.6c0.1,0.1,0.2,0.1,0.4,0.1s0.3,0,0.4-0.1c0.2-0.2,0.2-0.5,0-0.7l-2.5-2.5
		c0,0-0.1-0.1-0.2-0.1c0,0,0,0,0,0h0c-0.1,0-0.2,0-0.3,0c0,0,0,0-0.1,0c-0.1,0-0.2,0.1-0.2,0.1l-2.5,2.5c-0.2,0.2-0.2,0.5,0,0.7
		s0.5,0.2,0.7,0l1.6-1.6v11.8C14.5,22.8,14.7,23,15,23z"/>
	<path d="M21.4,4.7C21.3,4.7,21.3,4.7,21.4,4.7C20.2,1.9,17.5,0,14.4,0C10.5,0,7.2,3.1,7,7C5,7.3,3.5,9,3.5,11c0,2.2,1.8,4,4,4H13
		c0.3,0,0.5-0.2,0.5-0.5v-0.6c0-0.2-0.1-0.3-0.2-0.4c-0.1-0.1-0.3-0.1-0.4-0.1c-0.5,0.1-1.1,0-1.4-0.4C11.2,12.8,11,12.4,11,12
		s0.2-0.8,0.4-1.1l2.5-2.5c0.1-0.1,0.2-0.2,0.4-0.3c0.1-0.1,0.2-0.1,0.4-0.1c0.1,0,0.2,0,0.3,0l0.2,0c0.2,0,0.3,0,0.3,0.1
		c0,0,0,0,0,0c0,0,0,0,0,0c0.1,0,0.2,0.1,0.3,0.2l0.2,0.1l2.5,2.5c0.3,0.3,0.4,0.7,0.4,1.1s-0.2,0.8-0.4,1.1s-0.7,0.4-1.1,0.4
		c-0.1,0-0.2,0-0.4-0.1c-0.1,0-0.3,0-0.4,0.1c-0.1,0.1-0.2,0.2-0.2,0.4v0.6c0,0.3,0.2,0.5,0.5,0.5h4.4c2.8,0,5.1-2.3,5.1-5.2
		C26.5,7,24.2,4.7,21.4,4.7z"/>
	<path d="M18,16h-1c-0.3,0-0.5,0.2-0.5,0.5v6c0,0.8-0.7,1.5-1.5,1.5s-1.5-0.7-1.5-1.5v-6c0-0.3-0.2-0.5-0.5-0.5h-1c-1,0-1.5,1-1.5,2
		v8h9v-8C19.5,17,19,16,18,16z"/>
	<path d="M10.5,28c0,1,1,2,2,2h5c1,0,2-1,2-2v-1h-9V28z"/>
</g>
</svg>
