<?xml version="1.0" encoding="iso-8859-1"?>
<!-- Generator: Adobe Illustrator 18.0.0, SVG Export Plug-In . SVG Version: 6.00 Build 0)  -->
<!DOCTYPE svg PUBLIC "-//W3C//DTD SVG 1.1//EN" "http://www.w3.org/Graphics/SVG/1.1/DTD/svg11.dtd">
<svg version="1.1" id="Layer_1" xmlns="http://www.w3.org/2000/svg" xmlns:xlink="http://www.w3.org/1999/xlink" x="0px" y="0px"
	 viewBox="0 0 24 24" style="enable-background:new 0 0 24 24;" xml:space="preserve">
<g>
	<path d="M19,23c-1.378,0-2.5-1.122-2.5-2.5S17.622,18,19,18s2.5,1.122,2.5,2.5S20.378,23,19,23z M19,19c-0.827,0-1.5,0.673-1.5,1.5
		S18.173,22,19,22s1.5-0.673,1.5-1.5S19.827,19,19,19z"/>
	<path d="M9,23c-1.378,0-2.5-1.122-2.5-2.5S7.622,18,9,18s2.5,1.122,2.5,2.5S10.378,23,9,23z M9,19c-0.827,0-1.5,0.673-1.5,1.5
		S8.173,22,9,22s1.5-0.673,1.5-1.5S9.827,19,9,19z"/>
	<path d="M21,17H9.459c-1.662,0-3.106-1.183-3.432-2.813L3.59,2H1C0.724,2,0.5,1.776,0.5,1.5S0.724,1,1,1h3
		c0.238,0,0.443,0.168,0.49,0.402L7.008,13.99C7.241,15.155,8.272,16,9.459,16H21c0.276,0,0.5,0.224,0.5,0.5S21.276,17,21,17z"/>
	<path d="M20.234,13H6.5C6.224,13,6,12.776,6,12.5S6.224,12,6.5,12h13.734c0.755,0,1.395-0.565,1.489-1.314L22.434,5H5
		C4.724,5,4.5,4.776,4.5,4.5S4.724,4,5,4h18c0.144,0,0.28,0.062,0.375,0.169c0.095,0.107,0.139,0.251,0.121,0.393l-0.781,6.248
		C22.559,12.059,21.492,13,20.234,13z"/>
</g>
<g>
</g>
<g>
</g>
<g>
</g>
<g>
</g>
<g>
</g>
<g>
</g>
<g>
</g>
<g>
</g>
<g>
</g>
<g>
</g>
<g>
</g>
<g>
</g>
<g>
</g>
<g>
</g>
<g>
</g>
</svg>
