<?xml version="1.0" encoding="iso-8859-1"?>
<!-- Generator: Adobe Illustrator 18.0.0, SVG Export Plug-In . SVG Version: 6.00 Build 0)  -->
<!DOCTYPE svg PUBLIC "-//W3C//DTD SVG 1.1//EN" "http://www.w3.org/Graphics/SVG/1.1/DTD/svg11.dtd">
<svg version="1.1" id="Layer_1" xmlns="http://www.w3.org/2000/svg" xmlns:xlink="http://www.w3.org/1999/xlink" x="0px" y="0px"
	 viewBox="0 0 24 24" style="enable-background:new 0 0 24 24;" xml:space="preserve">
<g>
	<path d="M4,13c-0.095,0-0.191-0.027-0.277-0.084c-0.23-0.153-0.292-0.463-0.139-0.693l6-9c0.152-0.23,0.461-0.292,0.693-0.139
		c0.23,0.153,0.292,0.463,0.139,0.693l-6,9C4.32,12.922,4.161,13,4,13z"/>
	<path d="M12,6c-1.378,0-2.5-1.122-2.5-2.5S10.622,1,12,1s2.5,1.122,2.5,2.5S13.378,6,12,6z M12,2c-0.827,0-1.5,0.673-1.5,1.5
		S11.173,5,12,5s1.5-0.673,1.5-1.5S12.827,2,12,2z"/>
	<path d="M19.5,12.5c-0.164,0-0.325-0.081-0.42-0.229l-5.5-8.5C13.43,3.54,13.497,3.23,13.729,3.08
		c0.231-0.149,0.541-0.083,0.691,0.148l5.5,8.5c0.15,0.232,0.083,0.541-0.148,0.691C19.688,12.474,19.594,12.5,19.5,12.5z"/>
	<g>
		<path d="M2.5,21c-1.103,0-2-0.897-2-2v-3c0-1.103,0.897-2,2-2s2,0.897,2,2c0,0.276-0.224,0.5-0.5,0.5S3.5,16.276,3.5,16
			c0-0.551-0.449-1-1-1s-1,0.449-1,1v3c0,0.551,0.449,1,1,1s1-0.449,1-1c0-0.276,0.224-0.5,0.5-0.5s0.5,0.224,0.5,0.5
			C4.5,20.103,3.603,21,2.5,21z"/>
		<path d="M23,21h-3c-0.276,0-0.5-0.224-0.5-0.5v-6c0-0.276,0.224-0.5,0.5-0.5h3c0.276,0,0.5,0.224,0.5,0.5S23.276,15,23,15h-2.5v5
			H23c0.276,0,0.5,0.224,0.5,0.5S23.276,21,23,21z"/>
		<path d="M22,18h-2c-0.276,0-0.5-0.224-0.5-0.5S19.724,17,20,17h2c0.276,0,0.5,0.224,0.5,0.5S22.276,18,22,18z"/>
		<path d="M9,21H6c-0.276,0-0.5-0.224-0.5-0.5v-6C5.5,14.224,5.724,14,6,14s0.5,0.224,0.5,0.5V20H9c0.276,0,0.5,0.224,0.5,0.5
			S9.276,21,9,21z"/>
		<path d="M11.5,21c-1.103,0-2-0.897-2-2v-3c0-1.103,0.897-2,2-2s2,0.897,2,2v3C13.5,20.103,12.603,21,11.5,21z M11.5,15
			c-0.551,0-1,0.449-1,1v3c0,0.551,0.449,1,1,1s1-0.449,1-1v-3C12.5,15.449,12.051,15,11.5,15z"/>
		<g>
			<path d="M16.499,21c-1.054,0-1.931-0.823-1.998-1.873c-0.018-0.275,0.192-0.513,0.467-0.531c0.268-0.018,0.513,0.192,0.531,0.467
				c0.033,0.525,0.473,0.936,1,0.936c0.552,0,1.001-0.448,1.001-1c0-0.525-0.303-0.813-1.044-0.996l-0.148-0.038
				C14.813,17.6,14.5,16.695,14.5,16c0-1.103,0.897-2,2.001-2c1.054,0,1.931,0.822,1.998,1.872c0.018,0.275-0.192,0.513-0.467,0.531
				c-0.282,0.009-0.513-0.192-0.531-0.467c-0.033-0.524-0.473-0.936-1-0.936c-0.552,0-1.001,0.449-1.001,1
				c0,0.525,0.303,0.813,1.046,0.996l0.029,0.523l0.119-0.485C18.187,17.4,18.5,18.305,18.5,19C18.5,20.103,17.603,21,16.499,21z"/>
		</g>
	</g>
	<path d="M23,23H1c-0.276,0-0.5-0.224-0.5-0.5V22c0-0.276,0.224-0.5,0.5-0.5s0.5,0.224,0.5,0.5h21c0-0.276,0.224-0.5,0.5-0.5
		s0.5,0.224,0.5,0.5v0.5C23.5,22.776,23.276,23,23,23z"/>
	<path d="M23,13.5c-0.276,0-0.5-0.224-0.5-0.5h-21c0,0.276-0.224,0.5-0.5,0.5S0.5,13.276,0.5,13v-0.5C0.5,12.224,0.724,12,1,12h22
		c0.276,0,0.5,0.224,0.5,0.5V13C23.5,13.276,23.276,13.5,23,13.5z"/>
</g>
<g>
</g>
<g>
</g>
<g>
</g>
<g>
</g>
<g>
</g>
<g>
</g>
<g>
</g>
<g>
</g>
<g>
</g>
<g>
</g>
<g>
</g>
<g>
</g>
<g>
</g>
<g>
</g>
<g>
</g>
</svg>
