<?xml version="1.0" encoding="iso-8859-1"?>
<!-- Generator: Adobe Illustrator 18.0.0, SVG Export Plug-In . SVG Version: 6.00 Build 0)  -->
<!DOCTYPE svg PUBLIC "-//W3C//DTD SVG 1.1//EN" "http://www.w3.org/Graphics/SVG/1.1/DTD/svg11.dtd">
<svg version="1.1" id="Layer_1" xmlns="http://www.w3.org/2000/svg" xmlns:xlink="http://www.w3.org/1999/xlink" x="0px" y="0px"
	 viewBox="0 0 24 24" style="enable-background:new 0 0 24 24;" xml:space="preserve">
<g>
	<path d="M2.5,24c-0.112,0-0.225-0.038-0.318-0.115c-0.213-0.176-0.243-0.491-0.067-0.704l19-23c0.175-0.213,0.49-0.244,0.704-0.067
		c0.213,0.176,0.243,0.491,0.067,0.704l-19,23C2.787,23.938,2.644,24,2.5,24z"/>
	<path d="M11.5,13C7.364,13,4,10.533,4,7.5c0-2.91,3.097-5.298,7-5.488V1.5C11,1.224,11.224,1,11.5,1S12,1.224,12,1.5v0.51
		c1.908,0.079,3.52,0.612,4.797,1.589c0.219,0.167,0.261,0.481,0.093,0.701c-0.167,0.22-0.481,0.262-0.701,0.093
		C15.088,3.551,13.681,3.087,12,3.011V12.5C12,12.776,11.776,13,11.5,13z M11,3.013C7.648,3.191,5,5.135,5,7.5s2.648,4.31,6,4.487
		V3.013z"/>
	<path d="M11.5,24c-0.276,0-0.5-0.224-0.5-0.5v-0.51c-1.908-0.079-3.52-0.612-4.797-1.589C5.984,21.234,5.942,20.92,6.11,20.7
		s0.481-0.26,0.701-0.093c1.101,0.842,2.509,1.306,4.189,1.382V12.5c0-0.276,0.224-0.5,0.5-0.5c4.136,0,7.5,2.467,7.5,5.5
		c0,2.91-3.097,5.298-7,5.488V23.5C12,23.776,11.776,24,11.5,24z M12,13.013v8.974c3.352-0.177,6-2.122,6-4.487
		S15.352,13.191,12,13.013z"/>
</g>
<g>
</g>
<g>
</g>
<g>
</g>
<g>
</g>
<g>
</g>
<g>
</g>
<g>
</g>
<g>
</g>
<g>
</g>
<g>
</g>
<g>
</g>
<g>
</g>
<g>
</g>
<g>
</g>
<g>
</g>
</svg>
