<?xml version="1.0" encoding="iso-8859-1"?>
<!-- Generator: Adobe Illustrator 18.0.0, SVG Export Plug-In . SVG Version: 6.00 Build 0)  -->
<!DOCTYPE svg PUBLIC "-//W3C//DTD SVG 1.1//EN" "http://www.w3.org/Graphics/SVG/1.1/DTD/svg11.dtd">
<svg version="1.1" id="Layer_1" xmlns="http://www.w3.org/2000/svg" xmlns:xlink="http://www.w3.org/1999/xlink" x="0px" y="0px"
	 viewBox="0 0 24 24" style="enable-background:new 0 0 24 24;" xml:space="preserve">
<g>
	<path d="M5,14.5c-0.276,0-0.5-0.224-0.5-0.5v-4c0-0.276,0.224-0.5,0.5-0.5h2c0.276,0,0.5,0.224,0.5,0.5S7.276,10.5,7,10.5H5.5V14
		C5.5,14.276,5.276,14.5,5,14.5z"/>
	<path d="M6,12.5H5c-0.276,0-0.5-0.224-0.5-0.5s0.224-0.5,0.5-0.5h1c0.276,0,0.5,0.224,0.5,0.5S6.276,12.5,6,12.5z"/>
	<path d="M12,23.5C5.659,23.5,0.5,18.341,0.5,12S5.659,0.5,12,0.5S23.5,5.659,23.5,12S18.341,23.5,12,23.5z M12,1.5
		C6.21,1.5,1.5,6.21,1.5,12S6.21,22.5,12,22.5S22.5,17.79,22.5,12S17.79,1.5,12,1.5z"/>
	<g>
		<path d="M18.239,7.5c-0.146,0-0.291-0.064-0.39-0.187C16.415,5.525,14.283,4.5,12,4.5S7.585,5.525,6.15,7.313
			C5.978,7.529,5.663,7.563,5.448,7.39c-0.216-0.173-0.25-0.488-0.077-0.703C6.996,4.662,9.412,3.5,12,3.5s5.004,1.162,6.629,3.187
			c0.173,0.215,0.139,0.53-0.077,0.703C18.46,7.464,18.35,7.5,18.239,7.5z"/>
		<path d="M12,20.5c-2.349,0-4.537-0.943-6.162-2.656c-0.19-0.2-0.183-0.517,0.019-0.707c0.199-0.189,0.517-0.183,0.706,0.019
			C7.997,18.667,9.928,19.5,12,19.5s4.003-0.833,5.438-2.344c0.19-0.2,0.508-0.208,0.706-0.019c0.201,0.19,0.209,0.507,0.019,0.707
			C16.537,19.557,14.349,20.5,12,20.5z"/>
	</g>
	<path d="M11,14.5c-0.128,0-0.256-0.049-0.354-0.146L9.5,13.207V14c0,0.276-0.224,0.5-0.5,0.5S8.5,14.276,8.5,14v-1.997
		c0-0.002,0-0.005,0-0.007V10c0-0.276,0.224-0.5,0.5-0.5h1c0.827,0,1.5,0.673,1.5,1.5c0,0.761-0.57,1.392-1.306,1.487l1.159,1.159
		c0.195,0.195,0.195,0.512,0,0.707C11.256,14.451,11.128,14.5,11,14.5z M9.5,11.5H10c0.275,0,0.5-0.224,0.5-0.5s-0.225-0.5-0.5-0.5
		H9.5V11.5z"/>
	<path d="M15,14.5h-2c-0.276,0-0.5-0.224-0.5-0.5v-4c0-0.276,0.224-0.5,0.5-0.5h2c0.276,0,0.5,0.224,0.5,0.5s-0.224,0.5-0.5,0.5
		h-1.5v3H15c0.276,0,0.5,0.224,0.5,0.5S15.276,14.5,15,14.5z"/>
	<path d="M14,12.5h-1c-0.276,0-0.5-0.224-0.5-0.5s0.224-0.5,0.5-0.5h1c0.276,0,0.5,0.224,0.5,0.5S14.276,12.5,14,12.5z"/>
	<path d="M19,14.5h-2c-0.276,0-0.5-0.224-0.5-0.5v-4c0-0.276,0.224-0.5,0.5-0.5h2c0.276,0,0.5,0.224,0.5,0.5s-0.224,0.5-0.5,0.5
		h-1.5v3H19c0.276,0,0.5,0.224,0.5,0.5S19.276,14.5,19,14.5z"/>
	<path d="M18,12.5h-1c-0.276,0-0.5-0.224-0.5-0.5s0.224-0.5,0.5-0.5h1c0.276,0,0.5,0.224,0.5,0.5S18.276,12.5,18,12.5z"/>
</g>
<g>
</g>
<g>
</g>
<g>
</g>
<g>
</g>
<g>
</g>
<g>
</g>
<g>
</g>
<g>
</g>
<g>
</g>
<g>
</g>
<g>
</g>
<g>
</g>
<g>
</g>
<g>
</g>
<g>
</g>
</svg>
