<?xml version="1.0" encoding="iso-8859-1"?>
<!-- Generator: Adobe Illustrator 18.0.0, SVG Export Plug-In . SVG Version: 6.00 Build 0)  -->
<!DOCTYPE svg PUBLIC "-//W3C//DTD SVG 1.1//EN" "http://www.w3.org/Graphics/SVG/1.1/DTD/svg11.dtd">
<svg version="1.1" id="Layer_1" xmlns="http://www.w3.org/2000/svg" xmlns:xlink="http://www.w3.org/1999/xlink" x="0px" y="0px"
	 viewBox="0 0 24 24" style="enable-background:new 0 0 24 24;" xml:space="preserve">
<g>
	<path d="M23,24H1c-0.276,0-0.5-0.224-0.5-0.5C0.5,22.122,1.622,21,3,21h18c1.378,0,2.5,1.122,2.5,2.5C23.5,23.776,23.276,24,23,24z
		 M1.585,23h20.829c-0.207-0.582-0.763-1-1.415-1H3C2.348,22,1.792,22.418,1.585,23z"/>
	<path d="M19,5H5C4.724,5,4.5,4.776,4.5,4.5v-2C4.5,1.122,5.622,0,7,0h10c1.378,0,2.5,1.122,2.5,2.5v2C19.5,4.776,19.276,5,19,5z
		 M5.5,4h13V2.5C18.5,1.673,17.827,1,17,1H7C6.173,1,5.5,1.673,5.5,2.5V4z"/>
	<path d="M4,12c-1.378,0-2.5-1.122-2.5-2.5c0-0.091,0.024-0.18,0.071-0.257l3-5C4.662,4.092,4.824,4,5,4h2
		c0.15,0,0.292,0.067,0.387,0.183C7.481,4.299,7.52,4.451,7.49,4.598l-1,5C6.5,10.878,5.378,12,4,12z M2.505,9.629
		C2.571,10.396,3.216,11,4,11c0.827,0,1.5-0.673,1.5-1.5L6.391,5H5.283L2.505,9.629z"/>
	<path d="M12,12c-1.378,0-2.5-1.122-2.5-2.5v-5C9.5,4.224,9.724,4,10,4h4c0.276,0,0.5,0.224,0.5,0.5v5C14.5,10.878,13.378,12,12,12z
		 M10.5,5v4.5c0,0.827,0.673,1.5,1.5,1.5s1.5-0.673,1.5-1.5V5H10.5z"/>
	<path d="M8,12c-1.378,0-2.5-1.122-2.5-2.5l1.01-5.098C6.557,4.168,6.762,4,7,4h3c0.276,0,0.5,0.224,0.5,0.5v5
		C10.5,10.878,9.378,12,8,12z M7.41,5L6.49,9.598C6.5,10.327,7.173,11,8,11s1.5-0.673,1.5-1.5V5H7.41z"/>
	<path d="M20,12c-1.378,0-2.5-1.122-2.5-2.5l-0.99-4.902c-0.029-0.147,0.009-0.299,0.104-0.415C16.708,4.067,16.85,4,17,4h2
		c0.176,0,0.338,0.092,0.429,0.243l3,5C22.476,9.32,22.5,9.409,22.5,9.5C22.5,10.878,21.378,12,20,12z M17.61,5l0.88,4.402
		C18.5,10.327,19.173,11,20,11c0.784,0,1.429-0.604,1.495-1.371L18.717,5H17.61z"/>
	<path d="M16,12c-1.378,0-2.5-1.122-2.5-2.5v-5C13.5,4.224,13.724,4,14,4h3c0.238,0,0.443,0.168,0.49,0.402l1,5
		C18.5,10.878,17.378,12,16,12z M14.5,5v4.5c0,0.827,0.673,1.5,1.5,1.5s1.5-0.673,1.5-1.5L16.591,5H14.5z"/>
	<path d="M20,22H4c-0.276,0-0.5-0.224-0.5-0.5v-10C3.5,11.224,3.724,11,4,11s0.5,0.224,0.5,0.5V21h15v-9.5
		c0-0.276,0.224-0.5,0.5-0.5s0.5,0.224,0.5,0.5v10C20.5,21.776,20.276,22,20,22z"/>
	<path d="M11,19H6c-0.276,0-0.5-0.224-0.5-0.5v-5C5.5,13.224,5.724,13,6,13h5c0.276,0,0.5,0.224,0.5,0.5v5
		C11.5,18.776,11.276,19,11,19z M6.5,18h4v-4h-4V18z"/>
	<path d="M18,22h-5c-0.276,0-0.5-0.224-0.5-0.5v-8c0-0.276,0.224-0.5,0.5-0.5h5c0.276,0,0.5,0.224,0.5,0.5v8
		C18.5,21.776,18.276,22,18,22z M13.5,21h4v-7h-4V21z"/>
</g>
<g>
</g>
<g>
</g>
<g>
</g>
<g>
</g>
<g>
</g>
<g>
</g>
<g>
</g>
<g>
</g>
<g>
</g>
<g>
</g>
<g>
</g>
<g>
</g>
<g>
</g>
<g>
</g>
<g>
</g>
</svg>
