<?xml version="1.0" encoding="utf-8"?>
<!-- Generator: Adobe Illustrator 19.0.0, SVG Export Plug-In . SVG Version: 6.00 Build 0)  -->
<svg version="1.1" id="Layer_1" xmlns="http://www.w3.org/2000/svg" xmlns:xlink="http://www.w3.org/1999/xlink" x="0px" y="0px"
	 viewBox="0 0 30 30" style="enable-background:new 0 0 30 30;" xml:space="preserve">
<path d="M20,0H10C8.1,0,6.5,1.6,6.5,3.5v23c0,1.9,1.6,3.5,3.5,3.5h10c1.9,0,3.5-1.6,3.5-3.5v-23C23.5,1.6,21.9,0,20,0z M15.4,3.8
	c1.3,0,2.4,1.1,2.4,2.4s-1.1,2.4-2.4,2.4S13,7.4,13,6.1S14.1,3.8,15.4,3.8z M20,26h-9c-0.3,0-0.5-0.2-0.5-0.5S10.7,25,11,25h9
	c0.3,0,0.5,0.2,0.5,0.5S20.3,26,20,26z M19.5,5c-0.6,0-1-0.4-1-1s0.4-1,1-1s1,0.4,1,1S20.1,5,19.5,5z"/>
</svg>
