<?xml version="1.0" encoding="utf-8"?>
<!-- Generator: Adobe Illustrator 19.0.0, SVG Export Plug-In . SVG Version: 6.00 Build 0)  -->
<svg version="1.1" id="Layer_1" xmlns="http://www.w3.org/2000/svg" xmlns:xlink="http://www.w3.org/1999/xlink" x="0px" y="0px"
	 viewBox="0 0 30 30" style="enable-background:new 0 0 30 30;" xml:space="preserve">
<g>
	<path d="M17.5,16c-3,0-5.5,2.5-5.5,5.5s2.5,5.5,5.5,5.5s5.5-2.5,5.5-5.5S20.5,16,17.5,16z"/>
	<path d="M17.5,14c-4.1,0-7.5,3.4-7.5,7.5s3.4,7.5,7.5,7.5s7.5-3.4,7.5-7.5S21.6,14,17.5,14z M17.5,28c-3.6,0-6.5-2.9-6.5-6.5
		s2.9-6.5,6.5-6.5s6.5,2.9,6.5,6.5S21.1,28,17.5,28z"/>
	<path d="M11.2,15.9c1.6-1.8,3.9-2.9,6.3-2.9s4.7,1,6.3,2.9c0.1,0.1,0.2,0.2,0.4,0.2c0,0,0,0,0,0c0.3,0,0.5-0.2,0.5-0.5
		c0-0.1,0-0.2-0.1-0.3c-1-3.1-3.9-5.2-7.2-5.2c-3.3,0-6.3,2.2-7.2,5.4c-0.1,0.2,0,0.5,0.2,0.6C10.8,16.1,11,16,11.2,15.9z"/>
	<path d="M24.6,5.5c-0.1,0-0.2,0-0.2-0.1l-2,2.4C22.3,7.9,22.2,8,22,8h-9c-0.2,0-0.3-0.1-0.4-0.2l-1.7-2.5c-0.1,0-0.2,0.1-0.3,0.1
		c-0.1,0-0.3,0-0.6,0V4.5C10,4.2,9.8,4,9.5,4h-4C5.4,4,5.2,4.1,5.1,4.2C5.1,4.2,5,4.4,5,4.5L5,6C3.3,6.3,1.7,6.9,1.1,7.7
		C0,9.3,0,10.5,0,12L0,23c0,1.6,1.4,3,3,3h1.3c0,0,2.4-0.1,3.1-1H9c0,0,0,0,0,0c0.3,0,0.5-0.2,0.5-0.5c0-0.1,0-0.2-0.1-0.3
		C9.2,23.3,9,22.4,9,21.5v-4C9,12.8,12.8,9,17.5,9s8.5,3.8,8.5,8.5v4c0,0.9-0.2,1.9-0.5,2.8c-0.1,0.2,0,0.3,0.1,0.5
		c0.1,0.1,0.3,0.2,0.4,0.2c2.2-0.1,4-2,4-4.4v-9.9C30,8.4,26.7,5.9,24.6,5.5z M3,12c-0.6,0-1-0.4-1-1s0.4-1,1-1s1,0.4,1,1
		S3.6,12,3,12z M7,21.5C7,21.8,6.8,22,6.5,22S6,21.8,6,21.5v-12C6,9.2,6.2,9,6.5,9S7,9.2,7,9.5V21.5z"/>
	<path d="M21.8,7l1.8-2.1c-0.2-0.3-0.4-0.7-0.5-1.2c-0.2-0.5-0.3-1-0.7-1.3c-1-1.2-3.2-1.4-4.8-1.4c-1.6,0-3.7,0.2-4.8,1.4
		c-0.3,0.4-0.5,0.8-0.6,1.3c-0.1,0.4-0.3,0.7-0.4,1L13.3,7L21.8,7L21.8,7z M14.5,5h6C20.8,5,21,5.2,21,5.5S20.8,6,20.5,6h-6
		C14.2,6,14,5.8,14,5.5S14.2,5,14.5,5z"/>
</g>
</svg>
