<?xml version="1.0" encoding="utf-8"?>
<!-- Generator: Adobe Illustrator 19.0.0, SVG Export Plug-In . SVG Version: 6.00 Build 0)  -->
<svg version="1.1" id="Layer_1" xmlns="http://www.w3.org/2000/svg" xmlns:xlink="http://www.w3.org/1999/xlink" x="0px" y="0px"
	 viewBox="0 0 30 30" style="enable-background:new 0 0 30 30;" xml:space="preserve">
<g>
	<path d="M29.8,11.6l-6-3.8c-0.2-0.1-0.3-0.1-0.5,0C23.1,7.9,23,8.1,23,8.3V21c0,0.8-0.7,1.5-1.5,1.5h-8.9c-0.2,0-0.4,0.1-0.5,0.4
		c-0.1,0.2,0,0.4,0.2,0.6l7.9,5c0.1,0.1,0.2,0.1,0.3,0.1c0,0,0.1,0,0.1,0c0.1,0,0.2-0.1,0.3-0.2l9-16C30.1,12,30,11.7,29.8,11.6z"/>
	<path d="M21.5,21.5c0.3,0,0.5-0.2,0.5-0.5V2c0-0.3-0.2-0.5-0.5-0.5h-21C0.2,1.5,0,1.7,0,2v19c0,0.3,0.2,0.5,0.5,0.5h5h11H21.5z
		 M1,2.5h20v18h-4v-1.3c0-2.5-1.6-4.5-3.9-5.4c1.1-0.7,1.9-2,1.9-3.4c0-2.2-1.8-4-4-4s-4,1.8-4,4c0,1.4,0.8,2.7,1.9,3.4
		C6.6,14.7,5,16.8,5,19.3v1.3H1V2.5z"/>
</g>
</svg>
