<?xml version="1.0" encoding="utf-8"?>
<!-- Generator: Adobe Illustrator 19.0.0, SVG Export Plug-In . SVG Version: 6.00 Build 0)  -->
<svg version="1.1" id="Layer_1" xmlns="http://www.w3.org/2000/svg" xmlns:xlink="http://www.w3.org/1999/xlink" x="0px" y="0px"
	 viewBox="0 0 30 30" style="enable-background:new 0 0 30 30;" xml:space="preserve">
<g>
	<g>
		<g>
			<path d="M8.5,14.8c0-1.2,0.4-2.3,1-3.3c0-0.1,0-0.2,0.1-0.3l6-10.7c-0.2,0-0.4,0-0.6,0c-4.7,0-9,2.3-11.6,5.8L8.5,14.8z"/>
		</g>
		<g>
			<path d="M15,9.5c-3,0-5.5,2.5-5.5,5.5s2.5,5.5,5.5,5.5s5.5-2.5,5.5-5.5S18,9.5,15,9.5z"/>
		</g>
		<g>
			<path d="M11.9,9.3c0.9-0.5,2-0.8,3.1-0.8c0,0,0,0,0.1,0c0,0,0,0,0,0h12.9c-2.1-4.2-6.3-7.3-11.2-7.9L11.9,9.3z"/>
		</g>
		<g>
			<path d="M13.1,29.2l5-8.5c-0.9,0.5-1.9,0.8-3,0.8c0,0,0,0-0.1,0c0,0,0,0,0,0H2.1c2.1,4.2,6.2,7.2,11,7.8
				C13,29.3,13,29.3,13.1,29.2z"/>
		</g>
		<g>
			<path d="M18.4,9.5c1,0.6,1.8,1.5,2.4,2.6c0.1,0,0.1,0.1,0.2,0.2l6.2,10.5c1.4-2.3,2.3-4.9,2.3-7.8c0-1.9-0.4-3.8-1.1-5.5H18.4z"
				/>
		</g>
		<g>
			<path d="M26.5,23.7l-5-8.5c0,1.2-0.4,2.3-1,3.2c0,0.1,0,0.2-0.1,0.3l-6.3,10.7c0.3,0,0.6,0,0.8,0C19.7,29.5,23.9,27.2,26.5,23.7
				C26.5,23.7,26.5,23.7,26.5,23.7z"/>
		</g>
		<g>
			<path d="M11.6,20.5c-1-0.6-1.8-1.5-2.3-2.6c-0.1,0-0.2-0.1-0.3-0.2L2.7,7.4C1.3,9.6,0.5,12.2,0.5,15c0,1.9,0.4,3.8,1.1,5.5
				L11.6,20.5L11.6,20.5z"/>
		</g>
	</g>
</g>
</svg>
