<?xml version="1.0" encoding="iso-8859-1"?>
<!-- Generator: Adobe Illustrator 19.0.0, SVG Export Plug-In . SVG Version: 6.00 Build 0)  -->
<svg version="1.1" id="Layer_1" xmlns="http://www.w3.org/2000/svg" xmlns:xlink="http://www.w3.org/1999/xlink" x="0px" y="0px"
	 viewBox="0 0 30 30" style="enable-background:new 0 0 30 30;" xml:space="preserve">
<g>
	<g>
		<path d="M15.177,24.571l-7.751,1.348l-0.223-1.632c0.001-0.015,0.009-0.028,0.009-0.044c0-0.07-0.015-0.136-0.042-0.197
			L4.559,4.907l21.038-3.825l2.808,15.441c0.049,0.272,0.316,0.455,0.582,0.402c0.271-0.049,0.451-0.31,0.402-0.581L26.492,0.41
			c-0.05-0.272-0.316-0.457-0.582-0.402L17.592,1.52c-0.016-0.003-0.028-0.017-0.044-0.018l-15.5-1.5
			c-0.137-0.011-0.272,0.03-0.376,0.12C1.568,0.212,1.507,0.341,1.5,0.478l-1,23c-0.011,0.259,0.178,0.484,0.436,0.517l5.313,0.693
			l0.256,1.879c0.018,0.135,0.09,0.256,0.2,0.336C6.791,26.966,6.894,27,7,27c0.028,0,0.058-0.002,0.086-0.007l8.263-1.437
			c0.271-0.047,0.454-0.306,0.406-0.578C15.707,24.705,15.444,24.523,15.177,24.571z M23,17.001c-3.584,0-6.5,2.916-6.5,6.5
			s2.916,6.5,6.5,6.5s6.5-2.916,6.5-6.5S26.584,17.001,23,17.001z M22.5,20.501c0-0.276,0.224-0.5,0.5-0.5s0.5,0.224,0.5,0.5v5
			c0,0.276-0.224,0.5-0.5,0.5s-0.5-0.224-0.5-0.5V20.501z M23.03,28.001c-0.276,0-0.505-0.224-0.505-0.5s0.219-0.5,0.494-0.5h0.011
			c0.275,0,0.5,0.224,0.5,0.5S23.306,28.001,23.03,28.001z"/>
	</g>
</g>
</svg>
