<?xml version="1.0" encoding="iso-8859-1"?>
<!-- Generator: Adobe Illustrator 19.0.0, SVG Export Plug-In . SVG Version: 6.00 Build 0)  -->
<svg version="1.1" id="Layer_1" xmlns="http://www.w3.org/2000/svg" xmlns:xlink="http://www.w3.org/1999/xlink" x="0px" y="0px"
	 viewBox="0 0 30 30" style="enable-background:new 0 0 30 30;" xml:space="preserve">
<g>
	<g>
		<path d="M29.803,18.147l-3-3c-0.195-0.195-0.512-0.195-0.707,0l-2.646,2.646l3.707,3.707l2.646-2.646
			C29.998,18.659,29.998,18.343,29.803,18.147z M13.378,25.006L6.98,25.933l-0.225-1.646c0.001-0.015,0.009-0.028,0.009-0.044
			c0-0.07-0.015-0.136-0.042-0.197L4.111,4.907L25.15,1.082l2.307,12.51c0.051,0.271,0.307,0.45,0.583,0.401
			c0.271-0.05,0.451-0.311,0.401-0.583l-2.397-13c-0.051-0.271-0.314-0.455-0.582-0.401l-8.318,1.512
			c-0.016-0.003-0.028-0.017-0.045-0.018l-15.5-1.5c-0.136-0.011-0.272,0.03-0.376,0.12c-0.104,0.09-0.165,0.219-0.172,0.356l-1,23
			c-0.011,0.259,0.178,0.484,0.436,0.517L5.8,24.689l0.256,1.879C6.074,26.7,6.144,26.82,6.25,26.9
			c0.087,0.065,0.193,0.101,0.301,0.101c0.023,0,0.048-0.001,0.071-0.005l6.897-1c0.273-0.04,0.463-0.293,0.424-0.566
			C13.904,25.155,13.634,24.959,13.378,25.006z M15.095,26.147c-0.094,0.094-0.146,0.221-0.146,0.354v3c0,0.276,0.224,0.5,0.5,0.5h3
			c0.133,0,0.26-0.053,0.354-0.146l7.646-7.646l-3.707-3.707L15.095,26.147z"/>
	</g>
</g>
</svg>
