<?xml version="1.0" encoding="iso-8859-1"?>
<!-- Generator: Adobe Illustrator 19.0.0, SVG Export Plug-In . SVG Version: 6.00 Build 0)  -->
<svg version="1.1" id="Layer_1" xmlns="http://www.w3.org/2000/svg" xmlns:xlink="http://www.w3.org/1999/xlink" x="0px" y="0px"
	 viewBox="0 0 30 30" style="enable-background:new 0 0 30 30;" xml:space="preserve">
<g>
	<g>
		<path d="M25.5,1H24v4.5C24,6.327,23.327,7,22.5,7S21,6.327,21,5.5c0-0.651,0.419-1.201,1-1.408V5.5C22,5.776,22.224,6,22.5,6
			S23,5.776,23,5.5v-5C23,0.224,22.776,0,22.5,0S22,0.224,22,0.5V1h-3v4.5C19,6.327,18.327,7,17.5,7S16,6.327,16,5.5
			c0-0.651,0.419-1.201,1-1.408V5.5C17,5.776,17.224,6,17.5,6S18,5.776,18,5.5v-5C18,0.224,17.776,0,17.5,0S17,0.224,17,0.5V1h-3
			v4.5C14,6.327,13.327,7,12.5,7S11,6.327,11,5.5c0-0.651,0.419-1.201,1-1.408V5.5C12,5.776,12.224,6,12.5,6S13,5.776,13,5.5v-5
			C13,0.224,12.776,0,12.5,0S12,0.224,12,0.5V1H9v4.5C9,6.327,8.327,7,7.5,7S6,6.327,6,5.5c0-0.651,0.419-1.201,1-1.408V5.5
			C7,5.776,7.224,6,7.5,6S8,5.776,8,5.5v-5C8,0.224,7.776,0,7.5,0S7,0.224,7,0.5V1H4.5C3.673,1,3,1.673,3,2.5v26
			C3,29.327,3.673,30,4.5,30h21c0.827,0,1.5-0.673,1.5-1.5v-26C27,1.673,26.327,1,25.5,1z"/>
	</g>
</g>
</svg>
