<?xml version="1.0" encoding="iso-8859-1"?>
<!-- Generator: Adobe Illustrator 19.0.0, SVG Export Plug-In . SVG Version: 6.00 Build 0)  -->
<svg version="1.1" id="Layer_1" xmlns="http://www.w3.org/2000/svg" xmlns:xlink="http://www.w3.org/1999/xlink" x="0px" y="0px"
	 viewBox="0 0 30 30" style="enable-background:new 0 0 30 30;" xml:space="preserve">
<g>
	<g>
		<path d="M27,0.5H5C4.173,0.5,3.5,1.173,3.5,2v3.5H2C1.724,5.5,1.5,5.724,1.5,6S1.724,6.5,2,6.5h5c0.276,0,0.5-0.224,0.5-0.5
			S7.276,5.5,7,5.5H5.592c0.207-0.581,0.757-1,1.408-1c0.827,0,1.5,0.673,1.5,1.5c0,0.827-0.673,1.5-1.5,1.5H3.5v4H2
			c-0.276,0-0.5,0.224-0.5,0.5s0.224,0.5,0.5,0.5h5c0.276,0,0.5-0.224,0.5-0.5S7.276,11.5,7,11.5H5.592c0.207-0.581,0.757-1,1.408-1
			c0.827,0,1.5,0.673,1.5,1.5c0,0.827-0.673,1.5-1.5,1.5H3.5v4H2c-0.276,0-0.5,0.224-0.5,0.5s0.224,0.5,0.5,0.5h5
			c0.276,0,0.5-0.224,0.5-0.5S7.276,17.5,7,17.5H5.592c0.207-0.581,0.757-1,1.408-1c0.827,0,1.5,0.673,1.5,1.5
			c0,0.827-0.673,1.5-1.5,1.5H3.5v4H2c-0.276,0-0.5,0.224-0.5,0.5s0.224,0.5,0.5,0.5h5c0.276,0,0.5-0.224,0.5-0.5S7.276,23.5,7,23.5
			H5.592c0.207-0.581,0.757-1,1.408-1c0.827,0,1.5,0.673,1.5,1.5c0,0.827-0.673,1.5-1.5,1.5H3.5V28c0,0.827,0.673,1.5,1.5,1.5h22
			c0.827,0,1.5-0.673,1.5-1.5V2C28.5,1.173,27.827,0.5,27,0.5z"/>
	</g>
</g>
</svg>
