<?xml version="1.0" encoding="utf-8"?>
<!-- Generator: Adobe Illustrator 19.0.0, SVG Export Plug-In . SVG Version: 6.00 Build 0)  -->
<svg version="1.1" id="Layer_1" xmlns="http://www.w3.org/2000/svg" xmlns:xlink="http://www.w3.org/1999/xlink" x="0px" y="0px"
	 viewBox="0 0 30 30" style="enable-background:new 0 0 30 30;" xml:space="preserve">
<g>
	<g>
		<path d="M26.5,20.5h-14c-0.3,0-0.5-0.2-0.5-0.5s0.2-0.5,0.5-0.5h14c0.3,0,0.5,0.2,0.5,0.5S26.8,20.5,26.5,20.5z"/>
	</g>
	<g>
		<path d="M15.5,20.5c0,0-0.1,0-0.1,0c-0.3-0.1-0.4-0.4-0.3-0.6l2-7c0.1-0.3,0.3-0.4,0.6-0.3l4,1c0.1,0,0.3,0.1,0.3,0.3l3,6
			c0.1,0.2,0,0.5-0.2,0.7c-0.2,0.1-0.5,0-0.7-0.2l-2.9-5.8l-3.3-0.8L16,20.1C15.9,20.4,15.7,20.5,15.5,20.5z"/>
	</g>
	<g>
		<path d="M28.5,13.5c0,0-0.1,0-0.1,0l-23-7C5.1,6.4,5,6.1,5,5.9l1-4c0-0.1,0.1-0.3,0.2-0.3c0.1-0.1,0.3-0.1,0.4,0l23,8
			c0.3,0.1,0.4,0.4,0.3,0.6l-1,3C28.9,13.4,28.7,13.5,28.5,13.5z M6.1,5.7l22.1,6.7l0.7-2.1l-22-7.7L6.1,5.7z"/>
	</g>
	<g>
		<path d="M2.1,13.5c-1,0-2.1-0.9-2.1-2.5V3.1c0-0.3,0.2-0.5,0.5-0.5S1,2.9,1,3.1V11c0,1.4,1.2,1.8,1.7,1.2C2.9,11.9,3,11.5,3,11
			c0-0.3,0.2-0.5,0.5-0.5S4,10.7,4,11c0,0.7-0.2,1.4-0.6,1.8C3.1,13.2,2.6,13.5,2.1,13.5z"/>
	</g>
	<g>
		<path d="M5.5,6.5c-0.1,0-0.1,0-0.2,0l-5-2C0.1,4.4,0,4.2,0,4V1c0-0.1,0.1-0.3,0.2-0.4s0.3-0.1,0.4-0.1l6,1C6.9,1.6,7,1.8,7,2.1
			c0,0.3-0.3,0.5-0.6,0.4L1,1.6v2.1l4.7,1.9C5.9,5.6,6.1,5.9,6,6.2C5.9,6.4,5.7,6.5,5.5,6.5z"/>
	</g>
	<g>
		<path d="M10.5,23.5c-0.3,0-0.5-0.2-0.5-0.5v-9.5H5.7L2,18.2V23c0,0.3-0.2,0.5-0.5,0.5S1,23.3,1,23v-5c0-0.1,0-0.2,0.1-0.3l4-5
			c0.1-0.1,0.2-0.2,0.4-0.2h5c0.3,0,0.5,0.2,0.5,0.5v10C11,23.3,10.8,23.5,10.5,23.5z"/>
	</g>
	<g>
		<path d="M8.5,19.5h-4c-0.2,0-0.3-0.1-0.4-0.2c-0.1-0.1-0.1-0.3,0-0.5l2-4c0.1-0.2,0.3-0.3,0.4-0.3h2C8.8,14.5,9,14.7,9,15v4
			C9,19.3,8.8,19.5,8.5,19.5z M5.3,18.5H8v-3H6.8L5.3,18.5z"/>
	</g>
	<g>
		<path d="M26.5,25.5c-0.3,0-0.5-0.2-0.5-0.5v-1.5H13c-0.1,0-0.1,0-0.2,0l-2.5-1c-0.3-0.1-0.4-0.4-0.3-0.7c0.1-0.3,0.4-0.4,0.7-0.3
			l2.4,1h13.4c0.3,0,0.5,0.2,0.5,0.5v2C27,25.3,26.8,25.5,26.5,25.5z"/>
	</g>
	<g>
		<path d="M1.5,25.5h-1C0.2,25.5,0,25.3,0,25v-2c0-0.3,0.2-0.5,0.5-0.5h1C1.8,22.5,2,22.7,2,23s-0.2,0.5-0.5,0.5H1v1h0.5
			C1.8,24.5,2,24.7,2,25S1.8,25.5,1.5,25.5z"/>
	</g>
	<g>
		<path d="M12.5,25.5h-4C8.2,25.5,8,25.3,8,25s0.2-0.5,0.5-0.5h4c0.3,0,0.5,0.2,0.5,0.5S12.8,25.5,12.5,25.5z"/>
	</g>
	<g>
		<path d="M20.5,25.5h-1c-0.3,0-0.5-0.2-0.5-0.5s0.2-0.5,0.5-0.5h1c0.3,0,0.5,0.2,0.5,0.5S20.8,25.5,20.5,25.5z"/>
	</g>
	<g>
		<path d="M4.5,29.5C3.1,29.5,2,28.4,2,27s1.1-2.5,2.5-2.5S7,25.6,7,27S5.9,29.5,4.5,29.5z M4.5,25.5C3.7,25.5,3,26.2,3,27
			s0.7,1.5,1.5,1.5S6,27.8,6,27S5.3,25.5,4.5,25.5z"/>
	</g>
	<g>
		<path d="M16.5,29.5c-1.4,0-2.5-1.1-2.5-2.5s1.1-2.5,2.5-2.5S19,25.6,19,27S17.9,29.5,16.5,29.5z M16.5,25.5
			c-0.8,0-1.5,0.7-1.5,1.5s0.7,1.5,1.5,1.5S18,27.8,18,27S17.3,25.5,16.5,25.5z"/>
	</g>
	<g>
		<path d="M23.5,29.5c-1.4,0-2.5-1.1-2.5-2.5s1.1-2.5,2.5-2.5S26,25.6,26,27S24.9,29.5,23.5,29.5z M23.5,25.5
			c-0.8,0-1.5,0.7-1.5,1.5s0.7,1.5,1.5,1.5S25,27.8,25,27S24.3,25.5,23.5,25.5z"/>
	</g>
</g>
</svg>
