<?xml version="1.0" encoding="utf-8"?>
<!-- Generator: Adobe Illustrator 19.0.0, SVG Export Plug-In . SVG Version: 6.00 Build 0)  -->
<svg version="1.1" id="Layer_1" xmlns="http://www.w3.org/2000/svg" xmlns:xlink="http://www.w3.org/1999/xlink" x="0px" y="0px"
	 viewBox="0 0 30 30" style="enable-background:new 0 0 30 30;" xml:space="preserve">
<g>
	<g>
		<path d="M15.1,7.5c-1.5,0-2.6-0.8-2.6-2c0-1.2,0.8-1.7,1.4-1.9c0.5-0.2,0.6-0.3,0.6-0.6c0-1.1-0.5-2.3-0.5-2.3
			c-0.1-0.2,0-0.4,0.2-0.6c0.2-0.1,0.4-0.1,0.6,0C14.9,0.2,18,2.6,18,5c0,0.8-0.3,1.5-1,1.9C16.5,7.3,15.8,7.5,15.1,7.5z M15.4,2
			c0,0.3,0.1,0.6,0.1,1c0,0.9-0.7,1.2-1.2,1.5c-0.6,0.3-0.8,0.5-0.8,1c0,0.6,0.8,1,1.6,1c0.5,0,1-0.1,1.4-0.4C16.8,5.8,17,5.5,17,5
			C17,4,16.2,2.9,15.4,2z"/>
	</g>
	<g>
		<path d="M16.5,27h-3c-0.3,0-0.5-0.2-0.5-0.5v-17C13,9.2,13.2,9,13.5,9h3C16.8,9,17,9.2,17,9.5v17C17,26.8,16.8,27,16.5,27z M14,26
			h2V10h-2V26z"/>
	</g>
	<g>
		<path d="M23.5,30h-17c-0.2,0-0.4-0.1-0.4-0.3c-0.1-0.2-0.1-0.4,0-0.5l2-3C8.2,26.1,8.3,26,8.5,26h13c0.2,0,0.3,0.1,0.4,0.2l2,3
			c0.1,0.2,0.1,0.4,0,0.5C23.9,29.9,23.7,30,23.5,30z M7.4,29h15.1l-1.3-2H8.8L7.4,29z"/>
	</g>
	<g>
		<path d="M24.5,30h-19C5.2,30,5,29.8,5,29.5S5.2,29,5.5,29h19c0.3,0,0.5,0.2,0.5,0.5S24.8,30,24.5,30z"/>
	</g>
	<g>
		<path d="M19.5,17h-9c-0.3,0-0.5-0.2-0.5-0.5s0.2-0.5,0.5-0.5h9c0.3,0,0.5,0.2,0.5,0.5S19.8,17,19.5,17z"/>
	</g>
	<g>
		<path d="M8.5,27c0,0-0.1,0-0.1,0c-0.3-0.1-0.4-0.4-0.3-0.6l3-10l2-7c0.1-0.3,0.3-0.4,0.6-0.3c0.3,0.1,0.4,0.4,0.3,0.6l-2,7l-3,10
			C8.9,26.9,8.7,27,8.5,27z"/>
	</g>
	<g>
		<path d="M21.5,27c-0.2,0-0.4-0.1-0.5-0.4l-3-10l-2-7c-0.1-0.3,0.1-0.5,0.3-0.6c0.3-0.1,0.5,0.1,0.6,0.3l2,7l3,10
			c0.1,0.3-0.1,0.5-0.3,0.6C21.6,27,21.5,27,21.5,27z"/>
	</g>
	<g>
		<path d="M13.5,27c-0.1,0-0.3-0.1-0.4-0.2l-3.5-4.5c-0.1-0.2-0.1-0.4,0-0.6l3.5-5.5c0.1-0.2,0.5-0.3,0.7-0.2
			c0.2,0.1,0.3,0.5,0.2,0.7L10.6,22l3.3,4.2c0.2,0.2,0.1,0.5-0.1,0.7C13.7,27,13.6,27,13.5,27z"/>
	</g>
	<g>
		<path d="M16.5,27c-0.1,0-0.2,0-0.3-0.1c-0.2-0.2-0.3-0.5-0.1-0.7l3.3-4.2l-3.3-5.2c-0.1-0.2-0.1-0.5,0.2-0.7
			c0.2-0.1,0.5-0.1,0.7,0.2l3.5,5.5c0.1,0.2,0.1,0.4,0,0.6l-3.5,4.5C16.8,26.9,16.6,27,16.5,27z"/>
	</g>
	<g>
		<path d="M17.5,10h-5C12.2,10,12,9.8,12,9.5S12.2,9,12.5,9h5C17.8,9,18,9.2,18,9.5S17.8,10,17.5,10z"/>
	</g>
</g>
</svg>
